<svg xmlns="http://www.w3.org/2000/svg" width="1200" height="760" viewBox="0 0 1200 760">
  <rect width="1200" height="760" fill="#102630"/>
  <text x="70" y="90" fill="#f5f0e7" font-family="sans-serif" font-size="42" font-weight="700">MM-ORG-036 · LIFTDECK 50</text>
  <text x="70" y="135" fill="#bcd1d6" font-family="sans-serif" font-size="22">Measured deep-drawer riser · reuse the tray · keep the cavity</text>
  <g transform="translate(110 230)" stroke="#193f49" stroke-width="4">
    <path d="M0 120 L610 0 L920 115 L300 245 Z" fill="#62c9b7"/>
    <path d="M0 120 L0 330 L300 455 L300 245 Z" fill="#3a9c92"/>
    <path d="M610 0 L610 220 L920 335 L920 115 Z" fill="#48aa9c"/>
    <path d="M300 245 L300 455" fill="none" stroke="#62c9b7" stroke-width="34"/>
    <path d="M920 115 L920 335" fill="none" stroke="#62c9b7" stroke-width="34"/>
    <path d="M610 0 L610 220" fill="none" stroke="#62c9b7" stroke-width="34"/>
    <path d="M0 120 L0 330" fill="none" stroke="#62c9b7" stroke-width="34"/>
    <path d="M455 120 L455 350" fill="none" stroke="#f0aa55" stroke-width="28"/>
    <path d="M120 100 L730 210 M245 75 L855 185 M155 165 L765 45 M230 205 L840 85" fill="none" stroke="#d5f0ea" stroke-width="10" opacity=".8"/>
  </g>
  <text x="72" y="700" fill="#c8d7db" font-family="sans-serif" font-size="22">Pilot 180 × 140 × 50 mm · four corner posts + center post · top-face-down print</text>
</svg>
