  0
SECTION
  2
BLOCKS
  0
ENDSEC
  0
SECTION
  2
ENTITIES
  0
LINE
  8
0
 10
3.85881
 20
2.95125
 11
3.85881
 21
6.41344
  0
LINE
  8
0
 10
3.85881
 20
6.41344
 11
6.98486
 21
8.43025
  0
LINE
  8
0
 10
6.98486
 20
8.43025
 11
6.94907
 21
8.46478
  0
LINE
  8
0
 10
6.94907
 20
8.46478
 11
6.91226
 21
8.49777
  0
LINE
  8
0
 10
6.91226
 20
8.49777
 11
6.87445
 21
8.52921
  0
LINE
  8
0
 10
6.87445
 20
8.52921
 11
6.83562
 21
8.55905
  0
LINE
  8
0
 10
6.83562
 20
8.55905
 11
6.79579
 21
8.58728
  0
LINE
  8
0
 10
6.79579
 20
8.58728
 11
6.75494
 21
8.61388
  0
LINE
  8
0
 10
6.75494
 20
8.61388
 11
6.7131
 21
8.63881
  0
LINE
  8
0
 10
6.7131
 20
8.63881
 11
6.67024
 21
8.66205
  0
LINE
  8
0
 10
6.67024
 20
8.66205
 11
6.62637
 21
8.68356
  0
LINE
  8
0
 10
6.62637
 20
8.68356
 11
6.58151
 21
8.70335
  0
LINE
  8
0
 10
6.58151
 20
8.70335
 11
6.53563
 21
8.72137
  0
LINE
  8
0
 10
6.53563
 20
8.72137
 11
6.48874
 21
8.73761
  0
LINE
  8
0
 10
6.48874
 20
8.73761
 11
6.44083
 21
8.75201
  0
LINE
  8
0
 10
6.44083
 20
8.75201
 11
6.39192
 21
8.7646
  0
LINE
  8
0
 10
6.39192
 20
8.7646
 11
6.34201
 21
8.77531
  0
LINE
  8
0
 10
6.34201
 20
8.77531
 11
6.29109
 21
8.78413
  0
LINE
  8
0
 10
6.29109
 20
8.78413
 11
6.23915
 21
8.79103
  0
LINE
  8
0
 10
6.23915
 20
8.79103
 11
6.1862
 21
8.79599
  0
LINE
  8
0
 10
6.1862
 20
8.79599
 11
6.13226
 21
8.79898
  0
LINE
  8
0
 10
6.13226
 20
8.79898
 11
6.0773
 21
8.79999
  0
LINE
  8
0
 10
6.0773
 20
8.79999
 11
2.85042
 21
8.79999
  0
LINE
  8
0
 10
2.85042
 20
8.79999
 11
2.68083
 21
8.79326
  0
LINE
  8
0
 10
2.68083
 20
8.79326
 11
2.51529
 21
8.77341
  0
LINE
  8
0
 10
2.51529
 20
8.77341
 11
2.35428
 21
8.74089
  0
LINE
  8
0
 10
2.35428
 20
8.74089
 11
2.19832
 21
8.6962
  0
LINE
  8
0
 10
2.19832
 20
8.6962
 11
2.0479
 21
8.6398
  0
LINE
  8
0
 10
2.0479
 20
8.6398
 11
1.90352
 21
8.57219
  0
LINE
  8
0
 10
1.90352
 20
8.57219
 11
1.7657
 21
8.49385
  0
LINE
  8
0
 10
1.7657
 20
8.49385
 11
1.63495
 21
8.40524
  0
LINE
  8
0
 10
1.63495
 20
8.40524
 11
1.51175
 21
8.30684
  0
LINE
  8
0
 10
1.51175
 20
8.30684
 11
1.39664
 21
8.19916
  0
LINE
  8
0
 10
1.39664
 20
8.19916
 11
1.29007
 21
8.08264
  0
LINE
  8
0
 10
1.29007
 20
8.08264
 11
1.1926
 21
7.95778
  0
LINE
  8
0
 10
1.1926
 20
7.95778
 11
1.10469
 21
7.82504
  0
LINE
  8
0
 10
1.10469
 20
7.82504
 11
1.02689
 21
7.68494
  0
LINE
  8
0
 10
1.02689
 20
7.68494
 11
0.959656
 21
7.53792
  0
LINE
  8
0
 10
0.959656
 20
7.53792
 11
0.903519
 21
7.38446
  0
LINE
  8
0
 10
0.903519
 20
7.38446
 11
0.858978
 21
7.22507
  0
LINE
  8
0
 10
0.858978
 20
7.22507
 11
0.826553
 21
7.0602
  0
LINE
  8
0
 10
0.826553
 20
7.0602
 11
0.806717
 21
6.89034
  0
LINE
  8
0
 10
0.806717
 20
6.89034
 11
0.799988
 21
6.71596
  0
LINE
  8
0
 10
0.799988
 20
6.71596
 11
0.799988
 21
2.41344
  0
LINE
  8
0
 10
0.799988
 20
2.41344
 11
0.800507
 21
2.3532
  0
LINE
  8
0
 10
0.800507
 20
2.3532
 11
0.802078
 21
2.2935
  0
LINE
  8
0
 10
0.802078
 20
2.2935
 11
0.804764
 21
2.23442
  0
LINE
  8
0
 10
0.804764
 20
2.23442
 11
0.808594
 21
2.17599
  0
LINE
  8
0
 10
0.808594
 20
2.17599
 11
0.813644
 21
2.11827
  0
LINE
  8
0
 10
0.813644
 20
2.11827
 11
0.819962
 21
2.06131
  0
LINE
  8
0
 10
0.819962
 20
2.06131
 11
0.827576
 21
2.00514
  0
LINE
  8
0
 10
0.827576
 20
2.00514
 11
0.836563
 21
1.94984
  0
LINE
  8
0
 10
0.836563
 20
1.94984
 11
0.846954
 21
1.89545
  0
LINE
  8
0
 10
0.846954
 20
1.89545
 11
0.85881
 21
1.84201
  0
LINE
  8
0
 10
0.85881
 20
1.84201
 11
0.872192
 21
1.78958
  0
LINE
  8
0
 10
0.872192
 20
1.78958
 11
0.887115
 21
1.7382
  0
LINE
  8
0
 10
0.887115
 20
1.7382
 11
0.903671
 21
1.68796
  0
LINE
  8
0
 10
0.903671
 20
1.68796
 11
0.921875
 21
1.63885
  0
LINE
  8
0
 10
0.921875
 20
1.63885
 11
0.941803
 21
1.59096
  0
LINE
  8
0
 10
0.941803
 20
1.59096
 11
0.963486
 21
1.54433
  0
LINE
  8
0
 10
0.963486
 20
1.54433
 11
0.987
 21
1.49901
  0
LINE
  8
0
 10
0.987
 20
1.49901
 11
1.01236
 21
1.45505
  0
LINE
  8
0
 10
1.01236
 20
1.45505
 11
1.03964
 21
1.41251
  0
LINE
  8
0
 10
1.03964
 20
1.41251
 11
1.06889
 21
1.37141
  0
LINE
  8
0
 10
1.06889
 20
1.37141
 11
3.85881
 21
2.95125
  0
LINE
  8
0
 10
32.8609
 20
5.02524
 11
33.1096
 21
5.09932
  0
LINE
  8
0
 10
33.1096
 20
5.09932
 11
33.3249
 21
5.22278
  0
LINE
  8
0
 10
33.3249
 20
5.22278
 11
33.5069
 21
5.39563
  0
LINE
  8
0
 10
33.5069
 20
5.39563
 11
33.6516
 21
5.61273
  0
LINE
  8
0
 10
33.6516
 20
5.61273
 11
33.755
 21
5.86891
  0
LINE
  8
0
 10
33.755
 20
5.86891
 11
33.817
 21
6.1642
  0
LINE
  8
0
 10
33.817
 20
6.1642
 11
33.8377
 21
6.49857
  0
LINE
  8
0
 10
33.8377
 20
6.49857
 11
33.8283
 21
6.72633
  0
LINE
  8
0
 10
33.8283
 20
6.72633
 11
33.8002
 21
6.93706
  0
LINE
  8
0
 10
33.8002
 20
6.93706
 11
33.7534
 21
7.13074
  0
LINE
  8
0
 10
33.7534
 20
7.13074
 11
33.6879
 21
7.30739
  0
LINE
  8
0
 10
33.6879
 20
7.30739
 11
33.6047
 21
7.46565
  0
LINE
  8
0
 10
33.6047
 20
7.46565
 11
33.5052
 21
7.6042
  0
LINE
  8
0
 10
33.5052
 20
7.6042
 11
33.3891
 21
7.72301
  0
LINE
  8
0
 10
33.3891
 20
7.72301
 11
33.2566
 21
7.82208
  0
LINE
  8
0
 10
33.2566
 20
7.82208
 11
33.1087
 21
7.90016
  0
LINE
  8
0
 10
33.1087
 20
7.90016
 11
32.9464
 21
7.95592
  0
LINE
  8
0
 10
32.9464
 20
7.95592
 11
32.7699
 21
7.98938
  0
LINE
  8
0
 10
32.7699
 20
7.98938
 11
32.579
 21
8.00053
  0
LINE
  8
0
 10
32.579
 20
8.00053
 11
32.2987
 21
7.97578
  0
LINE
  8
0
 10
32.2987
 20
7.97578
 11
32.0509
 21
7.9015
  0
LINE
  8
0
 10
32.0509
 20
7.9015
 11
31.8357
 21
7.77773
  0
LINE
  8
0
 10
31.8357
 20
7.77773
 11
31.6531
 21
7.60443
  0
LINE
  8
0
 10
31.6531
 20
7.60443
 11
31.5075
 21
7.38678
  0
LINE
  8
0
 10
31.5075
 20
7.38678
 11
31.4035
 21
7.12993
  0
LINE
  8
0
 10
31.4035
 20
7.12993
 11
31.3411
 21
6.83386
  0
LINE
  8
0
 10
31.3411
 20
6.83386
 11
31.3203
 21
6.49857
  0
LINE
  8
0
 10
31.3203
 20
6.49857
 11
31.3411
 21
6.16339
  0
LINE
  8
0
 10
31.3411
 20
6.16339
 11
31.4035
 21
5.86769
  0
LINE
  8
0
 10
31.4035
 20
5.86769
 11
31.5075
 21
5.61143
  0
LINE
  8
0
 10
31.5075
 20
5.61143
 11
31.6531
 21
5.39465
  0
LINE
  8
0
 10
31.6531
 20
5.39465
 11
31.8357
 21
5.22223
  0
LINE
  8
0
 10
31.8357
 20
5.22223
 11
32.0509
 21
5.09906
  0
LINE
  8
0
 10
32.0509
 20
5.09906
 11
32.2987
 21
5.02518
  0
LINE
  8
0
 10
32.2987
 20
5.02518
 11
32.579
 21
5.00053
  0
LINE
  8
0
 10
32.579
 20
5.00053
 11
32.8609
 21
5.02524
  0
LINE
  8
0
 10
32.4588
 20
5.58228
 11
32.3536
 21
5.62749
  0
LINE
  8
0
 10
32.3536
 20
5.62749
 11
32.2633
 21
5.70285
  0
LINE
  8
0
 10
32.2633
 20
5.70285
 11
32.1879
 21
5.80836
  0
LINE
  8
0
 10
32.1879
 20
5.80836
 11
32.1286
 21
5.94196
  0
LINE
  8
0
 10
32.1286
 20
5.94196
 11
32.0861
 21
6.10152
  0
LINE
  8
0
 10
32.0861
 20
6.10152
 11
32.0607
 21
6.28705
  0
LINE
  8
0
 10
32.0607
 20
6.28705
 11
32.0522
 21
6.49857
  0
LINE
  8
0
 10
32.0522
 20
6.49857
 11
32.0607
 21
6.71114
  0
LINE
  8
0
 10
32.0607
 20
6.71114
 11
32.0864
 21
6.89784
  0
LINE
  8
0
 10
32.0864
 20
6.89784
 11
32.1291
 21
7.05869
  0
LINE
  8
0
 10
32.1291
 20
7.05869
 11
32.1889
 21
7.19366
  0
LINE
  8
0
 10
32.1889
 20
7.19366
 11
32.2646
 21
7.30046
  0
LINE
  8
0
 10
32.2646
 20
7.30046
 11
32.3548
 21
7.37675
  0
LINE
  8
0
 10
32.3548
 20
7.37675
 11
32.4596
 21
7.42252
  0
LINE
  8
0
 10
32.4596
 20
7.42252
 11
32.579
 21
7.43777
  0
LINE
  8
0
 10
32.579
 20
7.43777
 11
32.6993
 21
7.42252
  0
LINE
  8
0
 10
32.6993
 20
7.42252
 11
32.8047
 21
7.37675
  0
LINE
  8
0
 10
32.8047
 20
7.37675
 11
32.8953
 21
7.30046
  0
LINE
  8
0
 10
32.8953
 20
7.30046
 11
32.9711
 21
7.19366
  0
LINE
  8
0
 10
32.9711
 20
7.19366
 11
33.0309
 21
7.05869
  0
LINE
  8
0
 10
33.0309
 20
7.05869
 11
33.0736
 21
6.89784
  0
LINE
  8
0
 10
33.0736
 20
6.89784
 11
33.0993
 21
6.71114
  0
LINE
  8
0
 10
33.0993
 20
6.71114
 11
33.1078
 21
6.49857
  0
LINE
  8
0
 10
33.1078
 20
6.49857
 11
33.0993
 21
6.28705
  0
LINE
  8
0
 10
33.0993
 20
6.28705
 11
33.0736
 21
6.10152
  0
LINE
  8
0
 10
33.0736
 20
6.10152
 11
33.0309
 21
5.94196
  0
LINE
  8
0
 10
33.0309
 20
5.94196
 11
32.9711
 21
5.80836
  0
LINE
  8
0
 10
32.9711
 20
5.80836
 11
32.8953
 21
5.70285
  0
LINE
  8
0
 10
32.8953
 20
5.70285
 11
32.8047
 21
5.62749
  0
LINE
  8
0
 10
32.8047
 20
5.62749
 11
32.6993
 21
5.58228
  0
LINE
  8
0
 10
32.6993
 20
5.58228
 11
32.579
 21
5.5672
  0
LINE
  8
0
 10
32.579
 20
5.5672
 11
32.4588
 21
5.58228
  0
LINE
  8
0
 10
30.0786
 20
5.02524
 11
30.3272
 21
5.09932
  0
LINE
  8
0
 10
30.3272
 20
5.09932
 11
30.5426
 21
5.22278
  0
LINE
  8
0
 10
30.5426
 20
5.22278
 11
30.7246
 21
5.39563
  0
LINE
  8
0
 10
30.7246
 20
5.39563
 11
30.8693
 21
5.61273
  0
LINE
  8
0
 10
30.8693
 20
5.61273
 11
30.9727
 21
5.86891
  0
LINE
  8
0
 10
30.9727
 20
5.86891
 11
31.0347
 21
6.1642
  0
LINE
  8
0
 10
31.0347
 20
6.1642
 11
31.0554
 21
6.49857
  0
LINE
  8
0
 10
31.0554
 20
6.49857
 11
31.046
 21
6.72633
  0
LINE
  8
0
 10
31.046
 20
6.72633
 11
31.0179
 21
6.93706
  0
LINE
  8
0
 10
31.0179
 20
6.93706
 11
30.9711
 21
7.13074
  0
LINE
  8
0
 10
30.9711
 20
7.13074
 11
30.9055
 21
7.30739
  0
LINE
  8
0
 10
30.9055
 20
7.30739
 11
30.8224
 21
7.46565
  0
LINE
  8
0
 10
30.8224
 20
7.46565
 11
30.7228
 21
7.6042
  0
LINE
  8
0
 10
30.7228
 20
7.6042
 11
30.6068
 21
7.72301
  0
LINE
  8
0
 10
30.6068
 20
7.72301
 11
30.4743
 21
7.82208
  0
LINE
  8
0
 10
30.4743
 20
7.82208
 11
30.3264
 21
7.90016
  0
LINE
  8
0
 10
30.3264
 20
7.90016
 11
30.1641
 21
7.95592
  0
LINE
  8
0
 10
30.1641
 20
7.95592
 11
29.9876
 21
7.98938
  0
LINE
  8
0
 10
29.9876
 20
7.98938
 11
29.7967
 21
8.00053
  0
LINE
  8
0
 10
29.7967
 20
8.00053
 11
29.5164
 21
7.97578
  0
LINE
  8
0
 10
29.5164
 20
7.97578
 11
29.2686
 21
7.9015
  0
LINE
  8
0
 10
29.2686
 20
7.9015
 11
29.0534
 21
7.77773
  0
LINE
  8
0
 10
29.0534
 20
7.77773
 11
28.8708
 21
7.60443
  0
LINE
  8
0
 10
28.8708
 20
7.60443
 11
28.7252
 21
7.38678
  0
LINE
  8
0
 10
28.7252
 20
7.38678
 11
28.6212
 21
7.12993
  0
LINE
  8
0
 10
28.6212
 20
7.12993
 11
28.5588
 21
6.83386
  0
LINE
  8
0
 10
28.5588
 20
6.83386
 11
28.538
 21
6.49857
  0
LINE
  8
0
 10
28.538
 20
6.49857
 11
28.5588
 21
6.16339
  0
LINE
  8
0
 10
28.5588
 20
6.16339
 11
28.6212
 21
5.86769
  0
LINE
  8
0
 10
28.6212
 20
5.86769
 11
28.7252
 21
5.61143
  0
LINE
  8
0
 10
28.7252
 20
5.61143
 11
28.8708
 21
5.39465
  0
LINE
  8
0
 10
28.8708
 20
5.39465
 11
29.0534
 21
5.22223
  0
LINE
  8
0
 10
29.0534
 20
5.22223
 11
29.2686
 21
5.09906
  0
LINE
  8
0
 10
29.2686
 20
5.09906
 11
29.5164
 21
5.02518
  0
LINE
  8
0
 10
29.5164
 20
5.02518
 11
29.7967
 21
5.00053
  0
LINE
  8
0
 10
29.7967
 20
5.00053
 11
30.0786
 21
5.02524
  0
LINE
  8
0
 10
29.6765
 20
5.58228
 11
29.5712
 21
5.62749
  0
LINE
  8
0
 10
29.5712
 20
5.62749
 11
29.481
 21
5.70285
  0
LINE
  8
0
 10
29.481
 20
5.70285
 11
29.4056
 21
5.80836
  0
LINE
  8
0
 10
29.4056
 20
5.80836
 11
29.3462
 21
5.94196
  0
LINE
  8
0
 10
29.3462
 20
5.94196
 11
29.3038
 21
6.10152
  0
LINE
  8
0
 10
29.3038
 20
6.10152
 11
29.2784
 21
6.28705
  0
LINE
  8
0
 10
29.2784
 20
6.28705
 11
29.2699
 21
6.49857
  0
LINE
  8
0
 10
29.2699
 20
6.49857
 11
29.2784
 21
6.71114
  0
LINE
  8
0
 10
29.2784
 20
6.71114
 11
29.3041
 21
6.89784
  0
LINE
  8
0
 10
29.3041
 20
6.89784
 11
29.3468
 21
7.05869
  0
LINE
  8
0
 10
29.3468
 20
7.05869
 11
29.4066
 21
7.19366
  0
LINE
  8
0
 10
29.4066
 20
7.19366
 11
29.4823
 21
7.30046
  0
LINE
  8
0
 10
29.4823
 20
7.30046
 11
29.5725
 21
7.37675
  0
LINE
  8
0
 10
29.5725
 20
7.37675
 11
29.6773
 21
7.42252
  0
LINE
  8
0
 10
29.6773
 20
7.42252
 11
29.7967
 21
7.43777
  0
LINE
  8
0
 10
29.7967
 20
7.43777
 11
29.9169
 21
7.42252
  0
LINE
  8
0
 10
29.9169
 20
7.42252
 11
30.0224
 21
7.37675
  0
LINE
  8
0
 10
30.0224
 20
7.37675
 11
30.113
 21
7.30046
  0
LINE
  8
0
 10
30.113
 20
7.30046
 11
30.1888
 21
7.19366
  0
LINE
  8
0
 10
30.1888
 20
7.19366
 11
30.2486
 21
7.05869
  0
LINE
  8
0
 10
30.2486
 20
7.05869
 11
30.2913
 21
6.89784
  0
LINE
  8
0
 10
30.2913
 20
6.89784
 11
30.3169
 21
6.71114
  0
LINE
  8
0
 10
30.3169
 20
6.71114
 11
30.3255
 21
6.49857
  0
LINE
  8
0
 10
30.3255
 20
6.49857
 11
30.3169
 21
6.28705
  0
LINE
  8
0
 10
30.3169
 20
6.28705
 11
30.2913
 21
6.10152
  0
LINE
  8
0
 10
30.2913
 20
6.10152
 11
30.2486
 21
5.94196
  0
LINE
  8
0
 10
30.2486
 20
5.94196
 11
30.1888
 21
5.80836
  0
LINE
  8
0
 10
30.1888
 20
5.80836
 11
30.113
 21
5.70285
  0
LINE
  8
0
 10
30.113
 20
5.70285
 11
30.0224
 21
5.62749
  0
LINE
  8
0
 10
30.0224
 20
5.62749
 11
29.9169
 21
5.58228
  0
LINE
  8
0
 10
29.9169
 20
5.58228
 11
29.7967
 21
5.5672
  0
LINE
  8
0
 10
29.7967
 20
5.5672
 11
29.6765
 21
5.58228
  0
LINE
  8
0
 10
25.2417
 20
5.00986
 11
25.4175
 21
5.0378
  0
LINE
  8
0
 10
25.4175
 20
5.0378
 11
25.5825
 21
5.08437
  0
LINE
  8
0
 10
25.5825
 20
5.08437
 11
25.7367
 21
5.14955
  0
LINE
  8
0
 10
25.7367
 20
5.14955
 11
25.8775
 21
5.23221
  0
LINE
  8
0
 10
25.8775
 20
5.23221
 11
26.0023
 21
5.33118
  0
LINE
  8
0
 10
26.0023
 20
5.33118
 11
26.1112
 21
5.44643
  0
LINE
  8
0
 10
26.1112
 20
5.44643
 11
26.2041
 21
5.57799
  0
LINE
  8
0
 10
26.2041
 20
5.57799
 11
26.2785
 21
5.72462
  0
LINE
  8
0
 10
26.2785
 20
5.72462
 11
26.3316
 21
5.88509
  0
LINE
  8
0
 10
26.3316
 20
5.88509
 11
26.3634
 21
6.05942
  0
LINE
  8
0
 10
26.3634
 20
6.05942
 11
26.3741
 21
6.24757
  0
LINE
  8
0
 10
26.3741
 20
6.24757
 11
26.3741
 21
6.6319
  0
LINE
  8
0
 10
26.3741
 20
6.6319
 11
25.0892
 21
6.6319
  0
LINE
  8
0
 10
25.0892
 20
6.6319
 11
25.0892
 21
6.12407
  0
LINE
  8
0
 10
25.0892
 20
6.12407
 11
25.6884
 21
6.12407
  0
LINE
  8
0
 10
25.6884
 20
6.12407
 11
25.6757
 21
6.01157
  0
LINE
  8
0
 10
25.6757
 20
6.01157
 11
25.6434
 21
5.91132
  0
LINE
  8
0
 10
25.6434
 20
5.91132
 11
25.5917
 21
5.82333
  0
LINE
  8
0
 10
25.5917
 20
5.82333
 11
25.5205
 21
5.74759
  0
LINE
  8
0
 10
25.5205
 20
5.74759
 11
25.4311
 21
5.68668
  0
LINE
  8
0
 10
25.4311
 20
5.68668
 11
25.3247
 21
5.64317
  0
LINE
  8
0
 10
25.3247
 20
5.64317
 11
25.2014
 21
5.61708
  0
LINE
  8
0
 10
25.2014
 20
5.61708
 11
25.0611
 21
5.60837
  0
LINE
  8
0
 10
25.0611
 20
5.60837
 11
24.9006
 21
5.62302
  0
LINE
  8
0
 10
24.9006
 20
5.62302
 11
24.759
 21
5.66695
  0
LINE
  8
0
 10
24.759
 20
5.66695
 11
24.6362
 21
5.74017
  0
LINE
  8
0
 10
24.6362
 20
5.74017
 11
24.5323
 21
5.84268
  0
LINE
  8
0
 10
24.5323
 20
5.84268
 11
24.4496
 21
5.97191
  0
LINE
  8
0
 10
24.4496
 20
5.97191
 11
24.3905
 21
6.12527
  0
LINE
  8
0
 10
24.3905
 20
6.12527
 11
24.3551
 21
6.30278
  0
LINE
  8
0
 10
24.3551
 20
6.30278
 11
24.3433
 21
6.50444
  0
LINE
  8
0
 10
24.3433
 20
6.50444
 11
24.3554
 21
6.70427
  0
LINE
  8
0
 10
24.3554
 20
6.70427
 11
24.3918
 21
6.88019
  0
LINE
  8
0
 10
24.3918
 20
6.88019
 11
24.4524
 21
7.03221
  0
LINE
  8
0
 10
24.4524
 20
7.03221
 11
24.5373
 21
7.16032
  0
LINE
  8
0
 10
24.5373
 20
7.16032
 11
24.6427
 21
7.26198
  0
LINE
  8
0
 10
24.6427
 20
7.26198
 11
24.7648
 21
7.33458
  0
LINE
  8
0
 10
24.7648
 20
7.33458
 11
24.9036
 21
7.37816
  0
LINE
  8
0
 10
24.9036
 20
7.37816
 11
25.0591
 21
7.39267
  0
LINE
  8
0
 10
25.0591
 20
7.39267
 11
25.1658
 21
7.38637
  0
LINE
  8
0
 10
25.1658
 20
7.38637
 11
25.2629
 21
7.36743
  0
LINE
  8
0
 10
25.2629
 20
7.36743
 11
25.3503
 21
7.33586
  0
LINE
  8
0
 10
25.3503
 20
7.33586
 11
25.428
 21
7.29169
  0
LINE
  8
0
 10
25.428
 20
7.29169
 11
25.4949
 21
7.23611
  0
LINE
  8
0
 10
25.4949
 20
7.23611
 11
25.5499
 21
7.17036
  0
LINE
  8
0
 10
25.5499
 20
7.17036
 11
25.593
 21
7.09445
  0
LINE
  8
0
 10
25.593
 20
7.09445
 11
25.6241
 21
7.00836
  0
LINE
  8
0
 10
25.6241
 20
7.00836
 11
26.3419
 21
7.00836
  0
LINE
  8
0
 10
26.3419
 20
7.00836
 11
26.3149
 21
7.14935
  0
LINE
  8
0
 10
26.3149
 20
7.14935
 11
26.2702
 21
7.28214
  0
LINE
  8
0
 10
26.2702
 20
7.28214
 11
26.2078
 21
7.40671
  0
LINE
  8
0
 10
26.2078
 20
7.40671
 11
26.1277
 21
7.52307
  0
LINE
  8
0
 10
26.1277
 20
7.52307
 11
26.0324
 21
7.6292
  0
LINE
  8
0
 10
26.0324
 20
7.6292
 11
25.9244
 21
7.72307
  0
LINE
  8
0
 10
25.9244
 20
7.72307
 11
25.8037
 21
7.80469
  0
LINE
  8
0
 10
25.8037
 20
7.80469
 11
25.6703
 21
7.87404
  0
LINE
  8
0
 10
25.6703
 20
7.87404
 11
25.5266
 21
7.92938
  0
LINE
  8
0
 10
25.5266
 20
7.92938
 11
25.3748
 21
7.96892
  0
LINE
  8
0
 10
25.3748
 20
7.96892
 11
25.2149
 21
7.99263
  0
LINE
  8
0
 10
25.2149
 20
7.99263
 11
25.047
 21
8.00053
  0
LINE
  8
0
 10
25.047
 20
8.00053
 11
24.8517
 21
7.98944
  0
LINE
  8
0
 10
24.8517
 20
7.98944
 11
24.666
 21
7.95618
  0
LINE
  8
0
 10
24.666
 20
7.95618
 11
24.4898
 21
7.90071
  0
LINE
  8
0
 10
24.4898
 20
7.90071
 11
24.3232
 21
7.82307
  0
LINE
  8
0
 10
24.3232
 20
7.82307
 11
24.1696
 21
7.72443
  0
LINE
  8
0
 10
24.1696
 20
7.72443
 11
24.0326
 21
7.60593
  0
LINE
  8
0
 10
24.0326
 20
7.60593
 11
23.9122
 21
7.46756
  0
LINE
  8
0
 10
23.9122
 20
7.46756
 11
23.8084
 21
7.30934
  0
LINE
  8
0
 10
23.8084
 20
7.30934
 11
23.7249
 21
7.13232
  0
LINE
  8
0
 10
23.7249
 20
7.13232
 11
23.6652
 21
6.93753
  0
LINE
  8
0
 10
23.6652
 20
6.93753
 11
23.6294
 21
6.72496
  0
LINE
  8
0
 10
23.6294
 20
6.72496
 11
23.6174
 21
6.49464
  0
LINE
  8
0
 10
23.6174
 20
6.49464
 11
23.6288
 21
6.27209
  0
LINE
  8
0
 10
23.6288
 20
6.27209
 11
23.6627
 21
6.06523
  0
LINE
  8
0
 10
23.6627
 20
6.06523
 11
23.7192
 21
5.87405
  0
LINE
  8
0
 10
23.7192
 20
5.87405
 11
23.7984
 21
5.69855
  0
LINE
  8
0
 10
23.7984
 20
5.69855
 11
23.8978
 21
5.54054
  0
LINE
  8
0
 10
23.8978
 20
5.54054
 11
24.015
 21
5.40176
  0
LINE
  8
0
 10
24.015
 20
5.40176
 11
24.1501
 21
5.28221
  0
LINE
  8
0
 10
24.1501
 20
5.28221
 11
24.3031
 21
5.18192
  0
LINE
  8
0
 10
24.3031
 20
5.18192
 11
24.4715
 21
5.10255
  0
LINE
  8
0
 10
24.4715
 20
5.10255
 11
24.6529
 21
5.04588
  0
LINE
  8
0
 10
24.6529
 20
5.04588
 11
24.8475
 21
5.01187
  0
LINE
  8
0
 10
24.8475
 20
5.01187
 11
25.0551
 21
5.00053
  0
LINE
  8
0
 10
25.0551
 20
5.00053
 11
25.2417
 21
5.00986
  0
LINE
  8
0
 10
19.4695
 20
5.01138
 11
19.655
 21
5.04391
  0
LINE
  8
0
 10
19.655
 20
5.04391
 11
19.8309
 21
5.09813
  0
LINE
  8
0
 10
19.8309
 20
5.09813
 11
19.997
 21
5.17404
  0
LINE
  8
0
 10
19.997
 20
5.17404
 11
20.1501
 21
5.27092
  0
LINE
  8
0
 10
20.1501
 20
5.27092
 11
20.2863
 21
5.38803
  0
LINE
  8
0
 10
20.2863
 20
5.38803
 11
20.4059
 21
5.52534
  0
LINE
  8
0
 10
20.4059
 20
5.52534
 11
20.5087
 21
5.68288
  0
LINE
  8
0
 10
20.5087
 20
5.68288
 11
20.5914
 21
5.8596
  0
LINE
  8
0
 10
20.5914
 20
5.8596
 11
20.6505
 21
6.05446
  0
LINE
  8
0
 10
20.6505
 20
6.05446
 11
20.6859
 21
6.26744
  0
LINE
  8
0
 10
20.6859
 20
6.26744
 11
20.6978
 21
6.49857
  0
LINE
  8
0
 10
20.6978
 20
6.49857
 11
20.6859
 21
6.73056
  0
LINE
  8
0
 10
20.6859
 20
6.73056
 11
20.6505
 21
6.94415
  0
LINE
  8
0
 10
20.6505
 20
6.94415
 11
20.5914
 21
7.13937
  0
LINE
  8
0
 10
20.5914
 20
7.13937
 11
20.5087
 21
7.31619
  0
LINE
  8
0
 10
20.5087
 20
7.31619
 11
20.4059
 21
7.4738
  0
LINE
  8
0
 10
20.4059
 20
7.4738
 11
20.2863
 21
7.6113
  0
LINE
  8
0
 10
20.2863
 20
7.6113
 11
20.1501
 21
7.72871
  0
LINE
  8
0
 10
20.1501
 20
7.72871
 11
19.997
 21
7.82602
  0
LINE
  8
0
 10
19.997
 20
7.82602
 11
19.8309
 21
7.90237
  0
LINE
  8
0
 10
19.8309
 20
7.90237
 11
19.655
 21
7.95691
  0
LINE
  8
0
 10
19.655
 20
7.95691
 11
19.4695
 21
7.98962
  0
LINE
  8
0
 10
19.4695
 20
7.98962
 11
19.2742
 21
8.00053
  0
LINE
  8
0
 10
19.2742
 20
8.00053
 11
19.0772
 21
7.98962
  0
LINE
  8
0
 10
19.0772
 20
7.98962
 11
18.8904
 21
7.95691
  0
LINE
  8
0
 10
18.8904
 20
7.95691
 11
18.7138
 21
7.90237
  0
LINE
  8
0
 10
18.7138
 20
7.90237
 11
18.5474
 21
7.82602
  0
LINE
  8
0
 10
18.5474
 20
7.82602
 11
18.3944
 21
7.72871
  0
LINE
  8
0
 10
18.3944
 20
7.72871
 11
18.2581
 21
7.6113
  0
LINE
  8
0
 10
18.2581
 20
7.6113
 11
18.1385
 21
7.4738
  0
LINE
  8
0
 10
18.1385
 20
7.4738
 11
18.0357
 21
7.31619
  0
LINE
  8
0
 10
18.0357
 20
7.31619
 11
17.953
 21
7.13937
  0
LINE
  8
0
 10
17.953
 20
7.13937
 11
17.8939
 21
6.94415
  0
LINE
  8
0
 10
17.8939
 20
6.94415
 11
17.8585
 21
6.73056
  0
LINE
  8
0
 10
17.8585
 20
6.73056
 11
17.8467
 21
6.49857
  0
LINE
  8
0
 10
17.8467
 20
6.49857
 11
17.8585
 21
6.2683
  0
LINE
  8
0
 10
17.8585
 20
6.2683
 11
17.8939
 21
6.05591
  0
LINE
  8
0
 10
17.8939
 20
6.05591
 11
17.953
 21
5.86142
  0
LINE
  8
0
 10
17.953
 20
5.86142
 11
18.0357
 21
5.68481
  0
LINE
  8
0
 10
18.0357
 20
5.68481
 11
18.1385
 21
5.52724
  0
LINE
  8
0
 10
18.1385
 20
5.52724
 11
18.2581
 21
5.38974
  0
LINE
  8
0
 10
18.2581
 20
5.38974
 11
18.3944
 21
5.27234
  0
LINE
  8
0
 10
18.3944
 20
5.27234
 11
18.5474
 21
5.17503
  0
LINE
  8
0
 10
18.5474
 20
5.17503
 11
18.7138
 21
5.09869
  0
LINE
  8
0
 10
18.7138
 20
5.09869
 11
18.8904
 21
5.04416
  0
LINE
  8
0
 10
18.8904
 20
5.04416
 11
19.0772
 21
5.01144
  0
LINE
  8
0
 10
19.0772
 20
5.01144
 11
19.2742
 21
5.00053
  0
LINE
  8
0
 10
19.2742
 20
5.00053
 11
19.4695
 21
5.01138
  0
LINE
  8
0
 10
19.1192
 20
5.62265
 11
18.9817
 21
5.66548
  0
LINE
  8
0
 10
18.9817
 20
5.66548
 11
18.8618
 21
5.73686
  0
LINE
  8
0
 10
18.8618
 20
5.73686
 11
18.7595
 21
5.83679
  0
LINE
  8
0
 10
18.7595
 20
5.83679
 11
18.6777
 21
5.96382
  0
LINE
  8
0
 10
18.6777
 20
5.96382
 11
18.6193
 21
6.11646
  0
LINE
  8
0
 10
18.6193
 20
6.11646
 11
18.5842
 21
6.29471
  0
LINE
  8
0
 10
18.5842
 20
6.29471
 11
18.5725
 21
6.49857
  0
LINE
  8
0
 10
18.5725
 20
6.49857
 11
18.5842
 21
6.70335
  0
LINE
  8
0
 10
18.5842
 20
6.70335
 11
18.6193
 21
6.88239
  0
LINE
  8
0
 10
18.6193
 20
6.88239
 11
18.6777
 21
7.03569
  0
LINE
  8
0
 10
18.6777
 20
7.03569
 11
18.7595
 21
7.16325
  0
LINE
  8
0
 10
18.7595
 20
7.16325
 11
18.8618
 21
7.26363
  0
LINE
  8
0
 10
18.8618
 20
7.26363
 11
18.9817
 21
7.33531
  0
LINE
  8
0
 10
18.9817
 20
7.33531
 11
19.1192
 21
7.37833
  0
LINE
  8
0
 10
19.1192
 20
7.37833
 11
19.2742
 21
7.39267
  0
LINE
  8
0
 10
19.2742
 20
7.39267
 11
19.4284
 21
7.37833
  0
LINE
  8
0
 10
19.4284
 20
7.37833
 11
19.5653
 21
7.33531
  0
LINE
  8
0
 10
19.5653
 20
7.33531
 11
19.6848
 21
7.26363
  0
LINE
  8
0
 10
19.6848
 20
7.26363
 11
19.7869
 21
7.16325
  0
LINE
  8
0
 10
19.7869
 20
7.16325
 11
19.8687
 21
7.03569
  0
LINE
  8
0
 10
19.8687
 20
7.03569
 11
19.9272
 21
6.88239
  0
LINE
  8
0
 10
19.9272
 20
6.88239
 11
19.9622
 21
6.70335
  0
LINE
  8
0
 10
19.9622
 20
6.70335
 11
19.9739
 21
6.49857
  0
LINE
  8
0
 10
19.9739
 20
6.49857
 11
19.9622
 21
6.29471
  0
LINE
  8
0
 10
19.9622
 20
6.29471
 11
19.9272
 21
6.11646
  0
LINE
  8
0
 10
19.9272
 20
6.11646
 11
19.8687
 21
5.96382
  0
LINE
  8
0
 10
19.8687
 20
5.96382
 11
19.7869
 21
5.83679
  0
LINE
  8
0
 10
19.7869
 20
5.83679
 11
19.6848
 21
5.73686
  0
LINE
  8
0
 10
19.6848
 20
5.73686
 11
19.5653
 21
5.66548
  0
LINE
  8
0
 10
19.5653
 20
5.66548
 11
19.4284
 21
5.62265
  0
LINE
  8
0
 10
19.4284
 20
5.62265
 11
19.2742
 21
5.60837
  0
LINE
  8
0
 10
19.2742
 20
5.60837
 11
19.1192
 21
5.62265
  0
LINE
  8
0
 10
35.5222
 20
7.9613
 11
34.7883
 21
7.9613
  0
LINE
  8
0
 10
34.7883
 20
7.9613
 11
34.1207
 21
7.51425
  0
LINE
  8
0
 10
34.1207
 20
7.51425
 11
34.1207
 21
6.90642
  0
LINE
  8
0
 10
34.1207
 20
6.90642
 11
34.7943
 21
7.35933
  0
LINE
  8
0
 10
34.7943
 20
7.35933
 11
34.8144
 21
7.35933
  0
LINE
  8
0
 10
34.8144
 20
7.35933
 11
34.8144
 21
5.03975
  0
LINE
  8
0
 10
34.8144
 20
5.03975
 11
35.5222
 21
5.03975
  0
LINE
  8
0
 10
35.5222
 20
5.03975
 11
35.5222
 21
7.9613
  0
LINE
  8
0
 10
12.9385
 20
6.29855
 11
12.9382
 21
6.35756
  0
LINE
  8
0
 10
12.9382
 20
6.35756
 11
12.9372
 21
6.42477
  0
LINE
  8
0
 10
12.9372
 20
6.42477
 11
12.9357
 21
6.5002
  0
LINE
  8
0
 10
12.9357
 20
6.5002
 11
12.9335
 21
6.58383
  0
LINE
  8
0
 10
12.9335
 20
6.58383
 11
12.9254
 21
6.86307
  0
LINE
  8
0
 10
12.9254
 20
6.86307
 11
12.9224
 21
6.96326
  0
LINE
  8
0
 10
12.9224
 20
6.96326
 11
12.9195
 21
7.06448
  0
LINE
  8
0
 10
12.9195
 20
7.06448
 11
12.9169
 21
7.16425
  0
LINE
  8
0
 10
12.9169
 20
7.16425
 11
12.9145
 21
7.26253
  0
LINE
  8
0
 10
12.9145
 20
7.26253
 11
12.9124
 21
7.35933
  0
LINE
  8
0
 10
12.9124
 20
7.35933
 11
12.9378
 21
7.25659
  0
LINE
  8
0
 10
12.9378
 20
7.25659
 11
12.9639
 21
7.15421
  0
LINE
  8
0
 10
12.9639
 20
7.15421
 11
12.9906
 21
7.05219
  0
LINE
  8
0
 10
12.9906
 20
7.05219
 11
13.0179
 21
6.95053
  0
LINE
  8
0
 10
13.0179
 20
6.95053
 11
13.0453
 21
6.85109
  0
LINE
  8
0
 10
13.0453
 20
6.85109
 11
13.072
 21
6.75568
  0
LINE
  8
0
 10
13.072
 20
6.75568
 11
13.098
 21
6.66431
  0
LINE
  8
0
 10
13.098
 20
6.66431
 11
13.1235
 21
6.57698
  0
LINE
  8
0
 10
13.1235
 20
6.57698
 11
13.1476
 21
6.49561
  0
LINE
  8
0
 10
13.1476
 20
6.49561
 11
13.1697
 21
6.42209
  0
LINE
  8
0
 10
13.1697
 20
6.42209
 11
13.1898
 21
6.3564
  0
LINE
  8
0
 10
13.1898
 20
6.3564
 11
13.2079
 21
6.29855
  0
LINE
  8
0
 10
13.2079
 20
6.29855
 11
13.6402
 21
5.03975
  0
LINE
  8
0
 10
13.6402
 20
5.03975
 11
14.2334
 21
5.03975
  0
LINE
  8
0
 10
14.2334
 20
5.03975
 11
14.6596
 21
6.29855
  0
LINE
  8
0
 10
14.6596
 20
6.29855
 11
14.6786
 21
6.35855
  0
LINE
  8
0
 10
14.6786
 20
6.35855
 11
14.6993
 21
6.42674
  0
LINE
  8
0
 10
14.6993
 20
6.42674
 11
14.7218
 21
6.50316
  0
LINE
  8
0
 10
14.7218
 20
6.50316
 11
14.7461
 21
6.58777
  0
LINE
  8
0
 10
14.7461
 20
6.58777
 11
14.7715
 21
6.67853
  0
LINE
  8
0
 10
14.7715
 20
6.67853
 11
14.7976
 21
6.77332
  0
LINE
  8
0
 10
14.7976
 20
6.77332
 11
14.8243
 21
6.87215
  0
LINE
  8
0
 10
14.8243
 20
6.87215
 11
14.8516
 21
6.97502
  0
LINE
  8
0
 10
14.8516
 20
6.97502
 11
14.879
 21
7.07982
  0
LINE
  8
0
 10
14.879
 20
7.07982
 11
14.9057
 21
7.18434
  0
LINE
  8
0
 10
14.9057
 20
7.18434
 11
14.9317
 21
7.28864
  0
LINE
  8
0
 10
14.9317
 20
7.28864
 11
14.9572
 21
7.39267
  0
LINE
  8
0
 10
14.9572
 20
7.39267
 11
14.955
 21
7.29366
  0
LINE
  8
0
 10
14.955
 20
7.29366
 11
14.9527
 21
7.19269
  0
LINE
  8
0
 10
14.9527
 20
7.19269
 11
14.95
 21
7.08974
  0
LINE
  8
0
 10
14.95
 20
7.08974
 11
14.9471
 21
6.98483
  0
LINE
  8
0
 10
14.9471
 20
6.98483
 11
14.9414
 21
6.78067
  0
LINE
  8
0
 10
14.9414
 20
6.78067
 11
14.9361
 21
6.59171
  0
LINE
  8
0
 10
14.9361
 20
6.59171
 11
14.9339
 21
6.50537
  0
LINE
  8
0
 10
14.9339
 20
6.50537
 11
14.9323
 21
6.42773
  0
LINE
  8
0
 10
14.9323
 20
6.42773
 11
14.9314
 21
6.3588
  0
LINE
  8
0
 10
14.9314
 20
6.3588
 11
14.931
 21
6.29855
  0
LINE
  8
0
 10
14.931
 20
6.29855
 11
14.931
 21
5.03975
  0
LINE
  8
0
 10
14.931
 20
5.03975
 11
15.6448
 21
5.03975
  0
LINE
  8
0
 10
15.6448
 20
5.03975
 11
15.6448
 21
7.9613
  0
LINE
  8
0
 10
15.6448
 20
7.9613
 11
14.537
 21
7.9613
  0
LINE
  8
0
 10
14.537
 20
7.9613
 11
14.161
 21
6.82405
  0
LINE
  8
0
 10
14.161
 20
6.82405
 11
14.1453
 21
6.77019
  0
LINE
  8
0
 10
14.1453
 20
6.77019
 11
14.1286
 21
6.70862
  0
LINE
  8
0
 10
14.1286
 20
6.70862
 11
14.1106
 21
6.63931
  0
LINE
  8
0
 10
14.1106
 20
6.63931
 11
14.0916
 21
6.5623
  0
LINE
  8
0
 10
14.0916
 20
6.5623
 11
14.072
 21
6.47993
  0
LINE
  8
0
 10
14.072
 20
6.47993
 11
14.0524
 21
6.39464
  0
LINE
  8
0
 10
14.0524
 20
6.39464
 11
14.0328
 21
6.30641
  0
LINE
  8
0
 10
14.0328
 20
6.30641
 11
14.0132
 21
6.21523
  0
LINE
  8
0
 10
14.0132
 20
6.21523
 11
13.9939
 21
6.12326
  0
LINE
  8
0
 10
13.9939
 20
6.12326
 11
13.9753
 21
6.03264
  0
LINE
  8
0
 10
13.9753
 20
6.03264
 11
13.9572
 21
5.94336
  0
LINE
  8
0
 10
13.9572
 20
5.94336
 11
13.9398
 21
5.85544
  0
LINE
  8
0
 10
13.9398
 20
5.85544
 11
13.9215
 21
5.94342
  0
LINE
  8
0
 10
13.9215
 20
5.94342
 11
13.9026
 21
6.03288
  0
LINE
  8
0
 10
13.9026
 20
6.03288
 11
13.8832
 21
6.12381
  0
LINE
  8
0
 10
13.8832
 20
6.12381
 11
13.8634
 21
6.21622
  0
LINE
  8
0
 10
13.8634
 20
6.21622
 11
13.8433
 21
6.30775
  0
LINE
  8
0
 10
13.8433
 20
6.30775
 11
13.8234
 21
6.39612
  0
LINE
  8
0
 10
13.8234
 20
6.39612
 11
13.8036
 21
6.48129
  0
LINE
  8
0
 10
13.8036
 20
6.48129
 11
13.784
 21
6.56328
  0
LINE
  8
0
 10
13.784
 20
6.56328
 11
13.7649
 21
6.63988
  0
LINE
  8
0
 10
13.7649
 20
6.63988
 11
13.747
 21
6.70886
  0
LINE
  8
0
 10
13.747
 20
6.70886
 11
13.7303
 21
6.77025
  0
LINE
  8
0
 10
13.7303
 20
6.77025
 11
13.7146
 21
6.82405
  0
LINE
  8
0
 10
13.7146
 20
6.82405
 11
13.3326
 21
7.9613
  0
LINE
  8
0
 10
13.3326
 20
7.9613
 11
12.2267
 21
7.9613
  0
LINE
  8
0
 10
12.2267
 20
7.9613
 11
12.2267
 21
5.03975
  0
LINE
  8
0
 10
12.2267
 20
5.03975
 11
12.9385
 21
5.03975
  0
LINE
  8
0
 10
12.9385
 20
5.03975
 11
12.9385
 21
6.29855
  0
LINE
  8
0
 10
9.14499
 20
6.29855
 11
9.14468
 21
6.35756
  0
LINE
  8
0
 10
9.14468
 20
6.35756
 11
9.14374
 21
6.42477
  0
LINE
  8
0
 10
9.14374
 20
6.42477
 11
9.14215
 21
6.5002
  0
LINE
  8
0
 10
9.14215
 20
6.5002
 11
9.13995
 21
6.58383
  0
LINE
  8
0
 10
9.13995
 20
6.58383
 11
9.13469
 21
6.76645
  0
LINE
  8
0
 10
9.13469
 20
6.76645
 11
9.12889
 21
6.96326
  0
LINE
  8
0
 10
9.12889
 20
6.96326
 11
9.12601
 21
7.06448
  0
LINE
  8
0
 10
9.12601
 20
7.06448
 11
9.12337
 21
7.16425
  0
LINE
  8
0
 10
9.12337
 20
7.16425
 11
9.12099
 21
7.26253
  0
LINE
  8
0
 10
9.12099
 20
7.26253
 11
9.11885
 21
7.35933
  0
LINE
  8
0
 10
9.11885
 20
7.35933
 11
9.1443
 21
7.25659
  0
LINE
  8
0
 10
9.1443
 20
7.25659
 11
9.17038
 21
7.15421
  0
LINE
  8
0
 10
9.17038
 20
7.15421
 11
9.19708
 21
7.05219
  0
LINE
  8
0
 10
9.19708
 20
7.05219
 11
9.22443
 21
6.95053
  0
LINE
  8
0
 10
9.22443
 20
6.95053
 11
9.25175
 21
6.85109
  0
LINE
  8
0
 10
9.25175
 20
6.85109
 11
9.27846
 21
6.75568
  0
LINE
  8
0
 10
9.27846
 20
6.75568
 11
9.30452
 21
6.66431
  0
LINE
  8
0
 10
9.30452
 20
6.66431
 11
9.32997
 21
6.57698
  0
LINE
  8
0
 10
9.32997
 20
6.57698
 11
9.3541
 21
6.49561
  0
LINE
  8
0
 10
9.3541
 20
6.49561
 11
9.37622
 21
6.42209
  0
LINE
  8
0
 10
9.37622
 20
6.42209
 11
9.39632
 21
6.3564
  0
LINE
  8
0
 10
9.39632
 20
6.3564
 11
9.41441
 21
6.29855
  0
LINE
  8
0
 10
9.41441
 20
6.29855
 11
9.84671
 21
5.03975
  0
LINE
  8
0
 10
9.84671
 20
5.03975
 11
10.4398
 21
5.03975
  0
LINE
  8
0
 10
10.4398
 20
5.03975
 11
10.8661
 21
6.29855
  0
LINE
  8
0
 10
10.8661
 20
6.29855
 11
10.8851
 21
6.35855
  0
LINE
  8
0
 10
10.8851
 20
6.35855
 11
10.9058
 21
6.42674
  0
LINE
  8
0
 10
10.9058
 20
6.42674
 11
10.9283
 21
6.50316
  0
LINE
  8
0
 10
10.9283
 20
6.50316
 11
10.9525
 21
6.58777
  0
LINE
  8
0
 10
10.9525
 20
6.58777
 11
10.978
 21
6.67853
  0
LINE
  8
0
 10
10.978
 20
6.67853
 11
11.0041
 21
6.77332
  0
LINE
  8
0
 10
11.0041
 20
6.77332
 11
11.0308
 21
6.87215
  0
LINE
  8
0
 10
11.0308
 20
6.87215
 11
11.0581
 21
6.97502
  0
LINE
  8
0
 10
11.0581
 20
6.97502
 11
11.0855
 21
7.07982
  0
LINE
  8
0
 10
11.0855
 20
7.07982
 11
11.1122
 21
7.18434
  0
LINE
  8
0
 10
11.1122
 20
7.18434
 11
11.1382
 21
7.28864
  0
LINE
  8
0
 10
11.1382
 20
7.28864
 11
11.1637
 21
7.39267
  0
LINE
  8
0
 10
11.1637
 20
7.39267
 11
11.1615
 21
7.29366
  0
LINE
  8
0
 10
11.1615
 20
7.29366
 11
11.1591
 21
7.19269
  0
LINE
  8
0
 10
11.1591
 20
7.19269
 11
11.1565
 21
7.08974
  0
LINE
  8
0
 10
11.1565
 20
7.08974
 11
11.1536
 21
6.98483
  0
LINE
  8
0
 10
11.1536
 20
6.98483
 11
11.1478
 21
6.78067
  0
LINE
  8
0
 10
11.1478
 20
6.78067
 11
11.1426
 21
6.59171
  0
LINE
  8
0
 10
11.1426
 20
6.59171
 11
11.1404
 21
6.50537
  0
LINE
  8
0
 10
11.1404
 20
6.50537
 11
11.1388
 21
6.42773
  0
LINE
  8
0
 10
11.1388
 20
6.42773
 11
11.1378
 21
6.3588
  0
LINE
  8
0
 10
11.1378
 20
6.3588
 11
11.1375
 21
6.29855
  0
LINE
  8
0
 10
11.1375
 20
6.29855
 11
11.1375
 21
5.03975
  0
LINE
  8
0
 10
11.1375
 20
5.03975
 11
11.8513
 21
5.03975
  0
LINE
  8
0
 10
11.8513
 20
5.03975
 11
11.8513
 21
7.9613
  0
LINE
  8
0
 10
11.8513
 20
7.9613
 11
10.7434
 21
7.9613
  0
LINE
  8
0
 10
10.7434
 20
7.9613
 11
10.3675
 21
6.82405
  0
LINE
  8
0
 10
10.3675
 20
6.82405
 11
10.3518
 21
6.77019
  0
LINE
  8
0
 10
10.3518
 20
6.77019
 11
10.335
 21
6.70862
  0
LINE
  8
0
 10
10.335
 20
6.70862
 11
10.3171
 21
6.63931
  0
LINE
  8
0
 10
10.3171
 20
6.63931
 11
10.2981
 21
6.5623
  0
LINE
  8
0
 10
10.2981
 20
6.5623
 11
10.2785
 21
6.47993
  0
LINE
  8
0
 10
10.2785
 20
6.47993
 11
10.2589
 21
6.39464
  0
LINE
  8
0
 10
10.2589
 20
6.39464
 11
10.2393
 21
6.30641
  0
LINE
  8
0
 10
10.2393
 20
6.30641
 11
10.2197
 21
6.21523
  0
LINE
  8
0
 10
10.2197
 20
6.21523
 11
10.2004
 21
6.12326
  0
LINE
  8
0
 10
10.2004
 20
6.12326
 11
10.1817
 21
6.03264
  0
LINE
  8
0
 10
10.1817
 20
6.03264
 11
10.1637
 21
5.94336
  0
LINE
  8
0
 10
10.1637
 20
5.94336
 11
10.1463
 21
5.85544
  0
LINE
  8
0
 10
10.1463
 20
5.85544
 11
10.1279
 21
5.94342
  0
LINE
  8
0
 10
10.1279
 20
5.94342
 11
10.1091
 21
6.03288
  0
LINE
  8
0
 10
10.1091
 20
6.03288
 11
10.0897
 21
6.12381
  0
LINE
  8
0
 10
10.0897
 20
6.12381
 11
10.0699
 21
6.21622
  0
LINE
  8
0
 10
10.0699
 20
6.21622
 11
10.0498
 21
6.30775
  0
LINE
  8
0
 10
10.0498
 20
6.30775
 11
10.0299
 21
6.39612
  0
LINE
  8
0
 10
10.0299
 20
6.39612
 11
10.0101
 21
6.48129
  0
LINE
  8
0
 10
10.0101
 20
6.48129
 11
9.99046
 21
6.56328
  0
LINE
  8
0
 10
9.99046
 20
6.56328
 11
9.97144
 21
6.63988
  0
LINE
  8
0
 10
9.97144
 20
6.63988
 11
9.95352
 21
6.70886
  0
LINE
  8
0
 10
9.95352
 20
6.70886
 11
9.93675
 21
6.77025
  0
LINE
  8
0
 10
9.93675
 20
6.77025
 11
9.9211
 21
6.82405
  0
LINE
  8
0
 10
9.9211
 20
6.82405
 11
9.53908
 21
7.9613
  0
LINE
  8
0
 10
9.53908
 20
7.9613
 11
8.43323
 21
7.9613
  0
LINE
  8
0
 10
8.43323
 20
7.9613
 11
8.43323
 21
5.03975
  0
LINE
  8
0
 10
8.43323
 20
5.03975
 11
9.14499
 21
5.03975
  0
LINE
  8
0
 10
9.14499
 20
5.03975
 11
9.14499
 21
6.29855
  0
LINE
  8
0
 10
21.733
 20
6.04562
 11
22.1191
 21
6.04562
  0
LINE
  8
0
 10
22.1191
 20
6.04562
 11
22.668
 21
5.03975
  0
LINE
  8
0
 10
22.668
 20
5.03975
 11
23.4461
 21
5.03975
  0
LINE
  8
0
 10
23.4461
 20
5.03975
 11
22.8208
 21
6.15544
  0
LINE
  8
0
 10
22.8208
 20
6.15544
 11
22.9383
 21
6.21672
  0
LINE
  8
0
 10
22.9383
 20
6.21672
 11
23.0417
 21
6.29074
  0
LINE
  8
0
 10
23.0417
 20
6.29074
 11
23.1309
 21
6.3775
  0
LINE
  8
0
 10
23.1309
 20
6.3775
 11
23.2058
 21
6.47701
  0
LINE
  8
0
 10
23.2058
 20
6.47701
 11
23.2652
 21
6.58852
  0
LINE
  8
0
 10
23.2652
 20
6.58852
 11
23.3076
 21
6.71132
  0
LINE
  8
0
 10
23.3076
 20
6.71132
 11
23.3331
 21
6.84538
  0
LINE
  8
0
 10
23.3331
 20
6.84538
 11
23.3416
 21
6.99072
  0
LINE
  8
0
 10
23.3416
 20
6.99072
 11
23.3233
 21
7.20267
  0
LINE
  8
0
 10
23.3233
 20
7.20267
 11
23.2684
 21
7.39145
  0
LINE
  8
0
 10
23.2684
 20
7.39145
 11
23.177
 21
7.55707
  0
LINE
  8
0
 10
23.177
 20
7.55707
 11
23.049
 21
7.69952
  0
LINE
  8
0
 10
23.049
 20
7.69952
 11
22.8893
 21
7.81406
  0
LINE
  8
0
 10
22.8893
 20
7.81406
 11
22.7029
 21
7.89586
  0
LINE
  8
0
 10
22.7029
 20
7.89586
 11
22.4897
 21
7.94495
  0
LINE
  8
0
 10
22.4897
 20
7.94495
 11
22.2498
 21
7.9613
  0
LINE
  8
0
 10
22.2498
 20
7.9613
 11
21.0233
 21
7.9613
  0
LINE
  8
0
 10
21.0233
 20
7.9613
 11
21.0233
 21
5.03975
  0
LINE
  8
0
 10
21.0233
 20
5.03975
 11
21.733
 21
5.03975
  0
LINE
  8
0
 10
21.733
 20
5.03975
 11
21.733
 21
6.04562
  0
LINE
  8
0
 10
21.733
 20
6.59268
 11
21.733
 21
7.40054
  0
LINE
  8
0
 10
21.733
 20
7.40054
 11
22.099
 21
7.40054
  0
LINE
  8
0
 10
22.099
 20
7.40054
 11
22.3206
 21
7.37492
  0
LINE
  8
0
 10
22.3206
 20
7.37492
 11
22.479
 21
7.29808
  0
LINE
  8
0
 10
22.479
 20
7.29808
 11
22.574
 21
7.17001
  0
LINE
  8
0
 10
22.574
 20
7.17001
 11
22.6057
 21
6.99072
  0
LINE
  8
0
 10
22.6057
 20
6.99072
 11
22.5741
 21
6.81659
  0
LINE
  8
0
 10
22.5741
 20
6.81659
 11
22.4795
 21
6.6922
  0
LINE
  8
0
 10
22.4795
 20
6.6922
 11
22.3218
 21
6.61755
  0
LINE
  8
0
 10
22.3218
 20
6.61755
 11
22.101
 21
6.59268
  0
LINE
  8
0
 10
22.101
 20
6.59268
 11
21.733
 21
6.59268
  0
LINE
  8
0
 10
6.96176
 20
1.24901
 11
7.00339
 21
1.29529
  0
LINE
  8
0
 10
7.00339
 20
1.29529
 11
7.04254
 21
1.34233
  0
LINE
  8
0
 10
7.04254
 20
1.34233
 11
7.07925
 21
1.39024
  0
LINE
  8
0
 10
7.07925
 20
1.39024
 11
7.11354
 21
1.43918
  0
LINE
  8
0
 10
7.11354
 20
1.43918
 11
7.14543
 21
1.48924
  0
LINE
  8
0
 10
7.14543
 20
1.48924
 11
7.17496
 21
1.54056
  0
LINE
  8
0
 10
7.17496
 20
1.54056
 11
7.20215
 21
1.59328
  0
LINE
  8
0
 10
7.20215
 20
1.59328
 11
7.22701
 21
1.64749
  0
LINE
  8
0
 10
7.22701
 20
1.64749
 11
7.24957
 21
1.70335
  0
LINE
  8
0
 10
7.24957
 20
1.70335
 11
7.26987
 21
1.76099
  0
LINE
  8
0
 10
7.26987
 20
1.76099
 11
7.28792
 21
1.8205
  0
LINE
  8
0
 10
7.28792
 20
1.8205
 11
7.30376
 21
1.88203
  0
LINE
  8
0
 10
7.30376
 20
1.88203
 11
7.3174
 21
1.94571
  0
LINE
  8
0
 10
7.3174
 20
1.94571
 11
7.32887
 21
2.01166
  0
LINE
  8
0
 10
7.32887
 20
2.01166
 11
7.33821
 21
2.07999
  0
LINE
  8
0
 10
7.33821
 20
2.07999
 11
7.34543
 21
2.15085
  0
LINE
  8
0
 10
7.34543
 20
2.15085
 11
7.35054
 21
2.22437
  0
LINE
  8
0
 10
7.35054
 20
2.22437
 11
7.35361
 21
2.30064
  0
LINE
  8
0
 10
7.35361
 20
2.30064
 11
7.35461
 21
2.37982
  0
LINE
  8
0
 10
7.35461
 20
2.37982
 11
7.35461
 21
7.5899
  0
LINE
  8
0
 10
7.35461
 20
7.5899
 11
5.23697
 21
6.44705
  0
LINE
  8
0
 10
5.23697
 20
6.44705
 11
5.23697
 21
2.31259
  0
LINE
  8
0
 10
5.23697
 20
2.31259
 11
6.91763
 21
1.20335
  0
LINE
  8
0
 10
6.91763
 20
1.20335
 11
6.96176
 21
1.24901
  0
LINE
  8
0
 10
17.4478
 20
6.76328
 11
16.0665
 21
6.76328
  0
LINE
  8
0
 10
16.0665
 20
6.76328
 11
16.0665
 21
6.23581
  0
LINE
  8
0
 10
16.0665
 20
6.23581
 11
17.4478
 21
6.23581
  0
LINE
  8
0
 10
17.4478
 20
6.23581
 11
17.4478
 21
6.76328
  0
LINE
  8
0
 10
28.1392
 20
6.76328
 11
26.7579
 21
6.76328
  0
LINE
  8
0
 10
26.7579
 20
6.76328
 11
26.7579
 21
6.23581
  0
LINE
  8
0
 10
26.7579
 20
6.23581
 11
28.1392
 21
6.23581
  0
LINE
  8
0
 10
28.1392
 20
6.23581
 11
28.1392
 21
6.76328
  0
LINE
  8
0
 10
12.2865
 20
1.02522
 11
12.5296
 21
1.09431
  0
LINE
  8
0
 10
12.5296
 20
1.09431
 11
12.7401
 21
1.20947
  0
LINE
  8
0
 10
12.7401
 20
1.20947
 11
12.9181
 21
1.3707
  0
LINE
  8
0
 10
12.9181
 20
1.3707
 11
13.0596
 21
1.5732
  0
LINE
  8
0
 10
13.0596
 20
1.5732
 11
13.1606
 21
1.81215
  0
LINE
  8
0
 10
13.1606
 20
1.81215
 11
13.2213
 21
2.08755
  0
LINE
  8
0
 10
13.2213
 20
2.08755
 11
13.2415
 21
2.39944
  0
LINE
  8
0
 10
13.2415
 20
2.39944
 11
13.2323
 21
2.61188
  0
LINE
  8
0
 10
13.2323
 20
2.61188
 11
13.2048
 21
2.80841
  0
LINE
  8
0
 10
13.2048
 20
2.80841
 11
13.1591
 21
2.98907
  0
LINE
  8
0
 10
13.1591
 20
2.98907
 11
13.095
 21
3.15382
  0
LINE
  8
0
 10
13.095
 20
3.15382
 11
13.0137
 21
3.30145
  0
LINE
  8
0
 10
13.0137
 20
3.30145
 11
12.9163
 21
3.43068
  0
LINE
  8
0
 10
12.9163
 20
3.43068
 11
12.8029
 21
3.5415
  0
LINE
  8
0
 10
12.8029
 20
3.5415
 11
12.6733
 21
3.63391
  0
LINE
  8
0
 10
12.6733
 20
3.63391
 11
12.5287
 21
3.70673
  0
LINE
  8
0
 10
12.5287
 20
3.70673
 11
12.3701
 21
3.75874
  0
LINE
  8
0
 10
12.3701
 20
3.75874
 11
12.1974
 21
3.78995
  0
LINE
  8
0
 10
12.1974
 20
3.78995
 11
12.0108
 21
3.80035
  0
LINE
  8
0
 10
12.0108
 20
3.80035
 11
11.7367
 21
3.77727
  0
LINE
  8
0
 10
11.7367
 20
3.77727
 11
11.4945
 21
3.70799
  0
LINE
  8
0
 10
11.4945
 20
3.70799
 11
11.2841
 21
3.59253
  0
LINE
  8
0
 10
11.2841
 20
3.59253
 11
11.1055
 21
3.43089
  0
LINE
  8
0
 10
11.1055
 20
3.43089
 11
10.9632
 21
3.22789
  0
LINE
  8
0
 10
10.9632
 20
3.22789
 11
10.8615
 21
2.98831
  0
LINE
  8
0
 10
10.8615
 20
2.98831
 11
10.8005
 21
2.71217
  0
LINE
  8
0
 10
10.8005
 20
2.71217
 11
10.7802
 21
2.39944
  0
LINE
  8
0
 10
10.7802
 20
2.39944
 11
10.8005
 21
2.08681
  0
LINE
  8
0
 10
10.8005
 20
2.08681
 11
10.8615
 21
1.811
  0
LINE
  8
0
 10
10.8615
 20
1.811
 11
10.9632
 21
1.57199
  0
LINE
  8
0
 10
10.9632
 20
1.57199
 11
11.1055
 21
1.36978
  0
LINE
  8
0
 10
11.1055
 20
1.36978
 11
11.2841
 21
1.20895
  0
LINE
  8
0
 10
11.2841
 20
1.20895
 11
11.4945
 21
1.09409
  0
LINE
  8
0
 10
11.4945
 20
1.09409
 11
11.7367
 21
1.02516
  0
LINE
  8
0
 10
11.7367
 20
1.02516
 11
12.0108
 21
1.0022
  0
LINE
  8
0
 10
12.0108
 20
1.0022
 11
12.2865
 21
1.02522
  0
LINE
  8
0
 10
11.8933
 20
1.54478
 11
11.7904
 21
1.58696
  0
LINE
  8
0
 10
11.7904
 20
1.58696
 11
11.7021
 21
1.65726
  0
LINE
  8
0
 10
11.7021
 20
1.65726
 11
11.6284
 21
1.75566
  0
LINE
  8
0
 10
11.6284
 20
1.75566
 11
11.5704
 21
1.88026
  0
LINE
  8
0
 10
11.5704
 20
1.88026
 11
11.5289
 21
2.02908
  0
LINE
  8
0
 10
11.5289
 20
2.02908
 11
11.504
 21
2.20215
  0
LINE
  8
0
 10
11.504
 20
2.20215
 11
11.4957
 21
2.39944
  0
LINE
  8
0
 10
11.4957
 20
2.39944
 11
11.5041
 21
2.5977
  0
LINE
  8
0
 10
11.5041
 20
2.5977
 11
11.5291
 21
2.77184
  0
LINE
  8
0
 10
11.5291
 20
2.77184
 11
11.5709
 21
2.92186
  0
LINE
  8
0
 10
11.5709
 20
2.92186
 11
11.6294
 21
3.04778
  0
LINE
  8
0
 10
11.6294
 20
3.04778
 11
11.7034
 21
3.14738
  0
LINE
  8
0
 10
11.7034
 20
3.14738
 11
11.7916
 21
3.21854
  0
LINE
  8
0
 10
11.7916
 20
3.21854
 11
11.8941
 21
3.26123
  0
LINE
  8
0
 10
11.8941
 20
3.26123
 11
12.0108
 21
3.27545
  0
LINE
  8
0
 10
12.0108
 20
3.27545
 11
12.1284
 21
3.26123
  0
LINE
  8
0
 10
12.1284
 20
3.26123
 11
12.2315
 21
3.21854
  0
LINE
  8
0
 10
12.2315
 20
3.21854
 11
12.3201
 21
3.14738
  0
LINE
  8
0
 10
12.3201
 20
3.14738
 11
12.3941
 21
3.04778
  0
LINE
  8
0
 10
12.3941
 20
3.04778
 11
12.4526
 21
2.92186
  0
LINE
  8
0
 10
12.4526
 20
2.92186
 11
12.4944
 21
2.77184
  0
LINE
  8
0
 10
12.4944
 20
2.77184
 11
12.5195
 21
2.5977
  0
LINE
  8
0
 10
12.5195
 20
2.5977
 11
12.5278
 21
2.39944
  0
LINE
  8
0
 10
12.5278
 20
2.39944
 11
12.5195
 21
2.20215
  0
LINE
  8
0
 10
12.5195
 20
2.20215
 11
12.4944
 21
2.02908
  0
LINE
  8
0
 10
12.4944
 20
2.02908
 11
12.4526
 21
1.88026
  0
LINE
  8
0
 10
12.4526
 20
1.88026
 11
12.3941
 21
1.75566
  0
LINE
  8
0
 10
12.3941
 20
1.75566
 11
12.3201
 21
1.65726
  0
LINE
  8
0
 10
12.3201
 20
1.65726
 11
12.2315
 21
1.58696
  0
LINE
  8
0
 10
12.2315
 20
1.58696
 11
12.1284
 21
1.54478
  0
LINE
  8
0
 10
12.1284
 20
1.54478
 11
12.0108
 21
1.53073
  0
LINE
  8
0
 10
12.0108
 20
1.53073
 11
11.8933
 21
1.54478
  0
LINE
  8
0
 10
18.9118
 20
1.02522
 11
19.1549
 21
1.09431
  0
LINE
  8
0
 10
19.1549
 20
1.09431
 11
19.3654
 21
1.20947
  0
LINE
  8
0
 10
19.3654
 20
1.20947
 11
19.5434
 21
1.3707
  0
LINE
  8
0
 10
19.5434
 20
1.3707
 11
19.6849
 21
1.5732
  0
LINE
  8
0
 10
19.6849
 20
1.5732
 11
19.7859
 21
1.81215
  0
LINE
  8
0
 10
19.7859
 20
1.81215
 11
19.8466
 21
2.08755
  0
LINE
  8
0
 10
19.8466
 20
2.08755
 11
19.8668
 21
2.39944
  0
LINE
  8
0
 10
19.8668
 20
2.39944
 11
19.8576
 21
2.61188
  0
LINE
  8
0
 10
19.8576
 20
2.61188
 11
19.8302
 21
2.80841
  0
LINE
  8
0
 10
19.8302
 20
2.80841
 11
19.7844
 21
2.98907
  0
LINE
  8
0
 10
19.7844
 20
2.98907
 11
19.7203
 21
3.15382
  0
LINE
  8
0
 10
19.7203
 20
3.15382
 11
19.639
 21
3.30145
  0
LINE
  8
0
 10
19.639
 20
3.30145
 11
19.5417
 21
3.43068
  0
LINE
  8
0
 10
19.5417
 20
3.43068
 11
19.4282
 21
3.5415
  0
LINE
  8
0
 10
19.4282
 20
3.5415
 11
19.2986
 21
3.63391
  0
LINE
  8
0
 10
19.2986
 20
3.63391
 11
19.154
 21
3.70673
  0
LINE
  8
0
 10
19.154
 20
3.70673
 11
18.9954
 21
3.75874
  0
LINE
  8
0
 10
18.9954
 20
3.75874
 11
18.8228
 21
3.78995
  0
LINE
  8
0
 10
18.8228
 20
3.78995
 11
18.6361
 21
3.80035
  0
LINE
  8
0
 10
18.6361
 20
3.80035
 11
18.3621
 21
3.77727
  0
LINE
  8
0
 10
18.3621
 20
3.77727
 11
18.1198
 21
3.70799
  0
LINE
  8
0
 10
18.1198
 20
3.70799
 11
17.9094
 21
3.59253
  0
LINE
  8
0
 10
17.9094
 20
3.59253
 11
17.7308
 21
3.43089
  0
LINE
  8
0
 10
17.7308
 20
3.43089
 11
17.5885
 21
3.22789
  0
LINE
  8
0
 10
17.5885
 20
3.22789
 11
17.4868
 21
2.98831
  0
LINE
  8
0
 10
17.4868
 20
2.98831
 11
17.4258
 21
2.71217
  0
LINE
  8
0
 10
17.4258
 20
2.71217
 11
17.4055
 21
2.39944
  0
LINE
  8
0
 10
17.4055
 20
2.39944
 11
17.4258
 21
2.08681
  0
LINE
  8
0
 10
17.4258
 20
2.08681
 11
17.4868
 21
1.811
  0
LINE
  8
0
 10
17.4868
 20
1.811
 11
17.5885
 21
1.57199
  0
LINE
  8
0
 10
17.5885
 20
1.57199
 11
17.7308
 21
1.36978
  0
LINE
  8
0
 10
17.7308
 20
1.36978
 11
17.9094
 21
1.20895
  0
LINE
  8
0
 10
17.9094
 20
1.20895
 11
18.1198
 21
1.09409
  0
LINE
  8
0
 10
18.1198
 20
1.09409
 11
18.3621
 21
1.02516
  0
LINE
  8
0
 10
18.3621
 20
1.02516
 11
18.6361
 21
1.0022
  0
LINE
  8
0
 10
18.6361
 20
1.0022
 11
18.9118
 21
1.02522
  0
LINE
  8
0
 10
18.5186
 20
1.54478
 11
18.4157
 21
1.58696
  0
LINE
  8
0
 10
18.4157
 20
1.58696
 11
18.3274
 21
1.65726
  0
LINE
  8
0
 10
18.3274
 20
1.65726
 11
18.2538
 21
1.75566
  0
LINE
  8
0
 10
18.2538
 20
1.75566
 11
18.1957
 21
1.88026
  0
LINE
  8
0
 10
18.1957
 20
1.88026
 11
18.1542
 21
2.02908
  0
LINE
  8
0
 10
18.1542
 20
2.02908
 11
18.1293
 21
2.20215
  0
LINE
  8
0
 10
18.1293
 20
2.20215
 11
18.121
 21
2.39944
  0
LINE
  8
0
 10
18.121
 20
2.39944
 11
18.1294
 21
2.5977
  0
LINE
  8
0
 10
18.1294
 20
2.5977
 11
18.1545
 21
2.77184
  0
LINE
  8
0
 10
18.1545
 20
2.77184
 11
18.1962
 21
2.92186
  0
LINE
  8
0
 10
18.1962
 20
2.92186
 11
18.2547
 21
3.04778
  0
LINE
  8
0
 10
18.2547
 20
3.04778
 11
18.3287
 21
3.14738
  0
LINE
  8
0
 10
18.3287
 20
3.14738
 11
18.4169
 21
3.21854
  0
LINE
  8
0
 10
18.4169
 20
3.21854
 11
18.5194
 21
3.26123
  0
LINE
  8
0
 10
18.5194
 20
3.26123
 11
18.6361
 21
3.27545
  0
LINE
  8
0
 10
18.6361
 20
3.27545
 11
18.7537
 21
3.26123
  0
LINE
  8
0
 10
18.7537
 20
3.26123
 11
18.8568
 21
3.21854
  0
LINE
  8
0
 10
18.8568
 20
3.21854
 11
18.9454
 21
3.14738
  0
LINE
  8
0
 10
18.9454
 20
3.14738
 11
19.0195
 21
3.04778
  0
LINE
  8
0
 10
19.0195
 20
3.04778
 11
19.0779
 21
2.92186
  0
LINE
  8
0
 10
19.0779
 20
2.92186
 11
19.1197
 21
2.77184
  0
LINE
  8
0
 10
19.1197
 20
2.77184
 11
19.1448
 21
2.5977
  0
LINE
  8
0
 10
19.1448
 20
2.5977
 11
19.1531
 21
2.39944
  0
LINE
  8
0
 10
19.1531
 20
2.39944
 11
19.1448
 21
2.20215
  0
LINE
  8
0
 10
19.1448
 20
2.20215
 11
19.1197
 21
2.02908
  0
LINE
  8
0
 10
19.1197
 20
2.02908
 11
19.0779
 21
1.88026
  0
LINE
  8
0
 10
19.0779
 20
1.88026
 11
19.0195
 21
1.75566
  0
LINE
  8
0
 10
19.0195
 20
1.75566
 11
18.9454
 21
1.65726
  0
LINE
  8
0
 10
18.9454
 20
1.65726
 11
18.8568
 21
1.58696
  0
LINE
  8
0
 10
18.8568
 20
1.58696
 11
18.7537
 21
1.54478
  0
LINE
  8
0
 10
18.7537
 20
1.54478
 11
18.6361
 21
1.53073
  0
LINE
  8
0
 10
18.6361
 20
1.53073
 11
18.5186
 21
1.54478
  0
LINE
  8
0
 10
15.7927
 20
3.76376
 11
15.0752
 21
3.76376
  0
LINE
  8
0
 10
15.0752
 20
3.76376
 11
14.4225
 21
3.34679
  0
LINE
  8
0
 10
14.4225
 20
3.34679
 11
14.4225
 21
2.77985
  0
LINE
  8
0
 10
14.4225
 20
2.77985
 11
15.0811
 21
3.20229
  0
LINE
  8
0
 10
15.0811
 20
3.20229
 11
15.1007
 21
3.20229
  0
LINE
  8
0
 10
15.1007
 20
3.20229
 11
15.1007
 21
1.03876
  0
LINE
  8
0
 10
15.1007
 20
1.03876
 11
15.7927
 21
1.03876
  0
LINE
  8
0
 10
15.7927
 20
1.03876
 11
15.7927
 21
3.76376
  0
LINE
  8
0
 10
10.6338
 20
3.08342
 11
9.91818
 21
3.08342
  0
LINE
  8
0
 10
9.91818
 20
3.08342
 11
9.59578
 21
2.08302
  0
LINE
  8
0
 10
9.59578
 20
2.08302
 11
9.57378
 21
2.01347
  0
LINE
  8
0
 10
9.57378
 20
2.01347
 11
9.55301
 21
1.9438
  0
LINE
  8
0
 10
9.55301
 20
1.9438
 11
9.53348
 21
1.87402
  0
LINE
  8
0
 10
9.53348
 20
1.87402
 11
9.51515
 21
1.80412
  0
LINE
  8
0
 10
9.51515
 20
1.80412
 11
9.49771
 21
1.73366
  0
LINE
  8
0
 10
9.49771
 20
1.73366
 11
9.48077
 21
1.66216
  0
LINE
  8
0
 10
9.48077
 20
1.66216
 11
9.46431
 21
1.58965
  0
LINE
  8
0
 10
9.46431
 20
1.58965
 11
9.44835
 21
1.51608
  0
LINE
  8
0
 10
9.44835
 20
1.51608
 11
9.43059
 21
1.58969
  0
LINE
  8
0
 10
9.43059
 20
1.58969
 11
9.4127
 21
1.66238
  0
LINE
  8
0
 10
9.4127
 20
1.66238
 11
9.3947
 21
1.73418
  0
LINE
  8
0
 10
9.3947
 20
1.73418
 11
9.37657
 21
1.80504
  0
LINE
  8
0
 10
9.37657
 20
1.80504
 11
9.35783
 21
1.87523
  0
LINE
  8
0
 10
9.35783
 20
1.87523
 11
9.338
 21
1.94495
  0
LINE
  8
0
 10
9.338
 20
1.94495
 11
9.31705
 21
2.01422
  0
LINE
  8
0
 10
9.31705
 20
2.01422
 11
9.295
 21
2.08302
  0
LINE
  8
0
 10
9.295
 20
2.08302
 11
8.96671
 21
3.08342
  0
LINE
  8
0
 10
8.96671
 20
3.08342
 11
8.24324
 21
3.08342
  0
LINE
  8
0
 10
8.24324
 20
3.08342
 11
9.03943
 21
1.03876
  0
LINE
  8
0
 10
9.03943
 20
1.03876
 11
9.83365
 21
1.03876
  0
LINE
  8
0
 10
9.83365
 20
1.03876
 11
10.6338
 21
3.08342
  0
LINE
  8
0
 10
5.6331
 20
0.800262
 11
5.69215
 21
0.801132
  0
LINE
  8
0
 10
5.69215
 20
0.801132
 11
5.75031
 21
0.802719
  0
LINE
  8
0
 10
5.75031
 20
0.802719
 11
5.80759
 21
0.805099
  0
LINE
  8
0
 10
5.80759
 20
0.805099
 11
5.86407
 21
0.808395
  0
LINE
  8
0
 10
5.86407
 20
0.808395
 11
5.91978
 21
0.812698
  0
LINE
  8
0
 10
5.91978
 20
0.812698
 11
5.97481
 21
0.818115
  0
LINE
  8
0
 10
5.97481
 20
0.818115
 11
6.02917
 21
0.824738
  0
LINE
  8
0
 10
6.02917
 20
0.824738
 11
6.08293
 21
0.832657
  0
LINE
  8
0
 10
6.08293
 20
0.832657
 11
6.13612
 21
0.84201
  0
LINE
  8
0
 10
6.13612
 20
0.84201
 11
6.18883
 21
0.852859
  0
LINE
  8
0
 10
6.18883
 20
0.852859
 11
6.24107
 21
0.865341
  0
LINE
  8
0
 10
6.24107
 20
0.865341
 11
6.29291
 21
0.879517
  0
LINE
  8
0
 10
6.29291
 20
0.879517
 11
6.34439
 21
0.895523
  0
LINE
  8
0
 10
6.34439
 20
0.895523
 11
6.39558
 21
0.913437
  0
LINE
  8
0
 10
6.39558
 20
0.913437
 11
6.44652
 21
0.933365
  0
LINE
  8
0
 10
6.44652
 20
0.933365
 11
6.49724
 21
0.955414
  0
LINE
  8
0
 10
6.49724
 20
0.955414
 11
6.54782
 21
0.979691
  0
LINE
  8
0
 10
6.54782
 20
0.979691
 11
6.5983
 21
1.00627
  0
LINE
  8
0
 10
6.5983
 20
1.00627
 11
6.64873
 21
1.03529
  0
LINE
  8
0
 10
6.64873
 20
1.03529
 11
3.89243
 21
2.61511
  0
LINE
  8
0
 10
3.89243
 20
2.61511
 11
1.40503
 21
1.06889
  0
LINE
  8
0
 10
1.40503
 20
1.06889
 11
1.43604
 21
1.0442
  0
LINE
  8
0
 10
1.43604
 20
1.0442
 11
1.46854
 21
1.02052
  0
LINE
  8
0
 10
1.46854
 20
1.02052
 11
1.50249
 21
0.997925
  0
LINE
  8
0
 10
1.50249
 20
0.997925
 11
1.53787
 21
0.976395
  0
LINE
  8
0
 10
1.53787
 20
0.976395
 11
1.57468
 21
0.955978
  0
LINE
  8
0
 10
1.57468
 20
0.955978
 11
1.61287
 21
0.936691
  0
LINE
  8
0
 10
1.61287
 20
0.936691
 11
1.65242
 21
0.918579
  0
LINE
  8
0
 10
1.65242
 20
0.918579
 11
1.6933
 21
0.901642
  0
LINE
  8
0
 10
1.6933
 20
0.901642
 11
1.7355
 21
0.88591
  0
LINE
  8
0
 10
1.7355
 20
0.88591
 11
1.77898
 21
0.871414
  0
LINE
  8
0
 10
1.77898
 20
0.871414
 11
1.82373
 21
0.858185
  0
LINE
  8
0
 10
1.82373
 20
0.858185
 11
1.86971
 21
0.846237
  0
LINE
  8
0
 10
1.86971
 20
0.846237
 11
1.9169
 21
0.835617
  0
LINE
  8
0
 10
1.9169
 20
0.835617
 11
1.96527
 21
0.826309
  0
LINE
  8
0
 10
1.96527
 20
0.826309
 11
2.0148
 21
0.818375
  0
LINE
  8
0
 10
2.0148
 20
0.818375
 11
2.06548
 21
0.811829
  0
LINE
  8
0
 10
2.06548
 20
0.811829
 11
2.11725
 21
0.806686
  0
LINE
  8
0
 10
2.11725
 20
0.806686
 11
2.1701
 21
0.802979
  0
LINE
  8
0
 10
2.1701
 20
0.802979
 11
2.22403
 21
0.800751
  0
LINE
  8
0
 10
2.22403
 20
0.800751
 11
2.27898
 21
0.799988
  0
LINE
  8
0
 10
2.27898
 20
0.799988
 11
5.5731
 21
0.799988
  0
LINE
  8
0
 10
5.5731
 20
0.799988
 11
5.6331
 21
0.800262
  0
LINE
  8
0
 10
14.0036
 20
1.00647
 11
14.0728
 21
1.02481
  0
LINE
  8
0
 10
14.0728
 20
1.02481
 11
14.1358
 21
1.05539
  0
LINE
  8
0
 10
14.1358
 20
1.05539
 11
14.1925
 21
1.09819
  0
LINE
  8
0
 10
14.1925
 20
1.09819
 11
14.2394
 21
1.15002
  0
LINE
  8
0
 10
14.2394
 20
1.15002
 11
14.2729
 21
1.20769
  0
LINE
  8
0
 10
14.2729
 20
1.20769
 11
14.293
 21
1.27119
  0
LINE
  8
0
 10
14.293
 20
1.27119
 11
14.2997
 21
1.34053
  0
LINE
  8
0
 10
14.2997
 20
1.34053
 11
14.293
 21
1.41064
  0
LINE
  8
0
 10
14.293
 20
1.41064
 11
14.2729
 21
1.4747
  0
LINE
  8
0
 10
14.2729
 20
1.4747
 11
14.2394
 21
1.53271
  0
LINE
  8
0
 10
14.2394
 20
1.53271
 11
14.1925
 21
1.58467
  0
LINE
  8
0
 10
14.1925
 20
1.58467
 11
14.1358
 21
1.62749
  0
LINE
  8
0
 10
14.1358
 20
1.62749
 11
14.0728
 21
1.65807
  0
LINE
  8
0
 10
14.0728
 20
1.65807
 11
14.0036
 21
1.67641
  0
LINE
  8
0
 10
14.0036
 20
1.67641
 11
13.9281
 21
1.68253
  0
LINE
  8
0
 10
13.9281
 20
1.68253
 11
13.8526
 21
1.67641
  0
LINE
  8
0
 10
13.8526
 20
1.67641
 11
13.7834
 21
1.65807
  0
LINE
  8
0
 10
13.7834
 20
1.65807
 11
13.7204
 21
1.62749
  0
LINE
  8
0
 10
13.7204
 20
1.62749
 11
13.6637
 21
1.58467
  0
LINE
  8
0
 10
13.6637
 20
1.58467
 11
13.6168
 21
1.53271
  0
LINE
  8
0
 10
13.6168
 20
1.53271
 11
13.5833
 21
1.4747
  0
LINE
  8
0
 10
13.5833
 20
1.4747
 11
13.5633
 21
1.41064
  0
LINE
  8
0
 10
13.5633
 20
1.41064
 11
13.5566
 21
1.34053
  0
LINE
  8
0
 10
13.5566
 20
1.34053
 11
13.5633
 21
1.27119
  0
LINE
  8
0
 10
13.5633
 20
1.27119
 11
13.5833
 21
1.20769
  0
LINE
  8
0
 10
13.5833
 20
1.20769
 11
13.6168
 21
1.15002
  0
LINE
  8
0
 10
13.6168
 20
1.15002
 11
13.6637
 21
1.09819
  0
LINE
  8
0
 10
13.6637
 20
1.09819
 11
13.7204
 21
1.05539
  0
LINE
  8
0
 10
13.7204
 20
1.05539
 11
13.7834
 21
1.02481
  0
LINE
  8
0
 10
13.7834
 20
1.02481
 11
13.8526
 21
1.00647
  0
LINE
  8
0
 10
13.8526
 20
1.00647
 11
13.9281
 21
1.00035
  0
LINE
  8
0
 10
13.9281
 20
1.00035
 11
14.0036
 21
1.00647
  0
LINE
  8
0
 10
16.7643
 20
1.00647
 11
16.8335
 21
1.02481
  0
LINE
  8
0
 10
16.8335
 20
1.02481
 11
16.8965
 21
1.05539
  0
LINE
  8
0
 10
16.8965
 20
1.05539
 11
16.9532
 21
1.09819
  0
LINE
  8
0
 10
16.9532
 20
1.09819
 11
17.0001
 21
1.15002
  0
LINE
  8
0
 10
17.0001
 20
1.15002
 11
17.0335
 21
1.20769
  0
LINE
  8
0
 10
17.0335
 20
1.20769
 11
17.0536
 21
1.27119
  0
LINE
  8
0
 10
17.0536
 20
1.27119
 11
17.0603
 21
1.34053
  0
LINE
  8
0
 10
17.0603
 20
1.34053
 11
17.0536
 21
1.41064
  0
LINE
  8
0
 10
17.0536
 20
1.41064
 11
17.0335
 21
1.4747
  0
LINE
  8
0
 10
17.0335
 20
1.4747
 11
17.0001
 21
1.53271
  0
LINE
  8
0
 10
17.0001
 20
1.53271
 11
16.9532
 21
1.58467
  0
LINE
  8
0
 10
16.9532
 20
1.58467
 11
16.8965
 21
1.62749
  0
LINE
  8
0
 10
16.8965
 20
1.62749
 11
16.8335
 21
1.65807
  0
LINE
  8
0
 10
16.8335
 20
1.65807
 11
16.7643
 21
1.67641
  0
LINE
  8
0
 10
16.7643
 20
1.67641
 11
16.6888
 21
1.68253
  0
LINE
  8
0
 10
16.6888
 20
1.68253
 11
16.6133
 21
1.67641
  0
LINE
  8
0
 10
16.6133
 20
1.67641
 11
16.5441
 21
1.65807
  0
LINE
  8
0
 10
16.5441
 20
1.65807
 11
16.4811
 21
1.62749
  0
LINE
  8
0
 10
16.4811
 20
1.62749
 11
16.4244
 21
1.58467
  0
LINE
  8
0
 10
16.4244
 20
1.58467
 11
16.3775
 21
1.53271
  0
LINE
  8
0
 10
16.3775
 20
1.53271
 11
16.344
 21
1.4747
  0
LINE
  8
0
 10
16.344
 20
1.4747
 11
16.3239
 21
1.41064
  0
LINE
  8
0
 10
16.3239
 20
1.41064
 11
16.3172
 21
1.34053
  0
LINE
  8
0
 10
16.3172
 20
1.34053
 11
16.3239
 21
1.27119
  0
LINE
  8
0
 10
16.3239
 20
1.27119
 11
16.344
 21
1.20769
  0
LINE
  8
0
 10
16.344
 20
1.20769
 11
16.3775
 21
1.15002
  0
LINE
  8
0
 10
16.3775
 20
1.15002
 11
16.4244
 21
1.09819
  0
LINE
  8
0
 10
16.4244
 20
1.09819
 11
16.4811
 21
1.05539
  0
LINE
  8
0
 10
16.4811
 20
1.05539
 11
16.5441
 21
1.02481
  0
LINE
  8
0
 10
16.5441
 20
1.02481
 11
16.6133
 21
1.00647
  0
LINE
  8
0
 10
16.6133
 20
1.00647
 11
16.6888
 21
1.00035
  0
LINE
  8
0
 10
16.6888
 20
1.00035
 11
16.7643
 21
1.00647
  0
ENDSEC
  0
SECTION
  2
OBJECTS
  0
DICTIONARY
  0
ENDSEC
  0
EOF
