<svg xmlns="http://www.w3.org/2000/svg" width="1400" height="900" viewBox="0 0 1400 900">
  <defs>
    <linearGradient id="bg" x2="0" y2="1"><stop stop-color="#111b27"/><stop offset="1" stop-color="#091018"/></linearGradient>
    <linearGradient id="rail" x2="0" y2="1"><stop stop-color="#e6a15f"/><stop offset="1" stop-color="#9a542d"/></linearGradient>
    <linearGradient id="rail2" x2="0" y2="1"><stop stop-color="#80c8c2"/><stop offset="1" stop-color="#337f82"/></linearGradient>
    <filter id="shadow"><feDropShadow dx="0" dy="12" stdDeviation="12" flood-opacity=".45"/></filter>
  </defs>
  <rect width="1400" height="900" fill="url(#bg)"/>
  <text x="74" y="84" fill="#f3f7fb" font-family="sans-serif" font-size="38" font-weight="700">MM-ORG-009 · TAPERED DRAWER FILLER RAIL SET</text>
  <text x="76" y="122" fill="#9db1c5" font-family="sans-serif" font-size="20">Concept v1 · loose, support-free perimeter infill with calibration gauge</text>

  <g transform="translate(105 190) skewY(-8)" filter="url(#shadow)">
    <path d="M70 80 L1050 20 L1130 135 L35 208 Z" fill="#d9c9aa" stroke="#f5ead4" stroke-width="4"/>
    <path d="M205 102 L940 58 L935 135 L198 178 Z" fill="#4b5662" stroke="#778594" stroke-width="4"/>
    <path d="M35 208 L198 178 L205 102 L70 80 Z" fill="url(#rail)" stroke="#ffd0a5" stroke-width="4"/>
    <path d="M935 135 L1130 135 L1050 20 L940 58 Z" fill="url(#rail2)" stroke="#b9fff6" stroke-width="4"/>
    <ellipse cx="128" cy="139" rx="38" ry="15" fill="#17202a" opacity=".9"/>
    <ellipse cx="1018" cy="91" rx="38" ry="15" fill="#17202a" opacity=".9"/>
    <text x="430" y="122" fill="#e9f0f5" font-family="sans-serif" font-size="22">existing rectangular organizer</text>
  </g>

  <g transform="translate(130 555)">
    <text x="0" y="0" fill="#f3f7fb" font-family="sans-serif" font-size="25" font-weight="700">FUNCTIONAL DETAILS</text>
    <g transform="translate(0 38)">
      <path d="M0 85 L360 35 L420 80 L0 145 Z" fill="url(#rail)" stroke="#ffd0a5" stroke-width="3"/>
      <path d="M30 112 L95 103 L95 129 L30 139 Z M125 99 L190 90 L190 115 L125 125 Z M220 86 L285 77 L285 102 L220 112 Z" fill="#332417" opacity=".9"/>
      <path d="M320 50 q30 20 60 0" fill="none" stroke="#18212b" stroke-width="18" stroke-linecap="round"/>
      <text x="0" y="180" fill="#b8c8d8" font-family="sans-serif" font-size="18">open underside ribs · lift scallop · end relief</text>
    </g>
    <g transform="translate(545 38)">
      <rect x="0" y="15" width="520" height="132" rx="28" fill="#233343" stroke="#8da4b9" stroke-width="3"/>
      <path d="M55 112 L140 55 L225 112 L310 45 L395 112 L465 67" fill="none" stroke="#e6a15f" stroke-width="18" stroke-linejoin="round" stroke-linecap="round"/>
      <text x="0" y="180" fill="#b8c8d8" font-family="sans-serif" font-size="18">front/rear gap gauge before full-length print</text>
    </g>
  </g>

  <text x="76" y="850" fill="#8ea1b4" font-family="sans-serif" font-size="18">DRAFT concept · proportions illustrative · exact dimensions are controlled by design-spec.yaml</text>
</svg>
