  0
SECTION
  2
BLOCKS
  0
ENDSEC
  0
SECTION
  2
ENTITIES
  0
LINE
  8
0
 10
3.85881
 20
2.95125
 11
3.85881
 21
6.41344
  0
LINE
  8
0
 10
3.85881
 20
6.41344
 11
6.98486
 21
8.43025
  0
LINE
  8
0
 10
6.98486
 20
8.43025
 11
6.94907
 21
8.46478
  0
LINE
  8
0
 10
6.94907
 20
8.46478
 11
6.91226
 21
8.49777
  0
LINE
  8
0
 10
6.91226
 20
8.49777
 11
6.87445
 21
8.52921
  0
LINE
  8
0
 10
6.87445
 20
8.52921
 11
6.83562
 21
8.55905
  0
LINE
  8
0
 10
6.83562
 20
8.55905
 11
6.79579
 21
8.58728
  0
LINE
  8
0
 10
6.79579
 20
8.58728
 11
6.75494
 21
8.61388
  0
LINE
  8
0
 10
6.75494
 20
8.61388
 11
6.7131
 21
8.63881
  0
LINE
  8
0
 10
6.7131
 20
8.63881
 11
6.67024
 21
8.66205
  0
LINE
  8
0
 10
6.67024
 20
8.66205
 11
6.62637
 21
8.68356
  0
LINE
  8
0
 10
6.62637
 20
8.68356
 11
6.58151
 21
8.70335
  0
LINE
  8
0
 10
6.58151
 20
8.70335
 11
6.53563
 21
8.72137
  0
LINE
  8
0
 10
6.53563
 20
8.72137
 11
6.48874
 21
8.73761
  0
LINE
  8
0
 10
6.48874
 20
8.73761
 11
6.44083
 21
8.75201
  0
LINE
  8
0
 10
6.44083
 20
8.75201
 11
6.39192
 21
8.7646
  0
LINE
  8
0
 10
6.39192
 20
8.7646
 11
6.34201
 21
8.77531
  0
LINE
  8
0
 10
6.34201
 20
8.77531
 11
6.29109
 21
8.78413
  0
LINE
  8
0
 10
6.29109
 20
8.78413
 11
6.23915
 21
8.79103
  0
LINE
  8
0
 10
6.23915
 20
8.79103
 11
6.1862
 21
8.79599
  0
LINE
  8
0
 10
6.1862
 20
8.79599
 11
6.13226
 21
8.79898
  0
LINE
  8
0
 10
6.13226
 20
8.79898
 11
6.0773
 21
8.79999
  0
LINE
  8
0
 10
6.0773
 20
8.79999
 11
2.85042
 21
8.79999
  0
LINE
  8
0
 10
2.85042
 20
8.79999
 11
2.68083
 21
8.79326
  0
LINE
  8
0
 10
2.68083
 20
8.79326
 11
2.51529
 21
8.77341
  0
LINE
  8
0
 10
2.51529
 20
8.77341
 11
2.35428
 21
8.74089
  0
LINE
  8
0
 10
2.35428
 20
8.74089
 11
2.19832
 21
8.6962
  0
LINE
  8
0
 10
2.19832
 20
8.6962
 11
2.0479
 21
8.6398
  0
LINE
  8
0
 10
2.0479
 20
8.6398
 11
1.90352
 21
8.57219
  0
LINE
  8
0
 10
1.90352
 20
8.57219
 11
1.7657
 21
8.49385
  0
LINE
  8
0
 10
1.7657
 20
8.49385
 11
1.63495
 21
8.40524
  0
LINE
  8
0
 10
1.63495
 20
8.40524
 11
1.51175
 21
8.30684
  0
LINE
  8
0
 10
1.51175
 20
8.30684
 11
1.39664
 21
8.19916
  0
LINE
  8
0
 10
1.39664
 20
8.19916
 11
1.29007
 21
8.08264
  0
LINE
  8
0
 10
1.29007
 20
8.08264
 11
1.1926
 21
7.95778
  0
LINE
  8
0
 10
1.1926
 20
7.95778
 11
1.10469
 21
7.82504
  0
LINE
  8
0
 10
1.10469
 20
7.82504
 11
1.02689
 21
7.68494
  0
LINE
  8
0
 10
1.02689
 20
7.68494
 11
0.959656
 21
7.53792
  0
LINE
  8
0
 10
0.959656
 20
7.53792
 11
0.903519
 21
7.38446
  0
LINE
  8
0
 10
0.903519
 20
7.38446
 11
0.858978
 21
7.22507
  0
LINE
  8
0
 10
0.858978
 20
7.22507
 11
0.826553
 21
7.0602
  0
LINE
  8
0
 10
0.826553
 20
7.0602
 11
0.806717
 21
6.89034
  0
LINE
  8
0
 10
0.806717
 20
6.89034
 11
0.799988
 21
6.71596
  0
LINE
  8
0
 10
0.799988
 20
6.71596
 11
0.799988
 21
2.41344
  0
LINE
  8
0
 10
0.799988
 20
2.41344
 11
0.800507
 21
2.3532
  0
LINE
  8
0
 10
0.800507
 20
2.3532
 11
0.802078
 21
2.2935
  0
LINE
  8
0
 10
0.802078
 20
2.2935
 11
0.804764
 21
2.23442
  0
LINE
  8
0
 10
0.804764
 20
2.23442
 11
0.808594
 21
2.17599
  0
LINE
  8
0
 10
0.808594
 20
2.17599
 11
0.813644
 21
2.11827
  0
LINE
  8
0
 10
0.813644
 20
2.11827
 11
0.819962
 21
2.06131
  0
LINE
  8
0
 10
0.819962
 20
2.06131
 11
0.827576
 21
2.00514
  0
LINE
  8
0
 10
0.827576
 20
2.00514
 11
0.836563
 21
1.94984
  0
LINE
  8
0
 10
0.836563
 20
1.94984
 11
0.846954
 21
1.89545
  0
LINE
  8
0
 10
0.846954
 20
1.89545
 11
0.85881
 21
1.84201
  0
LINE
  8
0
 10
0.85881
 20
1.84201
 11
0.872192
 21
1.78958
  0
LINE
  8
0
 10
0.872192
 20
1.78958
 11
0.887115
 21
1.7382
  0
LINE
  8
0
 10
0.887115
 20
1.7382
 11
0.903671
 21
1.68796
  0
LINE
  8
0
 10
0.903671
 20
1.68796
 11
0.921875
 21
1.63885
  0
LINE
  8
0
 10
0.921875
 20
1.63885
 11
0.941803
 21
1.59096
  0
LINE
  8
0
 10
0.941803
 20
1.59096
 11
0.963486
 21
1.54433
  0
LINE
  8
0
 10
0.963486
 20
1.54433
 11
0.987
 21
1.49901
  0
LINE
  8
0
 10
0.987
 20
1.49901
 11
1.01236
 21
1.45505
  0
LINE
  8
0
 10
1.01236
 20
1.45505
 11
1.03964
 21
1.41251
  0
LINE
  8
0
 10
1.03964
 20
1.41251
 11
1.06889
 21
1.37141
  0
LINE
  8
0
 10
1.06889
 20
1.37141
 11
3.85881
 21
2.95125
  0
LINE
  8
0
 10
32.6556
 20
5.00752
 11
32.8154
 21
5.02847
  0
LINE
  8
0
 10
32.8154
 20
5.02847
 11
32.9651
 21
5.0634
  0
LINE
  8
0
 10
32.9651
 20
5.0634
 11
33.1047
 21
5.11229
  0
LINE
  8
0
 10
33.1047
 20
5.11229
 11
33.232
 21
5.17339
  0
LINE
  8
0
 10
33.232
 20
5.17339
 11
33.3446
 21
5.24489
  0
LINE
  8
0
 10
33.3446
 20
5.24489
 11
33.4425
 21
5.32681
  0
LINE
  8
0
 10
33.4425
 20
5.32681
 11
33.5257
 21
5.41914
  0
LINE
  8
0
 10
33.5257
 20
5.41914
 11
33.5921
 21
5.52031
  0
LINE
  8
0
 10
33.5921
 20
5.52031
 11
33.6395
 21
5.62871
  0
LINE
  8
0
 10
33.6395
 20
5.62871
 11
33.6679
 21
5.74434
  0
LINE
  8
0
 10
33.6679
 20
5.74434
 11
33.6774
 21
5.8672
  0
LINE
  8
0
 10
33.6774
 20
5.8672
 11
33.6664
 21
5.99686
  0
LINE
  8
0
 10
33.6664
 20
5.99686
 11
33.6335
 21
6.11522
  0
LINE
  8
0
 10
33.6335
 20
6.11522
 11
33.5785
 21
6.22232
  0
LINE
  8
0
 10
33.5785
 20
6.22232
 11
33.5016
 21
6.31816
  0
LINE
  8
0
 10
33.5016
 20
6.31816
 11
33.4032
 21
6.39966
  0
LINE
  8
0
 10
33.4032
 20
6.39966
 11
33.2838
 21
6.46376
  0
LINE
  8
0
 10
33.2838
 20
6.46376
 11
33.1435
 21
6.51045
  0
LINE
  8
0
 10
33.1435
 20
6.51045
 11
32.9821
 21
6.53975
  0
LINE
  8
0
 10
32.9821
 20
6.53975
 11
32.9821
 21
6.56131
  0
LINE
  8
0
 10
32.9821
 20
6.56131
 11
33.1058
 21
6.58765
  0
LINE
  8
0
 10
33.1058
 20
6.58765
 11
33.2175
 21
6.62944
  0
LINE
  8
0
 10
33.2175
 20
6.62944
 11
33.3173
 21
6.68666
  0
LINE
  8
0
 10
33.3173
 20
6.68666
 11
33.4052
 21
6.75934
  0
LINE
  8
0
 10
33.4052
 20
6.75934
 11
33.4768
 21
6.845
  0
LINE
  8
0
 10
33.4768
 20
6.845
 11
33.528
 21
6.94121
  0
LINE
  8
0
 10
33.528
 20
6.94121
 11
33.5587
 21
7.04796
  0
LINE
  8
0
 10
33.5587
 20
7.04796
 11
33.5689
 21
7.16524
  0
LINE
  8
0
 10
33.5689
 20
7.16524
 11
33.5604
 21
7.28085
  0
LINE
  8
0
 10
33.5604
 20
7.28085
 11
33.535
 21
7.39047
  0
LINE
  8
0
 10
33.535
 20
7.39047
 11
33.4926
 21
7.49408
  0
LINE
  8
0
 10
33.4926
 20
7.49408
 11
33.4333
 21
7.59167
  0
LINE
  8
0
 10
33.4333
 20
7.59167
 11
33.3588
 21
7.68134
  0
LINE
  8
0
 10
33.3588
 20
7.68134
 11
33.271
 21
7.76106
  0
LINE
  8
0
 10
33.271
 20
7.76106
 11
33.1699
 21
7.83086
  0
LINE
  8
0
 10
33.1699
 20
7.83086
 11
33.0555
 21
7.89073
  0
LINE
  8
0
 10
33.0555
 20
7.89073
 11
32.9297
 21
7.93877
  0
LINE
  8
0
 10
32.9297
 20
7.93877
 11
32.7945
 21
7.97308
  0
LINE
  8
0
 10
32.7945
 20
7.97308
 11
32.6499
 21
7.99367
  0
LINE
  8
0
 10
32.6499
 20
7.99367
 11
32.4959
 21
8.00053
  0
LINE
  8
0
 10
32.4959
 20
8.00053
 11
32.3395
 21
7.99348
  0
LINE
  8
0
 10
32.3395
 20
7.99348
 11
32.1917
 21
7.97235
  0
LINE
  8
0
 10
32.1917
 20
7.97235
 11
32.0526
 21
7.93712
  0
LINE
  8
0
 10
32.0526
 20
7.93712
 11
31.9222
 21
7.88779
  0
LINE
  8
0
 10
31.9222
 20
7.88779
 11
31.8028
 21
7.82608
  0
LINE
  8
0
 10
31.8028
 20
7.82608
 11
31.6966
 21
7.75371
  0
LINE
  8
0
 10
31.6966
 20
7.75371
 11
31.6038
 21
7.67068
  0
LINE
  8
0
 10
31.6038
 20
7.67068
 11
31.5243
 21
7.577
  0
LINE
  8
0
 10
31.5243
 20
7.577
 11
31.4605
 21
7.47418
  0
LINE
  8
0
 10
31.4605
 20
7.47418
 11
31.4146
 21
7.36377
  0
LINE
  8
0
 10
31.4146
 20
7.36377
 11
31.3866
 21
7.24576
  0
LINE
  8
0
 10
31.3866
 20
7.24576
 11
31.3766
 21
7.12013
  0
LINE
  8
0
 10
31.3766
 20
7.12013
 11
32.0578
 21
7.12013
  0
LINE
  8
0
 10
32.0578
 20
7.12013
 11
32.0666
 21
7.19279
  0
LINE
  8
0
 10
32.0666
 20
7.19279
 11
32.0907
 21
7.25787
  0
LINE
  8
0
 10
32.0907
 20
7.25787
 11
32.1303
 21
7.31534
  0
LINE
  8
0
 10
32.1303
 20
7.31534
 11
32.1854
 21
7.3652
  0
LINE
  8
0
 10
32.1854
 20
7.3652
 11
32.2518
 21
7.40553
  0
LINE
  8
0
 10
32.2518
 20
7.40553
 11
32.3253
 21
7.43434
  0
LINE
  8
0
 10
32.3253
 20
7.43434
 11
32.406
 21
7.45161
  0
LINE
  8
0
 10
32.406
 20
7.45161
 11
32.4939
 21
7.45738
  0
LINE
  8
0
 10
32.4939
 20
7.45738
 11
32.5763
 21
7.45155
  0
LINE
  8
0
 10
32.5763
 20
7.45155
 11
32.6506
 21
7.4341
  0
LINE
  8
0
 10
32.6506
 20
7.4341
 11
32.7169
 21
7.405
  0
LINE
  8
0
 10
32.7169
 20
7.405
 11
32.7752
 21
7.36424
  0
LINE
  8
0
 10
32.7752
 20
7.36424
 11
32.8227
 21
7.31419
  0
LINE
  8
0
 10
32.8227
 20
7.31419
 11
32.8566
 21
7.25716
  0
LINE
  8
0
 10
32.8566
 20
7.25716
 11
32.8769
 21
7.19312
  0
LINE
  8
0
 10
32.8769
 20
7.19312
 11
32.8837
 21
7.1221
  0
LINE
  8
0
 10
32.8837
 20
7.1221
 11
32.8758
 21
7.04826
  0
LINE
  8
0
 10
32.8758
 20
7.04826
 11
32.852
 21
6.98166
  0
LINE
  8
0
 10
32.852
 20
6.98166
 11
32.8125
 21
6.92227
  0
LINE
  8
0
 10
32.8125
 20
6.92227
 11
32.7571
 21
6.87013
  0
LINE
  8
0
 10
32.7571
 20
6.87013
 11
32.6893
 21
6.82767
  0
LINE
  8
0
 10
32.6893
 20
6.82767
 11
32.6124
 21
6.79733
  0
LINE
  8
0
 10
32.6124
 20
6.79733
 11
32.5265
 21
6.77914
  0
LINE
  8
0
 10
32.5265
 20
6.77914
 11
32.4316
 21
6.77307
  0
LINE
  8
0
 10
32.4316
 20
6.77307
 11
32.1402
 21
6.77307
  0
LINE
  8
0
 10
32.1402
 20
6.77307
 11
32.1402
 21
6.27895
  0
LINE
  8
0
 10
32.1402
 20
6.27895
 11
32.4316
 21
6.27895
  0
LINE
  8
0
 10
32.4316
 20
6.27895
 11
32.5403
 21
6.27271
  0
LINE
  8
0
 10
32.5403
 20
6.27271
 11
32.6375
 21
6.25395
  0
LINE
  8
0
 10
32.6375
 20
6.25395
 11
32.7232
 21
6.2227
  0
LINE
  8
0
 10
32.7232
 20
6.2227
 11
32.7973
 21
6.17894
  0
LINE
  8
0
 10
32.7973
 20
6.17894
 11
32.8571
 21
6.12527
  0
LINE
  8
0
 10
32.8571
 20
6.12527
 11
32.8998
 21
6.06425
  0
LINE
  8
0
 10
32.8998
 20
6.06425
 11
32.9254
 21
5.99588
  0
LINE
  8
0
 10
32.9254
 20
5.99588
 11
32.9339
 21
5.92014
  0
LINE
  8
0
 10
32.9339
 20
5.92014
 11
32.9262
 21
5.84453
  0
LINE
  8
0
 10
32.9262
 20
5.84453
 11
32.903
 21
5.77652
  0
LINE
  8
0
 10
32.903
 20
5.77652
 11
32.8644
 21
5.71609
  0
LINE
  8
0
 10
32.8644
 20
5.71609
 11
32.8104
 21
5.66328
  0
LINE
  8
0
 10
32.8104
 20
5.66328
 11
32.7441
 21
5.62039
  0
LINE
  8
0
 10
32.7441
 20
5.62039
 11
32.6689
 21
5.58975
  0
LINE
  8
0
 10
32.6689
 20
5.58975
 11
32.5849
 21
5.57137
  0
LINE
  8
0
 10
32.5849
 20
5.57137
 11
32.4919
 21
5.56523
  0
LINE
  8
0
 10
32.4919
 20
5.56523
 11
32.3976
 21
5.57088
  0
LINE
  8
0
 10
32.3976
 20
5.57088
 11
32.3115
 21
5.58778
  0
LINE
  8
0
 10
32.3115
 20
5.58778
 11
32.2338
 21
5.61597
  0
LINE
  8
0
 10
32.2338
 20
5.61597
 11
32.1643
 21
5.65541
  0
LINE
  8
0
 10
32.1643
 20
5.65541
 11
32.1069
 21
5.70407
  0
LINE
  8
0
 10
32.1069
 20
5.70407
 11
32.0654
 21
5.75983
  0
LINE
  8
0
 10
32.0654
 20
5.75983
 11
32.0396
 21
5.82269
  0
LINE
  8
0
 10
32.0396
 20
5.82269
 11
32.0297
 21
5.89267
  0
LINE
  8
0
 10
32.0297
 20
5.89267
 11
31.3184
 21
5.89267
  0
LINE
  8
0
 10
31.3184
 20
5.89267
 11
31.3287
 21
5.76517
  0
LINE
  8
0
 10
31.3287
 20
5.76517
 11
31.3575
 21
5.64537
  0
LINE
  8
0
 10
31.3575
 20
5.64537
 11
31.405
 21
5.53331
  0
LINE
  8
0
 10
31.405
 20
5.53331
 11
31.4711
 21
5.42894
  0
LINE
  8
0
 10
31.4711
 20
5.42894
 11
31.5534
 21
5.33391
  0
LINE
  8
0
 10
31.5534
 20
5.33391
 11
31.6497
 21
5.24979
  0
LINE
  8
0
 10
31.6497
 20
5.24979
 11
31.7599
 21
5.17656
  0
LINE
  8
0
 10
31.7599
 20
5.17656
 11
31.884
 21
5.11426
  0
LINE
  8
0
 10
31.884
 20
5.11426
 11
32.02
 21
5.0645
  0
LINE
  8
0
 10
32.02
 20
5.0645
 11
32.1656
 21
5.02896
  0
LINE
  8
0
 10
32.1656
 20
5.02896
 11
32.3209
 21
5.00764
  0
LINE
  8
0
 10
32.3209
 20
5.00764
 11
32.4859
 21
5.00053
  0
LINE
  8
0
 10
32.4859
 20
5.00053
 11
32.6556
 21
5.00752
  0
LINE
  8
0
 10
30.0653
 20
5.02524
 11
30.3138
 21
5.09932
  0
LINE
  8
0
 10
30.3138
 20
5.09932
 11
30.529
 21
5.22278
  0
LINE
  8
0
 10
30.529
 20
5.22278
 11
30.7109
 21
5.39563
  0
LINE
  8
0
 10
30.7109
 20
5.39563
 11
30.8555
 21
5.61273
  0
LINE
  8
0
 10
30.8555
 20
5.61273
 11
30.9588
 21
5.86891
  0
LINE
  8
0
 10
30.9588
 20
5.86891
 11
31.0208
 21
6.1642
  0
LINE
  8
0
 10
31.0208
 20
6.1642
 11
31.0415
 21
6.49857
  0
LINE
  8
0
 10
31.0415
 20
6.49857
 11
31.0321
 21
6.72633
  0
LINE
  8
0
 10
31.0321
 20
6.72633
 11
31.004
 21
6.93706
  0
LINE
  8
0
 10
31.004
 20
6.93706
 11
30.9573
 21
7.13074
  0
LINE
  8
0
 10
30.9573
 20
7.13074
 11
30.8918
 21
7.30739
  0
LINE
  8
0
 10
30.8918
 20
7.30739
 11
30.8087
 21
7.46565
  0
LINE
  8
0
 10
30.8087
 20
7.46565
 11
30.7092
 21
7.6042
  0
LINE
  8
0
 10
30.7092
 20
7.6042
 11
30.5932
 21
7.72301
  0
LINE
  8
0
 10
30.5932
 20
7.72301
 11
30.4607
 21
7.82208
  0
LINE
  8
0
 10
30.4607
 20
7.82208
 11
30.3129
 21
7.90016
  0
LINE
  8
0
 10
30.3129
 20
7.90016
 11
30.1508
 21
7.95592
  0
LINE
  8
0
 10
30.1508
 20
7.95592
 11
29.9743
 21
7.98938
  0
LINE
  8
0
 10
29.9743
 20
7.98938
 11
29.7836
 21
8.00053
  0
LINE
  8
0
 10
29.7836
 20
8.00053
 11
29.5034
 21
7.97578
  0
LINE
  8
0
 10
29.5034
 20
7.97578
 11
29.2558
 21
7.9015
  0
LINE
  8
0
 10
29.2558
 20
7.9015
 11
29.0408
 21
7.77773
  0
LINE
  8
0
 10
29.0408
 20
7.77773
 11
28.8582
 21
7.60443
  0
LINE
  8
0
 10
28.8582
 20
7.60443
 11
28.7127
 21
7.38678
  0
LINE
  8
0
 10
28.7127
 20
7.38678
 11
28.6088
 21
7.12993
  0
LINE
  8
0
 10
28.6088
 20
7.12993
 11
28.5465
 21
6.83386
  0
LINE
  8
0
 10
28.5465
 20
6.83386
 11
28.5257
 21
6.49857
  0
LINE
  8
0
 10
28.5257
 20
6.49857
 11
28.5465
 21
6.16339
  0
LINE
  8
0
 10
28.5465
 20
6.16339
 11
28.6088
 21
5.86769
  0
LINE
  8
0
 10
28.6088
 20
5.86769
 11
28.7127
 21
5.61143
  0
LINE
  8
0
 10
28.7127
 20
5.61143
 11
28.8582
 21
5.39465
  0
LINE
  8
0
 10
28.8582
 20
5.39465
 11
29.0408
 21
5.22223
  0
LINE
  8
0
 10
29.0408
 20
5.22223
 11
29.2558
 21
5.09906
  0
LINE
  8
0
 10
29.2558
 20
5.09906
 11
29.5034
 21
5.02518
  0
LINE
  8
0
 10
29.5034
 20
5.02518
 11
29.7836
 21
5.00053
  0
LINE
  8
0
 10
29.7836
 20
5.00053
 11
30.0653
 21
5.02524
  0
LINE
  8
0
 10
29.6635
 20
5.58228
 11
29.5583
 21
5.62749
  0
LINE
  8
0
 10
29.5583
 20
5.62749
 11
29.468
 21
5.70285
  0
LINE
  8
0
 10
29.468
 20
5.70285
 11
29.3927
 21
5.80836
  0
LINE
  8
0
 10
29.3927
 20
5.80836
 11
29.3334
 21
5.94196
  0
LINE
  8
0
 10
29.3334
 20
5.94196
 11
29.291
 21
6.10152
  0
LINE
  8
0
 10
29.291
 20
6.10152
 11
29.2656
 21
6.28705
  0
LINE
  8
0
 10
29.2656
 20
6.28705
 11
29.2571
 21
6.49857
  0
LINE
  8
0
 10
29.2571
 20
6.49857
 11
29.2656
 21
6.71114
  0
LINE
  8
0
 10
29.2656
 20
6.71114
 11
29.2912
 21
6.89784
  0
LINE
  8
0
 10
29.2912
 20
6.89784
 11
29.334
 21
7.05869
  0
LINE
  8
0
 10
29.334
 20
7.05869
 11
29.3937
 21
7.19366
  0
LINE
  8
0
 10
29.3937
 20
7.19366
 11
29.4693
 21
7.30046
  0
LINE
  8
0
 10
29.4693
 20
7.30046
 11
29.5595
 21
7.37675
  0
LINE
  8
0
 10
29.5595
 20
7.37675
 11
29.6642
 21
7.42252
  0
LINE
  8
0
 10
29.6642
 20
7.42252
 11
29.7836
 21
7.43777
  0
LINE
  8
0
 10
29.7836
 20
7.43777
 11
29.9037
 21
7.42252
  0
LINE
  8
0
 10
29.9037
 20
7.42252
 11
30.0091
 21
7.37675
  0
LINE
  8
0
 10
30.0091
 20
7.37675
 11
30.0997
 21
7.30046
  0
LINE
  8
0
 10
30.0997
 20
7.30046
 11
30.1754
 21
7.19366
  0
LINE
  8
0
 10
30.1754
 20
7.19366
 11
30.2352
 21
7.05869
  0
LINE
  8
0
 10
30.2352
 20
7.05869
 11
30.2779
 21
6.89784
  0
LINE
  8
0
 10
30.2779
 20
6.89784
 11
30.3035
 21
6.71114
  0
LINE
  8
0
 10
30.3035
 20
6.71114
 11
30.312
 21
6.49857
  0
LINE
  8
0
 10
30.312
 20
6.49857
 11
30.3035
 21
6.28705
  0
LINE
  8
0
 10
30.3035
 20
6.28705
 11
30.2779
 21
6.10152
  0
LINE
  8
0
 10
30.2779
 20
6.10152
 11
30.2352
 21
5.94196
  0
LINE
  8
0
 10
30.2352
 20
5.94196
 11
30.1754
 21
5.80836
  0
LINE
  8
0
 10
30.1754
 20
5.80836
 11
30.0997
 21
5.70285
  0
LINE
  8
0
 10
30.0997
 20
5.70285
 11
30.0091
 21
5.62749
  0
LINE
  8
0
 10
30.0091
 20
5.62749
 11
29.9037
 21
5.58228
  0
LINE
  8
0
 10
29.9037
 20
5.58228
 11
29.7836
 21
5.5672
  0
LINE
  8
0
 10
29.7836
 20
5.5672
 11
29.6635
 21
5.58228
  0
LINE
  8
0
 10
25.2313
 20
5.00986
 11
25.407
 21
5.0378
  0
LINE
  8
0
 10
25.407
 20
5.0378
 11
25.5719
 21
5.08437
  0
LINE
  8
0
 10
25.5719
 20
5.08437
 11
25.726
 21
5.14955
  0
LINE
  8
0
 10
25.726
 20
5.14955
 11
25.8667
 21
5.23221
  0
LINE
  8
0
 10
25.8667
 20
5.23221
 11
25.9915
 21
5.33118
  0
LINE
  8
0
 10
25.9915
 20
5.33118
 11
26.1003
 21
5.44643
  0
LINE
  8
0
 10
26.1003
 20
5.44643
 11
26.1932
 21
5.57799
  0
LINE
  8
0
 10
26.1932
 20
5.57799
 11
26.2675
 21
5.72462
  0
LINE
  8
0
 10
26.2675
 20
5.72462
 11
26.3206
 21
5.88509
  0
LINE
  8
0
 10
26.3206
 20
5.88509
 11
26.3524
 21
6.05942
  0
LINE
  8
0
 10
26.3524
 20
6.05942
 11
26.363
 21
6.24757
  0
LINE
  8
0
 10
26.363
 20
6.24757
 11
26.363
 21
6.6319
  0
LINE
  8
0
 10
26.363
 20
6.6319
 11
25.079
 21
6.6319
  0
LINE
  8
0
 10
25.079
 20
6.6319
 11
25.079
 21
6.12407
  0
LINE
  8
0
 10
25.079
 20
6.12407
 11
25.6778
 21
6.12407
  0
LINE
  8
0
 10
25.6778
 20
6.12407
 11
25.665
 21
6.01157
  0
LINE
  8
0
 10
25.665
 20
6.01157
 11
25.6328
 21
5.91132
  0
LINE
  8
0
 10
25.6328
 20
5.91132
 11
25.5811
 21
5.82333
  0
LINE
  8
0
 10
25.5811
 20
5.82333
 11
25.51
 21
5.74759
  0
LINE
  8
0
 10
25.51
 20
5.74759
 11
25.4206
 21
5.68668
  0
LINE
  8
0
 10
25.4206
 20
5.68668
 11
25.3143
 21
5.64317
  0
LINE
  8
0
 10
25.3143
 20
5.64317
 11
25.1911
 21
5.61708
  0
LINE
  8
0
 10
25.1911
 20
5.61708
 11
25.0509
 21
5.60837
  0
LINE
  8
0
 10
25.0509
 20
5.60837
 11
24.8905
 21
5.62302
  0
LINE
  8
0
 10
24.8905
 20
5.62302
 11
24.7489
 21
5.66695
  0
LINE
  8
0
 10
24.7489
 20
5.66695
 11
24.6262
 21
5.74017
  0
LINE
  8
0
 10
24.6262
 20
5.74017
 11
24.5224
 21
5.84268
  0
LINE
  8
0
 10
24.5224
 20
5.84268
 11
24.4397
 21
5.97191
  0
LINE
  8
0
 10
24.4397
 20
5.97191
 11
24.3807
 21
6.12527
  0
LINE
  8
0
 10
24.3807
 20
6.12527
 11
24.3453
 21
6.30278
  0
LINE
  8
0
 10
24.3453
 20
6.30278
 11
24.3335
 21
6.50444
  0
LINE
  8
0
 10
24.3335
 20
6.50444
 11
24.3456
 21
6.70427
  0
LINE
  8
0
 10
24.3456
 20
6.70427
 11
24.382
 21
6.88019
  0
LINE
  8
0
 10
24.382
 20
6.88019
 11
24.4426
 21
7.03221
  0
LINE
  8
0
 10
24.4426
 20
7.03221
 11
24.5274
 21
7.16032
  0
LINE
  8
0
 10
24.5274
 20
7.16032
 11
24.6327
 21
7.26198
  0
LINE
  8
0
 10
24.6327
 20
7.26198
 11
24.7547
 21
7.33458
  0
LINE
  8
0
 10
24.7547
 20
7.33458
 11
24.8934
 21
7.37816
  0
LINE
  8
0
 10
24.8934
 20
7.37816
 11
25.0489
 21
7.39267
  0
LINE
  8
0
 10
25.0489
 20
7.39267
 11
25.1555
 21
7.38637
  0
LINE
  8
0
 10
25.1555
 20
7.38637
 11
25.2525
 21
7.36743
  0
LINE
  8
0
 10
25.2525
 20
7.36743
 11
25.3399
 21
7.33586
  0
LINE
  8
0
 10
25.3399
 20
7.33586
 11
25.4176
 21
7.29169
  0
LINE
  8
0
 10
25.4176
 20
7.29169
 11
25.4845
 21
7.23611
  0
LINE
  8
0
 10
25.4845
 20
7.23611
 11
25.5394
 21
7.17036
  0
LINE
  8
0
 10
25.5394
 20
7.17036
 11
25.5824
 21
7.09445
  0
LINE
  8
0
 10
25.5824
 20
7.09445
 11
25.6135
 21
7.00836
  0
LINE
  8
0
 10
25.6135
 20
7.00836
 11
26.3309
 21
7.00836
  0
LINE
  8
0
 10
26.3309
 20
7.00836
 11
26.3039
 21
7.14935
  0
LINE
  8
0
 10
26.3039
 20
7.14935
 11
26.2593
 21
7.28214
  0
LINE
  8
0
 10
26.2593
 20
7.28214
 11
26.1969
 21
7.40671
  0
LINE
  8
0
 10
26.1969
 20
7.40671
 11
26.1168
 21
7.52307
  0
LINE
  8
0
 10
26.1168
 20
7.52307
 11
26.0216
 21
7.6292
  0
LINE
  8
0
 10
26.0216
 20
7.6292
 11
25.9137
 21
7.72307
  0
LINE
  8
0
 10
25.9137
 20
7.72307
 11
25.793
 21
7.80469
  0
LINE
  8
0
 10
25.793
 20
7.80469
 11
25.6597
 21
7.87404
  0
LINE
  8
0
 10
25.6597
 20
7.87404
 11
25.516
 21
7.92938
  0
LINE
  8
0
 10
25.516
 20
7.92938
 11
25.3643
 21
7.96892
  0
LINE
  8
0
 10
25.3643
 20
7.96892
 11
25.2046
 21
7.99263
  0
LINE
  8
0
 10
25.2046
 20
7.99263
 11
25.0368
 21
8.00053
  0
LINE
  8
0
 10
25.0368
 20
8.00053
 11
24.8416
 21
7.98944
  0
LINE
  8
0
 10
24.8416
 20
7.98944
 11
24.656
 21
7.95618
  0
LINE
  8
0
 10
24.656
 20
7.95618
 11
24.4799
 21
7.90071
  0
LINE
  8
0
 10
24.4799
 20
7.90071
 11
24.3134
 21
7.82307
  0
LINE
  8
0
 10
24.3134
 20
7.82307
 11
24.1599
 21
7.72443
  0
LINE
  8
0
 10
24.1599
 20
7.72443
 11
24.023
 21
7.60593
  0
LINE
  8
0
 10
24.023
 20
7.60593
 11
23.9027
 21
7.46756
  0
LINE
  8
0
 10
23.9027
 20
7.46756
 11
23.799
 21
7.30934
  0
LINE
  8
0
 10
23.799
 20
7.30934
 11
23.7155
 21
7.13232
  0
LINE
  8
0
 10
23.7155
 20
7.13232
 11
23.6558
 21
6.93753
  0
LINE
  8
0
 10
23.6558
 20
6.93753
 11
23.62
 21
6.72496
  0
LINE
  8
0
 10
23.62
 20
6.72496
 11
23.6081
 21
6.49464
  0
LINE
  8
0
 10
23.6081
 20
6.49464
 11
23.6194
 21
6.27209
  0
LINE
  8
0
 10
23.6194
 20
6.27209
 11
23.6533
 21
6.06523
  0
LINE
  8
0
 10
23.6533
 20
6.06523
 11
23.7098
 21
5.87405
  0
LINE
  8
0
 10
23.7098
 20
5.87405
 11
23.7889
 21
5.69855
  0
LINE
  8
0
 10
23.7889
 20
5.69855
 11
23.8883
 21
5.54054
  0
LINE
  8
0
 10
23.8883
 20
5.54054
 11
24.0054
 21
5.40176
  0
LINE
  8
0
 10
24.0054
 20
5.40176
 11
24.1405
 21
5.28221
  0
LINE
  8
0
 10
24.1405
 20
5.28221
 11
24.2933
 21
5.18192
  0
LINE
  8
0
 10
24.2933
 20
5.18192
 11
24.4616
 21
5.10255
  0
LINE
  8
0
 10
24.4616
 20
5.10255
 11
24.6429
 21
5.04588
  0
LINE
  8
0
 10
24.6429
 20
5.04588
 11
24.8374
 21
5.01187
  0
LINE
  8
0
 10
24.8374
 20
5.01187
 11
25.0448
 21
5.00053
  0
LINE
  8
0
 10
25.0448
 20
5.00053
 11
25.2313
 21
5.00986
  0
LINE
  8
0
 10
19.4626
 20
5.01138
 11
19.648
 21
5.04391
  0
LINE
  8
0
 10
19.648
 20
5.04391
 11
19.8238
 21
5.09813
  0
LINE
  8
0
 10
19.8238
 20
5.09813
 11
19.9899
 21
5.17404
  0
LINE
  8
0
 10
19.9899
 20
5.17404
 11
20.1428
 21
5.27092
  0
LINE
  8
0
 10
20.1428
 20
5.27092
 11
20.279
 21
5.38803
  0
LINE
  8
0
 10
20.279
 20
5.38803
 11
20.3985
 21
5.52534
  0
LINE
  8
0
 10
20.3985
 20
5.52534
 11
20.5013
 21
5.68288
  0
LINE
  8
0
 10
20.5013
 20
5.68288
 11
20.5839
 21
5.8596
  0
LINE
  8
0
 10
20.5839
 20
5.8596
 11
20.6429
 21
6.05446
  0
LINE
  8
0
 10
20.6429
 20
6.05446
 11
20.6784
 21
6.26744
  0
LINE
  8
0
 10
20.6784
 20
6.26744
 11
20.6902
 21
6.49857
  0
LINE
  8
0
 10
20.6902
 20
6.49857
 11
20.6784
 21
6.73056
  0
LINE
  8
0
 10
20.6784
 20
6.73056
 11
20.6429
 21
6.94415
  0
LINE
  8
0
 10
20.6429
 20
6.94415
 11
20.5839
 21
7.13937
  0
LINE
  8
0
 10
20.5839
 20
7.13937
 11
20.5013
 21
7.31619
  0
LINE
  8
0
 10
20.5013
 20
7.31619
 11
20.3985
 21
7.4738
  0
LINE
  8
0
 10
20.3985
 20
7.4738
 11
20.279
 21
7.6113
  0
LINE
  8
0
 10
20.279
 20
7.6113
 11
20.1428
 21
7.72871
  0
LINE
  8
0
 10
20.1428
 20
7.72871
 11
19.9899
 21
7.82602
  0
LINE
  8
0
 10
19.9899
 20
7.82602
 11
19.8238
 21
7.90237
  0
LINE
  8
0
 10
19.8238
 20
7.90237
 11
19.648
 21
7.95691
  0
LINE
  8
0
 10
19.648
 20
7.95691
 11
19.4626
 21
7.98962
  0
LINE
  8
0
 10
19.4626
 20
7.98962
 11
19.2675
 21
8.00053
  0
LINE
  8
0
 10
19.2675
 20
8.00053
 11
19.0706
 21
7.98962
  0
LINE
  8
0
 10
19.0706
 20
7.98962
 11
18.884
 21
7.95691
  0
LINE
  8
0
 10
18.884
 20
7.95691
 11
18.7074
 21
7.90237
  0
LINE
  8
0
 10
18.7074
 20
7.90237
 11
18.5411
 21
7.82602
  0
LINE
  8
0
 10
18.5411
 20
7.82602
 11
18.3882
 21
7.72871
  0
LINE
  8
0
 10
18.3882
 20
7.72871
 11
18.252
 21
7.6113
  0
LINE
  8
0
 10
18.252
 20
7.6113
 11
18.1325
 21
7.4738
  0
LINE
  8
0
 10
18.1325
 20
7.4738
 11
18.0297
 21
7.31619
  0
LINE
  8
0
 10
18.0297
 20
7.31619
 11
17.9471
 21
7.13937
  0
LINE
  8
0
 10
17.9471
 20
7.13937
 11
17.888
 21
6.94415
  0
LINE
  8
0
 10
17.888
 20
6.94415
 11
17.8526
 21
6.73056
  0
LINE
  8
0
 10
17.8526
 20
6.73056
 11
17.8408
 21
6.49857
  0
LINE
  8
0
 10
17.8408
 20
6.49857
 11
17.8526
 21
6.2683
  0
LINE
  8
0
 10
17.8526
 20
6.2683
 11
17.888
 21
6.05591
  0
LINE
  8
0
 10
17.888
 20
6.05591
 11
17.9471
 21
5.86142
  0
LINE
  8
0
 10
17.9471
 20
5.86142
 11
18.0297
 21
5.68481
  0
LINE
  8
0
 10
18.0297
 20
5.68481
 11
18.1325
 21
5.52724
  0
LINE
  8
0
 10
18.1325
 20
5.52724
 11
18.252
 21
5.38974
  0
LINE
  8
0
 10
18.252
 20
5.38974
 11
18.3882
 21
5.27234
  0
LINE
  8
0
 10
18.3882
 20
5.27234
 11
18.5411
 21
5.17503
  0
LINE
  8
0
 10
18.5411
 20
5.17503
 11
18.7074
 21
5.09869
  0
LINE
  8
0
 10
18.7074
 20
5.09869
 11
18.884
 21
5.04416
  0
LINE
  8
0
 10
18.884
 20
5.04416
 11
19.0706
 21
5.01144
  0
LINE
  8
0
 10
19.0706
 20
5.01144
 11
19.2675
 21
5.00053
  0
LINE
  8
0
 10
19.2675
 20
5.00053
 11
19.4626
 21
5.01138
  0
LINE
  8
0
 10
19.1125
 20
5.62265
 11
18.9751
 21
5.66548
  0
LINE
  8
0
 10
18.9751
 20
5.66548
 11
18.8553
 21
5.73686
  0
LINE
  8
0
 10
18.8553
 20
5.73686
 11
18.7531
 21
5.83679
  0
LINE
  8
0
 10
18.7531
 20
5.83679
 11
18.6713
 21
5.96382
  0
LINE
  8
0
 10
18.6713
 20
5.96382
 11
18.6129
 21
6.11646
  0
LINE
  8
0
 10
18.6129
 20
6.11646
 11
18.5779
 21
6.29471
  0
LINE
  8
0
 10
18.5779
 20
6.29471
 11
18.5662
 21
6.49857
  0
LINE
  8
0
 10
18.5662
 20
6.49857
 11
18.5779
 21
6.70335
  0
LINE
  8
0
 10
18.5779
 20
6.70335
 11
18.6129
 21
6.88239
  0
LINE
  8
0
 10
18.6129
 20
6.88239
 11
18.6713
 21
7.03569
  0
LINE
  8
0
 10
18.6713
 20
7.03569
 11
18.7531
 21
7.16325
  0
LINE
  8
0
 10
18.7531
 20
7.16325
 11
18.8553
 21
7.26363
  0
LINE
  8
0
 10
18.8553
 20
7.26363
 11
18.9751
 21
7.33531
  0
LINE
  8
0
 10
18.9751
 20
7.33531
 11
19.1125
 21
7.37833
  0
LINE
  8
0
 10
19.1125
 20
7.37833
 11
19.2675
 21
7.39267
  0
LINE
  8
0
 10
19.2675
 20
7.39267
 11
19.4216
 21
7.37833
  0
LINE
  8
0
 10
19.4216
 20
7.37833
 11
19.5583
 21
7.33531
  0
LINE
  8
0
 10
19.5583
 20
7.33531
 11
19.6778
 21
7.26363
  0
LINE
  8
0
 10
19.6778
 20
7.26363
 11
19.7799
 21
7.16325
  0
LINE
  8
0
 10
19.7799
 20
7.16325
 11
19.8616
 21
7.03569
  0
LINE
  8
0
 10
19.8616
 20
7.03569
 11
19.92
 21
6.88239
  0
LINE
  8
0
 10
19.92
 20
6.88239
 11
19.9551
 21
6.70335
  0
LINE
  8
0
 10
19.9551
 20
6.70335
 11
19.9668
 21
6.49857
  0
LINE
  8
0
 10
19.9668
 20
6.49857
 11
19.9551
 21
6.29471
  0
LINE
  8
0
 10
19.9551
 20
6.29471
 11
19.92
 21
6.11646
  0
LINE
  8
0
 10
19.92
 20
6.11646
 11
19.8616
 21
5.96382
  0
LINE
  8
0
 10
19.8616
 20
5.96382
 11
19.7799
 21
5.83679
  0
LINE
  8
0
 10
19.7799
 20
5.83679
 11
19.6778
 21
5.73686
  0
LINE
  8
0
 10
19.6778
 20
5.73686
 11
19.5583
 21
5.66548
  0
LINE
  8
0
 10
19.5583
 20
5.66548
 11
19.4216
 21
5.62265
  0
LINE
  8
0
 10
19.4216
 20
5.62265
 11
19.2675
 21
5.60837
  0
LINE
  8
0
 10
19.2675
 20
5.60837
 11
19.1125
 21
5.62265
  0
LINE
  8
0
 10
21.7248
 20
6.04562
 11
22.1106
 21
6.04562
  0
LINE
  8
0
 10
22.1106
 20
6.04562
 11
22.6592
 21
5.03975
  0
LINE
  8
0
 10
22.6592
 20
5.03975
 11
23.4368
 21
5.03975
  0
LINE
  8
0
 10
23.4368
 20
5.03975
 11
22.8119
 21
6.15544
  0
LINE
  8
0
 10
22.8119
 20
6.15544
 11
22.9294
 21
6.21672
  0
LINE
  8
0
 10
22.9294
 20
6.21672
 11
23.0327
 21
6.29074
  0
LINE
  8
0
 10
23.0327
 20
6.29074
 11
23.1218
 21
6.3775
  0
LINE
  8
0
 10
23.1218
 20
6.3775
 11
23.1967
 21
6.47701
  0
LINE
  8
0
 10
23.1967
 20
6.47701
 11
23.2561
 21
6.58852
  0
LINE
  8
0
 10
23.2561
 20
6.58852
 11
23.2984
 21
6.71132
  0
LINE
  8
0
 10
23.2984
 20
6.71132
 11
23.3239
 21
6.84538
  0
LINE
  8
0
 10
23.3239
 20
6.84538
 11
23.3324
 21
6.99072
  0
LINE
  8
0
 10
23.3324
 20
6.99072
 11
23.3141
 21
7.20267
  0
LINE
  8
0
 10
23.3141
 20
7.20267
 11
23.2593
 21
7.39145
  0
LINE
  8
0
 10
23.2593
 20
7.39145
 11
23.1679
 21
7.55707
  0
LINE
  8
0
 10
23.1679
 20
7.55707
 11
23.04
 21
7.69952
  0
LINE
  8
0
 10
23.04
 20
7.69952
 11
22.8804
 21
7.81406
  0
LINE
  8
0
 10
22.8804
 20
7.81406
 11
22.6941
 21
7.89586
  0
LINE
  8
0
 10
22.6941
 20
7.89586
 11
22.481
 21
7.94495
  0
LINE
  8
0
 10
22.481
 20
7.94495
 11
22.2412
 21
7.9613
  0
LINE
  8
0
 10
22.2412
 20
7.9613
 11
21.0155
 21
7.9613
  0
LINE
  8
0
 10
21.0155
 20
7.9613
 11
21.0155
 21
5.03975
  0
LINE
  8
0
 10
21.0155
 20
5.03975
 11
21.7248
 21
5.03975
  0
LINE
  8
0
 10
21.7248
 20
5.03975
 11
21.7248
 21
6.04562
  0
LINE
  8
0
 10
21.7248
 20
6.59268
 11
21.7248
 21
7.40054
  0
LINE
  8
0
 10
21.7248
 20
7.40054
 11
22.0905
 21
7.40054
  0
LINE
  8
0
 10
22.0905
 20
7.40054
 11
22.3121
 21
7.37492
  0
LINE
  8
0
 10
22.3121
 20
7.37492
 11
22.4703
 21
7.29808
  0
LINE
  8
0
 10
22.4703
 20
7.29808
 11
22.5653
 21
7.17001
  0
LINE
  8
0
 10
22.5653
 20
7.17001
 11
22.5969
 21
6.99072
  0
LINE
  8
0
 10
22.5969
 20
6.99072
 11
22.5654
 21
6.81659
  0
LINE
  8
0
 10
22.5654
 20
6.81659
 11
22.4708
 21
6.6922
  0
LINE
  8
0
 10
22.4708
 20
6.6922
 11
22.3132
 21
6.61755
  0
LINE
  8
0
 10
22.3132
 20
6.61755
 11
22.0925
 21
6.59268
  0
LINE
  8
0
 10
22.0925
 20
6.59268
 11
21.7248
 21
6.59268
  0
LINE
  8
0
 10
36.0676
 20
7.39464
 11
36.0676
 21
7.9613
  0
LINE
  8
0
 10
36.0676
 20
7.9613
 11
33.9135
 21
7.9613
  0
LINE
  8
0
 10
33.9135
 20
7.9613
 11
33.9135
 21
7.40054
  0
LINE
  8
0
 10
33.9135
 20
7.40054
 11
35.3301
 21
7.40054
  0
LINE
  8
0
 10
35.3301
 20
7.40054
 11
35.3301
 21
7.38287
  0
LINE
  8
0
 10
35.3301
 20
7.38287
 11
34.1184
 21
5.03975
  0
LINE
  8
0
 10
34.1184
 20
5.03975
 11
34.8499
 21
5.03975
  0
LINE
  8
0
 10
34.8499
 20
5.03975
 11
36.0676
 21
7.39464
  0
LINE
  8
0
 10
12.9356
 20
6.29855
 11
12.9353
 21
6.35756
  0
LINE
  8
0
 10
12.9353
 20
6.35756
 11
12.9344
 21
6.42477
  0
LINE
  8
0
 10
12.9344
 20
6.42477
 11
12.9328
 21
6.5002
  0
LINE
  8
0
 10
12.9328
 20
6.5002
 11
12.9306
 21
6.58383
  0
LINE
  8
0
 10
12.9306
 20
6.58383
 11
12.9253
 21
6.76645
  0
LINE
  8
0
 10
12.9253
 20
6.76645
 11
12.9195
 21
6.96326
  0
LINE
  8
0
 10
12.9195
 20
6.96326
 11
12.9167
 21
7.06448
  0
LINE
  8
0
 10
12.9167
 20
7.06448
 11
12.914
 21
7.16425
  0
LINE
  8
0
 10
12.914
 20
7.16425
 11
12.9116
 21
7.26253
  0
LINE
  8
0
 10
12.9116
 20
7.26253
 11
12.9095
 21
7.35933
  0
LINE
  8
0
 10
12.9095
 20
7.35933
 11
12.9349
 21
7.25659
  0
LINE
  8
0
 10
12.9349
 20
7.25659
 11
12.961
 21
7.15421
  0
LINE
  8
0
 10
12.961
 20
7.15421
 11
12.9877
 21
7.05219
  0
LINE
  8
0
 10
12.9877
 20
7.05219
 11
13.015
 21
6.95053
  0
LINE
  8
0
 10
13.015
 20
6.95053
 11
13.0423
 21
6.85109
  0
LINE
  8
0
 10
13.0423
 20
6.85109
 11
13.069
 21
6.75568
  0
LINE
  8
0
 10
13.069
 20
6.75568
 11
13.0951
 21
6.66431
  0
LINE
  8
0
 10
13.0951
 20
6.66431
 11
13.1205
 21
6.57698
  0
LINE
  8
0
 10
13.1205
 20
6.57698
 11
13.1446
 21
6.49561
  0
LINE
  8
0
 10
13.1446
 20
6.49561
 11
13.1667
 21
6.42209
  0
LINE
  8
0
 10
13.1667
 20
6.42209
 11
13.1868
 21
6.3564
  0
LINE
  8
0
 10
13.1868
 20
6.3564
 11
13.2049
 21
6.29855
  0
LINE
  8
0
 10
13.2049
 20
6.29855
 11
13.6369
 21
5.03975
  0
LINE
  8
0
 10
13.6369
 20
5.03975
 11
14.2297
 21
5.03975
  0
LINE
  8
0
 10
14.2297
 20
5.03975
 11
14.6557
 21
6.29855
  0
LINE
  8
0
 10
14.6557
 20
6.29855
 11
14.6747
 21
6.35855
  0
LINE
  8
0
 10
14.6747
 20
6.35855
 11
14.6954
 21
6.42674
  0
LINE
  8
0
 10
14.6954
 20
6.42674
 11
14.7178
 21
6.50316
  0
LINE
  8
0
 10
14.7178
 20
6.50316
 11
14.7421
 21
6.58777
  0
LINE
  8
0
 10
14.7421
 20
6.58777
 11
14.7675
 21
6.67853
  0
LINE
  8
0
 10
14.7675
 20
6.67853
 11
14.7936
 21
6.77332
  0
LINE
  8
0
 10
14.7936
 20
6.77332
 11
14.8203
 21
6.87215
  0
LINE
  8
0
 10
14.8203
 20
6.87215
 11
14.8476
 21
6.97502
  0
LINE
  8
0
 10
14.8476
 20
6.97502
 11
14.8749
 21
7.07982
  0
LINE
  8
0
 10
14.8749
 20
7.07982
 11
14.9016
 21
7.18434
  0
LINE
  8
0
 10
14.9016
 20
7.18434
 11
14.9277
 21
7.28864
  0
LINE
  8
0
 10
14.9277
 20
7.28864
 11
14.9531
 21
7.39267
  0
LINE
  8
0
 10
14.9531
 20
7.39267
 11
14.9509
 21
7.29366
  0
LINE
  8
0
 10
14.9509
 20
7.29366
 11
14.9485
 21
7.19269
  0
LINE
  8
0
 10
14.9485
 20
7.19269
 11
14.9459
 21
7.08974
  0
LINE
  8
0
 10
14.9459
 20
7.08974
 11
14.943
 21
6.98483
  0
LINE
  8
0
 10
14.943
 20
6.98483
 11
14.9373
 21
6.78067
  0
LINE
  8
0
 10
14.9373
 20
6.78067
 11
14.932
 21
6.59171
  0
LINE
  8
0
 10
14.932
 20
6.59171
 11
14.9298
 21
6.50537
  0
LINE
  8
0
 10
14.9298
 20
6.50537
 11
14.9282
 21
6.42773
  0
LINE
  8
0
 10
14.9282
 20
6.42773
 11
14.9273
 21
6.3588
  0
LINE
  8
0
 10
14.9273
 20
6.3588
 11
14.9269
 21
6.29855
  0
LINE
  8
0
 10
14.9269
 20
6.29855
 11
14.9269
 21
5.03975
  0
LINE
  8
0
 10
14.9269
 20
5.03975
 11
15.6403
 21
5.03975
  0
LINE
  8
0
 10
15.6403
 20
5.03975
 11
15.6403
 21
7.9613
  0
LINE
  8
0
 10
15.6403
 20
7.9613
 11
14.5331
 21
7.9613
  0
LINE
  8
0
 10
14.5331
 20
7.9613
 11
14.1574
 21
6.82405
  0
LINE
  8
0
 10
14.1574
 20
6.82405
 11
14.1417
 21
6.77019
  0
LINE
  8
0
 10
14.1417
 20
6.77019
 11
14.125
 21
6.70862
  0
LINE
  8
0
 10
14.125
 20
6.70862
 11
14.1071
 21
6.63931
  0
LINE
  8
0
 10
14.1071
 20
6.63931
 11
14.088
 21
6.5623
  0
LINE
  8
0
 10
14.088
 20
6.5623
 11
14.0685
 21
6.47993
  0
LINE
  8
0
 10
14.0685
 20
6.47993
 11
14.0488
 21
6.39464
  0
LINE
  8
0
 10
14.0488
 20
6.39464
 11
14.0293
 21
6.30641
  0
LINE
  8
0
 10
14.0293
 20
6.30641
 11
14.0097
 21
6.21523
  0
LINE
  8
0
 10
14.0097
 20
6.21523
 11
13.9904
 21
6.12326
  0
LINE
  8
0
 10
13.9904
 20
6.12326
 11
13.9717
 21
6.03264
  0
LINE
  8
0
 10
13.9717
 20
6.03264
 11
13.9537
 21
5.94336
  0
LINE
  8
0
 10
13.9537
 20
5.94336
 11
13.9363
 21
5.85544
  0
LINE
  8
0
 10
13.9363
 20
5.85544
 11
13.918
 21
5.94342
  0
LINE
  8
0
 10
13.918
 20
5.94342
 11
13.8991
 21
6.03288
  0
LINE
  8
0
 10
13.8991
 20
6.03288
 11
13.8798
 21
6.12381
  0
LINE
  8
0
 10
13.8798
 20
6.12381
 11
13.8599
 21
6.21622
  0
LINE
  8
0
 10
13.8599
 20
6.21622
 11
13.8399
 21
6.30775
  0
LINE
  8
0
 10
13.8399
 20
6.30775
 11
13.82
 21
6.39612
  0
LINE
  8
0
 10
13.82
 20
6.39612
 11
13.8002
 21
6.48129
  0
LINE
  8
0
 10
13.8002
 20
6.48129
 11
13.7806
 21
6.56328
  0
LINE
  8
0
 10
13.7806
 20
6.56328
 11
13.7616
 21
6.63988
  0
LINE
  8
0
 10
13.7616
 20
6.63988
 11
13.7437
 21
6.70886
  0
LINE
  8
0
 10
13.7437
 20
6.70886
 11
13.7269
 21
6.77025
  0
LINE
  8
0
 10
13.7269
 20
6.77025
 11
13.7113
 21
6.82405
  0
LINE
  8
0
 10
13.7113
 20
6.82405
 11
13.3295
 21
7.9613
  0
LINE
  8
0
 10
13.3295
 20
7.9613
 11
12.2243
 21
7.9613
  0
LINE
  8
0
 10
12.2243
 20
7.9613
 11
12.2243
 21
5.03975
  0
LINE
  8
0
 10
12.2243
 20
5.03975
 11
12.9356
 21
5.03975
  0
LINE
  8
0
 10
12.9356
 20
5.03975
 11
12.9356
 21
6.29855
  0
LINE
  8
0
 10
9.14442
 20
6.29855
 11
9.1441
 21
6.35756
  0
LINE
  8
0
 10
9.1441
 20
6.35756
 11
9.14316
 21
6.42477
  0
LINE
  8
0
 10
9.14316
 20
6.42477
 11
9.14159
 21
6.5002
  0
LINE
  8
0
 10
9.14159
 20
6.5002
 11
9.13939
 21
6.58383
  0
LINE
  8
0
 10
9.13939
 20
6.58383
 11
9.13129
 21
6.86307
  0
LINE
  8
0
 10
9.13129
 20
6.86307
 11
9.12833
 21
6.96326
  0
LINE
  8
0
 10
9.12833
 20
6.96326
 11
9.12544
 21
7.06448
  0
LINE
  8
0
 10
9.12544
 20
7.06448
 11
9.12282
 21
7.16425
  0
LINE
  8
0
 10
9.12282
 20
7.16425
 11
9.12042
 21
7.26253
  0
LINE
  8
0
 10
9.12042
 20
7.26253
 11
9.11829
 21
7.35933
  0
LINE
  8
0
 10
9.11829
 20
7.35933
 11
9.14372
 21
7.25659
  0
LINE
  8
0
 10
9.14372
 20
7.25659
 11
9.16978
 21
7.15421
  0
LINE
  8
0
 10
9.16978
 20
7.15421
 11
9.19649
 21
7.05219
  0
LINE
  8
0
 10
9.19649
 20
7.05219
 11
9.2238
 21
6.95053
  0
LINE
  8
0
 10
9.2238
 20
6.95053
 11
9.25111
 21
6.85109
  0
LINE
  8
0
 10
9.25111
 20
6.85109
 11
9.2778
 21
6.75568
  0
LINE
  8
0
 10
9.2778
 20
6.75568
 11
9.30385
 21
6.66431
  0
LINE
  8
0
 10
9.30385
 20
6.66431
 11
9.32928
 21
6.57698
  0
LINE
  8
0
 10
9.32928
 20
6.57698
 11
9.35339
 21
6.49561
  0
LINE
  8
0
 10
9.35339
 20
6.49561
 11
9.3755
 21
6.42209
  0
LINE
  8
0
 10
9.3755
 20
6.42209
 11
9.3956
 21
6.3564
  0
LINE
  8
0
 10
9.3956
 20
6.3564
 11
9.41367
 21
6.29855
  0
LINE
  8
0
 10
9.41367
 20
6.29855
 11
9.8457
 21
5.03975
  0
LINE
  8
0
 10
9.8457
 20
5.03975
 11
10.4385
 21
5.03975
  0
LINE
  8
0
 10
10.4385
 20
5.03975
 11
10.8645
 21
6.29855
  0
LINE
  8
0
 10
10.8645
 20
6.29855
 11
10.8834
 21
6.35855
  0
LINE
  8
0
 10
10.8834
 20
6.35855
 11
10.9042
 21
6.42674
  0
LINE
  8
0
 10
10.9042
 20
6.42674
 11
10.9267
 21
6.50316
  0
LINE
  8
0
 10
10.9267
 20
6.50316
 11
10.9509
 21
6.58777
  0
LINE
  8
0
 10
10.9509
 20
6.58777
 11
10.9763
 21
6.67853
  0
LINE
  8
0
 10
10.9763
 20
6.67853
 11
11.0024
 21
6.77332
  0
LINE
  8
0
 10
11.0024
 20
6.77332
 11
11.0291
 21
6.87215
  0
LINE
  8
0
 10
11.0291
 20
6.87215
 11
11.0564
 21
6.97502
  0
LINE
  8
0
 10
11.0564
 20
6.97502
 11
11.0837
 21
7.07982
  0
LINE
  8
0
 10
11.0837
 20
7.07982
 11
11.1104
 21
7.18434
  0
LINE
  8
0
 10
11.1104
 20
7.18434
 11
11.1364
 21
7.28864
  0
LINE
  8
0
 10
11.1364
 20
7.28864
 11
11.1619
 21
7.39267
  0
LINE
  8
0
 10
11.1619
 20
7.39267
 11
11.1597
 21
7.29366
  0
LINE
  8
0
 10
11.1597
 20
7.29366
 11
11.1573
 21
7.19269
  0
LINE
  8
0
 10
11.1573
 20
7.19269
 11
11.1547
 21
7.08974
  0
LINE
  8
0
 10
11.1547
 20
7.08974
 11
11.1518
 21
6.98483
  0
LINE
  8
0
 10
11.1518
 20
6.98483
 11
11.1461
 21
6.78067
  0
LINE
  8
0
 10
11.1461
 20
6.78067
 11
11.1408
 21
6.59171
  0
LINE
  8
0
 10
11.1408
 20
6.59171
 11
11.1386
 21
6.50537
  0
LINE
  8
0
 10
11.1386
 20
6.50537
 11
11.137
 21
6.42773
  0
LINE
  8
0
 10
11.137
 20
6.42773
 11
11.1361
 21
6.3588
  0
LINE
  8
0
 10
11.1361
 20
6.3588
 11
11.1357
 21
6.29855
  0
LINE
  8
0
 10
11.1357
 20
6.29855
 11
11.1357
 21
5.03975
  0
LINE
  8
0
 10
11.1357
 20
5.03975
 11
11.8491
 21
5.03975
  0
LINE
  8
0
 10
11.8491
 20
5.03975
 11
11.8491
 21
7.9613
  0
LINE
  8
0
 10
11.8491
 20
7.9613
 11
10.7419
 21
7.9613
  0
LINE
  8
0
 10
10.7419
 20
7.9613
 11
10.3662
 21
6.82405
  0
LINE
  8
0
 10
10.3662
 20
6.82405
 11
10.3505
 21
6.77019
  0
LINE
  8
0
 10
10.3505
 20
6.77019
 11
10.3337
 21
6.70862
  0
LINE
  8
0
 10
10.3337
 20
6.70862
 11
10.3158
 21
6.63931
  0
LINE
  8
0
 10
10.3158
 20
6.63931
 11
10.2968
 21
6.5623
  0
LINE
  8
0
 10
10.2968
 20
6.5623
 11
10.2772
 21
6.47993
  0
LINE
  8
0
 10
10.2772
 20
6.47993
 11
10.2576
 21
6.39464
  0
LINE
  8
0
 10
10.2576
 20
6.39464
 11
10.2381
 21
6.30641
  0
LINE
  8
0
 10
10.2381
 20
6.30641
 11
10.2185
 21
6.21523
  0
LINE
  8
0
 10
10.2185
 20
6.21523
 11
10.1992
 21
6.12326
  0
LINE
  8
0
 10
10.1992
 20
6.12326
 11
10.1805
 21
6.03264
  0
LINE
  8
0
 10
10.1805
 20
6.03264
 11
10.1625
 21
5.94336
  0
LINE
  8
0
 10
10.1625
 20
5.94336
 11
10.1451
 21
5.85544
  0
LINE
  8
0
 10
10.1451
 20
5.85544
 11
10.1268
 21
5.94342
  0
LINE
  8
0
 10
10.1268
 20
5.94342
 11
10.1079
 21
6.03288
  0
LINE
  8
0
 10
10.1079
 20
6.03288
 11
10.0886
 21
6.12381
  0
LINE
  8
0
 10
10.0886
 20
6.12381
 11
10.0687
 21
6.21622
  0
LINE
  8
0
 10
10.0687
 20
6.21622
 11
10.0487
 21
6.30775
  0
LINE
  8
0
 10
10.0487
 20
6.30775
 11
10.0288
 21
6.39612
  0
LINE
  8
0
 10
10.0288
 20
6.39612
 11
10.009
 21
6.48129
  0
LINE
  8
0
 10
10.009
 20
6.48129
 11
9.98938
 21
6.56328
  0
LINE
  8
0
 10
9.98938
 20
6.56328
 11
9.97037
 21
6.63988
  0
LINE
  8
0
 10
9.97037
 20
6.63988
 11
9.95247
 21
6.70886
  0
LINE
  8
0
 10
9.95247
 20
6.70886
 11
9.9357
 21
6.77025
  0
LINE
  8
0
 10
9.9357
 20
6.77025
 11
9.92004
 21
6.82405
  0
LINE
  8
0
 10
9.92004
 20
6.82405
 11
9.53827
 21
7.9613
  0
LINE
  8
0
 10
9.53827
 20
7.9613
 11
8.43309
 21
7.9613
  0
LINE
  8
0
 10
8.43309
 20
7.9613
 11
8.43309
 21
5.03975
  0
LINE
  8
0
 10
8.43309
 20
5.03975
 11
9.14442
 21
5.03975
  0
LINE
  8
0
 10
9.14442
 20
5.03975
 11
9.14442
 21
6.29855
  0
LINE
  8
0
 10
6.96176
 20
1.24901
 11
7.00339
 21
1.29529
  0
LINE
  8
0
 10
7.00339
 20
1.29529
 11
7.04254
 21
1.34233
  0
LINE
  8
0
 10
7.04254
 20
1.34233
 11
7.07925
 21
1.39024
  0
LINE
  8
0
 10
7.07925
 20
1.39024
 11
7.11354
 21
1.43918
  0
LINE
  8
0
 10
7.11354
 20
1.43918
 11
7.14543
 21
1.48924
  0
LINE
  8
0
 10
7.14543
 20
1.48924
 11
7.17496
 21
1.54056
  0
LINE
  8
0
 10
7.17496
 20
1.54056
 11
7.20215
 21
1.59328
  0
LINE
  8
0
 10
7.20215
 20
1.59328
 11
7.22701
 21
1.64749
  0
LINE
  8
0
 10
7.22701
 20
1.64749
 11
7.24957
 21
1.70335
  0
LINE
  8
0
 10
7.24957
 20
1.70335
 11
7.26987
 21
1.76099
  0
LINE
  8
0
 10
7.26987
 20
1.76099
 11
7.28792
 21
1.8205
  0
LINE
  8
0
 10
7.28792
 20
1.8205
 11
7.30376
 21
1.88203
  0
LINE
  8
0
 10
7.30376
 20
1.88203
 11
7.3174
 21
1.94571
  0
LINE
  8
0
 10
7.3174
 20
1.94571
 11
7.32887
 21
2.01166
  0
LINE
  8
0
 10
7.32887
 20
2.01166
 11
7.33821
 21
2.07999
  0
LINE
  8
0
 10
7.33821
 20
2.07999
 11
7.34543
 21
2.15085
  0
LINE
  8
0
 10
7.34543
 20
2.15085
 11
7.35054
 21
2.22437
  0
LINE
  8
0
 10
7.35054
 20
2.22437
 11
7.35361
 21
2.30064
  0
LINE
  8
0
 10
7.35361
 20
2.30064
 11
7.35461
 21
2.37982
  0
LINE
  8
0
 10
7.35461
 20
2.37982
 11
7.35461
 21
7.5899
  0
LINE
  8
0
 10
7.35461
 20
7.5899
 11
5.23697
 21
6.44705
  0
LINE
  8
0
 10
5.23697
 20
6.44705
 11
5.23697
 21
2.31259
  0
LINE
  8
0
 10
5.23697
 20
2.31259
 11
6.91763
 21
1.20335
  0
LINE
  8
0
 10
6.91763
 20
1.20335
 11
6.96176
 21
1.24901
  0
LINE
  8
0
 10
28.1271
 20
6.76328
 11
26.7466
 21
6.76328
  0
LINE
  8
0
 10
26.7466
 20
6.76328
 11
26.7466
 21
6.23581
  0
LINE
  8
0
 10
26.7466
 20
6.23581
 11
28.1271
 21
6.23581
  0
LINE
  8
0
 10
28.1271
 20
6.23581
 11
28.1271
 21
6.76328
  0
LINE
  8
0
 10
17.4422
 20
6.76328
 11
16.0617
 21
6.76328
  0
LINE
  8
0
 10
16.0617
 20
6.76328
 11
16.0617
 21
6.23581
  0
LINE
  8
0
 10
16.0617
 20
6.23581
 11
17.4422
 21
6.23581
  0
LINE
  8
0
 10
17.4422
 20
6.23581
 11
17.4422
 21
6.76328
  0
LINE
  8
0
 10
30.032
 20
1.00986
 11
30.0807
 21
1.01186
  0
LINE
  8
0
 10
30.0807
 20
1.01186
 11
30.131
 21
1.01517
  0
LINE
  8
0
 10
30.131
 20
1.01517
 11
30.1826
 21
1.01982
  0
LINE
  8
0
 10
30.1826
 20
1.01982
 11
30.2354
 21
1.02635
  0
LINE
  8
0
 10
30.2354
 20
1.02635
 11
30.2892
 21
1.03532
  0
LINE
  8
0
 10
30.2892
 20
1.03532
 11
30.3439
 21
1.04672
  0
LINE
  8
0
 10
30.3439
 20
1.04672
 11
30.3995
 21
1.06056
  0
LINE
  8
0
 10
30.3995
 20
1.06056
 11
30.3139
 21
1.51039
  0
LINE
  8
0
 10
30.3139
 20
1.51039
 11
30.2984
 21
1.50758
  0
LINE
  8
0
 10
30.2984
 20
1.50758
 11
30.2784
 21
1.50443
  0
LINE
  8
0
 10
30.2784
 20
1.50443
 11
30.2541
 21
1.50093
  0
LINE
  8
0
 10
30.2541
 20
1.50093
 11
30.2254
 21
1.4971
  0
LINE
  8
0
 10
30.2254
 20
1.4971
 11
30.1962
 21
1.49362
  0
LINE
  8
0
 10
30.1962
 20
1.49362
 11
30.1704
 21
1.49113
  0
LINE
  8
0
 10
30.1704
 20
1.49113
 11
30.1481
 21
1.48964
  0
LINE
  8
0
 10
30.1481
 20
1.48964
 11
30.1293
 21
1.48914
  0
LINE
  8
0
 10
30.1293
 20
1.48914
 11
30.0552
 21
1.49876
  0
LINE
  8
0
 10
30.0552
 20
1.49876
 11
30.0022
 21
1.52765
  0
LINE
  8
0
 10
30.0022
 20
1.52765
 11
29.9705
 21
1.57581
  0
LINE
  8
0
 10
29.9705
 20
1.57581
 11
29.9599
 21
1.64322
  0
LINE
  8
0
 10
29.9599
 20
1.64322
 11
29.9599
 21
2.55885
  0
LINE
  8
0
 10
29.9599
 20
2.55885
 11
30.3425
 21
2.55885
  0
LINE
  8
0
 10
30.3425
 20
2.55885
 11
30.3425
 21
3.01755
  0
LINE
  8
0
 10
30.3425
 20
3.01755
 11
29.9599
 21
3.01755
  0
LINE
  8
0
 10
29.9599
 20
3.01755
 11
29.9599
 21
3.48866
  0
LINE
  8
0
 10
29.9599
 20
3.48866
 11
29.2957
 21
3.48866
  0
LINE
  8
0
 10
29.2957
 20
3.48866
 11
29.2957
 21
3.01755
  0
LINE
  8
0
 10
29.2957
 20
3.01755
 11
28.6308
 21
3.01755
  0
LINE
  8
0
 10
28.6308
 20
3.01755
 11
28.6308
 21
3.12914
  0
LINE
  8
0
 10
28.6308
 20
3.12914
 11
28.6337
 21
3.17026
  0
LINE
  8
0
 10
28.6337
 20
3.17026
 11
28.6424
 21
3.20683
  0
LINE
  8
0
 10
28.6424
 20
3.20683
 11
28.657
 21
3.23888
  0
LINE
  8
0
 10
28.657
 20
3.23888
 11
28.6774
 21
3.26637
  0
LINE
  8
0
 10
28.6774
 20
3.26637
 11
28.7052
 21
3.28845
  0
LINE
  8
0
 10
28.7052
 20
3.28845
 11
28.7419
 21
3.30423
  0
LINE
  8
0
 10
28.7419
 20
3.30423
 11
28.7875
 21
3.31369
  0
LINE
  8
0
 10
28.7875
 20
3.31369
 11
28.8421
 21
3.31685
  0
LINE
  8
0
 10
28.8421
 20
3.31685
 11
28.8678
 21
3.31636
  0
LINE
  8
0
 10
28.8678
 20
3.31636
 11
28.8934
 21
3.31487
  0
LINE
  8
0
 10
28.8934
 20
3.31487
 11
28.9191
 21
3.31236
  0
LINE
  8
0
 10
28.9191
 20
3.31236
 11
28.9448
 21
3.30888
  0
LINE
  8
0
 10
28.9448
 20
3.30888
 11
28.9697
 21
3.30484
  0
LINE
  8
0
 10
28.9697
 20
3.30484
 11
28.9929
 21
3.30069
  0
LINE
  8
0
 10
28.9929
 20
3.30069
 11
29.0144
 21
3.29643
  0
LINE
  8
0
 10
29.0144
 20
3.29643
 11
29.0343
 21
3.29207
  0
LINE
  8
0
 10
29.0343
 20
3.29207
 11
29.1409
 21
3.74367
  0
LINE
  8
0
 10
29.1409
 20
3.74367
 11
29.1073
 21
3.75192
  0
LINE
  8
0
 10
29.1073
 20
3.75192
 11
29.0657
 21
3.76073
  0
LINE
  8
0
 10
29.0657
 20
3.76073
 11
29.016
 21
3.77008
  0
LINE
  8
0
 10
29.016
 20
3.77008
 11
28.9582
 21
3.77997
  0
LINE
  8
0
 10
28.9582
 20
3.77997
 11
28.8952
 21
3.78888
  0
LINE
  8
0
 10
28.8952
 20
3.78888
 11
28.8302
 21
3.79526
  0
LINE
  8
0
 10
28.8302
 20
3.79526
 11
28.763
 21
3.79907
  0
LINE
  8
0
 10
28.763
 20
3.79907
 11
28.6936
 21
3.80034
  0
LINE
  8
0
 10
28.6936
 20
3.80034
 11
28.5411
 21
3.78983
  0
LINE
  8
0
 10
28.5411
 20
3.78983
 11
28.4034
 21
3.75829
  0
LINE
  8
0
 10
28.4034
 20
3.75829
 11
28.2803
 21
3.70569
  0
LINE
  8
0
 10
28.2803
 20
3.70569
 11
28.1721
 21
3.63208
  0
LINE
  8
0
 10
28.1721
 20
3.63208
 11
28.0838
 21
3.53723
  0
LINE
  8
0
 10
28.0838
 20
3.53723
 11
28.0208
 21
3.4209
  0
LINE
  8
0
 10
28.0208
 20
3.4209
 11
27.983
 21
3.2831
  0
LINE
  8
0
 10
27.983
 20
3.2831
 11
27.9704
 21
3.12381
  0
LINE
  8
0
 10
27.9704
 20
3.12381
 11
27.9704
 21
3.01755
  0
LINE
  8
0
 10
27.9704
 20
3.01755
 11
27.6125
 21
3.01755
  0
LINE
  8
0
 10
27.6125
 20
3.01755
 11
27.6125
 21
2.55885
  0
LINE
  8
0
 10
27.6125
 20
2.55885
 11
27.9704
 21
2.55885
  0
LINE
  8
0
 10
27.9704
 20
2.55885
 11
27.9704
 21
1.03754
  0
LINE
  8
0
 10
27.9704
 20
1.03754
 11
28.6308
 21
1.03754
  0
LINE
  8
0
 10
28.6308
 20
1.03754
 11
28.6308
 21
2.55885
  0
LINE
  8
0
 10
28.6308
 20
2.55885
 11
29.2957
 21
2.55885
  0
LINE
  8
0
 10
29.2957
 20
2.55885
 11
29.2957
 21
1.58832
  0
LINE
  8
0
 10
29.2957
 20
1.58832
 11
29.3066
 21
1.45511
  0
LINE
  8
0
 10
29.3066
 20
1.45511
 11
29.3394
 21
1.33882
  0
LINE
  8
0
 10
29.3394
 20
1.33882
 11
29.3941
 21
1.23947
  0
LINE
  8
0
 10
29.3941
 20
1.23947
 11
29.4707
 21
1.15706
  0
LINE
  8
0
 10
29.4707
 20
1.15706
 11
29.5685
 21
1.09236
  0
LINE
  8
0
 10
29.5685
 20
1.09236
 11
29.6868
 21
1.04616
  0
LINE
  8
0
 10
29.6868
 20
1.04616
 11
29.8255
 21
1.01843
  0
LINE
  8
0
 10
29.8255
 20
1.01843
 11
29.9846
 21
1.0092
  0
LINE
  8
0
 10
29.9846
 20
1.0092
 11
30.032
 21
1.00986
  0
LINE
  8
0
 10
12.1562
 20
1.02443
 11
12.3916
 21
1.09134
  0
LINE
  8
0
 10
12.3916
 20
1.09134
 11
12.5954
 21
1.20285
  0
LINE
  8
0
 10
12.5954
 20
1.20285
 11
12.7677
 21
1.35898
  0
LINE
  8
0
 10
12.7677
 20
1.35898
 11
12.9047
 21
1.55507
  0
LINE
  8
0
 10
12.9047
 20
1.55507
 11
13.0025
 21
1.78647
  0
LINE
  8
0
 10
13.0025
 20
1.78647
 11
13.0612
 21
2.05318
  0
LINE
  8
0
 10
13.0612
 20
2.05318
 11
13.0808
 21
2.35519
  0
LINE
  8
0
 10
13.0808
 20
2.35519
 11
13.0719
 21
2.56091
  0
LINE
  8
0
 10
13.0719
 20
2.56091
 11
13.0454
 21
2.75124
  0
LINE
  8
0
 10
13.0454
 20
2.75124
 11
13.0011
 21
2.92618
  0
LINE
  8
0
 10
13.0011
 20
2.92618
 11
12.939
 21
3.08572
  0
LINE
  8
0
 10
12.939
 20
3.08572
 11
12.8603
 21
3.22868
  0
LINE
  8
0
 10
12.8603
 20
3.22868
 11
12.7661
 21
3.35382
  0
LINE
  8
0
 10
12.7661
 20
3.35382
 11
12.6562
 21
3.46114
  0
LINE
  8
0
 10
12.6562
 20
3.46114
 11
12.5307
 21
3.55063
  0
LINE
  8
0
 10
12.5307
 20
3.55063
 11
12.3907
 21
3.62115
  0
LINE
  8
0
 10
12.3907
 20
3.62115
 11
12.2372
 21
3.67152
  0
LINE
  8
0
 10
12.2372
 20
3.67152
 11
12.0701
 21
3.70174
  0
LINE
  8
0
 10
12.0701
 20
3.70174
 11
11.8894
 21
3.71181
  0
LINE
  8
0
 10
11.8894
 20
3.71181
 11
11.624
 21
3.68945
  0
LINE
  8
0
 10
11.624
 20
3.68945
 11
11.3895
 21
3.62238
  0
LINE
  8
0
 10
11.3895
 20
3.62238
 11
11.1858
 21
3.51056
  0
LINE
  8
0
 10
11.1858
 20
3.51056
 11
11.0129
 21
3.35403
  0
LINE
  8
0
 10
11.0129
 20
3.35403
 11
10.8751
 21
3.15746
  0
LINE
  8
0
 10
10.8751
 20
3.15746
 11
10.7767
 21
2.92545
  0
LINE
  8
0
 10
10.7767
 20
2.92545
 11
10.7176
 21
2.65804
  0
LINE
  8
0
 10
10.7176
 20
2.65804
 11
10.6979
 21
2.35519
  0
LINE
  8
0
 10
10.6979
 20
2.35519
 11
10.7176
 21
2.05244
  0
LINE
  8
0
 10
10.7176
 20
2.05244
 11
10.7767
 21
1.78535
  0
LINE
  8
0
 10
10.7767
 20
1.78535
 11
10.8751
 21
1.55389
  0
LINE
  8
0
 10
10.8751
 20
1.55389
 11
11.0129
 21
1.35809
  0
LINE
  8
0
 10
11.0129
 20
1.35809
 11
11.1858
 21
1.20235
  0
LINE
  8
0
 10
11.1858
 20
1.20235
 11
11.3895
 21
1.09111
  0
LINE
  8
0
 10
11.3895
 20
1.09111
 11
11.624
 21
1.02437
  0
LINE
  8
0
 10
11.624
 20
1.02437
 11
11.8894
 21
1.00212
  0
LINE
  8
0
 10
11.8894
 20
1.00212
 11
12.1562
 21
1.02443
  0
LINE
  8
0
 10
11.7756
 20
1.52756
 11
11.676
 21
1.56841
  0
LINE
  8
0
 10
11.676
 20
1.56841
 11
11.5905
 21
1.63647
  0
LINE
  8
0
 10
11.5905
 20
1.63647
 11
11.5192
 21
1.73177
  0
LINE
  8
0
 10
11.5192
 20
1.73177
 11
11.463
 21
1.85243
  0
LINE
  8
0
 10
11.463
 20
1.85243
 11
11.4228
 21
1.99655
  0
LINE
  8
0
 10
11.4228
 20
1.99655
 11
11.3987
 21
2.16414
  0
LINE
  8
0
 10
11.3987
 20
2.16414
 11
11.3907
 21
2.35519
  0
LINE
  8
0
 10
11.3907
 20
2.35519
 11
11.3988
 21
2.54718
  0
LINE
  8
0
 10
11.3988
 20
2.54718
 11
11.4231
 21
2.71582
  0
LINE
  8
0
 10
11.4231
 20
2.71582
 11
11.4635
 21
2.8611
  0
LINE
  8
0
 10
11.4635
 20
2.8611
 11
11.5201
 21
2.98302
  0
LINE
  8
0
 10
11.5201
 20
2.98302
 11
11.5917
 21
3.07948
  0
LINE
  8
0
 10
11.5917
 20
3.07948
 11
11.6771
 21
3.14839
  0
LINE
  8
0
 10
11.6771
 20
3.14839
 11
11.7764
 21
3.18973
  0
LINE
  8
0
 10
11.7764
 20
3.18973
 11
11.8894
 21
3.20351
  0
LINE
  8
0
 10
11.8894
 20
3.20351
 11
12.0032
 21
3.18973
  0
LINE
  8
0
 10
12.0032
 20
3.18973
 11
12.103
 21
3.14839
  0
LINE
  8
0
 10
12.103
 20
3.14839
 11
12.1888
 21
3.07948
  0
LINE
  8
0
 10
12.1888
 20
3.07948
 11
12.2605
 21
2.98302
  0
LINE
  8
0
 10
12.2605
 20
2.98302
 11
12.3171
 21
2.8611
  0
LINE
  8
0
 10
12.3171
 20
2.8611
 11
12.3576
 21
2.71582
  0
LINE
  8
0
 10
12.3576
 20
2.71582
 11
12.3818
 21
2.54718
  0
LINE
  8
0
 10
12.3818
 20
2.54718
 11
12.3899
 21
2.35519
  0
LINE
  8
0
 10
12.3899
 20
2.35519
 11
12.3818
 21
2.16414
  0
LINE
  8
0
 10
12.3818
 20
2.16414
 11
12.3576
 21
1.99655
  0
LINE
  8
0
 10
12.3576
 20
1.99655
 11
12.3171
 21
1.85243
  0
LINE
  8
0
 10
12.3171
 20
1.85243
 11
12.2605
 21
1.73177
  0
LINE
  8
0
 10
12.2605
 20
1.73177
 11
12.1888
 21
1.63647
  0
LINE
  8
0
 10
12.1888
 20
1.63647
 11
12.103
 21
1.56841
  0
LINE
  8
0
 10
12.103
 20
1.56841
 11
12.0032
 21
1.52756
  0
LINE
  8
0
 10
12.0032
 20
1.52756
 11
11.8894
 21
1.51395
  0
LINE
  8
0
 10
11.8894
 20
1.51395
 11
11.7756
 21
1.52756
  0
LINE
  8
0
 10
18.5704
 20
1.02443
 11
18.8058
 21
1.09134
  0
LINE
  8
0
 10
18.8058
 20
1.09134
 11
19.0096
 21
1.20285
  0
LINE
  8
0
 10
19.0096
 20
1.20285
 11
19.1819
 21
1.35898
  0
LINE
  8
0
 10
19.1819
 20
1.35898
 11
19.3189
 21
1.55507
  0
LINE
  8
0
 10
19.3189
 20
1.55507
 11
19.4167
 21
1.78647
  0
LINE
  8
0
 10
19.4167
 20
1.78647
 11
19.4754
 21
2.05318
  0
LINE
  8
0
 10
19.4754
 20
2.05318
 11
19.495
 21
2.35519
  0
LINE
  8
0
 10
19.495
 20
2.35519
 11
19.4861
 21
2.56091
  0
LINE
  8
0
 10
19.4861
 20
2.56091
 11
19.4596
 21
2.75124
  0
LINE
  8
0
 10
19.4596
 20
2.75124
 11
19.4152
 21
2.92618
  0
LINE
  8
0
 10
19.4152
 20
2.92618
 11
19.3532
 21
3.08572
  0
LINE
  8
0
 10
19.3532
 20
3.08572
 11
19.2745
 21
3.22868
  0
LINE
  8
0
 10
19.2745
 20
3.22868
 11
19.1802
 21
3.35382
  0
LINE
  8
0
 10
19.1802
 20
3.35382
 11
19.0704
 21
3.46114
  0
LINE
  8
0
 10
19.0704
 20
3.46114
 11
18.9449
 21
3.55063
  0
LINE
  8
0
 10
18.9449
 20
3.55063
 11
18.8049
 21
3.62115
  0
LINE
  8
0
 10
18.8049
 20
3.62115
 11
18.6514
 21
3.67152
  0
LINE
  8
0
 10
18.6514
 20
3.67152
 11
18.4843
 21
3.70174
  0
LINE
  8
0
 10
18.4843
 20
3.70174
 11
18.3036
 21
3.71181
  0
LINE
  8
0
 10
18.3036
 20
3.71181
 11
18.0382
 21
3.68945
  0
LINE
  8
0
 10
18.0382
 20
3.68945
 11
17.8037
 21
3.62238
  0
LINE
  8
0
 10
17.8037
 20
3.62238
 11
17.6
 21
3.51056
  0
LINE
  8
0
 10
17.6
 20
3.51056
 11
17.4271
 21
3.35403
  0
LINE
  8
0
 10
17.4271
 20
3.35403
 11
17.2893
 21
3.15746
  0
LINE
  8
0
 10
17.2893
 20
3.15746
 11
17.1909
 21
2.92545
  0
LINE
  8
0
 10
17.1909
 20
2.92545
 11
17.1318
 21
2.65804
  0
LINE
  8
0
 10
17.1318
 20
2.65804
 11
17.1121
 21
2.35519
  0
LINE
  8
0
 10
17.1121
 20
2.35519
 11
17.1318
 21
2.05244
  0
LINE
  8
0
 10
17.1318
 20
2.05244
 11
17.1909
 21
1.78535
  0
LINE
  8
0
 10
17.1909
 20
1.78535
 11
17.2893
 21
1.55389
  0
LINE
  8
0
 10
17.2893
 20
1.55389
 11
17.4271
 21
1.35809
  0
LINE
  8
0
 10
17.4271
 20
1.35809
 11
17.6
 21
1.20235
  0
LINE
  8
0
 10
17.6
 20
1.20235
 11
17.8037
 21
1.09111
  0
LINE
  8
0
 10
17.8037
 20
1.09111
 11
18.0382
 21
1.02437
  0
LINE
  8
0
 10
18.0382
 20
1.02437
 11
18.3036
 21
1.00212
  0
LINE
  8
0
 10
18.3036
 20
1.00212
 11
18.5704
 21
1.02443
  0
LINE
  8
0
 10
18.1898
 20
1.52756
 11
18.0902
 21
1.56841
  0
LINE
  8
0
 10
18.0902
 20
1.56841
 11
18.0047
 21
1.63647
  0
LINE
  8
0
 10
18.0047
 20
1.63647
 11
17.9334
 21
1.73177
  0
LINE
  8
0
 10
17.9334
 20
1.73177
 11
17.8772
 21
1.85243
  0
LINE
  8
0
 10
17.8772
 20
1.85243
 11
17.837
 21
1.99655
  0
LINE
  8
0
 10
17.837
 20
1.99655
 11
17.8129
 21
2.16414
  0
LINE
  8
0
 10
17.8129
 20
2.16414
 11
17.8049
 21
2.35519
  0
LINE
  8
0
 10
17.8049
 20
2.35519
 11
17.813
 21
2.54718
  0
LINE
  8
0
 10
17.813
 20
2.54718
 11
17.8373
 21
2.71582
  0
LINE
  8
0
 10
17.8373
 20
2.71582
 11
17.8777
 21
2.8611
  0
LINE
  8
0
 10
17.8777
 20
2.8611
 11
17.9343
 21
2.98302
  0
LINE
  8
0
 10
17.9343
 20
2.98302
 11
18.0059
 21
3.07948
  0
LINE
  8
0
 10
18.0059
 20
3.07948
 11
18.0913
 21
3.14839
  0
LINE
  8
0
 10
18.0913
 20
3.14839
 11
18.1906
 21
3.18973
  0
LINE
  8
0
 10
18.1906
 20
3.18973
 11
18.3036
 21
3.20351
  0
LINE
  8
0
 10
18.3036
 20
3.20351
 11
18.4174
 21
3.18973
  0
LINE
  8
0
 10
18.4174
 20
3.18973
 11
18.5172
 21
3.14839
  0
LINE
  8
0
 10
18.5172
 20
3.14839
 11
18.603
 21
3.07948
  0
LINE
  8
0
 10
18.603
 20
3.07948
 11
18.6747
 21
2.98302
  0
LINE
  8
0
 10
18.6747
 20
2.98302
 11
18.7313
 21
2.8611
  0
LINE
  8
0
 10
18.7313
 20
2.8611
 11
18.7718
 21
2.71582
  0
LINE
  8
0
 10
18.7718
 20
2.71582
 11
18.796
 21
2.54718
  0
LINE
  8
0
 10
18.796
 20
2.54718
 11
18.8041
 21
2.35519
  0
LINE
  8
0
 10
18.8041
 20
2.35519
 11
18.796
 21
2.16414
  0
LINE
  8
0
 10
18.796
 20
2.16414
 11
18.7718
 21
1.99655
  0
LINE
  8
0
 10
18.7718
 20
1.99655
 11
18.7313
 21
1.85243
  0
LINE
  8
0
 10
18.7313
 20
1.85243
 11
18.6747
 21
1.73177
  0
LINE
  8
0
 10
18.6747
 20
1.73177
 11
18.603
 21
1.63647
  0
LINE
  8
0
 10
18.603
 20
1.63647
 11
18.5172
 21
1.56841
  0
LINE
  8
0
 10
18.5172
 20
1.56841
 11
18.4174
 21
1.52756
  0
LINE
  8
0
 10
18.4174
 20
1.52756
 11
18.3036
 21
1.51395
  0
LINE
  8
0
 10
18.3036
 20
1.51395
 11
18.1898
 21
1.52756
  0
LINE
  8
0
 10
22.4887
 20
1.01588
 11
22.5921
 21
1.03598
  0
LINE
  8
0
 10
22.5921
 20
1.03598
 11
22.6833
 21
1.06947
  0
LINE
  8
0
 10
22.6833
 20
1.06947
 11
22.7623
 21
1.11635
  0
LINE
  8
0
 10
22.7623
 20
1.11635
 11
22.8299
 21
1.17163
  0
LINE
  8
0
 10
22.8299
 20
1.17163
 11
22.8872
 21
1.23036
  0
LINE
  8
0
 10
22.8872
 20
1.23036
 11
22.9341
 21
1.29251
  0
LINE
  8
0
 10
22.9341
 20
1.29251
 11
22.9707
 21
1.35809
  0
LINE
  8
0
 10
22.9707
 20
1.35809
 11
22.9935
 21
1.35809
  0
LINE
  8
0
 10
22.9935
 20
1.35809
 11
22.9935
 21
1.03754
  0
LINE
  8
0
 10
22.9935
 20
1.03754
 11
23.6482
 21
1.03754
  0
LINE
  8
0
 10
23.6482
 20
1.03754
 11
23.6482
 21
3.67638
  0
LINE
  8
0
 10
23.6482
 20
3.67638
 11
22.9859
 21
3.67638
  0
LINE
  8
0
 10
22.9859
 20
3.67638
 11
22.9859
 21
2.67751
  0
LINE
  8
0
 10
22.9859
 20
2.67751
 11
22.9707
 21
2.67751
  0
LINE
  8
0
 10
22.9707
 20
2.67751
 11
22.9484
 21
2.7215
  0
LINE
  8
0
 10
22.9484
 20
2.7215
 11
22.9214
 21
2.76495
  0
LINE
  8
0
 10
22.9214
 20
2.76495
 11
22.8898
 21
2.80783
  0
LINE
  8
0
 10
22.8898
 20
2.80783
 11
22.8536
 21
2.85017
  0
LINE
  8
0
 10
22.8536
 20
2.85017
 11
22.8124
 21
2.89037
  0
LINE
  8
0
 10
22.8124
 20
2.89037
 11
22.7658
 21
2.92679
  0
LINE
  8
0
 10
22.7658
 20
2.92679
 11
22.7139
 21
2.95944
  0
LINE
  8
0
 10
22.7139
 20
2.95944
 11
22.6566
 21
2.98833
  0
LINE
  8
0
 10
22.6566
 20
2.98833
 11
22.5936
 21
3.01196
  0
LINE
  8
0
 10
22.5936
 20
3.01196
 11
22.5244
 21
3.02885
  0
LINE
  8
0
 10
22.5244
 20
3.02885
 11
22.4489
 21
3.03897
  0
LINE
  8
0
 10
22.4489
 20
3.03897
 11
22.3673
 21
3.04236
  0
LINE
  8
0
 10
22.3673
 20
3.04236
 11
22.2578
 21
3.03549
  0
LINE
  8
0
 10
22.2578
 20
3.03549
 11
22.152
 21
3.01489
  0
LINE
  8
0
 10
22.152
 20
3.01489
 11
22.0499
 21
2.98058
  0
LINE
  8
0
 10
22.0499
 20
2.98058
 11
21.9515
 21
2.93254
  0
LINE
  8
0
 10
21.9515
 20
2.93254
 11
21.8595
 21
2.87044
  0
LINE
  8
0
 10
21.8595
 20
2.87044
 11
21.7769
 21
2.79395
  0
LINE
  8
0
 10
21.7769
 20
2.79395
 11
21.7035
 21
2.70306
  0
LINE
  8
0
 10
21.7035
 20
2.70306
 11
21.6393
 21
2.59779
  0
LINE
  8
0
 10
21.6393
 20
2.59779
 11
21.5873
 21
2.47771
  0
LINE
  8
0
 10
21.5873
 20
2.47771
 11
21.5501
 21
2.34235
  0
LINE
  8
0
 10
21.5501
 20
2.34235
 11
21.5278
 21
2.1917
  0
LINE
  8
0
 10
21.5278
 20
2.1917
 11
21.5204
 21
2.02577
  0
LINE
  8
0
 10
21.5204
 20
2.02577
 11
21.5275
 21
1.86444
  0
LINE
  8
0
 10
21.5275
 20
1.86444
 11
21.549
 21
1.71695
  0
LINE
  8
0
 10
21.549
 20
1.71695
 11
21.5846
 21
1.5833
  0
LINE
  8
0
 10
21.5846
 20
1.5833
 11
21.6346
 21
1.46347
  0
LINE
  8
0
 10
21.6346
 20
1.46347
 11
21.6967
 21
1.35753
  0
LINE
  8
0
 10
21.6967
 20
1.35753
 11
21.7688
 21
1.26555
  0
LINE
  8
0
 10
21.7688
 20
1.26555
 11
21.8508
 21
1.18752
  0
LINE
  8
0
 10
21.8508
 20
1.18752
 11
21.9429
 21
1.12343
  0
LINE
  8
0
 10
21.9429
 20
1.12343
 11
22.0426
 21
1.07346
  0
LINE
  8
0
 10
22.0426
 20
1.07346
 11
22.1475
 21
1.03775
  0
LINE
  8
0
 10
22.1475
 20
1.03775
 11
22.2577
 21
1.01633
  0
LINE
  8
0
 10
22.2577
 20
1.01633
 11
22.3731
 21
1.0092
  0
LINE
  8
0
 10
22.3731
 20
1.0092
 11
22.4887
 21
1.01588
  0
LINE
  8
0
 10
22.5091
 20
1.50011
 11
22.4299
 21
1.52766
  0
LINE
  8
0
 10
22.4299
 20
1.52766
 11
22.362
 21
1.57361
  0
LINE
  8
0
 10
22.362
 20
1.57361
 11
22.3055
 21
1.63792
  0
LINE
  8
0
 10
22.3055
 20
1.63792
 11
22.2609
 21
1.71729
  0
LINE
  8
0
 10
22.2609
 20
1.71729
 11
22.2291
 21
1.80838
  0
LINE
  8
0
 10
22.2291
 20
1.80838
 11
22.21
 21
1.91121
  0
LINE
  8
0
 10
22.21
 20
1.91121
 11
22.2037
 21
2.02577
  0
LINE
  8
0
 10
22.2037
 20
2.02577
 11
22.21
 21
2.14029
  0
LINE
  8
0
 10
22.21
 20
2.14029
 11
22.2291
 21
2.24295
  0
LINE
  8
0
 10
22.2291
 20
2.24295
 11
22.2609
 21
2.33377
  0
LINE
  8
0
 10
22.2609
 20
2.33377
 11
22.3055
 21
2.41275
  0
LINE
  8
0
 10
22.3055
 20
2.41275
 11
22.362
 21
2.47667
  0
LINE
  8
0
 10
22.362
 20
2.47667
 11
22.4299
 21
2.52232
  0
LINE
  8
0
 10
22.4299
 20
2.52232
 11
22.5091
 21
2.54973
  0
LINE
  8
0
 10
22.5091
 20
2.54973
 11
22.5995
 21
2.55885
  0
LINE
  8
0
 10
22.5995
 20
2.55885
 11
22.6894
 21
2.5499
  0
LINE
  8
0
 10
22.6894
 20
2.5499
 11
22.7687
 21
2.52299
  0
LINE
  8
0
 10
22.7687
 20
2.52299
 11
22.8374
 21
2.47815
  0
LINE
  8
0
 10
22.8374
 20
2.47815
 11
22.8955
 21
2.41539
  0
LINE
  8
0
 10
22.8955
 20
2.41539
 11
22.9417
 21
2.33723
  0
LINE
  8
0
 10
22.9417
 20
2.33723
 11
22.9747
 21
2.24626
  0
LINE
  8
0
 10
22.9747
 20
2.24626
 11
22.9945
 21
2.14244
  0
LINE
  8
0
 10
22.9945
 20
2.14244
 11
23.0011
 21
2.02577
  0
LINE
  8
0
 10
23.0011
 20
2.02577
 11
22.9944
 21
1.91049
  0
LINE
  8
0
 10
22.9944
 20
1.91049
 11
22.9745
 21
1.80727
  0
LINE
  8
0
 10
22.9745
 20
1.80727
 11
22.9412
 21
1.71611
  0
LINE
  8
0
 10
22.9412
 20
1.71611
 11
22.8945
 21
1.63702
  0
LINE
  8
0
 10
22.8945
 20
1.63702
 11
22.8361
 21
1.5731
  0
LINE
  8
0
 10
22.8361
 20
1.5731
 11
22.7675
 21
1.52744
  0
LINE
  8
0
 10
22.7675
 20
1.52744
 11
22.6886
 21
1.50005
  0
LINE
  8
0
 10
22.6886
 20
1.50005
 11
22.5995
 21
1.49091
  0
LINE
  8
0
 10
22.5995
 20
1.49091
 11
22.5091
 21
1.50011
  0
LINE
  8
0
 10
15.5508
 20
3.67638
 11
14.8561
 21
3.67638
  0
LINE
  8
0
 10
14.8561
 20
3.67638
 11
14.2242
 21
3.27258
  0
LINE
  8
0
 10
14.2242
 20
3.27258
 11
14.2242
 21
2.72357
  0
LINE
  8
0
 10
14.2242
 20
2.72357
 11
14.8618
 21
3.13266
  0
LINE
  8
0
 10
14.8618
 20
3.13266
 11
14.8808
 21
3.13266
  0
LINE
  8
0
 10
14.8808
 20
3.13266
 11
14.8808
 21
1.03754
  0
LINE
  8
0
 10
14.8808
 20
1.03754
 11
15.5508
 21
1.03754
  0
LINE
  8
0
 10
15.5508
 20
1.03754
 11
15.5508
 21
3.67638
  0
LINE
  8
0
 10
32.9216
 20
3.67638
 11
32.227
 21
3.67638
  0
LINE
  8
0
 10
32.227
 20
3.67638
 11
31.5951
 21
3.27258
  0
LINE
  8
0
 10
31.5951
 20
3.27258
 11
31.5951
 21
2.72357
  0
LINE
  8
0
 10
31.5951
 20
2.72357
 11
32.2327
 21
3.13266
  0
LINE
  8
0
 10
32.2327
 20
3.13266
 11
32.2517
 21
3.13266
  0
LINE
  8
0
 10
32.2517
 20
3.13266
 11
32.2517
 21
1.03754
  0
LINE
  8
0
 10
32.2517
 20
1.03754
 11
32.9216
 21
1.03754
  0
LINE
  8
0
 10
32.9216
 20
1.03754
 11
32.9216
 21
3.67638
  0
LINE
  8
0
 10
24.6939
 20
2.11786
 11
24.7014
 21
2.20221
  0
LINE
  8
0
 10
24.7014
 20
2.20221
 11
24.7241
 21
2.27814
  0
LINE
  8
0
 10
24.7241
 20
2.27814
 11
24.7618
 21
2.34566
  0
LINE
  8
0
 10
24.7618
 20
2.34566
 11
24.8147
 21
2.40475
  0
LINE
  8
0
 10
24.8147
 20
2.40475
 11
24.8791
 21
2.4528
  0
LINE
  8
0
 10
24.8791
 20
2.4528
 11
24.9515
 21
2.48712
  0
LINE
  8
0
 10
24.9515
 20
2.48712
 11
25.0319
 21
2.50771
  0
LINE
  8
0
 10
25.0319
 20
2.50771
 11
25.1202
 21
2.51457
  0
LINE
  8
0
 10
25.1202
 20
2.51457
 11
25.1516
 21
2.51407
  0
LINE
  8
0
 10
25.1516
 20
2.51407
 11
25.1851
 21
2.51257
  0
LINE
  8
0
 10
25.1851
 20
2.51257
 11
25.2206
 21
2.51009
  0
LINE
  8
0
 10
25.2206
 20
2.51009
 11
25.2581
 21
2.50661
  0
LINE
  8
0
 10
25.2581
 20
2.50661
 11
25.2948
 21
2.50212
  0
LINE
  8
0
 10
25.2948
 20
2.50212
 11
25.3279
 21
2.49664
  0
LINE
  8
0
 10
25.3279
 20
2.49664
 11
25.3572
 21
2.49017
  0
LINE
  8
0
 10
25.3572
 20
2.49017
 11
25.3828
 21
2.48271
  0
LINE
  8
0
 10
25.3828
 20
2.48271
 11
25.3828
 21
3.0211
  0
LINE
  8
0
 10
25.3828
 20
3.0211
 11
25.3368
 21
3.0304
  0
LINE
  8
0
 10
25.3368
 20
3.0304
 11
25.2901
 21
3.03703
  0
LINE
  8
0
 10
25.2901
 20
3.03703
 11
25.2426
 21
3.04103
  0
LINE
  8
0
 10
25.2426
 20
3.04103
 11
25.1944
 21
3.04236
  0
LINE
  8
0
 10
25.1944
 20
3.04236
 11
25.1095
 21
3.03638
  0
LINE
  8
0
 10
25.1095
 20
3.03638
 11
25.03
 21
3.01845
  0
LINE
  8
0
 10
25.03
 20
3.01845
 11
24.9558
 21
2.98856
  0
LINE
  8
0
 10
24.9558
 20
2.98856
 11
24.887
 21
2.94672
  0
LINE
  8
0
 10
24.887
 20
2.94672
 11
24.8256
 21
2.8927
  0
LINE
  8
0
 10
24.8256
 20
2.8927
 11
24.7735
 21
2.82629
  0
LINE
  8
0
 10
24.7735
 20
2.82629
 11
24.7309
 21
2.74748
  0
LINE
  8
0
 10
24.7309
 20
2.74748
 11
24.6977
 21
2.65627
  0
LINE
  8
0
 10
24.6977
 20
2.65627
 11
24.6748
 21
2.65627
  0
LINE
  8
0
 10
24.6748
 20
2.65627
 11
24.6748
 21
3.01755
  0
LINE
  8
0
 10
24.6748
 20
3.01755
 11
24.0296
 21
3.01755
  0
LINE
  8
0
 10
24.0296
 20
3.01755
 11
24.0296
 21
1.03754
  0
LINE
  8
0
 10
24.0296
 20
1.03754
 11
24.6939
 21
1.03754
  0
LINE
  8
0
 10
24.6939
 20
1.03754
 11
24.6939
 21
2.11786
  0
LINE
  8
0
 10
26.3528
 20
1.02171
 11
26.5234
 21
1.08047
  0
LINE
  8
0
 10
26.5234
 20
1.08047
 11
26.6612
 21
1.17844
  0
LINE
  8
0
 10
26.6612
 20
1.17844
 11
26.7661
 21
1.31558
  0
LINE
  8
0
 10
26.7661
 20
1.31558
 11
26.7832
 21
1.31558
  0
LINE
  8
0
 10
26.7832
 20
1.31558
 11
26.7832
 21
1.03754
  0
LINE
  8
0
 10
26.7832
 20
1.03754
 11
27.4075
 21
1.03754
  0
LINE
  8
0
 10
27.4075
 20
1.03754
 11
27.4075
 21
2.38174
  0
LINE
  8
0
 10
27.4075
 20
2.38174
 11
27.3996
 21
2.48396
  0
LINE
  8
0
 10
27.3996
 20
2.48396
 11
27.3758
 21
2.57811
  0
LINE
  8
0
 10
27.3758
 20
2.57811
 11
27.3363
 21
2.66417
  0
LINE
  8
0
 10
27.3363
 20
2.66417
 11
27.2809
 21
2.74214
  0
LINE
  8
0
 10
27.2809
 20
2.74214
 11
27.2122
 21
2.8116
  0
LINE
  8
0
 10
27.2122
 20
2.8116
 11
27.1325
 21
2.87209
  0
LINE
  8
0
 10
27.1325
 20
2.87209
 11
27.0418
 21
2.92361
  0
LINE
  8
0
 10
27.0418
 20
2.92361
 11
26.9402
 21
2.96617
  0
LINE
  8
0
 10
26.9402
 20
2.96617
 11
26.83
 21
2.9995
  0
LINE
  8
0
 10
26.83
 20
2.9995
 11
26.7135
 21
3.02332
  0
LINE
  8
0
 10
26.7135
 20
3.02332
 11
26.5907
 21
3.0376
  0
LINE
  8
0
 10
26.5907
 20
3.0376
 11
26.4616
 21
3.04236
  0
LINE
  8
0
 10
26.4616
 20
3.04236
 11
26.2714
 21
3.03244
  0
LINE
  8
0
 10
26.2714
 20
3.03244
 11
26.1006
 21
3.00273
  0
LINE
  8
0
 10
26.1006
 20
3.00273
 11
25.9493
 21
2.95319
  0
LINE
  8
0
 10
25.9493
 20
2.95319
 11
25.8173
 21
2.88383
  0
LINE
  8
0
 10
25.8173
 20
2.88383
 11
25.7064
 21
2.79866
  0
LINE
  8
0
 10
25.7064
 20
2.79866
 11
25.6182
 21
2.70164
  0
LINE
  8
0
 10
25.6182
 20
2.70164
 11
25.5527
 21
2.59279
  0
LINE
  8
0
 10
25.5527
 20
2.59279
 11
25.5099
 21
2.47208
  0
LINE
  8
0
 10
25.5099
 20
2.47208
 11
26.1114
 21
2.39946
  0
LINE
  8
0
 10
26.1114
 20
2.39946
 11
26.1286
 21
2.44395
  0
LINE
  8
0
 10
26.1286
 20
2.44395
 11
26.1537
 21
2.48357
  0
LINE
  8
0
 10
26.1537
 20
2.48357
 11
26.1867
 21
2.51833
  0
LINE
  8
0
 10
26.1867
 20
2.51833
 11
26.2275
 21
2.5482
  0
LINE
  8
0
 10
26.2275
 20
2.5482
 11
26.2753
 21
2.57224
  0
LINE
  8
0
 10
26.2753
 20
2.57224
 11
26.3293
 21
2.5894
  0
LINE
  8
0
 10
26.3293
 20
2.5894
 11
26.3895
 21
2.59969
  0
LINE
  8
0
 10
26.3895
 20
2.59969
 11
26.4558
 21
2.60313
  0
LINE
  8
0
 10
26.4558
 20
2.60313
 11
26.5198
 21
2.59964
  0
LINE
  8
0
 10
26.5198
 20
2.59964
 11
26.5765
 21
2.58919
  0
LINE
  8
0
 10
26.5765
 20
2.58919
 11
26.6259
 21
2.57175
  0
LINE
  8
0
 10
26.6259
 20
2.57175
 11
26.668
 21
2.54735
  0
LINE
  8
0
 10
26.668
 20
2.54735
 11
26.7018
 21
2.51651
  0
LINE
  8
0
 10
26.7018
 20
2.51651
 11
26.7259
 21
2.47983
  0
LINE
  8
0
 10
26.7259
 20
2.47983
 11
26.7403
 21
2.43726
  0
LINE
  8
0
 10
26.7403
 20
2.43726
 11
26.7451
 21
2.38882
  0
LINE
  8
0
 10
26.7451
 20
2.38882
 11
26.7451
 21
2.38174
  0
LINE
  8
0
 10
26.7451
 20
2.38174
 11
26.7378
 21
2.33952
  0
LINE
  8
0
 10
26.7378
 20
2.33952
 11
26.7159
 21
2.30493
  0
LINE
  8
0
 10
26.7159
 20
2.30493
 11
26.6793
 21
2.27798
  0
LINE
  8
0
 10
26.6793
 20
2.27798
 11
26.6281
 21
2.25867
  0
LINE
  8
0
 10
26.6281
 20
2.25867
 11
26.56
 21
2.24377
  0
LINE
  8
0
 10
26.56
 20
2.24377
 11
26.4727
 21
2.2301
  0
LINE
  8
0
 10
26.4727
 20
2.2301
 11
26.3663
 21
2.21765
  0
LINE
  8
0
 10
26.3663
 20
2.21765
 11
26.2408
 21
2.20641
  0
LINE
  8
0
 10
26.2408
 20
2.20641
 11
26.1355
 21
2.19479
  0
LINE
  8
0
 10
26.1355
 20
2.19479
 11
26.0345
 21
2.17763
  0
LINE
  8
0
 10
26.0345
 20
2.17763
 11
25.938
 21
2.15494
  0
LINE
  8
0
 10
25.938
 20
2.15494
 11
25.8459
 21
2.12671
  0
LINE
  8
0
 10
25.8459
 20
2.12671
 11
25.7604
 21
2.09152
  0
LINE
  8
0
 10
25.7604
 20
2.09152
 11
25.6838
 21
2.04791
  0
LINE
  8
0
 10
25.6838
 20
2.04791
 11
25.6162
 21
1.99588
  0
LINE
  8
0
 10
25.6162
 20
1.99588
 11
25.5575
 21
1.93544
  0
LINE
  8
0
 10
25.5575
 20
1.93544
 11
25.51
 21
1.86516
  0
LINE
  8
0
 10
25.51
 20
1.86516
 11
25.4762
 21
1.78358
  0
LINE
  8
0
 10
25.4762
 20
1.78358
 11
25.4558
 21
1.6907
  0
LINE
  8
0
 10
25.4558
 20
1.6907
 11
25.449
 21
1.58655
  0
LINE
  8
0
 10
25.449
 20
1.58655
 11
25.4613
 21
1.44885
  0
LINE
  8
0
 10
25.4613
 20
1.44885
 11
25.4983
 21
1.32976
  0
LINE
  8
0
 10
25.4983
 20
1.32976
 11
25.5598
 21
1.22926
  0
LINE
  8
0
 10
25.5598
 20
1.22926
 11
25.646
 21
1.14734
  0
LINE
  8
0
 10
25.646
 20
1.14734
 11
25.7514
 21
1.08382
  0
LINE
  8
0
 10
25.7514
 20
1.08382
 11
25.8704
 21
1.03842
  0
LINE
  8
0
 10
25.8704
 20
1.03842
 11
26.0031
 21
1.0112
  0
LINE
  8
0
 10
26.0031
 20
1.0112
 11
26.1494
 21
1.00212
  0
LINE
  8
0
 10
26.1494
 20
1.00212
 11
26.3528
 21
1.02171
  0
LINE
  8
0
 10
26.2939
 20
1.41447
 11
26.242
 21
1.42427
  0
LINE
  8
0
 10
26.242
 20
1.42427
 11
26.1954
 21
1.4406
  0
LINE
  8
0
 10
26.1954
 20
1.4406
 11
26.1542
 21
1.46347
  0
LINE
  8
0
 10
26.1542
 20
1.46347
 11
26.1205
 21
1.49252
  0
LINE
  8
0
 10
26.1205
 20
1.49252
 11
26.0964
 21
1.52745
  0
LINE
  8
0
 10
26.0964
 20
1.52745
 11
26.0819
 21
1.56824
  0
LINE
  8
0
 10
26.0819
 20
1.56824
 11
26.0771
 21
1.61488
  0
LINE
  8
0
 10
26.0771
 20
1.61488
 11
26.0963
 21
1.702
  0
LINE
  8
0
 10
26.0963
 20
1.702
 11
26.1537
 21
1.77029
  0
LINE
  8
0
 10
26.1537
 20
1.77029
 11
26.2495
 21
1.81978
  0
LINE
  8
0
 10
26.2495
 20
1.81978
 11
26.3835
 21
1.85043
  0
LINE
  8
0
 10
26.3835
 20
1.85043
 11
26.4311
 21
1.85785
  0
LINE
  8
0
 10
26.4311
 20
1.85785
 11
26.4806
 21
1.86592
  0
LINE
  8
0
 10
26.4806
 20
1.86592
 11
26.532
 21
1.87466
  0
LINE
  8
0
 10
26.532
 20
1.87466
 11
26.5853
 21
1.88408
  0
LINE
  8
0
 10
26.5853
 20
1.88408
 11
26.6363
 21
1.89438
  0
LINE
  8
0
 10
26.6363
 20
1.89438
 11
26.6809
 21
1.90578
  0
LINE
  8
0
 10
26.6809
 20
1.90578
 11
26.7191
 21
1.91829
  0
LINE
  8
0
 10
26.7191
 20
1.91829
 11
26.7509
 21
1.93192
  0
LINE
  8
0
 10
26.7509
 20
1.93192
 11
26.7509
 21
1.7424
  0
LINE
  8
0
 10
26.7509
 20
1.7424
 11
26.7436
 21
1.67233
  0
LINE
  8
0
 10
26.7436
 20
1.67233
 11
26.7218
 21
1.60912
  0
LINE
  8
0
 10
26.7218
 20
1.60912
 11
26.6855
 21
1.55278
  0
LINE
  8
0
 10
26.6855
 20
1.55278
 11
26.6348
 21
1.5033
  0
LINE
  8
0
 10
26.6348
 20
1.5033
 11
26.5735
 21
1.46301
  0
LINE
  8
0
 10
26.5735
 20
1.46301
 11
26.5058
 21
1.43423
  0
LINE
  8
0
 10
26.5058
 20
1.43423
 11
26.4317
 21
1.41696
  0
LINE
  8
0
 10
26.4317
 20
1.41696
 11
26.3512
 21
1.41121
  0
LINE
  8
0
 10
26.3512
 20
1.41121
 11
26.2939
 21
1.41447
  0
LINE
  8
0
 10
10.5562
 20
3.01755
 11
9.86343
 21
3.01755
  0
LINE
  8
0
 10
9.86343
 20
3.01755
 11
9.5513
 21
2.04878
  0
LINE
  8
0
 10
9.5513
 20
2.04878
 11
9.53
 21
1.98143
  0
LINE
  8
0
 10
9.53
 20
1.98143
 11
9.50989
 21
1.91396
  0
LINE
  8
0
 10
9.50989
 20
1.91396
 11
9.49098
 21
1.84639
  0
LINE
  8
0
 10
9.49098
 20
1.84639
 11
9.47325
 21
1.7787
  0
LINE
  8
0
 10
9.47325
 20
1.7787
 11
9.45636
 21
1.71046
  0
LINE
  8
0
 10
9.45636
 20
1.71046
 11
9.43996
 21
1.64122
  0
LINE
  8
0
 10
9.43996
 20
1.64122
 11
9.42403
 21
1.571
  0
LINE
  8
0
 10
9.42403
 20
1.571
 11
9.40857
 21
1.49977
  0
LINE
  8
0
 10
9.40857
 20
1.49977
 11
9.39137
 21
1.57104
  0
LINE
  8
0
 10
9.39137
 20
1.57104
 11
9.37405
 21
1.64145
  0
LINE
  8
0
 10
9.37405
 20
1.64145
 11
9.35663
 21
1.71095
  0
LINE
  8
0
 10
9.35663
 20
1.71095
 11
9.33908
 21
1.77959
  0
LINE
  8
0
 10
9.33908
 20
1.77959
 11
9.32094
 21
1.84755
  0
LINE
  8
0
 10
9.32094
 20
1.84755
 11
9.30173
 21
1.91507
  0
LINE
  8
0
 10
9.30173
 20
1.91507
 11
9.28145
 21
1.98215
  0
LINE
  8
0
 10
9.28145
 20
1.98215
 11
9.2601
 21
2.04878
  0
LINE
  8
0
 10
9.2601
 20
2.04878
 11
8.94228
 21
3.01755
  0
LINE
  8
0
 10
8.94228
 20
3.01755
 11
8.24187
 21
3.01755
  0
LINE
  8
0
 10
8.24187
 20
3.01755
 11
9.01268
 21
1.03754
  0
LINE
  8
0
 10
9.01268
 20
1.03754
 11
9.7816
 21
1.03754
  0
LINE
  8
0
 10
9.7816
 20
1.03754
 11
10.5562
 21
3.01755
  0
LINE
  8
0
 10
5.6331
 20
0.800262
 11
5.69215
 21
0.801132
  0
LINE
  8
0
 10
5.69215
 20
0.801132
 11
5.75031
 21
0.802719
  0
LINE
  8
0
 10
5.75031
 20
0.802719
 11
5.80759
 21
0.805099
  0
LINE
  8
0
 10
5.80759
 20
0.805099
 11
5.86407
 21
0.808395
  0
LINE
  8
0
 10
5.86407
 20
0.808395
 11
5.91978
 21
0.812698
  0
LINE
  8
0
 10
5.91978
 20
0.812698
 11
5.97481
 21
0.818115
  0
LINE
  8
0
 10
5.97481
 20
0.818115
 11
6.02917
 21
0.824738
  0
LINE
  8
0
 10
6.02917
 20
0.824738
 11
6.08293
 21
0.832657
  0
LINE
  8
0
 10
6.08293
 20
0.832657
 11
6.13612
 21
0.84201
  0
LINE
  8
0
 10
6.13612
 20
0.84201
 11
6.18883
 21
0.852859
  0
LINE
  8
0
 10
6.18883
 20
0.852859
 11
6.24107
 21
0.865341
  0
LINE
  8
0
 10
6.24107
 20
0.865341
 11
6.29291
 21
0.879517
  0
LINE
  8
0
 10
6.29291
 20
0.879517
 11
6.34439
 21
0.895523
  0
LINE
  8
0
 10
6.34439
 20
0.895523
 11
6.39558
 21
0.913437
  0
LINE
  8
0
 10
6.39558
 20
0.913437
 11
6.44652
 21
0.933365
  0
LINE
  8
0
 10
6.44652
 20
0.933365
 11
6.49724
 21
0.955414
  0
LINE
  8
0
 10
6.49724
 20
0.955414
 11
6.54782
 21
0.979691
  0
LINE
  8
0
 10
6.54782
 20
0.979691
 11
6.5983
 21
1.00627
  0
LINE
  8
0
 10
6.5983
 20
1.00627
 11
6.64873
 21
1.03529
  0
LINE
  8
0
 10
6.64873
 20
1.03529
 11
3.89243
 21
2.61511
  0
LINE
  8
0
 10
3.89243
 20
2.61511
 11
1.40503
 21
1.06889
  0
LINE
  8
0
 10
1.40503
 20
1.06889
 11
1.43604
 21
1.0442
  0
LINE
  8
0
 10
1.43604
 20
1.0442
 11
1.46854
 21
1.02052
  0
LINE
  8
0
 10
1.46854
 20
1.02052
 11
1.50249
 21
0.997925
  0
LINE
  8
0
 10
1.50249
 20
0.997925
 11
1.53787
 21
0.976395
  0
LINE
  8
0
 10
1.53787
 20
0.976395
 11
1.57468
 21
0.955978
  0
LINE
  8
0
 10
1.57468
 20
0.955978
 11
1.61287
 21
0.936691
  0
LINE
  8
0
 10
1.61287
 20
0.936691
 11
1.65242
 21
0.918579
  0
LINE
  8
0
 10
1.65242
 20
0.918579
 11
1.6933
 21
0.901642
  0
LINE
  8
0
 10
1.6933
 20
0.901642
 11
1.7355
 21
0.88591
  0
LINE
  8
0
 10
1.7355
 20
0.88591
 11
1.77898
 21
0.871414
  0
LINE
  8
0
 10
1.77898
 20
0.871414
 11
1.82373
 21
0.858185
  0
LINE
  8
0
 10
1.82373
 20
0.858185
 11
1.86971
 21
0.846237
  0
LINE
  8
0
 10
1.86971
 20
0.846237
 11
1.9169
 21
0.835617
  0
LINE
  8
0
 10
1.9169
 20
0.835617
 11
1.96527
 21
0.826309
  0
LINE
  8
0
 10
1.96527
 20
0.826309
 11
2.0148
 21
0.818375
  0
LINE
  8
0
 10
2.0148
 20
0.818375
 11
2.06548
 21
0.811829
  0
LINE
  8
0
 10
2.06548
 20
0.811829
 11
2.11725
 21
0.806686
  0
LINE
  8
0
 10
2.11725
 20
0.806686
 11
2.1701
 21
0.802979
  0
LINE
  8
0
 10
2.1701
 20
0.802979
 11
2.22403
 21
0.800751
  0
LINE
  8
0
 10
2.22403
 20
0.800751
 11
2.27898
 21
0.799988
  0
LINE
  8
0
 10
2.27898
 20
0.799988
 11
5.5731
 21
0.799988
  0
LINE
  8
0
 10
5.5731
 20
0.799988
 11
5.6331
 21
0.800262
  0
LINE
  8
0
 10
21.1619
 20
2.34456
 11
19.8543
 21
2.34456
  0
LINE
  8
0
 10
19.8543
 20
2.34456
 11
19.8543
 21
1.86815
  0
LINE
  8
0
 10
19.8543
 20
1.86815
 11
21.1619
 21
1.86815
  0
LINE
  8
0
 10
21.1619
 20
1.86815
 11
21.1619
 21
2.34456
  0
LINE
  8
0
 10
16.4914
 20
1.00627
 11
16.5584
 21
1.02403
  0
LINE
  8
0
 10
16.5584
 20
1.02403
 11
16.6194
 21
1.05363
  0
LINE
  8
0
 10
16.6194
 20
1.05363
 11
16.6743
 21
1.09509
  0
LINE
  8
0
 10
16.6743
 20
1.09509
 11
16.7196
 21
1.14528
  0
LINE
  8
0
 10
16.7196
 20
1.14528
 11
16.752
 21
1.20113
  0
LINE
  8
0
 10
16.752
 20
1.20113
 11
16.7715
 21
1.26262
  0
LINE
  8
0
 10
16.7715
 20
1.26262
 11
16.778
 21
1.32976
  0
LINE
  8
0
 10
16.778
 20
1.32976
 11
16.7715
 21
1.39766
  0
LINE
  8
0
 10
16.7715
 20
1.39766
 11
16.752
 21
1.4597
  0
LINE
  8
0
 10
16.752
 20
1.4597
 11
16.7196
 21
1.51587
  0
LINE
  8
0
 10
16.7196
 20
1.51587
 11
16.6743
 21
1.56618
  0
LINE
  8
0
 10
16.6743
 20
1.56618
 11
16.6194
 21
1.60764
  0
LINE
  8
0
 10
16.6194
 20
1.60764
 11
16.5584
 21
1.63725
  0
LINE
  8
0
 10
16.5584
 20
1.63725
 11
16.4914
 21
1.65503
  0
LINE
  8
0
 10
16.4914
 20
1.65503
 11
16.4183
 21
1.66095
  0
LINE
  8
0
 10
16.4183
 20
1.66095
 11
16.3452
 21
1.65503
  0
LINE
  8
0
 10
16.3452
 20
1.65503
 11
16.2782
 21
1.63725
  0
LINE
  8
0
 10
16.2782
 20
1.63725
 11
16.2172
 21
1.60764
  0
LINE
  8
0
 10
16.2172
 20
1.60764
 11
16.1623
 21
1.56618
  0
LINE
  8
0
 10
16.1623
 20
1.56618
 11
16.1169
 21
1.51587
  0
LINE
  8
0
 10
16.1169
 20
1.51587
 11
16.0845
 21
1.4597
  0
LINE
  8
0
 10
16.0845
 20
1.4597
 11
16.0651
 21
1.39766
  0
LINE
  8
0
 10
16.0651
 20
1.39766
 11
16.0586
 21
1.32976
  0
LINE
  8
0
 10
16.0586
 20
1.32976
 11
16.0651
 21
1.26262
  0
LINE
  8
0
 10
16.0651
 20
1.26262
 11
16.0845
 21
1.20113
  0
LINE
  8
0
 10
16.0845
 20
1.20113
 11
16.1169
 21
1.14528
  0
LINE
  8
0
 10
16.1169
 20
1.14528
 11
16.1623
 21
1.09509
  0
LINE
  8
0
 10
16.1623
 20
1.09509
 11
16.2172
 21
1.05363
  0
LINE
  8
0
 10
16.2172
 20
1.05363
 11
16.2782
 21
1.02403
  0
LINE
  8
0
 10
16.2782
 20
1.02403
 11
16.3452
 21
1.00627
  0
LINE
  8
0
 10
16.3452
 20
1.00627
 11
16.4183
 21
1.00034
  0
LINE
  8
0
 10
16.4183
 20
1.00034
 11
16.4914
 21
1.00627
  0
LINE
  8
0
 10
31.1895
 20
1.00627
 11
31.2566
 21
1.02403
  0
LINE
  8
0
 10
31.2566
 20
1.02403
 11
31.3175
 21
1.05363
  0
LINE
  8
0
 10
31.3175
 20
1.05363
 11
31.3724
 21
1.09509
  0
LINE
  8
0
 10
31.3724
 20
1.09509
 11
31.4178
 21
1.14528
  0
LINE
  8
0
 10
31.4178
 20
1.14528
 11
31.4502
 21
1.20113
  0
LINE
  8
0
 10
31.4502
 20
1.20113
 11
31.4697
 21
1.26262
  0
LINE
  8
0
 10
31.4697
 20
1.26262
 11
31.4762
 21
1.32976
  0
LINE
  8
0
 10
31.4762
 20
1.32976
 11
31.4697
 21
1.39766
  0
LINE
  8
0
 10
31.4697
 20
1.39766
 11
31.4502
 21
1.4597
  0
LINE
  8
0
 10
31.4502
 20
1.4597
 11
31.4178
 21
1.51587
  0
LINE
  8
0
 10
31.4178
 20
1.51587
 11
31.3724
 21
1.56618
  0
LINE
  8
0
 10
31.3724
 20
1.56618
 11
31.3175
 21
1.60764
  0
LINE
  8
0
 10
31.3175
 20
1.60764
 11
31.2566
 21
1.63725
  0
LINE
  8
0
 10
31.2566
 20
1.63725
 11
31.1895
 21
1.65503
  0
LINE
  8
0
 10
31.1895
 20
1.65503
 11
31.1165
 21
1.66095
  0
LINE
  8
0
 10
31.1165
 20
1.66095
 11
31.0434
 21
1.65503
  0
LINE
  8
0
 10
31.0434
 20
1.65503
 11
30.9763
 21
1.63725
  0
LINE
  8
0
 10
30.9763
 20
1.63725
 11
30.9154
 21
1.60764
  0
LINE
  8
0
 10
30.9154
 20
1.60764
 11
30.8605
 21
1.56618
  0
LINE
  8
0
 10
30.8605
 20
1.56618
 11
30.8151
 21
1.51587
  0
LINE
  8
0
 10
30.8151
 20
1.51587
 11
30.7827
 21
1.4597
  0
LINE
  8
0
 10
30.7827
 20
1.4597
 11
30.7632
 21
1.39766
  0
LINE
  8
0
 10
30.7632
 20
1.39766
 11
30.7567
 21
1.32976
  0
LINE
  8
0
 10
30.7567
 20
1.32976
 11
30.7632
 21
1.26262
  0
LINE
  8
0
 10
30.7632
 20
1.26262
 11
30.7827
 21
1.20113
  0
LINE
  8
0
 10
30.7827
 20
1.20113
 11
30.8151
 21
1.14528
  0
LINE
  8
0
 10
30.8151
 20
1.14528
 11
30.8605
 21
1.09509
  0
LINE
  8
0
 10
30.8605
 20
1.09509
 11
30.9154
 21
1.05363
  0
LINE
  8
0
 10
30.9154
 20
1.05363
 11
30.9763
 21
1.02403
  0
LINE
  8
0
 10
30.9763
 20
1.02403
 11
31.0434
 21
1.00627
  0
LINE
  8
0
 10
31.0434
 20
1.00627
 11
31.1165
 21
1.00034
  0
LINE
  8
0
 10
31.1165
 20
1.00034
 11
31.1895
 21
1.00627
  0
LINE
  8
0
 10
13.8187
 20
1.00627
 11
13.8857
 21
1.02403
  0
LINE
  8
0
 10
13.8857
 20
1.02403
 11
13.9467
 21
1.05363
  0
LINE
  8
0
 10
13.9467
 20
1.05363
 11
14.0016
 21
1.09509
  0
LINE
  8
0
 10
14.0016
 20
1.09509
 11
14.0469
 21
1.14528
  0
LINE
  8
0
 10
14.0469
 20
1.14528
 11
14.0793
 21
1.20113
  0
LINE
  8
0
 10
14.0793
 20
1.20113
 11
14.0988
 21
1.26262
  0
LINE
  8
0
 10
14.0988
 20
1.26262
 11
14.1053
 21
1.32976
  0
LINE
  8
0
 10
14.1053
 20
1.32976
 11
14.0988
 21
1.39766
  0
LINE
  8
0
 10
14.0988
 20
1.39766
 11
14.0793
 21
1.4597
  0
LINE
  8
0
 10
14.0793
 20
1.4597
 11
14.0469
 21
1.51587
  0
LINE
  8
0
 10
14.0469
 20
1.51587
 11
14.0016
 21
1.56618
  0
LINE
  8
0
 10
14.0016
 20
1.56618
 11
13.9467
 21
1.60764
  0
LINE
  8
0
 10
13.9467
 20
1.60764
 11
13.8857
 21
1.63725
  0
LINE
  8
0
 10
13.8857
 20
1.63725
 11
13.8187
 21
1.65503
  0
LINE
  8
0
 10
13.8187
 20
1.65503
 11
13.7456
 21
1.66095
  0
LINE
  8
0
 10
13.7456
 20
1.66095
 11
13.6725
 21
1.65503
  0
LINE
  8
0
 10
13.6725
 20
1.65503
 11
13.6055
 21
1.63725
  0
LINE
  8
0
 10
13.6055
 20
1.63725
 11
13.5445
 21
1.60764
  0
LINE
  8
0
 10
13.5445
 20
1.60764
 11
13.4896
 21
1.56618
  0
LINE
  8
0
 10
13.4896
 20
1.56618
 11
13.4442
 21
1.51587
  0
LINE
  8
0
 10
13.4442
 20
1.51587
 11
13.4118
 21
1.4597
  0
LINE
  8
0
 10
13.4118
 20
1.4597
 11
13.3923
 21
1.39766
  0
LINE
  8
0
 10
13.3923
 20
1.39766
 11
13.3859
 21
1.32976
  0
LINE
  8
0
 10
13.3859
 20
1.32976
 11
13.3923
 21
1.26262
  0
LINE
  8
0
 10
13.3923
 20
1.26262
 11
13.4118
 21
1.20113
  0
LINE
  8
0
 10
13.4118
 20
1.20113
 11
13.4442
 21
1.14528
  0
LINE
  8
0
 10
13.4442
 20
1.14528
 11
13.4896
 21
1.09509
  0
LINE
  8
0
 10
13.4896
 20
1.09509
 11
13.5445
 21
1.05363
  0
LINE
  8
0
 10
13.5445
 20
1.05363
 11
13.6055
 21
1.02403
  0
LINE
  8
0
 10
13.6055
 20
1.02403
 11
13.6725
 21
1.00627
  0
LINE
  8
0
 10
13.6725
 20
1.00627
 11
13.7456
 21
1.00034
  0
LINE
  8
0
 10
13.7456
 20
1.00034
 11
13.8187
 21
1.00627
  0
ENDSEC
  0
SECTION
  2
OBJECTS
  0
DICTIONARY
  0
ENDSEC
  0
EOF
