solid OpenSCAD_Model
  facet normal -0.881941 0.471361 0
    outer loop
      vertex 0.16745 43.7419 0
      vertex 0.370758 44.1223 4
      vertex 0.370758 44.1223 0
    endloop
  endfacet
  facet normal -0.881941 0.471361 0
    outer loop
      vertex 0.370758 44.1223 4
      vertex 0.16745 43.7419 0
      vertex 0.16745 43.7419 4
    endloop
  endfacet
  facet normal -0.956947 -0.290261 0
    outer loop
      vertex 0.16745 1.35809 0
      vertex 0.0422668 1.7708 4
      vertex 0.0422668 1.7708 0
    endloop
  endfacet
  facet normal -0.956947 -0.290261 0
    outer loop
      vertex 0.0422668 1.7708 4
      vertex 0.16745 1.35809 0
      vertex 0.16745 1.35809 4
    endloop
  endfacet
  facet normal 0.634494 -0.772928 0
    outer loop
      vertex 28.1223 0.370758 0
      vertex 28.4556 0.644363 4
      vertex 28.1223 0.370758 4
    endloop
  endfacet
  facet normal 0.634494 -0.772928 0
    outer loop
      vertex 28.4556 0.644363 4
      vertex 28.1223 0.370758 0
      vertex 28.4556 0.644363 0
    endloop
  endfacet
  facet normal -0.995186 -0.098004 0
    outer loop
      vertex 0.0422668 1.7708 0
      vertex 0 2.2 4
      vertex 0 2.2 0
    endloop
  endfacet
  facet normal -0.995186 -0.098004 0
    outer loop
      vertex 0 2.2 4
      vertex 0.0422668 1.7708 0
      vertex 0.0422668 1.7708 4
    endloop
  endfacet
  facet normal 0.995179 0.0980803 0
    outer loop
      vertex 29.1 42.9 4
      vertex 29.0577 43.3292 0
      vertex 29.0577 43.3292 4
    endloop
  endfacet
  facet normal 0.995179 0.0980803 0
    outer loop
      vertex 29.0577 43.3292 0
      vertex 29.1 42.9 4
      vertex 29.1 42.9 0
    endloop
  endfacet
  facet normal -0.471406 -0.881916 0
    outer loop
      vertex 0.977737 0.370758 0
      vertex 1.35809 0.16745 4
      vertex 0.977737 0.370758 4
    endloop
  endfacet
  facet normal -0.471406 -0.881916 -0
    outer loop
      vertex 1.35809 0.16745 4
      vertex 0.977737 0.370758 0
      vertex 1.35809 0.16745 0
    endloop
  endfacet
  facet normal -0.772997 -0.63441 0
    outer loop
      vertex 0.644363 0.644363 0
      vertex 0.370758 0.977737 4
      vertex 0.370758 0.977737 0
    endloop
  endfacet
  facet normal -0.772997 -0.63441 0
    outer loop
      vertex 0.370758 0.977737 4
      vertex 0.644363 0.644363 0
      vertex 0.644363 0.644363 4
    endloop
  endfacet
  facet normal 0.773002 -0.634403 0
    outer loop
      vertex 28.4556 0.644363 4
      vertex 28.7292 0.977737 0
      vertex 28.7292 0.977737 4
    endloop
  endfacet
  facet normal 0.773002 -0.634403 0
    outer loop
      vertex 28.7292 0.977737 0
      vertex 28.4556 0.644363 4
      vertex 28.4556 0.644363 0
    endloop
  endfacet
  facet normal -0.995186 0.098004 0
    outer loop
      vertex 0 42.9 0
      vertex 0.0422668 43.3292 4
      vertex 0.0422668 43.3292 0
    endloop
  endfacet
  facet normal -0.995186 0.098004 0
    outer loop
      vertex 0.0422668 43.3292 4
      vertex 0 42.9 0
      vertex 0 42.9 4
    endloop
  endfacet
  facet normal 0 -1 0
    outer loop
      vertex 2.2 0 0
      vertex 26.9 0 4
      vertex 2.2 0 4
    endloop
  endfacet
  facet normal 0 -1 -0
    outer loop
      vertex 26.9 0 4
      vertex 2.2 0 0
      vertex 26.9 0 0
    endloop
  endfacet
  facet normal -1 0 0
    outer loop
      vertex 0 2.2 0
      vertex 0 42.9 4
      vertex 0 42.9 0
    endloop
  endfacet
  facet normal -1 -0 0
    outer loop
      vertex 0 42.9 4
      vertex 0 2.2 0
      vertex 0 2.2 4
    endloop
  endfacet
  facet normal 0.634487 0.772933 -0
    outer loop
      vertex 28.4556 44.4556 0
      vertex 28.1223 44.7292 4
      vertex 28.4556 44.4556 4
    endloop
  endfacet
  facet normal 0.634487 0.772933 0
    outer loop
      vertex 28.1223 44.7292 4
      vertex 28.4556 44.4556 0
      vertex 28.1223 44.7292 0
    endloop
  endfacet
  facet normal 0 0 -1
    outer loop
      vertex 26.1 3 0
      vertex 29.1 2.2 0
      vertex 29.0577 1.7708 0
    endloop
  endfacet
  facet normal 0 0 -1
    outer loop
      vertex 29.1 2.2 0
      vertex 26.1 3 0
      vertex 29.1 42.9 0
    endloop
  endfacet
  facet normal 0 0 -1
    outer loop
      vertex 26.1 3 0
      vertex 29.0577 1.7708 0
      vertex 28.9325 1.35809 0
    endloop
  endfacet
  facet normal 0 0 -1
    outer loop
      vertex 26.1 42.1 0
      vertex 29.1 42.9 0
      vertex 26.1 3 0
    endloop
  endfacet
  facet normal 0 0 -1
    outer loop
      vertex 26.1 3 0
      vertex 28.9325 1.35809 0
      vertex 28.7292 0.977737 0
    endloop
  endfacet
  facet normal -0 0 -1
    outer loop
      vertex 29.1 42.9 0
      vertex 26.1 42.1 0
      vertex 29.0577 43.3292 0
    endloop
  endfacet
  facet normal 0 0 -1
    outer loop
      vertex 26.1 3 0
      vertex 28.7292 0.977737 0
      vertex 28.4556 0.644363 0
    endloop
  endfacet
  facet normal -0 0 -1
    outer loop
      vertex 29.0577 43.3292 0
      vertex 26.1 42.1 0
      vertex 28.9325 43.7419 0
    endloop
  endfacet
  facet normal 0 0 -1
    outer loop
      vertex 26.1 3 0
      vertex 28.4556 0.644363 0
      vertex 28.1223 0.370758 0
    endloop
  endfacet
  facet normal -0 0 -1
    outer loop
      vertex 28.9325 43.7419 0
      vertex 26.1 42.1 0
      vertex 28.7292 44.1223 0
    endloop
  endfacet
  facet normal 0 0 -1
    outer loop
      vertex 26.1 3 0
      vertex 28.1223 0.370758 0
      vertex 27.7419 0.16745 0
    endloop
  endfacet
  facet normal -0 0 -1
    outer loop
      vertex 28.7292 44.1223 0
      vertex 26.1 42.1 0
      vertex 28.4556 44.4556 0
    endloop
  endfacet
  facet normal 0 0 -1
    outer loop
      vertex 26.1 3 0
      vertex 27.7419 0.16745 0
      vertex 27.3292 0.0422668 0
    endloop
  endfacet
  facet normal -0 0 -1
    outer loop
      vertex 28.4556 44.4556 0
      vertex 26.1 42.1 0
      vertex 28.1223 44.7292 0
    endloop
  endfacet
  facet normal 0 0 -1
    outer loop
      vertex 26.1 3 0
      vertex 27.3292 0.0422668 0
      vertex 26.9 0 0
    endloop
  endfacet
  facet normal -0 0 -1
    outer loop
      vertex 28.1223 44.7292 0
      vertex 26.1 42.1 0
      vertex 27.7419 44.9325 0
    endloop
  endfacet
  facet normal -0 0 -1
    outer loop
      vertex 27.7419 44.9325 0
      vertex 26.1 42.1 0
      vertex 27.3292 45.0577 0
    endloop
  endfacet
  facet normal 0 0 -1
    outer loop
      vertex 26.9 0 0
      vertex 3 3 0
      vertex 26.1 3 0
    endloop
  endfacet
  facet normal 0 0 -1
    outer loop
      vertex 1.7708 0.0422668 0
      vertex 3 3 0
      vertex 2.2 0 0
    endloop
  endfacet
  facet normal 0 0 -1
    outer loop
      vertex 2.2 0 0
      vertex 3 3 0
      vertex 26.9 0 0
    endloop
  endfacet
  facet normal -0 0 -1
    outer loop
      vertex 27.3292 45.0577 0
      vertex 26.1 42.1 0
      vertex 26.9 45.1 0
    endloop
  endfacet
  facet normal 0 0 -1
    outer loop
      vertex 3 42.1 0
      vertex 26.9 45.1 0
      vertex 26.1 42.1 0
    endloop
  endfacet
  facet normal 0 0 -1
    outer loop
      vertex 3 42.1 0
      vertex 2.2 45.1 0
      vertex 26.9 45.1 0
    endloop
  endfacet
  facet normal -0 0 -1
    outer loop
      vertex 3 3 0
      vertex 0 2.2 0
      vertex 3 42.1 0
    endloop
  endfacet
  facet normal 0 0 -1
    outer loop
      vertex 1.35809 0.16745 0
      vertex 3 3 0
      vertex 1.7708 0.0422668 0
    endloop
  endfacet
  facet normal 0 0 -1
    outer loop
      vertex 0 42.9 0
      vertex 3 42.1 0
      vertex 0 2.2 0
    endloop
  endfacet
  facet normal 0 0 -1
    outer loop
      vertex 0.977737 0.370758 0
      vertex 3 3 0
      vertex 1.35809 0.16745 0
    endloop
  endfacet
  facet normal 0 -0 -1
    outer loop
      vertex 0.0422668 43.3292 0
      vertex 3 42.1 0
      vertex 0 42.9 0
    endloop
  endfacet
  facet normal 0 0 -1
    outer loop
      vertex 0.644363 0.644363 0
      vertex 3 3 0
      vertex 0.977737 0.370758 0
    endloop
  endfacet
  facet normal 0 0 -1
    outer loop
      vertex 3 42.1 0
      vertex 1.7708 45.0577 0
      vertex 2.2 45.1 0
    endloop
  endfacet
  facet normal 0 0 -1
    outer loop
      vertex 0.370758 0.977737 0
      vertex 3 3 0
      vertex 0.644363 0.644363 0
    endloop
  endfacet
  facet normal 0 0 -1
    outer loop
      vertex 3 42.1 0
      vertex 1.35809 44.9325 0
      vertex 1.7708 45.0577 0
    endloop
  endfacet
  facet normal 0 0 -1
    outer loop
      vertex 0.16745 1.35809 0
      vertex 3 3 0
      vertex 0.370758 0.977737 0
    endloop
  endfacet
  facet normal 0 0 -1
    outer loop
      vertex 3 42.1 0
      vertex 0.977737 44.7292 0
      vertex 1.35809 44.9325 0
    endloop
  endfacet
  facet normal 0 0 -1
    outer loop
      vertex 0.0422668 1.7708 0
      vertex 3 3 0
      vertex 0.16745 1.35809 0
    endloop
  endfacet
  facet normal 0 0 -1
    outer loop
      vertex 3 42.1 0
      vertex 0.644363 44.4556 0
      vertex 0.977737 44.7292 0
    endloop
  endfacet
  facet normal 0 0 -1
    outer loop
      vertex 3 3 0
      vertex 0.0422668 1.7708 0
      vertex 0 2.2 0
    endloop
  endfacet
  facet normal 0 0 -1
    outer loop
      vertex 3 42.1 0
      vertex 0.370758 44.1223 0
      vertex 0.644363 44.4556 0
    endloop
  endfacet
  facet normal 0 0 -1
    outer loop
      vertex 3 42.1 0
      vertex 0.16745 43.7419 0
      vertex 0.370758 44.1223 0
    endloop
  endfacet
  facet normal 0 0 -1
    outer loop
      vertex 3 42.1 0
      vertex 0.0422668 43.3292 0
      vertex 0.16745 43.7419 0
    endloop
  endfacet
  facet normal -0.881916 -0.471406 0
    outer loop
      vertex 0.370758 0.977737 0
      vertex 0.16745 1.35809 4
      vertex 0.16745 1.35809 0
    endloop
  endfacet
  facet normal -0.881916 -0.471406 0
    outer loop
      vertex 0.16745 1.35809 4
      vertex 0.370758 0.977737 0
      vertex 0.370758 0.977737 4
    endloop
  endfacet
  facet normal 0 1 -0
    outer loop
      vertex 26.9 45.1 0
      vertex 2.2 45.1 4
      vertex 26.9 45.1 4
    endloop
  endfacet
  facet normal 0 1 0
    outer loop
      vertex 2.2 45.1 4
      vertex 26.9 45.1 0
      vertex 2.2 45.1 0
    endloop
  endfacet
  facet normal 1 -0 0
    outer loop
      vertex 29.1 2.2 4
      vertex 29.1 42.9 0
      vertex 29.1 42.9 4
    endloop
  endfacet
  facet normal 1 0 0
    outer loop
      vertex 29.1 42.9 0
      vertex 29.1 2.2 4
      vertex 29.1 2.2 0
    endloop
  endfacet
  facet normal 0.471346 0.881948 -0
    outer loop
      vertex 28.1223 44.7292 0
      vertex 27.7419 44.9325 4
      vertex 28.1223 44.7292 4
    endloop
  endfacet
  facet normal 0.471346 0.881948 0
    outer loop
      vertex 27.7419 44.9325 4
      vertex 28.1223 44.7292 0
      vertex 27.7419 44.9325 0
    endloop
  endfacet
  facet normal -0.772928 0.634494 0
    outer loop
      vertex 0.370758 44.1223 0
      vertex 0.644363 44.4556 4
      vertex 0.644363 44.4556 0
    endloop
  endfacet
  facet normal -0.772928 0.634494 0
    outer loop
      vertex 0.644363 44.4556 4
      vertex 0.370758 44.1223 0
      vertex 0.370758 44.1223 4
    endloop
  endfacet
  facet normal -0.956945 0.290268 0
    outer loop
      vertex 0.0422668 43.3292 0
      vertex 0.16745 43.7419 4
      vertex 0.16745 43.7419 0
    endloop
  endfacet
  facet normal -0.956945 0.290268 0
    outer loop
      vertex 0.16745 43.7419 4
      vertex 0.0422668 43.3292 0
      vertex 0.0422668 43.3292 4
    endloop
  endfacet
  facet normal 0.956935 0.290303 0
    outer loop
      vertex 29.0577 43.3292 4
      vertex 28.9325 43.7419 0
      vertex 28.9325 43.7419 4
    endloop
  endfacet
  facet normal 0.956935 0.290303 0
    outer loop
      vertex 28.9325 43.7419 0
      vertex 29.0577 43.3292 4
      vertex 29.0577 43.3292 0
    endloop
  endfacet
  facet normal 0.098004 -0.995186 0
    outer loop
      vertex 26.9 0 0
      vertex 27.3292 0.0422668 4
      vertex 26.9 0 4
    endloop
  endfacet
  facet normal 0.098004 -0.995186 0
    outer loop
      vertex 27.3292 0.0422668 4
      vertex 26.9 0 0
      vertex 27.3292 0.0422668 0
    endloop
  endfacet
  facet normal -0.0980803 0.995179 0
    outer loop
      vertex 2.2 45.1 0
      vertex 1.7708 45.0577 4
      vertex 2.2 45.1 4
    endloop
  endfacet
  facet normal -0.0980803 0.995179 0
    outer loop
      vertex 1.7708 45.0577 4
      vertex 2.2 45.1 0
      vertex 1.7708 45.0577 0
    endloop
  endfacet
  facet normal 0.290268 -0.956945 0
    outer loop
      vertex 27.3292 0.0422668 0
      vertex 27.7419 0.16745 4
      vertex 27.3292 0.0422668 4
    endloop
  endfacet
  facet normal 0.290268 -0.956945 0
    outer loop
      vertex 27.7419 0.16745 4
      vertex 27.3292 0.0422668 0
      vertex 27.7419 0.16745 0
    endloop
  endfacet
  facet normal 0.290303 0.956935 -0
    outer loop
      vertex 27.7419 44.9325 0
      vertex 27.3292 45.0577 4
      vertex 27.7419 44.9325 4
    endloop
  endfacet
  facet normal 0.290303 0.956935 0
    outer loop
      vertex 27.3292 45.0577 4
      vertex 27.7419 44.9325 0
      vertex 27.3292 45.0577 0
    endloop
  endfacet
  facet normal -0.290261 -0.956947 0
    outer loop
      vertex 1.35809 0.16745 0
      vertex 1.7708 0.0422668 4
      vertex 1.35809 0.16745 4
    endloop
  endfacet
  facet normal -0.290261 -0.956947 -0
    outer loop
      vertex 1.7708 0.0422668 4
      vertex 1.35809 0.16745 0
      vertex 1.7708 0.0422668 0
    endloop
  endfacet
  facet normal -0.098004 -0.995186 0
    outer loop
      vertex 1.7708 0.0422668 0
      vertex 2.2 0 4
      vertex 1.7708 0.0422668 4
    endloop
  endfacet
  facet normal -0.098004 -0.995186 -0
    outer loop
      vertex 2.2 0 4
      vertex 1.7708 0.0422668 0
      vertex 2.2 0 0
    endloop
  endfacet
  facet normal 0.471361 -0.881941 0
    outer loop
      vertex 27.7419 0.16745 0
      vertex 28.1223 0.370758 4
      vertex 27.7419 0.16745 4
    endloop
  endfacet
  facet normal 0.471361 -0.881941 0
    outer loop
      vertex 28.1223 0.370758 4
      vertex 27.7419 0.16745 0
      vertex 28.1223 0.370758 0
    endloop
  endfacet
  facet normal -0.634403 0.773002 0
    outer loop
      vertex 0.977737 44.7292 0
      vertex 0.644363 44.4556 4
      vertex 0.977737 44.7292 4
    endloop
  endfacet
  facet normal -0.634403 0.773002 0
    outer loop
      vertex 0.644363 44.4556 4
      vertex 0.977737 44.7292 0
      vertex 0.644363 44.4556 0
    endloop
  endfacet
  facet normal 0.956937 -0.290297 0
    outer loop
      vertex 28.9325 1.35809 4
      vertex 29.0577 1.7708 0
      vertex 29.0577 1.7708 4
    endloop
  endfacet
  facet normal 0.956937 -0.290297 0
    outer loop
      vertex 29.0577 1.7708 0
      vertex 28.9325 1.35809 4
      vertex 28.9325 1.35809 0
    endloop
  endfacet
  facet normal 0.995179 -0.0980803 0
    outer loop
      vertex 29.0577 1.7708 4
      vertex 29.1 2.2 0
      vertex 29.1 2.2 4
    endloop
  endfacet
  facet normal 0.995179 -0.0980803 0
    outer loop
      vertex 29.1 2.2 0
      vertex 29.0577 1.7708 4
      vertex 29.0577 1.7708 0
    endloop
  endfacet
  facet normal 0.881948 0.471346 0
    outer loop
      vertex 28.9325 43.7419 4
      vertex 28.7292 44.1223 0
      vertex 28.7292 44.1223 4
    endloop
  endfacet
  facet normal 0.881948 0.471346 0
    outer loop
      vertex 28.7292 44.1223 0
      vertex 28.9325 43.7419 4
      vertex 28.9325 43.7419 0
    endloop
  endfacet
  facet normal 0.881924 -0.471391 0
    outer loop
      vertex 28.7292 0.977737 4
      vertex 28.9325 1.35809 0
      vertex 28.9325 1.35809 4
    endloop
  endfacet
  facet normal 0.881924 -0.471391 0
    outer loop
      vertex 28.9325 1.35809 0
      vertex 28.7292 0.977737 4
      vertex 28.7292 0.977737 0
    endloop
  endfacet
  facet normal -0.471391 0.881924 0
    outer loop
      vertex 1.35809 44.9325 0
      vertex 0.977737 44.7292 4
      vertex 1.35809 44.9325 4
    endloop
  endfacet
  facet normal -0.471391 0.881924 0
    outer loop
      vertex 0.977737 44.7292 4
      vertex 1.35809 44.9325 0
      vertex 0.977737 44.7292 0
    endloop
  endfacet
  facet normal 0.772933 0.634487 0
    outer loop
      vertex 28.7292 44.1223 4
      vertex 28.4556 44.4556 0
      vertex 28.4556 44.4556 4
    endloop
  endfacet
  facet normal 0.772933 0.634487 0
    outer loop
      vertex 28.4556 44.4556 0
      vertex 28.7292 44.1223 4
      vertex 28.7292 44.1223 0
    endloop
  endfacet
  facet normal -0.63441 -0.772997 0
    outer loop
      vertex 0.644363 0.644363 0
      vertex 0.977737 0.370758 4
      vertex 0.644363 0.644363 4
    endloop
  endfacet
  facet normal -0.63441 -0.772997 -0
    outer loop
      vertex 0.977737 0.370758 4
      vertex 0.644363 0.644363 0
      vertex 0.977737 0.370758 0
    endloop
  endfacet
  facet normal 0.0980803 0.995179 -0
    outer loop
      vertex 27.3292 45.0577 0
      vertex 26.9 45.1 4
      vertex 27.3292 45.0577 4
    endloop
  endfacet
  facet normal 0.0980803 0.995179 0
    outer loop
      vertex 26.9 45.1 4
      vertex 27.3292 45.0577 0
      vertex 26.9 45.1 0
    endloop
  endfacet
  facet normal -0.290297 0.956937 0
    outer loop
      vertex 1.7708 45.0577 0
      vertex 1.35809 44.9325 4
      vertex 1.7708 45.0577 4
    endloop
  endfacet
  facet normal -0.290297 0.956937 0
    outer loop
      vertex 1.35809 44.9325 4
      vertex 1.7708 45.0577 0
      vertex 1.35809 44.9325 0
    endloop
  endfacet
  facet normal 0 0 1
    outer loop
      vertex 26.1 42.1 4
      vertex 29.1 42.9 4
      vertex 29.0577 43.3292 4
    endloop
  endfacet
  facet normal 0 0 1
    outer loop
      vertex 29.1 42.9 4
      vertex 26.1 42.1 4
      vertex 29.1 2.2 4
    endloop
  endfacet
  facet normal 0 0 1
    outer loop
      vertex 26.1 42.1 4
      vertex 29.0577 43.3292 4
      vertex 28.9325 43.7419 4
    endloop
  endfacet
  facet normal -0 0 1
    outer loop
      vertex 26.1 3 4
      vertex 29.1 2.2 4
      vertex 26.1 42.1 4
    endloop
  endfacet
  facet normal 0 0 1
    outer loop
      vertex 26.1 42.1 4
      vertex 28.9325 43.7419 4
      vertex 28.7292 44.1223 4
    endloop
  endfacet
  facet normal 0 0 1
    outer loop
      vertex 29.1 2.2 4
      vertex 26.1 3 4
      vertex 29.0577 1.7708 4
    endloop
  endfacet
  facet normal 0 0 1
    outer loop
      vertex 26.1 42.1 4
      vertex 28.7292 44.1223 4
      vertex 28.4556 44.4556 4
    endloop
  endfacet
  facet normal 0 0 1
    outer loop
      vertex 29.0577 1.7708 4
      vertex 26.1 3 4
      vertex 28.9325 1.35809 4
    endloop
  endfacet
  facet normal 0 0 1
    outer loop
      vertex 26.1 42.1 4
      vertex 28.4556 44.4556 4
      vertex 28.1223 44.7292 4
    endloop
  endfacet
  facet normal 0 0 1
    outer loop
      vertex 28.9325 1.35809 4
      vertex 26.1 3 4
      vertex 28.7292 0.977737 4
    endloop
  endfacet
  facet normal 0 0 1
    outer loop
      vertex 26.1 42.1 4
      vertex 28.1223 44.7292 4
      vertex 27.7419 44.9325 4
    endloop
  endfacet
  facet normal 0 0 1
    outer loop
      vertex 28.7292 0.977737 4
      vertex 26.1 3 4
      vertex 28.4556 0.644363 4
    endloop
  endfacet
  facet normal 0 0 1
    outer loop
      vertex 26.1 42.1 4
      vertex 27.7419 44.9325 4
      vertex 27.3292 45.0577 4
    endloop
  endfacet
  facet normal 0 0 1
    outer loop
      vertex 28.4556 0.644363 4
      vertex 26.1 3 4
      vertex 28.1223 0.370758 4
    endloop
  endfacet
  facet normal 0 0 1
    outer loop
      vertex 26.1 42.1 4
      vertex 27.3292 45.0577 4
      vertex 26.9 45.1 4
    endloop
  endfacet
  facet normal 0 0 1
    outer loop
      vertex 28.1223 0.370758 4
      vertex 26.1 3 4
      vertex 27.7419 0.16745 4
    endloop
  endfacet
  facet normal 0 0 1
    outer loop
      vertex 27.7419 0.16745 4
      vertex 26.1 3 4
      vertex 27.3292 0.0422668 4
    endloop
  endfacet
  facet normal 0 0 1
    outer loop
      vertex 26.9 45.1 4
      vertex 3 42.1 4
      vertex 26.1 42.1 4
    endloop
  endfacet
  facet normal -0 0 1
    outer loop
      vertex 1.7708 45.0577 4
      vertex 3 42.1 4
      vertex 2.2 45.1 4
    endloop
  endfacet
  facet normal -0 0 1
    outer loop
      vertex 2.2 45.1 4
      vertex 3 42.1 4
      vertex 26.9 45.1 4
    endloop
  endfacet
  facet normal 0 0 1
    outer loop
      vertex 27.3292 0.0422668 4
      vertex 26.1 3 4
      vertex 26.9 0 4
    endloop
  endfacet
  facet normal -0 0 1
    outer loop
      vertex 3 3 4
      vertex 26.9 0 4
      vertex 26.1 3 4
    endloop
  endfacet
  facet normal 0 0 1
    outer loop
      vertex 3 3 4
      vertex 2.2 0 4
      vertex 26.9 0 4
    endloop
  endfacet
  facet normal 0 0 1
    outer loop
      vertex 3 42.1 4
      vertex 0 42.9 4
      vertex 3 3 4
    endloop
  endfacet
  facet normal -0 0 1
    outer loop
      vertex 1.35809 44.9325 4
      vertex 3 42.1 4
      vertex 1.7708 45.0577 4
    endloop
  endfacet
  facet normal 0 0 1
    outer loop
      vertex 0 2.2 4
      vertex 3 3 4
      vertex 0 42.9 4
    endloop
  endfacet
  facet normal -0 0 1
    outer loop
      vertex 0.977737 44.7292 4
      vertex 3 42.1 4
      vertex 1.35809 44.9325 4
    endloop
  endfacet
  facet normal 0 -0 1
    outer loop
      vertex 0.0422668 1.7708 4
      vertex 3 3 4
      vertex 0 2.2 4
    endloop
  endfacet
  facet normal -0 0 1
    outer loop
      vertex 0.644363 44.4556 4
      vertex 3 42.1 4
      vertex 0.977737 44.7292 4
    endloop
  endfacet
  facet normal 0 0 1
    outer loop
      vertex 3 3 4
      vertex 1.7708 0.0422668 4
      vertex 2.2 0 4
    endloop
  endfacet
  facet normal -0 0 1
    outer loop
      vertex 0.370758 44.1223 4
      vertex 3 42.1 4
      vertex 0.644363 44.4556 4
    endloop
  endfacet
  facet normal 0 0 1
    outer loop
      vertex 3 3 4
      vertex 1.35809 0.16745 4
      vertex 1.7708 0.0422668 4
    endloop
  endfacet
  facet normal -0 0 1
    outer loop
      vertex 0.16745 43.7419 4
      vertex 3 42.1 4
      vertex 0.370758 44.1223 4
    endloop
  endfacet
  facet normal 0 0 1
    outer loop
      vertex 3 3 4
      vertex 0.977737 0.370758 4
      vertex 1.35809 0.16745 4
    endloop
  endfacet
  facet normal -0 0 1
    outer loop
      vertex 0.0422668 43.3292 4
      vertex 3 42.1 4
      vertex 0.16745 43.7419 4
    endloop
  endfacet
  facet normal 0 0 1
    outer loop
      vertex 3 3 4
      vertex 0.644363 0.644363 4
      vertex 0.977737 0.370758 4
    endloop
  endfacet
  facet normal 0 0 1
    outer loop
      vertex 3 42.1 4
      vertex 0.0422668 43.3292 4
      vertex 0 42.9 4
    endloop
  endfacet
  facet normal 0 0 1
    outer loop
      vertex 3 3 4
      vertex 0.370758 0.977737 4
      vertex 0.644363 0.644363 4
    endloop
  endfacet
  facet normal 0 0 1
    outer loop
      vertex 3 3 4
      vertex 0.16745 1.35809 4
      vertex 0.370758 0.977737 4
    endloop
  endfacet
  facet normal 0 0 1
    outer loop
      vertex 3 3 4
      vertex 0.0422668 1.7708 4
      vertex 0.16745 1.35809 4
    endloop
  endfacet
  facet normal -1 0 0
    outer loop
      vertex 26.1 3 0
      vertex 26.1 42.1 4
      vertex 26.1 42.1 0
    endloop
  endfacet
  facet normal -1 -0 0
    outer loop
      vertex 26.1 42.1 4
      vertex 26.1 3 0
      vertex 26.1 3 4
    endloop
  endfacet
  facet normal 1 -0 0
    outer loop
      vertex 3 3 4
      vertex 3 42.1 0
      vertex 3 42.1 4
    endloop
  endfacet
  facet normal 1 0 0
    outer loop
      vertex 3 42.1 0
      vertex 3 3 4
      vertex 3 3 0
    endloop
  endfacet
  facet normal 0 -1 0
    outer loop
      vertex 3 42.1 0
      vertex 26.1 42.1 4
      vertex 3 42.1 4
    endloop
  endfacet
  facet normal 0 -1 -0
    outer loop
      vertex 26.1 42.1 4
      vertex 3 42.1 0
      vertex 26.1 42.1 0
    endloop
  endfacet
  facet normal 0 1 -0
    outer loop
      vertex 26.1 3 0
      vertex 3 3 4
      vertex 26.1 3 4
    endloop
  endfacet
  facet normal 0 1 0
    outer loop
      vertex 3 3 4
      vertex 26.1 3 0
      vertex 3 3 0
    endloop
  endfacet
endsolid OpenSCAD_Model
