solid OpenSCAD_Model
  facet normal 1 -0 0
    outer loop
      vertex 30 0 9
      vertex 30 18 0
      vertex 30 18 9
    endloop
  endfacet
  facet normal 1 0 0
    outer loop
      vertex 30 18 0
      vertex 30 0 9
      vertex 30 0 0
    endloop
  endfacet
  facet normal 0 0 1
    outer loop
      vertex 20 18 4
      vertex 10.15 9 4
      vertex 20 0 4
    endloop
  endfacet
  facet normal 0 0 1
    outer loop
      vertex 20 18 4
      vertex 10.1396 9.21074 4
      vertex 10.15 9 4
    endloop
  endfacet
  facet normal 0 0 1
    outer loop
      vertex 20 18 4
      vertex 10.1087 9.41944 4
      vertex 10.1396 9.21074 4
    endloop
  endfacet
  facet normal 0 0 1
    outer loop
      vertex 20 18 4
      vertex 10.0574 9.62411 4
      vertex 10.1087 9.41944 4
    endloop
  endfacet
  facet normal 0 0 1
    outer loop
      vertex 20 18 4
      vertex 9.98634 9.82277 4
      vertex 10.0574 9.62411 4
    endloop
  endfacet
  facet normal 0 0 1
    outer loop
      vertex 20 18 4
      vertex 9.89613 10.0135 4
      vertex 9.98634 9.82277 4
    endloop
  endfacet
  facet normal 0 0 1
    outer loop
      vertex 20 18 4
      vertex 9.78766 10.1945 4
      vertex 9.89613 10.0135 4
    endloop
  endfacet
  facet normal 0 0 1
    outer loop
      vertex 20 18 4
      vertex 9.66197 10.3639 4
      vertex 9.78766 10.1945 4
    endloop
  endfacet
  facet normal 0 0 1
    outer loop
      vertex 20 18 4
      vertex 9.52028 10.5203 4
      vertex 9.66197 10.3639 4
    endloop
  endfacet
  facet normal 0 0 1
    outer loop
      vertex 20 18 4
      vertex 9.36395 10.662 4
      vertex 9.52028 10.5203 4
    endloop
  endfacet
  facet normal 0 0 1
    outer loop
      vertex 20 18 4
      vertex 9.19448 10.7877 4
      vertex 9.36395 10.662 4
    endloop
  endfacet
  facet normal 0 0 1
    outer loop
      vertex 20 18 4
      vertex 9.0135 10.8961 4
      vertex 9.19448 10.7877 4
    endloop
  endfacet
  facet normal 0 0 1
    outer loop
      vertex 20 18 4
      vertex 8.82277 10.9863 4
      vertex 9.0135 10.8961 4
    endloop
  endfacet
  facet normal 0 0 1
    outer loop
      vertex 20 18 4
      vertex 8.62411 11.0574 4
      vertex 8.82277 10.9863 4
    endloop
  endfacet
  facet normal 0 0 1
    outer loop
      vertex 20 18 4
      vertex 8.41944 11.1087 4
      vertex 8.62411 11.0574 4
    endloop
  endfacet
  facet normal -0 0 1
    outer loop
      vertex 0 18 4
      vertex 8.41944 11.1087 4
      vertex 20 18 4
    endloop
  endfacet
  facet normal 0 0 1
    outer loop
      vertex 8.41944 11.1087 4
      vertex 0 18 4
      vertex 8.21074 11.1396 4
    endloop
  endfacet
  facet normal 0 0 1
    outer loop
      vertex 8.21074 11.1396 4
      vertex 0 18 4
      vertex 8 11.15 4
    endloop
  endfacet
  facet normal 0 0 1
    outer loop
      vertex 8 11.15 4
      vertex 0 18 4
      vertex 7.78926 11.1396 4
    endloop
  endfacet
  facet normal 0 0 1
    outer loop
      vertex 7.78926 11.1396 4
      vertex 0 18 4
      vertex 7.58055 11.1087 4
    endloop
  endfacet
  facet normal 0 0 1
    outer loop
      vertex 7.58055 11.1087 4
      vertex 0 18 4
      vertex 7.37589 11.0574 4
    endloop
  endfacet
  facet normal 0 0 1
    outer loop
      vertex 7.37589 11.0574 4
      vertex 0 18 4
      vertex 7.17723 10.9863 4
    endloop
  endfacet
  facet normal 0 0 1
    outer loop
      vertex 5.86035 9.21074 4
      vertex 0 18 4
      vertex 5.85 9 4
    endloop
  endfacet
  facet normal 0 0 1
    outer loop
      vertex 5.89131 9.41944 4
      vertex 0 18 4
      vertex 5.86035 9.21074 4
    endloop
  endfacet
  facet normal 0 0 1
    outer loop
      vertex 5.94258 9.62411 4
      vertex 0 18 4
      vertex 5.89131 9.41944 4
    endloop
  endfacet
  facet normal 0 0 1
    outer loop
      vertex 6.01366 9.82277 4
      vertex 0 18 4
      vertex 5.94258 9.62411 4
    endloop
  endfacet
  facet normal 0 0 1
    outer loop
      vertex 6.10387 10.0135 4
      vertex 0 18 4
      vertex 6.01366 9.82277 4
    endloop
  endfacet
  facet normal 0 0 1
    outer loop
      vertex 6.21234 10.1945 4
      vertex 0 18 4
      vertex 6.10387 10.0135 4
    endloop
  endfacet
  facet normal 0 0 1
    outer loop
      vertex 6.33803 10.3639 4
      vertex 0 18 4
      vertex 6.21234 10.1945 4
    endloop
  endfacet
  facet normal 0 0 1
    outer loop
      vertex 6.47972 10.5203 4
      vertex 0 18 4
      vertex 6.33803 10.3639 4
    endloop
  endfacet
  facet normal 0 0 1
    outer loop
      vertex 6.63605 10.662 4
      vertex 0 18 4
      vertex 6.47972 10.5203 4
    endloop
  endfacet
  facet normal 0 0 1
    outer loop
      vertex 6.80552 10.7877 4
      vertex 0 18 4
      vertex 6.63605 10.662 4
    endloop
  endfacet
  facet normal 0 0 1
    outer loop
      vertex 6.9865 10.8961 4
      vertex 0 18 4
      vertex 6.80552 10.7877 4
    endloop
  endfacet
  facet normal 0 0 1
    outer loop
      vertex 7.17723 10.9863 4
      vertex 0 18 4
      vertex 6.9865 10.8961 4
    endloop
  endfacet
  facet normal -0 0 1
    outer loop
      vertex 10.1396 8.78926 4
      vertex 20 0 4
      vertex 10.15 9 4
    endloop
  endfacet
  facet normal -0 0 1
    outer loop
      vertex 10.1087 8.58055 4
      vertex 20 0 4
      vertex 10.1396 8.78926 4
    endloop
  endfacet
  facet normal -0 0 1
    outer loop
      vertex 10.0574 8.37589 4
      vertex 20 0 4
      vertex 10.1087 8.58055 4
    endloop
  endfacet
  facet normal -0 0 1
    outer loop
      vertex 9.98634 8.17723 4
      vertex 20 0 4
      vertex 10.0574 8.37589 4
    endloop
  endfacet
  facet normal -0 0 1
    outer loop
      vertex 9.89613 7.9865 4
      vertex 20 0 4
      vertex 9.98634 8.17723 4
    endloop
  endfacet
  facet normal -0 0 1
    outer loop
      vertex 9.78766 7.80552 4
      vertex 20 0 4
      vertex 9.89613 7.9865 4
    endloop
  endfacet
  facet normal -0 0 1
    outer loop
      vertex 9.66197 7.63605 4
      vertex 20 0 4
      vertex 9.78766 7.80552 4
    endloop
  endfacet
  facet normal -0 0 1
    outer loop
      vertex 9.52028 7.47972 4
      vertex 20 0 4
      vertex 9.66197 7.63605 4
    endloop
  endfacet
  facet normal -0 0 1
    outer loop
      vertex 9.36395 7.33803 4
      vertex 20 0 4
      vertex 9.52028 7.47972 4
    endloop
  endfacet
  facet normal -0 0 1
    outer loop
      vertex 9.19448 7.21234 4
      vertex 20 0 4
      vertex 9.36395 7.33803 4
    endloop
  endfacet
  facet normal -0 0 1
    outer loop
      vertex 9.0135 7.10387 4
      vertex 20 0 4
      vertex 9.19448 7.21234 4
    endloop
  endfacet
  facet normal -0 0 1
    outer loop
      vertex 8.82277 7.01366 4
      vertex 20 0 4
      vertex 9.0135 7.10387 4
    endloop
  endfacet
  facet normal -0 0 1
    outer loop
      vertex 8.62411 6.94258 4
      vertex 20 0 4
      vertex 8.82277 7.01366 4
    endloop
  endfacet
  facet normal -0 0 1
    outer loop
      vertex 8.41944 6.89131 4
      vertex 20 0 4
      vertex 8.62411 6.94258 4
    endloop
  endfacet
  facet normal 0 0 1
    outer loop
      vertex 0 0 4
      vertex 8.41944 6.89131 4
      vertex 8.21074 6.86035 4
    endloop
  endfacet
  facet normal 0 0 1
    outer loop
      vertex 0 0 4
      vertex 8.21074 6.86035 4
      vertex 8 6.85 4
    endloop
  endfacet
  facet normal 0 0 1
    outer loop
      vertex 0 0 4
      vertex 8 6.85 4
      vertex 7.78926 6.86035 4
    endloop
  endfacet
  facet normal 0 0 1
    outer loop
      vertex 0 0 4
      vertex 7.78926 6.86035 4
      vertex 7.58055 6.89131 4
    endloop
  endfacet
  facet normal 0 0 1
    outer loop
      vertex 0 0 4
      vertex 7.58055 6.89131 4
      vertex 7.37589 6.94258 4
    endloop
  endfacet
  facet normal 0 0 1
    outer loop
      vertex 0 0 4
      vertex 7.37589 6.94258 4
      vertex 7.17723 7.01366 4
    endloop
  endfacet
  facet normal 0 0 1
    outer loop
      vertex 0 0 4
      vertex 7.17723 7.01366 4
      vertex 6.9865 7.10387 4
    endloop
  endfacet
  facet normal 0 0 1
    outer loop
      vertex 0 0 4
      vertex 5.85 9 4
      vertex 0 18 4
    endloop
  endfacet
  facet normal 0 0 1
    outer loop
      vertex 5.85 9 4
      vertex 0 0 4
      vertex 5.86035 8.78926 4
    endloop
  endfacet
  facet normal 0 0 1
    outer loop
      vertex 5.86035 8.78926 4
      vertex 0 0 4
      vertex 5.89131 8.58055 4
    endloop
  endfacet
  facet normal 0 0 1
    outer loop
      vertex 5.89131 8.58055 4
      vertex 0 0 4
      vertex 5.94258 8.37589 4
    endloop
  endfacet
  facet normal 0 0 1
    outer loop
      vertex 5.94258 8.37589 4
      vertex 0 0 4
      vertex 6.01366 8.17723 4
    endloop
  endfacet
  facet normal 0 0 1
    outer loop
      vertex 6.01366 8.17723 4
      vertex 0 0 4
      vertex 6.10387 7.9865 4
    endloop
  endfacet
  facet normal 0 0 1
    outer loop
      vertex 8.41944 6.89131 4
      vertex 0 0 4
      vertex 20 0 4
    endloop
  endfacet
  facet normal 0 0 1
    outer loop
      vertex 6.80552 7.21234 4
      vertex 0 0 4
      vertex 6.9865 7.10387 4
    endloop
  endfacet
  facet normal 0 0 1
    outer loop
      vertex 6.63605 7.33803 4
      vertex 0 0 4
      vertex 6.80552 7.21234 4
    endloop
  endfacet
  facet normal 0 0 1
    outer loop
      vertex 6.47972 7.47972 4
      vertex 0 0 4
      vertex 6.63605 7.33803 4
    endloop
  endfacet
  facet normal 0 0 1
    outer loop
      vertex 6.33803 7.63605 4
      vertex 0 0 4
      vertex 6.47972 7.47972 4
    endloop
  endfacet
  facet normal 0 0 1
    outer loop
      vertex 6.21234 7.80552 4
      vertex 0 0 4
      vertex 6.33803 7.63605 4
    endloop
  endfacet
  facet normal 0 0 1
    outer loop
      vertex 6.10387 7.9865 4
      vertex 0 0 4
      vertex 6.21234 7.80552 4
    endloop
  endfacet
  facet normal 0 0 -1
    outer loop
      vertex 30 0 0
      vertex 10.15 9 0
      vertex 30 18 0
    endloop
  endfacet
  facet normal 0 0 -1
    outer loop
      vertex 30 0 0
      vertex 10.1396 8.78926 0
      vertex 10.15 9 0
    endloop
  endfacet
  facet normal 0 0 -1
    outer loop
      vertex 30 0 0
      vertex 10.1087 8.58055 0
      vertex 10.1396 8.78926 0
    endloop
  endfacet
  facet normal 0 0 -1
    outer loop
      vertex 30 0 0
      vertex 10.0574 8.37589 0
      vertex 10.1087 8.58055 0
    endloop
  endfacet
  facet normal 0 0 -1
    outer loop
      vertex 30 0 0
      vertex 9.98634 8.17723 0
      vertex 10.0574 8.37589 0
    endloop
  endfacet
  facet normal 0 0 -1
    outer loop
      vertex 30 0 0
      vertex 9.89613 7.9865 0
      vertex 9.98634 8.17723 0
    endloop
  endfacet
  facet normal 0 0 -1
    outer loop
      vertex 30 0 0
      vertex 9.78766 7.80552 0
      vertex 9.89613 7.9865 0
    endloop
  endfacet
  facet normal 0 0 -1
    outer loop
      vertex 30 0 0
      vertex 9.66197 7.63605 0
      vertex 9.78766 7.80552 0
    endloop
  endfacet
  facet normal 0 0 -1
    outer loop
      vertex 30 0 0
      vertex 9.52028 7.47972 0
      vertex 9.66197 7.63605 0
    endloop
  endfacet
  facet normal 0 0 -1
    outer loop
      vertex 30 0 0
      vertex 9.36395 7.33803 0
      vertex 9.52028 7.47972 0
    endloop
  endfacet
  facet normal 0 0 -1
    outer loop
      vertex 30 0 0
      vertex 9.19448 7.21234 0
      vertex 9.36395 7.33803 0
    endloop
  endfacet
  facet normal 0 0 -1
    outer loop
      vertex 30 0 0
      vertex 9.0135 7.10387 0
      vertex 9.19448 7.21234 0
    endloop
  endfacet
  facet normal 0 0 -1
    outer loop
      vertex 30 0 0
      vertex 8.82277 7.01366 0
      vertex 9.0135 7.10387 0
    endloop
  endfacet
  facet normal 0 0 -1
    outer loop
      vertex 0 0 0
      vertex 8.82277 7.01366 0
      vertex 30 0 0
    endloop
  endfacet
  facet normal 0 0 -1
    outer loop
      vertex 8.82277 7.01366 0
      vertex 0 0 0
      vertex 8.62411 6.94258 0
    endloop
  endfacet
  facet normal 0 0 -1
    outer loop
      vertex 8.62411 6.94258 0
      vertex 0 0 0
      vertex 8.41944 6.89131 0
    endloop
  endfacet
  facet normal 0 0 -1
    outer loop
      vertex 8.41944 6.89131 0
      vertex 0 0 0
      vertex 8.21074 6.86035 0
    endloop
  endfacet
  facet normal 0 0 -1
    outer loop
      vertex 8.21074 6.86035 0
      vertex 0 0 0
      vertex 8 6.85 0
    endloop
  endfacet
  facet normal -0 0 -1
    outer loop
      vertex 8 6.85 0
      vertex 0 0 0
      vertex 7.78926 6.86035 0
    endloop
  endfacet
  facet normal -0 0 -1
    outer loop
      vertex 7.78926 6.86035 0
      vertex 0 0 0
      vertex 7.58055 6.89131 0
    endloop
  endfacet
  facet normal -0 0 -1
    outer loop
      vertex 5.86035 8.78926 0
      vertex 0 0 0
      vertex 5.85 9 0
    endloop
  endfacet
  facet normal -0 0 -1
    outer loop
      vertex 5.89131 8.58055 0
      vertex 0 0 0
      vertex 5.86035 8.78926 0
    endloop
  endfacet
  facet normal -0 0 -1
    outer loop
      vertex 5.94258 8.37589 0
      vertex 0 0 0
      vertex 5.89131 8.58055 0
    endloop
  endfacet
  facet normal -0 0 -1
    outer loop
      vertex 6.01366 8.17723 0
      vertex 0 0 0
      vertex 5.94258 8.37589 0
    endloop
  endfacet
  facet normal -0 0 -1
    outer loop
      vertex 6.10387 7.9865 0
      vertex 0 0 0
      vertex 6.01366 8.17723 0
    endloop
  endfacet
  facet normal -0 0 -1
    outer loop
      vertex 6.21234 7.80552 0
      vertex 0 0 0
      vertex 6.10387 7.9865 0
    endloop
  endfacet
  facet normal -0 0 -1
    outer loop
      vertex 6.33803 7.63605 0
      vertex 0 0 0
      vertex 6.21234 7.80552 0
    endloop
  endfacet
  facet normal -0 0 -1
    outer loop
      vertex 6.47972 7.47972 0
      vertex 0 0 0
      vertex 6.33803 7.63605 0
    endloop
  endfacet
  facet normal -0 0 -1
    outer loop
      vertex 6.63605 7.33803 0
      vertex 0 0 0
      vertex 6.47972 7.47972 0
    endloop
  endfacet
  facet normal -0 0 -1
    outer loop
      vertex 6.80552 7.21234 0
      vertex 0 0 0
      vertex 6.63605 7.33803 0
    endloop
  endfacet
  facet normal -0 0 -1
    outer loop
      vertex 6.9865 7.10387 0
      vertex 0 0 0
      vertex 6.80552 7.21234 0
    endloop
  endfacet
  facet normal -0 0 -1
    outer loop
      vertex 7.17723 7.01366 0
      vertex 0 0 0
      vertex 6.9865 7.10387 0
    endloop
  endfacet
  facet normal -0 0 -1
    outer loop
      vertex 7.37589 6.94258 0
      vertex 0 0 0
      vertex 7.17723 7.01366 0
    endloop
  endfacet
  facet normal -0 0 -1
    outer loop
      vertex 7.58055 6.89131 0
      vertex 0 0 0
      vertex 7.37589 6.94258 0
    endloop
  endfacet
  facet normal 0 0 -1
    outer loop
      vertex 10.1396 9.21074 0
      vertex 30 18 0
      vertex 10.15 9 0
    endloop
  endfacet
  facet normal 0 0 -1
    outer loop
      vertex 10.1087 9.41944 0
      vertex 30 18 0
      vertex 10.1396 9.21074 0
    endloop
  endfacet
  facet normal 0 0 -1
    outer loop
      vertex 10.0574 9.62411 0
      vertex 30 18 0
      vertex 10.1087 9.41944 0
    endloop
  endfacet
  facet normal 0 0 -1
    outer loop
      vertex 9.98634 9.82277 0
      vertex 30 18 0
      vertex 10.0574 9.62411 0
    endloop
  endfacet
  facet normal 0 0 -1
    outer loop
      vertex 9.89613 10.0135 0
      vertex 30 18 0
      vertex 9.98634 9.82277 0
    endloop
  endfacet
  facet normal 0 0 -1
    outer loop
      vertex 9.78766 10.1945 0
      vertex 30 18 0
      vertex 9.89613 10.0135 0
    endloop
  endfacet
  facet normal 0 0 -1
    outer loop
      vertex 9.66197 10.3639 0
      vertex 30 18 0
      vertex 9.78766 10.1945 0
    endloop
  endfacet
  facet normal 0 0 -1
    outer loop
      vertex 9.52028 10.5203 0
      vertex 30 18 0
      vertex 9.66197 10.3639 0
    endloop
  endfacet
  facet normal 0 0 -1
    outer loop
      vertex 9.36395 10.662 0
      vertex 30 18 0
      vertex 9.52028 10.5203 0
    endloop
  endfacet
  facet normal 0 0 -1
    outer loop
      vertex 9.19448 10.7877 0
      vertex 30 18 0
      vertex 9.36395 10.662 0
    endloop
  endfacet
  facet normal 0 0 -1
    outer loop
      vertex 9.0135 10.8961 0
      vertex 30 18 0
      vertex 9.19448 10.7877 0
    endloop
  endfacet
  facet normal 0 0 -1
    outer loop
      vertex 8.82277 10.9863 0
      vertex 30 18 0
      vertex 9.0135 10.8961 0
    endloop
  endfacet
  facet normal 0 0 -1
    outer loop
      vertex 0 18 0
      vertex 8.82277 10.9863 0
      vertex 8.62411 11.0574 0
    endloop
  endfacet
  facet normal 0 0 -1
    outer loop
      vertex 0 18 0
      vertex 8.62411 11.0574 0
      vertex 8.41944 11.1087 0
    endloop
  endfacet
  facet normal 0 0 -1
    outer loop
      vertex 0 18 0
      vertex 8.41944 11.1087 0
      vertex 8.21074 11.1396 0
    endloop
  endfacet
  facet normal 0 0 -1
    outer loop
      vertex 0 18 0
      vertex 8.21074 11.1396 0
      vertex 8 11.15 0
    endloop
  endfacet
  facet normal 0 0 -1
    outer loop
      vertex 0 18 0
      vertex 8 11.15 0
      vertex 7.78926 11.1396 0
    endloop
  endfacet
  facet normal 0 0 -1
    outer loop
      vertex 0 18 0
      vertex 7.78926 11.1396 0
      vertex 7.58055 11.1087 0
    endloop
  endfacet
  facet normal 0 0 -1
    outer loop
      vertex 0 18 0
      vertex 7.58055 11.1087 0
      vertex 7.37589 11.0574 0
    endloop
  endfacet
  facet normal 0 0 -1
    outer loop
      vertex 0 18 0
      vertex 5.85 9 0
      vertex 0 0 0
    endloop
  endfacet
  facet normal 0 0 -1
    outer loop
      vertex 5.85 9 0
      vertex 0 18 0
      vertex 5.86035 9.21074 0
    endloop
  endfacet
  facet normal 0 0 -1
    outer loop
      vertex 5.86035 9.21074 0
      vertex 0 18 0
      vertex 5.89131 9.41944 0
    endloop
  endfacet
  facet normal 0 0 -1
    outer loop
      vertex 5.89131 9.41944 0
      vertex 0 18 0
      vertex 5.94258 9.62411 0
    endloop
  endfacet
  facet normal 0 0 -1
    outer loop
      vertex 5.94258 9.62411 0
      vertex 0 18 0
      vertex 6.01366 9.82277 0
    endloop
  endfacet
  facet normal 0 0 -1
    outer loop
      vertex 6.01366 9.82277 0
      vertex 0 18 0
      vertex 6.10387 10.0135 0
    endloop
  endfacet
  facet normal 0 0 -1
    outer loop
      vertex 8.82277 10.9863 0
      vertex 0 18 0
      vertex 30 18 0
    endloop
  endfacet
  facet normal 0 0 -1
    outer loop
      vertex 7.17723 10.9863 0
      vertex 0 18 0
      vertex 7.37589 11.0574 0
    endloop
  endfacet
  facet normal 0 0 -1
    outer loop
      vertex 6.9865 10.8961 0
      vertex 0 18 0
      vertex 7.17723 10.9863 0
    endloop
  endfacet
  facet normal 0 0 -1
    outer loop
      vertex 6.80552 10.7877 0
      vertex 0 18 0
      vertex 6.9865 10.8961 0
    endloop
  endfacet
  facet normal 0 0 -1
    outer loop
      vertex 6.63605 10.662 0
      vertex 0 18 0
      vertex 6.80552 10.7877 0
    endloop
  endfacet
  facet normal 0 0 -1
    outer loop
      vertex 6.47972 10.5203 0
      vertex 0 18 0
      vertex 6.63605 10.662 0
    endloop
  endfacet
  facet normal 0 0 -1
    outer loop
      vertex 6.33803 10.3639 0
      vertex 0 18 0
      vertex 6.47972 10.5203 0
    endloop
  endfacet
  facet normal 0 0 -1
    outer loop
      vertex 6.21234 10.1945 0
      vertex 0 18 0
      vertex 6.33803 10.3639 0
    endloop
  endfacet
  facet normal 0 0 -1
    outer loop
      vertex 6.10387 10.0135 0
      vertex 0 18 0
      vertex 6.21234 10.1945 0
    endloop
  endfacet
  facet normal -1 0 0
    outer loop
      vertex 0 0 0
      vertex 0 18 4
      vertex 0 18 0
    endloop
  endfacet
  facet normal -1 -0 0
    outer loop
      vertex 0 18 4
      vertex 0 0 0
      vertex 0 0 4
    endloop
  endfacet
  facet normal 0 1 0
    outer loop
      vertex 30 18 9
      vertex 20 18 4
      vertex 20 18 9
    endloop
  endfacet
  facet normal 0 1 -0
    outer loop
      vertex 30 18 0
      vertex 20 18 4
      vertex 30 18 9
    endloop
  endfacet
  facet normal 0 1 0
    outer loop
      vertex 0 18 0
      vertex 20 18 4
      vertex 30 18 0
    endloop
  endfacet
  facet normal 0 1 0
    outer loop
      vertex 20 18 4
      vertex 0 18 0
      vertex 0 18 4
    endloop
  endfacet
  facet normal 0 -1 0
    outer loop
      vertex 0 0 4
      vertex 0 0 0
      vertex 20 0 4
    endloop
  endfacet
  facet normal 0 -1 0
    outer loop
      vertex 20 0 4
      vertex 30 0 9
      vertex 20 0 9
    endloop
  endfacet
  facet normal 0 -1 0
    outer loop
      vertex 20 0 4
      vertex 30 0 0
      vertex 30 0 9
    endloop
  endfacet
  facet normal 0 -1 0
    outer loop
      vertex 30 0 0
      vertex 20 0 4
      vertex 0 0 0
    endloop
  endfacet
  facet normal -0 0 1
    outer loop
      vertex 20 18 9
      vertex 30 0 9
      vertex 30 18 9
    endloop
  endfacet
  facet normal 0 0 1
    outer loop
      vertex 30 0 9
      vertex 20 18 9
      vertex 20 0 9
    endloop
  endfacet
  facet normal -1 0 0
    outer loop
      vertex 20 0 4
      vertex 20 18 9
      vertex 20 18 4
    endloop
  endfacet
  facet normal -1 -0 0
    outer loop
      vertex 20 18 9
      vertex 20 0 4
      vertex 20 0 9
    endloop
  endfacet
  facet normal 0.989175 -0.146741 0
    outer loop
      vertex 5.86035 9.21074 4
      vertex 5.89131 9.41944 0
      vertex 5.89131 9.41944 4
    endloop
  endfacet
  facet normal 0.989175 -0.146741 0
    outer loop
      vertex 5.89131 9.41944 0
      vertex 5.86035 9.21074 4
      vertex 5.86035 9.21074 0
    endloop
  endfacet
  facet normal -0.989216 -0.146463 0
    outer loop
      vertex 10.1396 9.21074 0
      vertex 10.1087 9.41944 4
      vertex 10.1087 9.41944 0
    endloop
  endfacet
  facet normal -0.989216 -0.146463 0
    outer loop
      vertex 10.1087 9.41944 4
      vertex 10.1396 9.21074 0
      vertex 10.1396 9.21074 4
    endloop
  endfacet
  facet normal -0.998785 -0.0492899 0
    outer loop
      vertex 10.15 9 0
      vertex 10.1396 9.21074 4
      vertex 10.1396 9.21074 0
    endloop
  endfacet
  facet normal -0.998785 -0.0492899 0
    outer loop
      vertex 10.1396 9.21074 4
      vertex 10.15 9 0
      vertex 10.15 9 4
    endloop
  endfacet
  facet normal -0.969995 -0.243127 0
    outer loop
      vertex 10.1087 9.41944 0
      vertex 10.0574 9.62411 4
      vertex 10.0574 9.62411 0
    endloop
  endfacet
  facet normal -0.969995 -0.243127 0
    outer loop
      vertex 10.0574 9.62411 4
      vertex 10.1087 9.41944 0
      vertex 10.1087 9.41944 4
    endloop
  endfacet
  facet normal -0.671587 -0.740926 0
    outer loop
      vertex 9.36395 10.662 0
      vertex 9.52028 10.5203 4
      vertex 9.36395 10.662 4
    endloop
  endfacet
  facet normal -0.671587 -0.740926 -0
    outer loop
      vertex 9.52028 10.5203 4
      vertex 9.36395 10.662 0
      vertex 9.52028 10.5203 0
    endloop
  endfacet
  facet normal 0.146456 -0.989217 0
    outer loop
      vertex 7.58055 11.1087 0
      vertex 7.78926 11.1396 4
      vertex 7.58055 11.1087 4
    endloop
  endfacet
  facet normal 0.146456 -0.989217 0
    outer loop
      vertex 7.78926 11.1396 4
      vertex 7.58055 11.1087 0
      vertex 7.78926 11.1396 0
    endloop
  endfacet
  facet normal -0.803084 -0.595866 0
    outer loop
      vertex 9.78766 10.1945 0
      vertex 9.66197 10.3639 4
      vertex 9.66197 10.3639 0
    endloop
  endfacet
  facet normal -0.803084 -0.595866 0
    outer loop
      vertex 9.66197 10.3639 4
      vertex 9.78766 10.1945 0
      vertex 9.78766 10.1945 4
    endloop
  endfacet
  facet normal 0.514084 0.85774 -0
    outer loop
      vertex 6.9865 7.10387 0
      vertex 6.80552 7.21234 4
      vertex 6.9865 7.10387 4
    endloop
  endfacet
  facet normal 0.514084 0.85774 0
    outer loop
      vertex 6.80552 7.21234 4
      vertex 6.9865 7.10387 0
      vertex 6.80552 7.21234 0
    endloop
  endfacet
  facet normal -0.595737 -0.803179 0
    outer loop
      vertex 9.19448 10.7877 0
      vertex 9.36395 10.662 4
      vertex 9.19448 10.7877 4
    endloop
  endfacet
  facet normal -0.595737 -0.803179 -0
    outer loop
      vertex 9.36395 10.662 4
      vertex 9.19448 10.7877 0
      vertex 9.36395 10.662 0
    endloop
  endfacet
  facet normal -0.998785 0.0492899 0
    outer loop
      vertex 10.1396 8.78926 0
      vertex 10.15 9 4
      vertex 10.15 9 0
    endloop
  endfacet
  facet normal -0.998785 0.0492899 0
    outer loop
      vertex 10.15 9 4
      vertex 10.1396 8.78926 0
      vertex 10.1396 8.78926 4
    endloop
  endfacet
  facet normal 0.243138 -0.969992 0
    outer loop
      vertex 7.37589 11.0574 0
      vertex 7.58055 11.1087 4
      vertex 7.37589 11.0574 4
    endloop
  endfacet
  facet normal 0.243138 -0.969992 0
    outer loop
      vertex 7.58055 11.1087 4
      vertex 7.37589 11.0574 0
      vertex 7.58055 11.1087 0
    endloop
  endfacet
  facet normal -0.427522 -0.904005 0
    outer loop
      vertex 8.82277 10.9863 0
      vertex 9.0135 10.8961 4
      vertex 8.82277 10.9863 4
    endloop
  endfacet
  facet normal -0.427522 -0.904005 -0
    outer loop
      vertex 9.0135 10.8961 4
      vertex 8.82277 10.9863 0
      vertex 9.0135 10.8961 0
    endloop
  endfacet
  facet normal 0.803084 -0.595866 0
    outer loop
      vertex 6.21234 10.1945 4
      vertex 6.33803 10.3639 0
      vertex 6.33803 10.3639 4
    endloop
  endfacet
  facet normal 0.803084 -0.595866 0
    outer loop
      vertex 6.33803 10.3639 0
      vertex 6.21234 10.1945 4
      vertex 6.21234 10.1945 0
    endloop
  endfacet
  facet normal 0.427522 -0.904005 0
    outer loop
      vertex 6.9865 10.8961 0
      vertex 7.17723 10.9863 4
      vertex 6.9865 10.8961 4
    endloop
  endfacet
  facet normal 0.427522 -0.904005 0
    outer loop
      vertex 7.17723 10.9863 4
      vertex 6.9865 10.8961 0
      vertex 7.17723 10.9863 0
    endloop
  endfacet
  facet normal -0.671561 0.740949 0
    outer loop
      vertex 9.52028 7.47972 0
      vertex 9.36395 7.33803 4
      vertex 9.52028 7.47972 4
    endloop
  endfacet
  facet normal -0.671561 0.740949 0
    outer loop
      vertex 9.36395 7.33803 4
      vertex 9.52028 7.47972 0
      vertex 9.36395 7.33803 0
    endloop
  endfacet
  facet normal 0.671561 0.740949 -0
    outer loop
      vertex 6.63605 7.33803 0
      vertex 6.47972 7.47972 4
      vertex 6.63605 7.33803 4
    endloop
  endfacet
  facet normal 0.671561 0.740949 0
    outer loop
      vertex 6.47972 7.47972 4
      vertex 6.63605 7.33803 0
      vertex 6.47972 7.47972 0
    endloop
  endfacet
  facet normal -0.427561 0.903987 0
    outer loop
      vertex 9.0135 7.10387 0
      vertex 8.82277 7.01366 4
      vertex 9.0135 7.10387 4
    endloop
  endfacet
  facet normal -0.427561 0.903987 0
    outer loop
      vertex 8.82277 7.01366 4
      vertex 9.0135 7.10387 0
      vertex 8.82277 7.01366 0
    endloop
  endfacet
  facet normal -0.336883 0.941547 0
    outer loop
      vertex 8.82277 7.01366 0
      vertex 8.62411 6.94258 4
      vertex 8.82277 7.01366 4
    endloop
  endfacet
  facet normal -0.336883 0.941547 0
    outer loop
      vertex 8.62411 6.94258 4
      vertex 8.82277 7.01366 0
      vertex 8.62411 6.94258 0
    endloop
  endfacet
  facet normal -0.0492899 -0.998785 0
    outer loop
      vertex 8 11.15 0
      vertex 8.21074 11.1396 4
      vertex 8 11.15 4
    endloop
  endfacet
  facet normal -0.0492899 -0.998785 -0
    outer loop
      vertex 8.21074 11.1396 4
      vertex 8 11.15 0
      vertex 8.21074 11.1396 0
    endloop
  endfacet
  facet normal 0.989176 0.146734 0
    outer loop
      vertex 5.89131 8.58055 4
      vertex 5.86035 8.78926 0
      vertex 5.86035 8.78926 4
    endloop
  endfacet
  facet normal 0.989176 0.146734 0
    outer loop
      vertex 5.86035 8.78926 0
      vertex 5.89131 8.58055 4
      vertex 5.89131 8.58055 0
    endloop
  endfacet
  facet normal 0.970028 -0.242993 0
    outer loop
      vertex 5.89131 9.41944 4
      vertex 5.94258 9.62411 0
      vertex 5.94258 9.62411 4
    endloop
  endfacet
  facet normal 0.970028 -0.242993 0
    outer loop
      vertex 5.94258 9.62411 0
      vertex 5.89131 9.41944 4
      vertex 5.89131 9.41944 0
    endloop
  endfacet
  facet normal 0.0492899 -0.998785 0
    outer loop
      vertex 7.78926 11.1396 0
      vertex 8 11.15 4
      vertex 7.78926 11.1396 4
    endloop
  endfacet
  facet normal 0.0492899 -0.998785 0
    outer loop
      vertex 8 11.15 4
      vertex 7.78926 11.1396 0
      vertex 8 11.15 0
    endloop
  endfacet
  facet normal -0.242993 0.970028 0
    outer loop
      vertex 8.62411 6.94258 0
      vertex 8.41944 6.89131 4
      vertex 8.62411 6.94258 4
    endloop
  endfacet
  facet normal -0.242993 0.970028 0
    outer loop
      vertex 8.41944 6.89131 4
      vertex 8.62411 6.94258 0
      vertex 8.41944 6.89131 0
    endloop
  endfacet
  facet normal -0.85774 0.514084 0
    outer loop
      vertex 9.78766 7.80552 0
      vertex 9.89613 7.9865 4
      vertex 9.89613 7.9865 0
    endloop
  endfacet
  facet normal -0.85774 0.514084 0
    outer loop
      vertex 9.89613 7.9865 4
      vertex 9.78766 7.80552 0
      vertex 9.78766 7.80552 4
    endloop
  endfacet
  facet normal 0.51384 -0.857886 0
    outer loop
      vertex 6.80552 10.7877 0
      vertex 6.9865 10.8961 4
      vertex 6.80552 10.7877 4
    endloop
  endfacet
  facet normal 0.51384 -0.857886 0
    outer loop
      vertex 6.9865 10.8961 4
      vertex 6.80552 10.7877 0
      vertex 6.9865 10.8961 0
    endloop
  endfacet
  facet normal 0.803202 0.595707 0
    outer loop
      vertex 6.33803 7.63605 4
      vertex 6.21234 7.80552 0
      vertex 6.21234 7.80552 4
    endloop
  endfacet
  facet normal 0.803202 0.595707 0
    outer loop
      vertex 6.21234 7.80552 0
      vertex 6.33803 7.63605 4
      vertex 6.33803 7.63605 0
    endloop
  endfacet
  facet normal 0.146734 0.989176 -0
    outer loop
      vertex 7.78926 6.86035 0
      vertex 7.58055 6.89131 4
      vertex 7.78926 6.86035 4
    endloop
  endfacet
  facet normal 0.146734 0.989176 0
    outer loop
      vertex 7.58055 6.89131 4
      vertex 7.78926 6.86035 0
      vertex 7.58055 6.89131 0
    endloop
  endfacet
  facet normal -0.336967 -0.941517 0
    outer loop
      vertex 8.62411 11.0574 0
      vertex 8.82277 10.9863 4
      vertex 8.62411 11.0574 4
    endloop
  endfacet
  facet normal -0.336967 -0.941517 -0
    outer loop
      vertex 8.82277 10.9863 4
      vertex 8.62411 11.0574 0
      vertex 8.82277 10.9863 0
    endloop
  endfacet
  facet normal -0.595707 0.803202 0
    outer loop
      vertex 9.36395 7.33803 0
      vertex 9.19448 7.21234 4
      vertex 9.36395 7.33803 4
    endloop
  endfacet
  facet normal -0.595707 0.803202 0
    outer loop
      vertex 9.19448 7.21234 4
      vertex 9.36395 7.33803 0
      vertex 9.19448 7.21234 0
    endloop
  endfacet
  facet normal -0.514084 0.85774 0
    outer loop
      vertex 9.19448 7.21234 0
      vertex 9.0135 7.10387 4
      vertex 9.19448 7.21234 4
    endloop
  endfacet
  facet normal -0.514084 0.85774 0
    outer loop
      vertex 9.0135 7.10387 4
      vertex 9.19448 7.21234 0
      vertex 9.0135 7.10387 0
    endloop
  endfacet
  facet normal -0.969992 0.243138 0
    outer loop
      vertex 10.0574 8.37589 0
      vertex 10.1087 8.58055 4
      vertex 10.1087 8.58055 0
    endloop
  endfacet
  facet normal -0.969992 0.243138 0
    outer loop
      vertex 10.1087 8.58055 4
      vertex 10.0574 8.37589 0
      vertex 10.0574 8.37589 4
    endloop
  endfacet
  facet normal 0.336967 -0.941517 0
    outer loop
      vertex 7.17723 10.9863 0
      vertex 7.37589 11.0574 4
      vertex 7.17723 10.9863 4
    endloop
  endfacet
  facet normal 0.336967 -0.941517 0
    outer loop
      vertex 7.37589 11.0574 4
      vertex 7.17723 10.9863 0
      vertex 7.37589 11.0574 0
    endloop
  endfacet
  facet normal -0.903987 -0.427561 0
    outer loop
      vertex 9.98634 9.82277 0
      vertex 9.89613 10.0135 4
      vertex 9.89613 10.0135 0
    endloop
  endfacet
  facet normal -0.903987 -0.427561 0
    outer loop
      vertex 9.89613 10.0135 4
      vertex 9.98634 9.82277 0
      vertex 9.98634 9.82277 4
    endloop
  endfacet
  facet normal 0.970025 0.243004 0
    outer loop
      vertex 5.94258 8.37589 4
      vertex 5.89131 8.58055 0
      vertex 5.89131 8.58055 4
    endloop
  endfacet
  facet normal 0.970025 0.243004 0
    outer loop
      vertex 5.89131 8.58055 0
      vertex 5.94258 8.37589 4
      vertex 5.94258 8.37589 0
    endloop
  endfacet
  facet normal 0.941547 0.336883 0
    outer loop
      vertex 6.01366 8.17723 4
      vertex 5.94258 8.37589 0
      vertex 5.94258 8.37589 4
    endloop
  endfacet
  facet normal 0.941547 0.336883 0
    outer loop
      vertex 5.94258 8.37589 0
      vertex 6.01366 8.17723 4
      vertex 6.01366 8.17723 0
    endloop
  endfacet
  facet normal -0.146463 -0.989216 0
    outer loop
      vertex 8.21074 11.1396 0
      vertex 8.41944 11.1087 4
      vertex 8.21074 11.1396 4
    endloop
  endfacet
  facet normal -0.146463 -0.989216 -0
    outer loop
      vertex 8.41944 11.1087 4
      vertex 8.21074 11.1396 0
      vertex 8.41944 11.1087 0
    endloop
  endfacet
  facet normal 0.671587 -0.740926 0
    outer loop
      vertex 6.47972 10.5203 0
      vertex 6.63605 10.662 4
      vertex 6.47972 10.5203 4
    endloop
  endfacet
  facet normal 0.671587 -0.740926 0
    outer loop
      vertex 6.63605 10.662 4
      vertex 6.47972 10.5203 0
      vertex 6.63605 10.662 0
    endloop
  endfacet
  facet normal -0.803202 0.595707 0
    outer loop
      vertex 9.66197 7.63605 0
      vertex 9.78766 7.80552 4
      vertex 9.78766 7.80552 0
    endloop
  endfacet
  facet normal -0.803202 0.595707 0
    outer loop
      vertex 9.78766 7.80552 4
      vertex 9.66197 7.63605 0
      vertex 9.66197 7.63605 4
    endloop
  endfacet
  facet normal -0.941577 -0.336799 0
    outer loop
      vertex 10.0574 9.62411 0
      vertex 9.98634 9.82277 4
      vertex 9.98634 9.82277 0
    endloop
  endfacet
  facet normal -0.941577 -0.336799 0
    outer loop
      vertex 9.98634 9.82277 4
      vertex 10.0574 9.62411 0
      vertex 10.0574 9.62411 4
    endloop
  endfacet
  facet normal 0.941547 -0.336883 0
    outer loop
      vertex 5.94258 9.62411 4
      vertex 6.01366 9.82277 0
      vertex 6.01366 9.82277 4
    endloop
  endfacet
  facet normal 0.941547 -0.336883 0
    outer loop
      vertex 6.01366 9.82277 0
      vertex 5.94258 9.62411 4
      vertex 5.94258 9.62411 0
    endloop
  endfacet
  facet normal -0.51384 -0.857886 0
    outer loop
      vertex 9.0135 10.8961 0
      vertex 9.19448 10.7877 4
      vertex 9.0135 10.8961 4
    endloop
  endfacet
  facet normal -0.51384 -0.857886 -0
    outer loop
      vertex 9.19448 10.7877 4
      vertex 9.0135 10.8961 0
      vertex 9.19448 10.7877 0
    endloop
  endfacet
  facet normal 0.243004 0.970025 -0
    outer loop
      vertex 7.58055 6.89131 0
      vertex 7.37589 6.94258 4
      vertex 7.58055 6.89131 4
    endloop
  endfacet
  facet normal 0.243004 0.970025 0
    outer loop
      vertex 7.37589 6.94258 4
      vertex 7.58055 6.89131 0
      vertex 7.37589 6.94258 0
    endloop
  endfacet
  facet normal 0.595737 -0.803179 0
    outer loop
      vertex 6.63605 10.662 0
      vertex 6.80552 10.7877 4
      vertex 6.63605 10.662 4
    endloop
  endfacet
  facet normal 0.595737 -0.803179 0
    outer loop
      vertex 6.80552 10.7877 4
      vertex 6.63605 10.662 0
      vertex 6.80552 10.7877 0
    endloop
  endfacet
  facet normal -0.857765 -0.514043 0
    outer loop
      vertex 9.89613 10.0135 0
      vertex 9.78766 10.1945 4
      vertex 9.78766 10.1945 0
    endloop
  endfacet
  facet normal -0.857765 -0.514043 0
    outer loop
      vertex 9.78766 10.1945 4
      vertex 9.89613 10.0135 0
      vertex 9.89613 10.0135 4
    endloop
  endfacet
  facet normal 0.740949 0.671561 0
    outer loop
      vertex 6.47972 7.47972 4
      vertex 6.33803 7.63605 0
      vertex 6.33803 7.63605 4
    endloop
  endfacet
  facet normal 0.740949 0.671561 0
    outer loop
      vertex 6.33803 7.63605 0
      vertex 6.47972 7.47972 4
      vertex 6.47972 7.47972 0
    endloop
  endfacet
  facet normal -0.989217 0.146456 0
    outer loop
      vertex 10.1087 8.58055 0
      vertex 10.1396 8.78926 4
      vertex 10.1396 8.78926 0
    endloop
  endfacet
  facet normal -0.989217 0.146456 0
    outer loop
      vertex 10.1396 8.78926 4
      vertex 10.1087 8.58055 0
      vertex 10.1087 8.58055 4
    endloop
  endfacet
  facet normal -0.741099 -0.671396 0
    outer loop
      vertex 9.66197 10.3639 0
      vertex 9.52028 10.5203 4
      vertex 9.52028 10.5203 0
    endloop
  endfacet
  facet normal -0.741099 -0.671396 0
    outer loop
      vertex 9.52028 10.5203 4
      vertex 9.66197 10.3639 0
      vertex 9.66197 10.3639 4
    endloop
  endfacet
  facet normal 0.903987 -0.427561 0
    outer loop
      vertex 6.01366 9.82277 4
      vertex 6.10387 10.0135 0
      vertex 6.10387 10.0135 4
    endloop
  endfacet
  facet normal 0.903987 -0.427561 0
    outer loop
      vertex 6.10387 10.0135 0
      vertex 6.01366 9.82277 4
      vertex 6.01366 9.82277 0
    endloop
  endfacet
  facet normal 0.741099 -0.671396 0
    outer loop
      vertex 6.33803 10.3639 4
      vertex 6.47972 10.5203 0
      vertex 6.47972 10.5203 4
    endloop
  endfacet
  facet normal 0.741099 -0.671396 0
    outer loop
      vertex 6.47972 10.5203 0
      vertex 6.33803 10.3639 4
      vertex 6.33803 10.3639 0
    endloop
  endfacet
  facet normal 0.336883 0.941547 -0
    outer loop
      vertex 7.37589 6.94258 0
      vertex 7.17723 7.01366 4
      vertex 7.37589 6.94258 4
    endloop
  endfacet
  facet normal 0.336883 0.941547 0
    outer loop
      vertex 7.17723 7.01366 4
      vertex 7.37589 6.94258 0
      vertex 7.17723 7.01366 0
    endloop
  endfacet
  facet normal 0.903987 0.427561 0
    outer loop
      vertex 6.10387 7.9865 4
      vertex 6.01366 8.17723 0
      vertex 6.01366 8.17723 4
    endloop
  endfacet
  facet normal 0.903987 0.427561 0
    outer loop
      vertex 6.01366 8.17723 0
      vertex 6.10387 7.9865 4
      vertex 6.10387 7.9865 0
    endloop
  endfacet
  facet normal -0.146741 0.989175 0
    outer loop
      vertex 8.41944 6.89131 0
      vertex 8.21074 6.86035 4
      vertex 8.41944 6.89131 4
    endloop
  endfacet
  facet normal -0.146741 0.989175 0
    outer loop
      vertex 8.21074 6.86035 4
      vertex 8.41944 6.89131 0
      vertex 8.21074 6.86035 0
    endloop
  endfacet
  facet normal 0.595707 0.803202 -0
    outer loop
      vertex 6.80552 7.21234 0
      vertex 6.63605 7.33803 4
      vertex 6.80552 7.21234 4
    endloop
  endfacet
  facet normal 0.595707 0.803202 0
    outer loop
      vertex 6.63605 7.33803 4
      vertex 6.80552 7.21234 0
      vertex 6.63605 7.33803 0
    endloop
  endfacet
  facet normal 0.85774 0.514084 0
    outer loop
      vertex 6.21234 7.80552 4
      vertex 6.10387 7.9865 0
      vertex 6.10387 7.9865 4
    endloop
  endfacet
  facet normal 0.85774 0.514084 0
    outer loop
      vertex 6.10387 7.9865 0
      vertex 6.21234 7.80552 4
      vertex 6.21234 7.80552 0
    endloop
  endfacet
  facet normal -0.941577 0.336799 0
    outer loop
      vertex 9.98634 8.17723 0
      vertex 10.0574 8.37589 4
      vertex 10.0574 8.37589 0
    endloop
  endfacet
  facet normal -0.941577 0.336799 0
    outer loop
      vertex 10.0574 8.37589 4
      vertex 9.98634 8.17723 0
      vertex 9.98634 8.17723 4
    endloop
  endfacet
  facet normal -0.0490535 0.998796 0
    outer loop
      vertex 8.21074 6.86035 0
      vertex 8 6.85 4
      vertex 8.21074 6.86035 4
    endloop
  endfacet
  facet normal -0.0490535 0.998796 0
    outer loop
      vertex 8 6.85 4
      vertex 8.21074 6.86035 0
      vertex 8 6.85 0
    endloop
  endfacet
  facet normal -0.243127 -0.969995 0
    outer loop
      vertex 8.41944 11.1087 0
      vertex 8.62411 11.0574 4
      vertex 8.41944 11.1087 4
    endloop
  endfacet
  facet normal -0.243127 -0.969995 -0
    outer loop
      vertex 8.62411 11.0574 4
      vertex 8.41944 11.1087 0
      vertex 8.62411 11.0574 0
    endloop
  endfacet
  facet normal -0.903987 0.427561 0
    outer loop
      vertex 9.89613 7.9865 0
      vertex 9.98634 8.17723 4
      vertex 9.98634 8.17723 0
    endloop
  endfacet
  facet normal -0.903987 0.427561 0
    outer loop
      vertex 9.98634 8.17723 4
      vertex 9.89613 7.9865 0
      vertex 9.89613 7.9865 4
    endloop
  endfacet
  facet normal 0.0490535 0.998796 -0
    outer loop
      vertex 8 6.85 0
      vertex 7.78926 6.86035 4
      vertex 8 6.85 4
    endloop
  endfacet
  facet normal 0.0490535 0.998796 0
    outer loop
      vertex 7.78926 6.86035 4
      vertex 8 6.85 0
      vertex 7.78926 6.86035 0
    endloop
  endfacet
  facet normal 0.427561 0.903987 -0
    outer loop
      vertex 7.17723 7.01366 0
      vertex 6.9865 7.10387 4
      vertex 7.17723 7.01366 4
    endloop
  endfacet
  facet normal 0.427561 0.903987 0
    outer loop
      vertex 6.9865 7.10387 4
      vertex 7.17723 7.01366 0
      vertex 6.9865 7.10387 0
    endloop
  endfacet
  facet normal 0.998796 -0.0490535 0
    outer loop
      vertex 5.85 9 4
      vertex 5.86035 9.21074 0
      vertex 5.86035 9.21074 4
    endloop
  endfacet
  facet normal 0.998796 -0.0490535 0
    outer loop
      vertex 5.86035 9.21074 0
      vertex 5.85 9 4
      vertex 5.85 9 0
    endloop
  endfacet
  facet normal 0.998796 0.0490535 0
    outer loop
      vertex 5.86035 8.78926 4
      vertex 5.85 9 0
      vertex 5.85 9 4
    endloop
  endfacet
  facet normal 0.998796 0.0490535 0
    outer loop
      vertex 5.85 9 0
      vertex 5.86035 8.78926 4
      vertex 5.86035 8.78926 0
    endloop
  endfacet
  facet normal -0.740949 0.671561 0
    outer loop
      vertex 9.52028 7.47972 0
      vertex 9.66197 7.63605 4
      vertex 9.66197 7.63605 0
    endloop
  endfacet
  facet normal -0.740949 0.671561 0
    outer loop
      vertex 9.66197 7.63605 4
      vertex 9.52028 7.47972 0
      vertex 9.52028 7.47972 4
    endloop
  endfacet
  facet normal 0.857765 -0.514043 0
    outer loop
      vertex 6.10387 10.0135 4
      vertex 6.21234 10.1945 0
      vertex 6.21234 10.1945 4
    endloop
  endfacet
  facet normal 0.857765 -0.514043 0
    outer loop
      vertex 6.21234 10.1945 0
      vertex 6.10387 10.0135 4
      vertex 6.10387 10.0135 0
    endloop
  endfacet
endsolid OpenSCAD_Model
