solid OpenSCAD_Model
  facet normal 1 0 0
    outer loop
      vertex 50 4 30
      vertex 50 0 30
      vertex 50 4 4
    endloop
  endfacet
  facet normal 1 0 0
    outer loop
      vertex 50 11 4
      vertex 50 14 9
      vertex 50 11 9
    endloop
  endfacet
  facet normal 1 0 0
    outer loop
      vertex 50 14 9
      vertex 50 11 4
      vertex 50 14 0
    endloop
  endfacet
  facet normal 1 -0 0
    outer loop
      vertex 50 4 4
      vertex 50 14 0
      vertex 50 11 4
    endloop
  endfacet
  facet normal 1 0 0
    outer loop
      vertex 50 4 4
      vertex 50 0 0
      vertex 50 14 0
    endloop
  endfacet
  facet normal 1 0 0
    outer loop
      vertex 50 0 0
      vertex 50 4 4
      vertex 50 0 30
    endloop
  endfacet
  facet normal -0 0 1
    outer loop
      vertex 0 11 4
      vertex 50 4 4
      vertex 50 11 4
    endloop
  endfacet
  facet normal 0 0 1
    outer loop
      vertex 50 4 4
      vertex 0 11 4
      vertex 0 4 4
    endloop
  endfacet
  facet normal 0 0 -1
    outer loop
      vertex 0 0 0
      vertex 50 14 0
      vertex 50 0 0
    endloop
  endfacet
  facet normal -0 0 -1
    outer loop
      vertex 50 14 0
      vertex 0 0 0
      vertex 0 14 0
    endloop
  endfacet
  facet normal -1 0 0
    outer loop
      vertex 0 14 0
      vertex 0 11 4
      vertex 0 14 9
    endloop
  endfacet
  facet normal -1 0 0
    outer loop
      vertex 0 14 0
      vertex 0 4 4
      vertex 0 11 4
    endloop
  endfacet
  facet normal -1 0 0
    outer loop
      vertex 0 0 0
      vertex 0 4 4
      vertex 0 14 0
    endloop
  endfacet
  facet normal -1 0 0
    outer loop
      vertex 0 0 30
      vertex 0 4 4
      vertex 0 0 0
    endloop
  endfacet
  facet normal -1 0 0
    outer loop
      vertex 0 4 4
      vertex 0 0 30
      vertex 0 4 30
    endloop
  endfacet
  facet normal -1 -0 0
    outer loop
      vertex 0 14 9
      vertex 0 11 4
      vertex 0 11 9
    endloop
  endfacet
  facet normal 0 1 -0
    outer loop
      vertex 50 14 0
      vertex 0 14 9
      vertex 50 14 9
    endloop
  endfacet
  facet normal 0 1 0
    outer loop
      vertex 0 14 9
      vertex 50 14 0
      vertex 0 14 0
    endloop
  endfacet
  facet normal 0 -1 0
    outer loop
      vertex 13.6241 0 21.0574
      vertex 0 0 30
      vertex 13.4194 0 21.1087
    endloop
  endfacet
  facet normal 0 -1 0
    outer loop
      vertex 50 0 30
      vertex 36.7893 0 21.1396
      vertex 37 0 21.15
    endloop
  endfacet
  facet normal 0 -1 0
    outer loop
      vertex 0 0 30
      vertex 13.6241 0 21.0574
      vertex 50 0 30
    endloop
  endfacet
  facet normal 0 -1 0
    outer loop
      vertex 50 0 30
      vertex 36.5806 0 21.1087
      vertex 36.7893 0 21.1396
    endloop
  endfacet
  facet normal 0 -1 0
    outer loop
      vertex 36.3759 0 21.0574
      vertex 50 0 30
      vertex 13.6241 0 21.0574
    endloop
  endfacet
  facet normal 0 -1 0
    outer loop
      vertex 50 0 30
      vertex 36.3759 0 21.0574
      vertex 36.5806 0 21.1087
    endloop
  endfacet
  facet normal 0 -1 0
    outer loop
      vertex 13.8228 0 20.9863
      vertex 36.3759 0 21.0574
      vertex 13.6241 0 21.0574
    endloop
  endfacet
  facet normal 0 -1 0
    outer loop
      vertex 13.8228 0 20.9863
      vertex 36.1772 0 20.9863
      vertex 36.3759 0 21.0574
    endloop
  endfacet
  facet normal 0 -1 0
    outer loop
      vertex 14.0135 0 20.8961
      vertex 36.1772 0 20.9863
      vertex 13.8228 0 20.9863
    endloop
  endfacet
  facet normal 0 -1 0
    outer loop
      vertex 14.0135 0 20.8961
      vertex 35.9865 0 20.8961
      vertex 36.1772 0 20.9863
    endloop
  endfacet
  facet normal 0 -1 0
    outer loop
      vertex 14.1945 0 20.7877
      vertex 35.9865 0 20.8961
      vertex 14.0135 0 20.8961
    endloop
  endfacet
  facet normal 0 -1 0
    outer loop
      vertex 14.1945 0 20.7877
      vertex 35.8055 0 20.7877
      vertex 35.9865 0 20.8961
    endloop
  endfacet
  facet normal 0 -1 0
    outer loop
      vertex 14.3639 0 20.662
      vertex 35.8055 0 20.7877
      vertex 14.1945 0 20.7877
    endloop
  endfacet
  facet normal 0 -1 0
    outer loop
      vertex 14.3639 0 20.662
      vertex 35.6361 0 20.662
      vertex 35.8055 0 20.7877
    endloop
  endfacet
  facet normal 0 -1 0
    outer loop
      vertex 14.5203 0 20.5203
      vertex 35.6361 0 20.662
      vertex 14.3639 0 20.662
    endloop
  endfacet
  facet normal 0 -1 0
    outer loop
      vertex 14.5203 0 20.5203
      vertex 35.4797 0 20.5203
      vertex 35.6361 0 20.662
    endloop
  endfacet
  facet normal 0 -1 0
    outer loop
      vertex 14.662 0 20.3639
      vertex 35.4797 0 20.5203
      vertex 14.5203 0 20.5203
    endloop
  endfacet
  facet normal 0 -1 0
    outer loop
      vertex 14.662 0 20.3639
      vertex 35.338 0 20.3639
      vertex 35.4797 0 20.5203
    endloop
  endfacet
  facet normal 0 -1 0
    outer loop
      vertex 14.7877 0 20.1945
      vertex 35.338 0 20.3639
      vertex 14.662 0 20.3639
    endloop
  endfacet
  facet normal 0 -1 0
    outer loop
      vertex 14.7877 0 20.1945
      vertex 35.2123 0 20.1945
      vertex 35.338 0 20.3639
    endloop
  endfacet
  facet normal 0 -1 0
    outer loop
      vertex 14.8961 0 20.0135
      vertex 35.2123 0 20.1945
      vertex 14.7877 0 20.1945
    endloop
  endfacet
  facet normal 0 -1 0
    outer loop
      vertex 14.8961 0 20.0135
      vertex 35.1039 0 20.0135
      vertex 35.2123 0 20.1945
    endloop
  endfacet
  facet normal 0 -1 0
    outer loop
      vertex 14.9863 0 19.8228
      vertex 35.1039 0 20.0135
      vertex 14.8961 0 20.0135
    endloop
  endfacet
  facet normal 0 -1 0
    outer loop
      vertex 14.9863 0 19.8228
      vertex 35.0137 0 19.8228
      vertex 35.1039 0 20.0135
    endloop
  endfacet
  facet normal 0 -1 0
    outer loop
      vertex 15.0574 0 19.6241
      vertex 35.0137 0 19.8228
      vertex 14.9863 0 19.8228
    endloop
  endfacet
  facet normal 0 -1 0
    outer loop
      vertex 15.0574 0 19.6241
      vertex 34.9426 0 19.6241
      vertex 35.0137 0 19.8228
    endloop
  endfacet
  facet normal 0 -1 0
    outer loop
      vertex 15.1087 0 19.4194
      vertex 34.9426 0 19.6241
      vertex 15.0574 0 19.6241
    endloop
  endfacet
  facet normal 0 -1 0
    outer loop
      vertex 15.1087 0 19.4194
      vertex 34.8913 0 19.4194
      vertex 34.9426 0 19.6241
    endloop
  endfacet
  facet normal 0 -1 0
    outer loop
      vertex 15.1396 0 19.2107
      vertex 34.8913 0 19.4194
      vertex 15.1087 0 19.4194
    endloop
  endfacet
  facet normal 0 -1 0
    outer loop
      vertex 15.1396 0 19.2107
      vertex 34.8604 0 19.2107
      vertex 34.8913 0 19.4194
    endloop
  endfacet
  facet normal 0 -1 0
    outer loop
      vertex 15.15 0 19
      vertex 34.8604 0 19.2107
      vertex 15.1396 0 19.2107
    endloop
  endfacet
  facet normal 0 -1 0
    outer loop
      vertex 15.15 0 19
      vertex 34.85 0 19
      vertex 34.8604 0 19.2107
    endloop
  endfacet
  facet normal 0 -1 0
    outer loop
      vertex 15.1396 0 18.7893
      vertex 34.85 0 19
      vertex 15.15 0 19
    endloop
  endfacet
  facet normal 0 -1 0
    outer loop
      vertex 15.1396 0 18.7893
      vertex 34.8604 0 18.7893
      vertex 34.85 0 19
    endloop
  endfacet
  facet normal 0 -1 0
    outer loop
      vertex 15.1087 0 18.5806
      vertex 34.8604 0 18.7893
      vertex 15.1396 0 18.7893
    endloop
  endfacet
  facet normal 0 -1 0
    outer loop
      vertex 15.1087 0 18.5806
      vertex 34.8913 0 18.5806
      vertex 34.8604 0 18.7893
    endloop
  endfacet
  facet normal 0 -1 0
    outer loop
      vertex 15.0574 0 18.3759
      vertex 34.8913 0 18.5806
      vertex 15.1087 0 18.5806
    endloop
  endfacet
  facet normal 0 -1 0
    outer loop
      vertex 15.0574 0 18.3759
      vertex 34.9426 0 18.3759
      vertex 34.8913 0 18.5806
    endloop
  endfacet
  facet normal 0 -1 0
    outer loop
      vertex 14.9863 0 18.1772
      vertex 34.9426 0 18.3759
      vertex 15.0574 0 18.3759
    endloop
  endfacet
  facet normal 0 -1 0
    outer loop
      vertex 14.9863 0 18.1772
      vertex 35.0137 0 18.1772
      vertex 34.9426 0 18.3759
    endloop
  endfacet
  facet normal 0 -1 0
    outer loop
      vertex 14.8961 0 17.9865
      vertex 35.0137 0 18.1772
      vertex 14.9863 0 18.1772
    endloop
  endfacet
  facet normal 0 -1 0
    outer loop
      vertex 14.8961 0 17.9865
      vertex 35.1039 0 17.9865
      vertex 35.0137 0 18.1772
    endloop
  endfacet
  facet normal 0 -1 0
    outer loop
      vertex 14.7877 0 17.8055
      vertex 35.1039 0 17.9865
      vertex 14.8961 0 17.9865
    endloop
  endfacet
  facet normal 0 -1 0
    outer loop
      vertex 14.7877 0 17.8055
      vertex 35.2123 0 17.8055
      vertex 35.1039 0 17.9865
    endloop
  endfacet
  facet normal 0 -1 0
    outer loop
      vertex 14.662 0 17.6361
      vertex 35.2123 0 17.8055
      vertex 14.7877 0 17.8055
    endloop
  endfacet
  facet normal 0 -1 0
    outer loop
      vertex 14.662 0 17.6361
      vertex 35.338 0 17.6361
      vertex 35.2123 0 17.8055
    endloop
  endfacet
  facet normal 0 -1 0
    outer loop
      vertex 14.5203 0 17.4797
      vertex 35.338 0 17.6361
      vertex 14.662 0 17.6361
    endloop
  endfacet
  facet normal 0 -1 0
    outer loop
      vertex 14.5203 0 17.4797
      vertex 35.4797 0 17.4797
      vertex 35.338 0 17.6361
    endloop
  endfacet
  facet normal 0 -1 0
    outer loop
      vertex 14.3639 0 17.338
      vertex 35.4797 0 17.4797
      vertex 14.5203 0 17.4797
    endloop
  endfacet
  facet normal 0 -1 0
    outer loop
      vertex 14.3639 0 17.338
      vertex 35.6361 0 17.338
      vertex 35.4797 0 17.4797
    endloop
  endfacet
  facet normal 0 -1 0
    outer loop
      vertex 14.1945 0 17.2123
      vertex 35.6361 0 17.338
      vertex 14.3639 0 17.338
    endloop
  endfacet
  facet normal 0 -1 0
    outer loop
      vertex 14.1945 0 17.2123
      vertex 35.8055 0 17.2123
      vertex 35.6361 0 17.338
    endloop
  endfacet
  facet normal 0 -1 0
    outer loop
      vertex 14.0135 0 17.1039
      vertex 35.8055 0 17.2123
      vertex 14.1945 0 17.2123
    endloop
  endfacet
  facet normal 0 -1 0
    outer loop
      vertex 14.0135 0 17.1039
      vertex 35.9865 0 17.1039
      vertex 35.8055 0 17.2123
    endloop
  endfacet
  facet normal 0 -1 0
    outer loop
      vertex 13.8228 0 17.0137
      vertex 35.9865 0 17.1039
      vertex 14.0135 0 17.1039
    endloop
  endfacet
  facet normal 0 -1 0
    outer loop
      vertex 13.8228 0 17.0137
      vertex 36.1772 0 17.0137
      vertex 35.9865 0 17.1039
    endloop
  endfacet
  facet normal 0 -1 0
    outer loop
      vertex 0 0 0
      vertex 13.8228 0 17.0137
      vertex 13.6241 0 16.9426
    endloop
  endfacet
  facet normal 0 -1 -0
    outer loop
      vertex 13.8228 0 17.0137
      vertex 0 0 0
      vertex 36.1772 0 17.0137
    endloop
  endfacet
  facet normal 0 -1 0
    outer loop
      vertex 0 0 0
      vertex 13.6241 0 16.9426
      vertex 13.4194 0 16.8913
    endloop
  endfacet
  facet normal 0 -1 0
    outer loop
      vertex 50 0 0
      vertex 36.1772 0 17.0137
      vertex 0 0 0
    endloop
  endfacet
  facet normal 0 -1 0
    outer loop
      vertex 0 0 0
      vertex 13.4194 0 16.8913
      vertex 13.2107 0 16.8604
    endloop
  endfacet
  facet normal 0 -1 0
    outer loop
      vertex 36.1772 0 17.0137
      vertex 50 0 0
      vertex 36.3759 0 16.9426
    endloop
  endfacet
  facet normal 0 -1 0
    outer loop
      vertex 0 0 0
      vertex 13.2107 0 16.8604
      vertex 13 0 16.85
    endloop
  endfacet
  facet normal 0 -1 0
    outer loop
      vertex 36.3759 0 16.9426
      vertex 50 0 0
      vertex 36.5806 0 16.8913
    endloop
  endfacet
  facet normal 0 -1 0
    outer loop
      vertex 13.2107 0 21.1396
      vertex 0 0 30
      vertex 13 0 21.15
    endloop
  endfacet
  facet normal 0 -1 0
    outer loop
      vertex 0 0 30
      vertex 12.7893 0 21.1396
      vertex 13 0 21.15
    endloop
  endfacet
  facet normal 0 -1 0
    outer loop
      vertex 0 0 30
      vertex 12.5806 0 21.1087
      vertex 12.7893 0 21.1396
    endloop
  endfacet
  facet normal 0 -1 0
    outer loop
      vertex 0 0 30
      vertex 12.3759 0 21.0574
      vertex 12.5806 0 21.1087
    endloop
  endfacet
  facet normal 0 -1 0
    outer loop
      vertex 0 0 30
      vertex 12.1772 0 20.9863
      vertex 12.3759 0 21.0574
    endloop
  endfacet
  facet normal 0 -1 0
    outer loop
      vertex 0 0 30
      vertex 11.9865 0 20.8961
      vertex 12.1772 0 20.9863
    endloop
  endfacet
  facet normal 0 -1 0
    outer loop
      vertex 0 0 30
      vertex 11.8055 0 20.7877
      vertex 11.9865 0 20.8961
    endloop
  endfacet
  facet normal 0 -1 0
    outer loop
      vertex 0 0 30
      vertex 11.6361 0 20.662
      vertex 11.8055 0 20.7877
    endloop
  endfacet
  facet normal 0 -1 0
    outer loop
      vertex 0 0 30
      vertex 11.4797 0 20.5203
      vertex 11.6361 0 20.662
    endloop
  endfacet
  facet normal 0 -1 0
    outer loop
      vertex 0 0 30
      vertex 11.338 0 20.3639
      vertex 11.4797 0 20.5203
    endloop
  endfacet
  facet normal 0 -1 0
    outer loop
      vertex 0 0 30
      vertex 11.2123 0 20.1945
      vertex 11.338 0 20.3639
    endloop
  endfacet
  facet normal 0 -1 0
    outer loop
      vertex 0 0 30
      vertex 11.1039 0 20.0135
      vertex 11.2123 0 20.1945
    endloop
  endfacet
  facet normal 0 -1 0
    outer loop
      vertex 0 0 30
      vertex 11.0137 0 19.8228
      vertex 11.1039 0 20.0135
    endloop
  endfacet
  facet normal 0 -1 0
    outer loop
      vertex 0 0 30
      vertex 10.9426 0 19.6241
      vertex 11.0137 0 19.8228
    endloop
  endfacet
  facet normal 0 -1 0
    outer loop
      vertex 0 0 30
      vertex 10.8913 0 19.4194
      vertex 10.9426 0 19.6241
    endloop
  endfacet
  facet normal 0 -1 0
    outer loop
      vertex 0 0 30
      vertex 10.8604 0 19.2107
      vertex 10.8913 0 19.4194
    endloop
  endfacet
  facet normal 0 -1 0
    outer loop
      vertex 0 0 30
      vertex 10.85 0 19
      vertex 10.8604 0 19.2107
    endloop
  endfacet
  facet normal 0 -1 0
    outer loop
      vertex 0 0 30
      vertex 10.8604 0 18.7893
      vertex 10.85 0 19
    endloop
  endfacet
  facet normal 0 -1 0
    outer loop
      vertex 0 0 30
      vertex 10.8913 0 18.5806
      vertex 10.8604 0 18.7893
    endloop
  endfacet
  facet normal 0 -1 0
    outer loop
      vertex 0 0 0
      vertex 10.8913 0 18.5806
      vertex 0 0 30
    endloop
  endfacet
  facet normal 0 -1 -0
    outer loop
      vertex 10.8913 0 18.5806
      vertex 0 0 0
      vertex 10.9426 0 18.3759
    endloop
  endfacet
  facet normal 0 -1 -0
    outer loop
      vertex 10.9426 0 18.3759
      vertex 0 0 0
      vertex 11.0137 0 18.1772
    endloop
  endfacet
  facet normal 0 -1 -0
    outer loop
      vertex 11.0137 0 18.1772
      vertex 0 0 0
      vertex 11.1039 0 17.9865
    endloop
  endfacet
  facet normal 0 -1 -0
    outer loop
      vertex 11.1039 0 17.9865
      vertex 0 0 0
      vertex 11.2123 0 17.8055
    endloop
  endfacet
  facet normal 0 -1 -0
    outer loop
      vertex 11.2123 0 17.8055
      vertex 0 0 0
      vertex 11.338 0 17.6361
    endloop
  endfacet
  facet normal 0 -1 0
    outer loop
      vertex 36.5806 0 16.8913
      vertex 50 0 0
      vertex 36.7893 0 16.8604
    endloop
  endfacet
  facet normal 0 -1 -0
    outer loop
      vertex 12.7893 0 16.8604
      vertex 0 0 0
      vertex 13 0 16.85
    endloop
  endfacet
  facet normal 0 -1 -0
    outer loop
      vertex 12.5806 0 16.8913
      vertex 0 0 0
      vertex 12.7893 0 16.8604
    endloop
  endfacet
  facet normal 0 -1 -0
    outer loop
      vertex 12.3759 0 16.9426
      vertex 0 0 0
      vertex 12.5806 0 16.8913
    endloop
  endfacet
  facet normal 0 -1 -0
    outer loop
      vertex 12.1772 0 17.0137
      vertex 0 0 0
      vertex 12.3759 0 16.9426
    endloop
  endfacet
  facet normal 0 -1 -0
    outer loop
      vertex 11.9865 0 17.1039
      vertex 0 0 0
      vertex 12.1772 0 17.0137
    endloop
  endfacet
  facet normal 0 -1 -0
    outer loop
      vertex 11.8055 0 17.2123
      vertex 0 0 0
      vertex 11.9865 0 17.1039
    endloop
  endfacet
  facet normal 0 -1 -0
    outer loop
      vertex 11.6361 0 17.338
      vertex 0 0 0
      vertex 11.8055 0 17.2123
    endloop
  endfacet
  facet normal 0 -1 -0
    outer loop
      vertex 11.4797 0 17.4797
      vertex 0 0 0
      vertex 11.6361 0 17.338
    endloop
  endfacet
  facet normal 0 -1 -0
    outer loop
      vertex 11.338 0 17.6361
      vertex 0 0 0
      vertex 11.4797 0 17.4797
    endloop
  endfacet
  facet normal 0 -1 0
    outer loop
      vertex 13.4194 0 21.1087
      vertex 0 0 30
      vertex 13.2107 0 21.1396
    endloop
  endfacet
  facet normal 0 -1 0
    outer loop
      vertex 37.2107 0 21.1396
      vertex 50 0 30
      vertex 37 0 21.15
    endloop
  endfacet
  facet normal 0 -1 0
    outer loop
      vertex 37.4194 0 21.1087
      vertex 50 0 30
      vertex 37.2107 0 21.1396
    endloop
  endfacet
  facet normal 0 -1 0
    outer loop
      vertex 37.6241 0 21.0574
      vertex 50 0 30
      vertex 37.4194 0 21.1087
    endloop
  endfacet
  facet normal 0 -1 0
    outer loop
      vertex 37.8228 0 20.9863
      vertex 50 0 30
      vertex 37.6241 0 21.0574
    endloop
  endfacet
  facet normal 0 -1 0
    outer loop
      vertex 38.0135 0 20.8961
      vertex 50 0 30
      vertex 37.8228 0 20.9863
    endloop
  endfacet
  facet normal 0 -1 0
    outer loop
      vertex 38.1945 0 20.7877
      vertex 50 0 30
      vertex 38.0135 0 20.8961
    endloop
  endfacet
  facet normal 0 -1 0
    outer loop
      vertex 38.3639 0 20.662
      vertex 50 0 30
      vertex 38.1945 0 20.7877
    endloop
  endfacet
  facet normal 0 -1 0
    outer loop
      vertex 38.5203 0 20.5203
      vertex 50 0 30
      vertex 38.3639 0 20.662
    endloop
  endfacet
  facet normal 0 -1 0
    outer loop
      vertex 38.662 0 20.3639
      vertex 50 0 30
      vertex 38.5203 0 20.5203
    endloop
  endfacet
  facet normal 0 -1 0
    outer loop
      vertex 38.7877 0 20.1945
      vertex 50 0 30
      vertex 38.662 0 20.3639
    endloop
  endfacet
  facet normal 0 -1 0
    outer loop
      vertex 38.8961 0 20.0135
      vertex 50 0 30
      vertex 38.7877 0 20.1945
    endloop
  endfacet
  facet normal 0 -1 0
    outer loop
      vertex 38.9863 0 19.8228
      vertex 50 0 30
      vertex 38.8961 0 20.0135
    endloop
  endfacet
  facet normal 0 -1 0
    outer loop
      vertex 39.0574 0 19.6241
      vertex 50 0 30
      vertex 38.9863 0 19.8228
    endloop
  endfacet
  facet normal 0 -1 0
    outer loop
      vertex 39.1087 0 19.4194
      vertex 50 0 30
      vertex 39.0574 0 19.6241
    endloop
  endfacet
  facet normal 0 -1 0
    outer loop
      vertex 39.1396 0 19.2107
      vertex 50 0 30
      vertex 39.1087 0 19.4194
    endloop
  endfacet
  facet normal 0 -1 0
    outer loop
      vertex 39.15 0 19
      vertex 50 0 30
      vertex 39.1396 0 19.2107
    endloop
  endfacet
  facet normal 0 -1 0
    outer loop
      vertex 39.1396 0 18.7893
      vertex 50 0 30
      vertex 39.15 0 19
    endloop
  endfacet
  facet normal 0 -1 0
    outer loop
      vertex 39.1087 0 18.5806
      vertex 50 0 30
      vertex 39.1396 0 18.7893
    endloop
  endfacet
  facet normal 0 -1 0
    outer loop
      vertex 50 0 0
      vertex 39.1087 0 18.5806
      vertex 39.0574 0 18.3759
    endloop
  endfacet
  facet normal 0 -1 0
    outer loop
      vertex 50 0 0
      vertex 39.0574 0 18.3759
      vertex 38.9863 0 18.1772
    endloop
  endfacet
  facet normal 0 -1 0
    outer loop
      vertex 50 0 0
      vertex 38.9863 0 18.1772
      vertex 38.8961 0 17.9865
    endloop
  endfacet
  facet normal 0 -1 0
    outer loop
      vertex 50 0 0
      vertex 38.8961 0 17.9865
      vertex 38.7877 0 17.8055
    endloop
  endfacet
  facet normal 0 -1 0
    outer loop
      vertex 50 0 0
      vertex 38.7877 0 17.8055
      vertex 38.662 0 17.6361
    endloop
  endfacet
  facet normal 0 -1 0
    outer loop
      vertex 50 0 0
      vertex 38.662 0 17.6361
      vertex 38.5203 0 17.4797
    endloop
  endfacet
  facet normal 0 -1 0
    outer loop
      vertex 36.7893 0 16.8604
      vertex 50 0 0
      vertex 37 0 16.85
    endloop
  endfacet
  facet normal 0 -1 0
    outer loop
      vertex 37 0 16.85
      vertex 50 0 0
      vertex 37.2107 0 16.8604
    endloop
  endfacet
  facet normal 0 -1 0
    outer loop
      vertex 37.2107 0 16.8604
      vertex 50 0 0
      vertex 37.4194 0 16.8913
    endloop
  endfacet
  facet normal 0 -1 0
    outer loop
      vertex 37.4194 0 16.8913
      vertex 50 0 0
      vertex 37.6241 0 16.9426
    endloop
  endfacet
  facet normal 0 -1 0
    outer loop
      vertex 39.1087 0 18.5806
      vertex 50 0 0
      vertex 50 0 30
    endloop
  endfacet
  facet normal 0 -1 0
    outer loop
      vertex 38.3639 0 17.338
      vertex 50 0 0
      vertex 38.5203 0 17.4797
    endloop
  endfacet
  facet normal 0 -1 0
    outer loop
      vertex 38.1945 0 17.2123
      vertex 50 0 0
      vertex 38.3639 0 17.338
    endloop
  endfacet
  facet normal 0 -1 0
    outer loop
      vertex 38.0135 0 17.1039
      vertex 50 0 0
      vertex 38.1945 0 17.2123
    endloop
  endfacet
  facet normal 0 -1 0
    outer loop
      vertex 37.8228 0 17.0137
      vertex 50 0 0
      vertex 38.0135 0 17.1039
    endloop
  endfacet
  facet normal 0 -1 0
    outer loop
      vertex 37.6241 0 16.9426
      vertex 50 0 0
      vertex 37.8228 0 17.0137
    endloop
  endfacet
  facet normal -0 0 1
    outer loop
      vertex 0 4 30
      vertex 50 0 30
      vertex 50 4 30
    endloop
  endfacet
  facet normal 0 0 1
    outer loop
      vertex 50 0 30
      vertex 0 4 30
      vertex 0 0 30
    endloop
  endfacet
  facet normal 0 1 0
    outer loop
      vertex 36.3759 4 21.0574
      vertex 50 4 30
      vertex 36.5806 4 21.1087
    endloop
  endfacet
  facet normal 0 1 0
    outer loop
      vertex 0 4 30
      vertex 13.2107 4 21.1396
      vertex 13 4 21.15
    endloop
  endfacet
  facet normal 0 1 0
    outer loop
      vertex 50 4 30
      vertex 36.3759 4 21.0574
      vertex 0 4 30
    endloop
  endfacet
  facet normal 0 1 0
    outer loop
      vertex 0 4 30
      vertex 13.4194 4 21.1087
      vertex 13.2107 4 21.1396
    endloop
  endfacet
  facet normal 0 1 -0
    outer loop
      vertex 13.6241 4 21.0574
      vertex 0 4 30
      vertex 36.3759 4 21.0574
    endloop
  endfacet
  facet normal 0 1 0
    outer loop
      vertex 0 4 30
      vertex 13.6241 4 21.0574
      vertex 13.4194 4 21.1087
    endloop
  endfacet
  facet normal 0 1 -0
    outer loop
      vertex 36.1772 4 20.9863
      vertex 13.6241 4 21.0574
      vertex 36.3759 4 21.0574
    endloop
  endfacet
  facet normal 0 1 0
    outer loop
      vertex 36.1772 4 20.9863
      vertex 13.8228 4 20.9863
      vertex 13.6241 4 21.0574
    endloop
  endfacet
  facet normal 0 1 -0
    outer loop
      vertex 35.9865 4 20.8961
      vertex 13.8228 4 20.9863
      vertex 36.1772 4 20.9863
    endloop
  endfacet
  facet normal 0 1 0
    outer loop
      vertex 35.9865 4 20.8961
      vertex 14.0135 4 20.8961
      vertex 13.8228 4 20.9863
    endloop
  endfacet
  facet normal 0 1 -0
    outer loop
      vertex 35.8055 4 20.7877
      vertex 14.0135 4 20.8961
      vertex 35.9865 4 20.8961
    endloop
  endfacet
  facet normal 0 1 0
    outer loop
      vertex 35.8055 4 20.7877
      vertex 14.1945 4 20.7877
      vertex 14.0135 4 20.8961
    endloop
  endfacet
  facet normal 0 1 -0
    outer loop
      vertex 35.6361 4 20.662
      vertex 14.1945 4 20.7877
      vertex 35.8055 4 20.7877
    endloop
  endfacet
  facet normal 0 1 0
    outer loop
      vertex 35.6361 4 20.662
      vertex 14.3639 4 20.662
      vertex 14.1945 4 20.7877
    endloop
  endfacet
  facet normal 0 1 -0
    outer loop
      vertex 35.4797 4 20.5203
      vertex 14.3639 4 20.662
      vertex 35.6361 4 20.662
    endloop
  endfacet
  facet normal 0 1 0
    outer loop
      vertex 35.4797 4 20.5203
      vertex 14.5203 4 20.5203
      vertex 14.3639 4 20.662
    endloop
  endfacet
  facet normal 0 1 -0
    outer loop
      vertex 35.338 4 20.3639
      vertex 14.5203 4 20.5203
      vertex 35.4797 4 20.5203
    endloop
  endfacet
  facet normal 0 1 0
    outer loop
      vertex 35.338 4 20.3639
      vertex 14.662 4 20.3639
      vertex 14.5203 4 20.5203
    endloop
  endfacet
  facet normal 0 1 -0
    outer loop
      vertex 35.2123 4 20.1945
      vertex 14.662 4 20.3639
      vertex 35.338 4 20.3639
    endloop
  endfacet
  facet normal 0 1 0
    outer loop
      vertex 35.2123 4 20.1945
      vertex 14.7877 4 20.1945
      vertex 14.662 4 20.3639
    endloop
  endfacet
  facet normal 0 1 -0
    outer loop
      vertex 35.1039 4 20.0135
      vertex 14.7877 4 20.1945
      vertex 35.2123 4 20.1945
    endloop
  endfacet
  facet normal 0 1 0
    outer loop
      vertex 35.1039 4 20.0135
      vertex 14.8961 4 20.0135
      vertex 14.7877 4 20.1945
    endloop
  endfacet
  facet normal 0 1 -0
    outer loop
      vertex 35.0137 4 19.8228
      vertex 14.8961 4 20.0135
      vertex 35.1039 4 20.0135
    endloop
  endfacet
  facet normal 0 1 0
    outer loop
      vertex 35.0137 4 19.8228
      vertex 14.9863 4 19.8228
      vertex 14.8961 4 20.0135
    endloop
  endfacet
  facet normal 0 1 -0
    outer loop
      vertex 34.9426 4 19.6241
      vertex 14.9863 4 19.8228
      vertex 35.0137 4 19.8228
    endloop
  endfacet
  facet normal 0 1 0
    outer loop
      vertex 34.9426 4 19.6241
      vertex 15.0574 4 19.6241
      vertex 14.9863 4 19.8228
    endloop
  endfacet
  facet normal 0 1 -0
    outer loop
      vertex 34.8913 4 19.4194
      vertex 15.0574 4 19.6241
      vertex 34.9426 4 19.6241
    endloop
  endfacet
  facet normal 0 1 0
    outer loop
      vertex 34.8913 4 19.4194
      vertex 15.1087 4 19.4194
      vertex 15.0574 4 19.6241
    endloop
  endfacet
  facet normal 0 1 -0
    outer loop
      vertex 34.8604 4 19.2107
      vertex 15.1087 4 19.4194
      vertex 34.8913 4 19.4194
    endloop
  endfacet
  facet normal 0 1 0
    outer loop
      vertex 34.8604 4 19.2107
      vertex 15.1396 4 19.2107
      vertex 15.1087 4 19.4194
    endloop
  endfacet
  facet normal 0 1 -0
    outer loop
      vertex 34.85 4 19
      vertex 15.1396 4 19.2107
      vertex 34.8604 4 19.2107
    endloop
  endfacet
  facet normal 0 1 0
    outer loop
      vertex 34.85 4 19
      vertex 15.15 4 19
      vertex 15.1396 4 19.2107
    endloop
  endfacet
  facet normal 0 1 0
    outer loop
      vertex 34.8604 4 18.7893
      vertex 15.15 4 19
      vertex 34.85 4 19
    endloop
  endfacet
  facet normal 0 1 0
    outer loop
      vertex 34.8604 4 18.7893
      vertex 15.1396 4 18.7893
      vertex 15.15 4 19
    endloop
  endfacet
  facet normal 0 1 0
    outer loop
      vertex 34.8913 4 18.5806
      vertex 15.1396 4 18.7893
      vertex 34.8604 4 18.7893
    endloop
  endfacet
  facet normal 0 1 0
    outer loop
      vertex 34.8913 4 18.5806
      vertex 15.1087 4 18.5806
      vertex 15.1396 4 18.7893
    endloop
  endfacet
  facet normal 0 1 0
    outer loop
      vertex 34.9426 4 18.3759
      vertex 15.1087 4 18.5806
      vertex 34.8913 4 18.5806
    endloop
  endfacet
  facet normal 0 1 0
    outer loop
      vertex 34.9426 4 18.3759
      vertex 15.0574 4 18.3759
      vertex 15.1087 4 18.5806
    endloop
  endfacet
  facet normal 0 1 0
    outer loop
      vertex 35.0137 4 18.1772
      vertex 15.0574 4 18.3759
      vertex 34.9426 4 18.3759
    endloop
  endfacet
  facet normal 0 1 0
    outer loop
      vertex 35.0137 4 18.1772
      vertex 14.9863 4 18.1772
      vertex 15.0574 4 18.3759
    endloop
  endfacet
  facet normal 0 1 0
    outer loop
      vertex 35.1039 4 17.9865
      vertex 14.9863 4 18.1772
      vertex 35.0137 4 18.1772
    endloop
  endfacet
  facet normal 0 1 0
    outer loop
      vertex 35.1039 4 17.9865
      vertex 14.8961 4 17.9865
      vertex 14.9863 4 18.1772
    endloop
  endfacet
  facet normal 0 1 0
    outer loop
      vertex 35.2123 4 17.8055
      vertex 14.8961 4 17.9865
      vertex 35.1039 4 17.9865
    endloop
  endfacet
  facet normal 0 1 0
    outer loop
      vertex 35.2123 4 17.8055
      vertex 14.7877 4 17.8055
      vertex 14.8961 4 17.9865
    endloop
  endfacet
  facet normal 0 1 0
    outer loop
      vertex 35.338 4 17.6361
      vertex 14.7877 4 17.8055
      vertex 35.2123 4 17.8055
    endloop
  endfacet
  facet normal 0 1 0
    outer loop
      vertex 35.338 4 17.6361
      vertex 14.662 4 17.6361
      vertex 14.7877 4 17.8055
    endloop
  endfacet
  facet normal 0 1 0
    outer loop
      vertex 35.4797 4 17.4797
      vertex 14.662 4 17.6361
      vertex 35.338 4 17.6361
    endloop
  endfacet
  facet normal 0 1 0
    outer loop
      vertex 35.4797 4 17.4797
      vertex 14.5203 4 17.4797
      vertex 14.662 4 17.6361
    endloop
  endfacet
  facet normal 0 1 0
    outer loop
      vertex 35.6361 4 17.338
      vertex 14.5203 4 17.4797
      vertex 35.4797 4 17.4797
    endloop
  endfacet
  facet normal 0 1 0
    outer loop
      vertex 35.6361 4 17.338
      vertex 14.3639 4 17.338
      vertex 14.5203 4 17.4797
    endloop
  endfacet
  facet normal 0 1 0
    outer loop
      vertex 35.8055 4 17.2123
      vertex 14.3639 4 17.338
      vertex 35.6361 4 17.338
    endloop
  endfacet
  facet normal 0 1 0
    outer loop
      vertex 35.8055 4 17.2123
      vertex 14.1945 4 17.2123
      vertex 14.3639 4 17.338
    endloop
  endfacet
  facet normal 0 1 0
    outer loop
      vertex 35.9865 4 17.1039
      vertex 14.1945 4 17.2123
      vertex 35.8055 4 17.2123
    endloop
  endfacet
  facet normal 0 1 0
    outer loop
      vertex 35.9865 4 17.1039
      vertex 14.0135 4 17.1039
      vertex 14.1945 4 17.2123
    endloop
  endfacet
  facet normal 0 1 0
    outer loop
      vertex 36.1772 4 17.0137
      vertex 14.0135 4 17.1039
      vertex 35.9865 4 17.1039
    endloop
  endfacet
  facet normal 0 1 0
    outer loop
      vertex 36.1772 4 17.0137
      vertex 13.8228 4 17.0137
      vertex 14.0135 4 17.1039
    endloop
  endfacet
  facet normal 0 1 0
    outer loop
      vertex 50 4 4
      vertex 36.1772 4 17.0137
      vertex 36.3759 4 16.9426
    endloop
  endfacet
  facet normal 0 1 0
    outer loop
      vertex 36.1772 4 17.0137
      vertex 50 4 4
      vertex 13.8228 4 17.0137
    endloop
  endfacet
  facet normal 0 1 0
    outer loop
      vertex 50 4 4
      vertex 36.3759 4 16.9426
      vertex 36.5806 4 16.8913
    endloop
  endfacet
  facet normal 0 1 0
    outer loop
      vertex 0 4 4
      vertex 13.8228 4 17.0137
      vertex 50 4 4
    endloop
  endfacet
  facet normal 0 1 0
    outer loop
      vertex 50 4 4
      vertex 36.5806 4 16.8913
      vertex 36.7893 4 16.8604
    endloop
  endfacet
  facet normal 0 1 0
    outer loop
      vertex 13.8228 4 17.0137
      vertex 0 4 4
      vertex 13.6241 4 16.9426
    endloop
  endfacet
  facet normal 0 1 0
    outer loop
      vertex 50 4 4
      vertex 36.7893 4 16.8604
      vertex 37 4 16.85
    endloop
  endfacet
  facet normal 0 1 0
    outer loop
      vertex 13.6241 4 16.9426
      vertex 0 4 4
      vertex 13.4194 4 16.8913
    endloop
  endfacet
  facet normal 0 1 0
    outer loop
      vertex 36.7893 4 21.1396
      vertex 50 4 30
      vertex 37 4 21.15
    endloop
  endfacet
  facet normal 0 1 0
    outer loop
      vertex 50 4 30
      vertex 37.2107 4 21.1396
      vertex 37 4 21.15
    endloop
  endfacet
  facet normal 0 1 0
    outer loop
      vertex 50 4 30
      vertex 37.4194 4 21.1087
      vertex 37.2107 4 21.1396
    endloop
  endfacet
  facet normal 0 1 0
    outer loop
      vertex 50 4 30
      vertex 37.6241 4 21.0574
      vertex 37.4194 4 21.1087
    endloop
  endfacet
  facet normal 0 1 0
    outer loop
      vertex 50 4 30
      vertex 37.8228 4 20.9863
      vertex 37.6241 4 21.0574
    endloop
  endfacet
  facet normal 0 1 0
    outer loop
      vertex 50 4 30
      vertex 38.0135 4 20.8961
      vertex 37.8228 4 20.9863
    endloop
  endfacet
  facet normal 0 1 0
    outer loop
      vertex 50 4 30
      vertex 38.1945 4 20.7877
      vertex 38.0135 4 20.8961
    endloop
  endfacet
  facet normal 0 1 0
    outer loop
      vertex 50 4 30
      vertex 38.3639 4 20.662
      vertex 38.1945 4 20.7877
    endloop
  endfacet
  facet normal 0 1 0
    outer loop
      vertex 50 4 30
      vertex 38.5203 4 20.5203
      vertex 38.3639 4 20.662
    endloop
  endfacet
  facet normal 0 1 0
    outer loop
      vertex 50 4 30
      vertex 38.662 4 20.3639
      vertex 38.5203 4 20.5203
    endloop
  endfacet
  facet normal 0 1 0
    outer loop
      vertex 50 4 30
      vertex 38.7877 4 20.1945
      vertex 38.662 4 20.3639
    endloop
  endfacet
  facet normal 0 1 0
    outer loop
      vertex 50 4 30
      vertex 38.8961 4 20.0135
      vertex 38.7877 4 20.1945
    endloop
  endfacet
  facet normal 0 1 0
    outer loop
      vertex 50 4 30
      vertex 38.9863 4 19.8228
      vertex 38.8961 4 20.0135
    endloop
  endfacet
  facet normal 0 1 0
    outer loop
      vertex 50 4 30
      vertex 39.0574 4 19.6241
      vertex 38.9863 4 19.8228
    endloop
  endfacet
  facet normal 0 1 0
    outer loop
      vertex 50 4 30
      vertex 39.1087 4 19.4194
      vertex 39.0574 4 19.6241
    endloop
  endfacet
  facet normal 0 1 0
    outer loop
      vertex 50 4 30
      vertex 39.1396 4 19.2107
      vertex 39.1087 4 19.4194
    endloop
  endfacet
  facet normal 0 1 0
    outer loop
      vertex 50 4 30
      vertex 39.15 4 19
      vertex 39.1396 4 19.2107
    endloop
  endfacet
  facet normal 0 1 0
    outer loop
      vertex 50 4 30
      vertex 39.1396 4 18.7893
      vertex 39.15 4 19
    endloop
  endfacet
  facet normal 0 1 -0
    outer loop
      vertex 50 4 4
      vertex 39.1396 4 18.7893
      vertex 50 4 30
    endloop
  endfacet
  facet normal 0 1 0
    outer loop
      vertex 39.1396 4 18.7893
      vertex 50 4 4
      vertex 39.1087 4 18.5806
    endloop
  endfacet
  facet normal 0 1 0
    outer loop
      vertex 39.1087 4 18.5806
      vertex 50 4 4
      vertex 39.0574 4 18.3759
    endloop
  endfacet
  facet normal 0 1 0
    outer loop
      vertex 39.0574 4 18.3759
      vertex 50 4 4
      vertex 38.9863 4 18.1772
    endloop
  endfacet
  facet normal 0 1 0
    outer loop
      vertex 38.9863 4 18.1772
      vertex 50 4 4
      vertex 38.8961 4 17.9865
    endloop
  endfacet
  facet normal 0 1 0
    outer loop
      vertex 38.8961 4 17.9865
      vertex 50 4 4
      vertex 38.7877 4 17.8055
    endloop
  endfacet
  facet normal 0 1 0
    outer loop
      vertex 38.7877 4 17.8055
      vertex 50 4 4
      vertex 38.662 4 17.6361
    endloop
  endfacet
  facet normal 0 1 0
    outer loop
      vertex 13.4194 4 16.8913
      vertex 0 4 4
      vertex 13.2107 4 16.8604
    endloop
  endfacet
  facet normal 0 1 0
    outer loop
      vertex 37.2107 4 16.8604
      vertex 50 4 4
      vertex 37 4 16.85
    endloop
  endfacet
  facet normal 0 1 0
    outer loop
      vertex 37.4194 4 16.8913
      vertex 50 4 4
      vertex 37.2107 4 16.8604
    endloop
  endfacet
  facet normal 0 1 0
    outer loop
      vertex 37.6241 4 16.9426
      vertex 50 4 4
      vertex 37.4194 4 16.8913
    endloop
  endfacet
  facet normal 0 1 0
    outer loop
      vertex 37.8228 4 17.0137
      vertex 50 4 4
      vertex 37.6241 4 16.9426
    endloop
  endfacet
  facet normal 0 1 0
    outer loop
      vertex 38.0135 4 17.1039
      vertex 50 4 4
      vertex 37.8228 4 17.0137
    endloop
  endfacet
  facet normal 0 1 0
    outer loop
      vertex 38.1945 4 17.2123
      vertex 50 4 4
      vertex 38.0135 4 17.1039
    endloop
  endfacet
  facet normal 0 1 0
    outer loop
      vertex 38.3639 4 17.338
      vertex 50 4 4
      vertex 38.1945 4 17.2123
    endloop
  endfacet
  facet normal 0 1 0
    outer loop
      vertex 38.5203 4 17.4797
      vertex 50 4 4
      vertex 38.3639 4 17.338
    endloop
  endfacet
  facet normal 0 1 0
    outer loop
      vertex 38.662 4 17.6361
      vertex 50 4 4
      vertex 38.5203 4 17.4797
    endloop
  endfacet
  facet normal 0 1 0
    outer loop
      vertex 36.5806 4 21.1087
      vertex 50 4 30
      vertex 36.7893 4 21.1396
    endloop
  endfacet
  facet normal 0 1 -0
    outer loop
      vertex 12.7893 4 21.1396
      vertex 0 4 30
      vertex 13 4 21.15
    endloop
  endfacet
  facet normal 0 1 -0
    outer loop
      vertex 12.5806 4 21.1087
      vertex 0 4 30
      vertex 12.7893 4 21.1396
    endloop
  endfacet
  facet normal 0 1 -0
    outer loop
      vertex 12.3759 4 21.0574
      vertex 0 4 30
      vertex 12.5806 4 21.1087
    endloop
  endfacet
  facet normal 0 1 -0
    outer loop
      vertex 12.1772 4 20.9863
      vertex 0 4 30
      vertex 12.3759 4 21.0574
    endloop
  endfacet
  facet normal 0 1 -0
    outer loop
      vertex 11.9865 4 20.8961
      vertex 0 4 30
      vertex 12.1772 4 20.9863
    endloop
  endfacet
  facet normal 0 1 -0
    outer loop
      vertex 11.8055 4 20.7877
      vertex 0 4 30
      vertex 11.9865 4 20.8961
    endloop
  endfacet
  facet normal 0 1 -0
    outer loop
      vertex 11.6361 4 20.662
      vertex 0 4 30
      vertex 11.8055 4 20.7877
    endloop
  endfacet
  facet normal 0 1 -0
    outer loop
      vertex 11.4797 4 20.5203
      vertex 0 4 30
      vertex 11.6361 4 20.662
    endloop
  endfacet
  facet normal 0 1 -0
    outer loop
      vertex 11.338 4 20.3639
      vertex 0 4 30
      vertex 11.4797 4 20.5203
    endloop
  endfacet
  facet normal 0 1 -0
    outer loop
      vertex 11.2123 4 20.1945
      vertex 0 4 30
      vertex 11.338 4 20.3639
    endloop
  endfacet
  facet normal 0 1 -0
    outer loop
      vertex 11.1039 4 20.0135
      vertex 0 4 30
      vertex 11.2123 4 20.1945
    endloop
  endfacet
  facet normal 0 1 -0
    outer loop
      vertex 11.0137 4 19.8228
      vertex 0 4 30
      vertex 11.1039 4 20.0135
    endloop
  endfacet
  facet normal 0 1 -0
    outer loop
      vertex 10.9426 4 19.6241
      vertex 0 4 30
      vertex 11.0137 4 19.8228
    endloop
  endfacet
  facet normal 0 1 -0
    outer loop
      vertex 10.8913 4 19.4194
      vertex 0 4 30
      vertex 10.9426 4 19.6241
    endloop
  endfacet
  facet normal 0 1 -0
    outer loop
      vertex 10.8604 4 19.2107
      vertex 0 4 30
      vertex 10.8913 4 19.4194
    endloop
  endfacet
  facet normal 0 1 -0
    outer loop
      vertex 10.85 4 19
      vertex 0 4 30
      vertex 10.8604 4 19.2107
    endloop
  endfacet
  facet normal 0 1 0
    outer loop
      vertex 10.8604 4 18.7893
      vertex 0 4 30
      vertex 10.85 4 19
    endloop
  endfacet
  facet normal 0 1 0
    outer loop
      vertex 0 4 4
      vertex 10.8604 4 18.7893
      vertex 10.8913 4 18.5806
    endloop
  endfacet
  facet normal 0 1 0
    outer loop
      vertex 0 4 4
      vertex 10.8913 4 18.5806
      vertex 10.9426 4 18.3759
    endloop
  endfacet
  facet normal 0 1 0
    outer loop
      vertex 0 4 4
      vertex 10.9426 4 18.3759
      vertex 11.0137 4 18.1772
    endloop
  endfacet
  facet normal 0 1 0
    outer loop
      vertex 0 4 4
      vertex 11.0137 4 18.1772
      vertex 11.1039 4 17.9865
    endloop
  endfacet
  facet normal 0 1 0
    outer loop
      vertex 0 4 4
      vertex 11.1039 4 17.9865
      vertex 11.2123 4 17.8055
    endloop
  endfacet
  facet normal 0 1 0
    outer loop
      vertex 0 4 4
      vertex 11.2123 4 17.8055
      vertex 11.338 4 17.6361
    endloop
  endfacet
  facet normal 0 1 0
    outer loop
      vertex 0 4 4
      vertex 11.338 4 17.6361
      vertex 11.4797 4 17.4797
    endloop
  endfacet
  facet normal 0 1 0
    outer loop
      vertex 13.2107 4 16.8604
      vertex 0 4 4
      vertex 13 4 16.85
    endloop
  endfacet
  facet normal 0 1 0
    outer loop
      vertex 13 4 16.85
      vertex 0 4 4
      vertex 12.7893 4 16.8604
    endloop
  endfacet
  facet normal 0 1 0
    outer loop
      vertex 12.7893 4 16.8604
      vertex 0 4 4
      vertex 12.5806 4 16.8913
    endloop
  endfacet
  facet normal 0 1 0
    outer loop
      vertex 10.8604 4 18.7893
      vertex 0 4 4
      vertex 0 4 30
    endloop
  endfacet
  facet normal 0 1 0
    outer loop
      vertex 11.6361 4 17.338
      vertex 0 4 4
      vertex 11.4797 4 17.4797
    endloop
  endfacet
  facet normal 0 1 0
    outer loop
      vertex 11.8055 4 17.2123
      vertex 0 4 4
      vertex 11.6361 4 17.338
    endloop
  endfacet
  facet normal 0 1 0
    outer loop
      vertex 11.9865 4 17.1039
      vertex 0 4 4
      vertex 11.8055 4 17.2123
    endloop
  endfacet
  facet normal 0 1 0
    outer loop
      vertex 12.1772 4 17.0137
      vertex 0 4 4
      vertex 11.9865 4 17.1039
    endloop
  endfacet
  facet normal 0 1 0
    outer loop
      vertex 12.3759 4 16.9426
      vertex 0 4 4
      vertex 12.1772 4 17.0137
    endloop
  endfacet
  facet normal 0 1 0
    outer loop
      vertex 12.5806 4 16.8913
      vertex 0 4 4
      vertex 12.3759 4 16.9426
    endloop
  endfacet
  facet normal -0 0 1
    outer loop
      vertex 0 14 9
      vertex 50 11 9
      vertex 50 14 9
    endloop
  endfacet
  facet normal 0 0 1
    outer loop
      vertex 50 11 9
      vertex 0 14 9
      vertex 0 11 9
    endloop
  endfacet
  facet normal 0 -1 0
    outer loop
      vertex 0 11 4
      vertex 50 11 9
      vertex 0 11 9
    endloop
  endfacet
  facet normal 0 -1 -0
    outer loop
      vertex 50 11 9
      vertex 0 11 4
      vertex 50 11 4
    endloop
  endfacet
  facet normal -0.989216 0 0.146463
    outer loop
      vertex 15.1087 0 18.5806
      vertex 15.1396 4 18.7893
      vertex 15.1087 4 18.5806
    endloop
  endfacet
  facet normal -0.989216 0 0.146463
    outer loop
      vertex 15.1396 4 18.7893
      vertex 15.1087 0 18.5806
      vertex 15.1396 0 18.7893
    endloop
  endfacet
  facet normal -0.998784 0 0.0492993
    outer loop
      vertex 15.1396 0 18.7893
      vertex 15.15 4 19
      vertex 15.1396 4 18.7893
    endloop
  endfacet
  facet normal -0.998784 0 0.0492993
    outer loop
      vertex 15.15 4 19
      vertex 15.1396 0 18.7893
      vertex 15.15 0 19
    endloop
  endfacet
  facet normal -0.970003 0 0.243093
    outer loop
      vertex 15.0574 0 18.3759
      vertex 15.1087 4 18.5806
      vertex 15.0574 4 18.3759
    endloop
  endfacet
  facet normal -0.970003 0 0.243093
    outer loop
      vertex 15.1087 4 18.5806
      vertex 15.0574 0 18.3759
      vertex 15.1087 0 18.5806
    endloop
  endfacet
  facet normal -0.427577 0 -0.903979
    outer loop
      vertex 13.8228 0 20.9863
      vertex 14.0135 4 20.8961
      vertex 14.0135 0 20.8961
    endloop
  endfacet
  facet normal -0.427577 0 -0.903979
    outer loop
      vertex 14.0135 4 20.8961
      vertex 13.8228 0 20.9863
      vertex 13.8228 4 20.9863
    endloop
  endfacet
  facet normal 0.595896 0 0.803061
    outer loop
      vertex 11.6361 4 17.338
      vertex 11.8055 0 17.2123
      vertex 11.8055 4 17.2123
    endloop
  endfacet
  facet normal 0.595896 0 0.803061
    outer loop
      vertex 11.8055 0 17.2123
      vertex 11.6361 4 17.338
      vertex 11.6361 0 17.338
    endloop
  endfacet
  facet normal 0.903979 -0 0.427577
    outer loop
      vertex 11.0137 0 18.1772
      vertex 11.1039 4 17.9865
      vertex 11.0137 4 18.1772
    endloop
  endfacet
  facet normal 0.903979 0 0.427577
    outer loop
      vertex 11.1039 4 17.9865
      vertex 11.0137 0 18.1772
      vertex 11.1039 0 17.9865
    endloop
  endfacet
  facet normal 0.970003 -0 0.243093
    outer loop
      vertex 10.8913 0 18.5806
      vertex 10.9426 4 18.3759
      vertex 10.8913 4 18.5806
    endloop
  endfacet
  facet normal 0.970003 0 0.243093
    outer loop
      vertex 10.9426 4 18.3759
      vertex 10.8913 0 18.5806
      vertex 10.9426 0 18.3759
    endloop
  endfacet
  facet normal -0.513799 0 -0.857911
    outer loop
      vertex 14.0135 0 20.8961
      vertex 14.1945 4 20.7877
      vertex 14.1945 0 20.7877
    endloop
  endfacet
  facet normal -0.513799 0 -0.857911
    outer loop
      vertex 14.1945 4 20.7877
      vertex 14.0135 0 20.8961
      vertex 14.0135 4 20.8961
    endloop
  endfacet
  facet normal -0.243093 0 -0.970003
    outer loop
      vertex 13.4194 0 21.1087
      vertex 13.6241 4 21.0574
      vertex 13.6241 0 21.0574
    endloop
  endfacet
  facet normal -0.243093 0 -0.970003
    outer loop
      vertex 13.6241 4 21.0574
      vertex 13.4194 0 21.1087
      vertex 13.4194 4 21.1087
    endloop
  endfacet
  facet normal -0.0492993 0 0.998784
    outer loop
      vertex 13 4 16.85
      vertex 13.2107 0 16.8604
      vertex 13.2107 4 16.8604
    endloop
  endfacet
  facet normal -0.0492993 0 0.998784
    outer loop
      vertex 13.2107 0 16.8604
      vertex 13 4 16.85
      vertex 13 0 16.85
    endloop
  endfacet
  facet normal -0.146463 0 0.989216
    outer loop
      vertex 13.2107 4 16.8604
      vertex 13.4194 0 16.8913
      vertex 13.4194 4 16.8913
    endloop
  endfacet
  facet normal -0.146463 0 0.989216
    outer loop
      vertex 13.4194 0 16.8913
      vertex 13.2107 4 16.8604
      vertex 13.2107 0 16.8604
    endloop
  endfacet
  facet normal -0.427577 0 0.903979
    outer loop
      vertex 13.8228 4 17.0137
      vertex 14.0135 0 17.1039
      vertex 14.0135 4 17.1039
    endloop
  endfacet
  facet normal -0.427577 0 0.903979
    outer loop
      vertex 14.0135 0 17.1039
      vertex 13.8228 4 17.0137
      vertex 13.8228 0 17.0137
    endloop
  endfacet
  facet normal -0.146463 0 -0.989216
    outer loop
      vertex 13.2107 0 21.1396
      vertex 13.4194 4 21.1087
      vertex 13.4194 0 21.1087
    endloop
  endfacet
  facet normal -0.146463 0 -0.989216
    outer loop
      vertex 13.4194 4 21.1087
      vertex 13.2107 0 21.1396
      vertex 13.2107 4 21.1396
    endloop
  endfacet
  facet normal -0.803061 0 -0.595896
    outer loop
      vertex 14.7877 0 20.1945
      vertex 14.662 4 20.3639
      vertex 14.7877 4 20.1945
    endloop
  endfacet
  facet normal -0.803061 -0 -0.595896
    outer loop
      vertex 14.662 4 20.3639
      vertex 14.7877 0 20.1945
      vertex 14.662 0 20.3639
    endloop
  endfacet
  facet normal 0.741075 0 -0.671422
    outer loop
      vertex 11.4797 0 20.5203
      vertex 11.338 4 20.3639
      vertex 11.4797 4 20.5203
    endloop
  endfacet
  facet normal 0.741075 0 -0.671422
    outer loop
      vertex 11.338 4 20.3639
      vertex 11.4797 0 20.5203
      vertex 11.338 0 20.3639
    endloop
  endfacet
  facet normal 0.513799 0 0.857911
    outer loop
      vertex 11.8055 4 17.2123
      vertex 11.9865 0 17.1039
      vertex 11.9865 4 17.1039
    endloop
  endfacet
  facet normal 0.513799 0 0.857911
    outer loop
      vertex 11.9865 0 17.1039
      vertex 11.8055 4 17.2123
      vertex 11.8055 0 17.2123
    endloop
  endfacet
  facet normal -0.989216 0 -0.146463
    outer loop
      vertex 15.1396 0 19.2107
      vertex 15.1087 4 19.4194
      vertex 15.1396 4 19.2107
    endloop
  endfacet
  facet normal -0.989216 -0 -0.146463
    outer loop
      vertex 15.1087 4 19.4194
      vertex 15.1396 0 19.2107
      vertex 15.1087 0 19.4194
    endloop
  endfacet
  facet normal 0.146463 0 -0.989216
    outer loop
      vertex 12.5806 0 21.1087
      vertex 12.7893 4 21.1396
      vertex 12.7893 0 21.1396
    endloop
  endfacet
  facet normal 0.146463 0 -0.989216
    outer loop
      vertex 12.7893 4 21.1396
      vertex 12.5806 0 21.1087
      vertex 12.5806 4 21.1087
    endloop
  endfacet
  facet normal -0.595896 0 -0.803061
    outer loop
      vertex 14.1945 0 20.7877
      vertex 14.3639 4 20.662
      vertex 14.3639 0 20.662
    endloop
  endfacet
  facet normal -0.595896 0 -0.803061
    outer loop
      vertex 14.3639 4 20.662
      vertex 14.1945 0 20.7877
      vertex 14.1945 4 20.7877
    endloop
  endfacet
  facet normal 0.0492993 0 -0.998784
    outer loop
      vertex 12.7893 0 21.1396
      vertex 13 4 21.15
      vertex 13 0 21.15
    endloop
  endfacet
  facet normal 0.0492993 0 -0.998784
    outer loop
      vertex 13 4 21.15
      vertex 12.7893 0 21.1396
      vertex 12.7893 4 21.1396
    endloop
  endfacet
  facet normal -0.595896 0 0.803061
    outer loop
      vertex 14.1945 4 17.2123
      vertex 14.3639 0 17.338
      vertex 14.3639 4 17.338
    endloop
  endfacet
  facet normal -0.595896 0 0.803061
    outer loop
      vertex 14.3639 0 17.338
      vertex 14.1945 4 17.2123
      vertex 14.1945 0 17.2123
    endloop
  endfacet
  facet normal -0.970003 0 -0.243093
    outer loop
      vertex 15.1087 0 19.4194
      vertex 15.0574 4 19.6241
      vertex 15.1087 4 19.4194
    endloop
  endfacet
  facet normal -0.970003 -0 -0.243093
    outer loop
      vertex 15.0574 4 19.6241
      vertex 15.1087 0 19.4194
      vertex 15.0574 0 19.6241
    endloop
  endfacet
  facet normal 0.989216 -0 0.146463
    outer loop
      vertex 10.8604 0 18.7893
      vertex 10.8913 4 18.5806
      vertex 10.8604 4 18.7893
    endloop
  endfacet
  facet normal 0.989216 0 0.146463
    outer loop
      vertex 10.8913 4 18.5806
      vertex 10.8604 0 18.7893
      vertex 10.8913 0 18.5806
    endloop
  endfacet
  facet normal 0.857911 -0 0.513799
    outer loop
      vertex 11.1039 0 17.9865
      vertex 11.2123 4 17.8055
      vertex 11.1039 4 17.9865
    endloop
  endfacet
  facet normal 0.857911 0 0.513799
    outer loop
      vertex 11.2123 4 17.8055
      vertex 11.1039 0 17.9865
      vertex 11.2123 0 17.8055
    endloop
  endfacet
  facet normal 0.941538 0 -0.336907
    outer loop
      vertex 11.0137 0 19.8228
      vertex 10.9426 4 19.6241
      vertex 11.0137 4 19.8228
    endloop
  endfacet
  facet normal 0.941538 0 -0.336907
    outer loop
      vertex 10.9426 4 19.6241
      vertex 11.0137 0 19.8228
      vertex 10.9426 0 19.6241
    endloop
  endfacet
  facet normal 0.146463 0 0.989216
    outer loop
      vertex 12.5806 4 16.8913
      vertex 12.7893 0 16.8604
      vertex 12.7893 4 16.8604
    endloop
  endfacet
  facet normal 0.146463 0 0.989216
    outer loop
      vertex 12.7893 0 16.8604
      vertex 12.5806 4 16.8913
      vertex 12.5806 0 16.8913
    endloop
  endfacet
  facet normal -0.803061 0 0.595896
    outer loop
      vertex 14.662 0 17.6361
      vertex 14.7877 4 17.8055
      vertex 14.662 4 17.6361
    endloop
  endfacet
  facet normal -0.803061 0 0.595896
    outer loop
      vertex 14.7877 4 17.8055
      vertex 14.662 0 17.6361
      vertex 14.7877 0 17.8055
    endloop
  endfacet
  facet normal 0.970003 0 -0.243093
    outer loop
      vertex 10.9426 0 19.6241
      vertex 10.8913 4 19.4194
      vertex 10.9426 4 19.6241
    endloop
  endfacet
  facet normal 0.970003 0 -0.243093
    outer loop
      vertex 10.8913 4 19.4194
      vertex 10.9426 0 19.6241
      vertex 10.8913 0 19.4194
    endloop
  endfacet
  facet normal 0.998784 0 -0.0492993
    outer loop
      vertex 10.8604 0 19.2107
      vertex 10.85 4 19
      vertex 10.8604 4 19.2107
    endloop
  endfacet
  facet normal 0.998784 0 -0.0492993
    outer loop
      vertex 10.85 4 19
      vertex 10.8604 0 19.2107
      vertex 10.85 0 19
    endloop
  endfacet
  facet normal -0.513799 0 0.857911
    outer loop
      vertex 14.0135 4 17.1039
      vertex 14.1945 0 17.2123
      vertex 14.1945 4 17.2123
    endloop
  endfacet
  facet normal -0.513799 0 0.857911
    outer loop
      vertex 14.1945 0 17.2123
      vertex 14.0135 4 17.1039
      vertex 14.0135 0 17.1039
    endloop
  endfacet
  facet normal -0.998784 0 -0.0492993
    outer loop
      vertex 15.15 0 19
      vertex 15.1396 4 19.2107
      vertex 15.15 4 19
    endloop
  endfacet
  facet normal -0.998784 -0 -0.0492993
    outer loop
      vertex 15.1396 4 19.2107
      vertex 15.15 0 19
      vertex 15.1396 0 19.2107
    endloop
  endfacet
  facet normal -0.903979 0 -0.427577
    outer loop
      vertex 14.9863 0 19.8228
      vertex 14.8961 4 20.0135
      vertex 14.9863 4 19.8228
    endloop
  endfacet
  facet normal -0.903979 -0 -0.427577
    outer loop
      vertex 14.8961 4 20.0135
      vertex 14.9863 0 19.8228
      vertex 14.8961 0 20.0135
    endloop
  endfacet
  facet normal -0.857911 0 0.513799
    outer loop
      vertex 14.7877 0 17.8055
      vertex 14.8961 4 17.9865
      vertex 14.7877 4 17.8055
    endloop
  endfacet
  facet normal -0.857911 0 0.513799
    outer loop
      vertex 14.8961 4 17.9865
      vertex 14.7877 0 17.8055
      vertex 14.8961 0 17.9865
    endloop
  endfacet
  facet normal -0.741075 0 0.671422
    outer loop
      vertex 14.5203 0 17.4797
      vertex 14.662 4 17.6361
      vertex 14.5203 4 17.4797
    endloop
  endfacet
  facet normal -0.741075 0 0.671422
    outer loop
      vertex 14.662 4 17.6361
      vertex 14.5203 0 17.4797
      vertex 14.662 0 17.6361
    endloop
  endfacet
  facet normal 0.0492993 0 0.998784
    outer loop
      vertex 12.7893 4 16.8604
      vertex 13 0 16.85
      vertex 13 4 16.85
    endloop
  endfacet
  facet normal 0.0492993 0 0.998784
    outer loop
      vertex 13 0 16.85
      vertex 12.7893 4 16.8604
      vertex 12.7893 0 16.8604
    endloop
  endfacet
  facet normal 0.741075 -0 0.671422
    outer loop
      vertex 11.338 0 17.6361
      vertex 11.4797 4 17.4797
      vertex 11.338 4 17.6361
    endloop
  endfacet
  facet normal 0.741075 0 0.671422
    outer loop
      vertex 11.4797 4 17.4797
      vertex 11.338 0 17.6361
      vertex 11.4797 0 17.4797
    endloop
  endfacet
  facet normal 0.671422 0 -0.741075
    outer loop
      vertex 11.4797 0 20.5203
      vertex 11.6361 4 20.662
      vertex 11.6361 0 20.662
    endloop
  endfacet
  facet normal 0.671422 0 -0.741075
    outer loop
      vertex 11.6361 4 20.662
      vertex 11.4797 0 20.5203
      vertex 11.4797 4 20.5203
    endloop
  endfacet
  facet normal -0.0492993 0 -0.998784
    outer loop
      vertex 13 0 21.15
      vertex 13.2107 4 21.1396
      vertex 13.2107 0 21.1396
    endloop
  endfacet
  facet normal -0.0492993 0 -0.998784
    outer loop
      vertex 13.2107 4 21.1396
      vertex 13 0 21.15
      vertex 13 4 21.15
    endloop
  endfacet
  facet normal -0.941538 0 0.336907
    outer loop
      vertex 14.9863 0 18.1772
      vertex 15.0574 4 18.3759
      vertex 14.9863 4 18.1772
    endloop
  endfacet
  facet normal -0.941538 0 0.336907
    outer loop
      vertex 15.0574 4 18.3759
      vertex 14.9863 0 18.1772
      vertex 15.0574 0 18.3759
    endloop
  endfacet
  facet normal -0.857911 0 -0.513799
    outer loop
      vertex 14.8961 0 20.0135
      vertex 14.7877 4 20.1945
      vertex 14.8961 4 20.0135
    endloop
  endfacet
  facet normal -0.857911 -0 -0.513799
    outer loop
      vertex 14.7877 4 20.1945
      vertex 14.8961 0 20.0135
      vertex 14.7877 0 20.1945
    endloop
  endfacet
  facet normal -0.671422 0 0.741075
    outer loop
      vertex 14.3639 4 17.338
      vertex 14.5203 0 17.4797
      vertex 14.5203 4 17.4797
    endloop
  endfacet
  facet normal -0.671422 0 0.741075
    outer loop
      vertex 14.5203 0 17.4797
      vertex 14.3639 4 17.338
      vertex 14.3639 0 17.338
    endloop
  endfacet
  facet normal 0.243093 0 0.970003
    outer loop
      vertex 12.3759 4 16.9426
      vertex 12.5806 0 16.8913
      vertex 12.5806 4 16.8913
    endloop
  endfacet
  facet normal 0.243093 0 0.970003
    outer loop
      vertex 12.5806 0 16.8913
      vertex 12.3759 4 16.9426
      vertex 12.3759 0 16.9426
    endloop
  endfacet
  facet normal -0.336907 0 -0.941538
    outer loop
      vertex 13.6241 0 21.0574
      vertex 13.8228 4 20.9863
      vertex 13.8228 0 20.9863
    endloop
  endfacet
  facet normal -0.336907 0 -0.941538
    outer loop
      vertex 13.8228 4 20.9863
      vertex 13.6241 0 21.0574
      vertex 13.6241 4 21.0574
    endloop
  endfacet
  facet normal 0.427577 0 0.903979
    outer loop
      vertex 11.9865 4 17.1039
      vertex 12.1772 0 17.0137
      vertex 12.1772 4 17.0137
    endloop
  endfacet
  facet normal 0.427577 0 0.903979
    outer loop
      vertex 12.1772 0 17.0137
      vertex 11.9865 4 17.1039
      vertex 11.9865 0 17.1039
    endloop
  endfacet
  facet normal -0.903979 0 0.427577
    outer loop
      vertex 14.8961 0 17.9865
      vertex 14.9863 4 18.1772
      vertex 14.8961 4 17.9865
    endloop
  endfacet
  facet normal -0.903979 0 0.427577
    outer loop
      vertex 14.9863 4 18.1772
      vertex 14.8961 0 17.9865
      vertex 14.9863 0 18.1772
    endloop
  endfacet
  facet normal 0.671422 0 0.741075
    outer loop
      vertex 11.4797 4 17.4797
      vertex 11.6361 0 17.338
      vertex 11.6361 4 17.338
    endloop
  endfacet
  facet normal 0.671422 0 0.741075
    outer loop
      vertex 11.6361 0 17.338
      vertex 11.4797 4 17.4797
      vertex 11.4797 0 17.4797
    endloop
  endfacet
  facet normal -0.336907 0 0.941538
    outer loop
      vertex 13.6241 4 16.9426
      vertex 13.8228 0 17.0137
      vertex 13.8228 4 17.0137
    endloop
  endfacet
  facet normal -0.336907 0 0.941538
    outer loop
      vertex 13.8228 0 17.0137
      vertex 13.6241 4 16.9426
      vertex 13.6241 0 16.9426
    endloop
  endfacet
  facet normal 0.336907 0 0.941538
    outer loop
      vertex 12.1772 4 17.0137
      vertex 12.3759 0 16.9426
      vertex 12.3759 4 16.9426
    endloop
  endfacet
  facet normal 0.336907 0 0.941538
    outer loop
      vertex 12.3759 0 16.9426
      vertex 12.1772 4 17.0137
      vertex 12.1772 0 17.0137
    endloop
  endfacet
  facet normal 0.857911 0 -0.513799
    outer loop
      vertex 11.2123 0 20.1945
      vertex 11.1039 4 20.0135
      vertex 11.2123 4 20.1945
    endloop
  endfacet
  facet normal 0.857911 0 -0.513799
    outer loop
      vertex 11.1039 4 20.0135
      vertex 11.2123 0 20.1945
      vertex 11.1039 0 20.0135
    endloop
  endfacet
  facet normal 0.513799 0 -0.857911
    outer loop
      vertex 11.8055 0 20.7877
      vertex 11.9865 4 20.8961
      vertex 11.9865 0 20.8961
    endloop
  endfacet
  facet normal 0.513799 0 -0.857911
    outer loop
      vertex 11.9865 4 20.8961
      vertex 11.8055 0 20.7877
      vertex 11.8055 4 20.7877
    endloop
  endfacet
  facet normal -0.243093 0 0.970003
    outer loop
      vertex 13.4194 4 16.8913
      vertex 13.6241 0 16.9426
      vertex 13.6241 4 16.9426
    endloop
  endfacet
  facet normal -0.243093 0 0.970003
    outer loop
      vertex 13.6241 0 16.9426
      vertex 13.4194 4 16.8913
      vertex 13.4194 0 16.8913
    endloop
  endfacet
  facet normal 0.427577 0 -0.903979
    outer loop
      vertex 11.9865 0 20.8961
      vertex 12.1772 4 20.9863
      vertex 12.1772 0 20.9863
    endloop
  endfacet
  facet normal 0.427577 0 -0.903979
    outer loop
      vertex 12.1772 4 20.9863
      vertex 11.9865 0 20.8961
      vertex 11.9865 4 20.8961
    endloop
  endfacet
  facet normal 0.803061 0 -0.595896
    outer loop
      vertex 11.338 0 20.3639
      vertex 11.2123 4 20.1945
      vertex 11.338 4 20.3639
    endloop
  endfacet
  facet normal 0.803061 0 -0.595896
    outer loop
      vertex 11.2123 4 20.1945
      vertex 11.338 0 20.3639
      vertex 11.2123 0 20.1945
    endloop
  endfacet
  facet normal 0.243093 0 -0.970003
    outer loop
      vertex 12.3759 0 21.0574
      vertex 12.5806 4 21.1087
      vertex 12.5806 0 21.1087
    endloop
  endfacet
  facet normal 0.243093 0 -0.970003
    outer loop
      vertex 12.5806 4 21.1087
      vertex 12.3759 0 21.0574
      vertex 12.3759 4 21.0574
    endloop
  endfacet
  facet normal 0.336907 0 -0.941538
    outer loop
      vertex 12.1772 0 20.9863
      vertex 12.3759 4 21.0574
      vertex 12.3759 0 21.0574
    endloop
  endfacet
  facet normal 0.336907 0 -0.941538
    outer loop
      vertex 12.3759 4 21.0574
      vertex 12.1772 0 20.9863
      vertex 12.1772 4 20.9863
    endloop
  endfacet
  facet normal 0.989216 0 -0.146463
    outer loop
      vertex 10.8913 0 19.4194
      vertex 10.8604 4 19.2107
      vertex 10.8913 4 19.4194
    endloop
  endfacet
  facet normal 0.989216 0 -0.146463
    outer loop
      vertex 10.8604 4 19.2107
      vertex 10.8913 0 19.4194
      vertex 10.8604 0 19.2107
    endloop
  endfacet
  facet normal 0.595896 0 -0.803061
    outer loop
      vertex 11.6361 0 20.662
      vertex 11.8055 4 20.7877
      vertex 11.8055 0 20.7877
    endloop
  endfacet
  facet normal 0.595896 0 -0.803061
    outer loop
      vertex 11.8055 4 20.7877
      vertex 11.6361 0 20.662
      vertex 11.6361 4 20.662
    endloop
  endfacet
  facet normal 0.903979 0 -0.427577
    outer loop
      vertex 11.1039 0 20.0135
      vertex 11.0137 4 19.8228
      vertex 11.1039 4 20.0135
    endloop
  endfacet
  facet normal 0.903979 0 -0.427577
    outer loop
      vertex 11.0137 4 19.8228
      vertex 11.1039 0 20.0135
      vertex 11.0137 0 19.8228
    endloop
  endfacet
  facet normal 0.941538 -0 0.336907
    outer loop
      vertex 10.9426 0 18.3759
      vertex 11.0137 4 18.1772
      vertex 10.9426 4 18.3759
    endloop
  endfacet
  facet normal 0.941538 0 0.336907
    outer loop
      vertex 11.0137 4 18.1772
      vertex 10.9426 0 18.3759
      vertex 11.0137 0 18.1772
    endloop
  endfacet
  facet normal -0.941538 0 -0.336907
    outer loop
      vertex 15.0574 0 19.6241
      vertex 14.9863 4 19.8228
      vertex 15.0574 4 19.6241
    endloop
  endfacet
  facet normal -0.941538 -0 -0.336907
    outer loop
      vertex 14.9863 4 19.8228
      vertex 15.0574 0 19.6241
      vertex 14.9863 0 19.8228
    endloop
  endfacet
  facet normal 0.803061 -0 0.595896
    outer loop
      vertex 11.2123 0 17.8055
      vertex 11.338 4 17.6361
      vertex 11.2123 4 17.8055
    endloop
  endfacet
  facet normal 0.803061 0 0.595896
    outer loop
      vertex 11.338 4 17.6361
      vertex 11.2123 0 17.8055
      vertex 11.338 0 17.6361
    endloop
  endfacet
  facet normal 0.998784 -0 0.0492993
    outer loop
      vertex 10.85 0 19
      vertex 10.8604 4 18.7893
      vertex 10.85 4 19
    endloop
  endfacet
  facet normal 0.998784 0 0.0492993
    outer loop
      vertex 10.8604 4 18.7893
      vertex 10.85 0 19
      vertex 10.8604 0 18.7893
    endloop
  endfacet
  facet normal -0.741075 0 -0.671422
    outer loop
      vertex 14.662 0 20.3639
      vertex 14.5203 4 20.5203
      vertex 14.662 4 20.3639
    endloop
  endfacet
  facet normal -0.741075 -0 -0.671422
    outer loop
      vertex 14.5203 4 20.5203
      vertex 14.662 0 20.3639
      vertex 14.5203 0 20.5203
    endloop
  endfacet
  facet normal -0.671422 0 -0.741075
    outer loop
      vertex 14.3639 0 20.662
      vertex 14.5203 4 20.5203
      vertex 14.5203 0 20.5203
    endloop
  endfacet
  facet normal -0.671422 0 -0.741075
    outer loop
      vertex 14.5203 4 20.5203
      vertex 14.3639 0 20.662
      vertex 14.3639 4 20.662
    endloop
  endfacet
  facet normal -0.989216 0 0.146463
    outer loop
      vertex 39.1087 0 18.5806
      vertex 39.1396 4 18.7893
      vertex 39.1087 4 18.5806
    endloop
  endfacet
  facet normal -0.989216 0 0.146463
    outer loop
      vertex 39.1396 4 18.7893
      vertex 39.1087 0 18.5806
      vertex 39.1396 0 18.7893
    endloop
  endfacet
  facet normal -0.998784 0 0.0492993
    outer loop
      vertex 39.1396 0 18.7893
      vertex 39.15 4 19
      vertex 39.1396 4 18.7893
    endloop
  endfacet
  facet normal -0.998784 0 0.0492993
    outer loop
      vertex 39.15 4 19
      vertex 39.1396 0 18.7893
      vertex 39.15 0 19
    endloop
  endfacet
  facet normal -0.970003 0 0.243093
    outer loop
      vertex 39.0574 0 18.3759
      vertex 39.1087 4 18.5806
      vertex 39.0574 4 18.3759
    endloop
  endfacet
  facet normal -0.970003 0 0.243093
    outer loop
      vertex 39.1087 4 18.5806
      vertex 39.0574 0 18.3759
      vertex 39.1087 0 18.5806
    endloop
  endfacet
  facet normal -0.427577 0 -0.903979
    outer loop
      vertex 37.8228 0 20.9863
      vertex 38.0135 4 20.8961
      vertex 38.0135 0 20.8961
    endloop
  endfacet
  facet normal -0.427577 0 -0.903979
    outer loop
      vertex 38.0135 4 20.8961
      vertex 37.8228 0 20.9863
      vertex 37.8228 4 20.9863
    endloop
  endfacet
  facet normal 0.595896 0 0.803061
    outer loop
      vertex 35.6361 4 17.338
      vertex 35.8055 0 17.2123
      vertex 35.8055 4 17.2123
    endloop
  endfacet
  facet normal 0.595896 0 0.803061
    outer loop
      vertex 35.8055 0 17.2123
      vertex 35.6361 4 17.338
      vertex 35.6361 0 17.338
    endloop
  endfacet
  facet normal 0.903979 -0 0.427577
    outer loop
      vertex 35.0137 0 18.1772
      vertex 35.1039 4 17.9865
      vertex 35.0137 4 18.1772
    endloop
  endfacet
  facet normal 0.903979 0 0.427577
    outer loop
      vertex 35.1039 4 17.9865
      vertex 35.0137 0 18.1772
      vertex 35.1039 0 17.9865
    endloop
  endfacet
  facet normal 0.970003 -0 0.243093
    outer loop
      vertex 34.8913 0 18.5806
      vertex 34.9426 4 18.3759
      vertex 34.8913 4 18.5806
    endloop
  endfacet
  facet normal 0.970003 0 0.243093
    outer loop
      vertex 34.9426 4 18.3759
      vertex 34.8913 0 18.5806
      vertex 34.9426 0 18.3759
    endloop
  endfacet
  facet normal -0.513799 0 -0.857911
    outer loop
      vertex 38.0135 0 20.8961
      vertex 38.1945 4 20.7877
      vertex 38.1945 0 20.7877
    endloop
  endfacet
  facet normal -0.513799 0 -0.857911
    outer loop
      vertex 38.1945 4 20.7877
      vertex 38.0135 0 20.8961
      vertex 38.0135 4 20.8961
    endloop
  endfacet
  facet normal -0.243093 0 -0.970003
    outer loop
      vertex 37.4194 0 21.1087
      vertex 37.6241 4 21.0574
      vertex 37.6241 0 21.0574
    endloop
  endfacet
  facet normal -0.243093 0 -0.970003
    outer loop
      vertex 37.6241 4 21.0574
      vertex 37.4194 0 21.1087
      vertex 37.4194 4 21.1087
    endloop
  endfacet
  facet normal -0.0492993 0 0.998784
    outer loop
      vertex 37 4 16.85
      vertex 37.2107 0 16.8604
      vertex 37.2107 4 16.8604
    endloop
  endfacet
  facet normal -0.0492993 0 0.998784
    outer loop
      vertex 37.2107 0 16.8604
      vertex 37 4 16.85
      vertex 37 0 16.85
    endloop
  endfacet
  facet normal -0.146463 0 0.989216
    outer loop
      vertex 37.2107 4 16.8604
      vertex 37.4194 0 16.8913
      vertex 37.4194 4 16.8913
    endloop
  endfacet
  facet normal -0.146463 0 0.989216
    outer loop
      vertex 37.4194 0 16.8913
      vertex 37.2107 4 16.8604
      vertex 37.2107 0 16.8604
    endloop
  endfacet
  facet normal -0.427577 0 0.903979
    outer loop
      vertex 37.8228 4 17.0137
      vertex 38.0135 0 17.1039
      vertex 38.0135 4 17.1039
    endloop
  endfacet
  facet normal -0.427577 0 0.903979
    outer loop
      vertex 38.0135 0 17.1039
      vertex 37.8228 4 17.0137
      vertex 37.8228 0 17.0137
    endloop
  endfacet
  facet normal -0.146463 0 -0.989216
    outer loop
      vertex 37.2107 0 21.1396
      vertex 37.4194 4 21.1087
      vertex 37.4194 0 21.1087
    endloop
  endfacet
  facet normal -0.146463 0 -0.989216
    outer loop
      vertex 37.4194 4 21.1087
      vertex 37.2107 0 21.1396
      vertex 37.2107 4 21.1396
    endloop
  endfacet
  facet normal -0.803061 0 -0.595896
    outer loop
      vertex 38.7877 0 20.1945
      vertex 38.662 4 20.3639
      vertex 38.7877 4 20.1945
    endloop
  endfacet
  facet normal -0.803061 -0 -0.595896
    outer loop
      vertex 38.662 4 20.3639
      vertex 38.7877 0 20.1945
      vertex 38.662 0 20.3639
    endloop
  endfacet
  facet normal 0.741075 0 -0.671422
    outer loop
      vertex 35.4797 0 20.5203
      vertex 35.338 4 20.3639
      vertex 35.4797 4 20.5203
    endloop
  endfacet
  facet normal 0.741075 0 -0.671422
    outer loop
      vertex 35.338 4 20.3639
      vertex 35.4797 0 20.5203
      vertex 35.338 0 20.3639
    endloop
  endfacet
  facet normal 0.513799 0 0.857911
    outer loop
      vertex 35.8055 4 17.2123
      vertex 35.9865 0 17.1039
      vertex 35.9865 4 17.1039
    endloop
  endfacet
  facet normal 0.513799 0 0.857911
    outer loop
      vertex 35.9865 0 17.1039
      vertex 35.8055 4 17.2123
      vertex 35.8055 0 17.2123
    endloop
  endfacet
  facet normal -0.989216 0 -0.146463
    outer loop
      vertex 39.1396 0 19.2107
      vertex 39.1087 4 19.4194
      vertex 39.1396 4 19.2107
    endloop
  endfacet
  facet normal -0.989216 -0 -0.146463
    outer loop
      vertex 39.1087 4 19.4194
      vertex 39.1396 0 19.2107
      vertex 39.1087 0 19.4194
    endloop
  endfacet
  facet normal 0.146463 0 -0.989216
    outer loop
      vertex 36.5806 0 21.1087
      vertex 36.7893 4 21.1396
      vertex 36.7893 0 21.1396
    endloop
  endfacet
  facet normal 0.146463 0 -0.989216
    outer loop
      vertex 36.7893 4 21.1396
      vertex 36.5806 0 21.1087
      vertex 36.5806 4 21.1087
    endloop
  endfacet
  facet normal -0.595896 0 -0.803061
    outer loop
      vertex 38.1945 0 20.7877
      vertex 38.3639 4 20.662
      vertex 38.3639 0 20.662
    endloop
  endfacet
  facet normal -0.595896 0 -0.803061
    outer loop
      vertex 38.3639 4 20.662
      vertex 38.1945 0 20.7877
      vertex 38.1945 4 20.7877
    endloop
  endfacet
  facet normal 0.0492993 0 -0.998784
    outer loop
      vertex 36.7893 0 21.1396
      vertex 37 4 21.15
      vertex 37 0 21.15
    endloop
  endfacet
  facet normal 0.0492993 0 -0.998784
    outer loop
      vertex 37 4 21.15
      vertex 36.7893 0 21.1396
      vertex 36.7893 4 21.1396
    endloop
  endfacet
  facet normal -0.595896 0 0.803061
    outer loop
      vertex 38.1945 4 17.2123
      vertex 38.3639 0 17.338
      vertex 38.3639 4 17.338
    endloop
  endfacet
  facet normal -0.595896 0 0.803061
    outer loop
      vertex 38.3639 0 17.338
      vertex 38.1945 4 17.2123
      vertex 38.1945 0 17.2123
    endloop
  endfacet
  facet normal -0.970003 0 -0.243093
    outer loop
      vertex 39.1087 0 19.4194
      vertex 39.0574 4 19.6241
      vertex 39.1087 4 19.4194
    endloop
  endfacet
  facet normal -0.970003 -0 -0.243093
    outer loop
      vertex 39.0574 4 19.6241
      vertex 39.1087 0 19.4194
      vertex 39.0574 0 19.6241
    endloop
  endfacet
  facet normal 0.989216 -0 0.146463
    outer loop
      vertex 34.8604 0 18.7893
      vertex 34.8913 4 18.5806
      vertex 34.8604 4 18.7893
    endloop
  endfacet
  facet normal 0.989216 0 0.146463
    outer loop
      vertex 34.8913 4 18.5806
      vertex 34.8604 0 18.7893
      vertex 34.8913 0 18.5806
    endloop
  endfacet
  facet normal 0.857911 -0 0.513799
    outer loop
      vertex 35.1039 0 17.9865
      vertex 35.2123 4 17.8055
      vertex 35.1039 4 17.9865
    endloop
  endfacet
  facet normal 0.857911 0 0.513799
    outer loop
      vertex 35.2123 4 17.8055
      vertex 35.1039 0 17.9865
      vertex 35.2123 0 17.8055
    endloop
  endfacet
  facet normal 0.941538 0 -0.336907
    outer loop
      vertex 35.0137 0 19.8228
      vertex 34.9426 4 19.6241
      vertex 35.0137 4 19.8228
    endloop
  endfacet
  facet normal 0.941538 0 -0.336907
    outer loop
      vertex 34.9426 4 19.6241
      vertex 35.0137 0 19.8228
      vertex 34.9426 0 19.6241
    endloop
  endfacet
  facet normal 0.146463 0 0.989216
    outer loop
      vertex 36.5806 4 16.8913
      vertex 36.7893 0 16.8604
      vertex 36.7893 4 16.8604
    endloop
  endfacet
  facet normal 0.146463 0 0.989216
    outer loop
      vertex 36.7893 0 16.8604
      vertex 36.5806 4 16.8913
      vertex 36.5806 0 16.8913
    endloop
  endfacet
  facet normal -0.803061 0 0.595896
    outer loop
      vertex 38.662 0 17.6361
      vertex 38.7877 4 17.8055
      vertex 38.662 4 17.6361
    endloop
  endfacet
  facet normal -0.803061 0 0.595896
    outer loop
      vertex 38.7877 4 17.8055
      vertex 38.662 0 17.6361
      vertex 38.7877 0 17.8055
    endloop
  endfacet
  facet normal 0.970003 0 -0.243093
    outer loop
      vertex 34.9426 0 19.6241
      vertex 34.8913 4 19.4194
      vertex 34.9426 4 19.6241
    endloop
  endfacet
  facet normal 0.970003 0 -0.243093
    outer loop
      vertex 34.8913 4 19.4194
      vertex 34.9426 0 19.6241
      vertex 34.8913 0 19.4194
    endloop
  endfacet
  facet normal 0.998784 0 -0.0492993
    outer loop
      vertex 34.8604 0 19.2107
      vertex 34.85 4 19
      vertex 34.8604 4 19.2107
    endloop
  endfacet
  facet normal 0.998784 0 -0.0492993
    outer loop
      vertex 34.85 4 19
      vertex 34.8604 0 19.2107
      vertex 34.85 0 19
    endloop
  endfacet
  facet normal -0.513799 0 0.857911
    outer loop
      vertex 38.0135 4 17.1039
      vertex 38.1945 0 17.2123
      vertex 38.1945 4 17.2123
    endloop
  endfacet
  facet normal -0.513799 0 0.857911
    outer loop
      vertex 38.1945 0 17.2123
      vertex 38.0135 4 17.1039
      vertex 38.0135 0 17.1039
    endloop
  endfacet
  facet normal -0.998784 0 -0.0492993
    outer loop
      vertex 39.15 0 19
      vertex 39.1396 4 19.2107
      vertex 39.15 4 19
    endloop
  endfacet
  facet normal -0.998784 -0 -0.0492993
    outer loop
      vertex 39.1396 4 19.2107
      vertex 39.15 0 19
      vertex 39.1396 0 19.2107
    endloop
  endfacet
  facet normal -0.903979 0 -0.427577
    outer loop
      vertex 38.9863 0 19.8228
      vertex 38.8961 4 20.0135
      vertex 38.9863 4 19.8228
    endloop
  endfacet
  facet normal -0.903979 -0 -0.427577
    outer loop
      vertex 38.8961 4 20.0135
      vertex 38.9863 0 19.8228
      vertex 38.8961 0 20.0135
    endloop
  endfacet
  facet normal -0.857911 0 0.513799
    outer loop
      vertex 38.7877 0 17.8055
      vertex 38.8961 4 17.9865
      vertex 38.7877 4 17.8055
    endloop
  endfacet
  facet normal -0.857911 0 0.513799
    outer loop
      vertex 38.8961 4 17.9865
      vertex 38.7877 0 17.8055
      vertex 38.8961 0 17.9865
    endloop
  endfacet
  facet normal -0.741075 0 0.671422
    outer loop
      vertex 38.5203 0 17.4797
      vertex 38.662 4 17.6361
      vertex 38.5203 4 17.4797
    endloop
  endfacet
  facet normal -0.741075 0 0.671422
    outer loop
      vertex 38.662 4 17.6361
      vertex 38.5203 0 17.4797
      vertex 38.662 0 17.6361
    endloop
  endfacet
  facet normal 0.0492993 0 0.998784
    outer loop
      vertex 36.7893 4 16.8604
      vertex 37 0 16.85
      vertex 37 4 16.85
    endloop
  endfacet
  facet normal 0.0492993 0 0.998784
    outer loop
      vertex 37 0 16.85
      vertex 36.7893 4 16.8604
      vertex 36.7893 0 16.8604
    endloop
  endfacet
  facet normal 0.741075 -0 0.671422
    outer loop
      vertex 35.338 0 17.6361
      vertex 35.4797 4 17.4797
      vertex 35.338 4 17.6361
    endloop
  endfacet
  facet normal 0.741075 0 0.671422
    outer loop
      vertex 35.4797 4 17.4797
      vertex 35.338 0 17.6361
      vertex 35.4797 0 17.4797
    endloop
  endfacet
  facet normal 0.671422 0 -0.741075
    outer loop
      vertex 35.4797 0 20.5203
      vertex 35.6361 4 20.662
      vertex 35.6361 0 20.662
    endloop
  endfacet
  facet normal 0.671422 0 -0.741075
    outer loop
      vertex 35.6361 4 20.662
      vertex 35.4797 0 20.5203
      vertex 35.4797 4 20.5203
    endloop
  endfacet
  facet normal -0.0492993 0 -0.998784
    outer loop
      vertex 37 0 21.15
      vertex 37.2107 4 21.1396
      vertex 37.2107 0 21.1396
    endloop
  endfacet
  facet normal -0.0492993 0 -0.998784
    outer loop
      vertex 37.2107 4 21.1396
      vertex 37 0 21.15
      vertex 37 4 21.15
    endloop
  endfacet
  facet normal -0.941538 0 0.336907
    outer loop
      vertex 38.9863 0 18.1772
      vertex 39.0574 4 18.3759
      vertex 38.9863 4 18.1772
    endloop
  endfacet
  facet normal -0.941538 0 0.336907
    outer loop
      vertex 39.0574 4 18.3759
      vertex 38.9863 0 18.1772
      vertex 39.0574 0 18.3759
    endloop
  endfacet
  facet normal -0.857911 0 -0.513799
    outer loop
      vertex 38.8961 0 20.0135
      vertex 38.7877 4 20.1945
      vertex 38.8961 4 20.0135
    endloop
  endfacet
  facet normal -0.857911 -0 -0.513799
    outer loop
      vertex 38.7877 4 20.1945
      vertex 38.8961 0 20.0135
      vertex 38.7877 0 20.1945
    endloop
  endfacet
  facet normal -0.671422 0 0.741075
    outer loop
      vertex 38.3639 4 17.338
      vertex 38.5203 0 17.4797
      vertex 38.5203 4 17.4797
    endloop
  endfacet
  facet normal -0.671422 0 0.741075
    outer loop
      vertex 38.5203 0 17.4797
      vertex 38.3639 4 17.338
      vertex 38.3639 0 17.338
    endloop
  endfacet
  facet normal 0.243093 0 0.970003
    outer loop
      vertex 36.3759 4 16.9426
      vertex 36.5806 0 16.8913
      vertex 36.5806 4 16.8913
    endloop
  endfacet
  facet normal 0.243093 0 0.970003
    outer loop
      vertex 36.5806 0 16.8913
      vertex 36.3759 4 16.9426
      vertex 36.3759 0 16.9426
    endloop
  endfacet
  facet normal -0.941538 0 -0.336907
    outer loop
      vertex 39.0574 0 19.6241
      vertex 38.9863 4 19.8228
      vertex 39.0574 4 19.6241
    endloop
  endfacet
  facet normal -0.941538 -0 -0.336907
    outer loop
      vertex 38.9863 4 19.8228
      vertex 39.0574 0 19.6241
      vertex 38.9863 0 19.8228
    endloop
  endfacet
  facet normal -0.336907 0 -0.941538
    outer loop
      vertex 37.6241 0 21.0574
      vertex 37.8228 4 20.9863
      vertex 37.8228 0 20.9863
    endloop
  endfacet
  facet normal -0.336907 0 -0.941538
    outer loop
      vertex 37.8228 4 20.9863
      vertex 37.6241 0 21.0574
      vertex 37.6241 4 21.0574
    endloop
  endfacet
  facet normal 0.427577 0 0.903979
    outer loop
      vertex 35.9865 4 17.1039
      vertex 36.1772 0 17.0137
      vertex 36.1772 4 17.0137
    endloop
  endfacet
  facet normal 0.427577 0 0.903979
    outer loop
      vertex 36.1772 0 17.0137
      vertex 35.9865 4 17.1039
      vertex 35.9865 0 17.1039
    endloop
  endfacet
  facet normal -0.903979 0 0.427577
    outer loop
      vertex 38.8961 0 17.9865
      vertex 38.9863 4 18.1772
      vertex 38.8961 4 17.9865
    endloop
  endfacet
  facet normal -0.903979 0 0.427577
    outer loop
      vertex 38.9863 4 18.1772
      vertex 38.8961 0 17.9865
      vertex 38.9863 0 18.1772
    endloop
  endfacet
  facet normal 0.671422 0 0.741075
    outer loop
      vertex 35.4797 4 17.4797
      vertex 35.6361 0 17.338
      vertex 35.6361 4 17.338
    endloop
  endfacet
  facet normal 0.671422 0 0.741075
    outer loop
      vertex 35.6361 0 17.338
      vertex 35.4797 4 17.4797
      vertex 35.4797 0 17.4797
    endloop
  endfacet
  facet normal -0.336907 0 0.941538
    outer loop
      vertex 37.6241 4 16.9426
      vertex 37.8228 0 17.0137
      vertex 37.8228 4 17.0137
    endloop
  endfacet
  facet normal -0.336907 0 0.941538
    outer loop
      vertex 37.8228 0 17.0137
      vertex 37.6241 4 16.9426
      vertex 37.6241 0 16.9426
    endloop
  endfacet
  facet normal 0.336907 0 0.941538
    outer loop
      vertex 36.1772 4 17.0137
      vertex 36.3759 0 16.9426
      vertex 36.3759 4 16.9426
    endloop
  endfacet
  facet normal 0.336907 0 0.941538
    outer loop
      vertex 36.3759 0 16.9426
      vertex 36.1772 4 17.0137
      vertex 36.1772 0 17.0137
    endloop
  endfacet
  facet normal 0.857911 0 -0.513799
    outer loop
      vertex 35.2123 0 20.1945
      vertex 35.1039 4 20.0135
      vertex 35.2123 4 20.1945
    endloop
  endfacet
  facet normal 0.857911 0 -0.513799
    outer loop
      vertex 35.1039 4 20.0135
      vertex 35.2123 0 20.1945
      vertex 35.1039 0 20.0135
    endloop
  endfacet
  facet normal 0.513799 0 -0.857911
    outer loop
      vertex 35.8055 0 20.7877
      vertex 35.9865 4 20.8961
      vertex 35.9865 0 20.8961
    endloop
  endfacet
  facet normal 0.513799 0 -0.857911
    outer loop
      vertex 35.9865 4 20.8961
      vertex 35.8055 0 20.7877
      vertex 35.8055 4 20.7877
    endloop
  endfacet
  facet normal -0.243093 0 0.970003
    outer loop
      vertex 37.4194 4 16.8913
      vertex 37.6241 0 16.9426
      vertex 37.6241 4 16.9426
    endloop
  endfacet
  facet normal -0.243093 0 0.970003
    outer loop
      vertex 37.6241 0 16.9426
      vertex 37.4194 4 16.8913
      vertex 37.4194 0 16.8913
    endloop
  endfacet
  facet normal 0.427577 0 -0.903979
    outer loop
      vertex 35.9865 0 20.8961
      vertex 36.1772 4 20.9863
      vertex 36.1772 0 20.9863
    endloop
  endfacet
  facet normal 0.427577 0 -0.903979
    outer loop
      vertex 36.1772 4 20.9863
      vertex 35.9865 0 20.8961
      vertex 35.9865 4 20.8961
    endloop
  endfacet
  facet normal 0.803061 0 -0.595896
    outer loop
      vertex 35.338 0 20.3639
      vertex 35.2123 4 20.1945
      vertex 35.338 4 20.3639
    endloop
  endfacet
  facet normal 0.803061 0 -0.595896
    outer loop
      vertex 35.2123 4 20.1945
      vertex 35.338 0 20.3639
      vertex 35.2123 0 20.1945
    endloop
  endfacet
  facet normal 0.243093 0 -0.970003
    outer loop
      vertex 36.3759 0 21.0574
      vertex 36.5806 4 21.1087
      vertex 36.5806 0 21.1087
    endloop
  endfacet
  facet normal 0.243093 0 -0.970003
    outer loop
      vertex 36.5806 4 21.1087
      vertex 36.3759 0 21.0574
      vertex 36.3759 4 21.0574
    endloop
  endfacet
  facet normal 0.336907 0 -0.941538
    outer loop
      vertex 36.1772 0 20.9863
      vertex 36.3759 4 21.0574
      vertex 36.3759 0 21.0574
    endloop
  endfacet
  facet normal 0.336907 0 -0.941538
    outer loop
      vertex 36.3759 4 21.0574
      vertex 36.1772 0 20.9863
      vertex 36.1772 4 20.9863
    endloop
  endfacet
  facet normal 0.989216 0 -0.146463
    outer loop
      vertex 34.8913 0 19.4194
      vertex 34.8604 4 19.2107
      vertex 34.8913 4 19.4194
    endloop
  endfacet
  facet normal 0.989216 0 -0.146463
    outer loop
      vertex 34.8604 4 19.2107
      vertex 34.8913 0 19.4194
      vertex 34.8604 0 19.2107
    endloop
  endfacet
  facet normal 0.595896 0 -0.803061
    outer loop
      vertex 35.6361 0 20.662
      vertex 35.8055 4 20.7877
      vertex 35.8055 0 20.7877
    endloop
  endfacet
  facet normal 0.595896 0 -0.803061
    outer loop
      vertex 35.8055 4 20.7877
      vertex 35.6361 0 20.662
      vertex 35.6361 4 20.662
    endloop
  endfacet
  facet normal 0.903979 0 -0.427577
    outer loop
      vertex 35.1039 0 20.0135
      vertex 35.0137 4 19.8228
      vertex 35.1039 4 20.0135
    endloop
  endfacet
  facet normal 0.903979 0 -0.427577
    outer loop
      vertex 35.0137 4 19.8228
      vertex 35.1039 0 20.0135
      vertex 35.0137 0 19.8228
    endloop
  endfacet
  facet normal 0.941538 -0 0.336907
    outer loop
      vertex 34.9426 0 18.3759
      vertex 35.0137 4 18.1772
      vertex 34.9426 4 18.3759
    endloop
  endfacet
  facet normal 0.941538 0 0.336907
    outer loop
      vertex 35.0137 4 18.1772
      vertex 34.9426 0 18.3759
      vertex 35.0137 0 18.1772
    endloop
  endfacet
  facet normal 0.803061 -0 0.595896
    outer loop
      vertex 35.2123 0 17.8055
      vertex 35.338 4 17.6361
      vertex 35.2123 4 17.8055
    endloop
  endfacet
  facet normal 0.803061 0 0.595896
    outer loop
      vertex 35.338 4 17.6361
      vertex 35.2123 0 17.8055
      vertex 35.338 0 17.6361
    endloop
  endfacet
  facet normal 0.998784 -0 0.0492993
    outer loop
      vertex 34.85 0 19
      vertex 34.8604 4 18.7893
      vertex 34.85 4 19
    endloop
  endfacet
  facet normal 0.998784 0 0.0492993
    outer loop
      vertex 34.8604 4 18.7893
      vertex 34.85 0 19
      vertex 34.8604 0 18.7893
    endloop
  endfacet
  facet normal -0.741075 0 -0.671422
    outer loop
      vertex 38.662 0 20.3639
      vertex 38.5203 4 20.5203
      vertex 38.662 4 20.3639
    endloop
  endfacet
  facet normal -0.741075 -0 -0.671422
    outer loop
      vertex 38.5203 4 20.5203
      vertex 38.662 0 20.3639
      vertex 38.5203 0 20.5203
    endloop
  endfacet
  facet normal -0.671422 0 -0.741075
    outer loop
      vertex 38.3639 0 20.662
      vertex 38.5203 4 20.5203
      vertex 38.5203 0 20.5203
    endloop
  endfacet
  facet normal -0.671422 0 -0.741075
    outer loop
      vertex 38.5203 4 20.5203
      vertex 38.3639 0 20.662
      vertex 38.3639 4 20.662
    endloop
  endfacet
endsolid OpenSCAD_Model
