solid OpenSCAD_Model
  facet normal 0.751913 -0.659262 0
    outer loop
      vertex 42.2678 11.7322 18
      vertex 42.4834 11.9781 0
      vertex 42.4834 11.9781 18
    endloop
  endfacet
  facet normal 0.751913 -0.659262 0
    outer loop
      vertex 42.4834 11.9781 0
      vertex 42.2678 11.7322 18
      vertex 42.2678 11.7322 0
    endloop
  endfacet
  facet normal 0.442191 -0.896921 0
    outer loop
      vertex 41.4567 11.1903 0
      vertex 41.75 11.3349 18
      vertex 41.4567 11.1903 18
    endloop
  endfacet
  facet normal 0.442191 -0.896921 0
    outer loop
      vertex 41.75 11.3349 18
      vertex 41.4567 11.1903 0
      vertex 41.75 11.3349 0
    endloop
  endfacet
  facet normal 1 -0 0
    outer loop
      vertex 43 13.5 18
      vertex 43 34.5 0
      vertex 43 34.5 18
    endloop
  endfacet
  facet normal 1 0 0
    outer loop
      vertex 43 34.5 0
      vertex 43 13.5 18
      vertex 43 13.5 0
    endloop
  endfacet
  facet normal 0.32136 0.946957 -0
    outer loop
      vertex 41.4567 36.8097 0
      vertex 41.147 36.9148 18
      vertex 41.4567 36.8097 18
    endloop
  endfacet
  facet normal 0.32136 0.946957 0
    outer loop
      vertex 41.147 36.9148 18
      vertex 41.4567 36.8097 0
      vertex 41.147 36.9148 0
    endloop
  endfacet
  facet normal -0.997856 -0.0654432 0
    outer loop
      vertex 13.0214 13.1737 0
      vertex 13 13.5 18
      vertex 13 13.5 0
    endloop
  endfacet
  facet normal -0.997856 -0.0654432 0
    outer loop
      vertex 13 13.5 18
      vertex 13.0214 13.1737 0
      vertex 13.0214 13.1737 18
    endloop
  endfacet
  facet normal 0.896921 -0.442191 0
    outer loop
      vertex 42.6651 12.25 18
      vertex 42.8097 12.5433 0
      vertex 42.8097 12.5433 18
    endloop
  endfacet
  facet normal 0.896921 -0.442191 0
    outer loop
      vertex 42.8097 12.5433 0
      vertex 42.6651 12.25 18
      vertex 42.6651 12.25 0
    endloop
  endfacet
  facet normal -0.555617 -0.831438 0
    outer loop
      vertex 13.9781 11.5166 0
      vertex 14.25 11.3349 18
      vertex 13.9781 11.5166 18
    endloop
  endfacet
  facet normal -0.555617 -0.831438 -0
    outer loop
      vertex 14.25 11.3349 18
      vertex 13.9781 11.5166 0
      vertex 14.25 11.3349 0
    endloop
  endfacet
  facet normal -0.831438 -0.555617 0
    outer loop
      vertex 13.5166 11.9781 0
      vertex 13.3349 12.25 18
      vertex 13.3349 12.25 0
    endloop
  endfacet
  facet normal -0.831438 -0.555617 0
    outer loop
      vertex 13.3349 12.25 18
      vertex 13.5166 11.9781 0
      vertex 13.5166 11.9781 18
    endloop
  endfacet
  facet normal 0.555617 -0.831438 0
    outer loop
      vertex 41.75 11.3349 0
      vertex 42.0219 11.5166 18
      vertex 41.75 11.3349 18
    endloop
  endfacet
  facet normal 0.555617 -0.831438 0
    outer loop
      vertex 42.0219 11.5166 18
      vertex 41.75 11.3349 0
      vertex 42.0219 11.5166 0
    endloop
  endfacet
  facet normal -0.98078 -0.195116 0
    outer loop
      vertex 13.0852 12.853 0
      vertex 13.0214 13.1737 18
      vertex 13.0214 13.1737 0
    endloop
  endfacet
  facet normal -0.98078 -0.195116 0
    outer loop
      vertex 13.0214 13.1737 18
      vertex 13.0852 12.853 0
      vertex 13.0852 12.853 18
    endloop
  endfacet
  facet normal 0.195116 0.98078 -0
    outer loop
      vertex 41.147 36.9148 0
      vertex 40.8263 36.9786 18
      vertex 41.147 36.9148 18
    endloop
  endfacet
  facet normal 0.195116 0.98078 0
    outer loop
      vertex 40.8263 36.9786 18
      vertex 41.147 36.9148 0
      vertex 40.8263 36.9786 0
    endloop
  endfacet
  facet normal -1 0 0
    outer loop
      vertex 13 13.5 0
      vertex 13 34.5 18
      vertex 13 34.5 0
    endloop
  endfacet
  facet normal -1 -0 0
    outer loop
      vertex 13 34.5 18
      vertex 13 13.5 0
      vertex 13 13.5 18
    endloop
  endfacet
  facet normal -0.896921 0.442191 0
    outer loop
      vertex 13.1903 35.4567 0
      vertex 13.3349 35.75 18
      vertex 13.3349 35.75 0
    endloop
  endfacet
  facet normal -0.896921 0.442191 0
    outer loop
      vertex 13.3349 35.75 18
      vertex 13.1903 35.4567 0
      vertex 13.1903 35.4567 18
    endloop
  endfacet
  facet normal 0.195116 -0.98078 0
    outer loop
      vertex 40.8263 11.0214 0
      vertex 41.147 11.0852 18
      vertex 40.8263 11.0214 18
    endloop
  endfacet
  facet normal 0.195116 -0.98078 0
    outer loop
      vertex 41.147 11.0852 18
      vertex 40.8263 11.0214 0
      vertex 41.147 11.0852 0
    endloop
  endfacet
  facet normal -0.442191 0.896921 0
    outer loop
      vertex 14.5433 36.8097 0
      vertex 14.25 36.6651 18
      vertex 14.5433 36.8097 18
    endloop
  endfacet
  facet normal -0.442191 0.896921 0
    outer loop
      vertex 14.25 36.6651 18
      vertex 14.5433 36.8097 0
      vertex 14.25 36.6651 0
    endloop
  endfacet
  facet normal 0.0654432 -0.997856 0
    outer loop
      vertex 40.5 11 0
      vertex 40.8263 11.0214 18
      vertex 40.5 11 18
    endloop
  endfacet
  facet normal 0.0654432 -0.997856 0
    outer loop
      vertex 40.8263 11.0214 18
      vertex 40.5 11 0
      vertex 40.8263 11.0214 0
    endloop
  endfacet
  facet normal 0.442191 0.896921 -0
    outer loop
      vertex 41.75 36.6651 0
      vertex 41.4567 36.8097 18
      vertex 41.75 36.6651 18
    endloop
  endfacet
  facet normal 0.442191 0.896921 0
    outer loop
      vertex 41.4567 36.8097 18
      vertex 41.75 36.6651 0
      vertex 41.4567 36.8097 0
    endloop
  endfacet
  facet normal -0.659262 0.751913 0
    outer loop
      vertex 13.9781 36.4834 0
      vertex 13.7322 36.2678 18
      vertex 13.9781 36.4834 18
    endloop
  endfacet
  facet normal -0.659262 0.751913 0
    outer loop
      vertex 13.7322 36.2678 18
      vertex 13.9781 36.4834 0
      vertex 13.7322 36.2678 0
    endloop
  endfacet
  facet normal -0.195116 0.98078 0
    outer loop
      vertex 15.1737 36.9786 0
      vertex 14.853 36.9148 18
      vertex 15.1737 36.9786 18
    endloop
  endfacet
  facet normal -0.195116 0.98078 0
    outer loop
      vertex 14.853 36.9148 18
      vertex 15.1737 36.9786 0
      vertex 14.853 36.9148 0
    endloop
  endfacet
  facet normal 0 -1 0
    outer loop
      vertex 15.5 11 0
      vertex 40.5 11 18
      vertex 15.5 11 18
    endloop
  endfacet
  facet normal 0 -1 -0
    outer loop
      vertex 40.5 11 18
      vertex 15.5 11 0
      vertex 40.5 11 0
    endloop
  endfacet
  facet normal -0.751913 -0.659262 0
    outer loop
      vertex 13.7322 11.7322 0
      vertex 13.5166 11.9781 18
      vertex 13.5166 11.9781 0
    endloop
  endfacet
  facet normal -0.751913 -0.659262 0
    outer loop
      vertex 13.5166 11.9781 18
      vertex 13.7322 11.7322 0
      vertex 13.7322 11.7322 18
    endloop
  endfacet
  facet normal 0.751913 0.659262 0
    outer loop
      vertex 42.4834 36.0219 18
      vertex 42.2678 36.2678 0
      vertex 42.2678 36.2678 18
    endloop
  endfacet
  facet normal 0.751913 0.659262 0
    outer loop
      vertex 42.2678 36.2678 0
      vertex 42.4834 36.0219 18
      vertex 42.4834 36.0219 0
    endloop
  endfacet
  facet normal 0.997856 0.0654432 0
    outer loop
      vertex 43 34.5 18
      vertex 42.9786 34.8263 0
      vertex 42.9786 34.8263 18
    endloop
  endfacet
  facet normal 0.997856 0.0654432 0
    outer loop
      vertex 42.9786 34.8263 0
      vertex 43 34.5 18
      vertex 43 34.5 0
    endloop
  endfacet
  facet normal 0.98078 -0.195116 0
    outer loop
      vertex 42.9148 12.853 18
      vertex 42.9786 13.1737 0
      vertex 42.9786 13.1737 18
    endloop
  endfacet
  facet normal 0.98078 -0.195116 0
    outer loop
      vertex 42.9786 13.1737 0
      vertex 42.9148 12.853 18
      vertex 42.9148 12.853 0
    endloop
  endfacet
  facet normal 0 1 -0
    outer loop
      vertex 40.5 37 0
      vertex 15.5 37 18
      vertex 40.5 37 18
    endloop
  endfacet
  facet normal 0 1 0
    outer loop
      vertex 15.5 37 18
      vertex 40.5 37 0
      vertex 15.5 37 0
    endloop
  endfacet
  facet normal -0.0654432 0.997856 0
    outer loop
      vertex 15.5 37 0
      vertex 15.1737 36.9786 18
      vertex 15.5 37 18
    endloop
  endfacet
  facet normal -0.0654432 0.997856 0
    outer loop
      vertex 15.1737 36.9786 18
      vertex 15.5 37 0
      vertex 15.1737 36.9786 0
    endloop
  endfacet
  facet normal -0.751913 0.659262 0
    outer loop
      vertex 13.5166 36.0219 0
      vertex 13.7322 36.2678 18
      vertex 13.7322 36.2678 0
    endloop
  endfacet
  facet normal -0.751913 0.659262 0
    outer loop
      vertex 13.7322 36.2678 18
      vertex 13.5166 36.0219 0
      vertex 13.5166 36.0219 18
    endloop
  endfacet
  facet normal 0.896921 0.442191 0
    outer loop
      vertex 42.8097 35.4567 18
      vertex 42.6651 35.75 0
      vertex 42.6651 35.75 18
    endloop
  endfacet
  facet normal 0.896921 0.442191 0
    outer loop
      vertex 42.6651 35.75 0
      vertex 42.8097 35.4567 18
      vertex 42.8097 35.4567 0
    endloop
  endfacet
  facet normal -0.997856 0.0654432 0
    outer loop
      vertex 13 34.5 0
      vertex 13.0214 34.8263 18
      vertex 13.0214 34.8263 0
    endloop
  endfacet
  facet normal -0.997856 0.0654432 0
    outer loop
      vertex 13.0214 34.8263 18
      vertex 13 34.5 0
      vertex 13 34.5 18
    endloop
  endfacet
  facet normal -0.896921 -0.442191 0
    outer loop
      vertex 13.3349 12.25 0
      vertex 13.1903 12.5433 18
      vertex 13.1903 12.5433 0
    endloop
  endfacet
  facet normal -0.896921 -0.442191 0
    outer loop
      vertex 13.1903 12.5433 18
      vertex 13.3349 12.25 0
      vertex 13.3349 12.25 18
    endloop
  endfacet
  facet normal -0.0654432 -0.997856 0
    outer loop
      vertex 15.1737 11.0214 0
      vertex 15.5 11 18
      vertex 15.1737 11.0214 18
    endloop
  endfacet
  facet normal -0.0654432 -0.997856 -0
    outer loop
      vertex 15.5 11 18
      vertex 15.1737 11.0214 0
      vertex 15.5 11 0
    endloop
  endfacet
  facet normal -0.946957 -0.32136 0
    outer loop
      vertex 13.1903 12.5433 0
      vertex 13.0852 12.853 18
      vertex 13.0852 12.853 0
    endloop
  endfacet
  facet normal -0.946957 -0.32136 0
    outer loop
      vertex 13.0852 12.853 18
      vertex 13.1903 12.5433 0
      vertex 13.1903 12.5433 18
    endloop
  endfacet
  facet normal 0.659262 -0.751913 0
    outer loop
      vertex 42.0219 11.5166 0
      vertex 42.2678 11.7322 18
      vertex 42.0219 11.5166 18
    endloop
  endfacet
  facet normal 0.659262 -0.751913 0
    outer loop
      vertex 42.2678 11.7322 18
      vertex 42.0219 11.5166 0
      vertex 42.2678 11.7322 0
    endloop
  endfacet
  facet normal -0.659262 -0.751913 0
    outer loop
      vertex 13.7322 11.7322 0
      vertex 13.9781 11.5166 18
      vertex 13.7322 11.7322 18
    endloop
  endfacet
  facet normal -0.659262 -0.751913 -0
    outer loop
      vertex 13.9781 11.5166 18
      vertex 13.7322 11.7322 0
      vertex 13.9781 11.5166 0
    endloop
  endfacet
  facet normal 0.831438 0.555617 0
    outer loop
      vertex 42.6651 35.75 18
      vertex 42.4834 36.0219 0
      vertex 42.4834 36.0219 18
    endloop
  endfacet
  facet normal 0.831438 0.555617 0
    outer loop
      vertex 42.4834 36.0219 0
      vertex 42.6651 35.75 18
      vertex 42.6651 35.75 0
    endloop
  endfacet
  facet normal 0.997856 -0.0654432 0
    outer loop
      vertex 42.9786 13.1737 18
      vertex 43 13.5 0
      vertex 43 13.5 18
    endloop
  endfacet
  facet normal 0.997856 -0.0654432 0
    outer loop
      vertex 43 13.5 0
      vertex 42.9786 13.1737 18
      vertex 42.9786 13.1737 0
    endloop
  endfacet
  facet normal 0.0654432 0.997856 -0
    outer loop
      vertex 40.8263 36.9786 0
      vertex 40.5 37 18
      vertex 40.8263 36.9786 18
    endloop
  endfacet
  facet normal 0.0654432 0.997856 0
    outer loop
      vertex 40.5 37 18
      vertex 40.8263 36.9786 0
      vertex 40.5 37 0
    endloop
  endfacet
  facet normal 0.946957 0.32136 0
    outer loop
      vertex 42.9148 35.147 18
      vertex 42.8097 35.4567 0
      vertex 42.8097 35.4567 18
    endloop
  endfacet
  facet normal 0.946957 0.32136 0
    outer loop
      vertex 42.8097 35.4567 0
      vertex 42.9148 35.147 18
      vertex 42.9148 35.147 0
    endloop
  endfacet
  facet normal -0.195116 -0.98078 0
    outer loop
      vertex 14.853 11.0852 0
      vertex 15.1737 11.0214 18
      vertex 14.853 11.0852 18
    endloop
  endfacet
  facet normal -0.195116 -0.98078 -0
    outer loop
      vertex 15.1737 11.0214 18
      vertex 14.853 11.0852 0
      vertex 15.1737 11.0214 0
    endloop
  endfacet
  facet normal 0.32136 -0.946957 0
    outer loop
      vertex 41.147 11.0852 0
      vertex 41.4567 11.1903 18
      vertex 41.147 11.0852 18
    endloop
  endfacet
  facet normal 0.32136 -0.946957 0
    outer loop
      vertex 41.4567 11.1903 18
      vertex 41.147 11.0852 0
      vertex 41.4567 11.1903 0
    endloop
  endfacet
  facet normal -0.442191 -0.896921 0
    outer loop
      vertex 14.25 11.3349 0
      vertex 14.5433 11.1903 18
      vertex 14.25 11.3349 18
    endloop
  endfacet
  facet normal -0.442191 -0.896921 -0
    outer loop
      vertex 14.5433 11.1903 18
      vertex 14.25 11.3349 0
      vertex 14.5433 11.1903 0
    endloop
  endfacet
  facet normal -0.555617 0.831438 0
    outer loop
      vertex 14.25 36.6651 0
      vertex 13.9781 36.4834 18
      vertex 14.25 36.6651 18
    endloop
  endfacet
  facet normal -0.555617 0.831438 0
    outer loop
      vertex 13.9781 36.4834 18
      vertex 14.25 36.6651 0
      vertex 13.9781 36.4834 0
    endloop
  endfacet
  facet normal 0.98078 0.195116 0
    outer loop
      vertex 42.9786 34.8263 18
      vertex 42.9148 35.147 0
      vertex 42.9148 35.147 18
    endloop
  endfacet
  facet normal 0.98078 0.195116 0
    outer loop
      vertex 42.9148 35.147 0
      vertex 42.9786 34.8263 18
      vertex 42.9786 34.8263 0
    endloop
  endfacet
  facet normal -0.32136 0.946957 0
    outer loop
      vertex 14.853 36.9148 0
      vertex 14.5433 36.8097 18
      vertex 14.853 36.9148 18
    endloop
  endfacet
  facet normal -0.32136 0.946957 0
    outer loop
      vertex 14.5433 36.8097 18
      vertex 14.853 36.9148 0
      vertex 14.5433 36.8097 0
    endloop
  endfacet
  facet normal -0.946957 0.32136 0
    outer loop
      vertex 13.0852 35.147 0
      vertex 13.1903 35.4567 18
      vertex 13.1903 35.4567 0
    endloop
  endfacet
  facet normal -0.946957 0.32136 0
    outer loop
      vertex 13.1903 35.4567 18
      vertex 13.0852 35.147 0
      vertex 13.0852 35.147 18
    endloop
  endfacet
  facet normal 0.946957 -0.32136 0
    outer loop
      vertex 42.8097 12.5433 18
      vertex 42.9148 12.853 0
      vertex 42.9148 12.853 18
    endloop
  endfacet
  facet normal 0.946957 -0.32136 0
    outer loop
      vertex 42.9148 12.853 0
      vertex 42.8097 12.5433 18
      vertex 42.8097 12.5433 0
    endloop
  endfacet
  facet normal -0.98078 0.195116 0
    outer loop
      vertex 13.0214 34.8263 0
      vertex 13.0852 35.147 18
      vertex 13.0852 35.147 0
    endloop
  endfacet
  facet normal -0.98078 0.195116 0
    outer loop
      vertex 13.0852 35.147 18
      vertex 13.0214 34.8263 0
      vertex 13.0214 34.8263 18
    endloop
  endfacet
  facet normal 0.831438 -0.555617 0
    outer loop
      vertex 42.4834 11.9781 18
      vertex 42.6651 12.25 0
      vertex 42.6651 12.25 18
    endloop
  endfacet
  facet normal 0.831438 -0.555617 0
    outer loop
      vertex 42.6651 12.25 0
      vertex 42.4834 11.9781 18
      vertex 42.4834 11.9781 0
    endloop
  endfacet
  facet normal 0.555617 0.831438 -0
    outer loop
      vertex 42.0219 36.4834 0
      vertex 41.75 36.6651 18
      vertex 42.0219 36.4834 18
    endloop
  endfacet
  facet normal 0.555617 0.831438 0
    outer loop
      vertex 41.75 36.6651 18
      vertex 42.0219 36.4834 0
      vertex 41.75 36.6651 0
    endloop
  endfacet
  facet normal -0.32136 -0.946957 0
    outer loop
      vertex 14.5433 11.1903 0
      vertex 14.853 11.0852 18
      vertex 14.5433 11.1903 18
    endloop
  endfacet
  facet normal -0.32136 -0.946957 -0
    outer loop
      vertex 14.853 11.0852 18
      vertex 14.5433 11.1903 0
      vertex 14.853 11.0852 0
    endloop
  endfacet
  facet normal 0 0 1
    outer loop
      vertex 40.5 37 18
      vertex 43 34.5 18
      vertex 42.9786 34.8263 18
    endloop
  endfacet
  facet normal 0 0 1
    outer loop
      vertex 43 34.5 18
      vertex 35.05 30.05 18
      vertex 43 13.5 18
    endloop
  endfacet
  facet normal 0 0 1
    outer loop
      vertex 40.5 37 18
      vertex 42.9786 34.8263 18
      vertex 42.9148 35.147 18
    endloop
  endfacet
  facet normal -0 0 1
    outer loop
      vertex 35.05 17.95 18
      vertex 43 13.5 18
      vertex 35.05 30.05 18
    endloop
  endfacet
  facet normal 0 0 1
    outer loop
      vertex 40.5 37 18
      vertex 42.9148 35.147 18
      vertex 42.8097 35.4567 18
    endloop
  endfacet
  facet normal 0 -0 1
    outer loop
      vertex 40.5 11 18
      vertex 43 13.5 18
      vertex 35.05 17.95 18
    endloop
  endfacet
  facet normal 0 0 1
    outer loop
      vertex 40.5 37 18
      vertex 42.8097 35.4567 18
      vertex 42.6651 35.75 18
    endloop
  endfacet
  facet normal 0 0 1
    outer loop
      vertex 43 13.5 18
      vertex 40.5 11 18
      vertex 42.9786 13.1737 18
    endloop
  endfacet
  facet normal 0 0 1
    outer loop
      vertex 40.5 37 18
      vertex 42.6651 35.75 18
      vertex 42.4834 36.0219 18
    endloop
  endfacet
  facet normal 0 0 1
    outer loop
      vertex 42.9786 13.1737 18
      vertex 40.5 11 18
      vertex 42.9148 12.853 18
    endloop
  endfacet
  facet normal 0 0 1
    outer loop
      vertex 40.5 37 18
      vertex 42.4834 36.0219 18
      vertex 42.2678 36.2678 18
    endloop
  endfacet
  facet normal 0 0 1
    outer loop
      vertex 42.9148 12.853 18
      vertex 40.5 11 18
      vertex 42.8097 12.5433 18
    endloop
  endfacet
  facet normal 0 0 1
    outer loop
      vertex 40.5 37 18
      vertex 42.2678 36.2678 18
      vertex 42.0219 36.4834 18
    endloop
  endfacet
  facet normal 0 0 1
    outer loop
      vertex 42.8097 12.5433 18
      vertex 40.5 11 18
      vertex 42.6651 12.25 18
    endloop
  endfacet
  facet normal 0 0 1
    outer loop
      vertex 40.5 37 18
      vertex 42.0219 36.4834 18
      vertex 41.75 36.6651 18
    endloop
  endfacet
  facet normal 0 0 1
    outer loop
      vertex 42.6651 12.25 18
      vertex 40.5 11 18
      vertex 42.4834 11.9781 18
    endloop
  endfacet
  facet normal 0 0 1
    outer loop
      vertex 40.5 37 18
      vertex 41.75 36.6651 18
      vertex 41.4567 36.8097 18
    endloop
  endfacet
  facet normal 0 0 1
    outer loop
      vertex 42.4834 11.9781 18
      vertex 40.5 11 18
      vertex 42.2678 11.7322 18
    endloop
  endfacet
  facet normal 0 0 1
    outer loop
      vertex 40.5 37 18
      vertex 41.4567 36.8097 18
      vertex 41.147 36.9148 18
    endloop
  endfacet
  facet normal 0 0 1
    outer loop
      vertex 42.2678 11.7322 18
      vertex 40.5 11 18
      vertex 42.0219 11.5166 18
    endloop
  endfacet
  facet normal 0 0 1
    outer loop
      vertex 40.5 37 18
      vertex 41.147 36.9148 18
      vertex 40.8263 36.9786 18
    endloop
  endfacet
  facet normal 0 0 1
    outer loop
      vertex 42.0219 11.5166 18
      vertex 40.5 11 18
      vertex 41.75 11.3349 18
    endloop
  endfacet
  facet normal 0 0 1
    outer loop
      vertex 43 34.5 18
      vertex 40.5 37 18
      vertex 35.05 30.05 18
    endloop
  endfacet
  facet normal 0 0 1
    outer loop
      vertex 41.75 11.3349 18
      vertex 40.5 11 18
      vertex 41.4567 11.1903 18
    endloop
  endfacet
  facet normal 0 0 1
    outer loop
      vertex 41.4567 11.1903 18
      vertex 40.5 11 18
      vertex 41.147 11.0852 18
    endloop
  endfacet
  facet normal 0 0 1
    outer loop
      vertex 40.5 37 18
      vertex 20.95 30.05 18
      vertex 35.05 30.05 18
    endloop
  endfacet
  facet normal -0 0 1
    outer loop
      vertex 13 34.5 18
      vertex 20.95 30.05 18
      vertex 15.5 37 18
    endloop
  endfacet
  facet normal -0 0 1
    outer loop
      vertex 15.5 37 18
      vertex 20.95 30.05 18
      vertex 40.5 37 18
    endloop
  endfacet
  facet normal 0 0 1
    outer loop
      vertex 41.147 11.0852 18
      vertex 40.5 11 18
      vertex 40.8263 11.0214 18
    endloop
  endfacet
  facet normal -0 0 1
    outer loop
      vertex 20.95 17.95 18
      vertex 40.5 11 18
      vertex 35.05 17.95 18
    endloop
  endfacet
  facet normal 0 0 1
    outer loop
      vertex 20.95 17.95 18
      vertex 15.5 11 18
      vertex 40.5 11 18
    endloop
  endfacet
  facet normal 0 0 1
    outer loop
      vertex 20.95 30.05 18
      vertex 13 34.5 18
      vertex 20.95 17.95 18
    endloop
  endfacet
  facet normal 0 0 1
    outer loop
      vertex 13 34.5 18
      vertex 15.5 37 18
      vertex 15.1737 36.9786 18
    endloop
  endfacet
  facet normal 0 0 1
    outer loop
      vertex 13 13.5 18
      vertex 20.95 17.95 18
      vertex 13 34.5 18
    endloop
  endfacet
  facet normal 0 0 1
    outer loop
      vertex 13 34.5 18
      vertex 15.1737 36.9786 18
      vertex 14.853 36.9148 18
    endloop
  endfacet
  facet normal 0 0 1
    outer loop
      vertex 20.95 17.95 18
      vertex 13 13.5 18
      vertex 15.5 11 18
    endloop
  endfacet
  facet normal 0 0 1
    outer loop
      vertex 13 34.5 18
      vertex 14.853 36.9148 18
      vertex 14.5433 36.8097 18
    endloop
  endfacet
  facet normal 0 0 1
    outer loop
      vertex 15.5 11 18
      vertex 13 13.5 18
      vertex 15.1737 11.0214 18
    endloop
  endfacet
  facet normal 0 0 1
    outer loop
      vertex 13 34.5 18
      vertex 14.5433 36.8097 18
      vertex 14.25 36.6651 18
    endloop
  endfacet
  facet normal 0 0 1
    outer loop
      vertex 15.1737 11.0214 18
      vertex 13 13.5 18
      vertex 14.853 11.0852 18
    endloop
  endfacet
  facet normal 0 0 1
    outer loop
      vertex 13 34.5 18
      vertex 14.25 36.6651 18
      vertex 13.9781 36.4834 18
    endloop
  endfacet
  facet normal 0 0 1
    outer loop
      vertex 14.853 11.0852 18
      vertex 13 13.5 18
      vertex 14.5433 11.1903 18
    endloop
  endfacet
  facet normal 0 0 1
    outer loop
      vertex 13 34.5 18
      vertex 13.9781 36.4834 18
      vertex 13.7322 36.2678 18
    endloop
  endfacet
  facet normal 0 0 1
    outer loop
      vertex 14.5433 11.1903 18
      vertex 13 13.5 18
      vertex 14.25 11.3349 18
    endloop
  endfacet
  facet normal 0 0 1
    outer loop
      vertex 13 34.5 18
      vertex 13.7322 36.2678 18
      vertex 13.5166 36.0219 18
    endloop
  endfacet
  facet normal 0 0 1
    outer loop
      vertex 14.25 11.3349 18
      vertex 13 13.5 18
      vertex 13.9781 11.5166 18
    endloop
  endfacet
  facet normal 0 0 1
    outer loop
      vertex 13 34.5 18
      vertex 13.5166 36.0219 18
      vertex 13.3349 35.75 18
    endloop
  endfacet
  facet normal 0 0 1
    outer loop
      vertex 13.9781 11.5166 18
      vertex 13 13.5 18
      vertex 13.7322 11.7322 18
    endloop
  endfacet
  facet normal 0 0 1
    outer loop
      vertex 13 34.5 18
      vertex 13.3349 35.75 18
      vertex 13.1903 35.4567 18
    endloop
  endfacet
  facet normal 0 0 1
    outer loop
      vertex 13.7322 11.7322 18
      vertex 13 13.5 18
      vertex 13.5166 11.9781 18
    endloop
  endfacet
  facet normal 0 0 1
    outer loop
      vertex 13 34.5 18
      vertex 13.1903 35.4567 18
      vertex 13.0852 35.147 18
    endloop
  endfacet
  facet normal 0 0 1
    outer loop
      vertex 13.5166 11.9781 18
      vertex 13 13.5 18
      vertex 13.3349 12.25 18
    endloop
  endfacet
  facet normal 0 0 1
    outer loop
      vertex 13 34.5 18
      vertex 13.0852 35.147 18
      vertex 13.0214 34.8263 18
    endloop
  endfacet
  facet normal 0 0 1
    outer loop
      vertex 13.3349 12.25 18
      vertex 13 13.5 18
      vertex 13.1903 12.5433 18
    endloop
  endfacet
  facet normal 0 0 1
    outer loop
      vertex 13.1903 12.5433 18
      vertex 13 13.5 18
      vertex 13.0852 12.853 18
    endloop
  endfacet
  facet normal 0 0 1
    outer loop
      vertex 13.0852 12.853 18
      vertex 13 13.5 18
      vertex 13.0214 13.1737 18
    endloop
  endfacet
  facet normal 0.659262 0.751913 -0
    outer loop
      vertex 42.2678 36.2678 0
      vertex 42.0219 36.4834 18
      vertex 42.2678 36.2678 18
    endloop
  endfacet
  facet normal 0.659262 0.751913 0
    outer loop
      vertex 42.0219 36.4834 18
      vertex 42.2678 36.2678 0
      vertex 42.0219 36.4834 0
    endloop
  endfacet
  facet normal -0.831438 0.555617 0
    outer loop
      vertex 13.3349 35.75 0
      vertex 13.5166 36.0219 18
      vertex 13.5166 36.0219 0
    endloop
  endfacet
  facet normal -0.831438 0.555617 0
    outer loop
      vertex 13.5166 36.0219 18
      vertex 13.3349 35.75 0
      vertex 13.3349 35.75 18
    endloop
  endfacet
  facet normal 0 0 -1
    outer loop
      vertex 40.5 11 0
      vertex 43 13.5 0
      vertex 42.9786 13.1737 0
    endloop
  endfacet
  facet normal -0 0 -1
    outer loop
      vertex 43 13.5 0
      vertex 40.5 11 0
      vertex 43 34.5 0
    endloop
  endfacet
  facet normal 0 0 -1
    outer loop
      vertex 40.5 11 0
      vertex 42.9786 13.1737 0
      vertex 42.9148 12.853 0
    endloop
  endfacet
  facet normal 0 0 -1
    outer loop
      vertex 40.5 37 0
      vertex 43 34.5 0
      vertex 40.5 11 0
    endloop
  endfacet
  facet normal 0 0 -1
    outer loop
      vertex 40.5 11 0
      vertex 42.9148 12.853 0
      vertex 42.8097 12.5433 0
    endloop
  endfacet
  facet normal 0 0 -1
    outer loop
      vertex 43 34.5 0
      vertex 40.5 37 0
      vertex 42.9786 34.8263 0
    endloop
  endfacet
  facet normal 0 0 -1
    outer loop
      vertex 40.5 11 0
      vertex 42.8097 12.5433 0
      vertex 42.6651 12.25 0
    endloop
  endfacet
  facet normal 0 0 -1
    outer loop
      vertex 42.9786 34.8263 0
      vertex 40.5 37 0
      vertex 42.9148 35.147 0
    endloop
  endfacet
  facet normal 0 0 -1
    outer loop
      vertex 40.5 11 0
      vertex 42.6651 12.25 0
      vertex 42.4834 11.9781 0
    endloop
  endfacet
  facet normal 0 0 -1
    outer loop
      vertex 42.9148 35.147 0
      vertex 40.5 37 0
      vertex 42.8097 35.4567 0
    endloop
  endfacet
  facet normal 0 0 -1
    outer loop
      vertex 40.5 11 0
      vertex 42.4834 11.9781 0
      vertex 42.2678 11.7322 0
    endloop
  endfacet
  facet normal 0 0 -1
    outer loop
      vertex 42.8097 35.4567 0
      vertex 40.5 37 0
      vertex 42.6651 35.75 0
    endloop
  endfacet
  facet normal 0 0 -1
    outer loop
      vertex 40.5 11 0
      vertex 42.2678 11.7322 0
      vertex 42.0219 11.5166 0
    endloop
  endfacet
  facet normal 0 0 -1
    outer loop
      vertex 42.6651 35.75 0
      vertex 40.5 37 0
      vertex 42.4834 36.0219 0
    endloop
  endfacet
  facet normal 0 0 -1
    outer loop
      vertex 40.5 11 0
      vertex 42.0219 11.5166 0
      vertex 41.75 11.3349 0
    endloop
  endfacet
  facet normal 0 0 -1
    outer loop
      vertex 42.4834 36.0219 0
      vertex 40.5 37 0
      vertex 42.2678 36.2678 0
    endloop
  endfacet
  facet normal 0 0 -1
    outer loop
      vertex 40.5 11 0
      vertex 41.75 11.3349 0
      vertex 41.4567 11.1903 0
    endloop
  endfacet
  facet normal 0 0 -1
    outer loop
      vertex 42.2678 36.2678 0
      vertex 40.5 37 0
      vertex 42.0219 36.4834 0
    endloop
  endfacet
  facet normal 0 0 -1
    outer loop
      vertex 40.5 11 0
      vertex 41.4567 11.1903 0
      vertex 41.147 11.0852 0
    endloop
  endfacet
  facet normal 0 0 -1
    outer loop
      vertex 42.0219 36.4834 0
      vertex 40.5 37 0
      vertex 41.75 36.6651 0
    endloop
  endfacet
  facet normal 0 0 -1
    outer loop
      vertex 40.5 11 0
      vertex 41.147 11.0852 0
      vertex 40.8263 11.0214 0
    endloop
  endfacet
  facet normal 0 0 -1
    outer loop
      vertex 41.75 36.6651 0
      vertex 40.5 37 0
      vertex 41.4567 36.8097 0
    endloop
  endfacet
  facet normal 0 0 -1
    outer loop
      vertex 41.4567 36.8097 0
      vertex 40.5 37 0
      vertex 41.147 36.9148 0
    endloop
  endfacet
  facet normal 0 0 -1
    outer loop
      vertex 41.147 36.9148 0
      vertex 40.5 37 0
      vertex 40.8263 36.9786 0
    endloop
  endfacet
  facet normal 0 0 -1
    outer loop
      vertex 15.5 11 0
      vertex 40.5 37 0
      vertex 40.5 11 0
    endloop
  endfacet
  facet normal 0 0 -1
    outer loop
      vertex 15.5 11 0
      vertex 15.5 37 0
      vertex 40.5 37 0
    endloop
  endfacet
  facet normal 0 0 -1
    outer loop
      vertex 13 13.5 0
      vertex 15.5 11 0
      vertex 15.1737 11.0214 0
    endloop
  endfacet
  facet normal 0 0 -1
    outer loop
      vertex 15.5 11 0
      vertex 13 13.5 0
      vertex 15.5 37 0
    endloop
  endfacet
  facet normal 0 0 -1
    outer loop
      vertex 13 13.5 0
      vertex 15.1737 11.0214 0
      vertex 14.853 11.0852 0
    endloop
  endfacet
  facet normal 0 0 -1
    outer loop
      vertex 13 34.5 0
      vertex 15.5 37 0
      vertex 13 13.5 0
    endloop
  endfacet
  facet normal 0 0 -1
    outer loop
      vertex 13 13.5 0
      vertex 14.853 11.0852 0
      vertex 14.5433 11.1903 0
    endloop
  endfacet
  facet normal 0 0 -1
    outer loop
      vertex 15.5 37 0
      vertex 13 34.5 0
      vertex 15.1737 36.9786 0
    endloop
  endfacet
  facet normal 0 0 -1
    outer loop
      vertex 13 13.5 0
      vertex 14.5433 11.1903 0
      vertex 14.25 11.3349 0
    endloop
  endfacet
  facet normal 0 0 -1
    outer loop
      vertex 15.1737 36.9786 0
      vertex 13 34.5 0
      vertex 14.853 36.9148 0
    endloop
  endfacet
  facet normal 0 0 -1
    outer loop
      vertex 13 13.5 0
      vertex 14.25 11.3349 0
      vertex 13.9781 11.5166 0
    endloop
  endfacet
  facet normal 0 0 -1
    outer loop
      vertex 14.853 36.9148 0
      vertex 13 34.5 0
      vertex 14.5433 36.8097 0
    endloop
  endfacet
  facet normal 0 0 -1
    outer loop
      vertex 13 13.5 0
      vertex 13.9781 11.5166 0
      vertex 13.7322 11.7322 0
    endloop
  endfacet
  facet normal 0 0 -1
    outer loop
      vertex 14.5433 36.8097 0
      vertex 13 34.5 0
      vertex 14.25 36.6651 0
    endloop
  endfacet
  facet normal 0 0 -1
    outer loop
      vertex 13 13.5 0
      vertex 13.7322 11.7322 0
      vertex 13.5166 11.9781 0
    endloop
  endfacet
  facet normal 0 0 -1
    outer loop
      vertex 14.25 36.6651 0
      vertex 13 34.5 0
      vertex 13.9781 36.4834 0
    endloop
  endfacet
  facet normal 0 0 -1
    outer loop
      vertex 13 13.5 0
      vertex 13.5166 11.9781 0
      vertex 13.3349 12.25 0
    endloop
  endfacet
  facet normal 0 0 -1
    outer loop
      vertex 13.9781 36.4834 0
      vertex 13 34.5 0
      vertex 13.7322 36.2678 0
    endloop
  endfacet
  facet normal 0 0 -1
    outer loop
      vertex 13 13.5 0
      vertex 13.3349 12.25 0
      vertex 13.1903 12.5433 0
    endloop
  endfacet
  facet normal 0 0 -1
    outer loop
      vertex 13.7322 36.2678 0
      vertex 13 34.5 0
      vertex 13.5166 36.0219 0
    endloop
  endfacet
  facet normal 0 0 -1
    outer loop
      vertex 13 13.5 0
      vertex 13.1903 12.5433 0
      vertex 13.0852 12.853 0
    endloop
  endfacet
  facet normal 0 0 -1
    outer loop
      vertex 13.5166 36.0219 0
      vertex 13 34.5 0
      vertex 13.3349 35.75 0
    endloop
  endfacet
  facet normal 0 0 -1
    outer loop
      vertex 13 13.5 0
      vertex 13.0852 12.853 0
      vertex 13.0214 13.1737 0
    endloop
  endfacet
  facet normal 0 0 -1
    outer loop
      vertex 13.3349 35.75 0
      vertex 13 34.5 0
      vertex 13.1903 35.4567 0
    endloop
  endfacet
  facet normal 0 0 -1
    outer loop
      vertex 13.1903 35.4567 0
      vertex 13 34.5 0
      vertex 13.0852 35.147 0
    endloop
  endfacet
  facet normal 0 0 -1
    outer loop
      vertex 13.0852 35.147 0
      vertex 13 34.5 0
      vertex 13.0214 34.8263 0
    endloop
  endfacet
  facet normal -1 0 0
    outer loop
      vertex 34.25 29.25 4.9
      vertex 34.25 25.35 6.8
      vertex 34.25 29.25 16.7
    endloop
  endfacet
  facet normal -1 0 0
    outer loop
      vertex 34.25 29.25 4.9
      vertex 34.25 22.65 6.8
      vertex 34.25 25.35 6.8
    endloop
  endfacet
  facet normal -1 0 0
    outer loop
      vertex 34.25 18.75 4.9
      vertex 34.25 22.65 6.8
      vertex 34.25 29.25 4.9
    endloop
  endfacet
  facet normal -1 0 0
    outer loop
      vertex 34.25 18.75 16.7
      vertex 34.25 22.65 6.8
      vertex 34.25 18.75 4.9
    endloop
  endfacet
  facet normal -1 0 0
    outer loop
      vertex 34.25 22.65 6.8
      vertex 34.25 18.75 16.7
      vertex 34.25 22.65 16.7
    endloop
  endfacet
  facet normal -1 -0 0
    outer loop
      vertex 34.25 29.25 16.7
      vertex 34.25 25.35 6.8
      vertex 34.25 25.35 16.7
    endloop
  endfacet
  facet normal -0 0 1
    outer loop
      vertex 21.75 29.25 4.9
      vertex 34.25 18.75 4.9
      vertex 34.25 29.25 4.9
    endloop
  endfacet
  facet normal 0 0 1
    outer loop
      vertex 34.25 18.75 4.9
      vertex 21.75 29.25 4.9
      vertex 21.75 18.75 4.9
    endloop
  endfacet
  facet normal 1 -0 0
    outer loop
      vertex 21.75 18.75 16.7
      vertex 21.75 29.25 4.9
      vertex 21.75 29.25 16.7
    endloop
  endfacet
  facet normal 1 0 0
    outer loop
      vertex 21.75 29.25 4.9
      vertex 21.75 18.75 16.7
      vertex 21.75 18.75 4.9
    endloop
  endfacet
  facet normal 0 -1 0
    outer loop
      vertex 21.75 29.25 4.9
      vertex 34.25 29.25 16.7
      vertex 21.75 29.25 16.7
    endloop
  endfacet
  facet normal 0 -1 -0
    outer loop
      vertex 34.25 29.25 16.7
      vertex 21.75 29.25 4.9
      vertex 34.25 29.25 4.9
    endloop
  endfacet
  facet normal 0 1 -0
    outer loop
      vertex 34.25 18.75 4.9
      vertex 21.75 18.75 16.7
      vertex 34.25 18.75 16.7
    endloop
  endfacet
  facet normal 0 1 0
    outer loop
      vertex 21.75 18.75 16.7
      vertex 34.25 18.75 4.9
      vertex 21.75 18.75 4.9
    endloop
  endfacet
  facet normal -1 0 0
    outer loop
      vertex 36.25 22.65 6.8
      vertex 36.25 25.35 17.8
      vertex 36.25 25.35 6.8
    endloop
  endfacet
  facet normal -1 -0 0
    outer loop
      vertex 36.25 25.35 17.8
      vertex 36.25 22.65 6.8
      vertex 36.25 22.65 17.8
    endloop
  endfacet
  facet normal 0 0 -1
    outer loop
      vertex 35.05 22.65 17.8
      vertex 36.25 25.35 17.8
      vertex 36.25 22.65 17.8
    endloop
  endfacet
  facet normal -0 0 -1
    outer loop
      vertex 36.25 25.35 17.8
      vertex 35.05 22.65 17.8
      vertex 35.05 25.35 17.8
    endloop
  endfacet
  facet normal -0 0 1
    outer loop
      vertex 34.25 25.35 6.8
      vertex 36.25 22.65 6.8
      vertex 36.25 25.35 6.8
    endloop
  endfacet
  facet normal 0 0 1
    outer loop
      vertex 36.25 22.65 6.8
      vertex 34.25 25.35 6.8
      vertex 34.25 22.65 6.8
    endloop
  endfacet
  facet normal 0 -1 0
    outer loop
      vertex 34.25 25.35 16.7
      vertex 34.25 25.35 6.8
      vertex 35.05 25.35 16.7
    endloop
  endfacet
  facet normal 0 -1 0
    outer loop
      vertex 35.05 25.35 16.7
      vertex 36.25 25.35 17.8
      vertex 35.05 25.35 17.8
    endloop
  endfacet
  facet normal 0 -1 0
    outer loop
      vertex 36.25 25.35 6.8
      vertex 35.05 25.35 16.7
      vertex 34.25 25.35 6.8
    endloop
  endfacet
  facet normal 0 -1 0
    outer loop
      vertex 35.05 25.35 16.7
      vertex 36.25 25.35 6.8
      vertex 36.25 25.35 17.8
    endloop
  endfacet
  facet normal 0 1 0
    outer loop
      vertex 36.25 22.65 17.8
      vertex 35.05 22.65 16.7
      vertex 35.05 22.65 17.8
    endloop
  endfacet
  facet normal 0 1 -0
    outer loop
      vertex 36.25 22.65 6.8
      vertex 35.05 22.65 16.7
      vertex 36.25 22.65 17.8
    endloop
  endfacet
  facet normal 0 1 0
    outer loop
      vertex 34.25 22.65 6.8
      vertex 35.05 22.65 16.7
      vertex 36.25 22.65 6.8
    endloop
  endfacet
  facet normal 0 1 0
    outer loop
      vertex 35.05 22.65 16.7
      vertex 34.25 22.65 6.8
      vertex 34.25 22.65 16.7
    endloop
  endfacet
  facet normal -1 0 0
    outer loop
      vertex 35.05 22.65 16.7
      vertex 35.05 17.95 16.7
      vertex 35.05 22.65 17.8
    endloop
  endfacet
  facet normal -1 0 0
    outer loop
      vertex 35.05 25.35 17.8
      vertex 35.05 30.05 16.7
      vertex 35.05 25.35 16.7
    endloop
  endfacet
  facet normal -1 0 0
    outer loop
      vertex 35.05 30.05 16.7
      vertex 35.05 25.35 17.8
      vertex 35.05 30.05 18
    endloop
  endfacet
  facet normal -1 0 0
    outer loop
      vertex 35.05 22.65 17.8
      vertex 35.05 30.05 18
      vertex 35.05 25.35 17.8
    endloop
  endfacet
  facet normal -1 0 0
    outer loop
      vertex 35.05 22.65 17.8
      vertex 35.05 17.95 18
      vertex 35.05 30.05 18
    endloop
  endfacet
  facet normal -1 0 0
    outer loop
      vertex 35.05 17.95 18
      vertex 35.05 22.65 17.8
      vertex 35.05 17.95 16.7
    endloop
  endfacet
  facet normal 0 0 1
    outer loop
      vertex 35.05 30.05 16.7
      vertex 34.25 29.25 16.7
      vertex 35.05 25.35 16.7
    endloop
  endfacet
  facet normal 0 0 1
    outer loop
      vertex 35.05 30.05 16.7
      vertex 21.75 29.25 16.7
      vertex 34.25 29.25 16.7
    endloop
  endfacet
  facet normal 0 0 1
    outer loop
      vertex 21.75 29.25 16.7
      vertex 20.95 30.05 16.7
      vertex 21.75 18.75 16.7
    endloop
  endfacet
  facet normal -0 0 1
    outer loop
      vertex 20.95 30.05 16.7
      vertex 21.75 29.25 16.7
      vertex 35.05 30.05 16.7
    endloop
  endfacet
  facet normal 0 0 1
    outer loop
      vertex 35.05 25.35 16.7
      vertex 34.25 29.25 16.7
      vertex 34.25 25.35 16.7
    endloop
  endfacet
  facet normal 0 0 1
    outer loop
      vertex 34.25 18.75 16.7
      vertex 35.05 22.65 16.7
      vertex 34.25 22.65 16.7
    endloop
  endfacet
  facet normal 0 0 1
    outer loop
      vertex 35.05 22.65 16.7
      vertex 34.25 18.75 16.7
      vertex 35.05 17.95 16.7
    endloop
  endfacet
  facet normal -0 0 1
    outer loop
      vertex 21.75 18.75 16.7
      vertex 35.05 17.95 16.7
      vertex 34.25 18.75 16.7
    endloop
  endfacet
  facet normal 0 0 1
    outer loop
      vertex 21.75 18.75 16.7
      vertex 20.95 17.95 16.7
      vertex 35.05 17.95 16.7
    endloop
  endfacet
  facet normal 0 0 1
    outer loop
      vertex 20.95 17.95 16.7
      vertex 21.75 18.75 16.7
      vertex 20.95 30.05 16.7
    endloop
  endfacet
  facet normal 1 -0 0
    outer loop
      vertex 20.95 17.95 18
      vertex 20.95 30.05 16.7
      vertex 20.95 30.05 18
    endloop
  endfacet
  facet normal 1 0 0
    outer loop
      vertex 20.95 30.05 16.7
      vertex 20.95 17.95 18
      vertex 20.95 17.95 16.7
    endloop
  endfacet
  facet normal 0 -1 0
    outer loop
      vertex 20.95 30.05 16.7
      vertex 35.05 30.05 18
      vertex 20.95 30.05 18
    endloop
  endfacet
  facet normal 0 -1 -0
    outer loop
      vertex 35.05 30.05 18
      vertex 20.95 30.05 16.7
      vertex 35.05 30.05 16.7
    endloop
  endfacet
  facet normal 0 1 -0
    outer loop
      vertex 35.05 17.95 16.7
      vertex 20.95 17.95 18
      vertex 35.05 17.95 18
    endloop
  endfacet
  facet normal 0 1 0
    outer loop
      vertex 20.95 17.95 18
      vertex 35.05 17.95 16.7
      vertex 20.95 17.95 16.7
    endloop
  endfacet
  facet normal 0 0 1
    outer loop
      vertex 74.8 29.8 5.2
      vertex 74 29 5.2
      vertex 74.8 18.2 5.2
    endloop
  endfacet
  facet normal 0 0 1
    outer loop
      vertex 74.8 29.8 5.2
      vertex 62 29 5.2
      vertex 74 29 5.2
    endloop
  endfacet
  facet normal 0 0 1
    outer loop
      vertex 62 29 5.2
      vertex 61.2 29.8 5.2
      vertex 62 19 5.2
    endloop
  endfacet
  facet normal -0 0 1
    outer loop
      vertex 61.2 29.8 5.2
      vertex 62 29 5.2
      vertex 74.8 29.8 5.2
    endloop
  endfacet
  facet normal -0 0 1
    outer loop
      vertex 74 19 5.2
      vertex 74.8 18.2 5.2
      vertex 74 29 5.2
    endloop
  endfacet
  facet normal -0 0 1
    outer loop
      vertex 62 19 5.2
      vertex 74.8 18.2 5.2
      vertex 74 19 5.2
    endloop
  endfacet
  facet normal 0 0 1
    outer loop
      vertex 62 19 5.2
      vertex 61.2 18.2 5.2
      vertex 74.8 18.2 5.2
    endloop
  endfacet
  facet normal 0 0 1
    outer loop
      vertex 61.2 18.2 5.2
      vertex 62 19 5.2
      vertex 61.2 29.8 5.2
    endloop
  endfacet
  facet normal -1 0 0
    outer loop
      vertex 61.2 18.2 4
      vertex 61.2 29.8 5.2
      vertex 61.2 29.8 4
    endloop
  endfacet
  facet normal -1 -0 0
    outer loop
      vertex 61.2 29.8 5.2
      vertex 61.2 18.2 4
      vertex 61.2 18.2 5.2
    endloop
  endfacet
  facet normal 1 -0 0
    outer loop
      vertex 74.8 18.2 5.2
      vertex 74.8 29.8 4
      vertex 74.8 29.8 5.2
    endloop
  endfacet
  facet normal 1 0 0
    outer loop
      vertex 74.8 29.8 4
      vertex 74.8 18.2 5.2
      vertex 74.8 18.2 4
    endloop
  endfacet
  facet normal 0 1 -0
    outer loop
      vertex 74.8 29.8 4
      vertex 61.2 29.8 5.2
      vertex 74.8 29.8 5.2
    endloop
  endfacet
  facet normal 0 1 0
    outer loop
      vertex 61.2 29.8 5.2
      vertex 74.8 29.8 4
      vertex 61.2 29.8 4
    endloop
  endfacet
  facet normal 0 0 1
    outer loop
      vertex 78.5 35 4
      vertex 81 32.5 4
      vertex 80.9786 32.8263 4
    endloop
  endfacet
  facet normal 0 0 1
    outer loop
      vertex 81 32.5 4
      vertex 74.8 29.8 4
      vertex 81 15.5 4
    endloop
  endfacet
  facet normal 0 0 1
    outer loop
      vertex 78.5 35 4
      vertex 80.9786 32.8263 4
      vertex 80.9148 33.147 4
    endloop
  endfacet
  facet normal -0 0 1
    outer loop
      vertex 74.8 18.2 4
      vertex 81 15.5 4
      vertex 74.8 29.8 4
    endloop
  endfacet
  facet normal 0 0 1
    outer loop
      vertex 78.5 35 4
      vertex 80.9148 33.147 4
      vertex 80.8097 33.4567 4
    endloop
  endfacet
  facet normal 0 -0 1
    outer loop
      vertex 78.5 13 4
      vertex 81 15.5 4
      vertex 74.8 18.2 4
    endloop
  endfacet
  facet normal 0 0 1
    outer loop
      vertex 78.5 35 4
      vertex 80.8097 33.4567 4
      vertex 80.6651 33.75 4
    endloop
  endfacet
  facet normal 0 0 1
    outer loop
      vertex 81 15.5 4
      vertex 78.5 13 4
      vertex 80.9786 15.1737 4
    endloop
  endfacet
  facet normal 0 0 1
    outer loop
      vertex 78.5 35 4
      vertex 80.6651 33.75 4
      vertex 80.4834 34.0219 4
    endloop
  endfacet
  facet normal 0 0 1
    outer loop
      vertex 80.9786 15.1737 4
      vertex 78.5 13 4
      vertex 80.9148 14.853 4
    endloop
  endfacet
  facet normal 0 0 1
    outer loop
      vertex 78.5 35 4
      vertex 80.4834 34.0219 4
      vertex 80.2678 34.2678 4
    endloop
  endfacet
  facet normal 0 0 1
    outer loop
      vertex 80.9148 14.853 4
      vertex 78.5 13 4
      vertex 80.8097 14.5433 4
    endloop
  endfacet
  facet normal 0 0 1
    outer loop
      vertex 78.5 35 4
      vertex 80.2678 34.2678 4
      vertex 80.0219 34.4834 4
    endloop
  endfacet
  facet normal 0 0 1
    outer loop
      vertex 80.8097 14.5433 4
      vertex 78.5 13 4
      vertex 80.6651 14.25 4
    endloop
  endfacet
  facet normal 0 0 1
    outer loop
      vertex 78.5 35 4
      vertex 80.0219 34.4834 4
      vertex 79.75 34.6651 4
    endloop
  endfacet
  facet normal 0 0 1
    outer loop
      vertex 80.6651 14.25 4
      vertex 78.5 13 4
      vertex 80.4834 13.9781 4
    endloop
  endfacet
  facet normal 0 0 1
    outer loop
      vertex 78.5 35 4
      vertex 79.75 34.6651 4
      vertex 79.4567 34.8097 4
    endloop
  endfacet
  facet normal 0 0 1
    outer loop
      vertex 80.4834 13.9781 4
      vertex 78.5 13 4
      vertex 80.2678 13.7322 4
    endloop
  endfacet
  facet normal 0 0 1
    outer loop
      vertex 78.5 35 4
      vertex 79.4567 34.8097 4
      vertex 79.147 34.9148 4
    endloop
  endfacet
  facet normal 0 0 1
    outer loop
      vertex 80.2678 13.7322 4
      vertex 78.5 13 4
      vertex 80.0219 13.5166 4
    endloop
  endfacet
  facet normal 0 0 1
    outer loop
      vertex 78.5 35 4
      vertex 79.147 34.9148 4
      vertex 78.8263 34.9786 4
    endloop
  endfacet
  facet normal 0 0 1
    outer loop
      vertex 80.0219 13.5166 4
      vertex 78.5 13 4
      vertex 79.75 13.3349 4
    endloop
  endfacet
  facet normal 0 0 1
    outer loop
      vertex 81 32.5 4
      vertex 78.5 35 4
      vertex 74.8 29.8 4
    endloop
  endfacet
  facet normal 0 0 1
    outer loop
      vertex 79.75 13.3349 4
      vertex 78.5 13 4
      vertex 79.4567 13.1903 4
    endloop
  endfacet
  facet normal 0 0 1
    outer loop
      vertex 79.4567 13.1903 4
      vertex 78.5 13 4
      vertex 79.147 13.0852 4
    endloop
  endfacet
  facet normal 0 0 1
    outer loop
      vertex 78.5 35 4
      vertex 61.2 29.8 4
      vertex 74.8 29.8 4
    endloop
  endfacet
  facet normal -0 0 1
    outer loop
      vertex 55 32.5 4
      vertex 61.2 29.8 4
      vertex 57.5 35 4
    endloop
  endfacet
  facet normal -0 0 1
    outer loop
      vertex 57.5 35 4
      vertex 61.2 29.8 4
      vertex 78.5 35 4
    endloop
  endfacet
  facet normal 0 0 1
    outer loop
      vertex 79.147 13.0852 4
      vertex 78.5 13 4
      vertex 78.8263 13.0214 4
    endloop
  endfacet
  facet normal -0 0 1
    outer loop
      vertex 61.2 18.2 4
      vertex 78.5 13 4
      vertex 74.8 18.2 4
    endloop
  endfacet
  facet normal 0 0 1
    outer loop
      vertex 61.2 18.2 4
      vertex 57.5 13 4
      vertex 78.5 13 4
    endloop
  endfacet
  facet normal 0 0 1
    outer loop
      vertex 61.2 29.8 4
      vertex 55 32.5 4
      vertex 61.2 18.2 4
    endloop
  endfacet
  facet normal 0 0 1
    outer loop
      vertex 55 32.5 4
      vertex 57.5 35 4
      vertex 57.1737 34.9786 4
    endloop
  endfacet
  facet normal 0 0 1
    outer loop
      vertex 55 15.5 4
      vertex 61.2 18.2 4
      vertex 55 32.5 4
    endloop
  endfacet
  facet normal 0 0 1
    outer loop
      vertex 55 32.5 4
      vertex 57.1737 34.9786 4
      vertex 56.853 34.9148 4
    endloop
  endfacet
  facet normal 0 0 1
    outer loop
      vertex 61.2 18.2 4
      vertex 55 15.5 4
      vertex 57.5 13 4
    endloop
  endfacet
  facet normal 0 0 1
    outer loop
      vertex 55 32.5 4
      vertex 56.853 34.9148 4
      vertex 56.5433 34.8097 4
    endloop
  endfacet
  facet normal 0 0 1
    outer loop
      vertex 57.5 13 4
      vertex 55 15.5 4
      vertex 57.1737 13.0214 4
    endloop
  endfacet
  facet normal 0 0 1
    outer loop
      vertex 55 32.5 4
      vertex 56.5433 34.8097 4
      vertex 56.25 34.6651 4
    endloop
  endfacet
  facet normal 0 0 1
    outer loop
      vertex 57.1737 13.0214 4
      vertex 55 15.5 4
      vertex 56.853 13.0852 4
    endloop
  endfacet
  facet normal 0 0 1
    outer loop
      vertex 55 32.5 4
      vertex 56.25 34.6651 4
      vertex 55.9781 34.4834 4
    endloop
  endfacet
  facet normal 0 0 1
    outer loop
      vertex 56.853 13.0852 4
      vertex 55 15.5 4
      vertex 56.5433 13.1903 4
    endloop
  endfacet
  facet normal 0 0 1
    outer loop
      vertex 55 32.5 4
      vertex 55.9781 34.4834 4
      vertex 55.7322 34.2678 4
    endloop
  endfacet
  facet normal 0 0 1
    outer loop
      vertex 56.5433 13.1903 4
      vertex 55 15.5 4
      vertex 56.25 13.3349 4
    endloop
  endfacet
  facet normal 0 0 1
    outer loop
      vertex 55 32.5 4
      vertex 55.7322 34.2678 4
      vertex 55.5166 34.0219 4
    endloop
  endfacet
  facet normal 0 0 1
    outer loop
      vertex 56.25 13.3349 4
      vertex 55 15.5 4
      vertex 55.9781 13.5166 4
    endloop
  endfacet
  facet normal 0 0 1
    outer loop
      vertex 55 32.5 4
      vertex 55.5166 34.0219 4
      vertex 55.3349 33.75 4
    endloop
  endfacet
  facet normal 0 0 1
    outer loop
      vertex 55.9781 13.5166 4
      vertex 55 15.5 4
      vertex 55.7322 13.7322 4
    endloop
  endfacet
  facet normal 0 0 1
    outer loop
      vertex 55 32.5 4
      vertex 55.3349 33.75 4
      vertex 55.1903 33.4567 4
    endloop
  endfacet
  facet normal 0 0 1
    outer loop
      vertex 55.7322 13.7322 4
      vertex 55 15.5 4
      vertex 55.5166 13.9781 4
    endloop
  endfacet
  facet normal 0 0 1
    outer loop
      vertex 55 32.5 4
      vertex 55.1903 33.4567 4
      vertex 55.0852 33.147 4
    endloop
  endfacet
  facet normal 0 0 1
    outer loop
      vertex 55.5166 13.9781 4
      vertex 55 15.5 4
      vertex 55.3349 14.25 4
    endloop
  endfacet
  facet normal 0 0 1
    outer loop
      vertex 55 32.5 4
      vertex 55.0852 33.147 4
      vertex 55.0214 32.8263 4
    endloop
  endfacet
  facet normal 0 0 1
    outer loop
      vertex 55.3349 14.25 4
      vertex 55 15.5 4
      vertex 55.1903 14.5433 4
    endloop
  endfacet
  facet normal 0 0 1
    outer loop
      vertex 55.1903 14.5433 4
      vertex 55 15.5 4
      vertex 55.0852 14.853 4
    endloop
  endfacet
  facet normal 0 0 1
    outer loop
      vertex 55.0852 14.853 4
      vertex 55 15.5 4
      vertex 55.0214 15.1737 4
    endloop
  endfacet
  facet normal 0 -1 0
    outer loop
      vertex 61.2 18.2 4
      vertex 74.8 18.2 5.2
      vertex 61.2 18.2 5.2
    endloop
  endfacet
  facet normal 0 -1 -0
    outer loop
      vertex 74.8 18.2 5.2
      vertex 61.2 18.2 4
      vertex 74.8 18.2 4
    endloop
  endfacet
  facet normal 0.946957 0.32136 0
    outer loop
      vertex 80.9148 33.147 4
      vertex 80.8097 33.4567 0
      vertex 80.8097 33.4567 4
    endloop
  endfacet
  facet normal 0.946957 0.32136 0
    outer loop
      vertex 80.8097 33.4567 0
      vertex 80.9148 33.147 4
      vertex 80.9148 33.147 0
    endloop
  endfacet
  facet normal -0.195116 -0.98078 0
    outer loop
      vertex 56.853 13.0852 0
      vertex 57.1737 13.0214 4
      vertex 56.853 13.0852 4
    endloop
  endfacet
  facet normal -0.195116 -0.98078 -0
    outer loop
      vertex 57.1737 13.0214 4
      vertex 56.853 13.0852 0
      vertex 57.1737 13.0214 0
    endloop
  endfacet
  facet normal -0.32136 -0.946957 0
    outer loop
      vertex 56.5433 13.1903 0
      vertex 56.853 13.0852 4
      vertex 56.5433 13.1903 4
    endloop
  endfacet
  facet normal -0.32136 -0.946957 -0
    outer loop
      vertex 56.853 13.0852 4
      vertex 56.5433 13.1903 0
      vertex 56.853 13.0852 0
    endloop
  endfacet
  facet normal 0.442191 -0.896921 0
    outer loop
      vertex 79.4567 13.1903 0
      vertex 79.75 13.3349 4
      vertex 79.4567 13.1903 4
    endloop
  endfacet
  facet normal 0.442191 -0.896921 0
    outer loop
      vertex 79.75 13.3349 4
      vertex 79.4567 13.1903 0
      vertex 79.75 13.3349 0
    endloop
  endfacet
  facet normal 0 1 -0
    outer loop
      vertex 78.5 35 0
      vertex 57.5 35 4
      vertex 78.5 35 4
    endloop
  endfacet
  facet normal 0 1 0
    outer loop
      vertex 57.5 35 4
      vertex 78.5 35 0
      vertex 57.5 35 0
    endloop
  endfacet
  facet normal -0.831438 -0.555617 0
    outer loop
      vertex 55.5166 13.9781 0
      vertex 55.3349 14.25 4
      vertex 55.3349 14.25 0
    endloop
  endfacet
  facet normal -0.831438 -0.555617 0
    outer loop
      vertex 55.3349 14.25 4
      vertex 55.5166 13.9781 0
      vertex 55.5166 13.9781 4
    endloop
  endfacet
  facet normal -0.0654432 -0.997856 0
    outer loop
      vertex 57.1737 13.0214 0
      vertex 57.5 13 4
      vertex 57.1737 13.0214 4
    endloop
  endfacet
  facet normal -0.0654432 -0.997856 -0
    outer loop
      vertex 57.5 13 4
      vertex 57.1737 13.0214 0
      vertex 57.5 13 0
    endloop
  endfacet
  facet normal -0.751913 -0.659262 0
    outer loop
      vertex 55.7322 13.7322 0
      vertex 55.5166 13.9781 4
      vertex 55.5166 13.9781 0
    endloop
  endfacet
  facet normal -0.751913 -0.659262 0
    outer loop
      vertex 55.5166 13.9781 4
      vertex 55.7322 13.7322 0
      vertex 55.7322 13.7322 4
    endloop
  endfacet
  facet normal 0.946957 -0.32136 0
    outer loop
      vertex 80.8097 14.5433 4
      vertex 80.9148 14.853 0
      vertex 80.9148 14.853 4
    endloop
  endfacet
  facet normal 0.946957 -0.32136 0
    outer loop
      vertex 80.9148 14.853 0
      vertex 80.8097 14.5433 4
      vertex 80.8097 14.5433 0
    endloop
  endfacet
  facet normal 0 -1 0
    outer loop
      vertex 57.5 13 0
      vertex 78.5 13 4
      vertex 57.5 13 4
    endloop
  endfacet
  facet normal 0 -1 -0
    outer loop
      vertex 78.5 13 4
      vertex 57.5 13 0
      vertex 78.5 13 0
    endloop
  endfacet
  facet normal -0.946957 -0.32136 0
    outer loop
      vertex 55.1903 14.5433 0
      vertex 55.0852 14.853 4
      vertex 55.0852 14.853 0
    endloop
  endfacet
  facet normal -0.946957 -0.32136 0
    outer loop
      vertex 55.0852 14.853 4
      vertex 55.1903 14.5433 0
      vertex 55.1903 14.5433 4
    endloop
  endfacet
  facet normal -0.98078 -0.195116 0
    outer loop
      vertex 55.0852 14.853 0
      vertex 55.0214 15.1737 4
      vertex 55.0214 15.1737 0
    endloop
  endfacet
  facet normal -0.98078 -0.195116 0
    outer loop
      vertex 55.0214 15.1737 4
      vertex 55.0852 14.853 0
      vertex 55.0852 14.853 4
    endloop
  endfacet
  facet normal 0.32136 -0.946957 0
    outer loop
      vertex 79.147 13.0852 0
      vertex 79.4567 13.1903 4
      vertex 79.147 13.0852 4
    endloop
  endfacet
  facet normal 0.32136 -0.946957 0
    outer loop
      vertex 79.4567 13.1903 4
      vertex 79.147 13.0852 0
      vertex 79.4567 13.1903 0
    endloop
  endfacet
  facet normal 0.32136 0.946957 -0
    outer loop
      vertex 79.4567 34.8097 0
      vertex 79.147 34.9148 4
      vertex 79.4567 34.8097 4
    endloop
  endfacet
  facet normal 0.32136 0.946957 0
    outer loop
      vertex 79.147 34.9148 4
      vertex 79.4567 34.8097 0
      vertex 79.147 34.9148 0
    endloop
  endfacet
  facet normal 0.442191 0.896921 -0
    outer loop
      vertex 79.75 34.6651 0
      vertex 79.4567 34.8097 4
      vertex 79.75 34.6651 4
    endloop
  endfacet
  facet normal 0.442191 0.896921 0
    outer loop
      vertex 79.4567 34.8097 4
      vertex 79.75 34.6651 0
      vertex 79.4567 34.8097 0
    endloop
  endfacet
  facet normal 0.0654432 0.997856 -0
    outer loop
      vertex 78.8263 34.9786 0
      vertex 78.5 35 4
      vertex 78.8263 34.9786 4
    endloop
  endfacet
  facet normal 0.0654432 0.997856 0
    outer loop
      vertex 78.5 35 4
      vertex 78.8263 34.9786 0
      vertex 78.5 35 0
    endloop
  endfacet
  facet normal 0.0654432 -0.997856 0
    outer loop
      vertex 78.5 13 0
      vertex 78.8263 13.0214 4
      vertex 78.5 13 4
    endloop
  endfacet
  facet normal 0.0654432 -0.997856 0
    outer loop
      vertex 78.8263 13.0214 4
      vertex 78.5 13 0
      vertex 78.8263 13.0214 0
    endloop
  endfacet
  facet normal 0.997856 0.0654432 0
    outer loop
      vertex 81 32.5 4
      vertex 80.9786 32.8263 0
      vertex 80.9786 32.8263 4
    endloop
  endfacet
  facet normal 0.997856 0.0654432 0
    outer loop
      vertex 80.9786 32.8263 0
      vertex 81 32.5 4
      vertex 81 32.5 0
    endloop
  endfacet
  facet normal 0.195116 0.98078 -0
    outer loop
      vertex 79.147 34.9148 0
      vertex 78.8263 34.9786 4
      vertex 79.147 34.9148 4
    endloop
  endfacet
  facet normal 0.195116 0.98078 0
    outer loop
      vertex 78.8263 34.9786 4
      vertex 79.147 34.9148 0
      vertex 78.8263 34.9786 0
    endloop
  endfacet
  facet normal 0.997856 -0.0654432 0
    outer loop
      vertex 80.9786 15.1737 4
      vertex 81 15.5 0
      vertex 81 15.5 4
    endloop
  endfacet
  facet normal 0.997856 -0.0654432 0
    outer loop
      vertex 81 15.5 0
      vertex 80.9786 15.1737 4
      vertex 80.9786 15.1737 0
    endloop
  endfacet
  facet normal -0.659262 0.751913 0
    outer loop
      vertex 55.9781 34.4834 0
      vertex 55.7322 34.2678 4
      vertex 55.9781 34.4834 4
    endloop
  endfacet
  facet normal -0.659262 0.751913 0
    outer loop
      vertex 55.7322 34.2678 4
      vertex 55.9781 34.4834 0
      vertex 55.7322 34.2678 0
    endloop
  endfacet
  facet normal -0.442191 -0.896921 0
    outer loop
      vertex 56.25 13.3349 0
      vertex 56.5433 13.1903 4
      vertex 56.25 13.3349 4
    endloop
  endfacet
  facet normal -0.442191 -0.896921 -0
    outer loop
      vertex 56.5433 13.1903 4
      vertex 56.25 13.3349 0
      vertex 56.5433 13.1903 0
    endloop
  endfacet
  facet normal 0.831438 -0.555617 0
    outer loop
      vertex 80.4834 13.9781 4
      vertex 80.6651 14.25 0
      vertex 80.6651 14.25 4
    endloop
  endfacet
  facet normal 0.831438 -0.555617 0
    outer loop
      vertex 80.6651 14.25 0
      vertex 80.4834 13.9781 4
      vertex 80.4834 13.9781 0
    endloop
  endfacet
  facet normal 0.195116 -0.98078 0
    outer loop
      vertex 78.8263 13.0214 0
      vertex 79.147 13.0852 4
      vertex 78.8263 13.0214 4
    endloop
  endfacet
  facet normal 0.195116 -0.98078 0
    outer loop
      vertex 79.147 13.0852 4
      vertex 78.8263 13.0214 0
      vertex 79.147 13.0852 0
    endloop
  endfacet
  facet normal 0.659262 0.751913 -0
    outer loop
      vertex 80.2678 34.2678 0
      vertex 80.0219 34.4834 4
      vertex 80.2678 34.2678 4
    endloop
  endfacet
  facet normal 0.659262 0.751913 0
    outer loop
      vertex 80.0219 34.4834 4
      vertex 80.2678 34.2678 0
      vertex 80.0219 34.4834 0
    endloop
  endfacet
  facet normal -0.946957 0.32136 0
    outer loop
      vertex 55.0852 33.147 0
      vertex 55.1903 33.4567 4
      vertex 55.1903 33.4567 0
    endloop
  endfacet
  facet normal -0.946957 0.32136 0
    outer loop
      vertex 55.1903 33.4567 4
      vertex 55.0852 33.147 0
      vertex 55.0852 33.147 4
    endloop
  endfacet
  facet normal -0.751913 0.659262 0
    outer loop
      vertex 55.5166 34.0219 0
      vertex 55.7322 34.2678 4
      vertex 55.7322 34.2678 0
    endloop
  endfacet
  facet normal -0.751913 0.659262 0
    outer loop
      vertex 55.7322 34.2678 4
      vertex 55.5166 34.0219 0
      vertex 55.5166 34.0219 4
    endloop
  endfacet
  facet normal -1 0 0
    outer loop
      vertex 55 15.5 0
      vertex 55 32.5 4
      vertex 55 32.5 0
    endloop
  endfacet
  facet normal -1 -0 0
    outer loop
      vertex 55 32.5 4
      vertex 55 15.5 0
      vertex 55 15.5 4
    endloop
  endfacet
  facet normal 0 0 -1
    outer loop
      vertex 78.5 13 0
      vertex 81 15.5 0
      vertex 80.9786 15.1737 0
    endloop
  endfacet
  facet normal -0 0 -1
    outer loop
      vertex 81 15.5 0
      vertex 78.5 13 0
      vertex 81 32.5 0
    endloop
  endfacet
  facet normal 0 0 -1
    outer loop
      vertex 78.5 13 0
      vertex 80.9786 15.1737 0
      vertex 80.9148 14.853 0
    endloop
  endfacet
  facet normal 0 0 -1
    outer loop
      vertex 78.5 35 0
      vertex 81 32.5 0
      vertex 78.5 13 0
    endloop
  endfacet
  facet normal 0 0 -1
    outer loop
      vertex 78.5 13 0
      vertex 80.9148 14.853 0
      vertex 80.8097 14.5433 0
    endloop
  endfacet
  facet normal 0 0 -1
    outer loop
      vertex 81 32.5 0
      vertex 78.5 35 0
      vertex 80.9786 32.8263 0
    endloop
  endfacet
  facet normal 0 0 -1
    outer loop
      vertex 78.5 13 0
      vertex 80.8097 14.5433 0
      vertex 80.6651 14.25 0
    endloop
  endfacet
  facet normal 0 0 -1
    outer loop
      vertex 80.9786 32.8263 0
      vertex 78.5 35 0
      vertex 80.9148 33.147 0
    endloop
  endfacet
  facet normal 0 0 -1
    outer loop
      vertex 78.5 13 0
      vertex 80.6651 14.25 0
      vertex 80.4834 13.9781 0
    endloop
  endfacet
  facet normal 0 0 -1
    outer loop
      vertex 80.9148 33.147 0
      vertex 78.5 35 0
      vertex 80.8097 33.4567 0
    endloop
  endfacet
  facet normal 0 0 -1
    outer loop
      vertex 78.5 13 0
      vertex 80.4834 13.9781 0
      vertex 80.2678 13.7322 0
    endloop
  endfacet
  facet normal 0 0 -1
    outer loop
      vertex 80.8097 33.4567 0
      vertex 78.5 35 0
      vertex 80.6651 33.75 0
    endloop
  endfacet
  facet normal 0 0 -1
    outer loop
      vertex 78.5 13 0
      vertex 80.2678 13.7322 0
      vertex 80.0219 13.5166 0
    endloop
  endfacet
  facet normal 0 0 -1
    outer loop
      vertex 80.6651 33.75 0
      vertex 78.5 35 0
      vertex 80.4834 34.0219 0
    endloop
  endfacet
  facet normal 0 0 -1
    outer loop
      vertex 78.5 13 0
      vertex 80.0219 13.5166 0
      vertex 79.75 13.3349 0
    endloop
  endfacet
  facet normal 0 0 -1
    outer loop
      vertex 80.4834 34.0219 0
      vertex 78.5 35 0
      vertex 80.2678 34.2678 0
    endloop
  endfacet
  facet normal 0 0 -1
    outer loop
      vertex 78.5 13 0
      vertex 79.75 13.3349 0
      vertex 79.4567 13.1903 0
    endloop
  endfacet
  facet normal 0 0 -1
    outer loop
      vertex 80.2678 34.2678 0
      vertex 78.5 35 0
      vertex 80.0219 34.4834 0
    endloop
  endfacet
  facet normal 0 0 -1
    outer loop
      vertex 78.5 13 0
      vertex 79.4567 13.1903 0
      vertex 79.147 13.0852 0
    endloop
  endfacet
  facet normal 0 0 -1
    outer loop
      vertex 80.0219 34.4834 0
      vertex 78.5 35 0
      vertex 79.75 34.6651 0
    endloop
  endfacet
  facet normal 0 0 -1
    outer loop
      vertex 78.5 13 0
      vertex 79.147 13.0852 0
      vertex 78.8263 13.0214 0
    endloop
  endfacet
  facet normal 0 0 -1
    outer loop
      vertex 79.75 34.6651 0
      vertex 78.5 35 0
      vertex 79.4567 34.8097 0
    endloop
  endfacet
  facet normal 0 0 -1
    outer loop
      vertex 79.4567 34.8097 0
      vertex 78.5 35 0
      vertex 79.147 34.9148 0
    endloop
  endfacet
  facet normal 0 0 -1
    outer loop
      vertex 79.147 34.9148 0
      vertex 78.5 35 0
      vertex 78.8263 34.9786 0
    endloop
  endfacet
  facet normal 0 0 -1
    outer loop
      vertex 57.5 13 0
      vertex 78.5 35 0
      vertex 78.5 13 0
    endloop
  endfacet
  facet normal 0 0 -1
    outer loop
      vertex 57.5 13 0
      vertex 57.5 35 0
      vertex 78.5 35 0
    endloop
  endfacet
  facet normal 0 0 -1
    outer loop
      vertex 55 15.5 0
      vertex 57.5 13 0
      vertex 57.1737 13.0214 0
    endloop
  endfacet
  facet normal 0 0 -1
    outer loop
      vertex 57.5 13 0
      vertex 55 15.5 0
      vertex 57.5 35 0
    endloop
  endfacet
  facet normal 0 0 -1
    outer loop
      vertex 55 15.5 0
      vertex 57.1737 13.0214 0
      vertex 56.853 13.0852 0
    endloop
  endfacet
  facet normal 0 0 -1
    outer loop
      vertex 55 32.5 0
      vertex 57.5 35 0
      vertex 55 15.5 0
    endloop
  endfacet
  facet normal 0 0 -1
    outer loop
      vertex 55 15.5 0
      vertex 56.853 13.0852 0
      vertex 56.5433 13.1903 0
    endloop
  endfacet
  facet normal 0 0 -1
    outer loop
      vertex 57.5 35 0
      vertex 55 32.5 0
      vertex 57.1737 34.9786 0
    endloop
  endfacet
  facet normal 0 0 -1
    outer loop
      vertex 55 15.5 0
      vertex 56.5433 13.1903 0
      vertex 56.25 13.3349 0
    endloop
  endfacet
  facet normal 0 0 -1
    outer loop
      vertex 57.1737 34.9786 0
      vertex 55 32.5 0
      vertex 56.853 34.9148 0
    endloop
  endfacet
  facet normal 0 0 -1
    outer loop
      vertex 55 15.5 0
      vertex 56.25 13.3349 0
      vertex 55.9781 13.5166 0
    endloop
  endfacet
  facet normal 0 0 -1
    outer loop
      vertex 56.853 34.9148 0
      vertex 55 32.5 0
      vertex 56.5433 34.8097 0
    endloop
  endfacet
  facet normal 0 0 -1
    outer loop
      vertex 55 15.5 0
      vertex 55.9781 13.5166 0
      vertex 55.7322 13.7322 0
    endloop
  endfacet
  facet normal 0 0 -1
    outer loop
      vertex 56.5433 34.8097 0
      vertex 55 32.5 0
      vertex 56.25 34.6651 0
    endloop
  endfacet
  facet normal 0 0 -1
    outer loop
      vertex 55 15.5 0
      vertex 55.7322 13.7322 0
      vertex 55.5166 13.9781 0
    endloop
  endfacet
  facet normal 0 0 -1
    outer loop
      vertex 56.25 34.6651 0
      vertex 55 32.5 0
      vertex 55.9781 34.4834 0
    endloop
  endfacet
  facet normal 0 0 -1
    outer loop
      vertex 55 15.5 0
      vertex 55.5166 13.9781 0
      vertex 55.3349 14.25 0
    endloop
  endfacet
  facet normal 0 0 -1
    outer loop
      vertex 55.9781 34.4834 0
      vertex 55 32.5 0
      vertex 55.7322 34.2678 0
    endloop
  endfacet
  facet normal 0 0 -1
    outer loop
      vertex 55 15.5 0
      vertex 55.3349 14.25 0
      vertex 55.1903 14.5433 0
    endloop
  endfacet
  facet normal 0 0 -1
    outer loop
      vertex 55.7322 34.2678 0
      vertex 55 32.5 0
      vertex 55.5166 34.0219 0
    endloop
  endfacet
  facet normal 0 0 -1
    outer loop
      vertex 55 15.5 0
      vertex 55.1903 14.5433 0
      vertex 55.0852 14.853 0
    endloop
  endfacet
  facet normal 0 0 -1
    outer loop
      vertex 55.5166 34.0219 0
      vertex 55 32.5 0
      vertex 55.3349 33.75 0
    endloop
  endfacet
  facet normal 0 0 -1
    outer loop
      vertex 55 15.5 0
      vertex 55.0852 14.853 0
      vertex 55.0214 15.1737 0
    endloop
  endfacet
  facet normal 0 0 -1
    outer loop
      vertex 55.3349 33.75 0
      vertex 55 32.5 0
      vertex 55.1903 33.4567 0
    endloop
  endfacet
  facet normal 0 0 -1
    outer loop
      vertex 55.1903 33.4567 0
      vertex 55 32.5 0
      vertex 55.0852 33.147 0
    endloop
  endfacet
  facet normal 0 0 -1
    outer loop
      vertex 55.0852 33.147 0
      vertex 55 32.5 0
      vertex 55.0214 32.8263 0
    endloop
  endfacet
  facet normal 1 -0 0
    outer loop
      vertex 81 15.5 4
      vertex 81 32.5 0
      vertex 81 32.5 4
    endloop
  endfacet
  facet normal 1 0 0
    outer loop
      vertex 81 32.5 0
      vertex 81 15.5 4
      vertex 81 15.5 0
    endloop
  endfacet
  facet normal -0.555617 -0.831438 0
    outer loop
      vertex 55.9781 13.5166 0
      vertex 56.25 13.3349 4
      vertex 55.9781 13.5166 4
    endloop
  endfacet
  facet normal -0.555617 -0.831438 -0
    outer loop
      vertex 56.25 13.3349 4
      vertex 55.9781 13.5166 0
      vertex 56.25 13.3349 0
    endloop
  endfacet
  facet normal 0.555617 -0.831438 0
    outer loop
      vertex 79.75 13.3349 0
      vertex 80.0219 13.5166 4
      vertex 79.75 13.3349 4
    endloop
  endfacet
  facet normal 0.555617 -0.831438 0
    outer loop
      vertex 80.0219 13.5166 4
      vertex 79.75 13.3349 0
      vertex 80.0219 13.5166 0
    endloop
  endfacet
  facet normal -0.659262 -0.751913 0
    outer loop
      vertex 55.7322 13.7322 0
      vertex 55.9781 13.5166 4
      vertex 55.7322 13.7322 4
    endloop
  endfacet
  facet normal -0.659262 -0.751913 -0
    outer loop
      vertex 55.9781 13.5166 4
      vertex 55.7322 13.7322 0
      vertex 55.9781 13.5166 0
    endloop
  endfacet
  facet normal 0.659262 -0.751913 0
    outer loop
      vertex 80.0219 13.5166 0
      vertex 80.2678 13.7322 4
      vertex 80.0219 13.5166 4
    endloop
  endfacet
  facet normal 0.659262 -0.751913 0
    outer loop
      vertex 80.2678 13.7322 4
      vertex 80.0219 13.5166 0
      vertex 80.2678 13.7322 0
    endloop
  endfacet
  facet normal -0.0654432 0.997856 0
    outer loop
      vertex 57.5 35 0
      vertex 57.1737 34.9786 4
      vertex 57.5 35 4
    endloop
  endfacet
  facet normal -0.0654432 0.997856 0
    outer loop
      vertex 57.1737 34.9786 4
      vertex 57.5 35 0
      vertex 57.1737 34.9786 0
    endloop
  endfacet
  facet normal 0.98078 0.195116 0
    outer loop
      vertex 80.9786 32.8263 4
      vertex 80.9148 33.147 0
      vertex 80.9148 33.147 4
    endloop
  endfacet
  facet normal 0.98078 0.195116 0
    outer loop
      vertex 80.9148 33.147 0
      vertex 80.9786 32.8263 4
      vertex 80.9786 32.8263 0
    endloop
  endfacet
  facet normal -0.442191 0.896921 0
    outer loop
      vertex 56.5433 34.8097 0
      vertex 56.25 34.6651 4
      vertex 56.5433 34.8097 4
    endloop
  endfacet
  facet normal -0.442191 0.896921 0
    outer loop
      vertex 56.25 34.6651 4
      vertex 56.5433 34.8097 0
      vertex 56.25 34.6651 0
    endloop
  endfacet
  facet normal 0.98078 -0.195116 0
    outer loop
      vertex 80.9148 14.853 4
      vertex 80.9786 15.1737 0
      vertex 80.9786 15.1737 4
    endloop
  endfacet
  facet normal 0.98078 -0.195116 0
    outer loop
      vertex 80.9786 15.1737 0
      vertex 80.9148 14.853 4
      vertex 80.9148 14.853 0
    endloop
  endfacet
  facet normal 0.751913 0.659262 0
    outer loop
      vertex 80.4834 34.0219 4
      vertex 80.2678 34.2678 0
      vertex 80.2678 34.2678 4
    endloop
  endfacet
  facet normal 0.751913 0.659262 0
    outer loop
      vertex 80.2678 34.2678 0
      vertex 80.4834 34.0219 4
      vertex 80.4834 34.0219 0
    endloop
  endfacet
  facet normal 0.751913 -0.659262 0
    outer loop
      vertex 80.2678 13.7322 4
      vertex 80.4834 13.9781 0
      vertex 80.4834 13.9781 4
    endloop
  endfacet
  facet normal 0.751913 -0.659262 0
    outer loop
      vertex 80.4834 13.9781 0
      vertex 80.2678 13.7322 4
      vertex 80.2678 13.7322 0
    endloop
  endfacet
  facet normal 0.831438 0.555617 0
    outer loop
      vertex 80.6651 33.75 4
      vertex 80.4834 34.0219 0
      vertex 80.4834 34.0219 4
    endloop
  endfacet
  facet normal 0.831438 0.555617 0
    outer loop
      vertex 80.4834 34.0219 0
      vertex 80.6651 33.75 4
      vertex 80.6651 33.75 0
    endloop
  endfacet
  facet normal -0.555617 0.831438 0
    outer loop
      vertex 56.25 34.6651 0
      vertex 55.9781 34.4834 4
      vertex 56.25 34.6651 4
    endloop
  endfacet
  facet normal -0.555617 0.831438 0
    outer loop
      vertex 55.9781 34.4834 4
      vertex 56.25 34.6651 0
      vertex 55.9781 34.4834 0
    endloop
  endfacet
  facet normal -0.98078 0.195116 0
    outer loop
      vertex 55.0214 32.8263 0
      vertex 55.0852 33.147 4
      vertex 55.0852 33.147 0
    endloop
  endfacet
  facet normal -0.98078 0.195116 0
    outer loop
      vertex 55.0852 33.147 4
      vertex 55.0214 32.8263 0
      vertex 55.0214 32.8263 4
    endloop
  endfacet
  facet normal -0.896921 -0.442191 0
    outer loop
      vertex 55.3349 14.25 0
      vertex 55.1903 14.5433 4
      vertex 55.1903 14.5433 0
    endloop
  endfacet
  facet normal -0.896921 -0.442191 0
    outer loop
      vertex 55.1903 14.5433 4
      vertex 55.3349 14.25 0
      vertex 55.3349 14.25 4
    endloop
  endfacet
  facet normal -0.997856 -0.0654432 0
    outer loop
      vertex 55.0214 15.1737 0
      vertex 55 15.5 4
      vertex 55 15.5 0
    endloop
  endfacet
  facet normal -0.997856 -0.0654432 0
    outer loop
      vertex 55 15.5 4
      vertex 55.0214 15.1737 0
      vertex 55.0214 15.1737 4
    endloop
  endfacet
  facet normal -0.997856 0.0654432 0
    outer loop
      vertex 55 32.5 0
      vertex 55.0214 32.8263 4
      vertex 55.0214 32.8263 0
    endloop
  endfacet
  facet normal -0.997856 0.0654432 0
    outer loop
      vertex 55.0214 32.8263 4
      vertex 55 32.5 0
      vertex 55 32.5 4
    endloop
  endfacet
  facet normal -0.831438 0.555617 0
    outer loop
      vertex 55.3349 33.75 0
      vertex 55.5166 34.0219 4
      vertex 55.5166 34.0219 0
    endloop
  endfacet
  facet normal -0.831438 0.555617 0
    outer loop
      vertex 55.5166 34.0219 4
      vertex 55.3349 33.75 0
      vertex 55.3349 33.75 4
    endloop
  endfacet
  facet normal 0.896921 0.442191 0
    outer loop
      vertex 80.8097 33.4567 4
      vertex 80.6651 33.75 0
      vertex 80.6651 33.75 4
    endloop
  endfacet
  facet normal 0.896921 0.442191 0
    outer loop
      vertex 80.6651 33.75 0
      vertex 80.8097 33.4567 4
      vertex 80.8097 33.4567 0
    endloop
  endfacet
  facet normal 0.896921 -0.442191 0
    outer loop
      vertex 80.6651 14.25 4
      vertex 80.8097 14.5433 0
      vertex 80.8097 14.5433 4
    endloop
  endfacet
  facet normal 0.896921 -0.442191 0
    outer loop
      vertex 80.8097 14.5433 0
      vertex 80.6651 14.25 4
      vertex 80.6651 14.25 0
    endloop
  endfacet
  facet normal -0.896921 0.442191 0
    outer loop
      vertex 55.1903 33.4567 0
      vertex 55.3349 33.75 4
      vertex 55.3349 33.75 0
    endloop
  endfacet
  facet normal -0.896921 0.442191 0
    outer loop
      vertex 55.3349 33.75 4
      vertex 55.1903 33.4567 0
      vertex 55.1903 33.4567 4
    endloop
  endfacet
  facet normal -0.32136 0.946957 0
    outer loop
      vertex 56.853 34.9148 0
      vertex 56.5433 34.8097 4
      vertex 56.853 34.9148 4
    endloop
  endfacet
  facet normal -0.32136 0.946957 0
    outer loop
      vertex 56.5433 34.8097 4
      vertex 56.853 34.9148 0
      vertex 56.5433 34.8097 0
    endloop
  endfacet
  facet normal -0.195116 0.98078 0
    outer loop
      vertex 57.1737 34.9786 0
      vertex 56.853 34.9148 4
      vertex 57.1737 34.9786 4
    endloop
  endfacet
  facet normal -0.195116 0.98078 0
    outer loop
      vertex 56.853 34.9148 4
      vertex 57.1737 34.9786 0
      vertex 56.853 34.9148 0
    endloop
  endfacet
  facet normal 0.555617 0.831438 -0
    outer loop
      vertex 80.0219 34.4834 0
      vertex 79.75 34.6651 4
      vertex 80.0219 34.4834 4
    endloop
  endfacet
  facet normal 0.555617 0.831438 0
    outer loop
      vertex 79.75 34.6651 4
      vertex 80.0219 34.4834 0
      vertex 79.75 34.6651 0
    endloop
  endfacet
  facet normal 1 0 0
    outer loop
      vertex 74 29 17
      vertex 74 25.1 16
      vertex 74 29 5.2
    endloop
  endfacet
  facet normal 1 0 0
    outer loop
      vertex 74 29 17
      vertex 74 22.9 16
      vertex 74 25.1 16
    endloop
  endfacet
  facet normal 1 0 0
    outer loop
      vertex 74 19 5.2
      vertex 74 22.9 16
      vertex 74 19 17
    endloop
  endfacet
  facet normal 1 -0 0
    outer loop
      vertex 74 19 17
      vertex 74 22.9 16
      vertex 74 29 17
    endloop
  endfacet
  facet normal 1 -0 0
    outer loop
      vertex 74 25.1 6
      vertex 74 29 5.2
      vertex 74 25.1 16
    endloop
  endfacet
  facet normal 1 -0 0
    outer loop
      vertex 74 22.9 6
      vertex 74 29 5.2
      vertex 74 25.1 6
    endloop
  endfacet
  facet normal 1 0 0
    outer loop
      vertex 74 22.9 6
      vertex 74 19 5.2
      vertex 74 29 5.2
    endloop
  endfacet
  facet normal 1 0 0
    outer loop
      vertex 74 22.9 16
      vertex 74 19 5.2
      vertex 74 22.9 6
    endloop
  endfacet
  facet normal -0 0 1
    outer loop
      vertex 62 29 17
      vertex 74 19 17
      vertex 74 29 17
    endloop
  endfacet
  facet normal 0 0 1
    outer loop
      vertex 74 19 17
      vertex 62 29 17
      vertex 62 19 17
    endloop
  endfacet
  facet normal -1 0 0
    outer loop
      vertex 62 19 5.2
      vertex 62 29 17
      vertex 62 29 5.2
    endloop
  endfacet
  facet normal -1 -0 0
    outer loop
      vertex 62 29 17
      vertex 62 19 5.2
      vertex 62 19 17
    endloop
  endfacet
  facet normal 0 1 -0
    outer loop
      vertex 74 29 5.2
      vertex 62 29 17
      vertex 74 29 17
    endloop
  endfacet
  facet normal 0 1 0
    outer loop
      vertex 62 29 17
      vertex 74 29 5.2
      vertex 62 29 5.2
    endloop
  endfacet
  facet normal 0 -1 0
    outer loop
      vertex 62 19 5.2
      vertex 74 19 17
      vertex 62 19 17
    endloop
  endfacet
  facet normal 0 -1 -0
    outer loop
      vertex 74 19 17
      vertex 62 19 5.2
      vertex 74 19 5.2
    endloop
  endfacet
  facet normal 1 -0 0
    outer loop
      vertex 75.9 22.9 16
      vertex 75.9 25.1 6
      vertex 75.9 25.1 16
    endloop
  endfacet
  facet normal 1 0 0
    outer loop
      vertex 75.9 25.1 6
      vertex 75.9 22.9 16
      vertex 75.9 22.9 6
    endloop
  endfacet
  facet normal -0 0 1
    outer loop
      vertex 74 25.1 16
      vertex 75.9 22.9 16
      vertex 75.9 25.1 16
    endloop
  endfacet
  facet normal 0 0 1
    outer loop
      vertex 75.9 22.9 16
      vertex 74 25.1 16
      vertex 74 22.9 16
    endloop
  endfacet
  facet normal 0 0 -1
    outer loop
      vertex 74 22.9 6
      vertex 75.9 25.1 6
      vertex 75.9 22.9 6
    endloop
  endfacet
  facet normal -0 0 -1
    outer loop
      vertex 75.9 25.1 6
      vertex 74 22.9 6
      vertex 74 25.1 6
    endloop
  endfacet
  facet normal 0 1 -0
    outer loop
      vertex 75.9 25.1 6
      vertex 74 25.1 16
      vertex 75.9 25.1 16
    endloop
  endfacet
  facet normal 0 1 0
    outer loop
      vertex 74 25.1 16
      vertex 75.9 25.1 6
      vertex 74 25.1 6
    endloop
  endfacet
  facet normal 0 -1 0
    outer loop
      vertex 74 22.9 6
      vertex 75.9 22.9 16
      vertex 74 22.9 16
    endloop
  endfacet
  facet normal 0 -1 -0
    outer loop
      vertex 75.9 22.9 16
      vertex 74 22.9 6
      vertex 75.9 22.9 6
    endloop
  endfacet
endsolid OpenSCAD_Model
