  0
SECTION
  2
BLOCKS
  0
ENDSEC
  0
SECTION
  2
ENTITIES
  0
LINE
  8
0
 10
3.85881
 20
2.95125
 11
3.85881
 21
6.41344
  0
LINE
  8
0
 10
3.85881
 20
6.41344
 11
6.98486
 21
8.43025
  0
LINE
  8
0
 10
6.98486
 20
8.43025
 11
6.94907
 21
8.46478
  0
LINE
  8
0
 10
6.94907
 20
8.46478
 11
6.91226
 21
8.49777
  0
LINE
  8
0
 10
6.91226
 20
8.49777
 11
6.87445
 21
8.52921
  0
LINE
  8
0
 10
6.87445
 20
8.52921
 11
6.83562
 21
8.55905
  0
LINE
  8
0
 10
6.83562
 20
8.55905
 11
6.79579
 21
8.58728
  0
LINE
  8
0
 10
6.79579
 20
8.58728
 11
6.75494
 21
8.61388
  0
LINE
  8
0
 10
6.75494
 20
8.61388
 11
6.7131
 21
8.63881
  0
LINE
  8
0
 10
6.7131
 20
8.63881
 11
6.67024
 21
8.66205
  0
LINE
  8
0
 10
6.67024
 20
8.66205
 11
6.62637
 21
8.68356
  0
LINE
  8
0
 10
6.62637
 20
8.68356
 11
6.58151
 21
8.70335
  0
LINE
  8
0
 10
6.58151
 20
8.70335
 11
6.53563
 21
8.72137
  0
LINE
  8
0
 10
6.53563
 20
8.72137
 11
6.48874
 21
8.73761
  0
LINE
  8
0
 10
6.48874
 20
8.73761
 11
6.44083
 21
8.75201
  0
LINE
  8
0
 10
6.44083
 20
8.75201
 11
6.39192
 21
8.7646
  0
LINE
  8
0
 10
6.39192
 20
8.7646
 11
6.34201
 21
8.77531
  0
LINE
  8
0
 10
6.34201
 20
8.77531
 11
6.29109
 21
8.78413
  0
LINE
  8
0
 10
6.29109
 20
8.78413
 11
6.23915
 21
8.79103
  0
LINE
  8
0
 10
6.23915
 20
8.79103
 11
6.1862
 21
8.79599
  0
LINE
  8
0
 10
6.1862
 20
8.79599
 11
6.13226
 21
8.79898
  0
LINE
  8
0
 10
6.13226
 20
8.79898
 11
6.0773
 21
8.79999
  0
LINE
  8
0
 10
6.0773
 20
8.79999
 11
2.85042
 21
8.79999
  0
LINE
  8
0
 10
2.85042
 20
8.79999
 11
2.68083
 21
8.79326
  0
LINE
  8
0
 10
2.68083
 20
8.79326
 11
2.51529
 21
8.77341
  0
LINE
  8
0
 10
2.51529
 20
8.77341
 11
2.35428
 21
8.74089
  0
LINE
  8
0
 10
2.35428
 20
8.74089
 11
2.19832
 21
8.6962
  0
LINE
  8
0
 10
2.19832
 20
8.6962
 11
2.0479
 21
8.6398
  0
LINE
  8
0
 10
2.0479
 20
8.6398
 11
1.90352
 21
8.57219
  0
LINE
  8
0
 10
1.90352
 20
8.57219
 11
1.7657
 21
8.49385
  0
LINE
  8
0
 10
1.7657
 20
8.49385
 11
1.63495
 21
8.40524
  0
LINE
  8
0
 10
1.63495
 20
8.40524
 11
1.51175
 21
8.30684
  0
LINE
  8
0
 10
1.51175
 20
8.30684
 11
1.39664
 21
8.19916
  0
LINE
  8
0
 10
1.39664
 20
8.19916
 11
1.29007
 21
8.08264
  0
LINE
  8
0
 10
1.29007
 20
8.08264
 11
1.1926
 21
7.95778
  0
LINE
  8
0
 10
1.1926
 20
7.95778
 11
1.10469
 21
7.82504
  0
LINE
  8
0
 10
1.10469
 20
7.82504
 11
1.02689
 21
7.68494
  0
LINE
  8
0
 10
1.02689
 20
7.68494
 11
0.959656
 21
7.53792
  0
LINE
  8
0
 10
0.959656
 20
7.53792
 11
0.903519
 21
7.38446
  0
LINE
  8
0
 10
0.903519
 20
7.38446
 11
0.858978
 21
7.22507
  0
LINE
  8
0
 10
0.858978
 20
7.22507
 11
0.826553
 21
7.0602
  0
LINE
  8
0
 10
0.826553
 20
7.0602
 11
0.806717
 21
6.89034
  0
LINE
  8
0
 10
0.806717
 20
6.89034
 11
0.799988
 21
6.71596
  0
LINE
  8
0
 10
0.799988
 20
6.71596
 11
0.799988
 21
2.41344
  0
LINE
  8
0
 10
0.799988
 20
2.41344
 11
0.800507
 21
2.3532
  0
LINE
  8
0
 10
0.800507
 20
2.3532
 11
0.802078
 21
2.2935
  0
LINE
  8
0
 10
0.802078
 20
2.2935
 11
0.804764
 21
2.23442
  0
LINE
  8
0
 10
0.804764
 20
2.23442
 11
0.808594
 21
2.17599
  0
LINE
  8
0
 10
0.808594
 20
2.17599
 11
0.813644
 21
2.11827
  0
LINE
  8
0
 10
0.813644
 20
2.11827
 11
0.819962
 21
2.06131
  0
LINE
  8
0
 10
0.819962
 20
2.06131
 11
0.827576
 21
2.00514
  0
LINE
  8
0
 10
0.827576
 20
2.00514
 11
0.836563
 21
1.94984
  0
LINE
  8
0
 10
0.836563
 20
1.94984
 11
0.846954
 21
1.89545
  0
LINE
  8
0
 10
0.846954
 20
1.89545
 11
0.85881
 21
1.84201
  0
LINE
  8
0
 10
0.85881
 20
1.84201
 11
0.872192
 21
1.78958
  0
LINE
  8
0
 10
0.872192
 20
1.78958
 11
0.887115
 21
1.7382
  0
LINE
  8
0
 10
0.887115
 20
1.7382
 11
0.903671
 21
1.68796
  0
LINE
  8
0
 10
0.903671
 20
1.68796
 11
0.921875
 21
1.63885
  0
LINE
  8
0
 10
0.921875
 20
1.63885
 11
0.941803
 21
1.59096
  0
LINE
  8
0
 10
0.941803
 20
1.59096
 11
0.963486
 21
1.54433
  0
LINE
  8
0
 10
0.963486
 20
1.54433
 11
0.987
 21
1.49901
  0
LINE
  8
0
 10
0.987
 20
1.49901
 11
1.01236
 21
1.45505
  0
LINE
  8
0
 10
1.01236
 20
1.45505
 11
1.03964
 21
1.41251
  0
LINE
  8
0
 10
1.03964
 20
1.41251
 11
1.06889
 21
1.37141
  0
LINE
  8
0
 10
1.06889
 20
1.37141
 11
3.85881
 21
2.95125
  0
LINE
  8
0
 10
25.2272
 20
5.00986
 11
25.4028
 21
5.0378
  0
LINE
  8
0
 10
25.4028
 20
5.0378
 11
25.5677
 21
5.08437
  0
LINE
  8
0
 10
25.5677
 20
5.08437
 11
25.7218
 21
5.14955
  0
LINE
  8
0
 10
25.7218
 20
5.14955
 11
25.8624
 21
5.23221
  0
LINE
  8
0
 10
25.8624
 20
5.23221
 11
25.9872
 21
5.33118
  0
LINE
  8
0
 10
25.9872
 20
5.33118
 11
26.096
 21
5.44643
  0
LINE
  8
0
 10
26.096
 20
5.44643
 11
26.1888
 21
5.57799
  0
LINE
  8
0
 10
26.1888
 20
5.57799
 11
26.2631
 21
5.72462
  0
LINE
  8
0
 10
26.2631
 20
5.72462
 11
26.3161
 21
5.88509
  0
LINE
  8
0
 10
26.3161
 20
5.88509
 11
26.348
 21
6.05942
  0
LINE
  8
0
 10
26.348
 20
6.05942
 11
26.3586
 21
6.24757
  0
LINE
  8
0
 10
26.3586
 20
6.24757
 11
26.3586
 21
6.6319
  0
LINE
  8
0
 10
26.3586
 20
6.6319
 11
25.0749
 21
6.6319
  0
LINE
  8
0
 10
25.0749
 20
6.6319
 11
25.0749
 21
6.12407
  0
LINE
  8
0
 10
25.0749
 20
6.12407
 11
25.6735
 21
6.12407
  0
LINE
  8
0
 10
25.6735
 20
6.12407
 11
25.6608
 21
6.01157
  0
LINE
  8
0
 10
25.6608
 20
6.01157
 11
25.6286
 21
5.91132
  0
LINE
  8
0
 10
25.6286
 20
5.91132
 11
25.5769
 21
5.82333
  0
LINE
  8
0
 10
25.5769
 20
5.82333
 11
25.5058
 21
5.74759
  0
LINE
  8
0
 10
25.5058
 20
5.74759
 11
25.4164
 21
5.68668
  0
LINE
  8
0
 10
25.4164
 20
5.68668
 11
25.3102
 21
5.64317
  0
LINE
  8
0
 10
25.3102
 20
5.64317
 11
25.187
 21
5.61708
  0
LINE
  8
0
 10
25.187
 20
5.61708
 11
25.0468
 21
5.60837
  0
LINE
  8
0
 10
25.0468
 20
5.60837
 11
24.8864
 21
5.62302
  0
LINE
  8
0
 10
24.8864
 20
5.62302
 11
24.7449
 21
5.66695
  0
LINE
  8
0
 10
24.7449
 20
5.66695
 11
24.6222
 21
5.74017
  0
LINE
  8
0
 10
24.6222
 20
5.74017
 11
24.5184
 21
5.84268
  0
LINE
  8
0
 10
24.5184
 20
5.84268
 11
24.4358
 21
5.97191
  0
LINE
  8
0
 10
24.4358
 20
5.97191
 11
24.3768
 21
6.12527
  0
LINE
  8
0
 10
24.3768
 20
6.12527
 11
24.3414
 21
6.30278
  0
LINE
  8
0
 10
24.3414
 20
6.30278
 11
24.3296
 21
6.50444
  0
LINE
  8
0
 10
24.3296
 20
6.50444
 11
24.3417
 21
6.70427
  0
LINE
  8
0
 10
24.3417
 20
6.70427
 11
24.378
 21
6.88019
  0
LINE
  8
0
 10
24.378
 20
6.88019
 11
24.4386
 21
7.03221
  0
LINE
  8
0
 10
24.4386
 20
7.03221
 11
24.5234
 21
7.16032
  0
LINE
  8
0
 10
24.5234
 20
7.16032
 11
24.6287
 21
7.26198
  0
LINE
  8
0
 10
24.6287
 20
7.26198
 11
24.7507
 21
7.33458
  0
LINE
  8
0
 10
24.7507
 20
7.33458
 11
24.8894
 21
7.37816
  0
LINE
  8
0
 10
24.8894
 20
7.37816
 11
25.0448
 21
7.39267
  0
LINE
  8
0
 10
25.0448
 20
7.39267
 11
25.1514
 21
7.38637
  0
LINE
  8
0
 10
25.1514
 20
7.38637
 11
25.2484
 21
7.36743
  0
LINE
  8
0
 10
25.2484
 20
7.36743
 11
25.3357
 21
7.33586
  0
LINE
  8
0
 10
25.3357
 20
7.33586
 11
25.4134
 21
7.29169
  0
LINE
  8
0
 10
25.4134
 20
7.29169
 11
25.4803
 21
7.23611
  0
LINE
  8
0
 10
25.4803
 20
7.23611
 11
25.5352
 21
7.17036
  0
LINE
  8
0
 10
25.5352
 20
7.17036
 11
25.5782
 21
7.09445
  0
LINE
  8
0
 10
25.5782
 20
7.09445
 11
25.6093
 21
7.00836
  0
LINE
  8
0
 10
25.6093
 20
7.00836
 11
26.3264
 21
7.00836
  0
LINE
  8
0
 10
26.3264
 20
7.00836
 11
26.2995
 21
7.14935
  0
LINE
  8
0
 10
26.2995
 20
7.14935
 11
26.2549
 21
7.28214
  0
LINE
  8
0
 10
26.2549
 20
7.28214
 11
26.1925
 21
7.40671
  0
LINE
  8
0
 10
26.1925
 20
7.40671
 11
26.1125
 21
7.52307
  0
LINE
  8
0
 10
26.1125
 20
7.52307
 11
26.0173
 21
7.6292
  0
LINE
  8
0
 10
26.0173
 20
7.6292
 11
25.9093
 21
7.72307
  0
LINE
  8
0
 10
25.9093
 20
7.72307
 11
25.7887
 21
7.80469
  0
LINE
  8
0
 10
25.7887
 20
7.80469
 11
25.6555
 21
7.87404
  0
LINE
  8
0
 10
25.6555
 20
7.87404
 11
25.5118
 21
7.92938
  0
LINE
  8
0
 10
25.5118
 20
7.92938
 11
25.3602
 21
7.96892
  0
LINE
  8
0
 10
25.3602
 20
7.96892
 11
25.2004
 21
7.99263
  0
LINE
  8
0
 10
25.2004
 20
7.99263
 11
25.0327
 21
8.00053
  0
LINE
  8
0
 10
25.0327
 20
8.00053
 11
24.8376
 21
7.98944
  0
LINE
  8
0
 10
24.8376
 20
7.98944
 11
24.652
 21
7.95618
  0
LINE
  8
0
 10
24.652
 20
7.95618
 11
24.476
 21
7.90071
  0
LINE
  8
0
 10
24.476
 20
7.90071
 11
24.3095
 21
7.82307
  0
LINE
  8
0
 10
24.3095
 20
7.82307
 11
24.156
 21
7.72443
  0
LINE
  8
0
 10
24.156
 20
7.72443
 11
24.0192
 21
7.60593
  0
LINE
  8
0
 10
24.0192
 20
7.60593
 11
23.8989
 21
7.46756
  0
LINE
  8
0
 10
23.8989
 20
7.46756
 11
23.7952
 21
7.30934
  0
LINE
  8
0
 10
23.7952
 20
7.30934
 11
23.7117
 21
7.13232
  0
LINE
  8
0
 10
23.7117
 20
7.13232
 11
23.6521
 21
6.93753
  0
LINE
  8
0
 10
23.6521
 20
6.93753
 11
23.6163
 21
6.72496
  0
LINE
  8
0
 10
23.6163
 20
6.72496
 11
23.6043
 21
6.49464
  0
LINE
  8
0
 10
23.6043
 20
6.49464
 11
23.6156
 21
6.27209
  0
LINE
  8
0
 10
23.6156
 20
6.27209
 11
23.6496
 21
6.06523
  0
LINE
  8
0
 10
23.6496
 20
6.06523
 11
23.706
 21
5.87405
  0
LINE
  8
0
 10
23.706
 20
5.87405
 11
23.7851
 21
5.69855
  0
LINE
  8
0
 10
23.7851
 20
5.69855
 11
23.8845
 21
5.54054
  0
LINE
  8
0
 10
23.8845
 20
5.54054
 11
24.0016
 21
5.40176
  0
LINE
  8
0
 10
24.0016
 20
5.40176
 11
24.1366
 21
5.28221
  0
LINE
  8
0
 10
24.1366
 20
5.28221
 11
24.2894
 21
5.18192
  0
LINE
  8
0
 10
24.2894
 20
5.18192
 11
24.4576
 21
5.10255
  0
LINE
  8
0
 10
24.4576
 20
5.10255
 11
24.6389
 21
5.04588
  0
LINE
  8
0
 10
24.6389
 20
5.04588
 11
24.8333
 21
5.01187
  0
LINE
  8
0
 10
24.8333
 20
5.01187
 11
25.0407
 21
5.00053
  0
LINE
  8
0
 10
25.0407
 20
5.00053
 11
25.2272
 21
5.00986
  0
LINE
  8
0
 10
35.3445
 20
5.00868
 11
35.4998
 21
5.03313
  0
LINE
  8
0
 10
35.4998
 20
5.03313
 11
35.6448
 21
5.07387
  0
LINE
  8
0
 10
35.6448
 20
5.07387
 11
35.7796
 21
5.13091
  0
LINE
  8
0
 10
35.7796
 20
5.13091
 11
35.9021
 21
5.20242
  0
LINE
  8
0
 10
35.9021
 20
5.20242
 11
36.0106
 21
5.28654
  0
LINE
  8
0
 10
36.0106
 20
5.28654
 11
36.105
 21
5.3833
  0
LINE
  8
0
 10
36.105
 20
5.3833
 11
36.1854
 21
5.49266
  0
LINE
  8
0
 10
36.1854
 20
5.49266
 11
36.2495
 21
5.61302
  0
LINE
  8
0
 10
36.2495
 20
5.61302
 11
36.2954
 21
5.74268
  0
LINE
  8
0
 10
36.2954
 20
5.74268
 11
36.3229
 21
5.88165
  0
LINE
  8
0
 10
36.3229
 20
5.88165
 11
36.332
 21
6.02995
  0
LINE
  8
0
 10
36.332
 20
6.02995
 11
36.3247
 21
6.1615
  0
LINE
  8
0
 10
36.3247
 20
6.1615
 11
36.3026
 21
6.28557
  0
LINE
  8
0
 10
36.3026
 20
6.28557
 11
36.2659
 21
6.40218
  0
LINE
  8
0
 10
36.2659
 20
6.40218
 11
36.2145
 21
6.51129
  0
LINE
  8
0
 10
36.2145
 20
6.51129
 11
36.1502
 21
6.61111
  0
LINE
  8
0
 10
36.1502
 20
6.61111
 11
36.0749
 21
6.69978
  0
LINE
  8
0
 10
36.0749
 20
6.69978
 11
35.9885
 21
6.7773
  0
LINE
  8
0
 10
35.9885
 20
6.7773
 11
35.8911
 21
6.84364
  0
LINE
  8
0
 10
35.8911
 20
6.84364
 11
35.7841
 21
6.89684
  0
LINE
  8
0
 10
35.7841
 20
6.89684
 11
35.6693
 21
6.93483
  0
LINE
  8
0
 10
35.6693
 20
6.93483
 11
35.5466
 21
6.95763
  0
LINE
  8
0
 10
35.5466
 20
6.95763
 11
35.4159
 21
6.96523
  0
LINE
  8
0
 10
35.4159
 20
6.96523
 11
35.294
 21
6.95824
  0
LINE
  8
0
 10
35.294
 20
6.95824
 11
35.1774
 21
6.93729
  0
LINE
  8
0
 10
35.1774
 20
6.93729
 11
35.066
 21
6.90236
  0
LINE
  8
0
 10
35.066
 20
6.90236
 11
34.9599
 21
6.85345
  0
LINE
  8
0
 10
34.9599
 20
6.85345
 11
34.8635
 21
6.7923
  0
LINE
  8
0
 10
34.8635
 20
6.7923
 11
34.7811
 21
6.72061
  0
LINE
  8
0
 10
34.7811
 20
6.72061
 11
34.7128
 21
6.63838
  0
LINE
  8
0
 10
34.7128
 20
6.63838
 11
34.6586
 21
6.54561
  0
LINE
  8
0
 10
34.6586
 20
6.54561
 11
34.6405
 21
6.54561
  0
LINE
  8
0
 10
34.6405
 20
6.54561
 11
34.6491
 21
6.73347
  0
LINE
  8
0
 10
34.6491
 20
6.73347
 11
34.6749
 21
6.901
  0
LINE
  8
0
 10
34.6749
 20
6.901
 11
34.7179
 21
7.04819
  0
LINE
  8
0
 10
34.7179
 20
7.04819
 11
34.7781
 21
7.17502
  0
LINE
  8
0
 10
34.7781
 20
7.17502
 11
34.8556
 21
7.27711
  0
LINE
  8
0
 10
34.8556
 20
7.27711
 11
34.9506
 21
7.35004
  0
LINE
  8
0
 10
34.9506
 20
7.35004
 11
35.0631
 21
7.39378
  0
LINE
  8
0
 10
35.0631
 20
7.39378
 11
35.193
 21
7.40837
  0
LINE
  8
0
 10
35.193
 20
7.40837
 11
35.2675
 21
7.40378
  0
LINE
  8
0
 10
35.2675
 20
7.40378
 11
35.3366
 21
7.39
  0
LINE
  8
0
 10
35.3366
 20
7.39
 11
35.4001
 21
7.36702
  0
LINE
  8
0
 10
35.4001
 20
7.36702
 11
35.4581
 21
7.33484
  0
LINE
  8
0
 10
35.4581
 20
7.33484
 11
35.5085
 21
7.29385
  0
LINE
  8
0
 10
35.5085
 20
7.29385
 11
35.549
 21
7.24442
  0
LINE
  8
0
 10
35.549
 20
7.24442
 11
35.5798
 21
7.18651
  0
LINE
  8
0
 10
35.5798
 20
7.18651
 11
35.6008
 21
7.12013
  0
LINE
  8
0
 10
35.6008
 20
7.12013
 11
36.2979
 21
7.12013
  0
LINE
  8
0
 10
36.2979
 20
7.12013
 11
36.2766
 21
7.23987
  0
LINE
  8
0
 10
36.2766
 20
7.23987
 11
36.2409
 21
7.35396
  0
LINE
  8
0
 10
36.2409
 20
7.35396
 11
36.1907
 21
7.46242
  0
LINE
  8
0
 10
36.1907
 20
7.46242
 11
36.1261
 21
7.56523
  0
LINE
  8
0
 10
36.1261
 20
7.56523
 11
36.0483
 21
7.66008
  0
LINE
  8
0
 10
36.0483
 20
7.66008
 11
35.9586
 21
7.74463
  0
LINE
  8
0
 10
35.9586
 20
7.74463
 11
35.857
 21
7.81889
  0
LINE
  8
0
 10
35.857
 20
7.81889
 11
35.7434
 21
7.88286
  0
LINE
  8
0
 10
35.7434
 20
7.88286
 11
35.6193
 21
7.93434
  0
LINE
  8
0
 10
35.6193
 20
7.93434
 11
35.4863
 21
7.97112
  0
LINE
  8
0
 10
35.4863
 20
7.97112
 11
35.3441
 21
7.99318
  0
LINE
  8
0
 10
35.3441
 20
7.99318
 11
35.193
 21
8.00053
  0
LINE
  8
0
 10
35.193
 20
8.00053
 11
35.0093
 21
7.98883
  0
LINE
  8
0
 10
35.0093
 20
7.98883
 11
34.8379
 21
7.95372
  0
LINE
  8
0
 10
34.8379
 20
7.95372
 11
34.6788
 21
7.8952
  0
LINE
  8
0
 10
34.6788
 20
7.8952
 11
34.532
 21
7.81326
  0
LINE
  8
0
 10
34.532
 20
7.81326
 11
34.3992
 21
7.70958
  0
LINE
  8
0
 10
34.3992
 20
7.70958
 11
34.2822
 21
7.5858
  0
LINE
  8
0
 10
34.2822
 20
7.5858
 11
34.1808
 21
7.44193
  0
LINE
  8
0
 10
34.1808
 20
7.44193
 11
34.0951
 21
7.27795
  0
LINE
  8
0
 10
34.0951
 20
7.27795
 11
34.027
 21
7.09555
  0
LINE
  8
0
 10
34.027
 20
7.09555
 11
33.9783
 21
6.89635
  0
LINE
  8
0
 10
33.9783
 20
6.89635
 11
33.9491
 21
6.68037
  0
LINE
  8
0
 10
33.9491
 20
6.68037
 11
33.9394
 21
6.4476
  0
LINE
  8
0
 10
33.9394
 20
6.4476
 11
33.9457
 21
6.25612
  0
LINE
  8
0
 10
33.9457
 20
6.25612
 11
33.9647
 21
6.07971
  0
LINE
  8
0
 10
33.9647
 20
6.07971
 11
33.9964
 21
5.91837
  0
LINE
  8
0
 10
33.9964
 20
5.91837
 11
34.0408
 21
5.77211
  0
LINE
  8
0
 10
34.0408
 20
5.77211
 11
34.0961
 21
5.64012
  0
LINE
  8
0
 10
34.0961
 20
5.64012
 11
34.1603
 21
5.52162
  0
LINE
  8
0
 10
34.1603
 20
5.52162
 11
34.2337
 21
5.41658
  0
LINE
  8
0
 10
34.2337
 20
5.41658
 11
34.316
 21
5.32503
  0
LINE
  8
0
 10
34.316
 20
5.32503
 11
34.406
 21
5.24599
  0
LINE
  8
0
 10
34.406
 20
5.24599
 11
34.5021
 21
5.17847
  0
LINE
  8
0
 10
34.5021
 20
5.17847
 11
34.6044
 21
5.12245
  0
LINE
  8
0
 10
34.6044
 20
5.12245
 11
34.7128
 21
5.07797
  0
LINE
  8
0
 10
34.7128
 20
5.07797
 11
34.8256
 21
5.0441
  0
LINE
  8
0
 10
34.8256
 20
5.0441
 11
34.9408
 21
5.0199
  0
LINE
  8
0
 10
34.9408
 20
5.0199
 11
35.0586
 21
5.00539
  0
LINE
  8
0
 10
35.0586
 20
5.00539
 11
35.1789
 21
5.00053
  0
LINE
  8
0
 10
35.1789
 20
5.00053
 11
35.3445
 21
5.00868
  0
LINE
  8
0
 10
35.0775
 20
5.54434
 11
34.9903
 21
5.5699
  0
LINE
  8
0
 10
34.9903
 20
5.5699
 11
34.9113
 21
5.61249
  0
LINE
  8
0
 10
34.9113
 20
5.61249
 11
34.8404
 21
5.6721
  0
LINE
  8
0
 10
34.8404
 20
5.6721
 11
34.7819
 21
5.74409
  0
LINE
  8
0
 10
34.7819
 20
5.74409
 11
34.7402
 21
5.82381
  0
LINE
  8
0
 10
34.7402
 20
5.82381
 11
34.7151
 21
5.91125
  0
LINE
  8
0
 10
34.7151
 20
5.91125
 11
34.7068
 21
6.00642
  0
LINE
  8
0
 10
34.7068
 20
6.00642
 11
34.7152
 21
6.10164
  0
LINE
  8
0
 10
34.7152
 20
6.10164
 11
34.7404
 21
6.18924
  0
LINE
  8
0
 10
34.7404
 20
6.18924
 11
34.7825
 21
6.26927
  0
LINE
  8
0
 10
34.7825
 20
6.26927
 11
34.8414
 21
6.34169
  0
LINE
  8
0
 10
34.8414
 20
6.34169
 11
34.9127
 21
6.40175
  0
LINE
  8
0
 10
34.9127
 20
6.40175
 11
34.9921
 21
6.44466
  0
LINE
  8
0
 10
34.9921
 20
6.44466
 11
35.0795
 21
6.47038
  0
LINE
  8
0
 10
35.0795
 20
6.47038
 11
35.1749
 21
6.47897
  0
LINE
  8
0
 10
35.1749
 20
6.47897
 11
35.2728
 21
6.47052
  0
LINE
  8
0
 10
35.2728
 20
6.47052
 11
35.3617
 21
6.44514
  0
LINE
  8
0
 10
35.3617
 20
6.44514
 11
35.4416
 21
6.40285
  0
LINE
  8
0
 10
35.4416
 20
6.40285
 11
35.5124
 21
6.34366
  0
LINE
  8
0
 10
35.5124
 20
6.34366
 11
35.5704
 21
6.27197
  0
LINE
  8
0
 10
35.5704
 20
6.27197
 11
35.6118
 21
6.1922
  0
LINE
  8
0
 10
35.6118
 20
6.1922
 11
35.6367
 21
6.10434
  0
LINE
  8
0
 10
35.6367
 20
6.10434
 11
35.645
 21
6.00838
  0
LINE
  8
0
 10
35.645
 20
6.00838
 11
35.6366
 21
5.91077
  0
LINE
  8
0
 10
35.6366
 20
5.91077
 11
35.6113
 21
5.82185
  0
LINE
  8
0
 10
35.6113
 20
5.82185
 11
35.5693
 21
5.74165
  0
LINE
  8
0
 10
35.5693
 20
5.74165
 11
35.5104
 21
5.67014
  0
LINE
  8
0
 10
35.5104
 20
5.67014
 11
35.4388
 21
5.61137
  0
LINE
  8
0
 10
35.4388
 20
5.61137
 11
35.3587
 21
5.56941
  0
LINE
  8
0
 10
35.3587
 20
5.56941
 11
35.2701
 21
5.54422
  0
LINE
  8
0
 10
35.2701
 20
5.54422
 11
35.1729
 21
5.53583
  0
LINE
  8
0
 10
35.1729
 20
5.53583
 11
35.0775
 21
5.54434
  0
LINE
  8
0
 10
30.06
 20
5.02524
 11
30.3084
 21
5.09932
  0
LINE
  8
0
 10
30.3084
 20
5.09932
 11
30.5236
 21
5.22278
  0
LINE
  8
0
 10
30.5236
 20
5.22278
 11
30.7055
 21
5.39563
  0
LINE
  8
0
 10
30.7055
 20
5.39563
 11
30.85
 21
5.61273
  0
LINE
  8
0
 10
30.85
 20
5.61273
 11
30.9533
 21
5.86891
  0
LINE
  8
0
 10
30.9533
 20
5.86891
 11
31.0153
 21
6.1642
  0
LINE
  8
0
 10
31.0153
 20
6.1642
 11
31.0359
 21
6.49857
  0
LINE
  8
0
 10
31.0359
 20
6.49857
 11
31.0266
 21
6.72633
  0
LINE
  8
0
 10
31.0266
 20
6.72633
 11
30.9985
 21
6.93706
  0
LINE
  8
0
 10
30.9985
 20
6.93706
 11
30.9517
 21
7.13074
  0
LINE
  8
0
 10
30.9517
 20
7.13074
 11
30.8862
 21
7.30739
  0
LINE
  8
0
 10
30.8862
 20
7.30739
 11
30.8032
 21
7.46565
  0
LINE
  8
0
 10
30.8032
 20
7.46565
 11
30.7037
 21
7.6042
  0
LINE
  8
0
 10
30.7037
 20
7.6042
 11
30.5877
 21
7.72301
  0
LINE
  8
0
 10
30.5877
 20
7.72301
 11
30.4553
 21
7.82208
  0
LINE
  8
0
 10
30.4553
 20
7.82208
 11
30.3075
 21
7.90016
  0
LINE
  8
0
 10
30.3075
 20
7.90016
 11
30.1454
 21
7.95592
  0
LINE
  8
0
 10
30.1454
 20
7.95592
 11
29.969
 21
7.98938
  0
LINE
  8
0
 10
29.969
 20
7.98938
 11
29.7783
 21
8.00053
  0
LINE
  8
0
 10
29.7783
 20
8.00053
 11
29.4983
 21
7.97578
  0
LINE
  8
0
 10
29.4983
 20
7.97578
 11
29.2507
 21
7.9015
  0
LINE
  8
0
 10
29.2507
 20
7.9015
 11
29.0357
 21
7.77773
  0
LINE
  8
0
 10
29.0357
 20
7.77773
 11
28.8532
 21
7.60443
  0
LINE
  8
0
 10
28.8532
 20
7.60443
 11
28.7077
 21
7.38678
  0
LINE
  8
0
 10
28.7077
 20
7.38678
 11
28.6039
 21
7.12993
  0
LINE
  8
0
 10
28.6039
 20
7.12993
 11
28.5415
 21
6.83386
  0
LINE
  8
0
 10
28.5415
 20
6.83386
 11
28.5207
 21
6.49857
  0
LINE
  8
0
 10
28.5207
 20
6.49857
 11
28.5415
 21
6.16339
  0
LINE
  8
0
 10
28.5415
 20
6.16339
 11
28.6039
 21
5.86769
  0
LINE
  8
0
 10
28.6039
 20
5.86769
 11
28.7077
 21
5.61143
  0
LINE
  8
0
 10
28.7077
 20
5.61143
 11
28.8532
 21
5.39465
  0
LINE
  8
0
 10
28.8532
 20
5.39465
 11
29.0357
 21
5.22223
  0
LINE
  8
0
 10
29.0357
 20
5.22223
 11
29.2507
 21
5.09906
  0
LINE
  8
0
 10
29.2507
 20
5.09906
 11
29.4983
 21
5.02518
  0
LINE
  8
0
 10
29.4983
 20
5.02518
 11
29.7783
 21
5.00053
  0
LINE
  8
0
 10
29.7783
 20
5.00053
 11
30.06
 21
5.02524
  0
LINE
  8
0
 10
29.6582
 20
5.58228
 11
29.5531
 21
5.62749
  0
LINE
  8
0
 10
29.5531
 20
5.62749
 11
29.4629
 21
5.70285
  0
LINE
  8
0
 10
29.4629
 20
5.70285
 11
29.3876
 21
5.80836
  0
LINE
  8
0
 10
29.3876
 20
5.80836
 11
29.3283
 21
5.94196
  0
LINE
  8
0
 10
29.3283
 20
5.94196
 11
29.2859
 21
6.10152
  0
LINE
  8
0
 10
29.2859
 20
6.10152
 11
29.2605
 21
6.28705
  0
LINE
  8
0
 10
29.2605
 20
6.28705
 11
29.252
 21
6.49857
  0
LINE
  8
0
 10
29.252
 20
6.49857
 11
29.2605
 21
6.71114
  0
LINE
  8
0
 10
29.2605
 20
6.71114
 11
29.2861
 21
6.89784
  0
LINE
  8
0
 10
29.2861
 20
6.89784
 11
29.3288
 21
7.05869
  0
LINE
  8
0
 10
29.3288
 20
7.05869
 11
29.3886
 21
7.19366
  0
LINE
  8
0
 10
29.3886
 20
7.19366
 11
29.4642
 21
7.30046
  0
LINE
  8
0
 10
29.4642
 20
7.30046
 11
29.5543
 21
7.37675
  0
LINE
  8
0
 10
29.5543
 20
7.37675
 11
29.659
 21
7.42252
  0
LINE
  8
0
 10
29.659
 20
7.42252
 11
29.7783
 21
7.43777
  0
LINE
  8
0
 10
29.7783
 20
7.43777
 11
29.8985
 21
7.42252
  0
LINE
  8
0
 10
29.8985
 20
7.42252
 11
30.0038
 21
7.37675
  0
LINE
  8
0
 10
30.0038
 20
7.37675
 11
30.0943
 21
7.30046
  0
LINE
  8
0
 10
30.0943
 20
7.30046
 11
30.17
 21
7.19366
  0
LINE
  8
0
 10
30.17
 20
7.19366
 11
30.2298
 21
7.05869
  0
LINE
  8
0
 10
30.2298
 20
7.05869
 11
30.2725
 21
6.89784
  0
LINE
  8
0
 10
30.2725
 20
6.89784
 11
30.2981
 21
6.71114
  0
LINE
  8
0
 10
30.2981
 20
6.71114
 11
30.3067
 21
6.49857
  0
LINE
  8
0
 10
30.3067
 20
6.49857
 11
30.2981
 21
6.28705
  0
LINE
  8
0
 10
30.2981
 20
6.28705
 11
30.2725
 21
6.10152
  0
LINE
  8
0
 10
30.2725
 20
6.10152
 11
30.2298
 21
5.94196
  0
LINE
  8
0
 10
30.2298
 20
5.94196
 11
30.17
 21
5.80836
  0
LINE
  8
0
 10
30.17
 20
5.80836
 11
30.0943
 21
5.70285
  0
LINE
  8
0
 10
30.0943
 20
5.70285
 11
30.0038
 21
5.62749
  0
LINE
  8
0
 10
30.0038
 20
5.62749
 11
29.8985
 21
5.58228
  0
LINE
  8
0
 10
29.8985
 20
5.58228
 11
29.7783
 21
5.5672
  0
LINE
  8
0
 10
29.7783
 20
5.5672
 11
29.6582
 21
5.58228
  0
LINE
  8
0
 10
32.6497
 20
5.00752
 11
32.8094
 21
5.02847
  0
LINE
  8
0
 10
32.8094
 20
5.02847
 11
32.9591
 21
5.0634
  0
LINE
  8
0
 10
32.9591
 20
5.0634
 11
33.0987
 21
5.11229
  0
LINE
  8
0
 10
33.0987
 20
5.11229
 11
33.2259
 21
5.17339
  0
LINE
  8
0
 10
33.2259
 20
5.17339
 11
33.3385
 21
5.24489
  0
LINE
  8
0
 10
33.3385
 20
5.24489
 11
33.4364
 21
5.32681
  0
LINE
  8
0
 10
33.4364
 20
5.32681
 11
33.5196
 21
5.41914
  0
LINE
  8
0
 10
33.5196
 20
5.41914
 11
33.5859
 21
5.52031
  0
LINE
  8
0
 10
33.5859
 20
5.52031
 11
33.6333
 21
5.62871
  0
LINE
  8
0
 10
33.6333
 20
5.62871
 11
33.6618
 21
5.74434
  0
LINE
  8
0
 10
33.6618
 20
5.74434
 11
33.6712
 21
5.8672
  0
LINE
  8
0
 10
33.6712
 20
5.8672
 11
33.6602
 21
5.99686
  0
LINE
  8
0
 10
33.6602
 20
5.99686
 11
33.6273
 21
6.11522
  0
LINE
  8
0
 10
33.6273
 20
6.11522
 11
33.5724
 21
6.22232
  0
LINE
  8
0
 10
33.5724
 20
6.22232
 11
33.4955
 21
6.31816
  0
LINE
  8
0
 10
33.4955
 20
6.31816
 11
33.3971
 21
6.39966
  0
LINE
  8
0
 10
33.3971
 20
6.39966
 11
33.2777
 21
6.46376
  0
LINE
  8
0
 10
33.2777
 20
6.46376
 11
33.1374
 21
6.51045
  0
LINE
  8
0
 10
33.1374
 20
6.51045
 11
32.9761
 21
6.53975
  0
LINE
  8
0
 10
32.9761
 20
6.53975
 11
32.9761
 21
6.56131
  0
LINE
  8
0
 10
32.9761
 20
6.56131
 11
33.0997
 21
6.58765
  0
LINE
  8
0
 10
33.0997
 20
6.58765
 11
33.2114
 21
6.62944
  0
LINE
  8
0
 10
33.2114
 20
6.62944
 11
33.3112
 21
6.68666
  0
LINE
  8
0
 10
33.3112
 20
6.68666
 11
33.399
 21
6.75934
  0
LINE
  8
0
 10
33.399
 20
6.75934
 11
33.4707
 21
6.845
  0
LINE
  8
0
 10
33.4707
 20
6.845
 11
33.5218
 21
6.94121
  0
LINE
  8
0
 10
33.5218
 20
6.94121
 11
33.5525
 21
7.04796
  0
LINE
  8
0
 10
33.5525
 20
7.04796
 11
33.5628
 21
7.16524
  0
LINE
  8
0
 10
33.5628
 20
7.16524
 11
33.5543
 21
7.28085
  0
LINE
  8
0
 10
33.5543
 20
7.28085
 11
33.5289
 21
7.39047
  0
LINE
  8
0
 10
33.5289
 20
7.39047
 11
33.4865
 21
7.49408
  0
LINE
  8
0
 10
33.4865
 20
7.49408
 11
33.4271
 21
7.59167
  0
LINE
  8
0
 10
33.4271
 20
7.59167
 11
33.3527
 21
7.68134
  0
LINE
  8
0
 10
33.3527
 20
7.68134
 11
33.2649
 21
7.76106
  0
LINE
  8
0
 10
33.2649
 20
7.76106
 11
33.1639
 21
7.83086
  0
LINE
  8
0
 10
33.1639
 20
7.83086
 11
33.0495
 21
7.89073
  0
LINE
  8
0
 10
33.0495
 20
7.89073
 11
32.9237
 21
7.93877
  0
LINE
  8
0
 10
32.9237
 20
7.93877
 11
32.7886
 21
7.97308
  0
LINE
  8
0
 10
32.7886
 20
7.97308
 11
32.644
 21
7.99367
  0
LINE
  8
0
 10
32.644
 20
7.99367
 11
32.49
 21
8.00053
  0
LINE
  8
0
 10
32.49
 20
8.00053
 11
32.3336
 21
7.99348
  0
LINE
  8
0
 10
32.3336
 20
7.99348
 11
32.1859
 21
7.97235
  0
LINE
  8
0
 10
32.1859
 20
7.97235
 11
32.0468
 21
7.93712
  0
LINE
  8
0
 10
32.0468
 20
7.93712
 11
31.9164
 21
7.88779
  0
LINE
  8
0
 10
31.9164
 20
7.88779
 11
31.797
 21
7.82608
  0
LINE
  8
0
 10
31.797
 20
7.82608
 11
31.6909
 21
7.75371
  0
LINE
  8
0
 10
31.6909
 20
7.75371
 11
31.5981
 21
7.67068
  0
LINE
  8
0
 10
31.5981
 20
7.67068
 11
31.5186
 21
7.577
  0
LINE
  8
0
 10
31.5186
 20
7.577
 11
31.4548
 21
7.47418
  0
LINE
  8
0
 10
31.4548
 20
7.47418
 11
31.4089
 21
7.36377
  0
LINE
  8
0
 10
31.4089
 20
7.36377
 11
31.381
 21
7.24576
  0
LINE
  8
0
 10
31.381
 20
7.24576
 11
31.371
 21
7.12013
  0
LINE
  8
0
 10
31.371
 20
7.12013
 11
32.052
 21
7.12013
  0
LINE
  8
0
 10
32.052
 20
7.12013
 11
32.0608
 21
7.19279
  0
LINE
  8
0
 10
32.0608
 20
7.19279
 11
32.0849
 21
7.25787
  0
LINE
  8
0
 10
32.0849
 20
7.25787
 11
32.1245
 21
7.31534
  0
LINE
  8
0
 10
32.1245
 20
7.31534
 11
32.1796
 21
7.3652
  0
LINE
  8
0
 10
32.1796
 20
7.3652
 11
32.2459
 21
7.40553
  0
LINE
  8
0
 10
32.2459
 20
7.40553
 11
32.3195
 21
7.43434
  0
LINE
  8
0
 10
32.3195
 20
7.43434
 11
32.4001
 21
7.45161
  0
LINE
  8
0
 10
32.4001
 20
7.45161
 11
32.488
 21
7.45738
  0
LINE
  8
0
 10
32.488
 20
7.45738
 11
32.5703
 21
7.45155
  0
LINE
  8
0
 10
32.5703
 20
7.45155
 11
32.6447
 21
7.4341
  0
LINE
  8
0
 10
32.6447
 20
7.4341
 11
32.711
 21
7.405
  0
LINE
  8
0
 10
32.711
 20
7.405
 11
32.7692
 21
7.36424
  0
LINE
  8
0
 10
32.7692
 20
7.36424
 11
32.8167
 21
7.31419
  0
LINE
  8
0
 10
32.8167
 20
7.31419
 11
32.8506
 21
7.25716
  0
LINE
  8
0
 10
32.8506
 20
7.25716
 11
32.8709
 21
7.19312
  0
LINE
  8
0
 10
32.8709
 20
7.19312
 11
32.8777
 21
7.1221
  0
LINE
  8
0
 10
32.8777
 20
7.1221
 11
32.8698
 21
7.04826
  0
LINE
  8
0
 10
32.8698
 20
7.04826
 11
32.846
 21
6.98166
  0
LINE
  8
0
 10
32.846
 20
6.98166
 11
32.8065
 21
6.92227
  0
LINE
  8
0
 10
32.8065
 20
6.92227
 11
32.7511
 21
6.87013
  0
LINE
  8
0
 10
32.7511
 20
6.87013
 11
32.6833
 21
6.82767
  0
LINE
  8
0
 10
32.6833
 20
6.82767
 11
32.6065
 21
6.79733
  0
LINE
  8
0
 10
32.6065
 20
6.79733
 11
32.5206
 21
6.77914
  0
LINE
  8
0
 10
32.5206
 20
6.77914
 11
32.4257
 21
6.77307
  0
LINE
  8
0
 10
32.4257
 20
6.77307
 11
32.1344
 21
6.77307
  0
LINE
  8
0
 10
32.1344
 20
6.77307
 11
32.1344
 21
6.27895
  0
LINE
  8
0
 10
32.1344
 20
6.27895
 11
32.4257
 21
6.27895
  0
LINE
  8
0
 10
32.4257
 20
6.27895
 11
32.5344
 21
6.27271
  0
LINE
  8
0
 10
32.5344
 20
6.27271
 11
32.6316
 21
6.25395
  0
LINE
  8
0
 10
32.6316
 20
6.25395
 11
32.7172
 21
6.2227
  0
LINE
  8
0
 10
32.7172
 20
6.2227
 11
32.7913
 21
6.17894
  0
LINE
  8
0
 10
32.7913
 20
6.17894
 11
32.8511
 21
6.12527
  0
LINE
  8
0
 10
32.8511
 20
6.12527
 11
32.8938
 21
6.06425
  0
LINE
  8
0
 10
32.8938
 20
6.06425
 11
32.9194
 21
5.99588
  0
LINE
  8
0
 10
32.9194
 20
5.99588
 11
32.9279
 21
5.92014
  0
LINE
  8
0
 10
32.9279
 20
5.92014
 11
32.9202
 21
5.84453
  0
LINE
  8
0
 10
32.9202
 20
5.84453
 11
32.897
 21
5.77652
  0
LINE
  8
0
 10
32.897
 20
5.77652
 11
32.8584
 21
5.71609
  0
LINE
  8
0
 10
32.8584
 20
5.71609
 11
32.8044
 21
5.66328
  0
LINE
  8
0
 10
32.8044
 20
5.66328
 11
32.7381
 21
5.62039
  0
LINE
  8
0
 10
32.7381
 20
5.62039
 11
32.663
 21
5.58975
  0
LINE
  8
0
 10
32.663
 20
5.58975
 11
32.5789
 21
5.57137
  0
LINE
  8
0
 10
32.5789
 20
5.57137
 11
32.486
 21
5.56523
  0
LINE
  8
0
 10
32.486
 20
5.56523
 11
32.3917
 21
5.57088
  0
LINE
  8
0
 10
32.3917
 20
5.57088
 11
32.3057
 21
5.58778
  0
LINE
  8
0
 10
32.3057
 20
5.58778
 11
32.2279
 21
5.61597
  0
LINE
  8
0
 10
32.2279
 20
5.61597
 11
32.1585
 21
5.65541
  0
LINE
  8
0
 10
32.1585
 20
5.65541
 11
32.1011
 21
5.70407
  0
LINE
  8
0
 10
32.1011
 20
5.70407
 11
32.0596
 21
5.75983
  0
LINE
  8
0
 10
32.0596
 20
5.75983
 11
32.0338
 21
5.82269
  0
LINE
  8
0
 10
32.0338
 20
5.82269
 11
32.0239
 21
5.89267
  0
LINE
  8
0
 10
32.0239
 20
5.89267
 11
31.3127
 21
5.89267
  0
LINE
  8
0
 10
31.3127
 20
5.89267
 11
31.323
 21
5.76517
  0
LINE
  8
0
 10
31.323
 20
5.76517
 11
31.3519
 21
5.64537
  0
LINE
  8
0
 10
31.3519
 20
5.64537
 11
31.3994
 21
5.53331
  0
LINE
  8
0
 10
31.3994
 20
5.53331
 11
31.4654
 21
5.42894
  0
LINE
  8
0
 10
31.4654
 20
5.42894
 11
31.5477
 21
5.33391
  0
LINE
  8
0
 10
31.5477
 20
5.33391
 11
31.644
 21
5.24979
  0
LINE
  8
0
 10
31.644
 20
5.24979
 11
31.7541
 21
5.17656
  0
LINE
  8
0
 10
31.7541
 20
5.17656
 11
31.8783
 21
5.11426
  0
LINE
  8
0
 10
31.8783
 20
5.11426
 11
32.0142
 21
5.0645
  0
LINE
  8
0
 10
32.0142
 20
5.0645
 11
32.1597
 21
5.02896
  0
LINE
  8
0
 10
32.1597
 20
5.02896
 11
32.315
 21
5.00764
  0
LINE
  8
0
 10
32.315
 20
5.00764
 11
32.4799
 21
5.00053
  0
LINE
  8
0
 10
32.4799
 20
5.00053
 11
32.6497
 21
5.00752
  0
LINE
  8
0
 10
19.4599
 20
5.01138
 11
19.6453
 21
5.04391
  0
LINE
  8
0
 10
19.6453
 20
5.04391
 11
19.821
 21
5.09813
  0
LINE
  8
0
 10
19.821
 20
5.09813
 11
19.987
 21
5.17404
  0
LINE
  8
0
 10
19.987
 20
5.17404
 11
20.1399
 21
5.27092
  0
LINE
  8
0
 10
20.1399
 20
5.27092
 11
20.2761
 21
5.38803
  0
LINE
  8
0
 10
20.2761
 20
5.38803
 11
20.3955
 21
5.52534
  0
LINE
  8
0
 10
20.3955
 20
5.52534
 11
20.4983
 21
5.68288
  0
LINE
  8
0
 10
20.4983
 20
5.68288
 11
20.5809
 21
5.8596
  0
LINE
  8
0
 10
20.5809
 20
5.8596
 11
20.6399
 21
6.05446
  0
LINE
  8
0
 10
20.6399
 20
6.05446
 11
20.6753
 21
6.26744
  0
LINE
  8
0
 10
20.6753
 20
6.26744
 11
20.6871
 21
6.49857
  0
LINE
  8
0
 10
20.6871
 20
6.49857
 11
20.6753
 21
6.73056
  0
LINE
  8
0
 10
20.6753
 20
6.73056
 11
20.6399
 21
6.94415
  0
LINE
  8
0
 10
20.6399
 20
6.94415
 11
20.5809
 21
7.13937
  0
LINE
  8
0
 10
20.5809
 20
7.13937
 11
20.4983
 21
7.31619
  0
LINE
  8
0
 10
20.4983
 20
7.31619
 11
20.3955
 21
7.4738
  0
LINE
  8
0
 10
20.3955
 20
7.4738
 11
20.2761
 21
7.6113
  0
LINE
  8
0
 10
20.2761
 20
7.6113
 11
20.1399
 21
7.72871
  0
LINE
  8
0
 10
20.1399
 20
7.72871
 11
19.987
 21
7.82602
  0
LINE
  8
0
 10
19.987
 20
7.82602
 11
19.821
 21
7.90237
  0
LINE
  8
0
 10
19.821
 20
7.90237
 11
19.6453
 21
7.95691
  0
LINE
  8
0
 10
19.6453
 20
7.95691
 11
19.4599
 21
7.98962
  0
LINE
  8
0
 10
19.4599
 20
7.98962
 11
19.2648
 21
8.00053
  0
LINE
  8
0
 10
19.2648
 20
8.00053
 11
19.068
 21
7.98962
  0
LINE
  8
0
 10
19.068
 20
7.98962
 11
18.8814
 21
7.95691
  0
LINE
  8
0
 10
18.8814
 20
7.95691
 11
18.7049
 21
7.90237
  0
LINE
  8
0
 10
18.7049
 20
7.90237
 11
18.5386
 21
7.82602
  0
LINE
  8
0
 10
18.5386
 20
7.82602
 11
18.3857
 21
7.72871
  0
LINE
  8
0
 10
18.3857
 20
7.72871
 11
18.2496
 21
7.6113
  0
LINE
  8
0
 10
18.2496
 20
7.6113
 11
18.1301
 21
7.4738
  0
LINE
  8
0
 10
18.1301
 20
7.4738
 11
18.0273
 21
7.31619
  0
LINE
  8
0
 10
18.0273
 20
7.31619
 11
17.9447
 21
7.13937
  0
LINE
  8
0
 10
17.9447
 20
7.13937
 11
17.8857
 21
6.94415
  0
LINE
  8
0
 10
17.8857
 20
6.94415
 11
17.8503
 21
6.73056
  0
LINE
  8
0
 10
17.8503
 20
6.73056
 11
17.8385
 21
6.49857
  0
LINE
  8
0
 10
17.8385
 20
6.49857
 11
17.8503
 21
6.2683
  0
LINE
  8
0
 10
17.8503
 20
6.2683
 11
17.8857
 21
6.05591
  0
LINE
  8
0
 10
17.8857
 20
6.05591
 11
17.9447
 21
5.86142
  0
LINE
  8
0
 10
17.9447
 20
5.86142
 11
18.0273
 21
5.68481
  0
LINE
  8
0
 10
18.0273
 20
5.68481
 11
18.1301
 21
5.52724
  0
LINE
  8
0
 10
18.1301
 20
5.52724
 11
18.2496
 21
5.38974
  0
LINE
  8
0
 10
18.2496
 20
5.38974
 11
18.3857
 21
5.27234
  0
LINE
  8
0
 10
18.3857
 20
5.27234
 11
18.5386
 21
5.17503
  0
LINE
  8
0
 10
18.5386
 20
5.17503
 11
18.7049
 21
5.09869
  0
LINE
  8
0
 10
18.7049
 20
5.09869
 11
18.8814
 21
5.04416
  0
LINE
  8
0
 10
18.8814
 20
5.04416
 11
19.068
 21
5.01144
  0
LINE
  8
0
 10
19.068
 20
5.01144
 11
19.2648
 21
5.00053
  0
LINE
  8
0
 10
19.2648
 20
5.00053
 11
19.4599
 21
5.01138
  0
LINE
  8
0
 10
19.1099
 20
5.62265
 11
18.9725
 21
5.66548
  0
LINE
  8
0
 10
18.9725
 20
5.66548
 11
18.8527
 21
5.73686
  0
LINE
  8
0
 10
18.8527
 20
5.73686
 11
18.7505
 21
5.83679
  0
LINE
  8
0
 10
18.7505
 20
5.83679
 11
18.6688
 21
5.96382
  0
LINE
  8
0
 10
18.6688
 20
5.96382
 11
18.6104
 21
6.11646
  0
LINE
  8
0
 10
18.6104
 20
6.11646
 11
18.5754
 21
6.29471
  0
LINE
  8
0
 10
18.5754
 20
6.29471
 11
18.5637
 21
6.49857
  0
LINE
  8
0
 10
18.5637
 20
6.49857
 11
18.5754
 21
6.70335
  0
LINE
  8
0
 10
18.5754
 20
6.70335
 11
18.6104
 21
6.88239
  0
LINE
  8
0
 10
18.6104
 20
6.88239
 11
18.6688
 21
7.03569
  0
LINE
  8
0
 10
18.6688
 20
7.03569
 11
18.7505
 21
7.16325
  0
LINE
  8
0
 10
18.7505
 20
7.16325
 11
18.8527
 21
7.26363
  0
LINE
  8
0
 10
18.8527
 20
7.26363
 11
18.9725
 21
7.33531
  0
LINE
  8
0
 10
18.9725
 20
7.33531
 11
19.1099
 21
7.37833
  0
LINE
  8
0
 10
19.1099
 20
7.37833
 11
19.2648
 21
7.39267
  0
LINE
  8
0
 10
19.2648
 20
7.39267
 11
19.4189
 21
7.37833
  0
LINE
  8
0
 10
19.4189
 20
7.37833
 11
19.5556
 21
7.33531
  0
LINE
  8
0
 10
19.5556
 20
7.33531
 11
19.675
 21
7.26363
  0
LINE
  8
0
 10
19.675
 20
7.26363
 11
19.7771
 21
7.16325
  0
LINE
  8
0
 10
19.7771
 20
7.16325
 11
19.8588
 21
7.03569
  0
LINE
  8
0
 10
19.8588
 20
7.03569
 11
19.9172
 21
6.88239
  0
LINE
  8
0
 10
19.9172
 20
6.88239
 11
19.9522
 21
6.70335
  0
LINE
  8
0
 10
19.9522
 20
6.70335
 11
19.9639
 21
6.49857
  0
LINE
  8
0
 10
19.9639
 20
6.49857
 11
19.9522
 21
6.29471
  0
LINE
  8
0
 10
19.9522
 20
6.29471
 11
19.9172
 21
6.11646
  0
LINE
  8
0
 10
19.9172
 20
6.11646
 11
19.8588
 21
5.96382
  0
LINE
  8
0
 10
19.8588
 20
5.96382
 11
19.7771
 21
5.83679
  0
LINE
  8
0
 10
19.7771
 20
5.83679
 11
19.675
 21
5.73686
  0
LINE
  8
0
 10
19.675
 20
5.73686
 11
19.5556
 21
5.66548
  0
LINE
  8
0
 10
19.5556
 20
5.66548
 11
19.4189
 21
5.62265
  0
LINE
  8
0
 10
19.4189
 20
5.62265
 11
19.2648
 21
5.60837
  0
LINE
  8
0
 10
19.2648
 20
5.60837
 11
19.1099
 21
5.62265
  0
LINE
  8
0
 10
12.9345
 20
6.29855
 11
12.9342
 21
6.35756
  0
LINE
  8
0
 10
12.9342
 20
6.35756
 11
12.9332
 21
6.42477
  0
LINE
  8
0
 10
12.9332
 20
6.42477
 11
12.9316
 21
6.5002
  0
LINE
  8
0
 10
12.9316
 20
6.5002
 11
12.9294
 21
6.58383
  0
LINE
  8
0
 10
12.9294
 20
6.58383
 11
12.9242
 21
6.76645
  0
LINE
  8
0
 10
12.9242
 20
6.76645
 11
12.9184
 21
6.96326
  0
LINE
  8
0
 10
12.9184
 20
6.96326
 11
12.9155
 21
7.06448
  0
LINE
  8
0
 10
12.9155
 20
7.06448
 11
12.9129
 21
7.16425
  0
LINE
  8
0
 10
12.9129
 20
7.16425
 11
12.9105
 21
7.26253
  0
LINE
  8
0
 10
12.9105
 20
7.26253
 11
12.9083
 21
7.35933
  0
LINE
  8
0
 10
12.9083
 20
7.35933
 11
12.9338
 21
7.25659
  0
LINE
  8
0
 10
12.9338
 20
7.25659
 11
12.9598
 21
7.15421
  0
LINE
  8
0
 10
12.9598
 20
7.15421
 11
12.9865
 21
7.05219
  0
LINE
  8
0
 10
12.9865
 20
7.05219
 11
13.0138
 21
6.95053
  0
LINE
  8
0
 10
13.0138
 20
6.95053
 11
13.0411
 21
6.85109
  0
LINE
  8
0
 10
13.0411
 20
6.85109
 11
13.0678
 21
6.75568
  0
LINE
  8
0
 10
13.0678
 20
6.75568
 11
13.0939
 21
6.66431
  0
LINE
  8
0
 10
13.0939
 20
6.66431
 11
13.1193
 21
6.57698
  0
LINE
  8
0
 10
13.1193
 20
6.57698
 11
13.1434
 21
6.49561
  0
LINE
  8
0
 10
13.1434
 20
6.49561
 11
13.1655
 21
6.42209
  0
LINE
  8
0
 10
13.1655
 20
6.42209
 11
13.1856
 21
6.3564
  0
LINE
  8
0
 10
13.1856
 20
6.3564
 11
13.2037
 21
6.29855
  0
LINE
  8
0
 10
13.2037
 20
6.29855
 11
13.6356
 21
5.03975
  0
LINE
  8
0
 10
13.6356
 20
5.03975
 11
14.2282
 21
5.03975
  0
LINE
  8
0
 10
14.2282
 20
5.03975
 11
14.6541
 21
6.29855
  0
LINE
  8
0
 10
14.6541
 20
6.29855
 11
14.6731
 21
6.35855
  0
LINE
  8
0
 10
14.6731
 20
6.35855
 11
14.6938
 21
6.42674
  0
LINE
  8
0
 10
14.6938
 20
6.42674
 11
14.7163
 21
6.50316
  0
LINE
  8
0
 10
14.7163
 20
6.50316
 11
14.7405
 21
6.58777
  0
LINE
  8
0
 10
14.7405
 20
6.58777
 11
14.7659
 21
6.67853
  0
LINE
  8
0
 10
14.7659
 20
6.67853
 11
14.792
 21
6.77332
  0
LINE
  8
0
 10
14.792
 20
6.77332
 11
14.8187
 21
6.87215
  0
LINE
  8
0
 10
14.8187
 20
6.87215
 11
14.846
 21
6.97502
  0
LINE
  8
0
 10
14.846
 20
6.97502
 11
14.8733
 21
7.07982
  0
LINE
  8
0
 10
14.8733
 20
7.07982
 11
14.9
 21
7.18434
  0
LINE
  8
0
 10
14.9
 20
7.18434
 11
14.926
 21
7.28864
  0
LINE
  8
0
 10
14.926
 20
7.28864
 11
14.9514
 21
7.39267
  0
LINE
  8
0
 10
14.9514
 20
7.39267
 11
14.9493
 21
7.29366
  0
LINE
  8
0
 10
14.9493
 20
7.29366
 11
14.9469
 21
7.19269
  0
LINE
  8
0
 10
14.9469
 20
7.19269
 11
14.9443
 21
7.08974
  0
LINE
  8
0
 10
14.9443
 20
7.08974
 11
14.9414
 21
6.98483
  0
LINE
  8
0
 10
14.9414
 20
6.98483
 11
14.9356
 21
6.78067
  0
LINE
  8
0
 10
14.9356
 20
6.78067
 11
14.9303
 21
6.59171
  0
LINE
  8
0
 10
14.9303
 20
6.59171
 11
14.9281
 21
6.50537
  0
LINE
  8
0
 10
14.9281
 20
6.50537
 11
14.9266
 21
6.42773
  0
LINE
  8
0
 10
14.9266
 20
6.42773
 11
14.9256
 21
6.3588
  0
LINE
  8
0
 10
14.9256
 20
6.3588
 11
14.9253
 21
6.29855
  0
LINE
  8
0
 10
14.9253
 20
6.29855
 11
14.9253
 21
5.03975
  0
LINE
  8
0
 10
14.9253
 20
5.03975
 11
15.6385
 21
5.03975
  0
LINE
  8
0
 10
15.6385
 20
5.03975
 11
15.6385
 21
7.9613
  0
LINE
  8
0
 10
15.6385
 20
7.9613
 11
14.5316
 21
7.9613
  0
LINE
  8
0
 10
14.5316
 20
7.9613
 11
14.1559
 21
6.82405
  0
LINE
  8
0
 10
14.1559
 20
6.82405
 11
14.1403
 21
6.77019
  0
LINE
  8
0
 10
14.1403
 20
6.77019
 11
14.1235
 21
6.70862
  0
LINE
  8
0
 10
14.1235
 20
6.70862
 11
14.1056
 21
6.63931
  0
LINE
  8
0
 10
14.1056
 20
6.63931
 11
14.0866
 21
6.5623
  0
LINE
  8
0
 10
14.0866
 20
6.5623
 11
14.067
 21
6.47993
  0
LINE
  8
0
 10
14.067
 20
6.47993
 11
14.0474
 21
6.39464
  0
LINE
  8
0
 10
14.0474
 20
6.39464
 11
14.0278
 21
6.30641
  0
LINE
  8
0
 10
14.0278
 20
6.30641
 11
14.0083
 21
6.21523
  0
LINE
  8
0
 10
14.0083
 20
6.21523
 11
13.989
 21
6.12326
  0
LINE
  8
0
 10
13.989
 20
6.12326
 11
13.9703
 21
6.03264
  0
LINE
  8
0
 10
13.9703
 20
6.03264
 11
13.9523
 21
5.94336
  0
LINE
  8
0
 10
13.9523
 20
5.94336
 11
13.9349
 21
5.85544
  0
LINE
  8
0
 10
13.9349
 20
5.85544
 11
13.9166
 21
5.94342
  0
LINE
  8
0
 10
13.9166
 20
5.94342
 11
13.8978
 21
6.03288
  0
LINE
  8
0
 10
13.8978
 20
6.03288
 11
13.8784
 21
6.12381
  0
LINE
  8
0
 10
13.8784
 20
6.12381
 11
13.8586
 21
6.21622
  0
LINE
  8
0
 10
13.8586
 20
6.21622
 11
13.8385
 21
6.30775
  0
LINE
  8
0
 10
13.8385
 20
6.30775
 11
13.8186
 21
6.39612
  0
LINE
  8
0
 10
13.8186
 20
6.39612
 11
13.7989
 21
6.48129
  0
LINE
  8
0
 10
13.7989
 20
6.48129
 11
13.7792
 21
6.56328
  0
LINE
  8
0
 10
13.7792
 20
6.56328
 11
13.7602
 21
6.63988
  0
LINE
  8
0
 10
13.7602
 20
6.63988
 11
13.7423
 21
6.70886
  0
LINE
  8
0
 10
13.7423
 20
6.70886
 11
13.7256
 21
6.77025
  0
LINE
  8
0
 10
13.7256
 20
6.77025
 11
13.7099
 21
6.82405
  0
LINE
  8
0
 10
13.7099
 20
6.82405
 11
13.3282
 21
7.9613
  0
LINE
  8
0
 10
13.3282
 20
7.9613
 11
12.2233
 21
7.9613
  0
LINE
  8
0
 10
12.2233
 20
7.9613
 11
12.2233
 21
5.03975
  0
LINE
  8
0
 10
12.2233
 20
5.03975
 11
12.9345
 21
5.03975
  0
LINE
  8
0
 10
12.9345
 20
5.03975
 11
12.9345
 21
6.29855
  0
LINE
  8
0
 10
9.1442
 20
6.29855
 11
9.14388
 21
6.35756
  0
LINE
  8
0
 10
9.14388
 20
6.35756
 11
9.14293
 21
6.42477
  0
LINE
  8
0
 10
9.14293
 20
6.42477
 11
9.14136
 21
6.5002
  0
LINE
  8
0
 10
9.14136
 20
6.5002
 11
9.13916
 21
6.58383
  0
LINE
  8
0
 10
9.13916
 20
6.58383
 11
9.1339
 21
6.76645
  0
LINE
  8
0
 10
9.1339
 20
6.76645
 11
9.1281
 21
6.96326
  0
LINE
  8
0
 10
9.1281
 20
6.96326
 11
9.12523
 21
7.06448
  0
LINE
  8
0
 10
9.12523
 20
7.06448
 11
9.12259
 21
7.16425
  0
LINE
  8
0
 10
9.12259
 20
7.16425
 11
9.12021
 21
7.26253
  0
LINE
  8
0
 10
9.12021
 20
7.26253
 11
9.11806
 21
7.35933
  0
LINE
  8
0
 10
9.11806
 20
7.35933
 11
9.14349
 21
7.25659
  0
LINE
  8
0
 10
9.14349
 20
7.25659
 11
9.16956
 21
7.15421
  0
LINE
  8
0
 10
9.16956
 20
7.15421
 11
9.19624
 21
7.05219
  0
LINE
  8
0
 10
9.19624
 20
7.05219
 11
9.22356
 21
6.95053
  0
LINE
  8
0
 10
9.22356
 20
6.95053
 11
9.25085
 21
6.85109
  0
LINE
  8
0
 10
9.25085
 20
6.85109
 11
9.27754
 21
6.75568
  0
LINE
  8
0
 10
9.27754
 20
6.75568
 11
9.30359
 21
6.66431
  0
LINE
  8
0
 10
9.30359
 20
6.66431
 11
9.32901
 21
6.57698
  0
LINE
  8
0
 10
9.32901
 20
6.57698
 11
9.35312
 21
6.49561
  0
LINE
  8
0
 10
9.35312
 20
6.49561
 11
9.37521
 21
6.42209
  0
LINE
  8
0
 10
9.37521
 20
6.42209
 11
9.39531
 21
6.3564
  0
LINE
  8
0
 10
9.39531
 20
6.3564
 11
9.41338
 21
6.29855
  0
LINE
  8
0
 10
9.41338
 20
6.29855
 11
9.84531
 21
5.03975
  0
LINE
  8
0
 10
9.84531
 20
5.03975
 11
10.4379
 21
5.03975
  0
LINE
  8
0
 10
10.4379
 20
5.03975
 11
10.8638
 21
6.29855
  0
LINE
  8
0
 10
10.8638
 20
6.29855
 11
10.8828
 21
6.35855
  0
LINE
  8
0
 10
10.8828
 20
6.35855
 11
10.9035
 21
6.42674
  0
LINE
  8
0
 10
10.9035
 20
6.42674
 11
10.926
 21
6.50316
  0
LINE
  8
0
 10
10.926
 20
6.50316
 11
10.9502
 21
6.58777
  0
LINE
  8
0
 10
10.9502
 20
6.58777
 11
10.9756
 21
6.67853
  0
LINE
  8
0
 10
10.9756
 20
6.67853
 11
11.0017
 21
6.77332
  0
LINE
  8
0
 10
11.0017
 20
6.77332
 11
11.0284
 21
6.87215
  0
LINE
  8
0
 10
11.0284
 20
6.87215
 11
11.0557
 21
6.97502
  0
LINE
  8
0
 10
11.0557
 20
6.97502
 11
11.083
 21
7.07982
  0
LINE
  8
0
 10
11.083
 20
7.07982
 11
11.1097
 21
7.18434
  0
LINE
  8
0
 10
11.1097
 20
7.18434
 11
11.1357
 21
7.28864
  0
LINE
  8
0
 10
11.1357
 20
7.28864
 11
11.1611
 21
7.39267
  0
LINE
  8
0
 10
11.1611
 20
7.39267
 11
11.159
 21
7.29366
  0
LINE
  8
0
 10
11.159
 20
7.29366
 11
11.1566
 21
7.19269
  0
LINE
  8
0
 10
11.1566
 20
7.19269
 11
11.154
 21
7.08974
  0
LINE
  8
0
 10
11.154
 20
7.08974
 11
11.1511
 21
6.98483
  0
LINE
  8
0
 10
11.1511
 20
6.98483
 11
11.1453
 21
6.78067
  0
LINE
  8
0
 10
11.1453
 20
6.78067
 11
11.1401
 21
6.59171
  0
LINE
  8
0
 10
11.1401
 20
6.59171
 11
11.1379
 21
6.50537
  0
LINE
  8
0
 10
11.1379
 20
6.50537
 11
11.1363
 21
6.42773
  0
LINE
  8
0
 10
11.1363
 20
6.42773
 11
11.1353
 21
6.3588
  0
LINE
  8
0
 10
11.1353
 20
6.3588
 11
11.135
 21
6.29855
  0
LINE
  8
0
 10
11.135
 20
6.29855
 11
11.135
 21
5.03975
  0
LINE
  8
0
 10
11.135
 20
5.03975
 11
11.8482
 21
5.03975
  0
LINE
  8
0
 10
11.8482
 20
5.03975
 11
11.8482
 21
7.9613
  0
LINE
  8
0
 10
11.8482
 20
7.9613
 11
10.7413
 21
7.9613
  0
LINE
  8
0
 10
10.7413
 20
7.9613
 11
10.3656
 21
6.82405
  0
LINE
  8
0
 10
10.3656
 20
6.82405
 11
10.35
 21
6.77019
  0
LINE
  8
0
 10
10.35
 20
6.77019
 11
10.3332
 21
6.70862
  0
LINE
  8
0
 10
10.3332
 20
6.70862
 11
10.3153
 21
6.63931
  0
LINE
  8
0
 10
10.3153
 20
6.63931
 11
10.2963
 21
6.5623
  0
LINE
  8
0
 10
10.2963
 20
6.5623
 11
10.2767
 21
6.47993
  0
LINE
  8
0
 10
10.2767
 20
6.47993
 11
10.2571
 21
6.39464
  0
LINE
  8
0
 10
10.2571
 20
6.39464
 11
10.2376
 21
6.30641
  0
LINE
  8
0
 10
10.2376
 20
6.30641
 11
10.218
 21
6.21523
  0
LINE
  8
0
 10
10.218
 20
6.21523
 11
10.1987
 21
6.12326
  0
LINE
  8
0
 10
10.1987
 20
6.12326
 11
10.1801
 21
6.03264
  0
LINE
  8
0
 10
10.1801
 20
6.03264
 11
10.162
 21
5.94336
  0
LINE
  8
0
 10
10.162
 20
5.94336
 11
10.1447
 21
5.85544
  0
LINE
  8
0
 10
10.1447
 20
5.85544
 11
10.1263
 21
5.94342
  0
LINE
  8
0
 10
10.1263
 20
5.94342
 11
10.1075
 21
6.03288
  0
LINE
  8
0
 10
10.1075
 20
6.03288
 11
10.0881
 21
6.12381
  0
LINE
  8
0
 10
10.0881
 20
6.12381
 11
10.0683
 21
6.21622
  0
LINE
  8
0
 10
10.0683
 20
6.21622
 11
10.0482
 21
6.30775
  0
LINE
  8
0
 10
10.0482
 20
6.30775
 11
10.0284
 21
6.39612
  0
LINE
  8
0
 10
10.0284
 20
6.39612
 11
10.0086
 21
6.48129
  0
LINE
  8
0
 10
10.0086
 20
6.48129
 11
9.98895
 21
6.56328
  0
LINE
  8
0
 10
9.98895
 20
6.56328
 11
9.96992
 21
6.63988
  0
LINE
  8
0
 10
9.96992
 20
6.63988
 11
9.95204
 21
6.70886
  0
LINE
  8
0
 10
9.95204
 20
6.70886
 11
9.93527
 21
6.77025
  0
LINE
  8
0
 10
9.93527
 20
6.77025
 11
9.91963
 21
6.82405
  0
LINE
  8
0
 10
9.91963
 20
6.82405
 11
9.53793
 21
7.9613
  0
LINE
  8
0
 10
9.53793
 20
7.9613
 11
8.43303
 21
7.9613
  0
LINE
  8
0
 10
8.43303
 20
7.9613
 11
8.43303
 21
5.03975
  0
LINE
  8
0
 10
8.43303
 20
5.03975
 11
9.1442
 21
5.03975
  0
LINE
  8
0
 10
9.1442
 20
5.03975
 11
9.1442
 21
6.29855
  0
LINE
  8
0
 10
21.7215
 20
6.04562
 11
22.1072
 21
6.04562
  0
LINE
  8
0
 10
22.1072
 20
6.04562
 11
22.6557
 21
5.03975
  0
LINE
  8
0
 10
22.6557
 20
5.03975
 11
23.4331
 21
5.03975
  0
LINE
  8
0
 10
23.4331
 20
5.03975
 11
22.8084
 21
6.15544
  0
LINE
  8
0
 10
22.8084
 20
6.15544
 11
22.9258
 21
6.21672
  0
LINE
  8
0
 10
22.9258
 20
6.21672
 11
23.0291
 21
6.29074
  0
LINE
  8
0
 10
23.0291
 20
6.29074
 11
23.1182
 21
6.3775
  0
LINE
  8
0
 10
23.1182
 20
6.3775
 11
23.1931
 21
6.47701
  0
LINE
  8
0
 10
23.1931
 20
6.47701
 11
23.2524
 21
6.58852
  0
LINE
  8
0
 10
23.2524
 20
6.58852
 11
23.2948
 21
6.71132
  0
LINE
  8
0
 10
23.2948
 20
6.71132
 11
23.3202
 21
6.84538
  0
LINE
  8
0
 10
23.3202
 20
6.84538
 11
23.3287
 21
6.99072
  0
LINE
  8
0
 10
23.3287
 20
6.99072
 11
23.3104
 21
7.20267
  0
LINE
  8
0
 10
23.3104
 20
7.20267
 11
23.2556
 21
7.39145
  0
LINE
  8
0
 10
23.2556
 20
7.39145
 11
23.1643
 21
7.55707
  0
LINE
  8
0
 10
23.1643
 20
7.55707
 11
23.0364
 21
7.69952
  0
LINE
  8
0
 10
23.0364
 20
7.69952
 11
22.8768
 21
7.81406
  0
LINE
  8
0
 10
22.8768
 20
7.81406
 11
22.6906
 21
7.89586
  0
LINE
  8
0
 10
22.6906
 20
7.89586
 11
22.4776
 21
7.94495
  0
LINE
  8
0
 10
22.4776
 20
7.94495
 11
22.2378
 21
7.9613
  0
LINE
  8
0
 10
22.2378
 20
7.9613
 11
21.0124
 21
7.9613
  0
LINE
  8
0
 10
21.0124
 20
7.9613
 11
21.0124
 21
5.03975
  0
LINE
  8
0
 10
21.0124
 20
5.03975
 11
21.7215
 21
5.03975
  0
LINE
  8
0
 10
21.7215
 20
5.03975
 11
21.7215
 21
6.04562
  0
LINE
  8
0
 10
21.7215
 20
6.59268
 11
21.7215
 21
7.40054
  0
LINE
  8
0
 10
21.7215
 20
7.40054
 11
22.0872
 21
7.40054
  0
LINE
  8
0
 10
22.0872
 20
7.40054
 11
22.3086
 21
7.37492
  0
LINE
  8
0
 10
22.3086
 20
7.37492
 11
22.4669
 21
7.29808
  0
LINE
  8
0
 10
22.4669
 20
7.29808
 11
22.5618
 21
7.17001
  0
LINE
  8
0
 10
22.5618
 20
7.17001
 11
22.5934
 21
6.99072
  0
LINE
  8
0
 10
22.5934
 20
6.99072
 11
22.5619
 21
6.81659
  0
LINE
  8
0
 10
22.5619
 20
6.81659
 11
22.4674
 21
6.6922
  0
LINE
  8
0
 10
22.4674
 20
6.6922
 11
22.3098
 21
6.61755
  0
LINE
  8
0
 10
22.3098
 20
6.61755
 11
22.0892
 21
6.59268
  0
LINE
  8
0
 10
22.0892
 20
6.59268
 11
21.7215
 21
6.59268
  0
LINE
  8
0
 10
6.96176
 20
1.24901
 11
7.00339
 21
1.29529
  0
LINE
  8
0
 10
7.00339
 20
1.29529
 11
7.04254
 21
1.34233
  0
LINE
  8
0
 10
7.04254
 20
1.34233
 11
7.07925
 21
1.39024
  0
LINE
  8
0
 10
7.07925
 20
1.39024
 11
7.11354
 21
1.43918
  0
LINE
  8
0
 10
7.11354
 20
1.43918
 11
7.14543
 21
1.48924
  0
LINE
  8
0
 10
7.14543
 20
1.48924
 11
7.17496
 21
1.54056
  0
LINE
  8
0
 10
7.17496
 20
1.54056
 11
7.20215
 21
1.59328
  0
LINE
  8
0
 10
7.20215
 20
1.59328
 11
7.22701
 21
1.64749
  0
LINE
  8
0
 10
7.22701
 20
1.64749
 11
7.24957
 21
1.70335
  0
LINE
  8
0
 10
7.24957
 20
1.70335
 11
7.26987
 21
1.76099
  0
LINE
  8
0
 10
7.26987
 20
1.76099
 11
7.28792
 21
1.8205
  0
LINE
  8
0
 10
7.28792
 20
1.8205
 11
7.30376
 21
1.88203
  0
LINE
  8
0
 10
7.30376
 20
1.88203
 11
7.3174
 21
1.94571
  0
LINE
  8
0
 10
7.3174
 20
1.94571
 11
7.32887
 21
2.01166
  0
LINE
  8
0
 10
7.32887
 20
2.01166
 11
7.33821
 21
2.07999
  0
LINE
  8
0
 10
7.33821
 20
2.07999
 11
7.34543
 21
2.15085
  0
LINE
  8
0
 10
7.34543
 20
2.15085
 11
7.35054
 21
2.22437
  0
LINE
  8
0
 10
7.35054
 20
2.22437
 11
7.35361
 21
2.30064
  0
LINE
  8
0
 10
7.35361
 20
2.30064
 11
7.35461
 21
2.37982
  0
LINE
  8
0
 10
7.35461
 20
2.37982
 11
7.35461
 21
7.5899
  0
LINE
  8
0
 10
7.35461
 20
7.5899
 11
5.23697
 21
6.44705
  0
LINE
  8
0
 10
5.23697
 20
6.44705
 11
5.23697
 21
2.31259
  0
LINE
  8
0
 10
5.23697
 20
2.31259
 11
6.91763
 21
1.20335
  0
LINE
  8
0
 10
6.91763
 20
1.20335
 11
6.96176
 21
1.24901
  0
LINE
  8
0
 10
28.1222
 20
6.76328
 11
26.7421
 21
6.76328
  0
LINE
  8
0
 10
26.7421
 20
6.76328
 11
26.7421
 21
6.23581
  0
LINE
  8
0
 10
26.7421
 20
6.23581
 11
28.1222
 21
6.23581
  0
LINE
  8
0
 10
28.1222
 20
6.23581
 11
28.1222
 21
6.76328
  0
LINE
  8
0
 10
17.4399
 20
6.76328
 11
16.0598
 21
6.76328
  0
LINE
  8
0
 10
16.0598
 20
6.76328
 11
16.0598
 21
6.23581
  0
LINE
  8
0
 10
16.0598
 20
6.23581
 11
17.4399
 21
6.23581
  0
LINE
  8
0
 10
17.4399
 20
6.23581
 11
17.4399
 21
6.76328
  0
LINE
  8
0
 10
29.6896
 20
1.00986
 11
29.7376
 21
1.01186
  0
LINE
  8
0
 10
29.7376
 20
1.01186
 11
29.787
 21
1.01517
  0
LINE
  8
0
 10
29.787
 20
1.01517
 11
29.8379
 21
1.01982
  0
LINE
  8
0
 10
29.8379
 20
1.01982
 11
29.8898
 21
1.02635
  0
LINE
  8
0
 10
29.8898
 20
1.02635
 11
29.9428
 21
1.03532
  0
LINE
  8
0
 10
29.9428
 20
1.03532
 11
29.9966
 21
1.04672
  0
LINE
  8
0
 10
29.9966
 20
1.04672
 11
30.0514
 21
1.06056
  0
LINE
  8
0
 10
30.0514
 20
1.06056
 11
29.9671
 21
1.51039
  0
LINE
  8
0
 10
29.9671
 20
1.51039
 11
29.9518
 21
1.50758
  0
LINE
  8
0
 10
29.9518
 20
1.50758
 11
29.9322
 21
1.50443
  0
LINE
  8
0
 10
29.9322
 20
1.50443
 11
29.9083
 21
1.50093
  0
LINE
  8
0
 10
29.9083
 20
1.50093
 11
29.88
 21
1.4971
  0
LINE
  8
0
 10
29.88
 20
1.4971
 11
29.8513
 21
1.49362
  0
LINE
  8
0
 10
29.8513
 20
1.49362
 11
29.8259
 21
1.49113
  0
LINE
  8
0
 10
29.8259
 20
1.49113
 11
29.804
 21
1.48964
  0
LINE
  8
0
 10
29.804
 20
1.48964
 11
29.7854
 21
1.48914
  0
LINE
  8
0
 10
29.7854
 20
1.48914
 11
29.7124
 21
1.49876
  0
LINE
  8
0
 10
29.7124
 20
1.49876
 11
29.6603
 21
1.52765
  0
LINE
  8
0
 10
29.6603
 20
1.52765
 11
29.6291
 21
1.57581
  0
LINE
  8
0
 10
29.6291
 20
1.57581
 11
29.6187
 21
1.64322
  0
LINE
  8
0
 10
29.6187
 20
1.64322
 11
29.6187
 21
2.55885
  0
LINE
  8
0
 10
29.6187
 20
2.55885
 11
29.9952
 21
2.55885
  0
LINE
  8
0
 10
29.9952
 20
2.55885
 11
29.9952
 21
3.01755
  0
LINE
  8
0
 10
29.9952
 20
3.01755
 11
29.6187
 21
3.01755
  0
LINE
  8
0
 10
29.6187
 20
3.01755
 11
29.6187
 21
3.48866
  0
LINE
  8
0
 10
29.6187
 20
3.48866
 11
28.9648
 21
3.48866
  0
LINE
  8
0
 10
28.9648
 20
3.48866
 11
28.9648
 21
3.01755
  0
LINE
  8
0
 10
28.9648
 20
3.01755
 11
28.3104
 21
3.01755
  0
LINE
  8
0
 10
28.3104
 20
3.01755
 11
28.3104
 21
3.12914
  0
LINE
  8
0
 10
28.3104
 20
3.12914
 11
28.3133
 21
3.17026
  0
LINE
  8
0
 10
28.3133
 20
3.17026
 11
28.3219
 21
3.20683
  0
LINE
  8
0
 10
28.3219
 20
3.20683
 11
28.3362
 21
3.23888
  0
LINE
  8
0
 10
28.3362
 20
3.23888
 11
28.3563
 21
3.26637
  0
LINE
  8
0
 10
28.3563
 20
3.26637
 11
28.3836
 21
3.28845
  0
LINE
  8
0
 10
28.3836
 20
3.28845
 11
28.4198
 21
3.30423
  0
LINE
  8
0
 10
28.4198
 20
3.30423
 11
28.4647
 21
3.31369
  0
LINE
  8
0
 10
28.4647
 20
3.31369
 11
28.5184
 21
3.31685
  0
LINE
  8
0
 10
28.5184
 20
3.31685
 11
28.5437
 21
3.31636
  0
LINE
  8
0
 10
28.5437
 20
3.31636
 11
28.5689
 21
3.31487
  0
LINE
  8
0
 10
28.5689
 20
3.31487
 11
28.5942
 21
3.31236
  0
LINE
  8
0
 10
28.5942
 20
3.31236
 11
28.6195
 21
3.30888
  0
LINE
  8
0
 10
28.6195
 20
3.30888
 11
28.644
 21
3.30484
  0
LINE
  8
0
 10
28.644
 20
3.30484
 11
28.6668
 21
3.30069
  0
LINE
  8
0
 10
28.6668
 20
3.30069
 11
28.688
 21
3.29643
  0
LINE
  8
0
 10
28.688
 20
3.29643
 11
28.7076
 21
3.29207
  0
LINE
  8
0
 10
28.7076
 20
3.29207
 11
28.8125
 21
3.74367
  0
LINE
  8
0
 10
28.8125
 20
3.74367
 11
28.7795
 21
3.75192
  0
LINE
  8
0
 10
28.7795
 20
3.75192
 11
28.7385
 21
3.76073
  0
LINE
  8
0
 10
28.7385
 20
3.76073
 11
28.6895
 21
3.77008
  0
LINE
  8
0
 10
28.6895
 20
3.77008
 11
28.6326
 21
3.77997
  0
LINE
  8
0
 10
28.6326
 20
3.77997
 11
28.5707
 21
3.78888
  0
LINE
  8
0
 10
28.5707
 20
3.78888
 11
28.5067
 21
3.79526
  0
LINE
  8
0
 10
28.5067
 20
3.79526
 11
28.4405
 21
3.79907
  0
LINE
  8
0
 10
28.4405
 20
3.79907
 11
28.3722
 21
3.80034
  0
LINE
  8
0
 10
28.3722
 20
3.80034
 11
28.2221
 21
3.78983
  0
LINE
  8
0
 10
28.2221
 20
3.78983
 11
28.0865
 21
3.75829
  0
LINE
  8
0
 10
28.0865
 20
3.75829
 11
27.9655
 21
3.70569
  0
LINE
  8
0
 10
27.9655
 20
3.70569
 11
27.8589
 21
3.63208
  0
LINE
  8
0
 10
27.8589
 20
3.63208
 11
27.772
 21
3.53723
  0
LINE
  8
0
 10
27.772
 20
3.53723
 11
27.71
 21
3.4209
  0
LINE
  8
0
 10
27.71
 20
3.4209
 11
27.6728
 21
3.2831
  0
LINE
  8
0
 10
27.6728
 20
3.2831
 11
27.6603
 21
3.12381
  0
LINE
  8
0
 10
27.6603
 20
3.12381
 11
27.6603
 21
3.01755
  0
LINE
  8
0
 10
27.6603
 20
3.01755
 11
27.3081
 21
3.01755
  0
LINE
  8
0
 10
27.3081
 20
3.01755
 11
27.3081
 21
2.55885
  0
LINE
  8
0
 10
27.3081
 20
2.55885
 11
27.6603
 21
2.55885
  0
LINE
  8
0
 10
27.6603
 20
2.55885
 11
27.6603
 21
1.03754
  0
LINE
  8
0
 10
27.6603
 20
1.03754
 11
28.3104
 21
1.03754
  0
LINE
  8
0
 10
28.3104
 20
1.03754
 11
28.3104
 21
2.55885
  0
LINE
  8
0
 10
28.3104
 20
2.55885
 11
28.9648
 21
2.55885
  0
LINE
  8
0
 10
28.9648
 20
2.55885
 11
28.9648
 21
1.58832
  0
LINE
  8
0
 10
28.9648
 20
1.58832
 11
28.9756
 21
1.45511
  0
LINE
  8
0
 10
28.9756
 20
1.45511
 11
29.0079
 21
1.33882
  0
LINE
  8
0
 10
29.0079
 20
1.33882
 11
29.0618
 21
1.23947
  0
LINE
  8
0
 10
29.0618
 20
1.23947
 11
29.1372
 21
1.15706
  0
LINE
  8
0
 10
29.1372
 20
1.15706
 11
29.2334
 21
1.09236
  0
LINE
  8
0
 10
29.2334
 20
1.09236
 11
29.3498
 21
1.04616
  0
LINE
  8
0
 10
29.3498
 20
1.04616
 11
29.4864
 21
1.01843
  0
LINE
  8
0
 10
29.4864
 20
1.01843
 11
29.643
 21
1.0092
  0
LINE
  8
0
 10
29.643
 20
1.0092
 11
29.6896
 21
1.00986
  0
LINE
  8
0
 10
18.4078
 20
1.02443
 11
18.6395
 21
1.09134
  0
LINE
  8
0
 10
18.6395
 20
1.09134
 11
18.8401
 21
1.20285
  0
LINE
  8
0
 10
18.8401
 20
1.20285
 11
19.0097
 21
1.35898
  0
LINE
  8
0
 10
19.0097
 20
1.35898
 11
19.1445
 21
1.55507
  0
LINE
  8
0
 10
19.1445
 20
1.55507
 11
19.2408
 21
1.78647
  0
LINE
  8
0
 10
19.2408
 20
1.78647
 11
19.2986
 21
2.05318
  0
LINE
  8
0
 10
19.2986
 20
2.05318
 11
19.3179
 21
2.35519
  0
LINE
  8
0
 10
19.3179
 20
2.35519
 11
19.3092
 21
2.56091
  0
LINE
  8
0
 10
19.3092
 20
2.56091
 11
19.283
 21
2.75124
  0
LINE
  8
0
 10
19.283
 20
2.75124
 11
19.2394
 21
2.92618
  0
LINE
  8
0
 10
19.2394
 20
2.92618
 11
19.1783
 21
3.08572
  0
LINE
  8
0
 10
19.1783
 20
3.08572
 11
19.1008
 21
3.22868
  0
LINE
  8
0
 10
19.1008
 20
3.22868
 11
19.0081
 21
3.35382
  0
LINE
  8
0
 10
19.0081
 20
3.35382
 11
18.8999
 21
3.46114
  0
LINE
  8
0
 10
18.8999
 20
3.46114
 11
18.7764
 21
3.55063
  0
LINE
  8
0
 10
18.7764
 20
3.55063
 11
18.6386
 21
3.62115
  0
LINE
  8
0
 10
18.6386
 20
3.62115
 11
18.4875
 21
3.67152
  0
LINE
  8
0
 10
18.4875
 20
3.67152
 11
18.323
 21
3.70174
  0
LINE
  8
0
 10
18.323
 20
3.70174
 11
18.1451
 21
3.71181
  0
LINE
  8
0
 10
18.1451
 20
3.71181
 11
17.884
 21
3.68945
  0
LINE
  8
0
 10
17.884
 20
3.68945
 11
17.6531
 21
3.62238
  0
LINE
  8
0
 10
17.6531
 20
3.62238
 11
17.4526
 21
3.51056
  0
LINE
  8
0
 10
17.4526
 20
3.51056
 11
17.2824
 21
3.35403
  0
LINE
  8
0
 10
17.2824
 20
3.35403
 11
17.1468
 21
3.15746
  0
LINE
  8
0
 10
17.1468
 20
3.15746
 11
17.0499
 21
2.92545
  0
LINE
  8
0
 10
17.0499
 20
2.92545
 11
16.9918
 21
2.65804
  0
LINE
  8
0
 10
16.9918
 20
2.65804
 11
16.9724
 21
2.35519
  0
LINE
  8
0
 10
16.9724
 20
2.35519
 11
16.9918
 21
2.05244
  0
LINE
  8
0
 10
16.9918
 20
2.05244
 11
17.0499
 21
1.78535
  0
LINE
  8
0
 10
17.0499
 20
1.78535
 11
17.1468
 21
1.55389
  0
LINE
  8
0
 10
17.1468
 20
1.55389
 11
17.2824
 21
1.35809
  0
LINE
  8
0
 10
17.2824
 20
1.35809
 11
17.4526
 21
1.20235
  0
LINE
  8
0
 10
17.4526
 20
1.20235
 11
17.6531
 21
1.09111
  0
LINE
  8
0
 10
17.6531
 20
1.09111
 11
17.884
 21
1.02437
  0
LINE
  8
0
 10
17.884
 20
1.02437
 11
18.1451
 21
1.00212
  0
LINE
  8
0
 10
18.1451
 20
1.00212
 11
18.4078
 21
1.02443
  0
LINE
  8
0
 10
18.0331
 20
1.52756
 11
17.9351
 21
1.56841
  0
LINE
  8
0
 10
17.9351
 20
1.56841
 11
17.851
 21
1.63647
  0
LINE
  8
0
 10
17.851
 20
1.63647
 11
17.7807
 21
1.73177
  0
LINE
  8
0
 10
17.7807
 20
1.73177
 11
17.7254
 21
1.85243
  0
LINE
  8
0
 10
17.7254
 20
1.85243
 11
17.6859
 21
1.99655
  0
LINE
  8
0
 10
17.6859
 20
1.99655
 11
17.6622
 21
2.16414
  0
LINE
  8
0
 10
17.6622
 20
2.16414
 11
17.6543
 21
2.35519
  0
LINE
  8
0
 10
17.6543
 20
2.35519
 11
17.6622
 21
2.54718
  0
LINE
  8
0
 10
17.6622
 20
2.54718
 11
17.6861
 21
2.71582
  0
LINE
  8
0
 10
17.6861
 20
2.71582
 11
17.7259
 21
2.8611
  0
LINE
  8
0
 10
17.7259
 20
2.8611
 11
17.7817
 21
2.98302
  0
LINE
  8
0
 10
17.7817
 20
2.98302
 11
17.8522
 21
3.07948
  0
LINE
  8
0
 10
17.8522
 20
3.07948
 11
17.9362
 21
3.14839
  0
LINE
  8
0
 10
17.9362
 20
3.14839
 11
18.0339
 21
3.18973
  0
LINE
  8
0
 10
18.0339
 20
3.18973
 11
18.1451
 21
3.20351
  0
LINE
  8
0
 10
18.1451
 20
3.20351
 11
18.2572
 21
3.18973
  0
LINE
  8
0
 10
18.2572
 20
3.18973
 11
18.3554
 21
3.14839
  0
LINE
  8
0
 10
18.3554
 20
3.14839
 11
18.4398
 21
3.07948
  0
LINE
  8
0
 10
18.4398
 20
3.07948
 11
18.5104
 21
2.98302
  0
LINE
  8
0
 10
18.5104
 20
2.98302
 11
18.5662
 21
2.8611
  0
LINE
  8
0
 10
18.5662
 20
2.8611
 11
18.606
 21
2.71582
  0
LINE
  8
0
 10
18.606
 20
2.71582
 11
18.6299
 21
2.54718
  0
LINE
  8
0
 10
18.6299
 20
2.54718
 11
18.6378
 21
2.35519
  0
LINE
  8
0
 10
18.6378
 20
2.35519
 11
18.6299
 21
2.16414
  0
LINE
  8
0
 10
18.6299
 20
2.16414
 11
18.606
 21
1.99655
  0
LINE
  8
0
 10
18.606
 20
1.99655
 11
18.5662
 21
1.85243
  0
LINE
  8
0
 10
18.5662
 20
1.85243
 11
18.5104
 21
1.73177
  0
LINE
  8
0
 10
18.5104
 20
1.73177
 11
18.4398
 21
1.63647
  0
LINE
  8
0
 10
18.4398
 20
1.63647
 11
18.3554
 21
1.56841
  0
LINE
  8
0
 10
18.3554
 20
1.56841
 11
18.2572
 21
1.52756
  0
LINE
  8
0
 10
18.2572
 20
1.52756
 11
18.1451
 21
1.51395
  0
LINE
  8
0
 10
18.1451
 20
1.51395
 11
18.0331
 21
1.52756
  0
LINE
  8
0
 10
33.6666
 20
1.54228
 11
32.5276
 21
1.54228
  0
LINE
  8
0
 10
32.5276
 20
1.54228
 11
32.5276
 21
1.55998
  0
LINE
  8
0
 10
32.5276
 20
1.55998
 11
32.8742
 21
1.86459
  0
LINE
  8
0
 10
32.8742
 20
1.86459
 11
33.0164
 21
1.98431
  0
LINE
  8
0
 10
33.0164
 20
1.98431
 11
33.1416
 21
2.0955
  0
LINE
  8
0
 10
33.1416
 20
2.0955
 11
33.2497
 21
2.19817
  0
LINE
  8
0
 10
33.2497
 20
2.19817
 11
33.3407
 21
2.29231
  0
LINE
  8
0
 10
33.3407
 20
2.29231
 11
33.4167
 21
2.38014
  0
LINE
  8
0
 10
33.4167
 20
2.38014
 11
33.48
 21
2.46388
  0
LINE
  8
0
 10
33.48
 20
2.46388
 11
33.5305
 21
2.54352
  0
LINE
  8
0
 10
33.5305
 20
2.54352
 11
33.5683
 21
2.61905
  0
LINE
  8
0
 10
33.5683
 20
2.61905
 11
33.5957
 21
2.69278
  0
LINE
  8
0
 10
33.5957
 20
2.69278
 11
33.6153
 21
2.76694
  0
LINE
  8
0
 10
33.6153
 20
2.76694
 11
33.6271
 21
2.84155
  0
LINE
  8
0
 10
33.6271
 20
2.84155
 11
33.631
 21
2.91661
  0
LINE
  8
0
 10
33.631
 20
2.91661
 11
33.6231
 21
3.03088
  0
LINE
  8
0
 10
33.6231
 20
3.03088
 11
33.5992
 21
3.1382
  0
LINE
  8
0
 10
33.5992
 20
3.1382
 11
33.5594
 21
3.23853
  0
LINE
  8
0
 10
33.5594
 20
3.23853
 11
33.5036
 21
3.33189
  0
LINE
  8
0
 10
33.5036
 20
3.33189
 11
33.4333
 21
3.41679
  0
LINE
  8
0
 10
33.4333
 20
3.41679
 11
33.3498
 21
3.49174
  0
LINE
  8
0
 10
33.3498
 20
3.49174
 11
33.253
 21
3.55672
  0
LINE
  8
0
 10
33.253
 20
3.55672
 11
33.143
 21
3.61174
  0
LINE
  8
0
 10
33.143
 20
3.61174
 11
33.0213
 21
3.65552
  0
LINE
  8
0
 10
33.0213
 20
3.65552
 11
32.8894
 21
3.6868
  0
LINE
  8
0
 10
32.8894
 20
3.6868
 11
32.7473
 21
3.70557
  0
LINE
  8
0
 10
32.7473
 20
3.70557
 11
32.595
 21
3.71181
  0
LINE
  8
0
 10
32.595
 20
3.71181
 11
32.447
 21
3.70517
  0
LINE
  8
0
 10
32.447
 20
3.70517
 11
32.3084
 21
3.68524
  0
LINE
  8
0
 10
32.3084
 20
3.68524
 11
32.1791
 21
3.65202
  0
LINE
  8
0
 10
32.1791
 20
3.65202
 11
32.0592
 21
3.60553
  0
LINE
  8
0
 10
32.0592
 20
3.60553
 11
31.9504
 21
3.54686
  0
LINE
  8
0
 10
31.9504
 20
3.54686
 11
31.8543
 21
3.47713
  0
LINE
  8
0
 10
31.8543
 20
3.47713
 11
31.771
 21
3.39632
  0
LINE
  8
0
 10
31.771
 20
3.39632
 11
31.7005
 21
3.30444
  0
LINE
  8
0
 10
31.7005
 20
3.30444
 11
31.6443
 21
3.2025
  0
LINE
  8
0
 10
31.6443
 20
3.2025
 11
31.6042
 21
3.09149
  0
LINE
  8
0
 10
31.6042
 20
3.09149
 11
31.5802
 21
2.97139
  0
LINE
  8
0
 10
31.5802
 20
2.97139
 11
31.5722
 21
2.84221
  0
LINE
  8
0
 10
31.5722
 20
2.84221
 11
32.2016
 21
2.84221
  0
LINE
  8
0
 10
32.2016
 20
2.84221
 11
32.2083
 21
2.92744
  0
LINE
  8
0
 10
32.2083
 20
2.92744
 11
32.2283
 21
3.0025
  0
LINE
  8
0
 10
32.2283
 20
3.0025
 11
32.2617
 21
3.06735
  0
LINE
  8
0
 10
32.2617
 20
3.06735
 11
32.3084
 21
3.12204
  0
LINE
  8
0
 10
32.3084
 20
3.12204
 11
32.3663
 21
3.16542
  0
LINE
  8
0
 10
32.3663
 20
3.16542
 11
32.433
 21
3.19643
  0
LINE
  8
0
 10
32.433
 20
3.19643
 11
32.5086
 21
3.21501
  0
LINE
  8
0
 10
32.5086
 20
3.21501
 11
32.5932
 21
3.22122
  0
LINE
  8
0
 10
32.5932
 20
3.22122
 11
32.6756
 21
3.21535
  0
LINE
  8
0
 10
32.6756
 20
3.21535
 11
32.7505
 21
3.19775
  0
LINE
  8
0
 10
32.7505
 20
3.19775
 11
32.818
 21
3.16843
  0
LINE
  8
0
 10
32.818
 20
3.16843
 11
32.8779
 21
3.12737
  0
LINE
  8
0
 10
32.8779
 20
3.12737
 11
32.9271
 21
3.076
  0
LINE
  8
0
 10
32.9271
 20
3.076
 11
32.9622
 21
3.01579
  0
LINE
  8
0
 10
32.9622
 20
3.01579
 11
32.9833
 21
2.94672
  0
LINE
  8
0
 10
32.9833
 20
2.94672
 11
32.9903
 21
2.86879
  0
LINE
  8
0
 10
32.9903
 20
2.86879
 11
32.9843
 21
2.79556
  0
LINE
  8
0
 10
32.9843
 20
2.79556
 11
32.9662
 21
2.72644
  0
LINE
  8
0
 10
32.9662
 20
2.72644
 11
32.9361
 21
2.66141
  0
LINE
  8
0
 10
32.9361
 20
2.66141
 11
32.8938
 21
2.60046
  0
LINE
  8
0
 10
32.8938
 20
2.60046
 11
32.8409
 21
2.53964
  0
LINE
  8
0
 10
32.8409
 20
2.53964
 11
32.7784
 21
2.47496
  0
LINE
  8
0
 10
32.7784
 20
2.47496
 11
32.7065
 21
2.40639
  0
LINE
  8
0
 10
32.7065
 20
2.40639
 11
32.625
 21
2.33394
  0
LINE
  8
0
 10
32.625
 20
2.33394
 11
31.6096
 21
1.48561
  0
LINE
  8
0
 10
31.6096
 20
1.48561
 11
31.6096
 21
1.03754
  0
LINE
  8
0
 10
31.6096
 20
1.03754
 11
33.6666
 21
1.03754
  0
LINE
  8
0
 10
33.6666
 20
1.03754
 11
33.6666
 21
1.54228
  0
LINE
  8
0
 10
12.0942
 20
1.02443
 11
12.3259
 21
1.09134
  0
LINE
  8
0
 10
12.3259
 20
1.09134
 11
12.5265
 21
1.20285
  0
LINE
  8
0
 10
12.5265
 20
1.20285
 11
12.6961
 21
1.35898
  0
LINE
  8
0
 10
12.6961
 20
1.35898
 11
12.8309
 21
1.55507
  0
LINE
  8
0
 10
12.8309
 20
1.55507
 11
12.9272
 21
1.78647
  0
LINE
  8
0
 10
12.9272
 20
1.78647
 11
12.985
 21
2.05318
  0
LINE
  8
0
 10
12.985
 20
2.05318
 11
13.0043
 21
2.35519
  0
LINE
  8
0
 10
13.0043
 20
2.35519
 11
12.9955
 21
2.56091
  0
LINE
  8
0
 10
12.9955
 20
2.56091
 11
12.9694
 21
2.75124
  0
LINE
  8
0
 10
12.9694
 20
2.75124
 11
12.9258
 21
2.92618
  0
LINE
  8
0
 10
12.9258
 20
2.92618
 11
12.8647
 21
3.08572
  0
LINE
  8
0
 10
12.8647
 20
3.08572
 11
12.7872
 21
3.22868
  0
LINE
  8
0
 10
12.7872
 20
3.22868
 11
12.6944
 21
3.35382
  0
LINE
  8
0
 10
12.6944
 20
3.35382
 11
12.5863
 21
3.46114
  0
LINE
  8
0
 10
12.5863
 20
3.46114
 11
12.4628
 21
3.55063
  0
LINE
  8
0
 10
12.4628
 20
3.55063
 11
12.325
 21
3.62115
  0
LINE
  8
0
 10
12.325
 20
3.62115
 11
12.1739
 21
3.67152
  0
LINE
  8
0
 10
12.1739
 20
3.67152
 11
12.0094
 21
3.70174
  0
LINE
  8
0
 10
12.0094
 20
3.70174
 11
11.8315
 21
3.71181
  0
LINE
  8
0
 10
11.8315
 20
3.71181
 11
11.5703
 21
3.68945
  0
LINE
  8
0
 10
11.5703
 20
3.68945
 11
11.3395
 21
3.62238
  0
LINE
  8
0
 10
11.3395
 20
3.62238
 11
11.139
 21
3.51056
  0
LINE
  8
0
 10
11.139
 20
3.51056
 11
10.9688
 21
3.35403
  0
LINE
  8
0
 10
10.9688
 20
3.35403
 11
10.8332
 21
3.15746
  0
LINE
  8
0
 10
10.8332
 20
3.15746
 11
10.7363
 21
2.92545
  0
LINE
  8
0
 10
10.7363
 20
2.92545
 11
10.6781
 21
2.65804
  0
LINE
  8
0
 10
10.6781
 20
2.65804
 11
10.6588
 21
2.35519
  0
LINE
  8
0
 10
10.6588
 20
2.35519
 11
10.6781
 21
2.05244
  0
LINE
  8
0
 10
10.6781
 20
2.05244
 11
10.7363
 21
1.78535
  0
LINE
  8
0
 10
10.7363
 20
1.78535
 11
10.8332
 21
1.55389
  0
LINE
  8
0
 10
10.8332
 20
1.55389
 11
10.9688
 21
1.35809
  0
LINE
  8
0
 10
10.9688
 20
1.35809
 11
11.139
 21
1.20235
  0
LINE
  8
0
 10
11.139
 20
1.20235
 11
11.3395
 21
1.09111
  0
LINE
  8
0
 10
11.3395
 20
1.09111
 11
11.5703
 21
1.02437
  0
LINE
  8
0
 10
11.5703
 20
1.02437
 11
11.8315
 21
1.00212
  0
LINE
  8
0
 10
11.8315
 20
1.00212
 11
12.0942
 21
1.02443
  0
LINE
  8
0
 10
11.7195
 20
1.52756
 11
11.6215
 21
1.56841
  0
LINE
  8
0
 10
11.6215
 20
1.56841
 11
11.5373
 21
1.63647
  0
LINE
  8
0
 10
11.5373
 20
1.63647
 11
11.4671
 21
1.73177
  0
LINE
  8
0
 10
11.4671
 20
1.73177
 11
11.4118
 21
1.85243
  0
LINE
  8
0
 10
11.4118
 20
1.85243
 11
11.3723
 21
1.99655
  0
LINE
  8
0
 10
11.3723
 20
1.99655
 11
11.3486
 21
2.16414
  0
LINE
  8
0
 10
11.3486
 20
2.16414
 11
11.3407
 21
2.35519
  0
LINE
  8
0
 10
11.3407
 20
2.35519
 11
11.3486
 21
2.54718
  0
LINE
  8
0
 10
11.3486
 20
2.54718
 11
11.3725
 21
2.71582
  0
LINE
  8
0
 10
11.3725
 20
2.71582
 11
11.4123
 21
2.8611
  0
LINE
  8
0
 10
11.4123
 20
2.8611
 11
11.468
 21
2.98302
  0
LINE
  8
0
 10
11.468
 20
2.98302
 11
11.5385
 21
3.07948
  0
LINE
  8
0
 10
11.5385
 20
3.07948
 11
11.6226
 21
3.14839
  0
LINE
  8
0
 10
11.6226
 20
3.14839
 11
11.7203
 21
3.18973
  0
LINE
  8
0
 10
11.7203
 20
3.18973
 11
11.8315
 21
3.20351
  0
LINE
  8
0
 10
11.8315
 20
3.20351
 11
11.9436
 21
3.18973
  0
LINE
  8
0
 10
11.9436
 20
3.18973
 11
12.0418
 21
3.14839
  0
LINE
  8
0
 10
12.0418
 20
3.14839
 11
12.1262
 21
3.07948
  0
LINE
  8
0
 10
12.1262
 20
3.07948
 11
12.1968
 21
2.98302
  0
LINE
  8
0
 10
12.1968
 20
2.98302
 11
12.2525
 21
2.8611
  0
LINE
  8
0
 10
12.2525
 20
2.8611
 11
12.2924
 21
2.71582
  0
LINE
  8
0
 10
12.2924
 20
2.71582
 11
12.3163
 21
2.54718
  0
LINE
  8
0
 10
12.3163
 20
2.54718
 11
12.3242
 21
2.35519
  0
LINE
  8
0
 10
12.3242
 20
2.35519
 11
12.3163
 21
2.16414
  0
LINE
  8
0
 10
12.3163
 20
2.16414
 11
12.2924
 21
1.99655
  0
LINE
  8
0
 10
12.2924
 20
1.99655
 11
12.2525
 21
1.85243
  0
LINE
  8
0
 10
12.2525
 20
1.85243
 11
12.1968
 21
1.73177
  0
LINE
  8
0
 10
12.1968
 20
1.73177
 11
12.1262
 21
1.63647
  0
LINE
  8
0
 10
12.1262
 20
1.63647
 11
12.0418
 21
1.56841
  0
LINE
  8
0
 10
12.0418
 20
1.56841
 11
11.9436
 21
1.52756
  0
LINE
  8
0
 10
11.9436
 20
1.52756
 11
11.8315
 21
1.51395
  0
LINE
  8
0
 10
11.8315
 20
1.51395
 11
11.7195
 21
1.52756
  0
LINE
  8
0
 10
22.2647
 20
1.01588
 11
22.3665
 21
1.03598
  0
LINE
  8
0
 10
22.3665
 20
1.03598
 11
22.4562
 21
1.06947
  0
LINE
  8
0
 10
22.4562
 20
1.06947
 11
22.5339
 21
1.11635
  0
LINE
  8
0
 10
22.5339
 20
1.11635
 11
22.6005
 21
1.17163
  0
LINE
  8
0
 10
22.6005
 20
1.17163
 11
22.6568
 21
1.23036
  0
LINE
  8
0
 10
22.6568
 20
1.23036
 11
22.703
 21
1.29251
  0
LINE
  8
0
 10
22.703
 20
1.29251
 11
22.739
 21
1.35809
  0
LINE
  8
0
 10
22.739
 20
1.35809
 11
22.7615
 21
1.35809
  0
LINE
  8
0
 10
22.7615
 20
1.35809
 11
22.7615
 21
1.03754
  0
LINE
  8
0
 10
22.7615
 20
1.03754
 11
23.406
 21
1.03754
  0
LINE
  8
0
 10
23.406
 20
1.03754
 11
23.406
 21
3.67638
  0
LINE
  8
0
 10
23.406
 20
3.67638
 11
22.754
 21
3.67638
  0
LINE
  8
0
 10
22.754
 20
3.67638
 11
22.754
 21
2.67751
  0
LINE
  8
0
 10
22.754
 20
2.67751
 11
22.739
 21
2.67751
  0
LINE
  8
0
 10
22.739
 20
2.67751
 11
22.7171
 21
2.7215
  0
LINE
  8
0
 10
22.7171
 20
2.7215
 11
22.6906
 21
2.76495
  0
LINE
  8
0
 10
22.6906
 20
2.76495
 11
22.6595
 21
2.80783
  0
LINE
  8
0
 10
22.6595
 20
2.80783
 11
22.6238
 21
2.85017
  0
LINE
  8
0
 10
22.6238
 20
2.85017
 11
22.5833
 21
2.89037
  0
LINE
  8
0
 10
22.5833
 20
2.89037
 11
22.5374
 21
2.92679
  0
LINE
  8
0
 10
22.5374
 20
2.92679
 11
22.4863
 21
2.95944
  0
LINE
  8
0
 10
22.4863
 20
2.95944
 11
22.4299
 21
2.98833
  0
LINE
  8
0
 10
22.4299
 20
2.98833
 11
22.3679
 21
3.01196
  0
LINE
  8
0
 10
22.3679
 20
3.01196
 11
22.2997
 21
3.02885
  0
LINE
  8
0
 10
22.2997
 20
3.02885
 11
22.2255
 21
3.03897
  0
LINE
  8
0
 10
22.2255
 20
3.03897
 11
22.1452
 21
3.04236
  0
LINE
  8
0
 10
22.1452
 20
3.04236
 11
22.0374
 21
3.03549
  0
LINE
  8
0
 10
22.0374
 20
3.03549
 11
21.9332
 21
3.01489
  0
LINE
  8
0
 10
21.9332
 20
3.01489
 11
21.8327
 21
2.98058
  0
LINE
  8
0
 10
21.8327
 20
2.98058
 11
21.7358
 21
2.93254
  0
LINE
  8
0
 10
21.7358
 20
2.93254
 11
21.6453
 21
2.87044
  0
LINE
  8
0
 10
21.6453
 20
2.87044
 11
21.5639
 21
2.79395
  0
LINE
  8
0
 10
21.5639
 20
2.79395
 11
21.4917
 21
2.70306
  0
LINE
  8
0
 10
21.4917
 20
2.70306
 11
21.4286
 21
2.59779
  0
LINE
  8
0
 10
21.4286
 20
2.59779
 11
21.3774
 21
2.47771
  0
LINE
  8
0
 10
21.3774
 20
2.47771
 11
21.3408
 21
2.34235
  0
LINE
  8
0
 10
21.3408
 20
2.34235
 11
21.3188
 21
2.1917
  0
LINE
  8
0
 10
21.3188
 20
2.1917
 11
21.3115
 21
2.02577
  0
LINE
  8
0
 10
21.3115
 20
2.02577
 11
21.3185
 21
1.86444
  0
LINE
  8
0
 10
21.3185
 20
1.86444
 11
21.3396
 21
1.71695
  0
LINE
  8
0
 10
21.3396
 20
1.71695
 11
21.3747
 21
1.5833
  0
LINE
  8
0
 10
21.3747
 20
1.5833
 11
21.4239
 21
1.46347
  0
LINE
  8
0
 10
21.4239
 20
1.46347
 11
21.485
 21
1.35753
  0
LINE
  8
0
 10
21.485
 20
1.35753
 11
21.556
 21
1.26555
  0
LINE
  8
0
 10
21.556
 20
1.26555
 11
21.6368
 21
1.18752
  0
LINE
  8
0
 10
21.6368
 20
1.18752
 11
21.7274
 21
1.12343
  0
LINE
  8
0
 10
21.7274
 20
1.12343
 11
21.8255
 21
1.07346
  0
LINE
  8
0
 10
21.8255
 20
1.07346
 11
21.9288
 21
1.03775
  0
LINE
  8
0
 10
21.9288
 20
1.03775
 11
22.0372
 21
1.01633
  0
LINE
  8
0
 10
22.0372
 20
1.01633
 11
22.1508
 21
1.0092
  0
LINE
  8
0
 10
22.1508
 20
1.0092
 11
22.2647
 21
1.01588
  0
LINE
  8
0
 10
22.2847
 20
1.50011
 11
22.2068
 21
1.52766
  0
LINE
  8
0
 10
22.2068
 20
1.52766
 11
22.14
 21
1.57361
  0
LINE
  8
0
 10
22.14
 20
1.57361
 11
22.0843
 21
1.63792
  0
LINE
  8
0
 10
22.0843
 20
1.63792
 11
22.0404
 21
1.71729
  0
LINE
  8
0
 10
22.0404
 20
1.71729
 11
22.0091
 21
1.80838
  0
LINE
  8
0
 10
22.0091
 20
1.80838
 11
21.9903
 21
1.91121
  0
LINE
  8
0
 10
21.9903
 20
1.91121
 11
21.9841
 21
2.02577
  0
LINE
  8
0
 10
21.9841
 20
2.02577
 11
21.9903
 21
2.14029
  0
LINE
  8
0
 10
21.9903
 20
2.14029
 11
22.0091
 21
2.24295
  0
LINE
  8
0
 10
22.0091
 20
2.24295
 11
22.0404
 21
2.33377
  0
LINE
  8
0
 10
22.0404
 20
2.33377
 11
22.0843
 21
2.41275
  0
LINE
  8
0
 10
22.0843
 20
2.41275
 11
22.14
 21
2.47667
  0
LINE
  8
0
 10
22.14
 20
2.47667
 11
22.2068
 21
2.52232
  0
LINE
  8
0
 10
22.2068
 20
2.52232
 11
22.2847
 21
2.54973
  0
LINE
  8
0
 10
22.2847
 20
2.54973
 11
22.3737
 21
2.55885
  0
LINE
  8
0
 10
22.3737
 20
2.55885
 11
22.4622
 21
2.5499
  0
LINE
  8
0
 10
22.4622
 20
2.5499
 11
22.5402
 21
2.52299
  0
LINE
  8
0
 10
22.5402
 20
2.52299
 11
22.6078
 21
2.47815
  0
LINE
  8
0
 10
22.6078
 20
2.47815
 11
22.665
 21
2.41539
  0
LINE
  8
0
 10
22.665
 20
2.41539
 11
22.7105
 21
2.33723
  0
LINE
  8
0
 10
22.7105
 20
2.33723
 11
22.743
 21
2.24626
  0
LINE
  8
0
 10
22.743
 20
2.24626
 11
22.7625
 21
2.14244
  0
LINE
  8
0
 10
22.7625
 20
2.14244
 11
22.769
 21
2.02577
  0
LINE
  8
0
 10
22.769
 20
2.02577
 11
22.7625
 21
1.91049
  0
LINE
  8
0
 10
22.7625
 20
1.91049
 11
22.7428
 21
1.80727
  0
LINE
  8
0
 10
22.7428
 20
1.80727
 11
22.71
 21
1.71611
  0
LINE
  8
0
 10
22.71
 20
1.71611
 11
22.6641
 21
1.63702
  0
LINE
  8
0
 10
22.6641
 20
1.63702
 11
22.6066
 21
1.5731
  0
LINE
  8
0
 10
22.6066
 20
1.5731
 11
22.5391
 21
1.52744
  0
LINE
  8
0
 10
22.5391
 20
1.52744
 11
22.4614
 21
1.50005
  0
LINE
  8
0
 10
22.4614
 20
1.50005
 11
22.3737
 21
1.49091
  0
LINE
  8
0
 10
22.3737
 20
1.49091
 11
22.2847
 21
1.50011
  0
LINE
  8
0
 10
15.4355
 20
3.67638
 11
14.7517
 21
3.67638
  0
LINE
  8
0
 10
14.7517
 20
3.67638
 11
14.1297
 21
3.27258
  0
LINE
  8
0
 10
14.1297
 20
3.27258
 11
14.1297
 21
2.72357
  0
LINE
  8
0
 10
14.1297
 20
2.72357
 11
14.7573
 21
3.13266
  0
LINE
  8
0
 10
14.7573
 20
3.13266
 11
14.7761
 21
3.13266
  0
LINE
  8
0
 10
14.7761
 20
3.13266
 11
14.7761
 21
1.03754
  0
LINE
  8
0
 10
14.7761
 20
1.03754
 11
15.4355
 21
1.03754
  0
LINE
  8
0
 10
15.4355
 20
1.03754
 11
15.4355
 21
3.67638
  0
LINE
  8
0
 10
26.0682
 20
1.02171
 11
26.2361
 21
1.08047
  0
LINE
  8
0
 10
26.2361
 20
1.08047
 11
26.3717
 21
1.17844
  0
LINE
  8
0
 10
26.3717
 20
1.17844
 11
26.4749
 21
1.31558
  0
LINE
  8
0
 10
26.4749
 20
1.31558
 11
26.4918
 21
1.31558
  0
LINE
  8
0
 10
26.4918
 20
1.31558
 11
26.4918
 21
1.03754
  0
LINE
  8
0
 10
26.4918
 20
1.03754
 11
27.1063
 21
1.03754
  0
LINE
  8
0
 10
27.1063
 20
1.03754
 11
27.1063
 21
2.38174
  0
LINE
  8
0
 10
27.1063
 20
2.38174
 11
27.0985
 21
2.48396
  0
LINE
  8
0
 10
27.0985
 20
2.48396
 11
27.0751
 21
2.57811
  0
LINE
  8
0
 10
27.0751
 20
2.57811
 11
27.0362
 21
2.66417
  0
LINE
  8
0
 10
27.0362
 20
2.66417
 11
26.9817
 21
2.74214
  0
LINE
  8
0
 10
26.9817
 20
2.74214
 11
26.914
 21
2.8116
  0
LINE
  8
0
 10
26.914
 20
2.8116
 11
26.8356
 21
2.87209
  0
LINE
  8
0
 10
26.8356
 20
2.87209
 11
26.7463
 21
2.92361
  0
LINE
  8
0
 10
26.7463
 20
2.92361
 11
26.6463
 21
2.96617
  0
LINE
  8
0
 10
26.6463
 20
2.96617
 11
26.5379
 21
2.9995
  0
LINE
  8
0
 10
26.5379
 20
2.9995
 11
26.4232
 21
3.02332
  0
LINE
  8
0
 10
26.4232
 20
3.02332
 11
26.3023
 21
3.0376
  0
LINE
  8
0
 10
26.3023
 20
3.0376
 11
26.1752
 21
3.04236
  0
LINE
  8
0
 10
26.1752
 20
3.04236
 11
25.988
 21
3.03244
  0
LINE
  8
0
 10
25.988
 20
3.03244
 11
25.8199
 21
3.00273
  0
LINE
  8
0
 10
25.8199
 20
3.00273
 11
25.6709
 21
2.95319
  0
LINE
  8
0
 10
25.6709
 20
2.95319
 11
25.541
 21
2.88383
  0
LINE
  8
0
 10
25.541
 20
2.88383
 11
25.4319
 21
2.79866
  0
LINE
  8
0
 10
25.4319
 20
2.79866
 11
25.345
 21
2.70164
  0
LINE
  8
0
 10
25.345
 20
2.70164
 11
25.2806
 21
2.59279
  0
LINE
  8
0
 10
25.2806
 20
2.59279
 11
25.2385
 21
2.47208
  0
LINE
  8
0
 10
25.2385
 20
2.47208
 11
25.8305
 21
2.39946
  0
LINE
  8
0
 10
25.8305
 20
2.39946
 11
25.8475
 21
2.44395
  0
LINE
  8
0
 10
25.8475
 20
2.44395
 11
25.8722
 21
2.48357
  0
LINE
  8
0
 10
25.8722
 20
2.48357
 11
25.9046
 21
2.51833
  0
LINE
  8
0
 10
25.9046
 20
2.51833
 11
25.9448
 21
2.5482
  0
LINE
  8
0
 10
25.9448
 20
2.5482
 11
25.9918
 21
2.57224
  0
LINE
  8
0
 10
25.9918
 20
2.57224
 11
26.045
 21
2.5894
  0
LINE
  8
0
 10
26.045
 20
2.5894
 11
26.1042
 21
2.59969
  0
LINE
  8
0
 10
26.1042
 20
2.59969
 11
26.1696
 21
2.60313
  0
LINE
  8
0
 10
26.1696
 20
2.60313
 11
26.2325
 21
2.59964
  0
LINE
  8
0
 10
26.2325
 20
2.59964
 11
26.2883
 21
2.58919
  0
LINE
  8
0
 10
26.2883
 20
2.58919
 11
26.3369
 21
2.57175
  0
LINE
  8
0
 10
26.3369
 20
2.57175
 11
26.3784
 21
2.54735
  0
LINE
  8
0
 10
26.3784
 20
2.54735
 11
26.4116
 21
2.51651
  0
LINE
  8
0
 10
26.4116
 20
2.51651
 11
26.4353
 21
2.47983
  0
LINE
  8
0
 10
26.4353
 20
2.47983
 11
26.4496
 21
2.43726
  0
LINE
  8
0
 10
26.4496
 20
2.43726
 11
26.4543
 21
2.38882
  0
LINE
  8
0
 10
26.4543
 20
2.38882
 11
26.4543
 21
2.38174
  0
LINE
  8
0
 10
26.4543
 20
2.38174
 11
26.4471
 21
2.33952
  0
LINE
  8
0
 10
26.4471
 20
2.33952
 11
26.4255
 21
2.30493
  0
LINE
  8
0
 10
26.4255
 20
2.30493
 11
26.3895
 21
2.27798
  0
LINE
  8
0
 10
26.3895
 20
2.27798
 11
26.3391
 21
2.25867
  0
LINE
  8
0
 10
26.3391
 20
2.25867
 11
26.2721
 21
2.24377
  0
LINE
  8
0
 10
26.2721
 20
2.24377
 11
26.1862
 21
2.2301
  0
LINE
  8
0
 10
26.1862
 20
2.2301
 11
26.0815
 21
2.21765
  0
LINE
  8
0
 10
26.0815
 20
2.21765
 11
25.9579
 21
2.20641
  0
LINE
  8
0
 10
25.9579
 20
2.20641
 11
25.8542
 21
2.19479
  0
LINE
  8
0
 10
25.8542
 20
2.19479
 11
25.7549
 21
2.17763
  0
LINE
  8
0
 10
25.7549
 20
2.17763
 11
25.6598
 21
2.15494
  0
LINE
  8
0
 10
25.6598
 20
2.15494
 11
25.5692
 21
2.12671
  0
LINE
  8
0
 10
25.5692
 20
2.12671
 11
25.485
 21
2.09152
  0
LINE
  8
0
 10
25.485
 20
2.09152
 11
25.4097
 21
2.04791
  0
LINE
  8
0
 10
25.4097
 20
2.04791
 11
25.3431
 21
1.99588
  0
LINE
  8
0
 10
25.3431
 20
1.99588
 11
25.2853
 21
1.93544
  0
LINE
  8
0
 10
25.2853
 20
1.93544
 11
25.2386
 21
1.86516
  0
LINE
  8
0
 10
25.2386
 20
1.86516
 11
25.2052
 21
1.78358
  0
LINE
  8
0
 10
25.2052
 20
1.78358
 11
25.1852
 21
1.6907
  0
LINE
  8
0
 10
25.1852
 20
1.6907
 11
25.1785
 21
1.58655
  0
LINE
  8
0
 10
25.1785
 20
1.58655
 11
25.1907
 21
1.44885
  0
LINE
  8
0
 10
25.1907
 20
1.44885
 11
25.227
 21
1.32976
  0
LINE
  8
0
 10
25.227
 20
1.32976
 11
25.2876
 21
1.22926
  0
LINE
  8
0
 10
25.2876
 20
1.22926
 11
25.3724
 21
1.14734
  0
LINE
  8
0
 10
25.3724
 20
1.14734
 11
25.4761
 21
1.08382
  0
LINE
  8
0
 10
25.4761
 20
1.08382
 11
25.5933
 21
1.03842
  0
LINE
  8
0
 10
25.5933
 20
1.03842
 11
25.7239
 21
1.0112
  0
LINE
  8
0
 10
25.7239
 20
1.0112
 11
25.868
 21
1.00212
  0
LINE
  8
0
 10
25.868
 20
1.00212
 11
26.0682
 21
1.02171
  0
LINE
  8
0
 10
26.0102
 20
1.41447
 11
25.959
 21
1.42427
  0
LINE
  8
0
 10
25.959
 20
1.42427
 11
25.9132
 21
1.4406
  0
LINE
  8
0
 10
25.9132
 20
1.4406
 11
25.8726
 21
1.46347
  0
LINE
  8
0
 10
25.8726
 20
1.46347
 11
25.8394
 21
1.49252
  0
LINE
  8
0
 10
25.8394
 20
1.49252
 11
25.8158
 21
1.52745
  0
LINE
  8
0
 10
25.8158
 20
1.52745
 11
25.8015
 21
1.56824
  0
LINE
  8
0
 10
25.8015
 20
1.56824
 11
25.7968
 21
1.61488
  0
LINE
  8
0
 10
25.7968
 20
1.61488
 11
25.8156
 21
1.702
  0
LINE
  8
0
 10
25.8156
 20
1.702
 11
25.8722
 21
1.77029
  0
LINE
  8
0
 10
25.8722
 20
1.77029
 11
25.9664
 21
1.81978
  0
LINE
  8
0
 10
25.9664
 20
1.81978
 11
26.0984
 21
1.85043
  0
LINE
  8
0
 10
26.0984
 20
1.85043
 11
26.1452
 21
1.85785
  0
LINE
  8
0
 10
26.1452
 20
1.85785
 11
26.1939
 21
1.86592
  0
LINE
  8
0
 10
26.1939
 20
1.86592
 11
26.2445
 21
1.87466
  0
LINE
  8
0
 10
26.2445
 20
1.87466
 11
26.297
 21
1.88408
  0
LINE
  8
0
 10
26.297
 20
1.88408
 11
26.3472
 21
1.89438
  0
LINE
  8
0
 10
26.3472
 20
1.89438
 11
26.3911
 21
1.90578
  0
LINE
  8
0
 10
26.3911
 20
1.90578
 11
26.4287
 21
1.91829
  0
LINE
  8
0
 10
26.4287
 20
1.91829
 11
26.46
 21
1.93192
  0
LINE
  8
0
 10
26.46
 20
1.93192
 11
26.46
 21
1.7424
  0
LINE
  8
0
 10
26.46
 20
1.7424
 11
26.4528
 21
1.67233
  0
LINE
  8
0
 10
26.4528
 20
1.67233
 11
26.4314
 21
1.60912
  0
LINE
  8
0
 10
26.4314
 20
1.60912
 11
26.3957
 21
1.55278
  0
LINE
  8
0
 10
26.3957
 20
1.55278
 11
26.3457
 21
1.5033
  0
LINE
  8
0
 10
26.3457
 20
1.5033
 11
26.2854
 21
1.46301
  0
LINE
  8
0
 10
26.2854
 20
1.46301
 11
26.2188
 21
1.43423
  0
LINE
  8
0
 10
26.2188
 20
1.43423
 11
26.1458
 21
1.41696
  0
LINE
  8
0
 10
26.1458
 20
1.41696
 11
26.0665
 21
1.41121
  0
LINE
  8
0
 10
26.0665
 20
1.41121
 11
26.0102
 21
1.41447
  0
LINE
  8
0
 10
24.4352
 20
2.11786
 11
24.4426
 21
2.20221
  0
LINE
  8
0
 10
24.4426
 20
2.20221
 11
24.465
 21
2.27814
  0
LINE
  8
0
 10
24.465
 20
2.27814
 11
24.5021
 21
2.34566
  0
LINE
  8
0
 10
24.5021
 20
2.34566
 11
24.5542
 21
2.40475
  0
LINE
  8
0
 10
24.5542
 20
2.40475
 11
24.6176
 21
2.4528
  0
LINE
  8
0
 10
24.6176
 20
2.4528
 11
24.6888
 21
2.48712
  0
LINE
  8
0
 10
24.6888
 20
2.48712
 11
24.7679
 21
2.50771
  0
LINE
  8
0
 10
24.7679
 20
2.50771
 11
24.8548
 21
2.51457
  0
LINE
  8
0
 10
24.8548
 20
2.51457
 11
24.8858
 21
2.51407
  0
LINE
  8
0
 10
24.8858
 20
2.51407
 11
24.9188
 21
2.51257
  0
LINE
  8
0
 10
24.9188
 20
2.51257
 11
24.9537
 21
2.51009
  0
LINE
  8
0
 10
24.9537
 20
2.51009
 11
24.9906
 21
2.50661
  0
LINE
  8
0
 10
24.9906
 20
2.50661
 11
25.0268
 21
2.50212
  0
LINE
  8
0
 10
25.0268
 20
2.50212
 11
25.0593
 21
2.49664
  0
LINE
  8
0
 10
25.0593
 20
2.49664
 11
25.0882
 21
2.49017
  0
LINE
  8
0
 10
25.0882
 20
2.49017
 11
25.1134
 21
2.48271
  0
LINE
  8
0
 10
25.1134
 20
2.48271
 11
25.1134
 21
3.0211
  0
LINE
  8
0
 10
25.1134
 20
3.0211
 11
25.0681
 21
3.0304
  0
LINE
  8
0
 10
25.0681
 20
3.0304
 11
25.0221
 21
3.03703
  0
LINE
  8
0
 10
25.0221
 20
3.03703
 11
24.9753
 21
3.04103
  0
LINE
  8
0
 10
24.9753
 20
3.04103
 11
24.9279
 21
3.04236
  0
LINE
  8
0
 10
24.9279
 20
3.04236
 11
24.8444
 21
3.03638
  0
LINE
  8
0
 10
24.8444
 20
3.03638
 11
24.7661
 21
3.01845
  0
LINE
  8
0
 10
24.7661
 20
3.01845
 11
24.6931
 21
2.98856
  0
LINE
  8
0
 10
24.6931
 20
2.98856
 11
24.6254
 21
2.94672
  0
LINE
  8
0
 10
24.6254
 20
2.94672
 11
24.5649
 21
2.8927
  0
LINE
  8
0
 10
24.5649
 20
2.8927
 11
24.5137
 21
2.82629
  0
LINE
  8
0
 10
24.5137
 20
2.82629
 11
24.4717
 21
2.74748
  0
LINE
  8
0
 10
24.4717
 20
2.74748
 11
24.439
 21
2.65627
  0
LINE
  8
0
 10
24.439
 20
2.65627
 11
24.4165
 21
2.65627
  0
LINE
  8
0
 10
24.4165
 20
2.65627
 11
24.4165
 21
3.01755
  0
LINE
  8
0
 10
24.4165
 20
3.01755
 11
23.7814
 21
3.01755
  0
LINE
  8
0
 10
23.7814
 20
3.01755
 11
23.7814
 21
1.03754
  0
LINE
  8
0
 10
23.7814
 20
1.03754
 11
24.4352
 21
1.03754
  0
LINE
  8
0
 10
24.4352
 20
1.03754
 11
24.4352
 21
2.11786
  0
LINE
  8
0
 10
10.5193
 20
3.01755
 11
9.83734
 21
3.01755
  0
LINE
  8
0
 10
9.83734
 20
3.01755
 11
9.53011
 21
2.04878
  0
LINE
  8
0
 10
9.53011
 20
2.04878
 11
9.50914
 21
1.98143
  0
LINE
  8
0
 10
9.50914
 20
1.98143
 11
9.48935
 21
1.91396
  0
LINE
  8
0
 10
9.48935
 20
1.91396
 11
9.47073
 21
1.84639
  0
LINE
  8
0
 10
9.47073
 20
1.84639
 11
9.45328
 21
1.7787
  0
LINE
  8
0
 10
9.45328
 20
1.7787
 11
9.43666
 21
1.71046
  0
LINE
  8
0
 10
9.43666
 20
1.71046
 11
9.42052
 21
1.64122
  0
LINE
  8
0
 10
9.42052
 20
1.64122
 11
9.40483
 21
1.571
  0
LINE
  8
0
 10
9.40483
 20
1.571
 11
9.3896
 21
1.49977
  0
LINE
  8
0
 10
9.3896
 20
1.49977
 11
9.37268
 21
1.57104
  0
LINE
  8
0
 10
9.37268
 20
1.57104
 11
9.35565
 21
1.64145
  0
LINE
  8
0
 10
9.35565
 20
1.64145
 11
9.33849
 21
1.71095
  0
LINE
  8
0
 10
9.33849
 20
1.71095
 11
9.32121
 21
1.77959
  0
LINE
  8
0
 10
9.32121
 20
1.77959
 11
9.30336
 21
1.84755
  0
LINE
  8
0
 10
9.30336
 20
1.84755
 11
9.28445
 21
1.91507
  0
LINE
  8
0
 10
9.28445
 20
1.91507
 11
9.2645
 21
1.98215
  0
LINE
  8
0
 10
9.2645
 20
1.98215
 11
9.24347
 21
2.04878
  0
LINE
  8
0
 10
9.24347
 20
2.04878
 11
8.93063
 21
3.01755
  0
LINE
  8
0
 10
8.93063
 20
3.01755
 11
8.24121
 21
3.01755
  0
LINE
  8
0
 10
8.24121
 20
3.01755
 11
8.99994
 21
1.03754
  0
LINE
  8
0
 10
8.99994
 20
1.03754
 11
9.75679
 21
1.03754
  0
LINE
  8
0
 10
9.75679
 20
1.03754
 11
10.5193
 21
3.01755
  0
LINE
  8
0
 10
5.6331
 20
0.800262
 11
5.69215
 21
0.801132
  0
LINE
  8
0
 10
5.69215
 20
0.801132
 11
5.75031
 21
0.802719
  0
LINE
  8
0
 10
5.75031
 20
0.802719
 11
5.80759
 21
0.805099
  0
LINE
  8
0
 10
5.80759
 20
0.805099
 11
5.86407
 21
0.808395
  0
LINE
  8
0
 10
5.86407
 20
0.808395
 11
5.91978
 21
0.812698
  0
LINE
  8
0
 10
5.91978
 20
0.812698
 11
5.97481
 21
0.818115
  0
LINE
  8
0
 10
5.97481
 20
0.818115
 11
6.02917
 21
0.824738
  0
LINE
  8
0
 10
6.02917
 20
0.824738
 11
6.08293
 21
0.832657
  0
LINE
  8
0
 10
6.08293
 20
0.832657
 11
6.13612
 21
0.84201
  0
LINE
  8
0
 10
6.13612
 20
0.84201
 11
6.18883
 21
0.852859
  0
LINE
  8
0
 10
6.18883
 20
0.852859
 11
6.24107
 21
0.865341
  0
LINE
  8
0
 10
6.24107
 20
0.865341
 11
6.29291
 21
0.879517
  0
LINE
  8
0
 10
6.29291
 20
0.879517
 11
6.34439
 21
0.895523
  0
LINE
  8
0
 10
6.34439
 20
0.895523
 11
6.39558
 21
0.913437
  0
LINE
  8
0
 10
6.39558
 20
0.913437
 11
6.44652
 21
0.933365
  0
LINE
  8
0
 10
6.44652
 20
0.933365
 11
6.49724
 21
0.955414
  0
LINE
  8
0
 10
6.49724
 20
0.955414
 11
6.54782
 21
0.979691
  0
LINE
  8
0
 10
6.54782
 20
0.979691
 11
6.5983
 21
1.00627
  0
LINE
  8
0
 10
6.5983
 20
1.00627
 11
6.64873
 21
1.03529
  0
LINE
  8
0
 10
6.64873
 20
1.03529
 11
3.89243
 21
2.61511
  0
LINE
  8
0
 10
3.89243
 20
2.61511
 11
1.40503
 21
1.06889
  0
LINE
  8
0
 10
1.40503
 20
1.06889
 11
1.43604
 21
1.0442
  0
LINE
  8
0
 10
1.43604
 20
1.0442
 11
1.46854
 21
1.02052
  0
LINE
  8
0
 10
1.46854
 20
1.02052
 11
1.50249
 21
0.997925
  0
LINE
  8
0
 10
1.50249
 20
0.997925
 11
1.53787
 21
0.976395
  0
LINE
  8
0
 10
1.53787
 20
0.976395
 11
1.57468
 21
0.955978
  0
LINE
  8
0
 10
1.57468
 20
0.955978
 11
1.61287
 21
0.936691
  0
LINE
  8
0
 10
1.61287
 20
0.936691
 11
1.65242
 21
0.918579
  0
LINE
  8
0
 10
1.65242
 20
0.918579
 11
1.6933
 21
0.901642
  0
LINE
  8
0
 10
1.6933
 20
0.901642
 11
1.7355
 21
0.88591
  0
LINE
  8
0
 10
1.7355
 20
0.88591
 11
1.77898
 21
0.871414
  0
LINE
  8
0
 10
1.77898
 20
0.871414
 11
1.82373
 21
0.858185
  0
LINE
  8
0
 10
1.82373
 20
0.858185
 11
1.86971
 21
0.846237
  0
LINE
  8
0
 10
1.86971
 20
0.846237
 11
1.9169
 21
0.835617
  0
LINE
  8
0
 10
1.9169
 20
0.835617
 11
1.96527
 21
0.826309
  0
LINE
  8
0
 10
1.96527
 20
0.826309
 11
2.0148
 21
0.818375
  0
LINE
  8
0
 10
2.0148
 20
0.818375
 11
2.06548
 21
0.811829
  0
LINE
  8
0
 10
2.06548
 20
0.811829
 11
2.11725
 21
0.806686
  0
LINE
  8
0
 10
2.11725
 20
0.806686
 11
2.1701
 21
0.802979
  0
LINE
  8
0
 10
2.1701
 20
0.802979
 11
2.22403
 21
0.800751
  0
LINE
  8
0
 10
2.22403
 20
0.800751
 11
2.27898
 21
0.799988
  0
LINE
  8
0
 10
2.27898
 20
0.799988
 11
5.5731
 21
0.799988
  0
LINE
  8
0
 10
5.5731
 20
0.799988
 11
5.6331
 21
0.800262
  0
LINE
  8
0
 10
20.9586
 20
2.34456
 11
19.6716
 21
2.34456
  0
LINE
  8
0
 10
19.6716
 20
2.34456
 11
19.6716
 21
1.86815
  0
LINE
  8
0
 10
19.6716
 20
1.86815
 11
20.9586
 21
1.86815
  0
LINE
  8
0
 10
20.9586
 20
1.86815
 11
20.9586
 21
2.34456
  0
LINE
  8
0
 10
16.3614
 20
1.00627
 11
16.4273
 21
1.02403
  0
LINE
  8
0
 10
16.4273
 20
1.02403
 11
16.4873
 21
1.05363
  0
LINE
  8
0
 10
16.4873
 20
1.05363
 11
16.5414
 21
1.09509
  0
LINE
  8
0
 10
16.5414
 20
1.09509
 11
16.586
 21
1.14528
  0
LINE
  8
0
 10
16.586
 20
1.14528
 11
16.618
 21
1.20113
  0
LINE
  8
0
 10
16.618
 20
1.20113
 11
16.6371
 21
1.26262
  0
LINE
  8
0
 10
16.6371
 20
1.26262
 11
16.6435
 21
1.32976
  0
LINE
  8
0
 10
16.6435
 20
1.32976
 11
16.6371
 21
1.39766
  0
LINE
  8
0
 10
16.6371
 20
1.39766
 11
16.618
 21
1.4597
  0
LINE
  8
0
 10
16.618
 20
1.4597
 11
16.586
 21
1.51587
  0
LINE
  8
0
 10
16.586
 20
1.51587
 11
16.5414
 21
1.56618
  0
LINE
  8
0
 10
16.5414
 20
1.56618
 11
16.4873
 21
1.60764
  0
LINE
  8
0
 10
16.4873
 20
1.60764
 11
16.4273
 21
1.63725
  0
LINE
  8
0
 10
16.4273
 20
1.63725
 11
16.3614
 21
1.65503
  0
LINE
  8
0
 10
16.3614
 20
1.65503
 11
16.2894
 21
1.66095
  0
LINE
  8
0
 10
16.2894
 20
1.66095
 11
16.2175
 21
1.65503
  0
LINE
  8
0
 10
16.2175
 20
1.65503
 11
16.1515
 21
1.63725
  0
LINE
  8
0
 10
16.1515
 20
1.63725
 11
16.0915
 21
1.60764
  0
LINE
  8
0
 10
16.0915
 20
1.60764
 11
16.0374
 21
1.56618
  0
LINE
  8
0
 10
16.0374
 20
1.56618
 11
15.9928
 21
1.51587
  0
LINE
  8
0
 10
15.9928
 20
1.51587
 11
15.9609
 21
1.4597
  0
LINE
  8
0
 10
15.9609
 20
1.4597
 11
15.9417
 21
1.39766
  0
LINE
  8
0
 10
15.9417
 20
1.39766
 11
15.9353
 21
1.32976
  0
LINE
  8
0
 10
15.9353
 20
1.32976
 11
15.9417
 21
1.26262
  0
LINE
  8
0
 10
15.9417
 20
1.26262
 11
15.9609
 21
1.20113
  0
LINE
  8
0
 10
15.9609
 20
1.20113
 11
15.9928
 21
1.14528
  0
LINE
  8
0
 10
15.9928
 20
1.14528
 11
16.0374
 21
1.09509
  0
LINE
  8
0
 10
16.0374
 20
1.09509
 11
16.0915
 21
1.05363
  0
LINE
  8
0
 10
16.0915
 20
1.05363
 11
16.1515
 21
1.02403
  0
LINE
  8
0
 10
16.1515
 20
1.02403
 11
16.2175
 21
1.00627
  0
LINE
  8
0
 10
16.2175
 20
1.00627
 11
16.2894
 21
1.00034
  0
LINE
  8
0
 10
16.2894
 20
1.00034
 11
16.3614
 21
1.00627
  0
LINE
  8
0
 10
30.829
 20
1.00627
 11
30.895
 21
1.02403
  0
LINE
  8
0
 10
30.895
 20
1.02403
 11
30.955
 21
1.05363
  0
LINE
  8
0
 10
30.955
 20
1.05363
 11
31.009
 21
1.09509
  0
LINE
  8
0
 10
31.009
 20
1.09509
 11
31.0537
 21
1.14528
  0
LINE
  8
0
 10
31.0537
 20
1.14528
 11
31.0856
 21
1.20113
  0
LINE
  8
0
 10
31.0856
 20
1.20113
 11
31.1048
 21
1.26262
  0
LINE
  8
0
 10
31.1048
 20
1.26262
 11
31.1111
 21
1.32976
  0
LINE
  8
0
 10
31.1111
 20
1.32976
 11
31.1048
 21
1.39766
  0
LINE
  8
0
 10
31.1048
 20
1.39766
 11
31.0856
 21
1.4597
  0
LINE
  8
0
 10
31.0856
 20
1.4597
 11
31.0537
 21
1.51587
  0
LINE
  8
0
 10
31.0537
 20
1.51587
 11
31.009
 21
1.56618
  0
LINE
  8
0
 10
31.009
 20
1.56618
 11
30.955
 21
1.60764
  0
LINE
  8
0
 10
30.955
 20
1.60764
 11
30.895
 21
1.63725
  0
LINE
  8
0
 10
30.895
 20
1.63725
 11
30.829
 21
1.65503
  0
LINE
  8
0
 10
30.829
 20
1.65503
 11
30.7571
 21
1.66095
  0
LINE
  8
0
 10
30.7571
 20
1.66095
 11
30.6852
 21
1.65503
  0
LINE
  8
0
 10
30.6852
 20
1.65503
 11
30.6192
 21
1.63725
  0
LINE
  8
0
 10
30.6192
 20
1.63725
 11
30.5592
 21
1.60764
  0
LINE
  8
0
 10
30.5592
 20
1.60764
 11
30.5051
 21
1.56618
  0
LINE
  8
0
 10
30.5051
 20
1.56618
 11
30.4605
 21
1.51587
  0
LINE
  8
0
 10
30.4605
 20
1.51587
 11
30.4285
 21
1.4597
  0
LINE
  8
0
 10
30.4285
 20
1.4597
 11
30.4094
 21
1.39766
  0
LINE
  8
0
 10
30.4094
 20
1.39766
 11
30.403
 21
1.32976
  0
LINE
  8
0
 10
30.403
 20
1.32976
 11
30.4094
 21
1.26262
  0
LINE
  8
0
 10
30.4094
 20
1.26262
 11
30.4285
 21
1.20113
  0
LINE
  8
0
 10
30.4285
 20
1.20113
 11
30.4605
 21
1.14528
  0
LINE
  8
0
 10
30.4605
 20
1.14528
 11
30.5051
 21
1.09509
  0
LINE
  8
0
 10
30.5051
 20
1.09509
 11
30.5592
 21
1.05363
  0
LINE
  8
0
 10
30.5592
 20
1.05363
 11
30.6192
 21
1.02403
  0
LINE
  8
0
 10
30.6192
 20
1.02403
 11
30.6852
 21
1.00627
  0
LINE
  8
0
 10
30.6852
 20
1.00627
 11
30.7571
 21
1.00034
  0
LINE
  8
0
 10
30.7571
 20
1.00034
 11
30.829
 21
1.00627
  0
LINE
  8
0
 10
13.7306
 20
1.00627
 11
13.7965
 21
1.02403
  0
LINE
  8
0
 10
13.7965
 20
1.02403
 11
13.8565
 21
1.05363
  0
LINE
  8
0
 10
13.8565
 20
1.05363
 11
13.9106
 21
1.09509
  0
LINE
  8
0
 10
13.9106
 20
1.09509
 11
13.9552
 21
1.14528
  0
LINE
  8
0
 10
13.9552
 20
1.14528
 11
13.9872
 21
1.20113
  0
LINE
  8
0
 10
13.9872
 20
1.20113
 11
14.0063
 21
1.26262
  0
LINE
  8
0
 10
14.0063
 20
1.26262
 11
14.0127
 21
1.32976
  0
LINE
  8
0
 10
14.0127
 20
1.32976
 11
14.0063
 21
1.39766
  0
LINE
  8
0
 10
14.0063
 20
1.39766
 11
13.9872
 21
1.4597
  0
LINE
  8
0
 10
13.9872
 20
1.4597
 11
13.9552
 21
1.51587
  0
LINE
  8
0
 10
13.9552
 20
1.51587
 11
13.9106
 21
1.56618
  0
LINE
  8
0
 10
13.9106
 20
1.56618
 11
13.8565
 21
1.60764
  0
LINE
  8
0
 10
13.8565
 20
1.60764
 11
13.7965
 21
1.63725
  0
LINE
  8
0
 10
13.7965
 20
1.63725
 11
13.7306
 21
1.65503
  0
LINE
  8
0
 10
13.7306
 20
1.65503
 11
13.6586
 21
1.66095
  0
LINE
  8
0
 10
13.6586
 20
1.66095
 11
13.5867
 21
1.65503
  0
LINE
  8
0
 10
13.5867
 20
1.65503
 11
13.5207
 21
1.63725
  0
LINE
  8
0
 10
13.5207
 20
1.63725
 11
13.4607
 21
1.60764
  0
LINE
  8
0
 10
13.4607
 20
1.60764
 11
13.4066
 21
1.56618
  0
LINE
  8
0
 10
13.4066
 20
1.56618
 11
13.362
 21
1.51587
  0
LINE
  8
0
 10
13.362
 20
1.51587
 11
13.3301
 21
1.4597
  0
LINE
  8
0
 10
13.3301
 20
1.4597
 11
13.3109
 21
1.39766
  0
LINE
  8
0
 10
13.3109
 20
1.39766
 11
13.3046
 21
1.32976
  0
LINE
  8
0
 10
13.3046
 20
1.32976
 11
13.3109
 21
1.26262
  0
LINE
  8
0
 10
13.3109
 20
1.26262
 11
13.3301
 21
1.20113
  0
LINE
  8
0
 10
13.3301
 20
1.20113
 11
13.362
 21
1.14528
  0
LINE
  8
0
 10
13.362
 20
1.14528
 11
13.4066
 21
1.09509
  0
LINE
  8
0
 10
13.4066
 20
1.09509
 11
13.4607
 21
1.05363
  0
LINE
  8
0
 10
13.4607
 20
1.05363
 11
13.5207
 21
1.02403
  0
LINE
  8
0
 10
13.5207
 20
1.02403
 11
13.5867
 21
1.00627
  0
LINE
  8
0
 10
13.5867
 20
1.00627
 11
13.6586
 21
1.00034
  0
LINE
  8
0
 10
13.6586
 20
1.00034
 11
13.7306
 21
1.00627
  0
ENDSEC
  0
SECTION
  2
OBJECTS
  0
DICTIONARY
  0
ENDSEC
  0
EOF
