solid OpenSCAD_Model
  facet normal 1 0 0
    outer loop
      vertex 50 15.5115 10
      vertex 50 7.5 10
      vertex 50 13.55 4.9
    endloop
  endfacet
  facet normal 1 0 0
    outer loop
      vertex 50 32.5 10
      vertex 50 26.45 4.9
      vertex 50 32.5 0
    endloop
  endfacet
  facet normal 1 0 -0
    outer loop
      vertex 50 26.45 4.9
      vertex 50 32.5 10
      vertex 50 24.4885 10
    endloop
  endfacet
  facet normal 1 -0 0
    outer loop
      vertex 50 13.55 4.9
      vertex 50 32.5 0
      vertex 50 26.45 4.9
    endloop
  endfacet
  facet normal 1 0 0
    outer loop
      vertex 50 13.55 4.9
      vertex 50 7.5 0
      vertex 50 32.5 0
    endloop
  endfacet
  facet normal 1 0 0
    outer loop
      vertex 50 7.5 0
      vertex 50 13.55 4.9
      vertex 50 7.5 10
    endloop
  endfacet
  facet normal -0 0 1
    outer loop
      vertex 8 32.5 10
      vertex 50 24.4885 10
      vertex 50 32.5 10
    endloop
  endfacet
  facet normal 0 0 1
    outer loop
      vertex 50 24.4885 10
      vertex 8 32.5 10
      vertex 8 24.4885 10
    endloop
  endfacet
  facet normal -0 0 1
    outer loop
      vertex 8 15.5115 10
      vertex 50 7.5 10
      vertex 50 15.5115 10
    endloop
  endfacet
  facet normal 0 0 1
    outer loop
      vertex 50 7.5 10
      vertex 8 15.5115 10
      vertex 8 7.5 10
    endloop
  endfacet
  facet normal 0 0 -1
    outer loop
      vertex 8 7.5 0
      vertex 50 32.5 0
      vertex 50 7.5 0
    endloop
  endfacet
  facet normal -0 0 -1
    outer loop
      vertex 50 32.5 0
      vertex 8 7.5 0
      vertex 8 32.5 0
    endloop
  endfacet
  facet normal -1 0 0
    outer loop
      vertex 8 32.5 0
      vertex 8 26.45 4.9
      vertex 8 32.5 10
    endloop
  endfacet
  facet normal -1 0 0
    outer loop
      vertex 8 32.5 0
      vertex 8 13.55 4.9
      vertex 8 26.45 4.9
    endloop
  endfacet
  facet normal -1 0 -0
    outer loop
      vertex 8 13.55 4.9
      vertex 8 32.5 0
      vertex 8 7.5 0
    endloop
  endfacet
  facet normal -1 -0 0
    outer loop
      vertex 8 32.5 10
      vertex 8 26.45 4.9
      vertex 8 24.4885 10
    endloop
  endfacet
  facet normal -1 0 0
    outer loop
      vertex 8 7.5 10
      vertex 8 13.55 4.9
      vertex 8 7.5 0
    endloop
  endfacet
  facet normal -1 0 0
    outer loop
      vertex 8 13.55 4.9
      vertex 8 7.5 10
      vertex 8 15.5115 10
    endloop
  endfacet
  facet normal 0 1 -0
    outer loop
      vertex 50 32.5 0
      vertex 8 32.5 10
      vertex 50 32.5 10
    endloop
  endfacet
  facet normal 0 1 0
    outer loop
      vertex 8 32.5 10
      vertex 50 32.5 0
      vertex 8 32.5 0
    endloop
  endfacet
  facet normal 0 -1 0
    outer loop
      vertex 8 7.5 0
      vertex 50 7.5 10
      vertex 8 7.5 10
    endloop
  endfacet
  facet normal 0 -1 -0
    outer loop
      vertex 50 7.5 10
      vertex 8 7.5 0
      vertex 50 7.5 0
    endloop
  endfacet
  facet normal -0 0 1
    outer loop
      vertex 8 26.45 4.9
      vertex 50 13.55 4.9
      vertex 50 26.45 4.9
    endloop
  endfacet
  facet normal 0 0 1
    outer loop
      vertex 50 13.55 4.9
      vertex 8 26.45 4.9
      vertex 8 13.55 4.9
    endloop
  endfacet
  facet normal 0 -0.933348 -0.358973
    outer loop
      vertex 8 26.45 4.9
      vertex 50 24.4885 10
      vertex 8 24.4885 10
    endloop
  endfacet
  facet normal 0 -0.933348 -0.358973
    outer loop
      vertex 50 24.4885 10
      vertex 8 26.45 4.9
      vertex 50 26.45 4.9
    endloop
  endfacet
  facet normal 0 0.933348 -0.358973
    outer loop
      vertex 50 13.55 4.9
      vertex 8 15.5115 10
      vertex 50 15.5115 10
    endloop
  endfacet
  facet normal 0 0.933348 -0.358973
    outer loop
      vertex 8 15.5115 10
      vertex 50 13.55 4.9
      vertex 8 13.55 4.9
    endloop
  endfacet
  facet normal 1 -0 0
    outer loop
      vertex 50 61.5 3
      vertex 50 67 0
      vertex 50 67 3
    endloop
  endfacet
  facet normal 1 -0 0
    outer loop
      vertex 50 50.5 8
      vertex 50 61.5 3
      vertex 50 59.5 8
    endloop
  endfacet
  facet normal 1 0 0
    outer loop
      vertex 50 48.5 3
      vertex 50 61.5 3
      vertex 50 50.5 8
    endloop
  endfacet
  facet normal 1 0 0
    outer loop
      vertex 50 61.5 3
      vertex 50 48.5 3
      vertex 50 67 0
    endloop
  endfacet
  facet normal 1 0 0
    outer loop
      vertex 50 43 0
      vertex 50 48.5 3
      vertex 50 43 3
    endloop
  endfacet
  facet normal 1 0 0
    outer loop
      vertex 50 48.5 3
      vertex 50 43 0
      vertex 50 67 0
    endloop
  endfacet
  facet normal -0 0 1
    outer loop
      vertex 8 67 3
      vertex 50 61.5 3
      vertex 50 67 3
    endloop
  endfacet
  facet normal 0 0 1
    outer loop
      vertex 50 61.5 3
      vertex 8 67 3
      vertex 8 61.5 3
    endloop
  endfacet
  facet normal -0 0 1
    outer loop
      vertex 8 48.5 3
      vertex 50 43 3
      vertex 50 48.5 3
    endloop
  endfacet
  facet normal 0 0 1
    outer loop
      vertex 50 43 3
      vertex 8 48.5 3
      vertex 8 43 3
    endloop
  endfacet
  facet normal 0 0 -1
    outer loop
      vertex 8 43 0
      vertex 50 67 0
      vertex 50 43 0
    endloop
  endfacet
  facet normal -0 0 -1
    outer loop
      vertex 50 67 0
      vertex 8 43 0
      vertex 8 67 0
    endloop
  endfacet
  facet normal -1 0 0
    outer loop
      vertex 8 67 0
      vertex 8 61.5 3
      vertex 8 67 3
    endloop
  endfacet
  facet normal -1 0 0
    outer loop
      vertex 8 61.5 3
      vertex 8 50.5 8
      vertex 8 59.5 8
    endloop
  endfacet
  facet normal -1 0 0
    outer loop
      vertex 8 48.5 3
      vertex 8 61.5 3
      vertex 8 67 0
    endloop
  endfacet
  facet normal -1 0 0
    outer loop
      vertex 8 61.5 3
      vertex 8 48.5 3
      vertex 8 50.5 8
    endloop
  endfacet
  facet normal -1 0 0
    outer loop
      vertex 8 43 0
      vertex 8 48.5 3
      vertex 8 67 0
    endloop
  endfacet
  facet normal -1 -0 0
    outer loop
      vertex 8 48.5 3
      vertex 8 43 0
      vertex 8 43 3
    endloop
  endfacet
  facet normal 0 1 -0
    outer loop
      vertex 50 67 0
      vertex 8 67 3
      vertex 50 67 3
    endloop
  endfacet
  facet normal 0 1 0
    outer loop
      vertex 8 67 3
      vertex 50 67 0
      vertex 8 67 0
    endloop
  endfacet
  facet normal 0 -1 0
    outer loop
      vertex 8 43 0
      vertex 50 43 3
      vertex 8 43 3
    endloop
  endfacet
  facet normal 0 -1 -0
    outer loop
      vertex 50 43 3
      vertex 8 43 0
      vertex 50 43 0
    endloop
  endfacet
  facet normal 0 0.928477 0.371391
    outer loop
      vertex 50 61.5 3
      vertex 8 59.5 8
      vertex 50 59.5 8
    endloop
  endfacet
  facet normal 0 0.928477 0.371391
    outer loop
      vertex 8 59.5 8
      vertex 50 61.5 3
      vertex 8 61.5 3
    endloop
  endfacet
  facet normal -0 0 1
    outer loop
      vertex 8 59.5 8
      vertex 50 50.5 8
      vertex 50 59.5 8
    endloop
  endfacet
  facet normal 0 0 1
    outer loop
      vertex 50 50.5 8
      vertex 8 59.5 8
      vertex 8 50.5 8
    endloop
  endfacet
  facet normal 0 -0.928477 0.371391
    outer loop
      vertex 8 48.5 3
      vertex 50 50.5 8
      vertex 8 50.5 8
    endloop
  endfacet
  facet normal 0 -0.928477 0.371391
    outer loop
      vertex 50 50.5 8
      vertex 8 48.5 3
      vertex 50 48.5 3
    endloop
  endfacet
endsolid OpenSCAD_Model
