solid OpenSCAD_Model
  facet normal 1 0 0
    outer loop
      vertex 78 27 10
      vertex 78 13 10
      vertex 78 27 3
    endloop
  endfacet
  facet normal 1 -0 0
    outer loop
      vertex 78 27 3
      vertex 78 30 0
      vertex 78 30 3
    endloop
  endfacet
  facet normal 1 0 0
    outer loop
      vertex 78 13 3
      vertex 78 27 3
      vertex 78 13 10
    endloop
  endfacet
  facet normal 1 0 0
    outer loop
      vertex 78 27 3
      vertex 78 13 3
      vertex 78 30 0
    endloop
  endfacet
  facet normal 1 0 0
    outer loop
      vertex 78 10 0
      vertex 78 13 3
      vertex 78 10 3
    endloop
  endfacet
  facet normal 1 0 0
    outer loop
      vertex 78 13 3
      vertex 78 10 0
      vertex 78 30 0
    endloop
  endfacet
  facet normal -0 0 1
    outer loop
      vertex 8 27 10
      vertex 78 13 10
      vertex 78 27 10
    endloop
  endfacet
  facet normal 0 0 1
    outer loop
      vertex 78 13 10
      vertex 8 27 10
      vertex 8 13 10
    endloop
  endfacet
  facet normal 0 0 -1
    outer loop
      vertex 8 10 0
      vertex 78 30 0
      vertex 78 10 0
    endloop
  endfacet
  facet normal -0 0 -1
    outer loop
      vertex 78 30 0
      vertex 8 10 0
      vertex 8 30 0
    endloop
  endfacet
  facet normal -1 0 0
    outer loop
      vertex 8 30 0
      vertex 8 27 3
      vertex 8 30 3
    endloop
  endfacet
  facet normal -1 0 0
    outer loop
      vertex 8 27 3
      vertex 8 13 3
      vertex 8 27 10
    endloop
  endfacet
  facet normal -1 0 0
    outer loop
      vertex 8 30 0
      vertex 8 13 3
      vertex 8 27 3
    endloop
  endfacet
  facet normal -1 0 0
    outer loop
      vertex 8 10 0
      vertex 8 13 3
      vertex 8 30 0
    endloop
  endfacet
  facet normal -1 -0 0
    outer loop
      vertex 8 13 3
      vertex 8 10 0
      vertex 8 10 3
    endloop
  endfacet
  facet normal -1 -0 0
    outer loop
      vertex 8 27 10
      vertex 8 13 3
      vertex 8 13 10
    endloop
  endfacet
  facet normal 0 1 -0
    outer loop
      vertex 78 27 3
      vertex 8 27 10
      vertex 78 27 10
    endloop
  endfacet
  facet normal 0 1 0
    outer loop
      vertex 8 27 10
      vertex 78 27 3
      vertex 8 27 3
    endloop
  endfacet
  facet normal 0 -1 0
    outer loop
      vertex 8 13 3
      vertex 78 13 10
      vertex 8 13 10
    endloop
  endfacet
  facet normal 0 -1 -0
    outer loop
      vertex 78 13 10
      vertex 8 13 3
      vertex 78 13 3
    endloop
  endfacet
  facet normal -0 0 1
    outer loop
      vertex 8 30 3
      vertex 78 27 3
      vertex 78 30 3
    endloop
  endfacet
  facet normal 0 0 1
    outer loop
      vertex 78 27 3
      vertex 8 30 3
      vertex 8 27 3
    endloop
  endfacet
  facet normal -0 0 1
    outer loop
      vertex 8 13 3
      vertex 78 10 3
      vertex 78 13 3
    endloop
  endfacet
  facet normal 0 0 1
    outer loop
      vertex 78 10 3
      vertex 8 13 3
      vertex 8 10 3
    endloop
  endfacet
  facet normal 0 1 -0
    outer loop
      vertex 78 30 0
      vertex 8 30 3
      vertex 78 30 3
    endloop
  endfacet
  facet normal 0 1 0
    outer loop
      vertex 8 30 3
      vertex 78 30 0
      vertex 8 30 0
    endloop
  endfacet
  facet normal 0 -1 0
    outer loop
      vertex 8 10 0
      vertex 78 10 3
      vertex 8 10 3
    endloop
  endfacet
  facet normal 0 -1 -0
    outer loop
      vertex 78 10 3
      vertex 8 10 0
      vertex 78 10 0
    endloop
  endfacet
  facet normal -1 0 0
    outer loop
      vertex 32 65.25 13.35
      vertex 32 66.75 0
      vertex 32 65.25 2.9
    endloop
  endfacet
  facet normal -1 0 0
    outer loop
      vertex 32 66.75 0
      vertex 32 50.75 2.9
      vertex 32 65.25 2.9
    endloop
  endfacet
  facet normal -1 -0 0
    outer loop
      vertex 32 50.75 2.9
      vertex 32 49.25 0
      vertex 32 50.75 13.35
    endloop
  endfacet
  facet normal -1 0 0
    outer loop
      vertex 32 49.25 0
      vertex 32 50.75 2.9
      vertex 32 66.75 0
    endloop
  endfacet
  facet normal -1 0 0
    outer loop
      vertex 32 66.75 0
      vertex 32 65.25 13.35
      vertex 32 66.75 17
    endloop
  endfacet
  facet normal -1 0 0
    outer loop
      vertex 32 50.75 13.35
      vertex 32 66.75 17
      vertex 32 65.25 13.35
    endloop
  endfacet
  facet normal -1 0 0
    outer loop
      vertex 32 50.75 13.35
      vertex 32 49.25 17
      vertex 32 66.75 17
    endloop
  endfacet
  facet normal -1 0 0
    outer loop
      vertex 32 49.25 17
      vertex 32 50.75 13.35
      vertex 32 49.25 0
    endloop
  endfacet
  facet normal 0.946957 0.32136 0
    outer loop
      vertex 61.9148 67.397 17
      vertex 61.8097 67.7067 0
      vertex 61.8097 67.7067 17
    endloop
  endfacet
  facet normal 0.946957 0.32136 0
    outer loop
      vertex 61.8097 67.7067 0
      vertex 61.9148 67.397 17
      vertex 61.9148 67.397 0
    endloop
  endfacet
  facet normal 0 1 -0
    outer loop
      vertex 59.5 69.25 0
      vertex 34.5 69.25 17
      vertex 59.5 69.25 17
    endloop
  endfacet
  facet normal 0 1 0
    outer loop
      vertex 34.5 69.25 17
      vertex 59.5 69.25 0
      vertex 34.5 69.25 0
    endloop
  endfacet
  facet normal -0.555617 -0.831438 0
    outer loop
      vertex 32.9781 47.2666 0
      vertex 33.25 47.0849 17
      vertex 32.9781 47.2666 17
    endloop
  endfacet
  facet normal -0.555617 -0.831438 -0
    outer loop
      vertex 33.25 47.0849 17
      vertex 32.9781 47.2666 0
      vertex 33.25 47.0849 0
    endloop
  endfacet
  facet normal 1 0 0
    outer loop
      vertex 62 66.75 17
      vertex 62 65.25 13.35
      vertex 62 66.75 0
    endloop
  endfacet
  facet normal 1 0 0
    outer loop
      vertex 62 66.75 17
      vertex 62 50.75 13.35
      vertex 62 65.25 13.35
    endloop
  endfacet
  facet normal 1 0 0
    outer loop
      vertex 62 49.25 0
      vertex 62 50.75 13.35
      vertex 62 49.25 17
    endloop
  endfacet
  facet normal 1 -0 0
    outer loop
      vertex 62 49.25 17
      vertex 62 50.75 13.35
      vertex 62 66.75 17
    endloop
  endfacet
  facet normal 1 -0 0
    outer loop
      vertex 62 65.25 2.9
      vertex 62 66.75 0
      vertex 62 65.25 13.35
    endloop
  endfacet
  facet normal 1 -0 0
    outer loop
      vertex 62 50.75 2.9
      vertex 62 66.75 0
      vertex 62 65.25 2.9
    endloop
  endfacet
  facet normal 1 0 0
    outer loop
      vertex 62 50.75 2.9
      vertex 62 49.25 0
      vertex 62 66.75 0
    endloop
  endfacet
  facet normal 1 0 0
    outer loop
      vertex 62 50.75 13.35
      vertex 62 49.25 0
      vertex 62 50.75 2.9
    endloop
  endfacet
  facet normal -0.946957 -0.32136 0
    outer loop
      vertex 32.1903 48.2933 0
      vertex 32.0852 48.603 17
      vertex 32.0852 48.603 0
    endloop
  endfacet
  facet normal -0.946957 -0.32136 0
    outer loop
      vertex 32.0852 48.603 17
      vertex 32.1903 48.2933 0
      vertex 32.1903 48.2933 17
    endloop
  endfacet
  facet normal 0.0654432 0.997856 -0
    outer loop
      vertex 59.8263 69.2286 0
      vertex 59.5 69.25 17
      vertex 59.8263 69.2286 17
    endloop
  endfacet
  facet normal 0.0654432 0.997856 0
    outer loop
      vertex 59.5 69.25 17
      vertex 59.8263 69.2286 0
      vertex 59.5 69.25 0
    endloop
  endfacet
  facet normal 0 -1 0
    outer loop
      vertex 34.5 46.75 0
      vertex 59.5 46.75 17
      vertex 34.5 46.75 17
    endloop
  endfacet
  facet normal 0 -1 -0
    outer loop
      vertex 59.5 46.75 17
      vertex 34.5 46.75 0
      vertex 59.5 46.75 0
    endloop
  endfacet
  facet normal -0.997856 0.0654432 0
    outer loop
      vertex 32 66.75 0
      vertex 32.0214 67.0763 17
      vertex 32.0214 67.0763 0
    endloop
  endfacet
  facet normal -0.997856 0.0654432 0
    outer loop
      vertex 32.0214 67.0763 17
      vertex 32 66.75 0
      vertex 32 66.75 17
    endloop
  endfacet
  facet normal -0.831438 -0.555617 0
    outer loop
      vertex 32.5166 47.7281 0
      vertex 32.3349 48 17
      vertex 32.3349 48 0
    endloop
  endfacet
  facet normal -0.831438 -0.555617 0
    outer loop
      vertex 32.3349 48 17
      vertex 32.5166 47.7281 0
      vertex 32.5166 47.7281 17
    endloop
  endfacet
  facet normal 0.195116 -0.98078 0
    outer loop
      vertex 59.8263 46.7714 0
      vertex 60.147 46.8352 17
      vertex 59.8263 46.7714 17
    endloop
  endfacet
  facet normal 0.195116 -0.98078 0
    outer loop
      vertex 60.147 46.8352 17
      vertex 59.8263 46.7714 0
      vertex 60.147 46.8352 0
    endloop
  endfacet
  facet normal 0.659262 0.751913 -0
    outer loop
      vertex 61.2678 68.5178 0
      vertex 61.0219 68.7334 17
      vertex 61.2678 68.5178 17
    endloop
  endfacet
  facet normal 0.659262 0.751913 0
    outer loop
      vertex 61.0219 68.7334 17
      vertex 61.2678 68.5178 0
      vertex 61.0219 68.7334 0
    endloop
  endfacet
  facet normal 0.946957 -0.32136 0
    outer loop
      vertex 61.8097 48.2933 17
      vertex 61.9148 48.603 0
      vertex 61.9148 48.603 17
    endloop
  endfacet
  facet normal 0.946957 -0.32136 0
    outer loop
      vertex 61.9148 48.603 0
      vertex 61.8097 48.2933 17
      vertex 61.8097 48.2933 0
    endloop
  endfacet
  facet normal -0.751913 0.659262 0
    outer loop
      vertex 32.5166 68.2719 0
      vertex 32.7322 68.5178 17
      vertex 32.7322 68.5178 0
    endloop
  endfacet
  facet normal -0.751913 0.659262 0
    outer loop
      vertex 32.7322 68.5178 17
      vertex 32.5166 68.2719 0
      vertex 32.5166 68.2719 17
    endloop
  endfacet
  facet normal -0.98078 0.195116 0
    outer loop
      vertex 32.0214 67.0763 0
      vertex 32.0852 67.397 17
      vertex 32.0852 67.397 0
    endloop
  endfacet
  facet normal -0.98078 0.195116 0
    outer loop
      vertex 32.0852 67.397 17
      vertex 32.0214 67.0763 0
      vertex 32.0214 67.0763 17
    endloop
  endfacet
  facet normal 0.751913 0.659262 0
    outer loop
      vertex 61.4834 68.2719 17
      vertex 61.2678 68.5178 0
      vertex 61.2678 68.5178 17
    endloop
  endfacet
  facet normal 0.751913 0.659262 0
    outer loop
      vertex 61.2678 68.5178 0
      vertex 61.4834 68.2719 17
      vertex 61.4834 68.2719 0
    endloop
  endfacet
  facet normal -0.751913 -0.659262 0
    outer loop
      vertex 32.7322 47.4822 0
      vertex 32.5166 47.7281 17
      vertex 32.5166 47.7281 0
    endloop
  endfacet
  facet normal -0.751913 -0.659262 0
    outer loop
      vertex 32.5166 47.7281 17
      vertex 32.7322 47.4822 0
      vertex 32.7322 47.4822 17
    endloop
  endfacet
  facet normal -0.896921 -0.442191 0
    outer loop
      vertex 32.3349 48 0
      vertex 32.1903 48.2933 17
      vertex 32.1903 48.2933 0
    endloop
  endfacet
  facet normal -0.896921 -0.442191 0
    outer loop
      vertex 32.1903 48.2933 17
      vertex 32.3349 48 0
      vertex 32.3349 48 17
    endloop
  endfacet
  facet normal 0 0 -1
    outer loop
      vertex 59.5 46.75 0
      vertex 62 49.25 0
      vertex 61.9786 48.9237 0
    endloop
  endfacet
  facet normal -0 0 -1
    outer loop
      vertex 62 49.25 0
      vertex 59.5 46.75 0
      vertex 62 66.75 0
    endloop
  endfacet
  facet normal 0 0 -1
    outer loop
      vertex 59.5 46.75 0
      vertex 61.9786 48.9237 0
      vertex 61.9148 48.603 0
    endloop
  endfacet
  facet normal 0 0 -1
    outer loop
      vertex 59.5 69.25 0
      vertex 62 66.75 0
      vertex 59.5 46.75 0
    endloop
  endfacet
  facet normal 0 0 -1
    outer loop
      vertex 59.5 46.75 0
      vertex 61.9148 48.603 0
      vertex 61.8097 48.2933 0
    endloop
  endfacet
  facet normal 0 0 -1
    outer loop
      vertex 62 66.75 0
      vertex 59.5 69.25 0
      vertex 61.9786 67.0763 0
    endloop
  endfacet
  facet normal 0 0 -1
    outer loop
      vertex 59.5 46.75 0
      vertex 61.8097 48.2933 0
      vertex 61.6651 48 0
    endloop
  endfacet
  facet normal 0 0 -1
    outer loop
      vertex 61.9786 67.0763 0
      vertex 59.5 69.25 0
      vertex 61.9148 67.397 0
    endloop
  endfacet
  facet normal 0 0 -1
    outer loop
      vertex 59.5 46.75 0
      vertex 61.6651 48 0
      vertex 61.4834 47.7281 0
    endloop
  endfacet
  facet normal 0 0 -1
    outer loop
      vertex 61.9148 67.397 0
      vertex 59.5 69.25 0
      vertex 61.8097 67.7067 0
    endloop
  endfacet
  facet normal 0 0 -1
    outer loop
      vertex 59.5 46.75 0
      vertex 61.4834 47.7281 0
      vertex 61.2678 47.4822 0
    endloop
  endfacet
  facet normal 0 0 -1
    outer loop
      vertex 61.8097 67.7067 0
      vertex 59.5 69.25 0
      vertex 61.6651 68 0
    endloop
  endfacet
  facet normal 0 0 -1
    outer loop
      vertex 59.5 46.75 0
      vertex 61.2678 47.4822 0
      vertex 61.0219 47.2666 0
    endloop
  endfacet
  facet normal 0 0 -1
    outer loop
      vertex 61.6651 68 0
      vertex 59.5 69.25 0
      vertex 61.4834 68.2719 0
    endloop
  endfacet
  facet normal 0 0 -1
    outer loop
      vertex 59.5 46.75 0
      vertex 61.0219 47.2666 0
      vertex 60.75 47.0849 0
    endloop
  endfacet
  facet normal 0 0 -1
    outer loop
      vertex 61.4834 68.2719 0
      vertex 59.5 69.25 0
      vertex 61.2678 68.5178 0
    endloop
  endfacet
  facet normal 0 0 -1
    outer loop
      vertex 59.5 46.75 0
      vertex 60.75 47.0849 0
      vertex 60.4567 46.9403 0
    endloop
  endfacet
  facet normal 0 0 -1
    outer loop
      vertex 61.2678 68.5178 0
      vertex 59.5 69.25 0
      vertex 61.0219 68.7334 0
    endloop
  endfacet
  facet normal 0 0 -1
    outer loop
      vertex 59.5 46.75 0
      vertex 60.4567 46.9403 0
      vertex 60.147 46.8352 0
    endloop
  endfacet
  facet normal 0 0 -1
    outer loop
      vertex 61.0219 68.7334 0
      vertex 59.5 69.25 0
      vertex 60.75 68.9151 0
    endloop
  endfacet
  facet normal 0 0 -1
    outer loop
      vertex 59.5 46.75 0
      vertex 60.147 46.8352 0
      vertex 59.8263 46.7714 0
    endloop
  endfacet
  facet normal 0 0 -1
    outer loop
      vertex 60.75 68.9151 0
      vertex 59.5 69.25 0
      vertex 60.4567 69.0597 0
    endloop
  endfacet
  facet normal 0 0 -1
    outer loop
      vertex 60.4567 69.0597 0
      vertex 59.5 69.25 0
      vertex 60.147 69.1648 0
    endloop
  endfacet
  facet normal 0 0 -1
    outer loop
      vertex 60.147 69.1648 0
      vertex 59.5 69.25 0
      vertex 59.8263 69.2286 0
    endloop
  endfacet
  facet normal 0 0 -1
    outer loop
      vertex 34.5 46.75 0
      vertex 59.5 69.25 0
      vertex 59.5 46.75 0
    endloop
  endfacet
  facet normal 0 0 -1
    outer loop
      vertex 34.5 46.75 0
      vertex 34.5 69.25 0
      vertex 59.5 69.25 0
    endloop
  endfacet
  facet normal 0 0 -1
    outer loop
      vertex 32 49.25 0
      vertex 34.5 46.75 0
      vertex 34.1737 46.7714 0
    endloop
  endfacet
  facet normal 0 0 -1
    outer loop
      vertex 34.5 46.75 0
      vertex 32 49.25 0
      vertex 34.5 69.25 0
    endloop
  endfacet
  facet normal 0 0 -1
    outer loop
      vertex 32 49.25 0
      vertex 34.1737 46.7714 0
      vertex 33.853 46.8352 0
    endloop
  endfacet
  facet normal 0 0 -1
    outer loop
      vertex 32 66.75 0
      vertex 34.5 69.25 0
      vertex 32 49.25 0
    endloop
  endfacet
  facet normal 0 0 -1
    outer loop
      vertex 32 49.25 0
      vertex 33.853 46.8352 0
      vertex 33.5433 46.9403 0
    endloop
  endfacet
  facet normal 0 0 -1
    outer loop
      vertex 34.5 69.25 0
      vertex 32 66.75 0
      vertex 34.1737 69.2286 0
    endloop
  endfacet
  facet normal 0 0 -1
    outer loop
      vertex 32 49.25 0
      vertex 33.5433 46.9403 0
      vertex 33.25 47.0849 0
    endloop
  endfacet
  facet normal 0 0 -1
    outer loop
      vertex 34.1737 69.2286 0
      vertex 32 66.75 0
      vertex 33.853 69.1648 0
    endloop
  endfacet
  facet normal 0 0 -1
    outer loop
      vertex 32 49.25 0
      vertex 33.25 47.0849 0
      vertex 32.9781 47.2666 0
    endloop
  endfacet
  facet normal 0 0 -1
    outer loop
      vertex 33.853 69.1648 0
      vertex 32 66.75 0
      vertex 33.5433 69.0597 0
    endloop
  endfacet
  facet normal 0 0 -1
    outer loop
      vertex 32 49.25 0
      vertex 32.9781 47.2666 0
      vertex 32.7322 47.4822 0
    endloop
  endfacet
  facet normal 0 0 -1
    outer loop
      vertex 33.5433 69.0597 0
      vertex 32 66.75 0
      vertex 33.25 68.9151 0
    endloop
  endfacet
  facet normal 0 0 -1
    outer loop
      vertex 32 49.25 0
      vertex 32.7322 47.4822 0
      vertex 32.5166 47.7281 0
    endloop
  endfacet
  facet normal 0 0 -1
    outer loop
      vertex 33.25 68.9151 0
      vertex 32 66.75 0
      vertex 32.9781 68.7334 0
    endloop
  endfacet
  facet normal 0 0 -1
    outer loop
      vertex 32 49.25 0
      vertex 32.5166 47.7281 0
      vertex 32.3349 48 0
    endloop
  endfacet
  facet normal 0 0 -1
    outer loop
      vertex 32.9781 68.7334 0
      vertex 32 66.75 0
      vertex 32.7322 68.5178 0
    endloop
  endfacet
  facet normal 0 0 -1
    outer loop
      vertex 32 49.25 0
      vertex 32.3349 48 0
      vertex 32.1903 48.2933 0
    endloop
  endfacet
  facet normal 0 0 -1
    outer loop
      vertex 32.7322 68.5178 0
      vertex 32 66.75 0
      vertex 32.5166 68.2719 0
    endloop
  endfacet
  facet normal 0 0 -1
    outer loop
      vertex 32 49.25 0
      vertex 32.1903 48.2933 0
      vertex 32.0852 48.603 0
    endloop
  endfacet
  facet normal 0 0 -1
    outer loop
      vertex 32.5166 68.2719 0
      vertex 32 66.75 0
      vertex 32.3349 68 0
    endloop
  endfacet
  facet normal 0 0 -1
    outer loop
      vertex 32 49.25 0
      vertex 32.0852 48.603 0
      vertex 32.0214 48.9237 0
    endloop
  endfacet
  facet normal 0 0 -1
    outer loop
      vertex 32.3349 68 0
      vertex 32 66.75 0
      vertex 32.1903 67.7067 0
    endloop
  endfacet
  facet normal 0 0 -1
    outer loop
      vertex 32.1903 67.7067 0
      vertex 32 66.75 0
      vertex 32.0852 67.397 0
    endloop
  endfacet
  facet normal 0 0 -1
    outer loop
      vertex 32.0852 67.397 0
      vertex 32 66.75 0
      vertex 32.0214 67.0763 0
    endloop
  endfacet
  facet normal 0.0654432 -0.997856 0
    outer loop
      vertex 59.5 46.75 0
      vertex 59.8263 46.7714 17
      vertex 59.5 46.75 17
    endloop
  endfacet
  facet normal 0.0654432 -0.997856 0
    outer loop
      vertex 59.8263 46.7714 17
      vertex 59.5 46.75 0
      vertex 59.8263 46.7714 0
    endloop
  endfacet
  facet normal 0.831438 0.555617 0
    outer loop
      vertex 61.6651 68 17
      vertex 61.4834 68.2719 0
      vertex 61.4834 68.2719 17
    endloop
  endfacet
  facet normal 0.831438 0.555617 0
    outer loop
      vertex 61.4834 68.2719 0
      vertex 61.6651 68 17
      vertex 61.6651 68 0
    endloop
  endfacet
  facet normal 0 0 1
    outer loop
      vertex 59.5 69.25 17
      vertex 62 66.75 17
      vertex 61.9786 67.0763 17
    endloop
  endfacet
  facet normal 0 0 1
    outer loop
      vertex 62 66.75 17
      vertex 59.5 69.25 17
      vertex 62 49.25 17
    endloop
  endfacet
  facet normal 0 0 1
    outer loop
      vertex 59.5 69.25 17
      vertex 61.9786 67.0763 17
      vertex 61.9148 67.397 17
    endloop
  endfacet
  facet normal 0 0 1
    outer loop
      vertex 59.5 46.75 17
      vertex 62 49.25 17
      vertex 59.5 69.25 17
    endloop
  endfacet
  facet normal 0 0 1
    outer loop
      vertex 59.5 69.25 17
      vertex 61.9148 67.397 17
      vertex 61.8097 67.7067 17
    endloop
  endfacet
  facet normal 0 0 1
    outer loop
      vertex 62 49.25 17
      vertex 59.5 46.75 17
      vertex 61.9786 48.9237 17
    endloop
  endfacet
  facet normal 0 0 1
    outer loop
      vertex 59.5 69.25 17
      vertex 61.8097 67.7067 17
      vertex 61.6651 68 17
    endloop
  endfacet
  facet normal 0 0 1
    outer loop
      vertex 61.9786 48.9237 17
      vertex 59.5 46.75 17
      vertex 61.9148 48.603 17
    endloop
  endfacet
  facet normal 0 0 1
    outer loop
      vertex 59.5 69.25 17
      vertex 61.6651 68 17
      vertex 61.4834 68.2719 17
    endloop
  endfacet
  facet normal 0 0 1
    outer loop
      vertex 61.9148 48.603 17
      vertex 59.5 46.75 17
      vertex 61.8097 48.2933 17
    endloop
  endfacet
  facet normal 0 0 1
    outer loop
      vertex 59.5 69.25 17
      vertex 61.4834 68.2719 17
      vertex 61.2678 68.5178 17
    endloop
  endfacet
  facet normal 0 0 1
    outer loop
      vertex 61.8097 48.2933 17
      vertex 59.5 46.75 17
      vertex 61.6651 48 17
    endloop
  endfacet
  facet normal 0 0 1
    outer loop
      vertex 59.5 69.25 17
      vertex 61.2678 68.5178 17
      vertex 61.0219 68.7334 17
    endloop
  endfacet
  facet normal 0 0 1
    outer loop
      vertex 61.6651 48 17
      vertex 59.5 46.75 17
      vertex 61.4834 47.7281 17
    endloop
  endfacet
  facet normal 0 0 1
    outer loop
      vertex 59.5 69.25 17
      vertex 61.0219 68.7334 17
      vertex 60.75 68.9151 17
    endloop
  endfacet
  facet normal 0 0 1
    outer loop
      vertex 61.4834 47.7281 17
      vertex 59.5 46.75 17
      vertex 61.2678 47.4822 17
    endloop
  endfacet
  facet normal 0 0 1
    outer loop
      vertex 59.5 69.25 17
      vertex 60.75 68.9151 17
      vertex 60.4567 69.0597 17
    endloop
  endfacet
  facet normal 0 0 1
    outer loop
      vertex 61.2678 47.4822 17
      vertex 59.5 46.75 17
      vertex 61.0219 47.2666 17
    endloop
  endfacet
  facet normal 0 0 1
    outer loop
      vertex 59.5 69.25 17
      vertex 60.4567 69.0597 17
      vertex 60.147 69.1648 17
    endloop
  endfacet
  facet normal 0 0 1
    outer loop
      vertex 61.0219 47.2666 17
      vertex 59.5 46.75 17
      vertex 60.75 47.0849 17
    endloop
  endfacet
  facet normal 0 0 1
    outer loop
      vertex 59.5 69.25 17
      vertex 60.147 69.1648 17
      vertex 59.8263 69.2286 17
    endloop
  endfacet
  facet normal 0 0 1
    outer loop
      vertex 60.75 47.0849 17
      vertex 59.5 46.75 17
      vertex 60.4567 46.9403 17
    endloop
  endfacet
  facet normal 0 0 1
    outer loop
      vertex 60.4567 46.9403 17
      vertex 59.5 46.75 17
      vertex 60.147 46.8352 17
    endloop
  endfacet
  facet normal 0 0 1
    outer loop
      vertex 60.147 46.8352 17
      vertex 59.5 46.75 17
      vertex 59.8263 46.7714 17
    endloop
  endfacet
  facet normal -0 0 1
    outer loop
      vertex 34.5 69.25 17
      vertex 59.5 46.75 17
      vertex 59.5 69.25 17
    endloop
  endfacet
  facet normal 0 0 1
    outer loop
      vertex 34.5 69.25 17
      vertex 34.5 46.75 17
      vertex 59.5 46.75 17
    endloop
  endfacet
  facet normal 0 0 1
    outer loop
      vertex 32 66.75 17
      vertex 34.5 69.25 17
      vertex 34.1737 69.2286 17
    endloop
  endfacet
  facet normal 0 0 1
    outer loop
      vertex 34.5 69.25 17
      vertex 32 66.75 17
      vertex 34.5 46.75 17
    endloop
  endfacet
  facet normal 0 0 1
    outer loop
      vertex 32 66.75 17
      vertex 34.1737 69.2286 17
      vertex 33.853 69.1648 17
    endloop
  endfacet
  facet normal -0 0 1
    outer loop
      vertex 32 49.25 17
      vertex 34.5 46.75 17
      vertex 32 66.75 17
    endloop
  endfacet
  facet normal 0 0 1
    outer loop
      vertex 32 66.75 17
      vertex 33.853 69.1648 17
      vertex 33.5433 69.0597 17
    endloop
  endfacet
  facet normal 0 0 1
    outer loop
      vertex 34.5 46.75 17
      vertex 32 49.25 17
      vertex 34.1737 46.7714 17
    endloop
  endfacet
  facet normal 0 0 1
    outer loop
      vertex 32 66.75 17
      vertex 33.5433 69.0597 17
      vertex 33.25 68.9151 17
    endloop
  endfacet
  facet normal 0 0 1
    outer loop
      vertex 34.1737 46.7714 17
      vertex 32 49.25 17
      vertex 33.853 46.8352 17
    endloop
  endfacet
  facet normal 0 0 1
    outer loop
      vertex 32 66.75 17
      vertex 33.25 68.9151 17
      vertex 32.9781 68.7334 17
    endloop
  endfacet
  facet normal 0 0 1
    outer loop
      vertex 33.853 46.8352 17
      vertex 32 49.25 17
      vertex 33.5433 46.9403 17
    endloop
  endfacet
  facet normal 0 0 1
    outer loop
      vertex 32 66.75 17
      vertex 32.9781 68.7334 17
      vertex 32.7322 68.5178 17
    endloop
  endfacet
  facet normal 0 0 1
    outer loop
      vertex 33.5433 46.9403 17
      vertex 32 49.25 17
      vertex 33.25 47.0849 17
    endloop
  endfacet
  facet normal 0 0 1
    outer loop
      vertex 32 66.75 17
      vertex 32.7322 68.5178 17
      vertex 32.5166 68.2719 17
    endloop
  endfacet
  facet normal 0 0 1
    outer loop
      vertex 33.25 47.0849 17
      vertex 32 49.25 17
      vertex 32.9781 47.2666 17
    endloop
  endfacet
  facet normal 0 0 1
    outer loop
      vertex 32 66.75 17
      vertex 32.5166 68.2719 17
      vertex 32.3349 68 17
    endloop
  endfacet
  facet normal 0 0 1
    outer loop
      vertex 32.9781 47.2666 17
      vertex 32 49.25 17
      vertex 32.7322 47.4822 17
    endloop
  endfacet
  facet normal 0 0 1
    outer loop
      vertex 32 66.75 17
      vertex 32.3349 68 17
      vertex 32.1903 67.7067 17
    endloop
  endfacet
  facet normal 0 0 1
    outer loop
      vertex 32.7322 47.4822 17
      vertex 32 49.25 17
      vertex 32.5166 47.7281 17
    endloop
  endfacet
  facet normal 0 0 1
    outer loop
      vertex 32 66.75 17
      vertex 32.1903 67.7067 17
      vertex 32.0852 67.397 17
    endloop
  endfacet
  facet normal 0 0 1
    outer loop
      vertex 32.5166 47.7281 17
      vertex 32 49.25 17
      vertex 32.3349 48 17
    endloop
  endfacet
  facet normal 0 0 1
    outer loop
      vertex 32 66.75 17
      vertex 32.0852 67.397 17
      vertex 32.0214 67.0763 17
    endloop
  endfacet
  facet normal 0 0 1
    outer loop
      vertex 32.3349 48 17
      vertex 32 49.25 17
      vertex 32.1903 48.2933 17
    endloop
  endfacet
  facet normal 0 0 1
    outer loop
      vertex 32.1903 48.2933 17
      vertex 32 49.25 17
      vertex 32.0852 48.603 17
    endloop
  endfacet
  facet normal 0 0 1
    outer loop
      vertex 32.0852 48.603 17
      vertex 32 49.25 17
      vertex 32.0214 48.9237 17
    endloop
  endfacet
  facet normal 0.896921 0.442191 0
    outer loop
      vertex 61.8097 67.7067 17
      vertex 61.6651 68 0
      vertex 61.6651 68 17
    endloop
  endfacet
  facet normal 0.896921 0.442191 0
    outer loop
      vertex 61.6651 68 0
      vertex 61.8097 67.7067 17
      vertex 61.8097 67.7067 0
    endloop
  endfacet
  facet normal 0.442191 -0.896921 0
    outer loop
      vertex 60.4567 46.9403 0
      vertex 60.75 47.0849 17
      vertex 60.4567 46.9403 17
    endloop
  endfacet
  facet normal 0.442191 -0.896921 0
    outer loop
      vertex 60.75 47.0849 17
      vertex 60.4567 46.9403 0
      vertex 60.75 47.0849 0
    endloop
  endfacet
  facet normal 0.997856 0.0654432 0
    outer loop
      vertex 62 66.75 17
      vertex 61.9786 67.0763 0
      vertex 61.9786 67.0763 17
    endloop
  endfacet
  facet normal 0.997856 0.0654432 0
    outer loop
      vertex 61.9786 67.0763 0
      vertex 62 66.75 17
      vertex 62 66.75 0
    endloop
  endfacet
  facet normal -0.0654432 -0.997856 0
    outer loop
      vertex 34.1737 46.7714 0
      vertex 34.5 46.75 17
      vertex 34.1737 46.7714 17
    endloop
  endfacet
  facet normal -0.0654432 -0.997856 -0
    outer loop
      vertex 34.5 46.75 17
      vertex 34.1737 46.7714 0
      vertex 34.5 46.75 0
    endloop
  endfacet
  facet normal -0.0654432 0.997856 0
    outer loop
      vertex 34.5 69.25 0
      vertex 34.1737 69.2286 17
      vertex 34.5 69.25 17
    endloop
  endfacet
  facet normal -0.0654432 0.997856 0
    outer loop
      vertex 34.1737 69.2286 17
      vertex 34.5 69.25 0
      vertex 34.1737 69.2286 0
    endloop
  endfacet
  facet normal -0.32136 0.946957 0
    outer loop
      vertex 33.853 69.1648 0
      vertex 33.5433 69.0597 17
      vertex 33.853 69.1648 17
    endloop
  endfacet
  facet normal -0.32136 0.946957 0
    outer loop
      vertex 33.5433 69.0597 17
      vertex 33.853 69.1648 0
      vertex 33.5433 69.0597 0
    endloop
  endfacet
  facet normal 0.896921 -0.442191 0
    outer loop
      vertex 61.6651 48 17
      vertex 61.8097 48.2933 0
      vertex 61.8097 48.2933 17
    endloop
  endfacet
  facet normal 0.896921 -0.442191 0
    outer loop
      vertex 61.8097 48.2933 0
      vertex 61.6651 48 17
      vertex 61.6651 48 0
    endloop
  endfacet
  facet normal -0.195116 0.98078 0
    outer loop
      vertex 34.1737 69.2286 0
      vertex 33.853 69.1648 17
      vertex 34.1737 69.2286 17
    endloop
  endfacet
  facet normal -0.195116 0.98078 0
    outer loop
      vertex 33.853 69.1648 17
      vertex 34.1737 69.2286 0
      vertex 33.853 69.1648 0
    endloop
  endfacet
  facet normal 0.32136 0.946957 -0
    outer loop
      vertex 60.4567 69.0597 0
      vertex 60.147 69.1648 17
      vertex 60.4567 69.0597 17
    endloop
  endfacet
  facet normal 0.32136 0.946957 0
    outer loop
      vertex 60.147 69.1648 17
      vertex 60.4567 69.0597 0
      vertex 60.147 69.1648 0
    endloop
  endfacet
  facet normal -0.32136 -0.946957 0
    outer loop
      vertex 33.5433 46.9403 0
      vertex 33.853 46.8352 17
      vertex 33.5433 46.9403 17
    endloop
  endfacet
  facet normal -0.32136 -0.946957 -0
    outer loop
      vertex 33.853 46.8352 17
      vertex 33.5433 46.9403 0
      vertex 33.853 46.8352 0
    endloop
  endfacet
  facet normal -0.659262 0.751913 0
    outer loop
      vertex 32.9781 68.7334 0
      vertex 32.7322 68.5178 17
      vertex 32.9781 68.7334 17
    endloop
  endfacet
  facet normal -0.659262 0.751913 0
    outer loop
      vertex 32.7322 68.5178 17
      vertex 32.9781 68.7334 0
      vertex 32.7322 68.5178 0
    endloop
  endfacet
  facet normal 0.659262 -0.751913 0
    outer loop
      vertex 61.0219 47.2666 0
      vertex 61.2678 47.4822 17
      vertex 61.0219 47.2666 17
    endloop
  endfacet
  facet normal 0.659262 -0.751913 0
    outer loop
      vertex 61.2678 47.4822 17
      vertex 61.0219 47.2666 0
      vertex 61.2678 47.4822 0
    endloop
  endfacet
  facet normal 0.32136 -0.946957 0
    outer loop
      vertex 60.147 46.8352 0
      vertex 60.4567 46.9403 17
      vertex 60.147 46.8352 17
    endloop
  endfacet
  facet normal 0.32136 -0.946957 0
    outer loop
      vertex 60.4567 46.9403 17
      vertex 60.147 46.8352 0
      vertex 60.4567 46.9403 0
    endloop
  endfacet
  facet normal 0.98078 0.195116 0
    outer loop
      vertex 61.9786 67.0763 17
      vertex 61.9148 67.397 0
      vertex 61.9148 67.397 17
    endloop
  endfacet
  facet normal 0.98078 0.195116 0
    outer loop
      vertex 61.9148 67.397 0
      vertex 61.9786 67.0763 17
      vertex 61.9786 67.0763 0
    endloop
  endfacet
  facet normal -0.997856 -0.0654432 0
    outer loop
      vertex 32.0214 48.9237 0
      vertex 32 49.25 17
      vertex 32 49.25 0
    endloop
  endfacet
  facet normal -0.997856 -0.0654432 0
    outer loop
      vertex 32 49.25 17
      vertex 32.0214 48.9237 0
      vertex 32.0214 48.9237 17
    endloop
  endfacet
  facet normal 0.195116 0.98078 -0
    outer loop
      vertex 60.147 69.1648 0
      vertex 59.8263 69.2286 17
      vertex 60.147 69.1648 17
    endloop
  endfacet
  facet normal 0.195116 0.98078 0
    outer loop
      vertex 59.8263 69.2286 17
      vertex 60.147 69.1648 0
      vertex 59.8263 69.2286 0
    endloop
  endfacet
  facet normal -0.195116 -0.98078 0
    outer loop
      vertex 33.853 46.8352 0
      vertex 34.1737 46.7714 17
      vertex 33.853 46.8352 17
    endloop
  endfacet
  facet normal -0.195116 -0.98078 -0
    outer loop
      vertex 34.1737 46.7714 17
      vertex 33.853 46.8352 0
      vertex 34.1737 46.7714 0
    endloop
  endfacet
  facet normal 0.997856 -0.0654432 0
    outer loop
      vertex 61.9786 48.9237 17
      vertex 62 49.25 0
      vertex 62 49.25 17
    endloop
  endfacet
  facet normal 0.997856 -0.0654432 0
    outer loop
      vertex 62 49.25 0
      vertex 61.9786 48.9237 17
      vertex 61.9786 48.9237 0
    endloop
  endfacet
  facet normal 0.555617 -0.831438 0
    outer loop
      vertex 60.75 47.0849 0
      vertex 61.0219 47.2666 17
      vertex 60.75 47.0849 17
    endloop
  endfacet
  facet normal 0.555617 -0.831438 0
    outer loop
      vertex 61.0219 47.2666 17
      vertex 60.75 47.0849 0
      vertex 61.0219 47.2666 0
    endloop
  endfacet
  facet normal 0.442191 0.896921 -0
    outer loop
      vertex 60.75 68.9151 0
      vertex 60.4567 69.0597 17
      vertex 60.75 68.9151 17
    endloop
  endfacet
  facet normal 0.442191 0.896921 0
    outer loop
      vertex 60.4567 69.0597 17
      vertex 60.75 68.9151 0
      vertex 60.4567 69.0597 0
    endloop
  endfacet
  facet normal -0.659262 -0.751913 0
    outer loop
      vertex 32.7322 47.4822 0
      vertex 32.9781 47.2666 17
      vertex 32.7322 47.4822 17
    endloop
  endfacet
  facet normal -0.659262 -0.751913 -0
    outer loop
      vertex 32.9781 47.2666 17
      vertex 32.7322 47.4822 0
      vertex 32.9781 47.2666 0
    endloop
  endfacet
  facet normal -0.442191 0.896921 0
    outer loop
      vertex 33.5433 69.0597 0
      vertex 33.25 68.9151 17
      vertex 33.5433 69.0597 17
    endloop
  endfacet
  facet normal -0.442191 0.896921 0
    outer loop
      vertex 33.25 68.9151 17
      vertex 33.5433 69.0597 0
      vertex 33.25 68.9151 0
    endloop
  endfacet
  facet normal -0.946957 0.32136 0
    outer loop
      vertex 32.0852 67.397 0
      vertex 32.1903 67.7067 17
      vertex 32.1903 67.7067 0
    endloop
  endfacet
  facet normal -0.946957 0.32136 0
    outer loop
      vertex 32.1903 67.7067 17
      vertex 32.0852 67.397 0
      vertex 32.0852 67.397 17
    endloop
  endfacet
  facet normal -0.896921 0.442191 0
    outer loop
      vertex 32.1903 67.7067 0
      vertex 32.3349 68 17
      vertex 32.3349 68 0
    endloop
  endfacet
  facet normal -0.896921 0.442191 0
    outer loop
      vertex 32.3349 68 17
      vertex 32.1903 67.7067 0
      vertex 32.1903 67.7067 17
    endloop
  endfacet
  facet normal 0.751913 -0.659262 0
    outer loop
      vertex 61.2678 47.4822 17
      vertex 61.4834 47.7281 0
      vertex 61.4834 47.7281 17
    endloop
  endfacet
  facet normal 0.751913 -0.659262 0
    outer loop
      vertex 61.4834 47.7281 0
      vertex 61.2678 47.4822 17
      vertex 61.2678 47.4822 0
    endloop
  endfacet
  facet normal -0.555617 0.831438 0
    outer loop
      vertex 33.25 68.9151 0
      vertex 32.9781 68.7334 17
      vertex 33.25 68.9151 17
    endloop
  endfacet
  facet normal -0.555617 0.831438 0
    outer loop
      vertex 32.9781 68.7334 17
      vertex 33.25 68.9151 0
      vertex 32.9781 68.7334 0
    endloop
  endfacet
  facet normal 0.831438 -0.555617 0
    outer loop
      vertex 61.4834 47.7281 17
      vertex 61.6651 48 0
      vertex 61.6651 48 17
    endloop
  endfacet
  facet normal 0.831438 -0.555617 0
    outer loop
      vertex 61.6651 48 0
      vertex 61.4834 47.7281 17
      vertex 61.4834 47.7281 0
    endloop
  endfacet
  facet normal 0.555617 0.831438 -0
    outer loop
      vertex 61.0219 68.7334 0
      vertex 60.75 68.9151 17
      vertex 61.0219 68.7334 17
    endloop
  endfacet
  facet normal 0.555617 0.831438 0
    outer loop
      vertex 60.75 68.9151 17
      vertex 61.0219 68.7334 0
      vertex 60.75 68.9151 0
    endloop
  endfacet
  facet normal -0.442191 -0.896921 0
    outer loop
      vertex 33.25 47.0849 0
      vertex 33.5433 46.9403 17
      vertex 33.25 47.0849 17
    endloop
  endfacet
  facet normal -0.442191 -0.896921 -0
    outer loop
      vertex 33.5433 46.9403 17
      vertex 33.25 47.0849 0
      vertex 33.5433 46.9403 0
    endloop
  endfacet
  facet normal 0.98078 -0.195116 0
    outer loop
      vertex 61.9148 48.603 17
      vertex 61.9786 48.9237 0
      vertex 61.9786 48.9237 17
    endloop
  endfacet
  facet normal 0.98078 -0.195116 0
    outer loop
      vertex 61.9786 48.9237 0
      vertex 61.9148 48.603 17
      vertex 61.9148 48.603 0
    endloop
  endfacet
  facet normal -0.98078 -0.195116 0
    outer loop
      vertex 32.0852 48.603 0
      vertex 32.0214 48.9237 17
      vertex 32.0214 48.9237 0
    endloop
  endfacet
  facet normal -0.98078 -0.195116 0
    outer loop
      vertex 32.0214 48.9237 17
      vertex 32.0852 48.603 0
      vertex 32.0852 48.603 17
    endloop
  endfacet
  facet normal -0.831438 0.555617 0
    outer loop
      vertex 32.3349 68 0
      vertex 32.5166 68.2719 17
      vertex 32.5166 68.2719 0
    endloop
  endfacet
  facet normal -0.831438 0.555617 0
    outer loop
      vertex 32.5166 68.2719 17
      vertex 32.3349 68 0
      vertex 32.3349 68 17
    endloop
  endfacet
  facet normal -1 0 0
    outer loop
      vertex 43 51.5 13.35
      vertex 43 64.5 16.8
      vertex 43 64.5 13.35
    endloop
  endfacet
  facet normal -1 -0 0
    outer loop
      vertex 43 64.5 16.8
      vertex 43 51.5 13.35
      vertex 43 51.5 16.8
    endloop
  endfacet
  facet normal 0 0 -1
    outer loop
      vertex 35 51.5 16.8
      vertex 43 64.5 16.8
      vertex 43 51.5 16.8
    endloop
  endfacet
  facet normal -0 0 -1
    outer loop
      vertex 43 64.5 16.8
      vertex 35 51.5 16.8
      vertex 35 64.5 16.8
    endloop
  endfacet
  facet normal 1 -0 0
    outer loop
      vertex 35 51.5 16.8
      vertex 35 64.5 13.35
      vertex 35 64.5 16.8
    endloop
  endfacet
  facet normal 1 0 0
    outer loop
      vertex 35 64.5 13.35
      vertex 35 51.5 16.8
      vertex 35 51.5 13.35
    endloop
  endfacet
  facet normal 0 -1 0
    outer loop
      vertex 35 64.5 13.35
      vertex 43 64.5 16.8
      vertex 35 64.5 16.8
    endloop
  endfacet
  facet normal 0 -1 -0
    outer loop
      vertex 43 64.5 16.8
      vertex 35 64.5 13.35
      vertex 43 64.5 13.35
    endloop
  endfacet
  facet normal 0 1 -0
    outer loop
      vertex 43 51.5 13.35
      vertex 35 51.5 16.8
      vertex 43 51.5 16.8
    endloop
  endfacet
  facet normal 0 1 0
    outer loop
      vertex 35 51.5 16.8
      vertex 43 51.5 13.35
      vertex 35 51.5 13.35
    endloop
  endfacet
  facet normal -1 0 0
    outer loop
      vertex 59 51.5 13.35
      vertex 59 64.5 16.8
      vertex 59 64.5 13.35
    endloop
  endfacet
  facet normal -1 -0 0
    outer loop
      vertex 59 64.5 16.8
      vertex 59 51.5 13.35
      vertex 59 51.5 16.8
    endloop
  endfacet
  facet normal 0 0 -1
    outer loop
      vertex 51 51.5 16.8
      vertex 59 64.5 16.8
      vertex 59 51.5 16.8
    endloop
  endfacet
  facet normal -0 0 -1
    outer loop
      vertex 59 64.5 16.8
      vertex 51 51.5 16.8
      vertex 51 64.5 16.8
    endloop
  endfacet
  facet normal 1 -0 0
    outer loop
      vertex 51 51.5 16.8
      vertex 51 64.5 13.35
      vertex 51 64.5 16.8
    endloop
  endfacet
  facet normal 1 0 0
    outer loop
      vertex 51 64.5 13.35
      vertex 51 51.5 16.8
      vertex 51 51.5 13.35
    endloop
  endfacet
  facet normal 0 -1 0
    outer loop
      vertex 51 64.5 13.35
      vertex 59 64.5 16.8
      vertex 51 64.5 16.8
    endloop
  endfacet
  facet normal 0 -1 -0
    outer loop
      vertex 59 64.5 16.8
      vertex 51 64.5 13.35
      vertex 59 64.5 13.35
    endloop
  endfacet
  facet normal 0 1 -0
    outer loop
      vertex 59 51.5 13.35
      vertex 51 51.5 16.8
      vertex 59 51.5 16.8
    endloop
  endfacet
  facet normal 0 1 0
    outer loop
      vertex 51 51.5 16.8
      vertex 59 51.5 13.35
      vertex 51 51.5 13.35
    endloop
  endfacet
  facet normal 0 0 -1
    outer loop
      vertex 62 50.75 13.35
      vertex 59 51.5 13.35
      vertex 62 65.25 13.35
    endloop
  endfacet
  facet normal 0 0 -1
    outer loop
      vertex 62 50.75 13.35
      vertex 51 51.5 13.35
      vertex 59 51.5 13.35
    endloop
  endfacet
  facet normal 0 0 -1
    outer loop
      vertex 51 51.5 13.35
      vertex 43 51.5 13.35
      vertex 51 64.5 13.35
    endloop
  endfacet
  facet normal 0 0 -1
    outer loop
      vertex 62 50.75 13.35
      vertex 43 51.5 13.35
      vertex 51 51.5 13.35
    endloop
  endfacet
  facet normal 0 0 -1
    outer loop
      vertex 32 50.75 13.35
      vertex 43 51.5 13.35
      vertex 62 50.75 13.35
    endloop
  endfacet
  facet normal -0 0 -1
    outer loop
      vertex 35 51.5 13.35
      vertex 32 50.75 13.35
      vertex 35 64.5 13.35
    endloop
  endfacet
  facet normal -0 0 -1
    outer loop
      vertex 43 51.5 13.35
      vertex 32 50.75 13.35
      vertex 35 51.5 13.35
    endloop
  endfacet
  facet normal 0 0 -1
    outer loop
      vertex 59 64.5 13.35
      vertex 62 65.25 13.35
      vertex 59 51.5 13.35
    endloop
  endfacet
  facet normal 0 0 -1
    outer loop
      vertex 51 64.5 13.35
      vertex 62 65.25 13.35
      vertex 59 64.5 13.35
    endloop
  endfacet
  facet normal 0 0 -1
    outer loop
      vertex 43 64.5 13.35
      vertex 51 64.5 13.35
      vertex 43 51.5 13.35
    endloop
  endfacet
  facet normal 0 0 -1
    outer loop
      vertex 43 64.5 13.35
      vertex 62 65.25 13.35
      vertex 51 64.5 13.35
    endloop
  endfacet
  facet normal 0 0 -1
    outer loop
      vertex 32 65.25 13.35
      vertex 43 64.5 13.35
      vertex 35 64.5 13.35
    endloop
  endfacet
  facet normal 0 0 -1
    outer loop
      vertex 43 64.5 13.35
      vertex 32 65.25 13.35
      vertex 62 65.25 13.35
    endloop
  endfacet
  facet normal 0 0 -1
    outer loop
      vertex 32 65.25 13.35
      vertex 35 64.5 13.35
      vertex 32 50.75 13.35
    endloop
  endfacet
  facet normal -0 0 1
    outer loop
      vertex 32 65.25 2.9
      vertex 62 50.75 2.9
      vertex 62 65.25 2.9
    endloop
  endfacet
  facet normal 0 0 1
    outer loop
      vertex 62 50.75 2.9
      vertex 32 65.25 2.9
      vertex 32 50.75 2.9
    endloop
  endfacet
  facet normal 0 -1 0
    outer loop
      vertex 32 65.25 2.9
      vertex 62 65.25 13.35
      vertex 32 65.25 13.35
    endloop
  endfacet
  facet normal 0 -1 -0
    outer loop
      vertex 62 65.25 13.35
      vertex 32 65.25 2.9
      vertex 62 65.25 2.9
    endloop
  endfacet
  facet normal 0 1 -0
    outer loop
      vertex 62 50.75 2.9
      vertex 32 50.75 13.35
      vertex 62 50.75 13.35
    endloop
  endfacet
  facet normal 0 1 0
    outer loop
      vertex 32 50.75 13.35
      vertex 62 50.75 2.9
      vertex 32 50.75 2.9
    endloop
  endfacet
endsolid OpenSCAD_Model
