  0
SECTION
  2
BLOCKS
  0
ENDSEC
  0
SECTION
  2
ENTITIES
  0
LINE
  8
0
 10
19.1409
 20
9.77843
 11
19.2048
 21
9.79558
  0
LINE
  8
0
 10
19.2048
 20
9.79558
 11
19.2633
 21
9.82419
  0
LINE
  8
0
 10
19.2633
 20
9.82419
 11
19.3166
 21
9.86423
  0
LINE
  8
0
 10
19.3166
 20
9.86423
 11
19.361
 21
9.91245
  0
LINE
  8
0
 10
19.361
 20
9.91245
 11
19.3926
 21
9.96558
  0
LINE
  8
0
 10
19.3926
 20
9.96558
 11
19.4117
 21
10.0236
  0
LINE
  8
0
 10
19.4117
 20
10.0236
 11
19.418
 21
10.0865
  0
LINE
  8
0
 10
19.418
 20
10.0865
 11
19.4117
 21
10.1495
  0
LINE
  8
0
 10
19.4117
 20
10.1495
 11
19.3926
 21
10.2075
  0
LINE
  8
0
 10
19.3926
 20
10.2075
 11
19.361
 21
10.2606
  0
LINE
  8
0
 10
19.361
 20
10.2606
 11
19.3166
 21
10.3088
  0
LINE
  8
0
 10
19.3166
 20
10.3088
 11
19.2633
 21
10.3489
  0
LINE
  8
0
 10
19.2633
 20
10.3489
 11
19.2048
 21
10.3775
  0
LINE
  8
0
 10
19.2048
 20
10.3775
 11
19.1409
 21
10.3946
  0
LINE
  8
0
 10
19.1409
 20
10.3946
 11
19.0719
 21
10.4004
  0
LINE
  8
0
 10
19.0719
 20
10.4004
 11
19.0036
 21
10.3946
  0
LINE
  8
0
 10
19.0036
 20
10.3946
 11
18.9404
 21
10.3775
  0
LINE
  8
0
 10
18.9404
 20
10.3775
 11
18.8822
 21
10.3489
  0
LINE
  8
0
 10
18.8822
 20
10.3489
 11
18.829
 21
10.3088
  0
LINE
  8
0
 10
18.829
 20
10.3088
 11
18.7846
 21
10.2606
  0
LINE
  8
0
 10
18.7846
 20
10.2606
 11
18.753
 21
10.2075
  0
LINE
  8
0
 10
18.753
 20
10.2075
 11
18.734
 21
10.1495
  0
LINE
  8
0
 10
18.734
 20
10.1495
 11
18.7276
 21
10.0865
  0
LINE
  8
0
 10
18.7276
 20
10.0865
 11
18.734
 21
10.0236
  0
LINE
  8
0
 10
18.734
 20
10.0236
 11
18.753
 21
9.96558
  0
LINE
  8
0
 10
18.753
 20
9.96558
 11
18.7846
 21
9.91245
  0
LINE
  8
0
 10
18.7846
 20
9.91245
 11
18.829
 21
9.86423
  0
LINE
  8
0
 10
18.829
 20
9.86423
 11
18.8822
 21
9.82419
  0
LINE
  8
0
 10
18.8822
 20
9.82419
 11
18.9404
 21
9.79558
  0
LINE
  8
0
 10
18.9404
 20
9.79558
 11
19.0036
 21
9.77843
  0
LINE
  8
0
 10
19.0036
 20
9.77843
 11
19.0719
 21
9.77271
  0
LINE
  8
0
 10
19.0719
 20
9.77271
 11
19.1409
 21
9.77843
  0
LINE
  8
0
 10
4.47058
 20
3.3815
 11
4.47058
 21
7.53613
  0
LINE
  8
0
 10
4.47058
 20
7.53613
 11
8.22185
 21
9.9563
  0
LINE
  8
0
 10
8.22185
 20
9.9563
 11
8.17888
 21
9.99774
  0
LINE
  8
0
 10
8.17888
 20
9.99774
 11
8.13472
 21
10.0373
  0
LINE
  8
0
 10
8.13472
 20
10.0373
 11
8.08934
 21
10.075
  0
LINE
  8
0
 10
8.08934
 20
10.075
 11
8.04276
 21
10.1109
  0
LINE
  8
0
 10
8.04276
 20
10.1109
 11
7.99495
 21
10.1447
  0
LINE
  8
0
 10
7.99495
 20
10.1447
 11
7.94594
 21
10.1767
  0
LINE
  8
0
 10
7.94594
 20
10.1767
 11
7.89572
 21
10.2066
  0
LINE
  8
0
 10
7.89572
 20
10.2066
 11
7.8443
 21
10.2345
  0
LINE
  8
0
 10
7.8443
 20
10.2345
 11
7.79166
 21
10.2603
  0
LINE
  8
0
 10
7.79166
 20
10.2603
 11
7.73781
 21
10.284
  0
LINE
  8
0
 10
7.73781
 20
10.284
 11
7.68275
 21
10.3056
  0
LINE
  8
0
 10
7.68275
 20
10.3056
 11
7.62648
 21
10.3251
  0
LINE
  8
0
 10
7.62648
 20
10.3251
 11
7.569
 21
10.3424
  0
LINE
  8
0
 10
7.569
 20
10.3424
 11
7.51031
 21
10.3575
  0
LINE
  8
0
 10
7.51031
 20
10.3575
 11
7.45041
 21
10.3704
  0
LINE
  8
0
 10
7.45041
 20
10.3704
 11
7.3893
 21
10.381
  0
LINE
  8
0
 10
7.3893
 20
10.381
 11
7.32698
 21
10.3892
  0
LINE
  8
0
 10
7.32698
 20
10.3892
 11
7.26346
 21
10.3952
  0
LINE
  8
0
 10
7.26346
 20
10.3952
 11
7.19872
 21
10.3988
  0
LINE
  8
0
 10
7.19872
 20
10.3988
 11
7.13277
 21
10.4
  0
LINE
  8
0
 10
7.13277
 20
10.4
 11
3.2605
 21
10.4
  0
LINE
  8
0
 10
3.2605
 20
10.4
 11
3.05701
 21
10.3919
  0
LINE
  8
0
 10
3.05701
 20
10.3919
 11
2.85835
 21
10.3681
  0
LINE
  8
0
 10
2.85835
 20
10.3681
 11
2.66513
 21
10.3291
  0
LINE
  8
0
 10
2.66513
 20
10.3291
 11
2.47798
 21
10.2754
  0
LINE
  8
0
 10
2.47798
 20
10.2754
 11
2.29747
 21
10.2078
  0
LINE
  8
0
 10
2.29747
 20
10.2078
 11
2.12422
 21
10.1266
  0
LINE
  8
0
 10
2.12422
 20
10.1266
 11
1.95885
 21
10.0326
  0
LINE
  8
0
 10
1.95885
 20
10.0326
 11
1.80194
 21
9.92628
  0
LINE
  8
0
 10
1.80194
 20
9.92628
 11
1.65411
 21
9.80821
  0
LINE
  8
0
 10
1.65411
 20
9.80821
 11
1.51596
 21
9.67899
  0
LINE
  8
0
 10
1.51596
 20
9.67899
 11
1.38809
 21
9.53917
  0
LINE
  8
0
 10
1.38809
 20
9.53917
 11
1.27112
 21
9.38933
  0
LINE
  8
0
 10
1.27112
 20
9.38933
 11
1.16563
 21
9.23006
  0
LINE
  8
0
 10
1.16563
 20
9.23006
 11
1.07227
 21
9.06192
  0
LINE
  8
0
 10
1.07227
 20
9.06192
 11
0.991592
 21
8.8855
  0
LINE
  8
0
 10
0.991592
 20
8.8855
 11
0.924225
 21
8.70135
  0
LINE
  8
0
 10
0.924225
 20
8.70135
 11
0.870789
 21
8.51007
  0
LINE
  8
0
 10
0.870789
 20
8.51007
 11
0.831863
 21
8.31224
  0
LINE
  8
0
 10
0.831863
 20
8.31224
 11
0.80806
 21
8.1084
  0
LINE
  8
0
 10
0.80806
 20
8.1084
 11
0.799988
 21
7.89915
  0
LINE
  8
0
 10
0.799988
 20
7.89915
 11
0.799988
 21
2.73613
  0
LINE
  8
0
 10
0.799988
 20
2.73613
 11
0.800613
 21
2.66383
  0
LINE
  8
0
 10
0.800613
 20
2.66383
 11
0.80249
 21
2.59221
  0
LINE
  8
0
 10
0.80249
 20
2.59221
 11
0.80571
 21
2.5213
  0
LINE
  8
0
 10
0.80571
 20
2.5213
 11
0.810318
 21
2.45119
  0
LINE
  8
0
 10
0.810318
 20
2.45119
 11
0.816376
 21
2.38193
  0
LINE
  8
0
 10
0.816376
 20
2.38193
 11
0.823959
 21
2.31357
  0
LINE
  8
0
 10
0.823959
 20
2.31357
 11
0.833099
 21
2.24617
  0
LINE
  8
0
 10
0.833099
 20
2.24617
 11
0.843872
 21
2.17981
  0
LINE
  8
0
 10
0.843872
 20
2.17981
 11
0.856354
 21
2.11453
  0
LINE
  8
0
 10
0.856354
 20
2.11453
 11
0.870575
 21
2.05042
  0
LINE
  8
0
 10
0.870575
 20
2.05042
 11
0.886627
 21
1.9875
  0
LINE
  8
0
 10
0.886627
 20
1.9875
 11
0.904541
 21
1.92586
  0
LINE
  8
0
 10
0.904541
 20
1.92586
 11
0.924393
 21
1.86554
  0
LINE
  8
0
 10
0.924393
 20
1.86554
 11
0.946243
 21
1.80663
  0
LINE
  8
0
 10
0.946243
 20
1.80663
 11
0.970154
 21
1.74915
  0
LINE
  8
0
 10
0.970154
 20
1.74915
 11
0.996185
 21
1.69319
  0
LINE
  8
0
 10
0.996185
 20
1.69319
 11
1.0244
 21
1.63881
  0
LINE
  8
0
 10
1.0244
 20
1.63881
 11
1.05484
 21
1.58606
  0
LINE
  8
0
 10
1.05484
 20
1.58606
 11
1.08759
 21
1.535
  0
LINE
  8
0
 10
1.08759
 20
1.535
 11
1.12268
 21
1.4857
  0
LINE
  8
0
 10
1.12268
 20
1.4857
 11
4.47058
 21
3.3815
  0
LINE
  8
0
 10
26.5713
 20
7.41676
 11
26.6752
 21
7.43796
  0
LINE
  8
0
 10
26.6752
 20
7.43796
 11
26.7669
 21
7.47327
  0
LINE
  8
0
 10
26.7669
 20
7.47327
 11
26.8462
 21
7.52272
  0
LINE
  8
0
 10
26.8462
 20
7.52272
 11
26.9141
 21
7.58102
  0
LINE
  8
0
 10
26.9141
 20
7.58102
 11
26.9716
 21
7.64296
  0
LINE
  8
0
 10
26.9716
 20
7.64296
 11
27.0188
 21
7.70853
  0
LINE
  8
0
 10
27.0188
 20
7.70853
 11
27.0556
 21
7.77769
  0
LINE
  8
0
 10
27.0556
 20
7.77769
 11
27.0785
 21
7.77769
  0
LINE
  8
0
 10
27.0785
 20
7.77769
 11
27.0785
 21
7.43959
  0
LINE
  8
0
 10
27.0785
 20
7.43959
 11
27.7363
 21
7.43959
  0
LINE
  8
0
 10
27.7363
 20
7.43959
 11
27.7363
 21
10.2229
  0
LINE
  8
0
 10
27.7363
 20
10.2229
 11
27.0709
 21
10.2229
  0
LINE
  8
0
 10
27.0709
 20
10.2229
 11
27.0709
 21
9.16933
  0
LINE
  8
0
 10
27.0709
 20
9.16933
 11
27.0556
 21
9.16933
  0
LINE
  8
0
 10
27.0556
 20
9.16933
 11
27.0331
 21
9.21574
  0
LINE
  8
0
 10
27.0331
 20
9.21574
 11
27.0061
 21
9.26157
  0
LINE
  8
0
 10
27.0061
 20
9.26157
 11
26.9743
 21
9.30681
  0
LINE
  8
0
 10
26.9743
 20
9.30681
 11
26.9379
 21
9.35146
  0
LINE
  8
0
 10
26.9379
 20
9.35146
 11
26.8965
 21
9.39384
  0
LINE
  8
0
 10
26.8965
 20
9.39384
 11
26.8497
 21
9.43227
  0
LINE
  8
0
 10
26.8497
 20
9.43227
 11
26.7976
 21
9.46671
  0
LINE
  8
0
 10
26.7976
 20
9.46671
 11
26.74
 21
9.49718
  0
LINE
  8
0
 10
26.74
 20
9.49718
 11
26.6767
 21
9.52211
  0
LINE
  8
0
 10
26.6767
 20
9.52211
 11
26.6071
 21
9.53992
  0
LINE
  8
0
 10
26.6071
 20
9.53992
 11
26.5313
 21
9.5506
  0
LINE
  8
0
 10
26.5313
 20
9.5506
 11
26.4494
 21
9.55417
  0
LINE
  8
0
 10
26.4494
 20
9.55417
 11
26.3393
 21
9.54692
  0
LINE
  8
0
 10
26.3393
 20
9.54692
 11
26.233
 21
9.52521
  0
LINE
  8
0
 10
26.233
 20
9.52521
 11
26.1304
 21
9.48901
  0
LINE
  8
0
 10
26.1304
 20
9.48901
 11
26.0315
 21
9.43834
  0
LINE
  8
0
 10
26.0315
 20
9.43834
 11
25.9391
 21
9.37283
  0
LINE
  8
0
 10
25.9391
 20
9.37283
 11
25.8561
 21
9.29216
  0
LINE
  8
0
 10
25.8561
 20
9.29216
 11
25.7823
 21
9.1963
  0
LINE
  8
0
 10
25.7823
 20
9.1963
 11
25.7179
 21
9.08527
  0
LINE
  8
0
 10
25.7179
 20
9.08527
 11
25.6656
 21
8.9586
  0
LINE
  8
0
 10
25.6656
 20
8.9586
 11
25.6283
 21
8.81583
  0
LINE
  8
0
 10
25.6283
 20
8.81583
 11
25.6059
 21
8.65694
  0
LINE
  8
0
 10
25.6059
 20
8.65694
 11
25.5984
 21
8.48193
  0
LINE
  8
0
 10
25.5984
 20
8.48193
 11
25.6055
 21
8.31177
  0
LINE
  8
0
 10
25.6055
 20
8.31177
 11
25.6271
 21
8.1562
  0
LINE
  8
0
 10
25.6271
 20
8.1562
 11
25.6629
 21
8.01523
  0
LINE
  8
0
 10
25.6629
 20
8.01523
 11
25.7131
 21
7.88884
  0
LINE
  8
0
 10
25.7131
 20
7.88884
 11
25.7755
 21
7.7771
  0
LINE
  8
0
 10
25.7755
 20
7.7771
 11
25.8479
 21
7.68008
  0
LINE
  8
0
 10
25.8479
 20
7.68008
 11
25.9304
 21
7.59778
  0
LINE
  8
0
 10
25.9304
 20
7.59778
 11
26.0229
 21
7.53018
  0
LINE
  8
0
 10
26.0229
 20
7.53018
 11
26.1231
 21
7.47746
  0
LINE
  8
0
 10
26.1231
 20
7.47746
 11
26.2285
 21
7.43982
  0
LINE
  8
0
 10
26.2285
 20
7.43982
 11
26.3392
 21
7.41724
  0
LINE
  8
0
 10
26.3392
 20
7.41724
 11
26.4551
 21
7.4097
  0
LINE
  8
0
 10
26.4551
 20
7.4097
 11
26.5713
 21
7.41676
  0
LINE
  8
0
 10
26.5918
 20
7.92747
 11
26.5122
 21
7.95656
  0
LINE
  8
0
 10
26.5122
 20
7.95656
 11
26.444
 21
8.005
  0
LINE
  8
0
 10
26.444
 20
8.005
 11
26.3872
 21
8.07285
  0
LINE
  8
0
 10
26.3872
 20
8.07285
 11
26.3424
 21
8.15656
  0
LINE
  8
0
 10
26.3424
 20
8.15656
 11
26.3105
 21
8.25264
  0
LINE
  8
0
 10
26.3105
 20
8.25264
 11
26.2913
 21
8.3611
  0
LINE
  8
0
 10
26.2913
 20
8.3611
 11
26.2849
 21
8.48193
  0
LINE
  8
0
 10
26.2849
 20
8.48193
 11
26.2913
 21
8.60271
  0
LINE
  8
0
 10
26.2913
 20
8.60271
 11
26.3105
 21
8.71098
  0
LINE
  8
0
 10
26.3105
 20
8.71098
 11
26.3424
 21
8.80678
  0
LINE
  8
0
 10
26.3424
 20
8.80678
 11
26.3872
 21
8.89009
  0
LINE
  8
0
 10
26.3872
 20
8.89009
 11
26.444
 21
8.95752
  0
LINE
  8
0
 10
26.444
 20
8.95752
 11
26.5122
 21
9.00568
  0
LINE
  8
0
 10
26.5122
 20
9.00568
 11
26.5918
 21
9.03458
  0
LINE
  8
0
 10
26.5918
 20
9.03458
 11
26.6827
 21
9.0442
  0
LINE
  8
0
 10
26.6827
 20
9.0442
 11
26.773
 21
9.03474
  0
LINE
  8
0
 10
26.773
 20
9.03474
 11
26.8526
 21
9.00636
  0
LINE
  8
0
 10
26.8526
 20
9.00636
 11
26.9216
 21
8.95908
  0
LINE
  8
0
 10
26.9216
 20
8.95908
 11
26.98
 21
8.89287
  0
LINE
  8
0
 10
26.98
 20
8.89287
 11
27.0264
 21
8.81044
  0
LINE
  8
0
 10
27.0264
 20
8.81044
 11
27.0596
 21
8.71448
  0
LINE
  8
0
 10
27.0596
 20
8.71448
 11
27.0795
 21
8.60498
  0
LINE
  8
0
 10
27.0795
 20
8.60498
 11
27.0862
 21
8.48193
  0
LINE
  8
0
 10
27.0862
 20
8.48193
 11
27.0795
 21
8.36034
  0
LINE
  8
0
 10
27.0795
 20
8.36034
 11
27.0594
 21
8.25146
  0
LINE
  8
0
 10
27.0594
 20
8.25146
 11
27.0259
 21
8.15532
  0
LINE
  8
0
 10
27.0259
 20
8.15532
 11
26.979
 21
8.0719
  0
LINE
  8
0
 10
26.979
 20
8.0719
 11
26.9204
 21
8.00447
  0
LINE
  8
0
 10
26.9204
 20
8.00447
 11
26.8514
 21
7.95631
  0
LINE
  8
0
 10
26.8514
 20
7.95631
 11
26.7722
 21
7.92741
  0
LINE
  8
0
 10
26.7722
 20
7.92741
 11
26.6827
 21
7.91779
  0
LINE
  8
0
 10
26.6827
 20
7.91779
 11
26.5918
 21
7.92747
  0
LINE
  8
0
 10
20.5011
 20
8.63882
 11
20.5008
 21
8.69504
  0
LINE
  8
0
 10
20.5008
 20
8.69504
 11
20.5
 21
8.75908
  0
LINE
  8
0
 10
20.5
 20
8.75908
 11
20.4984
 21
8.83093
  0
LINE
  8
0
 10
20.4984
 20
8.83093
 11
20.4964
 21
8.91061
  0
LINE
  8
0
 10
20.4964
 20
8.91061
 11
20.4886
 21
9.17664
  0
LINE
  8
0
 10
20.4886
 20
9.17664
 11
20.4858
 21
9.27208
  0
LINE
  8
0
 10
20.4858
 20
9.27208
 11
20.4831
 21
9.36852
  0
LINE
  8
0
 10
20.4831
 20
9.36852
 11
20.4806
 21
9.46355
  0
LINE
  8
0
 10
20.4806
 20
9.46355
 11
20.4783
 21
9.55717
  0
LINE
  8
0
 10
20.4783
 20
9.55717
 11
20.4763
 21
9.64941
  0
LINE
  8
0
 10
20.4763
 20
9.64941
 11
20.5005
 21
9.55153
  0
LINE
  8
0
 10
20.5005
 20
9.55153
 11
20.5253
 21
9.45399
  0
LINE
  8
0
 10
20.5253
 20
9.45399
 11
20.5507
 21
9.3568
  0
LINE
  8
0
 10
20.5507
 20
9.3568
 11
20.5767
 21
9.25996
  0
LINE
  8
0
 10
20.5767
 20
9.25996
 11
20.6027
 21
9.16522
  0
LINE
  8
0
 10
20.6027
 20
9.16522
 11
20.6281
 21
9.07433
  0
LINE
  8
0
 10
20.6281
 20
9.07433
 11
20.6529
 21
8.98727
  0
LINE
  8
0
 10
20.6529
 20
8.98727
 11
20.6771
 21
8.90408
  0
LINE
  8
0
 10
20.6771
 20
8.90408
 11
20.7
 21
8.82655
  0
LINE
  8
0
 10
20.7
 20
8.82655
 11
20.7211
 21
8.75652
  0
LINE
  8
0
 10
20.7211
 20
8.75652
 11
20.7402
 21
8.69392
  0
LINE
  8
0
 10
20.7402
 20
8.69392
 11
20.7574
 21
8.63882
  0
LINE
  8
0
 10
20.7574
 20
8.63882
 11
21.1685
 21
7.43959
  0
LINE
  8
0
 10
21.1685
 20
7.43959
 11
21.7327
 21
7.43959
  0
LINE
  8
0
 10
21.7327
 20
7.43959
 11
22.1381
 21
8.63882
  0
LINE
  8
0
 10
22.1381
 20
8.63882
 11
22.1561
 21
8.69598
  0
LINE
  8
0
 10
22.1561
 20
8.69598
 11
22.1759
 21
8.76096
  0
LINE
  8
0
 10
22.1759
 20
8.76096
 11
22.1973
 21
8.83374
  0
LINE
  8
0
 10
22.1973
 20
8.83374
 11
22.2203
 21
8.91435
  0
LINE
  8
0
 10
22.2203
 20
8.91435
 11
22.2445
 21
9.00081
  0
LINE
  8
0
 10
22.2445
 20
9.00081
 11
22.2693
 21
9.09113
  0
LINE
  8
0
 10
22.2693
 20
9.09113
 11
22.2947
 21
9.18529
  0
LINE
  8
0
 10
22.2947
 20
9.18529
 11
22.3207
 21
9.28329
  0
LINE
  8
0
 10
22.3207
 20
9.28329
 11
22.3467
 21
9.38312
  0
LINE
  8
0
 10
22.3467
 20
9.38312
 11
22.3721
 21
9.48271
  0
LINE
  8
0
 10
22.3721
 20
9.48271
 11
22.3969
 21
9.58206
  0
LINE
  8
0
 10
22.3969
 20
9.58206
 11
22.4211
 21
9.68117
  0
LINE
  8
0
 10
22.4211
 20
9.68117
 11
22.4191
 21
9.58684
  0
LINE
  8
0
 10
22.4191
 20
9.58684
 11
22.4168
 21
9.49065
  0
LINE
  8
0
 10
22.4168
 20
9.49065
 11
22.4143
 21
9.39258
  0
LINE
  8
0
 10
22.4143
 20
9.39258
 11
22.4115
 21
9.29262
  0
LINE
  8
0
 10
22.4115
 20
9.29262
 11
22.401
 21
8.91811
  0
LINE
  8
0
 10
22.401
 20
8.91811
 11
22.3989
 21
8.83585
  0
LINE
  8
0
 10
22.3989
 20
8.83585
 11
22.3974
 21
8.76189
  0
LINE
  8
0
 10
22.3974
 20
8.76189
 11
22.3965
 21
8.69621
  0
LINE
  8
0
 10
22.3965
 20
8.69621
 11
22.3962
 21
8.63882
  0
LINE
  8
0
 10
22.3962
 20
8.63882
 11
22.3962
 21
7.43959
  0
LINE
  8
0
 10
22.3962
 20
7.43959
 11
23.0751
 21
7.43959
  0
LINE
  8
0
 10
23.0751
 20
7.43959
 11
23.0751
 21
10.2229
  0
LINE
  8
0
 10
23.0751
 20
10.2229
 11
22.0214
 21
10.2229
  0
LINE
  8
0
 10
22.0214
 20
10.2229
 11
21.6638
 21
9.13945
  0
LINE
  8
0
 10
21.6638
 20
9.13945
 11
21.649
 21
9.08815
  0
LINE
  8
0
 10
21.649
 20
9.08815
 11
21.633
 21
9.02948
  0
LINE
  8
0
 10
21.633
 20
9.02948
 11
21.616
 21
8.96347
  0
LINE
  8
0
 10
21.616
 20
8.96347
 11
21.5979
 21
8.89009
  0
LINE
  8
0
 10
21.5979
 20
8.89009
 11
21.5792
 21
8.81163
  0
LINE
  8
0
 10
21.5792
 20
8.81163
 11
21.5606
 21
8.73038
  0
LINE
  8
0
 10
21.5606
 20
8.73038
 11
21.5419
 21
8.6463
  0
LINE
  8
0
 10
21.5419
 20
8.6463
 11
21.5233
 21
8.55943
  0
LINE
  8
0
 10
21.5233
 20
8.55943
 11
21.5049
 21
8.47183
  0
LINE
  8
0
 10
21.5049
 20
8.47183
 11
21.4872
 21
8.3855
  0
LINE
  8
0
 10
21.4872
 20
8.3855
 11
21.47
 21
8.30045
  0
LINE
  8
0
 10
21.47
 20
8.30045
 11
21.4535
 21
8.21667
  0
LINE
  8
0
 10
21.4535
 20
8.21667
 11
21.436
 21
8.30051
  0
LINE
  8
0
 10
21.436
 20
8.30051
 11
21.4181
 21
8.38573
  0
LINE
  8
0
 10
21.4181
 20
8.38573
 11
21.3997
 21
8.47235
  0
LINE
  8
0
 10
21.3997
 20
8.47235
 11
21.3808
 21
8.56038
  0
LINE
  8
0
 10
21.3808
 20
8.56038
 11
21.3617
 21
8.6476
  0
LINE
  8
0
 10
21.3617
 20
8.6476
 11
21.3428
 21
8.73178
  0
LINE
  8
0
 10
21.3428
 20
8.73178
 11
21.324
 21
8.81291
  0
LINE
  8
0
 10
21.324
 20
8.81291
 11
21.3053
 21
8.89102
  0
LINE
  8
0
 10
21.3053
 20
8.89102
 11
21.2872
 21
8.96399
  0
LINE
  8
0
 10
21.2872
 20
8.96399
 11
21.2701
 21
9.02972
  0
LINE
  8
0
 10
21.2701
 20
9.02972
 11
21.2542
 21
9.08821
  0
LINE
  8
0
 10
21.2542
 20
9.08821
 11
21.2393
 21
9.13945
  0
LINE
  8
0
 10
21.2393
 20
9.13945
 11
20.876
 21
10.2229
  0
LINE
  8
0
 10
20.876
 20
10.2229
 11
19.8242
 21
10.2229
  0
LINE
  8
0
 10
19.8242
 20
10.2229
 11
19.8242
 21
7.43959
  0
LINE
  8
0
 10
19.8242
 20
7.43959
 11
20.5011
 21
7.43959
  0
LINE
  8
0
 10
20.5011
 20
7.43959
 11
20.5011
 21
8.63882
  0
LINE
  8
0
 10
16.5045
 20
7.4104
 11
16.5535
 21
7.41251
  0
LINE
  8
0
 10
16.5535
 20
7.41251
 11
16.6039
 21
7.416
  0
LINE
  8
0
 10
16.6039
 20
7.416
 11
16.6558
 21
7.42091
  0
LINE
  8
0
 10
16.6558
 20
7.42091
 11
16.7089
 21
7.4278
  0
LINE
  8
0
 10
16.7089
 20
7.4278
 11
16.7629
 21
7.43726
  0
LINE
  8
0
 10
16.7629
 20
7.43726
 11
16.8179
 21
7.44928
  0
LINE
  8
0
 10
16.8179
 20
7.44928
 11
16.8738
 21
7.46388
  0
LINE
  8
0
 10
16.8738
 20
7.46388
 11
16.7878
 21
7.93834
  0
LINE
  8
0
 10
16.7878
 20
7.93834
 11
16.7722
 21
7.93536
  0
LINE
  8
0
 10
16.7722
 20
7.93536
 11
16.7522
 21
7.93204
  0
LINE
  8
0
 10
16.7522
 20
7.93204
 11
16.7277
 21
7.92836
  0
LINE
  8
0
 10
16.7277
 20
7.92836
 11
16.6989
 21
7.92432
  0
LINE
  8
0
 10
16.6989
 20
7.92432
 11
16.6695
 21
7.92064
  0
LINE
  8
0
 10
16.6695
 20
7.92064
 11
16.6436
 21
7.91801
  0
LINE
  8
0
 10
16.6436
 20
7.91801
 11
16.6212
 21
7.91644
  0
LINE
  8
0
 10
16.6212
 20
7.91644
 11
16.6023
 21
7.91592
  0
LINE
  8
0
 10
16.6023
 20
7.91592
 11
16.5278
 21
7.92607
  0
LINE
  8
0
 10
16.5278
 20
7.92607
 11
16.4746
 21
7.95654
  0
LINE
  8
0
 10
16.4746
 20
7.95654
 11
16.4427
 21
8.00732
  0
LINE
  8
0
 10
16.4427
 20
8.00732
 11
16.4321
 21
8.07843
  0
LINE
  8
0
 10
16.4321
 20
8.07843
 11
16.4321
 21
9.0442
  0
LINE
  8
0
 10
16.4321
 20
9.0442
 11
16.8165
 21
9.0442
  0
LINE
  8
0
 10
16.8165
 20
9.0442
 11
16.8165
 21
9.528
  0
LINE
  8
0
 10
16.8165
 20
9.528
 11
16.4321
 21
9.528
  0
LINE
  8
0
 10
16.4321
 20
9.528
 11
16.4321
 21
10.0249
  0
LINE
  8
0
 10
16.4321
 20
10.0249
 11
15.7647
 21
10.0249
  0
LINE
  8
0
 10
15.7647
 20
10.0249
 11
15.7647
 21
9.528
  0
LINE
  8
0
 10
15.7647
 20
9.528
 11
15.4816
 21
9.528
  0
LINE
  8
0
 10
15.4816
 20
9.528
 11
15.4816
 21
9.0442
  0
LINE
  8
0
 10
15.4816
 20
9.0442
 11
15.7647
 21
9.0442
  0
LINE
  8
0
 10
15.7647
 20
9.0442
 11
15.7647
 21
8.02052
  0
LINE
  8
0
 10
15.7647
 20
8.02052
 11
15.7757
 21
7.88002
  0
LINE
  8
0
 10
15.7757
 20
7.88002
 11
15.8087
 21
7.75737
  0
LINE
  8
0
 10
15.8087
 20
7.75737
 11
15.8636
 21
7.65259
  0
LINE
  8
0
 10
15.8636
 20
7.65259
 11
15.9406
 21
7.56566
  0
LINE
  8
0
 10
15.9406
 20
7.56566
 11
16.0388
 21
7.49742
  0
LINE
  8
0
 10
16.0388
 20
7.49742
 11
16.1577
 21
7.44868
  0
LINE
  8
0
 10
16.1577
 20
7.44868
 11
16.297
 21
7.41945
  0
LINE
  8
0
 10
16.297
 20
7.41945
 11
16.4569
 21
7.4097
  0
LINE
  8
0
 10
16.4569
 20
7.4097
 11
16.5045
 21
7.4104
  0
LINE
  8
0
 10
37.0768
 20
8.67992
 11
37.0823
 21
8.75745
  0
LINE
  8
0
 10
37.0823
 20
8.75745
 11
37.0986
 21
8.82562
  0
LINE
  8
0
 10
37.0986
 20
8.82562
 11
37.1258
 21
8.88448
  0
LINE
  8
0
 10
37.1258
 20
8.88448
 11
37.1638
 21
8.93396
  0
LINE
  8
0
 10
37.1638
 20
8.93396
 11
37.2104
 21
8.97321
  0
LINE
  8
0
 10
37.2104
 20
8.97321
 11
37.263
 21
9.00124
  0
LINE
  8
0
 10
37.263
 20
9.00124
 11
37.3218
 21
9.01805
  0
LINE
  8
0
 10
37.3218
 20
9.01805
 11
37.3866
 21
9.02365
  0
LINE
  8
0
 10
37.3866
 20
9.02365
 11
37.4496
 21
9.01834
  0
LINE
  8
0
 10
37.4496
 20
9.01834
 11
37.5064
 21
9.0024
  0
LINE
  8
0
 10
37.5064
 20
9.0024
 11
37.5571
 21
8.97583
  0
LINE
  8
0
 10
37.5571
 20
8.97583
 11
37.6018
 21
8.93864
  0
LINE
  8
0
 10
37.6018
 20
8.93864
 11
37.6382
 21
8.89247
  0
LINE
  8
0
 10
37.6382
 20
8.89247
 11
37.6642
 21
8.83894
  0
LINE
  8
0
 10
37.6642
 20
8.83894
 11
37.6797
 21
8.77805
  0
LINE
  8
0
 10
37.6797
 20
8.77805
 11
37.685
 21
8.70981
  0
LINE
  8
0
 10
37.685
 20
8.70981
 11
37.685
 21
7.43959
  0
LINE
  8
0
 10
37.685
 20
7.43959
 11
38.3256
 21
7.43959
  0
LINE
  8
0
 10
38.3256
 20
7.43959
 11
38.3256
 21
8.69301
  0
LINE
  8
0
 10
38.3256
 20
8.69301
 11
38.3307
 21
8.76404
  0
LINE
  8
0
 10
38.3307
 20
8.76404
 11
38.3461
 21
8.82773
  0
LINE
  8
0
 10
38.3461
 20
8.82773
 11
38.3718
 21
8.88406
  0
LINE
  8
0
 10
38.3718
 20
8.88406
 11
38.4078
 21
8.93303
  0
LINE
  8
0
 10
38.4078
 20
8.93303
 11
38.4526
 21
8.97267
  0
LINE
  8
0
 10
38.4526
 20
8.97267
 11
38.5049
 21
9.00099
  0
LINE
  8
0
 10
38.5049
 20
9.00099
 11
38.5645
 21
9.01799
  0
LINE
  8
0
 10
38.5645
 20
9.01799
 11
38.6315
 21
9.02365
  0
LINE
  8
0
 10
38.6315
 20
9.02365
 11
38.6946
 21
9.01851
  0
LINE
  8
0
 10
38.6946
 20
9.01851
 11
38.7518
 21
9.0031
  0
LINE
  8
0
 10
38.7518
 20
9.0031
 11
38.8031
 21
8.97742
  0
LINE
  8
0
 10
38.8031
 20
8.97742
 11
38.8486
 21
8.94145
  0
LINE
  8
0
 10
38.8486
 20
8.94145
 11
38.8858
 21
8.89557
  0
LINE
  8
0
 10
38.8858
 20
8.89557
 11
38.9124
 21
8.84012
  0
LINE
  8
0
 10
38.9124
 20
8.84012
 11
38.9284
 21
8.77509
  0
LINE
  8
0
 10
38.9284
 20
8.77509
 11
38.9337
 21
8.70047
  0
LINE
  8
0
 10
38.9337
 20
8.70047
 11
38.9337
 21
7.43959
  0
LINE
  8
0
 10
38.9337
 20
7.43959
 11
39.5992
 21
7.43959
  0
LINE
  8
0
 10
39.5992
 20
7.43959
 11
39.5992
 21
8.84805
  0
LINE
  8
0
 10
39.5992
 20
8.84805
 11
39.5872
 21
9.0045
  0
LINE
  8
0
 10
39.5872
 20
9.0045
 11
39.5511
 21
9.1432
  0
LINE
  8
0
 10
39.5511
 20
9.1432
 11
39.4911
 21
9.26416
  0
LINE
  8
0
 10
39.4911
 20
9.26416
 11
39.407
 21
9.36736
  0
LINE
  8
0
 10
39.407
 20
9.36736
 11
39.3042
 21
9.44991
  0
LINE
  8
0
 10
39.3042
 20
9.44991
 11
39.1878
 21
9.50887
  0
LINE
  8
0
 10
39.1878
 20
9.50887
 11
39.0579
 21
9.54425
  0
LINE
  8
0
 10
39.0579
 20
9.54425
 11
38.9146
 21
9.55603
  0
LINE
  8
0
 10
38.9146
 20
9.55603
 11
38.8081
 21
9.54897
  0
LINE
  8
0
 10
38.8081
 20
9.54897
 11
38.7049
 21
9.52779
  0
LINE
  8
0
 10
38.7049
 20
9.52779
 11
38.605
 21
9.49246
  0
LINE
  8
0
 10
38.605
 20
9.49246
 11
38.5082
 21
9.44302
  0
LINE
  8
0
 10
38.5082
 20
9.44302
 11
38.4189
 21
9.37746
  0
LINE
  8
0
 10
38.4189
 20
9.37746
 11
38.3411
 21
9.29381
  0
LINE
  8
0
 10
38.3411
 20
9.29381
 11
38.275
 21
9.19206
  0
LINE
  8
0
 10
38.275
 20
9.19206
 11
38.2204
 21
9.0722
  0
LINE
  8
0
 10
38.2204
 20
9.0722
 11
38.1777
 21
9.1913
  0
LINE
  8
0
 10
38.1777
 20
9.1913
 11
38.1279
 21
9.29263
  0
LINE
  8
0
 10
38.1279
 20
9.29263
 11
38.0711
 21
9.37624
  0
LINE
  8
0
 10
38.0711
 20
9.37624
 11
38.0072
 21
9.44208
  0
LINE
  8
0
 10
38.0072
 20
9.44208
 11
37.9355
 21
9.49194
  0
LINE
  8
0
 10
37.9355
 20
9.49194
 11
37.8554
 21
9.52754
  0
LINE
  8
0
 10
37.8554
 20
9.52754
 11
37.7668
 21
9.54892
  0
LINE
  8
0
 10
37.7668
 20
9.54892
 11
37.6696
 21
9.55603
  0
LINE
  8
0
 10
37.6696
 20
9.55603
 11
37.5747
 21
9.54956
  0
LINE
  8
0
 10
37.5747
 20
9.54956
 11
37.483
 21
9.53012
  0
LINE
  8
0
 10
37.483
 20
9.53012
 11
37.3945
 21
9.49771
  0
LINE
  8
0
 10
37.3945
 20
9.49771
 11
37.3092
 21
9.45236
  0
LINE
  8
0
 10
37.3092
 20
9.45236
 11
37.2305
 21
9.39229
  0
LINE
  8
0
 10
37.2305
 20
9.39229
 11
37.1617
 21
9.31575
  0
LINE
  8
0
 10
37.1617
 20
9.31575
 11
37.1028
 21
9.22276
  0
LINE
  8
0
 10
37.1028
 20
9.22276
 11
37.0539
 21
9.11331
  0
LINE
  8
0
 10
37.0539
 20
9.11331
 11
37.0233
 21
9.528
  0
LINE
  8
0
 10
37.0233
 20
9.528
 11
36.4094
 21
9.528
  0
LINE
  8
0
 10
36.4094
 20
9.528
 11
36.4094
 21
7.43959
  0
LINE
  8
0
 10
36.4094
 20
7.43959
 11
37.0768
 21
7.43959
  0
LINE
  8
0
 10
37.0768
 20
7.43959
 11
37.0768
 21
8.67992
  0
LINE
  8
0
 10
10.4873
 20
8.67992
 11
10.4927
 21
8.75745
  0
LINE
  8
0
 10
10.4927
 20
8.75745
 11
10.509
 21
8.82562
  0
LINE
  8
0
 10
10.509
 20
8.82562
 11
10.5362
 21
8.88448
  0
LINE
  8
0
 10
10.5362
 20
8.88448
 11
10.5743
 21
8.93396
  0
LINE
  8
0
 10
10.5743
 20
8.93396
 11
10.6208
 21
8.97321
  0
LINE
  8
0
 10
10.6208
 20
8.97321
 11
10.6735
 21
9.00124
  0
LINE
  8
0
 10
10.6735
 20
9.00124
 11
10.7323
 21
9.01805
  0
LINE
  8
0
 10
10.7323
 20
9.01805
 11
10.7971
 21
9.02365
  0
LINE
  8
0
 10
10.7971
 20
9.02365
 11
10.86
 21
9.01834
  0
LINE
  8
0
 10
10.86
 20
9.01834
 11
10.9169
 21
9.0024
  0
LINE
  8
0
 10
10.9169
 20
9.0024
 11
10.9676
 21
8.97583
  0
LINE
  8
0
 10
10.9676
 20
8.97583
 11
11.0122
 21
8.93864
  0
LINE
  8
0
 10
11.0122
 20
8.93864
 11
11.0486
 21
8.89247
  0
LINE
  8
0
 10
11.0486
 20
8.89247
 11
11.0746
 21
8.83894
  0
LINE
  8
0
 10
11.0746
 20
8.83894
 11
11.0902
 21
8.77805
  0
LINE
  8
0
 10
11.0902
 20
8.77805
 11
11.0954
 21
8.70981
  0
LINE
  8
0
 10
11.0954
 20
8.70981
 11
11.0954
 21
7.43959
  0
LINE
  8
0
 10
11.0954
 20
7.43959
 11
11.736
 21
7.43959
  0
LINE
  8
0
 10
11.736
 20
7.43959
 11
11.736
 21
8.69301
  0
LINE
  8
0
 10
11.736
 20
8.69301
 11
11.7412
 21
8.76404
  0
LINE
  8
0
 10
11.7412
 20
8.76404
 11
11.7566
 21
8.82773
  0
LINE
  8
0
 10
11.7566
 20
8.82773
 11
11.7823
 21
8.88406
  0
LINE
  8
0
 10
11.7823
 20
8.88406
 11
11.8183
 21
8.93303
  0
LINE
  8
0
 10
11.8183
 20
8.93303
 11
11.8631
 21
8.97267
  0
LINE
  8
0
 10
11.8631
 20
8.97267
 11
11.9153
 21
9.00099
  0
LINE
  8
0
 10
11.9153
 20
9.00099
 11
11.975
 21
9.01799
  0
LINE
  8
0
 10
11.975
 20
9.01799
 11
12.042
 21
9.02365
  0
LINE
  8
0
 10
12.042
 20
9.02365
 11
12.1051
 21
9.01851
  0
LINE
  8
0
 10
12.1051
 20
9.01851
 11
12.1623
 21
9.0031
  0
LINE
  8
0
 10
12.1623
 20
9.0031
 11
12.2136
 21
8.97742
  0
LINE
  8
0
 10
12.2136
 20
8.97742
 11
12.2591
 21
8.94145
  0
LINE
  8
0
 10
12.2591
 20
8.94145
 11
12.2963
 21
8.89557
  0
LINE
  8
0
 10
12.2963
 20
8.89557
 11
12.3229
 21
8.84012
  0
LINE
  8
0
 10
12.3229
 20
8.84012
 11
12.3389
 21
8.77509
  0
LINE
  8
0
 10
12.3389
 20
8.77509
 11
12.3442
 21
8.70047
  0
LINE
  8
0
 10
12.3442
 20
8.70047
 11
12.3442
 21
7.43959
  0
LINE
  8
0
 10
12.3442
 20
7.43959
 11
13.0097
 21
7.43959
  0
LINE
  8
0
 10
13.0097
 20
7.43959
 11
13.0097
 21
8.84805
  0
LINE
  8
0
 10
13.0097
 20
8.84805
 11
12.9977
 21
9.0045
  0
LINE
  8
0
 10
12.9977
 20
9.0045
 11
12.9616
 21
9.1432
  0
LINE
  8
0
 10
12.9616
 20
9.1432
 11
12.9016
 21
9.26416
  0
LINE
  8
0
 10
12.9016
 20
9.26416
 11
12.8175
 21
9.36736
  0
LINE
  8
0
 10
12.8175
 20
9.36736
 11
12.7146
 21
9.44991
  0
LINE
  8
0
 10
12.7146
 20
9.44991
 11
12.5983
 21
9.50887
  0
LINE
  8
0
 10
12.5983
 20
9.50887
 11
12.4684
 21
9.54425
  0
LINE
  8
0
 10
12.4684
 20
9.54425
 11
12.325
 21
9.55603
  0
LINE
  8
0
 10
12.325
 20
9.55603
 11
12.2186
 21
9.54897
  0
LINE
  8
0
 10
12.2186
 20
9.54897
 11
12.1154
 21
9.52779
  0
LINE
  8
0
 10
12.1154
 20
9.52779
 11
12.0154
 21
9.49246
  0
LINE
  8
0
 10
12.0154
 20
9.49246
 11
11.9187
 21
9.44302
  0
LINE
  8
0
 10
11.9187
 20
9.44302
 11
11.8293
 21
9.37746
  0
LINE
  8
0
 10
11.8293
 20
9.37746
 11
11.7516
 21
9.29381
  0
LINE
  8
0
 10
11.7516
 20
9.29381
 11
11.6854
 21
9.19206
  0
LINE
  8
0
 10
11.6854
 20
9.19206
 11
11.6309
 21
9.0722
  0
LINE
  8
0
 10
11.6309
 20
9.0722
 11
11.5882
 21
9.1913
  0
LINE
  8
0
 10
11.5882
 20
9.1913
 11
11.5384
 21
9.29263
  0
LINE
  8
0
 10
11.5384
 20
9.29263
 11
11.4815
 21
9.37624
  0
LINE
  8
0
 10
11.4815
 20
9.37624
 11
11.4176
 21
9.44208
  0
LINE
  8
0
 10
11.4176
 20
9.44208
 11
11.346
 21
9.49194
  0
LINE
  8
0
 10
11.346
 20
9.49194
 11
11.2659
 21
9.52754
  0
LINE
  8
0
 10
11.2659
 20
9.52754
 11
11.1772
 21
9.54892
  0
LINE
  8
0
 10
11.1772
 20
9.54892
 11
11.0801
 21
9.55603
  0
LINE
  8
0
 10
11.0801
 20
9.55603
 11
10.9852
 21
9.54956
  0
LINE
  8
0
 10
10.9852
 20
9.54956
 11
10.8934
 21
9.53012
  0
LINE
  8
0
 10
10.8934
 20
9.53012
 11
10.8049
 21
9.49771
  0
LINE
  8
0
 10
10.8049
 20
9.49771
 11
10.7197
 21
9.45236
  0
LINE
  8
0
 10
10.7197
 20
9.45236
 11
10.641
 21
9.39229
  0
LINE
  8
0
 10
10.641
 20
9.39229
 11
10.5722
 21
9.31575
  0
LINE
  8
0
 10
10.5722
 20
9.31575
 11
10.5133
 21
9.22276
  0
LINE
  8
0
 10
10.5133
 20
9.22276
 11
10.4644
 21
9.11331
  0
LINE
  8
0
 10
10.4644
 20
9.11331
 11
10.4338
 21
9.528
  0
LINE
  8
0
 10
10.4338
 20
9.528
 11
9.81992
 21
9.528
  0
LINE
  8
0
 10
9.81992
 20
9.528
 11
9.81992
 21
7.43959
  0
LINE
  8
0
 10
9.81992
 20
7.43959
 11
10.4873
 21
7.43959
  0
LINE
  8
0
 10
10.4873
 20
7.43959
 11
10.4873
 21
8.67992
  0
LINE
  8
0
 10
32.9545
 20
7.41302
 11
33.1327
 21
7.45103
  0
LINE
  8
0
 10
33.1327
 20
7.45103
 11
33.2921
 21
7.51437
  0
LINE
  8
0
 10
33.2921
 20
7.51437
 11
33.4325
 21
7.60303
  0
LINE
  8
0
 10
33.4325
 20
7.60303
 11
33.5502
 21
7.71365
  0
LINE
  8
0
 10
33.5502
 20
7.71365
 11
33.6414
 21
7.84283
  0
LINE
  8
0
 10
33.6414
 20
7.84283
 11
33.7061
 21
7.99059
  0
LINE
  8
0
 10
33.7061
 20
7.99059
 11
33.7442
 21
8.15691
  0
LINE
  8
0
 10
33.7442
 20
8.15691
 11
33.1284
 21
8.25403
  0
LINE
  8
0
 10
33.1284
 20
8.25403
 11
33.1092
 21
8.17464
  0
LINE
  8
0
 10
33.1092
 20
8.17464
 11
33.0823
 21
8.1046
  0
LINE
  8
0
 10
33.0823
 20
8.1046
 11
33.0476
 21
8.04388
  0
LINE
  8
0
 10
33.0476
 20
8.04388
 11
33.0051
 21
7.99252
  0
LINE
  8
0
 10
33.0051
 20
7.99252
 11
32.9553
 21
7.95166
  0
LINE
  8
0
 10
32.9553
 20
7.95166
 11
32.8987
 21
7.92247
  0
LINE
  8
0
 10
32.8987
 20
7.92247
 11
32.8353
 21
7.90495
  0
LINE
  8
0
 10
32.8353
 20
7.90495
 11
32.7651
 21
7.89911
  0
LINE
  8
0
 10
32.7651
 20
7.89911
 11
32.6748
 21
7.90886
  0
LINE
  8
0
 10
32.6748
 20
7.90886
 11
32.5954
 21
7.93811
  0
LINE
  8
0
 10
32.5954
 20
7.93811
 11
32.5266
 21
7.98683
  0
LINE
  8
0
 10
32.5266
 20
7.98683
 11
32.4687
 21
8.05507
  0
LINE
  8
0
 10
32.4687
 20
8.05507
 11
32.4227
 21
8.14012
  0
LINE
  8
0
 10
32.4227
 20
8.14012
 11
32.3898
 21
8.2393
  0
LINE
  8
0
 10
32.3898
 20
8.2393
 11
32.3701
 21
8.35262
  0
LINE
  8
0
 10
32.3701
 20
8.35262
 11
32.3635
 21
8.48006
  0
LINE
  8
0
 10
32.3635
 20
8.48006
 11
32.3701
 21
8.60806
  0
LINE
  8
0
 10
32.3701
 20
8.60806
 11
32.3898
 21
8.72125
  0
LINE
  8
0
 10
32.3898
 20
8.72125
 11
32.4227
 21
8.81961
  0
LINE
  8
0
 10
32.4227
 20
8.81961
 11
32.4687
 21
8.90314
  0
LINE
  8
0
 10
32.4687
 20
8.90314
 11
32.5266
 21
8.96976
  0
LINE
  8
0
 10
32.5266
 20
8.96976
 11
32.5954
 21
9.01735
  0
LINE
  8
0
 10
32.5954
 20
9.01735
 11
32.6748
 21
9.0459
  0
LINE
  8
0
 10
32.6748
 20
9.0459
 11
32.7651
 21
9.05542
  0
LINE
  8
0
 10
32.7651
 20
9.05542
 11
32.8352
 21
9.0498
  0
LINE
  8
0
 10
32.8352
 20
9.0498
 11
32.8982
 21
9.03299
  0
LINE
  8
0
 10
32.8982
 20
9.03299
 11
32.9542
 21
9.00496
  0
LINE
  8
0
 10
32.9542
 20
9.00496
 11
33.0032
 21
8.96573
  0
LINE
  8
0
 10
33.0032
 20
8.96573
 11
33.0449
 21
8.91623
  0
LINE
  8
0
 10
33.0449
 20
8.91623
 11
33.0794
 21
8.85739
  0
LINE
  8
0
 10
33.0794
 20
8.85739
 11
33.1066
 21
8.7892
  0
LINE
  8
0
 10
33.1066
 20
8.7892
 11
33.1265
 21
8.71169
  0
LINE
  8
0
 10
33.1265
 20
8.71169
 11
33.7423
 21
8.81255
  0
LINE
  8
0
 10
33.7423
 20
8.81255
 11
33.7041
 21
8.97459
  0
LINE
  8
0
 10
33.7041
 20
8.97459
 11
33.6393
 21
9.11891
  0
LINE
  8
0
 10
33.6393
 20
9.11891
 11
33.5477
 21
9.24547
  0
LINE
  8
0
 10
33.5477
 20
9.24547
 11
33.4296
 21
9.35426
  0
LINE
  8
0
 10
33.4296
 20
9.35426
 11
33.289
 21
9.44173
  0
LINE
  8
0
 10
33.289
 20
9.44173
 11
33.1301
 21
9.5042
  0
LINE
  8
0
 10
33.1301
 20
9.5042
 11
32.9529
 21
9.54167
  0
LINE
  8
0
 10
32.9529
 20
9.54167
 11
32.7574
 21
9.55417
  0
LINE
  8
0
 10
32.7574
 20
9.55417
 11
32.596
 21
9.5457
  0
LINE
  8
0
 10
32.596
 20
9.5457
 11
32.4462
 21
9.52031
  0
LINE
  8
0
 10
32.4462
 20
9.52031
 11
32.3082
 21
9.47798
  0
LINE
  8
0
 10
32.3082
 20
9.47798
 11
32.1818
 21
9.41873
  0
LINE
  8
0
 10
32.1818
 20
9.41873
 11
32.0683
 21
9.3443
  0
LINE
  8
0
 10
32.0683
 20
9.3443
 11
31.9688
 21
9.25644
  0
LINE
  8
0
 10
31.9688
 20
9.25644
 11
31.8833
 21
9.15515
  0
LINE
  8
0
 10
31.8833
 20
9.15515
 11
31.8118
 21
9.04045
  0
LINE
  8
0
 10
31.8118
 20
9.04045
 11
31.7553
 21
8.91414
  0
LINE
  8
0
 10
31.7553
 20
8.91414
 11
31.715
 21
8.778
  0
LINE
  8
0
 10
31.715
 20
8.778
 11
31.6908
 21
8.63206
  0
LINE
  8
0
 10
31.6908
 20
8.63206
 11
31.6827
 21
8.47632
  0
LINE
  8
0
 10
31.6827
 20
8.47632
 11
31.6908
 21
8.32063
  0
LINE
  8
0
 10
31.6908
 20
8.32063
 11
31.715
 21
8.17487
  0
LINE
  8
0
 10
31.715
 20
8.17487
 11
31.7553
 21
8.03903
  0
LINE
  8
0
 10
31.7553
 20
8.03903
 11
31.8118
 21
7.9131
  0
LINE
  8
0
 10
31.8118
 20
7.9131
 11
31.8833
 21
7.79881
  0
LINE
  8
0
 10
31.8833
 20
7.79881
 11
31.9688
 21
7.69783
  0
LINE
  8
0
 10
31.9688
 20
7.69783
 11
32.0683
 21
7.61015
  0
LINE
  8
0
 10
32.0683
 20
7.61015
 11
32.1818
 21
7.53577
  0
LINE
  8
0
 10
32.1818
 20
7.53577
 11
32.3082
 21
7.47653
  0
LINE
  8
0
 10
32.3082
 20
7.47653
 11
32.4462
 21
7.43422
  0
LINE
  8
0
 10
32.4462
 20
7.43422
 11
32.596
 21
7.40883
  0
LINE
  8
0
 10
32.596
 20
7.40883
 11
32.7574
 21
7.40036
  0
LINE
  8
0
 10
32.7574
 20
7.40036
 11
32.9545
 21
7.41302
  0
LINE
  8
0
 10
29.3016
 20
7.4104
 11
29.4704
 21
7.44052
  0
LINE
  8
0
 10
29.4704
 20
7.44052
 11
29.6223
 21
7.49072
  0
LINE
  8
0
 10
29.6223
 20
7.49072
 11
29.7575
 21
7.561
  0
LINE
  8
0
 10
29.7575
 20
7.561
 11
29.8734
 21
7.64821
  0
LINE
  8
0
 10
29.8734
 20
7.64821
 11
29.9676
 21
7.74921
  0
LINE
  8
0
 10
29.9676
 20
7.74921
 11
30.0402
 21
7.86397
  0
LINE
  8
0
 10
30.0402
 20
7.86397
 11
30.0912
 21
7.99252
  0
LINE
  8
0
 10
30.0912
 20
7.99252
 11
29.4964
 21
8.08777
  0
LINE
  8
0
 10
29.4964
 20
8.08777
 11
29.4728
 21
8.03856
  0
LINE
  8
0
 10
29.4728
 20
8.03856
 11
29.4419
 21
7.99554
  0
LINE
  8
0
 10
29.4419
 20
7.99554
 11
29.4039
 21
7.95871
  0
LINE
  8
0
 10
29.4039
 20
7.95871
 11
29.3587
 21
7.92807
  0
LINE
  8
0
 10
29.3587
 20
7.92807
 11
29.3077
 21
7.90396
  0
LINE
  8
0
 10
29.3077
 20
7.90396
 11
29.2521
 21
7.88675
  0
LINE
  8
0
 10
29.2521
 20
7.88675
 11
29.192
 21
7.87642
  0
LINE
  8
0
 10
29.192
 20
7.87642
 11
29.1273
 21
7.87297
  0
LINE
  8
0
 10
29.1273
 20
7.87297
 11
29.0372
 21
7.88004
  0
LINE
  8
0
 10
29.0372
 20
7.88004
 11
28.956
 21
7.90121
  0
LINE
  8
0
 10
28.956
 20
7.90121
 11
28.8837
 21
7.93652
  0
LINE
  8
0
 10
28.8837
 20
7.93652
 11
28.8204
 21
7.98596
  0
LINE
  8
0
 10
28.8204
 20
7.98596
 11
28.7684
 21
8.04953
  0
LINE
  8
0
 10
28.7684
 20
8.04953
 11
28.7298
 21
8.12723
  0
LINE
  8
0
 10
28.7298
 20
8.12723
 11
28.7048
 21
8.21906
  0
LINE
  8
0
 10
28.7048
 20
8.21906
 11
28.6933
 21
8.32501
  0
LINE
  8
0
 10
28.6933
 20
8.32501
 11
30.1218
 21
8.32501
  0
LINE
  8
0
 10
30.1218
 20
8.32501
 11
30.1218
 21
8.4894
  0
LINE
  8
0
 10
30.1218
 20
8.4894
 11
30.1135
 21
8.65465
  0
LINE
  8
0
 10
30.1135
 20
8.65465
 11
30.0885
 21
8.80672
  0
LINE
  8
0
 10
30.0885
 20
8.80672
 11
30.047
 21
8.94559
  0
LINE
  8
0
 10
30.047
 20
8.94559
 11
29.9889
 21
9.07127
  0
LINE
  8
0
 10
29.9889
 20
9.07127
 11
29.9162
 21
9.18312
  0
LINE
  8
0
 10
29.9162
 20
9.18312
 11
29.8311
 21
9.2805
  0
LINE
  8
0
 10
29.8311
 20
9.2805
 11
29.7336
 21
9.36339
  0
LINE
  8
0
 10
29.7336
 20
9.36339
 11
29.6236
 21
9.43181
  0
LINE
  8
0
 10
29.6236
 20
9.43181
 11
29.5032
 21
9.48534
  0
LINE
  8
0
 10
29.5032
 20
9.48534
 11
29.3743
 21
9.52357
  0
LINE
  8
0
 10
29.3743
 20
9.52357
 11
29.2369
 21
9.54651
  0
LINE
  8
0
 10
29.2369
 20
9.54651
 11
29.091
 21
9.55417
  0
LINE
  8
0
 10
29.091
 20
9.55417
 11
28.9357
 21
9.5457
  0
LINE
  8
0
 10
28.9357
 20
9.5457
 11
28.7908
 21
9.52031
  0
LINE
  8
0
 10
28.7908
 20
9.52031
 11
28.6564
 21
9.47798
  0
LINE
  8
0
 10
28.6564
 20
9.47798
 11
28.5326
 21
9.41873
  0
LINE
  8
0
 10
28.5326
 20
9.41873
 11
28.4208
 21
9.3443
  0
LINE
  8
0
 10
28.4208
 20
9.3443
 11
28.3225
 21
9.25644
  0
LINE
  8
0
 10
28.3225
 20
9.25644
 11
28.2377
 21
9.15515
  0
LINE
  8
0
 10
28.2377
 20
9.15515
 11
28.1664
 21
9.04045
  0
LINE
  8
0
 10
28.1664
 20
9.04045
 11
28.1099
 21
8.91414
  0
LINE
  8
0
 10
28.1099
 20
8.91414
 11
28.0696
 21
8.778
  0
LINE
  8
0
 10
28.0696
 20
8.778
 11
28.0454
 21
8.63206
  0
LINE
  8
0
 10
28.0454
 20
8.63206
 11
28.0373
 21
8.47632
  0
LINE
  8
0
 10
28.0373
 20
8.47632
 11
28.0553
 21
8.23856
  0
LINE
  8
0
 10
28.0553
 20
8.23856
 11
28.1093
 21
8.02777
  0
LINE
  8
0
 10
28.1093
 20
8.02777
 11
28.1992
 21
7.84395
  0
LINE
  8
0
 10
28.1992
 20
7.84395
 11
28.3251
 21
7.6871
  0
LINE
  8
0
 10
28.3251
 20
7.6871
 11
28.4825
 21
7.56165
  0
LINE
  8
0
 10
28.4825
 20
7.56165
 11
28.6667
 21
7.47205
  0
LINE
  8
0
 10
28.6667
 20
7.47205
 11
28.8779
 21
7.41829
  0
LINE
  8
0
 10
28.8779
 20
7.41829
 11
29.1159
 21
7.40036
  0
LINE
  8
0
 10
29.1159
 20
7.40036
 11
29.3016
 21
7.4104
  0
LINE
  8
0
 10
28.6971
 20
8.70421
 11
28.7119
 21
8.78658
  0
LINE
  8
0
 10
28.7119
 20
8.78658
 11
28.737
 21
8.85995
  0
LINE
  8
0
 10
28.737
 20
8.85995
 11
28.7726
 21
8.92435
  0
LINE
  8
0
 10
28.7726
 20
8.92435
 11
28.8185
 21
8.97975
  0
LINE
  8
0
 10
28.8185
 20
8.97975
 11
28.8743
 21
9.02429
  0
LINE
  8
0
 10
28.8743
 20
9.02429
 11
28.9392
 21
9.05609
  0
LINE
  8
0
 10
28.9392
 20
9.05609
 11
29.0134
 21
9.07518
  0
LINE
  8
0
 10
29.0134
 20
9.07518
 11
29.0968
 21
9.08156
  0
LINE
  8
0
 10
29.0968
 20
9.08156
 11
29.1791
 21
9.0753
  0
LINE
  8
0
 10
29.1791
 20
9.0753
 11
29.2521
 21
9.05656
  0
LINE
  8
0
 10
29.2521
 20
9.05656
 11
29.3158
 21
9.02534
  0
LINE
  8
0
 10
29.3158
 20
9.02534
 11
29.3702
 21
8.98161
  0
LINE
  8
0
 10
29.3702
 20
8.98161
 11
29.4149
 21
8.9268
  0
LINE
  8
0
 10
29.4149
 20
8.9268
 11
29.4496
 21
8.8623
  0
LINE
  8
0
 10
29.4496
 20
8.8623
 11
29.4742
 21
8.7881
  0
LINE
  8
0
 10
29.4742
 20
8.7881
 11
29.4888
 21
8.70421
  0
LINE
  8
0
 10
29.4888
 20
8.70421
 11
28.6971
 21
8.70421
  0
LINE
  8
0
 10
14.5483
 20
7.4104
 11
14.7171
 21
7.44052
  0
LINE
  8
0
 10
14.7171
 20
7.44052
 11
14.8691
 21
7.49072
  0
LINE
  8
0
 10
14.8691
 20
7.49072
 11
15.0042
 21
7.561
  0
LINE
  8
0
 10
15.0042
 20
7.561
 11
15.1201
 21
7.64821
  0
LINE
  8
0
 10
15.1201
 20
7.64821
 11
15.2143
 21
7.74921
  0
LINE
  8
0
 10
15.2143
 20
7.74921
 11
15.2869
 21
7.86397
  0
LINE
  8
0
 10
15.2869
 20
7.86397
 11
15.3379
 21
7.99252
  0
LINE
  8
0
 10
15.3379
 20
7.99252
 11
14.7431
 21
8.08777
  0
LINE
  8
0
 10
14.7431
 20
8.08777
 11
14.7195
 21
8.03856
  0
LINE
  8
0
 10
14.7195
 20
8.03856
 11
14.6887
 21
7.99554
  0
LINE
  8
0
 10
14.6887
 20
7.99554
 11
14.6507
 21
7.95871
  0
LINE
  8
0
 10
14.6507
 20
7.95871
 11
14.6055
 21
7.92807
  0
LINE
  8
0
 10
14.6055
 20
7.92807
 11
14.5544
 21
7.90396
  0
LINE
  8
0
 10
14.5544
 20
7.90396
 11
14.4989
 21
7.88675
  0
LINE
  8
0
 10
14.4989
 20
7.88675
 11
14.4387
 21
7.87642
  0
LINE
  8
0
 10
14.4387
 20
7.87642
 11
14.3741
 21
7.87297
  0
LINE
  8
0
 10
14.3741
 20
7.87297
 11
14.2839
 21
7.88004
  0
LINE
  8
0
 10
14.2839
 20
7.88004
 11
14.2027
 21
7.90121
  0
LINE
  8
0
 10
14.2027
 20
7.90121
 11
14.1304
 21
7.93652
  0
LINE
  8
0
 10
14.1304
 20
7.93652
 11
14.0672
 21
7.98596
  0
LINE
  8
0
 10
14.0672
 20
7.98596
 11
14.0151
 21
8.04953
  0
LINE
  8
0
 10
14.0151
 20
8.04953
 11
13.9766
 21
8.12723
  0
LINE
  8
0
 10
13.9766
 20
8.12723
 11
13.9515
 21
8.21906
  0
LINE
  8
0
 10
13.9515
 20
8.21906
 11
13.94
 21
8.32501
  0
LINE
  8
0
 10
13.94
 20
8.32501
 11
15.3685
 21
8.32501
  0
LINE
  8
0
 10
15.3685
 20
8.32501
 11
15.3685
 21
8.4894
  0
LINE
  8
0
 10
15.3685
 20
8.4894
 11
15.3602
 21
8.65465
  0
LINE
  8
0
 10
15.3602
 20
8.65465
 11
15.3353
 21
8.80672
  0
LINE
  8
0
 10
15.3353
 20
8.80672
 11
15.2937
 21
8.94559
  0
LINE
  8
0
 10
15.2937
 20
8.94559
 11
15.2356
 21
9.07127
  0
LINE
  8
0
 10
15.2356
 20
9.07127
 11
15.1629
 21
9.18312
  0
LINE
  8
0
 10
15.1629
 20
9.18312
 11
15.0778
 21
9.2805
  0
LINE
  8
0
 10
15.0778
 20
9.2805
 11
14.9803
 21
9.36339
  0
LINE
  8
0
 10
14.9803
 20
9.36339
 11
14.8703
 21
9.43181
  0
LINE
  8
0
 10
14.8703
 20
9.43181
 11
14.7499
 21
9.48534
  0
LINE
  8
0
 10
14.7499
 20
9.48534
 11
14.621
 21
9.52357
  0
LINE
  8
0
 10
14.621
 20
9.52357
 11
14.4836
 21
9.54651
  0
LINE
  8
0
 10
14.4836
 20
9.54651
 11
14.3378
 21
9.55417
  0
LINE
  8
0
 10
14.3378
 20
9.55417
 11
14.1824
 21
9.5457
  0
LINE
  8
0
 10
14.1824
 20
9.5457
 11
14.0375
 21
9.52031
  0
LINE
  8
0
 10
14.0375
 20
9.52031
 11
13.9032
 21
9.47798
  0
LINE
  8
0
 10
13.9032
 20
9.47798
 11
13.7793
 21
9.41873
  0
LINE
  8
0
 10
13.7793
 20
9.41873
 11
13.6675
 21
9.3443
  0
LINE
  8
0
 10
13.6675
 20
9.3443
 11
13.5692
 21
9.25644
  0
LINE
  8
0
 10
13.5692
 20
9.25644
 11
13.4844
 21
9.15515
  0
LINE
  8
0
 10
13.4844
 20
9.15515
 11
13.4131
 21
9.04045
  0
LINE
  8
0
 10
13.4131
 20
9.04045
 11
13.3567
 21
8.91414
  0
LINE
  8
0
 10
13.3567
 20
8.91414
 11
13.3163
 21
8.778
  0
LINE
  8
0
 10
13.3163
 20
8.778
 11
13.2921
 21
8.63206
  0
LINE
  8
0
 10
13.2921
 20
8.63206
 11
13.2841
 21
8.47632
  0
LINE
  8
0
 10
13.2841
 20
8.47632
 11
13.302
 21
8.23856
  0
LINE
  8
0
 10
13.302
 20
8.23856
 11
13.356
 21
8.02777
  0
LINE
  8
0
 10
13.356
 20
8.02777
 11
13.4459
 21
7.84395
  0
LINE
  8
0
 10
13.4459
 20
7.84395
 11
13.5719
 21
7.6871
  0
LINE
  8
0
 10
13.5719
 20
7.6871
 11
13.7292
 21
7.56165
  0
LINE
  8
0
 10
13.7292
 20
7.56165
 11
13.9135
 21
7.47205
  0
LINE
  8
0
 10
13.9135
 20
7.47205
 11
14.1246
 21
7.41829
  0
LINE
  8
0
 10
14.1246
 20
7.41829
 11
14.3626
 21
7.40036
  0
LINE
  8
0
 10
14.3626
 20
7.40036
 11
14.5483
 21
7.4104
  0
LINE
  8
0
 10
13.9438
 20
8.70421
 11
13.9586
 21
8.78658
  0
LINE
  8
0
 10
13.9586
 20
8.78658
 11
13.9837
 21
8.85995
  0
LINE
  8
0
 10
13.9837
 20
8.85995
 11
14.0193
 21
8.92435
  0
LINE
  8
0
 10
14.0193
 20
8.92435
 11
14.0652
 21
8.97975
  0
LINE
  8
0
 10
14.0652
 20
8.97975
 11
14.121
 21
9.02429
  0
LINE
  8
0
 10
14.121
 20
9.02429
 11
14.1859
 21
9.05609
  0
LINE
  8
0
 10
14.1859
 20
9.05609
 11
14.2601
 21
9.07518
  0
LINE
  8
0
 10
14.2601
 20
9.07518
 11
14.3435
 21
9.08156
  0
LINE
  8
0
 10
14.3435
 20
9.08156
 11
14.4258
 21
9.0753
  0
LINE
  8
0
 10
14.4258
 20
9.0753
 11
14.4989
 21
9.05656
  0
LINE
  8
0
 10
14.4989
 20
9.05656
 11
14.5626
 21
9.02534
  0
LINE
  8
0
 10
14.5626
 20
9.02534
 11
14.6169
 21
8.98161
  0
LINE
  8
0
 10
14.6169
 20
8.98161
 11
14.6617
 21
8.9268
  0
LINE
  8
0
 10
14.6617
 20
8.9268
 11
14.6963
 21
8.8623
  0
LINE
  8
0
 10
14.6963
 20
8.8623
 11
14.7209
 21
8.7881
  0
LINE
  8
0
 10
14.7209
 20
8.7881
 11
14.7355
 21
8.70421
  0
LINE
  8
0
 10
14.7355
 20
8.70421
 11
13.9438
 21
8.70421
  0
LINE
  8
0
 10
24.2332
 20
7.4229
 11
24.4046
 21
7.48489
  0
LINE
  8
0
 10
24.4046
 20
7.48489
 11
24.543
 21
7.58821
  0
LINE
  8
0
 10
24.543
 20
7.58821
 11
24.6484
 21
7.73285
  0
LINE
  8
0
 10
24.6484
 20
7.73285
 11
24.6656
 21
7.73285
  0
LINE
  8
0
 10
24.6656
 20
7.73285
 11
24.6656
 21
7.43959
  0
LINE
  8
0
 10
24.6656
 20
7.43959
 11
25.2929
 21
7.43959
  0
LINE
  8
0
 10
25.2929
 20
7.43959
 11
25.2929
 21
8.85739
  0
LINE
  8
0
 10
25.2929
 20
8.85739
 11
25.2849
 21
8.96521
  0
LINE
  8
0
 10
25.2849
 20
8.96521
 11
25.2611
 21
9.0645
  0
LINE
  8
0
 10
25.2611
 20
9.0645
 11
25.2214
 21
9.15527
  0
LINE
  8
0
 10
25.2214
 20
9.15527
 11
25.1657
 21
9.2375
  0
LINE
  8
0
 10
25.1657
 20
9.2375
 11
25.0966
 21
9.31078
  0
LINE
  8
0
 10
25.0966
 20
9.31078
 11
25.0165
 21
9.37457
  0
LINE
  8
0
 10
25.0165
 20
9.37457
 11
24.9255
 21
9.42892
  0
LINE
  8
0
 10
24.9255
 20
9.42892
 11
24.8234
 21
9.47382
  0
LINE
  8
0
 10
24.8234
 20
9.47382
 11
24.7127
 21
9.50896
  0
LINE
  8
0
 10
24.7127
 20
9.50896
 11
24.5956
 21
9.53407
  0
LINE
  8
0
 10
24.5956
 20
9.53407
 11
24.4722
 21
9.54913
  0
LINE
  8
0
 10
24.4722
 20
9.54913
 11
24.3425
 21
9.55417
  0
LINE
  8
0
 10
24.3425
 20
9.55417
 11
24.1514
 21
9.54372
  0
LINE
  8
0
 10
24.1514
 20
9.54372
 11
23.9798
 21
9.51236
  0
LINE
  8
0
 10
23.9798
 20
9.51236
 11
23.8277
 21
9.46011
  0
LINE
  8
0
 10
23.8277
 20
9.46011
 11
23.6951
 21
9.38696
  0
LINE
  8
0
 10
23.6951
 20
9.38696
 11
23.5837
 21
9.29713
  0
LINE
  8
0
 10
23.5837
 20
9.29713
 11
23.4951
 21
9.19481
  0
LINE
  8
0
 10
23.4951
 20
9.19481
 11
23.4293
 21
9.07999
  0
LINE
  8
0
 10
23.4293
 20
9.07999
 11
23.3863
 21
8.95267
  0
LINE
  8
0
 10
23.3863
 20
8.95267
 11
23.9906
 21
8.87607
  0
LINE
  8
0
 10
23.9906
 20
8.87607
 11
24.0079
 21
8.923
  0
LINE
  8
0
 10
24.0079
 20
8.923
 11
24.0331
 21
8.96478
  0
LINE
  8
0
 10
24.0331
 20
8.96478
 11
24.0662
 21
9.00143
  0
LINE
  8
0
 10
24.0662
 20
9.00143
 11
24.1072
 21
9.03296
  0
LINE
  8
0
 10
24.1072
 20
9.03296
 11
24.1553
 21
9.0583
  0
LINE
  8
0
 10
24.1553
 20
9.0583
 11
24.2095
 21
9.0764
  0
LINE
  8
0
 10
24.2095
 20
9.0764
 11
24.27
 21
9.08727
  0
LINE
  8
0
 10
24.27
 20
9.08727
 11
24.3367
 21
9.0909
  0
LINE
  8
0
 10
24.3367
 20
9.0909
 11
24.401
 21
9.08722
  0
LINE
  8
0
 10
24.401
 20
9.08722
 11
24.4579
 21
9.07617
  0
LINE
  8
0
 10
24.4579
 20
9.07617
 11
24.5076
 21
9.05779
  0
LINE
  8
0
 10
24.5076
 20
9.05779
 11
24.5499
 21
9.03206
  0
LINE
  8
0
 10
24.5499
 20
9.03206
 11
24.5838
 21
8.99954
  0
LINE
  8
0
 10
24.5838
 20
8.99954
 11
24.608
 21
8.96083
  0
LINE
  8
0
 10
24.608
 20
8.96083
 11
24.6225
 21
8.91594
  0
LINE
  8
0
 10
24.6225
 20
8.91594
 11
24.6274
 21
8.86485
  0
LINE
  8
0
 10
24.6274
 20
8.86485
 11
24.6274
 21
8.85739
  0
LINE
  8
0
 10
24.6274
 20
8.85739
 11
24.62
 21
8.81285
  0
LINE
  8
0
 10
24.62
 20
8.81285
 11
24.598
 21
8.77638
  0
LINE
  8
0
 10
24.598
 20
8.77638
 11
24.5612
 21
8.74794
  0
LINE
  8
0
 10
24.5612
 20
8.74794
 11
24.5098
 21
8.72757
  0
LINE
  8
0
 10
24.5098
 20
8.72757
 11
24.4413
 21
8.71187
  0
LINE
  8
0
 10
24.4413
 20
8.71187
 11
24.3537
 21
8.69745
  0
LINE
  8
0
 10
24.3537
 20
8.69745
 11
24.2468
 21
8.68431
  0
LINE
  8
0
 10
24.2468
 20
8.68431
 11
24.1206
 21
8.67245
  0
LINE
  8
0
 10
24.1206
 20
8.67245
 11
24.0148
 21
8.6602
  0
LINE
  8
0
 10
24.0148
 20
8.6602
 11
23.9134
 21
8.64211
  0
LINE
  8
0
 10
23.9134
 20
8.64211
 11
23.8164
 21
8.61816
  0
LINE
  8
0
 10
23.8164
 20
8.61816
 11
23.7238
 21
8.58839
  0
LINE
  8
0
 10
23.7238
 20
8.58839
 11
23.6379
 21
8.55127
  0
LINE
  8
0
 10
23.6379
 20
8.55127
 11
23.561
 21
8.50528
  0
LINE
  8
0
 10
23.561
 20
8.50528
 11
23.4931
 21
8.45041
  0
LINE
  8
0
 10
23.4931
 20
8.45041
 11
23.4341
 21
8.38666
  0
LINE
  8
0
 10
23.4341
 20
8.38666
 11
23.3864
 21
8.31252
  0
LINE
  8
0
 10
23.3864
 20
8.31252
 11
23.3523
 21
8.22649
  0
LINE
  8
0
 10
23.3523
 20
8.22649
 11
23.3319
 21
8.12852
  0
LINE
  8
0
 10
23.3319
 20
8.12852
 11
23.3251
 21
8.01866
  0
LINE
  8
0
 10
23.3251
 20
8.01866
 11
23.3375
 21
7.87343
  0
LINE
  8
0
 10
23.3375
 20
7.87343
 11
23.3746
 21
7.7478
  0
LINE
  8
0
 10
23.3746
 20
7.7478
 11
23.4364
 21
7.6418
  0
LINE
  8
0
 10
23.4364
 20
7.6418
 11
23.523
 21
7.5554
  0
LINE
  8
0
 10
23.523
 20
7.5554
 11
23.6289
 21
7.4884
  0
LINE
  8
0
 10
23.6289
 20
7.4884
 11
23.7484
 21
7.44054
  0
LINE
  8
0
 10
23.7484
 20
7.44054
 11
23.8818
 21
7.4118
  0
LINE
  8
0
 10
23.8818
 20
7.4118
 11
24.0288
 21
7.40224
  0
LINE
  8
0
 10
24.0288
 20
7.40224
 11
24.2332
 21
7.4229
  0
LINE
  8
0
 10
24.174
 20
7.83716
 11
24.1218
 21
7.8475
  0
LINE
  8
0
 10
24.1218
 20
7.8475
 11
24.075
 21
7.86473
  0
LINE
  8
0
 10
24.075
 20
7.86473
 11
24.0336
 21
7.88884
  0
LINE
  8
0
 10
24.0336
 20
7.88884
 11
23.9997
 21
7.91949
  0
LINE
  8
0
 10
23.9997
 20
7.91949
 11
23.9755
 21
7.95633
  0
LINE
  8
0
 10
23.9755
 20
7.95633
 11
23.961
 21
7.99934
  0
LINE
  8
0
 10
23.961
 20
7.99934
 11
23.9562
 21
8.04854
  0
LINE
  8
0
 10
23.9562
 20
8.04854
 11
23.9754
 21
8.14043
  0
LINE
  8
0
 10
23.9754
 20
8.14043
 11
24.0331
 21
8.21246
  0
LINE
  8
0
 10
24.0331
 20
8.21246
 11
24.1293
 21
8.26465
  0
LINE
  8
0
 10
24.1293
 20
8.26465
 11
24.264
 21
8.297
  0
LINE
  8
0
 10
24.264
 20
8.297
 11
24.3119
 21
8.30481
  0
LINE
  8
0
 10
24.3119
 20
8.30481
 11
24.3616
 21
8.31332
  0
LINE
  8
0
 10
24.3616
 20
8.31332
 11
24.4132
 21
8.32256
  0
LINE
  8
0
 10
24.4132
 20
8.32256
 11
24.4667
 21
8.33247
  0
LINE
  8
0
 10
24.4667
 20
8.33247
 11
24.518
 21
8.34334
  0
LINE
  8
0
 10
24.518
 20
8.34334
 11
24.5628
 21
8.35536
  0
LINE
  8
0
 10
24.5628
 20
8.35536
 11
24.6012
 21
8.36856
  0
LINE
  8
0
 10
24.6012
 20
8.36856
 11
24.6331
 21
8.38293
  0
LINE
  8
0
 10
24.6331
 20
8.38293
 11
24.6331
 21
8.18304
  0
LINE
  8
0
 10
24.6331
 20
8.18304
 11
24.6258
 21
8.10913
  0
LINE
  8
0
 10
24.6258
 20
8.10913
 11
24.604
 21
8.04247
  0
LINE
  8
0
 10
24.604
 20
8.04247
 11
24.5675
 21
7.98303
  0
LINE
  8
0
 10
24.5675
 20
7.98303
 11
24.5165
 21
7.93085
  0
LINE
  8
0
 10
24.5165
 20
7.93085
 11
24.4549
 21
7.88835
  0
LINE
  8
0
 10
24.4549
 20
7.88835
 11
24.3869
 21
7.858
  0
LINE
  8
0
 10
24.3869
 20
7.858
 11
24.3125
 21
7.8398
  0
LINE
  8
0
 10
24.3125
 20
7.8398
 11
24.2315
 21
7.83372
  0
LINE
  8
0
 10
24.2315
 20
7.83372
 11
24.174
 21
7.83716
  0
LINE
  8
0
 10
17.7911
 20
8.57906
 11
17.7987
 21
8.66801
  0
LINE
  8
0
 10
17.7987
 20
8.66801
 11
17.8215
 21
8.74811
  0
LINE
  8
0
 10
17.8215
 20
8.74811
 11
17.8594
 21
8.81932
  0
LINE
  8
0
 10
17.8594
 20
8.81932
 11
17.9125
 21
8.88165
  0
LINE
  8
0
 10
17.9125
 20
8.88165
 11
17.9773
 21
8.93233
  0
LINE
  8
0
 10
17.9773
 20
8.93233
 11
18.05
 21
8.96852
  0
LINE
  8
0
 10
18.05
 20
8.96852
 11
18.1307
 21
8.99025
  0
LINE
  8
0
 10
18.1307
 20
8.99025
 11
18.2195
 21
8.99748
  0
LINE
  8
0
 10
18.2195
 20
8.99748
 11
18.2511
 21
8.99696
  0
LINE
  8
0
 10
18.2511
 20
8.99696
 11
18.2847
 21
8.99539
  0
LINE
  8
0
 10
18.2847
 20
8.99539
 11
18.3204
 21
8.99275
  0
LINE
  8
0
 10
18.3204
 20
8.99275
 11
18.3581
 21
8.98909
  0
LINE
  8
0
 10
18.3581
 20
8.98909
 11
18.395
 21
8.98436
  0
LINE
  8
0
 10
18.395
 20
8.98436
 11
18.4281
 21
8.97858
  0
LINE
  8
0
 10
18.4281
 20
8.97858
 11
18.4576
 21
8.97176
  0
LINE
  8
0
 10
18.4576
 20
8.97176
 11
18.4834
 21
8.96388
  0
LINE
  8
0
 10
18.4834
 20
8.96388
 11
18.4834
 21
9.53174
  0
LINE
  8
0
 10
18.4834
 20
9.53174
 11
18.4371
 21
9.54155
  0
LINE
  8
0
 10
18.4371
 20
9.54155
 11
18.3902
 21
9.54855
  0
LINE
  8
0
 10
18.3902
 20
9.54855
 11
18.3425
 21
9.55276
  0
LINE
  8
0
 10
18.3425
 20
9.55276
 11
18.2941
 21
9.55417
  0
LINE
  8
0
 10
18.2941
 20
9.55417
 11
18.2088
 21
9.54785
  0
LINE
  8
0
 10
18.2088
 20
9.54785
 11
18.1289
 21
9.52895
  0
LINE
  8
0
 10
18.1289
 20
9.52895
 11
18.0544
 21
9.49742
  0
LINE
  8
0
 10
18.0544
 20
9.49742
 11
17.9852
 21
9.45329
  0
LINE
  8
0
 10
17.9852
 20
9.45329
 11
17.9235
 21
9.39632
  0
LINE
  8
0
 10
17.9235
 20
9.39632
 11
17.8712
 21
9.32626
  0
LINE
  8
0
 10
17.8712
 20
9.32626
 11
17.8283
 21
9.24315
  0
LINE
  8
0
 10
17.8283
 20
9.24315
 11
17.795
 21
9.14694
  0
LINE
  8
0
 10
17.795
 20
9.14694
 11
17.772
 21
9.14694
  0
LINE
  8
0
 10
17.772
 20
9.14694
 11
17.772
 21
9.528
  0
LINE
  8
0
 10
17.772
 20
9.528
 11
17.1237
 21
9.528
  0
LINE
  8
0
 10
17.1237
 20
9.528
 11
17.1237
 21
7.43959
  0
LINE
  8
0
 10
17.1237
 20
7.43959
 11
17.7911
 21
7.43959
  0
LINE
  8
0
 10
17.7911
 20
7.43959
 11
17.7911
 21
8.57906
  0
LINE
  8
0
 10
35.1953
 20
7.40883
 11
35.3449
 21
7.43422
  0
LINE
  8
0
 10
35.3449
 20
7.43422
 11
35.4827
 21
7.47653
  0
LINE
  8
0
 10
35.4827
 20
7.47653
 11
35.6086
 21
7.53577
  0
LINE
  8
0
 10
35.6086
 20
7.53577
 11
35.7216
 21
7.61015
  0
LINE
  8
0
 10
35.7216
 20
7.61015
 11
35.8208
 21
7.69783
  0
LINE
  8
0
 10
35.8208
 20
7.69783
 11
35.9062
 21
7.79881
  0
LINE
  8
0
 10
35.9062
 20
7.79881
 11
35.9776
 21
7.9131
  0
LINE
  8
0
 10
35.9776
 20
7.9131
 11
36.0341
 21
8.03903
  0
LINE
  8
0
 10
36.0341
 20
8.03903
 11
36.0745
 21
8.17487
  0
LINE
  8
0
 10
36.0745
 20
8.17487
 11
36.0987
 21
8.32063
  0
LINE
  8
0
 10
36.0987
 20
8.32063
 11
36.1067
 21
8.47632
  0
LINE
  8
0
 10
36.1067
 20
8.47632
 11
36.0987
 21
8.63206
  0
LINE
  8
0
 10
36.0987
 20
8.63206
 11
36.0745
 21
8.778
  0
LINE
  8
0
 10
36.0745
 20
8.778
 11
36.0341
 21
8.91414
  0
LINE
  8
0
 10
36.0341
 20
8.91414
 11
35.9776
 21
9.04045
  0
LINE
  8
0
 10
35.9776
 20
9.04045
 11
35.9062
 21
9.15515
  0
LINE
  8
0
 10
35.9062
 20
9.15515
 11
35.8208
 21
9.25644
  0
LINE
  8
0
 10
35.8208
 20
9.25644
 11
35.7216
 21
9.3443
  0
LINE
  8
0
 10
35.7216
 20
9.3443
 11
35.6086
 21
9.41873
  0
LINE
  8
0
 10
35.6086
 20
9.41873
 11
35.4827
 21
9.47798
  0
LINE
  8
0
 10
35.4827
 20
9.47798
 11
35.3449
 21
9.52031
  0
LINE
  8
0
 10
35.3449
 20
9.52031
 11
35.1953
 21
9.5457
  0
LINE
  8
0
 10
35.1953
 20
9.5457
 11
35.0339
 21
9.55417
  0
LINE
  8
0
 10
35.0339
 20
9.55417
 11
34.8725
 21
9.5457
  0
LINE
  8
0
 10
34.8725
 20
9.5457
 11
34.7227
 21
9.52031
  0
LINE
  8
0
 10
34.7227
 20
9.52031
 11
34.5847
 21
9.47798
  0
LINE
  8
0
 10
34.5847
 20
9.47798
 11
34.4583
 21
9.41873
  0
LINE
  8
0
 10
34.4583
 20
9.41873
 11
34.3448
 21
9.3443
  0
LINE
  8
0
 10
34.3448
 20
9.3443
 11
34.2453
 21
9.25644
  0
LINE
  8
0
 10
34.2453
 20
9.25644
 11
34.1598
 21
9.15515
  0
LINE
  8
0
 10
34.1598
 20
9.15515
 11
34.0883
 21
9.04045
  0
LINE
  8
0
 10
34.0883
 20
9.04045
 11
34.0318
 21
8.91414
  0
LINE
  8
0
 10
34.0318
 20
8.91414
 11
33.9915
 21
8.778
  0
LINE
  8
0
 10
33.9915
 20
8.778
 11
33.9673
 21
8.63206
  0
LINE
  8
0
 10
33.9673
 20
8.63206
 11
33.9592
 21
8.47632
  0
LINE
  8
0
 10
33.9592
 20
8.47632
 11
33.9673
 21
8.32063
  0
LINE
  8
0
 10
33.9673
 20
8.32063
 11
33.9915
 21
8.17487
  0
LINE
  8
0
 10
33.9915
 20
8.17487
 11
34.0318
 21
8.03903
  0
LINE
  8
0
 10
34.0318
 20
8.03903
 11
34.0883
 21
7.9131
  0
LINE
  8
0
 10
34.0883
 20
7.9131
 11
34.1598
 21
7.79881
  0
LINE
  8
0
 10
34.1598
 20
7.79881
 11
34.2453
 21
7.69783
  0
LINE
  8
0
 10
34.2453
 20
7.69783
 11
34.3448
 21
7.61015
  0
LINE
  8
0
 10
34.3448
 20
7.61015
 11
34.4583
 21
7.53577
  0
LINE
  8
0
 10
34.4583
 20
7.53577
 11
34.5847
 21
7.47653
  0
LINE
  8
0
 10
34.5847
 20
7.47653
 11
34.7227
 21
7.43422
  0
LINE
  8
0
 10
34.7227
 20
7.43422
 11
34.8725
 21
7.40883
  0
LINE
  8
0
 10
34.8725
 20
7.40883
 11
35.0339
 21
7.40036
  0
LINE
  8
0
 10
35.0339
 20
7.40036
 11
35.1953
 21
7.40883
  0
LINE
  8
0
 10
34.9439
 20
7.90909
 11
34.8652
 21
7.93904
  0
LINE
  8
0
 10
34.8652
 20
7.93904
 11
34.7976
 21
7.98895
  0
LINE
  8
0
 10
34.7976
 20
7.98895
 11
34.7413
 21
8.05882
  0
LINE
  8
0
 10
34.7413
 20
8.05882
 11
34.697
 21
8.14503
  0
LINE
  8
0
 10
34.697
 20
8.14503
 11
34.6653
 21
8.24399
  0
LINE
  8
0
 10
34.6653
 20
8.24399
 11
34.6463
 21
8.35567
  0
LINE
  8
0
 10
34.6463
 20
8.35567
 11
34.64
 21
8.48006
  0
LINE
  8
0
 10
34.64
 20
8.48006
 11
34.6463
 21
8.60428
  0
LINE
  8
0
 10
34.6463
 20
8.60428
 11
34.6653
 21
8.71542
  0
LINE
  8
0
 10
34.6653
 20
8.71542
 11
34.697
 21
8.81349
  0
LINE
  8
0
 10
34.697
 20
8.81349
 11
34.7413
 21
8.89848
  0
LINE
  8
0
 10
34.7413
 20
8.89848
 11
34.7976
 21
8.96715
  0
LINE
  8
0
 10
34.7976
 20
8.96715
 11
34.8652
 21
9.01617
  0
LINE
  8
0
 10
34.8652
 20
9.01617
 11
34.9439
 21
9.04561
  0
LINE
  8
0
 10
34.9439
 20
9.04561
 11
35.0339
 21
9.05542
  0
LINE
  8
0
 10
35.0339
 20
9.05542
 11
35.1239
 21
9.04561
  0
LINE
  8
0
 10
35.1239
 20
9.04561
 11
35.2027
 21
9.01617
  0
LINE
  8
0
 10
35.2027
 20
9.01617
 11
35.2702
 21
8.96715
  0
LINE
  8
0
 10
35.2702
 20
8.96715
 11
35.3265
 21
8.89848
  0
LINE
  8
0
 10
35.3265
 20
8.89848
 11
35.3708
 21
8.81349
  0
LINE
  8
0
 10
35.3708
 20
8.81349
 11
35.4025
 21
8.71542
  0
LINE
  8
0
 10
35.4025
 20
8.71542
 11
35.4215
 21
8.60428
  0
LINE
  8
0
 10
35.4215
 20
8.60428
 11
35.4279
 21
8.48006
  0
LINE
  8
0
 10
35.4279
 20
8.48006
 11
35.4215
 21
8.35567
  0
LINE
  8
0
 10
35.4215
 20
8.35567
 11
35.4025
 21
8.24399
  0
LINE
  8
0
 10
35.4025
 20
8.24399
 11
35.3708
 21
8.14503
  0
LINE
  8
0
 10
35.3708
 20
8.14503
 11
35.3265
 21
8.05882
  0
LINE
  8
0
 10
35.3265
 20
8.05882
 11
35.2702
 21
7.98895
  0
LINE
  8
0
 10
35.2702
 20
7.98895
 11
35.2027
 21
7.93904
  0
LINE
  8
0
 10
35.2027
 20
7.93904
 11
35.1239
 21
7.90909
  0
LINE
  8
0
 10
35.1239
 20
7.90909
 11
35.0339
 21
7.89911
  0
LINE
  8
0
 10
35.0339
 20
7.89911
 11
34.9439
 21
7.90909
  0
LINE
  8
0
 10
19.4065
 20
9.528
 11
18.7391
 21
9.528
  0
LINE
  8
0
 10
18.7391
 20
9.528
 11
18.7391
 21
7.43959
  0
LINE
  8
0
 10
18.7391
 20
7.43959
 11
19.4065
 21
7.43959
  0
LINE
  8
0
 10
19.4065
 20
7.43959
 11
19.4065
 21
9.528
  0
LINE
  8
0
 10
8.19412
 20
1.33881
 11
8.24406
 21
1.39435
  0
LINE
  8
0
 10
8.24406
 20
1.39435
 11
8.29105
 21
1.45079
  0
LINE
  8
0
 10
8.29105
 20
1.45079
 11
8.3351
 21
1.5083
  0
LINE
  8
0
 10
8.3351
 20
1.5083
 11
8.37625
 21
1.56702
  0
LINE
  8
0
 10
8.37625
 20
1.56702
 11
8.41452
 21
1.62709
  0
LINE
  8
0
 10
8.41452
 20
1.62709
 11
8.44995
 21
1.68867
  0
LINE
  8
0
 10
8.44995
 20
1.68867
 11
8.48257
 21
1.75192
  0
LINE
  8
0
 10
8.48257
 20
1.75192
 11
8.51241
 21
1.81699
  0
LINE
  8
0
 10
8.51241
 20
1.81699
 11
8.53949
 21
1.88403
  0
LINE
  8
0
 10
8.53949
 20
1.88403
 11
8.56384
 21
1.95317
  0
LINE
  8
0
 10
8.56384
 20
1.95317
 11
8.58551
 21
2.0246
  0
LINE
  8
0
 10
8.58551
 20
2.0246
 11
8.60451
 21
2.09843
  0
LINE
  8
0
 10
8.60451
 20
2.09843
 11
8.62088
 21
2.17485
  0
LINE
  8
0
 10
8.62088
 20
2.17485
 11
8.63466
 21
2.25398
  0
LINE
  8
0
 10
8.63466
 20
2.25398
 11
8.64586
 21
2.336
  0
LINE
  8
0
 10
8.64586
 20
2.336
 11
8.65451
 21
2.42102
  0
LINE
  8
0
 10
8.65451
 20
2.42102
 11
8.66066
 21
2.50923
  0
LINE
  8
0
 10
8.66066
 20
2.50923
 11
8.66432
 21
2.60077
  0
LINE
  8
0
 10
8.66432
 20
2.60077
 11
8.66554
 21
2.69579
  0
LINE
  8
0
 10
8.66554
 20
2.69579
 11
8.66554
 21
8.94789
  0
LINE
  8
0
 10
8.66554
 20
8.94789
 11
6.12436
 21
7.57646
  0
LINE
  8
0
 10
6.12436
 20
7.57646
 11
6.12436
 21
2.61511
  0
LINE
  8
0
 10
6.12436
 20
2.61511
 11
8.14117
 21
1.28403
  0
LINE
  8
0
 10
8.14117
 20
1.28403
 11
8.19412
 21
1.33881
  0
LINE
  8
0
 10
30.9605
 20
7.4066
 11
31.0278
 21
7.42534
  0
LINE
  8
0
 10
31.0278
 20
7.42534
 11
31.0891
 21
7.45657
  0
LINE
  8
0
 10
31.0891
 20
7.45657
 11
31.1442
 21
7.50029
  0
LINE
  8
0
 10
31.1442
 20
7.50029
 11
31.1898
 21
7.55324
  0
LINE
  8
0
 10
31.1898
 20
7.55324
 11
31.2224
 21
7.61214
  0
LINE
  8
0
 10
31.2224
 20
7.61214
 11
31.2419
 21
7.677
  0
LINE
  8
0
 10
31.2419
 20
7.677
 11
31.2484
 21
7.7478
  0
LINE
  8
0
 10
31.2484
 20
7.7478
 11
31.2419
 21
7.81943
  0
LINE
  8
0
 10
31.2419
 20
7.81943
 11
31.2224
 21
7.88487
  0
LINE
  8
0
 10
31.2224
 20
7.88487
 11
31.1898
 21
7.94411
  0
LINE
  8
0
 10
31.1898
 20
7.94411
 11
31.1442
 21
7.99718
  0
LINE
  8
0
 10
31.1442
 20
7.99718
 11
31.0891
 21
8.04091
  0
LINE
  8
0
 10
31.0891
 20
8.04091
 11
31.0278
 21
8.07214
  0
LINE
  8
0
 10
31.0278
 20
8.07214
 11
30.9605
 21
8.09088
  0
LINE
  8
0
 10
30.9605
 20
8.09088
 11
30.887
 21
8.09714
  0
LINE
  8
0
 10
30.887
 20
8.09714
 11
30.8136
 21
8.09088
  0
LINE
  8
0
 10
30.8136
 20
8.09088
 11
30.7462
 21
8.07214
  0
LINE
  8
0
 10
30.7462
 20
8.07214
 11
30.685
 21
8.04091
  0
LINE
  8
0
 10
30.685
 20
8.04091
 11
30.6298
 21
7.99718
  0
LINE
  8
0
 10
30.6298
 20
7.99718
 11
30.5842
 21
7.94411
  0
LINE
  8
0
 10
30.5842
 20
7.94411
 11
30.5517
 21
7.88487
  0
LINE
  8
0
 10
30.5517
 20
7.88487
 11
30.5321
 21
7.81943
  0
LINE
  8
0
 10
30.5321
 20
7.81943
 11
30.5256
 21
7.7478
  0
LINE
  8
0
 10
30.5256
 20
7.7478
 11
30.5321
 21
7.677
  0
LINE
  8
0
 10
30.5321
 20
7.677
 11
30.5517
 21
7.61214
  0
LINE
  8
0
 10
30.5517
 20
7.61214
 11
30.5842
 21
7.55324
  0
LINE
  8
0
 10
30.5842
 20
7.55324
 11
30.6298
 21
7.50029
  0
LINE
  8
0
 10
30.6298
 20
7.50029
 11
30.685
 21
7.45657
  0
LINE
  8
0
 10
30.685
 20
7.45657
 11
30.7462
 21
7.42534
  0
LINE
  8
0
 10
30.7462
 20
7.42534
 11
30.8136
 21
7.4066
  0
LINE
  8
0
 10
30.8136
 20
7.4066
 11
30.887
 21
7.40036
  0
LINE
  8
0
 10
30.887
 20
7.40036
 11
30.9605
 21
7.4066
  0
LINE
  8
0
 10
29.6768
 20
4.02354
 11
29.9117
 21
4.0927
  0
LINE
  8
0
 10
29.9117
 20
4.0927
 11
30.1151
 21
4.20793
  0
LINE
  8
0
 10
30.1151
 20
4.20793
 11
30.2871
 21
4.36926
  0
LINE
  8
0
 10
30.2871
 20
4.36926
 11
30.4238
 21
4.57188
  0
LINE
  8
0
 10
30.4238
 20
4.57188
 11
30.5215
 21
4.81099
  0
LINE
  8
0
 10
30.5215
 20
4.81099
 11
30.5801
 21
5.08658
  0
LINE
  8
0
 10
30.5801
 20
5.08658
 11
30.5996
 21
5.39867
  0
LINE
  8
0
 10
30.5996
 20
5.39867
 11
30.5908
 21
5.61124
  0
LINE
  8
0
 10
30.5908
 20
5.61124
 11
30.5642
 21
5.80791
  0
LINE
  8
0
 10
30.5642
 20
5.80791
 11
30.52
 21
5.98869
  0
LINE
  8
0
 10
30.52
 20
5.98869
 11
30.4581
 21
6.15355
  0
LINE
  8
0
 10
30.4581
 20
6.15355
 11
30.3795
 21
6.30128
  0
LINE
  8
0
 10
30.3795
 20
6.30128
 11
30.2854
 21
6.43059
  0
LINE
  8
0
 10
30.2854
 20
6.43059
 11
30.1758
 21
6.54147
  0
LINE
  8
0
 10
30.1758
 20
6.54147
 11
30.0506
 21
6.63394
  0
LINE
  8
0
 10
30.0506
 20
6.63394
 11
29.9109
 21
6.70682
  0
LINE
  8
0
 10
29.9109
 20
6.70682
 11
29.7576
 21
6.75887
  0
LINE
  8
0
 10
29.7576
 20
6.75887
 11
29.5908
 21
6.7901
  0
LINE
  8
0
 10
29.5908
 20
6.7901
 11
29.4104
 21
6.80051
  0
LINE
  8
0
 10
29.4104
 20
6.80051
 11
29.1456
 21
6.77739
  0
LINE
  8
0
 10
29.1456
 20
6.77739
 11
28.9115
 21
6.70807
  0
LINE
  8
0
 10
28.9115
 20
6.70807
 11
28.7082
 21
6.59254
  0
LINE
  8
0
 10
28.7082
 20
6.59254
 11
28.5356
 21
6.4308
  0
LINE
  8
0
 10
28.5356
 20
6.4308
 11
28.3981
 21
6.22766
  0
LINE
  8
0
 10
28.3981
 20
6.22766
 11
28.2999
 21
5.98793
  0
LINE
  8
0
 10
28.2999
 20
5.98793
 11
28.2409
 21
5.71159
  0
LINE
  8
0
 10
28.2409
 20
5.71159
 11
28.2213
 21
5.39867
  0
LINE
  8
0
 10
28.2213
 20
5.39867
 11
28.2409
 21
5.08583
  0
LINE
  8
0
 10
28.2409
 20
5.08583
 11
28.2999
 21
4.80984
  0
LINE
  8
0
 10
28.2999
 20
4.80984
 11
28.3981
 21
4.57068
  0
LINE
  8
0
 10
28.3981
 20
4.57068
 11
28.5356
 21
4.36833
  0
LINE
  8
0
 10
28.5356
 20
4.36833
 11
28.7082
 21
4.20741
  0
LINE
  8
0
 10
28.7082
 20
4.20741
 11
28.9115
 21
4.09247
  0
LINE
  8
0
 10
28.9115
 20
4.09247
 11
29.1456
 21
4.0235
  0
LINE
  8
0
 10
29.1456
 20
4.0235
 11
29.4104
 21
4.0005
  0
LINE
  8
0
 10
29.4104
 20
4.0005
 11
29.6768
 21
4.02354
  0
LINE
  8
0
 10
29.2969
 20
4.54346
 11
29.1974
 21
4.58566
  0
LINE
  8
0
 10
29.1974
 20
4.58566
 11
29.1121
 21
4.65599
  0
LINE
  8
0
 10
29.1121
 20
4.65599
 11
29.041
 21
4.75447
  0
LINE
  8
0
 10
29.041
 20
4.75447
 11
28.9849
 21
4.87915
  0
LINE
  8
0
 10
28.9849
 20
4.87915
 11
28.9448
 21
5.02808
  0
LINE
  8
0
 10
28.9448
 20
5.02808
 11
28.9207
 21
5.20125
  0
LINE
  8
0
 10
28.9207
 20
5.20125
 11
28.9127
 21
5.39867
  0
LINE
  8
0
 10
28.9127
 20
5.39867
 11
28.9208
 21
5.59706
  0
LINE
  8
0
 10
28.9208
 20
5.59706
 11
28.945
 21
5.77132
  0
LINE
  8
0
 10
28.945
 20
5.77132
 11
28.9854
 21
5.92143
  0
LINE
  8
0
 10
28.9854
 20
5.92143
 11
29.0419
 21
6.04742
  0
LINE
  8
0
 10
29.0419
 20
6.04742
 11
29.1134
 21
6.14709
  0
LINE
  8
0
 10
29.1134
 20
6.14709
 11
29.1986
 21
6.21829
  0
LINE
  8
0
 10
29.1986
 20
6.21829
 11
29.2976
 21
6.26102
  0
LINE
  8
0
 10
29.2976
 20
6.26102
 11
29.4104
 21
6.27525
  0
LINE
  8
0
 10
29.4104
 20
6.27525
 11
29.524
 21
6.26102
  0
LINE
  8
0
 10
29.524
 20
6.26102
 11
29.6237
 21
6.21829
  0
LINE
  8
0
 10
29.6237
 20
6.21829
 11
29.7093
 21
6.14709
  0
LINE
  8
0
 10
29.7093
 20
6.14709
 11
29.7808
 21
6.04742
  0
LINE
  8
0
 10
29.7808
 20
6.04742
 11
29.8374
 21
5.92143
  0
LINE
  8
0
 10
29.8374
 20
5.92143
 11
29.8777
 21
5.77132
  0
LINE
  8
0
 10
29.8777
 20
5.77132
 11
29.9019
 21
5.59706
  0
LINE
  8
0
 10
29.9019
 20
5.59706
 11
29.91
 21
5.39867
  0
LINE
  8
0
 10
29.91
 20
5.39867
 11
29.9019
 21
5.20125
  0
LINE
  8
0
 10
29.9019
 20
5.20125
 11
29.8777
 21
5.02808
  0
LINE
  8
0
 10
29.8777
 20
5.02808
 11
29.8374
 21
4.87915
  0
LINE
  8
0
 10
29.8374
 20
4.87915
 11
29.7808
 21
4.75447
  0
LINE
  8
0
 10
29.7808
 20
4.75447
 11
29.7093
 21
4.65599
  0
LINE
  8
0
 10
29.7093
 20
4.65599
 11
29.6237
 21
4.58566
  0
LINE
  8
0
 10
29.6237
 20
4.58566
 11
29.524
 21
4.54346
  0
LINE
  8
0
 10
29.524
 20
4.54346
 11
29.4104
 21
4.52939
  0
LINE
  8
0
 10
29.4104
 20
4.52939
 11
29.2969
 21
4.54346
  0
LINE
  8
0
 10
32.1911
 20
6.76389
 11
31.4977
 21
6.76389
  0
LINE
  8
0
 10
31.4977
 20
6.76389
 11
30.867
 21
6.34663
  0
LINE
  8
0
 10
30.867
 20
6.34663
 11
30.867
 21
5.77933
  0
LINE
  8
0
 10
30.867
 20
5.77933
 11
31.5034
 21
6.20204
  0
LINE
  8
0
 10
31.5034
 20
6.20204
 11
31.5224
 21
6.20204
  0
LINE
  8
0
 10
31.5224
 20
6.20204
 11
31.5224
 21
4.03709
  0
LINE
  8
0
 10
31.5224
 20
4.03709
 11
32.1911
 21
4.03709
  0
LINE
  8
0
 10
32.1911
 20
4.03709
 11
32.1911
 21
6.76389
  0
LINE
  8
0
 10
14.0768
 20
5.21198
 11
14.0765
 21
5.26706
  0
LINE
  8
0
 10
14.0765
 20
5.26706
 11
14.0756
 21
5.32979
  0
LINE
  8
0
 10
14.0756
 20
5.32979
 11
14.0742
 21
5.40019
  0
LINE
  8
0
 10
14.0742
 20
5.40019
 11
14.0721
 21
5.47824
  0
LINE
  8
0
 10
14.0721
 20
5.47824
 11
14.0671
 21
5.64868
  0
LINE
  8
0
 10
14.0671
 20
5.64868
 11
14.0616
 21
5.83238
  0
LINE
  8
0
 10
14.0616
 20
5.83238
 11
14.0589
 21
5.92685
  0
LINE
  8
0
 10
14.0589
 20
5.92685
 11
14.0564
 21
6.01996
  0
LINE
  8
0
 10
14.0564
 20
6.01996
 11
14.0542
 21
6.11169
  0
LINE
  8
0
 10
14.0542
 20
6.11169
 11
14.0521
 21
6.20204
  0
LINE
  8
0
 10
14.0521
 20
6.20204
 11
14.0762
 21
6.10616
  0
LINE
  8
0
 10
14.0762
 20
6.10616
 11
14.1008
 21
6.01059
  0
LINE
  8
0
 10
14.1008
 20
6.01059
 11
14.1261
 21
5.91537
  0
LINE
  8
0
 10
14.1261
 20
5.91537
 11
14.1519
 21
5.8205
  0
LINE
  8
0
 10
14.1519
 20
5.8205
 11
14.1777
 21
5.72768
  0
LINE
  8
0
 10
14.1777
 20
5.72768
 11
14.2029
 21
5.63864
  0
LINE
  8
0
 10
14.2029
 20
5.63864
 11
14.2276
 21
5.55336
  0
LINE
  8
0
 10
14.2276
 20
5.55336
 11
14.2516
 21
5.47185
  0
LINE
  8
0
 10
14.2516
 20
5.47185
 11
14.2744
 21
5.3959
  0
LINE
  8
0
 10
14.2744
 20
5.3959
 11
14.2953
 21
5.32729
  0
LINE
  8
0
 10
14.2953
 20
5.32729
 11
14.3143
 21
5.26598
  0
LINE
  8
0
 10
14.3143
 20
5.26598
 11
14.3314
 21
5.21198
  0
LINE
  8
0
 10
14.3314
 20
5.21198
 11
14.7398
 21
4.03709
  0
LINE
  8
0
 10
14.7398
 20
4.03709
 11
15.3002
 21
4.03709
  0
LINE
  8
0
 10
15.3002
 20
4.03709
 11
15.7029
 21
5.21198
  0
LINE
  8
0
 10
15.7029
 20
5.21198
 11
15.7208
 21
5.26797
  0
LINE
  8
0
 10
15.7208
 20
5.26797
 11
15.7404
 21
5.33163
  0
LINE
  8
0
 10
15.7404
 20
5.33163
 11
15.7617
 21
5.40294
  0
LINE
  8
0
 10
15.7617
 20
5.40294
 11
15.7846
 21
5.48192
  0
LINE
  8
0
 10
15.7846
 20
5.48192
 11
15.8086
 21
5.56662
  0
LINE
  8
0
 10
15.8086
 20
5.56662
 11
15.8333
 21
5.65509
  0
LINE
  8
0
 10
15.8333
 20
5.65509
 11
15.8585
 21
5.74734
  0
LINE
  8
0
 10
15.8585
 20
5.74734
 11
15.8843
 21
5.84335
  0
LINE
  8
0
 10
15.8843
 20
5.84335
 11
15.9101
 21
5.94116
  0
LINE
  8
0
 10
15.9101
 20
5.94116
 11
15.9354
 21
6.03873
  0
LINE
  8
0
 10
15.9354
 20
6.03873
 11
15.96
 21
6.13606
  0
LINE
  8
0
 10
15.96
 20
6.13606
 11
15.984
 21
6.23317
  0
LINE
  8
0
 10
15.984
 20
6.23317
 11
15.982
 21
6.14075
  0
LINE
  8
0
 10
15.982
 20
6.14075
 11
15.9798
 21
6.04651
  0
LINE
  8
0
 10
15.9798
 20
6.04651
 11
15.9773
 21
5.95042
  0
LINE
  8
0
 10
15.9773
 20
5.95042
 11
15.9745
 21
5.85251
  0
LINE
  8
0
 10
15.9745
 20
5.85251
 11
15.9691
 21
5.66196
  0
LINE
  8
0
 10
15.9691
 20
5.66196
 11
15.9641
 21
5.48558
  0
LINE
  8
0
 10
15.9641
 20
5.48558
 11
15.962
 21
5.40501
  0
LINE
  8
0
 10
15.962
 20
5.40501
 11
15.9605
 21
5.33255
  0
LINE
  8
0
 10
15.9605
 20
5.33255
 11
15.9596
 21
5.2682
  0
LINE
  8
0
 10
15.9596
 20
5.2682
 11
15.9593
 21
5.21198
  0
LINE
  8
0
 10
15.9593
 20
5.21198
 11
15.9593
 21
4.03709
  0
LINE
  8
0
 10
15.9593
 20
4.03709
 11
16.6337
 21
4.03709
  0
LINE
  8
0
 10
16.6337
 20
4.03709
 11
16.6337
 21
6.76389
  0
LINE
  8
0
 10
16.6337
 20
6.76389
 11
15.587
 21
6.76389
  0
LINE
  8
0
 10
15.587
 20
6.76389
 11
15.2318
 21
5.70244
  0
LINE
  8
0
 10
15.2318
 20
5.70244
 11
15.217
 21
5.65218
  0
LINE
  8
0
 10
15.217
 20
5.65218
 11
15.2012
 21
5.59471
  0
LINE
  8
0
 10
15.2012
 20
5.59471
 11
15.1842
 21
5.53003
  0
LINE
  8
0
 10
15.1842
 20
5.53003
 11
15.1663
 21
5.45815
  0
LINE
  8
0
 10
15.1663
 20
5.45815
 11
15.1478
 21
5.38127
  0
LINE
  8
0
 10
15.1478
 20
5.38127
 11
15.1292
 21
5.30167
  0
LINE
  8
0
 10
15.1292
 20
5.30167
 11
15.1107
 21
5.21931
  0
LINE
  8
0
 10
15.1107
 20
5.21931
 11
15.0922
 21
5.13422
  0
LINE
  8
0
 10
15.0922
 20
5.13422
 11
15.074
 21
5.04837
  0
LINE
  8
0
 10
15.074
 20
5.04837
 11
15.0563
 21
4.96381
  0
LINE
  8
0
 10
15.0563
 20
4.96381
 11
15.0393
 21
4.88048
  0
LINE
  8
0
 10
15.0393
 20
4.88048
 11
15.0228
 21
4.7984
  0
LINE
  8
0
 10
15.0228
 20
4.7984
 11
15.0055
 21
4.88054
  0
LINE
  8
0
 10
15.0055
 20
4.88054
 11
14.9877
 21
4.96404
  0
LINE
  8
0
 10
14.9877
 20
4.96404
 11
14.9694
 21
5.04889
  0
LINE
  8
0
 10
14.9694
 20
5.04889
 11
14.9506
 21
5.13513
  0
LINE
  8
0
 10
14.9506
 20
5.13513
 11
14.9317
 21
5.22058
  0
LINE
  8
0
 10
14.9317
 20
5.22058
 11
14.9129
 21
5.30304
  0
LINE
  8
0
 10
14.9129
 20
5.30304
 11
14.8942
 21
5.38254
  0
LINE
  8
0
 10
14.8942
 20
5.38254
 11
14.8756
 21
5.45906
  0
LINE
  8
0
 10
14.8756
 20
5.45906
 11
14.8576
 21
5.53055
  0
LINE
  8
0
 10
14.8576
 20
5.53055
 11
14.8407
 21
5.59494
  0
LINE
  8
0
 10
14.8407
 20
5.59494
 11
14.8249
 21
5.65224
  0
LINE
  8
0
 10
14.8249
 20
5.65224
 11
14.8101
 21
5.70244
  0
LINE
  8
0
 10
14.8101
 20
5.70244
 11
14.4492
 21
6.76389
  0
LINE
  8
0
 10
14.4492
 20
6.76389
 11
13.4044
 21
6.76389
  0
LINE
  8
0
 10
13.4044
 20
6.76389
 11
13.4044
 21
4.03709
  0
LINE
  8
0
 10
13.4044
 20
4.03709
 11
14.0768
 21
4.03709
  0
LINE
  8
0
 10
14.0768
 20
4.03709
 11
14.0768
 21
5.21198
  0
LINE
  8
0
 10
19.4484
 20
4.61723
 11
20.3906
 21
4.61723
  0
LINE
  8
0
 10
20.3906
 20
4.61723
 11
20.5825
 21
4.03709
  0
LINE
  8
0
 10
20.5825
 20
4.03709
 11
21.3347
 21
4.03709
  0
LINE
  8
0
 10
21.3347
 20
4.03709
 11
20.3621
 21
6.76389
  0
LINE
  8
0
 10
20.3621
 20
6.76389
 11
19.4636
 21
6.76389
  0
LINE
  8
0
 10
19.4636
 20
6.76389
 11
18.5195
 21
4.03709
  0
LINE
  8
0
 10
18.5195
 20
4.03709
 11
19.2641
 21
4.03709
  0
LINE
  8
0
 10
19.2641
 20
4.03709
 11
19.4484
 21
4.61723
  0
LINE
  8
0
 10
19.6061
 20
5.11136
 11
19.6441
 21
5.22847
  0
LINE
  8
0
 10
19.6441
 20
5.22847
 11
19.6788
 21
5.34618
  0
LINE
  8
0
 10
19.6788
 20
5.34618
 11
19.7127
 21
5.46684
  0
LINE
  8
0
 10
19.7127
 20
5.46684
 11
19.7457
 21
5.59048
  0
LINE
  8
0
 10
19.7457
 20
5.59048
 11
19.778
 21
5.7171
  0
LINE
  8
0
 10
19.778
 20
5.7171
 11
19.8099
 21
5.84645
  0
LINE
  8
0
 10
19.8099
 20
5.84645
 11
19.8419
 21
5.97833
  0
LINE
  8
0
 10
19.8419
 20
5.97833
 11
19.874
 21
6.11273
  0
LINE
  8
0
 10
19.874
 20
6.11273
 11
19.9062
 21
6.24965
  0
LINE
  8
0
 10
19.9062
 20
6.24965
 11
19.9405
 21
6.11354
  0
LINE
  8
0
 10
19.9405
 20
6.11354
 11
19.9751
 21
5.97971
  0
LINE
  8
0
 10
19.9751
 20
5.97971
 11
20.0098
 21
5.84816
  0
LINE
  8
0
 10
20.0098
 20
5.84816
 11
20.0449
 21
5.7189
  0
LINE
  8
0
 10
20.0449
 20
5.7189
 11
20.0802
 21
5.59218
  0
LINE
  8
0
 10
20.0802
 20
5.59218
 11
20.1161
 21
5.46819
  0
LINE
  8
0
 10
20.1161
 20
5.46819
 11
20.1524
 21
5.34695
  0
LINE
  8
0
 10
20.1524
 20
5.34695
 11
20.1892
 21
5.22847
  0
LINE
  8
0
 10
20.1892
 20
5.22847
 11
20.2272
 21
5.11136
  0
LINE
  8
0
 10
20.2272
 20
5.11136
 11
19.6061
 21
5.11136
  0
LINE
  8
0
 10
22.2447
 20
4.97591
 11
22.6095
 21
4.97591
  0
LINE
  8
0
 10
22.6095
 20
4.97591
 11
23.1281
 21
4.03709
  0
LINE
  8
0
 10
23.1281
 20
4.03709
 11
23.8632
 21
4.03709
  0
LINE
  8
0
 10
23.8632
 20
4.03709
 11
23.2724
 21
5.0784
  0
LINE
  8
0
 10
23.2724
 20
5.0784
 11
23.3835
 21
5.1356
  0
LINE
  8
0
 10
23.3835
 20
5.1356
 11
23.4811
 21
5.20468
  0
LINE
  8
0
 10
23.4811
 20
5.20468
 11
23.5654
 21
5.28566
  0
LINE
  8
0
 10
23.5654
 20
5.28566
 11
23.6362
 21
5.37854
  0
LINE
  8
0
 10
23.6362
 20
5.37854
 11
23.6923
 21
5.48262
  0
LINE
  8
0
 10
23.6923
 20
5.48262
 11
23.7324
 21
5.59723
  0
LINE
  8
0
 10
23.7324
 20
5.59723
 11
23.7564
 21
5.72235
  0
LINE
  8
0
 10
23.7564
 20
5.72235
 11
23.7644
 21
5.85802
  0
LINE
  8
0
 10
23.7644
 20
5.85802
 11
23.7471
 21
6.05583
  0
LINE
  8
0
 10
23.7471
 20
6.05583
 11
23.6953
 21
6.23203
  0
LINE
  8
0
 10
23.6953
 20
6.23203
 11
23.6089
 21
6.3866
  0
LINE
  8
0
 10
23.6089
 20
6.3866
 11
23.488
 21
6.51956
  0
LINE
  8
0
 10
23.488
 20
6.51956
 11
23.3372
 21
6.62645
  0
LINE
  8
0
 10
23.3372
 20
6.62645
 11
23.1611
 21
6.7028
  0
LINE
  8
0
 10
23.1611
 20
6.7028
 11
22.9596
 21
6.74861
  0
LINE
  8
0
 10
22.9596
 20
6.74861
 11
22.7329
 21
6.76389
  0
LINE
  8
0
 10
22.7329
 20
6.76389
 11
21.5742
 21
6.76389
  0
LINE
  8
0
 10
21.5742
 20
6.76389
 11
21.5742
 21
4.03709
  0
LINE
  8
0
 10
21.5742
 20
4.03709
 11
22.2447
 21
4.03709
  0
LINE
  8
0
 10
22.2447
 20
4.03709
 11
22.2447
 21
4.97591
  0
LINE
  8
0
 10
22.2447
 20
5.48651
 11
22.2447
 21
6.24049
  0
LINE
  8
0
 10
22.2447
 20
6.24049
 11
22.5905
 21
6.24049
  0
LINE
  8
0
 10
22.5905
 20
6.24049
 11
22.7999
 21
6.2166
  0
LINE
  8
0
 10
22.7999
 20
6.2166
 11
22.9495
 21
6.14488
  0
LINE
  8
0
 10
22.9495
 20
6.14488
 11
23.0392
 21
6.02534
  0
LINE
  8
0
 10
23.0392
 20
6.02534
 11
23.0692
 21
5.85802
  0
LINE
  8
0
 10
23.0692
 20
5.85802
 11
23.0394
 21
5.69548
  0
LINE
  8
0
 10
23.0394
 20
5.69548
 11
22.95
 21
5.57938
  0
LINE
  8
0
 10
22.95
 20
5.57938
 11
22.801
 21
5.50972
  0
LINE
  8
0
 10
22.801
 20
5.50972
 11
22.5924
 21
5.48651
  0
LINE
  8
0
 10
22.5924
 20
5.48651
 11
22.2447
 21
5.48651
  0
LINE
  8
0
 10
25.5201
 20
6.23683
 11
26.3768
 21
6.23683
  0
LINE
  8
0
 10
26.3768
 20
6.23683
 11
26.3768
 21
6.76389
  0
LINE
  8
0
 10
26.3768
 20
6.76389
 11
23.9947
 21
6.76389
  0
LINE
  8
0
 10
23.9947
 20
6.76389
 11
23.9947
 21
6.23683
  0
LINE
  8
0
 10
23.9947
 20
6.23683
 11
24.8514
 21
6.23683
  0
LINE
  8
0
 10
24.8514
 20
6.23683
 11
24.8514
 21
4.03709
  0
LINE
  8
0
 10
24.8514
 20
4.03709
 11
25.5201
 21
4.03709
  0
LINE
  8
0
 10
25.5201
 20
4.03709
 11
25.5201
 21
6.23683
  0
LINE
  8
0
 10
33.8681
 20
6.76389
 11
33.1747
 21
6.76389
  0
LINE
  8
0
 10
33.1747
 20
6.76389
 11
32.544
 21
6.34663
  0
LINE
  8
0
 10
32.544
 20
6.34663
 11
32.544
 21
5.77933
  0
LINE
  8
0
 10
32.544
 20
5.77933
 11
33.1804
 21
6.20204
  0
LINE
  8
0
 10
33.1804
 20
6.20204
 11
33.1994
 21
6.20204
  0
LINE
  8
0
 10
33.1994
 20
6.20204
 11
33.1994
 21
4.03709
  0
LINE
  8
0
 10
33.1994
 20
4.03709
 11
33.8681
 21
4.03709
  0
LINE
  8
0
 10
33.8681
 20
4.03709
 11
33.8681
 21
6.76389
  0
LINE
  8
0
 10
10.4928
 20
5.21198
 11
10.4925
 21
5.26706
  0
LINE
  8
0
 10
10.4925
 20
5.26706
 11
10.4916
 21
5.32979
  0
LINE
  8
0
 10
10.4916
 20
5.32979
 11
10.4901
 21
5.40019
  0
LINE
  8
0
 10
10.4901
 20
5.40019
 11
10.4881
 21
5.47824
  0
LINE
  8
0
 10
10.4881
 20
5.47824
 11
10.4804
 21
5.73888
  0
LINE
  8
0
 10
10.4804
 20
5.73888
 11
10.4776
 21
5.83238
  0
LINE
  8
0
 10
10.4776
 20
5.83238
 11
10.4749
 21
5.92685
  0
LINE
  8
0
 10
10.4749
 20
5.92685
 11
10.4724
 21
6.01996
  0
LINE
  8
0
 10
10.4724
 20
6.01996
 11
10.4701
 21
6.11169
  0
LINE
  8
0
 10
10.4701
 20
6.11169
 11
10.4681
 21
6.20204
  0
LINE
  8
0
 10
10.4681
 20
6.20204
 11
10.4922
 21
6.10616
  0
LINE
  8
0
 10
10.4922
 20
6.10616
 11
10.5168
 21
6.01059
  0
LINE
  8
0
 10
10.5168
 20
6.01059
 11
10.542
 21
5.91537
  0
LINE
  8
0
 10
10.542
 20
5.91537
 11
10.5679
 21
5.8205
  0
LINE
  8
0
 10
10.5679
 20
5.8205
 11
10.5937
 21
5.72768
  0
LINE
  8
0
 10
10.5937
 20
5.72768
 11
10.6189
 21
5.63864
  0
LINE
  8
0
 10
10.6189
 20
5.63864
 11
10.6435
 21
5.55336
  0
LINE
  8
0
 10
10.6435
 20
5.55336
 11
10.6676
 21
5.47185
  0
LINE
  8
0
 10
10.6676
 20
5.47185
 11
10.6904
 21
5.3959
  0
LINE
  8
0
 10
10.6904
 20
5.3959
 11
10.7113
 21
5.32729
  0
LINE
  8
0
 10
10.7113
 20
5.32729
 11
10.7303
 21
5.26598
  0
LINE
  8
0
 10
10.7303
 20
5.26598
 11
10.7473
 21
5.21198
  0
LINE
  8
0
 10
10.7473
 20
5.21198
 11
11.1558
 21
4.03709
  0
LINE
  8
0
 10
11.1558
 20
4.03709
 11
11.7162
 21
4.03709
  0
LINE
  8
0
 10
11.7162
 20
4.03709
 11
12.1189
 21
5.21198
  0
LINE
  8
0
 10
12.1189
 20
5.21198
 11
12.1368
 21
5.26797
  0
LINE
  8
0
 10
12.1368
 20
5.26797
 11
12.1564
 21
5.33163
  0
LINE
  8
0
 10
12.1564
 20
5.33163
 11
12.1776
 21
5.40294
  0
LINE
  8
0
 10
12.1776
 20
5.40294
 11
12.2005
 21
5.48192
  0
LINE
  8
0
 10
12.2005
 20
5.48192
 11
12.2246
 21
5.56662
  0
LINE
  8
0
 10
12.2246
 20
5.56662
 11
12.2492
 21
5.65509
  0
LINE
  8
0
 10
12.2492
 20
5.65509
 11
12.2745
 21
5.74734
  0
LINE
  8
0
 10
12.2745
 20
5.74734
 11
12.3003
 21
5.84335
  0
LINE
  8
0
 10
12.3003
 20
5.84335
 11
12.3261
 21
5.94116
  0
LINE
  8
0
 10
12.3261
 20
5.94116
 11
12.3513
 21
6.03873
  0
LINE
  8
0
 10
12.3513
 20
6.03873
 11
12.376
 21
6.13606
  0
LINE
  8
0
 10
12.376
 20
6.13606
 11
12.4
 21
6.23317
  0
LINE
  8
0
 10
12.4
 20
6.23317
 11
12.398
 21
6.14075
  0
LINE
  8
0
 10
12.398
 20
6.14075
 11
12.3957
 21
6.04651
  0
LINE
  8
0
 10
12.3957
 20
6.04651
 11
12.3932
 21
5.95042
  0
LINE
  8
0
 10
12.3932
 20
5.95042
 11
12.3905
 21
5.85251
  0
LINE
  8
0
 10
12.3905
 20
5.85251
 11
12.3851
 21
5.66196
  0
LINE
  8
0
 10
12.3851
 20
5.66196
 11
12.3801
 21
5.48558
  0
LINE
  8
0
 10
12.3801
 20
5.48558
 11
12.378
 21
5.40501
  0
LINE
  8
0
 10
12.378
 20
5.40501
 11
12.3765
 21
5.33255
  0
LINE
  8
0
 10
12.3765
 20
5.33255
 11
12.3756
 21
5.2682
  0
LINE
  8
0
 10
12.3756
 20
5.2682
 11
12.3753
 21
5.21198
  0
LINE
  8
0
 10
12.3753
 20
5.21198
 11
12.3753
 21
4.03709
  0
LINE
  8
0
 10
12.3753
 20
4.03709
 11
13.0497
 21
4.03709
  0
LINE
  8
0
 10
13.0497
 20
4.03709
 11
13.0497
 21
6.76389
  0
LINE
  8
0
 10
13.0497
 20
6.76389
 11
12.003
 21
6.76389
  0
LINE
  8
0
 10
12.003
 20
6.76389
 11
11.6478
 21
5.70244
  0
LINE
  8
0
 10
11.6478
 20
5.70244
 11
11.633
 21
5.65218
  0
LINE
  8
0
 10
11.633
 20
5.65218
 11
11.6171
 21
5.59471
  0
LINE
  8
0
 10
11.6171
 20
5.59471
 11
11.6002
 21
5.53003
  0
LINE
  8
0
 10
11.6002
 20
5.53003
 11
11.5822
 21
5.45815
  0
LINE
  8
0
 10
11.5822
 20
5.45815
 11
11.5637
 21
5.38127
  0
LINE
  8
0
 10
11.5637
 20
5.38127
 11
11.5452
 21
5.30167
  0
LINE
  8
0
 10
11.5452
 20
5.30167
 11
11.5267
 21
5.21931
  0
LINE
  8
0
 10
11.5267
 20
5.21931
 11
11.5081
 21
5.13422
  0
LINE
  8
0
 10
11.5081
 20
5.13422
 11
11.4899
 21
5.04837
  0
LINE
  8
0
 10
11.4899
 20
5.04837
 11
11.4723
 21
4.96381
  0
LINE
  8
0
 10
11.4723
 20
4.96381
 11
11.4553
 21
4.88048
  0
LINE
  8
0
 10
11.4553
 20
4.88048
 11
11.4388
 21
4.7984
  0
LINE
  8
0
 10
11.4388
 20
4.7984
 11
11.4215
 21
4.88054
  0
LINE
  8
0
 10
11.4215
 20
4.88054
 11
11.4037
 21
4.96404
  0
LINE
  8
0
 10
11.4037
 20
4.96404
 11
11.3854
 21
5.04889
  0
LINE
  8
0
 10
11.3854
 20
5.04889
 11
11.3666
 21
5.13513
  0
LINE
  8
0
 10
11.3666
 20
5.13513
 11
11.3477
 21
5.22058
  0
LINE
  8
0
 10
11.3477
 20
5.22058
 11
11.3289
 21
5.30304
  0
LINE
  8
0
 10
11.3289
 20
5.30304
 11
11.3102
 21
5.38254
  0
LINE
  8
0
 10
11.3102
 20
5.38254
 11
11.2916
 21
5.45906
  0
LINE
  8
0
 10
11.2916
 20
5.45906
 11
11.2736
 21
5.53055
  0
LINE
  8
0
 10
11.2736
 20
5.53055
 11
11.2567
 21
5.59494
  0
LINE
  8
0
 10
11.2567
 20
5.59494
 11
11.2408
 21
5.65224
  0
LINE
  8
0
 10
11.2408
 20
5.65224
 11
11.2261
 21
5.70244
  0
LINE
  8
0
 10
11.2261
 20
5.70244
 11
10.8651
 21
6.76389
  0
LINE
  8
0
 10
10.8651
 20
6.76389
 11
9.82036
 21
6.76389
  0
LINE
  8
0
 10
9.82036
 20
6.76389
 11
9.82036
 21
4.03709
  0
LINE
  8
0
 10
9.82036
 20
4.03709
 11
10.4928
 21
4.03709
  0
LINE
  8
0
 10
10.4928
 20
4.03709
 11
10.4928
 21
5.21198
  0
LINE
  8
0
 10
27.8445
 20
5.64572
 11
26.5394
 21
5.64572
  0
LINE
  8
0
 10
26.5394
 20
5.64572
 11
26.5394
 21
5.15343
  0
LINE
  8
0
 10
26.5394
 20
5.15343
 11
27.8445
 21
5.15343
  0
LINE
  8
0
 10
27.8445
 20
5.15343
 11
27.8445
 21
5.64572
  0
LINE
  8
0
 10
18.3371
 20
5.64572
 11
17.0321
 21
5.64572
  0
LINE
  8
0
 10
17.0321
 20
5.64572
 11
17.0321
 21
5.15343
  0
LINE
  8
0
 10
17.0321
 20
5.15343
 11
18.3371
 21
5.15343
  0
LINE
  8
0
 10
18.3371
 20
5.15343
 11
18.3371
 21
5.64572
  0
LINE
  8
0
 10
13.6096
 20
0.825226
 11
13.8482
 21
0.894318
  0
LINE
  8
0
 10
13.8482
 20
0.894318
 11
14.0548
 21
1.00948
  0
LINE
  8
0
 10
14.0548
 20
1.00948
 11
14.2294
 21
1.1707
  0
LINE
  8
0
 10
14.2294
 20
1.1707
 11
14.3682
 21
1.37318
  0
LINE
  8
0
 10
14.3682
 20
1.37318
 11
14.4674
 21
1.61214
  0
LINE
  8
0
 10
14.4674
 20
1.61214
 11
14.5269
 21
1.88756
  0
LINE
  8
0
 10
14.5269
 20
1.88756
 11
14.5467
 21
2.19943
  0
LINE
  8
0
 10
14.5467
 20
2.19943
 11
14.5377
 21
2.41187
  0
LINE
  8
0
 10
14.5377
 20
2.41187
 11
14.5108
 21
2.60841
  0
LINE
  8
0
 10
14.5108
 20
2.60841
 11
14.4659
 21
2.78906
  0
LINE
  8
0
 10
14.4659
 20
2.78906
 11
14.403
 21
2.95383
  0
LINE
  8
0
 10
14.403
 20
2.95383
 11
14.3232
 21
3.10146
  0
LINE
  8
0
 10
14.3232
 20
3.10146
 11
14.2277
 21
3.23068
  0
LINE
  8
0
 10
14.2277
 20
3.23068
 11
14.1164
 21
3.34151
  0
LINE
  8
0
 10
14.1164
 20
3.34151
 11
13.9892
 21
3.43391
  0
LINE
  8
0
 10
13.9892
 20
3.43391
 11
13.8473
 21
3.50673
  0
LINE
  8
0
 10
13.8473
 20
3.50673
 11
13.6917
 21
3.55875
  0
LINE
  8
0
 10
13.6917
 20
3.55875
 11
13.5223
 21
3.58995
  0
LINE
  8
0
 10
13.5223
 20
3.58995
 11
13.3392
 21
3.60036
  0
LINE
  8
0
 10
13.3392
 20
3.60036
 11
13.0703
 21
3.57727
  0
LINE
  8
0
 10
13.0703
 20
3.57727
 11
12.8326
 21
3.508
  0
LINE
  8
0
 10
12.8326
 20
3.508
 11
12.6261
 21
3.39253
  0
LINE
  8
0
 10
12.6261
 20
3.39253
 11
12.4509
 21
3.2309
  0
LINE
  8
0
 10
12.4509
 20
3.2309
 11
12.3112
 21
3.02789
  0
LINE
  8
0
 10
12.3112
 20
3.02789
 11
12.2115
 21
2.78831
  0
LINE
  8
0
 10
12.2115
 20
2.78831
 11
12.1516
 21
2.51216
  0
LINE
  8
0
 10
12.1516
 20
2.51216
 11
12.1317
 21
2.19943
  0
LINE
  8
0
 10
12.1317
 20
2.19943
 11
12.1516
 21
1.88681
  0
LINE
  8
0
 10
12.1516
 20
1.88681
 11
12.2115
 21
1.61099
  0
LINE
  8
0
 10
12.2115
 20
1.61099
 11
12.3112
 21
1.37198
  0
LINE
  8
0
 10
12.3112
 20
1.37198
 11
12.4509
 21
1.16978
  0
LINE
  8
0
 10
12.4509
 20
1.16978
 11
12.6261
 21
1.00896
  0
LINE
  8
0
 10
12.6261
 20
1.00896
 11
12.8326
 21
0.894089
  0
LINE
  8
0
 10
12.8326
 20
0.894089
 11
13.0703
 21
0.825165
  0
LINE
  8
0
 10
13.0703
 20
0.825165
 11
13.3392
 21
0.802185
  0
LINE
  8
0
 10
13.3392
 20
0.802185
 11
13.6096
 21
0.825226
  0
LINE
  8
0
 10
13.2239
 20
1.34479
 11
13.1229
 21
1.38696
  0
LINE
  8
0
 10
13.1229
 20
1.38696
 11
13.0363
 21
1.45726
  0
LINE
  8
0
 10
13.0363
 20
1.45726
 11
12.964
 21
1.55566
  0
LINE
  8
0
 10
12.964
 20
1.55566
 11
12.907
 21
1.68027
  0
LINE
  8
0
 10
12.907
 20
1.68027
 11
12.8663
 21
1.82909
  0
LINE
  8
0
 10
12.8663
 20
1.82909
 11
12.8419
 21
2.00215
  0
LINE
  8
0
 10
12.8419
 20
2.00215
 11
12.8338
 21
2.19943
  0
LINE
  8
0
 10
12.8338
 20
2.19943
 11
12.842
 21
2.39771
  0
LINE
  8
0
 10
12.842
 20
2.39771
 11
12.8666
 21
2.57184
  0
LINE
  8
0
 10
12.8666
 20
2.57184
 11
12.9076
 21
2.72186
  0
LINE
  8
0
 10
12.9076
 20
2.72186
 11
12.965
 21
2.84776
  0
LINE
  8
0
 10
12.965
 20
2.84776
 11
13.0375
 21
2.94739
  0
LINE
  8
0
 10
13.0375
 20
2.94739
 11
13.1241
 21
3.01854
  0
LINE
  8
0
 10
13.1241
 20
3.01854
 11
13.2246
 21
3.06123
  0
LINE
  8
0
 10
13.2246
 20
3.06123
 11
13.3392
 21
3.07545
  0
LINE
  8
0
 10
13.3392
 20
3.07545
 11
13.4546
 21
3.06123
  0
LINE
  8
0
 10
13.4546
 20
3.06123
 11
13.5557
 21
3.01854
  0
LINE
  8
0
 10
13.5557
 20
3.01854
 11
13.6426
 21
2.94739
  0
LINE
  8
0
 10
13.6426
 20
2.94739
 11
13.7153
 21
2.84776
  0
LINE
  8
0
 10
13.7153
 20
2.84776
 11
13.7727
 21
2.72186
  0
LINE
  8
0
 10
13.7727
 20
2.72186
 11
13.8137
 21
2.57184
  0
LINE
  8
0
 10
13.8137
 20
2.57184
 11
13.8383
 21
2.39771
  0
LINE
  8
0
 10
13.8383
 20
2.39771
 11
13.8465
 21
2.19943
  0
LINE
  8
0
 10
13.8465
 20
2.19943
 11
13.8383
 21
2.00215
  0
LINE
  8
0
 10
13.8383
 20
2.00215
 11
13.8137
 21
1.82909
  0
LINE
  8
0
 10
13.8137
 20
1.82909
 11
13.7727
 21
1.68027
  0
LINE
  8
0
 10
13.7727
 20
1.68027
 11
13.7153
 21
1.55566
  0
LINE
  8
0
 10
13.7153
 20
1.55566
 11
13.6426
 21
1.45726
  0
LINE
  8
0
 10
13.6426
 20
1.45726
 11
13.5557
 21
1.38696
  0
LINE
  8
0
 10
13.5557
 20
1.38696
 11
13.4546
 21
1.34479
  0
LINE
  8
0
 10
13.4546
 20
1.34479
 11
13.3392
 21
1.33073
  0
LINE
  8
0
 10
13.3392
 20
1.33073
 11
13.2239
 21
1.34479
  0
LINE
  8
0
 10
17.2547
 20
0.808701
 11
17.4081
 21
0.828247
  0
LINE
  8
0
 10
17.4081
 20
0.828247
 11
17.5518
 21
0.860825
  0
LINE
  8
0
 10
17.5518
 20
0.860825
 11
17.6859
 21
0.906418
  0
LINE
  8
0
 10
17.6859
 20
0.906418
 11
17.808
 21
0.963394
  0
LINE
  8
0
 10
17.808
 20
0.963394
 11
17.9161
 21
1.03011
  0
LINE
  8
0
 10
17.9161
 20
1.03011
 11
18.0101
 21
1.10651
  0
LINE
  8
0
 10
18.0101
 20
1.10651
 11
18.09
 21
1.19263
  0
LINE
  8
0
 10
18.09
 20
1.19263
 11
18.1537
 21
1.28699
  0
LINE
  8
0
 10
18.1537
 20
1.28699
 11
18.1992
 21
1.38809
  0
LINE
  8
0
 10
18.1992
 20
1.38809
 11
18.2265
 21
1.49594
  0
LINE
  8
0
 10
18.2265
 20
1.49594
 11
18.2356
 21
1.61055
  0
LINE
  8
0
 10
18.2356
 20
1.61055
 11
18.2251
 21
1.73148
  0
LINE
  8
0
 10
18.2251
 20
1.73148
 11
18.1934
 21
1.84187
  0
LINE
  8
0
 10
18.1934
 20
1.84187
 11
18.1407
 21
1.94177
  0
LINE
  8
0
 10
18.1407
 20
1.94177
 11
18.0668
 21
2.03116
  0
LINE
  8
0
 10
18.0668
 20
2.03116
 11
17.9724
 21
2.10718
  0
LINE
  8
0
 10
17.9724
 20
2.10718
 11
17.8578
 21
2.16696
  0
LINE
  8
0
 10
17.8578
 20
2.16696
 11
17.723
 21
2.21053
  0
LINE
  8
0
 10
17.723
 20
2.21053
 11
17.5682
 21
2.23784
  0
LINE
  8
0
 10
17.5682
 20
2.23784
 11
17.5682
 21
2.25797
  0
LINE
  8
0
 10
17.5682
 20
2.25797
 11
17.6869
 21
2.28253
  0
LINE
  8
0
 10
17.6869
 20
2.28253
 11
17.7941
 21
2.3215
  0
LINE
  8
0
 10
17.7941
 20
2.3215
 11
17.8899
 21
2.37488
  0
LINE
  8
0
 10
17.8899
 20
2.37488
 11
17.9742
 21
2.44266
  0
LINE
  8
0
 10
17.9742
 20
2.44266
 11
18.043
 21
2.52257
  0
LINE
  8
0
 10
18.043
 20
2.52257
 11
18.0921
 21
2.61229
  0
LINE
  8
0
 10
18.0921
 20
2.61229
 11
18.1216
 21
2.71185
  0
LINE
  8
0
 10
18.1216
 20
2.71185
 11
18.1315
 21
2.82126
  0
LINE
  8
0
 10
18.1315
 20
2.82126
 11
18.1233
 21
2.92909
  0
LINE
  8
0
 10
18.1233
 20
2.92909
 11
18.0989
 21
3.03133
  0
LINE
  8
0
 10
18.0989
 20
3.03133
 11
18.0582
 21
3.12796
  0
LINE
  8
0
 10
18.0582
 20
3.12796
 11
18.0012
 21
3.21901
  0
LINE
  8
0
 10
18.0012
 20
3.21901
 11
17.9297
 21
3.30263
  0
LINE
  8
0
 10
17.9297
 20
3.30263
 11
17.8455
 21
3.37698
  0
LINE
  8
0
 10
17.8455
 20
3.37698
 11
17.7484
 21
3.44209
  0
LINE
  8
0
 10
17.7484
 20
3.44209
 11
17.6386
 21
3.49794
  0
LINE
  8
0
 10
17.6386
 20
3.49794
 11
17.5179
 21
3.54274
  0
LINE
  8
0
 10
17.5179
 20
3.54274
 11
17.3881
 21
3.57475
  0
LINE
  8
0
 10
17.3881
 20
3.57475
 11
17.2493
 21
3.59395
  0
LINE
  8
0
 10
17.2493
 20
3.59395
 11
17.1014
 21
3.60036
  0
LINE
  8
0
 10
17.1014
 20
3.60036
 11
16.9512
 21
3.59378
  0
LINE
  8
0
 10
16.9512
 20
3.59378
 11
16.8094
 21
3.57407
  0
LINE
  8
0
 10
16.8094
 20
3.57407
 11
16.6759
 21
3.5412
  0
LINE
  8
0
 10
16.6759
 20
3.5412
 11
16.5507
 21
3.49518
  0
LINE
  8
0
 10
16.5507
 20
3.49518
 11
16.436
 21
3.43764
  0
LINE
  8
0
 10
16.436
 20
3.43764
 11
16.3342
 21
3.37013
  0
LINE
  8
0
 10
16.3342
 20
3.37013
 11
16.2451
 21
3.29269
  0
LINE
  8
0
 10
16.2451
 20
3.29269
 11
16.1687
 21
3.20531
  0
LINE
  8
0
 10
16.1687
 20
3.20531
 11
16.1074
 21
3.10941
  0
LINE
  8
0
 10
16.1074
 20
3.10941
 11
16.0634
 21
3.00642
  0
LINE
  8
0
 10
16.0634
 20
3.00642
 11
16.0365
 21
2.89635
  0
LINE
  8
0
 10
16.0365
 20
2.89635
 11
16.027
 21
2.77919
  0
LINE
  8
0
 10
16.027
 20
2.77919
 11
16.6809
 21
2.77919
  0
LINE
  8
0
 10
16.6809
 20
2.77919
 11
16.6893
 21
2.84697
  0
LINE
  8
0
 10
16.6893
 20
2.84697
 11
16.7124
 21
2.90765
  0
LINE
  8
0
 10
16.7124
 20
2.90765
 11
16.7505
 21
2.96126
  0
LINE
  8
0
 10
16.7505
 20
2.96126
 11
16.8033
 21
3.00777
  0
LINE
  8
0
 10
16.8033
 20
3.00777
 11
16.8671
 21
3.04538
  0
LINE
  8
0
 10
16.8671
 20
3.04538
 11
16.9377
 21
3.07225
  0
LINE
  8
0
 10
16.9377
 20
3.07225
 11
17.0151
 21
3.08836
  0
LINE
  8
0
 10
17.0151
 20
3.08836
 11
17.0995
 21
3.09373
  0
LINE
  8
0
 10
17.0995
 20
3.09373
 11
17.1785
 21
3.08832
  0
LINE
  8
0
 10
17.1785
 20
3.08832
 11
17.2499
 21
3.07202
  0
LINE
  8
0
 10
17.2499
 20
3.07202
 11
17.3136
 21
3.04488
  0
LINE
  8
0
 10
17.3136
 20
3.04488
 11
17.3695
 21
3.00688
  0
LINE
  8
0
 10
17.3695
 20
3.00688
 11
17.4151
 21
2.96019
  0
LINE
  8
0
 10
17.4151
 20
2.96019
 11
17.4476
 21
2.90698
  0
LINE
  8
0
 10
17.4476
 20
2.90698
 11
17.4671
 21
2.84726
  0
LINE
  8
0
 10
17.4671
 20
2.84726
 11
17.4737
 21
2.78102
  0
LINE
  8
0
 10
17.4737
 20
2.78102
 11
17.4661
 21
2.71214
  0
LINE
  8
0
 10
17.4661
 20
2.71214
 11
17.4433
 21
2.65002
  0
LINE
  8
0
 10
17.4433
 20
2.65002
 11
17.4053
 21
2.59464
  0
LINE
  8
0
 10
17.4053
 20
2.59464
 11
17.3521
 21
2.54601
  0
LINE
  8
0
 10
17.3521
 20
2.54601
 11
17.287
 21
2.50639
  0
LINE
  8
0
 10
17.287
 20
2.50639
 11
17.2133
 21
2.4781
  0
LINE
  8
0
 10
17.2133
 20
2.4781
 11
17.1308
 21
2.46114
  0
LINE
  8
0
 10
17.1308
 20
2.46114
 11
17.0396
 21
2.45547
  0
LINE
  8
0
 10
17.0396
 20
2.45547
 11
16.76
 21
2.45547
  0
LINE
  8
0
 10
16.76
 20
2.45547
 11
16.76
 21
1.9946
  0
LINE
  8
0
 10
16.76
 20
1.9946
 11
17.0396
 21
1.9946
  0
LINE
  8
0
 10
17.0396
 20
1.9946
 11
17.1441
 21
1.98877
  0
LINE
  8
0
 10
17.1441
 20
1.98877
 11
17.2374
 21
1.97127
  0
LINE
  8
0
 10
17.2374
 20
1.97127
 11
17.3196
 21
1.94212
  0
LINE
  8
0
 10
17.3196
 20
1.94212
 11
17.3907
 21
1.90131
  0
LINE
  8
0
 10
17.3907
 20
1.90131
 11
17.4481
 21
1.85126
  0
LINE
  8
0
 10
17.4481
 20
1.85126
 11
17.4891
 21
1.79434
  0
LINE
  8
0
 10
17.4891
 20
1.79434
 11
17.5137
 21
1.73056
  0
LINE
  8
0
 10
17.5137
 20
1.73056
 11
17.5219
 21
1.65993
  0
LINE
  8
0
 10
17.5219
 20
1.65993
 11
17.5145
 21
1.5894
  0
LINE
  8
0
 10
17.5145
 20
1.5894
 11
17.4922
 21
1.52596
  0
LINE
  8
0
 10
17.4922
 20
1.52596
 11
17.4552
 21
1.4696
  0
LINE
  8
0
 10
17.4552
 20
1.4696
 11
17.4033
 21
1.42033
  0
LINE
  8
0
 10
17.4033
 20
1.42033
 11
17.3397
 21
1.38034
  0
LINE
  8
0
 10
17.3397
 20
1.38034
 11
17.2675
 21
1.35176
  0
LINE
  8
0
 10
17.2675
 20
1.35176
 11
17.1868
 21
1.33461
  0
LINE
  8
0
 10
17.1868
 20
1.33461
 11
17.0975
 21
1.32889
  0
LINE
  8
0
 10
17.0975
 20
1.32889
 11
17.007
 21
1.33415
  0
LINE
  8
0
 10
17.007
 20
1.33415
 11
16.9244
 21
1.34991
  0
LINE
  8
0
 10
16.9244
 20
1.34991
 11
16.8498
 21
1.37621
  0
LINE
  8
0
 10
16.8498
 20
1.37621
 11
16.7831
 21
1.41301
  0
LINE
  8
0
 10
16.7831
 20
1.41301
 11
16.728
 21
1.45839
  0
LINE
  8
0
 10
16.728
 20
1.45839
 11
16.6881
 21
1.51041
  0
LINE
  8
0
 10
16.6881
 20
1.51041
 11
16.6634
 21
1.56903
  0
LINE
  8
0
 10
16.6634
 20
1.56903
 11
16.6539
 21
1.63431
  0
LINE
  8
0
 10
16.6539
 20
1.63431
 11
15.971
 21
1.63431
  0
LINE
  8
0
 10
15.971
 20
1.63431
 11
15.9809
 21
1.51538
  0
LINE
  8
0
 10
15.9809
 20
1.51538
 11
16.0086
 21
1.40364
  0
LINE
  8
0
 10
16.0086
 20
1.40364
 11
16.0542
 21
1.2991
  0
LINE
  8
0
 10
16.0542
 20
1.2991
 11
16.1176
 21
1.20177
  0
LINE
  8
0
 10
16.1176
 20
1.20177
 11
16.1966
 21
1.11313
  0
LINE
  8
0
 10
16.1966
 20
1.11313
 11
16.289
 21
1.03467
  0
LINE
  8
0
 10
16.289
 20
1.03467
 11
16.3948
 21
0.96637
  0
LINE
  8
0
 10
16.3948
 20
0.96637
 11
16.514
 21
0.908249
  0
LINE
  8
0
 10
16.514
 20
0.908249
 11
16.6445
 21
0.861847
  0
LINE
  8
0
 10
16.6445
 20
0.861847
 11
16.7843
 21
0.828705
  0
LINE
  8
0
 10
16.7843
 20
0.828705
 11
16.9334
 21
0.808823
  0
LINE
  8
0
 10
16.9334
 20
0.808823
 11
17.0918
 21
0.802185
  0
LINE
  8
0
 10
17.0918
 20
0.802185
 11
17.2547
 21
0.808701
  0
LINE
  8
0
 10
21.1353
 20
0.825226
 11
21.3738
 21
0.894318
  0
LINE
  8
0
 10
21.3738
 20
0.894318
 11
21.5804
 21
1.00948
  0
LINE
  8
0
 10
21.5804
 20
1.00948
 11
21.755
 21
1.1707
  0
LINE
  8
0
 10
21.755
 20
1.1707
 11
21.8938
 21
1.37318
  0
LINE
  8
0
 10
21.8938
 20
1.37318
 11
21.993
 21
1.61214
  0
LINE
  8
0
 10
21.993
 20
1.61214
 11
22.0525
 21
1.88756
  0
LINE
  8
0
 10
22.0525
 20
1.88756
 11
22.0723
 21
2.19943
  0
LINE
  8
0
 10
22.0723
 20
2.19943
 11
22.0633
 21
2.41187
  0
LINE
  8
0
 10
22.0633
 20
2.41187
 11
22.0364
 21
2.60841
  0
LINE
  8
0
 10
22.0364
 20
2.60841
 11
21.9915
 21
2.78906
  0
LINE
  8
0
 10
21.9915
 20
2.78906
 11
21.9286
 21
2.95383
  0
LINE
  8
0
 10
21.9286
 20
2.95383
 11
21.8488
 21
3.10146
  0
LINE
  8
0
 10
21.8488
 20
3.10146
 11
21.7533
 21
3.23068
  0
LINE
  8
0
 10
21.7533
 20
3.23068
 11
21.642
 21
3.34151
  0
LINE
  8
0
 10
21.642
 20
3.34151
 11
21.5148
 21
3.43391
  0
LINE
  8
0
 10
21.5148
 20
3.43391
 11
21.3729
 21
3.50673
  0
LINE
  8
0
 10
21.3729
 20
3.50673
 11
21.2173
 21
3.55875
  0
LINE
  8
0
 10
21.2173
 20
3.55875
 11
21.0479
 21
3.58995
  0
LINE
  8
0
 10
21.0479
 20
3.58995
 11
20.8648
 21
3.60036
  0
LINE
  8
0
 10
20.8648
 20
3.60036
 11
20.5959
 21
3.57727
  0
LINE
  8
0
 10
20.5959
 20
3.57727
 11
20.3582
 21
3.508
  0
LINE
  8
0
 10
20.3582
 20
3.508
 11
20.1517
 21
3.39253
  0
LINE
  8
0
 10
20.1517
 20
3.39253
 11
19.9765
 21
3.2309
  0
LINE
  8
0
 10
19.9765
 20
3.2309
 11
19.8368
 21
3.02789
  0
LINE
  8
0
 10
19.8368
 20
3.02789
 11
19.7371
 21
2.78831
  0
LINE
  8
0
 10
19.7371
 20
2.78831
 11
19.6772
 21
2.51216
  0
LINE
  8
0
 10
19.6772
 20
2.51216
 11
19.6573
 21
2.19943
  0
LINE
  8
0
 10
19.6573
 20
2.19943
 11
19.6772
 21
1.88681
  0
LINE
  8
0
 10
19.6772
 20
1.88681
 11
19.7371
 21
1.61099
  0
LINE
  8
0
 10
19.7371
 20
1.61099
 11
19.8368
 21
1.37198
  0
LINE
  8
0
 10
19.8368
 20
1.37198
 11
19.9765
 21
1.16978
  0
LINE
  8
0
 10
19.9765
 20
1.16978
 11
20.1517
 21
1.00896
  0
LINE
  8
0
 10
20.1517
 20
1.00896
 11
20.3582
 21
0.894089
  0
LINE
  8
0
 10
20.3582
 20
0.894089
 11
20.5959
 21
0.825165
  0
LINE
  8
0
 10
20.5959
 20
0.825165
 11
20.8648
 21
0.802185
  0
LINE
  8
0
 10
20.8648
 20
0.802185
 11
21.1353
 21
0.825226
  0
LINE
  8
0
 10
20.7495
 20
1.34479
 11
20.6485
 21
1.38696
  0
LINE
  8
0
 10
20.6485
 20
1.38696
 11
20.5619
 21
1.45726
  0
LINE
  8
0
 10
20.5619
 20
1.45726
 11
20.4896
 21
1.55566
  0
LINE
  8
0
 10
20.4896
 20
1.55566
 11
20.4326
 21
1.68027
  0
LINE
  8
0
 10
20.4326
 20
1.68027
 11
20.3919
 21
1.82909
  0
LINE
  8
0
 10
20.3919
 20
1.82909
 11
20.3675
 21
2.00215
  0
LINE
  8
0
 10
20.3675
 20
2.00215
 11
20.3594
 21
2.19943
  0
LINE
  8
0
 10
20.3594
 20
2.19943
 11
20.3676
 21
2.39771
  0
LINE
  8
0
 10
20.3676
 20
2.39771
 11
20.3922
 21
2.57184
  0
LINE
  8
0
 10
20.3922
 20
2.57184
 11
20.4332
 21
2.72186
  0
LINE
  8
0
 10
20.4332
 20
2.72186
 11
20.4905
 21
2.84776
  0
LINE
  8
0
 10
20.4905
 20
2.84776
 11
20.5631
 21
2.94739
  0
LINE
  8
0
 10
20.5631
 20
2.94739
 11
20.6497
 21
3.01854
  0
LINE
  8
0
 10
20.6497
 20
3.01854
 11
20.7502
 21
3.06123
  0
LINE
  8
0
 10
20.7502
 20
3.06123
 11
20.8648
 21
3.07545
  0
LINE
  8
0
 10
20.8648
 20
3.07545
 11
20.9801
 21
3.06123
  0
LINE
  8
0
 10
20.9801
 20
3.06123
 11
21.0813
 21
3.01854
  0
LINE
  8
0
 10
21.0813
 20
3.01854
 11
21.1682
 21
2.94739
  0
LINE
  8
0
 10
21.1682
 20
2.94739
 11
21.2409
 21
2.84776
  0
LINE
  8
0
 10
21.2409
 20
2.84776
 11
21.2983
 21
2.72186
  0
LINE
  8
0
 10
21.2983
 20
2.72186
 11
21.3393
 21
2.57184
  0
LINE
  8
0
 10
21.3393
 20
2.57184
 11
21.3639
 21
2.39771
  0
LINE
  8
0
 10
21.3639
 20
2.39771
 11
21.3721
 21
2.19943
  0
LINE
  8
0
 10
21.3721
 20
2.19943
 11
21.3639
 21
2.00215
  0
LINE
  8
0
 10
21.3639
 20
2.00215
 11
21.3393
 21
1.82909
  0
LINE
  8
0
 10
21.3393
 20
1.82909
 11
21.2983
 21
1.68027
  0
LINE
  8
0
 10
21.2983
 20
1.68027
 11
21.2409
 21
1.55566
  0
LINE
  8
0
 10
21.2409
 20
1.55566
 11
21.1682
 21
1.45726
  0
LINE
  8
0
 10
21.1682
 20
1.45726
 11
21.0813
 21
1.38696
  0
LINE
  8
0
 10
21.0813
 20
1.38696
 11
20.9801
 21
1.34479
  0
LINE
  8
0
 10
20.9801
 20
1.34479
 11
20.8648
 21
1.33073
  0
LINE
  8
0
 10
20.8648
 20
1.33073
 11
20.7495
 21
1.34479
  0
LINE
  8
0
 10
6.59973
 20
0.800308
 11
6.67059
 21
0.801361
  0
LINE
  8
0
 10
6.67059
 20
0.801361
 11
6.74037
 21
0.803253
  0
LINE
  8
0
 10
6.74037
 20
0.803253
 11
6.80911
 21
0.806122
  0
LINE
  8
0
 10
6.80911
 20
0.806122
 11
6.87688
 21
0.810074
  0
LINE
  8
0
 10
6.87688
 20
0.810074
 11
6.94376
 21
0.815247
  0
LINE
  8
0
 10
6.94376
 20
0.815247
 11
7.00977
 21
0.821732
  0
LINE
  8
0
 10
7.00977
 20
0.821732
 11
7.075
 21
0.829681
  0
LINE
  8
0
 10
7.075
 20
0.829681
 11
7.13951
 21
0.839203
  0
LINE
  8
0
 10
7.13951
 20
0.839203
 11
7.20335
 21
0.850418
  0
LINE
  8
0
 10
7.20335
 20
0.850418
 11
7.26659
 21
0.863434
  0
LINE
  8
0
 10
7.26659
 20
0.863434
 11
7.32928
 21
0.878403
  0
LINE
  8
0
 10
7.32928
 20
0.878403
 11
7.39149
 21
0.895432
  0
LINE
  8
0
 10
7.39149
 20
0.895432
 11
7.45328
 21
0.914627
  0
LINE
  8
0
 10
7.45328
 20
0.914627
 11
7.51469
 21
0.936127
  0
LINE
  8
0
 10
7.51469
 20
0.936127
 11
7.57582
 21
0.960052
  0
LINE
  8
0
 10
7.57582
 20
0.960052
 11
7.63669
 21
0.986511
  0
LINE
  8
0
 10
7.63669
 20
0.986511
 11
7.69739
 21
1.01562
  0
LINE
  8
0
 10
7.69739
 20
1.01562
 11
7.75797
 21
1.04753
  0
LINE
  8
0
 10
7.75797
 20
1.04753
 11
7.81848
 21
1.08235
  0
LINE
  8
0
 10
7.81848
 20
1.08235
 11
4.51091
 21
2.97815
  0
LINE
  8
0
 10
4.51091
 20
2.97815
 11
1.52605
 21
1.12268
  0
LINE
  8
0
 10
1.52605
 20
1.12268
 11
1.56325
 21
1.09303
  0
LINE
  8
0
 10
1.56325
 20
1.09303
 11
1.60223
 21
1.06464
  0
LINE
  8
0
 10
1.60223
 20
1.06464
 11
1.64297
 21
1.03751
  0
LINE
  8
0
 10
1.64297
 20
1.03751
 11
1.68546
 21
1.01167
  0
LINE
  8
0
 10
1.68546
 20
1.01167
 11
1.72961
 21
0.987183
  0
LINE
  8
0
 10
1.72961
 20
0.987183
 11
1.77544
 21
0.964035
  0
LINE
  8
0
 10
1.77544
 20
0.964035
 11
1.82291
 21
0.942291
  0
LINE
  8
0
 10
1.82291
 20
0.942291
 11
1.87196
 21
0.921967
  0
LINE
  8
0
 10
1.87196
 20
0.921967
 11
1.92261
 21
0.903091
  0
LINE
  8
0
 10
1.92261
 20
0.903091
 11
1.97478
 21
0.885712
  0
LINE
  8
0
 10
1.97478
 20
0.885712
 11
2.02847
 21
0.869827
  0
LINE
  8
0
 10
2.02847
 20
0.869827
 11
2.08365
 21
0.855499
  0
LINE
  8
0
 10
2.08365
 20
0.855499
 11
2.14027
 21
0.842728
  0
LINE
  8
0
 10
2.14027
 20
0.842728
 11
2.19832
 21
0.831573
  0
LINE
  8
0
 10
2.19832
 20
0.831573
 11
2.25777
 21
0.822052
  0
LINE
  8
0
 10
2.25777
 20
0.822052
 11
2.31857
 21
0.814194
  0
LINE
  8
0
 10
2.31857
 20
0.814194
 11
2.38071
 21
0.808029
  0
LINE
  8
0
 10
2.38071
 20
0.808029
 11
2.44414
 21
0.803589
  0
LINE
  8
0
 10
2.44414
 20
0.803589
 11
2.50883
 21
0.800888
  0
LINE
  8
0
 10
2.50883
 20
0.800888
 11
2.57478
 21
0.799988
  0
LINE
  8
0
 10
2.57478
 20
0.799988
 11
6.52773
 21
0.799988
  0
LINE
  8
0
 10
6.52773
 20
0.799988
 11
6.59973
 21
0.800308
  0
LINE
  8
0
 10
11.988
 20
2.88342
 11
11.2859
 21
2.88342
  0
LINE
  8
0
 10
11.2859
 20
2.88342
 11
10.9695
 21
1.88303
  0
LINE
  8
0
 10
10.9695
 20
1.88303
 11
10.948
 21
1.81348
  0
LINE
  8
0
 10
10.948
 20
1.81348
 11
10.9276
 21
1.7438
  0
LINE
  8
0
 10
10.9276
 20
1.7438
 11
10.9084
 21
1.67403
  0
LINE
  8
0
 10
10.9084
 20
1.67403
 11
10.8904
 21
1.60413
  0
LINE
  8
0
 10
10.8904
 20
1.60413
 11
10.8733
 21
1.53366
  0
LINE
  8
0
 10
10.8733
 20
1.53366
 11
10.8567
 21
1.46216
  0
LINE
  8
0
 10
10.8567
 20
1.46216
 11
10.8405
 21
1.38963
  0
LINE
  8
0
 10
10.8405
 20
1.38963
 11
10.8249
 21
1.31609
  0
LINE
  8
0
 10
10.8249
 20
1.31609
 11
10.8074
 21
1.38969
  0
LINE
  8
0
 10
10.8074
 20
1.38969
 11
10.7899
 21
1.46239
  0
LINE
  8
0
 10
10.7899
 20
1.46239
 11
10.7722
 21
1.53418
  0
LINE
  8
0
 10
10.7722
 20
1.53418
 11
10.7545
 21
1.60504
  0
LINE
  8
0
 10
10.7545
 20
1.60504
 11
10.7361
 21
1.67523
  0
LINE
  8
0
 10
10.7361
 20
1.67523
 11
10.7166
 21
1.74495
  0
LINE
  8
0
 10
10.7166
 20
1.74495
 11
10.6961
 21
1.81422
  0
LINE
  8
0
 10
10.6961
 20
1.81422
 11
10.6744
 21
1.88303
  0
LINE
  8
0
 10
10.6744
 20
1.88303
 11
10.3523
 21
2.88342
  0
LINE
  8
0
 10
10.3523
 20
2.88342
 11
9.64243
 21
2.88342
  0
LINE
  8
0
 10
9.64243
 20
2.88342
 11
10.4237
 21
0.83876
  0
LINE
  8
0
 10
10.4237
 20
0.83876
 11
11.2029
 21
0.83876
  0
LINE
  8
0
 10
11.2029
 20
0.83876
 11
11.988
 21
2.88342
  0
LINE
  8
0
 10
15.2945
 20
0.806473
 11
15.3625
 21
0.824814
  0
LINE
  8
0
 10
15.3625
 20
0.824814
 11
15.4242
 21
0.855392
  0
LINE
  8
0
 10
15.4242
 20
0.855392
 11
15.4799
 21
0.898193
  0
LINE
  8
0
 10
15.4799
 20
0.898193
 11
15.5259
 21
0.950027
  0
LINE
  8
0
 10
15.5259
 20
0.950027
 11
15.5587
 21
1.00769
  0
LINE
  8
0
 10
15.5587
 20
1.00769
 11
15.5784
 21
1.0712
  0
LINE
  8
0
 10
15.5784
 20
1.0712
 11
15.585
 21
1.14052
  0
LINE
  8
0
 10
15.585
 20
1.14052
 11
15.5784
 21
1.21065
  0
LINE
  8
0
 10
15.5784
 20
1.21065
 11
15.5587
 21
1.2747
  0
LINE
  8
0
 10
15.5587
 20
1.2747
 11
15.5259
 21
1.33272
  0
LINE
  8
0
 10
15.5259
 20
1.33272
 11
15.4799
 21
1.38466
  0
LINE
  8
0
 10
15.4799
 20
1.38466
 11
15.4242
 21
1.42747
  0
LINE
  8
0
 10
15.4242
 20
1.42747
 11
15.3625
 21
1.45807
  0
LINE
  8
0
 10
15.3625
 20
1.45807
 11
15.2945
 21
1.47641
  0
LINE
  8
0
 10
15.2945
 20
1.47641
 11
15.2204
 21
1.48253
  0
LINE
  8
0
 10
15.2204
 20
1.48253
 11
15.1464
 21
1.47641
  0
LINE
  8
0
 10
15.1464
 20
1.47641
 11
15.0784
 21
1.45807
  0
LINE
  8
0
 10
15.0784
 20
1.45807
 11
15.0166
 21
1.42747
  0
LINE
  8
0
 10
15.0166
 20
1.42747
 11
14.961
 21
1.38466
  0
LINE
  8
0
 10
14.961
 20
1.38466
 11
14.915
 21
1.33272
  0
LINE
  8
0
 10
14.915
 20
1.33272
 11
14.8822
 21
1.2747
  0
LINE
  8
0
 10
14.8822
 20
1.2747
 11
14.8625
 21
1.21065
  0
LINE
  8
0
 10
14.8625
 20
1.21065
 11
14.8559
 21
1.14052
  0
LINE
  8
0
 10
14.8559
 20
1.14052
 11
14.8625
 21
1.0712
  0
LINE
  8
0
 10
14.8625
 20
1.0712
 11
14.8822
 21
1.00769
  0
LINE
  8
0
 10
14.8822
 20
1.00769
 11
14.915
 21
0.950027
  0
LINE
  8
0
 10
14.915
 20
0.950027
 11
14.961
 21
0.898193
  0
LINE
  8
0
 10
14.961
 20
0.898193
 11
15.0166
 21
0.855392
  0
LINE
  8
0
 10
15.0166
 20
0.855392
 11
15.0784
 21
0.824814
  0
LINE
  8
0
 10
15.0784
 20
0.824814
 11
15.1464
 21
0.806473
  0
LINE
  8
0
 10
15.1464
 20
0.806473
 11
15.2204
 21
0.800354
  0
LINE
  8
0
 10
15.2204
 20
0.800354
 11
15.2945
 21
0.806473
  0
LINE
  8
0
 10
19.0281
 20
0.806473
 11
19.0961
 21
0.824814
  0
LINE
  8
0
 10
19.0961
 20
0.824814
 11
19.1578
 21
0.855392
  0
LINE
  8
0
 10
19.1578
 20
0.855392
 11
19.2135
 21
0.898193
  0
LINE
  8
0
 10
19.2135
 20
0.898193
 11
19.2595
 21
0.950027
  0
LINE
  8
0
 10
19.2595
 20
0.950027
 11
19.2923
 21
1.00769
  0
LINE
  8
0
 10
19.2923
 20
1.00769
 11
19.312
 21
1.0712
  0
LINE
  8
0
 10
19.312
 20
1.0712
 11
19.3186
 21
1.14052
  0
LINE
  8
0
 10
19.3186
 20
1.14052
 11
19.312
 21
1.21065
  0
LINE
  8
0
 10
19.312
 20
1.21065
 11
19.2923
 21
1.2747
  0
LINE
  8
0
 10
19.2923
 20
1.2747
 11
19.2595
 21
1.33272
  0
LINE
  8
0
 10
19.2595
 20
1.33272
 11
19.2135
 21
1.38466
  0
LINE
  8
0
 10
19.2135
 20
1.38466
 11
19.1578
 21
1.42747
  0
LINE
  8
0
 10
19.1578
 20
1.42747
 11
19.0961
 21
1.45807
  0
LINE
  8
0
 10
19.0961
 20
1.45807
 11
19.0281
 21
1.47641
  0
LINE
  8
0
 10
19.0281
 20
1.47641
 11
18.954
 21
1.48253
  0
LINE
  8
0
 10
18.954
 20
1.48253
 11
18.88
 21
1.47641
  0
LINE
  8
0
 10
18.88
 20
1.47641
 11
18.812
 21
1.45807
  0
LINE
  8
0
 10
18.812
 20
1.45807
 11
18.7502
 21
1.42747
  0
LINE
  8
0
 10
18.7502
 20
1.42747
 11
18.6946
 21
1.38466
  0
LINE
  8
0
 10
18.6946
 20
1.38466
 11
18.6486
 21
1.33272
  0
LINE
  8
0
 10
18.6486
 20
1.33272
 11
18.6158
 21
1.2747
  0
LINE
  8
0
 10
18.6158
 20
1.2747
 11
18.5961
 21
1.21065
  0
LINE
  8
0
 10
18.5961
 20
1.21065
 11
18.5895
 21
1.14052
  0
LINE
  8
0
 10
18.5895
 20
1.14052
 11
18.5961
 21
1.0712
  0
LINE
  8
0
 10
18.5961
 20
1.0712
 11
18.6158
 21
1.00769
  0
LINE
  8
0
 10
18.6158
 20
1.00769
 11
18.6486
 21
0.950027
  0
LINE
  8
0
 10
18.6486
 20
0.950027
 11
18.6946
 21
0.898193
  0
LINE
  8
0
 10
18.6946
 20
0.898193
 11
18.7502
 21
0.855392
  0
LINE
  8
0
 10
18.7502
 20
0.855392
 11
18.812
 21
0.824814
  0
LINE
  8
0
 10
18.812
 20
0.824814
 11
18.88
 21
0.806473
  0
LINE
  8
0
 10
18.88
 20
0.806473
 11
18.954
 21
0.800354
  0
LINE
  8
0
 10
18.954
 20
0.800354
 11
19.0281
 21
0.806473
  0
ENDSEC
  0
SECTION
  2
OBJECTS
  0
DICTIONARY
  0
ENDSEC
  0
EOF
