solid OpenSCAD_Model
  facet normal -0.896832 0 -0.442372
    outer loop
      vertex 23.4101 17 4.55
      vertex 23.1034 27 5.17178
      vertex 23.4101 27 4.55
    endloop
  endfacet
  facet normal -0.896832 -0 -0.442372
    outer loop
      vertex 23.1034 27 5.17178
      vertex 23.4101 17 4.55
      vertex 23.1034 17 5.17178
    endloop
  endfacet
  facet normal 0.997873 -0 0.0651806
    outer loop
      vertex 33.2872 17 7.39596
      vertex 33.3 27 7.2
      vertex 33.2872 27 7.39596
    endloop
  endfacet
  facet normal 0.997873 0 0.0651806
    outer loop
      vertex 33.3 27 7.2
      vertex 33.2872 17 7.39596
      vertex 33.3 17 7.2
    endloop
  endfacet
  facet normal -0.997863 0 -0.0653424
    outer loop
      vertex 22.7453 17 6.50821
      vertex 22.7 27 7.2
      vertex 22.7453 27 6.50821
    endloop
  endfacet
  facet normal -0.997863 -0 -0.0653424
    outer loop
      vertex 22.7 27 7.2
      vertex 22.7453 17 6.50821
      vertex 22.7 17 7.2
    endloop
  endfacet
  facet normal 0.980772 0 -0.195159
    outer loop
      vertex 33.2547 17 6.50821
      vertex 33.1194 27 5.82826
      vertex 33.2547 27 6.50821
    endloop
  endfacet
  facet normal 0.980772 0 -0.195159
    outer loop
      vertex 33.1194 27 5.82826
      vertex 33.2547 17 6.50821
      vertex 33.1194 17 5.82826
    endloop
  endfacet
  facet normal 0 1 0
    outer loop
      vertex 33.2872 27 7.39596
      vertex 31.1876 27 8.0541
      vertex 31.1127 27 8.27448
    endloop
  endfacet
  facet normal 0 1 0
    outer loop
      vertex 33.2872 27 7.39596
      vertex 31.2718 27 7.63074
      vertex 31.1876 27 8.0541
    endloop
  endfacet
  facet normal 0 1 0
    outer loop
      vertex 31.3 27 7.2
      vertex 33.2872 27 7.39596
      vertex 33.3 27 7.2
    endloop
  endfacet
  facet normal 0 1 0
    outer loop
      vertex 33.2872 27 7.39596
      vertex 31.3 27 7.2
      vertex 31.2718 27 7.63074
    endloop
  endfacet
  facet normal 0 1 0
    outer loop
      vertex 33.3 27 7.2
      vertex 31.2718 27 6.76926
      vertex 31.3 27 7.2
    endloop
  endfacet
  facet normal 0 1 -0
    outer loop
      vertex 33.2547 27 6.50821
      vertex 31.2718 27 6.76926
      vertex 33.3 27 7.2
    endloop
  endfacet
  facet normal 0 1 0
    outer loop
      vertex 33.2547 27 6.50821
      vertex 31.1876 27 6.3459
      vertex 31.2718 27 6.76926
    endloop
  endfacet
  facet normal 0 1 -0
    outer loop
      vertex 33.1194 27 5.82826
      vertex 31.1876 27 6.3459
      vertex 33.2547 27 6.50821
    endloop
  endfacet
  facet normal 0 1 0
    outer loop
      vertex 31.1876 27 6.3459
      vertex 33.1194 27 5.82826
      vertex 31.0488 27 5.93715
    endloop
  endfacet
  facet normal 0 1 -0
    outer loop
      vertex 32.8966 27 5.17178
      vertex 31.0488 27 5.93715
      vertex 33.1194 27 5.82826
    endloop
  endfacet
  facet normal 0 1 0
    outer loop
      vertex 31.0488 27 5.93715
      vertex 32.8966 27 5.17178
      vertex 30.8825 27 5.6
    endloop
  endfacet
  facet normal 0 1 -0
    outer loop
      vertex 32.5899 27 4.55
      vertex 30.8825 27 5.6
      vertex 32.8966 27 5.17178
    endloop
  endfacet
  facet normal 0 1 -0
    outer loop
      vertex 32.38 27 4.23581
      vertex 30.8825 27 5.6
      vertex 32.5899 27 4.55
    endloop
  endfacet
  facet normal -0 1 0
    outer loop
      vertex 29.98 27 4.56262
      vertex 30.8825 27 5.6
      vertex 32.38 27 4.23581
    endloop
  endfacet
  facet normal 0 1 0
    outer loop
      vertex 30.8825 27 5.6
      vertex 29.98 27 4.56262
      vertex 29.98 27 5.6
    endloop
  endfacet
  facet normal 0 1 -0
    outer loop
      vertex 32.38 27 3
      vertex 29.98 27 4.56262
      vertex 32.38 27 4.23581
    endloop
  endfacet
  facet normal 0 1 0
    outer loop
      vertex 29.98 27 4.56262
      vertex 32.38 27 3
      vertex 29.65 27 4.34212
    endloop
  endfacet
  facet normal 0 1 0
    outer loop
      vertex 29.65 27 4.34212
      vertex 32.38 27 3
      vertex 29.2629 27 4.1512
    endloop
  endfacet
  facet normal 0 1 0
    outer loop
      vertex 29.2629 27 4.1512
      vertex 32.38 27 3
      vertex 28.8541 27 4.01245
    endloop
  endfacet
  facet normal 0 1 0
    outer loop
      vertex 28.4307 27 3.92823
      vertex 32.38 27 3
      vertex 28 27 3.9
    endloop
  endfacet
  facet normal 0 1 0
    outer loop
      vertex 28.8541 27 4.01245
      vertex 32.38 27 3
      vertex 28.4307 27 3.92823
    endloop
  endfacet
  facet normal 0 1 -0
    outer loop
      vertex 26.02 27 4.56262
      vertex 25.1175 27 5.6
      vertex 26.02 27 5.6
    endloop
  endfacet
  facet normal 0 1 0
    outer loop
      vertex 25.1175 27 5.6
      vertex 26.02 27 4.56262
      vertex 23.62 27 4.23581
    endloop
  endfacet
  facet normal 0 1 0
    outer loop
      vertex 25.1175 27 5.6
      vertex 23.4101 27 4.55
      vertex 23.1034 27 5.17178
    endloop
  endfacet
  facet normal 0 1 0
    outer loop
      vertex 23.62 27 3
      vertex 26.02 27 4.56262
      vertex 26.35 27 4.34212
    endloop
  endfacet
  facet normal 0 1 0
    outer loop
      vertex 25.1175 27 5.6
      vertex 23.62 27 4.23581
      vertex 23.4101 27 4.55
    endloop
  endfacet
  facet normal 0 1 0
    outer loop
      vertex 23.62 27 3
      vertex 26.35 27 4.34212
      vertex 26.7371 27 4.1512
    endloop
  endfacet
  facet normal 0 1 0
    outer loop
      vertex 23.62 27 3
      vertex 26.7371 27 4.1512
      vertex 27.1459 27 4.01245
    endloop
  endfacet
  facet normal 0 1 0
    outer loop
      vertex 23.62 27 3
      vertex 27.1459 27 4.01245
      vertex 27.5693 27 3.92823
    endloop
  endfacet
  facet normal 0 1 0
    outer loop
      vertex 23.62 27 3
      vertex 28 27 3.9
      vertex 32.38 27 3
    endloop
  endfacet
  facet normal 0 1 0
    outer loop
      vertex 28 27 3.9
      vertex 23.62 27 3
      vertex 27.5693 27 3.92823
    endloop
  endfacet
  facet normal 0 1 0
    outer loop
      vertex 26.02 27 4.56262
      vertex 23.62 27 3
      vertex 23.62 27 4.23581
    endloop
  endfacet
  facet normal 0 1 0
    outer loop
      vertex 25.9911 27 9.81807
      vertex 26.25 27 10.1685
      vertex 26.25 27 9.99107
    endloop
  endfacet
  facet normal 0 1 0
    outer loop
      vertex 24.15 27 9.32
      vertex 25.9911 27 9.81807
      vertex 25.6665 27 9.53345
    endloop
  endfacet
  facet normal 0 1 -0
    outer loop
      vertex 25.9911 27 9.81807
      vertex 24.15 27 9.32
      vertex 26.25 27 10.1685
    endloop
  endfacet
  facet normal 0 1 -0
    outer loop
      vertex 25.3819 27 9.20891
      vertex 24.15 27 9.32
      vertex 25.6665 27 9.53345
    endloop
  endfacet
  facet normal 0 1 -0
    outer loop
      vertex 25.1421 27 8.85
      vertex 24.15 27 9.32
      vertex 25.3819 27 9.20891
    endloop
  endfacet
  facet normal 0 1 -0
    outer loop
      vertex 24.9512 27 8.46285
      vertex 24.15 27 9.32
      vertex 25.1421 27 8.85
    endloop
  endfacet
  facet normal 0 1 -0
    outer loop
      vertex 24.8124 27 8.0541
      vertex 24.15 27 9.32
      vertex 24.9512 27 8.46285
    endloop
  endfacet
  facet normal 0 1 0
    outer loop
      vertex 24.15 27 9.32
      vertex 22.8806 27 8.57174
      vertex 23.1034 27 9.22822
    endloop
  endfacet
  facet normal 0 1 0
    outer loop
      vertex 24.15 27 9.32
      vertex 24.8124 27 8.0541
      vertex 22.8806 27 8.57174
    endloop
  endfacet
  facet normal 0 1 0
    outer loop
      vertex 24.8124 27 8.0541
      vertex 22.7453 27 7.89179
      vertex 22.8806 27 8.57174
    endloop
  endfacet
  facet normal 0 1 -0
    outer loop
      vertex 24.7282 27 7.63074
      vertex 22.7453 27 7.89179
      vertex 24.8124 27 8.0541
    endloop
  endfacet
  facet normal 0 1 -0
    outer loop
      vertex 24.7 27 7.2
      vertex 22.7453 27 7.89179
      vertex 24.7282 27 7.63074
    endloop
  endfacet
  facet normal 0 1 0
    outer loop
      vertex 24.7 27 7.2
      vertex 22.7 27 7.2
      vertex 22.7453 27 7.89179
    endloop
  endfacet
  facet normal 0 1 0
    outer loop
      vertex 24.7282 27 6.76926
      vertex 22.7 27 7.2
      vertex 24.7 27 7.2
    endloop
  endfacet
  facet normal 0 1 0
    outer loop
      vertex 24.7282 27 6.76926
      vertex 22.7453 27 6.50821
      vertex 22.7 27 7.2
    endloop
  endfacet
  facet normal 0 1 0
    outer loop
      vertex 24.8124 27 6.3459
      vertex 22.7453 27 6.50821
      vertex 24.7282 27 6.76926
    endloop
  endfacet
  facet normal 0 1 0
    outer loop
      vertex 22.8806 27 5.82826
      vertex 24.8124 27 6.3459
      vertex 24.9512 27 5.93715
    endloop
  endfacet
  facet normal 0 1 0
    outer loop
      vertex 24.8124 27 6.3459
      vertex 22.8806 27 5.82826
      vertex 22.7453 27 6.50821
    endloop
  endfacet
  facet normal 0 1 0
    outer loop
      vertex 23.1034 27 5.17178
      vertex 24.9512 27 5.93715
      vertex 25.1175 27 5.6
    endloop
  endfacet
  facet normal 0 1 0
    outer loop
      vertex 24.9512 27 5.93715
      vertex 23.1034 27 5.17178
      vertex 22.8806 27 5.82826
    endloop
  endfacet
  facet normal 0 1 0
    outer loop
      vertex 24.15 27 9.32
      vertex 23.4101 27 9.85
      vertex 23.7377 27 10.3404
    endloop
  endfacet
  facet normal 0 1 0
    outer loop
      vertex 23.4101 27 9.85
      vertex 24.15 27 9.32
      vertex 23.1034 27 9.22822
    endloop
  endfacet
  facet normal 0.831512 0 -0.555506
    outer loop
      vertex 32.5899 17 4.55
      vertex 32.38 27 4.23581
      vertex 32.5899 27 4.55
    endloop
  endfacet
  facet normal 0.831512 0 -0.555506
    outer loop
      vertex 32.38 27 4.23581
      vertex 32.5899 17 4.55
      vertex 32.38 17 4.23581
    endloop
  endfacet
  facet normal -0.831512 0 -0.555506
    outer loop
      vertex 23.62 17 4.23581
      vertex 23.4101 27 4.55
      vertex 23.62 27 4.23581
    endloop
  endfacet
  facet normal -0.831512 -0 -0.555506
    outer loop
      vertex 23.4101 27 4.55
      vertex 23.62 17 4.23581
      vertex 23.4101 17 4.55
    endloop
  endfacet
  facet normal 0.997863 0 -0.0653424
    outer loop
      vertex 33.3 17 7.2
      vertex 33.2547 27 6.50821
      vertex 33.3 27 7.2
    endloop
  endfacet
  facet normal 0.997863 0 -0.0653424
    outer loop
      vertex 33.2547 27 6.50821
      vertex 33.3 17 7.2
      vertex 33.2547 17 6.50821
    endloop
  endfacet
  facet normal -0.94695 0 -0.321381
    outer loop
      vertex 23.1034 17 5.17178
      vertex 22.8806 27 5.82826
      vertex 23.1034 27 5.17178
    endloop
  endfacet
  facet normal -0.94695 -0 -0.321381
    outer loop
      vertex 22.8806 27 5.82826
      vertex 23.1034 17 5.17178
      vertex 22.8806 17 5.82826
    endloop
  endfacet
  facet normal -0.831528 0 0.555483
    outer loop
      vertex 23.4101 17 9.85
      vertex 23.7377 27 10.3404
      vertex 23.4101 27 9.85
    endloop
  endfacet
  facet normal -0.831528 0 0.555483
    outer loop
      vertex 23.7377 27 10.3404
      vertex 23.4101 17 9.85
      vertex 23.7377 17 10.3404
    endloop
  endfacet
  facet normal 0.94695 0 -0.321381
    outer loop
      vertex 33.1194 17 5.82826
      vertex 32.8966 27 5.17178
      vertex 33.1194 27 5.82826
    endloop
  endfacet
  facet normal 0.94695 0 -0.321381
    outer loop
      vertex 32.8966 27 5.17178
      vertex 33.1194 17 5.82826
      vertex 32.8966 17 5.17178
    endloop
  endfacet
  facet normal -0.997863 0 0.0653424
    outer loop
      vertex 22.7 17 7.2
      vertex 22.7453 27 7.89179
      vertex 22.7 27 7.2
    endloop
  endfacet
  facet normal -0.997863 0 0.0653424
    outer loop
      vertex 22.7453 27 7.89179
      vertex 22.7 17 7.2
      vertex 22.7453 17 7.89179
    endloop
  endfacet
  facet normal -0.980772 0 -0.195159
    outer loop
      vertex 22.8806 17 5.82826
      vertex 22.7453 27 6.50821
      vertex 22.8806 27 5.82826
    endloop
  endfacet
  facet normal -0.980772 -0 -0.195159
    outer loop
      vertex 22.7453 27 6.50821
      vertex 22.8806 17 5.82826
      vertex 22.7453 17 6.50821
    endloop
  endfacet
  facet normal 0 -1 0
    outer loop
      vertex 23.4101 17 9.85
      vertex 24.15 17 9.32
      vertex 23.7377 17 10.3404
    endloop
  endfacet
  facet normal -0 -1 0
    outer loop
      vertex 24.15 17 9.32
      vertex 23.4101 17 9.85
      vertex 23.1034 17 9.22822
    endloop
  endfacet
  facet normal 0 -1 -0
    outer loop
      vertex 26.25 17 10.1685
      vertex 25.9911 17 9.81807
      vertex 26.25 17 9.99107
    endloop
  endfacet
  facet normal 0 -1 0
    outer loop
      vertex 24.15 17 9.32
      vertex 25.9911 17 9.81807
      vertex 26.25 17 10.1685
    endloop
  endfacet
  facet normal 0 -1 0
    outer loop
      vertex 25.9911 17 9.81807
      vertex 24.15 17 9.32
      vertex 25.6665 17 9.53345
    endloop
  endfacet
  facet normal 0 -1 0
    outer loop
      vertex 24.15 17 9.32
      vertex 25.3819 17 9.20891
      vertex 25.6665 17 9.53345
    endloop
  endfacet
  facet normal 0 -1 0
    outer loop
      vertex 22.8806 17 8.57174
      vertex 24.15 17 9.32
      vertex 23.1034 17 9.22822
    endloop
  endfacet
  facet normal 0 -1 0
    outer loop
      vertex 24.15 17 9.32
      vertex 25.1421 17 8.85
      vertex 25.3819 17 9.20891
    endloop
  endfacet
  facet normal 0 -1 0
    outer loop
      vertex 24.8124 17 8.0541
      vertex 24.15 17 9.32
      vertex 22.8806 17 8.57174
    endloop
  endfacet
  facet normal 0 -1 0
    outer loop
      vertex 24.15 17 9.32
      vertex 24.9512 17 8.46285
      vertex 25.1421 17 8.85
    endloop
  endfacet
  facet normal 0 -1 0
    outer loop
      vertex 24.15 17 9.32
      vertex 24.8124 17 8.0541
      vertex 24.9512 17 8.46285
    endloop
  endfacet
  facet normal 0 -1 0
    outer loop
      vertex 22.7453 17 7.89179
      vertex 24.8124 17 8.0541
      vertex 22.8806 17 8.57174
    endloop
  endfacet
  facet normal 0 -1 0
    outer loop
      vertex 22.7453 17 7.89179
      vertex 24.7282 17 7.63074
      vertex 24.8124 17 8.0541
    endloop
  endfacet
  facet normal 0 -1 0
    outer loop
      vertex 22.7 17 7.2
      vertex 24.7282 17 7.63074
      vertex 22.7453 17 7.89179
    endloop
  endfacet
  facet normal 0 -1 0
    outer loop
      vertex 22.7 17 7.2
      vertex 24.7 17 7.2
      vertex 24.7282 17 7.63074
    endloop
  endfacet
  facet normal 0 -1 0
    outer loop
      vertex 22.7 17 7.2
      vertex 24.7282 17 6.76926
      vertex 24.7 17 7.2
    endloop
  endfacet
  facet normal 0 -1 0
    outer loop
      vertex 22.7453 17 6.50821
      vertex 24.7282 17 6.76926
      vertex 22.7 17 7.2
    endloop
  endfacet
  facet normal 0 -1 0
    outer loop
      vertex 22.7453 17 6.50821
      vertex 24.8124 17 6.3459
      vertex 24.7282 17 6.76926
    endloop
  endfacet
  facet normal 0 -1 0
    outer loop
      vertex 22.8806 17 5.82826
      vertex 24.8124 17 6.3459
      vertex 22.7453 17 6.50821
    endloop
  endfacet
  facet normal 0 -1 -0
    outer loop
      vertex 24.8124 17 6.3459
      vertex 22.8806 17 5.82826
      vertex 24.9512 17 5.93715
    endloop
  endfacet
  facet normal 0 -1 0
    outer loop
      vertex 23.1034 17 5.17178
      vertex 24.9512 17 5.93715
      vertex 22.8806 17 5.82826
    endloop
  endfacet
  facet normal 0 -1 -0
    outer loop
      vertex 24.9512 17 5.93715
      vertex 23.1034 17 5.17178
      vertex 25.1175 17 5.6
    endloop
  endfacet
  facet normal 0 -1 0
    outer loop
      vertex 23.4101 17 4.55
      vertex 25.1175 17 5.6
      vertex 23.1034 17 5.17178
    endloop
  endfacet
  facet normal 0 -1 0
    outer loop
      vertex 23.62 17 4.23581
      vertex 25.1175 17 5.6
      vertex 23.4101 17 4.55
    endloop
  endfacet
  facet normal -0 -1 0
    outer loop
      vertex 26.02 17 4.56262
      vertex 25.1175 17 5.6
      vertex 23.62 17 4.23581
    endloop
  endfacet
  facet normal 0 -1 0
    outer loop
      vertex 25.1175 17 5.6
      vertex 26.02 17 4.56262
      vertex 26.02 17 5.6
    endloop
  endfacet
  facet normal 0 -1 0
    outer loop
      vertex 23.62 17 3
      vertex 26.02 17 4.56262
      vertex 23.62 17 4.23581
    endloop
  endfacet
  facet normal 0 -1 -0
    outer loop
      vertex 26.02 17 4.56262
      vertex 23.62 17 3
      vertex 26.35 17 4.34212
    endloop
  endfacet
  facet normal 0 -1 -0
    outer loop
      vertex 26.35 17 4.34212
      vertex 23.62 17 3
      vertex 26.7371 17 4.1512
    endloop
  endfacet
  facet normal 0 -1 -0
    outer loop
      vertex 26.7371 17 4.1512
      vertex 23.62 17 3
      vertex 27.1459 17 4.01245
    endloop
  endfacet
  facet normal 0 -1 -0
    outer loop
      vertex 27.5693 17 3.92823
      vertex 23.62 17 3
      vertex 28 17 3.9
    endloop
  endfacet
  facet normal 0 -1 -0
    outer loop
      vertex 27.1459 17 4.01245
      vertex 23.62 17 3
      vertex 27.5693 17 3.92823
    endloop
  endfacet
  facet normal 0 -1 0
    outer loop
      vertex 29.98 17 4.56262
      vertex 30.8825 17 5.6
      vertex 29.98 17 5.6
    endloop
  endfacet
  facet normal 0 -1 -0
    outer loop
      vertex 30.8825 17 5.6
      vertex 29.98 17 4.56262
      vertex 32.38 17 4.23581
    endloop
  endfacet
  facet normal 0 -1 0
    outer loop
      vertex 30.8825 17 5.6
      vertex 32.5899 17 4.55
      vertex 32.8966 17 5.17178
    endloop
  endfacet
  facet normal 0 -1 0
    outer loop
      vertex 32.38 17 3
      vertex 29.98 17 4.56262
      vertex 29.65 17 4.34212
    endloop
  endfacet
  facet normal 0 -1 0
    outer loop
      vertex 30.8825 17 5.6
      vertex 32.38 17 4.23581
      vertex 32.5899 17 4.55
    endloop
  endfacet
  facet normal 0 -1 0
    outer loop
      vertex 32.38 17 3
      vertex 29.65 17 4.34212
      vertex 29.2629 17 4.1512
    endloop
  endfacet
  facet normal 0 -1 0
    outer loop
      vertex 32.38 17 3
      vertex 29.2629 17 4.1512
      vertex 28.8541 17 4.01245
    endloop
  endfacet
  facet normal 0 -1 0
    outer loop
      vertex 32.38 17 3
      vertex 28.8541 17 4.01245
      vertex 28.4307 17 3.92823
    endloop
  endfacet
  facet normal 0 -1 0
    outer loop
      vertex 32.38 17 3
      vertex 28 17 3.9
      vertex 23.62 17 3
    endloop
  endfacet
  facet normal 0 -1 0
    outer loop
      vertex 28 17 3.9
      vertex 32.38 17 3
      vertex 28.4307 17 3.92823
    endloop
  endfacet
  facet normal 0 -1 0
    outer loop
      vertex 29.98 17 4.56262
      vertex 32.38 17 3
      vertex 32.38 17 4.23581
    endloop
  endfacet
  facet normal 0 -1 0
    outer loop
      vertex 31.1876 17 8.0541
      vertex 33.2872 17 7.39596
      vertex 31.1127 17 8.27448
    endloop
  endfacet
  facet normal 0 -1 0
    outer loop
      vertex 31.2718 17 7.63074
      vertex 33.2872 17 7.39596
      vertex 31.1876 17 8.0541
    endloop
  endfacet
  facet normal 0 -1 0
    outer loop
      vertex 31.3 17 7.2
      vertex 33.2872 17 7.39596
      vertex 31.2718 17 7.63074
    endloop
  endfacet
  facet normal 0 -1 0
    outer loop
      vertex 31.3 17 7.2
      vertex 33.3 17 7.2
      vertex 33.2872 17 7.39596
    endloop
  endfacet
  facet normal 0 -1 0
    outer loop
      vertex 31.2718 17 6.76926
      vertex 33.3 17 7.2
      vertex 31.3 17 7.2
    endloop
  endfacet
  facet normal 0 -1 0
    outer loop
      vertex 31.2718 17 6.76926
      vertex 33.2547 17 6.50821
      vertex 33.3 17 7.2
    endloop
  endfacet
  facet normal 0 -1 0
    outer loop
      vertex 31.1876 17 6.3459
      vertex 33.2547 17 6.50821
      vertex 31.2718 17 6.76926
    endloop
  endfacet
  facet normal 0 -1 0
    outer loop
      vertex 33.1194 17 5.82826
      vertex 31.1876 17 6.3459
      vertex 31.0488 17 5.93715
    endloop
  endfacet
  facet normal 0 -1 0
    outer loop
      vertex 31.1876 17 6.3459
      vertex 33.1194 17 5.82826
      vertex 33.2547 17 6.50821
    endloop
  endfacet
  facet normal 0 -1 0
    outer loop
      vertex 32.8966 17 5.17178
      vertex 31.0488 17 5.93715
      vertex 30.8825 17 5.6
    endloop
  endfacet
  facet normal 0 -1 0
    outer loop
      vertex 31.0488 17 5.93715
      vertex 32.8966 17 5.17178
      vertex 33.1194 17 5.82826
    endloop
  endfacet
  facet normal 0.896832 0 -0.442372
    outer loop
      vertex 32.8966 17 5.17178
      vertex 32.5899 27 4.55
      vertex 32.8966 27 5.17178
    endloop
  endfacet
  facet normal 0.896832 0 -0.442372
    outer loop
      vertex 32.5899 27 4.55
      vertex 32.8966 17 5.17178
      vertex 32.5899 17 4.55
    endloop
  endfacet
  facet normal -0.980772 0 0.195159
    outer loop
      vertex 22.7453 17 7.89179
      vertex 22.8806 27 8.57174
      vertex 22.7453 27 7.89179
    endloop
  endfacet
  facet normal -0.980772 0 0.195159
    outer loop
      vertex 22.8806 27 8.57174
      vertex 22.7453 17 7.89179
      vertex 22.8806 17 8.57174
    endloop
  endfacet
  facet normal -0.94695 0 0.321381
    outer loop
      vertex 22.8806 17 8.57174
      vertex 23.1034 27 9.22822
      vertex 22.8806 27 8.57174
    endloop
  endfacet
  facet normal -0.94695 0 0.321381
    outer loop
      vertex 23.1034 27 9.22822
      vertex 22.8806 17 8.57174
      vertex 23.1034 17 9.22822
    endloop
  endfacet
  facet normal -0.896832 0 0.442372
    outer loop
      vertex 23.1034 17 9.22822
      vertex 23.4101 27 9.85
      vertex 23.1034 27 9.22822
    endloop
  endfacet
  facet normal -0.896832 0 0.442372
    outer loop
      vertex 23.4101 27 9.85
      vertex 23.1034 17 9.22822
      vertex 23.4101 17 9.85
    endloop
  endfacet
  facet normal -0.997864 0 -0.0653289
    outer loop
      vertex 31.3 17 7.2
      vertex 31.2718 27 7.63074
      vertex 31.3 27 7.2
    endloop
  endfacet
  facet normal -0.997864 -0 -0.0653289
    outer loop
      vertex 31.2718 27 7.63074
      vertex 31.3 17 7.2
      vertex 31.2718 17 7.63074
    endloop
  endfacet
  facet normal -0.896835 0 0.442366
    outer loop
      vertex 30.8825 17 5.6
      vertex 31.0488 27 5.93715
      vertex 30.8825 27 5.6
    endloop
  endfacet
  facet normal -0.896835 0 0.442366
    outer loop
      vertex 31.0488 27 5.93715
      vertex 30.8825 17 5.6
      vertex 31.0488 17 5.93715
    endloop
  endfacet
  facet normal 0.896892 0 -0.442249
    outer loop
      vertex 25.1421 17 8.85
      vertex 24.9512 27 8.46285
      vertex 25.1421 27 8.85
    endloop
  endfacet
  facet normal 0.896892 0 -0.442249
    outer loop
      vertex 24.9512 27 8.46285
      vertex 25.1421 17 8.85
      vertex 24.9512 17 8.46285
    endloop
  endfacet
  facet normal -0.98079 0 0.195065
    outer loop
      vertex 31.1876 17 6.3459
      vertex 31.2718 27 6.76926
      vertex 31.1876 27 6.3459
    endloop
  endfacet
  facet normal -0.98079 0 0.195065
    outer loop
      vertex 31.2718 27 6.76926
      vertex 31.1876 17 6.3459
      vertex 31.2718 17 6.76926
    endloop
  endfacet
  facet normal 0.946896 -0 0.321539
    outer loop
      vertex 24.8124 17 6.3459
      vertex 24.9512 27 5.93715
      vertex 24.8124 27 6.3459
    endloop
  endfacet
  facet normal 0.946896 0 0.321539
    outer loop
      vertex 24.9512 27 5.93715
      vertex 24.8124 17 6.3459
      vertex 24.9512 17 5.93715
    endloop
  endfacet
  facet normal -0.3214 0 0.946943
    outer loop
      vertex 28.8541 27 4.01245
      vertex 29.2629 17 4.1512
      vertex 29.2629 27 4.1512
    endloop
  endfacet
  facet normal -0.3214 0 0.946943
    outer loop
      vertex 29.2629 17 4.1512
      vertex 28.8541 27 4.01245
      vertex 28.8541 17 4.01245
    endloop
  endfacet
  facet normal -0.946896 0 0.321539
    outer loop
      vertex 31.0488 17 5.93715
      vertex 31.1876 27 6.3459
      vertex 31.0488 27 5.93715
    endloop
  endfacet
  facet normal -0.946896 0 0.321539
    outer loop
      vertex 31.1876 27 6.3459
      vertex 31.0488 17 5.93715
      vertex 31.1876 17 6.3459
    endloop
  endfacet
  facet normal -0.946811 0 -0.32179
    outer loop
      vertex 31.1876 17 8.0541
      vertex 31.1127 27 8.27448
      vertex 31.1876 27 8.0541
    endloop
  endfacet
  facet normal -0.946811 -0 -0.32179
    outer loop
      vertex 31.1127 27 8.27448
      vertex 31.1876 17 8.0541
      vertex 31.1127 17 8.27448
    endloop
  endfacet
  facet normal -0.0654041 0 0.997859
    outer loop
      vertex 28 27 3.9
      vertex 28.4307 17 3.92823
      vertex 28.4307 27 3.92823
    endloop
  endfacet
  facet normal -0.0654041 0 0.997859
    outer loop
      vertex 28.4307 17 3.92823
      vertex 28 27 3.9
      vertex 28 17 3.9
    endloop
  endfacet
  facet normal -0.195091 0 0.980785
    outer loop
      vertex 28.4307 27 3.92823
      vertex 28.8541 17 4.01245
      vertex 28.8541 27 4.01245
    endloop
  endfacet
  facet normal -0.195091 0 0.980785
    outer loop
      vertex 28.8541 17 4.01245
      vertex 28.4307 27 3.92823
      vertex 28.4307 17 3.92823
    endloop
  endfacet
  facet normal 0.3214 0 0.946943
    outer loop
      vertex 26.7371 27 4.1512
      vertex 27.1459 17 4.01245
      vertex 27.1459 27 4.01245
    endloop
  endfacet
  facet normal 0.3214 0 0.946943
    outer loop
      vertex 27.1459 17 4.01245
      vertex 26.7371 27 4.1512
      vertex 26.7371 17 4.1512
    endloop
  endfacet
  facet normal 0.555589 0 -0.831457
    outer loop
      vertex 25.9911 17 9.81807
      vertex 26.25 27 9.99107
      vertex 26.25 17 9.99107
    endloop
  endfacet
  facet normal 0.555589 0 -0.831457
    outer loop
      vertex 26.25 27 9.99107
      vertex 25.9911 17 9.81807
      vertex 25.9911 27 9.81807
    endloop
  endfacet
  facet normal 0.946896 0 -0.321539
    outer loop
      vertex 24.9512 17 8.46285
      vertex 24.8124 27 8.0541
      vertex 24.9512 27 8.46285
    endloop
  endfacet
  facet normal 0.946896 0 -0.321539
    outer loop
      vertex 24.8124 27 8.0541
      vertex 24.9512 17 8.46285
      vertex 24.8124 17 8.0541
    endloop
  endfacet
  facet normal -0.442332 0 0.896851
    outer loop
      vertex 29.2629 27 4.1512
      vertex 29.65 17 4.34212
      vertex 29.65 27 4.34212
    endloop
  endfacet
  facet normal -0.442332 0 0.896851
    outer loop
      vertex 29.65 17 4.34212
      vertex 29.2629 27 4.1512
      vertex 29.2629 17 4.1512
    endloop
  endfacet
  facet normal -0.555572 0 0.831468
    outer loop
      vertex 29.65 27 4.34212
      vertex 29.98 17 4.56262
      vertex 29.98 27 4.56262
    endloop
  endfacet
  facet normal -0.555572 0 0.831468
    outer loop
      vertex 29.98 17 4.56262
      vertex 29.65 27 4.34212
      vertex 29.65 17 4.34212
    endloop
  endfacet
  facet normal -0.98079 0 -0.195065
    outer loop
      vertex 31.2718 17 7.63074
      vertex 31.1876 27 8.0541
      vertex 31.2718 27 7.63074
    endloop
  endfacet
  facet normal -0.98079 -0 -0.195065
    outer loop
      vertex 31.1876 27 8.0541
      vertex 31.2718 17 7.63074
      vertex 31.1876 17 8.0541
    endloop
  endfacet
  facet normal 0.98079 -0 0.195065
    outer loop
      vertex 24.7282 17 6.76926
      vertex 24.8124 27 6.3459
      vertex 24.7282 27 6.76926
    endloop
  endfacet
  facet normal 0.98079 0 0.195065
    outer loop
      vertex 24.8124 27 6.3459
      vertex 24.7282 17 6.76926
      vertex 24.8124 17 6.3459
    endloop
  endfacet
  facet normal 0.997864 -0 0.0653289
    outer loop
      vertex 24.7 17 7.2
      vertex 24.7282 27 6.76926
      vertex 24.7 27 7.2
    endloop
  endfacet
  facet normal 0.997864 0 0.0653289
    outer loop
      vertex 24.7282 27 6.76926
      vertex 24.7 17 7.2
      vertex 24.7282 17 6.76926
    endloop
  endfacet
  facet normal 0.0654041 0 0.997859
    outer loop
      vertex 27.5693 27 3.92823
      vertex 28 17 3.9
      vertex 28 27 3.9
    endloop
  endfacet
  facet normal 0.0654041 0 0.997859
    outer loop
      vertex 28 17 3.9
      vertex 27.5693 27 3.92823
      vertex 27.5693 17 3.92823
    endloop
  endfacet
  facet normal 0.896835 -0 0.442366
    outer loop
      vertex 24.9512 17 5.93715
      vertex 25.1175 27 5.6
      vertex 24.9512 27 5.93715
    endloop
  endfacet
  facet normal 0.896835 0 0.442366
    outer loop
      vertex 25.1175 27 5.6
      vertex 24.9512 17 5.93715
      vertex 25.1175 17 5.6
    endloop
  endfacet
  facet normal -0.997864 0 0.0653289
    outer loop
      vertex 31.2718 17 6.76926
      vertex 31.3 27 7.2
      vertex 31.2718 27 6.76926
    endloop
  endfacet
  facet normal -0.997864 0 0.0653289
    outer loop
      vertex 31.3 27 7.2
      vertex 31.2718 17 6.76926
      vertex 31.3 17 7.2
    endloop
  endfacet
  facet normal 0.98079 0 -0.195065
    outer loop
      vertex 24.8124 17 8.0541
      vertex 24.7282 27 7.63074
      vertex 24.8124 27 8.0541
    endloop
  endfacet
  facet normal 0.98079 0 -0.195065
    outer loop
      vertex 24.7282 27 7.63074
      vertex 24.8124 17 8.0541
      vertex 24.7282 17 7.63074
    endloop
  endfacet
  facet normal 0.997864 0 -0.0653289
    outer loop
      vertex 24.7282 17 7.63074
      vertex 24.7 27 7.2
      vertex 24.7282 27 7.63074
    endloop
  endfacet
  facet normal 0.997864 0 -0.0653289
    outer loop
      vertex 24.7 27 7.2
      vertex 24.7282 17 7.63074
      vertex 24.7 17 7.2
    endloop
  endfacet
  facet normal 0.659285 0 -0.751893
    outer loop
      vertex 25.6665 17 9.53345
      vertex 25.9911 27 9.81807
      vertex 25.9911 17 9.81807
    endloop
  endfacet
  facet normal 0.659285 0 -0.751893
    outer loop
      vertex 25.9911 27 9.81807
      vertex 25.6665 17 9.53345
      vertex 25.6665 27 9.53345
    endloop
  endfacet
  facet normal 0.195091 0 0.980785
    outer loop
      vertex 27.1459 27 4.01245
      vertex 27.5693 17 3.92823
      vertex 27.5693 27 3.92823
    endloop
  endfacet
  facet normal 0.195091 0 0.980785
    outer loop
      vertex 27.5693 17 3.92823
      vertex 27.1459 27 4.01245
      vertex 27.1459 17 4.01245
    endloop
  endfacet
  facet normal 0.442332 0 0.896851
    outer loop
      vertex 26.35 27 4.34212
      vertex 26.7371 17 4.1512
      vertex 26.7371 27 4.1512
    endloop
  endfacet
  facet normal 0.442332 0 0.896851
    outer loop
      vertex 26.7371 17 4.1512
      vertex 26.35 27 4.34212
      vertex 26.35 17 4.34212
    endloop
  endfacet
  facet normal 0.831487 0 -0.555545
    outer loop
      vertex 25.3819 17 9.20891
      vertex 25.1421 27 8.85
      vertex 25.3819 27 9.20891
    endloop
  endfacet
  facet normal 0.831487 0 -0.555545
    outer loop
      vertex 25.1421 27 8.85
      vertex 25.3819 17 9.20891
      vertex 25.1421 17 8.85
    endloop
  endfacet
  facet normal 0.751856 0 -0.659328
    outer loop
      vertex 25.6665 17 9.53345
      vertex 25.3819 27 9.20891
      vertex 25.6665 27 9.53345
    endloop
  endfacet
  facet normal 0.751856 0 -0.659328
    outer loop
      vertex 25.3819 27 9.20891
      vertex 25.6665 17 9.53345
      vertex 25.3819 17 9.20891
    endloop
  endfacet
  facet normal 0.555572 0 0.831468
    outer loop
      vertex 26.02 27 4.56262
      vertex 26.35 17 4.34212
      vertex 26.35 27 4.34212
    endloop
  endfacet
  facet normal 0.555572 0 0.831468
    outer loop
      vertex 26.35 17 4.34212
      vertex 26.02 27 4.56262
      vertex 26.02 17 4.56262
    endloop
  endfacet
  facet normal 1 -0 0
    outer loop
      vertex 26.25 17 10.1685
      vertex 26.25 27 9.99107
      vertex 26.25 27 10.1685
    endloop
  endfacet
  facet normal 1 0 0
    outer loop
      vertex 26.25 27 9.99107
      vertex 26.25 17 10.1685
      vertex 26.25 17 9.99107
    endloop
  endfacet
  facet normal 0.927174 -0 0.374631
    outer loop
      vertex 23.7377 17 10.3404
      vertex 24.15 27 9.32
      vertex 23.7377 27 10.3404
    endloop
  endfacet
  facet normal 0.927174 0 0.374631
    outer loop
      vertex 24.15 27 9.32
      vertex 23.7377 17 10.3404
      vertex 24.15 17 9.32
    endloop
  endfacet
  facet normal -0.374624 0 0.927177
    outer loop
      vertex 24.15 27 9.32
      vertex 26.25 17 10.1685
      vertex 26.25 27 10.1685
    endloop
  endfacet
  facet normal -0.374624 0 0.927177
    outer loop
      vertex 26.25 17 10.1685
      vertex 24.15 27 9.32
      vertex 24.15 17 9.32
    endloop
  endfacet
  facet normal 0.374594 0 0.927189
    outer loop
      vertex 31.1127 27 8.27448
      vertex 33.2872 17 7.39596
      vertex 33.2872 27 7.39596
    endloop
  endfacet
  facet normal 0.374594 0 0.927189
    outer loop
      vertex 33.2872 17 7.39596
      vertex 31.1127 27 8.27448
      vertex 31.1127 17 8.27448
    endloop
  endfacet
  facet normal 1 -0 0
    outer loop
      vertex 26.02 17 5.6
      vertex 26.02 27 4.56262
      vertex 26.02 27 5.6
    endloop
  endfacet
  facet normal 1 0 0
    outer loop
      vertex 26.02 27 4.56262
      vertex 26.02 17 5.6
      vertex 26.02 17 4.56262
    endloop
  endfacet
  facet normal -0 0 1
    outer loop
      vertex 25.1175 27 5.6
      vertex 26.02 17 5.6
      vertex 26.02 27 5.6
    endloop
  endfacet
  facet normal 0 0 1
    outer loop
      vertex 26.02 17 5.6
      vertex 25.1175 27 5.6
      vertex 25.1175 17 5.6
    endloop
  endfacet
  facet normal -1 0 0
    outer loop
      vertex 23.62 17 3
      vertex 23.62 27 4.23581
      vertex 23.62 27 3
    endloop
  endfacet
  facet normal -1 -0 0
    outer loop
      vertex 23.62 27 4.23581
      vertex 23.62 17 3
      vertex 23.62 17 4.23581
    endloop
  endfacet
  facet normal 1 -0 0
    outer loop
      vertex 32.38 17 4.23581
      vertex 32.38 27 3
      vertex 32.38 27 4.23581
    endloop
  endfacet
  facet normal 1 0 0
    outer loop
      vertex 32.38 27 3
      vertex 32.38 17 4.23581
      vertex 32.38 17 3
    endloop
  endfacet
  facet normal -0 0 1
    outer loop
      vertex 29.98 27 5.6
      vertex 30.8825 17 5.6
      vertex 30.8825 27 5.6
    endloop
  endfacet
  facet normal 0 0 1
    outer loop
      vertex 30.8825 17 5.6
      vertex 29.98 27 5.6
      vertex 29.98 17 5.6
    endloop
  endfacet
  facet normal -1 0 0
    outer loop
      vertex 29.98 17 4.56262
      vertex 29.98 27 5.6
      vertex 29.98 27 4.56262
    endloop
  endfacet
  facet normal -1 -0 0
    outer loop
      vertex 29.98 27 5.6
      vertex 29.98 17 4.56262
      vertex 29.98 17 5.6
    endloop
  endfacet
  facet normal 0.946957 -0.32136 0
    outer loop
      vertex 41.8097 13.5433 3
      vertex 41.9148 13.853 0
      vertex 41.9148 13.853 3
    endloop
  endfacet
  facet normal 0.946957 -0.32136 0
    outer loop
      vertex 41.9148 13.853 0
      vertex 41.8097 13.5433 3
      vertex 41.8097 13.5433 0
    endloop
  endfacet
  facet normal -0.0654432 -0.997856 0
    outer loop
      vertex 16.1737 12.0214 0
      vertex 16.5 12 3
      vertex 16.1737 12.0214 3
    endloop
  endfacet
  facet normal -0.0654432 -0.997856 -0
    outer loop
      vertex 16.5 12 3
      vertex 16.1737 12.0214 0
      vertex 16.5 12 0
    endloop
  endfacet
  facet normal -0.997856 -0.0654432 0
    outer loop
      vertex 14.0214 14.1737 0
      vertex 14 14.5 3
      vertex 14 14.5 0
    endloop
  endfacet
  facet normal -0.997856 -0.0654432 0
    outer loop
      vertex 14 14.5 3
      vertex 14.0214 14.1737 0
      vertex 14.0214 14.1737 3
    endloop
  endfacet
  facet normal -0.659262 0.751913 0
    outer loop
      vertex 14.9781 31.4834 0
      vertex 14.7322 31.2678 3
      vertex 14.9781 31.4834 3
    endloop
  endfacet
  facet normal -0.659262 0.751913 0
    outer loop
      vertex 14.7322 31.2678 3
      vertex 14.9781 31.4834 0
      vertex 14.7322 31.2678 0
    endloop
  endfacet
  facet normal 0.195116 -0.98078 0
    outer loop
      vertex 39.8263 12.0214 0
      vertex 40.147 12.0852 3
      vertex 39.8263 12.0214 3
    endloop
  endfacet
  facet normal 0.195116 -0.98078 0
    outer loop
      vertex 40.147 12.0852 3
      vertex 39.8263 12.0214 0
      vertex 40.147 12.0852 0
    endloop
  endfacet
  facet normal -0.555617 -0.831438 0
    outer loop
      vertex 14.9781 12.5166 0
      vertex 15.25 12.3349 3
      vertex 14.9781 12.5166 3
    endloop
  endfacet
  facet normal -0.555617 -0.831438 -0
    outer loop
      vertex 15.25 12.3349 3
      vertex 14.9781 12.5166 0
      vertex 15.25 12.3349 0
    endloop
  endfacet
  facet normal 0 -1 0
    outer loop
      vertex 16.5 12 0
      vertex 39.5 12 3
      vertex 16.5 12 3
    endloop
  endfacet
  facet normal 0 -1 -0
    outer loop
      vertex 39.5 12 3
      vertex 16.5 12 0
      vertex 39.5 12 0
    endloop
  endfacet
  facet normal 0.555617 -0.831438 0
    outer loop
      vertex 40.75 12.3349 0
      vertex 41.0219 12.5166 3
      vertex 40.75 12.3349 3
    endloop
  endfacet
  facet normal 0.555617 -0.831438 0
    outer loop
      vertex 41.0219 12.5166 3
      vertex 40.75 12.3349 0
      vertex 41.0219 12.5166 0
    endloop
  endfacet
  facet normal 0.98078 -0.195116 0
    outer loop
      vertex 41.9148 13.853 3
      vertex 41.9786 14.1737 0
      vertex 41.9786 14.1737 3
    endloop
  endfacet
  facet normal 0.98078 -0.195116 0
    outer loop
      vertex 41.9786 14.1737 0
      vertex 41.9148 13.853 3
      vertex 41.9148 13.853 0
    endloop
  endfacet
  facet normal 0.0654432 -0.997856 0
    outer loop
      vertex 39.5 12 0
      vertex 39.8263 12.0214 3
      vertex 39.5 12 3
    endloop
  endfacet
  facet normal 0.0654432 -0.997856 0
    outer loop
      vertex 39.8263 12.0214 3
      vertex 39.5 12 0
      vertex 39.8263 12.0214 0
    endloop
  endfacet
  facet normal 0.555617 0.831438 -0
    outer loop
      vertex 41.0219 31.4834 0
      vertex 40.75 31.6651 3
      vertex 41.0219 31.4834 3
    endloop
  endfacet
  facet normal 0.555617 0.831438 0
    outer loop
      vertex 40.75 31.6651 3
      vertex 41.0219 31.4834 0
      vertex 40.75 31.6651 0
    endloop
  endfacet
  facet normal -0.0654432 0.997856 0
    outer loop
      vertex 16.5 32 0
      vertex 16.1737 31.9786 3
      vertex 16.5 32 3
    endloop
  endfacet
  facet normal -0.0654432 0.997856 0
    outer loop
      vertex 16.1737 31.9786 3
      vertex 16.5 32 0
      vertex 16.1737 31.9786 0
    endloop
  endfacet
  facet normal 0.32136 -0.946957 0
    outer loop
      vertex 40.147 12.0852 0
      vertex 40.4567 12.1903 3
      vertex 40.147 12.0852 3
    endloop
  endfacet
  facet normal 0.32136 -0.946957 0
    outer loop
      vertex 40.4567 12.1903 3
      vertex 40.147 12.0852 0
      vertex 40.4567 12.1903 0
    endloop
  endfacet
  facet normal 0 1 -0
    outer loop
      vertex 39.5 32 0
      vertex 16.5 32 3
      vertex 39.5 32 3
    endloop
  endfacet
  facet normal 0 1 0
    outer loop
      vertex 16.5 32 3
      vertex 39.5 32 0
      vertex 16.5 32 0
    endloop
  endfacet
  facet normal 0.751913 -0.659262 0
    outer loop
      vertex 41.2678 12.7322 3
      vertex 41.4834 12.9781 0
      vertex 41.4834 12.9781 3
    endloop
  endfacet
  facet normal 0.751913 -0.659262 0
    outer loop
      vertex 41.4834 12.9781 0
      vertex 41.2678 12.7322 3
      vertex 41.2678 12.7322 0
    endloop
  endfacet
  facet normal -0.997856 0.0654432 0
    outer loop
      vertex 14 29.5 0
      vertex 14.0214 29.8263 3
      vertex 14.0214 29.8263 0
    endloop
  endfacet
  facet normal -0.997856 0.0654432 0
    outer loop
      vertex 14.0214 29.8263 3
      vertex 14 29.5 0
      vertex 14 29.5 3
    endloop
  endfacet
  facet normal 0.442191 -0.896921 0
    outer loop
      vertex 40.4567 12.1903 0
      vertex 40.75 12.3349 3
      vertex 40.4567 12.1903 3
    endloop
  endfacet
  facet normal 0.442191 -0.896921 0
    outer loop
      vertex 40.75 12.3349 3
      vertex 40.4567 12.1903 0
      vertex 40.75 12.3349 0
    endloop
  endfacet
  facet normal -0.946957 0.32136 0
    outer loop
      vertex 14.0852 30.147 0
      vertex 14.1903 30.4567 3
      vertex 14.1903 30.4567 0
    endloop
  endfacet
  facet normal -0.946957 0.32136 0
    outer loop
      vertex 14.1903 30.4567 3
      vertex 14.0852 30.147 0
      vertex 14.0852 30.147 3
    endloop
  endfacet
  facet normal 1 -0 0
    outer loop
      vertex 42 14.5 3
      vertex 42 29.5 0
      vertex 42 29.5 3
    endloop
  endfacet
  facet normal 1 0 0
    outer loop
      vertex 42 29.5 0
      vertex 42 14.5 3
      vertex 42 14.5 0
    endloop
  endfacet
  facet normal 0.831438 0.555617 0
    outer loop
      vertex 41.6651 30.75 3
      vertex 41.4834 31.0219 0
      vertex 41.4834 31.0219 3
    endloop
  endfacet
  facet normal 0.831438 0.555617 0
    outer loop
      vertex 41.4834 31.0219 0
      vertex 41.6651 30.75 3
      vertex 41.6651 30.75 0
    endloop
  endfacet
  facet normal 0.195116 0.98078 -0
    outer loop
      vertex 40.147 31.9148 0
      vertex 39.8263 31.9786 3
      vertex 40.147 31.9148 3
    endloop
  endfacet
  facet normal 0.195116 0.98078 0
    outer loop
      vertex 39.8263 31.9786 3
      vertex 40.147 31.9148 0
      vertex 39.8263 31.9786 0
    endloop
  endfacet
  facet normal -0.442191 0.896921 0
    outer loop
      vertex 15.5433 31.8097 0
      vertex 15.25 31.6651 3
      vertex 15.5433 31.8097 3
    endloop
  endfacet
  facet normal -0.442191 0.896921 0
    outer loop
      vertex 15.25 31.6651 3
      vertex 15.5433 31.8097 0
      vertex 15.25 31.6651 0
    endloop
  endfacet
  facet normal -0.946957 -0.32136 0
    outer loop
      vertex 14.1903 13.5433 0
      vertex 14.0852 13.853 3
      vertex 14.0852 13.853 0
    endloop
  endfacet
  facet normal -0.946957 -0.32136 0
    outer loop
      vertex 14.0852 13.853 3
      vertex 14.1903 13.5433 0
      vertex 14.1903 13.5433 3
    endloop
  endfacet
  facet normal -0.555617 0.831438 0
    outer loop
      vertex 15.25 31.6651 0
      vertex 14.9781 31.4834 3
      vertex 15.25 31.6651 3
    endloop
  endfacet
  facet normal -0.555617 0.831438 0
    outer loop
      vertex 14.9781 31.4834 3
      vertex 15.25 31.6651 0
      vertex 14.9781 31.4834 0
    endloop
  endfacet
  facet normal -0.831438 -0.555617 0
    outer loop
      vertex 14.5166 12.9781 0
      vertex 14.3349 13.25 3
      vertex 14.3349 13.25 0
    endloop
  endfacet
  facet normal -0.831438 -0.555617 0
    outer loop
      vertex 14.3349 13.25 3
      vertex 14.5166 12.9781 0
      vertex 14.5166 12.9781 3
    endloop
  endfacet
  facet normal -0.831438 0.555617 0
    outer loop
      vertex 14.3349 30.75 0
      vertex 14.5166 31.0219 3
      vertex 14.5166 31.0219 0
    endloop
  endfacet
  facet normal -0.831438 0.555617 0
    outer loop
      vertex 14.5166 31.0219 3
      vertex 14.3349 30.75 0
      vertex 14.3349 30.75 3
    endloop
  endfacet
  facet normal -0.32136 0.946957 0
    outer loop
      vertex 15.853 31.9148 0
      vertex 15.5433 31.8097 3
      vertex 15.853 31.9148 3
    endloop
  endfacet
  facet normal -0.32136 0.946957 0
    outer loop
      vertex 15.5433 31.8097 3
      vertex 15.853 31.9148 0
      vertex 15.5433 31.8097 0
    endloop
  endfacet
  facet normal 0.0654432 0.997856 -0
    outer loop
      vertex 39.8263 31.9786 0
      vertex 39.5 32 3
      vertex 39.8263 31.9786 3
    endloop
  endfacet
  facet normal 0.0654432 0.997856 0
    outer loop
      vertex 39.5 32 3
      vertex 39.8263 31.9786 0
      vertex 39.5 32 0
    endloop
  endfacet
  facet normal 0.896921 -0.442191 0
    outer loop
      vertex 41.6651 13.25 3
      vertex 41.8097 13.5433 0
      vertex 41.8097 13.5433 3
    endloop
  endfacet
  facet normal 0.896921 -0.442191 0
    outer loop
      vertex 41.8097 13.5433 0
      vertex 41.6651 13.25 3
      vertex 41.6651 13.25 0
    endloop
  endfacet
  facet normal 0.659262 -0.751913 0
    outer loop
      vertex 41.0219 12.5166 0
      vertex 41.2678 12.7322 3
      vertex 41.0219 12.5166 3
    endloop
  endfacet
  facet normal 0.659262 -0.751913 0
    outer loop
      vertex 41.2678 12.7322 3
      vertex 41.0219 12.5166 0
      vertex 41.2678 12.7322 0
    endloop
  endfacet
  facet normal -0.896921 0.442191 0
    outer loop
      vertex 14.1903 30.4567 0
      vertex 14.3349 30.75 3
      vertex 14.3349 30.75 0
    endloop
  endfacet
  facet normal -0.896921 0.442191 0
    outer loop
      vertex 14.3349 30.75 3
      vertex 14.1903 30.4567 0
      vertex 14.1903 30.4567 3
    endloop
  endfacet
  facet normal -1 0 0
    outer loop
      vertex 14 14.5 0
      vertex 14 29.5 3
      vertex 14 29.5 0
    endloop
  endfacet
  facet normal -1 -0 0
    outer loop
      vertex 14 29.5 3
      vertex 14 14.5 0
      vertex 14 14.5 3
    endloop
  endfacet
  facet normal 0.442191 0.896921 -0
    outer loop
      vertex 40.75 31.6651 0
      vertex 40.4567 31.8097 3
      vertex 40.75 31.6651 3
    endloop
  endfacet
  facet normal 0.442191 0.896921 0
    outer loop
      vertex 40.4567 31.8097 3
      vertex 40.75 31.6651 0
      vertex 40.4567 31.8097 0
    endloop
  endfacet
  facet normal -0.98078 0.195116 0
    outer loop
      vertex 14.0214 29.8263 0
      vertex 14.0852 30.147 3
      vertex 14.0852 30.147 0
    endloop
  endfacet
  facet normal -0.98078 0.195116 0
    outer loop
      vertex 14.0852 30.147 3
      vertex 14.0214 29.8263 0
      vertex 14.0214 29.8263 3
    endloop
  endfacet
  facet normal 0 0 -1
    outer loop
      vertex 39.5 12 0
      vertex 42 14.5 0
      vertex 41.9786 14.1737 0
    endloop
  endfacet
  facet normal -0 0 -1
    outer loop
      vertex 42 14.5 0
      vertex 39.5 12 0
      vertex 42 29.5 0
    endloop
  endfacet
  facet normal 0 0 -1
    outer loop
      vertex 39.5 12 0
      vertex 41.9786 14.1737 0
      vertex 41.9148 13.853 0
    endloop
  endfacet
  facet normal 0 0 -1
    outer loop
      vertex 39.5 32 0
      vertex 42 29.5 0
      vertex 39.5 12 0
    endloop
  endfacet
  facet normal 0 0 -1
    outer loop
      vertex 39.5 12 0
      vertex 41.9148 13.853 0
      vertex 41.8097 13.5433 0
    endloop
  endfacet
  facet normal 0 0 -1
    outer loop
      vertex 42 29.5 0
      vertex 39.5 32 0
      vertex 41.9786 29.8263 0
    endloop
  endfacet
  facet normal 0 0 -1
    outer loop
      vertex 39.5 12 0
      vertex 41.8097 13.5433 0
      vertex 41.6651 13.25 0
    endloop
  endfacet
  facet normal 0 0 -1
    outer loop
      vertex 41.9786 29.8263 0
      vertex 39.5 32 0
      vertex 41.9148 30.147 0
    endloop
  endfacet
  facet normal 0 0 -1
    outer loop
      vertex 39.5 12 0
      vertex 41.6651 13.25 0
      vertex 41.4834 12.9781 0
    endloop
  endfacet
  facet normal 0 0 -1
    outer loop
      vertex 41.9148 30.147 0
      vertex 39.5 32 0
      vertex 41.8097 30.4567 0
    endloop
  endfacet
  facet normal 0 0 -1
    outer loop
      vertex 39.5 12 0
      vertex 41.4834 12.9781 0
      vertex 41.2678 12.7322 0
    endloop
  endfacet
  facet normal 0 0 -1
    outer loop
      vertex 41.8097 30.4567 0
      vertex 39.5 32 0
      vertex 41.6651 30.75 0
    endloop
  endfacet
  facet normal 0 0 -1
    outer loop
      vertex 39.5 12 0
      vertex 41.2678 12.7322 0
      vertex 41.0219 12.5166 0
    endloop
  endfacet
  facet normal 0 0 -1
    outer loop
      vertex 41.6651 30.75 0
      vertex 39.5 32 0
      vertex 41.4834 31.0219 0
    endloop
  endfacet
  facet normal 0 0 -1
    outer loop
      vertex 39.5 12 0
      vertex 41.0219 12.5166 0
      vertex 40.75 12.3349 0
    endloop
  endfacet
  facet normal 0 0 -1
    outer loop
      vertex 41.4834 31.0219 0
      vertex 39.5 32 0
      vertex 41.2678 31.2678 0
    endloop
  endfacet
  facet normal 0 0 -1
    outer loop
      vertex 39.5 12 0
      vertex 40.75 12.3349 0
      vertex 40.4567 12.1903 0
    endloop
  endfacet
  facet normal 0 0 -1
    outer loop
      vertex 41.2678 31.2678 0
      vertex 39.5 32 0
      vertex 41.0219 31.4834 0
    endloop
  endfacet
  facet normal 0 0 -1
    outer loop
      vertex 39.5 12 0
      vertex 40.4567 12.1903 0
      vertex 40.147 12.0852 0
    endloop
  endfacet
  facet normal 0 0 -1
    outer loop
      vertex 41.0219 31.4834 0
      vertex 39.5 32 0
      vertex 40.75 31.6651 0
    endloop
  endfacet
  facet normal 0 0 -1
    outer loop
      vertex 39.5 12 0
      vertex 40.147 12.0852 0
      vertex 39.8263 12.0214 0
    endloop
  endfacet
  facet normal 0 0 -1
    outer loop
      vertex 40.75 31.6651 0
      vertex 39.5 32 0
      vertex 40.4567 31.8097 0
    endloop
  endfacet
  facet normal 0 0 -1
    outer loop
      vertex 40.4567 31.8097 0
      vertex 39.5 32 0
      vertex 40.147 31.9148 0
    endloop
  endfacet
  facet normal 0 0 -1
    outer loop
      vertex 40.147 31.9148 0
      vertex 39.5 32 0
      vertex 39.8263 31.9786 0
    endloop
  endfacet
  facet normal 0 0 -1
    outer loop
      vertex 16.5 12 0
      vertex 39.5 32 0
      vertex 39.5 12 0
    endloop
  endfacet
  facet normal 0 0 -1
    outer loop
      vertex 16.5 12 0
      vertex 16.5 32 0
      vertex 39.5 32 0
    endloop
  endfacet
  facet normal 0 0 -1
    outer loop
      vertex 14 14.5 0
      vertex 16.5 12 0
      vertex 16.1737 12.0214 0
    endloop
  endfacet
  facet normal 0 0 -1
    outer loop
      vertex 16.5 12 0
      vertex 14 14.5 0
      vertex 16.5 32 0
    endloop
  endfacet
  facet normal 0 0 -1
    outer loop
      vertex 14 14.5 0
      vertex 16.1737 12.0214 0
      vertex 15.853 12.0852 0
    endloop
  endfacet
  facet normal 0 0 -1
    outer loop
      vertex 14 29.5 0
      vertex 16.5 32 0
      vertex 14 14.5 0
    endloop
  endfacet
  facet normal 0 0 -1
    outer loop
      vertex 14 14.5 0
      vertex 15.853 12.0852 0
      vertex 15.5433 12.1903 0
    endloop
  endfacet
  facet normal 0 0 -1
    outer loop
      vertex 16.5 32 0
      vertex 14 29.5 0
      vertex 16.1737 31.9786 0
    endloop
  endfacet
  facet normal 0 0 -1
    outer loop
      vertex 14 14.5 0
      vertex 15.5433 12.1903 0
      vertex 15.25 12.3349 0
    endloop
  endfacet
  facet normal 0 0 -1
    outer loop
      vertex 16.1737 31.9786 0
      vertex 14 29.5 0
      vertex 15.853 31.9148 0
    endloop
  endfacet
  facet normal 0 0 -1
    outer loop
      vertex 14 14.5 0
      vertex 15.25 12.3349 0
      vertex 14.9781 12.5166 0
    endloop
  endfacet
  facet normal 0 0 -1
    outer loop
      vertex 15.853 31.9148 0
      vertex 14 29.5 0
      vertex 15.5433 31.8097 0
    endloop
  endfacet
  facet normal 0 0 -1
    outer loop
      vertex 14 14.5 0
      vertex 14.9781 12.5166 0
      vertex 14.7322 12.7322 0
    endloop
  endfacet
  facet normal 0 0 -1
    outer loop
      vertex 15.5433 31.8097 0
      vertex 14 29.5 0
      vertex 15.25 31.6651 0
    endloop
  endfacet
  facet normal 0 0 -1
    outer loop
      vertex 14 14.5 0
      vertex 14.7322 12.7322 0
      vertex 14.5166 12.9781 0
    endloop
  endfacet
  facet normal 0 0 -1
    outer loop
      vertex 15.25 31.6651 0
      vertex 14 29.5 0
      vertex 14.9781 31.4834 0
    endloop
  endfacet
  facet normal 0 0 -1
    outer loop
      vertex 14 14.5 0
      vertex 14.5166 12.9781 0
      vertex 14.3349 13.25 0
    endloop
  endfacet
  facet normal 0 0 -1
    outer loop
      vertex 14.9781 31.4834 0
      vertex 14 29.5 0
      vertex 14.7322 31.2678 0
    endloop
  endfacet
  facet normal 0 0 -1
    outer loop
      vertex 14 14.5 0
      vertex 14.3349 13.25 0
      vertex 14.1903 13.5433 0
    endloop
  endfacet
  facet normal 0 0 -1
    outer loop
      vertex 14.7322 31.2678 0
      vertex 14 29.5 0
      vertex 14.5166 31.0219 0
    endloop
  endfacet
  facet normal 0 0 -1
    outer loop
      vertex 14 14.5 0
      vertex 14.1903 13.5433 0
      vertex 14.0852 13.853 0
    endloop
  endfacet
  facet normal 0 0 -1
    outer loop
      vertex 14.5166 31.0219 0
      vertex 14 29.5 0
      vertex 14.3349 30.75 0
    endloop
  endfacet
  facet normal 0 0 -1
    outer loop
      vertex 14 14.5 0
      vertex 14.0852 13.853 0
      vertex 14.0214 14.1737 0
    endloop
  endfacet
  facet normal 0 0 -1
    outer loop
      vertex 14.3349 30.75 0
      vertex 14 29.5 0
      vertex 14.1903 30.4567 0
    endloop
  endfacet
  facet normal 0 0 -1
    outer loop
      vertex 14.1903 30.4567 0
      vertex 14 29.5 0
      vertex 14.0852 30.147 0
    endloop
  endfacet
  facet normal 0 0 -1
    outer loop
      vertex 14.0852 30.147 0
      vertex 14 29.5 0
      vertex 14.0214 29.8263 0
    endloop
  endfacet
  facet normal -0.751913 -0.659262 0
    outer loop
      vertex 14.7322 12.7322 0
      vertex 14.5166 12.9781 3
      vertex 14.5166 12.9781 0
    endloop
  endfacet
  facet normal -0.751913 -0.659262 0
    outer loop
      vertex 14.5166 12.9781 3
      vertex 14.7322 12.7322 0
      vertex 14.7322 12.7322 3
    endloop
  endfacet
  facet normal -0.751913 0.659262 0
    outer loop
      vertex 14.5166 31.0219 0
      vertex 14.7322 31.2678 3
      vertex 14.7322 31.2678 0
    endloop
  endfacet
  facet normal -0.751913 0.659262 0
    outer loop
      vertex 14.7322 31.2678 3
      vertex 14.5166 31.0219 0
      vertex 14.5166 31.0219 3
    endloop
  endfacet
  facet normal 0.896921 0.442191 0
    outer loop
      vertex 41.8097 30.4567 3
      vertex 41.6651 30.75 0
      vertex 41.6651 30.75 3
    endloop
  endfacet
  facet normal 0.896921 0.442191 0
    outer loop
      vertex 41.6651 30.75 0
      vertex 41.8097 30.4567 3
      vertex 41.8097 30.4567 0
    endloop
  endfacet
  facet normal 0.997856 -0.0654432 0
    outer loop
      vertex 41.9786 14.1737 3
      vertex 42 14.5 0
      vertex 42 14.5 3
    endloop
  endfacet
  facet normal 0.997856 -0.0654432 0
    outer loop
      vertex 42 14.5 0
      vertex 41.9786 14.1737 3
      vertex 41.9786 14.1737 0
    endloop
  endfacet
  facet normal -0.195116 0.98078 0
    outer loop
      vertex 16.1737 31.9786 0
      vertex 15.853 31.9148 3
      vertex 16.1737 31.9786 3
    endloop
  endfacet
  facet normal -0.195116 0.98078 0
    outer loop
      vertex 15.853 31.9148 3
      vertex 16.1737 31.9786 0
      vertex 15.853 31.9148 0
    endloop
  endfacet
  facet normal 0.946957 0.32136 0
    outer loop
      vertex 41.9148 30.147 3
      vertex 41.8097 30.4567 0
      vertex 41.8097 30.4567 3
    endloop
  endfacet
  facet normal 0.946957 0.32136 0
    outer loop
      vertex 41.8097 30.4567 0
      vertex 41.9148 30.147 3
      vertex 41.9148 30.147 0
    endloop
  endfacet
  facet normal 0.32136 0.946957 -0
    outer loop
      vertex 40.4567 31.8097 0
      vertex 40.147 31.9148 3
      vertex 40.4567 31.8097 3
    endloop
  endfacet
  facet normal 0.32136 0.946957 0
    outer loop
      vertex 40.147 31.9148 3
      vertex 40.4567 31.8097 0
      vertex 40.147 31.9148 0
    endloop
  endfacet
  facet normal 0.831438 -0.555617 0
    outer loop
      vertex 41.4834 12.9781 3
      vertex 41.6651 13.25 0
      vertex 41.6651 13.25 3
    endloop
  endfacet
  facet normal 0.831438 -0.555617 0
    outer loop
      vertex 41.6651 13.25 0
      vertex 41.4834 12.9781 3
      vertex 41.4834 12.9781 0
    endloop
  endfacet
  facet normal 0.997856 0.0654432 0
    outer loop
      vertex 42 29.5 3
      vertex 41.9786 29.8263 0
      vertex 41.9786 29.8263 3
    endloop
  endfacet
  facet normal 0.997856 0.0654432 0
    outer loop
      vertex 41.9786 29.8263 0
      vertex 42 29.5 3
      vertex 42 29.5 0
    endloop
  endfacet
  facet normal -0.98078 -0.195116 0
    outer loop
      vertex 14.0852 13.853 0
      vertex 14.0214 14.1737 3
      vertex 14.0214 14.1737 0
    endloop
  endfacet
  facet normal -0.98078 -0.195116 0
    outer loop
      vertex 14.0214 14.1737 3
      vertex 14.0852 13.853 0
      vertex 14.0852 13.853 3
    endloop
  endfacet
  facet normal 0.659262 0.751913 -0
    outer loop
      vertex 41.2678 31.2678 0
      vertex 41.0219 31.4834 3
      vertex 41.2678 31.2678 3
    endloop
  endfacet
  facet normal 0.659262 0.751913 0
    outer loop
      vertex 41.0219 31.4834 3
      vertex 41.2678 31.2678 0
      vertex 41.0219 31.4834 0
    endloop
  endfacet
  facet normal -0.195116 -0.98078 0
    outer loop
      vertex 15.853 12.0852 0
      vertex 16.1737 12.0214 3
      vertex 15.853 12.0852 3
    endloop
  endfacet
  facet normal -0.195116 -0.98078 -0
    outer loop
      vertex 16.1737 12.0214 3
      vertex 15.853 12.0852 0
      vertex 16.1737 12.0214 0
    endloop
  endfacet
  facet normal -0.896921 -0.442191 0
    outer loop
      vertex 14.3349 13.25 0
      vertex 14.1903 13.5433 3
      vertex 14.1903 13.5433 0
    endloop
  endfacet
  facet normal -0.896921 -0.442191 0
    outer loop
      vertex 14.1903 13.5433 3
      vertex 14.3349 13.25 0
      vertex 14.3349 13.25 3
    endloop
  endfacet
  facet normal -0.659262 -0.751913 0
    outer loop
      vertex 14.7322 12.7322 0
      vertex 14.9781 12.5166 3
      vertex 14.7322 12.7322 3
    endloop
  endfacet
  facet normal -0.659262 -0.751913 -0
    outer loop
      vertex 14.9781 12.5166 3
      vertex 14.7322 12.7322 0
      vertex 14.9781 12.5166 0
    endloop
  endfacet
  facet normal -0.32136 -0.946957 0
    outer loop
      vertex 15.5433 12.1903 0
      vertex 15.853 12.0852 3
      vertex 15.5433 12.1903 3
    endloop
  endfacet
  facet normal -0.32136 -0.946957 -0
    outer loop
      vertex 15.853 12.0852 3
      vertex 15.5433 12.1903 0
      vertex 15.853 12.0852 0
    endloop
  endfacet
  facet normal 0.751913 0.659262 0
    outer loop
      vertex 41.4834 31.0219 3
      vertex 41.2678 31.2678 0
      vertex 41.2678 31.2678 3
    endloop
  endfacet
  facet normal 0.751913 0.659262 0
    outer loop
      vertex 41.2678 31.2678 0
      vertex 41.4834 31.0219 3
      vertex 41.4834 31.0219 0
    endloop
  endfacet
  facet normal 0 0 1
    outer loop
      vertex 39.5 32 3
      vertex 42 29.5 3
      vertex 41.9786 29.8263 3
    endloop
  endfacet
  facet normal 0 0 1
    outer loop
      vertex 42 29.5 3
      vertex 32.38 27 3
      vertex 42 14.5 3
    endloop
  endfacet
  facet normal 0 0 1
    outer loop
      vertex 39.5 32 3
      vertex 41.9786 29.8263 3
      vertex 41.9148 30.147 3
    endloop
  endfacet
  facet normal -0 0 1
    outer loop
      vertex 32.38 17 3
      vertex 42 14.5 3
      vertex 32.38 27 3
    endloop
  endfacet
  facet normal 0 0 1
    outer loop
      vertex 39.5 32 3
      vertex 41.9148 30.147 3
      vertex 41.8097 30.4567 3
    endloop
  endfacet
  facet normal 0 -0 1
    outer loop
      vertex 39.5 12 3
      vertex 42 14.5 3
      vertex 32.38 17 3
    endloop
  endfacet
  facet normal 0 0 1
    outer loop
      vertex 39.5 32 3
      vertex 41.8097 30.4567 3
      vertex 41.6651 30.75 3
    endloop
  endfacet
  facet normal 0 0 1
    outer loop
      vertex 42 14.5 3
      vertex 39.5 12 3
      vertex 41.9786 14.1737 3
    endloop
  endfacet
  facet normal 0 0 1
    outer loop
      vertex 39.5 32 3
      vertex 41.6651 30.75 3
      vertex 41.4834 31.0219 3
    endloop
  endfacet
  facet normal 0 0 1
    outer loop
      vertex 41.9786 14.1737 3
      vertex 39.5 12 3
      vertex 41.9148 13.853 3
    endloop
  endfacet
  facet normal 0 0 1
    outer loop
      vertex 39.5 32 3
      vertex 41.4834 31.0219 3
      vertex 41.2678 31.2678 3
    endloop
  endfacet
  facet normal 0 0 1
    outer loop
      vertex 41.9148 13.853 3
      vertex 39.5 12 3
      vertex 41.8097 13.5433 3
    endloop
  endfacet
  facet normal 0 0 1
    outer loop
      vertex 39.5 32 3
      vertex 41.2678 31.2678 3
      vertex 41.0219 31.4834 3
    endloop
  endfacet
  facet normal 0 0 1
    outer loop
      vertex 41.8097 13.5433 3
      vertex 39.5 12 3
      vertex 41.6651 13.25 3
    endloop
  endfacet
  facet normal 0 0 1
    outer loop
      vertex 39.5 32 3
      vertex 41.0219 31.4834 3
      vertex 40.75 31.6651 3
    endloop
  endfacet
  facet normal 0 0 1
    outer loop
      vertex 41.6651 13.25 3
      vertex 39.5 12 3
      vertex 41.4834 12.9781 3
    endloop
  endfacet
  facet normal 0 0 1
    outer loop
      vertex 39.5 32 3
      vertex 40.75 31.6651 3
      vertex 40.4567 31.8097 3
    endloop
  endfacet
  facet normal 0 0 1
    outer loop
      vertex 41.4834 12.9781 3
      vertex 39.5 12 3
      vertex 41.2678 12.7322 3
    endloop
  endfacet
  facet normal 0 0 1
    outer loop
      vertex 39.5 32 3
      vertex 40.4567 31.8097 3
      vertex 40.147 31.9148 3
    endloop
  endfacet
  facet normal 0 0 1
    outer loop
      vertex 41.2678 12.7322 3
      vertex 39.5 12 3
      vertex 41.0219 12.5166 3
    endloop
  endfacet
  facet normal 0 0 1
    outer loop
      vertex 39.5 32 3
      vertex 40.147 31.9148 3
      vertex 39.8263 31.9786 3
    endloop
  endfacet
  facet normal 0 0 1
    outer loop
      vertex 41.0219 12.5166 3
      vertex 39.5 12 3
      vertex 40.75 12.3349 3
    endloop
  endfacet
  facet normal 0 0 1
    outer loop
      vertex 42 29.5 3
      vertex 39.5 32 3
      vertex 32.38 27 3
    endloop
  endfacet
  facet normal 0 0 1
    outer loop
      vertex 40.75 12.3349 3
      vertex 39.5 12 3
      vertex 40.4567 12.1903 3
    endloop
  endfacet
  facet normal 0 0 1
    outer loop
      vertex 40.4567 12.1903 3
      vertex 39.5 12 3
      vertex 40.147 12.0852 3
    endloop
  endfacet
  facet normal 0 0 1
    outer loop
      vertex 39.5 32 3
      vertex 23.62 27 3
      vertex 32.38 27 3
    endloop
  endfacet
  facet normal -0 0 1
    outer loop
      vertex 14 29.5 3
      vertex 23.62 27 3
      vertex 16.5 32 3
    endloop
  endfacet
  facet normal -0 0 1
    outer loop
      vertex 16.5 32 3
      vertex 23.62 27 3
      vertex 39.5 32 3
    endloop
  endfacet
  facet normal 0 0 1
    outer loop
      vertex 40.147 12.0852 3
      vertex 39.5 12 3
      vertex 39.8263 12.0214 3
    endloop
  endfacet
  facet normal -0 0 1
    outer loop
      vertex 23.62 17 3
      vertex 39.5 12 3
      vertex 32.38 17 3
    endloop
  endfacet
  facet normal 0 0 1
    outer loop
      vertex 23.62 17 3
      vertex 16.5 12 3
      vertex 39.5 12 3
    endloop
  endfacet
  facet normal 0 0 1
    outer loop
      vertex 23.62 27 3
      vertex 14 29.5 3
      vertex 23.62 17 3
    endloop
  endfacet
  facet normal 0 0 1
    outer loop
      vertex 14 29.5 3
      vertex 16.5 32 3
      vertex 16.1737 31.9786 3
    endloop
  endfacet
  facet normal 0 0 1
    outer loop
      vertex 14 14.5 3
      vertex 23.62 17 3
      vertex 14 29.5 3
    endloop
  endfacet
  facet normal 0 0 1
    outer loop
      vertex 14 29.5 3
      vertex 16.1737 31.9786 3
      vertex 15.853 31.9148 3
    endloop
  endfacet
  facet normal 0 0 1
    outer loop
      vertex 23.62 17 3
      vertex 14 14.5 3
      vertex 16.5 12 3
    endloop
  endfacet
  facet normal 0 0 1
    outer loop
      vertex 14 29.5 3
      vertex 15.853 31.9148 3
      vertex 15.5433 31.8097 3
    endloop
  endfacet
  facet normal 0 0 1
    outer loop
      vertex 16.5 12 3
      vertex 14 14.5 3
      vertex 16.1737 12.0214 3
    endloop
  endfacet
  facet normal 0 0 1
    outer loop
      vertex 14 29.5 3
      vertex 15.5433 31.8097 3
      vertex 15.25 31.6651 3
    endloop
  endfacet
  facet normal 0 0 1
    outer loop
      vertex 16.1737 12.0214 3
      vertex 14 14.5 3
      vertex 15.853 12.0852 3
    endloop
  endfacet
  facet normal 0 0 1
    outer loop
      vertex 14 29.5 3
      vertex 15.25 31.6651 3
      vertex 14.9781 31.4834 3
    endloop
  endfacet
  facet normal 0 0 1
    outer loop
      vertex 15.853 12.0852 3
      vertex 14 14.5 3
      vertex 15.5433 12.1903 3
    endloop
  endfacet
  facet normal 0 0 1
    outer loop
      vertex 14 29.5 3
      vertex 14.9781 31.4834 3
      vertex 14.7322 31.2678 3
    endloop
  endfacet
  facet normal 0 0 1
    outer loop
      vertex 15.5433 12.1903 3
      vertex 14 14.5 3
      vertex 15.25 12.3349 3
    endloop
  endfacet
  facet normal 0 0 1
    outer loop
      vertex 14 29.5 3
      vertex 14.7322 31.2678 3
      vertex 14.5166 31.0219 3
    endloop
  endfacet
  facet normal 0 0 1
    outer loop
      vertex 15.25 12.3349 3
      vertex 14 14.5 3
      vertex 14.9781 12.5166 3
    endloop
  endfacet
  facet normal 0 0 1
    outer loop
      vertex 14 29.5 3
      vertex 14.5166 31.0219 3
      vertex 14.3349 30.75 3
    endloop
  endfacet
  facet normal 0 0 1
    outer loop
      vertex 14.9781 12.5166 3
      vertex 14 14.5 3
      vertex 14.7322 12.7322 3
    endloop
  endfacet
  facet normal 0 0 1
    outer loop
      vertex 14 29.5 3
      vertex 14.3349 30.75 3
      vertex 14.1903 30.4567 3
    endloop
  endfacet
  facet normal 0 0 1
    outer loop
      vertex 14.7322 12.7322 3
      vertex 14 14.5 3
      vertex 14.5166 12.9781 3
    endloop
  endfacet
  facet normal 0 0 1
    outer loop
      vertex 14 29.5 3
      vertex 14.1903 30.4567 3
      vertex 14.0852 30.147 3
    endloop
  endfacet
  facet normal 0 0 1
    outer loop
      vertex 14.5166 12.9781 3
      vertex 14 14.5 3
      vertex 14.3349 13.25 3
    endloop
  endfacet
  facet normal 0 0 1
    outer loop
      vertex 14 29.5 3
      vertex 14.0852 30.147 3
      vertex 14.0214 29.8263 3
    endloop
  endfacet
  facet normal 0 0 1
    outer loop
      vertex 14.3349 13.25 3
      vertex 14 14.5 3
      vertex 14.1903 13.5433 3
    endloop
  endfacet
  facet normal 0 0 1
    outer loop
      vertex 14.1903 13.5433 3
      vertex 14 14.5 3
      vertex 14.0852 13.853 3
    endloop
  endfacet
  facet normal 0 0 1
    outer loop
      vertex 14.0852 13.853 3
      vertex 14 14.5 3
      vertex 14.0214 14.1737 3
    endloop
  endfacet
  facet normal -0.442191 -0.896921 0
    outer loop
      vertex 15.25 12.3349 0
      vertex 15.5433 12.1903 3
      vertex 15.25 12.3349 3
    endloop
  endfacet
  facet normal -0.442191 -0.896921 -0
    outer loop
      vertex 15.5433 12.1903 3
      vertex 15.25 12.3349 0
      vertex 15.5433 12.1903 0
    endloop
  endfacet
  facet normal 0.98078 0.195116 0
    outer loop
      vertex 41.9786 29.8263 3
      vertex 41.9148 30.147 0
      vertex 41.9148 30.147 3
    endloop
  endfacet
  facet normal 0.98078 0.195116 0
    outer loop
      vertex 41.9148 30.147 0
      vertex 41.9786 29.8263 3
      vertex 41.9786 29.8263 0
    endloop
  endfacet
endsolid OpenSCAD_Model
