solid OpenSCAD_Model
  facet normal 0.997853 -0 0.0654883
    outer loop
      vertex 32.0368 17 6.26113
      vertex 32.05 27 6.06
      vertex 32.0368 27 6.26113
    endloop
  endfacet
  facet normal 0.997853 0 0.0654883
    outer loop
      vertex 32.05 27 6.06
      vertex 32.0368 17 6.26113
      vertex 32.05 17 6.06
    endloop
  endfacet
  facet normal -0.980768 0 -0.195176
    outer loop
      vertex 24.088 17 5.01178
      vertex 23.9846 27 5.53137
      vertex 24.088 27 5.01178
    endloop
  endfacet
  facet normal -0.980768 -0 -0.195176
    outer loop
      vertex 23.9846 27 5.53137
      vertex 24.088 17 5.01178
      vertex 23.9846 17 5.53137
    endloop
  endfacet
  facet normal 0.946923 0 -0.321461
    outer loop
      vertex 31.912 17 5.01178
      vertex 31.7417 27 4.51013
      vertex 31.912 27 5.01178
    endloop
  endfacet
  facet normal 0.946923 0 -0.321461
    outer loop
      vertex 31.7417 27 4.51013
      vertex 31.912 17 5.01178
      vertex 31.7417 17 4.51013
    endloop
  endfacet
  facet normal 0.980768 0 -0.195176
    outer loop
      vertex 32.0154 17 5.53137
      vertex 31.912 27 5.01178
      vertex 32.0154 27 5.53137
    endloop
  endfacet
  facet normal 0.980768 0 -0.195176
    outer loop
      vertex 31.912 27 5.01178
      vertex 32.0154 17 5.53137
      vertex 31.912 17 5.01178
    endloop
  endfacet
  facet normal -0.997865 0 -0.0653125
    outer loop
      vertex 23.9846 17 5.53137
      vertex 23.95 27 6.06
      vertex 23.9846 27 5.53137
    endloop
  endfacet
  facet normal -0.997865 -0 -0.0653125
    outer loop
      vertex 23.95 27 6.06
      vertex 23.9846 17 5.53137
      vertex 23.95 17 6.06
    endloop
  endfacet
  facet normal -0.946923 0 0.321461
    outer loop
      vertex 24.088 17 7.10822
      vertex 24.2583 27 7.60987
      vertex 24.088 27 7.10822
    endloop
  endfacet
  facet normal -0.946923 0 0.321461
    outer loop
      vertex 24.2583 27 7.60987
      vertex 24.088 17 7.10822
      vertex 24.2583 17 7.60987
    endloop
  endfacet
  facet normal -0.896961 0 0.44211
    outer loop
      vertex 24.2583 17 7.60987
      vertex 24.3284 27 7.75209
      vertex 24.2583 27 7.60987
    endloop
  endfacet
  facet normal -0.896961 0 0.44211
    outer loop
      vertex 24.3284 27 7.75209
      vertex 24.2583 17 7.60987
      vertex 24.3284 17 7.75209
    endloop
  endfacet
  facet normal -0.997865 0 0.0653125
    outer loop
      vertex 23.95 17 6.06
      vertex 23.9846 27 6.58863
      vertex 23.95 27 6.06
    endloop
  endfacet
  facet normal -0.997865 0 0.0653125
    outer loop
      vertex 23.9846 27 6.58863
      vertex 23.95 17 6.06
      vertex 23.9846 17 6.58863
    endloop
  endfacet
  facet normal 0.896892 0 -0.44225
    outer loop
      vertex 31.7417 17 4.51013
      vertex 31.63 27 4.2836
      vertex 31.7417 27 4.51013
    endloop
  endfacet
  facet normal 0.896892 0 -0.44225
    outer loop
      vertex 31.63 27 4.2836
      vertex 31.7417 17 4.51013
      vertex 31.63 17 4.2836
    endloop
  endfacet
  facet normal -0.980768 0 0.195176
    outer loop
      vertex 23.9846 17 6.58863
      vertex 24.088 27 7.10822
      vertex 23.9846 27 6.58863
    endloop
  endfacet
  facet normal -0.980768 0 0.195176
    outer loop
      vertex 24.088 27 7.10822
      vertex 23.9846 17 6.58863
      vertex 24.088 17 7.10822
    endloop
  endfacet
  facet normal 0 1 0
    outer loop
      vertex 32.0368 27 6.26113
      vertex 30.0787 27 6.92104
      vertex 29.9979 27 7.0849
    endloop
  endfacet
  facet normal 0 1 0
    outer loop
      vertex 32.0368 27 6.26113
      vertex 30.1733 27 6.64234
      vertex 30.0787 27 6.92104
    endloop
  endfacet
  facet normal 0 1 0
    outer loop
      vertex 32.0368 27 6.26113
      vertex 30.2308 27 6.35368
      vertex 30.1733 27 6.64234
    endloop
  endfacet
  facet normal 0 1 0
    outer loop
      vertex 30.25 27 6.06
      vertex 32.0368 27 6.26113
      vertex 32.05 27 6.06
    endloop
  endfacet
  facet normal 0 1 0
    outer loop
      vertex 32.0368 27 6.26113
      vertex 30.25 27 6.06
      vertex 30.2308 27 6.35368
    endloop
  endfacet
  facet normal 0 1 0
    outer loop
      vertex 32.05 27 6.06
      vertex 30.2308 27 5.76632
      vertex 30.25 27 6.06
    endloop
  endfacet
  facet normal 0 1 -0
    outer loop
      vertex 32.0154 27 5.53137
      vertex 30.2308 27 5.76632
      vertex 32.05 27 6.06
    endloop
  endfacet
  facet normal 0 1 0
    outer loop
      vertex 32.0154 27 5.53137
      vertex 30.1733 27 5.47766
      vertex 30.2308 27 5.76632
    endloop
  endfacet
  facet normal 0 1 -0
    outer loop
      vertex 31.912 27 5.01178
      vertex 30.1733 27 5.47766
      vertex 32.0154 27 5.53137
    endloop
  endfacet
  facet normal 0 1 0
    outer loop
      vertex 30.1733 27 5.47766
      vertex 31.912 27 5.01178
      vertex 30.147 27 5.4
    endloop
  endfacet
  facet normal 0 1 -0
    outer loop
      vertex 31.7417 27 4.51013
      vertex 30.147 27 5.4
      vertex 31.912 27 5.01178
    endloop
  endfacet
  facet normal 0 1 -0
    outer loop
      vertex 31.63 27 4.2836
      vertex 30.147 27 5.4
      vertex 31.7417 27 4.51013
    endloop
  endfacet
  facet normal 0 1 0
    outer loop
      vertex 29.23 27 4.1816
      vertex 30.147 27 5.4
      vertex 31.63 27 4.2836
    endloop
  endfacet
  facet normal 0 1 0
    outer loop
      vertex 30.147 27 5.4
      vertex 29.23 27 4.1816
      vertex 29.23 27 5.4
    endloop
  endfacet
  facet normal 0 1 -0
    outer loop
      vertex 31.63 27 3
      vertex 29.23 27 4.1816
      vertex 31.63 27 4.2836
    endloop
  endfacet
  facet normal 0 1 0
    outer loop
      vertex 29.23 27 4.1816
      vertex 31.63 27 3
      vertex 29.125 27 4.11144
    endloop
  endfacet
  facet normal 0 1 0
    outer loop
      vertex 29.125 27 4.11144
      vertex 31.63 27 3
      vertex 28.861 27 3.98127
    endloop
  endfacet
  facet normal 0 1 0
    outer loop
      vertex 28.861 27 3.98127
      vertex 31.63 27 3
      vertex 28.5823 27 3.88667
    endloop
  endfacet
  facet normal 0 1 0
    outer loop
      vertex 28.2937 27 3.82925
      vertex 31.63 27 3
      vertex 28 27 3.81
    endloop
  endfacet
  facet normal 0 1 0
    outer loop
      vertex 28.5823 27 3.88667
      vertex 31.63 27 3
      vertex 28.2937 27 3.82925
    endloop
  endfacet
  facet normal 0 1 -0
    outer loop
      vertex 26.77 27 4.1816
      vertex 25.853 27 5.4
      vertex 26.77 27 5.4
    endloop
  endfacet
  facet normal 0 1 0
    outer loop
      vertex 25.853 27 5.4
      vertex 24.2583 27 4.51013
      vertex 24.088 27 5.01178
    endloop
  endfacet
  facet normal 0 1 0
    outer loop
      vertex 25.853 27 5.4
      vertex 24.37 27 4.2836
      vertex 24.2583 27 4.51013
    endloop
  endfacet
  facet normal 0 1 0
    outer loop
      vertex 25.853 27 5.4
      vertex 26.77 27 4.1816
      vertex 24.37 27 4.2836
    endloop
  endfacet
  facet normal 0 1 0
    outer loop
      vertex 24.37 27 3
      vertex 26.77 27 4.1816
      vertex 26.875 27 4.11144
    endloop
  endfacet
  facet normal 0 1 0
    outer loop
      vertex 24.37 27 3
      vertex 26.875 27 4.11144
      vertex 27.139 27 3.98127
    endloop
  endfacet
  facet normal 0 1 0
    outer loop
      vertex 24.37 27 3
      vertex 27.139 27 3.98127
      vertex 27.4177 27 3.88667
    endloop
  endfacet
  facet normal 0 1 0
    outer loop
      vertex 24.37 27 3
      vertex 27.4177 27 3.88667
      vertex 27.7063 27 3.82925
    endloop
  endfacet
  facet normal 0 1 0
    outer loop
      vertex 24.37 27 3
      vertex 28 27 3.81
      vertex 31.63 27 3
    endloop
  endfacet
  facet normal 0 1 0
    outer loop
      vertex 28 27 3.81
      vertex 24.37 27 3
      vertex 27.7063 27 3.82925
    endloop
  endfacet
  facet normal 0 1 0
    outer loop
      vertex 26.77 27 4.1816
      vertex 24.37 27 3
      vertex 24.37 27 4.2836
    endloop
  endfacet
  facet normal 0 1 -0
    outer loop
      vertex 26.215 27 7.42971
      vertex 24.3284 27 7.75209
      vertex 26.25 27 8.52845
    endloop
  endfacet
  facet normal 0 1 0
    outer loop
      vertex 26.215 27 7.42971
      vertex 26.25 27 8.52845
      vertex 26.25 27 7.46967
    endloop
  endfacet
  facet normal 0 1 -0
    outer loop
      vertex 26.0514 27 7.185
      vertex 24.3284 27 7.75209
      vertex 26.215 27 7.42971
    endloop
  endfacet
  facet normal 0 1 -0
    outer loop
      vertex 25.9213 27 6.92104
      vertex 24.3284 27 7.75209
      vertex 26.0514 27 7.185
    endloop
  endfacet
  facet normal 0 1 0
    outer loop
      vertex 24.3284 27 7.75209
      vertex 25.9213 27 6.92104
      vertex 24.2583 27 7.60987
    endloop
  endfacet
  facet normal 0 1 0
    outer loop
      vertex 24.2583 27 7.60987
      vertex 25.9213 27 6.92104
      vertex 24.088 27 7.10822
    endloop
  endfacet
  facet normal 0 1 -0
    outer loop
      vertex 25.8267 27 6.64234
      vertex 24.088 27 7.10822
      vertex 25.9213 27 6.92104
    endloop
  endfacet
  facet normal 0 1 0
    outer loop
      vertex 25.8267 27 6.64234
      vertex 23.9846 27 6.58863
      vertex 24.088 27 7.10822
    endloop
  endfacet
  facet normal 0 1 -0
    outer loop
      vertex 25.7692 27 6.35368
      vertex 23.9846 27 6.58863
      vertex 25.8267 27 6.64234
    endloop
  endfacet
  facet normal 0 1 -0
    outer loop
      vertex 25.75 27 6.06
      vertex 23.9846 27 6.58863
      vertex 25.7692 27 6.35368
    endloop
  endfacet
  facet normal 0 1 0
    outer loop
      vertex 25.75 27 6.06
      vertex 23.95 27 6.06
      vertex 23.9846 27 6.58863
    endloop
  endfacet
  facet normal 0 1 0
    outer loop
      vertex 25.7692 27 5.76632
      vertex 23.95 27 6.06
      vertex 25.75 27 6.06
    endloop
  endfacet
  facet normal 0 1 0
    outer loop
      vertex 25.7692 27 5.76632
      vertex 23.9846 27 5.53137
      vertex 23.95 27 6.06
    endloop
  endfacet
  facet normal 0 1 0
    outer loop
      vertex 25.8267 27 5.47766
      vertex 23.9846 27 5.53137
      vertex 25.7692 27 5.76632
    endloop
  endfacet
  facet normal 0 1 0
    outer loop
      vertex 24.088 27 5.01178
      vertex 25.8267 27 5.47766
      vertex 25.853 27 5.4
    endloop
  endfacet
  facet normal 0 1 0
    outer loop
      vertex 25.8267 27 5.47766
      vertex 24.088 27 5.01178
      vertex 23.9846 27 5.53137
    endloop
  endfacet
  facet normal 0.997865 0 -0.0653125
    outer loop
      vertex 32.05 17 6.06
      vertex 32.0154 27 5.53137
      vertex 32.05 27 6.06
    endloop
  endfacet
  facet normal 0.997865 0 -0.0653125
    outer loop
      vertex 32.0154 27 5.53137
      vertex 32.05 17 6.06
      vertex 32.0154 17 5.53137
    endloop
  endfacet
  facet normal -0.946923 0 -0.321461
    outer loop
      vertex 24.2583 17 4.51013
      vertex 24.088 27 5.01178
      vertex 24.2583 27 4.51013
    endloop
  endfacet
  facet normal -0.946923 -0 -0.321461
    outer loop
      vertex 24.088 27 5.01178
      vertex 24.2583 17 4.51013
      vertex 24.088 17 5.01178
    endloop
  endfacet
  facet normal 0 -1 0
    outer loop
      vertex 25.9213 17 6.92104
      vertex 24.3284 17 7.75209
      vertex 24.2583 17 7.60987
    endloop
  endfacet
  facet normal 0 -1 0
    outer loop
      vertex 24.3284 17 7.75209
      vertex 26.215 17 7.42971
      vertex 26.25 17 8.52845
    endloop
  endfacet
  facet normal 0 -1 -0
    outer loop
      vertex 26.25 17 8.52845
      vertex 26.215 17 7.42971
      vertex 26.25 17 7.46967
    endloop
  endfacet
  facet normal 0 -1 0
    outer loop
      vertex 24.3284 17 7.75209
      vertex 26.0514 17 7.185
      vertex 26.215 17 7.42971
    endloop
  endfacet
  facet normal 0 -1 0
    outer loop
      vertex 25.9213 17 6.92104
      vertex 24.2583 17 7.60987
      vertex 24.088 17 7.10822
    endloop
  endfacet
  facet normal 0 -1 0
    outer loop
      vertex 24.3284 17 7.75209
      vertex 25.9213 17 6.92104
      vertex 26.0514 17 7.185
    endloop
  endfacet
  facet normal 0 -1 0
    outer loop
      vertex 24.088 17 7.10822
      vertex 25.8267 17 6.64234
      vertex 25.9213 17 6.92104
    endloop
  endfacet
  facet normal 0 -1 0
    outer loop
      vertex 23.9846 17 6.58863
      vertex 25.8267 17 6.64234
      vertex 24.088 17 7.10822
    endloop
  endfacet
  facet normal 0 -1 0
    outer loop
      vertex 23.9846 17 6.58863
      vertex 25.7692 17 6.35368
      vertex 25.8267 17 6.64234
    endloop
  endfacet
  facet normal 0 -1 0
    outer loop
      vertex 23.95 17 6.06
      vertex 25.7692 17 6.35368
      vertex 23.9846 17 6.58863
    endloop
  endfacet
  facet normal 0 -1 0
    outer loop
      vertex 23.95 17 6.06
      vertex 25.75 17 6.06
      vertex 25.7692 17 6.35368
    endloop
  endfacet
  facet normal 0 -1 0
    outer loop
      vertex 23.95 17 6.06
      vertex 25.7692 17 5.76632
      vertex 25.75 17 6.06
    endloop
  endfacet
  facet normal 0 -1 0
    outer loop
      vertex 23.9846 17 5.53137
      vertex 25.7692 17 5.76632
      vertex 23.95 17 6.06
    endloop
  endfacet
  facet normal 0 -1 0
    outer loop
      vertex 23.9846 17 5.53137
      vertex 25.8267 17 5.47766
      vertex 25.7692 17 5.76632
    endloop
  endfacet
  facet normal 0 -1 0
    outer loop
      vertex 24.088 17 5.01178
      vertex 25.8267 17 5.47766
      vertex 23.9846 17 5.53137
    endloop
  endfacet
  facet normal 0 -1 -0
    outer loop
      vertex 25.8267 17 5.47766
      vertex 24.088 17 5.01178
      vertex 25.853 17 5.4
    endloop
  endfacet
  facet normal 0 -1 0
    outer loop
      vertex 24.2583 17 4.51013
      vertex 25.853 17 5.4
      vertex 24.088 17 5.01178
    endloop
  endfacet
  facet normal 0 -1 0
    outer loop
      vertex 24.37 17 4.2836
      vertex 25.853 17 5.4
      vertex 24.2583 17 4.51013
    endloop
  endfacet
  facet normal 0 -1 0
    outer loop
      vertex 26.77 17 4.1816
      vertex 25.853 17 5.4
      vertex 24.37 17 4.2836
    endloop
  endfacet
  facet normal 0 -1 0
    outer loop
      vertex 25.853 17 5.4
      vertex 26.77 17 4.1816
      vertex 26.77 17 5.4
    endloop
  endfacet
  facet normal 0 -1 0
    outer loop
      vertex 24.37 17 3
      vertex 26.77 17 4.1816
      vertex 24.37 17 4.2836
    endloop
  endfacet
  facet normal 0 -1 -0
    outer loop
      vertex 26.77 17 4.1816
      vertex 24.37 17 3
      vertex 26.875 17 4.11144
    endloop
  endfacet
  facet normal 0 -1 -0
    outer loop
      vertex 26.875 17 4.11144
      vertex 24.37 17 3
      vertex 27.139 17 3.98127
    endloop
  endfacet
  facet normal 0 -1 -0
    outer loop
      vertex 27.139 17 3.98127
      vertex 24.37 17 3
      vertex 27.4177 17 3.88667
    endloop
  endfacet
  facet normal 0 -1 -0
    outer loop
      vertex 27.7063 17 3.82925
      vertex 24.37 17 3
      vertex 28 17 3.81
    endloop
  endfacet
  facet normal 0 -1 -0
    outer loop
      vertex 27.4177 17 3.88667
      vertex 24.37 17 3
      vertex 27.7063 17 3.82925
    endloop
  endfacet
  facet normal 0 -1 0
    outer loop
      vertex 29.23 17 4.1816
      vertex 30.147 17 5.4
      vertex 29.23 17 5.4
    endloop
  endfacet
  facet normal 0 -1 0
    outer loop
      vertex 30.147 17 5.4
      vertex 31.7417 17 4.51013
      vertex 31.912 17 5.01178
    endloop
  endfacet
  facet normal 0 -1 0
    outer loop
      vertex 30.147 17 5.4
      vertex 31.63 17 4.2836
      vertex 31.7417 17 4.51013
    endloop
  endfacet
  facet normal 0 -1 -0
    outer loop
      vertex 30.147 17 5.4
      vertex 29.23 17 4.1816
      vertex 31.63 17 4.2836
    endloop
  endfacet
  facet normal 0 -1 0
    outer loop
      vertex 31.63 17 3
      vertex 29.23 17 4.1816
      vertex 29.125 17 4.11144
    endloop
  endfacet
  facet normal 0 -1 0
    outer loop
      vertex 31.63 17 3
      vertex 29.125 17 4.11144
      vertex 28.861 17 3.98127
    endloop
  endfacet
  facet normal 0 -1 0
    outer loop
      vertex 31.63 17 3
      vertex 28.861 17 3.98127
      vertex 28.5823 17 3.88667
    endloop
  endfacet
  facet normal 0 -1 0
    outer loop
      vertex 31.63 17 3
      vertex 28.5823 17 3.88667
      vertex 28.2937 17 3.82925
    endloop
  endfacet
  facet normal 0 -1 0
    outer loop
      vertex 31.63 17 3
      vertex 28 17 3.81
      vertex 24.37 17 3
    endloop
  endfacet
  facet normal 0 -1 0
    outer loop
      vertex 28 17 3.81
      vertex 31.63 17 3
      vertex 28.2937 17 3.82925
    endloop
  endfacet
  facet normal 0 -1 0
    outer loop
      vertex 29.23 17 4.1816
      vertex 31.63 17 3
      vertex 31.63 17 4.2836
    endloop
  endfacet
  facet normal 0 -1 0
    outer loop
      vertex 30.0787 17 6.92104
      vertex 32.0368 17 6.26113
      vertex 29.9979 17 7.0849
    endloop
  endfacet
  facet normal 0 -1 0
    outer loop
      vertex 30.1733 17 6.64234
      vertex 32.0368 17 6.26113
      vertex 30.0787 17 6.92104
    endloop
  endfacet
  facet normal 0 -1 0
    outer loop
      vertex 30.2308 17 6.35368
      vertex 32.0368 17 6.26113
      vertex 30.1733 17 6.64234
    endloop
  endfacet
  facet normal 0 -1 0
    outer loop
      vertex 30.25 17 6.06
      vertex 32.0368 17 6.26113
      vertex 30.2308 17 6.35368
    endloop
  endfacet
  facet normal 0 -1 0
    outer loop
      vertex 30.25 17 6.06
      vertex 32.05 17 6.06
      vertex 32.0368 17 6.26113
    endloop
  endfacet
  facet normal 0 -1 0
    outer loop
      vertex 30.2308 17 5.76632
      vertex 32.05 17 6.06
      vertex 30.25 17 6.06
    endloop
  endfacet
  facet normal 0 -1 0
    outer loop
      vertex 30.2308 17 5.76632
      vertex 32.0154 17 5.53137
      vertex 32.05 17 6.06
    endloop
  endfacet
  facet normal 0 -1 0
    outer loop
      vertex 30.1733 17 5.47766
      vertex 32.0154 17 5.53137
      vertex 30.2308 17 5.76632
    endloop
  endfacet
  facet normal 0 -1 0
    outer loop
      vertex 31.912 17 5.01178
      vertex 30.1733 17 5.47766
      vertex 30.147 17 5.4
    endloop
  endfacet
  facet normal 0 -1 0
    outer loop
      vertex 30.1733 17 5.47766
      vertex 31.912 17 5.01178
      vertex 32.0154 17 5.53137
    endloop
  endfacet
  facet normal -0.896892 0 -0.44225
    outer loop
      vertex 24.37 17 4.2836
      vertex 24.2583 27 4.51013
      vertex 24.37 27 4.2836
    endloop
  endfacet
  facet normal -0.896892 -0 -0.44225
    outer loop
      vertex 24.2583 27 4.51013
      vertex 24.37 17 4.2836
      vertex 24.2583 17 4.51013
    endloop
  endfacet
  facet normal -0.980732 0 -0.195358
    outer loop
      vertex 30.2308 17 6.35368
      vertex 30.1733 27 6.64234
      vertex 30.2308 27 6.35368
    endloop
  endfacet
  facet normal -0.980732 -0 -0.195358
    outer loop
      vertex 30.1733 27 6.64234
      vertex 30.2308 17 6.35368
      vertex 30.1733 17 6.64234
    endloop
  endfacet
  facet normal -0.99787 0 -0.065238
    outer loop
      vertex 30.25 17 6.06
      vertex 30.2308 27 6.35368
      vertex 30.25 27 6.06
    endloop
  endfacet
  facet normal -0.99787 -0 -0.065238
    outer loop
      vertex 30.2308 27 6.35368
      vertex 30.25 17 6.06
      vertex 30.2308 17 6.35368
    endloop
  endfacet
  facet normal -0.946936 0 -0.321421
    outer loop
      vertex 30.1733 17 6.64234
      vertex 30.0787 27 6.92104
      vertex 30.1733 27 6.64234
    endloop
  endfacet
  facet normal -0.946936 -0 -0.321421
    outer loop
      vertex 30.0787 27 6.92104
      vertex 30.1733 17 6.64234
      vertex 30.0787 17 6.92104
    endloop
  endfacet
  facet normal -0.195136 0 0.980776
    outer loop
      vertex 28.2937 27 3.82925
      vertex 28.5823 17 3.88667
      vertex 28.5823 27 3.88667
    endloop
  endfacet
  facet normal -0.195136 0 0.980776
    outer loop
      vertex 28.5823 17 3.88667
      vertex 28.2937 27 3.82925
      vertex 28.2937 17 3.82925
    endloop
  endfacet
  facet normal 0.896968 0 -0.442096
    outer loop
      vertex 26.0514 17 7.185
      vertex 25.9213 27 6.92104
      vertex 26.0514 27 7.185
    endloop
  endfacet
  facet normal 0.896968 0 -0.442096
    outer loop
      vertex 25.9213 27 6.92104
      vertex 26.0514 17 7.185
      vertex 25.9213 17 6.92104
    endloop
  endfacet
  facet normal -0.321421 0 0.946936
    outer loop
      vertex 28.5823 27 3.88667
      vertex 28.861 17 3.98127
      vertex 28.861 27 3.98127
    endloop
  endfacet
  facet normal -0.321421 0 0.946936
    outer loop
      vertex 28.861 17 3.98127
      vertex 28.5823 27 3.88667
      vertex 28.5823 17 3.88667
    endloop
  endfacet
  facet normal -0.980732 0 0.195358
    outer loop
      vertex 30.1733 17 5.47766
      vertex 30.2308 27 5.76632
      vertex 30.1733 27 5.47766
    endloop
  endfacet
  facet normal -0.980732 0 0.195358
    outer loop
      vertex 30.2308 27 5.76632
      vertex 30.1733 17 5.47766
      vertex 30.2308 17 5.76632
    endloop
  endfacet
  facet normal 0.555577 0 0.831465
    outer loop
      vertex 26.77 27 4.1816
      vertex 26.875 17 4.11144
      vertex 26.875 27 4.11144
    endloop
  endfacet
  facet normal 0.555577 0 0.831465
    outer loop
      vertex 26.875 17 4.11144
      vertex 26.77 27 4.1816
      vertex 26.77 17 4.1816
    endloop
  endfacet
  facet normal 0.94716 -0 0.320761
    outer loop
      vertex 25.8267 17 5.47766
      vertex 25.853 27 5.4
      vertex 25.8267 27 5.47766
    endloop
  endfacet
  facet normal 0.94716 0 0.320761
    outer loop
      vertex 25.853 27 5.4
      vertex 25.8267 17 5.47766
      vertex 25.853 17 5.4
    endloop
  endfacet
  facet normal -0.896888 0 -0.442259
    outer loop
      vertex 30.0787 17 6.92104
      vertex 29.9979 27 7.0849
      vertex 30.0787 27 6.92104
    endloop
  endfacet
  facet normal -0.896888 -0 -0.442259
    outer loop
      vertex 29.9979 27 7.0849
      vertex 30.0787 17 6.92104
      vertex 29.9979 17 7.0849
    endloop
  endfacet
  facet normal -0.0654027 0 0.997859
    outer loop
      vertex 28 27 3.81
      vertex 28.2937 17 3.82925
      vertex 28.2937 27 3.82925
    endloop
  endfacet
  facet normal -0.0654027 0 0.997859
    outer loop
      vertex 28.2937 17 3.82925
      vertex 28 27 3.81
      vertex 28 17 3.81
    endloop
  endfacet
  facet normal 0.946936 0 -0.321421
    outer loop
      vertex 25.9213 17 6.92104
      vertex 25.8267 27 6.64234
      vertex 25.9213 27 6.92104
    endloop
  endfacet
  facet normal 0.946936 0 -0.321421
    outer loop
      vertex 25.8267 27 6.64234
      vertex 25.9213 17 6.92104
      vertex 25.8267 17 6.64234
    endloop
  endfacet
  facet normal -0.442233 0 0.8969
    outer loop
      vertex 28.861 27 3.98127
      vertex 29.125 17 4.11144
      vertex 29.125 27 4.11144
    endloop
  endfacet
  facet normal -0.442233 0 0.8969
    outer loop
      vertex 29.125 17 4.11144
      vertex 28.861 27 3.98127
      vertex 28.861 17 3.98127
    endloop
  endfacet
  facet normal 0.442233 0 0.8969
    outer loop
      vertex 26.875 27 4.11144
      vertex 27.139 17 3.98127
      vertex 27.139 27 3.98127
    endloop
  endfacet
  facet normal 0.442233 0 0.8969
    outer loop
      vertex 27.139 17 3.98127
      vertex 26.875 27 4.11144
      vertex 26.875 17 4.11144
    endloop
  endfacet
  facet normal 0.99787 0 -0.065238
    outer loop
      vertex 25.7692 17 6.35368
      vertex 25.75 27 6.06
      vertex 25.7692 27 6.35368
    endloop
  endfacet
  facet normal 0.99787 0 -0.065238
    outer loop
      vertex 25.75 27 6.06
      vertex 25.7692 17 6.35368
      vertex 25.75 17 6.06
    endloop
  endfacet
  facet normal -0.94716 0 0.320761
    outer loop
      vertex 30.147 17 5.4
      vertex 30.1733 27 5.47766
      vertex 30.147 27 5.4
    endloop
  endfacet
  facet normal -0.94716 0 0.320761
    outer loop
      vertex 30.1733 27 5.47766
      vertex 30.147 17 5.4
      vertex 30.1733 17 5.47766
    endloop
  endfacet
  facet normal 0.0654027 0 0.997859
    outer loop
      vertex 27.7063 27 3.82925
      vertex 28 17 3.81
      vertex 28 27 3.81
    endloop
  endfacet
  facet normal 0.0654027 0 0.997859
    outer loop
      vertex 28 17 3.81
      vertex 27.7063 27 3.82925
      vertex 27.7063 17 3.82925
    endloop
  endfacet
  facet normal -0.555577 0 0.831465
    outer loop
      vertex 29.125 27 4.11144
      vertex 29.23 17 4.1816
      vertex 29.23 27 4.1816
    endloop
  endfacet
  facet normal -0.555577 0 0.831465
    outer loop
      vertex 29.23 17 4.1816
      vertex 29.125 27 4.11144
      vertex 29.125 17 4.11144
    endloop
  endfacet
  facet normal 0.99787 -0 0.065238
    outer loop
      vertex 25.75 17 6.06
      vertex 25.7692 27 5.76632
      vertex 25.75 27 6.06
    endloop
  endfacet
  facet normal 0.99787 0 0.065238
    outer loop
      vertex 25.7692 27 5.76632
      vertex 25.75 17 6.06
      vertex 25.7692 17 5.76632
    endloop
  endfacet
  facet normal -0.99787 0 0.065238
    outer loop
      vertex 30.2308 17 5.76632
      vertex 30.25 27 6.06
      vertex 30.2308 27 5.76632
    endloop
  endfacet
  facet normal -0.99787 0 0.065238
    outer loop
      vertex 30.25 27 6.06
      vertex 30.2308 17 5.76632
      vertex 30.25 17 6.06
    endloop
  endfacet
  facet normal 0.980732 0 -0.195358
    outer loop
      vertex 25.8267 17 6.64234
      vertex 25.7692 27 6.35368
      vertex 25.8267 27 6.64234
    endloop
  endfacet
  facet normal 0.980732 0 -0.195358
    outer loop
      vertex 25.7692 27 6.35368
      vertex 25.8267 17 6.64234
      vertex 25.7692 17 6.35368
    endloop
  endfacet
  facet normal 0.321421 0 0.946936
    outer loop
      vertex 27.139 27 3.98127
      vertex 27.4177 17 3.88667
      vertex 27.4177 27 3.88667
    endloop
  endfacet
  facet normal 0.321421 0 0.946936
    outer loop
      vertex 27.4177 17 3.88667
      vertex 27.139 27 3.98127
      vertex 27.139 17 3.98127
    endloop
  endfacet
  facet normal 0.980732 -0 0.195358
    outer loop
      vertex 25.7692 17 5.76632
      vertex 25.8267 27 5.47766
      vertex 25.7692 27 5.76632
    endloop
  endfacet
  facet normal 0.980732 0 0.195358
    outer loop
      vertex 25.8267 27 5.47766
      vertex 25.7692 17 5.76632
      vertex 25.8267 17 5.47766
    endloop
  endfacet
  facet normal 0.195136 0 0.980776
    outer loop
      vertex 27.4177 27 3.88667
      vertex 27.7063 17 3.82925
      vertex 27.7063 27 3.82925
    endloop
  endfacet
  facet normal 0.195136 0 0.980776
    outer loop
      vertex 27.7063 17 3.82925
      vertex 27.4177 27 3.88667
      vertex 27.4177 17 3.88667
    endloop
  endfacet
  facet normal 0.831328 0 -0.555782
    outer loop
      vertex 26.215 17 7.42971
      vertex 26.0514 27 7.185
      vertex 26.215 27 7.42971
    endloop
  endfacet
  facet normal 0.831328 0 -0.555782
    outer loop
      vertex 26.0514 27 7.185
      vertex 26.215 17 7.42971
      vertex 26.0514 17 7.185
    endloop
  endfacet
  facet normal 0.75225 0 -0.658878
    outer loop
      vertex 26.25 17 7.46967
      vertex 26.215 27 7.42971
      vertex 26.25 27 7.46967
    endloop
  endfacet
  facet normal 0.75225 0 -0.658878
    outer loop
      vertex 26.215 27 7.42971
      vertex 26.25 17 7.46967
      vertex 26.215 17 7.42971
    endloop
  endfacet
  facet normal 1 -0 0
    outer loop
      vertex 26.25 17 8.52845
      vertex 26.25 27 7.46967
      vertex 26.25 27 8.52845
    endloop
  endfacet
  facet normal 1 0 0
    outer loop
      vertex 26.25 27 7.46967
      vertex 26.25 17 8.52845
      vertex 26.25 17 7.46967
    endloop
  endfacet
  facet normal -0.3746 0 0.927187
    outer loop
      vertex 24.3284 27 7.75209
      vertex 26.25 17 8.52845
      vertex 26.25 27 8.52845
    endloop
  endfacet
  facet normal -0.3746 0 0.927187
    outer loop
      vertex 26.25 17 8.52845
      vertex 24.3284 27 7.75209
      vertex 24.3284 17 7.75209
    endloop
  endfacet
  facet normal 0.374607 0 0.927184
    outer loop
      vertex 29.9979 27 7.0849
      vertex 32.0368 17 6.26113
      vertex 32.0368 27 6.26113
    endloop
  endfacet
  facet normal 0.374607 0 0.927184
    outer loop
      vertex 32.0368 17 6.26113
      vertex 29.9979 27 7.0849
      vertex 29.9979 17 7.0849
    endloop
  endfacet
  facet normal 1 -0 0
    outer loop
      vertex 26.77 17 5.4
      vertex 26.77 27 4.1816
      vertex 26.77 27 5.4
    endloop
  endfacet
  facet normal 1 0 0
    outer loop
      vertex 26.77 27 4.1816
      vertex 26.77 17 5.4
      vertex 26.77 17 4.1816
    endloop
  endfacet
  facet normal -0 0 1
    outer loop
      vertex 25.853 27 5.4
      vertex 26.77 17 5.4
      vertex 26.77 27 5.4
    endloop
  endfacet
  facet normal 0 0 1
    outer loop
      vertex 26.77 17 5.4
      vertex 25.853 27 5.4
      vertex 25.853 17 5.4
    endloop
  endfacet
  facet normal -1 0 0
    outer loop
      vertex 24.37 17 3
      vertex 24.37 27 4.2836
      vertex 24.37 27 3
    endloop
  endfacet
  facet normal -1 -0 0
    outer loop
      vertex 24.37 27 4.2836
      vertex 24.37 17 3
      vertex 24.37 17 4.2836
    endloop
  endfacet
  facet normal 1 -0 0
    outer loop
      vertex 31.63 17 4.2836
      vertex 31.63 27 3
      vertex 31.63 27 4.2836
    endloop
  endfacet
  facet normal 1 0 0
    outer loop
      vertex 31.63 27 3
      vertex 31.63 17 4.2836
      vertex 31.63 17 3
    endloop
  endfacet
  facet normal -0 0 1
    outer loop
      vertex 29.23 27 5.4
      vertex 30.147 17 5.4
      vertex 30.147 27 5.4
    endloop
  endfacet
  facet normal 0 0 1
    outer loop
      vertex 30.147 17 5.4
      vertex 29.23 27 5.4
      vertex 29.23 17 5.4
    endloop
  endfacet
  facet normal -1 0 0
    outer loop
      vertex 29.23 17 4.1816
      vertex 29.23 27 5.4
      vertex 29.23 27 4.1816
    endloop
  endfacet
  facet normal -1 -0 0
    outer loop
      vertex 29.23 27 5.4
      vertex 29.23 17 4.1816
      vertex 29.23 17 5.4
    endloop
  endfacet
  facet normal 0.997856 -0.0654432 0
    outer loop
      vertex 41.9786 14.1737 3
      vertex 42 14.5 0
      vertex 42 14.5 3
    endloop
  endfacet
  facet normal 0.997856 -0.0654432 0
    outer loop
      vertex 42 14.5 0
      vertex 41.9786 14.1737 3
      vertex 41.9786 14.1737 0
    endloop
  endfacet
  facet normal -0.896921 -0.442191 0
    outer loop
      vertex 14.3349 13.25 0
      vertex 14.1903 13.5433 3
      vertex 14.1903 13.5433 0
    endloop
  endfacet
  facet normal -0.896921 -0.442191 0
    outer loop
      vertex 14.1903 13.5433 3
      vertex 14.3349 13.25 0
      vertex 14.3349 13.25 3
    endloop
  endfacet
  facet normal -0.195116 0.98078 0
    outer loop
      vertex 16.1737 31.9786 0
      vertex 15.853 31.9148 3
      vertex 16.1737 31.9786 3
    endloop
  endfacet
  facet normal -0.195116 0.98078 0
    outer loop
      vertex 15.853 31.9148 3
      vertex 16.1737 31.9786 0
      vertex 15.853 31.9148 0
    endloop
  endfacet
  facet normal 0.659262 0.751913 -0
    outer loop
      vertex 41.2678 31.2678 0
      vertex 41.0219 31.4834 3
      vertex 41.2678 31.2678 3
    endloop
  endfacet
  facet normal 0.659262 0.751913 0
    outer loop
      vertex 41.0219 31.4834 3
      vertex 41.2678 31.2678 0
      vertex 41.0219 31.4834 0
    endloop
  endfacet
  facet normal 0.997856 0.0654432 0
    outer loop
      vertex 42 29.5 3
      vertex 41.9786 29.8263 0
      vertex 41.9786 29.8263 3
    endloop
  endfacet
  facet normal 0.997856 0.0654432 0
    outer loop
      vertex 41.9786 29.8263 0
      vertex 42 29.5 3
      vertex 42 29.5 0
    endloop
  endfacet
  facet normal 0.98078 -0.195116 0
    outer loop
      vertex 41.9148 13.853 3
      vertex 41.9786 14.1737 0
      vertex 41.9786 14.1737 3
    endloop
  endfacet
  facet normal 0.98078 -0.195116 0
    outer loop
      vertex 41.9786 14.1737 0
      vertex 41.9148 13.853 3
      vertex 41.9148 13.853 0
    endloop
  endfacet
  facet normal -0.98078 -0.195116 0
    outer loop
      vertex 14.0852 13.853 0
      vertex 14.0214 14.1737 3
      vertex 14.0214 14.1737 0
    endloop
  endfacet
  facet normal -0.98078 -0.195116 0
    outer loop
      vertex 14.0214 14.1737 3
      vertex 14.0852 13.853 0
      vertex 14.0852 13.853 3
    endloop
  endfacet
  facet normal -0.555617 -0.831438 0
    outer loop
      vertex 14.9781 12.5166 0
      vertex 15.25 12.3349 3
      vertex 14.9781 12.5166 3
    endloop
  endfacet
  facet normal -0.555617 -0.831438 -0
    outer loop
      vertex 15.25 12.3349 3
      vertex 14.9781 12.5166 0
      vertex 15.25 12.3349 0
    endloop
  endfacet
  facet normal 1 -0 0
    outer loop
      vertex 42 14.5 3
      vertex 42 29.5 0
      vertex 42 29.5 3
    endloop
  endfacet
  facet normal 1 0 0
    outer loop
      vertex 42 29.5 0
      vertex 42 14.5 3
      vertex 42 14.5 0
    endloop
  endfacet
  facet normal 0 -1 0
    outer loop
      vertex 16.5 12 0
      vertex 39.5 12 3
      vertex 16.5 12 3
    endloop
  endfacet
  facet normal 0 -1 -0
    outer loop
      vertex 39.5 12 3
      vertex 16.5 12 0
      vertex 39.5 12 0
    endloop
  endfacet
  facet normal 0.0654432 -0.997856 0
    outer loop
      vertex 39.5 12 0
      vertex 39.8263 12.0214 3
      vertex 39.5 12 3
    endloop
  endfacet
  facet normal 0.0654432 -0.997856 0
    outer loop
      vertex 39.8263 12.0214 3
      vertex 39.5 12 0
      vertex 39.8263 12.0214 0
    endloop
  endfacet
  facet normal -0.946957 -0.32136 0
    outer loop
      vertex 14.1903 13.5433 0
      vertex 14.0852 13.853 3
      vertex 14.0852 13.853 0
    endloop
  endfacet
  facet normal -0.946957 -0.32136 0
    outer loop
      vertex 14.0852 13.853 3
      vertex 14.1903 13.5433 0
      vertex 14.1903 13.5433 3
    endloop
  endfacet
  facet normal 0.751913 0.659262 0
    outer loop
      vertex 41.4834 31.0219 3
      vertex 41.2678 31.2678 0
      vertex 41.2678 31.2678 3
    endloop
  endfacet
  facet normal 0.751913 0.659262 0
    outer loop
      vertex 41.2678 31.2678 0
      vertex 41.4834 31.0219 3
      vertex 41.4834 31.0219 0
    endloop
  endfacet
  facet normal 0.0654432 0.997856 -0
    outer loop
      vertex 39.8263 31.9786 0
      vertex 39.5 32 3
      vertex 39.8263 31.9786 3
    endloop
  endfacet
  facet normal 0.0654432 0.997856 0
    outer loop
      vertex 39.5 32 3
      vertex 39.8263 31.9786 0
      vertex 39.5 32 0
    endloop
  endfacet
  facet normal -0.997856 0.0654432 0
    outer loop
      vertex 14 29.5 0
      vertex 14.0214 29.8263 3
      vertex 14.0214 29.8263 0
    endloop
  endfacet
  facet normal -0.997856 0.0654432 0
    outer loop
      vertex 14.0214 29.8263 3
      vertex 14 29.5 0
      vertex 14 29.5 3
    endloop
  endfacet
  facet normal -1 0 0
    outer loop
      vertex 14 14.5 0
      vertex 14 29.5 3
      vertex 14 29.5 0
    endloop
  endfacet
  facet normal -1 -0 0
    outer loop
      vertex 14 29.5 3
      vertex 14 14.5 0
      vertex 14 14.5 3
    endloop
  endfacet
  facet normal -0.751913 0.659262 0
    outer loop
      vertex 14.5166 31.0219 0
      vertex 14.7322 31.2678 3
      vertex 14.7322 31.2678 0
    endloop
  endfacet
  facet normal -0.751913 0.659262 0
    outer loop
      vertex 14.7322 31.2678 3
      vertex 14.5166 31.0219 0
      vertex 14.5166 31.0219 3
    endloop
  endfacet
  facet normal -0.751913 -0.659262 0
    outer loop
      vertex 14.7322 12.7322 0
      vertex 14.5166 12.9781 3
      vertex 14.5166 12.9781 0
    endloop
  endfacet
  facet normal -0.751913 -0.659262 0
    outer loop
      vertex 14.5166 12.9781 3
      vertex 14.7322 12.7322 0
      vertex 14.7322 12.7322 3
    endloop
  endfacet
  facet normal 0.751913 -0.659262 0
    outer loop
      vertex 41.2678 12.7322 3
      vertex 41.4834 12.9781 0
      vertex 41.4834 12.9781 3
    endloop
  endfacet
  facet normal 0.751913 -0.659262 0
    outer loop
      vertex 41.4834 12.9781 0
      vertex 41.2678 12.7322 3
      vertex 41.2678 12.7322 0
    endloop
  endfacet
  facet normal 0.98078 0.195116 0
    outer loop
      vertex 41.9786 29.8263 3
      vertex 41.9148 30.147 0
      vertex 41.9148 30.147 3
    endloop
  endfacet
  facet normal 0.98078 0.195116 0
    outer loop
      vertex 41.9148 30.147 0
      vertex 41.9786 29.8263 3
      vertex 41.9786 29.8263 0
    endloop
  endfacet
  facet normal 0 1 -0
    outer loop
      vertex 39.5 32 0
      vertex 16.5 32 3
      vertex 39.5 32 3
    endloop
  endfacet
  facet normal 0 1 0
    outer loop
      vertex 16.5 32 3
      vertex 39.5 32 0
      vertex 16.5 32 0
    endloop
  endfacet
  facet normal -0.659262 0.751913 0
    outer loop
      vertex 14.9781 31.4834 0
      vertex 14.7322 31.2678 3
      vertex 14.9781 31.4834 3
    endloop
  endfacet
  facet normal -0.659262 0.751913 0
    outer loop
      vertex 14.7322 31.2678 3
      vertex 14.9781 31.4834 0
      vertex 14.7322 31.2678 0
    endloop
  endfacet
  facet normal 0.555617 0.831438 -0
    outer loop
      vertex 41.0219 31.4834 0
      vertex 40.75 31.6651 3
      vertex 41.0219 31.4834 3
    endloop
  endfacet
  facet normal 0.555617 0.831438 0
    outer loop
      vertex 40.75 31.6651 3
      vertex 41.0219 31.4834 0
      vertex 40.75 31.6651 0
    endloop
  endfacet
  facet normal -0.32136 -0.946957 0
    outer loop
      vertex 15.5433 12.1903 0
      vertex 15.853 12.0852 3
      vertex 15.5433 12.1903 3
    endloop
  endfacet
  facet normal -0.32136 -0.946957 -0
    outer loop
      vertex 15.853 12.0852 3
      vertex 15.5433 12.1903 0
      vertex 15.853 12.0852 0
    endloop
  endfacet
  facet normal -0.997856 -0.0654432 0
    outer loop
      vertex 14.0214 14.1737 0
      vertex 14 14.5 3
      vertex 14 14.5 0
    endloop
  endfacet
  facet normal -0.997856 -0.0654432 0
    outer loop
      vertex 14 14.5 3
      vertex 14.0214 14.1737 0
      vertex 14.0214 14.1737 3
    endloop
  endfacet
  facet normal 0.442191 0.896921 -0
    outer loop
      vertex 40.75 31.6651 0
      vertex 40.4567 31.8097 3
      vertex 40.75 31.6651 3
    endloop
  endfacet
  facet normal 0.442191 0.896921 0
    outer loop
      vertex 40.4567 31.8097 3
      vertex 40.75 31.6651 0
      vertex 40.4567 31.8097 0
    endloop
  endfacet
  facet normal -0.831438 0.555617 0
    outer loop
      vertex 14.3349 30.75 0
      vertex 14.5166 31.0219 3
      vertex 14.5166 31.0219 0
    endloop
  endfacet
  facet normal -0.831438 0.555617 0
    outer loop
      vertex 14.5166 31.0219 3
      vertex 14.3349 30.75 0
      vertex 14.3349 30.75 3
    endloop
  endfacet
  facet normal -0.442191 0.896921 0
    outer loop
      vertex 15.5433 31.8097 0
      vertex 15.25 31.6651 3
      vertex 15.5433 31.8097 3
    endloop
  endfacet
  facet normal -0.442191 0.896921 0
    outer loop
      vertex 15.25 31.6651 3
      vertex 15.5433 31.8097 0
      vertex 15.25 31.6651 0
    endloop
  endfacet
  facet normal -0.98078 0.195116 0
    outer loop
      vertex 14.0214 29.8263 0
      vertex 14.0852 30.147 3
      vertex 14.0852 30.147 0
    endloop
  endfacet
  facet normal -0.98078 0.195116 0
    outer loop
      vertex 14.0852 30.147 3
      vertex 14.0214 29.8263 0
      vertex 14.0214 29.8263 3
    endloop
  endfacet
  facet normal 0.195116 -0.98078 0
    outer loop
      vertex 39.8263 12.0214 0
      vertex 40.147 12.0852 3
      vertex 39.8263 12.0214 3
    endloop
  endfacet
  facet normal 0.195116 -0.98078 0
    outer loop
      vertex 40.147 12.0852 3
      vertex 39.8263 12.0214 0
      vertex 40.147 12.0852 0
    endloop
  endfacet
  facet normal 0.831438 0.555617 0
    outer loop
      vertex 41.6651 30.75 3
      vertex 41.4834 31.0219 0
      vertex 41.4834 31.0219 3
    endloop
  endfacet
  facet normal 0.831438 0.555617 0
    outer loop
      vertex 41.4834 31.0219 0
      vertex 41.6651 30.75 3
      vertex 41.6651 30.75 0
    endloop
  endfacet
  facet normal 0.32136 0.946957 -0
    outer loop
      vertex 40.4567 31.8097 0
      vertex 40.147 31.9148 3
      vertex 40.4567 31.8097 3
    endloop
  endfacet
  facet normal 0.32136 0.946957 0
    outer loop
      vertex 40.147 31.9148 3
      vertex 40.4567 31.8097 0
      vertex 40.147 31.9148 0
    endloop
  endfacet
  facet normal -0.659262 -0.751913 0
    outer loop
      vertex 14.7322 12.7322 0
      vertex 14.9781 12.5166 3
      vertex 14.7322 12.7322 3
    endloop
  endfacet
  facet normal -0.659262 -0.751913 -0
    outer loop
      vertex 14.9781 12.5166 3
      vertex 14.7322 12.7322 0
      vertex 14.9781 12.5166 0
    endloop
  endfacet
  facet normal -0.831438 -0.555617 0
    outer loop
      vertex 14.5166 12.9781 0
      vertex 14.3349 13.25 3
      vertex 14.3349 13.25 0
    endloop
  endfacet
  facet normal -0.831438 -0.555617 0
    outer loop
      vertex 14.3349 13.25 3
      vertex 14.5166 12.9781 0
      vertex 14.5166 12.9781 3
    endloop
  endfacet
  facet normal -0.0654432 0.997856 0
    outer loop
      vertex 16.5 32 0
      vertex 16.1737 31.9786 3
      vertex 16.5 32 3
    endloop
  endfacet
  facet normal -0.0654432 0.997856 0
    outer loop
      vertex 16.1737 31.9786 3
      vertex 16.5 32 0
      vertex 16.1737 31.9786 0
    endloop
  endfacet
  facet normal 0.555617 -0.831438 0
    outer loop
      vertex 40.75 12.3349 0
      vertex 41.0219 12.5166 3
      vertex 40.75 12.3349 3
    endloop
  endfacet
  facet normal 0.555617 -0.831438 0
    outer loop
      vertex 41.0219 12.5166 3
      vertex 40.75 12.3349 0
      vertex 41.0219 12.5166 0
    endloop
  endfacet
  facet normal 0.831438 -0.555617 0
    outer loop
      vertex 41.4834 12.9781 3
      vertex 41.6651 13.25 0
      vertex 41.6651 13.25 3
    endloop
  endfacet
  facet normal 0.831438 -0.555617 0
    outer loop
      vertex 41.6651 13.25 0
      vertex 41.4834 12.9781 3
      vertex 41.4834 12.9781 0
    endloop
  endfacet
  facet normal -0.946957 0.32136 0
    outer loop
      vertex 14.0852 30.147 0
      vertex 14.1903 30.4567 3
      vertex 14.1903 30.4567 0
    endloop
  endfacet
  facet normal -0.946957 0.32136 0
    outer loop
      vertex 14.1903 30.4567 3
      vertex 14.0852 30.147 0
      vertex 14.0852 30.147 3
    endloop
  endfacet
  facet normal -0.32136 0.946957 0
    outer loop
      vertex 15.853 31.9148 0
      vertex 15.5433 31.8097 3
      vertex 15.853 31.9148 3
    endloop
  endfacet
  facet normal -0.32136 0.946957 0
    outer loop
      vertex 15.5433 31.8097 3
      vertex 15.853 31.9148 0
      vertex 15.5433 31.8097 0
    endloop
  endfacet
  facet normal -0.896921 0.442191 0
    outer loop
      vertex 14.1903 30.4567 0
      vertex 14.3349 30.75 3
      vertex 14.3349 30.75 0
    endloop
  endfacet
  facet normal -0.896921 0.442191 0
    outer loop
      vertex 14.3349 30.75 3
      vertex 14.1903 30.4567 0
      vertex 14.1903 30.4567 3
    endloop
  endfacet
  facet normal 0.195116 0.98078 -0
    outer loop
      vertex 40.147 31.9148 0
      vertex 39.8263 31.9786 3
      vertex 40.147 31.9148 3
    endloop
  endfacet
  facet normal 0.195116 0.98078 0
    outer loop
      vertex 39.8263 31.9786 3
      vertex 40.147 31.9148 0
      vertex 39.8263 31.9786 0
    endloop
  endfacet
  facet normal -0.0654432 -0.997856 0
    outer loop
      vertex 16.1737 12.0214 0
      vertex 16.5 12 3
      vertex 16.1737 12.0214 3
    endloop
  endfacet
  facet normal -0.0654432 -0.997856 -0
    outer loop
      vertex 16.5 12 3
      vertex 16.1737 12.0214 0
      vertex 16.5 12 0
    endloop
  endfacet
  facet normal -0.195116 -0.98078 0
    outer loop
      vertex 15.853 12.0852 0
      vertex 16.1737 12.0214 3
      vertex 15.853 12.0852 3
    endloop
  endfacet
  facet normal -0.195116 -0.98078 -0
    outer loop
      vertex 16.1737 12.0214 3
      vertex 15.853 12.0852 0
      vertex 16.1737 12.0214 0
    endloop
  endfacet
  facet normal 0 0 -1
    outer loop
      vertex 39.5 12 0
      vertex 42 14.5 0
      vertex 41.9786 14.1737 0
    endloop
  endfacet
  facet normal -0 0 -1
    outer loop
      vertex 42 14.5 0
      vertex 39.5 12 0
      vertex 42 29.5 0
    endloop
  endfacet
  facet normal 0 0 -1
    outer loop
      vertex 39.5 12 0
      vertex 41.9786 14.1737 0
      vertex 41.9148 13.853 0
    endloop
  endfacet
  facet normal 0 0 -1
    outer loop
      vertex 39.5 32 0
      vertex 42 29.5 0
      vertex 39.5 12 0
    endloop
  endfacet
  facet normal 0 0 -1
    outer loop
      vertex 39.5 12 0
      vertex 41.9148 13.853 0
      vertex 41.8097 13.5433 0
    endloop
  endfacet
  facet normal 0 0 -1
    outer loop
      vertex 42 29.5 0
      vertex 39.5 32 0
      vertex 41.9786 29.8263 0
    endloop
  endfacet
  facet normal 0 0 -1
    outer loop
      vertex 39.5 12 0
      vertex 41.8097 13.5433 0
      vertex 41.6651 13.25 0
    endloop
  endfacet
  facet normal 0 0 -1
    outer loop
      vertex 41.9786 29.8263 0
      vertex 39.5 32 0
      vertex 41.9148 30.147 0
    endloop
  endfacet
  facet normal 0 0 -1
    outer loop
      vertex 39.5 12 0
      vertex 41.6651 13.25 0
      vertex 41.4834 12.9781 0
    endloop
  endfacet
  facet normal 0 0 -1
    outer loop
      vertex 41.9148 30.147 0
      vertex 39.5 32 0
      vertex 41.8097 30.4567 0
    endloop
  endfacet
  facet normal 0 0 -1
    outer loop
      vertex 39.5 12 0
      vertex 41.4834 12.9781 0
      vertex 41.2678 12.7322 0
    endloop
  endfacet
  facet normal 0 0 -1
    outer loop
      vertex 41.8097 30.4567 0
      vertex 39.5 32 0
      vertex 41.6651 30.75 0
    endloop
  endfacet
  facet normal 0 0 -1
    outer loop
      vertex 39.5 12 0
      vertex 41.2678 12.7322 0
      vertex 41.0219 12.5166 0
    endloop
  endfacet
  facet normal 0 0 -1
    outer loop
      vertex 41.6651 30.75 0
      vertex 39.5 32 0
      vertex 41.4834 31.0219 0
    endloop
  endfacet
  facet normal 0 0 -1
    outer loop
      vertex 39.5 12 0
      vertex 41.0219 12.5166 0
      vertex 40.75 12.3349 0
    endloop
  endfacet
  facet normal 0 0 -1
    outer loop
      vertex 41.4834 31.0219 0
      vertex 39.5 32 0
      vertex 41.2678 31.2678 0
    endloop
  endfacet
  facet normal 0 0 -1
    outer loop
      vertex 39.5 12 0
      vertex 40.75 12.3349 0
      vertex 40.4567 12.1903 0
    endloop
  endfacet
  facet normal 0 0 -1
    outer loop
      vertex 41.2678 31.2678 0
      vertex 39.5 32 0
      vertex 41.0219 31.4834 0
    endloop
  endfacet
  facet normal 0 0 -1
    outer loop
      vertex 39.5 12 0
      vertex 40.4567 12.1903 0
      vertex 40.147 12.0852 0
    endloop
  endfacet
  facet normal 0 0 -1
    outer loop
      vertex 41.0219 31.4834 0
      vertex 39.5 32 0
      vertex 40.75 31.6651 0
    endloop
  endfacet
  facet normal 0 0 -1
    outer loop
      vertex 39.5 12 0
      vertex 40.147 12.0852 0
      vertex 39.8263 12.0214 0
    endloop
  endfacet
  facet normal 0 0 -1
    outer loop
      vertex 40.75 31.6651 0
      vertex 39.5 32 0
      vertex 40.4567 31.8097 0
    endloop
  endfacet
  facet normal 0 0 -1
    outer loop
      vertex 40.4567 31.8097 0
      vertex 39.5 32 0
      vertex 40.147 31.9148 0
    endloop
  endfacet
  facet normal 0 0 -1
    outer loop
      vertex 40.147 31.9148 0
      vertex 39.5 32 0
      vertex 39.8263 31.9786 0
    endloop
  endfacet
  facet normal 0 0 -1
    outer loop
      vertex 16.5 12 0
      vertex 39.5 32 0
      vertex 39.5 12 0
    endloop
  endfacet
  facet normal 0 0 -1
    outer loop
      vertex 16.5 12 0
      vertex 16.5 32 0
      vertex 39.5 32 0
    endloop
  endfacet
  facet normal 0 0 -1
    outer loop
      vertex 14 14.5 0
      vertex 16.5 12 0
      vertex 16.1737 12.0214 0
    endloop
  endfacet
  facet normal 0 0 -1
    outer loop
      vertex 16.5 12 0
      vertex 14 14.5 0
      vertex 16.5 32 0
    endloop
  endfacet
  facet normal 0 0 -1
    outer loop
      vertex 14 14.5 0
      vertex 16.1737 12.0214 0
      vertex 15.853 12.0852 0
    endloop
  endfacet
  facet normal 0 0 -1
    outer loop
      vertex 14 29.5 0
      vertex 16.5 32 0
      vertex 14 14.5 0
    endloop
  endfacet
  facet normal 0 0 -1
    outer loop
      vertex 14 14.5 0
      vertex 15.853 12.0852 0
      vertex 15.5433 12.1903 0
    endloop
  endfacet
  facet normal 0 0 -1
    outer loop
      vertex 16.5 32 0
      vertex 14 29.5 0
      vertex 16.1737 31.9786 0
    endloop
  endfacet
  facet normal 0 0 -1
    outer loop
      vertex 14 14.5 0
      vertex 15.5433 12.1903 0
      vertex 15.25 12.3349 0
    endloop
  endfacet
  facet normal 0 0 -1
    outer loop
      vertex 16.1737 31.9786 0
      vertex 14 29.5 0
      vertex 15.853 31.9148 0
    endloop
  endfacet
  facet normal 0 0 -1
    outer loop
      vertex 14 14.5 0
      vertex 15.25 12.3349 0
      vertex 14.9781 12.5166 0
    endloop
  endfacet
  facet normal 0 0 -1
    outer loop
      vertex 15.853 31.9148 0
      vertex 14 29.5 0
      vertex 15.5433 31.8097 0
    endloop
  endfacet
  facet normal 0 0 -1
    outer loop
      vertex 14 14.5 0
      vertex 14.9781 12.5166 0
      vertex 14.7322 12.7322 0
    endloop
  endfacet
  facet normal 0 0 -1
    outer loop
      vertex 15.5433 31.8097 0
      vertex 14 29.5 0
      vertex 15.25 31.6651 0
    endloop
  endfacet
  facet normal 0 0 -1
    outer loop
      vertex 14 14.5 0
      vertex 14.7322 12.7322 0
      vertex 14.5166 12.9781 0
    endloop
  endfacet
  facet normal 0 0 -1
    outer loop
      vertex 15.25 31.6651 0
      vertex 14 29.5 0
      vertex 14.9781 31.4834 0
    endloop
  endfacet
  facet normal 0 0 -1
    outer loop
      vertex 14 14.5 0
      vertex 14.5166 12.9781 0
      vertex 14.3349 13.25 0
    endloop
  endfacet
  facet normal 0 0 -1
    outer loop
      vertex 14.9781 31.4834 0
      vertex 14 29.5 0
      vertex 14.7322 31.2678 0
    endloop
  endfacet
  facet normal 0 0 -1
    outer loop
      vertex 14 14.5 0
      vertex 14.3349 13.25 0
      vertex 14.1903 13.5433 0
    endloop
  endfacet
  facet normal 0 0 -1
    outer loop
      vertex 14.7322 31.2678 0
      vertex 14 29.5 0
      vertex 14.5166 31.0219 0
    endloop
  endfacet
  facet normal 0 0 -1
    outer loop
      vertex 14 14.5 0
      vertex 14.1903 13.5433 0
      vertex 14.0852 13.853 0
    endloop
  endfacet
  facet normal 0 0 -1
    outer loop
      vertex 14.5166 31.0219 0
      vertex 14 29.5 0
      vertex 14.3349 30.75 0
    endloop
  endfacet
  facet normal 0 0 -1
    outer loop
      vertex 14 14.5 0
      vertex 14.0852 13.853 0
      vertex 14.0214 14.1737 0
    endloop
  endfacet
  facet normal 0 0 -1
    outer loop
      vertex 14.3349 30.75 0
      vertex 14 29.5 0
      vertex 14.1903 30.4567 0
    endloop
  endfacet
  facet normal 0 0 -1
    outer loop
      vertex 14.1903 30.4567 0
      vertex 14 29.5 0
      vertex 14.0852 30.147 0
    endloop
  endfacet
  facet normal 0 0 -1
    outer loop
      vertex 14.0852 30.147 0
      vertex 14 29.5 0
      vertex 14.0214 29.8263 0
    endloop
  endfacet
  facet normal -0.442191 -0.896921 0
    outer loop
      vertex 15.25 12.3349 0
      vertex 15.5433 12.1903 3
      vertex 15.25 12.3349 3
    endloop
  endfacet
  facet normal -0.442191 -0.896921 -0
    outer loop
      vertex 15.5433 12.1903 3
      vertex 15.25 12.3349 0
      vertex 15.5433 12.1903 0
    endloop
  endfacet
  facet normal 0.659262 -0.751913 0
    outer loop
      vertex 41.0219 12.5166 0
      vertex 41.2678 12.7322 3
      vertex 41.0219 12.5166 3
    endloop
  endfacet
  facet normal 0.659262 -0.751913 0
    outer loop
      vertex 41.2678 12.7322 3
      vertex 41.0219 12.5166 0
      vertex 41.2678 12.7322 0
    endloop
  endfacet
  facet normal 0.946957 0.32136 0
    outer loop
      vertex 41.9148 30.147 3
      vertex 41.8097 30.4567 0
      vertex 41.8097 30.4567 3
    endloop
  endfacet
  facet normal 0.946957 0.32136 0
    outer loop
      vertex 41.8097 30.4567 0
      vertex 41.9148 30.147 3
      vertex 41.9148 30.147 0
    endloop
  endfacet
  facet normal 0.32136 -0.946957 0
    outer loop
      vertex 40.147 12.0852 0
      vertex 40.4567 12.1903 3
      vertex 40.147 12.0852 3
    endloop
  endfacet
  facet normal 0.32136 -0.946957 0
    outer loop
      vertex 40.4567 12.1903 3
      vertex 40.147 12.0852 0
      vertex 40.4567 12.1903 0
    endloop
  endfacet
  facet normal 0.896921 0.442191 0
    outer loop
      vertex 41.8097 30.4567 3
      vertex 41.6651 30.75 0
      vertex 41.6651 30.75 3
    endloop
  endfacet
  facet normal 0.896921 0.442191 0
    outer loop
      vertex 41.6651 30.75 0
      vertex 41.8097 30.4567 3
      vertex 41.8097 30.4567 0
    endloop
  endfacet
  facet normal 0.442191 -0.896921 0
    outer loop
      vertex 40.4567 12.1903 0
      vertex 40.75 12.3349 3
      vertex 40.4567 12.1903 3
    endloop
  endfacet
  facet normal 0.442191 -0.896921 0
    outer loop
      vertex 40.75 12.3349 3
      vertex 40.4567 12.1903 0
      vertex 40.75 12.3349 0
    endloop
  endfacet
  facet normal 0.946957 -0.32136 0
    outer loop
      vertex 41.8097 13.5433 3
      vertex 41.9148 13.853 0
      vertex 41.9148 13.853 3
    endloop
  endfacet
  facet normal 0.946957 -0.32136 0
    outer loop
      vertex 41.9148 13.853 0
      vertex 41.8097 13.5433 3
      vertex 41.8097 13.5433 0
    endloop
  endfacet
  facet normal 0.896921 -0.442191 0
    outer loop
      vertex 41.6651 13.25 3
      vertex 41.8097 13.5433 0
      vertex 41.8097 13.5433 3
    endloop
  endfacet
  facet normal 0.896921 -0.442191 0
    outer loop
      vertex 41.8097 13.5433 0
      vertex 41.6651 13.25 3
      vertex 41.6651 13.25 0
    endloop
  endfacet
  facet normal 0 0 1
    outer loop
      vertex 39.5 32 3
      vertex 42 29.5 3
      vertex 41.9786 29.8263 3
    endloop
  endfacet
  facet normal 0 0 1
    outer loop
      vertex 42 29.5 3
      vertex 31.63 27 3
      vertex 42 14.5 3
    endloop
  endfacet
  facet normal 0 0 1
    outer loop
      vertex 39.5 32 3
      vertex 41.9786 29.8263 3
      vertex 41.9148 30.147 3
    endloop
  endfacet
  facet normal -0 0 1
    outer loop
      vertex 31.63 17 3
      vertex 42 14.5 3
      vertex 31.63 27 3
    endloop
  endfacet
  facet normal 0 0 1
    outer loop
      vertex 39.5 32 3
      vertex 41.9148 30.147 3
      vertex 41.8097 30.4567 3
    endloop
  endfacet
  facet normal 0 -0 1
    outer loop
      vertex 39.5 12 3
      vertex 42 14.5 3
      vertex 31.63 17 3
    endloop
  endfacet
  facet normal 0 0 1
    outer loop
      vertex 39.5 32 3
      vertex 41.8097 30.4567 3
      vertex 41.6651 30.75 3
    endloop
  endfacet
  facet normal 0 0 1
    outer loop
      vertex 42 14.5 3
      vertex 39.5 12 3
      vertex 41.9786 14.1737 3
    endloop
  endfacet
  facet normal 0 0 1
    outer loop
      vertex 39.5 32 3
      vertex 41.6651 30.75 3
      vertex 41.4834 31.0219 3
    endloop
  endfacet
  facet normal 0 0 1
    outer loop
      vertex 41.9786 14.1737 3
      vertex 39.5 12 3
      vertex 41.9148 13.853 3
    endloop
  endfacet
  facet normal 0 0 1
    outer loop
      vertex 39.5 32 3
      vertex 41.4834 31.0219 3
      vertex 41.2678 31.2678 3
    endloop
  endfacet
  facet normal 0 0 1
    outer loop
      vertex 41.9148 13.853 3
      vertex 39.5 12 3
      vertex 41.8097 13.5433 3
    endloop
  endfacet
  facet normal 0 0 1
    outer loop
      vertex 39.5 32 3
      vertex 41.2678 31.2678 3
      vertex 41.0219 31.4834 3
    endloop
  endfacet
  facet normal 0 0 1
    outer loop
      vertex 41.8097 13.5433 3
      vertex 39.5 12 3
      vertex 41.6651 13.25 3
    endloop
  endfacet
  facet normal 0 0 1
    outer loop
      vertex 39.5 32 3
      vertex 41.0219 31.4834 3
      vertex 40.75 31.6651 3
    endloop
  endfacet
  facet normal 0 0 1
    outer loop
      vertex 41.6651 13.25 3
      vertex 39.5 12 3
      vertex 41.4834 12.9781 3
    endloop
  endfacet
  facet normal 0 0 1
    outer loop
      vertex 39.5 32 3
      vertex 40.75 31.6651 3
      vertex 40.4567 31.8097 3
    endloop
  endfacet
  facet normal 0 0 1
    outer loop
      vertex 41.4834 12.9781 3
      vertex 39.5 12 3
      vertex 41.2678 12.7322 3
    endloop
  endfacet
  facet normal 0 0 1
    outer loop
      vertex 39.5 32 3
      vertex 40.4567 31.8097 3
      vertex 40.147 31.9148 3
    endloop
  endfacet
  facet normal 0 0 1
    outer loop
      vertex 41.2678 12.7322 3
      vertex 39.5 12 3
      vertex 41.0219 12.5166 3
    endloop
  endfacet
  facet normal 0 0 1
    outer loop
      vertex 39.5 32 3
      vertex 40.147 31.9148 3
      vertex 39.8263 31.9786 3
    endloop
  endfacet
  facet normal 0 0 1
    outer loop
      vertex 41.0219 12.5166 3
      vertex 39.5 12 3
      vertex 40.75 12.3349 3
    endloop
  endfacet
  facet normal 0 0 1
    outer loop
      vertex 42 29.5 3
      vertex 39.5 32 3
      vertex 31.63 27 3
    endloop
  endfacet
  facet normal 0 0 1
    outer loop
      vertex 40.75 12.3349 3
      vertex 39.5 12 3
      vertex 40.4567 12.1903 3
    endloop
  endfacet
  facet normal 0 0 1
    outer loop
      vertex 40.4567 12.1903 3
      vertex 39.5 12 3
      vertex 40.147 12.0852 3
    endloop
  endfacet
  facet normal 0 0 1
    outer loop
      vertex 39.5 32 3
      vertex 24.37 27 3
      vertex 31.63 27 3
    endloop
  endfacet
  facet normal -0 0 1
    outer loop
      vertex 14 29.5 3
      vertex 24.37 27 3
      vertex 16.5 32 3
    endloop
  endfacet
  facet normal -0 0 1
    outer loop
      vertex 16.5 32 3
      vertex 24.37 27 3
      vertex 39.5 32 3
    endloop
  endfacet
  facet normal 0 0 1
    outer loop
      vertex 40.147 12.0852 3
      vertex 39.5 12 3
      vertex 39.8263 12.0214 3
    endloop
  endfacet
  facet normal -0 0 1
    outer loop
      vertex 24.37 17 3
      vertex 39.5 12 3
      vertex 31.63 17 3
    endloop
  endfacet
  facet normal 0 0 1
    outer loop
      vertex 24.37 17 3
      vertex 16.5 12 3
      vertex 39.5 12 3
    endloop
  endfacet
  facet normal 0 0 1
    outer loop
      vertex 24.37 27 3
      vertex 14 29.5 3
      vertex 24.37 17 3
    endloop
  endfacet
  facet normal 0 0 1
    outer loop
      vertex 14 29.5 3
      vertex 16.5 32 3
      vertex 16.1737 31.9786 3
    endloop
  endfacet
  facet normal 0 0 1
    outer loop
      vertex 14 14.5 3
      vertex 24.37 17 3
      vertex 14 29.5 3
    endloop
  endfacet
  facet normal 0 0 1
    outer loop
      vertex 14 29.5 3
      vertex 16.1737 31.9786 3
      vertex 15.853 31.9148 3
    endloop
  endfacet
  facet normal 0 0 1
    outer loop
      vertex 24.37 17 3
      vertex 14 14.5 3
      vertex 16.5 12 3
    endloop
  endfacet
  facet normal 0 0 1
    outer loop
      vertex 14 29.5 3
      vertex 15.853 31.9148 3
      vertex 15.5433 31.8097 3
    endloop
  endfacet
  facet normal 0 0 1
    outer loop
      vertex 16.5 12 3
      vertex 14 14.5 3
      vertex 16.1737 12.0214 3
    endloop
  endfacet
  facet normal 0 0 1
    outer loop
      vertex 14 29.5 3
      vertex 15.5433 31.8097 3
      vertex 15.25 31.6651 3
    endloop
  endfacet
  facet normal 0 0 1
    outer loop
      vertex 16.1737 12.0214 3
      vertex 14 14.5 3
      vertex 15.853 12.0852 3
    endloop
  endfacet
  facet normal 0 0 1
    outer loop
      vertex 14 29.5 3
      vertex 15.25 31.6651 3
      vertex 14.9781 31.4834 3
    endloop
  endfacet
  facet normal 0 0 1
    outer loop
      vertex 15.853 12.0852 3
      vertex 14 14.5 3
      vertex 15.5433 12.1903 3
    endloop
  endfacet
  facet normal 0 0 1
    outer loop
      vertex 14 29.5 3
      vertex 14.9781 31.4834 3
      vertex 14.7322 31.2678 3
    endloop
  endfacet
  facet normal 0 0 1
    outer loop
      vertex 15.5433 12.1903 3
      vertex 14 14.5 3
      vertex 15.25 12.3349 3
    endloop
  endfacet
  facet normal 0 0 1
    outer loop
      vertex 14 29.5 3
      vertex 14.7322 31.2678 3
      vertex 14.5166 31.0219 3
    endloop
  endfacet
  facet normal 0 0 1
    outer loop
      vertex 15.25 12.3349 3
      vertex 14 14.5 3
      vertex 14.9781 12.5166 3
    endloop
  endfacet
  facet normal 0 0 1
    outer loop
      vertex 14 29.5 3
      vertex 14.5166 31.0219 3
      vertex 14.3349 30.75 3
    endloop
  endfacet
  facet normal 0 0 1
    outer loop
      vertex 14.9781 12.5166 3
      vertex 14 14.5 3
      vertex 14.7322 12.7322 3
    endloop
  endfacet
  facet normal 0 0 1
    outer loop
      vertex 14 29.5 3
      vertex 14.3349 30.75 3
      vertex 14.1903 30.4567 3
    endloop
  endfacet
  facet normal 0 0 1
    outer loop
      vertex 14.7322 12.7322 3
      vertex 14 14.5 3
      vertex 14.5166 12.9781 3
    endloop
  endfacet
  facet normal 0 0 1
    outer loop
      vertex 14 29.5 3
      vertex 14.1903 30.4567 3
      vertex 14.0852 30.147 3
    endloop
  endfacet
  facet normal 0 0 1
    outer loop
      vertex 14.5166 12.9781 3
      vertex 14 14.5 3
      vertex 14.3349 13.25 3
    endloop
  endfacet
  facet normal 0 0 1
    outer loop
      vertex 14 29.5 3
      vertex 14.0852 30.147 3
      vertex 14.0214 29.8263 3
    endloop
  endfacet
  facet normal 0 0 1
    outer loop
      vertex 14.3349 13.25 3
      vertex 14 14.5 3
      vertex 14.1903 13.5433 3
    endloop
  endfacet
  facet normal 0 0 1
    outer loop
      vertex 14.1903 13.5433 3
      vertex 14 14.5 3
      vertex 14.0852 13.853 3
    endloop
  endfacet
  facet normal 0 0 1
    outer loop
      vertex 14.0852 13.853 3
      vertex 14 14.5 3
      vertex 14.0214 14.1737 3
    endloop
  endfacet
  facet normal -0.555617 0.831438 0
    outer loop
      vertex 15.25 31.6651 0
      vertex 14.9781 31.4834 3
      vertex 15.25 31.6651 3
    endloop
  endfacet
  facet normal -0.555617 0.831438 0
    outer loop
      vertex 14.9781 31.4834 3
      vertex 15.25 31.6651 0
      vertex 14.9781 31.4834 0
    endloop
  endfacet
endsolid OpenSCAD_Model
