ISO-10303-21;
HEADER;
FILE_DESCRIPTION(('Open CASCADE Model'),'2;1');
FILE_NAME('Open CASCADE Shape Model','2026-08-06T19:43:45',('Author'),(
    'Open CASCADE'),'Open CASCADE STEP processor 7.9','Open CASCADE 7.9'
  ,'Unknown');
FILE_SCHEMA(('AUTOMOTIVE_DESIGN { 1 0 10303 214 1 1 1 1 }'));
ENDSEC;
DATA;
#1 = APPLICATION_PROTOCOL_DEFINITION('international standard',
  'automotive_design',2000,#2);
#2 = APPLICATION_CONTEXT(
  'core data for automotive mechanical design processes');
#3 = SHAPE_DEFINITION_REPRESENTATION(#4,#10);
#4 = PRODUCT_DEFINITION_SHAPE('','',#5);
#5 = PRODUCT_DEFINITION('design','',#6,#9);
#6 = PRODUCT_DEFINITION_FORMATION('','',#7);
#7 = PRODUCT('Open CASCADE STEP translator 7.9 1',
  'Open CASCADE STEP translator 7.9 1','',(#8));
#8 = PRODUCT_CONTEXT('',#2,'mechanical');
#9 = PRODUCT_DEFINITION_CONTEXT('part definition',#2,'design');
#10 = ADVANCED_BREP_SHAPE_REPRESENTATION('',(#11,#15),#574);
#11 = AXIS2_PLACEMENT_3D('',#12,#13,#14);
#12 = CARTESIAN_POINT('',(0.,0.,0.));
#13 = DIRECTION('',(0.,0.,1.));
#14 = DIRECTION('',(1.,0.,-0.));
#15 = MANIFOLD_SOLID_BREP('',#16);
#16 = CLOSED_SHELL('',(#17,#105,#109,#144,#415,#472,#511,#515,#570));
#17 = ADVANCED_FACE('',(#18),#32,.T.);
#18 = FACE_BOUND('',#19,.F.);
#19 = EDGE_LOOP('',(#20,#50,#77,#78));
#20 = ORIENTED_EDGE('',*,*,#21,.T.);
#21 = EDGE_CURVE('',#22,#24,#26,.T.);
#22 = VERTEX_POINT('',#23);
#23 = CARTESIAN_POINT('',(26.75,0.,0.));
#24 = VERTEX_POINT('',#25);
#25 = CARTESIAN_POINT('',(26.75,0.,15.));
#26 = SEAM_CURVE('',#27,(#31,#43),.PCURVE_S1.);
#27 = LINE('',#28,#29);
#28 = CARTESIAN_POINT('',(26.75,0.,0.));
#29 = VECTOR('',#30,1.);
#30 = DIRECTION('',(0.,0.,1.));
#31 = PCURVE('',#32,#37);
#32 = CYLINDRICAL_SURFACE('',#33,26.75);
#33 = AXIS2_PLACEMENT_3D('',#34,#35,#36);
#34 = CARTESIAN_POINT('',(0.,0.,0.));
#35 = DIRECTION('',(-0.,-0.,-1.));
#36 = DIRECTION('',(1.,0.,0.));
#37 = DEFINITIONAL_REPRESENTATION('',(#38),#42);
#38 = LINE('',#39,#40);
#39 = CARTESIAN_POINT('',(-0.,0.));
#40 = VECTOR('',#41,1.);
#41 = DIRECTION('',(-0.,-1.));
#42 = ( GEOMETRIC_REPRESENTATION_CONTEXT(2) 
PARAMETRIC_REPRESENTATION_CONTEXT() REPRESENTATION_CONTEXT('2D SPACE',''
  ) );
#43 = PCURVE('',#32,#44);
#44 = DEFINITIONAL_REPRESENTATION('',(#45),#49);
#45 = LINE('',#46,#47);
#46 = CARTESIAN_POINT('',(-6.28318530718,0.));
#47 = VECTOR('',#48,1.);
#48 = DIRECTION('',(-0.,-1.));
#49 = ( GEOMETRIC_REPRESENTATION_CONTEXT(2) 
PARAMETRIC_REPRESENTATION_CONTEXT() REPRESENTATION_CONTEXT('2D SPACE',''
  ) );
#50 = ORIENTED_EDGE('',*,*,#51,.T.);
#51 = EDGE_CURVE('',#24,#24,#52,.T.);
#52 = SURFACE_CURVE('',#53,(#58,#65),.PCURVE_S1.);
#53 = CIRCLE('',#54,26.75);
#54 = AXIS2_PLACEMENT_3D('',#55,#56,#57);
#55 = CARTESIAN_POINT('',(0.,0.,15.));
#56 = DIRECTION('',(0.,0.,1.));
#57 = DIRECTION('',(1.,0.,0.));
#58 = PCURVE('',#32,#59);
#59 = DEFINITIONAL_REPRESENTATION('',(#60),#64);
#60 = LINE('',#61,#62);
#61 = CARTESIAN_POINT('',(-0.,-15.));
#62 = VECTOR('',#63,1.);
#63 = DIRECTION('',(-1.,0.));
#64 = ( GEOMETRIC_REPRESENTATION_CONTEXT(2) 
PARAMETRIC_REPRESENTATION_CONTEXT() REPRESENTATION_CONTEXT('2D SPACE',''
  ) );
#65 = PCURVE('',#66,#71);
#66 = PLANE('',#67);
#67 = AXIS2_PLACEMENT_3D('',#68,#69,#70);
#68 = CARTESIAN_POINT('',(-1.635816233318E-15,2.179655737397E-15,15.));
#69 = DIRECTION('',(0.,0.,1.));
#70 = DIRECTION('',(1.,0.,-0.));
#71 = DEFINITIONAL_REPRESENTATION('',(#72),#76);
#72 = CIRCLE('',#73,26.75);
#73 = AXIS2_PLACEMENT_2D('',#74,#75);
#74 = CARTESIAN_POINT('',(1.635816233318E-15,-2.179655737397E-15));
#75 = DIRECTION('',(1.,0.));
#76 = ( GEOMETRIC_REPRESENTATION_CONTEXT(2) 
PARAMETRIC_REPRESENTATION_CONTEXT() REPRESENTATION_CONTEXT('2D SPACE',''
  ) );
#77 = ORIENTED_EDGE('',*,*,#21,.F.);
#78 = ORIENTED_EDGE('',*,*,#79,.F.);
#79 = EDGE_CURVE('',#22,#22,#80,.T.);
#80 = SURFACE_CURVE('',#81,(#86,#93),.PCURVE_S1.);
#81 = CIRCLE('',#82,26.75);
#82 = AXIS2_PLACEMENT_3D('',#83,#84,#85);
#83 = CARTESIAN_POINT('',(0.,0.,0.));
#84 = DIRECTION('',(0.,0.,1.));
#85 = DIRECTION('',(1.,0.,0.));
#86 = PCURVE('',#32,#87);
#87 = DEFINITIONAL_REPRESENTATION('',(#88),#92);
#88 = LINE('',#89,#90);
#89 = CARTESIAN_POINT('',(-0.,0.));
#90 = VECTOR('',#91,1.);
#91 = DIRECTION('',(-1.,0.));
#92 = ( GEOMETRIC_REPRESENTATION_CONTEXT(2) 
PARAMETRIC_REPRESENTATION_CONTEXT() REPRESENTATION_CONTEXT('2D SPACE',''
  ) );
#93 = PCURVE('',#94,#99);
#94 = PLANE('',#95);
#95 = AXIS2_PLACEMENT_3D('',#96,#97,#98);
#96 = CARTESIAN_POINT('',(-1.635816233318E-15,2.179655737397E-15,0.));
#97 = DIRECTION('',(0.,0.,1.));
#98 = DIRECTION('',(1.,0.,-0.));
#99 = DEFINITIONAL_REPRESENTATION('',(#100),#104);
#100 = CIRCLE('',#101,26.75);
#101 = AXIS2_PLACEMENT_2D('',#102,#103);
#102 = CARTESIAN_POINT('',(1.635816233318E-15,-2.179655737397E-15));
#103 = DIRECTION('',(1.,0.));
#104 = ( GEOMETRIC_REPRESENTATION_CONTEXT(2) 
PARAMETRIC_REPRESENTATION_CONTEXT() REPRESENTATION_CONTEXT('2D SPACE',''
  ) );
#105 = ADVANCED_FACE('',(#106),#94,.F.);
#106 = FACE_BOUND('',#107,.F.);
#107 = EDGE_LOOP('',(#108));
#108 = ORIENTED_EDGE('',*,*,#79,.T.);
#109 = ADVANCED_FACE('',(#110,#113),#66,.T.);
#110 = FACE_BOUND('',#111,.T.);
#111 = EDGE_LOOP('',(#112));
#112 = ORIENTED_EDGE('',*,*,#51,.T.);
#113 = FACE_BOUND('',#114,.T.);
#114 = EDGE_LOOP('',(#115));
#115 = ORIENTED_EDGE('',*,*,#116,.F.);
#116 = EDGE_CURVE('',#117,#117,#119,.T.);
#117 = VERTEX_POINT('',#118);
#118 = CARTESIAN_POINT('',(23.2,0.,15.));
#119 = SURFACE_CURVE('',#120,(#125,#132),.PCURVE_S1.);
#120 = CIRCLE('',#121,23.2);
#121 = AXIS2_PLACEMENT_3D('',#122,#123,#124);
#122 = CARTESIAN_POINT('',(0.,0.,15.));
#123 = DIRECTION('',(0.,0.,1.));
#124 = DIRECTION('',(1.,0.,0.));
#125 = PCURVE('',#66,#126);
#126 = DEFINITIONAL_REPRESENTATION('',(#127),#131);
#127 = CIRCLE('',#128,23.2);
#128 = AXIS2_PLACEMENT_2D('',#129,#130);
#129 = CARTESIAN_POINT('',(1.635816233318E-15,-2.179655737397E-15));
#130 = DIRECTION('',(1.,0.));
#131 = ( GEOMETRIC_REPRESENTATION_CONTEXT(2) 
PARAMETRIC_REPRESENTATION_CONTEXT() REPRESENTATION_CONTEXT('2D SPACE',''
  ) );
#132 = PCURVE('',#133,#138);
#133 = CYLINDRICAL_SURFACE('',#134,23.2);
#134 = AXIS2_PLACEMENT_3D('',#135,#136,#137);
#135 = CARTESIAN_POINT('',(0.,0.,15.));
#136 = DIRECTION('',(-0.,-0.,-1.));
#137 = DIRECTION('',(1.,0.,0.));
#138 = DEFINITIONAL_REPRESENTATION('',(#139),#143);
#139 = LINE('',#140,#141);
#140 = CARTESIAN_POINT('',(-0.,0.));
#141 = VECTOR('',#142,1.);
#142 = DIRECTION('',(-1.,0.));
#143 = ( GEOMETRIC_REPRESENTATION_CONTEXT(2) 
PARAMETRIC_REPRESENTATION_CONTEXT() REPRESENTATION_CONTEXT('2D SPACE',''
  ) );
#144 = ADVANCED_FACE('',(#145),#133,.T.);
#145 = FACE_BOUND('',#146,.F.);
#146 = EDGE_LOOP('',(#147,#148,#171,#217,#273,#296,#323,#324,#414));
#147 = ORIENTED_EDGE('',*,*,#116,.F.);
#148 = ORIENTED_EDGE('',*,*,#149,.T.);
#149 = EDGE_CURVE('',#117,#150,#152,.T.);
#150 = VERTEX_POINT('',#151);
#151 = CARTESIAN_POINT('',(23.2,0.,92.525));
#152 = SEAM_CURVE('',#153,(#157,#164),.PCURVE_S1.);
#153 = LINE('',#154,#155);
#154 = CARTESIAN_POINT('',(23.2,0.,15.));
#155 = VECTOR('',#156,1.);
#156 = DIRECTION('',(0.,0.,1.));
#157 = PCURVE('',#133,#158);
#158 = DEFINITIONAL_REPRESENTATION('',(#159),#163);
#159 = LINE('',#160,#161);
#160 = CARTESIAN_POINT('',(-6.28318530718,0.));
#161 = VECTOR('',#162,1.);
#162 = DIRECTION('',(-0.,-1.));
#163 = ( GEOMETRIC_REPRESENTATION_CONTEXT(2) 
PARAMETRIC_REPRESENTATION_CONTEXT() REPRESENTATION_CONTEXT('2D SPACE',''
  ) );
#164 = PCURVE('',#133,#165);
#165 = DEFINITIONAL_REPRESENTATION('',(#166),#170);
#166 = LINE('',#167,#168);
#167 = CARTESIAN_POINT('',(-0.,0.));
#168 = VECTOR('',#169,1.);
#169 = DIRECTION('',(-0.,-1.));
#170 = ( GEOMETRIC_REPRESENTATION_CONTEXT(2) 
PARAMETRIC_REPRESENTATION_CONTEXT() REPRESENTATION_CONTEXT('2D SPACE',''
  ) );
#171 = ORIENTED_EDGE('',*,*,#172,.T.);
#172 = EDGE_CURVE('',#150,#173,#175,.T.);
#173 = VERTEX_POINT('',#174);
#174 = CARTESIAN_POINT('',(23.18349358919,0.875,93.4));
#175 = SURFACE_CURVE('',#176,(#186,#199),.PCURVE_S1.);
#176 = B_SPLINE_CURVE_WITH_KNOTS('',8,(#177,#178,#179,#180,#181,#182,
    #183,#184,#185),.UNSPECIFIED.,.F.,.F.,(9,9),(0.,1.),
  .PIECEWISE_BEZIER_KNOTS.);
#177 = CARTESIAN_POINT('',(23.2,1.473944788281E-15,92.525));
#178 = CARTESIAN_POINT('',(23.2,0.194499251267,92.525));
#179 = CARTESIAN_POINT('',(23.198136520322,0.379574139199,
    92.574410879017));
#180 = CARTESIAN_POINT('',(23.194725065986,0.542971767131,
    92.664851145273));
#181 = CARTESIAN_POINT('',(23.190719099837,0.677148139094,
    92.786704879651));
#182 = CARTESIAN_POINT('',(23.187164163893,0.77775535069,92.930066972863
    ));
#183 = CARTESIAN_POINT('',(23.184684493976,0.843444872916,
    93.085508163261));
#184 = CARTESIAN_POINT('',(23.18349358919,0.875,93.244565353238));
#185 = CARTESIAN_POINT('',(23.18349358919,0.875,93.4));
#186 = PCURVE('',#133,#187);
#187 = DEFINITIONAL_REPRESENTATION('',(#188),#198);
#188 = B_SPLINE_CURVE_WITH_KNOTS('',8,(#189,#190,#191,#192,#193,#194,
    #195,#196,#197),.UNSPECIFIED.,.F.,.F.,(9,9),(0.,1.),
  .PIECEWISE_BEZIER_KNOTS.);
#189 = CARTESIAN_POINT('',(0.,-77.525));
#190 = CARTESIAN_POINT('',(-8.383588416674E-03,-77.525));
#191 = CARTESIAN_POINT('',(-1.636095605974E-02,-77.57441087901));
#192 = CARTESIAN_POINT('',(-2.340484373644E-02,-77.66485114527));
#193 = CARTESIAN_POINT('',(-2.919067530235E-02,-77.78670487965));
#194 = CARTESIAN_POINT('',(-3.352990562214E-02,-77.93006697286));
#195 = CARTESIAN_POINT('',(-3.636336009009E-02,-78.08550816326));
#196 = CARTESIAN_POINT('',(-3.772446444035E-02,-78.24456535323));
#197 = CARTESIAN_POINT('',(-3.772446444035E-02,-78.4));
#198 = ( GEOMETRIC_REPRESENTATION_CONTEXT(2) 
PARAMETRIC_REPRESENTATION_CONTEXT() REPRESENTATION_CONTEXT('2D SPACE',''
  ) );
#199 = PCURVE('',#200,#205);
#200 = CYLINDRICAL_SURFACE('',#201,0.875);
#201 = AXIS2_PLACEMENT_3D('',#202,#203,#204);
#202 = CARTESIAN_POINT('',(22.8,0.,93.4));
#203 = DIRECTION('',(-1.,-0.,-0.));
#204 = DIRECTION('',(0.,1.,0.));
#205 = DEFINITIONAL_REPRESENTATION('',(#206),#216);
#206 = B_SPLINE_CURVE_WITH_KNOTS('',8,(#207,#208,#209,#210,#211,#212,
    #213,#214,#215),.UNSPECIFIED.,.F.,.F.,(9,9),(0.,1.),
  .PIECEWISE_BEZIER_KNOTS.);
#207 = CARTESIAN_POINT('',(-4.712388980385,-0.4));
#208 = CARTESIAN_POINT('',(-4.934673838975,-0.4));
#209 = CARTESIAN_POINT('',(-5.146189652453,-0.398136520322));
#210 = CARTESIAN_POINT('',(-5.349655288252,-0.394725065986));
#211 = CARTESIAN_POINT('',(-5.546436372986,-0.390719099837));
#212 = CARTESIAN_POINT('',(-5.737577603321,-0.387164163893));
#213 = CARTESIAN_POINT('',(-5.92376596927,-0.384684493976));
#214 = CARTESIAN_POINT('',(-6.10554571088,-0.38349358919));
#215 = CARTESIAN_POINT('',(-6.28318530718,-0.38349358919));
#216 = ( GEOMETRIC_REPRESENTATION_CONTEXT(2) 
PARAMETRIC_REPRESENTATION_CONTEXT() REPRESENTATION_CONTEXT('2D SPACE',''
  ) );
#217 = ORIENTED_EDGE('',*,*,#218,.T.);
#218 = EDGE_CURVE('',#173,#219,#221,.T.);
#219 = VERTEX_POINT('',#220);
#220 = CARTESIAN_POINT('',(23.2,0.,94.275));
#221 = SURFACE_CURVE('',#222,(#237,#255),.PCURVE_S1.);
#222 = B_SPLINE_CURVE_WITH_KNOTS('',7,(#223,#224,#225,#226,#227,#228,
    #229,#230,#231,#232,#233,#234,#235,#236),.UNSPECIFIED.,.F.,.F.,(8,6,
    8),(0.,0.609197151615,1.),.UNSPECIFIED.);
#223 = CARTESIAN_POINT('',(23.18349358919,0.875,93.4));
#224 = CARTESIAN_POINT('',(23.18349358919,0.875,93.509581433025));
#225 = CARTESIAN_POINT('',(23.184097851877,0.858989277099,
    93.619383212883));
#226 = CARTESIAN_POINT('',(23.185310911072,0.826851479922,
    93.727341688747));
#227 = CARTESIAN_POINT('',(23.187068231585,0.778435290648,
    93.831253896131));
#228 = CARTESIAN_POINT('',(23.189230310483,0.713694600712,
    93.928624741093));
#229 = CARTESIAN_POINT('',(23.191569962205,0.632767644158,
    94.016552752235));
#230 = CARTESIAN_POINT('',(23.195231664638,0.474405163382,
    94.139391283892));
#231 = CARTESIAN_POINT('',(23.196623451723,0.40587191299,94.182199346065
    ));
#232 = CARTESIAN_POINT('',(23.197884566327,0.331451546397,
    94.218238830748));
#233 = CARTESIAN_POINT('',(23.19891594524,0.252249019512,94.246262149548
    ));
#234 = CARTESIAN_POINT('',(23.199636655074,0.169607105134,
    94.265364241617));
#235 = CARTESIAN_POINT('',(23.2,8.500999253352E-02,94.275));
#236 = CARTESIAN_POINT('',(23.2,9.111018608944E-16,94.275));
#237 = PCURVE('',#133,#238);
#238 = DEFINITIONAL_REPRESENTATION('',(#239),#254);
#239 = B_SPLINE_CURVE_WITH_KNOTS('',7,(#240,#241,#242,#243,#244,#245,
    #246,#247,#248,#249,#250,#251,#252,#253),.UNSPECIFIED.,.F.,.F.,(8,6,
    8),(0.,0.609197151615,1.),.UNSPECIFIED.);
#240 = CARTESIAN_POINT('',(-3.772446444035E-02,-78.4));
#241 = CARTESIAN_POINT('',(-3.772446444035E-02,-78.50958143302));
#242 = CARTESIAN_POINT('',(-3.703385564457E-02,-78.61938321288));
#243 = CARTESIAN_POINT('',(-3.564761985686E-02,-78.72734168874));
#244 = CARTESIAN_POINT('',(-3.355934173085E-02,-78.83125389613));
#245 = CARTESIAN_POINT('',(-3.076726793815E-02,-78.92862474109));
#246 = CARTESIAN_POINT('',(-2.727763807921E-02,-79.01655275223));
#247 = CARTESIAN_POINT('',(-2.044984460582E-02,-79.13939128389));
#248 = CARTESIAN_POINT('',(-1.749522764196E-02,-79.18219934606));
#249 = CARTESIAN_POINT('',(-1.428702321529E-02,-79.21823883074));
#250 = CARTESIAN_POINT('',(-1.087288249383E-02,-79.24626214954));
#251 = CARTESIAN_POINT('',(-7.310651211695E-03,-79.26536424161));
#252 = CARTESIAN_POINT('',(-3.6642238161E-03,-79.275));
#253 = CARTESIAN_POINT('',(0.,-79.275));
#254 = ( GEOMETRIC_REPRESENTATION_CONTEXT(2) 
PARAMETRIC_REPRESENTATION_CONTEXT() REPRESENTATION_CONTEXT('2D SPACE',''
  ) );
#255 = PCURVE('',#200,#256);
#256 = DEFINITIONAL_REPRESENTATION('',(#257),#272);
#257 = B_SPLINE_CURVE_WITH_KNOTS('',7,(#258,#259,#260,#261,#262,#263,
    #264,#265,#266,#267,#268,#269,#270,#271),.UNSPECIFIED.,.F.,.F.,(8,6,
    8),(0.,0.609197151615,1.),.UNSPECIFIED.);
#258 = CARTESIAN_POINT('',(0.,-0.38349358919));
#259 = CARTESIAN_POINT('',(-0.125235923458,-0.38349358919));
#260 = CARTESIAN_POINT('',(-0.250723394818,-0.384097851877));
#261 = CARTESIAN_POINT('',(-0.377313994008,-0.385310911072));
#262 = CARTESIAN_POINT('',(-0.505750922208,-0.387068231585));
#263 = CARTESIAN_POINT('',(-0.636854016079,-0.389230310483));
#264 = CARTESIAN_POINT('',(-0.771524732505,-0.391569962205));
#265 = CARTESIAN_POINT('',(-1.000575601614,-0.395231664638));
#266 = CARTESIAN_POINT('',(-1.092448640545,-0.396623451723));
#267 = CARTESIAN_POINT('',(-1.186069958083,-0.397884566327));
#268 = CARTESIAN_POINT('',(-1.281013002894,-0.39891594524));
#269 = CARTESIAN_POINT('',(-1.376959938027,-0.399636655074));
#270 = CARTESIAN_POINT('',(-1.473642049614,-0.4));
#271 = CARTESIAN_POINT('',(-1.570796326795,-0.4));
#272 = ( GEOMETRIC_REPRESENTATION_CONTEXT(2) 
PARAMETRIC_REPRESENTATION_CONTEXT() REPRESENTATION_CONTEXT('2D SPACE',''
  ) );
#273 = ORIENTED_EDGE('',*,*,#274,.T.);
#274 = EDGE_CURVE('',#219,#275,#277,.T.);
#275 = VERTEX_POINT('',#276);
#276 = CARTESIAN_POINT('',(23.2,0.,97.4));
#277 = SEAM_CURVE('',#278,(#282,#289),.PCURVE_S1.);
#278 = LINE('',#279,#280);
#279 = CARTESIAN_POINT('',(23.2,0.,15.));
#280 = VECTOR('',#281,1.);
#281 = DIRECTION('',(0.,0.,1.));
#282 = PCURVE('',#133,#283);
#283 = DEFINITIONAL_REPRESENTATION('',(#284),#288);
#284 = LINE('',#285,#286);
#285 = CARTESIAN_POINT('',(-6.28318530718,0.));
#286 = VECTOR('',#287,1.);
#287 = DIRECTION('',(-0.,-1.));
#288 = ( GEOMETRIC_REPRESENTATION_CONTEXT(2) 
PARAMETRIC_REPRESENTATION_CONTEXT() REPRESENTATION_CONTEXT('2D SPACE',''
  ) );
#289 = PCURVE('',#133,#290);
#290 = DEFINITIONAL_REPRESENTATION('',(#291),#295);
#291 = LINE('',#292,#293);
#292 = CARTESIAN_POINT('',(-0.,0.));
#293 = VECTOR('',#294,1.);
#294 = DIRECTION('',(-0.,-1.));
#295 = ( GEOMETRIC_REPRESENTATION_CONTEXT(2) 
PARAMETRIC_REPRESENTATION_CONTEXT() REPRESENTATION_CONTEXT('2D SPACE',''
  ) );
#296 = ORIENTED_EDGE('',*,*,#297,.T.);
#297 = EDGE_CURVE('',#275,#275,#298,.T.);
#298 = SURFACE_CURVE('',#299,(#304,#311),.PCURVE_S1.);
#299 = CIRCLE('',#300,23.2);
#300 = AXIS2_PLACEMENT_3D('',#301,#302,#303);
#301 = CARTESIAN_POINT('',(0.,0.,97.4));
#302 = DIRECTION('',(0.,0.,1.));
#303 = DIRECTION('',(1.,0.,0.));
#304 = PCURVE('',#133,#305);
#305 = DEFINITIONAL_REPRESENTATION('',(#306),#310);
#306 = LINE('',#307,#308);
#307 = CARTESIAN_POINT('',(-0.,-82.4));
#308 = VECTOR('',#309,1.);
#309 = DIRECTION('',(-1.,0.));
#310 = ( GEOMETRIC_REPRESENTATION_CONTEXT(2) 
PARAMETRIC_REPRESENTATION_CONTEXT() REPRESENTATION_CONTEXT('2D SPACE',''
  ) );
#311 = PCURVE('',#312,#317);
#312 = PLANE('',#313);
#313 = AXIS2_PLACEMENT_3D('',#314,#315,#316);
#314 = CARTESIAN_POINT('',(-9.43062160372E-16,9.390641294034E-16,97.4));
#315 = DIRECTION('',(0.,0.,1.));
#316 = DIRECTION('',(1.,0.,-0.));
#317 = DEFINITIONAL_REPRESENTATION('',(#318),#322);
#318 = CIRCLE('',#319,23.2);
#319 = AXIS2_PLACEMENT_2D('',#320,#321);
#320 = CARTESIAN_POINT('',(9.43062160372E-16,-9.390641294034E-16));
#321 = DIRECTION('',(1.,0.));
#322 = ( GEOMETRIC_REPRESENTATION_CONTEXT(2) 
PARAMETRIC_REPRESENTATION_CONTEXT() REPRESENTATION_CONTEXT('2D SPACE',''
  ) );
#323 = ORIENTED_EDGE('',*,*,#274,.F.);
#324 = ORIENTED_EDGE('',*,*,#325,.T.);
#325 = EDGE_CURVE('',#219,#150,#326,.T.);
#326 = SURFACE_CURVE('',#327,(#354,#384),.PCURVE_S1.);
#327 = B_SPLINE_CURVE_WITH_KNOTS('',7,(#328,#329,#330,#331,#332,#333,
    #334,#335,#336,#337,#338,#339,#340,#341,#342,#343,#344,#345,#346,
    #347,#348,#349,#350,#351,#352,#353),.UNSPECIFIED.,.F.,.F.,(8,6,6,6,8
    ),(0.,0.19543984534,0.500014813723,0.804580189386,1.),
  .UNSPECIFIED.);
#328 = CARTESIAN_POINT('',(23.2,-1.887379141863E-15,94.275));
#329 = CARTESIAN_POINT('',(23.2,-8.504435168522E-02,94.275));
#330 = CARTESIAN_POINT('',(23.199636367949,-0.16964616317,
    94.265356434399));
#331 = CARTESIAN_POINT('',(23.198915522791,-0.252273138446,
    94.246250960626));
#332 = CARTESIAN_POINT('',(23.197884383579,-0.331453604879,
    94.218233142991));
#333 = CARTESIAN_POINT('',(23.196623696162,-0.405857039049,
    94.182205137753));
#334 = CARTESIAN_POINT('',(23.195232060827,-0.474388028866,
    94.139404574785));
#335 = CARTESIAN_POINT('',(23.191569956162,-0.632767905495,
    94.016552549521));
#336 = CARTESIAN_POINT('',(23.189230279682,-0.713695805962,
    93.92862366671));
#337 = CARTESIAN_POINT('',(23.187068201583,-0.778435837579,
    93.831252388529));
#338 = CARTESIAN_POINT('',(23.185310935857,-0.826850817149,
    93.727341634465));
#339 = CARTESIAN_POINT('',(23.184097890275,-0.858988266597,
    93.61938562005));
#340 = CARTESIAN_POINT('',(23.18349358919,-0.875,93.509584884449));
#341 = CARTESIAN_POINT('',(23.18349358919,-0.875,93.290418566975));
#342 = CARTESIAN_POINT('',(23.184097851877,-0.858989277099,
    93.180616787117));
#343 = CARTESIAN_POINT('',(23.185310911072,-0.826851479922,
    93.072658311253));
#344 = CARTESIAN_POINT('',(23.187068231585,-0.778435290648,
    92.968746103869));
#345 = CARTESIAN_POINT('',(23.189230310483,-0.713694600712,
    92.871375258907));
#346 = CARTESIAN_POINT('',(23.191569962205,-0.632767644158,
    92.783447247765));
#347 = CARTESIAN_POINT('',(23.195231955295,-0.474392592949,
    92.660598965481));
#348 = CARTESIAN_POINT('',(23.196623621666,-0.40586142412,
    92.617796727939));
#349 = CARTESIAN_POINT('',(23.197884420075,-0.331453769687,
    92.581765654948));
#350 = CARTESIAN_POINT('',(23.19891563195,-0.252267273965,
    92.553746115449));
#351 = CARTESIAN_POINT('',(23.199636449735,-0.169635764114,
    92.534641381432));
#352 = CARTESIAN_POINT('',(23.2,-8.50347098354E-02,92.525));
#353 = CARTESIAN_POINT('',(23.2,-1.33226762955E-15,92.525));
#354 = PCURVE('',#133,#355);
#355 = DEFINITIONAL_REPRESENTATION('',(#356),#383);
#356 = B_SPLINE_CURVE_WITH_KNOTS('',7,(#357,#358,#359,#360,#361,#362,
    #363,#364,#365,#366,#367,#368,#369,#370,#371,#372,#373,#374,#375,
    #376,#377,#378,#379,#380,#381,#382),.UNSPECIFIED.,.F.,.F.,(8,6,6,6,8
    ),(0.,0.19543984534,0.500014813723,0.804580189386,1.),
  .UNSPECIFIED.);
#357 = CARTESIAN_POINT('',(-6.28318530718,-79.275));
#358 = CARTESIAN_POINT('',(-6.279519602366,-79.275));
#359 = CARTESIAN_POINT('',(-6.275872972426,-79.26535643439));
#360 = CARTESIAN_POINT('',(-6.272311384971,-79.24625096062));
#361 = CARTESIAN_POINT('',(-6.268898195129,-79.21823314299));
#362 = CARTESIAN_POINT('',(-6.265690720711,-79.18220513775));
#363 = CARTESIAN_POINT('',(-6.262736201328,-79.13940457478));
#364 = CARTESIAN_POINT('',(-6.255907657833,-79.01655254952));
#365 = CARTESIAN_POINT('',(-6.252417987276,-78.92862366671));
#366 = CARTESIAN_POINT('',(-6.249625941843,-78.83125238852));
#367 = CARTESIAN_POINT('',(-6.247537715913,-78.72734163446));
#368 = CARTESIAN_POINT('',(-6.246151495121,-78.61938562005));
#369 = CARTESIAN_POINT('',(-6.245460842739,-78.50958488444));
#370 = CARTESIAN_POINT('',(-6.245460842739,-78.29041856697));
#371 = CARTESIAN_POINT('',(-6.246151451535,-78.18061678711));
#372 = CARTESIAN_POINT('',(-6.247537687323,-78.07265831125));
#373 = CARTESIAN_POINT('',(-6.249625965449,-77.96874610386));
#374 = CARTESIAN_POINT('',(-6.252418039241,-77.8713752589));
#375 = CARTESIAN_POINT('',(-6.2559076691,-77.78344724776));
#376 = CARTESIAN_POINT('',(-6.262736004548,-77.66059896548));
#377 = CARTESIAN_POINT('',(-6.265690531679,-77.61779672793));
#378 = CARTESIAN_POINT('',(-6.268898188052,-77.58176565494));
#379 = CARTESIAN_POINT('',(-6.27231163778,-77.55374611544));
#380 = CARTESIAN_POINT('',(-6.275873420662,-77.53464138143));
#381 = CARTESIAN_POINT('',(-6.279520017963,-77.525));
#382 = CARTESIAN_POINT('',(-6.28318530718,-77.525));
#383 = ( GEOMETRIC_REPRESENTATION_CONTEXT(2) 
PARAMETRIC_REPRESENTATION_CONTEXT() REPRESENTATION_CONTEXT('2D SPACE',''
  ) );
#384 = PCURVE('',#200,#385);
#385 = DEFINITIONAL_REPRESENTATION('',(#386),#413);
#386 = B_SPLINE_CURVE_WITH_KNOTS('',7,(#387,#388,#389,#390,#391,#392,
    #393,#394,#395,#396,#397,#398,#399,#400,#401,#402,#403,#404,#405,
    #406,#407,#408,#409,#410,#411,#412),.UNSPECIFIED.,.F.,.F.,(8,6,6,6,8
    ),(0.,0.19543984534,0.500014813723,0.804580189386,1.),
  .UNSPECIFIED.);
#387 = CARTESIAN_POINT('',(-1.570796326795,-0.4));
#388 = CARTESIAN_POINT('',(-1.667989871578,-0.4));
#389 = CARTESIAN_POINT('',(-1.764677327999,-0.399636367949));
#390 = CARTESIAN_POINT('',(-1.860609029479,-0.398915522791));
#391 = CARTESIAN_POINT('',(-1.955527605031,-0.397884383579));
#392 = CARTESIAN_POINT('',(-2.049126493228,-0.396623696162));
#393 = CARTESIAN_POINT('',(-2.140992269112,-0.395232060827));
#394 = CARTESIAN_POINT('',(-2.370068299075,-0.391569956162));
#395 = CARTESIAN_POINT('',(-2.504740474046,-0.389230279682));
#396 = CARTESIAN_POINT('',(-2.635843342513,-0.387068201583));
#397 = CARTESIAN_POINT('',(-2.764278459921,-0.385310935857));
#398 = CARTESIAN_POINT('',(-2.890866494913,-0.384097890275));
#399 = CARTESIAN_POINT('',(-3.016352785648,-0.38349358919));
#400 = CARTESIAN_POINT('',(-3.266828577047,-0.38349358919));
#401 = CARTESIAN_POINT('',(-3.392316048408,-0.384097851877));
#402 = CARTESIAN_POINT('',(-3.518906647598,-0.385310911072));
#403 = CARTESIAN_POINT('',(-3.647343575797,-0.387068231585));
#404 = CARTESIAN_POINT('',(-3.778446669669,-0.389230310483));
#405 = CARTESIAN_POINT('',(-3.913117386095,-0.391569962205));
#406 = CARTESIAN_POINT('',(-4.14218643671,-0.395231955295));
#407 = CARTESIAN_POINT('',(-4.234053540026,-0.396623621666));
#408 = CARTESIAN_POINT('',(-4.327658144763,-0.397884420075));
#409 = CARTESIAN_POINT('',(-4.422583488584,-0.39891563195));
#410 = CARTESIAN_POINT('',(-4.51851985924,-0.399636449735));
#411 = CARTESIAN_POINT('',(-4.615206454859,-0.4));
#412 = CARTESIAN_POINT('',(-4.712388980385,-0.4));
#413 = ( GEOMETRIC_REPRESENTATION_CONTEXT(2) 
PARAMETRIC_REPRESENTATION_CONTEXT() REPRESENTATION_CONTEXT('2D SPACE',''
  ) );
#414 = ORIENTED_EDGE('',*,*,#149,.F.);
#415 = ADVANCED_FACE('',(#416),#200,.T.);
#416 = FACE_BOUND('',#417,.F.);
#417 = EDGE_LOOP('',(#418,#419,#442,#469,#470,#471));
#418 = ORIENTED_EDGE('',*,*,#218,.F.);
#419 = ORIENTED_EDGE('',*,*,#420,.T.);
#420 = EDGE_CURVE('',#173,#421,#423,.T.);
#421 = VERTEX_POINT('',#422);
#422 = CARTESIAN_POINT('',(24.55,0.875,93.4));
#423 = SEAM_CURVE('',#424,(#428,#435),.PCURVE_S1.);
#424 = LINE('',#425,#426);
#425 = CARTESIAN_POINT('',(22.8,0.875,93.4));
#426 = VECTOR('',#427,1.);
#427 = DIRECTION('',(1.,0.,0.));
#428 = PCURVE('',#200,#429);
#429 = DEFINITIONAL_REPRESENTATION('',(#430),#434);
#430 = LINE('',#431,#432);
#431 = CARTESIAN_POINT('',(-6.28318530718,0.));
#432 = VECTOR('',#433,1.);
#433 = DIRECTION('',(-0.,-1.));
#434 = ( GEOMETRIC_REPRESENTATION_CONTEXT(2) 
PARAMETRIC_REPRESENTATION_CONTEXT() REPRESENTATION_CONTEXT('2D SPACE',''
  ) );
#435 = PCURVE('',#200,#436);
#436 = DEFINITIONAL_REPRESENTATION('',(#437),#441);
#437 = LINE('',#438,#439);
#438 = CARTESIAN_POINT('',(-0.,0.));
#439 = VECTOR('',#440,1.);
#440 = DIRECTION('',(-0.,-1.));
#441 = ( GEOMETRIC_REPRESENTATION_CONTEXT(2) 
PARAMETRIC_REPRESENTATION_CONTEXT() REPRESENTATION_CONTEXT('2D SPACE',''
  ) );
#442 = ORIENTED_EDGE('',*,*,#443,.T.);
#443 = EDGE_CURVE('',#421,#421,#444,.T.);
#444 = SURFACE_CURVE('',#445,(#450,#457),.PCURVE_S1.);
#445 = CIRCLE('',#446,0.875);
#446 = AXIS2_PLACEMENT_3D('',#447,#448,#449);
#447 = CARTESIAN_POINT('',(24.55,0.,93.4));
#448 = DIRECTION('',(1.,0.,0.));
#449 = DIRECTION('',(0.,1.,0.));
#450 = PCURVE('',#200,#451);
#451 = DEFINITIONAL_REPRESENTATION('',(#452),#456);
#452 = LINE('',#453,#454);
#453 = CARTESIAN_POINT('',(-0.,-1.75));
#454 = VECTOR('',#455,1.);
#455 = DIRECTION('',(-1.,0.));
#456 = ( GEOMETRIC_REPRESENTATION_CONTEXT(2) 
PARAMETRIC_REPRESENTATION_CONTEXT() REPRESENTATION_CONTEXT('2D SPACE',''
  ) );
#457 = PCURVE('',#458,#463);
#458 = PLANE('',#459);
#459 = AXIS2_PLACEMENT_3D('',#460,#461,#462);
#460 = CARTESIAN_POINT('',(24.55,2.930228855442E-16,93.4));
#461 = DIRECTION('',(1.,0.,0.));
#462 = DIRECTION('',(0.,0.,1.));
#463 = DEFINITIONAL_REPRESENTATION('',(#464),#468);
#464 = CIRCLE('',#465,0.875);
#465 = AXIS2_PLACEMENT_2D('',#466,#467);
#466 = CARTESIAN_POINT('',(0.,2.930228855442E-16));
#467 = DIRECTION('',(0.,-1.));
#468 = ( GEOMETRIC_REPRESENTATION_CONTEXT(2) 
PARAMETRIC_REPRESENTATION_CONTEXT() REPRESENTATION_CONTEXT('2D SPACE',''
  ) );
#469 = ORIENTED_EDGE('',*,*,#420,.F.);
#470 = ORIENTED_EDGE('',*,*,#172,.F.);
#471 = ORIENTED_EDGE('',*,*,#325,.F.);
#472 = ADVANCED_FACE('',(#473,#476),#312,.T.);
#473 = FACE_BOUND('',#474,.T.);
#474 = EDGE_LOOP('',(#475));
#475 = ORIENTED_EDGE('',*,*,#297,.T.);
#476 = FACE_BOUND('',#477,.T.);
#477 = EDGE_LOOP('',(#478));
#478 = ORIENTED_EDGE('',*,*,#479,.T.);
#479 = EDGE_CURVE('',#480,#480,#482,.T.);
#480 = VERTEX_POINT('',#481);
#481 = CARTESIAN_POINT('',(20.,0.,97.4));
#482 = SURFACE_CURVE('',#483,(#488,#499),.PCURVE_S1.);
#483 = CIRCLE('',#484,20.);
#484 = AXIS2_PLACEMENT_3D('',#485,#486,#487);
#485 = CARTESIAN_POINT('',(0.,0.,97.4));
#486 = DIRECTION('',(0.,0.,-1.));
#487 = DIRECTION('',(1.,0.,0.));
#488 = PCURVE('',#312,#489);
#489 = DEFINITIONAL_REPRESENTATION('',(#490),#498);
#490 = ( BOUNDED_CURVE() B_SPLINE_CURVE(2,(#491,#492,#493,#494,#495,#496
,#497),.UNSPECIFIED.,.T.,.F.) B_SPLINE_CURVE_WITH_KNOTS((1,2,2,2,2,1),(
    -2.094395102393,0.,2.094395102393,4.188790204786,6.28318530718,
8.377580409573),.UNSPECIFIED.) CURVE() GEOMETRIC_REPRESENTATION_ITEM() 
RATIONAL_B_SPLINE_CURVE((1.,0.5,1.,0.5,1.,0.5,1.)) REPRESENTATION_ITEM(
  '') );
#491 = CARTESIAN_POINT('',(20.,-9.390641294034E-16));
#492 = CARTESIAN_POINT('',(20.,-34.64101615137));
#493 = CARTESIAN_POINT('',(-10.,-17.32050807568));
#494 = CARTESIAN_POINT('',(-40.,-5.837651325993E-15));
#495 = CARTESIAN_POINT('',(-10.,17.320508075689));
#496 = CARTESIAN_POINT('',(20.,34.641016151378));
#497 = CARTESIAN_POINT('',(20.,-9.390641294034E-16));
#498 = ( GEOMETRIC_REPRESENTATION_CONTEXT(2) 
PARAMETRIC_REPRESENTATION_CONTEXT() REPRESENTATION_CONTEXT('2D SPACE',''
  ) );
#499 = PCURVE('',#500,#505);
#500 = CYLINDRICAL_SURFACE('',#501,20.);
#501 = AXIS2_PLACEMENT_3D('',#502,#503,#504);
#502 = CARTESIAN_POINT('',(0.,0.,17.4));
#503 = DIRECTION('',(-0.,-0.,-1.));
#504 = DIRECTION('',(1.,0.,0.));
#505 = DEFINITIONAL_REPRESENTATION('',(#506),#510);
#506 = LINE('',#507,#508);
#507 = CARTESIAN_POINT('',(-6.28318530718,-80.));
#508 = VECTOR('',#509,1.);
#509 = DIRECTION('',(1.,-0.));
#510 = ( GEOMETRIC_REPRESENTATION_CONTEXT(2) 
PARAMETRIC_REPRESENTATION_CONTEXT() REPRESENTATION_CONTEXT('2D SPACE',''
  ) );
#511 = ADVANCED_FACE('',(#512),#458,.T.);
#512 = FACE_BOUND('',#513,.T.);
#513 = EDGE_LOOP('',(#514));
#514 = ORIENTED_EDGE('',*,*,#443,.T.);
#515 = ADVANCED_FACE('',(#516),#500,.F.);
#516 = FACE_BOUND('',#517,.T.);
#517 = EDGE_LOOP('',(#518,#547,#568,#569));
#518 = ORIENTED_EDGE('',*,*,#519,.F.);
#519 = EDGE_CURVE('',#520,#520,#522,.T.);
#520 = VERTEX_POINT('',#521);
#521 = CARTESIAN_POINT('',(20.,0.,17.4));
#522 = SURFACE_CURVE('',#523,(#528,#535),.PCURVE_S1.);
#523 = CIRCLE('',#524,20.);
#524 = AXIS2_PLACEMENT_3D('',#525,#526,#527);
#525 = CARTESIAN_POINT('',(0.,0.,17.4));
#526 = DIRECTION('',(0.,0.,1.));
#527 = DIRECTION('',(1.,0.,0.));
#528 = PCURVE('',#500,#529);
#529 = DEFINITIONAL_REPRESENTATION('',(#530),#534);
#530 = LINE('',#531,#532);
#531 = CARTESIAN_POINT('',(-0.,0.));
#532 = VECTOR('',#533,1.);
#533 = DIRECTION('',(-1.,0.));
#534 = ( GEOMETRIC_REPRESENTATION_CONTEXT(2) 
PARAMETRIC_REPRESENTATION_CONTEXT() REPRESENTATION_CONTEXT('2D SPACE',''
  ) );
#535 = PCURVE('',#536,#541);
#536 = PLANE('',#537);
#537 = AXIS2_PLACEMENT_3D('',#538,#539,#540);
#538 = CARTESIAN_POINT('',(-1.093952106032E-15,1.371473012632E-15,17.4)
  );
#539 = DIRECTION('',(0.,0.,1.));
#540 = DIRECTION('',(1.,0.,-0.));
#541 = DEFINITIONAL_REPRESENTATION('',(#542),#546);
#542 = CIRCLE('',#543,20.);
#543 = AXIS2_PLACEMENT_2D('',#544,#545);
#544 = CARTESIAN_POINT('',(1.093952106032E-15,-1.371473012632E-15));
#545 = DIRECTION('',(1.,0.));
#546 = ( GEOMETRIC_REPRESENTATION_CONTEXT(2) 
PARAMETRIC_REPRESENTATION_CONTEXT() REPRESENTATION_CONTEXT('2D SPACE',''
  ) );
#547 = ORIENTED_EDGE('',*,*,#548,.T.);
#548 = EDGE_CURVE('',#520,#480,#549,.T.);
#549 = SEAM_CURVE('',#550,(#554,#561),.PCURVE_S1.);
#550 = LINE('',#551,#552);
#551 = CARTESIAN_POINT('',(20.,0.,17.4));
#552 = VECTOR('',#553,1.);
#553 = DIRECTION('',(0.,0.,1.));
#554 = PCURVE('',#500,#555);
#555 = DEFINITIONAL_REPRESENTATION('',(#556),#560);
#556 = LINE('',#557,#558);
#557 = CARTESIAN_POINT('',(-6.28318530718,0.));
#558 = VECTOR('',#559,1.);
#559 = DIRECTION('',(-0.,-1.));
#560 = ( GEOMETRIC_REPRESENTATION_CONTEXT(2) 
PARAMETRIC_REPRESENTATION_CONTEXT() REPRESENTATION_CONTEXT('2D SPACE',''
  ) );
#561 = PCURVE('',#500,#562);
#562 = DEFINITIONAL_REPRESENTATION('',(#563),#567);
#563 = LINE('',#564,#565);
#564 = CARTESIAN_POINT('',(-0.,0.));
#565 = VECTOR('',#566,1.);
#566 = DIRECTION('',(-0.,-1.));
#567 = ( GEOMETRIC_REPRESENTATION_CONTEXT(2) 
PARAMETRIC_REPRESENTATION_CONTEXT() REPRESENTATION_CONTEXT('2D SPACE',''
  ) );
#568 = ORIENTED_EDGE('',*,*,#479,.F.);
#569 = ORIENTED_EDGE('',*,*,#548,.F.);
#570 = ADVANCED_FACE('',(#571),#536,.T.);
#571 = FACE_BOUND('',#572,.T.);
#572 = EDGE_LOOP('',(#573));
#573 = ORIENTED_EDGE('',*,*,#519,.T.);
#574 = ( GEOMETRIC_REPRESENTATION_CONTEXT(3) 
GLOBAL_UNCERTAINTY_ASSIGNED_CONTEXT((#578)) GLOBAL_UNIT_ASSIGNED_CONTEXT
((#575,#576,#577)) REPRESENTATION_CONTEXT('Context #1',
  '3D Context with UNIT and UNCERTAINTY') );
#575 = ( LENGTH_UNIT() NAMED_UNIT(*) SI_UNIT(.MILLI.,.METRE.) );
#576 = ( NAMED_UNIT(*) PLANE_ANGLE_UNIT() SI_UNIT($,.RADIAN.) );
#577 = ( NAMED_UNIT(*) SI_UNIT($,.STERADIAN.) SOLID_ANGLE_UNIT() );
#578 = UNCERTAINTY_MEASURE_WITH_UNIT(LENGTH_MEASURE(1.E-07),#575,
  'distance_accuracy_value','confusion accuracy');
#579 = PRODUCT_RELATED_PRODUCT_CATEGORY('part',$,(#7));
ENDSEC;
END-ISO-10303-21;
