ISO-10303-21;
HEADER;
FILE_DESCRIPTION(('Open CASCADE Model'),'2;1');
FILE_NAME('Open CASCADE Shape Model','2026-08-06T23:38:07',('Author'),(
    'Open CASCADE'),'Open CASCADE STEP processor 7.9','Open CASCADE 7.9'
  ,'Unknown');
FILE_SCHEMA(('AUTOMOTIVE_DESIGN { 1 0 10303 214 1 1 1 1 }'));
ENDSEC;
DATA;
#1 = APPLICATION_PROTOCOL_DEFINITION('international standard',
  'automotive_design',2000,#2);
#2 = APPLICATION_CONTEXT(
  'core data for automotive mechanical design processes');
#3 = SHAPE_DEFINITION_REPRESENTATION(#4,#10);
#4 = PRODUCT_DEFINITION_SHAPE('','',#5);
#5 = PRODUCT_DEFINITION('design','',#6,#9);
#6 = PRODUCT_DEFINITION_FORMATION('','',#7);
#7 = PRODUCT('Open CASCADE STEP translator 7.9 2',
  'Open CASCADE STEP translator 7.9 2','',(#8));
#8 = PRODUCT_CONTEXT('',#2,'mechanical');
#9 = PRODUCT_DEFINITION_CONTEXT('part definition',#2,'design');
#10 = ADVANCED_BREP_SHAPE_REPRESENTATION('',(#11,#15),#502);
#11 = AXIS2_PLACEMENT_3D('',#12,#13,#14);
#12 = CARTESIAN_POINT('',(0.,0.,0.));
#13 = DIRECTION('',(0.,0.,1.));
#14 = DIRECTION('',(1.,0.,-0.));
#15 = MANIFOLD_SOLID_BREP('',#16);
#16 = CLOSED_SHELL('',(#17,#105,#144,#148,#437,#494,#498));
#17 = ADVANCED_FACE('',(#18),#32,.T.);
#18 = FACE_BOUND('',#19,.F.);
#19 = EDGE_LOOP('',(#20,#50,#77,#78));
#20 = ORIENTED_EDGE('',*,*,#21,.T.);
#21 = EDGE_CURVE('',#22,#24,#26,.T.);
#22 = VERTEX_POINT('',#23);
#23 = CARTESIAN_POINT('',(34.25,0.,115.3));
#24 = VERTEX_POINT('',#25);
#25 = CARTESIAN_POINT('',(34.25,-1.412017759417E-14,0.));
#26 = SEAM_CURVE('',#27,(#31,#43),.PCURVE_S1.);
#27 = LINE('',#28,#29);
#28 = CARTESIAN_POINT('',(34.25,0.,115.3));
#29 = VECTOR('',#30,1.);
#30 = DIRECTION('',(0.,-1.224646799147E-16,-1.));
#31 = PCURVE('',#32,#37);
#32 = CYLINDRICAL_SURFACE('',#33,34.25);
#33 = AXIS2_PLACEMENT_3D('',#34,#35,#36);
#34 = CARTESIAN_POINT('',(0.,0.,115.3));
#35 = DIRECTION('',(-0.,1.224646799147E-16,1.));
#36 = DIRECTION('',(1.,0.,0.));
#37 = DEFINITIONAL_REPRESENTATION('',(#38),#42);
#38 = LINE('',#39,#40);
#39 = CARTESIAN_POINT('',(-0.,0.));
#40 = VECTOR('',#41,1.);
#41 = DIRECTION('',(-0.,-1.));
#42 = ( GEOMETRIC_REPRESENTATION_CONTEXT(2) 
PARAMETRIC_REPRESENTATION_CONTEXT() REPRESENTATION_CONTEXT('2D SPACE',''
  ) );
#43 = PCURVE('',#32,#44);
#44 = DEFINITIONAL_REPRESENTATION('',(#45),#49);
#45 = LINE('',#46,#47);
#46 = CARTESIAN_POINT('',(-6.28318530718,0.));
#47 = VECTOR('',#48,1.);
#48 = DIRECTION('',(-0.,-1.));
#49 = ( GEOMETRIC_REPRESENTATION_CONTEXT(2) 
PARAMETRIC_REPRESENTATION_CONTEXT() REPRESENTATION_CONTEXT('2D SPACE',''
  ) );
#50 = ORIENTED_EDGE('',*,*,#51,.T.);
#51 = EDGE_CURVE('',#24,#24,#52,.T.);
#52 = SURFACE_CURVE('',#53,(#58,#65),.PCURVE_S1.);
#53 = CIRCLE('',#54,34.25);
#54 = AXIS2_PLACEMENT_3D('',#55,#56,#57);
#55 = CARTESIAN_POINT('',(0.,-1.412017759417E-14,0.));
#56 = DIRECTION('',(0.,-1.224646799147E-16,-1.));
#57 = DIRECTION('',(1.,0.,0.));
#58 = PCURVE('',#32,#59);
#59 = DEFINITIONAL_REPRESENTATION('',(#60),#64);
#60 = LINE('',#61,#62);
#61 = CARTESIAN_POINT('',(-0.,-115.3));
#62 = VECTOR('',#63,1.);
#63 = DIRECTION('',(-1.,0.));
#64 = ( GEOMETRIC_REPRESENTATION_CONTEXT(2) 
PARAMETRIC_REPRESENTATION_CONTEXT() REPRESENTATION_CONTEXT('2D SPACE',''
  ) );
#65 = PCURVE('',#66,#71);
#66 = PLANE('',#67);
#67 = AXIS2_PLACEMENT_3D('',#68,#69,#70);
#68 = CARTESIAN_POINT('',(-1.916412448522E-15,-1.655486406219E-14,0.));
#69 = DIRECTION('',(0.,-1.224646799147E-16,-1.));
#70 = DIRECTION('',(1.,0.,0.));
#71 = DEFINITIONAL_REPRESENTATION('',(#72),#76);
#72 = CIRCLE('',#73,34.25);
#73 = AXIS2_PLACEMENT_2D('',#74,#75);
#74 = CARTESIAN_POINT('',(1.916412448522E-15,-2.434686468018E-15));
#75 = DIRECTION('',(1.,0.));
#76 = ( GEOMETRIC_REPRESENTATION_CONTEXT(2) 
PARAMETRIC_REPRESENTATION_CONTEXT() REPRESENTATION_CONTEXT('2D SPACE',''
  ) );
#77 = ORIENTED_EDGE('',*,*,#21,.F.);
#78 = ORIENTED_EDGE('',*,*,#79,.F.);
#79 = EDGE_CURVE('',#22,#22,#80,.T.);
#80 = SURFACE_CURVE('',#81,(#86,#93),.PCURVE_S1.);
#81 = CIRCLE('',#82,34.25);
#82 = AXIS2_PLACEMENT_3D('',#83,#84,#85);
#83 = CARTESIAN_POINT('',(0.,0.,115.3));
#84 = DIRECTION('',(0.,-1.224646799147E-16,-1.));
#85 = DIRECTION('',(1.,0.,0.));
#86 = PCURVE('',#32,#87);
#87 = DEFINITIONAL_REPRESENTATION('',(#88),#92);
#88 = LINE('',#89,#90);
#89 = CARTESIAN_POINT('',(-0.,0.));
#90 = VECTOR('',#91,1.);
#91 = DIRECTION('',(-1.,0.));
#92 = ( GEOMETRIC_REPRESENTATION_CONTEXT(2) 
PARAMETRIC_REPRESENTATION_CONTEXT() REPRESENTATION_CONTEXT('2D SPACE',''
  ) );
#93 = PCURVE('',#94,#99);
#94 = PLANE('',#95);
#95 = AXIS2_PLACEMENT_3D('',#96,#97,#98);
#96 = CARTESIAN_POINT('',(-1.916412448522E-15,-2.434686468018E-15,115.3)
  );
#97 = DIRECTION('',(0.,-1.224646799147E-16,-1.));
#98 = DIRECTION('',(1.,0.,0.));
#99 = DEFINITIONAL_REPRESENTATION('',(#100),#104);
#100 = CIRCLE('',#101,34.25);
#101 = AXIS2_PLACEMENT_2D('',#102,#103);
#102 = CARTESIAN_POINT('',(1.916412448522E-15,-2.434686468018E-15));
#103 = DIRECTION('',(1.,0.));
#104 = ( GEOMETRIC_REPRESENTATION_CONTEXT(2) 
PARAMETRIC_REPRESENTATION_CONTEXT() REPRESENTATION_CONTEXT('2D SPACE',''
  ) );
#105 = ADVANCED_FACE('',(#106,#109),#94,.F.);
#106 = FACE_BOUND('',#107,.F.);
#107 = EDGE_LOOP('',(#108));
#108 = ORIENTED_EDGE('',*,*,#79,.T.);
#109 = FACE_BOUND('',#110,.F.);
#110 = EDGE_LOOP('',(#111));
#111 = ORIENTED_EDGE('',*,*,#112,.T.);
#112 = EDGE_CURVE('',#113,#113,#115,.T.);
#113 = VERTEX_POINT('',#114);
#114 = CARTESIAN_POINT('',(31.05,0.,115.3));
#115 = SURFACE_CURVE('',#116,(#121,#132),.PCURVE_S1.);
#116 = CIRCLE('',#117,31.05);
#117 = AXIS2_PLACEMENT_3D('',#118,#119,#120);
#118 = CARTESIAN_POINT('',(0.,0.,115.3));
#119 = DIRECTION('',(-0.,1.224646799147E-16,1.));
#120 = DIRECTION('',(1.,0.,0.));
#121 = PCURVE('',#94,#122);
#122 = DEFINITIONAL_REPRESENTATION('',(#123),#131);
#123 = ( BOUNDED_CURVE() B_SPLINE_CURVE(2,(#124,#125,#126,#127,#128,#129
,#130),.UNSPECIFIED.,.T.,.F.) B_SPLINE_CURVE_WITH_KNOTS((1,2,2,2,2,1),(
    -2.094395102393,0.,2.094395102393,4.188790204786,6.28318530718,
8.377580409573),.UNSPECIFIED.) CURVE() GEOMETRIC_REPRESENTATION_ITEM() 
RATIONAL_B_SPLINE_CURVE((1.,0.5,1.,0.5,1.,0.5,1.)) REPRESENTATION_ITEM(
  '') );
#124 = CARTESIAN_POINT('',(31.05,-2.434686468018E-15));
#125 = CARTESIAN_POINT('',(31.05,-53.78017757501));
#126 = CARTESIAN_POINT('',(-15.525,-26.8900887875));
#127 = CARTESIAN_POINT('',(-62.1,-1.003974309072E-14));
#128 = CARTESIAN_POINT('',(-15.525,26.890088787507));
#129 = CARTESIAN_POINT('',(31.05,53.780177575014));
#130 = CARTESIAN_POINT('',(31.05,-2.434686468018E-15));
#131 = ( GEOMETRIC_REPRESENTATION_CONTEXT(2) 
PARAMETRIC_REPRESENTATION_CONTEXT() REPRESENTATION_CONTEXT('2D SPACE',''
  ) );
#132 = PCURVE('',#133,#138);
#133 = CYLINDRICAL_SURFACE('',#134,31.05);
#134 = AXIS2_PLACEMENT_3D('',#135,#136,#137);
#135 = CARTESIAN_POINT('',(0.,6.123233995737E-18,115.35));
#136 = DIRECTION('',(-0.,1.224646799147E-16,1.));
#137 = DIRECTION('',(1.,0.,0.));
#138 = DEFINITIONAL_REPRESENTATION('',(#139),#143);
#139 = LINE('',#140,#141);
#140 = CARTESIAN_POINT('',(-6.28318530718,-5.E-02));
#141 = VECTOR('',#142,1.);
#142 = DIRECTION('',(1.,-0.));
#143 = ( GEOMETRIC_REPRESENTATION_CONTEXT(2) 
PARAMETRIC_REPRESENTATION_CONTEXT() REPRESENTATION_CONTEXT('2D SPACE',''
  ) );
#144 = ADVANCED_FACE('',(#145),#66,.T.);
#145 = FACE_BOUND('',#146,.T.);
#146 = EDGE_LOOP('',(#147));
#147 = ORIENTED_EDGE('',*,*,#51,.T.);
#148 = ADVANCED_FACE('',(#149),#133,.F.);
#149 = FACE_BOUND('',#150,.T.);
#150 = EDGE_LOOP('',(#151,#174,#175,#176,#222,#278,#301,#328,#329));
#151 = ORIENTED_EDGE('',*,*,#152,.F.);
#152 = EDGE_CURVE('',#113,#153,#155,.T.);
#153 = VERTEX_POINT('',#154);
#154 = CARTESIAN_POINT('',(31.05,-6.766173565289E-16,109.775));
#155 = SEAM_CURVE('',#156,(#160,#167),.PCURVE_S1.);
#156 = LINE('',#157,#158);
#157 = CARTESIAN_POINT('',(31.05,6.123233995737E-18,115.35));
#158 = VECTOR('',#159,1.);
#159 = DIRECTION('',(0.,-1.224646799147E-16,-1.));
#160 = PCURVE('',#133,#161);
#161 = DEFINITIONAL_REPRESENTATION('',(#162),#166);
#162 = LINE('',#163,#164);
#163 = CARTESIAN_POINT('',(-6.28318530718,0.));
#164 = VECTOR('',#165,1.);
#165 = DIRECTION('',(-0.,-1.));
#166 = ( GEOMETRIC_REPRESENTATION_CONTEXT(2) 
PARAMETRIC_REPRESENTATION_CONTEXT() REPRESENTATION_CONTEXT('2D SPACE',''
  ) );
#167 = PCURVE('',#133,#168);
#168 = DEFINITIONAL_REPRESENTATION('',(#169),#173);
#169 = LINE('',#170,#171);
#170 = CARTESIAN_POINT('',(-0.,0.));
#171 = VECTOR('',#172,1.);
#172 = DIRECTION('',(-0.,-1.));
#173 = ( GEOMETRIC_REPRESENTATION_CONTEXT(2) 
PARAMETRIC_REPRESENTATION_CONTEXT() REPRESENTATION_CONTEXT('2D SPACE',''
  ) );
#174 = ORIENTED_EDGE('',*,*,#112,.T.);
#175 = ORIENTED_EDGE('',*,*,#152,.T.);
#176 = ORIENTED_EDGE('',*,*,#177,.T.);
#177 = EDGE_CURVE('',#153,#178,#180,.T.);
#178 = VERTEX_POINT('',#179);
#179 = CARTESIAN_POINT('',(31.03766864634,-0.875,108.9));
#180 = SURFACE_CURVE('',#181,(#191,#204),.PCURVE_S1.);
#181 = B_SPLINE_CURVE_WITH_KNOTS('',8,(#182,#183,#184,#185,#186,#187,
    #188,#189,#190),.UNSPECIFIED.,.F.,.F.,(9,9),(0.,1.),
  .PIECEWISE_BEZIER_KNOTS.);
#182 = CARTESIAN_POINT('',(31.05,-2.927718262048E-15,109.775));
#183 = CARTESIAN_POINT('',(31.05,-0.194525130094,109.775));
#184 = CARTESIAN_POINT('',(31.048607353481,-0.379617338548,
    109.72557667253));
#185 = CARTESIAN_POINT('',(31.046057374249,-0.543024546137,
    109.63511397007));
#186 = CARTESIAN_POINT('',(31.043065709487,-0.677141892005,
    109.51325815681));
#187 = CARTESIAN_POINT('',(31.040410407762,-0.777763871605,
    109.36994528563));
#188 = CARTESIAN_POINT('',(31.038557330956,-0.843473197391,
    109.21445908268));
#189 = CARTESIAN_POINT('',(31.03766864634,-0.875,109.05536556517));
#190 = CARTESIAN_POINT('',(31.03766864634,-0.875,108.9));
#191 = PCURVE('',#133,#192);
#192 = DEFINITIONAL_REPRESENTATION('',(#193),#203);
#193 = B_SPLINE_CURVE_WITH_KNOTS('',8,(#194,#195,#196,#197,#198,#199,
    #200,#201,#202),.UNSPECIFIED.,.F.,.F.,(9,9),(0.,1.),
  .PIECEWISE_BEZIER_KNOTS.);
#194 = CARTESIAN_POINT('',(0.,-5.575));
#195 = CARTESIAN_POINT('',(-6.264899519933E-03,-5.575));
#196 = CARTESIAN_POINT('',(-1.222600194669E-02,-5.624423327467));
#197 = CARTESIAN_POINT('',(-1.748908406455E-02,-5.714886029923));
#198 = CARTESIAN_POINT('',(-2.18094707363E-02,-5.83674184319));
#199 = CARTESIAN_POINT('',(-2.505124481124E-02,-5.980054714367));
#200 = CARTESIAN_POINT('',(-2.716832562906E-02,-6.135540917313));
#201 = CARTESIAN_POINT('',(-2.818408542273E-02,-6.294634434821));
#202 = CARTESIAN_POINT('',(-2.818408542273E-02,-6.45));
#203 = ( GEOMETRIC_REPRESENTATION_CONTEXT(2) 
PARAMETRIC_REPRESENTATION_CONTEXT() REPRESENTATION_CONTEXT('2D SPACE',''
  ) );
#204 = PCURVE('',#205,#210);
#205 = CYLINDRICAL_SURFACE('',#206,0.875);
#206 = AXIS2_PLACEMENT_3D('',#207,#208,#209);
#207 = CARTESIAN_POINT('',(29.7,-7.837739514543E-16,108.9));
#208 = DIRECTION('',(-1.,0.,0.));
#209 = DIRECTION('',(0.,-1.,1.224646799147E-16));
#210 = DEFINITIONAL_REPRESENTATION('',(#211),#221);
#211 = B_SPLINE_CURVE_WITH_KNOTS('',8,(#212,#213,#214,#215,#216,#217,
    #218,#219,#220),.UNSPECIFIED.,.F.,.F.,(9,9),(0.,1.),
  .PIECEWISE_BEZIER_KNOTS.);
#212 = CARTESIAN_POINT('',(-4.712388980385,-1.35));
#213 = CARTESIAN_POINT('',(-4.934703414778,-1.35));
#214 = CARTESIAN_POINT('',(-5.146239895203,-1.348607353481));
#215 = CARTESIAN_POINT('',(-5.349717583338,-1.346057374249));
#216 = CARTESIAN_POINT('',(-5.546463201807,-1.343065709487));
#217 = CARTESIAN_POINT('',(-5.737580053814,-1.340410407762));
#218 = CARTESIAN_POINT('',(-5.923802379101,-1.338557330956));
#219 = CARTESIAN_POINT('',(-6.105624661261,-1.33766864634));
#220 = CARTESIAN_POINT('',(-6.28318530718,-1.33766864634));
#221 = ( GEOMETRIC_REPRESENTATION_CONTEXT(2) 
PARAMETRIC_REPRESENTATION_CONTEXT() REPRESENTATION_CONTEXT('2D SPACE',''
  ) );
#222 = ORIENTED_EDGE('',*,*,#223,.T.);
#223 = EDGE_CURVE('',#178,#224,#226,.T.);
#224 = VERTEX_POINT('',#225);
#225 = CARTESIAN_POINT('',(31.05,-8.909305463797E-16,108.025));
#226 = SURFACE_CURVE('',#227,(#242,#260),.PCURVE_S1.);
#227 = B_SPLINE_CURVE_WITH_KNOTS('',7,(#228,#229,#230,#231,#232,#233,
    #234,#235,#236,#237,#238,#239,#240,#241),.UNSPECIFIED.,.F.,.F.,(8,6,
    8),(0.,0.609224476184,1.),.UNSPECIFIED.);
#228 = CARTESIAN_POINT('',(31.03766864634,-0.875,108.9));
#229 = CARTESIAN_POINT('',(31.03766864634,-0.875,108.79042592597));
#230 = CARTESIAN_POINT('',(31.038119937758,-0.858991428228,
    108.68063063631));
#231 = CARTESIAN_POINT('',(31.039025920977,-0.826857478598,
    108.57267603397));
#232 = CARTESIAN_POINT('',(31.040338479487,-0.778445242721,
    108.46876395387));
#233 = CARTESIAN_POINT('',(31.041953568896,-0.713706461488,
    108.37138931025));
#234 = CARTESIAN_POINT('',(31.04370153724,-0.632776949229,
    108.28345446551));
#235 = CARTESIAN_POINT('',(31.046437313399,-0.474406297598,
    108.16060959589));
#236 = CARTESIAN_POINT('',(31.047477133685,-0.405873857681,
    108.11780178202));
#237 = CARTESIAN_POINT('',(31.048419375726,-0.331453707717,
    108.08176199778));
#238 = CARTESIAN_POINT('',(31.049190002921,-0.252250758232,
    108.05373820154));
#239 = CARTESIAN_POINT('',(31.049728514497,-0.169608024557,
    108.03463579747));
#240 = CARTESIAN_POINT('',(31.05,-8.501016394232E-02,108.025));
#241 = CARTESIAN_POINT('',(31.05,-1.802032407274E-15,108.025));
#242 = PCURVE('',#133,#243);
#243 = DEFINITIONAL_REPRESENTATION('',(#244),#259);
#244 = B_SPLINE_CURVE_WITH_KNOTS('',7,(#245,#246,#247,#248,#249,#250,
    #251,#252,#253,#254,#255,#256,#257,#258),.UNSPECIFIED.,.F.,.F.,(8,6,
    8),(0.,0.609224476184,1.),.UNSPECIFIED.);
#245 = CARTESIAN_POINT('',(-2.818408542273E-02,-6.45));
#246 = CARTESIAN_POINT('',(-2.818408542273E-02,-6.559574074025));
#247 = CARTESIAN_POINT('',(-2.766830658333E-02,-6.669369363682));
#248 = CARTESIAN_POINT('',(-2.663298575536E-02,-6.777323966023));
#249 = CARTESIAN_POINT('',(-2.507324290237E-02,-6.88123604613));
#250 = CARTESIAN_POINT('',(-2.298762129347E-02,-6.978610689746));
#251 = CARTESIAN_POINT('',(-2.038061230193E-02,-7.066545534482));
#252 = CARTESIAN_POINT('',(-1.52793472626E-02,-7.189390404103));
#253 = CARTESIAN_POINT('',(-1.307193410666E-02,-7.23219821798));
#254 = CARTESIAN_POINT('',(-1.067497052301E-02,-7.268238002219));
#255 = CARTESIAN_POINT('',(-8.124051320049E-03,-7.29626179846));
#256 = CARTESIAN_POINT('',(-5.462416303261E-03,-7.31536420253));
#257 = CARTESIAN_POINT('',(-2.737847469962E-03,-7.325));
#258 = CARTESIAN_POINT('',(0.,-7.325));
#259 = ( GEOMETRIC_REPRESENTATION_CONTEXT(2) 
PARAMETRIC_REPRESENTATION_CONTEXT() REPRESENTATION_CONTEXT('2D SPACE',''
  ) );
#260 = PCURVE('',#205,#261);
#261 = DEFINITIONAL_REPRESENTATION('',(#262),#277);
#262 = B_SPLINE_CURVE_WITH_KNOTS('',7,(#263,#264,#265,#266,#267,#268,
    #269,#270,#271,#272,#273,#274,#275,#276),.UNSPECIFIED.,.F.,.F.,(8,6,
    8),(0.,0.609224476184,1.),.UNSPECIFIED.);
#263 = CARTESIAN_POINT('',(0.,-1.33766864634));
#264 = CARTESIAN_POINT('',(-0.125227513171,-1.33766864634));
#265 = CARTESIAN_POINT('',(-0.25070756613,-1.338119937758));
#266 = CARTESIAN_POINT('',(-0.377293096797,-1.339025920977));
#267 = CARTESIAN_POINT('',(-0.505728153061,-1.340338479487));
#268 = CARTESIAN_POINT('',(-0.63683346197,-1.341953568896));
#269 = CARTESIAN_POINT('',(-0.771511273921,-1.34370153724));
#270 = CARTESIAN_POINT('',(-1.000573961117,-1.346437313399));
#271 = CARTESIAN_POINT('',(-1.092446095564,-1.347477133685));
#272 = CARTESIAN_POINT('',(-1.186067358084,-1.348419375726));
#273 = CARTESIAN_POINT('',(-1.281011009792,-1.349190002921));
#274 = CARTESIAN_POINT('',(-1.376958886075,-1.349728514497));
#275 = CARTESIAN_POINT('',(-1.473641853718,-1.35));
#276 = CARTESIAN_POINT('',(-1.570796326795,-1.35));
#277 = ( GEOMETRIC_REPRESENTATION_CONTEXT(2) 
PARAMETRIC_REPRESENTATION_CONTEXT() REPRESENTATION_CONTEXT('2D SPACE',''
  ) );
#278 = ORIENTED_EDGE('',*,*,#279,.T.);
#279 = EDGE_CURVE('',#224,#280,#282,.T.);
#280 = VERTEX_POINT('',#281);
#281 = CARTESIAN_POINT('',(31.05,-1.382626236237E-14,2.4));
#282 = SEAM_CURVE('',#283,(#287,#294),.PCURVE_S1.);
#283 = LINE('',#284,#285);
#284 = CARTESIAN_POINT('',(31.05,6.123233995737E-18,115.35));
#285 = VECTOR('',#286,1.);
#286 = DIRECTION('',(0.,-1.224646799147E-16,-1.));
#287 = PCURVE('',#133,#288);
#288 = DEFINITIONAL_REPRESENTATION('',(#289),#293);
#289 = LINE('',#290,#291);
#290 = CARTESIAN_POINT('',(-6.28318530718,0.));
#291 = VECTOR('',#292,1.);
#292 = DIRECTION('',(-0.,-1.));
#293 = ( GEOMETRIC_REPRESENTATION_CONTEXT(2) 
PARAMETRIC_REPRESENTATION_CONTEXT() REPRESENTATION_CONTEXT('2D SPACE',''
  ) );
#294 = PCURVE('',#133,#295);
#295 = DEFINITIONAL_REPRESENTATION('',(#296),#300);
#296 = LINE('',#297,#298);
#297 = CARTESIAN_POINT('',(-0.,0.));
#298 = VECTOR('',#299,1.);
#299 = DIRECTION('',(-0.,-1.));
#300 = ( GEOMETRIC_REPRESENTATION_CONTEXT(2) 
PARAMETRIC_REPRESENTATION_CONTEXT() REPRESENTATION_CONTEXT('2D SPACE',''
  ) );
#301 = ORIENTED_EDGE('',*,*,#302,.T.);
#302 = EDGE_CURVE('',#280,#280,#303,.T.);
#303 = SURFACE_CURVE('',#304,(#309,#316),.PCURVE_S1.);
#304 = CIRCLE('',#305,31.05);
#305 = AXIS2_PLACEMENT_3D('',#306,#307,#308);
#306 = CARTESIAN_POINT('',(0.,-1.382626236237E-14,2.4));
#307 = DIRECTION('',(0.,-1.224646799147E-16,-1.));
#308 = DIRECTION('',(1.,0.,0.));
#309 = PCURVE('',#133,#310);
#310 = DEFINITIONAL_REPRESENTATION('',(#311),#315);
#311 = LINE('',#312,#313);
#312 = CARTESIAN_POINT('',(-0.,-112.95));
#313 = VECTOR('',#314,1.);
#314 = DIRECTION('',(-1.,0.));
#315 = ( GEOMETRIC_REPRESENTATION_CONTEXT(2) 
PARAMETRIC_REPRESENTATION_CONTEXT() REPRESENTATION_CONTEXT('2D SPACE',''
  ) );
#316 = PCURVE('',#317,#322);
#317 = PLANE('',#318);
#318 = AXIS2_PLACEMENT_3D('',#319,#320,#321);
#319 = CARTESIAN_POINT('',(-2.113917113104E-15,-1.678658715146E-14,2.4)
  );
#320 = DIRECTION('',(0.,-1.224646799147E-16,-1.));
#321 = DIRECTION('',(1.,0.,0.));
#322 = DEFINITIONAL_REPRESENTATION('',(#323),#327);
#323 = CIRCLE('',#324,31.05);
#324 = AXIS2_PLACEMENT_2D('',#325,#326);
#325 = CARTESIAN_POINT('',(2.113917113104E-15,-2.960324789091E-15));
#326 = DIRECTION('',(1.,0.));
#327 = ( GEOMETRIC_REPRESENTATION_CONTEXT(2) 
PARAMETRIC_REPRESENTATION_CONTEXT() REPRESENTATION_CONTEXT('2D SPACE',''
  ) );
#328 = ORIENTED_EDGE('',*,*,#279,.F.);
#329 = ORIENTED_EDGE('',*,*,#330,.T.);
#330 = EDGE_CURVE('',#224,#153,#331,.T.);
#331 = SURFACE_CURVE('',#332,(#365,#401),.PCURVE_S1.);
#332 = B_SPLINE_CURVE_WITH_KNOTS('',7,(#333,#334,#335,#336,#337,#338,
    #339,#340,#341,#342,#343,#344,#345,#346,#347,#348,#349,#350,#351,
    #352,#353,#354,#355,#356,#357,#358,#359,#360,#361,#362,#363,#364),
  .UNSPECIFIED.,.F.,.F.,(8,6,6,6,6,8),(0.,0.195763380915,0.349168715031,
    0.500418345622,0.804751591591,1.),.UNSPECIFIED.);
#333 = CARTESIAN_POINT('',(31.05,1.995649317646E-15,108.025));
#334 = CARTESIAN_POINT('',(31.05,8.504448358537E-02,108.025));
#335 = CARTESIAN_POINT('',(31.049728300255,0.169647038605,
    108.03464359579));
#336 = CARTESIAN_POINT('',(31.04918968761,0.252274849573,108.05374937801
    ));
#337 = CARTESIAN_POINT('',(31.048419239321,0.331455762947,
    108.08176767879));
#338 = CARTESIAN_POINT('',(31.047477316163,0.405859000367,
    108.11779599627));
#339 = CARTESIAN_POINT('',(31.046437609033,0.474389183707,108.160596321)
  );
#340 = CARTESIAN_POINT('',(31.044530252583,0.584803657099,
    108.24624256573));
#341 = CARTESIAN_POINT('',(31.043670416479,0.629455328548,
    108.28723783331));
#342 = CARTESIAN_POINT('',(31.042816366092,0.670123813324,
    108.33113692977));
#343 = CARTESIAN_POINT('',(31.041993062956,0.706722717992,
    108.37750498795));
#344 = CARTESIAN_POINT('',(31.041222194371,0.739199769646,
    108.42593281109));
#345 = CARTESIAN_POINT('',(31.040521572989,0.767532456903,
    108.47603417328));
#346 = CARTESIAN_POINT('',(31.039296170621,0.815574941809,
    108.57812965061));
#347 = CARTESIAN_POINT('',(31.038768691827,0.835416254491,108.6301206154
    ));
#348 = CARTESIAN_POINT('',(31.038334597144,0.851264957129,
    108.68312269928));
#349 = CARTESIAN_POINT('',(31.038003072631,0.863137228063,
    108.73686304732));
#350 = CARTESIAN_POINT('',(31.037780113833,0.871046185964,
    108.79108488237));
#351 = CARTESIAN_POINT('',(31.03766864634,0.875,108.84554312275));
#352 = CARTESIAN_POINT('',(31.03766864634,0.875,109.00957407402));
#353 = CARTESIAN_POINT('',(31.038119937758,0.858991428228,
    109.11936936368));
#354 = CARTESIAN_POINT('',(31.039025920977,0.826857478598,
    109.22732396602));
#355 = CARTESIAN_POINT('',(31.040338479487,0.778445242721,
    109.33123604613));
#356 = CARTESIAN_POINT('',(31.041953568896,0.713706461488,
    109.42861068974));
#357 = CARTESIAN_POINT('',(31.04370153724,0.632776949229,109.51654553448
    ));
#358 = CARTESIAN_POINT('',(31.046437530275,0.474393742914,
    109.63940014251));
#359 = CARTESIAN_POINT('',(31.04747726056,0.405863380566,109.68220214018
    ));
#360 = CARTESIAN_POINT('',(31.048419266567,0.331455927155,
    109.71823352211));
#361 = CARTESIAN_POINT('',(31.049189769088,0.252268991126,
    109.74625354282));
#362 = CARTESIAN_POINT('',(31.049728361291,0.169636650761,
    109.76535858605));
#363 = CARTESIAN_POINT('',(31.05,8.503485193533E-02,109.775));
#364 = CARTESIAN_POINT('',(31.05,8.776948779463E-16,109.775));
#365 = PCURVE('',#133,#366);
#366 = DEFINITIONAL_REPRESENTATION('',(#367),#400);
#367 = B_SPLINE_CURVE_WITH_KNOTS('',7,(#368,#369,#370,#371,#372,#373,
    #374,#375,#376,#377,#378,#379,#380,#381,#382,#383,#384,#385,#386,
    #387,#388,#389,#390,#391,#392,#393,#394,#395,#396,#397,#398,#399),
  .UNSPECIFIED.,.F.,.F.,(8,6,6,6,6,8),(0.,0.195763380915,0.349168715031,
    0.500418345622,0.804751591591,1.),.UNSPECIFIED.);
#368 = CARTESIAN_POINT('',(-6.28318530718,-7.325));
#369 = CARTESIAN_POINT('',(-6.280446354407,-7.325));
#370 = CARTESIAN_POINT('',(-6.277721634383,-7.315356404205));
#371 = CARTESIAN_POINT('',(-6.275060479927,-7.296250621984));
#372 = CARTESIAN_POINT('',(-6.272510270421,-7.268232321207));
#373 = CARTESIAN_POINT('',(-6.270113851592,-7.232204003728));
#374 = CARTESIAN_POINT('',(-6.267906511171,-7.189403678998));
#375 = CARTESIAN_POINT('',(-6.264349958949,-7.103757434264));
#376 = CARTESIAN_POINT('',(-6.262911638111,-7.062762166685));
#377 = CARTESIAN_POINT('',(-6.261601578124,-7.018863070226));
#378 = CARTESIAN_POINT('',(-6.260422573092,-6.972495012049));
#379 = CARTESIAN_POINT('',(-6.259376319539,-6.924067188909));
#380 = CARTESIAN_POINT('',(-6.258463554975,-6.873965826719));
#381 = CARTESIAN_POINT('',(-6.256915789747,-6.771870349387));
#382 = CARTESIAN_POINT('',(-6.256276552628,-6.719879384598));
#383 = CARTESIAN_POINT('',(-6.255765936227,-6.66687730072));
#384 = CARTESIAN_POINT('',(-6.255383427422,-6.613136952676));
#385 = CARTESIAN_POINT('',(-6.255128609322,-6.558915117628));
#386 = CARTESIAN_POINT('',(-6.255001221757,-6.504456877249));
#387 = CARTESIAN_POINT('',(-6.255001221757,-6.340425925975));
#388 = CARTESIAN_POINT('',(-6.255517000596,-6.230630636317));
#389 = CARTESIAN_POINT('',(-6.256552321424,-6.122676033977));
#390 = CARTESIAN_POINT('',(-6.258112064277,-6.01876395387));
#391 = CARTESIAN_POINT('',(-6.260197685886,-5.921389310254));
#392 = CARTESIAN_POINT('',(-6.262804694878,-5.833454465518));
#393 = CARTESIAN_POINT('',(-6.267906364315,-5.710599857486));
#394 = CARTESIAN_POINT('',(-6.270113710515,-5.667797859811));
#395 = CARTESIAN_POINT('',(-6.272510265143,-5.631766477886));
#396 = CARTESIAN_POINT('',(-6.275060668617,-5.603746457175));
#397 = CARTESIAN_POINT('',(-6.277721968935,-5.584641413948));
#398 = CARTESIAN_POINT('',(-6.280446664605,-5.575));
#399 = CARTESIAN_POINT('',(-6.28318530718,-5.575));
#400 = ( GEOMETRIC_REPRESENTATION_CONTEXT(2) 
PARAMETRIC_REPRESENTATION_CONTEXT() REPRESENTATION_CONTEXT('2D SPACE',''
  ) );
#401 = PCURVE('',#205,#402);
#402 = DEFINITIONAL_REPRESENTATION('',(#403),#436);
#403 = B_SPLINE_CURVE_WITH_KNOTS('',7,(#404,#405,#406,#407,#408,#409,
    #410,#411,#412,#413,#414,#415,#416,#417,#418,#419,#420,#421,#422,
    #423,#424,#425,#426,#427,#428,#429,#430,#431,#432,#433,#434,#435),
  .UNSPECIFIED.,.F.,.F.,(8,6,6,6,6,8),(0.,0.195763380915,0.349168715031,
    0.500418345622,0.804751591591,1.),.UNSPECIFIED.);
#404 = CARTESIAN_POINT('',(-1.570796326795,-1.35));
#405 = CARTESIAN_POINT('',(-1.667990022321,-1.35));
#406 = CARTESIAN_POINT('',(-1.764678329745,-1.349728300255));
#407 = CARTESIAN_POINT('',(-1.860610989116,-1.34918968761));
#408 = CARTESIAN_POINT('',(-1.95553019829,-1.348419239321));
#409 = CARTESIAN_POINT('',(-2.049129057539,-1.347477316163));
#410 = CARTESIAN_POINT('',(-2.14099393944,-1.346437609033));
#411 = CARTESIAN_POINT('',(-2.300694210419,-1.344530252583));
#412 = CARTESIAN_POINT('',(-2.369732436853,-1.343670416479));
#413 = CARTESIAN_POINT('',(-2.437770442805,-1.342816366092));
#414 = CARTESIAN_POINT('',(-2.50491112194,-1.341993062956));
#415 = CARTESIAN_POINT('',(-2.571241131362,-1.341222194371));
#416 = CARTESIAN_POINT('',(-2.63683674085,-1.340521572989));
#417 = CARTESIAN_POINT('',(-2.765790163721,-1.339296170621));
#418 = CARTESIAN_POINT('',(-2.829208388815,-1.338768691827));
#419 = CARTESIAN_POINT('',(-2.892157539758,-1.338334597144));
#420 = CARTESIAN_POINT('',(-2.954756677469,-1.338003072631));
#421 = CARTESIAN_POINT('',(-3.017118353552,-1.337780113833));
#422 = CARTESIAN_POINT('',(-3.079356222448,-1.33766864634));
#423 = CARTESIAN_POINT('',(-3.266820166761,-1.33766864634));
#424 = CARTESIAN_POINT('',(-3.39230021972,-1.338119937758));
#425 = CARTESIAN_POINT('',(-3.518885750386,-1.339025920977));
#426 = CARTESIAN_POINT('',(-3.647320806651,-1.340338479487));
#427 = CARTESIAN_POINT('',(-3.77842611556,-1.341953568896));
#428 = CARTESIAN_POINT('',(-3.913103927511,-1.34370153724));
#429 = CARTESIAN_POINT('',(-4.142184773435,-1.346437530275));
#430 = CARTESIAN_POINT('',(-4.234050981623,-1.34747726056));
#431 = CARTESIAN_POINT('',(-4.327655551534,-1.348419266567));
#432 = CARTESIAN_POINT('',(-4.422581521498,-1.349189769088));
#433 = CARTESIAN_POINT('',(-4.518518844702,-1.349728361291));
#434 = CARTESIAN_POINT('',(-4.615206292459,-1.35));
#435 = CARTESIAN_POINT('',(-4.712388980385,-1.35));
#436 = ( GEOMETRIC_REPRESENTATION_CONTEXT(2) 
PARAMETRIC_REPRESENTATION_CONTEXT() REPRESENTATION_CONTEXT('2D SPACE',''
  ) );
#437 = ADVANCED_FACE('',(#438),#205,.T.);
#438 = FACE_BOUND('',#439,.F.);
#439 = EDGE_LOOP('',(#440,#469,#490,#491,#492,#493));
#440 = ORIENTED_EDGE('',*,*,#441,.F.);
#441 = EDGE_CURVE('',#442,#442,#444,.T.);
#442 = VERTEX_POINT('',#443);
#443 = CARTESIAN_POINT('',(29.7,-0.875,108.9));
#444 = SURFACE_CURVE('',#445,(#450,#457),.PCURVE_S1.);
#445 = CIRCLE('',#446,0.875);
#446 = AXIS2_PLACEMENT_3D('',#447,#448,#449);
#447 = CARTESIAN_POINT('',(29.7,-7.837739514543E-16,108.9));
#448 = DIRECTION('',(1.,0.,0.));
#449 = DIRECTION('',(0.,-1.,1.224646799147E-16));
#450 = PCURVE('',#205,#451);
#451 = DEFINITIONAL_REPRESENTATION('',(#452),#456);
#452 = LINE('',#453,#454);
#453 = CARTESIAN_POINT('',(-0.,0.));
#454 = VECTOR('',#455,1.);
#455 = DIRECTION('',(-1.,0.));
#456 = ( GEOMETRIC_REPRESENTATION_CONTEXT(2) 
PARAMETRIC_REPRESENTATION_CONTEXT() REPRESENTATION_CONTEXT('2D SPACE',''
  ) );
#457 = PCURVE('',#458,#463);
#458 = PLANE('',#459);
#459 = AXIS2_PLACEMENT_3D('',#460,#461,#462);
#460 = CARTESIAN_POINT('',(29.7,-7.59355377659E-16,108.9));
#461 = DIRECTION('',(1.,0.,0.));
#462 = DIRECTION('',(0.,-1.224646799147E-16,-1.));
#463 = DEFINITIONAL_REPRESENTATION('',(#464),#468);
#464 = CIRCLE('',#465,0.875);
#465 = AXIS2_PLACEMENT_2D('',#466,#467);
#466 = CARTESIAN_POINT('',(2.990412823821E-33,-2.441857379535E-17));
#467 = DIRECTION('',(0.,-1.));
#468 = ( GEOMETRIC_REPRESENTATION_CONTEXT(2) 
PARAMETRIC_REPRESENTATION_CONTEXT() REPRESENTATION_CONTEXT('2D SPACE',''
  ) );
#469 = ORIENTED_EDGE('',*,*,#470,.T.);
#470 = EDGE_CURVE('',#442,#178,#471,.T.);
#471 = SEAM_CURVE('',#472,(#476,#483),.PCURVE_S1.);
#472 = LINE('',#473,#474);
#473 = CARTESIAN_POINT('',(29.7,-0.875,108.9));
#474 = VECTOR('',#475,1.);
#475 = DIRECTION('',(1.,0.,0.));
#476 = PCURVE('',#205,#477);
#477 = DEFINITIONAL_REPRESENTATION('',(#478),#482);
#478 = LINE('',#479,#480);
#479 = CARTESIAN_POINT('',(-6.28318530718,0.));
#480 = VECTOR('',#481,1.);
#481 = DIRECTION('',(-0.,-1.));
#482 = ( GEOMETRIC_REPRESENTATION_CONTEXT(2) 
PARAMETRIC_REPRESENTATION_CONTEXT() REPRESENTATION_CONTEXT('2D SPACE',''
  ) );
#483 = PCURVE('',#205,#484);
#484 = DEFINITIONAL_REPRESENTATION('',(#485),#489);
#485 = LINE('',#486,#487);
#486 = CARTESIAN_POINT('',(-0.,0.));
#487 = VECTOR('',#488,1.);
#488 = DIRECTION('',(-0.,-1.));
#489 = ( GEOMETRIC_REPRESENTATION_CONTEXT(2) 
PARAMETRIC_REPRESENTATION_CONTEXT() REPRESENTATION_CONTEXT('2D SPACE',''
  ) );
#490 = ORIENTED_EDGE('',*,*,#223,.T.);
#491 = ORIENTED_EDGE('',*,*,#330,.T.);
#492 = ORIENTED_EDGE('',*,*,#177,.T.);
#493 = ORIENTED_EDGE('',*,*,#470,.F.);
#494 = ADVANCED_FACE('',(#495),#317,.F.);
#495 = FACE_BOUND('',#496,.F.);
#496 = EDGE_LOOP('',(#497));
#497 = ORIENTED_EDGE('',*,*,#302,.T.);
#498 = ADVANCED_FACE('',(#499),#458,.F.);
#499 = FACE_BOUND('',#500,.F.);
#500 = EDGE_LOOP('',(#501));
#501 = ORIENTED_EDGE('',*,*,#441,.T.);
#502 = ( GEOMETRIC_REPRESENTATION_CONTEXT(3) 
GLOBAL_UNCERTAINTY_ASSIGNED_CONTEXT((#506)) GLOBAL_UNIT_ASSIGNED_CONTEXT
((#503,#504,#505)) REPRESENTATION_CONTEXT('Context #1',
  '3D Context with UNIT and UNCERTAINTY') );
#503 = ( LENGTH_UNIT() NAMED_UNIT(*) SI_UNIT(.MILLI.,.METRE.) );
#504 = ( NAMED_UNIT(*) PLANE_ANGLE_UNIT() SI_UNIT($,.RADIAN.) );
#505 = ( NAMED_UNIT(*) SI_UNIT($,.STERADIAN.) SOLID_ANGLE_UNIT() );
#506 = UNCERTAINTY_MEASURE_WITH_UNIT(LENGTH_MEASURE(1.E-07),#503,
  'distance_accuracy_value','confusion accuracy');
#507 = PRODUCT_RELATED_PRODUCT_CATEGORY('part',$,(#7));
ENDSEC;
END-ISO-10303-21;
