solid OpenSCAD_Model
  facet normal 1 -0 0
    outer loop
      vertex 11 29.9179 130.095
      vertex 11 36 129.823
      vertex 11 36 136.177
    endloop
  endfacet
  facet normal 1 0 0
    outer loop
      vertex 11 36 129.823
      vertex 11 29.9179 130.095
      vertex 11 33.0953 126.918
    endloop
  endfacet
  facet normal 1 0 -0
    outer loop
      vertex 11 31.1167 126.917
      vertex 11 33.0953 126.918
      vertex 11 29.9179 130.095
    endloop
  endfacet
  facet normal 1 0 -0
    outer loop
      vertex 11 32.9391 126.798
      vertex 11 33.0953 126.918
      vertex 11 31.1167 126.917
    endloop
  endfacet
  facet normal 1 0 0
    outer loop
      vertex 11 33.0953 126.918
      vertex 11 32.9391 126.798
      vertex 11 33.0947 126.917
    endloop
  endfacet
  facet normal 1 0 0
    outer loop
      vertex 11 32.9391 126.798
      vertex 11 31.1167 126.917
      vertex 11 32.7691 126.7
    endloop
  endfacet
  facet normal 1 0 0
    outer loop
      vertex 11 32.7691 126.7
      vertex 11 31.1167 126.917
      vertex 11 32.5879 126.625
    endloop
  endfacet
  facet normal 1 0 0
    outer loop
      vertex 11 32.5879 126.625
      vertex 11 31.1167 126.917
      vertex 11 32.3983 126.574
    endloop
  endfacet
  facet normal 1 0 0
    outer loop
      vertex 11 32.3983 126.574
      vertex 11 31.1167 126.917
      vertex 11 32.2038 126.548
    endloop
  endfacet
  facet normal 1 0 0
    outer loop
      vertex 11 32.2038 126.548
      vertex 11 31.1167 126.917
      vertex 11 32.0076 126.548
    endloop
  endfacet
  facet normal 1 0 0
    outer loop
      vertex 11 32.0076 126.548
      vertex 11 31.1167 126.917
      vertex 11 31.8131 126.574
    endloop
  endfacet
  facet normal 1 0 0
    outer loop
      vertex 11 31.8131 126.574
      vertex 11 31.1167 126.917
      vertex 11 31.6236 126.625
    endloop
  endfacet
  facet normal 1 0 0
    outer loop
      vertex 11 31.6236 126.625
      vertex 11 31.1167 126.917
      vertex 11 31.4423 126.7
    endloop
  endfacet
  facet normal 1 0 0
    outer loop
      vertex 11 31.4423 126.7
      vertex 11 31.1167 126.917
      vertex 11 31.2724 126.798
    endloop
  endfacet
  facet normal 1 0 0
    outer loop
      vertex 11 29.7978 129.939
      vertex 11 29.9179 130.095
      vertex 11 29.9173 130.095
    endloop
  endfacet
  facet normal 1 0 0
    outer loop
      vertex 11 29.9179 130.095
      vertex 11 29.9173 128.117
      vertex 11 31.1167 126.917
    endloop
  endfacet
  facet normal 1 0 0
    outer loop
      vertex 11 29.9179 130.095
      vertex 11 29.7978 129.939
      vertex 11 29.9173 128.117
    endloop
  endfacet
  facet normal 1 0 0
    outer loop
      vertex 11 29.7978 129.939
      vertex 11 29.7978 128.272
      vertex 11 29.9173 128.117
    endloop
  endfacet
  facet normal 1 -0 0
    outer loop
      vertex 11 29.6997 129.769
      vertex 11 29.7978 128.272
      vertex 11 29.7978 129.939
    endloop
  endfacet
  facet normal 1 0 0
    outer loop
      vertex 11 29.6997 129.769
      vertex 11 29.6997 128.442
      vertex 11 29.7978 128.272
    endloop
  endfacet
  facet normal 1 -0 0
    outer loop
      vertex 11 29.6247 129.588
      vertex 11 29.6997 128.442
      vertex 11 29.6997 129.769
    endloop
  endfacet
  facet normal 1 0 0
    outer loop
      vertex 11 29.6247 129.588
      vertex 11 29.6247 128.624
      vertex 11 29.6997 128.442
    endloop
  endfacet
  facet normal 1 -0 0
    outer loop
      vertex 11 29.5739 129.398
      vertex 11 29.6247 128.624
      vertex 11 29.6247 129.588
    endloop
  endfacet
  facet normal 1 0 0
    outer loop
      vertex 11 29.5739 129.398
      vertex 11 29.5739 128.813
      vertex 11 29.6247 128.624
    endloop
  endfacet
  facet normal 1 -0 0
    outer loop
      vertex 11 29.5483 129.204
      vertex 11 29.5739 128.813
      vertex 11 29.5739 129.398
    endloop
  endfacet
  facet normal 1 0 0
    outer loop
      vertex 11 29.5739 128.813
      vertex 11 29.5483 129.204
      vertex 11 29.5483 129.008
    endloop
  endfacet
  facet normal -1 0 0
    outer loop
      vertex -11 29.9179 130.095
      vertex -11 36 129.823
      vertex -11 33.0953 126.918
    endloop
  endfacet
  facet normal -1 0 0
    outer loop
      vertex -11 32.9391 126.798
      vertex -11 33.0953 126.918
      vertex -11 33.0947 126.917
    endloop
  endfacet
  facet normal -1 0 0
    outer loop
      vertex -11 33.0953 126.918
      vertex -11 32.9391 126.798
      vertex -11 31.1167 126.917
    endloop
  endfacet
  facet normal -1 0 0
    outer loop
      vertex -11 31.1167 126.917
      vertex -11 32.9391 126.798
      vertex -11 32.7691 126.7
    endloop
  endfacet
  facet normal -1 0 0
    outer loop
      vertex -11 31.1167 126.917
      vertex -11 32.7691 126.7
      vertex -11 32.5879 126.625
    endloop
  endfacet
  facet normal -1 0 0
    outer loop
      vertex -11 31.1167 126.917
      vertex -11 32.5879 126.625
      vertex -11 32.3983 126.574
    endloop
  endfacet
  facet normal -1 0 0
    outer loop
      vertex -11 31.1167 126.917
      vertex -11 32.3983 126.574
      vertex -11 32.2038 126.548
    endloop
  endfacet
  facet normal -1 0 0
    outer loop
      vertex -11 31.1167 126.917
      vertex -11 32.2038 126.548
      vertex -11 32.0076 126.548
    endloop
  endfacet
  facet normal -1 0 0
    outer loop
      vertex -11 31.1167 126.917
      vertex -11 32.0076 126.548
      vertex -11 31.8131 126.574
    endloop
  endfacet
  facet normal -1 0 0
    outer loop
      vertex -11 31.1167 126.917
      vertex -11 31.8131 126.574
      vertex -11 31.6236 126.625
    endloop
  endfacet
  facet normal -1 0 0
    outer loop
      vertex -11 31.1167 126.917
      vertex -11 31.6236 126.625
      vertex -11 31.4423 126.7
    endloop
  endfacet
  facet normal -1 0 0
    outer loop
      vertex -11 31.1167 126.917
      vertex -11 31.4423 126.7
      vertex -11 31.2724 126.798
    endloop
  endfacet
  facet normal -1 -0 0
    outer loop
      vertex -11 33.0953 126.918
      vertex -11 31.1167 126.917
      vertex -11 29.9179 130.095
    endloop
  endfacet
  facet normal -1 0 0
    outer loop
      vertex -11 36 129.823
      vertex -11 29.9179 130.095
      vertex -11 36 136.177
    endloop
  endfacet
  facet normal -1 0 0
    outer loop
      vertex -11 29.9173 128.117
      vertex -11 29.9179 130.095
      vertex -11 31.1167 126.917
    endloop
  endfacet
  facet normal -1 0 0
    outer loop
      vertex -11 29.7978 128.272
      vertex -11 29.9179 130.095
      vertex -11 29.9173 128.117
    endloop
  endfacet
  facet normal -1 0 0
    outer loop
      vertex -11 29.7978 129.939
      vertex -11 29.9179 130.095
      vertex -11 29.7978 128.272
    endloop
  endfacet
  facet normal -1 -0 0
    outer loop
      vertex -11 29.9179 130.095
      vertex -11 29.7978 129.939
      vertex -11 29.9173 130.095
    endloop
  endfacet
  facet normal -1 0 0
    outer loop
      vertex -11 29.6997 128.442
      vertex -11 29.7978 129.939
      vertex -11 29.7978 128.272
    endloop
  endfacet
  facet normal -1 0 0
    outer loop
      vertex -11 29.6997 128.442
      vertex -11 29.6997 129.769
      vertex -11 29.7978 129.939
    endloop
  endfacet
  facet normal -1 0 0
    outer loop
      vertex -11 29.6247 128.624
      vertex -11 29.6997 129.769
      vertex -11 29.6997 128.442
    endloop
  endfacet
  facet normal -1 0 0
    outer loop
      vertex -11 29.6247 128.624
      vertex -11 29.6247 129.588
      vertex -11 29.6997 129.769
    endloop
  endfacet
  facet normal -1 0 0
    outer loop
      vertex -11 29.5739 128.813
      vertex -11 29.6247 129.588
      vertex -11 29.6247 128.624
    endloop
  endfacet
  facet normal -1 0 0
    outer loop
      vertex -11 29.5739 128.813
      vertex -11 29.5739 129.398
      vertex -11 29.6247 129.588
    endloop
  endfacet
  facet normal -1 0 0
    outer loop
      vertex -11 29.5483 129.008
      vertex -11 29.5739 129.398
      vertex -11 29.5739 128.813
    endloop
  endfacet
  facet normal -1 0 0
    outer loop
      vertex -11 29.5739 129.398
      vertex -11 29.5483 129.008
      vertex -11 29.5483 129.204
    endloop
  endfacet
  facet normal 0 1 -0
    outer loop
      vertex 11 36 129.823
      vertex -11 36 136.177
      vertex 11 36 136.177
    endloop
  endfacet
  facet normal 0 1 0
    outer loop
      vertex -11 36 136.177
      vertex 11 36 129.823
      vertex -11 36 129.823
    endloop
  endfacet
  facet normal 0 -0.966066 0.258296
    outer loop
      vertex -11 29.5739 129.398
      vertex 11 29.6247 129.588
      vertex -11 29.6247 129.588
    endloop
  endfacet
  facet normal 0 -0.966066 0.258296
    outer loop
      vertex 11 29.6247 129.588
      vertex -11 29.5739 129.398
      vertex 11 29.5739 129.398
    endloop
  endfacet
  facet normal 0 -0.793852 0.608111
    outer loop
      vertex -11 29.7978 129.939
      vertex 11 29.9173 130.095
      vertex -11 29.9173 130.095
    endloop
  endfacet
  facet normal 0 -0.793852 0.608111
    outer loop
      vertex 11 29.9173 130.095
      vertex -11 29.7978 129.939
      vertex 11 29.7978 129.939
    endloop
  endfacet
  facet normal 0 -0.707101 0.707113
    outer loop
      vertex -11 36 136.177
      vertex 11 29.9179 130.095
      vertex 11 36 136.177
    endloop
  endfacet
  facet normal 0 -0.707101 0.707113
    outer loop
      vertex 11 29.9179 130.095
      vertex -11 36 136.177
      vertex -11 29.9179 130.095
    endloop
  endfacet
  facet normal 0 -0.92383 0.382803
    outer loop
      vertex -11 29.6247 129.588
      vertex 11 29.6997 129.769
      vertex -11 29.6997 129.769
    endloop
  endfacet
  facet normal 0 -0.92383 0.382803
    outer loop
      vertex 11 29.6997 129.769
      vertex -11 29.6247 129.588
      vertex 11 29.6247 129.588
    endloop
  endfacet
  facet normal 0 -1 0
    outer loop
      vertex -11 29.5483 129.008
      vertex 11 29.5483 129.204
      vertex -11 29.5483 129.204
    endloop
  endfacet
  facet normal 0 -1 -0
    outer loop
      vertex 11 29.5483 129.204
      vertex -11 29.5483 129.008
      vertex 11 29.5483 129.008
    endloop
  endfacet
  facet normal 0 -0.866135 0.499811
    outer loop
      vertex -11 29.6997 129.769
      vertex 11 29.7978 129.939
      vertex -11 29.7978 129.939
    endloop
  endfacet
  facet normal 0 -0.866135 0.499811
    outer loop
      vertex 11 29.7978 129.939
      vertex -11 29.6997 129.769
      vertex 11 29.6997 129.769
    endloop
  endfacet
  facet normal 0 -0.707284 -0.70693
    outer loop
      vertex -11 31.1167 126.917
      vertex 11 29.9173 128.117
      vertex -11 29.9173 128.117
    endloop
  endfacet
  facet normal 0 -0.707284 -0.70693
    outer loop
      vertex 11 29.9173 128.117
      vertex -11 31.1167 126.917
      vertex 11 31.1167 126.917
    endloop
  endfacet
  facet normal 0 -0.132498 -0.991183
    outer loop
      vertex -11 31.8131 126.574
      vertex 11 32.0076 126.548
      vertex 11 31.8131 126.574
    endloop
  endfacet
  facet normal -0 -0.132498 -0.991183
    outer loop
      vertex 11 32.0076 126.548
      vertex -11 31.8131 126.574
      vertex -11 32.0076 126.548
    endloop
  endfacet
  facet normal 0 -0.499649 -0.866228
    outer loop
      vertex -11 31.2724 126.798
      vertex 11 31.4423 126.7
      vertex 11 31.2724 126.798
    endloop
  endfacet
  facet normal -0 -0.499649 -0.866228
    outer loop
      vertex 11 31.4423 126.7
      vertex -11 31.2724 126.798
      vertex -11 31.4423 126.7
    endloop
  endfacet
  facet normal 0 -0.791959 -0.610575
    outer loop
      vertex -11 29.9173 128.117
      vertex 11 29.7978 128.272
      vertex -11 29.7978 128.272
    endloop
  endfacet
  facet normal 0 -0.791959 -0.610575
    outer loop
      vertex 11 29.7978 128.272
      vertex -11 29.9173 128.117
      vertex 11 29.9173 128.117
    endloop
  endfacet
  facet normal 0 0.607488 -0.794329
    outer loop
      vertex -11 32.9391 126.798
      vertex 11 33.0947 126.917
      vertex 11 32.9391 126.798
    endloop
  endfacet
  facet normal 0 0.607488 -0.794329
    outer loop
      vertex 11 33.0947 126.917
      vertex -11 32.9391 126.798
      vertex -11 33.0947 126.917
    endloop
  endfacet
  facet normal 0 -0.259882 -0.96564
    outer loop
      vertex -11 31.6236 126.625
      vertex 11 31.8131 126.574
      vertex 11 31.6236 126.625
    endloop
  endfacet
  facet normal -0 -0.259882 -0.96564
    outer loop
      vertex 11 31.8131 126.574
      vertex -11 31.6236 126.625
      vertex -11 31.8131 126.574
    endloop
  endfacet
  facet normal -0 0 1
    outer loop
      vertex -11 29.9179 130.095
      vertex 11 29.9173 130.095
      vertex 11 29.9179 130.095
    endloop
  endfacet
  facet normal 0 0 1
    outer loop
      vertex 11 29.9173 130.095
      vertex -11 29.9179 130.095
      vertex -11 29.9173 130.095
    endloop
  endfacet
  facet normal 0 0.857493 -0.514496
    outer loop
      vertex 11 33.0947 126.917
      vertex -11 33.0953 126.918
      vertex 11 33.0953 126.918
    endloop
  endfacet
  facet normal 0 0.857493 -0.514496
    outer loop
      vertex -11 33.0953 126.918
      vertex 11 33.0947 126.917
      vertex -11 33.0947 126.917
    endloop
  endfacet
  facet normal 0 0.499428 -0.866355
    outer loop
      vertex -11 32.7691 126.7
      vertex 11 32.9391 126.798
      vertex 11 32.7691 126.7
    endloop
  endfacet
  facet normal 0 0.499428 -0.866355
    outer loop
      vertex 11 32.9391 126.798
      vertex -11 32.7691 126.7
      vertex -11 32.9391 126.798
    endloop
  endfacet
  facet normal 0 0.382442 -0.92398
    outer loop
      vertex -11 32.5879 126.625
      vertex 11 32.7691 126.7
      vertex 11 32.5879 126.625
    endloop
  endfacet
  facet normal 0 0.382442 -0.92398
    outer loop
      vertex 11 32.7691 126.7
      vertex -11 32.5879 126.625
      vertex -11 32.7691 126.7
    endloop
  endfacet
  facet normal 0 -0.991492 -0.130165
    outer loop
      vertex -11 29.5739 128.813
      vertex 11 29.5483 129.008
      vertex -11 29.5483 129.008
    endloop
  endfacet
  facet normal 0 -0.991492 -0.130165
    outer loop
      vertex 11 29.5483 129.008
      vertex -11 29.5739 128.813
      vertex 11 29.5739 128.813
    endloop
  endfacet
  facet normal 0 -0.607242 -0.794517
    outer loop
      vertex -11 31.1167 126.917
      vertex 11 31.2724 126.798
      vertex 11 31.1167 126.917
    endloop
  endfacet
  facet normal -0 -0.607242 -0.794517
    outer loop
      vertex 11 31.2724 126.798
      vertex -11 31.1167 126.917
      vertex -11 31.2724 126.798
    endloop
  endfacet
  facet normal 0 -0.382262 -0.924054
    outer loop
      vertex -11 31.4423 126.7
      vertex 11 31.6236 126.625
      vertex 11 31.4423 126.7
    endloop
  endfacet
  facet normal -0 -0.382262 -0.924054
    outer loop
      vertex 11 31.6236 126.625
      vertex -11 31.4423 126.7
      vertex -11 31.6236 126.625
    endloop
  endfacet
  facet normal 0 -0.991406 0.130825
    outer loop
      vertex -11 29.5483 129.204
      vertex 11 29.5739 129.398
      vertex -11 29.5739 129.398
    endloop
  endfacet
  facet normal 0 -0.991406 0.130825
    outer loop
      vertex 11 29.5739 129.398
      vertex -11 29.5483 129.204
      vertex 11 29.5483 129.204
    endloop
  endfacet
  facet normal 0 0.259754 -0.965675
    outer loop
      vertex -11 32.3983 126.574
      vertex 11 32.5879 126.625
      vertex 11 32.3983 126.574
    endloop
  endfacet
  facet normal 0 0.259754 -0.965675
    outer loop
      vertex 11 32.5879 126.625
      vertex -11 32.3983 126.574
      vertex -11 32.5879 126.625
    endloop
  endfacet
  facet normal 0 -0.866135 -0.499811
    outer loop
      vertex -11 29.7978 128.272
      vertex 11 29.6997 128.442
      vertex -11 29.6997 128.442
    endloop
  endfacet
  facet normal 0 -0.866135 -0.499811
    outer loop
      vertex 11 29.6997 128.442
      vertex -11 29.7978 128.272
      vertex 11 29.7978 128.272
    endloop
  endfacet
  facet normal 0 0.132498 -0.991183
    outer loop
      vertex -11 32.2038 126.548
      vertex 11 32.3983 126.574
      vertex 11 32.2038 126.548
    endloop
  endfacet
  facet normal 0 0.132498 -0.991183
    outer loop
      vertex 11 32.3983 126.574
      vertex -11 32.2038 126.548
      vertex -11 32.3983 126.574
    endloop
  endfacet
  facet normal 0 -0.965724 -0.25957
    outer loop
      vertex -11 29.6247 128.624
      vertex 11 29.5739 128.813
      vertex -11 29.5739 128.813
    endloop
  endfacet
  facet normal 0 -0.965724 -0.25957
    outer loop
      vertex 11 29.5739 128.813
      vertex -11 29.6247 128.624
      vertex 11 29.6247 128.624
    endloop
  endfacet
  facet normal 0 0 -1
    outer loop
      vertex -11 32.0076 126.548
      vertex 11 32.2038 126.548
      vertex 11 32.0076 126.548
    endloop
  endfacet
  facet normal -0 0 -1
    outer loop
      vertex 11 32.2038 126.548
      vertex -11 32.0076 126.548
      vertex -11 32.2038 126.548
    endloop
  endfacet
  facet normal 0 -0.924573 -0.381005
    outer loop
      vertex -11 29.6997 128.442
      vertex 11 29.6247 128.624
      vertex -11 29.6247 128.624
    endloop
  endfacet
  facet normal 0 -0.924573 -0.381005
    outer loop
      vertex 11 29.6247 128.624
      vertex -11 29.6997 128.442
      vertex 11 29.6997 128.442
    endloop
  endfacet
  facet normal 0 0.707143 -0.70707
    outer loop
      vertex 11 33.0953 126.918
      vertex -11 36 129.823
      vertex 11 36 129.823
    endloop
  endfacet
  facet normal 0 0.707143 -0.70707
    outer loop
      vertex -11 36 129.823
      vertex 11 33.0953 126.918
      vertex -11 33.0953 126.918
    endloop
  endfacet
endsolid OpenSCAD_Model
