solid OpenSCAD_Model
  facet normal 1 -0 0
    outer loop
      vertex 11 29.9179 130.095
      vertex 11 36 129.823
      vertex 11 36 136.177
    endloop
  endfacet
  facet normal 1 0 0
    outer loop
      vertex 11 36 129.823
      vertex 11 29.9179 130.095
      vertex 11 33.1773 127
    endloop
  endfacet
  facet normal 1 0 0
    outer loop
      vertex 11 33.1773 127
      vertex 11 29.9179 130.095
      vertex 11 31.0337 127
    endloop
  endfacet
  facet normal 1 0 0
    outer loop
      vertex 11 29.7978 129.939
      vertex 11 29.9179 130.095
      vertex 11 29.9173 130.095
    endloop
  endfacet
  facet normal 1 0 0
    outer loop
      vertex 11 29.9179 130.095
      vertex 11 29.9173 128.117
      vertex 11 31.0337 127
    endloop
  endfacet
  facet normal 1 0 0
    outer loop
      vertex 11 29.9179 130.095
      vertex 11 29.7978 129.939
      vertex 11 29.9173 128.117
    endloop
  endfacet
  facet normal 1 0 0
    outer loop
      vertex 11 29.7978 129.939
      vertex 11 29.7978 128.272
      vertex 11 29.9173 128.117
    endloop
  endfacet
  facet normal 1 -0 0
    outer loop
      vertex 11 29.6997 129.769
      vertex 11 29.7978 128.272
      vertex 11 29.7978 129.939
    endloop
  endfacet
  facet normal 1 0 0
    outer loop
      vertex 11 29.6997 129.769
      vertex 11 29.6997 128.442
      vertex 11 29.7978 128.272
    endloop
  endfacet
  facet normal 1 -0 0
    outer loop
      vertex 11 29.6247 129.588
      vertex 11 29.6997 128.442
      vertex 11 29.6997 129.769
    endloop
  endfacet
  facet normal 1 0 0
    outer loop
      vertex 11 29.6247 129.588
      vertex 11 29.6247 128.624
      vertex 11 29.6997 128.442
    endloop
  endfacet
  facet normal 1 -0 0
    outer loop
      vertex 11 29.5739 129.398
      vertex 11 29.6247 128.624
      vertex 11 29.6247 129.588
    endloop
  endfacet
  facet normal 1 0 0
    outer loop
      vertex 11 29.5739 129.398
      vertex 11 29.5739 128.813
      vertex 11 29.6247 128.624
    endloop
  endfacet
  facet normal 1 -0 0
    outer loop
      vertex 11 29.5483 129.204
      vertex 11 29.5739 128.813
      vertex 11 29.5739 129.398
    endloop
  endfacet
  facet normal 1 0 0
    outer loop
      vertex 11 29.5739 128.813
      vertex 11 29.5483 129.204
      vertex 11 29.5483 129.008
    endloop
  endfacet
  facet normal 0 0 -1
    outer loop
      vertex -11 31.0337 127
      vertex 11 33.1773 127
      vertex 11 31.0337 127
    endloop
  endfacet
  facet normal -0 0 -1
    outer loop
      vertex 11 33.1773 127
      vertex -11 31.0337 127
      vertex -11 33.1773 127
    endloop
  endfacet
  facet normal -1 0 0
    outer loop
      vertex -11 29.9179 130.095
      vertex -11 36 129.823
      vertex -11 33.1773 127
    endloop
  endfacet
  facet normal -1 0 0
    outer loop
      vertex -11 29.9179 130.095
      vertex -11 33.1773 127
      vertex -11 31.0337 127
    endloop
  endfacet
  facet normal -1 0 0
    outer loop
      vertex -11 36 129.823
      vertex -11 29.9179 130.095
      vertex -11 36 136.177
    endloop
  endfacet
  facet normal -1 0 0
    outer loop
      vertex -11 29.9173 128.117
      vertex -11 29.9179 130.095
      vertex -11 31.0337 127
    endloop
  endfacet
  facet normal -1 0 0
    outer loop
      vertex -11 29.7978 128.272
      vertex -11 29.9179 130.095
      vertex -11 29.9173 128.117
    endloop
  endfacet
  facet normal -1 0 0
    outer loop
      vertex -11 29.7978 129.939
      vertex -11 29.9179 130.095
      vertex -11 29.7978 128.272
    endloop
  endfacet
  facet normal -1 -0 0
    outer loop
      vertex -11 29.9179 130.095
      vertex -11 29.7978 129.939
      vertex -11 29.9173 130.095
    endloop
  endfacet
  facet normal -1 0 0
    outer loop
      vertex -11 29.6997 128.442
      vertex -11 29.7978 129.939
      vertex -11 29.7978 128.272
    endloop
  endfacet
  facet normal -1 0 0
    outer loop
      vertex -11 29.6997 128.442
      vertex -11 29.6997 129.769
      vertex -11 29.7978 129.939
    endloop
  endfacet
  facet normal -1 0 0
    outer loop
      vertex -11 29.6247 128.624
      vertex -11 29.6997 129.769
      vertex -11 29.6997 128.442
    endloop
  endfacet
  facet normal -1 0 0
    outer loop
      vertex -11 29.6247 128.624
      vertex -11 29.6247 129.588
      vertex -11 29.6997 129.769
    endloop
  endfacet
  facet normal -1 0 0
    outer loop
      vertex -11 29.5739 128.813
      vertex -11 29.6247 129.588
      vertex -11 29.6247 128.624
    endloop
  endfacet
  facet normal -1 0 0
    outer loop
      vertex -11 29.5739 128.813
      vertex -11 29.5739 129.398
      vertex -11 29.6247 129.588
    endloop
  endfacet
  facet normal -1 0 0
    outer loop
      vertex -11 29.5483 129.008
      vertex -11 29.5739 129.398
      vertex -11 29.5739 128.813
    endloop
  endfacet
  facet normal -1 0 0
    outer loop
      vertex -11 29.5739 129.398
      vertex -11 29.5483 129.008
      vertex -11 29.5483 129.204
    endloop
  endfacet
  facet normal 0 1 -0
    outer loop
      vertex 11 36 129.823
      vertex -11 36 136.177
      vertex 11 36 136.177
    endloop
  endfacet
  facet normal 0 1 0
    outer loop
      vertex -11 36 136.177
      vertex 11 36 129.823
      vertex -11 36 129.823
    endloop
  endfacet
  facet normal 0 -0.966066 0.258296
    outer loop
      vertex -11 29.5739 129.398
      vertex 11 29.6247 129.588
      vertex -11 29.6247 129.588
    endloop
  endfacet
  facet normal 0 -0.966066 0.258296
    outer loop
      vertex 11 29.6247 129.588
      vertex -11 29.5739 129.398
      vertex 11 29.5739 129.398
    endloop
  endfacet
  facet normal 0 -0.793852 0.608111
    outer loop
      vertex -11 29.7978 129.939
      vertex 11 29.9173 130.095
      vertex -11 29.9173 130.095
    endloop
  endfacet
  facet normal 0 -0.793852 0.608111
    outer loop
      vertex 11 29.9173 130.095
      vertex -11 29.7978 129.939
      vertex 11 29.7978 129.939
    endloop
  endfacet
  facet normal 0 -0.707101 0.707113
    outer loop
      vertex -11 36 136.177
      vertex 11 29.9179 130.095
      vertex 11 36 136.177
    endloop
  endfacet
  facet normal 0 -0.707101 0.707113
    outer loop
      vertex 11 29.9179 130.095
      vertex -11 36 136.177
      vertex -11 29.9179 130.095
    endloop
  endfacet
  facet normal 0 -0.92383 0.382803
    outer loop
      vertex -11 29.6247 129.588
      vertex 11 29.6997 129.769
      vertex -11 29.6997 129.769
    endloop
  endfacet
  facet normal 0 -0.92383 0.382803
    outer loop
      vertex 11 29.6997 129.769
      vertex -11 29.6247 129.588
      vertex 11 29.6247 129.588
    endloop
  endfacet
  facet normal 0 -1 0
    outer loop
      vertex -11 29.5483 129.008
      vertex 11 29.5483 129.204
      vertex -11 29.5483 129.204
    endloop
  endfacet
  facet normal 0 -1 -0
    outer loop
      vertex 11 29.5483 129.204
      vertex -11 29.5483 129.008
      vertex 11 29.5483 129.008
    endloop
  endfacet
  facet normal 0 -0.866135 0.499811
    outer loop
      vertex -11 29.6997 129.769
      vertex 11 29.7978 129.939
      vertex -11 29.7978 129.939
    endloop
  endfacet
  facet normal 0 -0.866135 0.499811
    outer loop
      vertex 11 29.7978 129.939
      vertex -11 29.6997 129.769
      vertex 11 29.6997 129.769
    endloop
  endfacet
  facet normal 0 -0.707297 -0.706917
    outer loop
      vertex -11 31.0337 127
      vertex 11 29.9173 128.117
      vertex -11 29.9173 128.117
    endloop
  endfacet
  facet normal 0 -0.707297 -0.706917
    outer loop
      vertex 11 29.9173 128.117
      vertex -11 31.0337 127
      vertex 11 31.0337 127
    endloop
  endfacet
  facet normal 0 -0.791959 -0.610575
    outer loop
      vertex -11 29.9173 128.117
      vertex 11 29.7978 128.272
      vertex -11 29.7978 128.272
    endloop
  endfacet
  facet normal 0 -0.791959 -0.610575
    outer loop
      vertex 11 29.7978 128.272
      vertex -11 29.9173 128.117
      vertex 11 29.9173 128.117
    endloop
  endfacet
  facet normal -0 0 1
    outer loop
      vertex -11 29.9179 130.095
      vertex 11 29.9173 130.095
      vertex 11 29.9179 130.095
    endloop
  endfacet
  facet normal 0 0 1
    outer loop
      vertex 11 29.9173 130.095
      vertex -11 29.9179 130.095
      vertex -11 29.9173 130.095
    endloop
  endfacet
  facet normal 0 -0.991492 -0.130165
    outer loop
      vertex -11 29.5739 128.813
      vertex 11 29.5483 129.008
      vertex -11 29.5483 129.008
    endloop
  endfacet
  facet normal 0 -0.991492 -0.130165
    outer loop
      vertex 11 29.5483 129.008
      vertex -11 29.5739 128.813
      vertex 11 29.5739 128.813
    endloop
  endfacet
  facet normal 0 -0.991406 0.130825
    outer loop
      vertex -11 29.5483 129.204
      vertex 11 29.5739 129.398
      vertex -11 29.5739 129.398
    endloop
  endfacet
  facet normal 0 -0.991406 0.130825
    outer loop
      vertex 11 29.5739 129.398
      vertex -11 29.5483 129.204
      vertex 11 29.5483 129.204
    endloop
  endfacet
  facet normal 0 -0.866135 -0.499811
    outer loop
      vertex -11 29.7978 128.272
      vertex 11 29.6997 128.442
      vertex -11 29.6997 128.442
    endloop
  endfacet
  facet normal 0 -0.866135 -0.499811
    outer loop
      vertex 11 29.6997 128.442
      vertex -11 29.7978 128.272
      vertex 11 29.7978 128.272
    endloop
  endfacet
  facet normal 0 -0.965724 -0.25957
    outer loop
      vertex -11 29.6247 128.624
      vertex 11 29.5739 128.813
      vertex -11 29.5739 128.813
    endloop
  endfacet
  facet normal 0 -0.965724 -0.25957
    outer loop
      vertex 11 29.5739 128.813
      vertex -11 29.6247 128.624
      vertex 11 29.6247 128.624
    endloop
  endfacet
  facet normal 0 -0.924573 -0.381005
    outer loop
      vertex -11 29.6997 128.442
      vertex 11 29.6247 128.624
      vertex -11 29.6247 128.624
    endloop
  endfacet
  facet normal 0 -0.924573 -0.381005
    outer loop
      vertex 11 29.6247 128.624
      vertex -11 29.6997 128.442
      vertex 11 29.6997 128.442
    endloop
  endfacet
  facet normal 0 0.707144 -0.707069
    outer loop
      vertex 11 33.1773 127
      vertex -11 36 129.823
      vertex 11 36 129.823
    endloop
  endfacet
  facet normal 0 0.707144 -0.707069
    outer loop
      vertex -11 36 129.823
      vertex 11 33.1773 127
      vertex -11 33.1773 127
    endloop
  endfacet
endsolid OpenSCAD_Model
