solid OpenSCAD_Model
  facet normal 1 0 0
    outer loop
      vertex 11 20.4261 85.3983
      vertex 11 20.4517 85.0076
      vertex 11 20.4517 85.2038
    endloop
  endfacet
  facet normal 1 0 0
    outer loop
      vertex 11 20.4261 85.3983
      vertex 11 20.4261 84.8131
      vertex 11 20.4517 85.0076
    endloop
  endfacet
  facet normal 1 0 0
    outer loop
      vertex 11 20.3753 85.5879
      vertex 11 20.4261 84.8131
      vertex 11 20.4261 85.3983
    endloop
  endfacet
  facet normal 1 0 0
    outer loop
      vertex 11 20.3753 85.5879
      vertex 11 20.3753 84.6236
      vertex 11 20.4261 84.8131
    endloop
  endfacet
  facet normal 1 0 0
    outer loop
      vertex 11 20.3003 85.7691
      vertex 11 20.3753 84.6236
      vertex 11 20.3753 85.5879
    endloop
  endfacet
  facet normal 1 0 0
    outer loop
      vertex 11 20.3003 85.7691
      vertex 11 20.3003 84.4423
      vertex 11 20.3753 84.6236
    endloop
  endfacet
  facet normal 1 0 0
    outer loop
      vertex 11 20.2022 85.9391
      vertex 11 20.3003 84.4423
      vertex 11 20.3003 85.7691
    endloop
  endfacet
  facet normal 1 0 0
    outer loop
      vertex 11 20.2022 85.9391
      vertex 11 20.2022 84.2724
      vertex 11 20.3003 84.4423
    endloop
  endfacet
  facet normal 1 0 0
    outer loop
      vertex 11 20.0821 86.0953
      vertex 11 20.2022 85.9391
      vertex 11 20.0827 86.0947
    endloop
  endfacet
  facet normal 1 0 0
    outer loop
      vertex 11 20.2022 85.9391
      vertex 11 20.0821 86.0953
      vertex 11 20.2022 84.2724
    endloop
  endfacet
  facet normal 1 0 0
    outer loop
      vertex 11 20.2022 84.2724
      vertex 11 20.0821 86.0953
      vertex 11 20.0827 84.1167
    endloop
  endfacet
  facet normal 1 0 0
    outer loop
      vertex 11 20.0821 86.0953
      vertex 11 18.8833 82.9173
      vertex 11 20.0827 84.1167
    endloop
  endfacet
  facet normal 1 -0 0
    outer loop
      vertex 11 16.9047 82.9179
      vertex 11 18.8833 82.9173
      vertex 11 20.0821 86.0953
    endloop
  endfacet
  facet normal 1 0 0
    outer loop
      vertex 11 18.8833 82.9173
      vertex 11 16.9047 82.9179
      vertex 11 18.7276 82.7978
    endloop
  endfacet
  facet normal 1 0 0
    outer loop
      vertex 11 18.7276 82.7978
      vertex 11 16.9047 82.9179
      vertex 11 18.5577 82.6997
    endloop
  endfacet
  facet normal 1 0 0
    outer loop
      vertex 11 18.5577 82.6997
      vertex 11 16.9047 82.9179
      vertex 11 18.3764 82.6247
    endloop
  endfacet
  facet normal 1 0 0
    outer loop
      vertex 11 18.3764 82.6247
      vertex 11 16.9047 82.9179
      vertex 11 18.1869 82.5739
    endloop
  endfacet
  facet normal 1 0 0
    outer loop
      vertex 11 18.1869 82.5739
      vertex 11 16.9047 82.9179
      vertex 11 17.9924 82.5483
    endloop
  endfacet
  facet normal 1 0 0
    outer loop
      vertex 11 17.9924 82.5483
      vertex 11 16.9047 82.9179
      vertex 11 17.7962 82.5483
    endloop
  endfacet
  facet normal 1 0 0
    outer loop
      vertex 11 17.7962 82.5483
      vertex 11 16.9047 82.9179
      vertex 11 17.6017 82.5739
    endloop
  endfacet
  facet normal 1 0 0
    outer loop
      vertex 11 17.6017 82.5739
      vertex 11 16.9047 82.9179
      vertex 11 17.4121 82.6247
    endloop
  endfacet
  facet normal 1 0 0
    outer loop
      vertex 11 17.4121 82.6247
      vertex 11 16.9047 82.9179
      vertex 11 17.2309 82.6997
    endloop
  endfacet
  facet normal 1 0 0
    outer loop
      vertex 11 17.2309 82.6997
      vertex 11 16.9047 82.9179
      vertex 11 17.0609 82.7978
    endloop
  endfacet
  facet normal 1 0 0
    outer loop
      vertex 11 17.0609 82.7978
      vertex 11 16.9047 82.9179
      vertex 11 16.9053 82.9173
    endloop
  endfacet
  facet normal 1 -0 0
    outer loop
      vertex 11 3.30025 96.5223
      vertex 11 20.0821 86.0953
      vertex 11 5.09532 101.082
    endloop
  endfacet
  facet normal 1 0 0
    outer loop
      vertex 11 4.93906 101.202
      vertex 11 5.09532 101.082
      vertex 11 5.09473 101.083
    endloop
  endfacet
  facet normal 1 0 0
    outer loop
      vertex 11 3 100.966
      vertex 11 5.09532 101.082
      vertex 11 4.93906 101.202
    endloop
  endfacet
  facet normal 1 0 0
    outer loop
      vertex 11 3 100.966
      vertex 11 4.93906 101.202
      vertex 11 4.76914 101.3
    endloop
  endfacet
  facet normal 1 0 0
    outer loop
      vertex 11 3 100.966
      vertex 11 4.76914 101.3
      vertex 11 4.58787 101.375
    endloop
  endfacet
  facet normal 1 0 0
    outer loop
      vertex 11 3 100.966
      vertex 11 4.58787 101.375
      vertex 11 4.39834 101.426
    endloop
  endfacet
  facet normal 1 0 0
    outer loop
      vertex 11 3 100.966
      vertex 11 4.39834 101.426
      vertex 11 4.20381 101.452
    endloop
  endfacet
  facet normal 1 0 0
    outer loop
      vertex 11 3 100.966
      vertex 11 4.20381 101.452
      vertex 11 4.0076 101.452
    endloop
  endfacet
  facet normal 1 0 0
    outer loop
      vertex 11 3 100.966
      vertex 11 4.0076 101.452
      vertex 11 3.81307 101.426
    endloop
  endfacet
  facet normal 1 0 0
    outer loop
      vertex 11 3 100.966
      vertex 11 3.81307 101.426
      vertex 11 3.62355 101.375
    endloop
  endfacet
  facet normal 1 0 0
    outer loop
      vertex 11 3 100.966
      vertex 11 3.62355 101.375
      vertex 11 3.44228 101.3
    endloop
  endfacet
  facet normal 1 0 0
    outer loop
      vertex 11 20.0821 86.0953
      vertex 11 3.30025 96.5223
      vertex 11 16.9047 82.9179
    endloop
  endfacet
  facet normal 1 0 0
    outer loop
      vertex 11 3 100.966
      vertex 11 3.44228 101.3
      vertex 11 3.27235 101.202
    endloop
  endfacet
  facet normal 1 0 0
    outer loop
      vertex 11 3 100.966
      vertex 11 3.27235 101.202
      vertex 11 3.11669 101.083
    endloop
  endfacet
  facet normal 1 0 0
    outer loop
      vertex 11 5.09532 101.082
      vertex 11 3 100.966
      vertex 11 3 97
    endloop
  endfacet
  facet normal 1 0 0
    outer loop
      vertex 11 5.09532 101.082
      vertex 11 3 97
      vertex 11 3.30025 96.5223
    endloop
  endfacet
  facet normal 1 0 0
    outer loop
      vertex 11 29.9179 122.095
      vertex 11 36 128
      vertex 11 36 128.177
    endloop
  endfacet
  facet normal 1 0 0
    outer loop
      vertex 11 36 128
      vertex 11 29.9179 122.095
      vertex 11 32.6881 118.666
    endloop
  endfacet
  facet normal 1 -0 -0
    outer loop
      vertex 11 31.1167 118.917
      vertex 11 32.6881 118.666
      vertex 11 29.9179 122.095
    endloop
  endfacet
  facet normal 1 0 -0
    outer loop
      vertex 11 32.3983 118.574
      vertex 11 32.6881 118.666
      vertex 11 31.1167 118.917
    endloop
  endfacet
  facet normal 1 0 0
    outer loop
      vertex 11 32.6881 118.666
      vertex 11 32.3983 118.574
      vertex 11 32.5879 118.625
    endloop
  endfacet
  facet normal 1 0 0
    outer loop
      vertex 11 32.3983 118.574
      vertex 11 31.1167 118.917
      vertex 11 32.2038 118.548
    endloop
  endfacet
  facet normal 1 0 0
    outer loop
      vertex 11 32.2038 118.548
      vertex 11 31.1167 118.917
      vertex 11 32.0076 118.548
    endloop
  endfacet
  facet normal 1 0 0
    outer loop
      vertex 11 32.0076 118.548
      vertex 11 31.1167 118.917
      vertex 11 31.8131 118.574
    endloop
  endfacet
  facet normal 1 0 0
    outer loop
      vertex 11 31.8131 118.574
      vertex 11 31.1167 118.917
      vertex 11 31.6236 118.625
    endloop
  endfacet
  facet normal 1 0 0
    outer loop
      vertex 11 31.6236 118.625
      vertex 11 31.1167 118.917
      vertex 11 31.4423 118.7
    endloop
  endfacet
  facet normal 1 0 0
    outer loop
      vertex 11 31.4423 118.7
      vertex 11 31.1167 118.917
      vertex 11 31.2724 118.798
    endloop
  endfacet
  facet normal 1 0 0
    outer loop
      vertex 11 29.7978 121.939
      vertex 11 29.9179 122.095
      vertex 11 29.9173 122.095
    endloop
  endfacet
  facet normal 1 0 0
    outer loop
      vertex 11 29.9179 122.095
      vertex 11 29.9173 120.117
      vertex 11 31.1167 118.917
    endloop
  endfacet
  facet normal 1 0 0
    outer loop
      vertex 11 29.9179 122.095
      vertex 11 29.7978 121.939
      vertex 11 29.9173 120.117
    endloop
  endfacet
  facet normal 1 0 0
    outer loop
      vertex 11 29.7978 121.939
      vertex 11 29.7978 120.272
      vertex 11 29.9173 120.117
    endloop
  endfacet
  facet normal 1 -0 0
    outer loop
      vertex 11 29.6997 121.769
      vertex 11 29.7978 120.272
      vertex 11 29.7978 121.939
    endloop
  endfacet
  facet normal 1 0 0
    outer loop
      vertex 11 29.6997 121.769
      vertex 11 29.6997 120.442
      vertex 11 29.7978 120.272
    endloop
  endfacet
  facet normal 1 -0 0
    outer loop
      vertex 11 29.6247 121.588
      vertex 11 29.6997 120.442
      vertex 11 29.6997 121.769
    endloop
  endfacet
  facet normal 1 0 0
    outer loop
      vertex 11 29.6247 121.588
      vertex 11 29.6247 120.624
      vertex 11 29.6997 120.442
    endloop
  endfacet
  facet normal 1 -0 0
    outer loop
      vertex 11 29.5739 121.398
      vertex 11 29.6247 120.624
      vertex 11 29.6247 121.588
    endloop
  endfacet
  facet normal 1 0 0
    outer loop
      vertex 11 29.5739 121.398
      vertex 11 29.5739 120.813
      vertex 11 29.6247 120.624
    endloop
  endfacet
  facet normal 1 -0 0
    outer loop
      vertex 11 29.5483 121.204
      vertex 11 29.5739 120.813
      vertex 11 29.5739 121.398
    endloop
  endfacet
  facet normal 1 0 0
    outer loop
      vertex 11 29.5739 120.813
      vertex 11 29.5483 121.204
      vertex 11 29.5483 121.008
    endloop
  endfacet
  facet normal 1 -0 0
    outer loop
      vertex 11 44.9053 65.0827
      vertex 11 47 64.966
      vertex 11 46.8833 65.0827
    endloop
  endfacet
  facet normal 1 0 0
    outer loop
      vertex 11 44.9053 65.0827
      vertex 11 46.8833 65.0827
      vertex 11 46.7276 65.2022
    endloop
  endfacet
  facet normal 1 0 0
    outer loop
      vertex 11 44.9053 65.0827
      vertex 11 46.7276 65.2022
      vertex 11 46.5577 65.3003
    endloop
  endfacet
  facet normal 1 0 0
    outer loop
      vertex 11 44.9053 65.0827
      vertex 11 46.5577 65.3003
      vertex 11 46.3764 65.3753
    endloop
  endfacet
  facet normal 1 0 0
    outer loop
      vertex 11 44.9053 65.0827
      vertex 11 46.3764 65.3753
      vertex 11 46.1869 65.4261
    endloop
  endfacet
  facet normal 1 0 0
    outer loop
      vertex 11 44.9053 65.0827
      vertex 11 46.1869 65.4261
      vertex 11 45.9924 65.4517
    endloop
  endfacet
  facet normal 1 0 0
    outer loop
      vertex 11 44.9053 65.0827
      vertex 11 45.9924 65.4517
      vertex 11 45.7962 65.4517
    endloop
  endfacet
  facet normal 1 0 0
    outer loop
      vertex 11 44.9053 65.0827
      vertex 11 45.7962 65.4517
      vertex 11 45.6017 65.4261
    endloop
  endfacet
  facet normal 1 0 0
    outer loop
      vertex 11 44.9053 65.0827
      vertex 11 45.6017 65.4261
      vertex 11 45.4121 65.3753
    endloop
  endfacet
  facet normal 1 0 0
    outer loop
      vertex 11 44.9053 65.0827
      vertex 11 45.4121 65.3753
      vertex 11 45.2309 65.3003
    endloop
  endfacet
  facet normal 1 0 0
    outer loop
      vertex 11 44.9053 65.0827
      vertex 11 45.2309 65.3003
      vertex 11 45.0609 65.2022
    endloop
  endfacet
  facet normal 1 0 0
    outer loop
      vertex 11 47 64.966
      vertex 11 44.9053 65.0827
      vertex 11 47 62
    endloop
  endfacet
  facet normal 1 -0 0
    outer loop
      vertex 11 41.8423 62.0197
      vertex 11 47 62
      vertex 11 44.9053 65.0827
    endloop
  endfacet
  facet normal 1 0 0
    outer loop
      vertex 11 47 62
      vertex 11 41.8423 62.0197
      vertex 11 45.0075 58.8301
    endloop
  endfacet
  facet normal 1 0 0
    outer loop
      vertex 11 41.8423 62.0197
      vertex 11 41.6476 55.4702
      vertex 11 45.0075 58.8301
    endloop
  endfacet
  facet normal 1 0 0
    outer loop
      vertex 11 32.9451 53.1225
      vertex 11 41.6476 55.4702
      vertex 11 41.8423 62.0197
    endloop
  endfacet
  facet normal 1 0 0
    outer loop
      vertex 11 41.6476 55.4702
      vertex 11 32.9451 53.1225
      vertex 11 34.4271 48.2497
    endloop
  endfacet
  facet normal 1 -0 0
    outer loop
      vertex 11 29.9179 50.0953
      vertex 11 34.4271 48.2497
      vertex 11 32.9451 53.1225
    endloop
  endfacet
  facet normal 1 0 0
    outer loop
      vertex 11 34.4271 48.2497
      vertex 11 29.9179 50.0953
      vertex 11 33.9738 47.7964
    endloop
  endfacet
  facet normal 1 -0 0
    outer loop
      vertex 11 29.9173 48.1167
      vertex 11 33.9738 47.7964
      vertex 11 29.9179 50.0953
    endloop
  endfacet
  facet normal 1 0 0
    outer loop
      vertex 11 33.9738 47.7964
      vertex 11 31.1167 46.9173
      vertex 11 33.0953 46.9179
    endloop
  endfacet
  facet normal 1 0 -0
    outer loop
      vertex 11 32.9391 46.7978
      vertex 11 33.0953 46.9179
      vertex 11 31.1167 46.9173
    endloop
  endfacet
  facet normal 1 0 0
    outer loop
      vertex 11 33.0953 46.9179
      vertex 11 32.9391 46.7978
      vertex 11 33.0947 46.9173
    endloop
  endfacet
  facet normal 1 0 0
    outer loop
      vertex 11 32.9391 46.7978
      vertex 11 31.1167 46.9173
      vertex 11 32.7691 46.6997
    endloop
  endfacet
  facet normal 1 0 0
    outer loop
      vertex 11 32.7691 46.6997
      vertex 11 31.1167 46.9173
      vertex 11 32.5879 46.6247
    endloop
  endfacet
  facet normal 1 0 0
    outer loop
      vertex 11 32.5879 46.6247
      vertex 11 31.1167 46.9173
      vertex 11 32.3983 46.5739
    endloop
  endfacet
  facet normal 1 0 0
    outer loop
      vertex 11 32.3983 46.5739
      vertex 11 31.1167 46.9173
      vertex 11 32.2038 46.5483
    endloop
  endfacet
  facet normal 1 0 0
    outer loop
      vertex 11 32.2038 46.5483
      vertex 11 31.1167 46.9173
      vertex 11 32.0076 46.5483
    endloop
  endfacet
  facet normal 1 0 0
    outer loop
      vertex 11 32.0076 46.5483
      vertex 11 31.1167 46.9173
      vertex 11 31.8131 46.5739
    endloop
  endfacet
  facet normal 1 0 0
    outer loop
      vertex 11 31.8131 46.5739
      vertex 11 31.1167 46.9173
      vertex 11 31.6236 46.6247
    endloop
  endfacet
  facet normal 1 0 0
    outer loop
      vertex 11 31.6236 46.6247
      vertex 11 31.1167 46.9173
      vertex 11 31.4423 46.6997
    endloop
  endfacet
  facet normal 1 0 0
    outer loop
      vertex 11 31.4423 46.6997
      vertex 11 31.1167 46.9173
      vertex 11 31.2724 46.7978
    endloop
  endfacet
  facet normal 1 0 0
    outer loop
      vertex 11 29.7978 49.9391
      vertex 11 29.9179 50.0953
      vertex 11 29.9173 50.0947
    endloop
  endfacet
  facet normal 1 0 0
    outer loop
      vertex 11 33.9738 47.7964
      vertex 11 29.9173 48.1167
      vertex 11 31.1167 46.9173
    endloop
  endfacet
  facet normal 1 0 0
    outer loop
      vertex 11 29.9179 50.0953
      vertex 11 29.7978 49.9391
      vertex 11 29.9173 48.1167
    endloop
  endfacet
  facet normal 1 0 0
    outer loop
      vertex 11 29.7978 49.9391
      vertex 11 29.7978 48.2724
      vertex 11 29.9173 48.1167
    endloop
  endfacet
  facet normal 1 -0 0
    outer loop
      vertex 11 29.6997 49.7691
      vertex 11 29.7978 48.2724
      vertex 11 29.7978 49.9391
    endloop
  endfacet
  facet normal 1 0 0
    outer loop
      vertex 11 29.6997 49.7691
      vertex 11 29.6997 48.4423
      vertex 11 29.7978 48.2724
    endloop
  endfacet
  facet normal 1 -0 0
    outer loop
      vertex 11 29.6247 49.5879
      vertex 11 29.6997 48.4423
      vertex 11 29.6997 49.7691
    endloop
  endfacet
  facet normal 1 0 0
    outer loop
      vertex 11 29.6247 49.5879
      vertex 11 29.6247 48.6236
      vertex 11 29.6997 48.4423
    endloop
  endfacet
  facet normal 1 -0 0
    outer loop
      vertex 11 29.5739 49.3983
      vertex 11 29.6247 48.6236
      vertex 11 29.6247 49.5879
    endloop
  endfacet
  facet normal 1 0 0
    outer loop
      vertex 11 29.5739 49.3983
      vertex 11 29.5739 48.8131
      vertex 11 29.6247 48.6236
    endloop
  endfacet
  facet normal 1 -0 0
    outer loop
      vertex 11 29.5483 49.2038
      vertex 11 29.5739 48.8131
      vertex 11 29.5739 49.3983
    endloop
  endfacet
  facet normal 1 0 0
    outer loop
      vertex 11 29.5739 48.8131
      vertex 11 29.5483 49.2038
      vertex 11 29.5483 49.0076
    endloop
  endfacet
  facet normal -1 0 0
    outer loop
      vertex -11 20.4261 84.8131
      vertex -11 20.4517 85.2038
      vertex -11 20.4517 85.0076
    endloop
  endfacet
  facet normal -1 0 0
    outer loop
      vertex -11 20.4261 84.8131
      vertex -11 20.4261 85.3983
      vertex -11 20.4517 85.2038
    endloop
  endfacet
  facet normal -1 0 0
    outer loop
      vertex -11 20.3753 84.6236
      vertex -11 20.4261 85.3983
      vertex -11 20.4261 84.8131
    endloop
  endfacet
  facet normal -1 0 0
    outer loop
      vertex -11 20.3753 84.6236
      vertex -11 20.3753 85.5879
      vertex -11 20.4261 85.3983
    endloop
  endfacet
  facet normal -1 0 0
    outer loop
      vertex -11 20.3003 84.4423
      vertex -11 20.3753 85.5879
      vertex -11 20.3753 84.6236
    endloop
  endfacet
  facet normal -1 0 0
    outer loop
      vertex -11 20.3003 84.4423
      vertex -11 20.3003 85.7691
      vertex -11 20.3753 85.5879
    endloop
  endfacet
  facet normal -1 0 0
    outer loop
      vertex -11 20.2022 84.2724
      vertex -11 20.3003 85.7691
      vertex -11 20.3003 84.4423
    endloop
  endfacet
  facet normal -1 0 0
    outer loop
      vertex -11 20.2022 84.2724
      vertex -11 20.2022 85.9391
      vertex -11 20.3003 85.7691
    endloop
  endfacet
  facet normal -1 0 0
    outer loop
      vertex -11 20.0827 84.1167
      vertex -11 20.2022 85.9391
      vertex -11 20.2022 84.2724
    endloop
  endfacet
  facet normal -1 0 0
    outer loop
      vertex -11 20.0821 86.0953
      vertex -11 20.2022 85.9391
      vertex -11 20.0827 84.1167
    endloop
  endfacet
  facet normal -1 0 0
    outer loop
      vertex -11 20.2022 85.9391
      vertex -11 20.0821 86.0953
      vertex -11 20.0827 86.0947
    endloop
  endfacet
  facet normal -1 0 0
    outer loop
      vertex -11 18.8833 82.9173
      vertex -11 20.0821 86.0953
      vertex -11 20.0827 84.1167
    endloop
  endfacet
  facet normal -1 0 0
    outer loop
      vertex -11 16.9047 82.9179
      vertex -11 18.8833 82.9173
      vertex -11 18.7276 82.7978
    endloop
  endfacet
  facet normal -1 0 0
    outer loop
      vertex -11 16.9047 82.9179
      vertex -11 18.7276 82.7978
      vertex -11 18.5577 82.6997
    endloop
  endfacet
  facet normal -1 0 0
    outer loop
      vertex -11 16.9047 82.9179
      vertex -11 18.5577 82.6997
      vertex -11 18.3764 82.6247
    endloop
  endfacet
  facet normal -1 0 0
    outer loop
      vertex -11 16.9047 82.9179
      vertex -11 18.3764 82.6247
      vertex -11 18.1869 82.5739
    endloop
  endfacet
  facet normal -1 0 0
    outer loop
      vertex -11 16.9047 82.9179
      vertex -11 18.1869 82.5739
      vertex -11 17.9924 82.5483
    endloop
  endfacet
  facet normal -1 0 0
    outer loop
      vertex -11 16.9047 82.9179
      vertex -11 17.9924 82.5483
      vertex -11 17.7962 82.5483
    endloop
  endfacet
  facet normal -1 0 0
    outer loop
      vertex -11 16.9047 82.9179
      vertex -11 17.7962 82.5483
      vertex -11 17.6017 82.5739
    endloop
  endfacet
  facet normal -1 0 0
    outer loop
      vertex -11 16.9047 82.9179
      vertex -11 17.6017 82.5739
      vertex -11 17.4121 82.6247
    endloop
  endfacet
  facet normal -1 0 0
    outer loop
      vertex -11 16.9047 82.9179
      vertex -11 17.4121 82.6247
      vertex -11 17.2309 82.6997
    endloop
  endfacet
  facet normal -1 0 0
    outer loop
      vertex -11 16.9047 82.9179
      vertex -11 17.2309 82.6997
      vertex -11 17.0609 82.7978
    endloop
  endfacet
  facet normal -1 0 0
    outer loop
      vertex -11 16.9047 82.9179
      vertex -11 17.0609 82.7978
      vertex -11 16.9053 82.9173
    endloop
  endfacet
  facet normal -1 0 0
    outer loop
      vertex -11 18.8833 82.9173
      vertex -11 16.9047 82.9179
      vertex -11 20.0821 86.0953
    endloop
  endfacet
  facet normal -1 0 0
    outer loop
      vertex -11 3.30025 96.5223
      vertex -11 20.0821 86.0953
      vertex -11 16.9047 82.9179
    endloop
  endfacet
  facet normal -1 0 0
    outer loop
      vertex -11 5.09532 101.082
      vertex -11 4.93906 101.202
      vertex -11 5.09473 101.083
    endloop
  endfacet
  facet normal -1 0 0
    outer loop
      vertex -11 20.0821 86.0953
      vertex -11 3.30025 96.5223
      vertex -11 5.09532 101.082
    endloop
  endfacet
  facet normal -1 0 0
    outer loop
      vertex -11 3 97
      vertex -11 5.09532 101.082
      vertex -11 3.30025 96.5223
    endloop
  endfacet
  facet normal -1 0 0
    outer loop
      vertex -11 3 100.966
      vertex -11 5.09532 101.082
      vertex -11 3 97
    endloop
  endfacet
  facet normal -1 -0 0
    outer loop
      vertex -11 5.09532 101.082
      vertex -11 3 100.966
      vertex -11 4.93906 101.202
    endloop
  endfacet
  facet normal -1 -0 0
    outer loop
      vertex -11 4.93906 101.202
      vertex -11 3 100.966
      vertex -11 4.76914 101.3
    endloop
  endfacet
  facet normal -1 -0 0
    outer loop
      vertex -11 4.76914 101.3
      vertex -11 3 100.966
      vertex -11 4.58787 101.375
    endloop
  endfacet
  facet normal -1 -0 0
    outer loop
      vertex -11 4.58787 101.375
      vertex -11 3 100.966
      vertex -11 4.39834 101.426
    endloop
  endfacet
  facet normal -1 -0 0
    outer loop
      vertex -11 4.39834 101.426
      vertex -11 3 100.966
      vertex -11 4.20381 101.452
    endloop
  endfacet
  facet normal -1 -0 0
    outer loop
      vertex -11 4.20381 101.452
      vertex -11 3 100.966
      vertex -11 4.0076 101.452
    endloop
  endfacet
  facet normal -1 0 0
    outer loop
      vertex -11 4.0076 101.452
      vertex -11 3 100.966
      vertex -11 3.81307 101.426
    endloop
  endfacet
  facet normal -1 0 0
    outer loop
      vertex -11 3.81307 101.426
      vertex -11 3 100.966
      vertex -11 3.62355 101.375
    endloop
  endfacet
  facet normal -1 0 0
    outer loop
      vertex -11 3.62355 101.375
      vertex -11 3 100.966
      vertex -11 3.44228 101.3
    endloop
  endfacet
  facet normal -1 0 0
    outer loop
      vertex -11 3.44228 101.3
      vertex -11 3 100.966
      vertex -11 3.27235 101.202
    endloop
  endfacet
  facet normal -1 0 0
    outer loop
      vertex -11 3.27235 101.202
      vertex -11 3 100.966
      vertex -11 3.11669 101.083
    endloop
  endfacet
  facet normal -1 0 0
    outer loop
      vertex -11 29.9179 122.095
      vertex -11 36 128
      vertex -11 32.6881 118.666
    endloop
  endfacet
  facet normal -1 0 0
    outer loop
      vertex -11 32.3983 118.574
      vertex -11 32.6881 118.666
      vertex -11 32.5879 118.625
    endloop
  endfacet
  facet normal -1 -0 0
    outer loop
      vertex -11 32.6881 118.666
      vertex -11 32.3983 118.574
      vertex -11 31.1167 118.917
    endloop
  endfacet
  facet normal -1 0 0
    outer loop
      vertex -11 31.1167 118.917
      vertex -11 32.3983 118.574
      vertex -11 32.2038 118.548
    endloop
  endfacet
  facet normal -1 0 0
    outer loop
      vertex -11 31.1167 118.917
      vertex -11 32.2038 118.548
      vertex -11 32.0076 118.548
    endloop
  endfacet
  facet normal -1 0 0
    outer loop
      vertex -11 31.1167 118.917
      vertex -11 32.0076 118.548
      vertex -11 31.8131 118.574
    endloop
  endfacet
  facet normal -1 0 0
    outer loop
      vertex -11 31.1167 118.917
      vertex -11 31.8131 118.574
      vertex -11 31.6236 118.625
    endloop
  endfacet
  facet normal -1 0 0
    outer loop
      vertex -11 31.1167 118.917
      vertex -11 31.6236 118.625
      vertex -11 31.4423 118.7
    endloop
  endfacet
  facet normal -1 0 0
    outer loop
      vertex -11 31.1167 118.917
      vertex -11 31.4423 118.7
      vertex -11 31.2724 118.798
    endloop
  endfacet
  facet normal -1 0 0
    outer loop
      vertex -11 32.6881 118.666
      vertex -11 31.1167 118.917
      vertex -11 29.9179 122.095
    endloop
  endfacet
  facet normal -1 -0 0
    outer loop
      vertex -11 36 128
      vertex -11 29.9179 122.095
      vertex -11 36 128.177
    endloop
  endfacet
  facet normal -1 0 0
    outer loop
      vertex -11 29.9173 120.117
      vertex -11 29.9179 122.095
      vertex -11 31.1167 118.917
    endloop
  endfacet
  facet normal -1 0 0
    outer loop
      vertex -11 29.7978 120.272
      vertex -11 29.9179 122.095
      vertex -11 29.9173 120.117
    endloop
  endfacet
  facet normal -1 0 0
    outer loop
      vertex -11 29.7978 121.939
      vertex -11 29.9179 122.095
      vertex -11 29.7978 120.272
    endloop
  endfacet
  facet normal -1 -0 0
    outer loop
      vertex -11 29.9179 122.095
      vertex -11 29.7978 121.939
      vertex -11 29.9173 122.095
    endloop
  endfacet
  facet normal -1 0 0
    outer loop
      vertex -11 29.6997 120.442
      vertex -11 29.7978 121.939
      vertex -11 29.7978 120.272
    endloop
  endfacet
  facet normal -1 0 0
    outer loop
      vertex -11 29.6997 120.442
      vertex -11 29.6997 121.769
      vertex -11 29.7978 121.939
    endloop
  endfacet
  facet normal -1 0 0
    outer loop
      vertex -11 29.6247 120.624
      vertex -11 29.6997 121.769
      vertex -11 29.6997 120.442
    endloop
  endfacet
  facet normal -1 0 0
    outer loop
      vertex -11 29.6247 120.624
      vertex -11 29.6247 121.588
      vertex -11 29.6997 121.769
    endloop
  endfacet
  facet normal -1 0 0
    outer loop
      vertex -11 29.5739 120.813
      vertex -11 29.6247 121.588
      vertex -11 29.6247 120.624
    endloop
  endfacet
  facet normal -1 0 0
    outer loop
      vertex -11 29.5739 120.813
      vertex -11 29.5739 121.398
      vertex -11 29.6247 121.588
    endloop
  endfacet
  facet normal -1 0 0
    outer loop
      vertex -11 29.5483 121.008
      vertex -11 29.5739 121.398
      vertex -11 29.5739 120.813
    endloop
  endfacet
  facet normal -1 0 0
    outer loop
      vertex -11 29.5739 121.398
      vertex -11 29.5483 121.008
      vertex -11 29.5483 121.204
    endloop
  endfacet
  facet normal -1 0 0
    outer loop
      vertex -11 44.9053 65.0827
      vertex -11 47 64.966
      vertex -11 47 62
    endloop
  endfacet
  facet normal -1 0 0
    outer loop
      vertex -11 47 64.966
      vertex -11 44.9053 65.0827
      vertex -11 46.8833 65.0827
    endloop
  endfacet
  facet normal -1 0 0
    outer loop
      vertex -11 46.8833 65.0827
      vertex -11 44.9053 65.0827
      vertex -11 46.7276 65.2022
    endloop
  endfacet
  facet normal -1 -0 0
    outer loop
      vertex -11 46.7276 65.2022
      vertex -11 44.9053 65.0827
      vertex -11 46.5577 65.3003
    endloop
  endfacet
  facet normal -1 -0 0
    outer loop
      vertex -11 46.5577 65.3003
      vertex -11 44.9053 65.0827
      vertex -11 46.3764 65.3753
    endloop
  endfacet
  facet normal -1 -0 0
    outer loop
      vertex -11 46.3764 65.3753
      vertex -11 44.9053 65.0827
      vertex -11 46.1869 65.4261
    endloop
  endfacet
  facet normal -1 -0 0
    outer loop
      vertex -11 46.1869 65.4261
      vertex -11 44.9053 65.0827
      vertex -11 45.9924 65.4517
    endloop
  endfacet
  facet normal -1 -0 0
    outer loop
      vertex -11 45.9924 65.4517
      vertex -11 44.9053 65.0827
      vertex -11 45.7962 65.4517
    endloop
  endfacet
  facet normal -1 0 0
    outer loop
      vertex -11 45.7962 65.4517
      vertex -11 44.9053 65.0827
      vertex -11 45.6017 65.4261
    endloop
  endfacet
  facet normal -1 0 0
    outer loop
      vertex -11 45.6017 65.4261
      vertex -11 44.9053 65.0827
      vertex -11 45.4121 65.3753
    endloop
  endfacet
  facet normal -1 0 0
    outer loop
      vertex -11 45.4121 65.3753
      vertex -11 44.9053 65.0827
      vertex -11 45.2309 65.3003
    endloop
  endfacet
  facet normal -1 0 0
    outer loop
      vertex -11 44.9053 65.0827
      vertex -11 47 62
      vertex -11 45.0075 58.8301
    endloop
  endfacet
  facet normal -1 0 0
    outer loop
      vertex -11 45.2309 65.3003
      vertex -11 44.9053 65.0827
      vertex -11 45.0609 65.2022
    endloop
  endfacet
  facet normal -1 -0 0
    outer loop
      vertex -11 45.0075 58.8301
      vertex -11 36.8026 56.98
      vertex -11 44.9053 65.0827
    endloop
  endfacet
  facet normal -1 0 0
    outer loop
      vertex -11 34.4044 48.227
      vertex -11 36.8026 56.98
      vertex -11 45.0075 58.8301
    endloop
  endfacet
  facet normal -1 0 0
    outer loop
      vertex -11 31.6657 51.8431
      vertex -11 34.4044 48.227
      vertex -11 33.5914 47.414
    endloop
  endfacet
  facet normal -1 0 0
    outer loop
      vertex -11 31.1167 46.9173
      vertex -11 33.5914 47.414
      vertex -11 33.0953 46.9179
    endloop
  endfacet
  facet normal -1 0 0
    outer loop
      vertex -11 32.9391 46.7978
      vertex -11 33.0953 46.9179
      vertex -11 33.0947 46.9173
    endloop
  endfacet
  facet normal -1 0 0
    outer loop
      vertex -11 33.0953 46.9179
      vertex -11 32.9391 46.7978
      vertex -11 31.1167 46.9173
    endloop
  endfacet
  facet normal -1 0 0
    outer loop
      vertex -11 31.1167 46.9173
      vertex -11 32.9391 46.7978
      vertex -11 32.7691 46.6997
    endloop
  endfacet
  facet normal -1 0 0
    outer loop
      vertex -11 31.1167 46.9173
      vertex -11 32.7691 46.6997
      vertex -11 32.5879 46.6247
    endloop
  endfacet
  facet normal -1 0 0
    outer loop
      vertex -11 31.1167 46.9173
      vertex -11 32.5879 46.6247
      vertex -11 32.3983 46.5739
    endloop
  endfacet
  facet normal -1 0 0
    outer loop
      vertex -11 31.1167 46.9173
      vertex -11 32.3983 46.5739
      vertex -11 32.2038 46.5483
    endloop
  endfacet
  facet normal -1 0 0
    outer loop
      vertex -11 31.1167 46.9173
      vertex -11 32.2038 46.5483
      vertex -11 32.0076 46.5483
    endloop
  endfacet
  facet normal -1 0 0
    outer loop
      vertex -11 31.1167 46.9173
      vertex -11 32.0076 46.5483
      vertex -11 31.8131 46.5739
    endloop
  endfacet
  facet normal -1 0 0
    outer loop
      vertex -11 34.4044 48.227
      vertex -11 31.6657 51.8431
      vertex -11 36.8026 56.98
    endloop
  endfacet
  facet normal -1 0 0
    outer loop
      vertex -11 31.1167 46.9173
      vertex -11 31.8131 46.5739
      vertex -11 31.6236 46.6247
    endloop
  endfacet
  facet normal -1 0 0
    outer loop
      vertex -11 31.1167 46.9173
      vertex -11 31.6236 46.6247
      vertex -11 31.4423 46.6997
    endloop
  endfacet
  facet normal -1 0 0
    outer loop
      vertex -11 31.1167 46.9173
      vertex -11 31.4423 46.6997
      vertex -11 31.2724 46.7978
    endloop
  endfacet
  facet normal -1 0 0
    outer loop
      vertex -11 29.9173 48.1167
      vertex -11 33.5914 47.414
      vertex -11 31.1167 46.9173
    endloop
  endfacet
  facet normal -1 0 0
    outer loop
      vertex -11 33.5914 47.414
      vertex -11 29.9179 50.0953
      vertex -11 31.6657 51.8431
    endloop
  endfacet
  facet normal -1 0 0
    outer loop
      vertex -11 33.5914 47.414
      vertex -11 29.9173 48.1167
      vertex -11 29.9179 50.0953
    endloop
  endfacet
  facet normal -1 0 0
    outer loop
      vertex -11 29.7978 48.2724
      vertex -11 29.9179 50.0953
      vertex -11 29.9173 48.1167
    endloop
  endfacet
  facet normal -1 0 0
    outer loop
      vertex -11 29.7978 49.9391
      vertex -11 29.9179 50.0953
      vertex -11 29.7978 48.2724
    endloop
  endfacet
  facet normal -1 0 0
    outer loop
      vertex -11 29.9179 50.0953
      vertex -11 29.7978 49.9391
      vertex -11 29.9173 50.0947
    endloop
  endfacet
  facet normal -1 0 0
    outer loop
      vertex -11 29.6997 48.4423
      vertex -11 29.7978 49.9391
      vertex -11 29.7978 48.2724
    endloop
  endfacet
  facet normal -1 0 0
    outer loop
      vertex -11 29.6997 48.4423
      vertex -11 29.6997 49.7691
      vertex -11 29.7978 49.9391
    endloop
  endfacet
  facet normal -1 0 0
    outer loop
      vertex -11 29.6247 48.6236
      vertex -11 29.6997 49.7691
      vertex -11 29.6997 48.4423
    endloop
  endfacet
  facet normal -1 0 0
    outer loop
      vertex -11 29.6247 48.6236
      vertex -11 29.6247 49.5879
      vertex -11 29.6997 49.7691
    endloop
  endfacet
  facet normal -1 0 0
    outer loop
      vertex -11 29.5739 48.8131
      vertex -11 29.6247 49.5879
      vertex -11 29.6247 48.6236
    endloop
  endfacet
  facet normal -1 0 0
    outer loop
      vertex -11 29.5739 48.8131
      vertex -11 29.5739 49.3983
      vertex -11 29.6247 49.5879
    endloop
  endfacet
  facet normal -1 0 0
    outer loop
      vertex -11 29.5483 49.0076
      vertex -11 29.5739 49.3983
      vertex -11 29.5739 48.8131
    endloop
  endfacet
  facet normal -1 0 0
    outer loop
      vertex -11 29.5739 49.3983
      vertex -11 29.5483 49.0076
      vertex -11 29.5483 49.2038
    endloop
  endfacet
  facet normal -0 0 1
    outer loop
      vertex -11 36 150
      vertex 11 14 150
      vertex 11 36 150
    endloop
  endfacet
  facet normal 0 0 1
    outer loop
      vertex 11 14 150
      vertex -11 36 150
      vertex -11 14 150
    endloop
  endfacet
  facet normal 0 0 -1
    outer loop
      vertex -11 14 150
      vertex 11 36 150
      vertex 11 14 150
    endloop
  endfacet
  facet normal -0 0 -1
    outer loop
      vertex 11 36 150
      vertex -11 14 150
      vertex -11 36 150
    endloop
  endfacet
  facet normal 0 -1 0
    outer loop
      vertex -11 3 97
      vertex 11 3 100.966
      vertex -11 3 100.966
    endloop
  endfacet
  facet normal 0 -1 -0
    outer loop
      vertex 11 3 100.966
      vertex -11 3 97
      vertex 11 3 97
    endloop
  endfacet
  facet normal 0 0.942433 -0.334395
    outer loop
      vertex 11 32.6881 118.666
      vertex -11 36 128
      vertex 11 36 128
    endloop
  endfacet
  facet normal 0 0.942433 -0.334395
    outer loop
      vertex -11 36 128
      vertex 11 32.6881 118.666
      vertex -11 32.6881 118.666
    endloop
  endfacet
  facet normal 0 -0.846651 -0.532148
    outer loop
      vertex -11 3.30025 96.5223
      vertex 11 3 97
      vertex -11 3 97
    endloop
  endfacet
  facet normal 0 -0.846651 -0.532148
    outer loop
      vertex 11 3 97
      vertex -11 3.30025 96.5223
      vertex 11 3.30025 96.5223
    endloop
  endfacet
  facet normal 0 1 -0
    outer loop
      vertex 11 47 62
      vertex -11 47 64.966
      vertex 11 47 64.966
    endloop
  endfacet
  facet normal 0 1 0
    outer loop
      vertex -11 47 64.966
      vertex 11 47 62
      vertex -11 47 62
    endloop
  endfacet
  facet normal 0 0.846638 -0.53217
    outer loop
      vertex -1.95755 45.0075 58.8301
      vertex 11 47 62
      vertex 11 45.0075 58.8301
    endloop
  endfacet
  facet normal 0 0.846638 -0.53217
    outer loop
      vertex 11 47 62
      vertex -1.95755 45.0075 58.8301
      vertex -11 47 62
    endloop
  endfacet
  facet normal 0 0.846638 -0.53217
    outer loop
      vertex -11 47 62
      vertex -1.95755 45.0075 58.8301
      vertex -11 45.0075 58.8301
    endloop
  endfacet
  facet normal 0 1 -0
    outer loop
      vertex 11 36 128
      vertex -11 36 128.177
      vertex 11 36 128.177
    endloop
  endfacet
  facet normal 0 1 0
    outer loop
      vertex -11 36 128.177
      vertex 11 36 128
      vertex -11 36 128
    endloop
  endfacet
  facet normal 0 -0.132498 -0.991183
    outer loop
      vertex -11 31.8131 118.574
      vertex 11 32.0076 118.548
      vertex 11 31.8131 118.574
    endloop
  endfacet
  facet normal -0 -0.132498 -0.991183
    outer loop
      vertex 11 32.0076 118.548
      vertex -11 31.8131 118.574
      vertex -11 32.0076 118.548
    endloop
  endfacet
  facet normal 0 -0.866135 -0.499811
    outer loop
      vertex -11 29.7978 120.272
      vertex 11 29.6997 120.442
      vertex -11 29.6997 120.442
    endloop
  endfacet
  facet normal 0 -0.866135 -0.499811
    outer loop
      vertex 11 29.6997 120.442
      vertex -11 29.7978 120.272
      vertex 11 29.7978 120.272
    endloop
  endfacet
  facet normal 0 0 -1
    outer loop
      vertex -11 32.0076 118.548
      vertex 11 32.2038 118.548
      vertex 11 32.0076 118.548
    endloop
  endfacet
  facet normal -0 0 -1
    outer loop
      vertex 11 32.2038 118.548
      vertex -11 32.0076 118.548
      vertex -11 32.2038 118.548
    endloop
  endfacet
  facet normal 0 -0.991492 -0.130165
    outer loop
      vertex -11 29.5739 120.813
      vertex 11 29.5483 121.008
      vertex -11 29.5483 121.008
    endloop
  endfacet
  facet normal 0 -0.991492 -0.130165
    outer loop
      vertex 11 29.5483 121.008
      vertex -11 29.5739 120.813
      vertex 11 29.5739 120.813
    endloop
  endfacet
  facet normal 0 -0.924573 -0.381005
    outer loop
      vertex -11 29.6997 120.442
      vertex 11 29.6247 120.624
      vertex -11 29.6247 120.624
    endloop
  endfacet
  facet normal 0 -0.924573 -0.381005
    outer loop
      vertex 11 29.6247 120.624
      vertex -11 29.6997 120.442
      vertex 11 29.6997 120.442
    endloop
  endfacet
  facet normal 0 -0.866135 0.499811
    outer loop
      vertex -11 29.6997 121.769
      vertex 11 29.7978 121.939
      vertex -11 29.7978 121.939
    endloop
  endfacet
  facet normal 0 -0.866135 0.499811
    outer loop
      vertex 11 29.7978 121.939
      vertex -11 29.6997 121.769
      vertex 11 29.6997 121.769
    endloop
  endfacet
  facet normal 0 -1 0
    outer loop
      vertex -11 29.5483 121.008
      vertex 11 29.5483 121.204
      vertex -11 29.5483 121.204
    endloop
  endfacet
  facet normal 0 -1 -0
    outer loop
      vertex 11 29.5483 121.204
      vertex -11 29.5483 121.008
      vertex 11 29.5483 121.008
    endloop
  endfacet
  facet normal 0 -0.92383 0.382803
    outer loop
      vertex -11 29.6247 121.588
      vertex 11 29.6997 121.769
      vertex -11 29.6997 121.769
    endloop
  endfacet
  facet normal 0 -0.92383 0.382803
    outer loop
      vertex 11 29.6997 121.769
      vertex -11 29.6247 121.588
      vertex 11 29.6247 121.588
    endloop
  endfacet
  facet normal 0 -0.607242 -0.794517
    outer loop
      vertex -11 31.1167 118.917
      vertex 11 31.2724 118.798
      vertex 11 31.1167 118.917
    endloop
  endfacet
  facet normal -0 -0.607242 -0.794517
    outer loop
      vertex 11 31.2724 118.798
      vertex -11 31.1167 118.917
      vertex -11 31.2724 118.798
    endloop
  endfacet
  facet normal 0 -0.966066 0.258296
    outer loop
      vertex -11 29.5739 121.398
      vertex 11 29.6247 121.588
      vertex -11 29.6247 121.588
    endloop
  endfacet
  facet normal 0 -0.966066 0.258296
    outer loop
      vertex 11 29.6247 121.588
      vertex -11 29.5739 121.398
      vertex 11 29.5739 121.398
    endloop
  endfacet
  facet normal 0 -0.793852 0.608111
    outer loop
      vertex -11 29.7978 121.939
      vertex 11 29.9173 122.095
      vertex -11 29.9173 122.095
    endloop
  endfacet
  facet normal 0 -0.793852 0.608111
    outer loop
      vertex 11 29.9173 122.095
      vertex -11 29.7978 121.939
      vertex 11 29.7978 121.939
    endloop
  endfacet
  facet normal 0 -0.499649 -0.866228
    outer loop
      vertex -11 31.2724 118.798
      vertex 11 31.4423 118.7
      vertex 11 31.2724 118.798
    endloop
  endfacet
  facet normal -0 -0.499649 -0.866228
    outer loop
      vertex 11 31.4423 118.7
      vertex -11 31.2724 118.798
      vertex -11 31.4423 118.7
    endloop
  endfacet
  facet normal 0 -0.707284 -0.70693
    outer loop
      vertex -11 31.1167 118.917
      vertex 11 29.9173 120.117
      vertex -11 29.9173 120.117
    endloop
  endfacet
  facet normal 0 -0.707284 -0.70693
    outer loop
      vertex 11 29.9173 120.117
      vertex -11 31.1167 118.917
      vertex 11 31.1167 118.917
    endloop
  endfacet
  facet normal 0 -0.991406 0.130825
    outer loop
      vertex -11 29.5483 121.204
      vertex 11 29.5739 121.398
      vertex -11 29.5739 121.398
    endloop
  endfacet
  facet normal 0 -0.991406 0.130825
    outer loop
      vertex 11 29.5739 121.398
      vertex -11 29.5483 121.204
      vertex 11 29.5483 121.204
    endloop
  endfacet
  facet normal 0 -0.382262 -0.924054
    outer loop
      vertex -11 31.4423 118.7
      vertex 11 31.6236 118.625
      vertex 11 31.4423 118.7
    endloop
  endfacet
  facet normal -0 -0.382262 -0.924054
    outer loop
      vertex 11 31.6236 118.625
      vertex -11 31.4423 118.7
      vertex -11 31.6236 118.625
    endloop
  endfacet
  facet normal 0 -0.791959 -0.610575
    outer loop
      vertex -11 29.9173 120.117
      vertex 11 29.7978 120.272
      vertex -11 29.7978 120.272
    endloop
  endfacet
  facet normal 0 -0.791959 -0.610575
    outer loop
      vertex 11 29.7978 120.272
      vertex -11 29.9173 120.117
      vertex 11 29.9173 120.117
    endloop
  endfacet
  facet normal 0 -0.259882 -0.96564
    outer loop
      vertex -11 31.6236 118.625
      vertex 11 31.8131 118.574
      vertex 11 31.6236 118.625
    endloop
  endfacet
  facet normal -0 -0.259882 -0.96564
    outer loop
      vertex 11 31.8131 118.574
      vertex -11 31.6236 118.625
      vertex -11 31.8131 118.574
    endloop
  endfacet
  facet normal 0 -0.965724 -0.25957
    outer loop
      vertex -11 29.6247 120.624
      vertex 11 29.5739 120.813
      vertex -11 29.5739 120.813
    endloop
  endfacet
  facet normal 0 -0.965724 -0.25957
    outer loop
      vertex 11 29.5739 120.813
      vertex -11 29.6247 120.624
      vertex 11 29.6247 120.624
    endloop
  endfacet
  facet normal 0 0.378705 -0.925518
    outer loop
      vertex -11 32.5879 118.625
      vertex 11 32.6881 118.666
      vertex 11 32.5879 118.625
    endloop
  endfacet
  facet normal 0 0.378705 -0.925518
    outer loop
      vertex 11 32.6881 118.666
      vertex -11 32.5879 118.625
      vertex -11 32.6881 118.666
    endloop
  endfacet
  facet normal 0 0.132498 -0.991183
    outer loop
      vertex -11 32.2038 118.548
      vertex 11 32.3983 118.574
      vertex 11 32.2038 118.548
    endloop
  endfacet
  facet normal 0 0.132498 -0.991183
    outer loop
      vertex 11 32.3983 118.574
      vertex -11 32.2038 118.548
      vertex -11 32.3983 118.574
    endloop
  endfacet
  facet normal 0 0.259754 -0.965675
    outer loop
      vertex -11 32.3983 118.574
      vertex 11 32.5879 118.625
      vertex 11 32.3983 118.574
    endloop
  endfacet
  facet normal 0 0.259754 -0.965675
    outer loop
      vertex 11 32.5879 118.625
      vertex -11 32.3983 118.574
      vertex -11 32.5879 118.625
    endloop
  endfacet
  facet normal 0 -0.707101 0.707113
    outer loop
      vertex -11 36 128.177
      vertex 11 29.9179 122.095
      vertex 11 36 128.177
    endloop
  endfacet
  facet normal 0 -0.707101 0.707113
    outer loop
      vertex 11 29.9179 122.095
      vertex -11 36 128.177
      vertex -11 29.9179 122.095
    endloop
  endfacet
  facet normal -0 0 1
    outer loop
      vertex -11 29.9179 122.095
      vertex 11 29.9173 122.095
      vertex 11 29.9179 122.095
    endloop
  endfacet
  facet normal 0 0 1
    outer loop
      vertex 11 29.9173 122.095
      vertex -11 29.9179 122.095
      vertex -11 29.9173 122.095
    endloop
  endfacet
  facet normal 0 0.965896 -0.258931
    outer loop
      vertex 11 20.3753 84.6236
      vertex -11 20.4261 84.8131
      vertex 11 20.4261 84.8131
    endloop
  endfacet
  facet normal 0 0.965896 -0.258931
    outer loop
      vertex -11 20.4261 84.8131
      vertex 11 20.3753 84.6236
      vertex -11 20.3753 84.6236
    endloop
  endfacet
  facet normal 0 0.707107 -0.707107
    outer loop
      vertex 11 18.8833 82.9173
      vertex -11 20.0827 84.1167
      vertex 11 20.0827 84.1167
    endloop
  endfacet
  facet normal 0 0.707107 -0.707107
    outer loop
      vertex -11 20.0827 84.1167
      vertex 11 18.8833 82.9173
      vertex -11 18.8833 82.9173
    endloop
  endfacet
  facet normal 0 -0.60734 0.794442
    outer loop
      vertex -11 3.27235 101.202
      vertex 11 3.11669 101.083
      vertex 11 3.27235 101.202
    endloop
  endfacet
  facet normal 0 -0.60734 0.794442
    outer loop
      vertex 11 3.11669 101.083
      vertex -11 3.27235 101.202
      vertex -11 3.11669 101.083
    endloop
  endfacet
  facet normal 0 -0.382316 0.924032
    outer loop
      vertex -11 3.62355 101.375
      vertex 11 3.44228 101.3
      vertex 11 3.62355 101.375
    endloop
  endfacet
  facet normal 0 -0.382316 0.924032
    outer loop
      vertex 11 3.44228 101.3
      vertex -11 3.62355 101.375
      vertex -11 3.44228 101.3
    endloop
  endfacet
  facet normal 0 -0.382442 -0.92398
    outer loop
      vertex -11 17.2309 82.6997
      vertex 11 17.4121 82.6247
      vertex 11 17.2309 82.6997
    endloop
  endfacet
  facet normal -0 -0.382442 -0.92398
    outer loop
      vertex 11 17.4121 82.6247
      vertex -11 17.2309 82.6997
      vertex -11 17.4121 82.6247
    endloop
  endfacet
  facet normal 0 -0.499811 -0.866135
    outer loop
      vertex -11 17.0609 82.7978
      vertex 11 17.2309 82.6997
      vertex 11 17.0609 82.7978
    endloop
  endfacet
  facet normal -0 -0.499811 -0.866135
    outer loop
      vertex 11 17.2309 82.6997
      vertex -11 17.0609 82.7978
      vertex -11 17.2309 82.6997
    endloop
  endfacet
  facet normal 0 0.793286 -0.608849
    outer loop
      vertex 11 20.0827 84.1167
      vertex -11 20.2022 84.2724
      vertex 11 20.2022 84.2724
    endloop
  endfacet
  facet normal 0 0.793286 -0.608849
    outer loop
      vertex -11 20.2022 84.2724
      vertex 11 20.0827 84.1167
      vertex -11 20.0827 84.1167
    endloop
  endfacet
  facet normal -0 0.259844 0.965651
    outer loop
      vertex -11 4.58787 101.375
      vertex 11 4.39834 101.426
      vertex 11 4.58787 101.375
    endloop
  endfacet
  facet normal 0 0.259844 0.965651
    outer loop
      vertex 11 4.39834 101.426
      vertex -11 4.58787 101.375
      vertex -11 4.39834 101.426
    endloop
  endfacet
  facet normal 0 0 -1
    outer loop
      vertex -11 17.7962 82.5483
      vertex 11 17.9924 82.5483
      vertex 11 17.7962 82.5483
    endloop
  endfacet
  facet normal -0 0 -1
    outer loop
      vertex 11 17.9924 82.5483
      vertex -11 17.7962 82.5483
      vertex -11 17.9924 82.5483
    endloop
  endfacet
  facet normal 0 -0.609095 -0.793097
    outer loop
      vertex -11 16.9053 82.9173
      vertex 11 17.0609 82.7978
      vertex 11 16.9053 82.9173
    endloop
  endfacet
  facet normal -0 -0.609095 -0.793097
    outer loop
      vertex 11 17.0609 82.7978
      vertex -11 16.9053 82.9173
      vertex -11 17.0609 82.7978
    endloop
  endfacet
  facet normal 0 0.608849 -0.793286
    outer loop
      vertex -11 18.7276 82.7978
      vertex 11 18.8833 82.9173
      vertex 11 18.7276 82.7978
    endloop
  endfacet
  facet normal 0 0.608849 -0.793286
    outer loop
      vertex 11 18.8833 82.9173
      vertex -11 18.7276 82.7978
      vertex -11 18.8833 82.9173
    endloop
  endfacet
  facet normal 0 0.258931 -0.965896
    outer loop
      vertex -11 18.1869 82.5739
      vertex 11 18.3764 82.6247
      vertex 11 18.1869 82.5739
    endloop
  endfacet
  facet normal 0 0.258931 -0.965896
    outer loop
      vertex 11 18.3764 82.6247
      vertex -11 18.1869 82.5739
      vertex -11 18.3764 82.6247
    endloop
  endfacet
  facet normal -0 0.499605 0.866253
    outer loop
      vertex -11 4.93906 101.202
      vertex 11 4.76914 101.3
      vertex 11 4.93906 101.202
    endloop
  endfacet
  facet normal 0 0.499605 0.866253
    outer loop
      vertex 11 4.76914 101.3
      vertex -11 4.93906 101.202
      vertex -11 4.76914 101.3
    endloop
  endfacet
  facet normal -0 0 1
    outer loop
      vertex -11 4.20381 101.452
      vertex 11 4.0076 101.452
      vertex 11 4.20381 101.452
    endloop
  endfacet
  facet normal 0 0 1
    outer loop
      vertex 11 4.0076 101.452
      vertex -11 4.20381 101.452
      vertex -11 4.0076 101.452
    endloop
  endfacet
  facet normal 0 -0.258804 -0.96593
    outer loop
      vertex -11 17.4121 82.6247
      vertex 11 17.6017 82.5739
      vertex 11 17.4121 82.6247
    endloop
  endfacet
  facet normal -0 -0.258804 -0.96593
    outer loop
      vertex 11 17.6017 82.5739
      vertex -11 17.4121 82.6247
      vertex -11 17.6017 82.5739
    endloop
  endfacet
  facet normal -0 0.382316 0.924032
    outer loop
      vertex -11 4.76914 101.3
      vertex 11 4.58787 101.375
      vertex 11 4.76914 101.3
    endloop
  endfacet
  facet normal 0 0.382316 0.924032
    outer loop
      vertex 11 4.58787 101.375
      vertex -11 4.76914 101.3
      vertex -11 4.58787 101.375
    endloop
  endfacet
  facet normal 0 0.96593 0.258804
    outer loop
      vertex 11 20.4261 85.3983
      vertex -11 20.3753 85.5879
      vertex 11 20.3753 85.5879
    endloop
  endfacet
  facet normal 0 0.96593 0.258804
    outer loop
      vertex -11 20.3753 85.5879
      vertex 11 20.4261 85.3983
      vertex -11 20.4261 85.3983
    endloop
  endfacet
  facet normal -0 0.132477 0.991186
    outer loop
      vertex -11 4.39834 101.426
      vertex 11 4.20381 101.452
      vertex 11 4.39834 101.426
    endloop
  endfacet
  facet normal 0 0.132477 0.991186
    outer loop
      vertex 11 4.20381 101.452
      vertex -11 4.39834 101.426
      vertex -11 4.20381 101.452
    endloop
  endfacet
  facet normal -0 0.607316 0.794461
    outer loop
      vertex -11 5.09473 101.083
      vertex 11 4.93906 101.202
      vertex 11 5.09473 101.083
    endloop
  endfacet
  facet normal 0 0.607316 0.794461
    outer loop
      vertex 11 4.93906 101.202
      vertex -11 5.09473 101.083
      vertex -11 4.93906 101.202
    endloop
  endfacet
  facet normal 0 0.793097 0.609095
    outer loop
      vertex 11 20.2022 85.9391
      vertex -11 20.0827 86.0947
      vertex 11 20.0827 86.0947
    endloop
  endfacet
  facet normal 0 0.793097 0.609095
    outer loop
      vertex -11 20.0827 86.0947
      vertex 11 20.2022 85.9391
      vertex -11 20.2022 85.9391
    endloop
  endfacet
  facet normal 0 -0.708044 0.706168
    outer loop
      vertex -11 3 100.966
      vertex 11 3.11669 101.083
      vertex -11 3.11669 101.083
    endloop
  endfacet
  facet normal 0 -0.708044 0.706168
    outer loop
      vertex 11 3.11669 101.083
      vertex -11 3 100.966
      vertex 11 3 100.966
    endloop
  endfacet
  facet normal 0 0.92398 0.382442
    outer loop
      vertex 11 20.3753 85.5879
      vertex -11 20.3003 85.7691
      vertex 11 20.3003 85.7691
    endloop
  endfacet
  facet normal 0 0.92398 0.382442
    outer loop
      vertex -11 20.3003 85.7691
      vertex 11 20.3753 85.5879
      vertex -11 20.3753 85.5879
    endloop
  endfacet
  facet normal 0 0.130494 -0.991449
    outer loop
      vertex -11 17.9924 82.5483
      vertex 11 18.1869 82.5739
      vertex 11 17.9924 82.5483
    endloop
  endfacet
  facet normal 0 0.130494 -0.991449
    outer loop
      vertex 11 18.1869 82.5739
      vertex -11 17.9924 82.5483
      vertex -11 18.1869 82.5739
    endloop
  endfacet
  facet normal 0 -0.499583 0.866266
    outer loop
      vertex -11 3.44228 101.3
      vertex 11 3.27235 101.202
      vertex 11 3.44228 101.3
    endloop
  endfacet
  facet normal 0 -0.499583 0.866266
    outer loop
      vertex 11 3.27235 101.202
      vertex -11 3.44228 101.3
      vertex -11 3.27235 101.202
    endloop
  endfacet
  facet normal 0 0.500031 -0.866007
    outer loop
      vertex -11 18.5577 82.6997
      vertex 11 18.7276 82.7978
      vertex 11 18.5577 82.6997
    endloop
  endfacet
  facet normal 0 0.500031 -0.866007
    outer loop
      vertex 11 18.7276 82.7978
      vertex -11 18.5577 82.6997
      vertex -11 18.7276 82.7978
    endloop
  endfacet
  facet normal 0 -0.707105 -0.707108
    outer loop
      vertex -11 3.30025 96.5223
      vertex 11 16.9047 82.9179
      vertex 11 3.30025 96.5223
    endloop
  endfacet
  facet normal -0 -0.707105 -0.707108
    outer loop
      vertex 11 16.9047 82.9179
      vertex -11 3.30025 96.5223
      vertex -11 16.9047 82.9179
    endloop
  endfacet
  facet normal 0 -0.132477 0.991186
    outer loop
      vertex -11 4.0076 101.452
      vertex 11 3.81307 101.426
      vertex 11 4.0076 101.452
    endloop
  endfacet
  facet normal 0 -0.132477 0.991186
    outer loop
      vertex 11 3.81307 101.426
      vertex -11 4.0076 101.452
      vertex -11 3.81307 101.426
    endloop
  endfacet
  facet normal 0 -0.130494 -0.991449
    outer loop
      vertex -11 17.6017 82.5739
      vertex 11 17.7962 82.5483
      vertex 11 17.6017 82.5739
    endloop
  endfacet
  facet normal -0 -0.130494 -0.991449
    outer loop
      vertex 11 17.7962 82.5483
      vertex -11 17.6017 82.5739
      vertex -11 17.7962 82.5483
    endloop
  endfacet
  facet normal 0 0.382262 -0.924054
    outer loop
      vertex -11 18.3764 82.6247
      vertex 11 18.5577 82.6997
      vertex 11 18.3764 82.6247
    endloop
  endfacet
  facet normal 0 0.382262 -0.924054
    outer loop
      vertex 11 18.5577 82.6997
      vertex -11 18.3764 82.6247
      vertex -11 18.5577 82.6997
    endloop
  endfacet
  facet normal 0 0.924054 -0.382262
    outer loop
      vertex 11 20.3003 84.4423
      vertex -11 20.3753 84.6236
      vertex 11 20.3753 84.6236
    endloop
  endfacet
  facet normal 0 0.924054 -0.382262
    outer loop
      vertex -11 20.3753 84.6236
      vertex 11 20.3003 84.4423
      vertex -11 20.3003 84.4423
    endloop
  endfacet
  facet normal 0 -0.259857 0.965647
    outer loop
      vertex -11 3.81307 101.426
      vertex 11 3.62355 101.375
      vertex 11 3.81307 101.426
    endloop
  endfacet
  facet normal 0 -0.259857 0.965647
    outer loop
      vertex 11 3.62355 101.375
      vertex -11 3.81307 101.426
      vertex -11 3.62355 101.375
    endloop
  endfacet
  facet normal 0 0.707107 0.707107
    outer loop
      vertex 11 20.0827 86.0947
      vertex -11 20.0821 86.0953
      vertex 11 20.0821 86.0953
    endloop
  endfacet
  facet normal 0 0.707107 0.707107
    outer loop
      vertex -11 20.0821 86.0953
      vertex 11 20.0827 86.0947
      vertex -11 20.0827 86.0947
    endloop
  endfacet
  facet normal 0 0.866135 0.499811
    outer loop
      vertex 11 20.3003 85.7691
      vertex -11 20.2022 85.9391
      vertex 11 20.2022 85.9391
    endloop
  endfacet
  facet normal 0 0.866135 0.499811
    outer loop
      vertex -11 20.2022 85.9391
      vertex 11 20.3003 85.7691
      vertex -11 20.3003 85.7691
    endloop
  endfacet
  facet normal 0 0.866007 -0.500031
    outer loop
      vertex 11 20.2022 84.2724
      vertex -11 20.3003 84.4423
      vertex 11 20.3003 84.4423
    endloop
  endfacet
  facet normal 0 0.866007 -0.500031
    outer loop
      vertex -11 20.3003 84.4423
      vertex 11 20.2022 84.2724
      vertex -11 20.2022 84.2724
    endloop
  endfacet
  facet normal 0 0.991449 0.130494
    outer loop
      vertex 11 20.4517 85.2038
      vertex -11 20.4261 85.3983
      vertex 11 20.4261 85.3983
    endloop
  endfacet
  facet normal 0 0.991449 0.130494
    outer loop
      vertex -11 20.4261 85.3983
      vertex 11 20.4517 85.2038
      vertex -11 20.4517 85.2038
    endloop
  endfacet
  facet normal 0 0.991449 -0.130494
    outer loop
      vertex 11 20.4261 84.8131
      vertex -11 20.4517 85.0076
      vertex 11 20.4517 85.0076
    endloop
  endfacet
  facet normal 0 0.991449 -0.130494
    outer loop
      vertex -11 20.4517 85.0076
      vertex 11 20.4261 84.8131
      vertex -11 20.4261 84.8131
    endloop
  endfacet
  facet normal 0 1 -0
    outer loop
      vertex 11 20.4517 85.0076
      vertex -11 20.4517 85.2038
      vertex 11 20.4517 85.2038
    endloop
  endfacet
  facet normal 0 1 0
    outer loop
      vertex -11 20.4517 85.2038
      vertex 11 20.4517 85.0076
      vertex -11 20.4517 85.0076
    endloop
  endfacet
  facet normal 0 -0.707107 -0.707107
    outer loop
      vertex -11 16.9053 82.9173
      vertex 11 16.9047 82.9179
      vertex -11 16.9047 82.9179
    endloop
  endfacet
  facet normal 0 -0.707107 -0.707107
    outer loop
      vertex 11 16.9047 82.9179
      vertex -11 16.9053 82.9173
      vertex 11 16.9053 82.9173
    endloop
  endfacet
  facet normal 0 0.861269 0.508149
    outer loop
      vertex 11 5.09532 101.082
      vertex -11 5.09473 101.083
      vertex 11 5.09473 101.083
    endloop
  endfacet
  facet normal 0 0.861269 0.508149
    outer loop
      vertex -11 5.09473 101.083
      vertex 11 5.09532 101.082
      vertex -11 5.09532 101.082
    endloop
  endfacet
  facet normal -0 0.707105 0.707109
    outer loop
      vertex -11 20.0821 86.0953
      vertex 11 5.09532 101.082
      vertex 11 20.0821 86.0953
    endloop
  endfacet
  facet normal 0 0.707105 0.707109
    outer loop
      vertex 11 5.09532 101.082
      vertex -11 20.0821 86.0953
      vertex -11 5.09532 101.082
    endloop
  endfacet
  facet normal 0 -0.130494 -0.991449
    outer loop
      vertex -11 31.8131 46.5739
      vertex 11 32.0076 46.5483
      vertex 11 31.8131 46.5739
    endloop
  endfacet
  facet normal -0 -0.130494 -0.991449
    outer loop
      vertex 11 32.0076 46.5483
      vertex -11 31.8131 46.5739
      vertex -11 32.0076 46.5483
    endloop
  endfacet
  facet normal 0 -0.866007 -0.500031
    outer loop
      vertex -11 29.7978 48.2724
      vertex 11 29.6997 48.4423
      vertex -11 29.6997 48.4423
    endloop
  endfacet
  facet normal 0 -0.866007 -0.500031
    outer loop
      vertex 11 29.6997 48.4423
      vertex -11 29.7978 48.2724
      vertex 11 29.7978 48.2724
    endloop
  endfacet
  facet normal -0 0.258931 0.965896
    outer loop
      vertex -11 46.3764 65.3753
      vertex 11 46.1869 65.4261
      vertex 11 46.3764 65.3753
    endloop
  endfacet
  facet normal 0 0.258931 0.965896
    outer loop
      vertex 11 46.1869 65.4261
      vertex -11 46.3764 65.3753
      vertex -11 46.1869 65.4261
    endloop
  endfacet
  facet normal 0 0 -1
    outer loop
      vertex -11 32.0076 46.5483
      vertex 11 32.2038 46.5483
      vertex 11 32.0076 46.5483
    endloop
  endfacet
  facet normal -0 0 -1
    outer loop
      vertex 11 32.2038 46.5483
      vertex -11 32.0076 46.5483
      vertex -11 32.2038 46.5483
    endloop
  endfacet
  facet normal -0 0.500031 0.866007
    outer loop
      vertex -11 46.7276 65.2022
      vertex 11 46.5577 65.3003
      vertex 11 46.7276 65.2022
    endloop
  endfacet
  facet normal 0 0.500031 0.866007
    outer loop
      vertex 11 46.5577 65.3003
      vertex -11 46.7276 65.2022
      vertex -11 46.5577 65.3003
    endloop
  endfacet
  facet normal 0 0.499811 -0.866135
    outer loop
      vertex -11 32.7691 46.6997
      vertex 11 32.9391 46.7978
      vertex 11 32.7691 46.6997
    endloop
  endfacet
  facet normal 0 0.499811 -0.866135
    outer loop
      vertex 11 32.9391 46.7978
      vertex -11 32.7691 46.6997
      vertex -11 32.9391 46.7978
    endloop
  endfacet
  facet normal 0 -0.991449 -0.130494
    outer loop
      vertex -11 29.5739 48.8131
      vertex 11 29.5483 49.0076
      vertex -11 29.5483 49.0076
    endloop
  endfacet
  facet normal 0 -0.991449 -0.130494
    outer loop
      vertex 11 29.5483 49.0076
      vertex -11 29.5739 48.8131
      vertex 11 29.5739 48.8131
    endloop
  endfacet
  facet normal 0 -0.130494 0.991449
    outer loop
      vertex -11 45.7962 65.4517
      vertex 11 45.6017 65.4261
      vertex 11 45.7962 65.4517
    endloop
  endfacet
  facet normal 0 -0.130494 0.991449
    outer loop
      vertex 11 45.6017 65.4261
      vertex -11 45.7962 65.4517
      vertex -11 45.6017 65.4261
    endloop
  endfacet
  facet normal 0 0.130494 -0.991449
    outer loop
      vertex -11 32.2038 46.5483
      vertex 11 32.3983 46.5739
      vertex 11 32.2038 46.5483
    endloop
  endfacet
  facet normal 0 0.130494 -0.991449
    outer loop
      vertex 11 32.3983 46.5739
      vertex -11 32.2038 46.5483
      vertex -11 32.3983 46.5739
    endloop
  endfacet
  facet normal 0 0.609095 -0.793097
    outer loop
      vertex -11 32.9391 46.7978
      vertex 11 33.0947 46.9173
      vertex 11 32.9391 46.7978
    endloop
  endfacet
  facet normal 0 0.609095 -0.793097
    outer loop
      vertex 11 33.0947 46.9173
      vertex -11 32.9391 46.7978
      vertex -11 33.0947 46.9173
    endloop
  endfacet
  facet normal 0 -0.924054 -0.382262
    outer loop
      vertex -11 29.6997 48.4423
      vertex 11 29.6247 48.6236
      vertex -11 29.6247 48.6236
    endloop
  endfacet
  facet normal 0 -0.924054 -0.382262
    outer loop
      vertex 11 29.6247 48.6236
      vertex -11 29.6997 48.4423
      vertex 11 29.6997 48.4423
    endloop
  endfacet
  facet normal 0 -0.382442 0.92398
    outer loop
      vertex -11 45.4121 65.3753
      vertex 11 45.2309 65.3003
      vertex 11 45.4121 65.3753
    endloop
  endfacet
  facet normal 0 -0.382442 0.92398
    outer loop
      vertex 11 45.2309 65.3003
      vertex -11 45.4121 65.3753
      vertex -11 45.2309 65.3003
    endloop
  endfacet
  facet normal 0 -0.866135 0.499811
    outer loop
      vertex -11 29.6997 49.7691
      vertex 11 29.7978 49.9391
      vertex -11 29.7978 49.9391
    endloop
  endfacet
  facet normal 0 -0.866135 0.499811
    outer loop
      vertex 11 29.7978 49.9391
      vertex -11 29.6997 49.7691
      vertex 11 29.6997 49.7691
    endloop
  endfacet
  facet normal 0 -1 0
    outer loop
      vertex -11 29.5483 49.0076
      vertex 11 29.5483 49.2038
      vertex -11 29.5483 49.2038
    endloop
  endfacet
  facet normal 0 -1 -0
    outer loop
      vertex 11 29.5483 49.2038
      vertex -11 29.5483 49.0076
      vertex 11 29.5483 49.0076
    endloop
  endfacet
  facet normal -0 0.382262 0.924054
    outer loop
      vertex -11 46.5577 65.3003
      vertex 11 46.3764 65.3753
      vertex 11 46.5577 65.3003
    endloop
  endfacet
  facet normal 0 0.382262 0.924054
    outer loop
      vertex 11 46.3764 65.3753
      vertex -11 46.5577 65.3003
      vertex -11 46.3764 65.3753
    endloop
  endfacet
  facet normal 0 -0.92398 0.382442
    outer loop
      vertex -11 29.6247 49.5879
      vertex 11 29.6997 49.7691
      vertex -11 29.6997 49.7691
    endloop
  endfacet
  facet normal 0 -0.92398 0.382442
    outer loop
      vertex 11 29.6997 49.7691
      vertex -11 29.6247 49.5879
      vertex 11 29.6247 49.5879
    endloop
  endfacet
  facet normal 0 -0.608849 -0.793286
    outer loop
      vertex -11 31.1167 46.9173
      vertex 11 31.2724 46.7978
      vertex 11 31.1167 46.9173
    endloop
  endfacet
  facet normal -0 -0.608849 -0.793286
    outer loop
      vertex 11 31.2724 46.7978
      vertex -11 31.1167 46.9173
      vertex -11 31.2724 46.7978
    endloop
  endfacet
  facet normal 0 -0.96593 0.258804
    outer loop
      vertex -11 29.5739 49.3983
      vertex 11 29.6247 49.5879
      vertex -11 29.6247 49.5879
    endloop
  endfacet
  facet normal 0 -0.96593 0.258804
    outer loop
      vertex 11 29.6247 49.5879
      vertex -11 29.5739 49.3983
      vertex 11 29.5739 49.3983
    endloop
  endfacet
  facet normal 0 -0.793097 0.609095
    outer loop
      vertex -11 29.7978 49.9391
      vertex 11 29.9173 50.0947
      vertex -11 29.9173 50.0947
    endloop
  endfacet
  facet normal 0 -0.793097 0.609095
    outer loop
      vertex 11 29.9173 50.0947
      vertex -11 29.7978 49.9391
      vertex 11 29.7978 49.9391
    endloop
  endfacet
  facet normal 0 -0.609095 0.793097
    outer loop
      vertex -11 45.0609 65.2022
      vertex 11 44.9053 65.0827
      vertex 11 45.0609 65.2022
    endloop
  endfacet
  facet normal 0 -0.609095 0.793097
    outer loop
      vertex 11 44.9053 65.0827
      vertex -11 45.0609 65.2022
      vertex -11 44.9053 65.0827
    endloop
  endfacet
  facet normal 0 0.707107 0.707107
    outer loop
      vertex 11 47 64.966
      vertex -11 46.8833 65.0827
      vertex 11 46.8833 65.0827
    endloop
  endfacet
  facet normal 0 0.707107 0.707107
    outer loop
      vertex -11 46.8833 65.0827
      vertex 11 47 64.966
      vertex -11 47 64.966
    endloop
  endfacet
  facet normal 0 -0.500031 -0.866007
    outer loop
      vertex -11 31.2724 46.7978
      vertex 11 31.4423 46.6997
      vertex 11 31.2724 46.7978
    endloop
  endfacet
  facet normal -0 -0.500031 -0.866007
    outer loop
      vertex 11 31.4423 46.6997
      vertex -11 31.2724 46.7978
      vertex -11 31.4423 46.6997
    endloop
  endfacet
  facet normal 0 -0.707107 -0.707107
    outer loop
      vertex -11 31.1167 46.9173
      vertex 11 29.9173 48.1167
      vertex -11 29.9173 48.1167
    endloop
  endfacet
  facet normal 0 -0.707107 -0.707107
    outer loop
      vertex 11 29.9173 48.1167
      vertex -11 31.1167 46.9173
      vertex 11 31.1167 46.9173
    endloop
  endfacet
  facet normal 0 -0.991449 0.130494
    outer loop
      vertex -11 29.5483 49.2038
      vertex 11 29.5739 49.3983
      vertex -11 29.5739 49.3983
    endloop
  endfacet
  facet normal 0 -0.991449 0.130494
    outer loop
      vertex 11 29.5739 49.3983
      vertex -11 29.5483 49.2038
      vertex 11 29.5483 49.2038
    endloop
  endfacet
  facet normal 0 -0.382262 -0.924054
    outer loop
      vertex -11 31.4423 46.6997
      vertex 11 31.6236 46.6247
      vertex 11 31.4423 46.6997
    endloop
  endfacet
  facet normal -0 -0.382262 -0.924054
    outer loop
      vertex 11 31.6236 46.6247
      vertex -11 31.4423 46.6997
      vertex -11 31.6236 46.6247
    endloop
  endfacet
  facet normal 0 -0.793286 -0.608849
    outer loop
      vertex -11 29.9173 48.1167
      vertex 11 29.7978 48.2724
      vertex -11 29.7978 48.2724
    endloop
  endfacet
  facet normal 0 -0.793286 -0.608849
    outer loop
      vertex 11 29.7978 48.2724
      vertex -11 29.9173 48.1167
      vertex 11 29.9173 48.1167
    endloop
  endfacet
  facet normal -0 0.608849 0.793286
    outer loop
      vertex -11 46.8833 65.0827
      vertex 11 46.7276 65.2022
      vertex 11 46.8833 65.0827
    endloop
  endfacet
  facet normal 0 0.608849 0.793286
    outer loop
      vertex 11 46.7276 65.2022
      vertex -11 46.8833 65.0827
      vertex -11 46.7276 65.2022
    endloop
  endfacet
  facet normal 0 -0.258931 -0.965896
    outer loop
      vertex -11 31.6236 46.6247
      vertex 11 31.8131 46.5739
      vertex 11 31.6236 46.6247
    endloop
  endfacet
  facet normal -0 -0.258931 -0.965896
    outer loop
      vertex 11 31.8131 46.5739
      vertex -11 31.6236 46.6247
      vertex -11 31.8131 46.5739
    endloop
  endfacet
  facet normal 0 -0.965896 -0.258931
    outer loop
      vertex -11 29.6247 48.6236
      vertex 11 29.5739 48.8131
      vertex -11 29.5739 48.8131
    endloop
  endfacet
  facet normal 0 -0.965896 -0.258931
    outer loop
      vertex 11 29.5739 48.8131
      vertex -11 29.6247 48.6236
      vertex 11 29.6247 48.6236
    endloop
  endfacet
  facet normal 0 0.382442 -0.92398
    outer loop
      vertex -11 32.5879 46.6247
      vertex 11 32.7691 46.6997
      vertex 11 32.5879 46.6247
    endloop
  endfacet
  facet normal 0 0.382442 -0.92398
    outer loop
      vertex 11 32.7691 46.6997
      vertex -11 32.5879 46.6247
      vertex -11 32.7691 46.6997
    endloop
  endfacet
  facet normal 0 -0.499811 0.866135
    outer loop
      vertex -11 45.2309 65.3003
      vertex 11 45.0609 65.2022
      vertex 11 45.2309 65.3003
    endloop
  endfacet
  facet normal 0 -0.499811 0.866135
    outer loop
      vertex 11 45.0609 65.2022
      vertex -11 45.2309 65.3003
      vertex -11 45.0609 65.2022
    endloop
  endfacet
  facet normal -0 0 1
    outer loop
      vertex -11 45.9924 65.4517
      vertex 11 45.7962 65.4517
      vertex 11 45.9924 65.4517
    endloop
  endfacet
  facet normal 0 0 1
    outer loop
      vertex 11 45.7962 65.4517
      vertex -11 45.9924 65.4517
      vertex -11 45.7962 65.4517
    endloop
  endfacet
  facet normal 0 0.258804 -0.96593
    outer loop
      vertex -11 32.3983 46.5739
      vertex 11 32.5879 46.6247
      vertex 11 32.3983 46.5739
    endloop
  endfacet
  facet normal 0 0.258804 -0.96593
    outer loop
      vertex 11 32.5879 46.6247
      vertex -11 32.3983 46.5739
      vertex -11 32.5879 46.6247
    endloop
  endfacet
  facet normal -0 0.130494 0.991449
    outer loop
      vertex -11 46.1869 65.4261
      vertex 11 45.9924 65.4517
      vertex 11 46.1869 65.4261
    endloop
  endfacet
  facet normal 0 0.130494 0.991449
    outer loop
      vertex 11 45.9924 65.4517
      vertex -11 46.1869 65.4261
      vertex -11 45.9924 65.4517
    endloop
  endfacet
  facet normal 0 -0.258804 0.96593
    outer loop
      vertex -11 45.6017 65.4261
      vertex 11 45.4121 65.3753
      vertex 11 45.6017 65.4261
    endloop
  endfacet
  facet normal 0 -0.258804 0.96593
    outer loop
      vertex 11 45.4121 65.3753
      vertex -11 45.6017 65.4261
      vertex -11 45.4121 65.3753
    endloop
  endfacet
  facet normal -1.41176e-16 -0.707107 0.707107
    outer loop
      vertex -11 36.8026 56.98
      vertex 11 32.9451 53.1225
      vertex 11 41.8423 62.0197
    endloop
  endfacet
  facet normal -2.27848e-16 -0.707107 0.707107
    outer loop
      vertex 11 32.9451 53.1225
      vertex -11 36.8026 56.98
      vertex -11 31.6657 51.8431
    endloop
  endfacet
  facet normal 0 -0.707107 0.707107
    outer loop
      vertex -11 44.9053 65.0827
      vertex 11 41.8423 62.0197
      vertex 11 44.9053 65.0827
    endloop
  endfacet
  facet normal 1.40927e-16 -0.707107 0.707107
    outer loop
      vertex 11 41.8423 62.0197
      vertex -11 44.9053 65.0827
      vertex -11 36.8026 56.98
    endloop
  endfacet
  facet normal 0 -0.707107 0.707107
    outer loop
      vertex 11 29.9179 50.0953
      vertex -11 31.6657 51.8431
      vertex -11 29.9179 50.0953
    endloop
  endfacet
  facet normal -1.79174e-16 -0.707107 0.707107
    outer loop
      vertex -11 31.6657 51.8431
      vertex 11 29.9179 50.0953
      vertex 11 32.9451 53.1225
    endloop
  endfacet
  facet normal 0 0.707107 -0.707107
    outer loop
      vertex 11 33.0947 46.9173
      vertex -11 33.0953 46.9179
      vertex 11 33.0953 46.9179
    endloop
  endfacet
  facet normal 0 0.707107 -0.707107
    outer loop
      vertex -11 33.0953 46.9179
      vertex 11 33.0947 46.9173
      vertex -11 33.0947 46.9173
    endloop
  endfacet
  facet normal 0 0.707107 -0.707107
    outer loop
      vertex -11 33.5914 47.414
      vertex 11 33.0953 46.9179
      vertex -11 33.0953 46.9179
    endloop
  endfacet
  facet normal 0 0.707107 -0.707107
    outer loop
      vertex 11 33.0953 46.9179
      vertex -11 33.5914 47.414
      vertex 11 33.9738 47.7964
    endloop
  endfacet
  facet normal 1.1808e-17 0.707107 -0.707107
    outer loop
      vertex 11 33.9738 47.7964
      vertex -11 34.4044 48.227
      vertex 11 34.4271 48.2497
    endloop
  endfacet
  facet normal 1.07535e-16 0.707107 -0.707107
    outer loop
      vertex -11 34.4044 48.227
      vertex 11 33.9738 47.7964
      vertex -11 33.5914 47.414
    endloop
  endfacet
  facet normal 0 0.707107 -0.707107
    outer loop
      vertex 11 45.0075 58.8301
      vertex 11 41.6476 55.4702
      vertex -1.95755 45.0075 58.8301
    endloop
  endfacet
  facet normal 2.14805e-16 0.707107 -0.707107
    outer loop
      vertex 11 34.4271 48.2497
      vertex -1.95755 45.0075 58.8301
      vertex 11 41.6476 55.4702
    endloop
  endfacet
  facet normal 0 0.707107 -0.707107
    outer loop
      vertex -1.95755 45.0075 58.8301
      vertex 11 34.4271 48.2497
      vertex -11 34.4044 48.227
    endloop
  endfacet
  facet normal 0 0.707107 -0.707107
    outer loop
      vertex -1.95755 45.0075 58.8301
      vertex -11 34.4044 48.227
      vertex -11 45.0075 58.8301
    endloop
  endfacet
  facet normal 0 -0.707107 0.707107
    outer loop
      vertex -11 29.9179 50.0953
      vertex 11 29.9173 50.0947
      vertex 11 29.9179 50.0953
    endloop
  endfacet
  facet normal 0 -0.707107 0.707107
    outer loop
      vertex 11 29.9173 50.0947
      vertex -11 29.9179 50.0953
      vertex -11 29.9173 50.0947
    endloop
  endfacet
endsolid OpenSCAD_Model
