solid OpenSCAD_Model
  facet normal 1 -0 0
    outer loop
      vertex 78 23 7
      vertex 78 29 0
      vertex 78 29 7
    endloop
  endfacet
  facet normal 1 -0 0
    outer loop
      vertex 78 13.5 8
      vertex 78 23 7
      vertex 78 22.5 8
    endloop
  endfacet
  facet normal 1 0 0
    outer loop
      vertex 78 13 7
      vertex 78 23 7
      vertex 78 13.5 8
    endloop
  endfacet
  facet normal 1 0 0
    outer loop
      vertex 78 23 7
      vertex 78 13 7
      vertex 78 29 0
    endloop
  endfacet
  facet normal 1 0 0
    outer loop
      vertex 78 7 0
      vertex 78 13 7
      vertex 78 7 7
    endloop
  endfacet
  facet normal 1 0 0
    outer loop
      vertex 78 13 7
      vertex 78 7 0
      vertex 78 29 0
    endloop
  endfacet
  facet normal -0 0 1
    outer loop
      vertex 10 29 3
      vertex 76 25 3
      vertex 76 29 3
    endloop
  endfacet
  facet normal 0 0 1
    outer loop
      vertex 76 25 3
      vertex 10 29 3
      vertex 10 25 3
    endloop
  endfacet
  facet normal -0 0 1
    outer loop
      vertex 10 11 3
      vertex 76 7 3
      vertex 76 11 3
    endloop
  endfacet
  facet normal 0 0 1
    outer loop
      vertex 76 7 3
      vertex 10 11 3
      vertex 10 7 3
    endloop
  endfacet
  facet normal 0 0 -1
    outer loop
      vertex 8 7 0
      vertex 78 29 0
      vertex 78 7 0
    endloop
  endfacet
  facet normal -0 0 -1
    outer loop
      vertex 78 29 0
      vertex 8 7 0
      vertex 8 29 0
    endloop
  endfacet
  facet normal -1 0 0
    outer loop
      vertex 8 29 0
      vertex 8 23 7
      vertex 8 29 7
    endloop
  endfacet
  facet normal -1 0 0
    outer loop
      vertex 8 23 7
      vertex 8 13.5 8
      vertex 8 22.5 8
    endloop
  endfacet
  facet normal -1 0 0
    outer loop
      vertex 8 13 7
      vertex 8 23 7
      vertex 8 29 0
    endloop
  endfacet
  facet normal -1 0 0
    outer loop
      vertex 8 23 7
      vertex 8 13 7
      vertex 8 13.5 8
    endloop
  endfacet
  facet normal -1 0 0
    outer loop
      vertex 8 7 0
      vertex 8 13 7
      vertex 8 29 0
    endloop
  endfacet
  facet normal -1 -0 0
    outer loop
      vertex 8 13 7
      vertex 8 7 0
      vertex 8 7 7
    endloop
  endfacet
  facet normal 0 1 0
    outer loop
      vertex 78 29 7
      vertex 76 29 3
      vertex 76 29 7
    endloop
  endfacet
  facet normal 0 1 0
    outer loop
      vertex 76 29 3
      vertex 78 29 0
      vertex 10 29 3
    endloop
  endfacet
  facet normal 0 1 -0
    outer loop
      vertex 78 29 0
      vertex 76 29 3
      vertex 78 29 7
    endloop
  endfacet
  facet normal 0 1 -0
    outer loop
      vertex 10 29 3
      vertex 8 29 7
      vertex 10 29 7
    endloop
  endfacet
  facet normal 0 1 0
    outer loop
      vertex 10 29 3
      vertex 8 29 0
      vertex 8 29 7
    endloop
  endfacet
  facet normal 0 1 0
    outer loop
      vertex 8 29 0
      vertex 10 29 3
      vertex 78 29 0
    endloop
  endfacet
  facet normal 0 -1 0
    outer loop
      vertex 8 7 7
      vertex 10 7 3
      vertex 10 7 7
    endloop
  endfacet
  facet normal 0 -1 -0
    outer loop
      vertex 10 7 3
      vertex 8 7 0
      vertex 76 7 3
    endloop
  endfacet
  facet normal 0 -1 0
    outer loop
      vertex 8 7 0
      vertex 10 7 3
      vertex 8 7 7
    endloop
  endfacet
  facet normal 0 -1 0
    outer loop
      vertex 76 7 3
      vertex 78 7 7
      vertex 76 7 7
    endloop
  endfacet
  facet normal 0 -1 0
    outer loop
      vertex 76 7 3
      vertex 78 7 0
      vertex 78 7 7
    endloop
  endfacet
  facet normal 0 -1 0
    outer loop
      vertex 78 7 0
      vertex 76 7 3
      vertex 8 7 0
    endloop
  endfacet
  facet normal 0 0.894427 0.447214
    outer loop
      vertex 76 25 3
      vertex 10 23 7
      vertex 76 23 7
    endloop
  endfacet
  facet normal 0 0.894427 0.447214
    outer loop
      vertex 10 23 7
      vertex 76 25 3
      vertex 10 25 3
    endloop
  endfacet
  facet normal -0 0.894427 0.447214
    outer loop
      vertex 76 23 7
      vertex 78 22.5 8
      vertex 78 23 7
    endloop
  endfacet
  facet normal 0 0.894427 0.447214
    outer loop
      vertex 78 22.5 8
      vertex 76 23 7
      vertex 8 22.5 8
    endloop
  endfacet
  facet normal -0 0.894427 0.447214
    outer loop
      vertex 10 23 7
      vertex 8 22.5 8
      vertex 76 23 7
    endloop
  endfacet
  facet normal 0 0.894427 0.447214
    outer loop
      vertex 8 22.5 8
      vertex 10 23 7
      vertex 8 23 7
    endloop
  endfacet
  facet normal -0 0 1
    outer loop
      vertex 8 22.5 8
      vertex 78 13.5 8
      vertex 78 22.5 8
    endloop
  endfacet
  facet normal 0 0 1
    outer loop
      vertex 78 13.5 8
      vertex 8 22.5 8
      vertex 8 13.5 8
    endloop
  endfacet
  facet normal 0 -0.894427 0.447214
    outer loop
      vertex 10 11 3
      vertex 76 13 7
      vertex 10 13 7
    endloop
  endfacet
  facet normal 0 -0.894427 0.447214
    outer loop
      vertex 76 13 7
      vertex 10 11 3
      vertex 76 11 3
    endloop
  endfacet
  facet normal 0 -0.894427 0.447214
    outer loop
      vertex 10 13 7
      vertex 8 13.5 8
      vertex 8 13 7
    endloop
  endfacet
  facet normal 0 -0.894427 0.447214
    outer loop
      vertex 8 13.5 8
      vertex 10 13 7
      vertex 78 13.5 8
    endloop
  endfacet
  facet normal 0 -0.894427 0.447214
    outer loop
      vertex 76 13 7
      vertex 78 13.5 8
      vertex 10 13 7
    endloop
  endfacet
  facet normal 0 -0.894427 0.447214
    outer loop
      vertex 78 13.5 8
      vertex 76 13 7
      vertex 78 13 7
    endloop
  endfacet
  facet normal 1 0 0
    outer loop
      vertex 10 29 7
      vertex 10 25 3
      vertex 10 29 3
    endloop
  endfacet
  facet normal 1 0 -0
    outer loop
      vertex 10 25 3
      vertex 10 29 7
      vertex 10 23 7
    endloop
  endfacet
  facet normal 1 -0 0
    outer loop
      vertex 10 7 7
      vertex 10 11 3
      vertex 10 13 7
    endloop
  endfacet
  facet normal 1 0 0
    outer loop
      vertex 10 11 3
      vertex 10 7 7
      vertex 10 7 3
    endloop
  endfacet
  facet normal -0 0 1
    outer loop
      vertex 8 29 7
      vertex 10 23 7
      vertex 10 29 7
    endloop
  endfacet
  facet normal 0 0 1
    outer loop
      vertex 10 23 7
      vertex 8 29 7
      vertex 8 23 7
    endloop
  endfacet
  facet normal -0 0 1
    outer loop
      vertex 8 13 7
      vertex 10 7 7
      vertex 10 13 7
    endloop
  endfacet
  facet normal 0 0 1
    outer loop
      vertex 10 7 7
      vertex 8 13 7
      vertex 8 7 7
    endloop
  endfacet
  facet normal -0 0 1
    outer loop
      vertex 76 29 7
      vertex 78 23 7
      vertex 78 29 7
    endloop
  endfacet
  facet normal 0 0 1
    outer loop
      vertex 78 23 7
      vertex 76 29 7
      vertex 76 23 7
    endloop
  endfacet
  facet normal -0 0 1
    outer loop
      vertex 76 13 7
      vertex 78 7 7
      vertex 78 13 7
    endloop
  endfacet
  facet normal 0 0 1
    outer loop
      vertex 78 7 7
      vertex 76 13 7
      vertex 76 7 7
    endloop
  endfacet
  facet normal -1 0 0
    outer loop
      vertex 76 25 3
      vertex 76 29 7
      vertex 76 29 3
    endloop
  endfacet
  facet normal -1 -0 0
    outer loop
      vertex 76 29 7
      vertex 76 25 3
      vertex 76 23 7
    endloop
  endfacet
  facet normal -1 0 0
    outer loop
      vertex 76 7 7
      vertex 76 11 3
      vertex 76 7 3
    endloop
  endfacet
  facet normal -1 0 0
    outer loop
      vertex 76 11 3
      vertex 76 7 7
      vertex 76 13 7
    endloop
  endfacet
  facet normal 1 0 0
    outer loop
      vertex 56 65.5 11
      vertex 56 64 3.1
      vertex 56 65.5 0
    endloop
  endfacet
  facet normal 1 -0 0
    outer loop
      vertex 56 60 8.2
      vertex 56 64 3.1
      vertex 56 65.5 11
    endloop
  endfacet
  facet normal 1 0 0
    outer loop
      vertex 56 64 3.1
      vertex 56 60 8.2
      vertex 56 62.3611 3.1
    endloop
  endfacet
  facet normal 1 0 0
    outer loop
      vertex 56 65.5 11
      vertex 56 50 8.2
      vertex 56 60 8.2
    endloop
  endfacet
  facet normal 1 0 0
    outer loop
      vertex 56 50 8.2
      vertex 56 46 3.1
      vertex 56 47.6389 3.1
    endloop
  endfacet
  facet normal 1 -0 0
    outer loop
      vertex 56 44.5 11
      vertex 56 50 8.2
      vertex 56 65.5 11
    endloop
  endfacet
  facet normal 1 0 0
    outer loop
      vertex 56 44.5 11
      vertex 56 46 3.1
      vertex 56 50 8.2
    endloop
  endfacet
  facet normal 1 0 0
    outer loop
      vertex 56 44.5 0
      vertex 56 46 3.1
      vertex 56 44.5 11
    endloop
  endfacet
  facet normal 1 0 0
    outer loop
      vertex 56 46 3.1
      vertex 56 44.5 0
      vertex 56 46 0
    endloop
  endfacet
  facet normal 1 0 0
    outer loop
      vertex 56 65.5 0
      vertex 56 64 3.1
      vertex 56 64 0
    endloop
  endfacet
  facet normal -0.831438 -0.555617 0
    outer loop
      vertex 30.5166 42.9781 0
      vertex 30.3349 43.25 11
      vertex 30.3349 43.25 0
    endloop
  endfacet
  facet normal -0.831438 -0.555617 0
    outer loop
      vertex 30.3349 43.25 11
      vertex 30.5166 42.9781 0
      vertex 30.5166 42.9781 11
    endloop
  endfacet
  facet normal -0.32136 -0.946957 0
    outer loop
      vertex 31.5433 42.1903 0
      vertex 31.853 42.0852 11
      vertex 31.5433 42.1903 11
    endloop
  endfacet
  facet normal -0.32136 -0.946957 -0
    outer loop
      vertex 31.853 42.0852 11
      vertex 31.5433 42.1903 0
      vertex 31.853 42.0852 0
    endloop
  endfacet
  facet normal 0.946957 -0.32136 0
    outer loop
      vertex 55.8097 43.5433 11
      vertex 55.9148 43.853 0
      vertex 55.9148 43.853 11
    endloop
  endfacet
  facet normal 0.946957 -0.32136 0
    outer loop
      vertex 55.9148 43.853 0
      vertex 55.8097 43.5433 11
      vertex 55.8097 43.5433 0
    endloop
  endfacet
  facet normal 0.896921 0.442191 0
    outer loop
      vertex 55.8097 66.4567 11
      vertex 55.6651 66.75 0
      vertex 55.6651 66.75 11
    endloop
  endfacet
  facet normal 0.896921 0.442191 0
    outer loop
      vertex 55.6651 66.75 0
      vertex 55.8097 66.4567 11
      vertex 55.8097 66.4567 0
    endloop
  endfacet
  facet normal -0.0654432 -0.997856 0
    outer loop
      vertex 32.1737 42.0214 0
      vertex 32.5 42 11
      vertex 32.1737 42.0214 11
    endloop
  endfacet
  facet normal -0.0654432 -0.997856 -0
    outer loop
      vertex 32.5 42 11
      vertex 32.1737 42.0214 0
      vertex 32.5 42 0
    endloop
  endfacet
  facet normal 0.831438 0.555617 0
    outer loop
      vertex 55.6651 66.75 11
      vertex 55.4834 67.0219 0
      vertex 55.4834 67.0219 11
    endloop
  endfacet
  facet normal 0.831438 0.555617 0
    outer loop
      vertex 55.4834 67.0219 0
      vertex 55.6651 66.75 11
      vertex 55.6651 66.75 0
    endloop
  endfacet
  facet normal -0.659262 0.751913 0
    outer loop
      vertex 30.9781 67.4834 0
      vertex 30.7322 67.2678 11
      vertex 30.9781 67.4834 11
    endloop
  endfacet
  facet normal -0.659262 0.751913 0
    outer loop
      vertex 30.7322 67.2678 11
      vertex 30.9781 67.4834 0
      vertex 30.7322 67.2678 0
    endloop
  endfacet
  facet normal -0.896921 -0.442191 0
    outer loop
      vertex 30.3349 43.25 0
      vertex 30.1903 43.5433 11
      vertex 30.1903 43.5433 0
    endloop
  endfacet
  facet normal -0.896921 -0.442191 0
    outer loop
      vertex 30.1903 43.5433 11
      vertex 30.3349 43.25 0
      vertex 30.3349 43.25 11
    endloop
  endfacet
  facet normal 0 1 -0
    outer loop
      vertex 53.5 68 0
      vertex 32.5 68 11
      vertex 53.5 68 11
    endloop
  endfacet
  facet normal 0 1 0
    outer loop
      vertex 32.5 68 11
      vertex 53.5 68 0
      vertex 32.5 68 0
    endloop
  endfacet
  facet normal -1 0 0
    outer loop
      vertex 30 46 0
      vertex 30 44.5 0
      vertex 30 46 3.1
    endloop
  endfacet
  facet normal -1 0 0
    outer loop
      vertex 30 64 3.1
      vertex 30 65.5 0
      vertex 30 64 0
    endloop
  endfacet
  facet normal -1 0 0
    outer loop
      vertex 30 65.5 0
      vertex 30 64 3.1
      vertex 30 65.5 11
    endloop
  endfacet
  facet normal -1 0 0
    outer loop
      vertex 30 60 8.2
      vertex 30 64 3.1
      vertex 30 62.3611 3.1
    endloop
  endfacet
  facet normal -1 0 0
    outer loop
      vertex 30 64 3.1
      vertex 30 60 8.2
      vertex 30 65.5 11
    endloop
  endfacet
  facet normal -1 0 0
    outer loop
      vertex 30 50 8.2
      vertex 30 65.5 11
      vertex 30 60 8.2
    endloop
  endfacet
  facet normal -1 0 0
    outer loop
      vertex 30 46 3.1
      vertex 30 50 8.2
      vertex 30 47.6389 3.1
    endloop
  endfacet
  facet normal -1 0 0
    outer loop
      vertex 30 50 8.2
      vertex 30 44.5 11
      vertex 30 65.5 11
    endloop
  endfacet
  facet normal -1 0 0
    outer loop
      vertex 30 46 3.1
      vertex 30 44.5 11
      vertex 30 50 8.2
    endloop
  endfacet
  facet normal -1 0 0
    outer loop
      vertex 30 44.5 11
      vertex 30 46 3.1
      vertex 30 44.5 0
    endloop
  endfacet
  facet normal 0.555617 -0.831438 0
    outer loop
      vertex 54.75 42.3349 0
      vertex 55.0219 42.5166 11
      vertex 54.75 42.3349 11
    endloop
  endfacet
  facet normal 0.555617 -0.831438 0
    outer loop
      vertex 55.0219 42.5166 11
      vertex 54.75 42.3349 0
      vertex 55.0219 42.5166 0
    endloop
  endfacet
  facet normal 0.946957 0.32136 0
    outer loop
      vertex 55.9148 66.147 11
      vertex 55.8097 66.4567 0
      vertex 55.8097 66.4567 11
    endloop
  endfacet
  facet normal 0.946957 0.32136 0
    outer loop
      vertex 55.8097 66.4567 0
      vertex 55.9148 66.147 11
      vertex 55.9148 66.147 0
    endloop
  endfacet
  facet normal -0.751913 -0.659262 0
    outer loop
      vertex 30.7322 42.7322 0
      vertex 30.5166 42.9781 11
      vertex 30.5166 42.9781 0
    endloop
  endfacet
  facet normal -0.751913 -0.659262 0
    outer loop
      vertex 30.5166 42.9781 11
      vertex 30.7322 42.7322 0
      vertex 30.7322 42.7322 11
    endloop
  endfacet
  facet normal 0.0654432 0.997856 -0
    outer loop
      vertex 53.8263 67.9786 0
      vertex 53.5 68 11
      vertex 53.8263 67.9786 11
    endloop
  endfacet
  facet normal 0.0654432 0.997856 0
    outer loop
      vertex 53.5 68 11
      vertex 53.8263 67.9786 0
      vertex 53.5 68 0
    endloop
  endfacet
  facet normal 0.442191 -0.896921 0
    outer loop
      vertex 54.4567 42.1903 0
      vertex 54.75 42.3349 11
      vertex 54.4567 42.1903 11
    endloop
  endfacet
  facet normal 0.442191 -0.896921 0
    outer loop
      vertex 54.75 42.3349 11
      vertex 54.4567 42.1903 0
      vertex 54.75 42.3349 0
    endloop
  endfacet
  facet normal 0.831438 -0.555617 0
    outer loop
      vertex 55.4834 42.9781 11
      vertex 55.6651 43.25 0
      vertex 55.6651 43.25 11
    endloop
  endfacet
  facet normal 0.831438 -0.555617 0
    outer loop
      vertex 55.6651 43.25 0
      vertex 55.4834 42.9781 11
      vertex 55.4834 42.9781 0
    endloop
  endfacet
  facet normal 0.0654432 -0.997856 0
    outer loop
      vertex 53.5 42 0
      vertex 53.8263 42.0214 11
      vertex 53.5 42 11
    endloop
  endfacet
  facet normal 0.0654432 -0.997856 0
    outer loop
      vertex 53.8263 42.0214 11
      vertex 53.5 42 0
      vertex 53.8263 42.0214 0
    endloop
  endfacet
  facet normal -0.896921 0.442191 0
    outer loop
      vertex 30.1903 66.4567 0
      vertex 30.3349 66.75 11
      vertex 30.3349 66.75 0
    endloop
  endfacet
  facet normal -0.896921 0.442191 0
    outer loop
      vertex 30.3349 66.75 11
      vertex 30.1903 66.4567 0
      vertex 30.1903 66.4567 11
    endloop
  endfacet
  facet normal 0.659262 0.751913 -0
    outer loop
      vertex 55.2678 67.2678 0
      vertex 55.0219 67.4834 11
      vertex 55.2678 67.2678 11
    endloop
  endfacet
  facet normal 0.659262 0.751913 0
    outer loop
      vertex 55.0219 67.4834 11
      vertex 55.2678 67.2678 0
      vertex 55.0219 67.4834 0
    endloop
  endfacet
  facet normal -0.997856 -0.0654432 0
    outer loop
      vertex 30.0214 44.1737 0
      vertex 30 44.5 11
      vertex 30 44.5 0
    endloop
  endfacet
  facet normal -0.997856 -0.0654432 0
    outer loop
      vertex 30 44.5 11
      vertex 30.0214 44.1737 0
      vertex 30.0214 44.1737 11
    endloop
  endfacet
  facet normal 0.555617 0.831438 -0
    outer loop
      vertex 55.0219 67.4834 0
      vertex 54.75 67.6651 11
      vertex 55.0219 67.4834 11
    endloop
  endfacet
  facet normal 0.555617 0.831438 0
    outer loop
      vertex 54.75 67.6651 11
      vertex 55.0219 67.4834 0
      vertex 54.75 67.6651 0
    endloop
  endfacet
  facet normal 0.442191 0.896921 -0
    outer loop
      vertex 54.75 67.6651 0
      vertex 54.4567 67.8097 11
      vertex 54.75 67.6651 11
    endloop
  endfacet
  facet normal 0.442191 0.896921 0
    outer loop
      vertex 54.4567 67.8097 11
      vertex 54.75 67.6651 0
      vertex 54.4567 67.8097 0
    endloop
  endfacet
  facet normal 0.751913 0.659262 0
    outer loop
      vertex 55.4834 67.0219 11
      vertex 55.2678 67.2678 0
      vertex 55.2678 67.2678 11
    endloop
  endfacet
  facet normal 0.751913 0.659262 0
    outer loop
      vertex 55.2678 67.2678 0
      vertex 55.4834 67.0219 11
      vertex 55.4834 67.0219 0
    endloop
  endfacet
  facet normal 0.751913 -0.659262 0
    outer loop
      vertex 55.2678 42.7322 11
      vertex 55.4834 42.9781 0
      vertex 55.4834 42.9781 11
    endloop
  endfacet
  facet normal 0.751913 -0.659262 0
    outer loop
      vertex 55.4834 42.9781 0
      vertex 55.2678 42.7322 11
      vertex 55.2678 42.7322 0
    endloop
  endfacet
  facet normal -0.946957 -0.32136 0
    outer loop
      vertex 30.1903 43.5433 0
      vertex 30.0852 43.853 11
      vertex 30.0852 43.853 0
    endloop
  endfacet
  facet normal -0.946957 -0.32136 0
    outer loop
      vertex 30.0852 43.853 11
      vertex 30.1903 43.5433 0
      vertex 30.1903 43.5433 11
    endloop
  endfacet
  facet normal -0.98078 0.195116 0
    outer loop
      vertex 30.0214 65.8263 0
      vertex 30.0852 66.147 11
      vertex 30.0852 66.147 0
    endloop
  endfacet
  facet normal -0.98078 0.195116 0
    outer loop
      vertex 30.0852 66.147 11
      vertex 30.0214 65.8263 0
      vertex 30.0214 65.8263 11
    endloop
  endfacet
  facet normal -0.831438 0.555617 0
    outer loop
      vertex 30.3349 66.75 0
      vertex 30.5166 67.0219 11
      vertex 30.5166 67.0219 0
    endloop
  endfacet
  facet normal -0.831438 0.555617 0
    outer loop
      vertex 30.5166 67.0219 11
      vertex 30.3349 66.75 0
      vertex 30.3349 66.75 11
    endloop
  endfacet
  facet normal 0 -1 0
    outer loop
      vertex 32.5 42 0
      vertex 53.5 42 11
      vertex 32.5 42 11
    endloop
  endfacet
  facet normal 0 -1 -0
    outer loop
      vertex 53.5 42 11
      vertex 32.5 42 0
      vertex 53.5 42 0
    endloop
  endfacet
  facet normal -0.659262 -0.751913 0
    outer loop
      vertex 30.7322 42.7322 0
      vertex 30.9781 42.5166 11
      vertex 30.7322 42.7322 11
    endloop
  endfacet
  facet normal -0.659262 -0.751913 -0
    outer loop
      vertex 30.9781 42.5166 11
      vertex 30.7322 42.7322 0
      vertex 30.9781 42.5166 0
    endloop
  endfacet
  facet normal 0.98078 -0.195116 0
    outer loop
      vertex 55.9148 43.853 11
      vertex 55.9786 44.1737 0
      vertex 55.9786 44.1737 11
    endloop
  endfacet
  facet normal 0.98078 -0.195116 0
    outer loop
      vertex 55.9786 44.1737 0
      vertex 55.9148 43.853 11
      vertex 55.9148 43.853 0
    endloop
  endfacet
  facet normal 0 0 -1
    outer loop
      vertex 53.5 68 0
      vertex 56 65.5 0
      vertex 56 64 0
    endloop
  endfacet
  facet normal 0 0 -1
    outer loop
      vertex 56 65.5 0
      vertex 53.5 68 0
      vertex 55.9786 65.8263 0
    endloop
  endfacet
  facet normal 0 0 -1
    outer loop
      vertex 55.9786 65.8263 0
      vertex 53.5 68 0
      vertex 55.9148 66.147 0
    endloop
  endfacet
  facet normal 0 0 -1
    outer loop
      vertex 55.9148 66.147 0
      vertex 53.5 68 0
      vertex 55.8097 66.4567 0
    endloop
  endfacet
  facet normal 0 0 -1
    outer loop
      vertex 55.8097 66.4567 0
      vertex 53.5 68 0
      vertex 55.6651 66.75 0
    endloop
  endfacet
  facet normal 0 0 -1
    outer loop
      vertex 55.6651 66.75 0
      vertex 53.5 68 0
      vertex 55.4834 67.0219 0
    endloop
  endfacet
  facet normal 0 0 -1
    outer loop
      vertex 55.4834 67.0219 0
      vertex 53.5 68 0
      vertex 55.2678 67.2678 0
    endloop
  endfacet
  facet normal 0 0 -1
    outer loop
      vertex 55.2678 67.2678 0
      vertex 53.5 68 0
      vertex 55.0219 67.4834 0
    endloop
  endfacet
  facet normal 0 0 -1
    outer loop
      vertex 55.0219 67.4834 0
      vertex 53.5 68 0
      vertex 54.75 67.6651 0
    endloop
  endfacet
  facet normal 0 0 -1
    outer loop
      vertex 54.75 67.6651 0
      vertex 53.5 68 0
      vertex 54.4567 67.8097 0
    endloop
  endfacet
  facet normal 0 0 -1
    outer loop
      vertex 54.4567 67.8097 0
      vertex 53.5 68 0
      vertex 54.147 67.9148 0
    endloop
  endfacet
  facet normal 0 0 -1
    outer loop
      vertex 54.147 67.9148 0
      vertex 53.5 68 0
      vertex 53.8263 67.9786 0
    endloop
  endfacet
  facet normal 0 0 -1
    outer loop
      vertex 56 64 0
      vertex 32.5 68 0
      vertex 53.5 68 0
    endloop
  endfacet
  facet normal 0 0 -1
    outer loop
      vertex 30 64 0
      vertex 32.5 68 0
      vertex 56 64 0
    endloop
  endfacet
  facet normal 0 0 -1
    outer loop
      vertex 30 65.5 0
      vertex 32.5 68 0
      vertex 30 64 0
    endloop
  endfacet
  facet normal 0 0 -1
    outer loop
      vertex 32.5 68 0
      vertex 30 65.5 0
      vertex 32.1737 67.9786 0
    endloop
  endfacet
  facet normal 0 0 -1
    outer loop
      vertex 32.1737 67.9786 0
      vertex 30 65.5 0
      vertex 31.853 67.9148 0
    endloop
  endfacet
  facet normal 0 0 -1
    outer loop
      vertex 31.853 67.9148 0
      vertex 30 65.5 0
      vertex 31.5433 67.8097 0
    endloop
  endfacet
  facet normal 0 0 -1
    outer loop
      vertex 31.5433 67.8097 0
      vertex 30 65.5 0
      vertex 31.25 67.6651 0
    endloop
  endfacet
  facet normal 0 0 -1
    outer loop
      vertex 31.25 67.6651 0
      vertex 30 65.5 0
      vertex 30.9781 67.4834 0
    endloop
  endfacet
  facet normal 0 0 -1
    outer loop
      vertex 30.9781 67.4834 0
      vertex 30 65.5 0
      vertex 30.7322 67.2678 0
    endloop
  endfacet
  facet normal 0 0 -1
    outer loop
      vertex 30.7322 67.2678 0
      vertex 30 65.5 0
      vertex 30.5166 67.0219 0
    endloop
  endfacet
  facet normal 0 0 -1
    outer loop
      vertex 30.5166 67.0219 0
      vertex 30 65.5 0
      vertex 30.3349 66.75 0
    endloop
  endfacet
  facet normal 0 0 -1
    outer loop
      vertex 30.3349 66.75 0
      vertex 30 65.5 0
      vertex 30.1903 66.4567 0
    endloop
  endfacet
  facet normal 0 0 -1
    outer loop
      vertex 30.1903 66.4567 0
      vertex 30 65.5 0
      vertex 30.0852 66.147 0
    endloop
  endfacet
  facet normal 0 0 -1
    outer loop
      vertex 30.0852 66.147 0
      vertex 30 65.5 0
      vertex 30.0214 65.8263 0
    endloop
  endfacet
  facet normal 0 0 -1
    outer loop
      vertex 53.5 42 0
      vertex 56 44.5 0
      vertex 55.9786 44.1737 0
    endloop
  endfacet
  facet normal 0 0 -1
    outer loop
      vertex 53.5 42 0
      vertex 55.9786 44.1737 0
      vertex 55.9148 43.853 0
    endloop
  endfacet
  facet normal 0 0 -1
    outer loop
      vertex 53.5 42 0
      vertex 55.9148 43.853 0
      vertex 55.8097 43.5433 0
    endloop
  endfacet
  facet normal 0 0 -1
    outer loop
      vertex 53.5 42 0
      vertex 55.8097 43.5433 0
      vertex 55.6651 43.25 0
    endloop
  endfacet
  facet normal 0 0 -1
    outer loop
      vertex 53.5 42 0
      vertex 55.6651 43.25 0
      vertex 55.4834 42.9781 0
    endloop
  endfacet
  facet normal 0 0 -1
    outer loop
      vertex 53.5 42 0
      vertex 55.4834 42.9781 0
      vertex 55.2678 42.7322 0
    endloop
  endfacet
  facet normal 0 0 -1
    outer loop
      vertex 53.5 42 0
      vertex 55.2678 42.7322 0
      vertex 55.0219 42.5166 0
    endloop
  endfacet
  facet normal 0 0 -1
    outer loop
      vertex 53.5 42 0
      vertex 55.0219 42.5166 0
      vertex 54.75 42.3349 0
    endloop
  endfacet
  facet normal 0 0 -1
    outer loop
      vertex 53.5 42 0
      vertex 54.75 42.3349 0
      vertex 54.4567 42.1903 0
    endloop
  endfacet
  facet normal 0 0 -1
    outer loop
      vertex 53.5 42 0
      vertex 54.4567 42.1903 0
      vertex 54.147 42.0852 0
    endloop
  endfacet
  facet normal 0 0 -1
    outer loop
      vertex 53.5 42 0
      vertex 54.147 42.0852 0
      vertex 53.8263 42.0214 0
    endloop
  endfacet
  facet normal -0 0 -1
    outer loop
      vertex 56 44.5 0
      vertex 53.5 42 0
      vertex 56 46 0
    endloop
  endfacet
  facet normal 0 0 -1
    outer loop
      vertex 32.5 42 0
      vertex 56 46 0
      vertex 53.5 42 0
    endloop
  endfacet
  facet normal 0 0 -1
    outer loop
      vertex 30 44.5 0
      vertex 32.5 42 0
      vertex 32.1737 42.0214 0
    endloop
  endfacet
  facet normal 0 0 -1
    outer loop
      vertex 30 44.5 0
      vertex 32.1737 42.0214 0
      vertex 31.853 42.0852 0
    endloop
  endfacet
  facet normal 0 0 -1
    outer loop
      vertex 30 44.5 0
      vertex 31.853 42.0852 0
      vertex 31.5433 42.1903 0
    endloop
  endfacet
  facet normal 0 0 -1
    outer loop
      vertex 30 44.5 0
      vertex 31.5433 42.1903 0
      vertex 31.25 42.3349 0
    endloop
  endfacet
  facet normal 0 0 -1
    outer loop
      vertex 30 44.5 0
      vertex 31.25 42.3349 0
      vertex 30.9781 42.5166 0
    endloop
  endfacet
  facet normal 0 0 -1
    outer loop
      vertex 30 44.5 0
      vertex 30.9781 42.5166 0
      vertex 30.7322 42.7322 0
    endloop
  endfacet
  facet normal 0 0 -1
    outer loop
      vertex 30 44.5 0
      vertex 30.7322 42.7322 0
      vertex 30.5166 42.9781 0
    endloop
  endfacet
  facet normal 0 0 -1
    outer loop
      vertex 30 44.5 0
      vertex 30.5166 42.9781 0
      vertex 30.3349 43.25 0
    endloop
  endfacet
  facet normal 0 0 -1
    outer loop
      vertex 30 44.5 0
      vertex 30.3349 43.25 0
      vertex 30.1903 43.5433 0
    endloop
  endfacet
  facet normal 0 0 -1
    outer loop
      vertex 30 44.5 0
      vertex 30.1903 43.5433 0
      vertex 30.0852 43.853 0
    endloop
  endfacet
  facet normal 0 0 -1
    outer loop
      vertex 30 44.5 0
      vertex 30.0852 43.853 0
      vertex 30.0214 44.1737 0
    endloop
  endfacet
  facet normal 0 0 -1
    outer loop
      vertex 32.5 42 0
      vertex 30 44.5 0
      vertex 30 46 0
    endloop
  endfacet
  facet normal 0 0 -1
    outer loop
      vertex 32.5 42 0
      vertex 30 46 0
      vertex 56 46 0
    endloop
  endfacet
  facet normal 0.896921 -0.442191 0
    outer loop
      vertex 55.6651 43.25 11
      vertex 55.8097 43.5433 0
      vertex 55.8097 43.5433 11
    endloop
  endfacet
  facet normal 0.896921 -0.442191 0
    outer loop
      vertex 55.8097 43.5433 0
      vertex 55.6651 43.25 11
      vertex 55.6651 43.25 0
    endloop
  endfacet
  facet normal -0.946957 0.32136 0
    outer loop
      vertex 30.0852 66.147 0
      vertex 30.1903 66.4567 11
      vertex 30.1903 66.4567 0
    endloop
  endfacet
  facet normal -0.946957 0.32136 0
    outer loop
      vertex 30.1903 66.4567 11
      vertex 30.0852 66.147 0
      vertex 30.0852 66.147 11
    endloop
  endfacet
  facet normal 0.32136 0.946957 -0
    outer loop
      vertex 54.4567 67.8097 0
      vertex 54.147 67.9148 11
      vertex 54.4567 67.8097 11
    endloop
  endfacet
  facet normal 0.32136 0.946957 0
    outer loop
      vertex 54.147 67.9148 11
      vertex 54.4567 67.8097 0
      vertex 54.147 67.9148 0
    endloop
  endfacet
  facet normal 0.195116 -0.98078 0
    outer loop
      vertex 53.8263 42.0214 0
      vertex 54.147 42.0852 11
      vertex 53.8263 42.0214 11
    endloop
  endfacet
  facet normal 0.195116 -0.98078 0
    outer loop
      vertex 54.147 42.0852 11
      vertex 53.8263 42.0214 0
      vertex 54.147 42.0852 0
    endloop
  endfacet
  facet normal 0.32136 -0.946957 0
    outer loop
      vertex 54.147 42.0852 0
      vertex 54.4567 42.1903 11
      vertex 54.147 42.0852 11
    endloop
  endfacet
  facet normal 0.32136 -0.946957 0
    outer loop
      vertex 54.4567 42.1903 11
      vertex 54.147 42.0852 0
      vertex 54.4567 42.1903 0
    endloop
  endfacet
  facet normal -0.0654432 0.997856 0
    outer loop
      vertex 32.5 68 0
      vertex 32.1737 67.9786 11
      vertex 32.5 68 11
    endloop
  endfacet
  facet normal -0.0654432 0.997856 0
    outer loop
      vertex 32.1737 67.9786 11
      vertex 32.5 68 0
      vertex 32.1737 67.9786 0
    endloop
  endfacet
  facet normal 0.195116 0.98078 -0
    outer loop
      vertex 54.147 67.9148 0
      vertex 53.8263 67.9786 11
      vertex 54.147 67.9148 11
    endloop
  endfacet
  facet normal 0.195116 0.98078 0
    outer loop
      vertex 53.8263 67.9786 11
      vertex 54.147 67.9148 0
      vertex 53.8263 67.9786 0
    endloop
  endfacet
  facet normal -0.751913 0.659262 0
    outer loop
      vertex 30.5166 67.0219 0
      vertex 30.7322 67.2678 11
      vertex 30.7322 67.2678 0
    endloop
  endfacet
  facet normal -0.751913 0.659262 0
    outer loop
      vertex 30.7322 67.2678 11
      vertex 30.5166 67.0219 0
      vertex 30.5166 67.0219 11
    endloop
  endfacet
  facet normal -0.555617 -0.831438 0
    outer loop
      vertex 30.9781 42.5166 0
      vertex 31.25 42.3349 11
      vertex 30.9781 42.5166 11
    endloop
  endfacet
  facet normal -0.555617 -0.831438 -0
    outer loop
      vertex 31.25 42.3349 11
      vertex 30.9781 42.5166 0
      vertex 31.25 42.3349 0
    endloop
  endfacet
  facet normal -0.195116 -0.98078 0
    outer loop
      vertex 31.853 42.0852 0
      vertex 32.1737 42.0214 11
      vertex 31.853 42.0852 11
    endloop
  endfacet
  facet normal -0.195116 -0.98078 -0
    outer loop
      vertex 32.1737 42.0214 11
      vertex 31.853 42.0852 0
      vertex 32.1737 42.0214 0
    endloop
  endfacet
  facet normal 0 0 1
    outer loop
      vertex 53.5 68 11
      vertex 56 65.5 11
      vertex 55.9786 65.8263 11
    endloop
  endfacet
  facet normal 0 0 1
    outer loop
      vertex 56 65.5 11
      vertex 53.5 68 11
      vertex 56 44.5 11
    endloop
  endfacet
  facet normal 0 0 1
    outer loop
      vertex 53.5 68 11
      vertex 55.9786 65.8263 11
      vertex 55.9148 66.147 11
    endloop
  endfacet
  facet normal 0 0 1
    outer loop
      vertex 53.5 42 11
      vertex 56 44.5 11
      vertex 53.5 68 11
    endloop
  endfacet
  facet normal 0 0 1
    outer loop
      vertex 53.5 68 11
      vertex 55.9148 66.147 11
      vertex 55.8097 66.4567 11
    endloop
  endfacet
  facet normal 0 0 1
    outer loop
      vertex 56 44.5 11
      vertex 53.5 42 11
      vertex 55.9786 44.1737 11
    endloop
  endfacet
  facet normal 0 0 1
    outer loop
      vertex 53.5 68 11
      vertex 55.8097 66.4567 11
      vertex 55.6651 66.75 11
    endloop
  endfacet
  facet normal 0 0 1
    outer loop
      vertex 55.9786 44.1737 11
      vertex 53.5 42 11
      vertex 55.9148 43.853 11
    endloop
  endfacet
  facet normal 0 0 1
    outer loop
      vertex 53.5 68 11
      vertex 55.6651 66.75 11
      vertex 55.4834 67.0219 11
    endloop
  endfacet
  facet normal 0 0 1
    outer loop
      vertex 55.9148 43.853 11
      vertex 53.5 42 11
      vertex 55.8097 43.5433 11
    endloop
  endfacet
  facet normal 0 0 1
    outer loop
      vertex 53.5 68 11
      vertex 55.4834 67.0219 11
      vertex 55.2678 67.2678 11
    endloop
  endfacet
  facet normal 0 0 1
    outer loop
      vertex 55.8097 43.5433 11
      vertex 53.5 42 11
      vertex 55.6651 43.25 11
    endloop
  endfacet
  facet normal 0 0 1
    outer loop
      vertex 53.5 68 11
      vertex 55.2678 67.2678 11
      vertex 55.0219 67.4834 11
    endloop
  endfacet
  facet normal 0 0 1
    outer loop
      vertex 55.6651 43.25 11
      vertex 53.5 42 11
      vertex 55.4834 42.9781 11
    endloop
  endfacet
  facet normal 0 0 1
    outer loop
      vertex 53.5 68 11
      vertex 55.0219 67.4834 11
      vertex 54.75 67.6651 11
    endloop
  endfacet
  facet normal 0 0 1
    outer loop
      vertex 55.4834 42.9781 11
      vertex 53.5 42 11
      vertex 55.2678 42.7322 11
    endloop
  endfacet
  facet normal 0 0 1
    outer loop
      vertex 53.5 68 11
      vertex 54.75 67.6651 11
      vertex 54.4567 67.8097 11
    endloop
  endfacet
  facet normal 0 0 1
    outer loop
      vertex 55.2678 42.7322 11
      vertex 53.5 42 11
      vertex 55.0219 42.5166 11
    endloop
  endfacet
  facet normal 0 0 1
    outer loop
      vertex 53.5 68 11
      vertex 54.4567 67.8097 11
      vertex 54.147 67.9148 11
    endloop
  endfacet
  facet normal 0 0 1
    outer loop
      vertex 55.0219 42.5166 11
      vertex 53.5 42 11
      vertex 54.75 42.3349 11
    endloop
  endfacet
  facet normal 0 0 1
    outer loop
      vertex 53.5 68 11
      vertex 54.147 67.9148 11
      vertex 53.8263 67.9786 11
    endloop
  endfacet
  facet normal 0 0 1
    outer loop
      vertex 54.75 42.3349 11
      vertex 53.5 42 11
      vertex 54.4567 42.1903 11
    endloop
  endfacet
  facet normal 0 0 1
    outer loop
      vertex 54.4567 42.1903 11
      vertex 53.5 42 11
      vertex 54.147 42.0852 11
    endloop
  endfacet
  facet normal 0 0 1
    outer loop
      vertex 54.147 42.0852 11
      vertex 53.5 42 11
      vertex 53.8263 42.0214 11
    endloop
  endfacet
  facet normal -0 0 1
    outer loop
      vertex 32.5 68 11
      vertex 53.5 42 11
      vertex 53.5 68 11
    endloop
  endfacet
  facet normal 0 0 1
    outer loop
      vertex 32.5 68 11
      vertex 32.5 42 11
      vertex 53.5 42 11
    endloop
  endfacet
  facet normal 0 0 1
    outer loop
      vertex 30 65.5 11
      vertex 32.5 68 11
      vertex 32.1737 67.9786 11
    endloop
  endfacet
  facet normal 0 0 1
    outer loop
      vertex 32.5 68 11
      vertex 30 65.5 11
      vertex 32.5 42 11
    endloop
  endfacet
  facet normal 0 0 1
    outer loop
      vertex 30 65.5 11
      vertex 32.1737 67.9786 11
      vertex 31.853 67.9148 11
    endloop
  endfacet
  facet normal -0 0 1
    outer loop
      vertex 30 44.5 11
      vertex 32.5 42 11
      vertex 30 65.5 11
    endloop
  endfacet
  facet normal 0 0 1
    outer loop
      vertex 30 65.5 11
      vertex 31.853 67.9148 11
      vertex 31.5433 67.8097 11
    endloop
  endfacet
  facet normal 0 0 1
    outer loop
      vertex 32.5 42 11
      vertex 30 44.5 11
      vertex 32.1737 42.0214 11
    endloop
  endfacet
  facet normal 0 0 1
    outer loop
      vertex 30 65.5 11
      vertex 31.5433 67.8097 11
      vertex 31.25 67.6651 11
    endloop
  endfacet
  facet normal 0 0 1
    outer loop
      vertex 32.1737 42.0214 11
      vertex 30 44.5 11
      vertex 31.853 42.0852 11
    endloop
  endfacet
  facet normal 0 0 1
    outer loop
      vertex 30 65.5 11
      vertex 31.25 67.6651 11
      vertex 30.9781 67.4834 11
    endloop
  endfacet
  facet normal 0 0 1
    outer loop
      vertex 31.853 42.0852 11
      vertex 30 44.5 11
      vertex 31.5433 42.1903 11
    endloop
  endfacet
  facet normal 0 0 1
    outer loop
      vertex 30 65.5 11
      vertex 30.9781 67.4834 11
      vertex 30.7322 67.2678 11
    endloop
  endfacet
  facet normal 0 0 1
    outer loop
      vertex 31.5433 42.1903 11
      vertex 30 44.5 11
      vertex 31.25 42.3349 11
    endloop
  endfacet
  facet normal 0 0 1
    outer loop
      vertex 30 65.5 11
      vertex 30.7322 67.2678 11
      vertex 30.5166 67.0219 11
    endloop
  endfacet
  facet normal 0 0 1
    outer loop
      vertex 31.25 42.3349 11
      vertex 30 44.5 11
      vertex 30.9781 42.5166 11
    endloop
  endfacet
  facet normal 0 0 1
    outer loop
      vertex 30 65.5 11
      vertex 30.5166 67.0219 11
      vertex 30.3349 66.75 11
    endloop
  endfacet
  facet normal 0 0 1
    outer loop
      vertex 30.9781 42.5166 11
      vertex 30 44.5 11
      vertex 30.7322 42.7322 11
    endloop
  endfacet
  facet normal 0 0 1
    outer loop
      vertex 30 65.5 11
      vertex 30.3349 66.75 11
      vertex 30.1903 66.4567 11
    endloop
  endfacet
  facet normal 0 0 1
    outer loop
      vertex 30.7322 42.7322 11
      vertex 30 44.5 11
      vertex 30.5166 42.9781 11
    endloop
  endfacet
  facet normal 0 0 1
    outer loop
      vertex 30 65.5 11
      vertex 30.1903 66.4567 11
      vertex 30.0852 66.147 11
    endloop
  endfacet
  facet normal 0 0 1
    outer loop
      vertex 30.5166 42.9781 11
      vertex 30 44.5 11
      vertex 30.3349 43.25 11
    endloop
  endfacet
  facet normal 0 0 1
    outer loop
      vertex 30 65.5 11
      vertex 30.0852 66.147 11
      vertex 30.0214 65.8263 11
    endloop
  endfacet
  facet normal 0 0 1
    outer loop
      vertex 30.3349 43.25 11
      vertex 30 44.5 11
      vertex 30.1903 43.5433 11
    endloop
  endfacet
  facet normal 0 0 1
    outer loop
      vertex 30.1903 43.5433 11
      vertex 30 44.5 11
      vertex 30.0852 43.853 11
    endloop
  endfacet
  facet normal 0 0 1
    outer loop
      vertex 30.0852 43.853 11
      vertex 30 44.5 11
      vertex 30.0214 44.1737 11
    endloop
  endfacet
  facet normal -0.98078 -0.195116 0
    outer loop
      vertex 30.0852 43.853 0
      vertex 30.0214 44.1737 11
      vertex 30.0214 44.1737 0
    endloop
  endfacet
  facet normal -0.98078 -0.195116 0
    outer loop
      vertex 30.0214 44.1737 11
      vertex 30.0852 43.853 0
      vertex 30.0852 43.853 11
    endloop
  endfacet
  facet normal -0.32136 0.946957 0
    outer loop
      vertex 31.853 67.9148 0
      vertex 31.5433 67.8097 11
      vertex 31.853 67.9148 11
    endloop
  endfacet
  facet normal -0.32136 0.946957 0
    outer loop
      vertex 31.5433 67.8097 11
      vertex 31.853 67.9148 0
      vertex 31.5433 67.8097 0
    endloop
  endfacet
  facet normal 0.997856 0.0654432 0
    outer loop
      vertex 56 65.5 11
      vertex 55.9786 65.8263 0
      vertex 55.9786 65.8263 11
    endloop
  endfacet
  facet normal 0.997856 0.0654432 0
    outer loop
      vertex 55.9786 65.8263 0
      vertex 56 65.5 11
      vertex 56 65.5 0
    endloop
  endfacet
  facet normal 0.997856 -0.0654432 0
    outer loop
      vertex 55.9786 44.1737 11
      vertex 56 44.5 0
      vertex 56 44.5 11
    endloop
  endfacet
  facet normal 0.997856 -0.0654432 0
    outer loop
      vertex 56 44.5 0
      vertex 55.9786 44.1737 11
      vertex 55.9786 44.1737 0
    endloop
  endfacet
  facet normal 0.659262 -0.751913 0
    outer loop
      vertex 55.0219 42.5166 0
      vertex 55.2678 42.7322 11
      vertex 55.0219 42.5166 11
    endloop
  endfacet
  facet normal 0.659262 -0.751913 0
    outer loop
      vertex 55.2678 42.7322 11
      vertex 55.0219 42.5166 0
      vertex 55.2678 42.7322 0
    endloop
  endfacet
  facet normal 0.98078 0.195116 0
    outer loop
      vertex 55.9786 65.8263 11
      vertex 55.9148 66.147 0
      vertex 55.9148 66.147 11
    endloop
  endfacet
  facet normal 0.98078 0.195116 0
    outer loop
      vertex 55.9148 66.147 0
      vertex 55.9786 65.8263 11
      vertex 55.9786 65.8263 0
    endloop
  endfacet
  facet normal -0.195116 0.98078 0
    outer loop
      vertex 32.1737 67.9786 0
      vertex 31.853 67.9148 11
      vertex 32.1737 67.9786 11
    endloop
  endfacet
  facet normal -0.195116 0.98078 0
    outer loop
      vertex 31.853 67.9148 11
      vertex 32.1737 67.9786 0
      vertex 31.853 67.9148 0
    endloop
  endfacet
  facet normal -0.442191 -0.896921 0
    outer loop
      vertex 31.25 42.3349 0
      vertex 31.5433 42.1903 11
      vertex 31.25 42.3349 11
    endloop
  endfacet
  facet normal -0.442191 -0.896921 -0
    outer loop
      vertex 31.5433 42.1903 11
      vertex 31.25 42.3349 0
      vertex 31.5433 42.1903 0
    endloop
  endfacet
  facet normal -0.442191 0.896921 0
    outer loop
      vertex 31.5433 67.8097 0
      vertex 31.25 67.6651 11
      vertex 31.5433 67.8097 11
    endloop
  endfacet
  facet normal -0.442191 0.896921 0
    outer loop
      vertex 31.25 67.6651 11
      vertex 31.5433 67.8097 0
      vertex 31.25 67.6651 0
    endloop
  endfacet
  facet normal -0.997856 0.0654432 0
    outer loop
      vertex 30 65.5 0
      vertex 30.0214 65.8263 11
      vertex 30.0214 65.8263 0
    endloop
  endfacet
  facet normal -0.997856 0.0654432 0
    outer loop
      vertex 30.0214 65.8263 11
      vertex 30 65.5 0
      vertex 30 65.5 11
    endloop
  endfacet
  facet normal -0.555617 0.831438 0
    outer loop
      vertex 31.25 67.6651 0
      vertex 30.9781 67.4834 11
      vertex 31.25 67.6651 11
    endloop
  endfacet
  facet normal -0.555617 0.831438 0
    outer loop
      vertex 30.9781 67.4834 11
      vertex 31.25 67.6651 0
      vertex 30.9781 67.4834 0
    endloop
  endfacet
  facet normal 0 -0.907468 -0.420122
    outer loop
      vertex 30 62.3611 3.1
      vertex 56 60 8.2
      vertex 30 60 8.2
    endloop
  endfacet
  facet normal 0 -0.907468 -0.420122
    outer loop
      vertex 56 60 8.2
      vertex 30 62.3611 3.1
      vertex 56 62.3611 3.1
    endloop
  endfacet
  facet normal 0 0 -1
    outer loop
      vertex 30 50 8.2
      vertex 56 60 8.2
      vertex 56 50 8.2
    endloop
  endfacet
  facet normal -0 0 -1
    outer loop
      vertex 56 60 8.2
      vertex 30 50 8.2
      vertex 30 60 8.2
    endloop
  endfacet
  facet normal 0 0.907468 -0.420122
    outer loop
      vertex 56 47.6389 3.1
      vertex 30 50 8.2
      vertex 56 50 8.2
    endloop
  endfacet
  facet normal 0 0.907468 -0.420122
    outer loop
      vertex 30 50 8.2
      vertex 56 47.6389 3.1
      vertex 30 47.6389 3.1
    endloop
  endfacet
  facet normal 0 0 -1
    outer loop
      vertex 30 62.3611 3.1
      vertex 56 64 3.1
      vertex 56 62.3611 3.1
    endloop
  endfacet
  facet normal -0 0 -1
    outer loop
      vertex 56 64 3.1
      vertex 30 62.3611 3.1
      vertex 30 64 3.1
    endloop
  endfacet
  facet normal 0 0 -1
    outer loop
      vertex 30 46 3.1
      vertex 56 47.6389 3.1
      vertex 56 46 3.1
    endloop
  endfacet
  facet normal -0 0 -1
    outer loop
      vertex 56 47.6389 3.1
      vertex 30 46 3.1
      vertex 30 47.6389 3.1
    endloop
  endfacet
  facet normal 0 -1 0
    outer loop
      vertex 30 64 0
      vertex 56 64 3.1
      vertex 30 64 3.1
    endloop
  endfacet
  facet normal 0 -1 -0
    outer loop
      vertex 56 64 3.1
      vertex 30 64 0
      vertex 56 64 0
    endloop
  endfacet
  facet normal 0 1 -0
    outer loop
      vertex 56 46 0
      vertex 30 46 3.1
      vertex 56 46 3.1
    endloop
  endfacet
  facet normal 0 1 0
    outer loop
      vertex 30 46 3.1
      vertex 56 46 0
      vertex 30 46 0
    endloop
  endfacet
endsolid OpenSCAD_Model
