<?xml version="1.0" standalone="no"?>
<!DOCTYPE svg PUBLIC "-//W3C//DTD SVG 1.1//EN" "http://www.w3.org/Graphics/SVG/1.1/DTD/svg11.dtd">
<svg width="80mm" height="12mm" viewBox="0 -12 80 12" xmlns="http://www.w3.org/2000/svg" version="1.1">
<title>OpenSCAD Model</title>
<path d="
M 5.08235,-3.81175 L 5.08235,-8.65881 L 9.45882,-11.4823 L 9.40869,-11.5307 L 9.35716,-11.5769 L 9.30423,-11.6209
 L 9.24988,-11.6627 L 9.19411,-11.7022 L 9.13693,-11.7394 L 9.07834,-11.7743 L 9.01834,-11.8069 L 8.95694,-11.837
 L 8.8941,-11.8647 L 8.82988,-11.8899 L 8.76422,-11.9127 L 8.69717,-11.9328 L 8.62869,-11.9504 L 8.55882,-11.9654
 L 8.48752,-11.9778 L 8.41481,-11.9874 L 8.3407,-11.9944 L 8.26517,-11.9986 L 8.18823,-12 L 3.67058,-12
 L 3.43317,-11.9906 L 3.2014,-11.9628 L 2.976,-11.9173 L 2.75764,-11.8547 L 2.54706,-11.7757 L 2.34494,-11.6811
 L 2.15199,-11.5714 L 1.96893,-11.4473 L 1.79646,-11.3096 L 1.63528,-11.1588 L 1.48611,-10.9957 L 1.34964,-10.8209
 L 1.22658,-10.6351 L 1.11765,-10.4389 L 1.02353,-10.2331 L 0.944931,-10.0182 L 0.882584,-9.79509 L 0.837173,-9.56427
 L 0.809402,-9.32646 L 0.799988,-9.08235 L 0.799988,-3.05882 L 0.800705,-2.97447 L 0.802917,-2.89091 L 0.806656,-2.8082
 L 0.812042,-2.72639 L 0.819107,-2.64558 L 0.827942,-2.56583 L 0.838623,-2.4872 L 0.851196,-2.40977 L 0.865738,-2.33363
 L 0.882339,-2.25882 L 0.901062,-2.18541 L 0.921967,-2.11349 L 0.945129,-2.04314 L 0.970627,-1.9744 L 0.99852,-1.90735
 L 1.02888,-1.84206 L 1.0618,-1.77861 L 1.09731,-1.71707 L 1.13551,-1.65752 L 1.17647,-1.59999 z
M 25.1934,-10.8884 L 25.287,-10.9135 L 25.3729,-10.9555 L 25.451,-11.0142 L 25.5161,-11.0849 L 25.5625,-11.1628
 L 25.5904,-11.248 L 25.5997,-11.3403 L 25.5904,-11.4326 L 25.5625,-11.5177 L 25.5161,-11.5956 L 25.451,-11.6663
 L 25.3729,-11.725 L 25.287,-11.767 L 25.1934,-11.7921 L 25.0921,-11.8005 L 24.992,-11.7921 L 24.8992,-11.767
 L 24.8138,-11.725 L 24.7358,-11.6663 L 24.6708,-11.5956 L 24.6244,-11.5177 L 24.5965,-11.4326 L 24.5872,-11.3403
 L 24.5965,-11.248 L 24.6244,-11.1628 L 24.6708,-11.0849 L 24.7358,-11.0142 L 24.8138,-10.9555 L 24.8992,-10.9135
 L 24.992,-10.8884 L 25.0921,-10.88 z
M 27.1884,-9.21695 L 27.1879,-9.29939 L 27.1866,-9.39331 L 27.1844,-9.4987 L 27.1813,-9.61555 L 27.174,-9.87071
 L 27.17,-10.0057 L 27.1659,-10.1457 L 27.1619,-10.2872 L 27.1582,-10.4265 L 27.1549,-10.5639 L 27.1519,-10.6991
 L 27.1874,-10.5556 L 27.2238,-10.4125 L 27.261,-10.27 L 27.2991,-10.1279 L 27.3373,-9.98898 L 27.3745,-9.85568
 L 27.4109,-9.72801 L 27.4464,-9.60599 L 27.48,-9.49229 L 27.5109,-9.38956 L 27.5389,-9.29778 L 27.5642,-9.21695
 L 28.1672,-7.45805 L 28.9946,-7.45805 L 29.5892,-9.21695 L 29.6157,-9.30077 L 29.6446,-9.39607 L 29.676,-9.50282
 L 29.7098,-9.62106 L 29.7453,-9.74786 L 29.7817,-9.88031 L 29.8189,-10.0184 L 29.8571,-10.1622 L 29.8952,-10.3086
 L 29.9324,-10.4546 L 29.9688,-10.6004 L 30.0043,-10.7457 L 30.0013,-10.6074 L 29.998,-10.4663 L 29.9943,-10.3224
 L 29.9903,-10.1759 L 29.9785,-9.75592 L 29.9749,-9.62656 L 29.9718,-9.50592 L 29.9696,-9.39745 L 29.9683,-9.30112
 L 29.9678,-9.21695 L 29.9678,-7.45805 L 30.9635,-7.45805 L 30.9635,-11.5402 L 29.4181,-11.5402 L 28.8936,-9.9512
 L 28.8718,-9.87595 L 28.8484,-9.78992 L 28.8234,-9.69308 L 28.7969,-9.58546 L 28.7695,-9.4704 L 28.7422,-9.35121
 L 28.7148,-9.22792 L 28.6875,-9.10051 L 28.6606,-8.97202 L 28.6346,-8.8454 L 28.6094,-8.72066 L 28.5851,-8.59779
 L 28.5595,-8.72075 L 28.5332,-8.84573 L 28.5062,-8.97279 L 28.4785,-9.10188 L 28.4505,-9.22981 L 28.4228,-9.35327
 L 28.3952,-9.47227 L 28.3677,-9.58684 L 28.3412,-9.69386 L 28.3162,-9.79025 L 28.2928,-9.87604 L 28.271,-9.9512
 L 27.7381,-11.5402 L 26.1955,-11.5402 L 26.1955,-7.45805 L 27.1884,-7.45805 z
M 36.0913,-7.42459 L 36.2437,-7.45567 L 36.3781,-7.50746 L 36.4944,-7.57999 L 36.594,-7.66551 L 36.6784,-7.75635
 L 36.7476,-7.85251 L 36.8015,-7.95396 L 36.8352,-7.95396 L 36.8352,-7.45805 L 37.8,-7.45805 L 37.8,-11.5402
 L 36.8239,-11.5402 L 36.8239,-9.99503 L 36.8015,-9.99503 L 36.7686,-10.0631 L 36.7289,-10.1303 L 36.6824,-10.1967
 L 36.629,-10.2621 L 36.5683,-10.3243 L 36.4996,-10.3807 L 36.4231,-10.4312 L 36.3387,-10.4759 L 36.2458,-10.5124
 L 36.1438,-10.5385 L 36.0326,-10.5542 L 35.9124,-10.5594 L 35.751,-10.5488 L 35.5951,-10.517 L 35.4446,-10.4639
 L 35.2996,-10.3896 L 35.164,-10.2935 L 35.0422,-10.1752 L 34.9341,-10.0346 L 34.8396,-9.87173 L 34.7629,-9.68596
 L 34.7081,-9.47655 L 34.6752,-9.24352 L 34.6643,-8.98683 L 34.6748,-8.73727 L 34.7064,-8.50909 L 34.759,-8.30234
 L 34.8326,-8.11697 L 34.9241,-7.95309 L 35.0303,-7.81079 L 35.1513,-7.69008 L 35.2869,-7.59093 L 35.4338,-7.51363
 L 35.5884,-7.4584 L 35.7508,-7.42528 L 35.9208,-7.41423 z
M 36.1213,-8.17365 L 36.0046,-8.21628 L 35.9046,-8.28734 L 35.8212,-8.38684 L 35.7556,-8.50961 L 35.7087,-8.65053
 L 35.6806,-8.80962 L 35.6712,-8.98683 L 35.6806,-9.16397 L 35.7087,-9.32278 L 35.7556,-9.46329 L 35.8212,-9.58546
 L 35.9046,-9.68436 L 36.0046,-9.75499 L 36.1213,-9.79738 L 36.2546,-9.81149 L 36.387,-9.79762 L 36.5039,-9.75601
 L 36.6051,-9.68665 L 36.6907,-9.58955 L 36.7588,-9.46866 L 36.8074,-9.32791 L 36.8366,-9.16731 L 36.8464,-8.98683
 L 36.8365,-8.8085 L 36.8071,-8.64882 L 36.758,-8.5078 L 36.6893,-8.38545 L 36.6032,-8.28658 L 36.5021,-8.21593
 L 36.3859,-8.17355 L 36.2546,-8.15942 z
M 21.3266,-7.41525 L 21.3985,-7.41833 L 21.4725,-7.42348 L 21.5485,-7.43068 L 21.6264,-7.44078 L 21.7056,-7.45465
 L 21.7862,-7.47229 L 21.8683,-7.4937 L 21.7421,-8.18956 L 21.7192,-8.18521 L 21.6898,-8.18033 L 21.654,-8.17493
 L 21.6116,-8.16901 L 21.5686,-8.1636 L 21.5307,-8.15976 L 21.4978,-8.15746 L 21.47,-8.15668 L 21.3608,-8.17157
 L 21.2828,-8.21626 L 21.236,-8.29076 L 21.2204,-8.39503 L 21.2204,-9.81149 L 21.7841,-9.81149 L 21.7841,-10.5211
 L 21.2204,-10.5211 L 21.2204,-11.2499 L 20.2415,-11.2499 L 20.2415,-10.5211 L 19.8264,-10.5211 L 19.8264,-9.81149
 L 20.2415,-9.81149 L 20.2415,-8.31012 L 20.2576,-8.10403 L 20.306,-7.92415 L 20.3867,-7.77046 L 20.4995,-7.64297
 L 20.6437,-7.54289 L 20.8179,-7.47142 L 21.0223,-7.42853 L 21.2568,-7.41423 z
M 51.4994,-9.27722 L 51.5073,-9.39093 L 51.5313,-9.49092 L 51.5711,-9.57722 L 51.627,-9.64983 L 51.6952,-9.70737
 L 51.7725,-9.74847 L 51.8586,-9.77315 L 51.9537,-9.78136 L 52.046,-9.77356 L 52.1294,-9.75018 L 52.2038,-9.71123
 L 52.2693,-9.65669 L 52.3226,-9.58896 L 52.3608,-9.51045 L 52.3837,-9.42114 L 52.3913,-9.32106 L 52.3913,-7.45805
 L 53.3308,-7.45805 L 53.3308,-9.29642 L 53.3384,-9.4006 L 53.361,-9.494 L 53.3987,-9.57661 L 53.4514,-9.64845
 L 53.5172,-9.70659 L 53.5938,-9.74814 L 53.6813,-9.77306 L 53.7796,-9.78136 L 53.8721,-9.77382 L 53.956,-9.75122
 L 54.0312,-9.71355 L 54.0979,-9.66081 L 54.1525,-9.59351 L 54.1916,-9.51218 L 54.215,-9.41679 L 54.2227,-9.30736
 L 54.2227,-7.45805 L 55.1988,-7.45805 L 55.1988,-9.52382 L 55.1812,-9.75327 L 55.1284,-9.9567 L 55.0403,-10.1341
 L 54.9169,-10.2855 L 54.7661,-10.4065 L 54.5954,-10.493 L 54.405,-10.5449 L 54.1947,-10.5622 L 54.0386,-10.5518
 L 53.8873,-10.5208 L 53.7406,-10.4689 L 53.5987,-10.3964 L 53.4677,-10.3003 L 53.3537,-10.1776 L 53.2566,-10.0284
 L 53.1766,-9.85258 L 53.1139,-10.0272 L 53.0409,-10.1759 L 52.9576,-10.2985 L 52.8639,-10.3951 L 52.7588,-10.4682
 L 52.6413,-10.5204 L 52.5113,-10.5517 L 52.3688,-10.5622 L 52.2296,-10.5527 L 52.095,-10.5242 L 51.9652,-10.4767
 L 51.8401,-10.4101 L 51.7247,-10.322 L 51.6238,-10.2098 L 51.5375,-10.0734 L 51.4657,-9.91286 L 51.4208,-10.5211
 L 50.5205,-10.5211 L 50.5205,-7.45805 L 51.4994,-7.45805 z
M 12.5014,-9.27722 L 12.5094,-9.39093 L 12.5333,-9.49092 L 12.5732,-9.57722 L 12.629,-9.64983 L 12.6973,-9.70737
 L 12.7745,-9.74847 L 12.8606,-9.77315 L 12.9557,-9.78136 L 13.048,-9.77356 L 13.1314,-9.75018 L 13.2058,-9.71123
 L 13.2713,-9.65669 L 13.3247,-9.58896 L 13.3628,-9.51045 L 13.3857,-9.42114 L 13.3933,-9.32106 L 13.3933,-7.45805
 L 14.3329,-7.45805 L 14.3329,-9.29642 L 14.3404,-9.4006 L 14.363,-9.494 L 14.4007,-9.57661 L 14.4535,-9.64845
 L 14.5192,-9.70659 L 14.5958,-9.74814 L 14.6833,-9.77306 L 14.7816,-9.78136 L 14.8741,-9.77382 L 14.958,-9.75122
 L 15.0333,-9.71355 L 15.1,-9.66081 L 15.1546,-9.59351 L 15.1936,-9.51218 L 15.217,-9.41679 L 15.2248,-9.30736
 L 15.2248,-7.45805 L 16.2009,-7.45805 L 16.2009,-9.52382 L 16.1832,-9.75327 L 16.1304,-9.9567 L 16.0423,-10.1341
 L 15.919,-10.2855 L 15.7681,-10.4065 L 15.5975,-10.493 L 15.407,-10.5449 L 15.1967,-10.5622 L 15.0406,-10.5518
 L 14.8893,-10.5208 L 14.7426,-10.4689 L 14.6007,-10.3964 L 14.4697,-10.3003 L 14.3557,-10.1776 L 14.2587,-10.0284
 L 14.1786,-9.85258 L 14.116,-10.0272 L 14.043,-10.1759 L 13.9596,-10.2985 L 13.8659,-10.3951 L 13.7608,-10.4682
 L 13.6433,-10.5204 L 13.5133,-10.5517 L 13.3708,-10.5622 L 13.2316,-10.5527 L 13.097,-10.5242 L 12.9673,-10.4767
 L 12.8422,-10.4101 L 12.7267,-10.322 L 12.6259,-10.2098 L 12.5395,-10.0734 L 12.4677,-9.91286 L 12.4229,-10.5211
 L 11.5225,-10.5211 L 11.5225,-7.45805 L 12.5014,-7.45805 z
M 45.4533,-7.41911 L 45.7147,-7.47485 L 45.9483,-7.56775 L 46.1543,-7.69778 L 46.327,-7.86003 L 46.4607,-8.0495
 L 46.5556,-8.2662 L 46.6115,-8.51013 L 45.7084,-8.65257 L 45.6802,-8.53615 L 45.6407,-8.43341 L 45.5898,-8.34438
 L 45.5275,-8.26903 L 45.4545,-8.20909 L 45.3714,-8.16629 L 45.2785,-8.14059 L 45.1755,-8.13203 L 45.0431,-8.14633
 L 44.9265,-8.18922 L 44.8257,-8.2607 L 44.7407,-8.36078 L 44.6732,-8.48552 L 44.625,-8.631 L 44.5961,-8.79718
 L 44.5865,-8.98409 L 44.5961,-9.17183 L 44.625,-9.33784 L 44.6732,-9.4821 L 44.7407,-9.60461 L 44.8257,-9.70232
 L 44.9265,-9.77211 L 45.0431,-9.81398 L 45.1755,-9.82794 L 45.2783,-9.81972 L 45.3707,-9.79506 L 45.4529,-9.75395
 L 45.5246,-9.6964 L 45.5859,-9.62381 L 45.6365,-9.53751 L 45.6764,-9.4375 L 45.7056,-9.32381 L 46.6087,-9.47174
 L 46.5527,-9.70941 L 46.4576,-9.92107 L 46.3234,-10.1067 L 46.1501,-10.2663 L 45.9439,-10.3945 L 45.7108,-10.4861
 L 45.451,-10.5411 L 45.1643,-10.5594 L 44.9274,-10.547 L 44.7078,-10.5098 L 44.5053,-10.4477 L 44.32,-10.3608
 L 44.1536,-10.2516 L 44.0076,-10.1228 L 43.8822,-9.97423 L 43.7773,-9.806 L 43.6945,-9.62073 L 43.6353,-9.42108
 L 43.5998,-9.20703 L 43.588,-8.97859 L 43.5998,-8.75026 L 43.6353,-8.53648 L 43.6945,-8.33725 L 43.7773,-8.15256
 L 43.8822,-7.98492 L 44.0076,-7.83681 L 44.1536,-7.70822 L 44.32,-7.59914 L 44.5053,-7.51225 L 44.7078,-7.45018
 L 44.9274,-7.41295 L 45.1643,-7.40053 z
M 32.662,-7.43359 L 32.9134,-7.52451 L 33.1164,-7.67604 L 33.271,-7.88818 L 33.2963,-7.88818 L 33.2963,-7.45805
 L 34.2162,-7.45805 L 34.2162,-9.53751 L 34.2046,-9.69565 L 34.1696,-9.84126 L 34.1113,-9.9744 L 34.0297,-10.095
 L 33.9284,-10.2025 L 33.8109,-10.2961 L 33.6774,-10.3758 L 33.5276,-10.4416 L 33.3652,-10.4931 L 33.1935,-10.53
 L 33.0126,-10.5521 L 32.8223,-10.5594 L 32.5421,-10.5441 L 32.2904,-10.4981 L 32.0674,-10.4215 L 31.8728,-10.3142
 L 31.7094,-10.1825 L 31.5794,-10.0324 L 31.4829,-9.86398 L 31.4199,-9.67725 L 32.3062,-9.5649 L 32.3316,-9.63373
 L 32.3686,-9.69502 L 32.4172,-9.74878 L 32.4773,-9.79501 L 32.5478,-9.83218 L 32.6273,-9.85873 L 32.716,-9.87466
 L 32.8138,-9.87997 L 32.9081,-9.87459 L 32.9916,-9.8584 L 33.0644,-9.83144 L 33.1266,-9.79369 L 33.1763,-9.74599
 L 33.2118,-9.68922 L 33.2331,-9.62338 L 33.2402,-9.54846 L 33.2402,-9.53751 L 33.2294,-9.4722 L 33.197,-9.41869
 L 33.1431,-9.377 L 33.0677,-9.34711 L 32.9673,-9.32408 L 32.8387,-9.30293 L 32.6819,-9.28366 L 32.4969,-9.26628
 L 32.3417,-9.24831 L 32.193,-9.22176 L 32.0507,-9.18665 L 31.9149,-9.14297 L 31.789,-9.08853 L 31.6762,-9.02107
 L 31.5765,-8.9406 L 31.49,-8.84709 L 31.4201,-8.73837 L 31.3701,-8.61218 L 31.3401,-8.46851 L 31.3302,-8.30737
 L 31.3483,-8.09436 L 31.4027,-7.91013 L 31.4934,-7.75465 L 31.6204,-7.62794 L 31.7757,-7.52965 L 31.951,-7.45944
 L 32.1466,-7.41733 L 32.3623,-7.40329 z
M 32.5752,-8.04118 L 32.4987,-8.05634 L 32.4301,-8.0816 L 32.3693,-8.11697 L 32.3196,-8.16193 L 32.2841,-8.21594
 L 32.2628,-8.27904 L 32.2557,-8.3512 L 32.284,-8.48596 L 32.3686,-8.59161 L 32.5097,-8.66815 L 32.7073,-8.71559
 L 32.7774,-8.72707 L 32.8503,-8.73955 L 32.926,-8.75308 L 33.0045,-8.76764 L 33.0798,-8.78355 L 33.1455,-8.80121
 L 33.2018,-8.82057 L 33.2486,-8.84164 L 33.2486,-8.54848 L 33.2379,-8.44006 L 33.2058,-8.34229 L 33.1524,-8.25513
 L 33.0775,-8.17857 L 32.9872,-8.11626 L 32.8875,-8.07175 L 32.7783,-8.04503 L 32.6596,-8.03613 z
M 40.0956,-7.41527 L 40.3432,-7.45944 L 40.5661,-7.53307 L 40.7643,-7.63614 L 40.9342,-7.76405 L 41.0725,-7.91217
 L 41.179,-8.08049 L 41.2537,-8.26903 L 40.3814,-8.40874 L 40.3467,-8.33656 L 40.3015,-8.27347 L 40.2458,-8.21945
 L 40.1795,-8.1745 L 40.1047,-8.13914 L 40.0231,-8.11389 L 39.935,-8.09875 L 39.8401,-8.0937 L 39.7079,-8.10405
 L 39.5888,-8.13513 L 39.4828,-8.1869 L 39.39,-8.25941 L 39.3136,-8.35265 L 39.2571,-8.46661 L 39.2204,-8.60129
 L 39.2035,-8.75668 L 41.2986,-8.75668 L 41.2986,-8.99779 L 41.2864,-9.24016 L 41.2499,-9.4632 L 41.1889,-9.66687
 L 41.1037,-9.85121 L 40.9971,-10.0153 L 40.8723,-10.1581 L 40.7292,-10.2796 L 40.568,-10.38 L 40.3914,-10.4585
 L 40.2023,-10.5146 L 40.0008,-10.5482 L 39.7868,-10.5594 L 39.559,-10.547 L 39.3465,-10.5098 L 39.1495,-10.4477
 L 38.9678,-10.3608 L 38.8039,-10.2516 L 38.6597,-10.1228 L 38.5353,-9.97423 L 38.4307,-9.806 L 38.3479,-9.62073
 L 38.2888,-9.42108 L 38.2533,-9.20703 L 38.2414,-8.97859 L 38.2678,-8.62988 L 38.347,-8.32074 L 38.4789,-8.05113
 L 38.6635,-7.82109 L 38.8943,-7.6371 L 39.1646,-7.50568 L 39.4742,-7.42682 L 39.8233,-7.40053 z
M 39.2091,-9.31285 L 39.2307,-9.43365 L 39.2676,-9.54128 L 39.3198,-9.63571 L 39.3872,-9.71696 L 39.4689,-9.78229
 L 39.5642,-9.82895 L 39.673,-9.85695 L 39.7952,-9.86627 L 39.916,-9.85712 L 40.0231,-9.82964 L 40.1166,-9.78383
 L 40.1963,-9.71971 L 40.2619,-9.63931 L 40.3127,-9.54471 L 40.3489,-9.4359 L 40.3702,-9.31285 z
M 23.2136,-9.12929 L 23.2248,-9.25977 L 23.2581,-9.37723 L 23.3138,-9.48167 L 23.3917,-9.5731 L 23.4867,-9.64743
 L 23.5933,-9.70052 L 23.7117,-9.73236 L 23.8419,-9.74298 L 23.8883,-9.7422 L 23.9376,-9.7399 L 23.9899,-9.73605
 L 24.0452,-9.73067 L 24.0993,-9.72372 L 24.1479,-9.71526 L 24.1912,-9.70525 L 24.229,-9.6937 L 24.229,-10.5266
 L 24.1611,-10.5409 L 24.0922,-10.5512 L 24.0223,-10.5574 L 23.9513,-10.5594 L 23.8262,-10.5502 L 23.709,-10.5225
 L 23.5997,-10.4762 L 23.4983,-10.4115 L 23.4078,-10.3279 L 23.3311,-10.2252 L 23.2682,-10.1033 L 23.2193,-9.96219
 L 23.1856,-9.96219 L 23.1856,-10.5211 L 22.2348,-10.5211 L 22.2348,-7.45805 L 23.2136,-7.45805 z
M 48.7399,-7.41295 L 48.9592,-7.45018 L 49.1613,-7.51225 L 49.3459,-7.59914 L 49.5118,-7.70822 L 49.6573,-7.83681
 L 49.7824,-7.98492 L 49.8872,-8.15256 L 49.9701,-8.33725 L 50.0292,-8.53648 L 50.0647,-8.75026 L 50.0766,-8.97859
 L 50.0647,-9.20703 L 50.0292,-9.42108 L 49.9701,-9.62073 L 49.8872,-9.806 L 49.7824,-9.97423 L 49.6573,-10.1228
 L 49.5118,-10.2516 L 49.3459,-10.3608 L 49.1613,-10.4477 L 48.9592,-10.5098 L 48.7399,-10.547 L 48.5031,-10.5594
 L 48.2663,-10.547 L 48.0466,-10.5098 L 47.8442,-10.4477 L 47.6589,-10.3608 L 47.4924,-10.2516 L 47.3465,-10.1228
 L 47.2211,-9.97423 L 47.1161,-9.806 L 47.0333,-9.62073 L 46.9742,-9.42108 L 46.9387,-9.20703 L 46.9268,-8.97859
 L 46.9387,-8.75026 L 46.9742,-8.53648 L 47.0333,-8.33725 L 47.1161,-8.15256 L 47.2211,-7.98492 L 47.3465,-7.83681
 L 47.4924,-7.70822 L 47.6589,-7.59914 L 47.8442,-7.51225 L 48.0466,-7.45018 L 48.2663,-7.41295 L 48.5031,-7.40053
 z
M 48.3711,-8.14668 L 48.2556,-8.1906 L 48.1565,-8.26379 L 48.074,-8.36627 L 48.009,-8.49274 L 47.9625,-8.63786
 L 47.9346,-8.80165 L 47.9254,-8.98409 L 47.9346,-9.16628 L 47.9625,-9.32928 L 48.009,-9.47313 L 48.074,-9.59779
 L 48.1565,-9.69847 L 48.2556,-9.7704 L 48.3711,-9.81355 L 48.5031,-9.82794 L 48.6351,-9.81355 L 48.7506,-9.7704
 L 48.8497,-9.69847 L 48.9322,-9.59779 L 48.9973,-9.47313 L 49.0437,-9.32928 L 49.0716,-9.16628 L 49.0809,-8.98409
 L 49.0716,-8.80165 L 49.0437,-8.63786 L 48.9973,-8.49274 L 48.9322,-8.36627 L 48.8497,-8.26379 L 48.7506,-8.1906
 L 48.6351,-8.14668 L 48.5031,-8.13203 z
M 18.4575,-7.41527 L 18.7051,-7.45944 L 18.928,-7.53307 L 19.1261,-7.63614 L 19.2961,-7.76405 L 19.4343,-7.91217
 L 19.5408,-8.08049 L 19.6156,-8.26903 L 18.7433,-8.40874 L 18.7086,-8.33656 L 18.6634,-8.27347 L 18.6076,-8.21945
 L 18.5414,-8.1745 L 18.4665,-8.13914 L 18.385,-8.11389 L 18.2968,-8.09875 L 18.202,-8.0937 L 18.0697,-8.10405
 L 17.9506,-8.13513 L 17.8447,-8.1869 L 17.7518,-8.25941 L 17.6755,-8.35265 L 17.619,-8.46661 L 17.5822,-8.60129
 L 17.5653,-8.75668 L 19.6604,-8.75668 L 19.6604,-8.99779 L 19.6483,-9.24016 L 19.6117,-9.4632 L 19.5508,-9.66687
 L 19.4655,-9.85121 L 19.3589,-10.0153 L 19.2341,-10.1581 L 19.0911,-10.2796 L 18.9298,-10.38 L 18.7532,-10.4585
 L 18.5641,-10.5146 L 18.3626,-10.5482 L 18.1487,-10.5594 L 17.9208,-10.547 L 17.7084,-10.5098 L 17.5113,-10.4477
 L 17.3297,-10.3608 L 17.1657,-10.2516 L 17.0215,-10.1228 L 16.8972,-9.97423 L 16.7926,-9.806 L 16.7098,-9.62073
 L 16.6506,-9.42108 L 16.6151,-9.20703 L 16.6033,-8.97859 L 16.6297,-8.62988 L 16.7088,-8.32074 L 16.8407,-8.05113
 L 17.0254,-7.82109 L 17.2562,-7.6371 L 17.5264,-7.50568 L 17.8361,-7.42682 L 18.1852,-7.40053 z
M 17.5709,-9.31285 L 17.5926,-9.43365 L 17.6295,-9.54128 L 17.6816,-9.63571 L 17.749,-9.71696 L 17.8308,-9.78229
 L 17.9261,-9.82895 L 18.0348,-9.85695 L 18.1571,-9.86627 L 18.2779,-9.85712 L 18.385,-9.82964 L 18.4784,-9.78383
 L 18.5582,-9.71971 L 18.6237,-9.63931 L 18.6746,-9.54471 L 18.7107,-9.4359 L 18.7321,-9.31285 z
M 25.5829,-10.5211 L 24.604,-10.5211 L 24.604,-7.45805 L 25.5829,-7.45805 z
M 9.42647,-1.4286 L 9.48474,-1.49341 L 9.53957,-1.55925 L 9.59096,-1.62634 L 9.63896,-1.69484 L 9.68361,-1.76494
 L 9.72495,-1.83679 L 9.763,-1.91058 L 9.79781,-1.9865 L 9.82941,-2.0647 L 9.85782,-2.14537 L 9.8831,-2.2287
 L 9.90527,-2.31485 L 9.92436,-2.40399 L 9.94043,-2.49632 L 9.95349,-2.592 L 9.96359,-2.69119 L 9.97076,-2.79411
 L 9.97505,-2.90091 L 9.97646,-3.01176 L 9.97646,-10.3059 L 7.01176,-8.70587 L 7.01176,-2.91763 L 9.3647,-1.3647
 z
M 42.5287,-7.4097 L 42.6275,-7.43718 L 42.7173,-7.48297 L 42.7982,-7.5471 L 42.8651,-7.62476 L 42.9129,-7.71114
 L 42.9415,-7.80627 L 42.9511,-7.91013 L 42.9415,-8.01517 L 42.9129,-8.11115 L 42.8651,-8.19804 L 42.7982,-8.27586
 L 42.7173,-8.34 L 42.6275,-8.38582 L 42.5287,-8.4133 L 42.421,-8.42247 L 42.3133,-8.4133 L 42.2145,-8.38582
 L 42.1247,-8.34 L 42.0438,-8.27586 L 41.9769,-8.19804 L 41.9291,-8.11115 L 41.9005,-8.01517 L 41.8909,-7.91013
 L 41.9005,-7.80627 L 41.9291,-7.71114 L 41.9769,-7.62476 L 42.0438,-7.5471 L 42.1247,-7.48297 L 42.2145,-7.43718
 L 42.3133,-7.4097 L 42.421,-7.40053 z
M 75.5871,-1.81268 L 75.6483,-1.81525 L 75.7113,-1.81952 L 75.7761,-1.82549 L 75.8424,-1.83389 L 75.9099,-1.84543
 L 75.9785,-1.86008 L 76.0484,-1.87787 L 75.9409,-2.45622 L 75.9214,-2.45261 L 75.8964,-2.44855 L 75.8659,-2.44406
 L 75.8298,-2.43913 L 75.7932,-2.43465 L 75.7609,-2.43146 L 75.7329,-2.42953 L 75.7092,-2.42889 L 75.6162,-2.44127
 L 75.5498,-2.47842 L 75.5099,-2.54033 L 75.4966,-2.627 L 75.4966,-3.80424 L 75.9767,-3.80424 L 75.9767,-4.394
 L 75.4966,-4.394 L 75.4966,-4.99971 L 74.663,-4.99971 L 74.663,-4.394 L 73.8287,-4.394 L 73.8287,-4.53746
 L 73.8323,-4.59033 L 73.8433,-4.63736 L 73.8616,-4.67856 L 73.8872,-4.7139 L 73.922,-4.74229 L 73.9681,-4.76257
 L 74.0253,-4.77475 L 74.0938,-4.77881 L 74.126,-4.77817 L 74.1583,-4.77625 L 74.1905,-4.77304 L 74.2228,-4.76857
 L 74.254,-4.76337 L 74.2831,-4.75804 L 74.3101,-4.75256 L 74.3351,-4.74695 L 74.4688,-5.32759 L 74.4267,-5.3382
 L 74.3745,-5.3495 L 74.3121,-5.36153 L 74.2395,-5.37425 L 74.1605,-5.38571 L 74.0789,-5.39389 L 73.9945,-5.3988
 L 73.9075,-5.40044 L 73.7161,-5.38692 L 73.5432,-5.34636 L 73.3889,-5.27875 L 73.253,-5.18411 L 73.1423,-5.06215
 L 73.0632,-4.91258 L 73.0157,-4.73541 L 72.9999,-4.53061 L 72.9999,-4.394 L 72.5508,-4.394 L 72.5508,-3.80424
 L 72.9999,-3.80424 L 72.9999,-1.84825 L 73.8287,-1.84825 L 73.8287,-3.80424 L 74.663,-3.80424 L 74.663,-2.55641
 L 74.6768,-2.38513 L 74.718,-2.23563 L 74.7867,-2.10789 L 74.8828,-2.00194 L 75.0055,-1.91876 L 75.1539,-1.85934
 L 75.328,-1.82372 L 75.5277,-1.81183 z
M 31.4442,-1.81354 L 31.6531,-1.84599 L 31.8491,-1.90007 L 32.0322,-1.97578 L 32.1995,-2.07178 L 32.3478,-2.18669
 L 32.4772,-2.32054 L 32.5875,-2.47331 L 32.6758,-2.6436 L 32.7389,-2.82996 L 32.7768,-3.03239 L 32.7894,-3.25092
 L 32.7894,-3.6972 L 31.2631,-3.6972 L 31.2631,-3.10747 L 31.9749,-3.10747 L 31.9597,-2.97682 L 31.9215,-2.86041
 L 31.86,-2.75822 L 31.7755,-2.67027 L 31.6692,-2.59955 L 31.5429,-2.54903 L 31.3964,-2.51871 L 31.2297,-2.50861
 L 31.0391,-2.5256 L 30.8708,-2.57663 L 30.725,-2.66167 L 30.6015,-2.7807 L 30.5033,-2.93079 L 30.4331,-3.10889
 L 30.391,-3.31503 L 30.377,-3.54921 L 30.3914,-3.78125 L 30.4346,-3.98555 L 30.5067,-4.16209 L 30.6075,-4.31088
 L 30.7327,-4.42892 L 30.8777,-4.51324 L 31.0426,-4.56384 L 31.2273,-4.5807 L 31.3541,-4.57338 L 31.4694,-4.55139
 L 31.5733,-4.51474 L 31.6656,-4.46342 L 31.7451,-4.3989 L 31.8104,-4.32254 L 31.8615,-4.23439 L 31.8985,-4.13441
 L 32.7512,-4.13441 L 32.7191,-4.29814 L 32.6661,-4.45235 L 32.5919,-4.59702 L 32.4968,-4.73213 L 32.3836,-4.85538
 L 32.2553,-4.9644 L 32.1119,-5.05917 L 31.9534,-5.13972 L 31.7826,-5.20399 L 31.6023,-5.24989 L 31.4124,-5.27744
 L 31.213,-5.28662 L 30.981,-5.27374 L 30.7604,-5.23509 L 30.5511,-5.17068 L 30.3531,-5.08052 L 30.1707,-4.96597
 L 30.008,-4.82835 L 29.865,-4.66768 L 29.7417,-4.48395 L 29.6424,-4.27837 L 29.5715,-4.05214 L 29.5289,-3.8053
 L 29.5148,-3.53783 L 29.5282,-3.27937 L 29.5685,-3.03914 L 29.6357,-2.81712 L 29.7297,-2.61333 L 29.8478,-2.42982
 L 29.9871,-2.26866 L 30.1476,-2.12984 L 30.3292,-2.01335 L 30.5293,-1.9212 L 30.7448,-1.85538 L 30.9759,-1.81589
 L 31.2225,-1.80273 z
M 37.1901,-1.83141 L 37.4855,-1.91743 L 37.7413,-2.06081 L 37.9575,-2.26155 L 38.1294,-2.51366 L 38.2522,-2.81117
 L 38.3259,-3.15408 L 38.3504,-3.54239 L 38.3393,-3.80688 L 38.3059,-4.05159 L 38.2503,-4.27652 L 38.1725,-4.48166
 L 38.0737,-4.66547 L 37.9554,-4.82635 L 37.8176,-4.96432 L 37.6601,-5.07938 L 37.4844,-5.17004 L 37.2917,-5.23482
 L 37.082,-5.27367 L 36.8552,-5.28662 L 36.5222,-5.25787 L 36.2279,-5.17162 L 35.9723,-5.02786 L 35.7553,-4.82661
 L 35.5824,-4.57387 L 35.4588,-4.27557 L 35.3847,-3.93176 L 35.36,-3.54239 L 35.3847,-3.15315 L 35.4588,-2.80974
 L 35.5824,-2.51216 L 35.7553,-2.26041 L 35.9723,-2.06017 L 36.2279,-1.91714 L 36.5222,-1.83133 L 36.8552,-1.80273
 z
M 36.7124,-2.4783 L 36.5874,-2.53081 L 36.4802,-2.61833 L 36.3907,-2.74084 L 36.3201,-2.89598 L 36.2697,-3.08128
 L 36.2395,-3.29675 L 36.2294,-3.54239 L 36.2396,-3.78925 L 36.27,-4.00606 L 36.3208,-4.19284 L 36.3918,-4.34959
 L 36.4817,-4.47363 L 36.5889,-4.56221 L 36.7134,-4.61537 L 36.8552,-4.63309 L 36.9981,-4.61537 L 37.1233,-4.56221
 L 37.2309,-4.47363 L 37.321,-4.34959 L 37.392,-4.19284 L 37.4428,-4.00606 L 37.4732,-3.78925 L 37.4834,-3.54239
 L 37.4732,-3.29675 L 37.4428,-3.08128 L 37.392,-2.89598 L 37.321,-2.74084 L 37.2309,-2.61833 L 37.1233,-2.53081
 L 36.9981,-2.4783 L 36.8552,-2.4608 z
M 24.5872,-1.81532 L 24.8077,-1.8531 L 25.0166,-1.91606 L 25.214,-2.00423 L 25.3958,-2.11673 L 25.5576,-2.2527
 L 25.6997,-2.41217 L 25.8219,-2.59514 L 25.9201,-2.80035 L 25.9902,-3.02664 L 26.0323,-3.27399 L 26.0464,-3.54239
 L 26.0323,-3.8118 L 25.9902,-4.05984 L 25.9201,-4.28654 L 25.8219,-4.4919 L 25.6997,-4.67493 L 25.5576,-4.83461
 L 25.3958,-4.97095 L 25.214,-5.08395 L 25.0166,-5.17262 L 24.8077,-5.23595 L 24.5872,-5.27396 L 24.3553,-5.28662
 L 24.1213,-5.27396 L 23.8994,-5.23595 L 23.6896,-5.17262 L 23.4919,-5.08395 L 23.3102,-4.97095 L 23.1483,-4.83461
 L 23.0062,-4.67493 L 22.884,-4.4919 L 22.7858,-4.28654 L 22.7156,-4.05984 L 22.6735,-3.8118 L 22.6595,-3.54239
 L 22.6735,-3.27496 L 22.7156,-3.02832 L 22.7858,-2.80246 L 22.884,-2.59738 L 23.0062,-2.41437 L 23.1483,-2.2547
 L 23.3102,-2.11836 L 23.4919,-2.00536 L 23.6896,-1.9167 L 23.8994,-1.85338 L 24.1213,-1.8154 L 24.3553,-1.80273
 z
M 24.1711,-2.52518 L 24.0078,-2.57492 L 23.8654,-2.65781 L 23.7439,-2.77385 L 23.6467,-2.92137 L 23.5773,-3.09863
 L 23.5356,-3.30563 L 23.5218,-3.54239 L 23.5356,-3.7802 L 23.5773,-3.98811 L 23.6467,-4.16614 L 23.7439,-4.31427
 L 23.8654,-4.43085 L 24.0078,-4.5141 L 24.1711,-4.56406 L 24.3553,-4.5807 L 24.5385,-4.56406 L 24.7011,-4.5141
 L 24.843,-4.43085 L 24.9644,-4.31427 L 25.0616,-4.16614 L 25.131,-3.98811 L 25.1726,-3.7802 L 25.1865,-3.54239
 L 25.1726,-3.30563 L 25.131,-3.09863 L 25.0616,-2.92137 L 24.9644,-2.77385 L 24.843,-2.65781 L 24.7011,-2.57492
 L 24.5385,-2.52518 L 24.3553,-2.50861 z
M 40.2691,-1.81084 L 40.459,-1.83517 L 40.6369,-1.87573 L 40.8029,-1.9325 L 40.9542,-2.00345 L 41.088,-2.08649
 L 41.2044,-2.18163 L 41.3033,-2.28885 L 41.3822,-2.40633 L 41.4386,-2.53221 L 41.4724,-2.6665 L 41.4836,-2.80919
 L 41.4706,-2.95975 L 41.4314,-3.09721 L 41.3661,-3.22159 L 41.2746,-3.33287 L 41.1577,-3.42752 L 41.0158,-3.50197
 L 40.849,-3.55618 L 40.6572,-3.59019 L 40.6572,-3.61525 L 40.8042,-3.64584 L 40.937,-3.69437 L 41.0556,-3.76082
 L 41.16,-3.84521 L 41.2452,-3.9447 L 41.306,-4.05641 L 41.3425,-4.18039 L 41.3547,-4.31659 L 41.3446,-4.45085
 L 41.3143,-4.57816 L 41.264,-4.69847 L 41.1934,-4.81181 L 41.1049,-4.91592 L 41.0006,-5.00851 L 40.8804,-5.08957
 L 40.7444,-5.1591 L 40.5949,-5.21489 L 40.4342,-5.25475 L 40.2623,-5.27864 L 40.0792,-5.28662 L 39.8933,-5.27844
 L 39.7177,-5.25388 L 39.5523,-5.21295 L 39.3973,-5.15567 L 39.2553,-5.08401 L 39.1292,-4.99998 L 39.0189,-4.90356
 L 38.9244,-4.79475 L 38.8484,-4.67535 L 38.7939,-4.54713 L 38.7607,-4.4101 L 38.7488,-4.26422 L 39.5585,-4.26422
 L 39.5689,-4.3486 L 39.5976,-4.42416 L 39.6447,-4.49089 L 39.7101,-4.54881 L 39.789,-4.59564 L 39.8765,-4.62909
 L 39.9724,-4.64915 L 40.0768,-4.65585 L 40.1747,-4.64909 L 40.2631,-4.62881 L 40.3419,-4.59502 L 40.4112,-4.5477
 L 40.4676,-4.48958 L 40.5079,-4.42332 L 40.5321,-4.34897 L 40.5402,-4.26649 L 40.5308,-4.18074 L 40.5025,-4.10339
 L 40.4555,-4.03444 L 40.3897,-3.97388 L 40.3091,-3.92456 L 40.2177,-3.88934 L 40.1156,-3.86821 L 40.0027,-3.86116
 L 39.6564,-3.86116 L 39.6564,-3.28734 L 40.0027,-3.28734 L 40.132,-3.28009 L 40.2476,-3.2583 L 40.3494,-3.22202
 L 40.4375,-3.1712 L 40.5085,-3.10887 L 40.5593,-3.03801 L 40.5898,-2.9586 L 40.5999,-2.87065 L 40.5907,-2.78285
 L 40.5632,-2.70387 L 40.5173,-2.63371 L 40.453,-2.57236 L 40.3743,-2.52255 L 40.2849,-2.48697 L 40.185,-2.46562
 L 40.0744,-2.45851 L 39.9623,-2.46506 L 39.8601,-2.4847 L 39.7677,-2.51741 L 39.6851,-2.56323 L 39.6169,-2.61974
 L 39.5675,-2.68449 L 39.5369,-2.75751 L 39.5251,-2.83876 L 38.6796,-2.83876 L 38.6918,-2.69069 L 38.7261,-2.55157
 L 38.7825,-2.42142 L 38.8611,-2.30023 L 38.9589,-2.18987 L 39.0733,-2.09218 L 39.2043,-2.00714 L 39.3519,-1.93478
 L 39.5135,-1.87701 L 39.6866,-1.83574 L 39.8712,-1.81099 L 40.0673,-1.80273 z
M 53.1539,-1.83141 L 53.4492,-1.91743 L 53.705,-2.06081 L 53.9213,-2.26155 L 54.0932,-2.51366 L 54.2159,-2.81117
 L 54.2896,-3.15408 L 54.3142,-3.54239 L 54.303,-3.80688 L 54.2697,-4.05159 L 54.2141,-4.27652 L 54.1362,-4.48166
 L 54.0375,-4.66547 L 53.9192,-4.82635 L 53.7813,-4.96432 L 53.6239,-5.07938 L 53.4482,-5.17004 L 53.2554,-5.23482
 L 53.0457,-5.27367 L 52.819,-5.28662 L 52.486,-5.25787 L 52.1917,-5.17162 L 51.936,-5.02786 L 51.719,-4.82661
 L 51.5461,-4.57387 L 51.4226,-4.27557 L 51.3485,-3.93176 L 51.3238,-3.54239 L 51.3485,-3.15315 L 51.4226,-2.80974
 L 51.5461,-2.51216 L 51.719,-2.26041 L 51.936,-2.06017 L 52.1917,-1.91714 L 52.486,-1.83133 L 52.819,-1.80273
 z
M 52.6762,-2.4783 L 52.5512,-2.53081 L 52.4439,-2.61833 L 52.3544,-2.74084 L 52.2839,-2.89598 L 52.2335,-3.08128
 L 52.2032,-3.29675 L 52.1932,-3.54239 L 52.2033,-3.78925 L 52.2338,-4.00606 L 52.2845,-4.19284 L 52.3556,-4.34959
 L 52.4454,-4.47363 L 52.5526,-4.56221 L 52.6771,-4.61537 L 52.819,-4.63309 L 52.9618,-4.61537 L 53.0871,-4.56221
 L 53.1947,-4.47363 L 53.2847,-4.34959 L 53.3558,-4.19284 L 53.4065,-4.00606 L 53.437,-3.78925 L 53.4471,-3.54239
 L 53.437,-3.29675 L 53.4065,-3.08128 L 53.3558,-2.89598 L 53.2847,-2.74084 L 53.1947,-2.61833 L 53.0871,-2.53081
 L 52.9618,-2.4783 L 52.819,-2.4608 z
M 61.2034,-1.83141 L 61.4987,-1.91743 L 61.7545,-2.06081 L 61.9708,-2.26155 L 62.1427,-2.51366 L 62.2655,-2.81117
 L 62.3391,-3.15408 L 62.3637,-3.54239 L 62.3526,-3.80688 L 62.3192,-4.05159 L 62.2636,-4.27652 L 62.1857,-4.48166
 L 62.087,-4.66547 L 61.9687,-4.82635 L 61.8308,-4.96432 L 61.6734,-5.07938 L 61.4977,-5.17004 L 61.305,-5.23482
 L 61.0952,-5.27367 L 60.8685,-5.28662 L 60.5355,-5.25787 L 60.2412,-5.17162 L 59.9855,-5.02786 L 59.7686,-4.82661
 L 59.5956,-4.57387 L 59.4721,-4.27557 L 59.398,-3.93176 L 59.3733,-3.54239 L 59.398,-3.15315 L 59.4721,-2.80974
 L 59.5956,-2.51216 L 59.7686,-2.26041 L 59.9855,-2.06017 L 60.2412,-1.91714 L 60.5355,-1.83133 L 60.8685,-1.80273
 z
M 60.7257,-2.4783 L 60.6007,-2.53081 L 60.4934,-2.61833 L 60.4039,-2.74084 L 60.3334,-2.89598 L 60.283,-3.08128
 L 60.2528,-3.29675 L 60.2427,-3.54239 L 60.2528,-3.78925 L 60.2833,-4.00606 L 60.334,-4.19284 L 60.4051,-4.34959
 L 60.495,-4.47363 L 60.6022,-4.56221 L 60.7267,-4.61537 L 60.8685,-4.63309 L 61.0113,-4.61537 L 61.1366,-4.56221
 L 61.2442,-4.47363 L 61.3342,-4.34959 L 61.4053,-4.19284 L 61.456,-4.00606 L 61.4865,-3.78925 L 61.4967,-3.54239
 L 61.4865,-3.29675 L 61.456,-3.08128 L 61.4053,-2.89598 L 61.3342,-2.74084 L 61.2442,-2.61833 L 61.1366,-2.53081
 L 61.0113,-2.4783 L 60.8685,-2.4608 z
M 57.4138,-5.24106 L 56.5421,-5.24106 L 55.7491,-4.72189 L 55.7491,-4.01602 L 56.5492,-4.54199 L 56.5731,-4.54199
 L 56.5731,-1.84825 L 57.4138,-1.84825 z
M 66.1207,-1.82043 L 66.2505,-1.84627 L 66.3649,-1.88931 L 66.4639,-1.94958 L 66.5488,-2.02068 L 66.6207,-2.09618
 L 66.6796,-2.17609 L 66.7255,-2.26041 L 66.7541,-2.26041 L 66.7541,-1.84825 L 67.5758,-1.84825 L 67.5758,-5.24106
 L 66.7446,-5.24106 L 66.7446,-3.95679 L 66.7255,-3.95679 L 66.6975,-4.01337 L 66.6637,-4.06921 L 66.624,-4.12436
 L 66.5786,-4.1788 L 66.5269,-4.23047 L 66.4684,-4.2773 L 66.4032,-4.31927 L 66.3314,-4.35641 L 66.2523,-4.38681
 L 66.1654,-4.40852 L 66.0707,-4.42154 L 65.9683,-4.42589 L 65.8309,-4.41705 L 65.6981,-4.39059 L 65.57,-4.34647
 L 65.4464,-4.2847 L 65.331,-4.20485 L 65.2273,-4.10651 L 65.1352,-3.98965 L 65.0547,-3.85431 L 64.9894,-3.69992
 L 64.9428,-3.52586 L 64.9148,-3.33218 L 64.9055,-3.11885 L 64.9144,-2.91144 L 64.9413,-2.7218 L 64.9861,-2.54996
 L 65.0488,-2.39589 L 65.1267,-2.25969 L 65.2171,-2.14142 L 65.3202,-2.04109 L 65.4357,-1.95869 L 65.5608,-1.89444
 L 65.6924,-1.84854 L 65.8307,-1.821 L 65.9755,-1.81183 z
M 66.1462,-2.44299 L 66.0468,-2.47842 L 65.9617,-2.53749 L 65.8907,-2.62018 L 65.8348,-2.72223 L 65.7949,-2.83934
 L 65.7709,-2.97156 L 65.7629,-3.11885 L 65.7709,-3.26608 L 65.7949,-3.39807 L 65.8348,-3.51485 L 65.8907,-3.61639
 L 65.9617,-3.69858 L 66.0468,-3.75728 L 66.1462,-3.79251 L 66.2597,-3.80424 L 66.3725,-3.79272 L 66.472,-3.75813
 L 66.5582,-3.70049 L 66.6311,-3.61978 L 66.6891,-3.5193 L 66.7305,-3.40233 L 66.7554,-3.26884 L 66.7637,-3.11885
 L 66.7553,-2.97063 L 66.7302,-2.83792 L 66.6884,-2.72072 L 66.6299,-2.61903 L 66.5566,-2.53685 L 66.4705,-2.47813
 L 66.3715,-2.44292 L 66.2597,-2.43117 z
M 12.3226,-3.3101 L 12.3222,-3.37863 L 12.3211,-3.4567 L 12.3192,-3.54428 L 12.3166,-3.6414 L 12.3103,-3.85347
 L 12.307,-3.96568 L 12.3035,-4.08203 L 12.3,-4.19958 L 12.2969,-4.31543 L 12.2941,-4.42957 L 12.2915,-4.54199
 L 12.3218,-4.42267 L 12.3527,-4.30377 L 12.3845,-4.1853 L 12.4169,-4.06726 L 12.4494,-3.95177 L 12.4811,-3.84097
 L 12.5121,-3.73486 L 12.5423,-3.63345 L 12.571,-3.53896 L 12.5973,-3.45357 L 12.6211,-3.37727 L 12.6426,-3.3101
 L 13.1562,-1.84825 L 13.8608,-1.84825 L 14.3671,-3.3101 L 14.3897,-3.37978 L 14.4143,-3.45898 L 14.441,-3.54771
 L 14.4698,-3.64598 L 14.5001,-3.75137 L 14.531,-3.86145 L 14.5628,-3.97623 L 14.5952,-4.0957 L 14.6277,-4.21738
 L 14.6594,-4.33878 L 14.6904,-4.45988 L 14.7206,-4.5807 L 14.7181,-4.46573 L 14.7152,-4.34846 L 14.7121,-4.22891
 L 14.7087,-4.10707 L 14.7018,-3.87 L 14.6955,-3.65054 L 14.6929,-3.55028 L 14.6911,-3.46011 L 14.6899,-3.38007
 L 14.6896,-3.3101 L 14.6896,-1.84825 L 15.5375,-1.84825 L 15.5375,-5.24106 L 14.2214,-5.24106 L 13.7748,-3.92036
 L 13.7562,-3.85782 L 13.7363,-3.78632 L 13.715,-3.70584 L 13.6924,-3.61639 L 13.6691,-3.52075 L 13.6458,-3.42169
 L 13.6225,-3.31923 L 13.5992,-3.21333 L 13.5763,-3.10654 L 13.5542,-3.0013 L 13.5327,-2.89763 L 13.5121,-2.79552
 L 13.4902,-2.89771 L 13.4678,-3.00159 L 13.4449,-3.10718 L 13.4213,-3.21448 L 13.3975,-3.3208 L 13.3738,-3.42342
 L 13.3503,-3.52232 L 13.327,-3.61754 L 13.3043,-3.70648 L 13.2831,-3.78661 L 13.2631,-3.85789 L 13.2445,-3.92036
 L 12.7907,-5.24106 L 11.4771,-5.24106 L 11.4771,-1.84825 L 12.3226,-1.84825 z
M 27.2762,-3.01637 L 27.7348,-3.01637 L 28.3869,-1.84825 L 29.3112,-1.84825 L 28.5684,-3.14391 L 28.708,-3.21506
 L 28.8308,-3.30103 L 28.9367,-3.40178 L 29.0258,-3.51735 L 29.0963,-3.64685 L 29.1467,-3.78944 L 29.1769,-3.94514
 L 29.187,-4.11392 L 29.1653,-4.36006 L 29.1001,-4.57928 L 28.9915,-4.77162 L 28.8395,-4.93706 L 28.6498,-5.07005
 L 28.4284,-5.16505 L 28.1751,-5.22205 L 27.89,-5.24106 L 26.4331,-5.24106 L 26.4331,-1.84825 L 27.2762,-1.84825
 z
M 27.2762,-3.65169 L 27.2762,-4.58984 L 27.7109,-4.58984 L 27.9743,-4.56009 L 28.1624,-4.47086 L 28.2752,-4.32214
 L 28.3128,-4.11392 L 28.2754,-3.9117 L 28.1629,-3.76724 L 27.9756,-3.68057 L 27.7133,-3.65169 z
M 16.829,-3.3101 L 16.8286,-3.37863 L 16.8275,-3.4567 L 16.8256,-3.54428 L 16.823,-3.6414 L 16.8167,-3.85347
 L 16.8099,-4.08203 L 16.8064,-4.19958 L 16.8033,-4.31543 L 16.8005,-4.42957 L 16.7979,-4.54199 L 16.8282,-4.42267
 L 16.8591,-4.30377 L 16.8909,-4.1853 L 16.9233,-4.06726 L 16.9558,-3.95177 L 16.9875,-3.84097 L 17.0185,-3.73486
 L 17.0487,-3.63345 L 17.0774,-3.53896 L 17.1037,-3.45357 L 17.1275,-3.37727 L 17.149,-3.3101 L 17.6626,-1.84825
 L 18.3672,-1.84825 L 18.8735,-3.3101 L 18.8961,-3.37978 L 18.9207,-3.45898 L 18.9474,-3.54771 L 18.9762,-3.64598
 L 19.0065,-3.75137 L 19.0374,-3.86145 L 19.0692,-3.97623 L 19.1016,-4.0957 L 19.1341,-4.21738 L 19.1658,-4.33878
 L 19.1968,-4.45988 L 19.227,-4.5807 L 19.2245,-4.46573 L 19.2216,-4.34846 L 19.2185,-4.22891 L 19.2151,-4.10707
 L 19.2082,-3.87 L 19.202,-3.65054 L 19.1993,-3.55028 L 19.1975,-3.46011 L 19.1963,-3.38007 L 19.196,-3.3101
 L 19.196,-1.84825 L 20.0439,-1.84825 L 20.0439,-5.24106 L 18.7278,-5.24106 L 18.2812,-3.92036 L 18.2626,-3.85782
 L 18.2427,-3.78632 L 18.2214,-3.70584 L 18.1988,-3.61639 L 18.1755,-3.52075 L 18.1522,-3.42169 L 18.1289,-3.31923
 L 18.1056,-3.21333 L 18.0827,-3.10654 L 18.0606,-3.0013 L 18.0391,-2.89763 L 18.0185,-2.79552 L 17.9967,-2.89771
 L 17.9743,-3.00159 L 17.9513,-3.10718 L 17.9277,-3.21448 L 17.9039,-3.3208 L 17.8802,-3.42342 L 17.8567,-3.52232
 L 17.8333,-3.61754 L 17.8107,-3.70648 L 17.7895,-3.78661 L 17.7695,-3.85789 L 17.7509,-3.92036 L 17.2971,-5.24106
 L 15.9835,-5.24106 L 15.9835,-1.84825 L 16.829,-1.84825 z
M 44.3247,-4.58299 L 44.3247,-5.24106 L 41.7642,-5.24106 L 41.7642,-4.58984 L 43.4481,-4.58984 L 43.4481,-4.56932
 L 42.0078,-1.84825 L 42.8773,-1.84825 z
M 79.2135,-5.24106 L 78.3417,-5.24106 L 77.5487,-4.72189 L 77.5487,-4.01602 L 78.3489,-4.54199 L 78.3727,-4.54199
 L 78.3727,-1.84825 L 79.2135,-1.84825 z
M 68.888,-3.23724 L 68.8975,-3.34569 L 68.9259,-3.44331 L 68.9733,-3.53014 L 69.0397,-3.60611 L 69.1205,-3.66789
 L 69.2113,-3.71201 L 69.3122,-3.73848 L 69.423,-3.7473 L 69.4625,-3.74666 L 69.5045,-3.74475 L 69.5491,-3.74155
 L 69.5962,-3.73706 L 69.6422,-3.73131 L 69.6837,-3.72426 L 69.7205,-3.71594 L 69.7526,-3.70634 L 69.7526,-4.39856
 L 69.6949,-4.41051 L 69.6362,-4.41905 L 69.5766,-4.42418 L 69.5162,-4.42589 L 69.4097,-4.4182 L 69.3099,-4.39514
 L 69.2168,-4.35672 L 69.1304,-4.30293 L 69.0533,-4.23347 L 68.988,-4.14809 L 68.9345,-4.04675 L 68.8928,-3.92949
 L 68.8641,-3.92949 L 68.8641,-4.394 L 68.0544,-4.394 L 68.0544,-1.84825 L 68.888,-1.84825 z
M 70.97,-1.82791 L 71.184,-1.90347 L 71.3569,-2.02942 L 71.4885,-2.20575 L 71.5101,-2.20575 L 71.5101,-1.84825
 L 72.2935,-1.84825 L 72.2935,-3.57654 L 72.2836,-3.70796 L 72.2538,-3.82899 L 72.2041,-3.93964 L 72.1346,-4.03989
 L 72.0484,-4.1292 L 71.9483,-4.20697 L 71.8346,-4.27322 L 71.7071,-4.32794 L 71.5688,-4.37079 L 71.4226,-4.4014
 L 71.2684,-4.41977 L 71.1064,-4.42589 L 70.8678,-4.41315 L 70.6535,-4.37494 L 70.4635,-4.31125 L 70.2979,-4.22208
 L 70.1587,-4.11258 L 70.048,-3.98784 L 69.9658,-3.84787 L 69.9121,-3.69267 L 70.6669,-3.5993 L 70.6886,-3.65651
 L 70.72,-3.70744 L 70.7614,-3.75214 L 70.8126,-3.79056 L 70.8726,-3.82144 L 70.9404,-3.84351 L 71.0159,-3.85675
 L 71.0992,-3.86116 L 71.1795,-3.85669 L 71.2506,-3.84323 L 71.3126,-3.82082 L 71.3655,-3.78944 L 71.4079,-3.74982
 L 71.4381,-3.70264 L 71.4562,-3.6479 L 71.4623,-3.58563 L 71.4623,-3.57654 L 71.4531,-3.52225 L 71.4255,-3.47778
 L 71.3796,-3.44313 L 71.3154,-3.41829 L 71.2299,-3.39914 L 71.1204,-3.38156 L 70.9869,-3.36555 L 70.8293,-3.3511
 L 70.6971,-3.33617 L 70.5705,-3.3141 L 70.4493,-3.28493 L 70.3337,-3.24863 L 70.2265,-3.20338 L 70.1304,-3.14731
 L 70.0455,-3.08043 L 69.9718,-3.00272 L 69.9123,-2.91235 L 69.8698,-2.80746 L 69.8442,-2.68806 L 69.8357,-2.55414
 L 69.8512,-2.37711 L 69.8975,-2.22397 L 69.9748,-2.09476 L 70.0829,-1.98944 L 70.2151,-1.90776 L 70.3645,-1.84941
 L 70.531,-1.81439 L 70.7147,-1.80273 z
M 70.896,-2.3329 L 70.8308,-2.34549 L 70.7724,-2.36649 L 70.7206,-2.39589 L 70.6783,-2.43324 L 70.6481,-2.47815
 L 70.63,-2.53059 L 70.6239,-2.59056 L 70.648,-2.70256 L 70.7201,-2.79037 L 70.8402,-2.85399 L 71.0085,-2.89342
 L 71.0682,-2.90295 L 71.1303,-2.91333 L 71.1947,-2.92458 L 71.2616,-2.93668 L 71.3257,-2.94991 L 71.3817,-2.96457
 L 71.4296,-2.98067 L 71.4695,-2.99818 L 71.4695,-2.75452 L 71.4603,-2.66443 L 71.433,-2.58316 L 71.3875,-2.51071
 L 71.3237,-2.4471 L 71.2469,-2.39529 L 71.1619,-2.35831 L 71.0689,-2.33611 L 70.9678,-2.3287 z
M 51.1459,-4.394 L 50.2765,-4.394 L 49.8848,-3.14844 L 49.8581,-3.06184 L 49.8328,-2.9751 L 49.8091,-2.88821
 L 49.7868,-2.80119 L 49.7657,-2.71346 L 49.7451,-2.62444 L 49.7251,-2.53413 L 49.7057,-2.44257 L 49.6841,-2.53421
 L 49.6624,-2.62473 L 49.6405,-2.7141 L 49.6185,-2.80234 L 49.5957,-2.88971 L 49.5716,-2.97653 L 49.5461,-3.06277
 L 49.5193,-3.14844 L 49.1205,-4.394 L 48.2415,-4.394 L 49.2088,-1.84825 L 50.1738,-1.84825 z
M 46.4139,-3.03766 L 46.498,-3.0605 L 46.5745,-3.09857 L 46.6434,-3.15186 L 46.7003,-3.2164 L 46.741,-3.28819
 L 46.7654,-3.36726 L 46.7736,-3.45358 L 46.7654,-3.54088 L 46.741,-3.62065 L 46.7003,-3.69287 L 46.6434,-3.75755
 L 46.5745,-3.81085 L 46.498,-3.84894 L 46.4139,-3.87178 L 46.3222,-3.87939 L 46.2304,-3.87178 L 46.1463,-3.84894
 L 46.0698,-3.81085 L 46.0009,-3.75755 L 45.944,-3.69287 L 45.9033,-3.62065 L 45.8789,-3.54088 L 45.8708,-3.45358
 L 45.8789,-3.36726 L 45.9033,-3.28819 L 45.944,-3.2164 L 46.0009,-3.15186 L 46.0698,-3.09857 L 46.1463,-3.0605
 L 46.2304,-3.03766 L 46.3222,-3.03004 z
M 34.8862,-3.84978 L 33.2453,-3.84978 L 33.2453,-3.23724 L 34.8862,-3.23724 z
M 22.1857,-3.84978 L 20.5448,-3.84978 L 20.5448,-3.23724 L 22.1857,-3.23724 z
M 64.4555,-3.52872 L 62.8146,-3.52872 L 62.8146,-2.91618 L 64.4555,-2.91618 z
M 7.56636,-0.800369 L 7.64903,-0.80159 L 7.73042,-0.803802 L 7.81062,-0.807144 L 7.88969,-0.811752 L 7.96771,-0.81778
 L 8.04474,-0.825363 L 8.12083,-0.834625 L 8.19609,-0.845734 L 8.27058,-0.85881 L 8.34436,-0.874023 L 8.4175,-0.891479
 L 8.49008,-0.911331 L 8.56216,-0.933731 L 8.63382,-0.958817 L 8.70512,-0.986725 L 8.77614,-1.01759 L 8.84695,-1.05157
 L 8.91763,-1.08879 L 8.98822,-1.12941 L 5.12941,-3.34117 L 1.64705,-1.17647 L 1.69046,-1.14188 L 1.73595,-1.10875
 L 1.78348,-1.07709 L 1.83302,-1.04695 L 1.88455,-1.01837 L 1.93802,-0.991379 L 1.99339,-0.966003 L 2.05063,-0.942291
 L 2.10971,-0.920288 L 2.17058,-0.899994 L 2.23322,-0.88147 L 2.29759,-0.864746 L 2.36366,-0.849854 L 2.43138,-0.836838
 L 2.50073,-0.825729 L 2.57166,-0.816559 L 2.64415,-0.809357 L 2.71815,-0.804184 L 2.79364,-0.801041 L 2.87057,-0.799988
 L 7.48235,-0.799988 z
M 55.2401,-1.80806 L 55.3242,-1.8309 L 55.4008,-1.86896 L 55.4697,-1.92226 L 55.5266,-1.9868 L 55.5673,-2.05859
 L 55.5917,-2.13766 L 55.5998,-2.22397 L 55.5917,-2.31128 L 55.5673,-2.39104 L 55.5266,-2.46327 L 55.4697,-2.52794
 L 55.4008,-2.58125 L 55.3242,-2.61932 L 55.2401,-2.64218 L 55.1484,-2.6498 L 55.0567,-2.64218 L 54.9726,-2.61932
 L 54.8961,-2.58125 L 54.8272,-2.52794 L 54.7702,-2.46327 L 54.7295,-2.39104 L 54.7051,-2.31128 L 54.697,-2.22397
 L 54.7051,-2.13766 L 54.7295,-2.05859 L 54.7702,-1.9868 L 54.8272,-1.92226 L 54.8961,-1.86896 L 54.9726,-1.8309
 L 55.0567,-1.80806 L 55.1484,-1.80045 z
M 77.0398,-1.80806 L 77.1239,-1.8309 L 77.2004,-1.86896 L 77.2693,-1.92226 L 77.3262,-1.9868 L 77.3669,-2.05859
 L 77.3913,-2.13766 L 77.3995,-2.22397 L 77.3913,-2.31128 L 77.3669,-2.39104 L 77.3262,-2.46327 L 77.2693,-2.52794
 L 77.2004,-2.58125 L 77.1239,-2.61932 L 77.0398,-2.64218 L 76.9481,-2.6498 L 76.8563,-2.64218 L 76.7722,-2.61932
 L 76.6957,-2.58125 L 76.6268,-2.52794 L 76.5699,-2.46327 L 76.5292,-2.39104 L 76.5048,-2.31128 L 76.4966,-2.22397
 L 76.5048,-2.13766 L 76.5292,-2.05859 L 76.5699,-1.9868 L 76.6268,-1.92226 L 76.6957,-1.86896 L 76.7722,-1.8309
 L 76.8563,-1.80806 L 76.9481,-1.80045 z
M 58.5943,-1.80806 L 58.6784,-1.8309 L 58.7549,-1.86896 L 58.8238,-1.92226 L 58.8807,-1.9868 L 58.9214,-2.05859
 L 58.9458,-2.13766 L 58.9539,-2.22397 L 58.9458,-2.31128 L 58.9214,-2.39104 L 58.8807,-2.46327 L 58.8238,-2.52794
 L 58.7549,-2.58125 L 58.6784,-2.61932 L 58.5943,-2.64218 L 58.5025,-2.6498 L 58.4108,-2.64218 L 58.3267,-2.61932
 L 58.2502,-2.58125 L 58.1813,-2.52794 L 58.1243,-2.46327 L 58.0837,-2.39104 L 58.0593,-2.31128 L 58.0511,-2.22397
 L 58.0593,-2.13766 L 58.0837,-2.05859 L 58.1243,-1.9868 L 58.1813,-1.92226 L 58.2502,-1.86896 L 58.3267,-1.8309
 L 58.4108,-1.80806 L 58.5025,-1.80045 z
" stroke="none" fill="#000000"/>
</svg>
