solid OpenSCAD_Model
  facet normal 1 0 0
    outer loop
      vertex 78 27 10
      vertex 78 13 10
      vertex 78 27 3
    endloop
  endfacet
  facet normal 1 -0 0
    outer loop
      vertex 78 27 3
      vertex 78 30 0
      vertex 78 30 3
    endloop
  endfacet
  facet normal 1 0 0
    outer loop
      vertex 78 13 3
      vertex 78 27 3
      vertex 78 13 10
    endloop
  endfacet
  facet normal 1 0 0
    outer loop
      vertex 78 27 3
      vertex 78 13 3
      vertex 78 30 0
    endloop
  endfacet
  facet normal 1 0 0
    outer loop
      vertex 78 10 0
      vertex 78 13 3
      vertex 78 10 3
    endloop
  endfacet
  facet normal 1 0 0
    outer loop
      vertex 78 13 3
      vertex 78 10 0
      vertex 78 30 0
    endloop
  endfacet
  facet normal -0 0 1
    outer loop
      vertex 8 27 10
      vertex 78 13 10
      vertex 78 27 10
    endloop
  endfacet
  facet normal 0 0 1
    outer loop
      vertex 78 13 10
      vertex 8 27 10
      vertex 8 13 10
    endloop
  endfacet
  facet normal 0 0 -1
    outer loop
      vertex 8 10 0
      vertex 78 30 0
      vertex 78 10 0
    endloop
  endfacet
  facet normal -0 0 -1
    outer loop
      vertex 78 30 0
      vertex 8 10 0
      vertex 8 30 0
    endloop
  endfacet
  facet normal -1 0 0
    outer loop
      vertex 8 30 0
      vertex 8 27 3
      vertex 8 30 3
    endloop
  endfacet
  facet normal -1 0 0
    outer loop
      vertex 8 27 3
      vertex 8 13 3
      vertex 8 27 10
    endloop
  endfacet
  facet normal -1 0 0
    outer loop
      vertex 8 30 0
      vertex 8 13 3
      vertex 8 27 3
    endloop
  endfacet
  facet normal -1 0 0
    outer loop
      vertex 8 10 0
      vertex 8 13 3
      vertex 8 30 0
    endloop
  endfacet
  facet normal -1 -0 0
    outer loop
      vertex 8 13 3
      vertex 8 10 0
      vertex 8 10 3
    endloop
  endfacet
  facet normal -1 -0 0
    outer loop
      vertex 8 27 10
      vertex 8 13 3
      vertex 8 13 10
    endloop
  endfacet
  facet normal 0 1 -0
    outer loop
      vertex 78 27 3
      vertex 8 27 10
      vertex 78 27 10
    endloop
  endfacet
  facet normal 0 1 0
    outer loop
      vertex 8 27 10
      vertex 78 27 3
      vertex 8 27 3
    endloop
  endfacet
  facet normal 0 -1 0
    outer loop
      vertex 8 13 3
      vertex 78 13 10
      vertex 8 13 10
    endloop
  endfacet
  facet normal 0 -1 -0
    outer loop
      vertex 78 13 10
      vertex 8 13 3
      vertex 78 13 3
    endloop
  endfacet
  facet normal -0 0 1
    outer loop
      vertex 8 30 3
      vertex 78 27 3
      vertex 78 30 3
    endloop
  endfacet
  facet normal 0 0 1
    outer loop
      vertex 78 27 3
      vertex 8 30 3
      vertex 8 27 3
    endloop
  endfacet
  facet normal -0 0 1
    outer loop
      vertex 8 13 3
      vertex 78 10 3
      vertex 78 13 3
    endloop
  endfacet
  facet normal 0 0 1
    outer loop
      vertex 78 10 3
      vertex 8 13 3
      vertex 8 10 3
    endloop
  endfacet
  facet normal 0 1 -0
    outer loop
      vertex 78 30 0
      vertex 8 30 3
      vertex 78 30 3
    endloop
  endfacet
  facet normal 0 1 0
    outer loop
      vertex 8 30 3
      vertex 78 30 0
      vertex 8 30 0
    endloop
  endfacet
  facet normal 0 -1 0
    outer loop
      vertex 8 10 0
      vertex 78 10 3
      vertex 8 10 3
    endloop
  endfacet
  facet normal 0 -1 -0
    outer loop
      vertex 78 10 3
      vertex 8 10 0
      vertex 78 10 0
    endloop
  endfacet
  facet normal 0.442191 -0.896921 0
    outer loop
      vertex 60.4567 46.7403 0
      vertex 60.75 46.8849 17
      vertex 60.4567 46.7403 17
    endloop
  endfacet
  facet normal 0.442191 -0.896921 0
    outer loop
      vertex 60.75 46.8849 17
      vertex 60.4567 46.7403 0
      vertex 60.75 46.8849 0
    endloop
  endfacet
  facet normal 0.0654432 0.997856 -0
    outer loop
      vertex 59.8263 69.4286 0
      vertex 59.5 69.45 17
      vertex 59.8263 69.4286 17
    endloop
  endfacet
  facet normal 0.0654432 0.997856 0
    outer loop
      vertex 59.5 69.45 17
      vertex 59.8263 69.4286 0
      vertex 59.5 69.45 0
    endloop
  endfacet
  facet normal 1 0 0
    outer loop
      vertex 62 66.95 17
      vertex 62 65.45 13.55
      vertex 62 66.95 0
    endloop
  endfacet
  facet normal 1 0 0
    outer loop
      vertex 62 66.95 17
      vertex 62 50.55 13.55
      vertex 62 65.45 13.55
    endloop
  endfacet
  facet normal 1 0 0
    outer loop
      vertex 62 49.05 0
      vertex 62 50.55 13.55
      vertex 62 49.05 17
    endloop
  endfacet
  facet normal 1 -0 0
    outer loop
      vertex 62 49.05 17
      vertex 62 50.55 13.55
      vertex 62 66.95 17
    endloop
  endfacet
  facet normal 1 -0 0
    outer loop
      vertex 62 65.45 2.9
      vertex 62 66.95 0
      vertex 62 65.45 13.55
    endloop
  endfacet
  facet normal 1 -0 0
    outer loop
      vertex 62 50.55 2.9
      vertex 62 66.95 0
      vertex 62 65.45 2.9
    endloop
  endfacet
  facet normal 1 0 0
    outer loop
      vertex 62 50.55 2.9
      vertex 62 49.05 0
      vertex 62 66.95 0
    endloop
  endfacet
  facet normal 1 0 0
    outer loop
      vertex 62 50.55 13.55
      vertex 62 49.05 0
      vertex 62 50.55 2.9
    endloop
  endfacet
  facet normal -0.751913 -0.659262 0
    outer loop
      vertex 32.7322 47.2822 0
      vertex 32.5166 47.5281 17
      vertex 32.5166 47.5281 0
    endloop
  endfacet
  facet normal -0.751913 -0.659262 0
    outer loop
      vertex 32.5166 47.5281 17
      vertex 32.7322 47.2822 0
      vertex 32.7322 47.2822 17
    endloop
  endfacet
  facet normal 0.0654432 -0.997856 0
    outer loop
      vertex 59.5 46.55 0
      vertex 59.8263 46.5714 17
      vertex 59.5 46.55 17
    endloop
  endfacet
  facet normal 0.0654432 -0.997856 0
    outer loop
      vertex 59.8263 46.5714 17
      vertex 59.5 46.55 0
      vertex 59.8263 46.5714 0
    endloop
  endfacet
  facet normal -0.896921 0.442191 0
    outer loop
      vertex 32.1903 67.9067 0
      vertex 32.3349 68.2 17
      vertex 32.3349 68.2 0
    endloop
  endfacet
  facet normal -0.896921 0.442191 0
    outer loop
      vertex 32.3349 68.2 17
      vertex 32.1903 67.9067 0
      vertex 32.1903 67.9067 17
    endloop
  endfacet
  facet normal 0.195116 0.98078 -0
    outer loop
      vertex 60.147 69.3648 0
      vertex 59.8263 69.4286 17
      vertex 60.147 69.3648 17
    endloop
  endfacet
  facet normal 0.195116 0.98078 0
    outer loop
      vertex 59.8263 69.4286 17
      vertex 60.147 69.3648 0
      vertex 59.8263 69.4286 0
    endloop
  endfacet
  facet normal -0.442191 0.896921 0
    outer loop
      vertex 33.5433 69.2597 0
      vertex 33.25 69.1151 17
      vertex 33.5433 69.2597 17
    endloop
  endfacet
  facet normal -0.442191 0.896921 0
    outer loop
      vertex 33.25 69.1151 17
      vertex 33.5433 69.2597 0
      vertex 33.25 69.1151 0
    endloop
  endfacet
  facet normal -0.0654432 -0.997856 0
    outer loop
      vertex 34.1737 46.5714 0
      vertex 34.5 46.55 17
      vertex 34.1737 46.5714 17
    endloop
  endfacet
  facet normal -0.0654432 -0.997856 -0
    outer loop
      vertex 34.5 46.55 17
      vertex 34.1737 46.5714 0
      vertex 34.5 46.55 0
    endloop
  endfacet
  facet normal 0 -1 0
    outer loop
      vertex 34.5 46.55 0
      vertex 59.5 46.55 17
      vertex 34.5 46.55 17
    endloop
  endfacet
  facet normal 0 -1 -0
    outer loop
      vertex 59.5 46.55 17
      vertex 34.5 46.55 0
      vertex 59.5 46.55 0
    endloop
  endfacet
  facet normal -0.32136 -0.946957 0
    outer loop
      vertex 33.5433 46.7403 0
      vertex 33.853 46.6352 17
      vertex 33.5433 46.7403 17
    endloop
  endfacet
  facet normal -0.32136 -0.946957 -0
    outer loop
      vertex 33.853 46.6352 17
      vertex 33.5433 46.7403 0
      vertex 33.853 46.6352 0
    endloop
  endfacet
  facet normal -0.0654432 0.997856 0
    outer loop
      vertex 34.5 69.45 0
      vertex 34.1737 69.4286 17
      vertex 34.5 69.45 17
    endloop
  endfacet
  facet normal -0.0654432 0.997856 0
    outer loop
      vertex 34.1737 69.4286 17
      vertex 34.5 69.45 0
      vertex 34.1737 69.4286 0
    endloop
  endfacet
  facet normal 0.946957 -0.32136 0
    outer loop
      vertex 61.8097 48.0933 17
      vertex 61.9148 48.403 0
      vertex 61.9148 48.403 17
    endloop
  endfacet
  facet normal 0.946957 -0.32136 0
    outer loop
      vertex 61.9148 48.403 0
      vertex 61.8097 48.0933 17
      vertex 61.8097 48.0933 0
    endloop
  endfacet
  facet normal 0.98078 0.195116 0
    outer loop
      vertex 61.9786 67.2763 17
      vertex 61.9148 67.597 0
      vertex 61.9148 67.597 17
    endloop
  endfacet
  facet normal 0.98078 0.195116 0
    outer loop
      vertex 61.9148 67.597 0
      vertex 61.9786 67.2763 17
      vertex 61.9786 67.2763 0
    endloop
  endfacet
  facet normal 0.896921 0.442191 0
    outer loop
      vertex 61.8097 67.9067 17
      vertex 61.6651 68.2 0
      vertex 61.6651 68.2 17
    endloop
  endfacet
  facet normal 0.896921 0.442191 0
    outer loop
      vertex 61.6651 68.2 0
      vertex 61.8097 67.9067 17
      vertex 61.8097 67.9067 0
    endloop
  endfacet
  facet normal -0.946957 -0.32136 0
    outer loop
      vertex 32.1903 48.0933 0
      vertex 32.0852 48.403 17
      vertex 32.0852 48.403 0
    endloop
  endfacet
  facet normal -0.946957 -0.32136 0
    outer loop
      vertex 32.0852 48.403 17
      vertex 32.1903 48.0933 0
      vertex 32.1903 48.0933 17
    endloop
  endfacet
  facet normal -0.831438 0.555617 0
    outer loop
      vertex 32.3349 68.2 0
      vertex 32.5166 68.4719 17
      vertex 32.5166 68.4719 0
    endloop
  endfacet
  facet normal -0.831438 0.555617 0
    outer loop
      vertex 32.5166 68.4719 17
      vertex 32.3349 68.2 0
      vertex 32.3349 68.2 17
    endloop
  endfacet
  facet normal -0.442191 -0.896921 0
    outer loop
      vertex 33.25 46.8849 0
      vertex 33.5433 46.7403 17
      vertex 33.25 46.8849 17
    endloop
  endfacet
  facet normal -0.442191 -0.896921 -0
    outer loop
      vertex 33.5433 46.7403 17
      vertex 33.25 46.8849 0
      vertex 33.5433 46.7403 0
    endloop
  endfacet
  facet normal 0 1 -0
    outer loop
      vertex 59.5 69.45 0
      vertex 34.5 69.45 17
      vertex 59.5 69.45 17
    endloop
  endfacet
  facet normal 0 1 0
    outer loop
      vertex 34.5 69.45 17
      vertex 59.5 69.45 0
      vertex 34.5 69.45 0
    endloop
  endfacet
  facet normal -1 0 0
    outer loop
      vertex 32 65.45 13.55
      vertex 32 66.95 0
      vertex 32 65.45 2.9
    endloop
  endfacet
  facet normal -1 0 0
    outer loop
      vertex 32 66.95 0
      vertex 32 50.55 2.9
      vertex 32 65.45 2.9
    endloop
  endfacet
  facet normal -1 -0 0
    outer loop
      vertex 32 50.55 2.9
      vertex 32 49.05 0
      vertex 32 50.55 13.55
    endloop
  endfacet
  facet normal -1 0 0
    outer loop
      vertex 32 49.05 0
      vertex 32 50.55 2.9
      vertex 32 66.95 0
    endloop
  endfacet
  facet normal -1 0 0
    outer loop
      vertex 32 66.95 0
      vertex 32 65.45 13.55
      vertex 32 66.95 17
    endloop
  endfacet
  facet normal -1 0 0
    outer loop
      vertex 32 50.55 13.55
      vertex 32 66.95 17
      vertex 32 65.45 13.55
    endloop
  endfacet
  facet normal -1 0 0
    outer loop
      vertex 32 50.55 13.55
      vertex 32 49.05 17
      vertex 32 66.95 17
    endloop
  endfacet
  facet normal -1 0 0
    outer loop
      vertex 32 49.05 17
      vertex 32 50.55 13.55
      vertex 32 49.05 0
    endloop
  endfacet
  facet normal 0.997856 -0.0654432 0
    outer loop
      vertex 61.9786 48.7237 17
      vertex 62 49.05 0
      vertex 62 49.05 17
    endloop
  endfacet
  facet normal 0.997856 -0.0654432 0
    outer loop
      vertex 62 49.05 0
      vertex 61.9786 48.7237 17
      vertex 61.9786 48.7237 0
    endloop
  endfacet
  facet normal -0.195116 -0.98078 0
    outer loop
      vertex 33.853 46.6352 0
      vertex 34.1737 46.5714 17
      vertex 33.853 46.6352 17
    endloop
  endfacet
  facet normal -0.195116 -0.98078 -0
    outer loop
      vertex 34.1737 46.5714 17
      vertex 33.853 46.6352 0
      vertex 34.1737 46.5714 0
    endloop
  endfacet
  facet normal 0.751913 0.659262 0
    outer loop
      vertex 61.4834 68.4719 17
      vertex 61.2678 68.7178 0
      vertex 61.2678 68.7178 17
    endloop
  endfacet
  facet normal 0.751913 0.659262 0
    outer loop
      vertex 61.2678 68.7178 0
      vertex 61.4834 68.4719 17
      vertex 61.4834 68.4719 0
    endloop
  endfacet
  facet normal 0.98078 -0.195116 0
    outer loop
      vertex 61.9148 48.403 17
      vertex 61.9786 48.7237 0
      vertex 61.9786 48.7237 17
    endloop
  endfacet
  facet normal 0.98078 -0.195116 0
    outer loop
      vertex 61.9786 48.7237 0
      vertex 61.9148 48.403 17
      vertex 61.9148 48.403 0
    endloop
  endfacet
  facet normal -0.831438 -0.555617 0
    outer loop
      vertex 32.5166 47.5281 0
      vertex 32.3349 47.8 17
      vertex 32.3349 47.8 0
    endloop
  endfacet
  facet normal -0.831438 -0.555617 0
    outer loop
      vertex 32.3349 47.8 17
      vertex 32.5166 47.5281 0
      vertex 32.5166 47.5281 17
    endloop
  endfacet
  facet normal -0.195116 0.98078 0
    outer loop
      vertex 34.1737 69.4286 0
      vertex 33.853 69.3648 17
      vertex 34.1737 69.4286 17
    endloop
  endfacet
  facet normal -0.195116 0.98078 0
    outer loop
      vertex 33.853 69.3648 17
      vertex 34.1737 69.4286 0
      vertex 33.853 69.3648 0
    endloop
  endfacet
  facet normal 0.442191 0.896921 -0
    outer loop
      vertex 60.75 69.1151 0
      vertex 60.4567 69.2597 17
      vertex 60.75 69.1151 17
    endloop
  endfacet
  facet normal 0.442191 0.896921 0
    outer loop
      vertex 60.4567 69.2597 17
      vertex 60.75 69.1151 0
      vertex 60.4567 69.2597 0
    endloop
  endfacet
  facet normal 0.195116 -0.98078 0
    outer loop
      vertex 59.8263 46.5714 0
      vertex 60.147 46.6352 17
      vertex 59.8263 46.5714 17
    endloop
  endfacet
  facet normal 0.195116 -0.98078 0
    outer loop
      vertex 60.147 46.6352 17
      vertex 59.8263 46.5714 0
      vertex 60.147 46.6352 0
    endloop
  endfacet
  facet normal 0.32136 -0.946957 0
    outer loop
      vertex 60.147 46.6352 0
      vertex 60.4567 46.7403 17
      vertex 60.147 46.6352 17
    endloop
  endfacet
  facet normal 0.32136 -0.946957 0
    outer loop
      vertex 60.4567 46.7403 17
      vertex 60.147 46.6352 0
      vertex 60.4567 46.7403 0
    endloop
  endfacet
  facet normal -0.98078 0.195116 0
    outer loop
      vertex 32.0214 67.2763 0
      vertex 32.0852 67.597 17
      vertex 32.0852 67.597 0
    endloop
  endfacet
  facet normal -0.98078 0.195116 0
    outer loop
      vertex 32.0852 67.597 17
      vertex 32.0214 67.2763 0
      vertex 32.0214 67.2763 17
    endloop
  endfacet
  facet normal 0.997856 0.0654432 0
    outer loop
      vertex 62 66.95 17
      vertex 61.9786 67.2763 0
      vertex 61.9786 67.2763 17
    endloop
  endfacet
  facet normal 0.997856 0.0654432 0
    outer loop
      vertex 61.9786 67.2763 0
      vertex 62 66.95 17
      vertex 62 66.95 0
    endloop
  endfacet
  facet normal 0.555617 -0.831438 0
    outer loop
      vertex 60.75 46.8849 0
      vertex 61.0219 47.0666 17
      vertex 60.75 46.8849 17
    endloop
  endfacet
  facet normal 0.555617 -0.831438 0
    outer loop
      vertex 61.0219 47.0666 17
      vertex 60.75 46.8849 0
      vertex 61.0219 47.0666 0
    endloop
  endfacet
  facet normal 0 0 -1
    outer loop
      vertex 59.5 46.55 0
      vertex 62 49.05 0
      vertex 61.9786 48.7237 0
    endloop
  endfacet
  facet normal -0 0 -1
    outer loop
      vertex 62 49.05 0
      vertex 59.5 46.55 0
      vertex 62 66.95 0
    endloop
  endfacet
  facet normal 0 0 -1
    outer loop
      vertex 59.5 46.55 0
      vertex 61.9786 48.7237 0
      vertex 61.9148 48.403 0
    endloop
  endfacet
  facet normal 0 0 -1
    outer loop
      vertex 59.5 69.45 0
      vertex 62 66.95 0
      vertex 59.5 46.55 0
    endloop
  endfacet
  facet normal 0 0 -1
    outer loop
      vertex 59.5 46.55 0
      vertex 61.9148 48.403 0
      vertex 61.8097 48.0933 0
    endloop
  endfacet
  facet normal 0 0 -1
    outer loop
      vertex 62 66.95 0
      vertex 59.5 69.45 0
      vertex 61.9786 67.2763 0
    endloop
  endfacet
  facet normal 0 0 -1
    outer loop
      vertex 59.5 46.55 0
      vertex 61.8097 48.0933 0
      vertex 61.6651 47.8 0
    endloop
  endfacet
  facet normal 0 0 -1
    outer loop
      vertex 61.9786 67.2763 0
      vertex 59.5 69.45 0
      vertex 61.9148 67.597 0
    endloop
  endfacet
  facet normal 0 0 -1
    outer loop
      vertex 59.5 46.55 0
      vertex 61.6651 47.8 0
      vertex 61.4834 47.5281 0
    endloop
  endfacet
  facet normal 0 0 -1
    outer loop
      vertex 61.9148 67.597 0
      vertex 59.5 69.45 0
      vertex 61.8097 67.9067 0
    endloop
  endfacet
  facet normal 0 0 -1
    outer loop
      vertex 59.5 46.55 0
      vertex 61.4834 47.5281 0
      vertex 61.2678 47.2822 0
    endloop
  endfacet
  facet normal 0 0 -1
    outer loop
      vertex 61.8097 67.9067 0
      vertex 59.5 69.45 0
      vertex 61.6651 68.2 0
    endloop
  endfacet
  facet normal 0 0 -1
    outer loop
      vertex 59.5 46.55 0
      vertex 61.2678 47.2822 0
      vertex 61.0219 47.0666 0
    endloop
  endfacet
  facet normal 0 0 -1
    outer loop
      vertex 61.6651 68.2 0
      vertex 59.5 69.45 0
      vertex 61.4834 68.4719 0
    endloop
  endfacet
  facet normal 0 0 -1
    outer loop
      vertex 59.5 46.55 0
      vertex 61.0219 47.0666 0
      vertex 60.75 46.8849 0
    endloop
  endfacet
  facet normal 0 0 -1
    outer loop
      vertex 61.4834 68.4719 0
      vertex 59.5 69.45 0
      vertex 61.2678 68.7178 0
    endloop
  endfacet
  facet normal 0 0 -1
    outer loop
      vertex 59.5 46.55 0
      vertex 60.75 46.8849 0
      vertex 60.4567 46.7403 0
    endloop
  endfacet
  facet normal 0 0 -1
    outer loop
      vertex 61.2678 68.7178 0
      vertex 59.5 69.45 0
      vertex 61.0219 68.9334 0
    endloop
  endfacet
  facet normal 0 0 -1
    outer loop
      vertex 59.5 46.55 0
      vertex 60.4567 46.7403 0
      vertex 60.147 46.6352 0
    endloop
  endfacet
  facet normal 0 0 -1
    outer loop
      vertex 61.0219 68.9334 0
      vertex 59.5 69.45 0
      vertex 60.75 69.1151 0
    endloop
  endfacet
  facet normal 0 0 -1
    outer loop
      vertex 59.5 46.55 0
      vertex 60.147 46.6352 0
      vertex 59.8263 46.5714 0
    endloop
  endfacet
  facet normal 0 0 -1
    outer loop
      vertex 60.75 69.1151 0
      vertex 59.5 69.45 0
      vertex 60.4567 69.2597 0
    endloop
  endfacet
  facet normal 0 0 -1
    outer loop
      vertex 60.4567 69.2597 0
      vertex 59.5 69.45 0
      vertex 60.147 69.3648 0
    endloop
  endfacet
  facet normal 0 0 -1
    outer loop
      vertex 60.147 69.3648 0
      vertex 59.5 69.45 0
      vertex 59.8263 69.4286 0
    endloop
  endfacet
  facet normal 0 0 -1
    outer loop
      vertex 34.5 46.55 0
      vertex 59.5 69.45 0
      vertex 59.5 46.55 0
    endloop
  endfacet
  facet normal 0 0 -1
    outer loop
      vertex 34.5 46.55 0
      vertex 34.5 69.45 0
      vertex 59.5 69.45 0
    endloop
  endfacet
  facet normal 0 0 -1
    outer loop
      vertex 32 49.05 0
      vertex 34.5 46.55 0
      vertex 34.1737 46.5714 0
    endloop
  endfacet
  facet normal 0 0 -1
    outer loop
      vertex 34.5 46.55 0
      vertex 32 49.05 0
      vertex 34.5 69.45 0
    endloop
  endfacet
  facet normal 0 0 -1
    outer loop
      vertex 32 49.05 0
      vertex 34.1737 46.5714 0
      vertex 33.853 46.6352 0
    endloop
  endfacet
  facet normal 0 0 -1
    outer loop
      vertex 32 66.95 0
      vertex 34.5 69.45 0
      vertex 32 49.05 0
    endloop
  endfacet
  facet normal 0 0 -1
    outer loop
      vertex 32 49.05 0
      vertex 33.853 46.6352 0
      vertex 33.5433 46.7403 0
    endloop
  endfacet
  facet normal 0 0 -1
    outer loop
      vertex 34.5 69.45 0
      vertex 32 66.95 0
      vertex 34.1737 69.4286 0
    endloop
  endfacet
  facet normal 0 0 -1
    outer loop
      vertex 32 49.05 0
      vertex 33.5433 46.7403 0
      vertex 33.25 46.8849 0
    endloop
  endfacet
  facet normal 0 0 -1
    outer loop
      vertex 34.1737 69.4286 0
      vertex 32 66.95 0
      vertex 33.853 69.3648 0
    endloop
  endfacet
  facet normal 0 0 -1
    outer loop
      vertex 32 49.05 0
      vertex 33.25 46.8849 0
      vertex 32.9781 47.0666 0
    endloop
  endfacet
  facet normal 0 0 -1
    outer loop
      vertex 33.853 69.3648 0
      vertex 32 66.95 0
      vertex 33.5433 69.2597 0
    endloop
  endfacet
  facet normal 0 0 -1
    outer loop
      vertex 32 49.05 0
      vertex 32.9781 47.0666 0
      vertex 32.7322 47.2822 0
    endloop
  endfacet
  facet normal 0 0 -1
    outer loop
      vertex 33.5433 69.2597 0
      vertex 32 66.95 0
      vertex 33.25 69.1151 0
    endloop
  endfacet
  facet normal 0 0 -1
    outer loop
      vertex 32 49.05 0
      vertex 32.7322 47.2822 0
      vertex 32.5166 47.5281 0
    endloop
  endfacet
  facet normal 0 0 -1
    outer loop
      vertex 33.25 69.1151 0
      vertex 32 66.95 0
      vertex 32.9781 68.9334 0
    endloop
  endfacet
  facet normal 0 0 -1
    outer loop
      vertex 32 49.05 0
      vertex 32.5166 47.5281 0
      vertex 32.3349 47.8 0
    endloop
  endfacet
  facet normal 0 0 -1
    outer loop
      vertex 32.9781 68.9334 0
      vertex 32 66.95 0
      vertex 32.7322 68.7178 0
    endloop
  endfacet
  facet normal 0 0 -1
    outer loop
      vertex 32 49.05 0
      vertex 32.3349 47.8 0
      vertex 32.1903 48.0933 0
    endloop
  endfacet
  facet normal 0 0 -1
    outer loop
      vertex 32.7322 68.7178 0
      vertex 32 66.95 0
      vertex 32.5166 68.4719 0
    endloop
  endfacet
  facet normal 0 0 -1
    outer loop
      vertex 32 49.05 0
      vertex 32.1903 48.0933 0
      vertex 32.0852 48.403 0
    endloop
  endfacet
  facet normal 0 0 -1
    outer loop
      vertex 32.5166 68.4719 0
      vertex 32 66.95 0
      vertex 32.3349 68.2 0
    endloop
  endfacet
  facet normal 0 0 -1
    outer loop
      vertex 32 49.05 0
      vertex 32.0852 48.403 0
      vertex 32.0214 48.7237 0
    endloop
  endfacet
  facet normal 0 0 -1
    outer loop
      vertex 32.3349 68.2 0
      vertex 32 66.95 0
      vertex 32.1903 67.9067 0
    endloop
  endfacet
  facet normal 0 0 -1
    outer loop
      vertex 32.1903 67.9067 0
      vertex 32 66.95 0
      vertex 32.0852 67.597 0
    endloop
  endfacet
  facet normal 0 0 -1
    outer loop
      vertex 32.0852 67.597 0
      vertex 32 66.95 0
      vertex 32.0214 67.2763 0
    endloop
  endfacet
  facet normal 0.831438 -0.555617 0
    outer loop
      vertex 61.4834 47.5281 17
      vertex 61.6651 47.8 0
      vertex 61.6651 47.8 17
    endloop
  endfacet
  facet normal 0.831438 -0.555617 0
    outer loop
      vertex 61.6651 47.8 0
      vertex 61.4834 47.5281 17
      vertex 61.4834 47.5281 0
    endloop
  endfacet
  facet normal 0.659262 0.751913 -0
    outer loop
      vertex 61.2678 68.7178 0
      vertex 61.0219 68.9334 17
      vertex 61.2678 68.7178 17
    endloop
  endfacet
  facet normal 0.659262 0.751913 0
    outer loop
      vertex 61.0219 68.9334 17
      vertex 61.2678 68.7178 0
      vertex 61.0219 68.9334 0
    endloop
  endfacet
  facet normal -0.659262 0.751913 0
    outer loop
      vertex 32.9781 68.9334 0
      vertex 32.7322 68.7178 17
      vertex 32.9781 68.9334 17
    endloop
  endfacet
  facet normal -0.659262 0.751913 0
    outer loop
      vertex 32.7322 68.7178 17
      vertex 32.9781 68.9334 0
      vertex 32.7322 68.7178 0
    endloop
  endfacet
  facet normal 0.32136 0.946957 -0
    outer loop
      vertex 60.4567 69.2597 0
      vertex 60.147 69.3648 17
      vertex 60.4567 69.2597 17
    endloop
  endfacet
  facet normal 0.32136 0.946957 0
    outer loop
      vertex 60.147 69.3648 17
      vertex 60.4567 69.2597 0
      vertex 60.147 69.3648 0
    endloop
  endfacet
  facet normal -0.946957 0.32136 0
    outer loop
      vertex 32.0852 67.597 0
      vertex 32.1903 67.9067 17
      vertex 32.1903 67.9067 0
    endloop
  endfacet
  facet normal -0.946957 0.32136 0
    outer loop
      vertex 32.1903 67.9067 17
      vertex 32.0852 67.597 0
      vertex 32.0852 67.597 17
    endloop
  endfacet
  facet normal 0.831438 0.555617 0
    outer loop
      vertex 61.6651 68.2 17
      vertex 61.4834 68.4719 0
      vertex 61.4834 68.4719 17
    endloop
  endfacet
  facet normal 0.831438 0.555617 0
    outer loop
      vertex 61.4834 68.4719 0
      vertex 61.6651 68.2 17
      vertex 61.6651 68.2 0
    endloop
  endfacet
  facet normal 0 0 1
    outer loop
      vertex 59 64.5 17
      vertex 62 66.95 17
      vertex 61.9786 67.2763 17
    endloop
  endfacet
  facet normal 0 0 1
    outer loop
      vertex 62 66.95 17
      vertex 59 64.5 17
      vertex 62 49.05 17
    endloop
  endfacet
  facet normal 0 0 1
    outer loop
      vertex 59 64.5 17
      vertex 61.9786 67.2763 17
      vertex 61.9148 67.597 17
    endloop
  endfacet
  facet normal -0 0 1
    outer loop
      vertex 59 51.5 17
      vertex 62 49.05 17
      vertex 59 64.5 17
    endloop
  endfacet
  facet normal 0 0 1
    outer loop
      vertex 59 64.5 17
      vertex 61.9148 67.597 17
      vertex 61.8097 67.9067 17
    endloop
  endfacet
  facet normal 0 0 1
    outer loop
      vertex 62 49.05 17
      vertex 59 51.5 17
      vertex 61.9786 48.7237 17
    endloop
  endfacet
  facet normal 0 0 1
    outer loop
      vertex 59 64.5 17
      vertex 61.8097 67.9067 17
      vertex 61.6651 68.2 17
    endloop
  endfacet
  facet normal 0 0 1
    outer loop
      vertex 61.9786 48.7237 17
      vertex 59 51.5 17
      vertex 61.9148 48.403 17
    endloop
  endfacet
  facet normal 0 0 1
    outer loop
      vertex 59 64.5 17
      vertex 61.6651 68.2 17
      vertex 61.4834 68.4719 17
    endloop
  endfacet
  facet normal 0 0 1
    outer loop
      vertex 61.9148 48.403 17
      vertex 59 51.5 17
      vertex 61.8097 48.0933 17
    endloop
  endfacet
  facet normal 0 0 1
    outer loop
      vertex 59 64.5 17
      vertex 61.4834 68.4719 17
      vertex 61.2678 68.7178 17
    endloop
  endfacet
  facet normal 0 0 1
    outer loop
      vertex 61.8097 48.0933 17
      vertex 59 51.5 17
      vertex 61.6651 47.8 17
    endloop
  endfacet
  facet normal 0 0 1
    outer loop
      vertex 59 64.5 17
      vertex 61.2678 68.7178 17
      vertex 61.0219 68.9334 17
    endloop
  endfacet
  facet normal 0 0 1
    outer loop
      vertex 61.6651 47.8 17
      vertex 59 51.5 17
      vertex 61.4834 47.5281 17
    endloop
  endfacet
  facet normal 0 0 1
    outer loop
      vertex 59 64.5 17
      vertex 61.0219 68.9334 17
      vertex 60.75 69.1151 17
    endloop
  endfacet
  facet normal 0 0 1
    outer loop
      vertex 61.4834 47.5281 17
      vertex 59 51.5 17
      vertex 61.2678 47.2822 17
    endloop
  endfacet
  facet normal 0 0 1
    outer loop
      vertex 59 64.5 17
      vertex 60.75 69.1151 17
      vertex 60.4567 69.2597 17
    endloop
  endfacet
  facet normal 0 0 1
    outer loop
      vertex 61.2678 47.2822 17
      vertex 59 51.5 17
      vertex 61.0219 47.0666 17
    endloop
  endfacet
  facet normal 0 0 1
    outer loop
      vertex 59 64.5 17
      vertex 60.4567 69.2597 17
      vertex 60.147 69.3648 17
    endloop
  endfacet
  facet normal 0 0 1
    outer loop
      vertex 61.0219 47.0666 17
      vertex 59 51.5 17
      vertex 60.75 46.8849 17
    endloop
  endfacet
  facet normal 0 0 1
    outer loop
      vertex 59 64.5 17
      vertex 60.147 69.3648 17
      vertex 59.8263 69.4286 17
    endloop
  endfacet
  facet normal 0 0 1
    outer loop
      vertex 60.75 46.8849 17
      vertex 59 51.5 17
      vertex 60.4567 46.7403 17
    endloop
  endfacet
  facet normal 0 0 1
    outer loop
      vertex 59 64.5 17
      vertex 59.8263 69.4286 17
      vertex 59.5 69.45 17
    endloop
  endfacet
  facet normal 0 0 1
    outer loop
      vertex 60.4567 46.7403 17
      vertex 59 51.5 17
      vertex 60.147 46.6352 17
    endloop
  endfacet
  facet normal 0 0 1
    outer loop
      vertex 60.147 46.6352 17
      vertex 59 51.5 17
      vertex 59.8263 46.5714 17
    endloop
  endfacet
  facet normal 0 0 1
    outer loop
      vertex 59.5 69.45 17
      vertex 51 64.5 17
      vertex 59 64.5 17
    endloop
  endfacet
  facet normal 0 0 1
    outer loop
      vertex 51 64.5 17
      vertex 43 64.5 17
      vertex 51 51.5 17
    endloop
  endfacet
  facet normal 0 0 1
    outer loop
      vertex 59.5 69.45 17
      vertex 43 64.5 17
      vertex 51 64.5 17
    endloop
  endfacet
  facet normal -0 0 1
    outer loop
      vertex 34.5 69.45 17
      vertex 43 64.5 17
      vertex 59.5 69.45 17
    endloop
  endfacet
  facet normal -0 0 1
    outer loop
      vertex 32 66.95 17
      vertex 35 64.5 17
      vertex 34.5 69.45 17
    endloop
  endfacet
  facet normal 0 0 1
    outer loop
      vertex 43 64.5 17
      vertex 34.5 69.45 17
      vertex 35 64.5 17
    endloop
  endfacet
  facet normal 0 0 1
    outer loop
      vertex 59.8263 46.5714 17
      vertex 59 51.5 17
      vertex 59.5 46.55 17
    endloop
  endfacet
  facet normal -0 0 1
    outer loop
      vertex 51 51.5 17
      vertex 59.5 46.55 17
      vertex 59 51.5 17
    endloop
  endfacet
  facet normal 0 0 1
    outer loop
      vertex 43 51.5 17
      vertex 51 51.5 17
      vertex 43 64.5 17
    endloop
  endfacet
  facet normal -0 0 1
    outer loop
      vertex 43 51.5 17
      vertex 59.5 46.55 17
      vertex 51 51.5 17
    endloop
  endfacet
  facet normal 0 0 1
    outer loop
      vertex 34.5 46.55 17
      vertex 43 51.5 17
      vertex 35 51.5 17
    endloop
  endfacet
  facet normal 0 0 1
    outer loop
      vertex 43 51.5 17
      vertex 34.5 46.55 17
      vertex 59.5 46.55 17
    endloop
  endfacet
  facet normal 0 0 1
    outer loop
      vertex 35 64.5 17
      vertex 32 66.95 17
      vertex 35 51.5 17
    endloop
  endfacet
  facet normal 0 0 1
    outer loop
      vertex 32 66.95 17
      vertex 34.5 69.45 17
      vertex 34.1737 69.4286 17
    endloop
  endfacet
  facet normal 0 0 1
    outer loop
      vertex 32 49.05 17
      vertex 35 51.5 17
      vertex 32 66.95 17
    endloop
  endfacet
  facet normal 0 0 1
    outer loop
      vertex 32 66.95 17
      vertex 34.1737 69.4286 17
      vertex 33.853 69.3648 17
    endloop
  endfacet
  facet normal 0 0 1
    outer loop
      vertex 35 51.5 17
      vertex 32 49.05 17
      vertex 34.5 46.55 17
    endloop
  endfacet
  facet normal 0 0 1
    outer loop
      vertex 32 66.95 17
      vertex 33.853 69.3648 17
      vertex 33.5433 69.2597 17
    endloop
  endfacet
  facet normal 0 0 1
    outer loop
      vertex 34.5 46.55 17
      vertex 32 49.05 17
      vertex 34.1737 46.5714 17
    endloop
  endfacet
  facet normal 0 0 1
    outer loop
      vertex 32 66.95 17
      vertex 33.5433 69.2597 17
      vertex 33.25 69.1151 17
    endloop
  endfacet
  facet normal 0 0 1
    outer loop
      vertex 34.1737 46.5714 17
      vertex 32 49.05 17
      vertex 33.853 46.6352 17
    endloop
  endfacet
  facet normal 0 0 1
    outer loop
      vertex 32 66.95 17
      vertex 33.25 69.1151 17
      vertex 32.9781 68.9334 17
    endloop
  endfacet
  facet normal 0 0 1
    outer loop
      vertex 33.853 46.6352 17
      vertex 32 49.05 17
      vertex 33.5433 46.7403 17
    endloop
  endfacet
  facet normal 0 0 1
    outer loop
      vertex 32 66.95 17
      vertex 32.9781 68.9334 17
      vertex 32.7322 68.7178 17
    endloop
  endfacet
  facet normal 0 0 1
    outer loop
      vertex 33.5433 46.7403 17
      vertex 32 49.05 17
      vertex 33.25 46.8849 17
    endloop
  endfacet
  facet normal 0 0 1
    outer loop
      vertex 32 66.95 17
      vertex 32.7322 68.7178 17
      vertex 32.5166 68.4719 17
    endloop
  endfacet
  facet normal 0 0 1
    outer loop
      vertex 33.25 46.8849 17
      vertex 32 49.05 17
      vertex 32.9781 47.0666 17
    endloop
  endfacet
  facet normal 0 0 1
    outer loop
      vertex 32 66.95 17
      vertex 32.5166 68.4719 17
      vertex 32.3349 68.2 17
    endloop
  endfacet
  facet normal 0 0 1
    outer loop
      vertex 32.9781 47.0666 17
      vertex 32 49.05 17
      vertex 32.7322 47.2822 17
    endloop
  endfacet
  facet normal 0 0 1
    outer loop
      vertex 32 66.95 17
      vertex 32.3349 68.2 17
      vertex 32.1903 67.9067 17
    endloop
  endfacet
  facet normal 0 0 1
    outer loop
      vertex 32.7322 47.2822 17
      vertex 32 49.05 17
      vertex 32.5166 47.5281 17
    endloop
  endfacet
  facet normal 0 0 1
    outer loop
      vertex 32 66.95 17
      vertex 32.1903 67.9067 17
      vertex 32.0852 67.597 17
    endloop
  endfacet
  facet normal 0 0 1
    outer loop
      vertex 32.5166 47.5281 17
      vertex 32 49.05 17
      vertex 32.3349 47.8 17
    endloop
  endfacet
  facet normal 0 0 1
    outer loop
      vertex 32 66.95 17
      vertex 32.0852 67.597 17
      vertex 32.0214 67.2763 17
    endloop
  endfacet
  facet normal 0 0 1
    outer loop
      vertex 32.3349 47.8 17
      vertex 32 49.05 17
      vertex 32.1903 48.0933 17
    endloop
  endfacet
  facet normal 0 0 1
    outer loop
      vertex 32.1903 48.0933 17
      vertex 32 49.05 17
      vertex 32.0852 48.403 17
    endloop
  endfacet
  facet normal 0 0 1
    outer loop
      vertex 32.0852 48.403 17
      vertex 32 49.05 17
      vertex 32.0214 48.7237 17
    endloop
  endfacet
  facet normal -0.98078 -0.195116 0
    outer loop
      vertex 32.0852 48.403 0
      vertex 32.0214 48.7237 17
      vertex 32.0214 48.7237 0
    endloop
  endfacet
  facet normal -0.98078 -0.195116 0
    outer loop
      vertex 32.0214 48.7237 17
      vertex 32.0852 48.403 0
      vertex 32.0852 48.403 17
    endloop
  endfacet
  facet normal -0.32136 0.946957 0
    outer loop
      vertex 33.853 69.3648 0
      vertex 33.5433 69.2597 17
      vertex 33.853 69.3648 17
    endloop
  endfacet
  facet normal -0.32136 0.946957 0
    outer loop
      vertex 33.5433 69.2597 17
      vertex 33.853 69.3648 0
      vertex 33.5433 69.2597 0
    endloop
  endfacet
  facet normal -0.997856 0.0654432 0
    outer loop
      vertex 32 66.95 0
      vertex 32.0214 67.2763 17
      vertex 32.0214 67.2763 0
    endloop
  endfacet
  facet normal -0.997856 0.0654432 0
    outer loop
      vertex 32.0214 67.2763 17
      vertex 32 66.95 0
      vertex 32 66.95 17
    endloop
  endfacet
  facet normal -0.997856 -0.0654432 0
    outer loop
      vertex 32.0214 48.7237 0
      vertex 32 49.05 17
      vertex 32 49.05 0
    endloop
  endfacet
  facet normal -0.997856 -0.0654432 0
    outer loop
      vertex 32 49.05 17
      vertex 32.0214 48.7237 0
      vertex 32.0214 48.7237 17
    endloop
  endfacet
  facet normal 0.751913 -0.659262 0
    outer loop
      vertex 61.2678 47.2822 17
      vertex 61.4834 47.5281 0
      vertex 61.4834 47.5281 17
    endloop
  endfacet
  facet normal 0.751913 -0.659262 0
    outer loop
      vertex 61.4834 47.5281 0
      vertex 61.2678 47.2822 17
      vertex 61.2678 47.2822 0
    endloop
  endfacet
  facet normal -0.555617 0.831438 0
    outer loop
      vertex 33.25 69.1151 0
      vertex 32.9781 68.9334 17
      vertex 33.25 69.1151 17
    endloop
  endfacet
  facet normal -0.555617 0.831438 0
    outer loop
      vertex 32.9781 68.9334 17
      vertex 33.25 69.1151 0
      vertex 32.9781 68.9334 0
    endloop
  endfacet
  facet normal 0.659262 -0.751913 0
    outer loop
      vertex 61.0219 47.0666 0
      vertex 61.2678 47.2822 17
      vertex 61.0219 47.0666 17
    endloop
  endfacet
  facet normal 0.659262 -0.751913 0
    outer loop
      vertex 61.2678 47.2822 17
      vertex 61.0219 47.0666 0
      vertex 61.2678 47.2822 0
    endloop
  endfacet
  facet normal 0.946957 0.32136 0
    outer loop
      vertex 61.9148 67.597 17
      vertex 61.8097 67.9067 0
      vertex 61.8097 67.9067 17
    endloop
  endfacet
  facet normal 0.946957 0.32136 0
    outer loop
      vertex 61.8097 67.9067 0
      vertex 61.9148 67.597 17
      vertex 61.9148 67.597 0
    endloop
  endfacet
  facet normal 0.555617 0.831438 -0
    outer loop
      vertex 61.0219 68.9334 0
      vertex 60.75 69.1151 17
      vertex 61.0219 68.9334 17
    endloop
  endfacet
  facet normal 0.555617 0.831438 0
    outer loop
      vertex 60.75 69.1151 17
      vertex 61.0219 68.9334 0
      vertex 60.75 69.1151 0
    endloop
  endfacet
  facet normal -0.896921 -0.442191 0
    outer loop
      vertex 32.3349 47.8 0
      vertex 32.1903 48.0933 17
      vertex 32.1903 48.0933 0
    endloop
  endfacet
  facet normal -0.896921 -0.442191 0
    outer loop
      vertex 32.1903 48.0933 17
      vertex 32.3349 47.8 0
      vertex 32.3349 47.8 17
    endloop
  endfacet
  facet normal -0.751913 0.659262 0
    outer loop
      vertex 32.5166 68.4719 0
      vertex 32.7322 68.7178 17
      vertex 32.7322 68.7178 0
    endloop
  endfacet
  facet normal -0.751913 0.659262 0
    outer loop
      vertex 32.7322 68.7178 17
      vertex 32.5166 68.4719 0
      vertex 32.5166 68.4719 17
    endloop
  endfacet
  facet normal -0.555617 -0.831438 0
    outer loop
      vertex 32.9781 47.0666 0
      vertex 33.25 46.8849 17
      vertex 32.9781 47.0666 17
    endloop
  endfacet
  facet normal -0.555617 -0.831438 -0
    outer loop
      vertex 33.25 46.8849 17
      vertex 32.9781 47.0666 0
      vertex 33.25 46.8849 0
    endloop
  endfacet
  facet normal 0.896921 -0.442191 0
    outer loop
      vertex 61.6651 47.8 17
      vertex 61.8097 48.0933 0
      vertex 61.8097 48.0933 17
    endloop
  endfacet
  facet normal 0.896921 -0.442191 0
    outer loop
      vertex 61.8097 48.0933 0
      vertex 61.6651 47.8 17
      vertex 61.6651 47.8 0
    endloop
  endfacet
  facet normal -0.659262 -0.751913 0
    outer loop
      vertex 32.7322 47.2822 0
      vertex 32.9781 47.0666 17
      vertex 32.7322 47.2822 17
    endloop
  endfacet
  facet normal -0.659262 -0.751913 -0
    outer loop
      vertex 32.9781 47.0666 17
      vertex 32.7322 47.2822 0
      vertex 32.9781 47.0666 0
    endloop
  endfacet
  facet normal -1 0 0
    outer loop
      vertex 43 51.5 13.55
      vertex 43 64.5 17
      vertex 43 64.5 13.55
    endloop
  endfacet
  facet normal -1 -0 0
    outer loop
      vertex 43 64.5 17
      vertex 43 51.5 13.55
      vertex 43 51.5 17
    endloop
  endfacet
  facet normal 1 -0 0
    outer loop
      vertex 35 51.5 17
      vertex 35 64.5 13.55
      vertex 35 64.5 17
    endloop
  endfacet
  facet normal 1 0 0
    outer loop
      vertex 35 64.5 13.55
      vertex 35 51.5 17
      vertex 35 51.5 13.55
    endloop
  endfacet
  facet normal 0 -1 0
    outer loop
      vertex 35 64.5 13.55
      vertex 43 64.5 17
      vertex 35 64.5 17
    endloop
  endfacet
  facet normal 0 -1 -0
    outer loop
      vertex 43 64.5 17
      vertex 35 64.5 13.55
      vertex 43 64.5 13.55
    endloop
  endfacet
  facet normal 0 1 -0
    outer loop
      vertex 43 51.5 13.55
      vertex 35 51.5 17
      vertex 43 51.5 17
    endloop
  endfacet
  facet normal 0 1 0
    outer loop
      vertex 35 51.5 17
      vertex 43 51.5 13.55
      vertex 35 51.5 13.55
    endloop
  endfacet
  facet normal -1 0 0
    outer loop
      vertex 59 51.5 13.55
      vertex 59 64.5 17
      vertex 59 64.5 13.55
    endloop
  endfacet
  facet normal -1 -0 0
    outer loop
      vertex 59 64.5 17
      vertex 59 51.5 13.55
      vertex 59 51.5 17
    endloop
  endfacet
  facet normal 1 -0 0
    outer loop
      vertex 51 51.5 17
      vertex 51 64.5 13.55
      vertex 51 64.5 17
    endloop
  endfacet
  facet normal 1 0 0
    outer loop
      vertex 51 64.5 13.55
      vertex 51 51.5 17
      vertex 51 51.5 13.55
    endloop
  endfacet
  facet normal 0 -1 0
    outer loop
      vertex 51 64.5 13.55
      vertex 59 64.5 17
      vertex 51 64.5 17
    endloop
  endfacet
  facet normal 0 -1 -0
    outer loop
      vertex 59 64.5 17
      vertex 51 64.5 13.55
      vertex 59 64.5 13.55
    endloop
  endfacet
  facet normal 0 1 -0
    outer loop
      vertex 59 51.5 13.55
      vertex 51 51.5 17
      vertex 59 51.5 17
    endloop
  endfacet
  facet normal 0 1 0
    outer loop
      vertex 51 51.5 17
      vertex 59 51.5 13.55
      vertex 51 51.5 13.55
    endloop
  endfacet
  facet normal 0 0 -1
    outer loop
      vertex 62 50.55 13.55
      vertex 59 51.5 13.55
      vertex 62 65.45 13.55
    endloop
  endfacet
  facet normal 0 0 -1
    outer loop
      vertex 62 50.55 13.55
      vertex 51 51.5 13.55
      vertex 59 51.5 13.55
    endloop
  endfacet
  facet normal 0 0 -1
    outer loop
      vertex 51 51.5 13.55
      vertex 43 51.5 13.55
      vertex 51 64.5 13.55
    endloop
  endfacet
  facet normal 0 0 -1
    outer loop
      vertex 62 50.55 13.55
      vertex 43 51.5 13.55
      vertex 51 51.5 13.55
    endloop
  endfacet
  facet normal 0 0 -1
    outer loop
      vertex 32 50.55 13.55
      vertex 43 51.5 13.55
      vertex 62 50.55 13.55
    endloop
  endfacet
  facet normal -0 0 -1
    outer loop
      vertex 35 51.5 13.55
      vertex 32 50.55 13.55
      vertex 35 64.5 13.55
    endloop
  endfacet
  facet normal -0 0 -1
    outer loop
      vertex 43 51.5 13.55
      vertex 32 50.55 13.55
      vertex 35 51.5 13.55
    endloop
  endfacet
  facet normal 0 0 -1
    outer loop
      vertex 59 64.5 13.55
      vertex 62 65.45 13.55
      vertex 59 51.5 13.55
    endloop
  endfacet
  facet normal 0 0 -1
    outer loop
      vertex 51 64.5 13.55
      vertex 62 65.45 13.55
      vertex 59 64.5 13.55
    endloop
  endfacet
  facet normal 0 0 -1
    outer loop
      vertex 43 64.5 13.55
      vertex 51 64.5 13.55
      vertex 43 51.5 13.55
    endloop
  endfacet
  facet normal 0 0 -1
    outer loop
      vertex 43 64.5 13.55
      vertex 62 65.45 13.55
      vertex 51 64.5 13.55
    endloop
  endfacet
  facet normal 0 0 -1
    outer loop
      vertex 32 65.45 13.55
      vertex 43 64.5 13.55
      vertex 35 64.5 13.55
    endloop
  endfacet
  facet normal 0 0 -1
    outer loop
      vertex 43 64.5 13.55
      vertex 32 65.45 13.55
      vertex 62 65.45 13.55
    endloop
  endfacet
  facet normal 0 0 -1
    outer loop
      vertex 32 65.45 13.55
      vertex 35 64.5 13.55
      vertex 32 50.55 13.55
    endloop
  endfacet
  facet normal -0 0 1
    outer loop
      vertex 32 65.45 2.9
      vertex 62 50.55 2.9
      vertex 62 65.45 2.9
    endloop
  endfacet
  facet normal 0 0 1
    outer loop
      vertex 62 50.55 2.9
      vertex 32 65.45 2.9
      vertex 32 50.55 2.9
    endloop
  endfacet
  facet normal 0 -1 0
    outer loop
      vertex 32 65.45 2.9
      vertex 62 65.45 13.55
      vertex 32 65.45 13.55
    endloop
  endfacet
  facet normal 0 -1 -0
    outer loop
      vertex 62 65.45 13.55
      vertex 32 65.45 2.9
      vertex 62 65.45 2.9
    endloop
  endfacet
  facet normal 0 1 -0
    outer loop
      vertex 62 50.55 2.9
      vertex 32 50.55 13.55
      vertex 62 50.55 13.55
    endloop
  endfacet
  facet normal 0 1 0
    outer loop
      vertex 32 50.55 13.55
      vertex 62 50.55 2.9
      vertex 32 50.55 2.9
    endloop
  endfacet
endsolid OpenSCAD_Model
