solid OpenSCAD_Model
  facet normal 0 0 1
    outer loop
      vertex 28.8 2.55 4.95
      vertex 1.2 2.55 4.95
      vertex 28.8 0 4.95
    endloop
  endfacet
  facet normal -0.267644 0.963518 0
    outer loop
      vertex 1.2 2.55 0
      vertex 0.3 2.3 4.7
      vertex 1.2 2.55 4.95
    endloop
  endfacet
  facet normal 1 0 -0
    outer loop
      vertex 29.7 2.3 0.25
      vertex 29.7 2.3 4.7
      vertex 29.7 0.25 0.25
    endloop
  endfacet
  facet normal 0 0 1
    outer loop
      vertex 28.8 0 4.95
      vertex 1.2 2.55 4.95
      vertex 1.2 0 4.95
    endloop
  endfacet
  facet normal 0 0 -1
    outer loop
      vertex 1.2 0 0
      vertex 28.8 2.55 0
      vertex 28.8 0 0
    endloop
  endfacet
  facet normal -0.267644 0.963518 0
    outer loop
      vertex 0.3 2.3 0.25
      vertex 0.3 2.3 4.7
      vertex 1.2 2.55 0
    endloop
  endfacet
  facet normal 0 1 0
    outer loop
      vertex 1.2 2.55 4.95
      vertex 28.8 2.55 0
      vertex 1.2 2.55 0
    endloop
  endfacet
  facet normal 0 0 -1
    outer loop
      vertex 1.2 2.55 0
      vertex 28.8 2.55 0
      vertex 1.2 0 0
    endloop
  endfacet
  facet normal 0 -1 -0
    outer loop
      vertex 28.8 0 4.95
      vertex 1.2 0 0
      vertex 28.8 0 0
    endloop
  endfacet
  facet normal 0 -1 0
    outer loop
      vertex 1.2 0 4.95
      vertex 1.2 0 0
      vertex 28.8 0 4.95
    endloop
  endfacet
  facet normal 0 1 0
    outer loop
      vertex 28.8 2.55 4.95
      vertex 28.8 2.55 0
      vertex 1.2 2.55 4.95
    endloop
  endfacet
  facet normal 0.267644 0 -0.963518
    outer loop
      vertex 28.8 2.55 0
      vertex 29.7 0.25 0.25
      vertex 28.8 0 0
    endloop
  endfacet
  facet normal -0.267644 0 -0.963518
    outer loop
      vertex 1.2 2.55 0
      vertex 0.3 0.25 0.25
      vertex 0.3 2.3 0.25
    endloop
  endfacet
  facet normal -0.267644 0 0.963518
    outer loop
      vertex 1.2 2.55 4.95
      vertex 0.3 2.3 4.7
      vertex 1.2 0 4.95
    endloop
  endfacet
  facet normal 0.267644 0.963518 0
    outer loop
      vertex 28.8 2.55 0
      vertex 29.7 2.3 4.7
      vertex 29.7 2.3 0.25
    endloop
  endfacet
  facet normal 0.267644 0 -0.963518
    outer loop
      vertex 29.7 2.3 0.25
      vertex 29.7 0.25 0.25
      vertex 28.8 2.55 0
    endloop
  endfacet
  facet normal -0.267644 -0.963518 -0
    outer loop
      vertex 0.3 0.25 4.7
      vertex 0.3 0.25 0.25
      vertex 1.2 0 4.95
    endloop
  endfacet
  facet normal -1 -0 0
    outer loop
      vertex 0.3 2.3 4.7
      vertex 0.3 0.25 0.25
      vertex 0.3 0.25 4.7
    endloop
  endfacet
  facet normal 0.267644 -0.963518 0
    outer loop
      vertex 28.8 0 0
      vertex 29.7 0.25 4.7
      vertex 28.8 0 4.95
    endloop
  endfacet
  facet normal 0.267644 -0.963518 0
    outer loop
      vertex 29.7 0.25 0.25
      vertex 29.7 0.25 4.7
      vertex 28.8 0 0
    endloop
  endfacet
  facet normal -1 0 0
    outer loop
      vertex 0.3 2.3 0.25
      vertex 0.3 0.25 0.25
      vertex 0.3 2.3 4.7
    endloop
  endfacet
  facet normal -0.267644 0 0.963518
    outer loop
      vertex 1.2 0 4.95
      vertex 0.3 2.3 4.7
      vertex 0.3 0.25 4.7
    endloop
  endfacet
  facet normal -0.267644 0 -0.963518
    outer loop
      vertex 1.2 0 0
      vertex 0.3 0.25 0.25
      vertex 1.2 2.55 0
    endloop
  endfacet
  facet normal -0.267644 -0.963518 -0
    outer loop
      vertex 1.2 0 4.95
      vertex 0.3 0.25 0.25
      vertex 1.2 0 0
    endloop
  endfacet
  facet normal 0.267644 -0 0.963518
    outer loop
      vertex 29.7 0.25 4.7
      vertex 29.7 2.3 4.7
      vertex 28.8 0 4.95
    endloop
  endfacet
  facet normal 1 0 0
    outer loop
      vertex 29.7 0.25 0.25
      vertex 29.7 2.3 4.7
      vertex 29.7 0.25 4.7
    endloop
  endfacet
  facet normal 0.267644 0.963518 0
    outer loop
      vertex 28.8 2.55 4.95
      vertex 29.7 2.3 4.7
      vertex 28.8 2.55 0
    endloop
  endfacet
  facet normal 0.267644 -0 0.963518
    outer loop
      vertex 28.8 0 4.95
      vertex 29.7 2.3 4.7
      vertex 28.8 2.55 4.95
    endloop
  endfacet
endsolid OpenSCAD_Model
