solid OpenSCAD_Model
  facet normal -0.989176 -0.146731 0
    outer loop
      vertex 0.153717 6.43928 0
      vertex 0.0385218 7.21586 5
      vertex 0.0385218 7.21586 0
    endloop
  endfacet
  facet normal -0.989176 -0.146731 0
    outer loop
      vertex 0.0385218 7.21586 5
      vertex 0.153717 6.43928 0
      vertex 0.153717 6.43928 5
    endloop
  endfacet
  facet normal 0.970019 -0.243027 0
    outer loop
      vertex 43.6555 5.67772 5
      vertex 43.8463 6.43928 0
      vertex 43.8463 6.43928 5
    endloop
  endfacet
  facet normal 0.970019 -0.243027 0
    outer loop
      vertex 43.8463 6.43928 0
      vertex 43.6555 5.67772 5
      vertex 43.6555 5.67772 0
    endloop
  endfacet
  facet normal -0.998795 -0.049067 0
    outer loop
      vertex 0.0385218 7.21586 0
      vertex 0 8 5
      vertex 0 8 0
    endloop
  endfacet
  facet normal -0.998795 -0.049067 0
    outer loop
      vertex 0 8 5
      vertex 0.0385218 7.21586 0
      vertex 0.0385218 7.21586 5
    endloop
  endfacet
  facet normal 0.989176 -0.146737 0
    outer loop
      vertex 43.8463 6.43928 5
      vertex 43.9615 7.21586 0
      vertex 43.9615 7.21586 5
    endloop
  endfacet
  facet normal 0.989176 -0.146737 0
    outer loop
      vertex 43.9615 7.21586 0
      vertex 43.8463 6.43928 5
      vertex 43.8463 6.43928 0
    endloop
  endfacet
  facet normal 0.427559 -0.903987 0
    outer loop
      vertex 39.0615 0.608963 0
      vertex 39.7712 0.94463 5
      vertex 39.0615 0.608963 5
    endloop
  endfacet
  facet normal 0.427559 -0.903987 0
    outer loop
      vertex 39.7712 0.94463 5
      vertex 39.0615 0.608963 0
      vertex 39.7712 0.94463 0
    endloop
  endfacet
  facet normal 0.94154 0.336901 0
    outer loop
      vertex 43.6555 10.3223 5
      vertex 43.391 11.0615 0
      vertex 43.391 11.0615 5
    endloop
  endfacet
  facet normal 0.94154 0.336901 0
    outer loop
      vertex 43.391 11.0615 0
      vertex 43.6555 10.3223 5
      vertex 43.6555 10.3223 0
    endloop
  endfacet
  facet normal -0.941546 0.336885 0
    outer loop
      vertex 0.344477 10.3223 0
      vertex 0.608963 11.0615 5
      vertex 0.608963 11.0615 0
    endloop
  endfacet
  facet normal -0.941546 0.336885 0
    outer loop
      vertex 0.608963 11.0615 5
      vertex 0.344477 10.3223 0
      vertex 0.344477 10.3223 5
    endloop
  endfacet
  facet normal -0.998795 0.049067 0
    outer loop
      vertex 0 8 0
      vertex 0.0385218 8.78414 5
      vertex 0.0385218 8.78414 0
    endloop
  endfacet
  facet normal -0.998795 0.049067 0
    outer loop
      vertex 0.0385218 8.78414 5
      vertex 0 8 0
      vertex 0 8 5
    endloop
  endfacet
  facet normal -0.671564 -0.740946 0
    outer loop
      vertex 2.34315 2.34315 0
      vertex 2.92485 1.81592 5
      vertex 2.34315 2.34315 5
    endloop
  endfacet
  facet normal -0.671564 -0.740946 -0
    outer loop
      vertex 2.92485 1.81592 5
      vertex 2.34315 2.34315 0
      vertex 2.92485 1.81592 0
    endloop
  endfacet
  facet normal 0 1 -0
    outer loop
      vertex 36 16 0
      vertex 8 16 5
      vertex 36 16 5
    endloop
  endfacet
  facet normal 0 1 0
    outer loop
      vertex 8 16 5
      vertex 36 16 0
      vertex 8 16 0
    endloop
  endfacet
  facet normal -0.803165 0.595756 0
    outer loop
      vertex 1.34824 12.4446 0
      vertex 1.81592 13.0751 5
      vertex 1.81592 13.0751 0
    endloop
  endfacet
  facet normal -0.803165 0.595756 0
    outer loop
      vertex 1.81592 13.0751 5
      vertex 1.34824 12.4446 0
      vertex 1.34824 12.4446 5
    endloop
  endfacet
  facet normal -0.049067 -0.998795 0
    outer loop
      vertex 7.21586 0.0385218 0
      vertex 8 0 5
      vertex 7.21586 0.0385218 5
    endloop
  endfacet
  facet normal -0.049067 -0.998795 -0
    outer loop
      vertex 8 0 5
      vertex 7.21586 0.0385218 0
      vertex 8 0 0
    endloop
  endfacet
  facet normal -0.595718 0.803194 0
    outer loop
      vertex 3.55544 14.6518 0
      vertex 2.92485 14.1841 5
      vertex 3.55544 14.6518 5
    endloop
  endfacet
  facet normal -0.595718 0.803194 0
    outer loop
      vertex 2.92485 14.1841 5
      vertex 3.55544 14.6518 0
      vertex 2.92485 14.1841 0
    endloop
  endfacet
  facet normal -0.989176 0.146731 0
    outer loop
      vertex 0.0385218 8.78414 0
      vertex 0.153717 9.56072 5
      vertex 0.153717 9.56072 0
    endloop
  endfacet
  facet normal -0.989176 0.146731 0
    outer loop
      vertex 0.153717 9.56072 5
      vertex 0.0385218 8.78414 0
      vertex 0.0385218 8.78414 5
    endloop
  endfacet
  facet normal 0.0490418 0.998797 -0
    outer loop
      vertex 36.7841 15.9615 0
      vertex 36 16 5
      vertex 36.7841 15.9615 5
    endloop
  endfacet
  facet normal 0.0490418 0.998797 0
    outer loop
      vertex 36 16 5
      vertex 36.7841 15.9615 0
      vertex 36 16 0
    endloop
  endfacet
  facet normal -0.336889 -0.941544 0
    outer loop
      vertex 4.93853 0.608963 0
      vertex 5.67772 0.344477 5
      vertex 4.93853 0.608963 5
    endloop
  endfacet
  facet normal -0.336889 -0.941544 -0
    outer loop
      vertex 5.67772 0.344477 5
      vertex 4.93853 0.608963 0
      vertex 5.67772 0.344477 0
    endloop
  endfacet
  facet normal -0.336905 0.941539 0
    outer loop
      vertex 5.67772 15.6555 0
      vertex 4.93853 15.391 5
      vertex 5.67772 15.6555 5
    endloop
  endfacet
  facet normal -0.336905 0.941539 0
    outer loop
      vertex 4.93853 15.391 5
      vertex 5.67772 15.6555 0
      vertex 4.93853 15.391 0
    endloop
  endfacet
  facet normal 0.595773 0.803153 -0
    outer loop
      vertex 41.0751 14.1841 0
      vertex 40.4446 14.6518 5
      vertex 41.0751 14.1841 5
    endloop
  endfacet
  facet normal 0.595773 0.803153 0
    outer loop
      vertex 40.4446 14.6518 5
      vertex 41.0751 14.1841 0
      vertex 40.4446 14.6518 0
    endloop
  endfacet
  facet normal 0.857737 -0.514089 0
    outer loop
      vertex 42.6518 3.55544 5
      vertex 43.0554 4.22883 0
      vertex 43.0554 4.22883 5
    endloop
  endfacet
  facet normal 0.857737 -0.514089 0
    outer loop
      vertex 43.0554 4.22883 0
      vertex 42.6518 3.55544 5
      vertex 42.6518 3.55544 0
    endloop
  endfacet
  facet normal -0.803206 -0.595701 0
    outer loop
      vertex 1.81592 2.92485 0
      vertex 1.34824 3.55544 5
      vertex 1.34824 3.55544 0
    endloop
  endfacet
  facet normal -0.803206 -0.595701 0
    outer loop
      vertex 1.34824 3.55544 5
      vertex 1.81592 2.92485 0
      vertex 1.81592 2.92485 5
    endloop
  endfacet
  facet normal -0.146737 0.989176 0
    outer loop
      vertex 7.21586 15.9615 0
      vertex 6.43928 15.8463 5
      vertex 7.21586 15.9615 5
    endloop
  endfacet
  facet normal -0.146737 0.989176 0
    outer loop
      vertex 6.43928 15.8463 5
      vertex 7.21586 15.9615 0
      vertex 6.43928 15.8463 0
    endloop
  endfacet
  facet normal 0.427489 0.90402 -0
    outer loop
      vertex 39.7712 15.0554 0
      vertex 39.0615 15.391 5
      vertex 39.7712 15.0554 5
    endloop
  endfacet
  facet normal 0.427489 0.90402 0
    outer loop
      vertex 39.0615 15.391 5
      vertex 39.7712 15.0554 0
      vertex 39.0615 15.391 0
    endloop
  endfacet
  facet normal 0.941539 -0.336905 0
    outer loop
      vertex 43.391 4.93853 5
      vertex 43.6555 5.67772 0
      vertex 43.6555 5.67772 5
    endloop
  endfacet
  facet normal 0.941539 -0.336905 0
    outer loop
      vertex 43.6555 5.67772 0
      vertex 43.391 4.93853 5
      vertex 43.391 4.93853 0
    endloop
  endfacet
  facet normal 0.741023 0.67148 0
    outer loop
      vertex 42.1841 13.0751 5
      vertex 41.6569 13.6569 0
      vertex 41.6569 13.6569 5
    endloop
  endfacet
  facet normal 0.741023 0.67148 0
    outer loop
      vertex 41.6569 13.6569 0
      vertex 42.1841 13.0751 5
      vertex 42.1841 13.0751 0
    endloop
  endfacet
  facet normal 0.740965 -0.671543 0
    outer loop
      vertex 41.6569 2.34315 5
      vertex 42.1841 2.92485 0
      vertex 42.1841 2.92485 5
    endloop
  endfacet
  facet normal 0.740965 -0.671543 0
    outer loop
      vertex 42.1841 2.92485 0
      vertex 41.6569 2.34315 5
      vertex 41.6569 2.34315 0
    endloop
  endfacet
  facet normal -0.0490393 0.998797 0
    outer loop
      vertex 8 16 0
      vertex 7.21586 15.9615 5
      vertex 8 16 5
    endloop
  endfacet
  facet normal -0.0490393 0.998797 0
    outer loop
      vertex 7.21586 15.9615 5
      vertex 8 16 0
      vertex 7.21586 15.9615 0
    endloop
  endfacet
  facet normal 0.514093 -0.857734 0
    outer loop
      vertex 39.7712 0.94463 0
      vertex 40.4446 1.34824 5
      vertex 39.7712 0.94463 5
    endloop
  endfacet
  facet normal 0.514093 -0.857734 0
    outer loop
      vertex 40.4446 1.34824 5
      vertex 39.7712 0.94463 0
      vertex 40.4446 1.34824 0
    endloop
  endfacet
  facet normal -0.970033 0.242973 0
    outer loop
      vertex 0.153717 9.56072 0
      vertex 0.344477 10.3223 5
      vertex 0.344477 10.3223 0
    endloop
  endfacet
  facet normal -0.970033 0.242973 0
    outer loop
      vertex 0.344477 10.3223 5
      vertex 0.153717 9.56072 0
      vertex 0.153717 9.56072 5
    endloop
  endfacet
  facet normal 0.998797 0.0490393 0
    outer loop
      vertex 44 8 5
      vertex 43.9615 8.78414 0
      vertex 43.9615 8.78414 5
    endloop
  endfacet
  facet normal 0.998797 0.0490393 0
    outer loop
      vertex 43.9615 8.78414 0
      vertex 44 8 5
      vertex 44 8 0
    endloop
  endfacet
  facet normal 0.90402 -0.427489 0
    outer loop
      vertex 43.0554 4.22883 5
      vertex 43.391 4.93853 0
      vertex 43.391 4.93853 5
    endloop
  endfacet
  facet normal 0.90402 -0.427489 0
    outer loop
      vertex 43.391 4.93853 0
      vertex 43.0554 4.22883 5
      vertex 43.0554 4.22883 0
    endloop
  endfacet
  facet normal 0.989176 0.146737 0
    outer loop
      vertex 43.9615 8.78414 5
      vertex 43.8463 9.56072 0
      vertex 43.8463 9.56072 5
    endloop
  endfacet
  facet normal 0.989176 0.146737 0
    outer loop
      vertex 43.8463 9.56072 0
      vertex 43.9615 8.78414 5
      vertex 43.9615 8.78414 0
    endloop
  endfacet
  facet normal 0.146733 0.989176 -0
    outer loop
      vertex 37.5607 15.8463 0
      vertex 36.7841 15.9615 5
      vertex 37.5607 15.8463 5
    endloop
  endfacet
  facet normal 0.146733 0.989176 0
    outer loop
      vertex 36.7841 15.9615 5
      vertex 37.5607 15.8463 0
      vertex 36.7841 15.9615 0
    endloop
  endfacet
  facet normal 0.67148 0.741023 -0
    outer loop
      vertex 41.6569 13.6569 0
      vertex 41.0751 14.1841 5
      vertex 41.6569 13.6569 5
    endloop
  endfacet
  facet normal 0.67148 0.741023 0
    outer loop
      vertex 41.0751 14.1841 5
      vertex 41.6569 13.6569 0
      vertex 41.0751 14.1841 0
    endloop
  endfacet
  facet normal -0.514099 -0.857731 0
    outer loop
      vertex 3.55544 1.34824 0
      vertex 4.22883 0.94463 5
      vertex 3.55544 1.34824 5
    endloop
  endfacet
  facet normal -0.514099 -0.857731 -0
    outer loop
      vertex 4.22883 0.94463 5
      vertex 3.55544 1.34824 0
      vertex 4.22883 0.94463 0
    endloop
  endfacet
  facet normal 0.970021 0.243021 0
    outer loop
      vertex 43.8463 9.56072 5
      vertex 43.6555 10.3223 0
      vertex 43.6555 10.3223 5
    endloop
  endfacet
  facet normal 0.970021 0.243021 0
    outer loop
      vertex 43.6555 10.3223 0
      vertex 43.8463 9.56072 5
      vertex 43.8463 9.56072 0
    endloop
  endfacet
  facet normal 0 0 1
    outer loop
      vertex 42 13 5
      vertex 44 8 5
      vertex 43.9615 8.78414 5
    endloop
  endfacet
  facet normal 0 0 1
    outer loop
      vertex 42 13 5
      vertex 43.9615 8.78414 5
      vertex 43.8463 9.56072 5
    endloop
  endfacet
  facet normal 0 0 1
    outer loop
      vertex 44 8 5
      vertex 42 13 5
      vertex 43.9615 7.21586 5
    endloop
  endfacet
  facet normal 0 0 1
    outer loop
      vertex 42 13 5
      vertex 43.8463 9.56072 5
      vertex 43.6555 10.3223 5
    endloop
  endfacet
  facet normal 0 0 1
    outer loop
      vertex 42 3 5
      vertex 43.9615 7.21586 5
      vertex 42 13 5
    endloop
  endfacet
  facet normal 0 0 1
    outer loop
      vertex 42 13 5
      vertex 43.6555 10.3223 5
      vertex 43.391 11.0615 5
    endloop
  endfacet
  facet normal 0 0 1
    outer loop
      vertex 43.9615 7.21586 5
      vertex 42 3 5
      vertex 43.8463 6.43928 5
    endloop
  endfacet
  facet normal 0 0 1
    outer loop
      vertex 42 13 5
      vertex 43.391 11.0615 5
      vertex 43.0554 11.7712 5
    endloop
  endfacet
  facet normal 0 0 1
    outer loop
      vertex 43.8463 6.43928 5
      vertex 42 3 5
      vertex 43.6555 5.67772 5
    endloop
  endfacet
  facet normal 0 0 1
    outer loop
      vertex 42 13 5
      vertex 43.0554 11.7712 5
      vertex 42.6518 12.4446 5
    endloop
  endfacet
  facet normal 0 0 1
    outer loop
      vertex 43.6555 5.67772 5
      vertex 42 3 5
      vertex 43.391 4.93853 5
    endloop
  endfacet
  facet normal -0 0 1
    outer loop
      vertex 42 13 5
      vertex 42.6518 12.4446 5
      vertex 42.1841 13.0751 5
    endloop
  endfacet
  facet normal 0 0 1
    outer loop
      vertex 43.391 4.93853 5
      vertex 42 3 5
      vertex 43.0554 4.22883 5
    endloop
  endfacet
  facet normal 0 0 1
    outer loop
      vertex 43.0554 4.22883 5
      vertex 42 3 5
      vertex 42.6518 3.55544 5
    endloop
  endfacet
  facet normal 0 0 1
    outer loop
      vertex 41.6569 13.6569 5
      vertex 42 13 5
      vertex 42.1841 13.0751 5
    endloop
  endfacet
  facet normal 0 0 1
    outer loop
      vertex 41.0751 14.1841 5
      vertex 42 13 5
      vertex 41.6569 13.6569 5
    endloop
  endfacet
  facet normal 0 0 1
    outer loop
      vertex 40.4446 14.6518 5
      vertex 42 13 5
      vertex 41.0751 14.1841 5
    endloop
  endfacet
  facet normal 0 0 1
    outer loop
      vertex 34 13 5
      vertex 40.4446 14.6518 5
      vertex 39.7712 15.0554 5
    endloop
  endfacet
  facet normal 0 0 1
    outer loop
      vertex 34 13 5
      vertex 39.7712 15.0554 5
      vertex 39.0615 15.391 5
    endloop
  endfacet
  facet normal 0 0 1
    outer loop
      vertex 34 13 5
      vertex 39.0615 15.391 5
      vertex 38.3223 15.6555 5
    endloop
  endfacet
  facet normal 0 0 1
    outer loop
      vertex 34 13 5
      vertex 38.3223 15.6555 5
      vertex 37.5607 15.8463 5
    endloop
  endfacet
  facet normal 0 0 1
    outer loop
      vertex 34 13 5
      vertex 37.5607 15.8463 5
      vertex 36.7841 15.9615 5
    endloop
  endfacet
  facet normal 0 0 1
    outer loop
      vertex 34 13 5
      vertex 36.7841 15.9615 5
      vertex 36 16 5
    endloop
  endfacet
  facet normal 0 0 1
    outer loop
      vertex 40.4446 14.6518 5
      vertex 34 13 5
      vertex 42 13 5
    endloop
  endfacet
  facet normal 0 0 1
    outer loop
      vertex 34 13 5
      vertex 10.2 8 5
      vertex 34 3 5
    endloop
  endfacet
  facet normal -0 0 1
    outer loop
      vertex 8 16 5
      vertex 34 13 5
      vertex 36 16 5
    endloop
  endfacet
  facet normal 0 0 1
    outer loop
      vertex 34 13 5
      vertex 10.1894 8.21564 5
      vertex 10.2 8 5
    endloop
  endfacet
  facet normal 0 0 1
    outer loop
      vertex 34 13 5
      vertex 10.1577 8.4292 5
      vertex 10.1894 8.21564 5
    endloop
  endfacet
  facet normal 0 0 1
    outer loop
      vertex 34 13 5
      vertex 10.1053 8.63863 5
      vertex 10.1577 8.4292 5
    endloop
  endfacet
  facet normal 0 0 1
    outer loop
      vertex 34 13 5
      vertex 10.0325 8.8419 5
      vertex 10.1053 8.63863 5
    endloop
  endfacet
  facet normal 0 0 1
    outer loop
      vertex 34 13 5
      vertex 9.94023 9.03707 5
      vertex 10.0325 8.8419 5
    endloop
  endfacet
  facet normal 0 0 1
    outer loop
      vertex 34 13 5
      vertex 8 16 5
      vertex 9.94023 9.03707 5
    endloop
  endfacet
  facet normal 0 0 1
    outer loop
      vertex 9.94023 9.03707 5
      vertex 8 16 5
      vertex 9.82923 9.22225 5
    endloop
  endfacet
  facet normal 0 0 1
    outer loop
      vertex 9.82923 9.22225 5
      vertex 8 16 5
      vertex 9.70062 9.39567 5
    endloop
  endfacet
  facet normal 0 0 1
    outer loop
      vertex 9.70062 9.39567 5
      vertex 8 16 5
      vertex 9.55563 9.55563 5
    endloop
  endfacet
  facet normal 0 0 1
    outer loop
      vertex 9.55563 9.55563 5
      vertex 8 16 5
      vertex 9.39567 9.70062 5
    endloop
  endfacet
  facet normal 0 0 1
    outer loop
      vertex 9.39567 9.70062 5
      vertex 8 16 5
      vertex 9.22225 9.82923 5
    endloop
  endfacet
  facet normal 0 0 1
    outer loop
      vertex 9.22225 9.82923 5
      vertex 8 16 5
      vertex 9.03707 9.94023 5
    endloop
  endfacet
  facet normal 0 0 1
    outer loop
      vertex 9.03707 9.94023 5
      vertex 8 16 5
      vertex 8.8419 10.0325 5
    endloop
  endfacet
  facet normal 0 0 1
    outer loop
      vertex 8.8419 10.0325 5
      vertex 8 16 5
      vertex 8.63863 10.1053 5
    endloop
  endfacet
  facet normal 0 0 1
    outer loop
      vertex 8.63863 10.1053 5
      vertex 8 16 5
      vertex 8.4292 10.1577 5
    endloop
  endfacet
  facet normal 0 0 1
    outer loop
      vertex 8.4292 10.1577 5
      vertex 8 16 5
      vertex 8.21564 10.1894 5
    endloop
  endfacet
  facet normal 0 0 1
    outer loop
      vertex 8 16 5
      vertex 8 10.2 5
      vertex 8.21564 10.1894 5
    endloop
  endfacet
  facet normal 0 0 1
    outer loop
      vertex 8 16 5
      vertex 7.78436 10.1894 5
      vertex 8 10.2 5
    endloop
  endfacet
  facet normal -0 0 1
    outer loop
      vertex 7.21586 15.9615 5
      vertex 7.78436 10.1894 5
      vertex 8 16 5
    endloop
  endfacet
  facet normal 0 0 1
    outer loop
      vertex 7.78436 10.1894 5
      vertex 7.21586 15.9615 5
      vertex 7.5708 10.1577 5
    endloop
  endfacet
  facet normal -0 0 1
    outer loop
      vertex 6.43928 15.8463 5
      vertex 7.5708 10.1577 5
      vertex 7.21586 15.9615 5
    endloop
  endfacet
  facet normal 0 0 1
    outer loop
      vertex 7.5708 10.1577 5
      vertex 6.43928 15.8463 5
      vertex 7.36137 10.1053 5
    endloop
  endfacet
  facet normal -0 0 1
    outer loop
      vertex 5.67772 15.6555 5
      vertex 7.36137 10.1053 5
      vertex 6.43928 15.8463 5
    endloop
  endfacet
  facet normal 0 0 1
    outer loop
      vertex 7.36137 10.1053 5
      vertex 5.67772 15.6555 5
      vertex 7.1581 10.0325 5
    endloop
  endfacet
  facet normal -0 0 1
    outer loop
      vertex 4.93853 15.391 5
      vertex 7.1581 10.0325 5
      vertex 5.67772 15.6555 5
    endloop
  endfacet
  facet normal 0 0 1
    outer loop
      vertex 7.1581 10.0325 5
      vertex 4.93853 15.391 5
      vertex 6.96293 9.94023 5
    endloop
  endfacet
  facet normal -0 0 1
    outer loop
      vertex 4.22883 15.0554 5
      vertex 6.96293 9.94023 5
      vertex 4.93853 15.391 5
    endloop
  endfacet
  facet normal 0 0 1
    outer loop
      vertex 6.96293 9.94023 5
      vertex 4.22883 15.0554 5
      vertex 6.77775 9.82923 5
    endloop
  endfacet
  facet normal -0 0 1
    outer loop
      vertex 3.55544 14.6518 5
      vertex 6.77775 9.82923 5
      vertex 4.22883 15.0554 5
    endloop
  endfacet
  facet normal 0 0 1
    outer loop
      vertex 6.77775 9.82923 5
      vertex 3.55544 14.6518 5
      vertex 6.60433 9.70062 5
    endloop
  endfacet
  facet normal -0 0 1
    outer loop
      vertex 2.92485 14.1841 5
      vertex 6.60433 9.70062 5
      vertex 3.55544 14.6518 5
    endloop
  endfacet
  facet normal 0 0 1
    outer loop
      vertex 6.60433 9.70062 5
      vertex 2.92485 14.1841 5
      vertex 6.44436 9.55563 5
    endloop
  endfacet
  facet normal -0 0 1
    outer loop
      vertex 2.34315 13.6569 5
      vertex 6.44436 9.55563 5
      vertex 2.92485 14.1841 5
    endloop
  endfacet
  facet normal 0 0 1
    outer loop
      vertex 6.44436 9.55563 5
      vertex 2.34315 13.6569 5
      vertex 6.29938 9.39567 5
    endloop
  endfacet
  facet normal 0 0 1
    outer loop
      vertex 6.29938 9.39567 5
      vertex 1.81592 13.0751 5
      vertex 6.17077 9.22225 5
    endloop
  endfacet
  facet normal -0 0 1
    outer loop
      vertex 1.81592 13.0751 5
      vertex 6.29938 9.39567 5
      vertex 2.34315 13.6569 5
    endloop
  endfacet
  facet normal 0 0 1
    outer loop
      vertex 42.6518 3.55544 5
      vertex 42 3 5
      vertex 42.1841 2.92485 5
    endloop
  endfacet
  facet normal 0 0 1
    outer loop
      vertex 42 3 5
      vertex 41.6569 2.34315 5
      vertex 42.1841 2.92485 5
    endloop
  endfacet
  facet normal 0 0 1
    outer loop
      vertex 42 3 5
      vertex 41.0751 1.81592 5
      vertex 41.6569 2.34315 5
    endloop
  endfacet
  facet normal 0 0 1
    outer loop
      vertex 42 3 5
      vertex 40.4446 1.34824 5
      vertex 41.0751 1.81592 5
    endloop
  endfacet
  facet normal -0 0 1
    outer loop
      vertex 34 3 5
      vertex 40.4446 1.34824 5
      vertex 42 3 5
    endloop
  endfacet
  facet normal 0 0 1
    outer loop
      vertex 40.4446 1.34824 5
      vertex 34 3 5
      vertex 39.7712 0.94463 5
    endloop
  endfacet
  facet normal 0 0 1
    outer loop
      vertex 39.7712 0.94463 5
      vertex 34 3 5
      vertex 39.0615 0.608963 5
    endloop
  endfacet
  facet normal 0 0 1
    outer loop
      vertex 39.0615 0.608963 5
      vertex 34 3 5
      vertex 38.3223 0.344477 5
    endloop
  endfacet
  facet normal 0 0 1
    outer loop
      vertex 38.3223 0.344477 5
      vertex 34 3 5
      vertex 37.5607 0.153717 5
    endloop
  endfacet
  facet normal 0 0 1
    outer loop
      vertex 37.5607 0.153717 5
      vertex 34 3 5
      vertex 36.7841 0.0385218 5
    endloop
  endfacet
  facet normal 0 0 1
    outer loop
      vertex 36.7841 0.0385218 5
      vertex 34 3 5
      vertex 36 0 5
    endloop
  endfacet
  facet normal -0 0 1
    outer loop
      vertex 10.1894 7.78436 5
      vertex 34 3 5
      vertex 10.2 8 5
    endloop
  endfacet
  facet normal -0 0 1
    outer loop
      vertex 10.1577 7.5708 5
      vertex 34 3 5
      vertex 10.1894 7.78436 5
    endloop
  endfacet
  facet normal -0 0 1
    outer loop
      vertex 10.1053 7.36137 5
      vertex 34 3 5
      vertex 10.1577 7.5708 5
    endloop
  endfacet
  facet normal -0 0 1
    outer loop
      vertex 10.0325 7.1581 5
      vertex 34 3 5
      vertex 10.1053 7.36137 5
    endloop
  endfacet
  facet normal -0 0 1
    outer loop
      vertex 9.94023 6.96293 5
      vertex 34 3 5
      vertex 10.0325 7.1581 5
    endloop
  endfacet
  facet normal 0 0 1
    outer loop
      vertex 8 0 5
      vertex 34 3 5
      vertex 9.94023 6.96293 5
    endloop
  endfacet
  facet normal 0 0 1
    outer loop
      vertex 8 0 5
      vertex 9.94023 6.96293 5
      vertex 9.82923 6.77775 5
    endloop
  endfacet
  facet normal 0 0 1
    outer loop
      vertex 8 0 5
      vertex 9.82923 6.77775 5
      vertex 9.70062 6.60433 5
    endloop
  endfacet
  facet normal 0 0 1
    outer loop
      vertex 8 0 5
      vertex 9.70062 6.60433 5
      vertex 9.55563 6.44436 5
    endloop
  endfacet
  facet normal 0 0 1
    outer loop
      vertex 8 0 5
      vertex 9.55563 6.44436 5
      vertex 9.39567 6.29938 5
    endloop
  endfacet
  facet normal 0 0 1
    outer loop
      vertex 8 0 5
      vertex 9.39567 6.29938 5
      vertex 9.22225 6.17077 5
    endloop
  endfacet
  facet normal 0 0 1
    outer loop
      vertex 8 0 5
      vertex 9.22225 6.17077 5
      vertex 9.03707 6.05977 5
    endloop
  endfacet
  facet normal 0 0 1
    outer loop
      vertex 8 0 5
      vertex 9.03707 6.05977 5
      vertex 8.8419 5.96746 5
    endloop
  endfacet
  facet normal 0 0 1
    outer loop
      vertex 8 0 5
      vertex 8.8419 5.96746 5
      vertex 8.63863 5.89473 5
    endloop
  endfacet
  facet normal 0 0 1
    outer loop
      vertex 8 0 5
      vertex 8.63863 5.89473 5
      vertex 8.4292 5.84227 5
    endloop
  endfacet
  facet normal 0 0 1
    outer loop
      vertex 8 0 5
      vertex 8.4292 5.84227 5
      vertex 8.21564 5.81059 5
    endloop
  endfacet
  facet normal 0 0 1
    outer loop
      vertex 8 0 5
      vertex 8.21564 5.81059 5
      vertex 8 5.8 5
    endloop
  endfacet
  facet normal 0 0 1
    outer loop
      vertex 34 3 5
      vertex 8 0 5
      vertex 36 0 5
    endloop
  endfacet
  facet normal 0 0 1
    outer loop
      vertex 7.78436 5.81059 5
      vertex 8 0 5
      vertex 8 5.8 5
    endloop
  endfacet
  facet normal 0 0 1
    outer loop
      vertex 7.21586 0.0385218 5
      vertex 7.78436 5.81059 5
      vertex 7.5708 5.84227 5
    endloop
  endfacet
  facet normal 0 0 1
    outer loop
      vertex 6.43928 0.153717 5
      vertex 7.5708 5.84227 5
      vertex 7.36137 5.89473 5
    endloop
  endfacet
  facet normal 0 0 1
    outer loop
      vertex 7.78436 5.81059 5
      vertex 7.21586 0.0385218 5
      vertex 8 0 5
    endloop
  endfacet
  facet normal 0 0 1
    outer loop
      vertex 5.67772 0.344477 5
      vertex 7.36137 5.89473 5
      vertex 7.1581 5.96746 5
    endloop
  endfacet
  facet normal 0 0 1
    outer loop
      vertex 4.93853 0.608963 5
      vertex 7.1581 5.96746 5
      vertex 6.96293 6.05977 5
    endloop
  endfacet
  facet normal 0 0 1
    outer loop
      vertex 4.22883 0.94463 5
      vertex 6.96293 6.05977 5
      vertex 6.77775 6.17077 5
    endloop
  endfacet
  facet normal 0 0 1
    outer loop
      vertex 3.55544 1.34824 5
      vertex 6.77775 6.17077 5
      vertex 6.60433 6.29938 5
    endloop
  endfacet
  facet normal 0 0 1
    outer loop
      vertex 2.92485 1.81592 5
      vertex 6.60433 6.29938 5
      vertex 6.44436 6.44436 5
    endloop
  endfacet
  facet normal 0 0 1
    outer loop
      vertex 7.5708 5.84227 5
      vertex 6.43928 0.153717 5
      vertex 7.21586 0.0385218 5
    endloop
  endfacet
  facet normal 0 0 1
    outer loop
      vertex 2.34315 2.34315 5
      vertex 6.44436 6.44436 5
      vertex 6.29938 6.60433 5
    endloop
  endfacet
  facet normal 0 0 1
    outer loop
      vertex 1.81592 2.92485 5
      vertex 6.29938 6.60433 5
      vertex 6.17077 6.77775 5
    endloop
  endfacet
  facet normal 0 0 1
    outer loop
      vertex 1.34824 3.55544 5
      vertex 6.17077 6.77775 5
      vertex 6.05977 6.96293 5
    endloop
  endfacet
  facet normal 0 0 1
    outer loop
      vertex 0.94463 4.22883 5
      vertex 6.05977 6.96293 5
      vertex 5.96746 7.1581 5
    endloop
  endfacet
  facet normal 0 0 1
    outer loop
      vertex 0.608963 4.93853 5
      vertex 5.96746 7.1581 5
      vertex 5.89473 7.36137 5
    endloop
  endfacet
  facet normal 0 0 1
    outer loop
      vertex 0.344477 5.67772 5
      vertex 5.89473 7.36137 5
      vertex 5.84227 7.5708 5
    endloop
  endfacet
  facet normal 0 0 1
    outer loop
      vertex 0.153717 6.43928 5
      vertex 5.84227 7.5708 5
      vertex 5.81059 7.78436 5
    endloop
  endfacet
  facet normal 0 0 1
    outer loop
      vertex 7.36137 5.89473 5
      vertex 5.67772 0.344477 5
      vertex 6.43928 0.153717 5
    endloop
  endfacet
  facet normal 0 0 1
    outer loop
      vertex 0.0385218 7.21586 5
      vertex 5.81059 7.78436 5
      vertex 5.8 8 5
    endloop
  endfacet
  facet normal -0 0 1
    outer loop
      vertex 1.34824 12.4446 5
      vertex 6.17077 9.22225 5
      vertex 1.81592 13.0751 5
    endloop
  endfacet
  facet normal 0 0 1
    outer loop
      vertex 6.17077 9.22225 5
      vertex 1.34824 12.4446 5
      vertex 6.05977 9.03707 5
    endloop
  endfacet
  facet normal 0 0 1
    outer loop
      vertex 7.1581 5.96746 5
      vertex 4.93853 0.608963 5
      vertex 5.67772 0.344477 5
    endloop
  endfacet
  facet normal -0 0 1
    outer loop
      vertex 0.94463 11.7712 5
      vertex 6.05977 9.03707 5
      vertex 1.34824 12.4446 5
    endloop
  endfacet
  facet normal 0 0 1
    outer loop
      vertex 6.96293 6.05977 5
      vertex 4.22883 0.94463 5
      vertex 4.93853 0.608963 5
    endloop
  endfacet
  facet normal 0 0 1
    outer loop
      vertex 6.05977 9.03707 5
      vertex 0.94463 11.7712 5
      vertex 5.96746 8.8419 5
    endloop
  endfacet
  facet normal 0 0 1
    outer loop
      vertex 6.77775 6.17077 5
      vertex 3.55544 1.34824 5
      vertex 4.22883 0.94463 5
    endloop
  endfacet
  facet normal -0 0 1
    outer loop
      vertex 0.608963 11.0615 5
      vertex 5.96746 8.8419 5
      vertex 0.94463 11.7712 5
    endloop
  endfacet
  facet normal 0 0 1
    outer loop
      vertex 6.60433 6.29938 5
      vertex 2.92485 1.81592 5
      vertex 3.55544 1.34824 5
    endloop
  endfacet
  facet normal 0 0 1
    outer loop
      vertex 5.96746 8.8419 5
      vertex 0.608963 11.0615 5
      vertex 5.89473 8.63863 5
    endloop
  endfacet
  facet normal 0 0 1
    outer loop
      vertex 6.44436 6.44436 5
      vertex 2.34315 2.34315 5
      vertex 2.92485 1.81592 5
    endloop
  endfacet
  facet normal -0 0 1
    outer loop
      vertex 0.344477 10.3223 5
      vertex 5.89473 8.63863 5
      vertex 0.608963 11.0615 5
    endloop
  endfacet
  facet normal 0 0 1
    outer loop
      vertex 6.29938 6.60433 5
      vertex 1.81592 2.92485 5
      vertex 2.34315 2.34315 5
    endloop
  endfacet
  facet normal 0 0 1
    outer loop
      vertex 5.89473 8.63863 5
      vertex 0.344477 10.3223 5
      vertex 5.84227 8.4292 5
    endloop
  endfacet
  facet normal 0 0 1
    outer loop
      vertex 6.17077 6.77775 5
      vertex 1.34824 3.55544 5
      vertex 1.81592 2.92485 5
    endloop
  endfacet
  facet normal -0 0 1
    outer loop
      vertex 0.153717 9.56072 5
      vertex 5.84227 8.4292 5
      vertex 0.344477 10.3223 5
    endloop
  endfacet
  facet normal 0 0 1
    outer loop
      vertex 6.05977 6.96293 5
      vertex 0.94463 4.22883 5
      vertex 1.34824 3.55544 5
    endloop
  endfacet
  facet normal 0 0 1
    outer loop
      vertex 5.84227 8.4292 5
      vertex 0.153717 9.56072 5
      vertex 5.81059 8.21564 5
    endloop
  endfacet
  facet normal 0 0 1
    outer loop
      vertex 5.96746 7.1581 5
      vertex 0.608963 4.93853 5
      vertex 0.94463 4.22883 5
    endloop
  endfacet
  facet normal -0 0 1
    outer loop
      vertex 0.0385218 8.78414 5
      vertex 5.81059 8.21564 5
      vertex 0.153717 9.56072 5
    endloop
  endfacet
  facet normal 0 0 1
    outer loop
      vertex 5.89473 7.36137 5
      vertex 0.344477 5.67772 5
      vertex 0.608963 4.93853 5
    endloop
  endfacet
  facet normal 0 0 1
    outer loop
      vertex 5.81059 8.21564 5
      vertex 0.0385218 8.78414 5
      vertex 5.8 8 5
    endloop
  endfacet
  facet normal 0 0 1
    outer loop
      vertex 5.84227 7.5708 5
      vertex 0.153717 6.43928 5
      vertex 0.344477 5.67772 5
    endloop
  endfacet
  facet normal 0 0 1
    outer loop
      vertex 0 8 5
      vertex 5.8 8 5
      vertex 0.0385218 8.78414 5
    endloop
  endfacet
  facet normal 0 0 1
    outer loop
      vertex 5.81059 7.78436 5
      vertex 0.0385218 7.21586 5
      vertex 0.153717 6.43928 5
    endloop
  endfacet
  facet normal 0 0 1
    outer loop
      vertex 5.8 8 5
      vertex 0 8 5
      vertex 0.0385218 7.21586 5
    endloop
  endfacet
  facet normal -0.243027 0.970019 0
    outer loop
      vertex 6.43928 15.8463 0
      vertex 5.67772 15.6555 5
      vertex 6.43928 15.8463 5
    endloop
  endfacet
  facet normal -0.243027 0.970019 0
    outer loop
      vertex 5.67772 15.6555 5
      vertex 6.43928 15.8463 0
      vertex 5.67772 15.6555 0
    endloop
  endfacet
  facet normal 0.803194 -0.595718 0
    outer loop
      vertex 42.1841 2.92485 5
      vertex 42.6518 3.55544 0
      vertex 42.6518 3.55544 5
    endloop
  endfacet
  facet normal 0.803194 -0.595718 0
    outer loop
      vertex 42.6518 3.55544 0
      vertex 42.1841 2.92485 5
      vertex 42.1841 2.92485 0
    endloop
  endfacet
  facet normal -0.741004 0.671501 0
    outer loop
      vertex 1.81592 13.0751 0
      vertex 2.34315 13.6569 5
      vertex 2.34315 13.6569 0
    endloop
  endfacet
  facet normal -0.741004 0.671501 0
    outer loop
      vertex 2.34315 13.6569 5
      vertex 1.81592 13.0751 0
      vertex 1.81592 13.0751 5
    endloop
  endfacet
  facet normal 0 -1 0
    outer loop
      vertex 8 0 0
      vertex 36 0 5
      vertex 8 0 5
    endloop
  endfacet
  facet normal 0 -1 -0
    outer loop
      vertex 36 0 5
      vertex 8 0 0
      vertex 36 0 0
    endloop
  endfacet
  facet normal 0.242967 -0.970035 0
    outer loop
      vertex 37.5607 0.153717 0
      vertex 38.3223 0.344477 5
      vertex 37.5607 0.153717 5
    endloop
  endfacet
  facet normal 0.242967 -0.970035 0
    outer loop
      vertex 38.3223 0.344477 5
      vertex 37.5607 0.153717 0
      vertex 38.3223 0.344477 0
    endloop
  endfacet
  facet normal -0.146731 -0.989176 0
    outer loop
      vertex 6.43928 0.153717 0
      vertex 7.21586 0.0385218 5
      vertex 6.43928 0.153717 5
    endloop
  endfacet
  facet normal -0.146731 -0.989176 -0
    outer loop
      vertex 7.21586 0.0385218 5
      vertex 6.43928 0.153717 0
      vertex 7.21586 0.0385218 0
    endloop
  endfacet
  facet normal -0.427489 0.90402 0
    outer loop
      vertex 4.93853 15.391 0
      vertex 4.22883 15.0554 5
      vertex 4.93853 15.391 5
    endloop
  endfacet
  facet normal -0.427489 0.90402 0
    outer loop
      vertex 4.22883 15.0554 5
      vertex 4.93853 15.391 0
      vertex 4.22883 15.0554 0
    endloop
  endfacet
  facet normal 0 0 -1
    outer loop
      vertex 43.9615 7.21586 0
      vertex 43.9615 8.78414 0
      vertex 44 8 0
    endloop
  endfacet
  facet normal 0 0 -1
    outer loop
      vertex 43.8463 6.43928 0
      vertex 43.9615 8.78414 0
      vertex 43.9615 7.21586 0
    endloop
  endfacet
  facet normal 0 0 -1
    outer loop
      vertex 43.8463 6.43928 0
      vertex 43.8463 9.56072 0
      vertex 43.9615 8.78414 0
    endloop
  endfacet
  facet normal 0 0 -1
    outer loop
      vertex 43.6555 5.67772 0
      vertex 43.8463 9.56072 0
      vertex 43.8463 6.43928 0
    endloop
  endfacet
  facet normal 0 0 -1
    outer loop
      vertex 43.6555 5.67772 0
      vertex 43.6555 10.3223 0
      vertex 43.8463 9.56072 0
    endloop
  endfacet
  facet normal 0 0 -1
    outer loop
      vertex 43.391 4.93853 0
      vertex 43.6555 10.3223 0
      vertex 43.6555 5.67772 0
    endloop
  endfacet
  facet normal 0 0 -1
    outer loop
      vertex 43.391 4.93853 0
      vertex 43.391 11.0615 0
      vertex 43.6555 10.3223 0
    endloop
  endfacet
  facet normal 0 0 -1
    outer loop
      vertex 43.0554 4.22883 0
      vertex 43.391 11.0615 0
      vertex 43.391 4.93853 0
    endloop
  endfacet
  facet normal 0 0 -1
    outer loop
      vertex 43.0554 4.22883 0
      vertex 43.0554 11.7712 0
      vertex 43.391 11.0615 0
    endloop
  endfacet
  facet normal 0 0 -1
    outer loop
      vertex 42.6518 3.55544 0
      vertex 43.0554 11.7712 0
      vertex 43.0554 4.22883 0
    endloop
  endfacet
  facet normal 0 0 -1
    outer loop
      vertex 42.6518 3.55544 0
      vertex 42.6518 12.4446 0
      vertex 43.0554 11.7712 0
    endloop
  endfacet
  facet normal 0 0 -1
    outer loop
      vertex 42.1841 2.92485 0
      vertex 42.6518 12.4446 0
      vertex 42.6518 3.55544 0
    endloop
  endfacet
  facet normal 0 0 -1
    outer loop
      vertex 42.1841 2.92485 0
      vertex 42.1841 13.0751 0
      vertex 42.6518 12.4446 0
    endloop
  endfacet
  facet normal 0 0 -1
    outer loop
      vertex 41.6569 2.34315 0
      vertex 42.1841 13.0751 0
      vertex 42.1841 2.92485 0
    endloop
  endfacet
  facet normal 0 0 -1
    outer loop
      vertex 41.6569 2.34315 0
      vertex 41.6569 13.6569 0
      vertex 42.1841 13.0751 0
    endloop
  endfacet
  facet normal 0 0 -1
    outer loop
      vertex 41.0751 1.81592 0
      vertex 41.6569 13.6569 0
      vertex 41.6569 2.34315 0
    endloop
  endfacet
  facet normal 0 0 -1
    outer loop
      vertex 41.0751 1.81592 0
      vertex 41.0751 14.1841 0
      vertex 41.6569 13.6569 0
    endloop
  endfacet
  facet normal 0 0 -1
    outer loop
      vertex 40.4446 1.34824 0
      vertex 41.0751 14.1841 0
      vertex 41.0751 1.81592 0
    endloop
  endfacet
  facet normal 0 0 -1
    outer loop
      vertex 40.4446 1.34824 0
      vertex 40.4446 14.6518 0
      vertex 41.0751 14.1841 0
    endloop
  endfacet
  facet normal 0 0 -1
    outer loop
      vertex 39.7712 0.94463 0
      vertex 40.4446 14.6518 0
      vertex 40.4446 1.34824 0
    endloop
  endfacet
  facet normal 0 0 -1
    outer loop
      vertex 39.7712 0.94463 0
      vertex 39.7712 15.0554 0
      vertex 40.4446 14.6518 0
    endloop
  endfacet
  facet normal 0 0 -1
    outer loop
      vertex 39.0615 0.608963 0
      vertex 39.7712 15.0554 0
      vertex 39.7712 0.94463 0
    endloop
  endfacet
  facet normal 0 0 -1
    outer loop
      vertex 39.0615 0.608963 0
      vertex 39.0615 15.391 0
      vertex 39.7712 15.0554 0
    endloop
  endfacet
  facet normal 0 0 -1
    outer loop
      vertex 38.3223 0.344477 0
      vertex 39.0615 15.391 0
      vertex 39.0615 0.608963 0
    endloop
  endfacet
  facet normal 0 0 -1
    outer loop
      vertex 38.3223 0.344477 0
      vertex 38.3223 15.6555 0
      vertex 39.0615 15.391 0
    endloop
  endfacet
  facet normal 0 0 -1
    outer loop
      vertex 37.5607 0.153717 0
      vertex 38.3223 15.6555 0
      vertex 38.3223 0.344477 0
    endloop
  endfacet
  facet normal 0 0 -1
    outer loop
      vertex 37.5607 0.153717 0
      vertex 37.5607 15.8463 0
      vertex 38.3223 15.6555 0
    endloop
  endfacet
  facet normal 0 0 -1
    outer loop
      vertex 36.7841 0.0385218 0
      vertex 37.5607 15.8463 0
      vertex 37.5607 0.153717 0
    endloop
  endfacet
  facet normal 0 0 -1
    outer loop
      vertex 36.7841 0.0385218 0
      vertex 36.7841 15.9615 0
      vertex 37.5607 15.8463 0
    endloop
  endfacet
  facet normal 0 0 -1
    outer loop
      vertex 36 0 0
      vertex 36.7841 15.9615 0
      vertex 36.7841 0.0385218 0
    endloop
  endfacet
  facet normal 0 0 -1
    outer loop
      vertex 36 0 0
      vertex 36 16 0
      vertex 36.7841 15.9615 0
    endloop
  endfacet
  facet normal 0 0 -1
    outer loop
      vertex 36 0 0
      vertex 10.2 8 0
      vertex 36 16 0
    endloop
  endfacet
  facet normal 0 0 -1
    outer loop
      vertex 36 0 0
      vertex 10.1894 7.78436 0
      vertex 10.2 8 0
    endloop
  endfacet
  facet normal 0 0 -1
    outer loop
      vertex 36 0 0
      vertex 10.1577 7.5708 0
      vertex 10.1894 7.78436 0
    endloop
  endfacet
  facet normal 0 0 -1
    outer loop
      vertex 36 0 0
      vertex 10.1053 7.36137 0
      vertex 10.1577 7.5708 0
    endloop
  endfacet
  facet normal 0 0 -1
    outer loop
      vertex 36 0 0
      vertex 10.0325 7.1581 0
      vertex 10.1053 7.36137 0
    endloop
  endfacet
  facet normal 0 0 -1
    outer loop
      vertex 36 0 0
      vertex 9.94023 6.96293 0
      vertex 10.0325 7.1581 0
    endloop
  endfacet
  facet normal 0 0 -1
    outer loop
      vertex 8 0 0
      vertex 9.94023 6.96293 0
      vertex 36 0 0
    endloop
  endfacet
  facet normal 0 0 -1
    outer loop
      vertex 9.94023 6.96293 0
      vertex 8 0 0
      vertex 9.82923 6.77775 0
    endloop
  endfacet
  facet normal 0 0 -1
    outer loop
      vertex 9.82923 6.77775 0
      vertex 8 0 0
      vertex 9.70062 6.60433 0
    endloop
  endfacet
  facet normal 0 0 -1
    outer loop
      vertex 9.70062 6.60433 0
      vertex 8 0 0
      vertex 9.55563 6.44436 0
    endloop
  endfacet
  facet normal 0 0 -1
    outer loop
      vertex 9.55563 6.44436 0
      vertex 8 0 0
      vertex 9.39567 6.29938 0
    endloop
  endfacet
  facet normal 0 0 -1
    outer loop
      vertex 9.39567 6.29938 0
      vertex 8 0 0
      vertex 9.22225 6.17077 0
    endloop
  endfacet
  facet normal 0 0 -1
    outer loop
      vertex 9.22225 6.17077 0
      vertex 8 0 0
      vertex 9.03707 6.05977 0
    endloop
  endfacet
  facet normal 0 0 -1
    outer loop
      vertex 9.03707 6.05977 0
      vertex 8 0 0
      vertex 8.8419 5.96746 0
    endloop
  endfacet
  facet normal 0 0 -1
    outer loop
      vertex 8.8419 5.96746 0
      vertex 8 0 0
      vertex 8.63863 5.89473 0
    endloop
  endfacet
  facet normal 0 0 -1
    outer loop
      vertex 8.63863 5.89473 0
      vertex 8 0 0
      vertex 8.4292 5.84227 0
    endloop
  endfacet
  facet normal 0 0 -1
    outer loop
      vertex 8.4292 5.84227 0
      vertex 8 0 0
      vertex 8.21564 5.81059 0
    endloop
  endfacet
  facet normal 0 0 -1
    outer loop
      vertex 8 0 0
      vertex 8 5.8 0
      vertex 8.21564 5.81059 0
    endloop
  endfacet
  facet normal 0 0 -1
    outer loop
      vertex 8 0 0
      vertex 7.78436 5.81059 0
      vertex 8 5.8 0
    endloop
  endfacet
  facet normal 0 0 -1
    outer loop
      vertex 7.21586 0.0385218 0
      vertex 7.78436 5.81059 0
      vertex 8 0 0
    endloop
  endfacet
  facet normal -0 0 -1
    outer loop
      vertex 7.78436 5.81059 0
      vertex 7.21586 0.0385218 0
      vertex 7.5708 5.84227 0
    endloop
  endfacet
  facet normal 0 0 -1
    outer loop
      vertex 6.43928 0.153717 0
      vertex 7.5708 5.84227 0
      vertex 7.21586 0.0385218 0
    endloop
  endfacet
  facet normal -0 0 -1
    outer loop
      vertex 7.5708 5.84227 0
      vertex 6.43928 0.153717 0
      vertex 7.36137 5.89473 0
    endloop
  endfacet
  facet normal 0 0 -1
    outer loop
      vertex 5.67772 0.344477 0
      vertex 7.36137 5.89473 0
      vertex 6.43928 0.153717 0
    endloop
  endfacet
  facet normal -0 0 -1
    outer loop
      vertex 7.36137 5.89473 0
      vertex 5.67772 0.344477 0
      vertex 7.1581 5.96746 0
    endloop
  endfacet
  facet normal 0 0 -1
    outer loop
      vertex 4.93853 0.608963 0
      vertex 7.1581 5.96746 0
      vertex 5.67772 0.344477 0
    endloop
  endfacet
  facet normal -0 0 -1
    outer loop
      vertex 7.1581 5.96746 0
      vertex 4.93853 0.608963 0
      vertex 6.96293 6.05977 0
    endloop
  endfacet
  facet normal 0 0 -1
    outer loop
      vertex 4.22883 0.94463 0
      vertex 6.96293 6.05977 0
      vertex 4.93853 0.608963 0
    endloop
  endfacet
  facet normal -0 0 -1
    outer loop
      vertex 6.96293 6.05977 0
      vertex 4.22883 0.94463 0
      vertex 6.77775 6.17077 0
    endloop
  endfacet
  facet normal 0 0 -1
    outer loop
      vertex 3.55544 1.34824 0
      vertex 6.77775 6.17077 0
      vertex 4.22883 0.94463 0
    endloop
  endfacet
  facet normal -0 0 -1
    outer loop
      vertex 6.77775 6.17077 0
      vertex 3.55544 1.34824 0
      vertex 6.60433 6.29938 0
    endloop
  endfacet
  facet normal 0 0 -1
    outer loop
      vertex 2.92485 1.81592 0
      vertex 6.60433 6.29938 0
      vertex 3.55544 1.34824 0
    endloop
  endfacet
  facet normal -0 0 -1
    outer loop
      vertex 6.60433 6.29938 0
      vertex 2.92485 1.81592 0
      vertex 6.44436 6.44436 0
    endloop
  endfacet
  facet normal 0 0 -1
    outer loop
      vertex 2.34315 2.34315 0
      vertex 6.44436 6.44436 0
      vertex 2.92485 1.81592 0
    endloop
  endfacet
  facet normal -0 0 -1
    outer loop
      vertex 6.44436 6.44436 0
      vertex 2.34315 2.34315 0
      vertex 6.29938 6.60433 0
    endloop
  endfacet
  facet normal -0 0 -1
    outer loop
      vertex 6.29938 6.60433 0
      vertex 1.81592 2.92485 0
      vertex 6.17077 6.77775 0
    endloop
  endfacet
  facet normal 0 0 -1
    outer loop
      vertex 1.81592 2.92485 0
      vertex 6.29938 6.60433 0
      vertex 2.34315 2.34315 0
    endloop
  endfacet
  facet normal 0 0 -1
    outer loop
      vertex 10.1894 8.21564 0
      vertex 36 16 0
      vertex 10.2 8 0
    endloop
  endfacet
  facet normal 0 0 -1
    outer loop
      vertex 10.1577 8.4292 0
      vertex 36 16 0
      vertex 10.1894 8.21564 0
    endloop
  endfacet
  facet normal 0 0 -1
    outer loop
      vertex 10.1053 8.63863 0
      vertex 36 16 0
      vertex 10.1577 8.4292 0
    endloop
  endfacet
  facet normal 0 0 -1
    outer loop
      vertex 10.0325 8.8419 0
      vertex 36 16 0
      vertex 10.1053 8.63863 0
    endloop
  endfacet
  facet normal 0 0 -1
    outer loop
      vertex 9.94023 9.03707 0
      vertex 36 16 0
      vertex 10.0325 8.8419 0
    endloop
  endfacet
  facet normal 0 0 -1
    outer loop
      vertex 8 16 0
      vertex 9.94023 9.03707 0
      vertex 9.82923 9.22225 0
    endloop
  endfacet
  facet normal 0 0 -1
    outer loop
      vertex 8 16 0
      vertex 9.82923 9.22225 0
      vertex 9.70062 9.39567 0
    endloop
  endfacet
  facet normal 0 0 -1
    outer loop
      vertex 8 16 0
      vertex 9.70062 9.39567 0
      vertex 9.55563 9.55563 0
    endloop
  endfacet
  facet normal 0 0 -1
    outer loop
      vertex 8 16 0
      vertex 9.55563 9.55563 0
      vertex 9.39567 9.70062 0
    endloop
  endfacet
  facet normal 0 0 -1
    outer loop
      vertex 8 16 0
      vertex 9.39567 9.70062 0
      vertex 9.22225 9.82923 0
    endloop
  endfacet
  facet normal 0 0 -1
    outer loop
      vertex 8 16 0
      vertex 9.22225 9.82923 0
      vertex 9.03707 9.94023 0
    endloop
  endfacet
  facet normal 0 0 -1
    outer loop
      vertex 8 16 0
      vertex 9.03707 9.94023 0
      vertex 8.8419 10.0325 0
    endloop
  endfacet
  facet normal 0 0 -1
    outer loop
      vertex 8 16 0
      vertex 8.8419 10.0325 0
      vertex 8.63863 10.1053 0
    endloop
  endfacet
  facet normal 0 0 -1
    outer loop
      vertex 8 16 0
      vertex 8.63863 10.1053 0
      vertex 8.4292 10.1577 0
    endloop
  endfacet
  facet normal 0 0 -1
    outer loop
      vertex 8 16 0
      vertex 8.4292 10.1577 0
      vertex 8.21564 10.1894 0
    endloop
  endfacet
  facet normal 0 0 -1
    outer loop
      vertex 8 16 0
      vertex 8.21564 10.1894 0
      vertex 8 10.2 0
    endloop
  endfacet
  facet normal 0 0 -1
    outer loop
      vertex 9.94023 9.03707 0
      vertex 8 16 0
      vertex 36 16 0
    endloop
  endfacet
  facet normal 0 0 -1
    outer loop
      vertex 7.78436 10.1894 0
      vertex 8 16 0
      vertex 8 10.2 0
    endloop
  endfacet
  facet normal 0 0 -1
    outer loop
      vertex 7.21586 15.9615 0
      vertex 7.78436 10.1894 0
      vertex 7.5708 10.1577 0
    endloop
  endfacet
  facet normal 0 0 -1
    outer loop
      vertex 6.43928 15.8463 0
      vertex 7.5708 10.1577 0
      vertex 7.36137 10.1053 0
    endloop
  endfacet
  facet normal 0 0 -1
    outer loop
      vertex 7.78436 10.1894 0
      vertex 7.21586 15.9615 0
      vertex 8 16 0
    endloop
  endfacet
  facet normal 0 0 -1
    outer loop
      vertex 5.67772 15.6555 0
      vertex 7.36137 10.1053 0
      vertex 7.1581 10.0325 0
    endloop
  endfacet
  facet normal 0 0 -1
    outer loop
      vertex 4.93853 15.391 0
      vertex 7.1581 10.0325 0
      vertex 6.96293 9.94023 0
    endloop
  endfacet
  facet normal 0 0 -1
    outer loop
      vertex 4.22883 15.0554 0
      vertex 6.96293 9.94023 0
      vertex 6.77775 9.82923 0
    endloop
  endfacet
  facet normal 0 0 -1
    outer loop
      vertex 3.55544 14.6518 0
      vertex 6.77775 9.82923 0
      vertex 6.60433 9.70062 0
    endloop
  endfacet
  facet normal 0 0 -1
    outer loop
      vertex 2.92485 14.1841 0
      vertex 6.60433 9.70062 0
      vertex 6.44436 9.55563 0
    endloop
  endfacet
  facet normal 0 0 -1
    outer loop
      vertex 7.5708 10.1577 0
      vertex 6.43928 15.8463 0
      vertex 7.21586 15.9615 0
    endloop
  endfacet
  facet normal 0 0 -1
    outer loop
      vertex 2.34315 13.6569 0
      vertex 6.44436 9.55563 0
      vertex 6.29938 9.39567 0
    endloop
  endfacet
  facet normal 0 0 -1
    outer loop
      vertex 1.81592 13.0751 0
      vertex 6.29938 9.39567 0
      vertex 6.17077 9.22225 0
    endloop
  endfacet
  facet normal 0 0 -1
    outer loop
      vertex 1.34824 12.4446 0
      vertex 6.17077 9.22225 0
      vertex 6.05977 9.03707 0
    endloop
  endfacet
  facet normal 0 0 -1
    outer loop
      vertex 0.94463 11.7712 0
      vertex 6.05977 9.03707 0
      vertex 5.96746 8.8419 0
    endloop
  endfacet
  facet normal 0 0 -1
    outer loop
      vertex 0.608963 11.0615 0
      vertex 5.96746 8.8419 0
      vertex 5.89473 8.63863 0
    endloop
  endfacet
  facet normal 0 0 -1
    outer loop
      vertex 0.344477 10.3223 0
      vertex 5.89473 8.63863 0
      vertex 5.84227 8.4292 0
    endloop
  endfacet
  facet normal 0 0 -1
    outer loop
      vertex 0.153717 9.56072 0
      vertex 5.84227 8.4292 0
      vertex 5.81059 8.21564 0
    endloop
  endfacet
  facet normal 0 0 -1
    outer loop
      vertex 7.36137 10.1053 0
      vertex 5.67772 15.6555 0
      vertex 6.43928 15.8463 0
    endloop
  endfacet
  facet normal 0 0 -1
    outer loop
      vertex 0.0385218 8.78414 0
      vertex 5.81059 8.21564 0
      vertex 5.8 8 0
    endloop
  endfacet
  facet normal 0 0 -1
    outer loop
      vertex 1.34824 3.55544 0
      vertex 6.17077 6.77775 0
      vertex 1.81592 2.92485 0
    endloop
  endfacet
  facet normal -0 0 -1
    outer loop
      vertex 6.17077 6.77775 0
      vertex 1.34824 3.55544 0
      vertex 6.05977 6.96293 0
    endloop
  endfacet
  facet normal 0 0 -1
    outer loop
      vertex 7.1581 10.0325 0
      vertex 4.93853 15.391 0
      vertex 5.67772 15.6555 0
    endloop
  endfacet
  facet normal 0 0 -1
    outer loop
      vertex 0.94463 4.22883 0
      vertex 6.05977 6.96293 0
      vertex 1.34824 3.55544 0
    endloop
  endfacet
  facet normal 0 0 -1
    outer loop
      vertex 6.96293 9.94023 0
      vertex 4.22883 15.0554 0
      vertex 4.93853 15.391 0
    endloop
  endfacet
  facet normal -0 0 -1
    outer loop
      vertex 6.05977 6.96293 0
      vertex 0.94463 4.22883 0
      vertex 5.96746 7.1581 0
    endloop
  endfacet
  facet normal 0 0 -1
    outer loop
      vertex 6.77775 9.82923 0
      vertex 3.55544 14.6518 0
      vertex 4.22883 15.0554 0
    endloop
  endfacet
  facet normal 0 0 -1
    outer loop
      vertex 0.608963 4.93853 0
      vertex 5.96746 7.1581 0
      vertex 0.94463 4.22883 0
    endloop
  endfacet
  facet normal 0 0 -1
    outer loop
      vertex 6.60433 9.70062 0
      vertex 2.92485 14.1841 0
      vertex 3.55544 14.6518 0
    endloop
  endfacet
  facet normal -0 0 -1
    outer loop
      vertex 5.96746 7.1581 0
      vertex 0.608963 4.93853 0
      vertex 5.89473 7.36137 0
    endloop
  endfacet
  facet normal 0 0 -1
    outer loop
      vertex 6.44436 9.55563 0
      vertex 2.34315 13.6569 0
      vertex 2.92485 14.1841 0
    endloop
  endfacet
  facet normal 0 0 -1
    outer loop
      vertex 0.344477 5.67772 0
      vertex 5.89473 7.36137 0
      vertex 0.608963 4.93853 0
    endloop
  endfacet
  facet normal 0 0 -1
    outer loop
      vertex 6.29938 9.39567 0
      vertex 1.81592 13.0751 0
      vertex 2.34315 13.6569 0
    endloop
  endfacet
  facet normal -0 0 -1
    outer loop
      vertex 5.89473 7.36137 0
      vertex 0.344477 5.67772 0
      vertex 5.84227 7.5708 0
    endloop
  endfacet
  facet normal 0 0 -1
    outer loop
      vertex 6.17077 9.22225 0
      vertex 1.34824 12.4446 0
      vertex 1.81592 13.0751 0
    endloop
  endfacet
  facet normal 0 0 -1
    outer loop
      vertex 0.153717 6.43928 0
      vertex 5.84227 7.5708 0
      vertex 0.344477 5.67772 0
    endloop
  endfacet
  facet normal 0 0 -1
    outer loop
      vertex 6.05977 9.03707 0
      vertex 0.94463 11.7712 0
      vertex 1.34824 12.4446 0
    endloop
  endfacet
  facet normal -0 0 -1
    outer loop
      vertex 5.84227 7.5708 0
      vertex 0.153717 6.43928 0
      vertex 5.81059 7.78436 0
    endloop
  endfacet
  facet normal 0 0 -1
    outer loop
      vertex 5.96746 8.8419 0
      vertex 0.608963 11.0615 0
      vertex 0.94463 11.7712 0
    endloop
  endfacet
  facet normal 0 0 -1
    outer loop
      vertex 0.0385218 7.21586 0
      vertex 5.81059 7.78436 0
      vertex 0.153717 6.43928 0
    endloop
  endfacet
  facet normal 0 0 -1
    outer loop
      vertex 5.89473 8.63863 0
      vertex 0.344477 10.3223 0
      vertex 0.608963 11.0615 0
    endloop
  endfacet
  facet normal -0 0 -1
    outer loop
      vertex 5.81059 7.78436 0
      vertex 0.0385218 7.21586 0
      vertex 5.8 8 0
    endloop
  endfacet
  facet normal 0 0 -1
    outer loop
      vertex 5.84227 8.4292 0
      vertex 0.153717 9.56072 0
      vertex 0.344477 10.3223 0
    endloop
  endfacet
  facet normal 0 0 -1
    outer loop
      vertex 0 8 0
      vertex 5.8 8 0
      vertex 0.0385218 7.21586 0
    endloop
  endfacet
  facet normal 0 0 -1
    outer loop
      vertex 5.81059 8.21564 0
      vertex 0.0385218 8.78414 0
      vertex 0.153717 9.56072 0
    endloop
  endfacet
  facet normal 0 0 -1
    outer loop
      vertex 5.8 8 0
      vertex 0 8 0
      vertex 0.0385218 8.78414 0
    endloop
  endfacet
  facet normal -0.903987 0.427559 0
    outer loop
      vertex 0.608963 11.0615 0
      vertex 0.94463 11.7712 5
      vertex 0.94463 11.7712 0
    endloop
  endfacet
  facet normal -0.903987 0.427559 0
    outer loop
      vertex 0.94463 11.7712 5
      vertex 0.608963 11.0615 0
      vertex 0.608963 11.0615 5
    endloop
  endfacet
  facet normal -0.595701 -0.803206 0
    outer loop
      vertex 2.92485 1.81592 0
      vertex 3.55544 1.34824 5
      vertex 2.92485 1.81592 5
    endloop
  endfacet
  facet normal -0.595701 -0.803206 -0
    outer loop
      vertex 3.55544 1.34824 5
      vertex 2.92485 1.81592 0
      vertex 3.55544 1.34824 0
    endloop
  endfacet
  facet normal 0.0490695 -0.998795 0
    outer loop
      vertex 36 0 0
      vertex 36.7841 0.0385218 5
      vertex 36 0 5
    endloop
  endfacet
  facet normal 0.0490695 -0.998795 0
    outer loop
      vertex 36.7841 0.0385218 5
      vertex 36 0 0
      vertex 36.7841 0.0385218 0
    endloop
  endfacet
  facet normal 0.595756 -0.803165 0
    outer loop
      vertex 40.4446 1.34824 0
      vertex 41.0751 1.81592 5
      vertex 40.4446 1.34824 5
    endloop
  endfacet
  facet normal 0.595756 -0.803165 0
    outer loop
      vertex 41.0751 1.81592 5
      vertex 40.4446 1.34824 0
      vertex 41.0751 1.81592 0
    endloop
  endfacet
  facet normal 0.85774 0.514084 0
    outer loop
      vertex 43.0554 11.7712 5
      vertex 42.6518 12.4446 0
      vertex 42.6518 12.4446 5
    endloop
  endfacet
  facet normal 0.85774 0.514084 0
    outer loop
      vertex 42.6518 12.4446 0
      vertex 43.0554 11.7712 5
      vertex 43.0554 11.7712 0
    endloop
  endfacet
  facet normal 0.671501 -0.741004 0
    outer loop
      vertex 41.0751 1.81592 0
      vertex 41.6569 2.34315 5
      vertex 41.0751 1.81592 5
    endloop
  endfacet
  facet normal 0.671501 -0.741004 0
    outer loop
      vertex 41.6569 2.34315 5
      vertex 41.0751 1.81592 0
      vertex 41.6569 2.34315 0
    endloop
  endfacet
  facet normal -0.514089 0.857737 0
    outer loop
      vertex 4.22883 15.0554 0
      vertex 3.55544 14.6518 5
      vertex 4.22883 15.0554 5
    endloop
  endfacet
  facet normal -0.514089 0.857737 0
    outer loop
      vertex 3.55544 14.6518 5
      vertex 4.22883 15.0554 0
      vertex 3.55544 14.6518 0
    endloop
  endfacet
  facet normal -0.857734 0.514093 0
    outer loop
      vertex 0.94463 11.7712 0
      vertex 1.34824 12.4446 5
      vertex 1.34824 12.4446 0
    endloop
  endfacet
  facet normal -0.857734 0.514093 0
    outer loop
      vertex 1.34824 12.4446 5
      vertex 0.94463 11.7712 0
      vertex 0.94463 11.7712 5
    endloop
  endfacet
  facet normal 0.336885 -0.941546 0
    outer loop
      vertex 38.3223 0.344477 0
      vertex 39.0615 0.608963 5
      vertex 38.3223 0.344477 5
    endloop
  endfacet
  facet normal 0.336885 -0.941546 0
    outer loop
      vertex 39.0615 0.608963 5
      vertex 38.3223 0.344477 0
      vertex 39.0615 0.608963 0
    endloop
  endfacet
  facet normal 0.998797 -0.0490393 0
    outer loop
      vertex 43.9615 7.21586 5
      vertex 44 8 0
      vertex 44 8 5
    endloop
  endfacet
  facet normal 0.998797 -0.0490393 0
    outer loop
      vertex 44 8 0
      vertex 43.9615 7.21586 5
      vertex 43.9615 7.21586 0
    endloop
  endfacet
  facet normal -0.671543 0.740965 0
    outer loop
      vertex 2.92485 14.1841 0
      vertex 2.34315 13.6569 5
      vertex 2.92485 14.1841 5
    endloop
  endfacet
  facet normal -0.671543 0.740965 0
    outer loop
      vertex 2.34315 13.6569 5
      vertex 2.92485 14.1841 0
      vertex 2.34315 13.6569 0
    endloop
  endfacet
  facet normal -0.242979 -0.970032 0
    outer loop
      vertex 5.67772 0.344477 0
      vertex 6.43928 0.153717 5
      vertex 5.67772 0.344477 5
    endloop
  endfacet
  facet normal -0.242979 -0.970032 -0
    outer loop
      vertex 6.43928 0.153717 5
      vertex 5.67772 0.344477 0
      vertex 6.43928 0.153717 0
    endloop
  endfacet
  facet normal 0.336901 0.94154 -0
    outer loop
      vertex 39.0615 15.391 0
      vertex 38.3223 15.6555 5
      vertex 39.0615 15.391 5
    endloop
  endfacet
  facet normal 0.336901 0.94154 0
    outer loop
      vertex 38.3223 15.6555 5
      vertex 39.0615 15.391 0
      vertex 38.3223 15.6555 0
    endloop
  endfacet
  facet normal 0.514084 0.85774 -0
    outer loop
      vertex 40.4446 14.6518 0
      vertex 39.7712 15.0554 5
      vertex 40.4446 14.6518 5
    endloop
  endfacet
  facet normal 0.514084 0.85774 0
    outer loop
      vertex 39.7712 15.0554 5
      vertex 40.4446 14.6518 0
      vertex 39.7712 15.0554 0
    endloop
  endfacet
  facet normal -0.970032 -0.242979 0
    outer loop
      vertex 0.344477 5.67772 0
      vertex 0.153717 6.43928 5
      vertex 0.153717 6.43928 0
    endloop
  endfacet
  facet normal -0.970032 -0.242979 0
    outer loop
      vertex 0.153717 6.43928 5
      vertex 0.344477 5.67772 0
      vertex 0.344477 5.67772 5
    endloop
  endfacet
  facet normal 0.243015 0.970023 -0
    outer loop
      vertex 38.3223 15.6555 0
      vertex 37.5607 15.8463 5
      vertex 38.3223 15.6555 5
    endloop
  endfacet
  facet normal 0.243015 0.970023 0
    outer loop
      vertex 37.5607 15.8463 5
      vertex 38.3223 15.6555 0
      vertex 37.5607 15.8463 0
    endloop
  endfacet
  facet normal 0.90402 0.427489 0
    outer loop
      vertex 43.391 11.0615 5
      vertex 43.0554 11.7712 0
      vertex 43.0554 11.7712 5
    endloop
  endfacet
  facet normal 0.90402 0.427489 0
    outer loop
      vertex 43.0554 11.7712 0
      vertex 43.391 11.0615 5
      vertex 43.391 11.0615 0
    endloop
  endfacet
  facet normal 0.803153 0.595773 0
    outer loop
      vertex 42.6518 12.4446 5
      vertex 42.1841 13.0751 0
      vertex 42.1841 13.0751 5
    endloop
  endfacet
  facet normal 0.803153 0.595773 0
    outer loop
      vertex 42.1841 13.0751 0
      vertex 42.6518 12.4446 5
      vertex 42.6518 12.4446 0
    endloop
  endfacet
  facet normal -0.903987 -0.427559 0
    outer loop
      vertex 0.94463 4.22883 0
      vertex 0.608963 4.93853 5
      vertex 0.608963 4.93853 0
    endloop
  endfacet
  facet normal -0.903987 -0.427559 0
    outer loop
      vertex 0.608963 4.93853 5
      vertex 0.94463 4.22883 0
      vertex 0.94463 4.22883 5
    endloop
  endfacet
  facet normal -0.740946 -0.671564 0
    outer loop
      vertex 2.34315 2.34315 0
      vertex 1.81592 2.92485 5
      vertex 1.81592 2.92485 0
    endloop
  endfacet
  facet normal -0.740946 -0.671564 0
    outer loop
      vertex 1.81592 2.92485 5
      vertex 2.34315 2.34315 0
      vertex 2.34315 2.34315 5
    endloop
  endfacet
  facet normal -0.941544 -0.336889 0
    outer loop
      vertex 0.608963 4.93853 0
      vertex 0.344477 5.67772 5
      vertex 0.344477 5.67772 0
    endloop
  endfacet
  facet normal -0.941544 -0.336889 0
    outer loop
      vertex 0.344477 5.67772 5
      vertex 0.608963 4.93853 0
      vertex 0.608963 4.93853 5
    endloop
  endfacet
  facet normal -0.427559 -0.903987 0
    outer loop
      vertex 4.22883 0.94463 0
      vertex 4.93853 0.608963 5
      vertex 4.22883 0.94463 5
    endloop
  endfacet
  facet normal -0.427559 -0.903987 -0
    outer loop
      vertex 4.93853 0.608963 5
      vertex 4.22883 0.94463 0
      vertex 4.93853 0.608963 0
    endloop
  endfacet
  facet normal -0.857731 -0.514099 0
    outer loop
      vertex 1.34824 3.55544 0
      vertex 0.94463 4.22883 5
      vertex 0.94463 4.22883 0
    endloop
  endfacet
  facet normal -0.857731 -0.514099 0
    outer loop
      vertex 0.94463 4.22883 5
      vertex 1.34824 3.55544 0
      vertex 1.34824 3.55544 5
    endloop
  endfacet
  facet normal 0.146727 -0.989177 0
    outer loop
      vertex 36.7841 0.0385218 0
      vertex 37.5607 0.153717 5
      vertex 36.7841 0.0385218 5
    endloop
  endfacet
  facet normal 0.146727 -0.989177 0
    outer loop
      vertex 37.5607 0.153717 5
      vertex 36.7841 0.0385218 0
      vertex 37.5607 0.153717 0
    endloop
  endfacet
  facet normal 1 -0 0
    outer loop
      vertex 42 3 6.2
      vertex 42 13 5
      vertex 42 13 6.2
    endloop
  endfacet
  facet normal 1 0 0
    outer loop
      vertex 42 13 5
      vertex 42 3 6.2
      vertex 42 3 5
    endloop
  endfacet
  facet normal -0 0 1
    outer loop
      vertex 34 13 6.2
      vertex 42 3 6.2
      vertex 42 13 6.2
    endloop
  endfacet
  facet normal 0 0 1
    outer loop
      vertex 42 3 6.2
      vertex 34 13 6.2
      vertex 34 3 6.2
    endloop
  endfacet
  facet normal -1 0 0
    outer loop
      vertex 34 3 5
      vertex 34 13 6.2
      vertex 34 13 5
    endloop
  endfacet
  facet normal -1 -0 0
    outer loop
      vertex 34 13 6.2
      vertex 34 3 5
      vertex 34 3 6.2
    endloop
  endfacet
  facet normal 0 1 -0
    outer loop
      vertex 42 13 5
      vertex 34 13 6.2
      vertex 42 13 6.2
    endloop
  endfacet
  facet normal 0 1 0
    outer loop
      vertex 34 13 6.2
      vertex 42 13 5
      vertex 34 13 5
    endloop
  endfacet
  facet normal 0 -1 0
    outer loop
      vertex 34 3 5
      vertex 42 3 6.2
      vertex 34 3 6.2
    endloop
  endfacet
  facet normal 0 -1 -0
    outer loop
      vertex 42 3 6.2
      vertex 34 3 5
      vertex 42 3 5
    endloop
  endfacet
  facet normal 0.336885 0.941546 -0
    outer loop
      vertex 7.36137 5.89473 0
      vertex 7.1581 5.96746 5
      vertex 7.36137 5.89473 5
    endloop
  endfacet
  facet normal 0.336885 0.941546 0
    outer loop
      vertex 7.1581 5.96746 5
      vertex 7.36137 5.89473 0
      vertex 7.1581 5.96746 0
    endloop
  endfacet
  facet normal -0.989162 -0.146827 0
    outer loop
      vertex 10.1894 8.21564 0
      vertex 10.1577 8.4292 5
      vertex 10.1577 8.4292 0
    endloop
  endfacet
  facet normal -0.989162 -0.146827 0
    outer loop
      vertex 10.1577 8.4292 5
      vertex 10.1894 8.21564 0
      vertex 10.1894 8.21564 5
    endloop
  endfacet
  facet normal -0.998794 -0.0490967 0
    outer loop
      vertex 10.2 8 0
      vertex 10.1894 8.21564 5
      vertex 10.1894 8.21564 0
    endloop
  endfacet
  facet normal -0.998794 -0.0490967 0
    outer loop
      vertex 10.1894 8.21564 5
      vertex 10.2 8 0
      vertex 10.2 8 5
    endloop
  endfacet
  facet normal -0.970096 -0.242721 0
    outer loop
      vertex 10.1577 8.4292 0
      vertex 10.1053 8.63863 5
      vertex 10.1053 8.63863 0
    endloop
  endfacet
  facet normal -0.970096 -0.242721 0
    outer loop
      vertex 10.1053 8.63863 5
      vertex 10.1577 8.4292 0
      vertex 10.1577 8.4292 5
    endloop
  endfacet
  facet normal 0.989176 -0.146737 0
    outer loop
      vertex 5.81059 8.21564 5
      vertex 5.84227 8.4292 0
      vertex 5.84227 8.4292 5
    endloop
  endfacet
  facet normal 0.989176 -0.146737 0
    outer loop
      vertex 5.84227 8.4292 0
      vertex 5.81059 8.21564 5
      vertex 5.81059 8.21564 0
    endloop
  endfacet
  facet normal 0.242982 0.970031 -0
    outer loop
      vertex 7.5708 5.84227 0
      vertex 7.36137 5.89473 5
      vertex 7.5708 5.84227 5
    endloop
  endfacet
  facet normal 0.242982 0.970031 0
    outer loop
      vertex 7.36137 5.89473 5
      vertex 7.5708 5.84227 0
      vertex 7.36137 5.89473 0
    endloop
  endfacet
  facet normal -0.337172 -0.941443 0
    outer loop
      vertex 8.63863 10.1053 0
      vertex 8.8419 10.0325 5
      vertex 8.63863 10.1053 5
    endloop
  endfacet
  facet normal -0.337172 -0.941443 -0
    outer loop
      vertex 8.8419 10.0325 5
      vertex 8.63863 10.1053 0
      vertex 8.8419 10.0325 0
    endloop
  endfacet
  facet normal 0.514128 -0.857714 0
    outer loop
      vertex 6.77775 9.82923 0
      vertex 6.96293 9.94023 5
      vertex 6.77775 9.82923 5
    endloop
  endfacet
  facet normal 0.514128 -0.857714 0
    outer loop
      vertex 6.96293 9.94023 5
      vertex 6.77775 9.82923 0
      vertex 6.96293 9.94023 0
    endloop
  endfacet
  facet normal 0.903987 0.427561 0
    outer loop
      vertex 6.05977 6.96293 5
      vertex 5.96746 7.1581 0
      vertex 5.96746 7.1581 5
    endloop
  endfacet
  facet normal 0.903987 0.427561 0
    outer loop
      vertex 5.96746 7.1581 0
      vertex 6.05977 6.96293 5
      vertex 6.05977 6.96293 0
    endloop
  endfacet
  facet normal 0.242721 -0.970096 0
    outer loop
      vertex 7.36137 10.1053 0
      vertex 7.5708 10.1577 5
      vertex 7.36137 10.1053 5
    endloop
  endfacet
  facet normal 0.242721 -0.970096 0
    outer loop
      vertex 7.5708 10.1577 5
      vertex 7.36137 10.1053 0
      vertex 7.5708 10.1577 0
    endloop
  endfacet
  facet normal 0.857714 0.514128 0
    outer loop
      vertex 6.17077 6.77775 5
      vertex 6.05977 6.96293 0
      vertex 6.05977 6.96293 5
    endloop
  endfacet
  facet normal 0.857714 0.514128 0
    outer loop
      vertex 6.05977 6.96293 0
      vertex 6.17077 6.77775 5
      vertex 6.17077 6.77775 0
    endloop
  endfacet
  facet normal -0.242982 0.970031 0
    outer loop
      vertex 8.63863 5.89473 0
      vertex 8.4292 5.84227 5
      vertex 8.63863 5.89473 5
    endloop
  endfacet
  facet normal -0.242982 0.970031 0
    outer loop
      vertex 8.4292 5.84227 5
      vertex 8.63863 5.89473 0
      vertex 8.4292 5.84227 0
    endloop
  endfacet
  facet normal 0.595678 0.803223 -0
    outer loop
      vertex 6.77775 6.17077 0
      vertex 6.60433 6.29938 5
      vertex 6.77775 6.17077 5
    endloop
  endfacet
  facet normal 0.595678 0.803223 0
    outer loop
      vertex 6.60433 6.29938 5
      vertex 6.77775 6.17077 0
      vertex 6.60433 6.29938 0
    endloop
  endfacet
  facet normal -0.514128 0.857714 0
    outer loop
      vertex 9.22225 6.17077 0
      vertex 9.03707 6.05977 5
      vertex 9.22225 6.17077 5
    endloop
  endfacet
  facet normal -0.514128 0.857714 0
    outer loop
      vertex 9.03707 6.05977 5
      vertex 9.22225 6.17077 0
      vertex 9.03707 6.05977 0
    endloop
  endfacet
  facet normal -0.803223 0.595678 0
    outer loop
      vertex 9.70062 6.60433 0
      vertex 9.82923 6.77775 5
      vertex 9.82923 6.77775 0
    endloop
  endfacet
  facet normal -0.803223 0.595678 0
    outer loop
      vertex 9.82923 6.77775 5
      vertex 9.70062 6.60433 0
      vertex 9.70062 6.60433 5
    endloop
  endfacet
  facet normal -0.146827 -0.989162 0
    outer loop
      vertex 8.21564 10.1894 0
      vertex 8.4292 10.1577 5
      vertex 8.21564 10.1894 5
    endloop
  endfacet
  facet normal -0.146827 -0.989162 -0
    outer loop
      vertex 8.4292 10.1577 5
      vertex 8.21564 10.1894 0
      vertex 8.4292 10.1577 0
    endloop
  endfacet
  facet normal 0.595678 -0.803223 0
    outer loop
      vertex 6.60433 9.70062 0
      vertex 6.77775 9.82923 5
      vertex 6.60433 9.70062 5
    endloop
  endfacet
  facet normal 0.595678 -0.803223 0
    outer loop
      vertex 6.77775 9.82923 5
      vertex 6.60433 9.70062 0
      vertex 6.77775 9.82923 0
    endloop
  endfacet
  facet normal -0.427561 0.903987 0
    outer loop
      vertex 9.03707 6.05977 0
      vertex 8.8419 5.96746 5
      vertex 9.03707 6.05977 5
    endloop
  endfacet
  facet normal -0.427561 0.903987 0
    outer loop
      vertex 8.8419 5.96746 5
      vertex 9.03707 6.05977 0
      vertex 8.8419 5.96746 0
    endloop
  endfacet
  facet normal 0.803223 -0.595678 0
    outer loop
      vertex 6.17077 9.22225 5
      vertex 6.29938 9.39567 0
      vertex 6.29938 9.39567 5
    endloop
  endfacet
  facet normal 0.803223 -0.595678 0
    outer loop
      vertex 6.29938 9.39567 0
      vertex 6.17077 9.22225 5
      vertex 6.17077 9.22225 0
    endloop
  endfacet
  facet normal -0.989162 0.146827 0
    outer loop
      vertex 10.1577 7.5708 0
      vertex 10.1894 7.78436 5
      vertex 10.1894 7.78436 0
    endloop
  endfacet
  facet normal -0.989162 0.146827 0
    outer loop
      vertex 10.1894 7.78436 5
      vertex 10.1577 7.5708 0
      vertex 10.1577 7.5708 5
    endloop
  endfacet
  facet normal 0.941546 -0.336885 0
    outer loop
      vertex 5.89473 8.63863 5
      vertex 5.96746 8.8419 0
      vertex 5.96746 8.8419 5
    endloop
  endfacet
  facet normal 0.941546 -0.336885 0
    outer loop
      vertex 5.96746 8.8419 0
      vertex 5.89473 8.63863 5
      vertex 5.89473 8.63863 0
    endloop
  endfacet
  facet normal -0.427409 -0.904058 0
    outer loop
      vertex 8.8419 10.0325 0
      vertex 9.03707 9.94023 5
      vertex 8.8419 10.0325 5
    endloop
  endfacet
  facet normal -0.427409 -0.904058 -0
    outer loop
      vertex 9.03707 9.94023 5
      vertex 8.8419 10.0325 0
      vertex 9.03707 9.94023 0
    endloop
  endfacet
  facet normal 0.941546 0.336885 0
    outer loop
      vertex 5.96746 7.1581 5
      vertex 5.89473 7.36137 0
      vertex 5.89473 7.36137 5
    endloop
  endfacet
  facet normal 0.941546 0.336885 0
    outer loop
      vertex 5.89473 7.36137 0
      vertex 5.96746 7.1581 5
      vertex 5.96746 7.1581 0
    endloop
  endfacet
  facet normal -0.970096 0.242721 0
    outer loop
      vertex 10.1053 7.36137 0
      vertex 10.1577 7.5708 5
      vertex 10.1577 7.5708 0
    endloop
  endfacet
  facet normal -0.970096 0.242721 0
    outer loop
      vertex 10.1577 7.5708 5
      vertex 10.1053 7.36137 0
      vertex 10.1053 7.36137 5
    endloop
  endfacet
  facet normal 0.0490967 -0.998794 0
    outer loop
      vertex 7.78436 10.1894 0
      vertex 8 10.2 5
      vertex 7.78436 10.1894 5
    endloop
  endfacet
  facet normal 0.0490967 -0.998794 0
    outer loop
      vertex 8 10.2 5
      vertex 7.78436 10.1894 0
      vertex 8 10.2 0
    endloop
  endfacet
  facet normal -0.671586 -0.740926 0
    outer loop
      vertex 9.39567 9.70062 0
      vertex 9.55563 9.55563 5
      vertex 9.39567 9.70062 5
    endloop
  endfacet
  facet normal -0.671586 -0.740926 -0
    outer loop
      vertex 9.55563 9.55563 5
      vertex 9.39567 9.70062 0
      vertex 9.55563 9.55563 0
    endloop
  endfacet
  facet normal 0.427409 -0.904058 0
    outer loop
      vertex 6.96293 9.94023 0
      vertex 7.1581 10.0325 5
      vertex 6.96293 9.94023 5
    endloop
  endfacet
  facet normal 0.427409 -0.904058 0
    outer loop
      vertex 7.1581 10.0325 5
      vertex 6.96293 9.94023 0
      vertex 7.1581 10.0325 0
    endloop
  endfacet
  facet normal 0.671563 -0.740947 0
    outer loop
      vertex 6.44436 9.55563 0
      vertex 6.60433 9.70062 5
      vertex 6.44436 9.55563 5
    endloop
  endfacet
  facet normal 0.671563 -0.740947 0
    outer loop
      vertex 6.60433 9.70062 5
      vertex 6.44436 9.55563 0
      vertex 6.60433 9.70062 0
    endloop
  endfacet
  facet normal -0.336885 0.941546 0
    outer loop
      vertex 8.8419 5.96746 0
      vertex 8.63863 5.89473 5
      vertex 8.8419 5.96746 5
    endloop
  endfacet
  facet normal -0.336885 0.941546 0
    outer loop
      vertex 8.63863 5.89473 5
      vertex 8.8419 5.96746 0
      vertex 8.63863 5.89473 0
    endloop
  endfacet
  facet normal 0.337172 -0.941443 0
    outer loop
      vertex 7.1581 10.0325 0
      vertex 7.36137 10.1053 5
      vertex 7.1581 10.0325 5
    endloop
  endfacet
  facet normal 0.337172 -0.941443 0
    outer loop
      vertex 7.36137 10.1053 5
      vertex 7.1581 10.0325 0
      vertex 7.36137 10.1053 0
    endloop
  endfacet
  facet normal -0.803223 -0.595678 0
    outer loop
      vertex 9.82923 9.22225 0
      vertex 9.70062 9.39567 5
      vertex 9.70062 9.39567 0
    endloop
  endfacet
  facet normal -0.803223 -0.595678 0
    outer loop
      vertex 9.70062 9.39567 5
      vertex 9.82923 9.22225 0
      vertex 9.82923 9.22225 5
    endloop
  endfacet
  facet normal 0.857714 -0.514128 0
    outer loop
      vertex 6.05977 9.03707 5
      vertex 6.17077 9.22225 0
      vertex 6.17077 9.22225 5
    endloop
  endfacet
  facet normal 0.857714 -0.514128 0
    outer loop
      vertex 6.17077 9.22225 0
      vertex 6.05977 9.03707 5
      vertex 6.05977 9.03707 0
    endloop
  endfacet
  facet normal -0.998794 0.0490967 0
    outer loop
      vertex 10.1894 7.78436 0
      vertex 10.2 8 5
      vertex 10.2 8 0
    endloop
  endfacet
  facet normal -0.998794 0.0490967 0
    outer loop
      vertex 10.2 8 5
      vertex 10.1894 7.78436 0
      vertex 10.1894 7.78436 5
    endloop
  endfacet
  facet normal -0.904058 0.427409 0
    outer loop
      vertex 9.94023 6.96293 0
      vertex 10.0325 7.1581 5
      vertex 10.0325 7.1581 0
    endloop
  endfacet
  facet normal -0.904058 0.427409 0
    outer loop
      vertex 10.0325 7.1581 5
      vertex 9.94023 6.96293 0
      vertex 9.94023 6.96293 5
    endloop
  endfacet
  facet normal 0.671538 0.74097 -0
    outer loop
      vertex 6.60433 6.29938 0
      vertex 6.44436 6.44436 5
      vertex 6.60433 6.29938 5
    endloop
  endfacet
  facet normal 0.671538 0.74097 0
    outer loop
      vertex 6.44436 6.44436 5
      vertex 6.60433 6.29938 0
      vertex 6.44436 6.44436 0
    endloop
  endfacet
  facet normal -0.595678 -0.803223 0
    outer loop
      vertex 9.22225 9.82923 0
      vertex 9.39567 9.70062 5
      vertex 9.22225 9.82923 5
    endloop
  endfacet
  facet normal -0.595678 -0.803223 -0
    outer loop
      vertex 9.39567 9.70062 5
      vertex 9.22225 9.82923 0
      vertex 9.39567 9.70062 0
    endloop
  endfacet
  facet normal 0.514128 0.857714 -0
    outer loop
      vertex 6.96293 6.05977 0
      vertex 6.77775 6.17077 5
      vertex 6.96293 6.05977 5
    endloop
  endfacet
  facet normal 0.514128 0.857714 0
    outer loop
      vertex 6.77775 6.17077 5
      vertex 6.96293 6.05977 0
      vertex 6.77775 6.17077 0
    endloop
  endfacet
  facet normal -0.514128 -0.857714 0
    outer loop
      vertex 9.03707 9.94023 0
      vertex 9.22225 9.82923 5
      vertex 9.03707 9.94023 5
    endloop
  endfacet
  facet normal -0.514128 -0.857714 -0
    outer loop
      vertex 9.22225 9.82923 5
      vertex 9.03707 9.94023 0
      vertex 9.22225 9.82923 0
    endloop
  endfacet
  facet normal -0.146737 0.989176 0
    outer loop
      vertex 8.4292 5.84227 0
      vertex 8.21564 5.81059 5
      vertex 8.4292 5.84227 5
    endloop
  endfacet
  facet normal -0.146737 0.989176 0
    outer loop
      vertex 8.21564 5.81059 5
      vertex 8.4292 5.84227 0
      vertex 8.21564 5.81059 0
    endloop
  endfacet
  facet normal -0.941443 -0.337172 0
    outer loop
      vertex 10.1053 8.63863 0
      vertex 10.0325 8.8419 5
      vertex 10.0325 8.8419 0
    endloop
  endfacet
  facet normal -0.941443 -0.337172 0
    outer loop
      vertex 10.0325 8.8419 5
      vertex 10.1053 8.63863 0
      vertex 10.1053 8.63863 5
    endloop
  endfacet
  facet normal -0.857714 0.514128 0
    outer loop
      vertex 9.82923 6.77775 0
      vertex 9.94023 6.96293 5
      vertex 9.94023 6.96293 0
    endloop
  endfacet
  facet normal -0.857714 0.514128 0
    outer loop
      vertex 9.94023 6.96293 5
      vertex 9.82923 6.77775 0
      vertex 9.82923 6.77775 5
    endloop
  endfacet
  facet normal 0.998796 0.0490505 0
    outer loop
      vertex 5.81059 7.78436 5
      vertex 5.8 8 0
      vertex 5.8 8 5
    endloop
  endfacet
  facet normal 0.998796 0.0490505 0
    outer loop
      vertex 5.8 8 0
      vertex 5.81059 7.78436 5
      vertex 5.81059 7.78436 0
    endloop
  endfacet
  facet normal -0.941443 0.337172 0
    outer loop
      vertex 10.0325 7.1581 0
      vertex 10.1053 7.36137 5
      vertex 10.1053 7.36137 0
    endloop
  endfacet
  facet normal -0.941443 0.337172 0
    outer loop
      vertex 10.1053 7.36137 5
      vertex 10.0325 7.1581 0
      vertex 10.0325 7.1581 5
    endloop
  endfacet
  facet normal -0.740926 -0.671586 0
    outer loop
      vertex 9.70062 9.39567 0
      vertex 9.55563 9.55563 5
      vertex 9.55563 9.55563 0
    endloop
  endfacet
  facet normal -0.740926 -0.671586 0
    outer loop
      vertex 9.55563 9.55563 5
      vertex 9.70062 9.39567 0
      vertex 9.70062 9.39567 5
    endloop
  endfacet
  facet normal -0.0490967 -0.998794 0
    outer loop
      vertex 8 10.2 0
      vertex 8.21564 10.1894 5
      vertex 8 10.2 5
    endloop
  endfacet
  facet normal -0.0490967 -0.998794 -0
    outer loop
      vertex 8.21564 10.1894 5
      vertex 8 10.2 0
      vertex 8.21564 10.1894 0
    endloop
  endfacet
  facet normal -0.904058 -0.427409 0
    outer loop
      vertex 10.0325 8.8419 0
      vertex 9.94023 9.03707 5
      vertex 9.94023 9.03707 0
    endloop
  endfacet
  facet normal -0.904058 -0.427409 0
    outer loop
      vertex 9.94023 9.03707 5
      vertex 10.0325 8.8419 0
      vertex 10.0325 8.8419 5
    endloop
  endfacet
  facet normal 0.146737 0.989176 -0
    outer loop
      vertex 7.78436 5.81059 0
      vertex 7.5708 5.84227 5
      vertex 7.78436 5.81059 5
    endloop
  endfacet
  facet normal 0.146737 0.989176 0
    outer loop
      vertex 7.5708 5.84227 5
      vertex 7.78436 5.81059 0
      vertex 7.5708 5.84227 0
    endloop
  endfacet
  facet normal -0.671561 0.740949 0
    outer loop
      vertex 9.55563 6.44436 0
      vertex 9.39567 6.29938 5
      vertex 9.55563 6.44436 5
    endloop
  endfacet
  facet normal -0.671561 0.740949 0
    outer loop
      vertex 9.39567 6.29938 5
      vertex 9.55563 6.44436 0
      vertex 9.39567 6.29938 0
    endloop
  endfacet
  facet normal -0.857714 -0.514128 0
    outer loop
      vertex 9.94023 9.03707 0
      vertex 9.82923 9.22225 5
      vertex 9.82923 9.22225 0
    endloop
  endfacet
  facet normal -0.857714 -0.514128 0
    outer loop
      vertex 9.82923 9.22225 5
      vertex 9.94023 9.03707 0
      vertex 9.94023 9.03707 5
    endloop
  endfacet
  facet normal 0.0490505 0.998796 -0
    outer loop
      vertex 8 5.8 0
      vertex 7.78436 5.81059 5
      vertex 8 5.8 5
    endloop
  endfacet
  facet normal 0.0490505 0.998796 0
    outer loop
      vertex 7.78436 5.81059 5
      vertex 8 5.8 0
      vertex 7.78436 5.81059 0
    endloop
  endfacet
  facet normal 0.740949 -0.671561 0
    outer loop
      vertex 6.29938 9.39567 5
      vertex 6.44436 9.55563 0
      vertex 6.44436 9.55563 5
    endloop
  endfacet
  facet normal 0.740949 -0.671561 0
    outer loop
      vertex 6.44436 9.55563 0
      vertex 6.29938 9.39567 5
      vertex 6.29938 9.39567 0
    endloop
  endfacet
  facet normal 0.146827 -0.989162 0
    outer loop
      vertex 7.5708 10.1577 0
      vertex 7.78436 10.1894 5
      vertex 7.5708 10.1577 5
    endloop
  endfacet
  facet normal 0.146827 -0.989162 0
    outer loop
      vertex 7.78436 10.1894 5
      vertex 7.5708 10.1577 0
      vertex 7.78436 10.1894 0
    endloop
  endfacet
  facet normal 0.903987 -0.427561 0
    outer loop
      vertex 5.96746 8.8419 5
      vertex 6.05977 9.03707 0
      vertex 6.05977 9.03707 5
    endloop
  endfacet
  facet normal 0.903987 -0.427561 0
    outer loop
      vertex 6.05977 9.03707 0
      vertex 5.96746 8.8419 5
      vertex 5.96746 8.8419 0
    endloop
  endfacet
  facet normal 0.970031 -0.242982 0
    outer loop
      vertex 5.84227 8.4292 5
      vertex 5.89473 8.63863 0
      vertex 5.89473 8.63863 5
    endloop
  endfacet
  facet normal 0.970031 -0.242982 0
    outer loop
      vertex 5.89473 8.63863 0
      vertex 5.84227 8.4292 5
      vertex 5.84227 8.4292 0
    endloop
  endfacet
  facet normal -0.242721 -0.970096 0
    outer loop
      vertex 8.4292 10.1577 0
      vertex 8.63863 10.1053 5
      vertex 8.4292 10.1577 5
    endloop
  endfacet
  facet normal -0.242721 -0.970096 -0
    outer loop
      vertex 8.63863 10.1053 5
      vertex 8.4292 10.1577 0
      vertex 8.63863 10.1053 0
    endloop
  endfacet
  facet normal 0.970031 0.242982 0
    outer loop
      vertex 5.89473 7.36137 5
      vertex 5.84227 7.5708 0
      vertex 5.84227 7.5708 5
    endloop
  endfacet
  facet normal 0.970031 0.242982 0
    outer loop
      vertex 5.84227 7.5708 0
      vertex 5.89473 7.36137 5
      vertex 5.89473 7.36137 0
    endloop
  endfacet
  facet normal 0.427561 0.903987 -0
    outer loop
      vertex 7.1581 5.96746 0
      vertex 6.96293 6.05977 5
      vertex 7.1581 5.96746 5
    endloop
  endfacet
  facet normal 0.427561 0.903987 0
    outer loop
      vertex 6.96293 6.05977 5
      vertex 7.1581 5.96746 0
      vertex 6.96293 6.05977 0
    endloop
  endfacet
  facet normal 0.74097 0.671538 0
    outer loop
      vertex 6.44436 6.44436 5
      vertex 6.29938 6.60433 0
      vertex 6.29938 6.60433 5
    endloop
  endfacet
  facet normal 0.74097 0.671538 0
    outer loop
      vertex 6.29938 6.60433 0
      vertex 6.44436 6.44436 5
      vertex 6.44436 6.44436 0
    endloop
  endfacet
  facet normal -0.0490505 0.998796 0
    outer loop
      vertex 8.21564 5.81059 0
      vertex 8 5.8 5
      vertex 8.21564 5.81059 5
    endloop
  endfacet
  facet normal -0.0490505 0.998796 0
    outer loop
      vertex 8 5.8 5
      vertex 8.21564 5.81059 0
      vertex 8 5.8 0
    endloop
  endfacet
  facet normal 0.989176 0.146737 0
    outer loop
      vertex 5.84227 7.5708 5
      vertex 5.81059 7.78436 0
      vertex 5.81059 7.78436 5
    endloop
  endfacet
  facet normal 0.989176 0.146737 0
    outer loop
      vertex 5.81059 7.78436 0
      vertex 5.84227 7.5708 5
      vertex 5.84227 7.5708 0
    endloop
  endfacet
  facet normal -0.595678 0.803223 0
    outer loop
      vertex 9.39567 6.29938 0
      vertex 9.22225 6.17077 5
      vertex 9.39567 6.29938 5
    endloop
  endfacet
  facet normal -0.595678 0.803223 0
    outer loop
      vertex 9.22225 6.17077 5
      vertex 9.39567 6.29938 0
      vertex 9.22225 6.17077 0
    endloop
  endfacet
  facet normal 0.803223 0.595678 0
    outer loop
      vertex 6.29938 6.60433 5
      vertex 6.17077 6.77775 0
      vertex 6.17077 6.77775 5
    endloop
  endfacet
  facet normal 0.803223 0.595678 0
    outer loop
      vertex 6.17077 6.77775 0
      vertex 6.29938 6.60433 5
      vertex 6.29938 6.60433 0
    endloop
  endfacet
  facet normal 0.998796 -0.0490505 0
    outer loop
      vertex 5.8 8 5
      vertex 5.81059 8.21564 0
      vertex 5.81059 8.21564 5
    endloop
  endfacet
  facet normal 0.998796 -0.0490505 0
    outer loop
      vertex 5.81059 8.21564 0
      vertex 5.8 8 5
      vertex 5.8 8 0
    endloop
  endfacet
  facet normal -0.740947 0.671563 0
    outer loop
      vertex 9.55563 6.44436 0
      vertex 9.70062 6.60433 5
      vertex 9.70062 6.60433 0
    endloop
  endfacet
  facet normal -0.740947 0.671563 0
    outer loop
      vertex 9.70062 6.60433 5
      vertex 9.55563 6.44436 0
      vertex 9.55563 6.44436 5
    endloop
  endfacet
endsolid OpenSCAD_Model
