solid OpenSCAD_Model
  facet normal 0.740949 0.671562 0
    outer loop
      vertex 5.79758 4.75795 5
      vertex 5.3033 5.3033 0
      vertex 5.3033 5.3033 5
    endloop
  endfacet
  facet normal 0.740949 0.671562 0
    outer loop
      vertex 5.3033 5.3033 0
      vertex 5.79758 4.75795 5
      vertex 5.79758 4.75795 0
    endloop
  endfacet
  facet normal 0.989176 0.146735 0
    outer loop
      vertex 7.46389 0.735128 5
      vertex 7.35589 1.46318 0
      vertex 7.35589 1.46318 5
    endloop
  endfacet
  facet normal 0.989176 0.146735 0
    outer loop
      vertex 7.35589 1.46318 0
      vertex 7.46389 0.735128 5
      vertex 7.46389 0.735128 0
    endloop
  endfacet
  facet normal 0.998796 0.0490615 0
    outer loop
      vertex 7.5 0 5
      vertex 7.46389 0.735128 0
      vertex 7.46389 0.735128 5
    endloop
  endfacet
  facet normal 0.998796 0.0490615 0
    outer loop
      vertex 7.46389 0.735128 0
      vertex 7.5 0 5
      vertex 7.5 0 0
    endloop
  endfacet
  facet normal 0.97003 0.242986 0
    outer loop
      vertex 7.35589 1.46318 5
      vertex 7.17705 2.17713 0
      vertex 7.17705 2.17713 5
    endloop
  endfacet
  facet normal 0.97003 0.242986 0
    outer loop
      vertex 7.17705 2.17713 0
      vertex 7.35589 1.46318 5
      vertex 7.35589 1.46318 0
    endloop
  endfacet
  facet normal 0.336883 -0.941547 0
    outer loop
      vertex 2.17713 -7.17705 0
      vertex 2.87012 -6.9291 5
      vertex 2.17713 -7.17705 5
    endloop
  endfacet
  facet normal 0.336883 -0.941547 0
    outer loop
      vertex 2.87012 -6.9291 5
      vertex 2.17713 -7.17705 0
      vertex 2.87012 -6.9291 0
    endloop
  endfacet
  facet normal 0.85773 0.5141 0
    outer loop
      vertex 6.61441 3.53547 5
      vertex 6.23602 4.16678 0
      vertex 6.23602 4.16678 5
    endloop
  endfacet
  facet normal 0.85773 0.5141 0
    outer loop
      vertex 6.23602 4.16678 0
      vertex 6.61441 3.53547 5
      vertex 6.61441 3.53547 0
    endloop
  endfacet
  facet normal 0.941547 0.336883 0
    outer loop
      vertex 7.17705 2.17713 5
      vertex 6.9291 2.87012 0
      vertex 6.9291 2.87012 5
    endloop
  endfacet
  facet normal 0.941547 0.336883 0
    outer loop
      vertex 6.9291 2.87012 0
      vertex 7.17705 2.17713 5
      vertex 7.17705 2.17713 0
    endloop
  endfacet
  facet normal 0.242986 0.97003 -0
    outer loop
      vertex 2.17713 7.17705 0
      vertex 1.46318 7.35589 5
      vertex 2.17713 7.17705 5
    endloop
  endfacet
  facet normal 0.242986 0.97003 0
    outer loop
      vertex 1.46318 7.35589 5
      vertex 2.17713 7.17705 0
      vertex 1.46318 7.35589 0
    endloop
  endfacet
  facet normal -0.740949 0.671562 0
    outer loop
      vertex -5.79758 4.75795 0
      vertex -5.3033 5.3033 5
      vertex -5.3033 5.3033 0
    endloop
  endfacet
  facet normal -0.740949 0.671562 0
    outer loop
      vertex -5.3033 5.3033 5
      vertex -5.79758 4.75795 0
      vertex -5.79758 4.75795 5
    endloop
  endfacet
  facet normal 0.0490615 -0.998796 0
    outer loop
      vertex 0 -7.5 0
      vertex 0.735128 -7.46389 5
      vertex 0 -7.5 5
    endloop
  endfacet
  facet normal 0.0490615 -0.998796 0
    outer loop
      vertex 0.735128 -7.46389 5
      vertex 0 -7.5 0
      vertex 0.735128 -7.46389 0
    endloop
  endfacet
  facet normal 0.427558 0.903988 -0
    outer loop
      vertex 3.53547 6.61441 0
      vertex 2.87012 6.9291 5
      vertex 3.53547 6.61441 5
    endloop
  endfacet
  facet normal 0.427558 0.903988 0
    outer loop
      vertex 2.87012 6.9291 5
      vertex 3.53547 6.61441 0
      vertex 2.87012 6.9291 0
    endloop
  endfacet
  facet normal 0.671562 0.740949 -0
    outer loop
      vertex 5.3033 5.3033 0
      vertex 4.75795 5.79758 5
      vertex 5.3033 5.3033 5
    endloop
  endfacet
  facet normal 0.671562 0.740949 0
    outer loop
      vertex 4.75795 5.79758 5
      vertex 5.3033 5.3033 0
      vertex 4.75795 5.79758 0
    endloop
  endfacet
  facet normal -0.595698 -0.803209 0
    outer loop
      vertex -4.75795 -5.79758 0
      vertex -4.16678 -6.23602 5
      vertex -4.75795 -5.79758 5
    endloop
  endfacet
  facet normal -0.595698 -0.803209 -0
    outer loop
      vertex -4.16678 -6.23602 5
      vertex -4.75795 -5.79758 0
      vertex -4.16678 -6.23602 0
    endloop
  endfacet
  facet normal 0.242986 -0.97003 0
    outer loop
      vertex 1.46318 -7.35589 0
      vertex 2.17713 -7.17705 5
      vertex 1.46318 -7.35589 5
    endloop
  endfacet
  facet normal 0.242986 -0.97003 0
    outer loop
      vertex 2.17713 -7.17705 5
      vertex 1.46318 -7.35589 0
      vertex 2.17713 -7.17705 0
    endloop
  endfacet
  facet normal 0.989176 -0.146735 0
    outer loop
      vertex 7.35589 -1.46318 5
      vertex 7.46389 -0.735128 0
      vertex 7.46389 -0.735128 5
    endloop
  endfacet
  facet normal 0.989176 -0.146735 0
    outer loop
      vertex 7.46389 -0.735128 0
      vertex 7.35589 -1.46318 5
      vertex 7.35589 -1.46318 0
    endloop
  endfacet
  facet normal 0.5141 -0.85773 0
    outer loop
      vertex 3.53547 -6.61441 0
      vertex 4.16678 -6.23602 5
      vertex 3.53547 -6.61441 5
    endloop
  endfacet
  facet normal 0.5141 -0.85773 0
    outer loop
      vertex 4.16678 -6.23602 5
      vertex 3.53547 -6.61441 0
      vertex 4.16678 -6.23602 0
    endloop
  endfacet
  facet normal -0.242986 -0.97003 0
    outer loop
      vertex -2.17713 -7.17705 0
      vertex -1.46318 -7.35589 5
      vertex -2.17713 -7.17705 5
    endloop
  endfacet
  facet normal -0.242986 -0.97003 -0
    outer loop
      vertex -1.46318 -7.35589 5
      vertex -2.17713 -7.17705 0
      vertex -1.46318 -7.35589 0
    endloop
  endfacet
  facet normal -0.595698 0.803209 0
    outer loop
      vertex -4.16678 6.23602 0
      vertex -4.75795 5.79758 5
      vertex -4.16678 6.23602 5
    endloop
  endfacet
  facet normal -0.595698 0.803209 0
    outer loop
      vertex -4.75795 5.79758 5
      vertex -4.16678 6.23602 0
      vertex -4.75795 5.79758 0
    endloop
  endfacet
  facet normal -0.998796 -0.0490615 0
    outer loop
      vertex -7.46389 -0.735128 0
      vertex -7.5 0 5
      vertex -7.5 0 0
    endloop
  endfacet
  facet normal -0.998796 -0.0490615 0
    outer loop
      vertex -7.5 0 5
      vertex -7.46389 -0.735128 0
      vertex -7.46389 -0.735128 5
    endloop
  endfacet
  facet normal -0.97003 -0.242986 0
    outer loop
      vertex -7.17705 -2.17713 0
      vertex -7.35589 -1.46318 5
      vertex -7.35589 -1.46318 0
    endloop
  endfacet
  facet normal -0.97003 -0.242986 0
    outer loop
      vertex -7.35589 -1.46318 5
      vertex -7.17705 -2.17713 0
      vertex -7.17705 -2.17713 5
    endloop
  endfacet
  facet normal 0.97003 -0.242986 0
    outer loop
      vertex 7.17705 -2.17713 5
      vertex 7.35589 -1.46318 0
      vertex 7.35589 -1.46318 5
    endloop
  endfacet
  facet normal 0.97003 -0.242986 0
    outer loop
      vertex 7.35589 -1.46318 0
      vertex 7.17705 -2.17713 5
      vertex 7.17705 -2.17713 0
    endloop
  endfacet
  facet normal -0.5141 0.85773 0
    outer loop
      vertex -3.53547 6.61441 0
      vertex -4.16678 6.23602 5
      vertex -3.53547 6.61441 5
    endloop
  endfacet
  facet normal -0.5141 0.85773 0
    outer loop
      vertex -4.16678 6.23602 5
      vertex -3.53547 6.61441 0
      vertex -4.16678 6.23602 0
    endloop
  endfacet
  facet normal 0.595698 0.803209 -0
    outer loop
      vertex 4.75795 5.79758 0
      vertex 4.16678 6.23602 5
      vertex 4.75795 5.79758 5
    endloop
  endfacet
  facet normal 0.595698 0.803209 0
    outer loop
      vertex 4.16678 6.23602 5
      vertex 4.75795 5.79758 0
      vertex 4.16678 6.23602 0
    endloop
  endfacet
  facet normal -0.903988 -0.427558 0
    outer loop
      vertex -6.61441 -3.53547 0
      vertex -6.9291 -2.87012 5
      vertex -6.9291 -2.87012 0
    endloop
  endfacet
  facet normal -0.903988 -0.427558 0
    outer loop
      vertex -6.9291 -2.87012 5
      vertex -6.61441 -3.53547 0
      vertex -6.61441 -3.53547 5
    endloop
  endfacet
  facet normal 0.941547 -0.336883 0
    outer loop
      vertex 6.9291 -2.87012 5
      vertex 7.17705 -2.17713 0
      vertex 7.17705 -2.17713 5
    endloop
  endfacet
  facet normal 0.941547 -0.336883 0
    outer loop
      vertex 7.17705 -2.17713 0
      vertex 6.9291 -2.87012 5
      vertex 6.9291 -2.87012 0
    endloop
  endfacet
  facet normal 0.146735 0.989176 -0
    outer loop
      vertex 1.46318 7.35589 0
      vertex 0.735128 7.46389 5
      vertex 1.46318 7.35589 5
    endloop
  endfacet
  facet normal 0.146735 0.989176 0
    outer loop
      vertex 0.735128 7.46389 5
      vertex 1.46318 7.35589 0
      vertex 0.735128 7.46389 0
    endloop
  endfacet
  facet normal -0.427558 0.903988 0
    outer loop
      vertex -2.87012 6.9291 0
      vertex -3.53547 6.61441 5
      vertex -2.87012 6.9291 5
    endloop
  endfacet
  facet normal -0.427558 0.903988 0
    outer loop
      vertex -3.53547 6.61441 5
      vertex -2.87012 6.9291 0
      vertex -3.53547 6.61441 0
    endloop
  endfacet
  facet normal 0.5141 0.85773 -0
    outer loop
      vertex 4.16678 6.23602 0
      vertex 3.53547 6.61441 5
      vertex 4.16678 6.23602 5
    endloop
  endfacet
  facet normal 0.5141 0.85773 0
    outer loop
      vertex 3.53547 6.61441 5
      vertex 4.16678 6.23602 0
      vertex 3.53547 6.61441 0
    endloop
  endfacet
  facet normal 0.427558 -0.903988 0
    outer loop
      vertex 2.87012 -6.9291 0
      vertex 3.53547 -6.61441 5
      vertex 2.87012 -6.9291 5
    endloop
  endfacet
  facet normal 0.427558 -0.903988 0
    outer loop
      vertex 3.53547 -6.61441 5
      vertex 2.87012 -6.9291 0
      vertex 3.53547 -6.61441 0
    endloop
  endfacet
  facet normal -0.941547 -0.336883 0
    outer loop
      vertex -6.9291 -2.87012 0
      vertex -7.17705 -2.17713 5
      vertex -7.17705 -2.17713 0
    endloop
  endfacet
  facet normal -0.941547 -0.336883 0
    outer loop
      vertex -7.17705 -2.17713 5
      vertex -6.9291 -2.87012 0
      vertex -6.9291 -2.87012 5
    endloop
  endfacet
  facet normal 0.85773 -0.5141 0
    outer loop
      vertex 6.23602 -4.16678 5
      vertex 6.61441 -3.53547 0
      vertex 6.61441 -3.53547 5
    endloop
  endfacet
  facet normal 0.85773 -0.5141 0
    outer loop
      vertex 6.61441 -3.53547 0
      vertex 6.23602 -4.16678 5
      vertex 6.23602 -4.16678 0
    endloop
  endfacet
  facet normal 0.903988 -0.427558 0
    outer loop
      vertex 6.61441 -3.53547 5
      vertex 6.9291 -2.87012 0
      vertex 6.9291 -2.87012 5
    endloop
  endfacet
  facet normal 0.903988 -0.427558 0
    outer loop
      vertex 6.9291 -2.87012 0
      vertex 6.61441 -3.53547 5
      vertex 6.61441 -3.53547 0
    endloop
  endfacet
  facet normal 0.998796 -0.0490615 0
    outer loop
      vertex 7.46389 -0.735128 5
      vertex 7.5 0 0
      vertex 7.5 0 5
    endloop
  endfacet
  facet normal 0.998796 -0.0490615 0
    outer loop
      vertex 7.5 0 0
      vertex 7.46389 -0.735128 5
      vertex 7.46389 -0.735128 0
    endloop
  endfacet
  facet normal -0.146735 0.989176 0
    outer loop
      vertex -0.735128 7.46389 0
      vertex -1.46318 7.35589 5
      vertex -0.735128 7.46389 5
    endloop
  endfacet
  facet normal -0.146735 0.989176 0
    outer loop
      vertex -1.46318 7.35589 5
      vertex -0.735128 7.46389 0
      vertex -1.46318 7.35589 0
    endloop
  endfacet
  facet normal 0.146735 -0.989176 0
    outer loop
      vertex 0.735128 -7.46389 0
      vertex 1.46318 -7.35589 5
      vertex 0.735128 -7.46389 5
    endloop
  endfacet
  facet normal 0.146735 -0.989176 0
    outer loop
      vertex 1.46318 -7.35589 5
      vertex 0.735128 -7.46389 0
      vertex 1.46318 -7.35589 0
    endloop
  endfacet
  facet normal 0.740949 -0.671562 0
    outer loop
      vertex 5.3033 -5.3033 5
      vertex 5.79758 -4.75795 0
      vertex 5.79758 -4.75795 5
    endloop
  endfacet
  facet normal 0.740949 -0.671562 0
    outer loop
      vertex 5.79758 -4.75795 0
      vertex 5.3033 -5.3033 5
      vertex 5.3033 -5.3033 0
    endloop
  endfacet
  facet normal 0.803209 -0.595698 0
    outer loop
      vertex 5.79758 -4.75795 5
      vertex 6.23602 -4.16678 0
      vertex 6.23602 -4.16678 5
    endloop
  endfacet
  facet normal 0.803209 -0.595698 0
    outer loop
      vertex 6.23602 -4.16678 0
      vertex 5.79758 -4.75795 5
      vertex 5.79758 -4.75795 0
    endloop
  endfacet
  facet normal -0.242986 0.97003 0
    outer loop
      vertex -1.46318 7.35589 0
      vertex -2.17713 7.17705 5
      vertex -1.46318 7.35589 5
    endloop
  endfacet
  facet normal -0.242986 0.97003 0
    outer loop
      vertex -2.17713 7.17705 5
      vertex -1.46318 7.35589 0
      vertex -2.17713 7.17705 0
    endloop
  endfacet
  facet normal 0.803209 0.595698 0
    outer loop
      vertex 6.23602 4.16678 5
      vertex 5.79758 4.75795 0
      vertex 5.79758 4.75795 5
    endloop
  endfacet
  facet normal 0.803209 0.595698 0
    outer loop
      vertex 5.79758 4.75795 0
      vertex 6.23602 4.16678 5
      vertex 6.23602 4.16678 0
    endloop
  endfacet
  facet normal 0.0490615 0.998796 -0
    outer loop
      vertex 0.735128 7.46389 0
      vertex 0 7.5 5
      vertex 0.735128 7.46389 5
    endloop
  endfacet
  facet normal 0.0490615 0.998796 0
    outer loop
      vertex 0 7.5 5
      vertex 0.735128 7.46389 0
      vertex 0 7.5 0
    endloop
  endfacet
  facet normal 0.903988 0.427558 0
    outer loop
      vertex 6.9291 2.87012 5
      vertex 6.61441 3.53547 0
      vertex 6.61441 3.53547 5
    endloop
  endfacet
  facet normal 0.903988 0.427558 0
    outer loop
      vertex 6.61441 3.53547 0
      vertex 6.9291 2.87012 5
      vertex 6.9291 2.87012 0
    endloop
  endfacet
  facet normal -0.85773 0.5141 0
    outer loop
      vertex -6.61441 3.53547 0
      vertex -6.23602 4.16678 5
      vertex -6.23602 4.16678 0
    endloop
  endfacet
  facet normal -0.85773 0.5141 0
    outer loop
      vertex -6.23602 4.16678 5
      vertex -6.61441 3.53547 0
      vertex -6.61441 3.53547 5
    endloop
  endfacet
  facet normal -0.671562 0.740949 0
    outer loop
      vertex -4.75795 5.79758 0
      vertex -5.3033 5.3033 5
      vertex -4.75795 5.79758 5
    endloop
  endfacet
  facet normal -0.671562 0.740949 0
    outer loop
      vertex -5.3033 5.3033 5
      vertex -4.75795 5.79758 0
      vertex -5.3033 5.3033 0
    endloop
  endfacet
  facet normal -0.85773 -0.5141 0
    outer loop
      vertex -6.23602 -4.16678 0
      vertex -6.61441 -3.53547 5
      vertex -6.61441 -3.53547 0
    endloop
  endfacet
  facet normal -0.85773 -0.5141 0
    outer loop
      vertex -6.61441 -3.53547 5
      vertex -6.23602 -4.16678 0
      vertex -6.23602 -4.16678 5
    endloop
  endfacet
  facet normal -0.427558 -0.903988 0
    outer loop
      vertex -3.53547 -6.61441 0
      vertex -2.87012 -6.9291 5
      vertex -3.53547 -6.61441 5
    endloop
  endfacet
  facet normal -0.427558 -0.903988 -0
    outer loop
      vertex -2.87012 -6.9291 5
      vertex -3.53547 -6.61441 0
      vertex -2.87012 -6.9291 0
    endloop
  endfacet
  facet normal -0.740949 -0.671562 0
    outer loop
      vertex -5.3033 -5.3033 0
      vertex -5.79758 -4.75795 5
      vertex -5.79758 -4.75795 0
    endloop
  endfacet
  facet normal -0.740949 -0.671562 0
    outer loop
      vertex -5.79758 -4.75795 5
      vertex -5.3033 -5.3033 0
      vertex -5.3033 -5.3033 5
    endloop
  endfacet
  facet normal -0.336883 0.941547 0
    outer loop
      vertex -2.17713 7.17705 0
      vertex -2.87012 6.9291 5
      vertex -2.17713 7.17705 5
    endloop
  endfacet
  facet normal -0.336883 0.941547 0
    outer loop
      vertex -2.87012 6.9291 5
      vertex -2.17713 7.17705 0
      vertex -2.87012 6.9291 0
    endloop
  endfacet
  facet normal -0.5141 -0.85773 0
    outer loop
      vertex -4.16678 -6.23602 0
      vertex -3.53547 -6.61441 5
      vertex -4.16678 -6.23602 5
    endloop
  endfacet
  facet normal -0.5141 -0.85773 -0
    outer loop
      vertex -3.53547 -6.61441 5
      vertex -4.16678 -6.23602 0
      vertex -3.53547 -6.61441 0
    endloop
  endfacet
  facet normal 0.595698 -0.803209 0
    outer loop
      vertex 4.16678 -6.23602 0
      vertex 4.75795 -5.79758 5
      vertex 4.16678 -6.23602 5
    endloop
  endfacet
  facet normal 0.595698 -0.803209 0
    outer loop
      vertex 4.75795 -5.79758 5
      vertex 4.16678 -6.23602 0
      vertex 4.75795 -5.79758 0
    endloop
  endfacet
  facet normal -0.0490615 0.998796 0
    outer loop
      vertex 0 7.5 0
      vertex -0.735128 7.46389 5
      vertex 0 7.5 5
    endloop
  endfacet
  facet normal -0.0490615 0.998796 0
    outer loop
      vertex -0.735128 7.46389 5
      vertex 0 7.5 0
      vertex -0.735128 7.46389 0
    endloop
  endfacet
  facet normal -0.97003 0.242986 0
    outer loop
      vertex -7.35589 1.46318 0
      vertex -7.17705 2.17713 5
      vertex -7.17705 2.17713 0
    endloop
  endfacet
  facet normal -0.97003 0.242986 0
    outer loop
      vertex -7.17705 2.17713 5
      vertex -7.35589 1.46318 0
      vertex -7.35589 1.46318 5
    endloop
  endfacet
  facet normal -0.941547 0.336883 0
    outer loop
      vertex -7.17705 2.17713 0
      vertex -6.9291 2.87012 5
      vertex -6.9291 2.87012 0
    endloop
  endfacet
  facet normal -0.941547 0.336883 0
    outer loop
      vertex -6.9291 2.87012 5
      vertex -7.17705 2.17713 0
      vertex -7.17705 2.17713 5
    endloop
  endfacet
  facet normal 0.336883 0.941547 -0
    outer loop
      vertex 2.87012 6.9291 0
      vertex 2.17713 7.17705 5
      vertex 2.87012 6.9291 5
    endloop
  endfacet
  facet normal 0.336883 0.941547 0
    outer loop
      vertex 2.17713 7.17705 5
      vertex 2.87012 6.9291 0
      vertex 2.17713 7.17705 0
    endloop
  endfacet
  facet normal -0.803209 -0.595698 0
    outer loop
      vertex -5.79758 -4.75795 0
      vertex -6.23602 -4.16678 5
      vertex -6.23602 -4.16678 0
    endloop
  endfacet
  facet normal -0.803209 -0.595698 0
    outer loop
      vertex -6.23602 -4.16678 5
      vertex -5.79758 -4.75795 0
      vertex -5.79758 -4.75795 5
    endloop
  endfacet
  facet normal -0.989176 -0.146735 0
    outer loop
      vertex -7.35589 -1.46318 0
      vertex -7.46389 -0.735128 5
      vertex -7.46389 -0.735128 0
    endloop
  endfacet
  facet normal -0.989176 -0.146735 0
    outer loop
      vertex -7.46389 -0.735128 5
      vertex -7.35589 -1.46318 0
      vertex -7.35589 -1.46318 5
    endloop
  endfacet
  facet normal -0.903988 0.427558 0
    outer loop
      vertex -6.9291 2.87012 0
      vertex -6.61441 3.53547 5
      vertex -6.61441 3.53547 0
    endloop
  endfacet
  facet normal -0.903988 0.427558 0
    outer loop
      vertex -6.61441 3.53547 5
      vertex -6.9291 2.87012 0
      vertex -6.9291 2.87012 5
    endloop
  endfacet
  facet normal 0 0 -1
    outer loop
      vertex 2.2 0 0
      vertex 7.5 0 0
      vertex 7.46389 -0.735128 0
    endloop
  endfacet
  facet normal 0 0 -1
    outer loop
      vertex 2.18941 -0.215637 0
      vertex 7.46389 -0.735128 0
      vertex 7.35589 -1.46318 0
    endloop
  endfacet
  facet normal 0 0 -1
    outer loop
      vertex 7.5 0 0
      vertex 2.2 0 0
      vertex 7.46389 0.735128 0
    endloop
  endfacet
  facet normal 0 0 -1
    outer loop
      vertex 2.15773 -0.429198 0
      vertex 7.35589 -1.46318 0
      vertex 7.17705 -2.17713 0
    endloop
  endfacet
  facet normal 0 0 -1
    outer loop
      vertex 2.18941 0.215637 0
      vertex 7.46389 0.735128 0
      vertex 2.2 0 0
    endloop
  endfacet
  facet normal 0 0 -1
    outer loop
      vertex 2.10527 -0.638626 0
      vertex 7.17705 -2.17713 0
      vertex 6.9291 -2.87012 0
    endloop
  endfacet
  facet normal -0 0 -1
    outer loop
      vertex 7.46389 0.735128 0
      vertex 2.18941 0.215637 0
      vertex 7.35589 1.46318 0
    endloop
  endfacet
  facet normal 0 0 -1
    outer loop
      vertex 2.03253 -0.841903 0
      vertex 6.9291 -2.87012 0
      vertex 6.61441 -3.53547 0
    endloop
  endfacet
  facet normal 0 0 -1
    outer loop
      vertex 2.15773 0.429198 0
      vertex 7.35589 1.46318 0
      vertex 2.18941 0.215637 0
    endloop
  endfacet
  facet normal 0 0 -1
    outer loop
      vertex 1.94023 -1.03707 0
      vertex 6.61441 -3.53547 0
      vertex 6.23602 -4.16678 0
    endloop
  endfacet
  facet normal -0 0 -1
    outer loop
      vertex 7.35589 1.46318 0
      vertex 2.15773 0.429198 0
      vertex 7.17705 2.17713 0
    endloop
  endfacet
  facet normal 0 0 -1
    outer loop
      vertex 1.82923 -1.22225 0
      vertex 6.23602 -4.16678 0
      vertex 5.79758 -4.75795 0
    endloop
  endfacet
  facet normal 0 0 -1
    outer loop
      vertex 2.10527 0.638626 0
      vertex 7.17705 2.17713 0
      vertex 2.15773 0.429198 0
    endloop
  endfacet
  facet normal 0 0 -1
    outer loop
      vertex 1.70062 -1.39567 0
      vertex 5.79758 -4.75795 0
      vertex 5.3033 -5.3033 0
    endloop
  endfacet
  facet normal -0 0 -1
    outer loop
      vertex 7.17705 2.17713 0
      vertex 2.10527 0.638626 0
      vertex 6.9291 2.87012 0
    endloop
  endfacet
  facet normal 0 0 -1
    outer loop
      vertex 1.55563 -1.55563 0
      vertex 5.3033 -5.3033 0
      vertex 4.75795 -5.79758 0
    endloop
  endfacet
  facet normal 0 0 -1
    outer loop
      vertex 2.03253 0.841903 0
      vertex 6.9291 2.87012 0
      vertex 2.10527 0.638626 0
    endloop
  endfacet
  facet normal 0 0 -1
    outer loop
      vertex 1.39567 -1.70062 0
      vertex 4.75795 -5.79758 0
      vertex 4.16678 -6.23602 0
    endloop
  endfacet
  facet normal -0 0 -1
    outer loop
      vertex 6.9291 2.87012 0
      vertex 2.03253 0.841903 0
      vertex 6.61441 3.53547 0
    endloop
  endfacet
  facet normal 0 0 -1
    outer loop
      vertex 1.22225 -1.82923 0
      vertex 4.16678 -6.23602 0
      vertex 3.53547 -6.61441 0
    endloop
  endfacet
  facet normal 0 0 -1
    outer loop
      vertex 1.94023 1.03707 0
      vertex 6.61441 3.53547 0
      vertex 2.03253 0.841903 0
    endloop
  endfacet
  facet normal 0 0 -1
    outer loop
      vertex 1.03707 -1.94023 0
      vertex 3.53547 -6.61441 0
      vertex 2.87012 -6.9291 0
    endloop
  endfacet
  facet normal -0 0 -1
    outer loop
      vertex 6.61441 3.53547 0
      vertex 1.94023 1.03707 0
      vertex 6.23602 4.16678 0
    endloop
  endfacet
  facet normal 0 0 -1
    outer loop
      vertex 1.82923 1.22225 0
      vertex 6.23602 4.16678 0
      vertex 1.94023 1.03707 0
    endloop
  endfacet
  facet normal 0 0 -1
    outer loop
      vertex 7.46389 -0.735128 0
      vertex 2.18941 -0.215637 0
      vertex 2.2 0 0
    endloop
  endfacet
  facet normal 0 0 -1
    outer loop
      vertex 0.841903 -2.03253 0
      vertex 2.87012 -6.9291 0
      vertex 2.17713 -7.17705 0
    endloop
  endfacet
  facet normal 0 0 -1
    outer loop
      vertex 7.35589 -1.46318 0
      vertex 2.15773 -0.429198 0
      vertex 2.18941 -0.215637 0
    endloop
  endfacet
  facet normal 0 0 -1
    outer loop
      vertex 7.17705 -2.17713 0
      vertex 2.10527 -0.638626 0
      vertex 2.15773 -0.429198 0
    endloop
  endfacet
  facet normal 0 0 -1
    outer loop
      vertex 6.9291 -2.87012 0
      vertex 2.03253 -0.841903 0
      vertex 2.10527 -0.638626 0
    endloop
  endfacet
  facet normal 0 0 -1
    outer loop
      vertex 6.61441 -3.53547 0
      vertex 1.94023 -1.03707 0
      vertex 2.03253 -0.841903 0
    endloop
  endfacet
  facet normal 0 0 -1
    outer loop
      vertex 6.23602 -4.16678 0
      vertex 1.82923 -1.22225 0
      vertex 1.94023 -1.03707 0
    endloop
  endfacet
  facet normal 0 0 -1
    outer loop
      vertex 5.79758 -4.75795 0
      vertex 1.70062 -1.39567 0
      vertex 1.82923 -1.22225 0
    endloop
  endfacet
  facet normal 0 0 -1
    outer loop
      vertex 5.3033 -5.3033 0
      vertex 1.55563 -1.55563 0
      vertex 1.70062 -1.39567 0
    endloop
  endfacet
  facet normal 0 0 -1
    outer loop
      vertex 0.638626 -2.10527 0
      vertex 2.17713 -7.17705 0
      vertex 1.46318 -7.35589 0
    endloop
  endfacet
  facet normal 0 0 -1
    outer loop
      vertex 4.75795 -5.79758 0
      vertex 1.39567 -1.70062 0
      vertex 1.55563 -1.55563 0
    endloop
  endfacet
  facet normal 0 0 -1
    outer loop
      vertex 4.16678 -6.23602 0
      vertex 1.22225 -1.82923 0
      vertex 1.39567 -1.70062 0
    endloop
  endfacet
  facet normal 0 0 -1
    outer loop
      vertex 3.53547 -6.61441 0
      vertex 1.03707 -1.94023 0
      vertex 1.22225 -1.82923 0
    endloop
  endfacet
  facet normal 0 0 -1
    outer loop
      vertex 2.87012 -6.9291 0
      vertex 0.841903 -2.03253 0
      vertex 1.03707 -1.94023 0
    endloop
  endfacet
  facet normal 0 0 -1
    outer loop
      vertex 0.429198 -2.15773 0
      vertex 1.46318 -7.35589 0
      vertex 0.735128 -7.46389 0
    endloop
  endfacet
  facet normal 0 0 -1
    outer loop
      vertex 2.17713 -7.17705 0
      vertex 0.638626 -2.10527 0
      vertex 0.841903 -2.03253 0
    endloop
  endfacet
  facet normal 0 0 -1
    outer loop
      vertex 1.46318 -7.35589 0
      vertex 0.429198 -2.15773 0
      vertex 0.638626 -2.10527 0
    endloop
  endfacet
  facet normal 0 0 -1
    outer loop
      vertex 0.735128 -7.46389 0
      vertex 0.215637 -2.18941 0
      vertex 0.429198 -2.15773 0
    endloop
  endfacet
  facet normal 0 0 -1
    outer loop
      vertex 0 -7.5 0
      vertex 0.215637 -2.18941 0
      vertex 0.735128 -7.46389 0
    endloop
  endfacet
  facet normal 0 0 -1
    outer loop
      vertex 0 -7.5 0
      vertex 0 -2.2 0
      vertex 0.215637 -2.18941 0
    endloop
  endfacet
  facet normal 0 0 -1
    outer loop
      vertex 0 -7.5 0
      vertex -0.215637 -2.18941 0
      vertex 0 -2.2 0
    endloop
  endfacet
  facet normal 0 0 -1
    outer loop
      vertex -0.735128 -7.46389 0
      vertex -0.215637 -2.18941 0
      vertex 0 -7.5 0
    endloop
  endfacet
  facet normal -0 0 -1
    outer loop
      vertex -0.215637 -2.18941 0
      vertex -0.735128 -7.46389 0
      vertex -0.429198 -2.15773 0
    endloop
  endfacet
  facet normal 0 0 -1
    outer loop
      vertex -1.46318 -7.35589 0
      vertex -0.429198 -2.15773 0
      vertex -0.735128 -7.46389 0
    endloop
  endfacet
  facet normal -0 0 -1
    outer loop
      vertex -0.429198 -2.15773 0
      vertex -1.46318 -7.35589 0
      vertex -0.638626 -2.10527 0
    endloop
  endfacet
  facet normal 0 0 -1
    outer loop
      vertex -2.17713 -7.17705 0
      vertex -0.638626 -2.10527 0
      vertex -1.46318 -7.35589 0
    endloop
  endfacet
  facet normal -0 0 -1
    outer loop
      vertex -0.638626 -2.10527 0
      vertex -2.17713 -7.17705 0
      vertex -0.841903 -2.03253 0
    endloop
  endfacet
  facet normal 0 0 -1
    outer loop
      vertex -2.87012 -6.9291 0
      vertex -0.841903 -2.03253 0
      vertex -2.17713 -7.17705 0
    endloop
  endfacet
  facet normal -0 0 -1
    outer loop
      vertex -0.841903 -2.03253 0
      vertex -2.87012 -6.9291 0
      vertex -1.03707 -1.94023 0
    endloop
  endfacet
  facet normal 0 0 -1
    outer loop
      vertex -3.53547 -6.61441 0
      vertex -1.03707 -1.94023 0
      vertex -2.87012 -6.9291 0
    endloop
  endfacet
  facet normal -0 0 -1
    outer loop
      vertex -1.03707 -1.94023 0
      vertex -3.53547 -6.61441 0
      vertex -1.22225 -1.82923 0
    endloop
  endfacet
  facet normal 0 0 -1
    outer loop
      vertex -4.16678 -6.23602 0
      vertex -1.22225 -1.82923 0
      vertex -3.53547 -6.61441 0
    endloop
  endfacet
  facet normal -0 0 -1
    outer loop
      vertex -1.22225 -1.82923 0
      vertex -4.16678 -6.23602 0
      vertex -1.39567 -1.70062 0
    endloop
  endfacet
  facet normal 0 0 -1
    outer loop
      vertex -4.75795 -5.79758 0
      vertex -1.39567 -1.70062 0
      vertex -4.16678 -6.23602 0
    endloop
  endfacet
  facet normal -0 0 -1
    outer loop
      vertex -1.39567 -1.70062 0
      vertex -4.75795 -5.79758 0
      vertex -1.55563 -1.55563 0
    endloop
  endfacet
  facet normal 0 0 -1
    outer loop
      vertex -5.3033 -5.3033 0
      vertex -1.55563 -1.55563 0
      vertex -4.75795 -5.79758 0
    endloop
  endfacet
  facet normal -0 0 -1
    outer loop
      vertex -1.55563 -1.55563 0
      vertex -5.3033 -5.3033 0
      vertex -1.70062 -1.39567 0
    endloop
  endfacet
  facet normal 0 0 -1
    outer loop
      vertex -5.79758 -4.75795 0
      vertex -1.70062 -1.39567 0
      vertex -5.3033 -5.3033 0
    endloop
  endfacet
  facet normal -0 0 -1
    outer loop
      vertex -1.70062 -1.39567 0
      vertex -5.79758 -4.75795 0
      vertex -1.82923 -1.22225 0
    endloop
  endfacet
  facet normal 0 0 -1
    outer loop
      vertex -6.23602 -4.16678 0
      vertex -1.82923 -1.22225 0
      vertex -5.79758 -4.75795 0
    endloop
  endfacet
  facet normal -0 0 -1
    outer loop
      vertex 6.23602 4.16678 0
      vertex 1.82923 1.22225 0
      vertex 5.79758 4.75795 0
    endloop
  endfacet
  facet normal 0 0 -1
    outer loop
      vertex 1.70062 1.39567 0
      vertex 5.79758 4.75795 0
      vertex 1.82923 1.22225 0
    endloop
  endfacet
  facet normal -0 0 -1
    outer loop
      vertex 5.79758 4.75795 0
      vertex 1.70062 1.39567 0
      vertex 5.3033 5.3033 0
    endloop
  endfacet
  facet normal 0 0 -1
    outer loop
      vertex 1.55563 1.55563 0
      vertex 5.3033 5.3033 0
      vertex 1.70062 1.39567 0
    endloop
  endfacet
  facet normal -0 0 -1
    outer loop
      vertex 5.3033 5.3033 0
      vertex 1.55563 1.55563 0
      vertex 4.75795 5.79758 0
    endloop
  endfacet
  facet normal 0 0 -1
    outer loop
      vertex 1.39567 1.70062 0
      vertex 4.75795 5.79758 0
      vertex 1.55563 1.55563 0
    endloop
  endfacet
  facet normal -0 0 -1
    outer loop
      vertex 4.75795 5.79758 0
      vertex 1.39567 1.70062 0
      vertex 4.16678 6.23602 0
    endloop
  endfacet
  facet normal 0 0 -1
    outer loop
      vertex 1.22225 1.82923 0
      vertex 4.16678 6.23602 0
      vertex 1.39567 1.70062 0
    endloop
  endfacet
  facet normal -0 0 -1
    outer loop
      vertex 4.16678 6.23602 0
      vertex 1.22225 1.82923 0
      vertex 3.53547 6.61441 0
    endloop
  endfacet
  facet normal 0 0 -1
    outer loop
      vertex 1.03707 1.94023 0
      vertex 3.53547 6.61441 0
      vertex 1.22225 1.82923 0
    endloop
  endfacet
  facet normal -0 0 -1
    outer loop
      vertex 3.53547 6.61441 0
      vertex 1.03707 1.94023 0
      vertex 2.87012 6.9291 0
    endloop
  endfacet
  facet normal 0 0 -1
    outer loop
      vertex 0.841903 2.03253 0
      vertex 2.87012 6.9291 0
      vertex 1.03707 1.94023 0
    endloop
  endfacet
  facet normal -0 0 -1
    outer loop
      vertex 2.87012 6.9291 0
      vertex 0.841903 2.03253 0
      vertex 2.17713 7.17705 0
    endloop
  endfacet
  facet normal 0 0 -1
    outer loop
      vertex 0.638626 2.10527 0
      vertex 2.17713 7.17705 0
      vertex 0.841903 2.03253 0
    endloop
  endfacet
  facet normal -0 0 -1
    outer loop
      vertex 2.17713 7.17705 0
      vertex 0.638626 2.10527 0
      vertex 1.46318 7.35589 0
    endloop
  endfacet
  facet normal 0 0 -1
    outer loop
      vertex 0.429198 2.15773 0
      vertex 1.46318 7.35589 0
      vertex 0.638626 2.10527 0
    endloop
  endfacet
  facet normal -0 0 -1
    outer loop
      vertex 1.46318 7.35589 0
      vertex 0.429198 2.15773 0
      vertex 0.735128 7.46389 0
    endloop
  endfacet
  facet normal 0 0 -1
    outer loop
      vertex 0.215637 2.18941 0
      vertex 0.735128 7.46389 0
      vertex 0.429198 2.15773 0
    endloop
  endfacet
  facet normal 0 0 -1
    outer loop
      vertex 0 2.2 0
      vertex 0.735128 7.46389 0
      vertex 0.215637 2.18941 0
    endloop
  endfacet
  facet normal 0 0 -1
    outer loop
      vertex 0 2.2 0
      vertex 0 7.5 0
      vertex 0.735128 7.46389 0
    endloop
  endfacet
  facet normal 0 0 -1
    outer loop
      vertex -0.215637 2.18941 0
      vertex 0 7.5 0
      vertex 0 2.2 0
    endloop
  endfacet
  facet normal 0 0 -1
    outer loop
      vertex -0.735128 7.46389 0
      vertex -0.215637 2.18941 0
      vertex -0.429198 2.15773 0
    endloop
  endfacet
  facet normal 0 0 -1
    outer loop
      vertex -1.46318 7.35589 0
      vertex -0.429198 2.15773 0
      vertex -0.638626 2.10527 0
    endloop
  endfacet
  facet normal 0 0 -1
    outer loop
      vertex -0.215637 2.18941 0
      vertex -0.735128 7.46389 0
      vertex 0 7.5 0
    endloop
  endfacet
  facet normal 0 0 -1
    outer loop
      vertex -2.17713 7.17705 0
      vertex -0.638626 2.10527 0
      vertex -0.841903 2.03253 0
    endloop
  endfacet
  facet normal 0 0 -1
    outer loop
      vertex -2.87012 6.9291 0
      vertex -0.841903 2.03253 0
      vertex -1.03707 1.94023 0
    endloop
  endfacet
  facet normal 0 0 -1
    outer loop
      vertex -3.53547 6.61441 0
      vertex -1.03707 1.94023 0
      vertex -1.22225 1.82923 0
    endloop
  endfacet
  facet normal 0 0 -1
    outer loop
      vertex -4.16678 6.23602 0
      vertex -1.22225 1.82923 0
      vertex -1.39567 1.70062 0
    endloop
  endfacet
  facet normal 0 0 -1
    outer loop
      vertex -0.429198 2.15773 0
      vertex -1.46318 7.35589 0
      vertex -0.735128 7.46389 0
    endloop
  endfacet
  facet normal 0 0 -1
    outer loop
      vertex -4.75795 5.79758 0
      vertex -1.39567 1.70062 0
      vertex -1.55563 1.55563 0
    endloop
  endfacet
  facet normal 0 0 -1
    outer loop
      vertex -5.3033 5.3033 0
      vertex -1.55563 1.55563 0
      vertex -1.70062 1.39567 0
    endloop
  endfacet
  facet normal 0 0 -1
    outer loop
      vertex -5.79758 4.75795 0
      vertex -1.70062 1.39567 0
      vertex -1.82923 1.22225 0
    endloop
  endfacet
  facet normal 0 0 -1
    outer loop
      vertex -6.23602 4.16678 0
      vertex -1.82923 1.22225 0
      vertex -1.94023 1.03707 0
    endloop
  endfacet
  facet normal 0 0 -1
    outer loop
      vertex -6.61441 3.53547 0
      vertex -1.94023 1.03707 0
      vertex -2.03253 0.841903 0
    endloop
  endfacet
  facet normal 0 0 -1
    outer loop
      vertex -6.9291 2.87012 0
      vertex -2.03253 0.841903 0
      vertex -2.10527 0.638626 0
    endloop
  endfacet
  facet normal 0 0 -1
    outer loop
      vertex -7.17705 2.17713 0
      vertex -2.10527 0.638626 0
      vertex -2.15773 0.429198 0
    endloop
  endfacet
  facet normal 0 0 -1
    outer loop
      vertex -0.638626 2.10527 0
      vertex -2.17713 7.17705 0
      vertex -1.46318 7.35589 0
    endloop
  endfacet
  facet normal 0 0 -1
    outer loop
      vertex -7.35589 1.46318 0
      vertex -2.15773 0.429198 0
      vertex -2.18941 0.215637 0
    endloop
  endfacet
  facet normal 0 0 -1
    outer loop
      vertex -7.46389 0.735128 0
      vertex -2.18941 0.215637 0
      vertex -2.2 0 0
    endloop
  endfacet
  facet normal -0 0 -1
    outer loop
      vertex -1.82923 -1.22225 0
      vertex -6.23602 -4.16678 0
      vertex -1.94023 -1.03707 0
    endloop
  endfacet
  facet normal 0 0 -1
    outer loop
      vertex -0.841903 2.03253 0
      vertex -2.87012 6.9291 0
      vertex -2.17713 7.17705 0
    endloop
  endfacet
  facet normal 0 0 -1
    outer loop
      vertex -6.61441 -3.53547 0
      vertex -1.94023 -1.03707 0
      vertex -6.23602 -4.16678 0
    endloop
  endfacet
  facet normal 0 0 -1
    outer loop
      vertex -1.03707 1.94023 0
      vertex -3.53547 6.61441 0
      vertex -2.87012 6.9291 0
    endloop
  endfacet
  facet normal -0 0 -1
    outer loop
      vertex -1.94023 -1.03707 0
      vertex -6.61441 -3.53547 0
      vertex -2.03253 -0.841903 0
    endloop
  endfacet
  facet normal 0 0 -1
    outer loop
      vertex -1.22225 1.82923 0
      vertex -4.16678 6.23602 0
      vertex -3.53547 6.61441 0
    endloop
  endfacet
  facet normal 0 0 -1
    outer loop
      vertex -6.9291 -2.87012 0
      vertex -2.03253 -0.841903 0
      vertex -6.61441 -3.53547 0
    endloop
  endfacet
  facet normal 0 0 -1
    outer loop
      vertex -1.39567 1.70062 0
      vertex -4.75795 5.79758 0
      vertex -4.16678 6.23602 0
    endloop
  endfacet
  facet normal -0 0 -1
    outer loop
      vertex -2.03253 -0.841903 0
      vertex -6.9291 -2.87012 0
      vertex -2.10527 -0.638626 0
    endloop
  endfacet
  facet normal 0 0 -1
    outer loop
      vertex -1.55563 1.55563 0
      vertex -5.3033 5.3033 0
      vertex -4.75795 5.79758 0
    endloop
  endfacet
  facet normal 0 0 -1
    outer loop
      vertex -7.17705 -2.17713 0
      vertex -2.10527 -0.638626 0
      vertex -6.9291 -2.87012 0
    endloop
  endfacet
  facet normal 0 0 -1
    outer loop
      vertex -1.70062 1.39567 0
      vertex -5.79758 4.75795 0
      vertex -5.3033 5.3033 0
    endloop
  endfacet
  facet normal -0 0 -1
    outer loop
      vertex -2.10527 -0.638626 0
      vertex -7.17705 -2.17713 0
      vertex -2.15773 -0.429198 0
    endloop
  endfacet
  facet normal 0 0 -1
    outer loop
      vertex -1.82923 1.22225 0
      vertex -6.23602 4.16678 0
      vertex -5.79758 4.75795 0
    endloop
  endfacet
  facet normal 0 0 -1
    outer loop
      vertex -7.35589 -1.46318 0
      vertex -2.15773 -0.429198 0
      vertex -7.17705 -2.17713 0
    endloop
  endfacet
  facet normal 0 0 -1
    outer loop
      vertex -1.94023 1.03707 0
      vertex -6.61441 3.53547 0
      vertex -6.23602 4.16678 0
    endloop
  endfacet
  facet normal -0 0 -1
    outer loop
      vertex -2.15773 -0.429198 0
      vertex -7.35589 -1.46318 0
      vertex -2.18941 -0.215637 0
    endloop
  endfacet
  facet normal 0 0 -1
    outer loop
      vertex -2.03253 0.841903 0
      vertex -6.9291 2.87012 0
      vertex -6.61441 3.53547 0
    endloop
  endfacet
  facet normal 0 0 -1
    outer loop
      vertex -7.46389 -0.735128 0
      vertex -2.18941 -0.215637 0
      vertex -7.35589 -1.46318 0
    endloop
  endfacet
  facet normal 0 0 -1
    outer loop
      vertex -2.10527 0.638626 0
      vertex -7.17705 2.17713 0
      vertex -6.9291 2.87012 0
    endloop
  endfacet
  facet normal -0 0 -1
    outer loop
      vertex -2.18941 -0.215637 0
      vertex -7.46389 -0.735128 0
      vertex -2.2 0 0
    endloop
  endfacet
  facet normal 0 0 -1
    outer loop
      vertex -2.15773 0.429198 0
      vertex -7.35589 1.46318 0
      vertex -7.17705 2.17713 0
    endloop
  endfacet
  facet normal 0 0 -1
    outer loop
      vertex -7.5 0 0
      vertex -2.2 0 0
      vertex -7.46389 -0.735128 0
    endloop
  endfacet
  facet normal 0 0 -1
    outer loop
      vertex -2.18941 0.215637 0
      vertex -7.46389 0.735128 0
      vertex -7.35589 1.46318 0
    endloop
  endfacet
  facet normal 0 0 -1
    outer loop
      vertex -2.2 0 0
      vertex -7.5 0 0
      vertex -7.46389 0.735128 0
    endloop
  endfacet
  facet normal -0.671562 -0.740949 0
    outer loop
      vertex -5.3033 -5.3033 0
      vertex -4.75795 -5.79758 5
      vertex -5.3033 -5.3033 5
    endloop
  endfacet
  facet normal -0.671562 -0.740949 -0
    outer loop
      vertex -4.75795 -5.79758 5
      vertex -5.3033 -5.3033 0
      vertex -4.75795 -5.79758 0
    endloop
  endfacet
  facet normal -0.803209 0.595698 0
    outer loop
      vertex -6.23602 4.16678 0
      vertex -5.79758 4.75795 5
      vertex -5.79758 4.75795 0
    endloop
  endfacet
  facet normal -0.803209 0.595698 0
    outer loop
      vertex -5.79758 4.75795 5
      vertex -6.23602 4.16678 0
      vertex -6.23602 4.16678 5
    endloop
  endfacet
  facet normal -0.0490615 -0.998796 0
    outer loop
      vertex -0.735128 -7.46389 0
      vertex 0 -7.5 5
      vertex -0.735128 -7.46389 5
    endloop
  endfacet
  facet normal -0.0490615 -0.998796 -0
    outer loop
      vertex 0 -7.5 5
      vertex -0.735128 -7.46389 0
      vertex 0 -7.5 0
    endloop
  endfacet
  facet normal -0.146735 -0.989176 0
    outer loop
      vertex -1.46318 -7.35589 0
      vertex -0.735128 -7.46389 5
      vertex -1.46318 -7.35589 5
    endloop
  endfacet
  facet normal -0.146735 -0.989176 -0
    outer loop
      vertex -0.735128 -7.46389 5
      vertex -1.46318 -7.35589 0
      vertex -0.735128 -7.46389 0
    endloop
  endfacet
  facet normal -0.989176 0.146735 0
    outer loop
      vertex -7.46389 0.735128 0
      vertex -7.35589 1.46318 5
      vertex -7.35589 1.46318 0
    endloop
  endfacet
  facet normal -0.989176 0.146735 0
    outer loop
      vertex -7.35589 1.46318 5
      vertex -7.46389 0.735128 0
      vertex -7.46389 0.735128 5
    endloop
  endfacet
  facet normal -0.998796 0.0490615 0
    outer loop
      vertex -7.5 0 0
      vertex -7.46389 0.735128 5
      vertex -7.46389 0.735128 0
    endloop
  endfacet
  facet normal -0.998796 0.0490615 0
    outer loop
      vertex -7.46389 0.735128 5
      vertex -7.5 0 0
      vertex -7.5 0 5
    endloop
  endfacet
  facet normal -0.336883 -0.941547 0
    outer loop
      vertex -2.87012 -6.9291 0
      vertex -2.17713 -7.17705 5
      vertex -2.87012 -6.9291 5
    endloop
  endfacet
  facet normal -0.336883 -0.941547 -0
    outer loop
      vertex -2.17713 -7.17705 5
      vertex -2.87012 -6.9291 0
      vertex -2.17713 -7.17705 0
    endloop
  endfacet
  facet normal 0.671562 -0.740949 0
    outer loop
      vertex 4.75795 -5.79758 0
      vertex 5.3033 -5.3033 5
      vertex 4.75795 -5.79758 5
    endloop
  endfacet
  facet normal 0.671562 -0.740949 0
    outer loop
      vertex 5.3033 -5.3033 5
      vertex 4.75795 -5.79758 0
      vertex 5.3033 -5.3033 0
    endloop
  endfacet
  facet normal 0 0 1
    outer loop
      vertex 2.2 0 5
      vertex 7.5 0 5
      vertex 7.46389 0.735128 5
    endloop
  endfacet
  facet normal 0 0 1
    outer loop
      vertex 2.18941 0.215637 5
      vertex 7.46389 0.735128 5
      vertex 7.35589 1.46318 5
    endloop
  endfacet
  facet normal 0 0 1
    outer loop
      vertex 7.5 0 5
      vertex 2.2 0 5
      vertex 7.46389 -0.735128 5
    endloop
  endfacet
  facet normal 0 0 1
    outer loop
      vertex 2.15773 0.429198 5
      vertex 7.35589 1.46318 5
      vertex 7.17705 2.17713 5
    endloop
  endfacet
  facet normal -0 0 1
    outer loop
      vertex 2.18941 -0.215637 5
      vertex 7.46389 -0.735128 5
      vertex 2.2 0 5
    endloop
  endfacet
  facet normal 0 0 1
    outer loop
      vertex 2.10527 0.638626 5
      vertex 7.17705 2.17713 5
      vertex 6.9291 2.87012 5
    endloop
  endfacet
  facet normal 0 0 1
    outer loop
      vertex 7.46389 -0.735128 5
      vertex 2.18941 -0.215637 5
      vertex 7.35589 -1.46318 5
    endloop
  endfacet
  facet normal 0 0 1
    outer loop
      vertex 2.03253 0.841903 5
      vertex 6.9291 2.87012 5
      vertex 6.61441 3.53547 5
    endloop
  endfacet
  facet normal -0 0 1
    outer loop
      vertex 2.15773 -0.429198 5
      vertex 7.35589 -1.46318 5
      vertex 2.18941 -0.215637 5
    endloop
  endfacet
  facet normal 0 0 1
    outer loop
      vertex 1.94023 1.03707 5
      vertex 6.61441 3.53547 5
      vertex 6.23602 4.16678 5
    endloop
  endfacet
  facet normal 0 0 1
    outer loop
      vertex 7.35589 -1.46318 5
      vertex 2.15773 -0.429198 5
      vertex 7.17705 -2.17713 5
    endloop
  endfacet
  facet normal 0 0 1
    outer loop
      vertex 1.82923 1.22225 5
      vertex 6.23602 4.16678 5
      vertex 5.79758 4.75795 5
    endloop
  endfacet
  facet normal -0 0 1
    outer loop
      vertex 2.10527 -0.638626 5
      vertex 7.17705 -2.17713 5
      vertex 2.15773 -0.429198 5
    endloop
  endfacet
  facet normal 0 0 1
    outer loop
      vertex 1.70062 1.39567 5
      vertex 5.79758 4.75795 5
      vertex 5.3033 5.3033 5
    endloop
  endfacet
  facet normal 0 0 1
    outer loop
      vertex 7.17705 -2.17713 5
      vertex 2.10527 -0.638626 5
      vertex 6.9291 -2.87012 5
    endloop
  endfacet
  facet normal 0 0 1
    outer loop
      vertex 1.55563 1.55563 5
      vertex 5.3033 5.3033 5
      vertex 4.75795 5.79758 5
    endloop
  endfacet
  facet normal -0 0 1
    outer loop
      vertex 2.03253 -0.841903 5
      vertex 6.9291 -2.87012 5
      vertex 2.10527 -0.638626 5
    endloop
  endfacet
  facet normal 0 0 1
    outer loop
      vertex 1.39567 1.70062 5
      vertex 4.75795 5.79758 5
      vertex 4.16678 6.23602 5
    endloop
  endfacet
  facet normal 0 0 1
    outer loop
      vertex 6.9291 -2.87012 5
      vertex 2.03253 -0.841903 5
      vertex 6.61441 -3.53547 5
    endloop
  endfacet
  facet normal 0 0 1
    outer loop
      vertex 1.22225 1.82923 5
      vertex 4.16678 6.23602 5
      vertex 3.53547 6.61441 5
    endloop
  endfacet
  facet normal -0 0 1
    outer loop
      vertex 1.94023 -1.03707 5
      vertex 6.61441 -3.53547 5
      vertex 2.03253 -0.841903 5
    endloop
  endfacet
  facet normal 0 0 1
    outer loop
      vertex 1.03707 1.94023 5
      vertex 3.53547 6.61441 5
      vertex 2.87012 6.9291 5
    endloop
  endfacet
  facet normal 0 0 1
    outer loop
      vertex 6.61441 -3.53547 5
      vertex 1.94023 -1.03707 5
      vertex 6.23602 -4.16678 5
    endloop
  endfacet
  facet normal -0 0 1
    outer loop
      vertex 1.82923 -1.22225 5
      vertex 6.23602 -4.16678 5
      vertex 1.94023 -1.03707 5
    endloop
  endfacet
  facet normal 0 0 1
    outer loop
      vertex 7.46389 0.735128 5
      vertex 2.18941 0.215637 5
      vertex 2.2 0 5
    endloop
  endfacet
  facet normal 0 0 1
    outer loop
      vertex 0.841903 2.03253 5
      vertex 2.87012 6.9291 5
      vertex 2.17713 7.17705 5
    endloop
  endfacet
  facet normal 0 0 1
    outer loop
      vertex 7.35589 1.46318 5
      vertex 2.15773 0.429198 5
      vertex 2.18941 0.215637 5
    endloop
  endfacet
  facet normal 0 0 1
    outer loop
      vertex 7.17705 2.17713 5
      vertex 2.10527 0.638626 5
      vertex 2.15773 0.429198 5
    endloop
  endfacet
  facet normal 0 0 1
    outer loop
      vertex 6.9291 2.87012 5
      vertex 2.03253 0.841903 5
      vertex 2.10527 0.638626 5
    endloop
  endfacet
  facet normal 0 0 1
    outer loop
      vertex 6.61441 3.53547 5
      vertex 1.94023 1.03707 5
      vertex 2.03253 0.841903 5
    endloop
  endfacet
  facet normal 0 0 1
    outer loop
      vertex 6.23602 4.16678 5
      vertex 1.82923 1.22225 5
      vertex 1.94023 1.03707 5
    endloop
  endfacet
  facet normal 0 0 1
    outer loop
      vertex 5.79758 4.75795 5
      vertex 1.70062 1.39567 5
      vertex 1.82923 1.22225 5
    endloop
  endfacet
  facet normal 0 0 1
    outer loop
      vertex 5.3033 5.3033 5
      vertex 1.55563 1.55563 5
      vertex 1.70062 1.39567 5
    endloop
  endfacet
  facet normal 0 0 1
    outer loop
      vertex 0.638626 2.10527 5
      vertex 2.17713 7.17705 5
      vertex 1.46318 7.35589 5
    endloop
  endfacet
  facet normal 0 0 1
    outer loop
      vertex 4.75795 5.79758 5
      vertex 1.39567 1.70062 5
      vertex 1.55563 1.55563 5
    endloop
  endfacet
  facet normal 0 0 1
    outer loop
      vertex 4.16678 6.23602 5
      vertex 1.22225 1.82923 5
      vertex 1.39567 1.70062 5
    endloop
  endfacet
  facet normal 0 0 1
    outer loop
      vertex 3.53547 6.61441 5
      vertex 1.03707 1.94023 5
      vertex 1.22225 1.82923 5
    endloop
  endfacet
  facet normal 0 0 1
    outer loop
      vertex 2.87012 6.9291 5
      vertex 0.841903 2.03253 5
      vertex 1.03707 1.94023 5
    endloop
  endfacet
  facet normal 0 0 1
    outer loop
      vertex 0.429198 2.15773 5
      vertex 1.46318 7.35589 5
      vertex 0.735128 7.46389 5
    endloop
  endfacet
  facet normal 0 0 1
    outer loop
      vertex 2.17713 7.17705 5
      vertex 0.638626 2.10527 5
      vertex 0.841903 2.03253 5
    endloop
  endfacet
  facet normal 0 0 1
    outer loop
      vertex 1.46318 7.35589 5
      vertex 0.429198 2.15773 5
      vertex 0.638626 2.10527 5
    endloop
  endfacet
  facet normal 0 0 1
    outer loop
      vertex 0.735128 7.46389 5
      vertex 0.215637 2.18941 5
      vertex 0.429198 2.15773 5
    endloop
  endfacet
  facet normal 0 0 1
    outer loop
      vertex 0 7.5 5
      vertex 0.215637 2.18941 5
      vertex 0.735128 7.46389 5
    endloop
  endfacet
  facet normal 0 0 1
    outer loop
      vertex 0 7.5 5
      vertex 0 2.2 5
      vertex 0.215637 2.18941 5
    endloop
  endfacet
  facet normal 0 0 1
    outer loop
      vertex 0 7.5 5
      vertex -0.215637 2.18941 5
      vertex 0 2.2 5
    endloop
  endfacet
  facet normal -0 0 1
    outer loop
      vertex -0.735128 7.46389 5
      vertex -0.215637 2.18941 5
      vertex 0 7.5 5
    endloop
  endfacet
  facet normal 0 0 1
    outer loop
      vertex -0.215637 2.18941 5
      vertex -0.735128 7.46389 5
      vertex -0.429198 2.15773 5
    endloop
  endfacet
  facet normal -0 0 1
    outer loop
      vertex -1.46318 7.35589 5
      vertex -0.429198 2.15773 5
      vertex -0.735128 7.46389 5
    endloop
  endfacet
  facet normal 0 0 1
    outer loop
      vertex -0.429198 2.15773 5
      vertex -1.46318 7.35589 5
      vertex -0.638626 2.10527 5
    endloop
  endfacet
  facet normal -0 0 1
    outer loop
      vertex -2.17713 7.17705 5
      vertex -0.638626 2.10527 5
      vertex -1.46318 7.35589 5
    endloop
  endfacet
  facet normal 0 0 1
    outer loop
      vertex -0.638626 2.10527 5
      vertex -2.17713 7.17705 5
      vertex -0.841903 2.03253 5
    endloop
  endfacet
  facet normal -0 0 1
    outer loop
      vertex -2.87012 6.9291 5
      vertex -0.841903 2.03253 5
      vertex -2.17713 7.17705 5
    endloop
  endfacet
  facet normal 0 0 1
    outer loop
      vertex -0.841903 2.03253 5
      vertex -2.87012 6.9291 5
      vertex -1.03707 1.94023 5
    endloop
  endfacet
  facet normal -0 0 1
    outer loop
      vertex -3.53547 6.61441 5
      vertex -1.03707 1.94023 5
      vertex -2.87012 6.9291 5
    endloop
  endfacet
  facet normal 0 0 1
    outer loop
      vertex -1.03707 1.94023 5
      vertex -3.53547 6.61441 5
      vertex -1.22225 1.82923 5
    endloop
  endfacet
  facet normal -0 0 1
    outer loop
      vertex -4.16678 6.23602 5
      vertex -1.22225 1.82923 5
      vertex -3.53547 6.61441 5
    endloop
  endfacet
  facet normal 0 0 1
    outer loop
      vertex -1.22225 1.82923 5
      vertex -4.16678 6.23602 5
      vertex -1.39567 1.70062 5
    endloop
  endfacet
  facet normal -0 0 1
    outer loop
      vertex -4.75795 5.79758 5
      vertex -1.39567 1.70062 5
      vertex -4.16678 6.23602 5
    endloop
  endfacet
  facet normal 0 0 1
    outer loop
      vertex -1.39567 1.70062 5
      vertex -4.75795 5.79758 5
      vertex -1.55563 1.55563 5
    endloop
  endfacet
  facet normal -0 0 1
    outer loop
      vertex -5.3033 5.3033 5
      vertex -1.55563 1.55563 5
      vertex -4.75795 5.79758 5
    endloop
  endfacet
  facet normal 0 0 1
    outer loop
      vertex -1.55563 1.55563 5
      vertex -5.3033 5.3033 5
      vertex -1.70062 1.39567 5
    endloop
  endfacet
  facet normal -0 0 1
    outer loop
      vertex -5.79758 4.75795 5
      vertex -1.70062 1.39567 5
      vertex -5.3033 5.3033 5
    endloop
  endfacet
  facet normal 0 0 1
    outer loop
      vertex -1.70062 1.39567 5
      vertex -5.79758 4.75795 5
      vertex -1.82923 1.22225 5
    endloop
  endfacet
  facet normal -0 0 1
    outer loop
      vertex -6.23602 4.16678 5
      vertex -1.82923 1.22225 5
      vertex -5.79758 4.75795 5
    endloop
  endfacet
  facet normal 0 0 1
    outer loop
      vertex 6.23602 -4.16678 5
      vertex 1.82923 -1.22225 5
      vertex 5.79758 -4.75795 5
    endloop
  endfacet
  facet normal -0 0 1
    outer loop
      vertex 1.70062 -1.39567 5
      vertex 5.79758 -4.75795 5
      vertex 1.82923 -1.22225 5
    endloop
  endfacet
  facet normal 0 0 1
    outer loop
      vertex 5.79758 -4.75795 5
      vertex 1.70062 -1.39567 5
      vertex 5.3033 -5.3033 5
    endloop
  endfacet
  facet normal -0 0 1
    outer loop
      vertex 1.55563 -1.55563 5
      vertex 5.3033 -5.3033 5
      vertex 1.70062 -1.39567 5
    endloop
  endfacet
  facet normal 0 0 1
    outer loop
      vertex 5.3033 -5.3033 5
      vertex 1.55563 -1.55563 5
      vertex 4.75795 -5.79758 5
    endloop
  endfacet
  facet normal -0 0 1
    outer loop
      vertex 1.39567 -1.70062 5
      vertex 4.75795 -5.79758 5
      vertex 1.55563 -1.55563 5
    endloop
  endfacet
  facet normal 0 0 1
    outer loop
      vertex 4.75795 -5.79758 5
      vertex 1.39567 -1.70062 5
      vertex 4.16678 -6.23602 5
    endloop
  endfacet
  facet normal -0 0 1
    outer loop
      vertex 1.22225 -1.82923 5
      vertex 4.16678 -6.23602 5
      vertex 1.39567 -1.70062 5
    endloop
  endfacet
  facet normal 0 0 1
    outer loop
      vertex 4.16678 -6.23602 5
      vertex 1.22225 -1.82923 5
      vertex 3.53547 -6.61441 5
    endloop
  endfacet
  facet normal -0 0 1
    outer loop
      vertex 1.03707 -1.94023 5
      vertex 3.53547 -6.61441 5
      vertex 1.22225 -1.82923 5
    endloop
  endfacet
  facet normal 0 0 1
    outer loop
      vertex 3.53547 -6.61441 5
      vertex 1.03707 -1.94023 5
      vertex 2.87012 -6.9291 5
    endloop
  endfacet
  facet normal -0 0 1
    outer loop
      vertex 0.841903 -2.03253 5
      vertex 2.87012 -6.9291 5
      vertex 1.03707 -1.94023 5
    endloop
  endfacet
  facet normal 0 0 1
    outer loop
      vertex 2.87012 -6.9291 5
      vertex 0.841903 -2.03253 5
      vertex 2.17713 -7.17705 5
    endloop
  endfacet
  facet normal -0 0 1
    outer loop
      vertex 0.638626 -2.10527 5
      vertex 2.17713 -7.17705 5
      vertex 0.841903 -2.03253 5
    endloop
  endfacet
  facet normal 0 0 1
    outer loop
      vertex 2.17713 -7.17705 5
      vertex 0.638626 -2.10527 5
      vertex 1.46318 -7.35589 5
    endloop
  endfacet
  facet normal -0 0 1
    outer loop
      vertex 0.429198 -2.15773 5
      vertex 1.46318 -7.35589 5
      vertex 0.638626 -2.10527 5
    endloop
  endfacet
  facet normal 0 0 1
    outer loop
      vertex 1.46318 -7.35589 5
      vertex 0.429198 -2.15773 5
      vertex 0.735128 -7.46389 5
    endloop
  endfacet
  facet normal -0 0 1
    outer loop
      vertex 0.215637 -2.18941 5
      vertex 0.735128 -7.46389 5
      vertex 0.429198 -2.15773 5
    endloop
  endfacet
  facet normal -0 0 1
    outer loop
      vertex 0 -2.2 5
      vertex 0.735128 -7.46389 5
      vertex 0.215637 -2.18941 5
    endloop
  endfacet
  facet normal 0 0 1
    outer loop
      vertex 0 -2.2 5
      vertex 0 -7.5 5
      vertex 0.735128 -7.46389 5
    endloop
  endfacet
  facet normal 0 0 1
    outer loop
      vertex -0.215637 -2.18941 5
      vertex 0 -7.5 5
      vertex 0 -2.2 5
    endloop
  endfacet
  facet normal 0 0 1
    outer loop
      vertex -0.735128 -7.46389 5
      vertex -0.215637 -2.18941 5
      vertex -0.429198 -2.15773 5
    endloop
  endfacet
  facet normal 0 0 1
    outer loop
      vertex -1.46318 -7.35589 5
      vertex -0.429198 -2.15773 5
      vertex -0.638626 -2.10527 5
    endloop
  endfacet
  facet normal 0 0 1
    outer loop
      vertex -0.215637 -2.18941 5
      vertex -0.735128 -7.46389 5
      vertex 0 -7.5 5
    endloop
  endfacet
  facet normal 0 0 1
    outer loop
      vertex -2.17713 -7.17705 5
      vertex -0.638626 -2.10527 5
      vertex -0.841903 -2.03253 5
    endloop
  endfacet
  facet normal 0 0 1
    outer loop
      vertex -2.87012 -6.9291 5
      vertex -0.841903 -2.03253 5
      vertex -1.03707 -1.94023 5
    endloop
  endfacet
  facet normal 0 0 1
    outer loop
      vertex -3.53547 -6.61441 5
      vertex -1.03707 -1.94023 5
      vertex -1.22225 -1.82923 5
    endloop
  endfacet
  facet normal 0 0 1
    outer loop
      vertex -4.16678 -6.23602 5
      vertex -1.22225 -1.82923 5
      vertex -1.39567 -1.70062 5
    endloop
  endfacet
  facet normal 0 0 1
    outer loop
      vertex -0.429198 -2.15773 5
      vertex -1.46318 -7.35589 5
      vertex -0.735128 -7.46389 5
    endloop
  endfacet
  facet normal 0 0 1
    outer loop
      vertex -4.75795 -5.79758 5
      vertex -1.39567 -1.70062 5
      vertex -1.55563 -1.55563 5
    endloop
  endfacet
  facet normal 0 0 1
    outer loop
      vertex -5.3033 -5.3033 5
      vertex -1.55563 -1.55563 5
      vertex -1.70062 -1.39567 5
    endloop
  endfacet
  facet normal 0 0 1
    outer loop
      vertex -5.79758 -4.75795 5
      vertex -1.70062 -1.39567 5
      vertex -1.82923 -1.22225 5
    endloop
  endfacet
  facet normal 0 0 1
    outer loop
      vertex -6.23602 -4.16678 5
      vertex -1.82923 -1.22225 5
      vertex -1.94023 -1.03707 5
    endloop
  endfacet
  facet normal 0 0 1
    outer loop
      vertex -6.61441 -3.53547 5
      vertex -1.94023 -1.03707 5
      vertex -2.03253 -0.841903 5
    endloop
  endfacet
  facet normal 0 0 1
    outer loop
      vertex -6.9291 -2.87012 5
      vertex -2.03253 -0.841903 5
      vertex -2.10527 -0.638626 5
    endloop
  endfacet
  facet normal 0 0 1
    outer loop
      vertex -7.17705 -2.17713 5
      vertex -2.10527 -0.638626 5
      vertex -2.15773 -0.429198 5
    endloop
  endfacet
  facet normal 0 0 1
    outer loop
      vertex -0.638626 -2.10527 5
      vertex -2.17713 -7.17705 5
      vertex -1.46318 -7.35589 5
    endloop
  endfacet
  facet normal 0 0 1
    outer loop
      vertex -7.35589 -1.46318 5
      vertex -2.15773 -0.429198 5
      vertex -2.18941 -0.215637 5
    endloop
  endfacet
  facet normal 0 0 1
    outer loop
      vertex -7.46389 -0.735128 5
      vertex -2.18941 -0.215637 5
      vertex -2.2 0 5
    endloop
  endfacet
  facet normal 0 0 1
    outer loop
      vertex -1.82923 1.22225 5
      vertex -6.23602 4.16678 5
      vertex -1.94023 1.03707 5
    endloop
  endfacet
  facet normal 0 0 1
    outer loop
      vertex -0.841903 -2.03253 5
      vertex -2.87012 -6.9291 5
      vertex -2.17713 -7.17705 5
    endloop
  endfacet
  facet normal -0 0 1
    outer loop
      vertex -6.61441 3.53547 5
      vertex -1.94023 1.03707 5
      vertex -6.23602 4.16678 5
    endloop
  endfacet
  facet normal 0 0 1
    outer loop
      vertex -1.03707 -1.94023 5
      vertex -3.53547 -6.61441 5
      vertex -2.87012 -6.9291 5
    endloop
  endfacet
  facet normal 0 0 1
    outer loop
      vertex -1.94023 1.03707 5
      vertex -6.61441 3.53547 5
      vertex -2.03253 0.841903 5
    endloop
  endfacet
  facet normal 0 0 1
    outer loop
      vertex -1.22225 -1.82923 5
      vertex -4.16678 -6.23602 5
      vertex -3.53547 -6.61441 5
    endloop
  endfacet
  facet normal -0 0 1
    outer loop
      vertex -6.9291 2.87012 5
      vertex -2.03253 0.841903 5
      vertex -6.61441 3.53547 5
    endloop
  endfacet
  facet normal 0 0 1
    outer loop
      vertex -1.39567 -1.70062 5
      vertex -4.75795 -5.79758 5
      vertex -4.16678 -6.23602 5
    endloop
  endfacet
  facet normal 0 0 1
    outer loop
      vertex -2.03253 0.841903 5
      vertex -6.9291 2.87012 5
      vertex -2.10527 0.638626 5
    endloop
  endfacet
  facet normal 0 0 1
    outer loop
      vertex -1.55563 -1.55563 5
      vertex -5.3033 -5.3033 5
      vertex -4.75795 -5.79758 5
    endloop
  endfacet
  facet normal -0 0 1
    outer loop
      vertex -7.17705 2.17713 5
      vertex -2.10527 0.638626 5
      vertex -6.9291 2.87012 5
    endloop
  endfacet
  facet normal 0 0 1
    outer loop
      vertex -1.70062 -1.39567 5
      vertex -5.79758 -4.75795 5
      vertex -5.3033 -5.3033 5
    endloop
  endfacet
  facet normal 0 0 1
    outer loop
      vertex -2.10527 0.638626 5
      vertex -7.17705 2.17713 5
      vertex -2.15773 0.429198 5
    endloop
  endfacet
  facet normal 0 0 1
    outer loop
      vertex -1.82923 -1.22225 5
      vertex -6.23602 -4.16678 5
      vertex -5.79758 -4.75795 5
    endloop
  endfacet
  facet normal -0 0 1
    outer loop
      vertex -7.35589 1.46318 5
      vertex -2.15773 0.429198 5
      vertex -7.17705 2.17713 5
    endloop
  endfacet
  facet normal 0 0 1
    outer loop
      vertex -1.94023 -1.03707 5
      vertex -6.61441 -3.53547 5
      vertex -6.23602 -4.16678 5
    endloop
  endfacet
  facet normal 0 0 1
    outer loop
      vertex -2.15773 0.429198 5
      vertex -7.35589 1.46318 5
      vertex -2.18941 0.215637 5
    endloop
  endfacet
  facet normal 0 0 1
    outer loop
      vertex -2.03253 -0.841903 5
      vertex -6.9291 -2.87012 5
      vertex -6.61441 -3.53547 5
    endloop
  endfacet
  facet normal -0 0 1
    outer loop
      vertex -7.46389 0.735128 5
      vertex -2.18941 0.215637 5
      vertex -7.35589 1.46318 5
    endloop
  endfacet
  facet normal 0 0 1
    outer loop
      vertex -2.10527 -0.638626 5
      vertex -7.17705 -2.17713 5
      vertex -6.9291 -2.87012 5
    endloop
  endfacet
  facet normal 0 0 1
    outer loop
      vertex -2.18941 0.215637 5
      vertex -7.46389 0.735128 5
      vertex -2.2 0 5
    endloop
  endfacet
  facet normal 0 0 1
    outer loop
      vertex -2.15773 -0.429198 5
      vertex -7.35589 -1.46318 5
      vertex -7.17705 -2.17713 5
    endloop
  endfacet
  facet normal 0 0 1
    outer loop
      vertex -7.5 0 5
      vertex -2.2 0 5
      vertex -7.46389 0.735128 5
    endloop
  endfacet
  facet normal 0 0 1
    outer loop
      vertex -2.18941 -0.215637 5
      vertex -7.46389 -0.735128 5
      vertex -7.35589 -1.46318 5
    endloop
  endfacet
  facet normal 0 0 1
    outer loop
      vertex -2.2 0 5
      vertex -7.5 0 5
      vertex -7.46389 -0.735128 5
    endloop
  endfacet
  facet normal -0.989176 -0.146736 0
    outer loop
      vertex 2.18941 0.215637 0
      vertex 2.15773 0.429198 5
      vertex 2.15773 0.429198 0
    endloop
  endfacet
  facet normal -0.989176 -0.146736 0
    outer loop
      vertex 2.15773 0.429198 5
      vertex 2.18941 0.215637 0
      vertex 2.18941 0.215637 5
    endloop
  endfacet
  facet normal -0.998796 -0.0490512 0
    outer loop
      vertex 2.2 0 0
      vertex 2.18941 0.215637 5
      vertex 2.18941 0.215637 0
    endloop
  endfacet
  facet normal -0.998796 -0.0490512 0
    outer loop
      vertex 2.18941 0.215637 5
      vertex 2.2 0 0
      vertex 2.2 0 5
    endloop
  endfacet
  facet normal -0.97003 -0.242985 0
    outer loop
      vertex 2.15773 0.429198 0
      vertex 2.10527 0.638626 5
      vertex 2.10527 0.638626 0
    endloop
  endfacet
  facet normal -0.97003 -0.242985 0
    outer loop
      vertex 2.10527 0.638626 5
      vertex 2.15773 0.429198 0
      vertex 2.15773 0.429198 5
    endloop
  endfacet
  facet normal -0.740926 -0.671586 0
    outer loop
      vertex 1.70062 1.39567 0
      vertex 1.55563 1.55563 5
      vertex 1.55563 1.55563 0
    endloop
  endfacet
  facet normal -0.740926 -0.671586 0
    outer loop
      vertex 1.55563 1.55563 5
      vertex 1.70062 1.39567 0
      vertex 1.70062 1.39567 5
    endloop
  endfacet
  facet normal 0.857714 -0.514128 0
    outer loop
      vertex -1.94023 1.03707 5
      vertex -1.82923 1.22225 0
      vertex -1.82923 1.22225 5
    endloop
  endfacet
  facet normal 0.857714 -0.514128 0
    outer loop
      vertex -1.82923 1.22225 0
      vertex -1.94023 1.03707 5
      vertex -1.94023 1.03707 0
    endloop
  endfacet
  facet normal 0.427528 -0.904002 0
    outer loop
      vertex -1.03707 1.94023 0
      vertex -0.841903 2.03253 5
      vertex -1.03707 1.94023 5
    endloop
  endfacet
  facet normal 0.427528 -0.904002 0
    outer loop
      vertex -0.841903 2.03253 5
      vertex -1.03707 1.94023 0
      vertex -0.841903 2.03253 0
    endloop
  endfacet
  facet normal -0.146736 0.989176 0
    outer loop
      vertex 0.429198 -2.15773 0
      vertex 0.215637 -2.18941 5
      vertex 0.429198 -2.15773 5
    endloop
  endfacet
  facet normal -0.146736 0.989176 0
    outer loop
      vertex 0.215637 -2.18941 5
      vertex 0.429198 -2.15773 0
      vertex 0.215637 -2.18941 0
    endloop
  endfacet
  facet normal -0.336916 -0.941535 0
    outer loop
      vertex 0.638626 2.10527 0
      vertex 0.841903 2.03253 5
      vertex 0.638626 2.10527 5
    endloop
  endfacet
  facet normal -0.336916 -0.941535 -0
    outer loop
      vertex 0.841903 2.03253 5
      vertex 0.638626 2.10527 0
      vertex 0.841903 2.03253 0
    endloop
  endfacet
  facet normal -0.514128 -0.857714 0
    outer loop
      vertex 1.03707 1.94023 0
      vertex 1.22225 1.82923 5
      vertex 1.03707 1.94023 5
    endloop
  endfacet
  facet normal -0.514128 -0.857714 -0
    outer loop
      vertex 1.22225 1.82923 5
      vertex 1.03707 1.94023 0
      vertex 1.22225 1.82923 0
    endloop
  endfacet
  facet normal -0.998796 0.0490512 0
    outer loop
      vertex 2.18941 -0.215637 0
      vertex 2.2 0 5
      vertex 2.2 0 0
    endloop
  endfacet
  facet normal -0.998796 0.0490512 0
    outer loop
      vertex 2.2 0 5
      vertex 2.18941 -0.215637 0
      vertex 2.18941 -0.215637 5
    endloop
  endfacet
  facet normal -0.803223 0.595678 0
    outer loop
      vertex 1.70062 -1.39567 0
      vertex 1.82923 -1.22225 5
      vertex 1.82923 -1.22225 0
    endloop
  endfacet
  facet normal -0.803223 0.595678 0
    outer loop
      vertex 1.82923 -1.22225 5
      vertex 1.70062 -1.39567 0
      vertex 1.70062 -1.39567 5
    endloop
  endfacet
  facet normal -0.0490512 -0.998796 0
    outer loop
      vertex 0 2.2 0
      vertex 0.215637 2.18941 5
      vertex 0 2.2 5
    endloop
  endfacet
  facet normal -0.0490512 -0.998796 -0
    outer loop
      vertex 0.215637 2.18941 5
      vertex 0 2.2 0
      vertex 0.215637 2.18941 0
    endloop
  endfacet
  facet normal 0.740926 0.671586 0
    outer loop
      vertex -1.55563 -1.55563 5
      vertex -1.70062 -1.39567 0
      vertex -1.70062 -1.39567 5
    endloop
  endfacet
  facet normal 0.740926 0.671586 0
    outer loop
      vertex -1.70062 -1.39567 0
      vertex -1.55563 -1.55563 5
      vertex -1.55563 -1.55563 0
    endloop
  endfacet
  facet normal 0.514128 -0.857714 0
    outer loop
      vertex -1.22225 1.82923 0
      vertex -1.03707 1.94023 5
      vertex -1.22225 1.82923 5
    endloop
  endfacet
  facet normal 0.514128 -0.857714 0
    outer loop
      vertex -1.03707 1.94023 5
      vertex -1.22225 1.82923 0
      vertex -1.03707 1.94023 0
    endloop
  endfacet
  facet normal 0.427528 0.904002 -0
    outer loop
      vertex -0.841903 -2.03253 0
      vertex -1.03707 -1.94023 5
      vertex -0.841903 -2.03253 5
    endloop
  endfacet
  facet normal 0.427528 0.904002 0
    outer loop
      vertex -1.03707 -1.94023 5
      vertex -0.841903 -2.03253 0
      vertex -1.03707 -1.94023 0
    endloop
  endfacet
  facet normal -0.242985 0.97003 0
    outer loop
      vertex 0.638626 -2.10527 0
      vertex 0.429198 -2.15773 5
      vertex 0.638626 -2.10527 5
    endloop
  endfacet
  facet normal -0.242985 0.97003 0
    outer loop
      vertex 0.429198 -2.15773 5
      vertex 0.638626 -2.10527 0
      vertex 0.429198 -2.15773 0
    endloop
  endfacet
  facet normal -0.514128 0.857714 0
    outer loop
      vertex 1.22225 -1.82923 0
      vertex 1.03707 -1.94023 5
      vertex 1.22225 -1.82923 5
    endloop
  endfacet
  facet normal -0.514128 0.857714 0
    outer loop
      vertex 1.03707 -1.94023 5
      vertex 1.22225 -1.82923 0
      vertex 1.03707 -1.94023 0
    endloop
  endfacet
  facet normal -0.941535 0.336916 0
    outer loop
      vertex 2.03253 -0.841903 0
      vertex 2.10527 -0.638626 5
      vertex 2.10527 -0.638626 0
    endloop
  endfacet
  facet normal -0.941535 0.336916 0
    outer loop
      vertex 2.10527 -0.638626 5
      vertex 2.03253 -0.841903 0
      vertex 2.03253 -0.841903 5
    endloop
  endfacet
  facet normal 0.740926 -0.671586 0
    outer loop
      vertex -1.70062 1.39567 5
      vertex -1.55563 1.55563 0
      vertex -1.55563 1.55563 5
    endloop
  endfacet
  facet normal 0.740926 -0.671586 0
    outer loop
      vertex -1.55563 1.55563 0
      vertex -1.70062 1.39567 5
      vertex -1.70062 1.39567 0
    endloop
  endfacet
  facet normal 0.0490512 -0.998796 0
    outer loop
      vertex -0.215637 2.18941 0
      vertex 0 2.2 5
      vertex -0.215637 2.18941 5
    endloop
  endfacet
  facet normal 0.0490512 -0.998796 0
    outer loop
      vertex 0 2.2 5
      vertex -0.215637 2.18941 0
      vertex 0 2.2 0
    endloop
  endfacet
  facet normal 0.671586 -0.740926 0
    outer loop
      vertex -1.55563 1.55563 0
      vertex -1.39567 1.70062 5
      vertex -1.55563 1.55563 5
    endloop
  endfacet
  facet normal 0.671586 -0.740926 0
    outer loop
      vertex -1.39567 1.70062 5
      vertex -1.55563 1.55563 0
      vertex -1.39567 1.70062 0
    endloop
  endfacet
  facet normal 0.146736 -0.989176 0
    outer loop
      vertex -0.429198 2.15773 0
      vertex -0.215637 2.18941 5
      vertex -0.429198 2.15773 5
    endloop
  endfacet
  facet normal 0.146736 -0.989176 0
    outer loop
      vertex -0.215637 2.18941 5
      vertex -0.429198 2.15773 0
      vertex -0.215637 2.18941 0
    endloop
  endfacet
  facet normal -0.857714 0.514128 0
    outer loop
      vertex 1.82923 -1.22225 0
      vertex 1.94023 -1.03707 5
      vertex 1.94023 -1.03707 0
    endloop
  endfacet
  facet normal -0.857714 0.514128 0
    outer loop
      vertex 1.94023 -1.03707 5
      vertex 1.82923 -1.22225 0
      vertex 1.82923 -1.22225 5
    endloop
  endfacet
  facet normal -0.427528 0.904002 0
    outer loop
      vertex 1.03707 -1.94023 0
      vertex 0.841903 -2.03253 5
      vertex 1.03707 -1.94023 5
    endloop
  endfacet
  facet normal -0.427528 0.904002 0
    outer loop
      vertex 0.841903 -2.03253 5
      vertex 1.03707 -1.94023 0
      vertex 0.841903 -2.03253 0
    endloop
  endfacet
  facet normal 0.336916 0.941535 -0
    outer loop
      vertex -0.638626 -2.10527 0
      vertex -0.841903 -2.03253 5
      vertex -0.638626 -2.10527 5
    endloop
  endfacet
  facet normal 0.336916 0.941535 0
    outer loop
      vertex -0.841903 -2.03253 5
      vertex -0.638626 -2.10527 0
      vertex -0.841903 -2.03253 0
    endloop
  endfacet
  facet normal -0.671586 -0.740926 0
    outer loop
      vertex 1.39567 1.70062 0
      vertex 1.55563 1.55563 5
      vertex 1.39567 1.70062 5
    endloop
  endfacet
  facet normal -0.671586 -0.740926 -0
    outer loop
      vertex 1.55563 1.55563 5
      vertex 1.39567 1.70062 0
      vertex 1.55563 1.55563 0
    endloop
  endfacet
  facet normal 0.242985 -0.97003 0
    outer loop
      vertex -0.638626 2.10527 0
      vertex -0.429198 2.15773 5
      vertex -0.638626 2.10527 5
    endloop
  endfacet
  facet normal 0.242985 -0.97003 0
    outer loop
      vertex -0.429198 2.15773 5
      vertex -0.638626 2.10527 0
      vertex -0.429198 2.15773 0
    endloop
  endfacet
  facet normal -0.427528 -0.904002 0
    outer loop
      vertex 0.841903 2.03253 0
      vertex 1.03707 1.94023 5
      vertex 0.841903 2.03253 5
    endloop
  endfacet
  facet normal -0.427528 -0.904002 -0
    outer loop
      vertex 1.03707 1.94023 5
      vertex 0.841903 2.03253 0
      vertex 1.03707 1.94023 0
    endloop
  endfacet
  facet normal 0.803223 -0.595678 0
    outer loop
      vertex -1.82923 1.22225 5
      vertex -1.70062 1.39567 0
      vertex -1.70062 1.39567 5
    endloop
  endfacet
  facet normal 0.803223 -0.595678 0
    outer loop
      vertex -1.70062 1.39567 0
      vertex -1.82923 1.22225 5
      vertex -1.82923 1.22225 0
    endloop
  endfacet
  facet normal -0.0490512 0.998796 0
    outer loop
      vertex 0.215637 -2.18941 0
      vertex 0 -2.2 5
      vertex 0.215637 -2.18941 5
    endloop
  endfacet
  facet normal -0.0490512 0.998796 0
    outer loop
      vertex 0 -2.2 5
      vertex 0.215637 -2.18941 0
      vertex 0 -2.2 0
    endloop
  endfacet
  facet normal -0.803223 -0.595678 0
    outer loop
      vertex 1.82923 1.22225 0
      vertex 1.70062 1.39567 5
      vertex 1.70062 1.39567 0
    endloop
  endfacet
  facet normal -0.803223 -0.595678 0
    outer loop
      vertex 1.70062 1.39567 5
      vertex 1.82923 1.22225 0
      vertex 1.82923 1.22225 5
    endloop
  endfacet
  facet normal -0.904002 0.427528 0
    outer loop
      vertex 1.94023 -1.03707 0
      vertex 2.03253 -0.841903 5
      vertex 2.03253 -0.841903 0
    endloop
  endfacet
  facet normal -0.904002 0.427528 0
    outer loop
      vertex 2.03253 -0.841903 5
      vertex 1.94023 -1.03707 0
      vertex 1.94023 -1.03707 5
    endloop
  endfacet
  facet normal 0.242985 0.97003 -0
    outer loop
      vertex -0.429198 -2.15773 0
      vertex -0.638626 -2.10527 5
      vertex -0.429198 -2.15773 5
    endloop
  endfacet
  facet normal 0.242985 0.97003 0
    outer loop
      vertex -0.638626 -2.10527 5
      vertex -0.429198 -2.15773 0
      vertex -0.638626 -2.10527 0
    endloop
  endfacet
  facet normal 0.671586 0.740926 -0
    outer loop
      vertex -1.39567 -1.70062 0
      vertex -1.55563 -1.55563 5
      vertex -1.39567 -1.70062 5
    endloop
  endfacet
  facet normal 0.671586 0.740926 0
    outer loop
      vertex -1.55563 -1.55563 5
      vertex -1.39567 -1.70062 0
      vertex -1.55563 -1.55563 0
    endloop
  endfacet
  facet normal 0.989176 -0.146736 0
    outer loop
      vertex -2.18941 0.215637 5
      vertex -2.15773 0.429198 0
      vertex -2.15773 0.429198 5
    endloop
  endfacet
  facet normal 0.989176 -0.146736 0
    outer loop
      vertex -2.15773 0.429198 0
      vertex -2.18941 0.215637 5
      vertex -2.18941 0.215637 0
    endloop
  endfacet
  facet normal 0.998796 -0.0490512 0
    outer loop
      vertex -2.2 0 5
      vertex -2.18941 0.215637 0
      vertex -2.18941 0.215637 5
    endloop
  endfacet
  facet normal 0.998796 -0.0490512 0
    outer loop
      vertex -2.18941 0.215637 0
      vertex -2.2 0 5
      vertex -2.2 0 0
    endloop
  endfacet
  facet normal -0.336916 0.941535 0
    outer loop
      vertex 0.841903 -2.03253 0
      vertex 0.638626 -2.10527 5
      vertex 0.841903 -2.03253 5
    endloop
  endfacet
  facet normal -0.336916 0.941535 0
    outer loop
      vertex 0.638626 -2.10527 5
      vertex 0.841903 -2.03253 0
      vertex 0.638626 -2.10527 0
    endloop
  endfacet
  facet normal -0.671586 0.740926 0
    outer loop
      vertex 1.55563 -1.55563 0
      vertex 1.39567 -1.70062 5
      vertex 1.55563 -1.55563 5
    endloop
  endfacet
  facet normal -0.671586 0.740926 0
    outer loop
      vertex 1.39567 -1.70062 5
      vertex 1.55563 -1.55563 0
      vertex 1.39567 -1.70062 0
    endloop
  endfacet
  facet normal -0.97003 0.242985 0
    outer loop
      vertex 2.10527 -0.638626 0
      vertex 2.15773 -0.429198 5
      vertex 2.15773 -0.429198 0
    endloop
  endfacet
  facet normal -0.97003 0.242985 0
    outer loop
      vertex 2.15773 -0.429198 5
      vertex 2.10527 -0.638626 0
      vertex 2.10527 -0.638626 5
    endloop
  endfacet
  facet normal -0.740926 0.671586 0
    outer loop
      vertex 1.55563 -1.55563 0
      vertex 1.70062 -1.39567 5
      vertex 1.70062 -1.39567 0
    endloop
  endfacet
  facet normal -0.740926 0.671586 0
    outer loop
      vertex 1.70062 -1.39567 5
      vertex 1.55563 -1.55563 0
      vertex 1.55563 -1.55563 5
    endloop
  endfacet
  facet normal -0.941535 -0.336916 0
    outer loop
      vertex 2.10527 0.638626 0
      vertex 2.03253 0.841903 5
      vertex 2.03253 0.841903 0
    endloop
  endfacet
  facet normal -0.941535 -0.336916 0
    outer loop
      vertex 2.03253 0.841903 5
      vertex 2.10527 0.638626 0
      vertex 2.10527 0.638626 5
    endloop
  endfacet
  facet normal -0.595678 -0.803223 0
    outer loop
      vertex 1.22225 1.82923 0
      vertex 1.39567 1.70062 5
      vertex 1.22225 1.82923 5
    endloop
  endfacet
  facet normal -0.595678 -0.803223 -0
    outer loop
      vertex 1.39567 1.70062 5
      vertex 1.22225 1.82923 0
      vertex 1.39567 1.70062 0
    endloop
  endfacet
  facet normal 0.904002 -0.427528 0
    outer loop
      vertex -2.03253 0.841903 5
      vertex -1.94023 1.03707 0
      vertex -1.94023 1.03707 5
    endloop
  endfacet
  facet normal 0.904002 -0.427528 0
    outer loop
      vertex -1.94023 1.03707 0
      vertex -2.03253 0.841903 5
      vertex -2.03253 0.841903 0
    endloop
  endfacet
  facet normal 0.97003 0.242985 0
    outer loop
      vertex -2.10527 -0.638626 5
      vertex -2.15773 -0.429198 0
      vertex -2.15773 -0.429198 5
    endloop
  endfacet
  facet normal 0.97003 0.242985 0
    outer loop
      vertex -2.15773 -0.429198 0
      vertex -2.10527 -0.638626 5
      vertex -2.10527 -0.638626 0
    endloop
  endfacet
  facet normal -0.904002 -0.427528 0
    outer loop
      vertex 2.03253 0.841903 0
      vertex 1.94023 1.03707 5
      vertex 1.94023 1.03707 0
    endloop
  endfacet
  facet normal -0.904002 -0.427528 0
    outer loop
      vertex 1.94023 1.03707 5
      vertex 2.03253 0.841903 0
      vertex 2.03253 0.841903 5
    endloop
  endfacet
  facet normal -0.989176 0.146736 0
    outer loop
      vertex 2.15773 -0.429198 0
      vertex 2.18941 -0.215637 5
      vertex 2.18941 -0.215637 0
    endloop
  endfacet
  facet normal -0.989176 0.146736 0
    outer loop
      vertex 2.18941 -0.215637 5
      vertex 2.15773 -0.429198 0
      vertex 2.15773 -0.429198 5
    endloop
  endfacet
  facet normal -0.857714 -0.514128 0
    outer loop
      vertex 1.94023 1.03707 0
      vertex 1.82923 1.22225 5
      vertex 1.82923 1.22225 0
    endloop
  endfacet
  facet normal -0.857714 -0.514128 0
    outer loop
      vertex 1.82923 1.22225 5
      vertex 1.94023 1.03707 0
      vertex 1.94023 1.03707 5
    endloop
  endfacet
  facet normal 0.336916 -0.941535 0
    outer loop
      vertex -0.841903 2.03253 0
      vertex -0.638626 2.10527 5
      vertex -0.841903 2.03253 5
    endloop
  endfacet
  facet normal 0.336916 -0.941535 0
    outer loop
      vertex -0.638626 2.10527 5
      vertex -0.841903 2.03253 0
      vertex -0.638626 2.10527 0
    endloop
  endfacet
  facet normal 0.803223 0.595678 0
    outer loop
      vertex -1.70062 -1.39567 5
      vertex -1.82923 -1.22225 0
      vertex -1.82923 -1.22225 5
    endloop
  endfacet
  facet normal 0.803223 0.595678 0
    outer loop
      vertex -1.82923 -1.22225 0
      vertex -1.70062 -1.39567 5
      vertex -1.70062 -1.39567 0
    endloop
  endfacet
  facet normal 0.857714 0.514128 0
    outer loop
      vertex -1.82923 -1.22225 5
      vertex -1.94023 -1.03707 0
      vertex -1.94023 -1.03707 5
    endloop
  endfacet
  facet normal 0.857714 0.514128 0
    outer loop
      vertex -1.94023 -1.03707 0
      vertex -1.82923 -1.22225 5
      vertex -1.82923 -1.22225 0
    endloop
  endfacet
  facet normal 0.989176 0.146736 0
    outer loop
      vertex -2.15773 -0.429198 5
      vertex -2.18941 -0.215637 0
      vertex -2.18941 -0.215637 5
    endloop
  endfacet
  facet normal 0.989176 0.146736 0
    outer loop
      vertex -2.18941 -0.215637 0
      vertex -2.15773 -0.429198 5
      vertex -2.15773 -0.429198 0
    endloop
  endfacet
  facet normal 0.0490512 0.998796 -0
    outer loop
      vertex 0 -2.2 0
      vertex -0.215637 -2.18941 5
      vertex 0 -2.2 5
    endloop
  endfacet
  facet normal 0.0490512 0.998796 0
    outer loop
      vertex -0.215637 -2.18941 5
      vertex 0 -2.2 0
      vertex -0.215637 -2.18941 0
    endloop
  endfacet
  facet normal 0.97003 -0.242985 0
    outer loop
      vertex -2.15773 0.429198 5
      vertex -2.10527 0.638626 0
      vertex -2.10527 0.638626 5
    endloop
  endfacet
  facet normal 0.97003 -0.242985 0
    outer loop
      vertex -2.10527 0.638626 0
      vertex -2.15773 0.429198 5
      vertex -2.15773 0.429198 0
    endloop
  endfacet
  facet normal 0.904002 0.427528 0
    outer loop
      vertex -1.94023 -1.03707 5
      vertex -2.03253 -0.841903 0
      vertex -2.03253 -0.841903 5
    endloop
  endfacet
  facet normal 0.904002 0.427528 0
    outer loop
      vertex -2.03253 -0.841903 0
      vertex -1.94023 -1.03707 5
      vertex -1.94023 -1.03707 0
    endloop
  endfacet
  facet normal -0.242985 -0.97003 0
    outer loop
      vertex 0.429198 2.15773 0
      vertex 0.638626 2.10527 5
      vertex 0.429198 2.15773 5
    endloop
  endfacet
  facet normal -0.242985 -0.97003 -0
    outer loop
      vertex 0.638626 2.10527 5
      vertex 0.429198 2.15773 0
      vertex 0.638626 2.10527 0
    endloop
  endfacet
  facet normal 0.941535 0.336916 0
    outer loop
      vertex -2.03253 -0.841903 5
      vertex -2.10527 -0.638626 0
      vertex -2.10527 -0.638626 5
    endloop
  endfacet
  facet normal 0.941535 0.336916 0
    outer loop
      vertex -2.10527 -0.638626 0
      vertex -2.03253 -0.841903 5
      vertex -2.03253 -0.841903 0
    endloop
  endfacet
  facet normal -0.595678 0.803223 0
    outer loop
      vertex 1.39567 -1.70062 0
      vertex 1.22225 -1.82923 5
      vertex 1.39567 -1.70062 5
    endloop
  endfacet
  facet normal -0.595678 0.803223 0
    outer loop
      vertex 1.22225 -1.82923 5
      vertex 1.39567 -1.70062 0
      vertex 1.22225 -1.82923 0
    endloop
  endfacet
  facet normal 0.595678 -0.803223 0
    outer loop
      vertex -1.39567 1.70062 0
      vertex -1.22225 1.82923 5
      vertex -1.39567 1.70062 5
    endloop
  endfacet
  facet normal 0.595678 -0.803223 0
    outer loop
      vertex -1.22225 1.82923 5
      vertex -1.39567 1.70062 0
      vertex -1.22225 1.82923 0
    endloop
  endfacet
  facet normal 0.941535 -0.336916 0
    outer loop
      vertex -2.10527 0.638626 5
      vertex -2.03253 0.841903 0
      vertex -2.03253 0.841903 5
    endloop
  endfacet
  facet normal 0.941535 -0.336916 0
    outer loop
      vertex -2.03253 0.841903 0
      vertex -2.10527 0.638626 5
      vertex -2.10527 0.638626 0
    endloop
  endfacet
  facet normal 0.146736 0.989176 -0
    outer loop
      vertex -0.215637 -2.18941 0
      vertex -0.429198 -2.15773 5
      vertex -0.215637 -2.18941 5
    endloop
  endfacet
  facet normal 0.146736 0.989176 0
    outer loop
      vertex -0.429198 -2.15773 5
      vertex -0.215637 -2.18941 0
      vertex -0.429198 -2.15773 0
    endloop
  endfacet
  facet normal 0.595678 0.803223 -0
    outer loop
      vertex -1.22225 -1.82923 0
      vertex -1.39567 -1.70062 5
      vertex -1.22225 -1.82923 5
    endloop
  endfacet
  facet normal 0.595678 0.803223 0
    outer loop
      vertex -1.39567 -1.70062 5
      vertex -1.22225 -1.82923 0
      vertex -1.39567 -1.70062 0
    endloop
  endfacet
  facet normal 0.514128 0.857714 -0
    outer loop
      vertex -1.03707 -1.94023 0
      vertex -1.22225 -1.82923 5
      vertex -1.03707 -1.94023 5
    endloop
  endfacet
  facet normal 0.514128 0.857714 0
    outer loop
      vertex -1.22225 -1.82923 5
      vertex -1.03707 -1.94023 0
      vertex -1.22225 -1.82923 0
    endloop
  endfacet
  facet normal 0.998796 0.0490512 0
    outer loop
      vertex -2.18941 -0.215637 5
      vertex -2.2 0 0
      vertex -2.2 0 5
    endloop
  endfacet
  facet normal 0.998796 0.0490512 0
    outer loop
      vertex -2.2 0 0
      vertex -2.18941 -0.215637 5
      vertex -2.18941 -0.215637 0
    endloop
  endfacet
  facet normal -0.146736 -0.989176 0
    outer loop
      vertex 0.215637 2.18941 0
      vertex 0.429198 2.15773 5
      vertex 0.215637 2.18941 5
    endloop
  endfacet
  facet normal -0.146736 -0.989176 -0
    outer loop
      vertex 0.429198 2.15773 5
      vertex 0.215637 2.18941 0
      vertex 0.429198 2.15773 0
    endloop
  endfacet
endsolid OpenSCAD_Model
