  0
SECTION
  2
BLOCKS
  0
ENDSEC
  0
SECTION
  2
ENTITIES
  0
LINE
  8
0
 10
19.1409
 20
9.77843
 11
19.2048
 21
9.79558
  0
LINE
  8
0
 10
19.2048
 20
9.79558
 11
19.2633
 21
9.82419
  0
LINE
  8
0
 10
19.2633
 20
9.82419
 11
19.3166
 21
9.86423
  0
LINE
  8
0
 10
19.3166
 20
9.86423
 11
19.361
 21
9.91245
  0
LINE
  8
0
 10
19.361
 20
9.91245
 11
19.3926
 21
9.96558
  0
LINE
  8
0
 10
19.3926
 20
9.96558
 11
19.4117
 21
10.0236
  0
LINE
  8
0
 10
19.4117
 20
10.0236
 11
19.418
 21
10.0865
  0
LINE
  8
0
 10
19.418
 20
10.0865
 11
19.4117
 21
10.1495
  0
LINE
  8
0
 10
19.4117
 20
10.1495
 11
19.3926
 21
10.2075
  0
LINE
  8
0
 10
19.3926
 20
10.2075
 11
19.361
 21
10.2606
  0
LINE
  8
0
 10
19.361
 20
10.2606
 11
19.3166
 21
10.3088
  0
LINE
  8
0
 10
19.3166
 20
10.3088
 11
19.2633
 21
10.3489
  0
LINE
  8
0
 10
19.2633
 20
10.3489
 11
19.2048
 21
10.3775
  0
LINE
  8
0
 10
19.2048
 20
10.3775
 11
19.1409
 21
10.3946
  0
LINE
  8
0
 10
19.1409
 20
10.3946
 11
19.0719
 21
10.4004
  0
LINE
  8
0
 10
19.0719
 20
10.4004
 11
19.0036
 21
10.3946
  0
LINE
  8
0
 10
19.0036
 20
10.3946
 11
18.9404
 21
10.3775
  0
LINE
  8
0
 10
18.9404
 20
10.3775
 11
18.8822
 21
10.3489
  0
LINE
  8
0
 10
18.8822
 20
10.3489
 11
18.829
 21
10.3088
  0
LINE
  8
0
 10
18.829
 20
10.3088
 11
18.7846
 21
10.2606
  0
LINE
  8
0
 10
18.7846
 20
10.2606
 11
18.753
 21
10.2075
  0
LINE
  8
0
 10
18.753
 20
10.2075
 11
18.734
 21
10.1495
  0
LINE
  8
0
 10
18.734
 20
10.1495
 11
18.7276
 21
10.0865
  0
LINE
  8
0
 10
18.7276
 20
10.0865
 11
18.734
 21
10.0236
  0
LINE
  8
0
 10
18.734
 20
10.0236
 11
18.753
 21
9.96558
  0
LINE
  8
0
 10
18.753
 20
9.96558
 11
18.7846
 21
9.91245
  0
LINE
  8
0
 10
18.7846
 20
9.91245
 11
18.829
 21
9.86423
  0
LINE
  8
0
 10
18.829
 20
9.86423
 11
18.8822
 21
9.82419
  0
LINE
  8
0
 10
18.8822
 20
9.82419
 11
18.9404
 21
9.79558
  0
LINE
  8
0
 10
18.9404
 20
9.79558
 11
19.0036
 21
9.77843
  0
LINE
  8
0
 10
19.0036
 20
9.77843
 11
19.0719
 21
9.77271
  0
LINE
  8
0
 10
19.0719
 20
9.77271
 11
19.1409
 21
9.77843
  0
LINE
  8
0
 10
4.47058
 20
3.3815
 11
4.47058
 21
7.53613
  0
LINE
  8
0
 10
4.47058
 20
7.53613
 11
8.22185
 21
9.9563
  0
LINE
  8
0
 10
8.22185
 20
9.9563
 11
8.17888
 21
9.99774
  0
LINE
  8
0
 10
8.17888
 20
9.99774
 11
8.13472
 21
10.0373
  0
LINE
  8
0
 10
8.13472
 20
10.0373
 11
8.08934
 21
10.075
  0
LINE
  8
0
 10
8.08934
 20
10.075
 11
8.04276
 21
10.1109
  0
LINE
  8
0
 10
8.04276
 20
10.1109
 11
7.99495
 21
10.1447
  0
LINE
  8
0
 10
7.99495
 20
10.1447
 11
7.94594
 21
10.1767
  0
LINE
  8
0
 10
7.94594
 20
10.1767
 11
7.89572
 21
10.2066
  0
LINE
  8
0
 10
7.89572
 20
10.2066
 11
7.8443
 21
10.2345
  0
LINE
  8
0
 10
7.8443
 20
10.2345
 11
7.79166
 21
10.2603
  0
LINE
  8
0
 10
7.79166
 20
10.2603
 11
7.73781
 21
10.284
  0
LINE
  8
0
 10
7.73781
 20
10.284
 11
7.68275
 21
10.3056
  0
LINE
  8
0
 10
7.68275
 20
10.3056
 11
7.62648
 21
10.3251
  0
LINE
  8
0
 10
7.62648
 20
10.3251
 11
7.569
 21
10.3424
  0
LINE
  8
0
 10
7.569
 20
10.3424
 11
7.51031
 21
10.3575
  0
LINE
  8
0
 10
7.51031
 20
10.3575
 11
7.45041
 21
10.3704
  0
LINE
  8
0
 10
7.45041
 20
10.3704
 11
7.3893
 21
10.381
  0
LINE
  8
0
 10
7.3893
 20
10.381
 11
7.32698
 21
10.3892
  0
LINE
  8
0
 10
7.32698
 20
10.3892
 11
7.26346
 21
10.3952
  0
LINE
  8
0
 10
7.26346
 20
10.3952
 11
7.19872
 21
10.3988
  0
LINE
  8
0
 10
7.19872
 20
10.3988
 11
7.13277
 21
10.4
  0
LINE
  8
0
 10
7.13277
 20
10.4
 11
3.2605
 21
10.4
  0
LINE
  8
0
 10
3.2605
 20
10.4
 11
3.05701
 21
10.3919
  0
LINE
  8
0
 10
3.05701
 20
10.3919
 11
2.85835
 21
10.3681
  0
LINE
  8
0
 10
2.85835
 20
10.3681
 11
2.66513
 21
10.3291
  0
LINE
  8
0
 10
2.66513
 20
10.3291
 11
2.47798
 21
10.2754
  0
LINE
  8
0
 10
2.47798
 20
10.2754
 11
2.29747
 21
10.2078
  0
LINE
  8
0
 10
2.29747
 20
10.2078
 11
2.12422
 21
10.1266
  0
LINE
  8
0
 10
2.12422
 20
10.1266
 11
1.95885
 21
10.0326
  0
LINE
  8
0
 10
1.95885
 20
10.0326
 11
1.80194
 21
9.92628
  0
LINE
  8
0
 10
1.80194
 20
9.92628
 11
1.65411
 21
9.80821
  0
LINE
  8
0
 10
1.65411
 20
9.80821
 11
1.51596
 21
9.67899
  0
LINE
  8
0
 10
1.51596
 20
9.67899
 11
1.38809
 21
9.53917
  0
LINE
  8
0
 10
1.38809
 20
9.53917
 11
1.27112
 21
9.38933
  0
LINE
  8
0
 10
1.27112
 20
9.38933
 11
1.16563
 21
9.23006
  0
LINE
  8
0
 10
1.16563
 20
9.23006
 11
1.07227
 21
9.06192
  0
LINE
  8
0
 10
1.07227
 20
9.06192
 11
0.991592
 21
8.8855
  0
LINE
  8
0
 10
0.991592
 20
8.8855
 11
0.924225
 21
8.70135
  0
LINE
  8
0
 10
0.924225
 20
8.70135
 11
0.870789
 21
8.51007
  0
LINE
  8
0
 10
0.870789
 20
8.51007
 11
0.831863
 21
8.31224
  0
LINE
  8
0
 10
0.831863
 20
8.31224
 11
0.80806
 21
8.1084
  0
LINE
  8
0
 10
0.80806
 20
8.1084
 11
0.799988
 21
7.89915
  0
LINE
  8
0
 10
0.799988
 20
7.89915
 11
0.799988
 21
2.73613
  0
LINE
  8
0
 10
0.799988
 20
2.73613
 11
0.800613
 21
2.66383
  0
LINE
  8
0
 10
0.800613
 20
2.66383
 11
0.80249
 21
2.59221
  0
LINE
  8
0
 10
0.80249
 20
2.59221
 11
0.80571
 21
2.5213
  0
LINE
  8
0
 10
0.80571
 20
2.5213
 11
0.810318
 21
2.45119
  0
LINE
  8
0
 10
0.810318
 20
2.45119
 11
0.816376
 21
2.38193
  0
LINE
  8
0
 10
0.816376
 20
2.38193
 11
0.823959
 21
2.31357
  0
LINE
  8
0
 10
0.823959
 20
2.31357
 11
0.833099
 21
2.24617
  0
LINE
  8
0
 10
0.833099
 20
2.24617
 11
0.843872
 21
2.17981
  0
LINE
  8
0
 10
0.843872
 20
2.17981
 11
0.856354
 21
2.11453
  0
LINE
  8
0
 10
0.856354
 20
2.11453
 11
0.870575
 21
2.05042
  0
LINE
  8
0
 10
0.870575
 20
2.05042
 11
0.886627
 21
1.9875
  0
LINE
  8
0
 10
0.886627
 20
1.9875
 11
0.904541
 21
1.92586
  0
LINE
  8
0
 10
0.904541
 20
1.92586
 11
0.924393
 21
1.86554
  0
LINE
  8
0
 10
0.924393
 20
1.86554
 11
0.946243
 21
1.80663
  0
LINE
  8
0
 10
0.946243
 20
1.80663
 11
0.970154
 21
1.74915
  0
LINE
  8
0
 10
0.970154
 20
1.74915
 11
0.996185
 21
1.69319
  0
LINE
  8
0
 10
0.996185
 20
1.69319
 11
1.0244
 21
1.63881
  0
LINE
  8
0
 10
1.0244
 20
1.63881
 11
1.05484
 21
1.58606
  0
LINE
  8
0
 10
1.05484
 20
1.58606
 11
1.08759
 21
1.535
  0
LINE
  8
0
 10
1.08759
 20
1.535
 11
1.12268
 21
1.4857
  0
LINE
  8
0
 10
1.12268
 20
1.4857
 11
4.47058
 21
3.3815
  0
LINE
  8
0
 10
26.5713
 20
7.41676
 11
26.6752
 21
7.43796
  0
LINE
  8
0
 10
26.6752
 20
7.43796
 11
26.7669
 21
7.47327
  0
LINE
  8
0
 10
26.7669
 20
7.47327
 11
26.8462
 21
7.52272
  0
LINE
  8
0
 10
26.8462
 20
7.52272
 11
26.9141
 21
7.58102
  0
LINE
  8
0
 10
26.9141
 20
7.58102
 11
26.9716
 21
7.64296
  0
LINE
  8
0
 10
26.9716
 20
7.64296
 11
27.0188
 21
7.70853
  0
LINE
  8
0
 10
27.0188
 20
7.70853
 11
27.0556
 21
7.77769
  0
LINE
  8
0
 10
27.0556
 20
7.77769
 11
27.0785
 21
7.77769
  0
LINE
  8
0
 10
27.0785
 20
7.77769
 11
27.0785
 21
7.43959
  0
LINE
  8
0
 10
27.0785
 20
7.43959
 11
27.7363
 21
7.43959
  0
LINE
  8
0
 10
27.7363
 20
7.43959
 11
27.7363
 21
10.2229
  0
LINE
  8
0
 10
27.7363
 20
10.2229
 11
27.0709
 21
10.2229
  0
LINE
  8
0
 10
27.0709
 20
10.2229
 11
27.0709
 21
9.16933
  0
LINE
  8
0
 10
27.0709
 20
9.16933
 11
27.0556
 21
9.16933
  0
LINE
  8
0
 10
27.0556
 20
9.16933
 11
27.0331
 21
9.21574
  0
LINE
  8
0
 10
27.0331
 20
9.21574
 11
27.0061
 21
9.26157
  0
LINE
  8
0
 10
27.0061
 20
9.26157
 11
26.9743
 21
9.30681
  0
LINE
  8
0
 10
26.9743
 20
9.30681
 11
26.9379
 21
9.35146
  0
LINE
  8
0
 10
26.9379
 20
9.35146
 11
26.8965
 21
9.39384
  0
LINE
  8
0
 10
26.8965
 20
9.39384
 11
26.8497
 21
9.43227
  0
LINE
  8
0
 10
26.8497
 20
9.43227
 11
26.7976
 21
9.46671
  0
LINE
  8
0
 10
26.7976
 20
9.46671
 11
26.74
 21
9.49718
  0
LINE
  8
0
 10
26.74
 20
9.49718
 11
26.6767
 21
9.52211
  0
LINE
  8
0
 10
26.6767
 20
9.52211
 11
26.6071
 21
9.53992
  0
LINE
  8
0
 10
26.6071
 20
9.53992
 11
26.5313
 21
9.5506
  0
LINE
  8
0
 10
26.5313
 20
9.5506
 11
26.4494
 21
9.55417
  0
LINE
  8
0
 10
26.4494
 20
9.55417
 11
26.3393
 21
9.54692
  0
LINE
  8
0
 10
26.3393
 20
9.54692
 11
26.233
 21
9.52521
  0
LINE
  8
0
 10
26.233
 20
9.52521
 11
26.1304
 21
9.48901
  0
LINE
  8
0
 10
26.1304
 20
9.48901
 11
26.0315
 21
9.43834
  0
LINE
  8
0
 10
26.0315
 20
9.43834
 11
25.9391
 21
9.37283
  0
LINE
  8
0
 10
25.9391
 20
9.37283
 11
25.8561
 21
9.29216
  0
LINE
  8
0
 10
25.8561
 20
9.29216
 11
25.7823
 21
9.1963
  0
LINE
  8
0
 10
25.7823
 20
9.1963
 11
25.7179
 21
9.08527
  0
LINE
  8
0
 10
25.7179
 20
9.08527
 11
25.6656
 21
8.9586
  0
LINE
  8
0
 10
25.6656
 20
8.9586
 11
25.6283
 21
8.81583
  0
LINE
  8
0
 10
25.6283
 20
8.81583
 11
25.6059
 21
8.65694
  0
LINE
  8
0
 10
25.6059
 20
8.65694
 11
25.5984
 21
8.48193
  0
LINE
  8
0
 10
25.5984
 20
8.48193
 11
25.6055
 21
8.31177
  0
LINE
  8
0
 10
25.6055
 20
8.31177
 11
25.6271
 21
8.1562
  0
LINE
  8
0
 10
25.6271
 20
8.1562
 11
25.6629
 21
8.01523
  0
LINE
  8
0
 10
25.6629
 20
8.01523
 11
25.7131
 21
7.88884
  0
LINE
  8
0
 10
25.7131
 20
7.88884
 11
25.7755
 21
7.7771
  0
LINE
  8
0
 10
25.7755
 20
7.7771
 11
25.8479
 21
7.68008
  0
LINE
  8
0
 10
25.8479
 20
7.68008
 11
25.9304
 21
7.59778
  0
LINE
  8
0
 10
25.9304
 20
7.59778
 11
26.0229
 21
7.53018
  0
LINE
  8
0
 10
26.0229
 20
7.53018
 11
26.1231
 21
7.47746
  0
LINE
  8
0
 10
26.1231
 20
7.47746
 11
26.2285
 21
7.43982
  0
LINE
  8
0
 10
26.2285
 20
7.43982
 11
26.3392
 21
7.41724
  0
LINE
  8
0
 10
26.3392
 20
7.41724
 11
26.4551
 21
7.4097
  0
LINE
  8
0
 10
26.4551
 20
7.4097
 11
26.5713
 21
7.41676
  0
LINE
  8
0
 10
26.5918
 20
7.92747
 11
26.5122
 21
7.95656
  0
LINE
  8
0
 10
26.5122
 20
7.95656
 11
26.444
 21
8.005
  0
LINE
  8
0
 10
26.444
 20
8.005
 11
26.3872
 21
8.07285
  0
LINE
  8
0
 10
26.3872
 20
8.07285
 11
26.3424
 21
8.15656
  0
LINE
  8
0
 10
26.3424
 20
8.15656
 11
26.3105
 21
8.25264
  0
LINE
  8
0
 10
26.3105
 20
8.25264
 11
26.2913
 21
8.3611
  0
LINE
  8
0
 10
26.2913
 20
8.3611
 11
26.2849
 21
8.48193
  0
LINE
  8
0
 10
26.2849
 20
8.48193
 11
26.2913
 21
8.60271
  0
LINE
  8
0
 10
26.2913
 20
8.60271
 11
26.3105
 21
8.71098
  0
LINE
  8
0
 10
26.3105
 20
8.71098
 11
26.3424
 21
8.80678
  0
LINE
  8
0
 10
26.3424
 20
8.80678
 11
26.3872
 21
8.89009
  0
LINE
  8
0
 10
26.3872
 20
8.89009
 11
26.444
 21
8.95752
  0
LINE
  8
0
 10
26.444
 20
8.95752
 11
26.5122
 21
9.00568
  0
LINE
  8
0
 10
26.5122
 20
9.00568
 11
26.5918
 21
9.03458
  0
LINE
  8
0
 10
26.5918
 20
9.03458
 11
26.6827
 21
9.0442
  0
LINE
  8
0
 10
26.6827
 20
9.0442
 11
26.773
 21
9.03474
  0
LINE
  8
0
 10
26.773
 20
9.03474
 11
26.8526
 21
9.00636
  0
LINE
  8
0
 10
26.8526
 20
9.00636
 11
26.9216
 21
8.95908
  0
LINE
  8
0
 10
26.9216
 20
8.95908
 11
26.98
 21
8.89287
  0
LINE
  8
0
 10
26.98
 20
8.89287
 11
27.0264
 21
8.81044
  0
LINE
  8
0
 10
27.0264
 20
8.81044
 11
27.0596
 21
8.71448
  0
LINE
  8
0
 10
27.0596
 20
8.71448
 11
27.0795
 21
8.60498
  0
LINE
  8
0
 10
27.0795
 20
8.60498
 11
27.0862
 21
8.48193
  0
LINE
  8
0
 10
27.0862
 20
8.48193
 11
27.0795
 21
8.36034
  0
LINE
  8
0
 10
27.0795
 20
8.36034
 11
27.0594
 21
8.25146
  0
LINE
  8
0
 10
27.0594
 20
8.25146
 11
27.0259
 21
8.15532
  0
LINE
  8
0
 10
27.0259
 20
8.15532
 11
26.979
 21
8.0719
  0
LINE
  8
0
 10
26.979
 20
8.0719
 11
26.9204
 21
8.00447
  0
LINE
  8
0
 10
26.9204
 20
8.00447
 11
26.8514
 21
7.95631
  0
LINE
  8
0
 10
26.8514
 20
7.95631
 11
26.7722
 21
7.92741
  0
LINE
  8
0
 10
26.7722
 20
7.92741
 11
26.6827
 21
7.91779
  0
LINE
  8
0
 10
26.6827
 20
7.91779
 11
26.5918
 21
7.92747
  0
LINE
  8
0
 10
20.5011
 20
8.63882
 11
20.5008
 21
8.69504
  0
LINE
  8
0
 10
20.5008
 20
8.69504
 11
20.5
 21
8.75908
  0
LINE
  8
0
 10
20.5
 20
8.75908
 11
20.4984
 21
8.83093
  0
LINE
  8
0
 10
20.4984
 20
8.83093
 11
20.4964
 21
8.91061
  0
LINE
  8
0
 10
20.4964
 20
8.91061
 11
20.4886
 21
9.17664
  0
LINE
  8
0
 10
20.4886
 20
9.17664
 11
20.4858
 21
9.27208
  0
LINE
  8
0
 10
20.4858
 20
9.27208
 11
20.4831
 21
9.36852
  0
LINE
  8
0
 10
20.4831
 20
9.36852
 11
20.4806
 21
9.46355
  0
LINE
  8
0
 10
20.4806
 20
9.46355
 11
20.4783
 21
9.55717
  0
LINE
  8
0
 10
20.4783
 20
9.55717
 11
20.4763
 21
9.64941
  0
LINE
  8
0
 10
20.4763
 20
9.64941
 11
20.5005
 21
9.55153
  0
LINE
  8
0
 10
20.5005
 20
9.55153
 11
20.5253
 21
9.45399
  0
LINE
  8
0
 10
20.5253
 20
9.45399
 11
20.5507
 21
9.3568
  0
LINE
  8
0
 10
20.5507
 20
9.3568
 11
20.5767
 21
9.25996
  0
LINE
  8
0
 10
20.5767
 20
9.25996
 11
20.6027
 21
9.16522
  0
LINE
  8
0
 10
20.6027
 20
9.16522
 11
20.6281
 21
9.07433
  0
LINE
  8
0
 10
20.6281
 20
9.07433
 11
20.6529
 21
8.98727
  0
LINE
  8
0
 10
20.6529
 20
8.98727
 11
20.6771
 21
8.90408
  0
LINE
  8
0
 10
20.6771
 20
8.90408
 11
20.7
 21
8.82655
  0
LINE
  8
0
 10
20.7
 20
8.82655
 11
20.7211
 21
8.75652
  0
LINE
  8
0
 10
20.7211
 20
8.75652
 11
20.7402
 21
8.69392
  0
LINE
  8
0
 10
20.7402
 20
8.69392
 11
20.7574
 21
8.63882
  0
LINE
  8
0
 10
20.7574
 20
8.63882
 11
21.1685
 21
7.43959
  0
LINE
  8
0
 10
21.1685
 20
7.43959
 11
21.7327
 21
7.43959
  0
LINE
  8
0
 10
21.7327
 20
7.43959
 11
22.1381
 21
8.63882
  0
LINE
  8
0
 10
22.1381
 20
8.63882
 11
22.1561
 21
8.69598
  0
LINE
  8
0
 10
22.1561
 20
8.69598
 11
22.1759
 21
8.76096
  0
LINE
  8
0
 10
22.1759
 20
8.76096
 11
22.1973
 21
8.83374
  0
LINE
  8
0
 10
22.1973
 20
8.83374
 11
22.2203
 21
8.91435
  0
LINE
  8
0
 10
22.2203
 20
8.91435
 11
22.2445
 21
9.00081
  0
LINE
  8
0
 10
22.2445
 20
9.00081
 11
22.2693
 21
9.09113
  0
LINE
  8
0
 10
22.2693
 20
9.09113
 11
22.2947
 21
9.18529
  0
LINE
  8
0
 10
22.2947
 20
9.18529
 11
22.3207
 21
9.28329
  0
LINE
  8
0
 10
22.3207
 20
9.28329
 11
22.3467
 21
9.38312
  0
LINE
  8
0
 10
22.3467
 20
9.38312
 11
22.3721
 21
9.48271
  0
LINE
  8
0
 10
22.3721
 20
9.48271
 11
22.3969
 21
9.58206
  0
LINE
  8
0
 10
22.3969
 20
9.58206
 11
22.4211
 21
9.68117
  0
LINE
  8
0
 10
22.4211
 20
9.68117
 11
22.4191
 21
9.58684
  0
LINE
  8
0
 10
22.4191
 20
9.58684
 11
22.4168
 21
9.49065
  0
LINE
  8
0
 10
22.4168
 20
9.49065
 11
22.4143
 21
9.39258
  0
LINE
  8
0
 10
22.4143
 20
9.39258
 11
22.4115
 21
9.29262
  0
LINE
  8
0
 10
22.4115
 20
9.29262
 11
22.401
 21
8.91811
  0
LINE
  8
0
 10
22.401
 20
8.91811
 11
22.3989
 21
8.83585
  0
LINE
  8
0
 10
22.3989
 20
8.83585
 11
22.3974
 21
8.76189
  0
LINE
  8
0
 10
22.3974
 20
8.76189
 11
22.3965
 21
8.69621
  0
LINE
  8
0
 10
22.3965
 20
8.69621
 11
22.3962
 21
8.63882
  0
LINE
  8
0
 10
22.3962
 20
8.63882
 11
22.3962
 21
7.43959
  0
LINE
  8
0
 10
22.3962
 20
7.43959
 11
23.0751
 21
7.43959
  0
LINE
  8
0
 10
23.0751
 20
7.43959
 11
23.0751
 21
10.2229
  0
LINE
  8
0
 10
23.0751
 20
10.2229
 11
22.0214
 21
10.2229
  0
LINE
  8
0
 10
22.0214
 20
10.2229
 11
21.6638
 21
9.13945
  0
LINE
  8
0
 10
21.6638
 20
9.13945
 11
21.649
 21
9.08815
  0
LINE
  8
0
 10
21.649
 20
9.08815
 11
21.633
 21
9.02948
  0
LINE
  8
0
 10
21.633
 20
9.02948
 11
21.616
 21
8.96347
  0
LINE
  8
0
 10
21.616
 20
8.96347
 11
21.5979
 21
8.89009
  0
LINE
  8
0
 10
21.5979
 20
8.89009
 11
21.5792
 21
8.81163
  0
LINE
  8
0
 10
21.5792
 20
8.81163
 11
21.5606
 21
8.73038
  0
LINE
  8
0
 10
21.5606
 20
8.73038
 11
21.5419
 21
8.6463
  0
LINE
  8
0
 10
21.5419
 20
8.6463
 11
21.5233
 21
8.55943
  0
LINE
  8
0
 10
21.5233
 20
8.55943
 11
21.5049
 21
8.47183
  0
LINE
  8
0
 10
21.5049
 20
8.47183
 11
21.4872
 21
8.3855
  0
LINE
  8
0
 10
21.4872
 20
8.3855
 11
21.47
 21
8.30045
  0
LINE
  8
0
 10
21.47
 20
8.30045
 11
21.4535
 21
8.21667
  0
LINE
  8
0
 10
21.4535
 20
8.21667
 11
21.436
 21
8.30051
  0
LINE
  8
0
 10
21.436
 20
8.30051
 11
21.4181
 21
8.38573
  0
LINE
  8
0
 10
21.4181
 20
8.38573
 11
21.3997
 21
8.47235
  0
LINE
  8
0
 10
21.3997
 20
8.47235
 11
21.3808
 21
8.56038
  0
LINE
  8
0
 10
21.3808
 20
8.56038
 11
21.3617
 21
8.6476
  0
LINE
  8
0
 10
21.3617
 20
8.6476
 11
21.3428
 21
8.73178
  0
LINE
  8
0
 10
21.3428
 20
8.73178
 11
21.324
 21
8.81291
  0
LINE
  8
0
 10
21.324
 20
8.81291
 11
21.3053
 21
8.89102
  0
LINE
  8
0
 10
21.3053
 20
8.89102
 11
21.2872
 21
8.96399
  0
LINE
  8
0
 10
21.2872
 20
8.96399
 11
21.2701
 21
9.02972
  0
LINE
  8
0
 10
21.2701
 20
9.02972
 11
21.2542
 21
9.08821
  0
LINE
  8
0
 10
21.2542
 20
9.08821
 11
21.2393
 21
9.13945
  0
LINE
  8
0
 10
21.2393
 20
9.13945
 11
20.876
 21
10.2229
  0
LINE
  8
0
 10
20.876
 20
10.2229
 11
19.8242
 21
10.2229
  0
LINE
  8
0
 10
19.8242
 20
10.2229
 11
19.8242
 21
7.43959
  0
LINE
  8
0
 10
19.8242
 20
7.43959
 11
20.5011
 21
7.43959
  0
LINE
  8
0
 10
20.5011
 20
7.43959
 11
20.5011
 21
8.63882
  0
LINE
  8
0
 10
16.5045
 20
7.4104
 11
16.5535
 21
7.41251
  0
LINE
  8
0
 10
16.5535
 20
7.41251
 11
16.6039
 21
7.416
  0
LINE
  8
0
 10
16.6039
 20
7.416
 11
16.6558
 21
7.42091
  0
LINE
  8
0
 10
16.6558
 20
7.42091
 11
16.7089
 21
7.4278
  0
LINE
  8
0
 10
16.7089
 20
7.4278
 11
16.7629
 21
7.43726
  0
LINE
  8
0
 10
16.7629
 20
7.43726
 11
16.8179
 21
7.44928
  0
LINE
  8
0
 10
16.8179
 20
7.44928
 11
16.8738
 21
7.46388
  0
LINE
  8
0
 10
16.8738
 20
7.46388
 11
16.7878
 21
7.93834
  0
LINE
  8
0
 10
16.7878
 20
7.93834
 11
16.7722
 21
7.93536
  0
LINE
  8
0
 10
16.7722
 20
7.93536
 11
16.7522
 21
7.93204
  0
LINE
  8
0
 10
16.7522
 20
7.93204
 11
16.7277
 21
7.92836
  0
LINE
  8
0
 10
16.7277
 20
7.92836
 11
16.6989
 21
7.92432
  0
LINE
  8
0
 10
16.6989
 20
7.92432
 11
16.6695
 21
7.92064
  0
LINE
  8
0
 10
16.6695
 20
7.92064
 11
16.6436
 21
7.91801
  0
LINE
  8
0
 10
16.6436
 20
7.91801
 11
16.6212
 21
7.91644
  0
LINE
  8
0
 10
16.6212
 20
7.91644
 11
16.6023
 21
7.91592
  0
LINE
  8
0
 10
16.6023
 20
7.91592
 11
16.5278
 21
7.92607
  0
LINE
  8
0
 10
16.5278
 20
7.92607
 11
16.4746
 21
7.95654
  0
LINE
  8
0
 10
16.4746
 20
7.95654
 11
16.4427
 21
8.00732
  0
LINE
  8
0
 10
16.4427
 20
8.00732
 11
16.4321
 21
8.07843
  0
LINE
  8
0
 10
16.4321
 20
8.07843
 11
16.4321
 21
9.0442
  0
LINE
  8
0
 10
16.4321
 20
9.0442
 11
16.8165
 21
9.0442
  0
LINE
  8
0
 10
16.8165
 20
9.0442
 11
16.8165
 21
9.528
  0
LINE
  8
0
 10
16.8165
 20
9.528
 11
16.4321
 21
9.528
  0
LINE
  8
0
 10
16.4321
 20
9.528
 11
16.4321
 21
10.0249
  0
LINE
  8
0
 10
16.4321
 20
10.0249
 11
15.7647
 21
10.0249
  0
LINE
  8
0
 10
15.7647
 20
10.0249
 11
15.7647
 21
9.528
  0
LINE
  8
0
 10
15.7647
 20
9.528
 11
15.4816
 21
9.528
  0
LINE
  8
0
 10
15.4816
 20
9.528
 11
15.4816
 21
9.0442
  0
LINE
  8
0
 10
15.4816
 20
9.0442
 11
15.7647
 21
9.0442
  0
LINE
  8
0
 10
15.7647
 20
9.0442
 11
15.7647
 21
8.02052
  0
LINE
  8
0
 10
15.7647
 20
8.02052
 11
15.7757
 21
7.88002
  0
LINE
  8
0
 10
15.7757
 20
7.88002
 11
15.8087
 21
7.75737
  0
LINE
  8
0
 10
15.8087
 20
7.75737
 11
15.8636
 21
7.65259
  0
LINE
  8
0
 10
15.8636
 20
7.65259
 11
15.9406
 21
7.56566
  0
LINE
  8
0
 10
15.9406
 20
7.56566
 11
16.0388
 21
7.49742
  0
LINE
  8
0
 10
16.0388
 20
7.49742
 11
16.1577
 21
7.44868
  0
LINE
  8
0
 10
16.1577
 20
7.44868
 11
16.297
 21
7.41945
  0
LINE
  8
0
 10
16.297
 20
7.41945
 11
16.4569
 21
7.4097
  0
LINE
  8
0
 10
16.4569
 20
7.4097
 11
16.5045
 21
7.4104
  0
LINE
  8
0
 10
37.0768
 20
8.67992
 11
37.0823
 21
8.75745
  0
LINE
  8
0
 10
37.0823
 20
8.75745
 11
37.0986
 21
8.82562
  0
LINE
  8
0
 10
37.0986
 20
8.82562
 11
37.1258
 21
8.88448
  0
LINE
  8
0
 10
37.1258
 20
8.88448
 11
37.1638
 21
8.93396
  0
LINE
  8
0
 10
37.1638
 20
8.93396
 11
37.2104
 21
8.97321
  0
LINE
  8
0
 10
37.2104
 20
8.97321
 11
37.263
 21
9.00124
  0
LINE
  8
0
 10
37.263
 20
9.00124
 11
37.3218
 21
9.01805
  0
LINE
  8
0
 10
37.3218
 20
9.01805
 11
37.3866
 21
9.02365
  0
LINE
  8
0
 10
37.3866
 20
9.02365
 11
37.4496
 21
9.01834
  0
LINE
  8
0
 10
37.4496
 20
9.01834
 11
37.5064
 21
9.0024
  0
LINE
  8
0
 10
37.5064
 20
9.0024
 11
37.5571
 21
8.97583
  0
LINE
  8
0
 10
37.5571
 20
8.97583
 11
37.6018
 21
8.93864
  0
LINE
  8
0
 10
37.6018
 20
8.93864
 11
37.6382
 21
8.89247
  0
LINE
  8
0
 10
37.6382
 20
8.89247
 11
37.6642
 21
8.83894
  0
LINE
  8
0
 10
37.6642
 20
8.83894
 11
37.6797
 21
8.77805
  0
LINE
  8
0
 10
37.6797
 20
8.77805
 11
37.685
 21
8.70981
  0
LINE
  8
0
 10
37.685
 20
8.70981
 11
37.685
 21
7.43959
  0
LINE
  8
0
 10
37.685
 20
7.43959
 11
38.3256
 21
7.43959
  0
LINE
  8
0
 10
38.3256
 20
7.43959
 11
38.3256
 21
8.69301
  0
LINE
  8
0
 10
38.3256
 20
8.69301
 11
38.3307
 21
8.76404
  0
LINE
  8
0
 10
38.3307
 20
8.76404
 11
38.3461
 21
8.82773
  0
LINE
  8
0
 10
38.3461
 20
8.82773
 11
38.3718
 21
8.88406
  0
LINE
  8
0
 10
38.3718
 20
8.88406
 11
38.4078
 21
8.93303
  0
LINE
  8
0
 10
38.4078
 20
8.93303
 11
38.4526
 21
8.97267
  0
LINE
  8
0
 10
38.4526
 20
8.97267
 11
38.5049
 21
9.00099
  0
LINE
  8
0
 10
38.5049
 20
9.00099
 11
38.5645
 21
9.01799
  0
LINE
  8
0
 10
38.5645
 20
9.01799
 11
38.6315
 21
9.02365
  0
LINE
  8
0
 10
38.6315
 20
9.02365
 11
38.6946
 21
9.01851
  0
LINE
  8
0
 10
38.6946
 20
9.01851
 11
38.7518
 21
9.0031
  0
LINE
  8
0
 10
38.7518
 20
9.0031
 11
38.8031
 21
8.97742
  0
LINE
  8
0
 10
38.8031
 20
8.97742
 11
38.8486
 21
8.94145
  0
LINE
  8
0
 10
38.8486
 20
8.94145
 11
38.8858
 21
8.89557
  0
LINE
  8
0
 10
38.8858
 20
8.89557
 11
38.9124
 21
8.84012
  0
LINE
  8
0
 10
38.9124
 20
8.84012
 11
38.9284
 21
8.77509
  0
LINE
  8
0
 10
38.9284
 20
8.77509
 11
38.9337
 21
8.70047
  0
LINE
  8
0
 10
38.9337
 20
8.70047
 11
38.9337
 21
7.43959
  0
LINE
  8
0
 10
38.9337
 20
7.43959
 11
39.5992
 21
7.43959
  0
LINE
  8
0
 10
39.5992
 20
7.43959
 11
39.5992
 21
8.84805
  0
LINE
  8
0
 10
39.5992
 20
8.84805
 11
39.5872
 21
9.0045
  0
LINE
  8
0
 10
39.5872
 20
9.0045
 11
39.5511
 21
9.1432
  0
LINE
  8
0
 10
39.5511
 20
9.1432
 11
39.4911
 21
9.26416
  0
LINE
  8
0
 10
39.4911
 20
9.26416
 11
39.407
 21
9.36736
  0
LINE
  8
0
 10
39.407
 20
9.36736
 11
39.3042
 21
9.44991
  0
LINE
  8
0
 10
39.3042
 20
9.44991
 11
39.1878
 21
9.50887
  0
LINE
  8
0
 10
39.1878
 20
9.50887
 11
39.0579
 21
9.54425
  0
LINE
  8
0
 10
39.0579
 20
9.54425
 11
38.9146
 21
9.55603
  0
LINE
  8
0
 10
38.9146
 20
9.55603
 11
38.8081
 21
9.54897
  0
LINE
  8
0
 10
38.8081
 20
9.54897
 11
38.7049
 21
9.52779
  0
LINE
  8
0
 10
38.7049
 20
9.52779
 11
38.605
 21
9.49246
  0
LINE
  8
0
 10
38.605
 20
9.49246
 11
38.5082
 21
9.44302
  0
LINE
  8
0
 10
38.5082
 20
9.44302
 11
38.4189
 21
9.37746
  0
LINE
  8
0
 10
38.4189
 20
9.37746
 11
38.3411
 21
9.29381
  0
LINE
  8
0
 10
38.3411
 20
9.29381
 11
38.275
 21
9.19206
  0
LINE
  8
0
 10
38.275
 20
9.19206
 11
38.2204
 21
9.0722
  0
LINE
  8
0
 10
38.2204
 20
9.0722
 11
38.1777
 21
9.1913
  0
LINE
  8
0
 10
38.1777
 20
9.1913
 11
38.1279
 21
9.29263
  0
LINE
  8
0
 10
38.1279
 20
9.29263
 11
38.0711
 21
9.37624
  0
LINE
  8
0
 10
38.0711
 20
9.37624
 11
38.0072
 21
9.44208
  0
LINE
  8
0
 10
38.0072
 20
9.44208
 11
37.9355
 21
9.49194
  0
LINE
  8
0
 10
37.9355
 20
9.49194
 11
37.8554
 21
9.52754
  0
LINE
  8
0
 10
37.8554
 20
9.52754
 11
37.7668
 21
9.54892
  0
LINE
  8
0
 10
37.7668
 20
9.54892
 11
37.6696
 21
9.55603
  0
LINE
  8
0
 10
37.6696
 20
9.55603
 11
37.5747
 21
9.54956
  0
LINE
  8
0
 10
37.5747
 20
9.54956
 11
37.483
 21
9.53012
  0
LINE
  8
0
 10
37.483
 20
9.53012
 11
37.3945
 21
9.49771
  0
LINE
  8
0
 10
37.3945
 20
9.49771
 11
37.3092
 21
9.45236
  0
LINE
  8
0
 10
37.3092
 20
9.45236
 11
37.2305
 21
9.39229
  0
LINE
  8
0
 10
37.2305
 20
9.39229
 11
37.1617
 21
9.31575
  0
LINE
  8
0
 10
37.1617
 20
9.31575
 11
37.1028
 21
9.22276
  0
LINE
  8
0
 10
37.1028
 20
9.22276
 11
37.0539
 21
9.11331
  0
LINE
  8
0
 10
37.0539
 20
9.11331
 11
37.0233
 21
9.528
  0
LINE
  8
0
 10
37.0233
 20
9.528
 11
36.4094
 21
9.528
  0
LINE
  8
0
 10
36.4094
 20
9.528
 11
36.4094
 21
7.43959
  0
LINE
  8
0
 10
36.4094
 20
7.43959
 11
37.0768
 21
7.43959
  0
LINE
  8
0
 10
37.0768
 20
7.43959
 11
37.0768
 21
8.67992
  0
LINE
  8
0
 10
10.4873
 20
8.67992
 11
10.4927
 21
8.75745
  0
LINE
  8
0
 10
10.4927
 20
8.75745
 11
10.509
 21
8.82562
  0
LINE
  8
0
 10
10.509
 20
8.82562
 11
10.5362
 21
8.88448
  0
LINE
  8
0
 10
10.5362
 20
8.88448
 11
10.5743
 21
8.93396
  0
LINE
  8
0
 10
10.5743
 20
8.93396
 11
10.6208
 21
8.97321
  0
LINE
  8
0
 10
10.6208
 20
8.97321
 11
10.6735
 21
9.00124
  0
LINE
  8
0
 10
10.6735
 20
9.00124
 11
10.7323
 21
9.01805
  0
LINE
  8
0
 10
10.7323
 20
9.01805
 11
10.7971
 21
9.02365
  0
LINE
  8
0
 10
10.7971
 20
9.02365
 11
10.86
 21
9.01834
  0
LINE
  8
0
 10
10.86
 20
9.01834
 11
10.9169
 21
9.0024
  0
LINE
  8
0
 10
10.9169
 20
9.0024
 11
10.9676
 21
8.97583
  0
LINE
  8
0
 10
10.9676
 20
8.97583
 11
11.0122
 21
8.93864
  0
LINE
  8
0
 10
11.0122
 20
8.93864
 11
11.0486
 21
8.89247
  0
LINE
  8
0
 10
11.0486
 20
8.89247
 11
11.0746
 21
8.83894
  0
LINE
  8
0
 10
11.0746
 20
8.83894
 11
11.0902
 21
8.77805
  0
LINE
  8
0
 10
11.0902
 20
8.77805
 11
11.0954
 21
8.70981
  0
LINE
  8
0
 10
11.0954
 20
8.70981
 11
11.0954
 21
7.43959
  0
LINE
  8
0
 10
11.0954
 20
7.43959
 11
11.736
 21
7.43959
  0
LINE
  8
0
 10
11.736
 20
7.43959
 11
11.736
 21
8.69301
  0
LINE
  8
0
 10
11.736
 20
8.69301
 11
11.7412
 21
8.76404
  0
LINE
  8
0
 10
11.7412
 20
8.76404
 11
11.7566
 21
8.82773
  0
LINE
  8
0
 10
11.7566
 20
8.82773
 11
11.7823
 21
8.88406
  0
LINE
  8
0
 10
11.7823
 20
8.88406
 11
11.8183
 21
8.93303
  0
LINE
  8
0
 10
11.8183
 20
8.93303
 11
11.8631
 21
8.97267
  0
LINE
  8
0
 10
11.8631
 20
8.97267
 11
11.9153
 21
9.00099
  0
LINE
  8
0
 10
11.9153
 20
9.00099
 11
11.975
 21
9.01799
  0
LINE
  8
0
 10
11.975
 20
9.01799
 11
12.042
 21
9.02365
  0
LINE
  8
0
 10
12.042
 20
9.02365
 11
12.1051
 21
9.01851
  0
LINE
  8
0
 10
12.1051
 20
9.01851
 11
12.1623
 21
9.0031
  0
LINE
  8
0
 10
12.1623
 20
9.0031
 11
12.2136
 21
8.97742
  0
LINE
  8
0
 10
12.2136
 20
8.97742
 11
12.2591
 21
8.94145
  0
LINE
  8
0
 10
12.2591
 20
8.94145
 11
12.2963
 21
8.89557
  0
LINE
  8
0
 10
12.2963
 20
8.89557
 11
12.3229
 21
8.84012
  0
LINE
  8
0
 10
12.3229
 20
8.84012
 11
12.3389
 21
8.77509
  0
LINE
  8
0
 10
12.3389
 20
8.77509
 11
12.3442
 21
8.70047
  0
LINE
  8
0
 10
12.3442
 20
8.70047
 11
12.3442
 21
7.43959
  0
LINE
  8
0
 10
12.3442
 20
7.43959
 11
13.0097
 21
7.43959
  0
LINE
  8
0
 10
13.0097
 20
7.43959
 11
13.0097
 21
8.84805
  0
LINE
  8
0
 10
13.0097
 20
8.84805
 11
12.9977
 21
9.0045
  0
LINE
  8
0
 10
12.9977
 20
9.0045
 11
12.9616
 21
9.1432
  0
LINE
  8
0
 10
12.9616
 20
9.1432
 11
12.9016
 21
9.26416
  0
LINE
  8
0
 10
12.9016
 20
9.26416
 11
12.8175
 21
9.36736
  0
LINE
  8
0
 10
12.8175
 20
9.36736
 11
12.7146
 21
9.44991
  0
LINE
  8
0
 10
12.7146
 20
9.44991
 11
12.5983
 21
9.50887
  0
LINE
  8
0
 10
12.5983
 20
9.50887
 11
12.4684
 21
9.54425
  0
LINE
  8
0
 10
12.4684
 20
9.54425
 11
12.325
 21
9.55603
  0
LINE
  8
0
 10
12.325
 20
9.55603
 11
12.2186
 21
9.54897
  0
LINE
  8
0
 10
12.2186
 20
9.54897
 11
12.1154
 21
9.52779
  0
LINE
  8
0
 10
12.1154
 20
9.52779
 11
12.0154
 21
9.49246
  0
LINE
  8
0
 10
12.0154
 20
9.49246
 11
11.9187
 21
9.44302
  0
LINE
  8
0
 10
11.9187
 20
9.44302
 11
11.8293
 21
9.37746
  0
LINE
  8
0
 10
11.8293
 20
9.37746
 11
11.7516
 21
9.29381
  0
LINE
  8
0
 10
11.7516
 20
9.29381
 11
11.6854
 21
9.19206
  0
LINE
  8
0
 10
11.6854
 20
9.19206
 11
11.6309
 21
9.0722
  0
LINE
  8
0
 10
11.6309
 20
9.0722
 11
11.5882
 21
9.1913
  0
LINE
  8
0
 10
11.5882
 20
9.1913
 11
11.5384
 21
9.29263
  0
LINE
  8
0
 10
11.5384
 20
9.29263
 11
11.4815
 21
9.37624
  0
LINE
  8
0
 10
11.4815
 20
9.37624
 11
11.4176
 21
9.44208
  0
LINE
  8
0
 10
11.4176
 20
9.44208
 11
11.346
 21
9.49194
  0
LINE
  8
0
 10
11.346
 20
9.49194
 11
11.2659
 21
9.52754
  0
LINE
  8
0
 10
11.2659
 20
9.52754
 11
11.1772
 21
9.54892
  0
LINE
  8
0
 10
11.1772
 20
9.54892
 11
11.0801
 21
9.55603
  0
LINE
  8
0
 10
11.0801
 20
9.55603
 11
10.9852
 21
9.54956
  0
LINE
  8
0
 10
10.9852
 20
9.54956
 11
10.8934
 21
9.53012
  0
LINE
  8
0
 10
10.8934
 20
9.53012
 11
10.8049
 21
9.49771
  0
LINE
  8
0
 10
10.8049
 20
9.49771
 11
10.7197
 21
9.45236
  0
LINE
  8
0
 10
10.7197
 20
9.45236
 11
10.641
 21
9.39229
  0
LINE
  8
0
 10
10.641
 20
9.39229
 11
10.5722
 21
9.31575
  0
LINE
  8
0
 10
10.5722
 20
9.31575
 11
10.5133
 21
9.22276
  0
LINE
  8
0
 10
10.5133
 20
9.22276
 11
10.4644
 21
9.11331
  0
LINE
  8
0
 10
10.4644
 20
9.11331
 11
10.4338
 21
9.528
  0
LINE
  8
0
 10
10.4338
 20
9.528
 11
9.81992
 21
9.528
  0
LINE
  8
0
 10
9.81992
 20
9.528
 11
9.81992
 21
7.43959
  0
LINE
  8
0
 10
9.81992
 20
7.43959
 11
10.4873
 21
7.43959
  0
LINE
  8
0
 10
10.4873
 20
7.43959
 11
10.4873
 21
8.67992
  0
LINE
  8
0
 10
32.9545
 20
7.41302
 11
33.1327
 21
7.45103
  0
LINE
  8
0
 10
33.1327
 20
7.45103
 11
33.2921
 21
7.51437
  0
LINE
  8
0
 10
33.2921
 20
7.51437
 11
33.4325
 21
7.60303
  0
LINE
  8
0
 10
33.4325
 20
7.60303
 11
33.5502
 21
7.71365
  0
LINE
  8
0
 10
33.5502
 20
7.71365
 11
33.6414
 21
7.84283
  0
LINE
  8
0
 10
33.6414
 20
7.84283
 11
33.7061
 21
7.99059
  0
LINE
  8
0
 10
33.7061
 20
7.99059
 11
33.7442
 21
8.15691
  0
LINE
  8
0
 10
33.7442
 20
8.15691
 11
33.1284
 21
8.25403
  0
LINE
  8
0
 10
33.1284
 20
8.25403
 11
33.1092
 21
8.17464
  0
LINE
  8
0
 10
33.1092
 20
8.17464
 11
33.0823
 21
8.1046
  0
LINE
  8
0
 10
33.0823
 20
8.1046
 11
33.0476
 21
8.04388
  0
LINE
  8
0
 10
33.0476
 20
8.04388
 11
33.0051
 21
7.99252
  0
LINE
  8
0
 10
33.0051
 20
7.99252
 11
32.9553
 21
7.95166
  0
LINE
  8
0
 10
32.9553
 20
7.95166
 11
32.8987
 21
7.92247
  0
LINE
  8
0
 10
32.8987
 20
7.92247
 11
32.8353
 21
7.90495
  0
LINE
  8
0
 10
32.8353
 20
7.90495
 11
32.7651
 21
7.89911
  0
LINE
  8
0
 10
32.7651
 20
7.89911
 11
32.6748
 21
7.90886
  0
LINE
  8
0
 10
32.6748
 20
7.90886
 11
32.5954
 21
7.93811
  0
LINE
  8
0
 10
32.5954
 20
7.93811
 11
32.5266
 21
7.98683
  0
LINE
  8
0
 10
32.5266
 20
7.98683
 11
32.4687
 21
8.05507
  0
LINE
  8
0
 10
32.4687
 20
8.05507
 11
32.4227
 21
8.14012
  0
LINE
  8
0
 10
32.4227
 20
8.14012
 11
32.3898
 21
8.2393
  0
LINE
  8
0
 10
32.3898
 20
8.2393
 11
32.3701
 21
8.35262
  0
LINE
  8
0
 10
32.3701
 20
8.35262
 11
32.3635
 21
8.48006
  0
LINE
  8
0
 10
32.3635
 20
8.48006
 11
32.3701
 21
8.60806
  0
LINE
  8
0
 10
32.3701
 20
8.60806
 11
32.3898
 21
8.72125
  0
LINE
  8
0
 10
32.3898
 20
8.72125
 11
32.4227
 21
8.81961
  0
LINE
  8
0
 10
32.4227
 20
8.81961
 11
32.4687
 21
8.90314
  0
LINE
  8
0
 10
32.4687
 20
8.90314
 11
32.5266
 21
8.96976
  0
LINE
  8
0
 10
32.5266
 20
8.96976
 11
32.5954
 21
9.01735
  0
LINE
  8
0
 10
32.5954
 20
9.01735
 11
32.6748
 21
9.0459
  0
LINE
  8
0
 10
32.6748
 20
9.0459
 11
32.7651
 21
9.05542
  0
LINE
  8
0
 10
32.7651
 20
9.05542
 11
32.8352
 21
9.0498
  0
LINE
  8
0
 10
32.8352
 20
9.0498
 11
32.8982
 21
9.03299
  0
LINE
  8
0
 10
32.8982
 20
9.03299
 11
32.9542
 21
9.00496
  0
LINE
  8
0
 10
32.9542
 20
9.00496
 11
33.0032
 21
8.96573
  0
LINE
  8
0
 10
33.0032
 20
8.96573
 11
33.0449
 21
8.91623
  0
LINE
  8
0
 10
33.0449
 20
8.91623
 11
33.0794
 21
8.85739
  0
LINE
  8
0
 10
33.0794
 20
8.85739
 11
33.1066
 21
8.7892
  0
LINE
  8
0
 10
33.1066
 20
8.7892
 11
33.1265
 21
8.71169
  0
LINE
  8
0
 10
33.1265
 20
8.71169
 11
33.7423
 21
8.81255
  0
LINE
  8
0
 10
33.7423
 20
8.81255
 11
33.7041
 21
8.97459
  0
LINE
  8
0
 10
33.7041
 20
8.97459
 11
33.6393
 21
9.11891
  0
LINE
  8
0
 10
33.6393
 20
9.11891
 11
33.5477
 21
9.24547
  0
LINE
  8
0
 10
33.5477
 20
9.24547
 11
33.4296
 21
9.35426
  0
LINE
  8
0
 10
33.4296
 20
9.35426
 11
33.289
 21
9.44173
  0
LINE
  8
0
 10
33.289
 20
9.44173
 11
33.1301
 21
9.5042
  0
LINE
  8
0
 10
33.1301
 20
9.5042
 11
32.9529
 21
9.54167
  0
LINE
  8
0
 10
32.9529
 20
9.54167
 11
32.7574
 21
9.55417
  0
LINE
  8
0
 10
32.7574
 20
9.55417
 11
32.596
 21
9.5457
  0
LINE
  8
0
 10
32.596
 20
9.5457
 11
32.4462
 21
9.52031
  0
LINE
  8
0
 10
32.4462
 20
9.52031
 11
32.3082
 21
9.47798
  0
LINE
  8
0
 10
32.3082
 20
9.47798
 11
32.1818
 21
9.41873
  0
LINE
  8
0
 10
32.1818
 20
9.41873
 11
32.0683
 21
9.3443
  0
LINE
  8
0
 10
32.0683
 20
9.3443
 11
31.9688
 21
9.25644
  0
LINE
  8
0
 10
31.9688
 20
9.25644
 11
31.8833
 21
9.15515
  0
LINE
  8
0
 10
31.8833
 20
9.15515
 11
31.8118
 21
9.04045
  0
LINE
  8
0
 10
31.8118
 20
9.04045
 11
31.7553
 21
8.91414
  0
LINE
  8
0
 10
31.7553
 20
8.91414
 11
31.715
 21
8.778
  0
LINE
  8
0
 10
31.715
 20
8.778
 11
31.6908
 21
8.63206
  0
LINE
  8
0
 10
31.6908
 20
8.63206
 11
31.6827
 21
8.47632
  0
LINE
  8
0
 10
31.6827
 20
8.47632
 11
31.6908
 21
8.32063
  0
LINE
  8
0
 10
31.6908
 20
8.32063
 11
31.715
 21
8.17487
  0
LINE
  8
0
 10
31.715
 20
8.17487
 11
31.7553
 21
8.03903
  0
LINE
  8
0
 10
31.7553
 20
8.03903
 11
31.8118
 21
7.9131
  0
LINE
  8
0
 10
31.8118
 20
7.9131
 11
31.8833
 21
7.79881
  0
LINE
  8
0
 10
31.8833
 20
7.79881
 11
31.9688
 21
7.69783
  0
LINE
  8
0
 10
31.9688
 20
7.69783
 11
32.0683
 21
7.61015
  0
LINE
  8
0
 10
32.0683
 20
7.61015
 11
32.1818
 21
7.53577
  0
LINE
  8
0
 10
32.1818
 20
7.53577
 11
32.3082
 21
7.47653
  0
LINE
  8
0
 10
32.3082
 20
7.47653
 11
32.4462
 21
7.43422
  0
LINE
  8
0
 10
32.4462
 20
7.43422
 11
32.596
 21
7.40883
  0
LINE
  8
0
 10
32.596
 20
7.40883
 11
32.7574
 21
7.40036
  0
LINE
  8
0
 10
32.7574
 20
7.40036
 11
32.9545
 21
7.41302
  0
LINE
  8
0
 10
29.3016
 20
7.4104
 11
29.4704
 21
7.44052
  0
LINE
  8
0
 10
29.4704
 20
7.44052
 11
29.6223
 21
7.49072
  0
LINE
  8
0
 10
29.6223
 20
7.49072
 11
29.7575
 21
7.561
  0
LINE
  8
0
 10
29.7575
 20
7.561
 11
29.8734
 21
7.64821
  0
LINE
  8
0
 10
29.8734
 20
7.64821
 11
29.9676
 21
7.74921
  0
LINE
  8
0
 10
29.9676
 20
7.74921
 11
30.0402
 21
7.86397
  0
LINE
  8
0
 10
30.0402
 20
7.86397
 11
30.0912
 21
7.99252
  0
LINE
  8
0
 10
30.0912
 20
7.99252
 11
29.4964
 21
8.08777
  0
LINE
  8
0
 10
29.4964
 20
8.08777
 11
29.4728
 21
8.03856
  0
LINE
  8
0
 10
29.4728
 20
8.03856
 11
29.4419
 21
7.99554
  0
LINE
  8
0
 10
29.4419
 20
7.99554
 11
29.4039
 21
7.95871
  0
LINE
  8
0
 10
29.4039
 20
7.95871
 11
29.3587
 21
7.92807
  0
LINE
  8
0
 10
29.3587
 20
7.92807
 11
29.3077
 21
7.90396
  0
LINE
  8
0
 10
29.3077
 20
7.90396
 11
29.2521
 21
7.88675
  0
LINE
  8
0
 10
29.2521
 20
7.88675
 11
29.192
 21
7.87642
  0
LINE
  8
0
 10
29.192
 20
7.87642
 11
29.1273
 21
7.87297
  0
LINE
  8
0
 10
29.1273
 20
7.87297
 11
29.0372
 21
7.88004
  0
LINE
  8
0
 10
29.0372
 20
7.88004
 11
28.956
 21
7.90121
  0
LINE
  8
0
 10
28.956
 20
7.90121
 11
28.8837
 21
7.93652
  0
LINE
  8
0
 10
28.8837
 20
7.93652
 11
28.8204
 21
7.98596
  0
LINE
  8
0
 10
28.8204
 20
7.98596
 11
28.7684
 21
8.04953
  0
LINE
  8
0
 10
28.7684
 20
8.04953
 11
28.7298
 21
8.12723
  0
LINE
  8
0
 10
28.7298
 20
8.12723
 11
28.7048
 21
8.21906
  0
LINE
  8
0
 10
28.7048
 20
8.21906
 11
28.6933
 21
8.32501
  0
LINE
  8
0
 10
28.6933
 20
8.32501
 11
30.1218
 21
8.32501
  0
LINE
  8
0
 10
30.1218
 20
8.32501
 11
30.1218
 21
8.4894
  0
LINE
  8
0
 10
30.1218
 20
8.4894
 11
30.1135
 21
8.65465
  0
LINE
  8
0
 10
30.1135
 20
8.65465
 11
30.0885
 21
8.80672
  0
LINE
  8
0
 10
30.0885
 20
8.80672
 11
30.047
 21
8.94559
  0
LINE
  8
0
 10
30.047
 20
8.94559
 11
29.9889
 21
9.07127
  0
LINE
  8
0
 10
29.9889
 20
9.07127
 11
29.9162
 21
9.18312
  0
LINE
  8
0
 10
29.9162
 20
9.18312
 11
29.8311
 21
9.2805
  0
LINE
  8
0
 10
29.8311
 20
9.2805
 11
29.7336
 21
9.36339
  0
LINE
  8
0
 10
29.7336
 20
9.36339
 11
29.6236
 21
9.43181
  0
LINE
  8
0
 10
29.6236
 20
9.43181
 11
29.5032
 21
9.48534
  0
LINE
  8
0
 10
29.5032
 20
9.48534
 11
29.3743
 21
9.52357
  0
LINE
  8
0
 10
29.3743
 20
9.52357
 11
29.2369
 21
9.54651
  0
LINE
  8
0
 10
29.2369
 20
9.54651
 11
29.091
 21
9.55417
  0
LINE
  8
0
 10
29.091
 20
9.55417
 11
28.9357
 21
9.5457
  0
LINE
  8
0
 10
28.9357
 20
9.5457
 11
28.7908
 21
9.52031
  0
LINE
  8
0
 10
28.7908
 20
9.52031
 11
28.6564
 21
9.47798
  0
LINE
  8
0
 10
28.6564
 20
9.47798
 11
28.5326
 21
9.41873
  0
LINE
  8
0
 10
28.5326
 20
9.41873
 11
28.4208
 21
9.3443
  0
LINE
  8
0
 10
28.4208
 20
9.3443
 11
28.3225
 21
9.25644
  0
LINE
  8
0
 10
28.3225
 20
9.25644
 11
28.2377
 21
9.15515
  0
LINE
  8
0
 10
28.2377
 20
9.15515
 11
28.1664
 21
9.04045
  0
LINE
  8
0
 10
28.1664
 20
9.04045
 11
28.1099
 21
8.91414
  0
LINE
  8
0
 10
28.1099
 20
8.91414
 11
28.0696
 21
8.778
  0
LINE
  8
0
 10
28.0696
 20
8.778
 11
28.0454
 21
8.63206
  0
LINE
  8
0
 10
28.0454
 20
8.63206
 11
28.0373
 21
8.47632
  0
LINE
  8
0
 10
28.0373
 20
8.47632
 11
28.0553
 21
8.23856
  0
LINE
  8
0
 10
28.0553
 20
8.23856
 11
28.1093
 21
8.02777
  0
LINE
  8
0
 10
28.1093
 20
8.02777
 11
28.1992
 21
7.84395
  0
LINE
  8
0
 10
28.1992
 20
7.84395
 11
28.3251
 21
7.6871
  0
LINE
  8
0
 10
28.3251
 20
7.6871
 11
28.4825
 21
7.56165
  0
LINE
  8
0
 10
28.4825
 20
7.56165
 11
28.6667
 21
7.47205
  0
LINE
  8
0
 10
28.6667
 20
7.47205
 11
28.8779
 21
7.41829
  0
LINE
  8
0
 10
28.8779
 20
7.41829
 11
29.1159
 21
7.40036
  0
LINE
  8
0
 10
29.1159
 20
7.40036
 11
29.3016
 21
7.4104
  0
LINE
  8
0
 10
28.6971
 20
8.70421
 11
28.7119
 21
8.78658
  0
LINE
  8
0
 10
28.7119
 20
8.78658
 11
28.737
 21
8.85995
  0
LINE
  8
0
 10
28.737
 20
8.85995
 11
28.7726
 21
8.92435
  0
LINE
  8
0
 10
28.7726
 20
8.92435
 11
28.8185
 21
8.97975
  0
LINE
  8
0
 10
28.8185
 20
8.97975
 11
28.8743
 21
9.02429
  0
LINE
  8
0
 10
28.8743
 20
9.02429
 11
28.9392
 21
9.05609
  0
LINE
  8
0
 10
28.9392
 20
9.05609
 11
29.0134
 21
9.07518
  0
LINE
  8
0
 10
29.0134
 20
9.07518
 11
29.0968
 21
9.08156
  0
LINE
  8
0
 10
29.0968
 20
9.08156
 11
29.1791
 21
9.0753
  0
LINE
  8
0
 10
29.1791
 20
9.0753
 11
29.2521
 21
9.05656
  0
LINE
  8
0
 10
29.2521
 20
9.05656
 11
29.3158
 21
9.02534
  0
LINE
  8
0
 10
29.3158
 20
9.02534
 11
29.3702
 21
8.98161
  0
LINE
  8
0
 10
29.3702
 20
8.98161
 11
29.4149
 21
8.9268
  0
LINE
  8
0
 10
29.4149
 20
8.9268
 11
29.4496
 21
8.8623
  0
LINE
  8
0
 10
29.4496
 20
8.8623
 11
29.4742
 21
8.7881
  0
LINE
  8
0
 10
29.4742
 20
8.7881
 11
29.4888
 21
8.70421
  0
LINE
  8
0
 10
29.4888
 20
8.70421
 11
28.6971
 21
8.70421
  0
LINE
  8
0
 10
14.5483
 20
7.4104
 11
14.7171
 21
7.44052
  0
LINE
  8
0
 10
14.7171
 20
7.44052
 11
14.8691
 21
7.49072
  0
LINE
  8
0
 10
14.8691
 20
7.49072
 11
15.0042
 21
7.561
  0
LINE
  8
0
 10
15.0042
 20
7.561
 11
15.1201
 21
7.64821
  0
LINE
  8
0
 10
15.1201
 20
7.64821
 11
15.2143
 21
7.74921
  0
LINE
  8
0
 10
15.2143
 20
7.74921
 11
15.2869
 21
7.86397
  0
LINE
  8
0
 10
15.2869
 20
7.86397
 11
15.3379
 21
7.99252
  0
LINE
  8
0
 10
15.3379
 20
7.99252
 11
14.7431
 21
8.08777
  0
LINE
  8
0
 10
14.7431
 20
8.08777
 11
14.7195
 21
8.03856
  0
LINE
  8
0
 10
14.7195
 20
8.03856
 11
14.6887
 21
7.99554
  0
LINE
  8
0
 10
14.6887
 20
7.99554
 11
14.6507
 21
7.95871
  0
LINE
  8
0
 10
14.6507
 20
7.95871
 11
14.6055
 21
7.92807
  0
LINE
  8
0
 10
14.6055
 20
7.92807
 11
14.5544
 21
7.90396
  0
LINE
  8
0
 10
14.5544
 20
7.90396
 11
14.4989
 21
7.88675
  0
LINE
  8
0
 10
14.4989
 20
7.88675
 11
14.4387
 21
7.87642
  0
LINE
  8
0
 10
14.4387
 20
7.87642
 11
14.3741
 21
7.87297
  0
LINE
  8
0
 10
14.3741
 20
7.87297
 11
14.2839
 21
7.88004
  0
LINE
  8
0
 10
14.2839
 20
7.88004
 11
14.2027
 21
7.90121
  0
LINE
  8
0
 10
14.2027
 20
7.90121
 11
14.1304
 21
7.93652
  0
LINE
  8
0
 10
14.1304
 20
7.93652
 11
14.0672
 21
7.98596
  0
LINE
  8
0
 10
14.0672
 20
7.98596
 11
14.0151
 21
8.04953
  0
LINE
  8
0
 10
14.0151
 20
8.04953
 11
13.9766
 21
8.12723
  0
LINE
  8
0
 10
13.9766
 20
8.12723
 11
13.9515
 21
8.21906
  0
LINE
  8
0
 10
13.9515
 20
8.21906
 11
13.94
 21
8.32501
  0
LINE
  8
0
 10
13.94
 20
8.32501
 11
15.3685
 21
8.32501
  0
LINE
  8
0
 10
15.3685
 20
8.32501
 11
15.3685
 21
8.4894
  0
LINE
  8
0
 10
15.3685
 20
8.4894
 11
15.3602
 21
8.65465
  0
LINE
  8
0
 10
15.3602
 20
8.65465
 11
15.3353
 21
8.80672
  0
LINE
  8
0
 10
15.3353
 20
8.80672
 11
15.2937
 21
8.94559
  0
LINE
  8
0
 10
15.2937
 20
8.94559
 11
15.2356
 21
9.07127
  0
LINE
  8
0
 10
15.2356
 20
9.07127
 11
15.1629
 21
9.18312
  0
LINE
  8
0
 10
15.1629
 20
9.18312
 11
15.0778
 21
9.2805
  0
LINE
  8
0
 10
15.0778
 20
9.2805
 11
14.9803
 21
9.36339
  0
LINE
  8
0
 10
14.9803
 20
9.36339
 11
14.8703
 21
9.43181
  0
LINE
  8
0
 10
14.8703
 20
9.43181
 11
14.7499
 21
9.48534
  0
LINE
  8
0
 10
14.7499
 20
9.48534
 11
14.621
 21
9.52357
  0
LINE
  8
0
 10
14.621
 20
9.52357
 11
14.4836
 21
9.54651
  0
LINE
  8
0
 10
14.4836
 20
9.54651
 11
14.3378
 21
9.55417
  0
LINE
  8
0
 10
14.3378
 20
9.55417
 11
14.1824
 21
9.5457
  0
LINE
  8
0
 10
14.1824
 20
9.5457
 11
14.0375
 21
9.52031
  0
LINE
  8
0
 10
14.0375
 20
9.52031
 11
13.9032
 21
9.47798
  0
LINE
  8
0
 10
13.9032
 20
9.47798
 11
13.7793
 21
9.41873
  0
LINE
  8
0
 10
13.7793
 20
9.41873
 11
13.6675
 21
9.3443
  0
LINE
  8
0
 10
13.6675
 20
9.3443
 11
13.5692
 21
9.25644
  0
LINE
  8
0
 10
13.5692
 20
9.25644
 11
13.4844
 21
9.15515
  0
LINE
  8
0
 10
13.4844
 20
9.15515
 11
13.4131
 21
9.04045
  0
LINE
  8
0
 10
13.4131
 20
9.04045
 11
13.3567
 21
8.91414
  0
LINE
  8
0
 10
13.3567
 20
8.91414
 11
13.3163
 21
8.778
  0
LINE
  8
0
 10
13.3163
 20
8.778
 11
13.2921
 21
8.63206
  0
LINE
  8
0
 10
13.2921
 20
8.63206
 11
13.2841
 21
8.47632
  0
LINE
  8
0
 10
13.2841
 20
8.47632
 11
13.302
 21
8.23856
  0
LINE
  8
0
 10
13.302
 20
8.23856
 11
13.356
 21
8.02777
  0
LINE
  8
0
 10
13.356
 20
8.02777
 11
13.4459
 21
7.84395
  0
LINE
  8
0
 10
13.4459
 20
7.84395
 11
13.5719
 21
7.6871
  0
LINE
  8
0
 10
13.5719
 20
7.6871
 11
13.7292
 21
7.56165
  0
LINE
  8
0
 10
13.7292
 20
7.56165
 11
13.9135
 21
7.47205
  0
LINE
  8
0
 10
13.9135
 20
7.47205
 11
14.1246
 21
7.41829
  0
LINE
  8
0
 10
14.1246
 20
7.41829
 11
14.3626
 21
7.40036
  0
LINE
  8
0
 10
14.3626
 20
7.40036
 11
14.5483
 21
7.4104
  0
LINE
  8
0
 10
13.9438
 20
8.70421
 11
13.9586
 21
8.78658
  0
LINE
  8
0
 10
13.9586
 20
8.78658
 11
13.9837
 21
8.85995
  0
LINE
  8
0
 10
13.9837
 20
8.85995
 11
14.0193
 21
8.92435
  0
LINE
  8
0
 10
14.0193
 20
8.92435
 11
14.0652
 21
8.97975
  0
LINE
  8
0
 10
14.0652
 20
8.97975
 11
14.121
 21
9.02429
  0
LINE
  8
0
 10
14.121
 20
9.02429
 11
14.1859
 21
9.05609
  0
LINE
  8
0
 10
14.1859
 20
9.05609
 11
14.2601
 21
9.07518
  0
LINE
  8
0
 10
14.2601
 20
9.07518
 11
14.3435
 21
9.08156
  0
LINE
  8
0
 10
14.3435
 20
9.08156
 11
14.4258
 21
9.0753
  0
LINE
  8
0
 10
14.4258
 20
9.0753
 11
14.4989
 21
9.05656
  0
LINE
  8
0
 10
14.4989
 20
9.05656
 11
14.5626
 21
9.02534
  0
LINE
  8
0
 10
14.5626
 20
9.02534
 11
14.6169
 21
8.98161
  0
LINE
  8
0
 10
14.6169
 20
8.98161
 11
14.6617
 21
8.9268
  0
LINE
  8
0
 10
14.6617
 20
8.9268
 11
14.6963
 21
8.8623
  0
LINE
  8
0
 10
14.6963
 20
8.8623
 11
14.7209
 21
8.7881
  0
LINE
  8
0
 10
14.7209
 20
8.7881
 11
14.7355
 21
8.70421
  0
LINE
  8
0
 10
14.7355
 20
8.70421
 11
13.9438
 21
8.70421
  0
LINE
  8
0
 10
24.2332
 20
7.4229
 11
24.4046
 21
7.48489
  0
LINE
  8
0
 10
24.4046
 20
7.48489
 11
24.543
 21
7.58821
  0
LINE
  8
0
 10
24.543
 20
7.58821
 11
24.6484
 21
7.73285
  0
LINE
  8
0
 10
24.6484
 20
7.73285
 11
24.6656
 21
7.73285
  0
LINE
  8
0
 10
24.6656
 20
7.73285
 11
24.6656
 21
7.43959
  0
LINE
  8
0
 10
24.6656
 20
7.43959
 11
25.2929
 21
7.43959
  0
LINE
  8
0
 10
25.2929
 20
7.43959
 11
25.2929
 21
8.85739
  0
LINE
  8
0
 10
25.2929
 20
8.85739
 11
25.2849
 21
8.96521
  0
LINE
  8
0
 10
25.2849
 20
8.96521
 11
25.2611
 21
9.0645
  0
LINE
  8
0
 10
25.2611
 20
9.0645
 11
25.2214
 21
9.15527
  0
LINE
  8
0
 10
25.2214
 20
9.15527
 11
25.1657
 21
9.2375
  0
LINE
  8
0
 10
25.1657
 20
9.2375
 11
25.0966
 21
9.31078
  0
LINE
  8
0
 10
25.0966
 20
9.31078
 11
25.0165
 21
9.37457
  0
LINE
  8
0
 10
25.0165
 20
9.37457
 11
24.9255
 21
9.42892
  0
LINE
  8
0
 10
24.9255
 20
9.42892
 11
24.8234
 21
9.47382
  0
LINE
  8
0
 10
24.8234
 20
9.47382
 11
24.7127
 21
9.50896
  0
LINE
  8
0
 10
24.7127
 20
9.50896
 11
24.5956
 21
9.53407
  0
LINE
  8
0
 10
24.5956
 20
9.53407
 11
24.4722
 21
9.54913
  0
LINE
  8
0
 10
24.4722
 20
9.54913
 11
24.3425
 21
9.55417
  0
LINE
  8
0
 10
24.3425
 20
9.55417
 11
24.1514
 21
9.54372
  0
LINE
  8
0
 10
24.1514
 20
9.54372
 11
23.9798
 21
9.51236
  0
LINE
  8
0
 10
23.9798
 20
9.51236
 11
23.8277
 21
9.46011
  0
LINE
  8
0
 10
23.8277
 20
9.46011
 11
23.6951
 21
9.38696
  0
LINE
  8
0
 10
23.6951
 20
9.38696
 11
23.5837
 21
9.29713
  0
LINE
  8
0
 10
23.5837
 20
9.29713
 11
23.4951
 21
9.19481
  0
LINE
  8
0
 10
23.4951
 20
9.19481
 11
23.4293
 21
9.07999
  0
LINE
  8
0
 10
23.4293
 20
9.07999
 11
23.3863
 21
8.95267
  0
LINE
  8
0
 10
23.3863
 20
8.95267
 11
23.9906
 21
8.87607
  0
LINE
  8
0
 10
23.9906
 20
8.87607
 11
24.0079
 21
8.923
  0
LINE
  8
0
 10
24.0079
 20
8.923
 11
24.0331
 21
8.96478
  0
LINE
  8
0
 10
24.0331
 20
8.96478
 11
24.0662
 21
9.00143
  0
LINE
  8
0
 10
24.0662
 20
9.00143
 11
24.1072
 21
9.03296
  0
LINE
  8
0
 10
24.1072
 20
9.03296
 11
24.1553
 21
9.0583
  0
LINE
  8
0
 10
24.1553
 20
9.0583
 11
24.2095
 21
9.0764
  0
LINE
  8
0
 10
24.2095
 20
9.0764
 11
24.27
 21
9.08727
  0
LINE
  8
0
 10
24.27
 20
9.08727
 11
24.3367
 21
9.0909
  0
LINE
  8
0
 10
24.3367
 20
9.0909
 11
24.401
 21
9.08722
  0
LINE
  8
0
 10
24.401
 20
9.08722
 11
24.4579
 21
9.07617
  0
LINE
  8
0
 10
24.4579
 20
9.07617
 11
24.5076
 21
9.05779
  0
LINE
  8
0
 10
24.5076
 20
9.05779
 11
24.5499
 21
9.03206
  0
LINE
  8
0
 10
24.5499
 20
9.03206
 11
24.5838
 21
8.99954
  0
LINE
  8
0
 10
24.5838
 20
8.99954
 11
24.608
 21
8.96083
  0
LINE
  8
0
 10
24.608
 20
8.96083
 11
24.6225
 21
8.91594
  0
LINE
  8
0
 10
24.6225
 20
8.91594
 11
24.6274
 21
8.86485
  0
LINE
  8
0
 10
24.6274
 20
8.86485
 11
24.6274
 21
8.85739
  0
LINE
  8
0
 10
24.6274
 20
8.85739
 11
24.62
 21
8.81285
  0
LINE
  8
0
 10
24.62
 20
8.81285
 11
24.598
 21
8.77638
  0
LINE
  8
0
 10
24.598
 20
8.77638
 11
24.5612
 21
8.74794
  0
LINE
  8
0
 10
24.5612
 20
8.74794
 11
24.5098
 21
8.72757
  0
LINE
  8
0
 10
24.5098
 20
8.72757
 11
24.4413
 21
8.71187
  0
LINE
  8
0
 10
24.4413
 20
8.71187
 11
24.3537
 21
8.69745
  0
LINE
  8
0
 10
24.3537
 20
8.69745
 11
24.2468
 21
8.68431
  0
LINE
  8
0
 10
24.2468
 20
8.68431
 11
24.1206
 21
8.67245
  0
LINE
  8
0
 10
24.1206
 20
8.67245
 11
24.0148
 21
8.6602
  0
LINE
  8
0
 10
24.0148
 20
8.6602
 11
23.9134
 21
8.64211
  0
LINE
  8
0
 10
23.9134
 20
8.64211
 11
23.8164
 21
8.61816
  0
LINE
  8
0
 10
23.8164
 20
8.61816
 11
23.7238
 21
8.58839
  0
LINE
  8
0
 10
23.7238
 20
8.58839
 11
23.6379
 21
8.55127
  0
LINE
  8
0
 10
23.6379
 20
8.55127
 11
23.561
 21
8.50528
  0
LINE
  8
0
 10
23.561
 20
8.50528
 11
23.4931
 21
8.45041
  0
LINE
  8
0
 10
23.4931
 20
8.45041
 11
23.4341
 21
8.38666
  0
LINE
  8
0
 10
23.4341
 20
8.38666
 11
23.3864
 21
8.31252
  0
LINE
  8
0
 10
23.3864
 20
8.31252
 11
23.3523
 21
8.22649
  0
LINE
  8
0
 10
23.3523
 20
8.22649
 11
23.3319
 21
8.12852
  0
LINE
  8
0
 10
23.3319
 20
8.12852
 11
23.3251
 21
8.01866
  0
LINE
  8
0
 10
23.3251
 20
8.01866
 11
23.3375
 21
7.87343
  0
LINE
  8
0
 10
23.3375
 20
7.87343
 11
23.3746
 21
7.7478
  0
LINE
  8
0
 10
23.3746
 20
7.7478
 11
23.4364
 21
7.6418
  0
LINE
  8
0
 10
23.4364
 20
7.6418
 11
23.523
 21
7.5554
  0
LINE
  8
0
 10
23.523
 20
7.5554
 11
23.6289
 21
7.4884
  0
LINE
  8
0
 10
23.6289
 20
7.4884
 11
23.7484
 21
7.44054
  0
LINE
  8
0
 10
23.7484
 20
7.44054
 11
23.8818
 21
7.4118
  0
LINE
  8
0
 10
23.8818
 20
7.4118
 11
24.0288
 21
7.40224
  0
LINE
  8
0
 10
24.0288
 20
7.40224
 11
24.2332
 21
7.4229
  0
LINE
  8
0
 10
24.174
 20
7.83716
 11
24.1218
 21
7.8475
  0
LINE
  8
0
 10
24.1218
 20
7.8475
 11
24.075
 21
7.86473
  0
LINE
  8
0
 10
24.075
 20
7.86473
 11
24.0336
 21
7.88884
  0
LINE
  8
0
 10
24.0336
 20
7.88884
 11
23.9997
 21
7.91949
  0
LINE
  8
0
 10
23.9997
 20
7.91949
 11
23.9755
 21
7.95633
  0
LINE
  8
0
 10
23.9755
 20
7.95633
 11
23.961
 21
7.99934
  0
LINE
  8
0
 10
23.961
 20
7.99934
 11
23.9562
 21
8.04854
  0
LINE
  8
0
 10
23.9562
 20
8.04854
 11
23.9754
 21
8.14043
  0
LINE
  8
0
 10
23.9754
 20
8.14043
 11
24.0331
 21
8.21246
  0
LINE
  8
0
 10
24.0331
 20
8.21246
 11
24.1293
 21
8.26465
  0
LINE
  8
0
 10
24.1293
 20
8.26465
 11
24.264
 21
8.297
  0
LINE
  8
0
 10
24.264
 20
8.297
 11
24.3119
 21
8.30481
  0
LINE
  8
0
 10
24.3119
 20
8.30481
 11
24.3616
 21
8.31332
  0
LINE
  8
0
 10
24.3616
 20
8.31332
 11
24.4132
 21
8.32256
  0
LINE
  8
0
 10
24.4132
 20
8.32256
 11
24.4667
 21
8.33247
  0
LINE
  8
0
 10
24.4667
 20
8.33247
 11
24.518
 21
8.34334
  0
LINE
  8
0
 10
24.518
 20
8.34334
 11
24.5628
 21
8.35536
  0
LINE
  8
0
 10
24.5628
 20
8.35536
 11
24.6012
 21
8.36856
  0
LINE
  8
0
 10
24.6012
 20
8.36856
 11
24.6331
 21
8.38293
  0
LINE
  8
0
 10
24.6331
 20
8.38293
 11
24.6331
 21
8.18304
  0
LINE
  8
0
 10
24.6331
 20
8.18304
 11
24.6258
 21
8.10913
  0
LINE
  8
0
 10
24.6258
 20
8.10913
 11
24.604
 21
8.04247
  0
LINE
  8
0
 10
24.604
 20
8.04247
 11
24.5675
 21
7.98303
  0
LINE
  8
0
 10
24.5675
 20
7.98303
 11
24.5165
 21
7.93085
  0
LINE
  8
0
 10
24.5165
 20
7.93085
 11
24.4549
 21
7.88835
  0
LINE
  8
0
 10
24.4549
 20
7.88835
 11
24.3869
 21
7.858
  0
LINE
  8
0
 10
24.3869
 20
7.858
 11
24.3125
 21
7.8398
  0
LINE
  8
0
 10
24.3125
 20
7.8398
 11
24.2315
 21
7.83372
  0
LINE
  8
0
 10
24.2315
 20
7.83372
 11
24.174
 21
7.83716
  0
LINE
  8
0
 10
17.7911
 20
8.57906
 11
17.7987
 21
8.66801
  0
LINE
  8
0
 10
17.7987
 20
8.66801
 11
17.8215
 21
8.74811
  0
LINE
  8
0
 10
17.8215
 20
8.74811
 11
17.8594
 21
8.81932
  0
LINE
  8
0
 10
17.8594
 20
8.81932
 11
17.9125
 21
8.88165
  0
LINE
  8
0
 10
17.9125
 20
8.88165
 11
17.9773
 21
8.93233
  0
LINE
  8
0
 10
17.9773
 20
8.93233
 11
18.05
 21
8.96852
  0
LINE
  8
0
 10
18.05
 20
8.96852
 11
18.1307
 21
8.99025
  0
LINE
  8
0
 10
18.1307
 20
8.99025
 11
18.2195
 21
8.99748
  0
LINE
  8
0
 10
18.2195
 20
8.99748
 11
18.2511
 21
8.99696
  0
LINE
  8
0
 10
18.2511
 20
8.99696
 11
18.2847
 21
8.99539
  0
LINE
  8
0
 10
18.2847
 20
8.99539
 11
18.3204
 21
8.99275
  0
LINE
  8
0
 10
18.3204
 20
8.99275
 11
18.3581
 21
8.98909
  0
LINE
  8
0
 10
18.3581
 20
8.98909
 11
18.395
 21
8.98436
  0
LINE
  8
0
 10
18.395
 20
8.98436
 11
18.4281
 21
8.97858
  0
LINE
  8
0
 10
18.4281
 20
8.97858
 11
18.4576
 21
8.97176
  0
LINE
  8
0
 10
18.4576
 20
8.97176
 11
18.4834
 21
8.96388
  0
LINE
  8
0
 10
18.4834
 20
8.96388
 11
18.4834
 21
9.53174
  0
LINE
  8
0
 10
18.4834
 20
9.53174
 11
18.4371
 21
9.54155
  0
LINE
  8
0
 10
18.4371
 20
9.54155
 11
18.3902
 21
9.54855
  0
LINE
  8
0
 10
18.3902
 20
9.54855
 11
18.3425
 21
9.55276
  0
LINE
  8
0
 10
18.3425
 20
9.55276
 11
18.2941
 21
9.55417
  0
LINE
  8
0
 10
18.2941
 20
9.55417
 11
18.2088
 21
9.54785
  0
LINE
  8
0
 10
18.2088
 20
9.54785
 11
18.1289
 21
9.52895
  0
LINE
  8
0
 10
18.1289
 20
9.52895
 11
18.0544
 21
9.49742
  0
LINE
  8
0
 10
18.0544
 20
9.49742
 11
17.9852
 21
9.45329
  0
LINE
  8
0
 10
17.9852
 20
9.45329
 11
17.9235
 21
9.39632
  0
LINE
  8
0
 10
17.9235
 20
9.39632
 11
17.8712
 21
9.32626
  0
LINE
  8
0
 10
17.8712
 20
9.32626
 11
17.8283
 21
9.24315
  0
LINE
  8
0
 10
17.8283
 20
9.24315
 11
17.795
 21
9.14694
  0
LINE
  8
0
 10
17.795
 20
9.14694
 11
17.772
 21
9.14694
  0
LINE
  8
0
 10
17.772
 20
9.14694
 11
17.772
 21
9.528
  0
LINE
  8
0
 10
17.772
 20
9.528
 11
17.1237
 21
9.528
  0
LINE
  8
0
 10
17.1237
 20
9.528
 11
17.1237
 21
7.43959
  0
LINE
  8
0
 10
17.1237
 20
7.43959
 11
17.7911
 21
7.43959
  0
LINE
  8
0
 10
17.7911
 20
7.43959
 11
17.7911
 21
8.57906
  0
LINE
  8
0
 10
35.1953
 20
7.40883
 11
35.3449
 21
7.43422
  0
LINE
  8
0
 10
35.3449
 20
7.43422
 11
35.4827
 21
7.47653
  0
LINE
  8
0
 10
35.4827
 20
7.47653
 11
35.6086
 21
7.53577
  0
LINE
  8
0
 10
35.6086
 20
7.53577
 11
35.7216
 21
7.61015
  0
LINE
  8
0
 10
35.7216
 20
7.61015
 11
35.8208
 21
7.69783
  0
LINE
  8
0
 10
35.8208
 20
7.69783
 11
35.9062
 21
7.79881
  0
LINE
  8
0
 10
35.9062
 20
7.79881
 11
35.9776
 21
7.9131
  0
LINE
  8
0
 10
35.9776
 20
7.9131
 11
36.0341
 21
8.03903
  0
LINE
  8
0
 10
36.0341
 20
8.03903
 11
36.0745
 21
8.17487
  0
LINE
  8
0
 10
36.0745
 20
8.17487
 11
36.0987
 21
8.32063
  0
LINE
  8
0
 10
36.0987
 20
8.32063
 11
36.1067
 21
8.47632
  0
LINE
  8
0
 10
36.1067
 20
8.47632
 11
36.0987
 21
8.63206
  0
LINE
  8
0
 10
36.0987
 20
8.63206
 11
36.0745
 21
8.778
  0
LINE
  8
0
 10
36.0745
 20
8.778
 11
36.0341
 21
8.91414
  0
LINE
  8
0
 10
36.0341
 20
8.91414
 11
35.9776
 21
9.04045
  0
LINE
  8
0
 10
35.9776
 20
9.04045
 11
35.9062
 21
9.15515
  0
LINE
  8
0
 10
35.9062
 20
9.15515
 11
35.8208
 21
9.25644
  0
LINE
  8
0
 10
35.8208
 20
9.25644
 11
35.7216
 21
9.3443
  0
LINE
  8
0
 10
35.7216
 20
9.3443
 11
35.6086
 21
9.41873
  0
LINE
  8
0
 10
35.6086
 20
9.41873
 11
35.4827
 21
9.47798
  0
LINE
  8
0
 10
35.4827
 20
9.47798
 11
35.3449
 21
9.52031
  0
LINE
  8
0
 10
35.3449
 20
9.52031
 11
35.1953
 21
9.5457
  0
LINE
  8
0
 10
35.1953
 20
9.5457
 11
35.0339
 21
9.55417
  0
LINE
  8
0
 10
35.0339
 20
9.55417
 11
34.8725
 21
9.5457
  0
LINE
  8
0
 10
34.8725
 20
9.5457
 11
34.7227
 21
9.52031
  0
LINE
  8
0
 10
34.7227
 20
9.52031
 11
34.5847
 21
9.47798
  0
LINE
  8
0
 10
34.5847
 20
9.47798
 11
34.4583
 21
9.41873
  0
LINE
  8
0
 10
34.4583
 20
9.41873
 11
34.3448
 21
9.3443
  0
LINE
  8
0
 10
34.3448
 20
9.3443
 11
34.2453
 21
9.25644
  0
LINE
  8
0
 10
34.2453
 20
9.25644
 11
34.1598
 21
9.15515
  0
LINE
  8
0
 10
34.1598
 20
9.15515
 11
34.0883
 21
9.04045
  0
LINE
  8
0
 10
34.0883
 20
9.04045
 11
34.0318
 21
8.91414
  0
LINE
  8
0
 10
34.0318
 20
8.91414
 11
33.9915
 21
8.778
  0
LINE
  8
0
 10
33.9915
 20
8.778
 11
33.9673
 21
8.63206
  0
LINE
  8
0
 10
33.9673
 20
8.63206
 11
33.9592
 21
8.47632
  0
LINE
  8
0
 10
33.9592
 20
8.47632
 11
33.9673
 21
8.32063
  0
LINE
  8
0
 10
33.9673
 20
8.32063
 11
33.9915
 21
8.17487
  0
LINE
  8
0
 10
33.9915
 20
8.17487
 11
34.0318
 21
8.03903
  0
LINE
  8
0
 10
34.0318
 20
8.03903
 11
34.0883
 21
7.9131
  0
LINE
  8
0
 10
34.0883
 20
7.9131
 11
34.1598
 21
7.79881
  0
LINE
  8
0
 10
34.1598
 20
7.79881
 11
34.2453
 21
7.69783
  0
LINE
  8
0
 10
34.2453
 20
7.69783
 11
34.3448
 21
7.61015
  0
LINE
  8
0
 10
34.3448
 20
7.61015
 11
34.4583
 21
7.53577
  0
LINE
  8
0
 10
34.4583
 20
7.53577
 11
34.5847
 21
7.47653
  0
LINE
  8
0
 10
34.5847
 20
7.47653
 11
34.7227
 21
7.43422
  0
LINE
  8
0
 10
34.7227
 20
7.43422
 11
34.8725
 21
7.40883
  0
LINE
  8
0
 10
34.8725
 20
7.40883
 11
35.0339
 21
7.40036
  0
LINE
  8
0
 10
35.0339
 20
7.40036
 11
35.1953
 21
7.40883
  0
LINE
  8
0
 10
34.9439
 20
7.90909
 11
34.8652
 21
7.93904
  0
LINE
  8
0
 10
34.8652
 20
7.93904
 11
34.7976
 21
7.98895
  0
LINE
  8
0
 10
34.7976
 20
7.98895
 11
34.7413
 21
8.05882
  0
LINE
  8
0
 10
34.7413
 20
8.05882
 11
34.697
 21
8.14503
  0
LINE
  8
0
 10
34.697
 20
8.14503
 11
34.6653
 21
8.24399
  0
LINE
  8
0
 10
34.6653
 20
8.24399
 11
34.6463
 21
8.35567
  0
LINE
  8
0
 10
34.6463
 20
8.35567
 11
34.64
 21
8.48006
  0
LINE
  8
0
 10
34.64
 20
8.48006
 11
34.6463
 21
8.60428
  0
LINE
  8
0
 10
34.6463
 20
8.60428
 11
34.6653
 21
8.71542
  0
LINE
  8
0
 10
34.6653
 20
8.71542
 11
34.697
 21
8.81349
  0
LINE
  8
0
 10
34.697
 20
8.81349
 11
34.7413
 21
8.89848
  0
LINE
  8
0
 10
34.7413
 20
8.89848
 11
34.7976
 21
8.96715
  0
LINE
  8
0
 10
34.7976
 20
8.96715
 11
34.8652
 21
9.01617
  0
LINE
  8
0
 10
34.8652
 20
9.01617
 11
34.9439
 21
9.04561
  0
LINE
  8
0
 10
34.9439
 20
9.04561
 11
35.0339
 21
9.05542
  0
LINE
  8
0
 10
35.0339
 20
9.05542
 11
35.1239
 21
9.04561
  0
LINE
  8
0
 10
35.1239
 20
9.04561
 11
35.2027
 21
9.01617
  0
LINE
  8
0
 10
35.2027
 20
9.01617
 11
35.2702
 21
8.96715
  0
LINE
  8
0
 10
35.2702
 20
8.96715
 11
35.3265
 21
8.89848
  0
LINE
  8
0
 10
35.3265
 20
8.89848
 11
35.3708
 21
8.81349
  0
LINE
  8
0
 10
35.3708
 20
8.81349
 11
35.4025
 21
8.71542
  0
LINE
  8
0
 10
35.4025
 20
8.71542
 11
35.4215
 21
8.60428
  0
LINE
  8
0
 10
35.4215
 20
8.60428
 11
35.4279
 21
8.48006
  0
LINE
  8
0
 10
35.4279
 20
8.48006
 11
35.4215
 21
8.35567
  0
LINE
  8
0
 10
35.4215
 20
8.35567
 11
35.4025
 21
8.24399
  0
LINE
  8
0
 10
35.4025
 20
8.24399
 11
35.3708
 21
8.14503
  0
LINE
  8
0
 10
35.3708
 20
8.14503
 11
35.3265
 21
8.05882
  0
LINE
  8
0
 10
35.3265
 20
8.05882
 11
35.2702
 21
7.98895
  0
LINE
  8
0
 10
35.2702
 20
7.98895
 11
35.2027
 21
7.93904
  0
LINE
  8
0
 10
35.2027
 20
7.93904
 11
35.1239
 21
7.90909
  0
LINE
  8
0
 10
35.1239
 20
7.90909
 11
35.0339
 21
7.89911
  0
LINE
  8
0
 10
35.0339
 20
7.89911
 11
34.9439
 21
7.90909
  0
LINE
  8
0
 10
19.4065
 20
9.528
 11
18.7391
 21
9.528
  0
LINE
  8
0
 10
18.7391
 20
9.528
 11
18.7391
 21
7.43959
  0
LINE
  8
0
 10
18.7391
 20
7.43959
 11
19.4065
 21
7.43959
  0
LINE
  8
0
 10
19.4065
 20
7.43959
 11
19.4065
 21
9.528
  0
LINE
  8
0
 10
8.19412
 20
1.33881
 11
8.24406
 21
1.39435
  0
LINE
  8
0
 10
8.24406
 20
1.39435
 11
8.29105
 21
1.45079
  0
LINE
  8
0
 10
8.29105
 20
1.45079
 11
8.3351
 21
1.5083
  0
LINE
  8
0
 10
8.3351
 20
1.5083
 11
8.37625
 21
1.56702
  0
LINE
  8
0
 10
8.37625
 20
1.56702
 11
8.41452
 21
1.62709
  0
LINE
  8
0
 10
8.41452
 20
1.62709
 11
8.44995
 21
1.68867
  0
LINE
  8
0
 10
8.44995
 20
1.68867
 11
8.48257
 21
1.75192
  0
LINE
  8
0
 10
8.48257
 20
1.75192
 11
8.51241
 21
1.81699
  0
LINE
  8
0
 10
8.51241
 20
1.81699
 11
8.53949
 21
1.88403
  0
LINE
  8
0
 10
8.53949
 20
1.88403
 11
8.56384
 21
1.95317
  0
LINE
  8
0
 10
8.56384
 20
1.95317
 11
8.58551
 21
2.0246
  0
LINE
  8
0
 10
8.58551
 20
2.0246
 11
8.60451
 21
2.09843
  0
LINE
  8
0
 10
8.60451
 20
2.09843
 11
8.62088
 21
2.17485
  0
LINE
  8
0
 10
8.62088
 20
2.17485
 11
8.63466
 21
2.25398
  0
LINE
  8
0
 10
8.63466
 20
2.25398
 11
8.64586
 21
2.336
  0
LINE
  8
0
 10
8.64586
 20
2.336
 11
8.65451
 21
2.42102
  0
LINE
  8
0
 10
8.65451
 20
2.42102
 11
8.66066
 21
2.50923
  0
LINE
  8
0
 10
8.66066
 20
2.50923
 11
8.66432
 21
2.60077
  0
LINE
  8
0
 10
8.66432
 20
2.60077
 11
8.66554
 21
2.69579
  0
LINE
  8
0
 10
8.66554
 20
2.69579
 11
8.66554
 21
8.94789
  0
LINE
  8
0
 10
8.66554
 20
8.94789
 11
6.12436
 21
7.57646
  0
LINE
  8
0
 10
6.12436
 20
7.57646
 11
6.12436
 21
2.61511
  0
LINE
  8
0
 10
6.12436
 20
2.61511
 11
8.14117
 21
1.28403
  0
LINE
  8
0
 10
8.14117
 20
1.28403
 11
8.19412
 21
1.33881
  0
LINE
  8
0
 10
30.9605
 20
7.4066
 11
31.0278
 21
7.42534
  0
LINE
  8
0
 10
31.0278
 20
7.42534
 11
31.0891
 21
7.45657
  0
LINE
  8
0
 10
31.0891
 20
7.45657
 11
31.1442
 21
7.50029
  0
LINE
  8
0
 10
31.1442
 20
7.50029
 11
31.1898
 21
7.55324
  0
LINE
  8
0
 10
31.1898
 20
7.55324
 11
31.2224
 21
7.61214
  0
LINE
  8
0
 10
31.2224
 20
7.61214
 11
31.2419
 21
7.677
  0
LINE
  8
0
 10
31.2419
 20
7.677
 11
31.2484
 21
7.7478
  0
LINE
  8
0
 10
31.2484
 20
7.7478
 11
31.2419
 21
7.81943
  0
LINE
  8
0
 10
31.2419
 20
7.81943
 11
31.2224
 21
7.88487
  0
LINE
  8
0
 10
31.2224
 20
7.88487
 11
31.1898
 21
7.94411
  0
LINE
  8
0
 10
31.1898
 20
7.94411
 11
31.1442
 21
7.99718
  0
LINE
  8
0
 10
31.1442
 20
7.99718
 11
31.0891
 21
8.04091
  0
LINE
  8
0
 10
31.0891
 20
8.04091
 11
31.0278
 21
8.07214
  0
LINE
  8
0
 10
31.0278
 20
8.07214
 11
30.9605
 21
8.09088
  0
LINE
  8
0
 10
30.9605
 20
8.09088
 11
30.887
 21
8.09714
  0
LINE
  8
0
 10
30.887
 20
8.09714
 11
30.8136
 21
8.09088
  0
LINE
  8
0
 10
30.8136
 20
8.09088
 11
30.7462
 21
8.07214
  0
LINE
  8
0
 10
30.7462
 20
8.07214
 11
30.685
 21
8.04091
  0
LINE
  8
0
 10
30.685
 20
8.04091
 11
30.6298
 21
7.99718
  0
LINE
  8
0
 10
30.6298
 20
7.99718
 11
30.5842
 21
7.94411
  0
LINE
  8
0
 10
30.5842
 20
7.94411
 11
30.5517
 21
7.88487
  0
LINE
  8
0
 10
30.5517
 20
7.88487
 11
30.5321
 21
7.81943
  0
LINE
  8
0
 10
30.5321
 20
7.81943
 11
30.5256
 21
7.7478
  0
LINE
  8
0
 10
30.5256
 20
7.7478
 11
30.5321
 21
7.677
  0
LINE
  8
0
 10
30.5321
 20
7.677
 11
30.5517
 21
7.61214
  0
LINE
  8
0
 10
30.5517
 20
7.61214
 11
30.5842
 21
7.55324
  0
LINE
  8
0
 10
30.5842
 20
7.55324
 11
30.6298
 21
7.50029
  0
LINE
  8
0
 10
30.6298
 20
7.50029
 11
30.685
 21
7.45657
  0
LINE
  8
0
 10
30.685
 20
7.45657
 11
30.7462
 21
7.42534
  0
LINE
  8
0
 10
30.7462
 20
7.42534
 11
30.8136
 21
7.4066
  0
LINE
  8
0
 10
30.8136
 20
7.4066
 11
30.887
 21
7.40036
  0
LINE
  8
0
 10
30.887
 20
7.40036
 11
30.9605
 21
7.4066
  0
LINE
  8
0
 10
25.5056
 20
4.0092
 11
25.6696
 21
4.03528
  0
LINE
  8
0
 10
25.6696
 20
4.03528
 11
25.8237
 21
4.07874
  0
LINE
  8
0
 10
25.8237
 20
4.07874
 11
25.9676
 21
4.13959
  0
LINE
  8
0
 10
25.9676
 20
4.13959
 11
26.099
 21
4.21674
  0
LINE
  8
0
 10
26.099
 20
4.21674
 11
26.2155
 21
4.3091
  0
LINE
  8
0
 10
26.2155
 20
4.3091
 11
26.3171
 21
4.41667
  0
LINE
  8
0
 10
26.3171
 20
4.41667
 11
26.4039
 21
4.53946
  0
LINE
  8
0
 10
26.4039
 20
4.53946
 11
26.4732
 21
4.67632
  0
LINE
  8
0
 10
26.4732
 20
4.67632
 11
26.5228
 21
4.82608
  0
LINE
  8
0
 10
26.5228
 20
4.82608
 11
26.5525
 21
4.98878
  0
LINE
  8
0
 10
26.5525
 20
4.98878
 11
26.5624
 21
5.16441
  0
LINE
  8
0
 10
26.5624
 20
5.16441
 11
26.5624
 21
5.5231
  0
LINE
  8
0
 10
26.5624
 20
5.5231
 11
25.3633
 21
5.5231
  0
LINE
  8
0
 10
25.3633
 20
5.5231
 11
25.3633
 21
5.04912
  0
LINE
  8
0
 10
25.3633
 20
5.04912
 11
25.9225
 21
5.04912
  0
LINE
  8
0
 10
25.9225
 20
5.04912
 11
25.9106
 21
4.94412
  0
LINE
  8
0
 10
25.9106
 20
4.94412
 11
25.8805
 21
4.85056
  0
LINE
  8
0
 10
25.8805
 20
4.85056
 11
25.8323
 21
4.76843
  0
LINE
  8
0
 10
25.8323
 20
4.76843
 11
25.7658
 21
4.69775
  0
LINE
  8
0
 10
25.7658
 20
4.69775
 11
25.6824
 21
4.6409
  0
LINE
  8
0
 10
25.6824
 20
4.6409
 11
25.5831
 21
4.6003
  0
LINE
  8
0
 10
25.5831
 20
4.6003
 11
25.468
 21
4.57594
  0
LINE
  8
0
 10
25.468
 20
4.57594
 11
25.337
 21
4.56781
  0
LINE
  8
0
 10
25.337
 20
4.56781
 11
25.1872
 21
4.58148
  0
LINE
  8
0
 10
25.1872
 20
4.58148
 11
25.0551
 21
4.62248
  0
LINE
  8
0
 10
25.0551
 20
4.62248
 11
24.9405
 21
4.69083
  0
LINE
  8
0
 10
24.9405
 20
4.69083
 11
24.8435
 21
4.7865
  0
LINE
  8
0
 10
24.8435
 20
4.7865
 11
24.7663
 21
4.90712
  0
LINE
  8
0
 10
24.7663
 20
4.90712
 11
24.7112
 21
5.05026
  0
LINE
  8
0
 10
24.7112
 20
5.05026
 11
24.6781
 21
5.21593
  0
LINE
  8
0
 10
24.6781
 20
5.21593
 11
24.6671
 21
5.40414
  0
LINE
  8
0
 10
24.6671
 20
5.40414
 11
24.6784
 21
5.59065
  0
LINE
  8
0
 10
24.6784
 20
5.59065
 11
24.7123
 21
5.75484
  0
LINE
  8
0
 10
24.7123
 20
5.75484
 11
24.7689
 21
5.89673
  0
LINE
  8
0
 10
24.7689
 20
5.89673
 11
24.8482
 21
6.01631
  0
LINE
  8
0
 10
24.8482
 20
6.01631
 11
24.9465
 21
6.11118
  0
LINE
  8
0
 10
24.9465
 20
6.11118
 11
25.0605
 21
6.17894
  0
LINE
  8
0
 10
25.0605
 20
6.17894
 11
25.19
 21
6.2196
  0
LINE
  8
0
 10
25.19
 20
6.2196
 11
25.3352
 21
6.23317
  0
LINE
  8
0
 10
25.3352
 20
6.23317
 11
25.4348
 21
6.22726
  0
LINE
  8
0
 10
25.4348
 20
6.22726
 11
25.5254
 21
6.20959
  0
LINE
  8
0
 10
25.5254
 20
6.20959
 11
25.6069
 21
6.18015
  0
LINE
  8
0
 10
25.6069
 20
6.18015
 11
25.6795
 21
6.1389
  0
LINE
  8
0
 10
25.6795
 20
6.1389
 11
25.742
 21
6.08704
  0
LINE
  8
0
 10
25.742
 20
6.08704
 11
25.7933
 21
6.02568
  0
LINE
  8
0
 10
25.7933
 20
6.02568
 11
25.8334
 21
5.95482
  0
LINE
  8
0
 10
25.8334
 20
5.95482
 11
25.8625
 21
5.87447
  0
LINE
  8
0
 10
25.8625
 20
5.87447
 11
26.5324
 21
5.87447
  0
LINE
  8
0
 10
26.5324
 20
5.87447
 11
26.5073
 21
6.00607
  0
LINE
  8
0
 10
26.5073
 20
6.00607
 11
26.4656
 21
6.12999
  0
LINE
  8
0
 10
26.4656
 20
6.12999
 11
26.4073
 21
6.24626
  0
LINE
  8
0
 10
26.4073
 20
6.24626
 11
26.3326
 21
6.35486
  0
LINE
  8
0
 10
26.3326
 20
6.35486
 11
26.2436
 21
6.45392
  0
LINE
  8
0
 10
26.2436
 20
6.45392
 11
26.1428
 21
6.54153
  0
LINE
  8
0
 10
26.1428
 20
6.54153
 11
26.0301
 21
6.61771
  0
LINE
  8
0
 10
26.0301
 20
6.61771
 11
25.9056
 21
6.68245
  0
LINE
  8
0
 10
25.9056
 20
6.68245
 11
25.7715
 21
6.7341
  0
LINE
  8
0
 10
25.7715
 20
6.7341
 11
25.6298
 21
6.77098
  0
LINE
  8
0
 10
25.6298
 20
6.77098
 11
25.4806
 21
6.79312
  0
LINE
  8
0
 10
25.4806
 20
6.79312
 11
25.3239
 21
6.80051
  0
LINE
  8
0
 10
25.3239
 20
6.80051
 11
25.1416
 21
6.79015
  0
LINE
  8
0
 10
25.1416
 20
6.79015
 11
24.9683
 21
6.75909
  0
LINE
  8
0
 10
24.9683
 20
6.75909
 11
24.8038
 21
6.70734
  0
LINE
  8
0
 10
24.8038
 20
6.70734
 11
24.6483
 21
6.63487
  0
LINE
  8
0
 10
24.6483
 20
6.63487
 11
24.505
 21
6.54279
  0
LINE
  8
0
 10
24.505
 20
6.54279
 11
24.3771
 21
6.43219
  0
LINE
  8
0
 10
24.3771
 20
6.43219
 11
24.2648
 21
6.30305
  0
LINE
  8
0
 10
24.2648
 20
6.30305
 11
24.1679
 21
6.1554
  0
LINE
  8
0
 10
24.1679
 20
6.1554
 11
24.0899
 21
5.99016
  0
LINE
  8
0
 10
24.0899
 20
5.99016
 11
24.0342
 21
5.80836
  0
LINE
  8
0
 10
24.0342
 20
5.80836
 11
24.0008
 21
5.60997
  0
LINE
  8
0
 10
24.0008
 20
5.60997
 11
23.9896
 21
5.395
  0
LINE
  8
0
 10
23.9896
 20
5.395
 11
24.0002
 21
5.18729
  0
LINE
  8
0
 10
24.0002
 20
5.18729
 11
24.0318
 21
4.99422
  0
LINE
  8
0
 10
24.0318
 20
4.99422
 11
24.0846
 21
4.81578
  0
LINE
  8
0
 10
24.0846
 20
4.81578
 11
24.1585
 21
4.65198
  0
LINE
  8
0
 10
24.1585
 20
4.65198
 11
24.2513
 21
4.5045
  0
LINE
  8
0
 10
24.2513
 20
4.5045
 11
24.3607
 21
4.37497
  0
LINE
  8
0
 10
24.3607
 20
4.37497
 11
24.4868
 21
4.2634
  0
LINE
  8
0
 10
24.4868
 20
4.2634
 11
24.6295
 21
4.16978
  0
LINE
  8
0
 10
24.6295
 20
4.16978
 11
24.7867
 21
4.09572
  0
LINE
  8
0
 10
24.7867
 20
4.09572
 11
24.9561
 21
4.04283
  0
LINE
  8
0
 10
24.9561
 20
4.04283
 11
25.1376
 21
4.01108
  0
LINE
  8
0
 10
25.1376
 20
4.01108
 11
25.3314
 21
4.0005
  0
LINE
  8
0
 10
25.3314
 20
4.0005
 11
25.5056
 21
4.0092
  0
LINE
  8
0
 10
20.1181
 20
4.01062
 11
20.2913
 21
4.04099
  0
LINE
  8
0
 10
20.2913
 20
4.04099
 11
20.4555
 21
4.0916
  0
LINE
  8
0
 10
20.4555
 20
4.0916
 11
20.6106
 21
4.16245
  0
LINE
  8
0
 10
20.6106
 20
4.16245
 11
20.7534
 21
4.25285
  0
LINE
  8
0
 10
20.7534
 20
4.25285
 11
20.8806
 21
4.36215
  0
LINE
  8
0
 10
20.8806
 20
4.36215
 11
20.9922
 21
4.49033
  0
LINE
  8
0
 10
20.9922
 20
4.49033
 11
21.0882
 21
4.63736
  0
LINE
  8
0
 10
21.0882
 20
4.63736
 11
21.1653
 21
4.80229
  0
LINE
  8
0
 10
21.1653
 20
4.80229
 11
21.2205
 21
4.98416
  0
LINE
  8
0
 10
21.2205
 20
4.98416
 11
21.2535
 21
5.18295
  0
LINE
  8
0
 10
21.2535
 20
5.18295
 11
21.2646
 21
5.39867
  0
LINE
  8
0
 10
21.2646
 20
5.39867
 11
21.2535
 21
5.61519
  0
LINE
  8
0
 10
21.2535
 20
5.61519
 11
21.2205
 21
5.81454
  0
LINE
  8
0
 10
21.2205
 20
5.81454
 11
21.1653
 21
5.99675
  0
LINE
  8
0
 10
21.1653
 20
5.99675
 11
21.0882
 21
6.16179
  0
LINE
  8
0
 10
21.0882
 20
6.16179
 11
20.9922
 21
6.30888
  0
LINE
  8
0
 10
20.9922
 20
6.30888
 11
20.8806
 21
6.43721
  0
LINE
  8
0
 10
20.8806
 20
6.43721
 11
20.7534
 21
6.5468
  0
LINE
  8
0
 10
20.7534
 20
6.5468
 11
20.6106
 21
6.63762
  0
LINE
  8
0
 10
20.6106
 20
6.63762
 11
20.4555
 21
6.70888
  0
LINE
  8
0
 10
20.4555
 20
6.70888
 11
20.2913
 21
6.75978
  0
LINE
  8
0
 10
20.2913
 20
6.75978
 11
20.1181
 21
6.79031
  0
LINE
  8
0
 10
20.1181
 20
6.79031
 11
19.9359
 21
6.80051
  0
LINE
  8
0
 10
19.9359
 20
6.80051
 11
19.7521
 21
6.79031
  0
LINE
  8
0
 10
19.7521
 20
6.79031
 11
19.5777
 21
6.75978
  0
LINE
  8
0
 10
19.5777
 20
6.75978
 11
19.4129
 21
6.70888
  0
LINE
  8
0
 10
19.4129
 20
6.70888
 11
19.2576
 21
6.63762
  0
LINE
  8
0
 10
19.2576
 20
6.63762
 11
19.1148
 21
6.5468
  0
LINE
  8
0
 10
19.1148
 20
6.5468
 11
18.9876
 21
6.43721
  0
LINE
  8
0
 10
18.9876
 20
6.43721
 11
18.876
 21
6.30888
  0
LINE
  8
0
 10
18.876
 20
6.30888
 11
18.78
 21
6.16179
  0
LINE
  8
0
 10
18.78
 20
6.16179
 11
18.7028
 21
5.99675
  0
LINE
  8
0
 10
18.7028
 20
5.99675
 11
18.6477
 21
5.81454
  0
LINE
  8
0
 10
18.6477
 20
5.81454
 11
18.6146
 21
5.61519
  0
LINE
  8
0
 10
18.6146
 20
5.61519
 11
18.6036
 21
5.39867
  0
LINE
  8
0
 10
18.6036
 20
5.39867
 11
18.6146
 21
5.18375
  0
LINE
  8
0
 10
18.6146
 20
5.18375
 11
18.6477
 21
4.98552
  0
LINE
  8
0
 10
18.6477
 20
4.98552
 11
18.7028
 21
4.80399
  0
LINE
  8
0
 10
18.7028
 20
4.80399
 11
18.78
 21
4.63916
  0
LINE
  8
0
 10
18.78
 20
4.63916
 11
18.876
 21
4.49208
  0
LINE
  8
0
 10
18.876
 20
4.49208
 11
18.9876
 21
4.36375
  0
LINE
  8
0
 10
18.9876
 20
4.36375
 11
19.1148
 21
4.25418
  0
LINE
  8
0
 10
19.1148
 20
4.25418
 11
19.2576
 21
4.16336
  0
LINE
  8
0
 10
19.2576
 20
4.16336
 11
19.4129
 21
4.0921
  0
LINE
  8
0
 10
19.4129
 20
4.0921
 11
19.5777
 21
4.04121
  0
LINE
  8
0
 10
19.5777
 20
4.04121
 11
19.7521
 21
4.01068
  0
LINE
  8
0
 10
19.7521
 20
4.01068
 11
19.9359
 21
4.0005
  0
LINE
  8
0
 10
19.9359
 20
4.0005
 11
20.1181
 21
4.01062
  0
LINE
  8
0
 10
19.7912
 20
4.58115
 11
19.6629
 21
4.62111
  0
LINE
  8
0
 10
19.6629
 20
4.62111
 11
19.551
 21
4.68773
  0
LINE
  8
0
 10
19.551
 20
4.68773
 11
19.4555
 21
4.78101
  0
LINE
  8
0
 10
19.4555
 20
4.78101
 11
19.3792
 21
4.89957
  0
LINE
  8
0
 10
19.3792
 20
4.89957
 11
19.3246
 21
5.04202
  0
LINE
  8
0
 10
19.3246
 20
5.04202
 11
19.2919
 21
5.20839
  0
LINE
  8
0
 10
19.2919
 20
5.20839
 11
19.281
 21
5.39867
  0
LINE
  8
0
 10
19.281
 20
5.39867
 11
19.2919
 21
5.5898
  0
LINE
  8
0
 10
19.2919
 20
5.5898
 11
19.3246
 21
5.7569
  0
LINE
  8
0
 10
19.3246
 20
5.7569
 11
19.3792
 21
5.89998
  0
LINE
  8
0
 10
19.3792
 20
5.89998
 11
19.4555
 21
6.01903
  0
LINE
  8
0
 10
19.4555
 20
6.01903
 11
19.551
 21
6.11272
  0
LINE
  8
0
 10
19.551
 20
6.11272
 11
19.6629
 21
6.17963
  0
LINE
  8
0
 10
19.6629
 20
6.17963
 11
19.7912
 21
6.21977
  0
LINE
  8
0
 10
19.7912
 20
6.21977
 11
19.9359
 21
6.23317
  0
LINE
  8
0
 10
19.9359
 20
6.23317
 11
20.0798
 21
6.21977
  0
LINE
  8
0
 10
20.0798
 20
6.21977
 11
20.2076
 21
6.17963
  0
LINE
  8
0
 10
20.2076
 20
6.17963
 11
20.3191
 21
6.11272
  0
LINE
  8
0
 10
20.3191
 20
6.11272
 11
20.4145
 21
6.01903
  0
LINE
  8
0
 10
20.4145
 20
6.01903
 11
20.4908
 21
5.89998
  0
LINE
  8
0
 10
20.4908
 20
5.89998
 11
20.5454
 21
5.7569
  0
LINE
  8
0
 10
20.5454
 20
5.7569
 11
20.5781
 21
5.5898
  0
LINE
  8
0
 10
20.5781
 20
5.5898
 11
20.589
 21
5.39867
  0
LINE
  8
0
 10
20.589
 20
5.39867
 11
20.5781
 21
5.20839
  0
LINE
  8
0
 10
20.5781
 20
5.20839
 11
20.5454
 21
5.04202
  0
LINE
  8
0
 10
20.5454
 20
5.04202
 11
20.4908
 21
4.89957
  0
LINE
  8
0
 10
20.4908
 20
4.89957
 11
20.4145
 21
4.78101
  0
LINE
  8
0
 10
20.4145
 20
4.78101
 11
20.3191
 21
4.68773
  0
LINE
  8
0
 10
20.3191
 20
4.68773
 11
20.2076
 21
4.62111
  0
LINE
  8
0
 10
20.2076
 20
4.62111
 11
20.0798
 21
4.58115
  0
LINE
  8
0
 10
20.0798
 20
4.58115
 11
19.9359
 21
4.56781
  0
LINE
  8
0
 10
19.9359
 20
4.56781
 11
19.7912
 21
4.58115
  0
LINE
  8
0
 10
30.02
 20
4.02354
 11
30.2521
 21
4.0927
  0
LINE
  8
0
 10
30.2521
 20
4.0927
 11
30.4531
 21
4.20793
  0
LINE
  8
0
 10
30.4531
 20
4.20793
 11
30.623
 21
4.36926
  0
LINE
  8
0
 10
30.623
 20
4.36926
 11
30.758
 21
4.57188
  0
LINE
  8
0
 10
30.758
 20
4.57188
 11
30.8545
 21
4.81099
  0
LINE
  8
0
 10
30.8545
 20
4.81099
 11
30.9124
 21
5.08658
  0
LINE
  8
0
 10
30.9124
 20
5.08658
 11
30.9317
 21
5.39867
  0
LINE
  8
0
 10
30.9317
 20
5.39867
 11
30.9229
 21
5.61124
  0
LINE
  8
0
 10
30.9229
 20
5.61124
 11
30.8967
 21
5.80791
  0
LINE
  8
0
 10
30.8967
 20
5.80791
 11
30.853
 21
5.98869
  0
LINE
  8
0
 10
30.853
 20
5.98869
 11
30.7918
 21
6.15355
  0
LINE
  8
0
 10
30.7918
 20
6.15355
 11
30.7143
 21
6.30128
  0
LINE
  8
0
 10
30.7143
 20
6.30128
 11
30.6213
 21
6.43059
  0
LINE
  8
0
 10
30.6213
 20
6.43059
 11
30.513
 21
6.54147
  0
LINE
  8
0
 10
30.513
 20
6.54147
 11
30.3893
 21
6.63394
  0
LINE
  8
0
 10
30.3893
 20
6.63394
 11
30.2513
 21
6.70682
  0
LINE
  8
0
 10
30.2513
 20
6.70682
 11
30.0998
 21
6.75887
  0
LINE
  8
0
 10
30.0998
 20
6.75887
 11
29.9351
 21
6.7901
  0
LINE
  8
0
 10
29.9351
 20
6.7901
 11
29.7569
 21
6.80051
  0
LINE
  8
0
 10
29.7569
 20
6.80051
 11
29.4953
 21
6.77739
  0
LINE
  8
0
 10
29.4953
 20
6.77739
 11
29.2641
 21
6.70807
  0
LINE
  8
0
 10
29.2641
 20
6.70807
 11
29.0632
 21
6.59254
  0
LINE
  8
0
 10
29.0632
 20
6.59254
 11
28.8927
 21
6.4308
  0
LINE
  8
0
 10
28.8927
 20
6.4308
 11
28.7569
 21
6.22766
  0
LINE
  8
0
 10
28.7569
 20
6.22766
 11
28.6598
 21
5.98793
  0
LINE
  8
0
 10
28.6598
 20
5.98793
 11
28.6016
 21
5.71159
  0
LINE
  8
0
 10
28.6016
 20
5.71159
 11
28.5822
 21
5.39867
  0
LINE
  8
0
 10
28.5822
 20
5.39867
 11
28.6016
 21
5.08583
  0
LINE
  8
0
 10
28.6016
 20
5.08583
 11
28.6598
 21
4.80984
  0
LINE
  8
0
 10
28.6598
 20
4.80984
 11
28.7569
 21
4.57068
  0
LINE
  8
0
 10
28.7569
 20
4.57068
 11
28.8927
 21
4.36833
  0
LINE
  8
0
 10
28.8927
 20
4.36833
 11
29.0632
 21
4.20741
  0
LINE
  8
0
 10
29.0632
 20
4.20741
 11
29.2641
 21
4.09247
  0
LINE
  8
0
 10
29.2641
 20
4.09247
 11
29.4953
 21
4.0235
  0
LINE
  8
0
 10
29.4953
 20
4.0235
 11
29.7569
 21
4.0005
  0
LINE
  8
0
 10
29.7569
 20
4.0005
 11
30.02
 21
4.02354
  0
LINE
  8
0
 10
29.6447
 20
4.54346
 11
29.5465
 21
4.58566
  0
LINE
  8
0
 10
29.5465
 20
4.58566
 11
29.4622
 21
4.65599
  0
LINE
  8
0
 10
29.4622
 20
4.65599
 11
29.3919
 21
4.75447
  0
LINE
  8
0
 10
29.3919
 20
4.75447
 11
29.3365
 21
4.87915
  0
LINE
  8
0
 10
29.3365
 20
4.87915
 11
29.2969
 21
5.02808
  0
LINE
  8
0
 10
29.2969
 20
5.02808
 11
29.2731
 21
5.20125
  0
LINE
  8
0
 10
29.2731
 20
5.20125
 11
29.2652
 21
5.39867
  0
LINE
  8
0
 10
29.2652
 20
5.39867
 11
29.2732
 21
5.59706
  0
LINE
  8
0
 10
29.2732
 20
5.59706
 11
29.2971
 21
5.77132
  0
LINE
  8
0
 10
29.2971
 20
5.77132
 11
29.337
 21
5.92143
  0
LINE
  8
0
 10
29.337
 20
5.92143
 11
29.3928
 21
6.04742
  0
LINE
  8
0
 10
29.3928
 20
6.04742
 11
29.4634
 21
6.14709
  0
LINE
  8
0
 10
29.4634
 20
6.14709
 11
29.5477
 21
6.21829
  0
LINE
  8
0
 10
29.5477
 20
6.21829
 11
29.6455
 21
6.26102
  0
LINE
  8
0
 10
29.6455
 20
6.26102
 11
29.7569
 21
6.27525
  0
LINE
  8
0
 10
29.7569
 20
6.27525
 11
29.8691
 21
6.26102
  0
LINE
  8
0
 10
29.8691
 20
6.26102
 11
29.9675
 21
6.21829
  0
LINE
  8
0
 10
29.9675
 20
6.21829
 11
30.0521
 21
6.14709
  0
LINE
  8
0
 10
30.0521
 20
6.14709
 11
30.1228
 21
6.04742
  0
LINE
  8
0
 10
30.1228
 20
6.04742
 11
30.1787
 21
5.92143
  0
LINE
  8
0
 10
30.1787
 20
5.92143
 11
30.2186
 21
5.77132
  0
LINE
  8
0
 10
30.2186
 20
5.77132
 11
30.2425
 21
5.59706
  0
LINE
  8
0
 10
30.2425
 20
5.59706
 11
30.2504
 21
5.39867
  0
LINE
  8
0
 10
30.2504
 20
5.39867
 11
30.2425
 21
5.20125
  0
LINE
  8
0
 10
30.2425
 20
5.20125
 11
30.2186
 21
5.02808
  0
LINE
  8
0
 10
30.2186
 20
5.02808
 11
30.1787
 21
4.87915
  0
LINE
  8
0
 10
30.1787
 20
4.87915
 11
30.1228
 21
4.75447
  0
LINE
  8
0
 10
30.1228
 20
4.75447
 11
30.0521
 21
4.65599
  0
LINE
  8
0
 10
30.0521
 20
4.65599
 11
29.9675
 21
4.58566
  0
LINE
  8
0
 10
29.9675
 20
4.58566
 11
29.8691
 21
4.54346
  0
LINE
  8
0
 10
29.8691
 20
4.54346
 11
29.7569
 21
4.52939
  0
LINE
  8
0
 10
29.7569
 20
4.52939
 11
29.6447
 21
4.54346
  0
LINE
  8
0
 10
32.6169
 20
4.02354
 11
32.8489
 21
4.0927
  0
LINE
  8
0
 10
32.8489
 20
4.0927
 11
33.0499
 21
4.20793
  0
LINE
  8
0
 10
33.0499
 20
4.20793
 11
33.2198
 21
4.36926
  0
LINE
  8
0
 10
33.2198
 20
4.36926
 11
33.3549
 21
4.57188
  0
LINE
  8
0
 10
33.3549
 20
4.57188
 11
33.4513
 21
4.81099
  0
LINE
  8
0
 10
33.4513
 20
4.81099
 11
33.5092
 21
5.08658
  0
LINE
  8
0
 10
33.5092
 20
5.08658
 11
33.5285
 21
5.39867
  0
LINE
  8
0
 10
33.5285
 20
5.39867
 11
33.5198
 21
5.61124
  0
LINE
  8
0
 10
33.5198
 20
5.61124
 11
33.4935
 21
5.80791
  0
LINE
  8
0
 10
33.4935
 20
5.80791
 11
33.4498
 21
5.98869
  0
LINE
  8
0
 10
33.4498
 20
5.98869
 11
33.3887
 21
6.15355
  0
LINE
  8
0
 10
33.3887
 20
6.15355
 11
33.3111
 21
6.30128
  0
LINE
  8
0
 10
33.3111
 20
6.30128
 11
33.2181
 21
6.43059
  0
LINE
  8
0
 10
33.2181
 20
6.43059
 11
33.1098
 21
6.54147
  0
LINE
  8
0
 10
33.1098
 20
6.54147
 11
32.9861
 21
6.63394
  0
LINE
  8
0
 10
32.9861
 20
6.63394
 11
32.8481
 21
6.70682
  0
LINE
  8
0
 10
32.8481
 20
6.70682
 11
32.6967
 21
6.75887
  0
LINE
  8
0
 10
32.6967
 20
6.75887
 11
32.5319
 21
6.7901
  0
LINE
  8
0
 10
32.5319
 20
6.7901
 11
32.3537
 21
6.80051
  0
LINE
  8
0
 10
32.3537
 20
6.80051
 11
32.0921
 21
6.77739
  0
LINE
  8
0
 10
32.0921
 20
6.77739
 11
31.8609
 21
6.70807
  0
LINE
  8
0
 10
31.8609
 20
6.70807
 11
31.66
 21
6.59254
  0
LINE
  8
0
 10
31.66
 20
6.59254
 11
31.4895
 21
6.4308
  0
LINE
  8
0
 10
31.4895
 20
6.4308
 11
31.3537
 21
6.22766
  0
LINE
  8
0
 10
31.3537
 20
6.22766
 11
31.2566
 21
5.98793
  0
LINE
  8
0
 10
31.2566
 20
5.98793
 11
31.1984
 21
5.71159
  0
LINE
  8
0
 10
31.1984
 20
5.71159
 11
31.179
 21
5.39867
  0
LINE
  8
0
 10
31.179
 20
5.39867
 11
31.1984
 21
5.08583
  0
LINE
  8
0
 10
31.1984
 20
5.08583
 11
31.2566
 21
4.80984
  0
LINE
  8
0
 10
31.2566
 20
4.80984
 11
31.3537
 21
4.57068
  0
LINE
  8
0
 10
31.3537
 20
4.57068
 11
31.4895
 21
4.36833
  0
LINE
  8
0
 10
31.4895
 20
4.36833
 11
31.66
 21
4.20741
  0
LINE
  8
0
 10
31.66
 20
4.20741
 11
31.8609
 21
4.09247
  0
LINE
  8
0
 10
31.8609
 20
4.09247
 11
32.0921
 21
4.0235
  0
LINE
  8
0
 10
32.0921
 20
4.0235
 11
32.3537
 21
4.0005
  0
LINE
  8
0
 10
32.3537
 20
4.0005
 11
32.6169
 21
4.02354
  0
LINE
  8
0
 10
32.2415
 20
4.54346
 11
32.1433
 21
4.58566
  0
LINE
  8
0
 10
32.1433
 20
4.58566
 11
32.0591
 21
4.65599
  0
LINE
  8
0
 10
32.0591
 20
4.65599
 11
31.9887
 21
4.75447
  0
LINE
  8
0
 10
31.9887
 20
4.75447
 11
31.9333
 21
4.87915
  0
LINE
  8
0
 10
31.9333
 20
4.87915
 11
31.8937
 21
5.02808
  0
LINE
  8
0
 10
31.8937
 20
5.02808
 11
31.87
 21
5.20125
  0
LINE
  8
0
 10
31.87
 20
5.20125
 11
31.8621
 21
5.39867
  0
LINE
  8
0
 10
31.8621
 20
5.39867
 11
31.87
 21
5.59706
  0
LINE
  8
0
 10
31.87
 20
5.59706
 11
31.894
 21
5.77132
  0
LINE
  8
0
 10
31.894
 20
5.77132
 11
31.9338
 21
5.92143
  0
LINE
  8
0
 10
31.9338
 20
5.92143
 11
31.9897
 21
6.04742
  0
LINE
  8
0
 10
31.9897
 20
6.04742
 11
32.0603
 21
6.14709
  0
LINE
  8
0
 10
32.0603
 20
6.14709
 11
32.1445
 21
6.21829
  0
LINE
  8
0
 10
32.1445
 20
6.21829
 11
32.2423
 21
6.26102
  0
LINE
  8
0
 10
32.2423
 20
6.26102
 11
32.3537
 21
6.27525
  0
LINE
  8
0
 10
32.3537
 20
6.27525
 11
32.466
 21
6.26102
  0
LINE
  8
0
 10
32.466
 20
6.26102
 11
32.5644
 21
6.21829
  0
LINE
  8
0
 10
32.5644
 20
6.21829
 11
32.6489
 21
6.14709
  0
LINE
  8
0
 10
32.6489
 20
6.14709
 11
32.7197
 21
6.04742
  0
LINE
  8
0
 10
32.7197
 20
6.04742
 11
32.7755
 21
5.92143
  0
LINE
  8
0
 10
32.7755
 20
5.92143
 11
32.8154
 21
5.77132
  0
LINE
  8
0
 10
32.8154
 20
5.77132
 11
32.8393
 21
5.59706
  0
LINE
  8
0
 10
32.8393
 20
5.59706
 11
32.8473
 21
5.39867
  0
LINE
  8
0
 10
32.8473
 20
5.39867
 11
32.8393
 21
5.20125
  0
LINE
  8
0
 10
32.8393
 20
5.20125
 11
32.8154
 21
5.02808
  0
LINE
  8
0
 10
32.8154
 20
5.02808
 11
32.7755
 21
4.87915
  0
LINE
  8
0
 10
32.7755
 20
4.87915
 11
32.7197
 21
4.75447
  0
LINE
  8
0
 10
32.7197
 20
4.75447
 11
32.6489
 21
4.65599
  0
LINE
  8
0
 10
32.6489
 20
4.65599
 11
32.5644
 21
4.58566
  0
LINE
  8
0
 10
32.5644
 20
4.58566
 11
32.466
 21
4.54346
  0
LINE
  8
0
 10
32.466
 20
4.54346
 11
32.3537
 21
4.52939
  0
LINE
  8
0
 10
32.3537
 20
4.52939
 11
32.2415
 21
4.54346
  0
LINE
  8
0
 10
14.0226
 20
5.21198
 11
14.0223
 21
5.26706
  0
LINE
  8
0
 10
14.0223
 20
5.26706
 11
14.0214
 21
5.32979
  0
LINE
  8
0
 10
14.0214
 20
5.32979
 11
14.02
 21
5.40019
  0
LINE
  8
0
 10
14.02
 20
5.40019
 11
14.0179
 21
5.47824
  0
LINE
  8
0
 10
14.0179
 20
5.47824
 11
14.013
 21
5.64868
  0
LINE
  8
0
 10
14.013
 20
5.64868
 11
14.0076
 21
5.83238
  0
LINE
  8
0
 10
14.0076
 20
5.83238
 11
14.0049
 21
5.92685
  0
LINE
  8
0
 10
14.0049
 20
5.92685
 11
14.0024
 21
6.01996
  0
LINE
  8
0
 10
14.0024
 20
6.01996
 11
14.0002
 21
6.11169
  0
LINE
  8
0
 10
14.0002
 20
6.11169
 11
13.9982
 21
6.20204
  0
LINE
  8
0
 10
13.9982
 20
6.20204
 11
14.022
 21
6.10616
  0
LINE
  8
0
 10
14.022
 20
6.10616
 11
14.0463
 21
6.01059
  0
LINE
  8
0
 10
14.0463
 20
6.01059
 11
14.0712
 21
5.91537
  0
LINE
  8
0
 10
14.0712
 20
5.91537
 11
14.0967
 21
5.8205
  0
LINE
  8
0
 10
14.0967
 20
5.8205
 11
14.1222
 21
5.72768
  0
LINE
  8
0
 10
14.1222
 20
5.72768
 11
14.1472
 21
5.63864
  0
LINE
  8
0
 10
14.1472
 20
5.63864
 11
14.1715
 21
5.55336
  0
LINE
  8
0
 10
14.1715
 20
5.55336
 11
14.1953
 21
5.47185
  0
LINE
  8
0
 10
14.1953
 20
5.47185
 11
14.2178
 21
5.3959
  0
LINE
  8
0
 10
14.2178
 20
5.3959
 11
14.2384
 21
5.32729
  0
LINE
  8
0
 10
14.2384
 20
5.32729
 11
14.2572
 21
5.26598
  0
LINE
  8
0
 10
14.2572
 20
5.26598
 11
14.274
 21
5.21198
  0
LINE
  8
0
 10
14.274
 20
5.21198
 11
14.6775
 21
4.03709
  0
LINE
  8
0
 10
14.6775
 20
4.03709
 11
15.2311
 21
4.03709
  0
LINE
  8
0
 10
15.2311
 20
4.03709
 11
15.629
 21
5.21198
  0
LINE
  8
0
 10
15.629
 20
5.21198
 11
15.6467
 21
5.26797
  0
LINE
  8
0
 10
15.6467
 20
5.26797
 11
15.666
 21
5.33163
  0
LINE
  8
0
 10
15.666
 20
5.33163
 11
15.687
 21
5.40294
  0
LINE
  8
0
 10
15.687
 20
5.40294
 11
15.7097
 21
5.48192
  0
LINE
  8
0
 10
15.7097
 20
5.48192
 11
15.7334
 21
5.56662
  0
LINE
  8
0
 10
15.7334
 20
5.56662
 11
15.7578
 21
5.65509
  0
LINE
  8
0
 10
15.7578
 20
5.65509
 11
15.7827
 21
5.74734
  0
LINE
  8
0
 10
15.7827
 20
5.74734
 11
15.8082
 21
5.84335
  0
LINE
  8
0
 10
15.8082
 20
5.84335
 11
15.8337
 21
5.94116
  0
LINE
  8
0
 10
15.8337
 20
5.94116
 11
15.8586
 21
6.03873
  0
LINE
  8
0
 10
15.8586
 20
6.03873
 11
15.8829
 21
6.13606
  0
LINE
  8
0
 10
15.8829
 20
6.13606
 11
15.9067
 21
6.23317
  0
LINE
  8
0
 10
15.9067
 20
6.23317
 11
15.9047
 21
6.14075
  0
LINE
  8
0
 10
15.9047
 20
6.14075
 11
15.9025
 21
6.04651
  0
LINE
  8
0
 10
15.9025
 20
6.04651
 11
15.9
 21
5.95042
  0
LINE
  8
0
 10
15.9
 20
5.95042
 11
15.8973
 21
5.85251
  0
LINE
  8
0
 10
15.8973
 20
5.85251
 11
15.8919
 21
5.66196
  0
LINE
  8
0
 10
15.8919
 20
5.66196
 11
15.887
 21
5.48558
  0
LINE
  8
0
 10
15.887
 20
5.48558
 11
15.8849
 21
5.40501
  0
LINE
  8
0
 10
15.8849
 20
5.40501
 11
15.8835
 21
5.33255
  0
LINE
  8
0
 10
15.8835
 20
5.33255
 11
15.8826
 21
5.2682
  0
LINE
  8
0
 10
15.8826
 20
5.2682
 11
15.8823
 21
5.21198
  0
LINE
  8
0
 10
15.8823
 20
5.21198
 11
15.8823
 21
4.03709
  0
LINE
  8
0
 10
15.8823
 20
4.03709
 11
16.5485
 21
4.03709
  0
LINE
  8
0
 10
16.5485
 20
4.03709
 11
16.5485
 21
6.76389
  0
LINE
  8
0
 10
16.5485
 20
6.76389
 11
15.5145
 21
6.76389
  0
LINE
  8
0
 10
15.5145
 20
6.76389
 11
15.1636
 21
5.70244
  0
LINE
  8
0
 10
15.1636
 20
5.70244
 11
15.149
 21
5.65218
  0
LINE
  8
0
 10
15.149
 20
5.65218
 11
15.1333
 21
5.59471
  0
LINE
  8
0
 10
15.1333
 20
5.59471
 11
15.1166
 21
5.53003
  0
LINE
  8
0
 10
15.1166
 20
5.53003
 11
15.0988
 21
5.45815
  0
LINE
  8
0
 10
15.0988
 20
5.45815
 11
15.0805
 21
5.38127
  0
LINE
  8
0
 10
15.0805
 20
5.38127
 11
15.0622
 21
5.30167
  0
LINE
  8
0
 10
15.0622
 20
5.30167
 11
15.0439
 21
5.21931
  0
LINE
  8
0
 10
15.0439
 20
5.21931
 11
15.0257
 21
5.13422
  0
LINE
  8
0
 10
15.0257
 20
5.13422
 11
15.0076
 21
5.04837
  0
LINE
  8
0
 10
15.0076
 20
5.04837
 11
14.9902
 21
4.96381
  0
LINE
  8
0
 10
14.9902
 20
4.96381
 11
14.9734
 21
4.88048
  0
LINE
  8
0
 10
14.9734
 20
4.88048
 11
14.9572
 21
4.7984
  0
LINE
  8
0
 10
14.9572
 20
4.7984
 11
14.94
 21
4.88054
  0
LINE
  8
0
 10
14.94
 20
4.88054
 11
14.9224
 21
4.96404
  0
LINE
  8
0
 10
14.9224
 20
4.96404
 11
14.9044
 21
5.04889
  0
LINE
  8
0
 10
14.9044
 20
5.04889
 11
14.8858
 21
5.13513
  0
LINE
  8
0
 10
14.8858
 20
5.13513
 11
14.8671
 21
5.22058
  0
LINE
  8
0
 10
14.8671
 20
5.22058
 11
14.8485
 21
5.30304
  0
LINE
  8
0
 10
14.8485
 20
5.30304
 11
14.8301
 21
5.38254
  0
LINE
  8
0
 10
14.8301
 20
5.38254
 11
14.8117
 21
5.45906
  0
LINE
  8
0
 10
14.8117
 20
5.45906
 11
14.7939
 21
5.53055
  0
LINE
  8
0
 10
14.7939
 20
5.53055
 11
14.7772
 21
5.59494
  0
LINE
  8
0
 10
14.7772
 20
5.59494
 11
14.7616
 21
5.65224
  0
LINE
  8
0
 10
14.7616
 20
5.65224
 11
14.747
 21
5.70244
  0
LINE
  8
0
 10
14.747
 20
5.70244
 11
14.3904
 21
6.76389
  0
LINE
  8
0
 10
14.3904
 20
6.76389
 11
13.3583
 21
6.76389
  0
LINE
  8
0
 10
13.3583
 20
6.76389
 11
13.3583
 21
4.03709
  0
LINE
  8
0
 10
13.3583
 20
4.03709
 11
14.0226
 21
4.03709
  0
LINE
  8
0
 10
14.0226
 20
4.03709
 11
14.0226
 21
5.21198
  0
LINE
  8
0
 10
10.482
 20
5.21198
 11
10.4817
 21
5.26706
  0
LINE
  8
0
 10
10.4817
 20
5.26706
 11
10.4808
 21
5.32979
  0
LINE
  8
0
 10
10.4808
 20
5.32979
 11
10.4793
 21
5.40019
  0
LINE
  8
0
 10
10.4793
 20
5.40019
 11
10.4773
 21
5.47824
  0
LINE
  8
0
 10
10.4773
 20
5.47824
 11
10.4697
 21
5.73888
  0
LINE
  8
0
 10
10.4697
 20
5.73888
 11
10.467
 21
5.83238
  0
LINE
  8
0
 10
10.467
 20
5.83238
 11
10.4643
 21
5.92685
  0
LINE
  8
0
 10
10.4643
 20
5.92685
 11
10.4618
 21
6.01996
  0
LINE
  8
0
 10
10.4618
 20
6.01996
 11
10.4596
 21
6.11169
  0
LINE
  8
0
 10
10.4596
 20
6.11169
 11
10.4576
 21
6.20204
  0
LINE
  8
0
 10
10.4576
 20
6.20204
 11
10.4813
 21
6.10616
  0
LINE
  8
0
 10
10.4813
 20
6.10616
 11
10.5057
 21
6.01059
  0
LINE
  8
0
 10
10.5057
 20
6.01059
 11
10.5306
 21
5.91537
  0
LINE
  8
0
 10
10.5306
 20
5.91537
 11
10.5561
 21
5.8205
  0
LINE
  8
0
 10
10.5561
 20
5.8205
 11
10.5816
 21
5.72768
  0
LINE
  8
0
 10
10.5816
 20
5.72768
 11
10.6066
 21
5.63864
  0
LINE
  8
0
 10
10.6066
 20
5.63864
 11
10.6309
 21
5.55336
  0
LINE
  8
0
 10
10.6309
 20
5.55336
 11
10.6546
 21
5.47185
  0
LINE
  8
0
 10
10.6546
 20
5.47185
 11
10.6772
 21
5.3959
  0
LINE
  8
0
 10
10.6772
 20
5.3959
 11
10.6978
 21
5.32729
  0
LINE
  8
0
 10
10.6978
 20
5.32729
 11
10.7166
 21
5.26598
  0
LINE
  8
0
 10
10.7166
 20
5.26598
 11
10.7334
 21
5.21198
  0
LINE
  8
0
 10
10.7334
 20
5.21198
 11
11.1369
 21
4.03709
  0
LINE
  8
0
 10
11.1369
 20
4.03709
 11
11.6905
 21
4.03709
  0
LINE
  8
0
 10
11.6905
 20
4.03709
 11
12.0884
 21
5.21198
  0
LINE
  8
0
 10
12.0884
 20
5.21198
 11
12.1061
 21
5.26797
  0
LINE
  8
0
 10
12.1061
 20
5.26797
 11
12.1254
 21
5.33163
  0
LINE
  8
0
 10
12.1254
 20
5.33163
 11
12.1464
 21
5.40294
  0
LINE
  8
0
 10
12.1464
 20
5.40294
 11
12.1691
 21
5.48192
  0
LINE
  8
0
 10
12.1691
 20
5.48192
 11
12.1928
 21
5.56662
  0
LINE
  8
0
 10
12.1928
 20
5.56662
 11
12.2171
 21
5.65509
  0
LINE
  8
0
 10
12.2171
 20
5.65509
 11
12.2421
 21
5.74734
  0
LINE
  8
0
 10
12.2421
 20
5.74734
 11
12.2676
 21
5.84335
  0
LINE
  8
0
 10
12.2676
 20
5.84335
 11
12.2931
 21
5.94116
  0
LINE
  8
0
 10
12.2931
 20
5.94116
 11
12.318
 21
6.03873
  0
LINE
  8
0
 10
12.318
 20
6.03873
 11
12.3423
 21
6.13606
  0
LINE
  8
0
 10
12.3423
 20
6.13606
 11
12.3661
 21
6.23317
  0
LINE
  8
0
 10
12.3661
 20
6.23317
 11
12.3641
 21
6.14075
  0
LINE
  8
0
 10
12.3641
 20
6.14075
 11
12.3619
 21
6.04651
  0
LINE
  8
0
 10
12.3619
 20
6.04651
 11
12.3594
 21
5.95042
  0
LINE
  8
0
 10
12.3594
 20
5.95042
 11
12.3567
 21
5.85251
  0
LINE
  8
0
 10
12.3567
 20
5.85251
 11
12.3513
 21
5.66196
  0
LINE
  8
0
 10
12.3513
 20
5.66196
 11
12.3464
 21
5.48558
  0
LINE
  8
0
 10
12.3464
 20
5.48558
 11
12.3443
 21
5.40501
  0
LINE
  8
0
 10
12.3443
 20
5.40501
 11
12.3429
 21
5.33255
  0
LINE
  8
0
 10
12.3429
 20
5.33255
 11
12.342
 21
5.2682
  0
LINE
  8
0
 10
12.342
 20
5.2682
 11
12.3417
 21
5.21198
  0
LINE
  8
0
 10
12.3417
 20
5.21198
 11
12.3417
 21
4.03709
  0
LINE
  8
0
 10
12.3417
 20
4.03709
 11
13.0079
 21
4.03709
  0
LINE
  8
0
 10
13.0079
 20
4.03709
 11
13.0079
 21
6.76389
  0
LINE
  8
0
 10
13.0079
 20
6.76389
 11
11.9739
 21
6.76389
  0
LINE
  8
0
 10
11.9739
 20
6.76389
 11
11.623
 21
5.70244
  0
LINE
  8
0
 10
11.623
 20
5.70244
 11
11.6084
 21
5.65218
  0
LINE
  8
0
 10
11.6084
 20
5.65218
 11
11.5927
 21
5.59471
  0
LINE
  8
0
 10
11.5927
 20
5.59471
 11
11.576
 21
5.53003
  0
LINE
  8
0
 10
11.576
 20
5.53003
 11
11.5582
 21
5.45815
  0
LINE
  8
0
 10
11.5582
 20
5.45815
 11
11.5399
 21
5.38127
  0
LINE
  8
0
 10
11.5399
 20
5.38127
 11
11.5216
 21
5.30167
  0
LINE
  8
0
 10
11.5216
 20
5.30167
 11
11.5033
 21
5.21931
  0
LINE
  8
0
 10
11.5033
 20
5.21931
 11
11.485
 21
5.13422
  0
LINE
  8
0
 10
11.485
 20
5.13422
 11
11.467
 21
5.04837
  0
LINE
  8
0
 10
11.467
 20
5.04837
 11
11.4496
 21
4.96381
  0
LINE
  8
0
 10
11.4496
 20
4.96381
 11
11.4328
 21
4.88048
  0
LINE
  8
0
 10
11.4328
 20
4.88048
 11
11.4165
 21
4.7984
  0
LINE
  8
0
 10
11.4165
 20
4.7984
 11
11.3994
 21
4.88054
  0
LINE
  8
0
 10
11.3994
 20
4.88054
 11
11.3818
 21
4.96404
  0
LINE
  8
0
 10
11.3818
 20
4.96404
 11
11.3637
 21
5.04889
  0
LINE
  8
0
 10
11.3637
 20
5.04889
 11
11.3452
 21
5.13513
  0
LINE
  8
0
 10
11.3452
 20
5.13513
 11
11.3265
 21
5.22058
  0
LINE
  8
0
 10
11.3265
 20
5.22058
 11
11.3079
 21
5.30304
  0
LINE
  8
0
 10
11.3079
 20
5.30304
 11
11.2895
 21
5.38254
  0
LINE
  8
0
 10
11.2895
 20
5.38254
 11
11.2711
 21
5.45906
  0
LINE
  8
0
 10
11.2711
 20
5.45906
 11
11.2533
 21
5.53055
  0
LINE
  8
0
 10
11.2533
 20
5.53055
 11
11.2366
 21
5.59494
  0
LINE
  8
0
 10
11.2366
 20
5.59494
 11
11.221
 21
5.65224
  0
LINE
  8
0
 10
11.221
 20
5.65224
 11
11.2064
 21
5.70244
  0
LINE
  8
0
 10
11.2064
 20
5.70244
 11
10.8498
 21
6.76389
  0
LINE
  8
0
 10
10.8498
 20
6.76389
 11
9.81769
 21
6.76389
  0
LINE
  8
0
 10
9.81769
 20
6.76389
 11
9.81769
 21
4.03709
  0
LINE
  8
0
 10
9.81769
 20
4.03709
 11
10.482
 21
4.03709
  0
LINE
  8
0
 10
10.482
 20
4.03709
 11
10.482
 21
5.21198
  0
LINE
  8
0
 10
35.1007
 20
6.76389
 11
34.4158
 21
6.76389
  0
LINE
  8
0
 10
34.4158
 20
6.76389
 11
33.7927
 21
6.34663
  0
LINE
  8
0
 10
33.7927
 20
6.34663
 11
33.7927
 21
5.77933
  0
LINE
  8
0
 10
33.7927
 20
5.77933
 11
34.4214
 21
6.20204
  0
LINE
  8
0
 10
34.4214
 20
6.20204
 11
34.4401
 21
6.20204
  0
LINE
  8
0
 10
34.4401
 20
6.20204
 11
34.4401
 21
4.03709
  0
LINE
  8
0
 10
34.4401
 20
4.03709
 11
35.1007
 21
4.03709
  0
LINE
  8
0
 10
35.1007
 20
4.03709
 11
35.1007
 21
6.76389
  0
LINE
  8
0
 10
22.2308
 20
4.97591
 11
22.5911
 21
4.97591
  0
LINE
  8
0
 10
22.5911
 20
4.97591
 11
23.1035
 21
4.03709
  0
LINE
  8
0
 10
23.1035
 20
4.03709
 11
23.8297
 21
4.03709
  0
LINE
  8
0
 10
23.8297
 20
4.03709
 11
23.2461
 21
5.0784
  0
LINE
  8
0
 10
23.2461
 20
5.0784
 11
23.3558
 21
5.1356
  0
LINE
  8
0
 10
23.3558
 20
5.1356
 11
23.4523
 21
5.20468
  0
LINE
  8
0
 10
23.4523
 20
5.20468
 11
23.5355
 21
5.28566
  0
LINE
  8
0
 10
23.5355
 20
5.28566
 11
23.6054
 21
5.37854
  0
LINE
  8
0
 10
23.6054
 20
5.37854
 11
23.6609
 21
5.48262
  0
LINE
  8
0
 10
23.6609
 20
5.48262
 11
23.7005
 21
5.59723
  0
LINE
  8
0
 10
23.7005
 20
5.59723
 11
23.7242
 21
5.72235
  0
LINE
  8
0
 10
23.7242
 20
5.72235
 11
23.7321
 21
5.85802
  0
LINE
  8
0
 10
23.7321
 20
5.85802
 11
23.7151
 21
6.05583
  0
LINE
  8
0
 10
23.7151
 20
6.05583
 11
23.6638
 21
6.23203
  0
LINE
  8
0
 10
23.6638
 20
6.23203
 11
23.5785
 21
6.3866
  0
LINE
  8
0
 10
23.5785
 20
6.3866
 11
23.4591
 21
6.51956
  0
LINE
  8
0
 10
23.4591
 20
6.51956
 11
23.31
 21
6.62645
  0
LINE
  8
0
 10
23.31
 20
6.62645
 11
23.136
 21
6.7028
  0
LINE
  8
0
 10
23.136
 20
6.7028
 11
22.9371
 21
6.74861
  0
LINE
  8
0
 10
22.9371
 20
6.74861
 11
22.7131
 21
6.76389
  0
LINE
  8
0
 10
22.7131
 20
6.76389
 11
21.5684
 21
6.76389
  0
LINE
  8
0
 10
21.5684
 20
6.76389
 11
21.5684
 21
4.03709
  0
LINE
  8
0
 10
21.5684
 20
4.03709
 11
22.2308
 21
4.03709
  0
LINE
  8
0
 10
22.2308
 20
4.03709
 11
22.2308
 21
4.97591
  0
LINE
  8
0
 10
22.2308
 20
5.48651
 11
22.2308
 21
6.24049
  0
LINE
  8
0
 10
22.2308
 20
6.24049
 11
22.5724
 21
6.24049
  0
LINE
  8
0
 10
22.5724
 20
6.24049
 11
22.7793
 21
6.2166
  0
LINE
  8
0
 10
22.7793
 20
6.2166
 11
22.9271
 21
6.14488
  0
LINE
  8
0
 10
22.9271
 20
6.14488
 11
23.0157
 21
6.02534
  0
LINE
  8
0
 10
23.0157
 20
6.02534
 11
23.0453
 21
5.85802
  0
LINE
  8
0
 10
23.0453
 20
5.85802
 11
23.0159
 21
5.69548
  0
LINE
  8
0
 10
23.0159
 20
5.69548
 11
22.9275
 21
5.57938
  0
LINE
  8
0
 10
22.9275
 20
5.57938
 11
22.7803
 21
5.50972
  0
LINE
  8
0
 10
22.7803
 20
5.50972
 11
22.5743
 21
5.48651
  0
LINE
  8
0
 10
22.5743
 20
5.48651
 11
22.2308
 21
5.48651
  0
LINE
  8
0
 10
28.2099
 20
5.64572
 11
26.9207
 21
5.64572
  0
LINE
  8
0
 10
26.9207
 20
5.64572
 11
26.9207
 21
5.15343
  0
LINE
  8
0
 10
26.9207
 20
5.15343
 11
28.2099
 21
5.15343
  0
LINE
  8
0
 10
28.2099
 20
5.15343
 11
28.2099
 21
5.64572
  0
LINE
  8
0
 10
18.2313
 20
5.64572
 11
16.9421
 21
5.64572
  0
LINE
  8
0
 10
16.9421
 20
5.64572
 11
16.9421
 21
5.15343
  0
LINE
  8
0
 10
16.9421
 20
5.15343
 11
18.2313
 21
5.15343
  0
LINE
  8
0
 10
18.2313
 20
5.15343
 11
18.2313
 21
5.64572
  0
LINE
  8
0
 10
13.6864
 20
0.825226
 11
13.9296
 21
0.894318
  0
LINE
  8
0
 10
13.9296
 20
0.894318
 11
14.1401
 21
1.00948
  0
LINE
  8
0
 10
14.1401
 20
1.00948
 11
14.3181
 21
1.1707
  0
LINE
  8
0
 10
14.3181
 20
1.1707
 11
14.4595
 21
1.37318
  0
LINE
  8
0
 10
14.4595
 20
1.37318
 11
14.5606
 21
1.61214
  0
LINE
  8
0
 10
14.5606
 20
1.61214
 11
14.6212
 21
1.88756
  0
LINE
  8
0
 10
14.6212
 20
1.88756
 11
14.6415
 21
2.19943
  0
LINE
  8
0
 10
14.6415
 20
2.19943
 11
14.6323
 21
2.41187
  0
LINE
  8
0
 10
14.6323
 20
2.41187
 11
14.6048
 21
2.60841
  0
LINE
  8
0
 10
14.6048
 20
2.60841
 11
14.5591
 21
2.78906
  0
LINE
  8
0
 10
14.5591
 20
2.78906
 11
14.495
 21
2.95383
  0
LINE
  8
0
 10
14.495
 20
2.95383
 11
14.4137
 21
3.10146
  0
LINE
  8
0
 10
14.4137
 20
3.10146
 11
14.3163
 21
3.23068
  0
LINE
  8
0
 10
14.3163
 20
3.23068
 11
14.2029
 21
3.34151
  0
LINE
  8
0
 10
14.2029
 20
3.34151
 11
14.0733
 21
3.43391
  0
LINE
  8
0
 10
14.0733
 20
3.43391
 11
13.9287
 21
3.50673
  0
LINE
  8
0
 10
13.9287
 20
3.50673
 11
13.7701
 21
3.55875
  0
LINE
  8
0
 10
13.7701
 20
3.55875
 11
13.5974
 21
3.58995
  0
LINE
  8
0
 10
13.5974
 20
3.58995
 11
13.4108
 21
3.60036
  0
LINE
  8
0
 10
13.4108
 20
3.60036
 11
13.1367
 21
3.57727
  0
LINE
  8
0
 10
13.1367
 20
3.57727
 11
12.8945
 21
3.508
  0
LINE
  8
0
 10
12.8945
 20
3.508
 11
12.6841
 21
3.39253
  0
LINE
  8
0
 10
12.6841
 20
3.39253
 11
12.5055
 21
3.2309
  0
LINE
  8
0
 10
12.5055
 20
3.2309
 11
12.3632
 21
3.02789
  0
LINE
  8
0
 10
12.3632
 20
3.02789
 11
12.2615
 21
2.78831
  0
LINE
  8
0
 10
12.2615
 20
2.78831
 11
12.2005
 21
2.51216
  0
LINE
  8
0
 10
12.2005
 20
2.51216
 11
12.1802
 21
2.19943
  0
LINE
  8
0
 10
12.1802
 20
2.19943
 11
12.2005
 21
1.88681
  0
LINE
  8
0
 10
12.2005
 20
1.88681
 11
12.2615
 21
1.61099
  0
LINE
  8
0
 10
12.2615
 20
1.61099
 11
12.3632
 21
1.37198
  0
LINE
  8
0
 10
12.3632
 20
1.37198
 11
12.5055
 21
1.16978
  0
LINE
  8
0
 10
12.5055
 20
1.16978
 11
12.6841
 21
1.00896
  0
LINE
  8
0
 10
12.6841
 20
1.00896
 11
12.8945
 21
0.894089
  0
LINE
  8
0
 10
12.8945
 20
0.894089
 11
13.1367
 21
0.825165
  0
LINE
  8
0
 10
13.1367
 20
0.825165
 11
13.4108
 21
0.802185
  0
LINE
  8
0
 10
13.4108
 20
0.802185
 11
13.6864
 21
0.825226
  0
LINE
  8
0
 10
13.2933
 20
1.34479
 11
13.1904
 21
1.38696
  0
LINE
  8
0
 10
13.1904
 20
1.38696
 11
13.1021
 21
1.45726
  0
LINE
  8
0
 10
13.1021
 20
1.45726
 11
13.0284
 21
1.55566
  0
LINE
  8
0
 10
13.0284
 20
1.55566
 11
12.9704
 21
1.68027
  0
LINE
  8
0
 10
12.9704
 20
1.68027
 11
12.9289
 21
1.82909
  0
LINE
  8
0
 10
12.9289
 20
1.82909
 11
12.904
 21
2.00215
  0
LINE
  8
0
 10
12.904
 20
2.00215
 11
12.8957
 21
2.19943
  0
LINE
  8
0
 10
12.8957
 20
2.19943
 11
12.9041
 21
2.39771
  0
LINE
  8
0
 10
12.9041
 20
2.39771
 11
12.9292
 21
2.57184
  0
LINE
  8
0
 10
12.9292
 20
2.57184
 11
12.9709
 21
2.72186
  0
LINE
  8
0
 10
12.9709
 20
2.72186
 11
13.0294
 21
2.84776
  0
LINE
  8
0
 10
13.0294
 20
2.84776
 11
13.1034
 21
2.94739
  0
LINE
  8
0
 10
13.1034
 20
2.94739
 11
13.1916
 21
3.01854
  0
LINE
  8
0
 10
13.1916
 20
3.01854
 11
13.2941
 21
3.06123
  0
LINE
  8
0
 10
13.2941
 20
3.06123
 11
13.4108
 21
3.07545
  0
LINE
  8
0
 10
13.4108
 20
3.07545
 11
13.5284
 21
3.06123
  0
LINE
  8
0
 10
13.5284
 20
3.06123
 11
13.6315
 21
3.01854
  0
LINE
  8
0
 10
13.6315
 20
3.01854
 11
13.72
 21
2.94739
  0
LINE
  8
0
 10
13.72
 20
2.94739
 11
13.7941
 21
2.84776
  0
LINE
  8
0
 10
13.7941
 20
2.84776
 11
13.8526
 21
2.72186
  0
LINE
  8
0
 10
13.8526
 20
2.72186
 11
13.8944
 21
2.57184
  0
LINE
  8
0
 10
13.8944
 20
2.57184
 11
13.9195
 21
2.39771
  0
LINE
  8
0
 10
13.9195
 20
2.39771
 11
13.9278
 21
2.19943
  0
LINE
  8
0
 10
13.9278
 20
2.19943
 11
13.9195
 21
2.00215
  0
LINE
  8
0
 10
13.9195
 20
2.00215
 11
13.8944
 21
1.82909
  0
LINE
  8
0
 10
13.8944
 20
1.82909
 11
13.8526
 21
1.68027
  0
LINE
  8
0
 10
13.8526
 20
1.68027
 11
13.7941
 21
1.55566
  0
LINE
  8
0
 10
13.7941
 20
1.55566
 11
13.72
 21
1.45726
  0
LINE
  8
0
 10
13.72
 20
1.45726
 11
13.6315
 21
1.38696
  0
LINE
  8
0
 10
13.6315
 20
1.38696
 11
13.5284
 21
1.34479
  0
LINE
  8
0
 10
13.5284
 20
1.34479
 11
13.4108
 21
1.33073
  0
LINE
  8
0
 10
13.4108
 20
1.33073
 11
13.2933
 21
1.34479
  0
LINE
  8
0
 10
20.3118
 20
0.825226
 11
20.5549
 21
0.894318
  0
LINE
  8
0
 10
20.5549
 20
0.894318
 11
20.7654
 21
1.00948
  0
LINE
  8
0
 10
20.7654
 20
1.00948
 11
20.9434
 21
1.1707
  0
LINE
  8
0
 10
20.9434
 20
1.1707
 11
21.0849
 21
1.37318
  0
LINE
  8
0
 10
21.0849
 20
1.37318
 11
21.1859
 21
1.61214
  0
LINE
  8
0
 10
21.1859
 20
1.61214
 11
21.2466
 21
1.88756
  0
LINE
  8
0
 10
21.2466
 20
1.88756
 11
21.2668
 21
2.19943
  0
LINE
  8
0
 10
21.2668
 20
2.19943
 11
21.2576
 21
2.41187
  0
LINE
  8
0
 10
21.2576
 20
2.41187
 11
21.2302
 21
2.60841
  0
LINE
  8
0
 10
21.2302
 20
2.60841
 11
21.1844
 21
2.78906
  0
LINE
  8
0
 10
21.1844
 20
2.78906
 11
21.1203
 21
2.95383
  0
LINE
  8
0
 10
21.1203
 20
2.95383
 11
21.039
 21
3.10146
  0
LINE
  8
0
 10
21.039
 20
3.10146
 11
20.9417
 21
3.23068
  0
LINE
  8
0
 10
20.9417
 20
3.23068
 11
20.8282
 21
3.34151
  0
LINE
  8
0
 10
20.8282
 20
3.34151
 11
20.6986
 21
3.43391
  0
LINE
  8
0
 10
20.6986
 20
3.43391
 11
20.554
 21
3.50673
  0
LINE
  8
0
 10
20.554
 20
3.50673
 11
20.3954
 21
3.55875
  0
LINE
  8
0
 10
20.3954
 20
3.55875
 11
20.2227
 21
3.58995
  0
LINE
  8
0
 10
20.2227
 20
3.58995
 11
20.0361
 21
3.60036
  0
LINE
  8
0
 10
20.0361
 20
3.60036
 11
19.7621
 21
3.57727
  0
LINE
  8
0
 10
19.7621
 20
3.57727
 11
19.5198
 21
3.508
  0
LINE
  8
0
 10
19.5198
 20
3.508
 11
19.3094
 21
3.39253
  0
LINE
  8
0
 10
19.3094
 20
3.39253
 11
19.1308
 21
3.2309
  0
LINE
  8
0
 10
19.1308
 20
3.2309
 11
18.9885
 21
3.02789
  0
LINE
  8
0
 10
18.9885
 20
3.02789
 11
18.8868
 21
2.78831
  0
LINE
  8
0
 10
18.8868
 20
2.78831
 11
18.8258
 21
2.51216
  0
LINE
  8
0
 10
18.8258
 20
2.51216
 11
18.8055
 21
2.19943
  0
LINE
  8
0
 10
18.8055
 20
2.19943
 11
18.8258
 21
1.88681
  0
LINE
  8
0
 10
18.8258
 20
1.88681
 11
18.8868
 21
1.61099
  0
LINE
  8
0
 10
18.8868
 20
1.61099
 11
18.9885
 21
1.37198
  0
LINE
  8
0
 10
18.9885
 20
1.37198
 11
19.1308
 21
1.16978
  0
LINE
  8
0
 10
19.1308
 20
1.16978
 11
19.3094
 21
1.00896
  0
LINE
  8
0
 10
19.3094
 20
1.00896
 11
19.5198
 21
0.894089
  0
LINE
  8
0
 10
19.5198
 20
0.894089
 11
19.7621
 21
0.825165
  0
LINE
  8
0
 10
19.7621
 20
0.825165
 11
20.0361
 21
0.802185
  0
LINE
  8
0
 10
20.0361
 20
0.802185
 11
20.3118
 21
0.825226
  0
LINE
  8
0
 10
19.9186
 20
1.34479
 11
19.8157
 21
1.38696
  0
LINE
  8
0
 10
19.8157
 20
1.38696
 11
19.7274
 21
1.45726
  0
LINE
  8
0
 10
19.7274
 20
1.45726
 11
19.6537
 21
1.55566
  0
LINE
  8
0
 10
19.6537
 20
1.55566
 11
19.5957
 21
1.68027
  0
LINE
  8
0
 10
19.5957
 20
1.68027
 11
19.5542
 21
1.82909
  0
LINE
  8
0
 10
19.5542
 20
1.82909
 11
19.5293
 21
2.00215
  0
LINE
  8
0
 10
19.5293
 20
2.00215
 11
19.521
 21
2.19943
  0
LINE
  8
0
 10
19.521
 20
2.19943
 11
19.5294
 21
2.39771
  0
LINE
  8
0
 10
19.5294
 20
2.39771
 11
19.5545
 21
2.57184
  0
LINE
  8
0
 10
19.5545
 20
2.57184
 11
19.5962
 21
2.72186
  0
LINE
  8
0
 10
19.5962
 20
2.72186
 11
19.6547
 21
2.84776
  0
LINE
  8
0
 10
19.6547
 20
2.84776
 11
19.7287
 21
2.94739
  0
LINE
  8
0
 10
19.7287
 20
2.94739
 11
19.8169
 21
3.01854
  0
LINE
  8
0
 10
19.8169
 20
3.01854
 11
19.9194
 21
3.06123
  0
LINE
  8
0
 10
19.9194
 20
3.06123
 11
20.0361
 21
3.07545
  0
LINE
  8
0
 10
20.0361
 20
3.07545
 11
20.1537
 21
3.06123
  0
LINE
  8
0
 10
20.1537
 20
3.06123
 11
20.2568
 21
3.01854
  0
LINE
  8
0
 10
20.2568
 20
3.01854
 11
20.3454
 21
2.94739
  0
LINE
  8
0
 10
20.3454
 20
2.94739
 11
20.4194
 21
2.84776
  0
LINE
  8
0
 10
20.4194
 20
2.84776
 11
20.478
 21
2.72186
  0
LINE
  8
0
 10
20.478
 20
2.72186
 11
20.5197
 21
2.57184
  0
LINE
  8
0
 10
20.5197
 20
2.57184
 11
20.5448
 21
2.39771
  0
LINE
  8
0
 10
20.5448
 20
2.39771
 11
20.5531
 21
2.19943
  0
LINE
  8
0
 10
20.5531
 20
2.19943
 11
20.5448
 21
2.00215
  0
LINE
  8
0
 10
20.5448
 20
2.00215
 11
20.5197
 21
1.82909
  0
LINE
  8
0
 10
20.5197
 20
1.82909
 11
20.478
 21
1.68027
  0
LINE
  8
0
 10
20.478
 20
1.68027
 11
20.4194
 21
1.55566
  0
LINE
  8
0
 10
20.4194
 20
1.55566
 11
20.3454
 21
1.45726
  0
LINE
  8
0
 10
20.3454
 20
1.45726
 11
20.2568
 21
1.38696
  0
LINE
  8
0
 10
20.2568
 20
1.38696
 11
20.1537
 21
1.34479
  0
LINE
  8
0
 10
20.1537
 20
1.34479
 11
20.0361
 21
1.33073
  0
LINE
  8
0
 10
20.0361
 20
1.33073
 11
19.9186
 21
1.34479
  0
LINE
  8
0
 10
17.1927
 20
3.56377
 11
16.4752
 21
3.56377
  0
LINE
  8
0
 10
16.4752
 20
3.56377
 11
15.8225
 21
3.14679
  0
LINE
  8
0
 10
15.8225
 20
3.14679
 11
15.8225
 21
2.57985
  0
LINE
  8
0
 10
15.8225
 20
2.57985
 11
16.4811
 21
3.00229
  0
LINE
  8
0
 10
16.4811
 20
3.00229
 11
16.5007
 21
3.00229
  0
LINE
  8
0
 10
16.5007
 20
3.00229
 11
16.5007
 21
0.83876
  0
LINE
  8
0
 10
16.5007
 20
0.83876
 11
17.1927
 21
0.83876
  0
LINE
  8
0
 10
17.1927
 20
0.83876
 11
17.1927
 21
3.56377
  0
LINE
  8
0
 10
6.59973
 20
0.800308
 11
6.67059
 21
0.801361
  0
LINE
  8
0
 10
6.67059
 20
0.801361
 11
6.74037
 21
0.803253
  0
LINE
  8
0
 10
6.74037
 20
0.803253
 11
6.80911
 21
0.806122
  0
LINE
  8
0
 10
6.80911
 20
0.806122
 11
6.87688
 21
0.810074
  0
LINE
  8
0
 10
6.87688
 20
0.810074
 11
6.94376
 21
0.815247
  0
LINE
  8
0
 10
6.94376
 20
0.815247
 11
7.00977
 21
0.821732
  0
LINE
  8
0
 10
7.00977
 20
0.821732
 11
7.075
 21
0.829681
  0
LINE
  8
0
 10
7.075
 20
0.829681
 11
7.13951
 21
0.839203
  0
LINE
  8
0
 10
7.13951
 20
0.839203
 11
7.20335
 21
0.850418
  0
LINE
  8
0
 10
7.20335
 20
0.850418
 11
7.26659
 21
0.863434
  0
LINE
  8
0
 10
7.26659
 20
0.863434
 11
7.32928
 21
0.878403
  0
LINE
  8
0
 10
7.32928
 20
0.878403
 11
7.39149
 21
0.895432
  0
LINE
  8
0
 10
7.39149
 20
0.895432
 11
7.45328
 21
0.914627
  0
LINE
  8
0
 10
7.45328
 20
0.914627
 11
7.51469
 21
0.936127
  0
LINE
  8
0
 10
7.51469
 20
0.936127
 11
7.57582
 21
0.960052
  0
LINE
  8
0
 10
7.57582
 20
0.960052
 11
7.63669
 21
0.986511
  0
LINE
  8
0
 10
7.63669
 20
0.986511
 11
7.69739
 21
1.01562
  0
LINE
  8
0
 10
7.69739
 20
1.01562
 11
7.75797
 21
1.04753
  0
LINE
  8
0
 10
7.75797
 20
1.04753
 11
7.81848
 21
1.08235
  0
LINE
  8
0
 10
7.81848
 20
1.08235
 11
4.51091
 21
2.97815
  0
LINE
  8
0
 10
4.51091
 20
2.97815
 11
1.52605
 21
1.12268
  0
LINE
  8
0
 10
1.52605
 20
1.12268
 11
1.56325
 21
1.09303
  0
LINE
  8
0
 10
1.56325
 20
1.09303
 11
1.60223
 21
1.06464
  0
LINE
  8
0
 10
1.60223
 20
1.06464
 11
1.64297
 21
1.03751
  0
LINE
  8
0
 10
1.64297
 20
1.03751
 11
1.68546
 21
1.01167
  0
LINE
  8
0
 10
1.68546
 20
1.01167
 11
1.72961
 21
0.987183
  0
LINE
  8
0
 10
1.72961
 20
0.987183
 11
1.77544
 21
0.964035
  0
LINE
  8
0
 10
1.77544
 20
0.964035
 11
1.82291
 21
0.942291
  0
LINE
  8
0
 10
1.82291
 20
0.942291
 11
1.87196
 21
0.921967
  0
LINE
  8
0
 10
1.87196
 20
0.921967
 11
1.92261
 21
0.903091
  0
LINE
  8
0
 10
1.92261
 20
0.903091
 11
1.97478
 21
0.885712
  0
LINE
  8
0
 10
1.97478
 20
0.885712
 11
2.02847
 21
0.869827
  0
LINE
  8
0
 10
2.02847
 20
0.869827
 11
2.08365
 21
0.855499
  0
LINE
  8
0
 10
2.08365
 20
0.855499
 11
2.14027
 21
0.842728
  0
LINE
  8
0
 10
2.14027
 20
0.842728
 11
2.19832
 21
0.831573
  0
LINE
  8
0
 10
2.19832
 20
0.831573
 11
2.25777
 21
0.822052
  0
LINE
  8
0
 10
2.25777
 20
0.822052
 11
2.31857
 21
0.814194
  0
LINE
  8
0
 10
2.31857
 20
0.814194
 11
2.38071
 21
0.808029
  0
LINE
  8
0
 10
2.38071
 20
0.808029
 11
2.44414
 21
0.803589
  0
LINE
  8
0
 10
2.44414
 20
0.803589
 11
2.50883
 21
0.800888
  0
LINE
  8
0
 10
2.50883
 20
0.800888
 11
2.57478
 21
0.799988
  0
LINE
  8
0
 10
2.57478
 20
0.799988
 11
6.52773
 21
0.799988
  0
LINE
  8
0
 10
6.52773
 20
0.799988
 11
6.59973
 21
0.800308
  0
LINE
  8
0
 10
12.0338
 20
2.88342
 11
11.3182
 21
2.88342
  0
LINE
  8
0
 10
11.3182
 20
2.88342
 11
10.9958
 21
1.88303
  0
LINE
  8
0
 10
10.9958
 20
1.88303
 11
10.9738
 21
1.81348
  0
LINE
  8
0
 10
10.9738
 20
1.81348
 11
10.953
 21
1.7438
  0
LINE
  8
0
 10
10.953
 20
1.7438
 11
10.9335
 21
1.67403
  0
LINE
  8
0
 10
10.9335
 20
1.67403
 11
10.9152
 21
1.60413
  0
LINE
  8
0
 10
10.9152
 20
1.60413
 11
10.8977
 21
1.53366
  0
LINE
  8
0
 10
10.8977
 20
1.53366
 11
10.8808
 21
1.46216
  0
LINE
  8
0
 10
10.8808
 20
1.46216
 11
10.8643
 21
1.38963
  0
LINE
  8
0
 10
10.8643
 20
1.38963
 11
10.8483
 21
1.31609
  0
LINE
  8
0
 10
10.8483
 20
1.31609
 11
10.8306
 21
1.38969
  0
LINE
  8
0
 10
10.8306
 20
1.38969
 11
10.8127
 21
1.46239
  0
LINE
  8
0
 10
10.8127
 20
1.46239
 11
10.7947
 21
1.53418
  0
LINE
  8
0
 10
10.7947
 20
1.53418
 11
10.7766
 21
1.60504
  0
LINE
  8
0
 10
10.7766
 20
1.60504
 11
10.7578
 21
1.67523
  0
LINE
  8
0
 10
10.7578
 20
1.67523
 11
10.738
 21
1.74495
  0
LINE
  8
0
 10
10.738
 20
1.74495
 11
10.7171
 21
1.81422
  0
LINE
  8
0
 10
10.7171
 20
1.81422
 11
10.695
 21
1.88303
  0
LINE
  8
0
 10
10.695
 20
1.88303
 11
10.3667
 21
2.88342
  0
LINE
  8
0
 10
10.3667
 20
2.88342
 11
9.64323
 21
2.88342
  0
LINE
  8
0
 10
9.64323
 20
2.88342
 11
10.4394
 21
0.83876
  0
LINE
  8
0
 10
10.4394
 20
0.83876
 11
11.2337
 21
0.83876
  0
LINE
  8
0
 10
11.2337
 20
0.83876
 11
12.0338
 21
2.88342
  0
LINE
  8
0
 10
15.4036
 20
0.806473
 11
15.4728
 21
0.824814
  0
LINE
  8
0
 10
15.4728
 20
0.824814
 11
15.5358
 21
0.855392
  0
LINE
  8
0
 10
15.5358
 20
0.855392
 11
15.5925
 21
0.898193
  0
LINE
  8
0
 10
15.5925
 20
0.898193
 11
15.6394
 21
0.950027
  0
LINE
  8
0
 10
15.6394
 20
0.950027
 11
15.6729
 21
1.00769
  0
LINE
  8
0
 10
15.6729
 20
1.00769
 11
15.6929
 21
1.0712
  0
LINE
  8
0
 10
15.6929
 20
1.0712
 11
15.6996
 21
1.14052
  0
LINE
  8
0
 10
15.6996
 20
1.14052
 11
15.6929
 21
1.21065
  0
LINE
  8
0
 10
15.6929
 20
1.21065
 11
15.6729
 21
1.2747
  0
LINE
  8
0
 10
15.6729
 20
1.2747
 11
15.6394
 21
1.33272
  0
LINE
  8
0
 10
15.6394
 20
1.33272
 11
15.5925
 21
1.38466
  0
LINE
  8
0
 10
15.5925
 20
1.38466
 11
15.5358
 21
1.42747
  0
LINE
  8
0
 10
15.5358
 20
1.42747
 11
15.4728
 21
1.45807
  0
LINE
  8
0
 10
15.4728
 20
1.45807
 11
15.4036
 21
1.47641
  0
LINE
  8
0
 10
15.4036
 20
1.47641
 11
15.3281
 21
1.48253
  0
LINE
  8
0
 10
15.3281
 20
1.48253
 11
15.2526
 21
1.47641
  0
LINE
  8
0
 10
15.2526
 20
1.47641
 11
15.1834
 21
1.45807
  0
LINE
  8
0
 10
15.1834
 20
1.45807
 11
15.1204
 21
1.42747
  0
LINE
  8
0
 10
15.1204
 20
1.42747
 11
15.0637
 21
1.38466
  0
LINE
  8
0
 10
15.0637
 20
1.38466
 11
15.0168
 21
1.33272
  0
LINE
  8
0
 10
15.0168
 20
1.33272
 11
14.9833
 21
1.2747
  0
LINE
  8
0
 10
14.9833
 20
1.2747
 11
14.9633
 21
1.21065
  0
LINE
  8
0
 10
14.9633
 20
1.21065
 11
14.9566
 21
1.14052
  0
LINE
  8
0
 10
14.9566
 20
1.14052
 11
14.9633
 21
1.0712
  0
LINE
  8
0
 10
14.9633
 20
1.0712
 11
14.9833
 21
1.00769
  0
LINE
  8
0
 10
14.9833
 20
1.00769
 11
15.0168
 21
0.950027
  0
LINE
  8
0
 10
15.0168
 20
0.950027
 11
15.0637
 21
0.898193
  0
LINE
  8
0
 10
15.0637
 20
0.898193
 11
15.1204
 21
0.855392
  0
LINE
  8
0
 10
15.1204
 20
0.855392
 11
15.1834
 21
0.824814
  0
LINE
  8
0
 10
15.1834
 20
0.824814
 11
15.2526
 21
0.806473
  0
LINE
  8
0
 10
15.2526
 20
0.806473
 11
15.3281
 21
0.800354
  0
LINE
  8
0
 10
15.3281
 20
0.800354
 11
15.4036
 21
0.806473
  0
LINE
  8
0
 10
18.1643
 20
0.806473
 11
18.2335
 21
0.824814
  0
LINE
  8
0
 10
18.2335
 20
0.824814
 11
18.2965
 21
0.855392
  0
LINE
  8
0
 10
18.2965
 20
0.855392
 11
18.3532
 21
0.898193
  0
LINE
  8
0
 10
18.3532
 20
0.898193
 11
18.4001
 21
0.950027
  0
LINE
  8
0
 10
18.4001
 20
0.950027
 11
18.4335
 21
1.00769
  0
LINE
  8
0
 10
18.4335
 20
1.00769
 11
18.4536
 21
1.0712
  0
LINE
  8
0
 10
18.4536
 20
1.0712
 11
18.4603
 21
1.14052
  0
LINE
  8
0
 10
18.4603
 20
1.14052
 11
18.4536
 21
1.21065
  0
LINE
  8
0
 10
18.4536
 20
1.21065
 11
18.4335
 21
1.2747
  0
LINE
  8
0
 10
18.4335
 20
1.2747
 11
18.4001
 21
1.33272
  0
LINE
  8
0
 10
18.4001
 20
1.33272
 11
18.3532
 21
1.38466
  0
LINE
  8
0
 10
18.3532
 20
1.38466
 11
18.2965
 21
1.42747
  0
LINE
  8
0
 10
18.2965
 20
1.42747
 11
18.2335
 21
1.45807
  0
LINE
  8
0
 10
18.2335
 20
1.45807
 11
18.1643
 21
1.47641
  0
LINE
  8
0
 10
18.1643
 20
1.47641
 11
18.0888
 21
1.48253
  0
LINE
  8
0
 10
18.0888
 20
1.48253
 11
18.0133
 21
1.47641
  0
LINE
  8
0
 10
18.0133
 20
1.47641
 11
17.944
 21
1.45807
  0
LINE
  8
0
 10
17.944
 20
1.45807
 11
17.8811
 21
1.42747
  0
LINE
  8
0
 10
17.8811
 20
1.42747
 11
17.8244
 21
1.38466
  0
LINE
  8
0
 10
17.8244
 20
1.38466
 11
17.7775
 21
1.33272
  0
LINE
  8
0
 10
17.7775
 20
1.33272
 11
17.744
 21
1.2747
  0
LINE
  8
0
 10
17.744
 20
1.2747
 11
17.7239
 21
1.21065
  0
LINE
  8
0
 10
17.7239
 20
1.21065
 11
17.7172
 21
1.14052
  0
LINE
  8
0
 10
17.7172
 20
1.14052
 11
17.7239
 21
1.0712
  0
LINE
  8
0
 10
17.7239
 20
1.0712
 11
17.744
 21
1.00769
  0
LINE
  8
0
 10
17.744
 20
1.00769
 11
17.7775
 21
0.950027
  0
LINE
  8
0
 10
17.7775
 20
0.950027
 11
17.8244
 21
0.898193
  0
LINE
  8
0
 10
17.8244
 20
0.898193
 11
17.8811
 21
0.855392
  0
LINE
  8
0
 10
17.8811
 20
0.855392
 11
17.944
 21
0.824814
  0
LINE
  8
0
 10
17.944
 20
0.824814
 11
18.0133
 21
0.806473
  0
LINE
  8
0
 10
18.0133
 20
0.806473
 11
18.0888
 21
0.800354
  0
LINE
  8
0
 10
18.0888
 20
0.800354
 11
18.1643
 21
0.806473
  0
ENDSEC
  0
SECTION
  2
OBJECTS
  0
DICTIONARY
  0
ENDSEC
  0
EOF
