  0
SECTION
  2
BLOCKS
  0
ENDSEC
  0
SECTION
  2
ENTITIES
  0
LINE
  8
0
 10
3.85881
 20
2.95125
 11
3.85881
 21
6.41344
  0
LINE
  8
0
 10
3.85881
 20
6.41344
 11
6.98486
 21
8.43025
  0
LINE
  8
0
 10
6.98486
 20
8.43025
 11
6.94907
 21
8.46478
  0
LINE
  8
0
 10
6.94907
 20
8.46478
 11
6.91226
 21
8.49777
  0
LINE
  8
0
 10
6.91226
 20
8.49777
 11
6.87445
 21
8.52921
  0
LINE
  8
0
 10
6.87445
 20
8.52921
 11
6.83562
 21
8.55905
  0
LINE
  8
0
 10
6.83562
 20
8.55905
 11
6.79579
 21
8.58728
  0
LINE
  8
0
 10
6.79579
 20
8.58728
 11
6.75494
 21
8.61388
  0
LINE
  8
0
 10
6.75494
 20
8.61388
 11
6.7131
 21
8.63881
  0
LINE
  8
0
 10
6.7131
 20
8.63881
 11
6.67024
 21
8.66205
  0
LINE
  8
0
 10
6.67024
 20
8.66205
 11
6.62637
 21
8.68356
  0
LINE
  8
0
 10
6.62637
 20
8.68356
 11
6.58151
 21
8.70335
  0
LINE
  8
0
 10
6.58151
 20
8.70335
 11
6.53563
 21
8.72137
  0
LINE
  8
0
 10
6.53563
 20
8.72137
 11
6.48874
 21
8.73761
  0
LINE
  8
0
 10
6.48874
 20
8.73761
 11
6.44083
 21
8.75201
  0
LINE
  8
0
 10
6.44083
 20
8.75201
 11
6.39192
 21
8.7646
  0
LINE
  8
0
 10
6.39192
 20
8.7646
 11
6.34201
 21
8.77531
  0
LINE
  8
0
 10
6.34201
 20
8.77531
 11
6.29109
 21
8.78413
  0
LINE
  8
0
 10
6.29109
 20
8.78413
 11
6.23915
 21
8.79103
  0
LINE
  8
0
 10
6.23915
 20
8.79103
 11
6.1862
 21
8.79599
  0
LINE
  8
0
 10
6.1862
 20
8.79599
 11
6.13226
 21
8.79898
  0
LINE
  8
0
 10
6.13226
 20
8.79898
 11
6.0773
 21
8.79999
  0
LINE
  8
0
 10
6.0773
 20
8.79999
 11
2.85042
 21
8.79999
  0
LINE
  8
0
 10
2.85042
 20
8.79999
 11
2.68083
 21
8.79326
  0
LINE
  8
0
 10
2.68083
 20
8.79326
 11
2.51529
 21
8.77341
  0
LINE
  8
0
 10
2.51529
 20
8.77341
 11
2.35428
 21
8.74089
  0
LINE
  8
0
 10
2.35428
 20
8.74089
 11
2.19832
 21
8.6962
  0
LINE
  8
0
 10
2.19832
 20
8.6962
 11
2.0479
 21
8.6398
  0
LINE
  8
0
 10
2.0479
 20
8.6398
 11
1.90352
 21
8.57219
  0
LINE
  8
0
 10
1.90352
 20
8.57219
 11
1.7657
 21
8.49385
  0
LINE
  8
0
 10
1.7657
 20
8.49385
 11
1.63495
 21
8.40524
  0
LINE
  8
0
 10
1.63495
 20
8.40524
 11
1.51175
 21
8.30684
  0
LINE
  8
0
 10
1.51175
 20
8.30684
 11
1.39664
 21
8.19916
  0
LINE
  8
0
 10
1.39664
 20
8.19916
 11
1.29007
 21
8.08264
  0
LINE
  8
0
 10
1.29007
 20
8.08264
 11
1.1926
 21
7.95778
  0
LINE
  8
0
 10
1.1926
 20
7.95778
 11
1.10469
 21
7.82504
  0
LINE
  8
0
 10
1.10469
 20
7.82504
 11
1.02689
 21
7.68494
  0
LINE
  8
0
 10
1.02689
 20
7.68494
 11
0.959656
 21
7.53792
  0
LINE
  8
0
 10
0.959656
 20
7.53792
 11
0.903519
 21
7.38446
  0
LINE
  8
0
 10
0.903519
 20
7.38446
 11
0.858978
 21
7.22507
  0
LINE
  8
0
 10
0.858978
 20
7.22507
 11
0.826553
 21
7.0602
  0
LINE
  8
0
 10
0.826553
 20
7.0602
 11
0.806717
 21
6.89034
  0
LINE
  8
0
 10
0.806717
 20
6.89034
 11
0.799988
 21
6.71596
  0
LINE
  8
0
 10
0.799988
 20
6.71596
 11
0.799988
 21
2.41344
  0
LINE
  8
0
 10
0.799988
 20
2.41344
 11
0.800507
 21
2.3532
  0
LINE
  8
0
 10
0.800507
 20
2.3532
 11
0.802078
 21
2.2935
  0
LINE
  8
0
 10
0.802078
 20
2.2935
 11
0.804764
 21
2.23442
  0
LINE
  8
0
 10
0.804764
 20
2.23442
 11
0.808594
 21
2.17599
  0
LINE
  8
0
 10
0.808594
 20
2.17599
 11
0.813644
 21
2.11827
  0
LINE
  8
0
 10
0.813644
 20
2.11827
 11
0.819962
 21
2.06131
  0
LINE
  8
0
 10
0.819962
 20
2.06131
 11
0.827576
 21
2.00514
  0
LINE
  8
0
 10
0.827576
 20
2.00514
 11
0.836563
 21
1.94984
  0
LINE
  8
0
 10
0.836563
 20
1.94984
 11
0.846954
 21
1.89545
  0
LINE
  8
0
 10
0.846954
 20
1.89545
 11
0.85881
 21
1.84201
  0
LINE
  8
0
 10
0.85881
 20
1.84201
 11
0.872192
 21
1.78958
  0
LINE
  8
0
 10
0.872192
 20
1.78958
 11
0.887115
 21
1.7382
  0
LINE
  8
0
 10
0.887115
 20
1.7382
 11
0.903671
 21
1.68796
  0
LINE
  8
0
 10
0.903671
 20
1.68796
 11
0.921875
 21
1.63885
  0
LINE
  8
0
 10
0.921875
 20
1.63885
 11
0.941803
 21
1.59096
  0
LINE
  8
0
 10
0.941803
 20
1.59096
 11
0.963486
 21
1.54433
  0
LINE
  8
0
 10
0.963486
 20
1.54433
 11
0.987
 21
1.49901
  0
LINE
  8
0
 10
0.987
 20
1.49901
 11
1.01236
 21
1.45505
  0
LINE
  8
0
 10
1.01236
 20
1.45505
 11
1.03964
 21
1.41251
  0
LINE
  8
0
 10
1.03964
 20
1.41251
 11
1.06889
 21
1.37141
  0
LINE
  8
0
 10
1.06889
 20
1.37141
 11
3.85881
 21
2.95125
  0
LINE
  8
0
 10
35.1549
 20
5.01178
 11
35.3256
 21
5.04694
  0
LINE
  8
0
 10
35.3256
 20
5.04694
 11
35.4841
 21
5.10553
  0
LINE
  8
0
 10
35.4841
 20
5.10553
 11
35.6302
 21
5.18755
  0
LINE
  8
0
 10
35.6302
 20
5.18755
 11
35.7625
 21
5.29138
  0
LINE
  8
0
 10
35.7625
 20
5.29138
 11
35.8791
 21
5.41534
  0
LINE
  8
0
 10
35.8791
 20
5.41534
 11
35.9801
 21
5.55945
  0
LINE
  8
0
 10
35.9801
 20
5.55945
 11
36.0654
 21
5.72369
  0
LINE
  8
0
 10
36.0654
 20
5.72369
 11
36.1333
 21
5.90625
  0
LINE
  8
0
 10
36.1333
 20
5.90625
 11
36.1818
 21
6.10529
  0
LINE
  8
0
 10
36.1818
 20
6.10529
 11
36.2108
 21
6.32082
  0
LINE
  8
0
 10
36.2108
 20
6.32082
 11
36.2205
 21
6.55281
  0
LINE
  8
0
 10
36.2205
 20
6.55281
 11
36.2143
 21
6.74438
  0
LINE
  8
0
 10
36.2143
 20
6.74438
 11
36.1955
 21
6.92072
  0
LINE
  8
0
 10
36.1955
 20
6.92072
 11
36.1642
 21
7.08179
  0
LINE
  8
0
 10
36.1642
 20
7.08179
 11
36.1205
 21
7.22758
  0
LINE
  8
0
 10
36.1205
 20
7.22758
 11
36.0658
 21
7.35912
  0
LINE
  8
0
 10
36.0658
 20
7.35912
 11
36.0019
 21
7.47734
  0
LINE
  8
0
 10
36.0019
 20
7.47734
 11
35.9288
 21
7.58226
  0
LINE
  8
0
 10
35.9288
 20
7.58226
 11
35.8463
 21
7.67387
  0
LINE
  8
0
 10
35.8463
 20
7.67387
 11
35.7564
 21
7.75311
  0
LINE
  8
0
 10
35.7564
 20
7.75311
 11
35.6605
 21
7.82086
  0
LINE
  8
0
 10
35.6605
 20
7.82086
 11
35.5588
 21
7.87714
  0
LINE
  8
0
 10
35.5588
 20
7.87714
 11
35.4511
 21
7.92192
  0
LINE
  8
0
 10
35.4511
 20
7.92192
 11
35.3393
 21
7.95612
  0
LINE
  8
0
 10
35.3393
 20
7.95612
 11
35.2248
 21
7.98053
  0
LINE
  8
0
 10
35.2248
 20
7.98053
 11
35.1077
 21
7.99518
  0
LINE
  8
0
 10
35.1077
 20
7.99518
 11
34.9879
 21
8.00006
  0
LINE
  8
0
 10
34.9879
 20
8.00006
 11
34.8229
 21
7.99268
  0
LINE
  8
0
 10
34.8229
 20
7.99268
 11
34.668
 21
7.96857
  0
LINE
  8
0
 10
34.668
 20
7.96857
 11
34.5233
 21
7.92773
  0
LINE
  8
0
 10
34.5233
 20
7.92773
 11
34.3886
 21
7.87018
  0
LINE
  8
0
 10
34.3886
 20
7.87018
 11
34.2661
 21
7.79796
  0
LINE
  8
0
 10
34.2661
 20
7.79796
 11
34.1578
 21
7.71318
  0
LINE
  8
0
 10
34.1578
 20
7.71318
 11
34.0635
 21
7.61583
  0
LINE
  8
0
 10
34.0635
 20
7.61583
 11
33.9834
 21
7.50591
  0
LINE
  8
0
 10
33.9834
 20
7.50591
 11
33.9195
 21
7.38531
  0
LINE
  8
0
 10
33.9195
 20
7.38531
 11
33.8739
 21
7.25592
  0
LINE
  8
0
 10
33.8739
 20
7.25592
 11
33.8465
 21
7.11774
  0
LINE
  8
0
 10
33.8465
 20
7.11774
 11
33.8374
 21
6.97075
  0
LINE
  8
0
 10
33.8374
 20
6.97075
 11
33.8447
 21
6.83966
  0
LINE
  8
0
 10
33.8447
 20
6.83966
 11
33.8666
 21
6.71588
  0
LINE
  8
0
 10
33.8666
 20
6.71588
 11
33.9032
 21
6.59943
  0
LINE
  8
0
 10
33.9032
 20
6.59943
 11
33.9544
 21
6.49028
  0
LINE
  8
0
 10
33.9544
 20
6.49028
 11
34.0185
 21
6.3905
  0
LINE
  8
0
 10
34.0185
 20
6.3905
 11
34.0938
 21
6.30206
  0
LINE
  8
0
 10
34.0938
 20
6.30206
 11
34.1801
 21
6.22498
  0
LINE
  8
0
 10
34.1801
 20
6.22498
 11
34.2776
 21
6.15923
  0
LINE
  8
0
 10
34.2776
 20
6.15923
 11
34.3845
 21
6.10669
  0
LINE
  8
0
 10
34.3845
 20
6.10669
 11
34.4992
 21
6.06915
  0
LINE
  8
0
 10
34.4992
 20
6.06915
 11
34.6216
 21
6.04665
  0
LINE
  8
0
 10
34.6216
 20
6.04665
 11
34.7518
 21
6.03914
  0
LINE
  8
0
 10
34.7518
 20
6.03914
 11
34.8732
 21
6.0461
  0
LINE
  8
0
 10
34.8732
 20
6.0461
 11
34.9894
 21
6.06697
  0
LINE
  8
0
 10
34.9894
 20
6.06697
 11
35.1004
 21
6.10175
  0
LINE
  8
0
 10
35.1004
 20
6.10175
 11
35.206
 21
6.15045
  0
LINE
  8
0
 10
35.206
 20
6.15045
 11
35.302
 21
6.21124
  0
LINE
  8
0
 10
35.302
 20
6.21124
 11
35.3836
 21
6.28229
  0
LINE
  8
0
 10
35.3836
 20
6.28229
 11
35.451
 21
6.36359
  0
LINE
  8
0
 10
35.451
 20
6.36359
 11
35.5042
 21
6.45515
  0
LINE
  8
0
 10
35.5042
 20
6.45515
 11
35.5222
 21
6.45515
  0
LINE
  8
0
 10
35.5222
 20
6.45515
 11
35.5136
 21
6.26784
  0
LINE
  8
0
 10
35.5136
 20
6.26784
 11
35.4879
 21
6.10042
  0
LINE
  8
0
 10
35.4879
 20
6.10042
 11
35.4451
 21
5.9529
  0
LINE
  8
0
 10
35.4451
 20
5.9529
 11
35.3851
 21
5.82527
  0
LINE
  8
0
 10
35.3851
 20
5.82527
 11
35.3079
 21
5.72229
  0
LINE
  8
0
 10
35.3079
 20
5.72229
 11
35.2133
 21
5.64876
  0
LINE
  8
0
 10
35.2133
 20
5.64876
 11
35.1013
 21
5.60461
  0
LINE
  8
0
 10
35.1013
 20
5.60461
 11
34.9719
 21
5.5899
  0
LINE
  8
0
 10
34.9719
 20
5.5899
 11
34.8984
 21
5.59473
  0
LINE
  8
0
 10
34.8984
 20
5.59473
 11
34.8301
 21
5.60919
  0
LINE
  8
0
 10
34.8301
 20
5.60919
 11
34.7669
 21
5.6333
  0
LINE
  8
0
 10
34.7669
 20
5.6333
 11
34.7088
 21
5.66704
  0
LINE
  8
0
 10
34.7088
 20
5.66704
 11
34.6583
 21
5.70958
  0
LINE
  8
0
 10
34.6583
 20
5.70958
 11
34.618
 21
5.76007
  0
LINE
  8
0
 10
34.618
 20
5.76007
 11
34.5878
 21
5.81848
  0
LINE
  8
0
 10
34.5878
 20
5.81848
 11
34.5677
 21
5.88483
  0
LINE
  8
0
 10
34.5677
 20
5.88483
 11
33.8714
 21
5.88483
  0
LINE
  8
0
 10
33.8714
 20
5.88483
 11
33.8926
 21
5.76465
  0
LINE
  8
0
 10
33.8926
 20
5.76465
 11
33.9282
 21
5.65021
  0
LINE
  8
0
 10
33.9282
 20
5.65021
 11
33.9781
 21
5.5415
  0
LINE
  8
0
 10
33.9781
 20
5.5415
 11
34.0425
 21
5.43854
  0
LINE
  8
0
 10
34.0425
 20
5.43854
 11
34.1199
 21
5.34351
  0
LINE
  8
0
 10
34.1199
 20
5.34351
 11
34.2093
 21
5.25862
  0
LINE
  8
0
 10
34.2093
 20
5.25862
 11
34.3105
 21
5.18385
  0
LINE
  8
0
 10
34.3105
 20
5.18385
 11
34.4236
 21
5.1192
  0
LINE
  8
0
 10
34.4236
 20
5.1192
 11
34.5472
 21
5.06708
  0
LINE
  8
0
 10
34.5472
 20
5.06708
 11
34.6798
 21
5.02985
  0
LINE
  8
0
 10
34.6798
 20
5.02985
 11
34.8214
 21
5.00751
  0
LINE
  8
0
 10
34.8214
 20
5.00751
 11
34.9719
 21
5.00006
  0
LINE
  8
0
 10
34.9719
 20
5.00006
 11
35.1549
 21
5.01178
  0
LINE
  8
0
 10
34.8933
 20
6.53185
 11
34.8053
 21
6.55693
  0
LINE
  8
0
 10
34.8053
 20
6.55693
 11
34.7262
 21
6.59874
  0
LINE
  8
0
 10
34.7262
 20
6.59874
 11
34.6558
 21
6.65727
  0
LINE
  8
0
 10
34.6558
 20
6.65727
 11
34.598
 21
6.72838
  0
LINE
  8
0
 10
34.598
 20
6.72838
 11
34.5567
 21
6.80791
  0
LINE
  8
0
 10
34.5567
 20
6.80791
 11
34.532
 21
6.89586
  0
LINE
  8
0
 10
34.532
 20
6.89586
 11
34.5237
 21
6.99223
  0
LINE
  8
0
 10
34.5237
 20
6.99223
 11
34.5321
 21
7.08783
  0
LINE
  8
0
 10
34.5321
 20
7.08783
 11
34.5572
 21
7.17535
  0
LINE
  8
0
 10
34.5572
 20
7.17535
 11
34.5991
 21
7.25482
  0
LINE
  8
0
 10
34.5991
 20
7.25482
 11
34.6578
 21
7.32623
  0
LINE
  8
0
 10
34.6578
 20
7.32623
 11
34.7289
 21
7.38519
  0
LINE
  8
0
 10
34.7289
 20
7.38519
 11
34.8083
 21
7.42729
  0
LINE
  8
0
 10
34.8083
 20
7.42729
 11
34.896
 21
7.45256
  0
LINE
  8
0
 10
34.896
 20
7.45256
 11
34.9919
 21
7.46098
  0
LINE
  8
0
 10
34.9919
 20
7.46098
 11
35.0886
 21
7.4525
  0
LINE
  8
0
 10
35.0886
 20
7.4525
 11
35.1765
 21
7.42705
  0
LINE
  8
0
 10
35.1765
 20
7.42705
 11
35.2557
 21
7.38463
  0
LINE
  8
0
 10
35.2557
 20
7.38463
 11
35.3261
 21
7.32526
  0
LINE
  8
0
 10
35.3261
 20
7.32526
 11
35.3839
 21
7.25366
  0
LINE
  8
0
 10
35.3839
 20
7.25366
 11
35.4252
 21
7.17462
  0
LINE
  8
0
 10
35.4252
 20
7.17462
 11
35.4499
 21
7.08813
  0
LINE
  8
0
 10
35.4499
 20
7.08813
 11
35.4582
 21
6.9942
  0
LINE
  8
0
 10
35.4582
 20
6.9942
 11
35.4498
 21
6.89856
  0
LINE
  8
0
 10
35.4498
 20
6.89856
 11
35.4247
 21
6.81085
  0
LINE
  8
0
 10
35.4247
 20
6.81085
 11
35.3828
 21
6.73106
  0
LINE
  8
0
 10
35.3828
 20
6.73106
 11
35.3241
 21
6.65923
  0
LINE
  8
0
 10
35.3241
 20
6.65923
 11
35.2529
 21
6.59984
  0
LINE
  8
0
 10
35.2529
 20
6.59984
 11
35.1735
 21
6.55742
  0
LINE
  8
0
 10
35.1735
 20
6.55742
 11
35.0859
 21
6.53197
  0
LINE
  8
0
 10
35.0859
 20
6.53197
 11
34.9899
 21
6.5235
  0
LINE
  8
0
 10
34.9899
 20
6.5235
 11
34.8933
 21
6.53185
  0
LINE
  8
0
 10
19.4153
 20
5.01674
 11
19.5999
 21
5.04915
  0
LINE
  8
0
 10
19.5999
 20
5.04915
 11
19.7749
 21
5.10315
  0
LINE
  8
0
 10
19.7749
 20
5.10315
 11
19.9403
 21
5.17877
  0
LINE
  8
0
 10
19.9403
 20
5.17877
 11
20.0926
 21
5.27527
  0
LINE
  8
0
 10
20.0926
 20
5.27527
 11
20.2282
 21
5.39191
  0
LINE
  8
0
 10
20.2282
 20
5.39191
 11
20.3472
 21
5.52869
  0
LINE
  8
0
 10
20.3472
 20
5.52869
 11
20.4495
 21
5.68562
  0
LINE
  8
0
 10
20.4495
 20
5.68562
 11
20.5318
 21
5.86165
  0
LINE
  8
0
 10
20.5318
 20
5.86165
 11
20.5906
 21
6.05574
  0
LINE
  8
0
 10
20.5906
 20
6.05574
 11
20.6259
 21
6.2679
  0
LINE
  8
0
 10
20.6259
 20
6.2679
 11
20.6376
 21
6.49812
  0
LINE
  8
0
 10
20.6376
 20
6.49812
 11
20.6259
 21
6.7292
  0
LINE
  8
0
 10
20.6259
 20
6.7292
 11
20.5906
 21
6.94196
  0
LINE
  8
0
 10
20.5906
 20
6.94196
 11
20.5318
 21
7.13641
  0
LINE
  8
0
 10
20.5318
 20
7.13641
 11
20.4495
 21
7.31255
  0
LINE
  8
0
 10
20.4495
 20
7.31255
 11
20.3472
 21
7.46953
  0
LINE
  8
0
 10
20.3472
 20
7.46953
 11
20.2282
 21
7.60651
  0
LINE
  8
0
 10
20.2282
 20
7.60651
 11
20.0926
 21
7.72345
  0
LINE
  8
0
 10
20.0926
 20
7.72345
 11
19.9403
 21
7.82037
  0
LINE
  8
0
 10
19.9403
 20
7.82037
 11
19.7749
 21
7.89644
  0
LINE
  8
0
 10
19.7749
 20
7.89644
 11
19.5999
 21
7.95076
  0
LINE
  8
0
 10
19.5999
 20
7.95076
 11
19.4153
 21
7.98335
  0
LINE
  8
0
 10
19.4153
 20
7.98335
 11
19.221
 21
7.99422
  0
LINE
  8
0
 10
19.221
 20
7.99422
 11
19.0249
 21
7.98335
  0
LINE
  8
0
 10
19.0249
 20
7.98335
 11
18.839
 21
7.95076
  0
LINE
  8
0
 10
18.839
 20
7.95076
 11
18.6633
 21
7.89644
  0
LINE
  8
0
 10
18.6633
 20
7.89644
 11
18.4976
 21
7.82037
  0
LINE
  8
0
 10
18.4976
 20
7.82037
 11
18.3454
 21
7.72345
  0
LINE
  8
0
 10
18.3454
 20
7.72345
 11
18.2097
 21
7.60651
  0
LINE
  8
0
 10
18.2097
 20
7.60651
 11
18.0907
 21
7.46953
  0
LINE
  8
0
 10
18.0907
 20
7.46953
 11
17.9884
 21
7.31255
  0
LINE
  8
0
 10
17.9884
 20
7.31255
 11
17.9061
 21
7.13641
  0
LINE
  8
0
 10
17.9061
 20
7.13641
 11
17.8473
 21
6.94196
  0
LINE
  8
0
 10
17.8473
 20
6.94196
 11
17.812
 21
6.7292
  0
LINE
  8
0
 10
17.812
 20
6.7292
 11
17.8003
 21
6.49812
  0
LINE
  8
0
 10
17.8003
 20
6.49812
 11
17.812
 21
6.26874
  0
LINE
  8
0
 10
17.812
 20
6.26874
 11
17.8473
 21
6.05719
  0
LINE
  8
0
 10
17.8473
 20
6.05719
 11
17.9061
 21
5.86345
  0
LINE
  8
0
 10
17.9061
 20
5.86345
 11
17.9884
 21
5.68755
  0
LINE
  8
0
 10
17.9884
 20
5.68755
 11
18.0907
 21
5.53056
  0
LINE
  8
0
 10
18.0907
 20
5.53056
 11
18.2097
 21
5.39362
  0
LINE
  8
0
 10
18.2097
 20
5.39362
 11
18.3454
 21
5.27667
  0
LINE
  8
0
 10
18.3454
 20
5.27667
 11
18.4976
 21
5.17975
  0
LINE
  8
0
 10
18.4976
 20
5.17975
 11
18.6633
 21
5.1037
  0
LINE
  8
0
 10
18.6633
 20
5.1037
 11
18.839
 21
5.04939
  0
LINE
  8
0
 10
18.839
 20
5.04939
 11
19.0249
 21
5.0168
  0
LINE
  8
0
 10
19.0249
 20
5.0168
 11
19.221
 21
5.00594
  0
LINE
  8
0
 10
19.221
 20
5.00594
 11
19.4153
 21
5.01674
  0
LINE
  8
0
 10
19.0666
 20
5.62561
 11
18.9298
 21
5.66827
  0
LINE
  8
0
 10
18.9298
 20
5.66827
 11
18.8105
 21
5.73938
  0
LINE
  8
0
 10
18.8105
 20
5.73938
 11
18.7087
 21
5.83891
  0
LINE
  8
0
 10
18.7087
 20
5.83891
 11
18.6273
 21
5.96544
  0
LINE
  8
0
 10
18.6273
 20
5.96544
 11
18.5691
 21
6.11749
  0
LINE
  8
0
 10
18.5691
 20
6.11749
 11
18.5343
 21
6.29504
  0
LINE
  8
0
 10
18.5343
 20
6.29504
 11
18.5226
 21
6.49812
  0
LINE
  8
0
 10
18.5226
 20
6.49812
 11
18.5343
 21
6.70209
  0
LINE
  8
0
 10
18.5343
 20
6.70209
 11
18.5691
 21
6.88043
  0
LINE
  8
0
 10
18.5691
 20
6.88043
 11
18.6273
 21
7.03313
  0
LINE
  8
0
 10
18.6273
 20
7.03313
 11
18.7087
 21
7.1602
  0
LINE
  8
0
 10
18.7087
 20
7.1602
 11
18.8105
 21
7.26018
  0
LINE
  8
0
 10
18.8105
 20
7.26018
 11
18.9298
 21
7.33159
  0
LINE
  8
0
 10
18.9298
 20
7.33159
 11
19.0666
 21
7.37444
  0
LINE
  8
0
 10
19.0666
 20
7.37444
 11
19.221
 21
7.38872
  0
LINE
  8
0
 10
19.221
 20
7.38872
 11
19.3744
 21
7.37444
  0
LINE
  8
0
 10
19.3744
 20
7.37444
 11
19.5106
 21
7.33159
  0
LINE
  8
0
 10
19.5106
 20
7.33159
 11
19.6295
 21
7.26018
  0
LINE
  8
0
 10
19.6295
 20
7.26018
 11
19.7312
 21
7.1602
  0
LINE
  8
0
 10
19.7312
 20
7.1602
 11
19.8126
 21
7.03313
  0
LINE
  8
0
 10
19.8126
 20
7.03313
 11
19.8708
 21
6.88043
  0
LINE
  8
0
 10
19.8708
 20
6.88043
 11
19.9057
 21
6.70209
  0
LINE
  8
0
 10
19.9057
 20
6.70209
 11
19.9173
 21
6.49812
  0
LINE
  8
0
 10
19.9173
 20
6.49812
 11
19.9057
 21
6.29504
  0
LINE
  8
0
 10
19.9057
 20
6.29504
 11
19.8708
 21
6.11749
  0
LINE
  8
0
 10
19.8708
 20
6.11749
 11
19.8126
 21
5.96544
  0
LINE
  8
0
 10
19.8126
 20
5.96544
 11
19.7312
 21
5.83891
  0
LINE
  8
0
 10
19.7312
 20
5.83891
 11
19.6295
 21
5.73938
  0
LINE
  8
0
 10
19.6295
 20
5.73938
 11
19.5106
 21
5.66827
  0
LINE
  8
0
 10
19.5106
 20
5.66827
 11
19.3744
 21
5.62561
  0
LINE
  8
0
 10
19.3744
 20
5.62561
 11
19.221
 21
5.6114
  0
LINE
  8
0
 10
19.221
 20
5.6114
 11
19.0666
 21
5.62561
  0
LINE
  8
0
 10
25.1597
 20
5.01521
 11
25.3347
 21
5.04305
  0
LINE
  8
0
 10
25.3347
 20
5.04305
 11
25.4989
 21
5.08943
  0
LINE
  8
0
 10
25.4989
 20
5.08943
 11
25.6523
 21
5.15437
  0
LINE
  8
0
 10
25.6523
 20
5.15437
 11
25.7924
 21
5.23671
  0
LINE
  8
0
 10
25.7924
 20
5.23671
 11
25.9167
 21
5.33528
  0
LINE
  8
0
 10
25.9167
 20
5.33528
 11
26.0251
 21
5.45009
  0
LINE
  8
0
 10
26.0251
 20
5.45009
 11
26.1175
 21
5.58113
  0
LINE
  8
0
 10
26.1175
 20
5.58113
 11
26.1915
 21
5.72719
  0
LINE
  8
0
 10
26.1915
 20
5.72719
 11
26.2444
 21
5.88704
  0
LINE
  8
0
 10
26.2444
 20
5.88704
 11
26.2761
 21
6.06067
  0
LINE
  8
0
 10
26.2761
 20
6.06067
 11
26.2866
 21
6.24811
  0
LINE
  8
0
 10
26.2866
 20
6.24811
 11
26.2866
 21
6.63092
  0
LINE
  8
0
 10
26.2866
 20
6.63092
 11
25.008
 21
6.63092
  0
LINE
  8
0
 10
25.008
 20
6.63092
 11
25.008
 21
6.12508
  0
LINE
  8
0
 10
25.008
 20
6.12508
 11
25.6043
 21
6.12508
  0
LINE
  8
0
 10
25.6043
 20
6.12508
 11
25.5916
 21
6.01302
  0
LINE
  8
0
 10
25.5916
 20
6.01302
 11
25.5595
 21
5.91316
  0
LINE
  8
0
 10
25.5595
 20
5.91316
 11
25.5081
 21
5.8255
  0
LINE
  8
0
 10
25.5081
 20
5.8255
 11
25.4372
 21
5.75008
  0
LINE
  8
0
 10
25.4372
 20
5.75008
 11
25.3482
 21
5.68939
  0
LINE
  8
0
 10
25.3482
 20
5.68939
 11
25.2424
 21
5.64607
  0
LINE
  8
0
 10
25.2424
 20
5.64607
 11
25.1196
 21
5.62006
  0
LINE
  8
0
 10
25.1196
 20
5.62006
 11
24.98
 21
5.6114
  0
LINE
  8
0
 10
24.98
 20
5.6114
 11
24.8203
 21
5.62599
  0
LINE
  8
0
 10
24.8203
 20
5.62599
 11
24.6793
 21
5.66975
  0
LINE
  8
0
 10
24.6793
 20
5.66975
 11
24.5571
 21
5.74268
  0
LINE
  8
0
 10
24.5571
 20
5.74268
 11
24.4537
 21
5.84479
  0
LINE
  8
0
 10
24.4537
 20
5.84479
 11
24.3714
 21
5.97351
  0
LINE
  8
0
 10
24.3714
 20
5.97351
 11
24.3127
 21
6.12628
  0
LINE
  8
0
 10
24.3127
 20
6.12628
 11
24.2774
 21
6.3031
  0
LINE
  8
0
 10
24.2774
 20
6.3031
 11
24.2657
 21
6.50397
  0
LINE
  8
0
 10
24.2657
 20
6.50397
 11
24.2777
 21
6.703
  0
LINE
  8
0
 10
24.2777
 20
6.703
 11
24.3139
 21
6.87823
  0
LINE
  8
0
 10
24.3139
 20
6.87823
 11
24.3743
 21
7.02966
  0
LINE
  8
0
 10
24.3743
 20
7.02966
 11
24.4587
 21
7.15729
  0
LINE
  8
0
 10
24.4587
 20
7.15729
 11
24.5636
 21
7.25854
  0
LINE
  8
0
 10
24.5636
 20
7.25854
 11
24.6851
 21
7.33087
  0
LINE
  8
0
 10
24.6851
 20
7.33087
 11
24.8232
 21
7.37427
  0
LINE
  8
0
 10
24.8232
 20
7.37427
 11
24.978
 21
7.38872
  0
LINE
  8
0
 10
24.978
 20
7.38872
 11
25.0842
 21
7.38245
  0
LINE
  8
0
 10
25.0842
 20
7.38245
 11
25.1808
 21
7.36357
  0
LINE
  8
0
 10
25.1808
 20
7.36357
 11
25.2678
 21
7.33214
  0
LINE
  8
0
 10
25.2678
 20
7.33214
 11
25.3452
 21
7.28813
  0
LINE
  8
0
 10
25.3452
 20
7.28813
 11
25.4118
 21
7.23277
  0
LINE
  8
0
 10
25.4118
 20
7.23277
 11
25.4665
 21
7.16728
  0
LINE
  8
0
 10
25.4665
 20
7.16728
 11
25.5093
 21
7.09167
  0
LINE
  8
0
 10
25.5093
 20
7.09167
 11
25.5403
 21
7.00592
  0
LINE
  8
0
 10
25.5403
 20
7.00592
 11
26.2546
 21
7.00592
  0
LINE
  8
0
 10
26.2546
 20
7.00592
 11
26.2278
 21
7.14636
  0
LINE
  8
0
 10
26.2278
 20
7.14636
 11
26.1833
 21
7.27863
  0
LINE
  8
0
 10
26.1833
 20
7.27863
 11
26.1212
 21
7.40271
  0
LINE
  8
0
 10
26.1212
 20
7.40271
 11
26.0415
 21
7.51862
  0
LINE
  8
0
 10
26.0415
 20
7.51862
 11
25.9466
 21
7.62433
  0
LINE
  8
0
 10
25.9466
 20
7.62433
 11
25.8392
 21
7.71783
  0
LINE
  8
0
 10
25.8392
 20
7.71783
 11
25.719
 21
7.79913
  0
LINE
  8
0
 10
25.719
 20
7.79913
 11
25.5863
 21
7.86821
  0
LINE
  8
0
 10
25.5863
 20
7.86821
 11
25.4432
 21
7.92334
  0
LINE
  8
0
 10
25.4432
 20
7.92334
 11
25.2921
 21
7.96271
  0
LINE
  8
0
 10
25.2921
 20
7.96271
 11
25.1331
 21
7.98634
  0
LINE
  8
0
 10
25.1331
 20
7.98634
 11
24.966
 21
7.99422
  0
LINE
  8
0
 10
24.966
 20
7.99422
 11
24.7716
 21
7.98317
  0
LINE
  8
0
 10
24.7716
 20
7.98317
 11
24.5868
 21
7.95003
  0
LINE
  8
0
 10
24.5868
 20
7.95003
 11
24.4115
 21
7.89478
  0
LINE
  8
0
 10
24.4115
 20
7.89478
 11
24.2456
 21
7.81744
  0
LINE
  8
0
 10
24.2456
 20
7.81744
 11
24.0928
 21
7.71918
  0
LINE
  8
0
 10
24.0928
 20
7.71918
 11
23.9565
 21
7.60114
  0
LINE
  8
0
 10
23.9565
 20
7.60114
 11
23.8367
 21
7.46332
  0
LINE
  8
0
 10
23.8367
 20
7.46332
 11
23.7334
 21
7.30573
  0
LINE
  8
0
 10
23.7334
 20
7.30573
 11
23.6502
 21
7.12939
  0
LINE
  8
0
 10
23.6502
 20
7.12939
 11
23.5908
 21
6.93536
  0
LINE
  8
0
 10
23.5908
 20
6.93536
 11
23.5552
 21
6.72363
  0
LINE
  8
0
 10
23.5552
 20
6.72363
 11
23.5433
 21
6.4942
  0
LINE
  8
0
 10
23.5433
 20
6.4942
 11
23.5546
 21
6.27252
  0
LINE
  8
0
 10
23.5546
 20
6.27252
 11
23.5883
 21
6.06647
  0
LINE
  8
0
 10
23.5883
 20
6.06647
 11
23.6446
 21
5.87604
  0
LINE
  8
0
 10
23.6446
 20
5.87604
 11
23.7234
 21
5.70123
  0
LINE
  8
0
 10
23.7234
 20
5.70123
 11
23.8223
 21
5.54382
  0
LINE
  8
0
 10
23.8223
 20
5.54382
 11
23.939
 21
5.40558
  0
LINE
  8
0
 10
23.939
 20
5.40558
 11
24.0734
 21
5.28651
  0
LINE
  8
0
 10
24.0734
 20
5.28651
 11
24.2256
 21
5.1866
  0
LINE
  8
0
 10
24.2256
 20
5.1866
 11
24.3932
 21
5.10756
  0
LINE
  8
0
 10
24.3932
 20
5.10756
 11
24.5738
 21
5.0511
  0
LINE
  8
0
 10
24.5738
 20
5.0511
 11
24.7674
 21
5.01723
  0
LINE
  8
0
 10
24.7674
 20
5.01723
 11
24.974
 21
5.00594
  0
LINE
  8
0
 10
24.974
 20
5.00594
 11
25.1597
 21
5.01521
  0
LINE
  8
0
 10
32.5528
 20
5.01289
 11
32.7119
 21
5.03377
  0
LINE
  8
0
 10
32.7119
 20
5.03377
 11
32.8609
 21
5.06856
  0
LINE
  8
0
 10
32.8609
 20
5.06856
 11
33
 21
5.11725
  0
LINE
  8
0
 10
33
 20
5.11725
 11
33.1268
 21
5.1781
  0
LINE
  8
0
 10
33.1268
 20
5.1781
 11
33.2389
 21
5.24933
  0
LINE
  8
0
 10
33.2389
 20
5.24933
 11
33.3364
 21
5.33093
  0
LINE
  8
0
 10
33.3364
 20
5.33093
 11
33.4192
 21
5.4229
  0
LINE
  8
0
 10
33.4192
 20
5.4229
 11
33.4853
 21
5.52367
  0
LINE
  8
0
 10
33.4853
 20
5.52367
 11
33.5325
 21
5.63165
  0
LINE
  8
0
 10
33.5325
 20
5.63165
 11
33.5608
 21
5.74683
  0
LINE
  8
0
 10
33.5608
 20
5.74683
 11
33.5703
 21
5.86922
  0
LINE
  8
0
 10
33.5703
 20
5.86922
 11
33.5593
 21
5.99835
  0
LINE
  8
0
 10
33.5593
 20
5.99835
 11
33.5265
 21
6.11627
  0
LINE
  8
0
 10
33.5265
 20
6.11627
 11
33.4718
 21
6.22295
  0
LINE
  8
0
 10
33.4718
 20
6.22295
 11
33.3952
 21
6.31841
  0
LINE
  8
0
 10
33.3952
 20
6.31841
 11
33.2972
 21
6.3996
  0
LINE
  8
0
 10
33.2972
 20
6.3996
 11
33.1783
 21
6.46344
  0
LINE
  8
0
 10
33.1783
 20
6.46344
 11
33.0386
 21
6.50995
  0
LINE
  8
0
 10
33.0386
 20
6.50995
 11
32.8779
 21
6.53912
  0
LINE
  8
0
 10
32.8779
 20
6.53912
 11
32.8779
 21
6.56061
  0
LINE
  8
0
 10
32.8779
 20
6.56061
 11
33.0011
 21
6.58685
  0
LINE
  8
0
 10
33.0011
 20
6.58685
 11
33.1123
 21
6.62848
  0
LINE
  8
0
 10
33.1123
 20
6.62848
 11
33.2117
 21
6.68549
  0
LINE
  8
0
 10
33.2117
 20
6.68549
 11
33.2991
 21
6.75786
  0
LINE
  8
0
 10
33.2991
 20
6.75786
 11
33.3705
 21
6.8432
  0
LINE
  8
0
 10
33.3705
 20
6.8432
 11
33.4215
 21
6.93903
  0
LINE
  8
0
 10
33.4215
 20
6.93903
 11
33.452
 21
7.04535
  0
LINE
  8
0
 10
33.452
 20
7.04535
 11
33.4622
 21
7.16219
  0
LINE
  8
0
 10
33.4622
 20
7.16219
 11
33.4538
 21
7.27734
  0
LINE
  8
0
 10
33.4538
 20
7.27734
 11
33.4285
 21
7.38654
  0
LINE
  8
0
 10
33.4285
 20
7.38654
 11
33.3863
 21
7.48973
  0
LINE
  8
0
 10
33.3863
 20
7.48973
 11
33.3271
 21
7.58696
  0
LINE
  8
0
 10
33.3271
 20
7.58696
 11
33.253
 21
7.67625
  0
LINE
  8
0
 10
33.253
 20
7.67625
 11
33.1656
 21
7.75568
  0
LINE
  8
0
 10
33.1656
 20
7.75568
 11
33.0649
 21
7.8252
  0
LINE
  8
0
 10
33.0649
 20
7.8252
 11
32.951
 21
7.88483
  0
LINE
  8
0
 10
32.951
 20
7.88483
 11
32.8257
 21
7.93269
  0
LINE
  8
0
 10
32.8257
 20
7.93269
 11
32.6911
 21
7.96687
  0
LINE
  8
0
 10
32.6911
 20
7.96687
 11
32.5471
 21
7.98738
  0
LINE
  8
0
 10
32.5471
 20
7.98738
 11
32.3937
 21
7.99422
  0
LINE
  8
0
 10
32.3937
 20
7.99422
 11
32.238
 21
7.9872
  0
LINE
  8
0
 10
32.238
 20
7.9872
 11
32.0908
 21
7.96614
  0
LINE
  8
0
 10
32.0908
 20
7.96614
 11
31.9523
 21
7.93103
  0
LINE
  8
0
 10
31.9523
 20
7.93103
 11
31.8224
 21
7.8819
  0
LINE
  8
0
 10
31.8224
 20
7.8819
 11
31.7035
 21
7.82043
  0
LINE
  8
0
 10
31.7035
 20
7.82043
 11
31.5978
 21
7.74835
  0
LINE
  8
0
 10
31.5978
 20
7.74835
 11
31.5054
 21
7.66565
  0
LINE
  8
0
 10
31.5054
 20
7.66565
 11
31.4262
 21
7.57233
  0
LINE
  8
0
 10
31.4262
 20
7.57233
 11
31.3626
 21
7.46991
  0
LINE
  8
0
 10
31.3626
 20
7.46991
 11
31.3169
 21
7.35994
  0
LINE
  8
0
 10
31.3169
 20
7.35994
 11
31.2891
 21
7.24239
  0
LINE
  8
0
 10
31.2891
 20
7.24239
 11
31.2792
 21
7.11726
  0
LINE
  8
0
 10
31.2792
 20
7.11726
 11
31.9575
 21
7.11726
  0
LINE
  8
0
 10
31.9575
 20
7.11726
 11
31.9662
 21
7.18964
  0
LINE
  8
0
 10
31.9662
 20
7.18964
 11
31.9902
 21
7.25444
  0
LINE
  8
0
 10
31.9902
 20
7.25444
 11
32.0297
 21
7.31169
  0
LINE
  8
0
 10
32.0297
 20
7.31169
 11
32.0845
 21
7.36137
  0
LINE
  8
0
 10
32.0845
 20
7.36137
 11
32.1506
 21
7.40154
  0
LINE
  8
0
 10
32.1506
 20
7.40154
 11
32.2239
 21
7.43022
  0
LINE
  8
0
 10
32.2239
 20
7.43022
 11
32.3042
 21
7.44745
  0
LINE
  8
0
 10
32.3042
 20
7.44745
 11
32.3917
 21
7.45317
  0
LINE
  8
0
 10
32.3917
 20
7.45317
 11
32.4738
 21
7.44739
  0
LINE
  8
0
 10
32.4738
 20
7.44739
 11
32.5478
 21
7.42999
  0
LINE
  8
0
 10
32.5478
 20
7.42999
 11
32.6138
 21
7.401
  0
LINE
  8
0
 10
32.6138
 20
7.401
 11
32.6718
 21
7.36041
  0
LINE
  8
0
 10
32.6718
 20
7.36041
 11
32.7191
 21
7.31055
  0
LINE
  8
0
 10
32.7191
 20
7.31055
 11
32.7529
 21
7.25374
  0
LINE
  8
0
 10
32.7529
 20
7.25374
 11
32.7731
 21
7.18996
  0
LINE
  8
0
 10
32.7731
 20
7.18996
 11
32.7799
 21
7.11922
  0
LINE
  8
0
 10
32.7799
 20
7.11922
 11
32.772
 21
7.04565
  0
LINE
  8
0
 10
32.772
 20
7.04565
 11
32.7484
 21
6.97931
  0
LINE
  8
0
 10
32.7484
 20
6.97931
 11
32.709
 21
6.92017
  0
LINE
  8
0
 10
32.709
 20
6.92017
 11
32.6538
 21
6.86823
  0
LINE
  8
0
 10
32.6538
 20
6.86823
 11
32.5863
 21
6.82593
  0
LINE
  8
0
 10
32.5863
 20
6.82593
 11
32.5098
 21
6.79572
  0
LINE
  8
0
 10
32.5098
 20
6.79572
 11
32.4242
 21
6.77759
  0
LINE
  8
0
 10
32.4242
 20
6.77759
 11
32.3297
 21
6.77155
  0
LINE
  8
0
 10
32.3297
 20
6.77155
 11
32.0395
 21
6.77155
  0
LINE
  8
0
 10
32.0395
 20
6.77155
 11
32.0395
 21
6.27936
  0
LINE
  8
0
 10
32.0395
 20
6.27936
 11
32.3297
 21
6.27936
  0
LINE
  8
0
 10
32.3297
 20
6.27936
 11
32.438
 21
6.27313
  0
LINE
  8
0
 10
32.438
 20
6.27313
 11
32.5348
 21
6.25446
  0
LINE
  8
0
 10
32.5348
 20
6.25446
 11
32.6201
 21
6.22333
  0
LINE
  8
0
 10
32.6201
 20
6.22333
 11
32.6938
 21
6.17973
  0
LINE
  8
0
 10
32.6938
 20
6.17973
 11
32.7534
 21
6.12628
  0
LINE
  8
0
 10
32.7534
 20
6.12628
 11
32.7959
 21
6.06549
  0
LINE
  8
0
 10
32.7959
 20
6.06549
 11
32.8214
 21
5.99739
  0
LINE
  8
0
 10
32.8214
 20
5.99739
 11
32.8299
 21
5.92195
  0
LINE
  8
0
 10
32.8299
 20
5.92195
 11
32.8222
 21
5.84663
  0
LINE
  8
0
 10
32.8222
 20
5.84663
 11
32.7992
 21
5.77888
  0
LINE
  8
0
 10
32.7992
 20
5.77888
 11
32.7607
 21
5.7187
  0
LINE
  8
0
 10
32.7607
 20
5.7187
 11
32.7069
 21
5.66609
  0
LINE
  8
0
 10
32.7069
 20
5.66609
 11
32.6409
 21
5.62337
  0
LINE
  8
0
 10
32.6409
 20
5.62337
 11
32.566
 21
5.59285
  0
LINE
  8
0
 10
32.566
 20
5.59285
 11
32.4823
 21
5.57452
  0
LINE
  8
0
 10
32.4823
 20
5.57452
 11
32.3897
 21
5.56842
  0
LINE
  8
0
 10
32.3897
 20
5.56842
 11
32.2958
 21
5.57405
  0
LINE
  8
0
 10
32.2958
 20
5.57405
 11
32.2101
 21
5.59088
  0
LINE
  8
0
 10
32.2101
 20
5.59088
 11
32.1327
 21
5.61896
  0
LINE
  8
0
 10
32.1327
 20
5.61896
 11
32.0636
 21
5.65825
  0
LINE
  8
0
 10
32.0636
 20
5.65825
 11
32.0064
 21
5.70673
  0
LINE
  8
0
 10
32.0064
 20
5.70673
 11
31.965
 21
5.76227
  0
LINE
  8
0
 10
31.965
 20
5.76227
 11
31.9394
 21
5.82489
  0
LINE
  8
0
 10
31.9394
 20
5.82489
 11
31.9295
 21
5.89459
  0
LINE
  8
0
 10
31.9295
 20
5.89459
 11
31.2211
 21
5.89459
  0
LINE
  8
0
 10
31.2211
 20
5.89459
 11
31.2314
 21
5.76758
  0
LINE
  8
0
 10
31.2314
 20
5.76758
 11
31.2602
 21
5.64825
  0
LINE
  8
0
 10
31.2602
 20
5.64825
 11
31.3074
 21
5.53662
  0
LINE
  8
0
 10
31.3074
 20
5.53662
 11
31.3732
 21
5.43266
  0
LINE
  8
0
 10
31.3732
 20
5.43266
 11
31.4552
 21
5.33801
  0
LINE
  8
0
 10
31.4552
 20
5.33801
 11
31.551
 21
5.25421
  0
LINE
  8
0
 10
31.551
 20
5.25421
 11
31.6608
 21
5.18127
  0
LINE
  8
0
 10
31.6608
 20
5.18127
 11
31.7844
 21
5.1192
  0
LINE
  8
0
 10
31.7844
 20
5.1192
 11
31.9198
 21
5.06966
  0
LINE
  8
0
 10
31.9198
 20
5.06966
 11
32.0648
 21
5.03426
  0
LINE
  8
0
 10
32.0648
 20
5.03426
 11
32.2194
 21
5.01302
  0
LINE
  8
0
 10
32.2194
 20
5.01302
 11
32.3837
 21
5.00594
  0
LINE
  8
0
 10
32.3837
 20
5.00594
 11
32.5528
 21
5.01289
  0
LINE
  8
0
 10
29.9734
 20
5.03053
 11
30.2208
 21
5.10432
  0
LINE
  8
0
 10
30.2208
 20
5.10432
 11
30.4351
 21
5.22731
  0
LINE
  8
0
 10
30.4351
 20
5.22731
 11
30.6163
 21
5.39949
  0
LINE
  8
0
 10
30.6163
 20
5.39949
 11
30.7603
 21
5.61574
  0
LINE
  8
0
 10
30.7603
 20
5.61574
 11
30.8631
 21
5.87093
  0
LINE
  8
0
 10
30.8631
 20
5.87093
 11
30.9249
 21
6.16505
  0
LINE
  8
0
 10
30.9249
 20
6.16505
 11
30.9454
 21
6.49812
  0
LINE
  8
0
 10
30.9454
 20
6.49812
 11
30.9361
 21
6.72499
  0
LINE
  8
0
 10
30.9361
 20
6.72499
 11
30.9082
 21
6.93489
  0
LINE
  8
0
 10
30.9082
 20
6.93489
 11
30.8616
 21
7.12781
  0
LINE
  8
0
 10
30.8616
 20
7.12781
 11
30.7963
 21
7.30377
  0
LINE
  8
0
 10
30.7963
 20
7.30377
 11
30.7136
 21
7.46143
  0
LINE
  8
0
 10
30.7136
 20
7.46143
 11
30.6145
 21
7.59943
  0
LINE
  8
0
 10
30.6145
 20
7.59943
 11
30.499
 21
7.71777
  0
LINE
  8
0
 10
30.499
 20
7.71777
 11
30.3671
 21
7.81647
  0
LINE
  8
0
 10
30.3671
 20
7.81647
 11
30.2199
 21
7.89423
  0
LINE
  8
0
 10
30.2199
 20
7.89423
 11
30.0585
 21
7.94978
  0
LINE
  8
0
 10
30.0585
 20
7.94978
 11
29.8828
 21
7.98311
  0
LINE
  8
0
 10
29.8828
 20
7.98311
 11
29.6928
 21
7.99422
  0
LINE
  8
0
 10
29.6928
 20
7.99422
 11
29.4138
 21
7.96956
  0
LINE
  8
0
 10
29.4138
 20
7.96956
 11
29.1673
 21
7.89557
  0
LINE
  8
0
 10
29.1673
 20
7.89557
 11
28.9531
 21
7.77228
  0
LINE
  8
0
 10
28.9531
 20
7.77228
 11
28.7713
 21
7.59966
  0
LINE
  8
0
 10
28.7713
 20
7.59966
 11
28.6265
 21
7.38286
  0
LINE
  8
0
 10
28.6265
 20
7.38286
 11
28.523
 21
7.12701
  0
LINE
  8
0
 10
28.523
 20
7.12701
 11
28.4609
 21
6.83209
  0
LINE
  8
0
 10
28.4609
 20
6.83209
 11
28.4402
 21
6.49812
  0
LINE
  8
0
 10
28.4402
 20
6.49812
 11
28.4609
 21
6.16426
  0
LINE
  8
0
 10
28.4609
 20
6.16426
 11
28.523
 21
5.86971
  0
LINE
  8
0
 10
28.523
 20
5.86971
 11
28.6265
 21
5.61444
  0
LINE
  8
0
 10
28.6265
 20
5.61444
 11
28.7713
 21
5.39851
  0
LINE
  8
0
 10
28.7713
 20
5.39851
 11
28.9531
 21
5.22676
  0
LINE
  8
0
 10
28.9531
 20
5.22676
 11
29.1673
 21
5.10408
  0
LINE
  8
0
 10
29.1673
 20
5.10408
 11
29.4138
 21
5.03047
  0
LINE
  8
0
 10
29.4138
 20
5.03047
 11
29.6928
 21
5.00594
  0
LINE
  8
0
 10
29.6928
 20
5.00594
 11
29.9734
 21
5.03053
  0
LINE
  8
0
 10
29.5732
 20
5.5854
 11
29.4684
 21
5.63045
  0
LINE
  8
0
 10
29.4684
 20
5.63045
 11
29.3786
 21
5.70551
  0
LINE
  8
0
 10
29.3786
 20
5.70551
 11
29.3036
 21
5.81061
  0
LINE
  8
0
 10
29.3036
 20
5.81061
 11
29.2445
 21
5.94366
  0
LINE
  8
0
 10
29.2445
 20
5.94366
 11
29.2023
 21
6.1026
  0
LINE
  8
0
 10
29.2023
 20
6.1026
 11
29.177
 21
6.28743
  0
LINE
  8
0
 10
29.177
 20
6.28743
 11
29.1685
 21
6.49812
  0
LINE
  8
0
 10
29.1685
 20
6.49812
 11
29.177
 21
6.70985
  0
LINE
  8
0
 10
29.177
 20
6.70985
 11
29.2026
 21
6.89583
  0
LINE
  8
0
 10
29.2026
 20
6.89583
 11
29.2451
 21
7.05603
  0
LINE
  8
0
 10
29.2451
 20
7.05603
 11
29.3046
 21
7.19049
  0
LINE
  8
0
 10
29.3046
 20
7.19049
 11
29.3799
 21
7.29688
  0
LINE
  8
0
 10
29.3799
 20
7.29688
 11
29.4697
 21
7.37286
  0
LINE
  8
0
 10
29.4697
 20
7.37286
 11
29.574
 21
7.41846
  0
LINE
  8
0
 10
29.574
 20
7.41846
 11
29.6928
 21
7.43365
  0
LINE
  8
0
 10
29.6928
 20
7.43365
 11
29.8125
 21
7.41846
  0
LINE
  8
0
 10
29.8125
 20
7.41846
 11
29.9174
 21
7.37286
  0
LINE
  8
0
 10
29.9174
 20
7.37286
 11
30.0076
 21
7.29688
  0
LINE
  8
0
 10
30.0076
 20
7.29688
 11
30.083
 21
7.19049
  0
LINE
  8
0
 10
30.083
 20
7.19049
 11
30.1425
 21
7.05603
  0
LINE
  8
0
 10
30.1425
 20
7.05603
 11
30.185
 21
6.89583
  0
LINE
  8
0
 10
30.185
 20
6.89583
 11
30.2106
 21
6.70985
  0
LINE
  8
0
 10
30.2106
 20
6.70985
 11
30.2191
 21
6.49812
  0
LINE
  8
0
 10
30.2191
 20
6.49812
 11
30.2106
 21
6.28743
  0
LINE
  8
0
 10
30.2106
 20
6.28743
 11
30.185
 21
6.1026
  0
LINE
  8
0
 10
30.185
 20
6.1026
 11
30.1425
 21
5.94366
  0
LINE
  8
0
 10
30.1425
 20
5.94366
 11
30.083
 21
5.81061
  0
LINE
  8
0
 10
30.083
 20
5.81061
 11
30.0076
 21
5.70551
  0
LINE
  8
0
 10
30.0076
 20
5.70551
 11
29.9174
 21
5.63045
  0
LINE
  8
0
 10
29.9174
 20
5.63045
 11
29.8125
 21
5.5854
  0
LINE
  8
0
 10
29.8125
 20
5.5854
 11
29.6928
 21
5.57039
  0
LINE
  8
0
 10
29.6928
 20
5.57039
 11
29.5732
 21
5.5854
  0
LINE
  8
0
 10
12.9157
 20
6.29887
 11
12.9154
 21
6.35767
  0
LINE
  8
0
 10
12.9154
 20
6.35767
 11
12.9145
 21
6.42462
  0
LINE
  8
0
 10
12.9145
 20
6.42462
 11
12.9129
 21
6.49974
  0
LINE
  8
0
 10
12.9129
 20
6.49974
 11
12.9107
 21
6.58305
  0
LINE
  8
0
 10
12.9107
 20
6.58305
 11
12.9055
 21
6.76494
  0
LINE
  8
0
 10
12.9055
 20
6.76494
 11
12.8997
 21
6.96098
  0
LINE
  8
0
 10
12.8997
 20
6.96098
 11
12.8968
 21
7.06181
  0
LINE
  8
0
 10
12.8968
 20
7.06181
 11
12.8942
 21
7.16118
  0
LINE
  8
0
 10
12.8942
 20
7.16118
 11
12.8918
 21
7.25908
  0
LINE
  8
0
 10
12.8918
 20
7.25908
 11
12.8897
 21
7.35551
  0
LINE
  8
0
 10
12.8897
 20
7.35551
 11
12.915
 21
7.25317
  0
LINE
  8
0
 10
12.915
 20
7.25317
 11
12.941
 21
7.15118
  0
LINE
  8
0
 10
12.941
 20
7.15118
 11
12.9676
 21
7.04958
  0
LINE
  8
0
 10
12.9676
 20
7.04958
 11
12.9948
 21
6.94832
  0
LINE
  8
0
 10
12.9948
 20
6.94832
 11
13.022
 21
6.84926
  0
LINE
  8
0
 10
13.022
 20
6.84926
 11
13.0485
 21
6.75423
  0
LINE
  8
0
 10
13.0485
 20
6.75423
 11
13.0745
 21
6.66321
  0
LINE
  8
0
 10
13.0745
 20
6.66321
 11
13.0998
 21
6.57622
  0
LINE
  8
0
 10
13.0998
 20
6.57622
 11
13.1238
 21
6.49516
  0
LINE
  8
0
 10
13.1238
 20
6.49516
 11
13.1458
 21
6.42192
  0
LINE
  8
0
 10
13.1458
 20
6.42192
 11
13.1658
 21
6.35649
  0
LINE
  8
0
 10
13.1658
 20
6.35649
 11
13.1838
 21
6.29887
  0
LINE
  8
0
 10
13.1838
 20
6.29887
 11
13.614
 21
5.045
  0
LINE
  8
0
 10
13.614
 20
5.045
 11
14.2043
 21
5.045
  0
LINE
  8
0
 10
14.2043
 20
5.045
 11
14.6285
 21
6.29887
  0
LINE
  8
0
 10
14.6285
 20
6.29887
 11
14.6474
 21
6.35864
  0
LINE
  8
0
 10
14.6474
 20
6.35864
 11
14.6681
 21
6.42657
  0
LINE
  8
0
 10
14.6681
 20
6.42657
 11
14.6904
 21
6.50269
  0
LINE
  8
0
 10
14.6904
 20
6.50269
 11
14.7146
 21
6.58696
  0
LINE
  8
0
 10
14.7146
 20
6.58696
 11
14.7399
 21
6.67737
  0
LINE
  8
0
 10
14.7399
 20
6.67737
 11
14.7659
 21
6.77179
  0
LINE
  8
0
 10
14.7659
 20
6.77179
 11
14.7924
 21
6.87024
  0
LINE
  8
0
 10
14.7924
 20
6.87024
 11
14.8196
 21
6.97272
  0
LINE
  8
0
 10
14.8196
 20
6.97272
 11
14.8468
 21
7.07709
  0
LINE
  8
0
 10
14.8468
 20
7.07709
 11
14.8734
 21
7.18121
  0
LINE
  8
0
 10
14.8734
 20
7.18121
 11
14.8994
 21
7.2851
  0
LINE
  8
0
 10
14.8994
 20
7.2851
 11
14.9247
 21
7.38872
  0
LINE
  8
0
 10
14.9247
 20
7.38872
 11
14.9225
 21
7.2901
  0
LINE
  8
0
 10
14.9225
 20
7.2901
 11
14.9202
 21
7.18951
  0
LINE
  8
0
 10
14.9202
 20
7.18951
 11
14.9176
 21
7.08698
  0
LINE
  8
0
 10
14.9176
 20
7.08698
 11
14.9147
 21
6.98247
  0
LINE
  8
0
 10
14.9147
 20
6.98247
 11
14.9089
 21
6.77911
  0
LINE
  8
0
 10
14.9089
 20
6.77911
 11
14.9037
 21
6.59088
  0
LINE
  8
0
 10
14.9037
 20
6.59088
 11
14.9015
 21
6.50488
  0
LINE
  8
0
 10
14.9015
 20
6.50488
 11
14.8999
 21
6.42755
  0
LINE
  8
0
 10
14.8999
 20
6.42755
 11
14.899
 21
6.35889
  0
LINE
  8
0
 10
14.899
 20
6.35889
 11
14.8987
 21
6.29887
  0
LINE
  8
0
 10
14.8987
 20
6.29887
 11
14.8987
 21
5.045
  0
LINE
  8
0
 10
14.8987
 20
5.045
 11
15.609
 21
5.045
  0
LINE
  8
0
 10
15.609
 20
5.045
 11
15.609
 21
7.95514
  0
LINE
  8
0
 10
15.609
 20
7.95514
 11
14.5065
 21
7.95514
  0
LINE
  8
0
 10
14.5065
 20
7.95514
 11
14.1323
 21
6.82233
  0
LINE
  8
0
 10
14.1323
 20
6.82233
 11
14.1167
 21
6.76868
  0
LINE
  8
0
 10
14.1167
 20
6.76868
 11
14.1
 21
6.70734
  0
LINE
  8
0
 10
14.1
 20
6.70734
 11
14.0822
 21
6.63831
  0
LINE
  8
0
 10
14.0822
 20
6.63831
 11
14.0633
 21
6.5616
  0
LINE
  8
0
 10
14.0633
 20
6.5616
 11
14.0438
 21
6.47955
  0
LINE
  8
0
 10
14.0438
 20
6.47955
 11
14.0242
 21
6.39459
  0
LINE
  8
0
 10
14.0242
 20
6.39459
 11
14.0047
 21
6.3067
  0
LINE
  8
0
 10
14.0047
 20
6.3067
 11
13.9852
 21
6.21588
  0
LINE
  8
0
 10
13.9852
 20
6.21588
 11
13.966
 21
6.12427
  0
LINE
  8
0
 10
13.966
 20
6.12427
 11
13.9475
 21
6.03401
  0
LINE
  8
0
 10
13.9475
 20
6.03401
 11
13.9295
 21
5.94508
  0
LINE
  8
0
 10
13.9295
 20
5.94508
 11
13.9122
 21
5.8575
  0
LINE
  8
0
 10
13.9122
 20
5.8575
 11
13.8939
 21
5.94514
  0
LINE
  8
0
 10
13.8939
 20
5.94514
 11
13.8752
 21
6.03426
  0
LINE
  8
0
 10
13.8752
 20
6.03426
 11
13.8559
 21
6.12483
  0
LINE
  8
0
 10
13.8559
 20
6.12483
 11
13.8361
 21
6.21686
  0
LINE
  8
0
 10
13.8361
 20
6.21686
 11
13.8162
 21
6.30804
  0
LINE
  8
0
 10
13.8162
 20
6.30804
 11
13.7964
 21
6.39606
  0
LINE
  8
0
 10
13.7964
 20
6.39606
 11
13.7767
 21
6.48091
  0
LINE
  8
0
 10
13.7767
 20
6.48091
 11
13.7571
 21
6.56258
  0
LINE
  8
0
 10
13.7571
 20
6.56258
 11
13.7382
 21
6.63887
  0
LINE
  8
0
 10
13.7382
 20
6.63887
 11
13.7204
 21
6.70758
  0
LINE
  8
0
 10
13.7204
 20
6.70758
 11
13.7037
 21
6.76874
  0
LINE
  8
0
 10
13.7037
 20
6.76874
 11
13.6881
 21
6.82233
  0
LINE
  8
0
 10
13.6881
 20
6.82233
 11
13.3079
 21
7.95514
  0
LINE
  8
0
 10
13.3079
 20
7.95514
 11
12.2074
 21
7.95514
  0
LINE
  8
0
 10
12.2074
 20
7.95514
 11
12.2074
 21
5.045
  0
LINE
  8
0
 10
12.2074
 20
5.045
 11
12.9157
 21
5.045
  0
LINE
  8
0
 10
12.9157
 20
5.045
 11
12.9157
 21
6.29887
  0
LINE
  8
0
 10
9.14044
 20
6.29887
 11
9.14014
 21
6.35767
  0
LINE
  8
0
 10
9.14014
 20
6.35767
 11
9.13919
 21
6.42462
  0
LINE
  8
0
 10
9.13919
 20
6.42462
 11
9.13762
 21
6.49974
  0
LINE
  8
0
 10
9.13762
 20
6.49974
 11
9.13544
 21
6.58305
  0
LINE
  8
0
 10
9.13544
 20
6.58305
 11
9.13019
 21
6.76494
  0
LINE
  8
0
 10
9.13019
 20
6.76494
 11
9.12442
 21
6.96098
  0
LINE
  8
0
 10
9.12442
 20
6.96098
 11
9.12155
 21
7.06181
  0
LINE
  8
0
 10
9.12155
 20
7.06181
 11
9.11893
 21
7.16118
  0
LINE
  8
0
 10
9.11893
 20
7.16118
 11
9.11656
 21
7.25908
  0
LINE
  8
0
 10
9.11656
 20
7.25908
 11
9.11443
 21
7.35551
  0
LINE
  8
0
 10
9.11443
 20
7.35551
 11
9.13976
 21
7.25317
  0
LINE
  8
0
 10
9.13976
 20
7.25317
 11
9.16571
 21
7.15118
  0
LINE
  8
0
 10
9.16571
 20
7.15118
 11
9.19229
 21
7.04958
  0
LINE
  8
0
 10
9.19229
 20
7.04958
 11
9.2195
 21
6.94832
  0
LINE
  8
0
 10
9.2195
 20
6.94832
 11
9.24669
 21
6.84926
  0
LINE
  8
0
 10
9.24669
 20
6.84926
 11
9.27327
 21
6.75423
  0
LINE
  8
0
 10
9.27327
 20
6.75423
 11
9.29921
 21
6.66321
  0
LINE
  8
0
 10
9.29921
 20
6.66321
 11
9.32454
 21
6.57622
  0
LINE
  8
0
 10
9.32454
 20
6.57622
 11
9.34854
 21
6.49516
  0
LINE
  8
0
 10
9.34854
 20
6.49516
 11
9.37056
 21
6.42192
  0
LINE
  8
0
 10
9.37056
 20
6.42192
 11
9.39056
 21
6.35649
  0
LINE
  8
0
 10
9.39056
 20
6.35649
 11
9.40857
 21
6.29887
  0
LINE
  8
0
 10
9.40857
 20
6.29887
 11
9.83879
 21
5.045
  0
LINE
  8
0
 10
9.83879
 20
5.045
 11
10.4291
 21
5.045
  0
LINE
  8
0
 10
10.4291
 20
5.045
 11
10.8533
 21
6.29887
  0
LINE
  8
0
 10
10.8533
 20
6.29887
 11
10.8722
 21
6.35864
  0
LINE
  8
0
 10
10.8722
 20
6.35864
 11
10.8928
 21
6.42657
  0
LINE
  8
0
 10
10.8928
 20
6.42657
 11
10.9152
 21
6.50269
  0
LINE
  8
0
 10
10.9152
 20
6.50269
 11
10.9393
 21
6.58696
  0
LINE
  8
0
 10
10.9393
 20
6.58696
 11
10.9646
 21
6.67737
  0
LINE
  8
0
 10
10.9646
 20
6.67737
 11
10.9906
 21
6.77179
  0
LINE
  8
0
 10
10.9906
 20
6.77179
 11
11.0172
 21
6.87024
  0
LINE
  8
0
 10
11.0172
 20
6.87024
 11
11.0444
 21
6.97272
  0
LINE
  8
0
 10
11.0444
 20
6.97272
 11
11.0716
 21
7.07709
  0
LINE
  8
0
 10
11.0716
 20
7.07709
 11
11.0982
 21
7.18121
  0
LINE
  8
0
 10
11.0982
 20
7.18121
 11
11.1241
 21
7.2851
  0
LINE
  8
0
 10
11.1241
 20
7.2851
 11
11.1494
 21
7.38872
  0
LINE
  8
0
 10
11.1494
 20
7.38872
 11
11.1473
 21
7.2901
  0
LINE
  8
0
 10
11.1473
 20
7.2901
 11
11.1449
 21
7.18951
  0
LINE
  8
0
 10
11.1449
 20
7.18951
 11
11.1423
 21
7.08698
  0
LINE
  8
0
 10
11.1423
 20
7.08698
 11
11.1394
 21
6.98247
  0
LINE
  8
0
 10
11.1394
 20
6.98247
 11
11.1337
 21
6.77911
  0
LINE
  8
0
 10
11.1337
 20
6.77911
 11
11.1284
 21
6.59088
  0
LINE
  8
0
 10
11.1284
 20
6.59088
 11
11.1262
 21
6.50488
  0
LINE
  8
0
 10
11.1262
 20
6.50488
 11
11.1246
 21
6.42755
  0
LINE
  8
0
 10
11.1246
 20
6.42755
 11
11.1237
 21
6.35889
  0
LINE
  8
0
 10
11.1237
 20
6.35889
 11
11.1234
 21
6.29887
  0
LINE
  8
0
 10
11.1234
 20
6.29887
 11
11.1234
 21
5.045
  0
LINE
  8
0
 10
11.1234
 20
5.045
 11
11.8337
 21
5.045
  0
LINE
  8
0
 10
11.8337
 20
5.045
 11
11.8337
 21
7.95514
  0
LINE
  8
0
 10
11.8337
 20
7.95514
 11
10.7312
 21
7.95514
  0
LINE
  8
0
 10
10.7312
 20
7.95514
 11
10.3571
 21
6.82233
  0
LINE
  8
0
 10
10.3571
 20
6.82233
 11
10.3415
 21
6.76868
  0
LINE
  8
0
 10
10.3415
 20
6.76868
 11
10.3248
 21
6.70734
  0
LINE
  8
0
 10
10.3248
 20
6.70734
 11
10.3069
 21
6.63831
  0
LINE
  8
0
 10
10.3069
 20
6.63831
 11
10.288
 21
6.5616
  0
LINE
  8
0
 10
10.288
 20
6.5616
 11
10.2685
 21
6.47955
  0
LINE
  8
0
 10
10.2685
 20
6.47955
 11
10.249
 21
6.39459
  0
LINE
  8
0
 10
10.249
 20
6.39459
 11
10.2295
 21
6.3067
  0
LINE
  8
0
 10
10.2295
 20
6.3067
 11
10.21
 21
6.21588
  0
LINE
  8
0
 10
10.21
 20
6.21588
 11
10.1908
 21
6.12427
  0
LINE
  8
0
 10
10.1908
 20
6.12427
 11
10.1722
 21
6.03401
  0
LINE
  8
0
 10
10.1722
 20
6.03401
 11
10.1543
 21
5.94508
  0
LINE
  8
0
 10
10.1543
 20
5.94508
 11
10.1369
 21
5.8575
  0
LINE
  8
0
 10
10.1369
 20
5.8575
 11
10.1187
 21
5.94514
  0
LINE
  8
0
 10
10.1187
 20
5.94514
 11
10.0999
 21
6.03426
  0
LINE
  8
0
 10
10.0999
 20
6.03426
 11
10.0806
 21
6.12483
  0
LINE
  8
0
 10
10.0806
 20
6.12483
 11
10.0609
 21
6.21686
  0
LINE
  8
0
 10
10.0609
 20
6.21686
 11
10.0409
 21
6.30804
  0
LINE
  8
0
 10
10.0409
 20
6.30804
 11
10.0211
 21
6.39606
  0
LINE
  8
0
 10
10.0211
 20
6.39606
 11
10.0014
 21
6.48091
  0
LINE
  8
0
 10
10.0014
 20
6.48091
 11
9.98186
 21
6.56258
  0
LINE
  8
0
 10
9.98186
 20
6.56258
 11
9.96292
 21
6.63887
  0
LINE
  8
0
 10
9.96292
 20
6.63887
 11
9.9451
 21
6.70758
  0
LINE
  8
0
 10
9.9451
 20
6.70758
 11
9.92839
 21
6.76874
  0
LINE
  8
0
 10
9.92839
 20
6.76874
 11
9.91281
 21
6.82233
  0
LINE
  8
0
 10
9.91281
 20
6.82233
 11
9.53264
 21
7.95514
  0
LINE
  8
0
 10
9.53264
 20
7.95514
 11
8.43211
 21
7.95514
  0
LINE
  8
0
 10
8.43211
 20
7.95514
 11
8.43211
 21
5.045
  0
LINE
  8
0
 10
8.43211
 20
5.045
 11
9.14044
 21
5.045
  0
LINE
  8
0
 10
9.14044
 20
5.045
 11
9.14044
 21
6.29887
  0
LINE
  8
0
 10
21.6679
 20
6.04694
 11
22.0521
 21
6.04694
  0
LINE
  8
0
 10
22.0521
 20
6.04694
 11
22.5984
 21
5.045
  0
LINE
  8
0
 10
22.5984
 20
5.045
 11
23.3728
 21
5.045
  0
LINE
  8
0
 10
23.3728
 20
5.045
 11
22.7505
 21
6.15633
  0
LINE
  8
0
 10
22.7505
 20
6.15633
 11
22.8674
 21
6.21736
  0
LINE
  8
0
 10
22.8674
 20
6.21736
 11
22.9703
 21
6.29109
  0
LINE
  8
0
 10
22.9703
 20
6.29109
 11
23.0591
 21
6.37752
  0
LINE
  8
0
 10
23.0591
 20
6.37752
 11
23.1337
 21
6.47664
  0
LINE
  8
0
 10
23.1337
 20
6.47664
 11
23.1927
 21
6.58771
  0
LINE
  8
0
 10
23.1927
 20
6.58771
 11
23.235
 21
6.71002
  0
LINE
  8
0
 10
23.235
 20
6.71002
 11
23.2603
 21
6.84357
  0
LINE
  8
0
 10
23.2603
 20
6.84357
 11
23.2687
 21
6.98834
  0
LINE
  8
0
 10
23.2687
 20
6.98834
 11
23.2505
 21
7.19946
  0
LINE
  8
0
 10
23.2505
 20
7.19946
 11
23.1959
 21
7.38751
  0
LINE
  8
0
 10
23.1959
 20
7.38751
 11
23.1049
 21
7.55247
  0
LINE
  8
0
 10
23.1049
 20
7.55247
 11
22.9776
 21
7.69438
  0
LINE
  8
0
 10
22.9776
 20
7.69438
 11
22.8187
 21
7.80846
  0
LINE
  8
0
 10
22.8187
 20
7.80846
 11
22.6331
 21
7.88994
  0
LINE
  8
0
 10
22.6331
 20
7.88994
 11
22.421
 21
7.93884
  0
LINE
  8
0
 10
22.421
 20
7.93884
 11
22.1822
 21
7.95514
  0
LINE
  8
0
 10
22.1822
 20
7.95514
 11
20.9616
 21
7.95514
  0
LINE
  8
0
 10
20.9616
 20
7.95514
 11
20.9616
 21
5.045
  0
LINE
  8
0
 10
20.9616
 20
5.045
 11
21.6679
 21
5.045
  0
LINE
  8
0
 10
21.6679
 20
5.045
 11
21.6679
 21
6.04694
  0
LINE
  8
0
 10
21.6679
 20
6.59186
 11
21.6679
 21
7.39656
  0
LINE
  8
0
 10
21.6679
 20
7.39656
 11
22.0321
 21
7.39656
  0
LINE
  8
0
 10
22.0321
 20
7.39656
 11
22.2527
 21
7.37105
  0
LINE
  8
0
 10
22.2527
 20
7.37105
 11
22.4103
 21
7.29451
  0
LINE
  8
0
 10
22.4103
 20
7.29451
 11
22.5049
 21
7.16695
  0
LINE
  8
0
 10
22.5049
 20
7.16695
 11
22.5364
 21
6.98834
  0
LINE
  8
0
 10
22.5364
 20
6.98834
 11
22.505
 21
6.8149
  0
LINE
  8
0
 10
22.505
 20
6.8149
 11
22.4108
 21
6.69098
  0
LINE
  8
0
 10
22.4108
 20
6.69098
 11
22.2539
 21
6.61664
  0
LINE
  8
0
 10
22.2539
 20
6.61664
 11
22.0341
 21
6.59186
  0
LINE
  8
0
 10
22.0341
 20
6.59186
 11
21.6679
 21
6.59186
  0
LINE
  8
0
 10
6.96176
 20
1.24901
 11
7.00339
 21
1.29529
  0
LINE
  8
0
 10
7.00339
 20
1.29529
 11
7.04254
 21
1.34233
  0
LINE
  8
0
 10
7.04254
 20
1.34233
 11
7.07925
 21
1.39024
  0
LINE
  8
0
 10
7.07925
 20
1.39024
 11
7.11354
 21
1.43918
  0
LINE
  8
0
 10
7.11354
 20
1.43918
 11
7.14543
 21
1.48924
  0
LINE
  8
0
 10
7.14543
 20
1.48924
 11
7.17496
 21
1.54056
  0
LINE
  8
0
 10
7.17496
 20
1.54056
 11
7.20215
 21
1.59328
  0
LINE
  8
0
 10
7.20215
 20
1.59328
 11
7.22701
 21
1.64749
  0
LINE
  8
0
 10
7.22701
 20
1.64749
 11
7.24957
 21
1.70335
  0
LINE
  8
0
 10
7.24957
 20
1.70335
 11
7.26987
 21
1.76099
  0
LINE
  8
0
 10
7.26987
 20
1.76099
 11
7.28792
 21
1.8205
  0
LINE
  8
0
 10
7.28792
 20
1.8205
 11
7.30376
 21
1.88203
  0
LINE
  8
0
 10
7.30376
 20
1.88203
 11
7.3174
 21
1.94571
  0
LINE
  8
0
 10
7.3174
 20
1.94571
 11
7.32887
 21
2.01166
  0
LINE
  8
0
 10
7.32887
 20
2.01166
 11
7.33821
 21
2.07999
  0
LINE
  8
0
 10
7.33821
 20
2.07999
 11
7.34543
 21
2.15085
  0
LINE
  8
0
 10
7.34543
 20
2.15085
 11
7.35054
 21
2.22437
  0
LINE
  8
0
 10
7.35054
 20
2.22437
 11
7.35361
 21
2.30064
  0
LINE
  8
0
 10
7.35361
 20
2.30064
 11
7.35461
 21
2.37982
  0
LINE
  8
0
 10
7.35461
 20
2.37982
 11
7.35461
 21
7.5899
  0
LINE
  8
0
 10
7.35461
 20
7.5899
 11
5.23697
 21
6.44705
  0
LINE
  8
0
 10
5.23697
 20
6.44705
 11
5.23697
 21
2.31259
  0
LINE
  8
0
 10
5.23697
 20
2.31259
 11
6.91763
 21
1.20335
  0
LINE
  8
0
 10
6.91763
 20
1.20335
 11
6.96176
 21
1.24901
  0
LINE
  8
0
 10
28.0433
 20
6.76178
 11
26.6686
 21
6.76178
  0
LINE
  8
0
 10
26.6686
 20
6.76178
 11
26.6686
 21
6.23639
  0
LINE
  8
0
 10
26.6686
 20
6.23639
 11
28.0433
 21
6.23639
  0
LINE
  8
0
 10
28.0433
 20
6.23639
 11
28.0433
 21
6.76178
  0
LINE
  8
0
 10
17.4033
 20
6.76178
 11
16.0287
 21
6.76178
  0
LINE
  8
0
 10
16.0287
 20
6.76178
 11
16.0287
 21
6.23639
  0
LINE
  8
0
 10
16.0287
 20
6.23639
 11
17.4033
 21
6.23639
  0
LINE
  8
0
 10
17.4033
 20
6.23639
 11
17.4033
 21
6.76178
  0
LINE
  8
0
 10
30.032
 20
1.00986
 11
30.0807
 21
1.01186
  0
LINE
  8
0
 10
30.0807
 20
1.01186
 11
30.131
 21
1.01517
  0
LINE
  8
0
 10
30.131
 20
1.01517
 11
30.1826
 21
1.01982
  0
LINE
  8
0
 10
30.1826
 20
1.01982
 11
30.2354
 21
1.02635
  0
LINE
  8
0
 10
30.2354
 20
1.02635
 11
30.2892
 21
1.03532
  0
LINE
  8
0
 10
30.2892
 20
1.03532
 11
30.3439
 21
1.04672
  0
LINE
  8
0
 10
30.3439
 20
1.04672
 11
30.3995
 21
1.06056
  0
LINE
  8
0
 10
30.3995
 20
1.06056
 11
30.3139
 21
1.51039
  0
LINE
  8
0
 10
30.3139
 20
1.51039
 11
30.2984
 21
1.50758
  0
LINE
  8
0
 10
30.2984
 20
1.50758
 11
30.2784
 21
1.50443
  0
LINE
  8
0
 10
30.2784
 20
1.50443
 11
30.2541
 21
1.50093
  0
LINE
  8
0
 10
30.2541
 20
1.50093
 11
30.2254
 21
1.4971
  0
LINE
  8
0
 10
30.2254
 20
1.4971
 11
30.1962
 21
1.49362
  0
LINE
  8
0
 10
30.1962
 20
1.49362
 11
30.1704
 21
1.49113
  0
LINE
  8
0
 10
30.1704
 20
1.49113
 11
30.1481
 21
1.48964
  0
LINE
  8
0
 10
30.1481
 20
1.48964
 11
30.1293
 21
1.48914
  0
LINE
  8
0
 10
30.1293
 20
1.48914
 11
30.0552
 21
1.49876
  0
LINE
  8
0
 10
30.0552
 20
1.49876
 11
30.0022
 21
1.52765
  0
LINE
  8
0
 10
30.0022
 20
1.52765
 11
29.9705
 21
1.57581
  0
LINE
  8
0
 10
29.9705
 20
1.57581
 11
29.9599
 21
1.64322
  0
LINE
  8
0
 10
29.9599
 20
1.64322
 11
29.9599
 21
2.55885
  0
LINE
  8
0
 10
29.9599
 20
2.55885
 11
30.3425
 21
2.55885
  0
LINE
  8
0
 10
30.3425
 20
2.55885
 11
30.3425
 21
3.01755
  0
LINE
  8
0
 10
30.3425
 20
3.01755
 11
29.9599
 21
3.01755
  0
LINE
  8
0
 10
29.9599
 20
3.01755
 11
29.9599
 21
3.48866
  0
LINE
  8
0
 10
29.9599
 20
3.48866
 11
29.2957
 21
3.48866
  0
LINE
  8
0
 10
29.2957
 20
3.48866
 11
29.2957
 21
3.01755
  0
LINE
  8
0
 10
29.2957
 20
3.01755
 11
28.6308
 21
3.01755
  0
LINE
  8
0
 10
28.6308
 20
3.01755
 11
28.6308
 21
3.12914
  0
LINE
  8
0
 10
28.6308
 20
3.12914
 11
28.6337
 21
3.17026
  0
LINE
  8
0
 10
28.6337
 20
3.17026
 11
28.6424
 21
3.20683
  0
LINE
  8
0
 10
28.6424
 20
3.20683
 11
28.657
 21
3.23888
  0
LINE
  8
0
 10
28.657
 20
3.23888
 11
28.6774
 21
3.26637
  0
LINE
  8
0
 10
28.6774
 20
3.26637
 11
28.7052
 21
3.28845
  0
LINE
  8
0
 10
28.7052
 20
3.28845
 11
28.7419
 21
3.30423
  0
LINE
  8
0
 10
28.7419
 20
3.30423
 11
28.7875
 21
3.31369
  0
LINE
  8
0
 10
28.7875
 20
3.31369
 11
28.8421
 21
3.31685
  0
LINE
  8
0
 10
28.8421
 20
3.31685
 11
28.8678
 21
3.31636
  0
LINE
  8
0
 10
28.8678
 20
3.31636
 11
28.8934
 21
3.31487
  0
LINE
  8
0
 10
28.8934
 20
3.31487
 11
28.9191
 21
3.31236
  0
LINE
  8
0
 10
28.9191
 20
3.31236
 11
28.9448
 21
3.30888
  0
LINE
  8
0
 10
28.9448
 20
3.30888
 11
28.9697
 21
3.30484
  0
LINE
  8
0
 10
28.9697
 20
3.30484
 11
28.9929
 21
3.30069
  0
LINE
  8
0
 10
28.9929
 20
3.30069
 11
29.0144
 21
3.29643
  0
LINE
  8
0
 10
29.0144
 20
3.29643
 11
29.0343
 21
3.29207
  0
LINE
  8
0
 10
29.0343
 20
3.29207
 11
29.1409
 21
3.74367
  0
LINE
  8
0
 10
29.1409
 20
3.74367
 11
29.1073
 21
3.75192
  0
LINE
  8
0
 10
29.1073
 20
3.75192
 11
29.0657
 21
3.76073
  0
LINE
  8
0
 10
29.0657
 20
3.76073
 11
29.016
 21
3.77008
  0
LINE
  8
0
 10
29.016
 20
3.77008
 11
28.9582
 21
3.77997
  0
LINE
  8
0
 10
28.9582
 20
3.77997
 11
28.8952
 21
3.78888
  0
LINE
  8
0
 10
28.8952
 20
3.78888
 11
28.8302
 21
3.79526
  0
LINE
  8
0
 10
28.8302
 20
3.79526
 11
28.763
 21
3.79907
  0
LINE
  8
0
 10
28.763
 20
3.79907
 11
28.6936
 21
3.80034
  0
LINE
  8
0
 10
28.6936
 20
3.80034
 11
28.5411
 21
3.78983
  0
LINE
  8
0
 10
28.5411
 20
3.78983
 11
28.4034
 21
3.75829
  0
LINE
  8
0
 10
28.4034
 20
3.75829
 11
28.2803
 21
3.70569
  0
LINE
  8
0
 10
28.2803
 20
3.70569
 11
28.1721
 21
3.63208
  0
LINE
  8
0
 10
28.1721
 20
3.63208
 11
28.0838
 21
3.53723
  0
LINE
  8
0
 10
28.0838
 20
3.53723
 11
28.0208
 21
3.4209
  0
LINE
  8
0
 10
28.0208
 20
3.4209
 11
27.983
 21
3.2831
  0
LINE
  8
0
 10
27.983
 20
3.2831
 11
27.9704
 21
3.12381
  0
LINE
  8
0
 10
27.9704
 20
3.12381
 11
27.9704
 21
3.01755
  0
LINE
  8
0
 10
27.9704
 20
3.01755
 11
27.6125
 21
3.01755
  0
LINE
  8
0
 10
27.6125
 20
3.01755
 11
27.6125
 21
2.55885
  0
LINE
  8
0
 10
27.6125
 20
2.55885
 11
27.9704
 21
2.55885
  0
LINE
  8
0
 10
27.9704
 20
2.55885
 11
27.9704
 21
1.03754
  0
LINE
  8
0
 10
27.9704
 20
1.03754
 11
28.6308
 21
1.03754
  0
LINE
  8
0
 10
28.6308
 20
1.03754
 11
28.6308
 21
2.55885
  0
LINE
  8
0
 10
28.6308
 20
2.55885
 11
29.2957
 21
2.55885
  0
LINE
  8
0
 10
29.2957
 20
2.55885
 11
29.2957
 21
1.58832
  0
LINE
  8
0
 10
29.2957
 20
1.58832
 11
29.3066
 21
1.45511
  0
LINE
  8
0
 10
29.3066
 20
1.45511
 11
29.3394
 21
1.33882
  0
LINE
  8
0
 10
29.3394
 20
1.33882
 11
29.3941
 21
1.23947
  0
LINE
  8
0
 10
29.3941
 20
1.23947
 11
29.4707
 21
1.15706
  0
LINE
  8
0
 10
29.4707
 20
1.15706
 11
29.5685
 21
1.09236
  0
LINE
  8
0
 10
29.5685
 20
1.09236
 11
29.6868
 21
1.04616
  0
LINE
  8
0
 10
29.6868
 20
1.04616
 11
29.8255
 21
1.01843
  0
LINE
  8
0
 10
29.8255
 20
1.01843
 11
29.9846
 21
1.0092
  0
LINE
  8
0
 10
29.9846
 20
1.0092
 11
30.032
 21
1.00986
  0
LINE
  8
0
 10
12.1562
 20
1.02443
 11
12.3916
 21
1.09134
  0
LINE
  8
0
 10
12.3916
 20
1.09134
 11
12.5954
 21
1.20285
  0
LINE
  8
0
 10
12.5954
 20
1.20285
 11
12.7677
 21
1.35898
  0
LINE
  8
0
 10
12.7677
 20
1.35898
 11
12.9047
 21
1.55507
  0
LINE
  8
0
 10
12.9047
 20
1.55507
 11
13.0025
 21
1.78647
  0
LINE
  8
0
 10
13.0025
 20
1.78647
 11
13.0612
 21
2.05318
  0
LINE
  8
0
 10
13.0612
 20
2.05318
 11
13.0808
 21
2.35519
  0
LINE
  8
0
 10
13.0808
 20
2.35519
 11
13.0719
 21
2.56091
  0
LINE
  8
0
 10
13.0719
 20
2.56091
 11
13.0454
 21
2.75124
  0
LINE
  8
0
 10
13.0454
 20
2.75124
 11
13.0011
 21
2.92618
  0
LINE
  8
0
 10
13.0011
 20
2.92618
 11
12.939
 21
3.08572
  0
LINE
  8
0
 10
12.939
 20
3.08572
 11
12.8603
 21
3.22868
  0
LINE
  8
0
 10
12.8603
 20
3.22868
 11
12.7661
 21
3.35382
  0
LINE
  8
0
 10
12.7661
 20
3.35382
 11
12.6562
 21
3.46114
  0
LINE
  8
0
 10
12.6562
 20
3.46114
 11
12.5307
 21
3.55063
  0
LINE
  8
0
 10
12.5307
 20
3.55063
 11
12.3907
 21
3.62115
  0
LINE
  8
0
 10
12.3907
 20
3.62115
 11
12.2372
 21
3.67152
  0
LINE
  8
0
 10
12.2372
 20
3.67152
 11
12.0701
 21
3.70174
  0
LINE
  8
0
 10
12.0701
 20
3.70174
 11
11.8894
 21
3.71181
  0
LINE
  8
0
 10
11.8894
 20
3.71181
 11
11.624
 21
3.68945
  0
LINE
  8
0
 10
11.624
 20
3.68945
 11
11.3895
 21
3.62238
  0
LINE
  8
0
 10
11.3895
 20
3.62238
 11
11.1858
 21
3.51056
  0
LINE
  8
0
 10
11.1858
 20
3.51056
 11
11.0129
 21
3.35403
  0
LINE
  8
0
 10
11.0129
 20
3.35403
 11
10.8751
 21
3.15746
  0
LINE
  8
0
 10
10.8751
 20
3.15746
 11
10.7767
 21
2.92545
  0
LINE
  8
0
 10
10.7767
 20
2.92545
 11
10.7176
 21
2.65804
  0
LINE
  8
0
 10
10.7176
 20
2.65804
 11
10.6979
 21
2.35519
  0
LINE
  8
0
 10
10.6979
 20
2.35519
 11
10.7176
 21
2.05244
  0
LINE
  8
0
 10
10.7176
 20
2.05244
 11
10.7767
 21
1.78535
  0
LINE
  8
0
 10
10.7767
 20
1.78535
 11
10.8751
 21
1.55389
  0
LINE
  8
0
 10
10.8751
 20
1.55389
 11
11.0129
 21
1.35809
  0
LINE
  8
0
 10
11.0129
 20
1.35809
 11
11.1858
 21
1.20235
  0
LINE
  8
0
 10
11.1858
 20
1.20235
 11
11.3895
 21
1.09111
  0
LINE
  8
0
 10
11.3895
 20
1.09111
 11
11.624
 21
1.02437
  0
LINE
  8
0
 10
11.624
 20
1.02437
 11
11.8894
 21
1.00212
  0
LINE
  8
0
 10
11.8894
 20
1.00212
 11
12.1562
 21
1.02443
  0
LINE
  8
0
 10
11.7756
 20
1.52756
 11
11.676
 21
1.56841
  0
LINE
  8
0
 10
11.676
 20
1.56841
 11
11.5905
 21
1.63647
  0
LINE
  8
0
 10
11.5905
 20
1.63647
 11
11.5192
 21
1.73177
  0
LINE
  8
0
 10
11.5192
 20
1.73177
 11
11.463
 21
1.85243
  0
LINE
  8
0
 10
11.463
 20
1.85243
 11
11.4228
 21
1.99655
  0
LINE
  8
0
 10
11.4228
 20
1.99655
 11
11.3987
 21
2.16414
  0
LINE
  8
0
 10
11.3987
 20
2.16414
 11
11.3907
 21
2.35519
  0
LINE
  8
0
 10
11.3907
 20
2.35519
 11
11.3988
 21
2.54718
  0
LINE
  8
0
 10
11.3988
 20
2.54718
 11
11.4231
 21
2.71582
  0
LINE
  8
0
 10
11.4231
 20
2.71582
 11
11.4635
 21
2.8611
  0
LINE
  8
0
 10
11.4635
 20
2.8611
 11
11.5201
 21
2.98302
  0
LINE
  8
0
 10
11.5201
 20
2.98302
 11
11.5917
 21
3.07948
  0
LINE
  8
0
 10
11.5917
 20
3.07948
 11
11.6771
 21
3.14839
  0
LINE
  8
0
 10
11.6771
 20
3.14839
 11
11.7764
 21
3.18973
  0
LINE
  8
0
 10
11.7764
 20
3.18973
 11
11.8894
 21
3.20351
  0
LINE
  8
0
 10
11.8894
 20
3.20351
 11
12.0032
 21
3.18973
  0
LINE
  8
0
 10
12.0032
 20
3.18973
 11
12.103
 21
3.14839
  0
LINE
  8
0
 10
12.103
 20
3.14839
 11
12.1888
 21
3.07948
  0
LINE
  8
0
 10
12.1888
 20
3.07948
 11
12.2605
 21
2.98302
  0
LINE
  8
0
 10
12.2605
 20
2.98302
 11
12.3171
 21
2.8611
  0
LINE
  8
0
 10
12.3171
 20
2.8611
 11
12.3576
 21
2.71582
  0
LINE
  8
0
 10
12.3576
 20
2.71582
 11
12.3818
 21
2.54718
  0
LINE
  8
0
 10
12.3818
 20
2.54718
 11
12.3899
 21
2.35519
  0
LINE
  8
0
 10
12.3899
 20
2.35519
 11
12.3818
 21
2.16414
  0
LINE
  8
0
 10
12.3818
 20
2.16414
 11
12.3576
 21
1.99655
  0
LINE
  8
0
 10
12.3576
 20
1.99655
 11
12.3171
 21
1.85243
  0
LINE
  8
0
 10
12.3171
 20
1.85243
 11
12.2605
 21
1.73177
  0
LINE
  8
0
 10
12.2605
 20
1.73177
 11
12.1888
 21
1.63647
  0
LINE
  8
0
 10
12.1888
 20
1.63647
 11
12.103
 21
1.56841
  0
LINE
  8
0
 10
12.103
 20
1.56841
 11
12.0032
 21
1.52756
  0
LINE
  8
0
 10
12.0032
 20
1.52756
 11
11.8894
 21
1.51395
  0
LINE
  8
0
 10
11.8894
 20
1.51395
 11
11.7756
 21
1.52756
  0
LINE
  8
0
 10
18.5704
 20
1.02443
 11
18.8058
 21
1.09134
  0
LINE
  8
0
 10
18.8058
 20
1.09134
 11
19.0096
 21
1.20285
  0
LINE
  8
0
 10
19.0096
 20
1.20285
 11
19.1819
 21
1.35898
  0
LINE
  8
0
 10
19.1819
 20
1.35898
 11
19.3189
 21
1.55507
  0
LINE
  8
0
 10
19.3189
 20
1.55507
 11
19.4167
 21
1.78647
  0
LINE
  8
0
 10
19.4167
 20
1.78647
 11
19.4754
 21
2.05318
  0
LINE
  8
0
 10
19.4754
 20
2.05318
 11
19.495
 21
2.35519
  0
LINE
  8
0
 10
19.495
 20
2.35519
 11
19.4861
 21
2.56091
  0
LINE
  8
0
 10
19.4861
 20
2.56091
 11
19.4596
 21
2.75124
  0
LINE
  8
0
 10
19.4596
 20
2.75124
 11
19.4152
 21
2.92618
  0
LINE
  8
0
 10
19.4152
 20
2.92618
 11
19.3532
 21
3.08572
  0
LINE
  8
0
 10
19.3532
 20
3.08572
 11
19.2745
 21
3.22868
  0
LINE
  8
0
 10
19.2745
 20
3.22868
 11
19.1802
 21
3.35382
  0
LINE
  8
0
 10
19.1802
 20
3.35382
 11
19.0704
 21
3.46114
  0
LINE
  8
0
 10
19.0704
 20
3.46114
 11
18.9449
 21
3.55063
  0
LINE
  8
0
 10
18.9449
 20
3.55063
 11
18.8049
 21
3.62115
  0
LINE
  8
0
 10
18.8049
 20
3.62115
 11
18.6514
 21
3.67152
  0
LINE
  8
0
 10
18.6514
 20
3.67152
 11
18.4843
 21
3.70174
  0
LINE
  8
0
 10
18.4843
 20
3.70174
 11
18.3036
 21
3.71181
  0
LINE
  8
0
 10
18.3036
 20
3.71181
 11
18.0382
 21
3.68945
  0
LINE
  8
0
 10
18.0382
 20
3.68945
 11
17.8037
 21
3.62238
  0
LINE
  8
0
 10
17.8037
 20
3.62238
 11
17.6
 21
3.51056
  0
LINE
  8
0
 10
17.6
 20
3.51056
 11
17.4271
 21
3.35403
  0
LINE
  8
0
 10
17.4271
 20
3.35403
 11
17.2893
 21
3.15746
  0
LINE
  8
0
 10
17.2893
 20
3.15746
 11
17.1909
 21
2.92545
  0
LINE
  8
0
 10
17.1909
 20
2.92545
 11
17.1318
 21
2.65804
  0
LINE
  8
0
 10
17.1318
 20
2.65804
 11
17.1121
 21
2.35519
  0
LINE
  8
0
 10
17.1121
 20
2.35519
 11
17.1318
 21
2.05244
  0
LINE
  8
0
 10
17.1318
 20
2.05244
 11
17.1909
 21
1.78535
  0
LINE
  8
0
 10
17.1909
 20
1.78535
 11
17.2893
 21
1.55389
  0
LINE
  8
0
 10
17.2893
 20
1.55389
 11
17.4271
 21
1.35809
  0
LINE
  8
0
 10
17.4271
 20
1.35809
 11
17.6
 21
1.20235
  0
LINE
  8
0
 10
17.6
 20
1.20235
 11
17.8037
 21
1.09111
  0
LINE
  8
0
 10
17.8037
 20
1.09111
 11
18.0382
 21
1.02437
  0
LINE
  8
0
 10
18.0382
 20
1.02437
 11
18.3036
 21
1.00212
  0
LINE
  8
0
 10
18.3036
 20
1.00212
 11
18.5704
 21
1.02443
  0
LINE
  8
0
 10
18.1898
 20
1.52756
 11
18.0902
 21
1.56841
  0
LINE
  8
0
 10
18.0902
 20
1.56841
 11
18.0047
 21
1.63647
  0
LINE
  8
0
 10
18.0047
 20
1.63647
 11
17.9334
 21
1.73177
  0
LINE
  8
0
 10
17.9334
 20
1.73177
 11
17.8772
 21
1.85243
  0
LINE
  8
0
 10
17.8772
 20
1.85243
 11
17.837
 21
1.99655
  0
LINE
  8
0
 10
17.837
 20
1.99655
 11
17.8129
 21
2.16414
  0
LINE
  8
0
 10
17.8129
 20
2.16414
 11
17.8049
 21
2.35519
  0
LINE
  8
0
 10
17.8049
 20
2.35519
 11
17.813
 21
2.54718
  0
LINE
  8
0
 10
17.813
 20
2.54718
 11
17.8373
 21
2.71582
  0
LINE
  8
0
 10
17.8373
 20
2.71582
 11
17.8777
 21
2.8611
  0
LINE
  8
0
 10
17.8777
 20
2.8611
 11
17.9343
 21
2.98302
  0
LINE
  8
0
 10
17.9343
 20
2.98302
 11
18.0059
 21
3.07948
  0
LINE
  8
0
 10
18.0059
 20
3.07948
 11
18.0913
 21
3.14839
  0
LINE
  8
0
 10
18.0913
 20
3.14839
 11
18.1906
 21
3.18973
  0
LINE
  8
0
 10
18.1906
 20
3.18973
 11
18.3036
 21
3.20351
  0
LINE
  8
0
 10
18.3036
 20
3.20351
 11
18.4174
 21
3.18973
  0
LINE
  8
0
 10
18.4174
 20
3.18973
 11
18.5172
 21
3.14839
  0
LINE
  8
0
 10
18.5172
 20
3.14839
 11
18.603
 21
3.07948
  0
LINE
  8
0
 10
18.603
 20
3.07948
 11
18.6747
 21
2.98302
  0
LINE
  8
0
 10
18.6747
 20
2.98302
 11
18.7313
 21
2.8611
  0
LINE
  8
0
 10
18.7313
 20
2.8611
 11
18.7718
 21
2.71582
  0
LINE
  8
0
 10
18.7718
 20
2.71582
 11
18.796
 21
2.54718
  0
LINE
  8
0
 10
18.796
 20
2.54718
 11
18.8041
 21
2.35519
  0
LINE
  8
0
 10
18.8041
 20
2.35519
 11
18.796
 21
2.16414
  0
LINE
  8
0
 10
18.796
 20
2.16414
 11
18.7718
 21
1.99655
  0
LINE
  8
0
 10
18.7718
 20
1.99655
 11
18.7313
 21
1.85243
  0
LINE
  8
0
 10
18.7313
 20
1.85243
 11
18.6747
 21
1.73177
  0
LINE
  8
0
 10
18.6747
 20
1.73177
 11
18.603
 21
1.63647
  0
LINE
  8
0
 10
18.603
 20
1.63647
 11
18.5172
 21
1.56841
  0
LINE
  8
0
 10
18.5172
 20
1.56841
 11
18.4174
 21
1.52756
  0
LINE
  8
0
 10
18.4174
 20
1.52756
 11
18.3036
 21
1.51395
  0
LINE
  8
0
 10
18.3036
 20
1.51395
 11
18.1898
 21
1.52756
  0
LINE
  8
0
 10
22.4887
 20
1.01588
 11
22.5921
 21
1.03598
  0
LINE
  8
0
 10
22.5921
 20
1.03598
 11
22.6833
 21
1.06947
  0
LINE
  8
0
 10
22.6833
 20
1.06947
 11
22.7623
 21
1.11635
  0
LINE
  8
0
 10
22.7623
 20
1.11635
 11
22.8299
 21
1.17163
  0
LINE
  8
0
 10
22.8299
 20
1.17163
 11
22.8872
 21
1.23036
  0
LINE
  8
0
 10
22.8872
 20
1.23036
 11
22.9341
 21
1.29251
  0
LINE
  8
0
 10
22.9341
 20
1.29251
 11
22.9707
 21
1.35809
  0
LINE
  8
0
 10
22.9707
 20
1.35809
 11
22.9935
 21
1.35809
  0
LINE
  8
0
 10
22.9935
 20
1.35809
 11
22.9935
 21
1.03754
  0
LINE
  8
0
 10
22.9935
 20
1.03754
 11
23.6482
 21
1.03754
  0
LINE
  8
0
 10
23.6482
 20
1.03754
 11
23.6482
 21
3.67638
  0
LINE
  8
0
 10
23.6482
 20
3.67638
 11
22.9859
 21
3.67638
  0
LINE
  8
0
 10
22.9859
 20
3.67638
 11
22.9859
 21
2.67751
  0
LINE
  8
0
 10
22.9859
 20
2.67751
 11
22.9707
 21
2.67751
  0
LINE
  8
0
 10
22.9707
 20
2.67751
 11
22.9484
 21
2.7215
  0
LINE
  8
0
 10
22.9484
 20
2.7215
 11
22.9214
 21
2.76495
  0
LINE
  8
0
 10
22.9214
 20
2.76495
 11
22.8898
 21
2.80783
  0
LINE
  8
0
 10
22.8898
 20
2.80783
 11
22.8536
 21
2.85017
  0
LINE
  8
0
 10
22.8536
 20
2.85017
 11
22.8124
 21
2.89037
  0
LINE
  8
0
 10
22.8124
 20
2.89037
 11
22.7658
 21
2.92679
  0
LINE
  8
0
 10
22.7658
 20
2.92679
 11
22.7139
 21
2.95944
  0
LINE
  8
0
 10
22.7139
 20
2.95944
 11
22.6566
 21
2.98833
  0
LINE
  8
0
 10
22.6566
 20
2.98833
 11
22.5936
 21
3.01196
  0
LINE
  8
0
 10
22.5936
 20
3.01196
 11
22.5244
 21
3.02885
  0
LINE
  8
0
 10
22.5244
 20
3.02885
 11
22.4489
 21
3.03897
  0
LINE
  8
0
 10
22.4489
 20
3.03897
 11
22.3673
 21
3.04236
  0
LINE
  8
0
 10
22.3673
 20
3.04236
 11
22.2578
 21
3.03549
  0
LINE
  8
0
 10
22.2578
 20
3.03549
 11
22.152
 21
3.01489
  0
LINE
  8
0
 10
22.152
 20
3.01489
 11
22.0499
 21
2.98058
  0
LINE
  8
0
 10
22.0499
 20
2.98058
 11
21.9515
 21
2.93254
  0
LINE
  8
0
 10
21.9515
 20
2.93254
 11
21.8595
 21
2.87044
  0
LINE
  8
0
 10
21.8595
 20
2.87044
 11
21.7769
 21
2.79395
  0
LINE
  8
0
 10
21.7769
 20
2.79395
 11
21.7035
 21
2.70306
  0
LINE
  8
0
 10
21.7035
 20
2.70306
 11
21.6393
 21
2.59779
  0
LINE
  8
0
 10
21.6393
 20
2.59779
 11
21.5873
 21
2.47771
  0
LINE
  8
0
 10
21.5873
 20
2.47771
 11
21.5501
 21
2.34235
  0
LINE
  8
0
 10
21.5501
 20
2.34235
 11
21.5278
 21
2.1917
  0
LINE
  8
0
 10
21.5278
 20
2.1917
 11
21.5204
 21
2.02577
  0
LINE
  8
0
 10
21.5204
 20
2.02577
 11
21.5275
 21
1.86444
  0
LINE
  8
0
 10
21.5275
 20
1.86444
 11
21.549
 21
1.71695
  0
LINE
  8
0
 10
21.549
 20
1.71695
 11
21.5846
 21
1.5833
  0
LINE
  8
0
 10
21.5846
 20
1.5833
 11
21.6346
 21
1.46347
  0
LINE
  8
0
 10
21.6346
 20
1.46347
 11
21.6967
 21
1.35753
  0
LINE
  8
0
 10
21.6967
 20
1.35753
 11
21.7688
 21
1.26555
  0
LINE
  8
0
 10
21.7688
 20
1.26555
 11
21.8508
 21
1.18752
  0
LINE
  8
0
 10
21.8508
 20
1.18752
 11
21.9429
 21
1.12343
  0
LINE
  8
0
 10
21.9429
 20
1.12343
 11
22.0426
 21
1.07346
  0
LINE
  8
0
 10
22.0426
 20
1.07346
 11
22.1475
 21
1.03775
  0
LINE
  8
0
 10
22.1475
 20
1.03775
 11
22.2577
 21
1.01633
  0
LINE
  8
0
 10
22.2577
 20
1.01633
 11
22.3731
 21
1.0092
  0
LINE
  8
0
 10
22.3731
 20
1.0092
 11
22.4887
 21
1.01588
  0
LINE
  8
0
 10
22.5091
 20
1.50011
 11
22.4299
 21
1.52766
  0
LINE
  8
0
 10
22.4299
 20
1.52766
 11
22.362
 21
1.57361
  0
LINE
  8
0
 10
22.362
 20
1.57361
 11
22.3055
 21
1.63792
  0
LINE
  8
0
 10
22.3055
 20
1.63792
 11
22.2609
 21
1.71729
  0
LINE
  8
0
 10
22.2609
 20
1.71729
 11
22.2291
 21
1.80838
  0
LINE
  8
0
 10
22.2291
 20
1.80838
 11
22.21
 21
1.91121
  0
LINE
  8
0
 10
22.21
 20
1.91121
 11
22.2037
 21
2.02577
  0
LINE
  8
0
 10
22.2037
 20
2.02577
 11
22.21
 21
2.14029
  0
LINE
  8
0
 10
22.21
 20
2.14029
 11
22.2291
 21
2.24295
  0
LINE
  8
0
 10
22.2291
 20
2.24295
 11
22.2609
 21
2.33377
  0
LINE
  8
0
 10
22.2609
 20
2.33377
 11
22.3055
 21
2.41275
  0
LINE
  8
0
 10
22.3055
 20
2.41275
 11
22.362
 21
2.47667
  0
LINE
  8
0
 10
22.362
 20
2.47667
 11
22.4299
 21
2.52232
  0
LINE
  8
0
 10
22.4299
 20
2.52232
 11
22.5091
 21
2.54973
  0
LINE
  8
0
 10
22.5091
 20
2.54973
 11
22.5995
 21
2.55885
  0
LINE
  8
0
 10
22.5995
 20
2.55885
 11
22.6894
 21
2.5499
  0
LINE
  8
0
 10
22.6894
 20
2.5499
 11
22.7687
 21
2.52299
  0
LINE
  8
0
 10
22.7687
 20
2.52299
 11
22.8374
 21
2.47815
  0
LINE
  8
0
 10
22.8374
 20
2.47815
 11
22.8955
 21
2.41539
  0
LINE
  8
0
 10
22.8955
 20
2.41539
 11
22.9417
 21
2.33723
  0
LINE
  8
0
 10
22.9417
 20
2.33723
 11
22.9747
 21
2.24626
  0
LINE
  8
0
 10
22.9747
 20
2.24626
 11
22.9945
 21
2.14244
  0
LINE
  8
0
 10
22.9945
 20
2.14244
 11
23.0011
 21
2.02577
  0
LINE
  8
0
 10
23.0011
 20
2.02577
 11
22.9944
 21
1.91049
  0
LINE
  8
0
 10
22.9944
 20
1.91049
 11
22.9745
 21
1.80727
  0
LINE
  8
0
 10
22.9745
 20
1.80727
 11
22.9412
 21
1.71611
  0
LINE
  8
0
 10
22.9412
 20
1.71611
 11
22.8945
 21
1.63702
  0
LINE
  8
0
 10
22.8945
 20
1.63702
 11
22.8361
 21
1.5731
  0
LINE
  8
0
 10
22.8361
 20
1.5731
 11
22.7675
 21
1.52744
  0
LINE
  8
0
 10
22.7675
 20
1.52744
 11
22.6886
 21
1.50005
  0
LINE
  8
0
 10
22.6886
 20
1.50005
 11
22.5995
 21
1.49091
  0
LINE
  8
0
 10
22.5995
 20
1.49091
 11
22.5091
 21
1.50011
  0
LINE
  8
0
 10
15.5508
 20
3.67638
 11
14.8561
 21
3.67638
  0
LINE
  8
0
 10
14.8561
 20
3.67638
 11
14.2242
 21
3.27258
  0
LINE
  8
0
 10
14.2242
 20
3.27258
 11
14.2242
 21
2.72357
  0
LINE
  8
0
 10
14.2242
 20
2.72357
 11
14.8618
 21
3.13266
  0
LINE
  8
0
 10
14.8618
 20
3.13266
 11
14.8808
 21
3.13266
  0
LINE
  8
0
 10
14.8808
 20
3.13266
 11
14.8808
 21
1.03754
  0
LINE
  8
0
 10
14.8808
 20
1.03754
 11
15.5508
 21
1.03754
  0
LINE
  8
0
 10
15.5508
 20
1.03754
 11
15.5508
 21
3.67638
  0
LINE
  8
0
 10
32.9216
 20
3.67638
 11
32.227
 21
3.67638
  0
LINE
  8
0
 10
32.227
 20
3.67638
 11
31.5951
 21
3.27258
  0
LINE
  8
0
 10
31.5951
 20
3.27258
 11
31.5951
 21
2.72357
  0
LINE
  8
0
 10
31.5951
 20
2.72357
 11
32.2327
 21
3.13266
  0
LINE
  8
0
 10
32.2327
 20
3.13266
 11
32.2517
 21
3.13266
  0
LINE
  8
0
 10
32.2517
 20
3.13266
 11
32.2517
 21
1.03754
  0
LINE
  8
0
 10
32.2517
 20
1.03754
 11
32.9216
 21
1.03754
  0
LINE
  8
0
 10
32.9216
 20
1.03754
 11
32.9216
 21
3.67638
  0
LINE
  8
0
 10
26.3528
 20
1.02171
 11
26.5234
 21
1.08047
  0
LINE
  8
0
 10
26.5234
 20
1.08047
 11
26.6612
 21
1.17844
  0
LINE
  8
0
 10
26.6612
 20
1.17844
 11
26.7661
 21
1.31558
  0
LINE
  8
0
 10
26.7661
 20
1.31558
 11
26.7832
 21
1.31558
  0
LINE
  8
0
 10
26.7832
 20
1.31558
 11
26.7832
 21
1.03754
  0
LINE
  8
0
 10
26.7832
 20
1.03754
 11
27.4075
 21
1.03754
  0
LINE
  8
0
 10
27.4075
 20
1.03754
 11
27.4075
 21
2.38174
  0
LINE
  8
0
 10
27.4075
 20
2.38174
 11
27.3996
 21
2.48396
  0
LINE
  8
0
 10
27.3996
 20
2.48396
 11
27.3758
 21
2.57811
  0
LINE
  8
0
 10
27.3758
 20
2.57811
 11
27.3363
 21
2.66417
  0
LINE
  8
0
 10
27.3363
 20
2.66417
 11
27.2809
 21
2.74214
  0
LINE
  8
0
 10
27.2809
 20
2.74214
 11
27.2122
 21
2.8116
  0
LINE
  8
0
 10
27.2122
 20
2.8116
 11
27.1325
 21
2.87209
  0
LINE
  8
0
 10
27.1325
 20
2.87209
 11
27.0418
 21
2.92361
  0
LINE
  8
0
 10
27.0418
 20
2.92361
 11
26.9402
 21
2.96617
  0
LINE
  8
0
 10
26.9402
 20
2.96617
 11
26.83
 21
2.9995
  0
LINE
  8
0
 10
26.83
 20
2.9995
 11
26.7135
 21
3.02332
  0
LINE
  8
0
 10
26.7135
 20
3.02332
 11
26.5907
 21
3.0376
  0
LINE
  8
0
 10
26.5907
 20
3.0376
 11
26.4616
 21
3.04236
  0
LINE
  8
0
 10
26.4616
 20
3.04236
 11
26.2714
 21
3.03244
  0
LINE
  8
0
 10
26.2714
 20
3.03244
 11
26.1006
 21
3.00273
  0
LINE
  8
0
 10
26.1006
 20
3.00273
 11
25.9493
 21
2.95319
  0
LINE
  8
0
 10
25.9493
 20
2.95319
 11
25.8173
 21
2.88383
  0
LINE
  8
0
 10
25.8173
 20
2.88383
 11
25.7064
 21
2.79866
  0
LINE
  8
0
 10
25.7064
 20
2.79866
 11
25.6182
 21
2.70164
  0
LINE
  8
0
 10
25.6182
 20
2.70164
 11
25.5527
 21
2.59279
  0
LINE
  8
0
 10
25.5527
 20
2.59279
 11
25.5099
 21
2.47208
  0
LINE
  8
0
 10
25.5099
 20
2.47208
 11
26.1114
 21
2.39946
  0
LINE
  8
0
 10
26.1114
 20
2.39946
 11
26.1286
 21
2.44395
  0
LINE
  8
0
 10
26.1286
 20
2.44395
 11
26.1537
 21
2.48357
  0
LINE
  8
0
 10
26.1537
 20
2.48357
 11
26.1867
 21
2.51833
  0
LINE
  8
0
 10
26.1867
 20
2.51833
 11
26.2275
 21
2.5482
  0
LINE
  8
0
 10
26.2275
 20
2.5482
 11
26.2753
 21
2.57224
  0
LINE
  8
0
 10
26.2753
 20
2.57224
 11
26.3293
 21
2.5894
  0
LINE
  8
0
 10
26.3293
 20
2.5894
 11
26.3895
 21
2.59969
  0
LINE
  8
0
 10
26.3895
 20
2.59969
 11
26.4558
 21
2.60313
  0
LINE
  8
0
 10
26.4558
 20
2.60313
 11
26.5198
 21
2.59964
  0
LINE
  8
0
 10
26.5198
 20
2.59964
 11
26.5765
 21
2.58919
  0
LINE
  8
0
 10
26.5765
 20
2.58919
 11
26.6259
 21
2.57175
  0
LINE
  8
0
 10
26.6259
 20
2.57175
 11
26.668
 21
2.54735
  0
LINE
  8
0
 10
26.668
 20
2.54735
 11
26.7018
 21
2.51651
  0
LINE
  8
0
 10
26.7018
 20
2.51651
 11
26.7259
 21
2.47983
  0
LINE
  8
0
 10
26.7259
 20
2.47983
 11
26.7403
 21
2.43726
  0
LINE
  8
0
 10
26.7403
 20
2.43726
 11
26.7451
 21
2.38882
  0
LINE
  8
0
 10
26.7451
 20
2.38882
 11
26.7451
 21
2.38174
  0
LINE
  8
0
 10
26.7451
 20
2.38174
 11
26.7378
 21
2.33952
  0
LINE
  8
0
 10
26.7378
 20
2.33952
 11
26.7159
 21
2.30493
  0
LINE
  8
0
 10
26.7159
 20
2.30493
 11
26.6793
 21
2.27798
  0
LINE
  8
0
 10
26.6793
 20
2.27798
 11
26.6281
 21
2.25867
  0
LINE
  8
0
 10
26.6281
 20
2.25867
 11
26.56
 21
2.24377
  0
LINE
  8
0
 10
26.56
 20
2.24377
 11
26.4727
 21
2.2301
  0
LINE
  8
0
 10
26.4727
 20
2.2301
 11
26.3663
 21
2.21765
  0
LINE
  8
0
 10
26.3663
 20
2.21765
 11
26.2408
 21
2.20641
  0
LINE
  8
0
 10
26.2408
 20
2.20641
 11
26.1355
 21
2.19479
  0
LINE
  8
0
 10
26.1355
 20
2.19479
 11
26.0345
 21
2.17763
  0
LINE
  8
0
 10
26.0345
 20
2.17763
 11
25.938
 21
2.15494
  0
LINE
  8
0
 10
25.938
 20
2.15494
 11
25.8459
 21
2.12671
  0
LINE
  8
0
 10
25.8459
 20
2.12671
 11
25.7604
 21
2.09152
  0
LINE
  8
0
 10
25.7604
 20
2.09152
 11
25.6838
 21
2.04791
  0
LINE
  8
0
 10
25.6838
 20
2.04791
 11
25.6162
 21
1.99588
  0
LINE
  8
0
 10
25.6162
 20
1.99588
 11
25.5575
 21
1.93544
  0
LINE
  8
0
 10
25.5575
 20
1.93544
 11
25.51
 21
1.86516
  0
LINE
  8
0
 10
25.51
 20
1.86516
 11
25.4762
 21
1.78358
  0
LINE
  8
0
 10
25.4762
 20
1.78358
 11
25.4558
 21
1.6907
  0
LINE
  8
0
 10
25.4558
 20
1.6907
 11
25.449
 21
1.58655
  0
LINE
  8
0
 10
25.449
 20
1.58655
 11
25.4613
 21
1.44885
  0
LINE
  8
0
 10
25.4613
 20
1.44885
 11
25.4983
 21
1.32976
  0
LINE
  8
0
 10
25.4983
 20
1.32976
 11
25.5598
 21
1.22926
  0
LINE
  8
0
 10
25.5598
 20
1.22926
 11
25.646
 21
1.14734
  0
LINE
  8
0
 10
25.646
 20
1.14734
 11
25.7514
 21
1.08382
  0
LINE
  8
0
 10
25.7514
 20
1.08382
 11
25.8704
 21
1.03842
  0
LINE
  8
0
 10
25.8704
 20
1.03842
 11
26.0031
 21
1.0112
  0
LINE
  8
0
 10
26.0031
 20
1.0112
 11
26.1494
 21
1.00212
  0
LINE
  8
0
 10
26.1494
 20
1.00212
 11
26.3528
 21
1.02171
  0
LINE
  8
0
 10
26.2939
 20
1.41447
 11
26.242
 21
1.42427
  0
LINE
  8
0
 10
26.242
 20
1.42427
 11
26.1954
 21
1.4406
  0
LINE
  8
0
 10
26.1954
 20
1.4406
 11
26.1542
 21
1.46347
  0
LINE
  8
0
 10
26.1542
 20
1.46347
 11
26.1205
 21
1.49252
  0
LINE
  8
0
 10
26.1205
 20
1.49252
 11
26.0964
 21
1.52745
  0
LINE
  8
0
 10
26.0964
 20
1.52745
 11
26.0819
 21
1.56824
  0
LINE
  8
0
 10
26.0819
 20
1.56824
 11
26.0771
 21
1.61488
  0
LINE
  8
0
 10
26.0771
 20
1.61488
 11
26.0963
 21
1.702
  0
LINE
  8
0
 10
26.0963
 20
1.702
 11
26.1537
 21
1.77029
  0
LINE
  8
0
 10
26.1537
 20
1.77029
 11
26.2495
 21
1.81978
  0
LINE
  8
0
 10
26.2495
 20
1.81978
 11
26.3835
 21
1.85043
  0
LINE
  8
0
 10
26.3835
 20
1.85043
 11
26.4311
 21
1.85785
  0
LINE
  8
0
 10
26.4311
 20
1.85785
 11
26.4806
 21
1.86592
  0
LINE
  8
0
 10
26.4806
 20
1.86592
 11
26.532
 21
1.87466
  0
LINE
  8
0
 10
26.532
 20
1.87466
 11
26.5853
 21
1.88408
  0
LINE
  8
0
 10
26.5853
 20
1.88408
 11
26.6363
 21
1.89438
  0
LINE
  8
0
 10
26.6363
 20
1.89438
 11
26.6809
 21
1.90578
  0
LINE
  8
0
 10
26.6809
 20
1.90578
 11
26.7191
 21
1.91829
  0
LINE
  8
0
 10
26.7191
 20
1.91829
 11
26.7509
 21
1.93192
  0
LINE
  8
0
 10
26.7509
 20
1.93192
 11
26.7509
 21
1.7424
  0
LINE
  8
0
 10
26.7509
 20
1.7424
 11
26.7436
 21
1.67233
  0
LINE
  8
0
 10
26.7436
 20
1.67233
 11
26.7218
 21
1.60912
  0
LINE
  8
0
 10
26.7218
 20
1.60912
 11
26.6855
 21
1.55278
  0
LINE
  8
0
 10
26.6855
 20
1.55278
 11
26.6348
 21
1.5033
  0
LINE
  8
0
 10
26.6348
 20
1.5033
 11
26.5735
 21
1.46301
  0
LINE
  8
0
 10
26.5735
 20
1.46301
 11
26.5058
 21
1.43423
  0
LINE
  8
0
 10
26.5058
 20
1.43423
 11
26.4317
 21
1.41696
  0
LINE
  8
0
 10
26.4317
 20
1.41696
 11
26.3512
 21
1.41121
  0
LINE
  8
0
 10
26.3512
 20
1.41121
 11
26.2939
 21
1.41447
  0
LINE
  8
0
 10
24.6939
 20
2.11786
 11
24.7014
 21
2.20221
  0
LINE
  8
0
 10
24.7014
 20
2.20221
 11
24.7241
 21
2.27814
  0
LINE
  8
0
 10
24.7241
 20
2.27814
 11
24.7618
 21
2.34566
  0
LINE
  8
0
 10
24.7618
 20
2.34566
 11
24.8147
 21
2.40475
  0
LINE
  8
0
 10
24.8147
 20
2.40475
 11
24.8791
 21
2.4528
  0
LINE
  8
0
 10
24.8791
 20
2.4528
 11
24.9515
 21
2.48712
  0
LINE
  8
0
 10
24.9515
 20
2.48712
 11
25.0319
 21
2.50771
  0
LINE
  8
0
 10
25.0319
 20
2.50771
 11
25.1202
 21
2.51457
  0
LINE
  8
0
 10
25.1202
 20
2.51457
 11
25.1516
 21
2.51407
  0
LINE
  8
0
 10
25.1516
 20
2.51407
 11
25.1851
 21
2.51257
  0
LINE
  8
0
 10
25.1851
 20
2.51257
 11
25.2206
 21
2.51009
  0
LINE
  8
0
 10
25.2206
 20
2.51009
 11
25.2581
 21
2.50661
  0
LINE
  8
0
 10
25.2581
 20
2.50661
 11
25.2948
 21
2.50212
  0
LINE
  8
0
 10
25.2948
 20
2.50212
 11
25.3279
 21
2.49664
  0
LINE
  8
0
 10
25.3279
 20
2.49664
 11
25.3572
 21
2.49017
  0
LINE
  8
0
 10
25.3572
 20
2.49017
 11
25.3828
 21
2.48271
  0
LINE
  8
0
 10
25.3828
 20
2.48271
 11
25.3828
 21
3.0211
  0
LINE
  8
0
 10
25.3828
 20
3.0211
 11
25.3368
 21
3.0304
  0
LINE
  8
0
 10
25.3368
 20
3.0304
 11
25.2901
 21
3.03703
  0
LINE
  8
0
 10
25.2901
 20
3.03703
 11
25.2426
 21
3.04103
  0
LINE
  8
0
 10
25.2426
 20
3.04103
 11
25.1944
 21
3.04236
  0
LINE
  8
0
 10
25.1944
 20
3.04236
 11
25.1095
 21
3.03638
  0
LINE
  8
0
 10
25.1095
 20
3.03638
 11
25.03
 21
3.01845
  0
LINE
  8
0
 10
25.03
 20
3.01845
 11
24.9558
 21
2.98856
  0
LINE
  8
0
 10
24.9558
 20
2.98856
 11
24.887
 21
2.94672
  0
LINE
  8
0
 10
24.887
 20
2.94672
 11
24.8256
 21
2.8927
  0
LINE
  8
0
 10
24.8256
 20
2.8927
 11
24.7735
 21
2.82629
  0
LINE
  8
0
 10
24.7735
 20
2.82629
 11
24.7309
 21
2.74748
  0
LINE
  8
0
 10
24.7309
 20
2.74748
 11
24.6977
 21
2.65627
  0
LINE
  8
0
 10
24.6977
 20
2.65627
 11
24.6748
 21
2.65627
  0
LINE
  8
0
 10
24.6748
 20
2.65627
 11
24.6748
 21
3.01755
  0
LINE
  8
0
 10
24.6748
 20
3.01755
 11
24.0296
 21
3.01755
  0
LINE
  8
0
 10
24.0296
 20
3.01755
 11
24.0296
 21
1.03754
  0
LINE
  8
0
 10
24.0296
 20
1.03754
 11
24.6939
 21
1.03754
  0
LINE
  8
0
 10
24.6939
 20
1.03754
 11
24.6939
 21
2.11786
  0
LINE
  8
0
 10
10.5562
 20
3.01755
 11
9.86343
 21
3.01755
  0
LINE
  8
0
 10
9.86343
 20
3.01755
 11
9.5513
 21
2.04878
  0
LINE
  8
0
 10
9.5513
 20
2.04878
 11
9.53
 21
1.98143
  0
LINE
  8
0
 10
9.53
 20
1.98143
 11
9.50989
 21
1.91396
  0
LINE
  8
0
 10
9.50989
 20
1.91396
 11
9.49098
 21
1.84639
  0
LINE
  8
0
 10
9.49098
 20
1.84639
 11
9.47325
 21
1.7787
  0
LINE
  8
0
 10
9.47325
 20
1.7787
 11
9.45636
 21
1.71046
  0
LINE
  8
0
 10
9.45636
 20
1.71046
 11
9.43996
 21
1.64122
  0
LINE
  8
0
 10
9.43996
 20
1.64122
 11
9.42403
 21
1.571
  0
LINE
  8
0
 10
9.42403
 20
1.571
 11
9.40857
 21
1.49977
  0
LINE
  8
0
 10
9.40857
 20
1.49977
 11
9.39137
 21
1.57104
  0
LINE
  8
0
 10
9.39137
 20
1.57104
 11
9.37405
 21
1.64145
  0
LINE
  8
0
 10
9.37405
 20
1.64145
 11
9.35663
 21
1.71095
  0
LINE
  8
0
 10
9.35663
 20
1.71095
 11
9.33908
 21
1.77959
  0
LINE
  8
0
 10
9.33908
 20
1.77959
 11
9.32094
 21
1.84755
  0
LINE
  8
0
 10
9.32094
 20
1.84755
 11
9.30173
 21
1.91507
  0
LINE
  8
0
 10
9.30173
 20
1.91507
 11
9.28145
 21
1.98215
  0
LINE
  8
0
 10
9.28145
 20
1.98215
 11
9.2601
 21
2.04878
  0
LINE
  8
0
 10
9.2601
 20
2.04878
 11
8.94228
 21
3.01755
  0
LINE
  8
0
 10
8.94228
 20
3.01755
 11
8.24187
 21
3.01755
  0
LINE
  8
0
 10
8.24187
 20
3.01755
 11
9.01268
 21
1.03754
  0
LINE
  8
0
 10
9.01268
 20
1.03754
 11
9.7816
 21
1.03754
  0
LINE
  8
0
 10
9.7816
 20
1.03754
 11
10.5562
 21
3.01755
  0
LINE
  8
0
 10
5.6331
 20
0.800262
 11
5.69215
 21
0.801132
  0
LINE
  8
0
 10
5.69215
 20
0.801132
 11
5.75031
 21
0.802719
  0
LINE
  8
0
 10
5.75031
 20
0.802719
 11
5.80759
 21
0.805099
  0
LINE
  8
0
 10
5.80759
 20
0.805099
 11
5.86407
 21
0.808395
  0
LINE
  8
0
 10
5.86407
 20
0.808395
 11
5.91978
 21
0.812698
  0
LINE
  8
0
 10
5.91978
 20
0.812698
 11
5.97481
 21
0.818115
  0
LINE
  8
0
 10
5.97481
 20
0.818115
 11
6.02917
 21
0.824738
  0
LINE
  8
0
 10
6.02917
 20
0.824738
 11
6.08293
 21
0.832657
  0
LINE
  8
0
 10
6.08293
 20
0.832657
 11
6.13612
 21
0.84201
  0
LINE
  8
0
 10
6.13612
 20
0.84201
 11
6.18883
 21
0.852859
  0
LINE
  8
0
 10
6.18883
 20
0.852859
 11
6.24107
 21
0.865341
  0
LINE
  8
0
 10
6.24107
 20
0.865341
 11
6.29291
 21
0.879517
  0
LINE
  8
0
 10
6.29291
 20
0.879517
 11
6.34439
 21
0.895523
  0
LINE
  8
0
 10
6.34439
 20
0.895523
 11
6.39558
 21
0.913437
  0
LINE
  8
0
 10
6.39558
 20
0.913437
 11
6.44652
 21
0.933365
  0
LINE
  8
0
 10
6.44652
 20
0.933365
 11
6.49724
 21
0.955414
  0
LINE
  8
0
 10
6.49724
 20
0.955414
 11
6.54782
 21
0.979691
  0
LINE
  8
0
 10
6.54782
 20
0.979691
 11
6.5983
 21
1.00627
  0
LINE
  8
0
 10
6.5983
 20
1.00627
 11
6.64873
 21
1.03529
  0
LINE
  8
0
 10
6.64873
 20
1.03529
 11
3.89243
 21
2.61511
  0
LINE
  8
0
 10
3.89243
 20
2.61511
 11
1.40503
 21
1.06889
  0
LINE
  8
0
 10
1.40503
 20
1.06889
 11
1.43604
 21
1.0442
  0
LINE
  8
0
 10
1.43604
 20
1.0442
 11
1.46854
 21
1.02052
  0
LINE
  8
0
 10
1.46854
 20
1.02052
 11
1.50249
 21
0.997925
  0
LINE
  8
0
 10
1.50249
 20
0.997925
 11
1.53787
 21
0.976395
  0
LINE
  8
0
 10
1.53787
 20
0.976395
 11
1.57468
 21
0.955978
  0
LINE
  8
0
 10
1.57468
 20
0.955978
 11
1.61287
 21
0.936691
  0
LINE
  8
0
 10
1.61287
 20
0.936691
 11
1.65242
 21
0.918579
  0
LINE
  8
0
 10
1.65242
 20
0.918579
 11
1.6933
 21
0.901642
  0
LINE
  8
0
 10
1.6933
 20
0.901642
 11
1.7355
 21
0.88591
  0
LINE
  8
0
 10
1.7355
 20
0.88591
 11
1.77898
 21
0.871414
  0
LINE
  8
0
 10
1.77898
 20
0.871414
 11
1.82373
 21
0.858185
  0
LINE
  8
0
 10
1.82373
 20
0.858185
 11
1.86971
 21
0.846237
  0
LINE
  8
0
 10
1.86971
 20
0.846237
 11
1.9169
 21
0.835617
  0
LINE
  8
0
 10
1.9169
 20
0.835617
 11
1.96527
 21
0.826309
  0
LINE
  8
0
 10
1.96527
 20
0.826309
 11
2.0148
 21
0.818375
  0
LINE
  8
0
 10
2.0148
 20
0.818375
 11
2.06548
 21
0.811829
  0
LINE
  8
0
 10
2.06548
 20
0.811829
 11
2.11725
 21
0.806686
  0
LINE
  8
0
 10
2.11725
 20
0.806686
 11
2.1701
 21
0.802979
  0
LINE
  8
0
 10
2.1701
 20
0.802979
 11
2.22403
 21
0.800751
  0
LINE
  8
0
 10
2.22403
 20
0.800751
 11
2.27898
 21
0.799988
  0
LINE
  8
0
 10
2.27898
 20
0.799988
 11
5.5731
 21
0.799988
  0
LINE
  8
0
 10
5.5731
 20
0.799988
 11
5.6331
 21
0.800262
  0
LINE
  8
0
 10
21.1619
 20
2.34456
 11
19.8543
 21
2.34456
  0
LINE
  8
0
 10
19.8543
 20
2.34456
 11
19.8543
 21
1.86815
  0
LINE
  8
0
 10
19.8543
 20
1.86815
 11
21.1619
 21
1.86815
  0
LINE
  8
0
 10
21.1619
 20
1.86815
 11
21.1619
 21
2.34456
  0
LINE
  8
0
 10
16.4914
 20
1.00627
 11
16.5584
 21
1.02403
  0
LINE
  8
0
 10
16.5584
 20
1.02403
 11
16.6194
 21
1.05363
  0
LINE
  8
0
 10
16.6194
 20
1.05363
 11
16.6743
 21
1.09509
  0
LINE
  8
0
 10
16.6743
 20
1.09509
 11
16.7196
 21
1.14528
  0
LINE
  8
0
 10
16.7196
 20
1.14528
 11
16.752
 21
1.20113
  0
LINE
  8
0
 10
16.752
 20
1.20113
 11
16.7715
 21
1.26262
  0
LINE
  8
0
 10
16.7715
 20
1.26262
 11
16.778
 21
1.32976
  0
LINE
  8
0
 10
16.778
 20
1.32976
 11
16.7715
 21
1.39766
  0
LINE
  8
0
 10
16.7715
 20
1.39766
 11
16.752
 21
1.4597
  0
LINE
  8
0
 10
16.752
 20
1.4597
 11
16.7196
 21
1.51587
  0
LINE
  8
0
 10
16.7196
 20
1.51587
 11
16.6743
 21
1.56618
  0
LINE
  8
0
 10
16.6743
 20
1.56618
 11
16.6194
 21
1.60764
  0
LINE
  8
0
 10
16.6194
 20
1.60764
 11
16.5584
 21
1.63725
  0
LINE
  8
0
 10
16.5584
 20
1.63725
 11
16.4914
 21
1.65503
  0
LINE
  8
0
 10
16.4914
 20
1.65503
 11
16.4183
 21
1.66095
  0
LINE
  8
0
 10
16.4183
 20
1.66095
 11
16.3452
 21
1.65503
  0
LINE
  8
0
 10
16.3452
 20
1.65503
 11
16.2782
 21
1.63725
  0
LINE
  8
0
 10
16.2782
 20
1.63725
 11
16.2172
 21
1.60764
  0
LINE
  8
0
 10
16.2172
 20
1.60764
 11
16.1623
 21
1.56618
  0
LINE
  8
0
 10
16.1623
 20
1.56618
 11
16.1169
 21
1.51587
  0
LINE
  8
0
 10
16.1169
 20
1.51587
 11
16.0845
 21
1.4597
  0
LINE
  8
0
 10
16.0845
 20
1.4597
 11
16.0651
 21
1.39766
  0
LINE
  8
0
 10
16.0651
 20
1.39766
 11
16.0586
 21
1.32976
  0
LINE
  8
0
 10
16.0586
 20
1.32976
 11
16.0651
 21
1.26262
  0
LINE
  8
0
 10
16.0651
 20
1.26262
 11
16.0845
 21
1.20113
  0
LINE
  8
0
 10
16.0845
 20
1.20113
 11
16.1169
 21
1.14528
  0
LINE
  8
0
 10
16.1169
 20
1.14528
 11
16.1623
 21
1.09509
  0
LINE
  8
0
 10
16.1623
 20
1.09509
 11
16.2172
 21
1.05363
  0
LINE
  8
0
 10
16.2172
 20
1.05363
 11
16.2782
 21
1.02403
  0
LINE
  8
0
 10
16.2782
 20
1.02403
 11
16.3452
 21
1.00627
  0
LINE
  8
0
 10
16.3452
 20
1.00627
 11
16.4183
 21
1.00034
  0
LINE
  8
0
 10
16.4183
 20
1.00034
 11
16.4914
 21
1.00627
  0
LINE
  8
0
 10
31.1895
 20
1.00627
 11
31.2566
 21
1.02403
  0
LINE
  8
0
 10
31.2566
 20
1.02403
 11
31.3175
 21
1.05363
  0
LINE
  8
0
 10
31.3175
 20
1.05363
 11
31.3724
 21
1.09509
  0
LINE
  8
0
 10
31.3724
 20
1.09509
 11
31.4178
 21
1.14528
  0
LINE
  8
0
 10
31.4178
 20
1.14528
 11
31.4502
 21
1.20113
  0
LINE
  8
0
 10
31.4502
 20
1.20113
 11
31.4697
 21
1.26262
  0
LINE
  8
0
 10
31.4697
 20
1.26262
 11
31.4762
 21
1.32976
  0
LINE
  8
0
 10
31.4762
 20
1.32976
 11
31.4697
 21
1.39766
  0
LINE
  8
0
 10
31.4697
 20
1.39766
 11
31.4502
 21
1.4597
  0
LINE
  8
0
 10
31.4502
 20
1.4597
 11
31.4178
 21
1.51587
  0
LINE
  8
0
 10
31.4178
 20
1.51587
 11
31.3724
 21
1.56618
  0
LINE
  8
0
 10
31.3724
 20
1.56618
 11
31.3175
 21
1.60764
  0
LINE
  8
0
 10
31.3175
 20
1.60764
 11
31.2566
 21
1.63725
  0
LINE
  8
0
 10
31.2566
 20
1.63725
 11
31.1895
 21
1.65503
  0
LINE
  8
0
 10
31.1895
 20
1.65503
 11
31.1165
 21
1.66095
  0
LINE
  8
0
 10
31.1165
 20
1.66095
 11
31.0434
 21
1.65503
  0
LINE
  8
0
 10
31.0434
 20
1.65503
 11
30.9763
 21
1.63725
  0
LINE
  8
0
 10
30.9763
 20
1.63725
 11
30.9154
 21
1.60764
  0
LINE
  8
0
 10
30.9154
 20
1.60764
 11
30.8605
 21
1.56618
  0
LINE
  8
0
 10
30.8605
 20
1.56618
 11
30.8151
 21
1.51587
  0
LINE
  8
0
 10
30.8151
 20
1.51587
 11
30.7827
 21
1.4597
  0
LINE
  8
0
 10
30.7827
 20
1.4597
 11
30.7632
 21
1.39766
  0
LINE
  8
0
 10
30.7632
 20
1.39766
 11
30.7567
 21
1.32976
  0
LINE
  8
0
 10
30.7567
 20
1.32976
 11
30.7632
 21
1.26262
  0
LINE
  8
0
 10
30.7632
 20
1.26262
 11
30.7827
 21
1.20113
  0
LINE
  8
0
 10
30.7827
 20
1.20113
 11
30.8151
 21
1.14528
  0
LINE
  8
0
 10
30.8151
 20
1.14528
 11
30.8605
 21
1.09509
  0
LINE
  8
0
 10
30.8605
 20
1.09509
 11
30.9154
 21
1.05363
  0
LINE
  8
0
 10
30.9154
 20
1.05363
 11
30.9763
 21
1.02403
  0
LINE
  8
0
 10
30.9763
 20
1.02403
 11
31.0434
 21
1.00627
  0
LINE
  8
0
 10
31.0434
 20
1.00627
 11
31.1165
 21
1.00034
  0
LINE
  8
0
 10
31.1165
 20
1.00034
 11
31.1895
 21
1.00627
  0
LINE
  8
0
 10
13.8187
 20
1.00627
 11
13.8857
 21
1.02403
  0
LINE
  8
0
 10
13.8857
 20
1.02403
 11
13.9467
 21
1.05363
  0
LINE
  8
0
 10
13.9467
 20
1.05363
 11
14.0016
 21
1.09509
  0
LINE
  8
0
 10
14.0016
 20
1.09509
 11
14.0469
 21
1.14528
  0
LINE
  8
0
 10
14.0469
 20
1.14528
 11
14.0793
 21
1.20113
  0
LINE
  8
0
 10
14.0793
 20
1.20113
 11
14.0988
 21
1.26262
  0
LINE
  8
0
 10
14.0988
 20
1.26262
 11
14.1053
 21
1.32976
  0
LINE
  8
0
 10
14.1053
 20
1.32976
 11
14.0988
 21
1.39766
  0
LINE
  8
0
 10
14.0988
 20
1.39766
 11
14.0793
 21
1.4597
  0
LINE
  8
0
 10
14.0793
 20
1.4597
 11
14.0469
 21
1.51587
  0
LINE
  8
0
 10
14.0469
 20
1.51587
 11
14.0016
 21
1.56618
  0
LINE
  8
0
 10
14.0016
 20
1.56618
 11
13.9467
 21
1.60764
  0
LINE
  8
0
 10
13.9467
 20
1.60764
 11
13.8857
 21
1.63725
  0
LINE
  8
0
 10
13.8857
 20
1.63725
 11
13.8187
 21
1.65503
  0
LINE
  8
0
 10
13.8187
 20
1.65503
 11
13.7456
 21
1.66095
  0
LINE
  8
0
 10
13.7456
 20
1.66095
 11
13.6725
 21
1.65503
  0
LINE
  8
0
 10
13.6725
 20
1.65503
 11
13.6055
 21
1.63725
  0
LINE
  8
0
 10
13.6055
 20
1.63725
 11
13.5445
 21
1.60764
  0
LINE
  8
0
 10
13.5445
 20
1.60764
 11
13.4896
 21
1.56618
  0
LINE
  8
0
 10
13.4896
 20
1.56618
 11
13.4442
 21
1.51587
  0
LINE
  8
0
 10
13.4442
 20
1.51587
 11
13.4118
 21
1.4597
  0
LINE
  8
0
 10
13.4118
 20
1.4597
 11
13.3923
 21
1.39766
  0
LINE
  8
0
 10
13.3923
 20
1.39766
 11
13.3859
 21
1.32976
  0
LINE
  8
0
 10
13.3859
 20
1.32976
 11
13.3923
 21
1.26262
  0
LINE
  8
0
 10
13.3923
 20
1.26262
 11
13.4118
 21
1.20113
  0
LINE
  8
0
 10
13.4118
 20
1.20113
 11
13.4442
 21
1.14528
  0
LINE
  8
0
 10
13.4442
 20
1.14528
 11
13.4896
 21
1.09509
  0
LINE
  8
0
 10
13.4896
 20
1.09509
 11
13.5445
 21
1.05363
  0
LINE
  8
0
 10
13.5445
 20
1.05363
 11
13.6055
 21
1.02403
  0
LINE
  8
0
 10
13.6055
 20
1.02403
 11
13.6725
 21
1.00627
  0
LINE
  8
0
 10
13.6725
 20
1.00627
 11
13.7456
 21
1.00034
  0
LINE
  8
0
 10
13.7456
 20
1.00034
 11
13.8187
 21
1.00627
  0
ENDSEC
  0
SECTION
  2
OBJECTS
  0
DICTIONARY
  0
ENDSEC
  0
EOF
