ISO-10303-21;
HEADER;
FILE_DESCRIPTION(('Open CASCADE Model'),'2;1');
FILE_NAME('Open CASCADE Shape Model','2026-08-06T23:18:51',('Author'),(
    'Open CASCADE'),'Open CASCADE STEP processor 7.9','Open CASCADE 7.9'
  ,'Unknown');
FILE_SCHEMA(('AUTOMOTIVE_DESIGN { 1 0 10303 214 1 1 1 1 }'));
ENDSEC;
DATA;
#1 = APPLICATION_PROTOCOL_DEFINITION('international standard',
  'automotive_design',2000,#2);
#2 = APPLICATION_CONTEXT(
  'core data for automotive mechanical design processes');
#3 = SHAPE_DEFINITION_REPRESENTATION(#4,#10);
#4 = PRODUCT_DEFINITION_SHAPE('','',#5);
#5 = PRODUCT_DEFINITION('design','',#6,#9);
#6 = PRODUCT_DEFINITION_FORMATION('','',#7);
#7 = PRODUCT('Open CASCADE STEP translator 7.9 2',
  'Open CASCADE STEP translator 7.9 2','',(#8));
#8 = PRODUCT_CONTEXT('',#2,'mechanical');
#9 = PRODUCT_DEFINITION_CONTEXT('part definition',#2,'design');
#10 = ADVANCED_BREP_SHAPE_REPRESENTATION('',(#11,#15),#502);
#11 = AXIS2_PLACEMENT_3D('',#12,#13,#14);
#12 = CARTESIAN_POINT('',(0.,0.,0.));
#13 = DIRECTION('',(0.,0.,1.));
#14 = DIRECTION('',(1.,0.,-0.));
#15 = MANIFOLD_SOLID_BREP('',#16);
#16 = CLOSED_SHELL('',(#17,#105,#144,#148,#437,#494,#498));
#17 = ADVANCED_FACE('',(#18),#32,.T.);
#18 = FACE_BOUND('',#19,.F.);
#19 = EDGE_LOOP('',(#20,#50,#77,#78));
#20 = ORIENTED_EDGE('',*,*,#21,.T.);
#21 = EDGE_CURVE('',#22,#24,#26,.T.);
#22 = VERTEX_POINT('',#23);
#23 = CARTESIAN_POINT('',(26.75,0.,85.3));
#24 = VERTEX_POINT('',#25);
#25 = CARTESIAN_POINT('',(26.75,-1.044623719673E-14,0.));
#26 = SEAM_CURVE('',#27,(#31,#43),.PCURVE_S1.);
#27 = LINE('',#28,#29);
#28 = CARTESIAN_POINT('',(26.75,0.,85.3));
#29 = VECTOR('',#30,1.);
#30 = DIRECTION('',(0.,-1.224646799147E-16,-1.));
#31 = PCURVE('',#32,#37);
#32 = CYLINDRICAL_SURFACE('',#33,26.75);
#33 = AXIS2_PLACEMENT_3D('',#34,#35,#36);
#34 = CARTESIAN_POINT('',(0.,0.,85.3));
#35 = DIRECTION('',(-0.,1.224646799147E-16,1.));
#36 = DIRECTION('',(1.,0.,0.));
#37 = DEFINITIONAL_REPRESENTATION('',(#38),#42);
#38 = LINE('',#39,#40);
#39 = CARTESIAN_POINT('',(-0.,0.));
#40 = VECTOR('',#41,1.);
#41 = DIRECTION('',(-0.,-1.));
#42 = ( GEOMETRIC_REPRESENTATION_CONTEXT(2) 
PARAMETRIC_REPRESENTATION_CONTEXT() REPRESENTATION_CONTEXT('2D SPACE',''
  ) );
#43 = PCURVE('',#32,#44);
#44 = DEFINITIONAL_REPRESENTATION('',(#45),#49);
#45 = LINE('',#46,#47);
#46 = CARTESIAN_POINT('',(-6.28318530718,0.));
#47 = VECTOR('',#48,1.);
#48 = DIRECTION('',(-0.,-1.));
#49 = ( GEOMETRIC_REPRESENTATION_CONTEXT(2) 
PARAMETRIC_REPRESENTATION_CONTEXT() REPRESENTATION_CONTEXT('2D SPACE',''
  ) );
#50 = ORIENTED_EDGE('',*,*,#51,.T.);
#51 = EDGE_CURVE('',#24,#24,#52,.T.);
#52 = SURFACE_CURVE('',#53,(#58,#65),.PCURVE_S1.);
#53 = CIRCLE('',#54,26.75);
#54 = AXIS2_PLACEMENT_3D('',#55,#56,#57);
#55 = CARTESIAN_POINT('',(0.,-1.044623719673E-14,0.));
#56 = DIRECTION('',(0.,-1.224646799147E-16,-1.));
#57 = DIRECTION('',(1.,0.,0.));
#58 = PCURVE('',#32,#59);
#59 = DEFINITIONAL_REPRESENTATION('',(#60),#64);
#60 = LINE('',#61,#62);
#61 = CARTESIAN_POINT('',(-0.,-85.3));
#62 = VECTOR('',#63,1.);
#63 = DIRECTION('',(-1.,0.));
#64 = ( GEOMETRIC_REPRESENTATION_CONTEXT(2) 
PARAMETRIC_REPRESENTATION_CONTEXT() REPRESENTATION_CONTEXT('2D SPACE',''
  ) );
#65 = PCURVE('',#66,#71);
#66 = PLANE('',#67);
#67 = AXIS2_PLACEMENT_3D('',#68,#69,#70);
#68 = CARTESIAN_POINT('',(-1.635816233318E-15,-1.262589293412E-14,0.));
#69 = DIRECTION('',(0.,-1.224646799147E-16,-1.));
#70 = DIRECTION('',(1.,0.,0.));
#71 = DEFINITIONAL_REPRESENTATION('',(#72),#76);
#72 = CIRCLE('',#73,26.75);
#73 = AXIS2_PLACEMENT_2D('',#74,#75);
#74 = CARTESIAN_POINT('',(1.635816233318E-15,-2.179655737397E-15));
#75 = DIRECTION('',(1.,0.));
#76 = ( GEOMETRIC_REPRESENTATION_CONTEXT(2) 
PARAMETRIC_REPRESENTATION_CONTEXT() REPRESENTATION_CONTEXT('2D SPACE',''
  ) );
#77 = ORIENTED_EDGE('',*,*,#21,.F.);
#78 = ORIENTED_EDGE('',*,*,#79,.F.);
#79 = EDGE_CURVE('',#22,#22,#80,.T.);
#80 = SURFACE_CURVE('',#81,(#86,#93),.PCURVE_S1.);
#81 = CIRCLE('',#82,26.75);
#82 = AXIS2_PLACEMENT_3D('',#83,#84,#85);
#83 = CARTESIAN_POINT('',(0.,0.,85.3));
#84 = DIRECTION('',(0.,-1.224646799147E-16,-1.));
#85 = DIRECTION('',(1.,0.,0.));
#86 = PCURVE('',#32,#87);
#87 = DEFINITIONAL_REPRESENTATION('',(#88),#92);
#88 = LINE('',#89,#90);
#89 = CARTESIAN_POINT('',(-0.,0.));
#90 = VECTOR('',#91,1.);
#91 = DIRECTION('',(-1.,0.));
#92 = ( GEOMETRIC_REPRESENTATION_CONTEXT(2) 
PARAMETRIC_REPRESENTATION_CONTEXT() REPRESENTATION_CONTEXT('2D SPACE',''
  ) );
#93 = PCURVE('',#94,#99);
#94 = PLANE('',#95);
#95 = AXIS2_PLACEMENT_3D('',#96,#97,#98);
#96 = CARTESIAN_POINT('',(-1.635816233318E-15,-2.179655737397E-15,85.3)
  );
#97 = DIRECTION('',(0.,-1.224646799147E-16,-1.));
#98 = DIRECTION('',(1.,0.,0.));
#99 = DEFINITIONAL_REPRESENTATION('',(#100),#104);
#100 = CIRCLE('',#101,26.75);
#101 = AXIS2_PLACEMENT_2D('',#102,#103);
#102 = CARTESIAN_POINT('',(1.635816233318E-15,-2.179655737397E-15));
#103 = DIRECTION('',(1.,0.));
#104 = ( GEOMETRIC_REPRESENTATION_CONTEXT(2) 
PARAMETRIC_REPRESENTATION_CONTEXT() REPRESENTATION_CONTEXT('2D SPACE',''
  ) );
#105 = ADVANCED_FACE('',(#106,#109),#94,.F.);
#106 = FACE_BOUND('',#107,.F.);
#107 = EDGE_LOOP('',(#108));
#108 = ORIENTED_EDGE('',*,*,#79,.T.);
#109 = FACE_BOUND('',#110,.F.);
#110 = EDGE_LOOP('',(#111));
#111 = ORIENTED_EDGE('',*,*,#112,.T.);
#112 = EDGE_CURVE('',#113,#113,#115,.T.);
#113 = VERTEX_POINT('',#114);
#114 = CARTESIAN_POINT('',(23.55,0.,85.3));
#115 = SURFACE_CURVE('',#116,(#121,#132),.PCURVE_S1.);
#116 = CIRCLE('',#117,23.55);
#117 = AXIS2_PLACEMENT_3D('',#118,#119,#120);
#118 = CARTESIAN_POINT('',(0.,0.,85.3));
#119 = DIRECTION('',(-0.,1.224646799147E-16,1.));
#120 = DIRECTION('',(1.,0.,0.));
#121 = PCURVE('',#94,#122);
#122 = DEFINITIONAL_REPRESENTATION('',(#123),#131);
#123 = ( BOUNDED_CURVE() B_SPLINE_CURVE(2,(#124,#125,#126,#127,#128,#129
,#130),.UNSPECIFIED.,.T.,.F.) B_SPLINE_CURVE_WITH_KNOTS((1,2,2,2,2,1),(
    -2.094395102393,0.,2.094395102393,4.188790204786,6.28318530718,
8.377580409573),.UNSPECIFIED.) CURVE() GEOMETRIC_REPRESENTATION_ITEM() 
RATIONAL_B_SPLINE_CURVE((1.,0.5,1.,0.5,1.,0.5,1.)) REPRESENTATION_ITEM(
  '') );
#124 = CARTESIAN_POINT('',(23.55,-2.179655737397E-15));
#125 = CARTESIAN_POINT('',(23.55,-40.78979651824));
#126 = CARTESIAN_POINT('',(-11.775,-20.39489825912));
#127 = CARTESIAN_POINT('',(-47.1,-7.947742161381E-15));
#128 = CARTESIAN_POINT('',(-11.775,20.394898259124));
#129 = CARTESIAN_POINT('',(23.55,40.789796518247));
#130 = CARTESIAN_POINT('',(23.55,-2.179655737397E-15));
#131 = ( GEOMETRIC_REPRESENTATION_CONTEXT(2) 
PARAMETRIC_REPRESENTATION_CONTEXT() REPRESENTATION_CONTEXT('2D SPACE',''
  ) );
#132 = PCURVE('',#133,#138);
#133 = CYLINDRICAL_SURFACE('',#134,23.55);
#134 = AXIS2_PLACEMENT_3D('',#135,#136,#137);
#135 = CARTESIAN_POINT('',(0.,6.123233995737E-18,85.35));
#136 = DIRECTION('',(-0.,1.224646799147E-16,1.));
#137 = DIRECTION('',(1.,0.,0.));
#138 = DEFINITIONAL_REPRESENTATION('',(#139),#143);
#139 = LINE('',#140,#141);
#140 = CARTESIAN_POINT('',(-6.28318530718,-5.E-02));
#141 = VECTOR('',#142,1.);
#142 = DIRECTION('',(1.,-0.));
#143 = ( GEOMETRIC_REPRESENTATION_CONTEXT(2) 
PARAMETRIC_REPRESENTATION_CONTEXT() REPRESENTATION_CONTEXT('2D SPACE',''
  ) );
#144 = ADVANCED_FACE('',(#145),#66,.T.);
#145 = FACE_BOUND('',#146,.T.);
#146 = EDGE_LOOP('',(#147));
#147 = ORIENTED_EDGE('',*,*,#51,.T.);
#148 = ADVANCED_FACE('',(#149),#133,.F.);
#149 = FACE_BOUND('',#150,.T.);
#150 = EDGE_LOOP('',(#151,#174,#175,#176,#222,#278,#301,#328,#329));
#151 = ORIENTED_EDGE('',*,*,#152,.F.);
#152 = EDGE_CURVE('',#113,#153,#155,.T.);
#153 = VERTEX_POINT('',#154);
#154 = CARTESIAN_POINT('',(23.55,-6.766173565289E-16,79.775));
#155 = SEAM_CURVE('',#156,(#160,#167),.PCURVE_S1.);
#156 = LINE('',#157,#158);
#157 = CARTESIAN_POINT('',(23.55,6.123233995737E-18,85.35));
#158 = VECTOR('',#159,1.);
#159 = DIRECTION('',(0.,-1.224646799147E-16,-1.));
#160 = PCURVE('',#133,#161);
#161 = DEFINITIONAL_REPRESENTATION('',(#162),#166);
#162 = LINE('',#163,#164);
#163 = CARTESIAN_POINT('',(-6.28318530718,0.));
#164 = VECTOR('',#165,1.);
#165 = DIRECTION('',(-0.,-1.));
#166 = ( GEOMETRIC_REPRESENTATION_CONTEXT(2) 
PARAMETRIC_REPRESENTATION_CONTEXT() REPRESENTATION_CONTEXT('2D SPACE',''
  ) );
#167 = PCURVE('',#133,#168);
#168 = DEFINITIONAL_REPRESENTATION('',(#169),#173);
#169 = LINE('',#170,#171);
#170 = CARTESIAN_POINT('',(-0.,0.));
#171 = VECTOR('',#172,1.);
#172 = DIRECTION('',(-0.,-1.));
#173 = ( GEOMETRIC_REPRESENTATION_CONTEXT(2) 
PARAMETRIC_REPRESENTATION_CONTEXT() REPRESENTATION_CONTEXT('2D SPACE',''
  ) );
#174 = ORIENTED_EDGE('',*,*,#112,.T.);
#175 = ORIENTED_EDGE('',*,*,#152,.T.);
#176 = ORIENTED_EDGE('',*,*,#177,.T.);
#177 = EDGE_CURVE('',#153,#178,#180,.T.);
#178 = VERTEX_POINT('',#179);
#179 = CARTESIAN_POINT('',(23.533739078183,-0.875,78.9));
#180 = SURFACE_CURVE('',#181,(#191,#204),.PCURVE_S1.);
#181 = B_SPLINE_CURVE_WITH_KNOTS('',8,(#182,#183,#184,#185,#186,#187,
    #188,#189,#190),.UNSPECIFIED.,.F.,.F.,(9,9),(0.,1.),
  .PIECEWISE_BEZIER_KNOTS.);
#182 = CARTESIAN_POINT('',(23.55,-2.15056214481E-15,79.775));
#183 = CARTESIAN_POINT('',(23.55,-0.194499842706,79.775));
#184 = CARTESIAN_POINT('',(23.548164203868,-0.379578770828,
    79.725588718032));
#185 = CARTESIAN_POINT('',(23.544803316586,-0.542973817348,
    79.635145475017));
#186 = CARTESIAN_POINT('',(23.54085708905,-0.677148488946,
    79.513293925716));
#187 = CARTESIAN_POINT('',(23.537354996996,-0.777755976474,
    79.369932849349));
#188 = CARTESIAN_POINT('',(23.534912195809,-0.843446599429,
    79.214489634427));
#189 = CARTESIAN_POINT('',(23.533739078183,-0.875,79.055430490511));
#190 = CARTESIAN_POINT('',(23.533739078183,-0.875,78.9));
#191 = PCURVE('',#133,#192);
#192 = DEFINITIONAL_REPRESENTATION('',(#193),#203);
#193 = B_SPLINE_CURVE_WITH_KNOTS('',8,(#194,#195,#196,#197,#198,#199,
    #200,#201,#202),.UNSPECIFIED.,.F.,.F.,(9,9),(0.,1.),
  .PIECEWISE_BEZIER_KNOTS.);
#194 = CARTESIAN_POINT('',(0.,-5.575));
#195 = CARTESIAN_POINT('',(-8.2590166754E-03,-5.575));
#196 = CARTESIAN_POINT('',(-1.611799621173E-02,-5.624411281967));
#197 = CARTESIAN_POINT('',(-2.305706234278E-02,-5.714854524984));
#198 = CARTESIAN_POINT('',(-2.875676387571E-02,-5.836706074284));
#199 = CARTESIAN_POINT('',(-3.30314373375E-02,-5.980067150651));
#200 = CARTESIAN_POINT('',(-3.582276935663E-02,-6.135510365573));
#201 = CARTESIAN_POINT('',(-3.716354340122E-02,-6.294569509489));
#202 = CARTESIAN_POINT('',(-3.716354340122E-02,-6.45));
#203 = ( GEOMETRIC_REPRESENTATION_CONTEXT(2) 
PARAMETRIC_REPRESENTATION_CONTEXT() REPRESENTATION_CONTEXT('2D SPACE',''
  ) );
#204 = PCURVE('',#205,#210);
#205 = CYLINDRICAL_SURFACE('',#206,0.875);
#206 = AXIS2_PLACEMENT_3D('',#207,#208,#209);
#207 = CARTESIAN_POINT('',(22.2,-7.837739514543E-16,78.9));
#208 = DIRECTION('',(-1.,0.,0.));
#209 = DIRECTION('',(0.,-1.,1.224646799147E-16));
#210 = DEFINITIONAL_REPRESENTATION('',(#211),#221);
#211 = B_SPLINE_CURVE_WITH_KNOTS('',8,(#212,#213,#214,#215,#216,#217,
    #218,#219,#220),.UNSPECIFIED.,.F.,.F.,(9,9),(0.,1.),
  .PIECEWISE_BEZIER_KNOTS.);
#212 = CARTESIAN_POINT('',(-4.712388980385,-1.35));
#213 = CARTESIAN_POINT('',(-4.934674514905,-1.35));
#214 = CARTESIAN_POINT('',(-5.146194910319,-1.348164203868));
#215 = CARTESIAN_POINT('',(-5.349658043428,-1.344803316586));
#216 = CARTESIAN_POINT('',(-5.546438646695,-1.34085708905));
#217 = CARTESIAN_POINT('',(-5.737578077189,-1.337354996996));
#218 = CARTESIAN_POINT('',(-5.923768578922,-1.334912195809));
#219 = CARTESIAN_POINT('',(-6.105550460881,-1.333739078183));
#220 = CARTESIAN_POINT('',(-6.28318530718,-1.333739078183));
#221 = ( GEOMETRIC_REPRESENTATION_CONTEXT(2) 
PARAMETRIC_REPRESENTATION_CONTEXT() REPRESENTATION_CONTEXT('2D SPACE',''
  ) );
#222 = ORIENTED_EDGE('',*,*,#223,.T.);
#223 = EDGE_CURVE('',#178,#224,#226,.T.);
#224 = VERTEX_POINT('',#225);
#225 = CARTESIAN_POINT('',(23.55,-8.909305463797E-16,78.025));
#226 = SURFACE_CURVE('',#227,(#242,#260),.PCURVE_S1.);
#227 = B_SPLINE_CURVE_WITH_KNOTS('',7,(#228,#229,#230,#231,#232,#233,
    #234,#235,#236,#237,#238,#239,#240,#241),.UNSPECIFIED.,.F.,.F.,(8,6,
    8),(0.,0.609198976538,1.),.UNSPECIFIED.);
#228 = CARTESIAN_POINT('',(23.533739078183,-0.875,78.9));
#229 = CARTESIAN_POINT('',(23.533739078183,-0.875,78.790419058882));
#230 = CARTESIAN_POINT('',(23.534334342453,-0.858989420894,
    78.680617712451));
#231 = CARTESIAN_POINT('',(23.535529338569,-0.826851880699,78.5726594951
    ));
#232 = CARTESIAN_POINT('',(23.537260499539,-0.778435955398,
    78.468747296115));
#233 = CARTESIAN_POINT('',(23.539390412426,-0.713695392938,
    78.371376197468));
#234 = CARTESIAN_POINT('',(23.541695276643,-0.632768265741,
    78.283447729915));
#235 = CARTESIAN_POINT('',(23.545302542856,-0.474405239028,
    78.160608774786));
#236 = CARTESIAN_POINT('',(23.546673636584,-0.405872042677,
    78.117800729161));
#237 = CARTESIAN_POINT('',(23.547916004982,-0.331451690504,
    78.081761224487));
#238 = CARTESIAN_POINT('',(23.548932055498,-0.252249135406,
    78.053737873843));
#239 = CARTESIAN_POINT('',(23.549642055041,-0.169607166375,
    78.034635760976));
#240 = CARTESIAN_POINT('',(23.55,-8.501000390401E-02,78.025));
#241 = CARTESIAN_POINT('',(23.55,-1.802032407274E-15,78.025));
#242 = PCURVE('',#133,#243);
#243 = DEFINITIONAL_REPRESENTATION('',(#244),#259);
#244 = B_SPLINE_CURVE_WITH_KNOTS('',7,(#245,#246,#247,#248,#249,#250,
    #251,#252,#253,#254,#255,#256,#257,#258),.UNSPECIFIED.,.F.,.F.,(8,6,
    8),(0.,0.609198976538,1.),.UNSPECIFIED.);
#245 = CARTESIAN_POINT('',(-3.716354340122E-02,-6.45));
#246 = CARTESIAN_POINT('',(-3.716354340122E-02,-6.559580941118));
#247 = CARTESIAN_POINT('',(-3.648321883862E-02,-6.669382287549));
#248 = CARTESIAN_POINT('',(-3.511762488574E-02,-6.7773405049));
#249 = CARTESIAN_POINT('',(-3.306043391134E-02,-6.881252703885));
#250 = CARTESIAN_POINT('',(-3.030990572501E-02,-6.978623802532));
#251 = CARTESIAN_POINT('',(-2.687217215839E-02,-7.066552270085));
#252 = CARTESIAN_POINT('',(-2.014588318285E-02,-7.189391225214));
#253 = CARTESIAN_POINT('',(-1.723519739086E-02,-7.232199270839));
#254 = CARTESIAN_POINT('',(-1.407468639577E-02,-7.268238775513));
#255 = CARTESIAN_POINT('',(-1.071129235851E-02,-7.296262126158));
#256 = CARTESIAN_POINT('',(-7.20200294112E-03,-7.315364239024));
#257 = CARTESIAN_POINT('',(-3.609766620128E-03,-7.325));
#258 = CARTESIAN_POINT('',(0.,-7.325));
#259 = ( GEOMETRIC_REPRESENTATION_CONTEXT(2) 
PARAMETRIC_REPRESENTATION_CONTEXT() REPRESENTATION_CONTEXT('2D SPACE',''
  ) );
#260 = PCURVE('',#205,#261);
#261 = DEFINITIONAL_REPRESENTATION('',(#262),#277);
#262 = B_SPLINE_CURVE_WITH_KNOTS('',7,(#263,#264,#265,#266,#267,#268,
    #269,#270,#271,#272,#273,#274,#275,#276),.UNSPECIFIED.,.F.,.F.,(8,6,
    8),(0.,0.609198976538,1.),.UNSPECIFIED.);
#263 = CARTESIAN_POINT('',(0.,-1.333739078183));
#264 = CARTESIAN_POINT('',(-0.125235361278,-1.333739078183));
#265 = CARTESIAN_POINT('',(-0.250722337225,-1.334334342453));
#266 = CARTESIAN_POINT('',(-0.377312598078,-1.335529338569));
#267 = CARTESIAN_POINT('',(-0.505749401374,-1.337260499539));
#268 = CARTESIAN_POINT('',(-0.636852643179,-1.339390412426));
#269 = CARTESIAN_POINT('',(-0.771523833464,-1.341695276643));
#270 = CARTESIAN_POINT('',(-1.000575492201,-1.345302542856));
#271 = CARTESIAN_POINT('',(-1.092448470828,-1.346673636584));
#272 = CARTESIAN_POINT('',(-1.186069784731,-1.347916004982));
#273 = CARTESIAN_POINT('',(-1.281012870048,-1.348932055498));
#274 = CARTESIAN_POINT('',(-1.376959867959,-1.349642055041));
#275 = CARTESIAN_POINT('',(-1.473642036619,-1.35));
#276 = CARTESIAN_POINT('',(-1.570796326795,-1.35));
#277 = ( GEOMETRIC_REPRESENTATION_CONTEXT(2) 
PARAMETRIC_REPRESENTATION_CONTEXT() REPRESENTATION_CONTEXT('2D SPACE',''
  ) );
#278 = ORIENTED_EDGE('',*,*,#279,.T.);
#279 = EDGE_CURVE('',#224,#280,#282,.T.);
#280 = VERTEX_POINT('',#281);
#281 = CARTESIAN_POINT('',(23.55,-1.015232196493E-14,2.4));
#282 = SEAM_CURVE('',#283,(#287,#294),.PCURVE_S1.);
#283 = LINE('',#284,#285);
#284 = CARTESIAN_POINT('',(23.55,6.123233995737E-18,85.35));
#285 = VECTOR('',#286,1.);
#286 = DIRECTION('',(0.,-1.224646799147E-16,-1.));
#287 = PCURVE('',#133,#288);
#288 = DEFINITIONAL_REPRESENTATION('',(#289),#293);
#289 = LINE('',#290,#291);
#290 = CARTESIAN_POINT('',(-6.28318530718,0.));
#291 = VECTOR('',#292,1.);
#292 = DIRECTION('',(-0.,-1.));
#293 = ( GEOMETRIC_REPRESENTATION_CONTEXT(2) 
PARAMETRIC_REPRESENTATION_CONTEXT() REPRESENTATION_CONTEXT('2D SPACE',''
  ) );
#294 = PCURVE('',#133,#295);
#295 = DEFINITIONAL_REPRESENTATION('',(#296),#300);
#296 = LINE('',#297,#298);
#297 = CARTESIAN_POINT('',(-0.,0.));
#298 = VECTOR('',#299,1.);
#299 = DIRECTION('',(-0.,-1.));
#300 = ( GEOMETRIC_REPRESENTATION_CONTEXT(2) 
PARAMETRIC_REPRESENTATION_CONTEXT() REPRESENTATION_CONTEXT('2D SPACE',''
  ) );
#301 = ORIENTED_EDGE('',*,*,#302,.T.);
#302 = EDGE_CURVE('',#280,#280,#303,.T.);
#303 = SURFACE_CURVE('',#304,(#309,#316),.PCURVE_S1.);
#304 = CIRCLE('',#305,23.55);
#305 = AXIS2_PLACEMENT_3D('',#306,#307,#308);
#306 = CARTESIAN_POINT('',(0.,-1.015232196493E-14,2.4));
#307 = DIRECTION('',(0.,-1.224646799147E-16,-1.));
#308 = DIRECTION('',(1.,0.,0.));
#309 = PCURVE('',#133,#310);
#310 = DEFINITIONAL_REPRESENTATION('',(#311),#315);
#311 = LINE('',#312,#313);
#312 = CARTESIAN_POINT('',(-0.,-82.95));
#313 = VECTOR('',#314,1.);
#314 = DIRECTION('',(-1.,0.));
#315 = ( GEOMETRIC_REPRESENTATION_CONTEXT(2) 
PARAMETRIC_REPRESENTATION_CONTEXT() REPRESENTATION_CONTEXT('2D SPACE',''
  ) );
#316 = PCURVE('',#317,#322);
#317 = PLANE('',#318);
#318 = AXIS2_PLACEMENT_3D('',#319,#320,#321);
#319 = CARTESIAN_POINT('',(-1.393569561824E-15,-1.10490669767E-14,2.4));
#320 = DIRECTION('',(0.,-1.224646799147E-16,-1.));
#321 = DIRECTION('',(1.,0.,0.));
#322 = DEFINITIONAL_REPRESENTATION('',(#323),#327);
#323 = CIRCLE('',#324,23.55);
#324 = AXIS2_PLACEMENT_2D('',#325,#326);
#325 = CARTESIAN_POINT('',(1.393569561824E-15,-8.967450117675E-16));
#326 = DIRECTION('',(1.,0.));
#327 = ( GEOMETRIC_REPRESENTATION_CONTEXT(2) 
PARAMETRIC_REPRESENTATION_CONTEXT() REPRESENTATION_CONTEXT('2D SPACE',''
  ) );
#328 = ORIENTED_EDGE('',*,*,#279,.F.);
#329 = ORIENTED_EDGE('',*,*,#330,.T.);
#330 = EDGE_CURVE('',#224,#153,#331,.T.);
#331 = SURFACE_CURVE('',#332,(#365,#401),.PCURVE_S1.);
#332 = B_SPLINE_CURVE_WITH_KNOTS('',7,(#333,#334,#335,#336,#337,#338,
    #339,#340,#341,#342,#343,#344,#345,#346,#347,#348,#349,#350,#351,
    #352,#353,#354,#355,#356,#357,#358,#359,#360,#361,#362,#363,#364),
  .UNSPECIFIED.,.F.,.F.,(8,6,6,6,6,8),(0.,0.195775043827,0.349180001448,
    0.500416899353,0.804738258769,1.),.UNSPECIFIED.);
#333 = CARTESIAN_POINT('',(23.55,1.107470897946E-15,78.025));
#334 = CARTESIAN_POINT('',(23.55,8.504436041768E-02,78.025));
#335 = CARTESIAN_POINT('',(23.549641772209,0.169646221473,
    78.034643567601));
#336 = CARTESIAN_POINT('',(23.548931639357,0.252273252497,
    78.053749061934));
#337 = CARTESIAN_POINT('',(23.547915824963,0.331453748769,
    78.081766911794));
#338 = CARTESIAN_POINT('',(23.546673877377,0.405857169847,78.11779493787
    ));
#339 = CARTESIAN_POINT('',(23.545302933123,0.474388105889,
    78.160595484961));
#340 = CARTESIAN_POINT('',(23.542787885968,0.584801492718,
    78.246240886869));
#341 = CARTESIAN_POINT('',(23.541654102762,0.629452017127,
    78.287234698107));
#342 = CARTESIAN_POINT('',(23.54052790073,0.670120213196,78.331132800662
    ));
#343 = CARTESIAN_POINT('',(23.53944219593,0.706719511117,78.37750052918)
  );
#344 = CARTESIAN_POINT('',(23.538425595274,0.739197442318,
    78.425928851357));
#345 = CARTESIAN_POINT('',(23.537501602136,0.767531278541,
    78.476031669134));
#346 = CARTESIAN_POINT('',(23.535885542895,0.815574154172,
    78.578127976799));
#347 = CARTESIAN_POINT('',(23.535189903323,0.835415316569,
    78.630117975439));
#348 = CARTESIAN_POINT('',(23.534617397732,0.851264220415,
    78.683119771527));
#349 = CARTESIAN_POINT('',(23.534180154686,0.863136812785,
    78.736860413658));
#350 = CARTESIAN_POINT('',(23.533886093047,0.871046046314,
    78.791082972089));
#351 = CARTESIAN_POINT('',(23.533739078183,0.875,78.845542167543));
#352 = CARTESIAN_POINT('',(23.533739078183,0.875,79.009580941118));
#353 = CARTESIAN_POINT('',(23.534334342453,0.858989420894,
    79.119382287549));
#354 = CARTESIAN_POINT('',(23.535529338569,0.826851880699,79.2273405049)
  );
#355 = CARTESIAN_POINT('',(23.537260499539,0.778435955398,
    79.331252703885));
#356 = CARTESIAN_POINT('',(23.539390412426,0.713695392938,
    79.428623802532));
#357 = CARTESIAN_POINT('',(23.541695276643,0.632768265741,
    79.516552270085));
#358 = CARTESIAN_POINT('',(23.545302829167,0.474392669647,
    79.639400975026));
#359 = CARTESIAN_POINT('',(23.546673803993,0.405861554593,
    79.682203196581));
#360 = CARTESIAN_POINT('',(23.547915860914,0.331453913537,
    79.718234290191));
#361 = CARTESIAN_POINT('',(23.548931746886,0.25226738842,79.746253861785
    ));
#362 = CARTESIAN_POINT('',(23.549641852773,0.169635823166,
    79.765358616413));
#363 = CARTESIAN_POINT('',(23.55,8.503471924872E-02,79.775));
#364 = CARTESIAN_POINT('',(23.55,7.666725754838E-16,79.775));
#365 = PCURVE('',#133,#366);
#366 = DEFINITIONAL_REPRESENTATION('',(#367),#400);
#367 = B_SPLINE_CURVE_WITH_KNOTS('',7,(#368,#369,#370,#371,#372,#373,
    #374,#375,#376,#377,#378,#379,#380,#381,#382,#383,#384,#385,#386,
    #387,#388,#389,#390,#391,#392,#393,#394,#395,#396,#397,#398,#399),
  .UNSPECIFIED.,.F.,.F.,(8,6,6,6,6,8),(0.,0.195775043827,0.349180001448,
    0.500416899353,0.804738258769,1.),.UNSPECIFIED.);
#368 = CARTESIAN_POINT('',(-6.28318530718,-7.325));
#369 = CARTESIAN_POINT('',(-6.279574081684,-7.325));
#370 = CARTESIAN_POINT('',(-6.275981645842,-7.3153564324));
#371 = CARTESIAN_POINT('',(-6.27247299064,-7.296250938066));
#372 = CARTESIAN_POINT('',(-6.269110533281,-7.268233088206));
#373 = CARTESIAN_POINT('',(-6.265950741384,-7.23220506213));
#374 = CARTESIAN_POINT('',(-6.263040151707,-7.189404515039));
#375 = CARTESIAN_POINT('',(-6.258350469008,-7.103759113131));
#376 = CARTESIAN_POINT('',(-6.256453876019,-7.062765301893));
#377 = CARTESIAN_POINT('',(-6.254726333251,-7.018867199338));
#378 = CARTESIAN_POINT('',(-6.253171543529,-6.97249947082));
#379 = CARTESIAN_POINT('',(-6.251791764664,-6.924071148643));
#380 = CARTESIAN_POINT('',(-6.250587990439,-6.873968330866));
#381 = CARTESIAN_POINT('',(-6.248546799427,-6.771872023201));
#382 = CARTESIAN_POINT('',(-6.247703770327,-6.719882024561));
#383 = CARTESIAN_POINT('',(-6.247030342377,-6.666880228473));
#384 = CARTESIAN_POINT('',(-6.246525856589,-6.613139586342));
#385 = CARTESIAN_POINT('',(-6.246189775837,-6.558917027911));
#386 = CARTESIAN_POINT('',(-6.246021763778,-6.504457832457));
#387 = CARTESIAN_POINT('',(-6.246021763778,-6.340419058882));
#388 = CARTESIAN_POINT('',(-6.246702088341,-6.230617712451));
#389 = CARTESIAN_POINT('',(-6.248067682294,-6.1226594951));
#390 = CARTESIAN_POINT('',(-6.250124873268,-6.018747296115));
#391 = CARTESIAN_POINT('',(-6.252875401455,-5.921376197468));
#392 = CARTESIAN_POINT('',(-6.256313135021,-5.833447729915));
#393 = CARTESIAN_POINT('',(-6.263039957867,-5.710599024974));
#394 = CARTESIAN_POINT('',(-6.265950555176,-5.667796803419));
#395 = CARTESIAN_POINT('',(-6.26911052631,-5.631765709809));
#396 = CARTESIAN_POINT('',(-6.272473239673,-5.603746138215));
#397 = CARTESIAN_POINT('',(-6.275982087385,-5.584641383587));
#398 = CARTESIAN_POINT('',(-6.279574491076,-5.575));
#399 = CARTESIAN_POINT('',(-6.28318530718,-5.575));
#400 = ( GEOMETRIC_REPRESENTATION_CONTEXT(2) 
PARAMETRIC_REPRESENTATION_CONTEXT() REPRESENTATION_CONTEXT('2D SPACE',''
  ) );
#401 = PCURVE('',#205,#402);
#402 = DEFINITIONAL_REPRESENTATION('',(#403),#436);
#403 = B_SPLINE_CURVE_WITH_KNOTS('',7,(#404,#405,#406,#407,#408,#409,
    #410,#411,#412,#413,#414,#415,#416,#417,#418,#419,#420,#421,#422,
    #423,#424,#425,#426,#427,#428,#429,#430,#431,#432,#433,#434,#435),
  .UNSPECIFIED.,.F.,.F.,(8,6,6,6,6,8),(0.,0.195775043827,0.349180001448,
    0.500416899353,0.804738258769,1.),.UNSPECIFIED.);
#404 = CARTESIAN_POINT('',(-1.570796326795,-1.35));
#405 = CARTESIAN_POINT('',(-1.667989881558,-1.35));
#406 = CARTESIAN_POINT('',(-1.764677394715,-1.349641772209));
#407 = CARTESIAN_POINT('',(-1.860609160091,-1.348931639357));
#408 = CARTESIAN_POINT('',(-1.955527777934,-1.347915824963));
#409 = CARTESIAN_POINT('',(-2.049126664236,-1.346673877377));
#410 = CARTESIAN_POINT('',(-2.140992380517,-1.345302933123));
#411 = CARTESIAN_POINT('',(-2.300691079921,-1.342787885968));
#412 = CARTESIAN_POINT('',(-2.369727249675,-1.341654102762));
#413 = CARTESIAN_POINT('',(-2.437764224809,-1.34052790073));
#414 = CARTESIAN_POINT('',(-2.504904885888,-1.33944219593));
#415 = CARTESIAN_POINT('',(-2.571235903289,-1.338425595274));
#416 = CARTESIAN_POINT('',(-2.636833577945,-1.337501602136));
#417 = CARTESIAN_POINT('',(-2.765788049582,-1.335885542895));
#418 = CARTESIAN_POINT('',(-2.829205202566,-1.335189903323));
#419 = CARTESIAN_POINT('',(-2.892154111496,-1.334617397732));
#420 = CARTESIAN_POINT('',(-2.95475364655,-1.334180154686));
#421 = CARTESIAN_POINT('',(-3.017116170364,-1.333886093047));
#422 = CARTESIAN_POINT('',(-3.079355130781,-1.333739078183));
#423 = CARTESIAN_POINT('',(-3.266828014868,-1.333739078183));
#424 = CARTESIAN_POINT('',(-3.392314990814,-1.334334342453));
#425 = CARTESIAN_POINT('',(-3.518905251668,-1.335529338569));
#426 = CARTESIAN_POINT('',(-3.647342054964,-1.337260499539));
#427 = CARTESIAN_POINT('',(-3.778445296769,-1.339390412426));
#428 = CARTESIAN_POINT('',(-3.913116487054,-1.341695276643));
#429 = CARTESIAN_POINT('',(-4.142186325777,-1.345302829167));
#430 = CARTESIAN_POINT('',(-4.234053369412,-1.346673803993));
#431 = CARTESIAN_POINT('',(-4.327657971863,-1.347915860914));
#432 = CARTESIAN_POINT('',(-4.422583357474,-1.348931746886));
#433 = CARTESIAN_POINT('',(-4.51851979167,-1.349641852773));
#434 = CARTESIAN_POINT('',(-4.6152064441,-1.35));
#435 = CARTESIAN_POINT('',(-4.712388980385,-1.35));
#436 = ( GEOMETRIC_REPRESENTATION_CONTEXT(2) 
PARAMETRIC_REPRESENTATION_CONTEXT() REPRESENTATION_CONTEXT('2D SPACE',''
  ) );
#437 = ADVANCED_FACE('',(#438),#205,.T.);
#438 = FACE_BOUND('',#439,.F.);
#439 = EDGE_LOOP('',(#440,#469,#490,#491,#492,#493));
#440 = ORIENTED_EDGE('',*,*,#441,.F.);
#441 = EDGE_CURVE('',#442,#442,#444,.T.);
#442 = VERTEX_POINT('',#443);
#443 = CARTESIAN_POINT('',(22.2,-0.875,78.9));
#444 = SURFACE_CURVE('',#445,(#450,#457),.PCURVE_S1.);
#445 = CIRCLE('',#446,0.875);
#446 = AXIS2_PLACEMENT_3D('',#447,#448,#449);
#447 = CARTESIAN_POINT('',(22.2,-7.837739514543E-16,78.9));
#448 = DIRECTION('',(1.,0.,0.));
#449 = DIRECTION('',(0.,-1.,1.224646799147E-16));
#450 = PCURVE('',#205,#451);
#451 = DEFINITIONAL_REPRESENTATION('',(#452),#456);
#452 = LINE('',#453,#454);
#453 = CARTESIAN_POINT('',(-0.,0.));
#454 = VECTOR('',#455,1.);
#455 = DIRECTION('',(-1.,0.));
#456 = ( GEOMETRIC_REPRESENTATION_CONTEXT(2) 
PARAMETRIC_REPRESENTATION_CONTEXT() REPRESENTATION_CONTEXT('2D SPACE',''
  ) );
#457 = PCURVE('',#458,#463);
#458 = PLANE('',#459);
#459 = AXIS2_PLACEMENT_3D('',#460,#461,#462);
#460 = CARTESIAN_POINT('',(22.2,-7.59355377659E-16,78.9));
#461 = DIRECTION('',(1.,0.,0.));
#462 = DIRECTION('',(0.,-1.224646799147E-16,-1.));
#463 = DEFINITIONAL_REPRESENTATION('',(#464),#468);
#464 = CIRCLE('',#465,0.875);
#465 = AXIS2_PLACEMENT_2D('',#466,#467);
#466 = CARTESIAN_POINT('',(2.990412823821E-33,-2.441857379535E-17));
#467 = DIRECTION('',(0.,-1.));
#468 = ( GEOMETRIC_REPRESENTATION_CONTEXT(2) 
PARAMETRIC_REPRESENTATION_CONTEXT() REPRESENTATION_CONTEXT('2D SPACE',''
  ) );
#469 = ORIENTED_EDGE('',*,*,#470,.T.);
#470 = EDGE_CURVE('',#442,#178,#471,.T.);
#471 = SEAM_CURVE('',#472,(#476,#483),.PCURVE_S1.);
#472 = LINE('',#473,#474);
#473 = CARTESIAN_POINT('',(22.2,-0.875,78.9));
#474 = VECTOR('',#475,1.);
#475 = DIRECTION('',(1.,0.,0.));
#476 = PCURVE('',#205,#477);
#477 = DEFINITIONAL_REPRESENTATION('',(#478),#482);
#478 = LINE('',#479,#480);
#479 = CARTESIAN_POINT('',(-6.28318530718,0.));
#480 = VECTOR('',#481,1.);
#481 = DIRECTION('',(-0.,-1.));
#482 = ( GEOMETRIC_REPRESENTATION_CONTEXT(2) 
PARAMETRIC_REPRESENTATION_CONTEXT() REPRESENTATION_CONTEXT('2D SPACE',''
  ) );
#483 = PCURVE('',#205,#484);
#484 = DEFINITIONAL_REPRESENTATION('',(#485),#489);
#485 = LINE('',#486,#487);
#486 = CARTESIAN_POINT('',(-0.,0.));
#487 = VECTOR('',#488,1.);
#488 = DIRECTION('',(-0.,-1.));
#489 = ( GEOMETRIC_REPRESENTATION_CONTEXT(2) 
PARAMETRIC_REPRESENTATION_CONTEXT() REPRESENTATION_CONTEXT('2D SPACE',''
  ) );
#490 = ORIENTED_EDGE('',*,*,#223,.T.);
#491 = ORIENTED_EDGE('',*,*,#330,.T.);
#492 = ORIENTED_EDGE('',*,*,#177,.T.);
#493 = ORIENTED_EDGE('',*,*,#470,.F.);
#494 = ADVANCED_FACE('',(#495),#317,.F.);
#495 = FACE_BOUND('',#496,.F.);
#496 = EDGE_LOOP('',(#497));
#497 = ORIENTED_EDGE('',*,*,#302,.T.);
#498 = ADVANCED_FACE('',(#499),#458,.F.);
#499 = FACE_BOUND('',#500,.F.);
#500 = EDGE_LOOP('',(#501));
#501 = ORIENTED_EDGE('',*,*,#441,.T.);
#502 = ( GEOMETRIC_REPRESENTATION_CONTEXT(3) 
GLOBAL_UNCERTAINTY_ASSIGNED_CONTEXT((#506)) GLOBAL_UNIT_ASSIGNED_CONTEXT
((#503,#504,#505)) REPRESENTATION_CONTEXT('Context #1',
  '3D Context with UNIT and UNCERTAINTY') );
#503 = ( LENGTH_UNIT() NAMED_UNIT(*) SI_UNIT(.MILLI.,.METRE.) );
#504 = ( NAMED_UNIT(*) PLANE_ANGLE_UNIT() SI_UNIT($,.RADIAN.) );
#505 = ( NAMED_UNIT(*) SI_UNIT($,.STERADIAN.) SOLID_ANGLE_UNIT() );
#506 = UNCERTAINTY_MEASURE_WITH_UNIT(LENGTH_MEASURE(1.E-07),#503,
  'distance_accuracy_value','confusion accuracy');
#507 = PRODUCT_RELATED_PRODUCT_CATEGORY('part',$,(#7));
ENDSEC;
END-ISO-10303-21;
