  0
SECTION
  2
BLOCKS
  0
ENDSEC
  0
SECTION
  2
ENTITIES
  0
LINE
  8
0
 10
5.08235
 20
3.81175
 11
5.08235
 21
8.65881
  0
LINE
  8
0
 10
5.08235
 20
8.65881
 11
9.45882
 21
11.4823
  0
LINE
  8
0
 10
9.45882
 20
11.4823
 11
9.40869
 21
11.5307
  0
LINE
  8
0
 10
9.40869
 20
11.5307
 11
9.35716
 21
11.5769
  0
LINE
  8
0
 10
9.35716
 20
11.5769
 11
9.30423
 21
11.6209
  0
LINE
  8
0
 10
9.30423
 20
11.6209
 11
9.24988
 21
11.6627
  0
LINE
  8
0
 10
9.24988
 20
11.6627
 11
9.19411
 21
11.7022
  0
LINE
  8
0
 10
9.19411
 20
11.7022
 11
9.13693
 21
11.7394
  0
LINE
  8
0
 10
9.13693
 20
11.7394
 11
9.07834
 21
11.7743
  0
LINE
  8
0
 10
9.07834
 20
11.7743
 11
9.01834
 21
11.8069
  0
LINE
  8
0
 10
9.01834
 20
11.8069
 11
8.95694
 21
11.837
  0
LINE
  8
0
 10
8.95694
 20
11.837
 11
8.8941
 21
11.8647
  0
LINE
  8
0
 10
8.8941
 20
11.8647
 11
8.82988
 21
11.8899
  0
LINE
  8
0
 10
8.82988
 20
11.8899
 11
8.76422
 21
11.9127
  0
LINE
  8
0
 10
8.76422
 20
11.9127
 11
8.69717
 21
11.9328
  0
LINE
  8
0
 10
8.69717
 20
11.9328
 11
8.62869
 21
11.9504
  0
LINE
  8
0
 10
8.62869
 20
11.9504
 11
8.55882
 21
11.9654
  0
LINE
  8
0
 10
8.55882
 20
11.9654
 11
8.48752
 21
11.9778
  0
LINE
  8
0
 10
8.48752
 20
11.9778
 11
8.41481
 21
11.9874
  0
LINE
  8
0
 10
8.41481
 20
11.9874
 11
8.3407
 21
11.9944
  0
LINE
  8
0
 10
8.3407
 20
11.9944
 11
8.26517
 21
11.9986
  0
LINE
  8
0
 10
8.26517
 20
11.9986
 11
8.18823
 21
12
  0
LINE
  8
0
 10
8.18823
 20
12
 11
3.67058
 21
12
  0
LINE
  8
0
 10
3.67058
 20
12
 11
3.43317
 21
11.9906
  0
LINE
  8
0
 10
3.43317
 20
11.9906
 11
3.2014
 21
11.9628
  0
LINE
  8
0
 10
3.2014
 20
11.9628
 11
2.976
 21
11.9173
  0
LINE
  8
0
 10
2.976
 20
11.9173
 11
2.75764
 21
11.8547
  0
LINE
  8
0
 10
2.75764
 20
11.8547
 11
2.54706
 21
11.7757
  0
LINE
  8
0
 10
2.54706
 20
11.7757
 11
2.34494
 21
11.6811
  0
LINE
  8
0
 10
2.34494
 20
11.6811
 11
2.15199
 21
11.5714
  0
LINE
  8
0
 10
2.15199
 20
11.5714
 11
1.96893
 21
11.4473
  0
LINE
  8
0
 10
1.96893
 20
11.4473
 11
1.79646
 21
11.3096
  0
LINE
  8
0
 10
1.79646
 20
11.3096
 11
1.63528
 21
11.1588
  0
LINE
  8
0
 10
1.63528
 20
11.1588
 11
1.48611
 21
10.9957
  0
LINE
  8
0
 10
1.48611
 20
10.9957
 11
1.34964
 21
10.8209
  0
LINE
  8
0
 10
1.34964
 20
10.8209
 11
1.22658
 21
10.6351
  0
LINE
  8
0
 10
1.22658
 20
10.6351
 11
1.11765
 21
10.4389
  0
LINE
  8
0
 10
1.11765
 20
10.4389
 11
1.02353
 21
10.2331
  0
LINE
  8
0
 10
1.02353
 20
10.2331
 11
0.944931
 21
10.0182
  0
LINE
  8
0
 10
0.944931
 20
10.0182
 11
0.882584
 21
9.79509
  0
LINE
  8
0
 10
0.882584
 20
9.79509
 11
0.837173
 21
9.56427
  0
LINE
  8
0
 10
0.837173
 20
9.56427
 11
0.809402
 21
9.32646
  0
LINE
  8
0
 10
0.809402
 20
9.32646
 11
0.799988
 21
9.08235
  0
LINE
  8
0
 10
0.799988
 20
9.08235
 11
0.799988
 21
3.05882
  0
LINE
  8
0
 10
0.799988
 20
3.05882
 11
0.800705
 21
2.97447
  0
LINE
  8
0
 10
0.800705
 20
2.97447
 11
0.802917
 21
2.89091
  0
LINE
  8
0
 10
0.802917
 20
2.89091
 11
0.806656
 21
2.8082
  0
LINE
  8
0
 10
0.806656
 20
2.8082
 11
0.812042
 21
2.72639
  0
LINE
  8
0
 10
0.812042
 20
2.72639
 11
0.819107
 21
2.64558
  0
LINE
  8
0
 10
0.819107
 20
2.64558
 11
0.827942
 21
2.56583
  0
LINE
  8
0
 10
0.827942
 20
2.56583
 11
0.838623
 21
2.4872
  0
LINE
  8
0
 10
0.838623
 20
2.4872
 11
0.851196
 21
2.40977
  0
LINE
  8
0
 10
0.851196
 20
2.40977
 11
0.865738
 21
2.33363
  0
LINE
  8
0
 10
0.865738
 20
2.33363
 11
0.882339
 21
2.25882
  0
LINE
  8
0
 10
0.882339
 20
2.25882
 11
0.901062
 21
2.18541
  0
LINE
  8
0
 10
0.901062
 20
2.18541
 11
0.921967
 21
2.11349
  0
LINE
  8
0
 10
0.921967
 20
2.11349
 11
0.945129
 21
2.04314
  0
LINE
  8
0
 10
0.945129
 20
2.04314
 11
0.970627
 21
1.9744
  0
LINE
  8
0
 10
0.970627
 20
1.9744
 11
0.99852
 21
1.90735
  0
LINE
  8
0
 10
0.99852
 20
1.90735
 11
1.02888
 21
1.84206
  0
LINE
  8
0
 10
1.02888
 20
1.84206
 11
1.0618
 21
1.77861
  0
LINE
  8
0
 10
1.0618
 20
1.77861
 11
1.09731
 21
1.71707
  0
LINE
  8
0
 10
1.09731
 20
1.71707
 11
1.13551
 21
1.65752
  0
LINE
  8
0
 10
1.13551
 20
1.65752
 11
1.17647
 21
1.59999
  0
LINE
  8
0
 10
1.17647
 20
1.59999
 11
5.08235
 21
3.81175
  0
LINE
  8
0
 10
25.1934
 20
10.8884
 11
25.287
 21
10.9135
  0
LINE
  8
0
 10
25.287
 20
10.9135
 11
25.3729
 21
10.9555
  0
LINE
  8
0
 10
25.3729
 20
10.9555
 11
25.451
 21
11.0142
  0
LINE
  8
0
 10
25.451
 20
11.0142
 11
25.5161
 21
11.0849
  0
LINE
  8
0
 10
25.5161
 20
11.0849
 11
25.5625
 21
11.1628
  0
LINE
  8
0
 10
25.5625
 20
11.1628
 11
25.5904
 21
11.248
  0
LINE
  8
0
 10
25.5904
 20
11.248
 11
25.5997
 21
11.3403
  0
LINE
  8
0
 10
25.5997
 20
11.3403
 11
25.5904
 21
11.4326
  0
LINE
  8
0
 10
25.5904
 20
11.4326
 11
25.5625
 21
11.5177
  0
LINE
  8
0
 10
25.5625
 20
11.5177
 11
25.5161
 21
11.5956
  0
LINE
  8
0
 10
25.5161
 20
11.5956
 11
25.451
 21
11.6663
  0
LINE
  8
0
 10
25.451
 20
11.6663
 11
25.3729
 21
11.725
  0
LINE
  8
0
 10
25.3729
 20
11.725
 11
25.287
 21
11.767
  0
LINE
  8
0
 10
25.287
 20
11.767
 11
25.1934
 21
11.7921
  0
LINE
  8
0
 10
25.1934
 20
11.7921
 11
25.0921
 21
11.8005
  0
LINE
  8
0
 10
25.0921
 20
11.8005
 11
24.992
 21
11.7921
  0
LINE
  8
0
 10
24.992
 20
11.7921
 11
24.8992
 21
11.767
  0
LINE
  8
0
 10
24.8992
 20
11.767
 11
24.8138
 21
11.725
  0
LINE
  8
0
 10
24.8138
 20
11.725
 11
24.7358
 21
11.6663
  0
LINE
  8
0
 10
24.7358
 20
11.6663
 11
24.6708
 21
11.5956
  0
LINE
  8
0
 10
24.6708
 20
11.5956
 11
24.6244
 21
11.5177
  0
LINE
  8
0
 10
24.6244
 20
11.5177
 11
24.5965
 21
11.4326
  0
LINE
  8
0
 10
24.5965
 20
11.4326
 11
24.5872
 21
11.3403
  0
LINE
  8
0
 10
24.5872
 20
11.3403
 11
24.5965
 21
11.248
  0
LINE
  8
0
 10
24.5965
 20
11.248
 11
24.6244
 21
11.1628
  0
LINE
  8
0
 10
24.6244
 20
11.1628
 11
24.6708
 21
11.0849
  0
LINE
  8
0
 10
24.6708
 20
11.0849
 11
24.7358
 21
11.0142
  0
LINE
  8
0
 10
24.7358
 20
11.0142
 11
24.8138
 21
10.9555
  0
LINE
  8
0
 10
24.8138
 20
10.9555
 11
24.8992
 21
10.9135
  0
LINE
  8
0
 10
24.8992
 20
10.9135
 11
24.992
 21
10.8884
  0
LINE
  8
0
 10
24.992
 20
10.8884
 11
25.0921
 21
10.88
  0
LINE
  8
0
 10
25.0921
 20
10.88
 11
25.1934
 21
10.8884
  0
LINE
  8
0
 10
36.0913
 20
7.42459
 11
36.2437
 21
7.45567
  0
LINE
  8
0
 10
36.2437
 20
7.45567
 11
36.3781
 21
7.50746
  0
LINE
  8
0
 10
36.3781
 20
7.50746
 11
36.4944
 21
7.57999
  0
LINE
  8
0
 10
36.4944
 20
7.57999
 11
36.594
 21
7.66551
  0
LINE
  8
0
 10
36.594
 20
7.66551
 11
36.6784
 21
7.75635
  0
LINE
  8
0
 10
36.6784
 20
7.75635
 11
36.7476
 21
7.85251
  0
LINE
  8
0
 10
36.7476
 20
7.85251
 11
36.8015
 21
7.95396
  0
LINE
  8
0
 10
36.8015
 20
7.95396
 11
36.8352
 21
7.95396
  0
LINE
  8
0
 10
36.8352
 20
7.95396
 11
36.8352
 21
7.45805
  0
LINE
  8
0
 10
36.8352
 20
7.45805
 11
37.8
 21
7.45805
  0
LINE
  8
0
 10
37.8
 20
7.45805
 11
37.8
 21
11.5402
  0
LINE
  8
0
 10
37.8
 20
11.5402
 11
36.8239
 21
11.5402
  0
LINE
  8
0
 10
36.8239
 20
11.5402
 11
36.8239
 21
9.99503
  0
LINE
  8
0
 10
36.8239
 20
9.99503
 11
36.8015
 21
9.99503
  0
LINE
  8
0
 10
36.8015
 20
9.99503
 11
36.7686
 21
10.0631
  0
LINE
  8
0
 10
36.7686
 20
10.0631
 11
36.7289
 21
10.1303
  0
LINE
  8
0
 10
36.7289
 20
10.1303
 11
36.6824
 21
10.1967
  0
LINE
  8
0
 10
36.6824
 20
10.1967
 11
36.629
 21
10.2621
  0
LINE
  8
0
 10
36.629
 20
10.2621
 11
36.5683
 21
10.3243
  0
LINE
  8
0
 10
36.5683
 20
10.3243
 11
36.4996
 21
10.3807
  0
LINE
  8
0
 10
36.4996
 20
10.3807
 11
36.4231
 21
10.4312
  0
LINE
  8
0
 10
36.4231
 20
10.4312
 11
36.3387
 21
10.4759
  0
LINE
  8
0
 10
36.3387
 20
10.4759
 11
36.2458
 21
10.5124
  0
LINE
  8
0
 10
36.2458
 20
10.5124
 11
36.1438
 21
10.5385
  0
LINE
  8
0
 10
36.1438
 20
10.5385
 11
36.0326
 21
10.5542
  0
LINE
  8
0
 10
36.0326
 20
10.5542
 11
35.9124
 21
10.5594
  0
LINE
  8
0
 10
35.9124
 20
10.5594
 11
35.751
 21
10.5488
  0
LINE
  8
0
 10
35.751
 20
10.5488
 11
35.5951
 21
10.517
  0
LINE
  8
0
 10
35.5951
 20
10.517
 11
35.4446
 21
10.4639
  0
LINE
  8
0
 10
35.4446
 20
10.4639
 11
35.2996
 21
10.3896
  0
LINE
  8
0
 10
35.2996
 20
10.3896
 11
35.164
 21
10.2935
  0
LINE
  8
0
 10
35.164
 20
10.2935
 11
35.0422
 21
10.1752
  0
LINE
  8
0
 10
35.0422
 20
10.1752
 11
34.9341
 21
10.0346
  0
LINE
  8
0
 10
34.9341
 20
10.0346
 11
34.8396
 21
9.87173
  0
LINE
  8
0
 10
34.8396
 20
9.87173
 11
34.7629
 21
9.68596
  0
LINE
  8
0
 10
34.7629
 20
9.68596
 11
34.7081
 21
9.47655
  0
LINE
  8
0
 10
34.7081
 20
9.47655
 11
34.6752
 21
9.24352
  0
LINE
  8
0
 10
34.6752
 20
9.24352
 11
34.6643
 21
8.98683
  0
LINE
  8
0
 10
34.6643
 20
8.98683
 11
34.6748
 21
8.73727
  0
LINE
  8
0
 10
34.6748
 20
8.73727
 11
34.7064
 21
8.50909
  0
LINE
  8
0
 10
34.7064
 20
8.50909
 11
34.759
 21
8.30234
  0
LINE
  8
0
 10
34.759
 20
8.30234
 11
34.8326
 21
8.11697
  0
LINE
  8
0
 10
34.8326
 20
8.11697
 11
34.9241
 21
7.95309
  0
LINE
  8
0
 10
34.9241
 20
7.95309
 11
35.0303
 21
7.81079
  0
LINE
  8
0
 10
35.0303
 20
7.81079
 11
35.1513
 21
7.69008
  0
LINE
  8
0
 10
35.1513
 20
7.69008
 11
35.2869
 21
7.59093
  0
LINE
  8
0
 10
35.2869
 20
7.59093
 11
35.4338
 21
7.51363
  0
LINE
  8
0
 10
35.4338
 20
7.51363
 11
35.5884
 21
7.4584
  0
LINE
  8
0
 10
35.5884
 20
7.4584
 11
35.7508
 21
7.42528
  0
LINE
  8
0
 10
35.7508
 20
7.42528
 11
35.9208
 21
7.41423
  0
LINE
  8
0
 10
35.9208
 20
7.41423
 11
36.0913
 21
7.42459
  0
LINE
  8
0
 10
36.1213
 20
8.17365
 11
36.0046
 21
8.21628
  0
LINE
  8
0
 10
36.0046
 20
8.21628
 11
35.9046
 21
8.28734
  0
LINE
  8
0
 10
35.9046
 20
8.28734
 11
35.8212
 21
8.38684
  0
LINE
  8
0
 10
35.8212
 20
8.38684
 11
35.7556
 21
8.50961
  0
LINE
  8
0
 10
35.7556
 20
8.50961
 11
35.7087
 21
8.65053
  0
LINE
  8
0
 10
35.7087
 20
8.65053
 11
35.6806
 21
8.80962
  0
LINE
  8
0
 10
35.6806
 20
8.80962
 11
35.6712
 21
8.98683
  0
LINE
  8
0
 10
35.6712
 20
8.98683
 11
35.6806
 21
9.16397
  0
LINE
  8
0
 10
35.6806
 20
9.16397
 11
35.7087
 21
9.32278
  0
LINE
  8
0
 10
35.7087
 20
9.32278
 11
35.7556
 21
9.46329
  0
LINE
  8
0
 10
35.7556
 20
9.46329
 11
35.8212
 21
9.58546
  0
LINE
  8
0
 10
35.8212
 20
9.58546
 11
35.9046
 21
9.68436
  0
LINE
  8
0
 10
35.9046
 20
9.68436
 11
36.0046
 21
9.75499
  0
LINE
  8
0
 10
36.0046
 20
9.75499
 11
36.1213
 21
9.79738
  0
LINE
  8
0
 10
36.1213
 20
9.79738
 11
36.2546
 21
9.81149
  0
LINE
  8
0
 10
36.2546
 20
9.81149
 11
36.387
 21
9.79762
  0
LINE
  8
0
 10
36.387
 20
9.79762
 11
36.5039
 21
9.75601
  0
LINE
  8
0
 10
36.5039
 20
9.75601
 11
36.6051
 21
9.68665
  0
LINE
  8
0
 10
36.6051
 20
9.68665
 11
36.6907
 21
9.58955
  0
LINE
  8
0
 10
36.6907
 20
9.58955
 11
36.7588
 21
9.46866
  0
LINE
  8
0
 10
36.7588
 20
9.46866
 11
36.8074
 21
9.32791
  0
LINE
  8
0
 10
36.8074
 20
9.32791
 11
36.8366
 21
9.16731
  0
LINE
  8
0
 10
36.8366
 20
9.16731
 11
36.8464
 21
8.98683
  0
LINE
  8
0
 10
36.8464
 20
8.98683
 11
36.8365
 21
8.8085
  0
LINE
  8
0
 10
36.8365
 20
8.8085
 11
36.8071
 21
8.64882
  0
LINE
  8
0
 10
36.8071
 20
8.64882
 11
36.758
 21
8.5078
  0
LINE
  8
0
 10
36.758
 20
8.5078
 11
36.6893
 21
8.38545
  0
LINE
  8
0
 10
36.6893
 20
8.38545
 11
36.6032
 21
8.28658
  0
LINE
  8
0
 10
36.6032
 20
8.28658
 11
36.5021
 21
8.21593
  0
LINE
  8
0
 10
36.5021
 20
8.21593
 11
36.3859
 21
8.17355
  0
LINE
  8
0
 10
36.3859
 20
8.17355
 11
36.2546
 21
8.15942
  0
LINE
  8
0
 10
36.2546
 20
8.15942
 11
36.1213
 21
8.17365
  0
LINE
  8
0
 10
27.1884
 20
9.21695
 11
27.1879
 21
9.29939
  0
LINE
  8
0
 10
27.1879
 20
9.29939
 11
27.1866
 21
9.39331
  0
LINE
  8
0
 10
27.1866
 20
9.39331
 11
27.1844
 21
9.4987
  0
LINE
  8
0
 10
27.1844
 20
9.4987
 11
27.1813
 21
9.61555
  0
LINE
  8
0
 10
27.1813
 20
9.61555
 11
27.174
 21
9.87071
  0
LINE
  8
0
 10
27.174
 20
9.87071
 11
27.17
 21
10.0057
  0
LINE
  8
0
 10
27.17
 20
10.0057
 11
27.1659
 21
10.1457
  0
LINE
  8
0
 10
27.1659
 20
10.1457
 11
27.1619
 21
10.2872
  0
LINE
  8
0
 10
27.1619
 20
10.2872
 11
27.1582
 21
10.4265
  0
LINE
  8
0
 10
27.1582
 20
10.4265
 11
27.1549
 21
10.5639
  0
LINE
  8
0
 10
27.1549
 20
10.5639
 11
27.1519
 21
10.6991
  0
LINE
  8
0
 10
27.1519
 20
10.6991
 11
27.1874
 21
10.5556
  0
LINE
  8
0
 10
27.1874
 20
10.5556
 11
27.2238
 21
10.4125
  0
LINE
  8
0
 10
27.2238
 20
10.4125
 11
27.261
 21
10.27
  0
LINE
  8
0
 10
27.261
 20
10.27
 11
27.2991
 21
10.1279
  0
LINE
  8
0
 10
27.2991
 20
10.1279
 11
27.3373
 21
9.98898
  0
LINE
  8
0
 10
27.3373
 20
9.98898
 11
27.3745
 21
9.85568
  0
LINE
  8
0
 10
27.3745
 20
9.85568
 11
27.4109
 21
9.72801
  0
LINE
  8
0
 10
27.4109
 20
9.72801
 11
27.4464
 21
9.60599
  0
LINE
  8
0
 10
27.4464
 20
9.60599
 11
27.48
 21
9.49229
  0
LINE
  8
0
 10
27.48
 20
9.49229
 11
27.5109
 21
9.38956
  0
LINE
  8
0
 10
27.5109
 20
9.38956
 11
27.5389
 21
9.29778
  0
LINE
  8
0
 10
27.5389
 20
9.29778
 11
27.5642
 21
9.21695
  0
LINE
  8
0
 10
27.5642
 20
9.21695
 11
28.1672
 21
7.45805
  0
LINE
  8
0
 10
28.1672
 20
7.45805
 11
28.9946
 21
7.45805
  0
LINE
  8
0
 10
28.9946
 20
7.45805
 11
29.5892
 21
9.21695
  0
LINE
  8
0
 10
29.5892
 20
9.21695
 11
29.6157
 21
9.30077
  0
LINE
  8
0
 10
29.6157
 20
9.30077
 11
29.6446
 21
9.39607
  0
LINE
  8
0
 10
29.6446
 20
9.39607
 11
29.676
 21
9.50282
  0
LINE
  8
0
 10
29.676
 20
9.50282
 11
29.7098
 21
9.62106
  0
LINE
  8
0
 10
29.7098
 20
9.62106
 11
29.7453
 21
9.74786
  0
LINE
  8
0
 10
29.7453
 20
9.74786
 11
29.7817
 21
9.88031
  0
LINE
  8
0
 10
29.7817
 20
9.88031
 11
29.8189
 21
10.0184
  0
LINE
  8
0
 10
29.8189
 20
10.0184
 11
29.8571
 21
10.1622
  0
LINE
  8
0
 10
29.8571
 20
10.1622
 11
29.8952
 21
10.3086
  0
LINE
  8
0
 10
29.8952
 20
10.3086
 11
29.9324
 21
10.4546
  0
LINE
  8
0
 10
29.9324
 20
10.4546
 11
29.9688
 21
10.6004
  0
LINE
  8
0
 10
29.9688
 20
10.6004
 11
30.0043
 21
10.7457
  0
LINE
  8
0
 10
30.0043
 20
10.7457
 11
30.0013
 21
10.6074
  0
LINE
  8
0
 10
30.0013
 20
10.6074
 11
29.998
 21
10.4663
  0
LINE
  8
0
 10
29.998
 20
10.4663
 11
29.9943
 21
10.3224
  0
LINE
  8
0
 10
29.9943
 20
10.3224
 11
29.9903
 21
10.1759
  0
LINE
  8
0
 10
29.9903
 20
10.1759
 11
29.9785
 21
9.75592
  0
LINE
  8
0
 10
29.9785
 20
9.75592
 11
29.9749
 21
9.62656
  0
LINE
  8
0
 10
29.9749
 20
9.62656
 11
29.9718
 21
9.50592
  0
LINE
  8
0
 10
29.9718
 20
9.50592
 11
29.9696
 21
9.39745
  0
LINE
  8
0
 10
29.9696
 20
9.39745
 11
29.9683
 21
9.30112
  0
LINE
  8
0
 10
29.9683
 20
9.30112
 11
29.9678
 21
9.21695
  0
LINE
  8
0
 10
29.9678
 20
9.21695
 11
29.9678
 21
7.45805
  0
LINE
  8
0
 10
29.9678
 20
7.45805
 11
30.9635
 21
7.45805
  0
LINE
  8
0
 10
30.9635
 20
7.45805
 11
30.9635
 21
11.5402
  0
LINE
  8
0
 10
30.9635
 20
11.5402
 11
29.4181
 21
11.5402
  0
LINE
  8
0
 10
29.4181
 20
11.5402
 11
28.8936
 21
9.9512
  0
LINE
  8
0
 10
28.8936
 20
9.9512
 11
28.8718
 21
9.87595
  0
LINE
  8
0
 10
28.8718
 20
9.87595
 11
28.8484
 21
9.78992
  0
LINE
  8
0
 10
28.8484
 20
9.78992
 11
28.8234
 21
9.69308
  0
LINE
  8
0
 10
28.8234
 20
9.69308
 11
28.7969
 21
9.58546
  0
LINE
  8
0
 10
28.7969
 20
9.58546
 11
28.7695
 21
9.4704
  0
LINE
  8
0
 10
28.7695
 20
9.4704
 11
28.7422
 21
9.35121
  0
LINE
  8
0
 10
28.7422
 20
9.35121
 11
28.7148
 21
9.22792
  0
LINE
  8
0
 10
28.7148
 20
9.22792
 11
28.6875
 21
9.10051
  0
LINE
  8
0
 10
28.6875
 20
9.10051
 11
28.6606
 21
8.97202
  0
LINE
  8
0
 10
28.6606
 20
8.97202
 11
28.6346
 21
8.8454
  0
LINE
  8
0
 10
28.6346
 20
8.8454
 11
28.6094
 21
8.72066
  0
LINE
  8
0
 10
28.6094
 20
8.72066
 11
28.5851
 21
8.59779
  0
LINE
  8
0
 10
28.5851
 20
8.59779
 11
28.5595
 21
8.72075
  0
LINE
  8
0
 10
28.5595
 20
8.72075
 11
28.5332
 21
8.84573
  0
LINE
  8
0
 10
28.5332
 20
8.84573
 11
28.5062
 21
8.97279
  0
LINE
  8
0
 10
28.5062
 20
8.97279
 11
28.4785
 21
9.10188
  0
LINE
  8
0
 10
28.4785
 20
9.10188
 11
28.4505
 21
9.22981
  0
LINE
  8
0
 10
28.4505
 20
9.22981
 11
28.4228
 21
9.35327
  0
LINE
  8
0
 10
28.4228
 20
9.35327
 11
28.3952
 21
9.47227
  0
LINE
  8
0
 10
28.3952
 20
9.47227
 11
28.3677
 21
9.58684
  0
LINE
  8
0
 10
28.3677
 20
9.58684
 11
28.3412
 21
9.69386
  0
LINE
  8
0
 10
28.3412
 20
9.69386
 11
28.3162
 21
9.79025
  0
LINE
  8
0
 10
28.3162
 20
9.79025
 11
28.2928
 21
9.87604
  0
LINE
  8
0
 10
28.2928
 20
9.87604
 11
28.271
 21
9.9512
  0
LINE
  8
0
 10
28.271
 20
9.9512
 11
27.7381
 21
11.5402
  0
LINE
  8
0
 10
27.7381
 20
11.5402
 11
26.1955
 21
11.5402
  0
LINE
  8
0
 10
26.1955
 20
11.5402
 11
26.1955
 21
7.45805
  0
LINE
  8
0
 10
26.1955
 20
7.45805
 11
27.1884
 21
7.45805
  0
LINE
  8
0
 10
27.1884
 20
7.45805
 11
27.1884
 21
9.21695
  0
LINE
  8
0
 10
21.3266
 20
7.41525
 11
21.3985
 21
7.41833
  0
LINE
  8
0
 10
21.3985
 20
7.41833
 11
21.4725
 21
7.42348
  0
LINE
  8
0
 10
21.4725
 20
7.42348
 11
21.5485
 21
7.43068
  0
LINE
  8
0
 10
21.5485
 20
7.43068
 11
21.6264
 21
7.44078
  0
LINE
  8
0
 10
21.6264
 20
7.44078
 11
21.7056
 21
7.45465
  0
LINE
  8
0
 10
21.7056
 20
7.45465
 11
21.7862
 21
7.47229
  0
LINE
  8
0
 10
21.7862
 20
7.47229
 11
21.8683
 21
7.4937
  0
LINE
  8
0
 10
21.8683
 20
7.4937
 11
21.7421
 21
8.18956
  0
LINE
  8
0
 10
21.7421
 20
8.18956
 11
21.7192
 21
8.18521
  0
LINE
  8
0
 10
21.7192
 20
8.18521
 11
21.6898
 21
8.18033
  0
LINE
  8
0
 10
21.6898
 20
8.18033
 11
21.654
 21
8.17493
  0
LINE
  8
0
 10
21.654
 20
8.17493
 11
21.6116
 21
8.16901
  0
LINE
  8
0
 10
21.6116
 20
8.16901
 11
21.5686
 21
8.1636
  0
LINE
  8
0
 10
21.5686
 20
8.1636
 11
21.5307
 21
8.15976
  0
LINE
  8
0
 10
21.5307
 20
8.15976
 11
21.4978
 21
8.15746
  0
LINE
  8
0
 10
21.4978
 20
8.15746
 11
21.47
 21
8.15668
  0
LINE
  8
0
 10
21.47
 20
8.15668
 11
21.3608
 21
8.17157
  0
LINE
  8
0
 10
21.3608
 20
8.17157
 11
21.2828
 21
8.21626
  0
LINE
  8
0
 10
21.2828
 20
8.21626
 11
21.236
 21
8.29076
  0
LINE
  8
0
 10
21.236
 20
8.29076
 11
21.2204
 21
8.39503
  0
LINE
  8
0
 10
21.2204
 20
8.39503
 11
21.2204
 21
9.81149
  0
LINE
  8
0
 10
21.2204
 20
9.81149
 11
21.7841
 21
9.81149
  0
LINE
  8
0
 10
21.7841
 20
9.81149
 11
21.7841
 21
10.5211
  0
LINE
  8
0
 10
21.7841
 20
10.5211
 11
21.2204
 21
10.5211
  0
LINE
  8
0
 10
21.2204
 20
10.5211
 11
21.2204
 21
11.2499
  0
LINE
  8
0
 10
21.2204
 20
11.2499
 11
20.2415
 21
11.2499
  0
LINE
  8
0
 10
20.2415
 20
11.2499
 11
20.2415
 21
10.5211
  0
LINE
  8
0
 10
20.2415
 20
10.5211
 11
19.8264
 21
10.5211
  0
LINE
  8
0
 10
19.8264
 20
10.5211
 11
19.8264
 21
9.81149
  0
LINE
  8
0
 10
19.8264
 20
9.81149
 11
20.2415
 21
9.81149
  0
LINE
  8
0
 10
20.2415
 20
9.81149
 11
20.2415
 21
8.31012
  0
LINE
  8
0
 10
20.2415
 20
8.31012
 11
20.2576
 21
8.10403
  0
LINE
  8
0
 10
20.2576
 20
8.10403
 11
20.306
 21
7.92415
  0
LINE
  8
0
 10
20.306
 20
7.92415
 11
20.3867
 21
7.77046
  0
LINE
  8
0
 10
20.3867
 20
7.77046
 11
20.4995
 21
7.64297
  0
LINE
  8
0
 10
20.4995
 20
7.64297
 11
20.6437
 21
7.54289
  0
LINE
  8
0
 10
20.6437
 20
7.54289
 11
20.8179
 21
7.47142
  0
LINE
  8
0
 10
20.8179
 20
7.47142
 11
21.0223
 21
7.42853
  0
LINE
  8
0
 10
21.0223
 20
7.42853
 11
21.2568
 21
7.41423
  0
LINE
  8
0
 10
21.2568
 20
7.41423
 11
21.3266
 21
7.41525
  0
LINE
  8
0
 10
51.4994
 20
9.27722
 11
51.5073
 21
9.39093
  0
LINE
  8
0
 10
51.5073
 20
9.39093
 11
51.5313
 21
9.49092
  0
LINE
  8
0
 10
51.5313
 20
9.49092
 11
51.5711
 21
9.57722
  0
LINE
  8
0
 10
51.5711
 20
9.57722
 11
51.627
 21
9.64983
  0
LINE
  8
0
 10
51.627
 20
9.64983
 11
51.6952
 21
9.70737
  0
LINE
  8
0
 10
51.6952
 20
9.70737
 11
51.7725
 21
9.74847
  0
LINE
  8
0
 10
51.7725
 20
9.74847
 11
51.8586
 21
9.77315
  0
LINE
  8
0
 10
51.8586
 20
9.77315
 11
51.9537
 21
9.78136
  0
LINE
  8
0
 10
51.9537
 20
9.78136
 11
52.046
 21
9.77356
  0
LINE
  8
0
 10
52.046
 20
9.77356
 11
52.1294
 21
9.75018
  0
LINE
  8
0
 10
52.1294
 20
9.75018
 11
52.2038
 21
9.71123
  0
LINE
  8
0
 10
52.2038
 20
9.71123
 11
52.2693
 21
9.65669
  0
LINE
  8
0
 10
52.2693
 20
9.65669
 11
52.3226
 21
9.58896
  0
LINE
  8
0
 10
52.3226
 20
9.58896
 11
52.3608
 21
9.51045
  0
LINE
  8
0
 10
52.3608
 20
9.51045
 11
52.3837
 21
9.42114
  0
LINE
  8
0
 10
52.3837
 20
9.42114
 11
52.3913
 21
9.32106
  0
LINE
  8
0
 10
52.3913
 20
9.32106
 11
52.3913
 21
7.45805
  0
LINE
  8
0
 10
52.3913
 20
7.45805
 11
53.3308
 21
7.45805
  0
LINE
  8
0
 10
53.3308
 20
7.45805
 11
53.3308
 21
9.29642
  0
LINE
  8
0
 10
53.3308
 20
9.29642
 11
53.3384
 21
9.4006
  0
LINE
  8
0
 10
53.3384
 20
9.4006
 11
53.361
 21
9.494
  0
LINE
  8
0
 10
53.361
 20
9.494
 11
53.3987
 21
9.57661
  0
LINE
  8
0
 10
53.3987
 20
9.57661
 11
53.4514
 21
9.64845
  0
LINE
  8
0
 10
53.4514
 20
9.64845
 11
53.5172
 21
9.70659
  0
LINE
  8
0
 10
53.5172
 20
9.70659
 11
53.5938
 21
9.74814
  0
LINE
  8
0
 10
53.5938
 20
9.74814
 11
53.6813
 21
9.77306
  0
LINE
  8
0
 10
53.6813
 20
9.77306
 11
53.7796
 21
9.78136
  0
LINE
  8
0
 10
53.7796
 20
9.78136
 11
53.8721
 21
9.77382
  0
LINE
  8
0
 10
53.8721
 20
9.77382
 11
53.956
 21
9.75122
  0
LINE
  8
0
 10
53.956
 20
9.75122
 11
54.0312
 21
9.71355
  0
LINE
  8
0
 10
54.0312
 20
9.71355
 11
54.0979
 21
9.66081
  0
LINE
  8
0
 10
54.0979
 20
9.66081
 11
54.1525
 21
9.59351
  0
LINE
  8
0
 10
54.1525
 20
9.59351
 11
54.1916
 21
9.51218
  0
LINE
  8
0
 10
54.1916
 20
9.51218
 11
54.215
 21
9.41679
  0
LINE
  8
0
 10
54.215
 20
9.41679
 11
54.2227
 21
9.30736
  0
LINE
  8
0
 10
54.2227
 20
9.30736
 11
54.2227
 21
7.45805
  0
LINE
  8
0
 10
54.2227
 20
7.45805
 11
55.1988
 21
7.45805
  0
LINE
  8
0
 10
55.1988
 20
7.45805
 11
55.1988
 21
9.52382
  0
LINE
  8
0
 10
55.1988
 20
9.52382
 11
55.1812
 21
9.75327
  0
LINE
  8
0
 10
55.1812
 20
9.75327
 11
55.1284
 21
9.9567
  0
LINE
  8
0
 10
55.1284
 20
9.9567
 11
55.0403
 21
10.1341
  0
LINE
  8
0
 10
55.0403
 20
10.1341
 11
54.9169
 21
10.2855
  0
LINE
  8
0
 10
54.9169
 20
10.2855
 11
54.7661
 21
10.4065
  0
LINE
  8
0
 10
54.7661
 20
10.4065
 11
54.5954
 21
10.493
  0
LINE
  8
0
 10
54.5954
 20
10.493
 11
54.405
 21
10.5449
  0
LINE
  8
0
 10
54.405
 20
10.5449
 11
54.1947
 21
10.5622
  0
LINE
  8
0
 10
54.1947
 20
10.5622
 11
54.0386
 21
10.5518
  0
LINE
  8
0
 10
54.0386
 20
10.5518
 11
53.8873
 21
10.5208
  0
LINE
  8
0
 10
53.8873
 20
10.5208
 11
53.7406
 21
10.4689
  0
LINE
  8
0
 10
53.7406
 20
10.4689
 11
53.5987
 21
10.3964
  0
LINE
  8
0
 10
53.5987
 20
10.3964
 11
53.4677
 21
10.3003
  0
LINE
  8
0
 10
53.4677
 20
10.3003
 11
53.3537
 21
10.1776
  0
LINE
  8
0
 10
53.3537
 20
10.1776
 11
53.2566
 21
10.0284
  0
LINE
  8
0
 10
53.2566
 20
10.0284
 11
53.1766
 21
9.85258
  0
LINE
  8
0
 10
53.1766
 20
9.85258
 11
53.1139
 21
10.0272
  0
LINE
  8
0
 10
53.1139
 20
10.0272
 11
53.0409
 21
10.1759
  0
LINE
  8
0
 10
53.0409
 20
10.1759
 11
52.9576
 21
10.2985
  0
LINE
  8
0
 10
52.9576
 20
10.2985
 11
52.8639
 21
10.3951
  0
LINE
  8
0
 10
52.8639
 20
10.3951
 11
52.7588
 21
10.4682
  0
LINE
  8
0
 10
52.7588
 20
10.4682
 11
52.6413
 21
10.5204
  0
LINE
  8
0
 10
52.6413
 20
10.5204
 11
52.5113
 21
10.5517
  0
LINE
  8
0
 10
52.5113
 20
10.5517
 11
52.3688
 21
10.5622
  0
LINE
  8
0
 10
52.3688
 20
10.5622
 11
52.2296
 21
10.5527
  0
LINE
  8
0
 10
52.2296
 20
10.5527
 11
52.095
 21
10.5242
  0
LINE
  8
0
 10
52.095
 20
10.5242
 11
51.9652
 21
10.4767
  0
LINE
  8
0
 10
51.9652
 20
10.4767
 11
51.8401
 21
10.4101
  0
LINE
  8
0
 10
51.8401
 20
10.4101
 11
51.7247
 21
10.322
  0
LINE
  8
0
 10
51.7247
 20
10.322
 11
51.6238
 21
10.2098
  0
LINE
  8
0
 10
51.6238
 20
10.2098
 11
51.5375
 21
10.0734
  0
LINE
  8
0
 10
51.5375
 20
10.0734
 11
51.4657
 21
9.91286
  0
LINE
  8
0
 10
51.4657
 20
9.91286
 11
51.4208
 21
10.5211
  0
LINE
  8
0
 10
51.4208
 20
10.5211
 11
50.5205
 21
10.5211
  0
LINE
  8
0
 10
50.5205
 20
10.5211
 11
50.5205
 21
7.45805
  0
LINE
  8
0
 10
50.5205
 20
7.45805
 11
51.4994
 21
7.45805
  0
LINE
  8
0
 10
51.4994
 20
7.45805
 11
51.4994
 21
9.27722
  0
LINE
  8
0
 10
12.5014
 20
9.27722
 11
12.5094
 21
9.39093
  0
LINE
  8
0
 10
12.5094
 20
9.39093
 11
12.5333
 21
9.49092
  0
LINE
  8
0
 10
12.5333
 20
9.49092
 11
12.5732
 21
9.57722
  0
LINE
  8
0
 10
12.5732
 20
9.57722
 11
12.629
 21
9.64983
  0
LINE
  8
0
 10
12.629
 20
9.64983
 11
12.6973
 21
9.70737
  0
LINE
  8
0
 10
12.6973
 20
9.70737
 11
12.7745
 21
9.74847
  0
LINE
  8
0
 10
12.7745
 20
9.74847
 11
12.8606
 21
9.77315
  0
LINE
  8
0
 10
12.8606
 20
9.77315
 11
12.9557
 21
9.78136
  0
LINE
  8
0
 10
12.9557
 20
9.78136
 11
13.048
 21
9.77356
  0
LINE
  8
0
 10
13.048
 20
9.77356
 11
13.1314
 21
9.75018
  0
LINE
  8
0
 10
13.1314
 20
9.75018
 11
13.2058
 21
9.71123
  0
LINE
  8
0
 10
13.2058
 20
9.71123
 11
13.2713
 21
9.65669
  0
LINE
  8
0
 10
13.2713
 20
9.65669
 11
13.3247
 21
9.58896
  0
LINE
  8
0
 10
13.3247
 20
9.58896
 11
13.3628
 21
9.51045
  0
LINE
  8
0
 10
13.3628
 20
9.51045
 11
13.3857
 21
9.42114
  0
LINE
  8
0
 10
13.3857
 20
9.42114
 11
13.3933
 21
9.32106
  0
LINE
  8
0
 10
13.3933
 20
9.32106
 11
13.3933
 21
7.45805
  0
LINE
  8
0
 10
13.3933
 20
7.45805
 11
14.3329
 21
7.45805
  0
LINE
  8
0
 10
14.3329
 20
7.45805
 11
14.3329
 21
9.29642
  0
LINE
  8
0
 10
14.3329
 20
9.29642
 11
14.3404
 21
9.4006
  0
LINE
  8
0
 10
14.3404
 20
9.4006
 11
14.363
 21
9.494
  0
LINE
  8
0
 10
14.363
 20
9.494
 11
14.4007
 21
9.57661
  0
LINE
  8
0
 10
14.4007
 20
9.57661
 11
14.4535
 21
9.64845
  0
LINE
  8
0
 10
14.4535
 20
9.64845
 11
14.5192
 21
9.70659
  0
LINE
  8
0
 10
14.5192
 20
9.70659
 11
14.5958
 21
9.74814
  0
LINE
  8
0
 10
14.5958
 20
9.74814
 11
14.6833
 21
9.77306
  0
LINE
  8
0
 10
14.6833
 20
9.77306
 11
14.7816
 21
9.78136
  0
LINE
  8
0
 10
14.7816
 20
9.78136
 11
14.8741
 21
9.77382
  0
LINE
  8
0
 10
14.8741
 20
9.77382
 11
14.958
 21
9.75122
  0
LINE
  8
0
 10
14.958
 20
9.75122
 11
15.0333
 21
9.71355
  0
LINE
  8
0
 10
15.0333
 20
9.71355
 11
15.1
 21
9.66081
  0
LINE
  8
0
 10
15.1
 20
9.66081
 11
15.1546
 21
9.59351
  0
LINE
  8
0
 10
15.1546
 20
9.59351
 11
15.1936
 21
9.51218
  0
LINE
  8
0
 10
15.1936
 20
9.51218
 11
15.217
 21
9.41679
  0
LINE
  8
0
 10
15.217
 20
9.41679
 11
15.2248
 21
9.30736
  0
LINE
  8
0
 10
15.2248
 20
9.30736
 11
15.2248
 21
7.45805
  0
LINE
  8
0
 10
15.2248
 20
7.45805
 11
16.2009
 21
7.45805
  0
LINE
  8
0
 10
16.2009
 20
7.45805
 11
16.2009
 21
9.52382
  0
LINE
  8
0
 10
16.2009
 20
9.52382
 11
16.1832
 21
9.75327
  0
LINE
  8
0
 10
16.1832
 20
9.75327
 11
16.1304
 21
9.9567
  0
LINE
  8
0
 10
16.1304
 20
9.9567
 11
16.0423
 21
10.1341
  0
LINE
  8
0
 10
16.0423
 20
10.1341
 11
15.919
 21
10.2855
  0
LINE
  8
0
 10
15.919
 20
10.2855
 11
15.7681
 21
10.4065
  0
LINE
  8
0
 10
15.7681
 20
10.4065
 11
15.5975
 21
10.493
  0
LINE
  8
0
 10
15.5975
 20
10.493
 11
15.407
 21
10.5449
  0
LINE
  8
0
 10
15.407
 20
10.5449
 11
15.1967
 21
10.5622
  0
LINE
  8
0
 10
15.1967
 20
10.5622
 11
15.0406
 21
10.5518
  0
LINE
  8
0
 10
15.0406
 20
10.5518
 11
14.8893
 21
10.5208
  0
LINE
  8
0
 10
14.8893
 20
10.5208
 11
14.7426
 21
10.4689
  0
LINE
  8
0
 10
14.7426
 20
10.4689
 11
14.6007
 21
10.3964
  0
LINE
  8
0
 10
14.6007
 20
10.3964
 11
14.4697
 21
10.3003
  0
LINE
  8
0
 10
14.4697
 20
10.3003
 11
14.3557
 21
10.1776
  0
LINE
  8
0
 10
14.3557
 20
10.1776
 11
14.2587
 21
10.0284
  0
LINE
  8
0
 10
14.2587
 20
10.0284
 11
14.1786
 21
9.85258
  0
LINE
  8
0
 10
14.1786
 20
9.85258
 11
14.116
 21
10.0272
  0
LINE
  8
0
 10
14.116
 20
10.0272
 11
14.043
 21
10.1759
  0
LINE
  8
0
 10
14.043
 20
10.1759
 11
13.9596
 21
10.2985
  0
LINE
  8
0
 10
13.9596
 20
10.2985
 11
13.8659
 21
10.3951
  0
LINE
  8
0
 10
13.8659
 20
10.3951
 11
13.7608
 21
10.4682
  0
LINE
  8
0
 10
13.7608
 20
10.4682
 11
13.6433
 21
10.5204
  0
LINE
  8
0
 10
13.6433
 20
10.5204
 11
13.5133
 21
10.5517
  0
LINE
  8
0
 10
13.5133
 20
10.5517
 11
13.3708
 21
10.5622
  0
LINE
  8
0
 10
13.3708
 20
10.5622
 11
13.2316
 21
10.5527
  0
LINE
  8
0
 10
13.2316
 20
10.5527
 11
13.097
 21
10.5242
  0
LINE
  8
0
 10
13.097
 20
10.5242
 11
12.9673
 21
10.4767
  0
LINE
  8
0
 10
12.9673
 20
10.4767
 11
12.8422
 21
10.4101
  0
LINE
  8
0
 10
12.8422
 20
10.4101
 11
12.7267
 21
10.322
  0
LINE
  8
0
 10
12.7267
 20
10.322
 11
12.6259
 21
10.2098
  0
LINE
  8
0
 10
12.6259
 20
10.2098
 11
12.5395
 21
10.0734
  0
LINE
  8
0
 10
12.5395
 20
10.0734
 11
12.4677
 21
9.91286
  0
LINE
  8
0
 10
12.4677
 20
9.91286
 11
12.4229
 21
10.5211
  0
LINE
  8
0
 10
12.4229
 20
10.5211
 11
11.5225
 21
10.5211
  0
LINE
  8
0
 10
11.5225
 20
10.5211
 11
11.5225
 21
7.45805
  0
LINE
  8
0
 10
11.5225
 20
7.45805
 11
12.5014
 21
7.45805
  0
LINE
  8
0
 10
12.5014
 20
7.45805
 11
12.5014
 21
9.27722
  0
LINE
  8
0
 10
40.0956
 20
7.41527
 11
40.3432
 21
7.45944
  0
LINE
  8
0
 10
40.3432
 20
7.45944
 11
40.5661
 21
7.53307
  0
LINE
  8
0
 10
40.5661
 20
7.53307
 11
40.7643
 21
7.63614
  0
LINE
  8
0
 10
40.7643
 20
7.63614
 11
40.9342
 21
7.76405
  0
LINE
  8
0
 10
40.9342
 20
7.76405
 11
41.0725
 21
7.91217
  0
LINE
  8
0
 10
41.0725
 20
7.91217
 11
41.179
 21
8.08049
  0
LINE
  8
0
 10
41.179
 20
8.08049
 11
41.2537
 21
8.26903
  0
LINE
  8
0
 10
41.2537
 20
8.26903
 11
40.3814
 21
8.40874
  0
LINE
  8
0
 10
40.3814
 20
8.40874
 11
40.3467
 21
8.33656
  0
LINE
  8
0
 10
40.3467
 20
8.33656
 11
40.3015
 21
8.27347
  0
LINE
  8
0
 10
40.3015
 20
8.27347
 11
40.2458
 21
8.21945
  0
LINE
  8
0
 10
40.2458
 20
8.21945
 11
40.1795
 21
8.1745
  0
LINE
  8
0
 10
40.1795
 20
8.1745
 11
40.1047
 21
8.13914
  0
LINE
  8
0
 10
40.1047
 20
8.13914
 11
40.0231
 21
8.11389
  0
LINE
  8
0
 10
40.0231
 20
8.11389
 11
39.935
 21
8.09875
  0
LINE
  8
0
 10
39.935
 20
8.09875
 11
39.8401
 21
8.0937
  0
LINE
  8
0
 10
39.8401
 20
8.0937
 11
39.7079
 21
8.10405
  0
LINE
  8
0
 10
39.7079
 20
8.10405
 11
39.5888
 21
8.13513
  0
LINE
  8
0
 10
39.5888
 20
8.13513
 11
39.4828
 21
8.1869
  0
LINE
  8
0
 10
39.4828
 20
8.1869
 11
39.39
 21
8.25941
  0
LINE
  8
0
 10
39.39
 20
8.25941
 11
39.3136
 21
8.35265
  0
LINE
  8
0
 10
39.3136
 20
8.35265
 11
39.2571
 21
8.46661
  0
LINE
  8
0
 10
39.2571
 20
8.46661
 11
39.2204
 21
8.60129
  0
LINE
  8
0
 10
39.2204
 20
8.60129
 11
39.2035
 21
8.75668
  0
LINE
  8
0
 10
39.2035
 20
8.75668
 11
41.2986
 21
8.75668
  0
LINE
  8
0
 10
41.2986
 20
8.75668
 11
41.2986
 21
8.99779
  0
LINE
  8
0
 10
41.2986
 20
8.99779
 11
41.2864
 21
9.24016
  0
LINE
  8
0
 10
41.2864
 20
9.24016
 11
41.2499
 21
9.4632
  0
LINE
  8
0
 10
41.2499
 20
9.4632
 11
41.1889
 21
9.66687
  0
LINE
  8
0
 10
41.1889
 20
9.66687
 11
41.1037
 21
9.85121
  0
LINE
  8
0
 10
41.1037
 20
9.85121
 11
40.9971
 21
10.0153
  0
LINE
  8
0
 10
40.9971
 20
10.0153
 11
40.8723
 21
10.1581
  0
LINE
  8
0
 10
40.8723
 20
10.1581
 11
40.7292
 21
10.2796
  0
LINE
  8
0
 10
40.7292
 20
10.2796
 11
40.568
 21
10.38
  0
LINE
  8
0
 10
40.568
 20
10.38
 11
40.3914
 21
10.4585
  0
LINE
  8
0
 10
40.3914
 20
10.4585
 11
40.2023
 21
10.5146
  0
LINE
  8
0
 10
40.2023
 20
10.5146
 11
40.0008
 21
10.5482
  0
LINE
  8
0
 10
40.0008
 20
10.5482
 11
39.7868
 21
10.5594
  0
LINE
  8
0
 10
39.7868
 20
10.5594
 11
39.559
 21
10.547
  0
LINE
  8
0
 10
39.559
 20
10.547
 11
39.3465
 21
10.5098
  0
LINE
  8
0
 10
39.3465
 20
10.5098
 11
39.1495
 21
10.4477
  0
LINE
  8
0
 10
39.1495
 20
10.4477
 11
38.9678
 21
10.3608
  0
LINE
  8
0
 10
38.9678
 20
10.3608
 11
38.8039
 21
10.2516
  0
LINE
  8
0
 10
38.8039
 20
10.2516
 11
38.6597
 21
10.1228
  0
LINE
  8
0
 10
38.6597
 20
10.1228
 11
38.5353
 21
9.97423
  0
LINE
  8
0
 10
38.5353
 20
9.97423
 11
38.4307
 21
9.806
  0
LINE
  8
0
 10
38.4307
 20
9.806
 11
38.3479
 21
9.62073
  0
LINE
  8
0
 10
38.3479
 20
9.62073
 11
38.2888
 21
9.42108
  0
LINE
  8
0
 10
38.2888
 20
9.42108
 11
38.2533
 21
9.20703
  0
LINE
  8
0
 10
38.2533
 20
9.20703
 11
38.2414
 21
8.97859
  0
LINE
  8
0
 10
38.2414
 20
8.97859
 11
38.2678
 21
8.62988
  0
LINE
  8
0
 10
38.2678
 20
8.62988
 11
38.347
 21
8.32074
  0
LINE
  8
0
 10
38.347
 20
8.32074
 11
38.4789
 21
8.05113
  0
LINE
  8
0
 10
38.4789
 20
8.05113
 11
38.6635
 21
7.82109
  0
LINE
  8
0
 10
38.6635
 20
7.82109
 11
38.8943
 21
7.6371
  0
LINE
  8
0
 10
38.8943
 20
7.6371
 11
39.1646
 21
7.50568
  0
LINE
  8
0
 10
39.1646
 20
7.50568
 11
39.4742
 21
7.42682
  0
LINE
  8
0
 10
39.4742
 20
7.42682
 11
39.8233
 21
7.40053
  0
LINE
  8
0
 10
39.8233
 20
7.40053
 11
40.0956
 21
7.41527
  0
LINE
  8
0
 10
39.2091
 20
9.31285
 11
39.2307
 21
9.43365
  0
LINE
  8
0
 10
39.2307
 20
9.43365
 11
39.2676
 21
9.54128
  0
LINE
  8
0
 10
39.2676
 20
9.54128
 11
39.3198
 21
9.63571
  0
LINE
  8
0
 10
39.3198
 20
9.63571
 11
39.3872
 21
9.71696
  0
LINE
  8
0
 10
39.3872
 20
9.71696
 11
39.4689
 21
9.78229
  0
LINE
  8
0
 10
39.4689
 20
9.78229
 11
39.5642
 21
9.82895
  0
LINE
  8
0
 10
39.5642
 20
9.82895
 11
39.673
 21
9.85695
  0
LINE
  8
0
 10
39.673
 20
9.85695
 11
39.7952
 21
9.86627
  0
LINE
  8
0
 10
39.7952
 20
9.86627
 11
39.916
 21
9.85712
  0
LINE
  8
0
 10
39.916
 20
9.85712
 11
40.0231
 21
9.82964
  0
LINE
  8
0
 10
40.0231
 20
9.82964
 11
40.1166
 21
9.78383
  0
LINE
  8
0
 10
40.1166
 20
9.78383
 11
40.1963
 21
9.71971
  0
LINE
  8
0
 10
40.1963
 20
9.71971
 11
40.2619
 21
9.63931
  0
LINE
  8
0
 10
40.2619
 20
9.63931
 11
40.3127
 21
9.54471
  0
LINE
  8
0
 10
40.3127
 20
9.54471
 11
40.3489
 21
9.4359
  0
LINE
  8
0
 10
40.3489
 20
9.4359
 11
40.3702
 21
9.31285
  0
LINE
  8
0
 10
40.3702
 20
9.31285
 11
39.2091
 21
9.31285
  0
LINE
  8
0
 10
45.4533
 20
7.41911
 11
45.7147
 21
7.47485
  0
LINE
  8
0
 10
45.7147
 20
7.47485
 11
45.9483
 21
7.56775
  0
LINE
  8
0
 10
45.9483
 20
7.56775
 11
46.1543
 21
7.69778
  0
LINE
  8
0
 10
46.1543
 20
7.69778
 11
46.327
 21
7.86003
  0
LINE
  8
0
 10
46.327
 20
7.86003
 11
46.4607
 21
8.0495
  0
LINE
  8
0
 10
46.4607
 20
8.0495
 11
46.5556
 21
8.2662
  0
LINE
  8
0
 10
46.5556
 20
8.2662
 11
46.6115
 21
8.51013
  0
LINE
  8
0
 10
46.6115
 20
8.51013
 11
45.7084
 21
8.65257
  0
LINE
  8
0
 10
45.7084
 20
8.65257
 11
45.6802
 21
8.53615
  0
LINE
  8
0
 10
45.6802
 20
8.53615
 11
45.6407
 21
8.43341
  0
LINE
  8
0
 10
45.6407
 20
8.43341
 11
45.5898
 21
8.34438
  0
LINE
  8
0
 10
45.5898
 20
8.34438
 11
45.5275
 21
8.26903
  0
LINE
  8
0
 10
45.5275
 20
8.26903
 11
45.4545
 21
8.20909
  0
LINE
  8
0
 10
45.4545
 20
8.20909
 11
45.3714
 21
8.16629
  0
LINE
  8
0
 10
45.3714
 20
8.16629
 11
45.2785
 21
8.14059
  0
LINE
  8
0
 10
45.2785
 20
8.14059
 11
45.1755
 21
8.13203
  0
LINE
  8
0
 10
45.1755
 20
8.13203
 11
45.0431
 21
8.14633
  0
LINE
  8
0
 10
45.0431
 20
8.14633
 11
44.9265
 21
8.18922
  0
LINE
  8
0
 10
44.9265
 20
8.18922
 11
44.8257
 21
8.2607
  0
LINE
  8
0
 10
44.8257
 20
8.2607
 11
44.7407
 21
8.36078
  0
LINE
  8
0
 10
44.7407
 20
8.36078
 11
44.6732
 21
8.48552
  0
LINE
  8
0
 10
44.6732
 20
8.48552
 11
44.625
 21
8.631
  0
LINE
  8
0
 10
44.625
 20
8.631
 11
44.5961
 21
8.79718
  0
LINE
  8
0
 10
44.5961
 20
8.79718
 11
44.5865
 21
8.98409
  0
LINE
  8
0
 10
44.5865
 20
8.98409
 11
44.5961
 21
9.17183
  0
LINE
  8
0
 10
44.5961
 20
9.17183
 11
44.625
 21
9.33784
  0
LINE
  8
0
 10
44.625
 20
9.33784
 11
44.6732
 21
9.4821
  0
LINE
  8
0
 10
44.6732
 20
9.4821
 11
44.7407
 21
9.60461
  0
LINE
  8
0
 10
44.7407
 20
9.60461
 11
44.8257
 21
9.70232
  0
LINE
  8
0
 10
44.8257
 20
9.70232
 11
44.9265
 21
9.77211
  0
LINE
  8
0
 10
44.9265
 20
9.77211
 11
45.0431
 21
9.81398
  0
LINE
  8
0
 10
45.0431
 20
9.81398
 11
45.1755
 21
9.82794
  0
LINE
  8
0
 10
45.1755
 20
9.82794
 11
45.2783
 21
9.81972
  0
LINE
  8
0
 10
45.2783
 20
9.81972
 11
45.3707
 21
9.79506
  0
LINE
  8
0
 10
45.3707
 20
9.79506
 11
45.4529
 21
9.75395
  0
LINE
  8
0
 10
45.4529
 20
9.75395
 11
45.5246
 21
9.6964
  0
LINE
  8
0
 10
45.5246
 20
9.6964
 11
45.5859
 21
9.62381
  0
LINE
  8
0
 10
45.5859
 20
9.62381
 11
45.6365
 21
9.53751
  0
LINE
  8
0
 10
45.6365
 20
9.53751
 11
45.6764
 21
9.4375
  0
LINE
  8
0
 10
45.6764
 20
9.4375
 11
45.7056
 21
9.32381
  0
LINE
  8
0
 10
45.7056
 20
9.32381
 11
46.6087
 21
9.47174
  0
LINE
  8
0
 10
46.6087
 20
9.47174
 11
46.5527
 21
9.70941
  0
LINE
  8
0
 10
46.5527
 20
9.70941
 11
46.4576
 21
9.92107
  0
LINE
  8
0
 10
46.4576
 20
9.92107
 11
46.3234
 21
10.1067
  0
LINE
  8
0
 10
46.3234
 20
10.1067
 11
46.1501
 21
10.2663
  0
LINE
  8
0
 10
46.1501
 20
10.2663
 11
45.9439
 21
10.3945
  0
LINE
  8
0
 10
45.9439
 20
10.3945
 11
45.7108
 21
10.4861
  0
LINE
  8
0
 10
45.7108
 20
10.4861
 11
45.451
 21
10.5411
  0
LINE
  8
0
 10
45.451
 20
10.5411
 11
45.1643
 21
10.5594
  0
LINE
  8
0
 10
45.1643
 20
10.5594
 11
44.9274
 21
10.547
  0
LINE
  8
0
 10
44.9274
 20
10.547
 11
44.7078
 21
10.5098
  0
LINE
  8
0
 10
44.7078
 20
10.5098
 11
44.5053
 21
10.4477
  0
LINE
  8
0
 10
44.5053
 20
10.4477
 11
44.32
 21
10.3608
  0
LINE
  8
0
 10
44.32
 20
10.3608
 11
44.1536
 21
10.2516
  0
LINE
  8
0
 10
44.1536
 20
10.2516
 11
44.0076
 21
10.1228
  0
LINE
  8
0
 10
44.0076
 20
10.1228
 11
43.8822
 21
9.97423
  0
LINE
  8
0
 10
43.8822
 20
9.97423
 11
43.7773
 21
9.806
  0
LINE
  8
0
 10
43.7773
 20
9.806
 11
43.6945
 21
9.62073
  0
LINE
  8
0
 10
43.6945
 20
9.62073
 11
43.6353
 21
9.42108
  0
LINE
  8
0
 10
43.6353
 20
9.42108
 11
43.5998
 21
9.20703
  0
LINE
  8
0
 10
43.5998
 20
9.20703
 11
43.588
 21
8.97859
  0
LINE
  8
0
 10
43.588
 20
8.97859
 11
43.5998
 21
8.75026
  0
LINE
  8
0
 10
43.5998
 20
8.75026
 11
43.6353
 21
8.53648
  0
LINE
  8
0
 10
43.6353
 20
8.53648
 11
43.6945
 21
8.33725
  0
LINE
  8
0
 10
43.6945
 20
8.33725
 11
43.7773
 21
8.15256
  0
LINE
  8
0
 10
43.7773
 20
8.15256
 11
43.8822
 21
7.98492
  0
LINE
  8
0
 10
43.8822
 20
7.98492
 11
44.0076
 21
7.83681
  0
LINE
  8
0
 10
44.0076
 20
7.83681
 11
44.1536
 21
7.70822
  0
LINE
  8
0
 10
44.1536
 20
7.70822
 11
44.32
 21
7.59914
  0
LINE
  8
0
 10
44.32
 20
7.59914
 11
44.5053
 21
7.51225
  0
LINE
  8
0
 10
44.5053
 20
7.51225
 11
44.7078
 21
7.45018
  0
LINE
  8
0
 10
44.7078
 20
7.45018
 11
44.9274
 21
7.41295
  0
LINE
  8
0
 10
44.9274
 20
7.41295
 11
45.1643
 21
7.40053
  0
LINE
  8
0
 10
45.1643
 20
7.40053
 11
45.4533
 21
7.41911
  0
LINE
  8
0
 10
48.7399
 20
7.41295
 11
48.9592
 21
7.45018
  0
LINE
  8
0
 10
48.9592
 20
7.45018
 11
49.1613
 21
7.51225
  0
LINE
  8
0
 10
49.1613
 20
7.51225
 11
49.3459
 21
7.59914
  0
LINE
  8
0
 10
49.3459
 20
7.59914
 11
49.5118
 21
7.70822
  0
LINE
  8
0
 10
49.5118
 20
7.70822
 11
49.6573
 21
7.83681
  0
LINE
  8
0
 10
49.6573
 20
7.83681
 11
49.7824
 21
7.98492
  0
LINE
  8
0
 10
49.7824
 20
7.98492
 11
49.8872
 21
8.15256
  0
LINE
  8
0
 10
49.8872
 20
8.15256
 11
49.9701
 21
8.33725
  0
LINE
  8
0
 10
49.9701
 20
8.33725
 11
50.0292
 21
8.53648
  0
LINE
  8
0
 10
50.0292
 20
8.53648
 11
50.0647
 21
8.75026
  0
LINE
  8
0
 10
50.0647
 20
8.75026
 11
50.0766
 21
8.97859
  0
LINE
  8
0
 10
50.0766
 20
8.97859
 11
50.0647
 21
9.20703
  0
LINE
  8
0
 10
50.0647
 20
9.20703
 11
50.0292
 21
9.42108
  0
LINE
  8
0
 10
50.0292
 20
9.42108
 11
49.9701
 21
9.62073
  0
LINE
  8
0
 10
49.9701
 20
9.62073
 11
49.8872
 21
9.806
  0
LINE
  8
0
 10
49.8872
 20
9.806
 11
49.7824
 21
9.97423
  0
LINE
  8
0
 10
49.7824
 20
9.97423
 11
49.6573
 21
10.1228
  0
LINE
  8
0
 10
49.6573
 20
10.1228
 11
49.5118
 21
10.2516
  0
LINE
  8
0
 10
49.5118
 20
10.2516
 11
49.3459
 21
10.3608
  0
LINE
  8
0
 10
49.3459
 20
10.3608
 11
49.1613
 21
10.4477
  0
LINE
  8
0
 10
49.1613
 20
10.4477
 11
48.9592
 21
10.5098
  0
LINE
  8
0
 10
48.9592
 20
10.5098
 11
48.7399
 21
10.547
  0
LINE
  8
0
 10
48.7399
 20
10.547
 11
48.5031
 21
10.5594
  0
LINE
  8
0
 10
48.5031
 20
10.5594
 11
48.2663
 21
10.547
  0
LINE
  8
0
 10
48.2663
 20
10.547
 11
48.0466
 21
10.5098
  0
LINE
  8
0
 10
48.0466
 20
10.5098
 11
47.8442
 21
10.4477
  0
LINE
  8
0
 10
47.8442
 20
10.4477
 11
47.6589
 21
10.3608
  0
LINE
  8
0
 10
47.6589
 20
10.3608
 11
47.4924
 21
10.2516
  0
LINE
  8
0
 10
47.4924
 20
10.2516
 11
47.3465
 21
10.1228
  0
LINE
  8
0
 10
47.3465
 20
10.1228
 11
47.2211
 21
9.97423
  0
LINE
  8
0
 10
47.2211
 20
9.97423
 11
47.1161
 21
9.806
  0
LINE
  8
0
 10
47.1161
 20
9.806
 11
47.0333
 21
9.62073
  0
LINE
  8
0
 10
47.0333
 20
9.62073
 11
46.9742
 21
9.42108
  0
LINE
  8
0
 10
46.9742
 20
9.42108
 11
46.9387
 21
9.20703
  0
LINE
  8
0
 10
46.9387
 20
9.20703
 11
46.9268
 21
8.97859
  0
LINE
  8
0
 10
46.9268
 20
8.97859
 11
46.9387
 21
8.75026
  0
LINE
  8
0
 10
46.9387
 20
8.75026
 11
46.9742
 21
8.53648
  0
LINE
  8
0
 10
46.9742
 20
8.53648
 11
47.0333
 21
8.33725
  0
LINE
  8
0
 10
47.0333
 20
8.33725
 11
47.1161
 21
8.15256
  0
LINE
  8
0
 10
47.1161
 20
8.15256
 11
47.2211
 21
7.98492
  0
LINE
  8
0
 10
47.2211
 20
7.98492
 11
47.3465
 21
7.83681
  0
LINE
  8
0
 10
47.3465
 20
7.83681
 11
47.4924
 21
7.70822
  0
LINE
  8
0
 10
47.4924
 20
7.70822
 11
47.6589
 21
7.59914
  0
LINE
  8
0
 10
47.6589
 20
7.59914
 11
47.8442
 21
7.51225
  0
LINE
  8
0
 10
47.8442
 20
7.51225
 11
48.0466
 21
7.45018
  0
LINE
  8
0
 10
48.0466
 20
7.45018
 11
48.2663
 21
7.41295
  0
LINE
  8
0
 10
48.2663
 20
7.41295
 11
48.5031
 21
7.40053
  0
LINE
  8
0
 10
48.5031
 20
7.40053
 11
48.7399
 21
7.41295
  0
LINE
  8
0
 10
48.3711
 20
8.14668
 11
48.2556
 21
8.1906
  0
LINE
  8
0
 10
48.2556
 20
8.1906
 11
48.1565
 21
8.26379
  0
LINE
  8
0
 10
48.1565
 20
8.26379
 11
48.074
 21
8.36627
  0
LINE
  8
0
 10
48.074
 20
8.36627
 11
48.009
 21
8.49274
  0
LINE
  8
0
 10
48.009
 20
8.49274
 11
47.9625
 21
8.63786
  0
LINE
  8
0
 10
47.9625
 20
8.63786
 11
47.9346
 21
8.80165
  0
LINE
  8
0
 10
47.9346
 20
8.80165
 11
47.9254
 21
8.98409
  0
LINE
  8
0
 10
47.9254
 20
8.98409
 11
47.9346
 21
9.16628
  0
LINE
  8
0
 10
47.9346
 20
9.16628
 11
47.9625
 21
9.32928
  0
LINE
  8
0
 10
47.9625
 20
9.32928
 11
48.009
 21
9.47313
  0
LINE
  8
0
 10
48.009
 20
9.47313
 11
48.074
 21
9.59779
  0
LINE
  8
0
 10
48.074
 20
9.59779
 11
48.1565
 21
9.69847
  0
LINE
  8
0
 10
48.1565
 20
9.69847
 11
48.2556
 21
9.7704
  0
LINE
  8
0
 10
48.2556
 20
9.7704
 11
48.3711
 21
9.81355
  0
LINE
  8
0
 10
48.3711
 20
9.81355
 11
48.5031
 21
9.82794
  0
LINE
  8
0
 10
48.5031
 20
9.82794
 11
48.6351
 21
9.81355
  0
LINE
  8
0
 10
48.6351
 20
9.81355
 11
48.7506
 21
9.7704
  0
LINE
  8
0
 10
48.7506
 20
9.7704
 11
48.8497
 21
9.69847
  0
LINE
  8
0
 10
48.8497
 20
9.69847
 11
48.9322
 21
9.59779
  0
LINE
  8
0
 10
48.9322
 20
9.59779
 11
48.9973
 21
9.47313
  0
LINE
  8
0
 10
48.9973
 20
9.47313
 11
49.0437
 21
9.32928
  0
LINE
  8
0
 10
49.0437
 20
9.32928
 11
49.0716
 21
9.16628
  0
LINE
  8
0
 10
49.0716
 20
9.16628
 11
49.0809
 21
8.98409
  0
LINE
  8
0
 10
49.0809
 20
8.98409
 11
49.0716
 21
8.80165
  0
LINE
  8
0
 10
49.0716
 20
8.80165
 11
49.0437
 21
8.63786
  0
LINE
  8
0
 10
49.0437
 20
8.63786
 11
48.9973
 21
8.49274
  0
LINE
  8
0
 10
48.9973
 20
8.49274
 11
48.9322
 21
8.36627
  0
LINE
  8
0
 10
48.9322
 20
8.36627
 11
48.8497
 21
8.26379
  0
LINE
  8
0
 10
48.8497
 20
8.26379
 11
48.7506
 21
8.1906
  0
LINE
  8
0
 10
48.7506
 20
8.1906
 11
48.6351
 21
8.14668
  0
LINE
  8
0
 10
48.6351
 20
8.14668
 11
48.5031
 21
8.13203
  0
LINE
  8
0
 10
48.5031
 20
8.13203
 11
48.3711
 21
8.14668
  0
LINE
  8
0
 10
23.2136
 20
9.12929
 11
23.2248
 21
9.25977
  0
LINE
  8
0
 10
23.2248
 20
9.25977
 11
23.2581
 21
9.37723
  0
LINE
  8
0
 10
23.2581
 20
9.37723
 11
23.3138
 21
9.48167
  0
LINE
  8
0
 10
23.3138
 20
9.48167
 11
23.3917
 21
9.5731
  0
LINE
  8
0
 10
23.3917
 20
9.5731
 11
23.4867
 21
9.64743
  0
LINE
  8
0
 10
23.4867
 20
9.64743
 11
23.5933
 21
9.70052
  0
LINE
  8
0
 10
23.5933
 20
9.70052
 11
23.7117
 21
9.73236
  0
LINE
  8
0
 10
23.7117
 20
9.73236
 11
23.8419
 21
9.74298
  0
LINE
  8
0
 10
23.8419
 20
9.74298
 11
23.8883
 21
9.7422
  0
LINE
  8
0
 10
23.8883
 20
9.7422
 11
23.9376
 21
9.7399
  0
LINE
  8
0
 10
23.9376
 20
9.7399
 11
23.9899
 21
9.73605
  0
LINE
  8
0
 10
23.9899
 20
9.73605
 11
24.0452
 21
9.73067
  0
LINE
  8
0
 10
24.0452
 20
9.73067
 11
24.0993
 21
9.72372
  0
LINE
  8
0
 10
24.0993
 20
9.72372
 11
24.1479
 21
9.71526
  0
LINE
  8
0
 10
24.1479
 20
9.71526
 11
24.1912
 21
9.70525
  0
LINE
  8
0
 10
24.1912
 20
9.70525
 11
24.229
 21
9.6937
  0
LINE
  8
0
 10
24.229
 20
9.6937
 11
24.229
 21
10.5266
  0
LINE
  8
0
 10
24.229
 20
10.5266
 11
24.1611
 21
10.5409
  0
LINE
  8
0
 10
24.1611
 20
10.5409
 11
24.0922
 21
10.5512
  0
LINE
  8
0
 10
24.0922
 20
10.5512
 11
24.0223
 21
10.5574
  0
LINE
  8
0
 10
24.0223
 20
10.5574
 11
23.9513
 21
10.5594
  0
LINE
  8
0
 10
23.9513
 20
10.5594
 11
23.8262
 21
10.5502
  0
LINE
  8
0
 10
23.8262
 20
10.5502
 11
23.709
 21
10.5225
  0
LINE
  8
0
 10
23.709
 20
10.5225
 11
23.5997
 21
10.4762
  0
LINE
  8
0
 10
23.5997
 20
10.4762
 11
23.4983
 21
10.4115
  0
LINE
  8
0
 10
23.4983
 20
10.4115
 11
23.4078
 21
10.3279
  0
LINE
  8
0
 10
23.4078
 20
10.3279
 11
23.3311
 21
10.2252
  0
LINE
  8
0
 10
23.3311
 20
10.2252
 11
23.2682
 21
10.1033
  0
LINE
  8
0
 10
23.2682
 20
10.1033
 11
23.2193
 21
9.96219
  0
LINE
  8
0
 10
23.2193
 20
9.96219
 11
23.1856
 21
9.96219
  0
LINE
  8
0
 10
23.1856
 20
9.96219
 11
23.1856
 21
10.5211
  0
LINE
  8
0
 10
23.1856
 20
10.5211
 11
22.2348
 21
10.5211
  0
LINE
  8
0
 10
22.2348
 20
10.5211
 11
22.2348
 21
7.45805
  0
LINE
  8
0
 10
22.2348
 20
7.45805
 11
23.2136
 21
7.45805
  0
LINE
  8
0
 10
23.2136
 20
7.45805
 11
23.2136
 21
9.12929
  0
LINE
  8
0
 10
18.4575
 20
7.41527
 11
18.7051
 21
7.45944
  0
LINE
  8
0
 10
18.7051
 20
7.45944
 11
18.928
 21
7.53307
  0
LINE
  8
0
 10
18.928
 20
7.53307
 11
19.1261
 21
7.63614
  0
LINE
  8
0
 10
19.1261
 20
7.63614
 11
19.2961
 21
7.76405
  0
LINE
  8
0
 10
19.2961
 20
7.76405
 11
19.4343
 21
7.91217
  0
LINE
  8
0
 10
19.4343
 20
7.91217
 11
19.5408
 21
8.08049
  0
LINE
  8
0
 10
19.5408
 20
8.08049
 11
19.6156
 21
8.26903
  0
LINE
  8
0
 10
19.6156
 20
8.26903
 11
18.7433
 21
8.40874
  0
LINE
  8
0
 10
18.7433
 20
8.40874
 11
18.7086
 21
8.33656
  0
LINE
  8
0
 10
18.7086
 20
8.33656
 11
18.6634
 21
8.27347
  0
LINE
  8
0
 10
18.6634
 20
8.27347
 11
18.6076
 21
8.21945
  0
LINE
  8
0
 10
18.6076
 20
8.21945
 11
18.5414
 21
8.1745
  0
LINE
  8
0
 10
18.5414
 20
8.1745
 11
18.4665
 21
8.13914
  0
LINE
  8
0
 10
18.4665
 20
8.13914
 11
18.385
 21
8.11389
  0
LINE
  8
0
 10
18.385
 20
8.11389
 11
18.2968
 21
8.09875
  0
LINE
  8
0
 10
18.2968
 20
8.09875
 11
18.202
 21
8.0937
  0
LINE
  8
0
 10
18.202
 20
8.0937
 11
18.0697
 21
8.10405
  0
LINE
  8
0
 10
18.0697
 20
8.10405
 11
17.9506
 21
8.13513
  0
LINE
  8
0
 10
17.9506
 20
8.13513
 11
17.8447
 21
8.1869
  0
LINE
  8
0
 10
17.8447
 20
8.1869
 11
17.7518
 21
8.25941
  0
LINE
  8
0
 10
17.7518
 20
8.25941
 11
17.6755
 21
8.35265
  0
LINE
  8
0
 10
17.6755
 20
8.35265
 11
17.619
 21
8.46661
  0
LINE
  8
0
 10
17.619
 20
8.46661
 11
17.5822
 21
8.60129
  0
LINE
  8
0
 10
17.5822
 20
8.60129
 11
17.5653
 21
8.75668
  0
LINE
  8
0
 10
17.5653
 20
8.75668
 11
19.6604
 21
8.75668
  0
LINE
  8
0
 10
19.6604
 20
8.75668
 11
19.6604
 21
8.99779
  0
LINE
  8
0
 10
19.6604
 20
8.99779
 11
19.6483
 21
9.24016
  0
LINE
  8
0
 10
19.6483
 20
9.24016
 11
19.6117
 21
9.4632
  0
LINE
  8
0
 10
19.6117
 20
9.4632
 11
19.5508
 21
9.66687
  0
LINE
  8
0
 10
19.5508
 20
9.66687
 11
19.4655
 21
9.85121
  0
LINE
  8
0
 10
19.4655
 20
9.85121
 11
19.3589
 21
10.0153
  0
LINE
  8
0
 10
19.3589
 20
10.0153
 11
19.2341
 21
10.1581
  0
LINE
  8
0
 10
19.2341
 20
10.1581
 11
19.0911
 21
10.2796
  0
LINE
  8
0
 10
19.0911
 20
10.2796
 11
18.9298
 21
10.38
  0
LINE
  8
0
 10
18.9298
 20
10.38
 11
18.7532
 21
10.4585
  0
LINE
  8
0
 10
18.7532
 20
10.4585
 11
18.5641
 21
10.5146
  0
LINE
  8
0
 10
18.5641
 20
10.5146
 11
18.3626
 21
10.5482
  0
LINE
  8
0
 10
18.3626
 20
10.5482
 11
18.1487
 21
10.5594
  0
LINE
  8
0
 10
18.1487
 20
10.5594
 11
17.9208
 21
10.547
  0
LINE
  8
0
 10
17.9208
 20
10.547
 11
17.7084
 21
10.5098
  0
LINE
  8
0
 10
17.7084
 20
10.5098
 11
17.5113
 21
10.4477
  0
LINE
  8
0
 10
17.5113
 20
10.4477
 11
17.3297
 21
10.3608
  0
LINE
  8
0
 10
17.3297
 20
10.3608
 11
17.1657
 21
10.2516
  0
LINE
  8
0
 10
17.1657
 20
10.2516
 11
17.0215
 21
10.1228
  0
LINE
  8
0
 10
17.0215
 20
10.1228
 11
16.8972
 21
9.97423
  0
LINE
  8
0
 10
16.8972
 20
9.97423
 11
16.7926
 21
9.806
  0
LINE
  8
0
 10
16.7926
 20
9.806
 11
16.7098
 21
9.62073
  0
LINE
  8
0
 10
16.7098
 20
9.62073
 11
16.6506
 21
9.42108
  0
LINE
  8
0
 10
16.6506
 20
9.42108
 11
16.6151
 21
9.20703
  0
LINE
  8
0
 10
16.6151
 20
9.20703
 11
16.6033
 21
8.97859
  0
LINE
  8
0
 10
16.6033
 20
8.97859
 11
16.6297
 21
8.62988
  0
LINE
  8
0
 10
16.6297
 20
8.62988
 11
16.7088
 21
8.32074
  0
LINE
  8
0
 10
16.7088
 20
8.32074
 11
16.8407
 21
8.05113
  0
LINE
  8
0
 10
16.8407
 20
8.05113
 11
17.0254
 21
7.82109
  0
LINE
  8
0
 10
17.0254
 20
7.82109
 11
17.2562
 21
7.6371
  0
LINE
  8
0
 10
17.2562
 20
7.6371
 11
17.5264
 21
7.50568
  0
LINE
  8
0
 10
17.5264
 20
7.50568
 11
17.8361
 21
7.42682
  0
LINE
  8
0
 10
17.8361
 20
7.42682
 11
18.1852
 21
7.40053
  0
LINE
  8
0
 10
18.1852
 20
7.40053
 11
18.4575
 21
7.41527
  0
LINE
  8
0
 10
17.5709
 20
9.31285
 11
17.5926
 21
9.43365
  0
LINE
  8
0
 10
17.5926
 20
9.43365
 11
17.6295
 21
9.54128
  0
LINE
  8
0
 10
17.6295
 20
9.54128
 11
17.6816
 21
9.63571
  0
LINE
  8
0
 10
17.6816
 20
9.63571
 11
17.749
 21
9.71696
  0
LINE
  8
0
 10
17.749
 20
9.71696
 11
17.8308
 21
9.78229
  0
LINE
  8
0
 10
17.8308
 20
9.78229
 11
17.9261
 21
9.82895
  0
LINE
  8
0
 10
17.9261
 20
9.82895
 11
18.0348
 21
9.85695
  0
LINE
  8
0
 10
18.0348
 20
9.85695
 11
18.1571
 21
9.86627
  0
LINE
  8
0
 10
18.1571
 20
9.86627
 11
18.2779
 21
9.85712
  0
LINE
  8
0
 10
18.2779
 20
9.85712
 11
18.385
 21
9.82964
  0
LINE
  8
0
 10
18.385
 20
9.82964
 11
18.4784
 21
9.78383
  0
LINE
  8
0
 10
18.4784
 20
9.78383
 11
18.5582
 21
9.71971
  0
LINE
  8
0
 10
18.5582
 20
9.71971
 11
18.6237
 21
9.63931
  0
LINE
  8
0
 10
18.6237
 20
9.63931
 11
18.6746
 21
9.54471
  0
LINE
  8
0
 10
18.6746
 20
9.54471
 11
18.7107
 21
9.4359
  0
LINE
  8
0
 10
18.7107
 20
9.4359
 11
18.7321
 21
9.31285
  0
LINE
  8
0
 10
18.7321
 20
9.31285
 11
17.5709
 21
9.31285
  0
LINE
  8
0
 10
32.662
 20
7.43359
 11
32.9134
 21
7.52451
  0
LINE
  8
0
 10
32.9134
 20
7.52451
 11
33.1164
 21
7.67604
  0
LINE
  8
0
 10
33.1164
 20
7.67604
 11
33.271
 21
7.88818
  0
LINE
  8
0
 10
33.271
 20
7.88818
 11
33.2963
 21
7.88818
  0
LINE
  8
0
 10
33.2963
 20
7.88818
 11
33.2963
 21
7.45805
  0
LINE
  8
0
 10
33.2963
 20
7.45805
 11
34.2162
 21
7.45805
  0
LINE
  8
0
 10
34.2162
 20
7.45805
 11
34.2162
 21
9.53751
  0
LINE
  8
0
 10
34.2162
 20
9.53751
 11
34.2046
 21
9.69565
  0
LINE
  8
0
 10
34.2046
 20
9.69565
 11
34.1696
 21
9.84126
  0
LINE
  8
0
 10
34.1696
 20
9.84126
 11
34.1113
 21
9.9744
  0
LINE
  8
0
 10
34.1113
 20
9.9744
 11
34.0297
 21
10.095
  0
LINE
  8
0
 10
34.0297
 20
10.095
 11
33.9284
 21
10.2025
  0
LINE
  8
0
 10
33.9284
 20
10.2025
 11
33.8109
 21
10.2961
  0
LINE
  8
0
 10
33.8109
 20
10.2961
 11
33.6774
 21
10.3758
  0
LINE
  8
0
 10
33.6774
 20
10.3758
 11
33.5276
 21
10.4416
  0
LINE
  8
0
 10
33.5276
 20
10.4416
 11
33.3652
 21
10.4931
  0
LINE
  8
0
 10
33.3652
 20
10.4931
 11
33.1935
 21
10.53
  0
LINE
  8
0
 10
33.1935
 20
10.53
 11
33.0126
 21
10.5521
  0
LINE
  8
0
 10
33.0126
 20
10.5521
 11
32.8223
 21
10.5594
  0
LINE
  8
0
 10
32.8223
 20
10.5594
 11
32.5421
 21
10.5441
  0
LINE
  8
0
 10
32.5421
 20
10.5441
 11
32.2904
 21
10.4981
  0
LINE
  8
0
 10
32.2904
 20
10.4981
 11
32.0674
 21
10.4215
  0
LINE
  8
0
 10
32.0674
 20
10.4215
 11
31.8728
 21
10.3142
  0
LINE
  8
0
 10
31.8728
 20
10.3142
 11
31.7094
 21
10.1825
  0
LINE
  8
0
 10
31.7094
 20
10.1825
 11
31.5794
 21
10.0324
  0
LINE
  8
0
 10
31.5794
 20
10.0324
 11
31.4829
 21
9.86398
  0
LINE
  8
0
 10
31.4829
 20
9.86398
 11
31.4199
 21
9.67725
  0
LINE
  8
0
 10
31.4199
 20
9.67725
 11
32.3062
 21
9.5649
  0
LINE
  8
0
 10
32.3062
 20
9.5649
 11
32.3316
 21
9.63373
  0
LINE
  8
0
 10
32.3316
 20
9.63373
 11
32.3686
 21
9.69502
  0
LINE
  8
0
 10
32.3686
 20
9.69502
 11
32.4172
 21
9.74878
  0
LINE
  8
0
 10
32.4172
 20
9.74878
 11
32.4773
 21
9.79501
  0
LINE
  8
0
 10
32.4773
 20
9.79501
 11
32.5478
 21
9.83218
  0
LINE
  8
0
 10
32.5478
 20
9.83218
 11
32.6273
 21
9.85873
  0
LINE
  8
0
 10
32.6273
 20
9.85873
 11
32.716
 21
9.87466
  0
LINE
  8
0
 10
32.716
 20
9.87466
 11
32.8138
 21
9.87997
  0
LINE
  8
0
 10
32.8138
 20
9.87997
 11
32.9081
 21
9.87459
  0
LINE
  8
0
 10
32.9081
 20
9.87459
 11
32.9916
 21
9.8584
  0
LINE
  8
0
 10
32.9916
 20
9.8584
 11
33.0644
 21
9.83144
  0
LINE
  8
0
 10
33.0644
 20
9.83144
 11
33.1266
 21
9.79369
  0
LINE
  8
0
 10
33.1266
 20
9.79369
 11
33.1763
 21
9.74599
  0
LINE
  8
0
 10
33.1763
 20
9.74599
 11
33.2118
 21
9.68922
  0
LINE
  8
0
 10
33.2118
 20
9.68922
 11
33.2331
 21
9.62338
  0
LINE
  8
0
 10
33.2331
 20
9.62338
 11
33.2402
 21
9.54846
  0
LINE
  8
0
 10
33.2402
 20
9.54846
 11
33.2402
 21
9.53751
  0
LINE
  8
0
 10
33.2402
 20
9.53751
 11
33.2294
 21
9.4722
  0
LINE
  8
0
 10
33.2294
 20
9.4722
 11
33.197
 21
9.41869
  0
LINE
  8
0
 10
33.197
 20
9.41869
 11
33.1431
 21
9.377
  0
LINE
  8
0
 10
33.1431
 20
9.377
 11
33.0677
 21
9.34711
  0
LINE
  8
0
 10
33.0677
 20
9.34711
 11
32.9673
 21
9.32408
  0
LINE
  8
0
 10
32.9673
 20
9.32408
 11
32.8387
 21
9.30293
  0
LINE
  8
0
 10
32.8387
 20
9.30293
 11
32.6819
 21
9.28366
  0
LINE
  8
0
 10
32.6819
 20
9.28366
 11
32.4969
 21
9.26628
  0
LINE
  8
0
 10
32.4969
 20
9.26628
 11
32.3417
 21
9.24831
  0
LINE
  8
0
 10
32.3417
 20
9.24831
 11
32.193
 21
9.22176
  0
LINE
  8
0
 10
32.193
 20
9.22176
 11
32.0507
 21
9.18665
  0
LINE
  8
0
 10
32.0507
 20
9.18665
 11
31.9149
 21
9.14297
  0
LINE
  8
0
 10
31.9149
 20
9.14297
 11
31.789
 21
9.08853
  0
LINE
  8
0
 10
31.789
 20
9.08853
 11
31.6762
 21
9.02107
  0
LINE
  8
0
 10
31.6762
 20
9.02107
 11
31.5765
 21
8.9406
  0
LINE
  8
0
 10
31.5765
 20
8.9406
 11
31.49
 21
8.84709
  0
LINE
  8
0
 10
31.49
 20
8.84709
 11
31.4201
 21
8.73837
  0
LINE
  8
0
 10
31.4201
 20
8.73837
 11
31.3701
 21
8.61218
  0
LINE
  8
0
 10
31.3701
 20
8.61218
 11
31.3401
 21
8.46851
  0
LINE
  8
0
 10
31.3401
 20
8.46851
 11
31.3302
 21
8.30737
  0
LINE
  8
0
 10
31.3302
 20
8.30737
 11
31.3483
 21
8.09436
  0
LINE
  8
0
 10
31.3483
 20
8.09436
 11
31.4027
 21
7.91013
  0
LINE
  8
0
 10
31.4027
 20
7.91013
 11
31.4934
 21
7.75465
  0
LINE
  8
0
 10
31.4934
 20
7.75465
 11
31.6204
 21
7.62794
  0
LINE
  8
0
 10
31.6204
 20
7.62794
 11
31.7757
 21
7.52965
  0
LINE
  8
0
 10
31.7757
 20
7.52965
 11
31.951
 21
7.45944
  0
LINE
  8
0
 10
31.951
 20
7.45944
 11
32.1466
 21
7.41733
  0
LINE
  8
0
 10
32.1466
 20
7.41733
 11
32.3623
 21
7.40329
  0
LINE
  8
0
 10
32.3623
 20
7.40329
 11
32.662
 21
7.43359
  0
LINE
  8
0
 10
32.5752
 20
8.04118
 11
32.4987
 21
8.05634
  0
LINE
  8
0
 10
32.4987
 20
8.05634
 11
32.4301
 21
8.0816
  0
LINE
  8
0
 10
32.4301
 20
8.0816
 11
32.3693
 21
8.11697
  0
LINE
  8
0
 10
32.3693
 20
8.11697
 11
32.3196
 21
8.16193
  0
LINE
  8
0
 10
32.3196
 20
8.16193
 11
32.2841
 21
8.21594
  0
LINE
  8
0
 10
32.2841
 20
8.21594
 11
32.2628
 21
8.27904
  0
LINE
  8
0
 10
32.2628
 20
8.27904
 11
32.2557
 21
8.3512
  0
LINE
  8
0
 10
32.2557
 20
8.3512
 11
32.284
 21
8.48596
  0
LINE
  8
0
 10
32.284
 20
8.48596
 11
32.3686
 21
8.59161
  0
LINE
  8
0
 10
32.3686
 20
8.59161
 11
32.5097
 21
8.66815
  0
LINE
  8
0
 10
32.5097
 20
8.66815
 11
32.7073
 21
8.71559
  0
LINE
  8
0
 10
32.7073
 20
8.71559
 11
32.7774
 21
8.72707
  0
LINE
  8
0
 10
32.7774
 20
8.72707
 11
32.8503
 21
8.73955
  0
LINE
  8
0
 10
32.8503
 20
8.73955
 11
32.926
 21
8.75308
  0
LINE
  8
0
 10
32.926
 20
8.75308
 11
33.0045
 21
8.76764
  0
LINE
  8
0
 10
33.0045
 20
8.76764
 11
33.0798
 21
8.78355
  0
LINE
  8
0
 10
33.0798
 20
8.78355
 11
33.1455
 21
8.80121
  0
LINE
  8
0
 10
33.1455
 20
8.80121
 11
33.2018
 21
8.82057
  0
LINE
  8
0
 10
33.2018
 20
8.82057
 11
33.2486
 21
8.84164
  0
LINE
  8
0
 10
33.2486
 20
8.84164
 11
33.2486
 21
8.54848
  0
LINE
  8
0
 10
33.2486
 20
8.54848
 11
33.2379
 21
8.44006
  0
LINE
  8
0
 10
33.2379
 20
8.44006
 11
33.2058
 21
8.34229
  0
LINE
  8
0
 10
33.2058
 20
8.34229
 11
33.1524
 21
8.25513
  0
LINE
  8
0
 10
33.1524
 20
8.25513
 11
33.0775
 21
8.17857
  0
LINE
  8
0
 10
33.0775
 20
8.17857
 11
32.9872
 21
8.11626
  0
LINE
  8
0
 10
32.9872
 20
8.11626
 11
32.8875
 21
8.07175
  0
LINE
  8
0
 10
32.8875
 20
8.07175
 11
32.7783
 21
8.04503
  0
LINE
  8
0
 10
32.7783
 20
8.04503
 11
32.6596
 21
8.03613
  0
LINE
  8
0
 10
32.6596
 20
8.03613
 11
32.5752
 21
8.04118
  0
LINE
  8
0
 10
25.5829
 20
10.5211
 11
24.604
 21
10.5211
  0
LINE
  8
0
 10
24.604
 20
10.5211
 11
24.604
 21
7.45805
  0
LINE
  8
0
 10
24.604
 20
7.45805
 11
25.5829
 21
7.45805
  0
LINE
  8
0
 10
25.5829
 20
7.45805
 11
25.5829
 21
10.5211
  0
LINE
  8
0
 10
9.42647
 20
1.4286
 11
9.48474
 21
1.49341
  0
LINE
  8
0
 10
9.48474
 20
1.49341
 11
9.53957
 21
1.55925
  0
LINE
  8
0
 10
9.53957
 20
1.55925
 11
9.59096
 21
1.62634
  0
LINE
  8
0
 10
9.59096
 20
1.62634
 11
9.63896
 21
1.69484
  0
LINE
  8
0
 10
9.63896
 20
1.69484
 11
9.68361
 21
1.76494
  0
LINE
  8
0
 10
9.68361
 20
1.76494
 11
9.72495
 21
1.83679
  0
LINE
  8
0
 10
9.72495
 20
1.83679
 11
9.763
 21
1.91058
  0
LINE
  8
0
 10
9.763
 20
1.91058
 11
9.79781
 21
1.9865
  0
LINE
  8
0
 10
9.79781
 20
1.9865
 11
9.82941
 21
2.0647
  0
LINE
  8
0
 10
9.82941
 20
2.0647
 11
9.85782
 21
2.14537
  0
LINE
  8
0
 10
9.85782
 20
2.14537
 11
9.8831
 21
2.2287
  0
LINE
  8
0
 10
9.8831
 20
2.2287
 11
9.90527
 21
2.31485
  0
LINE
  8
0
 10
9.90527
 20
2.31485
 11
9.92436
 21
2.40399
  0
LINE
  8
0
 10
9.92436
 20
2.40399
 11
9.94043
 21
2.49632
  0
LINE
  8
0
 10
9.94043
 20
2.49632
 11
9.95349
 21
2.592
  0
LINE
  8
0
 10
9.95349
 20
2.592
 11
9.96359
 21
2.69119
  0
LINE
  8
0
 10
9.96359
 20
2.69119
 11
9.97076
 21
2.79411
  0
LINE
  8
0
 10
9.97076
 20
2.79411
 11
9.97505
 21
2.90091
  0
LINE
  8
0
 10
9.97505
 20
2.90091
 11
9.97646
 21
3.01176
  0
LINE
  8
0
 10
9.97646
 20
3.01176
 11
9.97646
 21
10.3059
  0
LINE
  8
0
 10
9.97646
 20
10.3059
 11
7.01176
 21
8.70587
  0
LINE
  8
0
 10
7.01176
 20
8.70587
 11
7.01176
 21
2.91763
  0
LINE
  8
0
 10
7.01176
 20
2.91763
 11
9.3647
 21
1.3647
  0
LINE
  8
0
 10
9.3647
 20
1.3647
 11
9.42647
 21
1.4286
  0
LINE
  8
0
 10
42.5287
 20
7.4097
 11
42.6275
 21
7.43718
  0
LINE
  8
0
 10
42.6275
 20
7.43718
 11
42.7173
 21
7.48297
  0
LINE
  8
0
 10
42.7173
 20
7.48297
 11
42.7982
 21
7.5471
  0
LINE
  8
0
 10
42.7982
 20
7.5471
 11
42.8651
 21
7.62476
  0
LINE
  8
0
 10
42.8651
 20
7.62476
 11
42.9129
 21
7.71114
  0
LINE
  8
0
 10
42.9129
 20
7.71114
 11
42.9415
 21
7.80627
  0
LINE
  8
0
 10
42.9415
 20
7.80627
 11
42.9511
 21
7.91013
  0
LINE
  8
0
 10
42.9511
 20
7.91013
 11
42.9415
 21
8.01517
  0
LINE
  8
0
 10
42.9415
 20
8.01517
 11
42.9129
 21
8.11115
  0
LINE
  8
0
 10
42.9129
 20
8.11115
 11
42.8651
 21
8.19804
  0
LINE
  8
0
 10
42.8651
 20
8.19804
 11
42.7982
 21
8.27586
  0
LINE
  8
0
 10
42.7982
 20
8.27586
 11
42.7173
 21
8.34
  0
LINE
  8
0
 10
42.7173
 20
8.34
 11
42.6275
 21
8.38582
  0
LINE
  8
0
 10
42.6275
 20
8.38582
 11
42.5287
 21
8.4133
  0
LINE
  8
0
 10
42.5287
 20
8.4133
 11
42.421
 21
8.42247
  0
LINE
  8
0
 10
42.421
 20
8.42247
 11
42.3133
 21
8.4133
  0
LINE
  8
0
 10
42.3133
 20
8.4133
 11
42.2145
 21
8.38582
  0
LINE
  8
0
 10
42.2145
 20
8.38582
 11
42.1247
 21
8.34
  0
LINE
  8
0
 10
42.1247
 20
8.34
 11
42.0438
 21
8.27586
  0
LINE
  8
0
 10
42.0438
 20
8.27586
 11
41.9769
 21
8.19804
  0
LINE
  8
0
 10
41.9769
 20
8.19804
 11
41.9291
 21
8.11115
  0
LINE
  8
0
 10
41.9291
 20
8.11115
 11
41.9005
 21
8.01517
  0
LINE
  8
0
 10
41.9005
 20
8.01517
 11
41.8909
 21
7.91013
  0
LINE
  8
0
 10
41.8909
 20
7.91013
 11
41.9005
 21
7.80627
  0
LINE
  8
0
 10
41.9005
 20
7.80627
 11
41.9291
 21
7.71114
  0
LINE
  8
0
 10
41.9291
 20
7.71114
 11
41.9769
 21
7.62476
  0
LINE
  8
0
 10
41.9769
 20
7.62476
 11
42.0438
 21
7.5471
  0
LINE
  8
0
 10
42.0438
 20
7.5471
 11
42.1247
 21
7.48297
  0
LINE
  8
0
 10
42.1247
 20
7.48297
 11
42.2145
 21
7.43718
  0
LINE
  8
0
 10
42.2145
 20
7.43718
 11
42.3133
 21
7.4097
  0
LINE
  8
0
 10
42.3133
 20
7.4097
 11
42.421
 21
7.40053
  0
LINE
  8
0
 10
42.421
 20
7.40053
 11
42.5287
 21
7.4097
  0
LINE
  8
0
 10
61.332
 20
1.83243
 11
61.6354
 21
1.92126
  0
LINE
  8
0
 10
61.6354
 20
1.92126
 11
61.8982
 21
2.06932
  0
LINE
  8
0
 10
61.8982
 20
2.06932
 11
62.1203
 21
2.27663
  0
LINE
  8
0
 10
62.1203
 20
2.27663
 11
62.2969
 21
2.53696
  0
LINE
  8
0
 10
62.2969
 20
2.53696
 11
62.4231
 21
2.84418
  0
LINE
  8
0
 10
62.4231
 20
2.84418
 11
62.4987
 21
3.19829
  0
LINE
  8
0
 10
62.4987
 20
3.19829
 11
62.524
 21
3.59927
  0
LINE
  8
0
 10
62.524
 20
3.59927
 11
62.5126
 21
3.87241
  0
LINE
  8
0
 10
62.5126
 20
3.87241
 11
62.4783
 21
4.12511
  0
LINE
  8
0
 10
62.4783
 20
4.12511
 11
62.4211
 21
4.35738
  0
LINE
  8
0
 10
62.4211
 20
4.35738
 11
62.3411
 21
4.56921
  0
LINE
  8
0
 10
62.3411
 20
4.56921
 11
62.2397
 21
4.75902
  0
LINE
  8
0
 10
62.2397
 20
4.75902
 11
62.1182
 21
4.92516
  0
LINE
  8
0
 10
62.1182
 20
4.92516
 11
61.9765
 21
5.06764
  0
LINE
  8
0
 10
61.9765
 20
5.06764
 11
61.8148
 21
5.18646
  0
LINE
  8
0
 10
61.8148
 20
5.18646
 11
61.6343
 21
5.28009
  0
LINE
  8
0
 10
61.6343
 20
5.28009
 11
61.4363
 21
5.34695
  0
LINE
  8
0
 10
61.4363
 20
5.34695
 11
61.2208
 21
5.38708
  0
LINE
  8
0
 10
61.2208
 20
5.38708
 11
60.9879
 21
5.40045
  0
LINE
  8
0
 10
60.9879
 20
5.40045
 11
60.6458
 21
5.37077
  0
LINE
  8
0
 10
60.6458
 20
5.37077
 11
60.3434
 21
5.28171
  0
LINE
  8
0
 10
60.3434
 20
5.28171
 11
60.0808
 21
5.13326
  0
LINE
  8
0
 10
60.0808
 20
5.13326
 11
59.8579
 21
4.92545
  0
LINE
  8
0
 10
59.8579
 20
4.92545
 11
59.6802
 21
4.66444
  0
LINE
  8
0
 10
59.6802
 20
4.66444
 11
59.5533
 21
4.35641
  0
LINE
  8
0
 10
59.5533
 20
4.35641
 11
59.4772
 21
4.00136
  0
LINE
  8
0
 10
59.4772
 20
4.00136
 11
59.4518
 21
3.59927
  0
LINE
  8
0
 10
59.4518
 20
3.59927
 11
59.4772
 21
3.19734
  0
LINE
  8
0
 10
59.4772
 20
3.19734
 11
59.5533
 21
2.84271
  0
LINE
  8
0
 10
59.5533
 20
2.84271
 11
59.6802
 21
2.53542
  0
LINE
  8
0
 10
59.6802
 20
2.53542
 11
59.8579
 21
2.27544
  0
LINE
  8
0
 10
59.8579
 20
2.27544
 11
60.0808
 21
2.06866
  0
LINE
  8
0
 10
60.0808
 20
2.06866
 11
60.3434
 21
1.92097
  0
LINE
  8
0
 10
60.3434
 20
1.92097
 11
60.6458
 21
1.83235
  0
LINE
  8
0
 10
60.6458
 20
1.83235
 11
60.9879
 21
1.80281
  0
LINE
  8
0
 10
60.9879
 20
1.80281
 11
61.332
 21
1.83243
  0
LINE
  8
0
 10
60.8412
 20
2.50044
 11
60.7128
 21
2.55467
  0
LINE
  8
0
 10
60.7128
 20
2.55467
 11
60.6026
 21
2.64505
  0
LINE
  8
0
 10
60.6026
 20
2.64505
 11
60.5106
 21
2.77158
  0
LINE
  8
0
 10
60.5106
 20
2.77158
 11
60.4382
 21
2.93176
  0
LINE
  8
0
 10
60.4382
 20
2.93176
 11
60.3864
 21
3.12312
  0
LINE
  8
0
 10
60.3864
 20
3.12312
 11
60.3553
 21
3.34563
  0
LINE
  8
0
 10
60.3553
 20
3.34563
 11
60.345
 21
3.59927
  0
LINE
  8
0
 10
60.345
 20
3.59927
 11
60.3554
 21
3.85419
  0
LINE
  8
0
 10
60.3554
 20
3.85419
 11
60.3867
 21
4.07808
  0
LINE
  8
0
 10
60.3867
 20
4.07808
 11
60.4388
 21
4.27097
  0
LINE
  8
0
 10
60.4388
 20
4.27097
 11
60.5118
 21
4.43285
  0
LINE
  8
0
 10
60.5118
 20
4.43285
 11
60.6041
 21
4.56093
  0
LINE
  8
0
 10
60.6041
 20
4.56093
 11
60.7143
 21
4.6524
  0
LINE
  8
0
 10
60.7143
 20
4.6524
 11
60.8422
 21
4.70729
  0
LINE
  8
0
 10
60.8422
 20
4.70729
 11
60.9879
 21
4.72559
  0
LINE
  8
0
 10
60.9879
 20
4.72559
 11
61.1346
 21
4.70729
  0
LINE
  8
0
 10
61.1346
 20
4.70729
 11
61.2633
 21
4.6524
  0
LINE
  8
0
 10
61.2633
 20
4.6524
 11
61.3739
 21
4.56093
  0
LINE
  8
0
 10
61.3739
 20
4.56093
 11
61.4664
 21
4.43285
  0
LINE
  8
0
 10
61.4664
 20
4.43285
 11
61.5394
 21
4.27097
  0
LINE
  8
0
 10
61.5394
 20
4.27097
 11
61.5915
 21
4.07808
  0
LINE
  8
0
 10
61.5915
 20
4.07808
 11
61.6228
 21
3.85419
  0
LINE
  8
0
 10
61.6228
 20
3.85419
 11
61.6332
 21
3.59927
  0
LINE
  8
0
 10
61.6332
 20
3.59927
 11
61.6228
 21
3.34563
  0
LINE
  8
0
 10
61.6228
 20
3.34563
 11
61.5915
 21
3.12312
  0
LINE
  8
0
 10
61.5915
 20
3.12312
 11
61.5394
 21
2.93176
  0
LINE
  8
0
 10
61.5394
 20
2.93176
 11
61.4664
 21
2.77158
  0
LINE
  8
0
 10
61.4664
 20
2.77158
 11
61.3739
 21
2.64505
  0
LINE
  8
0
 10
61.3739
 20
2.64505
 11
61.2633
 21
2.55467
  0
LINE
  8
0
 10
61.2633
 20
2.55467
 11
61.1346
 21
2.50044
  0
LINE
  8
0
 10
61.1346
 20
2.50044
 11
60.9879
 21
2.48238
  0
LINE
  8
0
 10
60.9879
 20
2.48238
 11
60.8412
 21
2.50044
  0
LINE
  8
0
 10
56.3956
 20
1.81119
 11
56.5906
 21
1.83632
  0
LINE
  8
0
 10
56.5906
 20
1.83632
 11
56.7734
 21
1.8782
  0
LINE
  8
0
 10
56.7734
 20
1.8782
 11
56.944
 21
1.93683
  0
LINE
  8
0
 10
56.944
 20
1.93683
 11
57.0994
 21
2.01009
  0
LINE
  8
0
 10
57.0994
 20
2.01009
 11
57.2369
 21
2.09584
  0
LINE
  8
0
 10
57.2369
 20
2.09584
 11
57.3565
 21
2.19408
  0
LINE
  8
0
 10
57.3565
 20
2.19408
 11
57.4581
 21
2.30481
  0
LINE
  8
0
 10
57.4581
 20
2.30481
 11
57.5391
 21
2.42613
  0
LINE
  8
0
 10
57.5391
 20
2.42613
 11
57.597
 21
2.55612
  0
LINE
  8
0
 10
57.597
 20
2.55612
 11
57.6317
 21
2.69479
  0
LINE
  8
0
 10
57.6317
 20
2.69479
 11
57.6433
 21
2.84213
  0
LINE
  8
0
 10
57.6433
 20
2.84213
 11
57.6299
 21
2.9976
  0
LINE
  8
0
 10
57.6299
 20
2.9976
 11
57.5896
 21
3.13956
  0
LINE
  8
0
 10
57.5896
 20
3.13956
 11
57.5225
 21
3.26801
  0
LINE
  8
0
 10
57.5225
 20
3.26801
 11
57.4286
 21
3.38292
  0
LINE
  8
0
 10
57.4286
 20
3.38292
 11
57.3084
 21
3.48067
  0
LINE
  8
0
 10
57.3084
 20
3.48067
 11
57.1627
 21
3.55753
  0
LINE
  8
0
 10
57.1627
 20
3.55753
 11
56.9913
 21
3.61353
  0
LINE
  8
0
 10
56.9913
 20
3.61353
 11
56.7943
 21
3.64865
  0
LINE
  8
0
 10
56.7943
 20
3.64865
 11
56.7943
 21
3.67451
  0
LINE
  8
0
 10
56.7943
 20
3.67451
 11
56.9453
 21
3.70612
  0
LINE
  8
0
 10
56.9453
 20
3.70612
 11
57.0817
 21
3.75621
  0
LINE
  8
0
 10
57.0817
 20
3.75621
 11
57.2036
 21
3.82484
  0
LINE
  8
0
 10
57.2036
 20
3.82484
 11
57.3108
 21
3.91199
  0
LINE
  8
0
 10
57.3108
 20
3.91199
 11
57.3983
 21
4.01472
  0
LINE
  8
0
 10
57.3983
 20
4.01472
 11
57.4608
 21
4.1301
  0
LINE
  8
0
 10
57.4608
 20
4.1301
 11
57.4983
 21
4.2581
  0
LINE
  8
0
 10
57.4983
 20
4.2581
 11
57.5108
 21
4.39876
  0
LINE
  8
0
 10
57.5108
 20
4.39876
 11
57.5005
 21
4.5374
  0
LINE
  8
0
 10
57.5005
 20
4.5374
 11
57.4694
 21
4.66885
  0
LINE
  8
0
 10
57.4694
 20
4.66885
 11
57.4176
 21
4.79311
  0
LINE
  8
0
 10
57.4176
 20
4.79311
 11
57.3452
 21
4.91016
  0
LINE
  8
0
 10
57.3452
 20
4.91016
 11
57.2542
 21
5.01767
  0
LINE
  8
0
 10
57.2542
 20
5.01767
 11
57.147
 21
5.11327
  0
LINE
  8
0
 10
57.147
 20
5.11327
 11
57.0236
 21
5.19698
  0
LINE
  8
0
 10
57.0236
 20
5.19698
 11
56.8839
 21
5.26877
  0
LINE
  8
0
 10
56.8839
 20
5.26877
 11
56.7303
 21
5.32639
  0
LINE
  8
0
 10
56.7303
 20
5.32639
 11
56.5652
 21
5.36754
  0
LINE
  8
0
 10
56.5652
 20
5.36754
 11
56.3886
 21
5.39223
  0
LINE
  8
0
 10
56.3886
 20
5.39223
 11
56.2005
 21
5.40045
  0
LINE
  8
0
 10
56.2005
 20
5.40045
 11
56.0095
 21
5.39201
  0
LINE
  8
0
 10
56.0095
 20
5.39201
 11
55.829
 21
5.36665
  0
LINE
  8
0
 10
55.829
 20
5.36665
 11
55.6592
 21
5.3244
  0
LINE
  8
0
 10
55.6592
 20
5.3244
 11
55.4999
 21
5.26523
  0
LINE
  8
0
 10
55.4999
 20
5.26523
 11
55.3541
 21
5.19124
  0
LINE
  8
0
 10
55.3541
 20
5.19124
 11
55.2245
 21
5.10446
  0
LINE
  8
0
 10
55.2245
 20
5.10446
 11
55.1111
 21
5.0049
  0
LINE
  8
0
 10
55.1111
 20
5.0049
 11
55.0141
 21
4.89253
  0
LINE
  8
0
 10
55.0141
 20
4.89253
 11
54.9361
 21
4.76924
  0
LINE
  8
0
 10
54.9361
 20
4.76924
 11
54.88
 21
4.63684
  0
LINE
  8
0
 10
54.88
 20
4.63684
 11
54.8459
 21
4.49532
  0
LINE
  8
0
 10
54.8459
 20
4.49532
 11
54.8337
 21
4.34468
  0
LINE
  8
0
 10
54.8337
 20
4.34468
 11
55.6656
 21
4.34468
  0
LINE
  8
0
 10
55.6656
 20
4.34468
 11
55.6762
 21
4.43181
  0
LINE
  8
0
 10
55.6762
 20
4.43181
 11
55.7057
 21
4.50984
  0
LINE
  8
0
 10
55.7057
 20
4.50984
 11
55.7541
 21
4.57875
  0
LINE
  8
0
 10
55.7541
 20
4.57875
 11
55.8213
 21
4.63857
  0
LINE
  8
0
 10
55.8213
 20
4.63857
 11
55.9024
 21
4.68692
  0
LINE
  8
0
 10
55.9024
 20
4.68692
 11
55.9922
 21
4.72147
  0
LINE
  8
0
 10
55.9922
 20
4.72147
 11
56.0907
 21
4.74219
  0
LINE
  8
0
 10
56.0907
 20
4.74219
 11
56.198
 21
4.7491
  0
LINE
  8
0
 10
56.198
 20
4.7491
 11
56.2986
 21
4.74211
  0
LINE
  8
0
 10
56.2986
 20
4.74211
 11
56.3894
 21
4.72118
  0
LINE
  8
0
 10
56.3894
 20
4.72118
 11
56.4704
 21
4.68628
  0
LINE
  8
0
 10
56.4704
 20
4.68628
 11
56.5415
 21
4.63742
  0
LINE
  8
0
 10
56.5415
 20
4.63742
 11
56.5995
 21
4.57739
  0
LINE
  8
0
 10
56.5995
 20
4.57739
 11
56.6409
 21
4.50899
  0
LINE
  8
0
 10
56.6409
 20
4.50899
 11
56.6658
 21
4.43219
  0
LINE
  8
0
 10
56.6658
 20
4.43219
 11
56.674
 21
4.34703
  0
LINE
  8
0
 10
56.674
 20
4.34703
 11
56.6644
 21
4.25848
  0
LINE
  8
0
 10
56.6644
 20
4.25848
 11
56.6354
 21
4.1786
  0
LINE
  8
0
 10
56.6354
 20
4.1786
 11
56.5871
 21
4.10739
  0
LINE
  8
0
 10
56.5871
 20
4.10739
 11
56.5194
 21
4.04486
  0
LINE
  8
0
 10
56.5194
 20
4.04486
 11
56.4366
 21
3.99394
  0
LINE
  8
0
 10
56.4366
 20
3.99394
 11
56.3428
 21
3.95757
  0
LINE
  8
0
 10
56.3428
 20
3.95757
 11
56.2379
 21
3.93575
  0
LINE
  8
0
 10
56.2379
 20
3.93575
 11
56.1219
 21
3.92847
  0
LINE
  8
0
 10
56.1219
 20
3.92847
 11
55.7661
 21
3.92847
  0
LINE
  8
0
 10
55.7661
 20
3.92847
 11
55.7661
 21
3.33591
  0
LINE
  8
0
 10
55.7661
 20
3.33591
 11
56.1219
 21
3.33591
  0
LINE
  8
0
 10
56.1219
 20
3.33591
 11
56.2548
 21
3.32841
  0
LINE
  8
0
 10
56.2548
 20
3.32841
 11
56.3735
 21
3.30592
  0
LINE
  8
0
 10
56.3735
 20
3.30592
 11
56.4781
 21
3.26845
  0
LINE
  8
0
 10
56.4781
 20
3.26845
 11
56.5685
 21
3.21597
  0
LINE
  8
0
 10
56.5685
 20
3.21597
 11
56.6415
 21
3.15161
  0
LINE
  8
0
 10
56.6415
 20
3.15161
 11
56.6937
 21
3.07843
  0
LINE
  8
0
 10
56.6937
 20
3.07843
 11
56.725
 21
2.99643
  0
LINE
  8
0
 10
56.725
 20
2.99643
 11
56.7354
 21
2.90561
  0
LINE
  8
0
 10
56.7354
 20
2.90561
 11
56.726
 21
2.81494
  0
LINE
  8
0
 10
56.726
 20
2.81494
 11
56.6977
 21
2.73338
  0
LINE
  8
0
 10
56.6977
 20
2.73338
 11
56.6505
 21
2.66093
  0
LINE
  8
0
 10
56.6505
 20
2.66093
 11
56.5845
 21
2.59758
  0
LINE
  8
0
 10
56.5845
 20
2.59758
 11
56.5036
 21
2.54614
  0
LINE
  8
0
 10
56.5036
 20
2.54614
 11
56.4118
 21
2.5094
  0
LINE
  8
0
 10
56.4118
 20
2.5094
 11
56.3091
 21
2.48735
  0
LINE
  8
0
 10
56.3091
 20
2.48735
 11
56.1956
 21
2.48001
  0
LINE
  8
0
 10
56.1956
 20
2.48001
 11
56.0804
 21
2.48677
  0
LINE
  8
0
 10
56.0804
 20
2.48677
 11
55.9753
 21
2.50705
  0
LINE
  8
0
 10
55.9753
 20
2.50705
 11
55.8804
 21
2.54085
  0
LINE
  8
0
 10
55.8804
 20
2.54085
 11
55.7956
 21
2.58815
  0
LINE
  8
0
 10
55.7956
 20
2.58815
 11
55.7255
 21
2.6465
  0
LINE
  8
0
 10
55.7255
 20
2.6465
 11
55.6747
 21
2.71338
  0
LINE
  8
0
 10
55.6747
 20
2.71338
 11
55.6433
 21
2.78877
  0
LINE
  8
0
 10
55.6433
 20
2.78877
 11
55.6312
 21
2.87268
  0
LINE
  8
0
 10
55.6312
 20
2.87268
 11
54.7625
 21
2.87268
  0
LINE
  8
0
 10
54.7625
 20
2.87268
 11
54.7751
 21
2.71977
  0
LINE
  8
0
 10
54.7751
 20
2.71977
 11
54.8104
 21
2.57611
  0
LINE
  8
0
 10
54.8104
 20
2.57611
 11
54.8684
 21
2.44171
  0
LINE
  8
0
 10
54.8684
 20
2.44171
 11
54.949
 21
2.31656
  0
LINE
  8
0
 10
54.949
 20
2.31656
 11
55.0496
 21
2.20259
  0
LINE
  8
0
 10
55.0496
 20
2.20259
 11
55.1671
 21
2.10172
  0
LINE
  8
0
 10
55.1671
 20
2.10172
 11
55.3017
 21
2.01392
  0
LINE
  8
0
 10
55.3017
 20
2.01392
 11
55.4533
 21
1.93918
  0
LINE
  8
0
 10
55.4533
 20
1.93918
 11
55.6193
 21
1.87952
  0
LINE
  8
0
 10
55.6193
 20
1.87952
 11
55.7971
 21
1.8369
  0
LINE
  8
0
 10
55.7971
 20
1.8369
 11
55.9868
 21
1.81134
  0
LINE
  8
0
 10
55.9868
 20
1.81134
 11
56.1882
 21
1.80281
  0
LINE
  8
0
 10
56.1882
 20
1.80281
 11
56.3956
 21
1.81119
  0
LINE
  8
0
 10
51.7587
 20
1.83243
 11
52.0621
 21
1.92126
  0
LINE
  8
0
 10
52.0621
 20
1.92126
 11
52.3249
 21
2.06932
  0
LINE
  8
0
 10
52.3249
 20
2.06932
 11
52.547
 21
2.27663
  0
LINE
  8
0
 10
52.547
 20
2.27663
 11
52.7236
 21
2.53696
  0
LINE
  8
0
 10
52.7236
 20
2.53696
 11
52.8498
 21
2.84418
  0
LINE
  8
0
 10
52.8498
 20
2.84418
 11
52.9254
 21
3.19829
  0
LINE
  8
0
 10
52.9254
 20
3.19829
 11
52.9507
 21
3.59927
  0
LINE
  8
0
 10
52.9507
 20
3.59927
 11
52.9393
 21
3.87241
  0
LINE
  8
0
 10
52.9393
 20
3.87241
 11
52.905
 21
4.12511
  0
LINE
  8
0
 10
52.905
 20
4.12511
 11
52.8478
 21
4.35738
  0
LINE
  8
0
 10
52.8478
 20
4.35738
 11
52.7679
 21
4.56921
  0
LINE
  8
0
 10
52.7679
 20
4.56921
 11
52.6664
 21
4.75902
  0
LINE
  8
0
 10
52.6664
 20
4.75902
 11
52.5449
 21
4.92516
  0
LINE
  8
0
 10
52.5449
 20
4.92516
 11
52.4032
 21
5.06764
  0
LINE
  8
0
 10
52.4032
 20
5.06764
 11
52.2415
 21
5.18646
  0
LINE
  8
0
 10
52.2415
 20
5.18646
 11
52.061
 21
5.28009
  0
LINE
  8
0
 10
52.061
 20
5.28009
 11
51.863
 21
5.34695
  0
LINE
  8
0
 10
51.863
 20
5.34695
 11
51.6475
 21
5.38708
  0
LINE
  8
0
 10
51.6475
 20
5.38708
 11
51.4146
 21
5.40045
  0
LINE
  8
0
 10
51.4146
 20
5.40045
 11
51.0725
 21
5.37077
  0
LINE
  8
0
 10
51.0725
 20
5.37077
 11
50.7701
 21
5.28171
  0
LINE
  8
0
 10
50.7701
 20
5.28171
 11
50.5075
 21
5.13326
  0
LINE
  8
0
 10
50.5075
 20
5.13326
 11
50.2846
 21
4.92545
  0
LINE
  8
0
 10
50.2846
 20
4.92545
 11
50.1069
 21
4.66444
  0
LINE
  8
0
 10
50.1069
 20
4.66444
 11
49.98
 21
4.35641
  0
LINE
  8
0
 10
49.98
 20
4.35641
 11
49.9039
 21
4.00136
  0
LINE
  8
0
 10
49.9039
 20
4.00136
 11
49.8785
 21
3.59927
  0
LINE
  8
0
 10
49.8785
 20
3.59927
 11
49.9039
 21
3.19734
  0
LINE
  8
0
 10
49.9039
 20
3.19734
 11
49.98
 21
2.84271
  0
LINE
  8
0
 10
49.98
 20
2.84271
 11
50.1069
 21
2.53542
  0
LINE
  8
0
 10
50.1069
 20
2.53542
 11
50.2846
 21
2.27544
  0
LINE
  8
0
 10
50.2846
 20
2.27544
 11
50.5075
 21
2.06866
  0
LINE
  8
0
 10
50.5075
 20
2.06866
 11
50.7701
 21
1.92097
  0
LINE
  8
0
 10
50.7701
 20
1.92097
 11
51.0725
 21
1.83235
  0
LINE
  8
0
 10
51.0725
 20
1.83235
 11
51.4146
 21
1.80281
  0
LINE
  8
0
 10
51.4146
 20
1.80281
 11
51.7587
 21
1.83243
  0
LINE
  8
0
 10
51.2679
 20
2.50044
 11
51.1395
 21
2.55467
  0
LINE
  8
0
 10
51.1395
 20
2.55467
 11
51.0293
 21
2.64505
  0
LINE
  8
0
 10
51.0293
 20
2.64505
 11
50.9373
 21
2.77158
  0
LINE
  8
0
 10
50.9373
 20
2.77158
 11
50.8649
 21
2.93176
  0
LINE
  8
0
 10
50.8649
 20
2.93176
 11
50.8131
 21
3.12312
  0
LINE
  8
0
 10
50.8131
 20
3.12312
 11
50.782
 21
3.34563
  0
LINE
  8
0
 10
50.782
 20
3.34563
 11
50.7717
 21
3.59927
  0
LINE
  8
0
 10
50.7717
 20
3.59927
 11
50.7821
 21
3.85419
  0
LINE
  8
0
 10
50.7821
 20
3.85419
 11
50.8134
 21
4.07808
  0
LINE
  8
0
 10
50.8134
 20
4.07808
 11
50.8655
 21
4.27097
  0
LINE
  8
0
 10
50.8655
 20
4.27097
 11
50.9385
 21
4.43285
  0
LINE
  8
0
 10
50.9385
 20
4.43285
 11
51.0308
 21
4.56093
  0
LINE
  8
0
 10
51.0308
 20
4.56093
 11
51.141
 21
4.6524
  0
LINE
  8
0
 10
51.141
 20
4.6524
 11
51.2689
 21
4.70729
  0
LINE
  8
0
 10
51.2689
 20
4.70729
 11
51.4146
 21
4.72559
  0
LINE
  8
0
 10
51.4146
 20
4.72559
 11
51.5613
 21
4.70729
  0
LINE
  8
0
 10
51.5613
 20
4.70729
 11
51.69
 21
4.6524
  0
LINE
  8
0
 10
51.69
 20
4.6524
 11
51.8006
 21
4.56093
  0
LINE
  8
0
 10
51.8006
 20
4.56093
 11
51.8931
 21
4.43285
  0
LINE
  8
0
 10
51.8931
 20
4.43285
 11
51.9661
 21
4.27097
  0
LINE
  8
0
 10
51.9661
 20
4.27097
 11
52.0182
 21
4.07808
  0
LINE
  8
0
 10
52.0182
 20
4.07808
 11
52.0495
 21
3.85419
  0
LINE
  8
0
 10
52.0495
 20
3.85419
 11
52.0599
 21
3.59927
  0
LINE
  8
0
 10
52.0599
 20
3.59927
 11
52.0495
 21
3.34563
  0
LINE
  8
0
 10
52.0495
 20
3.34563
 11
52.0182
 21
3.12312
  0
LINE
  8
0
 10
52.0182
 20
3.12312
 11
51.9661
 21
2.93176
  0
LINE
  8
0
 10
51.9661
 20
2.93176
 11
51.8931
 21
2.77158
  0
LINE
  8
0
 10
51.8931
 20
2.77158
 11
51.8006
 21
2.64505
  0
LINE
  8
0
 10
51.8006
 20
2.64505
 11
51.69
 21
2.55467
  0
LINE
  8
0
 10
51.69
 20
2.55467
 11
51.5613
 21
2.50044
  0
LINE
  8
0
 10
51.5613
 20
2.50044
 11
51.4146
 21
2.48238
  0
LINE
  8
0
 10
51.4146
 20
2.48238
 11
51.2679
 21
2.50044
  0
LINE
  8
0
 10
37.1341
 20
1.83243
 11
37.4375
 21
1.92126
  0
LINE
  8
0
 10
37.4375
 20
1.92126
 11
37.7003
 21
2.06932
  0
LINE
  8
0
 10
37.7003
 20
2.06932
 11
37.9224
 21
2.27663
  0
LINE
  8
0
 10
37.9224
 20
2.27663
 11
38.099
 21
2.53696
  0
LINE
  8
0
 10
38.099
 20
2.53696
 11
38.2252
 21
2.84418
  0
LINE
  8
0
 10
38.2252
 20
2.84418
 11
38.3009
 21
3.19829
  0
LINE
  8
0
 10
38.3009
 20
3.19829
 11
38.3261
 21
3.59927
  0
LINE
  8
0
 10
38.3261
 20
3.59927
 11
38.3147
 21
3.87241
  0
LINE
  8
0
 10
38.3147
 20
3.87241
 11
38.2804
 21
4.12511
  0
LINE
  8
0
 10
38.2804
 20
4.12511
 11
38.2232
 21
4.35738
  0
LINE
  8
0
 10
38.2232
 20
4.35738
 11
38.1432
 21
4.56921
  0
LINE
  8
0
 10
38.1432
 20
4.56921
 11
38.0418
 21
4.75902
  0
LINE
  8
0
 10
38.0418
 20
4.75902
 11
37.9203
 21
4.92516
  0
LINE
  8
0
 10
37.9203
 20
4.92516
 11
37.7786
 21
5.06764
  0
LINE
  8
0
 10
37.7786
 20
5.06764
 11
37.6169
 21
5.18646
  0
LINE
  8
0
 10
37.6169
 20
5.18646
 11
37.4364
 21
5.28009
  0
LINE
  8
0
 10
37.4364
 20
5.28009
 11
37.2384
 21
5.34695
  0
LINE
  8
0
 10
37.2384
 20
5.34695
 11
37.0229
 21
5.38708
  0
LINE
  8
0
 10
37.0229
 20
5.38708
 11
36.79
 21
5.40045
  0
LINE
  8
0
 10
36.79
 20
5.40045
 11
36.4479
 21
5.37077
  0
LINE
  8
0
 10
36.4479
 20
5.37077
 11
36.1455
 21
5.28171
  0
LINE
  8
0
 10
36.1455
 20
5.28171
 11
35.8829
 21
5.13326
  0
LINE
  8
0
 10
35.8829
 20
5.13326
 11
35.66
 21
4.92545
  0
LINE
  8
0
 10
35.66
 20
4.92545
 11
35.4823
 21
4.66444
  0
LINE
  8
0
 10
35.4823
 20
4.66444
 11
35.3554
 21
4.35641
  0
LINE
  8
0
 10
35.3554
 20
4.35641
 11
35.2793
 21
4.00136
  0
LINE
  8
0
 10
35.2793
 20
4.00136
 11
35.2539
 21
3.59927
  0
LINE
  8
0
 10
35.2539
 20
3.59927
 11
35.2793
 21
3.19734
  0
LINE
  8
0
 10
35.2793
 20
3.19734
 11
35.3554
 21
2.84271
  0
LINE
  8
0
 10
35.3554
 20
2.84271
 11
35.4823
 21
2.53542
  0
LINE
  8
0
 10
35.4823
 20
2.53542
 11
35.66
 21
2.27544
  0
LINE
  8
0
 10
35.66
 20
2.27544
 11
35.8829
 21
2.06866
  0
LINE
  8
0
 10
35.8829
 20
2.06866
 11
36.1455
 21
1.92097
  0
LINE
  8
0
 10
36.1455
 20
1.92097
 11
36.4479
 21
1.83235
  0
LINE
  8
0
 10
36.4479
 20
1.83235
 11
36.79
 21
1.80281
  0
LINE
  8
0
 10
36.79
 20
1.80281
 11
37.1341
 21
1.83243
  0
LINE
  8
0
 10
36.6433
 20
2.50044
 11
36.5149
 21
2.55467
  0
LINE
  8
0
 10
36.5149
 20
2.55467
 11
36.4047
 21
2.64505
  0
LINE
  8
0
 10
36.4047
 20
2.64505
 11
36.3127
 21
2.77158
  0
LINE
  8
0
 10
36.3127
 20
2.77158
 11
36.2402
 21
2.93176
  0
LINE
  8
0
 10
36.2402
 20
2.93176
 11
36.1885
 21
3.12312
  0
LINE
  8
0
 10
36.1885
 20
3.12312
 11
36.1574
 21
3.34563
  0
LINE
  8
0
 10
36.1574
 20
3.34563
 11
36.1471
 21
3.59927
  0
LINE
  8
0
 10
36.1471
 20
3.59927
 11
36.1575
 21
3.85419
  0
LINE
  8
0
 10
36.1575
 20
3.85419
 11
36.1888
 21
4.07808
  0
LINE
  8
0
 10
36.1888
 20
4.07808
 11
36.2409
 21
4.27097
  0
LINE
  8
0
 10
36.2409
 20
4.27097
 11
36.3139
 21
4.43285
  0
LINE
  8
0
 10
36.3139
 20
4.43285
 11
36.4062
 21
4.56093
  0
LINE
  8
0
 10
36.4062
 20
4.56093
 11
36.5164
 21
4.6524
  0
LINE
  8
0
 10
36.5164
 20
4.6524
 11
36.6443
 21
4.70729
  0
LINE
  8
0
 10
36.6443
 20
4.70729
 11
36.79
 21
4.72559
  0
LINE
  8
0
 10
36.79
 20
4.72559
 11
36.9368
 21
4.70729
  0
LINE
  8
0
 10
36.9368
 20
4.70729
 11
37.0654
 21
4.6524
  0
LINE
  8
0
 10
37.0654
 20
4.6524
 11
37.176
 21
4.56093
  0
LINE
  8
0
 10
37.176
 20
4.56093
 11
37.2685
 21
4.43285
  0
LINE
  8
0
 10
37.2685
 20
4.43285
 11
37.3415
 21
4.27097
  0
LINE
  8
0
 10
37.3415
 20
4.27097
 11
37.3936
 21
4.07808
  0
LINE
  8
0
 10
37.3936
 20
4.07808
 11
37.4249
 21
3.85419
  0
LINE
  8
0
 10
37.4249
 20
3.85419
 11
37.4353
 21
3.59927
  0
LINE
  8
0
 10
37.4353
 20
3.59927
 11
37.4249
 21
3.34563
  0
LINE
  8
0
 10
37.4249
 20
3.34563
 11
37.3936
 21
3.12312
  0
LINE
  8
0
 10
37.3936
 20
3.12312
 11
37.3415
 21
2.93176
  0
LINE
  8
0
 10
37.3415
 20
2.93176
 11
37.2685
 21
2.77158
  0
LINE
  8
0
 10
37.2685
 20
2.77158
 11
37.176
 21
2.64505
  0
LINE
  8
0
 10
37.176
 20
2.64505
 11
37.0654
 21
2.55467
  0
LINE
  8
0
 10
37.0654
 20
2.55467
 11
36.9368
 21
2.50044
  0
LINE
  8
0
 10
36.9368
 20
2.50044
 11
36.79
 21
2.48238
  0
LINE
  8
0
 10
36.79
 20
2.48238
 11
36.6433
 21
2.50044
  0
LINE
  8
0
 10
40.3819
 20
5.35341
 11
39.4863
 21
5.35341
  0
LINE
  8
0
 10
39.4863
 20
5.35341
 11
38.6716
 21
4.81729
  0
LINE
  8
0
 10
38.6716
 20
4.81729
 11
38.6716
 21
4.08838
  0
LINE
  8
0
 10
38.6716
 20
4.08838
 11
39.4936
 21
4.63152
  0
LINE
  8
0
 10
39.4936
 20
4.63152
 11
39.5181
 21
4.63152
  0
LINE
  8
0
 10
39.5181
 20
4.63152
 11
39.5181
 21
1.84982
  0
LINE
  8
0
 10
39.5181
 20
1.84982
 11
40.3819
 21
1.84982
  0
LINE
  8
0
 10
40.3819
 20
1.84982
 11
40.3819
 21
5.35341
  0
LINE
  8
0
 10
16.9829
 20
3.35942
 11
16.9825
 21
3.43018
  0
LINE
  8
0
 10
16.9825
 20
3.43018
 11
16.9814
 21
3.51079
  0
LINE
  8
0
 10
16.9814
 20
3.51079
 11
16.9795
 21
3.60124
  0
LINE
  8
0
 10
16.9795
 20
3.60124
 11
16.9768
 21
3.70152
  0
LINE
  8
0
 10
16.9768
 20
3.70152
 11
16.9703
 21
3.92052
  0
LINE
  8
0
 10
16.9703
 20
3.92052
 11
16.9633
 21
4.15654
  0
LINE
  8
0
 10
16.9633
 20
4.15654
 11
16.9597
 21
4.27794
  0
LINE
  8
0
 10
16.9597
 20
4.27794
 11
16.9565
 21
4.39755
  0
LINE
  8
0
 10
16.9565
 20
4.39755
 11
16.9536
 21
4.51543
  0
LINE
  8
0
 10
16.9536
 20
4.51543
 11
16.951
 21
4.63152
  0
LINE
  8
0
 10
16.951
 20
4.63152
 11
16.9821
 21
4.5083
  0
LINE
  8
0
 10
16.9821
 20
4.5083
 11
17.0139
 21
4.38553
  0
LINE
  8
0
 10
17.0139
 20
4.38553
 11
17.0465
 21
4.26318
  0
LINE
  8
0
 10
17.0465
 20
4.26318
 11
17.0799
 21
4.14128
  0
LINE
  8
0
 10
17.0799
 20
4.14128
 11
17.1132
 21
4.02202
  0
LINE
  8
0
 10
17.1132
 20
4.02202
 11
17.1458
 21
3.90761
  0
LINE
  8
0
 10
17.1458
 20
3.90761
 11
17.1776
 21
3.79803
  0
LINE
  8
0
 10
17.1776
 20
3.79803
 11
17.2087
 21
3.69331
  0
LINE
  8
0
 10
17.2087
 20
3.69331
 11
17.2381
 21
3.59573
  0
LINE
  8
0
 10
17.2381
 20
3.59573
 11
17.2651
 21
3.50755
  0
LINE
  8
0
 10
17.2651
 20
3.50755
 11
17.2896
 21
3.42877
  0
LINE
  8
0
 10
17.2896
 20
3.42877
 11
17.3117
 21
3.35942
  0
LINE
  8
0
 10
17.3117
 20
3.35942
 11
17.8393
 21
1.84982
  0
LINE
  8
0
 10
17.8393
 20
1.84982
 11
18.5632
 21
1.84982
  0
LINE
  8
0
 10
18.5632
 20
1.84982
 11
19.0834
 21
3.35942
  0
LINE
  8
0
 10
19.0834
 20
3.35942
 11
19.1065
 21
3.43135
  0
LINE
  8
0
 10
19.1065
 20
3.43135
 11
19.1318
 21
3.51314
  0
LINE
  8
0
 10
19.1318
 20
3.51314
 11
19.1593
 21
3.60477
  0
LINE
  8
0
 10
19.1593
 20
3.60477
 11
19.1889
 21
3.70625
  0
LINE
  8
0
 10
19.1889
 20
3.70625
 11
19.22
 21
3.81508
  0
LINE
  8
0
 10
19.22
 20
3.81508
 11
19.2518
 21
3.92876
  0
LINE
  8
0
 10
19.2518
 20
3.92876
 11
19.2844
 21
4.04729
  0
LINE
  8
0
 10
19.2844
 20
4.04729
 11
19.3177
 21
4.17065
  0
LINE
  8
0
 10
19.3177
 20
4.17065
 11
19.3511
 21
4.29631
  0
LINE
  8
0
 10
19.3511
 20
4.29631
 11
19.3837
 21
4.42168
  0
LINE
  8
0
 10
19.3837
 20
4.42168
 11
19.4155
 21
4.54674
  0
LINE
  8
0
 10
19.4155
 20
4.54674
 11
19.4465
 21
4.67149
  0
LINE
  8
0
 10
19.4465
 20
4.67149
 11
19.4439
 21
4.55276
  0
LINE
  8
0
 10
19.4439
 20
4.55276
 11
19.441
 21
4.43167
  0
LINE
  8
0
 10
19.441
 20
4.43167
 11
19.4378
 21
4.30821
  0
LINE
  8
0
 10
19.4378
 20
4.30821
 11
19.4343
 21
4.1824
  0
LINE
  8
0
 10
19.4343
 20
4.1824
 11
19.4272
 21
3.93758
  0
LINE
  8
0
 10
19.4272
 20
3.93758
 11
19.4208
 21
3.71097
  0
LINE
  8
0
 10
19.4208
 20
3.71097
 11
19.4181
 21
3.60742
  0
LINE
  8
0
 10
19.4181
 20
3.60742
 11
19.4162
 21
3.51433
  0
LINE
  8
0
 10
19.4162
 20
3.51433
 11
19.415
 21
3.43166
  0
LINE
  8
0
 10
19.415
 20
3.43166
 11
19.4146
 21
3.35942
  0
LINE
  8
0
 10
19.4146
 20
3.35942
 11
19.4146
 21
1.84982
  0
LINE
  8
0
 10
19.4146
 20
1.84982
 11
20.2857
 21
1.84982
  0
LINE
  8
0
 10
20.2857
 20
1.84982
 11
20.2857
 21
5.35341
  0
LINE
  8
0
 10
20.2857
 20
5.35341
 11
18.9337
 21
5.35341
  0
LINE
  8
0
 10
18.9337
 20
5.35341
 11
18.4749
 21
3.98959
  0
LINE
  8
0
 10
18.4749
 20
3.98959
 11
18.4557
 21
3.925
  0
LINE
  8
0
 10
18.4557
 20
3.925
 11
18.4353
 21
3.85117
  0
LINE
  8
0
 10
18.4353
 20
3.85117
 11
18.4134
 21
3.76807
  0
LINE
  8
0
 10
18.4134
 20
3.76807
 11
18.3902
 21
3.6757
  0
LINE
  8
0
 10
18.3902
 20
3.6757
 11
18.3663
 21
3.57693
  0
LINE
  8
0
 10
18.3663
 20
3.57693
 11
18.3423
 21
3.47466
  0
LINE
  8
0
 10
18.3423
 20
3.47466
 11
18.3184
 21
3.36884
  0
LINE
  8
0
 10
18.3184
 20
3.36884
 11
18.2945
 21
3.25949
  0
LINE
  8
0
 10
18.2945
 20
3.25949
 11
18.271
 21
3.1492
  0
LINE
  8
0
 10
18.271
 20
3.1492
 11
18.2482
 21
3.04053
  0
LINE
  8
0
 10
18.2482
 20
3.04053
 11
18.2262
 21
2.93347
  0
LINE
  8
0
 10
18.2262
 20
2.93347
 11
18.2049
 21
2.82802
  0
LINE
  8
0
 10
18.2049
 20
2.82802
 11
18.1825
 21
2.93355
  0
LINE
  8
0
 10
18.1825
 20
2.93355
 11
18.1595
 21
3.04082
  0
LINE
  8
0
 10
18.1595
 20
3.04082
 11
18.1359
 21
3.14986
  0
LINE
  8
0
 10
18.1359
 20
3.14986
 11
18.1116
 21
3.26067
  0
LINE
  8
0
 10
18.1116
 20
3.26067
 11
18.0872
 21
3.37045
  0
LINE
  8
0
 10
18.0872
 20
3.37045
 11
18.0629
 21
3.47641
  0
LINE
  8
0
 10
18.0629
 20
3.47641
 11
18.0387
 21
3.57855
  0
LINE
  8
0
 10
18.0387
 20
3.57855
 11
18.0148
 21
3.67688
  0
LINE
  8
0
 10
18.0148
 20
3.67688
 11
17.9915
 21
3.76872
  0
LINE
  8
0
 10
17.9915
 20
3.76872
 11
17.9697
 21
3.85147
  0
LINE
  8
0
 10
17.9697
 20
3.85147
 11
17.9492
 21
3.92508
  0
LINE
  8
0
 10
17.9492
 20
3.92508
 11
17.9301
 21
3.98959
  0
LINE
  8
0
 10
17.9301
 20
3.98959
 11
17.4639
 21
5.35341
  0
LINE
  8
0
 10
17.4639
 20
5.35341
 11
16.1143
 21
5.35341
  0
LINE
  8
0
 10
16.1143
 20
5.35341
 11
16.1143
 21
1.84982
  0
LINE
  8
0
 10
16.1143
 20
1.84982
 11
16.9829
 21
1.84982
  0
LINE
  8
0
 10
16.9829
 20
1.84982
 11
16.9829
 21
3.35942
  0
LINE
  8
0
 10
23.9216
 20
2.59523
 11
25.1387
 21
2.59523
  0
LINE
  8
0
 10
25.1387
 20
2.59523
 11
25.3865
 21
1.84982
  0
LINE
  8
0
 10
25.3865
 20
1.84982
 11
26.3582
 21
1.84982
  0
LINE
  8
0
 10
26.3582
 20
1.84982
 11
25.1019
 21
5.35341
  0
LINE
  8
0
 10
25.1019
 20
5.35341
 11
23.9412
 21
5.35341
  0
LINE
  8
0
 10
23.9412
 20
5.35341
 11
22.7217
 21
1.84982
  0
LINE
  8
0
 10
22.7217
 20
1.84982
 11
23.6836
 21
1.84982
  0
LINE
  8
0
 10
23.6836
 20
1.84982
 11
23.9216
 21
2.59523
  0
LINE
  8
0
 10
24.1253
 20
3.23012
 11
24.1743
 21
3.3806
  0
LINE
  8
0
 10
24.1743
 20
3.3806
 11
24.2192
 21
3.53183
  0
LINE
  8
0
 10
24.2192
 20
3.53183
 11
24.263
 21
3.68687
  0
LINE
  8
0
 10
24.263
 20
3.68687
 11
24.3057
 21
3.84573
  0
LINE
  8
0
 10
24.3057
 20
3.84573
 11
24.3473
 21
4.00842
  0
LINE
  8
0
 10
24.3473
 20
4.00842
 11
24.3885
 21
4.17462
  0
LINE
  8
0
 10
24.3885
 20
4.17462
 11
24.4298
 21
4.34407
  0
LINE
  8
0
 10
24.4298
 20
4.34407
 11
24.4713
 21
4.51677
  0
LINE
  8
0
 10
24.4713
 20
4.51677
 11
24.513
 21
4.69269
  0
LINE
  8
0
 10
24.513
 20
4.69269
 11
24.5573
 21
4.51779
  0
LINE
  8
0
 10
24.5573
 20
4.51779
 11
24.6019
 21
4.34584
  0
LINE
  8
0
 10
24.6019
 20
4.34584
 11
24.6469
 21
4.17682
  0
LINE
  8
0
 10
24.6469
 20
4.17682
 11
24.6921
 21
4.01074
  0
LINE
  8
0
 10
24.6921
 20
4.01074
 11
24.7378
 21
3.84792
  0
LINE
  8
0
 10
24.7378
 20
3.84792
 11
24.7841
 21
3.68861
  0
LINE
  8
0
 10
24.7841
 20
3.68861
 11
24.831
 21
3.53284
  0
LINE
  8
0
 10
24.831
 20
3.53284
 11
24.8786
 21
3.3806
  0
LINE
  8
0
 10
24.8786
 20
3.3806
 11
24.9277
 21
3.23012
  0
LINE
  8
0
 10
24.9277
 20
3.23012
 11
24.1253
 21
3.23012
  0
LINE
  8
0
 10
27.5337
 20
3.05609
 11
28.0049
 21
3.05609
  0
LINE
  8
0
 10
28.0049
 20
3.05609
 11
28.6748
 21
1.84982
  0
LINE
  8
0
 10
28.6748
 20
1.84982
 11
29.6244
 21
1.84982
  0
LINE
  8
0
 10
29.6244
 20
1.84982
 11
28.8613
 21
3.18779
  0
LINE
  8
0
 10
28.8613
 20
3.18779
 11
29.0047
 21
3.26126
  0
LINE
  8
0
 10
29.0047
 20
3.26126
 11
29.1309
 21
3.35004
  0
LINE
  8
0
 10
29.1309
 20
3.35004
 11
29.2397
 21
3.45409
  0
LINE
  8
0
 10
29.2397
 20
3.45409
 11
29.3312
 21
3.57341
  0
LINE
  8
0
 10
29.3312
 20
3.57341
 11
29.4036
 21
3.70715
  0
LINE
  8
0
 10
29.4036
 20
3.70715
 11
29.4554
 21
3.8544
  0
LINE
  8
0
 10
29.4554
 20
3.8544
 11
29.4865
 21
4.01518
  0
LINE
  8
0
 10
29.4865
 20
4.01518
 11
29.4968
 21
4.18948
  0
LINE
  8
0
 10
29.4968
 20
4.18948
 11
29.4745
 21
4.44365
  0
LINE
  8
0
 10
29.4745
 20
4.44365
 11
29.4075
 21
4.67003
  0
LINE
  8
0
 10
29.4075
 20
4.67003
 11
29.296
 21
4.86865
  0
LINE
  8
0
 10
29.296
 20
4.86865
 11
29.1398
 21
5.03949
  0
LINE
  8
0
 10
29.1398
 20
5.03949
 11
28.9449
 21
5.17682
  0
LINE
  8
0
 10
28.9449
 20
5.17682
 11
28.7174
 21
5.27493
  0
LINE
  8
0
 10
28.7174
 20
5.27493
 11
28.4572
 21
5.33379
  0
LINE
  8
0
 10
28.4572
 20
5.33379
 11
28.1644
 21
5.35341
  0
LINE
  8
0
 10
28.1644
 20
5.35341
 11
26.6676
 21
5.35341
  0
LINE
  8
0
 10
26.6676
 20
5.35341
 11
26.6676
 21
1.84982
  0
LINE
  8
0
 10
26.6676
 20
1.84982
 11
27.5337
 21
1.84982
  0
LINE
  8
0
 10
27.5337
 20
1.84982
 11
27.5337
 21
3.05609
  0
LINE
  8
0
 10
27.5337
 20
3.71214
 11
27.5337
 21
4.68092
  0
LINE
  8
0
 10
27.5337
 20
4.68092
 11
27.9803
 21
4.68092
  0
LINE
  8
0
 10
27.9803
 20
4.68092
 11
28.2509
 21
4.65021
  0
LINE
  8
0
 10
28.2509
 20
4.65021
 11
28.4441
 21
4.55806
  0
LINE
  8
0
 10
28.4441
 20
4.55806
 11
28.5601
 21
4.4045
  0
LINE
  8
0
 10
28.5601
 20
4.4045
 11
28.5987
 21
4.18948
  0
LINE
  8
0
 10
28.5987
 20
4.18948
 11
28.5602
 21
3.98064
  0
LINE
  8
0
 10
28.5602
 20
3.98064
 11
28.4447
 21
3.83148
  0
LINE
  8
0
 10
28.4447
 20
3.83148
 11
28.2523
 21
3.74197
  0
LINE
  8
0
 10
28.2523
 20
3.74197
 11
27.9828
 21
3.71214
  0
LINE
  8
0
 10
27.9828
 20
3.71214
 11
27.5337
 21
3.71214
  0
LINE
  8
0
 10
31.7647
 20
4.67622
 11
32.8713
 21
4.67622
  0
LINE
  8
0
 10
32.8713
 20
4.67622
 11
32.8713
 21
5.35341
  0
LINE
  8
0
 10
32.8713
 20
5.35341
 11
29.7943
 21
5.35341
  0
LINE
  8
0
 10
29.7943
 20
5.35341
 11
29.7943
 21
4.67622
  0
LINE
  8
0
 10
29.7943
 20
4.67622
 11
30.9009
 21
4.67622
  0
LINE
  8
0
 10
30.9009
 20
4.67622
 11
30.9009
 21
1.84982
  0
LINE
  8
0
 10
30.9009
 20
1.84982
 11
31.7647
 21
1.84982
  0
LINE
  8
0
 10
31.7647
 20
1.84982
 11
31.7647
 21
4.67622
  0
LINE
  8
0
 10
42.5481
 20
5.35341
 11
41.6525
 21
5.35341
  0
LINE
  8
0
 10
41.6525
 20
5.35341
 11
40.8378
 21
4.81729
  0
LINE
  8
0
 10
40.8378
 20
4.81729
 11
40.8378
 21
4.08838
  0
LINE
  8
0
 10
40.8378
 20
4.08838
 11
41.6598
 21
4.63152
  0
LINE
  8
0
 10
41.6598
 20
4.63152
 11
41.6844
 21
4.63152
  0
LINE
  8
0
 10
41.6844
 20
4.63152
 11
41.6844
 21
1.84982
  0
LINE
  8
0
 10
41.6844
 20
1.84982
 11
42.5481
 21
1.84982
  0
LINE
  8
0
 10
42.5481
 20
1.84982
 11
42.5481
 21
5.35341
  0
LINE
  8
0
 10
12.3533
 20
3.35942
 11
12.3529
 21
3.43018
  0
LINE
  8
0
 10
12.3529
 20
3.43018
 11
12.3517
 21
3.51079
  0
LINE
  8
0
 10
12.3517
 20
3.51079
 11
12.3498
 21
3.60124
  0
LINE
  8
0
 10
12.3498
 20
3.60124
 11
12.3471
 21
3.70152
  0
LINE
  8
0
 10
12.3471
 20
3.70152
 11
12.3407
 21
3.92052
  0
LINE
  8
0
 10
12.3407
 20
3.92052
 11
12.3336
 21
4.15654
  0
LINE
  8
0
 10
12.3336
 20
4.15654
 11
12.3301
 21
4.27794
  0
LINE
  8
0
 10
12.3301
 20
4.27794
 11
12.3269
 21
4.39755
  0
LINE
  8
0
 10
12.3269
 20
4.39755
 11
12.324
 21
4.51543
  0
LINE
  8
0
 10
12.324
 20
4.51543
 11
12.3214
 21
4.63152
  0
LINE
  8
0
 10
12.3214
 20
4.63152
 11
12.3524
 21
4.5083
  0
LINE
  8
0
 10
12.3524
 20
4.5083
 11
12.3843
 21
4.38553
  0
LINE
  8
0
 10
12.3843
 20
4.38553
 11
12.4169
 21
4.26318
  0
LINE
  8
0
 10
12.4169
 20
4.26318
 11
12.4502
 21
4.14128
  0
LINE
  8
0
 10
12.4502
 20
4.14128
 11
12.4836
 21
4.02202
  0
LINE
  8
0
 10
12.4836
 20
4.02202
 11
12.5162
 21
3.90761
  0
LINE
  8
0
 10
12.5162
 20
3.90761
 11
12.548
 21
3.79803
  0
LINE
  8
0
 10
12.548
 20
3.79803
 11
12.579
 21
3.69331
  0
LINE
  8
0
 10
12.579
 20
3.69331
 11
12.6085
 21
3.59573
  0
LINE
  8
0
 10
12.6085
 20
3.59573
 11
12.6355
 21
3.50755
  0
LINE
  8
0
 10
12.6355
 20
3.50755
 11
12.66
 21
3.42877
  0
LINE
  8
0
 10
12.66
 20
3.42877
 11
12.6821
 21
3.35942
  0
LINE
  8
0
 10
12.6821
 20
3.35942
 11
13.2097
 21
1.84982
  0
LINE
  8
0
 10
13.2097
 20
1.84982
 11
13.9335
 21
1.84982
  0
LINE
  8
0
 10
13.9335
 20
1.84982
 11
14.4537
 21
3.35942
  0
LINE
  8
0
 10
14.4537
 20
3.35942
 11
14.4769
 21
3.43135
  0
LINE
  8
0
 10
14.4769
 20
3.43135
 11
14.5022
 21
3.51314
  0
LINE
  8
0
 10
14.5022
 20
3.51314
 11
14.5296
 21
3.60477
  0
LINE
  8
0
 10
14.5296
 20
3.60477
 11
14.5592
 21
3.70625
  0
LINE
  8
0
 10
14.5592
 20
3.70625
 11
14.5903
 21
3.81508
  0
LINE
  8
0
 10
14.5903
 20
3.81508
 11
14.6221
 21
3.92876
  0
LINE
  8
0
 10
14.6221
 20
3.92876
 11
14.6547
 21
4.04729
  0
LINE
  8
0
 10
14.6547
 20
4.04729
 11
14.6881
 21
4.17065
  0
LINE
  8
0
 10
14.6881
 20
4.17065
 11
14.7215
 21
4.29631
  0
LINE
  8
0
 10
14.7215
 20
4.29631
 11
14.754
 21
4.42168
  0
LINE
  8
0
 10
14.754
 20
4.42168
 11
14.7859
 21
4.54674
  0
LINE
  8
0
 10
14.7859
 20
4.54674
 11
14.8169
 21
4.67149
  0
LINE
  8
0
 10
14.8169
 20
4.67149
 11
14.8143
 21
4.55276
  0
LINE
  8
0
 10
14.8143
 20
4.55276
 11
14.8114
 21
4.43167
  0
LINE
  8
0
 10
14.8114
 20
4.43167
 11
14.8082
 21
4.30821
  0
LINE
  8
0
 10
14.8082
 20
4.30821
 11
14.8046
 21
4.1824
  0
LINE
  8
0
 10
14.8046
 20
4.1824
 11
14.7976
 21
3.93758
  0
LINE
  8
0
 10
14.7976
 20
3.93758
 11
14.7911
 21
3.71097
  0
LINE
  8
0
 10
14.7911
 20
3.71097
 11
14.7885
 21
3.60742
  0
LINE
  8
0
 10
14.7885
 20
3.60742
 11
14.7865
 21
3.51433
  0
LINE
  8
0
 10
14.7865
 20
3.51433
 11
14.7854
 21
3.43166
  0
LINE
  8
0
 10
14.7854
 20
3.43166
 11
14.785
 21
3.35942
  0
LINE
  8
0
 10
14.785
 20
3.35942
 11
14.785
 21
1.84982
  0
LINE
  8
0
 10
14.785
 20
1.84982
 11
15.6561
 21
1.84982
  0
LINE
  8
0
 10
15.6561
 20
1.84982
 11
15.6561
 21
5.35341
  0
LINE
  8
0
 10
15.6561
 20
5.35341
 11
14.304
 21
5.35341
  0
LINE
  8
0
 10
14.304
 20
5.35341
 11
13.8452
 21
3.98959
  0
LINE
  8
0
 10
13.8452
 20
3.98959
 11
13.8261
 21
3.925
  0
LINE
  8
0
 10
13.8261
 20
3.925
 11
13.8056
 21
3.85117
  0
LINE
  8
0
 10
13.8056
 20
3.85117
 11
13.7838
 21
3.76807
  0
LINE
  8
0
 10
13.7838
 20
3.76807
 11
13.7605
 21
3.6757
  0
LINE
  8
0
 10
13.7605
 20
3.6757
 11
13.7366
 21
3.57693
  0
LINE
  8
0
 10
13.7366
 20
3.57693
 11
13.7127
 21
3.47466
  0
LINE
  8
0
 10
13.7127
 20
3.47466
 11
13.6888
 21
3.36884
  0
LINE
  8
0
 10
13.6888
 20
3.36884
 11
13.6648
 21
3.25949
  0
LINE
  8
0
 10
13.6648
 20
3.25949
 11
13.6413
 21
3.1492
  0
LINE
  8
0
 10
13.6413
 20
3.1492
 11
13.6185
 21
3.04053
  0
LINE
  8
0
 10
13.6185
 20
3.04053
 11
13.5965
 21
2.93347
  0
LINE
  8
0
 10
13.5965
 20
2.93347
 11
13.5753
 21
2.82802
  0
LINE
  8
0
 10
13.5753
 20
2.82802
 11
13.5529
 21
2.93355
  0
LINE
  8
0
 10
13.5529
 20
2.93355
 11
13.5299
 21
3.04082
  0
LINE
  8
0
 10
13.5299
 20
3.04082
 11
13.5062
 21
3.14986
  0
LINE
  8
0
 10
13.5062
 20
3.14986
 11
13.482
 21
3.26067
  0
LINE
  8
0
 10
13.482
 20
3.26067
 11
13.4576
 21
3.37045
  0
LINE
  8
0
 10
13.4576
 20
3.37045
 11
13.4333
 21
3.47641
  0
LINE
  8
0
 10
13.4333
 20
3.47641
 11
13.4091
 21
3.57855
  0
LINE
  8
0
 10
13.4091
 20
3.57855
 11
13.3851
 21
3.67688
  0
LINE
  8
0
 10
13.3851
 20
3.67688
 11
13.3619
 21
3.76872
  0
LINE
  8
0
 10
13.3619
 20
3.76872
 11
13.34
 21
3.85147
  0
LINE
  8
0
 10
13.34
 20
3.85147
 11
13.3195
 21
3.92508
  0
LINE
  8
0
 10
13.3195
 20
3.92508
 11
13.3004
 21
3.98959
  0
LINE
  8
0
 10
13.3004
 20
3.98959
 11
12.8342
 21
5.35341
  0
LINE
  8
0
 10
12.8342
 20
5.35341
 11
11.4846
 21
5.35341
  0
LINE
  8
0
 10
11.4846
 20
5.35341
 11
11.4846
 21
1.84982
  0
LINE
  8
0
 10
11.4846
 20
1.84982
 11
12.3533
 21
1.84982
  0
LINE
  8
0
 10
12.3533
 20
1.84982
 11
12.3533
 21
3.35942
  0
LINE
  8
0
 10
49.6958
 20
4.47868
 11
48.8026
 21
4.47868
  0
LINE
  8
0
 10
48.8026
 20
4.47868
 11
48.4002
 21
3.19246
  0
LINE
  8
0
 10
48.4002
 20
3.19246
 11
48.3727
 21
3.10304
  0
LINE
  8
0
 10
48.3727
 20
3.10304
 11
48.3468
 21
3.01346
  0
LINE
  8
0
 10
48.3468
 20
3.01346
 11
48.3224
 21
2.92375
  0
LINE
  8
0
 10
48.3224
 20
2.92375
 11
48.2995
 21
2.83388
  0
LINE
  8
0
 10
48.2995
 20
2.83388
 11
48.2778
 21
2.74327
  0
LINE
  8
0
 10
48.2778
 20
2.74327
 11
48.2566
 21
2.65135
  0
LINE
  8
0
 10
48.2566
 20
2.65135
 11
48.2361
 21
2.55811
  0
LINE
  8
0
 10
48.2361
 20
2.55811
 11
48.2161
 21
2.46355
  0
LINE
  8
0
 10
48.2161
 20
2.46355
 11
48.194
 21
2.55818
  0
LINE
  8
0
 10
48.194
 20
2.55818
 11
48.1716
 21
2.65164
  0
LINE
  8
0
 10
48.1716
 20
2.65164
 11
48.1492
 21
2.74394
  0
LINE
  8
0
 10
48.1492
 20
2.74394
 11
48.1266
 21
2.83505
  0
LINE
  8
0
 10
48.1266
 20
2.83505
 11
48.1032
 21
2.92529
  0
LINE
  8
0
 10
48.1032
 20
2.92529
 11
48.0784
 21
3.01494
  0
LINE
  8
0
 10
48.0784
 20
3.01494
 11
48.0523
 21
3.104
  0
LINE
  8
0
 10
48.0523
 20
3.104
 11
48.0247
 21
3.19246
  0
LINE
  8
0
 10
48.0247
 20
3.19246
 11
47.615
 21
4.47868
  0
LINE
  8
0
 10
47.615
 20
4.47868
 11
46.7119
 21
4.47868
  0
LINE
  8
0
 10
46.7119
 20
4.47868
 11
47.7057
 21
1.84982
  0
LINE
  8
0
 10
47.7057
 20
1.84982
 11
48.6971
 21
1.84982
  0
LINE
  8
0
 10
48.6971
 20
1.84982
 11
49.6958
 21
4.47868
  0
LINE
  8
0
 10
44.8344
 20
3.07806
 11
44.9208
 21
3.10165
  0
LINE
  8
0
 10
44.9208
 20
3.10165
 11
44.9994
 21
3.14098
  0
LINE
  8
0
 10
44.9994
 20
3.14098
 11
45.0701
 21
3.196
  0
LINE
  8
0
 10
45.0701
 20
3.196
 11
45.1286
 21
3.26265
  0
LINE
  8
0
 10
45.1286
 20
3.26265
 11
45.1704
 21
3.33679
  0
LINE
  8
0
 10
45.1704
 20
3.33679
 11
45.1955
 21
3.41843
  0
LINE
  8
0
 10
45.1955
 20
3.41843
 11
45.2039
 21
3.50757
  0
LINE
  8
0
 10
45.2039
 20
3.50757
 11
45.1955
 21
3.59773
  0
LINE
  8
0
 10
45.1955
 20
3.59773
 11
45.1704
 21
3.6801
  0
LINE
  8
0
 10
45.1704
 20
3.6801
 11
45.1286
 21
3.75467
  0
LINE
  8
0
 10
45.1286
 20
3.75467
 11
45.0701
 21
3.82146
  0
LINE
  8
0
 10
45.0701
 20
3.82146
 11
44.9994
 21
3.87651
  0
LINE
  8
0
 10
44.9994
 20
3.87651
 11
44.9208
 21
3.91583
  0
LINE
  8
0
 10
44.9208
 20
3.91583
 11
44.8344
 21
3.93942
  0
LINE
  8
0
 10
44.8344
 20
3.93942
 11
44.7401
 21
3.94728
  0
LINE
  8
0
 10
44.7401
 20
3.94728
 11
44.6459
 21
3.93942
  0
LINE
  8
0
 10
44.6459
 20
3.93942
 11
44.5595
 21
3.91583
  0
LINE
  8
0
 10
44.5595
 20
3.91583
 11
44.4809
 21
3.87651
  0
LINE
  8
0
 10
44.4809
 20
3.87651
 11
44.4101
 21
3.82146
  0
LINE
  8
0
 10
44.4101
 20
3.82146
 11
44.3516
 21
3.75467
  0
LINE
  8
0
 10
44.3516
 20
3.75467
 11
44.3098
 21
3.6801
  0
LINE
  8
0
 10
44.3098
 20
3.6801
 11
44.2847
 21
3.59773
  0
LINE
  8
0
 10
44.2847
 20
3.59773
 11
44.2764
 21
3.50757
  0
LINE
  8
0
 10
44.2764
 20
3.50757
 11
44.2847
 21
3.41843
  0
LINE
  8
0
 10
44.2847
 20
3.41843
 11
44.3098
 21
3.33679
  0
LINE
  8
0
 10
44.3098
 20
3.33679
 11
44.3516
 21
3.26265
  0
LINE
  8
0
 10
44.3516
 20
3.26265
 11
44.4101
 21
3.196
  0
LINE
  8
0
 10
44.4101
 20
3.196
 11
44.4809
 21
3.14098
  0
LINE
  8
0
 10
44.4809
 20
3.14098
 11
44.5595
 21
3.10165
  0
LINE
  8
0
 10
44.5595
 20
3.10165
 11
44.6459
 21
3.07806
  0
LINE
  8
0
 10
44.6459
 20
3.07806
 11
44.7401
 21
3.07021
  0
LINE
  8
0
 10
44.7401
 20
3.07021
 11
44.8344
 21
3.07806
  0
LINE
  8
0
 10
34.7671
 20
3.9167
 11
33.0814
 21
3.9167
  0
LINE
  8
0
 10
33.0814
 20
3.9167
 11
33.0814
 21
3.28418
  0
LINE
  8
0
 10
33.0814
 20
3.28418
 11
34.7671
 21
3.28418
  0
LINE
  8
0
 10
34.7671
 20
3.28418
 11
34.7671
 21
3.9167
  0
LINE
  8
0
 10
22.4861
 20
3.9167
 11
20.8004
 21
3.9167
  0
LINE
  8
0
 10
20.8004
 20
3.9167
 11
20.8004
 21
3.28418
  0
LINE
  8
0
 10
20.8004
 20
3.28418
 11
22.4861
 21
3.28418
  0
LINE
  8
0
 10
22.4861
 20
3.28418
 11
22.4861
 21
3.9167
  0
LINE
  8
0
 10
7.56636
 20
0.800369
 11
7.64903
 21
0.80159
  0
LINE
  8
0
 10
7.64903
 20
0.80159
 11
7.73042
 21
0.803802
  0
LINE
  8
0
 10
7.73042
 20
0.803802
 11
7.81062
 21
0.807144
  0
LINE
  8
0
 10
7.81062
 20
0.807144
 11
7.88969
 21
0.811752
  0
LINE
  8
0
 10
7.88969
 20
0.811752
 11
7.96771
 21
0.81778
  0
LINE
  8
0
 10
7.96771
 20
0.81778
 11
8.04474
 21
0.825363
  0
LINE
  8
0
 10
8.04474
 20
0.825363
 11
8.12083
 21
0.834625
  0
LINE
  8
0
 10
8.12083
 20
0.834625
 11
8.19609
 21
0.845734
  0
LINE
  8
0
 10
8.19609
 20
0.845734
 11
8.27058
 21
0.85881
  0
LINE
  8
0
 10
8.27058
 20
0.85881
 11
8.34436
 21
0.874023
  0
LINE
  8
0
 10
8.34436
 20
0.874023
 11
8.4175
 21
0.891479
  0
LINE
  8
0
 10
8.4175
 20
0.891479
 11
8.49008
 21
0.911331
  0
LINE
  8
0
 10
8.49008
 20
0.911331
 11
8.56216
 21
0.933731
  0
LINE
  8
0
 10
8.56216
 20
0.933731
 11
8.63382
 21
0.958817
  0
LINE
  8
0
 10
8.63382
 20
0.958817
 11
8.70512
 21
0.986725
  0
LINE
  8
0
 10
8.70512
 20
0.986725
 11
8.77614
 21
1.01759
  0
LINE
  8
0
 10
8.77614
 20
1.01759
 11
8.84695
 21
1.05157
  0
LINE
  8
0
 10
8.84695
 20
1.05157
 11
8.91763
 21
1.08879
  0
LINE
  8
0
 10
8.91763
 20
1.08879
 11
8.98822
 21
1.12941
  0
LINE
  8
0
 10
8.98822
 20
1.12941
 11
5.12941
 21
3.34117
  0
LINE
  8
0
 10
5.12941
 20
3.34117
 11
1.64705
 21
1.17647
  0
LINE
  8
0
 10
1.64705
 20
1.17647
 11
1.69046
 21
1.14188
  0
LINE
  8
0
 10
1.69046
 20
1.14188
 11
1.73595
 21
1.10875
  0
LINE
  8
0
 10
1.73595
 20
1.10875
 11
1.78348
 21
1.07709
  0
LINE
  8
0
 10
1.78348
 20
1.07709
 11
1.83302
 21
1.04695
  0
LINE
  8
0
 10
1.83302
 20
1.04695
 11
1.88455
 21
1.01837
  0
LINE
  8
0
 10
1.88455
 20
1.01837
 11
1.93802
 21
0.991379
  0
LINE
  8
0
 10
1.93802
 20
0.991379
 11
1.99339
 21
0.966003
  0
LINE
  8
0
 10
1.99339
 20
0.966003
 11
2.05063
 21
0.942291
  0
LINE
  8
0
 10
2.05063
 20
0.942291
 11
2.10971
 21
0.920288
  0
LINE
  8
0
 10
2.10971
 20
0.920288
 11
2.17058
 21
0.899994
  0
LINE
  8
0
 10
2.17058
 20
0.899994
 11
2.23322
 21
0.88147
  0
LINE
  8
0
 10
2.23322
 20
0.88147
 11
2.29759
 21
0.864746
  0
LINE
  8
0
 10
2.29759
 20
0.864746
 11
2.36366
 21
0.849854
  0
LINE
  8
0
 10
2.36366
 20
0.849854
 11
2.43138
 21
0.836838
  0
LINE
  8
0
 10
2.43138
 20
0.836838
 11
2.50073
 21
0.825729
  0
LINE
  8
0
 10
2.50073
 20
0.825729
 11
2.57166
 21
0.816559
  0
LINE
  8
0
 10
2.57166
 20
0.816559
 11
2.64415
 21
0.809357
  0
LINE
  8
0
 10
2.64415
 20
0.809357
 11
2.71815
 21
0.804184
  0
LINE
  8
0
 10
2.71815
 20
0.804184
 11
2.79364
 21
0.801041
  0
LINE
  8
0
 10
2.79364
 20
0.801041
 11
2.87057
 21
0.799988
  0
LINE
  8
0
 10
2.87057
 20
0.799988
 11
7.48235
 21
0.799988
  0
LINE
  8
0
 10
7.48235
 20
0.799988
 11
7.56636
 21
0.800369
  0
LINE
  8
0
 10
53.902
 20
1.80832
 11
53.9884
 21
1.83191
  0
LINE
  8
0
 10
53.9884
 20
1.83191
 11
54.067
 21
1.87122
  0
LINE
  8
0
 10
54.067
 20
1.87122
 11
54.1378
 21
1.92625
  0
LINE
  8
0
 10
54.1378
 20
1.92625
 11
54.1963
 21
1.99289
  0
LINE
  8
0
 10
54.1963
 20
1.99289
 11
54.2381
 21
2.06703
  0
LINE
  8
0
 10
54.2381
 20
2.06703
 11
54.2631
 21
2.14868
  0
LINE
  8
0
 10
54.2631
 20
2.14868
 11
54.2715
 21
2.23782
  0
LINE
  8
0
 10
54.2715
 20
2.23782
 11
54.2631
 21
2.32797
  0
LINE
  8
0
 10
54.2631
 20
2.32797
 11
54.2381
 21
2.41034
  0
LINE
  8
0
 10
54.2381
 20
2.41034
 11
54.1963
 21
2.48492
  0
LINE
  8
0
 10
54.1963
 20
2.48492
 11
54.1378
 21
2.55171
  0
LINE
  8
0
 10
54.1378
 20
2.55171
 11
54.067
 21
2.60677
  0
LINE
  8
0
 10
54.067
 20
2.60677
 11
53.9884
 21
2.64609
  0
LINE
  8
0
 10
53.9884
 20
2.64609
 11
53.902
 21
2.66968
  0
LINE
  8
0
 10
53.902
 20
2.66968
 11
53.8077
 21
2.67754
  0
LINE
  8
0
 10
53.8077
 20
2.67754
 11
53.7135
 21
2.66968
  0
LINE
  8
0
 10
53.7135
 20
2.66968
 11
53.6271
 21
2.64609
  0
LINE
  8
0
 10
53.6271
 20
2.64609
 11
53.5485
 21
2.60677
  0
LINE
  8
0
 10
53.5485
 20
2.60677
 11
53.4777
 21
2.55171
  0
LINE
  8
0
 10
53.4777
 20
2.55171
 11
53.4192
 21
2.48492
  0
LINE
  8
0
 10
53.4192
 20
2.48492
 11
53.3774
 21
2.41034
  0
LINE
  8
0
 10
53.3774
 20
2.41034
 11
53.3523
 21
2.32797
  0
LINE
  8
0
 10
53.3523
 20
2.32797
 11
53.344
 21
2.23782
  0
LINE
  8
0
 10
53.344
 20
2.23782
 11
53.3523
 21
2.14868
  0
LINE
  8
0
 10
53.3523
 20
2.14868
 11
53.3774
 21
2.06703
  0
LINE
  8
0
 10
53.3774
 20
2.06703
 11
53.4192
 21
1.99289
  0
LINE
  8
0
 10
53.4192
 20
1.99289
 11
53.4777
 21
1.92625
  0
LINE
  8
0
 10
53.4777
 20
1.92625
 11
53.5485
 21
1.87122
  0
LINE
  8
0
 10
53.5485
 20
1.87122
 11
53.6271
 21
1.83191
  0
LINE
  8
0
 10
53.6271
 20
1.83191
 11
53.7135
 21
1.80832
  0
LINE
  8
0
 10
53.7135
 20
1.80832
 11
53.8077
 21
1.80046
  0
LINE
  8
0
 10
53.8077
 20
1.80046
 11
53.902
 21
1.80832
  0
LINE
  8
0
 10
58.6515
 20
1.80832
 11
58.7379
 21
1.83191
  0
LINE
  8
0
 10
58.7379
 20
1.83191
 11
58.8165
 21
1.87122
  0
LINE
  8
0
 10
58.8165
 20
1.87122
 11
58.8873
 21
1.92625
  0
LINE
  8
0
 10
58.8873
 20
1.92625
 11
58.9458
 21
1.99289
  0
LINE
  8
0
 10
58.9458
 20
1.99289
 11
58.9875
 21
2.06703
  0
LINE
  8
0
 10
58.9875
 20
2.06703
 11
59.0126
 21
2.14868
  0
LINE
  8
0
 10
59.0126
 20
2.14868
 11
59.021
 21
2.23782
  0
LINE
  8
0
 10
59.021
 20
2.23782
 11
59.0126
 21
2.32797
  0
LINE
  8
0
 10
59.0126
 20
2.32797
 11
58.9875
 21
2.41034
  0
LINE
  8
0
 10
58.9875
 20
2.41034
 11
58.9458
 21
2.48492
  0
LINE
  8
0
 10
58.9458
 20
2.48492
 11
58.8873
 21
2.55171
  0
LINE
  8
0
 10
58.8873
 20
2.55171
 11
58.8165
 21
2.60677
  0
LINE
  8
0
 10
58.8165
 20
2.60677
 11
58.7379
 21
2.64609
  0
LINE
  8
0
 10
58.7379
 20
2.64609
 11
58.6515
 21
2.66968
  0
LINE
  8
0
 10
58.6515
 20
2.66968
 11
58.5572
 21
2.67754
  0
LINE
  8
0
 10
58.5572
 20
2.67754
 11
58.463
 21
2.66968
  0
LINE
  8
0
 10
58.463
 20
2.66968
 11
58.3766
 21
2.64609
  0
LINE
  8
0
 10
58.3766
 20
2.64609
 11
58.298
 21
2.60677
  0
LINE
  8
0
 10
58.298
 20
2.60677
 11
58.2272
 21
2.55171
  0
LINE
  8
0
 10
58.2272
 20
2.55171
 11
58.1687
 21
2.48492
  0
LINE
  8
0
 10
58.1687
 20
2.48492
 11
58.1269
 21
2.41034
  0
LINE
  8
0
 10
58.1269
 20
2.41034
 11
58.1018
 21
2.32797
  0
LINE
  8
0
 10
58.1018
 20
2.32797
 11
58.0935
 21
2.23782
  0
LINE
  8
0
 10
58.0935
 20
2.23782
 11
58.1018
 21
2.14868
  0
LINE
  8
0
 10
58.1018
 20
2.14868
 11
58.1269
 21
2.06703
  0
LINE
  8
0
 10
58.1269
 20
2.06703
 11
58.1687
 21
1.99289
  0
LINE
  8
0
 10
58.1687
 20
1.99289
 11
58.2272
 21
1.92625
  0
LINE
  8
0
 10
58.2272
 20
1.92625
 11
58.298
 21
1.87122
  0
LINE
  8
0
 10
58.298
 20
1.87122
 11
58.3766
 21
1.83191
  0
LINE
  8
0
 10
58.3766
 20
1.83191
 11
58.463
 21
1.80832
  0
LINE
  8
0
 10
58.463
 20
1.80832
 11
58.5572
 21
1.80046
  0
LINE
  8
0
 10
58.5572
 20
1.80046
 11
58.6515
 21
1.80832
  0
ENDSEC
  0
SECTION
  2
OBJECTS
  0
DICTIONARY
  0
ENDSEC
  0
EOF
