solid OpenSCAD_Model
  facet normal 1 -0 0
    outer loop
      vertex 44 9 15
      vertex 44 39 0
      vertex 44 39 15
    endloop
  endfacet
  facet normal 1 0 0
    outer loop
      vertex 44 39 0
      vertex 44 9 15
      vertex 44 9 0
    endloop
  endfacet
  facet normal 0 0 1
    outer loop
      vertex 29.47 17.75 15
      vertex 13.8 17.75 15
      vertex 29.47 15 15
    endloop
  endfacet
  facet normal 0 0 1
    outer loop
      vertex 44 39 15
      vertex 40.2 30.25 15
      vertex 44 9 15
    endloop
  endfacet
  facet normal 0 0 1
    outer loop
      vertex 44 39 15
      vertex 36.97 33 15
      vertex 40.2 30.25 15
    endloop
  endfacet
  facet normal 0 0 1
    outer loop
      vertex 44 39 15
      vertex 29.47 33 15
      vertex 36.97 33 15
    endloop
  endfacet
  facet normal 0 0 1
    outer loop
      vertex 29.47 33 15
      vertex 13.8 30.25 15
      vertex 29.47 30.25 15
    endloop
  endfacet
  facet normal -0 0 1
    outer loop
      vertex 10 39 15
      vertex 29.47 33 15
      vertex 44 39 15
    endloop
  endfacet
  facet normal 0 0 1
    outer loop
      vertex 13.8 30.25 15
      vertex 10 39 15
      vertex 13.8 17.75 15
    endloop
  endfacet
  facet normal 0 0 1
    outer loop
      vertex 29.47 33 15
      vertex 10 39 15
      vertex 13.8 30.25 15
    endloop
  endfacet
  facet normal -0 0 1
    outer loop
      vertex 40.2 17.75 15
      vertex 44 9 15
      vertex 40.2 30.25 15
    endloop
  endfacet
  facet normal 0 0 1
    outer loop
      vertex 36.97 15 15
      vertex 40.2 17.75 15
      vertex 36.97 17.75 15
    endloop
  endfacet
  facet normal 0 0 1
    outer loop
      vertex 40.2 17.75 15
      vertex 36.97 15 15
      vertex 44 9 15
    endloop
  endfacet
  facet normal -0 0 1
    outer loop
      vertex 29.47 15 15
      vertex 44 9 15
      vertex 36.97 15 15
    endloop
  endfacet
  facet normal 0 0 1
    outer loop
      vertex 10 9 15
      vertex 29.47 15 15
      vertex 13.8 17.75 15
    endloop
  endfacet
  facet normal 0 0 1
    outer loop
      vertex 29.47 15 15
      vertex 10 9 15
      vertex 44 9 15
    endloop
  endfacet
  facet normal 0 0 1
    outer loop
      vertex 10 9 15
      vertex 13.8 17.75 15
      vertex 10 39 15
    endloop
  endfacet
  facet normal 0 0 1
    outer loop
      vertex 40.2 30.25 15
      vertex 36.97 33 15
      vertex 36.97 30.25 15
    endloop
  endfacet
  facet normal 0 0 -1
    outer loop
      vertex 10 9 0
      vertex 44 39 0
      vertex 44 9 0
    endloop
  endfacet
  facet normal -0 0 -1
    outer loop
      vertex 44 39 0
      vertex 10 9 0
      vertex 10 39 0
    endloop
  endfacet
  facet normal -1 0 0
    outer loop
      vertex 10 9 0
      vertex 10 39 15
      vertex 10 39 0
    endloop
  endfacet
  facet normal -1 -0 0
    outer loop
      vertex 10 39 15
      vertex 10 9 0
      vertex 10 9 15
    endloop
  endfacet
  facet normal 0 1 -0
    outer loop
      vertex 44 39 0
      vertex 10 39 15
      vertex 44 39 15
    endloop
  endfacet
  facet normal 0 1 0
    outer loop
      vertex 10 39 15
      vertex 44 39 0
      vertex 10 39 0
    endloop
  endfacet
  facet normal 0 -1 0
    outer loop
      vertex 10 9 0
      vertex 44 9 15
      vertex 10 9 15
    endloop
  endfacet
  facet normal 0 -1 -0
    outer loop
      vertex 44 9 15
      vertex 10 9 0
      vertex 44 9 0
    endloop
  endfacet
  facet normal -1 0 0
    outer loop
      vertex 40.2 17.75 7.8
      vertex 40.2 30.25 15
      vertex 40.2 30.25 7.8
    endloop
  endfacet
  facet normal -1 -0 0
    outer loop
      vertex 40.2 30.25 15
      vertex 40.2 17.75 7.8
      vertex 40.2 17.75 15
    endloop
  endfacet
  facet normal -0 0 1
    outer loop
      vertex 36.97 30.25 7.8
      vertex 40.2 17.75 7.8
      vertex 40.2 30.25 7.8
    endloop
  endfacet
  facet normal 0 0 1
    outer loop
      vertex 40.2 17.75 7.8
      vertex 36.97 30.25 7.8
      vertex 36.97 17.75 7.8
    endloop
  endfacet
  facet normal -0 0 1
    outer loop
      vertex 13.8 30.25 7.8
      vertex 29.47 17.75 7.8
      vertex 29.47 30.25 7.8
    endloop
  endfacet
  facet normal 0 0 1
    outer loop
      vertex 29.47 17.75 7.8
      vertex 13.8 30.25 7.8
      vertex 13.8 17.75 7.8
    endloop
  endfacet
  facet normal 1 -0 0
    outer loop
      vertex 13.8 17.75 15
      vertex 13.8 30.25 7.8
      vertex 13.8 30.25 15
    endloop
  endfacet
  facet normal 1 0 0
    outer loop
      vertex 13.8 30.25 7.8
      vertex 13.8 17.75 15
      vertex 13.8 17.75 7.8
    endloop
  endfacet
  facet normal 0 -1 0
    outer loop
      vertex 36.97 30.25 7.8
      vertex 40.2 30.25 15
      vertex 36.97 30.25 15
    endloop
  endfacet
  facet normal 0 -1 -0
    outer loop
      vertex 40.2 30.25 15
      vertex 36.97 30.25 7.8
      vertex 40.2 30.25 7.8
    endloop
  endfacet
  facet normal 0 -1 0
    outer loop
      vertex 13.8 30.25 7.8
      vertex 29.47 30.25 15
      vertex 13.8 30.25 15
    endloop
  endfacet
  facet normal 0 -1 -0
    outer loop
      vertex 29.47 30.25 15
      vertex 13.8 30.25 7.8
      vertex 29.47 30.25 7.8
    endloop
  endfacet
  facet normal 0 1 -0
    outer loop
      vertex 40.2 17.75 7.8
      vertex 36.97 17.75 15
      vertex 40.2 17.75 15
    endloop
  endfacet
  facet normal 0 1 0
    outer loop
      vertex 36.97 17.75 15
      vertex 40.2 17.75 7.8
      vertex 36.97 17.75 7.8
    endloop
  endfacet
  facet normal 0 1 -0
    outer loop
      vertex 29.47 17.75 7.8
      vertex 13.8 17.75 15
      vertex 29.47 17.75 15
    endloop
  endfacet
  facet normal 0 1 0
    outer loop
      vertex 13.8 17.75 15
      vertex 29.47 17.75 7.8
      vertex 13.8 17.75 7.8
    endloop
  endfacet
  facet normal -1 0 0
    outer loop
      vertex 36.97 33 6.8
      vertex 36.97 30.25 7.8
      vertex 36.97 33 15
    endloop
  endfacet
  facet normal -1 0 0
    outer loop
      vertex 36.97 33 6.8
      vertex 36.97 17.75 7.8
      vertex 36.97 30.25 7.8
    endloop
  endfacet
  facet normal -1 0 0
    outer loop
      vertex 36.97 15 6.8
      vertex 36.97 17.75 7.8
      vertex 36.97 33 6.8
    endloop
  endfacet
  facet normal -1 0 0
    outer loop
      vertex 36.97 15 15
      vertex 36.97 17.75 7.8
      vertex 36.97 15 6.8
    endloop
  endfacet
  facet normal -1 0 0
    outer loop
      vertex 36.97 17.75 7.8
      vertex 36.97 15 15
      vertex 36.97 17.75 15
    endloop
  endfacet
  facet normal -1 -0 0
    outer loop
      vertex 36.97 33 15
      vertex 36.97 30.25 7.8
      vertex 36.97 30.25 15
    endloop
  endfacet
  facet normal -0 0 1
    outer loop
      vertex 29.47 33 6.8
      vertex 36.97 15 6.8
      vertex 36.97 33 6.8
    endloop
  endfacet
  facet normal 0 0 1
    outer loop
      vertex 36.97 15 6.8
      vertex 29.47 33 6.8
      vertex 29.47 15 6.8
    endloop
  endfacet
  facet normal 1 0 0
    outer loop
      vertex 29.47 17.75 15
      vertex 29.47 15 15
      vertex 29.47 17.75 7.8
    endloop
  endfacet
  facet normal 1 0 0
    outer loop
      vertex 29.47 30.25 7.8
      vertex 29.47 33 15
      vertex 29.47 30.25 15
    endloop
  endfacet
  facet normal 1 0 0
    outer loop
      vertex 29.47 33 15
      vertex 29.47 30.25 7.8
      vertex 29.47 33 6.8
    endloop
  endfacet
  facet normal 1 -0 0
    outer loop
      vertex 29.47 17.75 7.8
      vertex 29.47 33 6.8
      vertex 29.47 30.25 7.8
    endloop
  endfacet
  facet normal 1 0 0
    outer loop
      vertex 29.47 17.75 7.8
      vertex 29.47 15 6.8
      vertex 29.47 33 6.8
    endloop
  endfacet
  facet normal 1 0 0
    outer loop
      vertex 29.47 15 6.8
      vertex 29.47 17.75 7.8
      vertex 29.47 15 15
    endloop
  endfacet
  facet normal 0 -1 0
    outer loop
      vertex 29.47 33 6.8
      vertex 36.97 33 15
      vertex 29.47 33 15
    endloop
  endfacet
  facet normal 0 -1 -0
    outer loop
      vertex 36.97 33 15
      vertex 29.47 33 6.8
      vertex 36.97 33 6.8
    endloop
  endfacet
  facet normal 0 1 -0
    outer loop
      vertex 36.97 15 6.8
      vertex 29.47 15 15
      vertex 36.97 15 15
    endloop
  endfacet
  facet normal 0 1 0
    outer loop
      vertex 29.47 15 15
      vertex 36.97 15 6.8
      vertex 29.47 15 6.8
    endloop
  endfacet
  facet normal 1 -0 0
    outer loop
      vertex 92 11 4
      vertex 92 37 0
      vertex 92 37 4
    endloop
  endfacet
  facet normal 1 0 0
    outer loop
      vertex 92 37 0
      vertex 92 11 4
      vertex 92 11 0
    endloop
  endfacet
  facet normal 0 0 1
    outer loop
      vertex 92 37 4
      vertex 88 30 4
      vertex 92 11 4
    endloop
  endfacet
  facet normal 0 0 1
    outer loop
      vertex 92 37 4
      vertex 62 30 4
      vertex 88 30 4
    endloop
  endfacet
  facet normal 0 0 1
    outer loop
      vertex 62 30 4
      vertex 58 37 4
      vertex 62 18 4
    endloop
  endfacet
  facet normal -0 0 1
    outer loop
      vertex 58 37 4
      vertex 62 30 4
      vertex 92 37 4
    endloop
  endfacet
  facet normal -0 0 1
    outer loop
      vertex 88 18 4
      vertex 92 11 4
      vertex 88 30 4
    endloop
  endfacet
  facet normal -0 0 1
    outer loop
      vertex 62 18 4
      vertex 92 11 4
      vertex 88 18 4
    endloop
  endfacet
  facet normal 0 0 1
    outer loop
      vertex 62 18 4
      vertex 58 11 4
      vertex 92 11 4
    endloop
  endfacet
  facet normal 0 0 1
    outer loop
      vertex 58 11 4
      vertex 62 18 4
      vertex 58 37 4
    endloop
  endfacet
  facet normal 0 0 -1
    outer loop
      vertex 58 11 0
      vertex 92 37 0
      vertex 92 11 0
    endloop
  endfacet
  facet normal -0 0 -1
    outer loop
      vertex 92 37 0
      vertex 58 11 0
      vertex 58 37 0
    endloop
  endfacet
  facet normal -1 0 0
    outer loop
      vertex 58 11 0
      vertex 58 37 4
      vertex 58 37 0
    endloop
  endfacet
  facet normal -1 -0 0
    outer loop
      vertex 58 37 4
      vertex 58 11 0
      vertex 58 11 4
    endloop
  endfacet
  facet normal 0 1 -0
    outer loop
      vertex 92 37 0
      vertex 58 37 4
      vertex 92 37 4
    endloop
  endfacet
  facet normal 0 1 0
    outer loop
      vertex 58 37 4
      vertex 92 37 0
      vertex 58 37 0
    endloop
  endfacet
  facet normal 0 -1 0
    outer loop
      vertex 58 11 0
      vertex 92 11 4
      vertex 58 11 4
    endloop
  endfacet
  facet normal 0 -1 -0
    outer loop
      vertex 92 11 4
      vertex 58 11 0
      vertex 92 11 0
    endloop
  endfacet
  facet normal 1 -0 0
    outer loop
      vertex 88 18 11
      vertex 88 30 4
      vertex 88 30 11
    endloop
  endfacet
  facet normal 1 0 0
    outer loop
      vertex 88 30 4
      vertex 88 18 11
      vertex 88 18 4
    endloop
  endfacet
  facet normal -0 0 1
    outer loop
      vertex 62 30 11
      vertex 77.72 18 11
      vertex 77.72 30 11
    endloop
  endfacet
  facet normal 0 0 1
    outer loop
      vertex 77.72 18 11
      vertex 62 30 11
      vertex 62 18 11
    endloop
  endfacet
  facet normal -0 0 1
    outer loop
      vertex 84.72 30 11
      vertex 88 18 11
      vertex 88 30 11
    endloop
  endfacet
  facet normal 0 0 1
    outer loop
      vertex 88 18 11
      vertex 84.72 30 11
      vertex 84.72 18 11
    endloop
  endfacet
  facet normal -1 0 0
    outer loop
      vertex 62 18 4
      vertex 62 30 11
      vertex 62 30 4
    endloop
  endfacet
  facet normal -1 -0 0
    outer loop
      vertex 62 30 11
      vertex 62 18 4
      vertex 62 18 11
    endloop
  endfacet
  facet normal 0 1 0
    outer loop
      vertex 88 30 11
      vertex 84.72 30 7
      vertex 84.72 30 11
    endloop
  endfacet
  facet normal 0 1 0
    outer loop
      vertex 84.72 30 7
      vertex 88 30 4
      vertex 77.72 30 7
    endloop
  endfacet
  facet normal 0 1 -0
    outer loop
      vertex 88 30 4
      vertex 84.72 30 7
      vertex 88 30 11
    endloop
  endfacet
  facet normal 0 1 -0
    outer loop
      vertex 77.72 30 7
      vertex 62 30 11
      vertex 77.72 30 11
    endloop
  endfacet
  facet normal 0 1 0
    outer loop
      vertex 62 30 4
      vertex 77.72 30 7
      vertex 88 30 4
    endloop
  endfacet
  facet normal 0 1 0
    outer loop
      vertex 77.72 30 7
      vertex 62 30 4
      vertex 62 30 11
    endloop
  endfacet
  facet normal 0 -1 0
    outer loop
      vertex 62 18 11
      vertex 77.72 18 7
      vertex 77.72 18 11
    endloop
  endfacet
  facet normal 0 -1 0
    outer loop
      vertex 88 18 4
      vertex 77.72 18 7
      vertex 62 18 4
    endloop
  endfacet
  facet normal 0 -1 0
    outer loop
      vertex 62 18 4
      vertex 77.72 18 7
      vertex 62 18 11
    endloop
  endfacet
  facet normal 0 -1 0
    outer loop
      vertex 84.72 18 7
      vertex 88 18 11
      vertex 84.72 18 11
    endloop
  endfacet
  facet normal 0 -1 0
    outer loop
      vertex 84.72 18 7
      vertex 88 18 4
      vertex 88 18 11
    endloop
  endfacet
  facet normal 0 -1 0
    outer loop
      vertex 77.72 18 7
      vertex 88 18 4
      vertex 84.72 18 7
    endloop
  endfacet
  facet normal 1 0 0
    outer loop
      vertex 84.72 32 13
      vertex 84.72 30 11
      vertex 84.72 32 7
    endloop
  endfacet
  facet normal 1 0 0
    outer loop
      vertex 84.72 32 13
      vertex 84.72 18 11
      vertex 84.72 30 11
    endloop
  endfacet
  facet normal 1 -0 0
    outer loop
      vertex 84.72 16 13
      vertex 84.72 18 11
      vertex 84.72 32 13
    endloop
  endfacet
  facet normal 1 0 0
    outer loop
      vertex 84.72 16 7
      vertex 84.72 18 11
      vertex 84.72 16 13
    endloop
  endfacet
  facet normal 1 0 0
    outer loop
      vertex 84.72 18 11
      vertex 84.72 16 7
      vertex 84.72 18 7
    endloop
  endfacet
  facet normal 1 0 0
    outer loop
      vertex 84.72 32 7
      vertex 84.72 30 11
      vertex 84.72 30 7
    endloop
  endfacet
  facet normal -0 0 1
    outer loop
      vertex 77.72 32 13
      vertex 84.72 16 13
      vertex 84.72 32 13
    endloop
  endfacet
  facet normal 0 0 1
    outer loop
      vertex 84.72 16 13
      vertex 77.72 32 13
      vertex 77.72 16 13
    endloop
  endfacet
  facet normal 0 0 -1
    outer loop
      vertex 77.72 30 7
      vertex 84.72 32 7
      vertex 84.72 30 7
    endloop
  endfacet
  facet normal -0 0 -1
    outer loop
      vertex 84.72 32 7
      vertex 77.72 30 7
      vertex 77.72 32 7
    endloop
  endfacet
  facet normal 0 0 -1
    outer loop
      vertex 77.72 16 7
      vertex 84.72 18 7
      vertex 84.72 16 7
    endloop
  endfacet
  facet normal -0 0 -1
    outer loop
      vertex 84.72 18 7
      vertex 77.72 16 7
      vertex 77.72 18 7
    endloop
  endfacet
  facet normal -1 0 0
    outer loop
      vertex 77.72 18 7
      vertex 77.72 16 7
      vertex 77.72 18 11
    endloop
  endfacet
  facet normal -1 0 0
    outer loop
      vertex 77.72 30 11
      vertex 77.72 32 7
      vertex 77.72 30 7
    endloop
  endfacet
  facet normal -1 0 0
    outer loop
      vertex 77.72 32 7
      vertex 77.72 30 11
      vertex 77.72 32 13
    endloop
  endfacet
  facet normal -1 0 0
    outer loop
      vertex 77.72 18 11
      vertex 77.72 32 13
      vertex 77.72 30 11
    endloop
  endfacet
  facet normal -1 0 0
    outer loop
      vertex 77.72 18 11
      vertex 77.72 16 13
      vertex 77.72 32 13
    endloop
  endfacet
  facet normal -1 0 0
    outer loop
      vertex 77.72 16 13
      vertex 77.72 18 11
      vertex 77.72 16 7
    endloop
  endfacet
  facet normal 0 1 -0
    outer loop
      vertex 84.72 32 7
      vertex 77.72 32 13
      vertex 84.72 32 13
    endloop
  endfacet
  facet normal 0 1 0
    outer loop
      vertex 77.72 32 13
      vertex 84.72 32 7
      vertex 77.72 32 7
    endloop
  endfacet
  facet normal 0 -1 0
    outer loop
      vertex 77.72 16 7
      vertex 84.72 16 13
      vertex 77.72 16 13
    endloop
  endfacet
  facet normal 0 -1 -0
    outer loop
      vertex 84.72 16 13
      vertex 77.72 16 7
      vertex 84.72 16 7
    endloop
  endfacet
  facet normal -1 0 0
    outer loop
      vertex 36 63.5 0
      vertex 36 57.5 6
      vertex 36 62.5 6
    endloop
  endfacet
  facet normal -1 0 -0
    outer loop
      vertex 36 57.5 6
      vertex 36 63.5 0
      vertex 36 56.5 0
    endloop
  endfacet
  facet normal 1 -0 0
    outer loop
      vertex 60 57.5 6
      vertex 60 63.5 0
      vertex 60 62.5 6
    endloop
  endfacet
  facet normal 1 0 0
    outer loop
      vertex 60 63.5 0
      vertex 60 57.5 6
      vertex 60 56.5 0
    endloop
  endfacet
  facet normal 0 0 -1
    outer loop
      vertex 36 56.5 0
      vertex 60 63.5 0
      vertex 60 56.5 0
    endloop
  endfacet
  facet normal -0 0 -1
    outer loop
      vertex 60 63.5 0
      vertex 36 56.5 0
      vertex 36 63.5 0
    endloop
  endfacet
  facet normal 0 0.986394 0.164399
    outer loop
      vertex 60 63.5 0
      vertex 36 62.5 6
      vertex 60 62.5 6
    endloop
  endfacet
  facet normal 0 0.986394 0.164399
    outer loop
      vertex 36 62.5 6
      vertex 60 63.5 0
      vertex 36 63.5 0
    endloop
  endfacet
  facet normal -0 0 1
    outer loop
      vertex 36 62.5 6
      vertex 60 57.5 6
      vertex 60 62.5 6
    endloop
  endfacet
  facet normal 0 0 1
    outer loop
      vertex 60 57.5 6
      vertex 36 62.5 6
      vertex 36 57.5 6
    endloop
  endfacet
  facet normal 0 -0.986394 0.164399
    outer loop
      vertex 36 56.5 0
      vertex 60 57.5 6
      vertex 36 57.5 6
    endloop
  endfacet
  facet normal 0 -0.986394 0.164399
    outer loop
      vertex 60 57.5 6
      vertex 36 56.5 0
      vertex 60 56.5 0
    endloop
  endfacet
endsolid OpenSCAD_Model
