ISO-10303-21;
HEADER;
FILE_DESCRIPTION(('Open CASCADE Model'),'2;1');
FILE_NAME('Open CASCADE Shape Model','2026-08-06T23:22:46',('Author'),(
    'Open CASCADE'),'Open CASCADE STEP processor 7.9','Open CASCADE 7.9'
  ,'Unknown');
FILE_SCHEMA(('AUTOMOTIVE_DESIGN { 1 0 10303 214 1 1 1 1 }'));
ENDSEC;
DATA;
#1 = APPLICATION_PROTOCOL_DEFINITION('international standard',
  'automotive_design',2000,#2);
#2 = APPLICATION_CONTEXT(
  'core data for automotive mechanical design processes');
#3 = SHAPE_DEFINITION_REPRESENTATION(#4,#10);
#4 = PRODUCT_DEFINITION_SHAPE('','',#5);
#5 = PRODUCT_DEFINITION('design','',#6,#9);
#6 = PRODUCT_DEFINITION_FORMATION('','',#7);
#7 = PRODUCT('Open CASCADE STEP translator 7.9 1',
  'Open CASCADE STEP translator 7.9 1','',(#8));
#8 = PRODUCT_CONTEXT('',#2,'mechanical');
#9 = PRODUCT_DEFINITION_CONTEXT('part definition',#2,'design');
#10 = ADVANCED_BREP_SHAPE_REPRESENTATION('',(#11,#15),#592);
#11 = AXIS2_PLACEMENT_3D('',#12,#13,#14);
#12 = CARTESIAN_POINT('',(0.,0.,0.));
#13 = DIRECTION('',(0.,0.,1.));
#14 = DIRECTION('',(1.,0.,-0.));
#15 = MANIFOLD_SOLID_BREP('',#16);
#16 = CLOSED_SHELL('',(#17,#105,#109,#144,#433,#490,#529,#533,#588));
#17 = ADVANCED_FACE('',(#18),#32,.T.);
#18 = FACE_BOUND('',#19,.F.);
#19 = EDGE_LOOP('',(#20,#50,#77,#78));
#20 = ORIENTED_EDGE('',*,*,#21,.T.);
#21 = EDGE_CURVE('',#22,#24,#26,.T.);
#22 = VERTEX_POINT('',#23);
#23 = CARTESIAN_POINT('',(34.25,0.,0.));
#24 = VERTEX_POINT('',#25);
#25 = CARTESIAN_POINT('',(34.25,0.,15.));
#26 = SEAM_CURVE('',#27,(#31,#43),.PCURVE_S1.);
#27 = LINE('',#28,#29);
#28 = CARTESIAN_POINT('',(34.25,0.,0.));
#29 = VECTOR('',#30,1.);
#30 = DIRECTION('',(0.,0.,1.));
#31 = PCURVE('',#32,#37);
#32 = CYLINDRICAL_SURFACE('',#33,34.25);
#33 = AXIS2_PLACEMENT_3D('',#34,#35,#36);
#34 = CARTESIAN_POINT('',(0.,0.,0.));
#35 = DIRECTION('',(-0.,-0.,-1.));
#36 = DIRECTION('',(1.,0.,0.));
#37 = DEFINITIONAL_REPRESENTATION('',(#38),#42);
#38 = LINE('',#39,#40);
#39 = CARTESIAN_POINT('',(-0.,0.));
#40 = VECTOR('',#41,1.);
#41 = DIRECTION('',(-0.,-1.));
#42 = ( GEOMETRIC_REPRESENTATION_CONTEXT(2) 
PARAMETRIC_REPRESENTATION_CONTEXT() REPRESENTATION_CONTEXT('2D SPACE',''
  ) );
#43 = PCURVE('',#32,#44);
#44 = DEFINITIONAL_REPRESENTATION('',(#45),#49);
#45 = LINE('',#46,#47);
#46 = CARTESIAN_POINT('',(-6.28318530718,0.));
#47 = VECTOR('',#48,1.);
#48 = DIRECTION('',(-0.,-1.));
#49 = ( GEOMETRIC_REPRESENTATION_CONTEXT(2) 
PARAMETRIC_REPRESENTATION_CONTEXT() REPRESENTATION_CONTEXT('2D SPACE',''
  ) );
#50 = ORIENTED_EDGE('',*,*,#51,.T.);
#51 = EDGE_CURVE('',#24,#24,#52,.T.);
#52 = SURFACE_CURVE('',#53,(#58,#65),.PCURVE_S1.);
#53 = CIRCLE('',#54,34.25);
#54 = AXIS2_PLACEMENT_3D('',#55,#56,#57);
#55 = CARTESIAN_POINT('',(0.,0.,15.));
#56 = DIRECTION('',(0.,0.,1.));
#57 = DIRECTION('',(1.,0.,0.));
#58 = PCURVE('',#32,#59);
#59 = DEFINITIONAL_REPRESENTATION('',(#60),#64);
#60 = LINE('',#61,#62);
#61 = CARTESIAN_POINT('',(-0.,-15.));
#62 = VECTOR('',#63,1.);
#63 = DIRECTION('',(-1.,0.));
#64 = ( GEOMETRIC_REPRESENTATION_CONTEXT(2) 
PARAMETRIC_REPRESENTATION_CONTEXT() REPRESENTATION_CONTEXT('2D SPACE',''
  ) );
#65 = PCURVE('',#66,#71);
#66 = PLANE('',#67);
#67 = AXIS2_PLACEMENT_3D('',#68,#69,#70);
#68 = CARTESIAN_POINT('',(-1.916412448522E-15,2.434686468018E-15,15.));
#69 = DIRECTION('',(0.,0.,1.));
#70 = DIRECTION('',(1.,0.,-0.));
#71 = DEFINITIONAL_REPRESENTATION('',(#72),#76);
#72 = CIRCLE('',#73,34.25);
#73 = AXIS2_PLACEMENT_2D('',#74,#75);
#74 = CARTESIAN_POINT('',(1.916412448522E-15,-2.434686468018E-15));
#75 = DIRECTION('',(1.,0.));
#76 = ( GEOMETRIC_REPRESENTATION_CONTEXT(2) 
PARAMETRIC_REPRESENTATION_CONTEXT() REPRESENTATION_CONTEXT('2D SPACE',''
  ) );
#77 = ORIENTED_EDGE('',*,*,#21,.F.);
#78 = ORIENTED_EDGE('',*,*,#79,.F.);
#79 = EDGE_CURVE('',#22,#22,#80,.T.);
#80 = SURFACE_CURVE('',#81,(#86,#93),.PCURVE_S1.);
#81 = CIRCLE('',#82,34.25);
#82 = AXIS2_PLACEMENT_3D('',#83,#84,#85);
#83 = CARTESIAN_POINT('',(0.,0.,0.));
#84 = DIRECTION('',(0.,0.,1.));
#85 = DIRECTION('',(1.,0.,0.));
#86 = PCURVE('',#32,#87);
#87 = DEFINITIONAL_REPRESENTATION('',(#88),#92);
#88 = LINE('',#89,#90);
#89 = CARTESIAN_POINT('',(-0.,0.));
#90 = VECTOR('',#91,1.);
#91 = DIRECTION('',(-1.,0.));
#92 = ( GEOMETRIC_REPRESENTATION_CONTEXT(2) 
PARAMETRIC_REPRESENTATION_CONTEXT() REPRESENTATION_CONTEXT('2D SPACE',''
  ) );
#93 = PCURVE('',#94,#99);
#94 = PLANE('',#95);
#95 = AXIS2_PLACEMENT_3D('',#96,#97,#98);
#96 = CARTESIAN_POINT('',(-1.916412448522E-15,2.434686468018E-15,0.));
#97 = DIRECTION('',(0.,0.,1.));
#98 = DIRECTION('',(1.,0.,-0.));
#99 = DEFINITIONAL_REPRESENTATION('',(#100),#104);
#100 = CIRCLE('',#101,34.25);
#101 = AXIS2_PLACEMENT_2D('',#102,#103);
#102 = CARTESIAN_POINT('',(1.916412448522E-15,-2.434686468018E-15));
#103 = DIRECTION('',(1.,0.));
#104 = ( GEOMETRIC_REPRESENTATION_CONTEXT(2) 
PARAMETRIC_REPRESENTATION_CONTEXT() REPRESENTATION_CONTEXT('2D SPACE',''
  ) );
#105 = ADVANCED_FACE('',(#106),#94,.F.);
#106 = FACE_BOUND('',#107,.F.);
#107 = EDGE_LOOP('',(#108));
#108 = ORIENTED_EDGE('',*,*,#79,.T.);
#109 = ADVANCED_FACE('',(#110,#113),#66,.T.);
#110 = FACE_BOUND('',#111,.T.);
#111 = EDGE_LOOP('',(#112));
#112 = ORIENTED_EDGE('',*,*,#51,.T.);
#113 = FACE_BOUND('',#114,.T.);
#114 = EDGE_LOOP('',(#115));
#115 = ORIENTED_EDGE('',*,*,#116,.F.);
#116 = EDGE_CURVE('',#117,#117,#119,.T.);
#117 = VERTEX_POINT('',#118);
#118 = CARTESIAN_POINT('',(30.7,0.,15.));
#119 = SURFACE_CURVE('',#120,(#125,#132),.PCURVE_S1.);
#120 = CIRCLE('',#121,30.7);
#121 = AXIS2_PLACEMENT_3D('',#122,#123,#124);
#122 = CARTESIAN_POINT('',(0.,0.,15.));
#123 = DIRECTION('',(0.,0.,1.));
#124 = DIRECTION('',(1.,0.,0.));
#125 = PCURVE('',#66,#126);
#126 = DEFINITIONAL_REPRESENTATION('',(#127),#131);
#127 = CIRCLE('',#128,30.7);
#128 = AXIS2_PLACEMENT_2D('',#129,#130);
#129 = CARTESIAN_POINT('',(1.916412448522E-15,-2.434686468018E-15));
#130 = DIRECTION('',(1.,0.));
#131 = ( GEOMETRIC_REPRESENTATION_CONTEXT(2) 
PARAMETRIC_REPRESENTATION_CONTEXT() REPRESENTATION_CONTEXT('2D SPACE',''
  ) );
#132 = PCURVE('',#133,#138);
#133 = CYLINDRICAL_SURFACE('',#134,30.7);
#134 = AXIS2_PLACEMENT_3D('',#135,#136,#137);
#135 = CARTESIAN_POINT('',(0.,0.,15.));
#136 = DIRECTION('',(-0.,-0.,-1.));
#137 = DIRECTION('',(1.,0.,0.));
#138 = DEFINITIONAL_REPRESENTATION('',(#139),#143);
#139 = LINE('',#140,#141);
#140 = CARTESIAN_POINT('',(-0.,0.));
#141 = VECTOR('',#142,1.);
#142 = DIRECTION('',(-1.,0.));
#143 = ( GEOMETRIC_REPRESENTATION_CONTEXT(2) 
PARAMETRIC_REPRESENTATION_CONTEXT() REPRESENTATION_CONTEXT('2D SPACE',''
  ) );
#144 = ADVANCED_FACE('',(#145),#133,.T.);
#145 = FACE_BOUND('',#146,.F.);
#146 = EDGE_LOOP('',(#147,#148,#171,#217,#273,#296,#323,#324,#432));
#147 = ORIENTED_EDGE('',*,*,#116,.F.);
#148 = ORIENTED_EDGE('',*,*,#149,.T.);
#149 = EDGE_CURVE('',#117,#150,#152,.T.);
#150 = VERTEX_POINT('',#151);
#151 = CARTESIAN_POINT('',(30.7,0.,122.525));
#152 = SEAM_CURVE('',#153,(#157,#164),.PCURVE_S1.);
#153 = LINE('',#154,#155);
#154 = CARTESIAN_POINT('',(30.7,0.,15.));
#155 = VECTOR('',#156,1.);
#156 = DIRECTION('',(0.,0.,1.));
#157 = PCURVE('',#133,#158);
#158 = DEFINITIONAL_REPRESENTATION('',(#159),#163);
#159 = LINE('',#160,#161);
#160 = CARTESIAN_POINT('',(-6.28318530718,0.));
#161 = VECTOR('',#162,1.);
#162 = DIRECTION('',(-0.,-1.));
#163 = ( GEOMETRIC_REPRESENTATION_CONTEXT(2) 
PARAMETRIC_REPRESENTATION_CONTEXT() REPRESENTATION_CONTEXT('2D SPACE',''
  ) );
#164 = PCURVE('',#133,#165);
#165 = DEFINITIONAL_REPRESENTATION('',(#166),#170);
#166 = LINE('',#167,#168);
#167 = CARTESIAN_POINT('',(-0.,0.));
#168 = VECTOR('',#169,1.);
#169 = DIRECTION('',(-0.,-1.));
#170 = ( GEOMETRIC_REPRESENTATION_CONTEXT(2) 
PARAMETRIC_REPRESENTATION_CONTEXT() REPRESENTATION_CONTEXT('2D SPACE',''
  ) );
#171 = ORIENTED_EDGE('',*,*,#172,.T.);
#172 = EDGE_CURVE('',#150,#173,#175,.T.);
#173 = VERTEX_POINT('',#174);
#174 = CARTESIAN_POINT('',(30.687528004061,0.875,123.4));
#175 = SURFACE_CURVE('',#176,(#186,#199),.PCURVE_S1.);
#176 = B_SPLINE_CURVE_WITH_KNOTS('',8,(#177,#178,#179,#180,#181,#182,
    #183,#184,#185),.UNSPECIFIED.,.F.,.F.,(9,9),(0.,1.),
  .PIECEWISE_BEZIER_KNOTS.);
#177 = CARTESIAN_POINT('',(30.7,1.473944788281E-15,122.525));
#178 = CARTESIAN_POINT('',(30.7,0.194524023474,122.525));
#179 = CARTESIAN_POINT('',(30.698591492429,0.379616214745,122.5744227821
    ));
#180 = CARTESIAN_POINT('',(30.696012444344,0.543023593757,
    122.66488528377));
#181 = CARTESIAN_POINT('',(30.692986668278,0.677141238003,
    122.78674101189));
#182 = CARTESIAN_POINT('',(30.690301034128,0.777764189905,
    122.93005419425));
#183 = CARTESIAN_POINT('',(30.688426857543,0.843472211178,123.0855409863
    ));
#184 = CARTESIAN_POINT('',(30.687528004061,0.875,123.24463191077));
#185 = CARTESIAN_POINT('',(30.687528004061,0.875,123.4));
#186 = PCURVE('',#133,#187);
#187 = DEFINITIONAL_REPRESENTATION('',(#188),#198);
#188 = B_SPLINE_CURVE_WITH_KNOTS('',8,(#189,#190,#191,#192,#193,#194,
    #195,#196,#197),.UNSPECIFIED.,.F.,.F.,(9,9),(0.,1.),
  .PIECEWISE_BEZIER_KNOTS.);
#189 = CARTESIAN_POINT('',(0.,-107.525));
#190 = CARTESIAN_POINT('',(-6.336287409582E-03,-107.525));
#191 = CARTESIAN_POINT('',(-1.236534974386E-02,-107.5744227821));
#192 = CARTESIAN_POINT('',(-1.768844858985E-02,-107.6648852837));
#193 = CARTESIAN_POINT('',(-2.205812309645E-02,-107.7867410118));
#194 = CARTESIAN_POINT('',(-2.533691343689E-02,-107.9300541942));
#195 = CARTESIAN_POINT('',(-2.747810729806E-02,-108.0855409863));
#196 = CARTESIAN_POINT('',(-2.850548892478E-02,-108.2446319107));
#197 = CARTESIAN_POINT('',(-2.850548892478E-02,-108.4));
#198 = ( GEOMETRIC_REPRESENTATION_CONTEXT(2) 
PARAMETRIC_REPRESENTATION_CONTEXT() REPRESENTATION_CONTEXT('2D SPACE',''
  ) );
#199 = PCURVE('',#200,#205);
#200 = CYLINDRICAL_SURFACE('',#201,0.875);
#201 = AXIS2_PLACEMENT_3D('',#202,#203,#204);
#202 = CARTESIAN_POINT('',(30.3,0.,123.4));
#203 = DIRECTION('',(-1.,-0.,-0.));
#204 = DIRECTION('',(0.,1.,0.));
#205 = DEFINITIONAL_REPRESENTATION('',(#206),#216);
#206 = B_SPLINE_CURVE_WITH_KNOTS('',8,(#207,#208,#209,#210,#211,#212,
    #213,#214,#215),.UNSPECIFIED.,.F.,.F.,(9,9),(0.,1.),
  .PIECEWISE_BEZIER_KNOTS.);
#207 = CARTESIAN_POINT('',(-4.712388980385,-0.4));
#208 = CARTESIAN_POINT('',(-4.934702150069,-0.4));
#209 = CARTESIAN_POINT('',(-5.146238647976,-0.398591492429));
#210 = CARTESIAN_POINT('',(-5.349716046076,-0.396012444344));
#211 = CARTESIAN_POINT('',(-5.546462511147,-0.392986668278));
#212 = CARTESIAN_POINT('',(-5.737579134101,-0.390301034128));
#213 = CARTESIAN_POINT('',(-5.923802445267,-0.388426857544));
#214 = CARTESIAN_POINT('',(-6.105621776631,-0.387528004061));
#215 = CARTESIAN_POINT('',(-6.28318530718,-0.387528004061));
#216 = ( GEOMETRIC_REPRESENTATION_CONTEXT(2) 
PARAMETRIC_REPRESENTATION_CONTEXT() REPRESENTATION_CONTEXT('2D SPACE',''
  ) );
#217 = ORIENTED_EDGE('',*,*,#218,.T.);
#218 = EDGE_CURVE('',#173,#219,#221,.T.);
#219 = VERTEX_POINT('',#220);
#220 = CARTESIAN_POINT('',(30.7,0.,124.275));
#221 = SURFACE_CURVE('',#222,(#237,#255),.PCURVE_S1.);
#222 = B_SPLINE_CURVE_WITH_KNOTS('',7,(#223,#224,#225,#226,#227,#228,
    #229,#230,#231,#232,#233,#234,#235,#236),.UNSPECIFIED.,.F.,.F.,(8,6,
    8),(0.,0.609223684193,1.),.UNSPECIFIED.);
#223 = CARTESIAN_POINT('',(30.687528004061,0.875,123.4));
#224 = CARTESIAN_POINT('',(30.687528004061,0.875,123.50957428713));
#225 = CARTESIAN_POINT('',(30.687984446434,0.858991365936,
    123.61936976492));
#226 = CARTESIAN_POINT('',(30.68890076996,0.826857304794,123.72732447961
    ));
#227 = CARTESIAN_POINT('',(30.690228306549,0.778444954302,
    123.83123656345));
#228 = CARTESIAN_POINT('',(30.691861820076,0.713706117746,
    123.92861109696));
#229 = CARTESIAN_POINT('',(30.693629721591,0.632776679583,
    124.01654574364));
#230 = CARTESIAN_POINT('',(30.696396692712,0.474406264676,
    124.13939042964));
#231 = CARTESIAN_POINT('',(30.697448370498,0.405873801228,
    124.18219825072));
#232 = CARTESIAN_POINT('',(30.698401355886,0.331453644963,
    124.21823802627));
#233 = CARTESIAN_POINT('',(30.699180768747,0.252250707732,
    124.24626180866));
#234 = CARTESIAN_POINT('',(30.699725419407,0.169607997834,
    124.26536420367));
#235 = CARTESIAN_POINT('',(30.7,8.50101589392E-02,124.275));
#236 = CARTESIAN_POINT('',(30.7,9.111018608944E-16,124.275));
#237 = PCURVE('',#133,#238);
#238 = DEFINITIONAL_REPRESENTATION('',(#239),#254);
#239 = B_SPLINE_CURVE_WITH_KNOTS('',7,(#240,#241,#242,#243,#244,#245,
    #246,#247,#248,#249,#250,#251,#252,#253),.UNSPECIFIED.,.F.,.F.,(8,6,
    8),(0.,0.609223684193,1.),.UNSPECIFIED.);
#240 = CARTESIAN_POINT('',(-2.850548892478E-02,-108.4));
#241 = CARTESIAN_POINT('',(-2.850548892478E-02,-108.5095742871));
#242 = CARTESIAN_POINT('',(-2.798382308635E-02,-108.6193697649));
#243 = CARTESIAN_POINT('',(-2.693668575426E-02,-108.7273244796));
#244 = CARTESIAN_POINT('',(-2.53591437941E-02,-108.8312365634));
#245 = CARTESIAN_POINT('',(-2.324972816564E-02,-108.9286110969));
#246 = CARTESIAN_POINT('',(-2.061298645175E-02,-109.0165457436));
#247 = CARTESIAN_POINT('',(-1.545355372693E-02,-109.1393904296));
#248 = CARTESIAN_POINT('',(-1.322096807525E-02,-109.1821982507));
#249 = CARTESIAN_POINT('',(-1.079667317983E-02,-109.2182380262));
#250 = CARTESIAN_POINT('',(-8.216669925963E-03,-109.2462618086));
#251 = CARTESIAN_POINT('',(-5.524690538459E-03,-109.2653642036));
#252 = CARTESIAN_POINT('',(-2.769060551766E-03,-109.275));
#253 = CARTESIAN_POINT('',(0.,-109.275));
#254 = ( GEOMETRIC_REPRESENTATION_CONTEXT(2) 
PARAMETRIC_REPRESENTATION_CONTEXT() REPRESENTATION_CONTEXT('2D SPACE',''
  ) );
#255 = PCURVE('',#200,#256);
#256 = DEFINITIONAL_REPRESENTATION('',(#257),#272);
#257 = B_SPLINE_CURVE_WITH_KNOTS('',7,(#258,#259,#260,#261,#262,#263,
    #264,#265,#266,#267,#268,#269,#270,#271),.UNSPECIFIED.,.F.,.F.,(8,6,
    8),(0.,0.609223684193,1.),.UNSPECIFIED.);
#258 = CARTESIAN_POINT('',(0.,-0.387528004061));
#259 = CARTESIAN_POINT('',(-0.125227756722,-0.387528004061));
#260 = CARTESIAN_POINT('',(-0.250708024717,-0.387984446434));
#261 = CARTESIAN_POINT('',(-0.377293702371,-0.38890076996));
#262 = CARTESIAN_POINT('',(-0.505728812946,-0.390228306549));
#263 = CARTESIAN_POINT('',(-0.636834057651,-0.391861820076));
#264 = CARTESIAN_POINT('',(-0.771511663929,-0.393629721591));
#265 = CARTESIAN_POINT('',(-1.000574008734,-0.396396692712));
#266 = CARTESIAN_POINT('',(-1.092446169444,-0.397448370498));
#267 = CARTESIAN_POINT('',(-1.186067433576,-0.398401355886));
#268 = CARTESIAN_POINT('',(-1.281011067682,-0.399180768747));
#269 = CARTESIAN_POINT('',(-1.376958916651,-0.399725419407));
#270 = CARTESIAN_POINT('',(-1.473641859436,-0.4));
#271 = CARTESIAN_POINT('',(-1.570796326795,-0.4));
#272 = ( GEOMETRIC_REPRESENTATION_CONTEXT(2) 
PARAMETRIC_REPRESENTATION_CONTEXT() REPRESENTATION_CONTEXT('2D SPACE',''
  ) );
#273 = ORIENTED_EDGE('',*,*,#274,.T.);
#274 = EDGE_CURVE('',#219,#275,#277,.T.);
#275 = VERTEX_POINT('',#276);
#276 = CARTESIAN_POINT('',(30.7,0.,127.4));
#277 = SEAM_CURVE('',#278,(#282,#289),.PCURVE_S1.);
#278 = LINE('',#279,#280);
#279 = CARTESIAN_POINT('',(30.7,0.,15.));
#280 = VECTOR('',#281,1.);
#281 = DIRECTION('',(0.,0.,1.));
#282 = PCURVE('',#133,#283);
#283 = DEFINITIONAL_REPRESENTATION('',(#284),#288);
#284 = LINE('',#285,#286);
#285 = CARTESIAN_POINT('',(-6.28318530718,0.));
#286 = VECTOR('',#287,1.);
#287 = DIRECTION('',(-0.,-1.));
#288 = ( GEOMETRIC_REPRESENTATION_CONTEXT(2) 
PARAMETRIC_REPRESENTATION_CONTEXT() REPRESENTATION_CONTEXT('2D SPACE',''
  ) );
#289 = PCURVE('',#133,#290);
#290 = DEFINITIONAL_REPRESENTATION('',(#291),#295);
#291 = LINE('',#292,#293);
#292 = CARTESIAN_POINT('',(-0.,0.));
#293 = VECTOR('',#294,1.);
#294 = DIRECTION('',(-0.,-1.));
#295 = ( GEOMETRIC_REPRESENTATION_CONTEXT(2) 
PARAMETRIC_REPRESENTATION_CONTEXT() REPRESENTATION_CONTEXT('2D SPACE',''
  ) );
#296 = ORIENTED_EDGE('',*,*,#297,.T.);
#297 = EDGE_CURVE('',#275,#275,#298,.T.);
#298 = SURFACE_CURVE('',#299,(#304,#311),.PCURVE_S1.);
#299 = CIRCLE('',#300,30.7);
#300 = AXIS2_PLACEMENT_3D('',#301,#302,#303);
#301 = CARTESIAN_POINT('',(0.,0.,127.4));
#302 = DIRECTION('',(0.,0.,1.));
#303 = DIRECTION('',(1.,0.,0.));
#304 = PCURVE('',#133,#305);
#305 = DEFINITIONAL_REPRESENTATION('',(#306),#310);
#306 = LINE('',#307,#308);
#307 = CARTESIAN_POINT('',(-0.,-112.4));
#308 = VECTOR('',#309,1.);
#309 = DIRECTION('',(-1.,0.));
#310 = ( GEOMETRIC_REPRESENTATION_CONTEXT(2) 
PARAMETRIC_REPRESENTATION_CONTEXT() REPRESENTATION_CONTEXT('2D SPACE',''
  ) );
#311 = PCURVE('',#312,#317);
#312 = PLANE('',#313);
#313 = AXIS2_PLACEMENT_3D('',#314,#315,#316);
#314 = CARTESIAN_POINT('',(-7.126723817795E-16,1.597467635991E-15,127.4)
  );
#315 = DIRECTION('',(0.,0.,1.));
#316 = DIRECTION('',(1.,0.,-0.));
#317 = DEFINITIONAL_REPRESENTATION('',(#318),#322);
#318 = CIRCLE('',#319,30.7);
#319 = AXIS2_PLACEMENT_2D('',#320,#321);
#320 = CARTESIAN_POINT('',(7.126723817795E-16,-1.597467635991E-15));
#321 = DIRECTION('',(1.,0.));
#322 = ( GEOMETRIC_REPRESENTATION_CONTEXT(2) 
PARAMETRIC_REPRESENTATION_CONTEXT() REPRESENTATION_CONTEXT('2D SPACE',''
  ) );
#323 = ORIENTED_EDGE('',*,*,#274,.F.);
#324 = ORIENTED_EDGE('',*,*,#325,.T.);
#325 = EDGE_CURVE('',#219,#150,#326,.T.);
#326 = SURFACE_CURVE('',#327,(#360,#396),.PCURVE_S1.);
#327 = B_SPLINE_CURVE_WITH_KNOTS('',7,(#328,#329,#330,#331,#332,#333,
    #334,#335,#336,#337,#338,#339,#340,#341,#342,#343,#344,#345,#346,
    #347,#348,#349,#350,#351,#352,#353,#354,#355,#356,#357,#358,#359),
  .UNSPECIFIED.,.F.,.F.,(8,6,6,6,6,8),(0.,0.195763743315,0.349169065729,
    0.500418300947,0.804751177584,1.),.UNSPECIFIED.);
#328 = CARTESIAN_POINT('',(30.7,-2.886579864025E-15,124.275));
#329 = CARTESIAN_POINT('',(30.7,-8.504447972769E-02,124.275));
#330 = CARTESIAN_POINT('',(30.699725202713,-0.169647013157,
    124.26535640508));
#331 = CARTESIAN_POINT('',(30.699180449832,-0.252274799873,
    124.24625063182));
#332 = CARTESIAN_POINT('',(30.698401217921,-0.331455700288,
    124.21823234507));
#333 = CARTESIAN_POINT('',(30.697448555061,-0.405858943432,
    124.18220403664));
#334 = CARTESIAN_POINT('',(30.696396991728,-0.474389150187,
    124.13940370499));
#335 = CARTESIAN_POINT('',(30.69446788416,-0.584803589864,
    124.05375748641));
#336 = CARTESIAN_POINT('',(30.693598242651,-0.629455225684,
    124.01276226407));
#337 = CARTESIAN_POINT('',(30.692734451696,-0.670123701499,
    123.96886319848));
#338 = CARTESIAN_POINT('',(30.691901757528,-0.70672261839,
    123.92249515053));
#339 = CARTESIAN_POINT('',(30.691122095001,-0.739199697367,
    123.87406731188));
#340 = CARTESIAN_POINT('',(30.690413480269,-0.76753242031,
    123.82396590448));
#341 = CARTESIAN_POINT('',(30.689174097957,-0.815574917359,
    123.72187040134));
#342 = CARTESIAN_POINT('',(30.68864060142,-0.835416225375,
    123.66987946655));
#343 = CARTESIAN_POINT('',(30.688201553865,-0.851264934258,
    123.6168773916));
#344 = CARTESIAN_POINT('',(30.687866246483,-0.863137215172,
    123.56313703443));
#345 = CARTESIAN_POINT('',(30.687640743503,-0.87104618163,
    123.50891517692));
#346 = CARTESIAN_POINT('',(30.687528004061,-0.875,123.45445690689));
#347 = CARTESIAN_POINT('',(30.687528004061,-0.875,123.29042571286));
#348 = CARTESIAN_POINT('',(30.687984446434,-0.858991365936,
    123.18063023508));
#349 = CARTESIAN_POINT('',(30.68890076996,-0.826857304794,
    123.07267552038));
#350 = CARTESIAN_POINT('',(30.690228306549,-0.778444954302,
    122.96876343654));
#351 = CARTESIAN_POINT('',(30.691861820076,-0.713706117746,
    122.87138890303));
#352 = CARTESIAN_POINT('',(30.693629721591,-0.632776679583,
    122.78345425636));
#353 = CARTESIAN_POINT('',(30.69639691207,-0.474393709536,
    122.66059983159));
#354 = CARTESIAN_POINT('',(30.697448498822,-0.405863323772,
    122.61779782695));
#355 = CARTESIAN_POINT('',(30.698401245478,-0.331455864513,
    122.58176645398));
#356 = CARTESIAN_POINT('',(30.699180532241,-0.252268941251,
    122.55374644724));
#357 = CARTESIAN_POINT('',(30.699725264448,-0.169636624987,
    122.53464141299));
#358 = CARTESIAN_POINT('',(30.7,-8.503484778187E-02,122.525));
#359 = CARTESIAN_POINT('',(30.7,-2.331468351713E-15,122.525));
#360 = PCURVE('',#133,#361);
#361 = DEFINITIONAL_REPRESENTATION('',(#362),#395);
#362 = B_SPLINE_CURVE_WITH_KNOTS('',7,(#363,#364,#365,#366,#367,#368,
    #369,#370,#371,#372,#373,#374,#375,#376,#377,#378,#379,#380,#381,
    #382,#383,#384,#385,#386,#387,#388,#389,#390,#391,#392,#393,#394),
  .UNSPECIFIED.,.F.,.F.,(8,6,6,6,6,8),(0.,0.195763743315,0.349169065729,
    0.500418300947,0.804751177584,1.),.UNSPECIFIED.);
#363 = CARTESIAN_POINT('',(-6.28318530718,-109.275));
#364 = CARTESIAN_POINT('',(-6.280415128687,-109.275));
#365 = CARTESIAN_POINT('',(-6.277659345781,-109.265356405));
#366 = CARTESIAN_POINT('',(-6.274967852448,-109.2462506318));
#367 = CARTESIAN_POINT('',(-6.272388567005,-109.218232345));
#368 = CARTESIAN_POINT('',(-6.269964823096,-109.1822040366));
#369 = CARTESIAN_POINT('',(-6.267732311013,-109.1394037049));
#370 = CARTESIAN_POINT('',(-6.26413520057,-109.0537574864));
#371 = CARTESIAN_POINT('',(-6.262680476978,-109.012762264));
#372 = CARTESIAN_POINT('',(-6.261355475113,-108.9688631984));
#373 = CARTESIAN_POINT('',(-6.260163021381,-108.9224951505));
#374 = CARTESIAN_POINT('',(-6.25910483215,-108.8740673118));
#375 = CARTESIAN_POINT('',(-6.258181653847,-108.8239659044));
#376 = CARTESIAN_POINT('',(-6.256616231014,-108.7218704013));
#377 = CARTESIAN_POINT('',(-6.255969701096,-108.6698794665));
#378 = CARTESIAN_POINT('',(-6.255453258695,-108.6168773916));
#379 = CARTESIAN_POINT('',(-6.255066385256,-108.5631370344));
#380 = CARTESIAN_POINT('',(-6.254808659436,-108.5089151769));
#381 = CARTESIAN_POINT('',(-6.254679818255,-108.4544569068));
#382 = CARTESIAN_POINT('',(-6.254679818255,-108.2904257128));
#383 = CARTESIAN_POINT('',(-6.255201484093,-108.180630235));
#384 = CARTESIAN_POINT('',(-6.256248621425,-108.0726755203));
#385 = CARTESIAN_POINT('',(-6.257826163385,-107.9687634365));
#386 = CARTESIAN_POINT('',(-6.259935579014,-107.871388903));
#387 = CARTESIAN_POINT('',(-6.262572320728,-107.7834542563));
#388 = CARTESIAN_POINT('',(-6.267732162477,-107.6605998315));
#389 = CARTESIAN_POINT('',(-6.269964680405,-107.6177978269));
#390 = CARTESIAN_POINT('',(-6.272388561667,-107.5817664539));
#391 = CARTESIAN_POINT('',(-6.274968043295,-107.5537464472));
#392 = CARTESIAN_POINT('',(-6.277659684158,-107.5346414129));
#393 = CARTESIAN_POINT('',(-6.280415442431,-107.525));
#394 = CARTESIAN_POINT('',(-6.28318530718,-107.525));
#395 = ( GEOMETRIC_REPRESENTATION_CONTEXT(2) 
PARAMETRIC_REPRESENTATION_CONTEXT() REPRESENTATION_CONTEXT('2D SPACE',''
  ) );
#396 = PCURVE('',#200,#397);
#397 = DEFINITIONAL_REPRESENTATION('',(#398),#431);
#398 = B_SPLINE_CURVE_WITH_KNOTS('',7,(#399,#400,#401,#402,#403,#404,
    #405,#406,#407,#408,#409,#410,#411,#412,#413,#414,#415,#416,#417,
    #418,#419,#420,#421,#422,#423,#424,#425,#426,#427,#428,#429,#430),
  .UNSPECIFIED.,.F.,.F.,(8,6,6,6,6,8),(0.,0.195763743315,0.349169065729,
    0.500418300947,0.804751177584,1.),.UNSPECIFIED.);
#399 = CARTESIAN_POINT('',(-1.570796326795,-0.4));
#400 = CARTESIAN_POINT('',(-1.667990017912,-0.4));
#401 = CARTESIAN_POINT('',(-1.764678300625,-0.399725202713));
#402 = CARTESIAN_POINT('',(-1.860610932197,-0.399180449832));
#403 = CARTESIAN_POINT('',(-1.955530122993,-0.398401217921));
#404 = CARTESIAN_POINT('',(-2.049128983099,-0.397448555061));
#405 = CARTESIAN_POINT('',(-2.140993890958,-0.396396991728));
#406 = CARTESIAN_POINT('',(-2.300694113171,-0.39446788416));
#407 = CARTESIAN_POINT('',(-2.369732275721,-0.393598242651));
#408 = CARTESIAN_POINT('',(-2.437770249664,-0.392734451696));
#409 = CARTESIAN_POINT('',(-2.504910928251,-0.391901757528));
#410 = CARTESIAN_POINT('',(-2.571240968994,-0.391122095001));
#411 = CARTESIAN_POINT('',(-2.636836642628,-0.390413480269));
#412 = CARTESIAN_POINT('',(-2.765790098094,-0.389174097957));
#413 = CARTESIAN_POINT('',(-2.829208289903,-0.38864060142));
#414 = CARTESIAN_POINT('',(-2.892157433331,-0.388201553865));
#415 = CARTESIAN_POINT('',(-2.954756583379,-0.387866246483));
#416 = CARTESIAN_POINT('',(-3.017118285783,-0.387640743503));
#417 = CARTESIAN_POINT('',(-3.079356188566,-0.387528004061));
#418 = CARTESIAN_POINT('',(-3.266820410311,-0.387528004061));
#419 = CARTESIAN_POINT('',(-3.392300678307,-0.387984446434));
#420 = CARTESIAN_POINT('',(-3.51888635596,-0.38890076996));
#421 = CARTESIAN_POINT('',(-3.647321466536,-0.390228306549));
#422 = CARTESIAN_POINT('',(-3.778426711241,-0.391861820076));
#423 = CARTESIAN_POINT('',(-3.913104317519,-0.393629721591));
#424 = CARTESIAN_POINT('',(-4.142184821712,-0.39639691207));
#425 = CARTESIAN_POINT('',(-4.234051055892,-0.397448498822));
#426 = CARTESIAN_POINT('',(-4.32765562683,-0.398401245478));
#427 = CARTESIAN_POINT('',(-4.422581578634,-0.399180532241));
#428 = CARTESIAN_POINT('',(-4.518518874193,-0.399725264448));
#429 = CARTESIAN_POINT('',(-4.615206297205,-0.4));
#430 = CARTESIAN_POINT('',(-4.712388980385,-0.4));
#431 = ( GEOMETRIC_REPRESENTATION_CONTEXT(2) 
PARAMETRIC_REPRESENTATION_CONTEXT() REPRESENTATION_CONTEXT('2D SPACE',''
  ) );
#432 = ORIENTED_EDGE('',*,*,#149,.F.);
#433 = ADVANCED_FACE('',(#434),#200,.T.);
#434 = FACE_BOUND('',#435,.F.);
#435 = EDGE_LOOP('',(#436,#437,#460,#487,#488,#489));
#436 = ORIENTED_EDGE('',*,*,#218,.F.);
#437 = ORIENTED_EDGE('',*,*,#438,.T.);
#438 = EDGE_CURVE('',#173,#439,#441,.T.);
#439 = VERTEX_POINT('',#440);
#440 = CARTESIAN_POINT('',(32.05,0.875,123.4));
#441 = SEAM_CURVE('',#442,(#446,#453),.PCURVE_S1.);
#442 = LINE('',#443,#444);
#443 = CARTESIAN_POINT('',(30.3,0.875,123.4));
#444 = VECTOR('',#445,1.);
#445 = DIRECTION('',(1.,0.,0.));
#446 = PCURVE('',#200,#447);
#447 = DEFINITIONAL_REPRESENTATION('',(#448),#452);
#448 = LINE('',#449,#450);
#449 = CARTESIAN_POINT('',(-6.28318530718,0.));
#450 = VECTOR('',#451,1.);
#451 = DIRECTION('',(-0.,-1.));
#452 = ( GEOMETRIC_REPRESENTATION_CONTEXT(2) 
PARAMETRIC_REPRESENTATION_CONTEXT() REPRESENTATION_CONTEXT('2D SPACE',''
  ) );
#453 = PCURVE('',#200,#454);
#454 = DEFINITIONAL_REPRESENTATION('',(#455),#459);
#455 = LINE('',#456,#457);
#456 = CARTESIAN_POINT('',(-0.,0.));
#457 = VECTOR('',#458,1.);
#458 = DIRECTION('',(-0.,-1.));
#459 = ( GEOMETRIC_REPRESENTATION_CONTEXT(2) 
PARAMETRIC_REPRESENTATION_CONTEXT() REPRESENTATION_CONTEXT('2D SPACE',''
  ) );
#460 = ORIENTED_EDGE('',*,*,#461,.T.);
#461 = EDGE_CURVE('',#439,#439,#462,.T.);
#462 = SURFACE_CURVE('',#463,(#468,#475),.PCURVE_S1.);
#463 = CIRCLE('',#464,0.875);
#464 = AXIS2_PLACEMENT_3D('',#465,#466,#467);
#465 = CARTESIAN_POINT('',(32.05,0.,123.4));
#466 = DIRECTION('',(1.,0.,0.));
#467 = DIRECTION('',(0.,1.,0.));
#468 = PCURVE('',#200,#469);
#469 = DEFINITIONAL_REPRESENTATION('',(#470),#474);
#470 = LINE('',#471,#472);
#471 = CARTESIAN_POINT('',(-0.,-1.75));
#472 = VECTOR('',#473,1.);
#473 = DIRECTION('',(-1.,0.));
#474 = ( GEOMETRIC_REPRESENTATION_CONTEXT(2) 
PARAMETRIC_REPRESENTATION_CONTEXT() REPRESENTATION_CONTEXT('2D SPACE',''
  ) );
#475 = PCURVE('',#476,#481);
#476 = PLANE('',#477);
#477 = AXIS2_PLACEMENT_3D('',#478,#479,#480);
#478 = CARTESIAN_POINT('',(32.05,2.930228855442E-16,123.4));
#479 = DIRECTION('',(1.,0.,0.));
#480 = DIRECTION('',(0.,0.,1.));
#481 = DEFINITIONAL_REPRESENTATION('',(#482),#486);
#482 = CIRCLE('',#483,0.875);
#483 = AXIS2_PLACEMENT_2D('',#484,#485);
#484 = CARTESIAN_POINT('',(-1.42108547152E-14,2.930228855442E-16));
#485 = DIRECTION('',(0.,-1.));
#486 = ( GEOMETRIC_REPRESENTATION_CONTEXT(2) 
PARAMETRIC_REPRESENTATION_CONTEXT() REPRESENTATION_CONTEXT('2D SPACE',''
  ) );
#487 = ORIENTED_EDGE('',*,*,#438,.F.);
#488 = ORIENTED_EDGE('',*,*,#172,.F.);
#489 = ORIENTED_EDGE('',*,*,#325,.F.);
#490 = ADVANCED_FACE('',(#491,#494),#312,.T.);
#491 = FACE_BOUND('',#492,.T.);
#492 = EDGE_LOOP('',(#493));
#493 = ORIENTED_EDGE('',*,*,#297,.T.);
#494 = FACE_BOUND('',#495,.T.);
#495 = EDGE_LOOP('',(#496));
#496 = ORIENTED_EDGE('',*,*,#497,.T.);
#497 = EDGE_CURVE('',#498,#498,#500,.T.);
#498 = VERTEX_POINT('',#499);
#499 = CARTESIAN_POINT('',(27.5,0.,127.4));
#500 = SURFACE_CURVE('',#501,(#506,#517),.PCURVE_S1.);
#501 = CIRCLE('',#502,27.5);
#502 = AXIS2_PLACEMENT_3D('',#503,#504,#505);
#503 = CARTESIAN_POINT('',(0.,0.,127.4));
#504 = DIRECTION('',(0.,0.,-1.));
#505 = DIRECTION('',(1.,0.,0.));
#506 = PCURVE('',#312,#507);
#507 = DEFINITIONAL_REPRESENTATION('',(#508),#516);
#508 = ( BOUNDED_CURVE() B_SPLINE_CURVE(2,(#509,#510,#511,#512,#513,#514
,#515),.UNSPECIFIED.,.T.,.F.) B_SPLINE_CURVE_WITH_KNOTS((1,2,2,2,2,1),(
    -2.094395102393,0.,2.094395102393,4.188790204786,6.28318530718,
8.377580409573),.UNSPECIFIED.) CURVE() GEOMETRIC_REPRESENTATION_ITEM() 
RATIONAL_B_SPLINE_CURVE((1.,0.5,1.,0.5,1.,0.5,1.)) REPRESENTATION_ITEM(
  '') );
#509 = CARTESIAN_POINT('',(27.5,-1.597467635991E-15));
#510 = CARTESIAN_POINT('',(27.5,-47.63139720814));
#511 = CARTESIAN_POINT('',(-13.75,-23.81569860407));
#512 = CARTESIAN_POINT('',(-55.,-8.333025031301E-15));
#513 = CARTESIAN_POINT('',(-13.75,23.815698604072));
#514 = CARTESIAN_POINT('',(27.5,47.631397208144));
#515 = CARTESIAN_POINT('',(27.5,-1.597467635991E-15));
#516 = ( GEOMETRIC_REPRESENTATION_CONTEXT(2) 
PARAMETRIC_REPRESENTATION_CONTEXT() REPRESENTATION_CONTEXT('2D SPACE',''
  ) );
#517 = PCURVE('',#518,#523);
#518 = CYLINDRICAL_SURFACE('',#519,27.5);
#519 = AXIS2_PLACEMENT_3D('',#520,#521,#522);
#520 = CARTESIAN_POINT('',(0.,0.,17.4));
#521 = DIRECTION('',(-0.,-0.,-1.));
#522 = DIRECTION('',(1.,0.,0.));
#523 = DEFINITIONAL_REPRESENTATION('',(#524),#528);
#524 = LINE('',#525,#526);
#525 = CARTESIAN_POINT('',(-6.28318530718,-110.));
#526 = VECTOR('',#527,1.);
#527 = DIRECTION('',(1.,-0.));
#528 = ( GEOMETRIC_REPRESENTATION_CONTEXT(2) 
PARAMETRIC_REPRESENTATION_CONTEXT() REPRESENTATION_CONTEXT('2D SPACE',''
  ) );
#529 = ADVANCED_FACE('',(#530),#476,.T.);
#530 = FACE_BOUND('',#531,.T.);
#531 = EDGE_LOOP('',(#532));
#532 = ORIENTED_EDGE('',*,*,#461,.T.);
#533 = ADVANCED_FACE('',(#534),#518,.F.);
#534 = FACE_BOUND('',#535,.T.);
#535 = EDGE_LOOP('',(#536,#565,#586,#587));
#536 = ORIENTED_EDGE('',*,*,#537,.F.);
#537 = EDGE_CURVE('',#538,#538,#540,.T.);
#538 = VERTEX_POINT('',#539);
#539 = CARTESIAN_POINT('',(27.5,0.,17.4));
#540 = SURFACE_CURVE('',#541,(#546,#553),.PCURVE_S1.);
#541 = CIRCLE('',#542,27.5);
#542 = AXIS2_PLACEMENT_3D('',#543,#544,#545);
#543 = CARTESIAN_POINT('',(0.,0.,17.4));
#544 = DIRECTION('',(0.,0.,1.));
#545 = DIRECTION('',(1.,0.,0.));
#546 = PCURVE('',#518,#547);
#547 = DEFINITIONAL_REPRESENTATION('',(#548),#552);
#548 = LINE('',#549,#550);
#549 = CARTESIAN_POINT('',(-0.,0.));
#550 = VECTOR('',#551,1.);
#551 = DIRECTION('',(-1.,0.));
#552 = ( GEOMETRIC_REPRESENTATION_CONTEXT(2) 
PARAMETRIC_REPRESENTATION_CONTEXT() REPRESENTATION_CONTEXT('2D SPACE',''
  ) );
#553 = PCURVE('',#554,#559);
#554 = PLANE('',#555);
#555 = AXIS2_PLACEMENT_3D('',#556,#557,#558);
#556 = CARTESIAN_POINT('',(-1.591203063319E-15,2.059813227419E-15,17.4)
  );
#557 = DIRECTION('',(0.,0.,1.));
#558 = DIRECTION('',(1.,0.,-0.));
#559 = DEFINITIONAL_REPRESENTATION('',(#560),#564);
#560 = CIRCLE('',#561,27.5);
#561 = AXIS2_PLACEMENT_2D('',#562,#563);
#562 = CARTESIAN_POINT('',(1.591203063319E-15,-2.059813227419E-15));
#563 = DIRECTION('',(1.,0.));
#564 = ( GEOMETRIC_REPRESENTATION_CONTEXT(2) 
PARAMETRIC_REPRESENTATION_CONTEXT() REPRESENTATION_CONTEXT('2D SPACE',''
  ) );
#565 = ORIENTED_EDGE('',*,*,#566,.T.);
#566 = EDGE_CURVE('',#538,#498,#567,.T.);
#567 = SEAM_CURVE('',#568,(#572,#579),.PCURVE_S1.);
#568 = LINE('',#569,#570);
#569 = CARTESIAN_POINT('',(27.5,0.,17.4));
#570 = VECTOR('',#571,1.);
#571 = DIRECTION('',(0.,0.,1.));
#572 = PCURVE('',#518,#573);
#573 = DEFINITIONAL_REPRESENTATION('',(#574),#578);
#574 = LINE('',#575,#576);
#575 = CARTESIAN_POINT('',(-6.28318530718,0.));
#576 = VECTOR('',#577,1.);
#577 = DIRECTION('',(-0.,-1.));
#578 = ( GEOMETRIC_REPRESENTATION_CONTEXT(2) 
PARAMETRIC_REPRESENTATION_CONTEXT() REPRESENTATION_CONTEXT('2D SPACE',''
  ) );
#579 = PCURVE('',#518,#580);
#580 = DEFINITIONAL_REPRESENTATION('',(#581),#585);
#581 = LINE('',#582,#583);
#582 = CARTESIAN_POINT('',(-0.,0.));
#583 = VECTOR('',#584,1.);
#584 = DIRECTION('',(-0.,-1.));
#585 = ( GEOMETRIC_REPRESENTATION_CONTEXT(2) 
PARAMETRIC_REPRESENTATION_CONTEXT() REPRESENTATION_CONTEXT('2D SPACE',''
  ) );
#586 = ORIENTED_EDGE('',*,*,#497,.F.);
#587 = ORIENTED_EDGE('',*,*,#566,.F.);
#588 = ADVANCED_FACE('',(#589),#554,.T.);
#589 = FACE_BOUND('',#590,.T.);
#590 = EDGE_LOOP('',(#591));
#591 = ORIENTED_EDGE('',*,*,#537,.T.);
#592 = ( GEOMETRIC_REPRESENTATION_CONTEXT(3) 
GLOBAL_UNCERTAINTY_ASSIGNED_CONTEXT((#596)) GLOBAL_UNIT_ASSIGNED_CONTEXT
((#593,#594,#595)) REPRESENTATION_CONTEXT('Context #1',
  '3D Context with UNIT and UNCERTAINTY') );
#593 = ( LENGTH_UNIT() NAMED_UNIT(*) SI_UNIT(.MILLI.,.METRE.) );
#594 = ( NAMED_UNIT(*) PLANE_ANGLE_UNIT() SI_UNIT($,.RADIAN.) );
#595 = ( NAMED_UNIT(*) SI_UNIT($,.STERADIAN.) SOLID_ANGLE_UNIT() );
#596 = UNCERTAINTY_MEASURE_WITH_UNIT(LENGTH_MEASURE(1.E-07),#593,
  'distance_accuracy_value','confusion accuracy');
#597 = PRODUCT_RELATED_PRODUCT_CATEGORY('part',$,(#7));
ENDSEC;
END-ISO-10303-21;
