  0
SECTION
  2
BLOCKS
  0
ENDSEC
  0
SECTION
  2
ENTITIES
  0
LINE
  8
0
 10
5.08235
 20
3.81175
 11
5.08235
 21
8.65881
  0
LINE
  8
0
 10
5.08235
 20
8.65881
 11
9.45882
 21
11.4823
  0
LINE
  8
0
 10
9.45882
 20
11.4823
 11
9.40869
 21
11.5307
  0
LINE
  8
0
 10
9.40869
 20
11.5307
 11
9.35716
 21
11.5769
  0
LINE
  8
0
 10
9.35716
 20
11.5769
 11
9.30423
 21
11.6209
  0
LINE
  8
0
 10
9.30423
 20
11.6209
 11
9.24988
 21
11.6627
  0
LINE
  8
0
 10
9.24988
 20
11.6627
 11
9.19411
 21
11.7022
  0
LINE
  8
0
 10
9.19411
 20
11.7022
 11
9.13693
 21
11.7394
  0
LINE
  8
0
 10
9.13693
 20
11.7394
 11
9.07834
 21
11.7743
  0
LINE
  8
0
 10
9.07834
 20
11.7743
 11
9.01834
 21
11.8069
  0
LINE
  8
0
 10
9.01834
 20
11.8069
 11
8.95694
 21
11.837
  0
LINE
  8
0
 10
8.95694
 20
11.837
 11
8.8941
 21
11.8647
  0
LINE
  8
0
 10
8.8941
 20
11.8647
 11
8.82988
 21
11.8899
  0
LINE
  8
0
 10
8.82988
 20
11.8899
 11
8.76422
 21
11.9127
  0
LINE
  8
0
 10
8.76422
 20
11.9127
 11
8.69717
 21
11.9328
  0
LINE
  8
0
 10
8.69717
 20
11.9328
 11
8.62869
 21
11.9504
  0
LINE
  8
0
 10
8.62869
 20
11.9504
 11
8.55882
 21
11.9654
  0
LINE
  8
0
 10
8.55882
 20
11.9654
 11
8.48752
 21
11.9778
  0
LINE
  8
0
 10
8.48752
 20
11.9778
 11
8.41481
 21
11.9874
  0
LINE
  8
0
 10
8.41481
 20
11.9874
 11
8.3407
 21
11.9944
  0
LINE
  8
0
 10
8.3407
 20
11.9944
 11
8.26517
 21
11.9986
  0
LINE
  8
0
 10
8.26517
 20
11.9986
 11
8.18823
 21
12
  0
LINE
  8
0
 10
8.18823
 20
12
 11
3.67058
 21
12
  0
LINE
  8
0
 10
3.67058
 20
12
 11
3.43317
 21
11.9906
  0
LINE
  8
0
 10
3.43317
 20
11.9906
 11
3.2014
 21
11.9628
  0
LINE
  8
0
 10
3.2014
 20
11.9628
 11
2.976
 21
11.9173
  0
LINE
  8
0
 10
2.976
 20
11.9173
 11
2.75764
 21
11.8547
  0
LINE
  8
0
 10
2.75764
 20
11.8547
 11
2.54706
 21
11.7757
  0
LINE
  8
0
 10
2.54706
 20
11.7757
 11
2.34494
 21
11.6811
  0
LINE
  8
0
 10
2.34494
 20
11.6811
 11
2.15199
 21
11.5714
  0
LINE
  8
0
 10
2.15199
 20
11.5714
 11
1.96893
 21
11.4473
  0
LINE
  8
0
 10
1.96893
 20
11.4473
 11
1.79646
 21
11.3096
  0
LINE
  8
0
 10
1.79646
 20
11.3096
 11
1.63528
 21
11.1588
  0
LINE
  8
0
 10
1.63528
 20
11.1588
 11
1.48611
 21
10.9957
  0
LINE
  8
0
 10
1.48611
 20
10.9957
 11
1.34964
 21
10.8209
  0
LINE
  8
0
 10
1.34964
 20
10.8209
 11
1.22658
 21
10.6351
  0
LINE
  8
0
 10
1.22658
 20
10.6351
 11
1.11765
 21
10.4389
  0
LINE
  8
0
 10
1.11765
 20
10.4389
 11
1.02353
 21
10.2331
  0
LINE
  8
0
 10
1.02353
 20
10.2331
 11
0.944931
 21
10.0182
  0
LINE
  8
0
 10
0.944931
 20
10.0182
 11
0.882584
 21
9.79509
  0
LINE
  8
0
 10
0.882584
 20
9.79509
 11
0.837173
 21
9.56427
  0
LINE
  8
0
 10
0.837173
 20
9.56427
 11
0.809402
 21
9.32646
  0
LINE
  8
0
 10
0.809402
 20
9.32646
 11
0.799988
 21
9.08235
  0
LINE
  8
0
 10
0.799988
 20
9.08235
 11
0.799988
 21
3.05882
  0
LINE
  8
0
 10
0.799988
 20
3.05882
 11
0.800705
 21
2.97447
  0
LINE
  8
0
 10
0.800705
 20
2.97447
 11
0.802917
 21
2.89091
  0
LINE
  8
0
 10
0.802917
 20
2.89091
 11
0.806656
 21
2.8082
  0
LINE
  8
0
 10
0.806656
 20
2.8082
 11
0.812042
 21
2.72639
  0
LINE
  8
0
 10
0.812042
 20
2.72639
 11
0.819107
 21
2.64558
  0
LINE
  8
0
 10
0.819107
 20
2.64558
 11
0.827942
 21
2.56583
  0
LINE
  8
0
 10
0.827942
 20
2.56583
 11
0.838623
 21
2.4872
  0
LINE
  8
0
 10
0.838623
 20
2.4872
 11
0.851196
 21
2.40977
  0
LINE
  8
0
 10
0.851196
 20
2.40977
 11
0.865738
 21
2.33363
  0
LINE
  8
0
 10
0.865738
 20
2.33363
 11
0.882339
 21
2.25882
  0
LINE
  8
0
 10
0.882339
 20
2.25882
 11
0.901062
 21
2.18541
  0
LINE
  8
0
 10
0.901062
 20
2.18541
 11
0.921967
 21
2.11349
  0
LINE
  8
0
 10
0.921967
 20
2.11349
 11
0.945129
 21
2.04314
  0
LINE
  8
0
 10
0.945129
 20
2.04314
 11
0.970627
 21
1.9744
  0
LINE
  8
0
 10
0.970627
 20
1.9744
 11
0.99852
 21
1.90735
  0
LINE
  8
0
 10
0.99852
 20
1.90735
 11
1.02888
 21
1.84206
  0
LINE
  8
0
 10
1.02888
 20
1.84206
 11
1.0618
 21
1.77861
  0
LINE
  8
0
 10
1.0618
 20
1.77861
 11
1.09731
 21
1.71707
  0
LINE
  8
0
 10
1.09731
 20
1.71707
 11
1.13551
 21
1.65752
  0
LINE
  8
0
 10
1.13551
 20
1.65752
 11
1.17647
 21
1.59999
  0
LINE
  8
0
 10
1.17647
 20
1.59999
 11
5.08235
 21
3.81175
  0
LINE
  8
0
 10
25.1934
 20
10.8884
 11
25.287
 21
10.9135
  0
LINE
  8
0
 10
25.287
 20
10.9135
 11
25.3729
 21
10.9555
  0
LINE
  8
0
 10
25.3729
 20
10.9555
 11
25.451
 21
11.0142
  0
LINE
  8
0
 10
25.451
 20
11.0142
 11
25.5161
 21
11.0849
  0
LINE
  8
0
 10
25.5161
 20
11.0849
 11
25.5625
 21
11.1628
  0
LINE
  8
0
 10
25.5625
 20
11.1628
 11
25.5904
 21
11.248
  0
LINE
  8
0
 10
25.5904
 20
11.248
 11
25.5997
 21
11.3403
  0
LINE
  8
0
 10
25.5997
 20
11.3403
 11
25.5904
 21
11.4326
  0
LINE
  8
0
 10
25.5904
 20
11.4326
 11
25.5625
 21
11.5177
  0
LINE
  8
0
 10
25.5625
 20
11.5177
 11
25.5161
 21
11.5956
  0
LINE
  8
0
 10
25.5161
 20
11.5956
 11
25.451
 21
11.6663
  0
LINE
  8
0
 10
25.451
 20
11.6663
 11
25.3729
 21
11.725
  0
LINE
  8
0
 10
25.3729
 20
11.725
 11
25.287
 21
11.767
  0
LINE
  8
0
 10
25.287
 20
11.767
 11
25.1934
 21
11.7921
  0
LINE
  8
0
 10
25.1934
 20
11.7921
 11
25.0921
 21
11.8005
  0
LINE
  8
0
 10
25.0921
 20
11.8005
 11
24.992
 21
11.7921
  0
LINE
  8
0
 10
24.992
 20
11.7921
 11
24.8992
 21
11.767
  0
LINE
  8
0
 10
24.8992
 20
11.767
 11
24.8138
 21
11.725
  0
LINE
  8
0
 10
24.8138
 20
11.725
 11
24.7358
 21
11.6663
  0
LINE
  8
0
 10
24.7358
 20
11.6663
 11
24.6708
 21
11.5956
  0
LINE
  8
0
 10
24.6708
 20
11.5956
 11
24.6244
 21
11.5177
  0
LINE
  8
0
 10
24.6244
 20
11.5177
 11
24.5965
 21
11.4326
  0
LINE
  8
0
 10
24.5965
 20
11.4326
 11
24.5872
 21
11.3403
  0
LINE
  8
0
 10
24.5872
 20
11.3403
 11
24.5965
 21
11.248
  0
LINE
  8
0
 10
24.5965
 20
11.248
 11
24.6244
 21
11.1628
  0
LINE
  8
0
 10
24.6244
 20
11.1628
 11
24.6708
 21
11.0849
  0
LINE
  8
0
 10
24.6708
 20
11.0849
 11
24.7358
 21
11.0142
  0
LINE
  8
0
 10
24.7358
 20
11.0142
 11
24.8138
 21
10.9555
  0
LINE
  8
0
 10
24.8138
 20
10.9555
 11
24.8992
 21
10.9135
  0
LINE
  8
0
 10
24.8992
 20
10.9135
 11
24.992
 21
10.8884
  0
LINE
  8
0
 10
24.992
 20
10.8884
 11
25.0921
 21
10.88
  0
LINE
  8
0
 10
25.0921
 20
10.88
 11
25.1934
 21
10.8884
  0
LINE
  8
0
 10
27.1884
 20
9.21695
 11
27.1879
 21
9.29939
  0
LINE
  8
0
 10
27.1879
 20
9.29939
 11
27.1866
 21
9.39331
  0
LINE
  8
0
 10
27.1866
 20
9.39331
 11
27.1844
 21
9.4987
  0
LINE
  8
0
 10
27.1844
 20
9.4987
 11
27.1813
 21
9.61555
  0
LINE
  8
0
 10
27.1813
 20
9.61555
 11
27.174
 21
9.87071
  0
LINE
  8
0
 10
27.174
 20
9.87071
 11
27.17
 21
10.0057
  0
LINE
  8
0
 10
27.17
 20
10.0057
 11
27.1659
 21
10.1457
  0
LINE
  8
0
 10
27.1659
 20
10.1457
 11
27.1619
 21
10.2872
  0
LINE
  8
0
 10
27.1619
 20
10.2872
 11
27.1582
 21
10.4265
  0
LINE
  8
0
 10
27.1582
 20
10.4265
 11
27.1549
 21
10.5639
  0
LINE
  8
0
 10
27.1549
 20
10.5639
 11
27.1519
 21
10.6991
  0
LINE
  8
0
 10
27.1519
 20
10.6991
 11
27.1874
 21
10.5556
  0
LINE
  8
0
 10
27.1874
 20
10.5556
 11
27.2238
 21
10.4125
  0
LINE
  8
0
 10
27.2238
 20
10.4125
 11
27.261
 21
10.27
  0
LINE
  8
0
 10
27.261
 20
10.27
 11
27.2991
 21
10.1279
  0
LINE
  8
0
 10
27.2991
 20
10.1279
 11
27.3373
 21
9.98898
  0
LINE
  8
0
 10
27.3373
 20
9.98898
 11
27.3745
 21
9.85568
  0
LINE
  8
0
 10
27.3745
 20
9.85568
 11
27.4109
 21
9.72801
  0
LINE
  8
0
 10
27.4109
 20
9.72801
 11
27.4464
 21
9.60599
  0
LINE
  8
0
 10
27.4464
 20
9.60599
 11
27.48
 21
9.49229
  0
LINE
  8
0
 10
27.48
 20
9.49229
 11
27.5109
 21
9.38956
  0
LINE
  8
0
 10
27.5109
 20
9.38956
 11
27.5389
 21
9.29778
  0
LINE
  8
0
 10
27.5389
 20
9.29778
 11
27.5642
 21
9.21695
  0
LINE
  8
0
 10
27.5642
 20
9.21695
 11
28.1672
 21
7.45805
  0
LINE
  8
0
 10
28.1672
 20
7.45805
 11
28.9946
 21
7.45805
  0
LINE
  8
0
 10
28.9946
 20
7.45805
 11
29.5892
 21
9.21695
  0
LINE
  8
0
 10
29.5892
 20
9.21695
 11
29.6157
 21
9.30077
  0
LINE
  8
0
 10
29.6157
 20
9.30077
 11
29.6446
 21
9.39607
  0
LINE
  8
0
 10
29.6446
 20
9.39607
 11
29.676
 21
9.50282
  0
LINE
  8
0
 10
29.676
 20
9.50282
 11
29.7098
 21
9.62106
  0
LINE
  8
0
 10
29.7098
 20
9.62106
 11
29.7453
 21
9.74786
  0
LINE
  8
0
 10
29.7453
 20
9.74786
 11
29.7817
 21
9.88031
  0
LINE
  8
0
 10
29.7817
 20
9.88031
 11
29.8189
 21
10.0184
  0
LINE
  8
0
 10
29.8189
 20
10.0184
 11
29.8571
 21
10.1622
  0
LINE
  8
0
 10
29.8571
 20
10.1622
 11
29.8952
 21
10.3086
  0
LINE
  8
0
 10
29.8952
 20
10.3086
 11
29.9324
 21
10.4546
  0
LINE
  8
0
 10
29.9324
 20
10.4546
 11
29.9688
 21
10.6004
  0
LINE
  8
0
 10
29.9688
 20
10.6004
 11
30.0043
 21
10.7457
  0
LINE
  8
0
 10
30.0043
 20
10.7457
 11
30.0013
 21
10.6074
  0
LINE
  8
0
 10
30.0013
 20
10.6074
 11
29.998
 21
10.4663
  0
LINE
  8
0
 10
29.998
 20
10.4663
 11
29.9943
 21
10.3224
  0
LINE
  8
0
 10
29.9943
 20
10.3224
 11
29.9903
 21
10.1759
  0
LINE
  8
0
 10
29.9903
 20
10.1759
 11
29.9785
 21
9.75592
  0
LINE
  8
0
 10
29.9785
 20
9.75592
 11
29.9749
 21
9.62656
  0
LINE
  8
0
 10
29.9749
 20
9.62656
 11
29.9718
 21
9.50592
  0
LINE
  8
0
 10
29.9718
 20
9.50592
 11
29.9696
 21
9.39745
  0
LINE
  8
0
 10
29.9696
 20
9.39745
 11
29.9683
 21
9.30112
  0
LINE
  8
0
 10
29.9683
 20
9.30112
 11
29.9678
 21
9.21695
  0
LINE
  8
0
 10
29.9678
 20
9.21695
 11
29.9678
 21
7.45805
  0
LINE
  8
0
 10
29.9678
 20
7.45805
 11
30.9635
 21
7.45805
  0
LINE
  8
0
 10
30.9635
 20
7.45805
 11
30.9635
 21
11.5402
  0
LINE
  8
0
 10
30.9635
 20
11.5402
 11
29.4181
 21
11.5402
  0
LINE
  8
0
 10
29.4181
 20
11.5402
 11
28.8936
 21
9.9512
  0
LINE
  8
0
 10
28.8936
 20
9.9512
 11
28.8718
 21
9.87595
  0
LINE
  8
0
 10
28.8718
 20
9.87595
 11
28.8484
 21
9.78992
  0
LINE
  8
0
 10
28.8484
 20
9.78992
 11
28.8234
 21
9.69308
  0
LINE
  8
0
 10
28.8234
 20
9.69308
 11
28.7969
 21
9.58546
  0
LINE
  8
0
 10
28.7969
 20
9.58546
 11
28.7695
 21
9.4704
  0
LINE
  8
0
 10
28.7695
 20
9.4704
 11
28.7422
 21
9.35121
  0
LINE
  8
0
 10
28.7422
 20
9.35121
 11
28.7148
 21
9.22792
  0
LINE
  8
0
 10
28.7148
 20
9.22792
 11
28.6875
 21
9.10051
  0
LINE
  8
0
 10
28.6875
 20
9.10051
 11
28.6606
 21
8.97202
  0
LINE
  8
0
 10
28.6606
 20
8.97202
 11
28.6346
 21
8.8454
  0
LINE
  8
0
 10
28.6346
 20
8.8454
 11
28.6094
 21
8.72066
  0
LINE
  8
0
 10
28.6094
 20
8.72066
 11
28.5851
 21
8.59779
  0
LINE
  8
0
 10
28.5851
 20
8.59779
 11
28.5595
 21
8.72075
  0
LINE
  8
0
 10
28.5595
 20
8.72075
 11
28.5332
 21
8.84573
  0
LINE
  8
0
 10
28.5332
 20
8.84573
 11
28.5062
 21
8.97279
  0
LINE
  8
0
 10
28.5062
 20
8.97279
 11
28.4785
 21
9.10188
  0
LINE
  8
0
 10
28.4785
 20
9.10188
 11
28.4505
 21
9.22981
  0
LINE
  8
0
 10
28.4505
 20
9.22981
 11
28.4228
 21
9.35327
  0
LINE
  8
0
 10
28.4228
 20
9.35327
 11
28.3952
 21
9.47227
  0
LINE
  8
0
 10
28.3952
 20
9.47227
 11
28.3677
 21
9.58684
  0
LINE
  8
0
 10
28.3677
 20
9.58684
 11
28.3412
 21
9.69386
  0
LINE
  8
0
 10
28.3412
 20
9.69386
 11
28.3162
 21
9.79025
  0
LINE
  8
0
 10
28.3162
 20
9.79025
 11
28.2928
 21
9.87604
  0
LINE
  8
0
 10
28.2928
 20
9.87604
 11
28.271
 21
9.9512
  0
LINE
  8
0
 10
28.271
 20
9.9512
 11
27.7381
 21
11.5402
  0
LINE
  8
0
 10
27.7381
 20
11.5402
 11
26.1955
 21
11.5402
  0
LINE
  8
0
 10
26.1955
 20
11.5402
 11
26.1955
 21
7.45805
  0
LINE
  8
0
 10
26.1955
 20
7.45805
 11
27.1884
 21
7.45805
  0
LINE
  8
0
 10
27.1884
 20
7.45805
 11
27.1884
 21
9.21695
  0
LINE
  8
0
 10
36.0913
 20
7.42459
 11
36.2437
 21
7.45567
  0
LINE
  8
0
 10
36.2437
 20
7.45567
 11
36.3781
 21
7.50746
  0
LINE
  8
0
 10
36.3781
 20
7.50746
 11
36.4944
 21
7.57999
  0
LINE
  8
0
 10
36.4944
 20
7.57999
 11
36.594
 21
7.66551
  0
LINE
  8
0
 10
36.594
 20
7.66551
 11
36.6784
 21
7.75635
  0
LINE
  8
0
 10
36.6784
 20
7.75635
 11
36.7476
 21
7.85251
  0
LINE
  8
0
 10
36.7476
 20
7.85251
 11
36.8015
 21
7.95396
  0
LINE
  8
0
 10
36.8015
 20
7.95396
 11
36.8352
 21
7.95396
  0
LINE
  8
0
 10
36.8352
 20
7.95396
 11
36.8352
 21
7.45805
  0
LINE
  8
0
 10
36.8352
 20
7.45805
 11
37.8
 21
7.45805
  0
LINE
  8
0
 10
37.8
 20
7.45805
 11
37.8
 21
11.5402
  0
LINE
  8
0
 10
37.8
 20
11.5402
 11
36.8239
 21
11.5402
  0
LINE
  8
0
 10
36.8239
 20
11.5402
 11
36.8239
 21
9.99503
  0
LINE
  8
0
 10
36.8239
 20
9.99503
 11
36.8015
 21
9.99503
  0
LINE
  8
0
 10
36.8015
 20
9.99503
 11
36.7686
 21
10.0631
  0
LINE
  8
0
 10
36.7686
 20
10.0631
 11
36.7289
 21
10.1303
  0
LINE
  8
0
 10
36.7289
 20
10.1303
 11
36.6824
 21
10.1967
  0
LINE
  8
0
 10
36.6824
 20
10.1967
 11
36.629
 21
10.2621
  0
LINE
  8
0
 10
36.629
 20
10.2621
 11
36.5683
 21
10.3243
  0
LINE
  8
0
 10
36.5683
 20
10.3243
 11
36.4996
 21
10.3807
  0
LINE
  8
0
 10
36.4996
 20
10.3807
 11
36.4231
 21
10.4312
  0
LINE
  8
0
 10
36.4231
 20
10.4312
 11
36.3387
 21
10.4759
  0
LINE
  8
0
 10
36.3387
 20
10.4759
 11
36.2458
 21
10.5124
  0
LINE
  8
0
 10
36.2458
 20
10.5124
 11
36.1438
 21
10.5385
  0
LINE
  8
0
 10
36.1438
 20
10.5385
 11
36.0326
 21
10.5542
  0
LINE
  8
0
 10
36.0326
 20
10.5542
 11
35.9124
 21
10.5594
  0
LINE
  8
0
 10
35.9124
 20
10.5594
 11
35.751
 21
10.5488
  0
LINE
  8
0
 10
35.751
 20
10.5488
 11
35.5951
 21
10.517
  0
LINE
  8
0
 10
35.5951
 20
10.517
 11
35.4446
 21
10.4639
  0
LINE
  8
0
 10
35.4446
 20
10.4639
 11
35.2996
 21
10.3896
  0
LINE
  8
0
 10
35.2996
 20
10.3896
 11
35.164
 21
10.2935
  0
LINE
  8
0
 10
35.164
 20
10.2935
 11
35.0422
 21
10.1752
  0
LINE
  8
0
 10
35.0422
 20
10.1752
 11
34.9341
 21
10.0346
  0
LINE
  8
0
 10
34.9341
 20
10.0346
 11
34.8396
 21
9.87173
  0
LINE
  8
0
 10
34.8396
 20
9.87173
 11
34.7629
 21
9.68596
  0
LINE
  8
0
 10
34.7629
 20
9.68596
 11
34.7081
 21
9.47655
  0
LINE
  8
0
 10
34.7081
 20
9.47655
 11
34.6752
 21
9.24352
  0
LINE
  8
0
 10
34.6752
 20
9.24352
 11
34.6643
 21
8.98683
  0
LINE
  8
0
 10
34.6643
 20
8.98683
 11
34.6748
 21
8.73727
  0
LINE
  8
0
 10
34.6748
 20
8.73727
 11
34.7064
 21
8.50909
  0
LINE
  8
0
 10
34.7064
 20
8.50909
 11
34.759
 21
8.30234
  0
LINE
  8
0
 10
34.759
 20
8.30234
 11
34.8326
 21
8.11697
  0
LINE
  8
0
 10
34.8326
 20
8.11697
 11
34.9241
 21
7.95309
  0
LINE
  8
0
 10
34.9241
 20
7.95309
 11
35.0303
 21
7.81079
  0
LINE
  8
0
 10
35.0303
 20
7.81079
 11
35.1513
 21
7.69008
  0
LINE
  8
0
 10
35.1513
 20
7.69008
 11
35.2869
 21
7.59093
  0
LINE
  8
0
 10
35.2869
 20
7.59093
 11
35.4338
 21
7.51363
  0
LINE
  8
0
 10
35.4338
 20
7.51363
 11
35.5884
 21
7.4584
  0
LINE
  8
0
 10
35.5884
 20
7.4584
 11
35.7508
 21
7.42528
  0
LINE
  8
0
 10
35.7508
 20
7.42528
 11
35.9208
 21
7.41423
  0
LINE
  8
0
 10
35.9208
 20
7.41423
 11
36.0913
 21
7.42459
  0
LINE
  8
0
 10
36.1213
 20
8.17365
 11
36.0046
 21
8.21628
  0
LINE
  8
0
 10
36.0046
 20
8.21628
 11
35.9046
 21
8.28734
  0
LINE
  8
0
 10
35.9046
 20
8.28734
 11
35.8212
 21
8.38684
  0
LINE
  8
0
 10
35.8212
 20
8.38684
 11
35.7556
 21
8.50961
  0
LINE
  8
0
 10
35.7556
 20
8.50961
 11
35.7087
 21
8.65053
  0
LINE
  8
0
 10
35.7087
 20
8.65053
 11
35.6806
 21
8.80962
  0
LINE
  8
0
 10
35.6806
 20
8.80962
 11
35.6712
 21
8.98683
  0
LINE
  8
0
 10
35.6712
 20
8.98683
 11
35.6806
 21
9.16397
  0
LINE
  8
0
 10
35.6806
 20
9.16397
 11
35.7087
 21
9.32278
  0
LINE
  8
0
 10
35.7087
 20
9.32278
 11
35.7556
 21
9.46329
  0
LINE
  8
0
 10
35.7556
 20
9.46329
 11
35.8212
 21
9.58546
  0
LINE
  8
0
 10
35.8212
 20
9.58546
 11
35.9046
 21
9.68436
  0
LINE
  8
0
 10
35.9046
 20
9.68436
 11
36.0046
 21
9.75499
  0
LINE
  8
0
 10
36.0046
 20
9.75499
 11
36.1213
 21
9.79738
  0
LINE
  8
0
 10
36.1213
 20
9.79738
 11
36.2546
 21
9.81149
  0
LINE
  8
0
 10
36.2546
 20
9.81149
 11
36.387
 21
9.79762
  0
LINE
  8
0
 10
36.387
 20
9.79762
 11
36.5039
 21
9.75601
  0
LINE
  8
0
 10
36.5039
 20
9.75601
 11
36.6051
 21
9.68665
  0
LINE
  8
0
 10
36.6051
 20
9.68665
 11
36.6907
 21
9.58955
  0
LINE
  8
0
 10
36.6907
 20
9.58955
 11
36.7588
 21
9.46866
  0
LINE
  8
0
 10
36.7588
 20
9.46866
 11
36.8074
 21
9.32791
  0
LINE
  8
0
 10
36.8074
 20
9.32791
 11
36.8366
 21
9.16731
  0
LINE
  8
0
 10
36.8366
 20
9.16731
 11
36.8464
 21
8.98683
  0
LINE
  8
0
 10
36.8464
 20
8.98683
 11
36.8365
 21
8.8085
  0
LINE
  8
0
 10
36.8365
 20
8.8085
 11
36.8071
 21
8.64882
  0
LINE
  8
0
 10
36.8071
 20
8.64882
 11
36.758
 21
8.5078
  0
LINE
  8
0
 10
36.758
 20
8.5078
 11
36.6893
 21
8.38545
  0
LINE
  8
0
 10
36.6893
 20
8.38545
 11
36.6032
 21
8.28658
  0
LINE
  8
0
 10
36.6032
 20
8.28658
 11
36.5021
 21
8.21593
  0
LINE
  8
0
 10
36.5021
 20
8.21593
 11
36.3859
 21
8.17355
  0
LINE
  8
0
 10
36.3859
 20
8.17355
 11
36.2546
 21
8.15942
  0
LINE
  8
0
 10
36.2546
 20
8.15942
 11
36.1213
 21
8.17365
  0
LINE
  8
0
 10
21.3266
 20
7.41525
 11
21.3985
 21
7.41833
  0
LINE
  8
0
 10
21.3985
 20
7.41833
 11
21.4725
 21
7.42348
  0
LINE
  8
0
 10
21.4725
 20
7.42348
 11
21.5485
 21
7.43068
  0
LINE
  8
0
 10
21.5485
 20
7.43068
 11
21.6264
 21
7.44078
  0
LINE
  8
0
 10
21.6264
 20
7.44078
 11
21.7056
 21
7.45465
  0
LINE
  8
0
 10
21.7056
 20
7.45465
 11
21.7862
 21
7.47229
  0
LINE
  8
0
 10
21.7862
 20
7.47229
 11
21.8683
 21
7.4937
  0
LINE
  8
0
 10
21.8683
 20
7.4937
 11
21.7421
 21
8.18956
  0
LINE
  8
0
 10
21.7421
 20
8.18956
 11
21.7192
 21
8.18521
  0
LINE
  8
0
 10
21.7192
 20
8.18521
 11
21.6898
 21
8.18033
  0
LINE
  8
0
 10
21.6898
 20
8.18033
 11
21.654
 21
8.17493
  0
LINE
  8
0
 10
21.654
 20
8.17493
 11
21.6116
 21
8.16901
  0
LINE
  8
0
 10
21.6116
 20
8.16901
 11
21.5686
 21
8.1636
  0
LINE
  8
0
 10
21.5686
 20
8.1636
 11
21.5307
 21
8.15976
  0
LINE
  8
0
 10
21.5307
 20
8.15976
 11
21.4978
 21
8.15746
  0
LINE
  8
0
 10
21.4978
 20
8.15746
 11
21.47
 21
8.15668
  0
LINE
  8
0
 10
21.47
 20
8.15668
 11
21.3608
 21
8.17157
  0
LINE
  8
0
 10
21.3608
 20
8.17157
 11
21.2828
 21
8.21626
  0
LINE
  8
0
 10
21.2828
 20
8.21626
 11
21.236
 21
8.29076
  0
LINE
  8
0
 10
21.236
 20
8.29076
 11
21.2204
 21
8.39503
  0
LINE
  8
0
 10
21.2204
 20
8.39503
 11
21.2204
 21
9.81149
  0
LINE
  8
0
 10
21.2204
 20
9.81149
 11
21.7841
 21
9.81149
  0
LINE
  8
0
 10
21.7841
 20
9.81149
 11
21.7841
 21
10.5211
  0
LINE
  8
0
 10
21.7841
 20
10.5211
 11
21.2204
 21
10.5211
  0
LINE
  8
0
 10
21.2204
 20
10.5211
 11
21.2204
 21
11.2499
  0
LINE
  8
0
 10
21.2204
 20
11.2499
 11
20.2415
 21
11.2499
  0
LINE
  8
0
 10
20.2415
 20
11.2499
 11
20.2415
 21
10.5211
  0
LINE
  8
0
 10
20.2415
 20
10.5211
 11
19.8264
 21
10.5211
  0
LINE
  8
0
 10
19.8264
 20
10.5211
 11
19.8264
 21
9.81149
  0
LINE
  8
0
 10
19.8264
 20
9.81149
 11
20.2415
 21
9.81149
  0
LINE
  8
0
 10
20.2415
 20
9.81149
 11
20.2415
 21
8.31012
  0
LINE
  8
0
 10
20.2415
 20
8.31012
 11
20.2576
 21
8.10403
  0
LINE
  8
0
 10
20.2576
 20
8.10403
 11
20.306
 21
7.92415
  0
LINE
  8
0
 10
20.306
 20
7.92415
 11
20.3867
 21
7.77046
  0
LINE
  8
0
 10
20.3867
 20
7.77046
 11
20.4995
 21
7.64297
  0
LINE
  8
0
 10
20.4995
 20
7.64297
 11
20.6437
 21
7.54289
  0
LINE
  8
0
 10
20.6437
 20
7.54289
 11
20.8179
 21
7.47142
  0
LINE
  8
0
 10
20.8179
 20
7.47142
 11
21.0223
 21
7.42853
  0
LINE
  8
0
 10
21.0223
 20
7.42853
 11
21.2568
 21
7.41423
  0
LINE
  8
0
 10
21.2568
 20
7.41423
 11
21.3266
 21
7.41525
  0
LINE
  8
0
 10
51.4994
 20
9.27722
 11
51.5073
 21
9.39093
  0
LINE
  8
0
 10
51.5073
 20
9.39093
 11
51.5313
 21
9.49092
  0
LINE
  8
0
 10
51.5313
 20
9.49092
 11
51.5711
 21
9.57722
  0
LINE
  8
0
 10
51.5711
 20
9.57722
 11
51.627
 21
9.64983
  0
LINE
  8
0
 10
51.627
 20
9.64983
 11
51.6952
 21
9.70737
  0
LINE
  8
0
 10
51.6952
 20
9.70737
 11
51.7725
 21
9.74847
  0
LINE
  8
0
 10
51.7725
 20
9.74847
 11
51.8586
 21
9.77315
  0
LINE
  8
0
 10
51.8586
 20
9.77315
 11
51.9537
 21
9.78136
  0
LINE
  8
0
 10
51.9537
 20
9.78136
 11
52.046
 21
9.77356
  0
LINE
  8
0
 10
52.046
 20
9.77356
 11
52.1294
 21
9.75018
  0
LINE
  8
0
 10
52.1294
 20
9.75018
 11
52.2038
 21
9.71123
  0
LINE
  8
0
 10
52.2038
 20
9.71123
 11
52.2693
 21
9.65669
  0
LINE
  8
0
 10
52.2693
 20
9.65669
 11
52.3226
 21
9.58896
  0
LINE
  8
0
 10
52.3226
 20
9.58896
 11
52.3608
 21
9.51045
  0
LINE
  8
0
 10
52.3608
 20
9.51045
 11
52.3837
 21
9.42114
  0
LINE
  8
0
 10
52.3837
 20
9.42114
 11
52.3913
 21
9.32106
  0
LINE
  8
0
 10
52.3913
 20
9.32106
 11
52.3913
 21
7.45805
  0
LINE
  8
0
 10
52.3913
 20
7.45805
 11
53.3308
 21
7.45805
  0
LINE
  8
0
 10
53.3308
 20
7.45805
 11
53.3308
 21
9.29642
  0
LINE
  8
0
 10
53.3308
 20
9.29642
 11
53.3384
 21
9.4006
  0
LINE
  8
0
 10
53.3384
 20
9.4006
 11
53.361
 21
9.494
  0
LINE
  8
0
 10
53.361
 20
9.494
 11
53.3987
 21
9.57661
  0
LINE
  8
0
 10
53.3987
 20
9.57661
 11
53.4514
 21
9.64845
  0
LINE
  8
0
 10
53.4514
 20
9.64845
 11
53.5172
 21
9.70659
  0
LINE
  8
0
 10
53.5172
 20
9.70659
 11
53.5938
 21
9.74814
  0
LINE
  8
0
 10
53.5938
 20
9.74814
 11
53.6813
 21
9.77306
  0
LINE
  8
0
 10
53.6813
 20
9.77306
 11
53.7796
 21
9.78136
  0
LINE
  8
0
 10
53.7796
 20
9.78136
 11
53.8721
 21
9.77382
  0
LINE
  8
0
 10
53.8721
 20
9.77382
 11
53.956
 21
9.75122
  0
LINE
  8
0
 10
53.956
 20
9.75122
 11
54.0312
 21
9.71355
  0
LINE
  8
0
 10
54.0312
 20
9.71355
 11
54.0979
 21
9.66081
  0
LINE
  8
0
 10
54.0979
 20
9.66081
 11
54.1525
 21
9.59351
  0
LINE
  8
0
 10
54.1525
 20
9.59351
 11
54.1916
 21
9.51218
  0
LINE
  8
0
 10
54.1916
 20
9.51218
 11
54.215
 21
9.41679
  0
LINE
  8
0
 10
54.215
 20
9.41679
 11
54.2227
 21
9.30736
  0
LINE
  8
0
 10
54.2227
 20
9.30736
 11
54.2227
 21
7.45805
  0
LINE
  8
0
 10
54.2227
 20
7.45805
 11
55.1988
 21
7.45805
  0
LINE
  8
0
 10
55.1988
 20
7.45805
 11
55.1988
 21
9.52382
  0
LINE
  8
0
 10
55.1988
 20
9.52382
 11
55.1812
 21
9.75327
  0
LINE
  8
0
 10
55.1812
 20
9.75327
 11
55.1284
 21
9.9567
  0
LINE
  8
0
 10
55.1284
 20
9.9567
 11
55.0403
 21
10.1341
  0
LINE
  8
0
 10
55.0403
 20
10.1341
 11
54.9169
 21
10.2855
  0
LINE
  8
0
 10
54.9169
 20
10.2855
 11
54.7661
 21
10.4065
  0
LINE
  8
0
 10
54.7661
 20
10.4065
 11
54.5954
 21
10.493
  0
LINE
  8
0
 10
54.5954
 20
10.493
 11
54.405
 21
10.5449
  0
LINE
  8
0
 10
54.405
 20
10.5449
 11
54.1947
 21
10.5622
  0
LINE
  8
0
 10
54.1947
 20
10.5622
 11
54.0386
 21
10.5518
  0
LINE
  8
0
 10
54.0386
 20
10.5518
 11
53.8873
 21
10.5208
  0
LINE
  8
0
 10
53.8873
 20
10.5208
 11
53.7406
 21
10.4689
  0
LINE
  8
0
 10
53.7406
 20
10.4689
 11
53.5987
 21
10.3964
  0
LINE
  8
0
 10
53.5987
 20
10.3964
 11
53.4677
 21
10.3003
  0
LINE
  8
0
 10
53.4677
 20
10.3003
 11
53.3537
 21
10.1776
  0
LINE
  8
0
 10
53.3537
 20
10.1776
 11
53.2566
 21
10.0284
  0
LINE
  8
0
 10
53.2566
 20
10.0284
 11
53.1766
 21
9.85258
  0
LINE
  8
0
 10
53.1766
 20
9.85258
 11
53.1139
 21
10.0272
  0
LINE
  8
0
 10
53.1139
 20
10.0272
 11
53.0409
 21
10.1759
  0
LINE
  8
0
 10
53.0409
 20
10.1759
 11
52.9576
 21
10.2985
  0
LINE
  8
0
 10
52.9576
 20
10.2985
 11
52.8639
 21
10.3951
  0
LINE
  8
0
 10
52.8639
 20
10.3951
 11
52.7588
 21
10.4682
  0
LINE
  8
0
 10
52.7588
 20
10.4682
 11
52.6413
 21
10.5204
  0
LINE
  8
0
 10
52.6413
 20
10.5204
 11
52.5113
 21
10.5517
  0
LINE
  8
0
 10
52.5113
 20
10.5517
 11
52.3688
 21
10.5622
  0
LINE
  8
0
 10
52.3688
 20
10.5622
 11
52.2296
 21
10.5527
  0
LINE
  8
0
 10
52.2296
 20
10.5527
 11
52.095
 21
10.5242
  0
LINE
  8
0
 10
52.095
 20
10.5242
 11
51.9652
 21
10.4767
  0
LINE
  8
0
 10
51.9652
 20
10.4767
 11
51.8401
 21
10.4101
  0
LINE
  8
0
 10
51.8401
 20
10.4101
 11
51.7247
 21
10.322
  0
LINE
  8
0
 10
51.7247
 20
10.322
 11
51.6238
 21
10.2098
  0
LINE
  8
0
 10
51.6238
 20
10.2098
 11
51.5375
 21
10.0734
  0
LINE
  8
0
 10
51.5375
 20
10.0734
 11
51.4657
 21
9.91286
  0
LINE
  8
0
 10
51.4657
 20
9.91286
 11
51.4208
 21
10.5211
  0
LINE
  8
0
 10
51.4208
 20
10.5211
 11
50.5205
 21
10.5211
  0
LINE
  8
0
 10
50.5205
 20
10.5211
 11
50.5205
 21
7.45805
  0
LINE
  8
0
 10
50.5205
 20
7.45805
 11
51.4994
 21
7.45805
  0
LINE
  8
0
 10
51.4994
 20
7.45805
 11
51.4994
 21
9.27722
  0
LINE
  8
0
 10
12.5014
 20
9.27722
 11
12.5094
 21
9.39093
  0
LINE
  8
0
 10
12.5094
 20
9.39093
 11
12.5333
 21
9.49092
  0
LINE
  8
0
 10
12.5333
 20
9.49092
 11
12.5732
 21
9.57722
  0
LINE
  8
0
 10
12.5732
 20
9.57722
 11
12.629
 21
9.64983
  0
LINE
  8
0
 10
12.629
 20
9.64983
 11
12.6973
 21
9.70737
  0
LINE
  8
0
 10
12.6973
 20
9.70737
 11
12.7745
 21
9.74847
  0
LINE
  8
0
 10
12.7745
 20
9.74847
 11
12.8606
 21
9.77315
  0
LINE
  8
0
 10
12.8606
 20
9.77315
 11
12.9557
 21
9.78136
  0
LINE
  8
0
 10
12.9557
 20
9.78136
 11
13.048
 21
9.77356
  0
LINE
  8
0
 10
13.048
 20
9.77356
 11
13.1314
 21
9.75018
  0
LINE
  8
0
 10
13.1314
 20
9.75018
 11
13.2058
 21
9.71123
  0
LINE
  8
0
 10
13.2058
 20
9.71123
 11
13.2713
 21
9.65669
  0
LINE
  8
0
 10
13.2713
 20
9.65669
 11
13.3247
 21
9.58896
  0
LINE
  8
0
 10
13.3247
 20
9.58896
 11
13.3628
 21
9.51045
  0
LINE
  8
0
 10
13.3628
 20
9.51045
 11
13.3857
 21
9.42114
  0
LINE
  8
0
 10
13.3857
 20
9.42114
 11
13.3933
 21
9.32106
  0
LINE
  8
0
 10
13.3933
 20
9.32106
 11
13.3933
 21
7.45805
  0
LINE
  8
0
 10
13.3933
 20
7.45805
 11
14.3329
 21
7.45805
  0
LINE
  8
0
 10
14.3329
 20
7.45805
 11
14.3329
 21
9.29642
  0
LINE
  8
0
 10
14.3329
 20
9.29642
 11
14.3404
 21
9.4006
  0
LINE
  8
0
 10
14.3404
 20
9.4006
 11
14.363
 21
9.494
  0
LINE
  8
0
 10
14.363
 20
9.494
 11
14.4007
 21
9.57661
  0
LINE
  8
0
 10
14.4007
 20
9.57661
 11
14.4535
 21
9.64845
  0
LINE
  8
0
 10
14.4535
 20
9.64845
 11
14.5192
 21
9.70659
  0
LINE
  8
0
 10
14.5192
 20
9.70659
 11
14.5958
 21
9.74814
  0
LINE
  8
0
 10
14.5958
 20
9.74814
 11
14.6833
 21
9.77306
  0
LINE
  8
0
 10
14.6833
 20
9.77306
 11
14.7816
 21
9.78136
  0
LINE
  8
0
 10
14.7816
 20
9.78136
 11
14.8741
 21
9.77382
  0
LINE
  8
0
 10
14.8741
 20
9.77382
 11
14.958
 21
9.75122
  0
LINE
  8
0
 10
14.958
 20
9.75122
 11
15.0333
 21
9.71355
  0
LINE
  8
0
 10
15.0333
 20
9.71355
 11
15.1
 21
9.66081
  0
LINE
  8
0
 10
15.1
 20
9.66081
 11
15.1546
 21
9.59351
  0
LINE
  8
0
 10
15.1546
 20
9.59351
 11
15.1936
 21
9.51218
  0
LINE
  8
0
 10
15.1936
 20
9.51218
 11
15.217
 21
9.41679
  0
LINE
  8
0
 10
15.217
 20
9.41679
 11
15.2248
 21
9.30736
  0
LINE
  8
0
 10
15.2248
 20
9.30736
 11
15.2248
 21
7.45805
  0
LINE
  8
0
 10
15.2248
 20
7.45805
 11
16.2009
 21
7.45805
  0
LINE
  8
0
 10
16.2009
 20
7.45805
 11
16.2009
 21
9.52382
  0
LINE
  8
0
 10
16.2009
 20
9.52382
 11
16.1832
 21
9.75327
  0
LINE
  8
0
 10
16.1832
 20
9.75327
 11
16.1304
 21
9.9567
  0
LINE
  8
0
 10
16.1304
 20
9.9567
 11
16.0423
 21
10.1341
  0
LINE
  8
0
 10
16.0423
 20
10.1341
 11
15.919
 21
10.2855
  0
LINE
  8
0
 10
15.919
 20
10.2855
 11
15.7681
 21
10.4065
  0
LINE
  8
0
 10
15.7681
 20
10.4065
 11
15.5975
 21
10.493
  0
LINE
  8
0
 10
15.5975
 20
10.493
 11
15.407
 21
10.5449
  0
LINE
  8
0
 10
15.407
 20
10.5449
 11
15.1967
 21
10.5622
  0
LINE
  8
0
 10
15.1967
 20
10.5622
 11
15.0406
 21
10.5518
  0
LINE
  8
0
 10
15.0406
 20
10.5518
 11
14.8893
 21
10.5208
  0
LINE
  8
0
 10
14.8893
 20
10.5208
 11
14.7426
 21
10.4689
  0
LINE
  8
0
 10
14.7426
 20
10.4689
 11
14.6007
 21
10.3964
  0
LINE
  8
0
 10
14.6007
 20
10.3964
 11
14.4697
 21
10.3003
  0
LINE
  8
0
 10
14.4697
 20
10.3003
 11
14.3557
 21
10.1776
  0
LINE
  8
0
 10
14.3557
 20
10.1776
 11
14.2587
 21
10.0284
  0
LINE
  8
0
 10
14.2587
 20
10.0284
 11
14.1786
 21
9.85258
  0
LINE
  8
0
 10
14.1786
 20
9.85258
 11
14.116
 21
10.0272
  0
LINE
  8
0
 10
14.116
 20
10.0272
 11
14.043
 21
10.1759
  0
LINE
  8
0
 10
14.043
 20
10.1759
 11
13.9596
 21
10.2985
  0
LINE
  8
0
 10
13.9596
 20
10.2985
 11
13.8659
 21
10.3951
  0
LINE
  8
0
 10
13.8659
 20
10.3951
 11
13.7608
 21
10.4682
  0
LINE
  8
0
 10
13.7608
 20
10.4682
 11
13.6433
 21
10.5204
  0
LINE
  8
0
 10
13.6433
 20
10.5204
 11
13.5133
 21
10.5517
  0
LINE
  8
0
 10
13.5133
 20
10.5517
 11
13.3708
 21
10.5622
  0
LINE
  8
0
 10
13.3708
 20
10.5622
 11
13.2316
 21
10.5527
  0
LINE
  8
0
 10
13.2316
 20
10.5527
 11
13.097
 21
10.5242
  0
LINE
  8
0
 10
13.097
 20
10.5242
 11
12.9673
 21
10.4767
  0
LINE
  8
0
 10
12.9673
 20
10.4767
 11
12.8422
 21
10.4101
  0
LINE
  8
0
 10
12.8422
 20
10.4101
 11
12.7267
 21
10.322
  0
LINE
  8
0
 10
12.7267
 20
10.322
 11
12.6259
 21
10.2098
  0
LINE
  8
0
 10
12.6259
 20
10.2098
 11
12.5395
 21
10.0734
  0
LINE
  8
0
 10
12.5395
 20
10.0734
 11
12.4677
 21
9.91286
  0
LINE
  8
0
 10
12.4677
 20
9.91286
 11
12.4229
 21
10.5211
  0
LINE
  8
0
 10
12.4229
 20
10.5211
 11
11.5225
 21
10.5211
  0
LINE
  8
0
 10
11.5225
 20
10.5211
 11
11.5225
 21
7.45805
  0
LINE
  8
0
 10
11.5225
 20
7.45805
 11
12.5014
 21
7.45805
  0
LINE
  8
0
 10
12.5014
 20
7.45805
 11
12.5014
 21
9.27722
  0
LINE
  8
0
 10
45.4533
 20
7.41911
 11
45.7147
 21
7.47485
  0
LINE
  8
0
 10
45.7147
 20
7.47485
 11
45.9483
 21
7.56775
  0
LINE
  8
0
 10
45.9483
 20
7.56775
 11
46.1543
 21
7.69778
  0
LINE
  8
0
 10
46.1543
 20
7.69778
 11
46.327
 21
7.86003
  0
LINE
  8
0
 10
46.327
 20
7.86003
 11
46.4607
 21
8.0495
  0
LINE
  8
0
 10
46.4607
 20
8.0495
 11
46.5556
 21
8.2662
  0
LINE
  8
0
 10
46.5556
 20
8.2662
 11
46.6115
 21
8.51013
  0
LINE
  8
0
 10
46.6115
 20
8.51013
 11
45.7084
 21
8.65257
  0
LINE
  8
0
 10
45.7084
 20
8.65257
 11
45.6802
 21
8.53615
  0
LINE
  8
0
 10
45.6802
 20
8.53615
 11
45.6407
 21
8.43341
  0
LINE
  8
0
 10
45.6407
 20
8.43341
 11
45.5898
 21
8.34438
  0
LINE
  8
0
 10
45.5898
 20
8.34438
 11
45.5275
 21
8.26903
  0
LINE
  8
0
 10
45.5275
 20
8.26903
 11
45.4545
 21
8.20909
  0
LINE
  8
0
 10
45.4545
 20
8.20909
 11
45.3714
 21
8.16629
  0
LINE
  8
0
 10
45.3714
 20
8.16629
 11
45.2785
 21
8.14059
  0
LINE
  8
0
 10
45.2785
 20
8.14059
 11
45.1755
 21
8.13203
  0
LINE
  8
0
 10
45.1755
 20
8.13203
 11
45.0431
 21
8.14633
  0
LINE
  8
0
 10
45.0431
 20
8.14633
 11
44.9265
 21
8.18922
  0
LINE
  8
0
 10
44.9265
 20
8.18922
 11
44.8257
 21
8.2607
  0
LINE
  8
0
 10
44.8257
 20
8.2607
 11
44.7407
 21
8.36078
  0
LINE
  8
0
 10
44.7407
 20
8.36078
 11
44.6732
 21
8.48552
  0
LINE
  8
0
 10
44.6732
 20
8.48552
 11
44.625
 21
8.631
  0
LINE
  8
0
 10
44.625
 20
8.631
 11
44.5961
 21
8.79718
  0
LINE
  8
0
 10
44.5961
 20
8.79718
 11
44.5865
 21
8.98409
  0
LINE
  8
0
 10
44.5865
 20
8.98409
 11
44.5961
 21
9.17183
  0
LINE
  8
0
 10
44.5961
 20
9.17183
 11
44.625
 21
9.33784
  0
LINE
  8
0
 10
44.625
 20
9.33784
 11
44.6732
 21
9.4821
  0
LINE
  8
0
 10
44.6732
 20
9.4821
 11
44.7407
 21
9.60461
  0
LINE
  8
0
 10
44.7407
 20
9.60461
 11
44.8257
 21
9.70232
  0
LINE
  8
0
 10
44.8257
 20
9.70232
 11
44.9265
 21
9.77211
  0
LINE
  8
0
 10
44.9265
 20
9.77211
 11
45.0431
 21
9.81398
  0
LINE
  8
0
 10
45.0431
 20
9.81398
 11
45.1755
 21
9.82794
  0
LINE
  8
0
 10
45.1755
 20
9.82794
 11
45.2783
 21
9.81972
  0
LINE
  8
0
 10
45.2783
 20
9.81972
 11
45.3707
 21
9.79506
  0
LINE
  8
0
 10
45.3707
 20
9.79506
 11
45.4529
 21
9.75395
  0
LINE
  8
0
 10
45.4529
 20
9.75395
 11
45.5246
 21
9.6964
  0
LINE
  8
0
 10
45.5246
 20
9.6964
 11
45.5859
 21
9.62381
  0
LINE
  8
0
 10
45.5859
 20
9.62381
 11
45.6365
 21
9.53751
  0
LINE
  8
0
 10
45.6365
 20
9.53751
 11
45.6764
 21
9.4375
  0
LINE
  8
0
 10
45.6764
 20
9.4375
 11
45.7056
 21
9.32381
  0
LINE
  8
0
 10
45.7056
 20
9.32381
 11
46.6087
 21
9.47174
  0
LINE
  8
0
 10
46.6087
 20
9.47174
 11
46.5527
 21
9.70941
  0
LINE
  8
0
 10
46.5527
 20
9.70941
 11
46.4576
 21
9.92107
  0
LINE
  8
0
 10
46.4576
 20
9.92107
 11
46.3234
 21
10.1067
  0
LINE
  8
0
 10
46.3234
 20
10.1067
 11
46.1501
 21
10.2663
  0
LINE
  8
0
 10
46.1501
 20
10.2663
 11
45.9439
 21
10.3945
  0
LINE
  8
0
 10
45.9439
 20
10.3945
 11
45.7108
 21
10.4861
  0
LINE
  8
0
 10
45.7108
 20
10.4861
 11
45.451
 21
10.5411
  0
LINE
  8
0
 10
45.451
 20
10.5411
 11
45.1643
 21
10.5594
  0
LINE
  8
0
 10
45.1643
 20
10.5594
 11
44.9274
 21
10.547
  0
LINE
  8
0
 10
44.9274
 20
10.547
 11
44.7078
 21
10.5098
  0
LINE
  8
0
 10
44.7078
 20
10.5098
 11
44.5053
 21
10.4477
  0
LINE
  8
0
 10
44.5053
 20
10.4477
 11
44.32
 21
10.3608
  0
LINE
  8
0
 10
44.32
 20
10.3608
 11
44.1536
 21
10.2516
  0
LINE
  8
0
 10
44.1536
 20
10.2516
 11
44.0076
 21
10.1228
  0
LINE
  8
0
 10
44.0076
 20
10.1228
 11
43.8822
 21
9.97423
  0
LINE
  8
0
 10
43.8822
 20
9.97423
 11
43.7773
 21
9.806
  0
LINE
  8
0
 10
43.7773
 20
9.806
 11
43.6945
 21
9.62073
  0
LINE
  8
0
 10
43.6945
 20
9.62073
 11
43.6353
 21
9.42108
  0
LINE
  8
0
 10
43.6353
 20
9.42108
 11
43.5998
 21
9.20703
  0
LINE
  8
0
 10
43.5998
 20
9.20703
 11
43.588
 21
8.97859
  0
LINE
  8
0
 10
43.588
 20
8.97859
 11
43.5998
 21
8.75026
  0
LINE
  8
0
 10
43.5998
 20
8.75026
 11
43.6353
 21
8.53648
  0
LINE
  8
0
 10
43.6353
 20
8.53648
 11
43.6945
 21
8.33725
  0
LINE
  8
0
 10
43.6945
 20
8.33725
 11
43.7773
 21
8.15256
  0
LINE
  8
0
 10
43.7773
 20
8.15256
 11
43.8822
 21
7.98492
  0
LINE
  8
0
 10
43.8822
 20
7.98492
 11
44.0076
 21
7.83681
  0
LINE
  8
0
 10
44.0076
 20
7.83681
 11
44.1536
 21
7.70822
  0
LINE
  8
0
 10
44.1536
 20
7.70822
 11
44.32
 21
7.59914
  0
LINE
  8
0
 10
44.32
 20
7.59914
 11
44.5053
 21
7.51225
  0
LINE
  8
0
 10
44.5053
 20
7.51225
 11
44.7078
 21
7.45018
  0
LINE
  8
0
 10
44.7078
 20
7.45018
 11
44.9274
 21
7.41295
  0
LINE
  8
0
 10
44.9274
 20
7.41295
 11
45.1643
 21
7.40053
  0
LINE
  8
0
 10
45.1643
 20
7.40053
 11
45.4533
 21
7.41911
  0
LINE
  8
0
 10
32.662
 20
7.43359
 11
32.9134
 21
7.52451
  0
LINE
  8
0
 10
32.9134
 20
7.52451
 11
33.1164
 21
7.67604
  0
LINE
  8
0
 10
33.1164
 20
7.67604
 11
33.271
 21
7.88818
  0
LINE
  8
0
 10
33.271
 20
7.88818
 11
33.2963
 21
7.88818
  0
LINE
  8
0
 10
33.2963
 20
7.88818
 11
33.2963
 21
7.45805
  0
LINE
  8
0
 10
33.2963
 20
7.45805
 11
34.2162
 21
7.45805
  0
LINE
  8
0
 10
34.2162
 20
7.45805
 11
34.2162
 21
9.53751
  0
LINE
  8
0
 10
34.2162
 20
9.53751
 11
34.2046
 21
9.69565
  0
LINE
  8
0
 10
34.2046
 20
9.69565
 11
34.1696
 21
9.84126
  0
LINE
  8
0
 10
34.1696
 20
9.84126
 11
34.1113
 21
9.9744
  0
LINE
  8
0
 10
34.1113
 20
9.9744
 11
34.0297
 21
10.095
  0
LINE
  8
0
 10
34.0297
 20
10.095
 11
33.9284
 21
10.2025
  0
LINE
  8
0
 10
33.9284
 20
10.2025
 11
33.8109
 21
10.2961
  0
LINE
  8
0
 10
33.8109
 20
10.2961
 11
33.6774
 21
10.3758
  0
LINE
  8
0
 10
33.6774
 20
10.3758
 11
33.5276
 21
10.4416
  0
LINE
  8
0
 10
33.5276
 20
10.4416
 11
33.3652
 21
10.4931
  0
LINE
  8
0
 10
33.3652
 20
10.4931
 11
33.1935
 21
10.53
  0
LINE
  8
0
 10
33.1935
 20
10.53
 11
33.0126
 21
10.5521
  0
LINE
  8
0
 10
33.0126
 20
10.5521
 11
32.8223
 21
10.5594
  0
LINE
  8
0
 10
32.8223
 20
10.5594
 11
32.5421
 21
10.5441
  0
LINE
  8
0
 10
32.5421
 20
10.5441
 11
32.2904
 21
10.4981
  0
LINE
  8
0
 10
32.2904
 20
10.4981
 11
32.0674
 21
10.4215
  0
LINE
  8
0
 10
32.0674
 20
10.4215
 11
31.8728
 21
10.3142
  0
LINE
  8
0
 10
31.8728
 20
10.3142
 11
31.7094
 21
10.1825
  0
LINE
  8
0
 10
31.7094
 20
10.1825
 11
31.5794
 21
10.0324
  0
LINE
  8
0
 10
31.5794
 20
10.0324
 11
31.4829
 21
9.86398
  0
LINE
  8
0
 10
31.4829
 20
9.86398
 11
31.4199
 21
9.67725
  0
LINE
  8
0
 10
31.4199
 20
9.67725
 11
32.3062
 21
9.5649
  0
LINE
  8
0
 10
32.3062
 20
9.5649
 11
32.3316
 21
9.63373
  0
LINE
  8
0
 10
32.3316
 20
9.63373
 11
32.3686
 21
9.69502
  0
LINE
  8
0
 10
32.3686
 20
9.69502
 11
32.4172
 21
9.74878
  0
LINE
  8
0
 10
32.4172
 20
9.74878
 11
32.4773
 21
9.79501
  0
LINE
  8
0
 10
32.4773
 20
9.79501
 11
32.5478
 21
9.83218
  0
LINE
  8
0
 10
32.5478
 20
9.83218
 11
32.6273
 21
9.85873
  0
LINE
  8
0
 10
32.6273
 20
9.85873
 11
32.716
 21
9.87466
  0
LINE
  8
0
 10
32.716
 20
9.87466
 11
32.8138
 21
9.87997
  0
LINE
  8
0
 10
32.8138
 20
9.87997
 11
32.9081
 21
9.87459
  0
LINE
  8
0
 10
32.9081
 20
9.87459
 11
32.9916
 21
9.8584
  0
LINE
  8
0
 10
32.9916
 20
9.8584
 11
33.0644
 21
9.83144
  0
LINE
  8
0
 10
33.0644
 20
9.83144
 11
33.1266
 21
9.79369
  0
LINE
  8
0
 10
33.1266
 20
9.79369
 11
33.1763
 21
9.74599
  0
LINE
  8
0
 10
33.1763
 20
9.74599
 11
33.2118
 21
9.68922
  0
LINE
  8
0
 10
33.2118
 20
9.68922
 11
33.2331
 21
9.62338
  0
LINE
  8
0
 10
33.2331
 20
9.62338
 11
33.2402
 21
9.54846
  0
LINE
  8
0
 10
33.2402
 20
9.54846
 11
33.2402
 21
9.53751
  0
LINE
  8
0
 10
33.2402
 20
9.53751
 11
33.2294
 21
9.4722
  0
LINE
  8
0
 10
33.2294
 20
9.4722
 11
33.197
 21
9.41869
  0
LINE
  8
0
 10
33.197
 20
9.41869
 11
33.1431
 21
9.377
  0
LINE
  8
0
 10
33.1431
 20
9.377
 11
33.0677
 21
9.34711
  0
LINE
  8
0
 10
33.0677
 20
9.34711
 11
32.9673
 21
9.32408
  0
LINE
  8
0
 10
32.9673
 20
9.32408
 11
32.8387
 21
9.30293
  0
LINE
  8
0
 10
32.8387
 20
9.30293
 11
32.6819
 21
9.28366
  0
LINE
  8
0
 10
32.6819
 20
9.28366
 11
32.4969
 21
9.26628
  0
LINE
  8
0
 10
32.4969
 20
9.26628
 11
32.3417
 21
9.24831
  0
LINE
  8
0
 10
32.3417
 20
9.24831
 11
32.193
 21
9.22176
  0
LINE
  8
0
 10
32.193
 20
9.22176
 11
32.0507
 21
9.18665
  0
LINE
  8
0
 10
32.0507
 20
9.18665
 11
31.9149
 21
9.14297
  0
LINE
  8
0
 10
31.9149
 20
9.14297
 11
31.789
 21
9.08853
  0
LINE
  8
0
 10
31.789
 20
9.08853
 11
31.6762
 21
9.02107
  0
LINE
  8
0
 10
31.6762
 20
9.02107
 11
31.5765
 21
8.9406
  0
LINE
  8
0
 10
31.5765
 20
8.9406
 11
31.49
 21
8.84709
  0
LINE
  8
0
 10
31.49
 20
8.84709
 11
31.4201
 21
8.73837
  0
LINE
  8
0
 10
31.4201
 20
8.73837
 11
31.3701
 21
8.61218
  0
LINE
  8
0
 10
31.3701
 20
8.61218
 11
31.3401
 21
8.46851
  0
LINE
  8
0
 10
31.3401
 20
8.46851
 11
31.3302
 21
8.30737
  0
LINE
  8
0
 10
31.3302
 20
8.30737
 11
31.3483
 21
8.09436
  0
LINE
  8
0
 10
31.3483
 20
8.09436
 11
31.4027
 21
7.91013
  0
LINE
  8
0
 10
31.4027
 20
7.91013
 11
31.4934
 21
7.75465
  0
LINE
  8
0
 10
31.4934
 20
7.75465
 11
31.6204
 21
7.62794
  0
LINE
  8
0
 10
31.6204
 20
7.62794
 11
31.7757
 21
7.52965
  0
LINE
  8
0
 10
31.7757
 20
7.52965
 11
31.951
 21
7.45944
  0
LINE
  8
0
 10
31.951
 20
7.45944
 11
32.1466
 21
7.41733
  0
LINE
  8
0
 10
32.1466
 20
7.41733
 11
32.3623
 21
7.40329
  0
LINE
  8
0
 10
32.3623
 20
7.40329
 11
32.662
 21
7.43359
  0
LINE
  8
0
 10
32.5752
 20
8.04118
 11
32.4987
 21
8.05634
  0
LINE
  8
0
 10
32.4987
 20
8.05634
 11
32.4301
 21
8.0816
  0
LINE
  8
0
 10
32.4301
 20
8.0816
 11
32.3693
 21
8.11697
  0
LINE
  8
0
 10
32.3693
 20
8.11697
 11
32.3196
 21
8.16193
  0
LINE
  8
0
 10
32.3196
 20
8.16193
 11
32.2841
 21
8.21594
  0
LINE
  8
0
 10
32.2841
 20
8.21594
 11
32.2628
 21
8.27904
  0
LINE
  8
0
 10
32.2628
 20
8.27904
 11
32.2557
 21
8.3512
  0
LINE
  8
0
 10
32.2557
 20
8.3512
 11
32.284
 21
8.48596
  0
LINE
  8
0
 10
32.284
 20
8.48596
 11
32.3686
 21
8.59161
  0
LINE
  8
0
 10
32.3686
 20
8.59161
 11
32.5097
 21
8.66815
  0
LINE
  8
0
 10
32.5097
 20
8.66815
 11
32.7073
 21
8.71559
  0
LINE
  8
0
 10
32.7073
 20
8.71559
 11
32.7774
 21
8.72707
  0
LINE
  8
0
 10
32.7774
 20
8.72707
 11
32.8503
 21
8.73955
  0
LINE
  8
0
 10
32.8503
 20
8.73955
 11
32.926
 21
8.75308
  0
LINE
  8
0
 10
32.926
 20
8.75308
 11
33.0045
 21
8.76764
  0
LINE
  8
0
 10
33.0045
 20
8.76764
 11
33.0798
 21
8.78355
  0
LINE
  8
0
 10
33.0798
 20
8.78355
 11
33.1455
 21
8.80121
  0
LINE
  8
0
 10
33.1455
 20
8.80121
 11
33.2018
 21
8.82057
  0
LINE
  8
0
 10
33.2018
 20
8.82057
 11
33.2486
 21
8.84164
  0
LINE
  8
0
 10
33.2486
 20
8.84164
 11
33.2486
 21
8.54848
  0
LINE
  8
0
 10
33.2486
 20
8.54848
 11
33.2379
 21
8.44006
  0
LINE
  8
0
 10
33.2379
 20
8.44006
 11
33.2058
 21
8.34229
  0
LINE
  8
0
 10
33.2058
 20
8.34229
 11
33.1524
 21
8.25513
  0
LINE
  8
0
 10
33.1524
 20
8.25513
 11
33.0775
 21
8.17857
  0
LINE
  8
0
 10
33.0775
 20
8.17857
 11
32.9872
 21
8.11626
  0
LINE
  8
0
 10
32.9872
 20
8.11626
 11
32.8875
 21
8.07175
  0
LINE
  8
0
 10
32.8875
 20
8.07175
 11
32.7783
 21
8.04503
  0
LINE
  8
0
 10
32.7783
 20
8.04503
 11
32.6596
 21
8.03613
  0
LINE
  8
0
 10
32.6596
 20
8.03613
 11
32.5752
 21
8.04118
  0
LINE
  8
0
 10
40.0956
 20
7.41527
 11
40.3432
 21
7.45944
  0
LINE
  8
0
 10
40.3432
 20
7.45944
 11
40.5661
 21
7.53307
  0
LINE
  8
0
 10
40.5661
 20
7.53307
 11
40.7643
 21
7.63614
  0
LINE
  8
0
 10
40.7643
 20
7.63614
 11
40.9342
 21
7.76405
  0
LINE
  8
0
 10
40.9342
 20
7.76405
 11
41.0725
 21
7.91217
  0
LINE
  8
0
 10
41.0725
 20
7.91217
 11
41.179
 21
8.08049
  0
LINE
  8
0
 10
41.179
 20
8.08049
 11
41.2537
 21
8.26903
  0
LINE
  8
0
 10
41.2537
 20
8.26903
 11
40.3814
 21
8.40874
  0
LINE
  8
0
 10
40.3814
 20
8.40874
 11
40.3467
 21
8.33656
  0
LINE
  8
0
 10
40.3467
 20
8.33656
 11
40.3015
 21
8.27347
  0
LINE
  8
0
 10
40.3015
 20
8.27347
 11
40.2458
 21
8.21945
  0
LINE
  8
0
 10
40.2458
 20
8.21945
 11
40.1795
 21
8.1745
  0
LINE
  8
0
 10
40.1795
 20
8.1745
 11
40.1047
 21
8.13914
  0
LINE
  8
0
 10
40.1047
 20
8.13914
 11
40.0231
 21
8.11389
  0
LINE
  8
0
 10
40.0231
 20
8.11389
 11
39.935
 21
8.09875
  0
LINE
  8
0
 10
39.935
 20
8.09875
 11
39.8401
 21
8.0937
  0
LINE
  8
0
 10
39.8401
 20
8.0937
 11
39.7079
 21
8.10405
  0
LINE
  8
0
 10
39.7079
 20
8.10405
 11
39.5888
 21
8.13513
  0
LINE
  8
0
 10
39.5888
 20
8.13513
 11
39.4828
 21
8.1869
  0
LINE
  8
0
 10
39.4828
 20
8.1869
 11
39.39
 21
8.25941
  0
LINE
  8
0
 10
39.39
 20
8.25941
 11
39.3136
 21
8.35265
  0
LINE
  8
0
 10
39.3136
 20
8.35265
 11
39.2571
 21
8.46661
  0
LINE
  8
0
 10
39.2571
 20
8.46661
 11
39.2204
 21
8.60129
  0
LINE
  8
0
 10
39.2204
 20
8.60129
 11
39.2035
 21
8.75668
  0
LINE
  8
0
 10
39.2035
 20
8.75668
 11
41.2986
 21
8.75668
  0
LINE
  8
0
 10
41.2986
 20
8.75668
 11
41.2986
 21
8.99779
  0
LINE
  8
0
 10
41.2986
 20
8.99779
 11
41.2864
 21
9.24016
  0
LINE
  8
0
 10
41.2864
 20
9.24016
 11
41.2499
 21
9.4632
  0
LINE
  8
0
 10
41.2499
 20
9.4632
 11
41.1889
 21
9.66687
  0
LINE
  8
0
 10
41.1889
 20
9.66687
 11
41.1037
 21
9.85121
  0
LINE
  8
0
 10
41.1037
 20
9.85121
 11
40.9971
 21
10.0153
  0
LINE
  8
0
 10
40.9971
 20
10.0153
 11
40.8723
 21
10.1581
  0
LINE
  8
0
 10
40.8723
 20
10.1581
 11
40.7292
 21
10.2796
  0
LINE
  8
0
 10
40.7292
 20
10.2796
 11
40.568
 21
10.38
  0
LINE
  8
0
 10
40.568
 20
10.38
 11
40.3914
 21
10.4585
  0
LINE
  8
0
 10
40.3914
 20
10.4585
 11
40.2023
 21
10.5146
  0
LINE
  8
0
 10
40.2023
 20
10.5146
 11
40.0008
 21
10.5482
  0
LINE
  8
0
 10
40.0008
 20
10.5482
 11
39.7868
 21
10.5594
  0
LINE
  8
0
 10
39.7868
 20
10.5594
 11
39.559
 21
10.547
  0
LINE
  8
0
 10
39.559
 20
10.547
 11
39.3465
 21
10.5098
  0
LINE
  8
0
 10
39.3465
 20
10.5098
 11
39.1495
 21
10.4477
  0
LINE
  8
0
 10
39.1495
 20
10.4477
 11
38.9678
 21
10.3608
  0
LINE
  8
0
 10
38.9678
 20
10.3608
 11
38.8039
 21
10.2516
  0
LINE
  8
0
 10
38.8039
 20
10.2516
 11
38.6597
 21
10.1228
  0
LINE
  8
0
 10
38.6597
 20
10.1228
 11
38.5353
 21
9.97423
  0
LINE
  8
0
 10
38.5353
 20
9.97423
 11
38.4307
 21
9.806
  0
LINE
  8
0
 10
38.4307
 20
9.806
 11
38.3479
 21
9.62073
  0
LINE
  8
0
 10
38.3479
 20
9.62073
 11
38.2888
 21
9.42108
  0
LINE
  8
0
 10
38.2888
 20
9.42108
 11
38.2533
 21
9.20703
  0
LINE
  8
0
 10
38.2533
 20
9.20703
 11
38.2414
 21
8.97859
  0
LINE
  8
0
 10
38.2414
 20
8.97859
 11
38.2678
 21
8.62988
  0
LINE
  8
0
 10
38.2678
 20
8.62988
 11
38.347
 21
8.32074
  0
LINE
  8
0
 10
38.347
 20
8.32074
 11
38.4789
 21
8.05113
  0
LINE
  8
0
 10
38.4789
 20
8.05113
 11
38.6635
 21
7.82109
  0
LINE
  8
0
 10
38.6635
 20
7.82109
 11
38.8943
 21
7.6371
  0
LINE
  8
0
 10
38.8943
 20
7.6371
 11
39.1646
 21
7.50568
  0
LINE
  8
0
 10
39.1646
 20
7.50568
 11
39.4742
 21
7.42682
  0
LINE
  8
0
 10
39.4742
 20
7.42682
 11
39.8233
 21
7.40053
  0
LINE
  8
0
 10
39.8233
 20
7.40053
 11
40.0956
 21
7.41527
  0
LINE
  8
0
 10
39.2091
 20
9.31285
 11
39.2307
 21
9.43365
  0
LINE
  8
0
 10
39.2307
 20
9.43365
 11
39.2676
 21
9.54128
  0
LINE
  8
0
 10
39.2676
 20
9.54128
 11
39.3198
 21
9.63571
  0
LINE
  8
0
 10
39.3198
 20
9.63571
 11
39.3872
 21
9.71696
  0
LINE
  8
0
 10
39.3872
 20
9.71696
 11
39.4689
 21
9.78229
  0
LINE
  8
0
 10
39.4689
 20
9.78229
 11
39.5642
 21
9.82895
  0
LINE
  8
0
 10
39.5642
 20
9.82895
 11
39.673
 21
9.85695
  0
LINE
  8
0
 10
39.673
 20
9.85695
 11
39.7952
 21
9.86627
  0
LINE
  8
0
 10
39.7952
 20
9.86627
 11
39.916
 21
9.85712
  0
LINE
  8
0
 10
39.916
 20
9.85712
 11
40.0231
 21
9.82964
  0
LINE
  8
0
 10
40.0231
 20
9.82964
 11
40.1166
 21
9.78383
  0
LINE
  8
0
 10
40.1166
 20
9.78383
 11
40.1963
 21
9.71971
  0
LINE
  8
0
 10
40.1963
 20
9.71971
 11
40.2619
 21
9.63931
  0
LINE
  8
0
 10
40.2619
 20
9.63931
 11
40.3127
 21
9.54471
  0
LINE
  8
0
 10
40.3127
 20
9.54471
 11
40.3489
 21
9.4359
  0
LINE
  8
0
 10
40.3489
 20
9.4359
 11
40.3702
 21
9.31285
  0
LINE
  8
0
 10
40.3702
 20
9.31285
 11
39.2091
 21
9.31285
  0
LINE
  8
0
 10
23.2136
 20
9.12929
 11
23.2248
 21
9.25977
  0
LINE
  8
0
 10
23.2248
 20
9.25977
 11
23.2581
 21
9.37723
  0
LINE
  8
0
 10
23.2581
 20
9.37723
 11
23.3138
 21
9.48167
  0
LINE
  8
0
 10
23.3138
 20
9.48167
 11
23.3917
 21
9.5731
  0
LINE
  8
0
 10
23.3917
 20
9.5731
 11
23.4867
 21
9.64743
  0
LINE
  8
0
 10
23.4867
 20
9.64743
 11
23.5933
 21
9.70052
  0
LINE
  8
0
 10
23.5933
 20
9.70052
 11
23.7117
 21
9.73236
  0
LINE
  8
0
 10
23.7117
 20
9.73236
 11
23.8419
 21
9.74298
  0
LINE
  8
0
 10
23.8419
 20
9.74298
 11
23.8883
 21
9.7422
  0
LINE
  8
0
 10
23.8883
 20
9.7422
 11
23.9376
 21
9.7399
  0
LINE
  8
0
 10
23.9376
 20
9.7399
 11
23.9899
 21
9.73605
  0
LINE
  8
0
 10
23.9899
 20
9.73605
 11
24.0452
 21
9.73067
  0
LINE
  8
0
 10
24.0452
 20
9.73067
 11
24.0993
 21
9.72372
  0
LINE
  8
0
 10
24.0993
 20
9.72372
 11
24.1479
 21
9.71526
  0
LINE
  8
0
 10
24.1479
 20
9.71526
 11
24.1912
 21
9.70525
  0
LINE
  8
0
 10
24.1912
 20
9.70525
 11
24.229
 21
9.6937
  0
LINE
  8
0
 10
24.229
 20
9.6937
 11
24.229
 21
10.5266
  0
LINE
  8
0
 10
24.229
 20
10.5266
 11
24.1611
 21
10.5409
  0
LINE
  8
0
 10
24.1611
 20
10.5409
 11
24.0922
 21
10.5512
  0
LINE
  8
0
 10
24.0922
 20
10.5512
 11
24.0223
 21
10.5574
  0
LINE
  8
0
 10
24.0223
 20
10.5574
 11
23.9513
 21
10.5594
  0
LINE
  8
0
 10
23.9513
 20
10.5594
 11
23.8262
 21
10.5502
  0
LINE
  8
0
 10
23.8262
 20
10.5502
 11
23.709
 21
10.5225
  0
LINE
  8
0
 10
23.709
 20
10.5225
 11
23.5997
 21
10.4762
  0
LINE
  8
0
 10
23.5997
 20
10.4762
 11
23.4983
 21
10.4115
  0
LINE
  8
0
 10
23.4983
 20
10.4115
 11
23.4078
 21
10.3279
  0
LINE
  8
0
 10
23.4078
 20
10.3279
 11
23.3311
 21
10.2252
  0
LINE
  8
0
 10
23.3311
 20
10.2252
 11
23.2682
 21
10.1033
  0
LINE
  8
0
 10
23.2682
 20
10.1033
 11
23.2193
 21
9.96219
  0
LINE
  8
0
 10
23.2193
 20
9.96219
 11
23.1856
 21
9.96219
  0
LINE
  8
0
 10
23.1856
 20
9.96219
 11
23.1856
 21
10.5211
  0
LINE
  8
0
 10
23.1856
 20
10.5211
 11
22.2348
 21
10.5211
  0
LINE
  8
0
 10
22.2348
 20
10.5211
 11
22.2348
 21
7.45805
  0
LINE
  8
0
 10
22.2348
 20
7.45805
 11
23.2136
 21
7.45805
  0
LINE
  8
0
 10
23.2136
 20
7.45805
 11
23.2136
 21
9.12929
  0
LINE
  8
0
 10
48.7399
 20
7.41295
 11
48.9592
 21
7.45018
  0
LINE
  8
0
 10
48.9592
 20
7.45018
 11
49.1613
 21
7.51225
  0
LINE
  8
0
 10
49.1613
 20
7.51225
 11
49.3459
 21
7.59914
  0
LINE
  8
0
 10
49.3459
 20
7.59914
 11
49.5118
 21
7.70822
  0
LINE
  8
0
 10
49.5118
 20
7.70822
 11
49.6573
 21
7.83681
  0
LINE
  8
0
 10
49.6573
 20
7.83681
 11
49.7824
 21
7.98492
  0
LINE
  8
0
 10
49.7824
 20
7.98492
 11
49.8872
 21
8.15256
  0
LINE
  8
0
 10
49.8872
 20
8.15256
 11
49.9701
 21
8.33725
  0
LINE
  8
0
 10
49.9701
 20
8.33725
 11
50.0292
 21
8.53648
  0
LINE
  8
0
 10
50.0292
 20
8.53648
 11
50.0647
 21
8.75026
  0
LINE
  8
0
 10
50.0647
 20
8.75026
 11
50.0766
 21
8.97859
  0
LINE
  8
0
 10
50.0766
 20
8.97859
 11
50.0647
 21
9.20703
  0
LINE
  8
0
 10
50.0647
 20
9.20703
 11
50.0292
 21
9.42108
  0
LINE
  8
0
 10
50.0292
 20
9.42108
 11
49.9701
 21
9.62073
  0
LINE
  8
0
 10
49.9701
 20
9.62073
 11
49.8872
 21
9.806
  0
LINE
  8
0
 10
49.8872
 20
9.806
 11
49.7824
 21
9.97423
  0
LINE
  8
0
 10
49.7824
 20
9.97423
 11
49.6573
 21
10.1228
  0
LINE
  8
0
 10
49.6573
 20
10.1228
 11
49.5118
 21
10.2516
  0
LINE
  8
0
 10
49.5118
 20
10.2516
 11
49.3459
 21
10.3608
  0
LINE
  8
0
 10
49.3459
 20
10.3608
 11
49.1613
 21
10.4477
  0
LINE
  8
0
 10
49.1613
 20
10.4477
 11
48.9592
 21
10.5098
  0
LINE
  8
0
 10
48.9592
 20
10.5098
 11
48.7399
 21
10.547
  0
LINE
  8
0
 10
48.7399
 20
10.547
 11
48.5031
 21
10.5594
  0
LINE
  8
0
 10
48.5031
 20
10.5594
 11
48.2663
 21
10.547
  0
LINE
  8
0
 10
48.2663
 20
10.547
 11
48.0466
 21
10.5098
  0
LINE
  8
0
 10
48.0466
 20
10.5098
 11
47.8442
 21
10.4477
  0
LINE
  8
0
 10
47.8442
 20
10.4477
 11
47.6589
 21
10.3608
  0
LINE
  8
0
 10
47.6589
 20
10.3608
 11
47.4924
 21
10.2516
  0
LINE
  8
0
 10
47.4924
 20
10.2516
 11
47.3465
 21
10.1228
  0
LINE
  8
0
 10
47.3465
 20
10.1228
 11
47.2211
 21
9.97423
  0
LINE
  8
0
 10
47.2211
 20
9.97423
 11
47.1161
 21
9.806
  0
LINE
  8
0
 10
47.1161
 20
9.806
 11
47.0333
 21
9.62073
  0
LINE
  8
0
 10
47.0333
 20
9.62073
 11
46.9742
 21
9.42108
  0
LINE
  8
0
 10
46.9742
 20
9.42108
 11
46.9387
 21
9.20703
  0
LINE
  8
0
 10
46.9387
 20
9.20703
 11
46.9268
 21
8.97859
  0
LINE
  8
0
 10
46.9268
 20
8.97859
 11
46.9387
 21
8.75026
  0
LINE
  8
0
 10
46.9387
 20
8.75026
 11
46.9742
 21
8.53648
  0
LINE
  8
0
 10
46.9742
 20
8.53648
 11
47.0333
 21
8.33725
  0
LINE
  8
0
 10
47.0333
 20
8.33725
 11
47.1161
 21
8.15256
  0
LINE
  8
0
 10
47.1161
 20
8.15256
 11
47.2211
 21
7.98492
  0
LINE
  8
0
 10
47.2211
 20
7.98492
 11
47.3465
 21
7.83681
  0
LINE
  8
0
 10
47.3465
 20
7.83681
 11
47.4924
 21
7.70822
  0
LINE
  8
0
 10
47.4924
 20
7.70822
 11
47.6589
 21
7.59914
  0
LINE
  8
0
 10
47.6589
 20
7.59914
 11
47.8442
 21
7.51225
  0
LINE
  8
0
 10
47.8442
 20
7.51225
 11
48.0466
 21
7.45018
  0
LINE
  8
0
 10
48.0466
 20
7.45018
 11
48.2663
 21
7.41295
  0
LINE
  8
0
 10
48.2663
 20
7.41295
 11
48.5031
 21
7.40053
  0
LINE
  8
0
 10
48.5031
 20
7.40053
 11
48.7399
 21
7.41295
  0
LINE
  8
0
 10
48.3711
 20
8.14668
 11
48.2556
 21
8.1906
  0
LINE
  8
0
 10
48.2556
 20
8.1906
 11
48.1565
 21
8.26379
  0
LINE
  8
0
 10
48.1565
 20
8.26379
 11
48.074
 21
8.36627
  0
LINE
  8
0
 10
48.074
 20
8.36627
 11
48.009
 21
8.49274
  0
LINE
  8
0
 10
48.009
 20
8.49274
 11
47.9625
 21
8.63786
  0
LINE
  8
0
 10
47.9625
 20
8.63786
 11
47.9346
 21
8.80165
  0
LINE
  8
0
 10
47.9346
 20
8.80165
 11
47.9254
 21
8.98409
  0
LINE
  8
0
 10
47.9254
 20
8.98409
 11
47.9346
 21
9.16628
  0
LINE
  8
0
 10
47.9346
 20
9.16628
 11
47.9625
 21
9.32928
  0
LINE
  8
0
 10
47.9625
 20
9.32928
 11
48.009
 21
9.47313
  0
LINE
  8
0
 10
48.009
 20
9.47313
 11
48.074
 21
9.59779
  0
LINE
  8
0
 10
48.074
 20
9.59779
 11
48.1565
 21
9.69847
  0
LINE
  8
0
 10
48.1565
 20
9.69847
 11
48.2556
 21
9.7704
  0
LINE
  8
0
 10
48.2556
 20
9.7704
 11
48.3711
 21
9.81355
  0
LINE
  8
0
 10
48.3711
 20
9.81355
 11
48.5031
 21
9.82794
  0
LINE
  8
0
 10
48.5031
 20
9.82794
 11
48.6351
 21
9.81355
  0
LINE
  8
0
 10
48.6351
 20
9.81355
 11
48.7506
 21
9.7704
  0
LINE
  8
0
 10
48.7506
 20
9.7704
 11
48.8497
 21
9.69847
  0
LINE
  8
0
 10
48.8497
 20
9.69847
 11
48.9322
 21
9.59779
  0
LINE
  8
0
 10
48.9322
 20
9.59779
 11
48.9973
 21
9.47313
  0
LINE
  8
0
 10
48.9973
 20
9.47313
 11
49.0437
 21
9.32928
  0
LINE
  8
0
 10
49.0437
 20
9.32928
 11
49.0716
 21
9.16628
  0
LINE
  8
0
 10
49.0716
 20
9.16628
 11
49.0809
 21
8.98409
  0
LINE
  8
0
 10
49.0809
 20
8.98409
 11
49.0716
 21
8.80165
  0
LINE
  8
0
 10
49.0716
 20
8.80165
 11
49.0437
 21
8.63786
  0
LINE
  8
0
 10
49.0437
 20
8.63786
 11
48.9973
 21
8.49274
  0
LINE
  8
0
 10
48.9973
 20
8.49274
 11
48.9322
 21
8.36627
  0
LINE
  8
0
 10
48.9322
 20
8.36627
 11
48.8497
 21
8.26379
  0
LINE
  8
0
 10
48.8497
 20
8.26379
 11
48.7506
 21
8.1906
  0
LINE
  8
0
 10
48.7506
 20
8.1906
 11
48.6351
 21
8.14668
  0
LINE
  8
0
 10
48.6351
 20
8.14668
 11
48.5031
 21
8.13203
  0
LINE
  8
0
 10
48.5031
 20
8.13203
 11
48.3711
 21
8.14668
  0
LINE
  8
0
 10
18.4575
 20
7.41527
 11
18.7051
 21
7.45944
  0
LINE
  8
0
 10
18.7051
 20
7.45944
 11
18.928
 21
7.53307
  0
LINE
  8
0
 10
18.928
 20
7.53307
 11
19.1261
 21
7.63614
  0
LINE
  8
0
 10
19.1261
 20
7.63614
 11
19.2961
 21
7.76405
  0
LINE
  8
0
 10
19.2961
 20
7.76405
 11
19.4343
 21
7.91217
  0
LINE
  8
0
 10
19.4343
 20
7.91217
 11
19.5408
 21
8.08049
  0
LINE
  8
0
 10
19.5408
 20
8.08049
 11
19.6156
 21
8.26903
  0
LINE
  8
0
 10
19.6156
 20
8.26903
 11
18.7433
 21
8.40874
  0
LINE
  8
0
 10
18.7433
 20
8.40874
 11
18.7086
 21
8.33656
  0
LINE
  8
0
 10
18.7086
 20
8.33656
 11
18.6634
 21
8.27347
  0
LINE
  8
0
 10
18.6634
 20
8.27347
 11
18.6076
 21
8.21945
  0
LINE
  8
0
 10
18.6076
 20
8.21945
 11
18.5414
 21
8.1745
  0
LINE
  8
0
 10
18.5414
 20
8.1745
 11
18.4665
 21
8.13914
  0
LINE
  8
0
 10
18.4665
 20
8.13914
 11
18.385
 21
8.11389
  0
LINE
  8
0
 10
18.385
 20
8.11389
 11
18.2968
 21
8.09875
  0
LINE
  8
0
 10
18.2968
 20
8.09875
 11
18.202
 21
8.0937
  0
LINE
  8
0
 10
18.202
 20
8.0937
 11
18.0697
 21
8.10405
  0
LINE
  8
0
 10
18.0697
 20
8.10405
 11
17.9506
 21
8.13513
  0
LINE
  8
0
 10
17.9506
 20
8.13513
 11
17.8447
 21
8.1869
  0
LINE
  8
0
 10
17.8447
 20
8.1869
 11
17.7518
 21
8.25941
  0
LINE
  8
0
 10
17.7518
 20
8.25941
 11
17.6755
 21
8.35265
  0
LINE
  8
0
 10
17.6755
 20
8.35265
 11
17.619
 21
8.46661
  0
LINE
  8
0
 10
17.619
 20
8.46661
 11
17.5822
 21
8.60129
  0
LINE
  8
0
 10
17.5822
 20
8.60129
 11
17.5653
 21
8.75668
  0
LINE
  8
0
 10
17.5653
 20
8.75668
 11
19.6604
 21
8.75668
  0
LINE
  8
0
 10
19.6604
 20
8.75668
 11
19.6604
 21
8.99779
  0
LINE
  8
0
 10
19.6604
 20
8.99779
 11
19.6483
 21
9.24016
  0
LINE
  8
0
 10
19.6483
 20
9.24016
 11
19.6117
 21
9.4632
  0
LINE
  8
0
 10
19.6117
 20
9.4632
 11
19.5508
 21
9.66687
  0
LINE
  8
0
 10
19.5508
 20
9.66687
 11
19.4655
 21
9.85121
  0
LINE
  8
0
 10
19.4655
 20
9.85121
 11
19.3589
 21
10.0153
  0
LINE
  8
0
 10
19.3589
 20
10.0153
 11
19.2341
 21
10.1581
  0
LINE
  8
0
 10
19.2341
 20
10.1581
 11
19.0911
 21
10.2796
  0
LINE
  8
0
 10
19.0911
 20
10.2796
 11
18.9298
 21
10.38
  0
LINE
  8
0
 10
18.9298
 20
10.38
 11
18.7532
 21
10.4585
  0
LINE
  8
0
 10
18.7532
 20
10.4585
 11
18.5641
 21
10.5146
  0
LINE
  8
0
 10
18.5641
 20
10.5146
 11
18.3626
 21
10.5482
  0
LINE
  8
0
 10
18.3626
 20
10.5482
 11
18.1487
 21
10.5594
  0
LINE
  8
0
 10
18.1487
 20
10.5594
 11
17.9208
 21
10.547
  0
LINE
  8
0
 10
17.9208
 20
10.547
 11
17.7084
 21
10.5098
  0
LINE
  8
0
 10
17.7084
 20
10.5098
 11
17.5113
 21
10.4477
  0
LINE
  8
0
 10
17.5113
 20
10.4477
 11
17.3297
 21
10.3608
  0
LINE
  8
0
 10
17.3297
 20
10.3608
 11
17.1657
 21
10.2516
  0
LINE
  8
0
 10
17.1657
 20
10.2516
 11
17.0215
 21
10.1228
  0
LINE
  8
0
 10
17.0215
 20
10.1228
 11
16.8972
 21
9.97423
  0
LINE
  8
0
 10
16.8972
 20
9.97423
 11
16.7926
 21
9.806
  0
LINE
  8
0
 10
16.7926
 20
9.806
 11
16.7098
 21
9.62073
  0
LINE
  8
0
 10
16.7098
 20
9.62073
 11
16.6506
 21
9.42108
  0
LINE
  8
0
 10
16.6506
 20
9.42108
 11
16.6151
 21
9.20703
  0
LINE
  8
0
 10
16.6151
 20
9.20703
 11
16.6033
 21
8.97859
  0
LINE
  8
0
 10
16.6033
 20
8.97859
 11
16.6297
 21
8.62988
  0
LINE
  8
0
 10
16.6297
 20
8.62988
 11
16.7088
 21
8.32074
  0
LINE
  8
0
 10
16.7088
 20
8.32074
 11
16.8407
 21
8.05113
  0
LINE
  8
0
 10
16.8407
 20
8.05113
 11
17.0254
 21
7.82109
  0
LINE
  8
0
 10
17.0254
 20
7.82109
 11
17.2562
 21
7.6371
  0
LINE
  8
0
 10
17.2562
 20
7.6371
 11
17.5264
 21
7.50568
  0
LINE
  8
0
 10
17.5264
 20
7.50568
 11
17.8361
 21
7.42682
  0
LINE
  8
0
 10
17.8361
 20
7.42682
 11
18.1852
 21
7.40053
  0
LINE
  8
0
 10
18.1852
 20
7.40053
 11
18.4575
 21
7.41527
  0
LINE
  8
0
 10
17.5709
 20
9.31285
 11
17.5926
 21
9.43365
  0
LINE
  8
0
 10
17.5926
 20
9.43365
 11
17.6295
 21
9.54128
  0
LINE
  8
0
 10
17.6295
 20
9.54128
 11
17.6816
 21
9.63571
  0
LINE
  8
0
 10
17.6816
 20
9.63571
 11
17.749
 21
9.71696
  0
LINE
  8
0
 10
17.749
 20
9.71696
 11
17.8308
 21
9.78229
  0
LINE
  8
0
 10
17.8308
 20
9.78229
 11
17.9261
 21
9.82895
  0
LINE
  8
0
 10
17.9261
 20
9.82895
 11
18.0348
 21
9.85695
  0
LINE
  8
0
 10
18.0348
 20
9.85695
 11
18.1571
 21
9.86627
  0
LINE
  8
0
 10
18.1571
 20
9.86627
 11
18.2779
 21
9.85712
  0
LINE
  8
0
 10
18.2779
 20
9.85712
 11
18.385
 21
9.82964
  0
LINE
  8
0
 10
18.385
 20
9.82964
 11
18.4784
 21
9.78383
  0
LINE
  8
0
 10
18.4784
 20
9.78383
 11
18.5582
 21
9.71971
  0
LINE
  8
0
 10
18.5582
 20
9.71971
 11
18.6237
 21
9.63931
  0
LINE
  8
0
 10
18.6237
 20
9.63931
 11
18.6746
 21
9.54471
  0
LINE
  8
0
 10
18.6746
 20
9.54471
 11
18.7107
 21
9.4359
  0
LINE
  8
0
 10
18.7107
 20
9.4359
 11
18.7321
 21
9.31285
  0
LINE
  8
0
 10
18.7321
 20
9.31285
 11
17.5709
 21
9.31285
  0
LINE
  8
0
 10
25.5829
 20
10.5211
 11
24.604
 21
10.5211
  0
LINE
  8
0
 10
24.604
 20
10.5211
 11
24.604
 21
7.45805
  0
LINE
  8
0
 10
24.604
 20
7.45805
 11
25.5829
 21
7.45805
  0
LINE
  8
0
 10
25.5829
 20
7.45805
 11
25.5829
 21
10.5211
  0
LINE
  8
0
 10
9.42647
 20
1.4286
 11
9.48474
 21
1.49341
  0
LINE
  8
0
 10
9.48474
 20
1.49341
 11
9.53957
 21
1.55925
  0
LINE
  8
0
 10
9.53957
 20
1.55925
 11
9.59096
 21
1.62634
  0
LINE
  8
0
 10
9.59096
 20
1.62634
 11
9.63896
 21
1.69484
  0
LINE
  8
0
 10
9.63896
 20
1.69484
 11
9.68361
 21
1.76494
  0
LINE
  8
0
 10
9.68361
 20
1.76494
 11
9.72495
 21
1.83679
  0
LINE
  8
0
 10
9.72495
 20
1.83679
 11
9.763
 21
1.91058
  0
LINE
  8
0
 10
9.763
 20
1.91058
 11
9.79781
 21
1.9865
  0
LINE
  8
0
 10
9.79781
 20
1.9865
 11
9.82941
 21
2.0647
  0
LINE
  8
0
 10
9.82941
 20
2.0647
 11
9.85782
 21
2.14537
  0
LINE
  8
0
 10
9.85782
 20
2.14537
 11
9.8831
 21
2.2287
  0
LINE
  8
0
 10
9.8831
 20
2.2287
 11
9.90527
 21
2.31485
  0
LINE
  8
0
 10
9.90527
 20
2.31485
 11
9.92436
 21
2.40399
  0
LINE
  8
0
 10
9.92436
 20
2.40399
 11
9.94043
 21
2.49632
  0
LINE
  8
0
 10
9.94043
 20
2.49632
 11
9.95349
 21
2.592
  0
LINE
  8
0
 10
9.95349
 20
2.592
 11
9.96359
 21
2.69119
  0
LINE
  8
0
 10
9.96359
 20
2.69119
 11
9.97076
 21
2.79411
  0
LINE
  8
0
 10
9.97076
 20
2.79411
 11
9.97505
 21
2.90091
  0
LINE
  8
0
 10
9.97505
 20
2.90091
 11
9.97646
 21
3.01176
  0
LINE
  8
0
 10
9.97646
 20
3.01176
 11
9.97646
 21
10.3059
  0
LINE
  8
0
 10
9.97646
 20
10.3059
 11
7.01176
 21
8.70587
  0
LINE
  8
0
 10
7.01176
 20
8.70587
 11
7.01176
 21
2.91763
  0
LINE
  8
0
 10
7.01176
 20
2.91763
 11
9.3647
 21
1.3647
  0
LINE
  8
0
 10
9.3647
 20
1.3647
 11
9.42647
 21
1.4286
  0
LINE
  8
0
 10
42.5287
 20
7.4097
 11
42.6275
 21
7.43718
  0
LINE
  8
0
 10
42.6275
 20
7.43718
 11
42.7173
 21
7.48297
  0
LINE
  8
0
 10
42.7173
 20
7.48297
 11
42.7982
 21
7.5471
  0
LINE
  8
0
 10
42.7982
 20
7.5471
 11
42.8651
 21
7.62476
  0
LINE
  8
0
 10
42.8651
 20
7.62476
 11
42.9129
 21
7.71114
  0
LINE
  8
0
 10
42.9129
 20
7.71114
 11
42.9415
 21
7.80627
  0
LINE
  8
0
 10
42.9415
 20
7.80627
 11
42.9511
 21
7.91013
  0
LINE
  8
0
 10
42.9511
 20
7.91013
 11
42.9415
 21
8.01517
  0
LINE
  8
0
 10
42.9415
 20
8.01517
 11
42.9129
 21
8.11115
  0
LINE
  8
0
 10
42.9129
 20
8.11115
 11
42.8651
 21
8.19804
  0
LINE
  8
0
 10
42.8651
 20
8.19804
 11
42.7982
 21
8.27586
  0
LINE
  8
0
 10
42.7982
 20
8.27586
 11
42.7173
 21
8.34
  0
LINE
  8
0
 10
42.7173
 20
8.34
 11
42.6275
 21
8.38582
  0
LINE
  8
0
 10
42.6275
 20
8.38582
 11
42.5287
 21
8.4133
  0
LINE
  8
0
 10
42.5287
 20
8.4133
 11
42.421
 21
8.42247
  0
LINE
  8
0
 10
42.421
 20
8.42247
 11
42.3133
 21
8.4133
  0
LINE
  8
0
 10
42.3133
 20
8.4133
 11
42.2145
 21
8.38582
  0
LINE
  8
0
 10
42.2145
 20
8.38582
 11
42.1247
 21
8.34
  0
LINE
  8
0
 10
42.1247
 20
8.34
 11
42.0438
 21
8.27586
  0
LINE
  8
0
 10
42.0438
 20
8.27586
 11
41.9769
 21
8.19804
  0
LINE
  8
0
 10
41.9769
 20
8.19804
 11
41.9291
 21
8.11115
  0
LINE
  8
0
 10
41.9291
 20
8.11115
 11
41.9005
 21
8.01517
  0
LINE
  8
0
 10
41.9005
 20
8.01517
 11
41.8909
 21
7.91013
  0
LINE
  8
0
 10
41.8909
 20
7.91013
 11
41.9005
 21
7.80627
  0
LINE
  8
0
 10
41.9005
 20
7.80627
 11
41.9291
 21
7.71114
  0
LINE
  8
0
 10
41.9291
 20
7.71114
 11
41.9769
 21
7.62476
  0
LINE
  8
0
 10
41.9769
 20
7.62476
 11
42.0438
 21
7.5471
  0
LINE
  8
0
 10
42.0438
 20
7.5471
 11
42.1247
 21
7.48297
  0
LINE
  8
0
 10
42.1247
 20
7.48297
 11
42.2145
 21
7.43718
  0
LINE
  8
0
 10
42.2145
 20
7.43718
 11
42.3133
 21
7.4097
  0
LINE
  8
0
 10
42.3133
 20
7.4097
 11
42.421
 21
7.40053
  0
LINE
  8
0
 10
42.421
 20
7.40053
 11
42.5287
 21
7.4097
  0
LINE
  8
0
 10
75.4795
 20
1.81268
 11
75.5403
 21
1.81525
  0
LINE
  8
0
 10
75.5403
 20
1.81525
 11
75.6028
 21
1.81952
  0
LINE
  8
0
 10
75.6028
 20
1.81952
 11
75.6671
 21
1.82549
  0
LINE
  8
0
 10
75.6671
 20
1.82549
 11
75.733
 21
1.83389
  0
LINE
  8
0
 10
75.733
 20
1.83389
 11
75.8
 21
1.84543
  0
LINE
  8
0
 10
75.8
 20
1.84543
 11
75.8681
 21
1.86008
  0
LINE
  8
0
 10
75.8681
 20
1.86008
 11
75.9375
 21
1.87787
  0
LINE
  8
0
 10
75.9375
 20
1.87787
 11
75.8308
 21
2.45622
  0
LINE
  8
0
 10
75.8308
 20
2.45622
 11
75.8114
 21
2.45261
  0
LINE
  8
0
 10
75.8114
 20
2.45261
 11
75.7866
 21
2.44855
  0
LINE
  8
0
 10
75.7866
 20
2.44855
 11
75.7563
 21
2.44406
  0
LINE
  8
0
 10
75.7563
 20
2.44406
 11
75.7205
 21
2.43913
  0
LINE
  8
0
 10
75.7205
 20
2.43913
 11
75.6841
 21
2.43465
  0
LINE
  8
0
 10
75.6841
 20
2.43465
 11
75.652
 21
2.43146
  0
LINE
  8
0
 10
75.652
 20
2.43146
 11
75.6242
 21
2.42953
  0
LINE
  8
0
 10
75.6242
 20
2.42953
 11
75.6007
 21
2.42889
  0
LINE
  8
0
 10
75.6007
 20
2.42889
 11
75.5084
 21
2.44127
  0
LINE
  8
0
 10
75.5084
 20
2.44127
 11
75.4424
 21
2.47842
  0
LINE
  8
0
 10
75.4424
 20
2.47842
 11
75.4028
 21
2.54033
  0
LINE
  8
0
 10
75.4028
 20
2.54033
 11
75.3897
 21
2.627
  0
LINE
  8
0
 10
75.3897
 20
2.627
 11
75.3897
 21
3.80424
  0
LINE
  8
0
 10
75.3897
 20
3.80424
 11
75.8664
 21
3.80424
  0
LINE
  8
0
 10
75.8664
 20
3.80424
 11
75.8664
 21
4.394
  0
LINE
  8
0
 10
75.8664
 20
4.394
 11
75.3897
 21
4.394
  0
LINE
  8
0
 10
75.3897
 20
4.394
 11
75.3897
 21
4.99971
  0
LINE
  8
0
 10
75.3897
 20
4.99971
 11
74.562
 21
4.99971
  0
LINE
  8
0
 10
74.562
 20
4.99971
 11
74.562
 21
4.394
  0
LINE
  8
0
 10
74.562
 20
4.394
 11
73.7336
 21
4.394
  0
LINE
  8
0
 10
73.7336
 20
4.394
 11
73.7336
 21
4.53746
  0
LINE
  8
0
 10
73.7336
 20
4.53746
 11
73.7372
 21
4.59033
  0
LINE
  8
0
 10
73.7372
 20
4.59033
 11
73.7481
 21
4.63736
  0
LINE
  8
0
 10
73.7481
 20
4.63736
 11
73.7662
 21
4.67856
  0
LINE
  8
0
 10
73.7662
 20
4.67856
 11
73.7916
 21
4.7139
  0
LINE
  8
0
 10
73.7916
 20
4.7139
 11
73.8263
 21
4.74229
  0
LINE
  8
0
 10
73.8263
 20
4.74229
 11
73.872
 21
4.76257
  0
LINE
  8
0
 10
73.872
 20
4.76257
 11
73.9288
 21
4.77475
  0
LINE
  8
0
 10
73.9288
 20
4.77475
 11
73.9968
 21
4.77881
  0
LINE
  8
0
 10
73.9968
 20
4.77881
 11
74.0288
 21
4.77817
  0
LINE
  8
0
 10
74.0288
 20
4.77817
 11
74.0608
 21
4.77625
  0
LINE
  8
0
 10
74.0608
 20
4.77625
 11
74.0928
 21
4.77304
  0
LINE
  8
0
 10
74.0928
 20
4.77304
 11
74.1249
 21
4.76857
  0
LINE
  8
0
 10
74.1249
 20
4.76857
 11
74.1558
 21
4.76337
  0
LINE
  8
0
 10
74.1558
 20
4.76337
 11
74.1848
 21
4.75804
  0
LINE
  8
0
 10
74.1848
 20
4.75804
 11
74.2116
 21
4.75256
  0
LINE
  8
0
 10
74.2116
 20
4.75256
 11
74.2363
 21
4.74695
  0
LINE
  8
0
 10
74.2363
 20
4.74695
 11
74.3691
 21
5.32759
  0
LINE
  8
0
 10
74.3691
 20
5.32759
 11
74.3273
 21
5.3382
  0
LINE
  8
0
 10
74.3273
 20
5.3382
 11
74.2755
 21
5.3495
  0
LINE
  8
0
 10
74.2755
 20
5.3495
 11
74.2135
 21
5.36153
  0
LINE
  8
0
 10
74.2135
 20
5.36153
 11
74.1415
 21
5.37425
  0
LINE
  8
0
 10
74.1415
 20
5.37425
 11
74.0631
 21
5.38571
  0
LINE
  8
0
 10
74.0631
 20
5.38571
 11
73.982
 21
5.39389
  0
LINE
  8
0
 10
73.982
 20
5.39389
 11
73.8982
 21
5.3988
  0
LINE
  8
0
 10
73.8982
 20
5.3988
 11
73.8118
 21
5.40044
  0
LINE
  8
0
 10
73.8118
 20
5.40044
 11
73.6218
 21
5.38692
  0
LINE
  8
0
 10
73.6218
 20
5.38692
 11
73.4502
 21
5.34636
  0
LINE
  8
0
 10
73.4502
 20
5.34636
 11
73.2969
 21
5.27875
  0
LINE
  8
0
 10
73.2969
 20
5.27875
 11
73.162
 21
5.18411
  0
LINE
  8
0
 10
73.162
 20
5.18411
 11
73.052
 21
5.06215
  0
LINE
  8
0
 10
73.052
 20
5.06215
 11
72.9735
 21
4.91258
  0
LINE
  8
0
 10
72.9735
 20
4.91258
 11
72.9264
 21
4.73541
  0
LINE
  8
0
 10
72.9264
 20
4.73541
 11
72.9107
 21
4.53061
  0
LINE
  8
0
 10
72.9107
 20
4.53061
 11
72.9107
 21
4.394
  0
LINE
  8
0
 10
72.9107
 20
4.394
 11
72.4648
 21
4.394
  0
LINE
  8
0
 10
72.4648
 20
4.394
 11
72.4648
 21
3.80424
  0
LINE
  8
0
 10
72.4648
 20
3.80424
 11
72.9107
 21
3.80424
  0
LINE
  8
0
 10
72.9107
 20
3.80424
 11
72.9107
 21
1.84825
  0
LINE
  8
0
 10
72.9107
 20
1.84825
 11
73.7336
 21
1.84825
  0
LINE
  8
0
 10
73.7336
 20
1.84825
 11
73.7336
 21
3.80424
  0
LINE
  8
0
 10
73.7336
 20
3.80424
 11
74.562
 21
3.80424
  0
LINE
  8
0
 10
74.562
 20
3.80424
 11
74.562
 21
2.55641
  0
LINE
  8
0
 10
74.562
 20
2.55641
 11
74.5756
 21
2.38513
  0
LINE
  8
0
 10
74.5756
 20
2.38513
 11
74.6165
 21
2.23563
  0
LINE
  8
0
 10
74.6165
 20
2.23563
 11
74.6847
 21
2.10789
  0
LINE
  8
0
 10
74.6847
 20
2.10789
 11
74.7802
 21
2.00194
  0
LINE
  8
0
 10
74.7802
 20
2.00194
 11
74.902
 21
1.91876
  0
LINE
  8
0
 10
74.902
 20
1.91876
 11
75.0494
 21
1.85934
  0
LINE
  8
0
 10
75.0494
 20
1.85934
 11
75.2222
 21
1.82372
  0
LINE
  8
0
 10
75.2222
 20
1.82372
 11
75.4205
 21
1.81183
  0
LINE
  8
0
 10
75.4205
 20
1.81183
 11
75.4795
 21
1.81268
  0
LINE
  8
0
 10
31.3004
 20
1.81354
 11
31.5078
 21
1.84599
  0
LINE
  8
0
 10
31.5078
 20
1.84599
 11
31.7024
 21
1.90007
  0
LINE
  8
0
 10
31.7024
 20
1.90007
 11
31.8843
 21
1.97578
  0
LINE
  8
0
 10
31.8843
 20
1.97578
 11
32.0504
 21
2.07178
  0
LINE
  8
0
 10
32.0504
 20
2.07178
 11
32.1976
 21
2.18669
  0
LINE
  8
0
 10
32.1976
 20
2.18669
 11
32.326
 21
2.32054
  0
LINE
  8
0
 10
32.326
 20
2.32054
 11
32.4356
 21
2.47331
  0
LINE
  8
0
 10
32.4356
 20
2.47331
 11
32.5233
 21
2.6436
  0
LINE
  8
0
 10
32.5233
 20
2.6436
 11
32.586
 21
2.82996
  0
LINE
  8
0
 10
32.586
 20
2.82996
 11
32.6235
 21
3.03239
  0
LINE
  8
0
 10
32.6235
 20
3.03239
 11
32.636
 21
3.25092
  0
LINE
  8
0
 10
32.636
 20
3.25092
 11
32.636
 21
3.6972
  0
LINE
  8
0
 10
32.636
 20
3.6972
 11
31.1206
 21
3.6972
  0
LINE
  8
0
 10
31.1206
 20
3.6972
 11
31.1206
 21
3.10747
  0
LINE
  8
0
 10
31.1206
 20
3.10747
 11
31.8273
 21
3.10747
  0
LINE
  8
0
 10
31.8273
 20
3.10747
 11
31.8123
 21
2.97682
  0
LINE
  8
0
 10
31.8123
 20
2.97682
 11
31.7743
 21
2.86041
  0
LINE
  8
0
 10
31.7743
 20
2.86041
 11
31.7133
 21
2.75822
  0
LINE
  8
0
 10
31.7133
 20
2.75822
 11
31.6293
 21
2.67027
  0
LINE
  8
0
 10
31.6293
 20
2.67027
 11
31.5239
 21
2.59955
  0
LINE
  8
0
 10
31.5239
 20
2.59955
 11
31.3984
 21
2.54903
  0
LINE
  8
0
 10
31.3984
 20
2.54903
 11
31.2529
 21
2.51871
  0
LINE
  8
0
 10
31.2529
 20
2.51871
 11
31.0875
 21
2.50861
  0
LINE
  8
0
 10
31.0875
 20
2.50861
 11
30.8982
 21
2.5256
  0
LINE
  8
0
 10
30.8982
 20
2.5256
 11
30.7311
 21
2.57663
  0
LINE
  8
0
 10
30.7311
 20
2.57663
 11
30.5863
 21
2.66167
  0
LINE
  8
0
 10
30.5863
 20
2.66167
 11
30.4637
 21
2.7807
  0
LINE
  8
0
 10
30.4637
 20
2.7807
 11
30.3662
 21
2.93079
  0
LINE
  8
0
 10
30.3662
 20
2.93079
 11
30.2965
 21
3.10889
  0
LINE
  8
0
 10
30.2965
 20
3.10889
 11
30.2547
 21
3.31503
  0
LINE
  8
0
 10
30.2547
 20
3.31503
 11
30.2408
 21
3.54921
  0
LINE
  8
0
 10
30.2408
 20
3.54921
 11
30.2551
 21
3.78125
  0
LINE
  8
0
 10
30.2551
 20
3.78125
 11
30.298
 21
3.98555
  0
LINE
  8
0
 10
30.298
 20
3.98555
 11
30.3695
 21
4.16209
  0
LINE
  8
0
 10
30.3695
 20
4.16209
 11
30.4697
 21
4.31088
  0
LINE
  8
0
 10
30.4697
 20
4.31088
 11
30.5939
 21
4.42892
  0
LINE
  8
0
 10
30.5939
 20
4.42892
 11
30.7379
 21
4.51324
  0
LINE
  8
0
 10
30.7379
 20
4.51324
 11
30.9017
 21
4.56384
  0
LINE
  8
0
 10
30.9017
 20
4.56384
 11
31.0851
 21
4.5807
  0
LINE
  8
0
 10
31.0851
 20
4.5807
 11
31.211
 21
4.57338
  0
LINE
  8
0
 10
31.211
 20
4.57338
 11
31.3255
 21
4.55139
  0
LINE
  8
0
 10
31.3255
 20
4.55139
 11
31.4286
 21
4.51474
  0
LINE
  8
0
 10
31.4286
 20
4.51474
 11
31.5202
 21
4.46342
  0
LINE
  8
0
 10
31.5202
 20
4.46342
 11
31.5992
 21
4.3989
  0
LINE
  8
0
 10
31.5992
 20
4.3989
 11
31.664
 21
4.32254
  0
LINE
  8
0
 10
31.664
 20
4.32254
 11
31.7148
 21
4.23439
  0
LINE
  8
0
 10
31.7148
 20
4.23439
 11
31.7515
 21
4.13441
  0
LINE
  8
0
 10
31.7515
 20
4.13441
 11
32.5981
 21
4.13441
  0
LINE
  8
0
 10
32.5981
 20
4.13441
 11
32.5663
 21
4.29814
  0
LINE
  8
0
 10
32.5663
 20
4.29814
 11
32.5136
 21
4.45235
  0
LINE
  8
0
 10
32.5136
 20
4.45235
 11
32.44
 21
4.59702
  0
LINE
  8
0
 10
32.44
 20
4.59702
 11
32.3455
 21
4.73213
  0
LINE
  8
0
 10
32.3455
 20
4.73213
 11
32.2331
 21
4.85538
  0
LINE
  8
0
 10
32.2331
 20
4.85538
 11
32.1057
 21
4.9644
  0
LINE
  8
0
 10
32.1057
 20
4.9644
 11
31.9633
 21
5.05917
  0
LINE
  8
0
 10
31.9633
 20
5.05917
 11
31.806
 21
5.13972
  0
LINE
  8
0
 10
31.806
 20
5.13972
 11
31.6364
 21
5.20399
  0
LINE
  8
0
 10
31.6364
 20
5.20399
 11
31.4574
 21
5.24989
  0
LINE
  8
0
 10
31.4574
 20
5.24989
 11
31.2689
 21
5.27744
  0
LINE
  8
0
 10
31.2689
 20
5.27744
 11
31.0708
 21
5.28662
  0
LINE
  8
0
 10
31.0708
 20
5.28662
 11
30.8405
 21
5.27374
  0
LINE
  8
0
 10
30.8405
 20
5.27374
 11
30.6214
 21
5.23509
  0
LINE
  8
0
 10
30.6214
 20
5.23509
 11
30.4136
 21
5.17068
  0
LINE
  8
0
 10
30.4136
 20
5.17068
 11
30.2171
 21
5.08052
  0
LINE
  8
0
 10
30.2171
 20
5.08052
 11
30.0359
 21
4.96597
  0
LINE
  8
0
 10
30.0359
 20
4.96597
 11
29.8744
 21
4.82835
  0
LINE
  8
0
 10
29.8744
 20
4.82835
 11
29.7324
 21
4.66768
  0
LINE
  8
0
 10
29.7324
 20
4.66768
 11
29.61
 21
4.48395
  0
LINE
  8
0
 10
29.61
 20
4.48395
 11
29.5114
 21
4.27837
  0
LINE
  8
0
 10
29.5114
 20
4.27837
 11
29.441
 21
4.05214
  0
LINE
  8
0
 10
29.441
 20
4.05214
 11
29.3988
 21
3.8053
  0
LINE
  8
0
 10
29.3988
 20
3.8053
 11
29.3847
 21
3.53783
  0
LINE
  8
0
 10
29.3847
 20
3.53783
 11
29.398
 21
3.27937
  0
LINE
  8
0
 10
29.398
 20
3.27937
 11
29.438
 21
3.03914
  0
LINE
  8
0
 10
29.438
 20
3.03914
 11
29.5047
 21
2.81712
  0
LINE
  8
0
 10
29.5047
 20
2.81712
 11
29.5981
 21
2.61333
  0
LINE
  8
0
 10
29.5981
 20
2.61333
 11
29.7153
 21
2.42982
  0
LINE
  8
0
 10
29.7153
 20
2.42982
 11
29.8537
 21
2.26866
  0
LINE
  8
0
 10
29.8537
 20
2.26866
 11
30.013
 21
2.12984
  0
LINE
  8
0
 10
30.013
 20
2.12984
 11
30.1934
 21
2.01335
  0
LINE
  8
0
 10
30.1934
 20
2.01335
 11
30.392
 21
1.9212
  0
LINE
  8
0
 10
30.392
 20
1.9212
 11
30.606
 21
1.85538
  0
LINE
  8
0
 10
30.606
 20
1.85538
 11
30.8355
 21
1.81589
  0
LINE
  8
0
 10
30.8355
 20
1.81589
 11
31.0803
 21
1.80273
  0
LINE
  8
0
 10
31.0803
 20
1.80273
 11
31.3004
 21
1.81354
  0
LINE
  8
0
 10
37.0055
 20
1.83141
 11
37.2988
 21
1.91743
  0
LINE
  8
0
 10
37.2988
 20
1.91743
 11
37.5528
 21
2.06081
  0
LINE
  8
0
 10
37.5528
 20
2.06081
 11
37.7675
 21
2.26155
  0
LINE
  8
0
 10
37.7675
 20
2.26155
 11
37.9382
 21
2.51366
  0
LINE
  8
0
 10
37.9382
 20
2.51366
 11
38.0601
 21
2.81117
  0
LINE
  8
0
 10
38.0601
 20
2.81117
 11
38.1332
 21
3.15408
  0
LINE
  8
0
 10
38.1332
 20
3.15408
 11
38.1576
 21
3.54239
  0
LINE
  8
0
 10
38.1576
 20
3.54239
 11
38.1466
 21
3.80688
  0
LINE
  8
0
 10
38.1466
 20
3.80688
 11
38.1134
 21
4.05159
  0
LINE
  8
0
 10
38.1134
 20
4.05159
 11
38.0582
 21
4.27652
  0
LINE
  8
0
 10
38.0582
 20
4.27652
 11
37.9809
 21
4.48166
  0
LINE
  8
0
 10
37.9809
 20
4.48166
 11
37.8829
 21
4.66547
  0
LINE
  8
0
 10
37.8829
 20
4.66547
 11
37.7654
 21
4.82635
  0
LINE
  8
0
 10
37.7654
 20
4.82635
 11
37.6285
 21
4.96432
  0
LINE
  8
0
 10
37.6285
 20
4.96432
 11
37.4722
 21
5.07938
  0
LINE
  8
0
 10
37.4722
 20
5.07938
 11
37.2977
 21
5.17004
  0
LINE
  8
0
 10
37.2977
 20
5.17004
 11
37.1064
 21
5.23482
  0
LINE
  8
0
 10
37.1064
 20
5.23482
 11
36.8981
 21
5.27367
  0
LINE
  8
0
 10
36.8981
 20
5.27367
 11
36.673
 21
5.28662
  0
LINE
  8
0
 10
36.673
 20
5.28662
 11
36.3424
 21
5.25787
  0
LINE
  8
0
 10
36.3424
 20
5.25787
 11
36.0502
 21
5.17162
  0
LINE
  8
0
 10
36.0502
 20
5.17162
 11
35.7963
 21
5.02786
  0
LINE
  8
0
 10
35.7963
 20
5.02786
 11
35.5809
 21
4.82661
  0
LINE
  8
0
 10
35.5809
 20
4.82661
 11
35.4092
 21
4.57387
  0
LINE
  8
0
 10
35.4092
 20
4.57387
 11
35.2866
 21
4.27557
  0
LINE
  8
0
 10
35.2866
 20
4.27557
 11
35.213
 21
3.93176
  0
LINE
  8
0
 10
35.213
 20
3.93176
 11
35.1884
 21
3.54239
  0
LINE
  8
0
 10
35.1884
 20
3.54239
 11
35.213
 21
3.15315
  0
LINE
  8
0
 10
35.213
 20
3.15315
 11
35.2866
 21
2.80974
  0
LINE
  8
0
 10
35.2866
 20
2.80974
 11
35.4092
 21
2.51216
  0
LINE
  8
0
 10
35.4092
 20
2.51216
 11
35.5809
 21
2.26041
  0
LINE
  8
0
 10
35.5809
 20
2.26041
 11
35.7963
 21
2.06017
  0
LINE
  8
0
 10
35.7963
 20
2.06017
 11
36.0502
 21
1.91714
  0
LINE
  8
0
 10
36.0502
 20
1.91714
 11
36.3424
 21
1.83133
  0
LINE
  8
0
 10
36.3424
 20
1.83133
 11
36.673
 21
1.80273
  0
LINE
  8
0
 10
36.673
 20
1.80273
 11
37.0055
 21
1.83141
  0
LINE
  8
0
 10
36.5312
 20
2.4783
 11
36.4071
 21
2.53081
  0
LINE
  8
0
 10
36.4071
 20
2.53081
 11
36.3006
 21
2.61833
  0
LINE
  8
0
 10
36.3006
 20
2.61833
 11
36.2117
 21
2.74084
  0
LINE
  8
0
 10
36.2117
 20
2.74084
 11
36.1417
 21
2.89598
  0
LINE
  8
0
 10
36.1417
 20
2.89598
 11
36.0917
 21
3.08128
  0
LINE
  8
0
 10
36.0917
 20
3.08128
 11
36.0617
 21
3.29675
  0
LINE
  8
0
 10
36.0617
 20
3.29675
 11
36.0517
 21
3.54239
  0
LINE
  8
0
 10
36.0517
 20
3.54239
 11
36.0617
 21
3.78925
  0
LINE
  8
0
 10
36.0617
 20
3.78925
 11
36.092
 21
4.00606
  0
LINE
  8
0
 10
36.092
 20
4.00606
 11
36.1424
 21
4.19284
  0
LINE
  8
0
 10
36.1424
 20
4.19284
 11
36.2129
 21
4.34959
  0
LINE
  8
0
 10
36.2129
 20
4.34959
 11
36.3021
 21
4.47363
  0
LINE
  8
0
 10
36.3021
 20
4.47363
 11
36.4086
 21
4.56221
  0
LINE
  8
0
 10
36.4086
 20
4.56221
 11
36.5322
 21
4.61537
  0
LINE
  8
0
 10
36.5322
 20
4.61537
 11
36.673
 21
4.63309
  0
LINE
  8
0
 10
36.673
 20
4.63309
 11
36.8148
 21
4.61537
  0
LINE
  8
0
 10
36.8148
 20
4.61537
 11
36.9392
 21
4.56221
  0
LINE
  8
0
 10
36.9392
 20
4.56221
 11
37.0461
 21
4.47363
  0
LINE
  8
0
 10
37.0461
 20
4.47363
 11
37.1354
 21
4.34959
  0
LINE
  8
0
 10
37.1354
 20
4.34959
 11
37.206
 21
4.19284
  0
LINE
  8
0
 10
37.206
 20
4.19284
 11
37.2564
 21
4.00606
  0
LINE
  8
0
 10
37.2564
 20
4.00606
 11
37.2866
 21
3.78925
  0
LINE
  8
0
 10
37.2866
 20
3.78925
 11
37.2967
 21
3.54239
  0
LINE
  8
0
 10
37.2967
 20
3.54239
 11
37.2866
 21
3.29675
  0
LINE
  8
0
 10
37.2866
 20
3.29675
 11
37.2564
 21
3.08128
  0
LINE
  8
0
 10
37.2564
 20
3.08128
 11
37.206
 21
2.89598
  0
LINE
  8
0
 10
37.206
 20
2.89598
 11
37.1354
 21
2.74084
  0
LINE
  8
0
 10
37.1354
 20
2.74084
 11
37.0461
 21
2.61833
  0
LINE
  8
0
 10
37.0461
 20
2.61833
 11
36.9392
 21
2.53081
  0
LINE
  8
0
 10
36.9392
 20
2.53081
 11
36.8148
 21
2.4783
  0
LINE
  8
0
 10
36.8148
 20
2.4783
 11
36.673
 21
2.4608
  0
LINE
  8
0
 10
36.673
 20
2.4608
 11
36.5312
 21
2.4783
  0
LINE
  8
0
 10
24.4922
 20
1.81532
 11
24.711
 21
1.8531
  0
LINE
  8
0
 10
24.711
 20
1.8531
 11
24.9185
 21
1.91606
  0
LINE
  8
0
 10
24.9185
 20
1.91606
 11
25.1145
 21
2.00423
  0
LINE
  8
0
 10
25.1145
 20
2.00423
 11
25.2949
 21
2.11673
  0
LINE
  8
0
 10
25.2949
 20
2.11673
 11
25.4557
 21
2.2527
  0
LINE
  8
0
 10
25.4557
 20
2.2527
 11
25.5967
 21
2.41217
  0
LINE
  8
0
 10
25.5967
 20
2.41217
 11
25.718
 21
2.59514
  0
LINE
  8
0
 10
25.718
 20
2.59514
 11
25.8155
 21
2.80035
  0
LINE
  8
0
 10
25.8155
 20
2.80035
 11
25.8852
 21
3.02664
  0
LINE
  8
0
 10
25.8852
 20
3.02664
 11
25.927
 21
3.27399
  0
LINE
  8
0
 10
25.927
 20
3.27399
 11
25.9409
 21
3.54239
  0
LINE
  8
0
 10
25.9409
 20
3.54239
 11
25.927
 21
3.8118
  0
LINE
  8
0
 10
25.927
 20
3.8118
 11
25.8852
 21
4.05984
  0
LINE
  8
0
 10
25.8852
 20
4.05984
 11
25.8155
 21
4.28654
  0
LINE
  8
0
 10
25.8155
 20
4.28654
 11
25.718
 21
4.4919
  0
LINE
  8
0
 10
25.718
 20
4.4919
 11
25.5967
 21
4.67493
  0
LINE
  8
0
 10
25.5967
 20
4.67493
 11
25.4557
 21
4.83461
  0
LINE
  8
0
 10
25.4557
 20
4.83461
 11
25.2949
 21
4.97095
  0
LINE
  8
0
 10
25.2949
 20
4.97095
 11
25.1145
 21
5.08395
  0
LINE
  8
0
 10
25.1145
 20
5.08395
 11
24.9185
 21
5.17262
  0
LINE
  8
0
 10
24.9185
 20
5.17262
 11
24.711
 21
5.23595
  0
LINE
  8
0
 10
24.711
 20
5.23595
 11
24.4922
 21
5.27396
  0
LINE
  8
0
 10
24.4922
 20
5.27396
 11
24.2619
 21
5.28662
  0
LINE
  8
0
 10
24.2619
 20
5.28662
 11
24.0296
 21
5.27396
  0
LINE
  8
0
 10
24.0296
 20
5.27396
 11
23.8092
 21
5.23595
  0
LINE
  8
0
 10
23.8092
 20
5.23595
 11
23.6009
 21
5.17262
  0
LINE
  8
0
 10
23.6009
 20
5.17262
 11
23.4046
 21
5.08395
  0
LINE
  8
0
 10
23.4046
 20
5.08395
 11
23.2241
 21
4.97095
  0
LINE
  8
0
 10
23.2241
 20
4.97095
 11
23.0634
 21
4.83461
  0
LINE
  8
0
 10
23.0634
 20
4.83461
 11
22.9224
 21
4.67493
  0
LINE
  8
0
 10
22.9224
 20
4.67493
 11
22.8011
 21
4.4919
  0
LINE
  8
0
 10
22.8011
 20
4.4919
 11
22.7035
 21
4.28654
  0
LINE
  8
0
 10
22.7035
 20
4.28654
 11
22.6339
 21
4.05984
  0
LINE
  8
0
 10
22.6339
 20
4.05984
 11
22.5921
 21
3.8118
  0
LINE
  8
0
 10
22.5921
 20
3.8118
 11
22.5781
 21
3.54239
  0
LINE
  8
0
 10
22.5781
 20
3.54239
 11
22.5921
 21
3.27496
  0
LINE
  8
0
 10
22.5921
 20
3.27496
 11
22.6339
 21
3.02832
  0
LINE
  8
0
 10
22.6339
 20
3.02832
 11
22.7035
 21
2.80246
  0
LINE
  8
0
 10
22.7035
 20
2.80246
 11
22.8011
 21
2.59738
  0
LINE
  8
0
 10
22.8011
 20
2.59738
 11
22.9224
 21
2.41437
  0
LINE
  8
0
 10
22.9224
 20
2.41437
 11
23.0634
 21
2.2547
  0
LINE
  8
0
 10
23.0634
 20
2.2547
 11
23.2241
 21
2.11836
  0
LINE
  8
0
 10
23.2241
 20
2.11836
 11
23.4046
 21
2.00536
  0
LINE
  8
0
 10
23.4046
 20
2.00536
 11
23.6009
 21
1.9167
  0
LINE
  8
0
 10
23.6009
 20
1.9167
 11
23.8092
 21
1.85338
  0
LINE
  8
0
 10
23.8092
 20
1.85338
 11
24.0296
 21
1.8154
  0
LINE
  8
0
 10
24.0296
 20
1.8154
 11
24.2619
 21
1.80273
  0
LINE
  8
0
 10
24.2619
 20
1.80273
 11
24.4922
 21
1.81532
  0
LINE
  8
0
 10
24.079
 20
2.52518
 11
23.9169
 21
2.57492
  0
LINE
  8
0
 10
23.9169
 20
2.57492
 11
23.7755
 21
2.65781
  0
LINE
  8
0
 10
23.7755
 20
2.65781
 11
23.6548
 21
2.77385
  0
LINE
  8
0
 10
23.6548
 20
2.77385
 11
23.5583
 21
2.92137
  0
LINE
  8
0
 10
23.5583
 20
2.92137
 11
23.4894
 21
3.09863
  0
LINE
  8
0
 10
23.4894
 20
3.09863
 11
23.448
 21
3.30563
  0
LINE
  8
0
 10
23.448
 20
3.30563
 11
23.4342
 21
3.54239
  0
LINE
  8
0
 10
23.4342
 20
3.54239
 11
23.448
 21
3.7802
  0
LINE
  8
0
 10
23.448
 20
3.7802
 11
23.4894
 21
3.98811
  0
LINE
  8
0
 10
23.4894
 20
3.98811
 11
23.5583
 21
4.16614
  0
LINE
  8
0
 10
23.5583
 20
4.16614
 11
23.6548
 21
4.31427
  0
LINE
  8
0
 10
23.6548
 20
4.31427
 11
23.7755
 21
4.43085
  0
LINE
  8
0
 10
23.7755
 20
4.43085
 11
23.9169
 21
4.5141
  0
LINE
  8
0
 10
23.9169
 20
4.5141
 11
24.079
 21
4.56406
  0
LINE
  8
0
 10
24.079
 20
4.56406
 11
24.2619
 21
4.5807
  0
LINE
  8
0
 10
24.2619
 20
4.5807
 11
24.4438
 21
4.56406
  0
LINE
  8
0
 10
24.4438
 20
4.56406
 11
24.6052
 21
4.5141
  0
LINE
  8
0
 10
24.6052
 20
4.5141
 11
24.7461
 21
4.43085
  0
LINE
  8
0
 10
24.7461
 20
4.43085
 11
24.8666
 21
4.31427
  0
LINE
  8
0
 10
24.8666
 20
4.31427
 11
24.9631
 21
4.16614
  0
LINE
  8
0
 10
24.9631
 20
4.16614
 11
25.032
 21
3.98811
  0
LINE
  8
0
 10
25.032
 20
3.98811
 11
25.0734
 21
3.7802
  0
LINE
  8
0
 10
25.0734
 20
3.7802
 11
25.0872
 21
3.54239
  0
LINE
  8
0
 10
25.0872
 20
3.54239
 11
25.0734
 21
3.30563
  0
LINE
  8
0
 10
25.0734
 20
3.30563
 11
25.032
 21
3.09863
  0
LINE
  8
0
 10
25.032
 20
3.09863
 11
24.9631
 21
2.92137
  0
LINE
  8
0
 10
24.9631
 20
2.92137
 11
24.8666
 21
2.77385
  0
LINE
  8
0
 10
24.8666
 20
2.77385
 11
24.7461
 21
2.65781
  0
LINE
  8
0
 10
24.7461
 20
2.65781
 11
24.6052
 21
2.57492
  0
LINE
  8
0
 10
24.6052
 20
2.57492
 11
24.4438
 21
2.52518
  0
LINE
  8
0
 10
24.4438
 20
2.52518
 11
24.2619
 21
2.50861
  0
LINE
  8
0
 10
24.2619
 20
2.50861
 11
24.079
 21
2.52518
  0
LINE
  8
0
 10
40.0626
 20
1.81084
 11
40.2512
 21
1.83517
  0
LINE
  8
0
 10
40.2512
 20
1.83517
 11
40.4278
 21
1.87573
  0
LINE
  8
0
 10
40.4278
 20
1.87573
 11
40.5927
 21
1.9325
  0
LINE
  8
0
 10
40.5927
 20
1.9325
 11
40.7429
 21
2.00345
  0
LINE
  8
0
 10
40.7429
 20
2.00345
 11
40.8758
 21
2.08649
  0
LINE
  8
0
 10
40.8758
 20
2.08649
 11
40.9913
 21
2.18163
  0
LINE
  8
0
 10
40.9913
 20
2.18163
 11
41.0895
 21
2.28885
  0
LINE
  8
0
 10
41.0895
 20
2.28885
 11
41.1678
 21
2.40633
  0
LINE
  8
0
 10
41.1678
 20
2.40633
 11
41.2238
 21
2.53221
  0
LINE
  8
0
 10
41.2238
 20
2.53221
 11
41.2574
 21
2.6665
  0
LINE
  8
0
 10
41.2574
 20
2.6665
 11
41.2686
 21
2.80919
  0
LINE
  8
0
 10
41.2686
 20
2.80919
 11
41.2556
 21
2.95975
  0
LINE
  8
0
 10
41.2556
 20
2.95975
 11
41.2167
 21
3.09721
  0
LINE
  8
0
 10
41.2167
 20
3.09721
 11
41.1518
 21
3.22159
  0
LINE
  8
0
 10
41.1518
 20
3.22159
 11
41.061
 21
3.33287
  0
LINE
  8
0
 10
41.061
 20
3.33287
 11
40.9449
 21
3.42752
  0
LINE
  8
0
 10
40.9449
 20
3.42752
 11
40.804
 21
3.50197
  0
LINE
  8
0
 10
40.804
 20
3.50197
 11
40.6384
 21
3.55618
  0
LINE
  8
0
 10
40.6384
 20
3.55618
 11
40.448
 21
3.59019
  0
LINE
  8
0
 10
40.448
 20
3.59019
 11
40.448
 21
3.61525
  0
LINE
  8
0
 10
40.448
 20
3.61525
 11
40.5939
 21
3.64584
  0
LINE
  8
0
 10
40.5939
 20
3.64584
 11
40.7258
 21
3.69437
  0
LINE
  8
0
 10
40.7258
 20
3.69437
 11
40.8435
 21
3.76082
  0
LINE
  8
0
 10
40.8435
 20
3.76082
 11
40.9472
 21
3.84521
  0
LINE
  8
0
 10
40.9472
 20
3.84521
 11
41.0318
 21
3.9447
  0
LINE
  8
0
 10
41.0318
 20
3.9447
 11
41.0922
 21
4.05641
  0
LINE
  8
0
 10
41.0922
 20
4.05641
 11
41.1284
 21
4.18039
  0
LINE
  8
0
 10
41.1284
 20
4.18039
 11
41.1405
 21
4.31659
  0
LINE
  8
0
 10
41.1405
 20
4.31659
 11
41.1305
 21
4.45085
  0
LINE
  8
0
 10
41.1305
 20
4.45085
 11
41.1005
 21
4.57816
  0
LINE
  8
0
 10
41.1005
 20
4.57816
 11
41.0504
 21
4.69847
  0
LINE
  8
0
 10
41.0504
 20
4.69847
 11
40.9804
 21
4.81181
  0
LINE
  8
0
 10
40.9804
 20
4.81181
 11
40.8925
 21
4.91592
  0
LINE
  8
0
 10
40.8925
 20
4.91592
 11
40.7889
 21
5.00851
  0
LINE
  8
0
 10
40.7889
 20
5.00851
 11
40.6696
 21
5.08957
  0
LINE
  8
0
 10
40.6696
 20
5.08957
 11
40.5346
 21
5.1591
  0
LINE
  8
0
 10
40.5346
 20
5.1591
 11
40.3861
 21
5.21489
  0
LINE
  8
0
 10
40.3861
 20
5.21489
 11
40.2266
 21
5.25475
  0
LINE
  8
0
 10
40.2266
 20
5.25475
 11
40.0559
 21
5.27864
  0
LINE
  8
0
 10
40.0559
 20
5.27864
 11
39.8741
 21
5.28662
  0
LINE
  8
0
 10
39.8741
 20
5.28662
 11
39.6895
 21
5.27844
  0
LINE
  8
0
 10
39.6895
 20
5.27844
 11
39.5151
 21
5.25388
  0
LINE
  8
0
 10
39.5151
 20
5.25388
 11
39.351
 21
5.21295
  0
LINE
  8
0
 10
39.351
 20
5.21295
 11
39.197
 21
5.15567
  0
LINE
  8
0
 10
39.197
 20
5.15567
 11
39.0561
 21
5.08401
  0
LINE
  8
0
 10
39.0561
 20
5.08401
 11
38.9308
 21
4.99998
  0
LINE
  8
0
 10
38.9308
 20
4.99998
 11
38.8213
 21
4.90356
  0
LINE
  8
0
 10
38.8213
 20
4.90356
 11
38.7274
 21
4.79475
  0
LINE
  8
0
 10
38.7274
 20
4.79475
 11
38.6521
 21
4.67535
  0
LINE
  8
0
 10
38.6521
 20
4.67535
 11
38.5979
 21
4.54713
  0
LINE
  8
0
 10
38.5979
 20
4.54713
 11
38.5649
 21
4.4101
  0
LINE
  8
0
 10
38.5649
 20
4.4101
 11
38.5532
 21
4.26422
  0
LINE
  8
0
 10
38.5532
 20
4.26422
 11
39.3571
 21
4.26422
  0
LINE
  8
0
 10
39.3571
 20
4.26422
 11
39.3674
 21
4.3486
  0
LINE
  8
0
 10
39.3674
 20
4.3486
 11
39.3959
 21
4.42416
  0
LINE
  8
0
 10
39.3959
 20
4.42416
 11
39.4427
 21
4.49089
  0
LINE
  8
0
 10
39.4427
 20
4.49089
 11
39.5077
 21
4.54881
  0
LINE
  8
0
 10
39.5077
 20
4.54881
 11
39.586
 21
4.59564
  0
LINE
  8
0
 10
39.586
 20
4.59564
 11
39.6728
 21
4.62909
  0
LINE
  8
0
 10
39.6728
 20
4.62909
 11
39.768
 21
4.64915
  0
LINE
  8
0
 10
39.768
 20
4.64915
 11
39.8717
 21
4.65585
  0
LINE
  8
0
 10
39.8717
 20
4.65585
 11
39.9689
 21
4.64909
  0
LINE
  8
0
 10
39.9689
 20
4.64909
 11
40.0567
 21
4.62881
  0
LINE
  8
0
 10
40.0567
 20
4.62881
 11
40.135
 21
4.59502
  0
LINE
  8
0
 10
40.135
 20
4.59502
 11
40.2037
 21
4.5477
  0
LINE
  8
0
 10
40.2037
 20
4.5477
 11
40.2598
 21
4.48958
  0
LINE
  8
0
 10
40.2598
 20
4.48958
 11
40.2998
 21
4.42332
  0
LINE
  8
0
 10
40.2998
 20
4.42332
 11
40.3238
 21
4.34897
  0
LINE
  8
0
 10
40.3238
 20
4.34897
 11
40.3318
 21
4.26649
  0
LINE
  8
0
 10
40.3318
 20
4.26649
 11
40.3224
 21
4.18074
  0
LINE
  8
0
 10
40.3224
 20
4.18074
 11
40.2944
 21
4.10339
  0
LINE
  8
0
 10
40.2944
 20
4.10339
 11
40.2477
 21
4.03444
  0
LINE
  8
0
 10
40.2477
 20
4.03444
 11
40.1824
 21
3.97388
  0
LINE
  8
0
 10
40.1824
 20
3.97388
 11
40.1023
 21
3.92456
  0
LINE
  8
0
 10
40.1023
 20
3.92456
 11
40.0116
 21
3.88934
  0
LINE
  8
0
 10
40.0116
 20
3.88934
 11
39.9102
 21
3.86821
  0
LINE
  8
0
 10
39.9102
 20
3.86821
 11
39.7982
 21
3.86116
  0
LINE
  8
0
 10
39.7982
 20
3.86116
 11
39.4543
 21
3.86116
  0
LINE
  8
0
 10
39.4543
 20
3.86116
 11
39.4543
 21
3.28734
  0
LINE
  8
0
 10
39.4543
 20
3.28734
 11
39.7982
 21
3.28734
  0
LINE
  8
0
 10
39.7982
 20
3.28734
 11
39.9266
 21
3.28009
  0
LINE
  8
0
 10
39.9266
 20
3.28009
 11
40.0413
 21
3.2583
  0
LINE
  8
0
 10
40.0413
 20
3.2583
 11
40.1424
 21
3.22202
  0
LINE
  8
0
 10
40.1424
 20
3.22202
 11
40.2298
 21
3.1712
  0
LINE
  8
0
 10
40.2298
 20
3.1712
 11
40.3004
 21
3.10887
  0
LINE
  8
0
 10
40.3004
 20
3.10887
 11
40.3508
 21
3.03801
  0
LINE
  8
0
 10
40.3508
 20
3.03801
 11
40.381
 21
2.9586
  0
LINE
  8
0
 10
40.381
 20
2.9586
 11
40.3911
 21
2.87065
  0
LINE
  8
0
 10
40.3911
 20
2.87065
 11
40.382
 21
2.78285
  0
LINE
  8
0
 10
40.382
 20
2.78285
 11
40.3546
 21
2.70387
  0
LINE
  8
0
 10
40.3546
 20
2.70387
 11
40.3091
 21
2.63371
  0
LINE
  8
0
 10
40.3091
 20
2.63371
 11
40.2452
 21
2.57236
  0
LINE
  8
0
 10
40.2452
 20
2.57236
 11
40.1671
 21
2.52255
  0
LINE
  8
0
 10
40.1671
 20
2.52255
 11
40.0783
 21
2.48697
  0
LINE
  8
0
 10
40.0783
 20
2.48697
 11
39.9791
 21
2.46562
  0
LINE
  8
0
 10
39.9791
 20
2.46562
 11
39.8694
 21
2.45851
  0
LINE
  8
0
 10
39.8694
 20
2.45851
 11
39.758
 21
2.46506
  0
LINE
  8
0
 10
39.758
 20
2.46506
 11
39.6565
 21
2.4847
  0
LINE
  8
0
 10
39.6565
 20
2.4847
 11
39.5648
 21
2.51741
  0
LINE
  8
0
 10
39.5648
 20
2.51741
 11
39.4828
 21
2.56323
  0
LINE
  8
0
 10
39.4828
 20
2.56323
 11
39.4151
 21
2.61974
  0
LINE
  8
0
 10
39.4151
 20
2.61974
 11
39.366
 21
2.68449
  0
LINE
  8
0
 10
39.366
 20
2.68449
 11
39.3356
 21
2.75751
  0
LINE
  8
0
 10
39.3356
 20
2.75751
 11
39.3239
 21
2.83876
  0
LINE
  8
0
 10
39.3239
 20
2.83876
 11
38.4844
 21
2.83876
  0
LINE
  8
0
 10
38.4844
 20
2.83876
 11
38.4965
 21
2.69069
  0
LINE
  8
0
 10
38.4965
 20
2.69069
 11
38.5306
 21
2.55157
  0
LINE
  8
0
 10
38.5306
 20
2.55157
 11
38.5867
 21
2.42142
  0
LINE
  8
0
 10
38.5867
 20
2.42142
 11
38.6646
 21
2.30023
  0
LINE
  8
0
 10
38.6646
 20
2.30023
 11
38.7618
 21
2.18987
  0
LINE
  8
0
 10
38.7618
 20
2.18987
 11
38.8754
 21
2.09218
  0
LINE
  8
0
 10
38.8754
 20
2.09218
 11
39.0054
 21
2.00714
  0
LINE
  8
0
 10
39.0054
 20
2.00714
 11
39.1519
 21
1.93478
  0
LINE
  8
0
 10
39.1519
 20
1.93478
 11
39.3124
 21
1.87701
  0
LINE
  8
0
 10
39.3124
 20
1.87701
 11
39.4843
 21
1.83574
  0
LINE
  8
0
 10
39.4843
 20
1.83574
 11
39.6675
 21
1.81099
  0
LINE
  8
0
 10
39.6675
 20
1.81099
 11
39.8622
 21
1.80273
  0
LINE
  8
0
 10
39.8622
 20
1.80273
 11
40.0626
 21
1.81084
  0
LINE
  8
0
 10
43.2438
 20
1.81219
 11
43.4272
 21
1.84058
  0
LINE
  8
0
 10
43.4272
 20
1.84058
 11
43.5984
 21
1.88789
  0
LINE
  8
0
 10
43.5984
 20
1.88789
 11
43.7574
 21
1.95412
  0
LINE
  8
0
 10
43.7574
 20
1.95412
 11
43.9021
 21
2.03717
  0
LINE
  8
0
 10
43.9021
 20
2.03717
 11
44.0301
 21
2.13487
  0
LINE
  8
0
 10
44.0301
 20
2.13487
 11
44.1416
 21
2.24722
  0
LINE
  8
0
 10
44.1416
 20
2.24722
 11
44.2365
 21
2.37422
  0
LINE
  8
0
 10
44.2365
 20
2.37422
 11
44.3122
 21
2.51399
  0
LINE
  8
0
 10
44.3122
 20
2.51399
 11
44.3663
 21
2.66458
  0
LINE
  8
0
 10
44.3663
 20
2.66458
 11
44.3988
 21
2.82597
  0
LINE
  8
0
 10
44.3988
 20
2.82597
 11
44.4096
 21
2.99818
  0
LINE
  8
0
 10
44.4096
 20
2.99818
 11
44.4009
 21
3.15094
  0
LINE
  8
0
 10
44.4009
 20
3.15094
 11
44.3749
 21
3.29503
  0
LINE
  8
0
 10
44.3749
 20
3.29503
 11
44.3315
 21
3.43044
  0
LINE
  8
0
 10
44.3315
 20
3.43044
 11
44.2708
 21
3.55716
  0
LINE
  8
0
 10
44.2708
 20
3.55716
 11
44.1949
 21
3.67308
  0
LINE
  8
0
 10
44.1949
 20
3.67308
 11
44.106
 21
3.77606
  0
LINE
  8
0
 10
44.106
 20
3.77606
 11
44.004
 21
3.86607
  0
LINE
  8
0
 10
44.004
 20
3.86607
 11
43.889
 21
3.94313
  0
LINE
  8
0
 10
43.889
 20
3.94313
 11
43.7628
 21
4.0049
  0
LINE
  8
0
 10
43.7628
 20
4.0049
 11
43.6273
 21
4.04901
  0
LINE
  8
0
 10
43.6273
 20
4.04901
 11
43.4824
 21
4.07549
  0
LINE
  8
0
 10
43.4824
 20
4.07549
 11
43.3282
 21
4.08432
  0
LINE
  8
0
 10
43.3282
 20
4.08432
 11
43.1842
 21
4.0762
  0
LINE
  8
0
 10
43.1842
 20
4.0762
 11
43.0466
 21
4.05186
  0
LINE
  8
0
 10
43.0466
 20
4.05186
 11
42.9151
 21
4.01129
  0
LINE
  8
0
 10
42.9151
 20
4.01129
 11
42.7898
 21
3.95451
  0
LINE
  8
0
 10
42.7898
 20
3.95451
 11
42.676
 21
3.8835
  0
LINE
  8
0
 10
42.676
 20
3.8835
 11
42.5788
 21
3.80025
  0
LINE
  8
0
 10
42.5788
 20
3.80025
 11
42.4981
 21
3.70476
  0
LINE
  8
0
 10
42.4981
 20
3.70476
 11
42.4341
 21
3.59702
  0
LINE
  8
0
 10
42.4341
 20
3.59702
 11
42.4128
 21
3.59702
  0
LINE
  8
0
 10
42.4128
 20
3.59702
 11
42.4229
 21
3.81519
  0
LINE
  8
0
 10
42.4229
 20
3.81519
 11
42.4534
 21
4.00974
  0
LINE
  8
0
 10
42.4534
 20
4.00974
 11
42.5041
 21
4.18065
  0
LINE
  8
0
 10
42.5041
 20
4.18065
 11
42.5752
 21
4.32794
  0
LINE
  8
0
 10
42.5752
 20
4.32794
 11
42.6667
 21
4.4465
  0
LINE
  8
0
 10
42.6667
 20
4.4465
 11
42.7789
 21
4.53119
  0
LINE
  8
0
 10
42.7789
 20
4.53119
 11
42.9116
 21
4.582
  0
LINE
  8
0
 10
42.9116
 20
4.582
 11
43.0649
 21
4.59894
  0
LINE
  8
0
 10
43.0649
 20
4.59894
 11
43.153
 21
4.5936
  0
LINE
  8
0
 10
43.153
 20
4.5936
 11
43.2345
 21
4.57759
  0
LINE
  8
0
 10
43.2345
 20
4.57759
 11
43.3095
 21
4.5509
  0
LINE
  8
0
 10
43.3095
 20
4.5509
 11
43.378
 21
4.51355
  0
LINE
  8
0
 10
43.378
 20
4.51355
 11
43.4374
 21
4.46596
  0
LINE
  8
0
 10
43.4374
 20
4.46596
 11
43.4853
 21
4.40852
  0
LINE
  8
0
 10
43.4853
 20
4.40852
 11
43.5216
 21
4.34128
  0
LINE
  8
0
 10
43.5216
 20
4.34128
 11
43.5464
 21
4.26422
  0
LINE
  8
0
 10
43.5464
 20
4.26422
 11
44.3693
 21
4.26422
  0
LINE
  8
0
 10
44.3693
 20
4.26422
 11
44.3441
 21
4.40326
  0
LINE
  8
0
 10
44.3441
 20
4.40326
 11
44.302
 21
4.53575
  0
LINE
  8
0
 10
44.302
 20
4.53575
 11
44.2428
 21
4.6617
  0
LINE
  8
0
 10
44.2428
 20
4.6617
 11
44.1665
 21
4.7811
  0
LINE
  8
0
 10
44.1665
 20
4.7811
 11
44.0747
 21
4.89124
  0
LINE
  8
0
 10
44.0747
 20
4.89124
 11
43.9688
 21
4.98943
  0
LINE
  8
0
 10
43.9688
 20
4.98943
 11
43.8488
 21
5.07567
  0
LINE
  8
0
 10
43.8488
 20
5.07567
 11
43.7147
 21
5.14996
  0
LINE
  8
0
 10
43.7147
 20
5.14996
 11
43.5683
 21
5.20975
  0
LINE
  8
0
 10
43.5683
 20
5.20975
 11
43.4112
 21
5.25246
  0
LINE
  8
0
 10
43.4112
 20
5.25246
 11
43.2434
 21
5.27808
  0
LINE
  8
0
 10
43.2434
 20
5.27808
 11
43.0649
 21
5.28662
  0
LINE
  8
0
 10
43.0649
 20
5.28662
 11
42.8481
 21
5.27303
  0
LINE
  8
0
 10
42.8481
 20
5.27303
 11
42.6458
 21
5.23225
  0
LINE
  8
0
 10
42.6458
 20
5.23225
 11
42.458
 21
5.16429
  0
LINE
  8
0
 10
42.458
 20
5.16429
 11
42.2847
 21
5.06914
  0
LINE
  8
0
 10
42.2847
 20
5.06914
 11
42.128
 21
4.94873
  0
LINE
  8
0
 10
42.128
 20
4.94873
 11
41.9897
 21
4.80499
  0
LINE
  8
0
 10
41.9897
 20
4.80499
 11
41.8701
 21
4.63791
  0
LINE
  8
0
 10
41.8701
 20
4.63791
 11
41.7689
 21
4.44748
  0
LINE
  8
0
 10
41.7689
 20
4.44748
 11
41.6885
 21
4.23564
  0
LINE
  8
0
 10
41.6885
 20
4.23564
 11
41.6311
 21
4.00433
  0
LINE
  8
0
 10
41.6311
 20
4.00433
 11
41.5966
 21
3.75351
  0
LINE
  8
0
 10
41.5966
 20
3.75351
 11
41.5851
 21
3.4832
  0
LINE
  8
0
 10
41.5851
 20
3.4832
 11
41.5926
 21
3.26082
  0
LINE
  8
0
 10
41.5926
 20
3.26082
 11
41.615
 21
3.05595
  0
LINE
  8
0
 10
41.615
 20
3.05595
 11
41.6525
 21
2.86861
  0
LINE
  8
0
 10
41.6525
 20
2.86861
 11
41.7048
 21
2.69875
  0
LINE
  8
0
 10
41.7048
 20
2.69875
 11
41.7701
 21
2.54547
  0
LINE
  8
0
 10
41.7701
 20
2.54547
 11
41.8459
 21
2.40785
  0
LINE
  8
0
 10
41.8459
 20
2.40785
 11
41.9325
 21
2.28587
  0
LINE
  8
0
 10
41.9325
 20
2.28587
 11
42.0297
 21
2.17955
  0
LINE
  8
0
 10
42.0297
 20
2.17955
 11
42.1359
 21
2.08777
  0
LINE
  8
0
 10
42.1359
 20
2.08777
 11
42.2494
 21
2.00935
  0
LINE
  8
0
 10
42.2494
 20
2.00935
 11
42.3701
 21
1.94431
  0
LINE
  8
0
 10
42.3701
 20
1.94431
 11
42.4981
 21
1.89264
  0
LINE
  8
0
 10
42.4981
 20
1.89264
 11
42.6312
 21
1.8533
  0
LINE
  8
0
 10
42.6312
 20
1.8533
 11
42.7673
 21
1.82521
  0
LINE
  8
0
 10
42.7673
 20
1.82521
 11
42.9063
 21
1.80835
  0
LINE
  8
0
 10
42.9063
 20
1.80835
 11
43.0483
 21
1.80273
  0
LINE
  8
0
 10
43.0483
 20
1.80273
 11
43.2438
 21
1.81219
  0
LINE
  8
0
 10
42.9287
 20
2.43425
 11
42.8257
 21
2.46393
  0
LINE
  8
0
 10
42.8257
 20
2.46393
 11
42.7324
 21
2.51337
  0
LINE
  8
0
 10
42.7324
 20
2.51337
 11
42.6487
 21
2.58261
  0
LINE
  8
0
 10
42.6487
 20
2.58261
 11
42.5797
 21
2.66621
  0
LINE
  8
0
 10
42.5797
 20
2.66621
 11
42.5304
 21
2.75879
  0
LINE
  8
0
 10
42.5304
 20
2.75879
 11
42.5009
 21
2.86034
  0
LINE
  8
0
 10
42.5009
 20
2.86034
 11
42.491
 21
2.97086
  0
LINE
  8
0
 10
42.491
 20
2.97086
 11
42.5009
 21
3.08142
  0
LINE
  8
0
 10
42.5009
 20
3.08142
 11
42.5307
 21
3.18317
  0
LINE
  8
0
 10
42.5307
 20
3.18317
 11
42.5804
 21
3.27609
  0
LINE
  8
0
 10
42.5804
 20
3.27609
 11
42.6499
 21
3.3602
  0
LINE
  8
0
 10
42.6499
 20
3.3602
 11
42.7341
 21
3.42995
  0
LINE
  8
0
 10
42.7341
 20
3.42995
 11
42.8278
 21
3.47977
  0
LINE
  8
0
 10
42.8278
 20
3.47977
 11
42.9309
 21
3.50966
  0
LINE
  8
0
 10
42.9309
 20
3.50966
 11
43.0436
 21
3.51962
  0
LINE
  8
0
 10
43.0436
 20
3.51962
 11
43.1592
 21
3.5098
  0
LINE
  8
0
 10
43.1592
 20
3.5098
 11
43.2641
 21
3.48035
  0
LINE
  8
0
 10
43.2641
 20
3.48035
 11
43.3584
 21
3.43123
  0
LINE
  8
0
 10
43.3584
 20
3.43123
 11
43.442
 21
3.36249
  0
LINE
  8
0
 10
43.442
 20
3.36249
 11
43.5105
 21
3.27924
  0
LINE
  8
0
 10
43.5105
 20
3.27924
 11
43.5594
 21
3.1866
  0
LINE
  8
0
 10
43.5594
 20
3.1866
 11
43.5888
 21
3.08456
  0
LINE
  8
0
 10
43.5888
 20
3.08456
 11
43.5985
 21
2.97313
  0
LINE
  8
0
 10
43.5985
 20
2.97313
 11
43.5886
 21
2.85979
  0
LINE
  8
0
 10
43.5886
 20
2.85979
 11
43.5588
 21
2.75653
  0
LINE
  8
0
 10
43.5588
 20
2.75653
 11
43.5092
 21
2.66338
  0
LINE
  8
0
 10
43.5092
 20
2.66338
 11
43.4396
 21
2.58032
  0
LINE
  8
0
 10
43.4396
 20
2.58032
 11
43.3551
 21
2.51208
  0
LINE
  8
0
 10
43.3551
 20
2.51208
 11
43.2606
 21
2.46335
  0
LINE
  8
0
 10
43.2606
 20
2.46335
 11
43.1559
 21
2.43411
  0
LINE
  8
0
 10
43.1559
 20
2.43411
 11
43.0412
 21
2.42436
  0
LINE
  8
0
 10
43.0412
 20
2.42436
 11
42.9287
 21
2.43425
  0
LINE
  8
0
 10
53.2056
 20
1.83141
 11
53.4989
 21
1.91743
  0
LINE
  8
0
 10
53.4989
 20
1.91743
 11
53.7528
 21
2.06081
  0
LINE
  8
0
 10
53.7528
 20
2.06081
 11
53.9675
 21
2.26155
  0
LINE
  8
0
 10
53.9675
 20
2.26155
 11
54.1382
 21
2.51366
  0
LINE
  8
0
 10
54.1382
 20
2.51366
 11
54.2601
 21
2.81117
  0
LINE
  8
0
 10
54.2601
 20
2.81117
 11
54.3333
 21
3.15408
  0
LINE
  8
0
 10
54.3333
 20
3.15408
 11
54.3577
 21
3.54239
  0
LINE
  8
0
 10
54.3577
 20
3.54239
 11
54.3466
 21
3.80688
  0
LINE
  8
0
 10
54.3466
 20
3.80688
 11
54.3135
 21
4.05159
  0
LINE
  8
0
 10
54.3135
 20
4.05159
 11
54.2583
 21
4.27652
  0
LINE
  8
0
 10
54.2583
 20
4.27652
 11
54.181
 21
4.48166
  0
LINE
  8
0
 10
54.181
 20
4.48166
 11
54.0829
 21
4.66547
  0
LINE
  8
0
 10
54.0829
 20
4.66547
 11
53.9654
 21
4.82635
  0
LINE
  8
0
 10
53.9654
 20
4.82635
 11
53.8286
 21
4.96432
  0
LINE
  8
0
 10
53.8286
 20
4.96432
 11
53.6723
 21
5.07938
  0
LINE
  8
0
 10
53.6723
 20
5.07938
 11
53.4978
 21
5.17004
  0
LINE
  8
0
 10
53.4978
 20
5.17004
 11
53.3065
 21
5.23482
  0
LINE
  8
0
 10
53.3065
 20
5.23482
 11
53.0982
 21
5.27367
  0
LINE
  8
0
 10
53.0982
 20
5.27367
 11
52.8731
 21
5.28662
  0
LINE
  8
0
 10
52.8731
 20
5.28662
 11
52.5424
 21
5.25787
  0
LINE
  8
0
 10
52.5424
 20
5.25787
 11
52.2502
 21
5.17162
  0
LINE
  8
0
 10
52.2502
 20
5.17162
 11
51.9964
 21
5.02786
  0
LINE
  8
0
 10
51.9964
 20
5.02786
 11
51.781
 21
4.82661
  0
LINE
  8
0
 10
51.781
 20
4.82661
 11
51.6093
 21
4.57387
  0
LINE
  8
0
 10
51.6093
 20
4.57387
 11
51.4866
 21
4.27557
  0
LINE
  8
0
 10
51.4866
 20
4.27557
 11
51.413
 21
3.93176
  0
LINE
  8
0
 10
51.413
 20
3.93176
 11
51.3885
 21
3.54239
  0
LINE
  8
0
 10
51.3885
 20
3.54239
 11
51.413
 21
3.15315
  0
LINE
  8
0
 10
51.413
 20
3.15315
 11
51.4866
 21
2.80974
  0
LINE
  8
0
 10
51.4866
 20
2.80974
 11
51.6093
 21
2.51216
  0
LINE
  8
0
 10
51.6093
 20
2.51216
 11
51.781
 21
2.26041
  0
LINE
  8
0
 10
51.781
 20
2.26041
 11
51.9964
 21
2.06017
  0
LINE
  8
0
 10
51.9964
 20
2.06017
 11
52.2502
 21
1.91714
  0
LINE
  8
0
 10
52.2502
 20
1.91714
 11
52.5424
 21
1.83133
  0
LINE
  8
0
 10
52.5424
 20
1.83133
 11
52.8731
 21
1.80273
  0
LINE
  8
0
 10
52.8731
 20
1.80273
 11
53.2056
 21
1.83141
  0
LINE
  8
0
 10
52.7313
 20
2.4783
 11
52.6072
 21
2.53081
  0
LINE
  8
0
 10
52.6072
 20
2.53081
 11
52.5007
 21
2.61833
  0
LINE
  8
0
 10
52.5007
 20
2.61833
 11
52.4118
 21
2.74084
  0
LINE
  8
0
 10
52.4118
 20
2.74084
 11
52.3418
 21
2.89598
  0
LINE
  8
0
 10
52.3418
 20
2.89598
 11
52.2917
 21
3.08128
  0
LINE
  8
0
 10
52.2917
 20
3.08128
 11
52.2617
 21
3.29675
  0
LINE
  8
0
 10
52.2617
 20
3.29675
 11
52.2517
 21
3.54239
  0
LINE
  8
0
 10
52.2517
 20
3.54239
 11
52.2618
 21
3.78925
  0
LINE
  8
0
 10
52.2618
 20
3.78925
 11
52.292
 21
4.00606
  0
LINE
  8
0
 10
52.292
 20
4.00606
 11
52.3424
 21
4.19284
  0
LINE
  8
0
 10
52.3424
 20
4.19284
 11
52.413
 21
4.34959
  0
LINE
  8
0
 10
52.413
 20
4.34959
 11
52.5022
 21
4.47363
  0
LINE
  8
0
 10
52.5022
 20
4.47363
 11
52.6086
 21
4.56221
  0
LINE
  8
0
 10
52.6086
 20
4.56221
 11
52.7322
 21
4.61537
  0
LINE
  8
0
 10
52.7322
 20
4.61537
 11
52.8731
 21
4.63309
  0
LINE
  8
0
 10
52.8731
 20
4.63309
 11
53.0149
 21
4.61537
  0
LINE
  8
0
 10
53.0149
 20
4.61537
 11
53.1393
 21
4.56221
  0
LINE
  8
0
 10
53.1393
 20
4.56221
 11
53.2461
 21
4.47363
  0
LINE
  8
0
 10
53.2461
 20
4.47363
 11
53.3355
 21
4.34959
  0
LINE
  8
0
 10
53.3355
 20
4.34959
 11
53.4061
 21
4.19284
  0
LINE
  8
0
 10
53.4061
 20
4.19284
 11
53.4565
 21
4.00606
  0
LINE
  8
0
 10
53.4565
 20
4.00606
 11
53.4867
 21
3.78925
  0
LINE
  8
0
 10
53.4867
 20
3.78925
 11
53.4968
 21
3.54239
  0
LINE
  8
0
 10
53.4968
 20
3.54239
 11
53.4867
 21
3.29675
  0
LINE
  8
0
 10
53.4867
 20
3.29675
 11
53.4565
 21
3.08128
  0
LINE
  8
0
 10
53.4565
 20
3.08128
 11
53.4061
 21
2.89598
  0
LINE
  8
0
 10
53.4061
 20
2.89598
 11
53.3355
 21
2.74084
  0
LINE
  8
0
 10
53.3355
 20
2.74084
 11
53.2461
 21
2.61833
  0
LINE
  8
0
 10
53.2461
 20
2.61833
 11
53.1393
 21
2.53081
  0
LINE
  8
0
 10
53.1393
 20
2.53081
 11
53.0149
 21
2.4783
  0
LINE
  8
0
 10
53.0149
 20
2.4783
 11
52.8731
 21
2.4608
  0
LINE
  8
0
 10
52.8731
 20
2.4608
 11
52.7313
 21
2.4783
  0
LINE
  8
0
 10
61.198
 20
1.83141
 11
61.4912
 21
1.91743
  0
LINE
  8
0
 10
61.4912
 20
1.91743
 11
61.7452
 21
2.06081
  0
LINE
  8
0
 10
61.7452
 20
2.06081
 11
61.9599
 21
2.26155
  0
LINE
  8
0
 10
61.9599
 20
2.26155
 11
62.1306
 21
2.51366
  0
LINE
  8
0
 10
62.1306
 20
2.51366
 11
62.2525
 21
2.81117
  0
LINE
  8
0
 10
62.2525
 20
2.81117
 11
62.3256
 21
3.15408
  0
LINE
  8
0
 10
62.3256
 20
3.15408
 11
62.35
 21
3.54239
  0
LINE
  8
0
 10
62.35
 20
3.54239
 11
62.339
 21
3.80688
  0
LINE
  8
0
 10
62.339
 20
3.80688
 11
62.3058
 21
4.05159
  0
LINE
  8
0
 10
62.3058
 20
4.05159
 11
62.2506
 21
4.27652
  0
LINE
  8
0
 10
62.2506
 20
4.27652
 11
62.1733
 21
4.48166
  0
LINE
  8
0
 10
62.1733
 20
4.48166
 11
62.0753
 21
4.66547
  0
LINE
  8
0
 10
62.0753
 20
4.66547
 11
61.9578
 21
4.82635
  0
LINE
  8
0
 10
61.9578
 20
4.82635
 11
61.8209
 21
4.96432
  0
LINE
  8
0
 10
61.8209
 20
4.96432
 11
61.6646
 21
5.07938
  0
LINE
  8
0
 10
61.6646
 20
5.07938
 11
61.4902
 21
5.17004
  0
LINE
  8
0
 10
61.4902
 20
5.17004
 11
61.2988
 21
5.23482
  0
LINE
  8
0
 10
61.2988
 20
5.23482
 11
61.0906
 21
5.27367
  0
LINE
  8
0
 10
61.0906
 20
5.27367
 11
60.8654
 21
5.28662
  0
LINE
  8
0
 10
60.8654
 20
5.28662
 11
60.5348
 21
5.25787
  0
LINE
  8
0
 10
60.5348
 20
5.25787
 11
60.2426
 21
5.17162
  0
LINE
  8
0
 10
60.2426
 20
5.17162
 11
59.9888
 21
5.02786
  0
LINE
  8
0
 10
59.9888
 20
5.02786
 11
59.7733
 21
4.82661
  0
LINE
  8
0
 10
59.7733
 20
4.82661
 11
59.6016
 21
4.57387
  0
LINE
  8
0
 10
59.6016
 20
4.57387
 11
59.479
 21
4.27557
  0
LINE
  8
0
 10
59.479
 20
4.27557
 11
59.4054
 21
3.93176
  0
LINE
  8
0
 10
59.4054
 20
3.93176
 11
59.3808
 21
3.54239
  0
LINE
  8
0
 10
59.3808
 20
3.54239
 11
59.4054
 21
3.15315
  0
LINE
  8
0
 10
59.4054
 20
3.15315
 11
59.479
 21
2.80974
  0
LINE
  8
0
 10
59.479
 20
2.80974
 11
59.6016
 21
2.51216
  0
LINE
  8
0
 10
59.6016
 20
2.51216
 11
59.7733
 21
2.26041
  0
LINE
  8
0
 10
59.7733
 20
2.26041
 11
59.9888
 21
2.06017
  0
LINE
  8
0
 10
59.9888
 20
2.06017
 11
60.2426
 21
1.91714
  0
LINE
  8
0
 10
60.2426
 20
1.91714
 11
60.5348
 21
1.83133
  0
LINE
  8
0
 10
60.5348
 20
1.83133
 11
60.8654
 21
1.80273
  0
LINE
  8
0
 10
60.8654
 20
1.80273
 11
61.198
 21
1.83141
  0
LINE
  8
0
 10
60.7236
 20
2.4783
 11
60.5995
 21
2.53081
  0
LINE
  8
0
 10
60.5995
 20
2.53081
 11
60.493
 21
2.61833
  0
LINE
  8
0
 10
60.493
 20
2.61833
 11
60.4042
 21
2.74084
  0
LINE
  8
0
 10
60.4042
 20
2.74084
 11
60.3341
 21
2.89598
  0
LINE
  8
0
 10
60.3341
 20
2.89598
 11
60.2841
 21
3.08128
  0
LINE
  8
0
 10
60.2841
 20
3.08128
 11
60.2541
 21
3.29675
  0
LINE
  8
0
 10
60.2541
 20
3.29675
 11
60.2441
 21
3.54239
  0
LINE
  8
0
 10
60.2441
 20
3.54239
 11
60.2542
 21
3.78925
  0
LINE
  8
0
 10
60.2542
 20
3.78925
 11
60.2844
 21
4.00606
  0
LINE
  8
0
 10
60.2844
 20
4.00606
 11
60.3348
 21
4.19284
  0
LINE
  8
0
 10
60.3348
 20
4.19284
 11
60.4053
 21
4.34959
  0
LINE
  8
0
 10
60.4053
 20
4.34959
 11
60.4946
 21
4.47363
  0
LINE
  8
0
 10
60.4946
 20
4.47363
 11
60.601
 21
4.56221
  0
LINE
  8
0
 10
60.601
 20
4.56221
 11
60.7246
 21
4.61537
  0
LINE
  8
0
 10
60.7246
 20
4.61537
 11
60.8654
 21
4.63309
  0
LINE
  8
0
 10
60.8654
 20
4.63309
 11
61.0073
 21
4.61537
  0
LINE
  8
0
 10
61.0073
 20
4.61537
 11
61.1316
 21
4.56221
  0
LINE
  8
0
 10
61.1316
 20
4.56221
 11
61.2385
 21
4.47363
  0
LINE
  8
0
 10
61.2385
 20
4.47363
 11
61.3279
 21
4.34959
  0
LINE
  8
0
 10
61.3279
 20
4.34959
 11
61.3984
 21
4.19284
  0
LINE
  8
0
 10
61.3984
 20
4.19284
 11
61.4488
 21
4.00606
  0
LINE
  8
0
 10
61.4488
 20
4.00606
 11
61.479
 21
3.78925
  0
LINE
  8
0
 10
61.479
 20
3.78925
 11
61.4891
 21
3.54239
  0
LINE
  8
0
 10
61.4891
 20
3.54239
 11
61.479
 21
3.29675
  0
LINE
  8
0
 10
61.479
 20
3.29675
 11
61.4488
 21
3.08128
  0
LINE
  8
0
 10
61.4488
 20
3.08128
 11
61.3984
 21
2.89598
  0
LINE
  8
0
 10
61.3984
 20
2.89598
 11
61.3279
 21
2.74084
  0
LINE
  8
0
 10
61.3279
 20
2.74084
 11
61.2385
 21
2.61833
  0
LINE
  8
0
 10
61.2385
 20
2.61833
 11
61.1316
 21
2.53081
  0
LINE
  8
0
 10
61.1316
 20
2.53081
 11
61.0073
 21
2.4783
  0
LINE
  8
0
 10
61.0073
 20
2.4783
 11
60.8654
 21
2.4608
  0
LINE
  8
0
 10
60.8654
 20
2.4608
 11
60.7236
 21
2.4783
  0
LINE
  8
0
 10
80.514
 20
2.49722
 11
79.0721
 21
2.49722
  0
LINE
  8
0
 10
79.0721
 20
2.49722
 11
79.0721
 21
2.51999
  0
LINE
  8
0
 10
79.0721
 20
2.51999
 11
79.5108
 21
2.91162
  0
LINE
  8
0
 10
79.5108
 20
2.91162
 11
79.6909
 21
3.06554
  0
LINE
  8
0
 10
79.6909
 20
3.06554
 11
79.8493
 21
3.20851
  0
LINE
  8
0
 10
79.8493
 20
3.20851
 11
79.9861
 21
3.3405
  0
LINE
  8
0
 10
79.9861
 20
3.3405
 11
80.1013
 21
3.46153
  0
LINE
  8
0
 10
80.1013
 20
3.46153
 11
80.1976
 21
3.57448
  0
LINE
  8
0
 10
80.1976
 20
3.57448
 11
80.2777
 21
3.68213
  0
LINE
  8
0
 10
80.2777
 20
3.68213
 11
80.3416
 21
3.78453
  0
LINE
  8
0
 10
80.3416
 20
3.78453
 11
80.3895
 21
3.88164
  0
LINE
  8
0
 10
80.3895
 20
3.88164
 11
80.4242
 21
3.97643
  0
LINE
  8
0
 10
80.4242
 20
3.97643
 11
80.449
 21
4.07179
  0
LINE
  8
0
 10
80.449
 20
4.07179
 11
80.4639
 21
4.16771
  0
LINE
  8
0
 10
80.4639
 20
4.16771
 11
80.4689
 21
4.26422
  0
LINE
  8
0
 10
80.4689
 20
4.26422
 11
80.4588
 21
4.41115
  0
LINE
  8
0
 10
80.4588
 20
4.41115
 11
80.4286
 21
4.5491
  0
LINE
  8
0
 10
80.4286
 20
4.5491
 11
80.3782
 21
4.67812
  0
LINE
  8
0
 10
80.3782
 20
4.67812
 11
80.3076
 21
4.79814
  0
LINE
  8
0
 10
80.3076
 20
4.79814
 11
80.2186
 21
4.90732
  0
LINE
  8
0
 10
80.2186
 20
4.90732
 11
80.1129
 21
5.00368
  0
LINE
  8
0
 10
80.1129
 20
5.00368
 11
79.9904
 21
5.08722
  0
LINE
  8
0
 10
79.9904
 20
5.08722
 11
79.8511
 21
5.15796
  0
LINE
  8
0
 10
79.8511
 20
5.15796
 11
79.6971
 21
5.21425
  0
LINE
  8
0
 10
79.6971
 20
5.21425
 11
79.5301
 21
5.25446
  0
LINE
  8
0
 10
79.5301
 20
5.25446
 11
79.3502
 21
5.27858
  0
LINE
  8
0
 10
79.3502
 20
5.27858
 11
79.1574
 21
5.28662
  0
LINE
  8
0
 10
79.1574
 20
5.28662
 11
78.9701
 21
5.27808
  0
LINE
  8
0
 10
78.9701
 20
5.27808
 11
78.7946
 21
5.25246
  0
LINE
  8
0
 10
78.7946
 20
5.25246
 11
78.631
 21
5.20975
  0
LINE
  8
0
 10
78.631
 20
5.20975
 11
78.4792
 21
5.14996
  0
LINE
  8
0
 10
78.4792
 20
5.14996
 11
78.3414
 21
5.07454
  0
LINE
  8
0
 10
78.3414
 20
5.07454
 11
78.2198
 21
4.98488
  0
LINE
  8
0
 10
78.2198
 20
4.98488
 11
78.1143
 21
4.88098
  0
LINE
  8
0
 10
78.1143
 20
4.88098
 11
78.025
 21
4.76286
  0
LINE
  8
0
 10
78.025
 20
4.76286
 11
77.9539
 21
4.63179
  0
LINE
  8
0
 10
77.9539
 20
4.63179
 11
77.9032
 21
4.48906
  0
LINE
  8
0
 10
77.9032
 20
4.48906
 11
77.8727
 21
4.33464
  0
LINE
  8
0
 10
77.8727
 20
4.33464
 11
77.8626
 21
4.16856
  0
LINE
  8
0
 10
77.8626
 20
4.16856
 11
78.6594
 21
4.16856
  0
LINE
  8
0
 10
78.6594
 20
4.16856
 11
78.6679
 21
4.27815
  0
LINE
  8
0
 10
78.6679
 20
4.27815
 11
78.6932
 21
4.37463
  0
LINE
  8
0
 10
78.6932
 20
4.37463
 11
78.7355
 21
4.45804
  0
LINE
  8
0
 10
78.7355
 20
4.45804
 11
78.7946
 21
4.52834
  0
LINE
  8
0
 10
78.7946
 20
4.52834
 11
78.8678
 21
4.58412
  0
LINE
  8
0
 10
78.8678
 20
4.58412
 11
78.9523
 21
4.62398
  0
LINE
  8
0
 10
78.9523
 20
4.62398
 11
79.0481
 21
4.64789
  0
LINE
  8
0
 10
79.0481
 20
4.64789
 11
79.1551
 21
4.65585
  0
LINE
  8
0
 10
79.1551
 20
4.65585
 11
79.2594
 21
4.64832
  0
LINE
  8
0
 10
79.2594
 20
4.64832
 11
79.3543
 21
4.62569
  0
LINE
  8
0
 10
79.3543
 20
4.62569
 11
79.4397
 21
4.58797
  0
LINE
  8
0
 10
79.4397
 20
4.58797
 11
79.5156
 21
4.53519
  0
LINE
  8
0
 10
79.5156
 20
4.53519
 11
79.5778
 21
4.46915
  0
LINE
  8
0
 10
79.5778
 20
4.46915
 11
79.6223
 21
4.39172
  0
LINE
  8
0
 10
79.6223
 20
4.39172
 11
79.649
 21
4.30293
  0
LINE
  8
0
 10
79.649
 20
4.30293
 11
79.6579
 21
4.20273
  0
LINE
  8
0
 10
79.6579
 20
4.20273
 11
79.6502
 21
4.10858
  0
LINE
  8
0
 10
79.6502
 20
4.10858
 11
79.6273
 21
4.0197
  0
LINE
  8
0
 10
79.6273
 20
4.0197
 11
79.5891
 21
3.9361
  0
LINE
  8
0
 10
79.5891
 20
3.9361
 11
79.5357
 21
3.85774
  0
LINE
  8
0
 10
79.5357
 20
3.85774
 11
79.4686
 21
3.77954
  0
LINE
  8
0
 10
79.4686
 20
3.77954
 11
79.3896
 21
3.69638
  0
LINE
  8
0
 10
79.3896
 20
3.69638
 11
79.2985
 21
3.6082
  0
LINE
  8
0
 10
79.2985
 20
3.6082
 11
79.1954
 21
3.51506
  0
LINE
  8
0
 10
79.1954
 20
3.51506
 11
77.91
 21
2.42436
  0
LINE
  8
0
 10
77.91
 20
2.42436
 11
77.91
 21
1.84825
  0
LINE
  8
0
 10
77.91
 20
1.84825
 11
80.514
 21
1.84825
  0
LINE
  8
0
 10
80.514
 20
1.84825
 11
80.514
 21
2.49722
  0
LINE
  8
0
 10
66.0803
 20
1.82043
 11
66.2092
 21
1.84627
  0
LINE
  8
0
 10
66.2092
 20
1.84627
 11
66.3228
 21
1.88931
  0
LINE
  8
0
 10
66.3228
 20
1.88931
 11
66.4211
 21
1.94958
  0
LINE
  8
0
 10
66.4211
 20
1.94958
 11
66.5054
 21
2.02068
  0
LINE
  8
0
 10
66.5054
 20
2.02068
 11
66.5768
 21
2.09618
  0
LINE
  8
0
 10
66.5768
 20
2.09618
 11
66.6352
 21
2.17609
  0
LINE
  8
0
 10
66.6352
 20
2.17609
 11
66.6808
 21
2.26041
  0
LINE
  8
0
 10
66.6808
 20
2.26041
 11
66.7093
 21
2.26041
  0
LINE
  8
0
 10
66.7093
 20
2.26041
 11
66.7093
 21
1.84825
  0
LINE
  8
0
 10
66.7093
 20
1.84825
 11
67.5251
 21
1.84825
  0
LINE
  8
0
 10
67.5251
 20
1.84825
 11
67.5251
 21
5.24106
  0
LINE
  8
0
 10
67.5251
 20
5.24106
 11
66.6998
 21
5.24106
  0
LINE
  8
0
 10
66.6998
 20
5.24106
 11
66.6998
 21
3.95679
  0
LINE
  8
0
 10
66.6998
 20
3.95679
 11
66.6808
 21
3.95679
  0
LINE
  8
0
 10
66.6808
 20
3.95679
 11
66.653
 21
4.01337
  0
LINE
  8
0
 10
66.653
 20
4.01337
 11
66.6194
 21
4.06921
  0
LINE
  8
0
 10
66.6194
 20
4.06921
 11
66.5801
 21
4.12436
  0
LINE
  8
0
 10
66.5801
 20
4.12436
 11
66.5349
 21
4.1788
  0
LINE
  8
0
 10
66.5349
 20
4.1788
 11
66.4836
 21
4.23047
  0
LINE
  8
0
 10
66.4836
 20
4.23047
 11
66.4256
 21
4.2773
  0
LINE
  8
0
 10
66.4256
 20
4.2773
 11
66.3609
 21
4.31927
  0
LINE
  8
0
 10
66.3609
 20
4.31927
 11
66.2895
 21
4.35641
  0
LINE
  8
0
 10
66.2895
 20
4.35641
 11
66.211
 21
4.38681
  0
LINE
  8
0
 10
66.211
 20
4.38681
 11
66.1247
 21
4.40852
  0
LINE
  8
0
 10
66.1247
 20
4.40852
 11
66.0307
 21
4.42154
  0
LINE
  8
0
 10
66.0307
 20
4.42154
 11
65.929
 21
4.42589
  0
LINE
  8
0
 10
65.929
 20
4.42589
 11
65.7926
 21
4.41705
  0
LINE
  8
0
 10
65.7926
 20
4.41705
 11
65.6608
 21
4.39059
  0
LINE
  8
0
 10
65.6608
 20
4.39059
 11
65.5335
 21
4.34647
  0
LINE
  8
0
 10
65.5335
 20
4.34647
 11
65.4109
 21
4.2847
  0
LINE
  8
0
 10
65.4109
 20
4.2847
 11
65.2963
 21
4.20485
  0
LINE
  8
0
 10
65.2963
 20
4.20485
 11
65.1933
 21
4.10651
  0
LINE
  8
0
 10
65.1933
 20
4.10651
 11
65.1018
 21
3.98965
  0
LINE
  8
0
 10
65.1018
 20
3.98965
 11
65.0219
 21
3.85431
  0
LINE
  8
0
 10
65.0219
 20
3.85431
 11
64.9571
 21
3.69992
  0
LINE
  8
0
 10
64.9571
 20
3.69992
 11
64.9108
 21
3.52586
  0
LINE
  8
0
 10
64.9108
 20
3.52586
 11
64.883
 21
3.33218
  0
LINE
  8
0
 10
64.883
 20
3.33218
 11
64.8737
 21
3.11885
  0
LINE
  8
0
 10
64.8737
 20
3.11885
 11
64.8826
 21
2.91144
  0
LINE
  8
0
 10
64.8826
 20
2.91144
 11
64.9093
 21
2.7218
  0
LINE
  8
0
 10
64.9093
 20
2.7218
 11
64.9538
 21
2.54996
  0
LINE
  8
0
 10
64.9538
 20
2.54996
 11
65.016
 21
2.39589
  0
LINE
  8
0
 10
65.016
 20
2.39589
 11
65.0934
 21
2.25969
  0
LINE
  8
0
 10
65.0934
 20
2.25969
 11
65.1832
 21
2.14142
  0
LINE
  8
0
 10
65.1832
 20
2.14142
 11
65.2855
 21
2.04109
  0
LINE
  8
0
 10
65.2855
 20
2.04109
 11
65.4002
 21
1.95869
  0
LINE
  8
0
 10
65.4002
 20
1.95869
 11
65.5244
 21
1.89444
  0
LINE
  8
0
 10
65.5244
 20
1.89444
 11
65.6551
 21
1.84854
  0
LINE
  8
0
 10
65.6551
 20
1.84854
 11
65.7924
 21
1.821
  0
LINE
  8
0
 10
65.7924
 20
1.821
 11
65.9362
 21
1.81183
  0
LINE
  8
0
 10
65.9362
 20
1.81183
 11
66.0803
 21
1.82043
  0
LINE
  8
0
 10
66.1056
 20
2.44299
 11
66.007
 21
2.47842
  0
LINE
  8
0
 10
66.007
 20
2.47842
 11
65.9224
 21
2.53749
  0
LINE
  8
0
 10
65.9224
 20
2.53749
 11
65.852
 21
2.62018
  0
LINE
  8
0
 10
65.852
 20
2.62018
 11
65.7965
 21
2.72223
  0
LINE
  8
0
 10
65.7965
 20
2.72223
 11
65.7568
 21
2.83934
  0
LINE
  8
0
 10
65.7568
 20
2.83934
 11
65.733
 21
2.97156
  0
LINE
  8
0
 10
65.733
 20
2.97156
 11
65.7251
 21
3.11885
  0
LINE
  8
0
 10
65.7251
 20
3.11885
 11
65.733
 21
3.26608
  0
LINE
  8
0
 10
65.733
 20
3.26608
 11
65.7568
 21
3.39807
  0
LINE
  8
0
 10
65.7568
 20
3.39807
 11
65.7965
 21
3.51485
  0
LINE
  8
0
 10
65.7965
 20
3.51485
 11
65.852
 21
3.61639
  0
LINE
  8
0
 10
65.852
 20
3.61639
 11
65.9224
 21
3.69858
  0
LINE
  8
0
 10
65.9224
 20
3.69858
 11
66.007
 21
3.75728
  0
LINE
  8
0
 10
66.007
 20
3.75728
 11
66.1056
 21
3.79251
  0
LINE
  8
0
 10
66.1056
 20
3.79251
 11
66.2184
 21
3.80424
  0
LINE
  8
0
 10
66.2184
 20
3.80424
 11
66.3304
 21
3.79272
  0
LINE
  8
0
 10
66.3304
 20
3.79272
 11
66.4291
 21
3.75813
  0
LINE
  8
0
 10
66.4291
 20
3.75813
 11
66.5147
 21
3.70049
  0
LINE
  8
0
 10
66.5147
 20
3.70049
 11
66.5871
 21
3.61978
  0
LINE
  8
0
 10
66.5871
 20
3.61978
 11
66.6447
 21
3.5193
  0
LINE
  8
0
 10
66.6447
 20
3.5193
 11
66.6858
 21
3.40233
  0
LINE
  8
0
 10
66.6858
 20
3.40233
 11
66.7105
 21
3.26884
  0
LINE
  8
0
 10
66.7105
 20
3.26884
 11
66.7188
 21
3.11885
  0
LINE
  8
0
 10
66.7188
 20
3.11885
 11
66.7104
 21
2.97063
  0
LINE
  8
0
 10
66.7104
 20
2.97063
 11
66.6855
 21
2.83792
  0
LINE
  8
0
 10
66.6855
 20
2.83792
 11
66.644
 21
2.72072
  0
LINE
  8
0
 10
66.644
 20
2.72072
 11
66.5859
 21
2.61903
  0
LINE
  8
0
 10
66.5859
 20
2.61903
 11
66.5132
 21
2.53685
  0
LINE
  8
0
 10
66.5132
 20
2.53685
 11
66.4277
 21
2.47813
  0
LINE
  8
0
 10
66.4277
 20
2.47813
 11
66.3294
 21
2.44292
  0
LINE
  8
0
 10
66.3294
 20
2.44292
 11
66.2184
 21
2.43117
  0
LINE
  8
0
 10
66.2184
 20
2.43117
 11
66.1056
 21
2.44299
  0
LINE
  8
0
 10
12.3146
 20
3.3101
 11
12.3142
 21
3.37863
  0
LINE
  8
0
 10
12.3142
 20
3.37863
 11
12.3131
 21
3.4567
  0
LINE
  8
0
 10
12.3131
 20
3.4567
 11
12.3113
 21
3.54428
  0
LINE
  8
0
 10
12.3113
 20
3.54428
 11
12.3087
 21
3.6414
  0
LINE
  8
0
 10
12.3087
 20
3.6414
 11
12.3024
 21
3.85347
  0
LINE
  8
0
 10
12.3024
 20
3.85347
 11
12.2956
 21
4.08203
  0
LINE
  8
0
 10
12.2956
 20
4.08203
 11
12.2922
 21
4.19958
  0
LINE
  8
0
 10
12.2922
 20
4.19958
 11
12.2891
 21
4.31543
  0
LINE
  8
0
 10
12.2891
 20
4.31543
 11
12.2863
 21
4.42957
  0
LINE
  8
0
 10
12.2863
 20
4.42957
 11
12.2838
 21
4.54199
  0
LINE
  8
0
 10
12.2838
 20
4.54199
 11
12.3138
 21
4.42267
  0
LINE
  8
0
 10
12.3138
 20
4.42267
 11
12.3445
 21
4.30377
  0
LINE
  8
0
 10
12.3445
 20
4.30377
 11
12.3761
 21
4.1853
  0
LINE
  8
0
 10
12.3761
 20
4.1853
 11
12.4083
 21
4.06726
  0
LINE
  8
0
 10
12.4083
 20
4.06726
 11
12.4405
 21
3.95177
  0
LINE
  8
0
 10
12.4405
 20
3.95177
 11
12.472
 21
3.84097
  0
LINE
  8
0
 10
12.472
 20
3.84097
 11
12.5028
 21
3.73486
  0
LINE
  8
0
 10
12.5028
 20
3.73486
 11
12.5328
 21
3.63345
  0
LINE
  8
0
 10
12.5328
 20
3.63345
 11
12.5612
 21
3.53896
  0
LINE
  8
0
 10
12.5612
 20
3.53896
 11
12.5873
 21
3.45357
  0
LINE
  8
0
 10
12.5873
 20
3.45357
 11
12.6111
 21
3.37727
  0
LINE
  8
0
 10
12.6111
 20
3.37727
 11
12.6324
 21
3.3101
  0
LINE
  8
0
 10
12.6324
 20
3.3101
 11
13.1423
 21
1.84825
  0
LINE
  8
0
 10
13.1423
 20
1.84825
 11
13.8419
 21
1.84825
  0
LINE
  8
0
 10
13.8419
 20
1.84825
 11
14.3446
 21
3.3101
  0
LINE
  8
0
 10
14.3446
 20
3.3101
 11
14.367
 21
3.37978
  0
LINE
  8
0
 10
14.367
 20
3.37978
 11
14.3915
 21
3.45898
  0
LINE
  8
0
 10
14.3915
 20
3.45898
 11
14.418
 21
3.54771
  0
LINE
  8
0
 10
14.418
 20
3.54771
 11
14.4466
 21
3.64598
  0
LINE
  8
0
 10
14.4466
 20
3.64598
 11
14.4766
 21
3.75137
  0
LINE
  8
0
 10
14.4766
 20
3.75137
 11
14.5074
 21
3.86145
  0
LINE
  8
0
 10
14.5074
 20
3.86145
 11
14.5389
 21
3.97623
  0
LINE
  8
0
 10
14.5389
 20
3.97623
 11
14.5711
 21
4.0957
  0
LINE
  8
0
 10
14.5711
 20
4.0957
 11
14.6034
 21
4.21738
  0
LINE
  8
0
 10
14.6034
 20
4.21738
 11
14.6349
 21
4.33878
  0
LINE
  8
0
 10
14.6349
 20
4.33878
 11
14.6656
 21
4.45988
  0
LINE
  8
0
 10
14.6656
 20
4.45988
 11
14.6956
 21
4.5807
  0
LINE
  8
0
 10
14.6956
 20
4.5807
 11
14.6931
 21
4.46573
  0
LINE
  8
0
 10
14.6931
 20
4.46573
 11
14.6903
 21
4.34846
  0
LINE
  8
0
 10
14.6903
 20
4.34846
 11
14.6872
 21
4.22891
  0
LINE
  8
0
 10
14.6872
 20
4.22891
 11
14.6838
 21
4.10707
  0
LINE
  8
0
 10
14.6838
 20
4.10707
 11
14.677
 21
3.87
  0
LINE
  8
0
 10
14.677
 20
3.87
 11
14.6707
 21
3.65054
  0
LINE
  8
0
 10
14.6707
 20
3.65054
 11
14.6681
 21
3.55028
  0
LINE
  8
0
 10
14.6681
 20
3.55028
 11
14.6663
 21
3.46011
  0
LINE
  8
0
 10
14.6663
 20
3.46011
 11
14.6651
 21
3.38007
  0
LINE
  8
0
 10
14.6651
 20
3.38007
 11
14.6648
 21
3.3101
  0
LINE
  8
0
 10
14.6648
 20
3.3101
 11
14.6648
 21
1.84825
  0
LINE
  8
0
 10
14.6648
 20
1.84825
 11
15.5067
 21
1.84825
  0
LINE
  8
0
 10
15.5067
 20
1.84825
 11
15.5067
 21
5.24106
  0
LINE
  8
0
 10
15.5067
 20
5.24106
 11
14.2
 21
5.24106
  0
LINE
  8
0
 10
14.2
 20
5.24106
 11
13.7565
 21
3.92036
  0
LINE
  8
0
 10
13.7565
 20
3.92036
 11
13.738
 21
3.85782
  0
LINE
  8
0
 10
13.738
 20
3.85782
 11
13.7182
 21
3.78632
  0
LINE
  8
0
 10
13.7182
 20
3.78632
 11
13.6971
 21
3.70584
  0
LINE
  8
0
 10
13.6971
 20
3.70584
 11
13.6747
 21
3.61639
  0
LINE
  8
0
 10
13.6747
 20
3.61639
 11
13.6516
 21
3.52075
  0
LINE
  8
0
 10
13.6516
 20
3.52075
 11
13.6284
 21
3.42169
  0
LINE
  8
0
 10
13.6284
 20
3.42169
 11
13.6053
 21
3.31923
  0
LINE
  8
0
 10
13.6053
 20
3.31923
 11
13.5822
 21
3.21333
  0
LINE
  8
0
 10
13.5822
 20
3.21333
 11
13.5594
 21
3.10654
  0
LINE
  8
0
 10
13.5594
 20
3.10654
 11
13.5374
 21
3.0013
  0
LINE
  8
0
 10
13.5374
 20
3.0013
 11
13.5162
 21
2.89763
  0
LINE
  8
0
 10
13.5162
 20
2.89763
 11
13.4956
 21
2.79552
  0
LINE
  8
0
 10
13.4956
 20
2.79552
 11
13.474
 21
2.89771
  0
LINE
  8
0
 10
13.474
 20
2.89771
 11
13.4518
 21
3.00159
  0
LINE
  8
0
 10
13.4518
 20
3.00159
 11
13.4289
 21
3.10718
  0
LINE
  8
0
 10
13.4289
 20
3.10718
 11
13.4055
 21
3.21448
  0
LINE
  8
0
 10
13.4055
 20
3.21448
 11
13.3819
 21
3.3208
  0
LINE
  8
0
 10
13.3819
 20
3.3208
 11
13.3584
 21
3.42342
  0
LINE
  8
0
 10
13.3584
 20
3.42342
 11
13.335
 21
3.52232
  0
LINE
  8
0
 10
13.335
 20
3.52232
 11
13.3118
 21
3.61754
  0
LINE
  8
0
 10
13.3118
 20
3.61754
 11
13.2894
 21
3.70648
  0
LINE
  8
0
 10
13.2894
 20
3.70648
 11
13.2683
 21
3.78661
  0
LINE
  8
0
 10
13.2683
 20
3.78661
 11
13.2485
 21
3.85789
  0
LINE
  8
0
 10
13.2485
 20
3.85789
 11
13.23
 21
3.92036
  0
LINE
  8
0
 10
13.23
 20
3.92036
 11
12.7794
 21
5.24106
  0
LINE
  8
0
 10
12.7794
 20
5.24106
 11
11.4751
 21
5.24106
  0
LINE
  8
0
 10
11.4751
 20
5.24106
 11
11.4751
 21
1.84825
  0
LINE
  8
0
 10
11.4751
 20
1.84825
 11
12.3146
 21
1.84825
  0
LINE
  8
0
 10
12.3146
 20
1.84825
 11
12.3146
 21
3.3101
  0
LINE
  8
0
 10
27.162
 20
3.01637
 11
27.6174
 21
3.01637
  0
LINE
  8
0
 10
27.6174
 20
3.01637
 11
28.2648
 21
1.84825
  0
LINE
  8
0
 10
28.2648
 20
1.84825
 11
29.1826
 21
1.84825
  0
LINE
  8
0
 10
29.1826
 20
1.84825
 11
28.445
 21
3.14391
  0
LINE
  8
0
 10
28.445
 20
3.14391
 11
28.5837
 21
3.21506
  0
LINE
  8
0
 10
28.5837
 20
3.21506
 11
28.7056
 21
3.30103
  0
LINE
  8
0
 10
28.7056
 20
3.30103
 11
28.8108
 21
3.40178
  0
LINE
  8
0
 10
28.8108
 20
3.40178
 11
28.8992
 21
3.51735
  0
LINE
  8
0
 10
28.8992
 20
3.51735
 11
28.9692
 21
3.64685
  0
LINE
  8
0
 10
28.9692
 20
3.64685
 11
29.0192
 21
3.78944
  0
LINE
  8
0
 10
29.0192
 20
3.78944
 11
29.0493
 21
3.94514
  0
LINE
  8
0
 10
29.0493
 20
3.94514
 11
29.0593
 21
4.11392
  0
LINE
  8
0
 10
29.0593
 20
4.11392
 11
29.0377
 21
4.36006
  0
LINE
  8
0
 10
29.0377
 20
4.36006
 11
28.973
 21
4.57928
  0
LINE
  8
0
 10
28.973
 20
4.57928
 11
28.8652
 21
4.77162
  0
LINE
  8
0
 10
28.8652
 20
4.77162
 11
28.7142
 21
4.93706
  0
LINE
  8
0
 10
28.7142
 20
4.93706
 11
28.5259
 21
5.07005
  0
LINE
  8
0
 10
28.5259
 20
5.07005
 11
28.306
 21
5.16505
  0
LINE
  8
0
 10
28.306
 20
5.16505
 11
28.0546
 21
5.22205
  0
LINE
  8
0
 10
28.0546
 20
5.22205
 11
27.7715
 21
5.24106
  0
LINE
  8
0
 10
27.7715
 20
5.24106
 11
26.3249
 21
5.24106
  0
LINE
  8
0
 10
26.3249
 20
5.24106
 11
26.3249
 21
1.84825
  0
LINE
  8
0
 10
26.3249
 20
1.84825
 11
27.162
 21
1.84825
  0
LINE
  8
0
 10
27.162
 20
1.84825
 11
27.162
 21
3.01637
  0
LINE
  8
0
 10
27.162
 20
3.65169
 11
27.162
 21
4.58984
  0
LINE
  8
0
 10
27.162
 20
4.58984
 11
27.5937
 21
4.58984
  0
LINE
  8
0
 10
27.5937
 20
4.58984
 11
27.8551
 21
4.56009
  0
LINE
  8
0
 10
27.8551
 20
4.56009
 11
28.0419
 21
4.47086
  0
LINE
  8
0
 10
28.0419
 20
4.47086
 11
28.1539
 21
4.32214
  0
LINE
  8
0
 10
28.1539
 20
4.32214
 11
28.1913
 21
4.11392
  0
LINE
  8
0
 10
28.1913
 20
4.11392
 11
28.1541
 21
3.9117
  0
LINE
  8
0
 10
28.1541
 20
3.9117
 11
28.0425
 21
3.76724
  0
LINE
  8
0
 10
28.0425
 20
3.76724
 11
27.8565
 21
3.68057
  0
LINE
  8
0
 10
27.8565
 20
3.68057
 11
27.596
 21
3.65169
  0
LINE
  8
0
 10
27.596
 20
3.65169
 11
27.162
 21
3.65169
  0
LINE
  8
0
 10
16.789
 20
3.3101
 11
16.7886
 21
3.37863
  0
LINE
  8
0
 10
16.7886
 20
3.37863
 11
16.7875
 21
3.4567
  0
LINE
  8
0
 10
16.7875
 20
3.4567
 11
16.7857
 21
3.54428
  0
LINE
  8
0
 10
16.7857
 20
3.54428
 11
16.7831
 21
3.6414
  0
LINE
  8
0
 10
16.7831
 20
3.6414
 11
16.7768
 21
3.85347
  0
LINE
  8
0
 10
16.7768
 20
3.85347
 11
16.77
 21
4.08203
  0
LINE
  8
0
 10
16.77
 20
4.08203
 11
16.7666
 21
4.19958
  0
LINE
  8
0
 10
16.7666
 20
4.19958
 11
16.7635
 21
4.31543
  0
LINE
  8
0
 10
16.7635
 20
4.31543
 11
16.7607
 21
4.42957
  0
LINE
  8
0
 10
16.7607
 20
4.42957
 11
16.7582
 21
4.54199
  0
LINE
  8
0
 10
16.7582
 20
4.54199
 11
16.7882
 21
4.42267
  0
LINE
  8
0
 10
16.7882
 20
4.42267
 11
16.8189
 21
4.30377
  0
LINE
  8
0
 10
16.8189
 20
4.30377
 11
16.8504
 21
4.1853
  0
LINE
  8
0
 10
16.8504
 20
4.1853
 11
16.8827
 21
4.06726
  0
LINE
  8
0
 10
16.8827
 20
4.06726
 11
16.9149
 21
3.95177
  0
LINE
  8
0
 10
16.9149
 20
3.95177
 11
16.9464
 21
3.84097
  0
LINE
  8
0
 10
16.9464
 20
3.84097
 11
16.9772
 21
3.73486
  0
LINE
  8
0
 10
16.9772
 20
3.73486
 11
17.0072
 21
3.63345
  0
LINE
  8
0
 10
17.0072
 20
3.63345
 11
17.0356
 21
3.53896
  0
LINE
  8
0
 10
17.0356
 20
3.53896
 11
17.0617
 21
3.45357
  0
LINE
  8
0
 10
17.0617
 20
3.45357
 11
17.0854
 21
3.37727
  0
LINE
  8
0
 10
17.0854
 20
3.37727
 11
17.1068
 21
3.3101
  0
LINE
  8
0
 10
17.1068
 20
3.3101
 11
17.6167
 21
1.84825
  0
LINE
  8
0
 10
17.6167
 20
1.84825
 11
18.3163
 21
1.84825
  0
LINE
  8
0
 10
18.3163
 20
1.84825
 11
18.819
 21
3.3101
  0
LINE
  8
0
 10
18.819
 20
3.3101
 11
18.8414
 21
3.37978
  0
LINE
  8
0
 10
18.8414
 20
3.37978
 11
18.8659
 21
3.45898
  0
LINE
  8
0
 10
18.8659
 20
3.45898
 11
18.8924
 21
3.54771
  0
LINE
  8
0
 10
18.8924
 20
3.54771
 11
18.921
 21
3.64598
  0
LINE
  8
0
 10
18.921
 20
3.64598
 11
18.951
 21
3.75137
  0
LINE
  8
0
 10
18.951
 20
3.75137
 11
18.9818
 21
3.86145
  0
LINE
  8
0
 10
18.9818
 20
3.86145
 11
19.0133
 21
3.97623
  0
LINE
  8
0
 10
19.0133
 20
3.97623
 11
19.0455
 21
4.0957
  0
LINE
  8
0
 10
19.0455
 20
4.0957
 11
19.0778
 21
4.21738
  0
LINE
  8
0
 10
19.0778
 20
4.21738
 11
19.1093
 21
4.33878
  0
LINE
  8
0
 10
19.1093
 20
4.33878
 11
19.14
 21
4.45988
  0
LINE
  8
0
 10
19.14
 20
4.45988
 11
19.17
 21
4.5807
  0
LINE
  8
0
 10
19.17
 20
4.5807
 11
19.1675
 21
4.46573
  0
LINE
  8
0
 10
19.1675
 20
4.46573
 11
19.1647
 21
4.34846
  0
LINE
  8
0
 10
19.1647
 20
4.34846
 11
19.1616
 21
4.22891
  0
LINE
  8
0
 10
19.1616
 20
4.22891
 11
19.1582
 21
4.10707
  0
LINE
  8
0
 10
19.1582
 20
4.10707
 11
19.1514
 21
3.87
  0
LINE
  8
0
 10
19.1514
 20
3.87
 11
19.1451
 21
3.65054
  0
LINE
  8
0
 10
19.1451
 20
3.65054
 11
19.1425
 21
3.55028
  0
LINE
  8
0
 10
19.1425
 20
3.55028
 11
19.1407
 21
3.46011
  0
LINE
  8
0
 10
19.1407
 20
3.46011
 11
19.1395
 21
3.38007
  0
LINE
  8
0
 10
19.1395
 20
3.38007
 11
19.1392
 21
3.3101
  0
LINE
  8
0
 10
19.1392
 20
3.3101
 11
19.1392
 21
1.84825
  0
LINE
  8
0
 10
19.1392
 20
1.84825
 11
19.9811
 21
1.84825
  0
LINE
  8
0
 10
19.9811
 20
1.84825
 11
19.9811
 21
5.24106
  0
LINE
  8
0
 10
19.9811
 20
5.24106
 11
18.6744
 21
5.24106
  0
LINE
  8
0
 10
18.6744
 20
5.24106
 11
18.2309
 21
3.92036
  0
LINE
  8
0
 10
18.2309
 20
3.92036
 11
18.2124
 21
3.85782
  0
LINE
  8
0
 10
18.2124
 20
3.85782
 11
18.1926
 21
3.78632
  0
LINE
  8
0
 10
18.1926
 20
3.78632
 11
18.1715
 21
3.70584
  0
LINE
  8
0
 10
18.1715
 20
3.70584
 11
18.1491
 21
3.61639
  0
LINE
  8
0
 10
18.1491
 20
3.61639
 11
18.126
 21
3.52075
  0
LINE
  8
0
 10
18.126
 20
3.52075
 11
18.1028
 21
3.42169
  0
LINE
  8
0
 10
18.1028
 20
3.42169
 11
18.0797
 21
3.31923
  0
LINE
  8
0
 10
18.0797
 20
3.31923
 11
18.0566
 21
3.21333
  0
LINE
  8
0
 10
18.0566
 20
3.21333
 11
18.0338
 21
3.10654
  0
LINE
  8
0
 10
18.0338
 20
3.10654
 11
18.0118
 21
3.0013
  0
LINE
  8
0
 10
18.0118
 20
3.0013
 11
17.9906
 21
2.89763
  0
LINE
  8
0
 10
17.9906
 20
2.89763
 11
17.97
 21
2.79552
  0
LINE
  8
0
 10
17.97
 20
2.79552
 11
17.9484
 21
2.89771
  0
LINE
  8
0
 10
17.9484
 20
2.89771
 11
17.9261
 21
3.00159
  0
LINE
  8
0
 10
17.9261
 20
3.00159
 11
17.9033
 21
3.10718
  0
LINE
  8
0
 10
17.9033
 20
3.10718
 11
17.8799
 21
3.21448
  0
LINE
  8
0
 10
17.8799
 20
3.21448
 11
17.8562
 21
3.3208
  0
LINE
  8
0
 10
17.8562
 20
3.3208
 11
17.8328
 21
3.42342
  0
LINE
  8
0
 10
17.8328
 20
3.42342
 11
17.8094
 21
3.52232
  0
LINE
  8
0
 10
17.8094
 20
3.52232
 11
17.7862
 21
3.61754
  0
LINE
  8
0
 10
17.7862
 20
3.61754
 11
17.7638
 21
3.70648
  0
LINE
  8
0
 10
17.7638
 20
3.70648
 11
17.7427
 21
3.78661
  0
LINE
  8
0
 10
17.7427
 20
3.78661
 11
17.7229
 21
3.85789
  0
LINE
  8
0
 10
17.7229
 20
3.85789
 11
17.7044
 21
3.92036
  0
LINE
  8
0
 10
17.7044
 20
3.92036
 11
17.2538
 21
5.24106
  0
LINE
  8
0
 10
17.2538
 20
5.24106
 11
15.9495
 21
5.24106
  0
LINE
  8
0
 10
15.9495
 20
5.24106
 11
15.9495
 21
1.84825
  0
LINE
  8
0
 10
15.9495
 20
1.84825
 11
16.789
 21
1.84825
  0
LINE
  8
0
 10
16.789
 20
1.84825
 11
16.789
 21
3.3101
  0
LINE
  8
0
 10
57.4353
 20
5.24106
 11
56.5697
 21
5.24106
  0
LINE
  8
0
 10
56.5697
 20
5.24106
 11
55.7823
 21
4.72189
  0
LINE
  8
0
 10
55.7823
 20
4.72189
 11
55.7823
 21
4.01602
  0
LINE
  8
0
 10
55.7823
 20
4.01602
 11
56.5768
 21
4.54199
  0
LINE
  8
0
 10
56.5768
 20
4.54199
 11
56.6005
 21
4.54199
  0
LINE
  8
0
 10
56.6005
 20
4.54199
 11
56.6005
 21
1.84825
  0
LINE
  8
0
 10
56.6005
 20
1.84825
 11
57.4353
 21
1.84825
  0
LINE
  8
0
 10
57.4353
 20
1.84825
 11
57.4353
 21
5.24106
  0
LINE
  8
0
 10
68.828
 20
3.23724
 11
68.8374
 21
3.34569
  0
LINE
  8
0
 10
68.8374
 20
3.34569
 11
68.8656
 21
3.44331
  0
LINE
  8
0
 10
68.8656
 20
3.44331
 11
68.9127
 21
3.53014
  0
LINE
  8
0
 10
68.9127
 20
3.53014
 11
68.9786
 21
3.60611
  0
LINE
  8
0
 10
68.9786
 20
3.60611
 11
69.0588
 21
3.66789
  0
LINE
  8
0
 10
69.0588
 20
3.66789
 11
69.149
 21
3.71201
  0
LINE
  8
0
 10
69.149
 20
3.71201
 11
69.2491
 21
3.73848
  0
LINE
  8
0
 10
69.2491
 20
3.73848
 11
69.3592
 21
3.7473
  0
LINE
  8
0
 10
69.3592
 20
3.7473
 11
69.3984
 21
3.74666
  0
LINE
  8
0
 10
69.3984
 20
3.74666
 11
69.4401
 21
3.74475
  0
LINE
  8
0
 10
69.4401
 20
3.74475
 11
69.4844
 21
3.74155
  0
LINE
  8
0
 10
69.4844
 20
3.74155
 11
69.5311
 21
3.73706
  0
LINE
  8
0
 10
69.5311
 20
3.73706
 11
69.5768
 21
3.73131
  0
LINE
  8
0
 10
69.5768
 20
3.73131
 11
69.618
 21
3.72426
  0
LINE
  8
0
 10
69.618
 20
3.72426
 11
69.6545
 21
3.71594
  0
LINE
  8
0
 10
69.6545
 20
3.71594
 11
69.6865
 21
3.70634
  0
LINE
  8
0
 10
69.6865
 20
3.70634
 11
69.6865
 21
4.39856
  0
LINE
  8
0
 10
69.6865
 20
4.39856
 11
69.6291
 21
4.41051
  0
LINE
  8
0
 10
69.6291
 20
4.41051
 11
69.5709
 21
4.41905
  0
LINE
  8
0
 10
69.5709
 20
4.41905
 11
69.5117
 21
4.42418
  0
LINE
  8
0
 10
69.5117
 20
4.42418
 11
69.4517
 21
4.42589
  0
LINE
  8
0
 10
69.4517
 20
4.42589
 11
69.3459
 21
4.4182
  0
LINE
  8
0
 10
69.3459
 20
4.4182
 11
69.2469
 21
4.39514
  0
LINE
  8
0
 10
69.2469
 20
4.39514
 11
69.1544
 21
4.35672
  0
LINE
  8
0
 10
69.1544
 20
4.35672
 11
69.0687
 21
4.30293
  0
LINE
  8
0
 10
69.0687
 20
4.30293
 11
68.9921
 21
4.23347
  0
LINE
  8
0
 10
68.9921
 20
4.23347
 11
68.9273
 21
4.14809
  0
LINE
  8
0
 10
68.9273
 20
4.14809
 11
68.8742
 21
4.04675
  0
LINE
  8
0
 10
68.8742
 20
4.04675
 11
68.8327
 21
3.92949
  0
LINE
  8
0
 10
68.8327
 20
3.92949
 11
68.8043
 21
3.92949
  0
LINE
  8
0
 10
68.8043
 20
3.92949
 11
68.8043
 21
4.394
  0
LINE
  8
0
 10
68.8043
 20
4.394
 11
68.0003
 21
4.394
  0
LINE
  8
0
 10
68.0003
 20
4.394
 11
68.0003
 21
1.84825
  0
LINE
  8
0
 10
68.0003
 20
1.84825
 11
68.828
 21
1.84825
  0
LINE
  8
0
 10
68.828
 20
1.84825
 11
68.828
 21
3.23724
  0
LINE
  8
0
 10
70.8951
 20
1.82791
 11
71.1077
 21
1.90347
  0
LINE
  8
0
 10
71.1077
 20
1.90347
 11
71.2793
 21
2.02942
  0
LINE
  8
0
 10
71.2793
 20
2.02942
 11
71.41
 21
2.20575
  0
LINE
  8
0
 10
71.41
 20
2.20575
 11
71.4314
 21
2.20575
  0
LINE
  8
0
 10
71.4314
 20
2.20575
 11
71.4314
 21
1.84825
  0
LINE
  8
0
 10
71.4314
 20
1.84825
 11
72.2093
 21
1.84825
  0
LINE
  8
0
 10
72.2093
 20
1.84825
 11
72.2093
 21
3.57654
  0
LINE
  8
0
 10
72.2093
 20
3.57654
 11
72.1994
 21
3.70796
  0
LINE
  8
0
 10
72.1994
 20
3.70796
 11
72.1698
 21
3.82899
  0
LINE
  8
0
 10
72.1698
 20
3.82899
 11
72.1206
 21
3.93964
  0
LINE
  8
0
 10
72.1206
 20
3.93964
 11
72.0516
 21
4.03989
  0
LINE
  8
0
 10
72.0516
 20
4.03989
 11
71.9659
 21
4.1292
  0
LINE
  8
0
 10
71.9659
 20
4.1292
 11
71.8666
 21
4.20697
  0
LINE
  8
0
 10
71.8666
 20
4.20697
 11
71.7536
 21
4.27322
  0
LINE
  8
0
 10
71.7536
 20
4.27322
 11
71.627
 21
4.32794
  0
LINE
  8
0
 10
71.627
 20
4.32794
 11
71.4897
 21
4.37079
  0
LINE
  8
0
 10
71.4897
 20
4.37079
 11
71.3445
 21
4.4014
  0
LINE
  8
0
 10
71.3445
 20
4.4014
 11
71.1915
 21
4.41977
  0
LINE
  8
0
 10
71.1915
 20
4.41977
 11
71.0306
 21
4.42589
  0
LINE
  8
0
 10
71.0306
 20
4.42589
 11
70.7937
 21
4.41315
  0
LINE
  8
0
 10
70.7937
 20
4.41315
 11
70.5809
 21
4.37494
  0
LINE
  8
0
 10
70.5809
 20
4.37494
 11
70.3923
 21
4.31125
  0
LINE
  8
0
 10
70.3923
 20
4.31125
 11
70.2278
 21
4.22208
  0
LINE
  8
0
 10
70.2278
 20
4.22208
 11
70.0896
 21
4.11258
  0
LINE
  8
0
 10
70.0896
 20
4.11258
 11
69.9797
 21
3.98784
  0
LINE
  8
0
 10
69.9797
 20
3.98784
 11
69.8981
 21
3.84787
  0
LINE
  8
0
 10
69.8981
 20
3.84787
 11
69.8448
 21
3.69267
  0
LINE
  8
0
 10
69.8448
 20
3.69267
 11
70.5942
 21
3.5993
  0
LINE
  8
0
 10
70.5942
 20
3.5993
 11
70.6158
 21
3.65651
  0
LINE
  8
0
 10
70.6158
 20
3.65651
 11
70.647
 21
3.70744
  0
LINE
  8
0
 10
70.647
 20
3.70744
 11
70.6881
 21
3.75214
  0
LINE
  8
0
 10
70.6881
 20
3.75214
 11
70.7389
 21
3.79056
  0
LINE
  8
0
 10
70.7389
 20
3.79056
 11
70.7985
 21
3.82144
  0
LINE
  8
0
 10
70.7985
 20
3.82144
 11
70.8658
 21
3.84351
  0
LINE
  8
0
 10
70.8658
 20
3.84351
 11
70.9408
 21
3.85675
  0
LINE
  8
0
 10
70.9408
 20
3.85675
 11
71.0235
 21
3.86116
  0
LINE
  8
0
 10
71.0235
 20
3.86116
 11
71.1032
 21
3.85669
  0
LINE
  8
0
 10
71.1032
 20
3.85669
 11
71.1738
 21
3.84323
  0
LINE
  8
0
 10
71.1738
 20
3.84323
 11
71.2354
 21
3.82082
  0
LINE
  8
0
 10
71.2354
 20
3.82082
 11
71.2879
 21
3.78944
  0
LINE
  8
0
 10
71.2879
 20
3.78944
 11
71.3299
 21
3.74982
  0
LINE
  8
0
 10
71.3299
 20
3.74982
 11
71.36
 21
3.70264
  0
LINE
  8
0
 10
71.36
 20
3.70264
 11
71.378
 21
3.6479
  0
LINE
  8
0
 10
71.378
 20
3.6479
 11
71.384
 21
3.58563
  0
LINE
  8
0
 10
71.384
 20
3.58563
 11
71.384
 21
3.57654
  0
LINE
  8
0
 10
71.384
 20
3.57654
 11
71.3748
 21
3.52225
  0
LINE
  8
0
 10
71.3748
 20
3.52225
 11
71.3475
 21
3.47778
  0
LINE
  8
0
 10
71.3475
 20
3.47778
 11
71.3019
 21
3.44313
  0
LINE
  8
0
 10
71.3019
 20
3.44313
 11
71.2381
 21
3.41829
  0
LINE
  8
0
 10
71.2381
 20
3.41829
 11
71.1533
 21
3.39914
  0
LINE
  8
0
 10
71.1533
 20
3.39914
 11
71.0445
 21
3.38156
  0
LINE
  8
0
 10
71.0445
 20
3.38156
 11
70.912
 21
3.36555
  0
LINE
  8
0
 10
70.912
 20
3.36555
 11
70.7555
 21
3.3511
  0
LINE
  8
0
 10
70.7555
 20
3.3511
 11
70.6243
 21
3.33617
  0
LINE
  8
0
 10
70.6243
 20
3.33617
 11
70.4985
 21
3.3141
  0
LINE
  8
0
 10
70.4985
 20
3.3141
 11
70.3782
 21
3.28493
  0
LINE
  8
0
 10
70.3782
 20
3.28493
 11
70.2634
 21
3.24863
  0
LINE
  8
0
 10
70.2634
 20
3.24863
 11
70.1569
 21
3.20338
  0
LINE
  8
0
 10
70.1569
 20
3.20338
 11
70.0615
 21
3.14731
  0
LINE
  8
0
 10
70.0615
 20
3.14731
 11
69.9773
 21
3.08043
  0
LINE
  8
0
 10
69.9773
 20
3.08043
 11
69.9041
 21
3.00272
  0
LINE
  8
0
 10
69.9041
 20
3.00272
 11
69.845
 21
2.91235
  0
LINE
  8
0
 10
69.845
 20
2.91235
 11
69.8027
 21
2.80746
  0
LINE
  8
0
 10
69.8027
 20
2.80746
 11
69.7774
 21
2.68806
  0
LINE
  8
0
 10
69.7774
 20
2.68806
 11
69.769
 21
2.55414
  0
LINE
  8
0
 10
69.769
 20
2.55414
 11
69.7843
 21
2.37711
  0
LINE
  8
0
 10
69.7843
 20
2.37711
 11
69.8303
 21
2.22397
  0
LINE
  8
0
 10
69.8303
 20
2.22397
 11
69.907
 21
2.09476
  0
LINE
  8
0
 10
69.907
 20
2.09476
 11
70.0144
 21
1.98944
  0
LINE
  8
0
 10
70.0144
 20
1.98944
 11
70.1457
 21
1.90776
  0
LINE
  8
0
 10
70.1457
 20
1.90776
 11
70.294
 21
1.84941
  0
LINE
  8
0
 10
70.294
 20
1.84941
 11
70.4593
 21
1.81439
  0
LINE
  8
0
 10
70.4593
 20
1.81439
 11
70.6417
 21
1.80273
  0
LINE
  8
0
 10
70.6417
 20
1.80273
 11
70.8951
 21
1.82791
  0
LINE
  8
0
 10
70.8217
 20
2.3329
 11
70.757
 21
2.34549
  0
LINE
  8
0
 10
70.757
 20
2.34549
 11
70.699
 21
2.36649
  0
LINE
  8
0
 10
70.699
 20
2.36649
 11
70.6476
 21
2.39589
  0
LINE
  8
0
 10
70.6476
 20
2.39589
 11
70.6056
 21
2.43324
  0
LINE
  8
0
 10
70.6056
 20
2.43324
 11
70.5756
 21
2.47815
  0
LINE
  8
0
 10
70.5756
 20
2.47815
 11
70.5576
 21
2.53059
  0
LINE
  8
0
 10
70.5576
 20
2.53059
 11
70.5516
 21
2.59056
  0
LINE
  8
0
 10
70.5516
 20
2.59056
 11
70.5754
 21
2.70256
  0
LINE
  8
0
 10
70.5754
 20
2.70256
 11
70.647
 21
2.79037
  0
LINE
  8
0
 10
70.647
 20
2.79037
 11
70.7663
 21
2.85399
  0
LINE
  8
0
 10
70.7663
 20
2.85399
 11
70.9334
 21
2.89342
  0
LINE
  8
0
 10
70.9334
 20
2.89342
 11
70.9927
 21
2.90295
  0
LINE
  8
0
 10
70.9927
 20
2.90295
 11
71.0543
 21
2.91333
  0
LINE
  8
0
 10
71.0543
 20
2.91333
 11
71.1183
 21
2.92458
  0
LINE
  8
0
 10
71.1183
 20
2.92458
 11
71.1847
 21
2.93668
  0
LINE
  8
0
 10
71.1847
 20
2.93668
 11
71.2483
 21
2.94991
  0
LINE
  8
0
 10
71.2483
 20
2.94991
 11
71.3039
 21
2.96457
  0
LINE
  8
0
 10
71.3039
 20
2.96457
 11
71.3515
 21
2.98067
  0
LINE
  8
0
 10
71.3515
 20
2.98067
 11
71.3911
 21
2.99818
  0
LINE
  8
0
 10
71.3911
 20
2.99818
 11
71.3911
 21
2.75452
  0
LINE
  8
0
 10
71.3911
 20
2.75452
 11
71.382
 21
2.66443
  0
LINE
  8
0
 10
71.382
 20
2.66443
 11
71.3549
 21
2.58316
  0
LINE
  8
0
 10
71.3549
 20
2.58316
 11
71.3097
 21
2.51071
  0
LINE
  8
0
 10
71.3097
 20
2.51071
 11
71.2464
 21
2.4471
  0
LINE
  8
0
 10
71.2464
 20
2.4471
 11
71.1701
 21
2.39529
  0
LINE
  8
0
 10
71.1701
 20
2.39529
 11
71.0858
 21
2.35831
  0
LINE
  8
0
 10
71.0858
 20
2.35831
 11
70.9934
 21
2.33611
  0
LINE
  8
0
 10
70.9934
 20
2.33611
 11
70.8931
 21
2.3287
  0
LINE
  8
0
 10
70.8931
 20
2.3287
 11
70.8217
 21
2.3329
  0
LINE
  8
0
 10
51.2119
 20
4.394
 11
50.3487
 21
4.394
  0
LINE
  8
0
 10
50.3487
 20
4.394
 11
49.9597
 21
3.14844
  0
LINE
  8
0
 10
49.9597
 20
3.14844
 11
49.9332
 21
3.06184
  0
LINE
  8
0
 10
49.9332
 20
3.06184
 11
49.9081
 21
2.9751
  0
LINE
  8
0
 10
49.9081
 20
2.9751
 11
49.8846
 21
2.88821
  0
LINE
  8
0
 10
49.8846
 20
2.88821
 11
49.8625
 21
2.80119
  0
LINE
  8
0
 10
49.8625
 20
2.80119
 11
49.8414
 21
2.71346
  0
LINE
  8
0
 10
49.8414
 20
2.71346
 11
49.821
 21
2.62444
  0
LINE
  8
0
 10
49.821
 20
2.62444
 11
49.8011
 21
2.53413
  0
LINE
  8
0
 10
49.8011
 20
2.53413
 11
49.7819
 21
2.44257
  0
LINE
  8
0
 10
49.7819
 20
2.44257
 11
49.7605
 21
2.53421
  0
LINE
  8
0
 10
49.7605
 20
2.53421
 11
49.7389
 21
2.62473
  0
LINE
  8
0
 10
49.7389
 20
2.62473
 11
49.7172
 21
2.7141
  0
LINE
  8
0
 10
49.7172
 20
2.7141
 11
49.6953
 21
2.80234
  0
LINE
  8
0
 10
49.6953
 20
2.80234
 11
49.6727
 21
2.88971
  0
LINE
  8
0
 10
49.6727
 20
2.88971
 11
49.6488
 21
2.97653
  0
LINE
  8
0
 10
49.6488
 20
2.97653
 11
49.6235
 21
3.06277
  0
LINE
  8
0
 10
49.6235
 20
3.06277
 11
49.5969
 21
3.14844
  0
LINE
  8
0
 10
49.5969
 20
3.14844
 11
49.2009
 21
4.394
  0
LINE
  8
0
 10
49.2009
 20
4.394
 11
48.3281
 21
4.394
  0
LINE
  8
0
 10
48.3281
 20
4.394
 11
49.2886
 21
1.84825
  0
LINE
  8
0
 10
49.2886
 20
1.84825
 11
50.2467
 21
1.84825
  0
LINE
  8
0
 10
50.2467
 20
1.84825
 11
51.2119
 21
4.394
  0
LINE
  8
0
 10
46.5135
 20
3.03766
 11
46.597
 21
3.0605
  0
LINE
  8
0
 10
46.597
 20
3.0605
 11
46.673
 21
3.09857
  0
LINE
  8
0
 10
46.673
 20
3.09857
 11
46.7414
 21
3.15186
  0
LINE
  8
0
 10
46.7414
 20
3.15186
 11
46.7979
 21
3.2164
  0
LINE
  8
0
 10
46.7979
 20
3.2164
 11
46.8383
 21
3.28819
  0
LINE
  8
0
 10
46.8383
 20
3.28819
 11
46.8625
 21
3.36726
  0
LINE
  8
0
 10
46.8625
 20
3.36726
 11
46.8706
 21
3.45358
  0
LINE
  8
0
 10
46.8706
 20
3.45358
 11
46.8625
 21
3.54088
  0
LINE
  8
0
 10
46.8625
 20
3.54088
 11
46.8383
 21
3.62065
  0
LINE
  8
0
 10
46.8383
 20
3.62065
 11
46.7979
 21
3.69287
  0
LINE
  8
0
 10
46.7979
 20
3.69287
 11
46.7414
 21
3.75755
  0
LINE
  8
0
 10
46.7414
 20
3.75755
 11
46.673
 21
3.81085
  0
LINE
  8
0
 10
46.673
 20
3.81085
 11
46.597
 21
3.84894
  0
LINE
  8
0
 10
46.597
 20
3.84894
 11
46.5135
 21
3.87178
  0
LINE
  8
0
 10
46.5135
 20
3.87178
 11
46.4224
 21
3.87939
  0
LINE
  8
0
 10
46.4224
 20
3.87939
 11
46.3313
 21
3.87178
  0
LINE
  8
0
 10
46.3313
 20
3.87178
 11
46.2478
 21
3.84894
  0
LINE
  8
0
 10
46.2478
 20
3.84894
 11
46.1719
 21
3.81085
  0
LINE
  8
0
 10
46.1719
 20
3.81085
 11
46.1035
 21
3.75755
  0
LINE
  8
0
 10
46.1035
 20
3.75755
 11
46.0469
 21
3.69287
  0
LINE
  8
0
 10
46.0469
 20
3.69287
 11
46.0065
 21
3.62065
  0
LINE
  8
0
 10
46.0065
 20
3.62065
 11
45.9823
 21
3.54088
  0
LINE
  8
0
 10
45.9823
 20
3.54088
 11
45.9742
 21
3.45358
  0
LINE
  8
0
 10
45.9742
 20
3.45358
 11
45.9823
 21
3.36726
  0
LINE
  8
0
 10
45.9823
 20
3.36726
 11
46.0065
 21
3.28819
  0
LINE
  8
0
 10
46.0065
 20
3.28819
 11
46.0469
 21
3.2164
  0
LINE
  8
0
 10
46.0469
 20
3.2164
 11
46.1035
 21
3.15186
  0
LINE
  8
0
 10
46.1035
 20
3.15186
 11
46.1719
 21
3.09857
  0
LINE
  8
0
 10
46.1719
 20
3.09857
 11
46.2478
 21
3.0605
  0
LINE
  8
0
 10
46.2478
 20
3.0605
 11
46.3313
 21
3.03766
  0
LINE
  8
0
 10
46.3313
 20
3.03766
 11
46.4224
 21
3.03004
  0
LINE
  8
0
 10
46.4224
 20
3.03004
 11
46.5135
 21
3.03766
  0
LINE
  8
0
 10
22.1077
 20
3.84978
 11
20.4784
 21
3.84978
  0
LINE
  8
0
 10
20.4784
 20
3.84978
 11
20.4784
 21
3.23724
  0
LINE
  8
0
 10
20.4784
 20
3.23724
 11
22.1077
 21
3.23724
  0
LINE
  8
0
 10
22.1077
 20
3.23724
 11
22.1077
 21
3.84978
  0
LINE
  8
0
 10
34.718
 20
3.84978
 11
33.0888
 21
3.84978
  0
LINE
  8
0
 10
33.0888
 20
3.84978
 11
33.0888
 21
3.23724
  0
LINE
  8
0
 10
33.0888
 20
3.23724
 11
34.718
 21
3.23724
  0
LINE
  8
0
 10
34.718
 20
3.23724
 11
34.718
 21
3.84978
  0
LINE
  8
0
 10
64.427
 20
3.52872
 11
62.7977
 21
3.52872
  0
LINE
  8
0
 10
62.7977
 20
3.52872
 11
62.7977
 21
2.91618
  0
LINE
  8
0
 10
62.7977
 20
2.91618
 11
64.427
 21
2.91618
  0
LINE
  8
0
 10
64.427
 20
2.91618
 11
64.427
 21
3.52872
  0
LINE
  8
0
 10
7.56636
 20
0.800369
 11
7.64903
 21
0.80159
  0
LINE
  8
0
 10
7.64903
 20
0.80159
 11
7.73042
 21
0.803802
  0
LINE
  8
0
 10
7.73042
 20
0.803802
 11
7.81062
 21
0.807144
  0
LINE
  8
0
 10
7.81062
 20
0.807144
 11
7.88969
 21
0.811752
  0
LINE
  8
0
 10
7.88969
 20
0.811752
 11
7.96771
 21
0.81778
  0
LINE
  8
0
 10
7.96771
 20
0.81778
 11
8.04474
 21
0.825363
  0
LINE
  8
0
 10
8.04474
 20
0.825363
 11
8.12083
 21
0.834625
  0
LINE
  8
0
 10
8.12083
 20
0.834625
 11
8.19609
 21
0.845734
  0
LINE
  8
0
 10
8.19609
 20
0.845734
 11
8.27058
 21
0.85881
  0
LINE
  8
0
 10
8.27058
 20
0.85881
 11
8.34436
 21
0.874023
  0
LINE
  8
0
 10
8.34436
 20
0.874023
 11
8.4175
 21
0.891479
  0
LINE
  8
0
 10
8.4175
 20
0.891479
 11
8.49008
 21
0.911331
  0
LINE
  8
0
 10
8.49008
 20
0.911331
 11
8.56216
 21
0.933731
  0
LINE
  8
0
 10
8.56216
 20
0.933731
 11
8.63382
 21
0.958817
  0
LINE
  8
0
 10
8.63382
 20
0.958817
 11
8.70512
 21
0.986725
  0
LINE
  8
0
 10
8.70512
 20
0.986725
 11
8.77614
 21
1.01759
  0
LINE
  8
0
 10
8.77614
 20
1.01759
 11
8.84695
 21
1.05157
  0
LINE
  8
0
 10
8.84695
 20
1.05157
 11
8.91763
 21
1.08879
  0
LINE
  8
0
 10
8.91763
 20
1.08879
 11
8.98822
 21
1.12941
  0
LINE
  8
0
 10
8.98822
 20
1.12941
 11
5.12941
 21
3.34117
  0
LINE
  8
0
 10
5.12941
 20
3.34117
 11
1.64705
 21
1.17647
  0
LINE
  8
0
 10
1.64705
 20
1.17647
 11
1.69046
 21
1.14188
  0
LINE
  8
0
 10
1.69046
 20
1.14188
 11
1.73595
 21
1.10875
  0
LINE
  8
0
 10
1.73595
 20
1.10875
 11
1.78348
 21
1.07709
  0
LINE
  8
0
 10
1.78348
 20
1.07709
 11
1.83302
 21
1.04695
  0
LINE
  8
0
 10
1.83302
 20
1.04695
 11
1.88455
 21
1.01837
  0
LINE
  8
0
 10
1.88455
 20
1.01837
 11
1.93802
 21
0.991379
  0
LINE
  8
0
 10
1.93802
 20
0.991379
 11
1.99339
 21
0.966003
  0
LINE
  8
0
 10
1.99339
 20
0.966003
 11
2.05063
 21
0.942291
  0
LINE
  8
0
 10
2.05063
 20
0.942291
 11
2.10971
 21
0.920288
  0
LINE
  8
0
 10
2.10971
 20
0.920288
 11
2.17058
 21
0.899994
  0
LINE
  8
0
 10
2.17058
 20
0.899994
 11
2.23322
 21
0.88147
  0
LINE
  8
0
 10
2.23322
 20
0.88147
 11
2.29759
 21
0.864746
  0
LINE
  8
0
 10
2.29759
 20
0.864746
 11
2.36366
 21
0.849854
  0
LINE
  8
0
 10
2.36366
 20
0.849854
 11
2.43138
 21
0.836838
  0
LINE
  8
0
 10
2.43138
 20
0.836838
 11
2.50073
 21
0.825729
  0
LINE
  8
0
 10
2.50073
 20
0.825729
 11
2.57166
 21
0.816559
  0
LINE
  8
0
 10
2.57166
 20
0.816559
 11
2.64415
 21
0.809357
  0
LINE
  8
0
 10
2.64415
 20
0.809357
 11
2.71815
 21
0.804184
  0
LINE
  8
0
 10
2.71815
 20
0.804184
 11
2.79364
 21
0.801041
  0
LINE
  8
0
 10
2.79364
 20
0.801041
 11
2.87057
 21
0.799988
  0
LINE
  8
0
 10
2.87057
 20
0.799988
 11
7.48235
 21
0.799988
  0
LINE
  8
0
 10
7.48235
 20
0.799988
 11
7.56636
 21
0.800369
  0
LINE
  8
0
 10
58.6073
 20
1.80806
 11
58.6909
 21
1.8309
  0
LINE
  8
0
 10
58.6909
 20
1.8309
 11
58.7668
 21
1.86896
  0
LINE
  8
0
 10
58.7668
 20
1.86896
 11
58.8352
 21
1.92226
  0
LINE
  8
0
 10
58.8352
 20
1.92226
 11
58.8918
 21
1.9868
  0
LINE
  8
0
 10
58.8918
 20
1.9868
 11
58.9322
 21
2.05859
  0
LINE
  8
0
 10
58.9322
 20
2.05859
 11
58.9564
 21
2.13766
  0
LINE
  8
0
 10
58.9564
 20
2.13766
 11
58.9645
 21
2.22397
  0
LINE
  8
0
 10
58.9645
 20
2.22397
 11
58.9564
 21
2.31128
  0
LINE
  8
0
 10
58.9564
 20
2.31128
 11
58.9322
 21
2.39104
  0
LINE
  8
0
 10
58.9322
 20
2.39104
 11
58.8918
 21
2.46327
  0
LINE
  8
0
 10
58.8918
 20
2.46327
 11
58.8352
 21
2.52794
  0
LINE
  8
0
 10
58.8352
 20
2.52794
 11
58.7668
 21
2.58125
  0
LINE
  8
0
 10
58.7668
 20
2.58125
 11
58.6909
 21
2.61932
  0
LINE
  8
0
 10
58.6909
 20
2.61932
 11
58.6073
 21
2.64218
  0
LINE
  8
0
 10
58.6073
 20
2.64218
 11
58.5163
 21
2.6498
  0
LINE
  8
0
 10
58.5163
 20
2.6498
 11
58.4252
 21
2.64218
  0
LINE
  8
0
 10
58.4252
 20
2.64218
 11
58.3417
 21
2.61932
  0
LINE
  8
0
 10
58.3417
 20
2.61932
 11
58.2657
 21
2.58125
  0
LINE
  8
0
 10
58.2657
 20
2.58125
 11
58.1973
 21
2.52794
  0
LINE
  8
0
 10
58.1973
 20
2.52794
 11
58.1408
 21
2.46327
  0
LINE
  8
0
 10
58.1408
 20
2.46327
 11
58.1004
 21
2.39104
  0
LINE
  8
0
 10
58.1004
 20
2.39104
 11
58.0761
 21
2.31128
  0
LINE
  8
0
 10
58.0761
 20
2.31128
 11
58.0681
 21
2.22397
  0
LINE
  8
0
 10
58.0681
 20
2.22397
 11
58.0761
 21
2.13766
  0
LINE
  8
0
 10
58.0761
 20
2.13766
 11
58.1004
 21
2.05859
  0
LINE
  8
0
 10
58.1004
 20
2.05859
 11
58.1408
 21
1.9868
  0
LINE
  8
0
 10
58.1408
 20
1.9868
 11
58.1973
 21
1.92226
  0
LINE
  8
0
 10
58.1973
 20
1.92226
 11
58.2657
 21
1.86896
  0
LINE
  8
0
 10
58.2657
 20
1.86896
 11
58.3417
 21
1.8309
  0
LINE
  8
0
 10
58.3417
 20
1.8309
 11
58.4252
 21
1.80806
  0
LINE
  8
0
 10
58.4252
 20
1.80806
 11
58.5163
 21
1.80045
  0
LINE
  8
0
 10
58.5163
 20
1.80045
 11
58.6073
 21
1.80806
  0
LINE
  8
0
 10
76.9219
 20
1.80806
 11
77.0054
 21
1.8309
  0
LINE
  8
0
 10
77.0054
 20
1.8309
 11
77.0813
 21
1.86896
  0
LINE
  8
0
 10
77.0813
 20
1.86896
 11
77.1497
 21
1.92226
  0
LINE
  8
0
 10
77.1497
 20
1.92226
 11
77.2063
 21
1.9868
  0
LINE
  8
0
 10
77.2063
 20
1.9868
 11
77.2467
 21
2.05859
  0
LINE
  8
0
 10
77.2467
 20
2.05859
 11
77.2709
 21
2.13766
  0
LINE
  8
0
 10
77.2709
 20
2.13766
 11
77.279
 21
2.22397
  0
LINE
  8
0
 10
77.279
 20
2.22397
 11
77.2709
 21
2.31128
  0
LINE
  8
0
 10
77.2709
 20
2.31128
 11
77.2467
 21
2.39104
  0
LINE
  8
0
 10
77.2467
 20
2.39104
 11
77.2063
 21
2.46327
  0
LINE
  8
0
 10
77.2063
 20
2.46327
 11
77.1497
 21
2.52794
  0
LINE
  8
0
 10
77.1497
 20
2.52794
 11
77.0813
 21
2.58125
  0
LINE
  8
0
 10
77.0813
 20
2.58125
 11
77.0054
 21
2.61932
  0
LINE
  8
0
 10
77.0054
 20
2.61932
 11
76.9219
 21
2.64218
  0
LINE
  8
0
 10
76.9219
 20
2.64218
 11
76.8308
 21
2.6498
  0
LINE
  8
0
 10
76.8308
 20
2.6498
 11
76.7397
 21
2.64218
  0
LINE
  8
0
 10
76.7397
 20
2.64218
 11
76.6562
 21
2.61932
  0
LINE
  8
0
 10
76.6562
 20
2.61932
 11
76.5802
 21
2.58125
  0
LINE
  8
0
 10
76.5802
 20
2.58125
 11
76.5118
 21
2.52794
  0
LINE
  8
0
 10
76.5118
 20
2.52794
 11
76.4553
 21
2.46327
  0
LINE
  8
0
 10
76.4553
 20
2.46327
 11
76.4149
 21
2.39104
  0
LINE
  8
0
 10
76.4149
 20
2.39104
 11
76.3907
 21
2.31128
  0
LINE
  8
0
 10
76.3907
 20
2.31128
 11
76.3826
 21
2.22397
  0
LINE
  8
0
 10
76.3826
 20
2.22397
 11
76.3907
 21
2.13766
  0
LINE
  8
0
 10
76.3907
 20
2.13766
 11
76.4149
 21
2.05859
  0
LINE
  8
0
 10
76.4149
 20
2.05859
 11
76.4553
 21
1.9868
  0
LINE
  8
0
 10
76.4553
 20
1.9868
 11
76.5118
 21
1.92226
  0
LINE
  8
0
 10
76.5118
 20
1.92226
 11
76.5802
 21
1.86896
  0
LINE
  8
0
 10
76.5802
 20
1.86896
 11
76.6562
 21
1.8309
  0
LINE
  8
0
 10
76.6562
 20
1.8309
 11
76.7397
 21
1.80806
  0
LINE
  8
0
 10
76.7397
 20
1.80806
 11
76.8308
 21
1.80045
  0
LINE
  8
0
 10
76.8308
 20
1.80045
 11
76.9219
 21
1.80806
  0
LINE
  8
0
 10
55.2771
 20
1.80806
 11
55.3606
 21
1.8309
  0
LINE
  8
0
 10
55.3606
 20
1.8309
 11
55.4365
 21
1.86896
  0
LINE
  8
0
 10
55.4365
 20
1.86896
 11
55.5049
 21
1.92226
  0
LINE
  8
0
 10
55.5049
 20
1.92226
 11
55.5615
 21
1.9868
  0
LINE
  8
0
 10
55.5615
 20
1.9868
 11
55.6019
 21
2.05859
  0
LINE
  8
0
 10
55.6019
 20
2.05859
 11
55.6261
 21
2.13766
  0
LINE
  8
0
 10
55.6261
 20
2.13766
 11
55.6342
 21
2.22397
  0
LINE
  8
0
 10
55.6342
 20
2.22397
 11
55.6261
 21
2.31128
  0
LINE
  8
0
 10
55.6261
 20
2.31128
 11
55.6019
 21
2.39104
  0
LINE
  8
0
 10
55.6019
 20
2.39104
 11
55.5615
 21
2.46327
  0
LINE
  8
0
 10
55.5615
 20
2.46327
 11
55.5049
 21
2.52794
  0
LINE
  8
0
 10
55.5049
 20
2.52794
 11
55.4365
 21
2.58125
  0
LINE
  8
0
 10
55.4365
 20
2.58125
 11
55.3606
 21
2.61932
  0
LINE
  8
0
 10
55.3606
 20
2.61932
 11
55.2771
 21
2.64218
  0
LINE
  8
0
 10
55.2771
 20
2.64218
 11
55.186
 21
2.6498
  0
LINE
  8
0
 10
55.186
 20
2.6498
 11
55.0949
 21
2.64218
  0
LINE
  8
0
 10
55.0949
 20
2.64218
 11
55.0114
 21
2.61932
  0
LINE
  8
0
 10
55.0114
 20
2.61932
 11
54.9354
 21
2.58125
  0
LINE
  8
0
 10
54.9354
 20
2.58125
 11
54.867
 21
2.52794
  0
LINE
  8
0
 10
54.867
 20
2.52794
 11
54.8105
 21
2.46327
  0
LINE
  8
0
 10
54.8105
 20
2.46327
 11
54.7701
 21
2.39104
  0
LINE
  8
0
 10
54.7701
 20
2.39104
 11
54.7458
 21
2.31128
  0
LINE
  8
0
 10
54.7458
 20
2.31128
 11
54.7378
 21
2.22397
  0
LINE
  8
0
 10
54.7378
 20
2.22397
 11
54.7458
 21
2.13766
  0
LINE
  8
0
 10
54.7458
 20
2.13766
 11
54.7701
 21
2.05859
  0
LINE
  8
0
 10
54.7701
 20
2.05859
 11
54.8105
 21
1.9868
  0
LINE
  8
0
 10
54.8105
 20
1.9868
 11
54.867
 21
1.92226
  0
LINE
  8
0
 10
54.867
 20
1.92226
 11
54.9354
 21
1.86896
  0
LINE
  8
0
 10
54.9354
 20
1.86896
 11
55.0114
 21
1.8309
  0
LINE
  8
0
 10
55.0114
 20
1.8309
 11
55.0949
 21
1.80806
  0
LINE
  8
0
 10
55.0949
 20
1.80806
 11
55.186
 21
1.80045
  0
LINE
  8
0
 10
55.186
 20
1.80045
 11
55.2771
 21
1.80806
  0
ENDSEC
  0
SECTION
  2
OBJECTS
  0
DICTIONARY
  0
ENDSEC
  0
EOF
