999
JuSt Innovation - JuSt Innovation standard watermark - JSI-WM-001-R1
0
SECTION
2
HEADER
9
$ACADVER
1
AC1009
9
$INSUNITS
70
4
9
$MEASUREMENT
70
1
0
ENDSEC
0
SECTION
2
ENTITIES
0
POLYLINE
8
WATERMARK
66
1
70
1
0
VERTEX
8
WATERMARK
10
0.65353
20
0.90509
30
0
0
VERTEX
8
WATERMARK
10
0.71564
20
0.92026
30
0
0
VERTEX
8
WATERMARK
10
0.77454
20
0.94513
30
0
0
VERTEX
8
WATERMARK
10
0.82872
20
0.97907
30
0
0
VERTEX
8
WATERMARK
10
0.87681
20
1.02121
30
0
0
VERTEX
8
WATERMARK
10
0.91763
20
1.07054
30
0
0
VERTEX
8
WATERMARK
10
1.47764
20
1.87054
30
0
0
VERTEX
8
WATERMARK
10
1.50867
20
1.92296
30
0
0
VERTEX
8
WATERMARK
10
1.53142
20
1.97957
30
0
0
VERTEX
8
WATERMARK
10
1.5453
20
2.03898
30
0
0
VERTEX
8
WATERMARK
10
1.54999
20
2.0999
30
0
0
VERTEX
8
WATERMARK
10
1.55
20
4.4999
30
0
0
VERTEX
8
WATERMARK
10
1.54509
20
4.56238
30
0
0
VERTEX
8
WATERMARK
10
1.53047
20
4.62342
30
0
0
VERTEX
8
WATERMARK
10
1.50648
20
4.68141
30
0
0
VERTEX
8
WATERMARK
10
1.47371
20
4.73495
30
0
0
VERTEX
8
WATERMARK
10
1.43297
20
4.78269
30
0
0
VERTEX
8
WATERMARK
10
1.38526
20
4.82348
30
0
0
VERTEX
8
WATERMARK
10
1.33176
20
4.8563
30
0
0
VERTEX
8
WATERMARK
10
1.27379
20
4.88035
30
0
0
VERTEX
8
WATERMARK
10
1.21276
20
4.89503
30
0
0
VERTEX
8
WATERMARK
10
1.1501
20
4.89999
30
0
0
VERTEX
8
WATERMARK
10
-0.8499
20
4.9
30
0
0
VERTEX
8
WATERMARK
10
-0.91238
20
4.89509
30
0
0
VERTEX
8
WATERMARK
10
-0.97342
20
4.88047
30
0
0
VERTEX
8
WATERMARK
10
-1.03141
20
4.85648
30
0
0
VERTEX
8
WATERMARK
10
-1.08495
20
4.82371
30
0
0
VERTEX
8
WATERMARK
10
-1.13269
20
4.78297
30
0
0
VERTEX
8
WATERMARK
10
-1.17348
20
4.73526
30
0
0
VERTEX
8
WATERMARK
10
-1.2063
20
4.68176
30
0
0
VERTEX
8
WATERMARK
10
-1.23035
20
4.62379
30
0
0
VERTEX
8
WATERMARK
10
-1.24503
20
4.56276
30
0
0
VERTEX
8
WATERMARK
10
-1.24998
20
4.5002
30
0
0
VERTEX
8
WATERMARK
10
-1.24509
20
4.43762
30
0
0
VERTEX
8
WATERMARK
10
-1.23047
20
4.37658
30
0
0
VERTEX
8
WATERMARK
10
-1.20648
20
4.31859
30
0
0
VERTEX
8
WATERMARK
10
-1.17371
20
4.26505
30
0
0
VERTEX
8
WATERMARK
10
-1.13297
20
4.21731
30
0
0
VERTEX
8
WATERMARK
10
-1.08526
20
4.17652
30
0
0
VERTEX
8
WATERMARK
10
-1.03176
20
4.1437
30
0
0
VERTEX
8
WATERMARK
10
-0.97379
20
4.11965
30
0
0
VERTEX
8
WATERMARK
10
-0.91276
20
4.10497
30
0
0
VERTEX
8
WATERMARK
10
-0.8501
20
4.10001
30
0
0
VERTEX
8
WATERMARK
10
0.74629
20
4.09983
30
0
0
VERTEX
8
WATERMARK
10
0.74983
20
4.09629
30
0
0
VERTEX
8
WATERMARK
10
0.74933
20
2.22517
30
0
0
VERTEX
8
WATERMARK
10
0.38235
20
1.70117
30
0
0
VERTEX
8
WATERMARK
10
0.38001
20
1.70008
30
0
0
VERTEX
8
WATERMARK
10
-0.11351
20
1.70017
30
0
0
VERTEX
8
WATERMARK
10
-0.11575
20
1.70146
30
0
0
VERTEX
8
WATERMARK
10
-0.50077
20
2.39101
30
0
0
VERTEX
8
WATERMARK
10
-0.53974
20
2.44843
30
0
0
VERTEX
8
WATERMARK
10
-0.58829
20
2.49847
30
0
0
VERTEX
8
WATERMARK
10
-0.64479
20
2.53932
30
0
0
VERTEX
8
WATERMARK
10
-0.70752
20
2.56974
30
0
0
VERTEX
8
WATERMARK
10
-0.77459
20
2.5888
30
0
0
VERTEX
8
WATERMARK
10
-0.84394
20
2.59593
30
0
0
VERTEX
8
WATERMARK
10
-0.91348
20
2.59091
30
0
0
VERTEX
8
WATERMARK
10
-0.98109
20
2.57388
30
0
0
VERTEX
8
WATERMARK
10
-1.04472
20
2.54538
30
0
0
VERTEX
8
WATERMARK
10
-1.10243
20
2.50626
30
0
0
VERTEX
8
WATERMARK
10
-1.15247
20
2.45771
30
0
0
VERTEX
8
WATERMARK
10
-1.19332
20
2.40121
30
0
0
VERTEX
8
WATERMARK
10
-1.22374
20
2.33848
30
0
0
VERTEX
8
WATERMARK
10
-1.2428
20
2.27141
30
0
0
VERTEX
8
WATERMARK
10
-1.24993
20
2.20206
30
0
0
VERTEX
8
WATERMARK
10
-1.24491
20
2.13252
30
0
0
VERTEX
8
WATERMARK
10
-1.22788
20
2.06491
30
0
0
VERTEX
8
WATERMARK
10
-1.19933
20
2.00118
30
0
0
VERTEX
8
WATERMARK
10
-0.69934
20
1.10516
30
0
0
VERTEX
8
WATERMARK
10
-0.66593
20
1.0547
30
0
0
VERTEX
8
WATERMARK
10
-0.62524
20
1.00977
30
0
0
VERTEX
8
WATERMARK
10
-0.57822
20
0.97152
30
0
0
VERTEX
8
WATERMARK
10
-0.52597
20
0.9408
30
0
0
VERTEX
8
WATERMARK
10
-0.46967
20
0.91834
30
0
0
VERTEX
8
WATERMARK
10
-0.41063
20
0.90464
30
0
0
VERTEX
8
WATERMARK
10
-0.35009
20
0.90001
30
0
0
VERTEX
8
WATERMARK
10
0.5899
20
0.9
30
0
0
SEQEND
8
WATERMARK
0
POLYLINE
8
WATERMARK
66
1
70
1
0
VERTEX
8
WATERMARK
10
7.57695
20
0.90566
30
0
0
VERTEX
8
WATERMARK
10
7.64221
20
0.9225
30
0
0
VERTEX
8
WATERMARK
10
7.70372
20
0.95006
30
0
0
VERTEX
8
WATERMARK
10
7.75972
20
0.98755
30
0
0
VERTEX
8
WATERMARK
10
7.80864
20
1.03391
30
0
0
VERTEX
8
WATERMARK
10
7.84914
20
1.08792
30
0
0
VERTEX
8
WATERMARK
10
8.28914
20
1.79191
30
0
0
VERTEX
8
WATERMARK
10
8.31992
20
1.85185
30
0
0
VERTEX
8
WATERMARK
10
8.34023
20
1.91621
30
0
0
VERTEX
8
WATERMARK
10
8.34943
20
1.98306
30
0
0
VERTEX
8
WATERMARK
10
8.34727
20
2.05051
30
0
0
VERTEX
8
WATERMARK
10
8.33379
20
2.11663
30
0
0
VERTEX
8
WATERMARK
10
8.30936
20
2.17965
30
0
0
VERTEX
8
WATERMARK
10
7.94937
20
2.91565
30
0
0
VERTEX
8
WATERMARK
10
7.91354
20
2.97518
30
0
0
VERTEX
8
WATERMARK
10
7.86788
20
3.02769
30
0
0
VERTEX
8
WATERMARK
10
7.81382
20
3.0715
30
0
0
VERTEX
8
WATERMARK
10
7.75299
20
3.10527
30
0
0
VERTEX
8
WATERMARK
10
7.68711
20
3.12802
30
0
0
VERTEX
8
WATERMARK
10
6.58859
20
3.40283
30
0
0
VERTEX
8
WATERMARK
10
6.40768
20
3.77103
30
0
0
VERTEX
8
WATERMARK
10
6.40786
20
3.77362
30
0
0
VERTEX
8
WATERMARK
10
6.61106
20
4.09866
30
0
0
VERTEX
8
WATERMARK
10
6.61335
20
4.09987
30
0
0
VERTEX
8
WATERMARK
10
7.26577
20
4.09983
30
0
0
VERTEX
8
WATERMARK
10
7.72388
20
3.78606
30
0
0
VERTEX
8
WATERMARK
10
7.78472
20
3.75177
30
0
0
VERTEX
8
WATERMARK
10
7.85048
20
3.7286
30
0
0
VERTEX
8
WATERMARK
10
7.91926
20
3.7172
30
0
0
VERTEX
8
WATERMARK
10
7.98898
20
3.71793
30
0
0
VERTEX
8
WATERMARK
10
8.05751
20
3.73074
30
0
0
VERTEX
8
WATERMARK
10
8.12278
20
3.75526
30
0
0
VERTEX
8
WATERMARK
10
8.18279
20
3.79075
30
0
0
VERTEX
8
WATERMARK
10
8.23543
20
3.8358
30
0
0
VERTEX
8
WATERMARK
10
8.27975
20
3.88962
30
0
0
VERTEX
8
WATERMARK
10
8.31405
20
3.95032
30
0
0
VERTEX
8
WATERMARK
10
8.33729
20
4.01606
30
0
0
VERTEX
8
WATERMARK
10
8.34876
20
4.08483
30
0
0
VERTEX
8
WATERMARK
10
8.34812
20
4.15454
30
0
0
VERTEX
8
WATERMARK
10
8.33538
20
4.22309
30
0
0
VERTEX
8
WATERMARK
10
8.31092
20
4.28838
30
0
0
VERTEX
8
WATERMARK
10
8.27551
20
4.34844
30
0
0
VERTEX
8
WATERMARK
10
8.2302
20
4.40143
30
0
0
VERTEX
8
WATERMARK
10
8.17629
20
4.44582
30
0
0
VERTEX
8
WATERMARK
10
7.61629
20
4.82984
30
0
0
VERTEX
8
WATERMARK
10
7.56444
20
4.85994
30
0
0
VERTEX
8
WATERMARK
10
7.50859
20
4.882
30
0
0
VERTEX
8
WATERMARK
10
7.45006
20
4.89545
30
0
0
VERTEX
8
WATERMARK
10
7.39009
20
4.89999
30
0
0
VERTEX
8
WATERMARK
10
6.39011
20
4.9
30
0
0
VERTEX
8
WATERMARK
10
6.32305
20
4.89434
30
0
0
VERTEX
8
WATERMARK
10
6.25779
20
4.8775
30
0
0
VERTEX
8
WATERMARK
10
6.19628
20
4.84994
30
0
0
VERTEX
8
WATERMARK
10
6.14028
20
4.81245
30
0
0
VERTEX
8
WATERMARK
10
6.09136
20
4.76609
30
0
0
VERTEX
8
WATERMARK
10
6.05086
20
4.71208
30
0
0
VERTEX
8
WATERMARK
10
5.61086
20
4.00809
30
0
0
VERTEX
8
WATERMARK
10
5.58008
20
3.94815
30
0
0
VERTEX
8
WATERMARK
10
5.55977
20
3.88379
30
0
0
VERTEX
8
WATERMARK
10
5.55057
20
3.81694
30
0
0
VERTEX
8
WATERMARK
10
5.55273
20
3.74949
30
0
0
VERTEX
8
WATERMARK
10
5.56621
20
3.68337
30
0
0
VERTEX
8
WATERMARK
10
5.59064
20
3.62035
30
0
0
VERTEX
8
WATERMARK
10
5.95063
20
2.88435
30
0
0
VERTEX
8
WATERMARK
10
5.98646
20
2.82482
30
0
0
VERTEX
8
WATERMARK
10
6.03212
20
2.77231
30
0
0
VERTEX
8
WATERMARK
10
6.08618
20
2.7285
30
0
0
VERTEX
8
WATERMARK
10
6.14701
20
2.69473
30
0
0
VERTEX
8
WATERMARK
10
6.21289
20
2.67198
30
0
0
VERTEX
8
WATERMARK
10
7.31141
20
2.39717
30
0
0
VERTEX
8
WATERMARK
10
7.49232
20
2.02897
30
0
0
VERTEX
8
WATERMARK
10
7.49214
20
2.02638
30
0
0
VERTEX
8
WATERMARK
10
7.28894
20
1.70134
30
0
0
VERTEX
8
WATERMARK
10
7.28665
20
1.70013
30
0
0
VERTEX
8
WATERMARK
10
6.54058
20
1.70017
30
0
0
VERTEX
8
WATERMARK
10
6.21292
20
1.98543
30
0
0
VERTEX
8
WATERMARK
10
6.15686
20
2.02633
30
0
0
VERTEX
8
WATERMARK
10
6.09427
20
2.05705
30
0
0
VERTEX
8
WATERMARK
10
6.0273
20
2.07644
30
0
0
VERTEX
8
WATERMARK
10
5.95798
20
2.0839
30
0
0
VERTEX
8
WATERMARK
10
5.88841
20
2.07921
30
0
0
VERTEX
8
WATERMARK
10
5.82072
20
2.06251
30
0
0
VERTEX
8
WATERMARK
10
5.75696
20
2.03431
30
0
0
VERTEX
8
WATERMARK
10
5.69906
20
1.99547
30
0
0
VERTEX
8
WATERMARK
10
5.64879
20
1.94716
30
0
0
VERTEX
8
WATERMARK
10
5.60767
20
1.89086
30
0
0
VERTEX
8
WATERMARK
10
5.57695
20
1.82827
30
0
0
VERTEX
8
WATERMARK
10
5.55756
20
1.7613
30
0
0
VERTEX
8
WATERMARK
10
5.5501
20
1.69198
30
0
0
VERTEX
8
WATERMARK
10
5.55479
20
1.62241
30
0
0
VERTEX
8
WATERMARK
10
5.57149
20
1.55472
30
0
0
VERTEX
8
WATERMARK
10
5.59969
20
1.49096
30
0
0
VERTEX
8
WATERMARK
10
5.63853
20
1.43306
30
0
0
VERTEX
8
WATERMARK
10
5.68691
20
1.38271
30
0
0
VERTEX
8
WATERMARK
10
6.12692
20
0.99869
30
0
0
VERTEX
8
WATERMARK
10
6.17265
20
0.96422
30
0
0
VERTEX
8
WATERMARK
10
6.22291
20
0.93659
30
0
0
VERTEX
8
WATERMARK
10
6.2766
20
0.91643
30
0
0
VERTEX
8
WATERMARK
10
6.33262
20
0.90415
30
0
0
VERTEX
8
WATERMARK
10
6.38991
20
0.90001
30
0
0
VERTEX
8
WATERMARK
10
7.50989
20
0.9
30
0
0
SEQEND
8
WATERMARK
0
POLYLINE
8
WATERMARK
66
1
70
1
0
VERTEX
8
WATERMARK
10
10.41238
20
0.90491
30
0
0
VERTEX
8
WATERMARK
10
10.47342
20
0.91953
30
0
0
VERTEX
8
WATERMARK
10
10.53141
20
0.94352
30
0
0
VERTEX
8
WATERMARK
10
10.58495
20
0.97629
30
0
0
VERTEX
8
WATERMARK
10
10.63269
20
1.01703
30
0
0
VERTEX
8
WATERMARK
10
10.67348
20
1.06474
30
0
0
VERTEX
8
WATERMARK
10
10.7063
20
1.11824
30
0
0
VERTEX
8
WATERMARK
10
10.73035
20
1.17621
30
0
0
VERTEX
8
WATERMARK
10
10.74503
20
1.23724
30
0
0
VERTEX
8
WATERMARK
10
10.74999
20
1.2999
30
0
0
VERTEX
8
WATERMARK
10
10.75017
20
3.69629
30
0
0
VERTEX
8
WATERMARK
10
10.75371
20
3.69983
30
0
0
VERTEX
8
WATERMARK
10
11.35011
20
3.70001
30
0
0
VERTEX
8
WATERMARK
10
11.41967
20
3.70613
30
0
0
VERTEX
8
WATERMARK
10
11.4866
20
3.72407
30
0
0
VERTEX
8
WATERMARK
10
11.5498
20
3.7535
30
0
0
VERTEX
8
WATERMARK
10
11.60694
20
3.79346
30
0
0
VERTEX
8
WATERMARK
10
11.65626
20
3.84273
30
0
0
VERTEX
8
WATERMARK
10
11.69628
20
3.89982
30
0
0
VERTEX
8
WATERMARK
10
11.72578
20
3.96299
30
0
0
VERTEX
8
WATERMARK
10
11.74387
20
4.03033
30
0
0
VERTEX
8
WATERMARK
10
11.74998
20
4.09979
30
0
0
VERTEX
8
WATERMARK
10
11.74509
20
4.16238
30
0
0
VERTEX
8
WATERMARK
10
11.73047
20
4.22342
30
0
0
VERTEX
8
WATERMARK
10
11.70648
20
4.28141
30
0
0
VERTEX
8
WATERMARK
10
11.67371
20
4.33495
30
0
0
VERTEX
8
WATERMARK
10
11.63297
20
4.38269
30
0
0
VERTEX
8
WATERMARK
10
11.58526
20
4.42348
30
0
0
VERTEX
8
WATERMARK
10
11.53176
20
4.4563
30
0
0
VERTEX
8
WATERMARK
10
11.47379
20
4.48035
30
0
0
VERTEX
8
WATERMARK
10
11.41276
20
4.49503
30
0
0
VERTEX
8
WATERMARK
10
11.3501
20
4.49999
30
0
0
VERTEX
8
WATERMARK
10
9.3501
20
4.5
30
0
0
VERTEX
8
WATERMARK
10
9.28762
20
4.49509
30
0
0
VERTEX
8
WATERMARK
10
9.22658
20
4.48047
30
0
0
VERTEX
8
WATERMARK
10
9.16859
20
4.45648
30
0
0
VERTEX
8
WATERMARK
10
9.11505
20
4.42371
30
0
0
VERTEX
8
WATERMARK
10
9.06731
20
4.38297
30
0
0
VERTEX
8
WATERMARK
10
9.02652
20
4.33526
30
0
0
VERTEX
8
WATERMARK
10
8.9937
20
4.28176
30
0
0
VERTEX
8
WATERMARK
10
8.96965
20
4.22379
30
0
0
VERTEX
8
WATERMARK
10
8.95497
20
4.16276
30
0
0
VERTEX
8
WATERMARK
10
8.95002
20
4.10021
30
0
0
VERTEX
8
WATERMARK
10
8.95606
20
4.03076
30
0
0
VERTEX
8
WATERMARK
10
8.97407
20
3.9634
30
0
0
VERTEX
8
WATERMARK
10
9.0035
20
3.9002
30
0
0
VERTEX
8
WATERMARK
10
9.04346
20
3.84306
30
0
0
VERTEX
8
WATERMARK
10
9.09273
20
3.79374
30
0
0
VERTEX
8
WATERMARK
10
9.14982
20
3.75372
30
0
0
VERTEX
8
WATERMARK
10
9.21299
20
3.72422
30
0
0
VERTEX
8
WATERMARK
10
9.28033
20
3.70613
30
0
0
VERTEX
8
WATERMARK
10
9.34989
20
3.70001
30
0
0
VERTEX
8
WATERMARK
10
9.94629
20
3.69983
30
0
0
VERTEX
8
WATERMARK
10
9.94983
20
3.69629
30
0
0
VERTEX
8
WATERMARK
10
9.95001
20
1.2999
30
0
0
VERTEX
8
WATERMARK
10
9.95491
20
1.23762
30
0
0
VERTEX
8
WATERMARK
10
9.96953
20
1.17658
30
0
0
VERTEX
8
WATERMARK
10
9.99352
20
1.11859
30
0
0
VERTEX
8
WATERMARK
10
10.02629
20
1.06505
30
0
0
VERTEX
8
WATERMARK
10
10.06703
20
1.01731
30
0
0
VERTEX
8
WATERMARK
10
10.11474
20
0.97652
30
0
0
VERTEX
8
WATERMARK
10
10.16824
20
0.9437
30
0
0
VERTEX
8
WATERMARK
10
10.22621
20
0.91965
30
0
0
VERTEX
8
WATERMARK
10
10.28724
20
0.90497
30
0
0
VERTEX
8
WATERMARK
10
10.3498
20
0.90002
30
0
0
SEQEND
8
WATERMARK
0
POLYLINE
8
WATERMARK
66
1
70
1
0
VERTEX
8
WATERMARK
10
-8.68683
20
-4.19394
30
0
0
VERTEX
8
WATERMARK
10
-8.61947
20
-4.17593
30
0
0
VERTEX
8
WATERMARK
10
-8.55627
20
-4.1465
30
0
0
VERTEX
8
WATERMARK
10
-8.49913
20
-4.10654
30
0
0
VERTEX
8
WATERMARK
10
-8.44981
20
-4.05727
30
0
0
VERTEX
8
WATERMARK
10
-8.40972
20
-4.00009
30
0
0
VERTEX
8
WATERMARK
10
-6.21578
20
-0.20008
30
0
0
VERTEX
8
WATERMARK
10
-6.18987
20
-0.14631
30
0
0
VERTEX
8
WATERMARK
10
-6.17222
20
-0.08919
30
0
0
VERTEX
8
WATERMARK
10
-6.16329
20
-0.03008
30
0
0
VERTEX
8
WATERMARK
10
-6.16326
20
0.0297
30
0
0
VERTEX
8
WATERMARK
10
-6.17214
20
0.08882
30
0
0
VERTEX
8
WATERMARK
10
-6.18974
20
0.14596
30
0
0
VERTEX
8
WATERMARK
10
-6.21569
20
0.19992
30
0
0
VERTEX
8
WATERMARK
10
-8.40961
20
3.99991
30
0
0
VERTEX
8
WATERMARK
10
-8.44953
20
4.05694
30
0
0
VERTEX
8
WATERMARK
10
-8.4988
20
4.10626
30
0
0
VERTEX
8
WATERMARK
10
-8.55589
20
4.14628
30
0
0
VERTEX
8
WATERMARK
10
-8.61906
20
4.17578
30
0
0
VERTEX
8
WATERMARK
10
-8.6864
20
4.19387
30
0
0
VERTEX
8
WATERMARK
10
-8.75596
20
4.19999
30
0
0
VERTEX
8
WATERMARK
10
-13.14382
20
4.2
30
0
0
VERTEX
8
WATERMARK
10
-13.21317
20
4.19394
30
0
0
VERTEX
8
WATERMARK
10
-13.28053
20
4.17593
30
0
0
VERTEX
8
WATERMARK
10
-13.34373
20
4.1465
30
0
0
VERTEX
8
WATERMARK
10
-13.40087
20
4.10654
30
0
0
VERTEX
8
WATERMARK
10
-13.45019
20
4.05727
30
0
0
VERTEX
8
WATERMARK
10
-13.49028
20
4.00009
30
0
0
VERTEX
8
WATERMARK
10
-15.68422
20
0.20009
30
0
0
VERTEX
8
WATERMARK
10
-15.71364
20
0.13701
30
0
0
VERTEX
8
WATERMARK
10
-15.73173
20
0.06967
30
0
0
VERTEX
8
WATERMARK
10
-15.73784
20
0.00022
30
0
0
VERTEX
8
WATERMARK
10
-15.7318
20
-0.06924
30
0
0
VERTEX
8
WATERMARK
10
-15.71379
20
-0.1366
30
0
0
VERTEX
8
WATERMARK
10
-15.68432
20
-0.1999
30
0
0
VERTEX
8
WATERMARK
10
-13.49031
20
-3.99997
30
0
0
VERTEX
8
WATERMARK
10
-13.14392
20
-4.19996
30
0
0
VERTEX
8
WATERMARK
10
-8.75618
20
-4.2
30
0
0
SEQEND
8
WATERMARK
0
POLYLINE
8
WATERMARK
66
1
70
1
0
VERTEX
8
WATERMARK
10
-12.9126
20
-3.39933
30
0
0
VERTEX
8
WATERMARK
10
-14.87504
20
-0.00129
30
0
0
VERTEX
8
WATERMARK
10
-14.87504
20
0.00129
30
0
0
VERTEX
8
WATERMARK
10
-13.8859
20
1.71352
30
0
0
VERTEX
8
WATERMARK
10
-13.8834
20
1.71419
30
0
0
VERTEX
8
WATERMARK
10
-13.8795
20
1.71231
30
0
0
VERTEX
8
WATERMARK
10
-13.84326
20
1.66697
30
0
0
VERTEX
8
WATERMARK
10
-13.79485
20
1.62334
30
0
0
VERTEX
8
WATERMARK
10
-13.74
20
1.58816
30
0
0
VERTEX
8
WATERMARK
10
-13.68016
20
1.56234
30
0
0
VERTEX
8
WATERMARK
10
-13.61692
20
1.54659
30
0
0
VERTEX
8
WATERMARK
10
-13.55207
20
1.5413
30
0
0
VERTEX
8
WATERMARK
10
-12.38632
20
1.54113
30
0
0
VERTEX
8
WATERMARK
10
-12.38278
20
1.53759
30
0
0
VERTEX
8
WATERMARK
10
-12.38261
20
-0.89328
30
0
0
VERTEX
8
WATERMARK
10
-12.49205
20
-1.27643
30
0
0
VERTEX
8
WATERMARK
10
-12.7645
20
-1.45844
30
0
0
VERTEX
8
WATERMARK
10
-12.98707
20
-1.45853
30
0
0
VERTEX
8
WATERMARK
10
-13.19846
20
-1.19585
30
0
0
VERTEX
8
WATERMARK
10
-13.24132
20
-1.15013
30
0
0
VERTEX
8
WATERMARK
10
-13.29087
20
-1.1116
30
0
0
VERTEX
8
WATERMARK
10
-13.34583
20
-1.0813
30
0
0
VERTEX
8
WATERMARK
10
-13.40486
20
-1.05996
30
0
0
VERTEX
8
WATERMARK
10
-13.4665
20
-1.04813
30
0
0
VERTEX
8
WATERMARK
10
-13.52924
20
-1.04608
30
0
0
VERTEX
8
WATERMARK
10
-13.59152
20
-1.05388
30
0
0
VERTEX
8
WATERMARK
10
-13.65181
20
-1.07131
30
0
0
VERTEX
8
WATERMARK
10
-13.70863
20
-1.09797
30
0
0
VERTEX
8
WATERMARK
10
-13.76059
20
-1.13319
30
0
0
VERTEX
8
WATERMARK
10
-13.80639
20
-1.1761
30
0
0
VERTEX
8
WATERMARK
10
-13.84492
20
-1.22565
30
0
0
VERTEX
8
WATERMARK
10
-13.87522
20
-1.28061
30
0
0
VERTEX
8
WATERMARK
10
-13.89656
20
-1.33964
30
0
0
VERTEX
8
WATERMARK
10
-13.90839
20
-1.40128
30
0
0
VERTEX
8
WATERMARK
10
-13.91044
20
-1.46402
30
0
0
VERTEX
8
WATERMARK
10
-13.90264
20
-1.5263
30
0
0
VERTEX
8
WATERMARK
10
-13.88521
20
-1.58659
30
0
0
VERTEX
8
WATERMARK
10
-13.85855
20
-1.64341
30
0
0
VERTEX
8
WATERMARK
10
-13.82328
20
-1.69545
30
0
0
VERTEX
8
WATERMARK
10
-13.49284
20
-2.1085
30
0
0
VERTEX
8
WATERMARK
10
-13.45225
20
-2.15213
30
0
0
VERTEX
8
WATERMARK
10
-13.40557
20
-2.18931
30
0
0
VERTEX
8
WATERMARK
10
-13.35387
20
-2.21912
30
0
0
VERTEX
8
WATERMARK
10
-13.29831
20
-2.24092
30
0
0
VERTEX
8
WATERMARK
10
-13.24013
20
-2.25421
30
0
0
VERTEX
8
WATERMARK
10
-13.18052
20
-2.25869
30
0
0
VERTEX
8
WATERMARK
10
-12.64357
20
-2.2587
30
0
0
VERTEX
8
WATERMARK
10
-12.58507
20
-2.2544
30
0
0
VERTEX
8
WATERMARK
10
-12.52775
20
-2.24158
30
0
0
VERTEX
8
WATERMARK
10
-12.47291
20
-2.2205
30
0
0
VERTEX
8
WATERMARK
10
-12.42168
20
-2.19157
30
0
0
VERTEX
8
WATERMARK
10
-11.92602
20
-1.86113
30
0
0
VERTEX
8
WATERMARK
10
-11.88155
20
-1.82673
30
0
0
VERTEX
8
WATERMARK
10
-11.84227
20
-1.78638
30
0
0
VERTEX
8
WATERMARK
10
-11.80905
20
-1.74091
30
0
0
VERTEX
8
WATERMARK
10
-11.78255
20
-1.69123
30
0
0
VERTEX
8
WATERMARK
10
-11.76325
20
-1.63823
30
0
0
VERTEX
8
WATERMARK
10
-11.59802
20
-1.05997
30
0
0
VERTEX
8
WATERMARK
10
-11.58651
20
-1.00565
30
0
0
VERTEX
8
WATERMARK
10
-11.58262
20
-0.95009
30
0
0
VERTEX
8
WATERMARK
10
-11.58261
20
1.94119
30
0
0
VERTEX
8
WATERMARK
10
-11.58867
20
2.01054
30
0
0
VERTEX
8
WATERMARK
10
-11.60668
20
2.0779
30
0
0
VERTEX
8
WATERMARK
10
-11.63611
20
2.1411
30
0
0
VERTEX
8
WATERMARK
10
-11.67607
20
2.19824
30
0
0
VERTEX
8
WATERMARK
10
-11.72534
20
2.24756
30
0
0
VERTEX
8
WATERMARK
10
-11.78243
20
2.28758
30
0
0
VERTEX
8
WATERMARK
10
-11.8456
20
2.31708
30
0
0
VERTEX
8
WATERMARK
10
-11.91294
20
2.33517
30
0
0
VERTEX
8
WATERMARK
10
-11.9825
20
2.34129
30
0
0
VERTEX
8
WATERMARK
10
-13.51686
20
2.34147
30
0
0
VERTEX
8
WATERMARK
10
-13.5204
20
2.34501
30
0
0
VERTEX
8
WATERMARK
10
-13.5204
20
2.34759
30
0
0
VERTEX
8
WATERMARK
10
-12.9126
20
3.39933
30
0
0
VERTEX
8
WATERMARK
10
-8.9886
20
3.39983
30
0
0
VERTEX
8
WATERMARK
10
-8.98636
20
3.39854
30
0
0
VERTEX
8
WATERMARK
10
-8.2651
20
2.14927
30
0
0
VERTEX
8
WATERMARK
10
-8.26639
20
2.14444
30
0
0
VERTEX
8
WATERMARK
10
-8.27122
20
2.14315
30
0
0
VERTEX
8
WATERMARK
10
-8.76202
20
2.36393
30
0
0
VERTEX
8
WATERMARK
10
-8.81465
20
2.38328
30
0
0
VERTEX
8
WATERMARK
10
-8.86972
20
2.39513
30
0
0
VERTEX
8
WATERMARK
10
-8.926
20
2.39912
30
0
0
VERTEX
8
WATERMARK
10
-9.75207
20
2.39913
30
0
0
VERTEX
8
WATERMARK
10
-9.81652
20
2.39391
30
0
0
VERTEX
8
WATERMARK
10
-9.87938
20
2.37835
30
0
0
VERTEX
8
WATERMARK
10
-9.93901
20
2.35281
30
0
0
VERTEX
8
WATERMARK
10
-10.51728
20
2.04716
30
0
0
VERTEX
8
WATERMARK
10
-10.56741
20
2.01571
30
0
0
VERTEX
8
WATERMARK
10
-10.61242
20
1.97716
30
0
0
VERTEX
8
WATERMARK
10
-10.65124
20
1.93238
30
0
0
VERTEX
8
WATERMARK
10
-10.68302
20
1.88235
30
0
0
VERTEX
8
WATERMARK
10
-10.70709
20
1.82809
30
0
0
VERTEX
8
WATERMARK
10
-10.91362
20
1.24984
30
0
0
VERTEX
8
WATERMARK
10
-10.92986
20
1.19014
30
0
0
VERTEX
8
WATERMARK
10
-10.93672
20
1.12855
30
0
0
VERTEX
8
WATERMARK
10
-10.93398
20
1.06664
30
0
0
VERTEX
8
WATERMARK
10
-10.92171
20
1.00589
30
0
0
VERTEX
8
WATERMARK
10
-10.90017
20
0.94768
30
0
0
VERTEX
8
WATERMARK
10
-10.65235
20
0.41073
30
0
0
VERTEX
8
WATERMARK
10
-10.62082
20
0.35472
30
0
0
VERTEX
8
WATERMARK
10
-10.58066
20
0.30441
30
0
0
VERTEX
8
WATERMARK
10
-10.53296
20
0.26119
30
0
0
VERTEX
8
WATERMARK
10
-10.47885
20
0.22612
30
0
0
VERTEX
8
WATERMARK
10
-9.94188
20
-0.06302
30
0
0
VERTEX
8
WATERMARK
10
-9.89676
20
-0.08382
30
0
0
VERTEX
8
WATERMARK
10
-9.84926
20
-0.09891
30
0
0
VERTEX
8
WATERMARK
10
-9.243
20
-0.25068
30
0
0
VERTEX
8
WATERMARK
10
-8.90038
20
-0.45074
30
0
0
VERTEX
8
WATERMARK
10
-8.76871
20
-0.71392
30
0
0
VERTEX
8
WATERMARK
10
-8.83824
20
-1.03961
30
0
0
VERTEX
8
WATERMARK
10
-9.13464
20
-1.33609
30
0
0
VERTEX
8
WATERMARK
10
-9.69016
20
-1.49057
30
0
0
VERTEX
8
WATERMARK
10
-10.34738
20
-1.38152
30
0
0
VERTEX
8
WATERMARK
10
-10.40962
20
-1.37612
30
0
0
VERTEX
8
WATERMARK
10
-10.47223
20
-1.38051
30
0
0
VERTEX
8
WATERMARK
10
-10.53338
20
-1.39463
30
0
0
VERTEX
8
WATERMARK
10
-10.59157
20
-1.41816
30
0
0
VERTEX
8
WATERMARK
10
-10.64537
20
-1.45049
30
0
0
VERTEX
8
WATERMARK
10
-10.69344
20
-1.49085
30
0
0
VERTEX
8
WATERMARK
10
-10.73461
20
-1.53822
30
0
0
VERTEX
8
WATERMARK
10
-10.76786
20
-1.59146
30
0
0
VERTEX
8
WATERMARK
10
-10.79238
20
-1.64924
30
0
0
VERTEX
8
WATERMARK
10
-10.80755
20
-1.71013
30
0
0
VERTEX
8
WATERMARK
10
-10.81301
20
-1.77962
30
0
0
VERTEX
8
WATERMARK
10
-10.80632
20
-1.84902
30
0
0
VERTEX
8
WATERMARK
10
-10.78767
20
-1.91621
30
0
0
VERTEX
8
WATERMARK
10
-10.75765
20
-1.97913
30
0
0
VERTEX
8
WATERMARK
10
-10.71716
20
-2.03589
30
0
0
VERTEX
8
WATERMARK
10
-10.66742
20
-2.08475
30
0
0
VERTEX
8
WATERMARK
10
-10.60996
20
-2.12423
30
0
0
VERTEX
8
WATERMARK
10
-10.54651
20
-2.15314
30
0
0
VERTEX
8
WATERMARK
10
-10.47891
20
-2.17061
30
0
0
VERTEX
8
WATERMARK
10
-9.73541
20
-2.29455
30
0
0
VERTEX
8
WATERMARK
10
-9.67766
20
-2.29991
30
0
0
VERTEX
8
WATERMARK
10
-9.61965
20
-2.29686
30
0
0
VERTEX
8
WATERMARK
10
-9.5626
20
-2.28543
30
0
0
VERTEX
8
WATERMARK
10
-8.81913
20
-2.07892
30
0
0
VERTEX
8
WATERMARK
10
-8.75503
20
-2.05504
30
0
0
VERTEX
8
WATERMARK
10
-8.69584
20
-2.02055
30
0
0
VERTEX
8
WATERMARK
10
-8.64332
20
-1.97639
30
0
0
VERTEX
8
WATERMARK
10
-8.18896
20
-1.52203
30
0
0
VERTEX
8
WATERMARK
10
-8.15146
20
-1.47873
30
0
0
VERTEX
8
WATERMARK
10
-8.12047
20
-1.43043
30
0
0
VERTEX
8
WATERMARK
10
-8.09671
20
-1.3782
30
0
0
VERTEX
8
WATERMARK
10
-8.08065
20
-1.32303
30
0
0
VERTEX
8
WATERMARK
10
-7.95673
20
-0.74478
30
0
0
VERTEX
8
WATERMARK
10
-7.94822
20
-0.67804
30
0
0
VERTEX
8
WATERMARK
10
-7.95101
20
-0.6107
30
0
0
VERTEX
8
WATERMARK
10
-7.96506
20
-0.54479
30
0
0
VERTEX
8
WATERMARK
10
-7.99002
20
-0.48208
30
0
0
VERTEX
8
WATERMARK
10
-8.23784
20
0.01359
30
0
0
VERTEX
8
WATERMARK
10
-8.26734
20
0.06325
30
0
0
VERTEX
8
WATERMARK
10
-8.30373
20
0.10823
30
0
0
VERTEX
8
WATERMARK
10
-8.34623
20
0.14748
30
0
0
VERTEX
8
WATERMARK
10
-8.39403
20
0.18024
30
0
0
VERTEX
8
WATERMARK
10
-8.88968
20
0.46938
30
0
0
VERTEX
8
WATERMARK
10
-8.94036
20
0.49432
30
0
0
VERTEX
8
WATERMARK
10
-8.99421
20
0.51194
30
0
0
VERTEX
8
WATERMARK
10
-9.60599
20
0.6649
30
0
0
VERTEX
8
WATERMARK
10
-9.9815
20
0.86711
30
0
0
VERTEX
8
WATERMARK
10
-10.10485
20
1.13391
30
0
0
VERTEX
8
WATERMARK
10
-10.0061
20
1.41184
30
0
0
VERTEX
8
WATERMARK
10
-9.65283
20
1.599
30
0
0
VERTEX
8
WATERMARK
10
-9.01301
20
1.59913
30
0
0
VERTEX
8
WATERMARK
10
-8.59448
20
1.41128
30
0
0
VERTEX
8
WATERMARK
10
-8.52853
20
1.38832
30
0
0
VERTEX
8
WATERMARK
10
-8.45971
20
1.37718
30
0
0
VERTEX
8
WATERMARK
10
-8.38999
20
1.37816
30
0
0
VERTEX
8
WATERMARK
10
-8.32151
20
1.39123
30
0
0
VERTEX
8
WATERMARK
10
-8.25633
20
1.41599
30
0
0
VERTEX
8
WATERMARK
10
-8.19645
20
1.45169
30
0
0
VERTEX
8
WATERMARK
10
-8.14367
20
1.49725
30
0
0
VERTEX
8
WATERMARK
10
-8.09985
20
1.55092
30
0
0
VERTEX
8
WATERMARK
10
-8.06578
20
1.61175
30
0
0
VERTEX
8
WATERMARK
10
-8.04295
20
1.67691
30
0
0
VERTEX
8
WATERMARK
10
-8.03353
20
1.73269
30
0
0
VERTEX
8
WATERMARK
10
-8.02946
20
1.7356
30
0
0
VERTEX
8
WATERMARK
10
-8.02491
20
1.73354
30
0
0
VERTEX
8
WATERMARK
10
-7.02496
20
0.00129
30
0
0
VERTEX
8
WATERMARK
10
-7.02496
20
-0.00129
30
0
0
VERTEX
8
WATERMARK
10
-8.9874
20
-3.39933
30
0
0
SEQEND
8
WATERMARK
0
POLYLINE
8
WATERMARK
66
1
70
1
0
VERTEX
8
WATERMARK
10
4.16801
20
0.90424
30
0
0
VERTEX
8
WATERMARK
10
4.22498
20
0.9169
30
0
0
VERTEX
8
WATERMARK
10
4.27949
20
0.9377
30
0
0
VERTEX
8
WATERMARK
10
4.3304
20
0.96622
30
0
0
VERTEX
8
WATERMARK
10
4.37662
20
1.00183
30
0
0
VERTEX
8
WATERMARK
10
4.41723
20
1.04386
30
0
0
VERTEX
8
WATERMARK
10
4.85722
20
1.57185
30
0
0
VERTEX
8
WATERMARK
10
4.89679
20
1.62871
30
0
0
VERTEX
8
WATERMARK
10
4.92602
20
1.69163
30
0
0
VERTEX
8
WATERMARK
10
4.94393
20
1.75867
30
0
0
VERTEX
8
WATERMARK
10
4.94999
20
1.82789
30
0
0
VERTEX
8
WATERMARK
10
4.95
20
3.69989
30
0
0
VERTEX
8
WATERMARK
10
4.94394
20
3.76924
30
0
0
VERTEX
8
WATERMARK
10
4.92593
20
3.8366
30
0
0
VERTEX
8
WATERMARK
10
4.8965
20
3.8998
30
0
0
VERTEX
8
WATERMARK
10
4.85654
20
3.95694
30
0
0
VERTEX
8
WATERMARK
10
4.80727
20
4.00626
30
0
0
VERTEX
8
WATERMARK
10
4.75018
20
4.04628
30
0
0
VERTEX
8
WATERMARK
10
4.68701
20
4.07578
30
0
0
VERTEX
8
WATERMARK
10
4.61967
20
4.09387
30
0
0
VERTEX
8
WATERMARK
10
4.55022
20
4.09998
30
0
0
VERTEX
8
WATERMARK
10
4.48076
20
4.09394
30
0
0
VERTEX
8
WATERMARK
10
4.4134
20
4.07593
30
0
0
VERTEX
8
WATERMARK
10
4.3502
20
4.0465
30
0
0
VERTEX
8
WATERMARK
10
4.29306
20
4.00654
30
0
0
VERTEX
8
WATERMARK
10
4.24374
20
3.95727
30
0
0
VERTEX
8
WATERMARK
10
4.20372
20
3.90018
30
0
0
VERTEX
8
WATERMARK
10
4.17422
20
3.83701
30
0
0
VERTEX
8
WATERMARK
10
4.15613
20
3.76967
30
0
0
VERTEX
8
WATERMARK
10
4.15001
20
3.70011
30
0
0
VERTEX
8
WATERMARK
10
4.14983
20
1.97334
30
0
0
VERTEX
8
WATERMARK
10
3.92319
20
1.70091
30
0
0
VERTEX
8
WATERMARK
10
3.1784
20
1.70017
30
0
0
VERTEX
8
WATERMARK
10
2.95046
20
1.97253
30
0
0
VERTEX
8
WATERMARK
10
2.94999
20
3.70011
30
0
0
VERTEX
8
WATERMARK
10
2.94387
20
3.76967
30
0
0
VERTEX
8
WATERMARK
10
2.92593
20
3.8366
30
0
0
VERTEX
8
WATERMARK
10
2.8965
20
3.8998
30
0
0
VERTEX
8
WATERMARK
10
2.85654
20
3.95694
30
0
0
VERTEX
8
WATERMARK
10
2.80727
20
4.00626
30
0
0
VERTEX
8
WATERMARK
10
2.75018
20
4.04628
30
0
0
VERTEX
8
WATERMARK
10
2.68701
20
4.07578
30
0
0
VERTEX
8
WATERMARK
10
2.61967
20
4.09387
30
0
0
VERTEX
8
WATERMARK
10
2.55022
20
4.09998
30
0
0
VERTEX
8
WATERMARK
10
2.48076
20
4.09394
30
0
0
VERTEX
8
WATERMARK
10
2.4134
20
4.07593
30
0
0
VERTEX
8
WATERMARK
10
2.3502
20
4.0465
30
0
0
VERTEX
8
WATERMARK
10
2.29306
20
4.00654
30
0
0
VERTEX
8
WATERMARK
10
2.24374
20
3.95727
30
0
0
VERTEX
8
WATERMARK
10
2.20372
20
3.90018
30
0
0
VERTEX
8
WATERMARK
10
2.17422
20
3.83701
30
0
0
VERTEX
8
WATERMARK
10
2.15613
20
3.76967
30
0
0
VERTEX
8
WATERMARK
10
2.15001
20
3.70011
30
0
0
VERTEX
8
WATERMARK
10
2.15
20
1.82811
30
0
0
VERTEX
8
WATERMARK
10
2.156
20
1.75909
30
0
0
VERTEX
8
WATERMARK
10
2.17384
20
1.69204
30
0
0
VERTEX
8
WATERMARK
10
2.20299
20
1.62908
30
0
0
VERTEX
8
WATERMARK
10
2.24265
20
1.57202
30
0
0
VERTEX
8
WATERMARK
10
2.68265
20
1.044
30
0
0
VERTEX
8
WATERMARK
10
2.72311
20
1.00208
30
0
0
VERTEX
8
WATERMARK
10
2.76929
20
0.96642
30
0
0
VERTEX
8
WATERMARK
10
2.82018
20
0.93785
30
0
0
VERTEX
8
WATERMARK
10
2.87467
20
0.917
30
0
0
VERTEX
8
WATERMARK
10
2.93162
20
0.9043
30
0
0
VERTEX
8
WATERMARK
10
2.98991
20
0.90001
30
0
0
VERTEX
8
WATERMARK
10
4.10991
20
0.9
30
0
0
SEQEND
8
WATERMARK
0
POLYLINE
8
WATERMARK
66
1
70
1
0
VERTEX
8
WATERMARK
10
1.21924
20
-1.89394
30
0
0
VERTEX
8
WATERMARK
10
1.2866
20
-1.87593
30
0
0
VERTEX
8
WATERMARK
10
1.3498
20
-1.8465
30
0
0
VERTEX
8
WATERMARK
10
1.40694
20
-1.80654
30
0
0
VERTEX
8
WATERMARK
10
1.45626
20
-1.75727
30
0
0
VERTEX
8
WATERMARK
10
1.49628
20
-1.70018
30
0
0
VERTEX
8
WATERMARK
10
1.52578
20
-1.63701
30
0
0
VERTEX
8
WATERMARK
10
1.54387
20
-1.56967
30
0
0
VERTEX
8
WATERMARK
10
1.54998
20
-1.50021
30
0
0
VERTEX
8
WATERMARK
10
1.54509
20
-1.43762
30
0
0
VERTEX
8
WATERMARK
10
1.53047
20
-1.37658
30
0
0
VERTEX
8
WATERMARK
10
1.50648
20
-1.31859
30
0
0
VERTEX
8
WATERMARK
10
1.47371
20
-1.26505
30
0
0
VERTEX
8
WATERMARK
10
1.43297
20
-1.21731
30
0
0
VERTEX
8
WATERMARK
10
1.38526
20
-1.17652
30
0
0
VERTEX
8
WATERMARK
10
1.33176
20
-1.1437
30
0
0
VERTEX
8
WATERMARK
10
1.27379
20
-1.11965
30
0
0
VERTEX
8
WATERMARK
10
1.21276
20
-1.10497
30
0
0
VERTEX
8
WATERMARK
10
1.1501
20
-1.10001
30
0
0
VERTEX
8
WATERMARK
10
0.75371
20
-1.09983
30
0
0
VERTEX
8
WATERMARK
10
0.75017
20
-1.09629
30
0
0
VERTEX
8
WATERMARK
10
0.75067
20
-0.5025
30
0
0
VERTEX
8
WATERMARK
10
0.7525
20
-0.50067
30
0
0
VERTEX
8
WATERMARK
10
1.1501
20
-0.49999
30
0
0
VERTEX
8
WATERMARK
10
1.21238
20
-0.49509
30
0
0
VERTEX
8
WATERMARK
10
1.27342
20
-0.48047
30
0
0
VERTEX
8
WATERMARK
10
1.33141
20
-0.45648
30
0
0
VERTEX
8
WATERMARK
10
1.38495
20
-0.42371
30
0
0
VERTEX
8
WATERMARK
10
1.43269
20
-0.38297
30
0
0
VERTEX
8
WATERMARK
10
1.47348
20
-0.33526
30
0
0
VERTEX
8
WATERMARK
10
1.5063
20
-0.28176
30
0
0
VERTEX
8
WATERMARK
10
1.53035
20
-0.22379
30
0
0
VERTEX
8
WATERMARK
10
1.54503
20
-0.16276
30
0
0
VERTEX
8
WATERMARK
10
1.54998
20
-0.1002
30
0
0
VERTEX
8
WATERMARK
10
1.54509
20
-0.03762
30
0
0
VERTEX
8
WATERMARK
10
1.53047
20
0.02342
30
0
0
VERTEX
8
WATERMARK
10
1.50648
20
0.08141
30
0
0
VERTEX
8
WATERMARK
10
1.47371
20
0.13495
30
0
0
VERTEX
8
WATERMARK
10
1.43297
20
0.18269
30
0
0
VERTEX
8
WATERMARK
10
1.38526
20
0.22348
30
0
0
VERTEX
8
WATERMARK
10
1.33176
20
0.2563
30
0
0
VERTEX
8
WATERMARK
10
1.27379
20
0.28035
30
0
0
VERTEX
8
WATERMARK
10
1.21276
20
0.29503
30
0
0
VERTEX
8
WATERMARK
10
1.1501
20
0.29999
30
0
0
VERTEX
8
WATERMARK
10
-0.44989
20
0.3
30
0
0
VERTEX
8
WATERMARK
10
-0.51924
20
0.29394
30
0
0
VERTEX
8
WATERMARK
10
-0.5866
20
0.27593
30
0
0
VERTEX
8
WATERMARK
10
-0.6498
20
0.2465
30
0
0
VERTEX
8
WATERMARK
10
-0.70694
20
0.20654
30
0
0
VERTEX
8
WATERMARK
10
-0.75626
20
0.15727
30
0
0
VERTEX
8
WATERMARK
10
-0.79628
20
0.10018
30
0
0
VERTEX
8
WATERMARK
10
-0.82578
20
0.03701
30
0
0
VERTEX
8
WATERMARK
10
-0.84387
20
-0.03033
30
0
0
VERTEX
8
WATERMARK
10
-0.84998
20
-0.09978
30
0
0
VERTEX
8
WATERMARK
10
-0.84394
20
-0.16924
30
0
0
VERTEX
8
WATERMARK
10
-0.82593
20
-0.2366
30
0
0
VERTEX
8
WATERMARK
10
-0.7965
20
-0.2998
30
0
0
VERTEX
8
WATERMARK
10
-0.75654
20
-0.35694
30
0
0
VERTEX
8
WATERMARK
10
-0.70727
20
-0.40626
30
0
0
VERTEX
8
WATERMARK
10
-0.65018
20
-0.44628
30
0
0
VERTEX
8
WATERMARK
10
-0.58701
20
-0.47578
30
0
0
VERTEX
8
WATERMARK
10
-0.51967
20
-0.49387
30
0
0
VERTEX
8
WATERMARK
10
-0.45011
20
-0.49999
30
0
0
VERTEX
8
WATERMARK
10
-0.05371
20
-0.50017
30
0
0
VERTEX
8
WATERMARK
10
-0.05017
20
-0.50371
30
0
0
VERTEX
8
WATERMARK
10
-0.05067
20
-1.0975
30
0
0
VERTEX
8
WATERMARK
10
-0.0525
20
-1.09933
30
0
0
VERTEX
8
WATERMARK
10
-0.45011
20
-1.10001
30
0
0
VERTEX
8
WATERMARK
10
-0.51967
20
-1.10613
30
0
0
VERTEX
8
WATERMARK
10
-0.5866
20
-1.12407
30
0
0
VERTEX
8
WATERMARK
10
-0.6498
20
-1.1535
30
0
0
VERTEX
8
WATERMARK
10
-0.70694
20
-1.19346
30
0
0
VERTEX
8
WATERMARK
10
-0.75626
20
-1.24273
30
0
0
VERTEX
8
WATERMARK
10
-0.79628
20
-1.29982
30
0
0
VERTEX
8
WATERMARK
10
-0.82578
20
-1.36299
30
0
0
VERTEX
8
WATERMARK
10
-0.84387
20
-1.43033
30
0
0
VERTEX
8
WATERMARK
10
-0.84998
20
-1.49978
30
0
0
VERTEX
8
WATERMARK
10
-0.84394
20
-1.56924
30
0
0
VERTEX
8
WATERMARK
10
-0.82593
20
-1.6366
30
0
0
VERTEX
8
WATERMARK
10
-0.7965
20
-1.6998
30
0
0
VERTEX
8
WATERMARK
10
-0.75654
20
-1.75694
30
0
0
VERTEX
8
WATERMARK
10
-0.70727
20
-1.80626
30
0
0
VERTEX
8
WATERMARK
10
-0.65018
20
-1.84628
30
0
0
VERTEX
8
WATERMARK
10
-0.58701
20
-1.87578
30
0
0
VERTEX
8
WATERMARK
10
-0.51967
20
-1.89387
30
0
0
VERTEX
8
WATERMARK
10
-0.45011
20
-1.89999
30
0
0
VERTEX
8
WATERMARK
10
1.14989
20
-1.9
30
0
0
SEQEND
8
WATERMARK
0
POLYLINE
8
WATERMARK
66
1
70
1
0
VERTEX
8
WATERMARK
10
10.21238
20
-1.89509
30
0
0
VERTEX
8
WATERMARK
10
10.27342
20
-1.88047
30
0
0
VERTEX
8
WATERMARK
10
10.33141
20
-1.85648
30
0
0
VERTEX
8
WATERMARK
10
10.38495
20
-1.82371
30
0
0
VERTEX
8
WATERMARK
10
10.43269
20
-1.78297
30
0
0
VERTEX
8
WATERMARK
10
10.47348
20
-1.73526
30
0
0
VERTEX
8
WATERMARK
10
10.5063
20
-1.68176
30
0
0
VERTEX
8
WATERMARK
10
10.53035
20
-1.62379
30
0
0
VERTEX
8
WATERMARK
10
10.54503
20
-1.56276
30
0
0
VERTEX
8
WATERMARK
10
10.54999
20
-1.5001
30
0
0
VERTEX
8
WATERMARK
10
10.55
20
-0.1001
30
0
0
VERTEX
8
WATERMARK
10
10.54509
20
-0.03762
30
0
0
VERTEX
8
WATERMARK
10
10.53047
20
0.02342
30
0
0
VERTEX
8
WATERMARK
10
10.50648
20
0.08141
30
0
0
VERTEX
8
WATERMARK
10
10.47371
20
0.13495
30
0
0
VERTEX
8
WATERMARK
10
10.43297
20
0.18269
30
0
0
VERTEX
8
WATERMARK
10
10.38526
20
0.22348
30
0
0
VERTEX
8
WATERMARK
10
10.33176
20
0.2563
30
0
0
VERTEX
8
WATERMARK
10
10.27379
20
0.28035
30
0
0
VERTEX
8
WATERMARK
10
10.21276
20
0.29503
30
0
0
VERTEX
8
WATERMARK
10
10.1501
20
0.29999
30
0
0
VERTEX
8
WATERMARK
10
8.5501
20
0.3
30
0
0
VERTEX
8
WATERMARK
10
8.48762
20
0.29509
30
0
0
VERTEX
8
WATERMARK
10
8.42658
20
0.28047
30
0
0
VERTEX
8
WATERMARK
10
8.36859
20
0.25648
30
0
0
VERTEX
8
WATERMARK
10
8.31505
20
0.22371
30
0
0
VERTEX
8
WATERMARK
10
8.26731
20
0.18297
30
0
0
VERTEX
8
WATERMARK
10
8.22652
20
0.13526
30
0
0
VERTEX
8
WATERMARK
10
8.1937
20
0.08176
30
0
0
VERTEX
8
WATERMARK
10
8.16965
20
0.02379
30
0
0
VERTEX
8
WATERMARK
10
8.15497
20
-0.03724
30
0
0
VERTEX
8
WATERMARK
10
8.15001
20
-0.0999
30
0
0
VERTEX
8
WATERMARK
10
8.15
20
-1.4999
30
0
0
VERTEX
8
WATERMARK
10
8.15491
20
-1.56238
30
0
0
VERTEX
8
WATERMARK
10
8.16953
20
-1.62342
30
0
0
VERTEX
8
WATERMARK
10
8.19352
20
-1.68141
30
0
0
VERTEX
8
WATERMARK
10
8.22629
20
-1.73495
30
0
0
VERTEX
8
WATERMARK
10
8.26703
20
-1.78269
30
0
0
VERTEX
8
WATERMARK
10
8.31474
20
-1.82348
30
0
0
VERTEX
8
WATERMARK
10
8.36824
20
-1.8563
30
0
0
VERTEX
8
WATERMARK
10
8.42621
20
-1.88035
30
0
0
VERTEX
8
WATERMARK
10
8.48724
20
-1.89503
30
0
0
VERTEX
8
WATERMARK
10
8.5499
20
-1.89999
30
0
0
VERTEX
8
WATERMARK
10
10.1499
20
-1.9
30
0
0
SEQEND
8
WATERMARK
0
POLYLINE
8
WATERMARK
66
1
70
1
0
VERTEX
8
WATERMARK
10
8.95371
20
-1.09983
30
0
0
VERTEX
8
WATERMARK
10
8.95017
20
-1.09629
30
0
0
VERTEX
8
WATERMARK
10
8.95017
20
-0.50371
30
0
0
VERTEX
8
WATERMARK
10
8.95371
20
-0.50017
30
0
0
VERTEX
8
WATERMARK
10
9.7475
20
-0.50067
30
0
0
VERTEX
8
WATERMARK
10
9.74933
20
-0.5025
30
0
0
VERTEX
8
WATERMARK
10
9.74983
20
-1.09629
30
0
0
VERTEX
8
WATERMARK
10
9.74629
20
-1.09983
30
0
0
SEQEND
8
WATERMARK
0
POLYLINE
8
WATERMARK
66
1
70
1
0
VERTEX
8
WATERMARK
10
4.21762
20
-1.89423
30
0
0
VERTEX
8
WATERMARK
10
4.28349
20
-1.87705
30
0
0
VERTEX
8
WATERMARK
10
4.34549
20
-1.84895
30
0
0
VERTEX
8
WATERMARK
10
4.40183
20
-1.81075
30
0
0
VERTEX
8
WATERMARK
10
4.45089
20
-1.76354
30
0
0
VERTEX
8
WATERMARK
10
4.48555
20
-1.7177
30
0
0
VERTEX
8
WATERMARK
10
4.51328
20
-1.66738
30
0
0
VERTEX
8
WATERMARK
10
4.53351
20
-1.6136
30
0
0
VERTEX
8
WATERMARK
10
4.54583
20
-1.55748
30
0
0
VERTEX
8
WATERMARK
10
4.54999
20
-1.50009
30
0
0
VERTEX
8
WATERMARK
10
4.55
20
-0.10011
30
0
0
VERTEX
8
WATERMARK
10
4.54394
20
-0.03076
30
0
0
VERTEX
8
WATERMARK
10
4.52593
20
0.0366
30
0
0
VERTEX
8
WATERMARK
10
4.4965
20
0.0998
30
0
0
VERTEX
8
WATERMARK
10
4.45654
20
0.15694
30
0
0
VERTEX
8
WATERMARK
10
4.40727
20
0.20626
30
0
0
VERTEX
8
WATERMARK
10
4.35018
20
0.24628
30
0
0
VERTEX
8
WATERMARK
10
4.28701
20
0.27578
30
0
0
VERTEX
8
WATERMARK
10
4.21967
20
0.29387
30
0
0
VERTEX
8
WATERMARK
10
4.15021
20
0.29998
30
0
0
VERTEX
8
WATERMARK
10
4.08762
20
0.29509
30
0
0
VERTEX
8
WATERMARK
10
4.02658
20
0.28047
30
0
0
VERTEX
8
WATERMARK
10
3.96859
20
0.25648
30
0
0
VERTEX
8
WATERMARK
10
3.91505
20
0.22371
30
0
0
VERTEX
8
WATERMARK
10
3.86731
20
0.18297
30
0
0
VERTEX
8
WATERMARK
10
3.82652
20
0.13526
30
0
0
VERTEX
8
WATERMARK
10
3.7937
20
0.08176
30
0
0
VERTEX
8
WATERMARK
10
3.76965
20
0.02379
30
0
0
VERTEX
8
WATERMARK
10
3.75497
20
-0.03724
30
0
0
VERTEX
8
WATERMARK
10
3.75001
20
-0.0999
30
0
0
VERTEX
8
WATERMARK
10
3.74983
20
-0.60877
30
0
0
VERTEX
8
WATERMARK
10
3.74629
20
-0.6123
30
0
0
VERTEX
8
WATERMARK
10
3.74371
20
-0.6123
30
0
0
VERTEX
8
WATERMARK
10
2.81333
20
0.20108
30
0
0
VERTEX
8
WATERMARK
10
2.7674
20
0.23575
30
0
0
VERTEX
8
WATERMARK
10
2.71738
20
0.26328
30
0
0
VERTEX
8
WATERMARK
10
2.6636
20
0.28351
30
0
0
VERTEX
8
WATERMARK
10
2.60748
20
0.29583
30
0
0
VERTEX
8
WATERMARK
10
2.5502
20
0.29999
30
0
0
VERTEX
8
WATERMARK
10
2.48238
20
0.29422
30
0
0
VERTEX
8
WATERMARK
10
2.41651
20
0.27705
30
0
0
VERTEX
8
WATERMARK
10
2.35451
20
0.24895
30
0
0
VERTEX
8
WATERMARK
10
2.29817
20
0.21075
30
0
0
VERTEX
8
WATERMARK
10
2.24911
20
0.16354
30
0
0
VERTEX
8
WATERMARK
10
2.21445
20
0.1177
30
0
0
VERTEX
8
WATERMARK
10
2.18672
20
0.06738
30
0
0
VERTEX
8
WATERMARK
10
2.16649
20
0.0136
30
0
0
VERTEX
8
WATERMARK
10
2.15417
20
-0.04252
30
0
0
VERTEX
8
WATERMARK
10
2.15001
20
-0.09991
30
0
0
VERTEX
8
WATERMARK
10
2.15
20
-1.49989
30
0
0
VERTEX
8
WATERMARK
10
2.15606
20
-1.56924
30
0
0
VERTEX
8
WATERMARK
10
2.17407
20
-1.6366
30
0
0
VERTEX
8
WATERMARK
10
2.2035
20
-1.6998
30
0
0
VERTEX
8
WATERMARK
10
2.24346
20
-1.75694
30
0
0
VERTEX
8
WATERMARK
10
2.29273
20
-1.80626
30
0
0
VERTEX
8
WATERMARK
10
2.34982
20
-1.84628
30
0
0
VERTEX
8
WATERMARK
10
2.41299
20
-1.87578
30
0
0
VERTEX
8
WATERMARK
10
2.48033
20
-1.89387
30
0
0
VERTEX
8
WATERMARK
10
2.54979
20
-1.89998
30
0
0
VERTEX
8
WATERMARK
10
2.61238
20
-1.89509
30
0
0
VERTEX
8
WATERMARK
10
2.67342
20
-1.88047
30
0
0
VERTEX
8
WATERMARK
10
2.73141
20
-1.85648
30
0
0
VERTEX
8
WATERMARK
10
2.78495
20
-1.82371
30
0
0
VERTEX
8
WATERMARK
10
2.83269
20
-1.78297
30
0
0
VERTEX
8
WATERMARK
10
2.87348
20
-1.73526
30
0
0
VERTEX
8
WATERMARK
10
2.9063
20
-1.68176
30
0
0
VERTEX
8
WATERMARK
10
2.93035
20
-1.62379
30
0
0
VERTEX
8
WATERMARK
10
2.94503
20
-1.56276
30
0
0
VERTEX
8
WATERMARK
10
2.94999
20
-1.5001
30
0
0
VERTEX
8
WATERMARK
10
2.95017
20
-0.99123
30
0
0
VERTEX
8
WATERMARK
10
2.95371
20
-0.9877
30
0
0
VERTEX
8
WATERMARK
10
2.95629
20
-0.9877
30
0
0
VERTEX
8
WATERMARK
10
3.88667
20
-1.80108
30
0
0
VERTEX
8
WATERMARK
10
3.9326
20
-1.83575
30
0
0
VERTEX
8
WATERMARK
10
3.98262
20
-1.86328
30
0
0
VERTEX
8
WATERMARK
10
4.0364
20
-1.88351
30
0
0
VERTEX
8
WATERMARK
10
4.09252
20
-1.89583
30
0
0
VERTEX
8
WATERMARK
10
4.1498
20
-1.89999
30
0
0
SEQEND
8
WATERMARK
0
POLYLINE
8
WATERMARK
66
1
70
1
0
VERTEX
8
WATERMARK
10
7.21762
20
-1.89423
30
0
0
VERTEX
8
WATERMARK
10
7.28349
20
-1.87705
30
0
0
VERTEX
8
WATERMARK
10
7.34549
20
-1.84895
30
0
0
VERTEX
8
WATERMARK
10
7.40183
20
-1.81075
30
0
0
VERTEX
8
WATERMARK
10
7.45089
20
-1.76354
30
0
0
VERTEX
8
WATERMARK
10
7.48555
20
-1.7177
30
0
0
VERTEX
8
WATERMARK
10
7.51328
20
-1.66738
30
0
0
VERTEX
8
WATERMARK
10
7.53351
20
-1.6136
30
0
0
VERTEX
8
WATERMARK
10
7.54583
20
-1.55748
30
0
0
VERTEX
8
WATERMARK
10
7.54999
20
-1.50009
30
0
0
VERTEX
8
WATERMARK
10
7.55
20
-0.10011
30
0
0
VERTEX
8
WATERMARK
10
7.54394
20
-0.03076
30
0
0
VERTEX
8
WATERMARK
10
7.52593
20
0.0366
30
0
0
VERTEX
8
WATERMARK
10
7.4965
20
0.0998
30
0
0
VERTEX
8
WATERMARK
10
7.45654
20
0.15694
30
0
0
VERTEX
8
WATERMARK
10
7.40727
20
0.20626
30
0
0
VERTEX
8
WATERMARK
10
7.35018
20
0.24628
30
0
0
VERTEX
8
WATERMARK
10
7.28701
20
0.27578
30
0
0
VERTEX
8
WATERMARK
10
7.21967
20
0.29387
30
0
0
VERTEX
8
WATERMARK
10
7.15021
20
0.29998
30
0
0
VERTEX
8
WATERMARK
10
7.08762
20
0.29509
30
0
0
VERTEX
8
WATERMARK
10
7.02658
20
0.28047
30
0
0
VERTEX
8
WATERMARK
10
6.96859
20
0.25648
30
0
0
VERTEX
8
WATERMARK
10
6.91505
20
0.22371
30
0
0
VERTEX
8
WATERMARK
10
6.86731
20
0.18297
30
0
0
VERTEX
8
WATERMARK
10
6.82652
20
0.13526
30
0
0
VERTEX
8
WATERMARK
10
6.7937
20
0.08176
30
0
0
VERTEX
8
WATERMARK
10
6.76965
20
0.02379
30
0
0
VERTEX
8
WATERMARK
10
6.75497
20
-0.03724
30
0
0
VERTEX
8
WATERMARK
10
6.75001
20
-0.0999
30
0
0
VERTEX
8
WATERMARK
10
6.74983
20
-0.60877
30
0
0
VERTEX
8
WATERMARK
10
6.74629
20
-0.6123
30
0
0
VERTEX
8
WATERMARK
10
6.74371
20
-0.6123
30
0
0
VERTEX
8
WATERMARK
10
5.81333
20
0.20108
30
0
0
VERTEX
8
WATERMARK
10
5.7674
20
0.23575
30
0
0
VERTEX
8
WATERMARK
10
5.71738
20
0.26328
30
0
0
VERTEX
8
WATERMARK
10
5.6636
20
0.28351
30
0
0
VERTEX
8
WATERMARK
10
5.60748
20
0.29583
30
0
0
VERTEX
8
WATERMARK
10
5.5502
20
0.29999
30
0
0
VERTEX
8
WATERMARK
10
5.48238
20
0.29422
30
0
0
VERTEX
8
WATERMARK
10
5.41651
20
0.27705
30
0
0
VERTEX
8
WATERMARK
10
5.35451
20
0.24895
30
0
0
VERTEX
8
WATERMARK
10
5.29817
20
0.21075
30
0
0
VERTEX
8
WATERMARK
10
5.24911
20
0.16354
30
0
0
VERTEX
8
WATERMARK
10
5.21445
20
0.1177
30
0
0
VERTEX
8
WATERMARK
10
5.18672
20
0.06738
30
0
0
VERTEX
8
WATERMARK
10
5.16649
20
0.0136
30
0
0
VERTEX
8
WATERMARK
10
5.15417
20
-0.04252
30
0
0
VERTEX
8
WATERMARK
10
5.15001
20
-0.09991
30
0
0
VERTEX
8
WATERMARK
10
5.15
20
-1.49989
30
0
0
VERTEX
8
WATERMARK
10
5.15606
20
-1.56924
30
0
0
VERTEX
8
WATERMARK
10
5.17407
20
-1.6366
30
0
0
VERTEX
8
WATERMARK
10
5.2035
20
-1.6998
30
0
0
VERTEX
8
WATERMARK
10
5.24346
20
-1.75694
30
0
0
VERTEX
8
WATERMARK
10
5.29273
20
-1.80626
30
0
0
VERTEX
8
WATERMARK
10
5.34982
20
-1.84628
30
0
0
VERTEX
8
WATERMARK
10
5.41299
20
-1.87578
30
0
0
VERTEX
8
WATERMARK
10
5.48033
20
-1.89387
30
0
0
VERTEX
8
WATERMARK
10
5.54979
20
-1.89998
30
0
0
VERTEX
8
WATERMARK
10
5.61238
20
-1.89509
30
0
0
VERTEX
8
WATERMARK
10
5.67342
20
-1.88047
30
0
0
VERTEX
8
WATERMARK
10
5.73141
20
-1.85648
30
0
0
VERTEX
8
WATERMARK
10
5.78495
20
-1.82371
30
0
0
VERTEX
8
WATERMARK
10
5.83269
20
-1.78297
30
0
0
VERTEX
8
WATERMARK
10
5.87348
20
-1.73526
30
0
0
VERTEX
8
WATERMARK
10
5.9063
20
-1.68176
30
0
0
VERTEX
8
WATERMARK
10
5.93035
20
-1.62379
30
0
0
VERTEX
8
WATERMARK
10
5.94503
20
-1.56276
30
0
0
VERTEX
8
WATERMARK
10
5.94999
20
-1.5001
30
0
0
VERTEX
8
WATERMARK
10
5.95017
20
-0.99123
30
0
0
VERTEX
8
WATERMARK
10
5.95371
20
-0.9877
30
0
0
VERTEX
8
WATERMARK
10
5.95629
20
-0.9877
30
0
0
VERTEX
8
WATERMARK
10
6.88667
20
-1.80108
30
0
0
VERTEX
8
WATERMARK
10
6.9326
20
-1.83575
30
0
0
VERTEX
8
WATERMARK
10
6.98262
20
-1.86328
30
0
0
VERTEX
8
WATERMARK
10
7.0364
20
-1.88351
30
0
0
VERTEX
8
WATERMARK
10
7.09252
20
-1.89583
30
0
0
VERTEX
8
WATERMARK
10
7.1498
20
-1.89999
30
0
0
SEQEND
8
WATERMARK
0
POLYLINE
8
WATERMARK
66
1
70
1
0
VERTEX
8
WATERMARK
10
3.41238
20
-4.69509
30
0
0
VERTEX
8
WATERMARK
10
3.47342
20
-4.68047
30
0
0
VERTEX
8
WATERMARK
10
3.53141
20
-4.65648
30
0
0
VERTEX
8
WATERMARK
10
3.58495
20
-4.62371
30
0
0
VERTEX
8
WATERMARK
10
3.63269
20
-4.58297
30
0
0
VERTEX
8
WATERMARK
10
3.67348
20
-4.53526
30
0
0
VERTEX
8
WATERMARK
10
3.7063
20
-4.48176
30
0
0
VERTEX
8
WATERMARK
10
3.73035
20
-4.42379
30
0
0
VERTEX
8
WATERMARK
10
3.74503
20
-4.36276
30
0
0
VERTEX
8
WATERMARK
10
3.74999
20
-4.3001
30
0
0
VERTEX
8
WATERMARK
10
3.75017
20
-3.30371
30
0
0
VERTEX
8
WATERMARK
10
3.75371
20
-3.30017
30
0
0
VERTEX
8
WATERMARK
10
4.15011
20
-3.29999
30
0
0
VERTEX
8
WATERMARK
10
4.21924
20
-3.29394
30
0
0
VERTEX
8
WATERMARK
10
4.2866
20
-3.27593
30
0
0
VERTEX
8
WATERMARK
10
4.3498
20
-3.2465
30
0
0
VERTEX
8
WATERMARK
10
4.40694
20
-3.20654
30
0
0
VERTEX
8
WATERMARK
10
4.45626
20
-3.15727
30
0
0
VERTEX
8
WATERMARK
10
4.49628
20
-3.10018
30
0
0
VERTEX
8
WATERMARK
10
4.52578
20
-3.03701
30
0
0
VERTEX
8
WATERMARK
10
4.54387
20
-2.96967
30
0
0
VERTEX
8
WATERMARK
10
4.54998
20
-2.90022
30
0
0
VERTEX
8
WATERMARK
10
4.54394
20
-2.83076
30
0
0
VERTEX
8
WATERMARK
10
4.52593
20
-2.7634
30
0
0
VERTEX
8
WATERMARK
10
4.4965
20
-2.7002
30
0
0
VERTEX
8
WATERMARK
10
4.45654
20
-2.64306
30
0
0
VERTEX
8
WATERMARK
10
4.40727
20
-2.59374
30
0
0
VERTEX
8
WATERMARK
10
4.35018
20
-2.55372
30
0
0
VERTEX
8
WATERMARK
10
4.28701
20
-2.52422
30
0
0
VERTEX
8
WATERMARK
10
4.21967
20
-2.50613
30
0
0
VERTEX
8
WATERMARK
10
4.15011
20
-2.50001
30
0
0
VERTEX
8
WATERMARK
10
2.55011
20
-2.5
30
0
0
VERTEX
8
WATERMARK
10
2.48076
20
-2.50606
30
0
0
VERTEX
8
WATERMARK
10
2.4134
20
-2.52407
30
0
0
VERTEX
8
WATERMARK
10
2.3502
20
-2.5535
30
0
0
VERTEX
8
WATERMARK
10
2.29306
20
-2.59346
30
0
0
VERTEX
8
WATERMARK
10
2.24374
20
-2.64273
30
0
0
VERTEX
8
WATERMARK
10
2.20372
20
-2.69982
30
0
0
VERTEX
8
WATERMARK
10
2.17422
20
-2.76299
30
0
0
VERTEX
8
WATERMARK
10
2.15613
20
-2.83033
30
0
0
VERTEX
8
WATERMARK
10
2.15002
20
-2.89978
30
0
0
VERTEX
8
WATERMARK
10
2.15606
20
-2.96924
30
0
0
VERTEX
8
WATERMARK
10
2.17407
20
-3.0366
30
0
0
VERTEX
8
WATERMARK
10
2.2035
20
-3.0998
30
0
0
VERTEX
8
WATERMARK
10
2.24346
20
-3.15694
30
0
0
VERTEX
8
WATERMARK
10
2.29273
20
-3.20626
30
0
0
VERTEX
8
WATERMARK
10
2.34982
20
-3.24628
30
0
0
VERTEX
8
WATERMARK
10
2.41299
20
-3.27578
30
0
0
VERTEX
8
WATERMARK
10
2.48033
20
-3.29387
30
0
0
VERTEX
8
WATERMARK
10
2.54989
20
-3.29999
30
0
0
VERTEX
8
WATERMARK
10
2.94629
20
-3.30017
30
0
0
VERTEX
8
WATERMARK
10
2.94983
20
-3.30371
30
0
0
VERTEX
8
WATERMARK
10
2.95001
20
-4.3001
30
0
0
VERTEX
8
WATERMARK
10
2.95491
20
-4.36238
30
0
0
VERTEX
8
WATERMARK
10
2.96953
20
-4.42342
30
0
0
VERTEX
8
WATERMARK
10
2.99352
20
-4.48141
30
0
0
VERTEX
8
WATERMARK
10
3.02629
20
-4.53495
30
0
0
VERTEX
8
WATERMARK
10
3.06703
20
-4.58269
30
0
0
VERTEX
8
WATERMARK
10
3.11474
20
-4.62348
30
0
0
VERTEX
8
WATERMARK
10
3.16824
20
-4.6563
30
0
0
VERTEX
8
WATERMARK
10
3.22621
20
-4.68035
30
0
0
VERTEX
8
WATERMARK
10
3.28724
20
-4.69503
30
0
0
VERTEX
8
WATERMARK
10
3.3498
20
-4.69998
30
0
0
SEQEND
8
WATERMARK
0
POLYLINE
8
WATERMARK
66
1
70
1
0
VERTEX
8
WATERMARK
10
7.21924
20
-4.69394
30
0
0
VERTEX
8
WATERMARK
10
7.2866
20
-4.67593
30
0
0
VERTEX
8
WATERMARK
10
7.3498
20
-4.6465
30
0
0
VERTEX
8
WATERMARK
10
7.40694
20
-4.60654
30
0
0
VERTEX
8
WATERMARK
10
7.45626
20
-4.55727
30
0
0
VERTEX
8
WATERMARK
10
7.49628
20
-4.50018
30
0
0
VERTEX
8
WATERMARK
10
7.52578
20
-4.43701
30
0
0
VERTEX
8
WATERMARK
10
7.54387
20
-4.36967
30
0
0
VERTEX
8
WATERMARK
10
7.54998
20
-4.30022
30
0
0
VERTEX
8
WATERMARK
10
7.54394
20
-4.23076
30
0
0
VERTEX
8
WATERMARK
10
7.52593
20
-4.1634
30
0
0
VERTEX
8
WATERMARK
10
7.4965
20
-4.1002
30
0
0
VERTEX
8
WATERMARK
10
7.45654
20
-4.04306
30
0
0
VERTEX
8
WATERMARK
10
7.40727
20
-3.99374
30
0
0
VERTEX
8
WATERMARK
10
7.35018
20
-3.95372
30
0
0
VERTEX
8
WATERMARK
10
7.28701
20
-3.92422
30
0
0
VERTEX
8
WATERMARK
10
7.21967
20
-3.90613
30
0
0
VERTEX
8
WATERMARK
10
7.15011
20
-3.90001
30
0
0
VERTEX
8
WATERMARK
10
6.75371
20
-3.89983
30
0
0
VERTEX
8
WATERMARK
10
6.75017
20
-3.89629
30
0
0
VERTEX
8
WATERMARK
10
6.75067
20
-3.3025
30
0
0
VERTEX
8
WATERMARK
10
6.7525
20
-3.30067
30
0
0
VERTEX
8
WATERMARK
10
7.15011
20
-3.29999
30
0
0
VERTEX
8
WATERMARK
10
7.21924
20
-3.29394
30
0
0
VERTEX
8
WATERMARK
10
7.2866
20
-3.27593
30
0
0
VERTEX
8
WATERMARK
10
7.3498
20
-3.2465
30
0
0
VERTEX
8
WATERMARK
10
7.40694
20
-3.20654
30
0
0
VERTEX
8
WATERMARK
10
7.45626
20
-3.15727
30
0
0
VERTEX
8
WATERMARK
10
7.49628
20
-3.10018
30
0
0
VERTEX
8
WATERMARK
10
7.52578
20
-3.03701
30
0
0
VERTEX
8
WATERMARK
10
7.54387
20
-2.96967
30
0
0
VERTEX
8
WATERMARK
10
7.54998
20
-2.90022
30
0
0
VERTEX
8
WATERMARK
10
7.54394
20
-2.83076
30
0
0
VERTEX
8
WATERMARK
10
7.52593
20
-2.7634
30
0
0
VERTEX
8
WATERMARK
10
7.4965
20
-2.7002
30
0
0
VERTEX
8
WATERMARK
10
7.45654
20
-2.64306
30
0
0
VERTEX
8
WATERMARK
10
7.40727
20
-2.59374
30
0
0
VERTEX
8
WATERMARK
10
7.35018
20
-2.55372
30
0
0
VERTEX
8
WATERMARK
10
7.28701
20
-2.52422
30
0
0
VERTEX
8
WATERMARK
10
7.21967
20
-2.50613
30
0
0
VERTEX
8
WATERMARK
10
7.15011
20
-2.50001
30
0
0
VERTEX
8
WATERMARK
10
5.55011
20
-2.5
30
0
0
VERTEX
8
WATERMARK
10
5.48076
20
-2.50606
30
0
0
VERTEX
8
WATERMARK
10
5.4134
20
-2.52407
30
0
0
VERTEX
8
WATERMARK
10
5.3502
20
-2.5535
30
0
0
VERTEX
8
WATERMARK
10
5.29306
20
-2.59346
30
0
0
VERTEX
8
WATERMARK
10
5.24374
20
-2.64273
30
0
0
VERTEX
8
WATERMARK
10
5.20372
20
-2.69982
30
0
0
VERTEX
8
WATERMARK
10
5.17422
20
-2.76299
30
0
0
VERTEX
8
WATERMARK
10
5.15613
20
-2.83033
30
0
0
VERTEX
8
WATERMARK
10
5.15002
20
-2.89978
30
0
0
VERTEX
8
WATERMARK
10
5.15606
20
-2.96924
30
0
0
VERTEX
8
WATERMARK
10
5.17407
20
-3.0366
30
0
0
VERTEX
8
WATERMARK
10
5.2035
20
-3.0998
30
0
0
VERTEX
8
WATERMARK
10
5.24346
20
-3.15694
30
0
0
VERTEX
8
WATERMARK
10
5.29273
20
-3.20626
30
0
0
VERTEX
8
WATERMARK
10
5.34982
20
-3.24628
30
0
0
VERTEX
8
WATERMARK
10
5.41299
20
-3.27578
30
0
0
VERTEX
8
WATERMARK
10
5.48033
20
-3.29387
30
0
0
VERTEX
8
WATERMARK
10
5.54989
20
-3.29999
30
0
0
VERTEX
8
WATERMARK
10
5.94629
20
-3.30017
30
0
0
VERTEX
8
WATERMARK
10
5.94983
20
-3.30371
30
0
0
VERTEX
8
WATERMARK
10
5.94933
20
-3.8975
30
0
0
VERTEX
8
WATERMARK
10
5.9475
20
-3.89933
30
0
0
VERTEX
8
WATERMARK
10
5.54989
20
-3.90001
30
0
0
VERTEX
8
WATERMARK
10
5.48033
20
-3.90613
30
0
0
VERTEX
8
WATERMARK
10
5.4134
20
-3.92407
30
0
0
VERTEX
8
WATERMARK
10
5.3502
20
-3.9535
30
0
0
VERTEX
8
WATERMARK
10
5.29306
20
-3.99346
30
0
0
VERTEX
8
WATERMARK
10
5.24374
20
-4.04273
30
0
0
VERTEX
8
WATERMARK
10
5.20372
20
-4.09982
30
0
0
VERTEX
8
WATERMARK
10
5.17422
20
-4.16299
30
0
0
VERTEX
8
WATERMARK
10
5.15613
20
-4.23033
30
0
0
VERTEX
8
WATERMARK
10
5.15002
20
-4.29978
30
0
0
VERTEX
8
WATERMARK
10
5.15606
20
-4.36924
30
0
0
VERTEX
8
WATERMARK
10
5.17407
20
-4.4366
30
0
0
VERTEX
8
WATERMARK
10
5.2035
20
-4.4998
30
0
0
VERTEX
8
WATERMARK
10
5.24346
20
-4.55694
30
0
0
VERTEX
8
WATERMARK
10
5.29273
20
-4.60626
30
0
0
VERTEX
8
WATERMARK
10
5.34982
20
-4.64628
30
0
0
VERTEX
8
WATERMARK
10
5.41299
20
-4.67578
30
0
0
VERTEX
8
WATERMARK
10
5.48033
20
-4.69387
30
0
0
VERTEX
8
WATERMARK
10
5.54989
20
-4.69999
30
0
0
VERTEX
8
WATERMARK
10
7.14989
20
-4.7
30
0
0
SEQEND
8
WATERMARK
0
POLYLINE
8
WATERMARK
66
1
70
1
0
VERTEX
8
WATERMARK
10
10.21238
20
-4.69509
30
0
0
VERTEX
8
WATERMARK
10
10.27342
20
-4.68047
30
0
0
VERTEX
8
WATERMARK
10
10.33141
20
-4.65648
30
0
0
VERTEX
8
WATERMARK
10
10.38495
20
-4.62371
30
0
0
VERTEX
8
WATERMARK
10
10.43269
20
-4.58297
30
0
0
VERTEX
8
WATERMARK
10
10.47348
20
-4.53526
30
0
0
VERTEX
8
WATERMARK
10
10.5063
20
-4.48176
30
0
0
VERTEX
8
WATERMARK
10
10.53035
20
-4.42379
30
0
0
VERTEX
8
WATERMARK
10
10.54503
20
-4.36276
30
0
0
VERTEX
8
WATERMARK
10
10.54999
20
-4.3001
30
0
0
VERTEX
8
WATERMARK
10
10.55
20
-2.9001
30
0
0
VERTEX
8
WATERMARK
10
10.54509
20
-2.83762
30
0
0
VERTEX
8
WATERMARK
10
10.53047
20
-2.77658
30
0
0
VERTEX
8
WATERMARK
10
10.50648
20
-2.71859
30
0
0
VERTEX
8
WATERMARK
10
10.47371
20
-2.66505
30
0
0
VERTEX
8
WATERMARK
10
10.43297
20
-2.61731
30
0
0
VERTEX
8
WATERMARK
10
10.38526
20
-2.57652
30
0
0
VERTEX
8
WATERMARK
10
10.33176
20
-2.5437
30
0
0
VERTEX
8
WATERMARK
10
10.27379
20
-2.51965
30
0
0
VERTEX
8
WATERMARK
10
10.21276
20
-2.50497
30
0
0
VERTEX
8
WATERMARK
10
10.1501
20
-2.50001
30
0
0
VERTEX
8
WATERMARK
10
8.5501
20
-2.5
30
0
0
VERTEX
8
WATERMARK
10
8.48762
20
-2.50491
30
0
0
VERTEX
8
WATERMARK
10
8.42658
20
-2.51953
30
0
0
VERTEX
8
WATERMARK
10
8.36859
20
-2.54352
30
0
0
VERTEX
8
WATERMARK
10
8.31505
20
-2.57629
30
0
0
VERTEX
8
WATERMARK
10
8.26731
20
-2.61703
30
0
0
VERTEX
8
WATERMARK
10
8.22652
20
-2.66474
30
0
0
VERTEX
8
WATERMARK
10
8.1937
20
-2.71824
30
0
0
VERTEX
8
WATERMARK
10
8.16965
20
-2.77621
30
0
0
VERTEX
8
WATERMARK
10
8.15497
20
-2.83724
30
0
0
VERTEX
8
WATERMARK
10
8.15001
20
-2.8999
30
0
0
VERTEX
8
WATERMARK
10
8.15
20
-4.2999
30
0
0
VERTEX
8
WATERMARK
10
8.15491
20
-4.36238
30
0
0
VERTEX
8
WATERMARK
10
8.16953
20
-4.42342
30
0
0
VERTEX
8
WATERMARK
10
8.19352
20
-4.48141
30
0
0
VERTEX
8
WATERMARK
10
8.22629
20
-4.53495
30
0
0
VERTEX
8
WATERMARK
10
8.26703
20
-4.58269
30
0
0
VERTEX
8
WATERMARK
10
8.31474
20
-4.62348
30
0
0
VERTEX
8
WATERMARK
10
8.36824
20
-4.6563
30
0
0
VERTEX
8
WATERMARK
10
8.42621
20
-4.68035
30
0
0
VERTEX
8
WATERMARK
10
8.48724
20
-4.69503
30
0
0
VERTEX
8
WATERMARK
10
8.5499
20
-4.69999
30
0
0
VERTEX
8
WATERMARK
10
10.1499
20
-4.7
30
0
0
SEQEND
8
WATERMARK
0
POLYLINE
8
WATERMARK
66
1
70
1
0
VERTEX
8
WATERMARK
10
8.95371
20
-3.89983
30
0
0
VERTEX
8
WATERMARK
10
8.95017
20
-3.89629
30
0
0
VERTEX
8
WATERMARK
10
8.95017
20
-3.30371
30
0
0
VERTEX
8
WATERMARK
10
8.95371
20
-3.30017
30
0
0
VERTEX
8
WATERMARK
10
9.7475
20
-3.30067
30
0
0
VERTEX
8
WATERMARK
10
9.74933
20
-3.3025
30
0
0
VERTEX
8
WATERMARK
10
9.74983
20
-3.89629
30
0
0
VERTEX
8
WATERMARK
10
9.74629
20
-3.89983
30
0
0
SEQEND
8
WATERMARK
0
POLYLINE
8
WATERMARK
66
1
70
1
0
VERTEX
8
WATERMARK
10
1.23123
20
-4.69166
30
0
0
VERTEX
8
WATERMARK
10
1.2915
20
-4.67413
30
0
0
VERTEX
8
WATERMARK
10
1.34828
20
-4.64738
30
0
0
VERTEX
8
WATERMARK
10
1.40018
20
-4.61209
30
0
0
VERTEX
8
WATERMARK
10
1.44593
20
-4.56911
30
0
0
VERTEX
8
WATERMARK
10
1.48438
20
-4.5195
30
0
0
VERTEX
8
WATERMARK
10
1.5146
20
-4.46449
30
0
0
VERTEX
8
WATERMARK
10
1.53585
20
-4.40543
30
0
0
VERTEX
8
WATERMARK
10
1.54759
20
-4.34377
30
0
0
VERTEX
8
WATERMARK
10
1.54954
20
-4.28104
30
0
0
VERTEX
8
WATERMARK
10
1.54166
20
-4.21877
30
0
0
VERTEX
8
WATERMARK
10
1.52413
20
-4.1585
30
0
0
VERTEX
8
WATERMARK
10
1.49734
20
-4.10163
30
0
0
VERTEX
8
WATERMARK
10
1.19779
20
-3.57741
30
0
0
VERTEX
8
WATERMARK
10
1.18898
20
-3.5156
30
0
0
VERTEX
8
WATERMARK
10
1.17161
20
-3.45717
30
0
0
VERTEX
8
WATERMARK
10
1.14538
20
-3.40172
30
0
0
VERTEX
8
WATERMARK
10
1.11097
20
-3.35093
30
0
0
VERTEX
8
WATERMARK
10
1.06921
20
-3.306
30
0
0
VERTEX
8
WATERMARK
10
1.02043
20
-3.26703
30
0
0
VERTEX
8
WATERMARK
10
0.69725
20
-2.70147
30
0
0
VERTEX
8
WATERMARK
10
0.66798
20
-2.65734
30
0
0
VERTEX
8
WATERMARK
10
0.63296
20
-2.61728
30
0
0
VERTEX
8
WATERMARK
10
0.59293
20
-2.58222
30
0
0
VERTEX
8
WATERMARK
10
0.54862
20
-2.55281
30
0
0
VERTEX
8
WATERMARK
10
0.48589
20
-2.52381
30
0
0
VERTEX
8
WATERMARK
10
0.41909
20
-2.50602
30
0
0
VERTEX
8
WATERMARK
10
0.35022
20
-2.50001
30
0
0
VERTEX
8
WATERMARK
10
0.28134
20
-2.50595
30
0
0
VERTEX
8
WATERMARK
10
0.21451
20
-2.52366
30
0
0
VERTEX
8
WATERMARK
10
0.15171
20
-2.55262
30
0
0
VERTEX
8
WATERMARK
10
0.10734
20
-2.58202
30
0
0
VERTEX
8
WATERMARK
10
0.06728
20
-2.61704
30
0
0
VERTEX
8
WATERMARK
10
0.03222
20
-2.65707
30
0
0
VERTEX
8
WATERMARK
10
0.00275
20
-2.70147
30
0
0
VERTEX
8
WATERMARK
10
-0.32043
20
-3.26703
30
0
0
VERTEX
8
WATERMARK
10
-0.36921
20
-3.306
30
0
0
VERTEX
8
WATERMARK
10
-0.41097
20
-3.35093
30
0
0
VERTEX
8
WATERMARK
10
-0.44519
20
-3.40138
30
0
0
VERTEX
8
WATERMARK
10
-0.47147
20
-3.45681
30
0
0
VERTEX
8
WATERMARK
10
-0.48898
20
-3.5156
30
0
0
VERTEX
8
WATERMARK
10
-0.49779
20
-3.57741
30
0
0
VERTEX
8
WATERMARK
10
-0.79734
20
-4.10163
30
0
0
VERTEX
8
WATERMARK
10
-0.82399
20
-4.15814
30
0
0
VERTEX
8
WATERMARK
10
-0.84158
20
-4.21839
30
0
0
VERTEX
8
WATERMARK
10
-0.84952
20
-4.28065
30
0
0
VERTEX
8
WATERMARK
10
-0.84763
20
-4.34338
30
0
0
VERTEX
8
WATERMARK
10
-0.83595
20
-4.40505
30
0
0
VERTEX
8
WATERMARK
10
-0.81476
20
-4.46414
30
0
0
VERTEX
8
WATERMARK
10
-0.7846
20
-4.51918
30
0
0
VERTEX
8
WATERMARK
10
-0.74619
20
-4.56882
30
0
0
VERTEX
8
WATERMARK
10
-0.70049
20
-4.61184
30
0
0
VERTEX
8
WATERMARK
10
-0.64862
20
-4.64719
30
0
0
VERTEX
8
WATERMARK
10
-0.59186
20
-4.67399
30
0
0
VERTEX
8
WATERMARK
10
-0.53161
20
-4.69158
30
0
0
VERTEX
8
WATERMARK
10
-0.46935
20
-4.69952
30
0
0
VERTEX
8
WATERMARK
10
-0.40662
20
-4.69763
30
0
0
VERTEX
8
WATERMARK
10
-0.34495
20
-4.68595
30
0
0
VERTEX
8
WATERMARK
10
-0.28586
20
-4.66476
30
0
0
VERTEX
8
WATERMARK
10
-0.23082
20
-4.6346
30
0
0
VERTEX
8
WATERMARK
10
-0.18118
20
-4.59619
30
0
0
VERTEX
8
WATERMARK
10
-0.13816
20
-4.55049
30
0
0
VERTEX
8
WATERMARK
10
-0.10276
20
-4.49854
30
0
0
VERTEX
8
WATERMARK
10
0.18148
20
-4.00148
30
0
0
VERTEX
8
WATERMARK
10
0.18372
20
-4.00018
30
0
0
VERTEX
8
WATERMARK
10
0.51626
20
-4.00017
30
0
0
VERTEX
8
WATERMARK
10
0.5185
20
-4.00146
30
0
0
VERTEX
8
WATERMARK
10
0.80276
20
-4.49854
30
0
0
VERTEX
8
WATERMARK
10
0.83791
20
-4.55018
30
0
0
VERTEX
8
WATERMARK
10
0.88089
20
-4.59593
30
0
0
VERTEX
8
WATERMARK
10
0.9305
20
-4.63438
30
0
0
VERTEX
8
WATERMARK
10
0.98551
20
-4.6646
30
0
0
VERTEX
8
WATERMARK
10
1.04457
20
-4.68585
30
0
0
VERTEX
8
WATERMARK
10
1.10623
20
-4.69759
30
0
0
VERTEX
8
WATERMARK
10
1.16896
20
-4.69954
30
0
0
SEQEND
8
WATERMARK
0
POLYLINE
8
WATERMARK
66
1
70
1
0
VERTEX
8
WATERMARK
10
13.21762
20
-4.69422
30
0
0
VERTEX
8
WATERMARK
10
13.28349
20
-4.67705
30
0
0
VERTEX
8
WATERMARK
10
13.34549
20
-4.64895
30
0
0
VERTEX
8
WATERMARK
10
13.40183
20
-4.61075
30
0
0
VERTEX
8
WATERMARK
10
13.45089
20
-4.56354
30
0
0
VERTEX
8
WATERMARK
10
13.48555
20
-4.5177
30
0
0
VERTEX
8
WATERMARK
10
13.51328
20
-4.46738
30
0
0
VERTEX
8
WATERMARK
10
13.53351
20
-4.4136
30
0
0
VERTEX
8
WATERMARK
10
13.54583
20
-4.35748
30
0
0
VERTEX
8
WATERMARK
10
13.54999
20
-4.30009
30
0
0
VERTEX
8
WATERMARK
10
13.55
20
-2.9001
30
0
0
VERTEX
8
WATERMARK
10
13.54509
20
-2.83762
30
0
0
VERTEX
8
WATERMARK
10
13.53047
20
-2.77658
30
0
0
VERTEX
8
WATERMARK
10
13.50648
20
-2.71859
30
0
0
VERTEX
8
WATERMARK
10
13.47371
20
-2.66505
30
0
0
VERTEX
8
WATERMARK
10
13.43297
20
-2.61731
30
0
0
VERTEX
8
WATERMARK
10
13.38526
20
-2.57652
30
0
0
VERTEX
8
WATERMARK
10
13.33176
20
-2.5437
30
0
0
VERTEX
8
WATERMARK
10
13.27379
20
-2.51965
30
0
0
VERTEX
8
WATERMARK
10
13.21276
20
-2.50497
30
0
0
VERTEX
8
WATERMARK
10
13.1502
20
-2.50002
30
0
0
VERTEX
8
WATERMARK
10
13.08762
20
-2.50491
30
0
0
VERTEX
8
WATERMARK
10
13.02658
20
-2.51953
30
0
0
VERTEX
8
WATERMARK
10
12.96859
20
-2.54352
30
0
0
VERTEX
8
WATERMARK
10
12.91505
20
-2.57629
30
0
0
VERTEX
8
WATERMARK
10
12.86731
20
-2.61703
30
0
0
VERTEX
8
WATERMARK
10
12.82652
20
-2.66474
30
0
0
VERTEX
8
WATERMARK
10
12.7937
20
-2.71824
30
0
0
VERTEX
8
WATERMARK
10
12.76965
20
-2.77621
30
0
0
VERTEX
8
WATERMARK
10
12.75497
20
-2.83724
30
0
0
VERTEX
8
WATERMARK
10
12.75001
20
-2.8999
30
0
0
VERTEX
8
WATERMARK
10
12.74983
20
-3.40877
30
0
0
VERTEX
8
WATERMARK
10
12.74629
20
-3.4123
30
0
0
VERTEX
8
WATERMARK
10
12.74371
20
-3.4123
30
0
0
VERTEX
8
WATERMARK
10
11.81333
20
-2.59892
30
0
0
VERTEX
8
WATERMARK
10
11.7677
20
-2.56445
30
0
0
VERTEX
8
WATERMARK
10
11.71738
20
-2.53672
30
0
0
VERTEX
8
WATERMARK
10
11.6636
20
-2.51649
30
0
0
VERTEX
8
WATERMARK
10
11.60748
20
-2.50417
30
0
0
VERTEX
8
WATERMARK
10
11.5502
20
-2.50001
30
0
0
VERTEX
8
WATERMARK
10
11.48238
20
-2.50577
30
0
0
VERTEX
8
WATERMARK
10
11.41651
20
-2.52295
30
0
0
VERTEX
8
WATERMARK
10
11.35451
20
-2.55105
30
0
0
VERTEX
8
WATERMARK
10
11.29817
20
-2.58925
30
0
0
VERTEX
8
WATERMARK
10
11.24911
20
-2.63646
30
0
0
VERTEX
8
WATERMARK
10
11.21445
20
-2.6823
30
0
0
VERTEX
8
WATERMARK
10
11.18672
20
-2.73262
30
0
0
VERTEX
8
WATERMARK
10
11.16649
20
-2.7864
30
0
0
VERTEX
8
WATERMARK
10
11.15417
20
-2.84252
30
0
0
VERTEX
8
WATERMARK
10
11.15001
20
-2.89991
30
0
0
VERTEX
8
WATERMARK
10
11.15
20
-4.2999
30
0
0
VERTEX
8
WATERMARK
10
11.15491
20
-4.36238
30
0
0
VERTEX
8
WATERMARK
10
11.16953
20
-4.42342
30
0
0
VERTEX
8
WATERMARK
10
11.19352
20
-4.48141
30
0
0
VERTEX
8
WATERMARK
10
11.22629
20
-4.53495
30
0
0
VERTEX
8
WATERMARK
10
11.26703
20
-4.58269
30
0
0
VERTEX
8
WATERMARK
10
11.31474
20
-4.62348
30
0
0
VERTEX
8
WATERMARK
10
11.36824
20
-4.6563
30
0
0
VERTEX
8
WATERMARK
10
11.42621
20
-4.68035
30
0
0
VERTEX
8
WATERMARK
10
11.48724
20
-4.69503
30
0
0
VERTEX
8
WATERMARK
10
11.54979
20
-4.69998
30
0
0
VERTEX
8
WATERMARK
10
11.61924
20
-4.69394
30
0
0
VERTEX
8
WATERMARK
10
11.6866
20
-4.67593
30
0
0
VERTEX
8
WATERMARK
10
11.7498
20
-4.6465
30
0
0
VERTEX
8
WATERMARK
10
11.80694
20
-4.60654
30
0
0
VERTEX
8
WATERMARK
10
11.85626
20
-4.55727
30
0
0
VERTEX
8
WATERMARK
10
11.89628
20
-4.50018
30
0
0
VERTEX
8
WATERMARK
10
11.92578
20
-4.43701
30
0
0
VERTEX
8
WATERMARK
10
11.94387
20
-4.36967
30
0
0
VERTEX
8
WATERMARK
10
11.94999
20
-4.30011
30
0
0
VERTEX
8
WATERMARK
10
11.95017
20
-3.79123
30
0
0
VERTEX
8
WATERMARK
10
11.95371
20
-3.7877
30
0
0
VERTEX
8
WATERMARK
10
11.95629
20
-3.7877
30
0
0
VERTEX
8
WATERMARK
10
12.88667
20
-4.60108
30
0
0
VERTEX
8
WATERMARK
10
12.9326
20
-4.63575
30
0
0
VERTEX
8
WATERMARK
10
12.98262
20
-4.66328
30
0
0
VERTEX
8
WATERMARK
10
13.0364
20
-4.68351
30
0
0
VERTEX
8
WATERMARK
10
13.09252
20
-4.69583
30
0
0
VERTEX
8
WATERMARK
10
13.1498
20
-4.69999
30
0
0
SEQEND
8
WATERMARK
0
POLYLINE
8
WATERMARK
66
1
70
1
0
VERTEX
8
WATERMARK
10
-2.58091
20
-4.69398
30
0
0
VERTEX
8
WATERMARK
10
-2.51411
20
-4.67619
30
0
0
VERTEX
8
WATERMARK
10
-2.45163
20
-4.6473
30
0
0
VERTEX
8
WATERMARK
10
-2.96248
20
-4.50778
30
0
0
VERTEX
8
WATERMARK
10
-2.96496
20
-4.50344
30
0
0
VERTEX
8
WATERMARK
10
-2.96428
20
-4.50094
30
0
0
VERTEX
8
WATERMARK
10
-2.95996
20
-4.49846
30
0
0
VERTEX
8
WATERMARK
10
-2.30272
20
-4.49842
30
0
0
VERTEX
8
WATERMARK
10
-1.50275
20
-3.09855
30
0
0
VERTEX
8
WATERMARK
10
-1.47601
20
-3.04186
30
0
0
VERTEX
8
WATERMARK
10
-1.45842
20
-2.98161
30
0
0
VERTEX
8
WATERMARK
10
-1.45048
20
-2.91935
30
0
0
VERTEX
8
WATERMARK
10
-1.45237
20
-2.85662
30
0
0
VERTEX
8
WATERMARK
10
-1.46405
20
-2.79495
30
0
0
VERTEX
8
WATERMARK
10
-1.48524
20
-2.73586
30
0
0
VERTEX
8
WATERMARK
10
-1.5154
20
-2.68082
30
0
0
VERTEX
8
WATERMARK
10
-1.55381
20
-2.63118
30
0
0
VERTEX
8
WATERMARK
10
-1.59951
20
-2.58816
30
0
0
VERTEX
8
WATERMARK
10
-1.65138
20
-2.55281
30
0
0
VERTEX
8
WATERMARK
10
-1.70814
20
-2.52601
30
0
0
VERTEX
8
WATERMARK
10
-1.76839
20
-2.50842
30
0
0
VERTEX
8
WATERMARK
10
-1.83065
20
-2.50048
30
0
0
VERTEX
8
WATERMARK
10
-1.89338
20
-2.50237
30
0
0
VERTEX
8
WATERMARK
10
-1.95505
20
-2.51405
30
0
0
VERTEX
8
WATERMARK
10
-2.01414
20
-2.53524
30
0
0
VERTEX
8
WATERMARK
10
-2.06918
20
-2.5654
30
0
0
VERTEX
8
WATERMARK
10
-2.11882
20
-2.60381
30
0
0
VERTEX
8
WATERMARK
10
-2.16184
20
-2.64951
30
0
0
VERTEX
8
WATERMARK
10
-2.19724
20
-2.70146
30
0
0
VERTEX
8
WATERMARK
10
-2.64645
20
-3.48721
30
0
0
VERTEX
8
WATERMARK
10
-2.64868
20
-3.48852
30
0
0
VERTEX
8
WATERMARK
10
-2.65352
20
-3.48724
30
0
0
VERTEX
8
WATERMARK
10
-3.10276
20
-2.70146
30
0
0
VERTEX
8
WATERMARK
10
-3.13791
20
-2.64982
30
0
0
VERTEX
8
WATERMARK
10
-3.18089
20
-2.60407
30
0
0
VERTEX
8
WATERMARK
10
-3.2305
20
-2.56562
30
0
0
VERTEX
8
WATERMARK
10
-3.28551
20
-2.5354
30
0
0
VERTEX
8
WATERMARK
10
-3.34457
20
-2.51415
30
0
0
VERTEX
8
WATERMARK
10
-3.40623
20
-2.50241
30
0
0
VERTEX
8
WATERMARK
10
-3.46896
20
-2.50046
30
0
0
VERTEX
8
WATERMARK
10
-3.53123
20
-2.50834
30
0
0
VERTEX
8
WATERMARK
10
-3.5915
20
-2.52587
30
0
0
VERTEX
8
WATERMARK
10
-3.64828
20
-2.55262
30
0
0
VERTEX
8
WATERMARK
10
-3.70018
20
-2.58791
30
0
0
VERTEX
8
WATERMARK
10
-3.74593
20
-2.63089
30
0
0
VERTEX
8
WATERMARK
10
-3.78438
20
-2.6805
30
0
0
VERTEX
8
WATERMARK
10
-3.8146
20
-2.73551
30
0
0
VERTEX
8
WATERMARK
10
-3.83585
20
-2.79457
30
0
0
VERTEX
8
WATERMARK
10
-3.84759
20
-2.85623
30
0
0
VERTEX
8
WATERMARK
10
-3.84954
20
-2.91896
30
0
0
VERTEX
8
WATERMARK
10
-3.84166
20
-2.98123
30
0
0
VERTEX
8
WATERMARK
10
-3.82413
20
-3.0415
30
0
0
VERTEX
8
WATERMARK
10
-3.79734
20
-3.09837
30
0
0
VERTEX
8
WATERMARK
10
-2.99734
20
-4.49839
30
0
0
VERTEX
8
WATERMARK
10
-2.96798
20
-4.54266
30
0
0
VERTEX
8
WATERMARK
10
-2.93296
20
-4.58272
30
0
0
VERTEX
8
WATERMARK
10
-2.89293
20
-4.61778
30
0
0
VERTEX
8
WATERMARK
10
-2.84862
20
-4.64719
30
0
0
VERTEX
8
WATERMARK
10
-2.78589
20
-4.67619
30
0
0
VERTEX
8
WATERMARK
10
-2.71909
20
-4.69398
30
0
0
VERTEX
8
WATERMARK
10
-2.65022
20
-4.69999
30
0
0
SEQEND
8
WATERMARK
0
ENDSEC
0
EOF
