  0
SECTION
  2
BLOCKS
  0
ENDSEC
  0
SECTION
  2
ENTITIES
  0
LINE
  8
0
 10
19.1409
 20
9.77843
 11
19.2048
 21
9.79558
  0
LINE
  8
0
 10
19.2048
 20
9.79558
 11
19.2633
 21
9.82419
  0
LINE
  8
0
 10
19.2633
 20
9.82419
 11
19.3166
 21
9.86423
  0
LINE
  8
0
 10
19.3166
 20
9.86423
 11
19.361
 21
9.91245
  0
LINE
  8
0
 10
19.361
 20
9.91245
 11
19.3926
 21
9.96558
  0
LINE
  8
0
 10
19.3926
 20
9.96558
 11
19.4117
 21
10.0236
  0
LINE
  8
0
 10
19.4117
 20
10.0236
 11
19.418
 21
10.0865
  0
LINE
  8
0
 10
19.418
 20
10.0865
 11
19.4117
 21
10.1495
  0
LINE
  8
0
 10
19.4117
 20
10.1495
 11
19.3926
 21
10.2075
  0
LINE
  8
0
 10
19.3926
 20
10.2075
 11
19.361
 21
10.2606
  0
LINE
  8
0
 10
19.361
 20
10.2606
 11
19.3166
 21
10.3088
  0
LINE
  8
0
 10
19.3166
 20
10.3088
 11
19.2633
 21
10.3489
  0
LINE
  8
0
 10
19.2633
 20
10.3489
 11
19.2048
 21
10.3775
  0
LINE
  8
0
 10
19.2048
 20
10.3775
 11
19.1409
 21
10.3946
  0
LINE
  8
0
 10
19.1409
 20
10.3946
 11
19.0719
 21
10.4004
  0
LINE
  8
0
 10
19.0719
 20
10.4004
 11
19.0036
 21
10.3946
  0
LINE
  8
0
 10
19.0036
 20
10.3946
 11
18.9404
 21
10.3775
  0
LINE
  8
0
 10
18.9404
 20
10.3775
 11
18.8822
 21
10.3489
  0
LINE
  8
0
 10
18.8822
 20
10.3489
 11
18.829
 21
10.3088
  0
LINE
  8
0
 10
18.829
 20
10.3088
 11
18.7846
 21
10.2606
  0
LINE
  8
0
 10
18.7846
 20
10.2606
 11
18.753
 21
10.2075
  0
LINE
  8
0
 10
18.753
 20
10.2075
 11
18.734
 21
10.1495
  0
LINE
  8
0
 10
18.734
 20
10.1495
 11
18.7276
 21
10.0865
  0
LINE
  8
0
 10
18.7276
 20
10.0865
 11
18.734
 21
10.0236
  0
LINE
  8
0
 10
18.734
 20
10.0236
 11
18.753
 21
9.96558
  0
LINE
  8
0
 10
18.753
 20
9.96558
 11
18.7846
 21
9.91245
  0
LINE
  8
0
 10
18.7846
 20
9.91245
 11
18.829
 21
9.86423
  0
LINE
  8
0
 10
18.829
 20
9.86423
 11
18.8822
 21
9.82419
  0
LINE
  8
0
 10
18.8822
 20
9.82419
 11
18.9404
 21
9.79558
  0
LINE
  8
0
 10
18.9404
 20
9.79558
 11
19.0036
 21
9.77843
  0
LINE
  8
0
 10
19.0036
 20
9.77843
 11
19.0719
 21
9.77271
  0
LINE
  8
0
 10
19.0719
 20
9.77271
 11
19.1409
 21
9.77843
  0
LINE
  8
0
 10
4.47058
 20
3.3815
 11
4.47058
 21
7.53613
  0
LINE
  8
0
 10
4.47058
 20
7.53613
 11
8.22185
 21
9.9563
  0
LINE
  8
0
 10
8.22185
 20
9.9563
 11
8.17888
 21
9.99774
  0
LINE
  8
0
 10
8.17888
 20
9.99774
 11
8.13472
 21
10.0373
  0
LINE
  8
0
 10
8.13472
 20
10.0373
 11
8.08934
 21
10.075
  0
LINE
  8
0
 10
8.08934
 20
10.075
 11
8.04276
 21
10.1109
  0
LINE
  8
0
 10
8.04276
 20
10.1109
 11
7.99495
 21
10.1447
  0
LINE
  8
0
 10
7.99495
 20
10.1447
 11
7.94594
 21
10.1767
  0
LINE
  8
0
 10
7.94594
 20
10.1767
 11
7.89572
 21
10.2066
  0
LINE
  8
0
 10
7.89572
 20
10.2066
 11
7.8443
 21
10.2345
  0
LINE
  8
0
 10
7.8443
 20
10.2345
 11
7.79166
 21
10.2603
  0
LINE
  8
0
 10
7.79166
 20
10.2603
 11
7.73781
 21
10.284
  0
LINE
  8
0
 10
7.73781
 20
10.284
 11
7.68275
 21
10.3056
  0
LINE
  8
0
 10
7.68275
 20
10.3056
 11
7.62648
 21
10.3251
  0
LINE
  8
0
 10
7.62648
 20
10.3251
 11
7.569
 21
10.3424
  0
LINE
  8
0
 10
7.569
 20
10.3424
 11
7.51031
 21
10.3575
  0
LINE
  8
0
 10
7.51031
 20
10.3575
 11
7.45041
 21
10.3704
  0
LINE
  8
0
 10
7.45041
 20
10.3704
 11
7.3893
 21
10.381
  0
LINE
  8
0
 10
7.3893
 20
10.381
 11
7.32698
 21
10.3892
  0
LINE
  8
0
 10
7.32698
 20
10.3892
 11
7.26346
 21
10.3952
  0
LINE
  8
0
 10
7.26346
 20
10.3952
 11
7.19872
 21
10.3988
  0
LINE
  8
0
 10
7.19872
 20
10.3988
 11
7.13277
 21
10.4
  0
LINE
  8
0
 10
7.13277
 20
10.4
 11
3.2605
 21
10.4
  0
LINE
  8
0
 10
3.2605
 20
10.4
 11
3.05701
 21
10.3919
  0
LINE
  8
0
 10
3.05701
 20
10.3919
 11
2.85835
 21
10.3681
  0
LINE
  8
0
 10
2.85835
 20
10.3681
 11
2.66513
 21
10.3291
  0
LINE
  8
0
 10
2.66513
 20
10.3291
 11
2.47798
 21
10.2754
  0
LINE
  8
0
 10
2.47798
 20
10.2754
 11
2.29747
 21
10.2078
  0
LINE
  8
0
 10
2.29747
 20
10.2078
 11
2.12422
 21
10.1266
  0
LINE
  8
0
 10
2.12422
 20
10.1266
 11
1.95885
 21
10.0326
  0
LINE
  8
0
 10
1.95885
 20
10.0326
 11
1.80194
 21
9.92628
  0
LINE
  8
0
 10
1.80194
 20
9.92628
 11
1.65411
 21
9.80821
  0
LINE
  8
0
 10
1.65411
 20
9.80821
 11
1.51596
 21
9.67899
  0
LINE
  8
0
 10
1.51596
 20
9.67899
 11
1.38809
 21
9.53917
  0
LINE
  8
0
 10
1.38809
 20
9.53917
 11
1.27112
 21
9.38933
  0
LINE
  8
0
 10
1.27112
 20
9.38933
 11
1.16563
 21
9.23006
  0
LINE
  8
0
 10
1.16563
 20
9.23006
 11
1.07227
 21
9.06192
  0
LINE
  8
0
 10
1.07227
 20
9.06192
 11
0.991592
 21
8.8855
  0
LINE
  8
0
 10
0.991592
 20
8.8855
 11
0.924225
 21
8.70135
  0
LINE
  8
0
 10
0.924225
 20
8.70135
 11
0.870789
 21
8.51007
  0
LINE
  8
0
 10
0.870789
 20
8.51007
 11
0.831863
 21
8.31224
  0
LINE
  8
0
 10
0.831863
 20
8.31224
 11
0.80806
 21
8.1084
  0
LINE
  8
0
 10
0.80806
 20
8.1084
 11
0.799988
 21
7.89915
  0
LINE
  8
0
 10
0.799988
 20
7.89915
 11
0.799988
 21
2.73613
  0
LINE
  8
0
 10
0.799988
 20
2.73613
 11
0.800613
 21
2.66383
  0
LINE
  8
0
 10
0.800613
 20
2.66383
 11
0.80249
 21
2.59221
  0
LINE
  8
0
 10
0.80249
 20
2.59221
 11
0.80571
 21
2.5213
  0
LINE
  8
0
 10
0.80571
 20
2.5213
 11
0.810318
 21
2.45119
  0
LINE
  8
0
 10
0.810318
 20
2.45119
 11
0.816376
 21
2.38193
  0
LINE
  8
0
 10
0.816376
 20
2.38193
 11
0.823959
 21
2.31357
  0
LINE
  8
0
 10
0.823959
 20
2.31357
 11
0.833099
 21
2.24617
  0
LINE
  8
0
 10
0.833099
 20
2.24617
 11
0.843872
 21
2.17981
  0
LINE
  8
0
 10
0.843872
 20
2.17981
 11
0.856354
 21
2.11453
  0
LINE
  8
0
 10
0.856354
 20
2.11453
 11
0.870575
 21
2.05042
  0
LINE
  8
0
 10
0.870575
 20
2.05042
 11
0.886627
 21
1.9875
  0
LINE
  8
0
 10
0.886627
 20
1.9875
 11
0.904541
 21
1.92586
  0
LINE
  8
0
 10
0.904541
 20
1.92586
 11
0.924393
 21
1.86554
  0
LINE
  8
0
 10
0.924393
 20
1.86554
 11
0.946243
 21
1.80663
  0
LINE
  8
0
 10
0.946243
 20
1.80663
 11
0.970154
 21
1.74915
  0
LINE
  8
0
 10
0.970154
 20
1.74915
 11
0.996185
 21
1.69319
  0
LINE
  8
0
 10
0.996185
 20
1.69319
 11
1.0244
 21
1.63881
  0
LINE
  8
0
 10
1.0244
 20
1.63881
 11
1.05484
 21
1.58606
  0
LINE
  8
0
 10
1.05484
 20
1.58606
 11
1.08759
 21
1.535
  0
LINE
  8
0
 10
1.08759
 20
1.535
 11
1.12268
 21
1.4857
  0
LINE
  8
0
 10
1.12268
 20
1.4857
 11
4.47058
 21
3.3815
  0
LINE
  8
0
 10
26.5713
 20
7.41676
 11
26.6752
 21
7.43796
  0
LINE
  8
0
 10
26.6752
 20
7.43796
 11
26.7669
 21
7.47327
  0
LINE
  8
0
 10
26.7669
 20
7.47327
 11
26.8462
 21
7.52272
  0
LINE
  8
0
 10
26.8462
 20
7.52272
 11
26.9141
 21
7.58102
  0
LINE
  8
0
 10
26.9141
 20
7.58102
 11
26.9716
 21
7.64296
  0
LINE
  8
0
 10
26.9716
 20
7.64296
 11
27.0188
 21
7.70853
  0
LINE
  8
0
 10
27.0188
 20
7.70853
 11
27.0556
 21
7.77769
  0
LINE
  8
0
 10
27.0556
 20
7.77769
 11
27.0785
 21
7.77769
  0
LINE
  8
0
 10
27.0785
 20
7.77769
 11
27.0785
 21
7.43959
  0
LINE
  8
0
 10
27.0785
 20
7.43959
 11
27.7363
 21
7.43959
  0
LINE
  8
0
 10
27.7363
 20
7.43959
 11
27.7363
 21
10.2229
  0
LINE
  8
0
 10
27.7363
 20
10.2229
 11
27.0709
 21
10.2229
  0
LINE
  8
0
 10
27.0709
 20
10.2229
 11
27.0709
 21
9.16933
  0
LINE
  8
0
 10
27.0709
 20
9.16933
 11
27.0556
 21
9.16933
  0
LINE
  8
0
 10
27.0556
 20
9.16933
 11
27.0331
 21
9.21574
  0
LINE
  8
0
 10
27.0331
 20
9.21574
 11
27.0061
 21
9.26157
  0
LINE
  8
0
 10
27.0061
 20
9.26157
 11
26.9743
 21
9.30681
  0
LINE
  8
0
 10
26.9743
 20
9.30681
 11
26.9379
 21
9.35146
  0
LINE
  8
0
 10
26.9379
 20
9.35146
 11
26.8965
 21
9.39384
  0
LINE
  8
0
 10
26.8965
 20
9.39384
 11
26.8497
 21
9.43227
  0
LINE
  8
0
 10
26.8497
 20
9.43227
 11
26.7976
 21
9.46671
  0
LINE
  8
0
 10
26.7976
 20
9.46671
 11
26.74
 21
9.49718
  0
LINE
  8
0
 10
26.74
 20
9.49718
 11
26.6767
 21
9.52211
  0
LINE
  8
0
 10
26.6767
 20
9.52211
 11
26.6071
 21
9.53992
  0
LINE
  8
0
 10
26.6071
 20
9.53992
 11
26.5313
 21
9.5506
  0
LINE
  8
0
 10
26.5313
 20
9.5506
 11
26.4494
 21
9.55417
  0
LINE
  8
0
 10
26.4494
 20
9.55417
 11
26.3393
 21
9.54692
  0
LINE
  8
0
 10
26.3393
 20
9.54692
 11
26.233
 21
9.52521
  0
LINE
  8
0
 10
26.233
 20
9.52521
 11
26.1304
 21
9.48901
  0
LINE
  8
0
 10
26.1304
 20
9.48901
 11
26.0315
 21
9.43834
  0
LINE
  8
0
 10
26.0315
 20
9.43834
 11
25.9391
 21
9.37283
  0
LINE
  8
0
 10
25.9391
 20
9.37283
 11
25.8561
 21
9.29216
  0
LINE
  8
0
 10
25.8561
 20
9.29216
 11
25.7823
 21
9.1963
  0
LINE
  8
0
 10
25.7823
 20
9.1963
 11
25.7179
 21
9.08527
  0
LINE
  8
0
 10
25.7179
 20
9.08527
 11
25.6656
 21
8.9586
  0
LINE
  8
0
 10
25.6656
 20
8.9586
 11
25.6283
 21
8.81583
  0
LINE
  8
0
 10
25.6283
 20
8.81583
 11
25.6059
 21
8.65694
  0
LINE
  8
0
 10
25.6059
 20
8.65694
 11
25.5984
 21
8.48193
  0
LINE
  8
0
 10
25.5984
 20
8.48193
 11
25.6055
 21
8.31177
  0
LINE
  8
0
 10
25.6055
 20
8.31177
 11
25.6271
 21
8.1562
  0
LINE
  8
0
 10
25.6271
 20
8.1562
 11
25.6629
 21
8.01523
  0
LINE
  8
0
 10
25.6629
 20
8.01523
 11
25.7131
 21
7.88884
  0
LINE
  8
0
 10
25.7131
 20
7.88884
 11
25.7755
 21
7.7771
  0
LINE
  8
0
 10
25.7755
 20
7.7771
 11
25.8479
 21
7.68008
  0
LINE
  8
0
 10
25.8479
 20
7.68008
 11
25.9304
 21
7.59778
  0
LINE
  8
0
 10
25.9304
 20
7.59778
 11
26.0229
 21
7.53018
  0
LINE
  8
0
 10
26.0229
 20
7.53018
 11
26.1231
 21
7.47746
  0
LINE
  8
0
 10
26.1231
 20
7.47746
 11
26.2285
 21
7.43982
  0
LINE
  8
0
 10
26.2285
 20
7.43982
 11
26.3392
 21
7.41724
  0
LINE
  8
0
 10
26.3392
 20
7.41724
 11
26.4551
 21
7.4097
  0
LINE
  8
0
 10
26.4551
 20
7.4097
 11
26.5713
 21
7.41676
  0
LINE
  8
0
 10
26.5918
 20
7.92747
 11
26.5122
 21
7.95656
  0
LINE
  8
0
 10
26.5122
 20
7.95656
 11
26.444
 21
8.005
  0
LINE
  8
0
 10
26.444
 20
8.005
 11
26.3872
 21
8.07285
  0
LINE
  8
0
 10
26.3872
 20
8.07285
 11
26.3424
 21
8.15656
  0
LINE
  8
0
 10
26.3424
 20
8.15656
 11
26.3105
 21
8.25264
  0
LINE
  8
0
 10
26.3105
 20
8.25264
 11
26.2913
 21
8.3611
  0
LINE
  8
0
 10
26.2913
 20
8.3611
 11
26.2849
 21
8.48193
  0
LINE
  8
0
 10
26.2849
 20
8.48193
 11
26.2913
 21
8.60271
  0
LINE
  8
0
 10
26.2913
 20
8.60271
 11
26.3105
 21
8.71098
  0
LINE
  8
0
 10
26.3105
 20
8.71098
 11
26.3424
 21
8.80678
  0
LINE
  8
0
 10
26.3424
 20
8.80678
 11
26.3872
 21
8.89009
  0
LINE
  8
0
 10
26.3872
 20
8.89009
 11
26.444
 21
8.95752
  0
LINE
  8
0
 10
26.444
 20
8.95752
 11
26.5122
 21
9.00568
  0
LINE
  8
0
 10
26.5122
 20
9.00568
 11
26.5918
 21
9.03458
  0
LINE
  8
0
 10
26.5918
 20
9.03458
 11
26.6827
 21
9.0442
  0
LINE
  8
0
 10
26.6827
 20
9.0442
 11
26.773
 21
9.03474
  0
LINE
  8
0
 10
26.773
 20
9.03474
 11
26.8526
 21
9.00636
  0
LINE
  8
0
 10
26.8526
 20
9.00636
 11
26.9216
 21
8.95908
  0
LINE
  8
0
 10
26.9216
 20
8.95908
 11
26.98
 21
8.89287
  0
LINE
  8
0
 10
26.98
 20
8.89287
 11
27.0264
 21
8.81044
  0
LINE
  8
0
 10
27.0264
 20
8.81044
 11
27.0596
 21
8.71448
  0
LINE
  8
0
 10
27.0596
 20
8.71448
 11
27.0795
 21
8.60498
  0
LINE
  8
0
 10
27.0795
 20
8.60498
 11
27.0862
 21
8.48193
  0
LINE
  8
0
 10
27.0862
 20
8.48193
 11
27.0795
 21
8.36034
  0
LINE
  8
0
 10
27.0795
 20
8.36034
 11
27.0594
 21
8.25146
  0
LINE
  8
0
 10
27.0594
 20
8.25146
 11
27.0259
 21
8.15532
  0
LINE
  8
0
 10
27.0259
 20
8.15532
 11
26.979
 21
8.0719
  0
LINE
  8
0
 10
26.979
 20
8.0719
 11
26.9204
 21
8.00447
  0
LINE
  8
0
 10
26.9204
 20
8.00447
 11
26.8514
 21
7.95631
  0
LINE
  8
0
 10
26.8514
 20
7.95631
 11
26.7722
 21
7.92741
  0
LINE
  8
0
 10
26.7722
 20
7.92741
 11
26.6827
 21
7.91779
  0
LINE
  8
0
 10
26.6827
 20
7.91779
 11
26.5918
 21
7.92747
  0
LINE
  8
0
 10
20.5011
 20
8.63882
 11
20.5008
 21
8.69504
  0
LINE
  8
0
 10
20.5008
 20
8.69504
 11
20.5
 21
8.75908
  0
LINE
  8
0
 10
20.5
 20
8.75908
 11
20.4984
 21
8.83093
  0
LINE
  8
0
 10
20.4984
 20
8.83093
 11
20.4964
 21
8.91061
  0
LINE
  8
0
 10
20.4964
 20
8.91061
 11
20.4886
 21
9.17664
  0
LINE
  8
0
 10
20.4886
 20
9.17664
 11
20.4858
 21
9.27208
  0
LINE
  8
0
 10
20.4858
 20
9.27208
 11
20.4831
 21
9.36852
  0
LINE
  8
0
 10
20.4831
 20
9.36852
 11
20.4806
 21
9.46355
  0
LINE
  8
0
 10
20.4806
 20
9.46355
 11
20.4783
 21
9.55717
  0
LINE
  8
0
 10
20.4783
 20
9.55717
 11
20.4763
 21
9.64941
  0
LINE
  8
0
 10
20.4763
 20
9.64941
 11
20.5005
 21
9.55153
  0
LINE
  8
0
 10
20.5005
 20
9.55153
 11
20.5253
 21
9.45399
  0
LINE
  8
0
 10
20.5253
 20
9.45399
 11
20.5507
 21
9.3568
  0
LINE
  8
0
 10
20.5507
 20
9.3568
 11
20.5767
 21
9.25996
  0
LINE
  8
0
 10
20.5767
 20
9.25996
 11
20.6027
 21
9.16522
  0
LINE
  8
0
 10
20.6027
 20
9.16522
 11
20.6281
 21
9.07433
  0
LINE
  8
0
 10
20.6281
 20
9.07433
 11
20.6529
 21
8.98727
  0
LINE
  8
0
 10
20.6529
 20
8.98727
 11
20.6771
 21
8.90408
  0
LINE
  8
0
 10
20.6771
 20
8.90408
 11
20.7
 21
8.82655
  0
LINE
  8
0
 10
20.7
 20
8.82655
 11
20.7211
 21
8.75652
  0
LINE
  8
0
 10
20.7211
 20
8.75652
 11
20.7402
 21
8.69392
  0
LINE
  8
0
 10
20.7402
 20
8.69392
 11
20.7574
 21
8.63882
  0
LINE
  8
0
 10
20.7574
 20
8.63882
 11
21.1685
 21
7.43959
  0
LINE
  8
0
 10
21.1685
 20
7.43959
 11
21.7327
 21
7.43959
  0
LINE
  8
0
 10
21.7327
 20
7.43959
 11
22.1381
 21
8.63882
  0
LINE
  8
0
 10
22.1381
 20
8.63882
 11
22.1561
 21
8.69598
  0
LINE
  8
0
 10
22.1561
 20
8.69598
 11
22.1759
 21
8.76096
  0
LINE
  8
0
 10
22.1759
 20
8.76096
 11
22.1973
 21
8.83374
  0
LINE
  8
0
 10
22.1973
 20
8.83374
 11
22.2203
 21
8.91435
  0
LINE
  8
0
 10
22.2203
 20
8.91435
 11
22.2445
 21
9.00081
  0
LINE
  8
0
 10
22.2445
 20
9.00081
 11
22.2693
 21
9.09113
  0
LINE
  8
0
 10
22.2693
 20
9.09113
 11
22.2947
 21
9.18529
  0
LINE
  8
0
 10
22.2947
 20
9.18529
 11
22.3207
 21
9.28329
  0
LINE
  8
0
 10
22.3207
 20
9.28329
 11
22.3467
 21
9.38312
  0
LINE
  8
0
 10
22.3467
 20
9.38312
 11
22.3721
 21
9.48271
  0
LINE
  8
0
 10
22.3721
 20
9.48271
 11
22.3969
 21
9.58206
  0
LINE
  8
0
 10
22.3969
 20
9.58206
 11
22.4211
 21
9.68117
  0
LINE
  8
0
 10
22.4211
 20
9.68117
 11
22.4191
 21
9.58684
  0
LINE
  8
0
 10
22.4191
 20
9.58684
 11
22.4168
 21
9.49065
  0
LINE
  8
0
 10
22.4168
 20
9.49065
 11
22.4143
 21
9.39258
  0
LINE
  8
0
 10
22.4143
 20
9.39258
 11
22.4115
 21
9.29262
  0
LINE
  8
0
 10
22.4115
 20
9.29262
 11
22.401
 21
8.91811
  0
LINE
  8
0
 10
22.401
 20
8.91811
 11
22.3989
 21
8.83585
  0
LINE
  8
0
 10
22.3989
 20
8.83585
 11
22.3974
 21
8.76189
  0
LINE
  8
0
 10
22.3974
 20
8.76189
 11
22.3965
 21
8.69621
  0
LINE
  8
0
 10
22.3965
 20
8.69621
 11
22.3962
 21
8.63882
  0
LINE
  8
0
 10
22.3962
 20
8.63882
 11
22.3962
 21
7.43959
  0
LINE
  8
0
 10
22.3962
 20
7.43959
 11
23.0751
 21
7.43959
  0
LINE
  8
0
 10
23.0751
 20
7.43959
 11
23.0751
 21
10.2229
  0
LINE
  8
0
 10
23.0751
 20
10.2229
 11
22.0214
 21
10.2229
  0
LINE
  8
0
 10
22.0214
 20
10.2229
 11
21.6638
 21
9.13945
  0
LINE
  8
0
 10
21.6638
 20
9.13945
 11
21.649
 21
9.08815
  0
LINE
  8
0
 10
21.649
 20
9.08815
 11
21.633
 21
9.02948
  0
LINE
  8
0
 10
21.633
 20
9.02948
 11
21.616
 21
8.96347
  0
LINE
  8
0
 10
21.616
 20
8.96347
 11
21.5979
 21
8.89009
  0
LINE
  8
0
 10
21.5979
 20
8.89009
 11
21.5792
 21
8.81163
  0
LINE
  8
0
 10
21.5792
 20
8.81163
 11
21.5606
 21
8.73038
  0
LINE
  8
0
 10
21.5606
 20
8.73038
 11
21.5419
 21
8.6463
  0
LINE
  8
0
 10
21.5419
 20
8.6463
 11
21.5233
 21
8.55943
  0
LINE
  8
0
 10
21.5233
 20
8.55943
 11
21.5049
 21
8.47183
  0
LINE
  8
0
 10
21.5049
 20
8.47183
 11
21.4872
 21
8.3855
  0
LINE
  8
0
 10
21.4872
 20
8.3855
 11
21.47
 21
8.30045
  0
LINE
  8
0
 10
21.47
 20
8.30045
 11
21.4535
 21
8.21667
  0
LINE
  8
0
 10
21.4535
 20
8.21667
 11
21.436
 21
8.30051
  0
LINE
  8
0
 10
21.436
 20
8.30051
 11
21.4181
 21
8.38573
  0
LINE
  8
0
 10
21.4181
 20
8.38573
 11
21.3997
 21
8.47235
  0
LINE
  8
0
 10
21.3997
 20
8.47235
 11
21.3808
 21
8.56038
  0
LINE
  8
0
 10
21.3808
 20
8.56038
 11
21.3617
 21
8.6476
  0
LINE
  8
0
 10
21.3617
 20
8.6476
 11
21.3428
 21
8.73178
  0
LINE
  8
0
 10
21.3428
 20
8.73178
 11
21.324
 21
8.81291
  0
LINE
  8
0
 10
21.324
 20
8.81291
 11
21.3053
 21
8.89102
  0
LINE
  8
0
 10
21.3053
 20
8.89102
 11
21.2872
 21
8.96399
  0
LINE
  8
0
 10
21.2872
 20
8.96399
 11
21.2701
 21
9.02972
  0
LINE
  8
0
 10
21.2701
 20
9.02972
 11
21.2542
 21
9.08821
  0
LINE
  8
0
 10
21.2542
 20
9.08821
 11
21.2393
 21
9.13945
  0
LINE
  8
0
 10
21.2393
 20
9.13945
 11
20.876
 21
10.2229
  0
LINE
  8
0
 10
20.876
 20
10.2229
 11
19.8242
 21
10.2229
  0
LINE
  8
0
 10
19.8242
 20
10.2229
 11
19.8242
 21
7.43959
  0
LINE
  8
0
 10
19.8242
 20
7.43959
 11
20.5011
 21
7.43959
  0
LINE
  8
0
 10
20.5011
 20
7.43959
 11
20.5011
 21
8.63882
  0
LINE
  8
0
 10
16.5045
 20
7.4104
 11
16.5535
 21
7.41251
  0
LINE
  8
0
 10
16.5535
 20
7.41251
 11
16.6039
 21
7.416
  0
LINE
  8
0
 10
16.6039
 20
7.416
 11
16.6558
 21
7.42091
  0
LINE
  8
0
 10
16.6558
 20
7.42091
 11
16.7089
 21
7.4278
  0
LINE
  8
0
 10
16.7089
 20
7.4278
 11
16.7629
 21
7.43726
  0
LINE
  8
0
 10
16.7629
 20
7.43726
 11
16.8179
 21
7.44928
  0
LINE
  8
0
 10
16.8179
 20
7.44928
 11
16.8738
 21
7.46388
  0
LINE
  8
0
 10
16.8738
 20
7.46388
 11
16.7878
 21
7.93834
  0
LINE
  8
0
 10
16.7878
 20
7.93834
 11
16.7722
 21
7.93536
  0
LINE
  8
0
 10
16.7722
 20
7.93536
 11
16.7522
 21
7.93204
  0
LINE
  8
0
 10
16.7522
 20
7.93204
 11
16.7277
 21
7.92836
  0
LINE
  8
0
 10
16.7277
 20
7.92836
 11
16.6989
 21
7.92432
  0
LINE
  8
0
 10
16.6989
 20
7.92432
 11
16.6695
 21
7.92064
  0
LINE
  8
0
 10
16.6695
 20
7.92064
 11
16.6436
 21
7.91801
  0
LINE
  8
0
 10
16.6436
 20
7.91801
 11
16.6212
 21
7.91644
  0
LINE
  8
0
 10
16.6212
 20
7.91644
 11
16.6023
 21
7.91592
  0
LINE
  8
0
 10
16.6023
 20
7.91592
 11
16.5278
 21
7.92607
  0
LINE
  8
0
 10
16.5278
 20
7.92607
 11
16.4746
 21
7.95654
  0
LINE
  8
0
 10
16.4746
 20
7.95654
 11
16.4427
 21
8.00732
  0
LINE
  8
0
 10
16.4427
 20
8.00732
 11
16.4321
 21
8.07843
  0
LINE
  8
0
 10
16.4321
 20
8.07843
 11
16.4321
 21
9.0442
  0
LINE
  8
0
 10
16.4321
 20
9.0442
 11
16.8165
 21
9.0442
  0
LINE
  8
0
 10
16.8165
 20
9.0442
 11
16.8165
 21
9.528
  0
LINE
  8
0
 10
16.8165
 20
9.528
 11
16.4321
 21
9.528
  0
LINE
  8
0
 10
16.4321
 20
9.528
 11
16.4321
 21
10.0249
  0
LINE
  8
0
 10
16.4321
 20
10.0249
 11
15.7647
 21
10.0249
  0
LINE
  8
0
 10
15.7647
 20
10.0249
 11
15.7647
 21
9.528
  0
LINE
  8
0
 10
15.7647
 20
9.528
 11
15.4816
 21
9.528
  0
LINE
  8
0
 10
15.4816
 20
9.528
 11
15.4816
 21
9.0442
  0
LINE
  8
0
 10
15.4816
 20
9.0442
 11
15.7647
 21
9.0442
  0
LINE
  8
0
 10
15.7647
 20
9.0442
 11
15.7647
 21
8.02052
  0
LINE
  8
0
 10
15.7647
 20
8.02052
 11
15.7757
 21
7.88002
  0
LINE
  8
0
 10
15.7757
 20
7.88002
 11
15.8087
 21
7.75737
  0
LINE
  8
0
 10
15.8087
 20
7.75737
 11
15.8636
 21
7.65259
  0
LINE
  8
0
 10
15.8636
 20
7.65259
 11
15.9406
 21
7.56566
  0
LINE
  8
0
 10
15.9406
 20
7.56566
 11
16.0388
 21
7.49742
  0
LINE
  8
0
 10
16.0388
 20
7.49742
 11
16.1577
 21
7.44868
  0
LINE
  8
0
 10
16.1577
 20
7.44868
 11
16.297
 21
7.41945
  0
LINE
  8
0
 10
16.297
 20
7.41945
 11
16.4569
 21
7.4097
  0
LINE
  8
0
 10
16.4569
 20
7.4097
 11
16.5045
 21
7.4104
  0
LINE
  8
0
 10
10.4873
 20
8.67992
 11
10.4927
 21
8.75745
  0
LINE
  8
0
 10
10.4927
 20
8.75745
 11
10.509
 21
8.82562
  0
LINE
  8
0
 10
10.509
 20
8.82562
 11
10.5362
 21
8.88448
  0
LINE
  8
0
 10
10.5362
 20
8.88448
 11
10.5743
 21
8.93396
  0
LINE
  8
0
 10
10.5743
 20
8.93396
 11
10.6208
 21
8.97321
  0
LINE
  8
0
 10
10.6208
 20
8.97321
 11
10.6735
 21
9.00124
  0
LINE
  8
0
 10
10.6735
 20
9.00124
 11
10.7323
 21
9.01805
  0
LINE
  8
0
 10
10.7323
 20
9.01805
 11
10.7971
 21
9.02365
  0
LINE
  8
0
 10
10.7971
 20
9.02365
 11
10.86
 21
9.01834
  0
LINE
  8
0
 10
10.86
 20
9.01834
 11
10.9169
 21
9.0024
  0
LINE
  8
0
 10
10.9169
 20
9.0024
 11
10.9676
 21
8.97583
  0
LINE
  8
0
 10
10.9676
 20
8.97583
 11
11.0122
 21
8.93864
  0
LINE
  8
0
 10
11.0122
 20
8.93864
 11
11.0486
 21
8.89247
  0
LINE
  8
0
 10
11.0486
 20
8.89247
 11
11.0746
 21
8.83894
  0
LINE
  8
0
 10
11.0746
 20
8.83894
 11
11.0902
 21
8.77805
  0
LINE
  8
0
 10
11.0902
 20
8.77805
 11
11.0954
 21
8.70981
  0
LINE
  8
0
 10
11.0954
 20
8.70981
 11
11.0954
 21
7.43959
  0
LINE
  8
0
 10
11.0954
 20
7.43959
 11
11.736
 21
7.43959
  0
LINE
  8
0
 10
11.736
 20
7.43959
 11
11.736
 21
8.69301
  0
LINE
  8
0
 10
11.736
 20
8.69301
 11
11.7412
 21
8.76404
  0
LINE
  8
0
 10
11.7412
 20
8.76404
 11
11.7566
 21
8.82773
  0
LINE
  8
0
 10
11.7566
 20
8.82773
 11
11.7823
 21
8.88406
  0
LINE
  8
0
 10
11.7823
 20
8.88406
 11
11.8183
 21
8.93303
  0
LINE
  8
0
 10
11.8183
 20
8.93303
 11
11.8631
 21
8.97267
  0
LINE
  8
0
 10
11.8631
 20
8.97267
 11
11.9153
 21
9.00099
  0
LINE
  8
0
 10
11.9153
 20
9.00099
 11
11.975
 21
9.01799
  0
LINE
  8
0
 10
11.975
 20
9.01799
 11
12.042
 21
9.02365
  0
LINE
  8
0
 10
12.042
 20
9.02365
 11
12.1051
 21
9.01851
  0
LINE
  8
0
 10
12.1051
 20
9.01851
 11
12.1623
 21
9.0031
  0
LINE
  8
0
 10
12.1623
 20
9.0031
 11
12.2136
 21
8.97742
  0
LINE
  8
0
 10
12.2136
 20
8.97742
 11
12.2591
 21
8.94145
  0
LINE
  8
0
 10
12.2591
 20
8.94145
 11
12.2963
 21
8.89557
  0
LINE
  8
0
 10
12.2963
 20
8.89557
 11
12.3229
 21
8.84012
  0
LINE
  8
0
 10
12.3229
 20
8.84012
 11
12.3389
 21
8.77509
  0
LINE
  8
0
 10
12.3389
 20
8.77509
 11
12.3442
 21
8.70047
  0
LINE
  8
0
 10
12.3442
 20
8.70047
 11
12.3442
 21
7.43959
  0
LINE
  8
0
 10
12.3442
 20
7.43959
 11
13.0097
 21
7.43959
  0
LINE
  8
0
 10
13.0097
 20
7.43959
 11
13.0097
 21
8.84805
  0
LINE
  8
0
 10
13.0097
 20
8.84805
 11
12.9977
 21
9.0045
  0
LINE
  8
0
 10
12.9977
 20
9.0045
 11
12.9616
 21
9.1432
  0
LINE
  8
0
 10
12.9616
 20
9.1432
 11
12.9016
 21
9.26416
  0
LINE
  8
0
 10
12.9016
 20
9.26416
 11
12.8175
 21
9.36736
  0
LINE
  8
0
 10
12.8175
 20
9.36736
 11
12.7146
 21
9.44991
  0
LINE
  8
0
 10
12.7146
 20
9.44991
 11
12.5983
 21
9.50887
  0
LINE
  8
0
 10
12.5983
 20
9.50887
 11
12.4684
 21
9.54425
  0
LINE
  8
0
 10
12.4684
 20
9.54425
 11
12.325
 21
9.55603
  0
LINE
  8
0
 10
12.325
 20
9.55603
 11
12.2186
 21
9.54897
  0
LINE
  8
0
 10
12.2186
 20
9.54897
 11
12.1154
 21
9.52779
  0
LINE
  8
0
 10
12.1154
 20
9.52779
 11
12.0154
 21
9.49246
  0
LINE
  8
0
 10
12.0154
 20
9.49246
 11
11.9187
 21
9.44302
  0
LINE
  8
0
 10
11.9187
 20
9.44302
 11
11.8293
 21
9.37746
  0
LINE
  8
0
 10
11.8293
 20
9.37746
 11
11.7516
 21
9.29381
  0
LINE
  8
0
 10
11.7516
 20
9.29381
 11
11.6854
 21
9.19206
  0
LINE
  8
0
 10
11.6854
 20
9.19206
 11
11.6309
 21
9.0722
  0
LINE
  8
0
 10
11.6309
 20
9.0722
 11
11.5882
 21
9.1913
  0
LINE
  8
0
 10
11.5882
 20
9.1913
 11
11.5384
 21
9.29263
  0
LINE
  8
0
 10
11.5384
 20
9.29263
 11
11.4815
 21
9.37624
  0
LINE
  8
0
 10
11.4815
 20
9.37624
 11
11.4176
 21
9.44208
  0
LINE
  8
0
 10
11.4176
 20
9.44208
 11
11.346
 21
9.49194
  0
LINE
  8
0
 10
11.346
 20
9.49194
 11
11.2659
 21
9.52754
  0
LINE
  8
0
 10
11.2659
 20
9.52754
 11
11.1772
 21
9.54892
  0
LINE
  8
0
 10
11.1772
 20
9.54892
 11
11.0801
 21
9.55603
  0
LINE
  8
0
 10
11.0801
 20
9.55603
 11
10.9852
 21
9.54956
  0
LINE
  8
0
 10
10.9852
 20
9.54956
 11
10.8934
 21
9.53012
  0
LINE
  8
0
 10
10.8934
 20
9.53012
 11
10.8049
 21
9.49771
  0
LINE
  8
0
 10
10.8049
 20
9.49771
 11
10.7197
 21
9.45236
  0
LINE
  8
0
 10
10.7197
 20
9.45236
 11
10.641
 21
9.39229
  0
LINE
  8
0
 10
10.641
 20
9.39229
 11
10.5722
 21
9.31575
  0
LINE
  8
0
 10
10.5722
 20
9.31575
 11
10.5133
 21
9.22276
  0
LINE
  8
0
 10
10.5133
 20
9.22276
 11
10.4644
 21
9.11331
  0
LINE
  8
0
 10
10.4644
 20
9.11331
 11
10.4338
 21
9.528
  0
LINE
  8
0
 10
10.4338
 20
9.528
 11
9.81992
 21
9.528
  0
LINE
  8
0
 10
9.81992
 20
9.528
 11
9.81992
 21
7.43959
  0
LINE
  8
0
 10
9.81992
 20
7.43959
 11
10.4873
 21
7.43959
  0
LINE
  8
0
 10
10.4873
 20
7.43959
 11
10.4873
 21
8.67992
  0
LINE
  8
0
 10
37.0768
 20
8.67992
 11
37.0823
 21
8.75745
  0
LINE
  8
0
 10
37.0823
 20
8.75745
 11
37.0986
 21
8.82562
  0
LINE
  8
0
 10
37.0986
 20
8.82562
 11
37.1258
 21
8.88448
  0
LINE
  8
0
 10
37.1258
 20
8.88448
 11
37.1638
 21
8.93396
  0
LINE
  8
0
 10
37.1638
 20
8.93396
 11
37.2104
 21
8.97321
  0
LINE
  8
0
 10
37.2104
 20
8.97321
 11
37.263
 21
9.00124
  0
LINE
  8
0
 10
37.263
 20
9.00124
 11
37.3218
 21
9.01805
  0
LINE
  8
0
 10
37.3218
 20
9.01805
 11
37.3866
 21
9.02365
  0
LINE
  8
0
 10
37.3866
 20
9.02365
 11
37.4496
 21
9.01834
  0
LINE
  8
0
 10
37.4496
 20
9.01834
 11
37.5064
 21
9.0024
  0
LINE
  8
0
 10
37.5064
 20
9.0024
 11
37.5571
 21
8.97583
  0
LINE
  8
0
 10
37.5571
 20
8.97583
 11
37.6018
 21
8.93864
  0
LINE
  8
0
 10
37.6018
 20
8.93864
 11
37.6382
 21
8.89247
  0
LINE
  8
0
 10
37.6382
 20
8.89247
 11
37.6642
 21
8.83894
  0
LINE
  8
0
 10
37.6642
 20
8.83894
 11
37.6797
 21
8.77805
  0
LINE
  8
0
 10
37.6797
 20
8.77805
 11
37.685
 21
8.70981
  0
LINE
  8
0
 10
37.685
 20
8.70981
 11
37.685
 21
7.43959
  0
LINE
  8
0
 10
37.685
 20
7.43959
 11
38.3256
 21
7.43959
  0
LINE
  8
0
 10
38.3256
 20
7.43959
 11
38.3256
 21
8.69301
  0
LINE
  8
0
 10
38.3256
 20
8.69301
 11
38.3307
 21
8.76404
  0
LINE
  8
0
 10
38.3307
 20
8.76404
 11
38.3461
 21
8.82773
  0
LINE
  8
0
 10
38.3461
 20
8.82773
 11
38.3718
 21
8.88406
  0
LINE
  8
0
 10
38.3718
 20
8.88406
 11
38.4078
 21
8.93303
  0
LINE
  8
0
 10
38.4078
 20
8.93303
 11
38.4526
 21
8.97267
  0
LINE
  8
0
 10
38.4526
 20
8.97267
 11
38.5049
 21
9.00099
  0
LINE
  8
0
 10
38.5049
 20
9.00099
 11
38.5645
 21
9.01799
  0
LINE
  8
0
 10
38.5645
 20
9.01799
 11
38.6315
 21
9.02365
  0
LINE
  8
0
 10
38.6315
 20
9.02365
 11
38.6946
 21
9.01851
  0
LINE
  8
0
 10
38.6946
 20
9.01851
 11
38.7518
 21
9.0031
  0
LINE
  8
0
 10
38.7518
 20
9.0031
 11
38.8031
 21
8.97742
  0
LINE
  8
0
 10
38.8031
 20
8.97742
 11
38.8486
 21
8.94145
  0
LINE
  8
0
 10
38.8486
 20
8.94145
 11
38.8858
 21
8.89557
  0
LINE
  8
0
 10
38.8858
 20
8.89557
 11
38.9124
 21
8.84012
  0
LINE
  8
0
 10
38.9124
 20
8.84012
 11
38.9284
 21
8.77509
  0
LINE
  8
0
 10
38.9284
 20
8.77509
 11
38.9337
 21
8.70047
  0
LINE
  8
0
 10
38.9337
 20
8.70047
 11
38.9337
 21
7.43959
  0
LINE
  8
0
 10
38.9337
 20
7.43959
 11
39.5992
 21
7.43959
  0
LINE
  8
0
 10
39.5992
 20
7.43959
 11
39.5992
 21
8.84805
  0
LINE
  8
0
 10
39.5992
 20
8.84805
 11
39.5872
 21
9.0045
  0
LINE
  8
0
 10
39.5872
 20
9.0045
 11
39.5511
 21
9.1432
  0
LINE
  8
0
 10
39.5511
 20
9.1432
 11
39.4911
 21
9.26416
  0
LINE
  8
0
 10
39.4911
 20
9.26416
 11
39.407
 21
9.36736
  0
LINE
  8
0
 10
39.407
 20
9.36736
 11
39.3042
 21
9.44991
  0
LINE
  8
0
 10
39.3042
 20
9.44991
 11
39.1878
 21
9.50887
  0
LINE
  8
0
 10
39.1878
 20
9.50887
 11
39.0579
 21
9.54425
  0
LINE
  8
0
 10
39.0579
 20
9.54425
 11
38.9146
 21
9.55603
  0
LINE
  8
0
 10
38.9146
 20
9.55603
 11
38.8081
 21
9.54897
  0
LINE
  8
0
 10
38.8081
 20
9.54897
 11
38.7049
 21
9.52779
  0
LINE
  8
0
 10
38.7049
 20
9.52779
 11
38.605
 21
9.49246
  0
LINE
  8
0
 10
38.605
 20
9.49246
 11
38.5082
 21
9.44302
  0
LINE
  8
0
 10
38.5082
 20
9.44302
 11
38.4189
 21
9.37746
  0
LINE
  8
0
 10
38.4189
 20
9.37746
 11
38.3411
 21
9.29381
  0
LINE
  8
0
 10
38.3411
 20
9.29381
 11
38.275
 21
9.19206
  0
LINE
  8
0
 10
38.275
 20
9.19206
 11
38.2204
 21
9.0722
  0
LINE
  8
0
 10
38.2204
 20
9.0722
 11
38.1777
 21
9.1913
  0
LINE
  8
0
 10
38.1777
 20
9.1913
 11
38.1279
 21
9.29263
  0
LINE
  8
0
 10
38.1279
 20
9.29263
 11
38.0711
 21
9.37624
  0
LINE
  8
0
 10
38.0711
 20
9.37624
 11
38.0072
 21
9.44208
  0
LINE
  8
0
 10
38.0072
 20
9.44208
 11
37.9355
 21
9.49194
  0
LINE
  8
0
 10
37.9355
 20
9.49194
 11
37.8554
 21
9.52754
  0
LINE
  8
0
 10
37.8554
 20
9.52754
 11
37.7668
 21
9.54892
  0
LINE
  8
0
 10
37.7668
 20
9.54892
 11
37.6696
 21
9.55603
  0
LINE
  8
0
 10
37.6696
 20
9.55603
 11
37.5747
 21
9.54956
  0
LINE
  8
0
 10
37.5747
 20
9.54956
 11
37.483
 21
9.53012
  0
LINE
  8
0
 10
37.483
 20
9.53012
 11
37.3945
 21
9.49771
  0
LINE
  8
0
 10
37.3945
 20
9.49771
 11
37.3092
 21
9.45236
  0
LINE
  8
0
 10
37.3092
 20
9.45236
 11
37.2305
 21
9.39229
  0
LINE
  8
0
 10
37.2305
 20
9.39229
 11
37.1617
 21
9.31575
  0
LINE
  8
0
 10
37.1617
 20
9.31575
 11
37.1028
 21
9.22276
  0
LINE
  8
0
 10
37.1028
 20
9.22276
 11
37.0539
 21
9.11331
  0
LINE
  8
0
 10
37.0539
 20
9.11331
 11
37.0233
 21
9.528
  0
LINE
  8
0
 10
37.0233
 20
9.528
 11
36.4094
 21
9.528
  0
LINE
  8
0
 10
36.4094
 20
9.528
 11
36.4094
 21
7.43959
  0
LINE
  8
0
 10
36.4094
 20
7.43959
 11
37.0768
 21
7.43959
  0
LINE
  8
0
 10
37.0768
 20
7.43959
 11
37.0768
 21
8.67992
  0
LINE
  8
0
 10
29.3016
 20
7.4104
 11
29.4704
 21
7.44052
  0
LINE
  8
0
 10
29.4704
 20
7.44052
 11
29.6223
 21
7.49072
  0
LINE
  8
0
 10
29.6223
 20
7.49072
 11
29.7575
 21
7.561
  0
LINE
  8
0
 10
29.7575
 20
7.561
 11
29.8734
 21
7.64821
  0
LINE
  8
0
 10
29.8734
 20
7.64821
 11
29.9676
 21
7.74921
  0
LINE
  8
0
 10
29.9676
 20
7.74921
 11
30.0402
 21
7.86397
  0
LINE
  8
0
 10
30.0402
 20
7.86397
 11
30.0912
 21
7.99252
  0
LINE
  8
0
 10
30.0912
 20
7.99252
 11
29.4964
 21
8.08777
  0
LINE
  8
0
 10
29.4964
 20
8.08777
 11
29.4728
 21
8.03856
  0
LINE
  8
0
 10
29.4728
 20
8.03856
 11
29.4419
 21
7.99554
  0
LINE
  8
0
 10
29.4419
 20
7.99554
 11
29.4039
 21
7.95871
  0
LINE
  8
0
 10
29.4039
 20
7.95871
 11
29.3587
 21
7.92807
  0
LINE
  8
0
 10
29.3587
 20
7.92807
 11
29.3077
 21
7.90396
  0
LINE
  8
0
 10
29.3077
 20
7.90396
 11
29.2521
 21
7.88675
  0
LINE
  8
0
 10
29.2521
 20
7.88675
 11
29.192
 21
7.87642
  0
LINE
  8
0
 10
29.192
 20
7.87642
 11
29.1273
 21
7.87297
  0
LINE
  8
0
 10
29.1273
 20
7.87297
 11
29.0372
 21
7.88004
  0
LINE
  8
0
 10
29.0372
 20
7.88004
 11
28.956
 21
7.90121
  0
LINE
  8
0
 10
28.956
 20
7.90121
 11
28.8837
 21
7.93652
  0
LINE
  8
0
 10
28.8837
 20
7.93652
 11
28.8204
 21
7.98596
  0
LINE
  8
0
 10
28.8204
 20
7.98596
 11
28.7684
 21
8.04953
  0
LINE
  8
0
 10
28.7684
 20
8.04953
 11
28.7298
 21
8.12723
  0
LINE
  8
0
 10
28.7298
 20
8.12723
 11
28.7048
 21
8.21906
  0
LINE
  8
0
 10
28.7048
 20
8.21906
 11
28.6933
 21
8.32501
  0
LINE
  8
0
 10
28.6933
 20
8.32501
 11
30.1218
 21
8.32501
  0
LINE
  8
0
 10
30.1218
 20
8.32501
 11
30.1218
 21
8.4894
  0
LINE
  8
0
 10
30.1218
 20
8.4894
 11
30.1135
 21
8.65465
  0
LINE
  8
0
 10
30.1135
 20
8.65465
 11
30.0885
 21
8.80672
  0
LINE
  8
0
 10
30.0885
 20
8.80672
 11
30.047
 21
8.94559
  0
LINE
  8
0
 10
30.047
 20
8.94559
 11
29.9889
 21
9.07127
  0
LINE
  8
0
 10
29.9889
 20
9.07127
 11
29.9162
 21
9.18312
  0
LINE
  8
0
 10
29.9162
 20
9.18312
 11
29.8311
 21
9.2805
  0
LINE
  8
0
 10
29.8311
 20
9.2805
 11
29.7336
 21
9.36339
  0
LINE
  8
0
 10
29.7336
 20
9.36339
 11
29.6236
 21
9.43181
  0
LINE
  8
0
 10
29.6236
 20
9.43181
 11
29.5032
 21
9.48534
  0
LINE
  8
0
 10
29.5032
 20
9.48534
 11
29.3743
 21
9.52357
  0
LINE
  8
0
 10
29.3743
 20
9.52357
 11
29.2369
 21
9.54651
  0
LINE
  8
0
 10
29.2369
 20
9.54651
 11
29.091
 21
9.55417
  0
LINE
  8
0
 10
29.091
 20
9.55417
 11
28.9357
 21
9.5457
  0
LINE
  8
0
 10
28.9357
 20
9.5457
 11
28.7908
 21
9.52031
  0
LINE
  8
0
 10
28.7908
 20
9.52031
 11
28.6564
 21
9.47798
  0
LINE
  8
0
 10
28.6564
 20
9.47798
 11
28.5326
 21
9.41873
  0
LINE
  8
0
 10
28.5326
 20
9.41873
 11
28.4208
 21
9.3443
  0
LINE
  8
0
 10
28.4208
 20
9.3443
 11
28.3225
 21
9.25644
  0
LINE
  8
0
 10
28.3225
 20
9.25644
 11
28.2377
 21
9.15515
  0
LINE
  8
0
 10
28.2377
 20
9.15515
 11
28.1664
 21
9.04045
  0
LINE
  8
0
 10
28.1664
 20
9.04045
 11
28.1099
 21
8.91414
  0
LINE
  8
0
 10
28.1099
 20
8.91414
 11
28.0696
 21
8.778
  0
LINE
  8
0
 10
28.0696
 20
8.778
 11
28.0454
 21
8.63206
  0
LINE
  8
0
 10
28.0454
 20
8.63206
 11
28.0373
 21
8.47632
  0
LINE
  8
0
 10
28.0373
 20
8.47632
 11
28.0553
 21
8.23856
  0
LINE
  8
0
 10
28.0553
 20
8.23856
 11
28.1093
 21
8.02777
  0
LINE
  8
0
 10
28.1093
 20
8.02777
 11
28.1992
 21
7.84395
  0
LINE
  8
0
 10
28.1992
 20
7.84395
 11
28.3251
 21
7.6871
  0
LINE
  8
0
 10
28.3251
 20
7.6871
 11
28.4825
 21
7.56165
  0
LINE
  8
0
 10
28.4825
 20
7.56165
 11
28.6667
 21
7.47205
  0
LINE
  8
0
 10
28.6667
 20
7.47205
 11
28.8779
 21
7.41829
  0
LINE
  8
0
 10
28.8779
 20
7.41829
 11
29.1159
 21
7.40036
  0
LINE
  8
0
 10
29.1159
 20
7.40036
 11
29.3016
 21
7.4104
  0
LINE
  8
0
 10
28.6971
 20
8.70421
 11
28.7119
 21
8.78658
  0
LINE
  8
0
 10
28.7119
 20
8.78658
 11
28.737
 21
8.85995
  0
LINE
  8
0
 10
28.737
 20
8.85995
 11
28.7726
 21
8.92435
  0
LINE
  8
0
 10
28.7726
 20
8.92435
 11
28.8185
 21
8.97975
  0
LINE
  8
0
 10
28.8185
 20
8.97975
 11
28.8743
 21
9.02429
  0
LINE
  8
0
 10
28.8743
 20
9.02429
 11
28.9392
 21
9.05609
  0
LINE
  8
0
 10
28.9392
 20
9.05609
 11
29.0134
 21
9.07518
  0
LINE
  8
0
 10
29.0134
 20
9.07518
 11
29.0968
 21
9.08156
  0
LINE
  8
0
 10
29.0968
 20
9.08156
 11
29.1791
 21
9.0753
  0
LINE
  8
0
 10
29.1791
 20
9.0753
 11
29.2521
 21
9.05656
  0
LINE
  8
0
 10
29.2521
 20
9.05656
 11
29.3158
 21
9.02534
  0
LINE
  8
0
 10
29.3158
 20
9.02534
 11
29.3702
 21
8.98161
  0
LINE
  8
0
 10
29.3702
 20
8.98161
 11
29.4149
 21
8.9268
  0
LINE
  8
0
 10
29.4149
 20
8.9268
 11
29.4496
 21
8.8623
  0
LINE
  8
0
 10
29.4496
 20
8.8623
 11
29.4742
 21
8.7881
  0
LINE
  8
0
 10
29.4742
 20
8.7881
 11
29.4888
 21
8.70421
  0
LINE
  8
0
 10
29.4888
 20
8.70421
 11
28.6971
 21
8.70421
  0
LINE
  8
0
 10
32.9545
 20
7.41302
 11
33.1327
 21
7.45103
  0
LINE
  8
0
 10
33.1327
 20
7.45103
 11
33.2921
 21
7.51437
  0
LINE
  8
0
 10
33.2921
 20
7.51437
 11
33.4325
 21
7.60303
  0
LINE
  8
0
 10
33.4325
 20
7.60303
 11
33.5502
 21
7.71365
  0
LINE
  8
0
 10
33.5502
 20
7.71365
 11
33.6414
 21
7.84283
  0
LINE
  8
0
 10
33.6414
 20
7.84283
 11
33.7061
 21
7.99059
  0
LINE
  8
0
 10
33.7061
 20
7.99059
 11
33.7442
 21
8.15691
  0
LINE
  8
0
 10
33.7442
 20
8.15691
 11
33.1284
 21
8.25403
  0
LINE
  8
0
 10
33.1284
 20
8.25403
 11
33.1092
 21
8.17464
  0
LINE
  8
0
 10
33.1092
 20
8.17464
 11
33.0823
 21
8.1046
  0
LINE
  8
0
 10
33.0823
 20
8.1046
 11
33.0476
 21
8.04388
  0
LINE
  8
0
 10
33.0476
 20
8.04388
 11
33.0051
 21
7.99252
  0
LINE
  8
0
 10
33.0051
 20
7.99252
 11
32.9553
 21
7.95166
  0
LINE
  8
0
 10
32.9553
 20
7.95166
 11
32.8987
 21
7.92247
  0
LINE
  8
0
 10
32.8987
 20
7.92247
 11
32.8353
 21
7.90495
  0
LINE
  8
0
 10
32.8353
 20
7.90495
 11
32.7651
 21
7.89911
  0
LINE
  8
0
 10
32.7651
 20
7.89911
 11
32.6748
 21
7.90886
  0
LINE
  8
0
 10
32.6748
 20
7.90886
 11
32.5954
 21
7.93811
  0
LINE
  8
0
 10
32.5954
 20
7.93811
 11
32.5266
 21
7.98683
  0
LINE
  8
0
 10
32.5266
 20
7.98683
 11
32.4687
 21
8.05507
  0
LINE
  8
0
 10
32.4687
 20
8.05507
 11
32.4227
 21
8.14012
  0
LINE
  8
0
 10
32.4227
 20
8.14012
 11
32.3898
 21
8.2393
  0
LINE
  8
0
 10
32.3898
 20
8.2393
 11
32.3701
 21
8.35262
  0
LINE
  8
0
 10
32.3701
 20
8.35262
 11
32.3635
 21
8.48006
  0
LINE
  8
0
 10
32.3635
 20
8.48006
 11
32.3701
 21
8.60806
  0
LINE
  8
0
 10
32.3701
 20
8.60806
 11
32.3898
 21
8.72125
  0
LINE
  8
0
 10
32.3898
 20
8.72125
 11
32.4227
 21
8.81961
  0
LINE
  8
0
 10
32.4227
 20
8.81961
 11
32.4687
 21
8.90314
  0
LINE
  8
0
 10
32.4687
 20
8.90314
 11
32.5266
 21
8.96976
  0
LINE
  8
0
 10
32.5266
 20
8.96976
 11
32.5954
 21
9.01735
  0
LINE
  8
0
 10
32.5954
 20
9.01735
 11
32.6748
 21
9.0459
  0
LINE
  8
0
 10
32.6748
 20
9.0459
 11
32.7651
 21
9.05542
  0
LINE
  8
0
 10
32.7651
 20
9.05542
 11
32.8352
 21
9.0498
  0
LINE
  8
0
 10
32.8352
 20
9.0498
 11
32.8982
 21
9.03299
  0
LINE
  8
0
 10
32.8982
 20
9.03299
 11
32.9542
 21
9.00496
  0
LINE
  8
0
 10
32.9542
 20
9.00496
 11
33.0032
 21
8.96573
  0
LINE
  8
0
 10
33.0032
 20
8.96573
 11
33.0449
 21
8.91623
  0
LINE
  8
0
 10
33.0449
 20
8.91623
 11
33.0794
 21
8.85739
  0
LINE
  8
0
 10
33.0794
 20
8.85739
 11
33.1066
 21
8.7892
  0
LINE
  8
0
 10
33.1066
 20
8.7892
 11
33.1265
 21
8.71169
  0
LINE
  8
0
 10
33.1265
 20
8.71169
 11
33.7423
 21
8.81255
  0
LINE
  8
0
 10
33.7423
 20
8.81255
 11
33.7041
 21
8.97459
  0
LINE
  8
0
 10
33.7041
 20
8.97459
 11
33.6393
 21
9.11891
  0
LINE
  8
0
 10
33.6393
 20
9.11891
 11
33.5477
 21
9.24547
  0
LINE
  8
0
 10
33.5477
 20
9.24547
 11
33.4296
 21
9.35426
  0
LINE
  8
0
 10
33.4296
 20
9.35426
 11
33.289
 21
9.44173
  0
LINE
  8
0
 10
33.289
 20
9.44173
 11
33.1301
 21
9.5042
  0
LINE
  8
0
 10
33.1301
 20
9.5042
 11
32.9529
 21
9.54167
  0
LINE
  8
0
 10
32.9529
 20
9.54167
 11
32.7574
 21
9.55417
  0
LINE
  8
0
 10
32.7574
 20
9.55417
 11
32.596
 21
9.5457
  0
LINE
  8
0
 10
32.596
 20
9.5457
 11
32.4462
 21
9.52031
  0
LINE
  8
0
 10
32.4462
 20
9.52031
 11
32.3082
 21
9.47798
  0
LINE
  8
0
 10
32.3082
 20
9.47798
 11
32.1818
 21
9.41873
  0
LINE
  8
0
 10
32.1818
 20
9.41873
 11
32.0683
 21
9.3443
  0
LINE
  8
0
 10
32.0683
 20
9.3443
 11
31.9688
 21
9.25644
  0
LINE
  8
0
 10
31.9688
 20
9.25644
 11
31.8833
 21
9.15515
  0
LINE
  8
0
 10
31.8833
 20
9.15515
 11
31.8118
 21
9.04045
  0
LINE
  8
0
 10
31.8118
 20
9.04045
 11
31.7553
 21
8.91414
  0
LINE
  8
0
 10
31.7553
 20
8.91414
 11
31.715
 21
8.778
  0
LINE
  8
0
 10
31.715
 20
8.778
 11
31.6908
 21
8.63206
  0
LINE
  8
0
 10
31.6908
 20
8.63206
 11
31.6827
 21
8.47632
  0
LINE
  8
0
 10
31.6827
 20
8.47632
 11
31.6908
 21
8.32063
  0
LINE
  8
0
 10
31.6908
 20
8.32063
 11
31.715
 21
8.17487
  0
LINE
  8
0
 10
31.715
 20
8.17487
 11
31.7553
 21
8.03903
  0
LINE
  8
0
 10
31.7553
 20
8.03903
 11
31.8118
 21
7.9131
  0
LINE
  8
0
 10
31.8118
 20
7.9131
 11
31.8833
 21
7.79881
  0
LINE
  8
0
 10
31.8833
 20
7.79881
 11
31.9688
 21
7.69783
  0
LINE
  8
0
 10
31.9688
 20
7.69783
 11
32.0683
 21
7.61015
  0
LINE
  8
0
 10
32.0683
 20
7.61015
 11
32.1818
 21
7.53577
  0
LINE
  8
0
 10
32.1818
 20
7.53577
 11
32.3082
 21
7.47653
  0
LINE
  8
0
 10
32.3082
 20
7.47653
 11
32.4462
 21
7.43422
  0
LINE
  8
0
 10
32.4462
 20
7.43422
 11
32.596
 21
7.40883
  0
LINE
  8
0
 10
32.596
 20
7.40883
 11
32.7574
 21
7.40036
  0
LINE
  8
0
 10
32.7574
 20
7.40036
 11
32.9545
 21
7.41302
  0
LINE
  8
0
 10
35.1953
 20
7.40883
 11
35.3449
 21
7.43422
  0
LINE
  8
0
 10
35.3449
 20
7.43422
 11
35.4827
 21
7.47653
  0
LINE
  8
0
 10
35.4827
 20
7.47653
 11
35.6086
 21
7.53577
  0
LINE
  8
0
 10
35.6086
 20
7.53577
 11
35.7216
 21
7.61015
  0
LINE
  8
0
 10
35.7216
 20
7.61015
 11
35.8208
 21
7.69783
  0
LINE
  8
0
 10
35.8208
 20
7.69783
 11
35.9062
 21
7.79881
  0
LINE
  8
0
 10
35.9062
 20
7.79881
 11
35.9776
 21
7.9131
  0
LINE
  8
0
 10
35.9776
 20
7.9131
 11
36.0341
 21
8.03903
  0
LINE
  8
0
 10
36.0341
 20
8.03903
 11
36.0745
 21
8.17487
  0
LINE
  8
0
 10
36.0745
 20
8.17487
 11
36.0987
 21
8.32063
  0
LINE
  8
0
 10
36.0987
 20
8.32063
 11
36.1067
 21
8.47632
  0
LINE
  8
0
 10
36.1067
 20
8.47632
 11
36.0987
 21
8.63206
  0
LINE
  8
0
 10
36.0987
 20
8.63206
 11
36.0745
 21
8.778
  0
LINE
  8
0
 10
36.0745
 20
8.778
 11
36.0341
 21
8.91414
  0
LINE
  8
0
 10
36.0341
 20
8.91414
 11
35.9776
 21
9.04045
  0
LINE
  8
0
 10
35.9776
 20
9.04045
 11
35.9062
 21
9.15515
  0
LINE
  8
0
 10
35.9062
 20
9.15515
 11
35.8208
 21
9.25644
  0
LINE
  8
0
 10
35.8208
 20
9.25644
 11
35.7216
 21
9.3443
  0
LINE
  8
0
 10
35.7216
 20
9.3443
 11
35.6086
 21
9.41873
  0
LINE
  8
0
 10
35.6086
 20
9.41873
 11
35.4827
 21
9.47798
  0
LINE
  8
0
 10
35.4827
 20
9.47798
 11
35.3449
 21
9.52031
  0
LINE
  8
0
 10
35.3449
 20
9.52031
 11
35.1953
 21
9.5457
  0
LINE
  8
0
 10
35.1953
 20
9.5457
 11
35.0339
 21
9.55417
  0
LINE
  8
0
 10
35.0339
 20
9.55417
 11
34.8725
 21
9.5457
  0
LINE
  8
0
 10
34.8725
 20
9.5457
 11
34.7227
 21
9.52031
  0
LINE
  8
0
 10
34.7227
 20
9.52031
 11
34.5847
 21
9.47798
  0
LINE
  8
0
 10
34.5847
 20
9.47798
 11
34.4583
 21
9.41873
  0
LINE
  8
0
 10
34.4583
 20
9.41873
 11
34.3448
 21
9.3443
  0
LINE
  8
0
 10
34.3448
 20
9.3443
 11
34.2453
 21
9.25644
  0
LINE
  8
0
 10
34.2453
 20
9.25644
 11
34.1598
 21
9.15515
  0
LINE
  8
0
 10
34.1598
 20
9.15515
 11
34.0883
 21
9.04045
  0
LINE
  8
0
 10
34.0883
 20
9.04045
 11
34.0318
 21
8.91414
  0
LINE
  8
0
 10
34.0318
 20
8.91414
 11
33.9915
 21
8.778
  0
LINE
  8
0
 10
33.9915
 20
8.778
 11
33.9673
 21
8.63206
  0
LINE
  8
0
 10
33.9673
 20
8.63206
 11
33.9592
 21
8.47632
  0
LINE
  8
0
 10
33.9592
 20
8.47632
 11
33.9673
 21
8.32063
  0
LINE
  8
0
 10
33.9673
 20
8.32063
 11
33.9915
 21
8.17487
  0
LINE
  8
0
 10
33.9915
 20
8.17487
 11
34.0318
 21
8.03903
  0
LINE
  8
0
 10
34.0318
 20
8.03903
 11
34.0883
 21
7.9131
  0
LINE
  8
0
 10
34.0883
 20
7.9131
 11
34.1598
 21
7.79881
  0
LINE
  8
0
 10
34.1598
 20
7.79881
 11
34.2453
 21
7.69783
  0
LINE
  8
0
 10
34.2453
 20
7.69783
 11
34.3448
 21
7.61015
  0
LINE
  8
0
 10
34.3448
 20
7.61015
 11
34.4583
 21
7.53577
  0
LINE
  8
0
 10
34.4583
 20
7.53577
 11
34.5847
 21
7.47653
  0
LINE
  8
0
 10
34.5847
 20
7.47653
 11
34.7227
 21
7.43422
  0
LINE
  8
0
 10
34.7227
 20
7.43422
 11
34.8725
 21
7.40883
  0
LINE
  8
0
 10
34.8725
 20
7.40883
 11
35.0339
 21
7.40036
  0
LINE
  8
0
 10
35.0339
 20
7.40036
 11
35.1953
 21
7.40883
  0
LINE
  8
0
 10
34.9439
 20
7.90909
 11
34.8652
 21
7.93904
  0
LINE
  8
0
 10
34.8652
 20
7.93904
 11
34.7976
 21
7.98895
  0
LINE
  8
0
 10
34.7976
 20
7.98895
 11
34.7413
 21
8.05882
  0
LINE
  8
0
 10
34.7413
 20
8.05882
 11
34.697
 21
8.14503
  0
LINE
  8
0
 10
34.697
 20
8.14503
 11
34.6653
 21
8.24399
  0
LINE
  8
0
 10
34.6653
 20
8.24399
 11
34.6463
 21
8.35567
  0
LINE
  8
0
 10
34.6463
 20
8.35567
 11
34.64
 21
8.48006
  0
LINE
  8
0
 10
34.64
 20
8.48006
 11
34.6463
 21
8.60428
  0
LINE
  8
0
 10
34.6463
 20
8.60428
 11
34.6653
 21
8.71542
  0
LINE
  8
0
 10
34.6653
 20
8.71542
 11
34.697
 21
8.81349
  0
LINE
  8
0
 10
34.697
 20
8.81349
 11
34.7413
 21
8.89848
  0
LINE
  8
0
 10
34.7413
 20
8.89848
 11
34.7976
 21
8.96715
  0
LINE
  8
0
 10
34.7976
 20
8.96715
 11
34.8652
 21
9.01617
  0
LINE
  8
0
 10
34.8652
 20
9.01617
 11
34.9439
 21
9.04561
  0
LINE
  8
0
 10
34.9439
 20
9.04561
 11
35.0339
 21
9.05542
  0
LINE
  8
0
 10
35.0339
 20
9.05542
 11
35.1239
 21
9.04561
  0
LINE
  8
0
 10
35.1239
 20
9.04561
 11
35.2027
 21
9.01617
  0
LINE
  8
0
 10
35.2027
 20
9.01617
 11
35.2702
 21
8.96715
  0
LINE
  8
0
 10
35.2702
 20
8.96715
 11
35.3265
 21
8.89848
  0
LINE
  8
0
 10
35.3265
 20
8.89848
 11
35.3708
 21
8.81349
  0
LINE
  8
0
 10
35.3708
 20
8.81349
 11
35.4025
 21
8.71542
  0
LINE
  8
0
 10
35.4025
 20
8.71542
 11
35.4215
 21
8.60428
  0
LINE
  8
0
 10
35.4215
 20
8.60428
 11
35.4279
 21
8.48006
  0
LINE
  8
0
 10
35.4279
 20
8.48006
 11
35.4215
 21
8.35567
  0
LINE
  8
0
 10
35.4215
 20
8.35567
 11
35.4025
 21
8.24399
  0
LINE
  8
0
 10
35.4025
 20
8.24399
 11
35.3708
 21
8.14503
  0
LINE
  8
0
 10
35.3708
 20
8.14503
 11
35.3265
 21
8.05882
  0
LINE
  8
0
 10
35.3265
 20
8.05882
 11
35.2702
 21
7.98895
  0
LINE
  8
0
 10
35.2702
 20
7.98895
 11
35.2027
 21
7.93904
  0
LINE
  8
0
 10
35.2027
 20
7.93904
 11
35.1239
 21
7.90909
  0
LINE
  8
0
 10
35.1239
 20
7.90909
 11
35.0339
 21
7.89911
  0
LINE
  8
0
 10
35.0339
 20
7.89911
 11
34.9439
 21
7.90909
  0
LINE
  8
0
 10
17.7911
 20
8.57906
 11
17.7987
 21
8.66801
  0
LINE
  8
0
 10
17.7987
 20
8.66801
 11
17.8215
 21
8.74811
  0
LINE
  8
0
 10
17.8215
 20
8.74811
 11
17.8594
 21
8.81932
  0
LINE
  8
0
 10
17.8594
 20
8.81932
 11
17.9125
 21
8.88165
  0
LINE
  8
0
 10
17.9125
 20
8.88165
 11
17.9773
 21
8.93233
  0
LINE
  8
0
 10
17.9773
 20
8.93233
 11
18.05
 21
8.96852
  0
LINE
  8
0
 10
18.05
 20
8.96852
 11
18.1307
 21
8.99025
  0
LINE
  8
0
 10
18.1307
 20
8.99025
 11
18.2195
 21
8.99748
  0
LINE
  8
0
 10
18.2195
 20
8.99748
 11
18.2511
 21
8.99696
  0
LINE
  8
0
 10
18.2511
 20
8.99696
 11
18.2847
 21
8.99539
  0
LINE
  8
0
 10
18.2847
 20
8.99539
 11
18.3204
 21
8.99275
  0
LINE
  8
0
 10
18.3204
 20
8.99275
 11
18.3581
 21
8.98909
  0
LINE
  8
0
 10
18.3581
 20
8.98909
 11
18.395
 21
8.98436
  0
LINE
  8
0
 10
18.395
 20
8.98436
 11
18.4281
 21
8.97858
  0
LINE
  8
0
 10
18.4281
 20
8.97858
 11
18.4576
 21
8.97176
  0
LINE
  8
0
 10
18.4576
 20
8.97176
 11
18.4834
 21
8.96388
  0
LINE
  8
0
 10
18.4834
 20
8.96388
 11
18.4834
 21
9.53174
  0
LINE
  8
0
 10
18.4834
 20
9.53174
 11
18.4371
 21
9.54155
  0
LINE
  8
0
 10
18.4371
 20
9.54155
 11
18.3902
 21
9.54855
  0
LINE
  8
0
 10
18.3902
 20
9.54855
 11
18.3425
 21
9.55276
  0
LINE
  8
0
 10
18.3425
 20
9.55276
 11
18.2941
 21
9.55417
  0
LINE
  8
0
 10
18.2941
 20
9.55417
 11
18.2088
 21
9.54785
  0
LINE
  8
0
 10
18.2088
 20
9.54785
 11
18.1289
 21
9.52895
  0
LINE
  8
0
 10
18.1289
 20
9.52895
 11
18.0544
 21
9.49742
  0
LINE
  8
0
 10
18.0544
 20
9.49742
 11
17.9852
 21
9.45329
  0
LINE
  8
0
 10
17.9852
 20
9.45329
 11
17.9235
 21
9.39632
  0
LINE
  8
0
 10
17.9235
 20
9.39632
 11
17.8712
 21
9.32626
  0
LINE
  8
0
 10
17.8712
 20
9.32626
 11
17.8283
 21
9.24315
  0
LINE
  8
0
 10
17.8283
 20
9.24315
 11
17.795
 21
9.14694
  0
LINE
  8
0
 10
17.795
 20
9.14694
 11
17.772
 21
9.14694
  0
LINE
  8
0
 10
17.772
 20
9.14694
 11
17.772
 21
9.528
  0
LINE
  8
0
 10
17.772
 20
9.528
 11
17.1237
 21
9.528
  0
LINE
  8
0
 10
17.1237
 20
9.528
 11
17.1237
 21
7.43959
  0
LINE
  8
0
 10
17.1237
 20
7.43959
 11
17.7911
 21
7.43959
  0
LINE
  8
0
 10
17.7911
 20
7.43959
 11
17.7911
 21
8.57906
  0
LINE
  8
0
 10
24.2332
 20
7.4229
 11
24.4046
 21
7.48489
  0
LINE
  8
0
 10
24.4046
 20
7.48489
 11
24.543
 21
7.58821
  0
LINE
  8
0
 10
24.543
 20
7.58821
 11
24.6484
 21
7.73285
  0
LINE
  8
0
 10
24.6484
 20
7.73285
 11
24.6656
 21
7.73285
  0
LINE
  8
0
 10
24.6656
 20
7.73285
 11
24.6656
 21
7.43959
  0
LINE
  8
0
 10
24.6656
 20
7.43959
 11
25.2929
 21
7.43959
  0
LINE
  8
0
 10
25.2929
 20
7.43959
 11
25.2929
 21
8.85739
  0
LINE
  8
0
 10
25.2929
 20
8.85739
 11
25.2849
 21
8.96521
  0
LINE
  8
0
 10
25.2849
 20
8.96521
 11
25.2611
 21
9.0645
  0
LINE
  8
0
 10
25.2611
 20
9.0645
 11
25.2214
 21
9.15527
  0
LINE
  8
0
 10
25.2214
 20
9.15527
 11
25.1657
 21
9.2375
  0
LINE
  8
0
 10
25.1657
 20
9.2375
 11
25.0966
 21
9.31078
  0
LINE
  8
0
 10
25.0966
 20
9.31078
 11
25.0165
 21
9.37457
  0
LINE
  8
0
 10
25.0165
 20
9.37457
 11
24.9255
 21
9.42892
  0
LINE
  8
0
 10
24.9255
 20
9.42892
 11
24.8234
 21
9.47382
  0
LINE
  8
0
 10
24.8234
 20
9.47382
 11
24.7127
 21
9.50896
  0
LINE
  8
0
 10
24.7127
 20
9.50896
 11
24.5956
 21
9.53407
  0
LINE
  8
0
 10
24.5956
 20
9.53407
 11
24.4722
 21
9.54913
  0
LINE
  8
0
 10
24.4722
 20
9.54913
 11
24.3425
 21
9.55417
  0
LINE
  8
0
 10
24.3425
 20
9.55417
 11
24.1514
 21
9.54372
  0
LINE
  8
0
 10
24.1514
 20
9.54372
 11
23.9798
 21
9.51236
  0
LINE
  8
0
 10
23.9798
 20
9.51236
 11
23.8277
 21
9.46011
  0
LINE
  8
0
 10
23.8277
 20
9.46011
 11
23.6951
 21
9.38696
  0
LINE
  8
0
 10
23.6951
 20
9.38696
 11
23.5837
 21
9.29713
  0
LINE
  8
0
 10
23.5837
 20
9.29713
 11
23.4951
 21
9.19481
  0
LINE
  8
0
 10
23.4951
 20
9.19481
 11
23.4293
 21
9.07999
  0
LINE
  8
0
 10
23.4293
 20
9.07999
 11
23.3863
 21
8.95267
  0
LINE
  8
0
 10
23.3863
 20
8.95267
 11
23.9906
 21
8.87607
  0
LINE
  8
0
 10
23.9906
 20
8.87607
 11
24.0079
 21
8.923
  0
LINE
  8
0
 10
24.0079
 20
8.923
 11
24.0331
 21
8.96478
  0
LINE
  8
0
 10
24.0331
 20
8.96478
 11
24.0662
 21
9.00143
  0
LINE
  8
0
 10
24.0662
 20
9.00143
 11
24.1072
 21
9.03296
  0
LINE
  8
0
 10
24.1072
 20
9.03296
 11
24.1553
 21
9.0583
  0
LINE
  8
0
 10
24.1553
 20
9.0583
 11
24.2095
 21
9.0764
  0
LINE
  8
0
 10
24.2095
 20
9.0764
 11
24.27
 21
9.08727
  0
LINE
  8
0
 10
24.27
 20
9.08727
 11
24.3367
 21
9.0909
  0
LINE
  8
0
 10
24.3367
 20
9.0909
 11
24.401
 21
9.08722
  0
LINE
  8
0
 10
24.401
 20
9.08722
 11
24.4579
 21
9.07617
  0
LINE
  8
0
 10
24.4579
 20
9.07617
 11
24.5076
 21
9.05779
  0
LINE
  8
0
 10
24.5076
 20
9.05779
 11
24.5499
 21
9.03206
  0
LINE
  8
0
 10
24.5499
 20
9.03206
 11
24.5838
 21
8.99954
  0
LINE
  8
0
 10
24.5838
 20
8.99954
 11
24.608
 21
8.96083
  0
LINE
  8
0
 10
24.608
 20
8.96083
 11
24.6225
 21
8.91594
  0
LINE
  8
0
 10
24.6225
 20
8.91594
 11
24.6274
 21
8.86485
  0
LINE
  8
0
 10
24.6274
 20
8.86485
 11
24.6274
 21
8.85739
  0
LINE
  8
0
 10
24.6274
 20
8.85739
 11
24.62
 21
8.81285
  0
LINE
  8
0
 10
24.62
 20
8.81285
 11
24.598
 21
8.77638
  0
LINE
  8
0
 10
24.598
 20
8.77638
 11
24.5612
 21
8.74794
  0
LINE
  8
0
 10
24.5612
 20
8.74794
 11
24.5098
 21
8.72757
  0
LINE
  8
0
 10
24.5098
 20
8.72757
 11
24.4413
 21
8.71187
  0
LINE
  8
0
 10
24.4413
 20
8.71187
 11
24.3537
 21
8.69745
  0
LINE
  8
0
 10
24.3537
 20
8.69745
 11
24.2468
 21
8.68431
  0
LINE
  8
0
 10
24.2468
 20
8.68431
 11
24.1206
 21
8.67245
  0
LINE
  8
0
 10
24.1206
 20
8.67245
 11
24.0148
 21
8.6602
  0
LINE
  8
0
 10
24.0148
 20
8.6602
 11
23.9134
 21
8.64211
  0
LINE
  8
0
 10
23.9134
 20
8.64211
 11
23.8164
 21
8.61816
  0
LINE
  8
0
 10
23.8164
 20
8.61816
 11
23.7238
 21
8.58839
  0
LINE
  8
0
 10
23.7238
 20
8.58839
 11
23.6379
 21
8.55127
  0
LINE
  8
0
 10
23.6379
 20
8.55127
 11
23.561
 21
8.50528
  0
LINE
  8
0
 10
23.561
 20
8.50528
 11
23.4931
 21
8.45041
  0
LINE
  8
0
 10
23.4931
 20
8.45041
 11
23.4341
 21
8.38666
  0
LINE
  8
0
 10
23.4341
 20
8.38666
 11
23.3864
 21
8.31252
  0
LINE
  8
0
 10
23.3864
 20
8.31252
 11
23.3523
 21
8.22649
  0
LINE
  8
0
 10
23.3523
 20
8.22649
 11
23.3319
 21
8.12852
  0
LINE
  8
0
 10
23.3319
 20
8.12852
 11
23.3251
 21
8.01866
  0
LINE
  8
0
 10
23.3251
 20
8.01866
 11
23.3375
 21
7.87343
  0
LINE
  8
0
 10
23.3375
 20
7.87343
 11
23.3746
 21
7.7478
  0
LINE
  8
0
 10
23.3746
 20
7.7478
 11
23.4364
 21
7.6418
  0
LINE
  8
0
 10
23.4364
 20
7.6418
 11
23.523
 21
7.5554
  0
LINE
  8
0
 10
23.523
 20
7.5554
 11
23.6289
 21
7.4884
  0
LINE
  8
0
 10
23.6289
 20
7.4884
 11
23.7484
 21
7.44054
  0
LINE
  8
0
 10
23.7484
 20
7.44054
 11
23.8818
 21
7.4118
  0
LINE
  8
0
 10
23.8818
 20
7.4118
 11
24.0288
 21
7.40224
  0
LINE
  8
0
 10
24.0288
 20
7.40224
 11
24.2332
 21
7.4229
  0
LINE
  8
0
 10
24.174
 20
7.83716
 11
24.1218
 21
7.8475
  0
LINE
  8
0
 10
24.1218
 20
7.8475
 11
24.075
 21
7.86473
  0
LINE
  8
0
 10
24.075
 20
7.86473
 11
24.0336
 21
7.88884
  0
LINE
  8
0
 10
24.0336
 20
7.88884
 11
23.9997
 21
7.91949
  0
LINE
  8
0
 10
23.9997
 20
7.91949
 11
23.9755
 21
7.95633
  0
LINE
  8
0
 10
23.9755
 20
7.95633
 11
23.961
 21
7.99934
  0
LINE
  8
0
 10
23.961
 20
7.99934
 11
23.9562
 21
8.04854
  0
LINE
  8
0
 10
23.9562
 20
8.04854
 11
23.9754
 21
8.14043
  0
LINE
  8
0
 10
23.9754
 20
8.14043
 11
24.0331
 21
8.21246
  0
LINE
  8
0
 10
24.0331
 20
8.21246
 11
24.1293
 21
8.26465
  0
LINE
  8
0
 10
24.1293
 20
8.26465
 11
24.264
 21
8.297
  0
LINE
  8
0
 10
24.264
 20
8.297
 11
24.3119
 21
8.30481
  0
LINE
  8
0
 10
24.3119
 20
8.30481
 11
24.3616
 21
8.31332
  0
LINE
  8
0
 10
24.3616
 20
8.31332
 11
24.4132
 21
8.32256
  0
LINE
  8
0
 10
24.4132
 20
8.32256
 11
24.4667
 21
8.33247
  0
LINE
  8
0
 10
24.4667
 20
8.33247
 11
24.518
 21
8.34334
  0
LINE
  8
0
 10
24.518
 20
8.34334
 11
24.5628
 21
8.35536
  0
LINE
  8
0
 10
24.5628
 20
8.35536
 11
24.6012
 21
8.36856
  0
LINE
  8
0
 10
24.6012
 20
8.36856
 11
24.6331
 21
8.38293
  0
LINE
  8
0
 10
24.6331
 20
8.38293
 11
24.6331
 21
8.18304
  0
LINE
  8
0
 10
24.6331
 20
8.18304
 11
24.6258
 21
8.10913
  0
LINE
  8
0
 10
24.6258
 20
8.10913
 11
24.604
 21
8.04247
  0
LINE
  8
0
 10
24.604
 20
8.04247
 11
24.5675
 21
7.98303
  0
LINE
  8
0
 10
24.5675
 20
7.98303
 11
24.5165
 21
7.93085
  0
LINE
  8
0
 10
24.5165
 20
7.93085
 11
24.4549
 21
7.88835
  0
LINE
  8
0
 10
24.4549
 20
7.88835
 11
24.3869
 21
7.858
  0
LINE
  8
0
 10
24.3869
 20
7.858
 11
24.3125
 21
7.8398
  0
LINE
  8
0
 10
24.3125
 20
7.8398
 11
24.2315
 21
7.83372
  0
LINE
  8
0
 10
24.2315
 20
7.83372
 11
24.174
 21
7.83716
  0
LINE
  8
0
 10
14.5483
 20
7.4104
 11
14.7171
 21
7.44052
  0
LINE
  8
0
 10
14.7171
 20
7.44052
 11
14.8691
 21
7.49072
  0
LINE
  8
0
 10
14.8691
 20
7.49072
 11
15.0042
 21
7.561
  0
LINE
  8
0
 10
15.0042
 20
7.561
 11
15.1201
 21
7.64821
  0
LINE
  8
0
 10
15.1201
 20
7.64821
 11
15.2143
 21
7.74921
  0
LINE
  8
0
 10
15.2143
 20
7.74921
 11
15.2869
 21
7.86397
  0
LINE
  8
0
 10
15.2869
 20
7.86397
 11
15.3379
 21
7.99252
  0
LINE
  8
0
 10
15.3379
 20
7.99252
 11
14.7431
 21
8.08777
  0
LINE
  8
0
 10
14.7431
 20
8.08777
 11
14.7195
 21
8.03856
  0
LINE
  8
0
 10
14.7195
 20
8.03856
 11
14.6887
 21
7.99554
  0
LINE
  8
0
 10
14.6887
 20
7.99554
 11
14.6507
 21
7.95871
  0
LINE
  8
0
 10
14.6507
 20
7.95871
 11
14.6055
 21
7.92807
  0
LINE
  8
0
 10
14.6055
 20
7.92807
 11
14.5544
 21
7.90396
  0
LINE
  8
0
 10
14.5544
 20
7.90396
 11
14.4989
 21
7.88675
  0
LINE
  8
0
 10
14.4989
 20
7.88675
 11
14.4387
 21
7.87642
  0
LINE
  8
0
 10
14.4387
 20
7.87642
 11
14.3741
 21
7.87297
  0
LINE
  8
0
 10
14.3741
 20
7.87297
 11
14.2839
 21
7.88004
  0
LINE
  8
0
 10
14.2839
 20
7.88004
 11
14.2027
 21
7.90121
  0
LINE
  8
0
 10
14.2027
 20
7.90121
 11
14.1304
 21
7.93652
  0
LINE
  8
0
 10
14.1304
 20
7.93652
 11
14.0672
 21
7.98596
  0
LINE
  8
0
 10
14.0672
 20
7.98596
 11
14.0151
 21
8.04953
  0
LINE
  8
0
 10
14.0151
 20
8.04953
 11
13.9766
 21
8.12723
  0
LINE
  8
0
 10
13.9766
 20
8.12723
 11
13.9515
 21
8.21906
  0
LINE
  8
0
 10
13.9515
 20
8.21906
 11
13.94
 21
8.32501
  0
LINE
  8
0
 10
13.94
 20
8.32501
 11
15.3685
 21
8.32501
  0
LINE
  8
0
 10
15.3685
 20
8.32501
 11
15.3685
 21
8.4894
  0
LINE
  8
0
 10
15.3685
 20
8.4894
 11
15.3602
 21
8.65465
  0
LINE
  8
0
 10
15.3602
 20
8.65465
 11
15.3353
 21
8.80672
  0
LINE
  8
0
 10
15.3353
 20
8.80672
 11
15.2937
 21
8.94559
  0
LINE
  8
0
 10
15.2937
 20
8.94559
 11
15.2356
 21
9.07127
  0
LINE
  8
0
 10
15.2356
 20
9.07127
 11
15.1629
 21
9.18312
  0
LINE
  8
0
 10
15.1629
 20
9.18312
 11
15.0778
 21
9.2805
  0
LINE
  8
0
 10
15.0778
 20
9.2805
 11
14.9803
 21
9.36339
  0
LINE
  8
0
 10
14.9803
 20
9.36339
 11
14.8703
 21
9.43181
  0
LINE
  8
0
 10
14.8703
 20
9.43181
 11
14.7499
 21
9.48534
  0
LINE
  8
0
 10
14.7499
 20
9.48534
 11
14.621
 21
9.52357
  0
LINE
  8
0
 10
14.621
 20
9.52357
 11
14.4836
 21
9.54651
  0
LINE
  8
0
 10
14.4836
 20
9.54651
 11
14.3378
 21
9.55417
  0
LINE
  8
0
 10
14.3378
 20
9.55417
 11
14.1824
 21
9.5457
  0
LINE
  8
0
 10
14.1824
 20
9.5457
 11
14.0375
 21
9.52031
  0
LINE
  8
0
 10
14.0375
 20
9.52031
 11
13.9032
 21
9.47798
  0
LINE
  8
0
 10
13.9032
 20
9.47798
 11
13.7793
 21
9.41873
  0
LINE
  8
0
 10
13.7793
 20
9.41873
 11
13.6675
 21
9.3443
  0
LINE
  8
0
 10
13.6675
 20
9.3443
 11
13.5692
 21
9.25644
  0
LINE
  8
0
 10
13.5692
 20
9.25644
 11
13.4844
 21
9.15515
  0
LINE
  8
0
 10
13.4844
 20
9.15515
 11
13.4131
 21
9.04045
  0
LINE
  8
0
 10
13.4131
 20
9.04045
 11
13.3567
 21
8.91414
  0
LINE
  8
0
 10
13.3567
 20
8.91414
 11
13.3163
 21
8.778
  0
LINE
  8
0
 10
13.3163
 20
8.778
 11
13.2921
 21
8.63206
  0
LINE
  8
0
 10
13.2921
 20
8.63206
 11
13.2841
 21
8.47632
  0
LINE
  8
0
 10
13.2841
 20
8.47632
 11
13.302
 21
8.23856
  0
LINE
  8
0
 10
13.302
 20
8.23856
 11
13.356
 21
8.02777
  0
LINE
  8
0
 10
13.356
 20
8.02777
 11
13.4459
 21
7.84395
  0
LINE
  8
0
 10
13.4459
 20
7.84395
 11
13.5719
 21
7.6871
  0
LINE
  8
0
 10
13.5719
 20
7.6871
 11
13.7292
 21
7.56165
  0
LINE
  8
0
 10
13.7292
 20
7.56165
 11
13.9135
 21
7.47205
  0
LINE
  8
0
 10
13.9135
 20
7.47205
 11
14.1246
 21
7.41829
  0
LINE
  8
0
 10
14.1246
 20
7.41829
 11
14.3626
 21
7.40036
  0
LINE
  8
0
 10
14.3626
 20
7.40036
 11
14.5483
 21
7.4104
  0
LINE
  8
0
 10
13.9438
 20
8.70421
 11
13.9586
 21
8.78658
  0
LINE
  8
0
 10
13.9586
 20
8.78658
 11
13.9837
 21
8.85995
  0
LINE
  8
0
 10
13.9837
 20
8.85995
 11
14.0193
 21
8.92435
  0
LINE
  8
0
 10
14.0193
 20
8.92435
 11
14.0652
 21
8.97975
  0
LINE
  8
0
 10
14.0652
 20
8.97975
 11
14.121
 21
9.02429
  0
LINE
  8
0
 10
14.121
 20
9.02429
 11
14.1859
 21
9.05609
  0
LINE
  8
0
 10
14.1859
 20
9.05609
 11
14.2601
 21
9.07518
  0
LINE
  8
0
 10
14.2601
 20
9.07518
 11
14.3435
 21
9.08156
  0
LINE
  8
0
 10
14.3435
 20
9.08156
 11
14.4258
 21
9.0753
  0
LINE
  8
0
 10
14.4258
 20
9.0753
 11
14.4989
 21
9.05656
  0
LINE
  8
0
 10
14.4989
 20
9.05656
 11
14.5626
 21
9.02534
  0
LINE
  8
0
 10
14.5626
 20
9.02534
 11
14.6169
 21
8.98161
  0
LINE
  8
0
 10
14.6169
 20
8.98161
 11
14.6617
 21
8.9268
  0
LINE
  8
0
 10
14.6617
 20
8.9268
 11
14.6963
 21
8.8623
  0
LINE
  8
0
 10
14.6963
 20
8.8623
 11
14.7209
 21
8.7881
  0
LINE
  8
0
 10
14.7209
 20
8.7881
 11
14.7355
 21
8.70421
  0
LINE
  8
0
 10
14.7355
 20
8.70421
 11
13.9438
 21
8.70421
  0
LINE
  8
0
 10
19.4065
 20
9.528
 11
18.7391
 21
9.528
  0
LINE
  8
0
 10
18.7391
 20
9.528
 11
18.7391
 21
7.43959
  0
LINE
  8
0
 10
18.7391
 20
7.43959
 11
19.4065
 21
7.43959
  0
LINE
  8
0
 10
19.4065
 20
7.43959
 11
19.4065
 21
9.528
  0
LINE
  8
0
 10
8.19412
 20
1.33881
 11
8.24406
 21
1.39435
  0
LINE
  8
0
 10
8.24406
 20
1.39435
 11
8.29105
 21
1.45079
  0
LINE
  8
0
 10
8.29105
 20
1.45079
 11
8.3351
 21
1.5083
  0
LINE
  8
0
 10
8.3351
 20
1.5083
 11
8.37625
 21
1.56702
  0
LINE
  8
0
 10
8.37625
 20
1.56702
 11
8.41452
 21
1.62709
  0
LINE
  8
0
 10
8.41452
 20
1.62709
 11
8.44995
 21
1.68867
  0
LINE
  8
0
 10
8.44995
 20
1.68867
 11
8.48257
 21
1.75192
  0
LINE
  8
0
 10
8.48257
 20
1.75192
 11
8.51241
 21
1.81699
  0
LINE
  8
0
 10
8.51241
 20
1.81699
 11
8.53949
 21
1.88403
  0
LINE
  8
0
 10
8.53949
 20
1.88403
 11
8.56384
 21
1.95317
  0
LINE
  8
0
 10
8.56384
 20
1.95317
 11
8.58551
 21
2.0246
  0
LINE
  8
0
 10
8.58551
 20
2.0246
 11
8.60451
 21
2.09843
  0
LINE
  8
0
 10
8.60451
 20
2.09843
 11
8.62088
 21
2.17485
  0
LINE
  8
0
 10
8.62088
 20
2.17485
 11
8.63466
 21
2.25398
  0
LINE
  8
0
 10
8.63466
 20
2.25398
 11
8.64586
 21
2.336
  0
LINE
  8
0
 10
8.64586
 20
2.336
 11
8.65451
 21
2.42102
  0
LINE
  8
0
 10
8.65451
 20
2.42102
 11
8.66066
 21
2.50923
  0
LINE
  8
0
 10
8.66066
 20
2.50923
 11
8.66432
 21
2.60077
  0
LINE
  8
0
 10
8.66432
 20
2.60077
 11
8.66554
 21
2.69579
  0
LINE
  8
0
 10
8.66554
 20
2.69579
 11
8.66554
 21
8.94789
  0
LINE
  8
0
 10
8.66554
 20
8.94789
 11
6.12436
 21
7.57646
  0
LINE
  8
0
 10
6.12436
 20
7.57646
 11
6.12436
 21
2.61511
  0
LINE
  8
0
 10
6.12436
 20
2.61511
 11
8.14117
 21
1.28403
  0
LINE
  8
0
 10
8.14117
 20
1.28403
 11
8.19412
 21
1.33881
  0
LINE
  8
0
 10
30.9605
 20
7.4066
 11
31.0278
 21
7.42534
  0
LINE
  8
0
 10
31.0278
 20
7.42534
 11
31.0891
 21
7.45657
  0
LINE
  8
0
 10
31.0891
 20
7.45657
 11
31.1442
 21
7.50029
  0
LINE
  8
0
 10
31.1442
 20
7.50029
 11
31.1898
 21
7.55324
  0
LINE
  8
0
 10
31.1898
 20
7.55324
 11
31.2224
 21
7.61214
  0
LINE
  8
0
 10
31.2224
 20
7.61214
 11
31.2419
 21
7.677
  0
LINE
  8
0
 10
31.2419
 20
7.677
 11
31.2484
 21
7.7478
  0
LINE
  8
0
 10
31.2484
 20
7.7478
 11
31.2419
 21
7.81943
  0
LINE
  8
0
 10
31.2419
 20
7.81943
 11
31.2224
 21
7.88487
  0
LINE
  8
0
 10
31.2224
 20
7.88487
 11
31.1898
 21
7.94411
  0
LINE
  8
0
 10
31.1898
 20
7.94411
 11
31.1442
 21
7.99718
  0
LINE
  8
0
 10
31.1442
 20
7.99718
 11
31.0891
 21
8.04091
  0
LINE
  8
0
 10
31.0891
 20
8.04091
 11
31.0278
 21
8.07214
  0
LINE
  8
0
 10
31.0278
 20
8.07214
 11
30.9605
 21
8.09088
  0
LINE
  8
0
 10
30.9605
 20
8.09088
 11
30.887
 21
8.09714
  0
LINE
  8
0
 10
30.887
 20
8.09714
 11
30.8136
 21
8.09088
  0
LINE
  8
0
 10
30.8136
 20
8.09088
 11
30.7462
 21
8.07214
  0
LINE
  8
0
 10
30.7462
 20
8.07214
 11
30.685
 21
8.04091
  0
LINE
  8
0
 10
30.685
 20
8.04091
 11
30.6298
 21
7.99718
  0
LINE
  8
0
 10
30.6298
 20
7.99718
 11
30.5842
 21
7.94411
  0
LINE
  8
0
 10
30.5842
 20
7.94411
 11
30.5517
 21
7.88487
  0
LINE
  8
0
 10
30.5517
 20
7.88487
 11
30.5321
 21
7.81943
  0
LINE
  8
0
 10
30.5321
 20
7.81943
 11
30.5256
 21
7.7478
  0
LINE
  8
0
 10
30.5256
 20
7.7478
 11
30.5321
 21
7.677
  0
LINE
  8
0
 10
30.5321
 20
7.677
 11
30.5517
 21
7.61214
  0
LINE
  8
0
 10
30.5517
 20
7.61214
 11
30.5842
 21
7.55324
  0
LINE
  8
0
 10
30.5842
 20
7.55324
 11
30.6298
 21
7.50029
  0
LINE
  8
0
 10
30.6298
 20
7.50029
 11
30.685
 21
7.45657
  0
LINE
  8
0
 10
30.685
 20
7.45657
 11
30.7462
 21
7.42534
  0
LINE
  8
0
 10
30.7462
 20
7.42534
 11
30.8136
 21
7.4066
  0
LINE
  8
0
 10
30.8136
 20
7.4066
 11
30.887
 21
7.40036
  0
LINE
  8
0
 10
30.887
 20
7.40036
 11
30.9605
 21
7.4066
  0
LINE
  8
0
 10
25.492
 20
4.0092
 11
25.656
 21
4.03528
  0
LINE
  8
0
 10
25.656
 20
4.03528
 11
25.8098
 21
4.07874
  0
LINE
  8
0
 10
25.8098
 20
4.07874
 11
25.9536
 21
4.13959
  0
LINE
  8
0
 10
25.9536
 20
4.13959
 11
26.0849
 21
4.21674
  0
LINE
  8
0
 10
26.0849
 20
4.21674
 11
26.2014
 21
4.3091
  0
LINE
  8
0
 10
26.2014
 20
4.3091
 11
26.3029
 21
4.41667
  0
LINE
  8
0
 10
26.3029
 20
4.41667
 11
26.3896
 21
4.53946
  0
LINE
  8
0
 10
26.3896
 20
4.53946
 11
26.4589
 21
4.67632
  0
LINE
  8
0
 10
26.4589
 20
4.67632
 11
26.5084
 21
4.82608
  0
LINE
  8
0
 10
26.5084
 20
4.82608
 11
26.5381
 21
4.98878
  0
LINE
  8
0
 10
26.5381
 20
4.98878
 11
26.548
 21
5.16441
  0
LINE
  8
0
 10
26.548
 20
5.16441
 11
26.548
 21
5.5231
  0
LINE
  8
0
 10
26.548
 20
5.5231
 11
25.3499
 21
5.5231
  0
LINE
  8
0
 10
25.3499
 20
5.5231
 11
25.3499
 21
5.04912
  0
LINE
  8
0
 10
25.3499
 20
5.04912
 11
25.9086
 21
5.04912
  0
LINE
  8
0
 10
25.9086
 20
5.04912
 11
25.8967
 21
4.94412
  0
LINE
  8
0
 10
25.8967
 20
4.94412
 11
25.8667
 21
4.85056
  0
LINE
  8
0
 10
25.8667
 20
4.85056
 11
25.8185
 21
4.76843
  0
LINE
  8
0
 10
25.8185
 20
4.76843
 11
25.7521
 21
4.69775
  0
LINE
  8
0
 10
25.7521
 20
4.69775
 11
25.6687
 21
4.6409
  0
LINE
  8
0
 10
25.6687
 20
4.6409
 11
25.5695
 21
4.6003
  0
LINE
  8
0
 10
25.5695
 20
4.6003
 11
25.4545
 21
4.57594
  0
LINE
  8
0
 10
25.4545
 20
4.57594
 11
25.3237
 21
4.56781
  0
LINE
  8
0
 10
25.3237
 20
4.56781
 11
25.174
 21
4.58148
  0
LINE
  8
0
 10
25.174
 20
4.58148
 11
25.0419
 21
4.62248
  0
LINE
  8
0
 10
25.0419
 20
4.62248
 11
24.9274
 21
4.69083
  0
LINE
  8
0
 10
24.9274
 20
4.69083
 11
24.8305
 21
4.7865
  0
LINE
  8
0
 10
24.8305
 20
4.7865
 11
24.7534
 21
4.90712
  0
LINE
  8
0
 10
24.7534
 20
4.90712
 11
24.6983
 21
5.05026
  0
LINE
  8
0
 10
24.6983
 20
5.05026
 11
24.6653
 21
5.21593
  0
LINE
  8
0
 10
24.6653
 20
5.21593
 11
24.6543
 21
5.40414
  0
LINE
  8
0
 10
24.6543
 20
5.40414
 11
24.6656
 21
5.59065
  0
LINE
  8
0
 10
24.6656
 20
5.59065
 11
24.6995
 21
5.75484
  0
LINE
  8
0
 10
24.6995
 20
5.75484
 11
24.756
 21
5.89673
  0
LINE
  8
0
 10
24.756
 20
5.89673
 11
24.8352
 21
6.01631
  0
LINE
  8
0
 10
24.8352
 20
6.01631
 11
24.9335
 21
6.11118
  0
LINE
  8
0
 10
24.9335
 20
6.11118
 11
25.0473
 21
6.17894
  0
LINE
  8
0
 10
25.0473
 20
6.17894
 11
25.1767
 21
6.2196
  0
LINE
  8
0
 10
25.1767
 20
6.2196
 11
25.3218
 21
6.23317
  0
LINE
  8
0
 10
25.3218
 20
6.23317
 11
25.4213
 21
6.22726
  0
LINE
  8
0
 10
25.4213
 20
6.22726
 11
25.5118
 21
6.20959
  0
LINE
  8
0
 10
25.5118
 20
6.20959
 11
25.5933
 21
6.18015
  0
LINE
  8
0
 10
25.5933
 20
6.18015
 11
25.6658
 21
6.1389
  0
LINE
  8
0
 10
25.6658
 20
6.1389
 11
25.7282
 21
6.08704
  0
LINE
  8
0
 10
25.7282
 20
6.08704
 11
25.7795
 21
6.02568
  0
LINE
  8
0
 10
25.7795
 20
6.02568
 11
25.8196
 21
5.95482
  0
LINE
  8
0
 10
25.8196
 20
5.95482
 11
25.8486
 21
5.87447
  0
LINE
  8
0
 10
25.8486
 20
5.87447
 11
26.518
 21
5.87447
  0
LINE
  8
0
 10
26.518
 20
5.87447
 11
26.4929
 21
6.00607
  0
LINE
  8
0
 10
26.4929
 20
6.00607
 11
26.4512
 21
6.12999
  0
LINE
  8
0
 10
26.4512
 20
6.12999
 11
26.393
 21
6.24626
  0
LINE
  8
0
 10
26.393
 20
6.24626
 11
26.3183
 21
6.35486
  0
LINE
  8
0
 10
26.3183
 20
6.35486
 11
26.2294
 21
6.45392
  0
LINE
  8
0
 10
26.2294
 20
6.45392
 11
26.1287
 21
6.54153
  0
LINE
  8
0
 10
26.1287
 20
6.54153
 11
26.0162
 21
6.61771
  0
LINE
  8
0
 10
26.0162
 20
6.61771
 11
25.8918
 21
6.68245
  0
LINE
  8
0
 10
25.8918
 20
6.68245
 11
25.7577
 21
6.7341
  0
LINE
  8
0
 10
25.7577
 20
6.7341
 11
25.6161
 21
6.77098
  0
LINE
  8
0
 10
25.6161
 20
6.77098
 11
25.4671
 21
6.79312
  0
LINE
  8
0
 10
25.4671
 20
6.79312
 11
25.3105
 21
6.80051
  0
LINE
  8
0
 10
25.3105
 20
6.80051
 11
25.1284
 21
6.79015
  0
LINE
  8
0
 10
25.1284
 20
6.79015
 11
24.9552
 21
6.75909
  0
LINE
  8
0
 10
24.9552
 20
6.75909
 11
24.7909
 21
6.70734
  0
LINE
  8
0
 10
24.7909
 20
6.70734
 11
24.6355
 21
6.63487
  0
LINE
  8
0
 10
24.6355
 20
6.63487
 11
24.4923
 21
6.54279
  0
LINE
  8
0
 10
24.4923
 20
6.54279
 11
24.3646
 21
6.43219
  0
LINE
  8
0
 10
24.3646
 20
6.43219
 11
24.2523
 21
6.30305
  0
LINE
  8
0
 10
24.2523
 20
6.30305
 11
24.1555
 21
6.1554
  0
LINE
  8
0
 10
24.1555
 20
6.1554
 11
24.0776
 21
5.99016
  0
LINE
  8
0
 10
24.0776
 20
5.99016
 11
24.0219
 21
5.80836
  0
LINE
  8
0
 10
24.0219
 20
5.80836
 11
23.9885
 21
5.60997
  0
LINE
  8
0
 10
23.9885
 20
5.60997
 11
23.9774
 21
5.395
  0
LINE
  8
0
 10
23.9774
 20
5.395
 11
23.9879
 21
5.18729
  0
LINE
  8
0
 10
23.9879
 20
5.18729
 11
24.0196
 21
4.99422
  0
LINE
  8
0
 10
24.0196
 20
4.99422
 11
24.0723
 21
4.81578
  0
LINE
  8
0
 10
24.0723
 20
4.81578
 11
24.1461
 21
4.65198
  0
LINE
  8
0
 10
24.1461
 20
4.65198
 11
24.2388
 21
4.5045
  0
LINE
  8
0
 10
24.2388
 20
4.5045
 11
24.3482
 21
4.37497
  0
LINE
  8
0
 10
24.3482
 20
4.37497
 11
24.4741
 21
4.2634
  0
LINE
  8
0
 10
24.4741
 20
4.2634
 11
24.6167
 21
4.16978
  0
LINE
  8
0
 10
24.6167
 20
4.16978
 11
24.7738
 21
4.09572
  0
LINE
  8
0
 10
24.7738
 20
4.09572
 11
24.943
 21
4.04283
  0
LINE
  8
0
 10
24.943
 20
4.04283
 11
25.1244
 21
4.01108
  0
LINE
  8
0
 10
25.1244
 20
4.01108
 11
25.318
 21
4.0005
  0
LINE
  8
0
 10
25.318
 20
4.0005
 11
25.492
 21
4.0092
  0
LINE
  8
0
 10
30.0027
 20
4.02354
 11
30.2345
 21
4.0927
  0
LINE
  8
0
 10
30.2345
 20
4.0927
 11
30.4353
 21
4.20793
  0
LINE
  8
0
 10
30.4353
 20
4.20793
 11
30.6051
 21
4.36926
  0
LINE
  8
0
 10
30.6051
 20
4.36926
 11
30.74
 21
4.57188
  0
LINE
  8
0
 10
30.74
 20
4.57188
 11
30.8364
 21
4.81099
  0
LINE
  8
0
 10
30.8364
 20
4.81099
 11
30.8942
 21
5.08658
  0
LINE
  8
0
 10
30.8942
 20
5.08658
 11
30.9135
 21
5.39867
  0
LINE
  8
0
 10
30.9135
 20
5.39867
 11
30.9048
 21
5.61124
  0
LINE
  8
0
 10
30.9048
 20
5.61124
 11
30.8786
 21
5.80791
  0
LINE
  8
0
 10
30.8786
 20
5.80791
 11
30.8349
 21
5.98869
  0
LINE
  8
0
 10
30.8349
 20
5.98869
 11
30.7738
 21
6.15355
  0
LINE
  8
0
 10
30.7738
 20
6.15355
 11
30.6963
 21
6.30128
  0
LINE
  8
0
 10
30.6963
 20
6.30128
 11
30.6034
 21
6.43059
  0
LINE
  8
0
 10
30.6034
 20
6.43059
 11
30.4952
 21
6.54147
  0
LINE
  8
0
 10
30.4952
 20
6.54147
 11
30.3716
 21
6.63394
  0
LINE
  8
0
 10
30.3716
 20
6.63394
 11
30.2337
 21
6.70682
  0
LINE
  8
0
 10
30.2337
 20
6.70682
 11
30.0824
 21
6.75887
  0
LINE
  8
0
 10
30.0824
 20
6.75887
 11
29.9178
 21
6.7901
  0
LINE
  8
0
 10
29.9178
 20
6.7901
 11
29.7398
 21
6.80051
  0
LINE
  8
0
 10
29.7398
 20
6.80051
 11
29.4784
 21
6.77739
  0
LINE
  8
0
 10
29.4784
 20
6.77739
 11
29.2473
 21
6.70807
  0
LINE
  8
0
 10
29.2473
 20
6.70807
 11
29.0466
 21
6.59254
  0
LINE
  8
0
 10
29.0466
 20
6.59254
 11
28.8763
 21
6.4308
  0
LINE
  8
0
 10
28.8763
 20
6.4308
 11
28.7406
 21
6.22766
  0
LINE
  8
0
 10
28.7406
 20
6.22766
 11
28.6436
 21
5.98793
  0
LINE
  8
0
 10
28.6436
 20
5.98793
 11
28.5854
 21
5.71159
  0
LINE
  8
0
 10
28.5854
 20
5.71159
 11
28.566
 21
5.39867
  0
LINE
  8
0
 10
28.566
 20
5.39867
 11
28.5854
 21
5.08583
  0
LINE
  8
0
 10
28.5854
 20
5.08583
 11
28.6436
 21
4.80984
  0
LINE
  8
0
 10
28.6436
 20
4.80984
 11
28.7406
 21
4.57068
  0
LINE
  8
0
 10
28.7406
 20
4.57068
 11
28.8763
 21
4.36833
  0
LINE
  8
0
 10
28.8763
 20
4.36833
 11
29.0466
 21
4.20741
  0
LINE
  8
0
 10
29.0466
 20
4.20741
 11
29.2473
 21
4.09247
  0
LINE
  8
0
 10
29.2473
 20
4.09247
 11
29.4784
 21
4.0235
  0
LINE
  8
0
 10
29.4784
 20
4.0235
 11
29.7398
 21
4.0005
  0
LINE
  8
0
 10
29.7398
 20
4.0005
 11
30.0027
 21
4.02354
  0
LINE
  8
0
 10
29.6277
 20
4.54346
 11
29.5295
 21
4.58566
  0
LINE
  8
0
 10
29.5295
 20
4.58566
 11
29.4453
 21
4.65599
  0
LINE
  8
0
 10
29.4453
 20
4.65599
 11
29.3751
 21
4.75447
  0
LINE
  8
0
 10
29.3751
 20
4.75447
 11
29.3197
 21
4.87915
  0
LINE
  8
0
 10
29.3197
 20
4.87915
 11
29.2802
 21
5.02808
  0
LINE
  8
0
 10
29.2802
 20
5.02808
 11
29.2564
 21
5.20125
  0
LINE
  8
0
 10
29.2564
 20
5.20125
 11
29.2485
 21
5.39867
  0
LINE
  8
0
 10
29.2485
 20
5.39867
 11
29.2565
 21
5.59706
  0
LINE
  8
0
 10
29.2565
 20
5.59706
 11
29.2804
 21
5.77132
  0
LINE
  8
0
 10
29.2804
 20
5.77132
 11
29.3202
 21
5.92143
  0
LINE
  8
0
 10
29.3202
 20
5.92143
 11
29.376
 21
6.04742
  0
LINE
  8
0
 10
29.376
 20
6.04742
 11
29.4465
 21
6.14709
  0
LINE
  8
0
 10
29.4465
 20
6.14709
 11
29.5307
 21
6.21829
  0
LINE
  8
0
 10
29.5307
 20
6.21829
 11
29.6284
 21
6.26102
  0
LINE
  8
0
 10
29.6284
 20
6.26102
 11
29.7398
 21
6.27525
  0
LINE
  8
0
 10
29.7398
 20
6.27525
 11
29.8519
 21
6.26102
  0
LINE
  8
0
 10
29.8519
 20
6.26102
 11
29.9502
 21
6.21829
  0
LINE
  8
0
 10
29.9502
 20
6.21829
 11
30.0347
 21
6.14709
  0
LINE
  8
0
 10
30.0347
 20
6.14709
 11
30.1054
 21
6.04742
  0
LINE
  8
0
 10
30.1054
 20
6.04742
 11
30.1612
 21
5.92143
  0
LINE
  8
0
 10
30.1612
 20
5.92143
 11
30.201
 21
5.77132
  0
LINE
  8
0
 10
30.201
 20
5.77132
 11
30.2249
 21
5.59706
  0
LINE
  8
0
 10
30.2249
 20
5.59706
 11
30.2329
 21
5.39867
  0
LINE
  8
0
 10
30.2329
 20
5.39867
 11
30.2249
 21
5.20125
  0
LINE
  8
0
 10
30.2249
 20
5.20125
 11
30.201
 21
5.02808
  0
LINE
  8
0
 10
30.201
 20
5.02808
 11
30.1612
 21
4.87915
  0
LINE
  8
0
 10
30.1612
 20
4.87915
 11
30.1054
 21
4.75447
  0
LINE
  8
0
 10
30.1054
 20
4.75447
 11
30.0347
 21
4.65599
  0
LINE
  8
0
 10
30.0347
 20
4.65599
 11
29.9502
 21
4.58566
  0
LINE
  8
0
 10
29.9502
 20
4.58566
 11
29.8519
 21
4.54346
  0
LINE
  8
0
 10
29.8519
 20
4.54346
 11
29.7398
 21
4.52939
  0
LINE
  8
0
 10
29.7398
 20
4.52939
 11
29.6277
 21
4.54346
  0
LINE
  8
0
 10
34.9349
 20
4.0081
 11
35.0798
 21
4.03093
  0
LINE
  8
0
 10
35.0798
 20
4.03093
 11
35.2152
 21
4.06894
  0
LINE
  8
0
 10
35.2152
 20
4.06894
 11
35.3409
 21
4.12218
  0
LINE
  8
0
 10
35.3409
 20
4.12218
 11
35.4553
 21
4.18892
  0
LINE
  8
0
 10
35.4553
 20
4.18892
 11
35.5565
 21
4.26744
  0
LINE
  8
0
 10
35.5565
 20
4.26744
 11
35.6447
 21
4.35774
  0
LINE
  8
0
 10
35.6447
 20
4.35774
 11
35.7197
 21
4.45982
  0
LINE
  8
0
 10
35.7197
 20
4.45982
 11
35.7795
 21
4.57214
  0
LINE
  8
0
 10
35.7795
 20
4.57214
 11
35.8223
 21
4.69316
  0
LINE
  8
0
 10
35.8223
 20
4.69316
 11
35.848
 21
4.82288
  0
LINE
  8
0
 10
35.848
 20
4.82288
 11
35.8566
 21
4.96129
  0
LINE
  8
0
 10
35.8566
 20
4.96129
 11
35.8497
 21
5.08406
  0
LINE
  8
0
 10
35.8497
 20
5.08406
 11
35.8291
 21
5.19986
  0
LINE
  8
0
 10
35.8291
 20
5.19986
 11
35.7948
 21
5.30869
  0
LINE
  8
0
 10
35.7948
 20
5.30869
 11
35.7468
 21
5.41054
  0
LINE
  8
0
 10
35.7468
 20
5.41054
 11
35.6868
 21
5.50371
  0
LINE
  8
0
 10
35.6868
 20
5.50371
 11
35.6165
 21
5.58646
  0
LINE
  8
0
 10
35.6165
 20
5.58646
 11
35.5359
 21
5.65881
  0
LINE
  8
0
 10
35.5359
 20
5.65881
 11
35.445
 21
5.72073
  0
LINE
  8
0
 10
35.445
 20
5.72073
 11
35.3452
 21
5.77039
  0
LINE
  8
0
 10
35.3452
 20
5.77039
 11
35.238
 21
5.80585
  0
LINE
  8
0
 10
35.238
 20
5.80585
 11
35.1235
 21
5.82712
  0
LINE
  8
0
 10
35.1235
 20
5.82712
 11
35.0015
 21
5.83421
  0
LINE
  8
0
 10
35.0015
 20
5.83421
 11
34.8877
 21
5.8277
  0
LINE
  8
0
 10
34.8877
 20
5.8277
 11
34.7789
 21
5.80812
  0
LINE
  8
0
 10
34.7789
 20
5.80812
 11
34.6749
 21
5.77553
  0
LINE
  8
0
 10
34.6749
 20
5.77553
 11
34.5759
 21
5.72989
  0
LINE
  8
0
 10
34.5759
 20
5.72989
 11
34.4859
 21
5.67282
  0
LINE
  8
0
 10
34.4859
 20
5.67282
 11
34.409
 21
5.60591
  0
LINE
  8
0
 10
34.409
 20
5.60591
 11
34.3453
 21
5.52916
  0
LINE
  8
0
 10
34.3453
 20
5.52916
 11
34.2947
 21
5.44257
  0
LINE
  8
0
 10
34.2947
 20
5.44257
 11
34.2778
 21
5.44257
  0
LINE
  8
0
 10
34.2778
 20
5.44257
 11
34.2858
 21
5.61792
  0
LINE
  8
0
 10
34.2858
 20
5.61792
 11
34.3099
 21
5.77426
  0
LINE
  8
0
 10
34.3099
 20
5.77426
 11
34.35
 21
5.91164
  0
LINE
  8
0
 10
34.35
 20
5.91164
 11
34.4062
 21
6.03001
  0
LINE
  8
0
 10
34.4062
 20
6.03001
 11
34.4786
 21
6.12531
  0
LINE
  8
0
 10
34.4786
 20
6.12531
 11
34.5672
 21
6.19336
  0
LINE
  8
0
 10
34.5672
 20
6.19336
 11
34.6722
 21
6.23421
  0
LINE
  8
0
 10
34.6722
 20
6.23421
 11
34.7934
 21
6.24782
  0
LINE
  8
0
 10
34.7934
 20
6.24782
 11
34.863
 21
6.24353
  0
LINE
  8
0
 10
34.863
 20
6.24353
 11
34.9275
 21
6.23065
  0
LINE
  8
0
 10
34.9275
 20
6.23065
 11
34.9868
 21
6.20921
  0
LINE
  8
0
 10
34.9868
 20
6.20921
 11
35.0409
 21
6.17918
  0
LINE
  8
0
 10
35.0409
 20
6.17918
 11
35.0879
 21
6.14093
  0
LINE
  8
0
 10
35.0879
 20
6.14093
 11
35.1257
 21
6.09479
  0
LINE
  8
0
 10
35.1257
 20
6.09479
 11
35.1545
 21
6.04074
  0
LINE
  8
0
 10
35.1545
 20
6.04074
 11
35.1741
 21
5.97879
  0
LINE
  8
0
 10
35.1741
 20
5.97879
 11
35.8247
 21
5.97879
  0
LINE
  8
0
 10
35.8247
 20
5.97879
 11
35.8048
 21
6.09055
  0
LINE
  8
0
 10
35.8048
 20
6.09055
 11
35.7715
 21
6.19702
  0
LINE
  8
0
 10
35.7715
 20
6.19702
 11
35.7247
 21
6.29825
  0
LINE
  8
0
 10
35.7247
 20
6.29825
 11
35.6644
 21
6.39421
  0
LINE
  8
0
 10
35.6644
 20
6.39421
 11
35.5918
 21
6.48274
  0
LINE
  8
0
 10
35.5918
 20
6.48274
 11
35.508
 21
6.56166
  0
LINE
  8
0
 10
35.508
 20
6.56166
 11
35.4132
 21
6.63097
  0
LINE
  8
0
 10
35.4132
 20
6.63097
 11
35.3072
 21
6.69067
  0
LINE
  8
0
 10
35.3072
 20
6.69067
 11
35.1914
 21
6.73872
  0
LINE
  8
0
 10
35.1914
 20
6.73872
 11
35.0672
 21
6.77304
  0
LINE
  8
0
 10
35.0672
 20
6.77304
 11
34.9345
 21
6.79364
  0
LINE
  8
0
 10
34.9345
 20
6.79364
 11
34.7934
 21
6.80051
  0
LINE
  8
0
 10
34.7934
 20
6.80051
 11
34.622
 21
6.78958
  0
LINE
  8
0
 10
34.622
 20
6.78958
 11
34.462
 21
6.75681
  0
LINE
  8
0
 10
34.462
 20
6.75681
 11
34.3135
 21
6.70218
  0
LINE
  8
0
 10
34.3135
 20
6.70218
 11
34.1765
 21
6.62572
  0
LINE
  8
0
 10
34.1765
 20
6.62572
 11
34.0526
 21
6.52895
  0
LINE
  8
0
 10
34.0526
 20
6.52895
 11
33.9433
 21
6.41342
  0
LINE
  8
0
 10
33.9433
 20
6.41342
 11
33.8487
 21
6.27913
  0
LINE
  8
0
 10
33.8487
 20
6.27913
 11
33.7687
 21
6.12608
  0
LINE
  8
0
 10
33.7687
 20
6.12608
 11
33.7052
 21
5.95584
  0
LINE
  8
0
 10
33.7052
 20
5.95584
 11
33.6597
 21
5.76993
  0
LINE
  8
0
 10
33.6597
 20
5.76993
 11
33.6325
 21
5.56834
  0
LINE
  8
0
 10
33.6325
 20
5.56834
 11
33.6234
 21
5.35109
  0
LINE
  8
0
 10
33.6234
 20
5.35109
 11
33.6293
 21
5.17238
  0
LINE
  8
0
 10
33.6293
 20
5.17238
 11
33.6471
 21
5.00772
  0
LINE
  8
0
 10
33.6471
 20
5.00772
 11
33.6767
 21
4.85715
  0
LINE
  8
0
 10
33.6767
 20
4.85715
 11
33.7181
 21
4.72063
  0
LINE
  8
0
 10
33.7181
 20
4.72063
 11
33.7697
 21
4.59744
  0
LINE
  8
0
 10
33.7697
 20
4.59744
 11
33.8297
 21
4.48685
  0
LINE
  8
0
 10
33.8297
 20
4.48685
 11
33.8981
 21
4.38881
  0
LINE
  8
0
 10
33.8981
 20
4.38881
 11
33.975
 21
4.30336
  0
LINE
  8
0
 10
33.975
 20
4.30336
 11
34.0589
 21
4.22958
  0
LINE
  8
0
 10
34.0589
 20
4.22958
 11
34.1487
 21
4.16656
  0
LINE
  8
0
 10
34.1487
 20
4.16656
 11
34.2441
 21
4.11429
  0
LINE
  8
0
 10
34.2441
 20
4.11429
 11
34.3453
 21
4.07277
  0
LINE
  8
0
 10
34.3453
 20
4.07277
 11
34.4505
 21
4.04115
  0
LINE
  8
0
 10
34.4505
 20
4.04115
 11
34.5581
 21
4.01857
  0
LINE
  8
0
 10
34.5581
 20
4.01857
 11
34.668
 21
4.00502
  0
LINE
  8
0
 10
34.668
 20
4.00502
 11
34.7803
 21
4.0005
  0
LINE
  8
0
 10
34.7803
 20
4.0005
 11
34.9349
 21
4.0081
  0
LINE
  8
0
 10
34.6857
 20
4.50806
 11
34.6043
 21
4.53191
  0
LINE
  8
0
 10
34.6043
 20
4.53191
 11
34.5305
 21
4.57166
  0
LINE
  8
0
 10
34.5305
 20
4.57166
 11
34.4644
 21
4.62729
  0
LINE
  8
0
 10
34.4644
 20
4.62729
 11
34.4098
 21
4.69449
  0
LINE
  8
0
 10
34.4098
 20
4.69449
 11
34.3708
 21
4.76889
  0
LINE
  8
0
 10
34.3708
 20
4.76889
 11
34.3475
 21
4.85051
  0
LINE
  8
0
 10
34.3475
 20
4.85051
 11
34.3397
 21
4.93933
  0
LINE
  8
0
 10
34.3397
 20
4.93933
 11
34.3475
 21
5.02818
  0
LINE
  8
0
 10
34.3475
 20
5.02818
 11
34.3711
 21
5.10997
  0
LINE
  8
0
 10
34.3711
 20
5.10997
 11
34.4103
 21
5.18465
  0
LINE
  8
0
 10
34.4103
 20
5.18465
 11
34.4653
 21
5.25224
  0
LINE
  8
0
 10
34.4653
 20
5.25224
 11
34.5319
 21
5.3083
  0
LINE
  8
0
 10
34.5319
 20
5.3083
 11
34.6059
 21
5.34834
  0
LINE
  8
0
 10
34.6059
 20
5.34834
 11
34.6875
 21
5.37236
  0
LINE
  8
0
 10
34.6875
 20
5.37236
 11
34.7765
 21
5.38037
  0
LINE
  8
0
 10
34.7765
 20
5.38037
 11
34.868
 21
5.37248
  0
LINE
  8
0
 10
34.868
 20
5.37248
 11
34.9509
 21
5.3488
  0
LINE
  8
0
 10
34.9509
 20
5.3488
 11
35.0255
 21
5.30933
  0
LINE
  8
0
 10
35.0255
 20
5.30933
 11
35.0916
 21
5.25407
  0
LINE
  8
0
 10
35.0916
 20
5.25407
 11
35.1457
 21
5.18718
  0
LINE
  8
0
 10
35.1457
 20
5.18718
 11
35.1844
 21
5.11272
  0
LINE
  8
0
 10
35.1844
 20
5.11272
 11
35.2076
 21
5.03072
  0
LINE
  8
0
 10
35.2076
 20
5.03072
 11
35.2153
 21
4.94116
  0
LINE
  8
0
 10
35.2153
 20
4.94116
 11
35.2075
 21
4.85005
  0
LINE
  8
0
 10
35.2075
 20
4.85005
 11
35.1839
 21
4.76706
  0
LINE
  8
0
 10
35.1839
 20
4.76706
 11
35.1446
 21
4.6922
  0
LINE
  8
0
 10
35.1446
 20
4.6922
 11
35.0897
 21
4.62546
  0
LINE
  8
0
 10
35.0897
 20
4.62546
 11
35.0229
 21
4.57062
  0
LINE
  8
0
 10
35.0229
 20
4.57062
 11
34.9481
 21
4.53145
  0
LINE
  8
0
 10
34.9481
 20
4.53145
 11
34.8654
 21
4.50795
  0
LINE
  8
0
 10
34.8654
 20
4.50795
 11
34.7747
 21
4.50011
  0
LINE
  8
0
 10
34.7747
 20
4.50011
 11
34.6857
 21
4.50806
  0
LINE
  8
0
 10
32.4197
 20
4.00702
 11
32.5688
 21
4.02658
  0
LINE
  8
0
 10
32.5688
 20
4.02658
 11
32.7085
 21
4.05917
  0
LINE
  8
0
 10
32.7085
 20
4.05917
 11
32.8388
 21
4.1048
  0
LINE
  8
0
 10
32.8388
 20
4.1048
 11
32.9575
 21
4.16182
  0
LINE
  8
0
 10
32.9575
 20
4.16182
 11
33.0626
 21
4.22856
  0
LINE
  8
0
 10
33.0626
 20
4.22856
 11
33.1539
 21
4.30502
  0
LINE
  8
0
 10
33.1539
 20
4.30502
 11
33.2316
 21
4.39119
  0
LINE
  8
0
 10
33.2316
 20
4.39119
 11
33.2935
 21
4.48561
  0
LINE
  8
0
 10
33.2935
 20
4.48561
 11
33.3378
 21
4.58679
  0
LINE
  8
0
 10
33.3378
 20
4.58679
 11
33.3643
 21
4.69472
  0
LINE
  8
0
 10
33.3643
 20
4.69472
 11
33.3731
 21
4.80939
  0
LINE
  8
0
 10
33.3731
 20
4.80939
 11
33.3629
 21
4.93039
  0
LINE
  8
0
 10
33.3629
 20
4.93039
 11
33.3321
 21
5.04088
  0
LINE
  8
0
 10
33.3321
 20
5.04088
 11
33.2809
 21
5.14084
  0
LINE
  8
0
 10
33.2809
 20
5.14084
 11
33.2091
 21
5.23029
  0
LINE
  8
0
 10
33.2091
 20
5.23029
 11
33.1173
 21
5.30635
  0
LINE
  8
0
 10
33.1173
 20
5.30635
 11
33.0059
 21
5.36618
  0
LINE
  8
0
 10
33.0059
 20
5.36618
 11
32.8749
 21
5.40976
  0
LINE
  8
0
 10
32.8749
 20
5.40976
 11
32.7244
 21
5.43709
  0
LINE
  8
0
 10
32.7244
 20
5.43709
 11
32.7244
 21
5.45723
  0
LINE
  8
0
 10
32.7244
 20
5.45723
 11
32.8398
 21
5.48181
  0
LINE
  8
0
 10
32.8398
 20
5.48181
 11
32.944
 21
5.52081
  0
LINE
  8
0
 10
32.944
 20
5.52081
 11
33.0371
 21
5.57422
  0
LINE
  8
0
 10
33.0371
 20
5.57422
 11
33.1191
 21
5.64204
  0
LINE
  8
0
 10
33.1191
 20
5.64204
 11
33.1859
 21
5.722
  0
LINE
  8
0
 10
33.1859
 20
5.722
 11
33.2337
 21
5.8118
  0
LINE
  8
0
 10
33.2337
 20
5.8118
 11
33.2623
 21
5.91142
  0
LINE
  8
0
 10
33.2623
 20
5.91142
 11
33.2719
 21
6.02089
  0
LINE
  8
0
 10
33.2719
 20
6.02089
 11
33.264
 21
6.1288
  0
LINE
  8
0
 10
33.264
 20
6.1288
 11
33.2402
 21
6.23111
  0
LINE
  8
0
 10
33.2402
 20
6.23111
 11
33.2007
 21
6.3278
  0
LINE
  8
0
 10
33.2007
 20
6.3278
 11
33.1453
 21
6.4189
  0
LINE
  8
0
 10
33.1453
 20
6.4189
 11
33.0758
 21
6.50258
  0
LINE
  8
0
 10
33.0758
 20
6.50258
 11
32.9939
 21
6.577
  0
LINE
  8
0
 10
32.9939
 20
6.577
 11
32.8996
 21
6.64214
  0
LINE
  8
0
 10
32.8996
 20
6.64214
 11
32.7928
 21
6.69801
  0
LINE
  8
0
 10
32.7928
 20
6.69801
 11
32.6755
 21
6.74286
  0
LINE
  8
0
 10
32.6755
 20
6.74286
 11
32.5493
 21
6.77487
  0
LINE
  8
0
 10
32.5493
 20
6.77487
 11
32.4144
 21
6.7941
  0
LINE
  8
0
 10
32.4144
 20
6.7941
 11
32.2706
 21
6.80051
  0
LINE
  8
0
 10
32.2706
 20
6.80051
 11
32.1247
 21
6.79393
  0
LINE
  8
0
 10
32.1247
 20
6.79393
 11
31.9868
 21
6.77419
  0
LINE
  8
0
 10
31.9868
 20
6.77419
 11
31.857
 21
6.7413
  0
LINE
  8
0
 10
31.857
 20
6.7413
 11
31.7353
 21
6.69527
  0
LINE
  8
0
 10
31.7353
 20
6.69527
 11
31.6239
 21
6.63768
  0
LINE
  8
0
 10
31.6239
 20
6.63768
 11
31.5249
 21
6.57013
  0
LINE
  8
0
 10
31.5249
 20
6.57013
 11
31.4382
 21
6.49265
  0
LINE
  8
0
 10
31.4382
 20
6.49265
 11
31.3641
 21
6.4052
  0
LINE
  8
0
 10
31.3641
 20
6.4052
 11
31.3045
 21
6.30923
  0
LINE
  8
0
 10
31.3045
 20
6.30923
 11
31.2616
 21
6.20618
  0
LINE
  8
0
 10
31.2616
 20
6.20618
 11
31.2356
 21
6.09604
  0
LINE
  8
0
 10
31.2356
 20
6.09604
 11
31.2263
 21
5.97879
  0
LINE
  8
0
 10
31.2263
 20
5.97879
 11
31.8619
 21
5.97879
  0
LINE
  8
0
 10
31.8619
 20
5.97879
 11
31.87
 21
6.04662
  0
LINE
  8
0
 10
31.87
 20
6.04662
 11
31.8926
 21
6.10735
  0
LINE
  8
0
 10
31.8926
 20
6.10735
 11
31.9296
 21
6.16098
  0
LINE
  8
0
 10
31.9296
 20
6.16098
 11
31.9809
 21
6.20752
  0
LINE
  8
0
 10
31.9809
 20
6.20752
 11
32.0429
 21
6.24516
  0
LINE
  8
0
 10
32.0429
 20
6.24516
 11
32.1115
 21
6.27205
  0
LINE
  8
0
 10
32.1115
 20
6.27205
 11
32.1868
 21
6.28818
  0
LINE
  8
0
 10
32.1868
 20
6.28818
 11
32.2688
 21
6.29355
  0
LINE
  8
0
 10
32.2688
 20
6.29355
 11
32.3456
 21
6.28812
  0
LINE
  8
0
 10
32.3456
 20
6.28812
 11
32.415
 21
6.27182
  0
LINE
  8
0
 10
32.415
 20
6.27182
 11
32.4769
 21
6.24466
  0
LINE
  8
0
 10
32.4769
 20
6.24466
 11
32.5313
 21
6.20663
  0
LINE
  8
0
 10
32.5313
 20
6.20663
 11
32.5756
 21
6.15991
  0
LINE
  8
0
 10
32.5756
 20
6.15991
 11
32.6072
 21
6.10667
  0
LINE
  8
0
 10
32.6072
 20
6.10667
 11
32.6262
 21
6.04692
  0
LINE
  8
0
 10
32.6262
 20
6.04692
 11
32.6325
 21
5.98064
  0
LINE
  8
0
 10
32.6325
 20
5.98064
 11
32.6251
 21
5.91171
  0
LINE
  8
0
 10
32.6251
 20
5.91171
 11
32.603
 21
5.84955
  0
LINE
  8
0
 10
32.603
 20
5.84955
 11
32.5661
 21
5.79413
  0
LINE
  8
0
 10
32.5661
 20
5.79413
 11
32.5144
 21
5.74545
  0
LINE
  8
0
 10
32.5144
 20
5.74545
 11
32.4511
 21
5.70583
  0
LINE
  8
0
 10
32.4511
 20
5.70583
 11
32.3794
 21
5.67751
  0
LINE
  8
0
 10
32.3794
 20
5.67751
 11
32.2992
 21
5.66052
  0
LINE
  8
0
 10
32.2992
 20
5.66052
 11
32.2106
 21
5.65486
  0
LINE
  8
0
 10
32.2106
 20
5.65486
 11
31.9388
 21
5.65486
  0
LINE
  8
0
 10
31.9388
 20
5.65486
 11
31.9388
 21
5.19368
  0
LINE
  8
0
 10
31.9388
 20
5.19368
 11
32.2106
 21
5.19368
  0
LINE
  8
0
 10
32.2106
 20
5.19368
 11
32.3121
 21
5.18785
  0
LINE
  8
0
 10
32.3121
 20
5.18785
 11
32.4028
 21
5.17035
  0
LINE
  8
0
 10
32.4028
 20
5.17035
 11
32.4827
 21
5.14119
  0
LINE
  8
0
 10
32.4827
 20
5.14119
 11
32.5519
 21
5.10034
  0
LINE
  8
0
 10
32.5519
 20
5.10034
 11
32.6077
 21
5.05025
  0
LINE
  8
0
 10
32.6077
 20
5.05025
 11
32.6475
 21
4.9933
  0
LINE
  8
0
 10
32.6475
 20
4.9933
 11
32.6714
 21
4.92949
  0
LINE
  8
0
 10
32.6714
 20
4.92949
 11
32.6794
 21
4.8588
  0
LINE
  8
0
 10
32.6794
 20
4.8588
 11
32.6722
 21
4.78822
  0
LINE
  8
0
 10
32.6722
 20
4.78822
 11
32.6506
 21
4.72475
  0
LINE
  8
0
 10
32.6506
 20
4.72475
 11
32.6145
 21
4.66837
  0
LINE
  8
0
 10
32.6145
 20
4.66837
 11
32.5641
 21
4.61906
  0
LINE
  8
0
 10
32.5641
 20
4.61906
 11
32.5023
 21
4.57903
  0
LINE
  8
0
 10
32.5023
 20
4.57903
 11
32.4321
 21
4.55043
  0
LINE
  8
0
 10
32.4321
 20
4.55043
 11
32.3537
 21
4.53326
  0
LINE
  8
0
 10
32.3537
 20
4.53326
 11
32.2669
 21
4.52756
  0
LINE
  8
0
 10
32.2669
 20
4.52756
 11
32.1789
 21
4.53282
  0
LINE
  8
0
 10
32.1789
 20
4.53282
 11
32.0986
 21
4.5486
  0
LINE
  8
0
 10
32.0986
 20
4.5486
 11
32.0261
 21
4.57489
  0
LINE
  8
0
 10
32.0261
 20
4.57489
 11
31.9613
 21
4.61172
  0
LINE
  8
0
 10
31.9613
 20
4.61172
 11
31.9077
 21
4.65714
  0
LINE
  8
0
 10
31.9077
 20
4.65714
 11
31.8689
 21
4.70918
  0
LINE
  8
0
 10
31.8689
 20
4.70918
 11
31.8449
 21
4.76785
  0
LINE
  8
0
 10
31.8449
 20
4.76785
 11
31.8356
 21
4.83316
  0
LINE
  8
0
 10
31.8356
 20
4.83316
 11
31.1719
 21
4.83316
  0
LINE
  8
0
 10
31.1719
 20
4.83316
 11
31.1815
 21
4.71416
  0
LINE
  8
0
 10
31.1815
 20
4.71416
 11
31.2085
 21
4.60236
  0
LINE
  8
0
 10
31.2085
 20
4.60236
 11
31.2527
 21
4.49774
  0
LINE
  8
0
 10
31.2527
 20
4.49774
 11
31.3144
 21
4.40034
  0
LINE
  8
0
 10
31.3144
 20
4.40034
 11
31.3912
 21
4.31165
  0
LINE
  8
0
 10
31.3912
 20
4.31165
 11
31.481
 21
4.23312
  0
LINE
  8
0
 10
31.481
 20
4.23312
 11
31.5838
 21
4.16479
  0
LINE
  8
0
 10
31.5838
 20
4.16479
 11
31.6997
 21
4.10663
  0
LINE
  8
0
 10
31.6997
 20
4.10663
 11
31.8265
 21
4.06021
  0
LINE
  8
0
 10
31.8265
 20
4.06021
 11
31.9624
 21
4.02704
  0
LINE
  8
0
 10
31.9624
 20
4.02704
 11
32.1073
 21
4.00714
  0
LINE
  8
0
 10
32.1073
 20
4.00714
 11
32.2613
 21
4.0005
  0
LINE
  8
0
 10
32.2613
 20
4.0005
 11
32.4197
 21
4.00702
  0
LINE
  8
0
 10
20.1092
 20
4.01062
 11
20.2822
 21
4.04099
  0
LINE
  8
0
 10
20.2822
 20
4.04099
 11
20.4462
 21
4.0916
  0
LINE
  8
0
 10
20.4462
 20
4.0916
 11
20.6012
 21
4.16245
  0
LINE
  8
0
 10
20.6012
 20
4.16245
 11
20.7439
 21
4.25285
  0
LINE
  8
0
 10
20.7439
 20
4.25285
 11
20.871
 21
4.36215
  0
LINE
  8
0
 10
20.871
 20
4.36215
 11
20.9825
 21
4.49033
  0
LINE
  8
0
 10
20.9825
 20
4.49033
 11
21.0784
 21
4.63736
  0
LINE
  8
0
 10
21.0784
 20
4.63736
 11
21.1555
 21
4.80229
  0
LINE
  8
0
 10
21.1555
 20
4.80229
 11
21.2106
 21
4.98416
  0
LINE
  8
0
 10
21.2106
 20
4.98416
 11
21.2436
 21
5.18295
  0
LINE
  8
0
 10
21.2436
 20
5.18295
 11
21.2546
 21
5.39867
  0
LINE
  8
0
 10
21.2546
 20
5.39867
 11
21.2436
 21
5.61519
  0
LINE
  8
0
 10
21.2436
 20
5.61519
 11
21.2106
 21
5.81454
  0
LINE
  8
0
 10
21.2106
 20
5.81454
 11
21.1555
 21
5.99675
  0
LINE
  8
0
 10
21.1555
 20
5.99675
 11
21.0784
 21
6.16179
  0
LINE
  8
0
 10
21.0784
 20
6.16179
 11
20.9825
 21
6.30888
  0
LINE
  8
0
 10
20.9825
 20
6.30888
 11
20.871
 21
6.43721
  0
LINE
  8
0
 10
20.871
 20
6.43721
 11
20.7439
 21
6.5468
  0
LINE
  8
0
 10
20.7439
 20
6.5468
 11
20.6012
 21
6.63762
  0
LINE
  8
0
 10
20.6012
 20
6.63762
 11
20.4462
 21
6.70888
  0
LINE
  8
0
 10
20.4462
 20
6.70888
 11
20.2822
 21
6.75978
  0
LINE
  8
0
 10
20.2822
 20
6.75978
 11
20.1092
 21
6.79031
  0
LINE
  8
0
 10
20.1092
 20
6.79031
 11
19.9272
 21
6.80051
  0
LINE
  8
0
 10
19.9272
 20
6.80051
 11
19.7435
 21
6.79031
  0
LINE
  8
0
 10
19.7435
 20
6.79031
 11
19.5693
 21
6.75978
  0
LINE
  8
0
 10
19.5693
 20
6.75978
 11
19.4046
 21
6.70888
  0
LINE
  8
0
 10
19.4046
 20
6.70888
 11
19.2493
 21
6.63762
  0
LINE
  8
0
 10
19.2493
 20
6.63762
 11
19.1067
 21
6.5468
  0
LINE
  8
0
 10
19.1067
 20
6.5468
 11
18.9796
 21
6.43721
  0
LINE
  8
0
 10
18.9796
 20
6.43721
 11
18.8681
 21
6.30888
  0
LINE
  8
0
 10
18.8681
 20
6.30888
 11
18.7722
 21
6.16179
  0
LINE
  8
0
 10
18.7722
 20
6.16179
 11
18.6951
 21
5.99675
  0
LINE
  8
0
 10
18.6951
 20
5.99675
 11
18.64
 21
5.81454
  0
LINE
  8
0
 10
18.64
 20
5.81454
 11
18.6069
 21
5.61519
  0
LINE
  8
0
 10
18.6069
 20
5.61519
 11
18.5959
 21
5.39867
  0
LINE
  8
0
 10
18.5959
 20
5.39867
 11
18.6069
 21
5.18375
  0
LINE
  8
0
 10
18.6069
 20
5.18375
 11
18.64
 21
4.98552
  0
LINE
  8
0
 10
18.64
 20
4.98552
 11
18.6951
 21
4.80399
  0
LINE
  8
0
 10
18.6951
 20
4.80399
 11
18.7722
 21
4.63916
  0
LINE
  8
0
 10
18.7722
 20
4.63916
 11
18.8681
 21
4.49208
  0
LINE
  8
0
 10
18.8681
 20
4.49208
 11
18.9796
 21
4.36375
  0
LINE
  8
0
 10
18.9796
 20
4.36375
 11
19.1067
 21
4.25418
  0
LINE
  8
0
 10
19.1067
 20
4.25418
 11
19.2493
 21
4.16336
  0
LINE
  8
0
 10
19.2493
 20
4.16336
 11
19.4046
 21
4.0921
  0
LINE
  8
0
 10
19.4046
 20
4.0921
 11
19.5693
 21
4.04121
  0
LINE
  8
0
 10
19.5693
 20
4.04121
 11
19.7435
 21
4.01068
  0
LINE
  8
0
 10
19.7435
 20
4.01068
 11
19.9272
 21
4.0005
  0
LINE
  8
0
 10
19.9272
 20
4.0005
 11
20.1092
 21
4.01062
  0
LINE
  8
0
 10
19.7825
 20
4.58115
 11
19.6543
 21
4.62111
  0
LINE
  8
0
 10
19.6543
 20
4.62111
 11
19.5425
 21
4.68773
  0
LINE
  8
0
 10
19.5425
 20
4.68773
 11
19.4472
 21
4.78101
  0
LINE
  8
0
 10
19.4472
 20
4.78101
 11
19.3709
 21
4.89957
  0
LINE
  8
0
 10
19.3709
 20
4.89957
 11
19.3164
 21
5.04202
  0
LINE
  8
0
 10
19.3164
 20
5.04202
 11
19.2837
 21
5.20839
  0
LINE
  8
0
 10
19.2837
 20
5.20839
 11
19.2728
 21
5.39867
  0
LINE
  8
0
 10
19.2728
 20
5.39867
 11
19.2837
 21
5.5898
  0
LINE
  8
0
 10
19.2837
 20
5.5898
 11
19.3164
 21
5.7569
  0
LINE
  8
0
 10
19.3164
 20
5.7569
 11
19.3709
 21
5.89998
  0
LINE
  8
0
 10
19.3709
 20
5.89998
 11
19.4472
 21
6.01903
  0
LINE
  8
0
 10
19.4472
 20
6.01903
 11
19.5425
 21
6.11272
  0
LINE
  8
0
 10
19.5425
 20
6.11272
 11
19.6543
 21
6.17963
  0
LINE
  8
0
 10
19.6543
 20
6.17963
 11
19.7825
 21
6.21977
  0
LINE
  8
0
 10
19.7825
 20
6.21977
 11
19.9272
 21
6.23317
  0
LINE
  8
0
 10
19.9272
 20
6.23317
 11
20.0709
 21
6.21977
  0
LINE
  8
0
 10
20.0709
 20
6.21977
 11
20.1985
 21
6.17963
  0
LINE
  8
0
 10
20.1985
 20
6.17963
 11
20.31
 21
6.11272
  0
LINE
  8
0
 10
20.31
 20
6.11272
 11
20.4053
 21
6.01903
  0
LINE
  8
0
 10
20.4053
 20
6.01903
 11
20.4816
 21
5.89998
  0
LINE
  8
0
 10
20.4816
 20
5.89998
 11
20.5361
 21
5.7569
  0
LINE
  8
0
 10
20.5361
 20
5.7569
 11
20.5687
 21
5.5898
  0
LINE
  8
0
 10
20.5687
 20
5.5898
 11
20.5797
 21
5.39867
  0
LINE
  8
0
 10
20.5797
 20
5.39867
 11
20.5687
 21
5.20839
  0
LINE
  8
0
 10
20.5687
 20
5.20839
 11
20.5361
 21
5.04202
  0
LINE
  8
0
 10
20.5361
 20
5.04202
 11
20.4816
 21
4.89957
  0
LINE
  8
0
 10
20.4816
 20
4.89957
 11
20.4053
 21
4.78101
  0
LINE
  8
0
 10
20.4053
 20
4.78101
 11
20.31
 21
4.68773
  0
LINE
  8
0
 10
20.31
 20
4.68773
 11
20.1985
 21
4.62111
  0
LINE
  8
0
 10
20.1985
 20
4.62111
 11
20.0709
 21
4.58115
  0
LINE
  8
0
 10
20.0709
 20
4.58115
 11
19.9272
 21
4.56781
  0
LINE
  8
0
 10
19.9272
 20
4.56781
 11
19.7825
 21
4.58115
  0
LINE
  8
0
 10
10.4812
 20
5.21198
 11
10.4809
 21
5.26706
  0
LINE
  8
0
 10
10.4809
 20
5.26706
 11
10.4801
 21
5.32979
  0
LINE
  8
0
 10
10.4801
 20
5.32979
 11
10.4786
 21
5.40019
  0
LINE
  8
0
 10
10.4786
 20
5.40019
 11
10.4765
 21
5.47824
  0
LINE
  8
0
 10
10.4765
 20
5.47824
 11
10.4716
 21
5.64868
  0
LINE
  8
0
 10
10.4716
 20
5.64868
 11
10.4662
 21
5.83238
  0
LINE
  8
0
 10
10.4662
 20
5.83238
 11
10.4635
 21
5.92685
  0
LINE
  8
0
 10
10.4635
 20
5.92685
 11
10.4611
 21
6.01996
  0
LINE
  8
0
 10
10.4611
 20
6.01996
 11
10.4589
 21
6.11169
  0
LINE
  8
0
 10
10.4589
 20
6.11169
 11
10.4569
 21
6.20204
  0
LINE
  8
0
 10
10.4569
 20
6.20204
 11
10.4806
 21
6.10616
  0
LINE
  8
0
 10
10.4806
 20
6.10616
 11
10.5049
 21
6.01059
  0
LINE
  8
0
 10
10.5049
 20
6.01059
 11
10.5298
 21
5.91537
  0
LINE
  8
0
 10
10.5298
 20
5.91537
 11
10.5553
 21
5.8205
  0
LINE
  8
0
 10
10.5553
 20
5.8205
 11
10.5808
 21
5.72768
  0
LINE
  8
0
 10
10.5808
 20
5.72768
 11
10.6057
 21
5.63864
  0
LINE
  8
0
 10
10.6057
 20
5.63864
 11
10.63
 21
5.55336
  0
LINE
  8
0
 10
10.63
 20
5.55336
 11
10.6537
 21
5.47185
  0
LINE
  8
0
 10
10.6537
 20
5.47185
 11
10.6762
 21
5.3959
  0
LINE
  8
0
 10
10.6762
 20
5.3959
 11
10.6969
 21
5.32729
  0
LINE
  8
0
 10
10.6969
 20
5.32729
 11
10.7156
 21
5.26598
  0
LINE
  8
0
 10
10.7156
 20
5.26598
 11
10.7325
 21
5.21198
  0
LINE
  8
0
 10
10.7325
 20
5.21198
 11
11.1356
 21
4.03709
  0
LINE
  8
0
 10
11.1356
 20
4.03709
 11
11.6888
 21
4.03709
  0
LINE
  8
0
 10
11.6888
 20
4.03709
 11
12.0862
 21
5.21198
  0
LINE
  8
0
 10
12.0862
 20
5.21198
 11
12.1039
 21
5.26797
  0
LINE
  8
0
 10
12.1039
 20
5.26797
 11
12.1233
 21
5.33163
  0
LINE
  8
0
 10
12.1233
 20
5.33163
 11
12.1442
 21
5.40294
  0
LINE
  8
0
 10
12.1442
 20
5.40294
 11
12.1669
 21
5.48192
  0
LINE
  8
0
 10
12.1669
 20
5.48192
 11
12.1906
 21
5.56662
  0
LINE
  8
0
 10
12.1906
 20
5.56662
 11
12.2149
 21
5.65509
  0
LINE
  8
0
 10
12.2149
 20
5.65509
 11
12.2398
 21
5.74734
  0
LINE
  8
0
 10
12.2398
 20
5.74734
 11
12.2653
 21
5.84335
  0
LINE
  8
0
 10
12.2653
 20
5.84335
 11
12.2908
 21
5.94116
  0
LINE
  8
0
 10
12.2908
 20
5.94116
 11
12.3157
 21
6.03873
  0
LINE
  8
0
 10
12.3157
 20
6.03873
 11
12.34
 21
6.13606
  0
LINE
  8
0
 10
12.34
 20
6.13606
 11
12.3637
 21
6.23317
  0
LINE
  8
0
 10
12.3637
 20
6.23317
 11
12.3617
 21
6.14075
  0
LINE
  8
0
 10
12.3617
 20
6.14075
 11
12.3595
 21
6.04651
  0
LINE
  8
0
 10
12.3595
 20
6.04651
 11
12.3571
 21
5.95042
  0
LINE
  8
0
 10
12.3571
 20
5.95042
 11
12.3544
 21
5.85251
  0
LINE
  8
0
 10
12.3544
 20
5.85251
 11
12.349
 21
5.66196
  0
LINE
  8
0
 10
12.349
 20
5.66196
 11
12.3441
 21
5.48558
  0
LINE
  8
0
 10
12.3441
 20
5.48558
 11
12.342
 21
5.40501
  0
LINE
  8
0
 10
12.342
 20
5.40501
 11
12.3405
 21
5.33255
  0
LINE
  8
0
 10
12.3405
 20
5.33255
 11
12.3396
 21
5.2682
  0
LINE
  8
0
 10
12.3396
 20
5.2682
 11
12.3394
 21
5.21198
  0
LINE
  8
0
 10
12.3394
 20
5.21198
 11
12.3394
 21
4.03709
  0
LINE
  8
0
 10
12.3394
 20
4.03709
 11
13.005
 21
4.03709
  0
LINE
  8
0
 10
13.005
 20
4.03709
 11
13.005
 21
6.76389
  0
LINE
  8
0
 10
13.005
 20
6.76389
 11
11.9719
 21
6.76389
  0
LINE
  8
0
 10
11.9719
 20
6.76389
 11
11.6213
 21
5.70244
  0
LINE
  8
0
 10
11.6213
 20
5.70244
 11
11.6067
 21
5.65218
  0
LINE
  8
0
 10
11.6067
 20
5.65218
 11
11.591
 21
5.59471
  0
LINE
  8
0
 10
11.591
 20
5.59471
 11
11.5743
 21
5.53003
  0
LINE
  8
0
 10
11.5743
 20
5.53003
 11
11.5566
 21
5.45815
  0
LINE
  8
0
 10
11.5566
 20
5.45815
 11
11.5383
 21
5.38127
  0
LINE
  8
0
 10
11.5383
 20
5.38127
 11
11.52
 21
5.30167
  0
LINE
  8
0
 10
11.52
 20
5.30167
 11
11.5017
 21
5.21931
  0
LINE
  8
0
 10
11.5017
 20
5.21931
 11
11.4834
 21
5.13422
  0
LINE
  8
0
 10
11.4834
 20
5.13422
 11
11.4654
 21
5.04837
  0
LINE
  8
0
 10
11.4654
 20
5.04837
 11
11.448
 21
4.96381
  0
LINE
  8
0
 10
11.448
 20
4.96381
 11
11.4312
 21
4.88048
  0
LINE
  8
0
 10
11.4312
 20
4.88048
 11
11.415
 21
4.7984
  0
LINE
  8
0
 10
11.415
 20
4.7984
 11
11.3979
 21
4.88054
  0
LINE
  8
0
 10
11.3979
 20
4.88054
 11
11.3803
 21
4.96404
  0
LINE
  8
0
 10
11.3803
 20
4.96404
 11
11.3622
 21
5.04889
  0
LINE
  8
0
 10
11.3622
 20
5.04889
 11
11.3437
 21
5.13513
  0
LINE
  8
0
 10
11.3437
 20
5.13513
 11
11.325
 21
5.22058
  0
LINE
  8
0
 10
11.325
 20
5.22058
 11
11.3065
 21
5.30304
  0
LINE
  8
0
 10
11.3065
 20
5.30304
 11
11.288
 21
5.38254
  0
LINE
  8
0
 10
11.288
 20
5.38254
 11
11.2697
 21
5.45906
  0
LINE
  8
0
 10
11.2697
 20
5.45906
 11
11.2519
 21
5.53055
  0
LINE
  8
0
 10
11.2519
 20
5.53055
 11
11.2352
 21
5.59494
  0
LINE
  8
0
 10
11.2352
 20
5.59494
 11
11.2196
 21
5.65224
  0
LINE
  8
0
 10
11.2196
 20
5.65224
 11
11.205
 21
5.70244
  0
LINE
  8
0
 10
11.205
 20
5.70244
 11
10.8487
 21
6.76389
  0
LINE
  8
0
 10
10.8487
 20
6.76389
 11
9.8175
 21
6.76389
  0
LINE
  8
0
 10
9.8175
 20
6.76389
 11
9.8175
 21
4.03709
  0
LINE
  8
0
 10
9.8175
 20
4.03709
 11
10.4812
 21
4.03709
  0
LINE
  8
0
 10
10.4812
 20
4.03709
 11
10.4812
 21
5.21198
  0
LINE
  8
0
 10
14.0188
 20
5.21198
 11
14.0186
 21
5.26706
  0
LINE
  8
0
 10
14.0186
 20
5.26706
 11
14.0177
 21
5.32979
  0
LINE
  8
0
 10
14.0177
 20
5.32979
 11
14.0162
 21
5.40019
  0
LINE
  8
0
 10
14.0162
 20
5.40019
 11
14.0141
 21
5.47824
  0
LINE
  8
0
 10
14.0141
 20
5.47824
 11
14.0092
 21
5.64868
  0
LINE
  8
0
 10
14.0092
 20
5.64868
 11
14.0038
 21
5.83238
  0
LINE
  8
0
 10
14.0038
 20
5.83238
 11
14.0011
 21
5.92685
  0
LINE
  8
0
 10
14.0011
 20
5.92685
 11
13.9987
 21
6.01996
  0
LINE
  8
0
 10
13.9987
 20
6.01996
 11
13.9965
 21
6.11169
  0
LINE
  8
0
 10
13.9965
 20
6.11169
 11
13.9945
 21
6.20204
  0
LINE
  8
0
 10
13.9945
 20
6.20204
 11
14.0182
 21
6.10616
  0
LINE
  8
0
 10
14.0182
 20
6.10616
 11
14.0425
 21
6.01059
  0
LINE
  8
0
 10
14.0425
 20
6.01059
 11
14.0674
 21
5.91537
  0
LINE
  8
0
 10
14.0674
 20
5.91537
 11
14.0929
 21
5.8205
  0
LINE
  8
0
 10
14.0929
 20
5.8205
 11
14.1184
 21
5.72768
  0
LINE
  8
0
 10
14.1184
 20
5.72768
 11
14.1433
 21
5.63864
  0
LINE
  8
0
 10
14.1433
 20
5.63864
 11
14.1676
 21
5.55336
  0
LINE
  8
0
 10
14.1676
 20
5.55336
 11
14.1913
 21
5.47185
  0
LINE
  8
0
 10
14.1913
 20
5.47185
 11
14.2138
 21
5.3959
  0
LINE
  8
0
 10
14.2138
 20
5.3959
 11
14.2345
 21
5.32729
  0
LINE
  8
0
 10
14.2345
 20
5.32729
 11
14.2532
 21
5.26598
  0
LINE
  8
0
 10
14.2532
 20
5.26598
 11
14.2701
 21
5.21198
  0
LINE
  8
0
 10
14.2701
 20
5.21198
 11
14.6732
 21
4.03709
  0
LINE
  8
0
 10
14.6732
 20
4.03709
 11
15.2263
 21
4.03709
  0
LINE
  8
0
 10
15.2263
 20
4.03709
 11
15.6238
 21
5.21198
  0
LINE
  8
0
 10
15.6238
 20
5.21198
 11
15.6415
 21
5.26797
  0
LINE
  8
0
 10
15.6415
 20
5.26797
 11
15.6609
 21
5.33163
  0
LINE
  8
0
 10
15.6609
 20
5.33163
 11
15.6818
 21
5.40294
  0
LINE
  8
0
 10
15.6818
 20
5.40294
 11
15.7045
 21
5.48192
  0
LINE
  8
0
 10
15.7045
 20
5.48192
 11
15.7282
 21
5.56662
  0
LINE
  8
0
 10
15.7282
 20
5.56662
 11
15.7525
 21
5.65509
  0
LINE
  8
0
 10
15.7525
 20
5.65509
 11
15.7774
 21
5.74734
  0
LINE
  8
0
 10
15.7774
 20
5.74734
 11
15.8029
 21
5.84335
  0
LINE
  8
0
 10
15.8029
 20
5.84335
 11
15.8284
 21
5.94116
  0
LINE
  8
0
 10
15.8284
 20
5.94116
 11
15.8533
 21
6.03873
  0
LINE
  8
0
 10
15.8533
 20
6.03873
 11
15.8776
 21
6.13606
  0
LINE
  8
0
 10
15.8776
 20
6.13606
 11
15.9013
 21
6.23317
  0
LINE
  8
0
 10
15.9013
 20
6.23317
 11
15.8993
 21
6.14075
  0
LINE
  8
0
 10
15.8993
 20
6.14075
 11
15.8971
 21
6.04651
  0
LINE
  8
0
 10
15.8971
 20
6.04651
 11
15.8947
 21
5.95042
  0
LINE
  8
0
 10
15.8947
 20
5.95042
 11
15.892
 21
5.85251
  0
LINE
  8
0
 10
15.892
 20
5.85251
 11
15.8866
 21
5.66196
  0
LINE
  8
0
 10
15.8866
 20
5.66196
 11
15.8817
 21
5.48558
  0
LINE
  8
0
 10
15.8817
 20
5.48558
 11
15.8796
 21
5.40501
  0
LINE
  8
0
 10
15.8796
 20
5.40501
 11
15.8781
 21
5.33255
  0
LINE
  8
0
 10
15.8781
 20
5.33255
 11
15.8773
 21
5.2682
  0
LINE
  8
0
 10
15.8773
 20
5.2682
 11
15.877
 21
5.21198
  0
LINE
  8
0
 10
15.877
 20
5.21198
 11
15.877
 21
4.03709
  0
LINE
  8
0
 10
15.877
 20
4.03709
 11
16.5426
 21
4.03709
  0
LINE
  8
0
 10
16.5426
 20
4.03709
 11
16.5426
 21
6.76389
  0
LINE
  8
0
 10
16.5426
 20
6.76389
 11
15.5095
 21
6.76389
  0
LINE
  8
0
 10
15.5095
 20
6.76389
 11
15.1589
 21
5.70244
  0
LINE
  8
0
 10
15.1589
 20
5.70244
 11
15.1443
 21
5.65218
  0
LINE
  8
0
 10
15.1443
 20
5.65218
 11
15.1286
 21
5.59471
  0
LINE
  8
0
 10
15.1286
 20
5.59471
 11
15.1119
 21
5.53003
  0
LINE
  8
0
 10
15.1119
 20
5.53003
 11
15.0942
 21
5.45815
  0
LINE
  8
0
 10
15.0942
 20
5.45815
 11
15.0759
 21
5.38127
  0
LINE
  8
0
 10
15.0759
 20
5.38127
 11
15.0576
 21
5.30167
  0
LINE
  8
0
 10
15.0576
 20
5.30167
 11
15.0393
 21
5.21931
  0
LINE
  8
0
 10
15.0393
 20
5.21931
 11
15.021
 21
5.13422
  0
LINE
  8
0
 10
15.021
 20
5.13422
 11
15.0031
 21
5.04837
  0
LINE
  8
0
 10
15.0031
 20
5.04837
 11
14.9856
 21
4.96381
  0
LINE
  8
0
 10
14.9856
 20
4.96381
 11
14.9688
 21
4.88048
  0
LINE
  8
0
 10
14.9688
 20
4.88048
 11
14.9526
 21
4.7984
  0
LINE
  8
0
 10
14.9526
 20
4.7984
 11
14.9355
 21
4.88054
  0
LINE
  8
0
 10
14.9355
 20
4.88054
 11
14.9179
 21
4.96404
  0
LINE
  8
0
 10
14.9179
 20
4.96404
 11
14.8998
 21
5.04889
  0
LINE
  8
0
 10
14.8998
 20
5.04889
 11
14.8813
 21
5.13513
  0
LINE
  8
0
 10
14.8813
 20
5.13513
 11
14.8626
 21
5.22058
  0
LINE
  8
0
 10
14.8626
 20
5.22058
 11
14.8441
 21
5.30304
  0
LINE
  8
0
 10
14.8441
 20
5.30304
 11
14.8256
 21
5.38254
  0
LINE
  8
0
 10
14.8256
 20
5.38254
 11
14.8073
 21
5.45906
  0
LINE
  8
0
 10
14.8073
 20
5.45906
 11
14.7895
 21
5.53055
  0
LINE
  8
0
 10
14.7895
 20
5.53055
 11
14.7728
 21
5.59494
  0
LINE
  8
0
 10
14.7728
 20
5.59494
 11
14.7572
 21
5.65224
  0
LINE
  8
0
 10
14.7572
 20
5.65224
 11
14.7426
 21
5.70244
  0
LINE
  8
0
 10
14.7426
 20
5.70244
 11
14.3863
 21
6.76389
  0
LINE
  8
0
 10
14.3863
 20
6.76389
 11
13.3551
 21
6.76389
  0
LINE
  8
0
 10
13.3551
 20
6.76389
 11
13.3551
 21
4.03709
  0
LINE
  8
0
 10
13.3551
 20
4.03709
 11
14.0188
 21
4.03709
  0
LINE
  8
0
 10
14.0188
 20
4.03709
 11
14.0188
 21
5.21198
  0
LINE
  8
0
 10
22.2201
 20
4.97591
 11
22.5801
 21
4.97591
  0
LINE
  8
0
 10
22.5801
 20
4.97591
 11
23.092
 21
4.03709
  0
LINE
  8
0
 10
23.092
 20
4.03709
 11
23.8176
 21
4.03709
  0
LINE
  8
0
 10
23.8176
 20
4.03709
 11
23.2345
 21
5.0784
  0
LINE
  8
0
 10
23.2345
 20
5.0784
 11
23.3441
 21
5.1356
  0
LINE
  8
0
 10
23.3441
 20
5.1356
 11
23.4405
 21
5.20468
  0
LINE
  8
0
 10
23.4405
 20
5.20468
 11
23.5236
 21
5.28566
  0
LINE
  8
0
 10
23.5236
 20
5.28566
 11
23.5935
 21
5.37854
  0
LINE
  8
0
 10
23.5935
 20
5.37854
 11
23.6489
 21
5.48262
  0
LINE
  8
0
 10
23.6489
 20
5.48262
 11
23.6885
 21
5.59723
  0
LINE
  8
0
 10
23.6885
 20
5.59723
 11
23.7122
 21
5.72235
  0
LINE
  8
0
 10
23.7122
 20
5.72235
 11
23.7201
 21
5.85802
  0
LINE
  8
0
 10
23.7201
 20
5.85802
 11
23.703
 21
6.05583
  0
LINE
  8
0
 10
23.703
 20
6.05583
 11
23.6519
 21
6.23203
  0
LINE
  8
0
 10
23.6519
 20
6.23203
 11
23.5666
 21
6.3866
  0
LINE
  8
0
 10
23.5666
 20
6.3866
 11
23.4473
 21
6.51956
  0
LINE
  8
0
 10
23.4473
 20
6.51956
 11
23.2984
 21
6.62645
  0
LINE
  8
0
 10
23.2984
 20
6.62645
 11
23.1245
 21
6.7028
  0
LINE
  8
0
 10
23.1245
 20
6.7028
 11
22.9257
 21
6.74861
  0
LINE
  8
0
 10
22.9257
 20
6.74861
 11
22.702
 21
6.76389
  0
LINE
  8
0
 10
22.702
 20
6.76389
 11
21.5582
 21
6.76389
  0
LINE
  8
0
 10
21.5582
 20
6.76389
 11
21.5582
 21
4.03709
  0
LINE
  8
0
 10
21.5582
 20
4.03709
 11
22.2201
 21
4.03709
  0
LINE
  8
0
 10
22.2201
 20
4.03709
 11
22.2201
 21
4.97591
  0
LINE
  8
0
 10
22.2201
 20
5.48651
 11
22.2201
 21
6.24049
  0
LINE
  8
0
 10
22.2201
 20
6.24049
 11
22.5613
 21
6.24049
  0
LINE
  8
0
 10
22.5613
 20
6.24049
 11
22.7681
 21
6.2166
  0
LINE
  8
0
 10
22.7681
 20
6.2166
 11
22.9157
 21
6.14488
  0
LINE
  8
0
 10
22.9157
 20
6.14488
 11
23.0043
 21
6.02534
  0
LINE
  8
0
 10
23.0043
 20
6.02534
 11
23.0338
 21
5.85802
  0
LINE
  8
0
 10
23.0338
 20
5.85802
 11
23.0044
 21
5.69548
  0
LINE
  8
0
 10
23.0044
 20
5.69548
 11
22.9162
 21
5.57938
  0
LINE
  8
0
 10
22.9162
 20
5.57938
 11
22.7691
 21
5.50972
  0
LINE
  8
0
 10
22.7691
 20
5.50972
 11
22.5632
 21
5.48651
  0
LINE
  8
0
 10
22.5632
 20
5.48651
 11
22.2201
 21
5.48651
  0
LINE
  8
0
 10
18.224
 20
5.64572
 11
16.9358
 21
5.64572
  0
LINE
  8
0
 10
16.9358
 20
5.64572
 11
16.9358
 21
5.15343
  0
LINE
  8
0
 10
16.9358
 20
5.15343
 11
18.224
 21
5.15343
  0
LINE
  8
0
 10
18.224
 20
5.15343
 11
18.224
 21
5.64572
  0
LINE
  8
0
 10
28.1941
 20
5.64572
 11
26.9059
 21
5.64572
  0
LINE
  8
0
 10
26.9059
 20
5.64572
 11
26.9059
 21
5.15343
  0
LINE
  8
0
 10
26.9059
 20
5.15343
 11
28.1941
 21
5.15343
  0
LINE
  8
0
 10
28.1941
 20
5.15343
 11
28.1941
 21
5.64572
  0
LINE
  8
0
 10
31.0896
 20
0.80986
 11
31.1376
 21
0.811844
  0
LINE
  8
0
 10
31.1376
 20
0.811844
 11
31.187
 21
0.81517
  0
LINE
  8
0
 10
31.187
 20
0.81517
 11
31.2379
 21
0.819824
  0
LINE
  8
0
 10
31.2379
 20
0.819824
 11
31.2898
 21
0.826355
  0
LINE
  8
0
 10
31.2898
 20
0.826355
 11
31.3428
 21
0.835327
  0
LINE
  8
0
 10
31.3428
 20
0.835327
 11
31.3966
 21
0.846725
  0
LINE
  8
0
 10
31.3966
 20
0.846725
 11
31.4514
 21
0.860565
  0
LINE
  8
0
 10
31.4514
 20
0.860565
 11
31.3671
 21
1.31039
  0
LINE
  8
0
 10
31.3671
 20
1.31039
 11
31.3518
 21
1.30757
  0
LINE
  8
0
 10
31.3518
 20
1.30757
 11
31.3322
 21
1.30443
  0
LINE
  8
0
 10
31.3322
 20
1.30443
 11
31.3083
 21
1.30093
  0
LINE
  8
0
 10
31.3083
 20
1.30093
 11
31.28
 21
1.2971
  0
LINE
  8
0
 10
31.28
 20
1.2971
 11
31.2513
 21
1.29362
  0
LINE
  8
0
 10
31.2513
 20
1.29362
 11
31.2259
 21
1.29112
  0
LINE
  8
0
 10
31.2259
 20
1.29112
 11
31.204
 21
1.28964
  0
LINE
  8
0
 10
31.204
 20
1.28964
 11
31.1854
 21
1.28914
  0
LINE
  8
0
 10
31.1854
 20
1.28914
 11
31.1124
 21
1.29877
  0
LINE
  8
0
 10
31.1124
 20
1.29877
 11
31.0603
 21
1.32765
  0
LINE
  8
0
 10
31.0603
 20
1.32765
 11
31.0291
 21
1.37581
  0
LINE
  8
0
 10
31.0291
 20
1.37581
 11
31.0186
 21
1.44322
  0
LINE
  8
0
 10
31.0186
 20
1.44322
 11
31.0186
 21
2.35886
  0
LINE
  8
0
 10
31.0186
 20
2.35886
 11
31.3952
 21
2.35886
  0
LINE
  8
0
 10
31.3952
 20
2.35886
 11
31.3952
 21
2.81755
  0
LINE
  8
0
 10
31.3952
 20
2.81755
 11
31.0186
 21
2.81755
  0
LINE
  8
0
 10
31.0186
 20
2.81755
 11
31.0186
 21
3.28867
  0
LINE
  8
0
 10
31.0186
 20
3.28867
 11
30.3648
 21
3.28867
  0
LINE
  8
0
 10
30.3648
 20
3.28867
 11
30.3648
 21
2.81755
  0
LINE
  8
0
 10
30.3648
 20
2.81755
 11
29.7104
 21
2.81755
  0
LINE
  8
0
 10
29.7104
 20
2.81755
 11
29.7104
 21
2.92914
  0
LINE
  8
0
 10
29.7104
 20
2.92914
 11
29.7133
 21
2.97025
  0
LINE
  8
0
 10
29.7133
 20
2.97025
 11
29.7219
 21
3.00684
  0
LINE
  8
0
 10
29.7219
 20
3.00684
 11
29.7362
 21
3.03888
  0
LINE
  8
0
 10
29.7362
 20
3.03888
 11
29.7563
 21
3.06636
  0
LINE
  8
0
 10
29.7563
 20
3.06636
 11
29.7836
 21
3.08846
  0
LINE
  8
0
 10
29.7836
 20
3.08846
 11
29.8198
 21
3.10423
  0
LINE
  8
0
 10
29.8198
 20
3.10423
 11
29.8647
 21
3.11369
  0
LINE
  8
0
 10
29.8647
 20
3.11369
 11
29.9184
 21
3.11685
  0
LINE
  8
0
 10
29.9184
 20
3.11685
 11
29.9436
 21
3.11635
  0
LINE
  8
0
 10
29.9436
 20
3.11635
 11
29.9689
 21
3.11485
  0
LINE
  8
0
 10
29.9689
 20
3.11485
 11
29.9942
 21
3.11237
  0
LINE
  8
0
 10
29.9942
 20
3.11237
 11
30.0195
 21
3.10889
  0
LINE
  8
0
 10
30.0195
 20
3.10889
 11
30.044
 21
3.10484
  0
LINE
  8
0
 10
30.044
 20
3.10484
 11
30.0668
 21
3.10069
  0
LINE
  8
0
 10
30.0668
 20
3.10069
 11
30.088
 21
3.09644
  0
LINE
  8
0
 10
30.088
 20
3.09644
 11
30.1076
 21
3.09207
  0
LINE
  8
0
 10
30.1076
 20
3.09207
 11
30.2125
 21
3.54367
  0
LINE
  8
0
 10
30.2125
 20
3.54367
 11
30.1795
 21
3.55193
  0
LINE
  8
0
 10
30.1795
 20
3.55193
 11
30.1385
 21
3.56073
  0
LINE
  8
0
 10
30.1385
 20
3.56073
 11
30.0895
 21
3.57007
  0
LINE
  8
0
 10
30.0895
 20
3.57007
 11
30.0326
 21
3.57997
  0
LINE
  8
0
 10
30.0326
 20
3.57997
 11
29.9707
 21
3.58888
  0
LINE
  8
0
 10
29.9707
 20
3.58888
 11
29.9066
 21
3.59525
  0
LINE
  8
0
 10
29.9066
 20
3.59525
 11
29.8405
 21
3.59908
  0
LINE
  8
0
 10
29.8405
 20
3.59908
 11
29.7722
 21
3.60034
  0
LINE
  8
0
 10
29.7722
 20
3.60034
 11
29.6221
 21
3.58983
  0
LINE
  8
0
 10
29.6221
 20
3.58983
 11
29.4865
 21
3.55827
  0
LINE
  8
0
 10
29.4865
 20
3.55827
 11
29.3655
 21
3.50569
  0
LINE
  8
0
 10
29.3655
 20
3.50569
 11
29.2589
 21
3.43208
  0
LINE
  8
0
 10
29.2589
 20
3.43208
 11
29.172
 21
3.33723
  0
LINE
  8
0
 10
29.172
 20
3.33723
 11
29.11
 21
3.2209
  0
LINE
  8
0
 10
29.11
 20
3.2209
 11
29.0728
 21
3.08308
  0
LINE
  8
0
 10
29.0728
 20
3.08308
 11
29.0603
 21
2.92381
  0
LINE
  8
0
 10
29.0603
 20
2.92381
 11
29.0603
 21
2.81755
  0
LINE
  8
0
 10
29.0603
 20
2.81755
 11
28.7081
 21
2.81755
  0
LINE
  8
0
 10
28.7081
 20
2.81755
 11
28.7081
 21
2.35886
  0
LINE
  8
0
 10
28.7081
 20
2.35886
 11
29.0603
 21
2.35886
  0
LINE
  8
0
 10
29.0603
 20
2.35886
 11
29.0603
 21
0.837524
  0
LINE
  8
0
 10
29.0603
 20
0.837524
 11
29.7104
 21
0.837524
  0
LINE
  8
0
 10
29.7104
 20
0.837524
 11
29.7104
 21
2.35886
  0
LINE
  8
0
 10
29.7104
 20
2.35886
 11
30.3648
 21
2.35886
  0
LINE
  8
0
 10
30.3648
 20
2.35886
 11
30.3648
 21
1.38832
  0
LINE
  8
0
 10
30.3648
 20
1.38832
 11
30.3756
 21
1.25511
  0
LINE
  8
0
 10
30.3756
 20
1.25511
 11
30.4079
 21
1.13882
  0
LINE
  8
0
 10
30.4079
 20
1.13882
 11
30.4618
 21
1.03947
  0
LINE
  8
0
 10
30.4618
 20
1.03947
 11
30.5372
 21
0.957062
  0
LINE
  8
0
 10
30.5372
 20
0.957062
 11
30.6334
 21
0.892365
  0
LINE
  8
0
 10
30.6334
 20
0.892365
 11
30.7498
 21
0.846161
  0
LINE
  8
0
 10
30.7498
 20
0.846161
 11
30.8864
 21
0.818436
  0
LINE
  8
0
 10
30.8864
 20
0.818436
 11
31.043
 21
0.809204
  0
LINE
  8
0
 10
31.043
 20
0.809204
 11
31.0896
 21
0.80986
  0
LINE
  8
0
 10
19.8078
 20
0.824417
 11
20.0395
 21
0.891327
  0
LINE
  8
0
 10
20.0395
 20
0.891327
 11
20.2401
 21
1.00285
  0
LINE
  8
0
 10
20.2401
 20
1.00285
 11
20.4097
 21
1.15898
  0
LINE
  8
0
 10
20.4097
 20
1.15898
 11
20.5445
 21
1.35507
  0
LINE
  8
0
 10
20.5445
 20
1.35507
 11
20.6408
 21
1.58646
  0
LINE
  8
0
 10
20.6408
 20
1.58646
 11
20.6986
 21
1.85316
  0
LINE
  8
0
 10
20.6986
 20
1.85316
 11
20.7179
 21
2.1552
  0
LINE
  8
0
 10
20.7179
 20
2.1552
 11
20.7092
 21
2.3609
  0
LINE
  8
0
 10
20.7092
 20
2.3609
 11
20.683
 21
2.55124
  0
LINE
  8
0
 10
20.683
 20
2.55124
 11
20.6394
 21
2.72618
  0
LINE
  8
0
 10
20.6394
 20
2.72618
 11
20.5783
 21
2.88573
  0
LINE
  8
0
 10
20.5783
 20
2.88573
 11
20.5009
 21
3.02869
  0
LINE
  8
0
 10
20.5009
 20
3.02869
 11
20.4081
 21
3.15382
  0
LINE
  8
0
 10
20.4081
 20
3.15382
 11
20.2999
 21
3.26114
  0
LINE
  8
0
 10
20.2999
 20
3.26114
 11
20.1765
 21
3.35063
  0
LINE
  8
0
 10
20.1765
 20
3.35063
 11
20.0386
 21
3.42114
  0
LINE
  8
0
 10
20.0386
 20
3.42114
 11
19.8875
 21
3.47151
  0
LINE
  8
0
 10
19.8875
 20
3.47151
 11
19.723
 21
3.50174
  0
LINE
  8
0
 10
19.723
 20
3.50174
 11
19.5451
 21
3.51181
  0
LINE
  8
0
 10
19.5451
 20
3.51181
 11
19.284
 21
3.48946
  0
LINE
  8
0
 10
19.284
 20
3.48946
 11
19.0531
 21
3.42236
  0
LINE
  8
0
 10
19.0531
 20
3.42236
 11
18.8526
 21
3.31056
  0
LINE
  8
0
 10
18.8526
 20
3.31056
 11
18.6824
 21
3.15404
  0
LINE
  8
0
 10
18.6824
 20
3.15404
 11
18.5468
 21
2.95746
  0
LINE
  8
0
 10
18.5468
 20
2.95746
 11
18.4499
 21
2.72545
  0
LINE
  8
0
 10
18.4499
 20
2.72545
 11
18.3918
 21
2.45802
  0
LINE
  8
0
 10
18.3918
 20
2.45802
 11
18.3724
 21
2.1552
  0
LINE
  8
0
 10
18.3724
 20
2.1552
 11
18.3918
 21
1.85245
  0
LINE
  8
0
 10
18.3918
 20
1.85245
 11
18.4499
 21
1.58536
  0
LINE
  8
0
 10
18.4499
 20
1.58536
 11
18.5468
 21
1.3539
  0
LINE
  8
0
 10
18.5468
 20
1.3539
 11
18.6824
 21
1.1581
  0
LINE
  8
0
 10
18.6824
 20
1.1581
 11
18.8526
 21
1.00235
  0
LINE
  8
0
 10
18.8526
 20
1.00235
 11
19.0531
 21
0.891113
  0
LINE
  8
0
 10
19.0531
 20
0.891113
 11
19.284
 21
0.824371
  0
LINE
  8
0
 10
19.284
 20
0.824371
 11
19.5451
 21
0.802124
  0
LINE
  8
0
 10
19.5451
 20
0.802124
 11
19.8078
 21
0.824417
  0
LINE
  8
0
 10
19.4331
 20
1.32756
 11
19.3351
 21
1.36841
  0
LINE
  8
0
 10
19.3351
 20
1.36841
 11
19.2509
 21
1.43648
  0
LINE
  8
0
 10
19.2509
 20
1.43648
 11
19.1808
 21
1.53177
  0
LINE
  8
0
 10
19.1808
 20
1.53177
 11
19.1254
 21
1.65244
  0
LINE
  8
0
 10
19.1254
 20
1.65244
 11
19.0859
 21
1.79655
  0
LINE
  8
0
 10
19.0859
 20
1.79655
 11
19.0622
 21
1.96414
  0
LINE
  8
0
 10
19.0622
 20
1.96414
 11
19.0543
 21
2.1552
  0
LINE
  8
0
 10
19.0543
 20
2.1552
 11
19.0623
 21
2.34718
  0
LINE
  8
0
 10
19.0623
 20
2.34718
 11
19.0861
 21
2.51582
  0
LINE
  8
0
 10
19.0861
 20
2.51582
 11
19.1259
 21
2.6611
  0
LINE
  8
0
 10
19.1259
 20
2.6611
 11
19.1817
 21
2.78302
  0
LINE
  8
0
 10
19.1817
 20
2.78302
 11
19.2522
 21
2.87949
  0
LINE
  8
0
 10
19.2522
 20
2.87949
 11
19.3362
 21
2.94839
  0
LINE
  8
0
 10
19.3362
 20
2.94839
 11
19.4339
 21
2.98973
  0
LINE
  8
0
 10
19.4339
 20
2.98973
 11
19.5451
 21
3.00351
  0
LINE
  8
0
 10
19.5451
 20
3.00351
 11
19.6572
 21
2.98973
  0
LINE
  8
0
 10
19.6572
 20
2.98973
 11
19.7554
 21
2.94839
  0
LINE
  8
0
 10
19.7554
 20
2.94839
 11
19.8398
 21
2.87949
  0
LINE
  8
0
 10
19.8398
 20
2.87949
 11
19.9104
 21
2.78302
  0
LINE
  8
0
 10
19.9104
 20
2.78302
 11
19.9662
 21
2.6611
  0
LINE
  8
0
 10
19.9662
 20
2.6611
 11
20.006
 21
2.51582
  0
LINE
  8
0
 10
20.006
 20
2.51582
 11
20.0299
 21
2.34718
  0
LINE
  8
0
 10
20.0299
 20
2.34718
 11
20.0378
 21
2.1552
  0
LINE
  8
0
 10
20.0378
 20
2.1552
 11
20.0299
 21
1.96414
  0
LINE
  8
0
 10
20.0299
 20
1.96414
 11
20.006
 21
1.79655
  0
LINE
  8
0
 10
20.006
 20
1.79655
 11
19.9662
 21
1.65244
  0
LINE
  8
0
 10
19.9662
 20
1.65244
 11
19.9104
 21
1.53177
  0
LINE
  8
0
 10
19.9104
 20
1.53177
 11
19.8398
 21
1.43648
  0
LINE
  8
0
 10
19.8398
 20
1.43648
 11
19.7554
 21
1.36841
  0
LINE
  8
0
 10
19.7554
 20
1.36841
 11
19.6572
 21
1.32756
  0
LINE
  8
0
 10
19.6572
 20
1.32756
 11
19.5451
 21
1.31395
  0
LINE
  8
0
 10
19.5451
 20
1.31395
 11
19.4331
 21
1.32756
  0
LINE
  8
0
 10
35.0667
 20
1.34229
 11
33.9276
 21
1.34229
  0
LINE
  8
0
 10
33.9276
 20
1.34229
 11
33.9276
 21
1.35999
  0
LINE
  8
0
 10
33.9276
 20
1.35999
 11
34.2742
 21
1.6646
  0
LINE
  8
0
 10
34.2742
 20
1.6646
 11
34.4164
 21
1.78432
  0
LINE
  8
0
 10
34.4164
 20
1.78432
 11
34.5416
 21
1.89551
  0
LINE
  8
0
 10
34.5416
 20
1.89551
 11
34.6497
 21
1.99817
  0
LINE
  8
0
 10
34.6497
 20
1.99817
 11
34.7406
 21
2.0923
  0
LINE
  8
0
 10
34.7406
 20
2.0923
 11
34.8167
 21
2.18015
  0
LINE
  8
0
 10
34.8167
 20
2.18015
 11
34.88
 21
2.26389
  0
LINE
  8
0
 10
34.88
 20
2.26389
 11
34.9305
 21
2.34352
  0
LINE
  8
0
 10
34.9305
 20
2.34352
 11
34.9683
 21
2.41905
  0
LINE
  8
0
 10
34.9683
 20
2.41905
 11
34.9957
 21
2.49278
  0
LINE
  8
0
 10
34.9957
 20
2.49278
 11
35.0154
 21
2.56694
  0
LINE
  8
0
 10
35.0154
 20
2.56694
 11
35.0271
 21
2.64156
  0
LINE
  8
0
 10
35.0271
 20
2.64156
 11
35.031
 21
2.71661
  0
LINE
  8
0
 10
35.031
 20
2.71661
 11
35.0231
 21
2.83089
  0
LINE
  8
0
 10
35.0231
 20
2.83089
 11
34.9992
 21
2.9382
  0
LINE
  8
0
 10
34.9992
 20
2.9382
 11
34.9594
 21
3.03853
  0
LINE
  8
0
 10
34.9594
 20
3.03853
 11
34.9036
 21
3.1319
  0
LINE
  8
0
 10
34.9036
 20
3.1319
 11
34.8333
 21
3.2168
  0
LINE
  8
0
 10
34.8333
 20
3.2168
 11
34.7498
 21
3.29175
  0
LINE
  8
0
 10
34.7498
 20
3.29175
 11
34.653
 21
3.35672
  0
LINE
  8
0
 10
34.653
 20
3.35672
 11
34.543
 21
3.41174
  0
LINE
  8
0
 10
34.543
 20
3.41174
 11
34.4213
 21
3.45552
  0
LINE
  8
0
 10
34.4213
 20
3.45552
 11
34.2894
 21
3.4868
  0
LINE
  8
0
 10
34.2894
 20
3.4868
 11
34.1473
 21
3.50555
  0
LINE
  8
0
 10
34.1473
 20
3.50555
 11
33.995
 21
3.51181
  0
LINE
  8
0
 10
33.995
 20
3.51181
 11
33.847
 21
3.50517
  0
LINE
  8
0
 10
33.847
 20
3.50517
 11
33.7084
 21
3.48524
  0
LINE
  8
0
 10
33.7084
 20
3.48524
 11
33.5791
 21
3.45203
  0
LINE
  8
0
 10
33.5791
 20
3.45203
 11
33.4592
 21
3.40552
  0
LINE
  8
0
 10
33.4592
 20
3.40552
 11
33.3504
 21
3.34686
  0
LINE
  8
0
 10
33.3504
 20
3.34686
 11
33.2543
 21
3.27713
  0
LINE
  8
0
 10
33.2543
 20
3.27713
 11
33.171
 21
3.19632
  0
LINE
  8
0
 10
33.171
 20
3.19632
 11
33.1005
 21
3.10445
  0
LINE
  8
0
 10
33.1005
 20
3.10445
 11
33.0443
 21
3.0025
  0
LINE
  8
0
 10
33.0443
 20
3.0025
 11
33.0042
 21
2.89149
  0
LINE
  8
0
 10
33.0042
 20
2.89149
 11
32.9802
 21
2.77139
  0
LINE
  8
0
 10
32.9802
 20
2.77139
 11
32.9722
 21
2.64221
  0
LINE
  8
0
 10
32.9722
 20
2.64221
 11
33.6016
 21
2.64221
  0
LINE
  8
0
 10
33.6016
 20
2.64221
 11
33.6083
 21
2.72745
  0
LINE
  8
0
 10
33.6083
 20
2.72745
 11
33.6283
 21
2.80249
  0
LINE
  8
0
 10
33.6283
 20
2.80249
 11
33.6617
 21
2.86736
  0
LINE
  8
0
 10
33.6617
 20
2.86736
 11
33.7084
 21
2.92203
  0
LINE
  8
0
 10
33.7084
 20
2.92203
 11
33.7663
 21
2.96542
  0
LINE
  8
0
 10
33.7663
 20
2.96542
 11
33.833
 21
2.99641
  0
LINE
  8
0
 10
33.833
 20
2.99641
 11
33.9086
 21
3.01501
  0
LINE
  8
0
 10
33.9086
 20
3.01501
 11
33.9932
 21
3.02121
  0
LINE
  8
0
 10
33.9932
 20
3.02121
 11
34.0756
 21
3.01535
  0
LINE
  8
0
 10
34.0756
 20
3.01535
 11
34.1505
 21
2.99776
  0
LINE
  8
0
 10
34.1505
 20
2.99776
 11
34.218
 21
2.96841
  0
LINE
  8
0
 10
34.218
 20
2.96841
 11
34.2779
 21
2.92735
  0
LINE
  8
0
 10
34.2779
 20
2.92735
 11
34.3271
 21
2.87601
  0
LINE
  8
0
 10
34.3271
 20
2.87601
 11
34.3622
 21
2.8158
  0
LINE
  8
0
 10
34.3622
 20
2.8158
 11
34.3833
 21
2.74672
  0
LINE
  8
0
 10
34.3833
 20
2.74672
 11
34.3903
 21
2.66879
  0
LINE
  8
0
 10
34.3903
 20
2.66879
 11
34.3843
 21
2.59557
  0
LINE
  8
0
 10
34.3843
 20
2.59557
 11
34.3662
 21
2.52643
  0
LINE
  8
0
 10
34.3662
 20
2.52643
 11
34.3361
 21
2.4614
  0
LINE
  8
0
 10
34.3361
 20
2.4614
 11
34.2939
 21
2.40047
  0
LINE
  8
0
 10
34.2939
 20
2.40047
 11
34.2409
 21
2.33965
  0
LINE
  8
0
 10
34.2409
 20
2.33965
 11
34.1784
 21
2.27495
  0
LINE
  8
0
 10
34.1784
 20
2.27495
 11
34.1064
 21
2.20638
  0
LINE
  8
0
 10
34.1064
 20
2.20638
 11
34.025
 21
2.13393
  0
LINE
  8
0
 10
34.025
 20
2.13393
 11
33.0096
 21
1.28561
  0
LINE
  8
0
 10
33.0096
 20
1.28561
 11
33.0096
 21
0.837524
  0
LINE
  8
0
 10
33.0096
 20
0.837524
 11
35.0667
 21
0.837524
  0
LINE
  8
0
 10
35.0667
 20
0.837524
 11
35.0667
 21
1.34229
  0
LINE
  8
0
 10
13.4942
 20
0.824417
 11
13.7259
 21
0.891327
  0
LINE
  8
0
 10
13.7259
 20
0.891327
 11
13.9265
 21
1.00285
  0
LINE
  8
0
 10
13.9265
 20
1.00285
 11
14.0961
 21
1.15898
  0
LINE
  8
0
 10
14.0961
 20
1.15898
 11
14.2309
 21
1.35507
  0
LINE
  8
0
 10
14.2309
 20
1.35507
 11
14.3272
 21
1.58646
  0
LINE
  8
0
 10
14.3272
 20
1.58646
 11
14.385
 21
1.85316
  0
LINE
  8
0
 10
14.385
 20
1.85316
 11
14.4043
 21
2.1552
  0
LINE
  8
0
 10
14.4043
 20
2.1552
 11
14.3956
 21
2.3609
  0
LINE
  8
0
 10
14.3956
 20
2.3609
 11
14.3694
 21
2.55124
  0
LINE
  8
0
 10
14.3694
 20
2.55124
 11
14.3258
 21
2.72618
  0
LINE
  8
0
 10
14.3258
 20
2.72618
 11
14.2647
 21
2.88573
  0
LINE
  8
0
 10
14.2647
 20
2.88573
 11
14.1872
 21
3.02869
  0
LINE
  8
0
 10
14.1872
 20
3.02869
 11
14.0945
 21
3.15382
  0
LINE
  8
0
 10
14.0945
 20
3.15382
 11
13.9863
 21
3.26114
  0
LINE
  8
0
 10
13.9863
 20
3.26114
 11
13.8628
 21
3.35063
  0
LINE
  8
0
 10
13.8628
 20
3.35063
 11
13.725
 21
3.42114
  0
LINE
  8
0
 10
13.725
 20
3.42114
 11
13.5739
 21
3.47151
  0
LINE
  8
0
 10
13.5739
 20
3.47151
 11
13.4094
 21
3.50174
  0
LINE
  8
0
 10
13.4094
 20
3.50174
 11
13.2315
 21
3.51181
  0
LINE
  8
0
 10
13.2315
 20
3.51181
 11
12.9703
 21
3.48946
  0
LINE
  8
0
 10
12.9703
 20
3.48946
 11
12.7395
 21
3.42236
  0
LINE
  8
0
 10
12.7395
 20
3.42236
 11
12.539
 21
3.31056
  0
LINE
  8
0
 10
12.539
 20
3.31056
 11
12.3688
 21
3.15404
  0
LINE
  8
0
 10
12.3688
 20
3.15404
 11
12.2332
 21
2.95746
  0
LINE
  8
0
 10
12.2332
 20
2.95746
 11
12.1363
 21
2.72545
  0
LINE
  8
0
 10
12.1363
 20
2.72545
 11
12.0781
 21
2.45802
  0
LINE
  8
0
 10
12.0781
 20
2.45802
 11
12.0588
 21
2.1552
  0
LINE
  8
0
 10
12.0588
 20
2.1552
 11
12.0781
 21
1.85245
  0
LINE
  8
0
 10
12.0781
 20
1.85245
 11
12.1363
 21
1.58536
  0
LINE
  8
0
 10
12.1363
 20
1.58536
 11
12.2332
 21
1.3539
  0
LINE
  8
0
 10
12.2332
 20
1.3539
 11
12.3688
 21
1.1581
  0
LINE
  8
0
 10
12.3688
 20
1.1581
 11
12.539
 21
1.00235
  0
LINE
  8
0
 10
12.539
 20
1.00235
 11
12.7395
 21
0.891113
  0
LINE
  8
0
 10
12.7395
 20
0.891113
 11
12.9703
 21
0.824371
  0
LINE
  8
0
 10
12.9703
 20
0.824371
 11
13.2315
 21
0.802124
  0
LINE
  8
0
 10
13.2315
 20
0.802124
 11
13.4942
 21
0.824417
  0
LINE
  8
0
 10
13.1195
 20
1.32756
 11
13.0215
 21
1.36841
  0
LINE
  8
0
 10
13.0215
 20
1.36841
 11
12.9373
 21
1.43648
  0
LINE
  8
0
 10
12.9373
 20
1.43648
 11
12.8671
 21
1.53177
  0
LINE
  8
0
 10
12.8671
 20
1.53177
 11
12.8118
 21
1.65244
  0
LINE
  8
0
 10
12.8118
 20
1.65244
 11
12.7723
 21
1.79655
  0
LINE
  8
0
 10
12.7723
 20
1.79655
 11
12.7486
 21
1.96414
  0
LINE
  8
0
 10
12.7486
 20
1.96414
 11
12.7407
 21
2.1552
  0
LINE
  8
0
 10
12.7407
 20
2.1552
 11
12.7486
 21
2.34718
  0
LINE
  8
0
 10
12.7486
 20
2.34718
 11
12.7725
 21
2.51582
  0
LINE
  8
0
 10
12.7725
 20
2.51582
 11
12.8123
 21
2.6611
  0
LINE
  8
0
 10
12.8123
 20
2.6611
 11
12.8681
 21
2.78302
  0
LINE
  8
0
 10
12.8681
 20
2.78302
 11
12.9385
 21
2.87949
  0
LINE
  8
0
 10
12.9385
 20
2.87949
 11
13.0226
 21
2.94839
  0
LINE
  8
0
 10
13.0226
 20
2.94839
 11
13.1203
 21
2.98973
  0
LINE
  8
0
 10
13.1203
 20
2.98973
 11
13.2315
 21
3.00351
  0
LINE
  8
0
 10
13.2315
 20
3.00351
 11
13.3436
 21
2.98973
  0
LINE
  8
0
 10
13.3436
 20
2.98973
 11
13.4418
 21
2.94839
  0
LINE
  8
0
 10
13.4418
 20
2.94839
 11
13.5262
 21
2.87949
  0
LINE
  8
0
 10
13.5262
 20
2.87949
 11
13.5968
 21
2.78302
  0
LINE
  8
0
 10
13.5968
 20
2.78302
 11
13.6526
 21
2.6611
  0
LINE
  8
0
 10
13.6526
 20
2.6611
 11
13.6924
 21
2.51582
  0
LINE
  8
0
 10
13.6924
 20
2.51582
 11
13.7163
 21
2.34718
  0
LINE
  8
0
 10
13.7163
 20
2.34718
 11
13.7242
 21
2.1552
  0
LINE
  8
0
 10
13.7242
 20
2.1552
 11
13.7163
 21
1.96414
  0
LINE
  8
0
 10
13.7163
 20
1.96414
 11
13.6924
 21
1.79655
  0
LINE
  8
0
 10
13.6924
 20
1.79655
 11
13.6526
 21
1.65244
  0
LINE
  8
0
 10
13.6526
 20
1.65244
 11
13.5968
 21
1.53177
  0
LINE
  8
0
 10
13.5968
 20
1.53177
 11
13.5262
 21
1.43648
  0
LINE
  8
0
 10
13.5262
 20
1.43648
 11
13.4418
 21
1.36841
  0
LINE
  8
0
 10
13.4418
 20
1.36841
 11
13.3436
 21
1.32756
  0
LINE
  8
0
 10
13.3436
 20
1.32756
 11
13.2315
 21
1.31395
  0
LINE
  8
0
 10
13.2315
 20
1.31395
 11
13.1195
 21
1.32756
  0
LINE
  8
0
 10
23.6647
 20
0.815887
 11
23.7665
 21
0.835983
  0
LINE
  8
0
 10
23.7665
 20
0.835983
 11
23.8562
 21
0.869461
  0
LINE
  8
0
 10
23.8562
 20
0.869461
 11
23.9339
 21
0.916351
  0
LINE
  8
0
 10
23.9339
 20
0.916351
 11
24.0005
 21
0.971634
  0
LINE
  8
0
 10
24.0005
 20
0.971634
 11
24.0568
 21
1.03035
  0
LINE
  8
0
 10
24.0568
 20
1.03035
 11
24.103
 21
1.09251
  0
LINE
  8
0
 10
24.103
 20
1.09251
 11
24.139
 21
1.1581
  0
LINE
  8
0
 10
24.139
 20
1.1581
 11
24.1615
 21
1.1581
  0
LINE
  8
0
 10
24.1615
 20
1.1581
 11
24.1615
 21
0.837524
  0
LINE
  8
0
 10
24.1615
 20
0.837524
 11
24.806
 21
0.837524
  0
LINE
  8
0
 10
24.806
 20
0.837524
 11
24.806
 21
3.47638
  0
LINE
  8
0
 10
24.806
 20
3.47638
 11
24.154
 21
3.47638
  0
LINE
  8
0
 10
24.154
 20
3.47638
 11
24.154
 21
2.47749
  0
LINE
  8
0
 10
24.154
 20
2.47749
 11
24.139
 21
2.47749
  0
LINE
  8
0
 10
24.139
 20
2.47749
 11
24.1171
 21
2.5215
  0
LINE
  8
0
 10
24.1171
 20
2.5215
 11
24.0906
 21
2.56494
  0
LINE
  8
0
 10
24.0906
 20
2.56494
 11
24.0595
 21
2.60783
  0
LINE
  8
0
 10
24.0595
 20
2.60783
 11
24.0238
 21
2.65018
  0
LINE
  8
0
 10
24.0238
 20
2.65018
 11
23.9832
 21
2.69037
  0
LINE
  8
0
 10
23.9832
 20
2.69037
 11
23.9374
 21
2.72678
  0
LINE
  8
0
 10
23.9374
 20
2.72678
 11
23.8863
 21
2.75943
  0
LINE
  8
0
 10
23.8863
 20
2.75943
 11
23.8299
 21
2.78831
  0
LINE
  8
0
 10
23.8299
 20
2.78831
 11
23.7679
 21
2.81197
  0
LINE
  8
0
 10
23.7679
 20
2.81197
 11
23.6997
 21
2.82884
  0
LINE
  8
0
 10
23.6997
 20
2.82884
 11
23.6255
 21
2.83897
  0
LINE
  8
0
 10
23.6255
 20
2.83897
 11
23.5452
 21
2.84236
  0
LINE
  8
0
 10
23.5452
 20
2.84236
 11
23.4374
 21
2.83549
  0
LINE
  8
0
 10
23.4374
 20
2.83549
 11
23.3333
 21
2.8149
  0
LINE
  8
0
 10
23.3333
 20
2.8149
 11
23.2327
 21
2.78058
  0
LINE
  8
0
 10
23.2327
 20
2.78058
 11
23.1358
 21
2.73254
  0
LINE
  8
0
 10
23.1358
 20
2.73254
 11
23.0453
 21
2.67044
  0
LINE
  8
0
 10
23.0453
 20
2.67044
 11
22.9639
 21
2.59395
  0
LINE
  8
0
 10
22.9639
 20
2.59395
 11
22.8917
 21
2.50307
  0
LINE
  8
0
 10
22.8917
 20
2.50307
 11
22.8286
 21
2.3978
  0
LINE
  8
0
 10
22.8286
 20
2.3978
 11
22.7774
 21
2.27771
  0
LINE
  8
0
 10
22.7774
 20
2.27771
 11
22.7408
 21
2.14233
  0
LINE
  8
0
 10
22.7408
 20
2.14233
 11
22.7188
 21
1.9917
  0
LINE
  8
0
 10
22.7188
 20
1.9917
 11
22.7115
 21
1.82578
  0
LINE
  8
0
 10
22.7115
 20
1.82578
 11
22.7185
 21
1.66444
  0
LINE
  8
0
 10
22.7185
 20
1.66444
 11
22.7396
 21
1.51695
  0
LINE
  8
0
 10
22.7396
 20
1.51695
 11
22.7747
 21
1.38329
  0
LINE
  8
0
 10
22.7747
 20
1.38329
 11
22.8239
 21
1.26347
  0
LINE
  8
0
 10
22.8239
 20
1.26347
 11
22.885
 21
1.15753
  0
LINE
  8
0
 10
22.885
 20
1.15753
 11
22.956
 21
1.06555
  0
LINE
  8
0
 10
22.956
 20
1.06555
 11
23.0368
 21
0.987518
  0
LINE
  8
0
 10
23.0368
 20
0.987518
 11
23.1274
 21
0.923416
  0
LINE
  8
0
 10
23.1274
 20
0.923416
 11
23.2255
 21
0.873444
  0
LINE
  8
0
 10
23.2255
 20
0.873444
 11
23.3288
 21
0.837753
  0
LINE
  8
0
 10
23.3288
 20
0.837753
 11
23.4372
 21
0.81633
  0
LINE
  8
0
 10
23.4372
 20
0.81633
 11
23.5508
 21
0.809204
  0
LINE
  8
0
 10
23.5508
 20
0.809204
 11
23.6647
 21
0.815887
  0
LINE
  8
0
 10
23.6847
 20
1.30009
 11
23.6068
 21
1.32767
  0
LINE
  8
0
 10
23.6068
 20
1.32767
 11
23.5399
 21
1.3736
  0
LINE
  8
0
 10
23.5399
 20
1.3736
 11
23.4843
 21
1.43791
  0
LINE
  8
0
 10
23.4843
 20
1.43791
 11
23.4404
 21
1.51729
  0
LINE
  8
0
 10
23.4404
 20
1.51729
 11
23.4091
 21
1.60838
  0
LINE
  8
0
 10
23.4091
 20
1.60838
 11
23.3903
 21
1.71121
  0
LINE
  8
0
 10
23.3903
 20
1.71121
 11
23.3841
 21
1.82578
  0
LINE
  8
0
 10
23.3841
 20
1.82578
 11
23.3903
 21
1.94029
  0
LINE
  8
0
 10
23.3903
 20
1.94029
 11
23.4091
 21
2.04295
  0
LINE
  8
0
 10
23.4091
 20
2.04295
 11
23.4404
 21
2.13377
  0
LINE
  8
0
 10
23.4404
 20
2.13377
 11
23.4843
 21
2.21275
  0
LINE
  8
0
 10
23.4843
 20
2.21275
 11
23.5399
 21
2.27667
  0
LINE
  8
0
 10
23.5399
 20
2.27667
 11
23.6068
 21
2.32233
  0
LINE
  8
0
 10
23.6068
 20
2.32233
 11
23.6847
 21
2.34973
  0
LINE
  8
0
 10
23.6847
 20
2.34973
 11
23.7737
 21
2.35886
  0
LINE
  8
0
 10
23.7737
 20
2.35886
 11
23.8622
 21
2.3499
  0
LINE
  8
0
 10
23.8622
 20
2.3499
 11
23.9402
 21
2.323
  0
LINE
  8
0
 10
23.9402
 20
2.323
 11
24.0078
 21
2.27815
  0
LINE
  8
0
 10
24.0078
 20
2.27815
 11
24.065
 21
2.21539
  0
LINE
  8
0
 10
24.065
 20
2.21539
 11
24.1105
 21
2.13724
  0
LINE
  8
0
 10
24.1105
 20
2.13724
 11
24.143
 21
2.04626
  0
LINE
  8
0
 10
24.143
 20
2.04626
 11
24.1625
 21
1.94244
  0
LINE
  8
0
 10
24.1625
 20
1.94244
 11
24.169
 21
1.82578
  0
LINE
  8
0
 10
24.169
 20
1.82578
 11
24.1624
 21
1.71049
  0
LINE
  8
0
 10
24.1624
 20
1.71049
 11
24.1428
 21
1.60727
  0
LINE
  8
0
 10
24.1428
 20
1.60727
 11
24.11
 21
1.51611
  0
LINE
  8
0
 10
24.11
 20
1.51611
 11
24.0641
 21
1.43703
  0
LINE
  8
0
 10
24.0641
 20
1.43703
 11
24.0066
 21
1.37311
  0
LINE
  8
0
 10
24.0066
 20
1.37311
 11
23.9391
 21
1.32744
  0
LINE
  8
0
 10
23.9391
 20
1.32744
 11
23.8614
 21
1.30005
  0
LINE
  8
0
 10
23.8614
 20
1.30005
 11
23.7737
 21
1.29091
  0
LINE
  8
0
 10
23.7737
 20
1.29091
 11
23.6847
 21
1.30009
  0
LINE
  8
0
 10
16.8355
 20
3.47638
 11
16.1517
 21
3.47638
  0
LINE
  8
0
 10
16.1517
 20
3.47638
 11
15.5297
 21
3.07259
  0
LINE
  8
0
 10
15.5297
 20
3.07259
 11
15.5297
 21
2.52357
  0
LINE
  8
0
 10
15.5297
 20
2.52357
 11
16.1573
 21
2.93266
  0
LINE
  8
0
 10
16.1573
 20
2.93266
 11
16.1761
 21
2.93266
  0
LINE
  8
0
 10
16.1761
 20
2.93266
 11
16.1761
 21
0.837524
  0
LINE
  8
0
 10
16.1761
 20
0.837524
 11
16.8355
 21
0.837524
  0
LINE
  8
0
 10
16.8355
 20
0.837524
 11
16.8355
 21
3.47638
  0
LINE
  8
0
 10
6.59973
 20
0.800308
 11
6.67059
 21
0.801361
  0
LINE
  8
0
 10
6.67059
 20
0.801361
 11
6.74037
 21
0.803253
  0
LINE
  8
0
 10
6.74037
 20
0.803253
 11
6.80911
 21
0.806122
  0
LINE
  8
0
 10
6.80911
 20
0.806122
 11
6.87688
 21
0.810074
  0
LINE
  8
0
 10
6.87688
 20
0.810074
 11
6.94376
 21
0.815247
  0
LINE
  8
0
 10
6.94376
 20
0.815247
 11
7.00977
 21
0.821732
  0
LINE
  8
0
 10
7.00977
 20
0.821732
 11
7.075
 21
0.829681
  0
LINE
  8
0
 10
7.075
 20
0.829681
 11
7.13951
 21
0.839203
  0
LINE
  8
0
 10
7.13951
 20
0.839203
 11
7.20335
 21
0.850418
  0
LINE
  8
0
 10
7.20335
 20
0.850418
 11
7.26659
 21
0.863434
  0
LINE
  8
0
 10
7.26659
 20
0.863434
 11
7.32928
 21
0.878403
  0
LINE
  8
0
 10
7.32928
 20
0.878403
 11
7.39149
 21
0.895432
  0
LINE
  8
0
 10
7.39149
 20
0.895432
 11
7.45328
 21
0.914627
  0
LINE
  8
0
 10
7.45328
 20
0.914627
 11
7.51469
 21
0.936127
  0
LINE
  8
0
 10
7.51469
 20
0.936127
 11
7.57582
 21
0.960052
  0
LINE
  8
0
 10
7.57582
 20
0.960052
 11
7.63669
 21
0.986511
  0
LINE
  8
0
 10
7.63669
 20
0.986511
 11
7.69739
 21
1.01562
  0
LINE
  8
0
 10
7.69739
 20
1.01562
 11
7.75797
 21
1.04753
  0
LINE
  8
0
 10
7.75797
 20
1.04753
 11
7.81848
 21
1.08235
  0
LINE
  8
0
 10
7.81848
 20
1.08235
 11
4.51091
 21
2.97815
  0
LINE
  8
0
 10
4.51091
 20
2.97815
 11
1.52605
 21
1.12268
  0
LINE
  8
0
 10
1.52605
 20
1.12268
 11
1.56325
 21
1.09303
  0
LINE
  8
0
 10
1.56325
 20
1.09303
 11
1.60223
 21
1.06464
  0
LINE
  8
0
 10
1.60223
 20
1.06464
 11
1.64297
 21
1.03751
  0
LINE
  8
0
 10
1.64297
 20
1.03751
 11
1.68546
 21
1.01167
  0
LINE
  8
0
 10
1.68546
 20
1.01167
 11
1.72961
 21
0.987183
  0
LINE
  8
0
 10
1.72961
 20
0.987183
 11
1.77544
 21
0.964035
  0
LINE
  8
0
 10
1.77544
 20
0.964035
 11
1.82291
 21
0.942291
  0
LINE
  8
0
 10
1.82291
 20
0.942291
 11
1.87196
 21
0.921967
  0
LINE
  8
0
 10
1.87196
 20
0.921967
 11
1.92261
 21
0.903091
  0
LINE
  8
0
 10
1.92261
 20
0.903091
 11
1.97478
 21
0.885712
  0
LINE
  8
0
 10
1.97478
 20
0.885712
 11
2.02847
 21
0.869827
  0
LINE
  8
0
 10
2.02847
 20
0.869827
 11
2.08365
 21
0.855499
  0
LINE
  8
0
 10
2.08365
 20
0.855499
 11
2.14027
 21
0.842728
  0
LINE
  8
0
 10
2.14027
 20
0.842728
 11
2.19832
 21
0.831573
  0
LINE
  8
0
 10
2.19832
 20
0.831573
 11
2.25777
 21
0.822052
  0
LINE
  8
0
 10
2.25777
 20
0.822052
 11
2.31857
 21
0.814194
  0
LINE
  8
0
 10
2.31857
 20
0.814194
 11
2.38071
 21
0.808029
  0
LINE
  8
0
 10
2.38071
 20
0.808029
 11
2.44414
 21
0.803589
  0
LINE
  8
0
 10
2.44414
 20
0.803589
 11
2.50883
 21
0.800888
  0
LINE
  8
0
 10
2.50883
 20
0.800888
 11
2.57478
 21
0.799988
  0
LINE
  8
0
 10
2.57478
 20
0.799988
 11
6.52773
 21
0.799988
  0
LINE
  8
0
 10
6.52773
 20
0.799988
 11
6.59973
 21
0.800308
  0
LINE
  8
0
 10
27.4682
 20
0.821716
 11
27.6361
 21
0.880478
  0
LINE
  8
0
 10
27.6361
 20
0.880478
 11
27.7717
 21
0.978439
  0
LINE
  8
0
 10
27.7717
 20
0.978439
 11
27.8749
 21
1.11557
  0
LINE
  8
0
 10
27.8749
 20
1.11557
 11
27.8918
 21
1.11557
  0
LINE
  8
0
 10
27.8918
 20
1.11557
 11
27.8918
 21
0.837524
  0
LINE
  8
0
 10
27.8918
 20
0.837524
 11
28.5063
 21
0.837524
  0
LINE
  8
0
 10
28.5063
 20
0.837524
 11
28.5063
 21
2.18175
  0
LINE
  8
0
 10
28.5063
 20
2.18175
 11
28.4985
 21
2.28397
  0
LINE
  8
0
 10
28.4985
 20
2.28397
 11
28.4751
 21
2.37811
  0
LINE
  8
0
 10
28.4751
 20
2.37811
 11
28.4362
 21
2.46416
  0
LINE
  8
0
 10
28.4362
 20
2.46416
 11
28.3817
 21
2.54213
  0
LINE
  8
0
 10
28.3817
 20
2.54213
 11
28.314
 21
2.6116
  0
LINE
  8
0
 10
28.314
 20
2.6116
 11
28.2356
 21
2.67209
  0
LINE
  8
0
 10
28.2356
 20
2.67209
 11
28.1463
 21
2.72362
  0
LINE
  8
0
 10
28.1463
 20
2.72362
 11
28.0463
 21
2.76617
  0
LINE
  8
0
 10
28.0463
 20
2.76617
 11
27.9379
 21
2.7995
  0
LINE
  8
0
 10
27.9379
 20
2.7995
 11
27.8232
 21
2.8233
  0
LINE
  8
0
 10
27.8232
 20
2.8233
 11
27.7023
 21
2.8376
  0
LINE
  8
0
 10
27.7023
 20
2.8376
 11
27.5752
 21
2.84236
  0
LINE
  8
0
 10
27.5752
 20
2.84236
 11
27.388
 21
2.83244
  0
LINE
  8
0
 10
27.388
 20
2.83244
 11
27.2199
 21
2.80272
  0
LINE
  8
0
 10
27.2199
 20
2.80272
 11
27.071
 21
2.75319
  0
LINE
  8
0
 10
27.071
 20
2.75319
 11
26.941
 21
2.68384
  0
LINE
  8
0
 10
26.941
 20
2.68384
 11
26.8318
 21
2.59866
  0
LINE
  8
0
 10
26.8318
 20
2.59866
 11
26.745
 21
2.50165
  0
LINE
  8
0
 10
26.745
 20
2.50165
 11
26.6806
 21
2.39279
  0
LINE
  8
0
 10
26.6806
 20
2.39279
 11
26.6385
 21
2.27208
  0
LINE
  8
0
 10
26.6385
 20
2.27208
 11
27.2305
 21
2.19945
  0
LINE
  8
0
 10
27.2305
 20
2.19945
 11
27.2475
 21
2.24394
  0
LINE
  8
0
 10
27.2475
 20
2.24394
 11
27.2722
 21
2.28357
  0
LINE
  8
0
 10
27.2722
 20
2.28357
 11
27.3046
 21
2.31833
  0
LINE
  8
0
 10
27.3046
 20
2.31833
 11
27.3448
 21
2.34821
  0
LINE
  8
0
 10
27.3448
 20
2.34821
 11
27.3918
 21
2.37224
  0
LINE
  8
0
 10
27.3918
 20
2.37224
 11
27.445
 21
2.38939
  0
LINE
  8
0
 10
27.445
 20
2.38939
 11
27.5042
 21
2.39969
  0
LINE
  8
0
 10
27.5042
 20
2.39969
 11
27.5696
 21
2.40312
  0
LINE
  8
0
 10
27.5696
 20
2.40312
 11
27.6325
 21
2.39964
  0
LINE
  8
0
 10
27.6325
 20
2.39964
 11
27.6883
 21
2.38918
  0
LINE
  8
0
 10
27.6883
 20
2.38918
 11
27.7369
 21
2.37175
  0
LINE
  8
0
 10
27.7369
 20
2.37175
 11
27.7784
 21
2.34735
  0
LINE
  8
0
 10
27.7784
 20
2.34735
 11
27.8116
 21
2.31651
  0
LINE
  8
0
 10
27.8116
 20
2.31651
 11
27.8354
 21
2.27983
  0
LINE
  8
0
 10
27.8354
 20
2.27983
 11
27.8496
 21
2.23726
  0
LINE
  8
0
 10
27.8496
 20
2.23726
 11
27.8543
 21
2.18883
  0
LINE
  8
0
 10
27.8543
 20
2.18883
 11
27.8543
 21
2.18175
  0
LINE
  8
0
 10
27.8543
 20
2.18175
 11
27.8471
 21
2.13953
  0
LINE
  8
0
 10
27.8471
 20
2.13953
 11
27.8255
 21
2.10493
  0
LINE
  8
0
 10
27.8255
 20
2.10493
 11
27.7895
 21
2.07799
  0
LINE
  8
0
 10
27.7895
 20
2.07799
 11
27.7391
 21
2.05867
  0
LINE
  8
0
 10
27.7391
 20
2.05867
 11
27.6721
 21
2.04378
  0
LINE
  8
0
 10
27.6721
 20
2.04378
 11
27.5862
 21
2.03011
  0
LINE
  8
0
 10
27.5862
 20
2.03011
 11
27.4815
 21
2.01765
  0
LINE
  8
0
 10
27.4815
 20
2.01765
 11
27.3579
 21
2.00641
  0
LINE
  8
0
 10
27.3579
 20
2.00641
 11
27.2542
 21
1.9948
  0
LINE
  8
0
 10
27.2542
 20
1.9948
 11
27.1549
 21
1.97763
  0
LINE
  8
0
 10
27.1549
 20
1.97763
 11
27.0598
 21
1.95494
  0
LINE
  8
0
 10
27.0598
 20
1.95494
 11
26.9691
 21
1.92671
  0
LINE
  8
0
 10
26.9691
 20
1.92671
 11
26.885
 21
1.89153
  0
LINE
  8
0
 10
26.885
 20
1.89153
 11
26.8097
 21
1.84792
  0
LINE
  8
0
 10
26.8097
 20
1.84792
 11
26.7431
 21
1.79588
  0
LINE
  8
0
 10
26.7431
 20
1.79588
 11
26.6853
 21
1.73544
  0
LINE
  8
0
 10
26.6853
 20
1.73544
 11
26.6386
 21
1.66516
  0
LINE
  8
0
 10
26.6386
 20
1.66516
 11
26.6052
 21
1.58359
  0
LINE
  8
0
 10
26.6052
 20
1.58359
 11
26.5852
 21
1.49071
  0
LINE
  8
0
 10
26.5852
 20
1.49071
 11
26.5785
 21
1.38655
  0
LINE
  8
0
 10
26.5785
 20
1.38655
 11
26.5907
 21
1.24886
  0
LINE
  8
0
 10
26.5907
 20
1.24886
 11
26.627
 21
1.12976
  0
LINE
  8
0
 10
26.627
 20
1.12976
 11
26.6876
 21
1.02925
  0
LINE
  8
0
 10
26.6876
 20
1.02925
 11
26.7724
 21
0.947342
  0
LINE
  8
0
 10
26.7724
 20
0.947342
 11
26.8761
 21
0.883804
  0
LINE
  8
0
 10
26.8761
 20
0.883804
 11
26.9933
 21
0.838425
  0
LINE
  8
0
 10
26.9933
 20
0.838425
 11
27.1239
 21
0.811188
  0
LINE
  8
0
 10
27.1239
 20
0.811188
 11
27.268
 21
0.802124
  0
LINE
  8
0
 10
27.268
 20
0.802124
 11
27.4682
 21
0.821716
  0
LINE
  8
0
 10
27.4102
 20
1.21448
 11
27.3591
 21
1.22427
  0
LINE
  8
0
 10
27.3591
 20
1.22427
 11
27.3132
 21
1.2406
  0
LINE
  8
0
 10
27.3132
 20
1.2406
 11
27.2726
 21
1.26347
  0
LINE
  8
0
 10
27.2726
 20
1.26347
 11
27.2395
 21
1.29253
  0
LINE
  8
0
 10
27.2395
 20
1.29253
 11
27.2157
 21
1.32745
  0
LINE
  8
0
 10
27.2157
 20
1.32745
 11
27.2015
 21
1.36824
  0
LINE
  8
0
 10
27.2015
 20
1.36824
 11
27.1968
 21
1.41489
  0
LINE
  8
0
 10
27.1968
 20
1.41489
 11
27.2156
 21
1.502
  0
LINE
  8
0
 10
27.2156
 20
1.502
 11
27.2722
 21
1.5703
  0
LINE
  8
0
 10
27.2722
 20
1.5703
 11
27.3664
 21
1.61977
  0
LINE
  8
0
 10
27.3664
 20
1.61977
 11
27.4984
 21
1.65044
  0
LINE
  8
0
 10
27.4984
 20
1.65044
 11
27.5452
 21
1.65785
  0
LINE
  8
0
 10
27.5452
 20
1.65785
 11
27.5939
 21
1.66592
  0
LINE
  8
0
 10
27.5939
 20
1.66592
 11
27.6445
 21
1.67467
  0
LINE
  8
0
 10
27.6445
 20
1.67467
 11
27.6969
 21
1.68408
  0
LINE
  8
0
 10
27.6969
 20
1.68408
 11
27.7472
 21
1.69437
  0
LINE
  8
0
 10
27.7472
 20
1.69437
 11
27.7911
 21
1.70578
  0
LINE
  8
0
 10
27.7911
 20
1.70578
 11
27.8287
 21
1.71829
  0
LINE
  8
0
 10
27.8287
 20
1.71829
 11
27.86
 21
1.73192
  0
LINE
  8
0
 10
27.86
 20
1.73192
 11
27.86
 21
1.5424
  0
LINE
  8
0
 10
27.86
 20
1.5424
 11
27.8528
 21
1.47234
  0
LINE
  8
0
 10
27.8528
 20
1.47234
 11
27.8314
 21
1.40912
  0
LINE
  8
0
 10
27.8314
 20
1.40912
 11
27.7957
 21
1.35278
  0
LINE
  8
0
 10
27.7957
 20
1.35278
 11
27.7457
 21
1.3033
  0
LINE
  8
0
 10
27.7457
 20
1.3033
 11
27.6854
 21
1.263
  0
LINE
  8
0
 10
27.6854
 20
1.263
 11
27.6188
 21
1.23424
  0
LINE
  8
0
 10
27.6188
 20
1.23424
 11
27.5458
 21
1.21696
  0
LINE
  8
0
 10
27.5458
 20
1.21696
 11
27.4665
 21
1.21121
  0
LINE
  8
0
 10
27.4665
 20
1.21121
 11
27.4102
 21
1.21448
  0
LINE
  8
0
 10
25.8352
 20
1.91786
 11
25.8426
 21
2.00221
  0
LINE
  8
0
 10
25.8426
 20
2.00221
 11
25.8649
 21
2.07814
  0
LINE
  8
0
 10
25.8649
 20
2.07814
 11
25.9021
 21
2.14566
  0
LINE
  8
0
 10
25.9021
 20
2.14566
 11
25.9542
 21
2.20476
  0
LINE
  8
0
 10
25.9542
 20
2.20476
 11
26.0176
 21
2.25279
  0
LINE
  8
0
 10
26.0176
 20
2.25279
 11
26.0888
 21
2.28711
  0
LINE
  8
0
 10
26.0888
 20
2.28711
 11
26.1679
 21
2.30771
  0
LINE
  8
0
 10
26.1679
 20
2.30771
 11
26.2549
 21
2.31458
  0
LINE
  8
0
 10
26.2549
 20
2.31458
 11
26.2858
 21
2.31407
  0
LINE
  8
0
 10
26.2858
 20
2.31407
 11
26.3188
 21
2.31258
  0
LINE
  8
0
 10
26.3188
 20
2.31258
 11
26.3537
 21
2.31009
  0
LINE
  8
0
 10
26.3537
 20
2.31009
 11
26.3907
 21
2.30661
  0
LINE
  8
0
 10
26.3907
 20
2.30661
 11
26.4268
 21
2.30212
  0
LINE
  8
0
 10
26.4268
 20
2.30212
 11
26.4593
 21
2.29665
  0
LINE
  8
0
 10
26.4593
 20
2.29665
 11
26.4881
 21
2.29018
  0
LINE
  8
0
 10
26.4881
 20
2.29018
 11
26.5134
 21
2.28271
  0
LINE
  8
0
 10
26.5134
 20
2.28271
 11
26.5134
 21
2.82109
  0
LINE
  8
0
 10
26.5134
 20
2.82109
 11
26.4681
 21
2.8304
  0
LINE
  8
0
 10
26.4681
 20
2.8304
 11
26.4221
 21
2.83704
  0
LINE
  8
0
 10
26.4221
 20
2.83704
 11
26.3754
 21
2.84102
  0
LINE
  8
0
 10
26.3754
 20
2.84102
 11
26.3279
 21
2.84236
  0
LINE
  8
0
 10
26.3279
 20
2.84236
 11
26.2444
 21
2.83638
  0
LINE
  8
0
 10
26.2444
 20
2.83638
 11
26.1661
 21
2.81845
  0
LINE
  8
0
 10
26.1661
 20
2.81845
 11
26.0931
 21
2.78856
  0
LINE
  8
0
 10
26.0931
 20
2.78856
 11
26.0253
 21
2.74672
  0
LINE
  8
0
 10
26.0253
 20
2.74672
 11
25.9649
 21
2.6927
  0
LINE
  8
0
 10
25.9649
 20
2.6927
 11
25.9137
 21
2.6263
  0
LINE
  8
0
 10
25.9137
 20
2.6263
 11
25.8717
 21
2.54749
  0
LINE
  8
0
 10
25.8717
 20
2.54749
 11
25.839
 21
2.45627
  0
LINE
  8
0
 10
25.839
 20
2.45627
 11
25.8165
 21
2.45627
  0
LINE
  8
0
 10
25.8165
 20
2.45627
 11
25.8165
 21
2.81755
  0
LINE
  8
0
 10
25.8165
 20
2.81755
 11
25.1814
 21
2.81755
  0
LINE
  8
0
 10
25.1814
 20
2.81755
 11
25.1814
 21
0.837524
  0
LINE
  8
0
 10
25.1814
 20
0.837524
 11
25.8352
 21
0.837524
  0
LINE
  8
0
 10
25.8352
 20
0.837524
 11
25.8352
 21
1.91786
  0
LINE
  8
0
 10
11.9193
 20
2.81755
 11
11.2374
 21
2.81755
  0
LINE
  8
0
 10
11.2374
 20
2.81755
 11
10.9301
 21
1.84879
  0
LINE
  8
0
 10
10.9301
 20
1.84879
 11
10.9091
 21
1.78143
  0
LINE
  8
0
 10
10.9091
 20
1.78143
 11
10.8894
 21
1.71396
  0
LINE
  8
0
 10
10.8894
 20
1.71396
 11
10.8707
 21
1.64639
  0
LINE
  8
0
 10
10.8707
 20
1.64639
 11
10.8533
 21
1.5787
  0
LINE
  8
0
 10
10.8533
 20
1.5787
 11
10.8367
 21
1.51047
  0
LINE
  8
0
 10
10.8367
 20
1.51047
 11
10.8205
 21
1.44122
  0
LINE
  8
0
 10
10.8205
 20
1.44122
 11
10.8048
 21
1.371
  0
LINE
  8
0
 10
10.8048
 20
1.371
 11
10.7896
 21
1.29976
  0
LINE
  8
0
 10
10.7896
 20
1.29976
 11
10.7727
 21
1.37105
  0
LINE
  8
0
 10
10.7727
 20
1.37105
 11
10.7556
 21
1.44145
  0
LINE
  8
0
 10
10.7556
 20
1.44145
 11
10.7385
 21
1.51096
  0
LINE
  8
0
 10
10.7385
 20
1.51096
 11
10.7212
 21
1.57959
  0
LINE
  8
0
 10
10.7212
 20
1.57959
 11
10.7034
 21
1.64755
  0
LINE
  8
0
 10
10.7034
 20
1.64755
 11
10.6844
 21
1.71507
  0
LINE
  8
0
 10
10.6844
 20
1.71507
 11
10.6645
 21
1.78215
  0
LINE
  8
0
 10
10.6645
 20
1.78215
 11
10.6435
 21
1.84879
  0
LINE
  8
0
 10
10.6435
 20
1.84879
 11
10.3306
 21
2.81755
  0
LINE
  8
0
 10
10.3306
 20
2.81755
 11
9.6412
 21
2.81755
  0
LINE
  8
0
 10
9.6412
 20
2.81755
 11
10.3999
 21
0.837524
  0
LINE
  8
0
 10
10.3999
 20
0.837524
 11
11.1568
 21
0.837524
  0
LINE
  8
0
 10
11.1568
 20
0.837524
 11
11.9193
 21
2.81755
  0
LINE
  8
0
 10
22.3586
 20
2.14456
 11
21.0716
 21
2.14456
  0
LINE
  8
0
 10
21.0716
 20
2.14456
 11
21.0716
 21
1.66815
  0
LINE
  8
0
 10
21.0716
 20
1.66815
 11
22.3586
 21
1.66815
  0
LINE
  8
0
 10
22.3586
 20
1.66815
 11
22.3586
 21
2.14456
  0
LINE
  8
0
 10
17.7614
 20
0.806259
 11
17.8273
 21
0.824036
  0
LINE
  8
0
 10
17.8273
 20
0.824036
 11
17.8873
 21
0.853638
  0
LINE
  8
0
 10
17.8873
 20
0.853638
 11
17.9414
 21
0.895081
  0
LINE
  8
0
 10
17.9414
 20
0.895081
 11
17.986
 21
0.945282
  0
LINE
  8
0
 10
17.986
 20
0.945282
 11
18.0179
 21
1.00113
  0
LINE
  8
0
 10
18.0179
 20
1.00113
 11
18.0371
 21
1.06262
  0
LINE
  8
0
 10
18.0371
 20
1.06262
 11
18.0435
 21
1.12976
  0
LINE
  8
0
 10
18.0435
 20
1.12976
 11
18.0371
 21
1.19766
  0
LINE
  8
0
 10
18.0371
 20
1.19766
 11
18.0179
 21
1.2597
  0
LINE
  8
0
 10
18.0179
 20
1.2597
 11
17.986
 21
1.31587
  0
LINE
  8
0
 10
17.986
 20
1.31587
 11
17.9414
 21
1.36618
  0
LINE
  8
0
 10
17.9414
 20
1.36618
 11
17.8873
 21
1.40764
  0
LINE
  8
0
 10
17.8873
 20
1.40764
 11
17.8273
 21
1.43726
  0
LINE
  8
0
 10
17.8273
 20
1.43726
 11
17.7614
 21
1.45502
  0
LINE
  8
0
 10
17.7614
 20
1.45502
 11
17.6894
 21
1.46095
  0
LINE
  8
0
 10
17.6894
 20
1.46095
 11
17.6175
 21
1.45502
  0
LINE
  8
0
 10
17.6175
 20
1.45502
 11
17.5515
 21
1.43726
  0
LINE
  8
0
 10
17.5515
 20
1.43726
 11
17.4915
 21
1.40764
  0
LINE
  8
0
 10
17.4915
 20
1.40764
 11
17.4374
 21
1.36618
  0
LINE
  8
0
 10
17.4374
 20
1.36618
 11
17.3928
 21
1.31587
  0
LINE
  8
0
 10
17.3928
 20
1.31587
 11
17.3609
 21
1.2597
  0
LINE
  8
0
 10
17.3609
 20
1.2597
 11
17.3417
 21
1.19766
  0
LINE
  8
0
 10
17.3417
 20
1.19766
 11
17.3353
 21
1.12976
  0
LINE
  8
0
 10
17.3353
 20
1.12976
 11
17.3417
 21
1.06262
  0
LINE
  8
0
 10
17.3417
 20
1.06262
 11
17.3609
 21
1.00113
  0
LINE
  8
0
 10
17.3609
 20
1.00113
 11
17.3928
 21
0.945282
  0
LINE
  8
0
 10
17.3928
 20
0.945282
 11
17.4374
 21
0.895081
  0
LINE
  8
0
 10
17.4374
 20
0.895081
 11
17.4915
 21
0.853638
  0
LINE
  8
0
 10
17.4915
 20
0.853638
 11
17.5515
 21
0.824036
  0
LINE
  8
0
 10
17.5515
 20
0.824036
 11
17.6175
 21
0.806259
  0
LINE
  8
0
 10
17.6175
 20
0.806259
 11
17.6894
 21
0.800339
  0
LINE
  8
0
 10
17.6894
 20
0.800339
 11
17.7614
 21
0.806259
  0
LINE
  8
0
 10
32.229
 20
0.806259
 11
32.295
 21
0.824036
  0
LINE
  8
0
 10
32.295
 20
0.824036
 11
32.355
 21
0.853638
  0
LINE
  8
0
 10
32.355
 20
0.853638
 11
32.4091
 21
0.895081
  0
LINE
  8
0
 10
32.4091
 20
0.895081
 11
32.4537
 21
0.945282
  0
LINE
  8
0
 10
32.4537
 20
0.945282
 11
32.4856
 21
1.00113
  0
LINE
  8
0
 10
32.4856
 20
1.00113
 11
32.5048
 21
1.06262
  0
LINE
  8
0
 10
32.5048
 20
1.06262
 11
32.5112
 21
1.12976
  0
LINE
  8
0
 10
32.5112
 20
1.12976
 11
32.5048
 21
1.19766
  0
LINE
  8
0
 10
32.5048
 20
1.19766
 11
32.4856
 21
1.2597
  0
LINE
  8
0
 10
32.4856
 20
1.2597
 11
32.4537
 21
1.31587
  0
LINE
  8
0
 10
32.4537
 20
1.31587
 11
32.4091
 21
1.36618
  0
LINE
  8
0
 10
32.4091
 20
1.36618
 11
32.355
 21
1.40764
  0
LINE
  8
0
 10
32.355
 20
1.40764
 11
32.295
 21
1.43726
  0
LINE
  8
0
 10
32.295
 20
1.43726
 11
32.229
 21
1.45502
  0
LINE
  8
0
 10
32.229
 20
1.45502
 11
32.1571
 21
1.46095
  0
LINE
  8
0
 10
32.1571
 20
1.46095
 11
32.0851
 21
1.45502
  0
LINE
  8
0
 10
32.0851
 20
1.45502
 11
32.0192
 21
1.43726
  0
LINE
  8
0
 10
32.0192
 20
1.43726
 11
31.9592
 21
1.40764
  0
LINE
  8
0
 10
31.9592
 20
1.40764
 11
31.9051
 21
1.36618
  0
LINE
  8
0
 10
31.9051
 20
1.36618
 11
31.8605
 21
1.31587
  0
LINE
  8
0
 10
31.8605
 20
1.31587
 11
31.8286
 21
1.2597
  0
LINE
  8
0
 10
31.8286
 20
1.2597
 11
31.8094
 21
1.19766
  0
LINE
  8
0
 10
31.8094
 20
1.19766
 11
31.803
 21
1.12976
  0
LINE
  8
0
 10
31.803
 20
1.12976
 11
31.8094
 21
1.06262
  0
LINE
  8
0
 10
31.8094
 20
1.06262
 11
31.8286
 21
1.00113
  0
LINE
  8
0
 10
31.8286
 20
1.00113
 11
31.8605
 21
0.945282
  0
LINE
  8
0
 10
31.8605
 20
0.945282
 11
31.9051
 21
0.895081
  0
LINE
  8
0
 10
31.9051
 20
0.895081
 11
31.9592
 21
0.853638
  0
LINE
  8
0
 10
31.9592
 20
0.853638
 11
32.0192
 21
0.824036
  0
LINE
  8
0
 10
32.0192
 20
0.824036
 11
32.0851
 21
0.806259
  0
LINE
  8
0
 10
32.0851
 20
0.806259
 11
32.1571
 21
0.800339
  0
LINE
  8
0
 10
32.1571
 20
0.800339
 11
32.229
 21
0.806259
  0
LINE
  8
0
 10
15.1306
 20
0.806259
 11
15.1965
 21
0.824036
  0
LINE
  8
0
 10
15.1965
 20
0.824036
 11
15.2565
 21
0.853638
  0
LINE
  8
0
 10
15.2565
 20
0.853638
 11
15.3106
 21
0.895081
  0
LINE
  8
0
 10
15.3106
 20
0.895081
 11
15.3552
 21
0.945282
  0
LINE
  8
0
 10
15.3552
 20
0.945282
 11
15.3871
 21
1.00113
  0
LINE
  8
0
 10
15.3871
 20
1.00113
 11
15.4063
 21
1.06262
  0
LINE
  8
0
 10
15.4063
 20
1.06262
 11
15.4127
 21
1.12976
  0
LINE
  8
0
 10
15.4127
 20
1.12976
 11
15.4063
 21
1.19766
  0
LINE
  8
0
 10
15.4063
 20
1.19766
 11
15.3871
 21
1.2597
  0
LINE
  8
0
 10
15.3871
 20
1.2597
 11
15.3552
 21
1.31587
  0
LINE
  8
0
 10
15.3552
 20
1.31587
 11
15.3106
 21
1.36618
  0
LINE
  8
0
 10
15.3106
 20
1.36618
 11
15.2565
 21
1.40764
  0
LINE
  8
0
 10
15.2565
 20
1.40764
 11
15.1965
 21
1.43726
  0
LINE
  8
0
 10
15.1965
 20
1.43726
 11
15.1306
 21
1.45502
  0
LINE
  8
0
 10
15.1306
 20
1.45502
 11
15.0586
 21
1.46095
  0
LINE
  8
0
 10
15.0586
 20
1.46095
 11
14.9867
 21
1.45502
  0
LINE
  8
0
 10
14.9867
 20
1.45502
 11
14.9207
 21
1.43726
  0
LINE
  8
0
 10
14.9207
 20
1.43726
 11
14.8607
 21
1.40764
  0
LINE
  8
0
 10
14.8607
 20
1.40764
 11
14.8067
 21
1.36618
  0
LINE
  8
0
 10
14.8067
 20
1.36618
 11
14.762
 21
1.31587
  0
LINE
  8
0
 10
14.762
 20
1.31587
 11
14.7301
 21
1.2597
  0
LINE
  8
0
 10
14.7301
 20
1.2597
 11
14.7109
 21
1.19766
  0
LINE
  8
0
 10
14.7109
 20
1.19766
 11
14.7045
 21
1.12976
  0
LINE
  8
0
 10
14.7045
 20
1.12976
 11
14.7109
 21
1.06262
  0
LINE
  8
0
 10
14.7109
 20
1.06262
 11
14.7301
 21
1.00113
  0
LINE
  8
0
 10
14.7301
 20
1.00113
 11
14.762
 21
0.945282
  0
LINE
  8
0
 10
14.762
 20
0.945282
 11
14.8067
 21
0.895081
  0
LINE
  8
0
 10
14.8067
 20
0.895081
 11
14.8607
 21
0.853638
  0
LINE
  8
0
 10
14.8607
 20
0.853638
 11
14.9207
 21
0.824036
  0
LINE
  8
0
 10
14.9207
 20
0.824036
 11
14.9867
 21
0.806259
  0
LINE
  8
0
 10
14.9867
 20
0.806259
 11
15.0586
 21
0.800339
  0
LINE
  8
0
 10
15.0586
 20
0.800339
 11
15.1306
 21
0.806259
  0
ENDSEC
  0
SECTION
  2
OBJECTS
  0
DICTIONARY
  0
ENDSEC
  0
EOF
