solid OpenSCAD_Model
  facet normal 0.980776 -0 0.195136
    outer loop
      vertex 35.5342 17 11.4988
      vertex 35.7333 27 10.4981
      vertex 35.5342 27 11.4988
    endloop
  endfacet
  facet normal 0.980776 0 0.195136
    outer loop
      vertex 35.7333 27 10.4981
      vertex 35.5342 17 11.4988
      vertex 35.7333 17 10.4981
    endloop
  endfacet
  facet normal 0.997861 -0 0.065374
    outer loop
      vertex 35.7333 17 10.4981
      vertex 35.8 27 9.48
      vertex 35.7333 27 10.4981
    endloop
  endfacet
  facet normal 0.997861 0 0.065374
    outer loop
      vertex 35.8 27 9.48
      vertex 35.7333 17 10.4981
      vertex 35.8 17 9.48
    endloop
  endfacet
  facet normal 0.896858 0 -0.442318
    outer loop
      vertex 35.2063 17 6.49507
      vertex 34.755 27 5.58
      vertex 35.2063 27 6.49507
    endloop
  endfacet
  facet normal 0.896858 0 -0.442318
    outer loop
      vertex 34.755 27 5.58
      vertex 35.2063 17 6.49507
      vertex 34.755 17 5.58
    endloop
  endfacet
  facet normal 0.321364 0 0.946956
    outer loop
      vertex 30.25 27 16.9357
      vertex 30.9849 17 16.6863
      vertex 30.9849 27 16.6863
    endloop
  endfacet
  facet normal 0.321364 0 0.946956
    outer loop
      vertex 30.9849 17 16.6863
      vertex 30.25 27 16.9357
      vertex 30.25 17 16.9357
    endloop
  endfacet
  facet normal 0.980776 0 -0.195138
    outer loop
      vertex 35.7333 17 8.4619
      vertex 35.5342 27 7.46121
      vertex 35.7333 27 8.4619
    endloop
  endfacet
  facet normal 0.980776 0 -0.195138
    outer loop
      vertex 35.5342 27 7.46121
      vertex 35.7333 17 8.4619
      vertex 35.5342 17 7.46121
    endloop
  endfacet
  facet normal -0.896858 0 -0.442318
    outer loop
      vertex 21.245 17 5.58
      vertex 20.7937 27 6.49507
      vertex 21.245 27 5.58
    endloop
  endfacet
  facet normal -0.896858 -0 -0.442318
    outer loop
      vertex 20.7937 27 6.49507
      vertex 21.245 17 5.58
      vertex 20.7937 17 6.49507
    endloop
  endfacet
  facet normal 0.946948 0 -0.321386
    outer loop
      vertex 35.5342 17 7.46121
      vertex 35.2063 27 6.49507
      vertex 35.5342 27 7.46121
    endloop
  endfacet
  facet normal 0.946948 0 -0.321386
    outer loop
      vertex 35.2063 27 6.49507
      vertex 35.5342 17 7.46121
      vertex 35.2063 17 6.49507
    endloop
  endfacet
  facet normal 0.555559 0 0.831477
    outer loop
      vertex 31.9 27 16.235
      vertex 32.7483 17 15.6682
      vertex 32.7483 27 15.6682
    endloop
  endfacet
  facet normal 0.555559 0 0.831477
    outer loop
      vertex 32.7483 17 15.6682
      vertex 31.9 27 16.235
      vertex 31.9 17 16.235
    endloop
  endfacet
  facet normal 0.946944 -0 0.321398
    outer loop
      vertex 35.2063 17 12.4649
      vertex 35.5342 27 11.4988
      vertex 35.2063 27 12.4649
    endloop
  endfacet
  facet normal 0.946944 0 0.321398
    outer loop
      vertex 35.5342 27 11.4988
      vertex 35.2063 17 12.4649
      vertex 35.5342 17 11.4988
    endloop
  endfacet
  facet normal -0.831489 0 -0.555541
    outer loop
      vertex 21.8118 17 4.73166
      vertex 21.245 27 5.58
      vertex 21.8118 27 4.73166
    endloop
  endfacet
  facet normal -0.831489 -0 -0.555541
    outer loop
      vertex 21.245 27 5.58
      vertex 21.8118 17 4.73166
      vertex 21.245 17 5.58
    endloop
  endfacet
  facet normal -0.321364 0 0.946956
    outer loop
      vertex 25.0151 27 16.6863
      vertex 25.75 17 16.9357
      vertex 25.75 27 16.9357
    endloop
  endfacet
  facet normal -0.321364 0 0.946956
    outer loop
      vertex 25.75 17 16.9357
      vertex 25.0151 27 16.6863
      vertex 25.0151 17 16.6863
    endloop
  endfacet
  facet normal 0.896864 -0 0.442307
    outer loop
      vertex 34.755 17 13.38
      vertex 35.2063 27 12.4649
      vertex 34.755 27 13.38
    endloop
  endfacet
  facet normal 0.896864 0 0.442307
    outer loop
      vertex 35.2063 27 12.4649
      vertex 34.755 17 13.38
      vertex 35.2063 17 12.4649
    endloop
  endfacet
  facet normal 0.831489 0 -0.555541
    outer loop
      vertex 34.755 17 5.58
      vertex 34.1882 27 4.73166
      vertex 34.755 27 5.58
    endloop
  endfacet
  facet normal 0.831489 0 -0.555541
    outer loop
      vertex 34.1882 27 4.73166
      vertex 34.755 17 5.58
      vertex 34.1882 17 4.73166
    endloop
  endfacet
  facet normal -0.442307 0 0.896864
    outer loop
      vertex 24.1 27 16.235
      vertex 25.0151 17 16.6863
      vertex 25.0151 27 16.6863
    endloop
  endfacet
  facet normal -0.442307 0 0.896864
    outer loop
      vertex 25.0151 17 16.6863
      vertex 24.1 27 16.235
      vertex 24.1 17 16.235
    endloop
  endfacet
  facet normal 0.659385 0 0.751805
    outer loop
      vertex 32.7483 27 15.6682
      vertex 33.5154 17 14.9954
      vertex 33.5154 27 14.9954
    endloop
  endfacet
  facet normal 0.659385 0 0.751805
    outer loop
      vertex 33.5154 17 14.9954
      vertex 32.7483 27 15.6682
      vertex 32.7483 17 15.6682
    endloop
  endfacet
  facet normal -0.555559 0 0.831477
    outer loop
      vertex 23.2517 27 15.6682
      vertex 24.1 17 16.235
      vertex 24.1 27 16.235
    endloop
  endfacet
  facet normal -0.555559 0 0.831477
    outer loop
      vertex 24.1 17 16.235
      vertex 23.2517 27 15.6682
      vertex 23.2517 17 15.6682
    endloop
  endfacet
  facet normal -0.980776 0 0.195136
    outer loop
      vertex 20.2667 17 10.4981
      vertex 20.4658 27 11.4988
      vertex 20.2667 27 10.4981
    endloop
  endfacet
  facet normal -0.980776 0 0.195136
    outer loop
      vertex 20.4658 27 11.4988
      vertex 20.2667 17 10.4981
      vertex 20.4658 17 11.4988
    endloop
  endfacet
  facet normal 0.751805 -0 0.659385
    outer loop
      vertex 33.5154 17 14.9954
      vertex 34.1882 27 14.2283
      vertex 33.5154 27 14.9954
    endloop
  endfacet
  facet normal 0.751805 0 0.659385
    outer loop
      vertex 34.1882 27 14.2283
      vertex 33.5154 17 14.9954
      vertex 34.1882 17 14.2283
    endloop
  endfacet
  facet normal -0.751789 0 -0.659404
    outer loop
      vertex 22.12 17 4.38028
      vertex 21.8118 27 4.73166
      vertex 22.12 27 4.38028
    endloop
  endfacet
  facet normal -0.751789 -0 -0.659404
    outer loop
      vertex 21.8118 27 4.73166
      vertex 22.12 17 4.38028
      vertex 21.8118 17 4.73166
    endloop
  endfacet
  facet normal 0.831477 -0 0.555559
    outer loop
      vertex 34.1882 17 14.2283
      vertex 34.755 27 13.38
      vertex 34.1882 27 14.2283
    endloop
  endfacet
  facet normal 0.831477 0 0.555559
    outer loop
      vertex 34.755 27 13.38
      vertex 34.1882 17 14.2283
      vertex 34.755 17 13.38
    endloop
  endfacet
  facet normal -0.896864 0 0.442307
    outer loop
      vertex 20.7937 17 12.4649
      vertex 21.245 27 13.38
      vertex 20.7937 27 12.4649
    endloop
  endfacet
  facet normal -0.896864 0 0.442307
    outer loop
      vertex 21.245 27 13.38
      vertex 20.7937 17 12.4649
      vertex 21.245 17 13.38
    endloop
  endfacet
  facet normal -0.997861 0 -0.065374
    outer loop
      vertex 20.2667 17 8.4619
      vertex 20.2 27 9.48
      vertex 20.2667 27 8.4619
    endloop
  endfacet
  facet normal -0.997861 -0 -0.065374
    outer loop
      vertex 20.2 27 9.48
      vertex 20.2667 17 8.4619
      vertex 20.2 17 9.48
    endloop
  endfacet
  facet normal 0.997861 0 -0.065374
    outer loop
      vertex 35.8 17 9.48
      vertex 35.7333 27 8.4619
      vertex 35.8 27 9.48
    endloop
  endfacet
  facet normal 0.997861 0 -0.065374
    outer loop
      vertex 35.7333 27 8.4619
      vertex 35.8 17 9.48
      vertex 35.7333 17 8.4619
    endloop
  endfacet
  facet normal 0.442307 0 0.896864
    outer loop
      vertex 30.9849 27 16.6863
      vertex 31.9 17 16.235
      vertex 31.9 27 16.235
    endloop
  endfacet
  facet normal 0.442307 0 0.896864
    outer loop
      vertex 31.9 17 16.235
      vertex 30.9849 27 16.6863
      vertex 30.9849 17 16.6863
    endloop
  endfacet
  facet normal -0.997861 0 0.065374
    outer loop
      vertex 20.2 17 9.48
      vertex 20.2667 27 10.4981
      vertex 20.2 27 9.48
    endloop
  endfacet
  facet normal -0.997861 0 0.065374
    outer loop
      vertex 20.2667 27 10.4981
      vertex 20.2 17 9.48
      vertex 20.2667 17 10.4981
    endloop
  endfacet
  facet normal 0 -1 0
    outer loop
      vertex 25.75 17 14.3785
      vertex 25.0151 17 16.6863
      vertex 24.1 17 16.235
    endloop
  endfacet
  facet normal 0 -1 0
    outer loop
      vertex 25.3 17 14.1565
      vertex 24.1 17 16.235
      vertex 23.2517 17 15.6682
    endloop
  endfacet
  facet normal 0 -1 0
    outer loop
      vertex 24.7127 17 13.7641
      vertex 23.2517 17 15.6682
      vertex 22.4846 17 14.9954
    endloop
  endfacet
  facet normal -0 -1 0
    outer loop
      vertex 25.75 17 14.3785
      vertex 24.1 17 16.235
      vertex 25.3 17 14.1565
    endloop
  endfacet
  facet normal 0 -1 0
    outer loop
      vertex 24.1816 17 13.2984
      vertex 22.4846 17 14.9954
      vertex 21.8118 17 14.2283
    endloop
  endfacet
  facet normal 0 -1 0
    outer loop
      vertex 25.0151 17 16.6863
      vertex 25.75 17 14.3785
      vertex 25.75 17 16.9357
    endloop
  endfacet
  facet normal 0 -1 0
    outer loop
      vertex 23.2517 17 15.6682
      vertex 24.7127 17 13.7641
      vertex 25.3 17 14.1565
    endloop
  endfacet
  facet normal 0 -1 0
    outer loop
      vertex 23.7159 17 12.7673
      vertex 21.8118 17 14.2283
      vertex 21.245 17 13.38
    endloop
  endfacet
  facet normal 0 -1 0
    outer loop
      vertex 22.4846 17 14.9954
      vertex 24.1816 17 13.2984
      vertex 24.7127 17 13.7641
    endloop
  endfacet
  facet normal 0 -1 0
    outer loop
      vertex 21.8118 17 14.2283
      vertex 23.7159 17 12.7673
      vertex 24.1816 17 13.2984
    endloop
  endfacet
  facet normal 0 -1 0
    outer loop
      vertex 23.3235 17 12.18
      vertex 21.245 17 13.38
      vertex 20.7937 17 12.4649
    endloop
  endfacet
  facet normal 0 -1 0
    outer loop
      vertex 21.245 17 13.38
      vertex 23.3235 17 12.18
      vertex 23.7159 17 12.7673
    endloop
  endfacet
  facet normal 0 -1 0
    outer loop
      vertex 20.7937 17 12.4649
      vertex 23.0111 17 11.5465
      vertex 23.3235 17 12.18
    endloop
  endfacet
  facet normal 0 -1 0
    outer loop
      vertex 20.4658 17 11.4988
      vertex 23.0111 17 11.5465
      vertex 20.7937 17 12.4649
    endloop
  endfacet
  facet normal 0 -1 0
    outer loop
      vertex 20.4658 17 11.4988
      vertex 22.784 17 10.8776
      vertex 23.0111 17 11.5465
    endloop
  endfacet
  facet normal 0 -1 0
    outer loop
      vertex 20.2667 17 10.4981
      vertex 22.784 17 10.8776
      vertex 20.4658 17 11.4988
    endloop
  endfacet
  facet normal 0 -1 0
    outer loop
      vertex 20.2667 17 10.4981
      vertex 22.6462 17 10.1848
      vertex 22.784 17 10.8776
    endloop
  endfacet
  facet normal 0 -1 0
    outer loop
      vertex 20.2 17 9.48
      vertex 22.6462 17 10.1848
      vertex 20.2667 17 10.4981
    endloop
  endfacet
  facet normal 0 -1 0
    outer loop
      vertex 20.2 17 9.48
      vertex 22.6 17 9.48
      vertex 22.6462 17 10.1848
    endloop
  endfacet
  facet normal 0 -1 0
    outer loop
      vertex 20.2 17 9.48
      vertex 22.6462 17 8.77516
      vertex 22.6 17 9.48
    endloop
  endfacet
  facet normal 0 -1 0
    outer loop
      vertex 20.2667 17 8.4619
      vertex 22.6462 17 8.77516
      vertex 20.2 17 9.48
    endloop
  endfacet
  facet normal 0 -1 0
    outer loop
      vertex 20.2667 17 8.4619
      vertex 22.784 17 8.08238
      vertex 22.6462 17 8.77516
    endloop
  endfacet
  facet normal 0 -1 0
    outer loop
      vertex 20.4658 17 7.46121
      vertex 22.784 17 8.08238
      vertex 20.2667 17 8.4619
    endloop
  endfacet
  facet normal 0 -1 0
    outer loop
      vertex 20.4658 17 7.46121
      vertex 23.0111 17 7.41351
      vertex 22.784 17 8.08238
    endloop
  endfacet
  facet normal 0 -1 0
    outer loop
      vertex 20.7937 17 6.49507
      vertex 23.0111 17 7.41351
      vertex 20.4658 17 7.46121
    endloop
  endfacet
  facet normal 0 -1 -0
    outer loop
      vertex 23.0111 17 7.41351
      vertex 20.7937 17 6.49507
      vertex 23.3235 17 6.78
    endloop
  endfacet
  facet normal 0 -1 0
    outer loop
      vertex 21.245 17 5.58
      vertex 23.3235 17 6.78
      vertex 20.7937 17 6.49507
    endloop
  endfacet
  facet normal 0 -1 -0
    outer loop
      vertex 23.3235 17 6.78
      vertex 21.245 17 5.58
      vertex 23.7159 17 6.19269
    endloop
  endfacet
  facet normal 0 -1 0
    outer loop
      vertex 21.8118 17 4.73166
      vertex 23.7159 17 6.19269
      vertex 21.245 17 5.58
    endloop
  endfacet
  facet normal 0 -1 0
    outer loop
      vertex 22.12 17 4.38028
      vertex 23.7159 17 6.19269
      vertex 21.8118 17 4.73166
    endloop
  endfacet
  facet normal 0 -1 -0
    outer loop
      vertex 23.7159 17 6.19269
      vertex 22.12 17 4.38028
      vertex 23.8849 17 6
    endloop
  endfacet
  facet normal 0 -1 0
    outer loop
      vertex 23.8849 17 6
      vertex 24.52 17 5.36488
      vertex 24.52 17 6
    endloop
  endfacet
  facet normal 0 -1 -0
    outer loop
      vertex 23.8849 17 6
      vertex 22.12 17 4.38028
      vertex 24.52 17 5.36488
    endloop
  endfacet
  facet normal 0 -1 -0
    outer loop
      vertex 24.52 17 5.36488
      vertex 22.12 17 4.38028
      vertex 24.7127 17 5.19589
    endloop
  endfacet
  facet normal 0 -1 0
    outer loop
      vertex 22.12 17 3
      vertex 24.7127 17 5.19589
      vertex 22.12 17 4.38028
    endloop
  endfacet
  facet normal 0 -1 -0
    outer loop
      vertex 24.7127 17 5.19589
      vertex 22.12 17 3
      vertex 25.3 17 4.80346
    endloop
  endfacet
  facet normal 0 -1 -0
    outer loop
      vertex 25.3 17 4.80346
      vertex 22.12 17 3
      vertex 25.9335 17 4.49105
    endloop
  endfacet
  facet normal 0 -1 -0
    outer loop
      vertex 25.9335 17 4.49105
      vertex 22.12 17 3
      vertex 26.6024 17 4.264
    endloop
  endfacet
  facet normal 0 -1 -0
    outer loop
      vertex 26.6024 17 4.264
      vertex 22.12 17 3
      vertex 27.2952 17 4.1262
    endloop
  endfacet
  facet normal 0 -1 -0
    outer loop
      vertex 27.2952 17 4.1262
      vertex 22.12 17 3
      vertex 28 17 4.08
    endloop
  endfacet
  facet normal 0 -1 0
    outer loop
      vertex 31.48 17 5.36488
      vertex 32.1151 17 6
      vertex 31.48 17 6
    endloop
  endfacet
  facet normal 0 -1 0
    outer loop
      vertex 33.88 17 4.38028
      vertex 32.1151 17 6
      vertex 31.48 17 5.36488
    endloop
  endfacet
  facet normal 0 -1 0
    outer loop
      vertex 33.88 17 4.38028
      vertex 31.48 17 5.36488
      vertex 31.2873 17 5.19589
    endloop
  endfacet
  facet normal 0 -1 0
    outer loop
      vertex 33.88 17 3
      vertex 31.2873 17 5.19589
      vertex 30.7 17 4.80346
    endloop
  endfacet
  facet normal 0 -1 0
    outer loop
      vertex 32.1151 17 6
      vertex 34.1882 17 4.73166
      vertex 34.755 17 5.58
    endloop
  endfacet
  facet normal 0 -1 0
    outer loop
      vertex 33.88 17 3
      vertex 30.7 17 4.80346
      vertex 30.0665 17 4.49105
    endloop
  endfacet
  facet normal 0 -1 0
    outer loop
      vertex 32.1151 17 6
      vertex 33.88 17 4.38028
      vertex 34.1882 17 4.73166
    endloop
  endfacet
  facet normal 0 -1 0
    outer loop
      vertex 33.88 17 3
      vertex 30.0665 17 4.49105
      vertex 29.3976 17 4.264
    endloop
  endfacet
  facet normal 0 -1 0
    outer loop
      vertex 33.88 17 3
      vertex 29.3976 17 4.264
      vertex 28.7048 17 4.1262
    endloop
  endfacet
  facet normal 0 -1 0
    outer loop
      vertex 33.88 17 3
      vertex 28.7048 17 4.1262
      vertex 28 17 4.08
    endloop
  endfacet
  facet normal 0 -1 0
    outer loop
      vertex 33.88 17 3
      vertex 28 17 4.08
      vertex 22.12 17 3
    endloop
  endfacet
  facet normal 0 -1 0
    outer loop
      vertex 31.2873 17 5.19589
      vertex 33.88 17 3
      vertex 33.88 17 4.38028
    endloop
  endfacet
  facet normal 0 -1 0
    outer loop
      vertex 30.25 17 14.3785
      vertex 30.9849 17 16.6863
      vertex 30.25 17 16.9357
    endloop
  endfacet
  facet normal 0 -1 -0
    outer loop
      vertex 30.9849 17 16.6863
      vertex 30.25 17 14.3785
      vertex 31.9 17 16.235
    endloop
  endfacet
  facet normal 0 -1 -0
    outer loop
      vertex 31.9 17 16.235
      vertex 30.7 17 14.1565
      vertex 32.7483 17 15.6682
    endloop
  endfacet
  facet normal 0 -1 0
    outer loop
      vertex 31.9 17 16.235
      vertex 30.25 17 14.3785
      vertex 30.7 17 14.1565
    endloop
  endfacet
  facet normal 0 -1 0
    outer loop
      vertex 31.2873 17 13.7641
      vertex 32.7483 17 15.6682
      vertex 30.7 17 14.1565
    endloop
  endfacet
  facet normal 0 -1 -0
    outer loop
      vertex 32.7483 17 15.6682
      vertex 31.2873 17 13.7641
      vertex 33.5154 17 14.9954
    endloop
  endfacet
  facet normal 0 -1 0
    outer loop
      vertex 31.8184 17 13.2984
      vertex 33.5154 17 14.9954
      vertex 31.2873 17 13.7641
    endloop
  endfacet
  facet normal 0 -1 -0
    outer loop
      vertex 33.5154 17 14.9954
      vertex 31.8184 17 13.2984
      vertex 34.1882 17 14.2283
    endloop
  endfacet
  facet normal 0 -1 0
    outer loop
      vertex 32.2841 17 12.7673
      vertex 34.1882 17 14.2283
      vertex 31.8184 17 13.2984
    endloop
  endfacet
  facet normal 0 -1 -0
    outer loop
      vertex 34.1882 17 14.2283
      vertex 32.2841 17 12.7673
      vertex 34.755 17 13.38
    endloop
  endfacet
  facet normal 0 -1 0
    outer loop
      vertex 32.6765 17 12.18
      vertex 34.755 17 13.38
      vertex 32.2841 17 12.7673
    endloop
  endfacet
  facet normal 0 -1 -0
    outer loop
      vertex 34.755 17 13.38
      vertex 32.6765 17 12.18
      vertex 35.2063 17 12.4649
    endloop
  endfacet
  facet normal 0 -1 0
    outer loop
      vertex 32.9889 17 11.5465
      vertex 35.2063 17 12.4649
      vertex 32.6765 17 12.18
    endloop
  endfacet
  facet normal 0 -1 0
    outer loop
      vertex 32.9889 17 11.5465
      vertex 35.5342 17 11.4988
      vertex 35.2063 17 12.4649
    endloop
  endfacet
  facet normal 0 -1 0
    outer loop
      vertex 33.216 17 10.8776
      vertex 35.5342 17 11.4988
      vertex 32.9889 17 11.5465
    endloop
  endfacet
  facet normal 0 -1 0
    outer loop
      vertex 33.216 17 10.8776
      vertex 35.7333 17 10.4981
      vertex 35.5342 17 11.4988
    endloop
  endfacet
  facet normal 0 -1 0
    outer loop
      vertex 33.3538 17 10.1848
      vertex 35.7333 17 10.4981
      vertex 33.216 17 10.8776
    endloop
  endfacet
  facet normal 0 -1 0
    outer loop
      vertex 33.4 17 9.48
      vertex 35.7333 17 10.4981
      vertex 33.3538 17 10.1848
    endloop
  endfacet
  facet normal 0 -1 0
    outer loop
      vertex 33.4 17 9.48
      vertex 35.8 17 9.48
      vertex 35.7333 17 10.4981
    endloop
  endfacet
  facet normal 0 -1 0
    outer loop
      vertex 33.3538 17 8.77516
      vertex 35.8 17 9.48
      vertex 33.4 17 9.48
    endloop
  endfacet
  facet normal 0 -1 0
    outer loop
      vertex 33.3538 17 8.77516
      vertex 35.7333 17 8.4619
      vertex 35.8 17 9.48
    endloop
  endfacet
  facet normal 0 -1 0
    outer loop
      vertex 33.216 17 8.08238
      vertex 35.7333 17 8.4619
      vertex 33.3538 17 8.77516
    endloop
  endfacet
  facet normal 0 -1 0
    outer loop
      vertex 33.216 17 8.08238
      vertex 35.5342 17 7.46121
      vertex 35.7333 17 8.4619
    endloop
  endfacet
  facet normal 0 -1 0
    outer loop
      vertex 32.9889 17 7.41351
      vertex 35.5342 17 7.46121
      vertex 33.216 17 8.08238
    endloop
  endfacet
  facet normal 0 -1 0
    outer loop
      vertex 35.2063 17 6.49507
      vertex 32.9889 17 7.41351
      vertex 32.6765 17 6.78
    endloop
  endfacet
  facet normal 0 -1 0
    outer loop
      vertex 32.9889 17 7.41351
      vertex 35.2063 17 6.49507
      vertex 35.5342 17 7.46121
    endloop
  endfacet
  facet normal 0 -1 0
    outer loop
      vertex 34.755 17 5.58
      vertex 32.6765 17 6.78
      vertex 32.2841 17 6.19269
    endloop
  endfacet
  facet normal 0 -1 0
    outer loop
      vertex 34.755 17 5.58
      vertex 32.2841 17 6.19269
      vertex 32.1151 17 6
    endloop
  endfacet
  facet normal 0 -1 0
    outer loop
      vertex 32.6765 17 6.78
      vertex 34.755 17 5.58
      vertex 35.2063 17 6.49507
    endloop
  endfacet
  facet normal -0.659385 0 0.751805
    outer loop
      vertex 22.4846 27 14.9954
      vertex 23.2517 17 15.6682
      vertex 23.2517 27 15.6682
    endloop
  endfacet
  facet normal -0.659385 0 0.751805
    outer loop
      vertex 23.2517 17 15.6682
      vertex 22.4846 27 14.9954
      vertex 22.4846 17 14.9954
    endloop
  endfacet
  facet normal 0 1 0
    outer loop
      vertex 30.25 27 14.3785
      vertex 30.9849 27 16.6863
      vertex 31.9 27 16.235
    endloop
  endfacet
  facet normal 0 1 0
    outer loop
      vertex 30.7 27 14.1565
      vertex 31.9 27 16.235
      vertex 32.7483 27 15.6682
    endloop
  endfacet
  facet normal 0 1 0
    outer loop
      vertex 31.2873 27 13.7641
      vertex 32.7483 27 15.6682
      vertex 33.5154 27 14.9954
    endloop
  endfacet
  facet normal -0 1 0
    outer loop
      vertex 30.25 27 14.3785
      vertex 31.9 27 16.235
      vertex 30.7 27 14.1565
    endloop
  endfacet
  facet normal 0 1 0
    outer loop
      vertex 31.8184 27 13.2984
      vertex 33.5154 27 14.9954
      vertex 34.1882 27 14.2283
    endloop
  endfacet
  facet normal 0 1 0
    outer loop
      vertex 30.9849 27 16.6863
      vertex 30.25 27 14.3785
      vertex 30.25 27 16.9357
    endloop
  endfacet
  facet normal 0 1 0
    outer loop
      vertex 32.7483 27 15.6682
      vertex 31.2873 27 13.7641
      vertex 30.7 27 14.1565
    endloop
  endfacet
  facet normal 0 1 0
    outer loop
      vertex 32.2841 27 12.7673
      vertex 34.1882 27 14.2283
      vertex 34.755 27 13.38
    endloop
  endfacet
  facet normal 0 1 0
    outer loop
      vertex 33.5154 27 14.9954
      vertex 31.8184 27 13.2984
      vertex 31.2873 27 13.7641
    endloop
  endfacet
  facet normal 0 1 0
    outer loop
      vertex 34.1882 27 14.2283
      vertex 32.2841 27 12.7673
      vertex 31.8184 27 13.2984
    endloop
  endfacet
  facet normal 0 1 0
    outer loop
      vertex 32.6765 27 12.18
      vertex 34.755 27 13.38
      vertex 35.2063 27 12.4649
    endloop
  endfacet
  facet normal 0 1 0
    outer loop
      vertex 34.755 27 13.38
      vertex 32.6765 27 12.18
      vertex 32.2841 27 12.7673
    endloop
  endfacet
  facet normal 0 1 0
    outer loop
      vertex 35.2063 27 12.4649
      vertex 32.9889 27 11.5465
      vertex 32.6765 27 12.18
    endloop
  endfacet
  facet normal 0 1 0
    outer loop
      vertex 35.5342 27 11.4988
      vertex 32.9889 27 11.5465
      vertex 35.2063 27 12.4649
    endloop
  endfacet
  facet normal 0 1 0
    outer loop
      vertex 35.5342 27 11.4988
      vertex 33.216 27 10.8776
      vertex 32.9889 27 11.5465
    endloop
  endfacet
  facet normal 0 1 0
    outer loop
      vertex 35.7333 27 10.4981
      vertex 33.216 27 10.8776
      vertex 35.5342 27 11.4988
    endloop
  endfacet
  facet normal 0 1 0
    outer loop
      vertex 35.7333 27 10.4981
      vertex 33.3538 27 10.1848
      vertex 33.216 27 10.8776
    endloop
  endfacet
  facet normal 0 1 0
    outer loop
      vertex 35.8 27 9.48
      vertex 33.3538 27 10.1848
      vertex 35.7333 27 10.4981
    endloop
  endfacet
  facet normal 0 1 0
    outer loop
      vertex 35.8 27 9.48
      vertex 33.4 27 9.48
      vertex 33.3538 27 10.1848
    endloop
  endfacet
  facet normal 0 1 0
    outer loop
      vertex 35.8 27 9.48
      vertex 33.3538 27 8.77516
      vertex 33.4 27 9.48
    endloop
  endfacet
  facet normal 0 1 -0
    outer loop
      vertex 35.7333 27 8.4619
      vertex 33.3538 27 8.77516
      vertex 35.8 27 9.48
    endloop
  endfacet
  facet normal 0 1 0
    outer loop
      vertex 35.7333 27 8.4619
      vertex 33.216 27 8.08238
      vertex 33.3538 27 8.77516
    endloop
  endfacet
  facet normal 0 1 -0
    outer loop
      vertex 35.5342 27 7.46121
      vertex 33.216 27 8.08238
      vertex 35.7333 27 8.4619
    endloop
  endfacet
  facet normal 0 1 0
    outer loop
      vertex 35.5342 27 7.46121
      vertex 32.9889 27 7.41351
      vertex 33.216 27 8.08238
    endloop
  endfacet
  facet normal 0 1 -0
    outer loop
      vertex 35.2063 27 6.49507
      vertex 32.9889 27 7.41351
      vertex 35.5342 27 7.46121
    endloop
  endfacet
  facet normal 0 1 0
    outer loop
      vertex 32.9889 27 7.41351
      vertex 35.2063 27 6.49507
      vertex 32.6765 27 6.78
    endloop
  endfacet
  facet normal 0 1 -0
    outer loop
      vertex 34.755 27 5.58
      vertex 32.6765 27 6.78
      vertex 35.2063 27 6.49507
    endloop
  endfacet
  facet normal 0 1 0
    outer loop
      vertex 32.6765 27 6.78
      vertex 34.755 27 5.58
      vertex 32.2841 27 6.19269
    endloop
  endfacet
  facet normal 0 1 -0
    outer loop
      vertex 34.1882 27 4.73166
      vertex 32.2841 27 6.19269
      vertex 34.755 27 5.58
    endloop
  endfacet
  facet normal 0 1 -0
    outer loop
      vertex 33.88 27 4.38028
      vertex 32.2841 27 6.19269
      vertex 34.1882 27 4.73166
    endloop
  endfacet
  facet normal 0 1 0
    outer loop
      vertex 32.2841 27 6.19269
      vertex 33.88 27 4.38028
      vertex 32.1151 27 6
    endloop
  endfacet
  facet normal 0 1 0
    outer loop
      vertex 32.1151 27 6
      vertex 31.48 27 5.36488
      vertex 31.48 27 6
    endloop
  endfacet
  facet normal 0 1 0
    outer loop
      vertex 32.1151 27 6
      vertex 33.88 27 4.38028
      vertex 31.48 27 5.36488
    endloop
  endfacet
  facet normal 0 1 0
    outer loop
      vertex 31.48 27 5.36488
      vertex 33.88 27 4.38028
      vertex 31.2873 27 5.19589
    endloop
  endfacet
  facet normal 0 1 -0
    outer loop
      vertex 33.88 27 3
      vertex 31.2873 27 5.19589
      vertex 33.88 27 4.38028
    endloop
  endfacet
  facet normal 0 1 0
    outer loop
      vertex 31.2873 27 5.19589
      vertex 33.88 27 3
      vertex 30.7 27 4.80346
    endloop
  endfacet
  facet normal 0 1 0
    outer loop
      vertex 30.7 27 4.80346
      vertex 33.88 27 3
      vertex 30.0665 27 4.49105
    endloop
  endfacet
  facet normal 0 1 0
    outer loop
      vertex 30.0665 27 4.49105
      vertex 33.88 27 3
      vertex 29.3976 27 4.264
    endloop
  endfacet
  facet normal 0 1 0
    outer loop
      vertex 29.3976 27 4.264
      vertex 33.88 27 3
      vertex 28.7048 27 4.1262
    endloop
  endfacet
  facet normal 0 1 0
    outer loop
      vertex 28.7048 27 4.1262
      vertex 33.88 27 3
      vertex 28 27 4.08
    endloop
  endfacet
  facet normal 0 1 -0
    outer loop
      vertex 24.52 27 5.36488
      vertex 23.8849 27 6
      vertex 24.52 27 6
    endloop
  endfacet
  facet normal 0 1 0
    outer loop
      vertex 22.12 27 4.38028
      vertex 23.8849 27 6
      vertex 24.52 27 5.36488
    endloop
  endfacet
  facet normal 0 1 0
    outer loop
      vertex 22.12 27 4.38028
      vertex 24.52 27 5.36488
      vertex 24.7127 27 5.19589
    endloop
  endfacet
  facet normal 0 1 0
    outer loop
      vertex 22.12 27 3
      vertex 24.7127 27 5.19589
      vertex 25.3 27 4.80346
    endloop
  endfacet
  facet normal 0 1 0
    outer loop
      vertex 23.8849 27 6
      vertex 21.8118 27 4.73166
      vertex 21.245 27 5.58
    endloop
  endfacet
  facet normal 0 1 0
    outer loop
      vertex 22.12 27 3
      vertex 25.3 27 4.80346
      vertex 25.9335 27 4.49105
    endloop
  endfacet
  facet normal 0 1 0
    outer loop
      vertex 23.8849 27 6
      vertex 22.12 27 4.38028
      vertex 21.8118 27 4.73166
    endloop
  endfacet
  facet normal 0 1 0
    outer loop
      vertex 22.12 27 3
      vertex 25.9335 27 4.49105
      vertex 26.6024 27 4.264
    endloop
  endfacet
  facet normal 0 1 0
    outer loop
      vertex 22.12 27 3
      vertex 26.6024 27 4.264
      vertex 27.2952 27 4.1262
    endloop
  endfacet
  facet normal 0 1 0
    outer loop
      vertex 22.12 27 3
      vertex 27.2952 27 4.1262
      vertex 28 27 4.08
    endloop
  endfacet
  facet normal 0 1 0
    outer loop
      vertex 22.12 27 3
      vertex 28 27 4.08
      vertex 33.88 27 3
    endloop
  endfacet
  facet normal 0 1 0
    outer loop
      vertex 24.7127 27 5.19589
      vertex 22.12 27 3
      vertex 22.12 27 4.38028
    endloop
  endfacet
  facet normal 0 1 -0
    outer loop
      vertex 25.75 27 14.3785
      vertex 25.0151 27 16.6863
      vertex 25.75 27 16.9357
    endloop
  endfacet
  facet normal 0 1 0
    outer loop
      vertex 25.0151 27 16.6863
      vertex 25.75 27 14.3785
      vertex 24.1 27 16.235
    endloop
  endfacet
  facet normal 0 1 0
    outer loop
      vertex 24.1 27 16.235
      vertex 25.3 27 14.1565
      vertex 23.2517 27 15.6682
    endloop
  endfacet
  facet normal 0 1 0
    outer loop
      vertex 24.1 27 16.235
      vertex 25.75 27 14.3785
      vertex 25.3 27 14.1565
    endloop
  endfacet
  facet normal 0 1 -0
    outer loop
      vertex 24.7127 27 13.7641
      vertex 23.2517 27 15.6682
      vertex 25.3 27 14.1565
    endloop
  endfacet
  facet normal 0 1 0
    outer loop
      vertex 23.2517 27 15.6682
      vertex 24.7127 27 13.7641
      vertex 22.4846 27 14.9954
    endloop
  endfacet
  facet normal 0 1 -0
    outer loop
      vertex 24.1816 27 13.2984
      vertex 22.4846 27 14.9954
      vertex 24.7127 27 13.7641
    endloop
  endfacet
  facet normal 0 1 0
    outer loop
      vertex 22.4846 27 14.9954
      vertex 24.1816 27 13.2984
      vertex 21.8118 27 14.2283
    endloop
  endfacet
  facet normal 0 1 -0
    outer loop
      vertex 23.7159 27 12.7673
      vertex 21.8118 27 14.2283
      vertex 24.1816 27 13.2984
    endloop
  endfacet
  facet normal 0 1 0
    outer loop
      vertex 21.8118 27 14.2283
      vertex 23.7159 27 12.7673
      vertex 21.245 27 13.38
    endloop
  endfacet
  facet normal 0 1 -0
    outer loop
      vertex 23.3235 27 12.18
      vertex 21.245 27 13.38
      vertex 23.7159 27 12.7673
    endloop
  endfacet
  facet normal 0 1 0
    outer loop
      vertex 21.245 27 13.38
      vertex 23.3235 27 12.18
      vertex 20.7937 27 12.4649
    endloop
  endfacet
  facet normal 0 1 -0
    outer loop
      vertex 23.0111 27 11.5465
      vertex 20.7937 27 12.4649
      vertex 23.3235 27 12.18
    endloop
  endfacet
  facet normal 0 1 0
    outer loop
      vertex 23.0111 27 11.5465
      vertex 20.4658 27 11.4988
      vertex 20.7937 27 12.4649
    endloop
  endfacet
  facet normal 0 1 -0
    outer loop
      vertex 22.784 27 10.8776
      vertex 20.4658 27 11.4988
      vertex 23.0111 27 11.5465
    endloop
  endfacet
  facet normal 0 1 0
    outer loop
      vertex 22.784 27 10.8776
      vertex 20.2667 27 10.4981
      vertex 20.4658 27 11.4988
    endloop
  endfacet
  facet normal 0 1 -0
    outer loop
      vertex 22.6462 27 10.1848
      vertex 20.2667 27 10.4981
      vertex 22.784 27 10.8776
    endloop
  endfacet
  facet normal 0 1 -0
    outer loop
      vertex 22.6 27 9.48
      vertex 20.2667 27 10.4981
      vertex 22.6462 27 10.1848
    endloop
  endfacet
  facet normal 0 1 0
    outer loop
      vertex 22.6 27 9.48
      vertex 20.2 27 9.48
      vertex 20.2667 27 10.4981
    endloop
  endfacet
  facet normal 0 1 0
    outer loop
      vertex 22.6462 27 8.77516
      vertex 20.2 27 9.48
      vertex 22.6 27 9.48
    endloop
  endfacet
  facet normal 0 1 0
    outer loop
      vertex 22.6462 27 8.77516
      vertex 20.2667 27 8.4619
      vertex 20.2 27 9.48
    endloop
  endfacet
  facet normal 0 1 0
    outer loop
      vertex 22.784 27 8.08238
      vertex 20.2667 27 8.4619
      vertex 22.6462 27 8.77516
    endloop
  endfacet
  facet normal 0 1 0
    outer loop
      vertex 22.784 27 8.08238
      vertex 20.4658 27 7.46121
      vertex 20.2667 27 8.4619
    endloop
  endfacet
  facet normal 0 1 0
    outer loop
      vertex 23.0111 27 7.41351
      vertex 20.4658 27 7.46121
      vertex 22.784 27 8.08238
    endloop
  endfacet
  facet normal 0 1 0
    outer loop
      vertex 20.7937 27 6.49507
      vertex 23.0111 27 7.41351
      vertex 23.3235 27 6.78
    endloop
  endfacet
  facet normal 0 1 0
    outer loop
      vertex 23.0111 27 7.41351
      vertex 20.7937 27 6.49507
      vertex 20.4658 27 7.46121
    endloop
  endfacet
  facet normal 0 1 0
    outer loop
      vertex 21.245 27 5.58
      vertex 23.3235 27 6.78
      vertex 23.7159 27 6.19269
    endloop
  endfacet
  facet normal 0 1 0
    outer loop
      vertex 21.245 27 5.58
      vertex 23.7159 27 6.19269
      vertex 23.8849 27 6
    endloop
  endfacet
  facet normal 0 1 0
    outer loop
      vertex 23.3235 27 6.78
      vertex 21.245 27 5.58
      vertex 20.7937 27 6.49507
    endloop
  endfacet
  facet normal 0.751789 0 -0.659404
    outer loop
      vertex 34.1882 17 4.73166
      vertex 33.88 27 4.38028
      vertex 34.1882 27 4.73166
    endloop
  endfacet
  facet normal 0.751789 0 -0.659404
    outer loop
      vertex 33.88 27 4.38028
      vertex 34.1882 17 4.73166
      vertex 33.88 17 4.38028
    endloop
  endfacet
  facet normal -0.946948 0 -0.321386
    outer loop
      vertex 20.7937 17 6.49507
      vertex 20.4658 27 7.46121
      vertex 20.7937 27 6.49507
    endloop
  endfacet
  facet normal -0.946948 -0 -0.321386
    outer loop
      vertex 20.4658 27 7.46121
      vertex 20.7937 17 6.49507
      vertex 20.4658 17 7.46121
    endloop
  endfacet
  facet normal -0.980776 0 -0.195138
    outer loop
      vertex 20.4658 17 7.46121
      vertex 20.2667 27 8.4619
      vertex 20.4658 27 7.46121
    endloop
  endfacet
  facet normal -0.980776 -0 -0.195138
    outer loop
      vertex 20.2667 27 8.4619
      vertex 20.4658 17 7.46121
      vertex 20.2667 17 8.4619
    endloop
  endfacet
  facet normal -0.946944 0 0.321398
    outer loop
      vertex 20.4658 17 11.4988
      vertex 20.7937 27 12.4649
      vertex 20.4658 27 11.4988
    endloop
  endfacet
  facet normal -0.946944 0 0.321398
    outer loop
      vertex 20.7937 27 12.4649
      vertex 20.4658 17 11.4988
      vertex 20.7937 17 12.4649
    endloop
  endfacet
  facet normal -0.831477 0 0.555559
    outer loop
      vertex 21.245 17 13.38
      vertex 21.8118 27 14.2283
      vertex 21.245 27 13.38
    endloop
  endfacet
  facet normal -0.831477 0 0.555559
    outer loop
      vertex 21.8118 27 14.2283
      vertex 21.245 17 13.38
      vertex 21.8118 17 14.2283
    endloop
  endfacet
  facet normal -0.751805 0 0.659385
    outer loop
      vertex 21.8118 17 14.2283
      vertex 22.4846 27 14.9954
      vertex 21.8118 27 14.2283
    endloop
  endfacet
  facet normal -0.751805 0 0.659385
    outer loop
      vertex 22.4846 27 14.9954
      vertex 21.8118 17 14.2283
      vertex 22.4846 17 14.9954
    endloop
  endfacet
  facet normal -0.0654101 0 0.997858
    outer loop
      vertex 28 27 4.08
      vertex 28.7048 17 4.1262
      vertex 28.7048 27 4.1262
    endloop
  endfacet
  facet normal -0.0654101 0 0.997858
    outer loop
      vertex 28.7048 17 4.1262
      vertex 28 27 4.08
      vertex 28 17 4.08
    endloop
  endfacet
  facet normal -0.980787 0 -0.195081
    outer loop
      vertex 33.3538 17 10.1848
      vertex 33.216 27 10.8776
      vertex 33.3538 27 10.1848
    endloop
  endfacet
  facet normal -0.980787 -0 -0.195081
    outer loop
      vertex 33.216 27 10.8776
      vertex 33.3538 17 10.1848
      vertex 33.216 17 10.8776
    endloop
  endfacet
  facet normal -0.997858 0 -0.0654101
    outer loop
      vertex 33.4 17 9.48
      vertex 33.3538 27 10.1848
      vertex 33.4 27 9.48
    endloop
  endfacet
  facet normal -0.997858 -0 -0.0654101
    outer loop
      vertex 33.3538 27 10.1848
      vertex 33.4 17 9.48
      vertex 33.3538 17 10.1848
    endloop
  endfacet
  facet normal -0.659296 0 -0.751883
    outer loop
      vertex 31.2873 17 13.7641
      vertex 31.8184 27 13.2984
      vertex 31.8184 17 13.2984
    endloop
  endfacet
  facet normal -0.659296 0 -0.751883
    outer loop
      vertex 31.8184 27 13.2984
      vertex 31.2873 17 13.7641
      vertex 31.2873 27 13.7641
    endloop
  endfacet
  facet normal -0.89688 0 0.442274
    outer loop
      vertex 32.6765 17 6.78
      vertex 32.9889 27 7.41351
      vertex 32.6765 27 6.78
    endloop
  endfacet
  facet normal -0.89688 0 0.442274
    outer loop
      vertex 32.9889 27 7.41351
      vertex 32.6765 17 6.78
      vertex 32.9889 17 7.41351
    endloop
  endfacet
  facet normal 0.442291 0 0.896871
    outer loop
      vertex 25.3 27 4.80346
      vertex 25.9335 17 4.49105
      vertex 25.9335 27 4.49105
    endloop
  endfacet
  facet normal 0.442291 0 0.896871
    outer loop
      vertex 25.9335 17 4.49105
      vertex 25.3 27 4.80346
      vertex 25.3 17 4.80346
    endloop
  endfacet
  facet normal 0.0654101 0 0.997858
    outer loop
      vertex 27.2952 27 4.1262
      vertex 28 17 4.08
      vertex 28 27 4.08
    endloop
  endfacet
  facet normal 0.0654101 0 0.997858
    outer loop
      vertex 28 17 4.08
      vertex 27.2952 27 4.1262
      vertex 27.2952 17 4.1262
    endloop
  endfacet
  facet normal 0.997859 -0 0.0654064
    outer loop
      vertex 22.6 17 9.48
      vertex 22.6462 27 8.77516
      vertex 22.6 27 9.48
    endloop
  endfacet
  facet normal 0.997859 0 0.0654064
    outer loop
      vertex 22.6462 27 8.77516
      vertex 22.6 17 9.48
      vertex 22.6462 17 8.77516
    endloop
  endfacet
  facet normal 0.659338 0 0.751846
    outer loop
      vertex 24.52 27 5.36488
      vertex 24.7127 17 5.19589
      vertex 24.7127 27 5.19589
    endloop
  endfacet
  facet normal 0.659338 0 0.751846
    outer loop
      vertex 24.7127 17 5.19589
      vertex 24.52 27 5.36488
      vertex 24.52 17 5.36488
    endloop
  endfacet
  facet normal -0.946913 0 -0.321489
    outer loop
      vertex 33.216 17 10.8776
      vertex 32.9889 27 11.5465
      vertex 33.216 27 10.8776
    endloop
  endfacet
  facet normal -0.946913 -0 -0.321489
    outer loop
      vertex 32.9889 27 11.5465
      vertex 33.216 17 10.8776
      vertex 32.9889 17 11.5465
    endloop
  endfacet
  facet normal -0.659338 0 0.751846
    outer loop
      vertex 31.2873 27 5.19589
      vertex 31.48 17 5.36488
      vertex 31.48 27 5.36488
    endloop
  endfacet
  facet normal -0.659338 0 0.751846
    outer loop
      vertex 31.48 17 5.36488
      vertex 31.2873 27 5.19589
      vertex 31.2873 17 5.19589
    endloop
  endfacet
  facet normal 0.659296 0 -0.751883
    outer loop
      vertex 24.1816 17 13.2984
      vertex 24.7127 27 13.7641
      vertex 24.7127 17 13.7641
    endloop
  endfacet
  facet normal 0.659296 0 -0.751883
    outer loop
      vertex 24.7127 27 13.7641
      vertex 24.1816 17 13.2984
      vertex 24.1816 27 13.2984
    endloop
  endfacet
  facet normal 0.997858 0 -0.0654101
    outer loop
      vertex 22.6462 17 10.1848
      vertex 22.6 27 9.48
      vertex 22.6462 27 10.1848
    endloop
  endfacet
  facet normal 0.997858 0 -0.0654101
    outer loop
      vertex 22.6 27 9.48
      vertex 22.6462 17 10.1848
      vertex 22.6 17 9.48
    endloop
  endfacet
  facet normal 0.89688 -0 0.442274
    outer loop
      vertex 23.0111 17 7.41351
      vertex 23.3235 27 6.78
      vertex 23.0111 27 7.41351
    endloop
  endfacet
  facet normal 0.89688 0 0.442274
    outer loop
      vertex 23.3235 27 6.78
      vertex 23.0111 17 7.41351
      vertex 23.3235 17 6.78
    endloop
  endfacet
  facet normal -0.442424 0 -0.896806
    outer loop
      vertex 30.25 17 14.3785
      vertex 30.7 27 14.1565
      vertex 30.7 17 14.1565
    endloop
  endfacet
  facet normal -0.442424 0 -0.896806
    outer loop
      vertex 30.7 27 14.1565
      vertex 30.25 17 14.3785
      vertex 30.25 27 14.3785
    endloop
  endfacet
  facet normal -0.321426 0 0.946935
    outer loop
      vertex 29.3976 27 4.264
      vertex 30.0665 17 4.49105
      vertex 30.0665 27 4.49105
    endloop
  endfacet
  facet normal -0.321426 0 0.946935
    outer loop
      vertex 30.0665 17 4.49105
      vertex 29.3976 27 4.264
      vertex 29.3976 17 4.264
    endloop
  endfacet
  facet normal 0.980787 0 -0.195081
    outer loop
      vertex 22.784 17 10.8776
      vertex 22.6462 27 10.1848
      vertex 22.784 27 10.8776
    endloop
  endfacet
  facet normal 0.980787 0 -0.195081
    outer loop
      vertex 22.6462 27 10.1848
      vertex 22.784 17 10.8776
      vertex 22.6462 17 10.1848
    endloop
  endfacet
  facet normal 0.442424 0 -0.896806
    outer loop
      vertex 25.3 17 14.1565
      vertex 25.75 27 14.3785
      vertex 25.75 17 14.3785
    endloop
  endfacet
  facet normal 0.442424 0 -0.896806
    outer loop
      vertex 25.75 27 14.3785
      vertex 25.3 17 14.1565
      vertex 25.3 27 14.1565
    endloop
  endfacet
  facet normal 0.980786 -0 0.195087
    outer loop
      vertex 22.6462 17 8.77516
      vertex 22.784 27 8.08238
      vertex 22.6462 27 8.77516
    endloop
  endfacet
  facet normal 0.980786 0 0.195087
    outer loop
      vertex 22.784 27 8.08238
      vertex 22.6462 17 8.77516
      vertex 22.784 17 8.08238
    endloop
  endfacet
  facet normal -0.896877 0 -0.44228
    outer loop
      vertex 32.9889 17 11.5465
      vertex 32.6765 27 12.18
      vertex 32.9889 27 11.5465
    endloop
  endfacet
  facet normal -0.896877 -0 -0.44228
    outer loop
      vertex 32.6765 27 12.18
      vertex 32.9889 17 11.5465
      vertex 32.6765 17 12.18
    endloop
  endfacet
  facet normal -0.831488 0 0.555543
    outer loop
      vertex 32.2841 17 6.19269
      vertex 32.6765 27 6.78
      vertex 32.2841 27 6.19269
    endloop
  endfacet
  facet normal -0.831488 0 0.555543
    outer loop
      vertex 32.6765 27 6.78
      vertex 32.2841 17 6.19269
      vertex 32.6765 17 6.78
    endloop
  endfacet
  facet normal -0.980786 0 0.195087
    outer loop
      vertex 33.216 17 8.08238
      vertex 33.3538 27 8.77516
      vertex 33.216 27 8.08238
    endloop
  endfacet
  facet normal -0.980786 0 0.195087
    outer loop
      vertex 33.3538 27 8.77516
      vertex 33.216 17 8.08238
      vertex 33.3538 17 8.77516
    endloop
  endfacet
  facet normal 0.555549 0 -0.831484
    outer loop
      vertex 24.7127 17 13.7641
      vertex 25.3 27 14.1565
      vertex 25.3 17 14.1565
    endloop
  endfacet
  facet normal 0.555549 0 -0.831484
    outer loop
      vertex 25.3 27 14.1565
      vertex 24.7127 17 13.7641
      vertex 24.7127 27 13.7641
    endloop
  endfacet
  facet normal -0.195081 0 0.980787
    outer loop
      vertex 28.7048 27 4.1262
      vertex 29.3976 17 4.264
      vertex 29.3976 27 4.264
    endloop
  endfacet
  facet normal -0.195081 0 0.980787
    outer loop
      vertex 29.3976 17 4.264
      vertex 28.7048 27 4.1262
      vertex 28.7048 17 4.1262
    endloop
  endfacet
  facet normal -0.75181 0 0.65938
    outer loop
      vertex 32.1151 17 6
      vertex 32.2841 27 6.19269
      vertex 32.1151 27 6
    endloop
  endfacet
  facet normal -0.75181 0 0.65938
    outer loop
      vertex 32.2841 27 6.19269
      vertex 32.1151 17 6
      vertex 32.2841 17 6.19269
    endloop
  endfacet
  facet normal -0.442291 0 0.896871
    outer loop
      vertex 30.0665 27 4.49105
      vertex 30.7 17 4.80346
      vertex 30.7 27 4.80346
    endloop
  endfacet
  facet normal -0.442291 0 0.896871
    outer loop
      vertex 30.7 17 4.80346
      vertex 30.0665 27 4.49105
      vertex 30.0665 17 4.49105
    endloop
  endfacet
  facet normal 0.195081 0 0.980787
    outer loop
      vertex 26.6024 27 4.264
      vertex 27.2952 17 4.1262
      vertex 27.2952 27 4.1262
    endloop
  endfacet
  facet normal 0.195081 0 0.980787
    outer loop
      vertex 27.2952 17 4.1262
      vertex 26.6024 27 4.264
      vertex 26.6024 17 4.264
    endloop
  endfacet
  facet normal -0.555549 0 -0.831484
    outer loop
      vertex 30.7 17 14.1565
      vertex 31.2873 27 13.7641
      vertex 31.2873 17 13.7641
    endloop
  endfacet
  facet normal -0.555549 0 -0.831484
    outer loop
      vertex 31.2873 27 13.7641
      vertex 30.7 17 14.1565
      vertex 30.7 27 14.1565
    endloop
  endfacet
  facet normal 0.321426 0 0.946935
    outer loop
      vertex 25.9335 27 4.49105
      vertex 26.6024 17 4.264
      vertex 26.6024 27 4.264
    endloop
  endfacet
  facet normal 0.321426 0 0.946935
    outer loop
      vertex 26.6024 17 4.264
      vertex 25.9335 27 4.49105
      vertex 25.9335 17 4.49105
    endloop
  endfacet
  facet normal -0.946909 0 0.321502
    outer loop
      vertex 32.9889 17 7.41351
      vertex 33.216 27 8.08238
      vertex 32.9889 27 7.41351
    endloop
  endfacet
  facet normal -0.946909 0 0.321502
    outer loop
      vertex 33.216 27 8.08238
      vertex 32.9889 17 7.41351
      vertex 33.216 17 8.08238
    endloop
  endfacet
  facet normal -0.751883 0 -0.659296
    outer loop
      vertex 32.2841 17 12.7673
      vertex 31.8184 27 13.2984
      vertex 32.2841 27 12.7673
    endloop
  endfacet
  facet normal -0.751883 -0 -0.659296
    outer loop
      vertex 31.8184 27 13.2984
      vertex 32.2841 17 12.7673
      vertex 31.8184 17 13.2984
    endloop
  endfacet
  facet normal -0.831484 0 -0.555549
    outer loop
      vertex 32.6765 17 12.18
      vertex 32.2841 27 12.7673
      vertex 32.6765 27 12.18
    endloop
  endfacet
  facet normal -0.831484 -0 -0.555549
    outer loop
      vertex 32.2841 27 12.7673
      vertex 32.6765 17 12.18
      vertex 32.2841 17 12.7673
    endloop
  endfacet
  facet normal 0.831488 -0 0.555543
    outer loop
      vertex 23.3235 17 6.78
      vertex 23.7159 27 6.19269
      vertex 23.3235 27 6.78
    endloop
  endfacet
  facet normal 0.831488 0 0.555543
    outer loop
      vertex 23.7159 27 6.19269
      vertex 23.3235 17 6.78
      vertex 23.7159 17 6.19269
    endloop
  endfacet
  facet normal 0.946909 -0 0.321502
    outer loop
      vertex 22.784 17 8.08238
      vertex 23.0111 27 7.41351
      vertex 22.784 27 8.08238
    endloop
  endfacet
  facet normal 0.946909 0 0.321502
    outer loop
      vertex 23.0111 27 7.41351
      vertex 22.784 17 8.08238
      vertex 23.0111 17 7.41351
    endloop
  endfacet
  facet normal -0.997859 0 0.0654064
    outer loop
      vertex 33.3538 17 8.77516
      vertex 33.4 27 9.48
      vertex 33.3538 27 8.77516
    endloop
  endfacet
  facet normal -0.997859 0 0.0654064
    outer loop
      vertex 33.4 27 9.48
      vertex 33.3538 17 8.77516
      vertex 33.4 17 9.48
    endloop
  endfacet
  facet normal -0.555579 0 0.831464
    outer loop
      vertex 30.7 27 4.80346
      vertex 31.2873 17 5.19589
      vertex 31.2873 27 5.19589
    endloop
  endfacet
  facet normal -0.555579 0 0.831464
    outer loop
      vertex 31.2873 17 5.19589
      vertex 30.7 27 4.80346
      vertex 30.7 17 4.80346
    endloop
  endfacet
  facet normal 0.75181 -0 0.65938
    outer loop
      vertex 23.7159 17 6.19269
      vertex 23.8849 27 6
      vertex 23.7159 27 6.19269
    endloop
  endfacet
  facet normal 0.75181 0 0.65938
    outer loop
      vertex 23.8849 27 6
      vertex 23.7159 17 6.19269
      vertex 23.8849 17 6
    endloop
  endfacet
  facet normal 0.555579 0 0.831464
    outer loop
      vertex 24.7127 27 5.19589
      vertex 25.3 17 4.80346
      vertex 25.3 27 4.80346
    endloop
  endfacet
  facet normal 0.555579 0 0.831464
    outer loop
      vertex 25.3 17 4.80346
      vertex 24.7127 27 5.19589
      vertex 24.7127 17 5.19589
    endloop
  endfacet
  facet normal 0.946913 0 -0.321489
    outer loop
      vertex 23.0111 17 11.5465
      vertex 22.784 27 10.8776
      vertex 23.0111 27 11.5465
    endloop
  endfacet
  facet normal 0.946913 0 -0.321489
    outer loop
      vertex 22.784 27 10.8776
      vertex 23.0111 17 11.5465
      vertex 22.784 17 10.8776
    endloop
  endfacet
  facet normal 0.896877 0 -0.44228
    outer loop
      vertex 23.3235 17 12.18
      vertex 23.0111 27 11.5465
      vertex 23.3235 27 12.18
    endloop
  endfacet
  facet normal 0.896877 0 -0.44228
    outer loop
      vertex 23.0111 27 11.5465
      vertex 23.3235 17 12.18
      vertex 23.0111 17 11.5465
    endloop
  endfacet
  facet normal 0.751883 0 -0.659296
    outer loop
      vertex 24.1816 17 13.2984
      vertex 23.7159 27 12.7673
      vertex 24.1816 27 13.2984
    endloop
  endfacet
  facet normal 0.751883 0 -0.659296
    outer loop
      vertex 23.7159 27 12.7673
      vertex 24.1816 17 13.2984
      vertex 23.7159 17 12.7673
    endloop
  endfacet
  facet normal 0.831484 0 -0.555549
    outer loop
      vertex 23.7159 17 12.7673
      vertex 23.3235 27 12.18
      vertex 23.7159 27 12.7673
    endloop
  endfacet
  facet normal 0.831484 0 -0.555549
    outer loop
      vertex 23.3235 27 12.18
      vertex 23.7159 17 12.7673
      vertex 23.3235 17 12.18
    endloop
  endfacet
  facet normal -1 0 0
    outer loop
      vertex 30.25 17 14.3785
      vertex 30.25 27 16.9357
      vertex 30.25 27 14.3785
    endloop
  endfacet
  facet normal -1 -0 0
    outer loop
      vertex 30.25 27 16.9357
      vertex 30.25 17 14.3785
      vertex 30.25 17 16.9357
    endloop
  endfacet
  facet normal 1 -0 0
    outer loop
      vertex 25.75 17 16.9357
      vertex 25.75 27 14.3785
      vertex 25.75 27 16.9357
    endloop
  endfacet
  facet normal 1 0 0
    outer loop
      vertex 25.75 27 14.3785
      vertex 25.75 17 16.9357
      vertex 25.75 17 14.3785
    endloop
  endfacet
  facet normal 1 -0 0
    outer loop
      vertex 24.52 17 6
      vertex 24.52 27 5.36488
      vertex 24.52 27 6
    endloop
  endfacet
  facet normal 1 0 0
    outer loop
      vertex 24.52 27 5.36488
      vertex 24.52 17 6
      vertex 24.52 17 5.36488
    endloop
  endfacet
  facet normal -0 0 1
    outer loop
      vertex 23.8849 27 6
      vertex 24.52 17 6
      vertex 24.52 27 6
    endloop
  endfacet
  facet normal 0 0 1
    outer loop
      vertex 24.52 17 6
      vertex 23.8849 27 6
      vertex 23.8849 17 6
    endloop
  endfacet
  facet normal -1 0 0
    outer loop
      vertex 22.12 17 3
      vertex 22.12 27 4.38028
      vertex 22.12 27 3
    endloop
  endfacet
  facet normal -1 -0 0
    outer loop
      vertex 22.12 27 4.38028
      vertex 22.12 17 3
      vertex 22.12 17 4.38028
    endloop
  endfacet
  facet normal 1 -0 0
    outer loop
      vertex 33.88 17 4.38028
      vertex 33.88 27 3
      vertex 33.88 27 4.38028
    endloop
  endfacet
  facet normal 1 0 0
    outer loop
      vertex 33.88 27 3
      vertex 33.88 17 4.38028
      vertex 33.88 17 3
    endloop
  endfacet
  facet normal -0 0 1
    outer loop
      vertex 31.48 27 6
      vertex 32.1151 17 6
      vertex 32.1151 27 6
    endloop
  endfacet
  facet normal 0 0 1
    outer loop
      vertex 32.1151 17 6
      vertex 31.48 27 6
      vertex 31.48 17 6
    endloop
  endfacet
  facet normal -1 0 0
    outer loop
      vertex 31.48 17 5.36488
      vertex 31.48 27 6
      vertex 31.48 27 5.36488
    endloop
  endfacet
  facet normal -1 -0 0
    outer loop
      vertex 31.48 27 6
      vertex 31.48 17 5.36488
      vertex 31.48 17 6
    endloop
  endfacet
  facet normal -0.896921 -0.442191 0
    outer loop
      vertex 14.3349 13.25 0
      vertex 14.1903 13.5433 3
      vertex 14.1903 13.5433 0
    endloop
  endfacet
  facet normal -0.896921 -0.442191 0
    outer loop
      vertex 14.1903 13.5433 3
      vertex 14.3349 13.25 0
      vertex 14.3349 13.25 3
    endloop
  endfacet
  facet normal -0.32136 -0.946957 0
    outer loop
      vertex 15.5433 12.1903 0
      vertex 15.853 12.0852 3
      vertex 15.5433 12.1903 3
    endloop
  endfacet
  facet normal -0.32136 -0.946957 -0
    outer loop
      vertex 15.853 12.0852 3
      vertex 15.5433 12.1903 0
      vertex 15.853 12.0852 0
    endloop
  endfacet
  facet normal -0.831438 0.555617 0
    outer loop
      vertex 14.3349 30.75 0
      vertex 14.5166 31.0219 3
      vertex 14.5166 31.0219 0
    endloop
  endfacet
  facet normal -0.831438 0.555617 0
    outer loop
      vertex 14.5166 31.0219 3
      vertex 14.3349 30.75 0
      vertex 14.3349 30.75 3
    endloop
  endfacet
  facet normal 0.195116 0.98078 -0
    outer loop
      vertex 40.147 31.9148 0
      vertex 39.8263 31.9786 3
      vertex 40.147 31.9148 3
    endloop
  endfacet
  facet normal 0.195116 0.98078 0
    outer loop
      vertex 39.8263 31.9786 3
      vertex 40.147 31.9148 0
      vertex 39.8263 31.9786 0
    endloop
  endfacet
  facet normal 0.896921 0.442191 0
    outer loop
      vertex 41.8097 30.4567 3
      vertex 41.6651 30.75 0
      vertex 41.6651 30.75 3
    endloop
  endfacet
  facet normal 0.896921 0.442191 0
    outer loop
      vertex 41.6651 30.75 0
      vertex 41.8097 30.4567 3
      vertex 41.8097 30.4567 0
    endloop
  endfacet
  facet normal 0.896921 -0.442191 0
    outer loop
      vertex 41.6651 13.25 3
      vertex 41.8097 13.5433 0
      vertex 41.8097 13.5433 3
    endloop
  endfacet
  facet normal 0.896921 -0.442191 0
    outer loop
      vertex 41.8097 13.5433 0
      vertex 41.6651 13.25 3
      vertex 41.6651 13.25 0
    endloop
  endfacet
  facet normal 0 -1 0
    outer loop
      vertex 16.5 12 0
      vertex 39.5 12 3
      vertex 16.5 12 3
    endloop
  endfacet
  facet normal 0 -1 -0
    outer loop
      vertex 39.5 12 3
      vertex 16.5 12 0
      vertex 39.5 12 0
    endloop
  endfacet
  facet normal 0.751913 0.659262 0
    outer loop
      vertex 41.4834 31.0219 3
      vertex 41.2678 31.2678 0
      vertex 41.2678 31.2678 3
    endloop
  endfacet
  facet normal 0.751913 0.659262 0
    outer loop
      vertex 41.2678 31.2678 0
      vertex 41.4834 31.0219 3
      vertex 41.4834 31.0219 0
    endloop
  endfacet
  facet normal -0.32136 0.946957 0
    outer loop
      vertex 15.853 31.9148 0
      vertex 15.5433 31.8097 3
      vertex 15.853 31.9148 3
    endloop
  endfacet
  facet normal -0.32136 0.946957 0
    outer loop
      vertex 15.5433 31.8097 3
      vertex 15.853 31.9148 0
      vertex 15.5433 31.8097 0
    endloop
  endfacet
  facet normal 0.442191 -0.896921 0
    outer loop
      vertex 40.4567 12.1903 0
      vertex 40.75 12.3349 3
      vertex 40.4567 12.1903 3
    endloop
  endfacet
  facet normal 0.442191 -0.896921 0
    outer loop
      vertex 40.75 12.3349 3
      vertex 40.4567 12.1903 0
      vertex 40.75 12.3349 0
    endloop
  endfacet
  facet normal -0.0654432 0.997856 0
    outer loop
      vertex 16.5 32 0
      vertex 16.1737 31.9786 3
      vertex 16.5 32 3
    endloop
  endfacet
  facet normal -0.0654432 0.997856 0
    outer loop
      vertex 16.1737 31.9786 3
      vertex 16.5 32 0
      vertex 16.1737 31.9786 0
    endloop
  endfacet
  facet normal -0.555617 0.831438 0
    outer loop
      vertex 15.25 31.6651 0
      vertex 14.9781 31.4834 3
      vertex 15.25 31.6651 3
    endloop
  endfacet
  facet normal -0.555617 0.831438 0
    outer loop
      vertex 14.9781 31.4834 3
      vertex 15.25 31.6651 0
      vertex 14.9781 31.4834 0
    endloop
  endfacet
  facet normal 1 -0 0
    outer loop
      vertex 42 14.5 3
      vertex 42 29.5 0
      vertex 42 29.5 3
    endloop
  endfacet
  facet normal 1 0 0
    outer loop
      vertex 42 29.5 0
      vertex 42 14.5 3
      vertex 42 14.5 0
    endloop
  endfacet
  facet normal 0.997856 0.0654432 0
    outer loop
      vertex 42 29.5 3
      vertex 41.9786 29.8263 0
      vertex 41.9786 29.8263 3
    endloop
  endfacet
  facet normal 0.997856 0.0654432 0
    outer loop
      vertex 41.9786 29.8263 0
      vertex 42 29.5 3
      vertex 42 29.5 0
    endloop
  endfacet
  facet normal -0.195116 0.98078 0
    outer loop
      vertex 16.1737 31.9786 0
      vertex 15.853 31.9148 3
      vertex 16.1737 31.9786 3
    endloop
  endfacet
  facet normal -0.195116 0.98078 0
    outer loop
      vertex 15.853 31.9148 3
      vertex 16.1737 31.9786 0
      vertex 15.853 31.9148 0
    endloop
  endfacet
  facet normal 0.555617 -0.831438 0
    outer loop
      vertex 40.75 12.3349 0
      vertex 41.0219 12.5166 3
      vertex 40.75 12.3349 3
    endloop
  endfacet
  facet normal 0.555617 -0.831438 0
    outer loop
      vertex 41.0219 12.5166 3
      vertex 40.75 12.3349 0
      vertex 41.0219 12.5166 0
    endloop
  endfacet
  facet normal -0.442191 0.896921 0
    outer loop
      vertex 15.5433 31.8097 0
      vertex 15.25 31.6651 3
      vertex 15.5433 31.8097 3
    endloop
  endfacet
  facet normal -0.442191 0.896921 0
    outer loop
      vertex 15.25 31.6651 3
      vertex 15.5433 31.8097 0
      vertex 15.25 31.6651 0
    endloop
  endfacet
  facet normal 0.98078 0.195116 0
    outer loop
      vertex 41.9786 29.8263 3
      vertex 41.9148 30.147 0
      vertex 41.9148 30.147 3
    endloop
  endfacet
  facet normal 0.98078 0.195116 0
    outer loop
      vertex 41.9148 30.147 0
      vertex 41.9786 29.8263 3
      vertex 41.9786 29.8263 0
    endloop
  endfacet
  facet normal 0.946957 0.32136 0
    outer loop
      vertex 41.9148 30.147 3
      vertex 41.8097 30.4567 0
      vertex 41.8097 30.4567 3
    endloop
  endfacet
  facet normal 0.946957 0.32136 0
    outer loop
      vertex 41.8097 30.4567 0
      vertex 41.9148 30.147 3
      vertex 41.9148 30.147 0
    endloop
  endfacet
  facet normal 0.442191 0.896921 -0
    outer loop
      vertex 40.75 31.6651 0
      vertex 40.4567 31.8097 3
      vertex 40.75 31.6651 3
    endloop
  endfacet
  facet normal 0.442191 0.896921 0
    outer loop
      vertex 40.4567 31.8097 3
      vertex 40.75 31.6651 0
      vertex 40.4567 31.8097 0
    endloop
  endfacet
  facet normal 0 1 -0
    outer loop
      vertex 39.5 32 0
      vertex 16.5 32 3
      vertex 39.5 32 3
    endloop
  endfacet
  facet normal 0 1 0
    outer loop
      vertex 16.5 32 3
      vertex 39.5 32 0
      vertex 16.5 32 0
    endloop
  endfacet
  facet normal -1 0 0
    outer loop
      vertex 14 14.5 0
      vertex 14 29.5 3
      vertex 14 29.5 0
    endloop
  endfacet
  facet normal -1 -0 0
    outer loop
      vertex 14 29.5 3
      vertex 14 14.5 0
      vertex 14 14.5 3
    endloop
  endfacet
  facet normal -0.98078 -0.195116 0
    outer loop
      vertex 14.0852 13.853 0
      vertex 14.0214 14.1737 3
      vertex 14.0214 14.1737 0
    endloop
  endfacet
  facet normal -0.98078 -0.195116 0
    outer loop
      vertex 14.0214 14.1737 3
      vertex 14.0852 13.853 0
      vertex 14.0852 13.853 3
    endloop
  endfacet
  facet normal 0.831438 -0.555617 0
    outer loop
      vertex 41.4834 12.9781 3
      vertex 41.6651 13.25 0
      vertex 41.6651 13.25 3
    endloop
  endfacet
  facet normal 0.831438 -0.555617 0
    outer loop
      vertex 41.6651 13.25 0
      vertex 41.4834 12.9781 3
      vertex 41.4834 12.9781 0
    endloop
  endfacet
  facet normal -0.946957 0.32136 0
    outer loop
      vertex 14.0852 30.147 0
      vertex 14.1903 30.4567 3
      vertex 14.1903 30.4567 0
    endloop
  endfacet
  facet normal -0.946957 0.32136 0
    outer loop
      vertex 14.1903 30.4567 3
      vertex 14.0852 30.147 0
      vertex 14.0852 30.147 3
    endloop
  endfacet
  facet normal 0.195116 -0.98078 0
    outer loop
      vertex 39.8263 12.0214 0
      vertex 40.147 12.0852 3
      vertex 39.8263 12.0214 3
    endloop
  endfacet
  facet normal 0.195116 -0.98078 0
    outer loop
      vertex 40.147 12.0852 3
      vertex 39.8263 12.0214 0
      vertex 40.147 12.0852 0
    endloop
  endfacet
  facet normal 0.831438 0.555617 0
    outer loop
      vertex 41.6651 30.75 3
      vertex 41.4834 31.0219 0
      vertex 41.4834 31.0219 3
    endloop
  endfacet
  facet normal 0.831438 0.555617 0
    outer loop
      vertex 41.4834 31.0219 0
      vertex 41.6651 30.75 3
      vertex 41.6651 30.75 0
    endloop
  endfacet
  facet normal 0.659262 0.751913 -0
    outer loop
      vertex 41.2678 31.2678 0
      vertex 41.0219 31.4834 3
      vertex 41.2678 31.2678 3
    endloop
  endfacet
  facet normal 0.659262 0.751913 0
    outer loop
      vertex 41.0219 31.4834 3
      vertex 41.2678 31.2678 0
      vertex 41.0219 31.4834 0
    endloop
  endfacet
  facet normal -0.831438 -0.555617 0
    outer loop
      vertex 14.5166 12.9781 0
      vertex 14.3349 13.25 3
      vertex 14.3349 13.25 0
    endloop
  endfacet
  facet normal -0.831438 -0.555617 0
    outer loop
      vertex 14.3349 13.25 3
      vertex 14.5166 12.9781 0
      vertex 14.5166 12.9781 3
    endloop
  endfacet
  facet normal 0.555617 0.831438 -0
    outer loop
      vertex 41.0219 31.4834 0
      vertex 40.75 31.6651 3
      vertex 41.0219 31.4834 3
    endloop
  endfacet
  facet normal 0.555617 0.831438 0
    outer loop
      vertex 40.75 31.6651 3
      vertex 41.0219 31.4834 0
      vertex 40.75 31.6651 0
    endloop
  endfacet
  facet normal 0.0654432 0.997856 -0
    outer loop
      vertex 39.8263 31.9786 0
      vertex 39.5 32 3
      vertex 39.8263 31.9786 3
    endloop
  endfacet
  facet normal 0.0654432 0.997856 0
    outer loop
      vertex 39.5 32 3
      vertex 39.8263 31.9786 0
      vertex 39.5 32 0
    endloop
  endfacet
  facet normal -0.442191 -0.896921 0
    outer loop
      vertex 15.25 12.3349 0
      vertex 15.5433 12.1903 3
      vertex 15.25 12.3349 3
    endloop
  endfacet
  facet normal -0.442191 -0.896921 -0
    outer loop
      vertex 15.5433 12.1903 3
      vertex 15.25 12.3349 0
      vertex 15.5433 12.1903 0
    endloop
  endfacet
  facet normal 0.0654432 -0.997856 0
    outer loop
      vertex 39.5 12 0
      vertex 39.8263 12.0214 3
      vertex 39.5 12 3
    endloop
  endfacet
  facet normal 0.0654432 -0.997856 0
    outer loop
      vertex 39.8263 12.0214 3
      vertex 39.5 12 0
      vertex 39.8263 12.0214 0
    endloop
  endfacet
  facet normal -0.896921 0.442191 0
    outer loop
      vertex 14.1903 30.4567 0
      vertex 14.3349 30.75 3
      vertex 14.3349 30.75 0
    endloop
  endfacet
  facet normal -0.896921 0.442191 0
    outer loop
      vertex 14.3349 30.75 3
      vertex 14.1903 30.4567 0
      vertex 14.1903 30.4567 3
    endloop
  endfacet
  facet normal -0.555617 -0.831438 0
    outer loop
      vertex 14.9781 12.5166 0
      vertex 15.25 12.3349 3
      vertex 14.9781 12.5166 3
    endloop
  endfacet
  facet normal -0.555617 -0.831438 -0
    outer loop
      vertex 15.25 12.3349 3
      vertex 14.9781 12.5166 0
      vertex 15.25 12.3349 0
    endloop
  endfacet
  facet normal -0.946957 -0.32136 0
    outer loop
      vertex 14.1903 13.5433 0
      vertex 14.0852 13.853 3
      vertex 14.0852 13.853 0
    endloop
  endfacet
  facet normal -0.946957 -0.32136 0
    outer loop
      vertex 14.0852 13.853 3
      vertex 14.1903 13.5433 0
      vertex 14.1903 13.5433 3
    endloop
  endfacet
  facet normal -0.659262 0.751913 0
    outer loop
      vertex 14.9781 31.4834 0
      vertex 14.7322 31.2678 3
      vertex 14.9781 31.4834 3
    endloop
  endfacet
  facet normal -0.659262 0.751913 0
    outer loop
      vertex 14.7322 31.2678 3
      vertex 14.9781 31.4834 0
      vertex 14.7322 31.2678 0
    endloop
  endfacet
  facet normal -0.751913 0.659262 0
    outer loop
      vertex 14.5166 31.0219 0
      vertex 14.7322 31.2678 3
      vertex 14.7322 31.2678 0
    endloop
  endfacet
  facet normal -0.751913 0.659262 0
    outer loop
      vertex 14.7322 31.2678 3
      vertex 14.5166 31.0219 0
      vertex 14.5166 31.0219 3
    endloop
  endfacet
  facet normal -0.997856 -0.0654432 0
    outer loop
      vertex 14.0214 14.1737 0
      vertex 14 14.5 3
      vertex 14 14.5 0
    endloop
  endfacet
  facet normal -0.997856 -0.0654432 0
    outer loop
      vertex 14 14.5 3
      vertex 14.0214 14.1737 0
      vertex 14.0214 14.1737 3
    endloop
  endfacet
  facet normal 0.32136 -0.946957 0
    outer loop
      vertex 40.147 12.0852 0
      vertex 40.4567 12.1903 3
      vertex 40.147 12.0852 3
    endloop
  endfacet
  facet normal 0.32136 -0.946957 0
    outer loop
      vertex 40.4567 12.1903 3
      vertex 40.147 12.0852 0
      vertex 40.4567 12.1903 0
    endloop
  endfacet
  facet normal -0.195116 -0.98078 0
    outer loop
      vertex 15.853 12.0852 0
      vertex 16.1737 12.0214 3
      vertex 15.853 12.0852 3
    endloop
  endfacet
  facet normal -0.195116 -0.98078 -0
    outer loop
      vertex 16.1737 12.0214 3
      vertex 15.853 12.0852 0
      vertex 16.1737 12.0214 0
    endloop
  endfacet
  facet normal -0.0654432 -0.997856 0
    outer loop
      vertex 16.1737 12.0214 0
      vertex 16.5 12 3
      vertex 16.1737 12.0214 3
    endloop
  endfacet
  facet normal -0.0654432 -0.997856 -0
    outer loop
      vertex 16.5 12 3
      vertex 16.1737 12.0214 0
      vertex 16.5 12 0
    endloop
  endfacet
  facet normal 0.98078 -0.195116 0
    outer loop
      vertex 41.9148 13.853 3
      vertex 41.9786 14.1737 0
      vertex 41.9786 14.1737 3
    endloop
  endfacet
  facet normal 0.98078 -0.195116 0
    outer loop
      vertex 41.9786 14.1737 0
      vertex 41.9148 13.853 3
      vertex 41.9148 13.853 0
    endloop
  endfacet
  facet normal -0.751913 -0.659262 0
    outer loop
      vertex 14.7322 12.7322 0
      vertex 14.5166 12.9781 3
      vertex 14.5166 12.9781 0
    endloop
  endfacet
  facet normal -0.751913 -0.659262 0
    outer loop
      vertex 14.5166 12.9781 3
      vertex 14.7322 12.7322 0
      vertex 14.7322 12.7322 3
    endloop
  endfacet
  facet normal -0.659262 -0.751913 0
    outer loop
      vertex 14.7322 12.7322 0
      vertex 14.9781 12.5166 3
      vertex 14.7322 12.7322 3
    endloop
  endfacet
  facet normal -0.659262 -0.751913 -0
    outer loop
      vertex 14.9781 12.5166 3
      vertex 14.7322 12.7322 0
      vertex 14.9781 12.5166 0
    endloop
  endfacet
  facet normal -0.98078 0.195116 0
    outer loop
      vertex 14.0214 29.8263 0
      vertex 14.0852 30.147 3
      vertex 14.0852 30.147 0
    endloop
  endfacet
  facet normal -0.98078 0.195116 0
    outer loop
      vertex 14.0852 30.147 3
      vertex 14.0214 29.8263 0
      vertex 14.0214 29.8263 3
    endloop
  endfacet
  facet normal 0.997856 -0.0654432 0
    outer loop
      vertex 41.9786 14.1737 3
      vertex 42 14.5 0
      vertex 42 14.5 3
    endloop
  endfacet
  facet normal 0.997856 -0.0654432 0
    outer loop
      vertex 42 14.5 0
      vertex 41.9786 14.1737 3
      vertex 41.9786 14.1737 0
    endloop
  endfacet
  facet normal 0.32136 0.946957 -0
    outer loop
      vertex 40.4567 31.8097 0
      vertex 40.147 31.9148 3
      vertex 40.4567 31.8097 3
    endloop
  endfacet
  facet normal 0.32136 0.946957 0
    outer loop
      vertex 40.147 31.9148 3
      vertex 40.4567 31.8097 0
      vertex 40.147 31.9148 0
    endloop
  endfacet
  facet normal 0.751913 -0.659262 0
    outer loop
      vertex 41.2678 12.7322 3
      vertex 41.4834 12.9781 0
      vertex 41.4834 12.9781 3
    endloop
  endfacet
  facet normal 0.751913 -0.659262 0
    outer loop
      vertex 41.4834 12.9781 0
      vertex 41.2678 12.7322 3
      vertex 41.2678 12.7322 0
    endloop
  endfacet
  facet normal 0.659262 -0.751913 0
    outer loop
      vertex 41.0219 12.5166 0
      vertex 41.2678 12.7322 3
      vertex 41.0219 12.5166 3
    endloop
  endfacet
  facet normal 0.659262 -0.751913 0
    outer loop
      vertex 41.2678 12.7322 3
      vertex 41.0219 12.5166 0
      vertex 41.2678 12.7322 0
    endloop
  endfacet
  facet normal 0.946957 -0.32136 0
    outer loop
      vertex 41.8097 13.5433 3
      vertex 41.9148 13.853 0
      vertex 41.9148 13.853 3
    endloop
  endfacet
  facet normal 0.946957 -0.32136 0
    outer loop
      vertex 41.9148 13.853 0
      vertex 41.8097 13.5433 3
      vertex 41.8097 13.5433 0
    endloop
  endfacet
  facet normal 0 0 -1
    outer loop
      vertex 39.5 12 0
      vertex 42 14.5 0
      vertex 41.9786 14.1737 0
    endloop
  endfacet
  facet normal -0 0 -1
    outer loop
      vertex 42 14.5 0
      vertex 39.5 12 0
      vertex 42 29.5 0
    endloop
  endfacet
  facet normal 0 0 -1
    outer loop
      vertex 39.5 12 0
      vertex 41.9786 14.1737 0
      vertex 41.9148 13.853 0
    endloop
  endfacet
  facet normal 0 0 -1
    outer loop
      vertex 39.5 32 0
      vertex 42 29.5 0
      vertex 39.5 12 0
    endloop
  endfacet
  facet normal 0 0 -1
    outer loop
      vertex 39.5 12 0
      vertex 41.9148 13.853 0
      vertex 41.8097 13.5433 0
    endloop
  endfacet
  facet normal 0 0 -1
    outer loop
      vertex 42 29.5 0
      vertex 39.5 32 0
      vertex 41.9786 29.8263 0
    endloop
  endfacet
  facet normal 0 0 -1
    outer loop
      vertex 39.5 12 0
      vertex 41.8097 13.5433 0
      vertex 41.6651 13.25 0
    endloop
  endfacet
  facet normal 0 0 -1
    outer loop
      vertex 41.9786 29.8263 0
      vertex 39.5 32 0
      vertex 41.9148 30.147 0
    endloop
  endfacet
  facet normal 0 0 -1
    outer loop
      vertex 39.5 12 0
      vertex 41.6651 13.25 0
      vertex 41.4834 12.9781 0
    endloop
  endfacet
  facet normal 0 0 -1
    outer loop
      vertex 41.9148 30.147 0
      vertex 39.5 32 0
      vertex 41.8097 30.4567 0
    endloop
  endfacet
  facet normal 0 0 -1
    outer loop
      vertex 39.5 12 0
      vertex 41.4834 12.9781 0
      vertex 41.2678 12.7322 0
    endloop
  endfacet
  facet normal 0 0 -1
    outer loop
      vertex 41.8097 30.4567 0
      vertex 39.5 32 0
      vertex 41.6651 30.75 0
    endloop
  endfacet
  facet normal 0 0 -1
    outer loop
      vertex 39.5 12 0
      vertex 41.2678 12.7322 0
      vertex 41.0219 12.5166 0
    endloop
  endfacet
  facet normal 0 0 -1
    outer loop
      vertex 41.6651 30.75 0
      vertex 39.5 32 0
      vertex 41.4834 31.0219 0
    endloop
  endfacet
  facet normal 0 0 -1
    outer loop
      vertex 39.5 12 0
      vertex 41.0219 12.5166 0
      vertex 40.75 12.3349 0
    endloop
  endfacet
  facet normal 0 0 -1
    outer loop
      vertex 41.4834 31.0219 0
      vertex 39.5 32 0
      vertex 41.2678 31.2678 0
    endloop
  endfacet
  facet normal 0 0 -1
    outer loop
      vertex 39.5 12 0
      vertex 40.75 12.3349 0
      vertex 40.4567 12.1903 0
    endloop
  endfacet
  facet normal 0 0 -1
    outer loop
      vertex 41.2678 31.2678 0
      vertex 39.5 32 0
      vertex 41.0219 31.4834 0
    endloop
  endfacet
  facet normal 0 0 -1
    outer loop
      vertex 39.5 12 0
      vertex 40.4567 12.1903 0
      vertex 40.147 12.0852 0
    endloop
  endfacet
  facet normal 0 0 -1
    outer loop
      vertex 41.0219 31.4834 0
      vertex 39.5 32 0
      vertex 40.75 31.6651 0
    endloop
  endfacet
  facet normal 0 0 -1
    outer loop
      vertex 39.5 12 0
      vertex 40.147 12.0852 0
      vertex 39.8263 12.0214 0
    endloop
  endfacet
  facet normal 0 0 -1
    outer loop
      vertex 40.75 31.6651 0
      vertex 39.5 32 0
      vertex 40.4567 31.8097 0
    endloop
  endfacet
  facet normal 0 0 -1
    outer loop
      vertex 40.4567 31.8097 0
      vertex 39.5 32 0
      vertex 40.147 31.9148 0
    endloop
  endfacet
  facet normal 0 0 -1
    outer loop
      vertex 40.147 31.9148 0
      vertex 39.5 32 0
      vertex 39.8263 31.9786 0
    endloop
  endfacet
  facet normal 0 0 -1
    outer loop
      vertex 16.5 12 0
      vertex 39.5 32 0
      vertex 39.5 12 0
    endloop
  endfacet
  facet normal 0 0 -1
    outer loop
      vertex 16.5 12 0
      vertex 16.5 32 0
      vertex 39.5 32 0
    endloop
  endfacet
  facet normal 0 0 -1
    outer loop
      vertex 14 14.5 0
      vertex 16.5 12 0
      vertex 16.1737 12.0214 0
    endloop
  endfacet
  facet normal 0 0 -1
    outer loop
      vertex 16.5 12 0
      vertex 14 14.5 0
      vertex 16.5 32 0
    endloop
  endfacet
  facet normal 0 0 -1
    outer loop
      vertex 14 14.5 0
      vertex 16.1737 12.0214 0
      vertex 15.853 12.0852 0
    endloop
  endfacet
  facet normal 0 0 -1
    outer loop
      vertex 14 29.5 0
      vertex 16.5 32 0
      vertex 14 14.5 0
    endloop
  endfacet
  facet normal 0 0 -1
    outer loop
      vertex 14 14.5 0
      vertex 15.853 12.0852 0
      vertex 15.5433 12.1903 0
    endloop
  endfacet
  facet normal 0 0 -1
    outer loop
      vertex 16.5 32 0
      vertex 14 29.5 0
      vertex 16.1737 31.9786 0
    endloop
  endfacet
  facet normal 0 0 -1
    outer loop
      vertex 14 14.5 0
      vertex 15.5433 12.1903 0
      vertex 15.25 12.3349 0
    endloop
  endfacet
  facet normal 0 0 -1
    outer loop
      vertex 16.1737 31.9786 0
      vertex 14 29.5 0
      vertex 15.853 31.9148 0
    endloop
  endfacet
  facet normal 0 0 -1
    outer loop
      vertex 14 14.5 0
      vertex 15.25 12.3349 0
      vertex 14.9781 12.5166 0
    endloop
  endfacet
  facet normal 0 0 -1
    outer loop
      vertex 15.853 31.9148 0
      vertex 14 29.5 0
      vertex 15.5433 31.8097 0
    endloop
  endfacet
  facet normal 0 0 -1
    outer loop
      vertex 14 14.5 0
      vertex 14.9781 12.5166 0
      vertex 14.7322 12.7322 0
    endloop
  endfacet
  facet normal 0 0 -1
    outer loop
      vertex 15.5433 31.8097 0
      vertex 14 29.5 0
      vertex 15.25 31.6651 0
    endloop
  endfacet
  facet normal 0 0 -1
    outer loop
      vertex 14 14.5 0
      vertex 14.7322 12.7322 0
      vertex 14.5166 12.9781 0
    endloop
  endfacet
  facet normal 0 0 -1
    outer loop
      vertex 15.25 31.6651 0
      vertex 14 29.5 0
      vertex 14.9781 31.4834 0
    endloop
  endfacet
  facet normal 0 0 -1
    outer loop
      vertex 14 14.5 0
      vertex 14.5166 12.9781 0
      vertex 14.3349 13.25 0
    endloop
  endfacet
  facet normal 0 0 -1
    outer loop
      vertex 14.9781 31.4834 0
      vertex 14 29.5 0
      vertex 14.7322 31.2678 0
    endloop
  endfacet
  facet normal 0 0 -1
    outer loop
      vertex 14 14.5 0
      vertex 14.3349 13.25 0
      vertex 14.1903 13.5433 0
    endloop
  endfacet
  facet normal 0 0 -1
    outer loop
      vertex 14.7322 31.2678 0
      vertex 14 29.5 0
      vertex 14.5166 31.0219 0
    endloop
  endfacet
  facet normal 0 0 -1
    outer loop
      vertex 14 14.5 0
      vertex 14.1903 13.5433 0
      vertex 14.0852 13.853 0
    endloop
  endfacet
  facet normal 0 0 -1
    outer loop
      vertex 14.5166 31.0219 0
      vertex 14 29.5 0
      vertex 14.3349 30.75 0
    endloop
  endfacet
  facet normal 0 0 -1
    outer loop
      vertex 14 14.5 0
      vertex 14.0852 13.853 0
      vertex 14.0214 14.1737 0
    endloop
  endfacet
  facet normal 0 0 -1
    outer loop
      vertex 14.3349 30.75 0
      vertex 14 29.5 0
      vertex 14.1903 30.4567 0
    endloop
  endfacet
  facet normal 0 0 -1
    outer loop
      vertex 14.1903 30.4567 0
      vertex 14 29.5 0
      vertex 14.0852 30.147 0
    endloop
  endfacet
  facet normal 0 0 -1
    outer loop
      vertex 14.0852 30.147 0
      vertex 14 29.5 0
      vertex 14.0214 29.8263 0
    endloop
  endfacet
  facet normal 0 0 1
    outer loop
      vertex 39.5 32 3
      vertex 42 29.5 3
      vertex 41.9786 29.8263 3
    endloop
  endfacet
  facet normal 0 0 1
    outer loop
      vertex 42 29.5 3
      vertex 33.88 27 3
      vertex 42 14.5 3
    endloop
  endfacet
  facet normal 0 0 1
    outer loop
      vertex 39.5 32 3
      vertex 41.9786 29.8263 3
      vertex 41.9148 30.147 3
    endloop
  endfacet
  facet normal -0 0 1
    outer loop
      vertex 33.88 17 3
      vertex 42 14.5 3
      vertex 33.88 27 3
    endloop
  endfacet
  facet normal 0 0 1
    outer loop
      vertex 39.5 32 3
      vertex 41.9148 30.147 3
      vertex 41.8097 30.4567 3
    endloop
  endfacet
  facet normal 0 -0 1
    outer loop
      vertex 39.5 12 3
      vertex 42 14.5 3
      vertex 33.88 17 3
    endloop
  endfacet
  facet normal 0 0 1
    outer loop
      vertex 39.5 32 3
      vertex 41.8097 30.4567 3
      vertex 41.6651 30.75 3
    endloop
  endfacet
  facet normal 0 0 1
    outer loop
      vertex 42 14.5 3
      vertex 39.5 12 3
      vertex 41.9786 14.1737 3
    endloop
  endfacet
  facet normal 0 0 1
    outer loop
      vertex 39.5 32 3
      vertex 41.6651 30.75 3
      vertex 41.4834 31.0219 3
    endloop
  endfacet
  facet normal 0 0 1
    outer loop
      vertex 41.9786 14.1737 3
      vertex 39.5 12 3
      vertex 41.9148 13.853 3
    endloop
  endfacet
  facet normal 0 0 1
    outer loop
      vertex 39.5 32 3
      vertex 41.4834 31.0219 3
      vertex 41.2678 31.2678 3
    endloop
  endfacet
  facet normal 0 0 1
    outer loop
      vertex 41.9148 13.853 3
      vertex 39.5 12 3
      vertex 41.8097 13.5433 3
    endloop
  endfacet
  facet normal 0 0 1
    outer loop
      vertex 39.5 32 3
      vertex 41.2678 31.2678 3
      vertex 41.0219 31.4834 3
    endloop
  endfacet
  facet normal 0 0 1
    outer loop
      vertex 41.8097 13.5433 3
      vertex 39.5 12 3
      vertex 41.6651 13.25 3
    endloop
  endfacet
  facet normal 0 0 1
    outer loop
      vertex 39.5 32 3
      vertex 41.0219 31.4834 3
      vertex 40.75 31.6651 3
    endloop
  endfacet
  facet normal 0 0 1
    outer loop
      vertex 41.6651 13.25 3
      vertex 39.5 12 3
      vertex 41.4834 12.9781 3
    endloop
  endfacet
  facet normal 0 0 1
    outer loop
      vertex 39.5 32 3
      vertex 40.75 31.6651 3
      vertex 40.4567 31.8097 3
    endloop
  endfacet
  facet normal 0 0 1
    outer loop
      vertex 41.4834 12.9781 3
      vertex 39.5 12 3
      vertex 41.2678 12.7322 3
    endloop
  endfacet
  facet normal 0 0 1
    outer loop
      vertex 39.5 32 3
      vertex 40.4567 31.8097 3
      vertex 40.147 31.9148 3
    endloop
  endfacet
  facet normal 0 0 1
    outer loop
      vertex 41.2678 12.7322 3
      vertex 39.5 12 3
      vertex 41.0219 12.5166 3
    endloop
  endfacet
  facet normal 0 0 1
    outer loop
      vertex 39.5 32 3
      vertex 40.147 31.9148 3
      vertex 39.8263 31.9786 3
    endloop
  endfacet
  facet normal 0 0 1
    outer loop
      vertex 41.0219 12.5166 3
      vertex 39.5 12 3
      vertex 40.75 12.3349 3
    endloop
  endfacet
  facet normal 0 0 1
    outer loop
      vertex 42 29.5 3
      vertex 39.5 32 3
      vertex 33.88 27 3
    endloop
  endfacet
  facet normal 0 0 1
    outer loop
      vertex 40.75 12.3349 3
      vertex 39.5 12 3
      vertex 40.4567 12.1903 3
    endloop
  endfacet
  facet normal 0 0 1
    outer loop
      vertex 40.4567 12.1903 3
      vertex 39.5 12 3
      vertex 40.147 12.0852 3
    endloop
  endfacet
  facet normal 0 0 1
    outer loop
      vertex 39.5 32 3
      vertex 22.12 27 3
      vertex 33.88 27 3
    endloop
  endfacet
  facet normal -0 0 1
    outer loop
      vertex 14 29.5 3
      vertex 22.12 27 3
      vertex 16.5 32 3
    endloop
  endfacet
  facet normal -0 0 1
    outer loop
      vertex 16.5 32 3
      vertex 22.12 27 3
      vertex 39.5 32 3
    endloop
  endfacet
  facet normal 0 0 1
    outer loop
      vertex 40.147 12.0852 3
      vertex 39.5 12 3
      vertex 39.8263 12.0214 3
    endloop
  endfacet
  facet normal -0 0 1
    outer loop
      vertex 22.12 17 3
      vertex 39.5 12 3
      vertex 33.88 17 3
    endloop
  endfacet
  facet normal 0 0 1
    outer loop
      vertex 22.12 17 3
      vertex 16.5 12 3
      vertex 39.5 12 3
    endloop
  endfacet
  facet normal 0 0 1
    outer loop
      vertex 22.12 27 3
      vertex 14 29.5 3
      vertex 22.12 17 3
    endloop
  endfacet
  facet normal 0 0 1
    outer loop
      vertex 14 29.5 3
      vertex 16.5 32 3
      vertex 16.1737 31.9786 3
    endloop
  endfacet
  facet normal 0 0 1
    outer loop
      vertex 14 14.5 3
      vertex 22.12 17 3
      vertex 14 29.5 3
    endloop
  endfacet
  facet normal 0 0 1
    outer loop
      vertex 14 29.5 3
      vertex 16.1737 31.9786 3
      vertex 15.853 31.9148 3
    endloop
  endfacet
  facet normal 0 0 1
    outer loop
      vertex 22.12 17 3
      vertex 14 14.5 3
      vertex 16.5 12 3
    endloop
  endfacet
  facet normal 0 0 1
    outer loop
      vertex 14 29.5 3
      vertex 15.853 31.9148 3
      vertex 15.5433 31.8097 3
    endloop
  endfacet
  facet normal 0 0 1
    outer loop
      vertex 16.5 12 3
      vertex 14 14.5 3
      vertex 16.1737 12.0214 3
    endloop
  endfacet
  facet normal 0 0 1
    outer loop
      vertex 14 29.5 3
      vertex 15.5433 31.8097 3
      vertex 15.25 31.6651 3
    endloop
  endfacet
  facet normal 0 0 1
    outer loop
      vertex 16.1737 12.0214 3
      vertex 14 14.5 3
      vertex 15.853 12.0852 3
    endloop
  endfacet
  facet normal 0 0 1
    outer loop
      vertex 14 29.5 3
      vertex 15.25 31.6651 3
      vertex 14.9781 31.4834 3
    endloop
  endfacet
  facet normal 0 0 1
    outer loop
      vertex 15.853 12.0852 3
      vertex 14 14.5 3
      vertex 15.5433 12.1903 3
    endloop
  endfacet
  facet normal 0 0 1
    outer loop
      vertex 14 29.5 3
      vertex 14.9781 31.4834 3
      vertex 14.7322 31.2678 3
    endloop
  endfacet
  facet normal 0 0 1
    outer loop
      vertex 15.5433 12.1903 3
      vertex 14 14.5 3
      vertex 15.25 12.3349 3
    endloop
  endfacet
  facet normal 0 0 1
    outer loop
      vertex 14 29.5 3
      vertex 14.7322 31.2678 3
      vertex 14.5166 31.0219 3
    endloop
  endfacet
  facet normal 0 0 1
    outer loop
      vertex 15.25 12.3349 3
      vertex 14 14.5 3
      vertex 14.9781 12.5166 3
    endloop
  endfacet
  facet normal 0 0 1
    outer loop
      vertex 14 29.5 3
      vertex 14.5166 31.0219 3
      vertex 14.3349 30.75 3
    endloop
  endfacet
  facet normal 0 0 1
    outer loop
      vertex 14.9781 12.5166 3
      vertex 14 14.5 3
      vertex 14.7322 12.7322 3
    endloop
  endfacet
  facet normal 0 0 1
    outer loop
      vertex 14 29.5 3
      vertex 14.3349 30.75 3
      vertex 14.1903 30.4567 3
    endloop
  endfacet
  facet normal 0 0 1
    outer loop
      vertex 14.7322 12.7322 3
      vertex 14 14.5 3
      vertex 14.5166 12.9781 3
    endloop
  endfacet
  facet normal 0 0 1
    outer loop
      vertex 14 29.5 3
      vertex 14.1903 30.4567 3
      vertex 14.0852 30.147 3
    endloop
  endfacet
  facet normal 0 0 1
    outer loop
      vertex 14.5166 12.9781 3
      vertex 14 14.5 3
      vertex 14.3349 13.25 3
    endloop
  endfacet
  facet normal 0 0 1
    outer loop
      vertex 14 29.5 3
      vertex 14.0852 30.147 3
      vertex 14.0214 29.8263 3
    endloop
  endfacet
  facet normal 0 0 1
    outer loop
      vertex 14.3349 13.25 3
      vertex 14 14.5 3
      vertex 14.1903 13.5433 3
    endloop
  endfacet
  facet normal 0 0 1
    outer loop
      vertex 14.1903 13.5433 3
      vertex 14 14.5 3
      vertex 14.0852 13.853 3
    endloop
  endfacet
  facet normal 0 0 1
    outer loop
      vertex 14.0852 13.853 3
      vertex 14 14.5 3
      vertex 14.0214 14.1737 3
    endloop
  endfacet
  facet normal -0.997856 0.0654432 0
    outer loop
      vertex 14 29.5 0
      vertex 14.0214 29.8263 3
      vertex 14.0214 29.8263 0
    endloop
  endfacet
  facet normal -0.997856 0.0654432 0
    outer loop
      vertex 14.0214 29.8263 3
      vertex 14 29.5 0
      vertex 14 29.5 3
    endloop
  endfacet
endsolid OpenSCAD_Model
