<svg xmlns="http://www.w3.org/2000/svg" width="136.569mm" height="292.000mm" viewBox="-65.954 -12.000 136.569 292.000">
<title>V6 sole / textile interface overlay</title>
<g transform="translate(0,12.000)"><path d="M 11.055,268.000 L -11.055,268.000 L -13.073,266.879 L -15.063,265.757 L -17.008,264.636 L -18.890,263.515 L -20.690,262.393 L -22.391,261.272 L -23.975,260.151 L -25.424,259.029 L -26.720,257.908 L -27.845,256.787 L -28.782,255.665 L -29.512,254.544 L -30.138,253.423 L -30.753,252.301 L -31.354,251.180 L -31.939,250.059 L -32.505,248.937 L -33.049,247.816 L -33.570,246.695 L -34.063,245.573 L -34.528,244.452 L -34.960,243.331 L -35.359,242.209 L -35.720,241.088 L -36.042,239.967 L -36.322,238.845 L -36.557,237.724 L -36.745,236.603 L -36.886,235.481 L -37.011,234.360 L -37.132,233.238 L -37.248,232.117 L -37.360,230.996 L -37.468,229.874 L -37.572,228.753 L -37.671,227.632 L -37.767,226.510 L -37.859,225.389 L -37.947,224.268 L -38.032,223.146 L -38.113,222.025 L -38.191,220.904 L -38.266,219.782 L -38.338,218.661 L -38.407,217.540 L -38.474,216.418 L -38.537,215.297 L -38.599,214.176 L -38.657,213.054 L -38.714,211.933 L -38.768,210.812 L -38.821,209.690 L -38.870,208.569 L -38.914,207.448 L -38.950,206.326 L -38.979,205.205 L -39.002,204.084 L -39.019,202.962 L -39.031,201.841 L -39.037,200.720 L -39.039,199.598 L -39.036,198.477 L -39.029,197.356 L -39.018,196.234 L -39.005,195.113 L -38.988,193.992 L -38.969,192.870 L -38.948,191.749 L -38.925,190.628 L -38.901,189.506 L -38.876,188.385 L -38.850,187.264 L -38.825,186.142 L -38.800,185.021 L -38.775,183.900 L -38.752,182.778 L -38.730,181.657 L -38.710,180.536 L -38.692,179.414 L -38.677,178.293 L -38.665,177.172 L -38.656,176.050 L -38.651,174.929 L -38.650,173.808 L -38.654,172.686 L -38.663,171.565 L -38.676,170.444 L -38.694,169.322 L -38.716,168.201 L -38.742,167.079 L -38.773,165.958 L -38.807,164.837 L -38.845,163.715 L -38.887,162.594 L -38.932,161.473 L -38.981,160.351 L -39.034,159.230 L -39.090,158.109 L -39.148,156.987 L -39.210,155.866 L -39.275,154.745 L -39.343,153.623 L -39.413,152.502 L -39.486,151.381 L -39.562,150.259 L -39.639,149.138 L -39.719,148.017 L -39.802,146.895 L -39.886,145.774 L -39.972,144.653 L -40.060,143.531 L -40.149,142.410 L -40.240,141.289 L -40.333,140.167 L -40.427,139.046 L -40.536,137.925 L -40.662,136.803 L -40.806,135.682 L -40.965,134.561 L -41.140,133.439 L -41.328,132.318 L -41.530,131.197 L -41.745,130.075 L -41.970,128.954 L -42.207,127.833 L -42.452,126.711 L -42.707,125.590 L -42.969,124.469 L -43.238,123.347 L -43.513,122.226 L -43.793,121.105 L -44.077,119.983 L -44.364,118.862 L -44.653,117.741 L -44.944,116.619 L -45.235,115.498 L -45.525,114.377 L -45.814,113.255 L -46.101,112.134 L -46.384,111.013 L -46.663,109.891 L -46.937,108.770 L -47.205,107.649 L -47.466,106.527 L -47.719,105.406 L -47.963,104.285 L -48.197,103.163 L -48.421,102.042 L -48.639,100.921 L -48.862,99.799 L -49.088,98.678 L -49.317,97.556 L -49.549,96.435 L -49.781,95.314 L -50.013,94.192 L -50.245,93.071 L -50.474,91.950 L -50.701,90.828 L -50.923,89.707 L -51.141,88.586 L -51.353,87.464 L -51.558,86.343 L -51.755,85.222 L -51.944,84.100 L -52.123,82.979 L -52.291,81.858 L -52.447,80.736 L -52.591,79.615 L -52.721,78.494 L -52.836,77.372 L -52.936,76.251 L -53.019,75.130 L -53.093,74.008 L -53.169,72.887 L -53.245,71.766 L -53.321,70.644 L -53.396,69.523 L -53.469,68.402 L -53.541,67.280 L -53.609,66.159 L -53.673,65.038 L -53.732,63.916 L -53.786,62.795 L -53.834,61.674 L -53.875,60.552 L -53.908,59.431 L -53.933,58.310 L -53.948,57.188 L -53.954,56.067 L -53.948,54.946 L -53.931,53.824 L -53.902,52.703 L -53.860,51.582 L -53.804,50.460 L -53.734,49.339 L -53.648,48.218 L -53.549,47.096 L -53.440,45.975 L -53.321,44.854 L -53.193,43.732 L -53.056,42.611 L -52.912,41.490 L -52.760,40.368 L -52.602,39.247 L -52.438,38.126 L -52.269,37.004 L -52.095,35.883 L -51.916,34.762 L -51.735,33.640 L -51.551,32.519 L -51.364,31.397 L -51.176,30.276 L -50.987,29.155 L -50.798,28.033 L -50.609,26.912 L -50.386,25.791 L -50.080,24.669 L -49.695,23.548 L -49.237,22.427 L -48.708,21.305 L -48.114,20.184 L -47.459,19.063 L -46.748,17.941 L -45.984,16.820 L -45.173,15.699 L -44.319,14.577 L -43.425,13.456 L -42.498,12.335 L -41.540,11.213 L -40.496,10.092 L -39.096,8.971 L -37.346,7.849 L -35.287,6.728 L -32.962,5.607 L -30.414,4.485 L -27.687,3.364 L -24.821,2.243 L -21.862,1.121 L -18.850,0.000 L 28.850,0.000 L 31.862,1.121 L 34.821,2.243 L 37.687,3.364 L 40.414,4.485 L 42.962,5.607 L 45.287,6.728 L 47.346,7.849 L 49.096,8.971 L 50.496,10.092 L 51.536,11.213 L 52.463,12.335 L 53.328,13.456 L 54.133,14.577 L 54.874,15.699 L 55.552,16.820 L 56.164,17.941 L 56.711,19.063 L 57.190,20.184 L 57.601,21.305 L 57.943,22.427 L 58.214,23.548 L 58.413,24.669 L 58.539,25.791 L 58.592,26.912 L 58.609,28.033 L 58.615,29.155 L 58.612,30.276 L 58.601,31.397 L 58.580,32.519 L 58.552,33.640 L 58.516,34.762 L 58.472,35.883 L 58.422,37.004 L 58.366,38.126 L 58.304,39.247 L 58.237,40.368 L 58.164,41.490 L 58.087,42.611 L 58.006,43.732 L 57.922,44.854 L 57.834,45.975 L 57.744,47.096 L 57.652,48.218 L 57.552,49.339 L 57.441,50.460 L 57.317,51.582 L 57.183,52.703 L 57.038,53.824 L 56.882,54.946 L 56.718,56.067 L 56.544,57.188 L 56.362,58.310 L 56.172,59.431 L 55.975,60.552 L 55.771,61.674 L 55.561,62.795 L 55.346,63.916 L 55.125,65.038 L 54.900,66.159 L 54.671,67.280 L 54.439,68.402 L 54.204,69.523 L 53.966,70.644 L 53.727,71.766 L 53.487,72.887 L 53.246,74.008 L 53.006,75.130 L 52.754,76.251 L 52.483,77.372 L 52.196,78.494 L 51.892,79.615 L 51.574,80.736 L 51.242,81.858 L 50.898,82.979 L 50.543,84.100 L 50.179,85.222 L 49.806,86.343 L 49.425,87.464 L 49.039,88.586 L 48.648,89.707 L 48.254,90.828 L 47.857,91.950 L 47.459,93.071 L 47.062,94.192 L 46.667,95.314 L 46.274,96.435 L 45.885,97.556 L 45.502,98.678 L 45.125,99.799 L 44.756,100.921 L 44.396,102.042 L 44.028,103.163 L 43.646,104.285 L 43.251,105.406 L 42.843,106.527 L 42.426,107.649 L 42.000,108.770 L 41.566,109.891 L 41.126,111.013 L 40.682,112.134 L 40.235,113.255 L 39.786,114.377 L 39.337,115.498 L 38.889,116.619 L 38.444,117.741 L 38.003,118.862 L 37.568,119.983 L 37.140,121.105 L 36.720,122.226 L 36.310,123.347 L 35.912,124.469 L 35.526,125.590 L 35.155,126.711 L 34.799,127.833 L 34.461,128.954 L 34.141,130.075 L 33.841,131.197 L 33.563,132.318 L 33.308,133.439 L 33.077,134.561 L 32.873,135.682 L 32.695,136.803 L 32.546,137.925 L 32.428,139.046 L 32.333,140.167 L 32.240,141.289 L 32.149,142.410 L 32.060,143.531 L 31.972,144.653 L 31.886,145.774 L 31.802,146.895 L 31.719,148.017 L 31.639,149.138 L 31.562,150.259 L 31.486,151.381 L 31.413,152.502 L 31.343,153.623 L 31.275,154.745 L 31.210,155.866 L 31.148,156.987 L 31.090,158.109 L 31.034,159.230 L 30.981,160.351 L 30.932,161.473 L 30.887,162.594 L 30.845,163.715 L 30.807,164.837 L 30.773,165.958 L 30.742,167.079 L 30.716,168.201 L 30.694,169.322 L 30.676,170.444 L 30.663,171.565 L 30.654,172.686 L 30.650,173.808 L 30.655,174.929 L 30.680,176.050 L 30.726,177.172 L 30.791,178.293 L 30.874,179.414 L 30.974,180.536 L 31.089,181.657 L 31.217,182.778 L 31.358,183.900 L 31.510,185.021 L 31.672,186.142 L 31.841,187.264 L 32.018,188.385 L 32.201,189.506 L 32.387,190.628 L 32.577,191.749 L 32.768,192.870 L 32.959,193.992 L 33.148,195.113 L 33.335,196.234 L 33.518,197.356 L 33.696,198.477 L 33.867,199.598 L 34.030,200.720 L 34.183,201.841 L 34.326,202.962 L 34.456,204.084 L 34.572,205.205 L 34.674,206.326 L 34.759,207.448 L 34.827,208.569 L 34.878,209.690 L 34.922,210.812 L 34.960,211.933 L 34.993,213.054 L 35.021,214.176 L 35.044,215.297 L 35.062,216.418 L 35.075,217.540 L 35.084,218.661 L 35.089,219.782 L 35.091,220.904 L 35.088,222.025 L 35.082,223.146 L 35.073,224.268 L 35.061,225.389 L 35.046,226.510 L 35.029,227.632 L 35.009,228.753 L 34.987,229.874 L 34.964,230.996 L 34.938,232.117 L 34.912,233.238 L 34.884,234.360 L 34.854,235.481 L 34.817,236.603 L 34.749,237.724 L 34.648,238.845 L 34.513,239.967 L 34.344,241.088 L 34.140,242.209 L 33.902,243.331 L 33.629,244.452 L 33.320,245.573 L 32.975,246.695 L 32.593,247.816 L 32.174,248.937 L 31.718,250.059 L 31.224,251.180 L 30.692,252.301 L 30.121,253.423 L 29.512,254.544 L 28.782,255.665 L 27.845,256.787 L 26.720,257.908 L 25.424,259.029 L 23.975,260.151 L 22.391,261.272 L 20.690,262.393 L 18.890,263.515 L 17.008,264.636 L 15.063,265.757 L 13.073,266.879 L 11.055,268.000 Z" fill="none" stroke="#000" stroke-width="0.45"/><path d="M 10.459,265.700 L -10.459,265.700 L -11.950,264.871 L -13.924,263.759 L -15.845,262.652 L -17.693,261.550 L -19.449,260.457 L -21.094,259.373 L -22.606,258.302 L -23.967,257.249 L -25.154,256.222 L -26.147,255.232 L -26.929,254.296 L -27.541,253.354 L -28.126,252.309 L -28.731,251.205 L -29.321,250.105 L -29.893,249.009 L -30.444,247.917 L -30.972,246.830 L -31.474,245.747 L -31.948,244.670 L -32.392,243.598 L -32.804,242.531 L -33.180,241.471 L -33.520,240.418 L -33.820,239.371 L -34.080,238.330 L -34.297,237.297 L -34.469,236.269 L -34.602,235.210 L -34.725,234.109 L -34.845,232.997 L -34.960,231.884 L -35.071,230.772 L -35.178,229.659 L -35.281,228.546 L -35.380,227.432 L -35.475,226.319 L -35.566,225.205 L -35.654,224.091 L -35.738,222.976 L -35.819,221.862 L -35.897,220.747 L -35.971,219.632 L -36.043,218.517 L -36.112,217.401 L -36.178,216.285 L -36.241,215.169 L -36.302,214.053 L -36.360,212.936 L -36.417,211.820 L -36.471,210.702 L -36.523,209.586 L -36.572,208.474 L -36.615,207.366 L -36.651,206.259 L -36.680,205.151 L -36.703,204.043 L -36.720,202.933 L -36.731,201.823 L -36.737,200.712 L -36.739,199.600 L -36.736,198.487 L -36.729,197.374 L -36.718,196.259 L -36.705,195.144 L -36.688,194.028 L -36.669,192.912 L -36.648,191.794 L -36.625,190.676 L -36.601,189.557 L -36.576,188.437 L -36.551,187.316 L -36.526,186.195 L -36.500,185.073 L -36.476,183.950 L -36.452,182.826 L -36.452,182.823 L -36.430,181.702 L -36.430,181.698 L -36.410,180.577 L -36.410,180.572 L -36.392,179.451 L -36.392,179.445 L -36.377,178.324 L -36.377,178.318 L -36.365,177.196 L -36.365,177.189 L -36.356,176.068 L -36.356,176.060 L -36.351,174.939 L -36.351,174.930 L -36.350,173.809 L -36.350,173.799 L -36.354,172.678 L -36.354,172.668 L -36.363,171.547 L -36.363,171.538 L -36.376,170.416 L -36.377,170.407 L -36.394,169.286 L -36.394,169.277 L -36.416,168.156 L -36.417,168.147 L -36.443,167.026 L -36.443,167.017 L -36.473,165.896 L -36.474,165.888 L -36.508,164.767 L -36.508,164.759 L -36.546,163.637 L -36.547,163.630 L -36.588,162.508 L -36.589,162.501 L -36.634,161.380 L -36.635,161.372 L -36.684,160.251 L -36.684,160.244 L -36.736,159.123 L -36.737,159.116 L -36.792,157.995 L -36.793,157.988 L -36.852,156.867 L -36.852,156.861 L -36.914,155.739 L -36.914,155.733 L -36.979,154.612 L -36.979,154.606 L -37.047,153.485 L -37.047,153.479 L -37.118,152.358 L -37.118,152.353 L -37.191,151.231 L -37.191,151.226 L -37.267,150.105 L -37.267,150.100 L -37.345,148.979 L -37.345,148.974 L -37.425,147.853 L -37.426,147.849 L -37.508,146.727 L -37.508,146.723 L -37.592,145.602 L -37.592,145.598 L -37.678,144.477 L -37.679,144.473 L -37.767,143.352 L -37.767,143.348 L -37.856,142.227 L -37.857,142.224 L -37.948,141.103 L -37.948,141.100 L -38.040,139.978 L -38.041,139.974 L -38.135,138.853 L -38.138,138.824 L -38.246,137.703 L -38.250,137.667 L -38.377,136.546 L -38.381,136.512 L -38.524,135.390 L -38.528,135.358 L -38.688,134.237 L -38.692,134.207 L -38.867,133.086 L -38.871,133.058 L -39.060,131.936 L -39.065,131.910 L -39.267,130.789 L -39.271,130.765 L -39.485,129.644 L -39.490,129.621 L -39.716,128.500 L -39.720,128.480 L -39.956,127.359 L -39.960,127.340 L -40.206,126.219 L -40.209,126.202 L -40.464,125.081 L -40.467,125.066 L -40.729,123.945 L -40.732,123.932 L -41.001,122.811 L -41.004,122.800 L -41.279,121.678 L -41.281,121.669 L -41.561,120.548 L -41.563,120.540 L -41.847,119.419 L -41.849,119.413 L -42.136,118.291 L -42.137,118.287 L -42.426,117.166 L -42.427,117.164 L -42.717,116.042 L -43.008,114.921 L -43.298,113.801 L -43.586,112.683 L -43.872,111.567 L -44.153,110.453 L -44.430,109.341 L -44.701,108.230 L -44.966,107.121 L -45.224,106.014 L -45.473,104.908 L -45.713,103.805 L -45.944,102.703 L -46.164,101.597 L -46.381,100.482 L -46.383,100.473 L -46.606,99.351 L -46.607,99.344 L -46.834,98.222 L -46.835,98.217 L -47.064,97.095 L -47.065,97.092 L -47.296,95.970 L -47.529,94.847 L -47.761,93.727 L -47.992,92.608 L -48.220,91.492 L -48.445,90.377 L -48.666,89.264 L -48.882,88.153 L -49.092,87.044 L -49.294,85.937 L -49.489,84.832 L -49.674,83.729 L -49.850,82.628 L -50.014,81.529 L -50.167,80.431 L -50.307,79.336 L -50.434,78.244 L -50.546,77.153 L -50.643,76.064 L -50.725,74.969 L -50.798,73.857 L -50.798,73.854 L -50.874,72.733 L -50.950,71.610 L -51.026,70.490 L -51.101,69.371 L -51.174,68.254 L -51.245,67.138 L -51.313,66.024 L -51.376,64.911 L -51.435,63.800 L -51.488,62.691 L -51.536,61.583 L -51.576,60.476 L -51.609,59.372 L -51.633,58.268 L -51.648,57.167 L -51.654,56.067 L -51.648,54.968 L -51.632,53.871 L -51.603,52.776 L -51.562,51.682 L -51.508,50.590 L -51.439,49.499 L -51.356,48.406 L -51.259,47.309 L -51.152,46.208 L -51.035,45.105 L -50.909,44.002 L -50.774,42.897 L -50.632,41.790 L -50.482,40.683 L -50.326,39.574 L -50.163,38.464 L -49.995,37.352 L -49.822,36.240 L -49.645,35.126 L -49.465,34.011 L -49.281,32.894 L -49.095,31.776 L -48.908,30.657 L -48.719,29.537 L -48.530,28.416 L -48.346,27.328 L -48.146,26.318 L -47.880,25.346 L -47.541,24.357 L -47.131,23.353 L -46.651,22.335 L -46.104,21.303 L -45.495,20.259 L -44.826,19.205 L -44.102,18.142 L -43.326,17.070 L -42.504,15.991 L -41.640,14.906 L -40.737,13.815 L -39.823,12.745 L -38.927,11.782 L -37.753,10.842 L -36.174,9.830 L -34.237,8.775 L -31.999,7.696 L -29.514,6.602 L -26.830,5.499 L -23.995,4.389 L -21.053,3.274 L -18.436,2.300 L 28.436,2.300 L 31.053,3.274 L 33.995,4.389 L 36.830,5.499 L 39.514,6.602 L 41.999,7.696 L 44.237,8.775 L 46.174,9.830 L 47.753,10.842 L 48.925,11.781 L 49.805,12.729 L 50.665,13.770 L 51.483,14.829 L 52.238,15.882 L 52.930,16.928 L 53.557,17.967 L 54.120,18.997 L 54.618,20.019 L 55.052,21.032 L 55.420,22.037 L 55.723,23.032 L 55.961,24.020 L 56.136,25.000 L 56.245,25.974 L 56.293,26.983 L 56.309,28.057 L 56.315,29.159 L 56.313,30.261 L 56.301,31.364 L 56.281,32.469 L 56.253,33.574 L 56.217,34.680 L 56.174,35.787 L 56.125,36.895 L 56.069,38.004 L 56.008,39.114 L 55.941,40.225 L 55.869,41.337 L 55.793,42.450 L 55.713,43.563 L 55.629,44.678 L 55.542,45.793 L 55.452,46.910 L 55.360,48.022 L 55.263,49.123 L 55.153,50.220 L 55.032,51.319 L 54.900,52.418 L 54.758,53.519 L 54.605,54.621 L 54.443,55.724 L 54.272,56.828 L 54.093,57.933 L 53.906,59.040 L 53.711,60.148 L 53.509,61.256 L 53.302,62.366 L 53.088,63.477 L 52.869,64.589 L 52.646,65.703 L 52.418,66.817 L 52.187,67.932 L 51.953,69.049 L 51.717,70.166 L 51.478,71.285 L 51.238,72.405 L 50.998,73.526 L 50.759,74.636 L 50.514,75.729 L 50.251,76.817 L 49.972,77.908 L 49.676,79.001 L 49.365,80.096 L 49.040,81.194 L 48.702,82.295 L 48.353,83.398 L 47.994,84.503 L 47.625,85.611 L 47.249,86.721 L 46.866,87.833 L 46.477,88.947 L 46.085,90.063 L 45.689,91.182 L 45.292,92.303 L 44.894,93.424 L 44.893,93.427 L 44.498,94.549 L 44.496,94.553 L 44.103,95.675 L 44.101,95.682 L 43.712,96.803 L 43.709,96.812 L 43.325,97.934 L 43.321,97.945 L 42.945,99.067 L 42.940,99.080 L 42.571,100.202 L 42.566,100.217 L 42.208,101.332 L 41.847,102.434 L 41.473,103.531 L 41.085,104.631 L 40.685,105.734 L 40.273,106.839 L 39.852,107.946 L 39.423,109.057 L 38.987,110.169 L 38.545,111.284 L 38.099,112.402 L 37.651,113.522 L 37.202,114.643 L 36.753,115.766 L 36.751,115.771 L 36.306,116.892 L 36.304,116.899 L 35.863,118.020 L 35.859,118.030 L 35.424,119.151 L 35.419,119.163 L 34.991,120.284 L 34.986,120.298 L 34.566,121.420 L 34.560,121.436 L 34.150,122.558 L 34.143,122.577 L 33.744,123.699 L 33.737,123.721 L 33.351,124.842 L 33.343,124.867 L 32.971,125.988 L 32.962,126.016 L 32.607,127.137 L 32.597,127.168 L 32.259,128.290 L 32.249,128.323 L 31.929,129.445 L 31.919,129.482 L 31.619,130.603 L 31.609,130.643 L 31.331,131.764 L 31.321,131.808 L 31.065,132.929 L 31.055,132.976 L 30.825,134.097 L 30.815,134.147 L 30.610,135.269 L 30.601,135.322 L 30.423,136.444 L 30.415,136.501 L 30.266,137.622 L 30.259,137.683 L 30.140,138.804 L 30.136,138.852 L 30.041,139.973 L 30.040,139.978 L 29.948,141.100 L 29.948,141.103 L 29.857,142.224 L 29.856,142.227 L 29.767,143.348 L 29.767,143.352 L 29.679,144.473 L 29.678,144.477 L 29.592,145.598 L 29.592,145.602 L 29.508,146.723 L 29.508,146.727 L 29.426,147.849 L 29.425,147.853 L 29.345,148.974 L 29.345,148.979 L 29.267,150.100 L 29.267,150.105 L 29.191,151.226 L 29.191,151.231 L 29.118,152.353 L 29.118,152.358 L 29.047,153.479 L 29.047,153.485 L 28.979,154.606 L 28.979,154.612 L 28.914,155.733 L 28.914,155.739 L 28.852,156.861 L 28.852,156.867 L 28.793,157.988 L 28.792,157.995 L 28.737,159.116 L 28.736,159.123 L 28.684,160.244 L 28.684,160.251 L 28.635,161.372 L 28.634,161.380 L 28.589,162.501 L 28.588,162.508 L 28.547,163.630 L 28.546,163.637 L 28.508,164.759 L 28.508,164.767 L 28.474,165.888 L 28.473,165.896 L 28.443,167.017 L 28.443,167.026 L 28.417,168.147 L 28.416,168.156 L 28.394,169.277 L 28.394,169.286 L 28.377,170.407 L 28.376,170.416 L 28.363,171.538 L 28.363,171.547 L 28.354,172.668 L 28.354,172.678 L 28.350,173.799 L 28.350,173.817 L 28.355,174.938 L 28.355,174.981 L 28.381,176.102 L 28.382,176.144 L 28.428,177.266 L 28.430,177.305 L 28.495,178.426 L 28.498,178.463 L 28.581,179.584 L 28.583,179.618 L 28.683,180.739 L 28.686,180.770 L 28.801,181.891 L 28.804,181.919 L 28.932,183.040 L 28.935,183.065 L 29.076,184.186 L 29.079,184.208 L 29.231,185.330 L 29.233,185.349 L 29.395,186.470 L 29.398,186.487 L 29.567,187.608 L 29.570,187.622 L 29.746,188.743 L 29.748,188.754 L 29.931,189.876 L 29.932,189.884 L 30.118,191.005 L 30.119,191.011 L 30.309,192.132 L 30.309,192.135 L 30.500,193.256 L 30.691,194.377 L 30.880,195.494 L 31.066,196.609 L 31.248,197.721 L 31.423,198.830 L 31.592,199.937 L 31.752,201.041 L 31.903,202.142 L 32.042,203.240 L 32.170,204.335 L 32.283,205.428 L 32.382,206.518 L 32.465,207.604 L 32.530,208.691 L 32.580,209.788 L 32.624,210.896 L 32.662,212.006 L 32.694,213.117 L 32.722,214.227 L 32.744,215.339 L 32.762,216.451 L 32.775,217.563 L 32.784,218.676 L 32.789,219.789 L 32.791,220.903 L 32.788,222.017 L 32.782,223.131 L 32.773,224.246 L 32.761,225.362 L 32.747,226.477 L 32.729,227.594 L 32.710,228.711 L 32.688,229.828 L 32.664,230.945 L 32.639,232.064 L 32.612,233.182 L 32.584,234.301 L 32.555,235.413 L 32.520,236.494 L 32.455,237.550 L 32.360,238.604 L 32.233,239.658 L 32.074,240.711 L 31.883,241.765 L 31.660,242.819 L 31.402,243.874 L 31.111,244.929 L 30.786,245.985 L 30.426,247.043 L 30.031,248.102 L 29.600,249.162 L 29.132,250.223 L 28.628,251.286 L 28.086,252.351 L 27.534,253.365 L 26.929,254.296 L 26.147,255.232 L 25.154,256.222 L 23.967,257.249 L 22.606,258.302 L 21.094,259.373 L 19.449,260.457 L 17.693,261.550 L 15.845,262.652 L 13.924,263.759 L 11.950,264.871 L 10.459,265.700 Z" fill="none" stroke="#555" stroke-width="0.35" stroke-dasharray="2,1"/><line x1="-53.954" y1="84.420" x2="58.615" y2="84.420" stroke="#777" stroke-width="0.3" stroke-dasharray="1.5,1.5"/><circle cx="3.107" cy="266.000" r="0.900" fill="none" stroke="#000" stroke-width="0.3"/><circle cx="-11.600" cy="265.409" r="0.900" fill="none" stroke="#000" stroke-width="0.3"/><circle cx="-24.151" cy="257.486" r="0.900" fill="none" stroke="#000" stroke-width="0.3"/><circle cx="-32.083" cy="245.108" r="0.900" fill="none" stroke="#000" stroke-width="0.3"/><circle cx="-35.379" cy="230.709" r="0.900" fill="none" stroke="#000" stroke-width="0.3"/><circle cx="-36.500" cy="215.893" r="0.900" fill="none" stroke="#000" stroke-width="0.3"/><circle cx="-37.035" cy="201.044" r="0.900" fill="none" stroke="#000" stroke-width="0.3"/><circle cx="-36.825" cy="186.187" r="0.900" fill="none" stroke="#000" stroke-width="0.3"/><circle cx="-36.666" cy="171.328" r="0.900" fill="none" stroke="#000" stroke-width="0.3"/><circle cx="-37.173" cy="156.478" r="0.900" fill="none" stroke="#000" stroke-width="0.3"/><circle cx="-38.204" cy="141.655" r="0.900" fill="none" stroke="#000" stroke-width="0.3"/><circle cx="-40.349" cy="126.965" r="0.900" fill="none" stroke="#000" stroke-width="0.3"/><circle cx="-43.931" cy="112.545" r="0.900" fill="none" stroke="#000" stroke-width="0.3"/><circle cx="-47.176" cy="98.047" r="0.900" fill="none" stroke="#000" stroke-width="0.3"/><circle cx="-50.020" cy="83.463" r="0.900" fill="none" stroke="#000" stroke-width="0.3"/><circle cx="-51.447" cy="68.680" r="0.900" fill="none" stroke="#000" stroke-width="0.3"/><circle cx="-51.931" cy="53.832" r="0.900" fill="none" stroke="#000" stroke-width="0.3"/><circle cx="-50.552" cy="39.047" r="0.900" fill="none" stroke="#000" stroke-width="0.3"/><circle cx="-47.888" cy="24.444" r="0.900" fill="none" stroke="#000" stroke-width="0.3"/><circle cx="-39.683" cy="12.154" r="0.900" fill="none" stroke="#000" stroke-width="0.3"/><circle cx="-26.706" cy="5.128" r="0.900" fill="none" stroke="#000" stroke-width="0.3"/><circle cx="-12.421" cy="2.000" r="0.900" fill="none" stroke="#000" stroke-width="0.3"/><circle cx="2.439" cy="2.000" r="0.900" fill="none" stroke="#000" stroke-width="0.3"/><circle cx="17.298" cy="2.000" r="0.900" fill="none" stroke="#000" stroke-width="0.3"/><circle cx="31.926" cy="3.284" r="0.900" fill="none" stroke="#000" stroke-width="0.3"/><circle cx="45.563" cy="9.156" r="0.900" fill="none" stroke="#000" stroke-width="0.3"/><circle cx="55.038" cy="20.238" r="0.900" fill="none" stroke="#000" stroke-width="0.3"/><circle cx="56.510" cy="34.873" r="0.900" fill="none" stroke="#000" stroke-width="0.3"/><circle cx="55.507" cy="49.697" r="0.900" fill="none" stroke="#000" stroke-width="0.3"/><circle cx="53.217" cy="64.373" r="0.900" fill="none" stroke="#000" stroke-width="0.3"/><circle cx="50.019" cy="78.882" r="0.900" fill="none" stroke="#000" stroke-width="0.3"/><circle cx="45.366" cy="92.991" r="0.900" fill="none" stroke="#000" stroke-width="0.3"/><circle cx="40.519" cy="107.037" r="0.900" fill="none" stroke="#000" stroke-width="0.3"/><circle cx="35.092" cy="120.870" r="0.900" fill="none" stroke="#000" stroke-width="0.3"/><circle cx="30.943" cy="135.116" r="0.900" fill="none" stroke="#000" stroke-width="0.3"/><circle cx="29.581" cy="149.908" r="0.900" fill="none" stroke="#000" stroke-width="0.3"/><circle cx="28.809" cy="164.747" r="0.900" fill="none" stroke="#000" stroke-width="0.3"/><circle cx="28.883" cy="179.599" r="0.900" fill="none" stroke="#000" stroke-width="0.3"/><circle cx="30.983" cy="194.304" r="0.900" fill="none" stroke="#000" stroke-width="0.3"/><circle cx="32.846" cy="209.037" r="0.900" fill="none" stroke="#000" stroke-width="0.3"/><circle cx="33.076" cy="223.893" r="0.900" fill="none" stroke="#000" stroke-width="0.3"/><circle cx="32.645" cy="238.743" r="0.900" fill="none" stroke="#000" stroke-width="0.3"/><circle cx="28.174" cy="252.816" r="0.900" fill="none" stroke="#000" stroke-width="0.3"/><circle cx="16.990" cy="262.319" r="0.900" fill="none" stroke="#000" stroke-width="0.3"/></g>
</svg>