  0
SECTION
  2
BLOCKS
  0
ENDSEC
  0
SECTION
  2
ENTITIES
  0
LINE
  8
0
 10
3.85881
 20
2.95125
 11
3.85881
 21
6.41344
  0
LINE
  8
0
 10
3.85881
 20
6.41344
 11
6.98486
 21
8.43025
  0
LINE
  8
0
 10
6.98486
 20
8.43025
 11
6.94907
 21
8.46478
  0
LINE
  8
0
 10
6.94907
 20
8.46478
 11
6.91226
 21
8.49777
  0
LINE
  8
0
 10
6.91226
 20
8.49777
 11
6.87445
 21
8.52921
  0
LINE
  8
0
 10
6.87445
 20
8.52921
 11
6.83562
 21
8.55905
  0
LINE
  8
0
 10
6.83562
 20
8.55905
 11
6.79579
 21
8.58728
  0
LINE
  8
0
 10
6.79579
 20
8.58728
 11
6.75494
 21
8.61388
  0
LINE
  8
0
 10
6.75494
 20
8.61388
 11
6.7131
 21
8.63881
  0
LINE
  8
0
 10
6.7131
 20
8.63881
 11
6.67024
 21
8.66205
  0
LINE
  8
0
 10
6.67024
 20
8.66205
 11
6.62637
 21
8.68356
  0
LINE
  8
0
 10
6.62637
 20
8.68356
 11
6.58151
 21
8.70335
  0
LINE
  8
0
 10
6.58151
 20
8.70335
 11
6.53563
 21
8.72137
  0
LINE
  8
0
 10
6.53563
 20
8.72137
 11
6.48874
 21
8.73761
  0
LINE
  8
0
 10
6.48874
 20
8.73761
 11
6.44083
 21
8.75201
  0
LINE
  8
0
 10
6.44083
 20
8.75201
 11
6.39192
 21
8.7646
  0
LINE
  8
0
 10
6.39192
 20
8.7646
 11
6.34201
 21
8.77531
  0
LINE
  8
0
 10
6.34201
 20
8.77531
 11
6.29109
 21
8.78413
  0
LINE
  8
0
 10
6.29109
 20
8.78413
 11
6.23915
 21
8.79103
  0
LINE
  8
0
 10
6.23915
 20
8.79103
 11
6.1862
 21
8.79599
  0
LINE
  8
0
 10
6.1862
 20
8.79599
 11
6.13226
 21
8.79898
  0
LINE
  8
0
 10
6.13226
 20
8.79898
 11
6.0773
 21
8.79999
  0
LINE
  8
0
 10
6.0773
 20
8.79999
 11
2.85042
 21
8.79999
  0
LINE
  8
0
 10
2.85042
 20
8.79999
 11
2.68083
 21
8.79326
  0
LINE
  8
0
 10
2.68083
 20
8.79326
 11
2.51529
 21
8.77341
  0
LINE
  8
0
 10
2.51529
 20
8.77341
 11
2.35428
 21
8.74089
  0
LINE
  8
0
 10
2.35428
 20
8.74089
 11
2.19832
 21
8.6962
  0
LINE
  8
0
 10
2.19832
 20
8.6962
 11
2.0479
 21
8.6398
  0
LINE
  8
0
 10
2.0479
 20
8.6398
 11
1.90352
 21
8.57219
  0
LINE
  8
0
 10
1.90352
 20
8.57219
 11
1.7657
 21
8.49385
  0
LINE
  8
0
 10
1.7657
 20
8.49385
 11
1.63495
 21
8.40524
  0
LINE
  8
0
 10
1.63495
 20
8.40524
 11
1.51175
 21
8.30684
  0
LINE
  8
0
 10
1.51175
 20
8.30684
 11
1.39664
 21
8.19916
  0
LINE
  8
0
 10
1.39664
 20
8.19916
 11
1.29007
 21
8.08264
  0
LINE
  8
0
 10
1.29007
 20
8.08264
 11
1.1926
 21
7.95778
  0
LINE
  8
0
 10
1.1926
 20
7.95778
 11
1.10469
 21
7.82504
  0
LINE
  8
0
 10
1.10469
 20
7.82504
 11
1.02689
 21
7.68494
  0
LINE
  8
0
 10
1.02689
 20
7.68494
 11
0.959656
 21
7.53792
  0
LINE
  8
0
 10
0.959656
 20
7.53792
 11
0.903519
 21
7.38446
  0
LINE
  8
0
 10
0.903519
 20
7.38446
 11
0.858978
 21
7.22507
  0
LINE
  8
0
 10
0.858978
 20
7.22507
 11
0.826553
 21
7.0602
  0
LINE
  8
0
 10
0.826553
 20
7.0602
 11
0.806717
 21
6.89034
  0
LINE
  8
0
 10
0.806717
 20
6.89034
 11
0.799988
 21
6.71596
  0
LINE
  8
0
 10
0.799988
 20
6.71596
 11
0.799988
 21
2.41344
  0
LINE
  8
0
 10
0.799988
 20
2.41344
 11
0.800507
 21
2.3532
  0
LINE
  8
0
 10
0.800507
 20
2.3532
 11
0.802078
 21
2.2935
  0
LINE
  8
0
 10
0.802078
 20
2.2935
 11
0.804764
 21
2.23442
  0
LINE
  8
0
 10
0.804764
 20
2.23442
 11
0.808594
 21
2.17599
  0
LINE
  8
0
 10
0.808594
 20
2.17599
 11
0.813644
 21
2.11827
  0
LINE
  8
0
 10
0.813644
 20
2.11827
 11
0.819962
 21
2.06131
  0
LINE
  8
0
 10
0.819962
 20
2.06131
 11
0.827576
 21
2.00514
  0
LINE
  8
0
 10
0.827576
 20
2.00514
 11
0.836563
 21
1.94984
  0
LINE
  8
0
 10
0.836563
 20
1.94984
 11
0.846954
 21
1.89545
  0
LINE
  8
0
 10
0.846954
 20
1.89545
 11
0.85881
 21
1.84201
  0
LINE
  8
0
 10
0.85881
 20
1.84201
 11
0.872192
 21
1.78958
  0
LINE
  8
0
 10
0.872192
 20
1.78958
 11
0.887115
 21
1.7382
  0
LINE
  8
0
 10
0.887115
 20
1.7382
 11
0.903671
 21
1.68796
  0
LINE
  8
0
 10
0.903671
 20
1.68796
 11
0.921875
 21
1.63885
  0
LINE
  8
0
 10
0.921875
 20
1.63885
 11
0.941803
 21
1.59096
  0
LINE
  8
0
 10
0.941803
 20
1.59096
 11
0.963486
 21
1.54433
  0
LINE
  8
0
 10
0.963486
 20
1.54433
 11
0.987
 21
1.49901
  0
LINE
  8
0
 10
0.987
 20
1.49901
 11
1.01236
 21
1.45505
  0
LINE
  8
0
 10
1.01236
 20
1.45505
 11
1.03964
 21
1.41251
  0
LINE
  8
0
 10
1.03964
 20
1.41251
 11
1.06889
 21
1.37141
  0
LINE
  8
0
 10
1.06889
 20
1.37141
 11
3.85881
 21
2.95125
  0
LINE
  8
0
 10
38.2163
 20
5.00752
 11
38.3798
 21
5.02847
  0
LINE
  8
0
 10
38.3798
 20
5.02847
 11
38.5331
 21
5.0634
  0
LINE
  8
0
 10
38.5331
 20
5.0634
 11
38.6761
 21
5.11229
  0
LINE
  8
0
 10
38.6761
 20
5.11229
 11
38.8065
 21
5.17339
  0
LINE
  8
0
 10
38.8065
 20
5.17339
 11
38.9218
 21
5.24489
  0
LINE
  8
0
 10
38.9218
 20
5.24489
 11
39.022
 21
5.32681
  0
LINE
  8
0
 10
39.022
 20
5.32681
 11
39.1072
 21
5.41914
  0
LINE
  8
0
 10
39.1072
 20
5.41914
 11
39.1751
 21
5.52031
  0
LINE
  8
0
 10
39.1751
 20
5.52031
 11
39.2237
 21
5.62871
  0
LINE
  8
0
 10
39.2237
 20
5.62871
 11
39.2528
 21
5.74434
  0
LINE
  8
0
 10
39.2528
 20
5.74434
 11
39.2625
 21
5.8672
  0
LINE
  8
0
 10
39.2625
 20
5.8672
 11
39.2513
 21
5.99686
  0
LINE
  8
0
 10
39.2513
 20
5.99686
 11
39.2175
 21
6.11522
  0
LINE
  8
0
 10
39.2175
 20
6.11522
 11
39.1613
 21
6.22232
  0
LINE
  8
0
 10
39.1613
 20
6.22232
 11
39.0825
 21
6.31816
  0
LINE
  8
0
 10
39.0825
 20
6.31816
 11
38.9817
 21
6.39966
  0
LINE
  8
0
 10
38.9817
 20
6.39966
 11
38.8595
 21
6.46376
  0
LINE
  8
0
 10
38.8595
 20
6.46376
 11
38.7158
 21
6.51045
  0
LINE
  8
0
 10
38.7158
 20
6.51045
 11
38.5506
 21
6.53975
  0
LINE
  8
0
 10
38.5506
 20
6.53975
 11
38.5506
 21
6.56131
  0
LINE
  8
0
 10
38.5506
 20
6.56131
 11
38.6772
 21
6.58765
  0
LINE
  8
0
 10
38.6772
 20
6.58765
 11
38.7916
 21
6.62944
  0
LINE
  8
0
 10
38.7916
 20
6.62944
 11
38.8938
 21
6.68666
  0
LINE
  8
0
 10
38.8938
 20
6.68666
 11
38.9837
 21
6.75934
  0
LINE
  8
0
 10
38.9837
 20
6.75934
 11
39.0571
 21
6.845
  0
LINE
  8
0
 10
39.0571
 20
6.845
 11
39.1095
 21
6.94121
  0
LINE
  8
0
 10
39.1095
 20
6.94121
 11
39.1409
 21
7.04796
  0
LINE
  8
0
 10
39.1409
 20
7.04796
 11
39.1514
 21
7.16524
  0
LINE
  8
0
 10
39.1514
 20
7.16524
 11
39.1427
 21
7.28085
  0
LINE
  8
0
 10
39.1427
 20
7.28085
 11
39.1167
 21
7.39047
  0
LINE
  8
0
 10
39.1167
 20
7.39047
 11
39.0733
 21
7.49408
  0
LINE
  8
0
 10
39.0733
 20
7.49408
 11
39.0125
 21
7.59167
  0
LINE
  8
0
 10
39.0125
 20
7.59167
 11
38.9363
 21
7.68134
  0
LINE
  8
0
 10
38.9363
 20
7.68134
 11
38.8464
 21
7.76106
  0
LINE
  8
0
 10
38.8464
 20
7.76106
 11
38.7429
 21
7.83086
  0
LINE
  8
0
 10
38.7429
 20
7.83086
 11
38.6257
 21
7.89073
  0
LINE
  8
0
 10
38.6257
 20
7.89073
 11
38.4969
 21
7.93877
  0
LINE
  8
0
 10
38.4969
 20
7.93877
 11
38.3585
 21
7.97308
  0
LINE
  8
0
 10
38.3585
 20
7.97308
 11
38.2104
 21
7.99367
  0
LINE
  8
0
 10
38.2104
 20
7.99367
 11
38.0527
 21
8.00053
  0
LINE
  8
0
 10
38.0527
 20
8.00053
 11
37.8925
 21
7.99348
  0
LINE
  8
0
 10
37.8925
 20
7.99348
 11
37.7412
 21
7.97235
  0
LINE
  8
0
 10
37.7412
 20
7.97235
 11
37.5988
 21
7.93712
  0
LINE
  8
0
 10
37.5988
 20
7.93712
 11
37.4653
 21
7.88779
  0
LINE
  8
0
 10
37.4653
 20
7.88779
 11
37.343
 21
7.82608
  0
LINE
  8
0
 10
37.343
 20
7.82608
 11
37.2343
 21
7.75371
  0
LINE
  8
0
 10
37.2343
 20
7.75371
 11
37.1393
 21
7.67068
  0
LINE
  8
0
 10
37.1393
 20
7.67068
 11
37.0579
 21
7.577
  0
LINE
  8
0
 10
37.0579
 20
7.577
 11
36.9925
 21
7.47418
  0
LINE
  8
0
 10
36.9925
 20
7.47418
 11
36.9455
 21
7.36377
  0
LINE
  8
0
 10
36.9455
 20
7.36377
 11
36.9169
 21
7.24576
  0
LINE
  8
0
 10
36.9169
 20
7.24576
 11
36.9066
 21
7.12013
  0
LINE
  8
0
 10
36.9066
 20
7.12013
 11
37.6042
 21
7.12013
  0
LINE
  8
0
 10
37.6042
 20
7.12013
 11
37.6131
 21
7.19279
  0
LINE
  8
0
 10
37.6131
 20
7.19279
 11
37.6378
 21
7.25787
  0
LINE
  8
0
 10
37.6378
 20
7.25787
 11
37.6784
 21
7.31534
  0
LINE
  8
0
 10
37.6784
 20
7.31534
 11
37.7348
 21
7.3652
  0
LINE
  8
0
 10
37.7348
 20
7.3652
 11
37.8027
 21
7.40553
  0
LINE
  8
0
 10
37.8027
 20
7.40553
 11
37.878
 21
7.43434
  0
LINE
  8
0
 10
37.878
 20
7.43434
 11
37.9607
 21
7.45161
  0
LINE
  8
0
 10
37.9607
 20
7.45161
 11
38.0506
 21
7.45738
  0
LINE
  8
0
 10
38.0506
 20
7.45738
 11
38.135
 21
7.45155
  0
LINE
  8
0
 10
38.135
 20
7.45155
 11
38.2111
 21
7.4341
  0
LINE
  8
0
 10
38.2111
 20
7.4341
 11
38.279
 21
7.405
  0
LINE
  8
0
 10
38.279
 20
7.405
 11
38.3387
 21
7.36424
  0
LINE
  8
0
 10
38.3387
 20
7.36424
 11
38.3873
 21
7.31419
  0
LINE
  8
0
 10
38.3873
 20
7.31419
 11
38.422
 21
7.25716
  0
LINE
  8
0
 10
38.422
 20
7.25716
 11
38.4428
 21
7.19312
  0
LINE
  8
0
 10
38.4428
 20
7.19312
 11
38.4498
 21
7.1221
  0
LINE
  8
0
 10
38.4498
 20
7.1221
 11
38.4417
 21
7.04826
  0
LINE
  8
0
 10
38.4417
 20
7.04826
 11
38.4174
 21
6.98166
  0
LINE
  8
0
 10
38.4174
 20
6.98166
 11
38.3769
 21
6.92227
  0
LINE
  8
0
 10
38.3769
 20
6.92227
 11
38.3201
 21
6.87013
  0
LINE
  8
0
 10
38.3201
 20
6.87013
 11
38.2507
 21
6.82767
  0
LINE
  8
0
 10
38.2507
 20
6.82767
 11
38.172
 21
6.79733
  0
LINE
  8
0
 10
38.172
 20
6.79733
 11
38.0841
 21
6.77914
  0
LINE
  8
0
 10
38.0841
 20
6.77914
 11
37.9868
 21
6.77307
  0
LINE
  8
0
 10
37.9868
 20
6.77307
 11
37.6885
 21
6.77307
  0
LINE
  8
0
 10
37.6885
 20
6.77307
 11
37.6885
 21
6.27895
  0
LINE
  8
0
 10
37.6885
 20
6.27895
 11
37.9868
 21
6.27895
  0
LINE
  8
0
 10
37.9868
 20
6.27895
 11
38.0982
 21
6.27271
  0
LINE
  8
0
 10
38.0982
 20
6.27271
 11
38.1978
 21
6.25395
  0
LINE
  8
0
 10
38.1978
 20
6.25395
 11
38.2854
 21
6.2227
  0
LINE
  8
0
 10
38.2854
 20
6.2227
 11
38.3613
 21
6.17894
  0
LINE
  8
0
 10
38.3613
 20
6.17894
 11
38.4225
 21
6.12527
  0
LINE
  8
0
 10
38.4225
 20
6.12527
 11
38.4663
 21
6.06425
  0
LINE
  8
0
 10
38.4663
 20
6.06425
 11
38.4925
 21
5.99588
  0
LINE
  8
0
 10
38.4925
 20
5.99588
 11
38.5012
 21
5.92014
  0
LINE
  8
0
 10
38.5012
 20
5.92014
 11
38.4933
 21
5.84453
  0
LINE
  8
0
 10
38.4933
 20
5.84453
 11
38.4696
 21
5.77652
  0
LINE
  8
0
 10
38.4696
 20
5.77652
 11
38.4301
 21
5.71609
  0
LINE
  8
0
 10
38.4301
 20
5.71609
 11
38.3747
 21
5.66328
  0
LINE
  8
0
 10
38.3747
 20
5.66328
 11
38.3069
 21
5.62039
  0
LINE
  8
0
 10
38.3069
 20
5.62039
 11
38.2299
 21
5.58975
  0
LINE
  8
0
 10
38.2299
 20
5.58975
 11
38.1438
 21
5.57137
  0
LINE
  8
0
 10
38.1438
 20
5.57137
 11
38.0486
 21
5.56523
  0
LINE
  8
0
 10
38.0486
 20
5.56523
 11
37.952
 21
5.57088
  0
LINE
  8
0
 10
37.952
 20
5.57088
 11
37.8639
 21
5.58778
  0
LINE
  8
0
 10
37.8639
 20
5.58778
 11
37.7843
 21
5.61597
  0
LINE
  8
0
 10
37.7843
 20
5.61597
 11
37.7132
 21
5.65541
  0
LINE
  8
0
 10
37.7132
 20
5.65541
 11
37.6544
 21
5.70407
  0
LINE
  8
0
 10
37.6544
 20
5.70407
 11
37.6119
 21
5.75983
  0
LINE
  8
0
 10
37.6119
 20
5.75983
 11
37.5855
 21
5.82269
  0
LINE
  8
0
 10
37.5855
 20
5.82269
 11
37.5753
 21
5.89267
  0
LINE
  8
0
 10
37.5753
 20
5.89267
 11
36.847
 21
5.89267
  0
LINE
  8
0
 10
36.847
 20
5.89267
 11
36.8575
 21
5.76517
  0
LINE
  8
0
 10
36.8575
 20
5.76517
 11
36.8871
 21
5.64537
  0
LINE
  8
0
 10
36.8871
 20
5.64537
 11
36.9357
 21
5.53331
  0
LINE
  8
0
 10
36.9357
 20
5.53331
 11
37.0033
 21
5.42894
  0
LINE
  8
0
 10
37.0033
 20
5.42894
 11
37.0876
 21
5.33391
  0
LINE
  8
0
 10
37.0876
 20
5.33391
 11
37.1862
 21
5.24979
  0
LINE
  8
0
 10
37.1862
 20
5.24979
 11
37.299
 21
5.17656
  0
LINE
  8
0
 10
37.299
 20
5.17656
 11
37.4262
 21
5.11426
  0
LINE
  8
0
 10
37.4262
 20
5.11426
 11
37.5654
 21
5.0645
  0
LINE
  8
0
 10
37.5654
 20
5.0645
 11
37.7145
 21
5.02896
  0
LINE
  8
0
 10
37.7145
 20
5.02896
 11
37.8735
 21
5.00764
  0
LINE
  8
0
 10
37.8735
 20
5.00764
 11
38.0424
 21
5.00053
  0
LINE
  8
0
 10
38.0424
 20
5.00053
 11
38.2163
 21
5.00752
  0
LINE
  8
0
 10
35.5639
 20
5.02524
 11
35.8184
 21
5.09932
  0
LINE
  8
0
 10
35.8184
 20
5.09932
 11
36.0387
 21
5.22278
  0
LINE
  8
0
 10
36.0387
 20
5.22278
 11
36.225
 21
5.39563
  0
LINE
  8
0
 10
36.225
 20
5.39563
 11
36.3731
 21
5.61273
  0
LINE
  8
0
 10
36.3731
 20
5.61273
 11
36.4788
 21
5.86891
  0
LINE
  8
0
 10
36.4788
 20
5.86891
 11
36.5423
 21
6.1642
  0
LINE
  8
0
 10
36.5423
 20
6.1642
 11
36.5635
 21
6.49857
  0
LINE
  8
0
 10
36.5635
 20
6.49857
 11
36.5539
 21
6.72633
  0
LINE
  8
0
 10
36.5539
 20
6.72633
 11
36.5251
 21
6.93706
  0
LINE
  8
0
 10
36.5251
 20
6.93706
 11
36.4772
 21
7.13074
  0
LINE
  8
0
 10
36.4772
 20
7.13074
 11
36.4102
 21
7.30739
  0
LINE
  8
0
 10
36.4102
 20
7.30739
 11
36.3251
 21
7.46565
  0
LINE
  8
0
 10
36.3251
 20
7.46565
 11
36.2232
 21
7.6042
  0
LINE
  8
0
 10
36.2232
 20
7.6042
 11
36.1044
 21
7.72301
  0
LINE
  8
0
 10
36.1044
 20
7.72301
 11
35.9688
 21
7.82208
  0
LINE
  8
0
 10
35.9688
 20
7.82208
 11
35.8174
 21
7.90016
  0
LINE
  8
0
 10
35.8174
 20
7.90016
 11
35.6514
 21
7.95592
  0
LINE
  8
0
 10
35.6514
 20
7.95592
 11
35.4708
 21
7.98938
  0
LINE
  8
0
 10
35.4708
 20
7.98938
 11
35.2754
 21
8.00053
  0
LINE
  8
0
 10
35.2754
 20
8.00053
 11
34.9886
 21
7.97578
  0
LINE
  8
0
 10
34.9886
 20
7.97578
 11
34.7351
 21
7.9015
  0
LINE
  8
0
 10
34.7351
 20
7.9015
 11
34.5148
 21
7.77773
  0
LINE
  8
0
 10
34.5148
 20
7.77773
 11
34.3279
 21
7.60443
  0
LINE
  8
0
 10
34.3279
 20
7.60443
 11
34.1789
 21
7.38678
  0
LINE
  8
0
 10
34.1789
 20
7.38678
 11
34.0725
 21
7.12993
  0
LINE
  8
0
 10
34.0725
 20
7.12993
 11
34.0087
 21
6.83386
  0
LINE
  8
0
 10
34.0087
 20
6.83386
 11
33.9874
 21
6.49857
  0
LINE
  8
0
 10
33.9874
 20
6.49857
 11
34.0087
 21
6.16339
  0
LINE
  8
0
 10
34.0087
 20
6.16339
 11
34.0725
 21
5.86769
  0
LINE
  8
0
 10
34.0725
 20
5.86769
 11
34.1789
 21
5.61143
  0
LINE
  8
0
 10
34.1789
 20
5.61143
 11
34.3279
 21
5.39465
  0
LINE
  8
0
 10
34.3279
 20
5.39465
 11
34.5148
 21
5.22223
  0
LINE
  8
0
 10
34.5148
 20
5.22223
 11
34.7351
 21
5.09906
  0
LINE
  8
0
 10
34.7351
 20
5.09906
 11
34.9886
 21
5.02518
  0
LINE
  8
0
 10
34.9886
 20
5.02518
 11
35.2754
 21
5.00053
  0
LINE
  8
0
 10
35.2754
 20
5.00053
 11
35.5639
 21
5.02524
  0
LINE
  8
0
 10
35.1524
 20
5.58228
 11
35.0447
 21
5.62749
  0
LINE
  8
0
 10
35.0447
 20
5.62749
 11
34.9523
 21
5.70285
  0
LINE
  8
0
 10
34.9523
 20
5.70285
 11
34.8752
 21
5.80836
  0
LINE
  8
0
 10
34.8752
 20
5.80836
 11
34.8145
 21
5.94196
  0
LINE
  8
0
 10
34.8145
 20
5.94196
 11
34.7711
 21
6.10152
  0
LINE
  8
0
 10
34.7711
 20
6.10152
 11
34.745
 21
6.28705
  0
LINE
  8
0
 10
34.745
 20
6.28705
 11
34.7363
 21
6.49857
  0
LINE
  8
0
 10
34.7363
 20
6.49857
 11
34.7451
 21
6.71114
  0
LINE
  8
0
 10
34.7451
 20
6.71114
 11
34.7713
 21
6.89784
  0
LINE
  8
0
 10
34.7713
 20
6.89784
 11
34.815
 21
7.05869
  0
LINE
  8
0
 10
34.815
 20
7.05869
 11
34.8763
 21
7.19366
  0
LINE
  8
0
 10
34.8763
 20
7.19366
 11
34.9537
 21
7.30046
  0
LINE
  8
0
 10
34.9537
 20
7.30046
 11
35.046
 21
7.37675
  0
LINE
  8
0
 10
35.046
 20
7.37675
 11
35.1533
 21
7.42252
  0
LINE
  8
0
 10
35.1533
 20
7.42252
 11
35.2754
 21
7.43777
  0
LINE
  8
0
 10
35.2754
 20
7.43777
 11
35.3985
 21
7.42252
  0
LINE
  8
0
 10
35.3985
 20
7.42252
 11
35.5064
 21
7.37675
  0
LINE
  8
0
 10
35.5064
 20
7.37675
 11
35.5991
 21
7.30046
  0
LINE
  8
0
 10
35.5991
 20
7.30046
 11
35.6766
 21
7.19366
  0
LINE
  8
0
 10
35.6766
 20
7.19366
 11
35.7379
 21
7.05869
  0
LINE
  8
0
 10
35.7379
 20
7.05869
 11
35.7816
 21
6.89784
  0
LINE
  8
0
 10
35.7816
 20
6.89784
 11
35.8078
 21
6.71114
  0
LINE
  8
0
 10
35.8078
 20
6.71114
 11
35.8166
 21
6.49857
  0
LINE
  8
0
 10
35.8166
 20
6.49857
 11
35.8078
 21
6.28705
  0
LINE
  8
0
 10
35.8078
 20
6.28705
 11
35.7816
 21
6.10152
  0
LINE
  8
0
 10
35.7816
 20
6.10152
 11
35.7379
 21
5.94196
  0
LINE
  8
0
 10
35.7379
 20
5.94196
 11
35.6766
 21
5.80836
  0
LINE
  8
0
 10
35.6766
 20
5.80836
 11
35.5991
 21
5.70285
  0
LINE
  8
0
 10
35.5991
 20
5.70285
 11
35.5064
 21
5.62749
  0
LINE
  8
0
 10
35.5064
 20
5.62749
 11
35.3985
 21
5.58228
  0
LINE
  8
0
 10
35.3985
 20
5.58228
 11
35.2754
 21
5.5672
  0
LINE
  8
0
 10
35.2754
 20
5.5672
 11
35.1524
 21
5.58228
  0
LINE
  8
0
 10
32.7167
 20
5.02524
 11
32.9712
 21
5.09932
  0
LINE
  8
0
 10
32.9712
 20
5.09932
 11
33.1915
 21
5.22278
  0
LINE
  8
0
 10
33.1915
 20
5.22278
 11
33.3778
 21
5.39563
  0
LINE
  8
0
 10
33.3778
 20
5.39563
 11
33.5259
 21
5.61273
  0
LINE
  8
0
 10
33.5259
 20
5.61273
 11
33.6316
 21
5.86891
  0
LINE
  8
0
 10
33.6316
 20
5.86891
 11
33.6951
 21
6.1642
  0
LINE
  8
0
 10
33.6951
 20
6.1642
 11
33.7162
 21
6.49857
  0
LINE
  8
0
 10
33.7162
 20
6.49857
 11
33.7067
 21
6.72633
  0
LINE
  8
0
 10
33.7067
 20
6.72633
 11
33.6779
 21
6.93706
  0
LINE
  8
0
 10
33.6779
 20
6.93706
 11
33.63
 21
7.13074
  0
LINE
  8
0
 10
33.63
 20
7.13074
 11
33.5629
 21
7.30739
  0
LINE
  8
0
 10
33.5629
 20
7.30739
 11
33.4779
 21
7.46565
  0
LINE
  8
0
 10
33.4779
 20
7.46565
 11
33.376
 21
7.6042
  0
LINE
  8
0
 10
33.376
 20
7.6042
 11
33.2572
 21
7.72301
  0
LINE
  8
0
 10
33.2572
 20
7.72301
 11
33.1216
 21
7.82208
  0
LINE
  8
0
 10
33.1216
 20
7.82208
 11
32.9702
 21
7.90016
  0
LINE
  8
0
 10
32.9702
 20
7.90016
 11
32.8042
 21
7.95592
  0
LINE
  8
0
 10
32.8042
 20
7.95592
 11
32.6236
 21
7.98938
  0
LINE
  8
0
 10
32.6236
 20
7.98938
 11
32.4282
 21
8.00053
  0
LINE
  8
0
 10
32.4282
 20
8.00053
 11
32.1414
 21
7.97578
  0
LINE
  8
0
 10
32.1414
 20
7.97578
 11
31.8878
 21
7.9015
  0
LINE
  8
0
 10
31.8878
 20
7.9015
 11
31.6676
 21
7.77773
  0
LINE
  8
0
 10
31.6676
 20
7.77773
 11
31.4807
 21
7.60443
  0
LINE
  8
0
 10
31.4807
 20
7.60443
 11
31.3317
 21
7.38678
  0
LINE
  8
0
 10
31.3317
 20
7.38678
 11
31.2253
 21
7.12993
  0
LINE
  8
0
 10
31.2253
 20
7.12993
 11
31.1615
 21
6.83386
  0
LINE
  8
0
 10
31.1615
 20
6.83386
 11
31.1402
 21
6.49857
  0
LINE
  8
0
 10
31.1402
 20
6.49857
 11
31.1615
 21
6.16339
  0
LINE
  8
0
 10
31.1615
 20
6.16339
 11
31.2253
 21
5.86769
  0
LINE
  8
0
 10
31.2253
 20
5.86769
 11
31.3317
 21
5.61143
  0
LINE
  8
0
 10
31.3317
 20
5.61143
 11
31.4807
 21
5.39465
  0
LINE
  8
0
 10
31.4807
 20
5.39465
 11
31.6676
 21
5.22223
  0
LINE
  8
0
 10
31.6676
 20
5.22223
 11
31.8878
 21
5.09906
  0
LINE
  8
0
 10
31.8878
 20
5.09906
 11
32.1414
 21
5.02518
  0
LINE
  8
0
 10
32.1414
 20
5.02518
 11
32.4282
 21
5.00053
  0
LINE
  8
0
 10
32.4282
 20
5.00053
 11
32.7167
 21
5.02524
  0
LINE
  8
0
 10
32.3052
 20
5.58228
 11
32.1975
 21
5.62749
  0
LINE
  8
0
 10
32.1975
 20
5.62749
 11
32.1051
 21
5.70285
  0
LINE
  8
0
 10
32.1051
 20
5.70285
 11
32.028
 21
5.80836
  0
LINE
  8
0
 10
32.028
 20
5.80836
 11
31.9673
 21
5.94196
  0
LINE
  8
0
 10
31.9673
 20
5.94196
 11
31.9239
 21
6.10152
  0
LINE
  8
0
 10
31.9239
 20
6.10152
 11
31.8978
 21
6.28705
  0
LINE
  8
0
 10
31.8978
 20
6.28705
 11
31.8891
 21
6.49857
  0
LINE
  8
0
 10
31.8891
 20
6.49857
 11
31.8979
 21
6.71114
  0
LINE
  8
0
 10
31.8979
 20
6.71114
 11
31.9241
 21
6.89784
  0
LINE
  8
0
 10
31.9241
 20
6.89784
 11
31.9678
 21
7.05869
  0
LINE
  8
0
 10
31.9678
 20
7.05869
 11
32.029
 21
7.19366
  0
LINE
  8
0
 10
32.029
 20
7.19366
 11
32.1065
 21
7.30046
  0
LINE
  8
0
 10
32.1065
 20
7.30046
 11
32.1988
 21
7.37675
  0
LINE
  8
0
 10
32.1988
 20
7.37675
 11
32.306
 21
7.42252
  0
LINE
  8
0
 10
32.306
 20
7.42252
 11
32.4282
 21
7.43777
  0
LINE
  8
0
 10
32.4282
 20
7.43777
 11
32.5513
 21
7.42252
  0
LINE
  8
0
 10
32.5513
 20
7.42252
 11
32.6592
 21
7.37675
  0
LINE
  8
0
 10
32.6592
 20
7.37675
 11
32.7519
 21
7.30046
  0
LINE
  8
0
 10
32.7519
 20
7.30046
 11
32.8294
 21
7.19366
  0
LINE
  8
0
 10
32.8294
 20
7.19366
 11
32.8906
 21
7.05869
  0
LINE
  8
0
 10
32.8906
 20
7.05869
 11
32.9344
 21
6.89784
  0
LINE
  8
0
 10
32.9344
 20
6.89784
 11
32.9606
 21
6.71114
  0
LINE
  8
0
 10
32.9606
 20
6.71114
 11
32.9693
 21
6.49857
  0
LINE
  8
0
 10
32.9693
 20
6.49857
 11
32.9606
 21
6.28705
  0
LINE
  8
0
 10
32.9606
 20
6.28705
 11
32.9344
 21
6.10152
  0
LINE
  8
0
 10
32.9344
 20
6.10152
 11
32.8906
 21
5.94196
  0
LINE
  8
0
 10
32.8906
 20
5.94196
 11
32.8294
 21
5.80836
  0
LINE
  8
0
 10
32.8294
 20
5.80836
 11
32.7519
 21
5.70285
  0
LINE
  8
0
 10
32.7519
 20
5.70285
 11
32.6592
 21
5.62749
  0
LINE
  8
0
 10
32.6592
 20
5.62749
 11
32.5513
 21
5.58228
  0
LINE
  8
0
 10
32.5513
 20
5.58228
 11
32.4282
 21
5.5672
  0
LINE
  8
0
 10
32.4282
 20
5.5672
 11
32.3052
 21
5.58228
  0
LINE
  8
0
 10
22.467
 20
5.01138
 11
22.6568
 21
5.04391
  0
LINE
  8
0
 10
22.6568
 20
5.04391
 11
22.8368
 21
5.09813
  0
LINE
  8
0
 10
22.8368
 20
5.09813
 11
23.0069
 21
5.17404
  0
LINE
  8
0
 10
23.0069
 20
5.17404
 11
23.1634
 21
5.27092
  0
LINE
  8
0
 10
23.1634
 20
5.27092
 11
23.3029
 21
5.38803
  0
LINE
  8
0
 10
23.3029
 20
5.38803
 11
23.4253
 21
5.52534
  0
LINE
  8
0
 10
23.4253
 20
5.52534
 11
23.5305
 21
5.68288
  0
LINE
  8
0
 10
23.5305
 20
5.68288
 11
23.6151
 21
5.8596
  0
LINE
  8
0
 10
23.6151
 20
5.8596
 11
23.6756
 21
6.05446
  0
LINE
  8
0
 10
23.6756
 20
6.05446
 11
23.7118
 21
6.26744
  0
LINE
  8
0
 10
23.7118
 20
6.26744
 11
23.7239
 21
6.49857
  0
LINE
  8
0
 10
23.7239
 20
6.49857
 11
23.7118
 21
6.73056
  0
LINE
  8
0
 10
23.7118
 20
6.73056
 11
23.6756
 21
6.94415
  0
LINE
  8
0
 10
23.6756
 20
6.94415
 11
23.6151
 21
7.13937
  0
LINE
  8
0
 10
23.6151
 20
7.13937
 11
23.5305
 21
7.31619
  0
LINE
  8
0
 10
23.5305
 20
7.31619
 11
23.4253
 21
7.4738
  0
LINE
  8
0
 10
23.4253
 20
7.4738
 11
23.3029
 21
7.6113
  0
LINE
  8
0
 10
23.3029
 20
7.6113
 11
23.1634
 21
7.72871
  0
LINE
  8
0
 10
23.1634
 20
7.72871
 11
23.0069
 21
7.82602
  0
LINE
  8
0
 10
23.0069
 20
7.82602
 11
22.8368
 21
7.90237
  0
LINE
  8
0
 10
22.8368
 20
7.90237
 11
22.6568
 21
7.95691
  0
LINE
  8
0
 10
22.6568
 20
7.95691
 11
22.467
 21
7.98962
  0
LINE
  8
0
 10
22.467
 20
7.98962
 11
22.2672
 21
8.00053
  0
LINE
  8
0
 10
22.2672
 20
8.00053
 11
22.0656
 21
7.98962
  0
LINE
  8
0
 10
22.0656
 20
7.98962
 11
21.8745
 21
7.95691
  0
LINE
  8
0
 10
21.8745
 20
7.95691
 11
21.6937
 21
7.90237
  0
LINE
  8
0
 10
21.6937
 20
7.90237
 11
21.5234
 21
7.82602
  0
LINE
  8
0
 10
21.5234
 20
7.82602
 11
21.3668
 21
7.72871
  0
LINE
  8
0
 10
21.3668
 20
7.72871
 11
21.2274
 21
7.6113
  0
LINE
  8
0
 10
21.2274
 20
7.6113
 11
21.105
 21
7.4738
  0
LINE
  8
0
 10
21.105
 20
7.4738
 11
20.9998
 21
7.31619
  0
LINE
  8
0
 10
20.9998
 20
7.31619
 11
20.9151
 21
7.13937
  0
LINE
  8
0
 10
20.9151
 20
7.13937
 11
20.8547
 21
6.94415
  0
LINE
  8
0
 10
20.8547
 20
6.94415
 11
20.8184
 21
6.73056
  0
LINE
  8
0
 10
20.8184
 20
6.73056
 11
20.8063
 21
6.49857
  0
LINE
  8
0
 10
20.8063
 20
6.49857
 11
20.8184
 21
6.2683
  0
LINE
  8
0
 10
20.8184
 20
6.2683
 11
20.8547
 21
6.05591
  0
LINE
  8
0
 10
20.8547
 20
6.05591
 11
20.9151
 21
5.86142
  0
LINE
  8
0
 10
20.9151
 20
5.86142
 11
20.9998
 21
5.68481
  0
LINE
  8
0
 10
20.9998
 20
5.68481
 11
21.105
 21
5.52724
  0
LINE
  8
0
 10
21.105
 20
5.52724
 11
21.2274
 21
5.38974
  0
LINE
  8
0
 10
21.2274
 20
5.38974
 11
21.3668
 21
5.27234
  0
LINE
  8
0
 10
21.3668
 20
5.27234
 11
21.5234
 21
5.17503
  0
LINE
  8
0
 10
21.5234
 20
5.17503
 11
21.6937
 21
5.09869
  0
LINE
  8
0
 10
21.6937
 20
5.09869
 11
21.8745
 21
5.04416
  0
LINE
  8
0
 10
21.8745
 20
5.04416
 11
22.0656
 21
5.01144
  0
LINE
  8
0
 10
22.0656
 20
5.01144
 11
22.2672
 21
5.00053
  0
LINE
  8
0
 10
22.2672
 20
5.00053
 11
22.467
 21
5.01138
  0
LINE
  8
0
 10
22.1085
 20
5.62265
 11
21.9678
 21
5.66548
  0
LINE
  8
0
 10
21.9678
 20
5.66548
 11
21.8451
 21
5.73686
  0
LINE
  8
0
 10
21.8451
 20
5.73686
 11
21.7405
 21
5.83679
  0
LINE
  8
0
 10
21.7405
 20
5.83679
 11
21.6568
 21
5.96382
  0
LINE
  8
0
 10
21.6568
 20
5.96382
 11
21.597
 21
6.11646
  0
LINE
  8
0
 10
21.597
 20
6.11646
 11
21.5611
 21
6.29471
  0
LINE
  8
0
 10
21.5611
 20
6.29471
 11
21.5491
 21
6.49857
  0
LINE
  8
0
 10
21.5491
 20
6.49857
 11
21.5611
 21
6.70335
  0
LINE
  8
0
 10
21.5611
 20
6.70335
 11
21.597
 21
6.88239
  0
LINE
  8
0
 10
21.597
 20
6.88239
 11
21.6568
 21
7.03569
  0
LINE
  8
0
 10
21.6568
 20
7.03569
 11
21.7405
 21
7.16325
  0
LINE
  8
0
 10
21.7405
 20
7.16325
 11
21.8451
 21
7.26363
  0
LINE
  8
0
 10
21.8451
 20
7.26363
 11
21.9678
 21
7.33531
  0
LINE
  8
0
 10
21.9678
 20
7.33531
 11
22.1085
 21
7.37833
  0
LINE
  8
0
 10
22.1085
 20
7.37833
 11
22.2672
 21
7.39267
  0
LINE
  8
0
 10
22.2672
 20
7.39267
 11
22.425
 21
7.37833
  0
LINE
  8
0
 10
22.425
 20
7.37833
 11
22.565
 21
7.33531
  0
LINE
  8
0
 10
22.565
 20
7.33531
 11
22.6873
 21
7.26363
  0
LINE
  8
0
 10
22.6873
 20
7.26363
 11
22.7919
 21
7.16325
  0
LINE
  8
0
 10
22.7919
 20
7.16325
 11
22.8756
 21
7.03569
  0
LINE
  8
0
 10
22.8756
 20
7.03569
 11
22.9354
 21
6.88239
  0
LINE
  8
0
 10
22.9354
 20
6.88239
 11
22.9713
 21
6.70335
  0
LINE
  8
0
 10
22.9713
 20
6.70335
 11
22.9832
 21
6.49857
  0
LINE
  8
0
 10
22.9832
 20
6.49857
 11
22.9713
 21
6.29471
  0
LINE
  8
0
 10
22.9713
 20
6.29471
 11
22.9354
 21
6.11646
  0
LINE
  8
0
 10
22.9354
 20
6.11646
 11
22.8756
 21
5.96382
  0
LINE
  8
0
 10
22.8756
 20
5.96382
 11
22.7919
 21
5.83679
  0
LINE
  8
0
 10
22.7919
 20
5.83679
 11
22.6873
 21
5.73686
  0
LINE
  8
0
 10
22.6873
 20
5.73686
 11
22.565
 21
5.66548
  0
LINE
  8
0
 10
22.565
 20
5.66548
 11
22.425
 21
5.62265
  0
LINE
  8
0
 10
22.425
 20
5.62265
 11
22.2672
 21
5.60837
  0
LINE
  8
0
 10
22.2672
 20
5.60837
 11
22.1085
 21
5.62265
  0
LINE
  8
0
 10
13.049
 20
6.29855
 11
13.0487
 21
6.35756
  0
LINE
  8
0
 10
13.0487
 20
6.35756
 11
13.0477
 21
6.42477
  0
LINE
  8
0
 10
13.0477
 20
6.42477
 11
13.0461
 21
6.5002
  0
LINE
  8
0
 10
13.0461
 20
6.5002
 11
13.0439
 21
6.58383
  0
LINE
  8
0
 10
13.0439
 20
6.58383
 11
13.0385
 21
6.76645
  0
LINE
  8
0
 10
13.0385
 20
6.76645
 11
13.0325
 21
6.96326
  0
LINE
  8
0
 10
13.0325
 20
6.96326
 11
13.0296
 21
7.06448
  0
LINE
  8
0
 10
13.0296
 20
7.06448
 11
13.0269
 21
7.16425
  0
LINE
  8
0
 10
13.0269
 20
7.16425
 11
13.0245
 21
7.26253
  0
LINE
  8
0
 10
13.0245
 20
7.26253
 11
13.0223
 21
7.35933
  0
LINE
  8
0
 10
13.0223
 20
7.35933
 11
13.0483
 21
7.25659
  0
LINE
  8
0
 10
13.0483
 20
7.25659
 11
13.075
 21
7.15421
  0
LINE
  8
0
 10
13.075
 20
7.15421
 11
13.1023
 21
7.05219
  0
LINE
  8
0
 10
13.1023
 20
7.05219
 11
13.1303
 21
6.95053
  0
LINE
  8
0
 10
13.1303
 20
6.95053
 11
13.1583
 21
6.85109
  0
LINE
  8
0
 10
13.1583
 20
6.85109
 11
13.1856
 21
6.75568
  0
LINE
  8
0
 10
13.1856
 20
6.75568
 11
13.2123
 21
6.66431
  0
LINE
  8
0
 10
13.2123
 20
6.66431
 11
13.2383
 21
6.57698
  0
LINE
  8
0
 10
13.2383
 20
6.57698
 11
13.263
 21
6.49561
  0
LINE
  8
0
 10
13.263
 20
6.49561
 11
13.2856
 21
6.42209
  0
LINE
  8
0
 10
13.2856
 20
6.42209
 11
13.3062
 21
6.3564
  0
LINE
  8
0
 10
13.3062
 20
6.3564
 11
13.3247
 21
6.29855
  0
LINE
  8
0
 10
13.3247
 20
6.29855
 11
13.7671
 21
5.03975
  0
LINE
  8
0
 10
13.7671
 20
5.03975
 11
14.3741
 21
5.03975
  0
LINE
  8
0
 10
14.3741
 20
5.03975
 11
14.8103
 21
6.29855
  0
LINE
  8
0
 10
14.8103
 20
6.29855
 11
14.8297
 21
6.35855
  0
LINE
  8
0
 10
14.8297
 20
6.35855
 11
14.8509
 21
6.42674
  0
LINE
  8
0
 10
14.8509
 20
6.42674
 11
14.8739
 21
6.50316
  0
LINE
  8
0
 10
14.8739
 20
6.50316
 11
14.8987
 21
6.58777
  0
LINE
  8
0
 10
14.8987
 20
6.58777
 11
14.9248
 21
6.67853
  0
LINE
  8
0
 10
14.9248
 20
6.67853
 11
14.9515
 21
6.77332
  0
LINE
  8
0
 10
14.9515
 20
6.77332
 11
14.9788
 21
6.87215
  0
LINE
  8
0
 10
14.9788
 20
6.87215
 11
15.0068
 21
6.97502
  0
LINE
  8
0
 10
15.0068
 20
6.97502
 11
15.0347
 21
7.07982
  0
LINE
  8
0
 10
15.0347
 20
7.07982
 11
15.0621
 21
7.18434
  0
LINE
  8
0
 10
15.0621
 20
7.18434
 11
15.0887
 21
7.28864
  0
LINE
  8
0
 10
15.0887
 20
7.28864
 11
15.1148
 21
7.39267
  0
LINE
  8
0
 10
15.1148
 20
7.39267
 11
15.1126
 21
7.29366
  0
LINE
  8
0
 10
15.1126
 20
7.29366
 11
15.1102
 21
7.19269
  0
LINE
  8
0
 10
15.1102
 20
7.19269
 11
15.1075
 21
7.08974
  0
LINE
  8
0
 10
15.1075
 20
7.08974
 11
15.1045
 21
6.98483
  0
LINE
  8
0
 10
15.1045
 20
6.98483
 11
15.0986
 21
6.78067
  0
LINE
  8
0
 10
15.0986
 20
6.78067
 11
15.0932
 21
6.59171
  0
LINE
  8
0
 10
15.0932
 20
6.59171
 11
15.0909
 21
6.50537
  0
LINE
  8
0
 10
15.0909
 20
6.50537
 11
15.0893
 21
6.42773
  0
LINE
  8
0
 10
15.0893
 20
6.42773
 11
15.0883
 21
6.3588
  0
LINE
  8
0
 10
15.0883
 20
6.3588
 11
15.088
 21
6.29855
  0
LINE
  8
0
 10
15.088
 20
6.29855
 11
15.088
 21
5.03975
  0
LINE
  8
0
 10
15.088
 20
5.03975
 11
15.8185
 21
5.03975
  0
LINE
  8
0
 10
15.8185
 20
5.03975
 11
15.8185
 21
7.9613
  0
LINE
  8
0
 10
15.8185
 20
7.9613
 11
14.6848
 21
7.9613
  0
LINE
  8
0
 10
14.6848
 20
7.9613
 11
14.3
 21
6.82405
  0
LINE
  8
0
 10
14.3
 20
6.82405
 11
14.284
 21
6.77019
  0
LINE
  8
0
 10
14.284
 20
6.77019
 11
14.2668
 21
6.70862
  0
LINE
  8
0
 10
14.2668
 20
6.70862
 11
14.2485
 21
6.63931
  0
LINE
  8
0
 10
14.2485
 20
6.63931
 11
14.229
 21
6.5623
  0
LINE
  8
0
 10
14.229
 20
6.5623
 11
14.209
 21
6.47993
  0
LINE
  8
0
 10
14.209
 20
6.47993
 11
14.1889
 21
6.39464
  0
LINE
  8
0
 10
14.1889
 20
6.39464
 11
14.1688
 21
6.30641
  0
LINE
  8
0
 10
14.1688
 20
6.30641
 11
14.1488
 21
6.21523
  0
LINE
  8
0
 10
14.1488
 20
6.21523
 11
14.129
 21
6.12326
  0
LINE
  8
0
 10
14.129
 20
6.12326
 11
14.1099
 21
6.03264
  0
LINE
  8
0
 10
14.1099
 20
6.03264
 11
14.0915
 21
5.94336
  0
LINE
  8
0
 10
14.0915
 20
5.94336
 11
14.0737
 21
5.85544
  0
LINE
  8
0
 10
14.0737
 20
5.85544
 11
14.0549
 21
5.94342
  0
LINE
  8
0
 10
14.0549
 20
5.94342
 11
14.0356
 21
6.03288
  0
LINE
  8
0
 10
14.0356
 20
6.03288
 11
14.0158
 21
6.12381
  0
LINE
  8
0
 10
14.0158
 20
6.12381
 11
13.9955
 21
6.21622
  0
LINE
  8
0
 10
13.9955
 20
6.21622
 11
13.975
 21
6.30775
  0
LINE
  8
0
 10
13.975
 20
6.30775
 11
13.9546
 21
6.39612
  0
LINE
  8
0
 10
13.9546
 20
6.39612
 11
13.9343
 21
6.48129
  0
LINE
  8
0
 10
13.9343
 20
6.48129
 11
13.9142
 21
6.56328
  0
LINE
  8
0
 10
13.9142
 20
6.56328
 11
13.8947
 21
6.63988
  0
LINE
  8
0
 10
13.8947
 20
6.63988
 11
13.8764
 21
6.70886
  0
LINE
  8
0
 10
13.8764
 20
6.70886
 11
13.8592
 21
6.77025
  0
LINE
  8
0
 10
13.8592
 20
6.77025
 11
13.8432
 21
6.82405
  0
LINE
  8
0
 10
13.8432
 20
6.82405
 11
13.4523
 21
7.9613
  0
LINE
  8
0
 10
13.4523
 20
7.9613
 11
12.3207
 21
7.9613
  0
LINE
  8
0
 10
12.3207
 20
7.9613
 11
12.3207
 21
5.03975
  0
LINE
  8
0
 10
12.3207
 20
5.03975
 11
13.049
 21
5.03975
  0
LINE
  8
0
 10
13.049
 20
5.03975
 11
13.049
 21
6.29855
  0
LINE
  8
0
 10
19.6712
 20
5.04637
 11
19.8219
 21
5.06622
  0
LINE
  8
0
 10
19.8219
 20
5.06622
 11
19.9598
 21
5.0993
  0
LINE
  8
0
 10
19.9598
 20
5.0993
 11
20.085
 21
5.14563
  0
LINE
  8
0
 10
20.085
 20
5.14563
 11
20.1967
 21
5.20346
  0
LINE
  8
0
 10
20.1967
 20
5.20346
 11
20.2943
 21
5.27112
  0
LINE
  8
0
 10
20.2943
 20
5.27112
 11
20.3778
 21
5.34857
  0
LINE
  8
0
 10
20.3778
 20
5.34857
 11
20.4471
 21
5.43582
  0
LINE
  8
0
 10
20.4471
 20
5.43582
 11
20.5016
 21
5.53117
  0
LINE
  8
0
 10
20.5016
 20
5.53117
 11
20.5405
 21
5.63289
  0
LINE
  8
0
 10
20.5405
 20
5.63289
 11
20.5638
 21
5.74097
  0
LINE
  8
0
 10
20.5638
 20
5.74097
 11
20.5716
 21
5.85544
  0
LINE
  8
0
 10
20.5716
 20
5.85544
 11
20.5656
 21
5.95776
  0
LINE
  8
0
 10
20.5656
 20
5.95776
 11
20.5477
 21
6.05298
  0
LINE
  8
0
 10
20.5477
 20
6.05298
 11
20.5178
 21
6.14108
  0
LINE
  8
0
 10
20.5178
 20
6.14108
 11
20.4759
 21
6.22208
  0
LINE
  8
0
 10
20.4759
 20
6.22208
 11
20.4242
 21
6.29524
  0
LINE
  8
0
 10
20.4242
 20
6.29524
 11
20.3648
 21
6.35983
  0
LINE
  8
0
 10
20.3648
 20
6.35983
 11
20.2977
 21
6.41585
  0
LINE
  8
0
 10
20.2977
 20
6.41585
 11
20.2228
 21
6.46327
  0
LINE
  8
0
 10
20.2228
 20
6.46327
 11
20.1425
 21
6.50151
  0
LINE
  8
0
 10
20.1425
 20
6.50151
 11
20.059
 21
6.52994
  0
LINE
  8
0
 10
20.059
 20
6.52994
 11
19.9723
 21
6.54857
  0
LINE
  8
0
 10
19.9723
 20
6.54857
 11
19.8823
 21
6.55737
  0
LINE
  8
0
 10
19.8823
 20
6.55737
 11
19.8823
 21
6.58875
  0
LINE
  8
0
 10
19.8823
 20
6.58875
 11
20.0021
 21
6.62056
  0
LINE
  8
0
 10
20.0021
 20
6.62056
 11
20.1104
 21
6.66695
  0
LINE
  8
0
 10
20.1104
 20
6.66695
 11
20.2073
 21
6.72791
  0
LINE
  8
0
 10
20.2073
 20
6.72791
 11
20.2928
 21
6.80345
  0
LINE
  8
0
 10
20.2928
 20
6.80345
 11
20.3625
 21
6.89163
  0
LINE
  8
0
 10
20.3625
 20
6.89163
 11
20.4124
 21
6.99048
  0
LINE
  8
0
 10
20.4124
 20
6.99048
 11
20.4423
 21
7.09998
  0
LINE
  8
0
 10
20.4423
 20
7.09998
 11
20.4522
 21
7.22012
  0
LINE
  8
0
 10
20.4522
 20
7.22012
 11
20.4358
 21
7.3779
  0
LINE
  8
0
 10
20.4358
 20
7.3779
 11
20.3866
 21
7.51988
  0
LINE
  8
0
 10
20.3866
 20
7.51988
 11
20.3047
 21
7.64604
  0
LINE
  8
0
 10
20.3047
 20
7.64604
 11
20.1899
 21
7.75639
  0
LINE
  8
0
 10
20.1899
 20
7.75639
 11
20.043
 21
7.84604
  0
LINE
  8
0
 10
20.043
 20
7.84604
 11
19.8645
 21
7.91008
  0
LINE
  8
0
 10
19.8645
 20
7.91008
 11
19.6546
 21
7.9485
  0
LINE
  8
0
 10
19.6546
 20
7.9485
 11
19.4132
 21
7.9613
  0
LINE
  8
0
 10
19.4132
 20
7.9613
 11
18.1416
 21
7.9613
  0
LINE
  8
0
 10
18.1416
 20
7.9613
 11
18.1416
 21
5.03975
  0
LINE
  8
0
 10
18.1416
 20
5.03975
 11
19.5078
 21
5.03975
  0
LINE
  8
0
 10
19.5078
 20
5.03975
 11
19.6712
 21
5.04637
  0
LINE
  8
0
 10
18.8679
 20
6.7574
 11
18.8679
 21
7.40837
  0
LINE
  8
0
 10
18.8679
 20
7.40837
 11
19.302
 21
7.40837
  0
LINE
  8
0
 10
19.302
 20
7.40837
 11
19.3909
 21
7.40298
  0
LINE
  8
0
 10
19.3909
 20
7.40298
 11
19.4703
 21
7.38681
  0
LINE
  8
0
 10
19.4703
 20
7.38681
 11
19.5401
 21
7.35985
  0
LINE
  8
0
 10
19.5401
 20
7.35985
 11
19.6004
 21
7.3221
  0
LINE
  8
0
 10
19.6004
 20
7.3221
 11
19.649
 21
7.27516
  0
LINE
  8
0
 10
19.649
 20
7.27516
 11
19.6837
 21
7.22063
  0
LINE
  8
0
 10
19.6837
 20
7.22063
 11
19.7046
 21
7.15849
  0
LINE
  8
0
 10
19.7046
 20
7.15849
 11
19.7115
 21
7.08878
  0
LINE
  8
0
 10
19.7115
 20
7.08878
 11
19.7041
 21
7.01389
  0
LINE
  8
0
 10
19.7041
 20
7.01389
 11
19.6817
 21
6.94807
  0
LINE
  8
0
 10
19.6817
 20
6.94807
 11
19.6444
 21
6.89131
  0
LINE
  8
0
 10
19.6444
 20
6.89131
 11
19.5922
 21
6.84364
  0
LINE
  8
0
 10
19.5922
 20
6.84364
 11
19.5285
 21
6.80592
  0
LINE
  8
0
 10
19.5285
 20
6.80592
 11
19.4569
 21
6.77896
  0
LINE
  8
0
 10
19.4569
 20
6.77896
 11
19.3773
 21
6.76279
  0
LINE
  8
0
 10
19.3773
 20
6.76279
 11
19.2897
 21
6.7574
  0
LINE
  8
0
 10
19.2897
 20
6.7574
 11
18.8679
 21
6.7574
  0
LINE
  8
0
 10
18.8679
 20
5.59857
 11
18.8679
 21
6.30838
  0
LINE
  8
0
 10
18.8679
 20
6.30838
 11
19.3514
 21
6.30838
  0
LINE
  8
0
 10
19.3514
 20
6.30838
 11
19.4529
 21
6.30202
  0
LINE
  8
0
 10
19.4529
 20
6.30202
 11
19.5431
 21
6.28288
  0
LINE
  8
0
 10
19.5431
 20
6.28288
 11
19.6221
 21
6.25102
  0
LINE
  8
0
 10
19.6221
 20
6.25102
 11
19.6899
 21
6.20641
  0
LINE
  8
0
 10
19.6899
 20
6.20641
 11
19.7444
 21
6.15115
  0
LINE
  8
0
 10
19.7444
 20
6.15115
 11
19.7833
 21
6.0873
  0
LINE
  8
0
 10
19.7833
 20
6.0873
 11
19.8066
 21
6.01488
  0
LINE
  8
0
 10
19.8066
 20
6.01488
 11
19.8144
 21
5.93388
  0
LINE
  8
0
 10
19.8144
 20
5.93388
 11
19.8071
 21
5.85966
  0
LINE
  8
0
 10
19.8071
 20
5.85966
 11
19.7853
 21
5.79391
  0
LINE
  8
0
 10
19.7853
 20
5.79391
 11
19.749
 21
5.7366
  0
LINE
  8
0
 10
19.749
 20
5.7366
 11
19.6981
 21
5.68777
  0
LINE
  8
0
 10
19.6981
 20
5.68777
 11
19.632
 21
5.64874
  0
LINE
  8
0
 10
19.632
 20
5.64874
 11
19.5497
 21
5.62086
  0
LINE
  8
0
 10
19.5497
 20
5.62086
 11
19.4514
 21
5.60414
  0
LINE
  8
0
 10
19.4514
 20
5.60414
 11
19.337
 21
5.59857
  0
LINE
  8
0
 10
19.337
 20
5.59857
 11
18.8679
 21
5.59857
  0
LINE
  8
0
 10
24.7343
 20
5.66132
 11
25.7549
 21
5.66132
  0
LINE
  8
0
 10
25.7549
 20
5.66132
 11
25.9627
 21
5.03975
  0
LINE
  8
0
 10
25.9627
 20
5.03975
 11
26.7775
 21
5.03975
  0
LINE
  8
0
 10
26.7775
 20
5.03975
 11
25.724
 21
7.9613
  0
LINE
  8
0
 10
25.724
 20
7.9613
 11
24.7508
 21
7.9613
  0
LINE
  8
0
 10
24.7508
 20
7.9613
 11
23.7282
 21
5.03975
  0
LINE
  8
0
 10
23.7282
 20
5.03975
 11
24.5348
 21
5.03975
  0
LINE
  8
0
 10
24.5348
 20
5.03975
 11
24.7343
 21
5.66132
  0
LINE
  8
0
 10
24.9051
 20
6.19073
 11
24.9463
 21
6.31622
  0
LINE
  8
0
 10
24.9463
 20
6.31622
 11
24.9839
 21
6.44232
  0
LINE
  8
0
 10
24.9839
 20
6.44232
 11
25.0206
 21
6.57161
  0
LINE
  8
0
 10
25.0206
 20
6.57161
 11
25.0564
 21
6.70409
  0
LINE
  8
0
 10
25.0564
 20
6.70409
 11
25.0913
 21
6.83975
  0
LINE
  8
0
 10
25.0913
 20
6.83975
 11
25.1259
 21
6.97835
  0
LINE
  8
0
 10
25.1259
 20
6.97835
 11
25.1605
 21
7.11964
  0
LINE
  8
0
 10
25.1605
 20
7.11964
 11
25.1953
 21
7.26364
  0
LINE
  8
0
 10
25.1953
 20
7.26364
 11
25.2302
 21
7.41034
  0
LINE
  8
0
 10
25.2302
 20
7.41034
 11
25.2674
 21
7.2645
  0
LINE
  8
0
 10
25.2674
 20
7.2645
 11
25.3048
 21
7.12111
  0
LINE
  8
0
 10
25.3048
 20
7.12111
 11
25.3425
 21
6.98018
  0
LINE
  8
0
 10
25.3425
 20
6.98018
 11
25.3804
 21
6.84169
  0
LINE
  8
0
 10
25.3804
 20
6.84169
 11
25.4187
 21
6.7059
  0
LINE
  8
0
 10
25.4187
 20
6.7059
 11
25.4576
 21
6.57306
  0
LINE
  8
0
 10
25.4576
 20
6.57306
 11
25.4969
 21
6.44318
  0
LINE
  8
0
 10
25.4969
 20
6.44318
 11
25.5368
 21
6.31622
  0
LINE
  8
0
 10
25.5368
 20
6.31622
 11
25.5779
 21
6.19073
  0
LINE
  8
0
 10
25.5779
 20
6.19073
 11
24.9051
 21
6.19073
  0
LINE
  8
0
 10
28.2144
 20
7.39661
 11
29.1424
 21
7.39661
  0
LINE
  8
0
 10
29.1424
 20
7.39661
 11
29.1424
 21
7.9613
  0
LINE
  8
0
 10
29.1424
 20
7.9613
 11
26.5622
 21
7.9613
  0
LINE
  8
0
 10
26.5622
 20
7.9613
 11
26.5622
 21
7.39661
  0
LINE
  8
0
 10
26.5622
 20
7.39661
 11
27.4902
 21
7.39661
  0
LINE
  8
0
 10
27.4902
 20
7.39661
 11
27.4902
 21
5.03975
  0
LINE
  8
0
 10
27.4902
 20
5.03975
 11
28.2144
 21
5.03975
  0
LINE
  8
0
 10
28.2144
 20
5.03975
 11
28.2144
 21
7.39661
  0
LINE
  8
0
 10
9.16704
 20
6.29855
 11
9.16672
 21
6.35756
  0
LINE
  8
0
 10
9.16672
 20
6.35756
 11
9.16574
 21
6.42477
  0
LINE
  8
0
 10
9.16574
 20
6.42477
 11
9.16414
 21
6.5002
  0
LINE
  8
0
 10
9.16414
 20
6.5002
 11
9.16188
 21
6.58383
  0
LINE
  8
0
 10
9.16188
 20
6.58383
 11
9.15648
 21
6.76645
  0
LINE
  8
0
 10
9.15648
 20
6.76645
 11
9.15056
 21
6.96326
  0
LINE
  8
0
 10
9.15056
 20
6.96326
 11
9.14761
 21
7.06448
  0
LINE
  8
0
 10
9.14761
 20
7.06448
 11
9.14491
 21
7.16425
  0
LINE
  8
0
 10
9.14491
 20
7.16425
 11
9.14247
 21
7.26253
  0
LINE
  8
0
 10
9.14247
 20
7.26253
 11
9.14027
 21
7.35933
  0
LINE
  8
0
 10
9.14027
 20
7.35933
 11
9.16632
 21
7.25659
  0
LINE
  8
0
 10
9.16632
 20
7.25659
 11
9.19301
 21
7.15421
  0
LINE
  8
0
 10
9.19301
 20
7.15421
 11
9.22034
 21
7.05219
  0
LINE
  8
0
 10
9.22034
 20
7.05219
 11
9.24831
 21
6.95053
  0
LINE
  8
0
 10
9.24831
 20
6.95053
 11
9.27629
 21
6.85109
  0
LINE
  8
0
 10
9.27629
 20
6.85109
 11
9.3036
 21
6.75568
  0
LINE
  8
0
 10
9.3036
 20
6.75568
 11
9.33029
 21
6.66431
  0
LINE
  8
0
 10
9.33029
 20
6.66431
 11
9.35632
 21
6.57698
  0
LINE
  8
0
 10
9.35632
 20
6.57698
 11
9.38101
 21
6.49561
  0
LINE
  8
0
 10
9.38101
 20
6.49561
 11
9.40366
 21
6.42209
  0
LINE
  8
0
 10
9.40366
 20
6.42209
 11
9.42422
 21
6.3564
  0
LINE
  8
0
 10
9.42422
 20
6.3564
 11
9.44273
 21
6.29855
  0
LINE
  8
0
 10
9.44273
 20
6.29855
 11
9.88512
 21
5.03975
  0
LINE
  8
0
 10
9.88512
 20
5.03975
 11
10.4921
 21
5.03975
  0
LINE
  8
0
 10
10.4921
 20
5.03975
 11
10.9283
 21
6.29855
  0
LINE
  8
0
 10
10.9283
 20
6.29855
 11
10.9477
 21
6.35855
  0
LINE
  8
0
 10
10.9477
 20
6.35855
 11
10.9689
 21
6.42674
  0
LINE
  8
0
 10
10.9689
 20
6.42674
 11
10.9919
 21
6.50316
  0
LINE
  8
0
 10
10.9919
 20
6.50316
 11
11.0168
 21
6.58777
  0
LINE
  8
0
 10
11.0168
 20
6.58777
 11
11.0428
 21
6.67853
  0
LINE
  8
0
 10
11.0428
 20
6.67853
 11
11.0695
 21
6.77332
  0
LINE
  8
0
 10
11.0695
 20
6.77332
 11
11.0968
 21
6.87215
  0
LINE
  8
0
 10
11.0968
 20
6.87215
 11
11.1248
 21
6.97502
  0
LINE
  8
0
 10
11.1248
 20
6.97502
 11
11.1528
 21
7.07982
  0
LINE
  8
0
 10
11.1528
 20
7.07982
 11
11.1801
 21
7.18434
  0
LINE
  8
0
 10
11.1801
 20
7.18434
 11
11.2068
 21
7.28864
  0
LINE
  8
0
 10
11.2068
 20
7.28864
 11
11.2328
 21
7.39267
  0
LINE
  8
0
 10
11.2328
 20
7.39267
 11
11.2306
 21
7.29366
  0
LINE
  8
0
 10
11.2306
 20
7.29366
 11
11.2282
 21
7.19269
  0
LINE
  8
0
 10
11.2282
 20
7.19269
 11
11.2255
 21
7.08974
  0
LINE
  8
0
 10
11.2255
 20
7.08974
 11
11.2225
 21
6.98483
  0
LINE
  8
0
 10
11.2225
 20
6.98483
 11
11.2166
 21
6.78067
  0
LINE
  8
0
 10
11.2166
 20
6.78067
 11
11.2112
 21
6.59171
  0
LINE
  8
0
 10
11.2112
 20
6.59171
 11
11.2089
 21
6.50537
  0
LINE
  8
0
 10
11.2089
 20
6.50537
 11
11.2073
 21
6.42773
  0
LINE
  8
0
 10
11.2073
 20
6.42773
 11
11.2064
 21
6.3588
  0
LINE
  8
0
 10
11.2064
 20
6.3588
 11
11.206
 21
6.29855
  0
LINE
  8
0
 10
11.206
 20
6.29855
 11
11.206
 21
5.03975
  0
LINE
  8
0
 10
11.206
 20
5.03975
 11
11.9365
 21
5.03975
  0
LINE
  8
0
 10
11.9365
 20
5.03975
 11
11.9365
 21
7.9613
  0
LINE
  8
0
 10
11.9365
 20
7.9613
 11
10.8028
 21
7.9613
  0
LINE
  8
0
 10
10.8028
 20
7.9613
 11
10.418
 21
6.82405
  0
LINE
  8
0
 10
10.418
 20
6.82405
 11
10.402
 21
6.77019
  0
LINE
  8
0
 10
10.402
 20
6.77019
 11
10.3848
 21
6.70862
  0
LINE
  8
0
 10
10.3848
 20
6.70862
 11
10.3665
 21
6.63931
  0
LINE
  8
0
 10
10.3665
 20
6.63931
 11
10.347
 21
6.5623
  0
LINE
  8
0
 10
10.347
 20
6.5623
 11
10.327
 21
6.47993
  0
LINE
  8
0
 10
10.327
 20
6.47993
 11
10.3069
 21
6.39464
  0
LINE
  8
0
 10
10.3069
 20
6.39464
 11
10.2868
 21
6.30641
  0
LINE
  8
0
 10
10.2868
 20
6.30641
 11
10.2668
 21
6.21523
  0
LINE
  8
0
 10
10.2668
 20
6.21523
 11
10.2471
 21
6.12326
  0
LINE
  8
0
 10
10.2471
 20
6.12326
 11
10.228
 21
6.03264
  0
LINE
  8
0
 10
10.228
 20
6.03264
 11
10.2095
 21
5.94336
  0
LINE
  8
0
 10
10.2095
 20
5.94336
 11
10.1917
 21
5.85544
  0
LINE
  8
0
 10
10.1917
 20
5.85544
 11
10.1729
 21
5.94342
  0
LINE
  8
0
 10
10.1729
 20
5.94342
 11
10.1536
 21
6.03288
  0
LINE
  8
0
 10
10.1536
 20
6.03288
 11
10.1338
 21
6.12381
  0
LINE
  8
0
 10
10.1338
 20
6.12381
 11
10.1135
 21
6.21622
  0
LINE
  8
0
 10
10.1135
 20
6.21622
 11
10.093
 21
6.30775
  0
LINE
  8
0
 10
10.093
 20
6.30775
 11
10.0726
 21
6.39612
  0
LINE
  8
0
 10
10.0726
 20
6.39612
 11
10.0524
 21
6.48129
  0
LINE
  8
0
 10
10.0524
 20
6.48129
 11
10.0322
 21
6.56328
  0
LINE
  8
0
 10
10.0322
 20
6.56328
 11
10.0128
 21
6.63988
  0
LINE
  8
0
 10
10.0128
 20
6.63988
 11
9.99443
 21
6.70886
  0
LINE
  8
0
 10
9.99443
 20
6.70886
 11
9.97725
 21
6.77025
  0
LINE
  8
0
 10
9.97725
 20
6.77025
 11
9.96124
 21
6.82405
  0
LINE
  8
0
 10
9.96124
 20
6.82405
 11
9.57031
 21
7.9613
  0
LINE
  8
0
 10
9.57031
 20
7.9613
 11
8.43867
 21
7.9613
  0
LINE
  8
0
 10
8.43867
 20
7.9613
 11
8.43867
 21
5.03975
  0
LINE
  8
0
 10
8.43867
 20
5.03975
 11
9.16704
 21
5.03975
  0
LINE
  8
0
 10
9.16704
 20
5.03975
 11
9.16704
 21
6.29855
  0
LINE
  8
0
 10
6.96176
 20
1.24901
 11
7.00339
 21
1.29529
  0
LINE
  8
0
 10
7.00339
 20
1.29529
 11
7.04254
 21
1.34233
  0
LINE
  8
0
 10
7.04254
 20
1.34233
 11
7.07925
 21
1.39024
  0
LINE
  8
0
 10
7.07925
 20
1.39024
 11
7.11354
 21
1.43918
  0
LINE
  8
0
 10
7.11354
 20
1.43918
 11
7.14543
 21
1.48924
  0
LINE
  8
0
 10
7.14543
 20
1.48924
 11
7.17496
 21
1.54056
  0
LINE
  8
0
 10
7.17496
 20
1.54056
 11
7.20215
 21
1.59328
  0
LINE
  8
0
 10
7.20215
 20
1.59328
 11
7.22701
 21
1.64749
  0
LINE
  8
0
 10
7.22701
 20
1.64749
 11
7.24957
 21
1.70335
  0
LINE
  8
0
 10
7.24957
 20
1.70335
 11
7.26987
 21
1.76099
  0
LINE
  8
0
 10
7.26987
 20
1.76099
 11
7.28792
 21
1.8205
  0
LINE
  8
0
 10
7.28792
 20
1.8205
 11
7.30376
 21
1.88203
  0
LINE
  8
0
 10
7.30376
 20
1.88203
 11
7.3174
 21
1.94571
  0
LINE
  8
0
 10
7.3174
 20
1.94571
 11
7.32887
 21
2.01166
  0
LINE
  8
0
 10
7.32887
 20
2.01166
 11
7.33821
 21
2.07999
  0
LINE
  8
0
 10
7.33821
 20
2.07999
 11
7.34543
 21
2.15085
  0
LINE
  8
0
 10
7.34543
 20
2.15085
 11
7.35054
 21
2.22437
  0
LINE
  8
0
 10
7.35054
 20
2.22437
 11
7.35361
 21
2.30064
  0
LINE
  8
0
 10
7.35361
 20
2.30064
 11
7.35461
 21
2.37982
  0
LINE
  8
0
 10
7.35461
 20
2.37982
 11
7.35461
 21
7.5899
  0
LINE
  8
0
 10
7.35461
 20
7.5899
 11
5.23697
 21
6.44705
  0
LINE
  8
0
 10
5.23697
 20
6.44705
 11
5.23697
 21
2.31259
  0
LINE
  8
0
 10
5.23697
 20
2.31259
 11
6.91763
 21
1.20335
  0
LINE
  8
0
 10
6.91763
 20
1.20335
 11
6.96176
 21
1.24901
  0
LINE
  8
0
 10
17.6635
 20
6.76328
 11
16.25
 21
6.76328
  0
LINE
  8
0
 10
16.25
 20
6.76328
 11
16.25
 21
6.23581
  0
LINE
  8
0
 10
16.25
 20
6.23581
 11
17.6635
 21
6.23581
  0
LINE
  8
0
 10
17.6635
 20
6.23581
 11
17.6635
 21
6.76328
  0
LINE
  8
0
 10
30.732
 20
6.76328
 11
29.3185
 21
6.76328
  0
LINE
  8
0
 10
29.3185
 20
6.76328
 11
29.3185
 21
6.23581
  0
LINE
  8
0
 10
29.3185
 20
6.23581
 11
30.732
 21
6.23581
  0
LINE
  8
0
 10
30.732
 20
6.23581
 11
30.732
 21
6.76328
  0
LINE
  8
0
 10
29.1322
 20
1.00986
 11
29.1809
 21
1.01186
  0
LINE
  8
0
 10
29.1809
 20
1.01186
 11
29.2309
 21
1.01517
  0
LINE
  8
0
 10
29.2309
 20
1.01517
 11
29.2824
 21
1.01982
  0
LINE
  8
0
 10
29.2824
 20
1.01982
 11
29.335
 21
1.02635
  0
LINE
  8
0
 10
29.335
 20
1.02635
 11
29.3886
 21
1.03532
  0
LINE
  8
0
 10
29.3886
 20
1.03532
 11
29.4432
 21
1.04672
  0
LINE
  8
0
 10
29.4432
 20
1.04672
 11
29.4987
 21
1.06056
  0
LINE
  8
0
 10
29.4987
 20
1.06056
 11
29.4133
 21
1.51039
  0
LINE
  8
0
 10
29.4133
 20
1.51039
 11
29.3978
 21
1.50758
  0
LINE
  8
0
 10
29.3978
 20
1.50758
 11
29.378
 21
1.50443
  0
LINE
  8
0
 10
29.378
 20
1.50443
 11
29.3537
 21
1.50093
  0
LINE
  8
0
 10
29.3537
 20
1.50093
 11
29.3251
 21
1.4971
  0
LINE
  8
0
 10
29.3251
 20
1.4971
 11
29.296
 21
1.49362
  0
LINE
  8
0
 10
29.296
 20
1.49362
 11
29.2703
 21
1.49113
  0
LINE
  8
0
 10
29.2703
 20
1.49113
 11
29.248
 21
1.48964
  0
LINE
  8
0
 10
29.248
 20
1.48964
 11
29.2292
 21
1.48914
  0
LINE
  8
0
 10
29.2292
 20
1.48914
 11
29.1553
 21
1.49876
  0
LINE
  8
0
 10
29.1553
 20
1.49876
 11
29.1026
 21
1.52765
  0
LINE
  8
0
 10
29.1026
 20
1.52765
 11
29.0709
 21
1.57581
  0
LINE
  8
0
 10
29.0709
 20
1.57581
 11
29.0604
 21
1.64322
  0
LINE
  8
0
 10
29.0604
 20
1.64322
 11
29.0604
 21
2.55885
  0
LINE
  8
0
 10
29.0604
 20
2.55885
 11
29.4418
 21
2.55885
  0
LINE
  8
0
 10
29.4418
 20
2.55885
 11
29.4418
 21
3.01755
  0
LINE
  8
0
 10
29.4418
 20
3.01755
 11
29.0604
 21
3.01755
  0
LINE
  8
0
 10
29.0604
 20
3.01755
 11
29.0604
 21
3.48866
  0
LINE
  8
0
 10
29.0604
 20
3.48866
 11
28.3981
 21
3.48866
  0
LINE
  8
0
 10
28.3981
 20
3.48866
 11
28.3981
 21
3.01755
  0
LINE
  8
0
 10
28.3981
 20
3.01755
 11
27.7353
 21
3.01755
  0
LINE
  8
0
 10
27.7353
 20
3.01755
 11
27.7353
 21
3.12914
  0
LINE
  8
0
 10
27.7353
 20
3.12914
 11
27.7382
 21
3.17026
  0
LINE
  8
0
 10
27.7382
 20
3.17026
 11
27.7469
 21
3.20683
  0
LINE
  8
0
 10
27.7469
 20
3.20683
 11
27.7614
 21
3.23888
  0
LINE
  8
0
 10
27.7614
 20
3.23888
 11
27.7817
 21
3.26637
  0
LINE
  8
0
 10
27.7817
 20
3.26637
 11
27.8094
 21
3.28845
  0
LINE
  8
0
 10
27.8094
 20
3.28845
 11
27.846
 21
3.30423
  0
LINE
  8
0
 10
27.846
 20
3.30423
 11
27.8915
 21
3.31369
  0
LINE
  8
0
 10
27.8915
 20
3.31369
 11
27.9459
 21
3.31685
  0
LINE
  8
0
 10
27.9459
 20
3.31685
 11
27.9715
 21
3.31636
  0
LINE
  8
0
 10
27.9715
 20
3.31636
 11
27.9971
 21
3.31487
  0
LINE
  8
0
 10
27.9971
 20
3.31487
 11
28.0228
 21
3.31236
  0
LINE
  8
0
 10
28.0228
 20
3.31236
 11
28.0484
 21
3.30888
  0
LINE
  8
0
 10
28.0484
 20
3.30888
 11
28.0732
 21
3.30484
  0
LINE
  8
0
 10
28.0732
 20
3.30484
 11
28.0963
 21
3.30069
  0
LINE
  8
0
 10
28.0963
 20
3.30069
 11
28.1178
 21
3.29643
  0
LINE
  8
0
 10
28.1178
 20
3.29643
 11
28.1376
 21
3.29207
  0
LINE
  8
0
 10
28.1376
 20
3.29207
 11
28.2438
 21
3.74367
  0
LINE
  8
0
 10
28.2438
 20
3.74367
 11
28.2104
 21
3.75192
  0
LINE
  8
0
 10
28.2104
 20
3.75192
 11
28.1689
 21
3.76073
  0
LINE
  8
0
 10
28.1689
 20
3.76073
 11
28.1193
 21
3.77008
  0
LINE
  8
0
 10
28.1193
 20
3.77008
 11
28.0617
 21
3.77997
  0
LINE
  8
0
 10
28.0617
 20
3.77997
 11
27.9989
 21
3.78888
  0
LINE
  8
0
 10
27.9989
 20
3.78888
 11
27.9341
 21
3.79526
  0
LINE
  8
0
 10
27.9341
 20
3.79526
 11
27.867
 21
3.79907
  0
LINE
  8
0
 10
27.867
 20
3.79907
 11
27.7979
 21
3.80034
  0
LINE
  8
0
 10
27.7979
 20
3.80034
 11
27.6459
 21
3.78983
  0
LINE
  8
0
 10
27.6459
 20
3.78983
 11
27.5085
 21
3.75829
  0
LINE
  8
0
 10
27.5085
 20
3.75829
 11
27.3859
 21
3.70569
  0
LINE
  8
0
 10
27.3859
 20
3.70569
 11
27.278
 21
3.63208
  0
LINE
  8
0
 10
27.278
 20
3.63208
 11
27.19
 21
3.53723
  0
LINE
  8
0
 10
27.19
 20
3.53723
 11
27.1271
 21
3.4209
  0
LINE
  8
0
 10
27.1271
 20
3.4209
 11
27.0894
 21
3.2831
  0
LINE
  8
0
 10
27.0894
 20
3.2831
 11
27.0768
 21
3.12381
  0
LINE
  8
0
 10
27.0768
 20
3.12381
 11
27.0768
 21
3.01755
  0
LINE
  8
0
 10
27.0768
 20
3.01755
 11
26.7201
 21
3.01755
  0
LINE
  8
0
 10
26.7201
 20
3.01755
 11
26.7201
 21
2.55885
  0
LINE
  8
0
 10
26.7201
 20
2.55885
 11
27.0768
 21
2.55885
  0
LINE
  8
0
 10
27.0768
 20
2.55885
 11
27.0768
 21
1.03754
  0
LINE
  8
0
 10
27.0768
 20
1.03754
 11
27.7353
 21
1.03754
  0
LINE
  8
0
 10
27.7353
 20
1.03754
 11
27.7353
 21
2.55885
  0
LINE
  8
0
 10
27.7353
 20
2.55885
 11
28.3981
 21
2.55885
  0
LINE
  8
0
 10
28.3981
 20
2.55885
 11
28.3981
 21
1.58832
  0
LINE
  8
0
 10
28.3981
 20
1.58832
 11
28.409
 21
1.45511
  0
LINE
  8
0
 10
28.409
 20
1.45511
 11
28.4418
 21
1.33882
  0
LINE
  8
0
 10
28.4418
 20
1.33882
 11
28.4963
 21
1.23947
  0
LINE
  8
0
 10
28.4963
 20
1.23947
 11
28.5727
 21
1.15706
  0
LINE
  8
0
 10
28.5727
 20
1.15706
 11
28.6702
 21
1.09236
  0
LINE
  8
0
 10
28.6702
 20
1.09236
 11
28.7881
 21
1.04616
  0
LINE
  8
0
 10
28.7881
 20
1.04616
 11
28.9264
 21
1.01843
  0
LINE
  8
0
 10
28.9264
 20
1.01843
 11
29.085
 21
1.0092
  0
LINE
  8
0
 10
29.085
 20
1.0092
 11
29.1322
 21
1.00986
  0
LINE
  8
0
 10
17.7053
 20
1.02443
 11
17.9399
 21
1.09134
  0
LINE
  8
0
 10
17.9399
 20
1.09134
 11
18.1431
 21
1.20285
  0
LINE
  8
0
 10
18.1431
 20
1.20285
 11
18.3149
 21
1.35898
  0
LINE
  8
0
 10
18.3149
 20
1.35898
 11
18.4515
 21
1.55507
  0
LINE
  8
0
 10
18.4515
 20
1.55507
 11
18.549
 21
1.78647
  0
LINE
  8
0
 10
18.549
 20
1.78647
 11
18.6075
 21
2.05318
  0
LINE
  8
0
 10
18.6075
 20
2.05318
 11
18.627
 21
2.35519
  0
LINE
  8
0
 10
18.627
 20
2.35519
 11
18.6182
 21
2.56091
  0
LINE
  8
0
 10
18.6182
 20
2.56091
 11
18.5917
 21
2.75124
  0
LINE
  8
0
 10
18.5917
 20
2.75124
 11
18.5475
 21
2.92618
  0
LINE
  8
0
 10
18.5475
 20
2.92618
 11
18.4857
 21
3.08572
  0
LINE
  8
0
 10
18.4857
 20
3.08572
 11
18.4072
 21
3.22868
  0
LINE
  8
0
 10
18.4072
 20
3.22868
 11
18.3132
 21
3.35382
  0
LINE
  8
0
 10
18.3132
 20
3.35382
 11
18.2037
 21
3.46114
  0
LINE
  8
0
 10
18.2037
 20
3.46114
 11
18.0786
 21
3.55063
  0
LINE
  8
0
 10
18.0786
 20
3.55063
 11
17.9391
 21
3.62115
  0
LINE
  8
0
 10
17.9391
 20
3.62115
 11
17.7859
 21
3.67152
  0
LINE
  8
0
 10
17.7859
 20
3.67152
 11
17.6193
 21
3.70174
  0
LINE
  8
0
 10
17.6193
 20
3.70174
 11
17.4392
 21
3.71181
  0
LINE
  8
0
 10
17.4392
 20
3.71181
 11
17.1747
 21
3.68945
  0
LINE
  8
0
 10
17.1747
 20
3.68945
 11
16.9409
 21
3.62238
  0
LINE
  8
0
 10
16.9409
 20
3.62238
 11
16.7378
 21
3.51056
  0
LINE
  8
0
 10
16.7378
 20
3.51056
 11
16.5654
 21
3.35403
  0
LINE
  8
0
 10
16.5654
 20
3.35403
 11
16.428
 21
3.15746
  0
LINE
  8
0
 10
16.428
 20
3.15746
 11
16.3299
 21
2.92545
  0
LINE
  8
0
 10
16.3299
 20
2.92545
 11
16.271
 21
2.65804
  0
LINE
  8
0
 10
16.271
 20
2.65804
 11
16.2514
 21
2.35519
  0
LINE
  8
0
 10
16.2514
 20
2.35519
 11
16.271
 21
2.05244
  0
LINE
  8
0
 10
16.271
 20
2.05244
 11
16.3299
 21
1.78535
  0
LINE
  8
0
 10
16.3299
 20
1.78535
 11
16.428
 21
1.55389
  0
LINE
  8
0
 10
16.428
 20
1.55389
 11
16.5654
 21
1.35809
  0
LINE
  8
0
 10
16.5654
 20
1.35809
 11
16.7378
 21
1.20235
  0
LINE
  8
0
 10
16.7378
 20
1.20235
 11
16.9409
 21
1.09111
  0
LINE
  8
0
 10
16.9409
 20
1.09111
 11
17.1747
 21
1.02437
  0
LINE
  8
0
 10
17.1747
 20
1.02437
 11
17.4392
 21
1.00212
  0
LINE
  8
0
 10
17.4392
 20
1.00212
 11
17.7053
 21
1.02443
  0
LINE
  8
0
 10
17.3258
 20
1.52756
 11
17.2264
 21
1.56841
  0
LINE
  8
0
 10
17.2264
 20
1.56841
 11
17.1412
 21
1.63647
  0
LINE
  8
0
 10
17.1412
 20
1.63647
 11
17.0701
 21
1.73177
  0
LINE
  8
0
 10
17.0701
 20
1.73177
 11
17.0141
 21
1.85243
  0
LINE
  8
0
 10
17.0141
 20
1.85243
 11
16.9741
 21
1.99655
  0
LINE
  8
0
 10
16.9741
 20
1.99655
 11
16.95
 21
2.16414
  0
LINE
  8
0
 10
16.95
 20
2.16414
 11
16.942
 21
2.35519
  0
LINE
  8
0
 10
16.942
 20
2.35519
 11
16.9501
 21
2.54718
  0
LINE
  8
0
 10
16.9501
 20
2.54718
 11
16.9743
 21
2.71582
  0
LINE
  8
0
 10
16.9743
 20
2.71582
 11
17.0146
 21
2.8611
  0
LINE
  8
0
 10
17.0146
 20
2.8611
 11
17.0711
 21
2.98302
  0
LINE
  8
0
 10
17.0711
 20
2.98302
 11
17.1425
 21
3.07948
  0
LINE
  8
0
 10
17.1425
 20
3.07948
 11
17.2276
 21
3.14839
  0
LINE
  8
0
 10
17.2276
 20
3.14839
 11
17.3265
 21
3.18973
  0
LINE
  8
0
 10
17.3265
 20
3.18973
 11
17.4392
 21
3.20351
  0
LINE
  8
0
 10
17.4392
 20
3.20351
 11
17.5527
 21
3.18973
  0
LINE
  8
0
 10
17.5527
 20
3.18973
 11
17.6522
 21
3.14839
  0
LINE
  8
0
 10
17.6522
 20
3.14839
 11
17.7377
 21
3.07948
  0
LINE
  8
0
 10
17.7377
 20
3.07948
 11
17.8092
 21
2.98302
  0
LINE
  8
0
 10
17.8092
 20
2.98302
 11
17.8656
 21
2.8611
  0
LINE
  8
0
 10
17.8656
 20
2.8611
 11
17.906
 21
2.71582
  0
LINE
  8
0
 10
17.906
 20
2.71582
 11
17.9302
 21
2.54718
  0
LINE
  8
0
 10
17.9302
 20
2.54718
 11
17.9382
 21
2.35519
  0
LINE
  8
0
 10
17.9382
 20
2.35519
 11
17.9302
 21
2.16414
  0
LINE
  8
0
 10
17.9302
 20
2.16414
 11
17.906
 21
1.99655
  0
LINE
  8
0
 10
17.906
 20
1.99655
 11
17.8656
 21
1.85243
  0
LINE
  8
0
 10
17.8656
 20
1.85243
 11
17.8092
 21
1.73177
  0
LINE
  8
0
 10
17.8092
 20
1.73177
 11
17.7377
 21
1.63647
  0
LINE
  8
0
 10
17.7377
 20
1.63647
 11
17.6522
 21
1.56841
  0
LINE
  8
0
 10
17.6522
 20
1.56841
 11
17.5527
 21
1.52756
  0
LINE
  8
0
 10
17.5527
 20
1.52756
 11
17.4392
 21
1.51395
  0
LINE
  8
0
 10
17.4392
 20
1.51395
 11
17.3258
 21
1.52756
  0
LINE
  8
0
 10
21.6117
 20
1.01588
 11
21.7148
 21
1.03598
  0
LINE
  8
0
 10
21.7148
 20
1.03598
 11
21.8058
 21
1.06947
  0
LINE
  8
0
 10
21.8058
 20
1.06947
 11
21.8844
 21
1.11635
  0
LINE
  8
0
 10
21.8844
 20
1.11635
 11
21.9519
 21
1.17163
  0
LINE
  8
0
 10
21.9519
 20
1.17163
 11
22.009
 21
1.23036
  0
LINE
  8
0
 10
22.009
 20
1.23036
 11
22.0557
 21
1.29251
  0
LINE
  8
0
 10
22.0557
 20
1.29251
 11
22.0922
 21
1.35809
  0
LINE
  8
0
 10
22.0922
 20
1.35809
 11
22.115
 21
1.35809
  0
LINE
  8
0
 10
22.115
 20
1.35809
 11
22.115
 21
1.03754
  0
LINE
  8
0
 10
22.115
 20
1.03754
 11
22.7677
 21
1.03754
  0
LINE
  8
0
 10
22.7677
 20
1.03754
 11
22.7677
 21
3.67638
  0
LINE
  8
0
 10
22.7677
 20
3.67638
 11
22.1074
 21
3.67638
  0
LINE
  8
0
 10
22.1074
 20
3.67638
 11
22.1074
 21
2.67751
  0
LINE
  8
0
 10
22.1074
 20
2.67751
 11
22.0922
 21
2.67751
  0
LINE
  8
0
 10
22.0922
 20
2.67751
 11
22.07
 21
2.7215
  0
LINE
  8
0
 10
22.07
 20
2.7215
 11
22.0431
 21
2.76495
  0
LINE
  8
0
 10
22.0431
 20
2.76495
 11
22.0116
 21
2.80783
  0
LINE
  8
0
 10
22.0116
 20
2.80783
 11
21.9755
 21
2.85017
  0
LINE
  8
0
 10
21.9755
 20
2.85017
 11
21.9344
 21
2.89037
  0
LINE
  8
0
 10
21.9344
 20
2.89037
 11
21.888
 21
2.92679
  0
LINE
  8
0
 10
21.888
 20
2.92679
 11
21.8362
 21
2.95944
  0
LINE
  8
0
 10
21.8362
 20
2.95944
 11
21.7791
 21
2.98833
  0
LINE
  8
0
 10
21.7791
 20
2.98833
 11
21.7163
 21
3.01196
  0
LINE
  8
0
 10
21.7163
 20
3.01196
 11
21.6472
 21
3.02885
  0
LINE
  8
0
 10
21.6472
 20
3.02885
 11
21.5721
 21
3.03897
  0
LINE
  8
0
 10
21.5721
 20
3.03897
 11
21.4907
 21
3.04236
  0
LINE
  8
0
 10
21.4907
 20
3.04236
 11
21.3815
 21
3.03549
  0
LINE
  8
0
 10
21.3815
 20
3.03549
 11
21.276
 21
3.01489
  0
LINE
  8
0
 10
21.276
 20
3.01489
 11
21.1742
 21
2.98058
  0
LINE
  8
0
 10
21.1742
 20
2.98058
 11
21.0761
 21
2.93254
  0
LINE
  8
0
 10
21.0761
 20
2.93254
 11
20.9844
 21
2.87044
  0
LINE
  8
0
 10
20.9844
 20
2.87044
 11
20.902
 21
2.79395
  0
LINE
  8
0
 10
20.902
 20
2.79395
 11
20.8288
 21
2.70306
  0
LINE
  8
0
 10
20.8288
 20
2.70306
 11
20.7649
 21
2.59779
  0
LINE
  8
0
 10
20.7649
 20
2.59779
 11
20.713
 21
2.47771
  0
LINE
  8
0
 10
20.713
 20
2.47771
 11
20.676
 21
2.34235
  0
LINE
  8
0
 10
20.676
 20
2.34235
 11
20.6537
 21
2.1917
  0
LINE
  8
0
 10
20.6537
 20
2.1917
 11
20.6463
 21
2.02577
  0
LINE
  8
0
 10
20.6463
 20
2.02577
 11
20.6534
 21
1.86444
  0
LINE
  8
0
 10
20.6534
 20
1.86444
 11
20.6748
 21
1.71695
  0
LINE
  8
0
 10
20.6748
 20
1.71695
 11
20.7104
 21
1.5833
  0
LINE
  8
0
 10
20.7104
 20
1.5833
 11
20.7602
 21
1.46347
  0
LINE
  8
0
 10
20.7602
 20
1.46347
 11
20.8221
 21
1.35753
  0
LINE
  8
0
 10
20.8221
 20
1.35753
 11
20.894
 21
1.26555
  0
LINE
  8
0
 10
20.894
 20
1.26555
 11
20.9758
 21
1.18752
  0
LINE
  8
0
 10
20.9758
 20
1.18752
 11
21.0676
 21
1.12343
  0
LINE
  8
0
 10
21.0676
 20
1.12343
 11
21.1669
 21
1.07346
  0
LINE
  8
0
 10
21.1669
 20
1.07346
 11
21.2715
 21
1.03775
  0
LINE
  8
0
 10
21.2715
 20
1.03775
 11
21.3814
 21
1.01633
  0
LINE
  8
0
 10
21.3814
 20
1.01633
 11
21.4964
 21
1.0092
  0
LINE
  8
0
 10
21.4964
 20
1.0092
 11
21.6117
 21
1.01588
  0
LINE
  8
0
 10
21.632
 20
1.50011
 11
21.5531
 21
1.52766
  0
LINE
  8
0
 10
21.5531
 20
1.52766
 11
21.4854
 21
1.57361
  0
LINE
  8
0
 10
21.4854
 20
1.57361
 11
21.429
 21
1.63792
  0
LINE
  8
0
 10
21.429
 20
1.63792
 11
21.3846
 21
1.71729
  0
LINE
  8
0
 10
21.3846
 20
1.71729
 11
21.3529
 21
1.80838
  0
LINE
  8
0
 10
21.3529
 20
1.80838
 11
21.3339
 21
1.91121
  0
LINE
  8
0
 10
21.3339
 20
1.91121
 11
21.3275
 21
2.02577
  0
LINE
  8
0
 10
21.3275
 20
2.02577
 11
21.3339
 21
2.14029
  0
LINE
  8
0
 10
21.3339
 20
2.14029
 11
21.3529
 21
2.24295
  0
LINE
  8
0
 10
21.3529
 20
2.24295
 11
21.3846
 21
2.33377
  0
LINE
  8
0
 10
21.3846
 20
2.33377
 11
21.429
 21
2.41275
  0
LINE
  8
0
 10
21.429
 20
2.41275
 11
21.4854
 21
2.47667
  0
LINE
  8
0
 10
21.4854
 20
2.47667
 11
21.5531
 21
2.52232
  0
LINE
  8
0
 10
21.5531
 20
2.52232
 11
21.632
 21
2.54973
  0
LINE
  8
0
 10
21.632
 20
2.54973
 11
21.7222
 21
2.55885
  0
LINE
  8
0
 10
21.7222
 20
2.55885
 11
21.8118
 21
2.5499
  0
LINE
  8
0
 10
21.8118
 20
2.5499
 11
21.8909
 21
2.52299
  0
LINE
  8
0
 10
21.8909
 20
2.52299
 11
21.9593
 21
2.47815
  0
LINE
  8
0
 10
21.9593
 20
2.47815
 11
22.0173
 21
2.41539
  0
LINE
  8
0
 10
22.0173
 20
2.41539
 11
22.0633
 21
2.33723
  0
LINE
  8
0
 10
22.0633
 20
2.33723
 11
22.0962
 21
2.24626
  0
LINE
  8
0
 10
22.0962
 20
2.24626
 11
22.116
 21
2.14244
  0
LINE
  8
0
 10
22.116
 20
2.14244
 11
22.1226
 21
2.02577
  0
LINE
  8
0
 10
22.1226
 20
2.02577
 11
22.1159
 21
1.91049
  0
LINE
  8
0
 10
22.1159
 20
1.91049
 11
22.096
 21
1.80727
  0
LINE
  8
0
 10
22.096
 20
1.80727
 11
22.0628
 21
1.71611
  0
LINE
  8
0
 10
22.0628
 20
1.71611
 11
22.0163
 21
1.63702
  0
LINE
  8
0
 10
22.0163
 20
1.63702
 11
21.9581
 21
1.5731
  0
LINE
  8
0
 10
21.9581
 20
1.5731
 11
21.8897
 21
1.52744
  0
LINE
  8
0
 10
21.8897
 20
1.52744
 11
21.811
 21
1.50005
  0
LINE
  8
0
 10
21.811
 20
1.50005
 11
21.7222
 21
1.49091
  0
LINE
  8
0
 10
21.7222
 20
1.49091
 11
21.632
 21
1.50011
  0
LINE
  8
0
 10
14.6947
 20
3.67638
 11
14.0021
 21
3.67638
  0
LINE
  8
0
 10
14.0021
 20
3.67638
 11
13.3721
 21
3.27258
  0
LINE
  8
0
 10
13.3721
 20
3.27258
 11
13.3721
 21
2.72357
  0
LINE
  8
0
 10
13.3721
 20
2.72357
 11
14.0078
 21
3.13266
  0
LINE
  8
0
 10
14.0078
 20
3.13266
 11
14.0268
 21
3.13266
  0
LINE
  8
0
 10
14.0268
 20
3.13266
 11
14.0268
 21
1.03754
  0
LINE
  8
0
 10
14.0268
 20
1.03754
 11
14.6947
 21
1.03754
  0
LINE
  8
0
 10
14.6947
 20
1.03754
 11
14.6947
 21
3.67638
  0
LINE
  8
0
 10
12.0301
 20
3.67638
 11
11.3375
 21
3.67638
  0
LINE
  8
0
 10
11.3375
 20
3.67638
 11
10.7075
 21
3.27258
  0
LINE
  8
0
 10
10.7075
 20
3.27258
 11
10.7075
 21
2.72357
  0
LINE
  8
0
 10
10.7075
 20
2.72357
 11
11.3432
 21
3.13266
  0
LINE
  8
0
 10
11.3432
 20
3.13266
 11
11.3621
 21
3.13266
  0
LINE
  8
0
 10
11.3621
 20
3.13266
 11
11.3621
 21
1.03754
  0
LINE
  8
0
 10
11.3621
 20
1.03754
 11
12.0301
 21
1.03754
  0
LINE
  8
0
 10
12.0301
 20
1.03754
 11
12.0301
 21
3.67638
  0
LINE
  8
0
 10
32.0132
 20
3.67638
 11
31.3206
 21
3.67638
  0
LINE
  8
0
 10
31.3206
 20
3.67638
 11
30.6906
 21
3.27258
  0
LINE
  8
0
 10
30.6906
 20
3.27258
 11
30.6906
 21
2.72357
  0
LINE
  8
0
 10
30.6906
 20
2.72357
 11
31.3263
 21
3.13266
  0
LINE
  8
0
 10
31.3263
 20
3.13266
 11
31.3453
 21
3.13266
  0
LINE
  8
0
 10
31.3453
 20
3.13266
 11
31.3453
 21
1.03754
  0
LINE
  8
0
 10
31.3453
 20
1.03754
 11
32.0132
 21
1.03754
  0
LINE
  8
0
 10
32.0132
 20
1.03754
 11
32.0132
 21
3.67638
  0
LINE
  8
0
 10
25.4642
 20
1.02171
 11
25.6342
 21
1.08047
  0
LINE
  8
0
 10
25.6342
 20
1.08047
 11
25.7716
 21
1.17844
  0
LINE
  8
0
 10
25.7716
 20
1.17844
 11
25.8762
 21
1.31558
  0
LINE
  8
0
 10
25.8762
 20
1.31558
 11
25.8933
 21
1.31558
  0
LINE
  8
0
 10
25.8933
 20
1.31558
 11
25.8933
 21
1.03754
  0
LINE
  8
0
 10
25.8933
 20
1.03754
 11
26.5157
 21
1.03754
  0
LINE
  8
0
 10
26.5157
 20
1.03754
 11
26.5157
 21
2.38174
  0
LINE
  8
0
 10
26.5157
 20
2.38174
 11
26.5078
 21
2.48396
  0
LINE
  8
0
 10
26.5078
 20
2.48396
 11
26.4841
 21
2.57811
  0
LINE
  8
0
 10
26.4841
 20
2.57811
 11
26.4447
 21
2.66417
  0
LINE
  8
0
 10
26.4447
 20
2.66417
 11
26.3895
 21
2.74214
  0
LINE
  8
0
 10
26.3895
 20
2.74214
 11
26.3209
 21
2.8116
  0
LINE
  8
0
 10
26.3209
 20
2.8116
 11
26.2415
 21
2.87209
  0
LINE
  8
0
 10
26.2415
 20
2.87209
 11
26.1511
 21
2.92361
  0
LINE
  8
0
 10
26.1511
 20
2.92361
 11
26.0498
 21
2.96617
  0
LINE
  8
0
 10
26.0498
 20
2.96617
 11
25.9399
 21
2.9995
  0
LINE
  8
0
 10
25.9399
 20
2.9995
 11
25.8238
 21
3.02332
  0
LINE
  8
0
 10
25.8238
 20
3.02332
 11
25.7013
 21
3.0376
  0
LINE
  8
0
 10
25.7013
 20
3.0376
 11
25.5726
 21
3.04236
  0
LINE
  8
0
 10
25.5726
 20
3.04236
 11
25.383
 21
3.03244
  0
LINE
  8
0
 10
25.383
 20
3.03244
 11
25.2128
 21
3.00273
  0
LINE
  8
0
 10
25.2128
 20
3.00273
 11
25.0619
 21
2.95319
  0
LINE
  8
0
 10
25.0619
 20
2.95319
 11
24.9303
 21
2.88383
  0
LINE
  8
0
 10
24.9303
 20
2.88383
 11
24.8197
 21
2.79866
  0
LINE
  8
0
 10
24.8197
 20
2.79866
 11
24.7318
 21
2.70164
  0
LINE
  8
0
 10
24.7318
 20
2.70164
 11
24.6665
 21
2.59279
  0
LINE
  8
0
 10
24.6665
 20
2.59279
 11
24.6238
 21
2.47208
  0
LINE
  8
0
 10
24.6238
 20
2.47208
 11
25.2234
 21
2.39946
  0
LINE
  8
0
 10
25.2234
 20
2.39946
 11
25.2406
 21
2.44395
  0
LINE
  8
0
 10
25.2406
 20
2.44395
 11
25.2657
 21
2.48357
  0
LINE
  8
0
 10
25.2657
 20
2.48357
 11
25.2985
 21
2.51833
  0
LINE
  8
0
 10
25.2985
 20
2.51833
 11
25.3392
 21
2.5482
  0
LINE
  8
0
 10
25.3392
 20
2.5482
 11
25.3869
 21
2.57224
  0
LINE
  8
0
 10
25.3869
 20
2.57224
 11
25.4407
 21
2.5894
  0
LINE
  8
0
 10
25.4407
 20
2.5894
 11
25.5007
 21
2.59969
  0
LINE
  8
0
 10
25.5007
 20
2.59969
 11
25.5669
 21
2.60313
  0
LINE
  8
0
 10
25.5669
 20
2.60313
 11
25.6306
 21
2.59964
  0
LINE
  8
0
 10
25.6306
 20
2.59964
 11
25.6871
 21
2.58919
  0
LINE
  8
0
 10
25.6871
 20
2.58919
 11
25.7364
 21
2.57175
  0
LINE
  8
0
 10
25.7364
 20
2.57175
 11
25.7784
 21
2.54735
  0
LINE
  8
0
 10
25.7784
 20
2.54735
 11
25.8121
 21
2.51651
  0
LINE
  8
0
 10
25.8121
 20
2.51651
 11
25.8361
 21
2.47983
  0
LINE
  8
0
 10
25.8361
 20
2.47983
 11
25.8505
 21
2.43726
  0
LINE
  8
0
 10
25.8505
 20
2.43726
 11
25.8553
 21
2.38882
  0
LINE
  8
0
 10
25.8553
 20
2.38882
 11
25.8553
 21
2.38174
  0
LINE
  8
0
 10
25.8553
 20
2.38174
 11
25.848
 21
2.33952
  0
LINE
  8
0
 10
25.848
 20
2.33952
 11
25.8261
 21
2.30493
  0
LINE
  8
0
 10
25.8261
 20
2.30493
 11
25.7897
 21
2.27798
  0
LINE
  8
0
 10
25.7897
 20
2.27798
 11
25.7386
 21
2.25867
  0
LINE
  8
0
 10
25.7386
 20
2.25867
 11
25.6707
 21
2.24377
  0
LINE
  8
0
 10
25.6707
 20
2.24377
 11
25.5837
 21
2.2301
  0
LINE
  8
0
 10
25.5837
 20
2.2301
 11
25.4777
 21
2.21765
  0
LINE
  8
0
 10
25.4777
 20
2.21765
 11
25.3525
 21
2.20641
  0
LINE
  8
0
 10
25.3525
 20
2.20641
 11
25.2475
 21
2.19479
  0
LINE
  8
0
 10
25.2475
 20
2.19479
 11
25.1469
 21
2.17763
  0
LINE
  8
0
 10
25.1469
 20
2.17763
 11
25.0506
 21
2.15494
  0
LINE
  8
0
 10
25.0506
 20
2.15494
 11
24.9587
 21
2.12671
  0
LINE
  8
0
 10
24.9587
 20
2.12671
 11
24.8735
 21
2.09152
  0
LINE
  8
0
 10
24.8735
 20
2.09152
 11
24.7972
 21
2.04791
  0
LINE
  8
0
 10
24.7972
 20
2.04791
 11
24.7298
 21
1.99588
  0
LINE
  8
0
 10
24.7298
 20
1.99588
 11
24.6712
 21
1.93544
  0
LINE
  8
0
 10
24.6712
 20
1.93544
 11
24.6239
 21
1.86516
  0
LINE
  8
0
 10
24.6239
 20
1.86516
 11
24.5901
 21
1.78358
  0
LINE
  8
0
 10
24.5901
 20
1.78358
 11
24.5699
 21
1.6907
  0
LINE
  8
0
 10
24.5699
 20
1.6907
 11
24.5631
 21
1.58655
  0
LINE
  8
0
 10
24.5631
 20
1.58655
 11
24.5754
 21
1.44885
  0
LINE
  8
0
 10
24.5754
 20
1.44885
 11
24.6122
 21
1.32976
  0
LINE
  8
0
 10
24.6122
 20
1.32976
 11
24.6736
 21
1.22926
  0
LINE
  8
0
 10
24.6736
 20
1.22926
 11
24.7595
 21
1.14734
  0
LINE
  8
0
 10
24.7595
 20
1.14734
 11
24.8645
 21
1.08382
  0
LINE
  8
0
 10
24.8645
 20
1.08382
 11
24.9832
 21
1.03842
  0
LINE
  8
0
 10
24.9832
 20
1.03842
 11
25.1155
 21
1.0112
  0
LINE
  8
0
 10
25.1155
 20
1.0112
 11
25.2614
 21
1.00212
  0
LINE
  8
0
 10
25.2614
 20
1.00212
 11
25.4642
 21
1.02171
  0
LINE
  8
0
 10
25.4054
 20
1.41447
 11
25.3537
 21
1.42427
  0
LINE
  8
0
 10
25.3537
 20
1.42427
 11
25.3072
 21
1.4406
  0
LINE
  8
0
 10
25.3072
 20
1.4406
 11
25.2661
 21
1.46347
  0
LINE
  8
0
 10
25.2661
 20
1.46347
 11
25.2325
 21
1.49252
  0
LINE
  8
0
 10
25.2325
 20
1.49252
 11
25.2085
 21
1.52745
  0
LINE
  8
0
 10
25.2085
 20
1.52745
 11
25.1941
 21
1.56824
  0
LINE
  8
0
 10
25.1941
 20
1.56824
 11
25.1893
 21
1.61488
  0
LINE
  8
0
 10
25.1893
 20
1.61488
 11
25.2084
 21
1.702
  0
LINE
  8
0
 10
25.2084
 20
1.702
 11
25.2657
 21
1.77029
  0
LINE
  8
0
 10
25.2657
 20
1.77029
 11
25.3611
 21
1.81978
  0
LINE
  8
0
 10
25.3611
 20
1.81978
 11
25.4948
 21
1.85043
  0
LINE
  8
0
 10
25.4948
 20
1.85043
 11
25.5422
 21
1.85785
  0
LINE
  8
0
 10
25.5422
 20
1.85785
 11
25.5916
 21
1.86592
  0
LINE
  8
0
 10
25.5916
 20
1.86592
 11
25.6428
 21
1.87466
  0
LINE
  8
0
 10
25.6428
 20
1.87466
 11
25.6959
 21
1.88408
  0
LINE
  8
0
 10
25.6959
 20
1.88408
 11
25.7468
 21
1.89438
  0
LINE
  8
0
 10
25.7468
 20
1.89438
 11
25.7913
 21
1.90578
  0
LINE
  8
0
 10
25.7913
 20
1.90578
 11
25.8293
 21
1.91829
  0
LINE
  8
0
 10
25.8293
 20
1.91829
 11
25.861
 21
1.93192
  0
LINE
  8
0
 10
25.861
 20
1.93192
 11
25.861
 21
1.7424
  0
LINE
  8
0
 10
25.861
 20
1.7424
 11
25.8538
 21
1.67233
  0
LINE
  8
0
 10
25.8538
 20
1.67233
 11
25.8321
 21
1.60912
  0
LINE
  8
0
 10
25.8321
 20
1.60912
 11
25.7959
 21
1.55278
  0
LINE
  8
0
 10
25.7959
 20
1.55278
 11
25.7453
 21
1.5033
  0
LINE
  8
0
 10
25.7453
 20
1.5033
 11
25.6842
 21
1.46301
  0
LINE
  8
0
 10
25.6842
 20
1.46301
 11
25.6167
 21
1.43423
  0
LINE
  8
0
 10
25.6167
 20
1.43423
 11
25.5428
 21
1.41696
  0
LINE
  8
0
 10
25.5428
 20
1.41696
 11
25.4625
 21
1.41121
  0
LINE
  8
0
 10
25.4625
 20
1.41121
 11
25.4054
 21
1.41447
  0
LINE
  8
0
 10
23.8102
 20
2.11786
 11
23.8177
 21
2.20221
  0
LINE
  8
0
 10
23.8177
 20
2.20221
 11
23.8403
 21
2.27814
  0
LINE
  8
0
 10
23.8403
 20
2.27814
 11
23.878
 21
2.34566
  0
LINE
  8
0
 10
23.878
 20
2.34566
 11
23.9307
 21
2.40475
  0
LINE
  8
0
 10
23.9307
 20
2.40475
 11
23.9949
 21
2.4528
  0
LINE
  8
0
 10
23.9949
 20
2.4528
 11
24.0671
 21
2.48712
  0
LINE
  8
0
 10
24.0671
 20
2.48712
 11
24.1472
 21
2.50771
  0
LINE
  8
0
 10
24.1472
 20
2.50771
 11
24.2353
 21
2.51457
  0
LINE
  8
0
 10
24.2353
 20
2.51457
 11
24.2666
 21
2.51407
  0
LINE
  8
0
 10
24.2666
 20
2.51407
 11
24.3
 21
2.51257
  0
LINE
  8
0
 10
24.3
 20
2.51257
 11
24.3354
 21
2.51009
  0
LINE
  8
0
 10
24.3354
 20
2.51009
 11
24.3728
 21
2.50661
  0
LINE
  8
0
 10
24.3728
 20
2.50661
 11
24.4094
 21
2.50212
  0
LINE
  8
0
 10
24.4094
 20
2.50212
 11
24.4423
 21
2.49664
  0
LINE
  8
0
 10
24.4423
 20
2.49664
 11
24.4716
 21
2.49017
  0
LINE
  8
0
 10
24.4716
 20
2.49017
 11
24.4971
 21
2.48271
  0
LINE
  8
0
 10
24.4971
 20
2.48271
 11
24.4971
 21
3.0211
  0
LINE
  8
0
 10
24.4971
 20
3.0211
 11
24.4512
 21
3.0304
  0
LINE
  8
0
 10
24.4512
 20
3.0304
 11
24.4046
 21
3.03703
  0
LINE
  8
0
 10
24.4046
 20
3.03703
 11
24.3573
 21
3.04103
  0
LINE
  8
0
 10
24.3573
 20
3.04103
 11
24.3093
 21
3.04236
  0
LINE
  8
0
 10
24.3093
 20
3.04236
 11
24.2246
 21
3.03638
  0
LINE
  8
0
 10
24.2246
 20
3.03638
 11
24.1454
 21
3.01845
  0
LINE
  8
0
 10
24.1454
 20
3.01845
 11
24.0714
 21
2.98856
  0
LINE
  8
0
 10
24.0714
 20
2.98856
 11
24.0028
 21
2.94672
  0
LINE
  8
0
 10
24.0028
 20
2.94672
 11
23.9415
 21
2.8927
  0
LINE
  8
0
 10
23.9415
 20
2.8927
 11
23.8897
 21
2.82629
  0
LINE
  8
0
 10
23.8897
 20
2.82629
 11
23.8472
 21
2.74748
  0
LINE
  8
0
 10
23.8472
 20
2.74748
 11
23.814
 21
2.65627
  0
LINE
  8
0
 10
23.814
 20
2.65627
 11
23.7912
 21
2.65627
  0
LINE
  8
0
 10
23.7912
 20
2.65627
 11
23.7912
 21
3.01755
  0
LINE
  8
0
 10
23.7912
 20
3.01755
 11
23.148
 21
3.01755
  0
LINE
  8
0
 10
23.148
 20
3.01755
 11
23.148
 21
1.03754
  0
LINE
  8
0
 10
23.148
 20
1.03754
 11
23.8102
 21
1.03754
  0
LINE
  8
0
 10
23.8102
 20
1.03754
 11
23.8102
 21
2.11786
  0
LINE
  8
0
 10
10.5491
 20
3.01755
 11
9.85841
 21
3.01755
  0
LINE
  8
0
 10
9.85841
 20
3.01755
 11
9.54723
 21
2.04878
  0
LINE
  8
0
 10
9.54723
 20
2.04878
 11
9.52599
 21
1.98143
  0
LINE
  8
0
 10
9.52599
 20
1.98143
 11
9.50595
 21
1.91396
  0
LINE
  8
0
 10
9.50595
 20
1.91396
 11
9.48709
 21
1.84639
  0
LINE
  8
0
 10
9.48709
 20
1.84639
 11
9.46941
 21
1.7787
  0
LINE
  8
0
 10
9.46941
 20
1.7787
 11
9.45258
 21
1.71046
  0
LINE
  8
0
 10
9.45258
 20
1.71046
 11
9.43622
 21
1.64122
  0
LINE
  8
0
 10
9.43622
 20
1.64122
 11
9.42033
 21
1.571
  0
LINE
  8
0
 10
9.42033
 20
1.571
 11
9.40492
 21
1.49977
  0
LINE
  8
0
 10
9.40492
 20
1.49977
 11
9.38777
 21
1.57104
  0
LINE
  8
0
 10
9.38777
 20
1.57104
 11
9.37051
 21
1.64145
  0
LINE
  8
0
 10
9.37051
 20
1.64145
 11
9.35313
 21
1.71095
  0
LINE
  8
0
 10
9.35313
 20
1.71095
 11
9.33563
 21
1.77959
  0
LINE
  8
0
 10
9.33563
 20
1.77959
 11
9.31757
 21
1.84755
  0
LINE
  8
0
 10
9.31757
 20
1.84755
 11
9.29842
 21
1.91507
  0
LINE
  8
0
 10
9.29842
 20
1.91507
 11
9.2782
 21
1.98215
  0
LINE
  8
0
 10
9.2782
 20
1.98215
 11
9.2569
 21
2.04878
  0
LINE
  8
0
 10
9.2569
 20
2.04878
 11
8.94003
 21
3.01755
  0
LINE
  8
0
 10
8.94003
 20
3.01755
 11
8.24173
 21
3.01755
  0
LINE
  8
0
 10
8.24173
 20
3.01755
 11
9.01024
 21
1.03754
  0
LINE
  8
0
 10
9.01024
 20
1.03754
 11
9.77682
 21
1.03754
  0
LINE
  8
0
 10
9.77682
 20
1.03754
 11
10.5491
 21
3.01755
  0
LINE
  8
0
 10
5.6331
 20
0.800262
 11
5.69215
 21
0.801132
  0
LINE
  8
0
 10
5.69215
 20
0.801132
 11
5.75031
 21
0.802719
  0
LINE
  8
0
 10
5.75031
 20
0.802719
 11
5.80759
 21
0.805099
  0
LINE
  8
0
 10
5.80759
 20
0.805099
 11
5.86407
 21
0.808395
  0
LINE
  8
0
 10
5.86407
 20
0.808395
 11
5.91978
 21
0.812698
  0
LINE
  8
0
 10
5.91978
 20
0.812698
 11
5.97481
 21
0.818115
  0
LINE
  8
0
 10
5.97481
 20
0.818115
 11
6.02917
 21
0.824738
  0
LINE
  8
0
 10
6.02917
 20
0.824738
 11
6.08293
 21
0.832657
  0
LINE
  8
0
 10
6.08293
 20
0.832657
 11
6.13612
 21
0.84201
  0
LINE
  8
0
 10
6.13612
 20
0.84201
 11
6.18883
 21
0.852859
  0
LINE
  8
0
 10
6.18883
 20
0.852859
 11
6.24107
 21
0.865341
  0
LINE
  8
0
 10
6.24107
 20
0.865341
 11
6.29291
 21
0.879517
  0
LINE
  8
0
 10
6.29291
 20
0.879517
 11
6.34439
 21
0.895523
  0
LINE
  8
0
 10
6.34439
 20
0.895523
 11
6.39558
 21
0.913437
  0
LINE
  8
0
 10
6.39558
 20
0.913437
 11
6.44652
 21
0.933365
  0
LINE
  8
0
 10
6.44652
 20
0.933365
 11
6.49724
 21
0.955414
  0
LINE
  8
0
 10
6.49724
 20
0.955414
 11
6.54782
 21
0.979691
  0
LINE
  8
0
 10
6.54782
 20
0.979691
 11
6.5983
 21
1.00627
  0
LINE
  8
0
 10
6.5983
 20
1.00627
 11
6.64873
 21
1.03529
  0
LINE
  8
0
 10
6.64873
 20
1.03529
 11
3.89243
 21
2.61511
  0
LINE
  8
0
 10
3.89243
 20
2.61511
 11
1.40503
 21
1.06889
  0
LINE
  8
0
 10
1.40503
 20
1.06889
 11
1.43604
 21
1.0442
  0
LINE
  8
0
 10
1.43604
 20
1.0442
 11
1.46854
 21
1.02052
  0
LINE
  8
0
 10
1.46854
 20
1.02052
 11
1.50249
 21
0.997925
  0
LINE
  8
0
 10
1.50249
 20
0.997925
 11
1.53787
 21
0.976395
  0
LINE
  8
0
 10
1.53787
 20
0.976395
 11
1.57468
 21
0.955978
  0
LINE
  8
0
 10
1.57468
 20
0.955978
 11
1.61287
 21
0.936691
  0
LINE
  8
0
 10
1.61287
 20
0.936691
 11
1.65242
 21
0.918579
  0
LINE
  8
0
 10
1.65242
 20
0.918579
 11
1.6933
 21
0.901642
  0
LINE
  8
0
 10
1.6933
 20
0.901642
 11
1.7355
 21
0.88591
  0
LINE
  8
0
 10
1.7355
 20
0.88591
 11
1.77898
 21
0.871414
  0
LINE
  8
0
 10
1.77898
 20
0.871414
 11
1.82373
 21
0.858185
  0
LINE
  8
0
 10
1.82373
 20
0.858185
 11
1.86971
 21
0.846237
  0
LINE
  8
0
 10
1.86971
 20
0.846237
 11
1.9169
 21
0.835617
  0
LINE
  8
0
 10
1.9169
 20
0.835617
 11
1.96527
 21
0.826309
  0
LINE
  8
0
 10
1.96527
 20
0.826309
 11
2.0148
 21
0.818375
  0
LINE
  8
0
 10
2.0148
 20
0.818375
 11
2.06548
 21
0.811829
  0
LINE
  8
0
 10
2.06548
 20
0.811829
 11
2.11725
 21
0.806686
  0
LINE
  8
0
 10
2.11725
 20
0.806686
 11
2.1701
 21
0.802979
  0
LINE
  8
0
 10
2.1701
 20
0.802979
 11
2.22403
 21
0.800751
  0
LINE
  8
0
 10
2.22403
 20
0.800751
 11
2.27898
 21
0.799988
  0
LINE
  8
0
 10
2.27898
 20
0.799988
 11
5.5731
 21
0.799988
  0
LINE
  8
0
 10
5.5731
 20
0.799988
 11
5.6331
 21
0.800262
  0
LINE
  8
0
 10
20.2889
 20
2.34456
 11
18.9853
 21
2.34456
  0
LINE
  8
0
 10
18.9853
 20
2.34456
 11
18.9853
 21
1.86815
  0
LINE
  8
0
 10
18.9853
 20
1.86815
 11
20.2889
 21
1.86815
  0
LINE
  8
0
 10
20.2889
 20
1.86815
 11
20.2889
 21
2.34456
  0
LINE
  8
0
 10
15.6325
 20
1.00627
 11
15.6993
 21
1.02403
  0
LINE
  8
0
 10
15.6993
 20
1.02403
 11
15.7601
 21
1.05363
  0
LINE
  8
0
 10
15.7601
 20
1.05363
 11
15.8148
 21
1.09509
  0
LINE
  8
0
 10
15.8148
 20
1.09509
 11
15.86
 21
1.14528
  0
LINE
  8
0
 10
15.86
 20
1.14528
 11
15.8924
 21
1.20113
  0
LINE
  8
0
 10
15.8924
 20
1.20113
 11
15.9117
 21
1.26262
  0
LINE
  8
0
 10
15.9117
 20
1.26262
 11
15.9182
 21
1.32976
  0
LINE
  8
0
 10
15.9182
 20
1.32976
 11
15.9117
 21
1.39766
  0
LINE
  8
0
 10
15.9117
 20
1.39766
 11
15.8924
 21
1.4597
  0
LINE
  8
0
 10
15.8924
 20
1.4597
 11
15.86
 21
1.51587
  0
LINE
  8
0
 10
15.86
 20
1.51587
 11
15.8148
 21
1.56618
  0
LINE
  8
0
 10
15.8148
 20
1.56618
 11
15.7601
 21
1.60764
  0
LINE
  8
0
 10
15.7601
 20
1.60764
 11
15.6993
 21
1.63725
  0
LINE
  8
0
 10
15.6993
 20
1.63725
 11
15.6325
 21
1.65503
  0
LINE
  8
0
 10
15.6325
 20
1.65503
 11
15.5596
 21
1.66095
  0
LINE
  8
0
 10
15.5596
 20
1.66095
 11
15.4867
 21
1.65503
  0
LINE
  8
0
 10
15.4867
 20
1.65503
 11
15.4199
 21
1.63725
  0
LINE
  8
0
 10
15.4199
 20
1.63725
 11
15.3591
 21
1.60764
  0
LINE
  8
0
 10
15.3591
 20
1.60764
 11
15.3044
 21
1.56618
  0
LINE
  8
0
 10
15.3044
 20
1.56618
 11
15.2591
 21
1.51587
  0
LINE
  8
0
 10
15.2591
 20
1.51587
 11
15.2268
 21
1.4597
  0
LINE
  8
0
 10
15.2268
 20
1.4597
 11
15.2074
 21
1.39766
  0
LINE
  8
0
 10
15.2074
 20
1.39766
 11
15.201
 21
1.32976
  0
LINE
  8
0
 10
15.201
 20
1.32976
 11
15.2074
 21
1.26262
  0
LINE
  8
0
 10
15.2074
 20
1.26262
 11
15.2268
 21
1.20113
  0
LINE
  8
0
 10
15.2268
 20
1.20113
 11
15.2591
 21
1.14528
  0
LINE
  8
0
 10
15.2591
 20
1.14528
 11
15.3044
 21
1.09509
  0
LINE
  8
0
 10
15.3044
 20
1.09509
 11
15.3591
 21
1.05363
  0
LINE
  8
0
 10
15.3591
 20
1.05363
 11
15.4199
 21
1.02403
  0
LINE
  8
0
 10
15.4199
 20
1.02403
 11
15.4867
 21
1.00627
  0
LINE
  8
0
 10
15.4867
 20
1.00627
 11
15.5596
 21
1.00034
  0
LINE
  8
0
 10
15.5596
 20
1.00034
 11
15.6325
 21
1.00627
  0
LINE
  8
0
 10
30.2863
 20
1.00627
 11
30.3531
 21
1.02403
  0
LINE
  8
0
 10
30.3531
 20
1.02403
 11
30.4139
 21
1.05363
  0
LINE
  8
0
 10
30.4139
 20
1.05363
 11
30.4686
 21
1.09509
  0
LINE
  8
0
 10
30.4686
 20
1.09509
 11
30.5139
 21
1.14528
  0
LINE
  8
0
 10
30.5139
 20
1.14528
 11
30.5462
 21
1.20113
  0
LINE
  8
0
 10
30.5462
 20
1.20113
 11
30.5656
 21
1.26262
  0
LINE
  8
0
 10
30.5656
 20
1.26262
 11
30.5721
 21
1.32976
  0
LINE
  8
0
 10
30.5721
 20
1.32976
 11
30.5656
 21
1.39766
  0
LINE
  8
0
 10
30.5656
 20
1.39766
 11
30.5462
 21
1.4597
  0
LINE
  8
0
 10
30.5462
 20
1.4597
 11
30.5139
 21
1.51587
  0
LINE
  8
0
 10
30.5139
 20
1.51587
 11
30.4686
 21
1.56618
  0
LINE
  8
0
 10
30.4686
 20
1.56618
 11
30.4139
 21
1.60764
  0
LINE
  8
0
 10
30.4139
 20
1.60764
 11
30.3531
 21
1.63725
  0
LINE
  8
0
 10
30.3531
 20
1.63725
 11
30.2863
 21
1.65503
  0
LINE
  8
0
 10
30.2863
 20
1.65503
 11
30.2134
 21
1.66095
  0
LINE
  8
0
 10
30.2134
 20
1.66095
 11
30.1406
 21
1.65503
  0
LINE
  8
0
 10
30.1406
 20
1.65503
 11
30.0737
 21
1.63725
  0
LINE
  8
0
 10
30.0737
 20
1.63725
 11
30.013
 21
1.60764
  0
LINE
  8
0
 10
30.013
 20
1.60764
 11
29.9582
 21
1.56618
  0
LINE
  8
0
 10
29.9582
 20
1.56618
 11
29.913
 21
1.51587
  0
LINE
  8
0
 10
29.913
 20
1.51587
 11
29.8807
 21
1.4597
  0
LINE
  8
0
 10
29.8807
 20
1.4597
 11
29.8613
 21
1.39766
  0
LINE
  8
0
 10
29.8613
 20
1.39766
 11
29.8548
 21
1.32976
  0
LINE
  8
0
 10
29.8548
 20
1.32976
 11
29.8613
 21
1.26262
  0
LINE
  8
0
 10
29.8613
 20
1.26262
 11
29.8807
 21
1.20113
  0
LINE
  8
0
 10
29.8807
 20
1.20113
 11
29.913
 21
1.14528
  0
LINE
  8
0
 10
29.913
 20
1.14528
 11
29.9582
 21
1.09509
  0
LINE
  8
0
 10
29.9582
 20
1.09509
 11
30.013
 21
1.05363
  0
LINE
  8
0
 10
30.013
 20
1.05363
 11
30.0737
 21
1.02403
  0
LINE
  8
0
 10
30.0737
 20
1.02403
 11
30.1406
 21
1.00627
  0
LINE
  8
0
 10
30.1406
 20
1.00627
 11
30.2134
 21
1.00034
  0
LINE
  8
0
 10
30.2134
 20
1.00034
 11
30.2863
 21
1.00627
  0
LINE
  8
0
 10
12.9678
 20
1.00627
 11
13.0346
 21
1.02403
  0
LINE
  8
0
 10
13.0346
 20
1.02403
 11
13.0954
 21
1.05363
  0
LINE
  8
0
 10
13.0954
 20
1.05363
 11
13.1501
 21
1.09509
  0
LINE
  8
0
 10
13.1501
 20
1.09509
 11
13.1954
 21
1.14528
  0
LINE
  8
0
 10
13.1954
 20
1.14528
 11
13.2277
 21
1.20113
  0
LINE
  8
0
 10
13.2277
 20
1.20113
 11
13.2471
 21
1.26262
  0
LINE
  8
0
 10
13.2471
 20
1.26262
 11
13.2536
 21
1.32976
  0
LINE
  8
0
 10
13.2536
 20
1.32976
 11
13.2471
 21
1.39766
  0
LINE
  8
0
 10
13.2471
 20
1.39766
 11
13.2277
 21
1.4597
  0
LINE
  8
0
 10
13.2277
 20
1.4597
 11
13.1954
 21
1.51587
  0
LINE
  8
0
 10
13.1954
 20
1.51587
 11
13.1501
 21
1.56618
  0
LINE
  8
0
 10
13.1501
 20
1.56618
 11
13.0954
 21
1.60764
  0
LINE
  8
0
 10
13.0954
 20
1.60764
 11
13.0346
 21
1.63725
  0
LINE
  8
0
 10
13.0346
 20
1.63725
 11
12.9678
 21
1.65503
  0
LINE
  8
0
 10
12.9678
 20
1.65503
 11
12.8949
 21
1.66095
  0
LINE
  8
0
 10
12.8949
 20
1.66095
 11
12.8221
 21
1.65503
  0
LINE
  8
0
 10
12.8221
 20
1.65503
 11
12.7552
 21
1.63725
  0
LINE
  8
0
 10
12.7552
 20
1.63725
 11
12.6945
 21
1.60764
  0
LINE
  8
0
 10
12.6945
 20
1.60764
 11
12.6397
 21
1.56618
  0
LINE
  8
0
 10
12.6397
 20
1.56618
 11
12.5945
 21
1.51587
  0
LINE
  8
0
 10
12.5945
 20
1.51587
 11
12.5622
 21
1.4597
  0
LINE
  8
0
 10
12.5622
 20
1.4597
 11
12.5428
 21
1.39766
  0
LINE
  8
0
 10
12.5428
 20
1.39766
 11
12.5363
 21
1.32976
  0
LINE
  8
0
 10
12.5363
 20
1.32976
 11
12.5428
 21
1.26262
  0
LINE
  8
0
 10
12.5428
 20
1.26262
 11
12.5622
 21
1.20113
  0
LINE
  8
0
 10
12.5622
 20
1.20113
 11
12.5945
 21
1.14528
  0
LINE
  8
0
 10
12.5945
 20
1.14528
 11
12.6397
 21
1.09509
  0
LINE
  8
0
 10
12.6397
 20
1.09509
 11
12.6945
 21
1.05363
  0
LINE
  8
0
 10
12.6945
 20
1.05363
 11
12.7552
 21
1.02403
  0
LINE
  8
0
 10
12.7552
 20
1.02403
 11
12.8221
 21
1.00627
  0
LINE
  8
0
 10
12.8221
 20
1.00627
 11
12.8949
 21
1.00034
  0
LINE
  8
0
 10
12.8949
 20
1.00034
 11
12.9678
 21
1.00627
  0
ENDSEC
  0
SECTION
  2
OBJECTS
  0
DICTIONARY
  0
ENDSEC
  0
EOF
