<svg xmlns="http://www.w3.org/2000/svg" width="1200" height="720" viewBox="0 0 1200 720">
  <rect width="1200" height="720" fill="#f3efe7"/>
  <text x="70" y="74" font-family="sans-serif" font-size="34" fill="#24333b">MM-ORG-017 · modular pocket-emptying tray</text>
  <g transform="translate(75 145)">
    <g fill="#4f9b9c" stroke="#24333b" stroke-width="5">
      <rect x="0" y="0" width="290" height="350" rx="44"/>
      <path d="M290 148 L326 130 L326 220 L290 202 Z"/>
    </g>
    <path d="M38 56 H252 V280 H218 Q145 330 72 280 H38 Z" fill="#d8ece8" stroke="#24333b" stroke-width="5"/>
    <path d="M90 278 H200" stroke="#d8ece8" stroke-width="38" stroke-linecap="round"/>
    <path d="M72 255 Q145 305 218 255" fill="none" stroke="#dd9436" stroke-width="10"/>
    <text x="73" y="405" font-family="sans-serif" font-size="24" fill="#24333b">Soft Arc</text>
  </g>
  <g transform="translate(455 145)">
    <path d="M35 0 H255 L290 35 V315 L255 350 H35 L0 315 V35 Z" fill="#dd9436" stroke="#24333b" stroke-width="5"/>
    <path d="M290 148 L326 130 L326 220 L290 202 Z" fill="#dd9436" stroke="#24333b" stroke-width="5"/>
    <path d="M55 48 H235 L252 65 V275 L218 305 H72 L38 275 V65 Z" fill="#f5dfba" stroke="#24333b" stroke-width="5"/>
    <path d="M90 278 H200" stroke="#f5dfba" stroke-width="38" stroke-linecap="round"/>
    <text x="68" y="405" font-family="sans-serif" font-size="24" fill="#24333b">Clean Facet</text>
  </g>
  <g transform="translate(835 145)">
    <rect x="0" y="0" width="290" height="350" rx="18" fill="#7762a6" stroke="#24333b" stroke-width="5"/>
    <path d="M290 148 L326 130 L326 220 L290 202 Z" fill="#7762a6" stroke="#24333b" stroke-width="5"/>
    <path d="M38 48 H252 V280 H218 Q145 330 72 280 H38 Z" fill="#e1d9ef" stroke="#24333b" stroke-width="5"/>
    <path d="M90 278 H200" stroke="#e1d9ef" stroke-width="38" stroke-linecap="round"/>
    <path d="M80 0 V36 M145 0 V36 M210 0 V36" stroke="#c4b0e0" stroke-width="16"/>
    <text x="72" y="405" font-family="sans-serif" font-size="24" fill="#24333b">Utility Rib</text>
  </g>
  <path d="M215 610 H950" stroke="#24333b" stroke-width="4" marker-end="url(#arrow)"/>
  <text x="320" y="655" font-family="sans-serif" font-size="25" fill="#24333b">shared 56 mm pitch · rear-high floor → low rounded front sweep exit</text>
  <defs><marker id="arrow" markerWidth="10" markerHeight="10" refX="9" refY="3" orient="auto"><path d="M0,0 L0,6 L9,3 Z" fill="#24333b"/></marker></defs>
</svg>
