999
JuSt Innovation - JuSt Innovation trace watermark JSI-26A1 - JSI-WM-001-R1
0
SECTION
2
HEADER
9
$ACADVER
1
AC1009
9
$INSUNITS
70
4
9
$MEASUREMENT
70
1
0
ENDSEC
0
SECTION
2
ENTITIES
0
POLYLINE
8
WATERMARK
66
1
70
1
0
VERTEX
8
WATERMARK
10
-13.35647
20
0.90509
30
0
0
VERTEX
8
WATERMARK
10
-13.29436
20
0.92026
30
0
0
VERTEX
8
WATERMARK
10
-13.23546
20
0.94513
30
0
0
VERTEX
8
WATERMARK
10
-13.18128
20
0.97907
30
0
0
VERTEX
8
WATERMARK
10
-13.13319
20
1.02121
30
0
0
VERTEX
8
WATERMARK
10
-13.09237
20
1.07054
30
0
0
VERTEX
8
WATERMARK
10
-12.53236
20
1.87054
30
0
0
VERTEX
8
WATERMARK
10
-12.50133
20
1.92296
30
0
0
VERTEX
8
WATERMARK
10
-12.47858
20
1.97957
30
0
0
VERTEX
8
WATERMARK
10
-12.4647
20
2.03898
30
0
0
VERTEX
8
WATERMARK
10
-12.46001
20
2.0999
30
0
0
VERTEX
8
WATERMARK
10
-12.46
20
4.49989
30
0
0
VERTEX
8
WATERMARK
10
-12.46606
20
4.56924
30
0
0
VERTEX
8
WATERMARK
10
-12.48407
20
4.6366
30
0
0
VERTEX
8
WATERMARK
10
-12.5135
20
4.6998
30
0
0
VERTEX
8
WATERMARK
10
-12.55346
20
4.75694
30
0
0
VERTEX
8
WATERMARK
10
-12.60273
20
4.80626
30
0
0
VERTEX
8
WATERMARK
10
-12.65982
20
4.84628
30
0
0
VERTEX
8
WATERMARK
10
-12.72299
20
4.87578
30
0
0
VERTEX
8
WATERMARK
10
-12.79033
20
4.89387
30
0
0
VERTEX
8
WATERMARK
10
-12.85989
20
4.89999
30
0
0
VERTEX
8
WATERMARK
10
-14.8599
20
4.9
30
0
0
VERTEX
8
WATERMARK
10
-14.92238
20
4.89509
30
0
0
VERTEX
8
WATERMARK
10
-14.98342
20
4.88047
30
0
0
VERTEX
8
WATERMARK
10
-15.04141
20
4.85648
30
0
0
VERTEX
8
WATERMARK
10
-15.09495
20
4.82371
30
0
0
VERTEX
8
WATERMARK
10
-15.14269
20
4.78297
30
0
0
VERTEX
8
WATERMARK
10
-15.18348
20
4.73526
30
0
0
VERTEX
8
WATERMARK
10
-15.2163
20
4.68176
30
0
0
VERTEX
8
WATERMARK
10
-15.24035
20
4.62379
30
0
0
VERTEX
8
WATERMARK
10
-15.25503
20
4.56276
30
0
0
VERTEX
8
WATERMARK
10
-15.25998
20
4.5002
30
0
0
VERTEX
8
WATERMARK
10
-15.25509
20
4.43762
30
0
0
VERTEX
8
WATERMARK
10
-15.24047
20
4.37658
30
0
0
VERTEX
8
WATERMARK
10
-15.21648
20
4.31859
30
0
0
VERTEX
8
WATERMARK
10
-15.18371
20
4.26505
30
0
0
VERTEX
8
WATERMARK
10
-15.14297
20
4.21731
30
0
0
VERTEX
8
WATERMARK
10
-15.09526
20
4.17652
30
0
0
VERTEX
8
WATERMARK
10
-15.04176
20
4.1437
30
0
0
VERTEX
8
WATERMARK
10
-14.98379
20
4.11965
30
0
0
VERTEX
8
WATERMARK
10
-14.92276
20
4.10497
30
0
0
VERTEX
8
WATERMARK
10
-14.8601
20
4.10001
30
0
0
VERTEX
8
WATERMARK
10
-13.26371
20
4.09983
30
0
0
VERTEX
8
WATERMARK
10
-13.26017
20
4.09629
30
0
0
VERTEX
8
WATERMARK
10
-13.26067
20
2.22517
30
0
0
VERTEX
8
WATERMARK
10
-13.62765
20
1.70117
30
0
0
VERTEX
8
WATERMARK
10
-13.62999
20
1.70008
30
0
0
VERTEX
8
WATERMARK
10
-14.12351
20
1.70017
30
0
0
VERTEX
8
WATERMARK
10
-14.12575
20
1.70146
30
0
0
VERTEX
8
WATERMARK
10
-14.51077
20
2.39101
30
0
0
VERTEX
8
WATERMARK
10
-14.54974
20
2.44843
30
0
0
VERTEX
8
WATERMARK
10
-14.59829
20
2.49847
30
0
0
VERTEX
8
WATERMARK
10
-14.65479
20
2.53932
30
0
0
VERTEX
8
WATERMARK
10
-14.71752
20
2.56974
30
0
0
VERTEX
8
WATERMARK
10
-14.78459
20
2.5888
30
0
0
VERTEX
8
WATERMARK
10
-14.85394
20
2.59593
30
0
0
VERTEX
8
WATERMARK
10
-14.92348
20
2.59091
30
0
0
VERTEX
8
WATERMARK
10
-14.99109
20
2.57388
30
0
0
VERTEX
8
WATERMARK
10
-15.05472
20
2.54538
30
0
0
VERTEX
8
WATERMARK
10
-15.11243
20
2.50626
30
0
0
VERTEX
8
WATERMARK
10
-15.16247
20
2.45771
30
0
0
VERTEX
8
WATERMARK
10
-15.20332
20
2.40121
30
0
0
VERTEX
8
WATERMARK
10
-15.23374
20
2.33848
30
0
0
VERTEX
8
WATERMARK
10
-15.2528
20
2.27141
30
0
0
VERTEX
8
WATERMARK
10
-15.25993
20
2.20206
30
0
0
VERTEX
8
WATERMARK
10
-15.25491
20
2.13252
30
0
0
VERTEX
8
WATERMARK
10
-15.23788
20
2.06491
30
0
0
VERTEX
8
WATERMARK
10
-15.20933
20
2.00118
30
0
0
VERTEX
8
WATERMARK
10
-14.70934
20
1.10516
30
0
0
VERTEX
8
WATERMARK
10
-14.67593
20
1.0547
30
0
0
VERTEX
8
WATERMARK
10
-14.63524
20
1.00977
30
0
0
VERTEX
8
WATERMARK
10
-14.58822
20
0.97152
30
0
0
VERTEX
8
WATERMARK
10
-14.53597
20
0.9408
30
0
0
VERTEX
8
WATERMARK
10
-14.47967
20
0.91834
30
0
0
VERTEX
8
WATERMARK
10
-14.42063
20
0.90464
30
0
0
VERTEX
8
WATERMARK
10
-14.36009
20
0.90001
30
0
0
VERTEX
8
WATERMARK
10
-13.4201
20
0.9
30
0
0
SEQEND
8
WATERMARK
0
POLYLINE
8
WATERMARK
66
1
70
1
0
VERTEX
8
WATERMARK
10
-6.43305
20
0.90566
30
0
0
VERTEX
8
WATERMARK
10
-6.36779
20
0.9225
30
0
0
VERTEX
8
WATERMARK
10
-6.30628
20
0.95006
30
0
0
VERTEX
8
WATERMARK
10
-6.25028
20
0.98755
30
0
0
VERTEX
8
WATERMARK
10
-6.20136
20
1.03391
30
0
0
VERTEX
8
WATERMARK
10
-6.16086
20
1.08792
30
0
0
VERTEX
8
WATERMARK
10
-5.72086
20
1.79191
30
0
0
VERTEX
8
WATERMARK
10
-5.69008
20
1.85185
30
0
0
VERTEX
8
WATERMARK
10
-5.66977
20
1.91621
30
0
0
VERTEX
8
WATERMARK
10
-5.66057
20
1.98306
30
0
0
VERTEX
8
WATERMARK
10
-5.66273
20
2.05051
30
0
0
VERTEX
8
WATERMARK
10
-5.67621
20
2.11663
30
0
0
VERTEX
8
WATERMARK
10
-5.70064
20
2.17965
30
0
0
VERTEX
8
WATERMARK
10
-6.06063
20
2.91565
30
0
0
VERTEX
8
WATERMARK
10
-6.09646
20
2.97518
30
0
0
VERTEX
8
WATERMARK
10
-6.14212
20
3.02769
30
0
0
VERTEX
8
WATERMARK
10
-6.19618
20
3.0715
30
0
0
VERTEX
8
WATERMARK
10
-6.25701
20
3.10527
30
0
0
VERTEX
8
WATERMARK
10
-6.32289
20
3.12802
30
0
0
VERTEX
8
WATERMARK
10
-7.42141
20
3.40283
30
0
0
VERTEX
8
WATERMARK
10
-7.60232
20
3.77103
30
0
0
VERTEX
8
WATERMARK
10
-7.60214
20
3.77362
30
0
0
VERTEX
8
WATERMARK
10
-7.39894
20
4.09866
30
0
0
VERTEX
8
WATERMARK
10
-7.39665
20
4.09987
30
0
0
VERTEX
8
WATERMARK
10
-6.74423
20
4.09983
30
0
0
VERTEX
8
WATERMARK
10
-6.28611
20
3.78606
30
0
0
VERTEX
8
WATERMARK
10
-6.22528
20
3.75177
30
0
0
VERTEX
8
WATERMARK
10
-6.15952
20
3.7286
30
0
0
VERTEX
8
WATERMARK
10
-6.09074
20
3.7172
30
0
0
VERTEX
8
WATERMARK
10
-6.02102
20
3.71793
30
0
0
VERTEX
8
WATERMARK
10
-5.95249
20
3.73074
30
0
0
VERTEX
8
WATERMARK
10
-5.88722
20
3.75526
30
0
0
VERTEX
8
WATERMARK
10
-5.82721
20
3.79075
30
0
0
VERTEX
8
WATERMARK
10
-5.77457
20
3.8358
30
0
0
VERTEX
8
WATERMARK
10
-5.73025
20
3.88962
30
0
0
VERTEX
8
WATERMARK
10
-5.69595
20
3.95032
30
0
0
VERTEX
8
WATERMARK
10
-5.67271
20
4.01606
30
0
0
VERTEX
8
WATERMARK
10
-5.66124
20
4.08483
30
0
0
VERTEX
8
WATERMARK
10
-5.66188
20
4.15454
30
0
0
VERTEX
8
WATERMARK
10
-5.67462
20
4.22309
30
0
0
VERTEX
8
WATERMARK
10
-5.69908
20
4.28838
30
0
0
VERTEX
8
WATERMARK
10
-5.73449
20
4.34844
30
0
0
VERTEX
8
WATERMARK
10
-5.7798
20
4.40143
30
0
0
VERTEX
8
WATERMARK
10
-5.83371
20
4.44582
30
0
0
VERTEX
8
WATERMARK
10
-6.39371
20
4.82984
30
0
0
VERTEX
8
WATERMARK
10
-6.44556
20
4.85994
30
0
0
VERTEX
8
WATERMARK
10
-6.50141
20
4.882
30
0
0
VERTEX
8
WATERMARK
10
-6.55994
20
4.89545
30
0
0
VERTEX
8
WATERMARK
10
-6.61991
20
4.89999
30
0
0
VERTEX
8
WATERMARK
10
-7.61989
20
4.9
30
0
0
VERTEX
8
WATERMARK
10
-7.68695
20
4.89434
30
0
0
VERTEX
8
WATERMARK
10
-7.75221
20
4.8775
30
0
0
VERTEX
8
WATERMARK
10
-7.81372
20
4.84994
30
0
0
VERTEX
8
WATERMARK
10
-7.86972
20
4.81245
30
0
0
VERTEX
8
WATERMARK
10
-7.91864
20
4.76609
30
0
0
VERTEX
8
WATERMARK
10
-7.95914
20
4.71208
30
0
0
VERTEX
8
WATERMARK
10
-8.39914
20
4.00809
30
0
0
VERTEX
8
WATERMARK
10
-8.42992
20
3.94815
30
0
0
VERTEX
8
WATERMARK
10
-8.45023
20
3.88379
30
0
0
VERTEX
8
WATERMARK
10
-8.45943
20
3.81694
30
0
0
VERTEX
8
WATERMARK
10
-8.45727
20
3.74949
30
0
0
VERTEX
8
WATERMARK
10
-8.44379
20
3.68337
30
0
0
VERTEX
8
WATERMARK
10
-8.41936
20
3.62035
30
0
0
VERTEX
8
WATERMARK
10
-8.05937
20
2.88435
30
0
0
VERTEX
8
WATERMARK
10
-8.02354
20
2.82482
30
0
0
VERTEX
8
WATERMARK
10
-7.97788
20
2.77231
30
0
0
VERTEX
8
WATERMARK
10
-7.92382
20
2.7285
30
0
0
VERTEX
8
WATERMARK
10
-7.86299
20
2.69473
30
0
0
VERTEX
8
WATERMARK
10
-7.79711
20
2.67198
30
0
0
VERTEX
8
WATERMARK
10
-6.69859
20
2.39717
30
0
0
VERTEX
8
WATERMARK
10
-6.51768
20
2.02897
30
0
0
VERTEX
8
WATERMARK
10
-6.51786
20
2.02638
30
0
0
VERTEX
8
WATERMARK
10
-6.72106
20
1.70134
30
0
0
VERTEX
8
WATERMARK
10
-6.72335
20
1.70013
30
0
0
VERTEX
8
WATERMARK
10
-7.46942
20
1.70017
30
0
0
VERTEX
8
WATERMARK
10
-7.79708
20
1.98543
30
0
0
VERTEX
8
WATERMARK
10
-7.85351
20
2.02656
30
0
0
VERTEX
8
WATERMARK
10
-7.91614
20
2.05721
30
0
0
VERTEX
8
WATERMARK
10
-7.9827
20
2.07644
30
0
0
VERTEX
8
WATERMARK
10
-8.05202
20
2.0839
30
0
0
VERTEX
8
WATERMARK
10
-8.12159
20
2.07921
30
0
0
VERTEX
8
WATERMARK
10
-8.18928
20
2.06251
30
0
0
VERTEX
8
WATERMARK
10
-8.25304
20
2.03431
30
0
0
VERTEX
8
WATERMARK
10
-8.31094
20
1.99547
30
0
0
VERTEX
8
WATERMARK
10
-8.36121
20
1.94716
30
0
0
VERTEX
8
WATERMARK
10
-8.40233
20
1.89086
30
0
0
VERTEX
8
WATERMARK
10
-8.43305
20
1.82827
30
0
0
VERTEX
8
WATERMARK
10
-8.45244
20
1.7613
30
0
0
VERTEX
8
WATERMARK
10
-8.4599
20
1.69198
30
0
0
VERTEX
8
WATERMARK
10
-8.45521
20
1.62241
30
0
0
VERTEX
8
WATERMARK
10
-8.43851
20
1.55472
30
0
0
VERTEX
8
WATERMARK
10
-8.41031
20
1.49096
30
0
0
VERTEX
8
WATERMARK
10
-8.37147
20
1.43306
30
0
0
VERTEX
8
WATERMARK
10
-8.32309
20
1.38271
30
0
0
VERTEX
8
WATERMARK
10
-7.88308
20
0.99869
30
0
0
VERTEX
8
WATERMARK
10
-7.83735
20
0.96422
30
0
0
VERTEX
8
WATERMARK
10
-7.78709
20
0.93659
30
0
0
VERTEX
8
WATERMARK
10
-7.7334
20
0.91643
30
0
0
VERTEX
8
WATERMARK
10
-7.67738
20
0.90415
30
0
0
VERTEX
8
WATERMARK
10
-7.62009
20
0.90001
30
0
0
VERTEX
8
WATERMARK
10
-6.50011
20
0.9
30
0
0
SEQEND
8
WATERMARK
0
POLYLINE
8
WATERMARK
66
1
70
1
0
VERTEX
8
WATERMARK
10
-3.59762
20
0.90491
30
0
0
VERTEX
8
WATERMARK
10
-3.53658
20
0.91953
30
0
0
VERTEX
8
WATERMARK
10
-3.47859
20
0.94352
30
0
0
VERTEX
8
WATERMARK
10
-3.42505
20
0.97629
30
0
0
VERTEX
8
WATERMARK
10
-3.37731
20
1.01703
30
0
0
VERTEX
8
WATERMARK
10
-3.33652
20
1.06474
30
0
0
VERTEX
8
WATERMARK
10
-3.3037
20
1.11824
30
0
0
VERTEX
8
WATERMARK
10
-3.27965
20
1.17621
30
0
0
VERTEX
8
WATERMARK
10
-3.26497
20
1.23724
30
0
0
VERTEX
8
WATERMARK
10
-3.26001
20
1.2999
30
0
0
VERTEX
8
WATERMARK
10
-3.25983
20
3.69629
30
0
0
VERTEX
8
WATERMARK
10
-3.25629
20
3.69983
30
0
0
VERTEX
8
WATERMARK
10
-2.65989
20
3.70001
30
0
0
VERTEX
8
WATERMARK
10
-2.59033
20
3.70613
30
0
0
VERTEX
8
WATERMARK
10
-2.5234
20
3.72407
30
0
0
VERTEX
8
WATERMARK
10
-2.4602
20
3.7535
30
0
0
VERTEX
8
WATERMARK
10
-2.40306
20
3.79346
30
0
0
VERTEX
8
WATERMARK
10
-2.35374
20
3.84273
30
0
0
VERTEX
8
WATERMARK
10
-2.31372
20
3.89982
30
0
0
VERTEX
8
WATERMARK
10
-2.28422
20
3.96299
30
0
0
VERTEX
8
WATERMARK
10
-2.26613
20
4.03033
30
0
0
VERTEX
8
WATERMARK
10
-2.26002
20
4.09979
30
0
0
VERTEX
8
WATERMARK
10
-2.26491
20
4.16238
30
0
0
VERTEX
8
WATERMARK
10
-2.27953
20
4.22342
30
0
0
VERTEX
8
WATERMARK
10
-2.30352
20
4.28141
30
0
0
VERTEX
8
WATERMARK
10
-2.33629
20
4.33495
30
0
0
VERTEX
8
WATERMARK
10
-2.37703
20
4.38269
30
0
0
VERTEX
8
WATERMARK
10
-2.42474
20
4.42348
30
0
0
VERTEX
8
WATERMARK
10
-2.47824
20
4.4563
30
0
0
VERTEX
8
WATERMARK
10
-2.53621
20
4.48035
30
0
0
VERTEX
8
WATERMARK
10
-2.59724
20
4.49503
30
0
0
VERTEX
8
WATERMARK
10
-2.6599
20
4.49999
30
0
0
VERTEX
8
WATERMARK
10
-4.65989
20
4.5
30
0
0
VERTEX
8
WATERMARK
10
-4.72924
20
4.49394
30
0
0
VERTEX
8
WATERMARK
10
-4.7966
20
4.47593
30
0
0
VERTEX
8
WATERMARK
10
-4.8598
20
4.4465
30
0
0
VERTEX
8
WATERMARK
10
-4.91694
20
4.40654
30
0
0
VERTEX
8
WATERMARK
10
-4.96626
20
4.35727
30
0
0
VERTEX
8
WATERMARK
10
-5.00628
20
4.30018
30
0
0
VERTEX
8
WATERMARK
10
-5.03578
20
4.23701
30
0
0
VERTEX
8
WATERMARK
10
-5.05387
20
4.16967
30
0
0
VERTEX
8
WATERMARK
10
-5.05998
20
4.10022
30
0
0
VERTEX
8
WATERMARK
10
-5.05394
20
4.03076
30
0
0
VERTEX
8
WATERMARK
10
-5.03593
20
3.9634
30
0
0
VERTEX
8
WATERMARK
10
-5.0065
20
3.9002
30
0
0
VERTEX
8
WATERMARK
10
-4.96654
20
3.84306
30
0
0
VERTEX
8
WATERMARK
10
-4.91727
20
3.79374
30
0
0
VERTEX
8
WATERMARK
10
-4.86018
20
3.75372
30
0
0
VERTEX
8
WATERMARK
10
-4.79701
20
3.72422
30
0
0
VERTEX
8
WATERMARK
10
-4.72967
20
3.70613
30
0
0
VERTEX
8
WATERMARK
10
-4.66011
20
3.70001
30
0
0
VERTEX
8
WATERMARK
10
-4.06371
20
3.69983
30
0
0
VERTEX
8
WATERMARK
10
-4.06017
20
3.69629
30
0
0
VERTEX
8
WATERMARK
10
-4.06
20
1.30011
30
0
0
VERTEX
8
WATERMARK
10
-4.05394
20
1.23076
30
0
0
VERTEX
8
WATERMARK
10
-4.03593
20
1.1634
30
0
0
VERTEX
8
WATERMARK
10
-4.0065
20
1.1002
30
0
0
VERTEX
8
WATERMARK
10
-3.96654
20
1.04306
30
0
0
VERTEX
8
WATERMARK
10
-3.91727
20
0.99374
30
0
0
VERTEX
8
WATERMARK
10
-3.86018
20
0.95372
30
0
0
VERTEX
8
WATERMARK
10
-3.79701
20
0.92422
30
0
0
VERTEX
8
WATERMARK
10
-3.72967
20
0.90613
30
0
0
VERTEX
8
WATERMARK
10
-3.66021
20
0.90002
30
0
0
SEQEND
8
WATERMARK
0
POLYLINE
8
WATERMARK
66
1
70
1
0
VERTEX
8
WATERMARK
10
-22.69683
20
-4.19394
30
0
0
VERTEX
8
WATERMARK
10
-22.62947
20
-4.17593
30
0
0
VERTEX
8
WATERMARK
10
-22.56627
20
-4.1465
30
0
0
VERTEX
8
WATERMARK
10
-22.50913
20
-4.10654
30
0
0
VERTEX
8
WATERMARK
10
-22.45981
20
-4.05727
30
0
0
VERTEX
8
WATERMARK
10
-22.41972
20
-4.00009
30
0
0
VERTEX
8
WATERMARK
10
-20.22578
20
-0.20008
30
0
0
VERTEX
8
WATERMARK
10
-20.19987
20
-0.14631
30
0
0
VERTEX
8
WATERMARK
10
-20.18222
20
-0.08919
30
0
0
VERTEX
8
WATERMARK
10
-20.17329
20
-0.03008
30
0
0
VERTEX
8
WATERMARK
10
-20.17326
20
0.0297
30
0
0
VERTEX
8
WATERMARK
10
-20.18214
20
0.08882
30
0
0
VERTEX
8
WATERMARK
10
-20.19974
20
0.14596
30
0
0
VERTEX
8
WATERMARK
10
-20.22569
20
0.19992
30
0
0
VERTEX
8
WATERMARK
10
-22.41961
20
3.99991
30
0
0
VERTEX
8
WATERMARK
10
-22.45953
20
4.05694
30
0
0
VERTEX
8
WATERMARK
10
-22.5088
20
4.10626
30
0
0
VERTEX
8
WATERMARK
10
-22.56589
20
4.14628
30
0
0
VERTEX
8
WATERMARK
10
-22.62906
20
4.17578
30
0
0
VERTEX
8
WATERMARK
10
-22.6964
20
4.19387
30
0
0
VERTEX
8
WATERMARK
10
-22.76596
20
4.19999
30
0
0
VERTEX
8
WATERMARK
10
-27.15382
20
4.2
30
0
0
VERTEX
8
WATERMARK
10
-27.22317
20
4.19394
30
0
0
VERTEX
8
WATERMARK
10
-27.29053
20
4.17593
30
0
0
VERTEX
8
WATERMARK
10
-27.35373
20
4.1465
30
0
0
VERTEX
8
WATERMARK
10
-27.41087
20
4.10654
30
0
0
VERTEX
8
WATERMARK
10
-27.46019
20
4.05727
30
0
0
VERTEX
8
WATERMARK
10
-27.50028
20
4.00009
30
0
0
VERTEX
8
WATERMARK
10
-29.69422
20
0.20009
30
0
0
VERTEX
8
WATERMARK
10
-29.72364
20
0.13701
30
0
0
VERTEX
8
WATERMARK
10
-29.74173
20
0.06967
30
0
0
VERTEX
8
WATERMARK
10
-29.74784
20
0.00022
30
0
0
VERTEX
8
WATERMARK
10
-29.7418
20
-0.06924
30
0
0
VERTEX
8
WATERMARK
10
-29.72379
20
-0.1366
30
0
0
VERTEX
8
WATERMARK
10
-29.69432
20
-0.1999
30
0
0
VERTEX
8
WATERMARK
10
-27.50031
20
-3.99997
30
0
0
VERTEX
8
WATERMARK
10
-27.15392
20
-4.19996
30
0
0
VERTEX
8
WATERMARK
10
-22.76618
20
-4.2
30
0
0
SEQEND
8
WATERMARK
0
POLYLINE
8
WATERMARK
66
1
70
1
0
VERTEX
8
WATERMARK
10
-26.9214
20
-3.39983
30
0
0
VERTEX
8
WATERMARK
10
-26.92364
20
-3.39854
30
0
0
VERTEX
8
WATERMARK
10
-28.88521
20
0
30
0
0
VERTEX
8
WATERMARK
10
-27.89694
20
1.71273
30
0
0
VERTEX
8
WATERMARK
10
-27.8947
20
1.71402
30
0
0
VERTEX
8
WATERMARK
10
-27.88987
20
1.71273
30
0
0
VERTEX
8
WATERMARK
10
-27.85326
20
1.66697
30
0
0
VERTEX
8
WATERMARK
10
-27.80485
20
1.62334
30
0
0
VERTEX
8
WATERMARK
10
-27.75035
20
1.58835
30
0
0
VERTEX
8
WATERMARK
10
-27.69054
20
1.56248
30
0
0
VERTEX
8
WATERMARK
10
-27.62732
20
1.54666
30
0
0
VERTEX
8
WATERMARK
10
-27.56227
20
1.54131
30
0
0
VERTEX
8
WATERMARK
10
-26.39632
20
1.54113
30
0
0
VERTEX
8
WATERMARK
10
-26.39278
20
1.53759
30
0
0
VERTEX
8
WATERMARK
10
-26.39261
20
-0.89328
30
0
0
VERTEX
8
WATERMARK
10
-26.50205
20
-1.27643
30
0
0
VERTEX
8
WATERMARK
10
-26.7745
20
-1.45844
30
0
0
VERTEX
8
WATERMARK
10
-26.99707
20
-1.45853
30
0
0
VERTEX
8
WATERMARK
10
-27.20846
20
-1.19585
30
0
0
VERTEX
8
WATERMARK
10
-27.25132
20
-1.15013
30
0
0
VERTEX
8
WATERMARK
10
-27.30087
20
-1.1116
30
0
0
VERTEX
8
WATERMARK
10
-27.35583
20
-1.0813
30
0
0
VERTEX
8
WATERMARK
10
-27.41486
20
-1.05996
30
0
0
VERTEX
8
WATERMARK
10
-27.4765
20
-1.04813
30
0
0
VERTEX
8
WATERMARK
10
-27.53924
20
-1.04608
30
0
0
VERTEX
8
WATERMARK
10
-27.60152
20
-1.05388
30
0
0
VERTEX
8
WATERMARK
10
-27.66181
20
-1.07131
30
0
0
VERTEX
8
WATERMARK
10
-27.71863
20
-1.09797
30
0
0
VERTEX
8
WATERMARK
10
-27.77059
20
-1.13319
30
0
0
VERTEX
8
WATERMARK
10
-27.81639
20
-1.1761
30
0
0
VERTEX
8
WATERMARK
10
-27.85492
20
-1.22565
30
0
0
VERTEX
8
WATERMARK
10
-27.88522
20
-1.28061
30
0
0
VERTEX
8
WATERMARK
10
-27.90656
20
-1.33964
30
0
0
VERTEX
8
WATERMARK
10
-27.91839
20
-1.40128
30
0
0
VERTEX
8
WATERMARK
10
-27.92044
20
-1.46402
30
0
0
VERTEX
8
WATERMARK
10
-27.91264
20
-1.5263
30
0
0
VERTEX
8
WATERMARK
10
-27.89521
20
-1.58659
30
0
0
VERTEX
8
WATERMARK
10
-27.86855
20
-1.64341
30
0
0
VERTEX
8
WATERMARK
10
-27.83328
20
-1.69545
30
0
0
VERTEX
8
WATERMARK
10
-27.50284
20
-2.1085
30
0
0
VERTEX
8
WATERMARK
10
-27.46225
20
-2.15213
30
0
0
VERTEX
8
WATERMARK
10
-27.41557
20
-2.18931
30
0
0
VERTEX
8
WATERMARK
10
-27.36387
20
-2.21912
30
0
0
VERTEX
8
WATERMARK
10
-27.30831
20
-2.24092
30
0
0
VERTEX
8
WATERMARK
10
-27.25013
20
-2.25421
30
0
0
VERTEX
8
WATERMARK
10
-27.19052
20
-2.25869
30
0
0
VERTEX
8
WATERMARK
10
-26.65357
20
-2.2587
30
0
0
VERTEX
8
WATERMARK
10
-26.59507
20
-2.2544
30
0
0
VERTEX
8
WATERMARK
10
-26.53775
20
-2.24158
30
0
0
VERTEX
8
WATERMARK
10
-26.48291
20
-2.2205
30
0
0
VERTEX
8
WATERMARK
10
-26.43168
20
-2.19157
30
0
0
VERTEX
8
WATERMARK
10
-25.93602
20
-1.86113
30
0
0
VERTEX
8
WATERMARK
10
-25.89155
20
-1.82673
30
0
0
VERTEX
8
WATERMARK
10
-25.85227
20
-1.78638
30
0
0
VERTEX
8
WATERMARK
10
-25.81905
20
-1.74091
30
0
0
VERTEX
8
WATERMARK
10
-25.79255
20
-1.69123
30
0
0
VERTEX
8
WATERMARK
10
-25.77325
20
-1.63823
30
0
0
VERTEX
8
WATERMARK
10
-25.60802
20
-1.05997
30
0
0
VERTEX
8
WATERMARK
10
-25.59651
20
-1.00565
30
0
0
VERTEX
8
WATERMARK
10
-25.59262
20
-0.95009
30
0
0
VERTEX
8
WATERMARK
10
-25.59261
20
1.94119
30
0
0
VERTEX
8
WATERMARK
10
-25.59867
20
2.01054
30
0
0
VERTEX
8
WATERMARK
10
-25.61668
20
2.0779
30
0
0
VERTEX
8
WATERMARK
10
-25.64611
20
2.1411
30
0
0
VERTEX
8
WATERMARK
10
-25.68607
20
2.19824
30
0
0
VERTEX
8
WATERMARK
10
-25.73534
20
2.24756
30
0
0
VERTEX
8
WATERMARK
10
-25.79243
20
2.28758
30
0
0
VERTEX
8
WATERMARK
10
-25.8556
20
2.31708
30
0
0
VERTEX
8
WATERMARK
10
-25.92294
20
2.33517
30
0
0
VERTEX
8
WATERMARK
10
-25.9925
20
2.34129
30
0
0
VERTEX
8
WATERMARK
10
-27.52686
20
2.34147
30
0
0
VERTEX
8
WATERMARK
10
-27.5304
20
2.34501
30
0
0
VERTEX
8
WATERMARK
10
-27.5304
20
2.34759
30
0
0
VERTEX
8
WATERMARK
10
-26.9226
20
3.39933
30
0
0
VERTEX
8
WATERMARK
10
-22.9986
20
3.39983
30
0
0
VERTEX
8
WATERMARK
10
-22.99636
20
3.39854
30
0
0
VERTEX
8
WATERMARK
10
-22.2751
20
2.14927
30
0
0
VERTEX
8
WATERMARK
10
-22.27639
20
2.14444
30
0
0
VERTEX
8
WATERMARK
10
-22.28122
20
2.14315
30
0
0
VERTEX
8
WATERMARK
10
-22.77202
20
2.36393
30
0
0
VERTEX
8
WATERMARK
10
-22.82465
20
2.38328
30
0
0
VERTEX
8
WATERMARK
10
-22.87972
20
2.39513
30
0
0
VERTEX
8
WATERMARK
10
-22.936
20
2.39912
30
0
0
VERTEX
8
WATERMARK
10
-23.76207
20
2.39913
30
0
0
VERTEX
8
WATERMARK
10
-23.82652
20
2.39391
30
0
0
VERTEX
8
WATERMARK
10
-23.88938
20
2.37835
30
0
0
VERTEX
8
WATERMARK
10
-23.94901
20
2.35281
30
0
0
VERTEX
8
WATERMARK
10
-24.52728
20
2.04716
30
0
0
VERTEX
8
WATERMARK
10
-24.57741
20
2.01571
30
0
0
VERTEX
8
WATERMARK
10
-24.62242
20
1.97716
30
0
0
VERTEX
8
WATERMARK
10
-24.66124
20
1.93238
30
0
0
VERTEX
8
WATERMARK
10
-24.69302
20
1.88235
30
0
0
VERTEX
8
WATERMARK
10
-24.71709
20
1.82809
30
0
0
VERTEX
8
WATERMARK
10
-24.92362
20
1.24984
30
0
0
VERTEX
8
WATERMARK
10
-24.93986
20
1.19014
30
0
0
VERTEX
8
WATERMARK
10
-24.94672
20
1.12855
30
0
0
VERTEX
8
WATERMARK
10
-24.94398
20
1.06664
30
0
0
VERTEX
8
WATERMARK
10
-24.93171
20
1.00589
30
0
0
VERTEX
8
WATERMARK
10
-24.91017
20
0.94768
30
0
0
VERTEX
8
WATERMARK
10
-24.66235
20
0.41073
30
0
0
VERTEX
8
WATERMARK
10
-24.63082
20
0.35472
30
0
0
VERTEX
8
WATERMARK
10
-24.59066
20
0.30441
30
0
0
VERTEX
8
WATERMARK
10
-24.54296
20
0.26119
30
0
0
VERTEX
8
WATERMARK
10
-24.48885
20
0.22612
30
0
0
VERTEX
8
WATERMARK
10
-23.95188
20
-0.06302
30
0
0
VERTEX
8
WATERMARK
10
-23.90676
20
-0.08382
30
0
0
VERTEX
8
WATERMARK
10
-23.85926
20
-0.09891
30
0
0
VERTEX
8
WATERMARK
10
-23.253
20
-0.25068
30
0
0
VERTEX
8
WATERMARK
10
-22.91038
20
-0.45074
30
0
0
VERTEX
8
WATERMARK
10
-22.77871
20
-0.71392
30
0
0
VERTEX
8
WATERMARK
10
-22.84824
20
-1.03961
30
0
0
VERTEX
8
WATERMARK
10
-23.14464
20
-1.33609
30
0
0
VERTEX
8
WATERMARK
10
-23.70016
20
-1.49057
30
0
0
VERTEX
8
WATERMARK
10
-24.35738
20
-1.38152
30
0
0
VERTEX
8
WATERMARK
10
-24.41962
20
-1.37612
30
0
0
VERTEX
8
WATERMARK
10
-24.48223
20
-1.38051
30
0
0
VERTEX
8
WATERMARK
10
-24.54338
20
-1.39463
30
0
0
VERTEX
8
WATERMARK
10
-24.60157
20
-1.41816
30
0
0
VERTEX
8
WATERMARK
10
-24.65537
20
-1.45049
30
0
0
VERTEX
8
WATERMARK
10
-24.70344
20
-1.49085
30
0
0
VERTEX
8
WATERMARK
10
-24.74461
20
-1.53822
30
0
0
VERTEX
8
WATERMARK
10
-24.77786
20
-1.59146
30
0
0
VERTEX
8
WATERMARK
10
-24.80238
20
-1.64924
30
0
0
VERTEX
8
WATERMARK
10
-24.81755
20
-1.71013
30
0
0
VERTEX
8
WATERMARK
10
-24.82301
20
-1.77962
30
0
0
VERTEX
8
WATERMARK
10
-24.81632
20
-1.84902
30
0
0
VERTEX
8
WATERMARK
10
-24.79767
20
-1.91621
30
0
0
VERTEX
8
WATERMARK
10
-24.76765
20
-1.97913
30
0
0
VERTEX
8
WATERMARK
10
-24.72716
20
-2.03589
30
0
0
VERTEX
8
WATERMARK
10
-24.67742
20
-2.08475
30
0
0
VERTEX
8
WATERMARK
10
-24.61996
20
-2.12423
30
0
0
VERTEX
8
WATERMARK
10
-24.55651
20
-2.15314
30
0
0
VERTEX
8
WATERMARK
10
-24.48891
20
-2.17061
30
0
0
VERTEX
8
WATERMARK
10
-23.74541
20
-2.29455
30
0
0
VERTEX
8
WATERMARK
10
-23.68766
20
-2.29991
30
0
0
VERTEX
8
WATERMARK
10
-23.62965
20
-2.29686
30
0
0
VERTEX
8
WATERMARK
10
-23.5726
20
-2.28543
30
0
0
VERTEX
8
WATERMARK
10
-22.82913
20
-2.07892
30
0
0
VERTEX
8
WATERMARK
10
-22.76503
20
-2.05504
30
0
0
VERTEX
8
WATERMARK
10
-22.70584
20
-2.02055
30
0
0
VERTEX
8
WATERMARK
10
-22.65332
20
-1.97639
30
0
0
VERTEX
8
WATERMARK
10
-22.19896
20
-1.52203
30
0
0
VERTEX
8
WATERMARK
10
-22.16146
20
-1.47873
30
0
0
VERTEX
8
WATERMARK
10
-22.13047
20
-1.43043
30
0
0
VERTEX
8
WATERMARK
10
-22.10671
20
-1.3782
30
0
0
VERTEX
8
WATERMARK
10
-22.09065
20
-1.32303
30
0
0
VERTEX
8
WATERMARK
10
-21.96673
20
-0.74478
30
0
0
VERTEX
8
WATERMARK
10
-21.95822
20
-0.67804
30
0
0
VERTEX
8
WATERMARK
10
-21.96101
20
-0.6107
30
0
0
VERTEX
8
WATERMARK
10
-21.97506
20
-0.54479
30
0
0
VERTEX
8
WATERMARK
10
-22.00002
20
-0.48208
30
0
0
VERTEX
8
WATERMARK
10
-22.24784
20
0.01359
30
0
0
VERTEX
8
WATERMARK
10
-22.27734
20
0.06325
30
0
0
VERTEX
8
WATERMARK
10
-22.31373
20
0.10823
30
0
0
VERTEX
8
WATERMARK
10
-22.35623
20
0.14748
30
0
0
VERTEX
8
WATERMARK
10
-22.40403
20
0.18024
30
0
0
VERTEX
8
WATERMARK
10
-22.89968
20
0.46938
30
0
0
VERTEX
8
WATERMARK
10
-22.95036
20
0.49432
30
0
0
VERTEX
8
WATERMARK
10
-23.00421
20
0.51194
30
0
0
VERTEX
8
WATERMARK
10
-23.61599
20
0.6649
30
0
0
VERTEX
8
WATERMARK
10
-23.9915
20
0.86711
30
0
0
VERTEX
8
WATERMARK
10
-24.11485
20
1.13391
30
0
0
VERTEX
8
WATERMARK
10
-24.0161
20
1.41184
30
0
0
VERTEX
8
WATERMARK
10
-23.66283
20
1.599
30
0
0
VERTEX
8
WATERMARK
10
-23.02301
20
1.59913
30
0
0
VERTEX
8
WATERMARK
10
-22.60448
20
1.41128
30
0
0
VERTEX
8
WATERMARK
10
-22.53853
20
1.38832
30
0
0
VERTEX
8
WATERMARK
10
-22.46971
20
1.37718
30
0
0
VERTEX
8
WATERMARK
10
-22.39999
20
1.37816
30
0
0
VERTEX
8
WATERMARK
10
-22.33151
20
1.39123
30
0
0
VERTEX
8
WATERMARK
10
-22.26633
20
1.41599
30
0
0
VERTEX
8
WATERMARK
10
-22.20645
20
1.45169
30
0
0
VERTEX
8
WATERMARK
10
-22.15367
20
1.49725
30
0
0
VERTEX
8
WATERMARK
10
-22.10985
20
1.55092
30
0
0
VERTEX
8
WATERMARK
10
-22.07578
20
1.61175
30
0
0
VERTEX
8
WATERMARK
10
-22.05295
20
1.67691
30
0
0
VERTEX
8
WATERMARK
10
-22.04353
20
1.73269
30
0
0
VERTEX
8
WATERMARK
10
-22.03946
20
1.7356
30
0
0
VERTEX
8
WATERMARK
10
-22.03491
20
1.73354
30
0
0
VERTEX
8
WATERMARK
10
-21.03496
20
0.00129
30
0
0
VERTEX
8
WATERMARK
10
-21.03496
20
-0.00129
30
0
0
VERTEX
8
WATERMARK
10
-22.9974
20
-3.39933
30
0
0
SEQEND
8
WATERMARK
0
POLYLINE
8
WATERMARK
66
1
70
1
0
VERTEX
8
WATERMARK
10
-9.84199
20
0.90424
30
0
0
VERTEX
8
WATERMARK
10
-9.78502
20
0.9169
30
0
0
VERTEX
8
WATERMARK
10
-9.73051
20
0.9377
30
0
0
VERTEX
8
WATERMARK
10
-9.6796
20
0.96622
30
0
0
VERTEX
8
WATERMARK
10
-9.63338
20
1.00183
30
0
0
VERTEX
8
WATERMARK
10
-9.59277
20
1.04386
30
0
0
VERTEX
8
WATERMARK
10
-9.15278
20
1.57185
30
0
0
VERTEX
8
WATERMARK
10
-9.11321
20
1.62871
30
0
0
VERTEX
8
WATERMARK
10
-9.08398
20
1.69163
30
0
0
VERTEX
8
WATERMARK
10
-9.06607
20
1.75867
30
0
0
VERTEX
8
WATERMARK
10
-9.06001
20
1.82789
30
0
0
VERTEX
8
WATERMARK
10
-9.06
20
3.69989
30
0
0
VERTEX
8
WATERMARK
10
-9.06606
20
3.76924
30
0
0
VERTEX
8
WATERMARK
10
-9.08407
20
3.8366
30
0
0
VERTEX
8
WATERMARK
10
-9.1135
20
3.8998
30
0
0
VERTEX
8
WATERMARK
10
-9.15346
20
3.95694
30
0
0
VERTEX
8
WATERMARK
10
-9.20273
20
4.00626
30
0
0
VERTEX
8
WATERMARK
10
-9.25982
20
4.04628
30
0
0
VERTEX
8
WATERMARK
10
-9.32299
20
4.07578
30
0
0
VERTEX
8
WATERMARK
10
-9.39033
20
4.09387
30
0
0
VERTEX
8
WATERMARK
10
-9.45978
20
4.09998
30
0
0
VERTEX
8
WATERMARK
10
-9.52924
20
4.09394
30
0
0
VERTEX
8
WATERMARK
10
-9.5966
20
4.07593
30
0
0
VERTEX
8
WATERMARK
10
-9.6598
20
4.0465
30
0
0
VERTEX
8
WATERMARK
10
-9.71694
20
4.00654
30
0
0
VERTEX
8
WATERMARK
10
-9.76626
20
3.95727
30
0
0
VERTEX
8
WATERMARK
10
-9.80628
20
3.90018
30
0
0
VERTEX
8
WATERMARK
10
-9.83578
20
3.83701
30
0
0
VERTEX
8
WATERMARK
10
-9.85387
20
3.76967
30
0
0
VERTEX
8
WATERMARK
10
-9.85999
20
3.70011
30
0
0
VERTEX
8
WATERMARK
10
-9.86017
20
1.97334
30
0
0
VERTEX
8
WATERMARK
10
-10.08681
20
1.70091
30
0
0
VERTEX
8
WATERMARK
10
-10.8316
20
1.70017
30
0
0
VERTEX
8
WATERMARK
10
-11.05954
20
1.97253
30
0
0
VERTEX
8
WATERMARK
10
-11.06001
20
3.70011
30
0
0
VERTEX
8
WATERMARK
10
-11.06613
20
3.76967
30
0
0
VERTEX
8
WATERMARK
10
-11.08407
20
3.8366
30
0
0
VERTEX
8
WATERMARK
10
-11.1135
20
3.8998
30
0
0
VERTEX
8
WATERMARK
10
-11.15346
20
3.95694
30
0
0
VERTEX
8
WATERMARK
10
-11.20273
20
4.00626
30
0
0
VERTEX
8
WATERMARK
10
-11.25982
20
4.04628
30
0
0
VERTEX
8
WATERMARK
10
-11.32299
20
4.07578
30
0
0
VERTEX
8
WATERMARK
10
-11.39033
20
4.09387
30
0
0
VERTEX
8
WATERMARK
10
-11.45978
20
4.09998
30
0
0
VERTEX
8
WATERMARK
10
-11.52924
20
4.09394
30
0
0
VERTEX
8
WATERMARK
10
-11.5966
20
4.07593
30
0
0
VERTEX
8
WATERMARK
10
-11.6598
20
4.0465
30
0
0
VERTEX
8
WATERMARK
10
-11.71694
20
4.00654
30
0
0
VERTEX
8
WATERMARK
10
-11.76626
20
3.95727
30
0
0
VERTEX
8
WATERMARK
10
-11.80628
20
3.90018
30
0
0
VERTEX
8
WATERMARK
10
-11.83578
20
3.83701
30
0
0
VERTEX
8
WATERMARK
10
-11.85387
20
3.76967
30
0
0
VERTEX
8
WATERMARK
10
-11.85999
20
3.70011
30
0
0
VERTEX
8
WATERMARK
10
-11.86
20
1.82811
30
0
0
VERTEX
8
WATERMARK
10
-11.854
20
1.75909
30
0
0
VERTEX
8
WATERMARK
10
-11.83616
20
1.69204
30
0
0
VERTEX
8
WATERMARK
10
-11.80701
20
1.62908
30
0
0
VERTEX
8
WATERMARK
10
-11.76735
20
1.57202
30
0
0
VERTEX
8
WATERMARK
10
-11.32735
20
1.044
30
0
0
VERTEX
8
WATERMARK
10
-11.28689
20
1.00208
30
0
0
VERTEX
8
WATERMARK
10
-11.24071
20
0.96642
30
0
0
VERTEX
8
WATERMARK
10
-11.18982
20
0.93785
30
0
0
VERTEX
8
WATERMARK
10
-11.13533
20
0.917
30
0
0
VERTEX
8
WATERMARK
10
-11.07838
20
0.9043
30
0
0
VERTEX
8
WATERMARK
10
-11.02009
20
0.90001
30
0
0
VERTEX
8
WATERMARK
10
-9.90009
20
0.9
30
0
0
SEQEND
8
WATERMARK
0
POLYLINE
8
WATERMARK
66
1
70
1
0
VERTEX
8
WATERMARK
10
1.05276
20
-3.59503
30
0
0
VERTEX
8
WATERMARK
10
1.11379
20
-3.58035
30
0
0
VERTEX
8
WATERMARK
10
1.17141
20
-3.55648
30
0
0
VERTEX
8
WATERMARK
10
1.22495
20
-3.52371
30
0
0
VERTEX
8
WATERMARK
10
1.27269
20
-3.48297
30
0
0
VERTEX
8
WATERMARK
10
1.31348
20
-3.43526
30
0
0
VERTEX
8
WATERMARK
10
1.3463
20
-3.38176
30
0
0
VERTEX
8
WATERMARK
10
1.37035
20
-3.32379
30
0
0
VERTEX
8
WATERMARK
10
1.38503
20
-3.26276
30
0
0
VERTEX
8
WATERMARK
10
1.38999
20
-3.2001
30
0
0
VERTEX
8
WATERMARK
10
1.39
20
3.19989
30
0
0
VERTEX
8
WATERMARK
10
1.38394
20
3.26924
30
0
0
VERTEX
8
WATERMARK
10
1.36593
20
3.3366
30
0
0
VERTEX
8
WATERMARK
10
1.3365
20
3.3998
30
0
0
VERTEX
8
WATERMARK
10
1.29654
20
3.45694
30
0
0
VERTEX
8
WATERMARK
10
1.24727
20
3.50626
30
0
0
VERTEX
8
WATERMARK
10
1.19018
20
3.54628
30
0
0
VERTEX
8
WATERMARK
10
1.12701
20
3.57578
30
0
0
VERTEX
8
WATERMARK
10
1.05967
20
3.59387
30
0
0
VERTEX
8
WATERMARK
10
0.99022
20
3.59998
30
0
0
VERTEX
8
WATERMARK
10
0.92076
20
3.59394
30
0
0
VERTEX
8
WATERMARK
10
0.8534
20
3.57593
30
0
0
VERTEX
8
WATERMARK
10
0.7902
20
3.5465
30
0
0
VERTEX
8
WATERMARK
10
0.73306
20
3.50654
30
0
0
VERTEX
8
WATERMARK
10
0.68374
20
3.45727
30
0
0
VERTEX
8
WATERMARK
10
0.64372
20
3.40018
30
0
0
VERTEX
8
WATERMARK
10
0.61422
20
3.33701
30
0
0
VERTEX
8
WATERMARK
10
0.59613
20
3.26967
30
0
0
VERTEX
8
WATERMARK
10
0.59001
20
3.20011
30
0
0
VERTEX
8
WATERMARK
10
0.59
20
-3.19989
30
0
0
VERTEX
8
WATERMARK
10
0.59606
20
-3.26924
30
0
0
VERTEX
8
WATERMARK
10
0.61407
20
-3.3366
30
0
0
VERTEX
8
WATERMARK
10
0.6435
20
-3.3998
30
0
0
VERTEX
8
WATERMARK
10
0.68346
20
-3.45694
30
0
0
VERTEX
8
WATERMARK
10
0.73273
20
-3.50626
30
0
0
VERTEX
8
WATERMARK
10
0.78982
20
-3.54628
30
0
0
VERTEX
8
WATERMARK
10
0.85299
20
-3.57578
30
0
0
VERTEX
8
WATERMARK
10
0.92033
20
-3.59387
30
0
0
VERTEX
8
WATERMARK
10
0.98979
20
-3.59998
30
0
0
SEQEND
8
WATERMARK
0
POLYLINE
8
WATERMARK
66
1
70
1
0
VERTEX
8
WATERMARK
10
3.61027
20
-1.89411
30
0
0
VERTEX
8
WATERMARK
10
3.67674
20
-1.8766
30
0
0
VERTEX
8
WATERMARK
10
3.73923
20
-1.84797
30
0
0
VERTEX
8
WATERMARK
10
3.79589
20
-1.80907
30
0
0
VERTEX
8
WATERMARK
10
3.84506
20
-1.76104
30
0
0
VERTEX
8
WATERMARK
10
3.88534
20
-1.70521
30
0
0
VERTEX
8
WATERMARK
10
4.33336
20
-0.95519
30
0
0
VERTEX
8
WATERMARK
10
4.35775
20
-0.90733
30
0
0
VERTEX
8
WATERMARK
10
4.37553
20
-0.85655
30
0
0
VERTEX
8
WATERMARK
10
4.38635
20
-0.80385
30
0
0
VERTEX
8
WATERMARK
10
4.38999
20
-0.75008
30
0
0
VERTEX
8
WATERMARK
10
4.39
20
1.49989
30
0
0
VERTEX
8
WATERMARK
10
4.38394
20
1.56924
30
0
0
VERTEX
8
WATERMARK
10
4.36593
20
1.6366
30
0
0
VERTEX
8
WATERMARK
10
4.3365
20
1.6998
30
0
0
VERTEX
8
WATERMARK
10
4.29654
20
1.75694
30
0
0
VERTEX
8
WATERMARK
10
4.24727
20
1.80626
30
0
0
VERTEX
8
WATERMARK
10
4.19018
20
1.84628
30
0
0
VERTEX
8
WATERMARK
10
4.12701
20
1.87578
30
0
0
VERTEX
8
WATERMARK
10
4.05967
20
1.89387
30
0
0
VERTEX
8
WATERMARK
10
3.99011
20
1.89999
30
0
0
VERTEX
8
WATERMARK
10
2.39011
20
1.9
30
0
0
VERTEX
8
WATERMARK
10
2.32076
20
1.89394
30
0
0
VERTEX
8
WATERMARK
10
2.2534
20
1.87593
30
0
0
VERTEX
8
WATERMARK
10
2.1902
20
1.8465
30
0
0
VERTEX
8
WATERMARK
10
2.13306
20
1.80654
30
0
0
VERTEX
8
WATERMARK
10
2.08374
20
1.75727
30
0
0
VERTEX
8
WATERMARK
10
2.04372
20
1.70018
30
0
0
VERTEX
8
WATERMARK
10
2.01422
20
1.63701
30
0
0
VERTEX
8
WATERMARK
10
1.99613
20
1.56967
30
0
0
VERTEX
8
WATERMARK
10
1.99002
20
1.50022
30
0
0
VERTEX
8
WATERMARK
10
1.99606
20
1.43076
30
0
0
VERTEX
8
WATERMARK
10
2.01407
20
1.3634
30
0
0
VERTEX
8
WATERMARK
10
2.0435
20
1.3002
30
0
0
VERTEX
8
WATERMARK
10
2.08346
20
1.24306
30
0
0
VERTEX
8
WATERMARK
10
2.13273
20
1.19374
30
0
0
VERTEX
8
WATERMARK
10
2.18982
20
1.15372
30
0
0
VERTEX
8
WATERMARK
10
2.25299
20
1.12422
30
0
0
VERTEX
8
WATERMARK
10
2.32033
20
1.10613
30
0
0
VERTEX
8
WATERMARK
10
2.38989
20
1.10001
30
0
0
VERTEX
8
WATERMARK
10
3.58629
20
1.09983
30
0
0
VERTEX
8
WATERMARK
10
3.58983
20
1.09629
30
0
0
VERTEX
8
WATERMARK
10
3.58933
20
-0.64075
30
0
0
VERTEX
8
WATERMARK
10
3.31566
20
-1.09859
30
0
0
VERTEX
8
WATERMARK
10
3.31339
20
-1.09985
30
0
0
VERTEX
8
WATERMARK
10
3.04442
20
-1.09983
30
0
0
VERTEX
8
WATERMARK
10
3.04218
20
-1.09854
30
0
0
VERTEX
8
WATERMARK
10
2.75108
20
-0.48794
30
0
0
VERTEX
8
WATERMARK
10
2.7159
20
-0.42812
30
0
0
VERTEX
8
WATERMARK
10
2.67068
20
-0.37505
30
0
0
VERTEX
8
WATERMARK
10
2.61694
20
-0.33064
30
0
0
VERTEX
8
WATERMARK
10
2.5563
20
-0.29624
30
0
0
VERTEX
8
WATERMARK
10
2.4906
20
-0.27289
30
0
0
VERTEX
8
WATERMARK
10
2.42185
20
-0.2613
30
0
0
VERTEX
8
WATERMARK
10
2.35214
20
-0.26182
30
0
0
VERTEX
8
WATERMARK
10
2.28357
20
-0.27445
30
0
0
VERTEX
8
WATERMARK
10
2.21823
20
-0.29878
30
0
0
VERTEX
8
WATERMARK
10
2.15812
20
-0.3341
30
0
0
VERTEX
8
WATERMARK
10
2.10505
20
-0.37932
30
0
0
VERTEX
8
WATERMARK
10
2.06064
20
-0.43306
30
0
0
VERTEX
8
WATERMARK
10
2.02624
20
-0.4937
30
0
0
VERTEX
8
WATERMARK
10
2.00289
20
-0.5594
30
0
0
VERTEX
8
WATERMARK
10
1.9913
20
-0.62815
30
0
0
VERTEX
8
WATERMARK
10
1.99182
20
-0.69786
30
0
0
VERTEX
8
WATERMARK
10
2.00445
20
-0.76643
30
0
0
VERTEX
8
WATERMARK
10
2.02882
20
-0.83187
30
0
0
VERTEX
8
WATERMARK
10
2.42882
20
-1.67188
30
0
0
VERTEX
8
WATERMARK
10
2.46098
20
-1.72744
30
0
0
VERTEX
8
WATERMARK
10
2.50167
20
-1.77721
30
0
0
VERTEX
8
WATERMARK
10
2.54981
20
-1.81983
30
0
0
VERTEX
8
WATERMARK
10
2.60415
20
-1.85418
30
0
0
VERTEX
8
WATERMARK
10
2.6633
20
-1.87938
30
0
0
VERTEX
8
WATERMARK
10
2.72572
20
-1.89478
30
0
0
VERTEX
8
WATERMARK
10
2.7899
20
-1.89999
30
0
0
VERTEX
8
WATERMARK
10
3.54189
20
-1.9
30
0
0
SEQEND
8
WATERMARK
0
POLYLINE
8
WATERMARK
66
1
70
1
0
VERTEX
8
WATERMARK
10
6.69932
20
-1.89526
30
0
0
VERTEX
8
WATERMARK
10
6.75938
20
-1.88112
30
0
0
VERTEX
8
WATERMARK
10
6.81655
20
-1.85792
30
0
0
VERTEX
8
WATERMARK
10
6.86947
20
-1.8262
30
0
0
VERTEX
8
WATERMARK
10
6.91689
20
-1.78673
30
0
0
VERTEX
8
WATERMARK
10
6.95766
20
-1.74042
30
0
0
VERTEX
8
WATERMARK
10
6.99089
20
-1.68832
30
0
0
VERTEX
8
WATERMARK
10
7.3429
20
-1.02832
30
0
0
VERTEX
8
WATERMARK
10
7.36671
20
-0.97447
30
0
0
VERTEX
8
WATERMARK
10
7.38238
20
-0.91763
30
0
0
VERTEX
8
WATERMARK
10
7.38953
20
-0.85909
30
0
0
VERTEX
8
WATERMARK
10
7.388
20
-0.80014
30
0
0
VERTEX
8
WATERMARK
10
7.37781
20
-0.74206
30
0
0
VERTEX
8
WATERMARK
10
7.35917
20
-0.68602
30
0
0
VERTEX
8
WATERMARK
10
7.07118
20
0.00398
30
0
0
VERTEX
8
WATERMARK
10
7.04439
20
0.05679
30
0
0
VERTEX
8
WATERMARK
10
7.01005
20
0.10514
30
0
0
VERTEX
8
WATERMARK
10
6.96894
20
0.14789
30
0
0
VERTEX
8
WATERMARK
10
6.92196
20
0.18408
30
0
0
VERTEX
8
WATERMARK
10
6.87014
20
0.21293
30
0
0
VERTEX
8
WATERMARK
10
6.81455
20
0.23384
30
0
0
VERTEX
8
WATERMARK
10
5.97472
20
0.48007
30
0
0
VERTEX
8
WATERMARK
10
5.83275
20
0.81815
30
0
0
VERTEX
8
WATERMARK
10
5.98135
20
1.09841
30
0
0
VERTEX
8
WATERMARK
10
5.98354
20
1.09978
30
0
0
VERTEX
8
WATERMARK
10
6.40073
20
1.09983
30
0
0
VERTEX
8
WATERMARK
10
6.73953
20
0.82814
30
0
0
VERTEX
8
WATERMARK
10
6.79759
20
0.78934
30
0
0
VERTEX
8
WATERMARK
10
6.8614
20
0.76126
30
0
0
VERTEX
8
WATERMARK
10
6.92913
20
0.74468
30
0
0
VERTEX
8
WATERMARK
10
6.99826
20
0.74011
30
0
0
VERTEX
8
WATERMARK
10
7.06758
20
0.74762
30
0
0
VERTEX
8
WATERMARK
10
7.13454
20
0.76705
30
0
0
VERTEX
8
WATERMARK
10
7.1971
20
0.79781
30
0
0
VERTEX
8
WATERMARK
10
7.25338
20
0.83897
30
0
0
VERTEX
8
WATERMARK
10
7.30165
20
0.88928
30
0
0
VERTEX
8
WATERMARK
10
7.34045
20
0.94721
30
0
0
VERTEX
8
WATERMARK
10
7.3686
20
1.01099
30
0
0
VERTEX
8
WATERMARK
10
7.38525
20
1.0787
30
0
0
VERTEX
8
WATERMARK
10
7.38989
20
1.14826
30
0
0
VERTEX
8
WATERMARK
10
7.38238
20
1.21758
30
0
0
VERTEX
8
WATERMARK
10
7.36295
20
1.28454
30
0
0
VERTEX
8
WATERMARK
10
7.33219
20
1.3471
30
0
0
VERTEX
8
WATERMARK
10
7.29103
20
1.40338
30
0
0
VERTEX
8
WATERMARK
10
7.24064
20
1.45172
30
0
0
VERTEX
8
WATERMARK
10
6.79264
20
1.81173
30
0
0
VERTEX
8
WATERMARK
10
6.73664
20
1.84943
30
0
0
VERTEX
8
WATERMARK
10
6.67501
20
1.87722
30
0
0
VERTEX
8
WATERMARK
10
6.60957
20
1.89423
30
0
0
VERTEX
8
WATERMARK
10
6.54211
20
1.89999
30
0
0
VERTEX
8
WATERMARK
10
5.7421
20
1.9
30
0
0
VERTEX
8
WATERMARK
10
5.68068
20
1.89526
30
0
0
VERTEX
8
WATERMARK
10
5.62062
20
1.88112
30
0
0
VERTEX
8
WATERMARK
10
5.56345
20
1.85792
30
0
0
VERTEX
8
WATERMARK
10
5.51053
20
1.8262
30
0
0
VERTEX
8
WATERMARK
10
5.46311
20
1.78673
30
0
0
VERTEX
8
WATERMARK
10
5.42234
20
1.74042
30
0
0
VERTEX
8
WATERMARK
10
5.38911
20
1.68832
30
0
0
VERTEX
8
WATERMARK
10
5.0371
20
1.02832
30
0
0
VERTEX
8
WATERMARK
10
5.01329
20
0.97447
30
0
0
VERTEX
8
WATERMARK
10
4.99762
20
0.91763
30
0
0
VERTEX
8
WATERMARK
10
4.99047
20
0.85909
30
0
0
VERTEX
8
WATERMARK
10
4.992
20
0.80014
30
0
0
VERTEX
8
WATERMARK
10
5.00219
20
0.74206
30
0
0
VERTEX
8
WATERMARK
10
5.02083
20
0.68602
30
0
0
VERTEX
8
WATERMARK
10
5.30882
20
-0.00398
30
0
0
VERTEX
8
WATERMARK
10
5.33561
20
-0.05679
30
0
0
VERTEX
8
WATERMARK
10
5.36995
20
-0.10514
30
0
0
VERTEX
8
WATERMARK
10
5.41106
20
-0.14789
30
0
0
VERTEX
8
WATERMARK
10
5.45804
20
-0.18408
30
0
0
VERTEX
8
WATERMARK
10
5.50986
20
-0.21293
30
0
0
VERTEX
8
WATERMARK
10
5.56545
20
-0.23384
30
0
0
VERTEX
8
WATERMARK
10
6.40528
20
-0.48007
30
0
0
VERTEX
8
WATERMARK
10
6.54725
20
-0.81815
30
0
0
VERTEX
8
WATERMARK
10
6.39865
20
-1.09841
30
0
0
VERTEX
8
WATERMARK
10
6.39646
20
-1.09978
30
0
0
VERTEX
8
WATERMARK
10
5.91113
20
-1.09983
30
0
0
VERTEX
8
WATERMARK
10
5.67607
20
-0.86042
30
0
0
VERTEX
8
WATERMARK
10
5.62888
20
-0.81918
30
0
0
VERTEX
8
WATERMARK
10
5.57575
20
-0.78576
30
0
0
VERTEX
8
WATERMARK
10
5.51805
20
-0.76107
30
0
0
VERTEX
8
WATERMARK
10
5.4572
20
-0.7457
30
0
0
VERTEX
8
WATERMARK
10
5.39469
20
-0.74004
30
0
0
VERTEX
8
WATERMARK
10
5.33206
20
-0.74423
30
0
0
VERTEX
8
WATERMARK
10
5.27086
20
-0.75817
30
0
0
VERTEX
8
WATERMARK
10
5.2126
20
-0.78151
30
0
0
VERTEX
8
WATERMARK
10
5.1587
20
-0.81367
30
0
0
VERTEX
8
WATERMARK
10
5.1105
20
-0.85387
30
0
0
VERTEX
8
WATERMARK
10
5.06918
20
-0.90112
30
0
0
VERTEX
8
WATERMARK
10
5.03576
20
-0.95425
30
0
0
VERTEX
8
WATERMARK
10
5.01107
20
-1.01195
30
0
0
VERTEX
8
WATERMARK
10
4.9957
20
-1.0728
30
0
0
VERTEX
8
WATERMARK
10
4.99004
20
-1.13531
30
0
0
VERTEX
8
WATERMARK
10
4.99423
20
-1.19794
30
0
0
VERTEX
8
WATERMARK
10
5.00817
20
-1.25914
30
0
0
VERTEX
8
WATERMARK
10
5.03151
20
-1.3174
30
0
0
VERTEX
8
WATERMARK
10
5.06367
20
-1.3713
30
0
0
VERTEX
8
WATERMARK
10
5.10394
20
-1.41957
30
0
0
VERTEX
8
WATERMARK
10
5.45593
20
-1.77958
30
0
0
VERTEX
8
WATERMARK
10
5.50384
20
-1.82135
30
0
0
VERTEX
8
WATERMARK
10
5.55784
20
-1.85507
30
0
0
VERTEX
8
WATERMARK
10
5.6165
20
-1.87979
30
0
0
VERTEX
8
WATERMARK
10
5.67835
20
-1.89489
30
0
0
VERTEX
8
WATERMARK
10
5.7419
20
-1.89999
30
0
0
VERTEX
8
WATERMARK
10
6.6379
20
-1.9
30
0
0
SEQEND
8
WATERMARK
0
POLYLINE
8
WATERMARK
66
1
70
1
0
VERTEX
8
WATERMARK
10
10.05238
20
-1.89509
30
0
0
VERTEX
8
WATERMARK
10
10.11342
20
-1.88047
30
0
0
VERTEX
8
WATERMARK
10
10.17141
20
-1.85648
30
0
0
VERTEX
8
WATERMARK
10
10.22495
20
-1.82371
30
0
0
VERTEX
8
WATERMARK
10
10.27269
20
-1.78297
30
0
0
VERTEX
8
WATERMARK
10
10.31348
20
-1.73526
30
0
0
VERTEX
8
WATERMARK
10
10.3463
20
-1.68176
30
0
0
VERTEX
8
WATERMARK
10
10.37035
20
-1.62379
30
0
0
VERTEX
8
WATERMARK
10
10.38503
20
-1.56276
30
0
0
VERTEX
8
WATERMARK
10
10.38998
20
-1.5002
30
0
0
VERTEX
8
WATERMARK
10
10.38509
20
-1.43762
30
0
0
VERTEX
8
WATERMARK
10
10.37047
20
-1.37658
30
0
0
VERTEX
8
WATERMARK
10
10.34648
20
-1.31859
30
0
0
VERTEX
8
WATERMARK
10
10.31371
20
-1.26505
30
0
0
VERTEX
8
WATERMARK
10
10.27297
20
-1.21731
30
0
0
VERTEX
8
WATERMARK
10
10.22526
20
-1.17652
30
0
0
VERTEX
8
WATERMARK
10
10.17176
20
-1.1437
30
0
0
VERTEX
8
WATERMARK
10
10.11379
20
-1.11965
30
0
0
VERTEX
8
WATERMARK
10
10.05276
20
-1.10497
30
0
0
VERTEX
8
WATERMARK
10
9.9901
20
-1.10001
30
0
0
VERTEX
8
WATERMARK
10
9.59371
20
-1.09983
30
0
0
VERTEX
8
WATERMARK
10
9.59017
20
-1.09629
30
0
0
VERTEX
8
WATERMARK
10
9.59017
20
1.09629
30
0
0
VERTEX
8
WATERMARK
10
9.59371
20
1.09983
30
0
0
VERTEX
8
WATERMARK
10
9.9901
20
1.10001
30
0
0
VERTEX
8
WATERMARK
10
10.05276
20
1.10497
30
0
0
VERTEX
8
WATERMARK
10
10.11342
20
1.11953
30
0
0
VERTEX
8
WATERMARK
10
10.17141
20
1.14352
30
0
0
VERTEX
8
WATERMARK
10
10.22495
20
1.17629
30
0
0
VERTEX
8
WATERMARK
10
10.27269
20
1.21703
30
0
0
VERTEX
8
WATERMARK
10
10.31348
20
1.26474
30
0
0
VERTEX
8
WATERMARK
10
10.3463
20
1.31824
30
0
0
VERTEX
8
WATERMARK
10
10.37035
20
1.37621
30
0
0
VERTEX
8
WATERMARK
10
10.38503
20
1.43724
30
0
0
VERTEX
8
WATERMARK
10
10.38998
20
1.4998
30
0
0
VERTEX
8
WATERMARK
10
10.38509
20
1.56238
30
0
0
VERTEX
8
WATERMARK
10
10.37047
20
1.62342
30
0
0
VERTEX
8
WATERMARK
10
10.34648
20
1.68141
30
0
0
VERTEX
8
WATERMARK
10
10.31371
20
1.73495
30
0
0
VERTEX
8
WATERMARK
10
10.27297
20
1.78269
30
0
0
VERTEX
8
WATERMARK
10
10.22526
20
1.82348
30
0
0
VERTEX
8
WATERMARK
10
10.17176
20
1.8563
30
0
0
VERTEX
8
WATERMARK
10
10.11379
20
1.88035
30
0
0
VERTEX
8
WATERMARK
10
10.05276
20
1.89503
30
0
0
VERTEX
8
WATERMARK
10
9.9901
20
1.89999
30
0
0
VERTEX
8
WATERMARK
10
8.3901
20
1.9
30
0
0
VERTEX
8
WATERMARK
10
8.32762
20
1.89509
30
0
0
VERTEX
8
WATERMARK
10
8.26658
20
1.88047
30
0
0
VERTEX
8
WATERMARK
10
8.20859
20
1.85648
30
0
0
VERTEX
8
WATERMARK
10
8.15505
20
1.82371
30
0
0
VERTEX
8
WATERMARK
10
8.10731
20
1.78297
30
0
0
VERTEX
8
WATERMARK
10
8.06652
20
1.73526
30
0
0
VERTEX
8
WATERMARK
10
8.0337
20
1.68176
30
0
0
VERTEX
8
WATERMARK
10
8.00965
20
1.62379
30
0
0
VERTEX
8
WATERMARK
10
7.99497
20
1.56276
30
0
0
VERTEX
8
WATERMARK
10
7.99002
20
1.5002
30
0
0
VERTEX
8
WATERMARK
10
7.99491
20
1.43762
30
0
0
VERTEX
8
WATERMARK
10
8.00953
20
1.37658
30
0
0
VERTEX
8
WATERMARK
10
8.03352
20
1.31859
30
0
0
VERTEX
8
WATERMARK
10
8.06629
20
1.26505
30
0
0
VERTEX
8
WATERMARK
10
8.10703
20
1.21731
30
0
0
VERTEX
8
WATERMARK
10
8.15474
20
1.17652
30
0
0
VERTEX
8
WATERMARK
10
8.20824
20
1.1437
30
0
0
VERTEX
8
WATERMARK
10
8.26621
20
1.11965
30
0
0
VERTEX
8
WATERMARK
10
8.32724
20
1.10497
30
0
0
VERTEX
8
WATERMARK
10
8.3899
20
1.10001
30
0
0
VERTEX
8
WATERMARK
10
8.78629
20
1.09983
30
0
0
VERTEX
8
WATERMARK
10
8.78983
20
1.09629
30
0
0
VERTEX
8
WATERMARK
10
8.78933
20
-1.0975
30
0
0
VERTEX
8
WATERMARK
10
8.7875
20
-1.09933
30
0
0
VERTEX
8
WATERMARK
10
8.3899
20
-1.10001
30
0
0
VERTEX
8
WATERMARK
10
8.32724
20
-1.10497
30
0
0
VERTEX
8
WATERMARK
10
8.26658
20
-1.11953
30
0
0
VERTEX
8
WATERMARK
10
8.20859
20
-1.14352
30
0
0
VERTEX
8
WATERMARK
10
8.15505
20
-1.17629
30
0
0
VERTEX
8
WATERMARK
10
8.10731
20
-1.21703
30
0
0
VERTEX
8
WATERMARK
10
8.06652
20
-1.26474
30
0
0
VERTEX
8
WATERMARK
10
8.0337
20
-1.31824
30
0
0
VERTEX
8
WATERMARK
10
8.00965
20
-1.37621
30
0
0
VERTEX
8
WATERMARK
10
7.99497
20
-1.43724
30
0
0
VERTEX
8
WATERMARK
10
7.99002
20
-1.4998
30
0
0
VERTEX
8
WATERMARK
10
7.99491
20
-1.56238
30
0
0
VERTEX
8
WATERMARK
10
8.00953
20
-1.62342
30
0
0
VERTEX
8
WATERMARK
10
8.03352
20
-1.68141
30
0
0
VERTEX
8
WATERMARK
10
8.06629
20
-1.73495
30
0
0
VERTEX
8
WATERMARK
10
8.10703
20
-1.78269
30
0
0
VERTEX
8
WATERMARK
10
8.15474
20
-1.82348
30
0
0
VERTEX
8
WATERMARK
10
8.20824
20
-1.8563
30
0
0
VERTEX
8
WATERMARK
10
8.26621
20
-1.88035
30
0
0
VERTEX
8
WATERMARK
10
8.32724
20
-1.89503
30
0
0
VERTEX
8
WATERMARK
10
8.3899
20
-1.89999
30
0
0
VERTEX
8
WATERMARK
10
9.9899
20
-1.9
30
0
0
SEQEND
8
WATERMARK
0
POLYLINE
8
WATERMARK
66
1
70
1
0
VERTEX
8
WATERMARK
10
16.05238
20
-1.89509
30
0
0
VERTEX
8
WATERMARK
10
16.11342
20
-1.88047
30
0
0
VERTEX
8
WATERMARK
10
16.17141
20
-1.85648
30
0
0
VERTEX
8
WATERMARK
10
16.22495
20
-1.82371
30
0
0
VERTEX
8
WATERMARK
10
16.27269
20
-1.78297
30
0
0
VERTEX
8
WATERMARK
10
16.31348
20
-1.73526
30
0
0
VERTEX
8
WATERMARK
10
16.3463
20
-1.68176
30
0
0
VERTEX
8
WATERMARK
10
16.37035
20
-1.62379
30
0
0
VERTEX
8
WATERMARK
10
16.38503
20
-1.56276
30
0
0
VERTEX
8
WATERMARK
10
16.38998
20
-1.5002
30
0
0
VERTEX
8
WATERMARK
10
16.38509
20
-1.43762
30
0
0
VERTEX
8
WATERMARK
10
16.37047
20
-1.37658
30
0
0
VERTEX
8
WATERMARK
10
16.34648
20
-1.31859
30
0
0
VERTEX
8
WATERMARK
10
16.31371
20
-1.26505
30
0
0
VERTEX
8
WATERMARK
10
16.27297
20
-1.21731
30
0
0
VERTEX
8
WATERMARK
10
16.22526
20
-1.17652
30
0
0
VERTEX
8
WATERMARK
10
16.17176
20
-1.1437
30
0
0
VERTEX
8
WATERMARK
10
16.11379
20
-1.11965
30
0
0
VERTEX
8
WATERMARK
10
16.05276
20
-1.10497
30
0
0
VERTEX
8
WATERMARK
10
15.9901
20
-1.10001
30
0
0
VERTEX
8
WATERMARK
10
15.31132
20
-1.09983
30
0
0
VERTEX
8
WATERMARK
10
15.30778
20
-1.09629
30
0
0
VERTEX
8
WATERMARK
10
15.30778
20
-1.09371
30
0
0
VERTEX
8
WATERMARK
10
16.2845
20
-0.03068
30
0
0
VERTEX
8
WATERMARK
10
16.3214
20
0.01602
30
0
0
VERTEX
8
WATERMARK
10
16.35092
20
0.06759
30
0
0
VERTEX
8
WATERMARK
10
16.37248
20
0.12297
30
0
0
VERTEX
8
WATERMARK
10
16.3856
20
0.18092
30
0
0
VERTEX
8
WATERMARK
10
16.39
20
0.24009
30
0
0
VERTEX
8
WATERMARK
10
16.39
20
0.83991
30
0
0
VERTEX
8
WATERMARK
10
16.3855
20
0.89978
30
0
0
VERTEX
8
WATERMARK
10
16.37206
20
0.95839
30
0
0
VERTEX
8
WATERMARK
10
16.34996
20
1.01442
30
0
0
VERTEX
8
WATERMARK
10
16.02997
20
1.67442
30
0
0
VERTEX
8
WATERMARK
10
15.99765
20
1.72942
30
0
0
VERTEX
8
WATERMARK
10
15.95694
20
1.77866
30
0
0
VERTEX
8
WATERMARK
10
15.90891
20
1.8208
30
0
0
VERTEX
8
WATERMARK
10
15.85478
20
1.85475
30
0
0
VERTEX
8
WATERMARK
10
15.79594
20
1.87964
30
0
0
VERTEX
8
WATERMARK
10
15.73389
20
1.89485
30
0
0
VERTEX
8
WATERMARK
10
15.6701
20
1.89999
30
0
0
VERTEX
8
WATERMARK
10
14.7101
20
1.9
30
0
0
VERTEX
8
WATERMARK
10
14.64651
20
1.89491
30
0
0
VERTEX
8
WATERMARK
10
14.58444
20
1.87977
30
0
0
VERTEX
8
WATERMARK
10
14.52557
20
1.85493
30
0
0
VERTEX
8
WATERMARK
10
14.47141
20
1.82104
30
0
0
VERTEX
8
WATERMARK
10
14.42334
20
1.77895
30
0
0
VERTEX
8
WATERMARK
10
14.38258
20
1.72975
30
0
0
VERTEX
8
WATERMARK
10
14.35012
20
1.6746
30
0
0
VERTEX
8
WATERMARK
10
14.03011
20
1.0146
30
0
0
VERTEX
8
WATERMARK
10
14.00727
20
0.95624
30
0
0
VERTEX
8
WATERMARK
10
13.9938
20
0.89494
30
0
0
VERTEX
8
WATERMARK
10
13.99008
20
0.83228
30
0
0
VERTEX
8
WATERMARK
10
13.99622
20
0.76982
30
0
0
VERTEX
8
WATERMARK
10
14.01204
20
0.70908
30
0
0
VERTEX
8
WATERMARK
10
14.03718
20
0.65156
30
0
0
VERTEX
8
WATERMARK
10
14.071
20
0.59869
30
0
0
VERTEX
8
WATERMARK
10
14.11268
20
0.55176
30
0
0
VERTEX
8
WATERMARK
10
14.16118
20
0.51192
30
0
0
VERTEX
8
WATERMARK
10
14.21532
20
0.48017
30
0
0
VERTEX
8
WATERMARK
10
14.27376
20
0.45727
30
0
0
VERTEX
8
WATERMARK
10
14.33506
20
0.4438
30
0
0
VERTEX
8
WATERMARK
10
14.39772
20
0.44008
30
0
0
VERTEX
8
WATERMARK
10
14.46018
20
0.44622
30
0
0
VERTEX
8
WATERMARK
10
14.52092
20
0.46204
30
0
0
VERTEX
8
WATERMARK
10
14.57844
20
0.48718
30
0
0
VERTEX
8
WATERMARK
10
14.63131
20
0.521
30
0
0
VERTEX
8
WATERMARK
10
14.67824
20
0.56268
30
0
0
VERTEX
8
WATERMARK
10
14.71808
20
0.61118
30
0
0
VERTEX
8
WATERMARK
10
14.74988
20
0.66541
30
0
0
VERTEX
8
WATERMARK
10
14.95995
20
1.09827
30
0
0
VERTEX
8
WATERMARK
10
14.96209
20
1.09972
30
0
0
VERTEX
8
WATERMARK
10
15.41756
20
1.09983
30
0
0
VERTEX
8
WATERMARK
10
15.4198
20
1.09854
30
0
0
VERTEX
8
WATERMARK
10
15.58991
20
0.74793
30
0
0
VERTEX
8
WATERMARK
10
15.58983
20
0.39661
30
0
0
VERTEX
8
WATERMARK
10
14.0955
20
-1.22932
30
0
0
VERTEX
8
WATERMARK
10
14.0586
20
-1.27602
30
0
0
VERTEX
8
WATERMARK
10
14.02924
20
-1.32726
30
0
0
VERTEX
8
WATERMARK
10
14.00763
20
-1.38261
30
0
0
VERTEX
8
WATERMARK
10
13.99446
20
-1.44056
30
0
0
VERTEX
8
WATERMARK
10
13.99001
20
-1.4998
30
0
0
VERTEX
8
WATERMARK
10
13.99545
20
-1.56568
30
0
0
VERTEX
8
WATERMARK
10
14.01165
20
-1.62976
30
0
0
VERTEX
8
WATERMARK
10
14.03819
20
-1.69031
30
0
0
VERTEX
8
WATERMARK
10
14.07434
20
-1.74565
30
0
0
VERTEX
8
WATERMARK
10
14.11912
20
-1.7943
30
0
0
VERTEX
8
WATERMARK
10
14.16571
20
-1.83119
30
0
0
VERTEX
8
WATERMARK
10
14.21726
20
-1.86076
30
0
0
VERTEX
8
WATERMARK
10
14.27261
20
-1.88237
30
0
0
VERTEX
8
WATERMARK
10
14.33056
20
-1.89554
30
0
0
VERTEX
8
WATERMARK
10
14.38991
20
-1.89999
30
0
0
VERTEX
8
WATERMARK
10
15.9899
20
-1.9
30
0
0
SEQEND
8
WATERMARK
0
POLYLINE
8
WATERMARK
66
1
70
1
0
VERTEX
8
WATERMARK
10
18.69932
20
-1.89526
30
0
0
VERTEX
8
WATERMARK
10
18.75938
20
-1.88112
30
0
0
VERTEX
8
WATERMARK
10
18.81655
20
-1.85792
30
0
0
VERTEX
8
WATERMARK
10
18.86947
20
-1.8262
30
0
0
VERTEX
8
WATERMARK
10
18.91689
20
-1.78673
30
0
0
VERTEX
8
WATERMARK
10
18.95766
20
-1.74042
30
0
0
VERTEX
8
WATERMARK
10
18.99089
20
-1.68832
30
0
0
VERTEX
8
WATERMARK
10
19.34289
20
-1.02833
30
0
0
VERTEX
8
WATERMARK
10
19.36833
20
-0.96981
30
0
0
VERTEX
8
WATERMARK
10
19.38418
20
-0.90791
30
0
0
VERTEX
8
WATERMARK
10
19.38996
20
-0.84427
30
0
0
VERTEX
8
WATERMARK
10
19.38554
20
-0.78052
30
0
0
VERTEX
8
WATERMARK
10
19.37099
20
-0.71819
30
0
0
VERTEX
8
WATERMARK
10
19.083
20
0.18182
30
0
0
VERTEX
8
WATERMARK
10
19.05918
20
0.24002
30
0
0
VERTEX
8
WATERMARK
10
19.02649
20
0.29386
30
0
0
VERTEX
8
WATERMARK
10
18.98576
20
0.3419
30
0
0
VERTEX
8
WATERMARK
10
18.93798
20
0.38295
30
0
0
VERTEX
8
WATERMARK
10
18.88436
20
0.416
30
0
0
VERTEX
8
WATERMARK
10
18.82621
20
0.44021
30
0
0
VERTEX
8
WATERMARK
10
18.76499
20
0.45499
30
0
0
VERTEX
8
WATERMARK
10
18.7021
20
0.45999
30
0
0
VERTEX
8
WATERMARK
10
17.79371
20
0.46017
30
0
0
VERTEX
8
WATERMARK
10
17.79017
20
0.46371
30
0
0
VERTEX
8
WATERMARK
10
17.79039
20
0.58051
30
0
0
VERTEX
8
WATERMARK
10
18.00745
20
1.09806
30
0
0
VERTEX
8
WATERMARK
10
18.00951
20
1.09963
30
0
0
VERTEX
8
WATERMARK
10
18.35114
20
1.09983
30
0
0
VERTEX
8
WATERMARK
10
18.55651
20
0.90812
30
0
0
VERTEX
8
WATERMARK
10
18.61144
20
0.86501
30
0
0
VERTEX
8
WATERMARK
10
18.67253
20
0.83232
30
0
0
VERTEX
8
WATERMARK
10
18.73877
20
0.81056
30
0
0
VERTEX
8
WATERMARK
10
18.80778
20
0.80064
30
0
0
VERTEX
8
WATERMARK
10
18.87747
20
0.80285
30
0
0
VERTEX
8
WATERMARK
10
18.94571
20
0.81712
30
0
0
VERTEX
8
WATERMARK
10
19.01044
20
0.84303
30
0
0
VERTEX
8
WATERMARK
10
19.06968
20
0.87979
30
0
0
VERTEX
8
WATERMARK
10
19.12165
20
0.92627
30
0
0
VERTEX
8
WATERMARK
10
19.16475
20
0.98108
30
0
0
VERTEX
8
WATERMARK
10
19.19768
20
1.04253
30
0
0
VERTEX
8
WATERMARK
10
19.21944
20
1.10877
30
0
0
VERTEX
8
WATERMARK
10
19.22936
20
1.17778
30
0
0
VERTEX
8
WATERMARK
10
19.22715
20
1.24747
30
0
0
VERTEX
8
WATERMARK
10
19.21288
20
1.31571
30
0
0
VERTEX
8
WATERMARK
10
19.18697
20
1.38044
30
0
0
VERTEX
8
WATERMARK
10
19.15021
20
1.43968
30
0
0
VERTEX
8
WATERMARK
10
19.10365
20
1.49173
30
0
0
VERTEX
8
WATERMARK
10
18.78365
20
1.79175
30
0
0
VERTEX
8
WATERMARK
10
18.73684
20
1.82944
30
0
0
VERTEX
8
WATERMARK
10
18.68483
20
1.85975
30
0
0
VERTEX
8
WATERMARK
10
18.62887
20
1.88191
30
0
0
VERTEX
8
WATERMARK
10
18.57021
20
1.89543
30
0
0
VERTEX
8
WATERMARK
10
18.51009
20
1.89999
30
0
0
VERTEX
8
WATERMARK
10
17.7421
20
1.9
30
0
0
VERTEX
8
WATERMARK
10
17.67544
20
1.89441
30
0
0
VERTEX
8
WATERMARK
10
17.61053
20
1.87776
30
0
0
VERTEX
8
WATERMARK
10
17.54932
20
1.85051
30
0
0
VERTEX
8
WATERMARK
10
17.49351
20
1.81343
30
0
0
VERTEX
8
WATERMARK
10
17.44468
20
1.76756
30
0
0
VERTEX
8
WATERMARK
10
17.40419
20
1.71417
30
0
0
VERTEX
8
WATERMARK
10
17.37313
20
1.65468
30
0
0
VERTEX
8
WATERMARK
10
17.02111
20
0.81467
30
0
0
VERTEX
8
WATERMARK
10
17.00397
20
0.76474
30
0
0
VERTEX
8
WATERMARK
10
16.99353
20
0.71292
30
0
0
VERTEX
8
WATERMARK
10
16.99001
20
0.66008
30
0
0
VERTEX
8
WATERMARK
10
16.99
20
-0.8999
30
0
0
VERTEX
8
WATERMARK
10
16.99531
20
-0.96484
30
0
0
VERTEX
8
WATERMARK
10
17.0111
20
-1.02815
30
0
0
VERTEX
8
WATERMARK
10
17.03702
20
-1.08815
30
0
0
VERTEX
8
WATERMARK
10
17.35701
20
-1.68815
30
0
0
VERTEX
8
WATERMARK
10
17.3901
20
-1.74012
30
0
0
VERTEX
8
WATERMARK
10
17.43084
20
-1.78646
30
0
0
VERTEX
8
WATERMARK
10
17.47821
20
-1.82598
30
0
0
VERTEX
8
WATERMARK
10
17.5311
20
-1.85775
30
0
0
VERTEX
8
WATERMARK
10
17.58825
20
-1.88101
30
0
0
VERTEX
8
WATERMARK
10
17.6483
20
-1.8952
30
0
0
VERTEX
8
WATERMARK
10
17.7099
20
-1.89999
30
0
0
VERTEX
8
WATERMARK
10
18.6379
20
-1.9
30
0
0
SEQEND
8
WATERMARK
0
POLYLINE
8
WATERMARK
66
1
70
1
0
VERTEX
8
WATERMARK
10
17.9505
20
-1.09933
30
0
0
VERTEX
8
WATERMARK
10
17.79
20
-0.79875
30
0
0
VERTEX
8
WATERMARK
10
17.79017
20
-0.34371
30
0
0
VERTEX
8
WATERMARK
10
17.79371
20
-0.34017
30
0
0
VERTEX
8
WATERMARK
10
18.40766
20
-0.34017
30
0
0
VERTEX
8
WATERMARK
10
18.40991
20
-0.34146
30
0
0
VERTEX
8
WATERMARK
10
18.5571
20
-0.80019
30
0
0
VERTEX
8
WATERMARK
10
18.39865
20
-1.09841
30
0
0
VERTEX
8
WATERMARK
10
18.39646
20
-1.09978
30
0
0
SEQEND
8
WATERMARK
0
POLYLINE
8
WATERMARK
66
1
70
1
0
VERTEX
8
WATERMARK
10
24.81924
20
-1.89394
30
0
0
VERTEX
8
WATERMARK
10
24.8866
20
-1.87593
30
0
0
VERTEX
8
WATERMARK
10
24.9498
20
-1.8465
30
0
0
VERTEX
8
WATERMARK
10
25.00694
20
-1.80654
30
0
0
VERTEX
8
WATERMARK
10
25.05626
20
-1.75727
30
0
0
VERTEX
8
WATERMARK
10
25.09628
20
-1.70018
30
0
0
VERTEX
8
WATERMARK
10
25.12578
20
-1.63701
30
0
0
VERTEX
8
WATERMARK
10
25.14387
20
-1.56967
30
0
0
VERTEX
8
WATERMARK
10
25.14998
20
-1.50022
30
0
0
VERTEX
8
WATERMARK
10
25.14394
20
-1.43076
30
0
0
VERTEX
8
WATERMARK
10
25.12593
20
-1.3634
30
0
0
VERTEX
8
WATERMARK
10
25.0965
20
-1.3002
30
0
0
VERTEX
8
WATERMARK
10
25.05654
20
-1.24306
30
0
0
VERTEX
8
WATERMARK
10
25.00727
20
-1.19374
30
0
0
VERTEX
8
WATERMARK
10
24.95018
20
-1.15372
30
0
0
VERTEX
8
WATERMARK
10
24.88701
20
-1.12422
30
0
0
VERTEX
8
WATERMARK
10
24.81967
20
-1.10613
30
0
0
VERTEX
8
WATERMARK
10
24.75011
20
-1.10001
30
0
0
VERTEX
8
WATERMARK
10
24.59371
20
-1.09983
30
0
0
VERTEX
8
WATERMARK
10
24.59017
20
-1.09629
30
0
0
VERTEX
8
WATERMARK
10
24.59
20
1.4999
30
0
0
VERTEX
8
WATERMARK
10
24.58475
20
1.56448
30
0
0
VERTEX
8
WATERMARK
10
24.56913
20
1.62746
30
0
0
VERTEX
8
WATERMARK
10
24.54354
20
1.68709
30
0
0
VERTEX
8
WATERMARK
10
24.50863
20
1.74179
30
0
0
VERTEX
8
WATERMARK
10
24.46534
20
1.79013
30
0
0
VERTEX
8
WATERMARK
10
24.4148
20
1.83084
30
0
0
VERTEX
8
WATERMARK
10
24.36316
20
1.86056
30
0
0
VERTEX
8
WATERMARK
10
24.30768
20
1.88228
30
0
0
VERTEX
8
WATERMARK
10
24.2496
20
1.89552
30
0
0
VERTEX
8
WATERMARK
10
24.19019
20
1.89999
30
0
0
VERTEX
8
WATERMARK
10
24.12552
20
1.89475
30
0
0
VERTEX
8
WATERMARK
10
24.06254
20
1.87913
30
0
0
VERTEX
8
WATERMARK
10
24.00291
20
1.85354
30
0
0
VERTEX
8
WATERMARK
10
23.94821
20
1.81863
30
0
0
VERTEX
8
WATERMARK
10
23.89987
20
1.77534
30
0
0
VERTEX
8
WATERMARK
10
23.8591
20
1.72473
30
0
0
VERTEX
8
WATERMARK
10
23.4111
20
1.06473
30
0
0
VERTEX
8
WATERMARK
10
23.38007
20
1.01028
30
0
0
VERTEX
8
WATERMARK
10
23.35789
20
0.95157
30
0
0
VERTEX
8
WATERMARK
10
23.34516
20
0.8901
30
0
0
VERTEX
8
WATERMARK
10
23.34221
20
0.82741
30
0
0
VERTEX
8
WATERMARK
10
23.3491
20
0.76502
30
0
0
VERTEX
8
WATERMARK
10
23.36567
20
0.70448
30
0
0
VERTEX
8
WATERMARK
10
23.3915
20
0.64728
30
0
0
VERTEX
8
WATERMARK
10
23.42596
20
0.59482
30
0
0
VERTEX
8
WATERMARK
10
23.46821
20
0.5484
30
0
0
VERTEX
8
WATERMARK
10
23.5172
20
0.50916
30
0
0
VERTEX
8
WATERMARK
10
23.56677
20
0.48044
30
0
0
VERTEX
8
WATERMARK
10
23.61993
20
0.45909
30
0
0
VERTEX
8
WATERMARK
10
23.67559
20
0.44556
30
0
0
VERTEX
8
WATERMARK
10
23.73261
20
0.44012
30
0
0
VERTEX
8
WATERMARK
10
23.78606
20
0.44253
30
0
0
VERTEX
8
WATERMARK
10
23.78836
20
0.44134
30
0
0
VERTEX
8
WATERMARK
10
23.79
20
0.43764
30
0
0
VERTEX
8
WATERMARK
10
23.78983
20
-1.09629
30
0
0
VERTEX
8
WATERMARK
10
23.78629
20
-1.09983
30
0
0
VERTEX
8
WATERMARK
10
23.62989
20
-1.10001
30
0
0
VERTEX
8
WATERMARK
10
23.56033
20
-1.10613
30
0
0
VERTEX
8
WATERMARK
10
23.4934
20
-1.12407
30
0
0
VERTEX
8
WATERMARK
10
23.4302
20
-1.1535
30
0
0
VERTEX
8
WATERMARK
10
23.37306
20
-1.19346
30
0
0
VERTEX
8
WATERMARK
10
23.32374
20
-1.24273
30
0
0
VERTEX
8
WATERMARK
10
23.28372
20
-1.29982
30
0
0
VERTEX
8
WATERMARK
10
23.25422
20
-1.36299
30
0
0
VERTEX
8
WATERMARK
10
23.23613
20
-1.43033
30
0
0
VERTEX
8
WATERMARK
10
23.23002
20
-1.49978
30
0
0
VERTEX
8
WATERMARK
10
23.23606
20
-1.56924
30
0
0
VERTEX
8
WATERMARK
10
23.25407
20
-1.6366
30
0
0
VERTEX
8
WATERMARK
10
23.2835
20
-1.6998
30
0
0
VERTEX
8
WATERMARK
10
23.32346
20
-1.75694
30
0
0
VERTEX
8
WATERMARK
10
23.37273
20
-1.80626
30
0
0
VERTEX
8
WATERMARK
10
23.42982
20
-1.84628
30
0
0
VERTEX
8
WATERMARK
10
23.49299
20
-1.87578
30
0
0
VERTEX
8
WATERMARK
10
23.56033
20
-1.89387
30
0
0
VERTEX
8
WATERMARK
10
23.62989
20
-1.89999
30
0
0
VERTEX
8
WATERMARK
10
24.74989
20
-1.9
30
0
0
SEQEND
8
WATERMARK
0
POLYLINE
8
WATERMARK
66
1
70
1
0
VERTEX
8
WATERMARK
10
22.09285
20
-1.88653
30
0
0
VERTEX
8
WATERMARK
10
22.15841
20
-1.86279
30
0
0
VERTEX
8
WATERMARK
10
22.21885
20
-1.82804
30
0
0
VERTEX
8
WATERMARK
10
22.27234
20
-1.78331
30
0
0
VERTEX
8
WATERMARK
10
22.31725
20
-1.72998
30
0
0
VERTEX
8
WATERMARK
10
22.35221
20
-1.66966
30
0
0
VERTEX
8
WATERMARK
10
22.37617
20
-1.60419
30
0
0
VERTEX
8
WATERMARK
10
22.38839
20
-1.53555
30
0
0
VERTEX
8
WATERMARK
10
22.38852
20
-1.46583
30
0
0
VERTEX
8
WATERMARK
10
22.37651
20
-1.39704
30
0
0
VERTEX
8
WATERMARK
10
22.02813
20
-0.09058
30
0
0
VERTEX
8
WATERMARK
10
22.03546
20
-0.04491
30
0
0
VERTEX
8
WATERMARK
10
22.03799
20
0.00016
30
0
0
VERTEX
8
WATERMARK
10
22.03356
20
0.05935
30
0
0
VERTEX
8
WATERMARK
10
22.02032
20
0.11756
30
0
0
VERTEX
8
WATERMARK
10
21.99857
20
0.17315
30
0
0
VERTEX
8
WATERMARK
10
21.96878
20
0.22489
30
0
0
VERTEX
8
WATERMARK
10
21.93124
20
0.27277
30
0
0
VERTEX
8
WATERMARK
10
21.57646
20
1.60316
30
0
0
VERTEX
8
WATERMARK
10
21.55667
20
1.65981
30
0
0
VERTEX
8
WATERMARK
10
21.52888
20
1.71247
30
0
0
VERTEX
8
WATERMARK
10
21.49334
20
1.76071
30
0
0
VERTEX
8
WATERMARK
10
21.45099
20
1.8031
30
0
0
VERTEX
8
WATERMARK
10
21.40279
20
1.83868
30
0
0
VERTEX
8
WATERMARK
10
21.34981
20
1.86667
30
0
0
VERTEX
8
WATERMARK
10
21.29326
20
1.88642
30
0
0
VERTEX
8
WATERMARK
10
21.22492
20
1.89845
30
0
0
VERTEX
8
WATERMARK
10
21.15551
20
1.89849
30
0
0
VERTEX
8
WATERMARK
10
21.08713
20
1.88652
30
0
0
VERTEX
8
WATERMARK
10
21.03053
20
1.86682
30
0
0
VERTEX
8
WATERMARK
10
20.97753
20
1.83888
30
0
0
VERTEX
8
WATERMARK
10
20.92929
20
1.80334
30
0
0
VERTEX
8
WATERMARK
10
20.8869
20
1.76099
30
0
0
VERTEX
8
WATERMARK
10
20.85132
20
1.71279
30
0
0
VERTEX
8
WATERMARK
10
20.82333
20
1.65981
30
0
0
VERTEX
8
WATERMARK
10
20.80354
20
1.60316
30
0
0
VERTEX
8
WATERMARK
10
20.44876
20
0.27277
30
0
0
VERTEX
8
WATERMARK
10
20.41122
20
0.22489
30
0
0
VERTEX
8
WATERMARK
10
20.38143
20
0.17315
30
0
0
VERTEX
8
WATERMARK
10
20.35968
20
0.11756
30
0
0
VERTEX
8
WATERMARK
10
20.34644
20
0.05935
30
0
0
VERTEX
8
WATERMARK
10
20.34201
20
0.00016
30
0
0
VERTEX
8
WATERMARK
10
20.34454
20
-0.04491
30
0
0
VERTEX
8
WATERMARK
10
20.35187
20
-0.09058
30
0
0
VERTEX
8
WATERMARK
10
20.00349
20
-1.39704
30
0
0
VERTEX
8
WATERMARK
10
19.99148
20
-1.46583
30
0
0
VERTEX
8
WATERMARK
10
19.99161
20
-1.53555
30
0
0
VERTEX
8
WATERMARK
10
20.00372
20
-1.60377
30
0
0
VERTEX
8
WATERMARK
10
20.02761
20
-1.66927
30
0
0
VERTEX
8
WATERMARK
10
20.0625
20
-1.72963
30
0
0
VERTEX
8
WATERMARK
10
20.10735
20
-1.78301
30
0
0
VERTEX
8
WATERMARK
10
20.16079
20
-1.82779
30
0
0
VERTEX
8
WATERMARK
10
20.22119
20
-1.86261
30
0
0
VERTEX
8
WATERMARK
10
20.28672
20
-1.88642
30
0
0
VERTEX
8
WATERMARK
10
20.35539
20
-1.89848
30
0
0
VERTEX
8
WATERMARK
10
20.42511
20
-1.89843
30
0
0
VERTEX
8
WATERMARK
10
20.49377
20
-1.88628
30
0
0
VERTEX
8
WATERMARK
10
20.55927
20
-1.86239
30
0
0
VERTEX
8
WATERMARK
10
20.61963
20
-1.8275
30
0
0
VERTEX
8
WATERMARK
10
20.67301
20
-1.78265
30
0
0
VERTEX
8
WATERMARK
10
20.71779
20
-1.72921
30
0
0
VERTEX
8
WATERMARK
10
20.75261
20
-1.66881
30
0
0
VERTEX
8
WATERMARK
10
20.77645
20
-1.60317
30
0
0
VERTEX
8
WATERMARK
10
21.09682
20
-0.40251
30
0
0
VERTEX
8
WATERMARK
10
21.09865
20
-0.40067
30
0
0
VERTEX
8
WATERMARK
10
21.28014
20
-0.40017
30
0
0
VERTEX
8
WATERMARK
10
21.28368
20
-0.40371
30
0
0
VERTEX
8
WATERMARK
10
21.60348
20
-1.60296
30
0
0
VERTEX
8
WATERMARK
10
21.62721
20
-1.66841
30
0
0
VERTEX
8
WATERMARK
10
21.66196
20
-1.72885
30
0
0
VERTEX
8
WATERMARK
10
21.70669
20
-1.78234
30
0
0
VERTEX
8
WATERMARK
10
21.76002
20
-1.82725
30
0
0
VERTEX
8
WATERMARK
10
21.82034
20
-1.86221
30
0
0
VERTEX
8
WATERMARK
10
21.88581
20
-1.88617
30
0
0
VERTEX
8
WATERMARK
10
21.95445
20
-1.89839
30
0
0
VERTEX
8
WATERMARK
10
22.02417
20
-1.89852
30
0
0
SEQEND
8
WATERMARK
0
POLYLINE
8
WATERMARK
66
1
70
1
0
VERTEX
8
WATERMARK
10
12.89238
20
-0.39509
30
0
0
VERTEX
8
WATERMARK
10
12.95342
20
-0.38047
30
0
0
VERTEX
8
WATERMARK
10
13.01141
20
-0.35648
30
0
0
VERTEX
8
WATERMARK
10
13.06495
20
-0.32371
30
0
0
VERTEX
8
WATERMARK
10
13.11269
20
-0.28297
30
0
0
VERTEX
8
WATERMARK
10
13.15348
20
-0.23526
30
0
0
VERTEX
8
WATERMARK
10
13.1863
20
-0.18176
30
0
0
VERTEX
8
WATERMARK
10
13.21035
20
-0.12379
30
0
0
VERTEX
8
WATERMARK
10
13.22503
20
-0.06276
30
0
0
VERTEX
8
WATERMARK
10
13.22998
20
-0.0002
30
0
0
VERTEX
8
WATERMARK
10
13.22509
20
0.06238
30
0
0
VERTEX
8
WATERMARK
10
13.21047
20
0.12342
30
0
0
VERTEX
8
WATERMARK
10
13.18648
20
0.18141
30
0
0
VERTEX
8
WATERMARK
10
13.15371
20
0.23495
30
0
0
VERTEX
8
WATERMARK
10
13.11297
20
0.28269
30
0
0
VERTEX
8
WATERMARK
10
13.06526
20
0.32348
30
0
0
VERTEX
8
WATERMARK
10
13.01176
20
0.3563
30
0
0
VERTEX
8
WATERMARK
10
12.95379
20
0.38035
30
0
0
VERTEX
8
WATERMARK
10
12.89276
20
0.39503
30
0
0
VERTEX
8
WATERMARK
10
12.8301
20
0.39999
30
0
0
VERTEX
8
WATERMARK
10
11.5501
20
0.4
30
0
0
VERTEX
8
WATERMARK
10
11.48762
20
0.39509
30
0
0
VERTEX
8
WATERMARK
10
11.42658
20
0.38047
30
0
0
VERTEX
8
WATERMARK
10
11.36859
20
0.35648
30
0
0
VERTEX
8
WATERMARK
10
11.31505
20
0.32371
30
0
0
VERTEX
8
WATERMARK
10
11.26731
20
0.28297
30
0
0
VERTEX
8
WATERMARK
10
11.22652
20
0.23526
30
0
0
VERTEX
8
WATERMARK
10
11.1937
20
0.18176
30
0
0
VERTEX
8
WATERMARK
10
11.16965
20
0.12379
30
0
0
VERTEX
8
WATERMARK
10
11.15497
20
0.06276
30
0
0
VERTEX
8
WATERMARK
10
11.15002
20
0.0002
30
0
0
VERTEX
8
WATERMARK
10
11.15491
20
-0.06238
30
0
0
VERTEX
8
WATERMARK
10
11.16953
20
-0.12342
30
0
0
VERTEX
8
WATERMARK
10
11.19352
20
-0.18141
30
0
0
VERTEX
8
WATERMARK
10
11.22629
20
-0.23495
30
0
0
VERTEX
8
WATERMARK
10
11.26703
20
-0.28269
30
0
0
VERTEX
8
WATERMARK
10
11.31474
20
-0.32348
30
0
0
VERTEX
8
WATERMARK
10
11.36824
20
-0.3563
30
0
0
VERTEX
8
WATERMARK
10
11.42621
20
-0.38035
30
0
0
VERTEX
8
WATERMARK
10
11.48724
20
-0.39503
30
0
0
VERTEX
8
WATERMARK
10
11.5499
20
-0.39999
30
0
0
VERTEX
8
WATERMARK
10
12.8299
20
-0.4
30
0
0
SEQEND
8
WATERMARK
0
POLYLINE
8
WATERMARK
66
1
70
1
0
VERTEX
8
WATERMARK
10
-12.79076
20
-1.89394
30
0
0
VERTEX
8
WATERMARK
10
-12.7234
20
-1.87593
30
0
0
VERTEX
8
WATERMARK
10
-12.6602
20
-1.8465
30
0
0
VERTEX
8
WATERMARK
10
-12.60306
20
-1.80654
30
0
0
VERTEX
8
WATERMARK
10
-12.55374
20
-1.75727
30
0
0
VERTEX
8
WATERMARK
10
-12.51372
20
-1.70018
30
0
0
VERTEX
8
WATERMARK
10
-12.48422
20
-1.63701
30
0
0
VERTEX
8
WATERMARK
10
-12.46613
20
-1.56967
30
0
0
VERTEX
8
WATERMARK
10
-12.46002
20
-1.50022
30
0
0
VERTEX
8
WATERMARK
10
-12.46606
20
-1.43076
30
0
0
VERTEX
8
WATERMARK
10
-12.48407
20
-1.3634
30
0
0
VERTEX
8
WATERMARK
10
-12.5135
20
-1.3002
30
0
0
VERTEX
8
WATERMARK
10
-12.55346
20
-1.24306
30
0
0
VERTEX
8
WATERMARK
10
-12.60273
20
-1.19374
30
0
0
VERTEX
8
WATERMARK
10
-12.65982
20
-1.15372
30
0
0
VERTEX
8
WATERMARK
10
-12.72299
20
-1.12422
30
0
0
VERTEX
8
WATERMARK
10
-12.79033
20
-1.10613
30
0
0
VERTEX
8
WATERMARK
10
-12.85989
20
-1.10001
30
0
0
VERTEX
8
WATERMARK
10
-13.25629
20
-1.09983
30
0
0
VERTEX
8
WATERMARK
10
-13.25983
20
-1.09629
30
0
0
VERTEX
8
WATERMARK
10
-13.25983
20
-0.50371
30
0
0
VERTEX
8
WATERMARK
10
-13.25629
20
-0.50017
30
0
0
VERTEX
8
WATERMARK
10
-12.85989
20
-0.49999
30
0
0
VERTEX
8
WATERMARK
10
-12.79033
20
-0.49387
30
0
0
VERTEX
8
WATERMARK
10
-12.7234
20
-0.47593
30
0
0
VERTEX
8
WATERMARK
10
-12.6602
20
-0.4465
30
0
0
VERTEX
8
WATERMARK
10
-12.60306
20
-0.40654
30
0
0
VERTEX
8
WATERMARK
10
-12.55374
20
-0.35727
30
0
0
VERTEX
8
WATERMARK
10
-12.51372
20
-0.30018
30
0
0
VERTEX
8
WATERMARK
10
-12.48422
20
-0.23701
30
0
0
VERTEX
8
WATERMARK
10
-12.46613
20
-0.16967
30
0
0
VERTEX
8
WATERMARK
10
-12.46002
20
-0.10022
30
0
0
VERTEX
8
WATERMARK
10
-12.46606
20
-0.03076
30
0
0
VERTEX
8
WATERMARK
10
-12.48407
20
0.0366
30
0
0
VERTEX
8
WATERMARK
10
-12.5135
20
0.0998
30
0
0
VERTEX
8
WATERMARK
10
-12.55346
20
0.15694
30
0
0
VERTEX
8
WATERMARK
10
-12.60273
20
0.20626
30
0
0
VERTEX
8
WATERMARK
10
-12.65982
20
0.24628
30
0
0
VERTEX
8
WATERMARK
10
-12.72299
20
0.27578
30
0
0
VERTEX
8
WATERMARK
10
-12.79033
20
0.29387
30
0
0
VERTEX
8
WATERMARK
10
-12.85989
20
0.29999
30
0
0
VERTEX
8
WATERMARK
10
-14.45989
20
0.3
30
0
0
VERTEX
8
WATERMARK
10
-14.52924
20
0.29394
30
0
0
VERTEX
8
WATERMARK
10
-14.5966
20
0.27593
30
0
0
VERTEX
8
WATERMARK
10
-14.6598
20
0.2465
30
0
0
VERTEX
8
WATERMARK
10
-14.71694
20
0.20654
30
0
0
VERTEX
8
WATERMARK
10
-14.76626
20
0.15727
30
0
0
VERTEX
8
WATERMARK
10
-14.80628
20
0.10018
30
0
0
VERTEX
8
WATERMARK
10
-14.83578
20
0.03701
30
0
0
VERTEX
8
WATERMARK
10
-14.85387
20
-0.03033
30
0
0
VERTEX
8
WATERMARK
10
-14.85998
20
-0.09978
30
0
0
VERTEX
8
WATERMARK
10
-14.85394
20
-0.16924
30
0
0
VERTEX
8
WATERMARK
10
-14.83593
20
-0.2366
30
0
0
VERTEX
8
WATERMARK
10
-14.8065
20
-0.2998
30
0
0
VERTEX
8
WATERMARK
10
-14.76654
20
-0.35694
30
0
0
VERTEX
8
WATERMARK
10
-14.71727
20
-0.40626
30
0
0
VERTEX
8
WATERMARK
10
-14.66018
20
-0.44628
30
0
0
VERTEX
8
WATERMARK
10
-14.59701
20
-0.47578
30
0
0
VERTEX
8
WATERMARK
10
-14.52967
20
-0.49387
30
0
0
VERTEX
8
WATERMARK
10
-14.46011
20
-0.49999
30
0
0
VERTEX
8
WATERMARK
10
-14.06371
20
-0.50017
30
0
0
VERTEX
8
WATERMARK
10
-14.06017
20
-0.50371
30
0
0
VERTEX
8
WATERMARK
10
-14.06017
20
-1.09629
30
0
0
VERTEX
8
WATERMARK
10
-14.06371
20
-1.09983
30
0
0
VERTEX
8
WATERMARK
10
-14.46011
20
-1.10001
30
0
0
VERTEX
8
WATERMARK
10
-14.52967
20
-1.10613
30
0
0
VERTEX
8
WATERMARK
10
-14.5966
20
-1.12407
30
0
0
VERTEX
8
WATERMARK
10
-14.6598
20
-1.1535
30
0
0
VERTEX
8
WATERMARK
10
-14.71694
20
-1.19346
30
0
0
VERTEX
8
WATERMARK
10
-14.76626
20
-1.24273
30
0
0
VERTEX
8
WATERMARK
10
-14.80628
20
-1.29982
30
0
0
VERTEX
8
WATERMARK
10
-14.83578
20
-1.36299
30
0
0
VERTEX
8
WATERMARK
10
-14.85387
20
-1.43033
30
0
0
VERTEX
8
WATERMARK
10
-14.85998
20
-1.49978
30
0
0
VERTEX
8
WATERMARK
10
-14.85394
20
-1.56924
30
0
0
VERTEX
8
WATERMARK
10
-14.83593
20
-1.6366
30
0
0
VERTEX
8
WATERMARK
10
-14.8065
20
-1.6998
30
0
0
VERTEX
8
WATERMARK
10
-14.76654
20
-1.75694
30
0
0
VERTEX
8
WATERMARK
10
-14.71727
20
-1.80626
30
0
0
VERTEX
8
WATERMARK
10
-14.66018
20
-1.84628
30
0
0
VERTEX
8
WATERMARK
10
-14.59701
20
-1.87578
30
0
0
VERTEX
8
WATERMARK
10
-14.52967
20
-1.89387
30
0
0
VERTEX
8
WATERMARK
10
-14.46011
20
-1.89999
30
0
0
VERTEX
8
WATERMARK
10
-12.86011
20
-1.9
30
0
0
SEQEND
8
WATERMARK
0
POLYLINE
8
WATERMARK
66
1
70
1
0
VERTEX
8
WATERMARK
10
-3.79076
20
-1.89394
30
0
0
VERTEX
8
WATERMARK
10
-3.7234
20
-1.87593
30
0
0
VERTEX
8
WATERMARK
10
-3.6602
20
-1.8465
30
0
0
VERTEX
8
WATERMARK
10
-3.60306
20
-1.80654
30
0
0
VERTEX
8
WATERMARK
10
-3.55374
20
-1.75727
30
0
0
VERTEX
8
WATERMARK
10
-3.51372
20
-1.70018
30
0
0
VERTEX
8
WATERMARK
10
-3.48422
20
-1.63701
30
0
0
VERTEX
8
WATERMARK
10
-3.46613
20
-1.56967
30
0
0
VERTEX
8
WATERMARK
10
-3.46001
20
-1.50011
30
0
0
VERTEX
8
WATERMARK
10
-3.46
20
-0.10011
30
0
0
VERTEX
8
WATERMARK
10
-3.46606
20
-0.03076
30
0
0
VERTEX
8
WATERMARK
10
-3.48407
20
0.0366
30
0
0
VERTEX
8
WATERMARK
10
-3.5135
20
0.0998
30
0
0
VERTEX
8
WATERMARK
10
-3.55346
20
0.15694
30
0
0
VERTEX
8
WATERMARK
10
-3.60273
20
0.20626
30
0
0
VERTEX
8
WATERMARK
10
-3.65982
20
0.24628
30
0
0
VERTEX
8
WATERMARK
10
-3.72299
20
0.27578
30
0
0
VERTEX
8
WATERMARK
10
-3.79033
20
0.29387
30
0
0
VERTEX
8
WATERMARK
10
-3.85989
20
0.29999
30
0
0
VERTEX
8
WATERMARK
10
-5.4599
20
0.3
30
0
0
VERTEX
8
WATERMARK
10
-5.52238
20
0.29509
30
0
0
VERTEX
8
WATERMARK
10
-5.58342
20
0.28047
30
0
0
VERTEX
8
WATERMARK
10
-5.64141
20
0.25648
30
0
0
VERTEX
8
WATERMARK
10
-5.69495
20
0.22371
30
0
0
VERTEX
8
WATERMARK
10
-5.74269
20
0.18297
30
0
0
VERTEX
8
WATERMARK
10
-5.78348
20
0.13526
30
0
0
VERTEX
8
WATERMARK
10
-5.8163
20
0.08176
30
0
0
VERTEX
8
WATERMARK
10
-5.84035
20
0.02379
30
0
0
VERTEX
8
WATERMARK
10
-5.85503
20
-0.03724
30
0
0
VERTEX
8
WATERMARK
10
-5.85999
20
-0.0999
30
0
0
VERTEX
8
WATERMARK
10
-5.86
20
-1.4999
30
0
0
VERTEX
8
WATERMARK
10
-5.85509
20
-1.56238
30
0
0
VERTEX
8
WATERMARK
10
-5.84047
20
-1.62342
30
0
0
VERTEX
8
WATERMARK
10
-5.81648
20
-1.68141
30
0
0
VERTEX
8
WATERMARK
10
-5.78371
20
-1.73495
30
0
0
VERTEX
8
WATERMARK
10
-5.74297
20
-1.78269
30
0
0
VERTEX
8
WATERMARK
10
-5.69526
20
-1.82348
30
0
0
VERTEX
8
WATERMARK
10
-5.64176
20
-1.8563
30
0
0
VERTEX
8
WATERMARK
10
-5.58379
20
-1.88035
30
0
0
VERTEX
8
WATERMARK
10
-5.52276
20
-1.89503
30
0
0
VERTEX
8
WATERMARK
10
-5.4601
20
-1.89999
30
0
0
VERTEX
8
WATERMARK
10
-3.86011
20
-1.9
30
0
0
SEQEND
8
WATERMARK
0
POLYLINE
8
WATERMARK
66
1
70
1
0
VERTEX
8
WATERMARK
10
-5.05629
20
-1.09983
30
0
0
VERTEX
8
WATERMARK
10
-5.05983
20
-1.09629
30
0
0
VERTEX
8
WATERMARK
10
-5.05933
20
-0.5025
30
0
0
VERTEX
8
WATERMARK
10
-5.0575
20
-0.50067
30
0
0
VERTEX
8
WATERMARK
10
-4.26371
20
-0.50017
30
0
0
VERTEX
8
WATERMARK
10
-4.26017
20
-0.50371
30
0
0
VERTEX
8
WATERMARK
10
-4.26067
20
-1.0975
30
0
0
VERTEX
8
WATERMARK
10
-4.2625
20
-1.09933
30
0
0
SEQEND
8
WATERMARK
0
POLYLINE
8
WATERMARK
66
1
70
1
0
VERTEX
8
WATERMARK
10
-9.79238
20
-1.89423
30
0
0
VERTEX
8
WATERMARK
10
-9.72651
20
-1.87705
30
0
0
VERTEX
8
WATERMARK
10
-9.66451
20
-1.84895
30
0
0
VERTEX
8
WATERMARK
10
-9.60817
20
-1.81075
30
0
0
VERTEX
8
WATERMARK
10
-9.55911
20
-1.76354
30
0
0
VERTEX
8
WATERMARK
10
-9.52445
20
-1.7177
30
0
0
VERTEX
8
WATERMARK
10
-9.49672
20
-1.66738
30
0
0
VERTEX
8
WATERMARK
10
-9.47649
20
-1.6136
30
0
0
VERTEX
8
WATERMARK
10
-9.46417
20
-1.55748
30
0
0
VERTEX
8
WATERMARK
10
-9.46001
20
-1.50009
30
0
0
VERTEX
8
WATERMARK
10
-9.46
20
-0.10011
30
0
0
VERTEX
8
WATERMARK
10
-9.46606
20
-0.03076
30
0
0
VERTEX
8
WATERMARK
10
-9.48407
20
0.0366
30
0
0
VERTEX
8
WATERMARK
10
-9.5135
20
0.0998
30
0
0
VERTEX
8
WATERMARK
10
-9.55346
20
0.15694
30
0
0
VERTEX
8
WATERMARK
10
-9.60273
20
0.20626
30
0
0
VERTEX
8
WATERMARK
10
-9.65982
20
0.24628
30
0
0
VERTEX
8
WATERMARK
10
-9.72299
20
0.27578
30
0
0
VERTEX
8
WATERMARK
10
-9.79033
20
0.29387
30
0
0
VERTEX
8
WATERMARK
10
-9.85979
20
0.29998
30
0
0
VERTEX
8
WATERMARK
10
-9.92238
20
0.29509
30
0
0
VERTEX
8
WATERMARK
10
-9.98342
20
0.28047
30
0
0
VERTEX
8
WATERMARK
10
-10.04141
20
0.25648
30
0
0
VERTEX
8
WATERMARK
10
-10.09495
20
0.22371
30
0
0
VERTEX
8
WATERMARK
10
-10.14269
20
0.18297
30
0
0
VERTEX
8
WATERMARK
10
-10.18348
20
0.13526
30
0
0
VERTEX
8
WATERMARK
10
-10.2163
20
0.08176
30
0
0
VERTEX
8
WATERMARK
10
-10.24035
20
0.02379
30
0
0
VERTEX
8
WATERMARK
10
-10.25503
20
-0.03724
30
0
0
VERTEX
8
WATERMARK
10
-10.25999
20
-0.0999
30
0
0
VERTEX
8
WATERMARK
10
-10.26017
20
-0.60877
30
0
0
VERTEX
8
WATERMARK
10
-10.26371
20
-0.6123
30
0
0
VERTEX
8
WATERMARK
10
-10.26629
20
-0.6123
30
0
0
VERTEX
8
WATERMARK
10
-11.19667
20
0.20108
30
0
0
VERTEX
8
WATERMARK
10
-11.2426
20
0.23575
30
0
0
VERTEX
8
WATERMARK
10
-11.29262
20
0.26328
30
0
0
VERTEX
8
WATERMARK
10
-11.3464
20
0.28351
30
0
0
VERTEX
8
WATERMARK
10
-11.40252
20
0.29583
30
0
0
VERTEX
8
WATERMARK
10
-11.4598
20
0.29999
30
0
0
VERTEX
8
WATERMARK
10
-11.52762
20
0.29422
30
0
0
VERTEX
8
WATERMARK
10
-11.59349
20
0.27705
30
0
0
VERTEX
8
WATERMARK
10
-11.65549
20
0.24895
30
0
0
VERTEX
8
WATERMARK
10
-11.71183
20
0.21075
30
0
0
VERTEX
8
WATERMARK
10
-11.76089
20
0.16354
30
0
0
VERTEX
8
WATERMARK
10
-11.79555
20
0.1177
30
0
0
VERTEX
8
WATERMARK
10
-11.82328
20
0.06738
30
0
0
VERTEX
8
WATERMARK
10
-11.84351
20
0.0136
30
0
0
VERTEX
8
WATERMARK
10
-11.85583
20
-0.04252
30
0
0
VERTEX
8
WATERMARK
10
-11.85999
20
-0.09991
30
0
0
VERTEX
8
WATERMARK
10
-11.86
20
-1.49989
30
0
0
VERTEX
8
WATERMARK
10
-11.85394
20
-1.56924
30
0
0
VERTEX
8
WATERMARK
10
-11.83593
20
-1.6366
30
0
0
VERTEX
8
WATERMARK
10
-11.8065
20
-1.6998
30
0
0
VERTEX
8
WATERMARK
10
-11.76654
20
-1.75694
30
0
0
VERTEX
8
WATERMARK
10
-11.71727
20
-1.80626
30
0
0
VERTEX
8
WATERMARK
10
-11.66018
20
-1.84628
30
0
0
VERTEX
8
WATERMARK
10
-11.59701
20
-1.87578
30
0
0
VERTEX
8
WATERMARK
10
-11.52967
20
-1.89387
30
0
0
VERTEX
8
WATERMARK
10
-11.46021
20
-1.89998
30
0
0
VERTEX
8
WATERMARK
10
-11.39762
20
-1.89509
30
0
0
VERTEX
8
WATERMARK
10
-11.33658
20
-1.88047
30
0
0
VERTEX
8
WATERMARK
10
-11.27859
20
-1.85648
30
0
0
VERTEX
8
WATERMARK
10
-11.22505
20
-1.82371
30
0
0
VERTEX
8
WATERMARK
10
-11.17731
20
-1.78297
30
0
0
VERTEX
8
WATERMARK
10
-11.13652
20
-1.73526
30
0
0
VERTEX
8
WATERMARK
10
-11.1037
20
-1.68176
30
0
0
VERTEX
8
WATERMARK
10
-11.07965
20
-1.62379
30
0
0
VERTEX
8
WATERMARK
10
-11.06497
20
-1.56276
30
0
0
VERTEX
8
WATERMARK
10
-11.06001
20
-1.5001
30
0
0
VERTEX
8
WATERMARK
10
-11.05983
20
-0.99123
30
0
0
VERTEX
8
WATERMARK
10
-11.05629
20
-0.9877
30
0
0
VERTEX
8
WATERMARK
10
-11.05371
20
-0.9877
30
0
0
VERTEX
8
WATERMARK
10
-10.12333
20
-1.80108
30
0
0
VERTEX
8
WATERMARK
10
-10.0774
20
-1.83575
30
0
0
VERTEX
8
WATERMARK
10
-10.02738
20
-1.86328
30
0
0
VERTEX
8
WATERMARK
10
-9.9736
20
-1.88351
30
0
0
VERTEX
8
WATERMARK
10
-9.91748
20
-1.89583
30
0
0
VERTEX
8
WATERMARK
10
-9.8602
20
-1.89999
30
0
0
SEQEND
8
WATERMARK
0
POLYLINE
8
WATERMARK
66
1
70
1
0
VERTEX
8
WATERMARK
10
-6.79238
20
-1.89423
30
0
0
VERTEX
8
WATERMARK
10
-6.72651
20
-1.87705
30
0
0
VERTEX
8
WATERMARK
10
-6.66451
20
-1.84895
30
0
0
VERTEX
8
WATERMARK
10
-6.60817
20
-1.81075
30
0
0
VERTEX
8
WATERMARK
10
-6.55911
20
-1.76354
30
0
0
VERTEX
8
WATERMARK
10
-6.52445
20
-1.7177
30
0
0
VERTEX
8
WATERMARK
10
-6.49672
20
-1.66738
30
0
0
VERTEX
8
WATERMARK
10
-6.47649
20
-1.6136
30
0
0
VERTEX
8
WATERMARK
10
-6.46417
20
-1.55748
30
0
0
VERTEX
8
WATERMARK
10
-6.46001
20
-1.50009
30
0
0
VERTEX
8
WATERMARK
10
-6.46
20
-0.1001
30
0
0
VERTEX
8
WATERMARK
10
-6.46491
20
-0.03762
30
0
0
VERTEX
8
WATERMARK
10
-6.47953
20
0.02342
30
0
0
VERTEX
8
WATERMARK
10
-6.50352
20
0.08141
30
0
0
VERTEX
8
WATERMARK
10
-6.53629
20
0.13495
30
0
0
VERTEX
8
WATERMARK
10
-6.57703
20
0.18269
30
0
0
VERTEX
8
WATERMARK
10
-6.62474
20
0.22348
30
0
0
VERTEX
8
WATERMARK
10
-6.67824
20
0.2563
30
0
0
VERTEX
8
WATERMARK
10
-6.73621
20
0.28035
30
0
0
VERTEX
8
WATERMARK
10
-6.79724
20
0.29503
30
0
0
VERTEX
8
WATERMARK
10
-6.85979
20
0.29998
30
0
0
VERTEX
8
WATERMARK
10
-6.92924
20
0.29394
30
0
0
VERTEX
8
WATERMARK
10
-6.9966
20
0.27593
30
0
0
VERTEX
8
WATERMARK
10
-7.0598
20
0.2465
30
0
0
VERTEX
8
WATERMARK
10
-7.11694
20
0.20654
30
0
0
VERTEX
8
WATERMARK
10
-7.16626
20
0.15727
30
0
0
VERTEX
8
WATERMARK
10
-7.20628
20
0.10018
30
0
0
VERTEX
8
WATERMARK
10
-7.23578
20
0.03701
30
0
0
VERTEX
8
WATERMARK
10
-7.25387
20
-0.03033
30
0
0
VERTEX
8
WATERMARK
10
-7.25999
20
-0.09989
30
0
0
VERTEX
8
WATERMARK
10
-7.26017
20
-0.60877
30
0
0
VERTEX
8
WATERMARK
10
-7.26371
20
-0.6123
30
0
0
VERTEX
8
WATERMARK
10
-7.26629
20
-0.6123
30
0
0
VERTEX
8
WATERMARK
10
-8.19667
20
0.20108
30
0
0
VERTEX
8
WATERMARK
10
-8.2426
20
0.23575
30
0
0
VERTEX
8
WATERMARK
10
-8.29262
20
0.26328
30
0
0
VERTEX
8
WATERMARK
10
-8.3464
20
0.28351
30
0
0
VERTEX
8
WATERMARK
10
-8.40252
20
0.29583
30
0
0
VERTEX
8
WATERMARK
10
-8.4598
20
0.29999
30
0
0
VERTEX
8
WATERMARK
10
-8.52762
20
0.29422
30
0
0
VERTEX
8
WATERMARK
10
-8.59349
20
0.27705
30
0
0
VERTEX
8
WATERMARK
10
-8.65549
20
0.24895
30
0
0
VERTEX
8
WATERMARK
10
-8.71183
20
0.21075
30
0
0
VERTEX
8
WATERMARK
10
-8.76089
20
0.16354
30
0
0
VERTEX
8
WATERMARK
10
-8.79555
20
0.1177
30
0
0
VERTEX
8
WATERMARK
10
-8.82328
20
0.06738
30
0
0
VERTEX
8
WATERMARK
10
-8.84351
20
0.0136
30
0
0
VERTEX
8
WATERMARK
10
-8.85583
20
-0.04252
30
0
0
VERTEX
8
WATERMARK
10
-8.85999
20
-0.09991
30
0
0
VERTEX
8
WATERMARK
10
-8.86
20
-1.49989
30
0
0
VERTEX
8
WATERMARK
10
-8.85394
20
-1.56924
30
0
0
VERTEX
8
WATERMARK
10
-8.83593
20
-1.6366
30
0
0
VERTEX
8
WATERMARK
10
-8.8065
20
-1.6998
30
0
0
VERTEX
8
WATERMARK
10
-8.76654
20
-1.75694
30
0
0
VERTEX
8
WATERMARK
10
-8.71727
20
-1.80626
30
0
0
VERTEX
8
WATERMARK
10
-8.66018
20
-1.84628
30
0
0
VERTEX
8
WATERMARK
10
-8.59701
20
-1.87578
30
0
0
VERTEX
8
WATERMARK
10
-8.52967
20
-1.89387
30
0
0
VERTEX
8
WATERMARK
10
-8.46021
20
-1.89998
30
0
0
VERTEX
8
WATERMARK
10
-8.39762
20
-1.89509
30
0
0
VERTEX
8
WATERMARK
10
-8.33658
20
-1.88047
30
0
0
VERTEX
8
WATERMARK
10
-8.27859
20
-1.85648
30
0
0
VERTEX
8
WATERMARK
10
-8.22505
20
-1.82371
30
0
0
VERTEX
8
WATERMARK
10
-8.17731
20
-1.78297
30
0
0
VERTEX
8
WATERMARK
10
-8.13652
20
-1.73526
30
0
0
VERTEX
8
WATERMARK
10
-8.1037
20
-1.68176
30
0
0
VERTEX
8
WATERMARK
10
-8.07965
20
-1.62379
30
0
0
VERTEX
8
WATERMARK
10
-8.06497
20
-1.56276
30
0
0
VERTEX
8
WATERMARK
10
-8.06001
20
-1.5001
30
0
0
VERTEX
8
WATERMARK
10
-8.05983
20
-0.99123
30
0
0
VERTEX
8
WATERMARK
10
-8.05629
20
-0.9877
30
0
0
VERTEX
8
WATERMARK
10
-8.05371
20
-0.9877
30
0
0
VERTEX
8
WATERMARK
10
-7.12333
20
-1.80108
30
0
0
VERTEX
8
WATERMARK
10
-7.0774
20
-1.83575
30
0
0
VERTEX
8
WATERMARK
10
-7.02738
20
-1.86328
30
0
0
VERTEX
8
WATERMARK
10
-6.9736
20
-1.88351
30
0
0
VERTEX
8
WATERMARK
10
-6.91748
20
-1.89583
30
0
0
VERTEX
8
WATERMARK
10
-6.8602
20
-1.89999
30
0
0
SEQEND
8
WATERMARK
0
POLYLINE
8
WATERMARK
66
1
70
1
0
VERTEX
8
WATERMARK
10
-10.59762
20
-4.69509
30
0
0
VERTEX
8
WATERMARK
10
-10.53658
20
-4.68047
30
0
0
VERTEX
8
WATERMARK
10
-10.47859
20
-4.65648
30
0
0
VERTEX
8
WATERMARK
10
-10.42505
20
-4.62371
30
0
0
VERTEX
8
WATERMARK
10
-10.37731
20
-4.58297
30
0
0
VERTEX
8
WATERMARK
10
-10.33652
20
-4.53526
30
0
0
VERTEX
8
WATERMARK
10
-10.3037
20
-4.48176
30
0
0
VERTEX
8
WATERMARK
10
-10.27965
20
-4.42379
30
0
0
VERTEX
8
WATERMARK
10
-10.26497
20
-4.36276
30
0
0
VERTEX
8
WATERMARK
10
-10.26001
20
-4.3001
30
0
0
VERTEX
8
WATERMARK
10
-10.25983
20
-3.30371
30
0
0
VERTEX
8
WATERMARK
10
-10.25629
20
-3.30017
30
0
0
VERTEX
8
WATERMARK
10
-9.85989
20
-3.29999
30
0
0
VERTEX
8
WATERMARK
10
-9.79076
20
-3.29394
30
0
0
VERTEX
8
WATERMARK
10
-9.7234
20
-3.27593
30
0
0
VERTEX
8
WATERMARK
10
-9.6602
20
-3.2465
30
0
0
VERTEX
8
WATERMARK
10
-9.60306
20
-3.20654
30
0
0
VERTEX
8
WATERMARK
10
-9.55374
20
-3.15727
30
0
0
VERTEX
8
WATERMARK
10
-9.51372
20
-3.10018
30
0
0
VERTEX
8
WATERMARK
10
-9.48422
20
-3.03701
30
0
0
VERTEX
8
WATERMARK
10
-9.46613
20
-2.96967
30
0
0
VERTEX
8
WATERMARK
10
-9.46002
20
-2.90022
30
0
0
VERTEX
8
WATERMARK
10
-9.46606
20
-2.83076
30
0
0
VERTEX
8
WATERMARK
10
-9.48407
20
-2.7634
30
0
0
VERTEX
8
WATERMARK
10
-9.5135
20
-2.7002
30
0
0
VERTEX
8
WATERMARK
10
-9.55346
20
-2.64306
30
0
0
VERTEX
8
WATERMARK
10
-9.60273
20
-2.59374
30
0
0
VERTEX
8
WATERMARK
10
-9.65982
20
-2.55372
30
0
0
VERTEX
8
WATERMARK
10
-9.72299
20
-2.52422
30
0
0
VERTEX
8
WATERMARK
10
-9.79033
20
-2.50613
30
0
0
VERTEX
8
WATERMARK
10
-9.85989
20
-2.50001
30
0
0
VERTEX
8
WATERMARK
10
-11.45989
20
-2.5
30
0
0
VERTEX
8
WATERMARK
10
-11.52924
20
-2.50606
30
0
0
VERTEX
8
WATERMARK
10
-11.5966
20
-2.52407
30
0
0
VERTEX
8
WATERMARK
10
-11.6598
20
-2.5535
30
0
0
VERTEX
8
WATERMARK
10
-11.71694
20
-2.59346
30
0
0
VERTEX
8
WATERMARK
10
-11.76626
20
-2.64273
30
0
0
VERTEX
8
WATERMARK
10
-11.80628
20
-2.69982
30
0
0
VERTEX
8
WATERMARK
10
-11.83578
20
-2.76299
30
0
0
VERTEX
8
WATERMARK
10
-11.85387
20
-2.83033
30
0
0
VERTEX
8
WATERMARK
10
-11.85998
20
-2.89978
30
0
0
VERTEX
8
WATERMARK
10
-11.85394
20
-2.96924
30
0
0
VERTEX
8
WATERMARK
10
-11.83593
20
-3.0366
30
0
0
VERTEX
8
WATERMARK
10
-11.8065
20
-3.0998
30
0
0
VERTEX
8
WATERMARK
10
-11.76654
20
-3.15694
30
0
0
VERTEX
8
WATERMARK
10
-11.71727
20
-3.20626
30
0
0
VERTEX
8
WATERMARK
10
-11.66018
20
-3.24628
30
0
0
VERTEX
8
WATERMARK
10
-11.59701
20
-3.27578
30
0
0
VERTEX
8
WATERMARK
10
-11.52967
20
-3.29387
30
0
0
VERTEX
8
WATERMARK
10
-11.46011
20
-3.29999
30
0
0
VERTEX
8
WATERMARK
10
-11.06371
20
-3.30017
30
0
0
VERTEX
8
WATERMARK
10
-11.06017
20
-3.30371
30
0
0
VERTEX
8
WATERMARK
10
-11.05999
20
-4.3001
30
0
0
VERTEX
8
WATERMARK
10
-11.05509
20
-4.36238
30
0
0
VERTEX
8
WATERMARK
10
-11.04047
20
-4.42342
30
0
0
VERTEX
8
WATERMARK
10
-11.01648
20
-4.48141
30
0
0
VERTEX
8
WATERMARK
10
-10.98371
20
-4.53495
30
0
0
VERTEX
8
WATERMARK
10
-10.94297
20
-4.58269
30
0
0
VERTEX
8
WATERMARK
10
-10.89526
20
-4.62348
30
0
0
VERTEX
8
WATERMARK
10
-10.84176
20
-4.6563
30
0
0
VERTEX
8
WATERMARK
10
-10.78379
20
-4.68035
30
0
0
VERTEX
8
WATERMARK
10
-10.72276
20
-4.69503
30
0
0
VERTEX
8
WATERMARK
10
-10.6602
20
-4.69998
30
0
0
SEQEND
8
WATERMARK
0
POLYLINE
8
WATERMARK
66
1
70
1
0
VERTEX
8
WATERMARK
10
-6.79762
20
-4.69509
30
0
0
VERTEX
8
WATERMARK
10
-6.73658
20
-4.68047
30
0
0
VERTEX
8
WATERMARK
10
-6.67859
20
-4.65648
30
0
0
VERTEX
8
WATERMARK
10
-6.62505
20
-4.62371
30
0
0
VERTEX
8
WATERMARK
10
-6.57731
20
-4.58297
30
0
0
VERTEX
8
WATERMARK
10
-6.53652
20
-4.53526
30
0
0
VERTEX
8
WATERMARK
10
-6.5037
20
-4.48176
30
0
0
VERTEX
8
WATERMARK
10
-6.47965
20
-4.42379
30
0
0
VERTEX
8
WATERMARK
10
-6.46497
20
-4.36276
30
0
0
VERTEX
8
WATERMARK
10
-6.46002
20
-4.3002
30
0
0
VERTEX
8
WATERMARK
10
-6.46491
20
-4.23762
30
0
0
VERTEX
8
WATERMARK
10
-6.47953
20
-4.17658
30
0
0
VERTEX
8
WATERMARK
10
-6.50352
20
-4.11859
30
0
0
VERTEX
8
WATERMARK
10
-6.53629
20
-4.06505
30
0
0
VERTEX
8
WATERMARK
10
-6.57703
20
-4.01731
30
0
0
VERTEX
8
WATERMARK
10
-6.62474
20
-3.97652
30
0
0
VERTEX
8
WATERMARK
10
-6.67824
20
-3.9437
30
0
0
VERTEX
8
WATERMARK
10
-6.73621
20
-3.91965
30
0
0
VERTEX
8
WATERMARK
10
-6.79724
20
-3.90497
30
0
0
VERTEX
8
WATERMARK
10
-6.8599
20
-3.90001
30
0
0
VERTEX
8
WATERMARK
10
-7.25629
20
-3.89983
30
0
0
VERTEX
8
WATERMARK
10
-7.25983
20
-3.89629
30
0
0
VERTEX
8
WATERMARK
10
-7.25983
20
-3.30371
30
0
0
VERTEX
8
WATERMARK
10
-7.25629
20
-3.30017
30
0
0
VERTEX
8
WATERMARK
10
-6.8599
20
-3.29999
30
0
0
VERTEX
8
WATERMARK
10
-6.79762
20
-3.29509
30
0
0
VERTEX
8
WATERMARK
10
-6.73658
20
-3.28047
30
0
0
VERTEX
8
WATERMARK
10
-6.67859
20
-3.25648
30
0
0
VERTEX
8
WATERMARK
10
-6.62505
20
-3.22371
30
0
0
VERTEX
8
WATERMARK
10
-6.57731
20
-3.18297
30
0
0
VERTEX
8
WATERMARK
10
-6.53652
20
-3.13526
30
0
0
VERTEX
8
WATERMARK
10
-6.5037
20
-3.08176
30
0
0
VERTEX
8
WATERMARK
10
-6.47965
20
-3.02379
30
0
0
VERTEX
8
WATERMARK
10
-6.46497
20
-2.96276
30
0
0
VERTEX
8
WATERMARK
10
-6.46002
20
-2.9002
30
0
0
VERTEX
8
WATERMARK
10
-6.46491
20
-2.83762
30
0
0
VERTEX
8
WATERMARK
10
-6.47953
20
-2.77658
30
0
0
VERTEX
8
WATERMARK
10
-6.50352
20
-2.71859
30
0
0
VERTEX
8
WATERMARK
10
-6.53629
20
-2.66505
30
0
0
VERTEX
8
WATERMARK
10
-6.57703
20
-2.61731
30
0
0
VERTEX
8
WATERMARK
10
-6.62474
20
-2.57652
30
0
0
VERTEX
8
WATERMARK
10
-6.67824
20
-2.5437
30
0
0
VERTEX
8
WATERMARK
10
-6.73621
20
-2.51965
30
0
0
VERTEX
8
WATERMARK
10
-6.79724
20
-2.50497
30
0
0
VERTEX
8
WATERMARK
10
-6.8599
20
-2.50001
30
0
0
VERTEX
8
WATERMARK
10
-8.45989
20
-2.5
30
0
0
VERTEX
8
WATERMARK
10
-8.52924
20
-2.50606
30
0
0
VERTEX
8
WATERMARK
10
-8.5966
20
-2.52407
30
0
0
VERTEX
8
WATERMARK
10
-8.6598
20
-2.5535
30
0
0
VERTEX
8
WATERMARK
10
-8.71694
20
-2.59346
30
0
0
VERTEX
8
WATERMARK
10
-8.76626
20
-2.64273
30
0
0
VERTEX
8
WATERMARK
10
-8.80628
20
-2.69982
30
0
0
VERTEX
8
WATERMARK
10
-8.83578
20
-2.76299
30
0
0
VERTEX
8
WATERMARK
10
-8.85387
20
-2.83033
30
0
0
VERTEX
8
WATERMARK
10
-8.85998
20
-2.89978
30
0
0
VERTEX
8
WATERMARK
10
-8.85394
20
-2.96924
30
0
0
VERTEX
8
WATERMARK
10
-8.83593
20
-3.0366
30
0
0
VERTEX
8
WATERMARK
10
-8.8065
20
-3.0998
30
0
0
VERTEX
8
WATERMARK
10
-8.76654
20
-3.15694
30
0
0
VERTEX
8
WATERMARK
10
-8.71727
20
-3.20626
30
0
0
VERTEX
8
WATERMARK
10
-8.66018
20
-3.24628
30
0
0
VERTEX
8
WATERMARK
10
-8.59701
20
-3.27578
30
0
0
VERTEX
8
WATERMARK
10
-8.52967
20
-3.29387
30
0
0
VERTEX
8
WATERMARK
10
-8.46011
20
-3.29999
30
0
0
VERTEX
8
WATERMARK
10
-8.06371
20
-3.30017
30
0
0
VERTEX
8
WATERMARK
10
-8.06017
20
-3.30371
30
0
0
VERTEX
8
WATERMARK
10
-8.06017
20
-3.89629
30
0
0
VERTEX
8
WATERMARK
10
-8.06371
20
-3.89983
30
0
0
VERTEX
8
WATERMARK
10
-8.46011
20
-3.90001
30
0
0
VERTEX
8
WATERMARK
10
-8.52967
20
-3.90613
30
0
0
VERTEX
8
WATERMARK
10
-8.5966
20
-3.92407
30
0
0
VERTEX
8
WATERMARK
10
-8.6598
20
-3.9535
30
0
0
VERTEX
8
WATERMARK
10
-8.71694
20
-3.99346
30
0
0
VERTEX
8
WATERMARK
10
-8.76626
20
-4.04273
30
0
0
VERTEX
8
WATERMARK
10
-8.80628
20
-4.09982
30
0
0
VERTEX
8
WATERMARK
10
-8.83578
20
-4.16299
30
0
0
VERTEX
8
WATERMARK
10
-8.85387
20
-4.23033
30
0
0
VERTEX
8
WATERMARK
10
-8.85998
20
-4.29978
30
0
0
VERTEX
8
WATERMARK
10
-8.85394
20
-4.36924
30
0
0
VERTEX
8
WATERMARK
10
-8.83593
20
-4.4366
30
0
0
VERTEX
8
WATERMARK
10
-8.8065
20
-4.4998
30
0
0
VERTEX
8
WATERMARK
10
-8.76654
20
-4.55694
30
0
0
VERTEX
8
WATERMARK
10
-8.71727
20
-4.60626
30
0
0
VERTEX
8
WATERMARK
10
-8.66018
20
-4.64628
30
0
0
VERTEX
8
WATERMARK
10
-8.59701
20
-4.67578
30
0
0
VERTEX
8
WATERMARK
10
-8.52967
20
-4.69387
30
0
0
VERTEX
8
WATERMARK
10
-8.46011
20
-4.69999
30
0
0
VERTEX
8
WATERMARK
10
-6.8601
20
-4.7
30
0
0
SEQEND
8
WATERMARK
0
POLYLINE
8
WATERMARK
66
1
70
1
0
VERTEX
8
WATERMARK
10
-3.79762
20
-4.69509
30
0
0
VERTEX
8
WATERMARK
10
-3.73658
20
-4.68047
30
0
0
VERTEX
8
WATERMARK
10
-3.67859
20
-4.65648
30
0
0
VERTEX
8
WATERMARK
10
-3.62505
20
-4.62371
30
0
0
VERTEX
8
WATERMARK
10
-3.57731
20
-4.58297
30
0
0
VERTEX
8
WATERMARK
10
-3.53652
20
-4.53526
30
0
0
VERTEX
8
WATERMARK
10
-3.5037
20
-4.48176
30
0
0
VERTEX
8
WATERMARK
10
-3.47965
20
-4.42379
30
0
0
VERTEX
8
WATERMARK
10
-3.46497
20
-4.36276
30
0
0
VERTEX
8
WATERMARK
10
-3.46001
20
-4.3001
30
0
0
VERTEX
8
WATERMARK
10
-3.46
20
-2.90011
30
0
0
VERTEX
8
WATERMARK
10
-3.46606
20
-2.83076
30
0
0
VERTEX
8
WATERMARK
10
-3.48407
20
-2.7634
30
0
0
VERTEX
8
WATERMARK
10
-3.5135
20
-2.7002
30
0
0
VERTEX
8
WATERMARK
10
-3.55346
20
-2.64306
30
0
0
VERTEX
8
WATERMARK
10
-3.60273
20
-2.59374
30
0
0
VERTEX
8
WATERMARK
10
-3.65982
20
-2.55372
30
0
0
VERTEX
8
WATERMARK
10
-3.72299
20
-2.52422
30
0
0
VERTEX
8
WATERMARK
10
-3.79033
20
-2.50613
30
0
0
VERTEX
8
WATERMARK
10
-3.85989
20
-2.50001
30
0
0
VERTEX
8
WATERMARK
10
-5.4599
20
-2.5
30
0
0
VERTEX
8
WATERMARK
10
-5.52238
20
-2.50491
30
0
0
VERTEX
8
WATERMARK
10
-5.58342
20
-2.51953
30
0
0
VERTEX
8
WATERMARK
10
-5.64141
20
-2.54352
30
0
0
VERTEX
8
WATERMARK
10
-5.69495
20
-2.57629
30
0
0
VERTEX
8
WATERMARK
10
-5.74269
20
-2.61703
30
0
0
VERTEX
8
WATERMARK
10
-5.78348
20
-2.66474
30
0
0
VERTEX
8
WATERMARK
10
-5.8163
20
-2.71824
30
0
0
VERTEX
8
WATERMARK
10
-5.84035
20
-2.77621
30
0
0
VERTEX
8
WATERMARK
10
-5.85503
20
-2.83724
30
0
0
VERTEX
8
WATERMARK
10
-5.85999
20
-2.8999
30
0
0
VERTEX
8
WATERMARK
10
-5.86
20
-4.2999
30
0
0
VERTEX
8
WATERMARK
10
-5.85509
20
-4.36238
30
0
0
VERTEX
8
WATERMARK
10
-5.84047
20
-4.42342
30
0
0
VERTEX
8
WATERMARK
10
-5.81648
20
-4.48141
30
0
0
VERTEX
8
WATERMARK
10
-5.78371
20
-4.53495
30
0
0
VERTEX
8
WATERMARK
10
-5.74297
20
-4.58269
30
0
0
VERTEX
8
WATERMARK
10
-5.69526
20
-4.62348
30
0
0
VERTEX
8
WATERMARK
10
-5.64176
20
-4.6563
30
0
0
VERTEX
8
WATERMARK
10
-5.58379
20
-4.68035
30
0
0
VERTEX
8
WATERMARK
10
-5.52276
20
-4.69503
30
0
0
VERTEX
8
WATERMARK
10
-5.4601
20
-4.69999
30
0
0
VERTEX
8
WATERMARK
10
-3.8601
20
-4.7
30
0
0
SEQEND
8
WATERMARK
0
POLYLINE
8
WATERMARK
66
1
70
1
0
VERTEX
8
WATERMARK
10
-5.05629
20
-3.89983
30
0
0
VERTEX
8
WATERMARK
10
-5.05983
20
-3.89629
30
0
0
VERTEX
8
WATERMARK
10
-5.05933
20
-3.3025
30
0
0
VERTEX
8
WATERMARK
10
-5.0575
20
-3.30067
30
0
0
VERTEX
8
WATERMARK
10
-4.26371
20
-3.30017
30
0
0
VERTEX
8
WATERMARK
10
-4.26017
20
-3.30371
30
0
0
VERTEX
8
WATERMARK
10
-4.26067
20
-3.8975
30
0
0
VERTEX
8
WATERMARK
10
-4.2625
20
-3.89933
30
0
0
SEQEND
8
WATERMARK
0
POLYLINE
8
WATERMARK
66
1
70
1
0
VERTEX
8
WATERMARK
10
-12.77877
20
-4.69166
30
0
0
VERTEX
8
WATERMARK
10
-12.7185
20
-4.67413
30
0
0
VERTEX
8
WATERMARK
10
-12.66172
20
-4.64738
30
0
0
VERTEX
8
WATERMARK
10
-12.60982
20
-4.61209
30
0
0
VERTEX
8
WATERMARK
10
-12.56407
20
-4.56911
30
0
0
VERTEX
8
WATERMARK
10
-12.52562
20
-4.5195
30
0
0
VERTEX
8
WATERMARK
10
-12.4954
20
-4.46449
30
0
0
VERTEX
8
WATERMARK
10
-12.47415
20
-4.40543
30
0
0
VERTEX
8
WATERMARK
10
-12.46241
20
-4.34377
30
0
0
VERTEX
8
WATERMARK
10
-12.46046
20
-4.28104
30
0
0
VERTEX
8
WATERMARK
10
-12.46834
20
-4.21877
30
0
0
VERTEX
8
WATERMARK
10
-12.48587
20
-4.1585
30
0
0
VERTEX
8
WATERMARK
10
-12.51266
20
-4.10163
30
0
0
VERTEX
8
WATERMARK
10
-12.81221
20
-3.57741
30
0
0
VERTEX
8
WATERMARK
10
-12.82102
20
-3.5156
30
0
0
VERTEX
8
WATERMARK
10
-12.83839
20
-3.45717
30
0
0
VERTEX
8
WATERMARK
10
-12.86462
20
-3.40172
30
0
0
VERTEX
8
WATERMARK
10
-12.89903
20
-3.35093
30
0
0
VERTEX
8
WATERMARK
10
-12.94079
20
-3.306
30
0
0
VERTEX
8
WATERMARK
10
-12.98957
20
-3.26703
30
0
0
VERTEX
8
WATERMARK
10
-13.31275
20
-2.70147
30
0
0
VERTEX
8
WATERMARK
10
-13.34202
20
-2.65734
30
0
0
VERTEX
8
WATERMARK
10
-13.37704
20
-2.61728
30
0
0
VERTEX
8
WATERMARK
10
-13.41707
20
-2.58222
30
0
0
VERTEX
8
WATERMARK
10
-13.46138
20
-2.55281
30
0
0
VERTEX
8
WATERMARK
10
-13.52411
20
-2.52381
30
0
0
VERTEX
8
WATERMARK
10
-13.59091
20
-2.50602
30
0
0
VERTEX
8
WATERMARK
10
-13.65978
20
-2.50001
30
0
0
VERTEX
8
WATERMARK
10
-13.72866
20
-2.50595
30
0
0
VERTEX
8
WATERMARK
10
-13.79549
20
-2.52366
30
0
0
VERTEX
8
WATERMARK
10
-13.85829
20
-2.55262
30
0
0
VERTEX
8
WATERMARK
10
-13.90266
20
-2.58202
30
0
0
VERTEX
8
WATERMARK
10
-13.94272
20
-2.61704
30
0
0
VERTEX
8
WATERMARK
10
-13.97778
20
-2.65707
30
0
0
VERTEX
8
WATERMARK
10
-14.00725
20
-2.70147
30
0
0
VERTEX
8
WATERMARK
10
-14.33043
20
-3.26703
30
0
0
VERTEX
8
WATERMARK
10
-14.37921
20
-3.306
30
0
0
VERTEX
8
WATERMARK
10
-14.42073
20
-3.35063
30
0
0
VERTEX
8
WATERMARK
10
-14.45519
20
-3.40138
30
0
0
VERTEX
8
WATERMARK
10
-14.48147
20
-3.45681
30
0
0
VERTEX
8
WATERMARK
10
-14.49898
20
-3.5156
30
0
0
VERTEX
8
WATERMARK
10
-14.50779
20
-3.57741
30
0
0
VERTEX
8
WATERMARK
10
-14.80734
20
-4.10163
30
0
0
VERTEX
8
WATERMARK
10
-14.83413
20
-4.1585
30
0
0
VERTEX
8
WATERMARK
10
-14.85158
20
-4.21839
30
0
0
VERTEX
8
WATERMARK
10
-14.85952
20
-4.28065
30
0
0
VERTEX
8
WATERMARK
10
-14.85763
20
-4.34338
30
0
0
VERTEX
8
WATERMARK
10
-14.84595
20
-4.40505
30
0
0
VERTEX
8
WATERMARK
10
-14.82476
20
-4.46414
30
0
0
VERTEX
8
WATERMARK
10
-14.7946
20
-4.51918
30
0
0
VERTEX
8
WATERMARK
10
-14.75619
20
-4.56882
30
0
0
VERTEX
8
WATERMARK
10
-14.71049
20
-4.61184
30
0
0
VERTEX
8
WATERMARK
10
-14.65862
20
-4.64719
30
0
0
VERTEX
8
WATERMARK
10
-14.60186
20
-4.67399
30
0
0
VERTEX
8
WATERMARK
10
-14.54161
20
-4.69158
30
0
0
VERTEX
8
WATERMARK
10
-14.47935
20
-4.69952
30
0
0
VERTEX
8
WATERMARK
10
-14.41662
20
-4.69763
30
0
0
VERTEX
8
WATERMARK
10
-14.35495
20
-4.68595
30
0
0
VERTEX
8
WATERMARK
10
-14.29586
20
-4.66476
30
0
0
VERTEX
8
WATERMARK
10
-14.24082
20
-4.6346
30
0
0
VERTEX
8
WATERMARK
10
-14.19118
20
-4.59619
30
0
0
VERTEX
8
WATERMARK
10
-14.14816
20
-4.55049
30
0
0
VERTEX
8
WATERMARK
10
-14.11276
20
-4.49854
30
0
0
VERTEX
8
WATERMARK
10
-13.82852
20
-4.00148
30
0
0
VERTEX
8
WATERMARK
10
-13.82628
20
-4.00018
30
0
0
VERTEX
8
WATERMARK
10
-13.49374
20
-4.00017
30
0
0
VERTEX
8
WATERMARK
10
-13.4915
20
-4.00146
30
0
0
VERTEX
8
WATERMARK
10
-13.20724
20
-4.49854
30
0
0
VERTEX
8
WATERMARK
10
-13.17209
20
-4.55018
30
0
0
VERTEX
8
WATERMARK
10
-13.12911
20
-4.59593
30
0
0
VERTEX
8
WATERMARK
10
-13.0795
20
-4.63438
30
0
0
VERTEX
8
WATERMARK
10
-13.02449
20
-4.6646
30
0
0
VERTEX
8
WATERMARK
10
-12.96543
20
-4.68585
30
0
0
VERTEX
8
WATERMARK
10
-12.90377
20
-4.69759
30
0
0
VERTEX
8
WATERMARK
10
-12.84104
20
-4.69954
30
0
0
SEQEND
8
WATERMARK
0
POLYLINE
8
WATERMARK
66
1
70
1
0
VERTEX
8
WATERMARK
10
-0.79238
20
-4.69422
30
0
0
VERTEX
8
WATERMARK
10
-0.72651
20
-4.67705
30
0
0
VERTEX
8
WATERMARK
10
-0.66451
20
-4.64895
30
0
0
VERTEX
8
WATERMARK
10
-0.60817
20
-4.61075
30
0
0
VERTEX
8
WATERMARK
10
-0.55911
20
-4.56354
30
0
0
VERTEX
8
WATERMARK
10
-0.52445
20
-4.5177
30
0
0
VERTEX
8
WATERMARK
10
-0.49672
20
-4.46738
30
0
0
VERTEX
8
WATERMARK
10
-0.47649
20
-4.4136
30
0
0
VERTEX
8
WATERMARK
10
-0.46417
20
-4.35748
30
0
0
VERTEX
8
WATERMARK
10
-0.46001
20
-4.30009
30
0
0
VERTEX
8
WATERMARK
10
-0.46
20
-2.90011
30
0
0
VERTEX
8
WATERMARK
10
-0.46606
20
-2.83076
30
0
0
VERTEX
8
WATERMARK
10
-0.48407
20
-2.7634
30
0
0
VERTEX
8
WATERMARK
10
-0.5135
20
-2.7002
30
0
0
VERTEX
8
WATERMARK
10
-0.55346
20
-2.64306
30
0
0
VERTEX
8
WATERMARK
10
-0.60273
20
-2.59374
30
0
0
VERTEX
8
WATERMARK
10
-0.65982
20
-2.55372
30
0
0
VERTEX
8
WATERMARK
10
-0.72299
20
-2.52422
30
0
0
VERTEX
8
WATERMARK
10
-0.79033
20
-2.50613
30
0
0
VERTEX
8
WATERMARK
10
-0.85979
20
-2.50002
30
0
0
VERTEX
8
WATERMARK
10
-0.92238
20
-2.50491
30
0
0
VERTEX
8
WATERMARK
10
-0.98342
20
-2.51953
30
0
0
VERTEX
8
WATERMARK
10
-1.04141
20
-2.54352
30
0
0
VERTEX
8
WATERMARK
10
-1.09495
20
-2.57629
30
0
0
VERTEX
8
WATERMARK
10
-1.14269
20
-2.61703
30
0
0
VERTEX
8
WATERMARK
10
-1.18348
20
-2.66474
30
0
0
VERTEX
8
WATERMARK
10
-1.2163
20
-2.71824
30
0
0
VERTEX
8
WATERMARK
10
-1.24035
20
-2.77621
30
0
0
VERTEX
8
WATERMARK
10
-1.25503
20
-2.83724
30
0
0
VERTEX
8
WATERMARK
10
-1.25999
20
-2.8999
30
0
0
VERTEX
8
WATERMARK
10
-1.26017
20
-3.40877
30
0
0
VERTEX
8
WATERMARK
10
-1.26371
20
-3.4123
30
0
0
VERTEX
8
WATERMARK
10
-1.26629
20
-3.4123
30
0
0
VERTEX
8
WATERMARK
10
-2.19667
20
-2.59892
30
0
0
VERTEX
8
WATERMARK
10
-2.2423
20
-2.56445
30
0
0
VERTEX
8
WATERMARK
10
-2.29262
20
-2.53672
30
0
0
VERTEX
8
WATERMARK
10
-2.3464
20
-2.51649
30
0
0
VERTEX
8
WATERMARK
10
-2.40252
20
-2.50417
30
0
0
VERTEX
8
WATERMARK
10
-2.4598
20
-2.50001
30
0
0
VERTEX
8
WATERMARK
10
-2.52762
20
-2.50577
30
0
0
VERTEX
8
WATERMARK
10
-2.59349
20
-2.52295
30
0
0
VERTEX
8
WATERMARK
10
-2.65549
20
-2.55105
30
0
0
VERTEX
8
WATERMARK
10
-2.71183
20
-2.58925
30
0
0
VERTEX
8
WATERMARK
10
-2.76089
20
-2.63646
30
0
0
VERTEX
8
WATERMARK
10
-2.79555
20
-2.6823
30
0
0
VERTEX
8
WATERMARK
10
-2.82328
20
-2.73262
30
0
0
VERTEX
8
WATERMARK
10
-2.84351
20
-2.7864
30
0
0
VERTEX
8
WATERMARK
10
-2.85583
20
-2.84252
30
0
0
VERTEX
8
WATERMARK
10
-2.85999
20
-2.89991
30
0
0
VERTEX
8
WATERMARK
10
-2.86
20
-4.2999
30
0
0
VERTEX
8
WATERMARK
10
-2.85509
20
-4.36238
30
0
0
VERTEX
8
WATERMARK
10
-2.84047
20
-4.42342
30
0
0
VERTEX
8
WATERMARK
10
-2.81648
20
-4.48141
30
0
0
VERTEX
8
WATERMARK
10
-2.78371
20
-4.53495
30
0
0
VERTEX
8
WATERMARK
10
-2.74297
20
-4.58269
30
0
0
VERTEX
8
WATERMARK
10
-2.69526
20
-4.62348
30
0
0
VERTEX
8
WATERMARK
10
-2.64176
20
-4.6563
30
0
0
VERTEX
8
WATERMARK
10
-2.58379
20
-4.68035
30
0
0
VERTEX
8
WATERMARK
10
-2.52276
20
-4.69503
30
0
0
VERTEX
8
WATERMARK
10
-2.4602
20
-4.69998
30
0
0
VERTEX
8
WATERMARK
10
-2.39762
20
-4.69509
30
0
0
VERTEX
8
WATERMARK
10
-2.33658
20
-4.68047
30
0
0
VERTEX
8
WATERMARK
10
-2.27859
20
-4.65648
30
0
0
VERTEX
8
WATERMARK
10
-2.22505
20
-4.62371
30
0
0
VERTEX
8
WATERMARK
10
-2.17731
20
-4.58297
30
0
0
VERTEX
8
WATERMARK
10
-2.13652
20
-4.53526
30
0
0
VERTEX
8
WATERMARK
10
-2.1037
20
-4.48176
30
0
0
VERTEX
8
WATERMARK
10
-2.07965
20
-4.42379
30
0
0
VERTEX
8
WATERMARK
10
-2.06497
20
-4.36276
30
0
0
VERTEX
8
WATERMARK
10
-2.06001
20
-4.3001
30
0
0
VERTEX
8
WATERMARK
10
-2.05983
20
-3.79123
30
0
0
VERTEX
8
WATERMARK
10
-2.05629
20
-3.7877
30
0
0
VERTEX
8
WATERMARK
10
-2.05371
20
-3.7877
30
0
0
VERTEX
8
WATERMARK
10
-1.12333
20
-4.60108
30
0
0
VERTEX
8
WATERMARK
10
-1.0774
20
-4.63575
30
0
0
VERTEX
8
WATERMARK
10
-1.02738
20
-4.66328
30
0
0
VERTEX
8
WATERMARK
10
-0.9736
20
-4.68351
30
0
0
VERTEX
8
WATERMARK
10
-0.91748
20
-4.69583
30
0
0
VERTEX
8
WATERMARK
10
-0.8602
20
-4.69999
30
0
0
SEQEND
8
WATERMARK
0
POLYLINE
8
WATERMARK
66
1
70
1
0
VERTEX
8
WATERMARK
10
-16.59091
20
-4.69398
30
0
0
VERTEX
8
WATERMARK
10
-16.52411
20
-4.67619
30
0
0
VERTEX
8
WATERMARK
10
-16.46163
20
-4.6473
30
0
0
VERTEX
8
WATERMARK
10
-16.97248
20
-4.50778
30
0
0
VERTEX
8
WATERMARK
10
-16.97496
20
-4.50344
30
0
0
VERTEX
8
WATERMARK
10
-16.97428
20
-4.50094
30
0
0
VERTEX
8
WATERMARK
10
-16.96996
20
-4.49846
30
0
0
VERTEX
8
WATERMARK
10
-16.31272
20
-4.49842
30
0
0
VERTEX
8
WATERMARK
10
-15.51275
20
-3.09855
30
0
0
VERTEX
8
WATERMARK
10
-15.48601
20
-3.04186
30
0
0
VERTEX
8
WATERMARK
10
-15.46842
20
-2.98161
30
0
0
VERTEX
8
WATERMARK
10
-15.46048
20
-2.91935
30
0
0
VERTEX
8
WATERMARK
10
-15.46237
20
-2.85662
30
0
0
VERTEX
8
WATERMARK
10
-15.47405
20
-2.79495
30
0
0
VERTEX
8
WATERMARK
10
-15.49524
20
-2.73586
30
0
0
VERTEX
8
WATERMARK
10
-15.5254
20
-2.68082
30
0
0
VERTEX
8
WATERMARK
10
-15.56381
20
-2.63118
30
0
0
VERTEX
8
WATERMARK
10
-15.60951
20
-2.58816
30
0
0
VERTEX
8
WATERMARK
10
-15.66138
20
-2.55281
30
0
0
VERTEX
8
WATERMARK
10
-15.71814
20
-2.52601
30
0
0
VERTEX
8
WATERMARK
10
-15.77839
20
-2.50842
30
0
0
VERTEX
8
WATERMARK
10
-15.84065
20
-2.50048
30
0
0
VERTEX
8
WATERMARK
10
-15.90338
20
-2.50237
30
0
0
VERTEX
8
WATERMARK
10
-15.96505
20
-2.51405
30
0
0
VERTEX
8
WATERMARK
10
-16.02414
20
-2.53524
30
0
0
VERTEX
8
WATERMARK
10
-16.07918
20
-2.5654
30
0
0
VERTEX
8
WATERMARK
10
-16.12882
20
-2.60381
30
0
0
VERTEX
8
WATERMARK
10
-16.17184
20
-2.64951
30
0
0
VERTEX
8
WATERMARK
10
-16.20724
20
-2.70146
30
0
0
VERTEX
8
WATERMARK
10
-16.65645
20
-3.48721
30
0
0
VERTEX
8
WATERMARK
10
-16.65868
20
-3.48852
30
0
0
VERTEX
8
WATERMARK
10
-16.66352
20
-3.48724
30
0
0
VERTEX
8
WATERMARK
10
-17.11276
20
-2.70146
30
0
0
VERTEX
8
WATERMARK
10
-17.14791
20
-2.64982
30
0
0
VERTEX
8
WATERMARK
10
-17.19089
20
-2.60407
30
0
0
VERTEX
8
WATERMARK
10
-17.2405
20
-2.56562
30
0
0
VERTEX
8
WATERMARK
10
-17.29551
20
-2.5354
30
0
0
VERTEX
8
WATERMARK
10
-17.35457
20
-2.51415
30
0
0
VERTEX
8
WATERMARK
10
-17.41623
20
-2.50241
30
0
0
VERTEX
8
WATERMARK
10
-17.47896
20
-2.50046
30
0
0
VERTEX
8
WATERMARK
10
-17.54123
20
-2.50834
30
0
0
VERTEX
8
WATERMARK
10
-17.6015
20
-2.52587
30
0
0
VERTEX
8
WATERMARK
10
-17.65828
20
-2.55262
30
0
0
VERTEX
8
WATERMARK
10
-17.71018
20
-2.58791
30
0
0
VERTEX
8
WATERMARK
10
-17.75593
20
-2.63089
30
0
0
VERTEX
8
WATERMARK
10
-17.79438
20
-2.6805
30
0
0
VERTEX
8
WATERMARK
10
-17.8246
20
-2.73551
30
0
0
VERTEX
8
WATERMARK
10
-17.84585
20
-2.79457
30
0
0
VERTEX
8
WATERMARK
10
-17.85759
20
-2.85623
30
0
0
VERTEX
8
WATERMARK
10
-17.85954
20
-2.91896
30
0
0
VERTEX
8
WATERMARK
10
-17.85166
20
-2.98123
30
0
0
VERTEX
8
WATERMARK
10
-17.83413
20
-3.0415
30
0
0
VERTEX
8
WATERMARK
10
-17.80734
20
-3.09837
30
0
0
VERTEX
8
WATERMARK
10
-17.00725
20
-4.49853
30
0
0
VERTEX
8
WATERMARK
10
-16.97798
20
-4.54266
30
0
0
VERTEX
8
WATERMARK
10
-16.94296
20
-4.58272
30
0
0
VERTEX
8
WATERMARK
10
-16.90293
20
-4.61778
30
0
0
VERTEX
8
WATERMARK
10
-16.85862
20
-4.64719
30
0
0
VERTEX
8
WATERMARK
10
-16.79589
20
-4.67619
30
0
0
VERTEX
8
WATERMARK
10
-16.72909
20
-4.69398
30
0
0
VERTEX
8
WATERMARK
10
-16.66022
20
-4.69999
30
0
0
SEQEND
8
WATERMARK
0
ENDSEC
0
EOF
