999
JuSt Innovation - JuSt Innovation trace watermark 26A1 - JSI-WM-001-R1
0
SECTION
2
HEADER
9
$ACADVER
1
AC1009
9
$INSUNITS
70
4
9
$MEASUREMENT
70
1
0
ENDSEC
0
SECTION
2
ENTITIES
0
POLYLINE
8
WATERMARK
66
1
70
1
0
VERTEX
8
WATERMARK
10
-7.35647
20
0.90509
30
0
0
VERTEX
8
WATERMARK
10
-7.29436
20
0.92026
30
0
0
VERTEX
8
WATERMARK
10
-7.23546
20
0.94513
30
0
0
VERTEX
8
WATERMARK
10
-7.18128
20
0.97907
30
0
0
VERTEX
8
WATERMARK
10
-7.13319
20
1.02121
30
0
0
VERTEX
8
WATERMARK
10
-7.09237
20
1.07054
30
0
0
VERTEX
8
WATERMARK
10
-6.53236
20
1.87054
30
0
0
VERTEX
8
WATERMARK
10
-6.50133
20
1.92296
30
0
0
VERTEX
8
WATERMARK
10
-6.47858
20
1.97957
30
0
0
VERTEX
8
WATERMARK
10
-6.4647
20
2.03898
30
0
0
VERTEX
8
WATERMARK
10
-6.46001
20
2.0999
30
0
0
VERTEX
8
WATERMARK
10
-6.46
20
4.4999
30
0
0
VERTEX
8
WATERMARK
10
-6.46491
20
4.56238
30
0
0
VERTEX
8
WATERMARK
10
-6.47953
20
4.62342
30
0
0
VERTEX
8
WATERMARK
10
-6.50352
20
4.68141
30
0
0
VERTEX
8
WATERMARK
10
-6.53629
20
4.73495
30
0
0
VERTEX
8
WATERMARK
10
-6.57703
20
4.78269
30
0
0
VERTEX
8
WATERMARK
10
-6.62474
20
4.82348
30
0
0
VERTEX
8
WATERMARK
10
-6.67824
20
4.8563
30
0
0
VERTEX
8
WATERMARK
10
-6.73621
20
4.88035
30
0
0
VERTEX
8
WATERMARK
10
-6.79724
20
4.89503
30
0
0
VERTEX
8
WATERMARK
10
-6.8599
20
4.89999
30
0
0
VERTEX
8
WATERMARK
10
-8.8599
20
4.9
30
0
0
VERTEX
8
WATERMARK
10
-8.92238
20
4.89509
30
0
0
VERTEX
8
WATERMARK
10
-8.98342
20
4.88047
30
0
0
VERTEX
8
WATERMARK
10
-9.04141
20
4.85648
30
0
0
VERTEX
8
WATERMARK
10
-9.09495
20
4.82371
30
0
0
VERTEX
8
WATERMARK
10
-9.14269
20
4.78297
30
0
0
VERTEX
8
WATERMARK
10
-9.18348
20
4.73526
30
0
0
VERTEX
8
WATERMARK
10
-9.2163
20
4.68176
30
0
0
VERTEX
8
WATERMARK
10
-9.24035
20
4.62379
30
0
0
VERTEX
8
WATERMARK
10
-9.25503
20
4.56276
30
0
0
VERTEX
8
WATERMARK
10
-9.25998
20
4.5002
30
0
0
VERTEX
8
WATERMARK
10
-9.25509
20
4.43762
30
0
0
VERTEX
8
WATERMARK
10
-9.24047
20
4.37658
30
0
0
VERTEX
8
WATERMARK
10
-9.21648
20
4.31859
30
0
0
VERTEX
8
WATERMARK
10
-9.18371
20
4.26505
30
0
0
VERTEX
8
WATERMARK
10
-9.14297
20
4.21731
30
0
0
VERTEX
8
WATERMARK
10
-9.09526
20
4.17652
30
0
0
VERTEX
8
WATERMARK
10
-9.04176
20
4.1437
30
0
0
VERTEX
8
WATERMARK
10
-8.98379
20
4.11965
30
0
0
VERTEX
8
WATERMARK
10
-8.92276
20
4.10497
30
0
0
VERTEX
8
WATERMARK
10
-8.8601
20
4.10001
30
0
0
VERTEX
8
WATERMARK
10
-7.26371
20
4.09983
30
0
0
VERTEX
8
WATERMARK
10
-7.26017
20
4.09629
30
0
0
VERTEX
8
WATERMARK
10
-7.26067
20
2.22517
30
0
0
VERTEX
8
WATERMARK
10
-7.62765
20
1.70117
30
0
0
VERTEX
8
WATERMARK
10
-7.62999
20
1.70008
30
0
0
VERTEX
8
WATERMARK
10
-8.12351
20
1.70017
30
0
0
VERTEX
8
WATERMARK
10
-8.12575
20
1.70146
30
0
0
VERTEX
8
WATERMARK
10
-8.51077
20
2.39101
30
0
0
VERTEX
8
WATERMARK
10
-8.54974
20
2.44843
30
0
0
VERTEX
8
WATERMARK
10
-8.59829
20
2.49847
30
0
0
VERTEX
8
WATERMARK
10
-8.65479
20
2.53932
30
0
0
VERTEX
8
WATERMARK
10
-8.71752
20
2.56974
30
0
0
VERTEX
8
WATERMARK
10
-8.78459
20
2.5888
30
0
0
VERTEX
8
WATERMARK
10
-8.85394
20
2.59593
30
0
0
VERTEX
8
WATERMARK
10
-8.92348
20
2.59091
30
0
0
VERTEX
8
WATERMARK
10
-8.99109
20
2.57388
30
0
0
VERTEX
8
WATERMARK
10
-9.05472
20
2.54538
30
0
0
VERTEX
8
WATERMARK
10
-9.11243
20
2.50626
30
0
0
VERTEX
8
WATERMARK
10
-9.16247
20
2.45771
30
0
0
VERTEX
8
WATERMARK
10
-9.20332
20
2.40121
30
0
0
VERTEX
8
WATERMARK
10
-9.23374
20
2.33848
30
0
0
VERTEX
8
WATERMARK
10
-9.2528
20
2.27141
30
0
0
VERTEX
8
WATERMARK
10
-9.25993
20
2.20206
30
0
0
VERTEX
8
WATERMARK
10
-9.25491
20
2.13252
30
0
0
VERTEX
8
WATERMARK
10
-9.23788
20
2.06491
30
0
0
VERTEX
8
WATERMARK
10
-9.20933
20
2.00118
30
0
0
VERTEX
8
WATERMARK
10
-8.70934
20
1.10516
30
0
0
VERTEX
8
WATERMARK
10
-8.67593
20
1.0547
30
0
0
VERTEX
8
WATERMARK
10
-8.63524
20
1.00977
30
0
0
VERTEX
8
WATERMARK
10
-8.58822
20
0.97152
30
0
0
VERTEX
8
WATERMARK
10
-8.53597
20
0.9408
30
0
0
VERTEX
8
WATERMARK
10
-8.47967
20
0.91834
30
0
0
VERTEX
8
WATERMARK
10
-8.42063
20
0.90464
30
0
0
VERTEX
8
WATERMARK
10
-8.36009
20
0.90001
30
0
0
VERTEX
8
WATERMARK
10
-7.4201
20
0.9
30
0
0
SEQEND
8
WATERMARK
0
POLYLINE
8
WATERMARK
66
1
70
1
0
VERTEX
8
WATERMARK
10
-0.43305
20
0.90566
30
0
0
VERTEX
8
WATERMARK
10
-0.36779
20
0.9225
30
0
0
VERTEX
8
WATERMARK
10
-0.30628
20
0.95006
30
0
0
VERTEX
8
WATERMARK
10
-0.25028
20
0.98755
30
0
0
VERTEX
8
WATERMARK
10
-0.20136
20
1.03391
30
0
0
VERTEX
8
WATERMARK
10
-0.16086
20
1.08792
30
0
0
VERTEX
8
WATERMARK
10
0.27914
20
1.79191
30
0
0
VERTEX
8
WATERMARK
10
0.30992
20
1.85185
30
0
0
VERTEX
8
WATERMARK
10
0.33023
20
1.91621
30
0
0
VERTEX
8
WATERMARK
10
0.33943
20
1.98306
30
0
0
VERTEX
8
WATERMARK
10
0.33727
20
2.05051
30
0
0
VERTEX
8
WATERMARK
10
0.32379
20
2.11663
30
0
0
VERTEX
8
WATERMARK
10
0.29936
20
2.17965
30
0
0
VERTEX
8
WATERMARK
10
-0.06063
20
2.91565
30
0
0
VERTEX
8
WATERMARK
10
-0.09646
20
2.97518
30
0
0
VERTEX
8
WATERMARK
10
-0.14212
20
3.02769
30
0
0
VERTEX
8
WATERMARK
10
-0.19618
20
3.0715
30
0
0
VERTEX
8
WATERMARK
10
-0.25701
20
3.10527
30
0
0
VERTEX
8
WATERMARK
10
-0.32289
20
3.12802
30
0
0
VERTEX
8
WATERMARK
10
-1.42141
20
3.40283
30
0
0
VERTEX
8
WATERMARK
10
-1.60232
20
3.77103
30
0
0
VERTEX
8
WATERMARK
10
-1.60214
20
3.77362
30
0
0
VERTEX
8
WATERMARK
10
-1.39894
20
4.09866
30
0
0
VERTEX
8
WATERMARK
10
-1.39665
20
4.09987
30
0
0
VERTEX
8
WATERMARK
10
-0.74423
20
4.09983
30
0
0
VERTEX
8
WATERMARK
10
-0.28611
20
3.78606
30
0
0
VERTEX
8
WATERMARK
10
-0.22528
20
3.75177
30
0
0
VERTEX
8
WATERMARK
10
-0.15952
20
3.7286
30
0
0
VERTEX
8
WATERMARK
10
-0.09074
20
3.7172
30
0
0
VERTEX
8
WATERMARK
10
-0.02102
20
3.71793
30
0
0
VERTEX
8
WATERMARK
10
0.04751
20
3.73074
30
0
0
VERTEX
8
WATERMARK
10
0.11278
20
3.75526
30
0
0
VERTEX
8
WATERMARK
10
0.17279
20
3.79075
30
0
0
VERTEX
8
WATERMARK
10
0.22543
20
3.8358
30
0
0
VERTEX
8
WATERMARK
10
0.26975
20
3.88962
30
0
0
VERTEX
8
WATERMARK
10
0.30405
20
3.95032
30
0
0
VERTEX
8
WATERMARK
10
0.32729
20
4.01606
30
0
0
VERTEX
8
WATERMARK
10
0.33876
20
4.08483
30
0
0
VERTEX
8
WATERMARK
10
0.33812
20
4.15454
30
0
0
VERTEX
8
WATERMARK
10
0.32538
20
4.22309
30
0
0
VERTEX
8
WATERMARK
10
0.30092
20
4.28838
30
0
0
VERTEX
8
WATERMARK
10
0.26551
20
4.34844
30
0
0
VERTEX
8
WATERMARK
10
0.2202
20
4.40143
30
0
0
VERTEX
8
WATERMARK
10
0.16629
20
4.44582
30
0
0
VERTEX
8
WATERMARK
10
-0.39371
20
4.82984
30
0
0
VERTEX
8
WATERMARK
10
-0.44556
20
4.85994
30
0
0
VERTEX
8
WATERMARK
10
-0.50141
20
4.882
30
0
0
VERTEX
8
WATERMARK
10
-0.55994
20
4.89545
30
0
0
VERTEX
8
WATERMARK
10
-0.61991
20
4.89999
30
0
0
VERTEX
8
WATERMARK
10
-1.61989
20
4.9
30
0
0
VERTEX
8
WATERMARK
10
-1.68695
20
4.89434
30
0
0
VERTEX
8
WATERMARK
10
-1.75221
20
4.8775
30
0
0
VERTEX
8
WATERMARK
10
-1.81372
20
4.84994
30
0
0
VERTEX
8
WATERMARK
10
-1.86972
20
4.81245
30
0
0
VERTEX
8
WATERMARK
10
-1.91864
20
4.76609
30
0
0
VERTEX
8
WATERMARK
10
-1.95914
20
4.71208
30
0
0
VERTEX
8
WATERMARK
10
-2.39914
20
4.00809
30
0
0
VERTEX
8
WATERMARK
10
-2.42992
20
3.94815
30
0
0
VERTEX
8
WATERMARK
10
-2.45023
20
3.88379
30
0
0
VERTEX
8
WATERMARK
10
-2.45943
20
3.81694
30
0
0
VERTEX
8
WATERMARK
10
-2.45727
20
3.74949
30
0
0
VERTEX
8
WATERMARK
10
-2.44379
20
3.68337
30
0
0
VERTEX
8
WATERMARK
10
-2.41936
20
3.62035
30
0
0
VERTEX
8
WATERMARK
10
-2.05937
20
2.88435
30
0
0
VERTEX
8
WATERMARK
10
-2.02354
20
2.82482
30
0
0
VERTEX
8
WATERMARK
10
-1.97788
20
2.77231
30
0
0
VERTEX
8
WATERMARK
10
-1.92382
20
2.7285
30
0
0
VERTEX
8
WATERMARK
10
-1.86299
20
2.69473
30
0
0
VERTEX
8
WATERMARK
10
-1.79711
20
2.67198
30
0
0
VERTEX
8
WATERMARK
10
-0.69859
20
2.39717
30
0
0
VERTEX
8
WATERMARK
10
-0.51768
20
2.02897
30
0
0
VERTEX
8
WATERMARK
10
-0.51786
20
2.02638
30
0
0
VERTEX
8
WATERMARK
10
-0.72106
20
1.70134
30
0
0
VERTEX
8
WATERMARK
10
-0.72335
20
1.70013
30
0
0
VERTEX
8
WATERMARK
10
-1.46942
20
1.70017
30
0
0
VERTEX
8
WATERMARK
10
-1.79708
20
1.98543
30
0
0
VERTEX
8
WATERMARK
10
-1.85351
20
2.02656
30
0
0
VERTEX
8
WATERMARK
10
-1.91614
20
2.05721
30
0
0
VERTEX
8
WATERMARK
10
-1.9827
20
2.07644
30
0
0
VERTEX
8
WATERMARK
10
-2.05202
20
2.0839
30
0
0
VERTEX
8
WATERMARK
10
-2.12159
20
2.07921
30
0
0
VERTEX
8
WATERMARK
10
-2.18928
20
2.06251
30
0
0
VERTEX
8
WATERMARK
10
-2.25304
20
2.03431
30
0
0
VERTEX
8
WATERMARK
10
-2.31094
20
1.99547
30
0
0
VERTEX
8
WATERMARK
10
-2.36121
20
1.94716
30
0
0
VERTEX
8
WATERMARK
10
-2.40233
20
1.89086
30
0
0
VERTEX
8
WATERMARK
10
-2.43305
20
1.82827
30
0
0
VERTEX
8
WATERMARK
10
-2.45244
20
1.7613
30
0
0
VERTEX
8
WATERMARK
10
-2.4599
20
1.69198
30
0
0
VERTEX
8
WATERMARK
10
-2.45521
20
1.62241
30
0
0
VERTEX
8
WATERMARK
10
-2.43851
20
1.55472
30
0
0
VERTEX
8
WATERMARK
10
-2.41031
20
1.49096
30
0
0
VERTEX
8
WATERMARK
10
-2.37147
20
1.43306
30
0
0
VERTEX
8
WATERMARK
10
-2.32309
20
1.38271
30
0
0
VERTEX
8
WATERMARK
10
-1.88308
20
0.99869
30
0
0
VERTEX
8
WATERMARK
10
-1.83735
20
0.96422
30
0
0
VERTEX
8
WATERMARK
10
-1.78709
20
0.93659
30
0
0
VERTEX
8
WATERMARK
10
-1.7334
20
0.91643
30
0
0
VERTEX
8
WATERMARK
10
-1.67738
20
0.90415
30
0
0
VERTEX
8
WATERMARK
10
-1.62009
20
0.90001
30
0
0
VERTEX
8
WATERMARK
10
-0.50011
20
0.9
30
0
0
SEQEND
8
WATERMARK
0
POLYLINE
8
WATERMARK
66
1
70
1
0
VERTEX
8
WATERMARK
10
2.40238
20
0.90491
30
0
0
VERTEX
8
WATERMARK
10
2.46342
20
0.91953
30
0
0
VERTEX
8
WATERMARK
10
2.52141
20
0.94352
30
0
0
VERTEX
8
WATERMARK
10
2.57495
20
0.97629
30
0
0
VERTEX
8
WATERMARK
10
2.62269
20
1.01703
30
0
0
VERTEX
8
WATERMARK
10
2.66348
20
1.06474
30
0
0
VERTEX
8
WATERMARK
10
2.6963
20
1.11824
30
0
0
VERTEX
8
WATERMARK
10
2.72035
20
1.17621
30
0
0
VERTEX
8
WATERMARK
10
2.73503
20
1.23724
30
0
0
VERTEX
8
WATERMARK
10
2.73999
20
1.2999
30
0
0
VERTEX
8
WATERMARK
10
2.74017
20
3.69629
30
0
0
VERTEX
8
WATERMARK
10
2.74371
20
3.69983
30
0
0
VERTEX
8
WATERMARK
10
3.34011
20
3.70001
30
0
0
VERTEX
8
WATERMARK
10
3.40967
20
3.70613
30
0
0
VERTEX
8
WATERMARK
10
3.4766
20
3.72407
30
0
0
VERTEX
8
WATERMARK
10
3.5398
20
3.7535
30
0
0
VERTEX
8
WATERMARK
10
3.59694
20
3.79346
30
0
0
VERTEX
8
WATERMARK
10
3.64626
20
3.84273
30
0
0
VERTEX
8
WATERMARK
10
3.68628
20
3.89982
30
0
0
VERTEX
8
WATERMARK
10
3.71578
20
3.96299
30
0
0
VERTEX
8
WATERMARK
10
3.73387
20
4.03033
30
0
0
VERTEX
8
WATERMARK
10
3.73998
20
4.09979
30
0
0
VERTEX
8
WATERMARK
10
3.73509
20
4.16238
30
0
0
VERTEX
8
WATERMARK
10
3.72047
20
4.22342
30
0
0
VERTEX
8
WATERMARK
10
3.69648
20
4.28141
30
0
0
VERTEX
8
WATERMARK
10
3.66371
20
4.33495
30
0
0
VERTEX
8
WATERMARK
10
3.62297
20
4.38269
30
0
0
VERTEX
8
WATERMARK
10
3.57526
20
4.42348
30
0
0
VERTEX
8
WATERMARK
10
3.52176
20
4.4563
30
0
0
VERTEX
8
WATERMARK
10
3.46379
20
4.48035
30
0
0
VERTEX
8
WATERMARK
10
3.40276
20
4.49503
30
0
0
VERTEX
8
WATERMARK
10
3.3401
20
4.49999
30
0
0
VERTEX
8
WATERMARK
10
1.3401
20
4.5
30
0
0
VERTEX
8
WATERMARK
10
1.27762
20
4.49509
30
0
0
VERTEX
8
WATERMARK
10
1.21658
20
4.48047
30
0
0
VERTEX
8
WATERMARK
10
1.15859
20
4.45648
30
0
0
VERTEX
8
WATERMARK
10
1.10505
20
4.42371
30
0
0
VERTEX
8
WATERMARK
10
1.05731
20
4.38297
30
0
0
VERTEX
8
WATERMARK
10
1.01652
20
4.33526
30
0
0
VERTEX
8
WATERMARK
10
0.9837
20
4.28176
30
0
0
VERTEX
8
WATERMARK
10
0.95965
20
4.22379
30
0
0
VERTEX
8
WATERMARK
10
0.94497
20
4.16276
30
0
0
VERTEX
8
WATERMARK
10
0.94002
20
4.10021
30
0
0
VERTEX
8
WATERMARK
10
0.94606
20
4.03076
30
0
0
VERTEX
8
WATERMARK
10
0.96407
20
3.9634
30
0
0
VERTEX
8
WATERMARK
10
0.9935
20
3.9002
30
0
0
VERTEX
8
WATERMARK
10
1.03346
20
3.84306
30
0
0
VERTEX
8
WATERMARK
10
1.08273
20
3.79374
30
0
0
VERTEX
8
WATERMARK
10
1.13982
20
3.75372
30
0
0
VERTEX
8
WATERMARK
10
1.20299
20
3.72422
30
0
0
VERTEX
8
WATERMARK
10
1.27033
20
3.70613
30
0
0
VERTEX
8
WATERMARK
10
1.33989
20
3.70001
30
0
0
VERTEX
8
WATERMARK
10
1.93629
20
3.69983
30
0
0
VERTEX
8
WATERMARK
10
1.93983
20
3.69629
30
0
0
VERTEX
8
WATERMARK
10
1.94
20
1.3001
30
0
0
VERTEX
8
WATERMARK
10
1.94491
20
1.23762
30
0
0
VERTEX
8
WATERMARK
10
1.95953
20
1.17658
30
0
0
VERTEX
8
WATERMARK
10
1.98352
20
1.11859
30
0
0
VERTEX
8
WATERMARK
10
2.01629
20
1.06505
30
0
0
VERTEX
8
WATERMARK
10
2.05703
20
1.01731
30
0
0
VERTEX
8
WATERMARK
10
2.10474
20
0.97652
30
0
0
VERTEX
8
WATERMARK
10
2.15824
20
0.9437
30
0
0
VERTEX
8
WATERMARK
10
2.21621
20
0.91965
30
0
0
VERTEX
8
WATERMARK
10
2.27724
20
0.90497
30
0
0
VERTEX
8
WATERMARK
10
2.3398
20
0.90002
30
0
0
SEQEND
8
WATERMARK
0
POLYLINE
8
WATERMARK
66
1
70
1
0
VERTEX
8
WATERMARK
10
-16.69683
20
-4.19394
30
0
0
VERTEX
8
WATERMARK
10
-16.62947
20
-4.17593
30
0
0
VERTEX
8
WATERMARK
10
-16.56627
20
-4.1465
30
0
0
VERTEX
8
WATERMARK
10
-16.50913
20
-4.10654
30
0
0
VERTEX
8
WATERMARK
10
-16.45981
20
-4.05727
30
0
0
VERTEX
8
WATERMARK
10
-16.41972
20
-4.00009
30
0
0
VERTEX
8
WATERMARK
10
-14.22578
20
-0.20008
30
0
0
VERTEX
8
WATERMARK
10
-14.19987
20
-0.14631
30
0
0
VERTEX
8
WATERMARK
10
-14.18222
20
-0.08919
30
0
0
VERTEX
8
WATERMARK
10
-14.17329
20
-0.03008
30
0
0
VERTEX
8
WATERMARK
10
-14.17326
20
0.0297
30
0
0
VERTEX
8
WATERMARK
10
-14.18214
20
0.08882
30
0
0
VERTEX
8
WATERMARK
10
-14.19974
20
0.14596
30
0
0
VERTEX
8
WATERMARK
10
-14.22569
20
0.19992
30
0
0
VERTEX
8
WATERMARK
10
-16.41961
20
3.99991
30
0
0
VERTEX
8
WATERMARK
10
-16.45953
20
4.05694
30
0
0
VERTEX
8
WATERMARK
10
-16.5088
20
4.10626
30
0
0
VERTEX
8
WATERMARK
10
-16.56589
20
4.14628
30
0
0
VERTEX
8
WATERMARK
10
-16.62906
20
4.17578
30
0
0
VERTEX
8
WATERMARK
10
-16.6964
20
4.19387
30
0
0
VERTEX
8
WATERMARK
10
-16.76596
20
4.19999
30
0
0
VERTEX
8
WATERMARK
10
-21.15382
20
4.2
30
0
0
VERTEX
8
WATERMARK
10
-21.22317
20
4.19394
30
0
0
VERTEX
8
WATERMARK
10
-21.29053
20
4.17593
30
0
0
VERTEX
8
WATERMARK
10
-21.35373
20
4.1465
30
0
0
VERTEX
8
WATERMARK
10
-21.41087
20
4.10654
30
0
0
VERTEX
8
WATERMARK
10
-21.46019
20
4.05727
30
0
0
VERTEX
8
WATERMARK
10
-21.50028
20
4.00009
30
0
0
VERTEX
8
WATERMARK
10
-23.69422
20
0.20009
30
0
0
VERTEX
8
WATERMARK
10
-23.72364
20
0.13701
30
0
0
VERTEX
8
WATERMARK
10
-23.74173
20
0.06967
30
0
0
VERTEX
8
WATERMARK
10
-23.74784
20
0.00022
30
0
0
VERTEX
8
WATERMARK
10
-23.7418
20
-0.06924
30
0
0
VERTEX
8
WATERMARK
10
-23.72379
20
-0.1366
30
0
0
VERTEX
8
WATERMARK
10
-23.69432
20
-0.1999
30
0
0
VERTEX
8
WATERMARK
10
-21.50031
20
-3.99997
30
0
0
VERTEX
8
WATERMARK
10
-21.15392
20
-4.19996
30
0
0
VERTEX
8
WATERMARK
10
-16.76618
20
-4.2
30
0
0
SEQEND
8
WATERMARK
0
POLYLINE
8
WATERMARK
66
1
70
1
0
VERTEX
8
WATERMARK
10
-20.9214
20
-3.39983
30
0
0
VERTEX
8
WATERMARK
10
-20.92364
20
-3.39854
30
0
0
VERTEX
8
WATERMARK
10
-22.88521
20
0
30
0
0
VERTEX
8
WATERMARK
10
-21.89694
20
1.71273
30
0
0
VERTEX
8
WATERMARK
10
-21.8947
20
1.71402
30
0
0
VERTEX
8
WATERMARK
10
-21.88987
20
1.71273
30
0
0
VERTEX
8
WATERMARK
10
-21.85326
20
1.66697
30
0
0
VERTEX
8
WATERMARK
10
-21.80485
20
1.62334
30
0
0
VERTEX
8
WATERMARK
10
-21.75035
20
1.58835
30
0
0
VERTEX
8
WATERMARK
10
-21.69054
20
1.56248
30
0
0
VERTEX
8
WATERMARK
10
-21.62732
20
1.54666
30
0
0
VERTEX
8
WATERMARK
10
-21.56227
20
1.54131
30
0
0
VERTEX
8
WATERMARK
10
-20.39632
20
1.54113
30
0
0
VERTEX
8
WATERMARK
10
-20.39278
20
1.53759
30
0
0
VERTEX
8
WATERMARK
10
-20.39261
20
-0.89328
30
0
0
VERTEX
8
WATERMARK
10
-20.50205
20
-1.27643
30
0
0
VERTEX
8
WATERMARK
10
-20.7745
20
-1.45844
30
0
0
VERTEX
8
WATERMARK
10
-20.99707
20
-1.45853
30
0
0
VERTEX
8
WATERMARK
10
-21.20846
20
-1.19585
30
0
0
VERTEX
8
WATERMARK
10
-21.25132
20
-1.15013
30
0
0
VERTEX
8
WATERMARK
10
-21.30087
20
-1.1116
30
0
0
VERTEX
8
WATERMARK
10
-21.35583
20
-1.0813
30
0
0
VERTEX
8
WATERMARK
10
-21.41486
20
-1.05996
30
0
0
VERTEX
8
WATERMARK
10
-21.4765
20
-1.04813
30
0
0
VERTEX
8
WATERMARK
10
-21.53924
20
-1.04608
30
0
0
VERTEX
8
WATERMARK
10
-21.60152
20
-1.05388
30
0
0
VERTEX
8
WATERMARK
10
-21.66181
20
-1.07131
30
0
0
VERTEX
8
WATERMARK
10
-21.71863
20
-1.09797
30
0
0
VERTEX
8
WATERMARK
10
-21.77059
20
-1.13319
30
0
0
VERTEX
8
WATERMARK
10
-21.81639
20
-1.1761
30
0
0
VERTEX
8
WATERMARK
10
-21.85492
20
-1.22565
30
0
0
VERTEX
8
WATERMARK
10
-21.88522
20
-1.28061
30
0
0
VERTEX
8
WATERMARK
10
-21.90656
20
-1.33964
30
0
0
VERTEX
8
WATERMARK
10
-21.91839
20
-1.40128
30
0
0
VERTEX
8
WATERMARK
10
-21.92044
20
-1.46402
30
0
0
VERTEX
8
WATERMARK
10
-21.91264
20
-1.5263
30
0
0
VERTEX
8
WATERMARK
10
-21.89521
20
-1.58659
30
0
0
VERTEX
8
WATERMARK
10
-21.86855
20
-1.64341
30
0
0
VERTEX
8
WATERMARK
10
-21.83328
20
-1.69545
30
0
0
VERTEX
8
WATERMARK
10
-21.50284
20
-2.1085
30
0
0
VERTEX
8
WATERMARK
10
-21.46225
20
-2.15213
30
0
0
VERTEX
8
WATERMARK
10
-21.41557
20
-2.18931
30
0
0
VERTEX
8
WATERMARK
10
-21.36387
20
-2.21912
30
0
0
VERTEX
8
WATERMARK
10
-21.30831
20
-2.24092
30
0
0
VERTEX
8
WATERMARK
10
-21.25013
20
-2.25421
30
0
0
VERTEX
8
WATERMARK
10
-21.19052
20
-2.25869
30
0
0
VERTEX
8
WATERMARK
10
-20.65357
20
-2.2587
30
0
0
VERTEX
8
WATERMARK
10
-20.59507
20
-2.2544
30
0
0
VERTEX
8
WATERMARK
10
-20.53775
20
-2.24158
30
0
0
VERTEX
8
WATERMARK
10
-20.48291
20
-2.2205
30
0
0
VERTEX
8
WATERMARK
10
-20.43168
20
-2.19157
30
0
0
VERTEX
8
WATERMARK
10
-19.93602
20
-1.86113
30
0
0
VERTEX
8
WATERMARK
10
-19.89155
20
-1.82673
30
0
0
VERTEX
8
WATERMARK
10
-19.85227
20
-1.78638
30
0
0
VERTEX
8
WATERMARK
10
-19.81905
20
-1.74091
30
0
0
VERTEX
8
WATERMARK
10
-19.79255
20
-1.69123
30
0
0
VERTEX
8
WATERMARK
10
-19.77325
20
-1.63823
30
0
0
VERTEX
8
WATERMARK
10
-19.60802
20
-1.05997
30
0
0
VERTEX
8
WATERMARK
10
-19.59651
20
-1.00565
30
0
0
VERTEX
8
WATERMARK
10
-19.59262
20
-0.95009
30
0
0
VERTEX
8
WATERMARK
10
-19.59261
20
1.94119
30
0
0
VERTEX
8
WATERMARK
10
-19.59867
20
2.01054
30
0
0
VERTEX
8
WATERMARK
10
-19.61668
20
2.0779
30
0
0
VERTEX
8
WATERMARK
10
-19.64611
20
2.1411
30
0
0
VERTEX
8
WATERMARK
10
-19.68607
20
2.19824
30
0
0
VERTEX
8
WATERMARK
10
-19.73534
20
2.24756
30
0
0
VERTEX
8
WATERMARK
10
-19.79243
20
2.28758
30
0
0
VERTEX
8
WATERMARK
10
-19.8556
20
2.31708
30
0
0
VERTEX
8
WATERMARK
10
-19.92294
20
2.33517
30
0
0
VERTEX
8
WATERMARK
10
-19.9925
20
2.34129
30
0
0
VERTEX
8
WATERMARK
10
-21.52686
20
2.34147
30
0
0
VERTEX
8
WATERMARK
10
-21.5304
20
2.34501
30
0
0
VERTEX
8
WATERMARK
10
-21.5304
20
2.34759
30
0
0
VERTEX
8
WATERMARK
10
-20.9226
20
3.39933
30
0
0
VERTEX
8
WATERMARK
10
-16.9986
20
3.39983
30
0
0
VERTEX
8
WATERMARK
10
-16.99636
20
3.39854
30
0
0
VERTEX
8
WATERMARK
10
-16.2751
20
2.14927
30
0
0
VERTEX
8
WATERMARK
10
-16.27639
20
2.14444
30
0
0
VERTEX
8
WATERMARK
10
-16.28122
20
2.14315
30
0
0
VERTEX
8
WATERMARK
10
-16.77202
20
2.36393
30
0
0
VERTEX
8
WATERMARK
10
-16.82465
20
2.38328
30
0
0
VERTEX
8
WATERMARK
10
-16.87972
20
2.39513
30
0
0
VERTEX
8
WATERMARK
10
-16.936
20
2.39912
30
0
0
VERTEX
8
WATERMARK
10
-17.76207
20
2.39913
30
0
0
VERTEX
8
WATERMARK
10
-17.82652
20
2.39391
30
0
0
VERTEX
8
WATERMARK
10
-17.88938
20
2.37835
30
0
0
VERTEX
8
WATERMARK
10
-17.94901
20
2.35281
30
0
0
VERTEX
8
WATERMARK
10
-18.52728
20
2.04716
30
0
0
VERTEX
8
WATERMARK
10
-18.57741
20
2.01571
30
0
0
VERTEX
8
WATERMARK
10
-18.62242
20
1.97716
30
0
0
VERTEX
8
WATERMARK
10
-18.66124
20
1.93238
30
0
0
VERTEX
8
WATERMARK
10
-18.69302
20
1.88235
30
0
0
VERTEX
8
WATERMARK
10
-18.71709
20
1.82809
30
0
0
VERTEX
8
WATERMARK
10
-18.92362
20
1.24984
30
0
0
VERTEX
8
WATERMARK
10
-18.93986
20
1.19014
30
0
0
VERTEX
8
WATERMARK
10
-18.94672
20
1.12855
30
0
0
VERTEX
8
WATERMARK
10
-18.94398
20
1.06664
30
0
0
VERTEX
8
WATERMARK
10
-18.93171
20
1.00589
30
0
0
VERTEX
8
WATERMARK
10
-18.91017
20
0.94768
30
0
0
VERTEX
8
WATERMARK
10
-18.66235
20
0.41073
30
0
0
VERTEX
8
WATERMARK
10
-18.63082
20
0.35472
30
0
0
VERTEX
8
WATERMARK
10
-18.59066
20
0.30441
30
0
0
VERTEX
8
WATERMARK
10
-18.54296
20
0.26119
30
0
0
VERTEX
8
WATERMARK
10
-18.48885
20
0.22612
30
0
0
VERTEX
8
WATERMARK
10
-17.95188
20
-0.06302
30
0
0
VERTEX
8
WATERMARK
10
-17.90676
20
-0.08382
30
0
0
VERTEX
8
WATERMARK
10
-17.85926
20
-0.09891
30
0
0
VERTEX
8
WATERMARK
10
-17.253
20
-0.25068
30
0
0
VERTEX
8
WATERMARK
10
-16.91038
20
-0.45074
30
0
0
VERTEX
8
WATERMARK
10
-16.77871
20
-0.71392
30
0
0
VERTEX
8
WATERMARK
10
-16.84824
20
-1.03961
30
0
0
VERTEX
8
WATERMARK
10
-17.14464
20
-1.33609
30
0
0
VERTEX
8
WATERMARK
10
-17.70016
20
-1.49057
30
0
0
VERTEX
8
WATERMARK
10
-18.35738
20
-1.38152
30
0
0
VERTEX
8
WATERMARK
10
-18.41962
20
-1.37612
30
0
0
VERTEX
8
WATERMARK
10
-18.48223
20
-1.38051
30
0
0
VERTEX
8
WATERMARK
10
-18.54338
20
-1.39463
30
0
0
VERTEX
8
WATERMARK
10
-18.60157
20
-1.41816
30
0
0
VERTEX
8
WATERMARK
10
-18.65537
20
-1.45049
30
0
0
VERTEX
8
WATERMARK
10
-18.70344
20
-1.49085
30
0
0
VERTEX
8
WATERMARK
10
-18.74461
20
-1.53822
30
0
0
VERTEX
8
WATERMARK
10
-18.77786
20
-1.59146
30
0
0
VERTEX
8
WATERMARK
10
-18.80238
20
-1.64924
30
0
0
VERTEX
8
WATERMARK
10
-18.81755
20
-1.71013
30
0
0
VERTEX
8
WATERMARK
10
-18.82301
20
-1.77962
30
0
0
VERTEX
8
WATERMARK
10
-18.81632
20
-1.84902
30
0
0
VERTEX
8
WATERMARK
10
-18.79767
20
-1.91621
30
0
0
VERTEX
8
WATERMARK
10
-18.76765
20
-1.97913
30
0
0
VERTEX
8
WATERMARK
10
-18.72716
20
-2.03589
30
0
0
VERTEX
8
WATERMARK
10
-18.67742
20
-2.08475
30
0
0
VERTEX
8
WATERMARK
10
-18.61996
20
-2.12423
30
0
0
VERTEX
8
WATERMARK
10
-18.55651
20
-2.15314
30
0
0
VERTEX
8
WATERMARK
10
-18.48891
20
-2.17061
30
0
0
VERTEX
8
WATERMARK
10
-17.74541
20
-2.29455
30
0
0
VERTEX
8
WATERMARK
10
-17.68766
20
-2.29991
30
0
0
VERTEX
8
WATERMARK
10
-17.62965
20
-2.29686
30
0
0
VERTEX
8
WATERMARK
10
-17.5726
20
-2.28543
30
0
0
VERTEX
8
WATERMARK
10
-16.82913
20
-2.07892
30
0
0
VERTEX
8
WATERMARK
10
-16.76503
20
-2.05504
30
0
0
VERTEX
8
WATERMARK
10
-16.70584
20
-2.02055
30
0
0
VERTEX
8
WATERMARK
10
-16.65332
20
-1.97639
30
0
0
VERTEX
8
WATERMARK
10
-16.19896
20
-1.52203
30
0
0
VERTEX
8
WATERMARK
10
-16.16146
20
-1.47873
30
0
0
VERTEX
8
WATERMARK
10
-16.13047
20
-1.43043
30
0
0
VERTEX
8
WATERMARK
10
-16.10671
20
-1.3782
30
0
0
VERTEX
8
WATERMARK
10
-16.09065
20
-1.32303
30
0
0
VERTEX
8
WATERMARK
10
-15.96673
20
-0.74478
30
0
0
VERTEX
8
WATERMARK
10
-15.95822
20
-0.67804
30
0
0
VERTEX
8
WATERMARK
10
-15.96101
20
-0.6107
30
0
0
VERTEX
8
WATERMARK
10
-15.97506
20
-0.54479
30
0
0
VERTEX
8
WATERMARK
10
-16.00002
20
-0.48208
30
0
0
VERTEX
8
WATERMARK
10
-16.24784
20
0.01359
30
0
0
VERTEX
8
WATERMARK
10
-16.27734
20
0.06325
30
0
0
VERTEX
8
WATERMARK
10
-16.31373
20
0.10823
30
0
0
VERTEX
8
WATERMARK
10
-16.35623
20
0.14748
30
0
0
VERTEX
8
WATERMARK
10
-16.40403
20
0.18024
30
0
0
VERTEX
8
WATERMARK
10
-16.89968
20
0.46938
30
0
0
VERTEX
8
WATERMARK
10
-16.95036
20
0.49432
30
0
0
VERTEX
8
WATERMARK
10
-17.00421
20
0.51194
30
0
0
VERTEX
8
WATERMARK
10
-17.61599
20
0.6649
30
0
0
VERTEX
8
WATERMARK
10
-17.9915
20
0.86711
30
0
0
VERTEX
8
WATERMARK
10
-18.11485
20
1.13391
30
0
0
VERTEX
8
WATERMARK
10
-18.0161
20
1.41184
30
0
0
VERTEX
8
WATERMARK
10
-17.66283
20
1.599
30
0
0
VERTEX
8
WATERMARK
10
-17.02301
20
1.59913
30
0
0
VERTEX
8
WATERMARK
10
-16.60448
20
1.41128
30
0
0
VERTEX
8
WATERMARK
10
-16.53853
20
1.38832
30
0
0
VERTEX
8
WATERMARK
10
-16.46971
20
1.37718
30
0
0
VERTEX
8
WATERMARK
10
-16.39999
20
1.37816
30
0
0
VERTEX
8
WATERMARK
10
-16.33151
20
1.39123
30
0
0
VERTEX
8
WATERMARK
10
-16.26633
20
1.41599
30
0
0
VERTEX
8
WATERMARK
10
-16.20645
20
1.45169
30
0
0
VERTEX
8
WATERMARK
10
-16.15367
20
1.49725
30
0
0
VERTEX
8
WATERMARK
10
-16.10985
20
1.55092
30
0
0
VERTEX
8
WATERMARK
10
-16.07578
20
1.61175
30
0
0
VERTEX
8
WATERMARK
10
-16.05295
20
1.67691
30
0
0
VERTEX
8
WATERMARK
10
-16.04353
20
1.73269
30
0
0
VERTEX
8
WATERMARK
10
-16.03946
20
1.7356
30
0
0
VERTEX
8
WATERMARK
10
-16.03491
20
1.73354
30
0
0
VERTEX
8
WATERMARK
10
-15.03496
20
0.00129
30
0
0
VERTEX
8
WATERMARK
10
-15.03496
20
-0.00129
30
0
0
VERTEX
8
WATERMARK
10
-16.9974
20
-3.39933
30
0
0
SEQEND
8
WATERMARK
0
POLYLINE
8
WATERMARK
66
1
70
1
0
VERTEX
8
WATERMARK
10
-3.84199
20
0.90424
30
0
0
VERTEX
8
WATERMARK
10
-3.78502
20
0.9169
30
0
0
VERTEX
8
WATERMARK
10
-3.73051
20
0.9377
30
0
0
VERTEX
8
WATERMARK
10
-3.6796
20
0.96622
30
0
0
VERTEX
8
WATERMARK
10
-3.63338
20
1.00183
30
0
0
VERTEX
8
WATERMARK
10
-3.59277
20
1.04386
30
0
0
VERTEX
8
WATERMARK
10
-3.15278
20
1.57185
30
0
0
VERTEX
8
WATERMARK
10
-3.11321
20
1.62871
30
0
0
VERTEX
8
WATERMARK
10
-3.08398
20
1.69163
30
0
0
VERTEX
8
WATERMARK
10
-3.06607
20
1.75867
30
0
0
VERTEX
8
WATERMARK
10
-3.06001
20
1.82789
30
0
0
VERTEX
8
WATERMARK
10
-3.06
20
3.69989
30
0
0
VERTEX
8
WATERMARK
10
-3.06606
20
3.76924
30
0
0
VERTEX
8
WATERMARK
10
-3.08407
20
3.8366
30
0
0
VERTEX
8
WATERMARK
10
-3.1135
20
3.8998
30
0
0
VERTEX
8
WATERMARK
10
-3.15346
20
3.95694
30
0
0
VERTEX
8
WATERMARK
10
-3.20273
20
4.00626
30
0
0
VERTEX
8
WATERMARK
10
-3.25982
20
4.04628
30
0
0
VERTEX
8
WATERMARK
10
-3.32299
20
4.07578
30
0
0
VERTEX
8
WATERMARK
10
-3.39033
20
4.09387
30
0
0
VERTEX
8
WATERMARK
10
-3.45978
20
4.09998
30
0
0
VERTEX
8
WATERMARK
10
-3.52924
20
4.09394
30
0
0
VERTEX
8
WATERMARK
10
-3.5966
20
4.07593
30
0
0
VERTEX
8
WATERMARK
10
-3.6598
20
4.0465
30
0
0
VERTEX
8
WATERMARK
10
-3.71694
20
4.00654
30
0
0
VERTEX
8
WATERMARK
10
-3.76626
20
3.95727
30
0
0
VERTEX
8
WATERMARK
10
-3.80628
20
3.90018
30
0
0
VERTEX
8
WATERMARK
10
-3.83578
20
3.83701
30
0
0
VERTEX
8
WATERMARK
10
-3.85387
20
3.76967
30
0
0
VERTEX
8
WATERMARK
10
-3.85999
20
3.70011
30
0
0
VERTEX
8
WATERMARK
10
-3.86017
20
1.97334
30
0
0
VERTEX
8
WATERMARK
10
-4.08681
20
1.70091
30
0
0
VERTEX
8
WATERMARK
10
-4.8316
20
1.70017
30
0
0
VERTEX
8
WATERMARK
10
-5.05954
20
1.97253
30
0
0
VERTEX
8
WATERMARK
10
-5.06001
20
3.70011
30
0
0
VERTEX
8
WATERMARK
10
-5.06613
20
3.76967
30
0
0
VERTEX
8
WATERMARK
10
-5.08407
20
3.8366
30
0
0
VERTEX
8
WATERMARK
10
-5.1135
20
3.8998
30
0
0
VERTEX
8
WATERMARK
10
-5.15346
20
3.95694
30
0
0
VERTEX
8
WATERMARK
10
-5.20273
20
4.00626
30
0
0
VERTEX
8
WATERMARK
10
-5.25982
20
4.04628
30
0
0
VERTEX
8
WATERMARK
10
-5.32299
20
4.07578
30
0
0
VERTEX
8
WATERMARK
10
-5.39033
20
4.09387
30
0
0
VERTEX
8
WATERMARK
10
-5.45978
20
4.09998
30
0
0
VERTEX
8
WATERMARK
10
-5.52924
20
4.09394
30
0
0
VERTEX
8
WATERMARK
10
-5.5966
20
4.07593
30
0
0
VERTEX
8
WATERMARK
10
-5.6598
20
4.0465
30
0
0
VERTEX
8
WATERMARK
10
-5.71694
20
4.00654
30
0
0
VERTEX
8
WATERMARK
10
-5.76626
20
3.95727
30
0
0
VERTEX
8
WATERMARK
10
-5.80628
20
3.90018
30
0
0
VERTEX
8
WATERMARK
10
-5.83578
20
3.83701
30
0
0
VERTEX
8
WATERMARK
10
-5.85387
20
3.76967
30
0
0
VERTEX
8
WATERMARK
10
-5.85999
20
3.70011
30
0
0
VERTEX
8
WATERMARK
10
-5.86
20
1.82811
30
0
0
VERTEX
8
WATERMARK
10
-5.854
20
1.75909
30
0
0
VERTEX
8
WATERMARK
10
-5.83616
20
1.69204
30
0
0
VERTEX
8
WATERMARK
10
-5.80701
20
1.62908
30
0
0
VERTEX
8
WATERMARK
10
-5.76735
20
1.57202
30
0
0
VERTEX
8
WATERMARK
10
-5.32735
20
1.044
30
0
0
VERTEX
8
WATERMARK
10
-5.28689
20
1.00208
30
0
0
VERTEX
8
WATERMARK
10
-5.24071
20
0.96642
30
0
0
VERTEX
8
WATERMARK
10
-5.18982
20
0.93785
30
0
0
VERTEX
8
WATERMARK
10
-5.13533
20
0.917
30
0
0
VERTEX
8
WATERMARK
10
-5.07838
20
0.9043
30
0
0
VERTEX
8
WATERMARK
10
-5.02009
20
0.90001
30
0
0
VERTEX
8
WATERMARK
10
-3.90009
20
0.9
30
0
0
SEQEND
8
WATERMARK
0
POLYLINE
8
WATERMARK
66
1
70
1
0
VERTEX
8
WATERMARK
10
7.05967
20
-3.59387
30
0
0
VERTEX
8
WATERMARK
10
7.1266
20
-3.57593
30
0
0
VERTEX
8
WATERMARK
10
7.1898
20
-3.5465
30
0
0
VERTEX
8
WATERMARK
10
7.24694
20
-3.50654
30
0
0
VERTEX
8
WATERMARK
10
7.29626
20
-3.45727
30
0
0
VERTEX
8
WATERMARK
10
7.33628
20
-3.40018
30
0
0
VERTEX
8
WATERMARK
10
7.36578
20
-3.33701
30
0
0
VERTEX
8
WATERMARK
10
7.38387
20
-3.26967
30
0
0
VERTEX
8
WATERMARK
10
7.38999
20
-3.20011
30
0
0
VERTEX
8
WATERMARK
10
7.39
20
3.19989
30
0
0
VERTEX
8
WATERMARK
10
7.38394
20
3.26924
30
0
0
VERTEX
8
WATERMARK
10
7.36593
20
3.3366
30
0
0
VERTEX
8
WATERMARK
10
7.3365
20
3.3998
30
0
0
VERTEX
8
WATERMARK
10
7.29654
20
3.45694
30
0
0
VERTEX
8
WATERMARK
10
7.24727
20
3.50626
30
0
0
VERTEX
8
WATERMARK
10
7.19018
20
3.54628
30
0
0
VERTEX
8
WATERMARK
10
7.12701
20
3.57578
30
0
0
VERTEX
8
WATERMARK
10
7.05967
20
3.59387
30
0
0
VERTEX
8
WATERMARK
10
6.99022
20
3.59998
30
0
0
VERTEX
8
WATERMARK
10
6.92076
20
3.59394
30
0
0
VERTEX
8
WATERMARK
10
6.8534
20
3.57593
30
0
0
VERTEX
8
WATERMARK
10
6.7902
20
3.5465
30
0
0
VERTEX
8
WATERMARK
10
6.73306
20
3.50654
30
0
0
VERTEX
8
WATERMARK
10
6.68374
20
3.45727
30
0
0
VERTEX
8
WATERMARK
10
6.64372
20
3.40018
30
0
0
VERTEX
8
WATERMARK
10
6.61422
20
3.33701
30
0
0
VERTEX
8
WATERMARK
10
6.59613
20
3.26967
30
0
0
VERTEX
8
WATERMARK
10
6.59001
20
3.20011
30
0
0
VERTEX
8
WATERMARK
10
6.59
20
-3.19989
30
0
0
VERTEX
8
WATERMARK
10
6.59606
20
-3.26924
30
0
0
VERTEX
8
WATERMARK
10
6.61407
20
-3.3366
30
0
0
VERTEX
8
WATERMARK
10
6.6435
20
-3.3998
30
0
0
VERTEX
8
WATERMARK
10
6.68346
20
-3.45694
30
0
0
VERTEX
8
WATERMARK
10
6.73273
20
-3.50626
30
0
0
VERTEX
8
WATERMARK
10
6.78982
20
-3.54628
30
0
0
VERTEX
8
WATERMARK
10
6.85299
20
-3.57578
30
0
0
VERTEX
8
WATERMARK
10
6.92033
20
-3.59387
30
0
0
VERTEX
8
WATERMARK
10
6.98978
20
-3.59998
30
0
0
SEQEND
8
WATERMARK
0
POLYLINE
8
WATERMARK
66
1
70
1
0
VERTEX
8
WATERMARK
10
10.05238
20
-1.89509
30
0
0
VERTEX
8
WATERMARK
10
10.11342
20
-1.88047
30
0
0
VERTEX
8
WATERMARK
10
10.17141
20
-1.85648
30
0
0
VERTEX
8
WATERMARK
10
10.22495
20
-1.82371
30
0
0
VERTEX
8
WATERMARK
10
10.27269
20
-1.78297
30
0
0
VERTEX
8
WATERMARK
10
10.31348
20
-1.73526
30
0
0
VERTEX
8
WATERMARK
10
10.3463
20
-1.68176
30
0
0
VERTEX
8
WATERMARK
10
10.37035
20
-1.62379
30
0
0
VERTEX
8
WATERMARK
10
10.38503
20
-1.56276
30
0
0
VERTEX
8
WATERMARK
10
10.38998
20
-1.5002
30
0
0
VERTEX
8
WATERMARK
10
10.38509
20
-1.43762
30
0
0
VERTEX
8
WATERMARK
10
10.37047
20
-1.37658
30
0
0
VERTEX
8
WATERMARK
10
10.34648
20
-1.31859
30
0
0
VERTEX
8
WATERMARK
10
10.31371
20
-1.26505
30
0
0
VERTEX
8
WATERMARK
10
10.27297
20
-1.21731
30
0
0
VERTEX
8
WATERMARK
10
10.22526
20
-1.17652
30
0
0
VERTEX
8
WATERMARK
10
10.17176
20
-1.1437
30
0
0
VERTEX
8
WATERMARK
10
10.11379
20
-1.11965
30
0
0
VERTEX
8
WATERMARK
10
10.05276
20
-1.10497
30
0
0
VERTEX
8
WATERMARK
10
9.9901
20
-1.10001
30
0
0
VERTEX
8
WATERMARK
10
9.31132
20
-1.09983
30
0
0
VERTEX
8
WATERMARK
10
9.30778
20
-1.09629
30
0
0
VERTEX
8
WATERMARK
10
9.30778
20
-1.09371
30
0
0
VERTEX
8
WATERMARK
10
10.2845
20
-0.03068
30
0
0
VERTEX
8
WATERMARK
10
10.3214
20
0.01602
30
0
0
VERTEX
8
WATERMARK
10
10.35092
20
0.06759
30
0
0
VERTEX
8
WATERMARK
10
10.37248
20
0.12297
30
0
0
VERTEX
8
WATERMARK
10
10.3856
20
0.18092
30
0
0
VERTEX
8
WATERMARK
10
10.39
20
0.24009
30
0
0
VERTEX
8
WATERMARK
10
10.39
20
0.83991
30
0
0
VERTEX
8
WATERMARK
10
10.3855
20
0.89978
30
0
0
VERTEX
8
WATERMARK
10
10.37206
20
0.95839
30
0
0
VERTEX
8
WATERMARK
10
10.34996
20
1.01442
30
0
0
VERTEX
8
WATERMARK
10
10.02997
20
1.67442
30
0
0
VERTEX
8
WATERMARK
10
9.99765
20
1.72942
30
0
0
VERTEX
8
WATERMARK
10
9.95694
20
1.77866
30
0
0
VERTEX
8
WATERMARK
10
9.90891
20
1.8208
30
0
0
VERTEX
8
WATERMARK
10
9.85478
20
1.85475
30
0
0
VERTEX
8
WATERMARK
10
9.79594
20
1.87964
30
0
0
VERTEX
8
WATERMARK
10
9.73389
20
1.89485
30
0
0
VERTEX
8
WATERMARK
10
9.6701
20
1.89999
30
0
0
VERTEX
8
WATERMARK
10
8.7101
20
1.9
30
0
0
VERTEX
8
WATERMARK
10
8.64651
20
1.89491
30
0
0
VERTEX
8
WATERMARK
10
8.58444
20
1.87977
30
0
0
VERTEX
8
WATERMARK
10
8.52557
20
1.85493
30
0
0
VERTEX
8
WATERMARK
10
8.47141
20
1.82104
30
0
0
VERTEX
8
WATERMARK
10
8.42334
20
1.77895
30
0
0
VERTEX
8
WATERMARK
10
8.38258
20
1.72975
30
0
0
VERTEX
8
WATERMARK
10
8.35012
20
1.6746
30
0
0
VERTEX
8
WATERMARK
10
8.03011
20
1.0146
30
0
0
VERTEX
8
WATERMARK
10
8.00727
20
0.95624
30
0
0
VERTEX
8
WATERMARK
10
7.9938
20
0.89494
30
0
0
VERTEX
8
WATERMARK
10
7.99008
20
0.83228
30
0
0
VERTEX
8
WATERMARK
10
7.99622
20
0.76982
30
0
0
VERTEX
8
WATERMARK
10
8.01204
20
0.70908
30
0
0
VERTEX
8
WATERMARK
10
8.03718
20
0.65156
30
0
0
VERTEX
8
WATERMARK
10
8.071
20
0.59869
30
0
0
VERTEX
8
WATERMARK
10
8.11268
20
0.55176
30
0
0
VERTEX
8
WATERMARK
10
8.16118
20
0.51192
30
0
0
VERTEX
8
WATERMARK
10
8.21532
20
0.48017
30
0
0
VERTEX
8
WATERMARK
10
8.27376
20
0.45727
30
0
0
VERTEX
8
WATERMARK
10
8.33506
20
0.4438
30
0
0
VERTEX
8
WATERMARK
10
8.39772
20
0.44008
30
0
0
VERTEX
8
WATERMARK
10
8.46018
20
0.44622
30
0
0
VERTEX
8
WATERMARK
10
8.52092
20
0.46204
30
0
0
VERTEX
8
WATERMARK
10
8.57844
20
0.48718
30
0
0
VERTEX
8
WATERMARK
10
8.63131
20
0.521
30
0
0
VERTEX
8
WATERMARK
10
8.67824
20
0.56268
30
0
0
VERTEX
8
WATERMARK
10
8.71808
20
0.61118
30
0
0
VERTEX
8
WATERMARK
10
8.74988
20
0.66541
30
0
0
VERTEX
8
WATERMARK
10
8.95995
20
1.09827
30
0
0
VERTEX
8
WATERMARK
10
8.96209
20
1.09972
30
0
0
VERTEX
8
WATERMARK
10
9.41756
20
1.09983
30
0
0
VERTEX
8
WATERMARK
10
9.4198
20
1.09854
30
0
0
VERTEX
8
WATERMARK
10
9.58991
20
0.74793
30
0
0
VERTEX
8
WATERMARK
10
9.58983
20
0.39661
30
0
0
VERTEX
8
WATERMARK
10
8.0955
20
-1.22932
30
0
0
VERTEX
8
WATERMARK
10
8.0586
20
-1.27602
30
0
0
VERTEX
8
WATERMARK
10
8.02924
20
-1.32726
30
0
0
VERTEX
8
WATERMARK
10
8.00763
20
-1.38261
30
0
0
VERTEX
8
WATERMARK
10
7.99446
20
-1.44056
30
0
0
VERTEX
8
WATERMARK
10
7.99001
20
-1.4998
30
0
0
VERTEX
8
WATERMARK
10
7.99545
20
-1.56568
30
0
0
VERTEX
8
WATERMARK
10
8.01165
20
-1.62976
30
0
0
VERTEX
8
WATERMARK
10
8.03819
20
-1.69031
30
0
0
VERTEX
8
WATERMARK
10
8.07434
20
-1.74565
30
0
0
VERTEX
8
WATERMARK
10
8.11912
20
-1.7943
30
0
0
VERTEX
8
WATERMARK
10
8.16571
20
-1.83119
30
0
0
VERTEX
8
WATERMARK
10
8.21726
20
-1.86076
30
0
0
VERTEX
8
WATERMARK
10
8.27261
20
-1.88237
30
0
0
VERTEX
8
WATERMARK
10
8.33056
20
-1.89554
30
0
0
VERTEX
8
WATERMARK
10
8.38991
20
-1.89999
30
0
0
VERTEX
8
WATERMARK
10
9.9899
20
-1.9
30
0
0
SEQEND
8
WATERMARK
0
POLYLINE
8
WATERMARK
66
1
70
1
0
VERTEX
8
WATERMARK
10
12.69932
20
-1.89526
30
0
0
VERTEX
8
WATERMARK
10
12.75938
20
-1.88112
30
0
0
VERTEX
8
WATERMARK
10
12.81655
20
-1.85792
30
0
0
VERTEX
8
WATERMARK
10
12.86947
20
-1.8262
30
0
0
VERTEX
8
WATERMARK
10
12.91689
20
-1.78673
30
0
0
VERTEX
8
WATERMARK
10
12.95766
20
-1.74042
30
0
0
VERTEX
8
WATERMARK
10
12.99089
20
-1.68832
30
0
0
VERTEX
8
WATERMARK
10
13.34289
20
-1.02833
30
0
0
VERTEX
8
WATERMARK
10
13.36833
20
-0.96981
30
0
0
VERTEX
8
WATERMARK
10
13.38418
20
-0.90791
30
0
0
VERTEX
8
WATERMARK
10
13.38996
20
-0.84427
30
0
0
VERTEX
8
WATERMARK
10
13.38554
20
-0.78052
30
0
0
VERTEX
8
WATERMARK
10
13.37099
20
-0.71819
30
0
0
VERTEX
8
WATERMARK
10
13.083
20
0.18182
30
0
0
VERTEX
8
WATERMARK
10
13.05918
20
0.24002
30
0
0
VERTEX
8
WATERMARK
10
13.02649
20
0.29386
30
0
0
VERTEX
8
WATERMARK
10
12.98576
20
0.3419
30
0
0
VERTEX
8
WATERMARK
10
12.93798
20
0.38295
30
0
0
VERTEX
8
WATERMARK
10
12.88436
20
0.416
30
0
0
VERTEX
8
WATERMARK
10
12.82621
20
0.44021
30
0
0
VERTEX
8
WATERMARK
10
12.76499
20
0.45499
30
0
0
VERTEX
8
WATERMARK
10
12.7021
20
0.45999
30
0
0
VERTEX
8
WATERMARK
10
11.79371
20
0.46017
30
0
0
VERTEX
8
WATERMARK
10
11.79017
20
0.46371
30
0
0
VERTEX
8
WATERMARK
10
11.79039
20
0.58051
30
0
0
VERTEX
8
WATERMARK
10
12.00745
20
1.09806
30
0
0
VERTEX
8
WATERMARK
10
12.00951
20
1.09963
30
0
0
VERTEX
8
WATERMARK
10
12.35114
20
1.09983
30
0
0
VERTEX
8
WATERMARK
10
12.55651
20
0.90812
30
0
0
VERTEX
8
WATERMARK
10
12.61144
20
0.86501
30
0
0
VERTEX
8
WATERMARK
10
12.67253
20
0.83232
30
0
0
VERTEX
8
WATERMARK
10
12.73877
20
0.81056
30
0
0
VERTEX
8
WATERMARK
10
12.80778
20
0.80064
30
0
0
VERTEX
8
WATERMARK
10
12.87747
20
0.80285
30
0
0
VERTEX
8
WATERMARK
10
12.94571
20
0.81712
30
0
0
VERTEX
8
WATERMARK
10
13.01044
20
0.84303
30
0
0
VERTEX
8
WATERMARK
10
13.06968
20
0.87979
30
0
0
VERTEX
8
WATERMARK
10
13.12165
20
0.92627
30
0
0
VERTEX
8
WATERMARK
10
13.16475
20
0.98108
30
0
0
VERTEX
8
WATERMARK
10
13.19768
20
1.04253
30
0
0
VERTEX
8
WATERMARK
10
13.21944
20
1.10877
30
0
0
VERTEX
8
WATERMARK
10
13.22936
20
1.17778
30
0
0
VERTEX
8
WATERMARK
10
13.22715
20
1.24747
30
0
0
VERTEX
8
WATERMARK
10
13.21288
20
1.31571
30
0
0
VERTEX
8
WATERMARK
10
13.18697
20
1.38044
30
0
0
VERTEX
8
WATERMARK
10
13.15021
20
1.43968
30
0
0
VERTEX
8
WATERMARK
10
13.10365
20
1.49173
30
0
0
VERTEX
8
WATERMARK
10
12.78365
20
1.79175
30
0
0
VERTEX
8
WATERMARK
10
12.73684
20
1.82944
30
0
0
VERTEX
8
WATERMARK
10
12.68483
20
1.85975
30
0
0
VERTEX
8
WATERMARK
10
12.62887
20
1.88191
30
0
0
VERTEX
8
WATERMARK
10
12.57021
20
1.89543
30
0
0
VERTEX
8
WATERMARK
10
12.51009
20
1.89999
30
0
0
VERTEX
8
WATERMARK
10
11.7421
20
1.9
30
0
0
VERTEX
8
WATERMARK
10
11.67544
20
1.89441
30
0
0
VERTEX
8
WATERMARK
10
11.61053
20
1.87776
30
0
0
VERTEX
8
WATERMARK
10
11.54932
20
1.85051
30
0
0
VERTEX
8
WATERMARK
10
11.49351
20
1.81343
30
0
0
VERTEX
8
WATERMARK
10
11.44468
20
1.76756
30
0
0
VERTEX
8
WATERMARK
10
11.40419
20
1.71417
30
0
0
VERTEX
8
WATERMARK
10
11.37313
20
1.65468
30
0
0
VERTEX
8
WATERMARK
10
11.02111
20
0.81467
30
0
0
VERTEX
8
WATERMARK
10
11.00397
20
0.76474
30
0
0
VERTEX
8
WATERMARK
10
10.99353
20
0.71292
30
0
0
VERTEX
8
WATERMARK
10
10.99001
20
0.66008
30
0
0
VERTEX
8
WATERMARK
10
10.99
20
-0.8999
30
0
0
VERTEX
8
WATERMARK
10
10.99531
20
-0.96484
30
0
0
VERTEX
8
WATERMARK
10
11.0111
20
-1.02815
30
0
0
VERTEX
8
WATERMARK
10
11.03702
20
-1.08815
30
0
0
VERTEX
8
WATERMARK
10
11.35701
20
-1.68815
30
0
0
VERTEX
8
WATERMARK
10
11.3901
20
-1.74012
30
0
0
VERTEX
8
WATERMARK
10
11.43084
20
-1.78646
30
0
0
VERTEX
8
WATERMARK
10
11.47821
20
-1.82598
30
0
0
VERTEX
8
WATERMARK
10
11.5311
20
-1.85775
30
0
0
VERTEX
8
WATERMARK
10
11.58825
20
-1.88101
30
0
0
VERTEX
8
WATERMARK
10
11.6483
20
-1.8952
30
0
0
VERTEX
8
WATERMARK
10
11.7099
20
-1.89999
30
0
0
VERTEX
8
WATERMARK
10
12.6379
20
-1.9
30
0
0
SEQEND
8
WATERMARK
0
POLYLINE
8
WATERMARK
66
1
70
1
0
VERTEX
8
WATERMARK
10
11.9505
20
-1.09933
30
0
0
VERTEX
8
WATERMARK
10
11.79
20
-0.79875
30
0
0
VERTEX
8
WATERMARK
10
11.79017
20
-0.34371
30
0
0
VERTEX
8
WATERMARK
10
11.79371
20
-0.34017
30
0
0
VERTEX
8
WATERMARK
10
12.40766
20
-0.34017
30
0
0
VERTEX
8
WATERMARK
10
12.40991
20
-0.34146
30
0
0
VERTEX
8
WATERMARK
10
12.5571
20
-0.80019
30
0
0
VERTEX
8
WATERMARK
10
12.39865
20
-1.09841
30
0
0
VERTEX
8
WATERMARK
10
12.39646
20
-1.09978
30
0
0
SEQEND
8
WATERMARK
0
POLYLINE
8
WATERMARK
66
1
70
1
0
VERTEX
8
WATERMARK
10
18.81924
20
-1.89394
30
0
0
VERTEX
8
WATERMARK
10
18.8866
20
-1.87593
30
0
0
VERTEX
8
WATERMARK
10
18.9498
20
-1.8465
30
0
0
VERTEX
8
WATERMARK
10
19.00694
20
-1.80654
30
0
0
VERTEX
8
WATERMARK
10
19.05626
20
-1.75727
30
0
0
VERTEX
8
WATERMARK
10
19.09628
20
-1.70018
30
0
0
VERTEX
8
WATERMARK
10
19.12578
20
-1.63701
30
0
0
VERTEX
8
WATERMARK
10
19.14387
20
-1.56967
30
0
0
VERTEX
8
WATERMARK
10
19.14998
20
-1.50022
30
0
0
VERTEX
8
WATERMARK
10
19.14394
20
-1.43076
30
0
0
VERTEX
8
WATERMARK
10
19.12593
20
-1.3634
30
0
0
VERTEX
8
WATERMARK
10
19.0965
20
-1.3002
30
0
0
VERTEX
8
WATERMARK
10
19.05654
20
-1.24306
30
0
0
VERTEX
8
WATERMARK
10
19.00727
20
-1.19374
30
0
0
VERTEX
8
WATERMARK
10
18.95018
20
-1.15372
30
0
0
VERTEX
8
WATERMARK
10
18.88701
20
-1.12422
30
0
0
VERTEX
8
WATERMARK
10
18.81967
20
-1.10613
30
0
0
VERTEX
8
WATERMARK
10
18.75011
20
-1.10001
30
0
0
VERTEX
8
WATERMARK
10
18.59371
20
-1.09983
30
0
0
VERTEX
8
WATERMARK
10
18.59017
20
-1.09629
30
0
0
VERTEX
8
WATERMARK
10
18.59
20
1.4999
30
0
0
VERTEX
8
WATERMARK
10
18.58475
20
1.56448
30
0
0
VERTEX
8
WATERMARK
10
18.56913
20
1.62746
30
0
0
VERTEX
8
WATERMARK
10
18.54354
20
1.68709
30
0
0
VERTEX
8
WATERMARK
10
18.50863
20
1.74179
30
0
0
VERTEX
8
WATERMARK
10
18.46534
20
1.79013
30
0
0
VERTEX
8
WATERMARK
10
18.4148
20
1.83084
30
0
0
VERTEX
8
WATERMARK
10
18.36316
20
1.86056
30
0
0
VERTEX
8
WATERMARK
10
18.30768
20
1.88228
30
0
0
VERTEX
8
WATERMARK
10
18.2496
20
1.89552
30
0
0
VERTEX
8
WATERMARK
10
18.19019
20
1.89999
30
0
0
VERTEX
8
WATERMARK
10
18.12552
20
1.89475
30
0
0
VERTEX
8
WATERMARK
10
18.06254
20
1.87913
30
0
0
VERTEX
8
WATERMARK
10
18.00291
20
1.85354
30
0
0
VERTEX
8
WATERMARK
10
17.94821
20
1.81863
30
0
0
VERTEX
8
WATERMARK
10
17.89987
20
1.77534
30
0
0
VERTEX
8
WATERMARK
10
17.8591
20
1.72473
30
0
0
VERTEX
8
WATERMARK
10
17.4111
20
1.06473
30
0
0
VERTEX
8
WATERMARK
10
17.38007
20
1.01028
30
0
0
VERTEX
8
WATERMARK
10
17.35789
20
0.95157
30
0
0
VERTEX
8
WATERMARK
10
17.34516
20
0.8901
30
0
0
VERTEX
8
WATERMARK
10
17.34221
20
0.82741
30
0
0
VERTEX
8
WATERMARK
10
17.3491
20
0.76502
30
0
0
VERTEX
8
WATERMARK
10
17.36567
20
0.70448
30
0
0
VERTEX
8
WATERMARK
10
17.3915
20
0.64728
30
0
0
VERTEX
8
WATERMARK
10
17.42596
20
0.59482
30
0
0
VERTEX
8
WATERMARK
10
17.46821
20
0.5484
30
0
0
VERTEX
8
WATERMARK
10
17.5172
20
0.50916
30
0
0
VERTEX
8
WATERMARK
10
17.56677
20
0.48044
30
0
0
VERTEX
8
WATERMARK
10
17.61993
20
0.45909
30
0
0
VERTEX
8
WATERMARK
10
17.67559
20
0.44556
30
0
0
VERTEX
8
WATERMARK
10
17.73261
20
0.44012
30
0
0
VERTEX
8
WATERMARK
10
17.78606
20
0.44253
30
0
0
VERTEX
8
WATERMARK
10
17.78836
20
0.44134
30
0
0
VERTEX
8
WATERMARK
10
17.79
20
0.43764
30
0
0
VERTEX
8
WATERMARK
10
17.78983
20
-1.09629
30
0
0
VERTEX
8
WATERMARK
10
17.78629
20
-1.09983
30
0
0
VERTEX
8
WATERMARK
10
17.62989
20
-1.10001
30
0
0
VERTEX
8
WATERMARK
10
17.56033
20
-1.10613
30
0
0
VERTEX
8
WATERMARK
10
17.4934
20
-1.12407
30
0
0
VERTEX
8
WATERMARK
10
17.4302
20
-1.1535
30
0
0
VERTEX
8
WATERMARK
10
17.37306
20
-1.19346
30
0
0
VERTEX
8
WATERMARK
10
17.32374
20
-1.24273
30
0
0
VERTEX
8
WATERMARK
10
17.28372
20
-1.29982
30
0
0
VERTEX
8
WATERMARK
10
17.25422
20
-1.36299
30
0
0
VERTEX
8
WATERMARK
10
17.23613
20
-1.43033
30
0
0
VERTEX
8
WATERMARK
10
17.23002
20
-1.49978
30
0
0
VERTEX
8
WATERMARK
10
17.23606
20
-1.56924
30
0
0
VERTEX
8
WATERMARK
10
17.25407
20
-1.6366
30
0
0
VERTEX
8
WATERMARK
10
17.2835
20
-1.6998
30
0
0
VERTEX
8
WATERMARK
10
17.32346
20
-1.75694
30
0
0
VERTEX
8
WATERMARK
10
17.37273
20
-1.80626
30
0
0
VERTEX
8
WATERMARK
10
17.42982
20
-1.84628
30
0
0
VERTEX
8
WATERMARK
10
17.49299
20
-1.87578
30
0
0
VERTEX
8
WATERMARK
10
17.56033
20
-1.89387
30
0
0
VERTEX
8
WATERMARK
10
17.62989
20
-1.89999
30
0
0
VERTEX
8
WATERMARK
10
18.74989
20
-1.9
30
0
0
SEQEND
8
WATERMARK
0
POLYLINE
8
WATERMARK
66
1
70
1
0
VERTEX
8
WATERMARK
10
16.09285
20
-1.88653
30
0
0
VERTEX
8
WATERMARK
10
16.15841
20
-1.86279
30
0
0
VERTEX
8
WATERMARK
10
16.21885
20
-1.82804
30
0
0
VERTEX
8
WATERMARK
10
16.27234
20
-1.78331
30
0
0
VERTEX
8
WATERMARK
10
16.31725
20
-1.72998
30
0
0
VERTEX
8
WATERMARK
10
16.35221
20
-1.66966
30
0
0
VERTEX
8
WATERMARK
10
16.37617
20
-1.60419
30
0
0
VERTEX
8
WATERMARK
10
16.38839
20
-1.53555
30
0
0
VERTEX
8
WATERMARK
10
16.38852
20
-1.46583
30
0
0
VERTEX
8
WATERMARK
10
16.37651
20
-1.39704
30
0
0
VERTEX
8
WATERMARK
10
16.02813
20
-0.09058
30
0
0
VERTEX
8
WATERMARK
10
16.03546
20
-0.04491
30
0
0
VERTEX
8
WATERMARK
10
16.03799
20
0.00016
30
0
0
VERTEX
8
WATERMARK
10
16.03356
20
0.05935
30
0
0
VERTEX
8
WATERMARK
10
16.02032
20
0.11756
30
0
0
VERTEX
8
WATERMARK
10
15.99857
20
0.17315
30
0
0
VERTEX
8
WATERMARK
10
15.96878
20
0.22489
30
0
0
VERTEX
8
WATERMARK
10
15.93124
20
0.27277
30
0
0
VERTEX
8
WATERMARK
10
15.57646
20
1.60316
30
0
0
VERTEX
8
WATERMARK
10
15.55667
20
1.65981
30
0
0
VERTEX
8
WATERMARK
10
15.52888
20
1.71247
30
0
0
VERTEX
8
WATERMARK
10
15.49334
20
1.76071
30
0
0
VERTEX
8
WATERMARK
10
15.45099
20
1.8031
30
0
0
VERTEX
8
WATERMARK
10
15.40279
20
1.83868
30
0
0
VERTEX
8
WATERMARK
10
15.34981
20
1.86667
30
0
0
VERTEX
8
WATERMARK
10
15.29326
20
1.88642
30
0
0
VERTEX
8
WATERMARK
10
15.22492
20
1.89845
30
0
0
VERTEX
8
WATERMARK
10
15.15551
20
1.89849
30
0
0
VERTEX
8
WATERMARK
10
15.08713
20
1.88652
30
0
0
VERTEX
8
WATERMARK
10
15.03053
20
1.86682
30
0
0
VERTEX
8
WATERMARK
10
14.97753
20
1.83888
30
0
0
VERTEX
8
WATERMARK
10
14.92929
20
1.80334
30
0
0
VERTEX
8
WATERMARK
10
14.8869
20
1.76099
30
0
0
VERTEX
8
WATERMARK
10
14.85132
20
1.71279
30
0
0
VERTEX
8
WATERMARK
10
14.82333
20
1.65981
30
0
0
VERTEX
8
WATERMARK
10
14.80354
20
1.60316
30
0
0
VERTEX
8
WATERMARK
10
14.44876
20
0.27277
30
0
0
VERTEX
8
WATERMARK
10
14.41122
20
0.22489
30
0
0
VERTEX
8
WATERMARK
10
14.38143
20
0.17315
30
0
0
VERTEX
8
WATERMARK
10
14.35968
20
0.11756
30
0
0
VERTEX
8
WATERMARK
10
14.34644
20
0.05935
30
0
0
VERTEX
8
WATERMARK
10
14.34201
20
0.00016
30
0
0
VERTEX
8
WATERMARK
10
14.34454
20
-0.04491
30
0
0
VERTEX
8
WATERMARK
10
14.35187
20
-0.09058
30
0
0
VERTEX
8
WATERMARK
10
14.00349
20
-1.39704
30
0
0
VERTEX
8
WATERMARK
10
13.99148
20
-1.46583
30
0
0
VERTEX
8
WATERMARK
10
13.99161
20
-1.53555
30
0
0
VERTEX
8
WATERMARK
10
14.00372
20
-1.60377
30
0
0
VERTEX
8
WATERMARK
10
14.02761
20
-1.66927
30
0
0
VERTEX
8
WATERMARK
10
14.0625
20
-1.72963
30
0
0
VERTEX
8
WATERMARK
10
14.10735
20
-1.78301
30
0
0
VERTEX
8
WATERMARK
10
14.16079
20
-1.82779
30
0
0
VERTEX
8
WATERMARK
10
14.22119
20
-1.86261
30
0
0
VERTEX
8
WATERMARK
10
14.28672
20
-1.88642
30
0
0
VERTEX
8
WATERMARK
10
14.35539
20
-1.89848
30
0
0
VERTEX
8
WATERMARK
10
14.42511
20
-1.89843
30
0
0
VERTEX
8
WATERMARK
10
14.49377
20
-1.88628
30
0
0
VERTEX
8
WATERMARK
10
14.55927
20
-1.86239
30
0
0
VERTEX
8
WATERMARK
10
14.61963
20
-1.8275
30
0
0
VERTEX
8
WATERMARK
10
14.67301
20
-1.78265
30
0
0
VERTEX
8
WATERMARK
10
14.71779
20
-1.72921
30
0
0
VERTEX
8
WATERMARK
10
14.75261
20
-1.66881
30
0
0
VERTEX
8
WATERMARK
10
14.77645
20
-1.60317
30
0
0
VERTEX
8
WATERMARK
10
15.09682
20
-0.40251
30
0
0
VERTEX
8
WATERMARK
10
15.09865
20
-0.40067
30
0
0
VERTEX
8
WATERMARK
10
15.28014
20
-0.40017
30
0
0
VERTEX
8
WATERMARK
10
15.28368
20
-0.40371
30
0
0
VERTEX
8
WATERMARK
10
15.60348
20
-1.60296
30
0
0
VERTEX
8
WATERMARK
10
15.62721
20
-1.66841
30
0
0
VERTEX
8
WATERMARK
10
15.66196
20
-1.72885
30
0
0
VERTEX
8
WATERMARK
10
15.70669
20
-1.78234
30
0
0
VERTEX
8
WATERMARK
10
15.76002
20
-1.82725
30
0
0
VERTEX
8
WATERMARK
10
15.82034
20
-1.86221
30
0
0
VERTEX
8
WATERMARK
10
15.88581
20
-1.88617
30
0
0
VERTEX
8
WATERMARK
10
15.95445
20
-1.89839
30
0
0
VERTEX
8
WATERMARK
10
16.02417
20
-1.89852
30
0
0
SEQEND
8
WATERMARK
0
POLYLINE
8
WATERMARK
66
1
70
1
0
VERTEX
8
WATERMARK
10
-6.79762
20
-1.89509
30
0
0
VERTEX
8
WATERMARK
10
-6.73658
20
-1.88047
30
0
0
VERTEX
8
WATERMARK
10
-6.67859
20
-1.85648
30
0
0
VERTEX
8
WATERMARK
10
-6.62505
20
-1.82371
30
0
0
VERTEX
8
WATERMARK
10
-6.57731
20
-1.78297
30
0
0
VERTEX
8
WATERMARK
10
-6.53652
20
-1.73526
30
0
0
VERTEX
8
WATERMARK
10
-6.5037
20
-1.68176
30
0
0
VERTEX
8
WATERMARK
10
-6.47965
20
-1.62379
30
0
0
VERTEX
8
WATERMARK
10
-6.46497
20
-1.56276
30
0
0
VERTEX
8
WATERMARK
10
-6.46002
20
-1.5002
30
0
0
VERTEX
8
WATERMARK
10
-6.46491
20
-1.43762
30
0
0
VERTEX
8
WATERMARK
10
-6.47953
20
-1.37658
30
0
0
VERTEX
8
WATERMARK
10
-6.50352
20
-1.31859
30
0
0
VERTEX
8
WATERMARK
10
-6.53629
20
-1.26505
30
0
0
VERTEX
8
WATERMARK
10
-6.57703
20
-1.21731
30
0
0
VERTEX
8
WATERMARK
10
-6.62474
20
-1.17652
30
0
0
VERTEX
8
WATERMARK
10
-6.67824
20
-1.1437
30
0
0
VERTEX
8
WATERMARK
10
-6.73621
20
-1.11965
30
0
0
VERTEX
8
WATERMARK
10
-6.79724
20
-1.10497
30
0
0
VERTEX
8
WATERMARK
10
-6.8599
20
-1.10001
30
0
0
VERTEX
8
WATERMARK
10
-7.25629
20
-1.09983
30
0
0
VERTEX
8
WATERMARK
10
-7.25983
20
-1.09629
30
0
0
VERTEX
8
WATERMARK
10
-7.25983
20
-0.50371
30
0
0
VERTEX
8
WATERMARK
10
-7.25629
20
-0.50017
30
0
0
VERTEX
8
WATERMARK
10
-6.8599
20
-0.49999
30
0
0
VERTEX
8
WATERMARK
10
-6.79762
20
-0.49509
30
0
0
VERTEX
8
WATERMARK
10
-6.73658
20
-0.48047
30
0
0
VERTEX
8
WATERMARK
10
-6.67859
20
-0.45648
30
0
0
VERTEX
8
WATERMARK
10
-6.62505
20
-0.42371
30
0
0
VERTEX
8
WATERMARK
10
-6.57731
20
-0.38297
30
0
0
VERTEX
8
WATERMARK
10
-6.53652
20
-0.33526
30
0
0
VERTEX
8
WATERMARK
10
-6.5037
20
-0.28176
30
0
0
VERTEX
8
WATERMARK
10
-6.47965
20
-0.22379
30
0
0
VERTEX
8
WATERMARK
10
-6.46497
20
-0.16276
30
0
0
VERTEX
8
WATERMARK
10
-6.46002
20
-0.1002
30
0
0
VERTEX
8
WATERMARK
10
-6.46491
20
-0.03762
30
0
0
VERTEX
8
WATERMARK
10
-6.47953
20
0.02342
30
0
0
VERTEX
8
WATERMARK
10
-6.50352
20
0.08141
30
0
0
VERTEX
8
WATERMARK
10
-6.53629
20
0.13495
30
0
0
VERTEX
8
WATERMARK
10
-6.57703
20
0.18269
30
0
0
VERTEX
8
WATERMARK
10
-6.62474
20
0.22348
30
0
0
VERTEX
8
WATERMARK
10
-6.67824
20
0.2563
30
0
0
VERTEX
8
WATERMARK
10
-6.73621
20
0.28035
30
0
0
VERTEX
8
WATERMARK
10
-6.79724
20
0.29503
30
0
0
VERTEX
8
WATERMARK
10
-6.8599
20
0.29999
30
0
0
VERTEX
8
WATERMARK
10
-8.45989
20
0.3
30
0
0
VERTEX
8
WATERMARK
10
-8.52924
20
0.29394
30
0
0
VERTEX
8
WATERMARK
10
-8.5966
20
0.27593
30
0
0
VERTEX
8
WATERMARK
10
-8.6598
20
0.2465
30
0
0
VERTEX
8
WATERMARK
10
-8.71694
20
0.20654
30
0
0
VERTEX
8
WATERMARK
10
-8.76626
20
0.15727
30
0
0
VERTEX
8
WATERMARK
10
-8.80628
20
0.10018
30
0
0
VERTEX
8
WATERMARK
10
-8.83578
20
0.03701
30
0
0
VERTEX
8
WATERMARK
10
-8.85387
20
-0.03033
30
0
0
VERTEX
8
WATERMARK
10
-8.85998
20
-0.09978
30
0
0
VERTEX
8
WATERMARK
10
-8.85394
20
-0.16924
30
0
0
VERTEX
8
WATERMARK
10
-8.83593
20
-0.2366
30
0
0
VERTEX
8
WATERMARK
10
-8.8065
20
-0.2998
30
0
0
VERTEX
8
WATERMARK
10
-8.76654
20
-0.35694
30
0
0
VERTEX
8
WATERMARK
10
-8.71727
20
-0.40626
30
0
0
VERTEX
8
WATERMARK
10
-8.66018
20
-0.44628
30
0
0
VERTEX
8
WATERMARK
10
-8.59701
20
-0.47578
30
0
0
VERTEX
8
WATERMARK
10
-8.52967
20
-0.49387
30
0
0
VERTEX
8
WATERMARK
10
-8.46011
20
-0.49999
30
0
0
VERTEX
8
WATERMARK
10
-8.06371
20
-0.50017
30
0
0
VERTEX
8
WATERMARK
10
-8.06017
20
-0.50371
30
0
0
VERTEX
8
WATERMARK
10
-8.06017
20
-1.09629
30
0
0
VERTEX
8
WATERMARK
10
-8.06371
20
-1.09983
30
0
0
VERTEX
8
WATERMARK
10
-8.46011
20
-1.10001
30
0
0
VERTEX
8
WATERMARK
10
-8.52967
20
-1.10613
30
0
0
VERTEX
8
WATERMARK
10
-8.5966
20
-1.12407
30
0
0
VERTEX
8
WATERMARK
10
-8.6598
20
-1.1535
30
0
0
VERTEX
8
WATERMARK
10
-8.71694
20
-1.19346
30
0
0
VERTEX
8
WATERMARK
10
-8.76626
20
-1.24273
30
0
0
VERTEX
8
WATERMARK
10
-8.80628
20
-1.29982
30
0
0
VERTEX
8
WATERMARK
10
-8.83578
20
-1.36299
30
0
0
VERTEX
8
WATERMARK
10
-8.85387
20
-1.43033
30
0
0
VERTEX
8
WATERMARK
10
-8.85998
20
-1.49978
30
0
0
VERTEX
8
WATERMARK
10
-8.85394
20
-1.56924
30
0
0
VERTEX
8
WATERMARK
10
-8.83593
20
-1.6366
30
0
0
VERTEX
8
WATERMARK
10
-8.8065
20
-1.6998
30
0
0
VERTEX
8
WATERMARK
10
-8.76654
20
-1.75694
30
0
0
VERTEX
8
WATERMARK
10
-8.71727
20
-1.80626
30
0
0
VERTEX
8
WATERMARK
10
-8.66018
20
-1.84628
30
0
0
VERTEX
8
WATERMARK
10
-8.59701
20
-1.87578
30
0
0
VERTEX
8
WATERMARK
10
-8.52967
20
-1.89387
30
0
0
VERTEX
8
WATERMARK
10
-8.46011
20
-1.89999
30
0
0
VERTEX
8
WATERMARK
10
-6.8601
20
-1.9
30
0
0
SEQEND
8
WATERMARK
0
POLYLINE
8
WATERMARK
66
1
70
1
0
VERTEX
8
WATERMARK
10
2.20924
20
-1.89394
30
0
0
VERTEX
8
WATERMARK
10
2.2766
20
-1.87593
30
0
0
VERTEX
8
WATERMARK
10
2.3398
20
-1.8465
30
0
0
VERTEX
8
WATERMARK
10
2.39694
20
-1.80654
30
0
0
VERTEX
8
WATERMARK
10
2.44626
20
-1.75727
30
0
0
VERTEX
8
WATERMARK
10
2.48628
20
-1.70018
30
0
0
VERTEX
8
WATERMARK
10
2.51578
20
-1.63701
30
0
0
VERTEX
8
WATERMARK
10
2.53387
20
-1.56967
30
0
0
VERTEX
8
WATERMARK
10
2.53999
20
-1.50011
30
0
0
VERTEX
8
WATERMARK
10
2.54
20
-0.10011
30
0
0
VERTEX
8
WATERMARK
10
2.53394
20
-0.03076
30
0
0
VERTEX
8
WATERMARK
10
2.51593
20
0.0366
30
0
0
VERTEX
8
WATERMARK
10
2.4865
20
0.0998
30
0
0
VERTEX
8
WATERMARK
10
2.44654
20
0.15694
30
0
0
VERTEX
8
WATERMARK
10
2.39727
20
0.20626
30
0
0
VERTEX
8
WATERMARK
10
2.34018
20
0.24628
30
0
0
VERTEX
8
WATERMARK
10
2.27701
20
0.27578
30
0
0
VERTEX
8
WATERMARK
10
2.20967
20
0.29387
30
0
0
VERTEX
8
WATERMARK
10
2.14011
20
0.29999
30
0
0
VERTEX
8
WATERMARK
10
0.5401
20
0.3
30
0
0
VERTEX
8
WATERMARK
10
0.47762
20
0.29509
30
0
0
VERTEX
8
WATERMARK
10
0.41658
20
0.28047
30
0
0
VERTEX
8
WATERMARK
10
0.35859
20
0.25648
30
0
0
VERTEX
8
WATERMARK
10
0.30505
20
0.22371
30
0
0
VERTEX
8
WATERMARK
10
0.25731
20
0.18297
30
0
0
VERTEX
8
WATERMARK
10
0.21652
20
0.13526
30
0
0
VERTEX
8
WATERMARK
10
0.1837
20
0.08176
30
0
0
VERTEX
8
WATERMARK
10
0.15965
20
0.02379
30
0
0
VERTEX
8
WATERMARK
10
0.14497
20
-0.03724
30
0
0
VERTEX
8
WATERMARK
10
0.14001
20
-0.0999
30
0
0
VERTEX
8
WATERMARK
10
0.14
20
-1.4999
30
0
0
VERTEX
8
WATERMARK
10
0.14491
20
-1.56238
30
0
0
VERTEX
8
WATERMARK
10
0.15953
20
-1.62342
30
0
0
VERTEX
8
WATERMARK
10
0.18352
20
-1.68141
30
0
0
VERTEX
8
WATERMARK
10
0.21629
20
-1.73495
30
0
0
VERTEX
8
WATERMARK
10
0.25703
20
-1.78269
30
0
0
VERTEX
8
WATERMARK
10
0.30474
20
-1.82348
30
0
0
VERTEX
8
WATERMARK
10
0.35824
20
-1.8563
30
0
0
VERTEX
8
WATERMARK
10
0.41621
20
-1.88035
30
0
0
VERTEX
8
WATERMARK
10
0.47724
20
-1.89503
30
0
0
VERTEX
8
WATERMARK
10
0.5399
20
-1.89999
30
0
0
VERTEX
8
WATERMARK
10
2.13989
20
-1.9
30
0
0
SEQEND
8
WATERMARK
0
POLYLINE
8
WATERMARK
66
1
70
1
0
VERTEX
8
WATERMARK
10
0.94371
20
-1.09983
30
0
0
VERTEX
8
WATERMARK
10
0.94017
20
-1.09629
30
0
0
VERTEX
8
WATERMARK
10
0.94067
20
-0.5025
30
0
0
VERTEX
8
WATERMARK
10
0.9425
20
-0.50067
30
0
0
VERTEX
8
WATERMARK
10
1.73629
20
-0.50017
30
0
0
VERTEX
8
WATERMARK
10
1.73983
20
-0.50371
30
0
0
VERTEX
8
WATERMARK
10
1.73933
20
-1.0975
30
0
0
VERTEX
8
WATERMARK
10
1.7375
20
-1.09933
30
0
0
SEQEND
8
WATERMARK
0
POLYLINE
8
WATERMARK
66
1
70
1
0
VERTEX
8
WATERMARK
10
-3.79238
20
-1.89423
30
0
0
VERTEX
8
WATERMARK
10
-3.72651
20
-1.87705
30
0
0
VERTEX
8
WATERMARK
10
-3.66451
20
-1.84895
30
0
0
VERTEX
8
WATERMARK
10
-3.60817
20
-1.81075
30
0
0
VERTEX
8
WATERMARK
10
-3.55911
20
-1.76354
30
0
0
VERTEX
8
WATERMARK
10
-3.52445
20
-1.7177
30
0
0
VERTEX
8
WATERMARK
10
-3.49672
20
-1.66738
30
0
0
VERTEX
8
WATERMARK
10
-3.47649
20
-1.6136
30
0
0
VERTEX
8
WATERMARK
10
-3.46417
20
-1.55748
30
0
0
VERTEX
8
WATERMARK
10
-3.46001
20
-1.50009
30
0
0
VERTEX
8
WATERMARK
10
-3.46
20
-0.10011
30
0
0
VERTEX
8
WATERMARK
10
-3.46606
20
-0.03076
30
0
0
VERTEX
8
WATERMARK
10
-3.48407
20
0.0366
30
0
0
VERTEX
8
WATERMARK
10
-3.5135
20
0.0998
30
0
0
VERTEX
8
WATERMARK
10
-3.55346
20
0.15694
30
0
0
VERTEX
8
WATERMARK
10
-3.60273
20
0.20626
30
0
0
VERTEX
8
WATERMARK
10
-3.65982
20
0.24628
30
0
0
VERTEX
8
WATERMARK
10
-3.72299
20
0.27578
30
0
0
VERTEX
8
WATERMARK
10
-3.79033
20
0.29387
30
0
0
VERTEX
8
WATERMARK
10
-3.85979
20
0.29998
30
0
0
VERTEX
8
WATERMARK
10
-3.92238
20
0.29509
30
0
0
VERTEX
8
WATERMARK
10
-3.98342
20
0.28047
30
0
0
VERTEX
8
WATERMARK
10
-4.04141
20
0.25648
30
0
0
VERTEX
8
WATERMARK
10
-4.09495
20
0.22371
30
0
0
VERTEX
8
WATERMARK
10
-4.14269
20
0.18297
30
0
0
VERTEX
8
WATERMARK
10
-4.18348
20
0.13526
30
0
0
VERTEX
8
WATERMARK
10
-4.2163
20
0.08176
30
0
0
VERTEX
8
WATERMARK
10
-4.24035
20
0.02379
30
0
0
VERTEX
8
WATERMARK
10
-4.25503
20
-0.03724
30
0
0
VERTEX
8
WATERMARK
10
-4.25999
20
-0.0999
30
0
0
VERTEX
8
WATERMARK
10
-4.26017
20
-0.60877
30
0
0
VERTEX
8
WATERMARK
10
-4.26371
20
-0.6123
30
0
0
VERTEX
8
WATERMARK
10
-4.26629
20
-0.6123
30
0
0
VERTEX
8
WATERMARK
10
-5.19667
20
0.20108
30
0
0
VERTEX
8
WATERMARK
10
-5.2426
20
0.23575
30
0
0
VERTEX
8
WATERMARK
10
-5.29262
20
0.26328
30
0
0
VERTEX
8
WATERMARK
10
-5.3464
20
0.28351
30
0
0
VERTEX
8
WATERMARK
10
-5.40252
20
0.29583
30
0
0
VERTEX
8
WATERMARK
10
-5.4598
20
0.29999
30
0
0
VERTEX
8
WATERMARK
10
-5.52762
20
0.29422
30
0
0
VERTEX
8
WATERMARK
10
-5.59349
20
0.27705
30
0
0
VERTEX
8
WATERMARK
10
-5.65549
20
0.24895
30
0
0
VERTEX
8
WATERMARK
10
-5.71183
20
0.21075
30
0
0
VERTEX
8
WATERMARK
10
-5.76089
20
0.16354
30
0
0
VERTEX
8
WATERMARK
10
-5.79555
20
0.1177
30
0
0
VERTEX
8
WATERMARK
10
-5.82328
20
0.06738
30
0
0
VERTEX
8
WATERMARK
10
-5.84351
20
0.0136
30
0
0
VERTEX
8
WATERMARK
10
-5.85583
20
-0.04252
30
0
0
VERTEX
8
WATERMARK
10
-5.85999
20
-0.09991
30
0
0
VERTEX
8
WATERMARK
10
-5.86
20
-1.4999
30
0
0
VERTEX
8
WATERMARK
10
-5.85509
20
-1.56238
30
0
0
VERTEX
8
WATERMARK
10
-5.84047
20
-1.62342
30
0
0
VERTEX
8
WATERMARK
10
-5.81648
20
-1.68141
30
0
0
VERTEX
8
WATERMARK
10
-5.78371
20
-1.73495
30
0
0
VERTEX
8
WATERMARK
10
-5.74297
20
-1.78269
30
0
0
VERTEX
8
WATERMARK
10
-5.69526
20
-1.82348
30
0
0
VERTEX
8
WATERMARK
10
-5.64176
20
-1.8563
30
0
0
VERTEX
8
WATERMARK
10
-5.58379
20
-1.88035
30
0
0
VERTEX
8
WATERMARK
10
-5.52276
20
-1.89503
30
0
0
VERTEX
8
WATERMARK
10
-5.4602
20
-1.89998
30
0
0
VERTEX
8
WATERMARK
10
-5.39762
20
-1.89509
30
0
0
VERTEX
8
WATERMARK
10
-5.33658
20
-1.88047
30
0
0
VERTEX
8
WATERMARK
10
-5.27859
20
-1.85648
30
0
0
VERTEX
8
WATERMARK
10
-5.22505
20
-1.82371
30
0
0
VERTEX
8
WATERMARK
10
-5.17731
20
-1.78297
30
0
0
VERTEX
8
WATERMARK
10
-5.13652
20
-1.73526
30
0
0
VERTEX
8
WATERMARK
10
-5.1037
20
-1.68176
30
0
0
VERTEX
8
WATERMARK
10
-5.07965
20
-1.62379
30
0
0
VERTEX
8
WATERMARK
10
-5.06497
20
-1.56276
30
0
0
VERTEX
8
WATERMARK
10
-5.06001
20
-1.5001
30
0
0
VERTEX
8
WATERMARK
10
-5.05983
20
-0.99123
30
0
0
VERTEX
8
WATERMARK
10
-5.05629
20
-0.9877
30
0
0
VERTEX
8
WATERMARK
10
-5.05371
20
-0.9877
30
0
0
VERTEX
8
WATERMARK
10
-4.12333
20
-1.80108
30
0
0
VERTEX
8
WATERMARK
10
-4.0774
20
-1.83575
30
0
0
VERTEX
8
WATERMARK
10
-4.02738
20
-1.86328
30
0
0
VERTEX
8
WATERMARK
10
-3.9736
20
-1.88351
30
0
0
VERTEX
8
WATERMARK
10
-3.91748
20
-1.89583
30
0
0
VERTEX
8
WATERMARK
10
-3.8602
20
-1.89999
30
0
0
SEQEND
8
WATERMARK
0
POLYLINE
8
WATERMARK
66
1
70
1
0
VERTEX
8
WATERMARK
10
-0.79238
20
-1.89423
30
0
0
VERTEX
8
WATERMARK
10
-0.72651
20
-1.87705
30
0
0
VERTEX
8
WATERMARK
10
-0.66451
20
-1.84895
30
0
0
VERTEX
8
WATERMARK
10
-0.60817
20
-1.81075
30
0
0
VERTEX
8
WATERMARK
10
-0.55911
20
-1.76354
30
0
0
VERTEX
8
WATERMARK
10
-0.52445
20
-1.7177
30
0
0
VERTEX
8
WATERMARK
10
-0.49672
20
-1.66738
30
0
0
VERTEX
8
WATERMARK
10
-0.47649
20
-1.6136
30
0
0
VERTEX
8
WATERMARK
10
-0.46417
20
-1.55748
30
0
0
VERTEX
8
WATERMARK
10
-0.46001
20
-1.50009
30
0
0
VERTEX
8
WATERMARK
10
-0.46
20
-0.10011
30
0
0
VERTEX
8
WATERMARK
10
-0.46606
20
-0.03076
30
0
0
VERTEX
8
WATERMARK
10
-0.48407
20
0.0366
30
0
0
VERTEX
8
WATERMARK
10
-0.5135
20
0.0998
30
0
0
VERTEX
8
WATERMARK
10
-0.55346
20
0.15694
30
0
0
VERTEX
8
WATERMARK
10
-0.60273
20
0.20626
30
0
0
VERTEX
8
WATERMARK
10
-0.65982
20
0.24628
30
0
0
VERTEX
8
WATERMARK
10
-0.72299
20
0.27578
30
0
0
VERTEX
8
WATERMARK
10
-0.79033
20
0.29387
30
0
0
VERTEX
8
WATERMARK
10
-0.85979
20
0.29998
30
0
0
VERTEX
8
WATERMARK
10
-0.92238
20
0.29509
30
0
0
VERTEX
8
WATERMARK
10
-0.98342
20
0.28047
30
0
0
VERTEX
8
WATERMARK
10
-1.04141
20
0.25648
30
0
0
VERTEX
8
WATERMARK
10
-1.09495
20
0.22371
30
0
0
VERTEX
8
WATERMARK
10
-1.14269
20
0.18297
30
0
0
VERTEX
8
WATERMARK
10
-1.18348
20
0.13526
30
0
0
VERTEX
8
WATERMARK
10
-1.2163
20
0.08176
30
0
0
VERTEX
8
WATERMARK
10
-1.24035
20
0.02379
30
0
0
VERTEX
8
WATERMARK
10
-1.25503
20
-0.03724
30
0
0
VERTEX
8
WATERMARK
10
-1.25999
20
-0.0999
30
0
0
VERTEX
8
WATERMARK
10
-1.26017
20
-0.60877
30
0
0
VERTEX
8
WATERMARK
10
-1.26371
20
-0.6123
30
0
0
VERTEX
8
WATERMARK
10
-1.26629
20
-0.6123
30
0
0
VERTEX
8
WATERMARK
10
-2.19667
20
0.20108
30
0
0
VERTEX
8
WATERMARK
10
-2.2426
20
0.23575
30
0
0
VERTEX
8
WATERMARK
10
-2.29262
20
0.26328
30
0
0
VERTEX
8
WATERMARK
10
-2.3464
20
0.28351
30
0
0
VERTEX
8
WATERMARK
10
-2.40252
20
0.29583
30
0
0
VERTEX
8
WATERMARK
10
-2.4598
20
0.29999
30
0
0
VERTEX
8
WATERMARK
10
-2.52762
20
0.29422
30
0
0
VERTEX
8
WATERMARK
10
-2.59349
20
0.27705
30
0
0
VERTEX
8
WATERMARK
10
-2.65549
20
0.24895
30
0
0
VERTEX
8
WATERMARK
10
-2.71183
20
0.21075
30
0
0
VERTEX
8
WATERMARK
10
-2.76089
20
0.16354
30
0
0
VERTEX
8
WATERMARK
10
-2.79555
20
0.1177
30
0
0
VERTEX
8
WATERMARK
10
-2.82328
20
0.06738
30
0
0
VERTEX
8
WATERMARK
10
-2.84351
20
0.0136
30
0
0
VERTEX
8
WATERMARK
10
-2.85583
20
-0.04252
30
0
0
VERTEX
8
WATERMARK
10
-2.85999
20
-0.09991
30
0
0
VERTEX
8
WATERMARK
10
-2.86
20
-1.49989
30
0
0
VERTEX
8
WATERMARK
10
-2.85394
20
-1.56924
30
0
0
VERTEX
8
WATERMARK
10
-2.83593
20
-1.6366
30
0
0
VERTEX
8
WATERMARK
10
-2.8065
20
-1.6998
30
0
0
VERTEX
8
WATERMARK
10
-2.76654
20
-1.75694
30
0
0
VERTEX
8
WATERMARK
10
-2.71727
20
-1.80626
30
0
0
VERTEX
8
WATERMARK
10
-2.66018
20
-1.84628
30
0
0
VERTEX
8
WATERMARK
10
-2.59701
20
-1.87578
30
0
0
VERTEX
8
WATERMARK
10
-2.52967
20
-1.89387
30
0
0
VERTEX
8
WATERMARK
10
-2.46021
20
-1.89998
30
0
0
VERTEX
8
WATERMARK
10
-2.39762
20
-1.89509
30
0
0
VERTEX
8
WATERMARK
10
-2.33658
20
-1.88047
30
0
0
VERTEX
8
WATERMARK
10
-2.27859
20
-1.85648
30
0
0
VERTEX
8
WATERMARK
10
-2.22505
20
-1.82371
30
0
0
VERTEX
8
WATERMARK
10
-2.17731
20
-1.78297
30
0
0
VERTEX
8
WATERMARK
10
-2.13652
20
-1.73526
30
0
0
VERTEX
8
WATERMARK
10
-2.1037
20
-1.68176
30
0
0
VERTEX
8
WATERMARK
10
-2.07965
20
-1.62379
30
0
0
VERTEX
8
WATERMARK
10
-2.06497
20
-1.56276
30
0
0
VERTEX
8
WATERMARK
10
-2.06001
20
-1.5001
30
0
0
VERTEX
8
WATERMARK
10
-2.05983
20
-0.99123
30
0
0
VERTEX
8
WATERMARK
10
-2.05629
20
-0.9877
30
0
0
VERTEX
8
WATERMARK
10
-2.05371
20
-0.9877
30
0
0
VERTEX
8
WATERMARK
10
-1.12333
20
-1.80108
30
0
0
VERTEX
8
WATERMARK
10
-1.0774
20
-1.83575
30
0
0
VERTEX
8
WATERMARK
10
-1.02738
20
-1.86328
30
0
0
VERTEX
8
WATERMARK
10
-0.9736
20
-1.88351
30
0
0
VERTEX
8
WATERMARK
10
-0.91748
20
-1.89583
30
0
0
VERTEX
8
WATERMARK
10
-0.8602
20
-1.89999
30
0
0
SEQEND
8
WATERMARK
0
POLYLINE
8
WATERMARK
66
1
70
1
0
VERTEX
8
WATERMARK
10
-4.59762
20
-4.69509
30
0
0
VERTEX
8
WATERMARK
10
-4.53658
20
-4.68047
30
0
0
VERTEX
8
WATERMARK
10
-4.47859
20
-4.65648
30
0
0
VERTEX
8
WATERMARK
10
-4.42505
20
-4.62371
30
0
0
VERTEX
8
WATERMARK
10
-4.37731
20
-4.58297
30
0
0
VERTEX
8
WATERMARK
10
-4.33652
20
-4.53526
30
0
0
VERTEX
8
WATERMARK
10
-4.3037
20
-4.48176
30
0
0
VERTEX
8
WATERMARK
10
-4.27965
20
-4.42379
30
0
0
VERTEX
8
WATERMARK
10
-4.26497
20
-4.36276
30
0
0
VERTEX
8
WATERMARK
10
-4.26001
20
-4.3001
30
0
0
VERTEX
8
WATERMARK
10
-4.25983
20
-3.30371
30
0
0
VERTEX
8
WATERMARK
10
-4.25629
20
-3.30017
30
0
0
VERTEX
8
WATERMARK
10
-3.85989
20
-3.29999
30
0
0
VERTEX
8
WATERMARK
10
-3.79076
20
-3.29394
30
0
0
VERTEX
8
WATERMARK
10
-3.7234
20
-3.27593
30
0
0
VERTEX
8
WATERMARK
10
-3.6602
20
-3.2465
30
0
0
VERTEX
8
WATERMARK
10
-3.60306
20
-3.20654
30
0
0
VERTEX
8
WATERMARK
10
-3.55374
20
-3.15727
30
0
0
VERTEX
8
WATERMARK
10
-3.51372
20
-3.10018
30
0
0
VERTEX
8
WATERMARK
10
-3.48422
20
-3.03701
30
0
0
VERTEX
8
WATERMARK
10
-3.46613
20
-2.96967
30
0
0
VERTEX
8
WATERMARK
10
-3.46002
20
-2.90022
30
0
0
VERTEX
8
WATERMARK
10
-3.46606
20
-2.83076
30
0
0
VERTEX
8
WATERMARK
10
-3.48407
20
-2.7634
30
0
0
VERTEX
8
WATERMARK
10
-3.5135
20
-2.7002
30
0
0
VERTEX
8
WATERMARK
10
-3.55346
20
-2.64306
30
0
0
VERTEX
8
WATERMARK
10
-3.60273
20
-2.59374
30
0
0
VERTEX
8
WATERMARK
10
-3.65982
20
-2.55372
30
0
0
VERTEX
8
WATERMARK
10
-3.72299
20
-2.52422
30
0
0
VERTEX
8
WATERMARK
10
-3.79033
20
-2.50613
30
0
0
VERTEX
8
WATERMARK
10
-3.85989
20
-2.50001
30
0
0
VERTEX
8
WATERMARK
10
-5.4599
20
-2.5
30
0
0
VERTEX
8
WATERMARK
10
-5.52238
20
-2.50491
30
0
0
VERTEX
8
WATERMARK
10
-5.58342
20
-2.51953
30
0
0
VERTEX
8
WATERMARK
10
-5.64141
20
-2.54352
30
0
0
VERTEX
8
WATERMARK
10
-5.69495
20
-2.57629
30
0
0
VERTEX
8
WATERMARK
10
-5.74269
20
-2.61703
30
0
0
VERTEX
8
WATERMARK
10
-5.78348
20
-2.66474
30
0
0
VERTEX
8
WATERMARK
10
-5.8163
20
-2.71824
30
0
0
VERTEX
8
WATERMARK
10
-5.84035
20
-2.77621
30
0
0
VERTEX
8
WATERMARK
10
-5.85503
20
-2.83724
30
0
0
VERTEX
8
WATERMARK
10
-5.85998
20
-2.8998
30
0
0
VERTEX
8
WATERMARK
10
-5.85509
20
-2.96238
30
0
0
VERTEX
8
WATERMARK
10
-5.84047
20
-3.02342
30
0
0
VERTEX
8
WATERMARK
10
-5.81648
20
-3.08141
30
0
0
VERTEX
8
WATERMARK
10
-5.78371
20
-3.13495
30
0
0
VERTEX
8
WATERMARK
10
-5.74297
20
-3.18269
30
0
0
VERTEX
8
WATERMARK
10
-5.69526
20
-3.22348
30
0
0
VERTEX
8
WATERMARK
10
-5.64176
20
-3.2563
30
0
0
VERTEX
8
WATERMARK
10
-5.58379
20
-3.28035
30
0
0
VERTEX
8
WATERMARK
10
-5.52276
20
-3.29503
30
0
0
VERTEX
8
WATERMARK
10
-5.4601
20
-3.29999
30
0
0
VERTEX
8
WATERMARK
10
-5.06371
20
-3.30017
30
0
0
VERTEX
8
WATERMARK
10
-5.06017
20
-3.30371
30
0
0
VERTEX
8
WATERMARK
10
-5.06
20
-4.29989
30
0
0
VERTEX
8
WATERMARK
10
-5.05394
20
-4.36924
30
0
0
VERTEX
8
WATERMARK
10
-5.03593
20
-4.4366
30
0
0
VERTEX
8
WATERMARK
10
-5.0065
20
-4.4998
30
0
0
VERTEX
8
WATERMARK
10
-4.96654
20
-4.55694
30
0
0
VERTEX
8
WATERMARK
10
-4.91727
20
-4.60626
30
0
0
VERTEX
8
WATERMARK
10
-4.86018
20
-4.64628
30
0
0
VERTEX
8
WATERMARK
10
-4.79701
20
-4.67578
30
0
0
VERTEX
8
WATERMARK
10
-4.72967
20
-4.69387
30
0
0
VERTEX
8
WATERMARK
10
-4.66021
20
-4.69998
30
0
0
SEQEND
8
WATERMARK
0
POLYLINE
8
WATERMARK
66
1
70
1
0
VERTEX
8
WATERMARK
10
-0.79762
20
-4.69509
30
0
0
VERTEX
8
WATERMARK
10
-0.73658
20
-4.68047
30
0
0
VERTEX
8
WATERMARK
10
-0.67859
20
-4.65648
30
0
0
VERTEX
8
WATERMARK
10
-0.62505
20
-4.62371
30
0
0
VERTEX
8
WATERMARK
10
-0.57731
20
-4.58297
30
0
0
VERTEX
8
WATERMARK
10
-0.53652
20
-4.53526
30
0
0
VERTEX
8
WATERMARK
10
-0.5037
20
-4.48176
30
0
0
VERTEX
8
WATERMARK
10
-0.47965
20
-4.42379
30
0
0
VERTEX
8
WATERMARK
10
-0.46497
20
-4.36276
30
0
0
VERTEX
8
WATERMARK
10
-0.46002
20
-4.30021
30
0
0
VERTEX
8
WATERMARK
10
-0.46606
20
-4.23076
30
0
0
VERTEX
8
WATERMARK
10
-0.48407
20
-4.1634
30
0
0
VERTEX
8
WATERMARK
10
-0.5135
20
-4.1002
30
0
0
VERTEX
8
WATERMARK
10
-0.55346
20
-4.04306
30
0
0
VERTEX
8
WATERMARK
10
-0.60273
20
-3.99374
30
0
0
VERTEX
8
WATERMARK
10
-0.65982
20
-3.95372
30
0
0
VERTEX
8
WATERMARK
10
-0.72299
20
-3.92422
30
0
0
VERTEX
8
WATERMARK
10
-0.79033
20
-3.90613
30
0
0
VERTEX
8
WATERMARK
10
-0.85989
20
-3.90001
30
0
0
VERTEX
8
WATERMARK
10
-1.25629
20
-3.89983
30
0
0
VERTEX
8
WATERMARK
10
-1.25983
20
-3.89629
30
0
0
VERTEX
8
WATERMARK
10
-1.25983
20
-3.30371
30
0
0
VERTEX
8
WATERMARK
10
-1.25629
20
-3.30017
30
0
0
VERTEX
8
WATERMARK
10
-0.85989
20
-3.29999
30
0
0
VERTEX
8
WATERMARK
10
-0.79076
20
-3.29394
30
0
0
VERTEX
8
WATERMARK
10
-0.7234
20
-3.27593
30
0
0
VERTEX
8
WATERMARK
10
-0.6602
20
-3.2465
30
0
0
VERTEX
8
WATERMARK
10
-0.60306
20
-3.20654
30
0
0
VERTEX
8
WATERMARK
10
-0.55374
20
-3.15727
30
0
0
VERTEX
8
WATERMARK
10
-0.51372
20
-3.10018
30
0
0
VERTEX
8
WATERMARK
10
-0.48422
20
-3.03701
30
0
0
VERTEX
8
WATERMARK
10
-0.46613
20
-2.96967
30
0
0
VERTEX
8
WATERMARK
10
-0.46002
20
-2.90022
30
0
0
VERTEX
8
WATERMARK
10
-0.46606
20
-2.83076
30
0
0
VERTEX
8
WATERMARK
10
-0.48407
20
-2.7634
30
0
0
VERTEX
8
WATERMARK
10
-0.5135
20
-2.7002
30
0
0
VERTEX
8
WATERMARK
10
-0.55346
20
-2.64306
30
0
0
VERTEX
8
WATERMARK
10
-0.60273
20
-2.59374
30
0
0
VERTEX
8
WATERMARK
10
-0.65982
20
-2.55372
30
0
0
VERTEX
8
WATERMARK
10
-0.72299
20
-2.52422
30
0
0
VERTEX
8
WATERMARK
10
-0.79033
20
-2.50613
30
0
0
VERTEX
8
WATERMARK
10
-0.85989
20
-2.50001
30
0
0
VERTEX
8
WATERMARK
10
-2.45989
20
-2.5
30
0
0
VERTEX
8
WATERMARK
10
-2.52924
20
-2.50606
30
0
0
VERTEX
8
WATERMARK
10
-2.5966
20
-2.52407
30
0
0
VERTEX
8
WATERMARK
10
-2.6598
20
-2.5535
30
0
0
VERTEX
8
WATERMARK
10
-2.71694
20
-2.59346
30
0
0
VERTEX
8
WATERMARK
10
-2.76626
20
-2.64273
30
0
0
VERTEX
8
WATERMARK
10
-2.80628
20
-2.69982
30
0
0
VERTEX
8
WATERMARK
10
-2.83578
20
-2.76299
30
0
0
VERTEX
8
WATERMARK
10
-2.85387
20
-2.83033
30
0
0
VERTEX
8
WATERMARK
10
-2.85998
20
-2.89978
30
0
0
VERTEX
8
WATERMARK
10
-2.85394
20
-2.96924
30
0
0
VERTEX
8
WATERMARK
10
-2.83593
20
-3.0366
30
0
0
VERTEX
8
WATERMARK
10
-2.8065
20
-3.0998
30
0
0
VERTEX
8
WATERMARK
10
-2.76654
20
-3.15694
30
0
0
VERTEX
8
WATERMARK
10
-2.71727
20
-3.20626
30
0
0
VERTEX
8
WATERMARK
10
-2.66018
20
-3.24628
30
0
0
VERTEX
8
WATERMARK
10
-2.59701
20
-3.27578
30
0
0
VERTEX
8
WATERMARK
10
-2.52967
20
-3.29387
30
0
0
VERTEX
8
WATERMARK
10
-2.46011
20
-3.29999
30
0
0
VERTEX
8
WATERMARK
10
-2.06371
20
-3.30017
30
0
0
VERTEX
8
WATERMARK
10
-2.06017
20
-3.30371
30
0
0
VERTEX
8
WATERMARK
10
-2.06017
20
-3.89629
30
0
0
VERTEX
8
WATERMARK
10
-2.06371
20
-3.89983
30
0
0
VERTEX
8
WATERMARK
10
-2.46011
20
-3.90001
30
0
0
VERTEX
8
WATERMARK
10
-2.52967
20
-3.90613
30
0
0
VERTEX
8
WATERMARK
10
-2.5966
20
-3.92407
30
0
0
VERTEX
8
WATERMARK
10
-2.6598
20
-3.9535
30
0
0
VERTEX
8
WATERMARK
10
-2.71694
20
-3.99346
30
0
0
VERTEX
8
WATERMARK
10
-2.76626
20
-4.04273
30
0
0
VERTEX
8
WATERMARK
10
-2.80628
20
-4.09982
30
0
0
VERTEX
8
WATERMARK
10
-2.83578
20
-4.16299
30
0
0
VERTEX
8
WATERMARK
10
-2.85387
20
-4.23033
30
0
0
VERTEX
8
WATERMARK
10
-2.85998
20
-4.29979
30
0
0
VERTEX
8
WATERMARK
10
-2.85509
20
-4.36238
30
0
0
VERTEX
8
WATERMARK
10
-2.84047
20
-4.42342
30
0
0
VERTEX
8
WATERMARK
10
-2.81648
20
-4.48141
30
0
0
VERTEX
8
WATERMARK
10
-2.78371
20
-4.53495
30
0
0
VERTEX
8
WATERMARK
10
-2.74297
20
-4.58269
30
0
0
VERTEX
8
WATERMARK
10
-2.69526
20
-4.62348
30
0
0
VERTEX
8
WATERMARK
10
-2.64176
20
-4.6563
30
0
0
VERTEX
8
WATERMARK
10
-2.58379
20
-4.68035
30
0
0
VERTEX
8
WATERMARK
10
-2.52276
20
-4.69503
30
0
0
VERTEX
8
WATERMARK
10
-2.4601
20
-4.69999
30
0
0
VERTEX
8
WATERMARK
10
-0.8601
20
-4.7
30
0
0
SEQEND
8
WATERMARK
0
POLYLINE
8
WATERMARK
66
1
70
1
0
VERTEX
8
WATERMARK
10
2.20238
20
-4.69509
30
0
0
VERTEX
8
WATERMARK
10
2.26342
20
-4.68047
30
0
0
VERTEX
8
WATERMARK
10
2.32141
20
-4.65648
30
0
0
VERTEX
8
WATERMARK
10
2.37495
20
-4.62371
30
0
0
VERTEX
8
WATERMARK
10
2.42269
20
-4.58297
30
0
0
VERTEX
8
WATERMARK
10
2.46348
20
-4.53526
30
0
0
VERTEX
8
WATERMARK
10
2.4963
20
-4.48176
30
0
0
VERTEX
8
WATERMARK
10
2.52035
20
-4.42379
30
0
0
VERTEX
8
WATERMARK
10
2.53503
20
-4.36276
30
0
0
VERTEX
8
WATERMARK
10
2.53999
20
-4.3001
30
0
0
VERTEX
8
WATERMARK
10
2.54
20
-2.90011
30
0
0
VERTEX
8
WATERMARK
10
2.53394
20
-2.83076
30
0
0
VERTEX
8
WATERMARK
10
2.51593
20
-2.7634
30
0
0
VERTEX
8
WATERMARK
10
2.4865
20
-2.7002
30
0
0
VERTEX
8
WATERMARK
10
2.44654
20
-2.64306
30
0
0
VERTEX
8
WATERMARK
10
2.39727
20
-2.59374
30
0
0
VERTEX
8
WATERMARK
10
2.34018
20
-2.55372
30
0
0
VERTEX
8
WATERMARK
10
2.27701
20
-2.52422
30
0
0
VERTEX
8
WATERMARK
10
2.20967
20
-2.50613
30
0
0
VERTEX
8
WATERMARK
10
2.14011
20
-2.50001
30
0
0
VERTEX
8
WATERMARK
10
0.54011
20
-2.5
30
0
0
VERTEX
8
WATERMARK
10
0.47076
20
-2.50606
30
0
0
VERTEX
8
WATERMARK
10
0.4034
20
-2.52407
30
0
0
VERTEX
8
WATERMARK
10
0.3402
20
-2.5535
30
0
0
VERTEX
8
WATERMARK
10
0.28306
20
-2.59346
30
0
0
VERTEX
8
WATERMARK
10
0.23374
20
-2.64273
30
0
0
VERTEX
8
WATERMARK
10
0.19372
20
-2.69982
30
0
0
VERTEX
8
WATERMARK
10
0.16422
20
-2.76299
30
0
0
VERTEX
8
WATERMARK
10
0.14613
20
-2.83033
30
0
0
VERTEX
8
WATERMARK
10
0.14001
20
-2.89989
30
0
0
VERTEX
8
WATERMARK
10
0.14
20
-4.2999
30
0
0
VERTEX
8
WATERMARK
10
0.14491
20
-4.36238
30
0
0
VERTEX
8
WATERMARK
10
0.15953
20
-4.42342
30
0
0
VERTEX
8
WATERMARK
10
0.18352
20
-4.48141
30
0
0
VERTEX
8
WATERMARK
10
0.21629
20
-4.53495
30
0
0
VERTEX
8
WATERMARK
10
0.25703
20
-4.58269
30
0
0
VERTEX
8
WATERMARK
10
0.30474
20
-4.62348
30
0
0
VERTEX
8
WATERMARK
10
0.35824
20
-4.6563
30
0
0
VERTEX
8
WATERMARK
10
0.41621
20
-4.68035
30
0
0
VERTEX
8
WATERMARK
10
0.47724
20
-4.69503
30
0
0
VERTEX
8
WATERMARK
10
0.5399
20
-4.69999
30
0
0
VERTEX
8
WATERMARK
10
2.1399
20
-4.7
30
0
0
SEQEND
8
WATERMARK
0
POLYLINE
8
WATERMARK
66
1
70
1
0
VERTEX
8
WATERMARK
10
0.94371
20
-3.89983
30
0
0
VERTEX
8
WATERMARK
10
0.94017
20
-3.89629
30
0
0
VERTEX
8
WATERMARK
10
0.94067
20
-3.3025
30
0
0
VERTEX
8
WATERMARK
10
0.9425
20
-3.30067
30
0
0
VERTEX
8
WATERMARK
10
1.73629
20
-3.30017
30
0
0
VERTEX
8
WATERMARK
10
1.73983
20
-3.30371
30
0
0
VERTEX
8
WATERMARK
10
1.73933
20
-3.8975
30
0
0
VERTEX
8
WATERMARK
10
1.7375
20
-3.89933
30
0
0
SEQEND
8
WATERMARK
0
POLYLINE
8
WATERMARK
66
1
70
1
0
VERTEX
8
WATERMARK
10
-6.77877
20
-4.69166
30
0
0
VERTEX
8
WATERMARK
10
-6.7185
20
-4.67413
30
0
0
VERTEX
8
WATERMARK
10
-6.66172
20
-4.64738
30
0
0
VERTEX
8
WATERMARK
10
-6.60982
20
-4.61209
30
0
0
VERTEX
8
WATERMARK
10
-6.56407
20
-4.56911
30
0
0
VERTEX
8
WATERMARK
10
-6.52562
20
-4.5195
30
0
0
VERTEX
8
WATERMARK
10
-6.4954
20
-4.46449
30
0
0
VERTEX
8
WATERMARK
10
-6.47415
20
-4.40543
30
0
0
VERTEX
8
WATERMARK
10
-6.46241
20
-4.34377
30
0
0
VERTEX
8
WATERMARK
10
-6.46046
20
-4.28104
30
0
0
VERTEX
8
WATERMARK
10
-6.46834
20
-4.21877
30
0
0
VERTEX
8
WATERMARK
10
-6.48587
20
-4.1585
30
0
0
VERTEX
8
WATERMARK
10
-6.51266
20
-4.10163
30
0
0
VERTEX
8
WATERMARK
10
-6.81221
20
-3.57741
30
0
0
VERTEX
8
WATERMARK
10
-6.82102
20
-3.5156
30
0
0
VERTEX
8
WATERMARK
10
-6.83839
20
-3.45717
30
0
0
VERTEX
8
WATERMARK
10
-6.86462
20
-3.40172
30
0
0
VERTEX
8
WATERMARK
10
-6.89903
20
-3.35093
30
0
0
VERTEX
8
WATERMARK
10
-6.94079
20
-3.306
30
0
0
VERTEX
8
WATERMARK
10
-6.98957
20
-3.26703
30
0
0
VERTEX
8
WATERMARK
10
-7.31275
20
-2.70147
30
0
0
VERTEX
8
WATERMARK
10
-7.34202
20
-2.65734
30
0
0
VERTEX
8
WATERMARK
10
-7.37704
20
-2.61728
30
0
0
VERTEX
8
WATERMARK
10
-7.41707
20
-2.58222
30
0
0
VERTEX
8
WATERMARK
10
-7.46138
20
-2.55281
30
0
0
VERTEX
8
WATERMARK
10
-7.52411
20
-2.52381
30
0
0
VERTEX
8
WATERMARK
10
-7.59091
20
-2.50602
30
0
0
VERTEX
8
WATERMARK
10
-7.65978
20
-2.50001
30
0
0
VERTEX
8
WATERMARK
10
-7.72866
20
-2.50595
30
0
0
VERTEX
8
WATERMARK
10
-7.79549
20
-2.52366
30
0
0
VERTEX
8
WATERMARK
10
-7.85829
20
-2.55262
30
0
0
VERTEX
8
WATERMARK
10
-7.90266
20
-2.58202
30
0
0
VERTEX
8
WATERMARK
10
-7.94272
20
-2.61704
30
0
0
VERTEX
8
WATERMARK
10
-7.97778
20
-2.65707
30
0
0
VERTEX
8
WATERMARK
10
-8.00725
20
-2.70147
30
0
0
VERTEX
8
WATERMARK
10
-8.33043
20
-3.26703
30
0
0
VERTEX
8
WATERMARK
10
-8.37921
20
-3.306
30
0
0
VERTEX
8
WATERMARK
10
-8.42073
20
-3.35063
30
0
0
VERTEX
8
WATERMARK
10
-8.45519
20
-3.40138
30
0
0
VERTEX
8
WATERMARK
10
-8.48147
20
-3.45681
30
0
0
VERTEX
8
WATERMARK
10
-8.49898
20
-3.5156
30
0
0
VERTEX
8
WATERMARK
10
-8.50779
20
-3.57741
30
0
0
VERTEX
8
WATERMARK
10
-8.80734
20
-4.10163
30
0
0
VERTEX
8
WATERMARK
10
-8.83413
20
-4.1585
30
0
0
VERTEX
8
WATERMARK
10
-8.85158
20
-4.21839
30
0
0
VERTEX
8
WATERMARK
10
-8.85952
20
-4.28065
30
0
0
VERTEX
8
WATERMARK
10
-8.85763
20
-4.34338
30
0
0
VERTEX
8
WATERMARK
10
-8.84595
20
-4.40505
30
0
0
VERTEX
8
WATERMARK
10
-8.82476
20
-4.46414
30
0
0
VERTEX
8
WATERMARK
10
-8.7946
20
-4.51918
30
0
0
VERTEX
8
WATERMARK
10
-8.75619
20
-4.56882
30
0
0
VERTEX
8
WATERMARK
10
-8.71049
20
-4.61184
30
0
0
VERTEX
8
WATERMARK
10
-8.65862
20
-4.64719
30
0
0
VERTEX
8
WATERMARK
10
-8.60186
20
-4.67399
30
0
0
VERTEX
8
WATERMARK
10
-8.54161
20
-4.69158
30
0
0
VERTEX
8
WATERMARK
10
-8.47935
20
-4.69952
30
0
0
VERTEX
8
WATERMARK
10
-8.41662
20
-4.69763
30
0
0
VERTEX
8
WATERMARK
10
-8.35495
20
-4.68595
30
0
0
VERTEX
8
WATERMARK
10
-8.29586
20
-4.66476
30
0
0
VERTEX
8
WATERMARK
10
-8.24082
20
-4.6346
30
0
0
VERTEX
8
WATERMARK
10
-8.19118
20
-4.59619
30
0
0
VERTEX
8
WATERMARK
10
-8.14816
20
-4.55049
30
0
0
VERTEX
8
WATERMARK
10
-8.11276
20
-4.49854
30
0
0
VERTEX
8
WATERMARK
10
-7.82852
20
-4.00148
30
0
0
VERTEX
8
WATERMARK
10
-7.82628
20
-4.00018
30
0
0
VERTEX
8
WATERMARK
10
-7.49374
20
-4.00017
30
0
0
VERTEX
8
WATERMARK
10
-7.4915
20
-4.00146
30
0
0
VERTEX
8
WATERMARK
10
-7.20724
20
-4.49854
30
0
0
VERTEX
8
WATERMARK
10
-7.17209
20
-4.55018
30
0
0
VERTEX
8
WATERMARK
10
-7.12911
20
-4.59593
30
0
0
VERTEX
8
WATERMARK
10
-7.0795
20
-4.63438
30
0
0
VERTEX
8
WATERMARK
10
-7.02449
20
-4.6646
30
0
0
VERTEX
8
WATERMARK
10
-6.96543
20
-4.68585
30
0
0
VERTEX
8
WATERMARK
10
-6.90377
20
-4.69759
30
0
0
VERTEX
8
WATERMARK
10
-6.84104
20
-4.69954
30
0
0
SEQEND
8
WATERMARK
0
POLYLINE
8
WATERMARK
66
1
70
1
0
VERTEX
8
WATERMARK
10
5.20762
20
-4.69422
30
0
0
VERTEX
8
WATERMARK
10
5.27349
20
-4.67705
30
0
0
VERTEX
8
WATERMARK
10
5.33549
20
-4.64895
30
0
0
VERTEX
8
WATERMARK
10
5.39183
20
-4.61075
30
0
0
VERTEX
8
WATERMARK
10
5.44089
20
-4.56354
30
0
0
VERTEX
8
WATERMARK
10
5.47555
20
-4.5177
30
0
0
VERTEX
8
WATERMARK
10
5.50328
20
-4.46738
30
0
0
VERTEX
8
WATERMARK
10
5.52351
20
-4.4136
30
0
0
VERTEX
8
WATERMARK
10
5.53583
20
-4.35748
30
0
0
VERTEX
8
WATERMARK
10
5.53999
20
-4.30009
30
0
0
VERTEX
8
WATERMARK
10
5.54
20
-2.9001
30
0
0
VERTEX
8
WATERMARK
10
5.53509
20
-2.83762
30
0
0
VERTEX
8
WATERMARK
10
5.52047
20
-2.77658
30
0
0
VERTEX
8
WATERMARK
10
5.49648
20
-2.71859
30
0
0
VERTEX
8
WATERMARK
10
5.46371
20
-2.66505
30
0
0
VERTEX
8
WATERMARK
10
5.42297
20
-2.61731
30
0
0
VERTEX
8
WATERMARK
10
5.37526
20
-2.57652
30
0
0
VERTEX
8
WATERMARK
10
5.32176
20
-2.5437
30
0
0
VERTEX
8
WATERMARK
10
5.26379
20
-2.51965
30
0
0
VERTEX
8
WATERMARK
10
5.20276
20
-2.50497
30
0
0
VERTEX
8
WATERMARK
10
5.14021
20
-2.50002
30
0
0
VERTEX
8
WATERMARK
10
5.07076
20
-2.50606
30
0
0
VERTEX
8
WATERMARK
10
5.0034
20
-2.52407
30
0
0
VERTEX
8
WATERMARK
10
4.9402
20
-2.5535
30
0
0
VERTEX
8
WATERMARK
10
4.88306
20
-2.59346
30
0
0
VERTEX
8
WATERMARK
10
4.83374
20
-2.64273
30
0
0
VERTEX
8
WATERMARK
10
4.79372
20
-2.69982
30
0
0
VERTEX
8
WATERMARK
10
4.76422
20
-2.76299
30
0
0
VERTEX
8
WATERMARK
10
4.74613
20
-2.83033
30
0
0
VERTEX
8
WATERMARK
10
4.74001
20
-2.89989
30
0
0
VERTEX
8
WATERMARK
10
4.73983
20
-3.40877
30
0
0
VERTEX
8
WATERMARK
10
4.73629
20
-3.4123
30
0
0
VERTEX
8
WATERMARK
10
4.73371
20
-3.4123
30
0
0
VERTEX
8
WATERMARK
10
3.80333
20
-2.59892
30
0
0
VERTEX
8
WATERMARK
10
3.7574
20
-2.56425
30
0
0
VERTEX
8
WATERMARK
10
3.70738
20
-2.53672
30
0
0
VERTEX
8
WATERMARK
10
3.6536
20
-2.51649
30
0
0
VERTEX
8
WATERMARK
10
3.59748
20
-2.50417
30
0
0
VERTEX
8
WATERMARK
10
3.5402
20
-2.50001
30
0
0
VERTEX
8
WATERMARK
10
3.47238
20
-2.50577
30
0
0
VERTEX
8
WATERMARK
10
3.40651
20
-2.52295
30
0
0
VERTEX
8
WATERMARK
10
3.34451
20
-2.55105
30
0
0
VERTEX
8
WATERMARK
10
3.28817
20
-2.58925
30
0
0
VERTEX
8
WATERMARK
10
3.23911
20
-2.63646
30
0
0
VERTEX
8
WATERMARK
10
3.20445
20
-2.6823
30
0
0
VERTEX
8
WATERMARK
10
3.17672
20
-2.73262
30
0
0
VERTEX
8
WATERMARK
10
3.15649
20
-2.7864
30
0
0
VERTEX
8
WATERMARK
10
3.14417
20
-2.84252
30
0
0
VERTEX
8
WATERMARK
10
3.14001
20
-2.89991
30
0
0
VERTEX
8
WATERMARK
10
3.14
20
-4.2999
30
0
0
VERTEX
8
WATERMARK
10
3.14491
20
-4.36238
30
0
0
VERTEX
8
WATERMARK
10
3.15953
20
-4.42342
30
0
0
VERTEX
8
WATERMARK
10
3.18352
20
-4.48141
30
0
0
VERTEX
8
WATERMARK
10
3.21629
20
-4.53495
30
0
0
VERTEX
8
WATERMARK
10
3.25703
20
-4.58269
30
0
0
VERTEX
8
WATERMARK
10
3.30474
20
-4.62348
30
0
0
VERTEX
8
WATERMARK
10
3.35824
20
-4.6563
30
0
0
VERTEX
8
WATERMARK
10
3.41621
20
-4.68035
30
0
0
VERTEX
8
WATERMARK
10
3.47724
20
-4.69503
30
0
0
VERTEX
8
WATERMARK
10
3.5398
20
-4.69998
30
0
0
VERTEX
8
WATERMARK
10
3.60238
20
-4.69509
30
0
0
VERTEX
8
WATERMARK
10
3.66342
20
-4.68047
30
0
0
VERTEX
8
WATERMARK
10
3.72141
20
-4.65648
30
0
0
VERTEX
8
WATERMARK
10
3.77495
20
-4.62371
30
0
0
VERTEX
8
WATERMARK
10
3.82269
20
-4.58297
30
0
0
VERTEX
8
WATERMARK
10
3.86348
20
-4.53526
30
0
0
VERTEX
8
WATERMARK
10
3.8963
20
-4.48176
30
0
0
VERTEX
8
WATERMARK
10
3.92035
20
-4.42379
30
0
0
VERTEX
8
WATERMARK
10
3.93503
20
-4.36276
30
0
0
VERTEX
8
WATERMARK
10
3.93999
20
-4.3001
30
0
0
VERTEX
8
WATERMARK
10
3.94017
20
-3.79123
30
0
0
VERTEX
8
WATERMARK
10
3.94371
20
-3.7877
30
0
0
VERTEX
8
WATERMARK
10
3.94629
20
-3.7877
30
0
0
VERTEX
8
WATERMARK
10
4.87667
20
-4.60108
30
0
0
VERTEX
8
WATERMARK
10
4.9226
20
-4.63575
30
0
0
VERTEX
8
WATERMARK
10
4.97262
20
-4.66328
30
0
0
VERTEX
8
WATERMARK
10
5.0264
20
-4.68351
30
0
0
VERTEX
8
WATERMARK
10
5.08252
20
-4.69583
30
0
0
VERTEX
8
WATERMARK
10
5.1398
20
-4.69999
30
0
0
SEQEND
8
WATERMARK
0
POLYLINE
8
WATERMARK
66
1
70
1
0
VERTEX
8
WATERMARK
10
-10.59091
20
-4.69398
30
0
0
VERTEX
8
WATERMARK
10
-10.52411
20
-4.67619
30
0
0
VERTEX
8
WATERMARK
10
-10.46163
20
-4.6473
30
0
0
VERTEX
8
WATERMARK
10
-10.97248
20
-4.50778
30
0
0
VERTEX
8
WATERMARK
10
-10.97496
20
-4.50344
30
0
0
VERTEX
8
WATERMARK
10
-10.97428
20
-4.50094
30
0
0
VERTEX
8
WATERMARK
10
-10.96996
20
-4.49846
30
0
0
VERTEX
8
WATERMARK
10
-10.31272
20
-4.49842
30
0
0
VERTEX
8
WATERMARK
10
-9.51275
20
-3.09855
30
0
0
VERTEX
8
WATERMARK
10
-9.48601
20
-3.04186
30
0
0
VERTEX
8
WATERMARK
10
-9.46842
20
-2.98161
30
0
0
VERTEX
8
WATERMARK
10
-9.46048
20
-2.91935
30
0
0
VERTEX
8
WATERMARK
10
-9.46237
20
-2.85662
30
0
0
VERTEX
8
WATERMARK
10
-9.47405
20
-2.79495
30
0
0
VERTEX
8
WATERMARK
10
-9.49524
20
-2.73586
30
0
0
VERTEX
8
WATERMARK
10
-9.5254
20
-2.68082
30
0
0
VERTEX
8
WATERMARK
10
-9.56381
20
-2.63118
30
0
0
VERTEX
8
WATERMARK
10
-9.60951
20
-2.58816
30
0
0
VERTEX
8
WATERMARK
10
-9.66138
20
-2.55281
30
0
0
VERTEX
8
WATERMARK
10
-9.71814
20
-2.52601
30
0
0
VERTEX
8
WATERMARK
10
-9.77839
20
-2.50842
30
0
0
VERTEX
8
WATERMARK
10
-9.84065
20
-2.50048
30
0
0
VERTEX
8
WATERMARK
10
-9.90338
20
-2.50237
30
0
0
VERTEX
8
WATERMARK
10
-9.96505
20
-2.51405
30
0
0
VERTEX
8
WATERMARK
10
-10.02414
20
-2.53524
30
0
0
VERTEX
8
WATERMARK
10
-10.07918
20
-2.5654
30
0
0
VERTEX
8
WATERMARK
10
-10.12882
20
-2.60381
30
0
0
VERTEX
8
WATERMARK
10
-10.17184
20
-2.64951
30
0
0
VERTEX
8
WATERMARK
10
-10.20724
20
-2.70146
30
0
0
VERTEX
8
WATERMARK
10
-10.65645
20
-3.48721
30
0
0
VERTEX
8
WATERMARK
10
-10.65868
20
-3.48852
30
0
0
VERTEX
8
WATERMARK
10
-10.66352
20
-3.48724
30
0
0
VERTEX
8
WATERMARK
10
-11.11276
20
-2.70146
30
0
0
VERTEX
8
WATERMARK
10
-11.14791
20
-2.64982
30
0
0
VERTEX
8
WATERMARK
10
-11.19089
20
-2.60407
30
0
0
VERTEX
8
WATERMARK
10
-11.2405
20
-2.56562
30
0
0
VERTEX
8
WATERMARK
10
-11.29551
20
-2.5354
30
0
0
VERTEX
8
WATERMARK
10
-11.35457
20
-2.51415
30
0
0
VERTEX
8
WATERMARK
10
-11.41623
20
-2.50241
30
0
0
VERTEX
8
WATERMARK
10
-11.47896
20
-2.50046
30
0
0
VERTEX
8
WATERMARK
10
-11.54123
20
-2.50834
30
0
0
VERTEX
8
WATERMARK
10
-11.6015
20
-2.52587
30
0
0
VERTEX
8
WATERMARK
10
-11.65828
20
-2.55262
30
0
0
VERTEX
8
WATERMARK
10
-11.71018
20
-2.58791
30
0
0
VERTEX
8
WATERMARK
10
-11.75593
20
-2.63089
30
0
0
VERTEX
8
WATERMARK
10
-11.79438
20
-2.6805
30
0
0
VERTEX
8
WATERMARK
10
-11.8246
20
-2.73551
30
0
0
VERTEX
8
WATERMARK
10
-11.84585
20
-2.79457
30
0
0
VERTEX
8
WATERMARK
10
-11.85759
20
-2.85623
30
0
0
VERTEX
8
WATERMARK
10
-11.85954
20
-2.91896
30
0
0
VERTEX
8
WATERMARK
10
-11.85166
20
-2.98123
30
0
0
VERTEX
8
WATERMARK
10
-11.83413
20
-3.0415
30
0
0
VERTEX
8
WATERMARK
10
-11.80734
20
-3.09837
30
0
0
VERTEX
8
WATERMARK
10
-11.00725
20
-4.49853
30
0
0
VERTEX
8
WATERMARK
10
-10.97798
20
-4.54266
30
0
0
VERTEX
8
WATERMARK
10
-10.94296
20
-4.58272
30
0
0
VERTEX
8
WATERMARK
10
-10.90293
20
-4.61778
30
0
0
VERTEX
8
WATERMARK
10
-10.85862
20
-4.64719
30
0
0
VERTEX
8
WATERMARK
10
-10.79589
20
-4.67619
30
0
0
VERTEX
8
WATERMARK
10
-10.72909
20
-4.69398
30
0
0
VERTEX
8
WATERMARK
10
-10.66022
20
-4.69999
30
0
0
SEQEND
8
WATERMARK
0
ENDSEC
0
EOF
