solid OpenSCAD_Model
  facet normal 0.99518 0.0980676 0
    outer loop
      vertex 22.9508 1.50427 3
      vertex 22.8032 3.0021 0
      vertex 22.8032 3.0021 3
    endloop
  endfacet
  facet normal 0.99518 0.0980676 0
    outer loop
      vertex 22.8032 3.0021 0
      vertex 22.9508 1.50427 3
      vertex 22.9508 1.50427 0
    endloop
  endfacet
  facet normal 0.999466 0.0326894 0
    outer loop
      vertex 23 0 3
      vertex 22.9508 1.50427 0
      vertex 22.9508 1.50427 3
    endloop
  endfacet
  facet normal 0.999466 0.0326894 0
    outer loop
      vertex 22.9508 1.50427 0
      vertex 23 0 3
      vertex 23 0 0
    endloop
  endfacet
  facet normal 0.849194 0.52808 0
    outer loop
      vertex 19.9186 11.5 3
      vertex 19.1238 12.7781 0
      vertex 19.1238 12.7781 3
    endloop
  endfacet
  facet normal 0.849194 0.52808 0
    outer loop
      vertex 19.1238 12.7781 0
      vertex 19.9186 11.5 3
      vertex 19.9186 11.5 0
    endloop
  endfacet
  facet normal 0.986651 -0.162849 0
    outer loop
      vertex 22.5581 -4.48708 3
      vertex 22.8032 -3.0021 0
      vertex 22.8032 -3.0021 3
    endloop
  endfacet
  facet normal 0.986651 -0.162849 0
    outer loop
      vertex 22.8032 -3.0021 0
      vertex 22.5581 -4.48708 3
      vertex 22.5581 -4.48708 0
    endloop
  endfacet
  facet normal 0.973872 0.227097 0
    outer loop
      vertex 22.5581 4.48708 3
      vertex 22.2163 5.95284 0
      vertex 22.2163 5.95284 3
    endloop
  endfacet
  facet normal 0.973872 0.227097 0
    outer loop
      vertex 22.2163 5.95284 0
      vertex 22.5581 4.48708 3
      vertex 22.5581 4.48708 0
    endloop
  endfacet
  facet normal 0.352271 -0.935898 0
    outer loop
      vertex 7.39311 -21.7794 0
      vertex 8.80172 -21.2492 3
      vertex 7.39311 -21.7794 3
    endloop
  endfacet
  facet normal 0.352271 -0.935898 0
    outer loop
      vertex 8.80172 -21.2492 3
      vertex 7.39311 -21.7794 0
      vertex 8.80172 -21.2492 0
    endloop
  endfacet
  facet normal 0 0 -1
    outer loop
      vertex 4.25 0 0
      vertex 23 0 0
      vertex 22.9508 -1.50427 0
    endloop
  endfacet
  facet normal 0 0 -1
    outer loop
      vertex 4.22953 -0.416573 0
      vertex 22.9508 -1.50427 0
      vertex 22.8032 -3.0021 0
    endloop
  endfacet
  facet normal 0 0 -1
    outer loop
      vertex 23 0 0
      vertex 4.25 0 0
      vertex 22.9508 1.50427 0
    endloop
  endfacet
  facet normal 0 0 -1
    outer loop
      vertex 4.16834 -0.829133 0
      vertex 22.8032 -3.0021 0
      vertex 22.5581 -4.48708 0
    endloop
  endfacet
  facet normal 0 0 -1
    outer loop
      vertex 4.22953 0.416573 0
      vertex 22.9508 1.50427 0
      vertex 4.25 0 0
    endloop
  endfacet
  facet normal 0 0 -1
    outer loop
      vertex 4.16834 -0.829133 0
      vertex 22.5581 -4.48708 0
      vertex 22.2163 -5.95284 0
    endloop
  endfacet
  facet normal -0 0 -1
    outer loop
      vertex 22.9508 1.50427 0
      vertex 4.22953 0.416573 0
      vertex 22.8032 3.0021 0
    endloop
  endfacet
  facet normal 0 0 -1
    outer loop
      vertex 4.067 -1.23371 0
      vertex 22.2163 -5.95284 0
      vertex 21.7794 -7.39311 0
    endloop
  endfacet
  facet normal 0 0 -1
    outer loop
      vertex 4.16834 0.829133 0
      vertex 22.8032 3.0021 0
      vertex 4.22953 0.416573 0
    endloop
  endfacet
  facet normal 0 0 -1
    outer loop
      vertex 3.92649 -1.6264 0
      vertex 21.7794 -7.39311 0
      vertex 21.2492 -8.80172 0
    endloop
  endfacet
  facet normal -0 0 -1
    outer loop
      vertex 22.8032 3.0021 0
      vertex 4.16834 0.829133 0
      vertex 22.5581 4.48708 0
    endloop
  endfacet
  facet normal 0 0 -1
    outer loop
      vertex 3.92649 -1.6264 0
      vertex 21.2492 -8.80172 0
      vertex 20.6281 -10.1726 0
    endloop
  endfacet
  facet normal -0 0 -1
    outer loop
      vertex 22.5581 4.48708 0
      vertex 4.16834 0.829133 0
      vertex 22.2163 5.95284 0
    endloop
  endfacet
  facet normal 0 0 -1
    outer loop
      vertex 3.74817 -2.00344 0
      vertex 20.6281 -10.1726 0
      vertex 19.9186 -11.5 0
    endloop
  endfacet
  facet normal 0 0 -1
    outer loop
      vertex 4.067 1.23371 0
      vertex 22.2163 5.95284 0
      vertex 4.16834 0.829133 0
    endloop
  endfacet
  facet normal 0 0 -1
    outer loop
      vertex 3.53375 -2.36117 0
      vertex 19.9186 -11.5 0
      vertex 19.1238 -12.7781 0
    endloop
  endfacet
  facet normal -0 0 -1
    outer loop
      vertex 22.2163 5.95284 0
      vertex 4.067 1.23371 0
      vertex 21.7794 7.39311 0
    endloop
  endfacet
  facet normal 0 0 -1
    outer loop
      vertex 3.53375 -2.36117 0
      vertex 19.1238 -12.7781 0
      vertex 18.2471 -14.0015 0
    endloop
  endfacet
  facet normal 0 0 -1
    outer loop
      vertex 3.92649 1.6264 0
      vertex 21.7794 7.39311 0
      vertex 4.067 1.23371 0
    endloop
  endfacet
  facet normal 0 0 -1
    outer loop
      vertex 3.28529 -2.69617 0
      vertex 18.2471 -14.0015 0
      vertex 17.2923 -15.165 0
    endloop
  endfacet
  facet normal -0 0 -1
    outer loop
      vertex 21.7794 7.39311 0
      vertex 3.92649 1.6264 0
      vertex 21.2492 8.80172 0
    endloop
  endfacet
  facet normal 0 0 -1
    outer loop
      vertex 3.0052 -3.0052 0
      vertex 17.2923 -15.165 0
      vertex 16.2635 -16.2635 0
    endloop
  endfacet
  facet normal -0 0 -1
    outer loop
      vertex 21.2492 8.80172 0
      vertex 3.92649 1.6264 0
      vertex 20.6281 10.1726 0
    endloop
  endfacet
  facet normal 0 0 -1
    outer loop
      vertex 3.0052 -3.0052 0
      vertex 16.2635 -16.2635 0
      vertex 15.165 -17.2923 0
    endloop
  endfacet
  facet normal 0 0 -1
    outer loop
      vertex 3.74817 2.00344 0
      vertex 20.6281 10.1726 0
      vertex 3.92649 1.6264 0
    endloop
  endfacet
  facet normal 0 0 -1
    outer loop
      vertex 2.69617 -3.28529 0
      vertex 15.165 -17.2923 0
      vertex 14.0015 -18.2471 0
    endloop
  endfacet
  facet normal -0 0 -1
    outer loop
      vertex 20.6281 10.1726 0
      vertex 3.74817 2.00344 0
      vertex 19.9186 11.5 0
    endloop
  endfacet
  facet normal 0 0 -1
    outer loop
      vertex 2.36117 -3.53375 0
      vertex 14.0015 -18.2471 0
      vertex 12.7781 -19.1238 0
    endloop
  endfacet
  facet normal 0 0 -1
    outer loop
      vertex 3.53375 2.36117 0
      vertex 19.9186 11.5 0
      vertex 3.74817 2.00344 0
    endloop
  endfacet
  facet normal 0 0 -1
    outer loop
      vertex 2.36117 -3.53375 0
      vertex 12.7781 -19.1238 0
      vertex 11.5 -19.9186 0
    endloop
  endfacet
  facet normal -0 0 -1
    outer loop
      vertex 19.9186 11.5 0
      vertex 3.53375 2.36117 0
      vertex 19.1238 12.7781 0
    endloop
  endfacet
  facet normal 0 0 -1
    outer loop
      vertex 2.00344 -3.74817 0
      vertex 11.5 -19.9186 0
      vertex 10.1726 -20.6281 0
    endloop
  endfacet
  facet normal -0 0 -1
    outer loop
      vertex 19.1238 12.7781 0
      vertex 3.53375 2.36117 0
      vertex 18.2471 14.0015 0
    endloop
  endfacet
  facet normal 0 0 -1
    outer loop
      vertex 1.6264 -3.92649 0
      vertex 10.1726 -20.6281 0
      vertex 8.80172 -21.2492 0
    endloop
  endfacet
  facet normal 0 0 -1
    outer loop
      vertex 3.28529 2.69617 0
      vertex 18.2471 14.0015 0
      vertex 3.53375 2.36117 0
    endloop
  endfacet
  facet normal 0 0 -1
    outer loop
      vertex 1.6264 -3.92649 0
      vertex 8.80172 -21.2492 0
      vertex 7.39311 -21.7794 0
    endloop
  endfacet
  facet normal -0 0 -1
    outer loop
      vertex 18.2471 14.0015 0
      vertex 3.28529 2.69617 0
      vertex 17.2923 15.165 0
    endloop
  endfacet
  facet normal 0 0 -1
    outer loop
      vertex 1.23371 -4.067 0
      vertex 7.39311 -21.7794 0
      vertex 5.95284 -22.2163 0
    endloop
  endfacet
  facet normal 0 0 -1
    outer loop
      vertex 3.0052 3.0052 0
      vertex 17.2923 15.165 0
      vertex 3.28529 2.69617 0
    endloop
  endfacet
  facet normal 0 0 -1
    outer loop
      vertex 0.829133 -4.16834 0
      vertex 5.95284 -22.2163 0
      vertex 4.48708 -22.5581 0
    endloop
  endfacet
  facet normal -0 0 -1
    outer loop
      vertex 17.2923 15.165 0
      vertex 3.0052 3.0052 0
      vertex 16.2635 16.2635 0
    endloop
  endfacet
  facet normal -0 0 -1
    outer loop
      vertex 16.2635 16.2635 0
      vertex 3.0052 3.0052 0
      vertex 15.165 17.2923 0
    endloop
  endfacet
  facet normal 0 0 -1
    outer loop
      vertex 22.9508 -1.50427 0
      vertex 4.22953 -0.416573 0
      vertex 4.25 0 0
    endloop
  endfacet
  facet normal 0 0 -1
    outer loop
      vertex 22.8032 -3.0021 0
      vertex 4.16834 -0.829133 0
      vertex 4.22953 -0.416573 0
    endloop
  endfacet
  facet normal 0 0 -1
    outer loop
      vertex 22.2163 -5.95284 0
      vertex 4.067 -1.23371 0
      vertex 4.16834 -0.829133 0
    endloop
  endfacet
  facet normal 0 0 -1
    outer loop
      vertex 21.7794 -7.39311 0
      vertex 3.92649 -1.6264 0
      vertex 4.067 -1.23371 0
    endloop
  endfacet
  facet normal 0 0 -1
    outer loop
      vertex 20.6281 -10.1726 0
      vertex 3.74817 -2.00344 0
      vertex 3.92649 -1.6264 0
    endloop
  endfacet
  facet normal 0 0 -1
    outer loop
      vertex 19.9186 -11.5 0
      vertex 3.53375 -2.36117 0
      vertex 3.74817 -2.00344 0
    endloop
  endfacet
  facet normal 0 0 -1
    outer loop
      vertex 18.2471 -14.0015 0
      vertex 3.28529 -2.69617 0
      vertex 3.53375 -2.36117 0
    endloop
  endfacet
  facet normal 0 0 -1
    outer loop
      vertex 17.2923 -15.165 0
      vertex 3.0052 -3.0052 0
      vertex 3.28529 -2.69617 0
    endloop
  endfacet
  facet normal 0 0 -1
    outer loop
      vertex 0.829133 -4.16834 0
      vertex 4.48708 -22.5581 0
      vertex 3.0021 -22.8032 0
    endloop
  endfacet
  facet normal 0 0 -1
    outer loop
      vertex 15.165 -17.2923 0
      vertex 2.69617 -3.28529 0
      vertex 3.0052 -3.0052 0
    endloop
  endfacet
  facet normal 0 0 -1
    outer loop
      vertex 14.0015 -18.2471 0
      vertex 2.36117 -3.53375 0
      vertex 2.69617 -3.28529 0
    endloop
  endfacet
  facet normal 0 0 -1
    outer loop
      vertex 11.5 -19.9186 0
      vertex 2.00344 -3.74817 0
      vertex 2.36117 -3.53375 0
    endloop
  endfacet
  facet normal 0 0 -1
    outer loop
      vertex 10.1726 -20.6281 0
      vertex 1.6264 -3.92649 0
      vertex 2.00344 -3.74817 0
    endloop
  endfacet
  facet normal 0 0 -1
    outer loop
      vertex 0.416573 -4.22953 0
      vertex 3.0021 -22.8032 0
      vertex 1.50427 -22.9508 0
    endloop
  endfacet
  facet normal 0 0 -1
    outer loop
      vertex 7.39311 -21.7794 0
      vertex 1.23371 -4.067 0
      vertex 1.6264 -3.92649 0
    endloop
  endfacet
  facet normal 0 0 -1
    outer loop
      vertex 5.95284 -22.2163 0
      vertex 0.829133 -4.16834 0
      vertex 1.23371 -4.067 0
    endloop
  endfacet
  facet normal 0 0 -1
    outer loop
      vertex 3.0021 -22.8032 0
      vertex 0.416573 -4.22953 0
      vertex 0.829133 -4.16834 0
    endloop
  endfacet
  facet normal 0 0 -1
    outer loop
      vertex 0 -4.25 0
      vertex 1.50427 -22.9508 0
      vertex 0 -23 0
    endloop
  endfacet
  facet normal 0 0 -1
    outer loop
      vertex 1.50427 -22.9508 0
      vertex 0 -4.25 0
      vertex 0.416573 -4.22953 0
    endloop
  endfacet
  facet normal 0 0 -1
    outer loop
      vertex 2.69617 3.28529 0
      vertex 15.165 17.2923 0
      vertex 3.0052 3.0052 0
    endloop
  endfacet
  facet normal -0 0 -1
    outer loop
      vertex 15.165 17.2923 0
      vertex 2.69617 3.28529 0
      vertex 14.0015 18.2471 0
    endloop
  endfacet
  facet normal 0 0 -1
    outer loop
      vertex 2.36117 3.53375 0
      vertex 14.0015 18.2471 0
      vertex 2.69617 3.28529 0
    endloop
  endfacet
  facet normal -0 0 -1
    outer loop
      vertex 14.0015 18.2471 0
      vertex 2.36117 3.53375 0
      vertex 12.7781 19.1238 0
    endloop
  endfacet
  facet normal -0 0 -1
    outer loop
      vertex 12.7781 19.1238 0
      vertex 2.36117 3.53375 0
      vertex 11.5 19.9186 0
    endloop
  endfacet
  facet normal 0 0 -1
    outer loop
      vertex 2.00344 3.74817 0
      vertex 11.5 19.9186 0
      vertex 2.36117 3.53375 0
    endloop
  endfacet
  facet normal -0 0 -1
    outer loop
      vertex 11.5 19.9186 0
      vertex 2.00344 3.74817 0
      vertex 10.1726 20.6281 0
    endloop
  endfacet
  facet normal 0 0 -1
    outer loop
      vertex 1.6264 3.92649 0
      vertex 10.1726 20.6281 0
      vertex 2.00344 3.74817 0
    endloop
  endfacet
  facet normal -0 0 -1
    outer loop
      vertex 10.1726 20.6281 0
      vertex 1.6264 3.92649 0
      vertex 8.80172 21.2492 0
    endloop
  endfacet
  facet normal -0 0 -1
    outer loop
      vertex 8.80172 21.2492 0
      vertex 1.6264 3.92649 0
      vertex 7.39311 21.7794 0
    endloop
  endfacet
  facet normal 0 0 -1
    outer loop
      vertex 1.23371 4.067 0
      vertex 7.39311 21.7794 0
      vertex 1.6264 3.92649 0
    endloop
  endfacet
  facet normal -0 0 -1
    outer loop
      vertex 7.39311 21.7794 0
      vertex 1.23371 4.067 0
      vertex 5.95284 22.2163 0
    endloop
  endfacet
  facet normal 0 0 -1
    outer loop
      vertex 0.829133 4.16834 0
      vertex 5.95284 22.2163 0
      vertex 1.23371 4.067 0
    endloop
  endfacet
  facet normal -0 0 -1
    outer loop
      vertex 5.95284 22.2163 0
      vertex 0.829133 4.16834 0
      vertex 4.48708 22.5581 0
    endloop
  endfacet
  facet normal -0 0 -1
    outer loop
      vertex 4.48708 22.5581 0
      vertex 0.829133 4.16834 0
      vertex 3.0021 22.8032 0
    endloop
  endfacet
  facet normal 0 0 -1
    outer loop
      vertex 0.416573 4.22953 0
      vertex 3.0021 22.8032 0
      vertex 0.829133 4.16834 0
    endloop
  endfacet
  facet normal -0 0 -1
    outer loop
      vertex 3.0021 22.8032 0
      vertex 0.416573 4.22953 0
      vertex 1.50427 22.9508 0
    endloop
  endfacet
  facet normal 0 0 -1
    outer loop
      vertex 0 4.25 0
      vertex 1.50427 22.9508 0
      vertex 0.416573 4.22953 0
    endloop
  endfacet
  facet normal -0 0 -1
    outer loop
      vertex 1.50427 22.9508 0
      vertex 0 4.25 0
      vertex 0 23 0
    endloop
  endfacet
  facet normal 0.956941 -0.290284 0
    outer loop
      vertex 21.7794 -7.39311 3
      vertex 22.2163 -5.95284 0
      vertex 22.2163 -5.95284 3
    endloop
  endfacet
  facet normal 0.956941 -0.290284 0
    outer loop
      vertex 22.2163 -5.95284 0
      vertex 21.7794 -7.39311 3
      vertex 21.7794 -7.39311 0
    endloop
  endfacet
  facet normal 0.849194 -0.52808 0
    outer loop
      vertex 19.1238 -12.7781 3
      vertex 19.9186 -11.5 0
      vertex 19.9186 -11.5 3
    endloop
  endfacet
  facet normal 0.849194 -0.52808 0
    outer loop
      vertex 19.9186 -11.5 0
      vertex 19.1238 -12.7781 3
      vertex 19.1238 -12.7781 0
    endloop
  endfacet
  facet normal 0.999466 -0.0326894 0
    outer loop
      vertex 22.9508 -1.50427 3
      vertex 23 0 0
      vertex 23 0 3
    endloop
  endfacet
  facet normal 0.999466 -0.0326894 0
    outer loop
      vertex 23 0 0
      vertex 22.9508 -1.50427 3
      vertex 22.9508 -1.50427 0
    endloop
  endfacet
  facet normal 0.582488 0.812839 -0
    outer loop
      vertex 14.0015 18.2471 0
      vertex 12.7781 19.1238 3
      vertex 14.0015 18.2471 3
    endloop
  endfacet
  facet normal 0.582488 0.812839 0
    outer loop
      vertex 12.7781 19.1238 3
      vertex 14.0015 18.2471 0
      vertex 12.7781 19.1238 0
    endloop
  endfacet
  facet normal 0.956941 0.290284 0
    outer loop
      vertex 22.2163 5.95284 3
      vertex 21.7794 7.39311 0
      vertex 21.7794 7.39311 3
    endloop
  endfacet
  facet normal 0.956941 0.290284 0
    outer loop
      vertex 21.7794 7.39311 0
      vertex 22.2163 5.95284 3
      vertex 22.2163 5.95284 0
    endloop
  endfacet
  facet normal 0.63437 0.77303 -0
    outer loop
      vertex 15.165 17.2923 0
      vertex 14.0015 18.2471 3
      vertex 15.165 17.2923 3
    endloop
  endfacet
  facet normal 0.63437 0.77303 0
    outer loop
      vertex 14.0015 18.2471 3
      vertex 15.165 17.2923 0
      vertex 14.0015 18.2471 0
    endloop
  endfacet
  facet normal 0.683572 -0.729883 0
    outer loop
      vertex 15.165 -17.2923 0
      vertex 16.2635 -16.2635 3
      vertex 15.165 -17.2923 3
    endloop
  endfacet
  facet normal 0.683572 -0.729883 0
    outer loop
      vertex 16.2635 -16.2635 3
      vertex 15.165 -17.2923 0
      vertex 16.2635 -16.2635 0
    endloop
  endfacet
  facet normal 0.0980676 -0.99518 0
    outer loop
      vertex 1.50427 -22.9508 0
      vertex 3.0021 -22.8032 3
      vertex 1.50427 -22.9508 3
    endloop
  endfacet
  facet normal 0.0980676 -0.99518 0
    outer loop
      vertex 3.0021 -22.8032 3
      vertex 1.50427 -22.9508 0
      vertex 3.0021 -22.8032 0
    endloop
  endfacet
  facet normal 0.0326894 -0.999466 0
    outer loop
      vertex 0 -23 0
      vertex 1.50427 -22.9508 3
      vertex 0 -23 3
    endloop
  endfacet
  facet normal 0.0326894 -0.999466 0
    outer loop
      vertex 1.50427 -22.9508 3
      vertex 0 -23 0
      vertex 1.50427 -22.9508 0
    endloop
  endfacet
  facet normal 0.77303 -0.63437 0
    outer loop
      vertex 17.2923 -15.165 3
      vertex 18.2471 -14.0015 0
      vertex 18.2471 -14.0015 3
    endloop
  endfacet
  facet normal 0.77303 -0.63437 0
    outer loop
      vertex 18.2471 -14.0015 0
      vertex 17.2923 -15.165 3
      vertex 17.2923 -15.165 0
    endloop
  endfacet
  facet normal 0.352271 0.935898 -0
    outer loop
      vertex 8.80172 21.2492 0
      vertex 7.39311 21.7794 3
      vertex 8.80172 21.2492 3
    endloop
  endfacet
  facet normal 0.352271 0.935898 0
    outer loop
      vertex 7.39311 21.7794 3
      vertex 8.80172 21.2492 0
      vertex 7.39311 21.7794 0
    endloop
  endfacet
  facet normal 0.77303 0.63437 0
    outer loop
      vertex 18.2471 14.0015 3
      vertex 17.2923 15.165 0
      vertex 17.2923 15.165 3
    endloop
  endfacet
  facet normal 0.77303 0.63437 0
    outer loop
      vertex 17.2923 15.165 0
      vertex 18.2471 14.0015 3
      vertex 18.2471 14.0015 0
    endloop
  endfacet
  facet normal 0.935898 0.352271 0
    outer loop
      vertex 21.7794 7.39311 3
      vertex 21.2492 8.80172 0
      vertex 21.2492 8.80172 3
    endloop
  endfacet
  facet normal 0.935898 0.352271 0
    outer loop
      vertex 21.2492 8.80172 0
      vertex 21.7794 7.39311 3
      vertex 21.7794 7.39311 0
    endloop
  endfacet
  facet normal 0.683572 0.729883 -0
    outer loop
      vertex 16.2635 16.2635 0
      vertex 15.165 17.2923 3
      vertex 16.2635 16.2635 3
    endloop
  endfacet
  facet normal 0.683572 0.729883 0
    outer loop
      vertex 15.165 17.2923 3
      vertex 16.2635 16.2635 0
      vertex 15.165 17.2923 0
    endloop
  endfacet
  facet normal 0.290284 0.956941 -0
    outer loop
      vertex 7.39311 21.7794 0
      vertex 5.95284 22.2163 3
      vertex 7.39311 21.7794 3
    endloop
  endfacet
  facet normal 0.290284 0.956941 0
    outer loop
      vertex 5.95284 22.2163 3
      vertex 7.39311 21.7794 0
      vertex 5.95284 22.2163 0
    endloop
  endfacet
  facet normal 0.471392 0.881924 -0
    outer loop
      vertex 11.5 19.9186 0
      vertex 10.1726 20.6281 3
      vertex 11.5 19.9186 3
    endloop
  endfacet
  facet normal 0.471392 0.881924 0
    outer loop
      vertex 10.1726 20.6281 3
      vertex 11.5 19.9186 0
      vertex 10.1726 20.6281 0
    endloop
  endfacet
  facet normal 0.986651 0.162849 0
    outer loop
      vertex 22.8032 3.0021 3
      vertex 22.5581 4.48708 0
      vertex 22.5581 4.48708 3
    endloop
  endfacet
  facet normal 0.986651 0.162849 0
    outer loop
      vertex 22.5581 4.48708 0
      vertex 22.8032 3.0021 3
      vertex 22.8032 3.0021 0
    endloop
  endfacet
  facet normal 0.412686 0.910873 -0
    outer loop
      vertex 10.1726 20.6281 0
      vertex 8.80172 21.2492 3
      vertex 10.1726 20.6281 3
    endloop
  endfacet
  facet normal 0.412686 0.910873 0
    outer loop
      vertex 8.80172 21.2492 3
      vertex 10.1726 20.6281 0
      vertex 8.80172 21.2492 0
    endloop
  endfacet
  facet normal 0.881924 0.471392 0
    outer loop
      vertex 20.6281 10.1726 3
      vertex 19.9186 11.5 0
      vertex 19.9186 11.5 3
    endloop
  endfacet
  facet normal 0.881924 0.471392 0
    outer loop
      vertex 19.9186 11.5 0
      vertex 20.6281 10.1726 3
      vertex 20.6281 10.1726 0
    endloop
  endfacet
  facet normal 0.471392 -0.881924 0
    outer loop
      vertex 10.1726 -20.6281 0
      vertex 11.5 -19.9186 3
      vertex 10.1726 -20.6281 3
    endloop
  endfacet
  facet normal 0.471392 -0.881924 0
    outer loop
      vertex 11.5 -19.9186 3
      vertex 10.1726 -20.6281 0
      vertex 11.5 -19.9186 0
    endloop
  endfacet
  facet normal 0.0326894 0.999466 -0
    outer loop
      vertex 1.50427 22.9508 0
      vertex 0 23 3
      vertex 1.50427 22.9508 3
    endloop
  endfacet
  facet normal 0.0326894 0.999466 0
    outer loop
      vertex 0 23 3
      vertex 1.50427 22.9508 0
      vertex 0 23 0
    endloop
  endfacet
  facet normal 0.290284 -0.956941 0
    outer loop
      vertex 5.95284 -22.2163 0
      vertex 7.39311 -21.7794 3
      vertex 5.95284 -22.2163 3
    endloop
  endfacet
  facet normal 0.290284 -0.956941 0
    outer loop
      vertex 7.39311 -21.7794 3
      vertex 5.95284 -22.2163 0
      vertex 7.39311 -21.7794 0
    endloop
  endfacet
  facet normal 0.729883 0.683572 0
    outer loop
      vertex 17.2923 15.165 3
      vertex 16.2635 16.2635 0
      vertex 16.2635 16.2635 3
    endloop
  endfacet
  facet normal 0.729883 0.683572 0
    outer loop
      vertex 16.2635 16.2635 0
      vertex 17.2923 15.165 3
      vertex 17.2923 15.165 0
    endloop
  endfacet
  facet normal 0.412686 -0.910873 0
    outer loop
      vertex 8.80172 -21.2492 0
      vertex 10.1726 -20.6281 3
      vertex 8.80172 -21.2492 3
    endloop
  endfacet
  facet normal 0.412686 -0.910873 0
    outer loop
      vertex 10.1726 -20.6281 3
      vertex 8.80172 -21.2492 0
      vertex 10.1726 -20.6281 0
    endloop
  endfacet
  facet normal 0.812839 -0.582488 0
    outer loop
      vertex 18.2471 -14.0015 3
      vertex 19.1238 -12.7781 0
      vertex 19.1238 -12.7781 3
    endloop
  endfacet
  facet normal 0.812839 -0.582488 0
    outer loop
      vertex 19.1238 -12.7781 0
      vertex 18.2471 -14.0015 3
      vertex 18.2471 -14.0015 0
    endloop
  endfacet
  facet normal 0.52808 -0.849194 0
    outer loop
      vertex 11.5 -19.9186 0
      vertex 12.7781 -19.1238 3
      vertex 11.5 -19.9186 3
    endloop
  endfacet
  facet normal 0.52808 -0.849194 0
    outer loop
      vertex 12.7781 -19.1238 3
      vertex 11.5 -19.9186 0
      vertex 12.7781 -19.1238 0
    endloop
  endfacet
  facet normal 0.227097 -0.973872 0
    outer loop
      vertex 4.48708 -22.5581 0
      vertex 5.95284 -22.2163 3
      vertex 4.48708 -22.5581 3
    endloop
  endfacet
  facet normal 0.227097 -0.973872 0
    outer loop
      vertex 5.95284 -22.2163 3
      vertex 4.48708 -22.5581 0
      vertex 5.95284 -22.2163 0
    endloop
  endfacet
  facet normal 0.227097 0.973872 -0
    outer loop
      vertex 5.95284 22.2163 0
      vertex 4.48708 22.5581 3
      vertex 5.95284 22.2163 3
    endloop
  endfacet
  facet normal 0.227097 0.973872 0
    outer loop
      vertex 4.48708 22.5581 3
      vertex 5.95284 22.2163 0
      vertex 4.48708 22.5581 0
    endloop
  endfacet
  facet normal 0.162849 0.986651 -0
    outer loop
      vertex 4.48708 22.5581 0
      vertex 3.0021 22.8032 3
      vertex 4.48708 22.5581 3
    endloop
  endfacet
  facet normal 0.162849 0.986651 0
    outer loop
      vertex 3.0021 22.8032 3
      vertex 4.48708 22.5581 0
      vertex 3.0021 22.8032 0
    endloop
  endfacet
  facet normal 0.99518 -0.0980676 0
    outer loop
      vertex 22.8032 -3.0021 3
      vertex 22.9508 -1.50427 0
      vertex 22.9508 -1.50427 3
    endloop
  endfacet
  facet normal 0.99518 -0.0980676 0
    outer loop
      vertex 22.9508 -1.50427 0
      vertex 22.8032 -3.0021 3
      vertex 22.8032 -3.0021 0
    endloop
  endfacet
  facet normal 0.729883 -0.683572 0
    outer loop
      vertex 16.2635 -16.2635 3
      vertex 17.2923 -15.165 0
      vertex 17.2923 -15.165 3
    endloop
  endfacet
  facet normal 0.729883 -0.683572 0
    outer loop
      vertex 17.2923 -15.165 0
      vertex 16.2635 -16.2635 3
      vertex 16.2635 -16.2635 0
    endloop
  endfacet
  facet normal 0.162849 -0.986651 0
    outer loop
      vertex 3.0021 -22.8032 0
      vertex 4.48708 -22.5581 3
      vertex 3.0021 -22.8032 3
    endloop
  endfacet
  facet normal 0.162849 -0.986651 0
    outer loop
      vertex 4.48708 -22.5581 3
      vertex 3.0021 -22.8032 0
      vertex 4.48708 -22.5581 0
    endloop
  endfacet
  facet normal 0.910873 0.412686 0
    outer loop
      vertex 21.2492 8.80172 3
      vertex 20.6281 10.1726 0
      vertex 20.6281 10.1726 3
    endloop
  endfacet
  facet normal 0.910873 0.412686 0
    outer loop
      vertex 20.6281 10.1726 0
      vertex 21.2492 8.80172 3
      vertex 21.2492 8.80172 0
    endloop
  endfacet
  facet normal 0.52808 0.849194 -0
    outer loop
      vertex 12.7781 19.1238 0
      vertex 11.5 19.9186 3
      vertex 12.7781 19.1238 3
    endloop
  endfacet
  facet normal 0.52808 0.849194 0
    outer loop
      vertex 11.5 19.9186 3
      vertex 12.7781 19.1238 0
      vertex 11.5 19.9186 0
    endloop
  endfacet
  facet normal 0.935898 -0.352271 0
    outer loop
      vertex 21.2492 -8.80172 3
      vertex 21.7794 -7.39311 0
      vertex 21.7794 -7.39311 3
    endloop
  endfacet
  facet normal 0.935898 -0.352271 0
    outer loop
      vertex 21.7794 -7.39311 0
      vertex 21.2492 -8.80172 3
      vertex 21.2492 -8.80172 0
    endloop
  endfacet
  facet normal 0.881924 -0.471392 0
    outer loop
      vertex 19.9186 -11.5 3
      vertex 20.6281 -10.1726 0
      vertex 20.6281 -10.1726 3
    endloop
  endfacet
  facet normal 0.881924 -0.471392 0
    outer loop
      vertex 20.6281 -10.1726 0
      vertex 19.9186 -11.5 3
      vertex 19.9186 -11.5 0
    endloop
  endfacet
  facet normal 0.582488 -0.812839 0
    outer loop
      vertex 12.7781 -19.1238 0
      vertex 14.0015 -18.2471 3
      vertex 12.7781 -19.1238 3
    endloop
  endfacet
  facet normal 0.582488 -0.812839 0
    outer loop
      vertex 14.0015 -18.2471 3
      vertex 12.7781 -19.1238 0
      vertex 14.0015 -18.2471 0
    endloop
  endfacet
  facet normal 0.812839 0.582488 0
    outer loop
      vertex 19.1238 12.7781 3
      vertex 18.2471 14.0015 0
      vertex 18.2471 14.0015 3
    endloop
  endfacet
  facet normal 0.812839 0.582488 0
    outer loop
      vertex 18.2471 14.0015 0
      vertex 19.1238 12.7781 3
      vertex 19.1238 12.7781 0
    endloop
  endfacet
  facet normal 0.0980676 0.99518 -0
    outer loop
      vertex 3.0021 22.8032 0
      vertex 1.50427 22.9508 3
      vertex 3.0021 22.8032 3
    endloop
  endfacet
  facet normal 0.0980676 0.99518 0
    outer loop
      vertex 1.50427 22.9508 3
      vertex 3.0021 22.8032 0
      vertex 1.50427 22.9508 0
    endloop
  endfacet
  facet normal 0.973872 -0.227097 0
    outer loop
      vertex 22.2163 -5.95284 3
      vertex 22.5581 -4.48708 0
      vertex 22.5581 -4.48708 3
    endloop
  endfacet
  facet normal 0.973872 -0.227097 0
    outer loop
      vertex 22.5581 -4.48708 0
      vertex 22.2163 -5.95284 3
      vertex 22.2163 -5.95284 0
    endloop
  endfacet
  facet normal 0.63437 -0.77303 0
    outer loop
      vertex 14.0015 -18.2471 0
      vertex 15.165 -17.2923 3
      vertex 14.0015 -18.2471 3
    endloop
  endfacet
  facet normal 0.63437 -0.77303 0
    outer loop
      vertex 15.165 -17.2923 3
      vertex 14.0015 -18.2471 0
      vertex 15.165 -17.2923 0
    endloop
  endfacet
  facet normal 0.910873 -0.412686 0
    outer loop
      vertex 20.6281 -10.1726 3
      vertex 21.2492 -8.80172 0
      vertex 21.2492 -8.80172 3
    endloop
  endfacet
  facet normal 0.910873 -0.412686 0
    outer loop
      vertex 21.2492 -8.80172 0
      vertex 20.6281 -10.1726 3
      vertex 20.6281 -10.1726 0
    endloop
  endfacet
  facet normal 0 0 1
    outer loop
      vertex 18.8 0 3
      vertex 23 0 3
      vertex 22.9508 1.50427 3
    endloop
  endfacet
  facet normal 0 0 1
    outer loop
      vertex 18.7597 1.22958 3
      vertex 22.9508 1.50427 3
      vertex 22.8032 3.0021 3
    endloop
  endfacet
  facet normal 0 0 1
    outer loop
      vertex 23 0 3
      vertex 18.8 0 3
      vertex 22.9508 -1.50427 3
    endloop
  endfacet
  facet normal 0 0 1
    outer loop
      vertex 18.6392 2.45389 3
      vertex 22.8032 3.0021 3
      vertex 22.5581 4.48708 3
    endloop
  endfacet
  facet normal -0 0 1
    outer loop
      vertex 18.7597 -1.22958 3
      vertex 22.9508 -1.50427 3
      vertex 18.8 0 3
    endloop
  endfacet
  facet normal 0 0 1
    outer loop
      vertex 18.4388 3.6677 3
      vertex 22.5581 4.48708 3
      vertex 22.2163 5.95284 3
    endloop
  endfacet
  facet normal 0 0 1
    outer loop
      vertex 22.9508 -1.50427 3
      vertex 18.7597 -1.22958 3
      vertex 22.8032 -3.0021 3
    endloop
  endfacet
  facet normal 0 0 1
    outer loop
      vertex 18.1594 4.8658 3
      vertex 22.2163 5.95284 3
      vertex 21.7794 7.39311 3
    endloop
  endfacet
  facet normal -0 0 1
    outer loop
      vertex 18.6392 -2.45389 3
      vertex 22.8032 -3.0021 3
      vertex 18.7597 -1.22958 3
    endloop
  endfacet
  facet normal 0 0 1
    outer loop
      vertex 17.8023 6.04306 3
      vertex 21.7794 7.39311 3
      vertex 21.2492 8.80172 3
    endloop
  endfacet
  facet normal 0 0 1
    outer loop
      vertex 22.8032 -3.0021 3
      vertex 18.6392 -2.45389 3
      vertex 22.5581 -4.48708 3
    endloop
  endfacet
  facet normal 0 0 1
    outer loop
      vertex 17.3689 7.19445 3
      vertex 21.2492 8.80172 3
      vertex 20.6281 10.1726 3
    endloop
  endfacet
  facet normal -0 0 1
    outer loop
      vertex 18.4388 -3.6677 3
      vertex 22.5581 -4.48708 3
      vertex 18.6392 -2.45389 3
    endloop
  endfacet
  facet normal 0 0 1
    outer loop
      vertex 16.8612 8.31503 3
      vertex 20.6281 10.1726 3
      vertex 19.9186 11.5 3
    endloop
  endfacet
  facet normal 0 0 1
    outer loop
      vertex 22.5581 -4.48708 3
      vertex 18.4388 -3.6677 3
      vertex 22.2163 -5.95284 3
    endloop
  endfacet
  facet normal 0 0 1
    outer loop
      vertex 16.2813 9.4 3
      vertex 19.9186 11.5 3
      vertex 19.1238 12.7781 3
    endloop
  endfacet
  facet normal -0 0 1
    outer loop
      vertex 18.1594 -4.8658 3
      vertex 22.2163 -5.95284 3
      vertex 18.4388 -3.6677 3
    endloop
  endfacet
  facet normal 0 0 1
    outer loop
      vertex 22.2163 -5.95284 3
      vertex 18.1594 -4.8658 3
      vertex 21.7794 -7.39311 3
    endloop
  endfacet
  facet normal 0 0 1
    outer loop
      vertex 22.9508 1.50427 3
      vertex 18.7597 1.22958 3
      vertex 18.8 0 3
    endloop
  endfacet
  facet normal 0 0 1
    outer loop
      vertex 22.8032 3.0021 3
      vertex 18.6392 2.45389 3
      vertex 18.7597 1.22958 3
    endloop
  endfacet
  facet normal 0 0 1
    outer loop
      vertex 22.5581 4.48708 3
      vertex 18.4388 3.6677 3
      vertex 18.6392 2.45389 3
    endloop
  endfacet
  facet normal 0 0 1
    outer loop
      vertex 15.6316 10.4447 3
      vertex 19.1238 12.7781 3
      vertex 18.2471 14.0015 3
    endloop
  endfacet
  facet normal 0 0 1
    outer loop
      vertex 22.2163 5.95284 3
      vertex 18.1594 4.8658 3
      vertex 18.4388 3.6677 3
    endloop
  endfacet
  facet normal 0 0 1
    outer loop
      vertex 21.7794 7.39311 3
      vertex 17.8023 6.04306 3
      vertex 18.1594 4.8658 3
    endloop
  endfacet
  facet normal 0 0 1
    outer loop
      vertex 21.2492 8.80172 3
      vertex 17.3689 7.19445 3
      vertex 17.8023 6.04306 3
    endloop
  endfacet
  facet normal 0 0 1
    outer loop
      vertex 14.915 11.4447 3
      vertex 18.2471 14.0015 3
      vertex 17.2923 15.165 3
    endloop
  endfacet
  facet normal 0 0 1
    outer loop
      vertex 20.6281 10.1726 3
      vertex 16.8612 8.31503 3
      vertex 17.3689 7.19445 3
    endloop
  endfacet
  facet normal 0 0 1
    outer loop
      vertex 19.9186 11.5 3
      vertex 16.2813 9.4 3
      vertex 16.8612 8.31503 3
    endloop
  endfacet
  facet normal 0 0 1
    outer loop
      vertex 14.1346 12.3957 3
      vertex 17.2923 15.165 3
      vertex 16.2635 16.2635 3
    endloop
  endfacet
  facet normal 0 0 1
    outer loop
      vertex 19.1238 12.7781 3
      vertex 15.6316 10.4447 3
      vertex 16.2813 9.4 3
    endloop
  endfacet
  facet normal 0 0 1
    outer loop
      vertex 13.2936 13.2936 3
      vertex 16.2635 16.2635 3
      vertex 15.165 17.2923 3
    endloop
  endfacet
  facet normal 0 0 1
    outer loop
      vertex 18.2471 14.0015 3
      vertex 14.915 11.4447 3
      vertex 15.6316 10.4447 3
    endloop
  endfacet
  facet normal 0 0 1
    outer loop
      vertex 17.2923 15.165 3
      vertex 14.1346 12.3957 3
      vertex 14.915 11.4447 3
    endloop
  endfacet
  facet normal 0 0 1
    outer loop
      vertex 12.3957 14.1346 3
      vertex 15.165 17.2923 3
      vertex 14.0015 18.2471 3
    endloop
  endfacet
  facet normal 0 0 1
    outer loop
      vertex 16.2635 16.2635 3
      vertex 13.2936 13.2936 3
      vertex 14.1346 12.3957 3
    endloop
  endfacet
  facet normal 0 0 1
    outer loop
      vertex 11.4447 14.915 3
      vertex 14.0015 18.2471 3
      vertex 12.7781 19.1238 3
    endloop
  endfacet
  facet normal 0 0 1
    outer loop
      vertex 15.165 17.2923 3
      vertex 12.3957 14.1346 3
      vertex 13.2936 13.2936 3
    endloop
  endfacet
  facet normal 0 0 1
    outer loop
      vertex 10.4447 15.6316 3
      vertex 12.7781 19.1238 3
      vertex 11.5 19.9186 3
    endloop
  endfacet
  facet normal 0 0 1
    outer loop
      vertex 14.0015 18.2471 3
      vertex 11.4447 14.915 3
      vertex 12.3957 14.1346 3
    endloop
  endfacet
  facet normal 0 0 1
    outer loop
      vertex 12.7781 19.1238 3
      vertex 10.4447 15.6316 3
      vertex 11.4447 14.915 3
    endloop
  endfacet
  facet normal 0 0 1
    outer loop
      vertex 9.4 16.2813 3
      vertex 11.5 19.9186 3
      vertex 10.1726 20.6281 3
    endloop
  endfacet
  facet normal 0 0 1
    outer loop
      vertex 11.5 19.9186 3
      vertex 9.4 16.2813 3
      vertex 10.4447 15.6316 3
    endloop
  endfacet
  facet normal 0 0 1
    outer loop
      vertex 8.31503 16.8612 3
      vertex 10.1726 20.6281 3
      vertex 8.80172 21.2492 3
    endloop
  endfacet
  facet normal 0 0 1
    outer loop
      vertex 10.1726 20.6281 3
      vertex 8.31503 16.8612 3
      vertex 9.4 16.2813 3
    endloop
  endfacet
  facet normal 0 0 1
    outer loop
      vertex 7.19445 17.3689 3
      vertex 8.80172 21.2492 3
      vertex 7.39311 21.7794 3
    endloop
  endfacet
  facet normal 0 0 1
    outer loop
      vertex 8.80172 21.2492 3
      vertex 7.19445 17.3689 3
      vertex 8.31503 16.8612 3
    endloop
  endfacet
  facet normal 0 0 1
    outer loop
      vertex 7.39311 21.7794 3
      vertex 6.04306 17.8023 3
      vertex 7.19445 17.3689 3
    endloop
  endfacet
  facet normal 0 0 1
    outer loop
      vertex 5.95284 22.2163 3
      vertex 6.04306 17.8023 3
      vertex 7.39311 21.7794 3
    endloop
  endfacet
  facet normal 0 0 1
    outer loop
      vertex 5.95284 22.2163 3
      vertex 4.8658 18.1594 3
      vertex 6.04306 17.8023 3
    endloop
  endfacet
  facet normal 0 0 1
    outer loop
      vertex 4.48708 22.5581 3
      vertex 4.8658 18.1594 3
      vertex 5.95284 22.2163 3
    endloop
  endfacet
  facet normal 0 0 1
    outer loop
      vertex 4.48708 22.5581 3
      vertex 3.6677 18.4388 3
      vertex 4.8658 18.1594 3
    endloop
  endfacet
  facet normal 0 0 1
    outer loop
      vertex 3.0021 22.8032 3
      vertex 3.6677 18.4388 3
      vertex 4.48708 22.5581 3
    endloop
  endfacet
  facet normal 0 0 1
    outer loop
      vertex 3.0021 22.8032 3
      vertex 2.45389 18.6392 3
      vertex 3.6677 18.4388 3
    endloop
  endfacet
  facet normal 0 0 1
    outer loop
      vertex 1.50427 22.9508 3
      vertex 2.45389 18.6392 3
      vertex 3.0021 22.8032 3
    endloop
  endfacet
  facet normal 0 0 1
    outer loop
      vertex 1.50427 22.9508 3
      vertex 1.22958 18.7597 3
      vertex 2.45389 18.6392 3
    endloop
  endfacet
  facet normal 0 0 1
    outer loop
      vertex 0 23 3
      vertex 1.22958 18.7597 3
      vertex 1.50427 22.9508 3
    endloop
  endfacet
  facet normal 0 0 1
    outer loop
      vertex 1.22958 18.7597 3
      vertex 0 23 3
      vertex 0 18.8 3
    endloop
  endfacet
  facet normal -0 0 1
    outer loop
      vertex 17.8023 -6.04306 3
      vertex 21.7794 -7.39311 3
      vertex 18.1594 -4.8658 3
    endloop
  endfacet
  facet normal 0 0 1
    outer loop
      vertex 21.7794 -7.39311 3
      vertex 17.8023 -6.04306 3
      vertex 21.2492 -8.80172 3
    endloop
  endfacet
  facet normal -0 0 1
    outer loop
      vertex 17.3689 -7.19445 3
      vertex 21.2492 -8.80172 3
      vertex 17.8023 -6.04306 3
    endloop
  endfacet
  facet normal 0 0 1
    outer loop
      vertex 21.2492 -8.80172 3
      vertex 17.3689 -7.19445 3
      vertex 20.6281 -10.1726 3
    endloop
  endfacet
  facet normal -0 0 1
    outer loop
      vertex 16.8612 -8.31503 3
      vertex 20.6281 -10.1726 3
      vertex 17.3689 -7.19445 3
    endloop
  endfacet
  facet normal 0 0 1
    outer loop
      vertex 20.6281 -10.1726 3
      vertex 16.8612 -8.31503 3
      vertex 19.9186 -11.5 3
    endloop
  endfacet
  facet normal -0 0 1
    outer loop
      vertex 16.2813 -9.4 3
      vertex 19.9186 -11.5 3
      vertex 16.8612 -8.31503 3
    endloop
  endfacet
  facet normal 0 0 1
    outer loop
      vertex 19.9186 -11.5 3
      vertex 16.2813 -9.4 3
      vertex 19.1238 -12.7781 3
    endloop
  endfacet
  facet normal -0 0 1
    outer loop
      vertex 15.6316 -10.4447 3
      vertex 19.1238 -12.7781 3
      vertex 16.2813 -9.4 3
    endloop
  endfacet
  facet normal 0 0 1
    outer loop
      vertex 19.1238 -12.7781 3
      vertex 15.6316 -10.4447 3
      vertex 18.2471 -14.0015 3
    endloop
  endfacet
  facet normal -0 0 1
    outer loop
      vertex 14.915 -11.4447 3
      vertex 18.2471 -14.0015 3
      vertex 15.6316 -10.4447 3
    endloop
  endfacet
  facet normal 0 0 1
    outer loop
      vertex 18.2471 -14.0015 3
      vertex 14.915 -11.4447 3
      vertex 17.2923 -15.165 3
    endloop
  endfacet
  facet normal -0 0 1
    outer loop
      vertex 14.1346 -12.3957 3
      vertex 17.2923 -15.165 3
      vertex 14.915 -11.4447 3
    endloop
  endfacet
  facet normal 0 0 1
    outer loop
      vertex 17.2923 -15.165 3
      vertex 14.1346 -12.3957 3
      vertex 16.2635 -16.2635 3
    endloop
  endfacet
  facet normal -0 0 1
    outer loop
      vertex 13.2936 -13.2936 3
      vertex 16.2635 -16.2635 3
      vertex 14.1346 -12.3957 3
    endloop
  endfacet
  facet normal 0 0 1
    outer loop
      vertex 16.2635 -16.2635 3
      vertex 13.2936 -13.2936 3
      vertex 15.165 -17.2923 3
    endloop
  endfacet
  facet normal -0 0 1
    outer loop
      vertex 12.3957 -14.1346 3
      vertex 15.165 -17.2923 3
      vertex 13.2936 -13.2936 3
    endloop
  endfacet
  facet normal 0 0 1
    outer loop
      vertex 15.165 -17.2923 3
      vertex 12.3957 -14.1346 3
      vertex 14.0015 -18.2471 3
    endloop
  endfacet
  facet normal -0 0 1
    outer loop
      vertex 11.4447 -14.915 3
      vertex 14.0015 -18.2471 3
      vertex 12.3957 -14.1346 3
    endloop
  endfacet
  facet normal 0 0 1
    outer loop
      vertex 14.0015 -18.2471 3
      vertex 11.4447 -14.915 3
      vertex 12.7781 -19.1238 3
    endloop
  endfacet
  facet normal -0 0 1
    outer loop
      vertex 10.4447 -15.6316 3
      vertex 12.7781 -19.1238 3
      vertex 11.4447 -14.915 3
    endloop
  endfacet
  facet normal 0 0 1
    outer loop
      vertex 12.7781 -19.1238 3
      vertex 10.4447 -15.6316 3
      vertex 11.5 -19.9186 3
    endloop
  endfacet
  facet normal -0 0 1
    outer loop
      vertex 9.4 -16.2813 3
      vertex 11.5 -19.9186 3
      vertex 10.4447 -15.6316 3
    endloop
  endfacet
  facet normal 0 0 1
    outer loop
      vertex 11.5 -19.9186 3
      vertex 9.4 -16.2813 3
      vertex 10.1726 -20.6281 3
    endloop
  endfacet
  facet normal -0 0 1
    outer loop
      vertex 8.31503 -16.8612 3
      vertex 10.1726 -20.6281 3
      vertex 9.4 -16.2813 3
    endloop
  endfacet
  facet normal 0 0 1
    outer loop
      vertex 10.1726 -20.6281 3
      vertex 8.31503 -16.8612 3
      vertex 8.80172 -21.2492 3
    endloop
  endfacet
  facet normal -0 0 1
    outer loop
      vertex 7.19445 -17.3689 3
      vertex 8.80172 -21.2492 3
      vertex 8.31503 -16.8612 3
    endloop
  endfacet
  facet normal 0 0 1
    outer loop
      vertex 8.80172 -21.2492 3
      vertex 7.19445 -17.3689 3
      vertex 7.39311 -21.7794 3
    endloop
  endfacet
  facet normal -0 0 1
    outer loop
      vertex 6.04306 -17.8023 3
      vertex 7.39311 -21.7794 3
      vertex 7.19445 -17.3689 3
    endloop
  endfacet
  facet normal 0 0 1
    outer loop
      vertex 6.04306 -17.8023 3
      vertex 5.95284 -22.2163 3
      vertex 7.39311 -21.7794 3
    endloop
  endfacet
  facet normal -0 0 1
    outer loop
      vertex 4.8658 -18.1594 3
      vertex 5.95284 -22.2163 3
      vertex 6.04306 -17.8023 3
    endloop
  endfacet
  facet normal 0 0 1
    outer loop
      vertex 4.8658 -18.1594 3
      vertex 4.48708 -22.5581 3
      vertex 5.95284 -22.2163 3
    endloop
  endfacet
  facet normal -0 0 1
    outer loop
      vertex 3.6677 -18.4388 3
      vertex 4.48708 -22.5581 3
      vertex 4.8658 -18.1594 3
    endloop
  endfacet
  facet normal 0 0 1
    outer loop
      vertex 3.6677 -18.4388 3
      vertex 3.0021 -22.8032 3
      vertex 4.48708 -22.5581 3
    endloop
  endfacet
  facet normal -0 0 1
    outer loop
      vertex 2.45389 -18.6392 3
      vertex 3.0021 -22.8032 3
      vertex 3.6677 -18.4388 3
    endloop
  endfacet
  facet normal 0 0 1
    outer loop
      vertex 2.45389 -18.6392 3
      vertex 1.50427 -22.9508 3
      vertex 3.0021 -22.8032 3
    endloop
  endfacet
  facet normal -0 0 1
    outer loop
      vertex 1.22958 -18.7597 3
      vertex 1.50427 -22.9508 3
      vertex 2.45389 -18.6392 3
    endloop
  endfacet
  facet normal -0 0 1
    outer loop
      vertex 0 -18.8 3
      vertex 1.50427 -22.9508 3
      vertex 1.22958 -18.7597 3
    endloop
  endfacet
  facet normal 0 0 1
    outer loop
      vertex 1.50427 -22.9508 3
      vertex 0 -18.8 3
      vertex 0 -23 3
    endloop
  endfacet
  facet normal 0.995191 0.0979495 0
    outer loop
      vertex 18.7597 1.22958 7
      vertex 18.6392 2.45389 3
      vertex 18.6392 2.45389 7
    endloop
  endfacet
  facet normal 0.995191 0.0979495 0
    outer loop
      vertex 18.6392 2.45389 3
      vertex 18.7597 1.22958 7
      vertex 18.7597 1.22958 3
    endloop
  endfacet
  facet normal 0.999463 0.0327578 0
    outer loop
      vertex 18.8 0 7
      vertex 18.7597 1.22958 3
      vertex 18.7597 1.22958 7
    endloop
  endfacet
  facet normal 0.999463 0.0327578 0
    outer loop
      vertex 18.7597 1.22958 3
      vertex 18.8 0 7
      vertex 18.8 0 3
    endloop
  endfacet
  facet normal 0.995191 -0.0979495 0
    outer loop
      vertex 18.6392 -2.45389 7
      vertex 18.7597 -1.22958 3
      vertex 18.7597 -1.22958 7
    endloop
  endfacet
  facet normal 0.995191 -0.0979495 0
    outer loop
      vertex 18.7597 -1.22958 3
      vertex 18.6392 -2.45389 7
      vertex 18.6392 -2.45389 3
    endloop
  endfacet
  facet normal 0.683603 -0.729854 0
    outer loop
      vertex 12.3957 -14.1346 3
      vertex 13.2936 -13.2936 7
      vertex 12.3957 -14.1346 7
    endloop
  endfacet
  facet normal 0.683603 -0.729854 0
    outer loop
      vertex 13.2936 -13.2936 7
      vertex 12.3957 -14.1346 3
      vertex 13.2936 -13.2936 3
    endloop
  endfacet
  facet normal 0.986643 -0.162895 0
    outer loop
      vertex 18.4388 -3.6677 7
      vertex 18.6392 -2.45389 3
      vertex 18.6392 -2.45389 7
    endloop
  endfacet
  facet normal 0.986643 -0.162895 0
    outer loop
      vertex 18.6392 -2.45389 3
      vertex 18.4388 -3.6677 7
      vertex 18.4388 -3.6677 3
    endloop
  endfacet
  facet normal 0.162895 0.986643 -0
    outer loop
      vertex 3.6677 18.4388 3
      vertex 2.45389 18.6392 7
      vertex 3.6677 18.4388 7
    endloop
  endfacet
  facet normal 0.162895 0.986643 0
    outer loop
      vertex 2.45389 18.6392 7
      vertex 3.6677 18.4388 3
      vertex 2.45389 18.6392 3
    endloop
  endfacet
  facet normal 0.973869 0.227109 0
    outer loop
      vertex 18.4388 3.6677 7
      vertex 18.1594 4.8658 3
      vertex 18.1594 4.8658 7
    endloop
  endfacet
  facet normal 0.973869 0.227109 0
    outer loop
      vertex 18.1594 4.8658 3
      vertex 18.4388 3.6677 7
      vertex 18.4388 3.6677 3
    endloop
  endfacet
  facet normal 0.412688 0.910872 -0
    outer loop
      vertex 8.31503 16.8612 3
      vertex 7.19445 17.3689 7
      vertex 8.31503 16.8612 7
    endloop
  endfacet
  facet normal 0.412688 0.910872 0
    outer loop
      vertex 7.19445 17.3689 7
      vertex 8.31503 16.8612 3
      vertex 7.19445 17.3689 3
    endloop
  endfacet
  facet normal 0.471379 -0.881931 0
    outer loop
      vertex 8.31503 -16.8612 3
      vertex 9.4 -16.2813 7
      vertex 8.31503 -16.8612 7
    endloop
  endfacet
  facet normal 0.471379 -0.881931 0
    outer loop
      vertex 9.4 -16.2813 7
      vertex 8.31503 -16.8612 3
      vertex 9.4 -16.2813 3
    endloop
  endfacet
  facet normal 0.352284 0.935893 -0
    outer loop
      vertex 7.19445 17.3689 3
      vertex 6.04306 17.8023 7
      vertex 7.19445 17.3689 7
    endloop
  endfacet
  facet normal 0.352284 0.935893 0
    outer loop
      vertex 6.04306 17.8023 7
      vertex 7.19445 17.3689 3
      vertex 6.04306 17.8023 3
    endloop
  endfacet
  facet normal 0.290271 0.956944 -0
    outer loop
      vertex 6.04306 17.8023 3
      vertex 4.8658 18.1594 7
      vertex 6.04306 17.8023 7
    endloop
  endfacet
  facet normal 0.290271 0.956944 0
    outer loop
      vertex 4.8658 18.1594 7
      vertex 6.04306 17.8023 3
      vertex 4.8658 18.1594 3
    endloop
  endfacet
  facet normal 0.352284 -0.935893 0
    outer loop
      vertex 6.04306 -17.8023 3
      vertex 7.19445 -17.3689 7
      vertex 6.04306 -17.8023 7
    endloop
  endfacet
  facet normal 0.352284 -0.935893 0
    outer loop
      vertex 7.19445 -17.3689 7
      vertex 6.04306 -17.8023 3
      vertex 7.19445 -17.3689 3
    endloop
  endfacet
  facet normal 0.910872 0.412688 0
    outer loop
      vertex 17.3689 7.19445 7
      vertex 16.8612 8.31503 3
      vertex 16.8612 8.31503 7
    endloop
  endfacet
  facet normal 0.910872 0.412688 0
    outer loop
      vertex 16.8612 8.31503 3
      vertex 17.3689 7.19445 7
      vertex 17.3689 7.19445 3
    endloop
  endfacet
  facet normal 0.412688 -0.910872 0
    outer loop
      vertex 7.19445 -17.3689 3
      vertex 8.31503 -16.8612 7
      vertex 7.19445 -17.3689 7
    endloop
  endfacet
  facet normal 0.412688 -0.910872 0
    outer loop
      vertex 8.31503 -16.8612 7
      vertex 7.19445 -17.3689 3
      vertex 8.31503 -16.8612 3
    endloop
  endfacet
  facet normal 0.956944 -0.290271 0
    outer loop
      vertex 17.8023 -6.04306 7
      vertex 18.1594 -4.8658 3
      vertex 18.1594 -4.8658 7
    endloop
  endfacet
  facet normal 0.956944 -0.290271 0
    outer loop
      vertex 18.1594 -4.8658 3
      vertex 17.8023 -6.04306 7
      vertex 17.8023 -6.04306 3
    endloop
  endfacet
  facet normal 0.956944 0.290271 0
    outer loop
      vertex 18.1594 4.8658 7
      vertex 17.8023 6.04306 3
      vertex 17.8023 6.04306 7
    endloop
  endfacet
  facet normal 0.956944 0.290271 0
    outer loop
      vertex 17.8023 6.04306 3
      vertex 18.1594 4.8658 7
      vertex 18.1594 4.8658 3
    endloop
  endfacet
  facet normal 0.910872 -0.412688 0
    outer loop
      vertex 16.8612 -8.31503 7
      vertex 17.3689 -7.19445 3
      vertex 17.3689 -7.19445 7
    endloop
  endfacet
  facet normal 0.910872 -0.412688 0
    outer loop
      vertex 17.3689 -7.19445 3
      vertex 16.8612 -8.31503 7
      vertex 16.8612 -8.31503 3
    endloop
  endfacet
  facet normal 0.849179 -0.528105 0
    outer loop
      vertex 15.6316 -10.4447 7
      vertex 16.2813 -9.4 3
      vertex 16.2813 -9.4 7
    endloop
  endfacet
  facet normal 0.849179 -0.528105 0
    outer loop
      vertex 16.2813 -9.4 3
      vertex 15.6316 -10.4447 7
      vertex 15.6316 -10.4447 3
    endloop
  endfacet
  facet normal 0.986643 0.162895 0
    outer loop
      vertex 18.6392 2.45389 7
      vertex 18.4388 3.6677 3
      vertex 18.4388 3.6677 7
    endloop
  endfacet
  facet normal 0.986643 0.162895 0
    outer loop
      vertex 18.4388 3.6677 3
      vertex 18.6392 2.45389 7
      vertex 18.6392 2.45389 3
    endloop
  endfacet
  facet normal 0.528105 0.849179 -0
    outer loop
      vertex 10.4447 15.6316 3
      vertex 9.4 16.2813 7
      vertex 10.4447 15.6316 7
    endloop
  endfacet
  facet normal 0.528105 0.849179 0
    outer loop
      vertex 9.4 16.2813 7
      vertex 10.4447 15.6316 3
      vertex 9.4 16.2813 3
    endloop
  endfacet
  facet normal 0.582483 0.812843 -0
    outer loop
      vertex 11.4447 14.915 3
      vertex 10.4447 15.6316 7
      vertex 11.4447 14.915 7
    endloop
  endfacet
  facet normal 0.582483 0.812843 0
    outer loop
      vertex 10.4447 15.6316 7
      vertex 11.4447 14.915 3
      vertex 10.4447 15.6316 3
    endloop
  endfacet
  facet normal 0.729854 -0.683603 0
    outer loop
      vertex 13.2936 -13.2936 7
      vertex 14.1346 -12.3957 3
      vertex 14.1346 -12.3957 7
    endloop
  endfacet
  facet normal 0.729854 -0.683603 0
    outer loop
      vertex 14.1346 -12.3957 3
      vertex 13.2936 -13.2936 7
      vertex 13.2936 -13.2936 3
    endloop
  endfacet
  facet normal 0.812843 0.582483 0
    outer loop
      vertex 15.6316 10.4447 7
      vertex 14.915 11.4447 3
      vertex 14.915 11.4447 7
    endloop
  endfacet
  facet normal 0.812843 0.582483 0
    outer loop
      vertex 14.915 11.4447 3
      vertex 15.6316 10.4447 7
      vertex 15.6316 10.4447 3
    endloop
  endfacet
  facet normal 0.471379 0.881931 -0
    outer loop
      vertex 9.4 16.2813 3
      vertex 8.31503 16.8612 7
      vertex 9.4 16.2813 7
    endloop
  endfacet
  facet normal 0.471379 0.881931 0
    outer loop
      vertex 8.31503 16.8612 7
      vertex 9.4 16.2813 3
      vertex 8.31503 16.8612 3
    endloop
  endfacet
  facet normal 0.582483 -0.812843 0
    outer loop
      vertex 10.4447 -15.6316 3
      vertex 11.4447 -14.915 7
      vertex 10.4447 -15.6316 7
    endloop
  endfacet
  facet normal 0.582483 -0.812843 0
    outer loop
      vertex 11.4447 -14.915 7
      vertex 10.4447 -15.6316 3
      vertex 11.4447 -14.915 3
    endloop
  endfacet
  facet normal 0.634361 -0.773037 0
    outer loop
      vertex 11.4447 -14.915 3
      vertex 12.3957 -14.1346 7
      vertex 11.4447 -14.915 7
    endloop
  endfacet
  facet normal 0.634361 -0.773037 0
    outer loop
      vertex 12.3957 -14.1346 7
      vertex 11.4447 -14.915 3
      vertex 12.3957 -14.1346 3
    endloop
  endfacet
  facet normal 0.773037 0.634361 0
    outer loop
      vertex 14.915 11.4447 7
      vertex 14.1346 12.3957 3
      vertex 14.1346 12.3957 7
    endloop
  endfacet
  facet normal 0.773037 0.634361 0
    outer loop
      vertex 14.1346 12.3957 3
      vertex 14.915 11.4447 7
      vertex 14.915 11.4447 3
    endloop
  endfacet
  facet normal 0.935893 0.352284 0
    outer loop
      vertex 17.8023 6.04306 7
      vertex 17.3689 7.19445 3
      vertex 17.3689 7.19445 7
    endloop
  endfacet
  facet normal 0.935893 0.352284 0
    outer loop
      vertex 17.3689 7.19445 3
      vertex 17.8023 6.04306 7
      vertex 17.8023 6.04306 3
    endloop
  endfacet
  facet normal 0.290271 -0.956944 0
    outer loop
      vertex 4.8658 -18.1594 3
      vertex 6.04306 -17.8023 7
      vertex 4.8658 -18.1594 7
    endloop
  endfacet
  facet normal 0.290271 -0.956944 0
    outer loop
      vertex 6.04306 -17.8023 7
      vertex 4.8658 -18.1594 3
      vertex 6.04306 -17.8023 3
    endloop
  endfacet
  facet normal 0.999463 -0.0327578 0
    outer loop
      vertex 18.7597 -1.22958 7
      vertex 18.8 0 3
      vertex 18.8 0 7
    endloop
  endfacet
  facet normal 0.999463 -0.0327578 0
    outer loop
      vertex 18.8 0 3
      vertex 18.7597 -1.22958 7
      vertex 18.7597 -1.22958 3
    endloop
  endfacet
  facet normal 0.729854 0.683603 0
    outer loop
      vertex 14.1346 12.3957 7
      vertex 13.2936 13.2936 3
      vertex 13.2936 13.2936 7
    endloop
  endfacet
  facet normal 0.729854 0.683603 0
    outer loop
      vertex 13.2936 13.2936 3
      vertex 14.1346 12.3957 7
      vertex 14.1346 12.3957 3
    endloop
  endfacet
  facet normal 0.0327578 0.999463 -0
    outer loop
      vertex 1.22958 18.7597 3
      vertex 0 18.8 7
      vertex 1.22958 18.7597 7
    endloop
  endfacet
  facet normal 0.0327578 0.999463 0
    outer loop
      vertex 0 18.8 7
      vertex 1.22958 18.7597 3
      vertex 0 18.8 3
    endloop
  endfacet
  facet normal 0.881931 0.471379 0
    outer loop
      vertex 16.8612 8.31503 7
      vertex 16.2813 9.4 3
      vertex 16.2813 9.4 7
    endloop
  endfacet
  facet normal 0.881931 0.471379 0
    outer loop
      vertex 16.2813 9.4 3
      vertex 16.8612 8.31503 7
      vertex 16.8612 8.31503 3
    endloop
  endfacet
  facet normal 0.849179 0.528105 0
    outer loop
      vertex 16.2813 9.4 7
      vertex 15.6316 10.4447 3
      vertex 15.6316 10.4447 7
    endloop
  endfacet
  facet normal 0.849179 0.528105 0
    outer loop
      vertex 15.6316 10.4447 3
      vertex 16.2813 9.4 7
      vertex 16.2813 9.4 3
    endloop
  endfacet
  facet normal 0.935893 -0.352284 0
    outer loop
      vertex 17.3689 -7.19445 7
      vertex 17.8023 -6.04306 3
      vertex 17.8023 -6.04306 7
    endloop
  endfacet
  facet normal 0.935893 -0.352284 0
    outer loop
      vertex 17.8023 -6.04306 3
      vertex 17.3689 -7.19445 7
      vertex 17.3689 -7.19445 3
    endloop
  endfacet
  facet normal 0.162895 -0.986643 0
    outer loop
      vertex 2.45389 -18.6392 3
      vertex 3.6677 -18.4388 7
      vertex 2.45389 -18.6392 7
    endloop
  endfacet
  facet normal 0.162895 -0.986643 0
    outer loop
      vertex 3.6677 -18.4388 7
      vertex 2.45389 -18.6392 3
      vertex 3.6677 -18.4388 3
    endloop
  endfacet
  facet normal 0.0979495 -0.995191 0
    outer loop
      vertex 1.22958 -18.7597 3
      vertex 2.45389 -18.6392 7
      vertex 1.22958 -18.7597 7
    endloop
  endfacet
  facet normal 0.0979495 -0.995191 0
    outer loop
      vertex 2.45389 -18.6392 7
      vertex 1.22958 -18.7597 3
      vertex 2.45389 -18.6392 3
    endloop
  endfacet
  facet normal 0.0979495 0.995191 -0
    outer loop
      vertex 2.45389 18.6392 3
      vertex 1.22958 18.7597 7
      vertex 2.45389 18.6392 7
    endloop
  endfacet
  facet normal 0.0979495 0.995191 0
    outer loop
      vertex 1.22958 18.7597 7
      vertex 2.45389 18.6392 3
      vertex 1.22958 18.7597 3
    endloop
  endfacet
  facet normal 0.634361 0.773037 -0
    outer loop
      vertex 12.3957 14.1346 3
      vertex 11.4447 14.915 7
      vertex 12.3957 14.1346 7
    endloop
  endfacet
  facet normal 0.634361 0.773037 0
    outer loop
      vertex 11.4447 14.915 7
      vertex 12.3957 14.1346 3
      vertex 11.4447 14.915 3
    endloop
  endfacet
  facet normal 0.0327578 -0.999463 0
    outer loop
      vertex 0 -18.8 3
      vertex 1.22958 -18.7597 7
      vertex 0 -18.8 7
    endloop
  endfacet
  facet normal 0.0327578 -0.999463 0
    outer loop
      vertex 1.22958 -18.7597 7
      vertex 0 -18.8 3
      vertex 1.22958 -18.7597 3
    endloop
  endfacet
  facet normal 0.528105 -0.849179 0
    outer loop
      vertex 9.4 -16.2813 3
      vertex 10.4447 -15.6316 7
      vertex 9.4 -16.2813 7
    endloop
  endfacet
  facet normal 0.528105 -0.849179 0
    outer loop
      vertex 10.4447 -15.6316 7
      vertex 9.4 -16.2813 3
      vertex 10.4447 -15.6316 3
    endloop
  endfacet
  facet normal 0.881931 -0.471379 0
    outer loop
      vertex 16.2813 -9.4 7
      vertex 16.8612 -8.31503 3
      vertex 16.8612 -8.31503 7
    endloop
  endfacet
  facet normal 0.881931 -0.471379 0
    outer loop
      vertex 16.8612 -8.31503 3
      vertex 16.2813 -9.4 7
      vertex 16.2813 -9.4 3
    endloop
  endfacet
  facet normal 0.227109 -0.973869 0
    outer loop
      vertex 3.6677 -18.4388 3
      vertex 4.8658 -18.1594 7
      vertex 3.6677 -18.4388 7
    endloop
  endfacet
  facet normal 0.227109 -0.973869 0
    outer loop
      vertex 4.8658 -18.1594 7
      vertex 3.6677 -18.4388 3
      vertex 4.8658 -18.1594 3
    endloop
  endfacet
  facet normal 0.973869 -0.227109 0
    outer loop
      vertex 18.1594 -4.8658 7
      vertex 18.4388 -3.6677 3
      vertex 18.4388 -3.6677 7
    endloop
  endfacet
  facet normal 0.973869 -0.227109 0
    outer loop
      vertex 18.4388 -3.6677 3
      vertex 18.1594 -4.8658 7
      vertex 18.1594 -4.8658 3
    endloop
  endfacet
  facet normal 0.683603 0.729854 -0
    outer loop
      vertex 13.2936 13.2936 3
      vertex 12.3957 14.1346 7
      vertex 13.2936 13.2936 7
    endloop
  endfacet
  facet normal 0.683603 0.729854 0
    outer loop
      vertex 12.3957 14.1346 7
      vertex 13.2936 13.2936 3
      vertex 12.3957 14.1346 3
    endloop
  endfacet
  facet normal 0.227109 0.973869 -0
    outer loop
      vertex 4.8658 18.1594 3
      vertex 3.6677 18.4388 7
      vertex 4.8658 18.1594 7
    endloop
  endfacet
  facet normal 0.227109 0.973869 0
    outer loop
      vertex 3.6677 18.4388 7
      vertex 4.8658 18.1594 3
      vertex 3.6677 18.4388 3
    endloop
  endfacet
  facet normal 0.773037 -0.634361 0
    outer loop
      vertex 14.1346 -12.3957 7
      vertex 14.915 -11.4447 3
      vertex 14.915 -11.4447 7
    endloop
  endfacet
  facet normal 0.773037 -0.634361 0
    outer loop
      vertex 14.915 -11.4447 3
      vertex 14.1346 -12.3957 7
      vertex 14.1346 -12.3957 3
    endloop
  endfacet
  facet normal 0.812843 -0.582483 0
    outer loop
      vertex 14.915 -11.4447 7
      vertex 15.6316 -10.4447 3
      vertex 15.6316 -10.4447 7
    endloop
  endfacet
  facet normal 0.812843 -0.582483 0
    outer loop
      vertex 15.6316 -10.4447 3
      vertex 14.915 -11.4447 7
      vertex 14.915 -11.4447 3
    endloop
  endfacet
  facet normal 0 0 1
    outer loop
      vertex 4.25 0 7
      vertex 18.8 0 7
      vertex 18.7597 1.22958 7
    endloop
  endfacet
  facet normal 0 0 1
    outer loop
      vertex 4.22953 0.416573 7
      vertex 18.7597 1.22958 7
      vertex 18.6392 2.45389 7
    endloop
  endfacet
  facet normal 0 0 1
    outer loop
      vertex 18.8 0 7
      vertex 4.25 0 7
      vertex 18.7597 -1.22958 7
    endloop
  endfacet
  facet normal 0 0 1
    outer loop
      vertex 4.16834 0.829133 7
      vertex 18.6392 2.45389 7
      vertex 18.4388 3.6677 7
    endloop
  endfacet
  facet normal -0 0 1
    outer loop
      vertex 4.22953 -0.416573 7
      vertex 18.7597 -1.22958 7
      vertex 4.25 0 7
    endloop
  endfacet
  facet normal 0 0 1
    outer loop
      vertex 4.16834 0.829133 7
      vertex 18.4388 3.6677 7
      vertex 18.1594 4.8658 7
    endloop
  endfacet
  facet normal 0 0 1
    outer loop
      vertex 18.7597 -1.22958 7
      vertex 4.22953 -0.416573 7
      vertex 18.6392 -2.45389 7
    endloop
  endfacet
  facet normal 0 0 1
    outer loop
      vertex 4.067 1.23371 7
      vertex 18.1594 4.8658 7
      vertex 17.8023 6.04306 7
    endloop
  endfacet
  facet normal -0 0 1
    outer loop
      vertex 4.16834 -0.829133 7
      vertex 18.6392 -2.45389 7
      vertex 4.22953 -0.416573 7
    endloop
  endfacet
  facet normal 0 0 1
    outer loop
      vertex 3.92649 1.6264 7
      vertex 17.8023 6.04306 7
      vertex 17.3689 7.19445 7
    endloop
  endfacet
  facet normal 0 0 1
    outer loop
      vertex 18.6392 -2.45389 7
      vertex 4.16834 -0.829133 7
      vertex 18.4388 -3.6677 7
    endloop
  endfacet
  facet normal 0 0 1
    outer loop
      vertex 3.92649 1.6264 7
      vertex 17.3689 7.19445 7
      vertex 16.8612 8.31503 7
    endloop
  endfacet
  facet normal 0 0 1
    outer loop
      vertex 18.4388 -3.6677 7
      vertex 4.16834 -0.829133 7
      vertex 18.1594 -4.8658 7
    endloop
  endfacet
  facet normal 0 0 1
    outer loop
      vertex 3.74817 2.00344 7
      vertex 16.8612 8.31503 7
      vertex 16.2813 9.4 7
    endloop
  endfacet
  facet normal -0 0 1
    outer loop
      vertex 4.067 -1.23371 7
      vertex 18.1594 -4.8658 7
      vertex 4.16834 -0.829133 7
    endloop
  endfacet
  facet normal 0 0 1
    outer loop
      vertex 3.53375 2.36117 7
      vertex 16.2813 9.4 7
      vertex 15.6316 10.4447 7
    endloop
  endfacet
  facet normal 0 0 1
    outer loop
      vertex 18.1594 -4.8658 7
      vertex 4.067 -1.23371 7
      vertex 17.8023 -6.04306 7
    endloop
  endfacet
  facet normal 0 0 1
    outer loop
      vertex 3.53375 2.36117 7
      vertex 15.6316 10.4447 7
      vertex 14.915 11.4447 7
    endloop
  endfacet
  facet normal -0 0 1
    outer loop
      vertex 3.92649 -1.6264 7
      vertex 17.8023 -6.04306 7
      vertex 4.067 -1.23371 7
    endloop
  endfacet
  facet normal 0 0 1
    outer loop
      vertex 3.28529 2.69617 7
      vertex 14.915 11.4447 7
      vertex 14.1346 12.3957 7
    endloop
  endfacet
  facet normal 0 0 1
    outer loop
      vertex 17.8023 -6.04306 7
      vertex 3.92649 -1.6264 7
      vertex 17.3689 -7.19445 7
    endloop
  endfacet
  facet normal 0 0 1
    outer loop
      vertex 3.0052 3.0052 7
      vertex 14.1346 12.3957 7
      vertex 13.2936 13.2936 7
    endloop
  endfacet
  facet normal 0 0 1
    outer loop
      vertex 17.3689 -7.19445 7
      vertex 3.92649 -1.6264 7
      vertex 16.8612 -8.31503 7
    endloop
  endfacet
  facet normal 0 0 1
    outer loop
      vertex 3.0052 3.0052 7
      vertex 13.2936 13.2936 7
      vertex 12.3957 14.1346 7
    endloop
  endfacet
  facet normal -0 0 1
    outer loop
      vertex 3.74817 -2.00344 7
      vertex 16.8612 -8.31503 7
      vertex 3.92649 -1.6264 7
    endloop
  endfacet
  facet normal 0 0 1
    outer loop
      vertex 2.69617 3.28529 7
      vertex 12.3957 14.1346 7
      vertex 11.4447 14.915 7
    endloop
  endfacet
  facet normal 0 0 1
    outer loop
      vertex 16.8612 -8.31503 7
      vertex 3.74817 -2.00344 7
      vertex 16.2813 -9.4 7
    endloop
  endfacet
  facet normal 0 0 1
    outer loop
      vertex 2.36117 3.53375 7
      vertex 11.4447 14.915 7
      vertex 10.4447 15.6316 7
    endloop
  endfacet
  facet normal -0 0 1
    outer loop
      vertex 3.53375 -2.36117 7
      vertex 16.2813 -9.4 7
      vertex 3.74817 -2.00344 7
    endloop
  endfacet
  facet normal 0 0 1
    outer loop
      vertex 2.36117 3.53375 7
      vertex 10.4447 15.6316 7
      vertex 9.4 16.2813 7
    endloop
  endfacet
  facet normal 0 0 1
    outer loop
      vertex 16.2813 -9.4 7
      vertex 3.53375 -2.36117 7
      vertex 15.6316 -10.4447 7
    endloop
  endfacet
  facet normal 0 0 1
    outer loop
      vertex 2.00344 3.74817 7
      vertex 9.4 16.2813 7
      vertex 8.31503 16.8612 7
    endloop
  endfacet
  facet normal 0 0 1
    outer loop
      vertex 15.6316 -10.4447 7
      vertex 3.53375 -2.36117 7
      vertex 14.915 -11.4447 7
    endloop
  endfacet
  facet normal 0 0 1
    outer loop
      vertex 1.6264 3.92649 7
      vertex 8.31503 16.8612 7
      vertex 7.19445 17.3689 7
    endloop
  endfacet
  facet normal -0 0 1
    outer loop
      vertex 3.28529 -2.69617 7
      vertex 14.915 -11.4447 7
      vertex 3.53375 -2.36117 7
    endloop
  endfacet
  facet normal 0 0 1
    outer loop
      vertex 1.6264 3.92649 7
      vertex 7.19445 17.3689 7
      vertex 6.04306 17.8023 7
    endloop
  endfacet
  facet normal 0 0 1
    outer loop
      vertex 14.915 -11.4447 7
      vertex 3.28529 -2.69617 7
      vertex 14.1346 -12.3957 7
    endloop
  endfacet
  facet normal 0 0 1
    outer loop
      vertex 1.23371 4.067 7
      vertex 6.04306 17.8023 7
      vertex 4.8658 18.1594 7
    endloop
  endfacet
  facet normal -0 0 1
    outer loop
      vertex 3.0052 -3.0052 7
      vertex 14.1346 -12.3957 7
      vertex 3.28529 -2.69617 7
    endloop
  endfacet
  facet normal 0 0 1
    outer loop
      vertex 14.1346 -12.3957 7
      vertex 3.0052 -3.0052 7
      vertex 13.2936 -13.2936 7
    endloop
  endfacet
  facet normal 0 0 1
    outer loop
      vertex 18.7597 1.22958 7
      vertex 4.22953 0.416573 7
      vertex 4.25 0 7
    endloop
  endfacet
  facet normal 0 0 1
    outer loop
      vertex 18.6392 2.45389 7
      vertex 4.16834 0.829133 7
      vertex 4.22953 0.416573 7
    endloop
  endfacet
  facet normal 0 0 1
    outer loop
      vertex 18.1594 4.8658 7
      vertex 4.067 1.23371 7
      vertex 4.16834 0.829133 7
    endloop
  endfacet
  facet normal 0 0 1
    outer loop
      vertex 17.8023 6.04306 7
      vertex 3.92649 1.6264 7
      vertex 4.067 1.23371 7
    endloop
  endfacet
  facet normal 0 0 1
    outer loop
      vertex 16.8612 8.31503 7
      vertex 3.74817 2.00344 7
      vertex 3.92649 1.6264 7
    endloop
  endfacet
  facet normal 0 0 1
    outer loop
      vertex 0.829133 4.16834 7
      vertex 4.8658 18.1594 7
      vertex 3.6677 18.4388 7
    endloop
  endfacet
  facet normal 0 0 1
    outer loop
      vertex 16.2813 9.4 7
      vertex 3.53375 2.36117 7
      vertex 3.74817 2.00344 7
    endloop
  endfacet
  facet normal 0 0 1
    outer loop
      vertex 14.915 11.4447 7
      vertex 3.28529 2.69617 7
      vertex 3.53375 2.36117 7
    endloop
  endfacet
  facet normal 0 0 1
    outer loop
      vertex 14.1346 12.3957 7
      vertex 3.0052 3.0052 7
      vertex 3.28529 2.69617 7
    endloop
  endfacet
  facet normal 0 0 1
    outer loop
      vertex 12.3957 14.1346 7
      vertex 2.69617 3.28529 7
      vertex 3.0052 3.0052 7
    endloop
  endfacet
  facet normal 0 0 1
    outer loop
      vertex 0.829133 4.16834 7
      vertex 3.6677 18.4388 7
      vertex 2.45389 18.6392 7
    endloop
  endfacet
  facet normal 0 0 1
    outer loop
      vertex 11.4447 14.915 7
      vertex 2.36117 3.53375 7
      vertex 2.69617 3.28529 7
    endloop
  endfacet
  facet normal 0 0 1
    outer loop
      vertex 9.4 16.2813 7
      vertex 2.00344 3.74817 7
      vertex 2.36117 3.53375 7
    endloop
  endfacet
  facet normal 0 0 1
    outer loop
      vertex 8.31503 16.8612 7
      vertex 1.6264 3.92649 7
      vertex 2.00344 3.74817 7
    endloop
  endfacet
  facet normal 0 0 1
    outer loop
      vertex 6.04306 17.8023 7
      vertex 1.23371 4.067 7
      vertex 1.6264 3.92649 7
    endloop
  endfacet
  facet normal 0 0 1
    outer loop
      vertex 0.416573 4.22953 7
      vertex 2.45389 18.6392 7
      vertex 1.22958 18.7597 7
    endloop
  endfacet
  facet normal 0 0 1
    outer loop
      vertex 4.8658 18.1594 7
      vertex 0.829133 4.16834 7
      vertex 1.23371 4.067 7
    endloop
  endfacet
  facet normal 0 0 1
    outer loop
      vertex 2.45389 18.6392 7
      vertex 0.416573 4.22953 7
      vertex 0.829133 4.16834 7
    endloop
  endfacet
  facet normal 0 0 1
    outer loop
      vertex 0 4.25 7
      vertex 1.22958 18.7597 7
      vertex 0 18.8 7
    endloop
  endfacet
  facet normal 0 0 1
    outer loop
      vertex 1.22958 18.7597 7
      vertex 0 4.25 7
      vertex 0.416573 4.22953 7
    endloop
  endfacet
  facet normal 0 0 1
    outer loop
      vertex 13.2936 -13.2936 7
      vertex 3.0052 -3.0052 7
      vertex 12.3957 -14.1346 7
    endloop
  endfacet
  facet normal -0 0 1
    outer loop
      vertex 2.69617 -3.28529 7
      vertex 12.3957 -14.1346 7
      vertex 3.0052 -3.0052 7
    endloop
  endfacet
  facet normal 0 0 1
    outer loop
      vertex 12.3957 -14.1346 7
      vertex 2.69617 -3.28529 7
      vertex 11.4447 -14.915 7
    endloop
  endfacet
  facet normal -0 0 1
    outer loop
      vertex 2.36117 -3.53375 7
      vertex 11.4447 -14.915 7
      vertex 2.69617 -3.28529 7
    endloop
  endfacet
  facet normal 0 0 1
    outer loop
      vertex 11.4447 -14.915 7
      vertex 2.36117 -3.53375 7
      vertex 10.4447 -15.6316 7
    endloop
  endfacet
  facet normal 0 0 1
    outer loop
      vertex 10.4447 -15.6316 7
      vertex 2.36117 -3.53375 7
      vertex 9.4 -16.2813 7
    endloop
  endfacet
  facet normal -0 0 1
    outer loop
      vertex 2.00344 -3.74817 7
      vertex 9.4 -16.2813 7
      vertex 2.36117 -3.53375 7
    endloop
  endfacet
  facet normal 0 0 1
    outer loop
      vertex 9.4 -16.2813 7
      vertex 2.00344 -3.74817 7
      vertex 8.31503 -16.8612 7
    endloop
  endfacet
  facet normal -0 0 1
    outer loop
      vertex 1.6264 -3.92649 7
      vertex 8.31503 -16.8612 7
      vertex 2.00344 -3.74817 7
    endloop
  endfacet
  facet normal 0 0 1
    outer loop
      vertex 8.31503 -16.8612 7
      vertex 1.6264 -3.92649 7
      vertex 7.19445 -17.3689 7
    endloop
  endfacet
  facet normal 0 0 1
    outer loop
      vertex 7.19445 -17.3689 7
      vertex 1.6264 -3.92649 7
      vertex 6.04306 -17.8023 7
    endloop
  endfacet
  facet normal -0 0 1
    outer loop
      vertex 1.23371 -4.067 7
      vertex 6.04306 -17.8023 7
      vertex 1.6264 -3.92649 7
    endloop
  endfacet
  facet normal 0 0 1
    outer loop
      vertex 6.04306 -17.8023 7
      vertex 1.23371 -4.067 7
      vertex 4.8658 -18.1594 7
    endloop
  endfacet
  facet normal -0 0 1
    outer loop
      vertex 0.829133 -4.16834 7
      vertex 4.8658 -18.1594 7
      vertex 1.23371 -4.067 7
    endloop
  endfacet
  facet normal 0 0 1
    outer loop
      vertex 4.8658 -18.1594 7
      vertex 0.829133 -4.16834 7
      vertex 3.6677 -18.4388 7
    endloop
  endfacet
  facet normal 0 0 1
    outer loop
      vertex 3.6677 -18.4388 7
      vertex 0.829133 -4.16834 7
      vertex 2.45389 -18.6392 7
    endloop
  endfacet
  facet normal -0 0 1
    outer loop
      vertex 0.416573 -4.22953 7
      vertex 2.45389 -18.6392 7
      vertex 0.829133 -4.16834 7
    endloop
  endfacet
  facet normal 0 0 1
    outer loop
      vertex 2.45389 -18.6392 7
      vertex 0.416573 -4.22953 7
      vertex 1.22958 -18.7597 7
    endloop
  endfacet
  facet normal -0 0 1
    outer loop
      vertex 0 -4.25 7
      vertex 1.22958 -18.7597 7
      vertex 0.416573 -4.22953 7
    endloop
  endfacet
  facet normal 0 0 1
    outer loop
      vertex 1.22958 -18.7597 7
      vertex 0 -4.25 7
      vertex 0 -18.8 7
    endloop
  endfacet
  facet normal -1 0 0
    outer loop
      vertex 0 23 0
      vertex 0 18.8 3
      vertex 0 23 3
    endloop
  endfacet
  facet normal -1 0 0
    outer loop
      vertex 0 4.25 0
      vertex 0 18.8 3
      vertex 0 23 0
    endloop
  endfacet
  facet normal -1 0 0
    outer loop
      vertex 0 4.25 7
      vertex 0 18.8 3
      vertex 0 4.25 0
    endloop
  endfacet
  facet normal -1 0 0
    outer loop
      vertex 0 18.8 3
      vertex 0 4.25 7
      vertex 0 18.8 7
    endloop
  endfacet
  facet normal -1 0 0
    outer loop
      vertex 0 -4.25 0
      vertex 0 -18.8 3
      vertex 0 -4.25 7
    endloop
  endfacet
  facet normal -1 0 0
    outer loop
      vertex 0 -23 0
      vertex 0 -18.8 3
      vertex 0 -4.25 0
    endloop
  endfacet
  facet normal -1 -0 0
    outer loop
      vertex 0 -18.8 3
      vertex 0 -23 0
      vertex 0 -23 3
    endloop
  endfacet
  facet normal -1 -0 0
    outer loop
      vertex 0 -4.25 7
      vertex 0 -18.8 3
      vertex 0 -18.8 7
    endloop
  endfacet
  facet normal -0.989179 -0.146713 0
    outer loop
      vertex 4.22953 0.416573 0
      vertex 4.16834 0.829133 7
      vertex 4.16834 0.829133 0
    endloop
  endfacet
  facet normal -0.989179 -0.146713 0
    outer loop
      vertex 4.16834 0.829133 7
      vertex 4.22953 0.416573 0
      vertex 4.22953 0.416573 7
    endloop
  endfacet
  facet normal -0.998795 -0.0490798 0
    outer loop
      vertex 4.25 0 0
      vertex 4.22953 0.416573 7
      vertex 4.22953 0.416573 0
    endloop
  endfacet
  facet normal -0.998795 -0.0490798 0
    outer loop
      vertex 4.22953 0.416573 7
      vertex 4.25 0 0
      vertex 4.25 0 7
    endloop
  endfacet
  facet normal -0.970032 -0.242977 0
    outer loop
      vertex 4.16834 0.829133 0
      vertex 4.067 1.23371 7
      vertex 4.067 1.23371 0
    endloop
  endfacet
  facet normal -0.970032 -0.242977 0
    outer loop
      vertex 4.067 1.23371 7
      vertex 4.16834 0.829133 0
      vertex 4.16834 0.829133 7
    endloop
  endfacet
  facet normal -0.857723 -0.514111 0
    outer loop
      vertex 3.74817 2.00344 0
      vertex 3.53375 2.36117 7
      vertex 3.53375 2.36117 0
    endloop
  endfacet
  facet normal -0.857723 -0.514111 0
    outer loop
      vertex 3.53375 2.36117 7
      vertex 3.74817 2.00344 0
      vertex 3.74817 2.00344 7
    endloop
  endfacet
  facet normal -0.427542 -0.903995 0
    outer loop
      vertex 1.6264 3.92649 0
      vertex 2.00344 3.74817 7
      vertex 1.6264 3.92649 7
    endloop
  endfacet
  facet normal -0.427542 -0.903995 -0
    outer loop
      vertex 2.00344 3.74817 7
      vertex 1.6264 3.92649 0
      vertex 2.00344 3.74817 0
    endloop
  endfacet
  facet normal -0.336897 -0.941542 0
    outer loop
      vertex 1.23371 4.067 0
      vertex 1.6264 3.92649 7
      vertex 1.23371 4.067 7
    endloop
  endfacet
  facet normal -0.336897 -0.941542 -0
    outer loop
      vertex 1.6264 3.92649 7
      vertex 1.23371 4.067 0
      vertex 1.6264 3.92649 0
    endloop
  endfacet
  facet normal -0.0490798 0.998795 0
    outer loop
      vertex 0.416573 -4.22953 0
      vertex 0 -4.25 7
      vertex 0.416573 -4.22953 7
    endloop
  endfacet
  facet normal -0.0490798 0.998795 0
    outer loop
      vertex 0 -4.25 7
      vertex 0.416573 -4.22953 0
      vertex 0 -4.25 0
    endloop
  endfacet
  facet normal -0.242977 -0.970032 0
    outer loop
      vertex 0.829133 4.16834 0
      vertex 1.23371 4.067 7
      vertex 0.829133 4.16834 7
    endloop
  endfacet
  facet normal -0.242977 -0.970032 -0
    outer loop
      vertex 1.23371 4.067 7
      vertex 0.829133 4.16834 0
      vertex 1.23371 4.067 0
    endloop
  endfacet
  facet normal -0.970032 0.242977 0
    outer loop
      vertex 4.067 -1.23371 0
      vertex 4.16834 -0.829133 7
      vertex 4.16834 -0.829133 0
    endloop
  endfacet
  facet normal -0.970032 0.242977 0
    outer loop
      vertex 4.16834 -0.829133 7
      vertex 4.067 -1.23371 0
      vertex 4.067 -1.23371 7
    endloop
  endfacet
  facet normal -0.740949 -0.671561 0
    outer loop
      vertex 3.28529 2.69617 0
      vertex 3.0052 3.0052 7
      vertex 3.0052 3.0052 0
    endloop
  endfacet
  facet normal -0.740949 -0.671561 0
    outer loop
      vertex 3.0052 3.0052 7
      vertex 3.28529 2.69617 0
      vertex 3.28529 2.69617 7
    endloop
  endfacet
  facet normal -0.941542 -0.336897 0
    outer loop
      vertex 4.067 1.23371 0
      vertex 3.92649 1.6264 7
      vertex 3.92649 1.6264 0
    endloop
  endfacet
  facet normal -0.941542 -0.336897 0
    outer loop
      vertex 3.92649 1.6264 7
      vertex 4.067 1.23371 0
      vertex 4.067 1.23371 7
    endloop
  endfacet
  facet normal -0.0490798 -0.998795 0
    outer loop
      vertex 0 4.25 0
      vertex 0.416573 4.22953 7
      vertex 0 4.25 7
    endloop
  endfacet
  facet normal -0.0490798 -0.998795 -0
    outer loop
      vertex 0.416573 4.22953 7
      vertex 0 4.25 0
      vertex 0.416573 4.22953 0
    endloop
  endfacet
  facet normal -0.671561 -0.740949 0
    outer loop
      vertex 2.69617 3.28529 0
      vertex 3.0052 3.0052 7
      vertex 2.69617 3.28529 7
    endloop
  endfacet
  facet normal -0.671561 -0.740949 -0
    outer loop
      vertex 3.0052 3.0052 7
      vertex 2.69617 3.28529 0
      vertex 3.0052 3.0052 0
    endloop
  endfacet
  facet normal -0.514111 0.857723 0
    outer loop
      vertex 2.36117 -3.53375 0
      vertex 2.00344 -3.74817 7
      vertex 2.36117 -3.53375 7
    endloop
  endfacet
  facet normal -0.514111 0.857723 0
    outer loop
      vertex 2.00344 -3.74817 7
      vertex 2.36117 -3.53375 0
      vertex 2.00344 -3.74817 0
    endloop
  endfacet
  facet normal -0.427542 0.903995 0
    outer loop
      vertex 2.00344 -3.74817 0
      vertex 1.6264 -3.92649 7
      vertex 2.00344 -3.74817 7
    endloop
  endfacet
  facet normal -0.427542 0.903995 0
    outer loop
      vertex 1.6264 -3.92649 7
      vertex 2.00344 -3.74817 0
      vertex 1.6264 -3.92649 0
    endloop
  endfacet
  facet normal -0.514111 -0.857723 0
    outer loop
      vertex 2.00344 3.74817 0
      vertex 2.36117 3.53375 7
      vertex 2.00344 3.74817 7
    endloop
  endfacet
  facet normal -0.514111 -0.857723 -0
    outer loop
      vertex 2.36117 3.53375 7
      vertex 2.00344 3.74817 0
      vertex 2.36117 3.53375 0
    endloop
  endfacet
  facet normal -0.59571 -0.803199 0
    outer loop
      vertex 2.36117 3.53375 0
      vertex 2.69617 3.28529 7
      vertex 2.36117 3.53375 7
    endloop
  endfacet
  facet normal -0.59571 -0.803199 -0
    outer loop
      vertex 2.69617 3.28529 7
      vertex 2.36117 3.53375 0
      vertex 2.69617 3.28529 0
    endloop
  endfacet
  facet normal -0.146713 0.989179 0
    outer loop
      vertex 0.829133 -4.16834 0
      vertex 0.416573 -4.22953 7
      vertex 0.829133 -4.16834 7
    endloop
  endfacet
  facet normal -0.146713 0.989179 0
    outer loop
      vertex 0.416573 -4.22953 7
      vertex 0.829133 -4.16834 0
      vertex 0.416573 -4.22953 0
    endloop
  endfacet
  facet normal -0.941542 0.336897 0
    outer loop
      vertex 3.92649 -1.6264 0
      vertex 4.067 -1.23371 7
      vertex 4.067 -1.23371 0
    endloop
  endfacet
  facet normal -0.941542 0.336897 0
    outer loop
      vertex 4.067 -1.23371 7
      vertex 3.92649 -1.6264 0
      vertex 3.92649 -1.6264 7
    endloop
  endfacet
  facet normal -0.740949 0.671561 0
    outer loop
      vertex 3.0052 -3.0052 0
      vertex 3.28529 -2.69617 7
      vertex 3.28529 -2.69617 0
    endloop
  endfacet
  facet normal -0.740949 0.671561 0
    outer loop
      vertex 3.28529 -2.69617 7
      vertex 3.0052 -3.0052 0
      vertex 3.0052 -3.0052 7
    endloop
  endfacet
  facet normal -0.803199 0.59571 0
    outer loop
      vertex 3.28529 -2.69617 0
      vertex 3.53375 -2.36117 7
      vertex 3.53375 -2.36117 0
    endloop
  endfacet
  facet normal -0.803199 0.59571 0
    outer loop
      vertex 3.53375 -2.36117 7
      vertex 3.28529 -2.69617 0
      vertex 3.28529 -2.69617 7
    endloop
  endfacet
  facet normal -0.903995 -0.427542 0
    outer loop
      vertex 3.92649 1.6264 0
      vertex 3.74817 2.00344 7
      vertex 3.74817 2.00344 0
    endloop
  endfacet
  facet normal -0.903995 -0.427542 0
    outer loop
      vertex 3.74817 2.00344 7
      vertex 3.92649 1.6264 0
      vertex 3.92649 1.6264 7
    endloop
  endfacet
  facet normal -0.989179 0.146713 0
    outer loop
      vertex 4.16834 -0.829133 0
      vertex 4.22953 -0.416573 7
      vertex 4.22953 -0.416573 0
    endloop
  endfacet
  facet normal -0.989179 0.146713 0
    outer loop
      vertex 4.22953 -0.416573 7
      vertex 4.16834 -0.829133 0
      vertex 4.16834 -0.829133 7
    endloop
  endfacet
  facet normal -0.803199 -0.59571 0
    outer loop
      vertex 3.53375 2.36117 0
      vertex 3.28529 2.69617 7
      vertex 3.28529 2.69617 0
    endloop
  endfacet
  facet normal -0.803199 -0.59571 0
    outer loop
      vertex 3.28529 2.69617 7
      vertex 3.53375 2.36117 0
      vertex 3.53375 2.36117 7
    endloop
  endfacet
  facet normal -0.146713 -0.989179 0
    outer loop
      vertex 0.416573 4.22953 0
      vertex 0.829133 4.16834 7
      vertex 0.416573 4.22953 7
    endloop
  endfacet
  facet normal -0.146713 -0.989179 -0
    outer loop
      vertex 0.829133 4.16834 7
      vertex 0.416573 4.22953 0
      vertex 0.829133 4.16834 0
    endloop
  endfacet
  facet normal -0.59571 0.803199 0
    outer loop
      vertex 2.69617 -3.28529 0
      vertex 2.36117 -3.53375 7
      vertex 2.69617 -3.28529 7
    endloop
  endfacet
  facet normal -0.59571 0.803199 0
    outer loop
      vertex 2.36117 -3.53375 7
      vertex 2.69617 -3.28529 0
      vertex 2.36117 -3.53375 0
    endloop
  endfacet
  facet normal -0.998795 0.0490798 0
    outer loop
      vertex 4.22953 -0.416573 0
      vertex 4.25 0 7
      vertex 4.25 0 0
    endloop
  endfacet
  facet normal -0.998795 0.0490798 0
    outer loop
      vertex 4.25 0 7
      vertex 4.22953 -0.416573 0
      vertex 4.22953 -0.416573 7
    endloop
  endfacet
  facet normal -0.336897 0.941542 0
    outer loop
      vertex 1.6264 -3.92649 0
      vertex 1.23371 -4.067 7
      vertex 1.6264 -3.92649 7
    endloop
  endfacet
  facet normal -0.336897 0.941542 0
    outer loop
      vertex 1.23371 -4.067 7
      vertex 1.6264 -3.92649 0
      vertex 1.23371 -4.067 0
    endloop
  endfacet
  facet normal -0.242977 0.970032 0
    outer loop
      vertex 1.23371 -4.067 0
      vertex 0.829133 -4.16834 7
      vertex 1.23371 -4.067 7
    endloop
  endfacet
  facet normal -0.242977 0.970032 0
    outer loop
      vertex 0.829133 -4.16834 7
      vertex 1.23371 -4.067 0
      vertex 0.829133 -4.16834 0
    endloop
  endfacet
  facet normal -0.903995 0.427542 0
    outer loop
      vertex 3.74817 -2.00344 0
      vertex 3.92649 -1.6264 7
      vertex 3.92649 -1.6264 0
    endloop
  endfacet
  facet normal -0.903995 0.427542 0
    outer loop
      vertex 3.92649 -1.6264 7
      vertex 3.74817 -2.00344 0
      vertex 3.74817 -2.00344 7
    endloop
  endfacet
  facet normal -0.857723 0.514111 0
    outer loop
      vertex 3.53375 -2.36117 0
      vertex 3.74817 -2.00344 7
      vertex 3.74817 -2.00344 0
    endloop
  endfacet
  facet normal -0.857723 0.514111 0
    outer loop
      vertex 3.74817 -2.00344 7
      vertex 3.53375 -2.36117 0
      vertex 3.53375 -2.36117 7
    endloop
  endfacet
  facet normal -0.671561 0.740949 0
    outer loop
      vertex 3.0052 -3.0052 0
      vertex 2.69617 -3.28529 7
      vertex 3.0052 -3.0052 7
    endloop
  endfacet
  facet normal -0.671561 0.740949 0
    outer loop
      vertex 2.69617 -3.28529 7
      vertex 3.0052 -3.0052 0
      vertex 2.69617 -3.28529 0
    endloop
  endfacet
endsolid OpenSCAD_Model
