solid OpenSCAD_Model
  facet normal -0.956941 -0.290282 0
    outer loop
      vertex 0.228348 1.85194 0
      vertex 0.0576324 2.41472 3
      vertex 0.0576324 2.41472 0
    endloop
  endfacet
  facet normal -0.956941 -0.290282 0
    outer loop
      vertex 0.0576324 2.41472 3
      vertex 0.228348 1.85194 0
      vertex 0.228348 1.85194 3
    endloop
  endfacet
  facet normal -0.995187 -0.0979958 0
    outer loop
      vertex 0.0576324 2.41472 0
      vertex 0 3 3
      vertex 0 3 0
    endloop
  endfacet
  facet normal -0.995187 -0.0979958 0
    outer loop
      vertex 0 3 3
      vertex 0.0576324 2.41472 0
      vertex 0.0576324 2.41472 3
    endloop
  endfacet
  facet normal 0.995193 0.097938 0
    outer loop
      vertex 31 15 3
      vertex 30.9424 15.5853 0
      vertex 30.9424 15.5853 3
    endloop
  endfacet
  facet normal 0.995193 0.097938 0
    outer loop
      vertex 30.9424 15.5853 0
      vertex 31 15 3
      vertex 31 15 0
    endloop
  endfacet
  facet normal -0.471358 0.881942 0
    outer loop
      vertex 1.85194 17.7716 0
      vertex 1.33328 17.4944 3
      vertex 1.85194 17.7716 3
    endloop
  endfacet
  facet normal -0.471358 0.881942 0
    outer loop
      vertex 1.33328 17.4944 3
      vertex 1.85194 17.7716 0
      vertex 1.33328 17.4944 0
    endloop
  endfacet
  facet normal -0.634411 0.772996 0
    outer loop
      vertex 1.33328 17.4944 0
      vertex 0.878677 17.1213 3
      vertex 1.33328 17.4944 3
    endloop
  endfacet
  facet normal -0.634411 0.772996 0
    outer loop
      vertex 0.878677 17.1213 3
      vertex 1.33328 17.4944 0
      vertex 0.878677 17.1213 0
    endloop
  endfacet
  facet normal 0.097938 0.995193 -0
    outer loop
      vertex 28.5853 17.9424 0
      vertex 28 18 3
      vertex 28.5853 17.9424 3
    endloop
  endfacet
  facet normal 0.097938 0.995193 0
    outer loop
      vertex 28 18 3
      vertex 28.5853 17.9424 0
      vertex 28 18 0
    endloop
  endfacet
  facet normal 0.29032 -0.95693 0
    outer loop
      vertex 28.5853 0.0576324 0
      vertex 29.148 0.228348 3
      vertex 28.5853 0.0576324 3
    endloop
  endfacet
  facet normal 0.29032 -0.95693 0
    outer loop
      vertex 29.148 0.228348 3
      vertex 28.5853 0.0576324 0
      vertex 29.148 0.228348 0
    endloop
  endfacet
  facet normal 0.471329 0.881957 -0
    outer loop
      vertex 29.6667 17.4944 0
      vertex 29.148 17.7716 3
      vertex 29.6667 17.4944 3
    endloop
  endfacet
  facet normal 0.471329 0.881957 0
    outer loop
      vertex 29.148 17.7716 3
      vertex 29.6667 17.4944 0
      vertex 29.148 17.7716 0
    endloop
  endfacet
  facet normal 0.772994 0.634413 0
    outer loop
      vertex 30.4944 16.6667 3
      vertex 30.1213 17.1213 0
      vertex 30.1213 17.1213 3
    endloop
  endfacet
  facet normal 0.772994 0.634413 0
    outer loop
      vertex 30.1213 17.1213 0
      vertex 30.4944 16.6667 3
      vertex 30.4944 16.6667 0
    endloop
  endfacet
  facet normal -0.773003 -0.634402 0
    outer loop
      vertex 0.878677 0.878677 0
      vertex 0.505585 1.33328 3
      vertex 0.505585 1.33328 0
    endloop
  endfacet
  facet normal -0.773003 -0.634402 0
    outer loop
      vertex 0.505585 1.33328 3
      vertex 0.878677 0.878677 0
      vertex 0.878677 0.878677 3
    endloop
  endfacet
  facet normal 0 -1 0
    outer loop
      vertex 3 0 0
      vertex 28 0 3
      vertex 3 0 3
    endloop
  endfacet
  facet normal 0 -1 -0
    outer loop
      vertex 28 0 3
      vertex 3 0 0
      vertex 28 0 0
    endloop
  endfacet
  facet normal 0 1 -0
    outer loop
      vertex 28 18 0
      vertex 3 18 3
      vertex 28 18 3
    endloop
  endfacet
  facet normal 0 1 0
    outer loop
      vertex 3 18 3
      vertex 28 18 0
      vertex 3 18 0
    endloop
  endfacet
  facet normal 0.471378 -0.881931 0
    outer loop
      vertex 29.148 0.228348 0
      vertex 29.6667 0.505585 3
      vertex 29.148 0.228348 3
    endloop
  endfacet
  facet normal 0.471378 -0.881931 0
    outer loop
      vertex 29.6667 0.505585 3
      vertex 29.148 0.228348 0
      vertex 29.6667 0.505585 0
    endloop
  endfacet
  facet normal 0.634413 0.772994 -0
    outer loop
      vertex 30.1213 17.1213 0
      vertex 29.6667 17.4944 3
      vertex 30.1213 17.1213 3
    endloop
  endfacet
  facet normal 0.634413 0.772994 0
    outer loop
      vertex 29.6667 17.4944 3
      vertex 30.1213 17.1213 0
      vertex 29.6667 17.4944 0
    endloop
  endfacet
  facet normal -0.995187 0.0979925 0
    outer loop
      vertex 0 15 0
      vertex 0.0576324 15.5853 3
      vertex 0.0576324 15.5853 0
    endloop
  endfacet
  facet normal -0.995187 0.0979925 0
    outer loop
      vertex 0.0576324 15.5853 3
      vertex 0 15 0
      vertex 0 15 3
    endloop
  endfacet
  facet normal -1 0 0
    outer loop
      vertex 0 3 0
      vertex 0 15 3
      vertex 0 15 0
    endloop
  endfacet
  facet normal -1 -0 0
    outer loop
      vertex 0 15 3
      vertex 0 3 0
      vertex 0 3 3
    endloop
  endfacet
  facet normal 0.0979925 -0.995187 0
    outer loop
      vertex 28 0 0
      vertex 28.5853 0.0576324 3
      vertex 28 0 3
    endloop
  endfacet
  facet normal 0.0979925 -0.995187 0
    outer loop
      vertex 28.5853 0.0576324 3
      vertex 28 0 0
      vertex 28.5853 0.0576324 0
    endloop
  endfacet
  facet normal -0.881931 0.471378 0
    outer loop
      vertex 0.228348 16.148 0
      vertex 0.505585 16.6667 3
      vertex 0.505585 16.6667 0
    endloop
  endfacet
  facet normal -0.881931 0.471378 0
    outer loop
      vertex 0.505585 16.6667 3
      vertex 0.228348 16.148 0
      vertex 0.228348 16.148 3
    endloop
  endfacet
  facet normal 0.956901 -0.290413 0
    outer loop
      vertex 30.7716 1.85194 3
      vertex 30.9424 2.41472 0
      vertex 30.9424 2.41472 3
    endloop
  endfacet
  facet normal 0.956901 -0.290413 0
    outer loop
      vertex 30.9424 2.41472 0
      vertex 30.7716 1.85194 3
      vertex 30.7716 1.85194 0
    endloop
  endfacet
  facet normal 0.95689 0.290451 0
    outer loop
      vertex 30.9424 15.5853 3
      vertex 30.7716 16.148 0
      vertex 30.7716 16.148 3
    endloop
  endfacet
  facet normal 0.95689 0.290451 0
    outer loop
      vertex 30.7716 16.148 0
      vertex 30.9424 15.5853 3
      vertex 30.9424 15.5853 0
    endloop
  endfacet
  facet normal 0.772996 -0.634411 0
    outer loop
      vertex 30.1213 0.878677 3
      vertex 30.4944 1.33328 0
      vertex 30.4944 1.33328 3
    endloop
  endfacet
  facet normal 0.772996 -0.634411 0
    outer loop
      vertex 30.4944 1.33328 0
      vertex 30.1213 0.878677 3
      vertex 30.1213 0.878677 0
    endloop
  endfacet
  facet normal -0.95693 0.29032 0
    outer loop
      vertex 0.0576324 15.5853 0
      vertex 0.228348 16.148 3
      vertex 0.228348 16.148 0
    endloop
  endfacet
  facet normal -0.95693 0.29032 0
    outer loop
      vertex 0.228348 16.148 3
      vertex 0.0576324 15.5853 0
      vertex 0.0576324 15.5853 3
    endloop
  endfacet
  facet normal 0.881957 0.471329 0
    outer loop
      vertex 30.7716 16.148 3
      vertex 30.4944 16.6667 0
      vertex 30.4944 16.6667 3
    endloop
  endfacet
  facet normal 0.881957 0.471329 0
    outer loop
      vertex 30.4944 16.6667 0
      vertex 30.7716 16.148 3
      vertex 30.7716 16.148 0
    endloop
  endfacet
  facet normal -0.0979958 -0.995187 0
    outer loop
      vertex 2.41472 0.0576324 0
      vertex 3 0 3
      vertex 2.41472 0.0576324 3
    endloop
  endfacet
  facet normal -0.0979958 -0.995187 -0
    outer loop
      vertex 3 0 3
      vertex 2.41472 0.0576324 0
      vertex 3 0 0
    endloop
  endfacet
  facet normal 0.881942 -0.471358 0
    outer loop
      vertex 30.4944 1.33328 3
      vertex 30.7716 1.85194 0
      vertex 30.7716 1.85194 3
    endloop
  endfacet
  facet normal 0.881942 -0.471358 0
    outer loop
      vertex 30.7716 1.85194 0
      vertex 30.4944 1.33328 3
      vertex 30.4944 1.33328 0
    endloop
  endfacet
  facet normal 0.995192 -0.0979413 0
    outer loop
      vertex 30.9424 2.41472 3
      vertex 31 3 0
      vertex 31 3 3
    endloop
  endfacet
  facet normal 0.995192 -0.0979413 0
    outer loop
      vertex 31 3 0
      vertex 30.9424 2.41472 3
      vertex 30.9424 2.41472 0
    endloop
  endfacet
  facet normal -0.634402 -0.773003 0
    outer loop
      vertex 0.878677 0.878677 0
      vertex 1.33328 0.505585 3
      vertex 0.878677 0.878677 3
    endloop
  endfacet
  facet normal -0.634402 -0.773003 -0
    outer loop
      vertex 1.33328 0.505585 3
      vertex 0.878677 0.878677 0
      vertex 1.33328 0.505585 0
    endloop
  endfacet
  facet normal -0.773001 0.634405 0
    outer loop
      vertex 0.505585 16.6667 0
      vertex 0.878677 17.1213 3
      vertex 0.878677 17.1213 0
    endloop
  endfacet
  facet normal -0.773001 0.634405 0
    outer loop
      vertex 0.878677 17.1213 3
      vertex 0.505585 16.6667 0
      vertex 0.505585 16.6667 3
    endloop
  endfacet
  facet normal 1 -0 0
    outer loop
      vertex 31 3 3
      vertex 31 15 0
      vertex 31 15 3
    endloop
  endfacet
  facet normal 1 0 0
    outer loop
      vertex 31 15 0
      vertex 31 3 3
      vertex 31 3 0
    endloop
  endfacet
  facet normal 0.290451 0.95689 -0
    outer loop
      vertex 29.148 17.7716 0
      vertex 28.5853 17.9424 3
      vertex 29.148 17.7716 3
    endloop
  endfacet
  facet normal 0.290451 0.95689 0
    outer loop
      vertex 28.5853 17.9424 3
      vertex 29.148 17.7716 0
      vertex 28.5853 17.9424 0
    endloop
  endfacet
  facet normal -0.471407 -0.881916 0
    outer loop
      vertex 1.33328 0.505585 0
      vertex 1.85194 0.228348 3
      vertex 1.33328 0.505585 3
    endloop
  endfacet
  facet normal -0.471407 -0.881916 -0
    outer loop
      vertex 1.85194 0.228348 3
      vertex 1.33328 0.505585 0
      vertex 1.85194 0.228348 0
    endloop
  endfacet
  facet normal -0.0979413 0.995192 0
    outer loop
      vertex 3 18 0
      vertex 2.41472 17.9424 3
      vertex 3 18 3
    endloop
  endfacet
  facet normal -0.0979413 0.995192 0
    outer loop
      vertex 2.41472 17.9424 3
      vertex 3 18 0
      vertex 2.41472 17.9424 0
    endloop
  endfacet
  facet normal -0.290413 0.956901 0
    outer loop
      vertex 2.41472 17.9424 0
      vertex 1.85194 17.7716 3
      vertex 2.41472 17.9424 3
    endloop
  endfacet
  facet normal -0.290413 0.956901 0
    outer loop
      vertex 1.85194 17.7716 3
      vertex 2.41472 17.9424 0
      vertex 1.85194 17.7716 0
    endloop
  endfacet
  facet normal 0.634405 -0.773001 0
    outer loop
      vertex 29.6667 0.505585 0
      vertex 30.1213 0.878677 3
      vertex 29.6667 0.505585 3
    endloop
  endfacet
  facet normal 0.634405 -0.773001 0
    outer loop
      vertex 30.1213 0.878677 3
      vertex 29.6667 0.505585 0
      vertex 30.1213 0.878677 0
    endloop
  endfacet
  facet normal -0.290282 -0.956941 0
    outer loop
      vertex 1.85194 0.228348 0
      vertex 2.41472 0.0576324 3
      vertex 1.85194 0.228348 3
    endloop
  endfacet
  facet normal -0.290282 -0.956941 -0
    outer loop
      vertex 2.41472 0.0576324 3
      vertex 1.85194 0.228348 0
      vertex 2.41472 0.0576324 0
    endloop
  endfacet
  facet normal 0 0 -1
    outer loop
      vertex 28 0 0
      vertex 31 3 0
      vertex 30.9424 2.41472 0
    endloop
  endfacet
  facet normal 0 0 -1
    outer loop
      vertex 31 3 0
      vertex 17.65 9 0
      vertex 31 15 0
    endloop
  endfacet
  facet normal 0 0 -1
    outer loop
      vertex 28 0 0
      vertex 30.9424 2.41472 0
      vertex 30.7716 1.85194 0
    endloop
  endfacet
  facet normal 0 0 -1
    outer loop
      vertex 17.6087 9.41944 0
      vertex 31 15 0
      vertex 17.65 9 0
    endloop
  endfacet
  facet normal 0 0 -1
    outer loop
      vertex 28 0 0
      vertex 30.7716 1.85194 0
      vertex 30.4944 1.33328 0
    endloop
  endfacet
  facet normal 0 -0 -1
    outer loop
      vertex 28 18 0
      vertex 31 15 0
      vertex 17.6087 9.41944 0
    endloop
  endfacet
  facet normal 0 0 -1
    outer loop
      vertex 28 0 0
      vertex 30.4944 1.33328 0
      vertex 30.1213 0.878677 0
    endloop
  endfacet
  facet normal 0 0 -1
    outer loop
      vertex 31 15 0
      vertex 28 18 0
      vertex 30.9424 15.5853 0
    endloop
  endfacet
  facet normal 0 0 -1
    outer loop
      vertex 28 0 0
      vertex 30.1213 0.878677 0
      vertex 29.6667 0.505585 0
    endloop
  endfacet
  facet normal 0 0 -1
    outer loop
      vertex 30.9424 15.5853 0
      vertex 28 18 0
      vertex 30.7716 16.148 0
    endloop
  endfacet
  facet normal 0 0 -1
    outer loop
      vertex 28 0 0
      vertex 29.6667 0.505585 0
      vertex 29.148 0.228348 0
    endloop
  endfacet
  facet normal -0 0 -1
    outer loop
      vertex 31 3 0
      vertex 28 0 0
      vertex 17.6087 8.58055 0
    endloop
  endfacet
  facet normal 0 0 -1
    outer loop
      vertex 28 0 0
      vertex 29.148 0.228348 0
      vertex 28.5853 0.0576324 0
    endloop
  endfacet
  facet normal 0 0 -1
    outer loop
      vertex 30.4944 16.6667 0
      vertex 28 18 0
      vertex 30.1213 17.1213 0
    endloop
  endfacet
  facet normal 0 0 -1
    outer loop
      vertex 29.6667 17.4944 0
      vertex 28 18 0
      vertex 29.148 17.7716 0
    endloop
  endfacet
  facet normal 0 0 -1
    outer loop
      vertex 29.148 17.7716 0
      vertex 28 18 0
      vertex 28.5853 17.9424 0
    endloop
  endfacet
  facet normal 0 0 -1
    outer loop
      vertex 30.1213 17.1213 0
      vertex 28 18 0
      vertex 29.6667 17.4944 0
    endloop
  endfacet
  facet normal 0 0 -1
    outer loop
      vertex 31 3 0
      vertex 17.6087 8.58055 0
      vertex 17.65 9 0
    endloop
  endfacet
  facet normal 0 0 -1
    outer loop
      vertex 28 0 0
      vertex 17.4863 8.17723 0
      vertex 17.6087 8.58055 0
    endloop
  endfacet
  facet normal 0 0 -1
    outer loop
      vertex 28 0 0
      vertex 17.2877 7.80552 0
      vertex 17.4863 8.17723 0
    endloop
  endfacet
  facet normal 0 0 -1
    outer loop
      vertex 28 0 0
      vertex 17.0203 7.47972 0
      vertex 17.2877 7.80552 0
    endloop
  endfacet
  facet normal 0 0 -1
    outer loop
      vertex 28 0 0
      vertex 16.6945 7.21234 0
      vertex 17.0203 7.47972 0
    endloop
  endfacet
  facet normal 0 0 -1
    outer loop
      vertex 28 0 0
      vertex 16.3228 7.01366 0
      vertex 16.6945 7.21234 0
    endloop
  endfacet
  facet normal 0 0 -1
    outer loop
      vertex 28 0 0
      vertex 15.9194 6.89131 0
      vertex 16.3228 7.01366 0
    endloop
  endfacet
  facet normal 0 0 -1
    outer loop
      vertex 28 0 0
      vertex 15.5 6.85 0
      vertex 15.9194 6.89131 0
    endloop
  endfacet
  facet normal 0 0 -1
    outer loop
      vertex 3 0 0
      vertex 15.5 6.85 0
      vertex 28 0 0
    endloop
  endfacet
  facet normal -0 0 -1
    outer loop
      vertex 15.5 6.85 0
      vertex 3 0 0
      vertex 15.0806 6.89131 0
    endloop
  endfacet
  facet normal 0 0 -1
    outer loop
      vertex 0 3 0
      vertex 13.3913 8.58055 0
      vertex 3 0 0
    endloop
  endfacet
  facet normal -0 0 -1
    outer loop
      vertex 13.5137 8.17723 0
      vertex 3 0 0
      vertex 13.3913 8.58055 0
    endloop
  endfacet
  facet normal -0 0 -1
    outer loop
      vertex 13.7123 7.80552 0
      vertex 3 0 0
      vertex 13.5137 8.17723 0
    endloop
  endfacet
  facet normal -0 0 -1
    outer loop
      vertex 13.9797 7.47972 0
      vertex 3 0 0
      vertex 13.7123 7.80552 0
    endloop
  endfacet
  facet normal -0 0 -1
    outer loop
      vertex 14.3055 7.21234 0
      vertex 3 0 0
      vertex 13.9797 7.47972 0
    endloop
  endfacet
  facet normal -0 0 -1
    outer loop
      vertex 14.6772 7.01366 0
      vertex 3 0 0
      vertex 14.3055 7.21234 0
    endloop
  endfacet
  facet normal -0 0 -1
    outer loop
      vertex 15.0806 6.89131 0
      vertex 3 0 0
      vertex 14.6772 7.01366 0
    endloop
  endfacet
  facet normal 0 0 -1
    outer loop
      vertex 30.7716 16.148 0
      vertex 28 18 0
      vertex 30.4944 16.6667 0
    endloop
  endfacet
  facet normal 0 0 -1
    outer loop
      vertex 17.4863 9.82277 0
      vertex 28 18 0
      vertex 17.6087 9.41944 0
    endloop
  endfacet
  facet normal 0 0 -1
    outer loop
      vertex 17.2877 10.1945 0
      vertex 28 18 0
      vertex 17.4863 9.82277 0
    endloop
  endfacet
  facet normal 0 0 -1
    outer loop
      vertex 17.0203 10.5203 0
      vertex 28 18 0
      vertex 17.2877 10.1945 0
    endloop
  endfacet
  facet normal 0 0 -1
    outer loop
      vertex 16.6945 10.7877 0
      vertex 28 18 0
      vertex 17.0203 10.5203 0
    endloop
  endfacet
  facet normal 0 0 -1
    outer loop
      vertex 16.3228 10.9863 0
      vertex 28 18 0
      vertex 16.6945 10.7877 0
    endloop
  endfacet
  facet normal 0 0 -1
    outer loop
      vertex 15.9194 11.1087 0
      vertex 28 18 0
      vertex 16.3228 10.9863 0
    endloop
  endfacet
  facet normal 0 0 -1
    outer loop
      vertex 15.5 11.15 0
      vertex 28 18 0
      vertex 15.9194 11.1087 0
    endloop
  endfacet
  facet normal 0 0 -1
    outer loop
      vertex 3 18 0
      vertex 15.5 11.15 0
      vertex 15.0806 11.1087 0
    endloop
  endfacet
  facet normal 0 0 -1
    outer loop
      vertex 3 18 0
      vertex 15.0806 11.1087 0
      vertex 14.6772 10.9863 0
    endloop
  endfacet
  facet normal -0 0 -1
    outer loop
      vertex 13.3913 8.58055 0
      vertex 0 3 0
      vertex 13.35 9 0
    endloop
  endfacet
  facet normal 0 0 -1
    outer loop
      vertex 0 15 0
      vertex 13.35 9 0
      vertex 0 3 0
    endloop
  endfacet
  facet normal 0 0 -1
    outer loop
      vertex 13.35 9 0
      vertex 0 15 0
      vertex 13.3913 9.41944 0
    endloop
  endfacet
  facet normal 0 -0 -1
    outer loop
      vertex 3 18 0
      vertex 13.3913 9.41944 0
      vertex 0 15 0
    endloop
  endfacet
  facet normal 0 0 -1
    outer loop
      vertex 15.5 11.15 0
      vertex 3 18 0
      vertex 28 18 0
    endloop
  endfacet
  facet normal 0 0 -1
    outer loop
      vertex 14.3055 10.7877 0
      vertex 3 18 0
      vertex 14.6772 10.9863 0
    endloop
  endfacet
  facet normal 0 0 -1
    outer loop
      vertex 13.9797 10.5203 0
      vertex 3 18 0
      vertex 14.3055 10.7877 0
    endloop
  endfacet
  facet normal 0 0 -1
    outer loop
      vertex 13.3913 9.41944 0
      vertex 3 18 0
      vertex 13.5137 9.82277 0
    endloop
  endfacet
  facet normal 0 0 -1
    outer loop
      vertex 0 3 0
      vertex 3 0 0
      vertex 2.41472 0.0576324 0
    endloop
  endfacet
  facet normal 0 0 -1
    outer loop
      vertex 13.5137 9.82277 0
      vertex 3 18 0
      vertex 13.7123 10.1945 0
    endloop
  endfacet
  facet normal 0 0 -1
    outer loop
      vertex 0 3 0
      vertex 2.41472 0.0576324 0
      vertex 1.85194 0.228348 0
    endloop
  endfacet
  facet normal 0 0 -1
    outer loop
      vertex 13.7123 10.1945 0
      vertex 3 18 0
      vertex 13.9797 10.5203 0
    endloop
  endfacet
  facet normal 0 0 -1
    outer loop
      vertex 0 3 0
      vertex 1.85194 0.228348 0
      vertex 1.33328 0.505585 0
    endloop
  endfacet
  facet normal 0 0 -1
    outer loop
      vertex 3 18 0
      vertex 0 15 0
      vertex 2.41472 17.9424 0
    endloop
  endfacet
  facet normal 0 0 -1
    outer loop
      vertex 0 3 0
      vertex 1.33328 0.505585 0
      vertex 0.878677 0.878677 0
    endloop
  endfacet
  facet normal 0 0 -1
    outer loop
      vertex 2.41472 17.9424 0
      vertex 0 15 0
      vertex 1.85194 17.7716 0
    endloop
  endfacet
  facet normal 0 0 -1
    outer loop
      vertex 0 3 0
      vertex 0.878677 0.878677 0
      vertex 0.505585 1.33328 0
    endloop
  endfacet
  facet normal 0 0 -1
    outer loop
      vertex 1.85194 17.7716 0
      vertex 0 15 0
      vertex 1.33328 17.4944 0
    endloop
  endfacet
  facet normal 0 0 -1
    outer loop
      vertex 0 3 0
      vertex 0.505585 1.33328 0
      vertex 0.228348 1.85194 0
    endloop
  endfacet
  facet normal 0 0 -1
    outer loop
      vertex 1.33328 17.4944 0
      vertex 0 15 0
      vertex 0.878677 17.1213 0
    endloop
  endfacet
  facet normal 0 0 -1
    outer loop
      vertex 0 3 0
      vertex 0.228348 1.85194 0
      vertex 0.0576324 2.41472 0
    endloop
  endfacet
  facet normal 0 0 -1
    outer loop
      vertex 0.878677 17.1213 0
      vertex 0 15 0
      vertex 0.505585 16.6667 0
    endloop
  endfacet
  facet normal 0 0 -1
    outer loop
      vertex 0.505585 16.6667 0
      vertex 0 15 0
      vertex 0.228348 16.148 0
    endloop
  endfacet
  facet normal 0 0 -1
    outer loop
      vertex 0.228348 16.148 0
      vertex 0 15 0
      vertex 0.0576324 15.5853 0
    endloop
  endfacet
  facet normal -0.881916 -0.471407 0
    outer loop
      vertex 0.505585 1.33328 0
      vertex 0.228348 1.85194 3
      vertex 0.228348 1.85194 0
    endloop
  endfacet
  facet normal -0.881916 -0.471407 0
    outer loop
      vertex 0.228348 1.85194 3
      vertex 0.505585 1.33328 0
      vertex 0.505585 1.33328 3
    endloop
  endfacet
  facet normal 0 0 1
    outer loop
      vertex 26 15 3
      vertex 31 15 3
      vertex 30.9424 15.5853 3
    endloop
  endfacet
  facet normal 0 0 1
    outer loop
      vertex 31 15 3
      vertex 26 15 3
      vertex 31 3 3
    endloop
  endfacet
  facet normal 0 0 1
    outer loop
      vertex 26 15 3
      vertex 30.9424 15.5853 3
      vertex 30.7716 16.148 3
    endloop
  endfacet
  facet normal 0 0 1
    outer loop
      vertex 26 3 3
      vertex 31 3 3
      vertex 26 15 3
    endloop
  endfacet
  facet normal 0 0 1
    outer loop
      vertex 26 15 3
      vertex 30.7716 16.148 3
      vertex 30.4944 16.6667 3
    endloop
  endfacet
  facet normal 0 0 1
    outer loop
      vertex 31 3 3
      vertex 26 3 3
      vertex 30.9424 2.41472 3
    endloop
  endfacet
  facet normal 0 0 1
    outer loop
      vertex 26 15 3
      vertex 30.4944 16.6667 3
      vertex 30.1213 17.1213 3
    endloop
  endfacet
  facet normal 0 0 1
    outer loop
      vertex 30.9424 2.41472 3
      vertex 26 3 3
      vertex 30.7716 1.85194 3
    endloop
  endfacet
  facet normal 0 0 1
    outer loop
      vertex 26 15 3
      vertex 30.1213 17.1213 3
      vertex 29.6667 17.4944 3
    endloop
  endfacet
  facet normal 0 0 1
    outer loop
      vertex 30.7716 1.85194 3
      vertex 26 3 3
      vertex 30.4944 1.33328 3
    endloop
  endfacet
  facet normal 0 0 1
    outer loop
      vertex 26 15 3
      vertex 29.6667 17.4944 3
      vertex 29.148 17.7716 3
    endloop
  endfacet
  facet normal 0 0 1
    outer loop
      vertex 30.4944 1.33328 3
      vertex 26 3 3
      vertex 30.1213 0.878677 3
    endloop
  endfacet
  facet normal 0 0 1
    outer loop
      vertex 26 15 3
      vertex 29.148 17.7716 3
      vertex 28.5853 17.9424 3
    endloop
  endfacet
  facet normal 0 0 1
    outer loop
      vertex 30.1213 0.878677 3
      vertex 26 3 3
      vertex 29.6667 0.505585 3
    endloop
  endfacet
  facet normal 0 0 1
    outer loop
      vertex 26 15 3
      vertex 28.5853 17.9424 3
      vertex 28 18 3
    endloop
  endfacet
  facet normal 0 0 1
    outer loop
      vertex 29.6667 0.505585 3
      vertex 26 3 3
      vertex 29.148 0.228348 3
    endloop
  endfacet
  facet normal 0 0 1
    outer loop
      vertex 29.148 0.228348 3
      vertex 26 3 3
      vertex 28.5853 0.0576324 3
    endloop
  endfacet
  facet normal 0 0 1
    outer loop
      vertex 28 18 3
      vertex 23.6 15 3
      vertex 26 15 3
    endloop
  endfacet
  facet normal 0 0 1
    outer loop
      vertex 23.6 15 3
      vertex 17.65 9 3
      vertex 23.6 3 3
    endloop
  endfacet
  facet normal 0 0 1
    outer loop
      vertex 23.6 15 3
      vertex 17.6087 9.41944 3
      vertex 17.65 9 3
    endloop
  endfacet
  facet normal 0 0 1
    outer loop
      vertex 23.6 15 3
      vertex 17.4863 9.82277 3
      vertex 17.6087 9.41944 3
    endloop
  endfacet
  facet normal 0 0 1
    outer loop
      vertex 23.6 15 3
      vertex 17.2877 10.1945 3
      vertex 17.4863 9.82277 3
    endloop
  endfacet
  facet normal 0 0 1
    outer loop
      vertex 23.6 15 3
      vertex 17.0203 10.5203 3
      vertex 17.2877 10.1945 3
    endloop
  endfacet
  facet normal 0 0 1
    outer loop
      vertex 7.4 15 3
      vertex 23.6 15 3
      vertex 28 18 3
    endloop
  endfacet
  facet normal 0 0 1
    outer loop
      vertex 23.6 15 3
      vertex 16.6945 10.7877 3
      vertex 17.0203 10.5203 3
    endloop
  endfacet
  facet normal 0 0 1
    outer loop
      vertex 23.6 15 3
      vertex 16.3228 10.9863 3
      vertex 16.6945 10.7877 3
    endloop
  endfacet
  facet normal 0 0 1
    outer loop
      vertex 23.6 15 3
      vertex 15.9194 11.1087 3
      vertex 16.3228 10.9863 3
    endloop
  endfacet
  facet normal 0 0 1
    outer loop
      vertex 23.6 15 3
      vertex 15.5 11.15 3
      vertex 15.9194 11.1087 3
    endloop
  endfacet
  facet normal 0 0 1
    outer loop
      vertex 23.6 15 3
      vertex 7.4 15 3
      vertex 15.5 11.15 3
    endloop
  endfacet
  facet normal 0 0 1
    outer loop
      vertex 15.5 11.15 3
      vertex 7.4 15 3
      vertex 15.0806 11.1087 3
    endloop
  endfacet
  facet normal 0 0 1
    outer loop
      vertex 13.3913 9.41944 3
      vertex 7.4 15 3
      vertex 13.35 9 3
    endloop
  endfacet
  facet normal 0 0 1
    outer loop
      vertex 13.5137 9.82277 3
      vertex 7.4 15 3
      vertex 13.3913 9.41944 3
    endloop
  endfacet
  facet normal 0 0 1
    outer loop
      vertex 13.7123 10.1945 3
      vertex 7.4 15 3
      vertex 13.5137 9.82277 3
    endloop
  endfacet
  facet normal 0 0 1
    outer loop
      vertex 13.9797 10.5203 3
      vertex 7.4 15 3
      vertex 13.7123 10.1945 3
    endloop
  endfacet
  facet normal 0 0 1
    outer loop
      vertex 14.3055 10.7877 3
      vertex 7.4 15 3
      vertex 13.9797 10.5203 3
    endloop
  endfacet
  facet normal 0 0 1
    outer loop
      vertex 14.6772 10.9863 3
      vertex 7.4 15 3
      vertex 14.3055 10.7877 3
    endloop
  endfacet
  facet normal 0 0 1
    outer loop
      vertex 15.0806 11.1087 3
      vertex 7.4 15 3
      vertex 14.6772 10.9863 3
    endloop
  endfacet
  facet normal -0 0 1
    outer loop
      vertex 3 18 3
      vertex 7.4 15 3
      vertex 28 18 3
    endloop
  endfacet
  facet normal -0 0 1
    outer loop
      vertex 2.41472 17.9424 3
      vertex 5 15 3
      vertex 3 18 3
    endloop
  endfacet
  facet normal 0 0 1
    outer loop
      vertex 7.4 15 3
      vertex 3 18 3
      vertex 5 15 3
    endloop
  endfacet
  facet normal 0 0 1
    outer loop
      vertex 28.5853 0.0576324 3
      vertex 26 3 3
      vertex 28 0 3
    endloop
  endfacet
  facet normal -0 0 1
    outer loop
      vertex 23.6 3 3
      vertex 28 0 3
      vertex 26 3 3
    endloop
  endfacet
  facet normal -0 0 1
    outer loop
      vertex 17.6087 8.58055 3
      vertex 23.6 3 3
      vertex 17.65 9 3
    endloop
  endfacet
  facet normal -0 0 1
    outer loop
      vertex 17.4863 8.17723 3
      vertex 23.6 3 3
      vertex 17.6087 8.58055 3
    endloop
  endfacet
  facet normal -0 0 1
    outer loop
      vertex 17.2877 7.80552 3
      vertex 23.6 3 3
      vertex 17.4863 8.17723 3
    endloop
  endfacet
  facet normal -0 0 1
    outer loop
      vertex 17.0203 7.47972 3
      vertex 23.6 3 3
      vertex 17.2877 7.80552 3
    endloop
  endfacet
  facet normal -0 0 1
    outer loop
      vertex 16.6945 7.21234 3
      vertex 23.6 3 3
      vertex 17.0203 7.47972 3
    endloop
  endfacet
  facet normal -0 0 1
    outer loop
      vertex 16.3228 7.01366 3
      vertex 23.6 3 3
      vertex 16.6945 7.21234 3
    endloop
  endfacet
  facet normal -0 0 1
    outer loop
      vertex 15.9194 6.89131 3
      vertex 23.6 3 3
      vertex 16.3228 7.01366 3
    endloop
  endfacet
  facet normal -0 0 1
    outer loop
      vertex 15.5 6.85 3
      vertex 23.6 3 3
      vertex 15.9194 6.89131 3
    endloop
  endfacet
  facet normal 0 0 1
    outer loop
      vertex 7.4 3 3
      vertex 23.6 3 3
      vertex 15.5 6.85 3
    endloop
  endfacet
  facet normal 0 0 1
    outer loop
      vertex 7.4 3 3
      vertex 15.5 6.85 3
      vertex 15.0806 6.89131 3
    endloop
  endfacet
  facet normal 0 0 1
    outer loop
      vertex 7.4 3 3
      vertex 15.0806 6.89131 3
      vertex 14.6772 7.01366 3
    endloop
  endfacet
  facet normal 0 0 1
    outer loop
      vertex 7.4 3 3
      vertex 13.35 9 3
      vertex 7.4 15 3
    endloop
  endfacet
  facet normal 0 0 1
    outer loop
      vertex 13.35 9 3
      vertex 7.4 3 3
      vertex 13.3913 8.58055 3
    endloop
  endfacet
  facet normal 0 0 1
    outer loop
      vertex 13.3913 8.58055 3
      vertex 7.4 3 3
      vertex 13.5137 8.17723 3
    endloop
  endfacet
  facet normal 0 0 1
    outer loop
      vertex 13.5137 8.17723 3
      vertex 7.4 3 3
      vertex 13.7123 7.80552 3
    endloop
  endfacet
  facet normal 0 0 1
    outer loop
      vertex 13.7123 7.80552 3
      vertex 7.4 3 3
      vertex 13.9797 7.47972 3
    endloop
  endfacet
  facet normal 0 0 1
    outer loop
      vertex 7.4 3 3
      vertex 14.3055 7.21234 3
      vertex 13.9797 7.47972 3
    endloop
  endfacet
  facet normal 0 0 1
    outer loop
      vertex 7.4 3 3
      vertex 14.6772 7.01366 3
      vertex 14.3055 7.21234 3
    endloop
  endfacet
  facet normal 0 0 1
    outer loop
      vertex 23.6 3 3
      vertex 7.4 3 3
      vertex 28 0 3
    endloop
  endfacet
  facet normal 0 0 1
    outer loop
      vertex 3 0 3
      vertex 7.4 3 3
      vertex 5 3 3
    endloop
  endfacet
  facet normal 0 0 1
    outer loop
      vertex 7.4 3 3
      vertex 3 0 3
      vertex 28 0 3
    endloop
  endfacet
  facet normal 0 0 1
    outer loop
      vertex 5 15 3
      vertex 0 15 3
      vertex 5 3 3
    endloop
  endfacet
  facet normal -0 0 1
    outer loop
      vertex 1.85194 17.7716 3
      vertex 5 15 3
      vertex 2.41472 17.9424 3
    endloop
  endfacet
  facet normal 0 0 1
    outer loop
      vertex 0 3 3
      vertex 5 3 3
      vertex 0 15 3
    endloop
  endfacet
  facet normal -0 0 1
    outer loop
      vertex 1.33328 17.4944 3
      vertex 5 15 3
      vertex 1.85194 17.7716 3
    endloop
  endfacet
  facet normal 0 -0 1
    outer loop
      vertex 0.0576324 2.41472 3
      vertex 5 3 3
      vertex 0 3 3
    endloop
  endfacet
  facet normal -0 0 1
    outer loop
      vertex 0.878677 17.1213 3
      vertex 5 15 3
      vertex 1.33328 17.4944 3
    endloop
  endfacet
  facet normal 0 0 1
    outer loop
      vertex 5 3 3
      vertex 2.41472 0.0576324 3
      vertex 3 0 3
    endloop
  endfacet
  facet normal -0 0 1
    outer loop
      vertex 0.505585 16.6667 3
      vertex 5 15 3
      vertex 0.878677 17.1213 3
    endloop
  endfacet
  facet normal 0 0 1
    outer loop
      vertex 5 3 3
      vertex 1.85194 0.228348 3
      vertex 2.41472 0.0576324 3
    endloop
  endfacet
  facet normal -0 0 1
    outer loop
      vertex 0.228348 16.148 3
      vertex 5 15 3
      vertex 0.505585 16.6667 3
    endloop
  endfacet
  facet normal 0 0 1
    outer loop
      vertex 5 3 3
      vertex 1.33328 0.505585 3
      vertex 1.85194 0.228348 3
    endloop
  endfacet
  facet normal -0 0 1
    outer loop
      vertex 0.0576324 15.5853 3
      vertex 5 15 3
      vertex 0.228348 16.148 3
    endloop
  endfacet
  facet normal 0 0 1
    outer loop
      vertex 5 3 3
      vertex 0.878677 0.878677 3
      vertex 1.33328 0.505585 3
    endloop
  endfacet
  facet normal 0 0 1
    outer loop
      vertex 5 15 3
      vertex 0.0576324 15.5853 3
      vertex 0 15 3
    endloop
  endfacet
  facet normal 0 0 1
    outer loop
      vertex 5 3 3
      vertex 0.505585 1.33328 3
      vertex 0.878677 0.878677 3
    endloop
  endfacet
  facet normal 0 0 1
    outer loop
      vertex 5 3 3
      vertex 0.228348 1.85194 3
      vertex 0.505585 1.33328 3
    endloop
  endfacet
  facet normal 0 0 1
    outer loop
      vertex 5 3 3
      vertex 0.0576324 2.41472 3
      vertex 0.228348 1.85194 3
    endloop
  endfacet
  facet normal 1 -0 0
    outer loop
      vertex 7.4 3 9
      vertex 7.4 15 3
      vertex 7.4 15 9
    endloop
  endfacet
  facet normal 1 0 0
    outer loop
      vertex 7.4 15 3
      vertex 7.4 3 9
      vertex 7.4 3 3
    endloop
  endfacet
  facet normal -0 0 1
    outer loop
      vertex 5 15 11
      vertex 9.2 3 11
      vertex 9.2 15 11
    endloop
  endfacet
  facet normal 0 0 1
    outer loop
      vertex 9.2 3 11
      vertex 5 15 11
      vertex 5 3 11
    endloop
  endfacet
  facet normal -1 0 0
    outer loop
      vertex 5 3 3
      vertex 5 15 11
      vertex 5 15 3
    endloop
  endfacet
  facet normal -1 -0 0
    outer loop
      vertex 5 15 11
      vertex 5 3 3
      vertex 5 3 11
    endloop
  endfacet
  facet normal 0 1 0
    outer loop
      vertex 7.4 15 9
      vertex 9.2 15 11
      vertex 9.2 15 9
    endloop
  endfacet
  facet normal 0 1 0
    outer loop
      vertex 9.2 15 11
      vertex 7.4 15 9
      vertex 5 15 11
    endloop
  endfacet
  facet normal 0 1 0
    outer loop
      vertex 5 15 3
      vertex 7.4 15 9
      vertex 7.4 15 3
    endloop
  endfacet
  facet normal 0 1 0
    outer loop
      vertex 7.4 15 9
      vertex 5 15 3
      vertex 5 15 11
    endloop
  endfacet
  facet normal 0 -1 0
    outer loop
      vertex 5 3 11
      vertex 7.4 3 9
      vertex 9.2 3 11
    endloop
  endfacet
  facet normal 0 -1 0
    outer loop
      vertex 5 3 3
      vertex 7.4 3 9
      vertex 5 3 11
    endloop
  endfacet
  facet normal 0 -1 -0
    outer loop
      vertex 7.4 3 9
      vertex 5 3 3
      vertex 7.4 3 3
    endloop
  endfacet
  facet normal 0 -1 -0
    outer loop
      vertex 9.2 3 11
      vertex 7.4 3 9
      vertex 9.2 3 9
    endloop
  endfacet
  facet normal 1 -0 0
    outer loop
      vertex 26 3 11
      vertex 26 15 3
      vertex 26 15 11
    endloop
  endfacet
  facet normal 1 0 0
    outer loop
      vertex 26 15 3
      vertex 26 3 11
      vertex 26 3 3
    endloop
  endfacet
  facet normal -0 0 1
    outer loop
      vertex 21.8 15 11
      vertex 26 3 11
      vertex 26 15 11
    endloop
  endfacet
  facet normal 0 0 1
    outer loop
      vertex 26 3 11
      vertex 21.8 15 11
      vertex 21.8 3 11
    endloop
  endfacet
  facet normal -1 0 0
    outer loop
      vertex 23.6 3 3
      vertex 23.6 15 9
      vertex 23.6 15 3
    endloop
  endfacet
  facet normal -1 -0 0
    outer loop
      vertex 23.6 15 9
      vertex 23.6 3 3
      vertex 23.6 3 9
    endloop
  endfacet
  facet normal 0 1 0
    outer loop
      vertex 26 15 11
      vertex 23.6 15 9
      vertex 21.8 15 11
    endloop
  endfacet
  facet normal 0 1 -0
    outer loop
      vertex 26 15 3
      vertex 23.6 15 9
      vertex 26 15 11
    endloop
  endfacet
  facet normal 0 1 0
    outer loop
      vertex 23.6 15 9
      vertex 26 15 3
      vertex 23.6 15 3
    endloop
  endfacet
  facet normal 0 1 0
    outer loop
      vertex 21.8 15 11
      vertex 23.6 15 9
      vertex 21.8 15 9
    endloop
  endfacet
  facet normal 0 -1 0
    outer loop
      vertex 23.6 3 9
      vertex 21.8 3 11
      vertex 21.8 3 9
    endloop
  endfacet
  facet normal 0 -1 0
    outer loop
      vertex 21.8 3 11
      vertex 23.6 3 9
      vertex 26 3 11
    endloop
  endfacet
  facet normal 0 -1 0
    outer loop
      vertex 26 3 3
      vertex 23.6 3 9
      vertex 23.6 3 3
    endloop
  endfacet
  facet normal 0 -1 0
    outer loop
      vertex 23.6 3 9
      vertex 26 3 3
      vertex 26 3 11
    endloop
  endfacet
  facet normal 1 -0 0
    outer loop
      vertex 9.2 3 11
      vertex 9.2 15 9
      vertex 9.2 15 11
    endloop
  endfacet
  facet normal 1 0 0
    outer loop
      vertex 9.2 15 9
      vertex 9.2 3 11
      vertex 9.2 3 9
    endloop
  endfacet
  facet normal 0 0 -1
    outer loop
      vertex 7.4 3 9
      vertex 9.2 15 9
      vertex 9.2 3 9
    endloop
  endfacet
  facet normal -0 0 -1
    outer loop
      vertex 9.2 15 9
      vertex 7.4 3 9
      vertex 7.4 15 9
    endloop
  endfacet
  facet normal 0 0 -1
    outer loop
      vertex 21.8 3 9
      vertex 23.6 15 9
      vertex 23.6 3 9
    endloop
  endfacet
  facet normal -0 0 -1
    outer loop
      vertex 23.6 15 9
      vertex 21.8 3 9
      vertex 21.8 15 9
    endloop
  endfacet
  facet normal -1 0 0
    outer loop
      vertex 21.8 3 9
      vertex 21.8 15 11
      vertex 21.8 15 9
    endloop
  endfacet
  facet normal -1 -0 0
    outer loop
      vertex 21.8 15 11
      vertex 21.8 3 9
      vertex 21.8 3 11
    endloop
  endfacet
  facet normal 0.0980235 0.995184 -0
    outer loop
      vertex 15.5 6.85 0
      vertex 15.0806 6.89131 3
      vertex 15.5 6.85 3
    endloop
  endfacet
  facet normal 0.0980235 0.995184 0
    outer loop
      vertex 15.0806 6.89131 3
      vertex 15.5 6.85 0
      vertex 15.0806 6.89131 0
    endloop
  endfacet
  facet normal -0.772984 0.634426 0
    outer loop
      vertex 17.0203 7.47972 0
      vertex 17.2877 7.80552 3
      vertex 17.2877 7.80552 0
    endloop
  endfacet
  facet normal -0.772984 0.634426 0
    outer loop
      vertex 17.2877 7.80552 3
      vertex 17.0203 7.47972 0
      vertex 17.0203 7.47972 3
    endloop
  endfacet
  facet normal -0.956907 -0.290396 0
    outer loop
      vertex 17.6087 9.41944 0
      vertex 17.4863 9.82277 3
      vertex 17.4863 9.82277 0
    endloop
  endfacet
  facet normal -0.956907 -0.290396 0
    outer loop
      vertex 17.4863 9.82277 3
      vertex 17.6087 9.41944 0
      vertex 17.6087 9.41944 3
    endloop
  endfacet
  facet normal -0.995187 -0.0979907 0
    outer loop
      vertex 17.65 9 0
      vertex 17.6087 9.41944 3
      vertex 17.6087 9.41944 0
    endloop
  endfacet
  facet normal -0.995187 -0.0979907 0
    outer loop
      vertex 17.6087 9.41944 3
      vertex 17.65 9 0
      vertex 17.65 9 3
    endloop
  endfacet
  facet normal -0.882014 -0.471224 0
    outer loop
      vertex 17.4863 9.82277 0
      vertex 17.2877 10.1945 3
      vertex 17.2877 10.1945 0
    endloop
  endfacet
  facet normal -0.882014 -0.471224 0
    outer loop
      vertex 17.2877 10.1945 3
      vertex 17.4863 9.82277 0
      vertex 17.4863 9.82277 3
    endloop
  endfacet
  facet normal 0.882003 0.471243 0
    outer loop
      vertex 13.7123 7.80552 3
      vertex 13.5137 8.17723 0
      vertex 13.5137 8.17723 3
    endloop
  endfacet
  facet normal 0.882003 0.471243 0
    outer loop
      vertex 13.5137 8.17723 0
      vertex 13.7123 7.80552 3
      vertex 13.7123 7.80552 0
    endloop
  endfacet
  facet normal -0.995188 0.0979884 0
    outer loop
      vertex 17.6087 8.58055 0
      vertex 17.65 9 3
      vertex 17.65 9 0
    endloop
  endfacet
  facet normal -0.995188 0.0979884 0
    outer loop
      vertex 17.65 9 3
      vertex 17.6087 8.58055 0
      vertex 17.6087 8.58055 3
    endloop
  endfacet
  facet normal -0.290241 0.956954 0
    outer loop
      vertex 16.3228 7.01366 0
      vertex 15.9194 6.89131 3
      vertex 16.3228 7.01366 3
    endloop
  endfacet
  facet normal -0.290241 0.956954 0
    outer loop
      vertex 15.9194 6.89131 3
      vertex 16.3228 7.01366 0
      vertex 15.9194 6.89131 0
    endloop
  endfacet
  facet normal 0.995188 0.0979884 0
    outer loop
      vertex 13.3913 8.58055 3
      vertex 13.35 9 0
      vertex 13.35 9 3
    endloop
  endfacet
  facet normal 0.995188 0.0979884 0
    outer loop
      vertex 13.35 9 0
      vertex 13.3913 8.58055 3
      vertex 13.3913 8.58055 0
    endloop
  endfacet
  facet normal -0.098 -0.995186 0
    outer loop
      vertex 15.5 11.15 0
      vertex 15.9194 11.1087 3
      vertex 15.5 11.15 3
    endloop
  endfacet
  facet normal -0.098 -0.995186 -0
    outer loop
      vertex 15.9194 11.1087 3
      vertex 15.5 11.15 0
      vertex 15.9194 11.1087 0
    endloop
  endfacet
  facet normal -0.956905 0.290402 0
    outer loop
      vertex 17.4863 8.17723 0
      vertex 17.6087 8.58055 3
      vertex 17.6087 8.58055 0
    endloop
  endfacet
  facet normal -0.956905 0.290402 0
    outer loop
      vertex 17.6087 8.58055 3
      vertex 17.4863 8.17723 0
      vertex 17.4863 8.17723 3
    endloop
  endfacet
  facet normal 0.290241 0.956954 -0
    outer loop
      vertex 15.0806 6.89131 0
      vertex 14.6772 7.01366 3
      vertex 15.0806 6.89131 3
    endloop
  endfacet
  facet normal 0.290241 0.956954 0
    outer loop
      vertex 14.6772 7.01366 3
      vertex 15.0806 6.89131 0
      vertex 14.6772 7.01366 0
    endloop
  endfacet
  facet normal 0.995187 -0.0979907 0
    outer loop
      vertex 13.35 9 3
      vertex 13.3913 9.41944 0
      vertex 13.3913 9.41944 3
    endloop
  endfacet
  facet normal 0.995187 -0.0979907 0
    outer loop
      vertex 13.3913 9.41944 0
      vertex 13.35 9 3
      vertex 13.35 9 0
    endloop
  endfacet
  facet normal -0.471253 -0.881998 0
    outer loop
      vertex 16.3228 10.9863 0
      vertex 16.6945 10.7877 3
      vertex 16.3228 10.9863 3
    endloop
  endfacet
  facet normal -0.471253 -0.881998 -0
    outer loop
      vertex 16.6945 10.7877 3
      vertex 16.3228 10.9863 0
      vertex 16.6945 10.7877 0
    endloop
  endfacet
  facet normal -0.29035 -0.956921 0
    outer loop
      vertex 15.9194 11.1087 0
      vertex 16.3228 10.9863 3
      vertex 15.9194 11.1087 3
    endloop
  endfacet
  facet normal -0.29035 -0.956921 -0
    outer loop
      vertex 16.3228 10.9863 3
      vertex 15.9194 11.1087 0
      vertex 16.3228 10.9863 0
    endloop
  endfacet
  facet normal 0.098 -0.995186 0
    outer loop
      vertex 15.0806 11.1087 0
      vertex 15.5 11.15 3
      vertex 15.0806 11.1087 3
    endloop
  endfacet
  facet normal 0.098 -0.995186 0
    outer loop
      vertex 15.5 11.15 3
      vertex 15.0806 11.1087 0
      vertex 15.5 11.15 0
    endloop
  endfacet
  facet normal 0.956907 -0.290396 0
    outer loop
      vertex 13.3913 9.41944 3
      vertex 13.5137 9.82277 0
      vertex 13.5137 9.82277 3
    endloop
  endfacet
  facet normal 0.956907 -0.290396 0
    outer loop
      vertex 13.5137 9.82277 0
      vertex 13.3913 9.41944 3
      vertex 13.3913 9.41944 0
    endloop
  endfacet
  facet normal 0.634426 -0.772984 0
    outer loop
      vertex 13.9797 10.5203 0
      vertex 14.3055 10.7877 3
      vertex 13.9797 10.5203 3
    endloop
  endfacet
  facet normal 0.634426 -0.772984 0
    outer loop
      vertex 14.3055 10.7877 3
      vertex 13.9797 10.5203 0
      vertex 14.3055 10.7877 0
    endloop
  endfacet
  facet normal -0.772984 -0.634426 0
    outer loop
      vertex 17.2877 10.1945 0
      vertex 17.0203 10.5203 3
      vertex 17.0203 10.5203 0
    endloop
  endfacet
  facet normal -0.772984 -0.634426 0
    outer loop
      vertex 17.0203 10.5203 3
      vertex 17.2877 10.1945 0
      vertex 17.2877 10.1945 3
    endloop
  endfacet
  facet normal 0.471253 -0.881998 0
    outer loop
      vertex 14.3055 10.7877 0
      vertex 14.6772 10.9863 3
      vertex 14.3055 10.7877 3
    endloop
  endfacet
  facet normal 0.471253 -0.881998 0
    outer loop
      vertex 14.6772 10.9863 3
      vertex 14.3055 10.7877 0
      vertex 14.6772 10.9863 0
    endloop
  endfacet
  facet normal -0.471401 0.881919 0
    outer loop
      vertex 16.6945 7.21234 0
      vertex 16.3228 7.01366 3
      vertex 16.6945 7.21234 3
    endloop
  endfacet
  facet normal -0.471401 0.881919 0
    outer loop
      vertex 16.3228 7.01366 3
      vertex 16.6945 7.21234 0
      vertex 16.3228 7.01366 0
    endloop
  endfacet
  facet normal -0.882003 0.471243 0
    outer loop
      vertex 17.2877 7.80552 0
      vertex 17.4863 8.17723 3
      vertex 17.4863 8.17723 0
    endloop
  endfacet
  facet normal -0.882003 0.471243 0
    outer loop
      vertex 17.4863 8.17723 3
      vertex 17.2877 7.80552 0
      vertex 17.2877 7.80552 3
    endloop
  endfacet
  facet normal -0.634426 -0.772984 0
    outer loop
      vertex 16.6945 10.7877 0
      vertex 17.0203 10.5203 3
      vertex 16.6945 10.7877 3
    endloop
  endfacet
  facet normal -0.634426 -0.772984 -0
    outer loop
      vertex 17.0203 10.5203 3
      vertex 16.6945 10.7877 0
      vertex 17.0203 10.5203 0
    endloop
  endfacet
  facet normal -0.634397 0.773007 0
    outer loop
      vertex 17.0203 7.47972 0
      vertex 16.6945 7.21234 3
      vertex 17.0203 7.47972 3
    endloop
  endfacet
  facet normal -0.634397 0.773007 0
    outer loop
      vertex 16.6945 7.21234 3
      vertex 17.0203 7.47972 0
      vertex 16.6945 7.21234 0
    endloop
  endfacet
  facet normal 0.29035 -0.956921 0
    outer loop
      vertex 14.6772 10.9863 0
      vertex 15.0806 11.1087 3
      vertex 14.6772 10.9863 3
    endloop
  endfacet
  facet normal 0.29035 -0.956921 0
    outer loop
      vertex 15.0806 11.1087 3
      vertex 14.6772 10.9863 0
      vertex 15.0806 11.1087 0
    endloop
  endfacet
  facet normal -0.0980235 0.995184 0
    outer loop
      vertex 15.9194 6.89131 0
      vertex 15.5 6.85 3
      vertex 15.9194 6.89131 3
    endloop
  endfacet
  facet normal -0.0980235 0.995184 0
    outer loop
      vertex 15.5 6.85 3
      vertex 15.9194 6.89131 0
      vertex 15.5 6.85 0
    endloop
  endfacet
  facet normal 0.956905 0.290402 0
    outer loop
      vertex 13.5137 8.17723 3
      vertex 13.3913 8.58055 0
      vertex 13.3913 8.58055 3
    endloop
  endfacet
  facet normal 0.956905 0.290402 0
    outer loop
      vertex 13.3913 8.58055 0
      vertex 13.5137 8.17723 3
      vertex 13.5137 8.17723 0
    endloop
  endfacet
  facet normal 0.772984 -0.634426 0
    outer loop
      vertex 13.7123 10.1945 3
      vertex 13.9797 10.5203 0
      vertex 13.9797 10.5203 3
    endloop
  endfacet
  facet normal 0.772984 -0.634426 0
    outer loop
      vertex 13.9797 10.5203 0
      vertex 13.7123 10.1945 3
      vertex 13.7123 10.1945 0
    endloop
  endfacet
  facet normal 0.772984 0.634426 0
    outer loop
      vertex 13.9797 7.47972 3
      vertex 13.7123 7.80552 0
      vertex 13.7123 7.80552 3
    endloop
  endfacet
  facet normal 0.772984 0.634426 0
    outer loop
      vertex 13.7123 7.80552 0
      vertex 13.9797 7.47972 3
      vertex 13.9797 7.47972 0
    endloop
  endfacet
  facet normal 0.634397 0.773007 -0
    outer loop
      vertex 14.3055 7.21234 0
      vertex 13.9797 7.47972 3
      vertex 14.3055 7.21234 3
    endloop
  endfacet
  facet normal 0.634397 0.773007 0
    outer loop
      vertex 13.9797 7.47972 3
      vertex 14.3055 7.21234 0
      vertex 13.9797 7.47972 0
    endloop
  endfacet
  facet normal 0.471401 0.881919 -0
    outer loop
      vertex 14.6772 7.01366 0
      vertex 14.3055 7.21234 3
      vertex 14.6772 7.01366 3
    endloop
  endfacet
  facet normal 0.471401 0.881919 0
    outer loop
      vertex 14.3055 7.21234 3
      vertex 14.6772 7.01366 0
      vertex 14.3055 7.21234 0
    endloop
  endfacet
  facet normal 0.882014 -0.471224 0
    outer loop
      vertex 13.5137 9.82277 3
      vertex 13.7123 10.1945 0
      vertex 13.7123 10.1945 3
    endloop
  endfacet
  facet normal 0.882014 -0.471224 0
    outer loop
      vertex 13.7123 10.1945 0
      vertex 13.5137 9.82277 3
      vertex 13.5137 9.82277 0
    endloop
  endfacet
endsolid OpenSCAD_Model
