solid OpenSCAD_Model
  facet normal 1 0 0
    outer loop
      vertex 46 4 18
      vertex 46 0 18
      vertex 46 4 4
    endloop
  endfacet
  facet normal 1 -0 0
    outer loop
      vertex 46 4 4
      vertex 46 46 0
      vertex 46 46 4
    endloop
  endfacet
  facet normal 1 0 0
    outer loop
      vertex 46 4 4
      vertex 46 0 0
      vertex 46 46 0
    endloop
  endfacet
  facet normal 1 0 0
    outer loop
      vertex 46 0 0
      vertex 46 4 4
      vertex 46 0 18
    endloop
  endfacet
  facet normal -0 0 1
    outer loop
      vertex 29.9863 17.8228 4
      vertex 46 4 4
      vertex 46 46 4
    endloop
  endfacet
  facet normal 0 0 1
    outer loop
      vertex 46 4 4
      vertex 30.1087 17.4194 4
      vertex 30.15 17 4
    endloop
  endfacet
  facet normal 0 0 1
    outer loop
      vertex 46 4 4
      vertex 29.9863 17.8228 4
      vertex 30.1087 17.4194 4
    endloop
  endfacet
  facet normal 0 0 1
    outer loop
      vertex 46 46 4
      vertex 29.7877 18.1945 4
      vertex 29.9863 17.8228 4
    endloop
  endfacet
  facet normal 0 0 1
    outer loop
      vertex 46 46 4
      vertex 29.5203 18.5203 4
      vertex 29.7877 18.1945 4
    endloop
  endfacet
  facet normal 0 0 1
    outer loop
      vertex 46 46 4
      vertex 29.1945 18.7877 4
      vertex 29.5203 18.5203 4
    endloop
  endfacet
  facet normal 0 0 1
    outer loop
      vertex 46 46 4
      vertex 28.8228 18.9863 4
      vertex 29.1945 18.7877 4
    endloop
  endfacet
  facet normal -0 0 1
    outer loop
      vertex 18.9863 28.8228 4
      vertex 28.8228 18.9863 4
      vertex 46 46 4
    endloop
  endfacet
  facet normal 0 0 1
    outer loop
      vertex 28.8228 18.9863 4
      vertex 18.9863 28.8228 4
      vertex 28.4194 19.1087 4
    endloop
  endfacet
  facet normal -0 -0 1
    outer loop
      vertex 19.1087 28.4194 4
      vertex 28.4194 19.1087 4
      vertex 18.9863 28.8228 4
    endloop
  endfacet
  facet normal 0 0 1
    outer loop
      vertex 28.4194 19.1087 4
      vertex 19.1087 28.4194 4
      vertex 28 19.15 4
    endloop
  endfacet
  facet normal -0 -0 1
    outer loop
      vertex 19.15 28 4
      vertex 28 19.15 4
      vertex 19.1087 28.4194 4
    endloop
  endfacet
  facet normal -0 0 1
    outer loop
      vertex 19.1087 27.5806 4
      vertex 27.5806 19.1087 4
      vertex 19.15 28 4
    endloop
  endfacet
  facet normal 0 0 1
    outer loop
      vertex 27.5806 19.1087 4
      vertex 19.1087 27.5806 4
      vertex 27.1772 18.9863 4
    endloop
  endfacet
  facet normal -0 0 1
    outer loop
      vertex 18.5203 26.4797 4
      vertex 26.4797 18.5203 4
      vertex 18.7877 26.8055 4
    endloop
  endfacet
  facet normal 0 0 1
    outer loop
      vertex 26.8055 18.7877 4
      vertex 18.7877 26.8055 4
      vertex 26.4797 18.5203 4
    endloop
  endfacet
  facet normal -0 0 1
    outer loop
      vertex 18.7877 26.8055 4
      vertex 26.8055 18.7877 4
      vertex 18.9863 27.1772 4
    endloop
  endfacet
  facet normal -0 0 1
    outer loop
      vertex 18.9863 27.1772 4
      vertex 27.1772 18.9863 4
      vertex 19.1087 27.5806 4
    endloop
  endfacet
  facet normal 0 0 1
    outer loop
      vertex 27.1772 18.9863 4
      vertex 18.9863 27.1772 4
      vertex 26.8055 18.7877 4
    endloop
  endfacet
  facet normal 0 0 1
    outer loop
      vertex 28 19.15 4
      vertex 19.15 28 4
      vertex 27.5806 19.1087 4
    endloop
  endfacet
  facet normal 0 0 1
    outer loop
      vertex 46 46 4
      vertex 18.7877 29.1945 4
      vertex 18.9863 28.8228 4
    endloop
  endfacet
  facet normal 0 0 1
    outer loop
      vertex 46 46 4
      vertex 18.5203 29.5203 4
      vertex 18.7877 29.1945 4
    endloop
  endfacet
  facet normal 0 0 1
    outer loop
      vertex 46 46 4
      vertex 18.1945 29.7877 4
      vertex 18.5203 29.5203 4
    endloop
  endfacet
  facet normal 0 0 1
    outer loop
      vertex 46 46 4
      vertex 17.8228 29.9863 4
      vertex 18.1945 29.7877 4
    endloop
  endfacet
  facet normal -0 0 1
    outer loop
      vertex 4 46 4
      vertex 17.8228 29.9863 4
      vertex 46 46 4
    endloop
  endfacet
  facet normal 0 0 1
    outer loop
      vertex 17.8228 29.9863 4
      vertex 4 46 4
      vertex 17.4194 30.1087 4
    endloop
  endfacet
  facet normal 0 0 1
    outer loop
      vertex 17.4194 30.1087 4
      vertex 4 46 4
      vertex 17 30.15 4
    endloop
  endfacet
  facet normal 0 0 1
    outer loop
      vertex 17 30.15 4
      vertex 4 46 4
      vertex 16.5806 30.1087 4
    endloop
  endfacet
  facet normal 0 0 1
    outer loop
      vertex 16.5806 30.1087 4
      vertex 4 46 4
      vertex 16.1772 29.9863 4
    endloop
  endfacet
  facet normal 0 0 1
    outer loop
      vertex 4 16 4
      vertex 14.8913 28.4194 4
      vertex 4 46 4
    endloop
  endfacet
  facet normal 0 0 1
    outer loop
      vertex 15.0137 28.8228 4
      vertex 4 46 4
      vertex 14.8913 28.4194 4
    endloop
  endfacet
  facet normal 0 0 1
    outer loop
      vertex 15.2123 29.1945 4
      vertex 4 46 4
      vertex 15.0137 28.8228 4
    endloop
  endfacet
  facet normal 0 0 1
    outer loop
      vertex 15.4797 29.5203 4
      vertex 4 46 4
      vertex 15.2123 29.1945 4
    endloop
  endfacet
  facet normal 0 0 1
    outer loop
      vertex 15.8055 29.7877 4
      vertex 4 46 4
      vertex 15.4797 29.5203 4
    endloop
  endfacet
  facet normal 0 0 1
    outer loop
      vertex 16.1772 29.9863 4
      vertex 4 46 4
      vertex 15.8055 29.7877 4
    endloop
  endfacet
  facet normal -0 0 1
    outer loop
      vertex 30.1087 16.5806 4
      vertex 46 4 4
      vertex 30.15 17 4
    endloop
  endfacet
  facet normal -0 0 1
    outer loop
      vertex 29.9863 16.1772 4
      vertex 46 4 4
      vertex 30.1087 16.5806 4
    endloop
  endfacet
  facet normal -0 0 1
    outer loop
      vertex 29.7877 15.8055 4
      vertex 46 4 4
      vertex 29.9863 16.1772 4
    endloop
  endfacet
  facet normal -0 0 1
    outer loop
      vertex 29.5203 15.4797 4
      vertex 46 4 4
      vertex 29.7877 15.8055 4
    endloop
  endfacet
  facet normal -0 0 1
    outer loop
      vertex 29.1945 15.2123 4
      vertex 46 4 4
      vertex 29.5203 15.4797 4
    endloop
  endfacet
  facet normal -0 0 1
    outer loop
      vertex 28.8228 15.0137 4
      vertex 46 4 4
      vertex 29.1945 15.2123 4
    endloop
  endfacet
  facet normal -0 0 1
    outer loop
      vertex 28.4194 14.8913 4
      vertex 46 4 4
      vertex 28.8228 15.0137 4
    endloop
  endfacet
  facet normal 0 0 1
    outer loop
      vertex 16 4 4
      vertex 28.4194 14.8913 4
      vertex 28 14.85 4
    endloop
  endfacet
  facet normal 0 0 1
    outer loop
      vertex 16 4 4
      vertex 28 14.85 4
      vertex 27.5806 14.8913 4
    endloop
  endfacet
  facet normal 0 0 1
    outer loop
      vertex 16 4 4
      vertex 27.5806 14.8913 4
      vertex 27.1772 15.0137 4
    endloop
  endfacet
  facet normal 0 0 1
    outer loop
      vertex 16 4 4
      vertex 27.1772 15.0137 4
      vertex 26.8055 15.2123 4
    endloop
  endfacet
  facet normal 0 0 1
    outer loop
      vertex 26.4797 18.5203 4
      vertex 18.5203 26.4797 4
      vertex 26.2123 18.1945 4
    endloop
  endfacet
  facet normal -0 0 1
    outer loop
      vertex 18.1945 26.2123 4
      vertex 26.2123 18.1945 4
      vertex 18.5203 26.4797 4
    endloop
  endfacet
  facet normal 0 0 1
    outer loop
      vertex 26.2123 18.1945 4
      vertex 18.1945 26.2123 4
      vertex 26.0137 17.8228 4
    endloop
  endfacet
  facet normal -0 0 1
    outer loop
      vertex 17.8228 26.0137 4
      vertex 26.0137 17.8228 4
      vertex 18.1945 26.2123 4
    endloop
  endfacet
  facet normal 0 0 1
    outer loop
      vertex 26.0137 17.8228 4
      vertex 17.8228 26.0137 4
      vertex 25.8913 17.4194 4
    endloop
  endfacet
  facet normal -0 0 1
    outer loop
      vertex 17.4194 25.8913 4
      vertex 25.8913 17.4194 4
      vertex 17.8228 26.0137 4
    endloop
  endfacet
  facet normal 0 0 1
    outer loop
      vertex 25.8913 17.4194 4
      vertex 17.4194 25.8913 4
      vertex 25.85 17 4
    endloop
  endfacet
  facet normal -0 0 1
    outer loop
      vertex 17 25.85 4
      vertex 25.85 17 4
      vertex 17.4194 25.8913 4
    endloop
  endfacet
  facet normal 0 0 1
    outer loop
      vertex 25.85 17 4
      vertex 17 25.85 4
      vertex 25.8913 16.5806 4
    endloop
  endfacet
  facet normal 0 0 1
    outer loop
      vertex 16.5806 25.8913 4
      vertex 25.8913 16.5806 4
      vertex 17 25.85 4
    endloop
  endfacet
  facet normal 0 0 1
    outer loop
      vertex 16 4 4
      vertex 25.8913 16.5806 4
      vertex 16.5806 25.8913 4
    endloop
  endfacet
  facet normal 0 0 1
    outer loop
      vertex 25.8913 16.5806 4
      vertex 16 4 4
      vertex 26.0137 16.1772 4
    endloop
  endfacet
  facet normal 0 0 1
    outer loop
      vertex 26.0137 16.1772 4
      vertex 16 4 4
      vertex 26.2123 15.8055 4
    endloop
  endfacet
  facet normal 0 0 1
    outer loop
      vertex 4 16 4
      vertex 16.5806 25.8913 4
      vertex 16.1772 26.0137 4
    endloop
  endfacet
  facet normal 0 0 1
    outer loop
      vertex 28.4194 14.8913 4
      vertex 16 4 4
      vertex 46 4 4
    endloop
  endfacet
  facet normal 0 0 1
    outer loop
      vertex 26.4797 15.4797 4
      vertex 16 4 4
      vertex 26.8055 15.2123 4
    endloop
  endfacet
  facet normal 0 0 1
    outer loop
      vertex 26.2123 15.8055 4
      vertex 16 4 4
      vertex 26.4797 15.4797 4
    endloop
  endfacet
  facet normal 0 0 1
    outer loop
      vertex 4 16 4
      vertex 16.1772 26.0137 4
      vertex 15.8055 26.2123 4
    endloop
  endfacet
  facet normal 0 0 1
    outer loop
      vertex 4 16 4
      vertex 15.8055 26.2123 4
      vertex 15.4797 26.4797 4
    endloop
  endfacet
  facet normal 0 0 1
    outer loop
      vertex 4 16 4
      vertex 15.4797 26.4797 4
      vertex 15.2123 26.8055 4
    endloop
  endfacet
  facet normal 0 0 1
    outer loop
      vertex 4 16 4
      vertex 15.2123 26.8055 4
      vertex 15.0137 27.1772 4
    endloop
  endfacet
  facet normal 0 0 1
    outer loop
      vertex 4 16 4
      vertex 15.0137 27.1772 4
      vertex 14.8913 27.5806 4
    endloop
  endfacet
  facet normal 0 0 1
    outer loop
      vertex 4 16 4
      vertex 14.8913 27.5806 4
      vertex 14.85 28 4
    endloop
  endfacet
  facet normal 0 0 1
    outer loop
      vertex 14.8913 28.4194 4
      vertex 4 16 4
      vertex 14.85 28 4
    endloop
  endfacet
  facet normal 0 0 1
    outer loop
      vertex 16.5806 25.8913 4
      vertex 4 16 4
      vertex 16 4 4
    endloop
  endfacet
  facet normal 0 0 -1
    outer loop
      vertex 30.1087 17.4194 0
      vertex 46 0 0
      vertex 30.15 17 0
    endloop
  endfacet
  facet normal 0 0 -1
    outer loop
      vertex 46 0 0
      vertex 30.1087 16.5806 0
      vertex 30.15 17 0
    endloop
  endfacet
  facet normal 0 0 -1
    outer loop
      vertex 46 0 0
      vertex 29.9863 16.1772 0
      vertex 30.1087 16.5806 0
    endloop
  endfacet
  facet normal 0 0 -1
    outer loop
      vertex 46 0 0
      vertex 29.7877 15.8055 0
      vertex 29.9863 16.1772 0
    endloop
  endfacet
  facet normal 0 0 -1
    outer loop
      vertex 46 0 0
      vertex 29.5203 15.4797 0
      vertex 29.7877 15.8055 0
    endloop
  endfacet
  facet normal 0 0 -1
    outer loop
      vertex 46 0 0
      vertex 29.1945 15.2123 0
      vertex 29.5203 15.4797 0
    endloop
  endfacet
  facet normal 0 0 -1
    outer loop
      vertex 46 0 0
      vertex 28.8228 15.0137 0
      vertex 29.1945 15.2123 0
    endloop
  endfacet
  facet normal 0 0 -1
    outer loop
      vertex 46 0 0
      vertex 28.4194 14.8913 0
      vertex 28.8228 15.0137 0
    endloop
  endfacet
  facet normal 0 0 -1
    outer loop
      vertex 46 0 0
      vertex 28 14.85 0
      vertex 28.4194 14.8913 0
    endloop
  endfacet
  facet normal 0 0 -1
    outer loop
      vertex 46 0 0
      vertex 27.5806 14.8913 0
      vertex 28 14.85 0
    endloop
  endfacet
  facet normal 0 0 -1
    outer loop
      vertex 0 0 0
      vertex 27.5806 14.8913 0
      vertex 46 0 0
    endloop
  endfacet
  facet normal -0 0 -1
    outer loop
      vertex 27.5806 14.8913 0
      vertex 0 0 0
      vertex 27.1772 15.0137 0
    endloop
  endfacet
  facet normal 0 0 -1
    outer loop
      vertex 17 25.85 0
      vertex 25.85 17 0
      vertex 25.8913 16.5806 0
    endloop
  endfacet
  facet normal 0 0 -1
    outer loop
      vertex 16.5806 25.8913 0
      vertex 25.8913 16.5806 0
      vertex 26.0137 16.1772 0
    endloop
  endfacet
  facet normal 0 0 -1
    outer loop
      vertex 0 0 0
      vertex 26.0137 16.1772 0
      vertex 26.2123 15.8055 0
    endloop
  endfacet
  facet normal 0 0 -1
    outer loop
      vertex 25.85 17 0
      vertex 19.1087 27.5806 0
      vertex 19.15 28 0
    endloop
  endfacet
  facet normal 0 0 -1
    outer loop
      vertex 25.85 17 0
      vertex 18.9863 27.1772 0
      vertex 19.1087 27.5806 0
    endloop
  endfacet
  facet normal 0 0 -1
    outer loop
      vertex 25.85 17 0
      vertex 18.7877 26.8055 0
      vertex 18.9863 27.1772 0
    endloop
  endfacet
  facet normal 0 0 -1
    outer loop
      vertex 25.85 17 0
      vertex 18.5203 26.4797 0
      vertex 18.7877 26.8055 0
    endloop
  endfacet
  facet normal 0 0 -1
    outer loop
      vertex 25.85 17 0
      vertex 18.1945 26.2123 0
      vertex 18.5203 26.4797 0
    endloop
  endfacet
  facet normal 0 0 -1
    outer loop
      vertex 25.85 17 0
      vertex 17.8228 26.0137 0
      vertex 18.1945 26.2123 0
    endloop
  endfacet
  facet normal 0 0 -1
    outer loop
      vertex 0 0 0
      vertex 26.2123 15.8055 0
      vertex 26.4797 15.4797 0
    endloop
  endfacet
  facet normal 0 0 -1
    outer loop
      vertex 25.85 17 0
      vertex 17.4194 25.8913 0
      vertex 17.8228 26.0137 0
    endloop
  endfacet
  facet normal 0 0 -1
    outer loop
      vertex 25.85 17 0
      vertex 17 25.85 0
      vertex 17.4194 25.8913 0
    endloop
  endfacet
  facet normal 0 0 -1
    outer loop
      vertex 25.8913 16.5806 0
      vertex 16.5806 25.8913 0
      vertex 17 25.85 0
    endloop
  endfacet
  facet normal 0 0 -1
    outer loop
      vertex 26.0137 16.1772 0
      vertex 16.1772 26.0137 0
      vertex 16.5806 25.8913 0
    endloop
  endfacet
  facet normal -0 0 -1
    outer loop
      vertex 26.0137 16.1772 0
      vertex 0 0 0
      vertex 16.1772 26.0137 0
    endloop
  endfacet
  facet normal -0 0 -1
    outer loop
      vertex 16.1772 26.0137 0
      vertex 0 0 0
      vertex 15.8055 26.2123 0
    endloop
  endfacet
  facet normal 0 0 -1
    outer loop
      vertex 0 46 0
      vertex 14.8913 27.5806 0
      vertex 0 0 0
    endloop
  endfacet
  facet normal -0 0 -1
    outer loop
      vertex 15.0137 27.1772 0
      vertex 0 0 0
      vertex 14.8913 27.5806 0
    endloop
  endfacet
  facet normal -0 0 -1
    outer loop
      vertex 15.2123 26.8055 0
      vertex 0 0 0
      vertex 15.0137 27.1772 0
    endloop
  endfacet
  facet normal -0 0 -1
    outer loop
      vertex 15.4797 26.4797 0
      vertex 0 0 0
      vertex 15.2123 26.8055 0
    endloop
  endfacet
  facet normal -0 0 -1
    outer loop
      vertex 15.8055 26.2123 0
      vertex 0 0 0
      vertex 15.4797 26.4797 0
    endloop
  endfacet
  facet normal -0 0 -1
    outer loop
      vertex 26.8055 15.2123 0
      vertex 0 0 0
      vertex 26.4797 15.4797 0
    endloop
  endfacet
  facet normal -0 0 -1
    outer loop
      vertex 27.1772 15.0137 0
      vertex 0 0 0
      vertex 26.8055 15.2123 0
    endloop
  endfacet
  facet normal 0 0 -1
    outer loop
      vertex 46 0 0
      vertex 30.1087 17.4194 0
      vertex 46 46 0
    endloop
  endfacet
  facet normal 0 0 -1
    outer loop
      vertex 29.9863 17.8228 0
      vertex 46 46 0
      vertex 30.1087 17.4194 0
    endloop
  endfacet
  facet normal 0 0 -1
    outer loop
      vertex 29.7877 18.1945 0
      vertex 46 46 0
      vertex 29.9863 17.8228 0
    endloop
  endfacet
  facet normal 0 0 -1
    outer loop
      vertex 29.5203 18.5203 0
      vertex 46 46 0
      vertex 29.7877 18.1945 0
    endloop
  endfacet
  facet normal 0 0 -1
    outer loop
      vertex 29.1945 18.7877 0
      vertex 46 46 0
      vertex 29.5203 18.5203 0
    endloop
  endfacet
  facet normal 0 0 -1
    outer loop
      vertex 28.8228 18.9863 0
      vertex 46 46 0
      vertex 29.1945 18.7877 0
    endloop
  endfacet
  facet normal 0 0 -1
    outer loop
      vertex 18.9863 28.8228 0
      vertex 28.8228 18.9863 0
      vertex 28.4194 19.1087 0
    endloop
  endfacet
  facet normal 0 0 -1
    outer loop
      vertex 19.1087 28.4194 0
      vertex 28.4194 19.1087 0
      vertex 28 19.15 0
    endloop
  endfacet
  facet normal 0 0 -1
    outer loop
      vertex 19.15 28 0
      vertex 28 19.15 0
      vertex 27.5806 19.1087 0
    endloop
  endfacet
  facet normal 0 0 -1
    outer loop
      vertex 19.15 28 0
      vertex 27.5806 19.1087 0
      vertex 27.1772 18.9863 0
    endloop
  endfacet
  facet normal 0 0 -1
    outer loop
      vertex 19.15 28 0
      vertex 27.1772 18.9863 0
      vertex 26.8055 18.7877 0
    endloop
  endfacet
  facet normal 0 0 -1
    outer loop
      vertex 19.15 28 0
      vertex 26.8055 18.7877 0
      vertex 26.4797 18.5203 0
    endloop
  endfacet
  facet normal 0 0 -1
    outer loop
      vertex 19.15 28 0
      vertex 26.4797 18.5203 0
      vertex 26.2123 18.1945 0
    endloop
  endfacet
  facet normal 0 0 -1
    outer loop
      vertex 19.15 28 0
      vertex 25.8913 17.4194 0
      vertex 25.85 17 0
    endloop
  endfacet
  facet normal 0 0 -1
    outer loop
      vertex 19.15 28 0
      vertex 26.0137 17.8228 0
      vertex 25.8913 17.4194 0
    endloop
  endfacet
  facet normal 0 0 -1
    outer loop
      vertex 19.15 28 0
      vertex 26.2123 18.1945 0
      vertex 26.0137 17.8228 0
    endloop
  endfacet
  facet normal 0 0 -1
    outer loop
      vertex 28 19.15 0
      vertex 19.15 28 0
      vertex 19.1087 28.4194 0
    endloop
  endfacet
  facet normal 0 0 -1
    outer loop
      vertex 28.4194 19.1087 0
      vertex 19.1087 28.4194 0
      vertex 18.9863 28.8228 0
    endloop
  endfacet
  facet normal 0 0 -1
    outer loop
      vertex 28.8228 18.9863 0
      vertex 18.9863 28.8228 0
      vertex 46 46 0
    endloop
  endfacet
  facet normal 0 0 -1
    outer loop
      vertex 18.7877 29.1945 0
      vertex 46 46 0
      vertex 18.9863 28.8228 0
    endloop
  endfacet
  facet normal 0 0 -1
    outer loop
      vertex 18.5203 29.5203 0
      vertex 46 46 0
      vertex 18.7877 29.1945 0
    endloop
  endfacet
  facet normal 0 0 -1
    outer loop
      vertex 18.1945 29.7877 0
      vertex 46 46 0
      vertex 18.5203 29.5203 0
    endloop
  endfacet
  facet normal 0 0 -1
    outer loop
      vertex 17.8228 29.9863 0
      vertex 46 46 0
      vertex 18.1945 29.7877 0
    endloop
  endfacet
  facet normal 0 0 -1
    outer loop
      vertex 17.4194 30.1087 0
      vertex 46 46 0
      vertex 17.8228 29.9863 0
    endloop
  endfacet
  facet normal 0 0 -1
    outer loop
      vertex 0 46 0
      vertex 17.4194 30.1087 0
      vertex 17 30.15 0
    endloop
  endfacet
  facet normal 0 0 -1
    outer loop
      vertex 0 46 0
      vertex 17 30.15 0
      vertex 16.5806 30.1087 0
    endloop
  endfacet
  facet normal 0 0 -1
    outer loop
      vertex 0 46 0
      vertex 16.5806 30.1087 0
      vertex 16.1772 29.9863 0
    endloop
  endfacet
  facet normal 0 0 -1
    outer loop
      vertex 0 46 0
      vertex 16.1772 29.9863 0
      vertex 15.8055 29.7877 0
    endloop
  endfacet
  facet normal 0 0 -1
    outer loop
      vertex 14.8913 27.5806 0
      vertex 0 46 0
      vertex 14.85 28 0
    endloop
  endfacet
  facet normal 0 0 -1
    outer loop
      vertex 14.85 28 0
      vertex 0 46 0
      vertex 14.8913 28.4194 0
    endloop
  endfacet
  facet normal 0 0 -1
    outer loop
      vertex 17.4194 30.1087 0
      vertex 0 46 0
      vertex 46 46 0
    endloop
  endfacet
  facet normal 0 0 -1
    outer loop
      vertex 15.4797 29.5203 0
      vertex 0 46 0
      vertex 15.8055 29.7877 0
    endloop
  endfacet
  facet normal 0 0 -1
    outer loop
      vertex 15.2123 29.1945 0
      vertex 0 46 0
      vertex 15.4797 29.5203 0
    endloop
  endfacet
  facet normal 0 0 -1
    outer loop
      vertex 15.0137 28.8228 0
      vertex 0 46 0
      vertex 15.2123 29.1945 0
    endloop
  endfacet
  facet normal 0 0 -1
    outer loop
      vertex 14.8913 28.4194 0
      vertex 0 46 0
      vertex 15.0137 28.8228 0
    endloop
  endfacet
  facet normal -1 0 0
    outer loop
      vertex 0 0 0
      vertex 0 46 18
      vertex 0 46 0
    endloop
  endfacet
  facet normal -1 -0 0
    outer loop
      vertex 0 46 18
      vertex 0 0 0
      vertex 0 0 18
    endloop
  endfacet
  facet normal 0 1 0
    outer loop
      vertex 46 46 4
      vertex 46 46 0
      vertex 4 46 4
    endloop
  endfacet
  facet normal 0 1 -0
    outer loop
      vertex 4 46 4
      vertex 0 46 18
      vertex 4 46 18
    endloop
  endfacet
  facet normal 0 1 0
    outer loop
      vertex 4 46 4
      vertex 0 46 0
      vertex 0 46 18
    endloop
  endfacet
  facet normal 0 1 0
    outer loop
      vertex 0 46 0
      vertex 4 46 4
      vertex 46 46 0
    endloop
  endfacet
  facet normal 0 -1 0
    outer loop
      vertex 0 0 0
      vertex 46 0 18
      vertex 0 0 18
    endloop
  endfacet
  facet normal 0 -1 -0
    outer loop
      vertex 46 0 18
      vertex 0 0 0
      vertex 46 0 0
    endloop
  endfacet
  facet normal 0 0 1
    outer loop
      vertex 4 46 18
      vertex 0 46 18
      vertex 4 16 18
    endloop
  endfacet
  facet normal -0 0 1
    outer loop
      vertex 16 4 18
      vertex 46 0 18
      vertex 46 4 18
    endloop
  endfacet
  facet normal 0 0 1
    outer loop
      vertex 16 4 18
      vertex 0 0 18
      vertex 46 0 18
    endloop
  endfacet
  facet normal 0 0 1
    outer loop
      vertex 4 16 18
      vertex 0 0 18
      vertex 16 4 18
    endloop
  endfacet
  facet normal 0 0 1
    outer loop
      vertex 0 0 18
      vertex 4 16 18
      vertex 0 46 18
    endloop
  endfacet
  facet normal 0 1 -0
    outer loop
      vertex 46 4 4
      vertex 16 4 18
      vertex 46 4 18
    endloop
  endfacet
  facet normal 0 1 0
    outer loop
      vertex 16 4 18
      vertex 46 4 4
      vertex 16 4 4
    endloop
  endfacet
  facet normal 1 -0 0
    outer loop
      vertex 4 16 18
      vertex 4 46 4
      vertex 4 46 18
    endloop
  endfacet
  facet normal 1 0 0
    outer loop
      vertex 4 46 4
      vertex 4 16 18
      vertex 4 16 4
    endloop
  endfacet
  facet normal 0.707107 0.707107 0
    outer loop
      vertex 16 4 18
      vertex 4 16 4
      vertex 4 16 18
    endloop
  endfacet
  facet normal 0.707107 0.707107 0
    outer loop
      vertex 4 16 4
      vertex 16 4 18
      vertex 16 4 4
    endloop
  endfacet
  facet normal 0.098 0.995186 -0
    outer loop
      vertex 17 25.85 0
      vertex 16.5806 25.8913 4
      vertex 17 25.85 4
    endloop
  endfacet
  facet normal 0.098 0.995186 0
    outer loop
      vertex 16.5806 25.8913 4
      vertex 17 25.85 0
      vertex 16.5806 25.8913 0
    endloop
  endfacet
  facet normal -0.772984 0.634426 0
    outer loop
      vertex 18.5203 26.4797 0
      vertex 18.7877 26.8055 4
      vertex 18.7877 26.8055 0
    endloop
  endfacet
  facet normal -0.772984 0.634426 0
    outer loop
      vertex 18.7877 26.8055 4
      vertex 18.5203 26.4797 0
      vertex 18.5203 26.4797 4
    endloop
  endfacet
  facet normal -0.956921 -0.29035 0
    outer loop
      vertex 19.1087 28.4194 0
      vertex 18.9863 28.8228 4
      vertex 18.9863 28.8228 0
    endloop
  endfacet
  facet normal -0.956921 -0.29035 0
    outer loop
      vertex 18.9863 28.8228 4
      vertex 19.1087 28.4194 0
      vertex 19.1087 28.4194 4
    endloop
  endfacet
  facet normal -0.995186 -0.098 0
    outer loop
      vertex 19.15 28 0
      vertex 19.1087 28.4194 4
      vertex 19.1087 28.4194 0
    endloop
  endfacet
  facet normal -0.995186 -0.098 0
    outer loop
      vertex 19.1087 28.4194 4
      vertex 19.15 28 0
      vertex 19.15 28 4
    endloop
  endfacet
  facet normal -0.881998 -0.471253 0
    outer loop
      vertex 18.9863 28.8228 0
      vertex 18.7877 29.1945 4
      vertex 18.7877 29.1945 0
    endloop
  endfacet
  facet normal -0.881998 -0.471253 0
    outer loop
      vertex 18.7877 29.1945 4
      vertex 18.9863 28.8228 0
      vertex 18.9863 28.8228 4
    endloop
  endfacet
  facet normal 0.881998 0.471253 0
    outer loop
      vertex 15.2123 26.8055 4
      vertex 15.0137 27.1772 0
      vertex 15.0137 27.1772 4
    endloop
  endfacet
  facet normal 0.881998 0.471253 0
    outer loop
      vertex 15.0137 27.1772 0
      vertex 15.2123 26.8055 4
      vertex 15.2123 26.8055 0
    endloop
  endfacet
  facet normal -0.995186 0.098 0
    outer loop
      vertex 19.1087 27.5806 0
      vertex 19.15 28 4
      vertex 19.15 28 0
    endloop
  endfacet
  facet normal -0.995186 0.098 0
    outer loop
      vertex 19.15 28 4
      vertex 19.1087 27.5806 0
      vertex 19.1087 27.5806 4
    endloop
  endfacet
  facet normal -0.29035 0.956921 0
    outer loop
      vertex 17.8228 26.0137 0
      vertex 17.4194 25.8913 4
      vertex 17.8228 26.0137 4
    endloop
  endfacet
  facet normal -0.29035 0.956921 0
    outer loop
      vertex 17.4194 25.8913 4
      vertex 17.8228 26.0137 0
      vertex 17.4194 25.8913 0
    endloop
  endfacet
  facet normal 0.995186 0.098 0
    outer loop
      vertex 14.8913 27.5806 4
      vertex 14.85 28 0
      vertex 14.85 28 4
    endloop
  endfacet
  facet normal 0.995186 0.098 0
    outer loop
      vertex 14.85 28 0
      vertex 14.8913 27.5806 4
      vertex 14.8913 27.5806 0
    endloop
  endfacet
  facet normal -0.098 -0.995186 0
    outer loop
      vertex 17 30.15 0
      vertex 17.4194 30.1087 4
      vertex 17 30.15 4
    endloop
  endfacet
  facet normal -0.098 -0.995186 -0
    outer loop
      vertex 17.4194 30.1087 4
      vertex 17 30.15 0
      vertex 17.4194 30.1087 0
    endloop
  endfacet
  facet normal -0.956921 0.29035 0
    outer loop
      vertex 18.9863 27.1772 0
      vertex 19.1087 27.5806 4
      vertex 19.1087 27.5806 0
    endloop
  endfacet
  facet normal -0.956921 0.29035 0
    outer loop
      vertex 19.1087 27.5806 4
      vertex 18.9863 27.1772 0
      vertex 18.9863 27.1772 4
    endloop
  endfacet
  facet normal 0.29035 0.956921 -0
    outer loop
      vertex 16.5806 25.8913 0
      vertex 16.1772 26.0137 4
      vertex 16.5806 25.8913 4
    endloop
  endfacet
  facet normal 0.29035 0.956921 0
    outer loop
      vertex 16.1772 26.0137 4
      vertex 16.5806 25.8913 0
      vertex 16.1772 26.0137 0
    endloop
  endfacet
  facet normal 0.995186 -0.098 0
    outer loop
      vertex 14.85 28 4
      vertex 14.8913 28.4194 0
      vertex 14.8913 28.4194 4
    endloop
  endfacet
  facet normal 0.995186 -0.098 0
    outer loop
      vertex 14.8913 28.4194 0
      vertex 14.85 28 4
      vertex 14.85 28 0
    endloop
  endfacet
  facet normal -0.29035 -0.956921 0
    outer loop
      vertex 17.4194 30.1087 0
      vertex 17.8228 29.9863 4
      vertex 17.4194 30.1087 4
    endloop
  endfacet
  facet normal -0.29035 -0.956921 -0
    outer loop
      vertex 17.8228 29.9863 4
      vertex 17.4194 30.1087 0
      vertex 17.8228 29.9863 0
    endloop
  endfacet
  facet normal 0.098 -0.995186 0
    outer loop
      vertex 16.5806 30.1087 0
      vertex 17 30.15 4
      vertex 16.5806 30.1087 4
    endloop
  endfacet
  facet normal 0.098 -0.995186 0
    outer loop
      vertex 17 30.15 4
      vertex 16.5806 30.1087 0
      vertex 17 30.15 0
    endloop
  endfacet
  facet normal 0.956921 -0.29035 0
    outer loop
      vertex 14.8913 28.4194 4
      vertex 15.0137 28.8228 0
      vertex 15.0137 28.8228 4
    endloop
  endfacet
  facet normal 0.956921 -0.29035 0
    outer loop
      vertex 15.0137 28.8228 0
      vertex 14.8913 28.4194 4
      vertex 14.8913 28.4194 0
    endloop
  endfacet
  facet normal 0.634426 -0.772984 0
    outer loop
      vertex 15.4797 29.5203 0
      vertex 15.8055 29.7877 4
      vertex 15.4797 29.5203 4
    endloop
  endfacet
  facet normal 0.634426 -0.772984 0
    outer loop
      vertex 15.8055 29.7877 4
      vertex 15.4797 29.5203 0
      vertex 15.8055 29.7877 0
    endloop
  endfacet
  facet normal -0.772984 -0.634426 0
    outer loop
      vertex 18.7877 29.1945 0
      vertex 18.5203 29.5203 4
      vertex 18.5203 29.5203 0
    endloop
  endfacet
  facet normal -0.772984 -0.634426 0
    outer loop
      vertex 18.5203 29.5203 4
      vertex 18.7877 29.1945 0
      vertex 18.7877 29.1945 4
    endloop
  endfacet
  facet normal 0.471253 -0.881998 0
    outer loop
      vertex 15.8055 29.7877 0
      vertex 16.1772 29.9863 4
      vertex 15.8055 29.7877 4
    endloop
  endfacet
  facet normal 0.471253 -0.881998 0
    outer loop
      vertex 16.1772 29.9863 4
      vertex 15.8055 29.7877 0
      vertex 16.1772 29.9863 0
    endloop
  endfacet
  facet normal -0.471253 0.881998 0
    outer loop
      vertex 18.1945 26.2123 0
      vertex 17.8228 26.0137 4
      vertex 18.1945 26.2123 4
    endloop
  endfacet
  facet normal -0.471253 0.881998 0
    outer loop
      vertex 17.8228 26.0137 4
      vertex 18.1945 26.2123 0
      vertex 17.8228 26.0137 0
    endloop
  endfacet
  facet normal -0.881998 0.471253 0
    outer loop
      vertex 18.7877 26.8055 0
      vertex 18.9863 27.1772 4
      vertex 18.9863 27.1772 0
    endloop
  endfacet
  facet normal -0.881998 0.471253 0
    outer loop
      vertex 18.9863 27.1772 4
      vertex 18.7877 26.8055 0
      vertex 18.7877 26.8055 4
    endloop
  endfacet
  facet normal -0.634426 -0.772984 0
    outer loop
      vertex 18.1945 29.7877 0
      vertex 18.5203 29.5203 4
      vertex 18.1945 29.7877 4
    endloop
  endfacet
  facet normal -0.634426 -0.772984 -0
    outer loop
      vertex 18.5203 29.5203 4
      vertex 18.1945 29.7877 0
      vertex 18.5203 29.5203 0
    endloop
  endfacet
  facet normal -0.634426 0.772984 0
    outer loop
      vertex 18.5203 26.4797 0
      vertex 18.1945 26.2123 4
      vertex 18.5203 26.4797 4
    endloop
  endfacet
  facet normal -0.634426 0.772984 0
    outer loop
      vertex 18.1945 26.2123 4
      vertex 18.5203 26.4797 0
      vertex 18.1945 26.2123 0
    endloop
  endfacet
  facet normal -0.471253 -0.881998 0
    outer loop
      vertex 17.8228 29.9863 0
      vertex 18.1945 29.7877 4
      vertex 17.8228 29.9863 4
    endloop
  endfacet
  facet normal -0.471253 -0.881998 -0
    outer loop
      vertex 18.1945 29.7877 4
      vertex 17.8228 29.9863 0
      vertex 18.1945 29.7877 0
    endloop
  endfacet
  facet normal 0.29035 -0.956921 0
    outer loop
      vertex 16.1772 29.9863 0
      vertex 16.5806 30.1087 4
      vertex 16.1772 29.9863 4
    endloop
  endfacet
  facet normal 0.29035 -0.956921 0
    outer loop
      vertex 16.5806 30.1087 4
      vertex 16.1772 29.9863 0
      vertex 16.5806 30.1087 0
    endloop
  endfacet
  facet normal -0.098 0.995186 0
    outer loop
      vertex 17.4194 25.8913 0
      vertex 17 25.85 4
      vertex 17.4194 25.8913 4
    endloop
  endfacet
  facet normal -0.098 0.995186 0
    outer loop
      vertex 17 25.85 4
      vertex 17.4194 25.8913 0
      vertex 17 25.85 0
    endloop
  endfacet
  facet normal 0.956921 0.29035 0
    outer loop
      vertex 15.0137 27.1772 4
      vertex 14.8913 27.5806 0
      vertex 14.8913 27.5806 4
    endloop
  endfacet
  facet normal 0.956921 0.29035 0
    outer loop
      vertex 14.8913 27.5806 0
      vertex 15.0137 27.1772 4
      vertex 15.0137 27.1772 0
    endloop
  endfacet
  facet normal 0.772984 -0.634426 0
    outer loop
      vertex 15.2123 29.1945 4
      vertex 15.4797 29.5203 0
      vertex 15.4797 29.5203 4
    endloop
  endfacet
  facet normal 0.772984 -0.634426 0
    outer loop
      vertex 15.4797 29.5203 0
      vertex 15.2123 29.1945 4
      vertex 15.2123 29.1945 0
    endloop
  endfacet
  facet normal 0.772984 0.634426 0
    outer loop
      vertex 15.4797 26.4797 4
      vertex 15.2123 26.8055 0
      vertex 15.2123 26.8055 4
    endloop
  endfacet
  facet normal 0.772984 0.634426 0
    outer loop
      vertex 15.2123 26.8055 0
      vertex 15.4797 26.4797 4
      vertex 15.4797 26.4797 0
    endloop
  endfacet
  facet normal 0.634426 0.772984 -0
    outer loop
      vertex 15.8055 26.2123 0
      vertex 15.4797 26.4797 4
      vertex 15.8055 26.2123 4
    endloop
  endfacet
  facet normal 0.634426 0.772984 0
    outer loop
      vertex 15.4797 26.4797 4
      vertex 15.8055 26.2123 0
      vertex 15.4797 26.4797 0
    endloop
  endfacet
  facet normal 0.471253 0.881998 -0
    outer loop
      vertex 16.1772 26.0137 0
      vertex 15.8055 26.2123 4
      vertex 16.1772 26.0137 4
    endloop
  endfacet
  facet normal 0.471253 0.881998 0
    outer loop
      vertex 15.8055 26.2123 4
      vertex 16.1772 26.0137 0
      vertex 15.8055 26.2123 0
    endloop
  endfacet
  facet normal 0.881998 -0.471253 0
    outer loop
      vertex 15.0137 28.8228 4
      vertex 15.2123 29.1945 0
      vertex 15.2123 29.1945 4
    endloop
  endfacet
  facet normal 0.881998 -0.471253 0
    outer loop
      vertex 15.2123 29.1945 0
      vertex 15.0137 28.8228 4
      vertex 15.0137 28.8228 0
    endloop
  endfacet
  facet normal 0.098 0.995186 -0
    outer loop
      vertex 28 14.85 0
      vertex 27.5806 14.8913 4
      vertex 28 14.85 4
    endloop
  endfacet
  facet normal 0.098 0.995186 0
    outer loop
      vertex 27.5806 14.8913 4
      vertex 28 14.85 0
      vertex 27.5806 14.8913 0
    endloop
  endfacet
  facet normal -0.772984 0.634426 0
    outer loop
      vertex 29.5203 15.4797 0
      vertex 29.7877 15.8055 4
      vertex 29.7877 15.8055 0
    endloop
  endfacet
  facet normal -0.772984 0.634426 0
    outer loop
      vertex 29.7877 15.8055 4
      vertex 29.5203 15.4797 0
      vertex 29.5203 15.4797 4
    endloop
  endfacet
  facet normal -0.956921 -0.29035 0
    outer loop
      vertex 30.1087 17.4194 0
      vertex 29.9863 17.8228 4
      vertex 29.9863 17.8228 0
    endloop
  endfacet
  facet normal -0.956921 -0.29035 0
    outer loop
      vertex 29.9863 17.8228 4
      vertex 30.1087 17.4194 0
      vertex 30.1087 17.4194 4
    endloop
  endfacet
  facet normal -0.995186 -0.098 0
    outer loop
      vertex 30.15 17 0
      vertex 30.1087 17.4194 4
      vertex 30.1087 17.4194 0
    endloop
  endfacet
  facet normal -0.995186 -0.098 0
    outer loop
      vertex 30.1087 17.4194 4
      vertex 30.15 17 0
      vertex 30.15 17 4
    endloop
  endfacet
  facet normal -0.881998 -0.471253 0
    outer loop
      vertex 29.9863 17.8228 0
      vertex 29.7877 18.1945 4
      vertex 29.7877 18.1945 0
    endloop
  endfacet
  facet normal -0.881998 -0.471253 0
    outer loop
      vertex 29.7877 18.1945 4
      vertex 29.9863 17.8228 0
      vertex 29.9863 17.8228 4
    endloop
  endfacet
  facet normal 0.881998 0.471253 0
    outer loop
      vertex 26.2123 15.8055 4
      vertex 26.0137 16.1772 0
      vertex 26.0137 16.1772 4
    endloop
  endfacet
  facet normal 0.881998 0.471253 0
    outer loop
      vertex 26.0137 16.1772 0
      vertex 26.2123 15.8055 4
      vertex 26.2123 15.8055 0
    endloop
  endfacet
  facet normal -0.995186 0.098 0
    outer loop
      vertex 30.1087 16.5806 0
      vertex 30.15 17 4
      vertex 30.15 17 0
    endloop
  endfacet
  facet normal -0.995186 0.098 0
    outer loop
      vertex 30.15 17 4
      vertex 30.1087 16.5806 0
      vertex 30.1087 16.5806 4
    endloop
  endfacet
  facet normal -0.29035 0.956921 0
    outer loop
      vertex 28.8228 15.0137 0
      vertex 28.4194 14.8913 4
      vertex 28.8228 15.0137 4
    endloop
  endfacet
  facet normal -0.29035 0.956921 0
    outer loop
      vertex 28.4194 14.8913 4
      vertex 28.8228 15.0137 0
      vertex 28.4194 14.8913 0
    endloop
  endfacet
  facet normal 0.995186 0.098 0
    outer loop
      vertex 25.8913 16.5806 4
      vertex 25.85 17 0
      vertex 25.85 17 4
    endloop
  endfacet
  facet normal 0.995186 0.098 0
    outer loop
      vertex 25.85 17 0
      vertex 25.8913 16.5806 4
      vertex 25.8913 16.5806 0
    endloop
  endfacet
  facet normal -0.098 -0.995186 0
    outer loop
      vertex 28 19.15 0
      vertex 28.4194 19.1087 4
      vertex 28 19.15 4
    endloop
  endfacet
  facet normal -0.098 -0.995186 -0
    outer loop
      vertex 28.4194 19.1087 4
      vertex 28 19.15 0
      vertex 28.4194 19.1087 0
    endloop
  endfacet
  facet normal -0.956921 0.29035 0
    outer loop
      vertex 29.9863 16.1772 0
      vertex 30.1087 16.5806 4
      vertex 30.1087 16.5806 0
    endloop
  endfacet
  facet normal -0.956921 0.29035 0
    outer loop
      vertex 30.1087 16.5806 4
      vertex 29.9863 16.1772 0
      vertex 29.9863 16.1772 4
    endloop
  endfacet
  facet normal 0.29035 0.956921 -0
    outer loop
      vertex 27.5806 14.8913 0
      vertex 27.1772 15.0137 4
      vertex 27.5806 14.8913 4
    endloop
  endfacet
  facet normal 0.29035 0.956921 0
    outer loop
      vertex 27.1772 15.0137 4
      vertex 27.5806 14.8913 0
      vertex 27.1772 15.0137 0
    endloop
  endfacet
  facet normal 0.995186 -0.098 0
    outer loop
      vertex 25.85 17 4
      vertex 25.8913 17.4194 0
      vertex 25.8913 17.4194 4
    endloop
  endfacet
  facet normal 0.995186 -0.098 0
    outer loop
      vertex 25.8913 17.4194 0
      vertex 25.85 17 4
      vertex 25.85 17 0
    endloop
  endfacet
  facet normal -0.471253 -0.881998 0
    outer loop
      vertex 28.8228 18.9863 0
      vertex 29.1945 18.7877 4
      vertex 28.8228 18.9863 4
    endloop
  endfacet
  facet normal -0.471253 -0.881998 -0
    outer loop
      vertex 29.1945 18.7877 4
      vertex 28.8228 18.9863 0
      vertex 29.1945 18.7877 0
    endloop
  endfacet
  facet normal -0.29035 -0.956921 0
    outer loop
      vertex 28.4194 19.1087 0
      vertex 28.8228 18.9863 4
      vertex 28.4194 19.1087 4
    endloop
  endfacet
  facet normal -0.29035 -0.956921 -0
    outer loop
      vertex 28.8228 18.9863 4
      vertex 28.4194 19.1087 0
      vertex 28.8228 18.9863 0
    endloop
  endfacet
  facet normal 0.098 -0.995186 0
    outer loop
      vertex 27.5806 19.1087 0
      vertex 28 19.15 4
      vertex 27.5806 19.1087 4
    endloop
  endfacet
  facet normal 0.098 -0.995186 0
    outer loop
      vertex 28 19.15 4
      vertex 27.5806 19.1087 0
      vertex 28 19.15 0
    endloop
  endfacet
  facet normal 0.956921 -0.29035 0
    outer loop
      vertex 25.8913 17.4194 4
      vertex 26.0137 17.8228 0
      vertex 26.0137 17.8228 4
    endloop
  endfacet
  facet normal 0.956921 -0.29035 0
    outer loop
      vertex 26.0137 17.8228 0
      vertex 25.8913 17.4194 4
      vertex 25.8913 17.4194 0
    endloop
  endfacet
  facet normal 0.634426 -0.772984 0
    outer loop
      vertex 26.4797 18.5203 0
      vertex 26.8055 18.7877 4
      vertex 26.4797 18.5203 4
    endloop
  endfacet
  facet normal 0.634426 -0.772984 0
    outer loop
      vertex 26.8055 18.7877 4
      vertex 26.4797 18.5203 0
      vertex 26.8055 18.7877 0
    endloop
  endfacet
  facet normal -0.772984 -0.634426 0
    outer loop
      vertex 29.7877 18.1945 0
      vertex 29.5203 18.5203 4
      vertex 29.5203 18.5203 0
    endloop
  endfacet
  facet normal -0.772984 -0.634426 0
    outer loop
      vertex 29.5203 18.5203 4
      vertex 29.7877 18.1945 0
      vertex 29.7877 18.1945 4
    endloop
  endfacet
  facet normal 0.471253 -0.881998 0
    outer loop
      vertex 26.8055 18.7877 0
      vertex 27.1772 18.9863 4
      vertex 26.8055 18.7877 4
    endloop
  endfacet
  facet normal 0.471253 -0.881998 0
    outer loop
      vertex 27.1772 18.9863 4
      vertex 26.8055 18.7877 0
      vertex 27.1772 18.9863 0
    endloop
  endfacet
  facet normal -0.471253 0.881998 0
    outer loop
      vertex 29.1945 15.2123 0
      vertex 28.8228 15.0137 4
      vertex 29.1945 15.2123 4
    endloop
  endfacet
  facet normal -0.471253 0.881998 0
    outer loop
      vertex 28.8228 15.0137 4
      vertex 29.1945 15.2123 0
      vertex 28.8228 15.0137 0
    endloop
  endfacet
  facet normal -0.881998 0.471253 0
    outer loop
      vertex 29.7877 15.8055 0
      vertex 29.9863 16.1772 4
      vertex 29.9863 16.1772 0
    endloop
  endfacet
  facet normal -0.881998 0.471253 0
    outer loop
      vertex 29.9863 16.1772 4
      vertex 29.7877 15.8055 0
      vertex 29.7877 15.8055 4
    endloop
  endfacet
  facet normal -0.634426 -0.772984 0
    outer loop
      vertex 29.1945 18.7877 0
      vertex 29.5203 18.5203 4
      vertex 29.1945 18.7877 4
    endloop
  endfacet
  facet normal -0.634426 -0.772984 -0
    outer loop
      vertex 29.5203 18.5203 4
      vertex 29.1945 18.7877 0
      vertex 29.5203 18.5203 0
    endloop
  endfacet
  facet normal -0.634426 0.772984 0
    outer loop
      vertex 29.5203 15.4797 0
      vertex 29.1945 15.2123 4
      vertex 29.5203 15.4797 4
    endloop
  endfacet
  facet normal -0.634426 0.772984 0
    outer loop
      vertex 29.1945 15.2123 4
      vertex 29.5203 15.4797 0
      vertex 29.1945 15.2123 0
    endloop
  endfacet
  facet normal 0.29035 -0.956921 0
    outer loop
      vertex 27.1772 18.9863 0
      vertex 27.5806 19.1087 4
      vertex 27.1772 18.9863 4
    endloop
  endfacet
  facet normal 0.29035 -0.956921 0
    outer loop
      vertex 27.5806 19.1087 4
      vertex 27.1772 18.9863 0
      vertex 27.5806 19.1087 0
    endloop
  endfacet
  facet normal -0.098 0.995186 0
    outer loop
      vertex 28.4194 14.8913 0
      vertex 28 14.85 4
      vertex 28.4194 14.8913 4
    endloop
  endfacet
  facet normal -0.098 0.995186 0
    outer loop
      vertex 28 14.85 4
      vertex 28.4194 14.8913 0
      vertex 28 14.85 0
    endloop
  endfacet
  facet normal 0.956921 0.29035 0
    outer loop
      vertex 26.0137 16.1772 4
      vertex 25.8913 16.5806 0
      vertex 25.8913 16.5806 4
    endloop
  endfacet
  facet normal 0.956921 0.29035 0
    outer loop
      vertex 25.8913 16.5806 0
      vertex 26.0137 16.1772 4
      vertex 26.0137 16.1772 0
    endloop
  endfacet
  facet normal 0.772984 -0.634426 0
    outer loop
      vertex 26.2123 18.1945 4
      vertex 26.4797 18.5203 0
      vertex 26.4797 18.5203 4
    endloop
  endfacet
  facet normal 0.772984 -0.634426 0
    outer loop
      vertex 26.4797 18.5203 0
      vertex 26.2123 18.1945 4
      vertex 26.2123 18.1945 0
    endloop
  endfacet
  facet normal 0.772984 0.634426 0
    outer loop
      vertex 26.4797 15.4797 4
      vertex 26.2123 15.8055 0
      vertex 26.2123 15.8055 4
    endloop
  endfacet
  facet normal 0.772984 0.634426 0
    outer loop
      vertex 26.2123 15.8055 0
      vertex 26.4797 15.4797 4
      vertex 26.4797 15.4797 0
    endloop
  endfacet
  facet normal 0.634426 0.772984 -0
    outer loop
      vertex 26.8055 15.2123 0
      vertex 26.4797 15.4797 4
      vertex 26.8055 15.2123 4
    endloop
  endfacet
  facet normal 0.634426 0.772984 0
    outer loop
      vertex 26.4797 15.4797 4
      vertex 26.8055 15.2123 0
      vertex 26.4797 15.4797 0
    endloop
  endfacet
  facet normal 0.471253 0.881998 -0
    outer loop
      vertex 27.1772 15.0137 0
      vertex 26.8055 15.2123 4
      vertex 27.1772 15.0137 4
    endloop
  endfacet
  facet normal 0.471253 0.881998 0
    outer loop
      vertex 26.8055 15.2123 4
      vertex 27.1772 15.0137 0
      vertex 26.8055 15.2123 0
    endloop
  endfacet
  facet normal 0.881998 -0.471253 0
    outer loop
      vertex 26.0137 17.8228 4
      vertex 26.2123 18.1945 0
      vertex 26.2123 18.1945 4
    endloop
  endfacet
  facet normal 0.881998 -0.471253 0
    outer loop
      vertex 26.2123 18.1945 0
      vertex 26.0137 17.8228 4
      vertex 26.0137 17.8228 0
    endloop
  endfacet
endsolid OpenSCAD_Model
