solid OpenSCAD_Model
  facet normal -1 0 0
    outer loop
      vertex 4 10.5 0
      vertex 4 29.5 3
      vertex 4 29.5 0
    endloop
  endfacet
  facet normal -1 -0 0
    outer loop
      vertex 4 29.5 3
      vertex 4 10.5 0
      vertex 4 10.5 3
    endloop
  endfacet
  facet normal -0.997858 0.0654128 0
    outer loop
      vertex 4 29.5 0
      vertex 4.02139 29.8263 3
      vertex 4.02139 29.8263 0
    endloop
  endfacet
  facet normal -0.997858 0.0654128 0
    outer loop
      vertex 4.02139 29.8263 3
      vertex 4 29.5 0
      vertex 4 29.5 3
    endloop
  endfacet
  facet normal -0.195099 -0.980784 0
    outer loop
      vertex 5.85295 8.08519 0
      vertex 6.17368 8.02139 3
      vertex 5.85295 8.08519 3
    endloop
  endfacet
  facet normal -0.195099 -0.980784 -0
    outer loop
      vertex 6.17368 8.02139 3
      vertex 5.85295 8.08519 0
      vertex 6.17368 8.02139 0
    endloop
  endfacet
  facet normal 0.44229 -0.896872 0
    outer loop
      vertex 30.4567 8.1903 0
      vertex 30.75 8.33494 3
      vertex 30.4567 8.1903 3
    endloop
  endfacet
  facet normal 0.44229 -0.896872 0
    outer loop
      vertex 30.75 8.33494 3
      vertex 30.4567 8.1903 0
      vertex 30.75 8.33494 0
    endloop
  endfacet
  facet normal -0.555575 -0.831466 0
    outer loop
      vertex 4.9781 8.51662 0
      vertex 5.25 8.33494 3
      vertex 4.9781 8.51662 3
    endloop
  endfacet
  facet normal -0.555575 -0.831466 -0
    outer loop
      vertex 5.25 8.33494 3
      vertex 4.9781 8.51662 0
      vertex 5.25 8.33494 0
    endloop
  endfacet
  facet normal -0.751898 0.659279 0
    outer loop
      vertex 4.51662 31.0219 0
      vertex 4.73223 31.2678 3
      vertex 4.73223 31.2678 0
    endloop
  endfacet
  facet normal -0.751898 0.659279 0
    outer loop
      vertex 4.73223 31.2678 3
      vertex 4.51662 31.0219 0
      vertex 4.51662 31.0219 3
    endloop
  endfacet
  facet normal -0.831466 0.555575 0
    outer loop
      vertex 4.33494 30.75 0
      vertex 4.51662 31.0219 3
      vertex 4.51662 31.0219 0
    endloop
  endfacet
  facet normal -0.831466 0.555575 0
    outer loop
      vertex 4.51662 31.0219 3
      vertex 4.33494 30.75 0
      vertex 4.33494 30.75 3
    endloop
  endfacet
  facet normal -0.997858 -0.0654128 0
    outer loop
      vertex 4.02139 10.1737 0
      vertex 4 10.5 3
      vertex 4 10.5 0
    endloop
  endfacet
  facet normal -0.997858 -0.0654128 0
    outer loop
      vertex 4 10.5 3
      vertex 4.02139 10.1737 0
      vertex 4.02139 10.1737 3
    endloop
  endfacet
  facet normal -0.442302 -0.896866 0
    outer loop
      vertex 5.25 8.33494 0
      vertex 5.54329 8.1903 3
      vertex 5.25 8.33494 3
    endloop
  endfacet
  facet normal -0.442302 -0.896866 -0
    outer loop
      vertex 5.54329 8.1903 3
      vertex 5.25 8.33494 0
      vertex 5.54329 8.1903 0
    endloop
  endfacet
  facet normal -0.0654088 -0.997859 0
    outer loop
      vertex 6.17368 8.02139 0
      vertex 6.5 8 3
      vertex 6.17368 8.02139 3
    endloop
  endfacet
  facet normal -0.0654088 -0.997859 -0
    outer loop
      vertex 6.5 8 3
      vertex 6.17368 8.02139 0
      vertex 6.5 8 0
    endloop
  endfacet
  facet normal 0.946944 -0.321397 0
    outer loop
      vertex 31.8097 9.54329 3
      vertex 31.9148 9.85295 0
      vertex 31.9148 9.85295 3
    endloop
  endfacet
  facet normal 0.946944 -0.321397 0
    outer loop
      vertex 31.9148 9.85295 0
      vertex 31.8097 9.54329 3
      vertex 31.8097 9.54329 0
    endloop
  endfacet
  facet normal 1 0 0
    outer loop
      vertex 32 29.5 3
      vertex 32 26 2.1
      vertex 32 29.5 0
    endloop
  endfacet
  facet normal 1 0 0
    outer loop
      vertex 32 29.5 3
      vertex 32 14 2.1
      vertex 32 26 2.1
    endloop
  endfacet
  facet normal 1 0 0
    outer loop
      vertex 32 14 2.1
      vertex 32 10.5 3
      vertex 32 14 0.9
    endloop
  endfacet
  facet normal 1 -0 0
    outer loop
      vertex 32 10.5 3
      vertex 32 14 2.1
      vertex 32 29.5 3
    endloop
  endfacet
  facet normal 1 -0 0
    outer loop
      vertex 32 26 0.9
      vertex 32 29.5 0
      vertex 32 26 2.1
    endloop
  endfacet
  facet normal 1 -0 0
    outer loop
      vertex 32 14 0.9
      vertex 32 29.5 0
      vertex 32 26 0.9
    endloop
  endfacet
  facet normal 1 0 0
    outer loop
      vertex 32 14 0.9
      vertex 32 10.5 0
      vertex 32 29.5 0
    endloop
  endfacet
  facet normal 1 0 0
    outer loop
      vertex 32 10.5 0
      vertex 32 14 0.9
      vertex 32 10.5 3
    endloop
  endfacet
  facet normal 0.831438 -0.555617 0
    outer loop
      vertex 31.4834 8.9781 3
      vertex 31.6651 9.25 0
      vertex 31.6651 9.25 3
    endloop
  endfacet
  facet normal 0.831438 -0.555617 0
    outer loop
      vertex 31.6651 9.25 0
      vertex 31.4834 8.9781 3
      vertex 31.4834 8.9781 0
    endloop
  endfacet
  facet normal -0.442204 0.896915 0
    outer loop
      vertex 5.54329 31.8097 0
      vertex 5.25 31.6651 3
      vertex 5.54329 31.8097 3
    endloop
  endfacet
  facet normal -0.442204 0.896915 0
    outer loop
      vertex 5.25 31.6651 3
      vertex 5.54329 31.8097 0
      vertex 5.25 31.6651 0
    endloop
  endfacet
  facet normal 0 1 -0
    outer loop
      vertex 29.5 32 0
      vertex 6.5 32 3
      vertex 29.5 32 3
    endloop
  endfacet
  facet normal 0 1 0
    outer loop
      vertex 6.5 32 3
      vertex 29.5 32 0
      vertex 6.5 32 0
    endloop
  endfacet
  facet normal 0 -1 0
    outer loop
      vertex 6.5 8 0
      vertex 29.5 8 3
      vertex 6.5 8 3
    endloop
  endfacet
  facet normal 0 -1 -0
    outer loop
      vertex 29.5 8 3
      vertex 6.5 8 0
      vertex 29.5 8 0
    endloop
  endfacet
  facet normal -0.831466 -0.555575 0
    outer loop
      vertex 4.51662 8.9781 0
      vertex 4.33494 9.25 3
      vertex 4.33494 9.25 0
    endloop
  endfacet
  facet normal -0.831466 -0.555575 0
    outer loop
      vertex 4.33494 9.25 3
      vertex 4.51662 8.9781 0
      vertex 4.51662 8.9781 3
    endloop
  endfacet
  facet normal -0.195099 0.980784 0
    outer loop
      vertex 6.17368 31.9786 0
      vertex 5.85295 31.9148 3
      vertex 6.17368 31.9786 3
    endloop
  endfacet
  facet normal -0.195099 0.980784 0
    outer loop
      vertex 5.85295 31.9148 3
      vertex 6.17368 31.9786 0
      vertex 5.85295 31.9148 0
    endloop
  endfacet
  facet normal 0.321387 -0.946948 0
    outer loop
      vertex 30.147 8.08519 0
      vertex 30.4567 8.1903 3
      vertex 30.147 8.08519 3
    endloop
  endfacet
  facet normal 0.321387 -0.946948 0
    outer loop
      vertex 30.4567 8.1903 3
      vertex 30.147 8.08519 0
      vertex 30.4567 8.1903 0
    endloop
  endfacet
  facet normal 0.997856 0.0654432 0
    outer loop
      vertex 32 29.5 3
      vertex 31.9786 29.8263 0
      vertex 31.9786 29.8263 3
    endloop
  endfacet
  facet normal 0.997856 0.0654432 0
    outer loop
      vertex 31.9786 29.8263 0
      vertex 32 29.5 3
      vertex 32 29.5 0
    endloop
  endfacet
  facet normal 0.0654432 0.997856 -0
    outer loop
      vertex 29.8263 31.9786 0
      vertex 29.5 32 3
      vertex 29.8263 31.9786 3
    endloop
  endfacet
  facet normal 0.0654432 0.997856 0
    outer loop
      vertex 29.5 32 3
      vertex 29.8263 31.9786 0
      vertex 29.5 32 0
    endloop
  endfacet
  facet normal -0.946948 0.321387 0
    outer loop
      vertex 4.08519 30.147 0
      vertex 4.1903 30.4567 3
      vertex 4.1903 30.4567 0
    endloop
  endfacet
  facet normal -0.946948 0.321387 0
    outer loop
      vertex 4.1903 30.4567 3
      vertex 4.08519 30.147 0
      vertex 4.08519 30.147 3
    endloop
  endfacet
  facet normal 0.980786 -0.195087 0
    outer loop
      vertex 31.9148 9.85295 3
      vertex 31.9786 10.1737 0
      vertex 31.9786 10.1737 3
    endloop
  endfacet
  facet normal 0.980786 -0.195087 0
    outer loop
      vertex 31.9786 10.1737 0
      vertex 31.9148 9.85295 3
      vertex 31.9148 9.85295 0
    endloop
  endfacet
  facet normal -0.980786 -0.195087 0
    outer loop
      vertex 4.08519 9.85295 0
      vertex 4.02139 10.1737 3
      vertex 4.02139 10.1737 0
    endloop
  endfacet
  facet normal -0.980786 -0.195087 0
    outer loop
      vertex 4.02139 10.1737 3
      vertex 4.08519 9.85295 0
      vertex 4.08519 9.85295 3
    endloop
  endfacet
  facet normal -0.659325 -0.751858 0
    outer loop
      vertex 4.73223 8.73223 0
      vertex 4.9781 8.51662 3
      vertex 4.73223 8.73223 3
    endloop
  endfacet
  facet normal -0.659325 -0.751858 -0
    outer loop
      vertex 4.9781 8.51662 3
      vertex 4.73223 8.73223 0
      vertex 4.9781 8.51662 0
    endloop
  endfacet
  facet normal -0.896872 0.44229 0
    outer loop
      vertex 4.1903 30.4567 0
      vertex 4.33494 30.75 3
      vertex 4.33494 30.75 0
    endloop
  endfacet
  facet normal -0.896872 0.44229 0
    outer loop
      vertex 4.33494 30.75 3
      vertex 4.1903 30.4567 0
      vertex 4.1903 30.4567 3
    endloop
  endfacet
  facet normal -0.659307 0.751873 0
    outer loop
      vertex 4.9781 31.4834 0
      vertex 4.73223 31.2678 3
      vertex 4.9781 31.4834 3
    endloop
  endfacet
  facet normal -0.659307 0.751873 0
    outer loop
      vertex 4.73223 31.2678 3
      vertex 4.9781 31.4834 0
      vertex 4.73223 31.2678 0
    endloop
  endfacet
  facet normal 0.555575 -0.831466 0
    outer loop
      vertex 30.75 8.33494 0
      vertex 31.0219 8.51662 3
      vertex 30.75 8.33494 3
    endloop
  endfacet
  facet normal 0.555575 -0.831466 0
    outer loop
      vertex 31.0219 8.51662 3
      vertex 30.75 8.33494 0
      vertex 31.0219 8.51662 0
    endloop
  endfacet
  facet normal -0.751858 -0.659325 0
    outer loop
      vertex 4.73223 8.73223 0
      vertex 4.51662 8.9781 3
      vertex 4.51662 8.9781 0
    endloop
  endfacet
  facet normal -0.751858 -0.659325 0
    outer loop
      vertex 4.51662 8.9781 3
      vertex 4.73223 8.73223 0
      vertex 4.73223 8.73223 3
    endloop
  endfacet
  facet normal 0.896921 0.442191 0
    outer loop
      vertex 31.8097 30.4567 3
      vertex 31.6651 30.75 0
      vertex 31.6651 30.75 3
    endloop
  endfacet
  facet normal 0.896921 0.442191 0
    outer loop
      vertex 31.6651 30.75 0
      vertex 31.8097 30.4567 3
      vertex 31.8097 30.4567 0
    endloop
  endfacet
  facet normal 0.751873 -0.659307 0
    outer loop
      vertex 31.2678 8.73223 3
      vertex 31.4834 8.9781 0
      vertex 31.4834 8.9781 3
    endloop
  endfacet
  facet normal 0.751873 -0.659307 0
    outer loop
      vertex 31.4834 8.9781 0
      vertex 31.2678 8.73223 3
      vertex 31.2678 8.73223 0
    endloop
  endfacet
  facet normal -0.98078 0.195116 0
    outer loop
      vertex 4.02139 29.8263 0
      vertex 4.08519 30.147 3
      vertex 4.08519 30.147 0
    endloop
  endfacet
  facet normal -0.98078 0.195116 0
    outer loop
      vertex 4.08519 30.147 3
      vertex 4.02139 29.8263 0
      vertex 4.02139 29.8263 3
    endloop
  endfacet
  facet normal -0.321425 -0.946935 0
    outer loop
      vertex 5.54329 8.1903 0
      vertex 5.85295 8.08519 3
      vertex 5.54329 8.1903 3
    endloop
  endfacet
  facet normal -0.321425 -0.946935 -0
    outer loop
      vertex 5.85295 8.08519 3
      vertex 5.54329 8.1903 0
      vertex 5.85295 8.08519 0
    endloop
  endfacet
  facet normal 0.896915 -0.442204 0
    outer loop
      vertex 31.6651 9.25 3
      vertex 31.8097 9.54329 0
      vertex 31.8097 9.54329 3
    endloop
  endfacet
  facet normal 0.896915 -0.442204 0
    outer loop
      vertex 31.8097 9.54329 0
      vertex 31.6651 9.25 3
      vertex 31.6651 9.25 0
    endloop
  endfacet
  facet normal -0.0654392 0.997857 0
    outer loop
      vertex 6.5 32 0
      vertex 6.17368 31.9786 3
      vertex 6.5 32 3
    endloop
  endfacet
  facet normal -0.0654392 0.997857 0
    outer loop
      vertex 6.17368 31.9786 3
      vertex 6.5 32 0
      vertex 6.17368 31.9786 0
    endloop
  endfacet
  facet normal -0.896866 -0.442302 0
    outer loop
      vertex 4.33494 9.25 0
      vertex 4.1903 9.54329 3
      vertex 4.1903 9.54329 0
    endloop
  endfacet
  facet normal -0.896866 -0.442302 0
    outer loop
      vertex 4.1903 9.54329 3
      vertex 4.33494 9.25 0
      vertex 4.33494 9.25 3
    endloop
  endfacet
  facet normal -0.555617 0.831438 0
    outer loop
      vertex 5.25 31.6651 0
      vertex 4.9781 31.4834 3
      vertex 5.25 31.6651 3
    endloop
  endfacet
  facet normal -0.555617 0.831438 0
    outer loop
      vertex 4.9781 31.4834 3
      vertex 5.25 31.6651 0
      vertex 4.9781 31.4834 0
    endloop
  endfacet
  facet normal 0.32136 0.946957 -0
    outer loop
      vertex 30.4567 31.8097 0
      vertex 30.147 31.9148 3
      vertex 30.4567 31.8097 3
    endloop
  endfacet
  facet normal 0.32136 0.946957 0
    outer loop
      vertex 30.147 31.9148 3
      vertex 30.4567 31.8097 0
      vertex 30.147 31.9148 0
    endloop
  endfacet
  facet normal 0.751913 0.659262 0
    outer loop
      vertex 31.4834 31.0219 3
      vertex 31.2678 31.2678 0
      vertex 31.2678 31.2678 3
    endloop
  endfacet
  facet normal 0.751913 0.659262 0
    outer loop
      vertex 31.2678 31.2678 0
      vertex 31.4834 31.0219 3
      vertex 31.4834 31.0219 0
    endloop
  endfacet
  facet normal -0.946935 -0.321425 0
    outer loop
      vertex 4.1903 9.54329 0
      vertex 4.08519 9.85295 3
      vertex 4.08519 9.85295 0
    endloop
  endfacet
  facet normal -0.946935 -0.321425 0
    outer loop
      vertex 4.08519 9.85295 3
      vertex 4.1903 9.54329 0
      vertex 4.1903 9.54329 3
    endloop
  endfacet
  facet normal 0 0 1
    outer loop
      vertex 29.5 32 3
      vertex 32 29.5 3
      vertex 31.9786 29.8263 3
    endloop
  endfacet
  facet normal 0 0 1
    outer loop
      vertex 32 29.5 3
      vertex 29.5 32 3
      vertex 32 10.5 3
    endloop
  endfacet
  facet normal 0 0 1
    outer loop
      vertex 29.5 32 3
      vertex 31.9786 29.8263 3
      vertex 31.9148 30.147 3
    endloop
  endfacet
  facet normal 0 0 1
    outer loop
      vertex 29.5 8 3
      vertex 32 10.5 3
      vertex 29.5 32 3
    endloop
  endfacet
  facet normal 0 0 1
    outer loop
      vertex 29.5 32 3
      vertex 31.9148 30.147 3
      vertex 31.8097 30.4567 3
    endloop
  endfacet
  facet normal 0 0 1
    outer loop
      vertex 32 10.5 3
      vertex 29.5 8 3
      vertex 31.9786 10.1737 3
    endloop
  endfacet
  facet normal 0 0 1
    outer loop
      vertex 29.5 32 3
      vertex 31.8097 30.4567 3
      vertex 31.6651 30.75 3
    endloop
  endfacet
  facet normal 0 0 1
    outer loop
      vertex 31.9786 10.1737 3
      vertex 29.5 8 3
      vertex 31.9148 9.85295 3
    endloop
  endfacet
  facet normal 0 0 1
    outer loop
      vertex 29.5 32 3
      vertex 31.6651 30.75 3
      vertex 31.4834 31.0219 3
    endloop
  endfacet
  facet normal 0 0 1
    outer loop
      vertex 31.9148 9.85295 3
      vertex 29.5 8 3
      vertex 31.8097 9.54329 3
    endloop
  endfacet
  facet normal 0 0 1
    outer loop
      vertex 29.5 32 3
      vertex 31.4834 31.0219 3
      vertex 31.2678 31.2678 3
    endloop
  endfacet
  facet normal 0 0 1
    outer loop
      vertex 31.8097 9.54329 3
      vertex 29.5 8 3
      vertex 31.6651 9.25 3
    endloop
  endfacet
  facet normal 0 0 1
    outer loop
      vertex 29.5 32 3
      vertex 31.2678 31.2678 3
      vertex 31.0219 31.4834 3
    endloop
  endfacet
  facet normal 0 0 1
    outer loop
      vertex 31.6651 9.25 3
      vertex 29.5 8 3
      vertex 31.4834 8.9781 3
    endloop
  endfacet
  facet normal 0 0 1
    outer loop
      vertex 29.5 32 3
      vertex 31.0219 31.4834 3
      vertex 30.75 31.6651 3
    endloop
  endfacet
  facet normal 0 0 1
    outer loop
      vertex 31.4834 8.9781 3
      vertex 29.5 8 3
      vertex 31.2678 8.73223 3
    endloop
  endfacet
  facet normal 0 0 1
    outer loop
      vertex 29.5 32 3
      vertex 30.75 31.6651 3
      vertex 30.4567 31.8097 3
    endloop
  endfacet
  facet normal 0 0 1
    outer loop
      vertex 31.2678 8.73223 3
      vertex 29.5 8 3
      vertex 31.0219 8.51662 3
    endloop
  endfacet
  facet normal 0 0 1
    outer loop
      vertex 29.5 32 3
      vertex 30.4567 31.8097 3
      vertex 30.147 31.9148 3
    endloop
  endfacet
  facet normal 0 0 1
    outer loop
      vertex 31.0219 8.51662 3
      vertex 29.5 8 3
      vertex 30.75 8.33494 3
    endloop
  endfacet
  facet normal 0 0 1
    outer loop
      vertex 29.5 32 3
      vertex 30.147 31.9148 3
      vertex 29.8263 31.9786 3
    endloop
  endfacet
  facet normal 0 0 1
    outer loop
      vertex 30.75 8.33494 3
      vertex 29.5 8 3
      vertex 30.4567 8.1903 3
    endloop
  endfacet
  facet normal 0 0 1
    outer loop
      vertex 30.4567 8.1903 3
      vertex 29.5 8 3
      vertex 30.147 8.08519 3
    endloop
  endfacet
  facet normal 0 0 1
    outer loop
      vertex 30.147 8.08519 3
      vertex 29.5 8 3
      vertex 29.8263 8.02139 3
    endloop
  endfacet
  facet normal -0 0 1
    outer loop
      vertex 6.5 32 3
      vertex 29.5 8 3
      vertex 29.5 32 3
    endloop
  endfacet
  facet normal 0 0 1
    outer loop
      vertex 6.5 32 3
      vertex 6.5 8 3
      vertex 29.5 8 3
    endloop
  endfacet
  facet normal 0 0 1
    outer loop
      vertex 4 29.5 3
      vertex 6.5 32 3
      vertex 6.17368 31.9786 3
    endloop
  endfacet
  facet normal 0 0 1
    outer loop
      vertex 6.5 32 3
      vertex 4 29.5 3
      vertex 6.5 8 3
    endloop
  endfacet
  facet normal 0 0 1
    outer loop
      vertex 4 29.5 3
      vertex 6.17368 31.9786 3
      vertex 5.85295 31.9148 3
    endloop
  endfacet
  facet normal -0 0 1
    outer loop
      vertex 4 10.5 3
      vertex 6.5 8 3
      vertex 4 29.5 3
    endloop
  endfacet
  facet normal 0 0 1
    outer loop
      vertex 4 29.5 3
      vertex 5.85295 31.9148 3
      vertex 5.54329 31.8097 3
    endloop
  endfacet
  facet normal 0 0 1
    outer loop
      vertex 6.5 8 3
      vertex 4 10.5 3
      vertex 6.17368 8.02139 3
    endloop
  endfacet
  facet normal 0 0 1
    outer loop
      vertex 4 29.5 3
      vertex 5.54329 31.8097 3
      vertex 5.25 31.6651 3
    endloop
  endfacet
  facet normal 0 0 1
    outer loop
      vertex 6.17368 8.02139 3
      vertex 4 10.5 3
      vertex 5.85295 8.08519 3
    endloop
  endfacet
  facet normal 0 0 1
    outer loop
      vertex 4 29.5 3
      vertex 5.25 31.6651 3
      vertex 4.9781 31.4834 3
    endloop
  endfacet
  facet normal 0 0 1
    outer loop
      vertex 5.85295 8.08519 3
      vertex 4 10.5 3
      vertex 5.54329 8.1903 3
    endloop
  endfacet
  facet normal 0 0 1
    outer loop
      vertex 4 29.5 3
      vertex 4.9781 31.4834 3
      vertex 4.73223 31.2678 3
    endloop
  endfacet
  facet normal 0 0 1
    outer loop
      vertex 5.54329 8.1903 3
      vertex 4 10.5 3
      vertex 5.25 8.33494 3
    endloop
  endfacet
  facet normal 0 0 1
    outer loop
      vertex 4 29.5 3
      vertex 4.73223 31.2678 3
      vertex 4.51662 31.0219 3
    endloop
  endfacet
  facet normal 0 0 1
    outer loop
      vertex 5.25 8.33494 3
      vertex 4 10.5 3
      vertex 4.9781 8.51662 3
    endloop
  endfacet
  facet normal 0 0 1
    outer loop
      vertex 4 29.5 3
      vertex 4.51662 31.0219 3
      vertex 4.33494 30.75 3
    endloop
  endfacet
  facet normal 0 0 1
    outer loop
      vertex 4.9781 8.51662 3
      vertex 4 10.5 3
      vertex 4.73223 8.73223 3
    endloop
  endfacet
  facet normal 0 0 1
    outer loop
      vertex 4 29.5 3
      vertex 4.33494 30.75 3
      vertex 4.1903 30.4567 3
    endloop
  endfacet
  facet normal 0 0 1
    outer loop
      vertex 4.73223 8.73223 3
      vertex 4 10.5 3
      vertex 4.51662 8.9781 3
    endloop
  endfacet
  facet normal 0 0 1
    outer loop
      vertex 4 29.5 3
      vertex 4.1903 30.4567 3
      vertex 4.08519 30.147 3
    endloop
  endfacet
  facet normal 0 0 1
    outer loop
      vertex 4.51662 8.9781 3
      vertex 4 10.5 3
      vertex 4.33494 9.25 3
    endloop
  endfacet
  facet normal 0 0 1
    outer loop
      vertex 4 29.5 3
      vertex 4.08519 30.147 3
      vertex 4.02139 29.8263 3
    endloop
  endfacet
  facet normal 0 0 1
    outer loop
      vertex 4.33494 9.25 3
      vertex 4 10.5 3
      vertex 4.1903 9.54329 3
    endloop
  endfacet
  facet normal 0 0 1
    outer loop
      vertex 4.1903 9.54329 3
      vertex 4 10.5 3
      vertex 4.08519 9.85295 3
    endloop
  endfacet
  facet normal 0 0 1
    outer loop
      vertex 4.08519 9.85295 3
      vertex 4 10.5 3
      vertex 4.02139 10.1737 3
    endloop
  endfacet
  facet normal 0.195116 -0.98078 0
    outer loop
      vertex 29.8263 8.02139 0
      vertex 30.147 8.08519 3
      vertex 29.8263 8.02139 3
    endloop
  endfacet
  facet normal 0.195116 -0.98078 0
    outer loop
      vertex 30.147 8.08519 3
      vertex 29.8263 8.02139 0
      vertex 30.147 8.08519 0
    endloop
  endfacet
  facet normal 0.98078 0.195116 0
    outer loop
      vertex 31.9786 29.8263 3
      vertex 31.9148 30.147 0
      vertex 31.9148 30.147 3
    endloop
  endfacet
  facet normal 0.98078 0.195116 0
    outer loop
      vertex 31.9148 30.147 0
      vertex 31.9786 29.8263 3
      vertex 31.9786 29.8263 0
    endloop
  endfacet
  facet normal 0.195116 0.98078 -0
    outer loop
      vertex 30.147 31.9148 0
      vertex 29.8263 31.9786 3
      vertex 30.147 31.9148 3
    endloop
  endfacet
  facet normal 0.195116 0.98078 0
    outer loop
      vertex 29.8263 31.9786 3
      vertex 30.147 31.9148 0
      vertex 29.8263 31.9786 0
    endloop
  endfacet
  facet normal -0.321397 0.946944 0
    outer loop
      vertex 5.85295 31.9148 0
      vertex 5.54329 31.8097 3
      vertex 5.85295 31.9148 3
    endloop
  endfacet
  facet normal -0.321397 0.946944 0
    outer loop
      vertex 5.54329 31.8097 3
      vertex 5.85295 31.9148 0
      vertex 5.54329 31.8097 0
    endloop
  endfacet
  facet normal 0.831438 0.555617 0
    outer loop
      vertex 31.6651 30.75 3
      vertex 31.4834 31.0219 0
      vertex 31.4834 31.0219 3
    endloop
  endfacet
  facet normal 0.831438 0.555617 0
    outer loop
      vertex 31.4834 31.0219 0
      vertex 31.6651 30.75 3
      vertex 31.6651 30.75 0
    endloop
  endfacet
  facet normal 0.442191 0.896921 -0
    outer loop
      vertex 30.75 31.6651 0
      vertex 30.4567 31.8097 3
      vertex 30.75 31.6651 3
    endloop
  endfacet
  facet normal 0.442191 0.896921 0
    outer loop
      vertex 30.4567 31.8097 3
      vertex 30.75 31.6651 0
      vertex 30.4567 31.8097 0
    endloop
  endfacet
  facet normal 0.0654128 -0.997858 0
    outer loop
      vertex 29.5 8 0
      vertex 29.8263 8.02139 3
      vertex 29.5 8 3
    endloop
  endfacet
  facet normal 0.0654128 -0.997858 0
    outer loop
      vertex 29.8263 8.02139 3
      vertex 29.5 8 0
      vertex 29.8263 8.02139 0
    endloop
  endfacet
  facet normal 0.659279 -0.751898 0
    outer loop
      vertex 31.0219 8.51662 0
      vertex 31.2678 8.73223 3
      vertex 31.0219 8.51662 3
    endloop
  endfacet
  facet normal 0.659279 -0.751898 0
    outer loop
      vertex 31.2678 8.73223 3
      vertex 31.0219 8.51662 0
      vertex 31.2678 8.73223 0
    endloop
  endfacet
  facet normal 0.997856 -0.0654432 0
    outer loop
      vertex 31.9786 10.1737 3
      vertex 32 10.5 0
      vertex 32 10.5 3
    endloop
  endfacet
  facet normal 0.997856 -0.0654432 0
    outer loop
      vertex 32 10.5 0
      vertex 31.9786 10.1737 3
      vertex 31.9786 10.1737 0
    endloop
  endfacet
  facet normal 0.555617 0.831438 -0
    outer loop
      vertex 31.0219 31.4834 0
      vertex 30.75 31.6651 3
      vertex 31.0219 31.4834 3
    endloop
  endfacet
  facet normal 0.555617 0.831438 0
    outer loop
      vertex 30.75 31.6651 3
      vertex 31.0219 31.4834 0
      vertex 30.75 31.6651 0
    endloop
  endfacet
  facet normal 0.659262 0.751913 -0
    outer loop
      vertex 31.2678 31.2678 0
      vertex 31.0219 31.4834 3
      vertex 31.2678 31.2678 3
    endloop
  endfacet
  facet normal 0.659262 0.751913 0
    outer loop
      vertex 31.0219 31.4834 3
      vertex 31.2678 31.2678 0
      vertex 31.0219 31.4834 0
    endloop
  endfacet
  facet normal 0.946957 0.32136 0
    outer loop
      vertex 31.9148 30.147 3
      vertex 31.8097 30.4567 0
      vertex 31.8097 30.4567 3
    endloop
  endfacet
  facet normal 0.946957 0.32136 0
    outer loop
      vertex 31.8097 30.4567 0
      vertex 31.9148 30.147 3
      vertex 31.9148 30.147 0
    endloop
  endfacet
  facet normal 0 0 -1
    outer loop
      vertex 29.5 8 0
      vertex 32 10.5 0
      vertex 31.9786 10.1737 0
    endloop
  endfacet
  facet normal -0 0 -1
    outer loop
      vertex 32 10.5 0
      vertex 29.5 8 0
      vertex 32 29.5 0
    endloop
  endfacet
  facet normal 0 0 -1
    outer loop
      vertex 29.5 8 0
      vertex 31.9786 10.1737 0
      vertex 31.9148 9.85295 0
    endloop
  endfacet
  facet normal 0 0 -1
    outer loop
      vertex 29.5 32 0
      vertex 32 29.5 0
      vertex 29.5 8 0
    endloop
  endfacet
  facet normal 0 0 -1
    outer loop
      vertex 29.5 8 0
      vertex 31.9148 9.85295 0
      vertex 31.8097 9.54329 0
    endloop
  endfacet
  facet normal 0 0 -1
    outer loop
      vertex 32 29.5 0
      vertex 29.5 32 0
      vertex 31.9786 29.8263 0
    endloop
  endfacet
  facet normal 0 0 -1
    outer loop
      vertex 29.5 8 0
      vertex 31.8097 9.54329 0
      vertex 31.6651 9.25 0
    endloop
  endfacet
  facet normal 0 0 -1
    outer loop
      vertex 31.9786 29.8263 0
      vertex 29.5 32 0
      vertex 31.9148 30.147 0
    endloop
  endfacet
  facet normal 0 0 -1
    outer loop
      vertex 29.5 8 0
      vertex 31.6651 9.25 0
      vertex 31.4834 8.9781 0
    endloop
  endfacet
  facet normal 0 0 -1
    outer loop
      vertex 31.9148 30.147 0
      vertex 29.5 32 0
      vertex 31.8097 30.4567 0
    endloop
  endfacet
  facet normal 0 0 -1
    outer loop
      vertex 29.5 8 0
      vertex 31.4834 8.9781 0
      vertex 31.2678 8.73223 0
    endloop
  endfacet
  facet normal 0 0 -1
    outer loop
      vertex 31.8097 30.4567 0
      vertex 29.5 32 0
      vertex 31.6651 30.75 0
    endloop
  endfacet
  facet normal 0 0 -1
    outer loop
      vertex 29.5 8 0
      vertex 31.2678 8.73223 0
      vertex 31.0219 8.51662 0
    endloop
  endfacet
  facet normal 0 0 -1
    outer loop
      vertex 31.6651 30.75 0
      vertex 29.5 32 0
      vertex 31.4834 31.0219 0
    endloop
  endfacet
  facet normal 0 0 -1
    outer loop
      vertex 29.5 8 0
      vertex 31.0219 8.51662 0
      vertex 30.75 8.33494 0
    endloop
  endfacet
  facet normal 0 0 -1
    outer loop
      vertex 31.4834 31.0219 0
      vertex 29.5 32 0
      vertex 31.2678 31.2678 0
    endloop
  endfacet
  facet normal 0 0 -1
    outer loop
      vertex 29.5 8 0
      vertex 30.75 8.33494 0
      vertex 30.4567 8.1903 0
    endloop
  endfacet
  facet normal 0 0 -1
    outer loop
      vertex 31.2678 31.2678 0
      vertex 29.5 32 0
      vertex 31.0219 31.4834 0
    endloop
  endfacet
  facet normal 0 0 -1
    outer loop
      vertex 29.5 8 0
      vertex 30.4567 8.1903 0
      vertex 30.147 8.08519 0
    endloop
  endfacet
  facet normal 0 0 -1
    outer loop
      vertex 31.0219 31.4834 0
      vertex 29.5 32 0
      vertex 30.75 31.6651 0
    endloop
  endfacet
  facet normal 0 0 -1
    outer loop
      vertex 29.5 8 0
      vertex 30.147 8.08519 0
      vertex 29.8263 8.02139 0
    endloop
  endfacet
  facet normal 0 0 -1
    outer loop
      vertex 30.75 31.6651 0
      vertex 29.5 32 0
      vertex 30.4567 31.8097 0
    endloop
  endfacet
  facet normal 0 0 -1
    outer loop
      vertex 30.4567 31.8097 0
      vertex 29.5 32 0
      vertex 30.147 31.9148 0
    endloop
  endfacet
  facet normal 0 0 -1
    outer loop
      vertex 30.147 31.9148 0
      vertex 29.5 32 0
      vertex 29.8263 31.9786 0
    endloop
  endfacet
  facet normal 0 0 -1
    outer loop
      vertex 6.5 8 0
      vertex 29.5 32 0
      vertex 29.5 8 0
    endloop
  endfacet
  facet normal 0 0 -1
    outer loop
      vertex 6.5 8 0
      vertex 6.5 32 0
      vertex 29.5 32 0
    endloop
  endfacet
  facet normal 0 0 -1
    outer loop
      vertex 4 10.5 0
      vertex 6.5 8 0
      vertex 6.17368 8.02139 0
    endloop
  endfacet
  facet normal 0 0 -1
    outer loop
      vertex 6.5 8 0
      vertex 4 10.5 0
      vertex 6.5 32 0
    endloop
  endfacet
  facet normal 0 0 -1
    outer loop
      vertex 4 10.5 0
      vertex 6.17368 8.02139 0
      vertex 5.85295 8.08519 0
    endloop
  endfacet
  facet normal 0 0 -1
    outer loop
      vertex 4 29.5 0
      vertex 6.5 32 0
      vertex 4 10.5 0
    endloop
  endfacet
  facet normal 0 0 -1
    outer loop
      vertex 4 10.5 0
      vertex 5.85295 8.08519 0
      vertex 5.54329 8.1903 0
    endloop
  endfacet
  facet normal 0 0 -1
    outer loop
      vertex 6.5 32 0
      vertex 4 29.5 0
      vertex 6.17368 31.9786 0
    endloop
  endfacet
  facet normal 0 0 -1
    outer loop
      vertex 4 10.5 0
      vertex 5.54329 8.1903 0
      vertex 5.25 8.33494 0
    endloop
  endfacet
  facet normal 0 0 -1
    outer loop
      vertex 6.17368 31.9786 0
      vertex 4 29.5 0
      vertex 5.85295 31.9148 0
    endloop
  endfacet
  facet normal 0 0 -1
    outer loop
      vertex 4 10.5 0
      vertex 5.25 8.33494 0
      vertex 4.9781 8.51662 0
    endloop
  endfacet
  facet normal 0 0 -1
    outer loop
      vertex 5.85295 31.9148 0
      vertex 4 29.5 0
      vertex 5.54329 31.8097 0
    endloop
  endfacet
  facet normal 0 0 -1
    outer loop
      vertex 4 10.5 0
      vertex 4.9781 8.51662 0
      vertex 4.73223 8.73223 0
    endloop
  endfacet
  facet normal 0 0 -1
    outer loop
      vertex 5.54329 31.8097 0
      vertex 4 29.5 0
      vertex 5.25 31.6651 0
    endloop
  endfacet
  facet normal 0 0 -1
    outer loop
      vertex 4 10.5 0
      vertex 4.73223 8.73223 0
      vertex 4.51662 8.9781 0
    endloop
  endfacet
  facet normal 0 0 -1
    outer loop
      vertex 5.25 31.6651 0
      vertex 4 29.5 0
      vertex 4.9781 31.4834 0
    endloop
  endfacet
  facet normal 0 0 -1
    outer loop
      vertex 4 10.5 0
      vertex 4.51662 8.9781 0
      vertex 4.33494 9.25 0
    endloop
  endfacet
  facet normal 0 0 -1
    outer loop
      vertex 4.9781 31.4834 0
      vertex 4 29.5 0
      vertex 4.73223 31.2678 0
    endloop
  endfacet
  facet normal 0 0 -1
    outer loop
      vertex 4 10.5 0
      vertex 4.33494 9.25 0
      vertex 4.1903 9.54329 0
    endloop
  endfacet
  facet normal 0 0 -1
    outer loop
      vertex 4.73223 31.2678 0
      vertex 4 29.5 0
      vertex 4.51662 31.0219 0
    endloop
  endfacet
  facet normal 0 0 -1
    outer loop
      vertex 4 10.5 0
      vertex 4.1903 9.54329 0
      vertex 4.08519 9.85295 0
    endloop
  endfacet
  facet normal 0 0 -1
    outer loop
      vertex 4.51662 31.0219 0
      vertex 4 29.5 0
      vertex 4.33494 30.75 0
    endloop
  endfacet
  facet normal 0 0 -1
    outer loop
      vertex 4 10.5 0
      vertex 4.08519 9.85295 0
      vertex 4.02139 10.1737 0
    endloop
  endfacet
  facet normal 0 0 -1
    outer loop
      vertex 4.33494 30.75 0
      vertex 4 29.5 0
      vertex 4.1903 30.4567 0
    endloop
  endfacet
  facet normal 0 0 -1
    outer loop
      vertex 4.1903 30.4567 0
      vertex 4 29.5 0
      vertex 4.08519 30.147 0
    endloop
  endfacet
  facet normal 0 0 -1
    outer loop
      vertex 4.08519 30.147 0
      vertex 4 29.5 0
      vertex 4.02139 29.8263 0
    endloop
  endfacet
  facet normal -1 0 0
    outer loop
      vertex 40 29.5 0
      vertex 40 26 0.9
      vertex 40 29.5 3
    endloop
  endfacet
  facet normal -1 0 0
    outer loop
      vertex 40 29.5 0
      vertex 40 14 0.9
      vertex 40 26 0.9
    endloop
  endfacet
  facet normal -1 -0 0
    outer loop
      vertex 40 14 0.9
      vertex 40 10.5 0
      vertex 40 14 2.1
    endloop
  endfacet
  facet normal -1 0 0
    outer loop
      vertex 40 10.5 0
      vertex 40 14 0.9
      vertex 40 29.5 0
    endloop
  endfacet
  facet normal -1 0 0
    outer loop
      vertex 40 26 2.1
      vertex 40 29.5 3
      vertex 40 26 0.9
    endloop
  endfacet
  facet normal -1 0 0
    outer loop
      vertex 40 14 2.1
      vertex 40 29.5 3
      vertex 40 26 2.1
    endloop
  endfacet
  facet normal -1 0 0
    outer loop
      vertex 40 14 2.1
      vertex 40 10.5 3
      vertex 40 29.5 3
    endloop
  endfacet
  facet normal -1 0 0
    outer loop
      vertex 40 10.5 3
      vertex 40 14 2.1
      vertex 40 10.5 0
    endloop
  endfacet
  facet normal -0.997856 0.0654432 0
    outer loop
      vertex 40 29.5 0
      vertex 40.0214 29.8263 3
      vertex 40.0214 29.8263 0
    endloop
  endfacet
  facet normal -0.997856 0.0654432 0
    outer loop
      vertex 40.0214 29.8263 3
      vertex 40 29.5 0
      vertex 40 29.5 3
    endloop
  endfacet
  facet normal -0.195116 -0.98078 0
    outer loop
      vertex 41.853 8.08519 0
      vertex 42.1737 8.02139 3
      vertex 41.853 8.08519 3
    endloop
  endfacet
  facet normal -0.195116 -0.98078 -0
    outer loop
      vertex 42.1737 8.02139 3
      vertex 41.853 8.08519 0
      vertex 42.1737 8.02139 0
    endloop
  endfacet
  facet normal 0.44229 -0.896872 0
    outer loop
      vertex 66.4567 8.1903 0
      vertex 66.75 8.33494 3
      vertex 66.4567 8.1903 3
    endloop
  endfacet
  facet normal 0.44229 -0.896872 0
    outer loop
      vertex 66.75 8.33494 3
      vertex 66.4567 8.1903 0
      vertex 66.75 8.33494 0
    endloop
  endfacet
  facet normal -0.555575 -0.831466 0
    outer loop
      vertex 40.9781 8.51662 0
      vertex 41.25 8.33494 3
      vertex 40.9781 8.51662 3
    endloop
  endfacet
  facet normal -0.555575 -0.831466 -0
    outer loop
      vertex 41.25 8.33494 3
      vertex 40.9781 8.51662 0
      vertex 41.25 8.33494 0
    endloop
  endfacet
  facet normal -0.751913 0.659262 0
    outer loop
      vertex 40.5166 31.0219 0
      vertex 40.7322 31.2678 3
      vertex 40.7322 31.2678 0
    endloop
  endfacet
  facet normal -0.751913 0.659262 0
    outer loop
      vertex 40.7322 31.2678 3
      vertex 40.5166 31.0219 0
      vertex 40.5166 31.0219 3
    endloop
  endfacet
  facet normal -0.831438 0.555617 0
    outer loop
      vertex 40.3349 30.75 0
      vertex 40.5166 31.0219 3
      vertex 40.5166 31.0219 0
    endloop
  endfacet
  facet normal -0.831438 0.555617 0
    outer loop
      vertex 40.5166 31.0219 3
      vertex 40.3349 30.75 0
      vertex 40.3349 30.75 3
    endloop
  endfacet
  facet normal -0.997856 -0.0654432 0
    outer loop
      vertex 40.0214 10.1737 0
      vertex 40 10.5 3
      vertex 40 10.5 0
    endloop
  endfacet
  facet normal -0.997856 -0.0654432 0
    outer loop
      vertex 40 10.5 3
      vertex 40.0214 10.1737 0
      vertex 40.0214 10.1737 3
    endloop
  endfacet
  facet normal -0.44229 -0.896872 0
    outer loop
      vertex 41.25 8.33494 0
      vertex 41.5433 8.1903 3
      vertex 41.25 8.33494 3
    endloop
  endfacet
  facet normal -0.44229 -0.896872 -0
    outer loop
      vertex 41.5433 8.1903 3
      vertex 41.25 8.33494 0
      vertex 41.5433 8.1903 0
    endloop
  endfacet
  facet normal -0.0654128 -0.997858 0
    outer loop
      vertex 42.1737 8.02139 0
      vertex 42.5 8 3
      vertex 42.1737 8.02139 3
    endloop
  endfacet
  facet normal -0.0654128 -0.997858 -0
    outer loop
      vertex 42.5 8 3
      vertex 42.1737 8.02139 0
      vertex 42.5 8 0
    endloop
  endfacet
  facet normal 0.946944 -0.321397 0
    outer loop
      vertex 67.8097 9.54329 3
      vertex 67.9148 9.85295 0
      vertex 67.9148 9.85295 3
    endloop
  endfacet
  facet normal 0.946944 -0.321397 0
    outer loop
      vertex 67.9148 9.85295 0
      vertex 67.8097 9.54329 3
      vertex 67.8097 9.54329 0
    endloop
  endfacet
  facet normal 1 -0 0
    outer loop
      vertex 68 10.5 3
      vertex 68 29.5 0
      vertex 68 29.5 3
    endloop
  endfacet
  facet normal 1 0 0
    outer loop
      vertex 68 29.5 0
      vertex 68 10.5 3
      vertex 68 10.5 0
    endloop
  endfacet
  facet normal 0.831438 -0.555617 0
    outer loop
      vertex 67.4834 8.9781 3
      vertex 67.6651 9.25 0
      vertex 67.6651 9.25 3
    endloop
  endfacet
  facet normal 0.831438 -0.555617 0
    outer loop
      vertex 67.6651 9.25 0
      vertex 67.4834 8.9781 3
      vertex 67.4834 8.9781 0
    endloop
  endfacet
  facet normal -0.442191 0.896921 0
    outer loop
      vertex 41.5433 31.8097 0
      vertex 41.25 31.6651 3
      vertex 41.5433 31.8097 3
    endloop
  endfacet
  facet normal -0.442191 0.896921 0
    outer loop
      vertex 41.25 31.6651 3
      vertex 41.5433 31.8097 0
      vertex 41.25 31.6651 0
    endloop
  endfacet
  facet normal 0 1 -0
    outer loop
      vertex 65.5 32 0
      vertex 42.5 32 3
      vertex 65.5 32 3
    endloop
  endfacet
  facet normal 0 1 0
    outer loop
      vertex 42.5 32 3
      vertex 65.5 32 0
      vertex 42.5 32 0
    endloop
  endfacet
  facet normal 0 -1 0
    outer loop
      vertex 42.5 8 0
      vertex 65.5 8 3
      vertex 42.5 8 3
    endloop
  endfacet
  facet normal 0 -1 -0
    outer loop
      vertex 65.5 8 3
      vertex 42.5 8 0
      vertex 65.5 8 0
    endloop
  endfacet
  facet normal -0.831438 -0.555617 0
    outer loop
      vertex 40.5166 8.9781 0
      vertex 40.3349 9.25 3
      vertex 40.3349 9.25 0
    endloop
  endfacet
  facet normal -0.831438 -0.555617 0
    outer loop
      vertex 40.3349 9.25 3
      vertex 40.5166 8.9781 0
      vertex 40.5166 8.9781 3
    endloop
  endfacet
  facet normal -0.195116 0.98078 0
    outer loop
      vertex 42.1737 31.9786 0
      vertex 41.853 31.9148 3
      vertex 42.1737 31.9786 3
    endloop
  endfacet
  facet normal -0.195116 0.98078 0
    outer loop
      vertex 41.853 31.9148 3
      vertex 42.1737 31.9786 0
      vertex 41.853 31.9148 0
    endloop
  endfacet
  facet normal 0.321387 -0.946948 0
    outer loop
      vertex 66.147 8.08519 0
      vertex 66.4567 8.1903 3
      vertex 66.147 8.08519 3
    endloop
  endfacet
  facet normal 0.321387 -0.946948 0
    outer loop
      vertex 66.4567 8.1903 3
      vertex 66.147 8.08519 0
      vertex 66.4567 8.1903 0
    endloop
  endfacet
  facet normal 0.997856 0.0654432 0
    outer loop
      vertex 68 29.5 3
      vertex 67.9786 29.8263 0
      vertex 67.9786 29.8263 3
    endloop
  endfacet
  facet normal 0.997856 0.0654432 0
    outer loop
      vertex 67.9786 29.8263 0
      vertex 68 29.5 3
      vertex 68 29.5 0
    endloop
  endfacet
  facet normal 0.0654432 0.997856 -0
    outer loop
      vertex 65.8263 31.9786 0
      vertex 65.5 32 3
      vertex 65.8263 31.9786 3
    endloop
  endfacet
  facet normal 0.0654432 0.997856 0
    outer loop
      vertex 65.5 32 3
      vertex 65.8263 31.9786 0
      vertex 65.5 32 0
    endloop
  endfacet
  facet normal -0.946957 0.32136 0
    outer loop
      vertex 40.0852 30.147 0
      vertex 40.1903 30.4567 3
      vertex 40.1903 30.4567 0
    endloop
  endfacet
  facet normal -0.946957 0.32136 0
    outer loop
      vertex 40.1903 30.4567 3
      vertex 40.0852 30.147 0
      vertex 40.0852 30.147 3
    endloop
  endfacet
  facet normal 0.980786 -0.195087 0
    outer loop
      vertex 67.9148 9.85295 3
      vertex 67.9786 10.1737 0
      vertex 67.9786 10.1737 3
    endloop
  endfacet
  facet normal 0.980786 -0.195087 0
    outer loop
      vertex 67.9786 10.1737 0
      vertex 67.9148 9.85295 3
      vertex 67.9148 9.85295 0
    endloop
  endfacet
  facet normal -0.980786 -0.195087 0
    outer loop
      vertex 40.0852 9.85295 0
      vertex 40.0214 10.1737 3
      vertex 40.0214 10.1737 0
    endloop
  endfacet
  facet normal -0.980786 -0.195087 0
    outer loop
      vertex 40.0214 10.1737 3
      vertex 40.0852 9.85295 0
      vertex 40.0852 9.85295 3
    endloop
  endfacet
  facet normal -0.659279 -0.751898 0
    outer loop
      vertex 40.7322 8.73223 0
      vertex 40.9781 8.51662 3
      vertex 40.7322 8.73223 3
    endloop
  endfacet
  facet normal -0.659279 -0.751898 -0
    outer loop
      vertex 40.9781 8.51662 3
      vertex 40.7322 8.73223 0
      vertex 40.9781 8.51662 0
    endloop
  endfacet
  facet normal -0.896921 0.442191 0
    outer loop
      vertex 40.1903 30.4567 0
      vertex 40.3349 30.75 3
      vertex 40.3349 30.75 0
    endloop
  endfacet
  facet normal -0.896921 0.442191 0
    outer loop
      vertex 40.3349 30.75 3
      vertex 40.1903 30.4567 0
      vertex 40.1903 30.4567 3
    endloop
  endfacet
  facet normal -0.659262 0.751913 0
    outer loop
      vertex 40.9781 31.4834 0
      vertex 40.7322 31.2678 3
      vertex 40.9781 31.4834 3
    endloop
  endfacet
  facet normal -0.659262 0.751913 0
    outer loop
      vertex 40.7322 31.2678 3
      vertex 40.9781 31.4834 0
      vertex 40.7322 31.2678 0
    endloop
  endfacet
  facet normal 0.555575 -0.831466 0
    outer loop
      vertex 66.75 8.33494 0
      vertex 67.0219 8.51662 3
      vertex 66.75 8.33494 3
    endloop
  endfacet
  facet normal 0.555575 -0.831466 0
    outer loop
      vertex 67.0219 8.51662 3
      vertex 66.75 8.33494 0
      vertex 67.0219 8.51662 0
    endloop
  endfacet
  facet normal -0.751873 -0.659307 0
    outer loop
      vertex 40.7322 8.73223 0
      vertex 40.5166 8.9781 3
      vertex 40.5166 8.9781 0
    endloop
  endfacet
  facet normal -0.751873 -0.659307 0
    outer loop
      vertex 40.5166 8.9781 3
      vertex 40.7322 8.73223 0
      vertex 40.7322 8.73223 3
    endloop
  endfacet
  facet normal 0.896921 0.442191 0
    outer loop
      vertex 67.8097 30.4567 3
      vertex 67.6651 30.75 0
      vertex 67.6651 30.75 3
    endloop
  endfacet
  facet normal 0.896921 0.442191 0
    outer loop
      vertex 67.6651 30.75 0
      vertex 67.8097 30.4567 3
      vertex 67.8097 30.4567 0
    endloop
  endfacet
  facet normal 0.751873 -0.659307 0
    outer loop
      vertex 67.2678 8.73223 3
      vertex 67.4834 8.9781 0
      vertex 67.4834 8.9781 3
    endloop
  endfacet
  facet normal 0.751873 -0.659307 0
    outer loop
      vertex 67.4834 8.9781 0
      vertex 67.2678 8.73223 3
      vertex 67.2678 8.73223 0
    endloop
  endfacet
  facet normal -0.98078 0.195116 0
    outer loop
      vertex 40.0214 29.8263 0
      vertex 40.0852 30.147 3
      vertex 40.0852 30.147 0
    endloop
  endfacet
  facet normal -0.98078 0.195116 0
    outer loop
      vertex 40.0852 30.147 3
      vertex 40.0214 29.8263 0
      vertex 40.0214 29.8263 3
    endloop
  endfacet
  facet normal -0.321387 -0.946948 0
    outer loop
      vertex 41.5433 8.1903 0
      vertex 41.853 8.08519 3
      vertex 41.5433 8.1903 3
    endloop
  endfacet
  facet normal -0.321387 -0.946948 -0
    outer loop
      vertex 41.853 8.08519 3
      vertex 41.5433 8.1903 0
      vertex 41.853 8.08519 0
    endloop
  endfacet
  facet normal 0.659262 0.751913 -0
    outer loop
      vertex 67.2678 31.2678 0
      vertex 67.0219 31.4834 3
      vertex 67.2678 31.2678 3
    endloop
  endfacet
  facet normal 0.659262 0.751913 0
    outer loop
      vertex 67.0219 31.4834 3
      vertex 67.2678 31.2678 0
      vertex 67.0219 31.4834 0
    endloop
  endfacet
  facet normal 0.896915 -0.442204 0
    outer loop
      vertex 67.6651 9.25 3
      vertex 67.8097 9.54329 0
      vertex 67.8097 9.54329 3
    endloop
  endfacet
  facet normal 0.896915 -0.442204 0
    outer loop
      vertex 67.8097 9.54329 0
      vertex 67.6651 9.25 3
      vertex 67.6651 9.25 0
    endloop
  endfacet
  facet normal -0.0654432 0.997856 0
    outer loop
      vertex 42.5 32 0
      vertex 42.1737 31.9786 3
      vertex 42.5 32 3
    endloop
  endfacet
  facet normal -0.0654432 0.997856 0
    outer loop
      vertex 42.1737 31.9786 3
      vertex 42.5 32 0
      vertex 42.1737 31.9786 0
    endloop
  endfacet
  facet normal -0.896915 -0.442204 0
    outer loop
      vertex 40.3349 9.25 0
      vertex 40.1903 9.54329 3
      vertex 40.1903 9.54329 0
    endloop
  endfacet
  facet normal -0.896915 -0.442204 0
    outer loop
      vertex 40.1903 9.54329 3
      vertex 40.3349 9.25 0
      vertex 40.3349 9.25 3
    endloop
  endfacet
  facet normal -0.555617 0.831438 0
    outer loop
      vertex 41.25 31.6651 0
      vertex 40.9781 31.4834 3
      vertex 41.25 31.6651 3
    endloop
  endfacet
  facet normal -0.555617 0.831438 0
    outer loop
      vertex 40.9781 31.4834 3
      vertex 41.25 31.6651 0
      vertex 40.9781 31.4834 0
    endloop
  endfacet
  facet normal 0.32136 0.946957 -0
    outer loop
      vertex 66.4567 31.8097 0
      vertex 66.147 31.9148 3
      vertex 66.4567 31.8097 3
    endloop
  endfacet
  facet normal 0.32136 0.946957 0
    outer loop
      vertex 66.147 31.9148 3
      vertex 66.4567 31.8097 0
      vertex 66.147 31.9148 0
    endloop
  endfacet
  facet normal 0.751913 0.659262 0
    outer loop
      vertex 67.4834 31.0219 3
      vertex 67.2678 31.2678 0
      vertex 67.2678 31.2678 3
    endloop
  endfacet
  facet normal 0.751913 0.659262 0
    outer loop
      vertex 67.2678 31.2678 0
      vertex 67.4834 31.0219 3
      vertex 67.4834 31.0219 0
    endloop
  endfacet
  facet normal -0.946944 -0.321397 0
    outer loop
      vertex 40.1903 9.54329 0
      vertex 40.0852 9.85295 3
      vertex 40.0852 9.85295 0
    endloop
  endfacet
  facet normal -0.946944 -0.321397 0
    outer loop
      vertex 40.0852 9.85295 3
      vertex 40.1903 9.54329 0
      vertex 40.1903 9.54329 3
    endloop
  endfacet
  facet normal 0 0 1
    outer loop
      vertex 65.5 32 3
      vertex 68 29.5 3
      vertex 67.9786 29.8263 3
    endloop
  endfacet
  facet normal 0 0 1
    outer loop
      vertex 68 29.5 3
      vertex 65.5 32 3
      vertex 68 10.5 3
    endloop
  endfacet
  facet normal 0 0 1
    outer loop
      vertex 65.5 32 3
      vertex 67.9786 29.8263 3
      vertex 67.9148 30.147 3
    endloop
  endfacet
  facet normal 0 0 1
    outer loop
      vertex 65.5 8 3
      vertex 68 10.5 3
      vertex 65.5 32 3
    endloop
  endfacet
  facet normal 0 0 1
    outer loop
      vertex 65.5 32 3
      vertex 67.9148 30.147 3
      vertex 67.8097 30.4567 3
    endloop
  endfacet
  facet normal 0 0 1
    outer loop
      vertex 68 10.5 3
      vertex 65.5 8 3
      vertex 67.9786 10.1737 3
    endloop
  endfacet
  facet normal 0 0 1
    outer loop
      vertex 65.5 32 3
      vertex 67.8097 30.4567 3
      vertex 67.6651 30.75 3
    endloop
  endfacet
  facet normal 0 0 1
    outer loop
      vertex 67.9786 10.1737 3
      vertex 65.5 8 3
      vertex 67.9148 9.85295 3
    endloop
  endfacet
  facet normal 0 0 1
    outer loop
      vertex 65.5 32 3
      vertex 67.6651 30.75 3
      vertex 67.4834 31.0219 3
    endloop
  endfacet
  facet normal 0 0 1
    outer loop
      vertex 67.9148 9.85295 3
      vertex 65.5 8 3
      vertex 67.8097 9.54329 3
    endloop
  endfacet
  facet normal 0 0 1
    outer loop
      vertex 65.5 32 3
      vertex 67.4834 31.0219 3
      vertex 67.2678 31.2678 3
    endloop
  endfacet
  facet normal 0 0 1
    outer loop
      vertex 67.8097 9.54329 3
      vertex 65.5 8 3
      vertex 67.6651 9.25 3
    endloop
  endfacet
  facet normal 0 0 1
    outer loop
      vertex 65.5 32 3
      vertex 67.2678 31.2678 3
      vertex 67.0219 31.4834 3
    endloop
  endfacet
  facet normal 0 0 1
    outer loop
      vertex 67.6651 9.25 3
      vertex 65.5 8 3
      vertex 67.4834 8.9781 3
    endloop
  endfacet
  facet normal 0 0 1
    outer loop
      vertex 65.5 32 3
      vertex 67.0219 31.4834 3
      vertex 66.75 31.6651 3
    endloop
  endfacet
  facet normal 0 0 1
    outer loop
      vertex 67.4834 8.9781 3
      vertex 65.5 8 3
      vertex 67.2678 8.73223 3
    endloop
  endfacet
  facet normal 0 0 1
    outer loop
      vertex 65.5 32 3
      vertex 66.75 31.6651 3
      vertex 66.4567 31.8097 3
    endloop
  endfacet
  facet normal 0 0 1
    outer loop
      vertex 67.2678 8.73223 3
      vertex 65.5 8 3
      vertex 67.0219 8.51662 3
    endloop
  endfacet
  facet normal 0 0 1
    outer loop
      vertex 65.5 32 3
      vertex 66.4567 31.8097 3
      vertex 66.147 31.9148 3
    endloop
  endfacet
  facet normal 0 0 1
    outer loop
      vertex 67.0219 8.51662 3
      vertex 65.5 8 3
      vertex 66.75 8.33494 3
    endloop
  endfacet
  facet normal 0 0 1
    outer loop
      vertex 65.5 32 3
      vertex 66.147 31.9148 3
      vertex 65.8263 31.9786 3
    endloop
  endfacet
  facet normal 0 0 1
    outer loop
      vertex 66.75 8.33494 3
      vertex 65.5 8 3
      vertex 66.4567 8.1903 3
    endloop
  endfacet
  facet normal 0 0 1
    outer loop
      vertex 66.4567 8.1903 3
      vertex 65.5 8 3
      vertex 66.147 8.08519 3
    endloop
  endfacet
  facet normal 0 0 1
    outer loop
      vertex 66.147 8.08519 3
      vertex 65.5 8 3
      vertex 65.8263 8.02139 3
    endloop
  endfacet
  facet normal -0 0 1
    outer loop
      vertex 42.5 32 3
      vertex 65.5 8 3
      vertex 65.5 32 3
    endloop
  endfacet
  facet normal 0 0 1
    outer loop
      vertex 42.5 32 3
      vertex 42.5 8 3
      vertex 65.5 8 3
    endloop
  endfacet
  facet normal 0 0 1
    outer loop
      vertex 40 29.5 3
      vertex 42.5 32 3
      vertex 42.1737 31.9786 3
    endloop
  endfacet
  facet normal 0 0 1
    outer loop
      vertex 42.5 32 3
      vertex 40 29.5 3
      vertex 42.5 8 3
    endloop
  endfacet
  facet normal 0 0 1
    outer loop
      vertex 40 29.5 3
      vertex 42.1737 31.9786 3
      vertex 41.853 31.9148 3
    endloop
  endfacet
  facet normal -0 0 1
    outer loop
      vertex 40 10.5 3
      vertex 42.5 8 3
      vertex 40 29.5 3
    endloop
  endfacet
  facet normal 0 0 1
    outer loop
      vertex 40 29.5 3
      vertex 41.853 31.9148 3
      vertex 41.5433 31.8097 3
    endloop
  endfacet
  facet normal 0 0 1
    outer loop
      vertex 42.5 8 3
      vertex 40 10.5 3
      vertex 42.1737 8.02139 3
    endloop
  endfacet
  facet normal 0 0 1
    outer loop
      vertex 40 29.5 3
      vertex 41.5433 31.8097 3
      vertex 41.25 31.6651 3
    endloop
  endfacet
  facet normal 0 0 1
    outer loop
      vertex 42.1737 8.02139 3
      vertex 40 10.5 3
      vertex 41.853 8.08519 3
    endloop
  endfacet
  facet normal 0 0 1
    outer loop
      vertex 40 29.5 3
      vertex 41.25 31.6651 3
      vertex 40.9781 31.4834 3
    endloop
  endfacet
  facet normal 0 0 1
    outer loop
      vertex 41.853 8.08519 3
      vertex 40 10.5 3
      vertex 41.5433 8.1903 3
    endloop
  endfacet
  facet normal 0 0 1
    outer loop
      vertex 40 29.5 3
      vertex 40.9781 31.4834 3
      vertex 40.7322 31.2678 3
    endloop
  endfacet
  facet normal 0 0 1
    outer loop
      vertex 41.5433 8.1903 3
      vertex 40 10.5 3
      vertex 41.25 8.33494 3
    endloop
  endfacet
  facet normal 0 0 1
    outer loop
      vertex 40 29.5 3
      vertex 40.7322 31.2678 3
      vertex 40.5166 31.0219 3
    endloop
  endfacet
  facet normal 0 0 1
    outer loop
      vertex 41.25 8.33494 3
      vertex 40 10.5 3
      vertex 40.9781 8.51662 3
    endloop
  endfacet
  facet normal 0 0 1
    outer loop
      vertex 40 29.5 3
      vertex 40.5166 31.0219 3
      vertex 40.3349 30.75 3
    endloop
  endfacet
  facet normal 0 0 1
    outer loop
      vertex 40.9781 8.51662 3
      vertex 40 10.5 3
      vertex 40.7322 8.73223 3
    endloop
  endfacet
  facet normal 0 0 1
    outer loop
      vertex 40 29.5 3
      vertex 40.3349 30.75 3
      vertex 40.1903 30.4567 3
    endloop
  endfacet
  facet normal 0 0 1
    outer loop
      vertex 40.7322 8.73223 3
      vertex 40 10.5 3
      vertex 40.5166 8.9781 3
    endloop
  endfacet
  facet normal 0 0 1
    outer loop
      vertex 40 29.5 3
      vertex 40.1903 30.4567 3
      vertex 40.0852 30.147 3
    endloop
  endfacet
  facet normal 0 0 1
    outer loop
      vertex 40.5166 8.9781 3
      vertex 40 10.5 3
      vertex 40.3349 9.25 3
    endloop
  endfacet
  facet normal 0 0 1
    outer loop
      vertex 40 29.5 3
      vertex 40.0852 30.147 3
      vertex 40.0214 29.8263 3
    endloop
  endfacet
  facet normal 0 0 1
    outer loop
      vertex 40.3349 9.25 3
      vertex 40 10.5 3
      vertex 40.1903 9.54329 3
    endloop
  endfacet
  facet normal 0 0 1
    outer loop
      vertex 40.1903 9.54329 3
      vertex 40 10.5 3
      vertex 40.0852 9.85295 3
    endloop
  endfacet
  facet normal 0 0 1
    outer loop
      vertex 40.0852 9.85295 3
      vertex 40 10.5 3
      vertex 40.0214 10.1737 3
    endloop
  endfacet
  facet normal 0.195116 -0.98078 0
    outer loop
      vertex 65.8263 8.02139 0
      vertex 66.147 8.08519 3
      vertex 65.8263 8.02139 3
    endloop
  endfacet
  facet normal 0.195116 -0.98078 0
    outer loop
      vertex 66.147 8.08519 3
      vertex 65.8263 8.02139 0
      vertex 66.147 8.08519 0
    endloop
  endfacet
  facet normal 0.98078 0.195116 0
    outer loop
      vertex 67.9786 29.8263 3
      vertex 67.9148 30.147 0
      vertex 67.9148 30.147 3
    endloop
  endfacet
  facet normal 0.98078 0.195116 0
    outer loop
      vertex 67.9148 30.147 0
      vertex 67.9786 29.8263 3
      vertex 67.9786 29.8263 0
    endloop
  endfacet
  facet normal 0.195116 0.98078 -0
    outer loop
      vertex 66.147 31.9148 0
      vertex 65.8263 31.9786 3
      vertex 66.147 31.9148 3
    endloop
  endfacet
  facet normal 0.195116 0.98078 0
    outer loop
      vertex 65.8263 31.9786 3
      vertex 66.147 31.9148 0
      vertex 65.8263 31.9786 0
    endloop
  endfacet
  facet normal -0.32136 0.946957 0
    outer loop
      vertex 41.853 31.9148 0
      vertex 41.5433 31.8097 3
      vertex 41.853 31.9148 3
    endloop
  endfacet
  facet normal -0.32136 0.946957 0
    outer loop
      vertex 41.5433 31.8097 3
      vertex 41.853 31.9148 0
      vertex 41.5433 31.8097 0
    endloop
  endfacet
  facet normal 0.831438 0.555617 0
    outer loop
      vertex 67.6651 30.75 3
      vertex 67.4834 31.0219 0
      vertex 67.4834 31.0219 3
    endloop
  endfacet
  facet normal 0.831438 0.555617 0
    outer loop
      vertex 67.4834 31.0219 0
      vertex 67.6651 30.75 3
      vertex 67.6651 30.75 0
    endloop
  endfacet
  facet normal 0.442191 0.896921 -0
    outer loop
      vertex 66.75 31.6651 0
      vertex 66.4567 31.8097 3
      vertex 66.75 31.6651 3
    endloop
  endfacet
  facet normal 0.442191 0.896921 0
    outer loop
      vertex 66.4567 31.8097 3
      vertex 66.75 31.6651 0
      vertex 66.4567 31.8097 0
    endloop
  endfacet
  facet normal 0.0654128 -0.997858 0
    outer loop
      vertex 65.5 8 0
      vertex 65.8263 8.02139 3
      vertex 65.5 8 3
    endloop
  endfacet
  facet normal 0.0654128 -0.997858 0
    outer loop
      vertex 65.8263 8.02139 3
      vertex 65.5 8 0
      vertex 65.8263 8.02139 0
    endloop
  endfacet
  facet normal 0.659279 -0.751898 0
    outer loop
      vertex 67.0219 8.51662 0
      vertex 67.2678 8.73223 3
      vertex 67.0219 8.51662 3
    endloop
  endfacet
  facet normal 0.659279 -0.751898 0
    outer loop
      vertex 67.2678 8.73223 3
      vertex 67.0219 8.51662 0
      vertex 67.2678 8.73223 0
    endloop
  endfacet
  facet normal 0.997856 -0.0654432 0
    outer loop
      vertex 67.9786 10.1737 3
      vertex 68 10.5 0
      vertex 68 10.5 3
    endloop
  endfacet
  facet normal 0.997856 -0.0654432 0
    outer loop
      vertex 68 10.5 0
      vertex 67.9786 10.1737 3
      vertex 67.9786 10.1737 0
    endloop
  endfacet
  facet normal 0.555617 0.831438 -0
    outer loop
      vertex 67.0219 31.4834 0
      vertex 66.75 31.6651 3
      vertex 67.0219 31.4834 3
    endloop
  endfacet
  facet normal 0.555617 0.831438 0
    outer loop
      vertex 66.75 31.6651 3
      vertex 67.0219 31.4834 0
      vertex 66.75 31.6651 0
    endloop
  endfacet
  facet normal 0.946957 0.32136 0
    outer loop
      vertex 67.9148 30.147 3
      vertex 67.8097 30.4567 0
      vertex 67.8097 30.4567 3
    endloop
  endfacet
  facet normal 0.946957 0.32136 0
    outer loop
      vertex 67.8097 30.4567 0
      vertex 67.9148 30.147 3
      vertex 67.9148 30.147 0
    endloop
  endfacet
  facet normal 0 0 -1
    outer loop
      vertex 65.5 8 0
      vertex 68 10.5 0
      vertex 67.9786 10.1737 0
    endloop
  endfacet
  facet normal -0 0 -1
    outer loop
      vertex 68 10.5 0
      vertex 65.5 8 0
      vertex 68 29.5 0
    endloop
  endfacet
  facet normal 0 0 -1
    outer loop
      vertex 65.5 8 0
      vertex 67.9786 10.1737 0
      vertex 67.9148 9.85295 0
    endloop
  endfacet
  facet normal 0 0 -1
    outer loop
      vertex 65.5 32 0
      vertex 68 29.5 0
      vertex 65.5 8 0
    endloop
  endfacet
  facet normal 0 0 -1
    outer loop
      vertex 65.5 8 0
      vertex 67.9148 9.85295 0
      vertex 67.8097 9.54329 0
    endloop
  endfacet
  facet normal 0 0 -1
    outer loop
      vertex 68 29.5 0
      vertex 65.5 32 0
      vertex 67.9786 29.8263 0
    endloop
  endfacet
  facet normal 0 0 -1
    outer loop
      vertex 65.5 8 0
      vertex 67.8097 9.54329 0
      vertex 67.6651 9.25 0
    endloop
  endfacet
  facet normal 0 0 -1
    outer loop
      vertex 67.9786 29.8263 0
      vertex 65.5 32 0
      vertex 67.9148 30.147 0
    endloop
  endfacet
  facet normal 0 0 -1
    outer loop
      vertex 65.5 8 0
      vertex 67.6651 9.25 0
      vertex 67.4834 8.9781 0
    endloop
  endfacet
  facet normal 0 0 -1
    outer loop
      vertex 67.9148 30.147 0
      vertex 65.5 32 0
      vertex 67.8097 30.4567 0
    endloop
  endfacet
  facet normal 0 0 -1
    outer loop
      vertex 65.5 8 0
      vertex 67.4834 8.9781 0
      vertex 67.2678 8.73223 0
    endloop
  endfacet
  facet normal 0 0 -1
    outer loop
      vertex 67.8097 30.4567 0
      vertex 65.5 32 0
      vertex 67.6651 30.75 0
    endloop
  endfacet
  facet normal 0 0 -1
    outer loop
      vertex 65.5 8 0
      vertex 67.2678 8.73223 0
      vertex 67.0219 8.51662 0
    endloop
  endfacet
  facet normal 0 0 -1
    outer loop
      vertex 67.6651 30.75 0
      vertex 65.5 32 0
      vertex 67.4834 31.0219 0
    endloop
  endfacet
  facet normal 0 0 -1
    outer loop
      vertex 65.5 8 0
      vertex 67.0219 8.51662 0
      vertex 66.75 8.33494 0
    endloop
  endfacet
  facet normal 0 0 -1
    outer loop
      vertex 67.4834 31.0219 0
      vertex 65.5 32 0
      vertex 67.2678 31.2678 0
    endloop
  endfacet
  facet normal 0 0 -1
    outer loop
      vertex 65.5 8 0
      vertex 66.75 8.33494 0
      vertex 66.4567 8.1903 0
    endloop
  endfacet
  facet normal 0 0 -1
    outer loop
      vertex 67.2678 31.2678 0
      vertex 65.5 32 0
      vertex 67.0219 31.4834 0
    endloop
  endfacet
  facet normal 0 0 -1
    outer loop
      vertex 65.5 8 0
      vertex 66.4567 8.1903 0
      vertex 66.147 8.08519 0
    endloop
  endfacet
  facet normal 0 0 -1
    outer loop
      vertex 67.0219 31.4834 0
      vertex 65.5 32 0
      vertex 66.75 31.6651 0
    endloop
  endfacet
  facet normal 0 0 -1
    outer loop
      vertex 65.5 8 0
      vertex 66.147 8.08519 0
      vertex 65.8263 8.02139 0
    endloop
  endfacet
  facet normal 0 0 -1
    outer loop
      vertex 66.75 31.6651 0
      vertex 65.5 32 0
      vertex 66.4567 31.8097 0
    endloop
  endfacet
  facet normal 0 0 -1
    outer loop
      vertex 66.4567 31.8097 0
      vertex 65.5 32 0
      vertex 66.147 31.9148 0
    endloop
  endfacet
  facet normal 0 0 -1
    outer loop
      vertex 66.147 31.9148 0
      vertex 65.5 32 0
      vertex 65.8263 31.9786 0
    endloop
  endfacet
  facet normal 0 0 -1
    outer loop
      vertex 42.5 8 0
      vertex 65.5 32 0
      vertex 65.5 8 0
    endloop
  endfacet
  facet normal 0 0 -1
    outer loop
      vertex 42.5 8 0
      vertex 42.5 32 0
      vertex 65.5 32 0
    endloop
  endfacet
  facet normal 0 0 -1
    outer loop
      vertex 40 10.5 0
      vertex 42.5 8 0
      vertex 42.1737 8.02139 0
    endloop
  endfacet
  facet normal 0 0 -1
    outer loop
      vertex 42.5 8 0
      vertex 40 10.5 0
      vertex 42.5 32 0
    endloop
  endfacet
  facet normal 0 0 -1
    outer loop
      vertex 40 10.5 0
      vertex 42.1737 8.02139 0
      vertex 41.853 8.08519 0
    endloop
  endfacet
  facet normal 0 0 -1
    outer loop
      vertex 40 29.5 0
      vertex 42.5 32 0
      vertex 40 10.5 0
    endloop
  endfacet
  facet normal 0 0 -1
    outer loop
      vertex 40 10.5 0
      vertex 41.853 8.08519 0
      vertex 41.5433 8.1903 0
    endloop
  endfacet
  facet normal 0 0 -1
    outer loop
      vertex 42.5 32 0
      vertex 40 29.5 0
      vertex 42.1737 31.9786 0
    endloop
  endfacet
  facet normal 0 0 -1
    outer loop
      vertex 40 10.5 0
      vertex 41.5433 8.1903 0
      vertex 41.25 8.33494 0
    endloop
  endfacet
  facet normal 0 0 -1
    outer loop
      vertex 42.1737 31.9786 0
      vertex 40 29.5 0
      vertex 41.853 31.9148 0
    endloop
  endfacet
  facet normal 0 0 -1
    outer loop
      vertex 40 10.5 0
      vertex 41.25 8.33494 0
      vertex 40.9781 8.51662 0
    endloop
  endfacet
  facet normal 0 0 -1
    outer loop
      vertex 41.853 31.9148 0
      vertex 40 29.5 0
      vertex 41.5433 31.8097 0
    endloop
  endfacet
  facet normal 0 0 -1
    outer loop
      vertex 40 10.5 0
      vertex 40.9781 8.51662 0
      vertex 40.7322 8.73223 0
    endloop
  endfacet
  facet normal 0 0 -1
    outer loop
      vertex 41.5433 31.8097 0
      vertex 40 29.5 0
      vertex 41.25 31.6651 0
    endloop
  endfacet
  facet normal 0 0 -1
    outer loop
      vertex 40 10.5 0
      vertex 40.7322 8.73223 0
      vertex 40.5166 8.9781 0
    endloop
  endfacet
  facet normal 0 0 -1
    outer loop
      vertex 41.25 31.6651 0
      vertex 40 29.5 0
      vertex 40.9781 31.4834 0
    endloop
  endfacet
  facet normal 0 0 -1
    outer loop
      vertex 40 10.5 0
      vertex 40.5166 8.9781 0
      vertex 40.3349 9.25 0
    endloop
  endfacet
  facet normal 0 0 -1
    outer loop
      vertex 40.9781 31.4834 0
      vertex 40 29.5 0
      vertex 40.7322 31.2678 0
    endloop
  endfacet
  facet normal 0 0 -1
    outer loop
      vertex 40 10.5 0
      vertex 40.3349 9.25 0
      vertex 40.1903 9.54329 0
    endloop
  endfacet
  facet normal 0 0 -1
    outer loop
      vertex 40.7322 31.2678 0
      vertex 40 29.5 0
      vertex 40.5166 31.0219 0
    endloop
  endfacet
  facet normal 0 0 -1
    outer loop
      vertex 40 10.5 0
      vertex 40.1903 9.54329 0
      vertex 40.0852 9.85295 0
    endloop
  endfacet
  facet normal 0 0 -1
    outer loop
      vertex 40.5166 31.0219 0
      vertex 40 29.5 0
      vertex 40.3349 30.75 0
    endloop
  endfacet
  facet normal 0 0 -1
    outer loop
      vertex 40 10.5 0
      vertex 40.0852 9.85295 0
      vertex 40.0214 10.1737 0
    endloop
  endfacet
  facet normal 0 0 -1
    outer loop
      vertex 40.3349 30.75 0
      vertex 40 29.5 0
      vertex 40.1903 30.4567 0
    endloop
  endfacet
  facet normal 0 0 -1
    outer loop
      vertex 40.1903 30.4567 0
      vertex 40 29.5 0
      vertex 40.0852 30.147 0
    endloop
  endfacet
  facet normal 0 0 -1
    outer loop
      vertex 40.0852 30.147 0
      vertex 40 29.5 0
      vertex 40.0214 29.8263 0
    endloop
  endfacet
  facet normal -0 0 1
    outer loop
      vertex 32 26 2.1
      vertex 40 14 2.1
      vertex 40 26 2.1
    endloop
  endfacet
  facet normal 0 0 1
    outer loop
      vertex 40 14 2.1
      vertex 32 26 2.1
      vertex 32 14 2.1
    endloop
  endfacet
  facet normal 0 0 -1
    outer loop
      vertex 32 14 0.9
      vertex 40 26 0.9
      vertex 40 14 0.9
    endloop
  endfacet
  facet normal -0 0 -1
    outer loop
      vertex 40 26 0.9
      vertex 32 14 0.9
      vertex 32 26 0.9
    endloop
  endfacet
  facet normal 0 1 -0
    outer loop
      vertex 40 26 0.9
      vertex 32 26 2.1
      vertex 40 26 2.1
    endloop
  endfacet
  facet normal 0 1 0
    outer loop
      vertex 32 26 2.1
      vertex 40 26 0.9
      vertex 32 26 0.9
    endloop
  endfacet
  facet normal 0 -1 0
    outer loop
      vertex 32 14 0.9
      vertex 40 14 2.1
      vertex 32 14 2.1
    endloop
  endfacet
  facet normal 0 -1 -0
    outer loop
      vertex 40 14 2.1
      vertex 32 14 0.9
      vertex 40 14 0.9
    endloop
  endfacet
endsolid OpenSCAD_Model
