solid OpenSCAD_Model
  facet normal 1 0 0
    outer loop
      vertex 78 27 10
      vertex 78 13 10
      vertex 78 27 3
    endloop
  endfacet
  facet normal 1 -0 0
    outer loop
      vertex 78 27 3
      vertex 78 30 0
      vertex 78 30 3
    endloop
  endfacet
  facet normal 1 0 0
    outer loop
      vertex 78 13 3
      vertex 78 27 3
      vertex 78 13 10
    endloop
  endfacet
  facet normal 1 0 0
    outer loop
      vertex 78 27 3
      vertex 78 13 3
      vertex 78 30 0
    endloop
  endfacet
  facet normal 1 0 0
    outer loop
      vertex 78 10 0
      vertex 78 13 3
      vertex 78 10 3
    endloop
  endfacet
  facet normal 1 0 0
    outer loop
      vertex 78 13 3
      vertex 78 10 0
      vertex 78 30 0
    endloop
  endfacet
  facet normal -0 0 1
    outer loop
      vertex 8 27 10
      vertex 78 13 10
      vertex 78 27 10
    endloop
  endfacet
  facet normal 0 0 1
    outer loop
      vertex 78 13 10
      vertex 8 27 10
      vertex 8 13 10
    endloop
  endfacet
  facet normal 0 0 -1
    outer loop
      vertex 8 10 0
      vertex 78 30 0
      vertex 78 10 0
    endloop
  endfacet
  facet normal -0 0 -1
    outer loop
      vertex 78 30 0
      vertex 8 10 0
      vertex 8 30 0
    endloop
  endfacet
  facet normal -1 0 0
    outer loop
      vertex 8 30 0
      vertex 8 27 3
      vertex 8 30 3
    endloop
  endfacet
  facet normal -1 0 0
    outer loop
      vertex 8 27 3
      vertex 8 13 3
      vertex 8 27 10
    endloop
  endfacet
  facet normal -1 0 0
    outer loop
      vertex 8 30 0
      vertex 8 13 3
      vertex 8 27 3
    endloop
  endfacet
  facet normal -1 0 0
    outer loop
      vertex 8 10 0
      vertex 8 13 3
      vertex 8 30 0
    endloop
  endfacet
  facet normal -1 -0 0
    outer loop
      vertex 8 13 3
      vertex 8 10 0
      vertex 8 10 3
    endloop
  endfacet
  facet normal -1 -0 0
    outer loop
      vertex 8 27 10
      vertex 8 13 3
      vertex 8 13 10
    endloop
  endfacet
  facet normal 0 1 -0
    outer loop
      vertex 78 27 3
      vertex 8 27 10
      vertex 78 27 10
    endloop
  endfacet
  facet normal 0 1 0
    outer loop
      vertex 8 27 10
      vertex 78 27 3
      vertex 8 27 3
    endloop
  endfacet
  facet normal 0 -1 0
    outer loop
      vertex 8 13 3
      vertex 78 13 10
      vertex 8 13 10
    endloop
  endfacet
  facet normal 0 -1 -0
    outer loop
      vertex 78 13 10
      vertex 8 13 3
      vertex 78 13 3
    endloop
  endfacet
  facet normal -0 0 1
    outer loop
      vertex 8 30 3
      vertex 78 27 3
      vertex 78 30 3
    endloop
  endfacet
  facet normal 0 0 1
    outer loop
      vertex 78 27 3
      vertex 8 30 3
      vertex 8 27 3
    endloop
  endfacet
  facet normal -0 0 1
    outer loop
      vertex 8 13 3
      vertex 78 10 3
      vertex 78 13 3
    endloop
  endfacet
  facet normal 0 0 1
    outer loop
      vertex 78 10 3
      vertex 8 13 3
      vertex 8 10 3
    endloop
  endfacet
  facet normal 0 1 -0
    outer loop
      vertex 78 30 0
      vertex 8 30 3
      vertex 78 30 3
    endloop
  endfacet
  facet normal 0 1 0
    outer loop
      vertex 8 30 3
      vertex 78 30 0
      vertex 8 30 0
    endloop
  endfacet
  facet normal 0 -1 0
    outer loop
      vertex 8 10 0
      vertex 78 10 3
      vertex 8 10 3
    endloop
  endfacet
  facet normal 0 -1 -0
    outer loop
      vertex 78 10 3
      vertex 8 10 0
      vertex 78 10 0
    endloop
  endfacet
  facet normal -1 0 0
    outer loop
      vertex 32 65.35 13.45
      vertex 32 66.85 0
      vertex 32 65.35 2.9
    endloop
  endfacet
  facet normal -1 0 0
    outer loop
      vertex 32 66.85 0
      vertex 32 50.65 2.9
      vertex 32 65.35 2.9
    endloop
  endfacet
  facet normal -1 -0 0
    outer loop
      vertex 32 50.65 2.9
      vertex 32 49.15 0
      vertex 32 50.65 13.45
    endloop
  endfacet
  facet normal -1 0 0
    outer loop
      vertex 32 49.15 0
      vertex 32 50.65 2.9
      vertex 32 66.85 0
    endloop
  endfacet
  facet normal -1 0 0
    outer loop
      vertex 32 66.85 0
      vertex 32 65.35 13.45
      vertex 32 66.85 17
    endloop
  endfacet
  facet normal -1 0 0
    outer loop
      vertex 32 50.65 13.45
      vertex 32 66.85 17
      vertex 32 65.35 13.45
    endloop
  endfacet
  facet normal -1 0 0
    outer loop
      vertex 32 50.65 13.45
      vertex 32 49.15 17
      vertex 32 66.85 17
    endloop
  endfacet
  facet normal -1 0 0
    outer loop
      vertex 32 49.15 17
      vertex 32 50.65 13.45
      vertex 32 49.15 0
    endloop
  endfacet
  facet normal 0.946957 0.32136 0
    outer loop
      vertex 61.9148 67.497 17
      vertex 61.8097 67.8067 0
      vertex 61.8097 67.8067 17
    endloop
  endfacet
  facet normal 0.946957 0.32136 0
    outer loop
      vertex 61.8097 67.8067 0
      vertex 61.9148 67.497 17
      vertex 61.9148 67.497 0
    endloop
  endfacet
  facet normal 0 1 -0
    outer loop
      vertex 59.5 69.35 0
      vertex 34.5 69.35 17
      vertex 59.5 69.35 17
    endloop
  endfacet
  facet normal 0 1 0
    outer loop
      vertex 34.5 69.35 17
      vertex 59.5 69.35 0
      vertex 34.5 69.35 0
    endloop
  endfacet
  facet normal -0.555617 -0.831438 0
    outer loop
      vertex 32.9781 47.1666 0
      vertex 33.25 46.9849 17
      vertex 32.9781 47.1666 17
    endloop
  endfacet
  facet normal -0.555617 -0.831438 -0
    outer loop
      vertex 33.25 46.9849 17
      vertex 32.9781 47.1666 0
      vertex 33.25 46.9849 0
    endloop
  endfacet
  facet normal 1 0 0
    outer loop
      vertex 62 66.85 17
      vertex 62 65.35 13.45
      vertex 62 66.85 0
    endloop
  endfacet
  facet normal 1 0 0
    outer loop
      vertex 62 66.85 17
      vertex 62 50.65 13.45
      vertex 62 65.35 13.45
    endloop
  endfacet
  facet normal 1 0 0
    outer loop
      vertex 62 49.15 0
      vertex 62 50.65 13.45
      vertex 62 49.15 17
    endloop
  endfacet
  facet normal 1 -0 0
    outer loop
      vertex 62 49.15 17
      vertex 62 50.65 13.45
      vertex 62 66.85 17
    endloop
  endfacet
  facet normal 1 -0 0
    outer loop
      vertex 62 65.35 2.9
      vertex 62 66.85 0
      vertex 62 65.35 13.45
    endloop
  endfacet
  facet normal 1 -0 0
    outer loop
      vertex 62 50.65 2.9
      vertex 62 66.85 0
      vertex 62 65.35 2.9
    endloop
  endfacet
  facet normal 1 0 0
    outer loop
      vertex 62 50.65 2.9
      vertex 62 49.15 0
      vertex 62 66.85 0
    endloop
  endfacet
  facet normal 1 0 0
    outer loop
      vertex 62 50.65 13.45
      vertex 62 49.15 0
      vertex 62 50.65 2.9
    endloop
  endfacet
  facet normal -0.946957 -0.32136 0
    outer loop
      vertex 32.1903 48.1933 0
      vertex 32.0852 48.503 17
      vertex 32.0852 48.503 0
    endloop
  endfacet
  facet normal -0.946957 -0.32136 0
    outer loop
      vertex 32.0852 48.503 17
      vertex 32.1903 48.1933 0
      vertex 32.1903 48.1933 17
    endloop
  endfacet
  facet normal 0.0654432 0.997856 -0
    outer loop
      vertex 59.8263 69.3286 0
      vertex 59.5 69.35 17
      vertex 59.8263 69.3286 17
    endloop
  endfacet
  facet normal 0.0654432 0.997856 0
    outer loop
      vertex 59.5 69.35 17
      vertex 59.8263 69.3286 0
      vertex 59.5 69.35 0
    endloop
  endfacet
  facet normal 0 -1 0
    outer loop
      vertex 34.5 46.65 0
      vertex 59.5 46.65 17
      vertex 34.5 46.65 17
    endloop
  endfacet
  facet normal 0 -1 -0
    outer loop
      vertex 59.5 46.65 17
      vertex 34.5 46.65 0
      vertex 59.5 46.65 0
    endloop
  endfacet
  facet normal -0.997856 0.0654432 0
    outer loop
      vertex 32 66.85 0
      vertex 32.0214 67.1763 17
      vertex 32.0214 67.1763 0
    endloop
  endfacet
  facet normal -0.997856 0.0654432 0
    outer loop
      vertex 32.0214 67.1763 17
      vertex 32 66.85 0
      vertex 32 66.85 17
    endloop
  endfacet
  facet normal -0.831438 -0.555617 0
    outer loop
      vertex 32.5166 47.6281 0
      vertex 32.3349 47.9 17
      vertex 32.3349 47.9 0
    endloop
  endfacet
  facet normal -0.831438 -0.555617 0
    outer loop
      vertex 32.3349 47.9 17
      vertex 32.5166 47.6281 0
      vertex 32.5166 47.6281 17
    endloop
  endfacet
  facet normal 0.195116 -0.98078 0
    outer loop
      vertex 59.8263 46.6714 0
      vertex 60.147 46.7352 17
      vertex 59.8263 46.6714 17
    endloop
  endfacet
  facet normal 0.195116 -0.98078 0
    outer loop
      vertex 60.147 46.7352 17
      vertex 59.8263 46.6714 0
      vertex 60.147 46.7352 0
    endloop
  endfacet
  facet normal 0.659262 0.751913 -0
    outer loop
      vertex 61.2678 68.6178 0
      vertex 61.0219 68.8334 17
      vertex 61.2678 68.6178 17
    endloop
  endfacet
  facet normal 0.659262 0.751913 0
    outer loop
      vertex 61.0219 68.8334 17
      vertex 61.2678 68.6178 0
      vertex 61.0219 68.8334 0
    endloop
  endfacet
  facet normal 0.946957 -0.32136 0
    outer loop
      vertex 61.8097 48.1933 17
      vertex 61.9148 48.503 0
      vertex 61.9148 48.503 17
    endloop
  endfacet
  facet normal 0.946957 -0.32136 0
    outer loop
      vertex 61.9148 48.503 0
      vertex 61.8097 48.1933 17
      vertex 61.8097 48.1933 0
    endloop
  endfacet
  facet normal -0.751913 0.659262 0
    outer loop
      vertex 32.5166 68.3719 0
      vertex 32.7322 68.6178 17
      vertex 32.7322 68.6178 0
    endloop
  endfacet
  facet normal -0.751913 0.659262 0
    outer loop
      vertex 32.7322 68.6178 17
      vertex 32.5166 68.3719 0
      vertex 32.5166 68.3719 17
    endloop
  endfacet
  facet normal -0.98078 0.195116 0
    outer loop
      vertex 32.0214 67.1763 0
      vertex 32.0852 67.497 17
      vertex 32.0852 67.497 0
    endloop
  endfacet
  facet normal -0.98078 0.195116 0
    outer loop
      vertex 32.0852 67.497 17
      vertex 32.0214 67.1763 0
      vertex 32.0214 67.1763 17
    endloop
  endfacet
  facet normal 0.751913 0.659262 0
    outer loop
      vertex 61.4834 68.3719 17
      vertex 61.2678 68.6178 0
      vertex 61.2678 68.6178 17
    endloop
  endfacet
  facet normal 0.751913 0.659262 0
    outer loop
      vertex 61.2678 68.6178 0
      vertex 61.4834 68.3719 17
      vertex 61.4834 68.3719 0
    endloop
  endfacet
  facet normal -0.751913 -0.659262 0
    outer loop
      vertex 32.7322 47.3822 0
      vertex 32.5166 47.6281 17
      vertex 32.5166 47.6281 0
    endloop
  endfacet
  facet normal -0.751913 -0.659262 0
    outer loop
      vertex 32.5166 47.6281 17
      vertex 32.7322 47.3822 0
      vertex 32.7322 47.3822 17
    endloop
  endfacet
  facet normal -0.896921 -0.442191 0
    outer loop
      vertex 32.3349 47.9 0
      vertex 32.1903 48.1933 17
      vertex 32.1903 48.1933 0
    endloop
  endfacet
  facet normal -0.896921 -0.442191 0
    outer loop
      vertex 32.1903 48.1933 17
      vertex 32.3349 47.9 0
      vertex 32.3349 47.9 17
    endloop
  endfacet
  facet normal 0 0 -1
    outer loop
      vertex 59.5 46.65 0
      vertex 62 49.15 0
      vertex 61.9786 48.8237 0
    endloop
  endfacet
  facet normal -0 0 -1
    outer loop
      vertex 62 49.15 0
      vertex 59.5 46.65 0
      vertex 62 66.85 0
    endloop
  endfacet
  facet normal 0 0 -1
    outer loop
      vertex 59.5 46.65 0
      vertex 61.9786 48.8237 0
      vertex 61.9148 48.503 0
    endloop
  endfacet
  facet normal 0 0 -1
    outer loop
      vertex 59.5 69.35 0
      vertex 62 66.85 0
      vertex 59.5 46.65 0
    endloop
  endfacet
  facet normal 0 0 -1
    outer loop
      vertex 59.5 46.65 0
      vertex 61.9148 48.503 0
      vertex 61.8097 48.1933 0
    endloop
  endfacet
  facet normal 0 0 -1
    outer loop
      vertex 62 66.85 0
      vertex 59.5 69.35 0
      vertex 61.9786 67.1763 0
    endloop
  endfacet
  facet normal 0 0 -1
    outer loop
      vertex 59.5 46.65 0
      vertex 61.8097 48.1933 0
      vertex 61.6651 47.9 0
    endloop
  endfacet
  facet normal 0 0 -1
    outer loop
      vertex 61.9786 67.1763 0
      vertex 59.5 69.35 0
      vertex 61.9148 67.497 0
    endloop
  endfacet
  facet normal 0 0 -1
    outer loop
      vertex 59.5 46.65 0
      vertex 61.6651 47.9 0
      vertex 61.4834 47.6281 0
    endloop
  endfacet
  facet normal 0 0 -1
    outer loop
      vertex 61.9148 67.497 0
      vertex 59.5 69.35 0
      vertex 61.8097 67.8067 0
    endloop
  endfacet
  facet normal 0 0 -1
    outer loop
      vertex 59.5 46.65 0
      vertex 61.4834 47.6281 0
      vertex 61.2678 47.3822 0
    endloop
  endfacet
  facet normal 0 0 -1
    outer loop
      vertex 61.8097 67.8067 0
      vertex 59.5 69.35 0
      vertex 61.6651 68.1 0
    endloop
  endfacet
  facet normal 0 0 -1
    outer loop
      vertex 59.5 46.65 0
      vertex 61.2678 47.3822 0
      vertex 61.0219 47.1666 0
    endloop
  endfacet
  facet normal 0 0 -1
    outer loop
      vertex 61.6651 68.1 0
      vertex 59.5 69.35 0
      vertex 61.4834 68.3719 0
    endloop
  endfacet
  facet normal 0 0 -1
    outer loop
      vertex 59.5 46.65 0
      vertex 61.0219 47.1666 0
      vertex 60.75 46.9849 0
    endloop
  endfacet
  facet normal 0 0 -1
    outer loop
      vertex 61.4834 68.3719 0
      vertex 59.5 69.35 0
      vertex 61.2678 68.6178 0
    endloop
  endfacet
  facet normal 0 0 -1
    outer loop
      vertex 59.5 46.65 0
      vertex 60.75 46.9849 0
      vertex 60.4567 46.8403 0
    endloop
  endfacet
  facet normal 0 0 -1
    outer loop
      vertex 61.2678 68.6178 0
      vertex 59.5 69.35 0
      vertex 61.0219 68.8334 0
    endloop
  endfacet
  facet normal 0 0 -1
    outer loop
      vertex 59.5 46.65 0
      vertex 60.4567 46.8403 0
      vertex 60.147 46.7352 0
    endloop
  endfacet
  facet normal 0 0 -1
    outer loop
      vertex 61.0219 68.8334 0
      vertex 59.5 69.35 0
      vertex 60.75 69.0151 0
    endloop
  endfacet
  facet normal 0 0 -1
    outer loop
      vertex 59.5 46.65 0
      vertex 60.147 46.7352 0
      vertex 59.8263 46.6714 0
    endloop
  endfacet
  facet normal 0 0 -1
    outer loop
      vertex 60.75 69.0151 0
      vertex 59.5 69.35 0
      vertex 60.4567 69.1597 0
    endloop
  endfacet
  facet normal 0 0 -1
    outer loop
      vertex 60.4567 69.1597 0
      vertex 59.5 69.35 0
      vertex 60.147 69.2648 0
    endloop
  endfacet
  facet normal 0 0 -1
    outer loop
      vertex 60.147 69.2648 0
      vertex 59.5 69.35 0
      vertex 59.8263 69.3286 0
    endloop
  endfacet
  facet normal 0 0 -1
    outer loop
      vertex 34.5 46.65 0
      vertex 59.5 69.35 0
      vertex 59.5 46.65 0
    endloop
  endfacet
  facet normal 0 0 -1
    outer loop
      vertex 34.5 46.65 0
      vertex 34.5 69.35 0
      vertex 59.5 69.35 0
    endloop
  endfacet
  facet normal 0 0 -1
    outer loop
      vertex 32 49.15 0
      vertex 34.5 46.65 0
      vertex 34.1737 46.6714 0
    endloop
  endfacet
  facet normal 0 0 -1
    outer loop
      vertex 34.5 46.65 0
      vertex 32 49.15 0
      vertex 34.5 69.35 0
    endloop
  endfacet
  facet normal 0 0 -1
    outer loop
      vertex 32 49.15 0
      vertex 34.1737 46.6714 0
      vertex 33.853 46.7352 0
    endloop
  endfacet
  facet normal 0 0 -1
    outer loop
      vertex 32 66.85 0
      vertex 34.5 69.35 0
      vertex 32 49.15 0
    endloop
  endfacet
  facet normal 0 0 -1
    outer loop
      vertex 32 49.15 0
      vertex 33.853 46.7352 0
      vertex 33.5433 46.8403 0
    endloop
  endfacet
  facet normal 0 0 -1
    outer loop
      vertex 34.5 69.35 0
      vertex 32 66.85 0
      vertex 34.1737 69.3286 0
    endloop
  endfacet
  facet normal 0 0 -1
    outer loop
      vertex 32 49.15 0
      vertex 33.5433 46.8403 0
      vertex 33.25 46.9849 0
    endloop
  endfacet
  facet normal 0 0 -1
    outer loop
      vertex 34.1737 69.3286 0
      vertex 32 66.85 0
      vertex 33.853 69.2648 0
    endloop
  endfacet
  facet normal 0 0 -1
    outer loop
      vertex 32 49.15 0
      vertex 33.25 46.9849 0
      vertex 32.9781 47.1666 0
    endloop
  endfacet
  facet normal 0 0 -1
    outer loop
      vertex 33.853 69.2648 0
      vertex 32 66.85 0
      vertex 33.5433 69.1597 0
    endloop
  endfacet
  facet normal 0 0 -1
    outer loop
      vertex 32 49.15 0
      vertex 32.9781 47.1666 0
      vertex 32.7322 47.3822 0
    endloop
  endfacet
  facet normal 0 0 -1
    outer loop
      vertex 33.5433 69.1597 0
      vertex 32 66.85 0
      vertex 33.25 69.0151 0
    endloop
  endfacet
  facet normal 0 0 -1
    outer loop
      vertex 32 49.15 0
      vertex 32.7322 47.3822 0
      vertex 32.5166 47.6281 0
    endloop
  endfacet
  facet normal 0 0 -1
    outer loop
      vertex 33.25 69.0151 0
      vertex 32 66.85 0
      vertex 32.9781 68.8334 0
    endloop
  endfacet
  facet normal 0 0 -1
    outer loop
      vertex 32 49.15 0
      vertex 32.5166 47.6281 0
      vertex 32.3349 47.9 0
    endloop
  endfacet
  facet normal 0 0 -1
    outer loop
      vertex 32.9781 68.8334 0
      vertex 32 66.85 0
      vertex 32.7322 68.6178 0
    endloop
  endfacet
  facet normal 0 0 -1
    outer loop
      vertex 32 49.15 0
      vertex 32.3349 47.9 0
      vertex 32.1903 48.1933 0
    endloop
  endfacet
  facet normal 0 0 -1
    outer loop
      vertex 32.7322 68.6178 0
      vertex 32 66.85 0
      vertex 32.5166 68.3719 0
    endloop
  endfacet
  facet normal 0 0 -1
    outer loop
      vertex 32 49.15 0
      vertex 32.1903 48.1933 0
      vertex 32.0852 48.503 0
    endloop
  endfacet
  facet normal 0 0 -1
    outer loop
      vertex 32.5166 68.3719 0
      vertex 32 66.85 0
      vertex 32.3349 68.1 0
    endloop
  endfacet
  facet normal 0 0 -1
    outer loop
      vertex 32 49.15 0
      vertex 32.0852 48.503 0
      vertex 32.0214 48.8237 0
    endloop
  endfacet
  facet normal 0 0 -1
    outer loop
      vertex 32.3349 68.1 0
      vertex 32 66.85 0
      vertex 32.1903 67.8067 0
    endloop
  endfacet
  facet normal 0 0 -1
    outer loop
      vertex 32.1903 67.8067 0
      vertex 32 66.85 0
      vertex 32.0852 67.497 0
    endloop
  endfacet
  facet normal 0 0 -1
    outer loop
      vertex 32.0852 67.497 0
      vertex 32 66.85 0
      vertex 32.0214 67.1763 0
    endloop
  endfacet
  facet normal 0.0654432 -0.997856 0
    outer loop
      vertex 59.5 46.65 0
      vertex 59.8263 46.6714 17
      vertex 59.5 46.65 17
    endloop
  endfacet
  facet normal 0.0654432 -0.997856 0
    outer loop
      vertex 59.8263 46.6714 17
      vertex 59.5 46.65 0
      vertex 59.8263 46.6714 0
    endloop
  endfacet
  facet normal 0.831438 0.555617 0
    outer loop
      vertex 61.6651 68.1 17
      vertex 61.4834 68.3719 0
      vertex 61.4834 68.3719 17
    endloop
  endfacet
  facet normal 0.831438 0.555617 0
    outer loop
      vertex 61.4834 68.3719 0
      vertex 61.6651 68.1 17
      vertex 61.6651 68.1 0
    endloop
  endfacet
  facet normal 0 0 1
    outer loop
      vertex 59 64.5 17
      vertex 62 66.85 17
      vertex 61.9786 67.1763 17
    endloop
  endfacet
  facet normal 0 0 1
    outer loop
      vertex 62 66.85 17
      vertex 59 64.5 17
      vertex 62 49.15 17
    endloop
  endfacet
  facet normal 0 0 1
    outer loop
      vertex 59 64.5 17
      vertex 61.9786 67.1763 17
      vertex 61.9148 67.497 17
    endloop
  endfacet
  facet normal -0 0 1
    outer loop
      vertex 59 51.5 17
      vertex 62 49.15 17
      vertex 59 64.5 17
    endloop
  endfacet
  facet normal 0 0 1
    outer loop
      vertex 59 64.5 17
      vertex 61.9148 67.497 17
      vertex 61.8097 67.8067 17
    endloop
  endfacet
  facet normal 0 0 1
    outer loop
      vertex 62 49.15 17
      vertex 59 51.5 17
      vertex 61.9786 48.8237 17
    endloop
  endfacet
  facet normal 0 0 1
    outer loop
      vertex 59 64.5 17
      vertex 61.8097 67.8067 17
      vertex 61.6651 68.1 17
    endloop
  endfacet
  facet normal 0 0 1
    outer loop
      vertex 61.9786 48.8237 17
      vertex 59 51.5 17
      vertex 61.9148 48.503 17
    endloop
  endfacet
  facet normal 0 0 1
    outer loop
      vertex 59 64.5 17
      vertex 61.6651 68.1 17
      vertex 61.4834 68.3719 17
    endloop
  endfacet
  facet normal 0 0 1
    outer loop
      vertex 61.9148 48.503 17
      vertex 59 51.5 17
      vertex 61.8097 48.1933 17
    endloop
  endfacet
  facet normal 0 0 1
    outer loop
      vertex 59 64.5 17
      vertex 61.4834 68.3719 17
      vertex 61.2678 68.6178 17
    endloop
  endfacet
  facet normal 0 0 1
    outer loop
      vertex 61.8097 48.1933 17
      vertex 59 51.5 17
      vertex 61.6651 47.9 17
    endloop
  endfacet
  facet normal 0 0 1
    outer loop
      vertex 59 64.5 17
      vertex 61.2678 68.6178 17
      vertex 61.0219 68.8334 17
    endloop
  endfacet
  facet normal 0 0 1
    outer loop
      vertex 61.6651 47.9 17
      vertex 59 51.5 17
      vertex 61.4834 47.6281 17
    endloop
  endfacet
  facet normal 0 0 1
    outer loop
      vertex 59 64.5 17
      vertex 61.0219 68.8334 17
      vertex 60.75 69.0151 17
    endloop
  endfacet
  facet normal 0 0 1
    outer loop
      vertex 61.4834 47.6281 17
      vertex 59 51.5 17
      vertex 61.2678 47.3822 17
    endloop
  endfacet
  facet normal 0 0 1
    outer loop
      vertex 59 64.5 17
      vertex 60.75 69.0151 17
      vertex 60.4567 69.1597 17
    endloop
  endfacet
  facet normal 0 0 1
    outer loop
      vertex 61.2678 47.3822 17
      vertex 59 51.5 17
      vertex 61.0219 47.1666 17
    endloop
  endfacet
  facet normal 0 0 1
    outer loop
      vertex 59 64.5 17
      vertex 60.4567 69.1597 17
      vertex 60.147 69.2648 17
    endloop
  endfacet
  facet normal 0 0 1
    outer loop
      vertex 61.0219 47.1666 17
      vertex 59 51.5 17
      vertex 60.75 46.9849 17
    endloop
  endfacet
  facet normal 0 0 1
    outer loop
      vertex 59 64.5 17
      vertex 60.147 69.2648 17
      vertex 59.8263 69.3286 17
    endloop
  endfacet
  facet normal 0 0 1
    outer loop
      vertex 60.75 46.9849 17
      vertex 59 51.5 17
      vertex 60.4567 46.8403 17
    endloop
  endfacet
  facet normal 0 0 1
    outer loop
      vertex 59 64.5 17
      vertex 59.8263 69.3286 17
      vertex 59.5 69.35 17
    endloop
  endfacet
  facet normal 0 0 1
    outer loop
      vertex 60.4567 46.8403 17
      vertex 59 51.5 17
      vertex 60.147 46.7352 17
    endloop
  endfacet
  facet normal 0 0 1
    outer loop
      vertex 60.147 46.7352 17
      vertex 59 51.5 17
      vertex 59.8263 46.6714 17
    endloop
  endfacet
  facet normal 0 0 1
    outer loop
      vertex 59.5 69.35 17
      vertex 51 64.5 17
      vertex 59 64.5 17
    endloop
  endfacet
  facet normal 0 0 1
    outer loop
      vertex 51 64.5 17
      vertex 43 64.5 17
      vertex 51 51.5 17
    endloop
  endfacet
  facet normal 0 0 1
    outer loop
      vertex 59.5 69.35 17
      vertex 43 64.5 17
      vertex 51 64.5 17
    endloop
  endfacet
  facet normal -0 0 1
    outer loop
      vertex 34.5 69.35 17
      vertex 43 64.5 17
      vertex 59.5 69.35 17
    endloop
  endfacet
  facet normal -0 0 1
    outer loop
      vertex 34.1737 69.3286 17
      vertex 35 64.5 17
      vertex 34.5 69.35 17
    endloop
  endfacet
  facet normal 0 0 1
    outer loop
      vertex 43 64.5 17
      vertex 34.5 69.35 17
      vertex 35 64.5 17
    endloop
  endfacet
  facet normal 0 0 1
    outer loop
      vertex 59.8263 46.6714 17
      vertex 59 51.5 17
      vertex 59.5 46.65 17
    endloop
  endfacet
  facet normal -0 0 1
    outer loop
      vertex 51 51.5 17
      vertex 59.5 46.65 17
      vertex 59 51.5 17
    endloop
  endfacet
  facet normal 0 0 1
    outer loop
      vertex 43 51.5 17
      vertex 51 51.5 17
      vertex 43 64.5 17
    endloop
  endfacet
  facet normal -0 0 1
    outer loop
      vertex 43 51.5 17
      vertex 59.5 46.65 17
      vertex 51 51.5 17
    endloop
  endfacet
  facet normal 0 0 1
    outer loop
      vertex 34.5 46.65 17
      vertex 43 51.5 17
      vertex 35 51.5 17
    endloop
  endfacet
  facet normal 0 0 1
    outer loop
      vertex 43 51.5 17
      vertex 34.5 46.65 17
      vertex 59.5 46.65 17
    endloop
  endfacet
  facet normal 0 0 1
    outer loop
      vertex 35 64.5 17
      vertex 32 66.85 17
      vertex 35 51.5 17
    endloop
  endfacet
  facet normal -0 0 1
    outer loop
      vertex 33.853 69.2648 17
      vertex 35 64.5 17
      vertex 34.1737 69.3286 17
    endloop
  endfacet
  facet normal 0 0 1
    outer loop
      vertex 32 49.15 17
      vertex 35 51.5 17
      vertex 32 66.85 17
    endloop
  endfacet
  facet normal -0 0 1
    outer loop
      vertex 33.5433 69.1597 17
      vertex 35 64.5 17
      vertex 33.853 69.2648 17
    endloop
  endfacet
  facet normal 0 -0 1
    outer loop
      vertex 32.5166 47.6281 17
      vertex 35 51.5 17
      vertex 32 49.15 17
    endloop
  endfacet
  facet normal -0 0 1
    outer loop
      vertex 33.25 69.0151 17
      vertex 35 64.5 17
      vertex 33.5433 69.1597 17
    endloop
  endfacet
  facet normal 0 0 1
    outer loop
      vertex 35 51.5 17
      vertex 34.1737 46.6714 17
      vertex 34.5 46.65 17
    endloop
  endfacet
  facet normal -0 0 1
    outer loop
      vertex 32.9781 68.8334 17
      vertex 35 64.5 17
      vertex 33.25 69.0151 17
    endloop
  endfacet
  facet normal 0 0 1
    outer loop
      vertex 35 51.5 17
      vertex 33.853 46.7352 17
      vertex 34.1737 46.6714 17
    endloop
  endfacet
  facet normal -0 0 1
    outer loop
      vertex 32.7322 68.6178 17
      vertex 35 64.5 17
      vertex 32.9781 68.8334 17
    endloop
  endfacet
  facet normal 0 0 1
    outer loop
      vertex 35 51.5 17
      vertex 33.5433 46.8403 17
      vertex 33.853 46.7352 17
    endloop
  endfacet
  facet normal -0 0 1
    outer loop
      vertex 32.5166 68.3719 17
      vertex 35 64.5 17
      vertex 32.7322 68.6178 17
    endloop
  endfacet
  facet normal 0 0 1
    outer loop
      vertex 35 51.5 17
      vertex 33.25 46.9849 17
      vertex 33.5433 46.8403 17
    endloop
  endfacet
  facet normal 0 0 1
    outer loop
      vertex 35 64.5 17
      vertex 32.5166 68.3719 17
      vertex 32 66.85 17
    endloop
  endfacet
  facet normal 0 0 1
    outer loop
      vertex 35 51.5 17
      vertex 32.9781 47.1666 17
      vertex 33.25 46.9849 17
    endloop
  endfacet
  facet normal 0 0 1
    outer loop
      vertex 32 66.85 17
      vertex 32.5166 68.3719 17
      vertex 32.3349 68.1 17
    endloop
  endfacet
  facet normal 0 0 1
    outer loop
      vertex 35 51.5 17
      vertex 32.7322 47.3822 17
      vertex 32.9781 47.1666 17
    endloop
  endfacet
  facet normal 0 0 1
    outer loop
      vertex 32 66.85 17
      vertex 32.3349 68.1 17
      vertex 32.1903 67.8067 17
    endloop
  endfacet
  facet normal 0 0 1
    outer loop
      vertex 35 51.5 17
      vertex 32.5166 47.6281 17
      vertex 32.7322 47.3822 17
    endloop
  endfacet
  facet normal 0 0 1
    outer loop
      vertex 32 66.85 17
      vertex 32.1903 67.8067 17
      vertex 32.0852 67.497 17
    endloop
  endfacet
  facet normal 0 0 1
    outer loop
      vertex 32.5166 47.6281 17
      vertex 32 49.15 17
      vertex 32.3349 47.9 17
    endloop
  endfacet
  facet normal 0 0 1
    outer loop
      vertex 32 66.85 17
      vertex 32.0852 67.497 17
      vertex 32.0214 67.1763 17
    endloop
  endfacet
  facet normal 0 0 1
    outer loop
      vertex 32.3349 47.9 17
      vertex 32 49.15 17
      vertex 32.1903 48.1933 17
    endloop
  endfacet
  facet normal 0 0 1
    outer loop
      vertex 32.1903 48.1933 17
      vertex 32 49.15 17
      vertex 32.0852 48.503 17
    endloop
  endfacet
  facet normal 0 0 1
    outer loop
      vertex 32.0852 48.503 17
      vertex 32 49.15 17
      vertex 32.0214 48.8237 17
    endloop
  endfacet
  facet normal 0.896921 0.442191 0
    outer loop
      vertex 61.8097 67.8067 17
      vertex 61.6651 68.1 0
      vertex 61.6651 68.1 17
    endloop
  endfacet
  facet normal 0.896921 0.442191 0
    outer loop
      vertex 61.6651 68.1 0
      vertex 61.8097 67.8067 17
      vertex 61.8097 67.8067 0
    endloop
  endfacet
  facet normal 0.442191 -0.896921 0
    outer loop
      vertex 60.4567 46.8403 0
      vertex 60.75 46.9849 17
      vertex 60.4567 46.8403 17
    endloop
  endfacet
  facet normal 0.442191 -0.896921 0
    outer loop
      vertex 60.75 46.9849 17
      vertex 60.4567 46.8403 0
      vertex 60.75 46.9849 0
    endloop
  endfacet
  facet normal 0.997856 0.0654432 0
    outer loop
      vertex 62 66.85 17
      vertex 61.9786 67.1763 0
      vertex 61.9786 67.1763 17
    endloop
  endfacet
  facet normal 0.997856 0.0654432 0
    outer loop
      vertex 61.9786 67.1763 0
      vertex 62 66.85 17
      vertex 62 66.85 0
    endloop
  endfacet
  facet normal -0.0654432 -0.997856 0
    outer loop
      vertex 34.1737 46.6714 0
      vertex 34.5 46.65 17
      vertex 34.1737 46.6714 17
    endloop
  endfacet
  facet normal -0.0654432 -0.997856 -0
    outer loop
      vertex 34.5 46.65 17
      vertex 34.1737 46.6714 0
      vertex 34.5 46.65 0
    endloop
  endfacet
  facet normal -0.0654432 0.997856 0
    outer loop
      vertex 34.5 69.35 0
      vertex 34.1737 69.3286 17
      vertex 34.5 69.35 17
    endloop
  endfacet
  facet normal -0.0654432 0.997856 0
    outer loop
      vertex 34.1737 69.3286 17
      vertex 34.5 69.35 0
      vertex 34.1737 69.3286 0
    endloop
  endfacet
  facet normal -0.32136 0.946957 0
    outer loop
      vertex 33.853 69.2648 0
      vertex 33.5433 69.1597 17
      vertex 33.853 69.2648 17
    endloop
  endfacet
  facet normal -0.32136 0.946957 0
    outer loop
      vertex 33.5433 69.1597 17
      vertex 33.853 69.2648 0
      vertex 33.5433 69.1597 0
    endloop
  endfacet
  facet normal 0.896921 -0.442191 0
    outer loop
      vertex 61.6651 47.9 17
      vertex 61.8097 48.1933 0
      vertex 61.8097 48.1933 17
    endloop
  endfacet
  facet normal 0.896921 -0.442191 0
    outer loop
      vertex 61.8097 48.1933 0
      vertex 61.6651 47.9 17
      vertex 61.6651 47.9 0
    endloop
  endfacet
  facet normal -0.195116 0.98078 0
    outer loop
      vertex 34.1737 69.3286 0
      vertex 33.853 69.2648 17
      vertex 34.1737 69.3286 17
    endloop
  endfacet
  facet normal -0.195116 0.98078 0
    outer loop
      vertex 33.853 69.2648 17
      vertex 34.1737 69.3286 0
      vertex 33.853 69.2648 0
    endloop
  endfacet
  facet normal 0.32136 0.946957 -0
    outer loop
      vertex 60.4567 69.1597 0
      vertex 60.147 69.2648 17
      vertex 60.4567 69.1597 17
    endloop
  endfacet
  facet normal 0.32136 0.946957 0
    outer loop
      vertex 60.147 69.2648 17
      vertex 60.4567 69.1597 0
      vertex 60.147 69.2648 0
    endloop
  endfacet
  facet normal -0.32136 -0.946957 0
    outer loop
      vertex 33.5433 46.8403 0
      vertex 33.853 46.7352 17
      vertex 33.5433 46.8403 17
    endloop
  endfacet
  facet normal -0.32136 -0.946957 -0
    outer loop
      vertex 33.853 46.7352 17
      vertex 33.5433 46.8403 0
      vertex 33.853 46.7352 0
    endloop
  endfacet
  facet normal -0.659262 0.751913 0
    outer loop
      vertex 32.9781 68.8334 0
      vertex 32.7322 68.6178 17
      vertex 32.9781 68.8334 17
    endloop
  endfacet
  facet normal -0.659262 0.751913 0
    outer loop
      vertex 32.7322 68.6178 17
      vertex 32.9781 68.8334 0
      vertex 32.7322 68.6178 0
    endloop
  endfacet
  facet normal 0.659262 -0.751913 0
    outer loop
      vertex 61.0219 47.1666 0
      vertex 61.2678 47.3822 17
      vertex 61.0219 47.1666 17
    endloop
  endfacet
  facet normal 0.659262 -0.751913 0
    outer loop
      vertex 61.2678 47.3822 17
      vertex 61.0219 47.1666 0
      vertex 61.2678 47.3822 0
    endloop
  endfacet
  facet normal 0.98078 0.195116 0
    outer loop
      vertex 61.9786 67.1763 17
      vertex 61.9148 67.497 0
      vertex 61.9148 67.497 17
    endloop
  endfacet
  facet normal 0.98078 0.195116 0
    outer loop
      vertex 61.9148 67.497 0
      vertex 61.9786 67.1763 17
      vertex 61.9786 67.1763 0
    endloop
  endfacet
  facet normal -0.997856 -0.0654432 0
    outer loop
      vertex 32.0214 48.8237 0
      vertex 32 49.15 17
      vertex 32 49.15 0
    endloop
  endfacet
  facet normal -0.997856 -0.0654432 0
    outer loop
      vertex 32 49.15 17
      vertex 32.0214 48.8237 0
      vertex 32.0214 48.8237 17
    endloop
  endfacet
  facet normal 0.32136 -0.946957 0
    outer loop
      vertex 60.147 46.7352 0
      vertex 60.4567 46.8403 17
      vertex 60.147 46.7352 17
    endloop
  endfacet
  facet normal 0.32136 -0.946957 0
    outer loop
      vertex 60.4567 46.8403 17
      vertex 60.147 46.7352 0
      vertex 60.4567 46.8403 0
    endloop
  endfacet
  facet normal 0.195116 0.98078 -0
    outer loop
      vertex 60.147 69.2648 0
      vertex 59.8263 69.3286 17
      vertex 60.147 69.2648 17
    endloop
  endfacet
  facet normal 0.195116 0.98078 0
    outer loop
      vertex 59.8263 69.3286 17
      vertex 60.147 69.2648 0
      vertex 59.8263 69.3286 0
    endloop
  endfacet
  facet normal -0.195116 -0.98078 0
    outer loop
      vertex 33.853 46.7352 0
      vertex 34.1737 46.6714 17
      vertex 33.853 46.7352 17
    endloop
  endfacet
  facet normal -0.195116 -0.98078 -0
    outer loop
      vertex 34.1737 46.6714 17
      vertex 33.853 46.7352 0
      vertex 34.1737 46.6714 0
    endloop
  endfacet
  facet normal 0.997856 -0.0654432 0
    outer loop
      vertex 61.9786 48.8237 17
      vertex 62 49.15 0
      vertex 62 49.15 17
    endloop
  endfacet
  facet normal 0.997856 -0.0654432 0
    outer loop
      vertex 62 49.15 0
      vertex 61.9786 48.8237 17
      vertex 61.9786 48.8237 0
    endloop
  endfacet
  facet normal 0.555617 -0.831438 0
    outer loop
      vertex 60.75 46.9849 0
      vertex 61.0219 47.1666 17
      vertex 60.75 46.9849 17
    endloop
  endfacet
  facet normal 0.555617 -0.831438 0
    outer loop
      vertex 61.0219 47.1666 17
      vertex 60.75 46.9849 0
      vertex 61.0219 47.1666 0
    endloop
  endfacet
  facet normal 0.442191 0.896921 -0
    outer loop
      vertex 60.75 69.0151 0
      vertex 60.4567 69.1597 17
      vertex 60.75 69.0151 17
    endloop
  endfacet
  facet normal 0.442191 0.896921 0
    outer loop
      vertex 60.4567 69.1597 17
      vertex 60.75 69.0151 0
      vertex 60.4567 69.1597 0
    endloop
  endfacet
  facet normal -0.659262 -0.751913 0
    outer loop
      vertex 32.7322 47.3822 0
      vertex 32.9781 47.1666 17
      vertex 32.7322 47.3822 17
    endloop
  endfacet
  facet normal -0.659262 -0.751913 -0
    outer loop
      vertex 32.9781 47.1666 17
      vertex 32.7322 47.3822 0
      vertex 32.9781 47.1666 0
    endloop
  endfacet
  facet normal -0.442191 0.896921 0
    outer loop
      vertex 33.5433 69.1597 0
      vertex 33.25 69.0151 17
      vertex 33.5433 69.1597 17
    endloop
  endfacet
  facet normal -0.442191 0.896921 0
    outer loop
      vertex 33.25 69.0151 17
      vertex 33.5433 69.1597 0
      vertex 33.25 69.0151 0
    endloop
  endfacet
  facet normal -0.946957 0.32136 0
    outer loop
      vertex 32.0852 67.497 0
      vertex 32.1903 67.8067 17
      vertex 32.1903 67.8067 0
    endloop
  endfacet
  facet normal -0.946957 0.32136 0
    outer loop
      vertex 32.1903 67.8067 17
      vertex 32.0852 67.497 0
      vertex 32.0852 67.497 17
    endloop
  endfacet
  facet normal -0.896921 0.442191 0
    outer loop
      vertex 32.1903 67.8067 0
      vertex 32.3349 68.1 17
      vertex 32.3349 68.1 0
    endloop
  endfacet
  facet normal -0.896921 0.442191 0
    outer loop
      vertex 32.3349 68.1 17
      vertex 32.1903 67.8067 0
      vertex 32.1903 67.8067 17
    endloop
  endfacet
  facet normal 0.751913 -0.659262 0
    outer loop
      vertex 61.2678 47.3822 17
      vertex 61.4834 47.6281 0
      vertex 61.4834 47.6281 17
    endloop
  endfacet
  facet normal 0.751913 -0.659262 0
    outer loop
      vertex 61.4834 47.6281 0
      vertex 61.2678 47.3822 17
      vertex 61.2678 47.3822 0
    endloop
  endfacet
  facet normal -0.555617 0.831438 0
    outer loop
      vertex 33.25 69.0151 0
      vertex 32.9781 68.8334 17
      vertex 33.25 69.0151 17
    endloop
  endfacet
  facet normal -0.555617 0.831438 0
    outer loop
      vertex 32.9781 68.8334 17
      vertex 33.25 69.0151 0
      vertex 32.9781 68.8334 0
    endloop
  endfacet
  facet normal 0.831438 -0.555617 0
    outer loop
      vertex 61.4834 47.6281 17
      vertex 61.6651 47.9 0
      vertex 61.6651 47.9 17
    endloop
  endfacet
  facet normal 0.831438 -0.555617 0
    outer loop
      vertex 61.6651 47.9 0
      vertex 61.4834 47.6281 17
      vertex 61.4834 47.6281 0
    endloop
  endfacet
  facet normal 0.555617 0.831438 -0
    outer loop
      vertex 61.0219 68.8334 0
      vertex 60.75 69.0151 17
      vertex 61.0219 68.8334 17
    endloop
  endfacet
  facet normal 0.555617 0.831438 0
    outer loop
      vertex 60.75 69.0151 17
      vertex 61.0219 68.8334 0
      vertex 60.75 69.0151 0
    endloop
  endfacet
  facet normal -0.442191 -0.896921 0
    outer loop
      vertex 33.25 46.9849 0
      vertex 33.5433 46.8403 17
      vertex 33.25 46.9849 17
    endloop
  endfacet
  facet normal -0.442191 -0.896921 -0
    outer loop
      vertex 33.5433 46.8403 17
      vertex 33.25 46.9849 0
      vertex 33.5433 46.8403 0
    endloop
  endfacet
  facet normal 0.98078 -0.195116 0
    outer loop
      vertex 61.9148 48.503 17
      vertex 61.9786 48.8237 0
      vertex 61.9786 48.8237 17
    endloop
  endfacet
  facet normal 0.98078 -0.195116 0
    outer loop
      vertex 61.9786 48.8237 0
      vertex 61.9148 48.503 17
      vertex 61.9148 48.503 0
    endloop
  endfacet
  facet normal -0.98078 -0.195116 0
    outer loop
      vertex 32.0852 48.503 0
      vertex 32.0214 48.8237 17
      vertex 32.0214 48.8237 0
    endloop
  endfacet
  facet normal -0.98078 -0.195116 0
    outer loop
      vertex 32.0214 48.8237 17
      vertex 32.0852 48.503 0
      vertex 32.0852 48.503 17
    endloop
  endfacet
  facet normal -0.831438 0.555617 0
    outer loop
      vertex 32.3349 68.1 0
      vertex 32.5166 68.3719 17
      vertex 32.5166 68.3719 0
    endloop
  endfacet
  facet normal -0.831438 0.555617 0
    outer loop
      vertex 32.5166 68.3719 17
      vertex 32.3349 68.1 0
      vertex 32.3349 68.1 17
    endloop
  endfacet
  facet normal -1 0 0
    outer loop
      vertex 43 51.5 13.45
      vertex 43 64.5 17
      vertex 43 64.5 13.45
    endloop
  endfacet
  facet normal -1 -0 0
    outer loop
      vertex 43 64.5 17
      vertex 43 51.5 13.45
      vertex 43 51.5 17
    endloop
  endfacet
  facet normal 1 -0 0
    outer loop
      vertex 35 51.5 17
      vertex 35 64.5 13.45
      vertex 35 64.5 17
    endloop
  endfacet
  facet normal 1 0 0
    outer loop
      vertex 35 64.5 13.45
      vertex 35 51.5 17
      vertex 35 51.5 13.45
    endloop
  endfacet
  facet normal 0 -1 0
    outer loop
      vertex 35 64.5 13.45
      vertex 43 64.5 17
      vertex 35 64.5 17
    endloop
  endfacet
  facet normal 0 -1 -0
    outer loop
      vertex 43 64.5 17
      vertex 35 64.5 13.45
      vertex 43 64.5 13.45
    endloop
  endfacet
  facet normal 0 1 -0
    outer loop
      vertex 43 51.5 13.45
      vertex 35 51.5 17
      vertex 43 51.5 17
    endloop
  endfacet
  facet normal 0 1 0
    outer loop
      vertex 35 51.5 17
      vertex 43 51.5 13.45
      vertex 35 51.5 13.45
    endloop
  endfacet
  facet normal -1 0 0
    outer loop
      vertex 59 51.5 13.45
      vertex 59 64.5 17
      vertex 59 64.5 13.45
    endloop
  endfacet
  facet normal -1 -0 0
    outer loop
      vertex 59 64.5 17
      vertex 59 51.5 13.45
      vertex 59 51.5 17
    endloop
  endfacet
  facet normal 1 -0 0
    outer loop
      vertex 51 51.5 17
      vertex 51 64.5 13.45
      vertex 51 64.5 17
    endloop
  endfacet
  facet normal 1 0 0
    outer loop
      vertex 51 64.5 13.45
      vertex 51 51.5 17
      vertex 51 51.5 13.45
    endloop
  endfacet
  facet normal 0 -1 0
    outer loop
      vertex 51 64.5 13.45
      vertex 59 64.5 17
      vertex 51 64.5 17
    endloop
  endfacet
  facet normal 0 -1 -0
    outer loop
      vertex 59 64.5 17
      vertex 51 64.5 13.45
      vertex 59 64.5 13.45
    endloop
  endfacet
  facet normal 0 1 -0
    outer loop
      vertex 59 51.5 13.45
      vertex 51 51.5 17
      vertex 59 51.5 17
    endloop
  endfacet
  facet normal 0 1 0
    outer loop
      vertex 51 51.5 17
      vertex 59 51.5 13.45
      vertex 51 51.5 13.45
    endloop
  endfacet
  facet normal 0 0 -1
    outer loop
      vertex 62 50.65 13.45
      vertex 59 51.5 13.45
      vertex 62 65.35 13.45
    endloop
  endfacet
  facet normal 0 0 -1
    outer loop
      vertex 62 50.65 13.45
      vertex 51 51.5 13.45
      vertex 59 51.5 13.45
    endloop
  endfacet
  facet normal 0 0 -1
    outer loop
      vertex 51 51.5 13.45
      vertex 43 51.5 13.45
      vertex 51 64.5 13.45
    endloop
  endfacet
  facet normal 0 0 -1
    outer loop
      vertex 62 50.65 13.45
      vertex 43 51.5 13.45
      vertex 51 51.5 13.45
    endloop
  endfacet
  facet normal 0 0 -1
    outer loop
      vertex 32 50.65 13.45
      vertex 43 51.5 13.45
      vertex 62 50.65 13.45
    endloop
  endfacet
  facet normal -0 0 -1
    outer loop
      vertex 35 51.5 13.45
      vertex 32 50.65 13.45
      vertex 35 64.5 13.45
    endloop
  endfacet
  facet normal -0 0 -1
    outer loop
      vertex 43 51.5 13.45
      vertex 32 50.65 13.45
      vertex 35 51.5 13.45
    endloop
  endfacet
  facet normal 0 0 -1
    outer loop
      vertex 59 64.5 13.45
      vertex 62 65.35 13.45
      vertex 59 51.5 13.45
    endloop
  endfacet
  facet normal 0 0 -1
    outer loop
      vertex 51 64.5 13.45
      vertex 62 65.35 13.45
      vertex 59 64.5 13.45
    endloop
  endfacet
  facet normal 0 0 -1
    outer loop
      vertex 43 64.5 13.45
      vertex 51 64.5 13.45
      vertex 43 51.5 13.45
    endloop
  endfacet
  facet normal 0 0 -1
    outer loop
      vertex 43 64.5 13.45
      vertex 62 65.35 13.45
      vertex 51 64.5 13.45
    endloop
  endfacet
  facet normal 0 0 -1
    outer loop
      vertex 32 65.35 13.45
      vertex 43 64.5 13.45
      vertex 35 64.5 13.45
    endloop
  endfacet
  facet normal 0 0 -1
    outer loop
      vertex 43 64.5 13.45
      vertex 32 65.35 13.45
      vertex 62 65.35 13.45
    endloop
  endfacet
  facet normal 0 0 -1
    outer loop
      vertex 32 65.35 13.45
      vertex 35 64.5 13.45
      vertex 32 50.65 13.45
    endloop
  endfacet
  facet normal -0 0 1
    outer loop
      vertex 32 65.35 2.9
      vertex 62 50.65 2.9
      vertex 62 65.35 2.9
    endloop
  endfacet
  facet normal 0 0 1
    outer loop
      vertex 62 50.65 2.9
      vertex 32 65.35 2.9
      vertex 32 50.65 2.9
    endloop
  endfacet
  facet normal 0 -1 0
    outer loop
      vertex 32 65.35 2.9
      vertex 62 65.35 13.45
      vertex 32 65.35 13.45
    endloop
  endfacet
  facet normal 0 -1 -0
    outer loop
      vertex 62 65.35 13.45
      vertex 32 65.35 2.9
      vertex 62 65.35 2.9
    endloop
  endfacet
  facet normal 0 1 -0
    outer loop
      vertex 62 50.65 2.9
      vertex 32 50.65 13.45
      vertex 62 50.65 13.45
    endloop
  endfacet
  facet normal 0 1 0
    outer loop
      vertex 32 50.65 13.45
      vertex 62 50.65 2.9
      vertex 32 50.65 2.9
    endloop
  endfacet
endsolid OpenSCAD_Model
