solid OpenSCAD_Model
  facet normal 0.980815 0.19494 0
    outer loop
      vertex 43.9743 35.3916 8
      vertex 43.8978 35.7765 0
      vertex 43.8978 35.7765 8
    endloop
  endfacet
  facet normal 0.980815 0.19494 0
    outer loop
      vertex 43.8978 35.7765 0
      vertex 43.9743 35.3916 8
      vertex 43.9743 35.3916 0
    endloop
  endfacet
  facet normal -0.19494 0.980815 0
    outer loop
      vertex 14.6084 37.9743 0
      vertex 14.2235 37.8978 8
      vertex 14.6084 37.9743 8
    endloop
  endfacet
  facet normal -0.19494 0.980815 0
    outer loop
      vertex 14.2235 37.8978 8
      vertex 14.6084 37.9743 0
      vertex 14.2235 37.8978 0
    endloop
  endfacet
  facet normal 1 -0 0
    outer loop
      vertex 44 13 8
      vertex 44 35 0
      vertex 44 35 8
    endloop
  endfacet
  facet normal 1 0 0
    outer loop
      vertex 44 35 0
      vertex 44 13 8
      vertex 44 13 0
    endloop
  endfacet
  facet normal 0.0654873 -0.997853 0
    outer loop
      vertex 41 10 0
      vertex 41.3916 10.0257 8
      vertex 41 10 8
    endloop
  endfacet
  facet normal 0.0654873 -0.997853 0
    outer loop
      vertex 41.3916 10.0257 8
      vertex 41 10 0
      vertex 41.3916 10.0257 0
    endloop
  endfacet
  facet normal 0 -1 0
    outer loop
      vertex 33.25 10 0
      vertex 41 10 8
      vertex 33.25 10 8
    endloop
  endfacet
  facet normal 0 -1 -0
    outer loop
      vertex 41 10 8
      vertex 33.25 10 0
      vertex 41 10 0
    endloop
  endfacet
  facet normal 0 -1 0
    outer loop
      vertex 15 10 0
      vertex 22.75 10 8
      vertex 15 10 8
    endloop
  endfacet
  facet normal 0 -1 -0
    outer loop
      vertex 22.75 10 8
      vertex 15 10 0
      vertex 22.75 10 0
    endloop
  endfacet
  facet normal 0.980815 -0.19494 0
    outer loop
      vertex 43.8978 12.2235 8
      vertex 43.9743 12.6084 0
      vertex 43.9743 12.6084 8
    endloop
  endfacet
  facet normal 0.980815 -0.19494 0
    outer loop
      vertex 43.9743 12.6084 0
      vertex 43.8978 12.2235 8
      vertex 43.8978 12.2235 0
    endloop
  endfacet
  facet normal -0.0654873 0.997853 0
    outer loop
      vertex 15 38 0
      vertex 14.6084 37.9743 8
      vertex 15 38 8
    endloop
  endfacet
  facet normal -0.0654873 0.997853 0
    outer loop
      vertex 14.6084 37.9743 8
      vertex 15 38 0
      vertex 14.6084 37.9743 0
    endloop
  endfacet
  facet normal -0.0654873 -0.997853 0
    outer loop
      vertex 14.6084 10.0257 0
      vertex 15 10 8
      vertex 14.6084 10.0257 8
    endloop
  endfacet
  facet normal -0.0654873 -0.997853 -0
    outer loop
      vertex 15 10 8
      vertex 14.6084 10.0257 0
      vertex 15 10 0
    endloop
  endfacet
  facet normal 0.321651 -0.946858 0
    outer loop
      vertex 41.7765 10.1022 0
      vertex 42.148 10.2284 8
      vertex 41.7765 10.1022 8
    endloop
  endfacet
  facet normal 0.321651 -0.946858 0
    outer loop
      vertex 42.148 10.2284 8
      vertex 41.7765 10.1022 0
      vertex 42.148 10.2284 0
    endloop
  endfacet
  facet normal -0.442211 0.896911 0
    outer loop
      vertex 13.8519 37.7716 0
      vertex 13.5 37.5981 8
      vertex 13.8519 37.7716 8
    endloop
  endfacet
  facet normal -0.442211 0.896911 0
    outer loop
      vertex 13.5 37.5981 8
      vertex 13.8519 37.7716 0
      vertex 13.5 37.5981 0
    endloop
  endfacet
  facet normal 0 1 -0
    outer loop
      vertex 41 38 0
      vertex 15 38 8
      vertex 41 38 8
    endloop
  endfacet
  facet normal 0 1 0
    outer loop
      vertex 15 38 8
      vertex 41 38 0
      vertex 15 38 0
    endloop
  endfacet
  facet normal -0.659478 -0.751724 0
    outer loop
      vertex 12.8787 10.8787 0
      vertex 13.1737 10.6199 8
      vertex 12.8787 10.8787 8
    endloop
  endfacet
  facet normal -0.659478 -0.751724 -0
    outer loop
      vertex 13.1737 10.6199 8
      vertex 12.8787 10.8787 0
      vertex 13.1737 10.6199 0
    endloop
  endfacet
  facet normal 0.321651 0.946858 -0
    outer loop
      vertex 42.148 37.7716 0
      vertex 41.7765 37.8978 8
      vertex 42.148 37.7716 8
    endloop
  endfacet
  facet normal 0.321651 0.946858 0
    outer loop
      vertex 41.7765 37.8978 8
      vertex 42.148 37.7716 0
      vertex 41.7765 37.8978 0
    endloop
  endfacet
  facet normal 0.946885 -0.321574 0
    outer loop
      vertex 43.7716 11.8519 8
      vertex 43.8978 12.2235 0
      vertex 43.8978 12.2235 8
    endloop
  endfacet
  facet normal 0.946885 -0.321574 0
    outer loop
      vertex 43.8978 12.2235 0
      vertex 43.7716 11.8519 8
      vertex 43.7716 11.8519 0
    endloop
  endfacet
  facet normal 0.19494 -0.980815 0
    outer loop
      vertex 41.3916 10.0257 0
      vertex 41.7765 10.1022 8
      vertex 41.3916 10.0257 8
    endloop
  endfacet
  facet normal 0.19494 -0.980815 0
    outer loop
      vertex 41.7765 10.1022 8
      vertex 41.3916 10.0257 0
      vertex 41.7765 10.1022 0
    endloop
  endfacet
  facet normal 0.659478 -0.751724 0
    outer loop
      vertex 42.8263 10.6199 0
      vertex 43.1213 10.8787 8
      vertex 42.8263 10.6199 8
    endloop
  endfacet
  facet normal 0.659478 -0.751724 0
    outer loop
      vertex 43.1213 10.8787 8
      vertex 42.8263 10.6199 0
      vertex 43.1213 10.8787 0
    endloop
  endfacet
  facet normal -0.997853 0.0654873 0
    outer loop
      vertex 12 35 0
      vertex 12.0257 35.3916 8
      vertex 12.0257 35.3916 0
    endloop
  endfacet
  facet normal -0.997853 0.0654873 0
    outer loop
      vertex 12.0257 35.3916 8
      vertex 12 35 0
      vertex 12 35 8
    endloop
  endfacet
  facet normal 0.997853 -0.0654873 0
    outer loop
      vertex 43.9743 12.6084 8
      vertex 44 13 0
      vertex 44 13 8
    endloop
  endfacet
  facet normal 0.997853 -0.0654873 0
    outer loop
      vertex 44 13 0
      vertex 43.9743 12.6084 8
      vertex 43.9743 12.6084 0
    endloop
  endfacet
  facet normal -0.659478 0.751724 0
    outer loop
      vertex 13.1737 37.3801 0
      vertex 12.8787 37.1213 8
      vertex 13.1737 37.3801 8
    endloop
  endfacet
  facet normal -0.659478 0.751724 0
    outer loop
      vertex 12.8787 37.1213 8
      vertex 13.1737 37.3801 0
      vertex 12.8787 37.1213 0
    endloop
  endfacet
  facet normal 0.44211 -0.896961 0
    outer loop
      vertex 42.148 10.2284 0
      vertex 42.5 10.4019 8
      vertex 42.148 10.2284 8
    endloop
  endfacet
  facet normal 0.44211 -0.896961 0
    outer loop
      vertex 42.5 10.4019 8
      vertex 42.148 10.2284 0
      vertex 42.5 10.4019 0
    endloop
  endfacet
  facet normal 0.997853 0.0654873 0
    outer loop
      vertex 44 35 8
      vertex 43.9743 35.3916 0
      vertex 43.9743 35.3916 8
    endloop
  endfacet
  facet normal 0.997853 0.0654873 0
    outer loop
      vertex 43.9743 35.3916 0
      vertex 44 35 8
      vertex 44 35 0
    endloop
  endfacet
  facet normal -0.555523 -0.831501 0
    outer loop
      vertex 13.1737 10.6199 0
      vertex 13.5 10.4019 8
      vertex 13.1737 10.6199 8
    endloop
  endfacet
  facet normal -0.555523 -0.831501 -0
    outer loop
      vertex 13.5 10.4019 8
      vertex 13.1737 10.6199 0
      vertex 13.5 10.4019 0
    endloop
  endfacet
  facet normal -0.946858 0.321651 0
    outer loop
      vertex 12.1022 35.7765 0
      vertex 12.2284 36.148 8
      vertex 12.2284 36.148 0
    endloop
  endfacet
  facet normal -0.946858 0.321651 0
    outer loop
      vertex 12.2284 36.148 8
      vertex 12.1022 35.7765 0
      vertex 12.1022 35.7765 8
    endloop
  endfacet
  facet normal -0.751724 0.659478 0
    outer loop
      vertex 12.6199 36.8263 0
      vertex 12.8787 37.1213 8
      vertex 12.8787 37.1213 0
    endloop
  endfacet
  facet normal -0.751724 0.659478 0
    outer loop
      vertex 12.8787 37.1213 8
      vertex 12.6199 36.8263 0
      vertex 12.6199 36.8263 8
    endloop
  endfacet
  facet normal -0.321574 0.946885 0
    outer loop
      vertex 14.2235 37.8978 0
      vertex 13.8519 37.7716 8
      vertex 14.2235 37.8978 8
    endloop
  endfacet
  facet normal -0.321574 0.946885 0
    outer loop
      vertex 13.8519 37.7716 8
      vertex 14.2235 37.8978 0
      vertex 13.8519 37.7716 0
    endloop
  endfacet
  facet normal -1 0 0
    outer loop
      vertex 12 13 0
      vertex 12 35 8
      vertex 12 35 0
    endloop
  endfacet
  facet normal -1 -0 0
    outer loop
      vertex 12 35 8
      vertex 12 13 0
      vertex 12 13 8
    endloop
  endfacet
  facet normal 0.555523 -0.831501 0
    outer loop
      vertex 42.5 10.4019 0
      vertex 42.8263 10.6199 8
      vertex 42.5 10.4019 8
    endloop
  endfacet
  facet normal 0.555523 -0.831501 0
    outer loop
      vertex 42.8263 10.6199 8
      vertex 42.5 10.4019 0
      vertex 42.8263 10.6199 0
    endloop
  endfacet
  facet normal -0.980815 -0.19494 0
    outer loop
      vertex 12.1022 12.2235 0
      vertex 12.0257 12.6084 8
      vertex 12.0257 12.6084 0
    endloop
  endfacet
  facet normal -0.980815 -0.19494 0
    outer loop
      vertex 12.0257 12.6084 8
      vertex 12.1022 12.2235 0
      vertex 12.1022 12.2235 8
    endloop
  endfacet
  facet normal 0.946858 0.321651 0
    outer loop
      vertex 43.8978 35.7765 8
      vertex 43.7716 36.148 0
      vertex 43.7716 36.148 8
    endloop
  endfacet
  facet normal 0.946858 0.321651 0
    outer loop
      vertex 43.7716 36.148 0
      vertex 43.8978 35.7765 8
      vertex 43.8978 35.7765 0
    endloop
  endfacet
  facet normal 0.751724 0.659478 0
    outer loop
      vertex 43.3801 36.8263 8
      vertex 43.1213 37.1213 0
      vertex 43.1213 37.1213 8
    endloop
  endfacet
  facet normal 0.751724 0.659478 0
    outer loop
      vertex 43.1213 37.1213 0
      vertex 43.3801 36.8263 8
      vertex 43.3801 36.8263 0
    endloop
  endfacet
  facet normal -0.555523 0.831501 0
    outer loop
      vertex 13.5 37.5981 0
      vertex 13.1737 37.3801 8
      vertex 13.5 37.5981 8
    endloop
  endfacet
  facet normal -0.555523 0.831501 0
    outer loop
      vertex 13.1737 37.3801 8
      vertex 13.5 37.5981 0
      vertex 13.1737 37.3801 0
    endloop
  endfacet
  facet normal -0.19494 -0.980815 0
    outer loop
      vertex 14.2235 10.1022 0
      vertex 14.6084 10.0257 8
      vertex 14.2235 10.1022 8
    endloop
  endfacet
  facet normal -0.19494 -0.980815 -0
    outer loop
      vertex 14.6084 10.0257 8
      vertex 14.2235 10.1022 0
      vertex 14.6084 10.0257 0
    endloop
  endfacet
  facet normal 0.831501 0.555523 0
    outer loop
      vertex 43.5981 36.5 8
      vertex 43.3801 36.8263 0
      vertex 43.3801 36.8263 8
    endloop
  endfacet
  facet normal 0.831501 0.555523 0
    outer loop
      vertex 43.3801 36.8263 0
      vertex 43.5981 36.5 8
      vertex 43.5981 36.5 0
    endloop
  endfacet
  facet normal -0.751724 -0.659478 0
    outer loop
      vertex 12.8787 10.8787 0
      vertex 12.6199 11.1737 8
      vertex 12.6199 11.1737 0
    endloop
  endfacet
  facet normal -0.751724 -0.659478 0
    outer loop
      vertex 12.6199 11.1737 8
      vertex 12.8787 10.8787 0
      vertex 12.8787 10.8787 8
    endloop
  endfacet
  facet normal 0.831501 -0.555523 0
    outer loop
      vertex 43.3801 11.1737 8
      vertex 43.5981 11.5 0
      vertex 43.5981 11.5 8
    endloop
  endfacet
  facet normal 0.831501 -0.555523 0
    outer loop
      vertex 43.5981 11.5 0
      vertex 43.3801 11.1737 8
      vertex 43.3801 11.1737 0
    endloop
  endfacet
  facet normal -0.831501 0.555523 0
    outer loop
      vertex 12.4019 36.5 0
      vertex 12.6199 36.8263 8
      vertex 12.6199 36.8263 0
    endloop
  endfacet
  facet normal -0.831501 0.555523 0
    outer loop
      vertex 12.6199 36.8263 8
      vertex 12.4019 36.5 0
      vertex 12.4019 36.5 8
    endloop
  endfacet
  facet normal 0.0654873 0.997853 -0
    outer loop
      vertex 41.3916 37.9743 0
      vertex 41 38 8
      vertex 41.3916 37.9743 8
    endloop
  endfacet
  facet normal 0.0654873 0.997853 0
    outer loop
      vertex 41 38 8
      vertex 41.3916 37.9743 0
      vertex 41 38 0
    endloop
  endfacet
  facet normal 0.555523 0.831501 -0
    outer loop
      vertex 42.8263 37.3801 0
      vertex 42.5 37.5981 8
      vertex 42.8263 37.3801 8
    endloop
  endfacet
  facet normal 0.555523 0.831501 0
    outer loop
      vertex 42.5 37.5981 8
      vertex 42.8263 37.3801 0
      vertex 42.5 37.5981 0
    endloop
  endfacet
  facet normal -0.896911 -0.442211 0
    outer loop
      vertex 12.4019 11.5 0
      vertex 12.2284 11.8519 8
      vertex 12.2284 11.8519 0
    endloop
  endfacet
  facet normal -0.896911 -0.442211 0
    outer loop
      vertex 12.2284 11.8519 8
      vertex 12.4019 11.5 0
      vertex 12.4019 11.5 8
    endloop
  endfacet
  facet normal -0.321574 -0.946885 0
    outer loop
      vertex 13.8519 10.2284 0
      vertex 14.2235 10.1022 8
      vertex 13.8519 10.2284 8
    endloop
  endfacet
  facet normal -0.321574 -0.946885 -0
    outer loop
      vertex 14.2235 10.1022 8
      vertex 13.8519 10.2284 0
      vertex 14.2235 10.1022 0
    endloop
  endfacet
  facet normal -0.896961 0.44211 0
    outer loop
      vertex 12.2284 36.148 0
      vertex 12.4019 36.5 8
      vertex 12.4019 36.5 0
    endloop
  endfacet
  facet normal -0.896961 0.44211 0
    outer loop
      vertex 12.4019 36.5 8
      vertex 12.2284 36.148 0
      vertex 12.2284 36.148 8
    endloop
  endfacet
  facet normal 0.751724 -0.659478 0
    outer loop
      vertex 43.1213 10.8787 8
      vertex 43.3801 11.1737 0
      vertex 43.3801 11.1737 8
    endloop
  endfacet
  facet normal 0.751724 -0.659478 0
    outer loop
      vertex 43.3801 11.1737 0
      vertex 43.1213 10.8787 8
      vertex 43.1213 10.8787 0
    endloop
  endfacet
  facet normal 0.659478 0.751724 -0
    outer loop
      vertex 43.1213 37.1213 0
      vertex 42.8263 37.3801 8
      vertex 43.1213 37.1213 8
    endloop
  endfacet
  facet normal 0.659478 0.751724 0
    outer loop
      vertex 42.8263 37.3801 8
      vertex 43.1213 37.1213 0
      vertex 42.8263 37.3801 0
    endloop
  endfacet
  facet normal -0.946885 -0.321574 0
    outer loop
      vertex 12.2284 11.8519 0
      vertex 12.1022 12.2235 8
      vertex 12.1022 12.2235 0
    endloop
  endfacet
  facet normal -0.946885 -0.321574 0
    outer loop
      vertex 12.1022 12.2235 8
      vertex 12.2284 11.8519 0
      vertex 12.2284 11.8519 8
    endloop
  endfacet
  facet normal -0.997853 -0.0654873 0
    outer loop
      vertex 12.0257 12.6084 0
      vertex 12 13 8
      vertex 12 13 0
    endloop
  endfacet
  facet normal -0.997853 -0.0654873 0
    outer loop
      vertex 12 13 8
      vertex 12.0257 12.6084 0
      vertex 12.0257 12.6084 8
    endloop
  endfacet
  facet normal -0.442211 -0.896911 0
    outer loop
      vertex 13.5 10.4019 0
      vertex 13.8519 10.2284 8
      vertex 13.5 10.4019 8
    endloop
  endfacet
  facet normal -0.442211 -0.896911 -0
    outer loop
      vertex 13.8519 10.2284 8
      vertex 13.5 10.4019 0
      vertex 13.8519 10.2284 0
    endloop
  endfacet
  facet normal -0.831501 -0.555523 0
    outer loop
      vertex 12.6199 11.1737 0
      vertex 12.4019 11.5 8
      vertex 12.4019 11.5 0
    endloop
  endfacet
  facet normal -0.831501 -0.555523 0
    outer loop
      vertex 12.4019 11.5 8
      vertex 12.6199 11.1737 0
      vertex 12.6199 11.1737 8
    endloop
  endfacet
  facet normal 0.896961 0.44211 0
    outer loop
      vertex 43.7716 36.148 8
      vertex 43.5981 36.5 0
      vertex 43.5981 36.5 8
    endloop
  endfacet
  facet normal 0.896961 0.44211 0
    outer loop
      vertex 43.5981 36.5 0
      vertex 43.7716 36.148 8
      vertex 43.7716 36.148 0
    endloop
  endfacet
  facet normal 0.44211 0.896961 -0
    outer loop
      vertex 42.5 37.5981 0
      vertex 42.148 37.7716 8
      vertex 42.5 37.5981 8
    endloop
  endfacet
  facet normal 0.44211 0.896961 0
    outer loop
      vertex 42.148 37.7716 8
      vertex 42.5 37.5981 0
      vertex 42.148 37.7716 0
    endloop
  endfacet
  facet normal -0.980815 0.19494 0
    outer loop
      vertex 12.0257 35.3916 0
      vertex 12.1022 35.7765 8
      vertex 12.1022 35.7765 0
    endloop
  endfacet
  facet normal -0.980815 0.19494 0
    outer loop
      vertex 12.1022 35.7765 8
      vertex 12.0257 35.3916 0
      vertex 12.0257 35.3916 8
    endloop
  endfacet
  facet normal 0 0 1
    outer loop
      vertex 41 38 8
      vertex 44 35 8
      vertex 43.9743 35.3916 8
    endloop
  endfacet
  facet normal 0 0 1
    outer loop
      vertex 44 35 8
      vertex 34.85 22 8
      vertex 44 13 8
    endloop
  endfacet
  facet normal 0 0 1
    outer loop
      vertex 41 38 8
      vertex 43.9743 35.3916 8
      vertex 43.8978 35.7765 8
    endloop
  endfacet
  facet normal 0 -0 1
    outer loop
      vertex 41 10 8
      vertex 44 13 8
      vertex 34.85 22 8
    endloop
  endfacet
  facet normal 0 0 1
    outer loop
      vertex 41 38 8
      vertex 43.8978 35.7765 8
      vertex 43.7716 36.148 8
    endloop
  endfacet
  facet normal 0 0 1
    outer loop
      vertex 44 13 8
      vertex 41 10 8
      vertex 43.9743 12.6084 8
    endloop
  endfacet
  facet normal 0 0 1
    outer loop
      vertex 41 38 8
      vertex 43.7716 36.148 8
      vertex 43.5981 36.5 8
    endloop
  endfacet
  facet normal 0 0 1
    outer loop
      vertex 43.9743 12.6084 8
      vertex 41 10 8
      vertex 43.8978 12.2235 8
    endloop
  endfacet
  facet normal 0 0 1
    outer loop
      vertex 41 38 8
      vertex 43.5981 36.5 8
      vertex 43.3801 36.8263 8
    endloop
  endfacet
  facet normal 0 0 1
    outer loop
      vertex 43.8978 12.2235 8
      vertex 41 10 8
      vertex 43.7716 11.8519 8
    endloop
  endfacet
  facet normal 0 0 1
    outer loop
      vertex 41 38 8
      vertex 43.3801 36.8263 8
      vertex 43.1213 37.1213 8
    endloop
  endfacet
  facet normal 0 0 1
    outer loop
      vertex 43.7716 11.8519 8
      vertex 41 10 8
      vertex 43.5981 11.5 8
    endloop
  endfacet
  facet normal 0 0 1
    outer loop
      vertex 41 38 8
      vertex 43.1213 37.1213 8
      vertex 42.8263 37.3801 8
    endloop
  endfacet
  facet normal 0 0 1
    outer loop
      vertex 43.5981 11.5 8
      vertex 41 10 8
      vertex 43.3801 11.1737 8
    endloop
  endfacet
  facet normal 0 0 1
    outer loop
      vertex 41 38 8
      vertex 42.8263 37.3801 8
      vertex 42.5 37.5981 8
    endloop
  endfacet
  facet normal 0 0 1
    outer loop
      vertex 43.3801 11.1737 8
      vertex 41 10 8
      vertex 43.1213 10.8787 8
    endloop
  endfacet
  facet normal 0 0 1
    outer loop
      vertex 41 38 8
      vertex 42.5 37.5981 8
      vertex 42.148 37.7716 8
    endloop
  endfacet
  facet normal 0 0 1
    outer loop
      vertex 43.1213 10.8787 8
      vertex 41 10 8
      vertex 42.8263 10.6199 8
    endloop
  endfacet
  facet normal 0 0 1
    outer loop
      vertex 41 38 8
      vertex 42.148 37.7716 8
      vertex 41.7765 37.8978 8
    endloop
  endfacet
  facet normal 0 0 1
    outer loop
      vertex 42.8263 10.6199 8
      vertex 41 10 8
      vertex 42.5 10.4019 8
    endloop
  endfacet
  facet normal 0 0 1
    outer loop
      vertex 41 38 8
      vertex 41.7765 37.8978 8
      vertex 41.3916 37.9743 8
    endloop
  endfacet
  facet normal 0 0 1
    outer loop
      vertex 42.5 10.4019 8
      vertex 41 10 8
      vertex 42.148 10.2284 8
    endloop
  endfacet
  facet normal 0 0 1
    outer loop
      vertex 44 35 8
      vertex 41 38 8
      vertex 34.85 30 8
    endloop
  endfacet
  facet normal 0 0 1
    outer loop
      vertex 42.148 10.2284 8
      vertex 41 10 8
      vertex 41.7765 10.1022 8
    endloop
  endfacet
  facet normal 0 0 1
    outer loop
      vertex 44 35 8
      vertex 34.85 30 8
      vertex 34.85 22 8
    endloop
  endfacet
  facet normal 0 0 1
    outer loop
      vertex 41 38 8
      vertex 21.15 30 8
      vertex 34.85 30 8
    endloop
  endfacet
  facet normal -0 0 1
    outer loop
      vertex 12 35 8
      vertex 21.15 30 8
      vertex 15 38 8
    endloop
  endfacet
  facet normal -0 0 1
    outer loop
      vertex 15 38 8
      vertex 21.15 30 8
      vertex 41 38 8
    endloop
  endfacet
  facet normal 0 0 1
    outer loop
      vertex 41.7765 10.1022 8
      vertex 41 10 8
      vertex 41.3916 10.0257 8
    endloop
  endfacet
  facet normal 0 0 1
    outer loop
      vertex 33.25 10 8
      vertex 34.85 22 8
      vertex 33.25 22 8
    endloop
  endfacet
  facet normal 0 0 1
    outer loop
      vertex 34.85 22 8
      vertex 33.25 10 8
      vertex 41 10 8
    endloop
  endfacet
  facet normal -0 0 1
    outer loop
      vertex 21.15 22 8
      vertex 22.75 10 8
      vertex 22.75 22 8
    endloop
  endfacet
  facet normal 0 0 1
    outer loop
      vertex 21.15 30 8
      vertex 12 35 8
      vertex 21.15 22 8
    endloop
  endfacet
  facet normal 0 0 1
    outer loop
      vertex 12 13 8
      vertex 21.15 22 8
      vertex 12 35 8
    endloop
  endfacet
  facet normal 0 0 1
    outer loop
      vertex 12 35 8
      vertex 15 38 8
      vertex 14.6084 37.9743 8
    endloop
  endfacet
  facet normal 0 -0 1
    outer loop
      vertex 15 10 8
      vertex 21.15 22 8
      vertex 12 13 8
    endloop
  endfacet
  facet normal 0 0 1
    outer loop
      vertex 12 35 8
      vertex 14.6084 37.9743 8
      vertex 14.2235 37.8978 8
    endloop
  endfacet
  facet normal 0 0 1
    outer loop
      vertex 21.15 22 8
      vertex 15 10 8
      vertex 22.75 10 8
    endloop
  endfacet
  facet normal 0 0 1
    outer loop
      vertex 12 35 8
      vertex 14.2235 37.8978 8
      vertex 13.8519 37.7716 8
    endloop
  endfacet
  facet normal 0 0 1
    outer loop
      vertex 15 10 8
      vertex 12 13 8
      vertex 14.6084 10.0257 8
    endloop
  endfacet
  facet normal 0 0 1
    outer loop
      vertex 12 35 8
      vertex 13.8519 37.7716 8
      vertex 13.5 37.5981 8
    endloop
  endfacet
  facet normal 0 0 1
    outer loop
      vertex 14.6084 10.0257 8
      vertex 12 13 8
      vertex 14.2235 10.1022 8
    endloop
  endfacet
  facet normal 0 0 1
    outer loop
      vertex 12 35 8
      vertex 13.5 37.5981 8
      vertex 13.1737 37.3801 8
    endloop
  endfacet
  facet normal 0 0 1
    outer loop
      vertex 14.2235 10.1022 8
      vertex 12 13 8
      vertex 13.8519 10.2284 8
    endloop
  endfacet
  facet normal 0 0 1
    outer loop
      vertex 12 35 8
      vertex 13.1737 37.3801 8
      vertex 12.8787 37.1213 8
    endloop
  endfacet
  facet normal 0 0 1
    outer loop
      vertex 13.8519 10.2284 8
      vertex 12 13 8
      vertex 13.5 10.4019 8
    endloop
  endfacet
  facet normal 0 0 1
    outer loop
      vertex 12 35 8
      vertex 12.8787 37.1213 8
      vertex 12.6199 36.8263 8
    endloop
  endfacet
  facet normal 0 0 1
    outer loop
      vertex 13.5 10.4019 8
      vertex 12 13 8
      vertex 13.1737 10.6199 8
    endloop
  endfacet
  facet normal 0 0 1
    outer loop
      vertex 12 35 8
      vertex 12.6199 36.8263 8
      vertex 12.4019 36.5 8
    endloop
  endfacet
  facet normal 0 0 1
    outer loop
      vertex 13.1737 10.6199 8
      vertex 12 13 8
      vertex 12.8787 10.8787 8
    endloop
  endfacet
  facet normal 0 0 1
    outer loop
      vertex 12 35 8
      vertex 12.4019 36.5 8
      vertex 12.2284 36.148 8
    endloop
  endfacet
  facet normal 0 0 1
    outer loop
      vertex 12.8787 10.8787 8
      vertex 12 13 8
      vertex 12.6199 11.1737 8
    endloop
  endfacet
  facet normal 0 0 1
    outer loop
      vertex 12 35 8
      vertex 12.2284 36.148 8
      vertex 12.1022 35.7765 8
    endloop
  endfacet
  facet normal 0 0 1
    outer loop
      vertex 12.6199 11.1737 8
      vertex 12 13 8
      vertex 12.4019 11.5 8
    endloop
  endfacet
  facet normal 0 0 1
    outer loop
      vertex 12 35 8
      vertex 12.1022 35.7765 8
      vertex 12.0257 35.3916 8
    endloop
  endfacet
  facet normal 0 0 1
    outer loop
      vertex 12.4019 11.5 8
      vertex 12 13 8
      vertex 12.2284 11.8519 8
    endloop
  endfacet
  facet normal 0 0 1
    outer loop
      vertex 12.2284 11.8519 8
      vertex 12 13 8
      vertex 12.1022 12.2235 8
    endloop
  endfacet
  facet normal 0 0 1
    outer loop
      vertex 12.1022 12.2235 8
      vertex 12 13 8
      vertex 12.0257 12.6084 8
    endloop
  endfacet
  facet normal 0.19494 0.980815 -0
    outer loop
      vertex 41.7765 37.8978 0
      vertex 41.3916 37.9743 8
      vertex 41.7765 37.8978 8
    endloop
  endfacet
  facet normal 0.19494 0.980815 0
    outer loop
      vertex 41.3916 37.9743 8
      vertex 41.7765 37.8978 0
      vertex 41.3916 37.9743 0
    endloop
  endfacet
  facet normal 0 0 -1
    outer loop
      vertex 12 13 0
      vertex 22.75 10 0
      vertex 15 10 0
    endloop
  endfacet
  facet normal 0 0 -1
    outer loop
      vertex 41 10 0
      vertex 44 13 0
      vertex 43.9743 12.6084 0
    endloop
  endfacet
  facet normal 0 0 -1
    outer loop
      vertex 44 13 0
      vertex 33.25 30 0
      vertex 44 35 0
    endloop
  endfacet
  facet normal 0 0 -1
    outer loop
      vertex 41 10 0
      vertex 43.9743 12.6084 0
      vertex 43.8978 12.2235 0
    endloop
  endfacet
  facet normal 0 -0 -1
    outer loop
      vertex 41 38 0
      vertex 44 35 0
      vertex 33.25 30 0
    endloop
  endfacet
  facet normal 0 0 -1
    outer loop
      vertex 41 10 0
      vertex 43.8978 12.2235 0
      vertex 43.7716 11.8519 0
    endloop
  endfacet
  facet normal 0 0 -1
    outer loop
      vertex 44 35 0
      vertex 41 38 0
      vertex 43.9743 35.3916 0
    endloop
  endfacet
  facet normal 0 0 -1
    outer loop
      vertex 41 10 0
      vertex 43.7716 11.8519 0
      vertex 43.5981 11.5 0
    endloop
  endfacet
  facet normal 0 0 -1
    outer loop
      vertex 43.9743 35.3916 0
      vertex 41 38 0
      vertex 43.8978 35.7765 0
    endloop
  endfacet
  facet normal 0 0 -1
    outer loop
      vertex 41 10 0
      vertex 43.5981 11.5 0
      vertex 43.3801 11.1737 0
    endloop
  endfacet
  facet normal 0 0 -1
    outer loop
      vertex 43.8978 35.7765 0
      vertex 41 38 0
      vertex 43.7716 36.148 0
    endloop
  endfacet
  facet normal 0 0 -1
    outer loop
      vertex 41 10 0
      vertex 43.3801 11.1737 0
      vertex 43.1213 10.8787 0
    endloop
  endfacet
  facet normal 0 0 -1
    outer loop
      vertex 43.7716 36.148 0
      vertex 41 38 0
      vertex 43.5981 36.5 0
    endloop
  endfacet
  facet normal 0 0 -1
    outer loop
      vertex 41 10 0
      vertex 43.1213 10.8787 0
      vertex 42.8263 10.6199 0
    endloop
  endfacet
  facet normal 0 0 -1
    outer loop
      vertex 43.5981 36.5 0
      vertex 41 38 0
      vertex 43.3801 36.8263 0
    endloop
  endfacet
  facet normal 0 0 -1
    outer loop
      vertex 41 10 0
      vertex 42.8263 10.6199 0
      vertex 42.5 10.4019 0
    endloop
  endfacet
  facet normal 0 0 -1
    outer loop
      vertex 43.3801 36.8263 0
      vertex 41 38 0
      vertex 43.1213 37.1213 0
    endloop
  endfacet
  facet normal 0 0 -1
    outer loop
      vertex 41 10 0
      vertex 42.5 10.4019 0
      vertex 42.148 10.2284 0
    endloop
  endfacet
  facet normal 0 0 -1
    outer loop
      vertex 43.1213 37.1213 0
      vertex 41 38 0
      vertex 42.8263 37.3801 0
    endloop
  endfacet
  facet normal 0 0 -1
    outer loop
      vertex 41 10 0
      vertex 42.148 10.2284 0
      vertex 41.7765 10.1022 0
    endloop
  endfacet
  facet normal 0 0 -1
    outer loop
      vertex 42.8263 37.3801 0
      vertex 41 38 0
      vertex 42.5 37.5981 0
    endloop
  endfacet
  facet normal 0 0 -1
    outer loop
      vertex 41 10 0
      vertex 41.7765 10.1022 0
      vertex 41.3916 10.0257 0
    endloop
  endfacet
  facet normal 0 0 -1
    outer loop
      vertex 42.5 37.5981 0
      vertex 41 38 0
      vertex 42.148 37.7716 0
    endloop
  endfacet
  facet normal 0 0 -1
    outer loop
      vertex 44 13 0
      vertex 41 10 0
      vertex 33.25 10 0
    endloop
  endfacet
  facet normal 0 0 -1
    outer loop
      vertex 42.148 37.7716 0
      vertex 41 38 0
      vertex 41.7765 37.8978 0
    endloop
  endfacet
  facet normal -0 0 -1
    outer loop
      vertex 44 13 0
      vertex 33.25 10 0
      vertex 33.25 30 0
    endloop
  endfacet
  facet normal 0 0 -1
    outer loop
      vertex 41.7765 37.8978 0
      vertex 41 38 0
      vertex 41.3916 37.9743 0
    endloop
  endfacet
  facet normal 0 0 -1
    outer loop
      vertex 22.75 30 0
      vertex 41 38 0
      vertex 33.25 30 0
    endloop
  endfacet
  facet normal 0 0 -1
    outer loop
      vertex 22.75 30 0
      vertex 15 38 0
      vertex 41 38 0
    endloop
  endfacet
  facet normal 0 0 -1
    outer loop
      vertex 22.75 10 0
      vertex 12 13 0
      vertex 22.75 30 0
    endloop
  endfacet
  facet normal 0 0 -1
    outer loop
      vertex 12 13 0
      vertex 15 10 0
      vertex 14.6084 10.0257 0
    endloop
  endfacet
  facet normal 0 0 -1
    outer loop
      vertex 12 35 0
      vertex 22.75 30 0
      vertex 12 13 0
    endloop
  endfacet
  facet normal 0 0 -1
    outer loop
      vertex 12 13 0
      vertex 14.6084 10.0257 0
      vertex 14.2235 10.1022 0
    endloop
  endfacet
  facet normal 0 0 -1
    outer loop
      vertex 22.75 30 0
      vertex 12 35 0
      vertex 15 38 0
    endloop
  endfacet
  facet normal 0 0 -1
    outer loop
      vertex 12 13 0
      vertex 14.2235 10.1022 0
      vertex 13.8519 10.2284 0
    endloop
  endfacet
  facet normal 0 0 -1
    outer loop
      vertex 15 38 0
      vertex 12 35 0
      vertex 14.6084 37.9743 0
    endloop
  endfacet
  facet normal 0 0 -1
    outer loop
      vertex 12 13 0
      vertex 13.8519 10.2284 0
      vertex 13.5 10.4019 0
    endloop
  endfacet
  facet normal 0 0 -1
    outer loop
      vertex 14.6084 37.9743 0
      vertex 12 35 0
      vertex 14.2235 37.8978 0
    endloop
  endfacet
  facet normal 0 0 -1
    outer loop
      vertex 12 13 0
      vertex 13.5 10.4019 0
      vertex 13.1737 10.6199 0
    endloop
  endfacet
  facet normal 0 0 -1
    outer loop
      vertex 14.2235 37.8978 0
      vertex 12 35 0
      vertex 13.8519 37.7716 0
    endloop
  endfacet
  facet normal 0 0 -1
    outer loop
      vertex 12 13 0
      vertex 13.1737 10.6199 0
      vertex 12.8787 10.8787 0
    endloop
  endfacet
  facet normal 0 0 -1
    outer loop
      vertex 13.8519 37.7716 0
      vertex 12 35 0
      vertex 13.5 37.5981 0
    endloop
  endfacet
  facet normal 0 0 -1
    outer loop
      vertex 12 13 0
      vertex 12.8787 10.8787 0
      vertex 12.6199 11.1737 0
    endloop
  endfacet
  facet normal 0 0 -1
    outer loop
      vertex 13.5 37.5981 0
      vertex 12 35 0
      vertex 13.1737 37.3801 0
    endloop
  endfacet
  facet normal 0 0 -1
    outer loop
      vertex 12 13 0
      vertex 12.6199 11.1737 0
      vertex 12.4019 11.5 0
    endloop
  endfacet
  facet normal 0 0 -1
    outer loop
      vertex 13.1737 37.3801 0
      vertex 12 35 0
      vertex 12.8787 37.1213 0
    endloop
  endfacet
  facet normal 0 0 -1
    outer loop
      vertex 12 13 0
      vertex 12.4019 11.5 0
      vertex 12.2284 11.8519 0
    endloop
  endfacet
  facet normal 0 0 -1
    outer loop
      vertex 12.8787 37.1213 0
      vertex 12 35 0
      vertex 12.6199 36.8263 0
    endloop
  endfacet
  facet normal 0 0 -1
    outer loop
      vertex 12 13 0
      vertex 12.2284 11.8519 0
      vertex 12.1022 12.2235 0
    endloop
  endfacet
  facet normal 0 0 -1
    outer loop
      vertex 12.6199 36.8263 0
      vertex 12 35 0
      vertex 12.4019 36.5 0
    endloop
  endfacet
  facet normal 0 0 -1
    outer loop
      vertex 12 13 0
      vertex 12.1022 12.2235 0
      vertex 12.0257 12.6084 0
    endloop
  endfacet
  facet normal 0 0 -1
    outer loop
      vertex 12.4019 36.5 0
      vertex 12 35 0
      vertex 12.2284 36.148 0
    endloop
  endfacet
  facet normal 0 0 -1
    outer loop
      vertex 12.2284 36.148 0
      vertex 12 35 0
      vertex 12.1022 35.7765 0
    endloop
  endfacet
  facet normal 0 0 -1
    outer loop
      vertex 12.1022 35.7765 0
      vertex 12 35 0
      vertex 12.0257 35.3916 0
    endloop
  endfacet
  facet normal 0.896911 -0.442211 0
    outer loop
      vertex 43.5981 11.5 8
      vertex 43.7716 11.8519 0
      vertex 43.7716 11.8519 8
    endloop
  endfacet
  facet normal 0.896911 -0.442211 0
    outer loop
      vertex 43.7716 11.8519 0
      vertex 43.5981 11.5 8
      vertex 43.5981 11.5 0
    endloop
  endfacet
  facet normal -1 0 0
    outer loop
      vertex 33.25 30 0
      vertex 33.25 22 4
      vertex 33.25 30 4
    endloop
  endfacet
  facet normal -1 0 0
    outer loop
      vertex 33.25 10 0
      vertex 33.25 22 4
      vertex 33.25 30 0
    endloop
  endfacet
  facet normal -1 0 0
    outer loop
      vertex 33.25 10 8
      vertex 33.25 22 4
      vertex 33.25 10 0
    endloop
  endfacet
  facet normal -1 0 0
    outer loop
      vertex 33.25 22 4
      vertex 33.25 10 8
      vertex 33.25 22 8
    endloop
  endfacet
  facet normal 1 0 0
    outer loop
      vertex 22.75 22 8
      vertex 22.75 10 8
      vertex 22.75 22 4
    endloop
  endfacet
  facet normal 1 -0 0
    outer loop
      vertex 22.75 22 4
      vertex 22.75 30 0
      vertex 22.75 30 4
    endloop
  endfacet
  facet normal 1 0 0
    outer loop
      vertex 22.75 10 0
      vertex 22.75 22 4
      vertex 22.75 10 8
    endloop
  endfacet
  facet normal 1 0 0
    outer loop
      vertex 22.75 22 4
      vertex 22.75 10 0
      vertex 22.75 30 0
    endloop
  endfacet
  facet normal 0 -1 0
    outer loop
      vertex 22.75 30 0
      vertex 33.25 30 4
      vertex 22.75 30 4
    endloop
  endfacet
  facet normal 0 -1 -0
    outer loop
      vertex 33.25 30 4
      vertex 22.75 30 0
      vertex 33.25 30 0
    endloop
  endfacet
  facet normal 0 -1 0
    outer loop
      vertex 22.75 30 4
      vertex 21.15 30 8
      vertex 21.15 30 4
    endloop
  endfacet
  facet normal 0 -1 0
    outer loop
      vertex 21.15 30 8
      vertex 22.75 30 4
      vertex 34.85 30 8
    endloop
  endfacet
  facet normal 0 -1 0
    outer loop
      vertex 33.25 30 4
      vertex 34.85 30 8
      vertex 22.75 30 4
    endloop
  endfacet
  facet normal 0 -1 -0
    outer loop
      vertex 34.85 30 8
      vertex 33.25 30 4
      vertex 34.85 30 4
    endloop
  endfacet
  facet normal -1 0 0
    outer loop
      vertex 34.85 22 4
      vertex 34.85 30 8
      vertex 34.85 30 4
    endloop
  endfacet
  facet normal -1 -0 0
    outer loop
      vertex 34.85 30 8
      vertex 34.85 22 4
      vertex 34.85 22 8
    endloop
  endfacet
  facet normal -0 0 1
    outer loop
      vertex 33.25 30 4
      vertex 34.85 22 4
      vertex 34.85 30 4
    endloop
  endfacet
  facet normal 0 0 1
    outer loop
      vertex 34.85 22 4
      vertex 33.25 30 4
      vertex 33.25 22 4
    endloop
  endfacet
  facet normal -0 0 1
    outer loop
      vertex 21.15 30 4
      vertex 22.75 22 4
      vertex 22.75 30 4
    endloop
  endfacet
  facet normal 0 0 1
    outer loop
      vertex 22.75 22 4
      vertex 21.15 30 4
      vertex 21.15 22 4
    endloop
  endfacet
  facet normal 1 -0 0
    outer loop
      vertex 21.15 22 8
      vertex 21.15 30 4
      vertex 21.15 30 8
    endloop
  endfacet
  facet normal 1 0 0
    outer loop
      vertex 21.15 30 4
      vertex 21.15 22 8
      vertex 21.15 22 4
    endloop
  endfacet
  facet normal 0 1 -0
    outer loop
      vertex 34.85 22 4
      vertex 33.25 22 8
      vertex 34.85 22 8
    endloop
  endfacet
  facet normal 0 1 0
    outer loop
      vertex 33.25 22 8
      vertex 34.85 22 4
      vertex 33.25 22 4
    endloop
  endfacet
  facet normal 0 1 -0
    outer loop
      vertex 22.75 22 4
      vertex 21.15 22 8
      vertex 22.75 22 8
    endloop
  endfacet
  facet normal 0 1 0
    outer loop
      vertex 21.15 22 8
      vertex 22.75 22 4
      vertex 21.15 22 4
    endloop
  endfacet
  facet normal -0.751724 0.659478 0
    outer loop
      vertex 56.6199 34.8263 0
      vertex 56.8787 35.1213 4
      vertex 56.8787 35.1213 0
    endloop
  endfacet
  facet normal -0.751724 0.659478 0
    outer loop
      vertex 56.8787 35.1213 4
      vertex 56.6199 34.8263 0
      vertex 56.6199 34.8263 4
    endloop
  endfacet
  facet normal 0.555523 0.831501 -0
    outer loop
      vertex 82.8263 35.3801 0
      vertex 82.5 35.5981 4
      vertex 82.8263 35.3801 4
    endloop
  endfacet
  facet normal 0.555523 0.831501 0
    outer loop
      vertex 82.5 35.5981 4
      vertex 82.8263 35.3801 0
      vertex 82.5 35.5981 0
    endloop
  endfacet
  facet normal 0 -1 0
    outer loop
      vertex 59 12 0
      vertex 81 12 4
      vertex 59 12 4
    endloop
  endfacet
  facet normal 0 -1 -0
    outer loop
      vertex 81 12 4
      vertex 59 12 0
      vertex 81 12 0
    endloop
  endfacet
  facet normal 0.751724 -0.659478 0
    outer loop
      vertex 83.1213 12.8787 4
      vertex 83.3801 13.1737 0
      vertex 83.3801 13.1737 4
    endloop
  endfacet
  facet normal 0.751724 -0.659478 0
    outer loop
      vertex 83.3801 13.1737 0
      vertex 83.1213 12.8787 4
      vertex 83.1213 12.8787 0
    endloop
  endfacet
  facet normal 0 1 -0
    outer loop
      vertex 81 36 0
      vertex 75 36 4
      vertex 81 36 4
    endloop
  endfacet
  facet normal 0 1 0
    outer loop
      vertex 75 36 4
      vertex 81 36 0
      vertex 65 36 4
    endloop
  endfacet
  facet normal 0 1 0
    outer loop
      vertex 59 36 0
      vertex 65 36 4
      vertex 81 36 0
    endloop
  endfacet
  facet normal 0 1 0
    outer loop
      vertex 65 36 4
      vertex 59 36 0
      vertex 59 36 4
    endloop
  endfacet
  facet normal -0.831501 0.555523 0
    outer loop
      vertex 56.4019 34.5 0
      vertex 56.6199 34.8263 4
      vertex 56.6199 34.8263 0
    endloop
  endfacet
  facet normal -0.831501 0.555523 0
    outer loop
      vertex 56.6199 34.8263 4
      vertex 56.4019 34.5 0
      vertex 56.4019 34.5 4
    endloop
  endfacet
  facet normal -0.896911 -0.442211 0
    outer loop
      vertex 56.4019 13.5 0
      vertex 56.2284 13.8519 4
      vertex 56.2284 13.8519 0
    endloop
  endfacet
  facet normal -0.896911 -0.442211 0
    outer loop
      vertex 56.2284 13.8519 4
      vertex 56.4019 13.5 0
      vertex 56.4019 13.5 4
    endloop
  endfacet
  facet normal -0.0654873 -0.997853 0
    outer loop
      vertex 58.6084 12.0257 0
      vertex 59 12 4
      vertex 58.6084 12.0257 4
    endloop
  endfacet
  facet normal -0.0654873 -0.997853 -0
    outer loop
      vertex 59 12 4
      vertex 58.6084 12.0257 0
      vertex 59 12 0
    endloop
  endfacet
  facet normal -0.19494 -0.980815 0
    outer loop
      vertex 58.2235 12.1022 0
      vertex 58.6084 12.0257 4
      vertex 58.2235 12.1022 4
    endloop
  endfacet
  facet normal -0.19494 -0.980815 -0
    outer loop
      vertex 58.6084 12.0257 4
      vertex 58.2235 12.1022 0
      vertex 58.6084 12.0257 0
    endloop
  endfacet
  facet normal 0.321651 -0.946858 0
    outer loop
      vertex 81.7765 12.1022 0
      vertex 82.148 12.2284 4
      vertex 81.7765 12.1022 4
    endloop
  endfacet
  facet normal 0.321651 -0.946858 0
    outer loop
      vertex 82.148 12.2284 4
      vertex 81.7765 12.1022 0
      vertex 82.148 12.2284 0
    endloop
  endfacet
  facet normal -0.44211 -0.896961 0
    outer loop
      vertex 57.5 12.4019 0
      vertex 57.852 12.2284 4
      vertex 57.5 12.4019 4
    endloop
  endfacet
  facet normal -0.44211 -0.896961 -0
    outer loop
      vertex 57.852 12.2284 4
      vertex 57.5 12.4019 0
      vertex 57.852 12.2284 0
    endloop
  endfacet
  facet normal 0.831501 0.555523 0
    outer loop
      vertex 83.5981 34.5 4
      vertex 83.3801 34.8263 0
      vertex 83.3801 34.8263 4
    endloop
  endfacet
  facet normal 0.831501 0.555523 0
    outer loop
      vertex 83.3801 34.8263 0
      vertex 83.5981 34.5 4
      vertex 83.5981 34.5 0
    endloop
  endfacet
  facet normal 0.997853 -0.0654873 0
    outer loop
      vertex 83.9743 14.6084 4
      vertex 84 15 0
      vertex 84 15 4
    endloop
  endfacet
  facet normal 0.997853 -0.0654873 0
    outer loop
      vertex 84 15 0
      vertex 83.9743 14.6084 4
      vertex 83.9743 14.6084 0
    endloop
  endfacet
  facet normal 0.980815 0.19494 0
    outer loop
      vertex 83.9743 33.3916 4
      vertex 83.8978 33.7765 0
      vertex 83.8978 33.7765 4
    endloop
  endfacet
  facet normal 0.980815 0.19494 0
    outer loop
      vertex 83.8978 33.7765 0
      vertex 83.9743 33.3916 4
      vertex 83.9743 33.3916 0
    endloop
  endfacet
  facet normal 0 0 -1
    outer loop
      vertex 65 36 4
      vertex 75 56 4
      vertex 75 36 4
    endloop
  endfacet
  facet normal -0 0 -1
    outer loop
      vertex 75 56 4
      vertex 65 36 4
      vertex 65 56 4
    endloop
  endfacet
  facet normal 0 0 1
    outer loop
      vertex 65 36 4
      vertex 59 36 4
      vertex 65 32 4
    endloop
  endfacet
  facet normal 0 0 1
    outer loop
      vertex 81 36 4
      vertex 84 33 4
      vertex 83.9743 33.3916 4
    endloop
  endfacet
  facet normal 0 0 1
    outer loop
      vertex 84 33 4
      vertex 75 32 4
      vertex 84 15 4
    endloop
  endfacet
  facet normal 0 0 1
    outer loop
      vertex 81 36 4
      vertex 83.9743 33.3916 4
      vertex 83.8978 33.7765 4
    endloop
  endfacet
  facet normal 0 -0 1
    outer loop
      vertex 81 12 4
      vertex 84 15 4
      vertex 75 32 4
    endloop
  endfacet
  facet normal 0 0 1
    outer loop
      vertex 81 36 4
      vertex 83.8978 33.7765 4
      vertex 83.7716 34.148 4
    endloop
  endfacet
  facet normal 0 0 1
    outer loop
      vertex 84 15 4
      vertex 81 12 4
      vertex 83.9743 14.6084 4
    endloop
  endfacet
  facet normal 0 0 1
    outer loop
      vertex 81 36 4
      vertex 83.7716 34.148 4
      vertex 83.5981 34.5 4
    endloop
  endfacet
  facet normal 0 0 1
    outer loop
      vertex 83.9743 14.6084 4
      vertex 81 12 4
      vertex 83.8978 14.2235 4
    endloop
  endfacet
  facet normal 0 0 1
    outer loop
      vertex 81 36 4
      vertex 83.5981 34.5 4
      vertex 83.3801 34.8263 4
    endloop
  endfacet
  facet normal 0 0 1
    outer loop
      vertex 83.8978 14.2235 4
      vertex 81 12 4
      vertex 83.7716 13.8519 4
    endloop
  endfacet
  facet normal 0 0 1
    outer loop
      vertex 81 36 4
      vertex 83.3801 34.8263 4
      vertex 83.1213 35.1213 4
    endloop
  endfacet
  facet normal 0 0 1
    outer loop
      vertex 83.7716 13.8519 4
      vertex 81 12 4
      vertex 83.5981 13.5 4
    endloop
  endfacet
  facet normal 0 0 1
    outer loop
      vertex 81 36 4
      vertex 83.1213 35.1213 4
      vertex 82.8263 35.3801 4
    endloop
  endfacet
  facet normal 0 0 1
    outer loop
      vertex 83.5981 13.5 4
      vertex 81 12 4
      vertex 83.3801 13.1737 4
    endloop
  endfacet
  facet normal 0 0 1
    outer loop
      vertex 81 36 4
      vertex 82.8263 35.3801 4
      vertex 82.5 35.5981 4
    endloop
  endfacet
  facet normal 0 0 1
    outer loop
      vertex 83.3801 13.1737 4
      vertex 81 12 4
      vertex 83.1213 12.8787 4
    endloop
  endfacet
  facet normal 0 0 1
    outer loop
      vertex 81 36 4
      vertex 82.5 35.5981 4
      vertex 82.148 35.7716 4
    endloop
  endfacet
  facet normal 0 0 1
    outer loop
      vertex 83.1213 12.8787 4
      vertex 81 12 4
      vertex 82.8263 12.6199 4
    endloop
  endfacet
  facet normal 0 0 1
    outer loop
      vertex 81 36 4
      vertex 82.148 35.7716 4
      vertex 81.7765 35.8978 4
    endloop
  endfacet
  facet normal 0 0 1
    outer loop
      vertex 82.8263 12.6199 4
      vertex 81 12 4
      vertex 82.5 12.4019 4
    endloop
  endfacet
  facet normal 0 0 1
    outer loop
      vertex 81 36 4
      vertex 81.7765 35.8978 4
      vertex 81.3916 35.9743 4
    endloop
  endfacet
  facet normal 0 0 1
    outer loop
      vertex 82.5 12.4019 4
      vertex 81 12 4
      vertex 82.148 12.2284 4
    endloop
  endfacet
  facet normal 0 0 1
    outer loop
      vertex 84 33 4
      vertex 81 36 4
      vertex 75 32 4
    endloop
  endfacet
  facet normal 0 0 1
    outer loop
      vertex 82.148 12.2284 4
      vertex 81 12 4
      vertex 81.7765 12.1022 4
    endloop
  endfacet
  facet normal 0 0 1
    outer loop
      vertex 75 32 4
      vertex 81 36 4
      vertex 75 36 4
    endloop
  endfacet
  facet normal 0 0 1
    outer loop
      vertex 81.7765 12.1022 4
      vertex 81 12 4
      vertex 81.3916 12.0257 4
    endloop
  endfacet
  facet normal -0 0 1
    outer loop
      vertex 65 32 4
      vertex 81 12 4
      vertex 75 32 4
    endloop
  endfacet
  facet normal -0 0 1
    outer loop
      vertex 56 33 4
      vertex 65 32 4
      vertex 59 36 4
    endloop
  endfacet
  facet normal 0 0 1
    outer loop
      vertex 65 32 4
      vertex 59 12 4
      vertex 81 12 4
    endloop
  endfacet
  facet normal 0 0 1
    outer loop
      vertex 56 33 4
      vertex 59 36 4
      vertex 58.6084 35.9743 4
    endloop
  endfacet
  facet normal 0 0 1
    outer loop
      vertex 56 15 4
      vertex 65 32 4
      vertex 56 33 4
    endloop
  endfacet
  facet normal 0 0 1
    outer loop
      vertex 56 33 4
      vertex 58.6084 35.9743 4
      vertex 58.2235 35.8978 4
    endloop
  endfacet
  facet normal 0 0 1
    outer loop
      vertex 65 32 4
      vertex 56 15 4
      vertex 59 12 4
    endloop
  endfacet
  facet normal 0 0 1
    outer loop
      vertex 56 33 4
      vertex 58.2235 35.8978 4
      vertex 57.852 35.7716 4
    endloop
  endfacet
  facet normal 0 0 1
    outer loop
      vertex 59 12 4
      vertex 56 15 4
      vertex 58.6084 12.0257 4
    endloop
  endfacet
  facet normal 0 0 1
    outer loop
      vertex 56 33 4
      vertex 57.852 35.7716 4
      vertex 57.5 35.5981 4
    endloop
  endfacet
  facet normal 0 0 1
    outer loop
      vertex 58.6084 12.0257 4
      vertex 56 15 4
      vertex 58.2235 12.1022 4
    endloop
  endfacet
  facet normal 0 0 1
    outer loop
      vertex 56 33 4
      vertex 57.5 35.5981 4
      vertex 57.1737 35.3801 4
    endloop
  endfacet
  facet normal 0 0 1
    outer loop
      vertex 58.2235 12.1022 4
      vertex 56 15 4
      vertex 57.852 12.2284 4
    endloop
  endfacet
  facet normal 0 0 1
    outer loop
      vertex 56 33 4
      vertex 57.1737 35.3801 4
      vertex 56.8787 35.1213 4
    endloop
  endfacet
  facet normal 0 0 1
    outer loop
      vertex 57.852 12.2284 4
      vertex 56 15 4
      vertex 57.5 12.4019 4
    endloop
  endfacet
  facet normal 0 0 1
    outer loop
      vertex 56 33 4
      vertex 56.8787 35.1213 4
      vertex 56.6199 34.8263 4
    endloop
  endfacet
  facet normal 0 0 1
    outer loop
      vertex 57.5 12.4019 4
      vertex 56 15 4
      vertex 57.1737 12.6199 4
    endloop
  endfacet
  facet normal 0 0 1
    outer loop
      vertex 56 33 4
      vertex 56.6199 34.8263 4
      vertex 56.4019 34.5 4
    endloop
  endfacet
  facet normal 0 0 1
    outer loop
      vertex 57.1737 12.6199 4
      vertex 56 15 4
      vertex 56.8787 12.8787 4
    endloop
  endfacet
  facet normal 0 0 1
    outer loop
      vertex 56 33 4
      vertex 56.4019 34.5 4
      vertex 56.2284 34.148 4
    endloop
  endfacet
  facet normal 0 0 1
    outer loop
      vertex 56.8787 12.8787 4
      vertex 56 15 4
      vertex 56.6199 13.1737 4
    endloop
  endfacet
  facet normal 0 0 1
    outer loop
      vertex 56 33 4
      vertex 56.2284 34.148 4
      vertex 56.1022 33.7765 4
    endloop
  endfacet
  facet normal 0 0 1
    outer loop
      vertex 56.6199 13.1737 4
      vertex 56 15 4
      vertex 56.4019 13.5 4
    endloop
  endfacet
  facet normal 0 0 1
    outer loop
      vertex 56 33 4
      vertex 56.1022 33.7765 4
      vertex 56.0257 33.3916 4
    endloop
  endfacet
  facet normal 0 0 1
    outer loop
      vertex 56.4019 13.5 4
      vertex 56 15 4
      vertex 56.2284 13.8519 4
    endloop
  endfacet
  facet normal 0 0 1
    outer loop
      vertex 56.2284 13.8519 4
      vertex 56 15 4
      vertex 56.1022 14.2235 4
    endloop
  endfacet
  facet normal 0 0 1
    outer loop
      vertex 56.1022 14.2235 4
      vertex 56 15 4
      vertex 56.0257 14.6084 4
    endloop
  endfacet
  facet normal -0.997853 -0.0654873 0
    outer loop
      vertex 56.0257 14.6084 0
      vertex 56 15 4
      vertex 56 15 0
    endloop
  endfacet
  facet normal -0.997853 -0.0654873 0
    outer loop
      vertex 56 15 4
      vertex 56.0257 14.6084 0
      vertex 56.0257 14.6084 4
    endloop
  endfacet
  facet normal 1 -0 0
    outer loop
      vertex 84 15 4
      vertex 84 33 0
      vertex 84 33 4
    endloop
  endfacet
  facet normal 1 0 0
    outer loop
      vertex 84 33 0
      vertex 84 15 4
      vertex 84 15 0
    endloop
  endfacet
  facet normal -0.659478 0.751724 0
    outer loop
      vertex 57.1737 35.3801 0
      vertex 56.8787 35.1213 4
      vertex 57.1737 35.3801 4
    endloop
  endfacet
  facet normal -0.659478 0.751724 0
    outer loop
      vertex 56.8787 35.1213 4
      vertex 57.1737 35.3801 0
      vertex 56.8787 35.1213 0
    endloop
  endfacet
  facet normal 0.44211 0.896961 -0
    outer loop
      vertex 82.5 35.5981 0
      vertex 82.148 35.7716 4
      vertex 82.5 35.5981 4
    endloop
  endfacet
  facet normal 0.44211 0.896961 0
    outer loop
      vertex 82.148 35.7716 4
      vertex 82.5 35.5981 0
      vertex 82.148 35.7716 0
    endloop
  endfacet
  facet normal -0.555523 0.831501 0
    outer loop
      vertex 57.5 35.5981 0
      vertex 57.1737 35.3801 4
      vertex 57.5 35.5981 4
    endloop
  endfacet
  facet normal -0.555523 0.831501 0
    outer loop
      vertex 57.1737 35.3801 4
      vertex 57.5 35.5981 0
      vertex 57.1737 35.3801 0
    endloop
  endfacet
  facet normal 0.321651 0.946858 -0
    outer loop
      vertex 82.148 35.7716 0
      vertex 81.7765 35.8978 4
      vertex 82.148 35.7716 4
    endloop
  endfacet
  facet normal 0.321651 0.946858 0
    outer loop
      vertex 81.7765 35.8978 4
      vertex 82.148 35.7716 0
      vertex 81.7765 35.8978 0
    endloop
  endfacet
  facet normal -0.946885 -0.321574 0
    outer loop
      vertex 56.2284 13.8519 0
      vertex 56.1022 14.2235 4
      vertex 56.1022 14.2235 0
    endloop
  endfacet
  facet normal -0.946885 -0.321574 0
    outer loop
      vertex 56.1022 14.2235 4
      vertex 56.2284 13.8519 0
      vertex 56.2284 13.8519 4
    endloop
  endfacet
  facet normal -0.44211 0.896961 0
    outer loop
      vertex 57.852 35.7716 0
      vertex 57.5 35.5981 4
      vertex 57.852 35.7716 4
    endloop
  endfacet
  facet normal -0.44211 0.896961 0
    outer loop
      vertex 57.5 35.5981 4
      vertex 57.852 35.7716 0
      vertex 57.5 35.5981 0
    endloop
  endfacet
  facet normal 0.946885 -0.321574 0
    outer loop
      vertex 83.7716 13.8519 4
      vertex 83.8978 14.2235 0
      vertex 83.8978 14.2235 4
    endloop
  endfacet
  facet normal 0.946885 -0.321574 0
    outer loop
      vertex 83.8978 14.2235 0
      vertex 83.7716 13.8519 4
      vertex 83.7716 13.8519 0
    endloop
  endfacet
  facet normal 0.0654873 0.997853 -0
    outer loop
      vertex 81.3916 35.9743 0
      vertex 81 36 4
      vertex 81.3916 35.9743 4
    endloop
  endfacet
  facet normal 0.0654873 0.997853 0
    outer loop
      vertex 81 36 4
      vertex 81.3916 35.9743 0
      vertex 81 36 0
    endloop
  endfacet
  facet normal -0.980815 0.19494 0
    outer loop
      vertex 56.0257 33.3916 0
      vertex 56.1022 33.7765 4
      vertex 56.1022 33.7765 0
    endloop
  endfacet
  facet normal -0.980815 0.19494 0
    outer loop
      vertex 56.1022 33.7765 4
      vertex 56.0257 33.3916 0
      vertex 56.0257 33.3916 4
    endloop
  endfacet
  facet normal 0.997853 0.0654873 0
    outer loop
      vertex 84 33 4
      vertex 83.9743 33.3916 0
      vertex 83.9743 33.3916 4
    endloop
  endfacet
  facet normal 0.997853 0.0654873 0
    outer loop
      vertex 83.9743 33.3916 0
      vertex 84 33 4
      vertex 84 33 0
    endloop
  endfacet
  facet normal -0.321651 -0.946858 0
    outer loop
      vertex 57.852 12.2284 0
      vertex 58.2235 12.1022 4
      vertex 57.852 12.2284 4
    endloop
  endfacet
  facet normal -0.321651 -0.946858 -0
    outer loop
      vertex 58.2235 12.1022 4
      vertex 57.852 12.2284 0
      vertex 58.2235 12.1022 0
    endloop
  endfacet
  facet normal -0.831501 -0.555523 0
    outer loop
      vertex 56.6199 13.1737 0
      vertex 56.4019 13.5 4
      vertex 56.4019 13.5 0
    endloop
  endfacet
  facet normal -0.831501 -0.555523 0
    outer loop
      vertex 56.4019 13.5 4
      vertex 56.6199 13.1737 0
      vertex 56.6199 13.1737 4
    endloop
  endfacet
  facet normal 0.659478 0.751724 -0
    outer loop
      vertex 83.1213 35.1213 0
      vertex 82.8263 35.3801 4
      vertex 83.1213 35.1213 4
    endloop
  endfacet
  facet normal 0.659478 0.751724 0
    outer loop
      vertex 82.8263 35.3801 4
      vertex 83.1213 35.1213 0
      vertex 82.8263 35.3801 0
    endloop
  endfacet
  facet normal 0.0654873 -0.997853 0
    outer loop
      vertex 81 12 0
      vertex 81.3916 12.0257 4
      vertex 81 12 4
    endloop
  endfacet
  facet normal 0.0654873 -0.997853 0
    outer loop
      vertex 81.3916 12.0257 4
      vertex 81 12 0
      vertex 81.3916 12.0257 0
    endloop
  endfacet
  facet normal 0.44211 -0.896961 0
    outer loop
      vertex 82.148 12.2284 0
      vertex 82.5 12.4019 4
      vertex 82.148 12.2284 4
    endloop
  endfacet
  facet normal 0.44211 -0.896961 0
    outer loop
      vertex 82.5 12.4019 4
      vertex 82.148 12.2284 0
      vertex 82.5 12.4019 0
    endloop
  endfacet
  facet normal 0.659478 -0.751724 0
    outer loop
      vertex 82.8263 12.6199 0
      vertex 83.1213 12.8787 4
      vertex 82.8263 12.6199 4
    endloop
  endfacet
  facet normal 0.659478 -0.751724 0
    outer loop
      vertex 83.1213 12.8787 4
      vertex 82.8263 12.6199 0
      vertex 83.1213 12.8787 0
    endloop
  endfacet
  facet normal 0.19494 -0.980815 0
    outer loop
      vertex 81.3916 12.0257 0
      vertex 81.7765 12.1022 4
      vertex 81.3916 12.0257 4
    endloop
  endfacet
  facet normal 0.19494 -0.980815 0
    outer loop
      vertex 81.7765 12.1022 4
      vertex 81.3916 12.0257 0
      vertex 81.7765 12.1022 0
    endloop
  endfacet
  facet normal -1 0 0
    outer loop
      vertex 56 15 0
      vertex 56 33 4
      vertex 56 33 0
    endloop
  endfacet
  facet normal -1 -0 0
    outer loop
      vertex 56 33 4
      vertex 56 15 0
      vertex 56 15 4
    endloop
  endfacet
  facet normal -0.980815 -0.19494 0
    outer loop
      vertex 56.1022 14.2235 0
      vertex 56.0257 14.6084 4
      vertex 56.0257 14.6084 0
    endloop
  endfacet
  facet normal -0.980815 -0.19494 0
    outer loop
      vertex 56.0257 14.6084 4
      vertex 56.1022 14.2235 0
      vertex 56.1022 14.2235 4
    endloop
  endfacet
  facet normal 0 0 -1
    outer loop
      vertex 81 12 0
      vertex 84 15 0
      vertex 83.9743 14.6084 0
    endloop
  endfacet
  facet normal -0 0 -1
    outer loop
      vertex 84 15 0
      vertex 81 12 0
      vertex 84 33 0
    endloop
  endfacet
  facet normal 0 0 -1
    outer loop
      vertex 81 12 0
      vertex 83.9743 14.6084 0
      vertex 83.8978 14.2235 0
    endloop
  endfacet
  facet normal 0 0 -1
    outer loop
      vertex 81 36 0
      vertex 84 33 0
      vertex 81 12 0
    endloop
  endfacet
  facet normal 0 0 -1
    outer loop
      vertex 81 12 0
      vertex 83.8978 14.2235 0
      vertex 83.7716 13.8519 0
    endloop
  endfacet
  facet normal 0 0 -1
    outer loop
      vertex 84 33 0
      vertex 81 36 0
      vertex 83.9743 33.3916 0
    endloop
  endfacet
  facet normal 0 0 -1
    outer loop
      vertex 81 12 0
      vertex 83.7716 13.8519 0
      vertex 83.5981 13.5 0
    endloop
  endfacet
  facet normal 0 0 -1
    outer loop
      vertex 83.9743 33.3916 0
      vertex 81 36 0
      vertex 83.8978 33.7765 0
    endloop
  endfacet
  facet normal 0 0 -1
    outer loop
      vertex 81 12 0
      vertex 83.5981 13.5 0
      vertex 83.3801 13.1737 0
    endloop
  endfacet
  facet normal 0 0 -1
    outer loop
      vertex 83.8978 33.7765 0
      vertex 81 36 0
      vertex 83.7716 34.148 0
    endloop
  endfacet
  facet normal 0 0 -1
    outer loop
      vertex 81 12 0
      vertex 83.3801 13.1737 0
      vertex 83.1213 12.8787 0
    endloop
  endfacet
  facet normal 0 0 -1
    outer loop
      vertex 83.7716 34.148 0
      vertex 81 36 0
      vertex 83.5981 34.5 0
    endloop
  endfacet
  facet normal 0 0 -1
    outer loop
      vertex 81 12 0
      vertex 83.1213 12.8787 0
      vertex 82.8263 12.6199 0
    endloop
  endfacet
  facet normal 0 0 -1
    outer loop
      vertex 83.5981 34.5 0
      vertex 81 36 0
      vertex 83.3801 34.8263 0
    endloop
  endfacet
  facet normal 0 0 -1
    outer loop
      vertex 81 12 0
      vertex 82.8263 12.6199 0
      vertex 82.5 12.4019 0
    endloop
  endfacet
  facet normal 0 0 -1
    outer loop
      vertex 83.3801 34.8263 0
      vertex 81 36 0
      vertex 83.1213 35.1213 0
    endloop
  endfacet
  facet normal 0 0 -1
    outer loop
      vertex 81 12 0
      vertex 82.5 12.4019 0
      vertex 82.148 12.2284 0
    endloop
  endfacet
  facet normal 0 0 -1
    outer loop
      vertex 83.1213 35.1213 0
      vertex 81 36 0
      vertex 82.8263 35.3801 0
    endloop
  endfacet
  facet normal 0 0 -1
    outer loop
      vertex 81 12 0
      vertex 82.148 12.2284 0
      vertex 81.7765 12.1022 0
    endloop
  endfacet
  facet normal 0 0 -1
    outer loop
      vertex 82.8263 35.3801 0
      vertex 81 36 0
      vertex 82.5 35.5981 0
    endloop
  endfacet
  facet normal 0 0 -1
    outer loop
      vertex 81 12 0
      vertex 81.7765 12.1022 0
      vertex 81.3916 12.0257 0
    endloop
  endfacet
  facet normal 0 0 -1
    outer loop
      vertex 82.5 35.5981 0
      vertex 81 36 0
      vertex 82.148 35.7716 0
    endloop
  endfacet
  facet normal 0 0 -1
    outer loop
      vertex 82.148 35.7716 0
      vertex 81 36 0
      vertex 81.7765 35.8978 0
    endloop
  endfacet
  facet normal 0 0 -1
    outer loop
      vertex 81.7765 35.8978 0
      vertex 81 36 0
      vertex 81.3916 35.9743 0
    endloop
  endfacet
  facet normal 0 0 -1
    outer loop
      vertex 59 12 0
      vertex 81 36 0
      vertex 81 12 0
    endloop
  endfacet
  facet normal 0 0 -1
    outer loop
      vertex 59 12 0
      vertex 59 36 0
      vertex 81 36 0
    endloop
  endfacet
  facet normal 0 0 -1
    outer loop
      vertex 56 15 0
      vertex 59 12 0
      vertex 58.6084 12.0257 0
    endloop
  endfacet
  facet normal 0 0 -1
    outer loop
      vertex 59 12 0
      vertex 56 15 0
      vertex 59 36 0
    endloop
  endfacet
  facet normal 0 0 -1
    outer loop
      vertex 56 15 0
      vertex 58.6084 12.0257 0
      vertex 58.2235 12.1022 0
    endloop
  endfacet
  facet normal 0 0 -1
    outer loop
      vertex 56 33 0
      vertex 59 36 0
      vertex 56 15 0
    endloop
  endfacet
  facet normal 0 0 -1
    outer loop
      vertex 56 15 0
      vertex 58.2235 12.1022 0
      vertex 57.852 12.2284 0
    endloop
  endfacet
  facet normal 0 0 -1
    outer loop
      vertex 59 36 0
      vertex 56 33 0
      vertex 58.6084 35.9743 0
    endloop
  endfacet
  facet normal 0 0 -1
    outer loop
      vertex 56 15 0
      vertex 57.852 12.2284 0
      vertex 57.5 12.4019 0
    endloop
  endfacet
  facet normal 0 0 -1
    outer loop
      vertex 58.6084 35.9743 0
      vertex 56 33 0
      vertex 58.2235 35.8978 0
    endloop
  endfacet
  facet normal 0 0 -1
    outer loop
      vertex 56 15 0
      vertex 57.5 12.4019 0
      vertex 57.1737 12.6199 0
    endloop
  endfacet
  facet normal 0 0 -1
    outer loop
      vertex 58.2235 35.8978 0
      vertex 56 33 0
      vertex 57.852 35.7716 0
    endloop
  endfacet
  facet normal 0 0 -1
    outer loop
      vertex 56 15 0
      vertex 57.1737 12.6199 0
      vertex 56.8787 12.8787 0
    endloop
  endfacet
  facet normal 0 0 -1
    outer loop
      vertex 57.852 35.7716 0
      vertex 56 33 0
      vertex 57.5 35.5981 0
    endloop
  endfacet
  facet normal 0 0 -1
    outer loop
      vertex 56 15 0
      vertex 56.8787 12.8787 0
      vertex 56.6199 13.1737 0
    endloop
  endfacet
  facet normal 0 0 -1
    outer loop
      vertex 57.5 35.5981 0
      vertex 56 33 0
      vertex 57.1737 35.3801 0
    endloop
  endfacet
  facet normal 0 0 -1
    outer loop
      vertex 56 15 0
      vertex 56.6199 13.1737 0
      vertex 56.4019 13.5 0
    endloop
  endfacet
  facet normal 0 0 -1
    outer loop
      vertex 57.1737 35.3801 0
      vertex 56 33 0
      vertex 56.8787 35.1213 0
    endloop
  endfacet
  facet normal 0 0 -1
    outer loop
      vertex 56 15 0
      vertex 56.4019 13.5 0
      vertex 56.2284 13.8519 0
    endloop
  endfacet
  facet normal 0 0 -1
    outer loop
      vertex 56.8787 35.1213 0
      vertex 56 33 0
      vertex 56.6199 34.8263 0
    endloop
  endfacet
  facet normal 0 0 -1
    outer loop
      vertex 56 15 0
      vertex 56.2284 13.8519 0
      vertex 56.1022 14.2235 0
    endloop
  endfacet
  facet normal 0 0 -1
    outer loop
      vertex 56.6199 34.8263 0
      vertex 56 33 0
      vertex 56.4019 34.5 0
    endloop
  endfacet
  facet normal 0 0 -1
    outer loop
      vertex 56 15 0
      vertex 56.1022 14.2235 0
      vertex 56.0257 14.6084 0
    endloop
  endfacet
  facet normal 0 0 -1
    outer loop
      vertex 56.4019 34.5 0
      vertex 56 33 0
      vertex 56.2284 34.148 0
    endloop
  endfacet
  facet normal 0 0 -1
    outer loop
      vertex 56.2284 34.148 0
      vertex 56 33 0
      vertex 56.1022 33.7765 0
    endloop
  endfacet
  facet normal 0 0 -1
    outer loop
      vertex 56.1022 33.7765 0
      vertex 56 33 0
      vertex 56.0257 33.3916 0
    endloop
  endfacet
  facet normal 0.896961 0.44211 0
    outer loop
      vertex 83.7716 34.148 4
      vertex 83.5981 34.5 0
      vertex 83.5981 34.5 4
    endloop
  endfacet
  facet normal 0.896961 0.44211 0
    outer loop
      vertex 83.5981 34.5 0
      vertex 83.7716 34.148 4
      vertex 83.7716 34.148 0
    endloop
  endfacet
  facet normal -0.321651 0.946858 0
    outer loop
      vertex 58.2235 35.8978 0
      vertex 57.852 35.7716 4
      vertex 58.2235 35.8978 4
    endloop
  endfacet
  facet normal -0.321651 0.946858 0
    outer loop
      vertex 57.852 35.7716 4
      vertex 58.2235 35.8978 0
      vertex 57.852 35.7716 0
    endloop
  endfacet
  facet normal -0.555523 -0.831501 0
    outer loop
      vertex 57.1737 12.6199 0
      vertex 57.5 12.4019 4
      vertex 57.1737 12.6199 4
    endloop
  endfacet
  facet normal -0.555523 -0.831501 -0
    outer loop
      vertex 57.5 12.4019 4
      vertex 57.1737 12.6199 0
      vertex 57.5 12.4019 0
    endloop
  endfacet
  facet normal 0.896911 -0.442211 0
    outer loop
      vertex 83.5981 13.5 4
      vertex 83.7716 13.8519 0
      vertex 83.7716 13.8519 4
    endloop
  endfacet
  facet normal 0.896911 -0.442211 0
    outer loop
      vertex 83.7716 13.8519 0
      vertex 83.5981 13.5 4
      vertex 83.5981 13.5 0
    endloop
  endfacet
  facet normal -0.0654873 0.997853 0
    outer loop
      vertex 59 36 0
      vertex 58.6084 35.9743 4
      vertex 59 36 4
    endloop
  endfacet
  facet normal -0.0654873 0.997853 0
    outer loop
      vertex 58.6084 35.9743 4
      vertex 59 36 0
      vertex 58.6084 35.9743 0
    endloop
  endfacet
  facet normal 0.555523 -0.831501 0
    outer loop
      vertex 82.5 12.4019 0
      vertex 82.8263 12.6199 4
      vertex 82.5 12.4019 4
    endloop
  endfacet
  facet normal 0.555523 -0.831501 0
    outer loop
      vertex 82.8263 12.6199 4
      vertex 82.5 12.4019 0
      vertex 82.8263 12.6199 0
    endloop
  endfacet
  facet normal -0.659478 -0.751724 0
    outer loop
      vertex 56.8787 12.8787 0
      vertex 57.1737 12.6199 4
      vertex 56.8787 12.8787 4
    endloop
  endfacet
  facet normal -0.659478 -0.751724 -0
    outer loop
      vertex 57.1737 12.6199 4
      vertex 56.8787 12.8787 0
      vertex 57.1737 12.6199 0
    endloop
  endfacet
  facet normal -0.751724 -0.659478 0
    outer loop
      vertex 56.8787 12.8787 0
      vertex 56.6199 13.1737 4
      vertex 56.6199 13.1737 0
    endloop
  endfacet
  facet normal -0.751724 -0.659478 0
    outer loop
      vertex 56.6199 13.1737 4
      vertex 56.8787 12.8787 0
      vertex 56.8787 12.8787 4
    endloop
  endfacet
  facet normal 0.980815 -0.19494 0
    outer loop
      vertex 83.8978 14.2235 4
      vertex 83.9743 14.6084 0
      vertex 83.9743 14.6084 4
    endloop
  endfacet
  facet normal 0.980815 -0.19494 0
    outer loop
      vertex 83.9743 14.6084 0
      vertex 83.8978 14.2235 4
      vertex 83.8978 14.2235 0
    endloop
  endfacet
  facet normal -0.997853 0.0654873 0
    outer loop
      vertex 56 33 0
      vertex 56.0257 33.3916 4
      vertex 56.0257 33.3916 0
    endloop
  endfacet
  facet normal -0.997853 0.0654873 0
    outer loop
      vertex 56.0257 33.3916 4
      vertex 56 33 0
      vertex 56 33 4
    endloop
  endfacet
  facet normal 0.19494 0.980815 -0
    outer loop
      vertex 81.7765 35.8978 0
      vertex 81.3916 35.9743 4
      vertex 81.7765 35.8978 4
    endloop
  endfacet
  facet normal 0.19494 0.980815 0
    outer loop
      vertex 81.3916 35.9743 4
      vertex 81.7765 35.8978 0
      vertex 81.3916 35.9743 0
    endloop
  endfacet
  facet normal -0.896961 0.44211 0
    outer loop
      vertex 56.2284 34.148 0
      vertex 56.4019 34.5 4
      vertex 56.4019 34.5 0
    endloop
  endfacet
  facet normal -0.896961 0.44211 0
    outer loop
      vertex 56.4019 34.5 4
      vertex 56.2284 34.148 0
      vertex 56.2284 34.148 4
    endloop
  endfacet
  facet normal 0.946858 0.321651 0
    outer loop
      vertex 83.8978 33.7765 4
      vertex 83.7716 34.148 0
      vertex 83.7716 34.148 4
    endloop
  endfacet
  facet normal 0.946858 0.321651 0
    outer loop
      vertex 83.7716 34.148 0
      vertex 83.8978 33.7765 4
      vertex 83.8978 33.7765 0
    endloop
  endfacet
  facet normal 0.831501 -0.555523 0
    outer loop
      vertex 83.3801 13.1737 4
      vertex 83.5981 13.5 0
      vertex 83.5981 13.5 4
    endloop
  endfacet
  facet normal 0.831501 -0.555523 0
    outer loop
      vertex 83.5981 13.5 0
      vertex 83.3801 13.1737 4
      vertex 83.3801 13.1737 0
    endloop
  endfacet
  facet normal 0.751724 0.659478 0
    outer loop
      vertex 83.3801 34.8263 4
      vertex 83.1213 35.1213 0
      vertex 83.1213 35.1213 4
    endloop
  endfacet
  facet normal 0.751724 0.659478 0
    outer loop
      vertex 83.1213 35.1213 0
      vertex 83.3801 34.8263 4
      vertex 83.3801 34.8263 0
    endloop
  endfacet
  facet normal -0.19494 0.980815 0
    outer loop
      vertex 58.6084 35.9743 0
      vertex 58.2235 35.8978 4
      vertex 58.6084 35.9743 4
    endloop
  endfacet
  facet normal -0.19494 0.980815 0
    outer loop
      vertex 58.2235 35.8978 4
      vertex 58.6084 35.9743 0
      vertex 58.2235 35.8978 0
    endloop
  endfacet
  facet normal -0.946858 0.321651 0
    outer loop
      vertex 56.1022 33.7765 0
      vertex 56.2284 34.148 4
      vertex 56.2284 34.148 0
    endloop
  endfacet
  facet normal -0.946858 0.321651 0
    outer loop
      vertex 56.2284 34.148 4
      vertex 56.1022 33.7765 0
      vertex 56.1022 33.7765 4
    endloop
  endfacet
  facet normal 1 0 0
    outer loop
      vertex 75 59.4 6.4
      vertex 75 56 4.8
      vertex 75 59.4 4.8
    endloop
  endfacet
  facet normal 1 -0 0
    outer loop
      vertex 75 49.4 6.4
      vertex 75 56 4.8
      vertex 75 59.4 6.4
    endloop
  endfacet
  facet normal 1 0 0
    outer loop
      vertex 75 49.4 4.8
      vertex 75 56 4.8
      vertex 75 49.4 6.4
    endloop
  endfacet
  facet normal 1 0 0
    outer loop
      vertex 75 56 4.8
      vertex 75 49.4 4.8
      vertex 75 56 4
    endloop
  endfacet
  facet normal 1 0 0
    outer loop
      vertex 75 49.4 4.8
      vertex 75 36 4
      vertex 75 56 4
    endloop
  endfacet
  facet normal 1 -0 0
    outer loop
      vertex 75 32 4.8
      vertex 75 36 4
      vertex 75 49.4 4.8
    endloop
  endfacet
  facet normal 1 0 0
    outer loop
      vertex 75 36 4
      vertex 75 32 4.8
      vertex 75 32 4
    endloop
  endfacet
  facet normal 0 0 -1
    outer loop
      vertex 65 56 4.8
      vertex 75 59.4 4.8
      vertex 75 56 4.8
    endloop
  endfacet
  facet normal -0 0 -1
    outer loop
      vertex 75 59.4 4.8
      vertex 65 56 4.8
      vertex 65 59.4 4.8
    endloop
  endfacet
  facet normal -0 0 1
    outer loop
      vertex 65 49.4 4.8
      vertex 75 32 4.8
      vertex 75 49.4 4.8
    endloop
  endfacet
  facet normal 0 0 1
    outer loop
      vertex 75 32 4.8
      vertex 65 49.4 4.8
      vertex 65 32 4.8
    endloop
  endfacet
  facet normal -1 0 0
    outer loop
      vertex 65 56 4
      vertex 65 49.4 4.8
      vertex 65 56 4.8
    endloop
  endfacet
  facet normal -1 0 0
    outer loop
      vertex 65 36 4
      vertex 65 49.4 4.8
      vertex 65 56 4
    endloop
  endfacet
  facet normal -1 0 0
    outer loop
      vertex 65 32 4.8
      vertex 65 36 4
      vertex 65 32 4
    endloop
  endfacet
  facet normal -1 0 0
    outer loop
      vertex 65 36 4
      vertex 65 32 4.8
      vertex 65 49.4 4.8
    endloop
  endfacet
  facet normal -1 0 0
    outer loop
      vertex 65 56 4.8
      vertex 65 59.4 6.4
      vertex 65 59.4 4.8
    endloop
  endfacet
  facet normal -1 0 0
    outer loop
      vertex 65 49.4 6.4
      vertex 65 56 4.8
      vertex 65 49.4 4.8
    endloop
  endfacet
  facet normal -1 0 0
    outer loop
      vertex 65 56 4.8
      vertex 65 49.4 6.4
      vertex 65 59.4 6.4
    endloop
  endfacet
  facet normal 0 1 -0
    outer loop
      vertex 75 56 4
      vertex 65 56 4.8
      vertex 75 56 4.8
    endloop
  endfacet
  facet normal 0 1 0
    outer loop
      vertex 65 56 4.8
      vertex 75 56 4
      vertex 65 56 4
    endloop
  endfacet
  facet normal 0 -1 0
    outer loop
      vertex 65 32 4
      vertex 75 32 4.8
      vertex 65 32 4.8
    endloop
  endfacet
  facet normal 0 -1 -0
    outer loop
      vertex 75 32 4.8
      vertex 65 32 4
      vertex 75 32 4
    endloop
  endfacet
  facet normal 0 1 -0
    outer loop
      vertex 75 59.4 4.8
      vertex 65 59.4 6.4
      vertex 75 59.4 6.4
    endloop
  endfacet
  facet normal 0 1 0
    outer loop
      vertex 65 59.4 6.4
      vertex 75 59.4 4.8
      vertex 65 59.4 4.8
    endloop
  endfacet
  facet normal -0 0 1
    outer loop
      vertex 65 59.4 6.4
      vertex 75 49.4 6.4
      vertex 75 59.4 6.4
    endloop
  endfacet
  facet normal 0 0 1
    outer loop
      vertex 75 49.4 6.4
      vertex 65 59.4 6.4
      vertex 65 49.4 6.4
    endloop
  endfacet
  facet normal 0 -1 0
    outer loop
      vertex 65 49.4 4.8
      vertex 75 49.4 6.4
      vertex 65 49.4 6.4
    endloop
  endfacet
  facet normal 0 -1 -0
    outer loop
      vertex 75 49.4 6.4
      vertex 65 49.4 4.8
      vertex 75 49.4 4.8
    endloop
  endfacet
endsolid OpenSCAD_Model
