solid OpenSCAD_Model
  facet normal 1 -0 0
    outer loop
      vertex 34 11.5 0.53798
      vertex 34 16.5 0
      vertex 34 16.5 0.53798
    endloop
  endfacet
  facet normal 1 0 0
    outer loop
      vertex 34 16.5 0
      vertex 34 11.5 0.53798
      vertex 34 11.5 0
    endloop
  endfacet
  facet normal -0 0 1
    outer loop
      vertex 10 16.5 9
      vertex 32.6 11.5 9
      vertex 32.6 16.5 9
    endloop
  endfacet
  facet normal 0 0 1
    outer loop
      vertex 32.6 11.5 9
      vertex 10 16.5 9
      vertex 10 11.5 9
    endloop
  endfacet
  facet normal 0 0 -1
    outer loop
      vertex 34 11.5 0
      vertex 11 16.5 0
      vertex 34 16.5 0
    endloop
  endfacet
  facet normal -0 0 -1
    outer loop
      vertex 11 16.5 0
      vertex 3 11.5 0
      vertex 11 33.5 0
    endloop
  endfacet
  facet normal 0 0 -1
    outer loop
      vertex 3 11.5 0
      vertex 11 16.5 0
      vertex 34 11.5 0
    endloop
  endfacet
  facet normal 0 0 -1
    outer loop
      vertex 11 33.5 0
      vertex 34 38.5 0
      vertex 34 33.5 0
    endloop
  endfacet
  facet normal 0 0 -1
    outer loop
      vertex 11 33.5 0
      vertex 3 38.5 0
      vertex 34 38.5 0
    endloop
  endfacet
  facet normal 0 0 -1
    outer loop
      vertex 3 38.5 0
      vertex 11 33.5 0
      vertex 3 11.5 0
    endloop
  endfacet
  facet normal -1 0 0
    outer loop
      vertex 10 11.5 4
      vertex 10 16.5 9
      vertex 10 16.5 4
    endloop
  endfacet
  facet normal -1 -0 0
    outer loop
      vertex 10 16.5 9
      vertex 10 11.5 4
      vertex 10 11.5 9
    endloop
  endfacet
  facet normal 0 1 0
    outer loop
      vertex 34 16.5 0.53798
      vertex 34 16.5 0
      vertex 33.5659 16.5 0.53798
    endloop
  endfacet
  facet normal 0 1 0
    outer loop
      vertex 32.6 16.5 9
      vertex 31.6508 16.5 3.85505
      vertex 11 16.5 4
    endloop
  endfacet
  facet normal 0 1 -0
    outer loop
      vertex 31.5 16.5 3
      vertex 11 16.5 4
      vertex 31.6508 16.5 3.85505
    endloop
  endfacet
  facet normal 0 1 0
    outer loop
      vertex 11 16.5 0
      vertex 31.5 16.5 3
      vertex 31.6508 16.5 2.14495
    endloop
  endfacet
  facet normal 0 1 0
    outer loop
      vertex 11 16.5 0
      vertex 31.6508 16.5 2.14495
      vertex 32.0849 16.5 1.39303
    endloop
  endfacet
  facet normal 0 1 0
    outer loop
      vertex 11 16.5 0
      vertex 32.0849 16.5 1.39303
      vertex 32.75 16.5 0.834936
    endloop
  endfacet
  facet normal 0 1 0
    outer loop
      vertex 34 16.5 0
      vertex 32.75 16.5 0.834936
      vertex 33.5659 16.5 0.53798
    endloop
  endfacet
  facet normal 0 1 0
    outer loop
      vertex 32.75 16.5 0.834936
      vertex 34 16.5 0
      vertex 11 16.5 0
    endloop
  endfacet
  facet normal 0 1 0
    outer loop
      vertex 31.5 16.5 3
      vertex 11 16.5 0
      vertex 11 16.5 4
    endloop
  endfacet
  facet normal 0 1 0
    outer loop
      vertex 32.0849 16.5 4.60697
      vertex 32.6 16.5 9
      vertex 32.6 16.5 5.0392
    endloop
  endfacet
  facet normal 0 1 0
    outer loop
      vertex 31.6508 16.5 3.85505
      vertex 32.6 16.5 9
      vertex 32.0849 16.5 4.60697
    endloop
  endfacet
  facet normal 0 1 0
    outer loop
      vertex 32.6 16.5 9
      vertex 11 16.5 4
      vertex 10 16.5 9
    endloop
  endfacet
  facet normal 0 1 0
    outer loop
      vertex 10 16.5 9
      vertex 11 16.5 4
      vertex 10 16.5 4
    endloop
  endfacet
  facet normal 0 -1 0
    outer loop
      vertex 3 11.5 0
      vertex 10 11.5 4
      vertex 3 11.5 4
    endloop
  endfacet
  facet normal 0 -1 0
    outer loop
      vertex 10 11.5 4
      vertex 31.5 11.5 3
      vertex 31.6508 11.5 3.85505
    endloop
  endfacet
  facet normal -0 -1 0
    outer loop
      vertex 32.75 11.5 0.834936
      vertex 10 11.5 4
      vertex 3 11.5 0
    endloop
  endfacet
  facet normal 0 -1 0
    outer loop
      vertex 10 11.5 4
      vertex 31.6508 11.5 2.14495
      vertex 31.5 11.5 3
    endloop
  endfacet
  facet normal 0 -1 0
    outer loop
      vertex 10 11.5 4
      vertex 32.0849 11.5 1.39303
      vertex 31.6508 11.5 2.14495
    endloop
  endfacet
  facet normal 0 -1 0
    outer loop
      vertex 10 11.5 4
      vertex 32.75 11.5 0.834936
      vertex 32.0849 11.5 1.39303
    endloop
  endfacet
  facet normal 0 -1 0
    outer loop
      vertex 34 11.5 0
      vertex 32.75 11.5 0.834936
      vertex 3 11.5 0
    endloop
  endfacet
  facet normal 0 -1 0
    outer loop
      vertex 32.75 11.5 0.834936
      vertex 34 11.5 0
      vertex 33.5659 11.5 0.53798
    endloop
  endfacet
  facet normal 0 -1 0
    outer loop
      vertex 33.5659 11.5 0.53798
      vertex 34 11.5 0
      vertex 34 11.5 0.53798
    endloop
  endfacet
  facet normal 0 -1 0
    outer loop
      vertex 31.6508 11.5 3.85505
      vertex 32.6 11.5 9
      vertex 10 11.5 9
    endloop
  endfacet
  facet normal 0 -1 -0
    outer loop
      vertex 32.6 11.5 9
      vertex 32.0849 11.5 4.60697
      vertex 32.6 11.5 5.0392
    endloop
  endfacet
  facet normal 0 -1 0
    outer loop
      vertex 31.6508 11.5 3.85505
      vertex 10 11.5 9
      vertex 10 11.5 4
    endloop
  endfacet
  facet normal 0 -1 0
    outer loop
      vertex 32.6 11.5 9
      vertex 31.6508 11.5 3.85505
      vertex 32.0849 11.5 4.60697
    endloop
  endfacet
  facet normal 1 -0 0
    outer loop
      vertex 34 33.5 0.53798
      vertex 34 38.5 0
      vertex 34 38.5 0.53798
    endloop
  endfacet
  facet normal 1 0 0
    outer loop
      vertex 34 38.5 0
      vertex 34 33.5 0.53798
      vertex 34 33.5 0
    endloop
  endfacet
  facet normal -0 0 1
    outer loop
      vertex 10 38.5 9
      vertex 32.6 33.5 9
      vertex 32.6 38.5 9
    endloop
  endfacet
  facet normal 0 0 1
    outer loop
      vertex 32.6 33.5 9
      vertex 10 38.5 9
      vertex 10 33.5 9
    endloop
  endfacet
  facet normal -1 0 0
    outer loop
      vertex 10 33.5 4
      vertex 10 38.5 9
      vertex 10 38.5 4
    endloop
  endfacet
  facet normal -1 -0 0
    outer loop
      vertex 10 38.5 9
      vertex 10 33.5 4
      vertex 10 33.5 9
    endloop
  endfacet
  facet normal 0 1 0
    outer loop
      vertex 34 38.5 0.53798
      vertex 34 38.5 0
      vertex 33.5659 38.5 0.53798
    endloop
  endfacet
  facet normal 0 1 0
    outer loop
      vertex 32.0849 38.5 4.60697
      vertex 32.6 38.5 9
      vertex 32.6 38.5 5.0392
    endloop
  endfacet
  facet normal 0 1 0
    outer loop
      vertex 31.6508 38.5 3.85505
      vertex 32.6 38.5 9
      vertex 32.0849 38.5 4.60697
    endloop
  endfacet
  facet normal 0 1 0
    outer loop
      vertex 32.6 38.5 9
      vertex 31.6508 38.5 3.85505
      vertex 10 38.5 9
    endloop
  endfacet
  facet normal 0 1 0
    outer loop
      vertex 10 38.5 9
      vertex 31.6508 38.5 3.85505
      vertex 10 38.5 4
    endloop
  endfacet
  facet normal 0 1 -0
    outer loop
      vertex 31.5 38.5 3
      vertex 10 38.5 4
      vertex 31.6508 38.5 3.85505
    endloop
  endfacet
  facet normal 0 1 0
    outer loop
      vertex 31.6508 38.5 2.14495
      vertex 10 38.5 4
      vertex 31.5 38.5 3
    endloop
  endfacet
  facet normal 0 1 0
    outer loop
      vertex 32.0849 38.5 1.39303
      vertex 10 38.5 4
      vertex 31.6508 38.5 2.14495
    endloop
  endfacet
  facet normal 0 1 0
    outer loop
      vertex 32.75 38.5 0.834936
      vertex 10 38.5 4
      vertex 32.0849 38.5 1.39303
    endloop
  endfacet
  facet normal 0 1 0
    outer loop
      vertex 10 38.5 4
      vertex 32.75 38.5 0.834936
      vertex 3 38.5 0
    endloop
  endfacet
  facet normal 0 1 0
    outer loop
      vertex 34 38.5 0
      vertex 32.75 38.5 0.834936
      vertex 33.5659 38.5 0.53798
    endloop
  endfacet
  facet normal 0 1 0
    outer loop
      vertex 32.75 38.5 0.834936
      vertex 34 38.5 0
      vertex 3 38.5 0
    endloop
  endfacet
  facet normal 0 1 0
    outer loop
      vertex 10 38.5 4
      vertex 3 38.5 0
      vertex 3 38.5 4
    endloop
  endfacet
  facet normal 0 -1 0
    outer loop
      vertex 11 33.5 4
      vertex 32.6 33.5 9
      vertex 10 33.5 9
    endloop
  endfacet
  facet normal 0 -1 -0
    outer loop
      vertex 32.6 33.5 9
      vertex 32.0849 33.5 4.60697
      vertex 32.6 33.5 5.0392
    endloop
  endfacet
  facet normal 0 -1 0
    outer loop
      vertex 11 33.5 4
      vertex 10 33.5 9
      vertex 10 33.5 4
    endloop
  endfacet
  facet normal 0 -1 0
    outer loop
      vertex 32.6 33.5 9
      vertex 11 33.5 4
      vertex 31.6508 33.5 3.85505
    endloop
  endfacet
  facet normal 0 -1 0
    outer loop
      vertex 32.6 33.5 9
      vertex 31.6508 33.5 3.85505
      vertex 32.0849 33.5 4.60697
    endloop
  endfacet
  facet normal 0 -1 0
    outer loop
      vertex 11 33.5 4
      vertex 31.5 33.5 3
      vertex 31.6508 33.5 3.85505
    endloop
  endfacet
  facet normal 0 -1 0
    outer loop
      vertex 11 33.5 0
      vertex 31.5 33.5 3
      vertex 11 33.5 4
    endloop
  endfacet
  facet normal 0 -1 -0
    outer loop
      vertex 31.5 33.5 3
      vertex 11 33.5 0
      vertex 31.6508 33.5 2.14495
    endloop
  endfacet
  facet normal 0 -1 -0
    outer loop
      vertex 31.6508 33.5 2.14495
      vertex 11 33.5 0
      vertex 32.0849 33.5 1.39303
    endloop
  endfacet
  facet normal 0 -1 -0
    outer loop
      vertex 32.0849 33.5 1.39303
      vertex 11 33.5 0
      vertex 32.75 33.5 0.834936
    endloop
  endfacet
  facet normal 0 -1 0
    outer loop
      vertex 34 33.5 0
      vertex 32.75 33.5 0.834936
      vertex 11 33.5 0
    endloop
  endfacet
  facet normal 0 -1 0
    outer loop
      vertex 32.75 33.5 0.834936
      vertex 34 33.5 0
      vertex 33.5659 33.5 0.53798
    endloop
  endfacet
  facet normal 0 -1 0
    outer loop
      vertex 33.5659 33.5 0.53798
      vertex 34 33.5 0
      vertex 34 33.5 0.53798
    endloop
  endfacet
  facet normal 1 -0 0
    outer loop
      vertex 11 16.5 4
      vertex 11 33.5 0
      vertex 11 33.5 4
    endloop
  endfacet
  facet normal 1 0 0
    outer loop
      vertex 11 33.5 0
      vertex 11 16.5 4
      vertex 11 16.5 0
    endloop
  endfacet
  facet normal -0 0 1
    outer loop
      vertex 3 38.5 4
      vertex 10 33.5 4
      vertex 10 38.5 4
    endloop
  endfacet
  facet normal 0 0 1
    outer loop
      vertex 10 33.5 4
      vertex 3 38.5 4
      vertex 10 16.5 4
    endloop
  endfacet
  facet normal 0 0 1
    outer loop
      vertex 3 11.5 4
      vertex 10 16.5 4
      vertex 3 38.5 4
    endloop
  endfacet
  facet normal 0 0 1
    outer loop
      vertex 10 16.5 4
      vertex 3 11.5 4
      vertex 10 11.5 4
    endloop
  endfacet
  facet normal -0 0 1
    outer loop
      vertex 10 33.5 4
      vertex 11 16.5 4
      vertex 11 33.5 4
    endloop
  endfacet
  facet normal 0 0 1
    outer loop
      vertex 11 16.5 4
      vertex 10 33.5 4
      vertex 10 16.5 4
    endloop
  endfacet
  facet normal -1 0 0
    outer loop
      vertex 3 11.5 0
      vertex 3 38.5 4
      vertex 3 38.5 0
    endloop
  endfacet
  facet normal -1 -0 0
    outer loop
      vertex 3 38.5 4
      vertex 3 11.5 0
      vertex 3 11.5 4
    endloop
  endfacet
  facet normal 0.984802 0 -0.173683
    outer loop
      vertex 31.6508 11.5 3.85505
      vertex 31.5 16.5 3
      vertex 31.6508 16.5 3.85505
    endloop
  endfacet
  facet normal 0.984802 0 -0.173683
    outer loop
      vertex 31.5 16.5 3
      vertex 31.6508 11.5 3.85505
      vertex 31.5 11.5 3
    endloop
  endfacet
  facet normal 0.642796 0 -0.766037
    outer loop
      vertex 32.0849 11.5 4.60697
      vertex 32.6 16.5 5.0392
      vertex 32.6 11.5 5.0392
    endloop
  endfacet
  facet normal 0.642796 0 -0.766037
    outer loop
      vertex 32.6 16.5 5.0392
      vertex 32.0849 11.5 4.60697
      vertex 32.0849 16.5 4.60697
    endloop
  endfacet
  facet normal 0.642794 0 0.766039
    outer loop
      vertex 32.0849 16.5 1.39303
      vertex 32.75 11.5 0.834936
      vertex 32.75 16.5 0.834936
    endloop
  endfacet
  facet normal 0.642794 0 0.766039
    outer loop
      vertex 32.75 11.5 0.834936
      vertex 32.0849 16.5 1.39303
      vertex 32.0849 11.5 1.39303
    endloop
  endfacet
  facet normal -0 0 1
    outer loop
      vertex 33.5659 16.5 0.53798
      vertex 34 11.5 0.53798
      vertex 34 16.5 0.53798
    endloop
  endfacet
  facet normal 0 0 1
    outer loop
      vertex 34 11.5 0.53798
      vertex 33.5659 16.5 0.53798
      vertex 33.5659 11.5 0.53798
    endloop
  endfacet
  facet normal 0.984802 -0 0.173683
    outer loop
      vertex 31.5 11.5 3
      vertex 31.6508 16.5 2.14495
      vertex 31.5 16.5 3
    endloop
  endfacet
  facet normal 0.984802 0 0.173683
    outer loop
      vertex 31.6508 16.5 2.14495
      vertex 31.5 11.5 3
      vertex 31.6508 11.5 2.14495
    endloop
  endfacet
  facet normal 0.866036 0 -0.499982
    outer loop
      vertex 32.0849 11.5 4.60697
      vertex 31.6508 16.5 3.85505
      vertex 32.0849 16.5 4.60697
    endloop
  endfacet
  facet normal 0.866036 0 -0.499982
    outer loop
      vertex 31.6508 16.5 3.85505
      vertex 32.0849 11.5 4.60697
      vertex 31.6508 11.5 3.85505
    endloop
  endfacet
  facet normal 0.342013 0 0.939695
    outer loop
      vertex 32.75 16.5 0.834936
      vertex 33.5659 11.5 0.53798
      vertex 33.5659 16.5 0.53798
    endloop
  endfacet
  facet normal 0.342013 0 0.939695
    outer loop
      vertex 33.5659 11.5 0.53798
      vertex 32.75 16.5 0.834936
      vertex 32.75 11.5 0.834936
    endloop
  endfacet
  facet normal 0.866036 -0 0.499982
    outer loop
      vertex 31.6508 11.5 2.14495
      vertex 32.0849 16.5 1.39303
      vertex 31.6508 16.5 2.14495
    endloop
  endfacet
  facet normal 0.866036 0 0.499982
    outer loop
      vertex 32.0849 16.5 1.39303
      vertex 31.6508 11.5 2.14495
      vertex 32.0849 11.5 1.39303
    endloop
  endfacet
  facet normal 1 -0 0
    outer loop
      vertex 32.6 11.5 9
      vertex 32.6 16.5 5.0392
      vertex 32.6 16.5 9
    endloop
  endfacet
  facet normal 1 0 0
    outer loop
      vertex 32.6 16.5 5.0392
      vertex 32.6 11.5 9
      vertex 32.6 11.5 5.0392
    endloop
  endfacet
  facet normal 0.984802 0 -0.173683
    outer loop
      vertex 31.6508 33.5 3.85505
      vertex 31.5 38.5 3
      vertex 31.6508 38.5 3.85505
    endloop
  endfacet
  facet normal 0.984802 0 -0.173683
    outer loop
      vertex 31.5 38.5 3
      vertex 31.6508 33.5 3.85505
      vertex 31.5 33.5 3
    endloop
  endfacet
  facet normal 0.642796 0 -0.766037
    outer loop
      vertex 32.0849 33.5 4.60697
      vertex 32.6 38.5 5.0392
      vertex 32.6 33.5 5.0392
    endloop
  endfacet
  facet normal 0.642796 0 -0.766037
    outer loop
      vertex 32.6 38.5 5.0392
      vertex 32.0849 33.5 4.60697
      vertex 32.0849 38.5 4.60697
    endloop
  endfacet
  facet normal 0.642794 0 0.766039
    outer loop
      vertex 32.0849 38.5 1.39303
      vertex 32.75 33.5 0.834936
      vertex 32.75 38.5 0.834936
    endloop
  endfacet
  facet normal 0.642794 0 0.766039
    outer loop
      vertex 32.75 33.5 0.834936
      vertex 32.0849 38.5 1.39303
      vertex 32.0849 33.5 1.39303
    endloop
  endfacet
  facet normal -0 0 1
    outer loop
      vertex 33.5659 38.5 0.53798
      vertex 34 33.5 0.53798
      vertex 34 38.5 0.53798
    endloop
  endfacet
  facet normal 0 0 1
    outer loop
      vertex 34 33.5 0.53798
      vertex 33.5659 38.5 0.53798
      vertex 33.5659 33.5 0.53798
    endloop
  endfacet
  facet normal 0.984802 -0 0.173683
    outer loop
      vertex 31.5 33.5 3
      vertex 31.6508 38.5 2.14495
      vertex 31.5 38.5 3
    endloop
  endfacet
  facet normal 0.984802 0 0.173683
    outer loop
      vertex 31.6508 38.5 2.14495
      vertex 31.5 33.5 3
      vertex 31.6508 33.5 2.14495
    endloop
  endfacet
  facet normal 0.866036 0 -0.499982
    outer loop
      vertex 32.0849 33.5 4.60697
      vertex 31.6508 38.5 3.85505
      vertex 32.0849 38.5 4.60697
    endloop
  endfacet
  facet normal 0.866036 0 -0.499982
    outer loop
      vertex 31.6508 38.5 3.85505
      vertex 32.0849 33.5 4.60697
      vertex 31.6508 33.5 3.85505
    endloop
  endfacet
  facet normal 0.342013 0 0.939695
    outer loop
      vertex 32.75 38.5 0.834936
      vertex 33.5659 33.5 0.53798
      vertex 33.5659 38.5 0.53798
    endloop
  endfacet
  facet normal 0.342013 0 0.939695
    outer loop
      vertex 33.5659 33.5 0.53798
      vertex 32.75 38.5 0.834936
      vertex 32.75 33.5 0.834936
    endloop
  endfacet
  facet normal 0.866036 -0 0.499982
    outer loop
      vertex 31.6508 33.5 2.14495
      vertex 32.0849 38.5 1.39303
      vertex 31.6508 38.5 2.14495
    endloop
  endfacet
  facet normal 0.866036 0 0.499982
    outer loop
      vertex 32.0849 38.5 1.39303
      vertex 31.6508 33.5 2.14495
      vertex 32.0849 33.5 1.39303
    endloop
  endfacet
  facet normal 1 -0 0
    outer loop
      vertex 32.6 33.5 9
      vertex 32.6 38.5 5.0392
      vertex 32.6 38.5 9
    endloop
  endfacet
  facet normal 1 0 0
    outer loop
      vertex 32.6 38.5 5.0392
      vertex 32.6 33.5 9
      vertex 32.6 33.5 5.0392
    endloop
  endfacet
  facet normal 1 -0 0
    outer loop
      vertex 82 11.5 0.53798
      vertex 82 16.5 0
      vertex 82 16.5 0.53798
    endloop
  endfacet
  facet normal 1 0 0
    outer loop
      vertex 82 16.5 0
      vertex 82 11.5 0.53798
      vertex 82 11.5 0
    endloop
  endfacet
  facet normal -0 0 1
    outer loop
      vertex 58 16.5 9
      vertex 80.6 11.5 9
      vertex 80.6 16.5 9
    endloop
  endfacet
  facet normal 0 0 1
    outer loop
      vertex 80.6 11.5 9
      vertex 58 16.5 9
      vertex 58 11.5 9
    endloop
  endfacet
  facet normal 0 0 -1
    outer loop
      vertex 82 11.5 0
      vertex 59 16.5 0
      vertex 82 16.5 0
    endloop
  endfacet
  facet normal -0 0 -1
    outer loop
      vertex 59 16.5 0
      vertex 51 11.5 0
      vertex 59 33.5 0
    endloop
  endfacet
  facet normal 0 0 -1
    outer loop
      vertex 51 11.5 0
      vertex 59 16.5 0
      vertex 82 11.5 0
    endloop
  endfacet
  facet normal 0 0 -1
    outer loop
      vertex 59 33.5 0
      vertex 82 38.5 0
      vertex 82 33.5 0
    endloop
  endfacet
  facet normal 0 0 -1
    outer loop
      vertex 59 33.5 0
      vertex 51 38.5 0
      vertex 82 38.5 0
    endloop
  endfacet
  facet normal 0 0 -1
    outer loop
      vertex 51 38.5 0
      vertex 59 33.5 0
      vertex 51 11.5 0
    endloop
  endfacet
  facet normal -1 0 0
    outer loop
      vertex 58 11.5 4
      vertex 58 16.5 9
      vertex 58 16.5 4
    endloop
  endfacet
  facet normal -1 -0 0
    outer loop
      vertex 58 16.5 9
      vertex 58 11.5 4
      vertex 58 11.5 9
    endloop
  endfacet
  facet normal 0 1 0
    outer loop
      vertex 82 16.5 0.53798
      vertex 82 16.5 0
      vertex 81.5659 16.5 0.53798
    endloop
  endfacet
  facet normal 0 1 0
    outer loop
      vertex 80.6 16.5 9
      vertex 79.6508 16.5 3.85505
      vertex 59 16.5 4
    endloop
  endfacet
  facet normal 0 1 -0
    outer loop
      vertex 79.5 16.5 3
      vertex 59 16.5 4
      vertex 79.6508 16.5 3.85505
    endloop
  endfacet
  facet normal 0 1 0
    outer loop
      vertex 59 16.5 0
      vertex 79.5 16.5 3
      vertex 79.6508 16.5 2.14495
    endloop
  endfacet
  facet normal 0 1 0
    outer loop
      vertex 59 16.5 0
      vertex 79.6508 16.5 2.14495
      vertex 80.0849 16.5 1.39303
    endloop
  endfacet
  facet normal 0 1 0
    outer loop
      vertex 59 16.5 0
      vertex 80.0849 16.5 1.39303
      vertex 80.75 16.5 0.834936
    endloop
  endfacet
  facet normal 0 1 0
    outer loop
      vertex 82 16.5 0
      vertex 80.75 16.5 0.834936
      vertex 81.5659 16.5 0.53798
    endloop
  endfacet
  facet normal 0 1 0
    outer loop
      vertex 80.75 16.5 0.834936
      vertex 82 16.5 0
      vertex 59 16.5 0
    endloop
  endfacet
  facet normal 0 1 0
    outer loop
      vertex 79.5 16.5 3
      vertex 59 16.5 0
      vertex 59 16.5 4
    endloop
  endfacet
  facet normal 0 1 0
    outer loop
      vertex 80.0849 16.5 4.60697
      vertex 80.6 16.5 9
      vertex 80.6 16.5 5.0392
    endloop
  endfacet
  facet normal 0 1 0
    outer loop
      vertex 79.6508 16.5 3.85505
      vertex 80.6 16.5 9
      vertex 80.0849 16.5 4.60697
    endloop
  endfacet
  facet normal 0 1 0
    outer loop
      vertex 80.6 16.5 9
      vertex 59 16.5 4
      vertex 58 16.5 9
    endloop
  endfacet
  facet normal 0 1 0
    outer loop
      vertex 58 16.5 9
      vertex 59 16.5 4
      vertex 58 16.5 4
    endloop
  endfacet
  facet normal 0 -1 0
    outer loop
      vertex 51 11.5 0
      vertex 58 11.5 4
      vertex 51 11.5 4
    endloop
  endfacet
  facet normal 0 -1 0
    outer loop
      vertex 58 11.5 4
      vertex 79.5 11.5 3
      vertex 79.6508 11.5 3.85505
    endloop
  endfacet
  facet normal -0 -1 0
    outer loop
      vertex 80.75 11.5 0.834936
      vertex 58 11.5 4
      vertex 51 11.5 0
    endloop
  endfacet
  facet normal 0 -1 0
    outer loop
      vertex 58 11.5 4
      vertex 79.6508 11.5 2.14495
      vertex 79.5 11.5 3
    endloop
  endfacet
  facet normal 0 -1 0
    outer loop
      vertex 58 11.5 4
      vertex 80.0849 11.5 1.39303
      vertex 79.6508 11.5 2.14495
    endloop
  endfacet
  facet normal 0 -1 0
    outer loop
      vertex 58 11.5 4
      vertex 80.75 11.5 0.834936
      vertex 80.0849 11.5 1.39303
    endloop
  endfacet
  facet normal 0 -1 0
    outer loop
      vertex 82 11.5 0
      vertex 80.75 11.5 0.834936
      vertex 51 11.5 0
    endloop
  endfacet
  facet normal 0 -1 0
    outer loop
      vertex 80.75 11.5 0.834936
      vertex 82 11.5 0
      vertex 81.5659 11.5 0.53798
    endloop
  endfacet
  facet normal 0 -1 0
    outer loop
      vertex 81.5659 11.5 0.53798
      vertex 82 11.5 0
      vertex 82 11.5 0.53798
    endloop
  endfacet
  facet normal 0 -1 0
    outer loop
      vertex 79.6508 11.5 3.85505
      vertex 80.6 11.5 9
      vertex 58 11.5 9
    endloop
  endfacet
  facet normal 0 -1 -0
    outer loop
      vertex 80.6 11.5 9
      vertex 80.0849 11.5 4.60697
      vertex 80.6 11.5 5.0392
    endloop
  endfacet
  facet normal 0 -1 0
    outer loop
      vertex 79.6508 11.5 3.85505
      vertex 58 11.5 9
      vertex 58 11.5 4
    endloop
  endfacet
  facet normal 0 -1 0
    outer loop
      vertex 80.6 11.5 9
      vertex 79.6508 11.5 3.85505
      vertex 80.0849 11.5 4.60697
    endloop
  endfacet
  facet normal 1 -0 0
    outer loop
      vertex 82 33.5 0.53798
      vertex 82 38.5 0
      vertex 82 38.5 0.53798
    endloop
  endfacet
  facet normal 1 0 0
    outer loop
      vertex 82 38.5 0
      vertex 82 33.5 0.53798
      vertex 82 33.5 0
    endloop
  endfacet
  facet normal -0 0 1
    outer loop
      vertex 58 38.5 9
      vertex 80.6 33.5 9
      vertex 80.6 38.5 9
    endloop
  endfacet
  facet normal 0 0 1
    outer loop
      vertex 80.6 33.5 9
      vertex 58 38.5 9
      vertex 58 33.5 9
    endloop
  endfacet
  facet normal -1 0 0
    outer loop
      vertex 58 33.5 4
      vertex 58 38.5 9
      vertex 58 38.5 4
    endloop
  endfacet
  facet normal -1 -0 0
    outer loop
      vertex 58 38.5 9
      vertex 58 33.5 4
      vertex 58 33.5 9
    endloop
  endfacet
  facet normal 0 1 0
    outer loop
      vertex 82 38.5 0.53798
      vertex 82 38.5 0
      vertex 81.5659 38.5 0.53798
    endloop
  endfacet
  facet normal 0 1 0
    outer loop
      vertex 80.0849 38.5 4.60697
      vertex 80.6 38.5 9
      vertex 80.6 38.5 5.0392
    endloop
  endfacet
  facet normal 0 1 0
    outer loop
      vertex 79.6508 38.5 3.85505
      vertex 80.6 38.5 9
      vertex 80.0849 38.5 4.60697
    endloop
  endfacet
  facet normal 0 1 0
    outer loop
      vertex 80.6 38.5 9
      vertex 79.6508 38.5 3.85505
      vertex 58 38.5 9
    endloop
  endfacet
  facet normal 0 1 0
    outer loop
      vertex 58 38.5 9
      vertex 79.6508 38.5 3.85505
      vertex 58 38.5 4
    endloop
  endfacet
  facet normal 0 1 -0
    outer loop
      vertex 79.5 38.5 3
      vertex 58 38.5 4
      vertex 79.6508 38.5 3.85505
    endloop
  endfacet
  facet normal 0 1 0
    outer loop
      vertex 79.6508 38.5 2.14495
      vertex 58 38.5 4
      vertex 79.5 38.5 3
    endloop
  endfacet
  facet normal 0 1 0
    outer loop
      vertex 80.0849 38.5 1.39303
      vertex 58 38.5 4
      vertex 79.6508 38.5 2.14495
    endloop
  endfacet
  facet normal 0 1 0
    outer loop
      vertex 80.75 38.5 0.834936
      vertex 58 38.5 4
      vertex 80.0849 38.5 1.39303
    endloop
  endfacet
  facet normal 0 1 0
    outer loop
      vertex 58 38.5 4
      vertex 80.75 38.5 0.834936
      vertex 51 38.5 0
    endloop
  endfacet
  facet normal 0 1 0
    outer loop
      vertex 82 38.5 0
      vertex 80.75 38.5 0.834936
      vertex 81.5659 38.5 0.53798
    endloop
  endfacet
  facet normal 0 1 0
    outer loop
      vertex 80.75 38.5 0.834936
      vertex 82 38.5 0
      vertex 51 38.5 0
    endloop
  endfacet
  facet normal 0 1 0
    outer loop
      vertex 58 38.5 4
      vertex 51 38.5 0
      vertex 51 38.5 4
    endloop
  endfacet
  facet normal 0 -1 0
    outer loop
      vertex 59 33.5 4
      vertex 80.6 33.5 9
      vertex 58 33.5 9
    endloop
  endfacet
  facet normal 0 -1 -0
    outer loop
      vertex 80.6 33.5 9
      vertex 80.0849 33.5 4.60697
      vertex 80.6 33.5 5.0392
    endloop
  endfacet
  facet normal 0 -1 0
    outer loop
      vertex 59 33.5 4
      vertex 58 33.5 9
      vertex 58 33.5 4
    endloop
  endfacet
  facet normal 0 -1 0
    outer loop
      vertex 80.6 33.5 9
      vertex 59 33.5 4
      vertex 79.6508 33.5 3.85505
    endloop
  endfacet
  facet normal 0 -1 0
    outer loop
      vertex 80.6 33.5 9
      vertex 79.6508 33.5 3.85505
      vertex 80.0849 33.5 4.60697
    endloop
  endfacet
  facet normal 0 -1 0
    outer loop
      vertex 59 33.5 4
      vertex 79.5 33.5 3
      vertex 79.6508 33.5 3.85505
    endloop
  endfacet
  facet normal 0 -1 0
    outer loop
      vertex 59 33.5 0
      vertex 79.5 33.5 3
      vertex 59 33.5 4
    endloop
  endfacet
  facet normal 0 -1 -0
    outer loop
      vertex 79.5 33.5 3
      vertex 59 33.5 0
      vertex 79.6508 33.5 2.14495
    endloop
  endfacet
  facet normal 0 -1 -0
    outer loop
      vertex 79.6508 33.5 2.14495
      vertex 59 33.5 0
      vertex 80.0849 33.5 1.39303
    endloop
  endfacet
  facet normal 0 -1 -0
    outer loop
      vertex 80.0849 33.5 1.39303
      vertex 59 33.5 0
      vertex 80.75 33.5 0.834936
    endloop
  endfacet
  facet normal 0 -1 0
    outer loop
      vertex 82 33.5 0
      vertex 80.75 33.5 0.834936
      vertex 59 33.5 0
    endloop
  endfacet
  facet normal 0 -1 0
    outer loop
      vertex 80.75 33.5 0.834936
      vertex 82 33.5 0
      vertex 81.5659 33.5 0.53798
    endloop
  endfacet
  facet normal 0 -1 0
    outer loop
      vertex 81.5659 33.5 0.53798
      vertex 82 33.5 0
      vertex 82 33.5 0.53798
    endloop
  endfacet
  facet normal 1 -0 0
    outer loop
      vertex 59 16.5 4
      vertex 59 33.5 0
      vertex 59 33.5 4
    endloop
  endfacet
  facet normal 1 0 0
    outer loop
      vertex 59 33.5 0
      vertex 59 16.5 4
      vertex 59 16.5 0
    endloop
  endfacet
  facet normal -0 0 1
    outer loop
      vertex 51 38.5 4
      vertex 58 33.5 4
      vertex 58 38.5 4
    endloop
  endfacet
  facet normal 0 0 1
    outer loop
      vertex 58 33.5 4
      vertex 51 38.5 4
      vertex 58 16.5 4
    endloop
  endfacet
  facet normal 0 0 1
    outer loop
      vertex 51 11.5 4
      vertex 58 16.5 4
      vertex 51 38.5 4
    endloop
  endfacet
  facet normal 0 0 1
    outer loop
      vertex 58 16.5 4
      vertex 51 11.5 4
      vertex 58 11.5 4
    endloop
  endfacet
  facet normal -0 0 1
    outer loop
      vertex 58 33.5 4
      vertex 59 16.5 4
      vertex 59 33.5 4
    endloop
  endfacet
  facet normal 0 0 1
    outer loop
      vertex 59 16.5 4
      vertex 58 33.5 4
      vertex 58 16.5 4
    endloop
  endfacet
  facet normal -1 0 0
    outer loop
      vertex 51 11.5 0
      vertex 51 38.5 4
      vertex 51 38.5 0
    endloop
  endfacet
  facet normal -1 -0 0
    outer loop
      vertex 51 38.5 4
      vertex 51 11.5 0
      vertex 51 11.5 4
    endloop
  endfacet
  facet normal 0.984802 0 -0.173683
    outer loop
      vertex 79.6508 11.5 3.85505
      vertex 79.5 16.5 3
      vertex 79.6508 16.5 3.85505
    endloop
  endfacet
  facet normal 0.984802 0 -0.173683
    outer loop
      vertex 79.5 16.5 3
      vertex 79.6508 11.5 3.85505
      vertex 79.5 11.5 3
    endloop
  endfacet
  facet normal 0.642796 0 -0.766037
    outer loop
      vertex 80.0849 11.5 4.60697
      vertex 80.6 16.5 5.0392
      vertex 80.6 11.5 5.0392
    endloop
  endfacet
  facet normal 0.642796 0 -0.766037
    outer loop
      vertex 80.6 16.5 5.0392
      vertex 80.0849 11.5 4.60697
      vertex 80.0849 16.5 4.60697
    endloop
  endfacet
  facet normal 0.642794 0 0.766039
    outer loop
      vertex 80.0849 16.5 1.39303
      vertex 80.75 11.5 0.834936
      vertex 80.75 16.5 0.834936
    endloop
  endfacet
  facet normal 0.642794 0 0.766039
    outer loop
      vertex 80.75 11.5 0.834936
      vertex 80.0849 16.5 1.39303
      vertex 80.0849 11.5 1.39303
    endloop
  endfacet
  facet normal -0 0 1
    outer loop
      vertex 81.5659 16.5 0.53798
      vertex 82 11.5 0.53798
      vertex 82 16.5 0.53798
    endloop
  endfacet
  facet normal 0 0 1
    outer loop
      vertex 82 11.5 0.53798
      vertex 81.5659 16.5 0.53798
      vertex 81.5659 11.5 0.53798
    endloop
  endfacet
  facet normal 0.984802 -0 0.173683
    outer loop
      vertex 79.5 11.5 3
      vertex 79.6508 16.5 2.14495
      vertex 79.5 16.5 3
    endloop
  endfacet
  facet normal 0.984802 0 0.173683
    outer loop
      vertex 79.6508 16.5 2.14495
      vertex 79.5 11.5 3
      vertex 79.6508 11.5 2.14495
    endloop
  endfacet
  facet normal 0.866036 0 -0.499982
    outer loop
      vertex 80.0849 11.5 4.60697
      vertex 79.6508 16.5 3.85505
      vertex 80.0849 16.5 4.60697
    endloop
  endfacet
  facet normal 0.866036 0 -0.499982
    outer loop
      vertex 79.6508 16.5 3.85505
      vertex 80.0849 11.5 4.60697
      vertex 79.6508 11.5 3.85505
    endloop
  endfacet
  facet normal 0.342013 0 0.939695
    outer loop
      vertex 80.75 16.5 0.834936
      vertex 81.5659 11.5 0.53798
      vertex 81.5659 16.5 0.53798
    endloop
  endfacet
  facet normal 0.342013 0 0.939695
    outer loop
      vertex 81.5659 11.5 0.53798
      vertex 80.75 16.5 0.834936
      vertex 80.75 11.5 0.834936
    endloop
  endfacet
  facet normal 0.866036 -0 0.499982
    outer loop
      vertex 79.6508 11.5 2.14495
      vertex 80.0849 16.5 1.39303
      vertex 79.6508 16.5 2.14495
    endloop
  endfacet
  facet normal 0.866036 0 0.499982
    outer loop
      vertex 80.0849 16.5 1.39303
      vertex 79.6508 11.5 2.14495
      vertex 80.0849 11.5 1.39303
    endloop
  endfacet
  facet normal 1 -0 0
    outer loop
      vertex 80.6 11.5 9
      vertex 80.6 16.5 5.0392
      vertex 80.6 16.5 9
    endloop
  endfacet
  facet normal 1 0 0
    outer loop
      vertex 80.6 16.5 5.0392
      vertex 80.6 11.5 9
      vertex 80.6 11.5 5.0392
    endloop
  endfacet
  facet normal 0.984802 0 -0.173683
    outer loop
      vertex 79.6508 33.5 3.85505
      vertex 79.5 38.5 3
      vertex 79.6508 38.5 3.85505
    endloop
  endfacet
  facet normal 0.984802 0 -0.173683
    outer loop
      vertex 79.5 38.5 3
      vertex 79.6508 33.5 3.85505
      vertex 79.5 33.5 3
    endloop
  endfacet
  facet normal 0.642796 0 -0.766037
    outer loop
      vertex 80.0849 33.5 4.60697
      vertex 80.6 38.5 5.0392
      vertex 80.6 33.5 5.0392
    endloop
  endfacet
  facet normal 0.642796 0 -0.766037
    outer loop
      vertex 80.6 38.5 5.0392
      vertex 80.0849 33.5 4.60697
      vertex 80.0849 38.5 4.60697
    endloop
  endfacet
  facet normal 0.642794 0 0.766039
    outer loop
      vertex 80.0849 38.5 1.39303
      vertex 80.75 33.5 0.834936
      vertex 80.75 38.5 0.834936
    endloop
  endfacet
  facet normal 0.642794 0 0.766039
    outer loop
      vertex 80.75 33.5 0.834936
      vertex 80.0849 38.5 1.39303
      vertex 80.0849 33.5 1.39303
    endloop
  endfacet
  facet normal -0 0 1
    outer loop
      vertex 81.5659 38.5 0.53798
      vertex 82 33.5 0.53798
      vertex 82 38.5 0.53798
    endloop
  endfacet
  facet normal 0 0 1
    outer loop
      vertex 82 33.5 0.53798
      vertex 81.5659 38.5 0.53798
      vertex 81.5659 33.5 0.53798
    endloop
  endfacet
  facet normal 0.984802 -0 0.173683
    outer loop
      vertex 79.5 33.5 3
      vertex 79.6508 38.5 2.14495
      vertex 79.5 38.5 3
    endloop
  endfacet
  facet normal 0.984802 0 0.173683
    outer loop
      vertex 79.6508 38.5 2.14495
      vertex 79.5 33.5 3
      vertex 79.6508 33.5 2.14495
    endloop
  endfacet
  facet normal 0.866036 0 -0.499982
    outer loop
      vertex 80.0849 33.5 4.60697
      vertex 79.6508 38.5 3.85505
      vertex 80.0849 38.5 4.60697
    endloop
  endfacet
  facet normal 0.866036 0 -0.499982
    outer loop
      vertex 79.6508 38.5 3.85505
      vertex 80.0849 33.5 4.60697
      vertex 79.6508 33.5 3.85505
    endloop
  endfacet
  facet normal 0.342013 0 0.939695
    outer loop
      vertex 80.75 38.5 0.834936
      vertex 81.5659 33.5 0.53798
      vertex 81.5659 38.5 0.53798
    endloop
  endfacet
  facet normal 0.342013 0 0.939695
    outer loop
      vertex 81.5659 33.5 0.53798
      vertex 80.75 38.5 0.834936
      vertex 80.75 33.5 0.834936
    endloop
  endfacet
  facet normal 0.866036 -0 0.499982
    outer loop
      vertex 79.6508 33.5 2.14495
      vertex 80.0849 38.5 1.39303
      vertex 79.6508 38.5 2.14495
    endloop
  endfacet
  facet normal 0.866036 0 0.499982
    outer loop
      vertex 80.0849 38.5 1.39303
      vertex 79.6508 33.5 2.14495
      vertex 80.0849 33.5 1.39303
    endloop
  endfacet
  facet normal 1 -0 0
    outer loop
      vertex 80.6 33.5 9
      vertex 80.6 38.5 5.0392
      vertex 80.6 38.5 9
    endloop
  endfacet
  facet normal 1 0 0
    outer loop
      vertex 80.6 38.5 5.0392
      vertex 80.6 33.5 9
      vertex 80.6 33.5 5.0392
    endloop
  endfacet
  facet normal 1 0 0
    outer loop
      vertex 61 61 4
      vertex 61 60 2
      vertex 61 61 0
    endloop
  endfacet
  facet normal 1 0 0
    outer loop
      vertex 61 61 4
      vertex 61 59.732 3
      vertex 61 60 2
    endloop
  endfacet
  facet normal 1 0 0
    outer loop
      vertex 61 61 4
      vertex 61 59 3.73205
      vertex 61 59.732 3
    endloop
  endfacet
  facet normal 1 0 -0
    outer loop
      vertex 61 59 3.73205
      vertex 61 61 4
      vertex 61 58 4
    endloop
  endfacet
  facet normal 1 -0 0
    outer loop
      vertex 61 59.732 1
      vertex 61 61 0
      vertex 61 60 2
    endloop
  endfacet
  facet normal 1 -0 0
    outer loop
      vertex 61 59 0.267949
      vertex 61 61 0
      vertex 61 59.732 1
    endloop
  endfacet
  facet normal 1 0 0
    outer loop
      vertex 61 61 0
      vertex 61 59 0.267949
      vertex 61 58 0
    endloop
  endfacet
  facet normal 1 0 0
    outer loop
      vertex 61 56.268 3
      vertex 61 55 4
      vertex 61 56 2
    endloop
  endfacet
  facet normal 1 0 0
    outer loop
      vertex 61 57 3.73205
      vertex 61 55 4
      vertex 61 56.268 3
    endloop
  endfacet
  facet normal 1 -0 0
    outer loop
      vertex 61 55 4
      vertex 61 57 3.73205
      vertex 61 58 4
    endloop
  endfacet
  facet normal 1 0 0
    outer loop
      vertex 61 55 0
      vertex 61 56 2
      vertex 61 55 4
    endloop
  endfacet
  facet normal 1 0 0
    outer loop
      vertex 61 57 0.267949
      vertex 61 55 0
      vertex 61 58 0
    endloop
  endfacet
  facet normal 1 0 0
    outer loop
      vertex 61 56.268 1
      vertex 61 55 0
      vertex 61 57 0.267949
    endloop
  endfacet
  facet normal 1 0 0
    outer loop
      vertex 61 56 2
      vertex 61 55 0
      vertex 61 56.268 1
    endloop
  endfacet
  facet normal -0 0 1
    outer loop
      vertex 58 61 4
      vertex 61 58 4
      vertex 61 61 4
    endloop
  endfacet
  facet normal 0 0 1
    outer loop
      vertex 58 55 4
      vertex 61 58 4
      vertex 58 61 4
    endloop
  endfacet
  facet normal 0 0 1
    outer loop
      vertex 61 58 4
      vertex 58 55 4
      vertex 61 55 4
    endloop
  endfacet
  facet normal 0 0 1
    outer loop
      vertex 55 58 4
      vertex 58 61 4
      vertex 55 61 4
    endloop
  endfacet
  facet normal 0 0 1
    outer loop
      vertex 58 61 4
      vertex 55 58 4
      vertex 58 55 4
    endloop
  endfacet
  facet normal 0 0 1
    outer loop
      vertex 58 55 4
      vertex 55 58 4
      vertex 55 55 4
    endloop
  endfacet
  facet normal 0 0 -1
    outer loop
      vertex 58 55 0
      vertex 61 58 0
      vertex 61 55 0
    endloop
  endfacet
  facet normal 0 0 -1
    outer loop
      vertex 58 61 0
      vertex 61 58 0
      vertex 58 55 0
    endloop
  endfacet
  facet normal 0 0 -1
    outer loop
      vertex 61 58 0
      vertex 58 61 0
      vertex 61 61 0
    endloop
  endfacet
  facet normal 0 0 -1
    outer loop
      vertex 55 58 0
      vertex 58 55 0
      vertex 55 55 0
    endloop
  endfacet
  facet normal 0 0 -1
    outer loop
      vertex 58 55 0
      vertex 55 58 0
      vertex 58 61 0
    endloop
  endfacet
  facet normal -0 0 -1
    outer loop
      vertex 58 61 0
      vertex 55 58 0
      vertex 55 61 0
    endloop
  endfacet
  facet normal -1 0 0
    outer loop
      vertex 55 61 0
      vertex 55 60 2
      vertex 55 61 4
    endloop
  endfacet
  facet normal -1 0 0
    outer loop
      vertex 55 61 0
      vertex 55 59.732 1
      vertex 55 60 2
    endloop
  endfacet
  facet normal -1 0 0
    outer loop
      vertex 55 61 0
      vertex 55 59 0.267949
      vertex 55 59.732 1
    endloop
  endfacet
  facet normal -1 0 -0
    outer loop
      vertex 55 59 0.267949
      vertex 55 61 0
      vertex 55 58 0
    endloop
  endfacet
  facet normal -1 0 0
    outer loop
      vertex 55 59.732 3
      vertex 55 61 4
      vertex 55 60 2
    endloop
  endfacet
  facet normal -1 0 0
    outer loop
      vertex 55 59 3.73205
      vertex 55 61 4
      vertex 55 59.732 3
    endloop
  endfacet
  facet normal -1 -0 0
    outer loop
      vertex 55 61 4
      vertex 55 59 3.73205
      vertex 55 58 4
    endloop
  endfacet
  facet normal -1 -0 0
    outer loop
      vertex 55 56.268 1
      vertex 55 55 0
      vertex 55 56 2
    endloop
  endfacet
  facet normal -1 -0 0
    outer loop
      vertex 55 57 0.267949
      vertex 55 55 0
      vertex 55 56.268 1
    endloop
  endfacet
  facet normal -1 0 0
    outer loop
      vertex 55 55 0
      vertex 55 57 0.267949
      vertex 55 58 0
    endloop
  endfacet
  facet normal -1 0 0
    outer loop
      vertex 55 55 4
      vertex 55 56 2
      vertex 55 55 0
    endloop
  endfacet
  facet normal -1 0 0
    outer loop
      vertex 55 57 3.73205
      vertex 55 55 4
      vertex 55 58 4
    endloop
  endfacet
  facet normal -1 0 0
    outer loop
      vertex 55 56.268 3
      vertex 55 55 4
      vertex 55 57 3.73205
    endloop
  endfacet
  facet normal -1 0 0
    outer loop
      vertex 55 56 2
      vertex 55 55 4
      vertex 55 56.268 3
    endloop
  endfacet
  facet normal 0 1 -0
    outer loop
      vertex 57 61 3.73205
      vertex 55 61 4
      vertex 58 61 4
    endloop
  endfacet
  facet normal 0 1 -0
    outer loop
      vertex 56.268 61 3
      vertex 55 61 4
      vertex 57 61 3.73205
    endloop
  endfacet
  facet normal 0 1 -0
    outer loop
      vertex 56 61 2
      vertex 55 61 4
      vertex 56.268 61 3
    endloop
  endfacet
  facet normal 0 1 0
    outer loop
      vertex 55 61 0
      vertex 56 61 2
      vertex 56.268 61 1
    endloop
  endfacet
  facet normal 0 1 0
    outer loop
      vertex 56 61 2
      vertex 55 61 0
      vertex 55 61 4
    endloop
  endfacet
  facet normal 0 1 0
    outer loop
      vertex 57 61 0.267949
      vertex 55 61 0
      vertex 56.268 61 1
    endloop
  endfacet
  facet normal 0 1 0
    outer loop
      vertex 55 61 0
      vertex 57 61 0.267949
      vertex 58 61 0
    endloop
  endfacet
  facet normal 0 1 0
    outer loop
      vertex 61 61 4
      vertex 59 61 3.73205
      vertex 58 61 4
    endloop
  endfacet
  facet normal 0 1 0
    outer loop
      vertex 61 61 4
      vertex 59.732 61 3
      vertex 59 61 3.73205
    endloop
  endfacet
  facet normal 0 1 0
    outer loop
      vertex 61 61 4
      vertex 60 61 2
      vertex 59.732 61 3
    endloop
  endfacet
  facet normal 0 1 -0
    outer loop
      vertex 61 61 0
      vertex 60 61 2
      vertex 61 61 4
    endloop
  endfacet
  facet normal 0 1 0
    outer loop
      vertex 60 61 2
      vertex 61 61 0
      vertex 59.732 61 1
    endloop
  endfacet
  facet normal 0 1 0
    outer loop
      vertex 61 61 0
      vertex 59 61 0.267949
      vertex 59.732 61 1
    endloop
  endfacet
  facet normal 0 1 0
    outer loop
      vertex 59 61 0.267949
      vertex 61 61 0
      vertex 58 61 0
    endloop
  endfacet
  facet normal 0 -1 0
    outer loop
      vertex 55 55 4
      vertex 57 55 3.73205
      vertex 58 55 4
    endloop
  endfacet
  facet normal 0 -1 0
    outer loop
      vertex 55 55 4
      vertex 56.268 55 3
      vertex 57 55 3.73205
    endloop
  endfacet
  facet normal 0 -1 0
    outer loop
      vertex 55 55 4
      vertex 56 55 2
      vertex 56.268 55 3
    endloop
  endfacet
  facet normal 0 -1 0
    outer loop
      vertex 55 55 0
      vertex 56 55 2
      vertex 55 55 4
    endloop
  endfacet
  facet normal 0 -1 -0
    outer loop
      vertex 56 55 2
      vertex 55 55 0
      vertex 56.268 55 1
    endloop
  endfacet
  facet normal 0 -1 0
    outer loop
      vertex 55 55 0
      vertex 57 55 0.267949
      vertex 56.268 55 1
    endloop
  endfacet
  facet normal 0 -1 -0
    outer loop
      vertex 57 55 0.267949
      vertex 55 55 0
      vertex 58 55 0
    endloop
  endfacet
  facet normal 0 -1 0
    outer loop
      vertex 59 55 3.73205
      vertex 61 55 4
      vertex 58 55 4
    endloop
  endfacet
  facet normal 0 -1 0
    outer loop
      vertex 59.732 55 3
      vertex 61 55 4
      vertex 59 55 3.73205
    endloop
  endfacet
  facet normal 0 -1 0
    outer loop
      vertex 60 55 2
      vertex 61 55 4
      vertex 59.732 55 3
    endloop
  endfacet
  facet normal 0 -1 0
    outer loop
      vertex 61 55 0
      vertex 60 55 2
      vertex 59.732 55 1
    endloop
  endfacet
  facet normal 0 -1 0
    outer loop
      vertex 60 55 2
      vertex 61 55 0
      vertex 61 55 4
    endloop
  endfacet
  facet normal 0 -1 0
    outer loop
      vertex 59 55 0.267949
      vertex 61 55 0
      vertex 59.732 55 1
    endloop
  endfacet
  facet normal 0 -1 0
    outer loop
      vertex 61 55 0
      vertex 59 55 0.267949
      vertex 58 55 0
    endloop
  endfacet
  facet normal 0 -0.25882 0.965926
    outer loop
      vertex 47 58 4
      vertex 55 57 3.73205
      vertex 55 58 4
    endloop
  endfacet
  facet normal 0 -0.25882 0.965926
    outer loop
      vertex 55 57 3.73205
      vertex 47 58 4
      vertex 47 57 3.73205
    endloop
  endfacet
  facet normal 0 -0.25882 0.965926
    outer loop
      vertex 61 58 4
      vertex 69 57 3.73205
      vertex 69 58 4
    endloop
  endfacet
  facet normal 0 -0.25882 0.965926
    outer loop
      vertex 69 57 3.73205
      vertex 61 58 4
      vertex 61 57 3.73205
    endloop
  endfacet
  facet normal 0 0.965914 -0.258865
    outer loop
      vertex 69 59.732 1
      vertex 61 60 2
      vertex 69 60 2
    endloop
  endfacet
  facet normal 0 0.965914 -0.258865
    outer loop
      vertex 61 60 2
      vertex 69 59.732 1
      vertex 61 59.732 1
    endloop
  endfacet
  facet normal 0 0.965914 -0.258865
    outer loop
      vertex 55 59.732 1
      vertex 47 60 2
      vertex 55 60 2
    endloop
  endfacet
  facet normal 0 0.965914 -0.258865
    outer loop
      vertex 47 60 2
      vertex 55 59.732 1
      vertex 47 59.732 1
    endloop
  endfacet
  facet normal 0 -0.965914 -0.258865
    outer loop
      vertex 61 56.268 1
      vertex 69 56 2
      vertex 61 56 2
    endloop
  endfacet
  facet normal 0 -0.965914 -0.258865
    outer loop
      vertex 69 56 2
      vertex 61 56.268 1
      vertex 69 56.268 1
    endloop
  endfacet
  facet normal 0 -0.965914 -0.258865
    outer loop
      vertex 47 56.268 1
      vertex 55 56 2
      vertex 47 56 2
    endloop
  endfacet
  facet normal 0 -0.965914 -0.258865
    outer loop
      vertex 55 56 2
      vertex 47 56.268 1
      vertex 55 56.268 1
    endloop
  endfacet
  facet normal 0 -0.258819 -0.965926
    outer loop
      vertex 47 57 0.267949
      vertex 55 58 0
      vertex 55 57 0.267949
    endloop
  endfacet
  facet normal -0 -0.258819 -0.965926
    outer loop
      vertex 55 58 0
      vertex 47 57 0.267949
      vertex 47 58 0
    endloop
  endfacet
  facet normal 0 -0.258819 -0.965926
    outer loop
      vertex 61 57 0.267949
      vertex 69 58 0
      vertex 69 57 0.267949
    endloop
  endfacet
  facet normal -0 -0.258819 -0.965926
    outer loop
      vertex 69 58 0
      vertex 61 57 0.267949
      vertex 61 58 0
    endloop
  endfacet
  facet normal 0 0.707131 0.707083
    outer loop
      vertex 69 59.732 3
      vertex 61 59 3.73205
      vertex 69 59 3.73205
    endloop
  endfacet
  facet normal 0 0.707131 0.707083
    outer loop
      vertex 61 59 3.73205
      vertex 69 59.732 3
      vertex 61 59.732 3
    endloop
  endfacet
  facet normal 0 0.707131 0.707083
    outer loop
      vertex 55 59.732 3
      vertex 47 59 3.73205
      vertex 55 59 3.73205
    endloop
  endfacet
  facet normal 0 0.707131 0.707083
    outer loop
      vertex 47 59 3.73205
      vertex 55 59.732 3
      vertex 47 59.732 3
    endloop
  endfacet
  facet normal 0 0.965914 0.258865
    outer loop
      vertex 69 60 2
      vertex 61 59.732 3
      vertex 69 59.732 3
    endloop
  endfacet
  facet normal 0 0.965914 0.258865
    outer loop
      vertex 61 59.732 3
      vertex 69 60 2
      vertex 61 60 2
    endloop
  endfacet
  facet normal 0 0.965914 0.258865
    outer loop
      vertex 55 60 2
      vertex 47 59.732 3
      vertex 55 59.732 3
    endloop
  endfacet
  facet normal 0 0.965914 0.258865
    outer loop
      vertex 47 59.732 3
      vertex 55 60 2
      vertex 47 60 2
    endloop
  endfacet
  facet normal 0 0.258819 -0.965926
    outer loop
      vertex 47 58 0
      vertex 55 59 0.267949
      vertex 55 58 0
    endloop
  endfacet
  facet normal 0 0.258819 -0.965926
    outer loop
      vertex 55 59 0.267949
      vertex 47 58 0
      vertex 47 59 0.267949
    endloop
  endfacet
  facet normal 0 0.258819 -0.965926
    outer loop
      vertex 61 58 0
      vertex 69 59 0.267949
      vertex 69 58 0
    endloop
  endfacet
  facet normal 0 0.258819 -0.965926
    outer loop
      vertex 69 59 0.267949
      vertex 61 58 0
      vertex 61 59 0.267949
    endloop
  endfacet
  facet normal 0 0.707131 -0.707082
    outer loop
      vertex 55 59 0.267949
      vertex 47 59.732 1
      vertex 55 59.732 1
    endloop
  endfacet
  facet normal 0 0.707131 -0.707082
    outer loop
      vertex 47 59.732 1
      vertex 55 59 0.267949
      vertex 47 59 0.267949
    endloop
  endfacet
  facet normal 0 0.707131 -0.707082
    outer loop
      vertex 69 59 0.267949
      vertex 61 59.732 1
      vertex 69 59.732 1
    endloop
  endfacet
  facet normal 0 0.707131 -0.707082
    outer loop
      vertex 61 59.732 1
      vertex 69 59 0.267949
      vertex 61 59 0.267949
    endloop
  endfacet
  facet normal 1 0 0
    outer loop
      vertex 69 59.732 3
      vertex 69 59.732 1
      vertex 69 60 2
    endloop
  endfacet
  facet normal 1 0 0
    outer loop
      vertex 69 59 3.73205
      vertex 69 59.732 1
      vertex 69 59.732 3
    endloop
  endfacet
  facet normal 1 0 0
    outer loop
      vertex 69 59 3.73205
      vertex 69 59 0.267949
      vertex 69 59.732 1
    endloop
  endfacet
  facet normal 1 0 0
    outer loop
      vertex 69 58 4
      vertex 69 59 0.267949
      vertex 69 59 3.73205
    endloop
  endfacet
  facet normal 1 0 0
    outer loop
      vertex 69 58 4
      vertex 69 58 0
      vertex 69 59 0.267949
    endloop
  endfacet
  facet normal 1 -0 0
    outer loop
      vertex 69 57 3.73205
      vertex 69 58 0
      vertex 69 58 4
    endloop
  endfacet
  facet normal 1 0 0
    outer loop
      vertex 69 57 3.73205
      vertex 69 57 0.267949
      vertex 69 58 0
    endloop
  endfacet
  facet normal 1 -0 0
    outer loop
      vertex 69 56.268 3
      vertex 69 57 0.267949
      vertex 69 57 3.73205
    endloop
  endfacet
  facet normal 1 0 0
    outer loop
      vertex 69 56.268 3
      vertex 69 56.268 1
      vertex 69 57 0.267949
    endloop
  endfacet
  facet normal 1 0 -0
    outer loop
      vertex 69 56.268 1
      vertex 69 56.268 3
      vertex 69 56 2
    endloop
  endfacet
  facet normal -0 0.25882 0.965926
    outer loop
      vertex 61 59 3.73205
      vertex 69 58 4
      vertex 69 59 3.73205
    endloop
  endfacet
  facet normal 0 0.25882 0.965926
    outer loop
      vertex 69 58 4
      vertex 61 59 3.73205
      vertex 61 58 4
    endloop
  endfacet
  facet normal -0 0.25882 0.965926
    outer loop
      vertex 47 59 3.73205
      vertex 55 58 4
      vertex 55 59 3.73205
    endloop
  endfacet
  facet normal 0 0.25882 0.965926
    outer loop
      vertex 55 58 4
      vertex 47 59 3.73205
      vertex 47 58 4
    endloop
  endfacet
  facet normal 0 -0.707131 -0.707082
    outer loop
      vertex 61 57 0.267949
      vertex 69 56.268 1
      vertex 61 56.268 1
    endloop
  endfacet
  facet normal 0 -0.707131 -0.707082
    outer loop
      vertex 69 56.268 1
      vertex 61 57 0.267949
      vertex 69 57 0.267949
    endloop
  endfacet
  facet normal 0 -0.707131 -0.707082
    outer loop
      vertex 47 57 0.267949
      vertex 55 56.268 1
      vertex 47 56.268 1
    endloop
  endfacet
  facet normal 0 -0.707131 -0.707082
    outer loop
      vertex 55 56.268 1
      vertex 47 57 0.267949
      vertex 55 57 0.267949
    endloop
  endfacet
  facet normal -1 0 0
    outer loop
      vertex 47 59.732 1
      vertex 47 59.732 3
      vertex 47 60 2
    endloop
  endfacet
  facet normal -1 0 0
    outer loop
      vertex 47 59 0.267949
      vertex 47 59.732 3
      vertex 47 59.732 1
    endloop
  endfacet
  facet normal -1 0 0
    outer loop
      vertex 47 59 0.267949
      vertex 47 59 3.73205
      vertex 47 59.732 3
    endloop
  endfacet
  facet normal -1 0 0
    outer loop
      vertex 47 58 0
      vertex 47 59 3.73205
      vertex 47 59 0.267949
    endloop
  endfacet
  facet normal -1 0 0
    outer loop
      vertex 47 58 0
      vertex 47 58 4
      vertex 47 59 3.73205
    endloop
  endfacet
  facet normal -1 0 0
    outer loop
      vertex 47 57 0.267949
      vertex 47 58 4
      vertex 47 58 0
    endloop
  endfacet
  facet normal -1 0 0
    outer loop
      vertex 47 57 0.267949
      vertex 47 57 3.73205
      vertex 47 58 4
    endloop
  endfacet
  facet normal -1 0 0
    outer loop
      vertex 47 56.268 1
      vertex 47 57 3.73205
      vertex 47 57 0.267949
    endloop
  endfacet
  facet normal -1 0 0
    outer loop
      vertex 47 56.268 1
      vertex 47 56.268 3
      vertex 47 57 3.73205
    endloop
  endfacet
  facet normal -1 0 -0
    outer loop
      vertex 47 56.268 3
      vertex 47 56.268 1
      vertex 47 56 2
    endloop
  endfacet
  facet normal 0 -0.707131 0.707083
    outer loop
      vertex 61 56.268 3
      vertex 69 57 3.73205
      vertex 61 57 3.73205
    endloop
  endfacet
  facet normal 0 -0.707131 0.707083
    outer loop
      vertex 69 57 3.73205
      vertex 61 56.268 3
      vertex 69 56.268 3
    endloop
  endfacet
  facet normal 0 -0.707131 0.707083
    outer loop
      vertex 47 56.268 3
      vertex 55 57 3.73205
      vertex 47 57 3.73205
    endloop
  endfacet
  facet normal 0 -0.707131 0.707083
    outer loop
      vertex 55 57 3.73205
      vertex 47 56.268 3
      vertex 55 56.268 3
    endloop
  endfacet
  facet normal 0 -0.965914 0.258865
    outer loop
      vertex 61 56 2
      vertex 69 56.268 3
      vertex 61 56.268 3
    endloop
  endfacet
  facet normal 0 -0.965914 0.258865
    outer loop
      vertex 69 56.268 3
      vertex 61 56 2
      vertex 69 56 2
    endloop
  endfacet
  facet normal 0 -0.965914 0.258865
    outer loop
      vertex 47 56 2
      vertex 55 56.268 3
      vertex 47 56.268 3
    endloop
  endfacet
  facet normal 0 -0.965914 0.258865
    outer loop
      vertex 55 56.268 3
      vertex 47 56 2
      vertex 55 56 2
    endloop
  endfacet
  facet normal 0.707131 -0 0.707083
    outer loop
      vertex 59 61 3.73205
      vertex 59.732 69 3
      vertex 59 69 3.73205
    endloop
  endfacet
  facet normal 0.707131 0 0.707083
    outer loop
      vertex 59.732 69 3
      vertex 59 61 3.73205
      vertex 59.732 61 3
    endloop
  endfacet
  facet normal 0.707131 -0 0.707083
    outer loop
      vertex 59 47 3.73205
      vertex 59.732 55 3
      vertex 59 55 3.73205
    endloop
  endfacet
  facet normal 0.707131 0 0.707083
    outer loop
      vertex 59.732 55 3
      vertex 59 47 3.73205
      vertex 59.732 47 3
    endloop
  endfacet
  facet normal 0.965914 -0 0.258865
    outer loop
      vertex 59.732 61 3
      vertex 60 69 2
      vertex 59.732 69 3
    endloop
  endfacet
  facet normal 0.965914 0 0.258865
    outer loop
      vertex 60 69 2
      vertex 59.732 61 3
      vertex 60 61 2
    endloop
  endfacet
  facet normal 0.965914 -0 0.258865
    outer loop
      vertex 59.732 47 3
      vertex 60 55 2
      vertex 59.732 55 3
    endloop
  endfacet
  facet normal 0.965914 0 0.258865
    outer loop
      vertex 60 55 2
      vertex 59.732 47 3
      vertex 60 47 2
    endloop
  endfacet
  facet normal 0.25882 0 0.965926
    outer loop
      vertex 58 69 4
      vertex 59 61 3.73205
      vertex 59 69 3.73205
    endloop
  endfacet
  facet normal 0.25882 0 0.965926
    outer loop
      vertex 59 61 3.73205
      vertex 58 69 4
      vertex 58 61 4
    endloop
  endfacet
  facet normal 0.25882 0 0.965926
    outer loop
      vertex 58 55 4
      vertex 59 47 3.73205
      vertex 59 55 3.73205
    endloop
  endfacet
  facet normal 0.25882 0 0.965926
    outer loop
      vertex 59 47 3.73205
      vertex 58 55 4
      vertex 58 47 4
    endloop
  endfacet
  facet normal -0.707131 0 0.707083
    outer loop
      vertex 56.268 47 3
      vertex 57 55 3.73205
      vertex 56.268 55 3
    endloop
  endfacet
  facet normal -0.707131 0 0.707083
    outer loop
      vertex 57 55 3.73205
      vertex 56.268 47 3
      vertex 57 47 3.73205
    endloop
  endfacet
  facet normal -0.707131 0 0.707083
    outer loop
      vertex 56.268 61 3
      vertex 57 69 3.73205
      vertex 56.268 69 3
    endloop
  endfacet
  facet normal -0.707131 0 0.707083
    outer loop
      vertex 57 69 3.73205
      vertex 56.268 61 3
      vertex 57 61 3.73205
    endloop
  endfacet
  facet normal 0.707131 0 -0.707082
    outer loop
      vertex 59.732 61 1
      vertex 59 69 0.267949
      vertex 59.732 69 1
    endloop
  endfacet
  facet normal 0.707131 0 -0.707082
    outer loop
      vertex 59 69 0.267949
      vertex 59.732 61 1
      vertex 59 61 0.267949
    endloop
  endfacet
  facet normal 0.707131 0 -0.707082
    outer loop
      vertex 59.732 47 1
      vertex 59 55 0.267949
      vertex 59.732 55 1
    endloop
  endfacet
  facet normal 0.707131 0 -0.707082
    outer loop
      vertex 59 55 0.267949
      vertex 59.732 47 1
      vertex 59 47 0.267949
    endloop
  endfacet
  facet normal 0 1 0
    outer loop
      vertex 59 69 3.73205
      vertex 57 69 3.73205
      vertex 58 69 4
    endloop
  endfacet
  facet normal 0 1 0
    outer loop
      vertex 59.732 69 3
      vertex 57 69 3.73205
      vertex 59 69 3.73205
    endloop
  endfacet
  facet normal 0 1 0
    outer loop
      vertex 59.732 69 3
      vertex 56.268 69 3
      vertex 57 69 3.73205
    endloop
  endfacet
  facet normal 0 1 0
    outer loop
      vertex 60 69 2
      vertex 56.268 69 3
      vertex 59.732 69 3
    endloop
  endfacet
  facet normal 0 1 0
    outer loop
      vertex 60 69 2
      vertex 56 69 2
      vertex 56.268 69 3
    endloop
  endfacet
  facet normal 0 1 -0
    outer loop
      vertex 59.732 69 1
      vertex 56 69 2
      vertex 60 69 2
    endloop
  endfacet
  facet normal 0 1 0
    outer loop
      vertex 59.732 69 1
      vertex 56.268 69 1
      vertex 56 69 2
    endloop
  endfacet
  facet normal 0 1 -0
    outer loop
      vertex 59 69 0.267949
      vertex 56.268 69 1
      vertex 59.732 69 1
    endloop
  endfacet
  facet normal 0 1 0
    outer loop
      vertex 59 69 0.267949
      vertex 57 69 0.267949
      vertex 56.268 69 1
    endloop
  endfacet
  facet normal -0 1 0
    outer loop
      vertex 57 69 0.267949
      vertex 59 69 0.267949
      vertex 58 69 0
    endloop
  endfacet
  facet normal -0.25882 0 0.965926
    outer loop
      vertex 57 69 3.73205
      vertex 58 61 4
      vertex 58 69 4
    endloop
  endfacet
  facet normal -0.25882 0 0.965926
    outer loop
      vertex 58 61 4
      vertex 57 69 3.73205
      vertex 57 61 3.73205
    endloop
  endfacet
  facet normal -0.25882 0 0.965926
    outer loop
      vertex 57 55 3.73205
      vertex 58 47 4
      vertex 58 55 4
    endloop
  endfacet
  facet normal -0.25882 0 0.965926
    outer loop
      vertex 58 47 4
      vertex 57 55 3.73205
      vertex 57 47 3.73205
    endloop
  endfacet
  facet normal -0.707131 0 -0.707082
    outer loop
      vertex 57 61 0.267949
      vertex 56.268 69 1
      vertex 57 69 0.267949
    endloop
  endfacet
  facet normal -0.707131 -0 -0.707082
    outer loop
      vertex 56.268 69 1
      vertex 57 61 0.267949
      vertex 56.268 61 1
    endloop
  endfacet
  facet normal -0.707131 0 -0.707082
    outer loop
      vertex 57 47 0.267949
      vertex 56.268 55 1
      vertex 57 55 0.267949
    endloop
  endfacet
  facet normal -0.707131 -0 -0.707082
    outer loop
      vertex 56.268 55 1
      vertex 57 47 0.267949
      vertex 56.268 47 1
    endloop
  endfacet
  facet normal 0.965914 0 -0.258865
    outer loop
      vertex 60 47 2
      vertex 59.732 55 1
      vertex 60 55 2
    endloop
  endfacet
  facet normal 0.965914 0 -0.258865
    outer loop
      vertex 59.732 55 1
      vertex 60 47 2
      vertex 59.732 47 1
    endloop
  endfacet
  facet normal 0.965914 0 -0.258865
    outer loop
      vertex 60 61 2
      vertex 59.732 69 1
      vertex 60 69 2
    endloop
  endfacet
  facet normal 0.965914 0 -0.258865
    outer loop
      vertex 59.732 69 1
      vertex 60 61 2
      vertex 59.732 61 1
    endloop
  endfacet
  facet normal -0.965914 0 0.258865
    outer loop
      vertex 56 47 2
      vertex 56.268 55 3
      vertex 56 55 2
    endloop
  endfacet
  facet normal -0.965914 0 0.258865
    outer loop
      vertex 56.268 55 3
      vertex 56 47 2
      vertex 56.268 47 3
    endloop
  endfacet
  facet normal -0.965914 0 0.258865
    outer loop
      vertex 56 61 2
      vertex 56.268 69 3
      vertex 56 69 2
    endloop
  endfacet
  facet normal -0.965914 0 0.258865
    outer loop
      vertex 56.268 69 3
      vertex 56 61 2
      vertex 56.268 61 3
    endloop
  endfacet
  facet normal -0.258819 0 -0.965926
    outer loop
      vertex 57 61 0.267949
      vertex 58 69 0
      vertex 58 61 0
    endloop
  endfacet
  facet normal -0.258819 0 -0.965926
    outer loop
      vertex 58 69 0
      vertex 57 61 0.267949
      vertex 57 69 0.267949
    endloop
  endfacet
  facet normal -0.258819 0 -0.965926
    outer loop
      vertex 57 47 0.267949
      vertex 58 55 0
      vertex 58 47 0
    endloop
  endfacet
  facet normal -0.258819 0 -0.965926
    outer loop
      vertex 58 55 0
      vertex 57 47 0.267949
      vertex 57 55 0.267949
    endloop
  endfacet
  facet normal 0 -1 0
    outer loop
      vertex 57 47 3.73205
      vertex 59 47 3.73205
      vertex 58 47 4
    endloop
  endfacet
  facet normal 0 -1 0
    outer loop
      vertex 56.268 47 3
      vertex 59 47 3.73205
      vertex 57 47 3.73205
    endloop
  endfacet
  facet normal 0 -1 0
    outer loop
      vertex 56.268 47 3
      vertex 59.732 47 3
      vertex 59 47 3.73205
    endloop
  endfacet
  facet normal 0 -1 0
    outer loop
      vertex 56 47 2
      vertex 59.732 47 3
      vertex 56.268 47 3
    endloop
  endfacet
  facet normal 0 -1 0
    outer loop
      vertex 56 47 2
      vertex 60 47 2
      vertex 59.732 47 3
    endloop
  endfacet
  facet normal 0 -1 0
    outer loop
      vertex 56.268 47 1
      vertex 60 47 2
      vertex 56 47 2
    endloop
  endfacet
  facet normal 0 -1 0
    outer loop
      vertex 56.268 47 1
      vertex 59.732 47 1
      vertex 60 47 2
    endloop
  endfacet
  facet normal 0 -1 0
    outer loop
      vertex 57 47 0.267949
      vertex 59.732 47 1
      vertex 56.268 47 1
    endloop
  endfacet
  facet normal 0 -1 0
    outer loop
      vertex 57 47 0.267949
      vertex 59 47 0.267949
      vertex 59.732 47 1
    endloop
  endfacet
  facet normal -0 -1 0
    outer loop
      vertex 59 47 0.267949
      vertex 57 47 0.267949
      vertex 58 47 0
    endloop
  endfacet
  facet normal 0.258819 0 -0.965926
    outer loop
      vertex 58 61 0
      vertex 59 69 0.267949
      vertex 59 61 0.267949
    endloop
  endfacet
  facet normal 0.258819 0 -0.965926
    outer loop
      vertex 59 69 0.267949
      vertex 58 61 0
      vertex 58 69 0
    endloop
  endfacet
  facet normal 0.258819 0 -0.965926
    outer loop
      vertex 58 47 0
      vertex 59 55 0.267949
      vertex 59 47 0.267949
    endloop
  endfacet
  facet normal 0.258819 0 -0.965926
    outer loop
      vertex 59 55 0.267949
      vertex 58 47 0
      vertex 58 55 0
    endloop
  endfacet
  facet normal -0.965914 0 -0.258865
    outer loop
      vertex 56.268 61 1
      vertex 56 69 2
      vertex 56.268 69 1
    endloop
  endfacet
  facet normal -0.965914 -0 -0.258865
    outer loop
      vertex 56 69 2
      vertex 56.268 61 1
      vertex 56 61 2
    endloop
  endfacet
  facet normal -0.965914 0 -0.258865
    outer loop
      vertex 56.268 47 1
      vertex 56 55 2
      vertex 56.268 55 1
    endloop
  endfacet
  facet normal -0.965914 -0 -0.258865
    outer loop
      vertex 56 55 2
      vertex 56.268 47 1
      vertex 56 47 2
    endloop
  endfacet
endsolid OpenSCAD_Model
