solid OpenSCAD_Model
  facet normal 0 0 1
    outer loop
      vertex 9.2 16 2
      vertex 7.075 3.775 2
      vertex 9.2 0 2
    endloop
  endfacet
  facet normal 0 0 1
    outer loop
      vertex 9.2 16 2
      vertex 2.125 3.775 2
      vertex 7.075 3.775 2
    endloop
  endfacet
  facet normal 0 0 1
    outer loop
      vertex 1.90735e-07 0 2
      vertex 2.125 3.775 2
      vertex 1.90735e-07 16 2
    endloop
  endfacet
  facet normal -0 0 1
    outer loop
      vertex 1.90735e-07 16 2
      vertex 2.125 3.775 2
      vertex 9.2 16 2
    endloop
  endfacet
  facet normal -0 0 1
    outer loop
      vertex 7.075 1.225 2
      vertex 9.2 0 2
      vertex 7.075 3.775 2
    endloop
  endfacet
  facet normal -0 0 1
    outer loop
      vertex 2.125 1.225 2
      vertex 9.2 0 2
      vertex 7.075 1.225 2
    endloop
  endfacet
  facet normal 0 0 1
    outer loop
      vertex 2.125 1.225 2
      vertex 1.90735e-07 0 2
      vertex 9.2 0 2
    endloop
  endfacet
  facet normal 0 0 1
    outer loop
      vertex 2.125 3.775 2
      vertex 1.90735e-07 0 2
      vertex 2.125 1.225 2
    endloop
  endfacet
  facet normal -1 0 0
    outer loop
      vertex 1.90735e-07 0 0
      vertex 1.90735e-07 16 2
      vertex 1.90735e-07 16 0
    endloop
  endfacet
  facet normal -1 -0 0
    outer loop
      vertex 1.90735e-07 16 2
      vertex 1.90735e-07 0 0
      vertex 1.90735e-07 0 2
    endloop
  endfacet
  facet normal 1 -0 0
    outer loop
      vertex 9.2 0 2
      vertex 9.2 16 0
      vertex 9.2 16 2
    endloop
  endfacet
  facet normal 1 0 0
    outer loop
      vertex 9.2 16 0
      vertex 9.2 0 2
      vertex 9.2 0 0
    endloop
  endfacet
  facet normal 0 0 -1
    outer loop
      vertex 1.90735e-07 0 0
      vertex 9.2 16 0
      vertex 9.2 0 0
    endloop
  endfacet
  facet normal -0 0 -1
    outer loop
      vertex 9.2 16 0
      vertex 1.90735e-07 0 0
      vertex 1.90735e-07 16 0
    endloop
  endfacet
  facet normal 0 1 -0
    outer loop
      vertex 9.2 16 0
      vertex 1.90735e-07 16 2
      vertex 9.2 16 2
    endloop
  endfacet
  facet normal 0 1 0
    outer loop
      vertex 1.90735e-07 16 2
      vertex 9.2 16 0
      vertex 1.90735e-07 16 0
    endloop
  endfacet
  facet normal 0 -1 0
    outer loop
      vertex 1.90735e-07 0 0
      vertex 9.2 0 2
      vertex 1.90735e-07 0 2
    endloop
  endfacet
  facet normal 0 -1 -0
    outer loop
      vertex 9.2 0 2
      vertex 1.90735e-07 0 0
      vertex 9.2 0 0
    endloop
  endfacet
  facet normal -0 0 1
    outer loop
      vertex 2.125 3.775 14
      vertex 7.075 1.225 14
      vertex 7.075 3.775 14
    endloop
  endfacet
  facet normal 0 0 1
    outer loop
      vertex 7.075 1.225 14
      vertex 2.125 3.775 14
      vertex 2.125 1.225 14
    endloop
  endfacet
  facet normal -1 0 0
    outer loop
      vertex 2.125 1.225 2
      vertex 2.125 3.775 14
      vertex 2.125 3.775 2
    endloop
  endfacet
  facet normal -1 -0 0
    outer loop
      vertex 2.125 3.775 14
      vertex 2.125 1.225 2
      vertex 2.125 1.225 14
    endloop
  endfacet
  facet normal 1 -0 0
    outer loop
      vertex 7.075 1.225 14
      vertex 7.075 3.775 2
      vertex 7.075 3.775 14
    endloop
  endfacet
  facet normal 1 0 0
    outer loop
      vertex 7.075 3.775 2
      vertex 7.075 1.225 14
      vertex 7.075 1.225 2
    endloop
  endfacet
  facet normal 0 1 -0
    outer loop
      vertex 7.075 3.775 2
      vertex 2.125 3.775 14
      vertex 7.075 3.775 14
    endloop
  endfacet
  facet normal 0 1 0
    outer loop
      vertex 2.125 3.775 14
      vertex 7.075 3.775 2
      vertex 2.125 3.775 2
    endloop
  endfacet
  facet normal 0 -1 0
    outer loop
      vertex 2.125 1.225 2
      vertex 7.075 1.225 14
      vertex 2.125 1.225 14
    endloop
  endfacet
  facet normal 0 -1 -0
    outer loop
      vertex 7.075 1.225 14
      vertex 2.125 1.225 2
      vertex 7.075 1.225 2
    endloop
  endfacet
endsolid OpenSCAD_Model
