  0
SECTION
  2
BLOCKS
  0
ENDSEC
  0
SECTION
  2
ENTITIES
  0
LINE
  8
0
 10
3.85881
 20
2.95125
 11
3.85881
 21
6.41344
  0
LINE
  8
0
 10
3.85881
 20
6.41344
 11
6.98486
 21
8.43025
  0
LINE
  8
0
 10
6.98486
 20
8.43025
 11
6.94907
 21
8.46478
  0
LINE
  8
0
 10
6.94907
 20
8.46478
 11
6.91226
 21
8.49777
  0
LINE
  8
0
 10
6.91226
 20
8.49777
 11
6.87445
 21
8.52921
  0
LINE
  8
0
 10
6.87445
 20
8.52921
 11
6.83562
 21
8.55905
  0
LINE
  8
0
 10
6.83562
 20
8.55905
 11
6.79579
 21
8.58728
  0
LINE
  8
0
 10
6.79579
 20
8.58728
 11
6.75494
 21
8.61388
  0
LINE
  8
0
 10
6.75494
 20
8.61388
 11
6.7131
 21
8.63881
  0
LINE
  8
0
 10
6.7131
 20
8.63881
 11
6.67024
 21
8.66205
  0
LINE
  8
0
 10
6.67024
 20
8.66205
 11
6.62637
 21
8.68356
  0
LINE
  8
0
 10
6.62637
 20
8.68356
 11
6.58151
 21
8.70335
  0
LINE
  8
0
 10
6.58151
 20
8.70335
 11
6.53563
 21
8.72137
  0
LINE
  8
0
 10
6.53563
 20
8.72137
 11
6.48874
 21
8.73761
  0
LINE
  8
0
 10
6.48874
 20
8.73761
 11
6.44083
 21
8.75201
  0
LINE
  8
0
 10
6.44083
 20
8.75201
 11
6.39192
 21
8.7646
  0
LINE
  8
0
 10
6.39192
 20
8.7646
 11
6.34201
 21
8.77531
  0
LINE
  8
0
 10
6.34201
 20
8.77531
 11
6.29109
 21
8.78413
  0
LINE
  8
0
 10
6.29109
 20
8.78413
 11
6.23915
 21
8.79103
  0
LINE
  8
0
 10
6.23915
 20
8.79103
 11
6.1862
 21
8.79599
  0
LINE
  8
0
 10
6.1862
 20
8.79599
 11
6.13226
 21
8.79898
  0
LINE
  8
0
 10
6.13226
 20
8.79898
 11
6.0773
 21
8.79999
  0
LINE
  8
0
 10
6.0773
 20
8.79999
 11
2.85042
 21
8.79999
  0
LINE
  8
0
 10
2.85042
 20
8.79999
 11
2.68083
 21
8.79326
  0
LINE
  8
0
 10
2.68083
 20
8.79326
 11
2.51529
 21
8.77341
  0
LINE
  8
0
 10
2.51529
 20
8.77341
 11
2.35428
 21
8.74089
  0
LINE
  8
0
 10
2.35428
 20
8.74089
 11
2.19832
 21
8.6962
  0
LINE
  8
0
 10
2.19832
 20
8.6962
 11
2.0479
 21
8.6398
  0
LINE
  8
0
 10
2.0479
 20
8.6398
 11
1.90352
 21
8.57219
  0
LINE
  8
0
 10
1.90352
 20
8.57219
 11
1.7657
 21
8.49385
  0
LINE
  8
0
 10
1.7657
 20
8.49385
 11
1.63495
 21
8.40524
  0
LINE
  8
0
 10
1.63495
 20
8.40524
 11
1.51175
 21
8.30684
  0
LINE
  8
0
 10
1.51175
 20
8.30684
 11
1.39664
 21
8.19916
  0
LINE
  8
0
 10
1.39664
 20
8.19916
 11
1.29007
 21
8.08264
  0
LINE
  8
0
 10
1.29007
 20
8.08264
 11
1.1926
 21
7.95778
  0
LINE
  8
0
 10
1.1926
 20
7.95778
 11
1.10469
 21
7.82504
  0
LINE
  8
0
 10
1.10469
 20
7.82504
 11
1.02689
 21
7.68494
  0
LINE
  8
0
 10
1.02689
 20
7.68494
 11
0.959656
 21
7.53792
  0
LINE
  8
0
 10
0.959656
 20
7.53792
 11
0.903519
 21
7.38446
  0
LINE
  8
0
 10
0.903519
 20
7.38446
 11
0.858978
 21
7.22507
  0
LINE
  8
0
 10
0.858978
 20
7.22507
 11
0.826553
 21
7.0602
  0
LINE
  8
0
 10
0.826553
 20
7.0602
 11
0.806717
 21
6.89034
  0
LINE
  8
0
 10
0.806717
 20
6.89034
 11
0.799988
 21
6.71596
  0
LINE
  8
0
 10
0.799988
 20
6.71596
 11
0.799988
 21
2.41344
  0
LINE
  8
0
 10
0.799988
 20
2.41344
 11
0.800507
 21
2.3532
  0
LINE
  8
0
 10
0.800507
 20
2.3532
 11
0.802078
 21
2.2935
  0
LINE
  8
0
 10
0.802078
 20
2.2935
 11
0.804764
 21
2.23442
  0
LINE
  8
0
 10
0.804764
 20
2.23442
 11
0.808594
 21
2.17599
  0
LINE
  8
0
 10
0.808594
 20
2.17599
 11
0.813644
 21
2.11827
  0
LINE
  8
0
 10
0.813644
 20
2.11827
 11
0.819962
 21
2.06131
  0
LINE
  8
0
 10
0.819962
 20
2.06131
 11
0.827576
 21
2.00514
  0
LINE
  8
0
 10
0.827576
 20
2.00514
 11
0.836563
 21
1.94984
  0
LINE
  8
0
 10
0.836563
 20
1.94984
 11
0.846954
 21
1.89545
  0
LINE
  8
0
 10
0.846954
 20
1.89545
 11
0.85881
 21
1.84201
  0
LINE
  8
0
 10
0.85881
 20
1.84201
 11
0.872192
 21
1.78958
  0
LINE
  8
0
 10
0.872192
 20
1.78958
 11
0.887115
 21
1.7382
  0
LINE
  8
0
 10
0.887115
 20
1.7382
 11
0.903671
 21
1.68796
  0
LINE
  8
0
 10
0.903671
 20
1.68796
 11
0.921875
 21
1.63885
  0
LINE
  8
0
 10
0.921875
 20
1.63885
 11
0.941803
 21
1.59096
  0
LINE
  8
0
 10
0.941803
 20
1.59096
 11
0.963486
 21
1.54433
  0
LINE
  8
0
 10
0.963486
 20
1.54433
 11
0.987
 21
1.49901
  0
LINE
  8
0
 10
0.987
 20
1.49901
 11
1.01236
 21
1.45505
  0
LINE
  8
0
 10
1.01236
 20
1.45505
 11
1.03964
 21
1.41251
  0
LINE
  8
0
 10
1.03964
 20
1.41251
 11
1.06889
 21
1.37141
  0
LINE
  8
0
 10
1.06889
 20
1.37141
 11
3.85881
 21
2.95125
  0
LINE
  8
0
 10
29.7109
 20
5.02524
 11
29.9625
 21
5.09932
  0
LINE
  8
0
 10
29.9625
 20
5.09932
 11
30.1805
 21
5.22278
  0
LINE
  8
0
 10
30.1805
 20
5.22278
 11
30.3648
 21
5.39563
  0
LINE
  8
0
 10
30.3648
 20
5.39563
 11
30.5112
 21
5.61273
  0
LINE
  8
0
 10
30.5112
 20
5.61273
 11
30.6159
 21
5.86891
  0
LINE
  8
0
 10
30.6159
 20
5.86891
 11
30.6786
 21
6.1642
  0
LINE
  8
0
 10
30.6786
 20
6.1642
 11
30.6996
 21
6.49857
  0
LINE
  8
0
 10
30.6996
 20
6.49857
 11
30.6901
 21
6.72633
  0
LINE
  8
0
 10
30.6901
 20
6.72633
 11
30.6617
 21
6.93706
  0
LINE
  8
0
 10
30.6617
 20
6.93706
 11
30.6143
 21
7.13074
  0
LINE
  8
0
 10
30.6143
 20
7.13074
 11
30.5479
 21
7.30739
  0
LINE
  8
0
 10
30.5479
 20
7.30739
 11
30.4638
 21
7.46565
  0
LINE
  8
0
 10
30.4638
 20
7.46565
 11
30.363
 21
7.6042
  0
LINE
  8
0
 10
30.363
 20
7.6042
 11
30.2455
 21
7.72301
  0
LINE
  8
0
 10
30.2455
 20
7.72301
 11
30.1113
 21
7.82208
  0
LINE
  8
0
 10
30.1113
 20
7.82208
 11
29.9616
 21
7.90016
  0
LINE
  8
0
 10
29.9616
 20
7.90016
 11
29.7974
 21
7.95592
  0
LINE
  8
0
 10
29.7974
 20
7.95592
 11
29.6187
 21
7.98938
  0
LINE
  8
0
 10
29.6187
 20
7.98938
 11
29.4255
 21
8.00053
  0
LINE
  8
0
 10
29.4255
 20
8.00053
 11
29.1417
 21
7.97578
  0
LINE
  8
0
 10
29.1417
 20
7.97578
 11
28.8909
 21
7.9015
  0
LINE
  8
0
 10
28.8909
 20
7.9015
 11
28.6731
 21
7.77773
  0
LINE
  8
0
 10
28.6731
 20
7.77773
 11
28.4882
 21
7.60443
  0
LINE
  8
0
 10
28.4882
 20
7.60443
 11
28.3408
 21
7.38678
  0
LINE
  8
0
 10
28.3408
 20
7.38678
 11
28.2356
 21
7.12993
  0
LINE
  8
0
 10
28.2356
 20
7.12993
 11
28.1724
 21
6.83386
  0
LINE
  8
0
 10
28.1724
 20
6.83386
 11
28.1514
 21
6.49857
  0
LINE
  8
0
 10
28.1514
 20
6.49857
 11
28.1724
 21
6.16339
  0
LINE
  8
0
 10
28.1724
 20
6.16339
 11
28.2356
 21
5.86769
  0
LINE
  8
0
 10
28.2356
 20
5.86769
 11
28.3408
 21
5.61143
  0
LINE
  8
0
 10
28.3408
 20
5.61143
 11
28.4882
 21
5.39465
  0
LINE
  8
0
 10
28.4882
 20
5.39465
 11
28.6731
 21
5.22223
  0
LINE
  8
0
 10
28.6731
 20
5.22223
 11
28.8909
 21
5.09906
  0
LINE
  8
0
 10
28.8909
 20
5.09906
 11
29.1417
 21
5.02518
  0
LINE
  8
0
 10
29.1417
 20
5.02518
 11
29.4255
 21
5.00053
  0
LINE
  8
0
 10
29.4255
 20
5.00053
 11
29.7109
 21
5.02524
  0
LINE
  8
0
 10
29.3038
 20
5.58228
 11
29.1973
 21
5.62749
  0
LINE
  8
0
 10
29.1973
 20
5.62749
 11
29.1059
 21
5.70285
  0
LINE
  8
0
 10
29.1059
 20
5.70285
 11
29.0296
 21
5.80836
  0
LINE
  8
0
 10
29.0296
 20
5.80836
 11
28.9695
 21
5.94196
  0
LINE
  8
0
 10
28.9695
 20
5.94196
 11
28.9266
 21
6.10152
  0
LINE
  8
0
 10
28.9266
 20
6.10152
 11
28.9008
 21
6.28705
  0
LINE
  8
0
 10
28.9008
 20
6.28705
 11
28.8922
 21
6.49857
  0
LINE
  8
0
 10
28.8922
 20
6.49857
 11
28.9009
 21
6.71114
  0
LINE
  8
0
 10
28.9009
 20
6.71114
 11
28.9268
 21
6.89784
  0
LINE
  8
0
 10
28.9268
 20
6.89784
 11
28.9701
 21
7.05869
  0
LINE
  8
0
 10
28.9701
 20
7.05869
 11
29.0306
 21
7.19366
  0
LINE
  8
0
 10
29.0306
 20
7.19366
 11
29.1072
 21
7.30046
  0
LINE
  8
0
 10
29.1072
 20
7.30046
 11
29.1985
 21
7.37675
  0
LINE
  8
0
 10
29.1985
 20
7.37675
 11
29.3046
 21
7.42252
  0
LINE
  8
0
 10
29.3046
 20
7.42252
 11
29.4255
 21
7.43777
  0
LINE
  8
0
 10
29.4255
 20
7.43777
 11
29.5472
 21
7.42252
  0
LINE
  8
0
 10
29.5472
 20
7.42252
 11
29.6539
 21
7.37675
  0
LINE
  8
0
 10
29.6539
 20
7.37675
 11
29.7456
 21
7.30046
  0
LINE
  8
0
 10
29.7456
 20
7.30046
 11
29.8223
 21
7.19366
  0
LINE
  8
0
 10
29.8223
 20
7.19366
 11
29.8829
 21
7.05869
  0
LINE
  8
0
 10
29.8829
 20
7.05869
 11
29.9261
 21
6.89784
  0
LINE
  8
0
 10
29.9261
 20
6.89784
 11
29.9521
 21
6.71114
  0
LINE
  8
0
 10
29.9521
 20
6.71114
 11
29.9608
 21
6.49857
  0
LINE
  8
0
 10
29.9608
 20
6.49857
 11
29.9521
 21
6.28705
  0
LINE
  8
0
 10
29.9521
 20
6.28705
 11
29.9261
 21
6.10152
  0
LINE
  8
0
 10
29.9261
 20
6.10152
 11
29.8829
 21
5.94196
  0
LINE
  8
0
 10
29.8829
 20
5.94196
 11
29.8223
 21
5.80836
  0
LINE
  8
0
 10
29.8223
 20
5.80836
 11
29.7456
 21
5.70285
  0
LINE
  8
0
 10
29.7456
 20
5.70285
 11
29.6539
 21
5.62749
  0
LINE
  8
0
 10
29.6539
 20
5.62749
 11
29.5472
 21
5.58228
  0
LINE
  8
0
 10
29.5472
 20
5.58228
 11
29.4255
 21
5.5672
  0
LINE
  8
0
 10
29.4255
 20
5.5672
 11
29.3038
 21
5.58228
  0
LINE
  8
0
 10
12.9966
 20
6.29855
 11
12.9963
 21
6.35756
  0
LINE
  8
0
 10
12.9963
 20
6.35756
 11
12.9953
 21
6.42477
  0
LINE
  8
0
 10
12.9953
 20
6.42477
 11
12.9937
 21
6.5002
  0
LINE
  8
0
 10
12.9937
 20
6.5002
 11
12.9915
 21
6.58383
  0
LINE
  8
0
 10
12.9915
 20
6.58383
 11
12.9862
 21
6.76645
  0
LINE
  8
0
 10
12.9862
 20
6.76645
 11
12.9803
 21
6.96326
  0
LINE
  8
0
 10
12.9803
 20
6.96326
 11
12.9774
 21
7.06448
  0
LINE
  8
0
 10
12.9774
 20
7.06448
 11
12.9747
 21
7.16425
  0
LINE
  8
0
 10
12.9747
 20
7.16425
 11
12.9723
 21
7.26253
  0
LINE
  8
0
 10
12.9723
 20
7.26253
 11
12.9701
 21
7.35933
  0
LINE
  8
0
 10
12.9701
 20
7.35933
 11
12.9959
 21
7.25659
  0
LINE
  8
0
 10
12.9959
 20
7.25659
 11
13.0223
 21
7.15421
  0
LINE
  8
0
 10
13.0223
 20
7.15421
 11
13.0493
 21
7.05219
  0
LINE
  8
0
 10
13.0493
 20
7.05219
 11
13.077
 21
6.95053
  0
LINE
  8
0
 10
13.077
 20
6.95053
 11
13.1047
 21
6.85109
  0
LINE
  8
0
 10
13.1047
 20
6.85109
 11
13.1317
 21
6.75568
  0
LINE
  8
0
 10
13.1317
 20
6.75568
 11
13.1581
 21
6.66431
  0
LINE
  8
0
 10
13.1581
 20
6.66431
 11
13.1839
 21
6.57698
  0
LINE
  8
0
 10
13.1839
 20
6.57698
 11
13.2083
 21
6.49561
  0
LINE
  8
0
 10
13.2083
 20
6.49561
 11
13.2307
 21
6.42209
  0
LINE
  8
0
 10
13.2307
 20
6.42209
 11
13.251
 21
6.3564
  0
LINE
  8
0
 10
13.251
 20
6.3564
 11
13.2693
 21
6.29855
  0
LINE
  8
0
 10
13.2693
 20
6.29855
 11
13.7069
 21
5.03975
  0
LINE
  8
0
 10
13.7069
 20
5.03975
 11
14.3073
 21
5.03975
  0
LINE
  8
0
 10
14.3073
 20
5.03975
 11
14.7388
 21
6.29855
  0
LINE
  8
0
 10
14.7388
 20
6.29855
 11
14.758
 21
6.35855
  0
LINE
  8
0
 10
14.758
 20
6.35855
 11
14.779
 21
6.42674
  0
LINE
  8
0
 10
14.779
 20
6.42674
 11
14.8018
 21
6.50316
  0
LINE
  8
0
 10
14.8018
 20
6.50316
 11
14.8263
 21
6.58777
  0
LINE
  8
0
 10
14.8263
 20
6.58777
 11
14.8521
 21
6.67853
  0
LINE
  8
0
 10
14.8521
 20
6.67853
 11
14.8785
 21
6.77332
  0
LINE
  8
0
 10
14.8785
 20
6.77332
 11
14.9055
 21
6.87215
  0
LINE
  8
0
 10
14.9055
 20
6.87215
 11
14.9332
 21
6.97502
  0
LINE
  8
0
 10
14.9332
 20
6.97502
 11
14.9609
 21
7.07982
  0
LINE
  8
0
 10
14.9609
 20
7.07982
 11
14.9879
 21
7.18434
  0
LINE
  8
0
 10
14.9879
 20
7.18434
 11
15.0143
 21
7.28864
  0
LINE
  8
0
 10
15.0143
 20
7.28864
 11
15.04
 21
7.39267
  0
LINE
  8
0
 10
15.04
 20
7.39267
 11
15.0379
 21
7.29366
  0
LINE
  8
0
 10
15.0379
 20
7.29366
 11
15.0355
 21
7.19269
  0
LINE
  8
0
 10
15.0355
 20
7.19269
 11
15.0328
 21
7.08974
  0
LINE
  8
0
 10
15.0328
 20
7.08974
 11
15.0299
 21
6.98483
  0
LINE
  8
0
 10
15.0299
 20
6.98483
 11
15.024
 21
6.78067
  0
LINE
  8
0
 10
15.024
 20
6.78067
 11
15.0187
 21
6.59171
  0
LINE
  8
0
 10
15.0187
 20
6.59171
 11
15.0164
 21
6.50537
  0
LINE
  8
0
 10
15.0164
 20
6.50537
 11
15.0148
 21
6.42773
  0
LINE
  8
0
 10
15.0148
 20
6.42773
 11
15.0139
 21
6.3588
  0
LINE
  8
0
 10
15.0139
 20
6.3588
 11
15.0136
 21
6.29855
  0
LINE
  8
0
 10
15.0136
 20
6.29855
 11
15.0136
 21
5.03975
  0
LINE
  8
0
 10
15.0136
 20
5.03975
 11
15.7361
 21
5.03975
  0
LINE
  8
0
 10
15.7361
 20
5.03975
 11
15.7361
 21
7.9613
  0
LINE
  8
0
 10
15.7361
 20
7.9613
 11
14.6147
 21
7.9613
  0
LINE
  8
0
 10
14.6147
 20
7.9613
 11
14.2341
 21
6.82405
  0
LINE
  8
0
 10
14.2341
 20
6.82405
 11
14.2182
 21
6.77019
  0
LINE
  8
0
 10
14.2182
 20
6.77019
 11
14.2012
 21
6.70862
  0
LINE
  8
0
 10
14.2012
 20
6.70862
 11
14.1831
 21
6.63931
  0
LINE
  8
0
 10
14.1831
 20
6.63931
 11
14.1638
 21
6.5623
  0
LINE
  8
0
 10
14.1638
 20
6.5623
 11
14.144
 21
6.47993
  0
LINE
  8
0
 10
14.144
 20
6.47993
 11
14.1242
 21
6.39464
  0
LINE
  8
0
 10
14.1242
 20
6.39464
 11
14.1043
 21
6.30641
  0
LINE
  8
0
 10
14.1043
 20
6.30641
 11
14.0845
 21
6.21523
  0
LINE
  8
0
 10
14.0845
 20
6.21523
 11
14.065
 21
6.12326
  0
LINE
  8
0
 10
14.065
 20
6.12326
 11
14.0461
 21
6.03264
  0
LINE
  8
0
 10
14.0461
 20
6.03264
 11
14.0278
 21
5.94336
  0
LINE
  8
0
 10
14.0278
 20
5.94336
 11
14.0102
 21
5.85544
  0
LINE
  8
0
 10
14.0102
 20
5.85544
 11
13.9916
 21
5.94342
  0
LINE
  8
0
 10
13.9916
 20
5.94342
 11
13.9725
 21
6.03288
  0
LINE
  8
0
 10
13.9725
 20
6.03288
 11
13.9529
 21
6.12381
  0
LINE
  8
0
 10
13.9529
 20
6.12381
 11
13.9328
 21
6.21622
  0
LINE
  8
0
 10
13.9328
 20
6.21622
 11
13.9125
 21
6.30775
  0
LINE
  8
0
 10
13.9125
 20
6.30775
 11
13.8924
 21
6.39612
  0
LINE
  8
0
 10
13.8924
 20
6.39612
 11
13.8724
 21
6.48129
  0
LINE
  8
0
 10
13.8724
 20
6.48129
 11
13.8524
 21
6.56328
  0
LINE
  8
0
 10
13.8524
 20
6.56328
 11
13.8332
 21
6.63988
  0
LINE
  8
0
 10
13.8332
 20
6.63988
 11
13.8151
 21
6.70886
  0
LINE
  8
0
 10
13.8151
 20
6.70886
 11
13.7981
 21
6.77025
  0
LINE
  8
0
 10
13.7981
 20
6.77025
 11
13.7822
 21
6.82405
  0
LINE
  8
0
 10
13.7822
 20
6.82405
 11
13.3955
 21
7.9613
  0
LINE
  8
0
 10
13.3955
 20
7.9613
 11
12.2761
 21
7.9613
  0
LINE
  8
0
 10
12.2761
 20
7.9613
 11
12.2761
 21
5.03975
  0
LINE
  8
0
 10
12.2761
 20
5.03975
 11
12.9966
 21
5.03975
  0
LINE
  8
0
 10
12.9966
 20
5.03975
 11
12.9966
 21
6.29855
  0
LINE
  8
0
 10
18.7519
 20
5.66132
 11
19.7614
 21
5.66132
  0
LINE
  8
0
 10
19.7614
 20
5.66132
 11
19.9669
 21
5.03975
  0
LINE
  8
0
 10
19.9669
 20
5.03975
 11
20.7729
 21
5.03975
  0
LINE
  8
0
 10
20.7729
 20
5.03975
 11
19.7308
 21
7.9613
  0
LINE
  8
0
 10
19.7308
 20
7.9613
 11
18.7681
 21
7.9613
  0
LINE
  8
0
 10
18.7681
 20
7.9613
 11
17.7566
 21
5.03975
  0
LINE
  8
0
 10
17.7566
 20
5.03975
 11
18.5544
 21
5.03975
  0
LINE
  8
0
 10
18.5544
 20
5.03975
 11
18.7519
 21
5.66132
  0
LINE
  8
0
 10
18.9208
 20
6.19073
 11
18.9615
 21
6.31622
  0
LINE
  8
0
 10
18.9615
 20
6.31622
 11
18.9987
 21
6.44232
  0
LINE
  8
0
 10
18.9987
 20
6.44232
 11
19.035
 21
6.57161
  0
LINE
  8
0
 10
19.035
 20
6.57161
 11
19.0704
 21
6.70409
  0
LINE
  8
0
 10
19.0704
 20
6.70409
 11
19.105
 21
6.83975
  0
LINE
  8
0
 10
19.105
 20
6.83975
 11
19.1391
 21
6.97835
  0
LINE
  8
0
 10
19.1391
 20
6.97835
 11
19.1734
 21
7.11964
  0
LINE
  8
0
 10
19.1734
 20
7.11964
 11
19.2078
 21
7.26364
  0
LINE
  8
0
 10
19.2078
 20
7.26364
 11
19.2424
 21
7.41034
  0
LINE
  8
0
 10
19.2424
 20
7.41034
 11
19.2791
 21
7.2645
  0
LINE
  8
0
 10
19.2791
 20
7.2645
 11
19.3161
 21
7.12111
  0
LINE
  8
0
 10
19.3161
 20
7.12111
 11
19.3534
 21
6.98018
  0
LINE
  8
0
 10
19.3534
 20
6.98018
 11
19.3909
 21
6.84169
  0
LINE
  8
0
 10
19.3909
 20
6.84169
 11
19.4288
 21
6.7059
  0
LINE
  8
0
 10
19.4288
 20
6.7059
 11
19.4673
 21
6.57306
  0
LINE
  8
0
 10
19.4673
 20
6.57306
 11
19.5062
 21
6.44318
  0
LINE
  8
0
 10
19.5062
 20
6.44318
 11
19.5456
 21
6.31622
  0
LINE
  8
0
 10
19.5456
 20
6.31622
 11
19.5863
 21
6.19073
  0
LINE
  8
0
 10
19.5863
 20
6.19073
 11
18.9208
 21
6.19073
  0
LINE
  8
0
 10
21.7479
 20
6.04562
 11
22.1387
 21
6.04562
  0
LINE
  8
0
 10
22.1387
 20
6.04562
 11
22.6944
 21
5.03975
  0
LINE
  8
0
 10
22.6944
 20
5.03975
 11
23.482
 21
5.03975
  0
LINE
  8
0
 10
23.482
 20
5.03975
 11
22.849
 21
6.15544
  0
LINE
  8
0
 10
22.849
 20
6.15544
 11
22.968
 21
6.21672
  0
LINE
  8
0
 10
22.968
 20
6.21672
 11
23.0726
 21
6.29074
  0
LINE
  8
0
 10
23.0726
 20
6.29074
 11
23.1629
 21
6.3775
  0
LINE
  8
0
 10
23.1629
 20
6.3775
 11
23.2388
 21
6.47701
  0
LINE
  8
0
 10
23.2388
 20
6.47701
 11
23.2989
 21
6.58852
  0
LINE
  8
0
 10
23.2989
 20
6.58852
 11
23.3418
 21
6.71132
  0
LINE
  8
0
 10
23.3418
 20
6.71132
 11
23.3676
 21
6.84538
  0
LINE
  8
0
 10
23.3676
 20
6.84538
 11
23.3762
 21
6.99072
  0
LINE
  8
0
 10
23.3762
 20
6.99072
 11
23.3577
 21
7.20267
  0
LINE
  8
0
 10
23.3577
 20
7.20267
 11
23.3021
 21
7.39145
  0
LINE
  8
0
 10
23.3021
 20
7.39145
 11
23.2096
 21
7.55707
  0
LINE
  8
0
 10
23.2096
 20
7.55707
 11
23.08
 21
7.69952
  0
LINE
  8
0
 10
23.08
 20
7.69952
 11
22.9184
 21
7.81406
  0
LINE
  8
0
 10
22.9184
 20
7.81406
 11
22.7297
 21
7.89586
  0
LINE
  8
0
 10
22.7297
 20
7.89586
 11
22.5139
 21
7.94495
  0
LINE
  8
0
 10
22.5139
 20
7.94495
 11
22.271
 21
7.9613
  0
LINE
  8
0
 10
22.271
 20
7.9613
 11
21.0295
 21
7.9613
  0
LINE
  8
0
 10
21.0295
 20
7.9613
 11
21.0295
 21
5.03975
  0
LINE
  8
0
 10
21.0295
 20
5.03975
 11
21.7479
 21
5.03975
  0
LINE
  8
0
 10
21.7479
 20
5.03975
 11
21.7479
 21
6.04562
  0
LINE
  8
0
 10
21.7479
 20
6.59268
 11
21.7479
 21
7.40054
  0
LINE
  8
0
 10
21.7479
 20
7.40054
 11
22.1184
 21
7.40054
  0
LINE
  8
0
 10
22.1184
 20
7.40054
 11
22.3428
 21
7.37492
  0
LINE
  8
0
 10
22.3428
 20
7.37492
 11
22.503
 21
7.29808
  0
LINE
  8
0
 10
22.503
 20
7.29808
 11
22.5992
 21
7.17001
  0
LINE
  8
0
 10
22.5992
 20
7.17001
 11
22.6313
 21
6.99072
  0
LINE
  8
0
 10
22.6313
 20
6.99072
 11
22.5993
 21
6.81659
  0
LINE
  8
0
 10
22.5993
 20
6.81659
 11
22.5035
 21
6.6922
  0
LINE
  8
0
 10
22.5035
 20
6.6922
 11
22.3439
 21
6.61755
  0
LINE
  8
0
 10
22.3439
 20
6.61755
 11
22.1204
 21
6.59268
  0
LINE
  8
0
 10
22.1204
 20
6.59268
 11
21.7479
 21
6.59268
  0
LINE
  8
0
 10
9.15659
 20
6.29855
 11
9.15627
 21
6.35756
  0
LINE
  8
0
 10
9.15627
 20
6.35756
 11
9.1553
 21
6.42477
  0
LINE
  8
0
 10
9.1553
 20
6.42477
 11
9.15372
 21
6.5002
  0
LINE
  8
0
 10
9.15372
 20
6.5002
 11
9.15147
 21
6.58383
  0
LINE
  8
0
 10
9.15147
 20
6.58383
 11
9.14615
 21
6.76645
  0
LINE
  8
0
 10
9.14615
 20
6.76645
 11
9.14029
 21
6.96326
  0
LINE
  8
0
 10
9.14029
 20
6.96326
 11
9.13736
 21
7.06448
  0
LINE
  8
0
 10
9.13736
 20
7.06448
 11
9.1347
 21
7.16425
  0
LINE
  8
0
 10
9.1347
 20
7.16425
 11
9.13228
 21
7.26253
  0
LINE
  8
0
 10
9.13228
 20
7.26253
 11
9.13011
 21
7.35933
  0
LINE
  8
0
 10
9.13011
 20
7.35933
 11
9.15588
 21
7.25659
  0
LINE
  8
0
 10
9.15588
 20
7.25659
 11
9.18228
 21
7.15421
  0
LINE
  8
0
 10
9.18228
 20
7.15421
 11
9.20932
 21
7.05219
  0
LINE
  8
0
 10
9.20932
 20
7.05219
 11
9.23698
 21
6.95053
  0
LINE
  8
0
 10
9.23698
 20
6.95053
 11
9.26465
 21
6.85109
  0
LINE
  8
0
 10
9.26465
 20
6.85109
 11
9.29169
 21
6.75568
  0
LINE
  8
0
 10
9.29169
 20
6.75568
 11
9.31807
 21
6.66431
  0
LINE
  8
0
 10
9.31807
 20
6.66431
 11
9.34383
 21
6.57698
  0
LINE
  8
0
 10
9.34383
 20
6.57698
 11
9.36826
 21
6.49561
  0
LINE
  8
0
 10
9.36826
 20
6.49561
 11
9.39064
 21
6.42209
  0
LINE
  8
0
 10
9.39064
 20
6.42209
 11
9.411
 21
6.3564
  0
LINE
  8
0
 10
9.411
 20
6.3564
 11
9.42931
 21
6.29855
  0
LINE
  8
0
 10
9.42931
 20
6.29855
 11
9.8669
 21
5.03975
  0
LINE
  8
0
 10
9.8669
 20
5.03975
 11
10.4673
 21
5.03975
  0
LINE
  8
0
 10
10.4673
 20
5.03975
 11
10.8988
 21
6.29855
  0
LINE
  8
0
 10
10.8988
 20
6.29855
 11
10.918
 21
6.35855
  0
LINE
  8
0
 10
10.918
 20
6.35855
 11
10.939
 21
6.42674
  0
LINE
  8
0
 10
10.939
 20
6.42674
 11
10.9618
 21
6.50316
  0
LINE
  8
0
 10
10.9618
 20
6.50316
 11
10.9863
 21
6.58777
  0
LINE
  8
0
 10
10.9863
 20
6.58777
 11
11.0121
 21
6.67853
  0
LINE
  8
0
 10
11.0121
 20
6.67853
 11
11.0385
 21
6.77332
  0
LINE
  8
0
 10
11.0385
 20
6.77332
 11
11.0655
 21
6.87215
  0
LINE
  8
0
 10
11.0655
 20
6.87215
 11
11.0932
 21
6.97502
  0
LINE
  8
0
 10
11.0932
 20
6.97502
 11
11.1208
 21
7.07982
  0
LINE
  8
0
 10
11.1208
 20
7.07982
 11
11.1479
 21
7.18434
  0
LINE
  8
0
 10
11.1479
 20
7.18434
 11
11.1743
 21
7.28864
  0
LINE
  8
0
 10
11.1743
 20
7.28864
 11
11.2
 21
7.39267
  0
LINE
  8
0
 10
11.2
 20
7.39267
 11
11.1978
 21
7.29366
  0
LINE
  8
0
 10
11.1978
 20
7.29366
 11
11.1954
 21
7.19269
  0
LINE
  8
0
 10
11.1954
 20
7.19269
 11
11.1928
 21
7.08974
  0
LINE
  8
0
 10
11.1928
 20
7.08974
 11
11.1898
 21
6.98483
  0
LINE
  8
0
 10
11.1898
 20
6.98483
 11
11.184
 21
6.78067
  0
LINE
  8
0
 10
11.184
 20
6.78067
 11
11.1786
 21
6.59171
  0
LINE
  8
0
 10
11.1786
 20
6.59171
 11
11.1764
 21
6.50537
  0
LINE
  8
0
 10
11.1764
 20
6.50537
 11
11.1748
 21
6.42773
  0
LINE
  8
0
 10
11.1748
 20
6.42773
 11
11.1739
 21
6.3588
  0
LINE
  8
0
 10
11.1739
 20
6.3588
 11
11.1735
 21
6.29855
  0
LINE
  8
0
 10
11.1735
 20
6.29855
 11
11.1735
 21
5.03975
  0
LINE
  8
0
 10
11.1735
 20
5.03975
 11
11.8961
 21
5.03975
  0
LINE
  8
0
 10
11.8961
 20
5.03975
 11
11.8961
 21
7.9613
  0
LINE
  8
0
 10
11.8961
 20
7.9613
 11
10.7746
 21
7.9613
  0
LINE
  8
0
 10
10.7746
 20
7.9613
 11
10.3941
 21
6.82405
  0
LINE
  8
0
 10
10.3941
 20
6.82405
 11
10.3782
 21
6.77019
  0
LINE
  8
0
 10
10.3782
 20
6.77019
 11
10.3612
 21
6.70862
  0
LINE
  8
0
 10
10.3612
 20
6.70862
 11
10.3431
 21
6.63931
  0
LINE
  8
0
 10
10.3431
 20
6.63931
 11
10.3238
 21
6.5623
  0
LINE
  8
0
 10
10.3238
 20
6.5623
 11
10.304
 21
6.47993
  0
LINE
  8
0
 10
10.304
 20
6.47993
 11
10.2841
 21
6.39464
  0
LINE
  8
0
 10
10.2841
 20
6.39464
 11
10.2643
 21
6.30641
  0
LINE
  8
0
 10
10.2643
 20
6.30641
 11
10.2444
 21
6.21523
  0
LINE
  8
0
 10
10.2444
 20
6.21523
 11
10.2249
 21
6.12326
  0
LINE
  8
0
 10
10.2249
 20
6.12326
 11
10.206
 21
6.03264
  0
LINE
  8
0
 10
10.206
 20
6.03264
 11
10.1878
 21
5.94336
  0
LINE
  8
0
 10
10.1878
 20
5.94336
 11
10.1702
 21
5.85544
  0
LINE
  8
0
 10
10.1702
 20
5.85544
 11
10.1516
 21
5.94342
  0
LINE
  8
0
 10
10.1516
 20
5.94342
 11
10.1325
 21
6.03288
  0
LINE
  8
0
 10
10.1325
 20
6.03288
 11
10.1129
 21
6.12381
  0
LINE
  8
0
 10
10.1129
 20
6.12381
 11
10.0928
 21
6.21622
  0
LINE
  8
0
 10
10.0928
 20
6.21622
 11
10.0725
 21
6.30775
  0
LINE
  8
0
 10
10.0725
 20
6.30775
 11
10.0524
 21
6.39612
  0
LINE
  8
0
 10
10.0524
 20
6.39612
 11
10.0323
 21
6.48129
  0
LINE
  8
0
 10
10.0323
 20
6.48129
 11
10.0124
 21
6.56328
  0
LINE
  8
0
 10
10.0124
 20
6.56328
 11
9.99316
 21
6.63988
  0
LINE
  8
0
 10
9.99316
 20
6.63988
 11
9.97504
 21
6.70886
  0
LINE
  8
0
 10
9.97504
 20
6.70886
 11
9.95804
 21
6.77025
  0
LINE
  8
0
 10
9.95804
 20
6.77025
 11
9.9422
 21
6.82405
  0
LINE
  8
0
 10
9.9422
 20
6.82405
 11
9.5555
 21
7.9613
  0
LINE
  8
0
 10
9.5555
 20
7.9613
 11
8.4361
 21
7.9613
  0
LINE
  8
0
 10
8.4361
 20
7.9613
 11
8.4361
 21
5.03975
  0
LINE
  8
0
 10
8.4361
 20
5.03975
 11
9.15659
 21
5.03975
  0
LINE
  8
0
 10
9.15659
 20
5.03975
 11
9.15659
 21
6.29855
  0
LINE
  8
0
 10
34.2015
 20
7.9613
 11
33.4586
 21
7.9613
  0
LINE
  8
0
 10
33.4586
 20
7.9613
 11
32.7829
 21
7.51425
  0
LINE
  8
0
 10
32.7829
 20
7.51425
 11
32.7829
 21
6.90642
  0
LINE
  8
0
 10
32.7829
 20
6.90642
 11
33.4647
 21
7.35933
  0
LINE
  8
0
 10
33.4647
 20
7.35933
 11
33.4851
 21
7.35933
  0
LINE
  8
0
 10
33.4851
 20
7.35933
 11
33.4851
 21
5.03975
  0
LINE
  8
0
 10
33.4851
 20
5.03975
 11
34.2015
 21
5.03975
  0
LINE
  8
0
 10
34.2015
 20
5.03975
 11
34.2015
 21
7.9613
  0
LINE
  8
0
 10
25.2572
 20
7.39661
 11
26.1751
 21
7.39661
  0
LINE
  8
0
 10
26.1751
 20
7.39661
 11
26.1751
 21
7.9613
  0
LINE
  8
0
 10
26.1751
 20
7.9613
 11
23.6229
 21
7.9613
  0
LINE
  8
0
 10
23.6229
 20
7.9613
 11
23.6229
 21
7.39661
  0
LINE
  8
0
 10
23.6229
 20
7.39661
 11
24.5408
 21
7.39661
  0
LINE
  8
0
 10
24.5408
 20
7.39661
 11
24.5408
 21
5.03975
  0
LINE
  8
0
 10
24.5408
 20
5.03975
 11
25.2572
 21
5.03975
  0
LINE
  8
0
 10
25.2572
 20
5.03975
 11
25.2572
 21
7.39661
  0
LINE
  8
0
 10
32.4047
 20
7.9613
 11
31.6619
 21
7.9613
  0
LINE
  8
0
 10
31.6619
 20
7.9613
 11
30.9861
 21
7.51425
  0
LINE
  8
0
 10
30.9861
 20
7.51425
 11
30.9861
 21
6.90642
  0
LINE
  8
0
 10
30.9861
 20
6.90642
 11
31.668
 21
7.35933
  0
LINE
  8
0
 10
31.668
 20
7.35933
 11
31.6883
 21
7.35933
  0
LINE
  8
0
 10
31.6883
 20
7.35933
 11
31.6883
 21
5.03975
  0
LINE
  8
0
 10
31.6883
 20
5.03975
 11
32.4047
 21
5.03975
  0
LINE
  8
0
 10
32.4047
 20
5.03975
 11
32.4047
 21
7.9613
  0
LINE
  8
0
 10
6.96176
 20
1.24901
 11
7.00339
 21
1.29529
  0
LINE
  8
0
 10
7.00339
 20
1.29529
 11
7.04254
 21
1.34233
  0
LINE
  8
0
 10
7.04254
 20
1.34233
 11
7.07925
 21
1.39024
  0
LINE
  8
0
 10
7.07925
 20
1.39024
 11
7.11354
 21
1.43918
  0
LINE
  8
0
 10
7.11354
 20
1.43918
 11
7.14543
 21
1.48924
  0
LINE
  8
0
 10
7.14543
 20
1.48924
 11
7.17496
 21
1.54056
  0
LINE
  8
0
 10
7.17496
 20
1.54056
 11
7.20215
 21
1.59328
  0
LINE
  8
0
 10
7.20215
 20
1.59328
 11
7.22701
 21
1.64749
  0
LINE
  8
0
 10
7.22701
 20
1.64749
 11
7.24957
 21
1.70335
  0
LINE
  8
0
 10
7.24957
 20
1.70335
 11
7.26987
 21
1.76099
  0
LINE
  8
0
 10
7.26987
 20
1.76099
 11
7.28792
 21
1.8205
  0
LINE
  8
0
 10
7.28792
 20
1.8205
 11
7.30376
 21
1.88203
  0
LINE
  8
0
 10
7.30376
 20
1.88203
 11
7.3174
 21
1.94571
  0
LINE
  8
0
 10
7.3174
 20
1.94571
 11
7.32887
 21
2.01166
  0
LINE
  8
0
 10
7.32887
 20
2.01166
 11
7.33821
 21
2.07999
  0
LINE
  8
0
 10
7.33821
 20
2.07999
 11
7.34543
 21
2.15085
  0
LINE
  8
0
 10
7.34543
 20
2.15085
 11
7.35054
 21
2.22437
  0
LINE
  8
0
 10
7.35054
 20
2.22437
 11
7.35361
 21
2.30064
  0
LINE
  8
0
 10
7.35361
 20
2.30064
 11
7.35461
 21
2.37982
  0
LINE
  8
0
 10
7.35461
 20
2.37982
 11
7.35461
 21
7.5899
  0
LINE
  8
0
 10
7.35461
 20
7.5899
 11
5.23697
 21
6.44705
  0
LINE
  8
0
 10
5.23697
 20
6.44705
 11
5.23697
 21
2.31259
  0
LINE
  8
0
 10
5.23697
 20
2.31259
 11
6.91763
 21
1.20335
  0
LINE
  8
0
 10
6.91763
 20
1.20335
 11
6.96176
 21
1.24901
  0
LINE
  8
0
 10
17.5612
 20
6.76328
 11
16.163
 21
6.76328
  0
LINE
  8
0
 10
16.163
 20
6.76328
 11
16.163
 21
6.23581
  0
LINE
  8
0
 10
16.163
 20
6.23581
 11
17.5612
 21
6.23581
  0
LINE
  8
0
 10
17.5612
 20
6.23581
 11
17.5612
 21
6.76328
  0
LINE
  8
0
 10
27.7476
 20
6.76328
 11
26.3494
 21
6.76328
  0
LINE
  8
0
 10
26.3494
 20
6.76328
 11
26.3494
 21
6.23581
  0
LINE
  8
0
 10
26.3494
 20
6.23581
 11
27.7476
 21
6.23581
  0
LINE
  8
0
 10
27.7476
 20
6.23581
 11
27.7476
 21
6.76328
  0
LINE
  8
0
 10
12.2097
 20
1.02522
 11
12.4482
 21
1.09431
  0
LINE
  8
0
 10
12.4482
 20
1.09431
 11
12.6548
 21
1.20947
  0
LINE
  8
0
 10
12.6548
 20
1.20947
 11
12.8294
 21
1.3707
  0
LINE
  8
0
 10
12.8294
 20
1.3707
 11
12.9682
 21
1.5732
  0
LINE
  8
0
 10
12.9682
 20
1.5732
 11
13.0674
 21
1.81215
  0
LINE
  8
0
 10
13.0674
 20
1.81215
 11
13.1269
 21
2.08755
  0
LINE
  8
0
 10
13.1269
 20
2.08755
 11
13.1467
 21
2.39944
  0
LINE
  8
0
 10
13.1467
 20
2.39944
 11
13.1377
 21
2.61188
  0
LINE
  8
0
 10
13.1377
 20
2.61188
 11
13.1108
 21
2.80841
  0
LINE
  8
0
 10
13.1108
 20
2.80841
 11
13.0659
 21
2.98907
  0
LINE
  8
0
 10
13.0659
 20
2.98907
 11
13.003
 21
3.15382
  0
LINE
  8
0
 10
13.003
 20
3.15382
 11
12.9232
 21
3.30145
  0
LINE
  8
0
 10
12.9232
 20
3.30145
 11
12.8277
 21
3.43068
  0
LINE
  8
0
 10
12.8277
 20
3.43068
 11
12.7164
 21
3.5415
  0
LINE
  8
0
 10
12.7164
 20
3.5415
 11
12.5892
 21
3.63391
  0
LINE
  8
0
 10
12.5892
 20
3.63391
 11
12.4473
 21
3.70673
  0
LINE
  8
0
 10
12.4473
 20
3.70673
 11
12.2917
 21
3.75874
  0
LINE
  8
0
 10
12.2917
 20
3.75874
 11
12.1223
 21
3.78995
  0
LINE
  8
0
 10
12.1223
 20
3.78995
 11
11.9392
 21
3.80035
  0
LINE
  8
0
 10
11.9392
 20
3.80035
 11
11.6703
 21
3.77727
  0
LINE
  8
0
 10
11.6703
 20
3.77727
 11
11.4326
 21
3.70799
  0
LINE
  8
0
 10
11.4326
 20
3.70799
 11
11.2261
 21
3.59253
  0
LINE
  8
0
 10
11.2261
 20
3.59253
 11
11.0509
 21
3.43089
  0
LINE
  8
0
 10
11.0509
 20
3.43089
 11
10.9112
 21
3.22789
  0
LINE
  8
0
 10
10.9112
 20
3.22789
 11
10.8115
 21
2.98831
  0
LINE
  8
0
 10
10.8115
 20
2.98831
 11
10.7516
 21
2.71217
  0
LINE
  8
0
 10
10.7516
 20
2.71217
 11
10.7317
 21
2.39944
  0
LINE
  8
0
 10
10.7317
 20
2.39944
 11
10.7516
 21
2.08681
  0
LINE
  8
0
 10
10.7516
 20
2.08681
 11
10.8115
 21
1.811
  0
LINE
  8
0
 10
10.8115
 20
1.811
 11
10.9112
 21
1.57199
  0
LINE
  8
0
 10
10.9112
 20
1.57199
 11
11.0509
 21
1.36978
  0
LINE
  8
0
 10
11.0509
 20
1.36978
 11
11.2261
 21
1.20895
  0
LINE
  8
0
 10
11.2261
 20
1.20895
 11
11.4326
 21
1.09409
  0
LINE
  8
0
 10
11.4326
 20
1.09409
 11
11.6703
 21
1.02516
  0
LINE
  8
0
 10
11.6703
 20
1.02516
 11
11.9392
 21
1.0022
  0
LINE
  8
0
 10
11.9392
 20
1.0022
 11
12.2097
 21
1.02522
  0
LINE
  8
0
 10
11.8239
 20
1.54478
 11
11.7229
 21
1.58696
  0
LINE
  8
0
 10
11.7229
 20
1.58696
 11
11.6363
 21
1.65726
  0
LINE
  8
0
 10
11.6363
 20
1.65726
 11
11.564
 21
1.75566
  0
LINE
  8
0
 10
11.564
 20
1.75566
 11
11.507
 21
1.88026
  0
LINE
  8
0
 10
11.507
 20
1.88026
 11
11.4663
 21
2.02908
  0
LINE
  8
0
 10
11.4663
 20
2.02908
 11
11.4419
 21
2.20215
  0
LINE
  8
0
 10
11.4419
 20
2.20215
 11
11.4338
 21
2.39944
  0
LINE
  8
0
 10
11.4338
 20
2.39944
 11
11.442
 21
2.5977
  0
LINE
  8
0
 10
11.442
 20
2.5977
 11
11.4666
 21
2.77184
  0
LINE
  8
0
 10
11.4666
 20
2.77184
 11
11.5076
 21
2.92186
  0
LINE
  8
0
 10
11.5076
 20
2.92186
 11
11.5649
 21
3.04778
  0
LINE
  8
0
 10
11.5649
 20
3.04778
 11
11.6375
 21
3.14738
  0
LINE
  8
0
 10
11.6375
 20
3.14738
 11
11.7241
 21
3.21854
  0
LINE
  8
0
 10
11.7241
 20
3.21854
 11
11.8246
 21
3.26123
  0
LINE
  8
0
 10
11.8246
 20
3.26123
 11
11.9392
 21
3.27545
  0
LINE
  8
0
 10
11.9392
 20
3.27545
 11
12.0546
 21
3.26123
  0
LINE
  8
0
 10
12.0546
 20
3.26123
 11
12.1557
 21
3.21854
  0
LINE
  8
0
 10
12.1557
 20
3.21854
 11
12.2426
 21
3.14738
  0
LINE
  8
0
 10
12.2426
 20
3.14738
 11
12.3153
 21
3.04778
  0
LINE
  8
0
 10
12.3153
 20
3.04778
 11
12.3727
 21
2.92186
  0
LINE
  8
0
 10
12.3727
 20
2.92186
 11
12.4137
 21
2.77184
  0
LINE
  8
0
 10
12.4137
 20
2.77184
 11
12.4383
 21
2.5977
  0
LINE
  8
0
 10
12.4383
 20
2.5977
 11
12.4465
 21
2.39944
  0
LINE
  8
0
 10
12.4465
 20
2.39944
 11
12.4383
 21
2.20215
  0
LINE
  8
0
 10
12.4383
 20
2.20215
 11
12.4137
 21
2.02908
  0
LINE
  8
0
 10
12.4137
 20
2.02908
 11
12.3727
 21
1.88026
  0
LINE
  8
0
 10
12.3727
 20
1.88026
 11
12.3153
 21
1.75566
  0
LINE
  8
0
 10
12.3153
 20
1.75566
 11
12.2426
 21
1.65726
  0
LINE
  8
0
 10
12.2426
 20
1.65726
 11
12.1557
 21
1.58696
  0
LINE
  8
0
 10
12.1557
 20
1.58696
 11
12.0546
 21
1.54478
  0
LINE
  8
0
 10
12.0546
 20
1.54478
 11
11.9392
 21
1.53073
  0
LINE
  8
0
 10
11.9392
 20
1.53073
 11
11.8239
 21
1.54478
  0
LINE
  8
0
 10
15.8548
 20
1.0087
 11
16.0081
 21
1.02824
  0
LINE
  8
0
 10
16.0081
 20
1.02824
 11
16.1518
 21
1.06082
  0
LINE
  8
0
 10
16.1518
 20
1.06082
 11
16.2859
 21
1.10641
  0
LINE
  8
0
 10
16.2859
 20
1.10641
 11
16.4081
 21
1.16341
  0
LINE
  8
0
 10
16.4081
 20
1.16341
 11
16.5161
 21
1.2301
  0
LINE
  8
0
 10
16.5161
 20
1.2301
 11
16.6101
 21
1.3065
  0
LINE
  8
0
 10
16.6101
 20
1.3065
 11
16.69
 21
1.39262
  0
LINE
  8
0
 10
16.69
 20
1.39262
 11
16.7537
 21
1.48698
  0
LINE
  8
0
 10
16.7537
 20
1.48698
 11
16.7992
 21
1.58809
  0
LINE
  8
0
 10
16.7992
 20
1.58809
 11
16.8265
 21
1.69595
  0
LINE
  8
0
 10
16.8265
 20
1.69595
 11
16.8356
 21
1.81055
  0
LINE
  8
0
 10
16.8356
 20
1.81055
 11
16.8251
 21
1.93147
  0
LINE
  8
0
 10
16.8251
 20
1.93147
 11
16.7934
 21
2.04189
  0
LINE
  8
0
 10
16.7934
 20
2.04189
 11
16.7407
 21
2.14178
  0
LINE
  8
0
 10
16.7407
 20
2.14178
 11
16.6668
 21
2.23116
  0
LINE
  8
0
 10
16.6668
 20
2.23116
 11
16.5724
 21
2.30717
  0
LINE
  8
0
 10
16.5724
 20
2.30717
 11
16.4578
 21
2.36697
  0
LINE
  8
0
 10
16.4578
 20
2.36697
 11
16.323
 21
2.41052
  0
LINE
  8
0
 10
16.323
 20
2.41052
 11
16.1682
 21
2.43784
  0
LINE
  8
0
 10
16.1682
 20
2.43784
 11
16.1682
 21
2.45796
  0
LINE
  8
0
 10
16.1682
 20
2.45796
 11
16.2869
 21
2.48253
  0
LINE
  8
0
 10
16.2869
 20
2.48253
 11
16.3941
 21
2.5215
  0
LINE
  8
0
 10
16.3941
 20
2.5215
 11
16.4899
 21
2.57487
  0
LINE
  8
0
 10
16.4899
 20
2.57487
 11
16.5742
 21
2.64265
  0
LINE
  8
0
 10
16.5742
 20
2.64265
 11
16.643
 21
2.72256
  0
LINE
  8
0
 10
16.643
 20
2.72256
 11
16.6921
 21
2.81229
  0
LINE
  8
0
 10
16.6921
 20
2.81229
 11
16.7216
 21
2.91187
  0
LINE
  8
0
 10
16.7216
 20
2.91187
 11
16.7314
 21
3.02126
  0
LINE
  8
0
 10
16.7314
 20
3.02126
 11
16.7233
 21
3.12909
  0
LINE
  8
0
 10
16.7233
 20
3.12909
 11
16.6989
 21
3.23134
  0
LINE
  8
0
 10
16.6989
 20
3.23134
 11
16.6582
 21
3.32797
  0
LINE
  8
0
 10
16.6582
 20
3.32797
 11
16.6012
 21
3.41901
  0
LINE
  8
0
 10
16.6012
 20
3.41901
 11
16.5298
 21
3.50262
  0
LINE
  8
0
 10
16.5298
 20
3.50262
 11
16.4455
 21
3.57698
  0
LINE
  8
0
 10
16.4455
 20
3.57698
 11
16.3484
 21
3.64209
  0
LINE
  8
0
 10
16.3484
 20
3.64209
 11
16.2386
 21
3.69794
  0
LINE
  8
0
 10
16.2386
 20
3.69794
 11
16.1179
 21
3.74274
  0
LINE
  8
0
 10
16.1179
 20
3.74274
 11
15.9881
 21
3.77475
  0
LINE
  8
0
 10
15.9881
 20
3.77475
 11
15.8493
 21
3.79395
  0
LINE
  8
0
 10
15.8493
 20
3.79395
 11
15.7014
 21
3.80035
  0
LINE
  8
0
 10
15.7014
 20
3.80035
 11
15.5512
 21
3.79378
  0
LINE
  8
0
 10
15.5512
 20
3.79378
 11
15.4094
 21
3.77406
  0
LINE
  8
0
 10
15.4094
 20
3.77406
 11
15.2759
 21
3.7412
  0
LINE
  8
0
 10
15.2759
 20
3.7412
 11
15.1507
 21
3.69518
  0
LINE
  8
0
 10
15.1507
 20
3.69518
 11
15.036
 21
3.63763
  0
LINE
  8
0
 10
15.036
 20
3.63763
 11
14.9342
 21
3.57014
  0
LINE
  8
0
 10
14.9342
 20
3.57014
 11
14.845
 21
3.49269
  0
LINE
  8
0
 10
14.845
 20
3.49269
 11
14.7687
 21
3.4053
  0
LINE
  8
0
 10
14.7687
 20
3.4053
 11
14.7074
 21
3.3094
  0
LINE
  8
0
 10
14.7074
 20
3.3094
 11
14.6634
 21
3.20642
  0
LINE
  8
0
 10
14.6634
 20
3.20642
 11
14.6366
 21
3.09636
  0
LINE
  8
0
 10
14.6366
 20
3.09636
 11
14.627
 21
2.97919
  0
LINE
  8
0
 10
14.627
 20
2.97919
 11
15.2809
 21
2.97919
  0
LINE
  8
0
 10
15.2809
 20
2.97919
 11
15.2893
 21
3.04697
  0
LINE
  8
0
 10
15.2893
 20
3.04697
 11
15.3125
 21
3.10765
  0
LINE
  8
0
 10
15.3125
 20
3.10765
 11
15.3505
 21
3.16125
  0
LINE
  8
0
 10
15.3505
 20
3.16125
 11
15.4033
 21
3.20776
  0
LINE
  8
0
 10
15.4033
 20
3.20776
 11
15.4671
 21
3.24538
  0
LINE
  8
0
 10
15.4671
 20
3.24538
 11
15.5377
 21
3.27225
  0
LINE
  8
0
 10
15.5377
 20
3.27225
 11
15.6151
 21
3.28836
  0
LINE
  8
0
 10
15.6151
 20
3.28836
 11
15.6995
 21
3.29373
  0
LINE
  8
0
 10
15.6995
 20
3.29373
 11
15.7785
 21
3.28831
  0
LINE
  8
0
 10
15.7785
 20
3.28831
 11
15.8499
 21
3.27202
  0
LINE
  8
0
 10
15.8499
 20
3.27202
 11
15.9136
 21
3.24487
  0
LINE
  8
0
 10
15.9136
 20
3.24487
 11
15.9695
 21
3.20688
  0
LINE
  8
0
 10
15.9695
 20
3.20688
 11
16.0151
 21
3.16019
  0
LINE
  8
0
 10
16.0151
 20
3.16019
 11
16.0476
 21
3.10698
  0
LINE
  8
0
 10
16.0476
 20
3.10698
 11
16.0672
 21
3.04726
  0
LINE
  8
0
 10
16.0672
 20
3.04726
 11
16.0737
 21
2.98102
  0
LINE
  8
0
 10
16.0737
 20
2.98102
 11
16.0661
 21
2.91216
  0
LINE
  8
0
 10
16.0661
 20
2.91216
 11
16.0433
 21
2.85002
  0
LINE
  8
0
 10
16.0433
 20
2.85002
 11
16.0053
 21
2.79463
  0
LINE
  8
0
 10
16.0053
 20
2.79463
 11
15.9521
 21
2.746
  0
LINE
  8
0
 10
15.9521
 20
2.746
 11
15.887
 21
2.70639
  0
LINE
  8
0
 10
15.887
 20
2.70639
 11
15.8132
 21
2.6781
  0
LINE
  8
0
 10
15.8132
 20
2.6781
 11
15.7308
 21
2.66113
  0
LINE
  8
0
 10
15.7308
 20
2.66113
 11
15.6396
 21
2.65547
  0
LINE
  8
0
 10
15.6396
 20
2.65547
 11
15.36
 21
2.65547
  0
LINE
  8
0
 10
15.36
 20
2.65547
 11
15.36
 21
2.1946
  0
LINE
  8
0
 10
15.36
 20
2.1946
 11
15.6396
 21
2.1946
  0
LINE
  8
0
 10
15.6396
 20
2.1946
 11
15.7441
 21
2.18877
  0
LINE
  8
0
 10
15.7441
 20
2.18877
 11
15.8374
 21
2.17126
  0
LINE
  8
0
 10
15.8374
 20
2.17126
 11
15.9196
 21
2.14212
  0
LINE
  8
0
 10
15.9196
 20
2.14212
 11
15.9907
 21
2.10132
  0
LINE
  8
0
 10
15.9907
 20
2.10132
 11
16.0481
 21
2.05125
  0
LINE
  8
0
 10
16.0481
 20
2.05125
 11
16.0891
 21
1.99434
  0
LINE
  8
0
 10
16.0891
 20
1.99434
 11
16.1137
 21
1.93056
  0
LINE
  8
0
 10
16.1137
 20
1.93056
 11
16.1219
 21
1.85992
  0
LINE
  8
0
 10
16.1219
 20
1.85992
 11
16.1145
 21
1.7894
  0
LINE
  8
0
 10
16.1145
 20
1.7894
 11
16.0922
 21
1.72595
  0
LINE
  8
0
 10
16.0922
 20
1.72595
 11
16.0552
 21
1.6696
  0
LINE
  8
0
 10
16.0552
 20
1.6696
 11
16.0033
 21
1.62035
  0
LINE
  8
0
 10
16.0033
 20
1.62035
 11
15.9397
 21
1.58034
  0
LINE
  8
0
 10
15.9397
 20
1.58034
 11
15.8675
 21
1.55176
  0
LINE
  8
0
 10
15.8675
 20
1.55176
 11
15.7868
 21
1.53461
  0
LINE
  8
0
 10
15.7868
 20
1.53461
 11
15.6975
 21
1.5289
  0
LINE
  8
0
 10
15.6975
 20
1.5289
 11
15.607
 21
1.53415
  0
LINE
  8
0
 10
15.607
 20
1.53415
 11
15.5244
 21
1.54993
  0
LINE
  8
0
 10
15.5244
 20
1.54993
 11
15.4498
 21
1.5762
  0
LINE
  8
0
 10
15.4498
 20
1.5762
 11
15.3831
 21
1.61301
  0
LINE
  8
0
 10
15.3831
 20
1.61301
 11
15.328
 21
1.65839
  0
LINE
  8
0
 10
15.328
 20
1.65839
 11
15.2881
 21
1.7104
  0
LINE
  8
0
 10
15.2881
 20
1.7104
 11
15.2634
 21
1.76904
  0
LINE
  8
0
 10
15.2634
 20
1.76904
 11
15.2539
 21
1.8343
  0
LINE
  8
0
 10
15.2539
 20
1.8343
 11
14.571
 21
1.8343
  0
LINE
  8
0
 10
14.571
 20
1.8343
 11
14.5809
 21
1.71538
  0
LINE
  8
0
 10
14.5809
 20
1.71538
 11
14.6086
 21
1.60364
  0
LINE
  8
0
 10
14.6086
 20
1.60364
 11
14.6542
 21
1.4991
  0
LINE
  8
0
 10
14.6542
 20
1.4991
 11
14.7176
 21
1.40176
  0
LINE
  8
0
 10
14.7176
 20
1.40176
 11
14.7966
 21
1.31313
  0
LINE
  8
0
 10
14.7966
 20
1.31313
 11
14.8891
 21
1.23466
  0
LINE
  8
0
 10
14.8891
 20
1.23466
 11
14.9948
 21
1.16637
  0
LINE
  8
0
 10
14.9948
 20
1.16637
 11
15.114
 21
1.10825
  0
LINE
  8
0
 10
15.114
 20
1.10825
 11
15.2445
 21
1.06184
  0
LINE
  8
0
 10
15.2445
 20
1.06184
 11
15.3843
 21
1.0287
  0
LINE
  8
0
 10
15.3843
 20
1.0287
 11
15.5334
 21
1.00882
  0
LINE
  8
0
 10
15.5334
 20
1.00882
 11
15.6918
 21
1.0022
  0
LINE
  8
0
 10
15.6918
 20
1.0022
 11
15.8548
 21
1.0087
  0
LINE
  8
0
 10
19.7353
 20
1.02522
 11
19.9738
 21
1.09431
  0
LINE
  8
0
 10
19.9738
 20
1.09431
 11
20.1804
 21
1.20947
  0
LINE
  8
0
 10
20.1804
 20
1.20947
 11
20.355
 21
1.3707
  0
LINE
  8
0
 10
20.355
 20
1.3707
 11
20.4938
 21
1.5732
  0
LINE
  8
0
 10
20.4938
 20
1.5732
 11
20.593
 21
1.81215
  0
LINE
  8
0
 10
20.593
 20
1.81215
 11
20.6525
 21
2.08755
  0
LINE
  8
0
 10
20.6525
 20
2.08755
 11
20.6723
 21
2.39944
  0
LINE
  8
0
 10
20.6723
 20
2.39944
 11
20.6633
 21
2.61188
  0
LINE
  8
0
 10
20.6633
 20
2.61188
 11
20.6364
 21
2.80841
  0
LINE
  8
0
 10
20.6364
 20
2.80841
 11
20.5915
 21
2.98907
  0
LINE
  8
0
 10
20.5915
 20
2.98907
 11
20.5286
 21
3.15382
  0
LINE
  8
0
 10
20.5286
 20
3.15382
 11
20.4488
 21
3.30145
  0
LINE
  8
0
 10
20.4488
 20
3.30145
 11
20.3533
 21
3.43068
  0
LINE
  8
0
 10
20.3533
 20
3.43068
 11
20.242
 21
3.5415
  0
LINE
  8
0
 10
20.242
 20
3.5415
 11
20.1148
 21
3.63391
  0
LINE
  8
0
 10
20.1148
 20
3.63391
 11
19.9729
 21
3.70673
  0
LINE
  8
0
 10
19.9729
 20
3.70673
 11
19.8173
 21
3.75874
  0
LINE
  8
0
 10
19.8173
 20
3.75874
 11
19.6479
 21
3.78995
  0
LINE
  8
0
 10
19.6479
 20
3.78995
 11
19.4648
 21
3.80035
  0
LINE
  8
0
 10
19.4648
 20
3.80035
 11
19.1959
 21
3.77727
  0
LINE
  8
0
 10
19.1959
 20
3.77727
 11
18.9582
 21
3.70799
  0
LINE
  8
0
 10
18.9582
 20
3.70799
 11
18.7517
 21
3.59253
  0
LINE
  8
0
 10
18.7517
 20
3.59253
 11
18.5765
 21
3.43089
  0
LINE
  8
0
 10
18.5765
 20
3.43089
 11
18.4368
 21
3.22789
  0
LINE
  8
0
 10
18.4368
 20
3.22789
 11
18.3371
 21
2.98831
  0
LINE
  8
0
 10
18.3371
 20
2.98831
 11
18.2772
 21
2.71217
  0
LINE
  8
0
 10
18.2772
 20
2.71217
 11
18.2573
 21
2.39944
  0
LINE
  8
0
 10
18.2573
 20
2.39944
 11
18.2772
 21
2.08681
  0
LINE
  8
0
 10
18.2772
 20
2.08681
 11
18.3371
 21
1.811
  0
LINE
  8
0
 10
18.3371
 20
1.811
 11
18.4368
 21
1.57199
  0
LINE
  8
0
 10
18.4368
 20
1.57199
 11
18.5765
 21
1.36978
  0
LINE
  8
0
 10
18.5765
 20
1.36978
 11
18.7517
 21
1.20895
  0
LINE
  8
0
 10
18.7517
 20
1.20895
 11
18.9582
 21
1.09409
  0
LINE
  8
0
 10
18.9582
 20
1.09409
 11
19.1959
 21
1.02516
  0
LINE
  8
0
 10
19.1959
 20
1.02516
 11
19.4648
 21
1.0022
  0
LINE
  8
0
 10
19.4648
 20
1.0022
 11
19.7353
 21
1.02522
  0
LINE
  8
0
 10
19.3495
 20
1.54478
 11
19.2485
 21
1.58696
  0
LINE
  8
0
 10
19.2485
 20
1.58696
 11
19.1619
 21
1.65726
  0
LINE
  8
0
 10
19.1619
 20
1.65726
 11
19.0896
 21
1.75566
  0
LINE
  8
0
 10
19.0896
 20
1.75566
 11
19.0326
 21
1.88026
  0
LINE
  8
0
 10
19.0326
 20
1.88026
 11
18.9919
 21
2.02908
  0
LINE
  8
0
 10
18.9919
 20
2.02908
 11
18.9675
 21
2.20215
  0
LINE
  8
0
 10
18.9675
 20
2.20215
 11
18.9594
 21
2.39944
  0
LINE
  8
0
 10
18.9594
 20
2.39944
 11
18.9676
 21
2.5977
  0
LINE
  8
0
 10
18.9676
 20
2.5977
 11
18.9922
 21
2.77184
  0
LINE
  8
0
 10
18.9922
 20
2.77184
 11
19.0332
 21
2.92186
  0
LINE
  8
0
 10
19.0332
 20
2.92186
 11
19.0905
 21
3.04778
  0
LINE
  8
0
 10
19.0905
 20
3.04778
 11
19.1631
 21
3.14738
  0
LINE
  8
0
 10
19.1631
 20
3.14738
 11
19.2497
 21
3.21854
  0
LINE
  8
0
 10
19.2497
 20
3.21854
 11
19.3503
 21
3.26123
  0
LINE
  8
0
 10
19.3503
 20
3.26123
 11
19.4648
 21
3.27545
  0
LINE
  8
0
 10
19.4648
 20
3.27545
 11
19.5802
 21
3.26123
  0
LINE
  8
0
 10
19.5802
 20
3.26123
 11
19.6813
 21
3.21854
  0
LINE
  8
0
 10
19.6813
 20
3.21854
 11
19.7682
 21
3.14738
  0
LINE
  8
0
 10
19.7682
 20
3.14738
 11
19.8409
 21
3.04778
  0
LINE
  8
0
 10
19.8409
 20
3.04778
 11
19.8983
 21
2.92186
  0
LINE
  8
0
 10
19.8983
 20
2.92186
 11
19.9393
 21
2.77184
  0
LINE
  8
0
 10
19.9393
 20
2.77184
 11
19.9639
 21
2.5977
  0
LINE
  8
0
 10
19.9639
 20
2.5977
 11
19.9721
 21
2.39944
  0
LINE
  8
0
 10
19.9721
 20
2.39944
 11
19.9639
 21
2.20215
  0
LINE
  8
0
 10
19.9639
 20
2.20215
 11
19.9393
 21
2.02908
  0
LINE
  8
0
 10
19.9393
 20
2.02908
 11
19.8983
 21
1.88026
  0
LINE
  8
0
 10
19.8983
 20
1.88026
 11
19.8409
 21
1.75566
  0
LINE
  8
0
 10
19.8409
 20
1.75566
 11
19.7682
 21
1.65726
  0
LINE
  8
0
 10
19.7682
 20
1.65726
 11
19.6813
 21
1.58696
  0
LINE
  8
0
 10
19.6813
 20
1.58696
 11
19.5802
 21
1.54478
  0
LINE
  8
0
 10
19.5802
 20
1.54478
 11
19.4648
 21
1.53073
  0
LINE
  8
0
 10
19.4648
 20
1.53073
 11
19.3495
 21
1.54478
  0
LINE
  8
0
 10
10.588
 20
3.08342
 11
9.88589
 21
3.08342
  0
LINE
  8
0
 10
9.88589
 20
3.08342
 11
9.56953
 21
2.08302
  0
LINE
  8
0
 10
9.56953
 20
2.08302
 11
9.54796
 21
2.01347
  0
LINE
  8
0
 10
9.54796
 20
2.01347
 11
9.52759
 21
1.9438
  0
LINE
  8
0
 10
9.52759
 20
1.9438
 11
9.50841
 21
1.87402
  0
LINE
  8
0
 10
9.50841
 20
1.87402
 11
9.49045
 21
1.80412
  0
LINE
  8
0
 10
9.49045
 20
1.80412
 11
9.47333
 21
1.73366
  0
LINE
  8
0
 10
9.47333
 20
1.73366
 11
9.4567
 21
1.66216
  0
LINE
  8
0
 10
9.4567
 20
1.66216
 11
9.44055
 21
1.58965
  0
LINE
  8
0
 10
9.44055
 20
1.58965
 11
9.42488
 21
1.51608
  0
LINE
  8
0
 10
9.42488
 20
1.51608
 11
9.40746
 21
1.58969
  0
LINE
  8
0
 10
9.40746
 20
1.58969
 11
9.38991
 21
1.66238
  0
LINE
  8
0
 10
9.38991
 20
1.66238
 11
9.37224
 21
1.73418
  0
LINE
  8
0
 10
9.37224
 20
1.73418
 11
9.35445
 21
1.80504
  0
LINE
  8
0
 10
9.35445
 20
1.80504
 11
9.33607
 21
1.87523
  0
LINE
  8
0
 10
9.33607
 20
1.87523
 11
9.3166
 21
1.94495
  0
LINE
  8
0
 10
9.3166
 20
1.94495
 11
9.29605
 21
2.01422
  0
LINE
  8
0
 10
9.29605
 20
2.01422
 11
9.27441
 21
2.08302
  0
LINE
  8
0
 10
9.27441
 20
2.08302
 11
8.95229
 21
3.08342
  0
LINE
  8
0
 10
8.95229
 20
3.08342
 11
8.24243
 21
3.08342
  0
LINE
  8
0
 10
8.24243
 20
3.08342
 11
9.02365
 21
1.03876
  0
LINE
  8
0
 10
9.02365
 20
1.03876
 11
9.80295
 21
1.03876
  0
LINE
  8
0
 10
9.80295
 20
1.03876
 11
10.588
 21
3.08342
  0
LINE
  8
0
 10
5.6331
 20
0.800262
 11
5.69215
 21
0.801132
  0
LINE
  8
0
 10
5.69215
 20
0.801132
 11
5.75031
 21
0.802719
  0
LINE
  8
0
 10
5.75031
 20
0.802719
 11
5.80759
 21
0.805099
  0
LINE
  8
0
 10
5.80759
 20
0.805099
 11
5.86407
 21
0.808395
  0
LINE
  8
0
 10
5.86407
 20
0.808395
 11
5.91978
 21
0.812698
  0
LINE
  8
0
 10
5.91978
 20
0.812698
 11
5.97481
 21
0.818115
  0
LINE
  8
0
 10
5.97481
 20
0.818115
 11
6.02917
 21
0.824738
  0
LINE
  8
0
 10
6.02917
 20
0.824738
 11
6.08293
 21
0.832657
  0
LINE
  8
0
 10
6.08293
 20
0.832657
 11
6.13612
 21
0.84201
  0
LINE
  8
0
 10
6.13612
 20
0.84201
 11
6.18883
 21
0.852859
  0
LINE
  8
0
 10
6.18883
 20
0.852859
 11
6.24107
 21
0.865341
  0
LINE
  8
0
 10
6.24107
 20
0.865341
 11
6.29291
 21
0.879517
  0
LINE
  8
0
 10
6.29291
 20
0.879517
 11
6.34439
 21
0.895523
  0
LINE
  8
0
 10
6.34439
 20
0.895523
 11
6.39558
 21
0.913437
  0
LINE
  8
0
 10
6.39558
 20
0.913437
 11
6.44652
 21
0.933365
  0
LINE
  8
0
 10
6.44652
 20
0.933365
 11
6.49724
 21
0.955414
  0
LINE
  8
0
 10
6.49724
 20
0.955414
 11
6.54782
 21
0.979691
  0
LINE
  8
0
 10
6.54782
 20
0.979691
 11
6.5983
 21
1.00627
  0
LINE
  8
0
 10
6.5983
 20
1.00627
 11
6.64873
 21
1.03529
  0
LINE
  8
0
 10
6.64873
 20
1.03529
 11
3.89243
 21
2.61511
  0
LINE
  8
0
 10
3.89243
 20
2.61511
 11
1.40503
 21
1.06889
  0
LINE
  8
0
 10
1.40503
 20
1.06889
 11
1.43604
 21
1.0442
  0
LINE
  8
0
 10
1.43604
 20
1.0442
 11
1.46854
 21
1.02052
  0
LINE
  8
0
 10
1.46854
 20
1.02052
 11
1.50249
 21
0.997925
  0
LINE
  8
0
 10
1.50249
 20
0.997925
 11
1.53787
 21
0.976395
  0
LINE
  8
0
 10
1.53787
 20
0.976395
 11
1.57468
 21
0.955978
  0
LINE
  8
0
 10
1.57468
 20
0.955978
 11
1.61287
 21
0.936691
  0
LINE
  8
0
 10
1.61287
 20
0.936691
 11
1.65242
 21
0.918579
  0
LINE
  8
0
 10
1.65242
 20
0.918579
 11
1.6933
 21
0.901642
  0
LINE
  8
0
 10
1.6933
 20
0.901642
 11
1.7355
 21
0.88591
  0
LINE
  8
0
 10
1.7355
 20
0.88591
 11
1.77898
 21
0.871414
  0
LINE
  8
0
 10
1.77898
 20
0.871414
 11
1.82373
 21
0.858185
  0
LINE
  8
0
 10
1.82373
 20
0.858185
 11
1.86971
 21
0.846237
  0
LINE
  8
0
 10
1.86971
 20
0.846237
 11
1.9169
 21
0.835617
  0
LINE
  8
0
 10
1.9169
 20
0.835617
 11
1.96527
 21
0.826309
  0
LINE
  8
0
 10
1.96527
 20
0.826309
 11
2.0148
 21
0.818375
  0
LINE
  8
0
 10
2.0148
 20
0.818375
 11
2.06548
 21
0.811829
  0
LINE
  8
0
 10
2.06548
 20
0.811829
 11
2.11725
 21
0.806686
  0
LINE
  8
0
 10
2.11725
 20
0.806686
 11
2.1701
 21
0.802979
  0
LINE
  8
0
 10
2.1701
 20
0.802979
 11
2.22403
 21
0.800751
  0
LINE
  8
0
 10
2.22403
 20
0.800751
 11
2.27898
 21
0.799988
  0
LINE
  8
0
 10
2.27898
 20
0.799988
 11
5.5731
 21
0.799988
  0
LINE
  8
0
 10
5.5731
 20
0.799988
 11
5.6331
 21
0.800262
  0
LINE
  8
0
 10
13.8945
 20
1.00647
 11
13.9625
 21
1.02481
  0
LINE
  8
0
 10
13.9625
 20
1.02481
 11
14.0242
 21
1.05539
  0
LINE
  8
0
 10
14.0242
 20
1.05539
 11
14.0799
 21
1.09819
  0
LINE
  8
0
 10
14.0799
 20
1.09819
 11
14.1259
 21
1.15002
  0
LINE
  8
0
 10
14.1259
 20
1.15002
 11
14.1587
 21
1.20769
  0
LINE
  8
0
 10
14.1587
 20
1.20769
 11
14.1784
 21
1.27119
  0
LINE
  8
0
 10
14.1784
 20
1.27119
 11
14.185
 21
1.34053
  0
LINE
  8
0
 10
14.185
 20
1.34053
 11
14.1784
 21
1.41064
  0
LINE
  8
0
 10
14.1784
 20
1.41064
 11
14.1587
 21
1.4747
  0
LINE
  8
0
 10
14.1587
 20
1.4747
 11
14.1259
 21
1.53271
  0
LINE
  8
0
 10
14.1259
 20
1.53271
 11
14.0799
 21
1.58467
  0
LINE
  8
0
 10
14.0799
 20
1.58467
 11
14.0242
 21
1.62749
  0
LINE
  8
0
 10
14.0242
 20
1.62749
 11
13.9625
 21
1.65807
  0
LINE
  8
0
 10
13.9625
 20
1.65807
 11
13.8945
 21
1.67641
  0
LINE
  8
0
 10
13.8945
 20
1.67641
 11
13.8204
 21
1.68253
  0
LINE
  8
0
 10
13.8204
 20
1.68253
 11
13.7464
 21
1.67641
  0
LINE
  8
0
 10
13.7464
 20
1.67641
 11
13.6784
 21
1.65807
  0
LINE
  8
0
 10
13.6784
 20
1.65807
 11
13.6167
 21
1.62749
  0
LINE
  8
0
 10
13.6167
 20
1.62749
 11
13.561
 21
1.58467
  0
LINE
  8
0
 10
13.561
 20
1.58467
 11
13.515
 21
1.53271
  0
LINE
  8
0
 10
13.515
 20
1.53271
 11
13.4822
 21
1.4747
  0
LINE
  8
0
 10
13.4822
 20
1.4747
 11
13.4625
 21
1.41064
  0
LINE
  8
0
 10
13.4625
 20
1.41064
 11
13.4559
 21
1.34053
  0
LINE
  8
0
 10
13.4559
 20
1.34053
 11
13.4625
 21
1.27119
  0
LINE
  8
0
 10
13.4625
 20
1.27119
 11
13.4822
 21
1.20769
  0
LINE
  8
0
 10
13.4822
 20
1.20769
 11
13.515
 21
1.15002
  0
LINE
  8
0
 10
13.515
 20
1.15002
 11
13.561
 21
1.09819
  0
LINE
  8
0
 10
13.561
 20
1.09819
 11
13.6167
 21
1.05539
  0
LINE
  8
0
 10
13.6167
 20
1.05539
 11
13.6784
 21
1.02481
  0
LINE
  8
0
 10
13.6784
 20
1.02481
 11
13.7464
 21
1.00647
  0
LINE
  8
0
 10
13.7464
 20
1.00647
 11
13.8204
 21
1.00035
  0
LINE
  8
0
 10
13.8204
 20
1.00035
 11
13.8945
 21
1.00647
  0
LINE
  8
0
 10
17.6281
 20
1.00647
 11
17.696
 21
1.02481
  0
LINE
  8
0
 10
17.696
 20
1.02481
 11
17.7578
 21
1.05539
  0
LINE
  8
0
 10
17.7578
 20
1.05539
 11
17.8135
 21
1.09819
  0
LINE
  8
0
 10
17.8135
 20
1.09819
 11
17.8595
 21
1.15002
  0
LINE
  8
0
 10
17.8595
 20
1.15002
 11
17.8923
 21
1.20769
  0
LINE
  8
0
 10
17.8923
 20
1.20769
 11
17.912
 21
1.27119
  0
LINE
  8
0
 10
17.912
 20
1.27119
 11
17.9186
 21
1.34053
  0
LINE
  8
0
 10
17.9186
 20
1.34053
 11
17.912
 21
1.41064
  0
LINE
  8
0
 10
17.912
 20
1.41064
 11
17.8923
 21
1.4747
  0
LINE
  8
0
 10
17.8923
 20
1.4747
 11
17.8595
 21
1.53271
  0
LINE
  8
0
 10
17.8595
 20
1.53271
 11
17.8135
 21
1.58467
  0
LINE
  8
0
 10
17.8135
 20
1.58467
 11
17.7578
 21
1.62749
  0
LINE
  8
0
 10
17.7578
 20
1.62749
 11
17.696
 21
1.65807
  0
LINE
  8
0
 10
17.696
 20
1.65807
 11
17.6281
 21
1.67641
  0
LINE
  8
0
 10
17.6281
 20
1.67641
 11
17.554
 21
1.68253
  0
LINE
  8
0
 10
17.554
 20
1.68253
 11
17.48
 21
1.67641
  0
LINE
  8
0
 10
17.48
 20
1.67641
 11
17.412
 21
1.65807
  0
LINE
  8
0
 10
17.412
 20
1.65807
 11
17.3503
 21
1.62749
  0
LINE
  8
0
 10
17.3503
 20
1.62749
 11
17.2946
 21
1.58467
  0
LINE
  8
0
 10
17.2946
 20
1.58467
 11
17.2486
 21
1.53271
  0
LINE
  8
0
 10
17.2486
 20
1.53271
 11
17.2158
 21
1.4747
  0
LINE
  8
0
 10
17.2158
 20
1.4747
 11
17.196
 21
1.41064
  0
LINE
  8
0
 10
17.196
 20
1.41064
 11
17.1895
 21
1.34053
  0
LINE
  8
0
 10
17.1895
 20
1.34053
 11
17.196
 21
1.27119
  0
LINE
  8
0
 10
17.196
 20
1.27119
 11
17.2158
 21
1.20769
  0
LINE
  8
0
 10
17.2158
 20
1.20769
 11
17.2486
 21
1.15002
  0
LINE
  8
0
 10
17.2486
 20
1.15002
 11
17.2946
 21
1.09819
  0
LINE
  8
0
 10
17.2946
 20
1.09819
 11
17.3503
 21
1.05539
  0
LINE
  8
0
 10
17.3503
 20
1.05539
 11
17.412
 21
1.02481
  0
LINE
  8
0
 10
17.412
 20
1.02481
 11
17.48
 21
1.00647
  0
LINE
  8
0
 10
17.48
 20
1.00647
 11
17.554
 21
1.00035
  0
LINE
  8
0
 10
17.554
 20
1.00035
 11
17.6281
 21
1.00647
  0
ENDSEC
  0
SECTION
  2
OBJECTS
  0
DICTIONARY
  0
ENDSEC
  0
EOF
