solid OpenSCAD_Model
  facet normal 0.980775 -0 0.19514
    outer loop
      vertex 34.3268 17 10.0353
      vertex 34.494 27 9.19495
      vertex 34.3268 27 10.0353
    endloop
  endfacet
  facet normal 0.980775 0 0.19514
    outer loop
      vertex 34.494 27 9.19495
      vertex 34.3268 17 10.0353
      vertex 34.494 17 9.19495
    endloop
  endfacet
  facet normal 0.997862 -0 0.0653608
    outer loop
      vertex 34.494 17 9.19495
      vertex 34.55 27 8.34
      vertex 34.494 27 9.19495
    endloop
  endfacet
  facet normal 0.997862 0 0.0653608
    outer loop
      vertex 34.55 27 8.34
      vertex 34.494 17 9.19495
      vertex 34.55 17 8.34
    endloop
  endfacet
  facet normal 0.94693 -0 0.32144
    outer loop
      vertex 34.0514 17 10.8466
      vertex 34.3268 27 10.0353
      vertex 34.0514 27 10.8466
    endloop
  endfacet
  facet normal 0.94693 0 0.32144
    outer loop
      vertex 34.3268 27 10.0353
      vertex 34.0514 17 10.8466
      vertex 34.3268 17 10.0353
    endloop
  endfacet
  facet normal -0.94693 0 0.32144
    outer loop
      vertex 21.6732 17 10.0353
      vertex 21.9486 27 10.8466
      vertex 21.6732 27 10.0353
    endloop
  endfacet
  facet normal -0.94693 0 0.32144
    outer loop
      vertex 21.9486 27 10.8466
      vertex 21.6732 17 10.0353
      vertex 21.9486 17 10.8466
    endloop
  endfacet
  facet normal 0 -1 0
    outer loop
      vertex 26.2 17 12.2921
      vertex 25.4934 17 14.3914
      vertex 24.725 17 14.0125
    endloop
  endfacet
  facet normal 0 -1 0
    outer loop
      vertex 25.825 17 12.1072
      vertex 24.725 17 14.0125
      vertex 24.0126 17 13.5365
    endloop
  endfacet
  facet normal 0 -1 0
    outer loop
      vertex 25.3519 17 11.7911
      vertex 24.0126 17 13.5365
      vertex 23.3685 17 12.9715
    endloop
  endfacet
  facet normal 0 -1 0
    outer loop
      vertex 24.9241 17 11.4159
      vertex 23.3685 17 12.9715
      vertex 22.8035 17 12.3274
    endloop
  endfacet
  facet normal 0 -1 0
    outer loop
      vertex 24.0126 17 13.5365
      vertex 25.3519 17 11.7911
      vertex 25.825 17 12.1072
    endloop
  endfacet
  facet normal 0 -1 0
    outer loop
      vertex 25.4934 17 14.3914
      vertex 26.2 17 12.2921
      vertex 26.2 17 14.6313
    endloop
  endfacet
  facet normal 0 -1 0
    outer loop
      vertex 24.725 17 14.0125
      vertex 25.825 17 12.1072
      vertex 26.2 17 12.2921
    endloop
  endfacet
  facet normal 0 -1 0
    outer loop
      vertex 24.5489 17 10.9881
      vertex 22.8035 17 12.3274
      vertex 22.3275 17 11.615
    endloop
  endfacet
  facet normal 0 -1 0
    outer loop
      vertex 23.3685 17 12.9715
      vertex 24.9241 17 11.4159
      vertex 25.3519 17 11.7911
    endloop
  endfacet
  facet normal 0 -1 0
    outer loop
      vertex 22.8035 17 12.3274
      vertex 24.5489 17 10.9881
      vertex 24.9241 17 11.4159
    endloop
  endfacet
  facet normal 0 -1 0
    outer loop
      vertex 24.2328 17 10.515
      vertex 22.3275 17 11.615
      vertex 21.9486 17 10.8466
    endloop
  endfacet
  facet normal 0 -1 0
    outer loop
      vertex 22.3275 17 11.615
      vertex 24.2328 17 10.515
      vertex 24.5489 17 10.9881
    endloop
  endfacet
  facet normal 0 -1 0
    outer loop
      vertex 23.9811 17 10.0047
      vertex 21.9486 17 10.8466
      vertex 21.6732 17 10.0353
    endloop
  endfacet
  facet normal 0 -1 0
    outer loop
      vertex 21.9486 17 10.8466
      vertex 23.9811 17 10.0047
      vertex 24.2328 17 10.515
    endloop
  endfacet
  facet normal 0 -1 0
    outer loop
      vertex 21.6732 17 10.0353
      vertex 23.7982 17 9.46586
      vertex 23.9811 17 10.0047
    endloop
  endfacet
  facet normal 0 -1 0
    outer loop
      vertex 21.506 17 9.19495
      vertex 23.7982 17 9.46586
      vertex 21.6732 17 10.0353
    endloop
  endfacet
  facet normal 0 -1 0
    outer loop
      vertex 21.506 17 9.19495
      vertex 23.6872 17 8.90779
      vertex 23.7982 17 9.46586
    endloop
  endfacet
  facet normal 0 -1 0
    outer loop
      vertex 21.45 17 8.34
      vertex 23.6872 17 8.90779
      vertex 21.506 17 9.19495
    endloop
  endfacet
  facet normal 0 -1 0
    outer loop
      vertex 21.45 17 8.34
      vertex 23.65 17 8.34
      vertex 23.6872 17 8.90779
    endloop
  endfacet
  facet normal 0 -1 0
    outer loop
      vertex 21.45 17 8.34
      vertex 23.6872 17 7.77221
      vertex 23.65 17 8.34
    endloop
  endfacet
  facet normal 0 -1 0
    outer loop
      vertex 21.506 17 7.48505
      vertex 23.6872 17 7.77221
      vertex 21.45 17 8.34
    endloop
  endfacet
  facet normal 0 -1 0
    outer loop
      vertex 21.506 17 7.48505
      vertex 23.7982 17 7.21414
      vertex 23.6872 17 7.77221
    endloop
  endfacet
  facet normal 0 -1 0
    outer loop
      vertex 21.6732 17 6.64474
      vertex 23.7982 17 7.21414
      vertex 21.506 17 7.48505
    endloop
  endfacet
  facet normal 0 -1 -0
    outer loop
      vertex 23.7982 17 7.21414
      vertex 21.6732 17 6.64474
      vertex 23.9811 17 6.67533
    endloop
  endfacet
  facet normal 0 -1 0
    outer loop
      vertex 21.9486 17 5.83342
      vertex 23.9811 17 6.67533
      vertex 21.6732 17 6.64474
    endloop
  endfacet
  facet normal 0 -1 -0
    outer loop
      vertex 23.9811 17 6.67533
      vertex 21.9486 17 5.83342
      vertex 24.2328 17 6.165
    endloop
  endfacet
  facet normal 0 -1 0
    outer loop
      vertex 22.3275 17 5.065
      vertex 24.2328 17 6.165
      vertex 21.9486 17 5.83342
    endloop
  endfacet
  facet normal 0 -1 -0
    outer loop
      vertex 24.2328 17 6.165
      vertex 22.3275 17 5.065
      vertex 24.4767 17 5.8
    endloop
  endfacet
  facet normal 0 -1 0
    outer loop
      vertex 22.8035 17 4.35261
      vertex 24.4767 17 5.8
      vertex 22.3275 17 5.065
    endloop
  endfacet
  facet normal 0 -1 0
    outer loop
      vertex 22.87 17 4.27682
      vertex 24.4767 17 5.8
      vertex 22.8035 17 4.35261
    endloop
  endfacet
  facet normal 0 -1 0
    outer loop
      vertex 24.4767 17 5.8
      vertex 25.27 17 4.96073
      vertex 25.27 17 5.8
    endloop
  endfacet
  facet normal 0 -1 -0
    outer loop
      vertex 24.4767 17 5.8
      vertex 22.87 17 4.27682
      vertex 25.27 17 4.96073
    endloop
  endfacet
  facet normal 0 -1 -0
    outer loop
      vertex 25.27 17 4.96073
      vertex 22.87 17 4.27682
      vertex 25.3519 17 4.88891
    endloop
  endfacet
  facet normal 0 -1 0
    outer loop
      vertex 22.87 17 3
      vertex 25.3519 17 4.88891
      vertex 22.87 17 4.27682
    endloop
  endfacet
  facet normal 0 -1 -0
    outer loop
      vertex 25.3519 17 4.88891
      vertex 22.87 17 3
      vertex 25.825 17 4.57279
    endloop
  endfacet
  facet normal 0 -1 -0
    outer loop
      vertex 25.825 17 4.57279
      vertex 22.87 17 3
      vertex 26.3353 17 4.32113
    endloop
  endfacet
  facet normal 0 -1 -0
    outer loop
      vertex 26.3353 17 4.32113
      vertex 22.87 17 3
      vertex 26.8741 17 4.13822
    endloop
  endfacet
  facet normal 0 -1 -0
    outer loop
      vertex 26.8741 17 4.13822
      vertex 22.87 17 3
      vertex 27.4322 17 4.02722
    endloop
  endfacet
  facet normal 0 -1 -0
    outer loop
      vertex 27.4322 17 4.02722
      vertex 22.87 17 3
      vertex 28 17 3.99
    endloop
  endfacet
  facet normal 0 -1 0
    outer loop
      vertex 30.73 17 4.96073
      vertex 31.5233 17 5.8
      vertex 30.73 17 5.8
    endloop
  endfacet
  facet normal 0 -1 0
    outer loop
      vertex 33.13 17 4.27682
      vertex 31.5233 17 5.8
      vertex 30.73 17 4.96073
    endloop
  endfacet
  facet normal 0 -1 0
    outer loop
      vertex 33.13 17 4.27682
      vertex 30.73 17 4.96073
      vertex 30.6481 17 4.88891
    endloop
  endfacet
  facet normal 0 -1 0
    outer loop
      vertex 33.13 17 3
      vertex 30.6481 17 4.88891
      vertex 30.175 17 4.57279
    endloop
  endfacet
  facet normal 0 -1 0
    outer loop
      vertex 31.5233 17 5.8
      vertex 33.1965 17 4.35261
      vertex 33.6725 17 5.065
    endloop
  endfacet
  facet normal 0 -1 0
    outer loop
      vertex 33.13 17 3
      vertex 30.175 17 4.57279
      vertex 29.6647 17 4.32113
    endloop
  endfacet
  facet normal 0 -1 0
    outer loop
      vertex 31.5233 17 5.8
      vertex 33.13 17 4.27682
      vertex 33.1965 17 4.35261
    endloop
  endfacet
  facet normal 0 -1 0
    outer loop
      vertex 33.13 17 3
      vertex 29.6647 17 4.32113
      vertex 29.1259 17 4.13822
    endloop
  endfacet
  facet normal 0 -1 0
    outer loop
      vertex 33.13 17 3
      vertex 29.1259 17 4.13822
      vertex 28.5678 17 4.02722
    endloop
  endfacet
  facet normal 0 -1 0
    outer loop
      vertex 33.13 17 3
      vertex 28.5678 17 4.02722
      vertex 28 17 3.99
    endloop
  endfacet
  facet normal 0 -1 0
    outer loop
      vertex 33.13 17 3
      vertex 28 17 3.99
      vertex 22.87 17 3
    endloop
  endfacet
  facet normal 0 -1 0
    outer loop
      vertex 30.6481 17 4.88891
      vertex 33.13 17 3
      vertex 33.13 17 4.27682
    endloop
  endfacet
  facet normal 0 -1 0
    outer loop
      vertex 29.8 17 12.2921
      vertex 30.5066 17 14.3914
      vertex 29.8 17 14.6313
    endloop
  endfacet
  facet normal 0 -1 -0
    outer loop
      vertex 30.5066 17 14.3914
      vertex 29.8 17 12.2921
      vertex 31.275 17 14.0125
    endloop
  endfacet
  facet normal 0 -1 0
    outer loop
      vertex 30.175 17 12.1072
      vertex 31.275 17 14.0125
      vertex 29.8 17 12.2921
    endloop
  endfacet
  facet normal 0 -1 0
    outer loop
      vertex 30.6481 17 11.7911
      vertex 31.9874 17 13.5365
      vertex 30.175 17 12.1072
    endloop
  endfacet
  facet normal 0 -1 -0
    outer loop
      vertex 31.275 17 14.0125
      vertex 30.175 17 12.1072
      vertex 31.9874 17 13.5365
    endloop
  endfacet
  facet normal 0 -1 -0
    outer loop
      vertex 31.9874 17 13.5365
      vertex 30.6481 17 11.7911
      vertex 32.6315 17 12.9715
    endloop
  endfacet
  facet normal 0 -1 0
    outer loop
      vertex 31.0759 17 11.4159
      vertex 32.6315 17 12.9715
      vertex 30.6481 17 11.7911
    endloop
  endfacet
  facet normal 0 -1 -0
    outer loop
      vertex 32.6315 17 12.9715
      vertex 31.0759 17 11.4159
      vertex 33.1965 17 12.3274
    endloop
  endfacet
  facet normal 0 -1 0
    outer loop
      vertex 31.4511 17 10.9881
      vertex 33.1965 17 12.3274
      vertex 31.0759 17 11.4159
    endloop
  endfacet
  facet normal 0 -1 -0
    outer loop
      vertex 33.1965 17 12.3274
      vertex 31.4511 17 10.9881
      vertex 33.6725 17 11.615
    endloop
  endfacet
  facet normal 0 -1 0
    outer loop
      vertex 31.7672 17 10.515
      vertex 33.6725 17 11.615
      vertex 31.4511 17 10.9881
    endloop
  endfacet
  facet normal 0 -1 -0
    outer loop
      vertex 33.6725 17 11.615
      vertex 31.7672 17 10.515
      vertex 34.0514 17 10.8466
    endloop
  endfacet
  facet normal 0 -1 0
    outer loop
      vertex 32.0189 17 10.0047
      vertex 34.0514 17 10.8466
      vertex 31.7672 17 10.515
    endloop
  endfacet
  facet normal 0 -1 -0
    outer loop
      vertex 34.0514 17 10.8466
      vertex 32.0189 17 10.0047
      vertex 34.3268 17 10.0353
    endloop
  endfacet
  facet normal 0 -1 0
    outer loop
      vertex 32.2018 17 9.46586
      vertex 34.3268 17 10.0353
      vertex 32.0189 17 10.0047
    endloop
  endfacet
  facet normal 0 -1 0
    outer loop
      vertex 32.2018 17 9.46586
      vertex 34.494 17 9.19495
      vertex 34.3268 17 10.0353
    endloop
  endfacet
  facet normal 0 -1 0
    outer loop
      vertex 32.3128 17 8.90779
      vertex 34.494 17 9.19495
      vertex 32.2018 17 9.46586
    endloop
  endfacet
  facet normal 0 -1 0
    outer loop
      vertex 32.35 17 8.34
      vertex 34.494 17 9.19495
      vertex 32.3128 17 8.90779
    endloop
  endfacet
  facet normal 0 -1 0
    outer loop
      vertex 32.35 17 8.34
      vertex 34.55 17 8.34
      vertex 34.494 17 9.19495
    endloop
  endfacet
  facet normal 0 -1 0
    outer loop
      vertex 32.3128 17 7.77221
      vertex 34.55 17 8.34
      vertex 32.35 17 8.34
    endloop
  endfacet
  facet normal 0 -1 0
    outer loop
      vertex 32.3128 17 7.77221
      vertex 34.494 17 7.48505
      vertex 34.55 17 8.34
    endloop
  endfacet
  facet normal 0 -1 0
    outer loop
      vertex 32.2018 17 7.21414
      vertex 34.494 17 7.48505
      vertex 32.3128 17 7.77221
    endloop
  endfacet
  facet normal 0 -1 0
    outer loop
      vertex 34.3268 17 6.64474
      vertex 32.2018 17 7.21414
      vertex 32.0189 17 6.67533
    endloop
  endfacet
  facet normal 0 -1 0
    outer loop
      vertex 32.2018 17 7.21414
      vertex 34.3268 17 6.64474
      vertex 34.494 17 7.48505
    endloop
  endfacet
  facet normal 0 -1 0
    outer loop
      vertex 34.0514 17 5.83342
      vertex 32.0189 17 6.67533
      vertex 31.7672 17 6.165
    endloop
  endfacet
  facet normal 0 -1 0
    outer loop
      vertex 32.0189 17 6.67533
      vertex 34.0514 17 5.83342
      vertex 34.3268 17 6.64474
    endloop
  endfacet
  facet normal 0 -1 0
    outer loop
      vertex 33.6725 17 5.065
      vertex 31.7672 17 6.165
      vertex 31.5233 17 5.8
    endloop
  endfacet
  facet normal 0 -1 0
    outer loop
      vertex 31.7672 17 6.165
      vertex 33.6725 17 5.065
      vertex 34.0514 17 5.83342
    endloop
  endfacet
  facet normal 0.751673 0 -0.659536
    outer loop
      vertex 33.1965 17 4.35261
      vertex 33.13 27 4.27682
      vertex 33.1965 27 4.35261
    endloop
  endfacet
  facet normal 0.751673 0 -0.659536
    outer loop
      vertex 33.13 27 4.27682
      vertex 33.1965 17 4.35261
      vertex 33.13 17 4.27682
    endloop
  endfacet
  facet normal -0.659438 0 0.751759
    outer loop
      vertex 23.3685 27 12.9715
      vertex 24.0126 17 13.5365
      vertex 24.0126 27 13.5365
    endloop
  endfacet
  facet normal -0.659438 0 0.751759
    outer loop
      vertex 24.0126 17 13.5365
      vertex 23.3685 27 12.9715
      vertex 23.3685 17 12.9715
    endloop
  endfacet
  facet normal 0.896893 0 -0.442248
    outer loop
      vertex 34.0514 17 5.83342
      vertex 33.6725 27 5.065
      vertex 34.0514 27 5.83342
    endloop
  endfacet
  facet normal 0.896893 0 -0.442248
    outer loop
      vertex 33.6725 27 5.065
      vertex 34.0514 17 5.83342
      vertex 33.6725 17 5.065
    endloop
  endfacet
  facet normal 0.831475 -0 0.555562
    outer loop
      vertex 33.1965 17 12.3274
      vertex 33.6725 27 11.615
      vertex 33.1965 27 12.3274
    endloop
  endfacet
  facet normal 0.831475 0 0.555562
    outer loop
      vertex 33.6725 27 11.615
      vertex 33.1965 17 12.3274
      vertex 33.6725 17 11.615
    endloop
  endfacet
  facet normal 0.896888 -0 0.442258
    outer loop
      vertex 33.6725 17 11.615
      vertex 34.0514 27 10.8466
      vertex 33.6725 27 11.615
    endloop
  endfacet
  facet normal 0.896888 0 0.442258
    outer loop
      vertex 34.0514 27 10.8466
      vertex 33.6725 17 11.615
      vertex 34.0514 17 10.8466
    endloop
  endfacet
  facet normal -0.442258 0 0.896888
    outer loop
      vertex 24.725 27 14.0125
      vertex 25.4934 17 14.3914
      vertex 25.4934 27 14.3914
    endloop
  endfacet
  facet normal -0.442258 0 0.896888
    outer loop
      vertex 25.4934 17 14.3914
      vertex 24.725 27 14.0125
      vertex 24.725 17 14.0125
    endloop
  endfacet
  facet normal -0.555562 0 0.831475
    outer loop
      vertex 24.0126 27 13.5365
      vertex 24.725 17 14.0125
      vertex 24.725 27 14.0125
    endloop
  endfacet
  facet normal -0.555562 0 0.831475
    outer loop
      vertex 24.725 17 14.0125
      vertex 24.0126 27 13.5365
      vertex 24.0126 17 13.5365
    endloop
  endfacet
  facet normal -0.946932 0 -0.321433
    outer loop
      vertex 21.9486 17 5.83342
      vertex 21.6732 27 6.64474
      vertex 21.9486 27 5.83342
    endloop
  endfacet
  facet normal -0.946932 -0 -0.321433
    outer loop
      vertex 21.6732 27 6.64474
      vertex 21.9486 17 5.83342
      vertex 21.6732 17 6.64474
    endloop
  endfacet
  facet normal -0.980775 0 0.19514
    outer loop
      vertex 21.506 17 9.19495
      vertex 21.6732 27 10.0353
      vertex 21.506 27 9.19495
    endloop
  endfacet
  facet normal -0.980775 0 0.19514
    outer loop
      vertex 21.6732 27 10.0353
      vertex 21.506 17 9.19495
      vertex 21.6732 17 10.0353
    endloop
  endfacet
  facet normal 0.659438 0 0.751759
    outer loop
      vertex 31.9874 27 13.5365
      vertex 32.6315 17 12.9715
      vertex 32.6315 27 12.9715
    endloop
  endfacet
  facet normal 0.659438 0 0.751759
    outer loop
      vertex 32.6315 17 12.9715
      vertex 31.9874 27 13.5365
      vertex 31.9874 17 13.5365
    endloop
  endfacet
  facet normal 0.997862 0 -0.0653608
    outer loop
      vertex 34.55 17 8.34
      vertex 34.494 27 7.48505
      vertex 34.55 27 8.34
    endloop
  endfacet
  facet normal 0.997862 0 -0.0653608
    outer loop
      vertex 34.494 27 7.48505
      vertex 34.55 17 8.34
      vertex 34.494 17 7.48505
    endloop
  endfacet
  facet normal 0.751759 -0 0.659438
    outer loop
      vertex 32.6315 17 12.9715
      vertex 33.1965 27 12.3274
      vertex 32.6315 27 12.9715
    endloop
  endfacet
  facet normal 0.751759 0 0.659438
    outer loop
      vertex 33.1965 27 12.3274
      vertex 32.6315 17 12.9715
      vertex 33.1965 17 12.3274
    endloop
  endfacet
  facet normal 0.555562 0 0.831475
    outer loop
      vertex 31.275 27 14.0125
      vertex 31.9874 17 13.5365
      vertex 31.9874 27 13.5365
    endloop
  endfacet
  facet normal 0.555562 0 0.831475
    outer loop
      vertex 31.9874 17 13.5365
      vertex 31.275 27 14.0125
      vertex 31.275 17 14.0125
    endloop
  endfacet
  facet normal -0.321489 0 0.946913
    outer loop
      vertex 25.4934 27 14.3914
      vertex 26.2 17 14.6313
      vertex 26.2 27 14.6313
    endloop
  endfacet
  facet normal -0.321489 0 0.946913
    outer loop
      vertex 26.2 17 14.6313
      vertex 25.4934 27 14.3914
      vertex 25.4934 17 14.3914
    endloop
  endfacet
  facet normal 0.321489 0 0.946913
    outer loop
      vertex 29.8 27 14.6313
      vertex 30.5066 17 14.3914
      vertex 30.5066 27 14.3914
    endloop
  endfacet
  facet normal 0.321489 0 0.946913
    outer loop
      vertex 30.5066 17 14.3914
      vertex 29.8 27 14.6313
      vertex 29.8 17 14.6313
    endloop
  endfacet
  facet normal -0.831472 0 -0.555567
    outer loop
      vertex 22.8035 17 4.35261
      vertex 22.3275 27 5.065
      vertex 22.8035 27 4.35261
    endloop
  endfacet
  facet normal -0.831472 -0 -0.555567
    outer loop
      vertex 22.3275 27 5.065
      vertex 22.8035 17 4.35261
      vertex 22.3275 17 5.065
    endloop
  endfacet
  facet normal 0.831472 0 -0.555567
    outer loop
      vertex 33.6725 17 5.065
      vertex 33.1965 27 4.35261
      vertex 33.6725 27 5.065
    endloop
  endfacet
  facet normal 0.831472 0 -0.555567
    outer loop
      vertex 33.1965 27 4.35261
      vertex 33.6725 17 5.065
      vertex 33.1965 17 4.35261
    endloop
  endfacet
  facet normal -0.896888 0 0.442258
    outer loop
      vertex 21.9486 17 10.8466
      vertex 22.3275 27 11.615
      vertex 21.9486 27 10.8466
    endloop
  endfacet
  facet normal -0.896888 0 0.442258
    outer loop
      vertex 22.3275 27 11.615
      vertex 21.9486 17 10.8466
      vertex 22.3275 17 11.615
    endloop
  endfacet
  facet normal -0.997862 0 -0.0653608
    outer loop
      vertex 21.506 17 7.48505
      vertex 21.45 27 8.34
      vertex 21.506 27 7.48505
    endloop
  endfacet
  facet normal -0.997862 -0 -0.0653608
    outer loop
      vertex 21.45 27 8.34
      vertex 21.506 17 7.48505
      vertex 21.45 17 8.34
    endloop
  endfacet
  facet normal 0.980774 0 -0.195149
    outer loop
      vertex 34.494 17 7.48505
      vertex 34.3268 27 6.64474
      vertex 34.494 27 7.48505
    endloop
  endfacet
  facet normal 0.980774 0 -0.195149
    outer loop
      vertex 34.3268 27 6.64474
      vertex 34.494 17 7.48505
      vertex 34.3268 17 6.64474
    endloop
  endfacet
  facet normal -0.896893 0 -0.442248
    outer loop
      vertex 22.3275 17 5.065
      vertex 21.9486 27 5.83342
      vertex 22.3275 27 5.065
    endloop
  endfacet
  facet normal -0.896893 -0 -0.442248
    outer loop
      vertex 21.9486 27 5.83342
      vertex 22.3275 17 5.065
      vertex 21.9486 17 5.83342
    endloop
  endfacet
  facet normal 0.442258 0 0.896888
    outer loop
      vertex 30.5066 27 14.3914
      vertex 31.275 17 14.0125
      vertex 31.275 27 14.0125
    endloop
  endfacet
  facet normal 0.442258 0 0.896888
    outer loop
      vertex 31.275 17 14.0125
      vertex 30.5066 27 14.3914
      vertex 30.5066 17 14.3914
    endloop
  endfacet
  facet normal -0.997862 0 0.0653608
    outer loop
      vertex 21.45 17 8.34
      vertex 21.506 27 9.19495
      vertex 21.45 27 8.34
    endloop
  endfacet
  facet normal -0.997862 0 0.0653608
    outer loop
      vertex 21.506 27 9.19495
      vertex 21.45 17 8.34
      vertex 21.506 17 9.19495
    endloop
  endfacet
  facet normal 0 1 0
    outer loop
      vertex 29.8 27 12.2921
      vertex 30.5066 27 14.3914
      vertex 31.275 27 14.0125
    endloop
  endfacet
  facet normal 0 1 0
    outer loop
      vertex 30.175 27 12.1072
      vertex 31.275 27 14.0125
      vertex 31.9874 27 13.5365
    endloop
  endfacet
  facet normal 0 1 0
    outer loop
      vertex 30.6481 27 11.7911
      vertex 31.9874 27 13.5365
      vertex 32.6315 27 12.9715
    endloop
  endfacet
  facet normal 0 1 0
    outer loop
      vertex 31.0759 27 11.4159
      vertex 32.6315 27 12.9715
      vertex 33.1965 27 12.3274
    endloop
  endfacet
  facet normal 0 1 0
    outer loop
      vertex 31.9874 27 13.5365
      vertex 30.6481 27 11.7911
      vertex 30.175 27 12.1072
    endloop
  endfacet
  facet normal 0 1 0
    outer loop
      vertex 30.5066 27 14.3914
      vertex 29.8 27 12.2921
      vertex 29.8 27 14.6313
    endloop
  endfacet
  facet normal 0 1 0
    outer loop
      vertex 31.275 27 14.0125
      vertex 30.175 27 12.1072
      vertex 29.8 27 12.2921
    endloop
  endfacet
  facet normal 0 1 0
    outer loop
      vertex 31.4511 27 10.9881
      vertex 33.1965 27 12.3274
      vertex 33.6725 27 11.615
    endloop
  endfacet
  facet normal 0 1 0
    outer loop
      vertex 32.6315 27 12.9715
      vertex 31.0759 27 11.4159
      vertex 30.6481 27 11.7911
    endloop
  endfacet
  facet normal 0 1 0
    outer loop
      vertex 33.1965 27 12.3274
      vertex 31.4511 27 10.9881
      vertex 31.0759 27 11.4159
    endloop
  endfacet
  facet normal 0 1 0
    outer loop
      vertex 31.7672 27 10.515
      vertex 33.6725 27 11.615
      vertex 34.0514 27 10.8466
    endloop
  endfacet
  facet normal 0 1 0
    outer loop
      vertex 33.6725 27 11.615
      vertex 31.7672 27 10.515
      vertex 31.4511 27 10.9881
    endloop
  endfacet
  facet normal 0 1 0
    outer loop
      vertex 32.0189 27 10.0047
      vertex 34.0514 27 10.8466
      vertex 34.3268 27 10.0353
    endloop
  endfacet
  facet normal 0 1 0
    outer loop
      vertex 34.0514 27 10.8466
      vertex 32.0189 27 10.0047
      vertex 31.7672 27 10.515
    endloop
  endfacet
  facet normal 0 1 0
    outer loop
      vertex 34.3268 27 10.0353
      vertex 32.2018 27 9.46586
      vertex 32.0189 27 10.0047
    endloop
  endfacet
  facet normal 0 1 0
    outer loop
      vertex 34.494 27 9.19495
      vertex 32.2018 27 9.46586
      vertex 34.3268 27 10.0353
    endloop
  endfacet
  facet normal 0 1 0
    outer loop
      vertex 34.494 27 9.19495
      vertex 32.3128 27 8.90779
      vertex 32.2018 27 9.46586
    endloop
  endfacet
  facet normal 0 1 0
    outer loop
      vertex 34.55 27 8.34
      vertex 32.3128 27 8.90779
      vertex 34.494 27 9.19495
    endloop
  endfacet
  facet normal 0 1 0
    outer loop
      vertex 34.55 27 8.34
      vertex 32.35 27 8.34
      vertex 32.3128 27 8.90779
    endloop
  endfacet
  facet normal 0 1 0
    outer loop
      vertex 34.55 27 8.34
      vertex 32.3128 27 7.77221
      vertex 32.35 27 8.34
    endloop
  endfacet
  facet normal 0 1 -0
    outer loop
      vertex 34.494 27 7.48505
      vertex 32.3128 27 7.77221
      vertex 34.55 27 8.34
    endloop
  endfacet
  facet normal 0 1 0
    outer loop
      vertex 34.494 27 7.48505
      vertex 32.2018 27 7.21414
      vertex 32.3128 27 7.77221
    endloop
  endfacet
  facet normal 0 1 -0
    outer loop
      vertex 34.3268 27 6.64474
      vertex 32.2018 27 7.21414
      vertex 34.494 27 7.48505
    endloop
  endfacet
  facet normal 0 1 0
    outer loop
      vertex 32.2018 27 7.21414
      vertex 34.3268 27 6.64474
      vertex 32.0189 27 6.67533
    endloop
  endfacet
  facet normal 0 1 -0
    outer loop
      vertex 34.0514 27 5.83342
      vertex 32.0189 27 6.67533
      vertex 34.3268 27 6.64474
    endloop
  endfacet
  facet normal 0 1 0
    outer loop
      vertex 32.0189 27 6.67533
      vertex 34.0514 27 5.83342
      vertex 31.7672 27 6.165
    endloop
  endfacet
  facet normal 0 1 -0
    outer loop
      vertex 33.6725 27 5.065
      vertex 31.7672 27 6.165
      vertex 34.0514 27 5.83342
    endloop
  endfacet
  facet normal 0 1 0
    outer loop
      vertex 31.7672 27 6.165
      vertex 33.6725 27 5.065
      vertex 31.5233 27 5.8
    endloop
  endfacet
  facet normal 0 1 -0
    outer loop
      vertex 33.1965 27 4.35261
      vertex 31.5233 27 5.8
      vertex 33.6725 27 5.065
    endloop
  endfacet
  facet normal 0 1 -0
    outer loop
      vertex 33.13 27 4.27682
      vertex 31.5233 27 5.8
      vertex 33.1965 27 4.35261
    endloop
  endfacet
  facet normal 0 1 0
    outer loop
      vertex 31.5233 27 5.8
      vertex 30.73 27 4.96073
      vertex 30.73 27 5.8
    endloop
  endfacet
  facet normal 0 1 0
    outer loop
      vertex 31.5233 27 5.8
      vertex 33.13 27 4.27682
      vertex 30.73 27 4.96073
    endloop
  endfacet
  facet normal 0 1 0
    outer loop
      vertex 30.73 27 4.96073
      vertex 33.13 27 4.27682
      vertex 30.6481 27 4.88891
    endloop
  endfacet
  facet normal 0 1 -0
    outer loop
      vertex 33.13 27 3
      vertex 30.6481 27 4.88891
      vertex 33.13 27 4.27682
    endloop
  endfacet
  facet normal 0 1 0
    outer loop
      vertex 30.6481 27 4.88891
      vertex 33.13 27 3
      vertex 30.175 27 4.57279
    endloop
  endfacet
  facet normal 0 1 0
    outer loop
      vertex 30.175 27 4.57279
      vertex 33.13 27 3
      vertex 29.6647 27 4.32113
    endloop
  endfacet
  facet normal 0 1 0
    outer loop
      vertex 29.6647 27 4.32113
      vertex 33.13 27 3
      vertex 29.1259 27 4.13822
    endloop
  endfacet
  facet normal 0 1 0
    outer loop
      vertex 29.1259 27 4.13822
      vertex 33.13 27 3
      vertex 28.5678 27 4.02722
    endloop
  endfacet
  facet normal 0 1 0
    outer loop
      vertex 28.5678 27 4.02722
      vertex 33.13 27 3
      vertex 28 27 3.99
    endloop
  endfacet
  facet normal 0 1 -0
    outer loop
      vertex 25.27 27 4.96073
      vertex 24.4767 27 5.8
      vertex 25.27 27 5.8
    endloop
  endfacet
  facet normal 0 1 0
    outer loop
      vertex 22.87 27 4.27682
      vertex 24.4767 27 5.8
      vertex 25.27 27 4.96073
    endloop
  endfacet
  facet normal 0 1 0
    outer loop
      vertex 22.87 27 4.27682
      vertex 25.27 27 4.96073
      vertex 25.3519 27 4.88891
    endloop
  endfacet
  facet normal 0 1 0
    outer loop
      vertex 22.87 27 3
      vertex 25.3519 27 4.88891
      vertex 25.825 27 4.57279
    endloop
  endfacet
  facet normal 0 1 0
    outer loop
      vertex 24.4767 27 5.8
      vertex 22.8035 27 4.35261
      vertex 22.3275 27 5.065
    endloop
  endfacet
  facet normal 0 1 0
    outer loop
      vertex 22.87 27 3
      vertex 25.825 27 4.57279
      vertex 26.3353 27 4.32113
    endloop
  endfacet
  facet normal 0 1 0
    outer loop
      vertex 24.4767 27 5.8
      vertex 22.87 27 4.27682
      vertex 22.8035 27 4.35261
    endloop
  endfacet
  facet normal 0 1 0
    outer loop
      vertex 22.87 27 3
      vertex 26.3353 27 4.32113
      vertex 26.8741 27 4.13822
    endloop
  endfacet
  facet normal 0 1 0
    outer loop
      vertex 22.87 27 3
      vertex 26.8741 27 4.13822
      vertex 27.4322 27 4.02722
    endloop
  endfacet
  facet normal 0 1 0
    outer loop
      vertex 22.87 27 3
      vertex 27.4322 27 4.02722
      vertex 28 27 3.99
    endloop
  endfacet
  facet normal 0 1 0
    outer loop
      vertex 22.87 27 3
      vertex 28 27 3.99
      vertex 33.13 27 3
    endloop
  endfacet
  facet normal 0 1 0
    outer loop
      vertex 25.3519 27 4.88891
      vertex 22.87 27 3
      vertex 22.87 27 4.27682
    endloop
  endfacet
  facet normal 0 1 -0
    outer loop
      vertex 26.2 27 12.2921
      vertex 25.4934 27 14.3914
      vertex 26.2 27 14.6313
    endloop
  endfacet
  facet normal 0 1 0
    outer loop
      vertex 25.4934 27 14.3914
      vertex 26.2 27 12.2921
      vertex 24.725 27 14.0125
    endloop
  endfacet
  facet normal 0 1 -0
    outer loop
      vertex 25.825 27 12.1072
      vertex 24.725 27 14.0125
      vertex 26.2 27 12.2921
    endloop
  endfacet
  facet normal 0 1 -0
    outer loop
      vertex 25.3519 27 11.7911
      vertex 24.0126 27 13.5365
      vertex 25.825 27 12.1072
    endloop
  endfacet
  facet normal 0 1 0
    outer loop
      vertex 24.725 27 14.0125
      vertex 25.825 27 12.1072
      vertex 24.0126 27 13.5365
    endloop
  endfacet
  facet normal 0 1 0
    outer loop
      vertex 24.0126 27 13.5365
      vertex 25.3519 27 11.7911
      vertex 23.3685 27 12.9715
    endloop
  endfacet
  facet normal 0 1 -0
    outer loop
      vertex 24.9241 27 11.4159
      vertex 23.3685 27 12.9715
      vertex 25.3519 27 11.7911
    endloop
  endfacet
  facet normal 0 1 0
    outer loop
      vertex 23.3685 27 12.9715
      vertex 24.9241 27 11.4159
      vertex 22.8035 27 12.3274
    endloop
  endfacet
  facet normal 0 1 -0
    outer loop
      vertex 24.5489 27 10.9881
      vertex 22.8035 27 12.3274
      vertex 24.9241 27 11.4159
    endloop
  endfacet
  facet normal 0 1 0
    outer loop
      vertex 22.8035 27 12.3274
      vertex 24.5489 27 10.9881
      vertex 22.3275 27 11.615
    endloop
  endfacet
  facet normal 0 1 -0
    outer loop
      vertex 24.2328 27 10.515
      vertex 22.3275 27 11.615
      vertex 24.5489 27 10.9881
    endloop
  endfacet
  facet normal 0 1 0
    outer loop
      vertex 22.3275 27 11.615
      vertex 24.2328 27 10.515
      vertex 21.9486 27 10.8466
    endloop
  endfacet
  facet normal 0 1 -0
    outer loop
      vertex 23.9811 27 10.0047
      vertex 21.9486 27 10.8466
      vertex 24.2328 27 10.515
    endloop
  endfacet
  facet normal 0 1 0
    outer loop
      vertex 21.9486 27 10.8466
      vertex 23.9811 27 10.0047
      vertex 21.6732 27 10.0353
    endloop
  endfacet
  facet normal 0 1 -0
    outer loop
      vertex 23.7982 27 9.46586
      vertex 21.6732 27 10.0353
      vertex 23.9811 27 10.0047
    endloop
  endfacet
  facet normal 0 1 0
    outer loop
      vertex 23.7982 27 9.46586
      vertex 21.506 27 9.19495
      vertex 21.6732 27 10.0353
    endloop
  endfacet
  facet normal 0 1 -0
    outer loop
      vertex 23.6872 27 8.90779
      vertex 21.506 27 9.19495
      vertex 23.7982 27 9.46586
    endloop
  endfacet
  facet normal 0 1 -0
    outer loop
      vertex 23.65 27 8.34
      vertex 21.506 27 9.19495
      vertex 23.6872 27 8.90779
    endloop
  endfacet
  facet normal 0 1 0
    outer loop
      vertex 23.65 27 8.34
      vertex 21.45 27 8.34
      vertex 21.506 27 9.19495
    endloop
  endfacet
  facet normal 0 1 0
    outer loop
      vertex 23.6872 27 7.77221
      vertex 21.45 27 8.34
      vertex 23.65 27 8.34
    endloop
  endfacet
  facet normal 0 1 0
    outer loop
      vertex 23.6872 27 7.77221
      vertex 21.506 27 7.48505
      vertex 21.45 27 8.34
    endloop
  endfacet
  facet normal 0 1 0
    outer loop
      vertex 23.7982 27 7.21414
      vertex 21.506 27 7.48505
      vertex 23.6872 27 7.77221
    endloop
  endfacet
  facet normal 0 1 0
    outer loop
      vertex 21.6732 27 6.64474
      vertex 23.7982 27 7.21414
      vertex 23.9811 27 6.67533
    endloop
  endfacet
  facet normal 0 1 0
    outer loop
      vertex 23.7982 27 7.21414
      vertex 21.6732 27 6.64474
      vertex 21.506 27 7.48505
    endloop
  endfacet
  facet normal 0 1 0
    outer loop
      vertex 21.9486 27 5.83342
      vertex 23.9811 27 6.67533
      vertex 24.2328 27 6.165
    endloop
  endfacet
  facet normal 0 1 0
    outer loop
      vertex 23.9811 27 6.67533
      vertex 21.9486 27 5.83342
      vertex 21.6732 27 6.64474
    endloop
  endfacet
  facet normal 0 1 0
    outer loop
      vertex 22.3275 27 5.065
      vertex 24.2328 27 6.165
      vertex 24.4767 27 5.8
    endloop
  endfacet
  facet normal 0 1 0
    outer loop
      vertex 24.2328 27 6.165
      vertex 22.3275 27 5.065
      vertex 21.9486 27 5.83342
    endloop
  endfacet
  facet normal -0.751673 0 -0.659536
    outer loop
      vertex 22.87 17 4.27682
      vertex 22.8035 27 4.35261
      vertex 22.87 27 4.27682
    endloop
  endfacet
  facet normal -0.751673 -0 -0.659536
    outer loop
      vertex 22.8035 27 4.35261
      vertex 22.87 17 4.27682
      vertex 22.8035 17 4.35261
    endloop
  endfacet
  facet normal -0.831475 0 0.555562
    outer loop
      vertex 22.3275 17 11.615
      vertex 22.8035 27 12.3274
      vertex 22.3275 27 11.615
    endloop
  endfacet
  facet normal -0.831475 0 0.555562
    outer loop
      vertex 22.8035 27 12.3274
      vertex 22.3275 17 11.615
      vertex 22.8035 17 12.3274
    endloop
  endfacet
  facet normal 0.946932 0 -0.321433
    outer loop
      vertex 34.3268 17 6.64474
      vertex 34.0514 27 5.83342
      vertex 34.3268 27 6.64474
    endloop
  endfacet
  facet normal 0.946932 0 -0.321433
    outer loop
      vertex 34.0514 27 5.83342
      vertex 34.3268 17 6.64474
      vertex 34.0514 17 5.83342
    endloop
  endfacet
  facet normal -0.980774 0 -0.195149
    outer loop
      vertex 21.6732 17 6.64474
      vertex 21.506 27 7.48505
      vertex 21.6732 27 6.64474
    endloop
  endfacet
  facet normal -0.980774 -0 -0.195149
    outer loop
      vertex 21.506 27 7.48505
      vertex 21.6732 17 6.64474
      vertex 21.506 17 7.48505
    endloop
  endfacet
  facet normal -0.751759 0 0.659438
    outer loop
      vertex 22.8035 17 12.3274
      vertex 23.3685 27 12.9715
      vertex 22.8035 27 12.3274
    endloop
  endfacet
  facet normal -0.751759 0 0.659438
    outer loop
      vertex 23.3685 27 12.9715
      vertex 22.8035 17 12.3274
      vertex 23.3685 17 12.9715
    endloop
  endfacet
  facet normal -0.980788 0 -0.195078
    outer loop
      vertex 32.3128 17 8.90779
      vertex 32.2018 27 9.46586
      vertex 32.3128 27 8.90779
    endloop
  endfacet
  facet normal -0.980788 -0 -0.195078
    outer loop
      vertex 32.2018 27 9.46586
      vertex 32.3128 17 8.90779
      vertex 32.2018 17 9.46586
    endloop
  endfacet
  facet normal -0.997861 0 -0.065377
    outer loop
      vertex 32.35 17 8.34
      vertex 32.3128 27 8.90779
      vertex 32.35 27 8.34
    endloop
  endfacet
  facet normal -0.997861 -0 -0.065377
    outer loop
      vertex 32.3128 27 8.90779
      vertex 32.35 17 8.34
      vertex 32.3128 17 8.90779
    endloop
  endfacet
  facet normal 0.997861 0 -0.065377
    outer loop
      vertex 23.6872 17 8.90779
      vertex 23.65 27 8.34
      vertex 23.6872 27 8.90779
    endloop
  endfacet
  facet normal 0.997861 0 -0.065377
    outer loop
      vertex 23.65 27 8.34
      vertex 23.6872 17 8.90779
      vertex 23.65 17 8.34
    endloop
  endfacet
  facet normal -0.442232 0 -0.896901
    outer loop
      vertex 29.8 17 12.2921
      vertex 30.175 27 12.1072
      vertex 30.175 17 12.1072
    endloop
  endfacet
  facet normal -0.442232 0 -0.896901
    outer loop
      vertex 30.175 27 12.1072
      vertex 29.8 17 12.2921
      vertex 29.8 27 12.2921
    endloop
  endfacet
  facet normal 0.997861 -0 0.065377
    outer loop
      vertex 23.65 17 8.34
      vertex 23.6872 27 7.77221
      vertex 23.65 27 8.34
    endloop
  endfacet
  facet normal 0.997861 0 0.065377
    outer loop
      vertex 23.6872 27 7.77221
      vertex 23.65 17 8.34
      vertex 23.6872 17 7.77221
    endloop
  endfacet
  facet normal 0.321458 0 0.946924
    outer loop
      vertex 26.3353 27 4.32113
      vertex 26.8741 17 4.13822
      vertex 26.8741 27 4.13822
    endloop
  endfacet
  facet normal 0.321458 0 0.946924
    outer loop
      vertex 26.8741 17 4.13822
      vertex 26.3353 27 4.32113
      vertex 26.3353 17 4.32113
    endloop
  endfacet
  facet normal -0.946936 0 -0.321421
    outer loop
      vertex 32.2018 17 9.46586
      vertex 32.0189 27 10.0047
      vertex 32.2018 27 9.46586
    endloop
  endfacet
  facet normal -0.946936 -0 -0.321421
    outer loop
      vertex 32.0189 27 10.0047
      vertex 32.2018 17 9.46586
      vertex 32.0189 17 10.0047
    endloop
  endfacet
  facet normal 0.4423 0 0.896867
    outer loop
      vertex 25.825 27 4.57279
      vertex 26.3353 17 4.32113
      vertex 26.3353 27 4.32113
    endloop
  endfacet
  facet normal 0.4423 0 0.896867
    outer loop
      vertex 26.3353 17 4.32113
      vertex 25.825 27 4.57279
      vertex 25.825 17 4.57279
    endloop
  endfacet
  facet normal 0.89685 -0 0.442335
    outer loop
      vertex 23.9811 17 6.67533
      vertex 24.2328 27 6.165
      vertex 23.9811 27 6.67533
    endloop
  endfacet
  facet normal 0.89685 0 0.442335
    outer loop
      vertex 24.2328 27 6.165
      vertex 23.9811 17 6.67533
      vertex 24.2328 17 6.165
    endloop
  endfacet
  facet normal 0.896839 0 -0.442356
    outer loop
      vertex 24.2328 17 10.515
      vertex 23.9811 27 10.0047
      vertex 24.2328 27 10.515
    endloop
  endfacet
  facet normal 0.896839 0 -0.442356
    outer loop
      vertex 23.9811 27 10.0047
      vertex 24.2328 17 10.515
      vertex 23.9811 17 10.0047
    endloop
  endfacet
  facet normal 0.980788 0 -0.195078
    outer loop
      vertex 23.7982 17 9.46586
      vertex 23.6872 27 8.90779
      vertex 23.7982 27 9.46586
    endloop
  endfacet
  facet normal 0.980788 0 -0.195078
    outer loop
      vertex 23.6872 27 8.90779
      vertex 23.7982 17 9.46586
      vertex 23.6872 17 8.90779
    endloop
  endfacet
  facet normal -0.555552 0 -0.831482
    outer loop
      vertex 30.175 17 12.1072
      vertex 30.6481 27 11.7911
      vertex 30.6481 17 11.7911
    endloop
  endfacet
  facet normal -0.555552 0 -0.831482
    outer loop
      vertex 30.6481 27 11.7911
      vertex 30.175 17 12.1072
      vertex 30.175 27 12.1072
    endloop
  endfacet
  facet normal 0.946931 -0 0.321437
    outer loop
      vertex 23.7982 17 7.21414
      vertex 23.9811 27 6.67533
      vertex 23.7982 27 7.21414
    endloop
  endfacet
  facet normal 0.946931 0 0.321437
    outer loop
      vertex 23.9811 27 6.67533
      vertex 23.7982 17 7.21414
      vertex 23.9811 17 6.67533
    endloop
  endfacet
  facet normal 0.555552 0 -0.831482
    outer loop
      vertex 25.3519 17 11.7911
      vertex 25.825 27 12.1072
      vertex 25.825 17 12.1072
    endloop
  endfacet
  facet normal 0.555552 0 -0.831482
    outer loop
      vertex 25.825 27 12.1072
      vertex 25.3519 17 11.7911
      vertex 25.3519 27 11.7911
    endloop
  endfacet
  facet normal -0.0654109 0 0.997858
    outer loop
      vertex 28 27 3.99
      vertex 28.5678 17 4.02722
      vertex 28.5678 27 4.02722
    endloop
  endfacet
  facet normal -0.0654109 0 0.997858
    outer loop
      vertex 28.5678 17 4.02722
      vertex 28 27 3.99
      vertex 28 17 3.99
    endloop
  endfacet
  facet normal -0.831454 0 0.555594
    outer loop
      vertex 31.5233 17 5.8
      vertex 31.7672 27 6.165
      vertex 31.5233 27 5.8
    endloop
  endfacet
  facet normal -0.831454 0 0.555594
    outer loop
      vertex 31.7672 27 6.165
      vertex 31.5233 17 5.8
      vertex 31.7672 17 6.165
    endloop
  endfacet
  facet normal -0.4423 0 0.896867
    outer loop
      vertex 29.6647 27 4.32113
      vertex 30.175 17 4.57279
      vertex 30.175 27 4.57279
    endloop
  endfacet
  facet normal -0.4423 0 0.896867
    outer loop
      vertex 30.175 17 4.57279
      vertex 29.6647 27 4.32113
      vertex 29.6647 17 4.32113
    endloop
  endfacet
  facet normal -0.980788 0 0.195078
    outer loop
      vertex 32.2018 17 7.21414
      vertex 32.3128 27 7.77221
      vertex 32.2018 27 7.21414
    endloop
  endfacet
  facet normal -0.980788 0 0.195078
    outer loop
      vertex 32.3128 27 7.77221
      vertex 32.2018 17 7.21414
      vertex 32.3128 17 7.77221
    endloop
  endfacet
  facet normal 0.659375 0 -0.751814
    outer loop
      vertex 24.9241 17 11.4159
      vertex 25.3519 27 11.7911
      vertex 25.3519 17 11.7911
    endloop
  endfacet
  facet normal 0.659375 0 -0.751814
    outer loop
      vertex 25.3519 27 11.7911
      vertex 24.9241 17 11.4159
      vertex 24.9241 27 11.4159
    endloop
  endfacet
  facet normal -0.321458 0 0.946924
    outer loop
      vertex 29.1259 27 4.13822
      vertex 29.6647 17 4.32113
      vertex 29.6647 27 4.32113
    endloop
  endfacet
  facet normal -0.321458 0 0.946924
    outer loop
      vertex 29.6647 17 4.32113
      vertex 29.1259 27 4.13822
      vertex 29.1259 17 4.13822
    endloop
  endfacet
  facet normal 0.659323 0 0.75186
    outer loop
      vertex 25.27 27 4.96073
      vertex 25.3519 17 4.88891
      vertex 25.3519 27 4.88891
    endloop
  endfacet
  facet normal 0.659323 0 0.75186
    outer loop
      vertex 25.3519 17 4.88891
      vertex 25.27 27 4.96073
      vertex 25.27 17 4.96073
    endloop
  endfacet
  facet normal -0.89685 0 0.442335
    outer loop
      vertex 31.7672 17 6.165
      vertex 32.0189 27 6.67533
      vertex 31.7672 27 6.165
    endloop
  endfacet
  facet normal -0.89685 0 0.442335
    outer loop
      vertex 32.0189 27 6.67533
      vertex 31.7672 17 6.165
      vertex 32.0189 17 6.67533
    endloop
  endfacet
  facet normal -0.997861 0 0.065377
    outer loop
      vertex 32.3128 17 7.77221
      vertex 32.35 27 8.34
      vertex 32.3128 27 7.77221
    endloop
  endfacet
  facet normal -0.997861 0 0.065377
    outer loop
      vertex 32.35 27 8.34
      vertex 32.3128 17 7.77221
      vertex 32.35 17 8.34
    endloop
  endfacet
  facet normal 0.946936 0 -0.321421
    outer loop
      vertex 23.9811 17 10.0047
      vertex 23.7982 27 9.46586
      vertex 23.9811 27 10.0047
    endloop
  endfacet
  facet normal 0.946936 0 -0.321421
    outer loop
      vertex 23.7982 27 9.46586
      vertex 23.9811 17 10.0047
      vertex 23.7982 17 9.46586
    endloop
  endfacet
  facet normal 0.195068 0 0.98079
    outer loop
      vertex 26.8741 27 4.13822
      vertex 27.4322 17 4.02722
      vertex 27.4322 27 4.02722
    endloop
  endfacet
  facet normal 0.195068 0 0.98079
    outer loop
      vertex 27.4322 17 4.02722
      vertex 26.8741 27 4.13822
      vertex 26.8741 17 4.13822
    endloop
  endfacet
  facet normal -0.659375 0 -0.751814
    outer loop
      vertex 30.6481 17 11.7911
      vertex 31.0759 27 11.4159
      vertex 31.0759 17 11.4159
    endloop
  endfacet
  facet normal -0.659375 0 -0.751814
    outer loop
      vertex 31.0759 27 11.4159
      vertex 30.6481 17 11.7911
      vertex 30.6481 27 11.7911
    endloop
  endfacet
  facet normal -0.751814 0 -0.659375
    outer loop
      vertex 31.4511 17 10.9881
      vertex 31.0759 27 11.4159
      vertex 31.4511 27 10.9881
    endloop
  endfacet
  facet normal -0.751814 -0 -0.659375
    outer loop
      vertex 31.0759 27 11.4159
      vertex 31.4511 17 10.9881
      vertex 31.0759 17 11.4159
    endloop
  endfacet
  facet normal -0.555576 0 0.831466
    outer loop
      vertex 30.175 27 4.57279
      vertex 30.6481 17 4.88891
      vertex 30.6481 27 4.88891
    endloop
  endfacet
  facet normal -0.555576 0 0.831466
    outer loop
      vertex 30.6481 17 4.88891
      vertex 30.175 27 4.57279
      vertex 30.175 17 4.57279
    endloop
  endfacet
  facet normal -0.896839 0 -0.442356
    outer loop
      vertex 32.0189 17 10.0047
      vertex 31.7672 27 10.515
      vertex 32.0189 27 10.0047
    endloop
  endfacet
  facet normal -0.896839 -0 -0.442356
    outer loop
      vertex 31.7672 27 10.515
      vertex 32.0189 17 10.0047
      vertex 31.7672 17 10.515
    endloop
  endfacet
  facet normal -0.831482 0 -0.555552
    outer loop
      vertex 31.7672 17 10.515
      vertex 31.4511 27 10.9881
      vertex 31.7672 27 10.515
    endloop
  endfacet
  facet normal -0.831482 -0 -0.555552
    outer loop
      vertex 31.4511 27 10.9881
      vertex 31.7672 17 10.515
      vertex 31.4511 17 10.9881
    endloop
  endfacet
  facet normal 0.0654109 0 0.997858
    outer loop
      vertex 27.4322 27 4.02722
      vertex 28 17 3.99
      vertex 28 27 3.99
    endloop
  endfacet
  facet normal 0.0654109 0 0.997858
    outer loop
      vertex 28 17 3.99
      vertex 27.4322 27 4.02722
      vertex 27.4322 17 4.02722
    endloop
  endfacet
  facet normal -0.195068 0 0.98079
    outer loop
      vertex 28.5678 27 4.02722
      vertex 29.1259 17 4.13822
      vertex 29.1259 27 4.13822
    endloop
  endfacet
  facet normal -0.195068 0 0.98079
    outer loop
      vertex 29.1259 17 4.13822
      vertex 28.5678 27 4.02722
      vertex 28.5678 17 4.02722
    endloop
  endfacet
  facet normal -0.659323 0 0.75186
    outer loop
      vertex 30.6481 27 4.88891
      vertex 30.73 17 4.96073
      vertex 30.73 27 4.96073
    endloop
  endfacet
  facet normal -0.659323 0 0.75186
    outer loop
      vertex 30.73 17 4.96073
      vertex 30.6481 27 4.88891
      vertex 30.6481 17 4.88891
    endloop
  endfacet
  facet normal 0.980788 -0 0.195078
    outer loop
      vertex 23.6872 17 7.77221
      vertex 23.7982 27 7.21414
      vertex 23.6872 27 7.77221
    endloop
  endfacet
  facet normal 0.980788 0 0.195078
    outer loop
      vertex 23.7982 27 7.21414
      vertex 23.6872 17 7.77221
      vertex 23.7982 17 7.21414
    endloop
  endfacet
  facet normal -0.946931 0 0.321437
    outer loop
      vertex 32.0189 17 6.67533
      vertex 32.2018 27 7.21414
      vertex 32.0189 27 6.67533
    endloop
  endfacet
  facet normal -0.946931 0 0.321437
    outer loop
      vertex 32.2018 27 7.21414
      vertex 32.0189 17 6.67533
      vertex 32.2018 17 7.21414
    endloop
  endfacet
  facet normal 0.831454 -0 0.555594
    outer loop
      vertex 24.2328 17 6.165
      vertex 24.4767 27 5.8
      vertex 24.2328 27 6.165
    endloop
  endfacet
  facet normal 0.831454 0 0.555594
    outer loop
      vertex 24.4767 27 5.8
      vertex 24.2328 17 6.165
      vertex 24.4767 17 5.8
    endloop
  endfacet
  facet normal 0.442232 0 -0.896901
    outer loop
      vertex 25.825 17 12.1072
      vertex 26.2 27 12.2921
      vertex 26.2 17 12.2921
    endloop
  endfacet
  facet normal 0.442232 0 -0.896901
    outer loop
      vertex 26.2 27 12.2921
      vertex 25.825 17 12.1072
      vertex 25.825 27 12.1072
    endloop
  endfacet
  facet normal 0.751814 0 -0.659375
    outer loop
      vertex 24.9241 17 11.4159
      vertex 24.5489 27 10.9881
      vertex 24.9241 27 11.4159
    endloop
  endfacet
  facet normal 0.751814 0 -0.659375
    outer loop
      vertex 24.5489 27 10.9881
      vertex 24.9241 17 11.4159
      vertex 24.5489 17 10.9881
    endloop
  endfacet
  facet normal 0.831482 0 -0.555552
    outer loop
      vertex 24.5489 17 10.9881
      vertex 24.2328 27 10.515
      vertex 24.5489 27 10.9881
    endloop
  endfacet
  facet normal 0.831482 0 -0.555552
    outer loop
      vertex 24.2328 27 10.515
      vertex 24.5489 17 10.9881
      vertex 24.2328 17 10.515
    endloop
  endfacet
  facet normal 0.555576 0 0.831466
    outer loop
      vertex 25.3519 27 4.88891
      vertex 25.825 17 4.57279
      vertex 25.825 27 4.57279
    endloop
  endfacet
  facet normal 0.555576 0 0.831466
    outer loop
      vertex 25.825 17 4.57279
      vertex 25.3519 27 4.88891
      vertex 25.3519 17 4.88891
    endloop
  endfacet
  facet normal -1 0 0
    outer loop
      vertex 29.8 17 12.2921
      vertex 29.8 27 14.6313
      vertex 29.8 27 12.2921
    endloop
  endfacet
  facet normal -1 -0 0
    outer loop
      vertex 29.8 27 14.6313
      vertex 29.8 17 12.2921
      vertex 29.8 17 14.6313
    endloop
  endfacet
  facet normal 1 -0 0
    outer loop
      vertex 26.2 17 14.6313
      vertex 26.2 27 12.2921
      vertex 26.2 27 14.6313
    endloop
  endfacet
  facet normal 1 0 0
    outer loop
      vertex 26.2 27 12.2921
      vertex 26.2 17 14.6313
      vertex 26.2 17 12.2921
    endloop
  endfacet
  facet normal 1 -0 0
    outer loop
      vertex 25.27 17 5.8
      vertex 25.27 27 4.96073
      vertex 25.27 27 5.8
    endloop
  endfacet
  facet normal 1 0 0
    outer loop
      vertex 25.27 27 4.96073
      vertex 25.27 17 5.8
      vertex 25.27 17 4.96073
    endloop
  endfacet
  facet normal -0 0 1
    outer loop
      vertex 24.4767 27 5.8
      vertex 25.27 17 5.8
      vertex 25.27 27 5.8
    endloop
  endfacet
  facet normal 0 0 1
    outer loop
      vertex 25.27 17 5.8
      vertex 24.4767 27 5.8
      vertex 24.4767 17 5.8
    endloop
  endfacet
  facet normal -1 0 0
    outer loop
      vertex 22.87 17 3
      vertex 22.87 27 4.27682
      vertex 22.87 27 3
    endloop
  endfacet
  facet normal -1 -0 0
    outer loop
      vertex 22.87 27 4.27682
      vertex 22.87 17 3
      vertex 22.87 17 4.27682
    endloop
  endfacet
  facet normal 1 -0 0
    outer loop
      vertex 33.13 17 4.27682
      vertex 33.13 27 3
      vertex 33.13 27 4.27682
    endloop
  endfacet
  facet normal 1 0 0
    outer loop
      vertex 33.13 27 3
      vertex 33.13 17 4.27682
      vertex 33.13 17 3
    endloop
  endfacet
  facet normal -0 0 1
    outer loop
      vertex 30.73 27 5.8
      vertex 31.5233 17 5.8
      vertex 31.5233 27 5.8
    endloop
  endfacet
  facet normal 0 0 1
    outer loop
      vertex 31.5233 17 5.8
      vertex 30.73 27 5.8
      vertex 30.73 17 5.8
    endloop
  endfacet
  facet normal -1 0 0
    outer loop
      vertex 30.73 17 4.96073
      vertex 30.73 27 5.8
      vertex 30.73 27 4.96073
    endloop
  endfacet
  facet normal -1 -0 0
    outer loop
      vertex 30.73 27 5.8
      vertex 30.73 17 4.96073
      vertex 30.73 17 5.8
    endloop
  endfacet
  facet normal 0.946957 -0.32136 0
    outer loop
      vertex 41.8097 13.5433 3
      vertex 41.9148 13.853 0
      vertex 41.9148 13.853 3
    endloop
  endfacet
  facet normal 0.946957 -0.32136 0
    outer loop
      vertex 41.9148 13.853 0
      vertex 41.8097 13.5433 3
      vertex 41.8097 13.5433 0
    endloop
  endfacet
  facet normal -0.0654432 -0.997856 0
    outer loop
      vertex 16.1737 12.0214 0
      vertex 16.5 12 3
      vertex 16.1737 12.0214 3
    endloop
  endfacet
  facet normal -0.0654432 -0.997856 -0
    outer loop
      vertex 16.5 12 3
      vertex 16.1737 12.0214 0
      vertex 16.5 12 0
    endloop
  endfacet
  facet normal -0.997856 -0.0654432 0
    outer loop
      vertex 14.0214 14.1737 0
      vertex 14 14.5 3
      vertex 14 14.5 0
    endloop
  endfacet
  facet normal -0.997856 -0.0654432 0
    outer loop
      vertex 14 14.5 3
      vertex 14.0214 14.1737 0
      vertex 14.0214 14.1737 3
    endloop
  endfacet
  facet normal -0.659262 0.751913 0
    outer loop
      vertex 14.9781 31.4834 0
      vertex 14.7322 31.2678 3
      vertex 14.9781 31.4834 3
    endloop
  endfacet
  facet normal -0.659262 0.751913 0
    outer loop
      vertex 14.7322 31.2678 3
      vertex 14.9781 31.4834 0
      vertex 14.7322 31.2678 0
    endloop
  endfacet
  facet normal 0.195116 -0.98078 0
    outer loop
      vertex 39.8263 12.0214 0
      vertex 40.147 12.0852 3
      vertex 39.8263 12.0214 3
    endloop
  endfacet
  facet normal 0.195116 -0.98078 0
    outer loop
      vertex 40.147 12.0852 3
      vertex 39.8263 12.0214 0
      vertex 40.147 12.0852 0
    endloop
  endfacet
  facet normal -0.555617 -0.831438 0
    outer loop
      vertex 14.9781 12.5166 0
      vertex 15.25 12.3349 3
      vertex 14.9781 12.5166 3
    endloop
  endfacet
  facet normal -0.555617 -0.831438 -0
    outer loop
      vertex 15.25 12.3349 3
      vertex 14.9781 12.5166 0
      vertex 15.25 12.3349 0
    endloop
  endfacet
  facet normal 0 -1 0
    outer loop
      vertex 16.5 12 0
      vertex 39.5 12 3
      vertex 16.5 12 3
    endloop
  endfacet
  facet normal 0 -1 -0
    outer loop
      vertex 39.5 12 3
      vertex 16.5 12 0
      vertex 39.5 12 0
    endloop
  endfacet
  facet normal 0.555617 -0.831438 0
    outer loop
      vertex 40.75 12.3349 0
      vertex 41.0219 12.5166 3
      vertex 40.75 12.3349 3
    endloop
  endfacet
  facet normal 0.555617 -0.831438 0
    outer loop
      vertex 41.0219 12.5166 3
      vertex 40.75 12.3349 0
      vertex 41.0219 12.5166 0
    endloop
  endfacet
  facet normal 0.98078 -0.195116 0
    outer loop
      vertex 41.9148 13.853 3
      vertex 41.9786 14.1737 0
      vertex 41.9786 14.1737 3
    endloop
  endfacet
  facet normal 0.98078 -0.195116 0
    outer loop
      vertex 41.9786 14.1737 0
      vertex 41.9148 13.853 3
      vertex 41.9148 13.853 0
    endloop
  endfacet
  facet normal 0.0654432 -0.997856 0
    outer loop
      vertex 39.5 12 0
      vertex 39.8263 12.0214 3
      vertex 39.5 12 3
    endloop
  endfacet
  facet normal 0.0654432 -0.997856 0
    outer loop
      vertex 39.8263 12.0214 3
      vertex 39.5 12 0
      vertex 39.8263 12.0214 0
    endloop
  endfacet
  facet normal 0.555617 0.831438 -0
    outer loop
      vertex 41.0219 31.4834 0
      vertex 40.75 31.6651 3
      vertex 41.0219 31.4834 3
    endloop
  endfacet
  facet normal 0.555617 0.831438 0
    outer loop
      vertex 40.75 31.6651 3
      vertex 41.0219 31.4834 0
      vertex 40.75 31.6651 0
    endloop
  endfacet
  facet normal -0.0654432 0.997856 0
    outer loop
      vertex 16.5 32 0
      vertex 16.1737 31.9786 3
      vertex 16.5 32 3
    endloop
  endfacet
  facet normal -0.0654432 0.997856 0
    outer loop
      vertex 16.1737 31.9786 3
      vertex 16.5 32 0
      vertex 16.1737 31.9786 0
    endloop
  endfacet
  facet normal 0.32136 -0.946957 0
    outer loop
      vertex 40.147 12.0852 0
      vertex 40.4567 12.1903 3
      vertex 40.147 12.0852 3
    endloop
  endfacet
  facet normal 0.32136 -0.946957 0
    outer loop
      vertex 40.4567 12.1903 3
      vertex 40.147 12.0852 0
      vertex 40.4567 12.1903 0
    endloop
  endfacet
  facet normal 0 1 -0
    outer loop
      vertex 39.5 32 0
      vertex 16.5 32 3
      vertex 39.5 32 3
    endloop
  endfacet
  facet normal 0 1 0
    outer loop
      vertex 16.5 32 3
      vertex 39.5 32 0
      vertex 16.5 32 0
    endloop
  endfacet
  facet normal 0.751913 -0.659262 0
    outer loop
      vertex 41.2678 12.7322 3
      vertex 41.4834 12.9781 0
      vertex 41.4834 12.9781 3
    endloop
  endfacet
  facet normal 0.751913 -0.659262 0
    outer loop
      vertex 41.4834 12.9781 0
      vertex 41.2678 12.7322 3
      vertex 41.2678 12.7322 0
    endloop
  endfacet
  facet normal -0.997856 0.0654432 0
    outer loop
      vertex 14 29.5 0
      vertex 14.0214 29.8263 3
      vertex 14.0214 29.8263 0
    endloop
  endfacet
  facet normal -0.997856 0.0654432 0
    outer loop
      vertex 14.0214 29.8263 3
      vertex 14 29.5 0
      vertex 14 29.5 3
    endloop
  endfacet
  facet normal 0.442191 -0.896921 0
    outer loop
      vertex 40.4567 12.1903 0
      vertex 40.75 12.3349 3
      vertex 40.4567 12.1903 3
    endloop
  endfacet
  facet normal 0.442191 -0.896921 0
    outer loop
      vertex 40.75 12.3349 3
      vertex 40.4567 12.1903 0
      vertex 40.75 12.3349 0
    endloop
  endfacet
  facet normal -0.946957 0.32136 0
    outer loop
      vertex 14.0852 30.147 0
      vertex 14.1903 30.4567 3
      vertex 14.1903 30.4567 0
    endloop
  endfacet
  facet normal -0.946957 0.32136 0
    outer loop
      vertex 14.1903 30.4567 3
      vertex 14.0852 30.147 0
      vertex 14.0852 30.147 3
    endloop
  endfacet
  facet normal 1 -0 0
    outer loop
      vertex 42 14.5 3
      vertex 42 29.5 0
      vertex 42 29.5 3
    endloop
  endfacet
  facet normal 1 0 0
    outer loop
      vertex 42 29.5 0
      vertex 42 14.5 3
      vertex 42 14.5 0
    endloop
  endfacet
  facet normal 0.831438 0.555617 0
    outer loop
      vertex 41.6651 30.75 3
      vertex 41.4834 31.0219 0
      vertex 41.4834 31.0219 3
    endloop
  endfacet
  facet normal 0.831438 0.555617 0
    outer loop
      vertex 41.4834 31.0219 0
      vertex 41.6651 30.75 3
      vertex 41.6651 30.75 0
    endloop
  endfacet
  facet normal 0.195116 0.98078 -0
    outer loop
      vertex 40.147 31.9148 0
      vertex 39.8263 31.9786 3
      vertex 40.147 31.9148 3
    endloop
  endfacet
  facet normal 0.195116 0.98078 0
    outer loop
      vertex 39.8263 31.9786 3
      vertex 40.147 31.9148 0
      vertex 39.8263 31.9786 0
    endloop
  endfacet
  facet normal -0.442191 0.896921 0
    outer loop
      vertex 15.5433 31.8097 0
      vertex 15.25 31.6651 3
      vertex 15.5433 31.8097 3
    endloop
  endfacet
  facet normal -0.442191 0.896921 0
    outer loop
      vertex 15.25 31.6651 3
      vertex 15.5433 31.8097 0
      vertex 15.25 31.6651 0
    endloop
  endfacet
  facet normal -0.946957 -0.32136 0
    outer loop
      vertex 14.1903 13.5433 0
      vertex 14.0852 13.853 3
      vertex 14.0852 13.853 0
    endloop
  endfacet
  facet normal -0.946957 -0.32136 0
    outer loop
      vertex 14.0852 13.853 3
      vertex 14.1903 13.5433 0
      vertex 14.1903 13.5433 3
    endloop
  endfacet
  facet normal -0.555617 0.831438 0
    outer loop
      vertex 15.25 31.6651 0
      vertex 14.9781 31.4834 3
      vertex 15.25 31.6651 3
    endloop
  endfacet
  facet normal -0.555617 0.831438 0
    outer loop
      vertex 14.9781 31.4834 3
      vertex 15.25 31.6651 0
      vertex 14.9781 31.4834 0
    endloop
  endfacet
  facet normal -0.831438 -0.555617 0
    outer loop
      vertex 14.5166 12.9781 0
      vertex 14.3349 13.25 3
      vertex 14.3349 13.25 0
    endloop
  endfacet
  facet normal -0.831438 -0.555617 0
    outer loop
      vertex 14.3349 13.25 3
      vertex 14.5166 12.9781 0
      vertex 14.5166 12.9781 3
    endloop
  endfacet
  facet normal -0.831438 0.555617 0
    outer loop
      vertex 14.3349 30.75 0
      vertex 14.5166 31.0219 3
      vertex 14.5166 31.0219 0
    endloop
  endfacet
  facet normal -0.831438 0.555617 0
    outer loop
      vertex 14.5166 31.0219 3
      vertex 14.3349 30.75 0
      vertex 14.3349 30.75 3
    endloop
  endfacet
  facet normal -0.32136 0.946957 0
    outer loop
      vertex 15.853 31.9148 0
      vertex 15.5433 31.8097 3
      vertex 15.853 31.9148 3
    endloop
  endfacet
  facet normal -0.32136 0.946957 0
    outer loop
      vertex 15.5433 31.8097 3
      vertex 15.853 31.9148 0
      vertex 15.5433 31.8097 0
    endloop
  endfacet
  facet normal 0.0654432 0.997856 -0
    outer loop
      vertex 39.8263 31.9786 0
      vertex 39.5 32 3
      vertex 39.8263 31.9786 3
    endloop
  endfacet
  facet normal 0.0654432 0.997856 0
    outer loop
      vertex 39.5 32 3
      vertex 39.8263 31.9786 0
      vertex 39.5 32 0
    endloop
  endfacet
  facet normal 0.896921 -0.442191 0
    outer loop
      vertex 41.6651 13.25 3
      vertex 41.8097 13.5433 0
      vertex 41.8097 13.5433 3
    endloop
  endfacet
  facet normal 0.896921 -0.442191 0
    outer loop
      vertex 41.8097 13.5433 0
      vertex 41.6651 13.25 3
      vertex 41.6651 13.25 0
    endloop
  endfacet
  facet normal 0.659262 -0.751913 0
    outer loop
      vertex 41.0219 12.5166 0
      vertex 41.2678 12.7322 3
      vertex 41.0219 12.5166 3
    endloop
  endfacet
  facet normal 0.659262 -0.751913 0
    outer loop
      vertex 41.2678 12.7322 3
      vertex 41.0219 12.5166 0
      vertex 41.2678 12.7322 0
    endloop
  endfacet
  facet normal -0.896921 0.442191 0
    outer loop
      vertex 14.1903 30.4567 0
      vertex 14.3349 30.75 3
      vertex 14.3349 30.75 0
    endloop
  endfacet
  facet normal -0.896921 0.442191 0
    outer loop
      vertex 14.3349 30.75 3
      vertex 14.1903 30.4567 0
      vertex 14.1903 30.4567 3
    endloop
  endfacet
  facet normal -1 0 0
    outer loop
      vertex 14 14.5 0
      vertex 14 29.5 3
      vertex 14 29.5 0
    endloop
  endfacet
  facet normal -1 -0 0
    outer loop
      vertex 14 29.5 3
      vertex 14 14.5 0
      vertex 14 14.5 3
    endloop
  endfacet
  facet normal 0.442191 0.896921 -0
    outer loop
      vertex 40.75 31.6651 0
      vertex 40.4567 31.8097 3
      vertex 40.75 31.6651 3
    endloop
  endfacet
  facet normal 0.442191 0.896921 0
    outer loop
      vertex 40.4567 31.8097 3
      vertex 40.75 31.6651 0
      vertex 40.4567 31.8097 0
    endloop
  endfacet
  facet normal -0.98078 0.195116 0
    outer loop
      vertex 14.0214 29.8263 0
      vertex 14.0852 30.147 3
      vertex 14.0852 30.147 0
    endloop
  endfacet
  facet normal -0.98078 0.195116 0
    outer loop
      vertex 14.0852 30.147 3
      vertex 14.0214 29.8263 0
      vertex 14.0214 29.8263 3
    endloop
  endfacet
  facet normal 0 0 -1
    outer loop
      vertex 39.5 12 0
      vertex 42 14.5 0
      vertex 41.9786 14.1737 0
    endloop
  endfacet
  facet normal -0 0 -1
    outer loop
      vertex 42 14.5 0
      vertex 39.5 12 0
      vertex 42 29.5 0
    endloop
  endfacet
  facet normal 0 0 -1
    outer loop
      vertex 39.5 12 0
      vertex 41.9786 14.1737 0
      vertex 41.9148 13.853 0
    endloop
  endfacet
  facet normal 0 0 -1
    outer loop
      vertex 39.5 32 0
      vertex 42 29.5 0
      vertex 39.5 12 0
    endloop
  endfacet
  facet normal 0 0 -1
    outer loop
      vertex 39.5 12 0
      vertex 41.9148 13.853 0
      vertex 41.8097 13.5433 0
    endloop
  endfacet
  facet normal 0 0 -1
    outer loop
      vertex 42 29.5 0
      vertex 39.5 32 0
      vertex 41.9786 29.8263 0
    endloop
  endfacet
  facet normal 0 0 -1
    outer loop
      vertex 39.5 12 0
      vertex 41.8097 13.5433 0
      vertex 41.6651 13.25 0
    endloop
  endfacet
  facet normal 0 0 -1
    outer loop
      vertex 41.9786 29.8263 0
      vertex 39.5 32 0
      vertex 41.9148 30.147 0
    endloop
  endfacet
  facet normal 0 0 -1
    outer loop
      vertex 39.5 12 0
      vertex 41.6651 13.25 0
      vertex 41.4834 12.9781 0
    endloop
  endfacet
  facet normal 0 0 -1
    outer loop
      vertex 41.9148 30.147 0
      vertex 39.5 32 0
      vertex 41.8097 30.4567 0
    endloop
  endfacet
  facet normal 0 0 -1
    outer loop
      vertex 39.5 12 0
      vertex 41.4834 12.9781 0
      vertex 41.2678 12.7322 0
    endloop
  endfacet
  facet normal 0 0 -1
    outer loop
      vertex 41.8097 30.4567 0
      vertex 39.5 32 0
      vertex 41.6651 30.75 0
    endloop
  endfacet
  facet normal 0 0 -1
    outer loop
      vertex 39.5 12 0
      vertex 41.2678 12.7322 0
      vertex 41.0219 12.5166 0
    endloop
  endfacet
  facet normal 0 0 -1
    outer loop
      vertex 41.6651 30.75 0
      vertex 39.5 32 0
      vertex 41.4834 31.0219 0
    endloop
  endfacet
  facet normal 0 0 -1
    outer loop
      vertex 39.5 12 0
      vertex 41.0219 12.5166 0
      vertex 40.75 12.3349 0
    endloop
  endfacet
  facet normal 0 0 -1
    outer loop
      vertex 41.4834 31.0219 0
      vertex 39.5 32 0
      vertex 41.2678 31.2678 0
    endloop
  endfacet
  facet normal 0 0 -1
    outer loop
      vertex 39.5 12 0
      vertex 40.75 12.3349 0
      vertex 40.4567 12.1903 0
    endloop
  endfacet
  facet normal 0 0 -1
    outer loop
      vertex 41.2678 31.2678 0
      vertex 39.5 32 0
      vertex 41.0219 31.4834 0
    endloop
  endfacet
  facet normal 0 0 -1
    outer loop
      vertex 39.5 12 0
      vertex 40.4567 12.1903 0
      vertex 40.147 12.0852 0
    endloop
  endfacet
  facet normal 0 0 -1
    outer loop
      vertex 41.0219 31.4834 0
      vertex 39.5 32 0
      vertex 40.75 31.6651 0
    endloop
  endfacet
  facet normal 0 0 -1
    outer loop
      vertex 39.5 12 0
      vertex 40.147 12.0852 0
      vertex 39.8263 12.0214 0
    endloop
  endfacet
  facet normal 0 0 -1
    outer loop
      vertex 40.75 31.6651 0
      vertex 39.5 32 0
      vertex 40.4567 31.8097 0
    endloop
  endfacet
  facet normal 0 0 -1
    outer loop
      vertex 40.4567 31.8097 0
      vertex 39.5 32 0
      vertex 40.147 31.9148 0
    endloop
  endfacet
  facet normal 0 0 -1
    outer loop
      vertex 40.147 31.9148 0
      vertex 39.5 32 0
      vertex 39.8263 31.9786 0
    endloop
  endfacet
  facet normal 0 0 -1
    outer loop
      vertex 16.5 12 0
      vertex 39.5 32 0
      vertex 39.5 12 0
    endloop
  endfacet
  facet normal 0 0 -1
    outer loop
      vertex 16.5 12 0
      vertex 16.5 32 0
      vertex 39.5 32 0
    endloop
  endfacet
  facet normal 0 0 -1
    outer loop
      vertex 14 14.5 0
      vertex 16.5 12 0
      vertex 16.1737 12.0214 0
    endloop
  endfacet
  facet normal 0 0 -1
    outer loop
      vertex 16.5 12 0
      vertex 14 14.5 0
      vertex 16.5 32 0
    endloop
  endfacet
  facet normal 0 0 -1
    outer loop
      vertex 14 14.5 0
      vertex 16.1737 12.0214 0
      vertex 15.853 12.0852 0
    endloop
  endfacet
  facet normal 0 0 -1
    outer loop
      vertex 14 29.5 0
      vertex 16.5 32 0
      vertex 14 14.5 0
    endloop
  endfacet
  facet normal 0 0 -1
    outer loop
      vertex 14 14.5 0
      vertex 15.853 12.0852 0
      vertex 15.5433 12.1903 0
    endloop
  endfacet
  facet normal 0 0 -1
    outer loop
      vertex 16.5 32 0
      vertex 14 29.5 0
      vertex 16.1737 31.9786 0
    endloop
  endfacet
  facet normal 0 0 -1
    outer loop
      vertex 14 14.5 0
      vertex 15.5433 12.1903 0
      vertex 15.25 12.3349 0
    endloop
  endfacet
  facet normal 0 0 -1
    outer loop
      vertex 16.1737 31.9786 0
      vertex 14 29.5 0
      vertex 15.853 31.9148 0
    endloop
  endfacet
  facet normal 0 0 -1
    outer loop
      vertex 14 14.5 0
      vertex 15.25 12.3349 0
      vertex 14.9781 12.5166 0
    endloop
  endfacet
  facet normal 0 0 -1
    outer loop
      vertex 15.853 31.9148 0
      vertex 14 29.5 0
      vertex 15.5433 31.8097 0
    endloop
  endfacet
  facet normal 0 0 -1
    outer loop
      vertex 14 14.5 0
      vertex 14.9781 12.5166 0
      vertex 14.7322 12.7322 0
    endloop
  endfacet
  facet normal 0 0 -1
    outer loop
      vertex 15.5433 31.8097 0
      vertex 14 29.5 0
      vertex 15.25 31.6651 0
    endloop
  endfacet
  facet normal 0 0 -1
    outer loop
      vertex 14 14.5 0
      vertex 14.7322 12.7322 0
      vertex 14.5166 12.9781 0
    endloop
  endfacet
  facet normal 0 0 -1
    outer loop
      vertex 15.25 31.6651 0
      vertex 14 29.5 0
      vertex 14.9781 31.4834 0
    endloop
  endfacet
  facet normal 0 0 -1
    outer loop
      vertex 14 14.5 0
      vertex 14.5166 12.9781 0
      vertex 14.3349 13.25 0
    endloop
  endfacet
  facet normal 0 0 -1
    outer loop
      vertex 14.9781 31.4834 0
      vertex 14 29.5 0
      vertex 14.7322 31.2678 0
    endloop
  endfacet
  facet normal 0 0 -1
    outer loop
      vertex 14 14.5 0
      vertex 14.3349 13.25 0
      vertex 14.1903 13.5433 0
    endloop
  endfacet
  facet normal 0 0 -1
    outer loop
      vertex 14.7322 31.2678 0
      vertex 14 29.5 0
      vertex 14.5166 31.0219 0
    endloop
  endfacet
  facet normal 0 0 -1
    outer loop
      vertex 14 14.5 0
      vertex 14.1903 13.5433 0
      vertex 14.0852 13.853 0
    endloop
  endfacet
  facet normal 0 0 -1
    outer loop
      vertex 14.5166 31.0219 0
      vertex 14 29.5 0
      vertex 14.3349 30.75 0
    endloop
  endfacet
  facet normal 0 0 -1
    outer loop
      vertex 14 14.5 0
      vertex 14.0852 13.853 0
      vertex 14.0214 14.1737 0
    endloop
  endfacet
  facet normal 0 0 -1
    outer loop
      vertex 14.3349 30.75 0
      vertex 14 29.5 0
      vertex 14.1903 30.4567 0
    endloop
  endfacet
  facet normal 0 0 -1
    outer loop
      vertex 14.1903 30.4567 0
      vertex 14 29.5 0
      vertex 14.0852 30.147 0
    endloop
  endfacet
  facet normal 0 0 -1
    outer loop
      vertex 14.0852 30.147 0
      vertex 14 29.5 0
      vertex 14.0214 29.8263 0
    endloop
  endfacet
  facet normal -0.751913 -0.659262 0
    outer loop
      vertex 14.7322 12.7322 0
      vertex 14.5166 12.9781 3
      vertex 14.5166 12.9781 0
    endloop
  endfacet
  facet normal -0.751913 -0.659262 0
    outer loop
      vertex 14.5166 12.9781 3
      vertex 14.7322 12.7322 0
      vertex 14.7322 12.7322 3
    endloop
  endfacet
  facet normal -0.751913 0.659262 0
    outer loop
      vertex 14.5166 31.0219 0
      vertex 14.7322 31.2678 3
      vertex 14.7322 31.2678 0
    endloop
  endfacet
  facet normal -0.751913 0.659262 0
    outer loop
      vertex 14.7322 31.2678 3
      vertex 14.5166 31.0219 0
      vertex 14.5166 31.0219 3
    endloop
  endfacet
  facet normal 0.896921 0.442191 0
    outer loop
      vertex 41.8097 30.4567 3
      vertex 41.6651 30.75 0
      vertex 41.6651 30.75 3
    endloop
  endfacet
  facet normal 0.896921 0.442191 0
    outer loop
      vertex 41.6651 30.75 0
      vertex 41.8097 30.4567 3
      vertex 41.8097 30.4567 0
    endloop
  endfacet
  facet normal 0.997856 -0.0654432 0
    outer loop
      vertex 41.9786 14.1737 3
      vertex 42 14.5 0
      vertex 42 14.5 3
    endloop
  endfacet
  facet normal 0.997856 -0.0654432 0
    outer loop
      vertex 42 14.5 0
      vertex 41.9786 14.1737 3
      vertex 41.9786 14.1737 0
    endloop
  endfacet
  facet normal -0.195116 0.98078 0
    outer loop
      vertex 16.1737 31.9786 0
      vertex 15.853 31.9148 3
      vertex 16.1737 31.9786 3
    endloop
  endfacet
  facet normal -0.195116 0.98078 0
    outer loop
      vertex 15.853 31.9148 3
      vertex 16.1737 31.9786 0
      vertex 15.853 31.9148 0
    endloop
  endfacet
  facet normal 0.946957 0.32136 0
    outer loop
      vertex 41.9148 30.147 3
      vertex 41.8097 30.4567 0
      vertex 41.8097 30.4567 3
    endloop
  endfacet
  facet normal 0.946957 0.32136 0
    outer loop
      vertex 41.8097 30.4567 0
      vertex 41.9148 30.147 3
      vertex 41.9148 30.147 0
    endloop
  endfacet
  facet normal 0.32136 0.946957 -0
    outer loop
      vertex 40.4567 31.8097 0
      vertex 40.147 31.9148 3
      vertex 40.4567 31.8097 3
    endloop
  endfacet
  facet normal 0.32136 0.946957 0
    outer loop
      vertex 40.147 31.9148 3
      vertex 40.4567 31.8097 0
      vertex 40.147 31.9148 0
    endloop
  endfacet
  facet normal 0.831438 -0.555617 0
    outer loop
      vertex 41.4834 12.9781 3
      vertex 41.6651 13.25 0
      vertex 41.6651 13.25 3
    endloop
  endfacet
  facet normal 0.831438 -0.555617 0
    outer loop
      vertex 41.6651 13.25 0
      vertex 41.4834 12.9781 3
      vertex 41.4834 12.9781 0
    endloop
  endfacet
  facet normal 0.997856 0.0654432 0
    outer loop
      vertex 42 29.5 3
      vertex 41.9786 29.8263 0
      vertex 41.9786 29.8263 3
    endloop
  endfacet
  facet normal 0.997856 0.0654432 0
    outer loop
      vertex 41.9786 29.8263 0
      vertex 42 29.5 3
      vertex 42 29.5 0
    endloop
  endfacet
  facet normal -0.98078 -0.195116 0
    outer loop
      vertex 14.0852 13.853 0
      vertex 14.0214 14.1737 3
      vertex 14.0214 14.1737 0
    endloop
  endfacet
  facet normal -0.98078 -0.195116 0
    outer loop
      vertex 14.0214 14.1737 3
      vertex 14.0852 13.853 0
      vertex 14.0852 13.853 3
    endloop
  endfacet
  facet normal 0.659262 0.751913 -0
    outer loop
      vertex 41.2678 31.2678 0
      vertex 41.0219 31.4834 3
      vertex 41.2678 31.2678 3
    endloop
  endfacet
  facet normal 0.659262 0.751913 0
    outer loop
      vertex 41.0219 31.4834 3
      vertex 41.2678 31.2678 0
      vertex 41.0219 31.4834 0
    endloop
  endfacet
  facet normal -0.195116 -0.98078 0
    outer loop
      vertex 15.853 12.0852 0
      vertex 16.1737 12.0214 3
      vertex 15.853 12.0852 3
    endloop
  endfacet
  facet normal -0.195116 -0.98078 -0
    outer loop
      vertex 16.1737 12.0214 3
      vertex 15.853 12.0852 0
      vertex 16.1737 12.0214 0
    endloop
  endfacet
  facet normal -0.896921 -0.442191 0
    outer loop
      vertex 14.3349 13.25 0
      vertex 14.1903 13.5433 3
      vertex 14.1903 13.5433 0
    endloop
  endfacet
  facet normal -0.896921 -0.442191 0
    outer loop
      vertex 14.1903 13.5433 3
      vertex 14.3349 13.25 0
      vertex 14.3349 13.25 3
    endloop
  endfacet
  facet normal -0.659262 -0.751913 0
    outer loop
      vertex 14.7322 12.7322 0
      vertex 14.9781 12.5166 3
      vertex 14.7322 12.7322 3
    endloop
  endfacet
  facet normal -0.659262 -0.751913 -0
    outer loop
      vertex 14.9781 12.5166 3
      vertex 14.7322 12.7322 0
      vertex 14.9781 12.5166 0
    endloop
  endfacet
  facet normal -0.32136 -0.946957 0
    outer loop
      vertex 15.5433 12.1903 0
      vertex 15.853 12.0852 3
      vertex 15.5433 12.1903 3
    endloop
  endfacet
  facet normal -0.32136 -0.946957 -0
    outer loop
      vertex 15.853 12.0852 3
      vertex 15.5433 12.1903 0
      vertex 15.853 12.0852 0
    endloop
  endfacet
  facet normal 0.751913 0.659262 0
    outer loop
      vertex 41.4834 31.0219 3
      vertex 41.2678 31.2678 0
      vertex 41.2678 31.2678 3
    endloop
  endfacet
  facet normal 0.751913 0.659262 0
    outer loop
      vertex 41.2678 31.2678 0
      vertex 41.4834 31.0219 3
      vertex 41.4834 31.0219 0
    endloop
  endfacet
  facet normal 0 0 1
    outer loop
      vertex 39.5 32 3
      vertex 42 29.5 3
      vertex 41.9786 29.8263 3
    endloop
  endfacet
  facet normal 0 0 1
    outer loop
      vertex 42 29.5 3
      vertex 33.13 27 3
      vertex 42 14.5 3
    endloop
  endfacet
  facet normal 0 0 1
    outer loop
      vertex 39.5 32 3
      vertex 41.9786 29.8263 3
      vertex 41.9148 30.147 3
    endloop
  endfacet
  facet normal -0 0 1
    outer loop
      vertex 33.13 17 3
      vertex 42 14.5 3
      vertex 33.13 27 3
    endloop
  endfacet
  facet normal 0 0 1
    outer loop
      vertex 39.5 32 3
      vertex 41.9148 30.147 3
      vertex 41.8097 30.4567 3
    endloop
  endfacet
  facet normal 0 -0 1
    outer loop
      vertex 39.5 12 3
      vertex 42 14.5 3
      vertex 33.13 17 3
    endloop
  endfacet
  facet normal 0 0 1
    outer loop
      vertex 39.5 32 3
      vertex 41.8097 30.4567 3
      vertex 41.6651 30.75 3
    endloop
  endfacet
  facet normal 0 0 1
    outer loop
      vertex 42 14.5 3
      vertex 39.5 12 3
      vertex 41.9786 14.1737 3
    endloop
  endfacet
  facet normal 0 0 1
    outer loop
      vertex 39.5 32 3
      vertex 41.6651 30.75 3
      vertex 41.4834 31.0219 3
    endloop
  endfacet
  facet normal 0 0 1
    outer loop
      vertex 41.9786 14.1737 3
      vertex 39.5 12 3
      vertex 41.9148 13.853 3
    endloop
  endfacet
  facet normal 0 0 1
    outer loop
      vertex 39.5 32 3
      vertex 41.4834 31.0219 3
      vertex 41.2678 31.2678 3
    endloop
  endfacet
  facet normal 0 0 1
    outer loop
      vertex 41.9148 13.853 3
      vertex 39.5 12 3
      vertex 41.8097 13.5433 3
    endloop
  endfacet
  facet normal 0 0 1
    outer loop
      vertex 39.5 32 3
      vertex 41.2678 31.2678 3
      vertex 41.0219 31.4834 3
    endloop
  endfacet
  facet normal 0 0 1
    outer loop
      vertex 41.8097 13.5433 3
      vertex 39.5 12 3
      vertex 41.6651 13.25 3
    endloop
  endfacet
  facet normal 0 0 1
    outer loop
      vertex 39.5 32 3
      vertex 41.0219 31.4834 3
      vertex 40.75 31.6651 3
    endloop
  endfacet
  facet normal 0 0 1
    outer loop
      vertex 41.6651 13.25 3
      vertex 39.5 12 3
      vertex 41.4834 12.9781 3
    endloop
  endfacet
  facet normal 0 0 1
    outer loop
      vertex 39.5 32 3
      vertex 40.75 31.6651 3
      vertex 40.4567 31.8097 3
    endloop
  endfacet
  facet normal 0 0 1
    outer loop
      vertex 41.4834 12.9781 3
      vertex 39.5 12 3
      vertex 41.2678 12.7322 3
    endloop
  endfacet
  facet normal 0 0 1
    outer loop
      vertex 39.5 32 3
      vertex 40.4567 31.8097 3
      vertex 40.147 31.9148 3
    endloop
  endfacet
  facet normal 0 0 1
    outer loop
      vertex 41.2678 12.7322 3
      vertex 39.5 12 3
      vertex 41.0219 12.5166 3
    endloop
  endfacet
  facet normal 0 0 1
    outer loop
      vertex 39.5 32 3
      vertex 40.147 31.9148 3
      vertex 39.8263 31.9786 3
    endloop
  endfacet
  facet normal 0 0 1
    outer loop
      vertex 41.0219 12.5166 3
      vertex 39.5 12 3
      vertex 40.75 12.3349 3
    endloop
  endfacet
  facet normal 0 0 1
    outer loop
      vertex 42 29.5 3
      vertex 39.5 32 3
      vertex 33.13 27 3
    endloop
  endfacet
  facet normal 0 0 1
    outer loop
      vertex 40.75 12.3349 3
      vertex 39.5 12 3
      vertex 40.4567 12.1903 3
    endloop
  endfacet
  facet normal 0 0 1
    outer loop
      vertex 40.4567 12.1903 3
      vertex 39.5 12 3
      vertex 40.147 12.0852 3
    endloop
  endfacet
  facet normal 0 0 1
    outer loop
      vertex 39.5 32 3
      vertex 22.87 27 3
      vertex 33.13 27 3
    endloop
  endfacet
  facet normal -0 0 1
    outer loop
      vertex 14 29.5 3
      vertex 22.87 27 3
      vertex 16.5 32 3
    endloop
  endfacet
  facet normal -0 0 1
    outer loop
      vertex 16.5 32 3
      vertex 22.87 27 3
      vertex 39.5 32 3
    endloop
  endfacet
  facet normal 0 0 1
    outer loop
      vertex 40.147 12.0852 3
      vertex 39.5 12 3
      vertex 39.8263 12.0214 3
    endloop
  endfacet
  facet normal -0 0 1
    outer loop
      vertex 22.87 17 3
      vertex 39.5 12 3
      vertex 33.13 17 3
    endloop
  endfacet
  facet normal 0 0 1
    outer loop
      vertex 22.87 17 3
      vertex 16.5 12 3
      vertex 39.5 12 3
    endloop
  endfacet
  facet normal 0 0 1
    outer loop
      vertex 22.87 27 3
      vertex 14 29.5 3
      vertex 22.87 17 3
    endloop
  endfacet
  facet normal 0 0 1
    outer loop
      vertex 14 29.5 3
      vertex 16.5 32 3
      vertex 16.1737 31.9786 3
    endloop
  endfacet
  facet normal 0 0 1
    outer loop
      vertex 14 14.5 3
      vertex 22.87 17 3
      vertex 14 29.5 3
    endloop
  endfacet
  facet normal 0 0 1
    outer loop
      vertex 14 29.5 3
      vertex 16.1737 31.9786 3
      vertex 15.853 31.9148 3
    endloop
  endfacet
  facet normal 0 0 1
    outer loop
      vertex 22.87 17 3
      vertex 14 14.5 3
      vertex 16.5 12 3
    endloop
  endfacet
  facet normal 0 0 1
    outer loop
      vertex 14 29.5 3
      vertex 15.853 31.9148 3
      vertex 15.5433 31.8097 3
    endloop
  endfacet
  facet normal 0 0 1
    outer loop
      vertex 16.5 12 3
      vertex 14 14.5 3
      vertex 16.1737 12.0214 3
    endloop
  endfacet
  facet normal 0 0 1
    outer loop
      vertex 14 29.5 3
      vertex 15.5433 31.8097 3
      vertex 15.25 31.6651 3
    endloop
  endfacet
  facet normal 0 0 1
    outer loop
      vertex 16.1737 12.0214 3
      vertex 14 14.5 3
      vertex 15.853 12.0852 3
    endloop
  endfacet
  facet normal 0 0 1
    outer loop
      vertex 14 29.5 3
      vertex 15.25 31.6651 3
      vertex 14.9781 31.4834 3
    endloop
  endfacet
  facet normal 0 0 1
    outer loop
      vertex 15.853 12.0852 3
      vertex 14 14.5 3
      vertex 15.5433 12.1903 3
    endloop
  endfacet
  facet normal 0 0 1
    outer loop
      vertex 14 29.5 3
      vertex 14.9781 31.4834 3
      vertex 14.7322 31.2678 3
    endloop
  endfacet
  facet normal 0 0 1
    outer loop
      vertex 15.5433 12.1903 3
      vertex 14 14.5 3
      vertex 15.25 12.3349 3
    endloop
  endfacet
  facet normal 0 0 1
    outer loop
      vertex 14 29.5 3
      vertex 14.7322 31.2678 3
      vertex 14.5166 31.0219 3
    endloop
  endfacet
  facet normal 0 0 1
    outer loop
      vertex 15.25 12.3349 3
      vertex 14 14.5 3
      vertex 14.9781 12.5166 3
    endloop
  endfacet
  facet normal 0 0 1
    outer loop
      vertex 14 29.5 3
      vertex 14.5166 31.0219 3
      vertex 14.3349 30.75 3
    endloop
  endfacet
  facet normal 0 0 1
    outer loop
      vertex 14.9781 12.5166 3
      vertex 14 14.5 3
      vertex 14.7322 12.7322 3
    endloop
  endfacet
  facet normal 0 0 1
    outer loop
      vertex 14 29.5 3
      vertex 14.3349 30.75 3
      vertex 14.1903 30.4567 3
    endloop
  endfacet
  facet normal 0 0 1
    outer loop
      vertex 14.7322 12.7322 3
      vertex 14 14.5 3
      vertex 14.5166 12.9781 3
    endloop
  endfacet
  facet normal 0 0 1
    outer loop
      vertex 14 29.5 3
      vertex 14.1903 30.4567 3
      vertex 14.0852 30.147 3
    endloop
  endfacet
  facet normal 0 0 1
    outer loop
      vertex 14.5166 12.9781 3
      vertex 14 14.5 3
      vertex 14.3349 13.25 3
    endloop
  endfacet
  facet normal 0 0 1
    outer loop
      vertex 14 29.5 3
      vertex 14.0852 30.147 3
      vertex 14.0214 29.8263 3
    endloop
  endfacet
  facet normal 0 0 1
    outer loop
      vertex 14.3349 13.25 3
      vertex 14 14.5 3
      vertex 14.1903 13.5433 3
    endloop
  endfacet
  facet normal 0 0 1
    outer loop
      vertex 14.1903 13.5433 3
      vertex 14 14.5 3
      vertex 14.0852 13.853 3
    endloop
  endfacet
  facet normal 0 0 1
    outer loop
      vertex 14.0852 13.853 3
      vertex 14 14.5 3
      vertex 14.0214 14.1737 3
    endloop
  endfacet
  facet normal -0.442191 -0.896921 0
    outer loop
      vertex 15.25 12.3349 0
      vertex 15.5433 12.1903 3
      vertex 15.25 12.3349 3
    endloop
  endfacet
  facet normal -0.442191 -0.896921 -0
    outer loop
      vertex 15.5433 12.1903 3
      vertex 15.25 12.3349 0
      vertex 15.5433 12.1903 0
    endloop
  endfacet
  facet normal 0.98078 0.195116 0
    outer loop
      vertex 41.9786 29.8263 3
      vertex 41.9148 30.147 0
      vertex 41.9148 30.147 3
    endloop
  endfacet
  facet normal 0.98078 0.195116 0
    outer loop
      vertex 41.9148 30.147 0
      vertex 41.9786 29.8263 3
      vertex 41.9786 29.8263 0
    endloop
  endfacet
endsolid OpenSCAD_Model
