  0
SECTION
  2
BLOCKS
  0
ENDSEC
  0
SECTION
  2
ENTITIES
  0
LINE
  8
0
 10
19.1409
 20
9.77843
 11
19.2048
 21
9.79558
  0
LINE
  8
0
 10
19.2048
 20
9.79558
 11
19.2633
 21
9.82419
  0
LINE
  8
0
 10
19.2633
 20
9.82419
 11
19.3166
 21
9.86423
  0
LINE
  8
0
 10
19.3166
 20
9.86423
 11
19.361
 21
9.91245
  0
LINE
  8
0
 10
19.361
 20
9.91245
 11
19.3926
 21
9.96558
  0
LINE
  8
0
 10
19.3926
 20
9.96558
 11
19.4117
 21
10.0236
  0
LINE
  8
0
 10
19.4117
 20
10.0236
 11
19.418
 21
10.0865
  0
LINE
  8
0
 10
19.418
 20
10.0865
 11
19.4117
 21
10.1495
  0
LINE
  8
0
 10
19.4117
 20
10.1495
 11
19.3926
 21
10.2075
  0
LINE
  8
0
 10
19.3926
 20
10.2075
 11
19.361
 21
10.2606
  0
LINE
  8
0
 10
19.361
 20
10.2606
 11
19.3166
 21
10.3088
  0
LINE
  8
0
 10
19.3166
 20
10.3088
 11
19.2633
 21
10.3489
  0
LINE
  8
0
 10
19.2633
 20
10.3489
 11
19.2048
 21
10.3775
  0
LINE
  8
0
 10
19.2048
 20
10.3775
 11
19.1409
 21
10.3946
  0
LINE
  8
0
 10
19.1409
 20
10.3946
 11
19.0719
 21
10.4004
  0
LINE
  8
0
 10
19.0719
 20
10.4004
 11
19.0036
 21
10.3946
  0
LINE
  8
0
 10
19.0036
 20
10.3946
 11
18.9404
 21
10.3775
  0
LINE
  8
0
 10
18.9404
 20
10.3775
 11
18.8822
 21
10.3489
  0
LINE
  8
0
 10
18.8822
 20
10.3489
 11
18.829
 21
10.3088
  0
LINE
  8
0
 10
18.829
 20
10.3088
 11
18.7846
 21
10.2606
  0
LINE
  8
0
 10
18.7846
 20
10.2606
 11
18.753
 21
10.2075
  0
LINE
  8
0
 10
18.753
 20
10.2075
 11
18.734
 21
10.1495
  0
LINE
  8
0
 10
18.734
 20
10.1495
 11
18.7276
 21
10.0865
  0
LINE
  8
0
 10
18.7276
 20
10.0865
 11
18.734
 21
10.0236
  0
LINE
  8
0
 10
18.734
 20
10.0236
 11
18.753
 21
9.96558
  0
LINE
  8
0
 10
18.753
 20
9.96558
 11
18.7846
 21
9.91245
  0
LINE
  8
0
 10
18.7846
 20
9.91245
 11
18.829
 21
9.86423
  0
LINE
  8
0
 10
18.829
 20
9.86423
 11
18.8822
 21
9.82419
  0
LINE
  8
0
 10
18.8822
 20
9.82419
 11
18.9404
 21
9.79558
  0
LINE
  8
0
 10
18.9404
 20
9.79558
 11
19.0036
 21
9.77843
  0
LINE
  8
0
 10
19.0036
 20
9.77843
 11
19.0719
 21
9.77271
  0
LINE
  8
0
 10
19.0719
 20
9.77271
 11
19.1409
 21
9.77843
  0
LINE
  8
0
 10
4.47058
 20
3.3815
 11
4.47058
 21
7.53613
  0
LINE
  8
0
 10
4.47058
 20
7.53613
 11
8.22185
 21
9.9563
  0
LINE
  8
0
 10
8.22185
 20
9.9563
 11
8.17888
 21
9.99774
  0
LINE
  8
0
 10
8.17888
 20
9.99774
 11
8.13472
 21
10.0373
  0
LINE
  8
0
 10
8.13472
 20
10.0373
 11
8.08934
 21
10.075
  0
LINE
  8
0
 10
8.08934
 20
10.075
 11
8.04276
 21
10.1109
  0
LINE
  8
0
 10
8.04276
 20
10.1109
 11
7.99495
 21
10.1447
  0
LINE
  8
0
 10
7.99495
 20
10.1447
 11
7.94594
 21
10.1767
  0
LINE
  8
0
 10
7.94594
 20
10.1767
 11
7.89572
 21
10.2066
  0
LINE
  8
0
 10
7.89572
 20
10.2066
 11
7.8443
 21
10.2345
  0
LINE
  8
0
 10
7.8443
 20
10.2345
 11
7.79166
 21
10.2603
  0
LINE
  8
0
 10
7.79166
 20
10.2603
 11
7.73781
 21
10.284
  0
LINE
  8
0
 10
7.73781
 20
10.284
 11
7.68275
 21
10.3056
  0
LINE
  8
0
 10
7.68275
 20
10.3056
 11
7.62648
 21
10.3251
  0
LINE
  8
0
 10
7.62648
 20
10.3251
 11
7.569
 21
10.3424
  0
LINE
  8
0
 10
7.569
 20
10.3424
 11
7.51031
 21
10.3575
  0
LINE
  8
0
 10
7.51031
 20
10.3575
 11
7.45041
 21
10.3704
  0
LINE
  8
0
 10
7.45041
 20
10.3704
 11
7.3893
 21
10.381
  0
LINE
  8
0
 10
7.3893
 20
10.381
 11
7.32698
 21
10.3892
  0
LINE
  8
0
 10
7.32698
 20
10.3892
 11
7.26346
 21
10.3952
  0
LINE
  8
0
 10
7.26346
 20
10.3952
 11
7.19872
 21
10.3988
  0
LINE
  8
0
 10
7.19872
 20
10.3988
 11
7.13277
 21
10.4
  0
LINE
  8
0
 10
7.13277
 20
10.4
 11
3.2605
 21
10.4
  0
LINE
  8
0
 10
3.2605
 20
10.4
 11
3.05701
 21
10.3919
  0
LINE
  8
0
 10
3.05701
 20
10.3919
 11
2.85835
 21
10.3681
  0
LINE
  8
0
 10
2.85835
 20
10.3681
 11
2.66513
 21
10.3291
  0
LINE
  8
0
 10
2.66513
 20
10.3291
 11
2.47798
 21
10.2754
  0
LINE
  8
0
 10
2.47798
 20
10.2754
 11
2.29747
 21
10.2078
  0
LINE
  8
0
 10
2.29747
 20
10.2078
 11
2.12422
 21
10.1266
  0
LINE
  8
0
 10
2.12422
 20
10.1266
 11
1.95885
 21
10.0326
  0
LINE
  8
0
 10
1.95885
 20
10.0326
 11
1.80194
 21
9.92628
  0
LINE
  8
0
 10
1.80194
 20
9.92628
 11
1.65411
 21
9.80821
  0
LINE
  8
0
 10
1.65411
 20
9.80821
 11
1.51596
 21
9.67899
  0
LINE
  8
0
 10
1.51596
 20
9.67899
 11
1.38809
 21
9.53917
  0
LINE
  8
0
 10
1.38809
 20
9.53917
 11
1.27112
 21
9.38933
  0
LINE
  8
0
 10
1.27112
 20
9.38933
 11
1.16563
 21
9.23006
  0
LINE
  8
0
 10
1.16563
 20
9.23006
 11
1.07227
 21
9.06192
  0
LINE
  8
0
 10
1.07227
 20
9.06192
 11
0.991592
 21
8.8855
  0
LINE
  8
0
 10
0.991592
 20
8.8855
 11
0.924225
 21
8.70135
  0
LINE
  8
0
 10
0.924225
 20
8.70135
 11
0.870789
 21
8.51007
  0
LINE
  8
0
 10
0.870789
 20
8.51007
 11
0.831863
 21
8.31224
  0
LINE
  8
0
 10
0.831863
 20
8.31224
 11
0.80806
 21
8.1084
  0
LINE
  8
0
 10
0.80806
 20
8.1084
 11
0.799988
 21
7.89915
  0
LINE
  8
0
 10
0.799988
 20
7.89915
 11
0.799988
 21
2.73613
  0
LINE
  8
0
 10
0.799988
 20
2.73613
 11
0.800613
 21
2.66383
  0
LINE
  8
0
 10
0.800613
 20
2.66383
 11
0.80249
 21
2.59221
  0
LINE
  8
0
 10
0.80249
 20
2.59221
 11
0.80571
 21
2.5213
  0
LINE
  8
0
 10
0.80571
 20
2.5213
 11
0.810318
 21
2.45119
  0
LINE
  8
0
 10
0.810318
 20
2.45119
 11
0.816376
 21
2.38193
  0
LINE
  8
0
 10
0.816376
 20
2.38193
 11
0.823959
 21
2.31357
  0
LINE
  8
0
 10
0.823959
 20
2.31357
 11
0.833099
 21
2.24617
  0
LINE
  8
0
 10
0.833099
 20
2.24617
 11
0.843872
 21
2.17981
  0
LINE
  8
0
 10
0.843872
 20
2.17981
 11
0.856354
 21
2.11453
  0
LINE
  8
0
 10
0.856354
 20
2.11453
 11
0.870575
 21
2.05042
  0
LINE
  8
0
 10
0.870575
 20
2.05042
 11
0.886627
 21
1.9875
  0
LINE
  8
0
 10
0.886627
 20
1.9875
 11
0.904541
 21
1.92586
  0
LINE
  8
0
 10
0.904541
 20
1.92586
 11
0.924393
 21
1.86554
  0
LINE
  8
0
 10
0.924393
 20
1.86554
 11
0.946243
 21
1.80663
  0
LINE
  8
0
 10
0.946243
 20
1.80663
 11
0.970154
 21
1.74915
  0
LINE
  8
0
 10
0.970154
 20
1.74915
 11
0.996185
 21
1.69319
  0
LINE
  8
0
 10
0.996185
 20
1.69319
 11
1.0244
 21
1.63881
  0
LINE
  8
0
 10
1.0244
 20
1.63881
 11
1.05484
 21
1.58606
  0
LINE
  8
0
 10
1.05484
 20
1.58606
 11
1.08759
 21
1.535
  0
LINE
  8
0
 10
1.08759
 20
1.535
 11
1.12268
 21
1.4857
  0
LINE
  8
0
 10
1.12268
 20
1.4857
 11
4.47058
 21
3.3815
  0
LINE
  8
0
 10
26.5713
 20
7.41676
 11
26.6752
 21
7.43796
  0
LINE
  8
0
 10
26.6752
 20
7.43796
 11
26.7669
 21
7.47327
  0
LINE
  8
0
 10
26.7669
 20
7.47327
 11
26.8462
 21
7.52272
  0
LINE
  8
0
 10
26.8462
 20
7.52272
 11
26.9141
 21
7.58102
  0
LINE
  8
0
 10
26.9141
 20
7.58102
 11
26.9716
 21
7.64296
  0
LINE
  8
0
 10
26.9716
 20
7.64296
 11
27.0188
 21
7.70853
  0
LINE
  8
0
 10
27.0188
 20
7.70853
 11
27.0556
 21
7.77769
  0
LINE
  8
0
 10
27.0556
 20
7.77769
 11
27.0785
 21
7.77769
  0
LINE
  8
0
 10
27.0785
 20
7.77769
 11
27.0785
 21
7.43959
  0
LINE
  8
0
 10
27.0785
 20
7.43959
 11
27.7363
 21
7.43959
  0
LINE
  8
0
 10
27.7363
 20
7.43959
 11
27.7363
 21
10.2229
  0
LINE
  8
0
 10
27.7363
 20
10.2229
 11
27.0709
 21
10.2229
  0
LINE
  8
0
 10
27.0709
 20
10.2229
 11
27.0709
 21
9.16933
  0
LINE
  8
0
 10
27.0709
 20
9.16933
 11
27.0556
 21
9.16933
  0
LINE
  8
0
 10
27.0556
 20
9.16933
 11
27.0331
 21
9.21574
  0
LINE
  8
0
 10
27.0331
 20
9.21574
 11
27.0061
 21
9.26157
  0
LINE
  8
0
 10
27.0061
 20
9.26157
 11
26.9743
 21
9.30681
  0
LINE
  8
0
 10
26.9743
 20
9.30681
 11
26.9379
 21
9.35146
  0
LINE
  8
0
 10
26.9379
 20
9.35146
 11
26.8965
 21
9.39384
  0
LINE
  8
0
 10
26.8965
 20
9.39384
 11
26.8497
 21
9.43227
  0
LINE
  8
0
 10
26.8497
 20
9.43227
 11
26.7976
 21
9.46671
  0
LINE
  8
0
 10
26.7976
 20
9.46671
 11
26.74
 21
9.49718
  0
LINE
  8
0
 10
26.74
 20
9.49718
 11
26.6767
 21
9.52211
  0
LINE
  8
0
 10
26.6767
 20
9.52211
 11
26.6071
 21
9.53992
  0
LINE
  8
0
 10
26.6071
 20
9.53992
 11
26.5313
 21
9.5506
  0
LINE
  8
0
 10
26.5313
 20
9.5506
 11
26.4494
 21
9.55417
  0
LINE
  8
0
 10
26.4494
 20
9.55417
 11
26.3393
 21
9.54692
  0
LINE
  8
0
 10
26.3393
 20
9.54692
 11
26.233
 21
9.52521
  0
LINE
  8
0
 10
26.233
 20
9.52521
 11
26.1304
 21
9.48901
  0
LINE
  8
0
 10
26.1304
 20
9.48901
 11
26.0315
 21
9.43834
  0
LINE
  8
0
 10
26.0315
 20
9.43834
 11
25.9391
 21
9.37283
  0
LINE
  8
0
 10
25.9391
 20
9.37283
 11
25.8561
 21
9.29216
  0
LINE
  8
0
 10
25.8561
 20
9.29216
 11
25.7823
 21
9.1963
  0
LINE
  8
0
 10
25.7823
 20
9.1963
 11
25.7179
 21
9.08527
  0
LINE
  8
0
 10
25.7179
 20
9.08527
 11
25.6656
 21
8.9586
  0
LINE
  8
0
 10
25.6656
 20
8.9586
 11
25.6283
 21
8.81583
  0
LINE
  8
0
 10
25.6283
 20
8.81583
 11
25.6059
 21
8.65694
  0
LINE
  8
0
 10
25.6059
 20
8.65694
 11
25.5984
 21
8.48193
  0
LINE
  8
0
 10
25.5984
 20
8.48193
 11
25.6055
 21
8.31177
  0
LINE
  8
0
 10
25.6055
 20
8.31177
 11
25.6271
 21
8.1562
  0
LINE
  8
0
 10
25.6271
 20
8.1562
 11
25.6629
 21
8.01523
  0
LINE
  8
0
 10
25.6629
 20
8.01523
 11
25.7131
 21
7.88884
  0
LINE
  8
0
 10
25.7131
 20
7.88884
 11
25.7755
 21
7.7771
  0
LINE
  8
0
 10
25.7755
 20
7.7771
 11
25.8479
 21
7.68008
  0
LINE
  8
0
 10
25.8479
 20
7.68008
 11
25.9304
 21
7.59778
  0
LINE
  8
0
 10
25.9304
 20
7.59778
 11
26.0229
 21
7.53018
  0
LINE
  8
0
 10
26.0229
 20
7.53018
 11
26.1231
 21
7.47746
  0
LINE
  8
0
 10
26.1231
 20
7.47746
 11
26.2285
 21
7.43982
  0
LINE
  8
0
 10
26.2285
 20
7.43982
 11
26.3392
 21
7.41724
  0
LINE
  8
0
 10
26.3392
 20
7.41724
 11
26.4551
 21
7.4097
  0
LINE
  8
0
 10
26.4551
 20
7.4097
 11
26.5713
 21
7.41676
  0
LINE
  8
0
 10
26.5918
 20
7.92747
 11
26.5122
 21
7.95656
  0
LINE
  8
0
 10
26.5122
 20
7.95656
 11
26.444
 21
8.005
  0
LINE
  8
0
 10
26.444
 20
8.005
 11
26.3872
 21
8.07285
  0
LINE
  8
0
 10
26.3872
 20
8.07285
 11
26.3424
 21
8.15656
  0
LINE
  8
0
 10
26.3424
 20
8.15656
 11
26.3105
 21
8.25264
  0
LINE
  8
0
 10
26.3105
 20
8.25264
 11
26.2913
 21
8.3611
  0
LINE
  8
0
 10
26.2913
 20
8.3611
 11
26.2849
 21
8.48193
  0
LINE
  8
0
 10
26.2849
 20
8.48193
 11
26.2913
 21
8.60271
  0
LINE
  8
0
 10
26.2913
 20
8.60271
 11
26.3105
 21
8.71098
  0
LINE
  8
0
 10
26.3105
 20
8.71098
 11
26.3424
 21
8.80678
  0
LINE
  8
0
 10
26.3424
 20
8.80678
 11
26.3872
 21
8.89009
  0
LINE
  8
0
 10
26.3872
 20
8.89009
 11
26.444
 21
8.95752
  0
LINE
  8
0
 10
26.444
 20
8.95752
 11
26.5122
 21
9.00568
  0
LINE
  8
0
 10
26.5122
 20
9.00568
 11
26.5918
 21
9.03458
  0
LINE
  8
0
 10
26.5918
 20
9.03458
 11
26.6827
 21
9.0442
  0
LINE
  8
0
 10
26.6827
 20
9.0442
 11
26.773
 21
9.03474
  0
LINE
  8
0
 10
26.773
 20
9.03474
 11
26.8526
 21
9.00636
  0
LINE
  8
0
 10
26.8526
 20
9.00636
 11
26.9216
 21
8.95908
  0
LINE
  8
0
 10
26.9216
 20
8.95908
 11
26.98
 21
8.89287
  0
LINE
  8
0
 10
26.98
 20
8.89287
 11
27.0264
 21
8.81044
  0
LINE
  8
0
 10
27.0264
 20
8.81044
 11
27.0596
 21
8.71448
  0
LINE
  8
0
 10
27.0596
 20
8.71448
 11
27.0795
 21
8.60498
  0
LINE
  8
0
 10
27.0795
 20
8.60498
 11
27.0862
 21
8.48193
  0
LINE
  8
0
 10
27.0862
 20
8.48193
 11
27.0795
 21
8.36034
  0
LINE
  8
0
 10
27.0795
 20
8.36034
 11
27.0594
 21
8.25146
  0
LINE
  8
0
 10
27.0594
 20
8.25146
 11
27.0259
 21
8.15532
  0
LINE
  8
0
 10
27.0259
 20
8.15532
 11
26.979
 21
8.0719
  0
LINE
  8
0
 10
26.979
 20
8.0719
 11
26.9204
 21
8.00447
  0
LINE
  8
0
 10
26.9204
 20
8.00447
 11
26.8514
 21
7.95631
  0
LINE
  8
0
 10
26.8514
 20
7.95631
 11
26.7722
 21
7.92741
  0
LINE
  8
0
 10
26.7722
 20
7.92741
 11
26.6827
 21
7.91779
  0
LINE
  8
0
 10
26.6827
 20
7.91779
 11
26.5918
 21
7.92747
  0
LINE
  8
0
 10
20.5011
 20
8.63882
 11
20.5008
 21
8.69504
  0
LINE
  8
0
 10
20.5008
 20
8.69504
 11
20.5
 21
8.75908
  0
LINE
  8
0
 10
20.5
 20
8.75908
 11
20.4984
 21
8.83093
  0
LINE
  8
0
 10
20.4984
 20
8.83093
 11
20.4964
 21
8.91061
  0
LINE
  8
0
 10
20.4964
 20
8.91061
 11
20.4886
 21
9.17664
  0
LINE
  8
0
 10
20.4886
 20
9.17664
 11
20.4858
 21
9.27208
  0
LINE
  8
0
 10
20.4858
 20
9.27208
 11
20.4831
 21
9.36852
  0
LINE
  8
0
 10
20.4831
 20
9.36852
 11
20.4806
 21
9.46355
  0
LINE
  8
0
 10
20.4806
 20
9.46355
 11
20.4783
 21
9.55717
  0
LINE
  8
0
 10
20.4783
 20
9.55717
 11
20.4763
 21
9.64941
  0
LINE
  8
0
 10
20.4763
 20
9.64941
 11
20.5005
 21
9.55153
  0
LINE
  8
0
 10
20.5005
 20
9.55153
 11
20.5253
 21
9.45399
  0
LINE
  8
0
 10
20.5253
 20
9.45399
 11
20.5507
 21
9.3568
  0
LINE
  8
0
 10
20.5507
 20
9.3568
 11
20.5767
 21
9.25996
  0
LINE
  8
0
 10
20.5767
 20
9.25996
 11
20.6027
 21
9.16522
  0
LINE
  8
0
 10
20.6027
 20
9.16522
 11
20.6281
 21
9.07433
  0
LINE
  8
0
 10
20.6281
 20
9.07433
 11
20.6529
 21
8.98727
  0
LINE
  8
0
 10
20.6529
 20
8.98727
 11
20.6771
 21
8.90408
  0
LINE
  8
0
 10
20.6771
 20
8.90408
 11
20.7
 21
8.82655
  0
LINE
  8
0
 10
20.7
 20
8.82655
 11
20.7211
 21
8.75652
  0
LINE
  8
0
 10
20.7211
 20
8.75652
 11
20.7402
 21
8.69392
  0
LINE
  8
0
 10
20.7402
 20
8.69392
 11
20.7574
 21
8.63882
  0
LINE
  8
0
 10
20.7574
 20
8.63882
 11
21.1685
 21
7.43959
  0
LINE
  8
0
 10
21.1685
 20
7.43959
 11
21.7327
 21
7.43959
  0
LINE
  8
0
 10
21.7327
 20
7.43959
 11
22.1381
 21
8.63882
  0
LINE
  8
0
 10
22.1381
 20
8.63882
 11
22.1561
 21
8.69598
  0
LINE
  8
0
 10
22.1561
 20
8.69598
 11
22.1759
 21
8.76096
  0
LINE
  8
0
 10
22.1759
 20
8.76096
 11
22.1973
 21
8.83374
  0
LINE
  8
0
 10
22.1973
 20
8.83374
 11
22.2203
 21
8.91435
  0
LINE
  8
0
 10
22.2203
 20
8.91435
 11
22.2445
 21
9.00081
  0
LINE
  8
0
 10
22.2445
 20
9.00081
 11
22.2693
 21
9.09113
  0
LINE
  8
0
 10
22.2693
 20
9.09113
 11
22.2947
 21
9.18529
  0
LINE
  8
0
 10
22.2947
 20
9.18529
 11
22.3207
 21
9.28329
  0
LINE
  8
0
 10
22.3207
 20
9.28329
 11
22.3467
 21
9.38312
  0
LINE
  8
0
 10
22.3467
 20
9.38312
 11
22.3721
 21
9.48271
  0
LINE
  8
0
 10
22.3721
 20
9.48271
 11
22.3969
 21
9.58206
  0
LINE
  8
0
 10
22.3969
 20
9.58206
 11
22.4211
 21
9.68117
  0
LINE
  8
0
 10
22.4211
 20
9.68117
 11
22.4191
 21
9.58684
  0
LINE
  8
0
 10
22.4191
 20
9.58684
 11
22.4168
 21
9.49065
  0
LINE
  8
0
 10
22.4168
 20
9.49065
 11
22.4143
 21
9.39258
  0
LINE
  8
0
 10
22.4143
 20
9.39258
 11
22.4115
 21
9.29262
  0
LINE
  8
0
 10
22.4115
 20
9.29262
 11
22.401
 21
8.91811
  0
LINE
  8
0
 10
22.401
 20
8.91811
 11
22.3989
 21
8.83585
  0
LINE
  8
0
 10
22.3989
 20
8.83585
 11
22.3974
 21
8.76189
  0
LINE
  8
0
 10
22.3974
 20
8.76189
 11
22.3965
 21
8.69621
  0
LINE
  8
0
 10
22.3965
 20
8.69621
 11
22.3962
 21
8.63882
  0
LINE
  8
0
 10
22.3962
 20
8.63882
 11
22.3962
 21
7.43959
  0
LINE
  8
0
 10
22.3962
 20
7.43959
 11
23.0751
 21
7.43959
  0
LINE
  8
0
 10
23.0751
 20
7.43959
 11
23.0751
 21
10.2229
  0
LINE
  8
0
 10
23.0751
 20
10.2229
 11
22.0214
 21
10.2229
  0
LINE
  8
0
 10
22.0214
 20
10.2229
 11
21.6638
 21
9.13945
  0
LINE
  8
0
 10
21.6638
 20
9.13945
 11
21.649
 21
9.08815
  0
LINE
  8
0
 10
21.649
 20
9.08815
 11
21.633
 21
9.02948
  0
LINE
  8
0
 10
21.633
 20
9.02948
 11
21.616
 21
8.96347
  0
LINE
  8
0
 10
21.616
 20
8.96347
 11
21.5979
 21
8.89009
  0
LINE
  8
0
 10
21.5979
 20
8.89009
 11
21.5792
 21
8.81163
  0
LINE
  8
0
 10
21.5792
 20
8.81163
 11
21.5606
 21
8.73038
  0
LINE
  8
0
 10
21.5606
 20
8.73038
 11
21.5419
 21
8.6463
  0
LINE
  8
0
 10
21.5419
 20
8.6463
 11
21.5233
 21
8.55943
  0
LINE
  8
0
 10
21.5233
 20
8.55943
 11
21.5049
 21
8.47183
  0
LINE
  8
0
 10
21.5049
 20
8.47183
 11
21.4872
 21
8.3855
  0
LINE
  8
0
 10
21.4872
 20
8.3855
 11
21.47
 21
8.30045
  0
LINE
  8
0
 10
21.47
 20
8.30045
 11
21.4535
 21
8.21667
  0
LINE
  8
0
 10
21.4535
 20
8.21667
 11
21.436
 21
8.30051
  0
LINE
  8
0
 10
21.436
 20
8.30051
 11
21.4181
 21
8.38573
  0
LINE
  8
0
 10
21.4181
 20
8.38573
 11
21.3997
 21
8.47235
  0
LINE
  8
0
 10
21.3997
 20
8.47235
 11
21.3808
 21
8.56038
  0
LINE
  8
0
 10
21.3808
 20
8.56038
 11
21.3617
 21
8.6476
  0
LINE
  8
0
 10
21.3617
 20
8.6476
 11
21.3428
 21
8.73178
  0
LINE
  8
0
 10
21.3428
 20
8.73178
 11
21.324
 21
8.81291
  0
LINE
  8
0
 10
21.324
 20
8.81291
 11
21.3053
 21
8.89102
  0
LINE
  8
0
 10
21.3053
 20
8.89102
 11
21.2872
 21
8.96399
  0
LINE
  8
0
 10
21.2872
 20
8.96399
 11
21.2701
 21
9.02972
  0
LINE
  8
0
 10
21.2701
 20
9.02972
 11
21.2542
 21
9.08821
  0
LINE
  8
0
 10
21.2542
 20
9.08821
 11
21.2393
 21
9.13945
  0
LINE
  8
0
 10
21.2393
 20
9.13945
 11
20.876
 21
10.2229
  0
LINE
  8
0
 10
20.876
 20
10.2229
 11
19.8242
 21
10.2229
  0
LINE
  8
0
 10
19.8242
 20
10.2229
 11
19.8242
 21
7.43959
  0
LINE
  8
0
 10
19.8242
 20
7.43959
 11
20.5011
 21
7.43959
  0
LINE
  8
0
 10
20.5011
 20
7.43959
 11
20.5011
 21
8.63882
  0
LINE
  8
0
 10
16.5045
 20
7.4104
 11
16.5535
 21
7.41251
  0
LINE
  8
0
 10
16.5535
 20
7.41251
 11
16.6039
 21
7.416
  0
LINE
  8
0
 10
16.6039
 20
7.416
 11
16.6558
 21
7.42091
  0
LINE
  8
0
 10
16.6558
 20
7.42091
 11
16.7089
 21
7.4278
  0
LINE
  8
0
 10
16.7089
 20
7.4278
 11
16.7629
 21
7.43726
  0
LINE
  8
0
 10
16.7629
 20
7.43726
 11
16.8179
 21
7.44928
  0
LINE
  8
0
 10
16.8179
 20
7.44928
 11
16.8738
 21
7.46388
  0
LINE
  8
0
 10
16.8738
 20
7.46388
 11
16.7878
 21
7.93834
  0
LINE
  8
0
 10
16.7878
 20
7.93834
 11
16.7722
 21
7.93536
  0
LINE
  8
0
 10
16.7722
 20
7.93536
 11
16.7522
 21
7.93204
  0
LINE
  8
0
 10
16.7522
 20
7.93204
 11
16.7277
 21
7.92836
  0
LINE
  8
0
 10
16.7277
 20
7.92836
 11
16.6989
 21
7.92432
  0
LINE
  8
0
 10
16.6989
 20
7.92432
 11
16.6695
 21
7.92064
  0
LINE
  8
0
 10
16.6695
 20
7.92064
 11
16.6436
 21
7.91801
  0
LINE
  8
0
 10
16.6436
 20
7.91801
 11
16.6212
 21
7.91644
  0
LINE
  8
0
 10
16.6212
 20
7.91644
 11
16.6023
 21
7.91592
  0
LINE
  8
0
 10
16.6023
 20
7.91592
 11
16.5278
 21
7.92607
  0
LINE
  8
0
 10
16.5278
 20
7.92607
 11
16.4746
 21
7.95654
  0
LINE
  8
0
 10
16.4746
 20
7.95654
 11
16.4427
 21
8.00732
  0
LINE
  8
0
 10
16.4427
 20
8.00732
 11
16.4321
 21
8.07843
  0
LINE
  8
0
 10
16.4321
 20
8.07843
 11
16.4321
 21
9.0442
  0
LINE
  8
0
 10
16.4321
 20
9.0442
 11
16.8165
 21
9.0442
  0
LINE
  8
0
 10
16.8165
 20
9.0442
 11
16.8165
 21
9.528
  0
LINE
  8
0
 10
16.8165
 20
9.528
 11
16.4321
 21
9.528
  0
LINE
  8
0
 10
16.4321
 20
9.528
 11
16.4321
 21
10.0249
  0
LINE
  8
0
 10
16.4321
 20
10.0249
 11
15.7647
 21
10.0249
  0
LINE
  8
0
 10
15.7647
 20
10.0249
 11
15.7647
 21
9.528
  0
LINE
  8
0
 10
15.7647
 20
9.528
 11
15.4816
 21
9.528
  0
LINE
  8
0
 10
15.4816
 20
9.528
 11
15.4816
 21
9.0442
  0
LINE
  8
0
 10
15.4816
 20
9.0442
 11
15.7647
 21
9.0442
  0
LINE
  8
0
 10
15.7647
 20
9.0442
 11
15.7647
 21
8.02052
  0
LINE
  8
0
 10
15.7647
 20
8.02052
 11
15.7757
 21
7.88002
  0
LINE
  8
0
 10
15.7757
 20
7.88002
 11
15.8087
 21
7.75737
  0
LINE
  8
0
 10
15.8087
 20
7.75737
 11
15.8636
 21
7.65259
  0
LINE
  8
0
 10
15.8636
 20
7.65259
 11
15.9406
 21
7.56566
  0
LINE
  8
0
 10
15.9406
 20
7.56566
 11
16.0388
 21
7.49742
  0
LINE
  8
0
 10
16.0388
 20
7.49742
 11
16.1577
 21
7.44868
  0
LINE
  8
0
 10
16.1577
 20
7.44868
 11
16.297
 21
7.41945
  0
LINE
  8
0
 10
16.297
 20
7.41945
 11
16.4569
 21
7.4097
  0
LINE
  8
0
 10
16.4569
 20
7.4097
 11
16.5045
 21
7.4104
  0
LINE
  8
0
 10
10.4873
 20
8.67992
 11
10.4927
 21
8.75745
  0
LINE
  8
0
 10
10.4927
 20
8.75745
 11
10.509
 21
8.82562
  0
LINE
  8
0
 10
10.509
 20
8.82562
 11
10.5362
 21
8.88448
  0
LINE
  8
0
 10
10.5362
 20
8.88448
 11
10.5743
 21
8.93396
  0
LINE
  8
0
 10
10.5743
 20
8.93396
 11
10.6208
 21
8.97321
  0
LINE
  8
0
 10
10.6208
 20
8.97321
 11
10.6735
 21
9.00124
  0
LINE
  8
0
 10
10.6735
 20
9.00124
 11
10.7323
 21
9.01805
  0
LINE
  8
0
 10
10.7323
 20
9.01805
 11
10.7971
 21
9.02365
  0
LINE
  8
0
 10
10.7971
 20
9.02365
 11
10.86
 21
9.01834
  0
LINE
  8
0
 10
10.86
 20
9.01834
 11
10.9169
 21
9.0024
  0
LINE
  8
0
 10
10.9169
 20
9.0024
 11
10.9676
 21
8.97583
  0
LINE
  8
0
 10
10.9676
 20
8.97583
 11
11.0122
 21
8.93864
  0
LINE
  8
0
 10
11.0122
 20
8.93864
 11
11.0486
 21
8.89247
  0
LINE
  8
0
 10
11.0486
 20
8.89247
 11
11.0746
 21
8.83894
  0
LINE
  8
0
 10
11.0746
 20
8.83894
 11
11.0902
 21
8.77805
  0
LINE
  8
0
 10
11.0902
 20
8.77805
 11
11.0954
 21
8.70981
  0
LINE
  8
0
 10
11.0954
 20
8.70981
 11
11.0954
 21
7.43959
  0
LINE
  8
0
 10
11.0954
 20
7.43959
 11
11.736
 21
7.43959
  0
LINE
  8
0
 10
11.736
 20
7.43959
 11
11.736
 21
8.69301
  0
LINE
  8
0
 10
11.736
 20
8.69301
 11
11.7412
 21
8.76404
  0
LINE
  8
0
 10
11.7412
 20
8.76404
 11
11.7566
 21
8.82773
  0
LINE
  8
0
 10
11.7566
 20
8.82773
 11
11.7823
 21
8.88406
  0
LINE
  8
0
 10
11.7823
 20
8.88406
 11
11.8183
 21
8.93303
  0
LINE
  8
0
 10
11.8183
 20
8.93303
 11
11.8631
 21
8.97267
  0
LINE
  8
0
 10
11.8631
 20
8.97267
 11
11.9153
 21
9.00099
  0
LINE
  8
0
 10
11.9153
 20
9.00099
 11
11.975
 21
9.01799
  0
LINE
  8
0
 10
11.975
 20
9.01799
 11
12.042
 21
9.02365
  0
LINE
  8
0
 10
12.042
 20
9.02365
 11
12.1051
 21
9.01851
  0
LINE
  8
0
 10
12.1051
 20
9.01851
 11
12.1623
 21
9.0031
  0
LINE
  8
0
 10
12.1623
 20
9.0031
 11
12.2136
 21
8.97742
  0
LINE
  8
0
 10
12.2136
 20
8.97742
 11
12.2591
 21
8.94145
  0
LINE
  8
0
 10
12.2591
 20
8.94145
 11
12.2963
 21
8.89557
  0
LINE
  8
0
 10
12.2963
 20
8.89557
 11
12.3229
 21
8.84012
  0
LINE
  8
0
 10
12.3229
 20
8.84012
 11
12.3389
 21
8.77509
  0
LINE
  8
0
 10
12.3389
 20
8.77509
 11
12.3442
 21
8.70047
  0
LINE
  8
0
 10
12.3442
 20
8.70047
 11
12.3442
 21
7.43959
  0
LINE
  8
0
 10
12.3442
 20
7.43959
 11
13.0097
 21
7.43959
  0
LINE
  8
0
 10
13.0097
 20
7.43959
 11
13.0097
 21
8.84805
  0
LINE
  8
0
 10
13.0097
 20
8.84805
 11
12.9977
 21
9.0045
  0
LINE
  8
0
 10
12.9977
 20
9.0045
 11
12.9616
 21
9.1432
  0
LINE
  8
0
 10
12.9616
 20
9.1432
 11
12.9016
 21
9.26416
  0
LINE
  8
0
 10
12.9016
 20
9.26416
 11
12.8175
 21
9.36736
  0
LINE
  8
0
 10
12.8175
 20
9.36736
 11
12.7146
 21
9.44991
  0
LINE
  8
0
 10
12.7146
 20
9.44991
 11
12.5983
 21
9.50887
  0
LINE
  8
0
 10
12.5983
 20
9.50887
 11
12.4684
 21
9.54425
  0
LINE
  8
0
 10
12.4684
 20
9.54425
 11
12.325
 21
9.55603
  0
LINE
  8
0
 10
12.325
 20
9.55603
 11
12.2186
 21
9.54897
  0
LINE
  8
0
 10
12.2186
 20
9.54897
 11
12.1154
 21
9.52779
  0
LINE
  8
0
 10
12.1154
 20
9.52779
 11
12.0154
 21
9.49246
  0
LINE
  8
0
 10
12.0154
 20
9.49246
 11
11.9187
 21
9.44302
  0
LINE
  8
0
 10
11.9187
 20
9.44302
 11
11.8293
 21
9.37746
  0
LINE
  8
0
 10
11.8293
 20
9.37746
 11
11.7516
 21
9.29381
  0
LINE
  8
0
 10
11.7516
 20
9.29381
 11
11.6854
 21
9.19206
  0
LINE
  8
0
 10
11.6854
 20
9.19206
 11
11.6309
 21
9.0722
  0
LINE
  8
0
 10
11.6309
 20
9.0722
 11
11.5882
 21
9.1913
  0
LINE
  8
0
 10
11.5882
 20
9.1913
 11
11.5384
 21
9.29263
  0
LINE
  8
0
 10
11.5384
 20
9.29263
 11
11.4815
 21
9.37624
  0
LINE
  8
0
 10
11.4815
 20
9.37624
 11
11.4176
 21
9.44208
  0
LINE
  8
0
 10
11.4176
 20
9.44208
 11
11.346
 21
9.49194
  0
LINE
  8
0
 10
11.346
 20
9.49194
 11
11.2659
 21
9.52754
  0
LINE
  8
0
 10
11.2659
 20
9.52754
 11
11.1772
 21
9.54892
  0
LINE
  8
0
 10
11.1772
 20
9.54892
 11
11.0801
 21
9.55603
  0
LINE
  8
0
 10
11.0801
 20
9.55603
 11
10.9852
 21
9.54956
  0
LINE
  8
0
 10
10.9852
 20
9.54956
 11
10.8934
 21
9.53012
  0
LINE
  8
0
 10
10.8934
 20
9.53012
 11
10.8049
 21
9.49771
  0
LINE
  8
0
 10
10.8049
 20
9.49771
 11
10.7197
 21
9.45236
  0
LINE
  8
0
 10
10.7197
 20
9.45236
 11
10.641
 21
9.39229
  0
LINE
  8
0
 10
10.641
 20
9.39229
 11
10.5722
 21
9.31575
  0
LINE
  8
0
 10
10.5722
 20
9.31575
 11
10.5133
 21
9.22276
  0
LINE
  8
0
 10
10.5133
 20
9.22276
 11
10.4644
 21
9.11331
  0
LINE
  8
0
 10
10.4644
 20
9.11331
 11
10.4338
 21
9.528
  0
LINE
  8
0
 10
10.4338
 20
9.528
 11
9.81992
 21
9.528
  0
LINE
  8
0
 10
9.81992
 20
9.528
 11
9.81992
 21
7.43959
  0
LINE
  8
0
 10
9.81992
 20
7.43959
 11
10.4873
 21
7.43959
  0
LINE
  8
0
 10
10.4873
 20
7.43959
 11
10.4873
 21
8.67992
  0
LINE
  8
0
 10
37.0768
 20
8.67992
 11
37.0823
 21
8.75745
  0
LINE
  8
0
 10
37.0823
 20
8.75745
 11
37.0986
 21
8.82562
  0
LINE
  8
0
 10
37.0986
 20
8.82562
 11
37.1258
 21
8.88448
  0
LINE
  8
0
 10
37.1258
 20
8.88448
 11
37.1638
 21
8.93396
  0
LINE
  8
0
 10
37.1638
 20
8.93396
 11
37.2104
 21
8.97321
  0
LINE
  8
0
 10
37.2104
 20
8.97321
 11
37.263
 21
9.00124
  0
LINE
  8
0
 10
37.263
 20
9.00124
 11
37.3218
 21
9.01805
  0
LINE
  8
0
 10
37.3218
 20
9.01805
 11
37.3866
 21
9.02365
  0
LINE
  8
0
 10
37.3866
 20
9.02365
 11
37.4496
 21
9.01834
  0
LINE
  8
0
 10
37.4496
 20
9.01834
 11
37.5064
 21
9.0024
  0
LINE
  8
0
 10
37.5064
 20
9.0024
 11
37.5571
 21
8.97583
  0
LINE
  8
0
 10
37.5571
 20
8.97583
 11
37.6018
 21
8.93864
  0
LINE
  8
0
 10
37.6018
 20
8.93864
 11
37.6382
 21
8.89247
  0
LINE
  8
0
 10
37.6382
 20
8.89247
 11
37.6642
 21
8.83894
  0
LINE
  8
0
 10
37.6642
 20
8.83894
 11
37.6797
 21
8.77805
  0
LINE
  8
0
 10
37.6797
 20
8.77805
 11
37.685
 21
8.70981
  0
LINE
  8
0
 10
37.685
 20
8.70981
 11
37.685
 21
7.43959
  0
LINE
  8
0
 10
37.685
 20
7.43959
 11
38.3256
 21
7.43959
  0
LINE
  8
0
 10
38.3256
 20
7.43959
 11
38.3256
 21
8.69301
  0
LINE
  8
0
 10
38.3256
 20
8.69301
 11
38.3307
 21
8.76404
  0
LINE
  8
0
 10
38.3307
 20
8.76404
 11
38.3461
 21
8.82773
  0
LINE
  8
0
 10
38.3461
 20
8.82773
 11
38.3718
 21
8.88406
  0
LINE
  8
0
 10
38.3718
 20
8.88406
 11
38.4078
 21
8.93303
  0
LINE
  8
0
 10
38.4078
 20
8.93303
 11
38.4526
 21
8.97267
  0
LINE
  8
0
 10
38.4526
 20
8.97267
 11
38.5049
 21
9.00099
  0
LINE
  8
0
 10
38.5049
 20
9.00099
 11
38.5645
 21
9.01799
  0
LINE
  8
0
 10
38.5645
 20
9.01799
 11
38.6315
 21
9.02365
  0
LINE
  8
0
 10
38.6315
 20
9.02365
 11
38.6946
 21
9.01851
  0
LINE
  8
0
 10
38.6946
 20
9.01851
 11
38.7518
 21
9.0031
  0
LINE
  8
0
 10
38.7518
 20
9.0031
 11
38.8031
 21
8.97742
  0
LINE
  8
0
 10
38.8031
 20
8.97742
 11
38.8486
 21
8.94145
  0
LINE
  8
0
 10
38.8486
 20
8.94145
 11
38.8858
 21
8.89557
  0
LINE
  8
0
 10
38.8858
 20
8.89557
 11
38.9124
 21
8.84012
  0
LINE
  8
0
 10
38.9124
 20
8.84012
 11
38.9284
 21
8.77509
  0
LINE
  8
0
 10
38.9284
 20
8.77509
 11
38.9337
 21
8.70047
  0
LINE
  8
0
 10
38.9337
 20
8.70047
 11
38.9337
 21
7.43959
  0
LINE
  8
0
 10
38.9337
 20
7.43959
 11
39.5992
 21
7.43959
  0
LINE
  8
0
 10
39.5992
 20
7.43959
 11
39.5992
 21
8.84805
  0
LINE
  8
0
 10
39.5992
 20
8.84805
 11
39.5872
 21
9.0045
  0
LINE
  8
0
 10
39.5872
 20
9.0045
 11
39.5511
 21
9.1432
  0
LINE
  8
0
 10
39.5511
 20
9.1432
 11
39.4911
 21
9.26416
  0
LINE
  8
0
 10
39.4911
 20
9.26416
 11
39.407
 21
9.36736
  0
LINE
  8
0
 10
39.407
 20
9.36736
 11
39.3042
 21
9.44991
  0
LINE
  8
0
 10
39.3042
 20
9.44991
 11
39.1878
 21
9.50887
  0
LINE
  8
0
 10
39.1878
 20
9.50887
 11
39.0579
 21
9.54425
  0
LINE
  8
0
 10
39.0579
 20
9.54425
 11
38.9146
 21
9.55603
  0
LINE
  8
0
 10
38.9146
 20
9.55603
 11
38.8081
 21
9.54897
  0
LINE
  8
0
 10
38.8081
 20
9.54897
 11
38.7049
 21
9.52779
  0
LINE
  8
0
 10
38.7049
 20
9.52779
 11
38.605
 21
9.49246
  0
LINE
  8
0
 10
38.605
 20
9.49246
 11
38.5082
 21
9.44302
  0
LINE
  8
0
 10
38.5082
 20
9.44302
 11
38.4189
 21
9.37746
  0
LINE
  8
0
 10
38.4189
 20
9.37746
 11
38.3411
 21
9.29381
  0
LINE
  8
0
 10
38.3411
 20
9.29381
 11
38.275
 21
9.19206
  0
LINE
  8
0
 10
38.275
 20
9.19206
 11
38.2204
 21
9.0722
  0
LINE
  8
0
 10
38.2204
 20
9.0722
 11
38.1777
 21
9.1913
  0
LINE
  8
0
 10
38.1777
 20
9.1913
 11
38.1279
 21
9.29263
  0
LINE
  8
0
 10
38.1279
 20
9.29263
 11
38.0711
 21
9.37624
  0
LINE
  8
0
 10
38.0711
 20
9.37624
 11
38.0072
 21
9.44208
  0
LINE
  8
0
 10
38.0072
 20
9.44208
 11
37.9355
 21
9.49194
  0
LINE
  8
0
 10
37.9355
 20
9.49194
 11
37.8554
 21
9.52754
  0
LINE
  8
0
 10
37.8554
 20
9.52754
 11
37.7668
 21
9.54892
  0
LINE
  8
0
 10
37.7668
 20
9.54892
 11
37.6696
 21
9.55603
  0
LINE
  8
0
 10
37.6696
 20
9.55603
 11
37.5747
 21
9.54956
  0
LINE
  8
0
 10
37.5747
 20
9.54956
 11
37.483
 21
9.53012
  0
LINE
  8
0
 10
37.483
 20
9.53012
 11
37.3945
 21
9.49771
  0
LINE
  8
0
 10
37.3945
 20
9.49771
 11
37.3092
 21
9.45236
  0
LINE
  8
0
 10
37.3092
 20
9.45236
 11
37.2305
 21
9.39229
  0
LINE
  8
0
 10
37.2305
 20
9.39229
 11
37.1617
 21
9.31575
  0
LINE
  8
0
 10
37.1617
 20
9.31575
 11
37.1028
 21
9.22276
  0
LINE
  8
0
 10
37.1028
 20
9.22276
 11
37.0539
 21
9.11331
  0
LINE
  8
0
 10
37.0539
 20
9.11331
 11
37.0233
 21
9.528
  0
LINE
  8
0
 10
37.0233
 20
9.528
 11
36.4094
 21
9.528
  0
LINE
  8
0
 10
36.4094
 20
9.528
 11
36.4094
 21
7.43959
  0
LINE
  8
0
 10
36.4094
 20
7.43959
 11
37.0768
 21
7.43959
  0
LINE
  8
0
 10
37.0768
 20
7.43959
 11
37.0768
 21
8.67992
  0
LINE
  8
0
 10
29.3016
 20
7.4104
 11
29.4704
 21
7.44052
  0
LINE
  8
0
 10
29.4704
 20
7.44052
 11
29.6223
 21
7.49072
  0
LINE
  8
0
 10
29.6223
 20
7.49072
 11
29.7575
 21
7.561
  0
LINE
  8
0
 10
29.7575
 20
7.561
 11
29.8734
 21
7.64821
  0
LINE
  8
0
 10
29.8734
 20
7.64821
 11
29.9676
 21
7.74921
  0
LINE
  8
0
 10
29.9676
 20
7.74921
 11
30.0402
 21
7.86397
  0
LINE
  8
0
 10
30.0402
 20
7.86397
 11
30.0912
 21
7.99252
  0
LINE
  8
0
 10
30.0912
 20
7.99252
 11
29.4964
 21
8.08777
  0
LINE
  8
0
 10
29.4964
 20
8.08777
 11
29.4728
 21
8.03856
  0
LINE
  8
0
 10
29.4728
 20
8.03856
 11
29.4419
 21
7.99554
  0
LINE
  8
0
 10
29.4419
 20
7.99554
 11
29.4039
 21
7.95871
  0
LINE
  8
0
 10
29.4039
 20
7.95871
 11
29.3587
 21
7.92807
  0
LINE
  8
0
 10
29.3587
 20
7.92807
 11
29.3077
 21
7.90396
  0
LINE
  8
0
 10
29.3077
 20
7.90396
 11
29.2521
 21
7.88675
  0
LINE
  8
0
 10
29.2521
 20
7.88675
 11
29.192
 21
7.87642
  0
LINE
  8
0
 10
29.192
 20
7.87642
 11
29.1273
 21
7.87297
  0
LINE
  8
0
 10
29.1273
 20
7.87297
 11
29.0372
 21
7.88004
  0
LINE
  8
0
 10
29.0372
 20
7.88004
 11
28.956
 21
7.90121
  0
LINE
  8
0
 10
28.956
 20
7.90121
 11
28.8837
 21
7.93652
  0
LINE
  8
0
 10
28.8837
 20
7.93652
 11
28.8204
 21
7.98596
  0
LINE
  8
0
 10
28.8204
 20
7.98596
 11
28.7684
 21
8.04953
  0
LINE
  8
0
 10
28.7684
 20
8.04953
 11
28.7298
 21
8.12723
  0
LINE
  8
0
 10
28.7298
 20
8.12723
 11
28.7048
 21
8.21906
  0
LINE
  8
0
 10
28.7048
 20
8.21906
 11
28.6933
 21
8.32501
  0
LINE
  8
0
 10
28.6933
 20
8.32501
 11
30.1218
 21
8.32501
  0
LINE
  8
0
 10
30.1218
 20
8.32501
 11
30.1218
 21
8.4894
  0
LINE
  8
0
 10
30.1218
 20
8.4894
 11
30.1135
 21
8.65465
  0
LINE
  8
0
 10
30.1135
 20
8.65465
 11
30.0885
 21
8.80672
  0
LINE
  8
0
 10
30.0885
 20
8.80672
 11
30.047
 21
8.94559
  0
LINE
  8
0
 10
30.047
 20
8.94559
 11
29.9889
 21
9.07127
  0
LINE
  8
0
 10
29.9889
 20
9.07127
 11
29.9162
 21
9.18312
  0
LINE
  8
0
 10
29.9162
 20
9.18312
 11
29.8311
 21
9.2805
  0
LINE
  8
0
 10
29.8311
 20
9.2805
 11
29.7336
 21
9.36339
  0
LINE
  8
0
 10
29.7336
 20
9.36339
 11
29.6236
 21
9.43181
  0
LINE
  8
0
 10
29.6236
 20
9.43181
 11
29.5032
 21
9.48534
  0
LINE
  8
0
 10
29.5032
 20
9.48534
 11
29.3743
 21
9.52357
  0
LINE
  8
0
 10
29.3743
 20
9.52357
 11
29.2369
 21
9.54651
  0
LINE
  8
0
 10
29.2369
 20
9.54651
 11
29.091
 21
9.55417
  0
LINE
  8
0
 10
29.091
 20
9.55417
 11
28.9357
 21
9.5457
  0
LINE
  8
0
 10
28.9357
 20
9.5457
 11
28.7908
 21
9.52031
  0
LINE
  8
0
 10
28.7908
 20
9.52031
 11
28.6564
 21
9.47798
  0
LINE
  8
0
 10
28.6564
 20
9.47798
 11
28.5326
 21
9.41873
  0
LINE
  8
0
 10
28.5326
 20
9.41873
 11
28.4208
 21
9.3443
  0
LINE
  8
0
 10
28.4208
 20
9.3443
 11
28.3225
 21
9.25644
  0
LINE
  8
0
 10
28.3225
 20
9.25644
 11
28.2377
 21
9.15515
  0
LINE
  8
0
 10
28.2377
 20
9.15515
 11
28.1664
 21
9.04045
  0
LINE
  8
0
 10
28.1664
 20
9.04045
 11
28.1099
 21
8.91414
  0
LINE
  8
0
 10
28.1099
 20
8.91414
 11
28.0696
 21
8.778
  0
LINE
  8
0
 10
28.0696
 20
8.778
 11
28.0454
 21
8.63206
  0
LINE
  8
0
 10
28.0454
 20
8.63206
 11
28.0373
 21
8.47632
  0
LINE
  8
0
 10
28.0373
 20
8.47632
 11
28.0553
 21
8.23856
  0
LINE
  8
0
 10
28.0553
 20
8.23856
 11
28.1093
 21
8.02777
  0
LINE
  8
0
 10
28.1093
 20
8.02777
 11
28.1992
 21
7.84395
  0
LINE
  8
0
 10
28.1992
 20
7.84395
 11
28.3251
 21
7.6871
  0
LINE
  8
0
 10
28.3251
 20
7.6871
 11
28.4825
 21
7.56165
  0
LINE
  8
0
 10
28.4825
 20
7.56165
 11
28.6667
 21
7.47205
  0
LINE
  8
0
 10
28.6667
 20
7.47205
 11
28.8779
 21
7.41829
  0
LINE
  8
0
 10
28.8779
 20
7.41829
 11
29.1159
 21
7.40036
  0
LINE
  8
0
 10
29.1159
 20
7.40036
 11
29.3016
 21
7.4104
  0
LINE
  8
0
 10
28.6971
 20
8.70421
 11
28.7119
 21
8.78658
  0
LINE
  8
0
 10
28.7119
 20
8.78658
 11
28.737
 21
8.85995
  0
LINE
  8
0
 10
28.737
 20
8.85995
 11
28.7726
 21
8.92435
  0
LINE
  8
0
 10
28.7726
 20
8.92435
 11
28.8185
 21
8.97975
  0
LINE
  8
0
 10
28.8185
 20
8.97975
 11
28.8743
 21
9.02429
  0
LINE
  8
0
 10
28.8743
 20
9.02429
 11
28.9392
 21
9.05609
  0
LINE
  8
0
 10
28.9392
 20
9.05609
 11
29.0134
 21
9.07518
  0
LINE
  8
0
 10
29.0134
 20
9.07518
 11
29.0968
 21
9.08156
  0
LINE
  8
0
 10
29.0968
 20
9.08156
 11
29.1791
 21
9.0753
  0
LINE
  8
0
 10
29.1791
 20
9.0753
 11
29.2521
 21
9.05656
  0
LINE
  8
0
 10
29.2521
 20
9.05656
 11
29.3158
 21
9.02534
  0
LINE
  8
0
 10
29.3158
 20
9.02534
 11
29.3702
 21
8.98161
  0
LINE
  8
0
 10
29.3702
 20
8.98161
 11
29.4149
 21
8.9268
  0
LINE
  8
0
 10
29.4149
 20
8.9268
 11
29.4496
 21
8.8623
  0
LINE
  8
0
 10
29.4496
 20
8.8623
 11
29.4742
 21
8.7881
  0
LINE
  8
0
 10
29.4742
 20
8.7881
 11
29.4888
 21
8.70421
  0
LINE
  8
0
 10
29.4888
 20
8.70421
 11
28.6971
 21
8.70421
  0
LINE
  8
0
 10
32.9545
 20
7.41302
 11
33.1327
 21
7.45103
  0
LINE
  8
0
 10
33.1327
 20
7.45103
 11
33.2921
 21
7.51437
  0
LINE
  8
0
 10
33.2921
 20
7.51437
 11
33.4325
 21
7.60303
  0
LINE
  8
0
 10
33.4325
 20
7.60303
 11
33.5502
 21
7.71365
  0
LINE
  8
0
 10
33.5502
 20
7.71365
 11
33.6414
 21
7.84283
  0
LINE
  8
0
 10
33.6414
 20
7.84283
 11
33.7061
 21
7.99059
  0
LINE
  8
0
 10
33.7061
 20
7.99059
 11
33.7442
 21
8.15691
  0
LINE
  8
0
 10
33.7442
 20
8.15691
 11
33.1284
 21
8.25403
  0
LINE
  8
0
 10
33.1284
 20
8.25403
 11
33.1092
 21
8.17464
  0
LINE
  8
0
 10
33.1092
 20
8.17464
 11
33.0823
 21
8.1046
  0
LINE
  8
0
 10
33.0823
 20
8.1046
 11
33.0476
 21
8.04388
  0
LINE
  8
0
 10
33.0476
 20
8.04388
 11
33.0051
 21
7.99252
  0
LINE
  8
0
 10
33.0051
 20
7.99252
 11
32.9553
 21
7.95166
  0
LINE
  8
0
 10
32.9553
 20
7.95166
 11
32.8987
 21
7.92247
  0
LINE
  8
0
 10
32.8987
 20
7.92247
 11
32.8353
 21
7.90495
  0
LINE
  8
0
 10
32.8353
 20
7.90495
 11
32.7651
 21
7.89911
  0
LINE
  8
0
 10
32.7651
 20
7.89911
 11
32.6748
 21
7.90886
  0
LINE
  8
0
 10
32.6748
 20
7.90886
 11
32.5954
 21
7.93811
  0
LINE
  8
0
 10
32.5954
 20
7.93811
 11
32.5266
 21
7.98683
  0
LINE
  8
0
 10
32.5266
 20
7.98683
 11
32.4687
 21
8.05507
  0
LINE
  8
0
 10
32.4687
 20
8.05507
 11
32.4227
 21
8.14012
  0
LINE
  8
0
 10
32.4227
 20
8.14012
 11
32.3898
 21
8.2393
  0
LINE
  8
0
 10
32.3898
 20
8.2393
 11
32.3701
 21
8.35262
  0
LINE
  8
0
 10
32.3701
 20
8.35262
 11
32.3635
 21
8.48006
  0
LINE
  8
0
 10
32.3635
 20
8.48006
 11
32.3701
 21
8.60806
  0
LINE
  8
0
 10
32.3701
 20
8.60806
 11
32.3898
 21
8.72125
  0
LINE
  8
0
 10
32.3898
 20
8.72125
 11
32.4227
 21
8.81961
  0
LINE
  8
0
 10
32.4227
 20
8.81961
 11
32.4687
 21
8.90314
  0
LINE
  8
0
 10
32.4687
 20
8.90314
 11
32.5266
 21
8.96976
  0
LINE
  8
0
 10
32.5266
 20
8.96976
 11
32.5954
 21
9.01735
  0
LINE
  8
0
 10
32.5954
 20
9.01735
 11
32.6748
 21
9.0459
  0
LINE
  8
0
 10
32.6748
 20
9.0459
 11
32.7651
 21
9.05542
  0
LINE
  8
0
 10
32.7651
 20
9.05542
 11
32.8352
 21
9.0498
  0
LINE
  8
0
 10
32.8352
 20
9.0498
 11
32.8982
 21
9.03299
  0
LINE
  8
0
 10
32.8982
 20
9.03299
 11
32.9542
 21
9.00496
  0
LINE
  8
0
 10
32.9542
 20
9.00496
 11
33.0032
 21
8.96573
  0
LINE
  8
0
 10
33.0032
 20
8.96573
 11
33.0449
 21
8.91623
  0
LINE
  8
0
 10
33.0449
 20
8.91623
 11
33.0794
 21
8.85739
  0
LINE
  8
0
 10
33.0794
 20
8.85739
 11
33.1066
 21
8.7892
  0
LINE
  8
0
 10
33.1066
 20
8.7892
 11
33.1265
 21
8.71169
  0
LINE
  8
0
 10
33.1265
 20
8.71169
 11
33.7423
 21
8.81255
  0
LINE
  8
0
 10
33.7423
 20
8.81255
 11
33.7041
 21
8.97459
  0
LINE
  8
0
 10
33.7041
 20
8.97459
 11
33.6393
 21
9.11891
  0
LINE
  8
0
 10
33.6393
 20
9.11891
 11
33.5477
 21
9.24547
  0
LINE
  8
0
 10
33.5477
 20
9.24547
 11
33.4296
 21
9.35426
  0
LINE
  8
0
 10
33.4296
 20
9.35426
 11
33.289
 21
9.44173
  0
LINE
  8
0
 10
33.289
 20
9.44173
 11
33.1301
 21
9.5042
  0
LINE
  8
0
 10
33.1301
 20
9.5042
 11
32.9529
 21
9.54167
  0
LINE
  8
0
 10
32.9529
 20
9.54167
 11
32.7574
 21
9.55417
  0
LINE
  8
0
 10
32.7574
 20
9.55417
 11
32.596
 21
9.5457
  0
LINE
  8
0
 10
32.596
 20
9.5457
 11
32.4462
 21
9.52031
  0
LINE
  8
0
 10
32.4462
 20
9.52031
 11
32.3082
 21
9.47798
  0
LINE
  8
0
 10
32.3082
 20
9.47798
 11
32.1818
 21
9.41873
  0
LINE
  8
0
 10
32.1818
 20
9.41873
 11
32.0683
 21
9.3443
  0
LINE
  8
0
 10
32.0683
 20
9.3443
 11
31.9688
 21
9.25644
  0
LINE
  8
0
 10
31.9688
 20
9.25644
 11
31.8833
 21
9.15515
  0
LINE
  8
0
 10
31.8833
 20
9.15515
 11
31.8118
 21
9.04045
  0
LINE
  8
0
 10
31.8118
 20
9.04045
 11
31.7553
 21
8.91414
  0
LINE
  8
0
 10
31.7553
 20
8.91414
 11
31.715
 21
8.778
  0
LINE
  8
0
 10
31.715
 20
8.778
 11
31.6908
 21
8.63206
  0
LINE
  8
0
 10
31.6908
 20
8.63206
 11
31.6827
 21
8.47632
  0
LINE
  8
0
 10
31.6827
 20
8.47632
 11
31.6908
 21
8.32063
  0
LINE
  8
0
 10
31.6908
 20
8.32063
 11
31.715
 21
8.17487
  0
LINE
  8
0
 10
31.715
 20
8.17487
 11
31.7553
 21
8.03903
  0
LINE
  8
0
 10
31.7553
 20
8.03903
 11
31.8118
 21
7.9131
  0
LINE
  8
0
 10
31.8118
 20
7.9131
 11
31.8833
 21
7.79881
  0
LINE
  8
0
 10
31.8833
 20
7.79881
 11
31.9688
 21
7.69783
  0
LINE
  8
0
 10
31.9688
 20
7.69783
 11
32.0683
 21
7.61015
  0
LINE
  8
0
 10
32.0683
 20
7.61015
 11
32.1818
 21
7.53577
  0
LINE
  8
0
 10
32.1818
 20
7.53577
 11
32.3082
 21
7.47653
  0
LINE
  8
0
 10
32.3082
 20
7.47653
 11
32.4462
 21
7.43422
  0
LINE
  8
0
 10
32.4462
 20
7.43422
 11
32.596
 21
7.40883
  0
LINE
  8
0
 10
32.596
 20
7.40883
 11
32.7574
 21
7.40036
  0
LINE
  8
0
 10
32.7574
 20
7.40036
 11
32.9545
 21
7.41302
  0
LINE
  8
0
 10
35.1953
 20
7.40883
 11
35.3449
 21
7.43422
  0
LINE
  8
0
 10
35.3449
 20
7.43422
 11
35.4827
 21
7.47653
  0
LINE
  8
0
 10
35.4827
 20
7.47653
 11
35.6086
 21
7.53577
  0
LINE
  8
0
 10
35.6086
 20
7.53577
 11
35.7216
 21
7.61015
  0
LINE
  8
0
 10
35.7216
 20
7.61015
 11
35.8208
 21
7.69783
  0
LINE
  8
0
 10
35.8208
 20
7.69783
 11
35.9062
 21
7.79881
  0
LINE
  8
0
 10
35.9062
 20
7.79881
 11
35.9776
 21
7.9131
  0
LINE
  8
0
 10
35.9776
 20
7.9131
 11
36.0341
 21
8.03903
  0
LINE
  8
0
 10
36.0341
 20
8.03903
 11
36.0745
 21
8.17487
  0
LINE
  8
0
 10
36.0745
 20
8.17487
 11
36.0987
 21
8.32063
  0
LINE
  8
0
 10
36.0987
 20
8.32063
 11
36.1067
 21
8.47632
  0
LINE
  8
0
 10
36.1067
 20
8.47632
 11
36.0987
 21
8.63206
  0
LINE
  8
0
 10
36.0987
 20
8.63206
 11
36.0745
 21
8.778
  0
LINE
  8
0
 10
36.0745
 20
8.778
 11
36.0341
 21
8.91414
  0
LINE
  8
0
 10
36.0341
 20
8.91414
 11
35.9776
 21
9.04045
  0
LINE
  8
0
 10
35.9776
 20
9.04045
 11
35.9062
 21
9.15515
  0
LINE
  8
0
 10
35.9062
 20
9.15515
 11
35.8208
 21
9.25644
  0
LINE
  8
0
 10
35.8208
 20
9.25644
 11
35.7216
 21
9.3443
  0
LINE
  8
0
 10
35.7216
 20
9.3443
 11
35.6086
 21
9.41873
  0
LINE
  8
0
 10
35.6086
 20
9.41873
 11
35.4827
 21
9.47798
  0
LINE
  8
0
 10
35.4827
 20
9.47798
 11
35.3449
 21
9.52031
  0
LINE
  8
0
 10
35.3449
 20
9.52031
 11
35.1953
 21
9.5457
  0
LINE
  8
0
 10
35.1953
 20
9.5457
 11
35.0339
 21
9.55417
  0
LINE
  8
0
 10
35.0339
 20
9.55417
 11
34.8725
 21
9.5457
  0
LINE
  8
0
 10
34.8725
 20
9.5457
 11
34.7227
 21
9.52031
  0
LINE
  8
0
 10
34.7227
 20
9.52031
 11
34.5847
 21
9.47798
  0
LINE
  8
0
 10
34.5847
 20
9.47798
 11
34.4583
 21
9.41873
  0
LINE
  8
0
 10
34.4583
 20
9.41873
 11
34.3448
 21
9.3443
  0
LINE
  8
0
 10
34.3448
 20
9.3443
 11
34.2453
 21
9.25644
  0
LINE
  8
0
 10
34.2453
 20
9.25644
 11
34.1598
 21
9.15515
  0
LINE
  8
0
 10
34.1598
 20
9.15515
 11
34.0883
 21
9.04045
  0
LINE
  8
0
 10
34.0883
 20
9.04045
 11
34.0318
 21
8.91414
  0
LINE
  8
0
 10
34.0318
 20
8.91414
 11
33.9915
 21
8.778
  0
LINE
  8
0
 10
33.9915
 20
8.778
 11
33.9673
 21
8.63206
  0
LINE
  8
0
 10
33.9673
 20
8.63206
 11
33.9592
 21
8.47632
  0
LINE
  8
0
 10
33.9592
 20
8.47632
 11
33.9673
 21
8.32063
  0
LINE
  8
0
 10
33.9673
 20
8.32063
 11
33.9915
 21
8.17487
  0
LINE
  8
0
 10
33.9915
 20
8.17487
 11
34.0318
 21
8.03903
  0
LINE
  8
0
 10
34.0318
 20
8.03903
 11
34.0883
 21
7.9131
  0
LINE
  8
0
 10
34.0883
 20
7.9131
 11
34.1598
 21
7.79881
  0
LINE
  8
0
 10
34.1598
 20
7.79881
 11
34.2453
 21
7.69783
  0
LINE
  8
0
 10
34.2453
 20
7.69783
 11
34.3448
 21
7.61015
  0
LINE
  8
0
 10
34.3448
 20
7.61015
 11
34.4583
 21
7.53577
  0
LINE
  8
0
 10
34.4583
 20
7.53577
 11
34.5847
 21
7.47653
  0
LINE
  8
0
 10
34.5847
 20
7.47653
 11
34.7227
 21
7.43422
  0
LINE
  8
0
 10
34.7227
 20
7.43422
 11
34.8725
 21
7.40883
  0
LINE
  8
0
 10
34.8725
 20
7.40883
 11
35.0339
 21
7.40036
  0
LINE
  8
0
 10
35.0339
 20
7.40036
 11
35.1953
 21
7.40883
  0
LINE
  8
0
 10
34.9439
 20
7.90909
 11
34.8652
 21
7.93904
  0
LINE
  8
0
 10
34.8652
 20
7.93904
 11
34.7976
 21
7.98895
  0
LINE
  8
0
 10
34.7976
 20
7.98895
 11
34.7413
 21
8.05882
  0
LINE
  8
0
 10
34.7413
 20
8.05882
 11
34.697
 21
8.14503
  0
LINE
  8
0
 10
34.697
 20
8.14503
 11
34.6653
 21
8.24399
  0
LINE
  8
0
 10
34.6653
 20
8.24399
 11
34.6463
 21
8.35567
  0
LINE
  8
0
 10
34.6463
 20
8.35567
 11
34.64
 21
8.48006
  0
LINE
  8
0
 10
34.64
 20
8.48006
 11
34.6463
 21
8.60428
  0
LINE
  8
0
 10
34.6463
 20
8.60428
 11
34.6653
 21
8.71542
  0
LINE
  8
0
 10
34.6653
 20
8.71542
 11
34.697
 21
8.81349
  0
LINE
  8
0
 10
34.697
 20
8.81349
 11
34.7413
 21
8.89848
  0
LINE
  8
0
 10
34.7413
 20
8.89848
 11
34.7976
 21
8.96715
  0
LINE
  8
0
 10
34.7976
 20
8.96715
 11
34.8652
 21
9.01617
  0
LINE
  8
0
 10
34.8652
 20
9.01617
 11
34.9439
 21
9.04561
  0
LINE
  8
0
 10
34.9439
 20
9.04561
 11
35.0339
 21
9.05542
  0
LINE
  8
0
 10
35.0339
 20
9.05542
 11
35.1239
 21
9.04561
  0
LINE
  8
0
 10
35.1239
 20
9.04561
 11
35.2027
 21
9.01617
  0
LINE
  8
0
 10
35.2027
 20
9.01617
 11
35.2702
 21
8.96715
  0
LINE
  8
0
 10
35.2702
 20
8.96715
 11
35.3265
 21
8.89848
  0
LINE
  8
0
 10
35.3265
 20
8.89848
 11
35.3708
 21
8.81349
  0
LINE
  8
0
 10
35.3708
 20
8.81349
 11
35.4025
 21
8.71542
  0
LINE
  8
0
 10
35.4025
 20
8.71542
 11
35.4215
 21
8.60428
  0
LINE
  8
0
 10
35.4215
 20
8.60428
 11
35.4279
 21
8.48006
  0
LINE
  8
0
 10
35.4279
 20
8.48006
 11
35.4215
 21
8.35567
  0
LINE
  8
0
 10
35.4215
 20
8.35567
 11
35.4025
 21
8.24399
  0
LINE
  8
0
 10
35.4025
 20
8.24399
 11
35.3708
 21
8.14503
  0
LINE
  8
0
 10
35.3708
 20
8.14503
 11
35.3265
 21
8.05882
  0
LINE
  8
0
 10
35.3265
 20
8.05882
 11
35.2702
 21
7.98895
  0
LINE
  8
0
 10
35.2702
 20
7.98895
 11
35.2027
 21
7.93904
  0
LINE
  8
0
 10
35.2027
 20
7.93904
 11
35.1239
 21
7.90909
  0
LINE
  8
0
 10
35.1239
 20
7.90909
 11
35.0339
 21
7.89911
  0
LINE
  8
0
 10
35.0339
 20
7.89911
 11
34.9439
 21
7.90909
  0
LINE
  8
0
 10
17.7911
 20
8.57906
 11
17.7987
 21
8.66801
  0
LINE
  8
0
 10
17.7987
 20
8.66801
 11
17.8215
 21
8.74811
  0
LINE
  8
0
 10
17.8215
 20
8.74811
 11
17.8594
 21
8.81932
  0
LINE
  8
0
 10
17.8594
 20
8.81932
 11
17.9125
 21
8.88165
  0
LINE
  8
0
 10
17.9125
 20
8.88165
 11
17.9773
 21
8.93233
  0
LINE
  8
0
 10
17.9773
 20
8.93233
 11
18.05
 21
8.96852
  0
LINE
  8
0
 10
18.05
 20
8.96852
 11
18.1307
 21
8.99025
  0
LINE
  8
0
 10
18.1307
 20
8.99025
 11
18.2195
 21
8.99748
  0
LINE
  8
0
 10
18.2195
 20
8.99748
 11
18.2511
 21
8.99696
  0
LINE
  8
0
 10
18.2511
 20
8.99696
 11
18.2847
 21
8.99539
  0
LINE
  8
0
 10
18.2847
 20
8.99539
 11
18.3204
 21
8.99275
  0
LINE
  8
0
 10
18.3204
 20
8.99275
 11
18.3581
 21
8.98909
  0
LINE
  8
0
 10
18.3581
 20
8.98909
 11
18.395
 21
8.98436
  0
LINE
  8
0
 10
18.395
 20
8.98436
 11
18.4281
 21
8.97858
  0
LINE
  8
0
 10
18.4281
 20
8.97858
 11
18.4576
 21
8.97176
  0
LINE
  8
0
 10
18.4576
 20
8.97176
 11
18.4834
 21
8.96388
  0
LINE
  8
0
 10
18.4834
 20
8.96388
 11
18.4834
 21
9.53174
  0
LINE
  8
0
 10
18.4834
 20
9.53174
 11
18.4371
 21
9.54155
  0
LINE
  8
0
 10
18.4371
 20
9.54155
 11
18.3902
 21
9.54855
  0
LINE
  8
0
 10
18.3902
 20
9.54855
 11
18.3425
 21
9.55276
  0
LINE
  8
0
 10
18.3425
 20
9.55276
 11
18.2941
 21
9.55417
  0
LINE
  8
0
 10
18.2941
 20
9.55417
 11
18.2088
 21
9.54785
  0
LINE
  8
0
 10
18.2088
 20
9.54785
 11
18.1289
 21
9.52895
  0
LINE
  8
0
 10
18.1289
 20
9.52895
 11
18.0544
 21
9.49742
  0
LINE
  8
0
 10
18.0544
 20
9.49742
 11
17.9852
 21
9.45329
  0
LINE
  8
0
 10
17.9852
 20
9.45329
 11
17.9235
 21
9.39632
  0
LINE
  8
0
 10
17.9235
 20
9.39632
 11
17.8712
 21
9.32626
  0
LINE
  8
0
 10
17.8712
 20
9.32626
 11
17.8283
 21
9.24315
  0
LINE
  8
0
 10
17.8283
 20
9.24315
 11
17.795
 21
9.14694
  0
LINE
  8
0
 10
17.795
 20
9.14694
 11
17.772
 21
9.14694
  0
LINE
  8
0
 10
17.772
 20
9.14694
 11
17.772
 21
9.528
  0
LINE
  8
0
 10
17.772
 20
9.528
 11
17.1237
 21
9.528
  0
LINE
  8
0
 10
17.1237
 20
9.528
 11
17.1237
 21
7.43959
  0
LINE
  8
0
 10
17.1237
 20
7.43959
 11
17.7911
 21
7.43959
  0
LINE
  8
0
 10
17.7911
 20
7.43959
 11
17.7911
 21
8.57906
  0
LINE
  8
0
 10
24.2332
 20
7.4229
 11
24.4046
 21
7.48489
  0
LINE
  8
0
 10
24.4046
 20
7.48489
 11
24.543
 21
7.58821
  0
LINE
  8
0
 10
24.543
 20
7.58821
 11
24.6484
 21
7.73285
  0
LINE
  8
0
 10
24.6484
 20
7.73285
 11
24.6656
 21
7.73285
  0
LINE
  8
0
 10
24.6656
 20
7.73285
 11
24.6656
 21
7.43959
  0
LINE
  8
0
 10
24.6656
 20
7.43959
 11
25.2929
 21
7.43959
  0
LINE
  8
0
 10
25.2929
 20
7.43959
 11
25.2929
 21
8.85739
  0
LINE
  8
0
 10
25.2929
 20
8.85739
 11
25.2849
 21
8.96521
  0
LINE
  8
0
 10
25.2849
 20
8.96521
 11
25.2611
 21
9.0645
  0
LINE
  8
0
 10
25.2611
 20
9.0645
 11
25.2214
 21
9.15527
  0
LINE
  8
0
 10
25.2214
 20
9.15527
 11
25.1657
 21
9.2375
  0
LINE
  8
0
 10
25.1657
 20
9.2375
 11
25.0966
 21
9.31078
  0
LINE
  8
0
 10
25.0966
 20
9.31078
 11
25.0165
 21
9.37457
  0
LINE
  8
0
 10
25.0165
 20
9.37457
 11
24.9255
 21
9.42892
  0
LINE
  8
0
 10
24.9255
 20
9.42892
 11
24.8234
 21
9.47382
  0
LINE
  8
0
 10
24.8234
 20
9.47382
 11
24.7127
 21
9.50896
  0
LINE
  8
0
 10
24.7127
 20
9.50896
 11
24.5956
 21
9.53407
  0
LINE
  8
0
 10
24.5956
 20
9.53407
 11
24.4722
 21
9.54913
  0
LINE
  8
0
 10
24.4722
 20
9.54913
 11
24.3425
 21
9.55417
  0
LINE
  8
0
 10
24.3425
 20
9.55417
 11
24.1514
 21
9.54372
  0
LINE
  8
0
 10
24.1514
 20
9.54372
 11
23.9798
 21
9.51236
  0
LINE
  8
0
 10
23.9798
 20
9.51236
 11
23.8277
 21
9.46011
  0
LINE
  8
0
 10
23.8277
 20
9.46011
 11
23.6951
 21
9.38696
  0
LINE
  8
0
 10
23.6951
 20
9.38696
 11
23.5837
 21
9.29713
  0
LINE
  8
0
 10
23.5837
 20
9.29713
 11
23.4951
 21
9.19481
  0
LINE
  8
0
 10
23.4951
 20
9.19481
 11
23.4293
 21
9.07999
  0
LINE
  8
0
 10
23.4293
 20
9.07999
 11
23.3863
 21
8.95267
  0
LINE
  8
0
 10
23.3863
 20
8.95267
 11
23.9906
 21
8.87607
  0
LINE
  8
0
 10
23.9906
 20
8.87607
 11
24.0079
 21
8.923
  0
LINE
  8
0
 10
24.0079
 20
8.923
 11
24.0331
 21
8.96478
  0
LINE
  8
0
 10
24.0331
 20
8.96478
 11
24.0662
 21
9.00143
  0
LINE
  8
0
 10
24.0662
 20
9.00143
 11
24.1072
 21
9.03296
  0
LINE
  8
0
 10
24.1072
 20
9.03296
 11
24.1553
 21
9.0583
  0
LINE
  8
0
 10
24.1553
 20
9.0583
 11
24.2095
 21
9.0764
  0
LINE
  8
0
 10
24.2095
 20
9.0764
 11
24.27
 21
9.08727
  0
LINE
  8
0
 10
24.27
 20
9.08727
 11
24.3367
 21
9.0909
  0
LINE
  8
0
 10
24.3367
 20
9.0909
 11
24.401
 21
9.08722
  0
LINE
  8
0
 10
24.401
 20
9.08722
 11
24.4579
 21
9.07617
  0
LINE
  8
0
 10
24.4579
 20
9.07617
 11
24.5076
 21
9.05779
  0
LINE
  8
0
 10
24.5076
 20
9.05779
 11
24.5499
 21
9.03206
  0
LINE
  8
0
 10
24.5499
 20
9.03206
 11
24.5838
 21
8.99954
  0
LINE
  8
0
 10
24.5838
 20
8.99954
 11
24.608
 21
8.96083
  0
LINE
  8
0
 10
24.608
 20
8.96083
 11
24.6225
 21
8.91594
  0
LINE
  8
0
 10
24.6225
 20
8.91594
 11
24.6274
 21
8.86485
  0
LINE
  8
0
 10
24.6274
 20
8.86485
 11
24.6274
 21
8.85739
  0
LINE
  8
0
 10
24.6274
 20
8.85739
 11
24.62
 21
8.81285
  0
LINE
  8
0
 10
24.62
 20
8.81285
 11
24.598
 21
8.77638
  0
LINE
  8
0
 10
24.598
 20
8.77638
 11
24.5612
 21
8.74794
  0
LINE
  8
0
 10
24.5612
 20
8.74794
 11
24.5098
 21
8.72757
  0
LINE
  8
0
 10
24.5098
 20
8.72757
 11
24.4413
 21
8.71187
  0
LINE
  8
0
 10
24.4413
 20
8.71187
 11
24.3537
 21
8.69745
  0
LINE
  8
0
 10
24.3537
 20
8.69745
 11
24.2468
 21
8.68431
  0
LINE
  8
0
 10
24.2468
 20
8.68431
 11
24.1206
 21
8.67245
  0
LINE
  8
0
 10
24.1206
 20
8.67245
 11
24.0148
 21
8.6602
  0
LINE
  8
0
 10
24.0148
 20
8.6602
 11
23.9134
 21
8.64211
  0
LINE
  8
0
 10
23.9134
 20
8.64211
 11
23.8164
 21
8.61816
  0
LINE
  8
0
 10
23.8164
 20
8.61816
 11
23.7238
 21
8.58839
  0
LINE
  8
0
 10
23.7238
 20
8.58839
 11
23.6379
 21
8.55127
  0
LINE
  8
0
 10
23.6379
 20
8.55127
 11
23.561
 21
8.50528
  0
LINE
  8
0
 10
23.561
 20
8.50528
 11
23.4931
 21
8.45041
  0
LINE
  8
0
 10
23.4931
 20
8.45041
 11
23.4341
 21
8.38666
  0
LINE
  8
0
 10
23.4341
 20
8.38666
 11
23.3864
 21
8.31252
  0
LINE
  8
0
 10
23.3864
 20
8.31252
 11
23.3523
 21
8.22649
  0
LINE
  8
0
 10
23.3523
 20
8.22649
 11
23.3319
 21
8.12852
  0
LINE
  8
0
 10
23.3319
 20
8.12852
 11
23.3251
 21
8.01866
  0
LINE
  8
0
 10
23.3251
 20
8.01866
 11
23.3375
 21
7.87343
  0
LINE
  8
0
 10
23.3375
 20
7.87343
 11
23.3746
 21
7.7478
  0
LINE
  8
0
 10
23.3746
 20
7.7478
 11
23.4364
 21
7.6418
  0
LINE
  8
0
 10
23.4364
 20
7.6418
 11
23.523
 21
7.5554
  0
LINE
  8
0
 10
23.523
 20
7.5554
 11
23.6289
 21
7.4884
  0
LINE
  8
0
 10
23.6289
 20
7.4884
 11
23.7484
 21
7.44054
  0
LINE
  8
0
 10
23.7484
 20
7.44054
 11
23.8818
 21
7.4118
  0
LINE
  8
0
 10
23.8818
 20
7.4118
 11
24.0288
 21
7.40224
  0
LINE
  8
0
 10
24.0288
 20
7.40224
 11
24.2332
 21
7.4229
  0
LINE
  8
0
 10
24.174
 20
7.83716
 11
24.1218
 21
7.8475
  0
LINE
  8
0
 10
24.1218
 20
7.8475
 11
24.075
 21
7.86473
  0
LINE
  8
0
 10
24.075
 20
7.86473
 11
24.0336
 21
7.88884
  0
LINE
  8
0
 10
24.0336
 20
7.88884
 11
23.9997
 21
7.91949
  0
LINE
  8
0
 10
23.9997
 20
7.91949
 11
23.9755
 21
7.95633
  0
LINE
  8
0
 10
23.9755
 20
7.95633
 11
23.961
 21
7.99934
  0
LINE
  8
0
 10
23.961
 20
7.99934
 11
23.9562
 21
8.04854
  0
LINE
  8
0
 10
23.9562
 20
8.04854
 11
23.9754
 21
8.14043
  0
LINE
  8
0
 10
23.9754
 20
8.14043
 11
24.0331
 21
8.21246
  0
LINE
  8
0
 10
24.0331
 20
8.21246
 11
24.1293
 21
8.26465
  0
LINE
  8
0
 10
24.1293
 20
8.26465
 11
24.264
 21
8.297
  0
LINE
  8
0
 10
24.264
 20
8.297
 11
24.3119
 21
8.30481
  0
LINE
  8
0
 10
24.3119
 20
8.30481
 11
24.3616
 21
8.31332
  0
LINE
  8
0
 10
24.3616
 20
8.31332
 11
24.4132
 21
8.32256
  0
LINE
  8
0
 10
24.4132
 20
8.32256
 11
24.4667
 21
8.33247
  0
LINE
  8
0
 10
24.4667
 20
8.33247
 11
24.518
 21
8.34334
  0
LINE
  8
0
 10
24.518
 20
8.34334
 11
24.5628
 21
8.35536
  0
LINE
  8
0
 10
24.5628
 20
8.35536
 11
24.6012
 21
8.36856
  0
LINE
  8
0
 10
24.6012
 20
8.36856
 11
24.6331
 21
8.38293
  0
LINE
  8
0
 10
24.6331
 20
8.38293
 11
24.6331
 21
8.18304
  0
LINE
  8
0
 10
24.6331
 20
8.18304
 11
24.6258
 21
8.10913
  0
LINE
  8
0
 10
24.6258
 20
8.10913
 11
24.604
 21
8.04247
  0
LINE
  8
0
 10
24.604
 20
8.04247
 11
24.5675
 21
7.98303
  0
LINE
  8
0
 10
24.5675
 20
7.98303
 11
24.5165
 21
7.93085
  0
LINE
  8
0
 10
24.5165
 20
7.93085
 11
24.4549
 21
7.88835
  0
LINE
  8
0
 10
24.4549
 20
7.88835
 11
24.3869
 21
7.858
  0
LINE
  8
0
 10
24.3869
 20
7.858
 11
24.3125
 21
7.8398
  0
LINE
  8
0
 10
24.3125
 20
7.8398
 11
24.2315
 21
7.83372
  0
LINE
  8
0
 10
24.2315
 20
7.83372
 11
24.174
 21
7.83716
  0
LINE
  8
0
 10
14.5483
 20
7.4104
 11
14.7171
 21
7.44052
  0
LINE
  8
0
 10
14.7171
 20
7.44052
 11
14.8691
 21
7.49072
  0
LINE
  8
0
 10
14.8691
 20
7.49072
 11
15.0042
 21
7.561
  0
LINE
  8
0
 10
15.0042
 20
7.561
 11
15.1201
 21
7.64821
  0
LINE
  8
0
 10
15.1201
 20
7.64821
 11
15.2143
 21
7.74921
  0
LINE
  8
0
 10
15.2143
 20
7.74921
 11
15.2869
 21
7.86397
  0
LINE
  8
0
 10
15.2869
 20
7.86397
 11
15.3379
 21
7.99252
  0
LINE
  8
0
 10
15.3379
 20
7.99252
 11
14.7431
 21
8.08777
  0
LINE
  8
0
 10
14.7431
 20
8.08777
 11
14.7195
 21
8.03856
  0
LINE
  8
0
 10
14.7195
 20
8.03856
 11
14.6887
 21
7.99554
  0
LINE
  8
0
 10
14.6887
 20
7.99554
 11
14.6507
 21
7.95871
  0
LINE
  8
0
 10
14.6507
 20
7.95871
 11
14.6055
 21
7.92807
  0
LINE
  8
0
 10
14.6055
 20
7.92807
 11
14.5544
 21
7.90396
  0
LINE
  8
0
 10
14.5544
 20
7.90396
 11
14.4989
 21
7.88675
  0
LINE
  8
0
 10
14.4989
 20
7.88675
 11
14.4387
 21
7.87642
  0
LINE
  8
0
 10
14.4387
 20
7.87642
 11
14.3741
 21
7.87297
  0
LINE
  8
0
 10
14.3741
 20
7.87297
 11
14.2839
 21
7.88004
  0
LINE
  8
0
 10
14.2839
 20
7.88004
 11
14.2027
 21
7.90121
  0
LINE
  8
0
 10
14.2027
 20
7.90121
 11
14.1304
 21
7.93652
  0
LINE
  8
0
 10
14.1304
 20
7.93652
 11
14.0672
 21
7.98596
  0
LINE
  8
0
 10
14.0672
 20
7.98596
 11
14.0151
 21
8.04953
  0
LINE
  8
0
 10
14.0151
 20
8.04953
 11
13.9766
 21
8.12723
  0
LINE
  8
0
 10
13.9766
 20
8.12723
 11
13.9515
 21
8.21906
  0
LINE
  8
0
 10
13.9515
 20
8.21906
 11
13.94
 21
8.32501
  0
LINE
  8
0
 10
13.94
 20
8.32501
 11
15.3685
 21
8.32501
  0
LINE
  8
0
 10
15.3685
 20
8.32501
 11
15.3685
 21
8.4894
  0
LINE
  8
0
 10
15.3685
 20
8.4894
 11
15.3602
 21
8.65465
  0
LINE
  8
0
 10
15.3602
 20
8.65465
 11
15.3353
 21
8.80672
  0
LINE
  8
0
 10
15.3353
 20
8.80672
 11
15.2937
 21
8.94559
  0
LINE
  8
0
 10
15.2937
 20
8.94559
 11
15.2356
 21
9.07127
  0
LINE
  8
0
 10
15.2356
 20
9.07127
 11
15.1629
 21
9.18312
  0
LINE
  8
0
 10
15.1629
 20
9.18312
 11
15.0778
 21
9.2805
  0
LINE
  8
0
 10
15.0778
 20
9.2805
 11
14.9803
 21
9.36339
  0
LINE
  8
0
 10
14.9803
 20
9.36339
 11
14.8703
 21
9.43181
  0
LINE
  8
0
 10
14.8703
 20
9.43181
 11
14.7499
 21
9.48534
  0
LINE
  8
0
 10
14.7499
 20
9.48534
 11
14.621
 21
9.52357
  0
LINE
  8
0
 10
14.621
 20
9.52357
 11
14.4836
 21
9.54651
  0
LINE
  8
0
 10
14.4836
 20
9.54651
 11
14.3378
 21
9.55417
  0
LINE
  8
0
 10
14.3378
 20
9.55417
 11
14.1824
 21
9.5457
  0
LINE
  8
0
 10
14.1824
 20
9.5457
 11
14.0375
 21
9.52031
  0
LINE
  8
0
 10
14.0375
 20
9.52031
 11
13.9032
 21
9.47798
  0
LINE
  8
0
 10
13.9032
 20
9.47798
 11
13.7793
 21
9.41873
  0
LINE
  8
0
 10
13.7793
 20
9.41873
 11
13.6675
 21
9.3443
  0
LINE
  8
0
 10
13.6675
 20
9.3443
 11
13.5692
 21
9.25644
  0
LINE
  8
0
 10
13.5692
 20
9.25644
 11
13.4844
 21
9.15515
  0
LINE
  8
0
 10
13.4844
 20
9.15515
 11
13.4131
 21
9.04045
  0
LINE
  8
0
 10
13.4131
 20
9.04045
 11
13.3567
 21
8.91414
  0
LINE
  8
0
 10
13.3567
 20
8.91414
 11
13.3163
 21
8.778
  0
LINE
  8
0
 10
13.3163
 20
8.778
 11
13.2921
 21
8.63206
  0
LINE
  8
0
 10
13.2921
 20
8.63206
 11
13.2841
 21
8.47632
  0
LINE
  8
0
 10
13.2841
 20
8.47632
 11
13.302
 21
8.23856
  0
LINE
  8
0
 10
13.302
 20
8.23856
 11
13.356
 21
8.02777
  0
LINE
  8
0
 10
13.356
 20
8.02777
 11
13.4459
 21
7.84395
  0
LINE
  8
0
 10
13.4459
 20
7.84395
 11
13.5719
 21
7.6871
  0
LINE
  8
0
 10
13.5719
 20
7.6871
 11
13.7292
 21
7.56165
  0
LINE
  8
0
 10
13.7292
 20
7.56165
 11
13.9135
 21
7.47205
  0
LINE
  8
0
 10
13.9135
 20
7.47205
 11
14.1246
 21
7.41829
  0
LINE
  8
0
 10
14.1246
 20
7.41829
 11
14.3626
 21
7.40036
  0
LINE
  8
0
 10
14.3626
 20
7.40036
 11
14.5483
 21
7.4104
  0
LINE
  8
0
 10
13.9438
 20
8.70421
 11
13.9586
 21
8.78658
  0
LINE
  8
0
 10
13.9586
 20
8.78658
 11
13.9837
 21
8.85995
  0
LINE
  8
0
 10
13.9837
 20
8.85995
 11
14.0193
 21
8.92435
  0
LINE
  8
0
 10
14.0193
 20
8.92435
 11
14.0652
 21
8.97975
  0
LINE
  8
0
 10
14.0652
 20
8.97975
 11
14.121
 21
9.02429
  0
LINE
  8
0
 10
14.121
 20
9.02429
 11
14.1859
 21
9.05609
  0
LINE
  8
0
 10
14.1859
 20
9.05609
 11
14.2601
 21
9.07518
  0
LINE
  8
0
 10
14.2601
 20
9.07518
 11
14.3435
 21
9.08156
  0
LINE
  8
0
 10
14.3435
 20
9.08156
 11
14.4258
 21
9.0753
  0
LINE
  8
0
 10
14.4258
 20
9.0753
 11
14.4989
 21
9.05656
  0
LINE
  8
0
 10
14.4989
 20
9.05656
 11
14.5626
 21
9.02534
  0
LINE
  8
0
 10
14.5626
 20
9.02534
 11
14.6169
 21
8.98161
  0
LINE
  8
0
 10
14.6169
 20
8.98161
 11
14.6617
 21
8.9268
  0
LINE
  8
0
 10
14.6617
 20
8.9268
 11
14.6963
 21
8.8623
  0
LINE
  8
0
 10
14.6963
 20
8.8623
 11
14.7209
 21
8.7881
  0
LINE
  8
0
 10
14.7209
 20
8.7881
 11
14.7355
 21
8.70421
  0
LINE
  8
0
 10
14.7355
 20
8.70421
 11
13.9438
 21
8.70421
  0
LINE
  8
0
 10
19.4065
 20
9.528
 11
18.7391
 21
9.528
  0
LINE
  8
0
 10
18.7391
 20
9.528
 11
18.7391
 21
7.43959
  0
LINE
  8
0
 10
18.7391
 20
7.43959
 11
19.4065
 21
7.43959
  0
LINE
  8
0
 10
19.4065
 20
7.43959
 11
19.4065
 21
9.528
  0
LINE
  8
0
 10
8.19412
 20
1.33881
 11
8.24406
 21
1.39435
  0
LINE
  8
0
 10
8.24406
 20
1.39435
 11
8.29105
 21
1.45079
  0
LINE
  8
0
 10
8.29105
 20
1.45079
 11
8.3351
 21
1.5083
  0
LINE
  8
0
 10
8.3351
 20
1.5083
 11
8.37625
 21
1.56702
  0
LINE
  8
0
 10
8.37625
 20
1.56702
 11
8.41452
 21
1.62709
  0
LINE
  8
0
 10
8.41452
 20
1.62709
 11
8.44995
 21
1.68867
  0
LINE
  8
0
 10
8.44995
 20
1.68867
 11
8.48257
 21
1.75192
  0
LINE
  8
0
 10
8.48257
 20
1.75192
 11
8.51241
 21
1.81699
  0
LINE
  8
0
 10
8.51241
 20
1.81699
 11
8.53949
 21
1.88403
  0
LINE
  8
0
 10
8.53949
 20
1.88403
 11
8.56384
 21
1.95317
  0
LINE
  8
0
 10
8.56384
 20
1.95317
 11
8.58551
 21
2.0246
  0
LINE
  8
0
 10
8.58551
 20
2.0246
 11
8.60451
 21
2.09843
  0
LINE
  8
0
 10
8.60451
 20
2.09843
 11
8.62088
 21
2.17485
  0
LINE
  8
0
 10
8.62088
 20
2.17485
 11
8.63466
 21
2.25398
  0
LINE
  8
0
 10
8.63466
 20
2.25398
 11
8.64586
 21
2.336
  0
LINE
  8
0
 10
8.64586
 20
2.336
 11
8.65451
 21
2.42102
  0
LINE
  8
0
 10
8.65451
 20
2.42102
 11
8.66066
 21
2.50923
  0
LINE
  8
0
 10
8.66066
 20
2.50923
 11
8.66432
 21
2.60077
  0
LINE
  8
0
 10
8.66432
 20
2.60077
 11
8.66554
 21
2.69579
  0
LINE
  8
0
 10
8.66554
 20
2.69579
 11
8.66554
 21
8.94789
  0
LINE
  8
0
 10
8.66554
 20
8.94789
 11
6.12436
 21
7.57646
  0
LINE
  8
0
 10
6.12436
 20
7.57646
 11
6.12436
 21
2.61511
  0
LINE
  8
0
 10
6.12436
 20
2.61511
 11
8.14117
 21
1.28403
  0
LINE
  8
0
 10
8.14117
 20
1.28403
 11
8.19412
 21
1.33881
  0
LINE
  8
0
 10
30.9605
 20
7.4066
 11
31.0278
 21
7.42534
  0
LINE
  8
0
 10
31.0278
 20
7.42534
 11
31.0891
 21
7.45657
  0
LINE
  8
0
 10
31.0891
 20
7.45657
 11
31.1442
 21
7.50029
  0
LINE
  8
0
 10
31.1442
 20
7.50029
 11
31.1898
 21
7.55324
  0
LINE
  8
0
 10
31.1898
 20
7.55324
 11
31.2224
 21
7.61214
  0
LINE
  8
0
 10
31.2224
 20
7.61214
 11
31.2419
 21
7.677
  0
LINE
  8
0
 10
31.2419
 20
7.677
 11
31.2484
 21
7.7478
  0
LINE
  8
0
 10
31.2484
 20
7.7478
 11
31.2419
 21
7.81943
  0
LINE
  8
0
 10
31.2419
 20
7.81943
 11
31.2224
 21
7.88487
  0
LINE
  8
0
 10
31.2224
 20
7.88487
 11
31.1898
 21
7.94411
  0
LINE
  8
0
 10
31.1898
 20
7.94411
 11
31.1442
 21
7.99718
  0
LINE
  8
0
 10
31.1442
 20
7.99718
 11
31.0891
 21
8.04091
  0
LINE
  8
0
 10
31.0891
 20
8.04091
 11
31.0278
 21
8.07214
  0
LINE
  8
0
 10
31.0278
 20
8.07214
 11
30.9605
 21
8.09088
  0
LINE
  8
0
 10
30.9605
 20
8.09088
 11
30.887
 21
8.09714
  0
LINE
  8
0
 10
30.887
 20
8.09714
 11
30.8136
 21
8.09088
  0
LINE
  8
0
 10
30.8136
 20
8.09088
 11
30.7462
 21
8.07214
  0
LINE
  8
0
 10
30.7462
 20
8.07214
 11
30.685
 21
8.04091
  0
LINE
  8
0
 10
30.685
 20
8.04091
 11
30.6298
 21
7.99718
  0
LINE
  8
0
 10
30.6298
 20
7.99718
 11
30.5842
 21
7.94411
  0
LINE
  8
0
 10
30.5842
 20
7.94411
 11
30.5517
 21
7.88487
  0
LINE
  8
0
 10
30.5517
 20
7.88487
 11
30.5321
 21
7.81943
  0
LINE
  8
0
 10
30.5321
 20
7.81943
 11
30.5256
 21
7.7478
  0
LINE
  8
0
 10
30.5256
 20
7.7478
 11
30.5321
 21
7.677
  0
LINE
  8
0
 10
30.5321
 20
7.677
 11
30.5517
 21
7.61214
  0
LINE
  8
0
 10
30.5517
 20
7.61214
 11
30.5842
 21
7.55324
  0
LINE
  8
0
 10
30.5842
 20
7.55324
 11
30.6298
 21
7.50029
  0
LINE
  8
0
 10
30.6298
 20
7.50029
 11
30.685
 21
7.45657
  0
LINE
  8
0
 10
30.685
 20
7.45657
 11
30.7462
 21
7.42534
  0
LINE
  8
0
 10
30.7462
 20
7.42534
 11
30.8136
 21
7.4066
  0
LINE
  8
0
 10
30.8136
 20
7.4066
 11
30.887
 21
7.40036
  0
LINE
  8
0
 10
30.887
 20
7.40036
 11
30.9605
 21
7.4066
  0
LINE
  8
0
 10
20.1094
 20
4.01062
 11
20.2824
 21
4.04099
  0
LINE
  8
0
 10
20.2824
 20
4.04099
 11
20.4464
 21
4.0916
  0
LINE
  8
0
 10
20.4464
 20
4.0916
 11
20.6014
 21
4.16245
  0
LINE
  8
0
 10
20.6014
 20
4.16245
 11
20.7441
 21
4.25285
  0
LINE
  8
0
 10
20.7441
 20
4.25285
 11
20.8712
 21
4.36215
  0
LINE
  8
0
 10
20.8712
 20
4.36215
 11
20.9827
 21
4.49033
  0
LINE
  8
0
 10
20.9827
 20
4.49033
 11
21.0786
 21
4.63736
  0
LINE
  8
0
 10
21.0786
 20
4.63736
 11
21.1557
 21
4.80229
  0
LINE
  8
0
 10
21.1557
 20
4.80229
 11
21.2108
 21
4.98416
  0
LINE
  8
0
 10
21.2108
 20
4.98416
 11
21.2438
 21
5.18295
  0
LINE
  8
0
 10
21.2438
 20
5.18295
 11
21.2548
 21
5.39867
  0
LINE
  8
0
 10
21.2548
 20
5.39867
 11
21.2438
 21
5.61519
  0
LINE
  8
0
 10
21.2438
 20
5.61519
 11
21.2108
 21
5.81454
  0
LINE
  8
0
 10
21.2108
 20
5.81454
 11
21.1557
 21
5.99675
  0
LINE
  8
0
 10
21.1557
 20
5.99675
 11
21.0786
 21
6.16179
  0
LINE
  8
0
 10
21.0786
 20
6.16179
 11
20.9827
 21
6.30888
  0
LINE
  8
0
 10
20.9827
 20
6.30888
 11
20.8712
 21
6.43721
  0
LINE
  8
0
 10
20.8712
 20
6.43721
 11
20.7441
 21
6.5468
  0
LINE
  8
0
 10
20.7441
 20
6.5468
 11
20.6014
 21
6.63762
  0
LINE
  8
0
 10
20.6014
 20
6.63762
 11
20.4464
 21
6.70888
  0
LINE
  8
0
 10
20.4464
 20
6.70888
 11
20.2824
 21
6.75978
  0
LINE
  8
0
 10
20.2824
 20
6.75978
 11
20.1094
 21
6.79031
  0
LINE
  8
0
 10
20.1094
 20
6.79031
 11
19.9273
 21
6.80051
  0
LINE
  8
0
 10
19.9273
 20
6.80051
 11
19.7436
 21
6.79031
  0
LINE
  8
0
 10
19.7436
 20
6.79031
 11
19.5694
 21
6.75978
  0
LINE
  8
0
 10
19.5694
 20
6.75978
 11
19.4047
 21
6.70888
  0
LINE
  8
0
 10
19.4047
 20
6.70888
 11
19.2495
 21
6.63762
  0
LINE
  8
0
 10
19.2495
 20
6.63762
 11
19.1068
 21
6.5468
  0
LINE
  8
0
 10
19.1068
 20
6.5468
 11
18.9797
 21
6.43721
  0
LINE
  8
0
 10
18.9797
 20
6.43721
 11
18.8682
 21
6.30888
  0
LINE
  8
0
 10
18.8682
 20
6.30888
 11
18.7723
 21
6.16179
  0
LINE
  8
0
 10
18.7723
 20
6.16179
 11
18.6952
 21
5.99675
  0
LINE
  8
0
 10
18.6952
 20
5.99675
 11
18.6401
 21
5.81454
  0
LINE
  8
0
 10
18.6401
 20
5.81454
 11
18.6071
 21
5.61519
  0
LINE
  8
0
 10
18.6071
 20
5.61519
 11
18.5961
 21
5.39867
  0
LINE
  8
0
 10
18.5961
 20
5.39867
 11
18.6071
 21
5.18375
  0
LINE
  8
0
 10
18.6071
 20
5.18375
 11
18.6401
 21
4.98552
  0
LINE
  8
0
 10
18.6401
 20
4.98552
 11
18.6952
 21
4.80399
  0
LINE
  8
0
 10
18.6952
 20
4.80399
 11
18.7723
 21
4.63916
  0
LINE
  8
0
 10
18.7723
 20
4.63916
 11
18.8682
 21
4.49208
  0
LINE
  8
0
 10
18.8682
 20
4.49208
 11
18.9797
 21
4.36375
  0
LINE
  8
0
 10
18.9797
 20
4.36375
 11
19.1068
 21
4.25418
  0
LINE
  8
0
 10
19.1068
 20
4.25418
 11
19.2495
 21
4.16336
  0
LINE
  8
0
 10
19.2495
 20
4.16336
 11
19.4047
 21
4.0921
  0
LINE
  8
0
 10
19.4047
 20
4.0921
 11
19.5694
 21
4.04121
  0
LINE
  8
0
 10
19.5694
 20
4.04121
 11
19.7436
 21
4.01068
  0
LINE
  8
0
 10
19.7436
 20
4.01068
 11
19.9273
 21
4.0005
  0
LINE
  8
0
 10
19.9273
 20
4.0005
 11
20.1094
 21
4.01062
  0
LINE
  8
0
 10
19.7827
 20
4.58115
 11
19.6545
 21
4.62111
  0
LINE
  8
0
 10
19.6545
 20
4.62111
 11
19.5427
 21
4.68773
  0
LINE
  8
0
 10
19.5427
 20
4.68773
 11
19.4473
 21
4.78101
  0
LINE
  8
0
 10
19.4473
 20
4.78101
 11
19.371
 21
4.89957
  0
LINE
  8
0
 10
19.371
 20
4.89957
 11
19.3165
 21
5.04202
  0
LINE
  8
0
 10
19.3165
 20
5.04202
 11
19.2838
 21
5.20839
  0
LINE
  8
0
 10
19.2838
 20
5.20839
 11
19.2729
 21
5.39867
  0
LINE
  8
0
 10
19.2729
 20
5.39867
 11
19.2838
 21
5.5898
  0
LINE
  8
0
 10
19.2838
 20
5.5898
 11
19.3165
 21
5.7569
  0
LINE
  8
0
 10
19.3165
 20
5.7569
 11
19.371
 21
5.89998
  0
LINE
  8
0
 10
19.371
 20
5.89998
 11
19.4473
 21
6.01903
  0
LINE
  8
0
 10
19.4473
 20
6.01903
 11
19.5427
 21
6.11272
  0
LINE
  8
0
 10
19.5427
 20
6.11272
 11
19.6545
 21
6.17963
  0
LINE
  8
0
 10
19.6545
 20
6.17963
 11
19.7827
 21
6.21977
  0
LINE
  8
0
 10
19.7827
 20
6.21977
 11
19.9273
 21
6.23317
  0
LINE
  8
0
 10
19.9273
 20
6.23317
 11
20.0711
 21
6.21977
  0
LINE
  8
0
 10
20.0711
 20
6.21977
 11
20.1987
 21
6.17963
  0
LINE
  8
0
 10
20.1987
 20
6.17963
 11
20.3102
 21
6.11272
  0
LINE
  8
0
 10
20.3102
 20
6.11272
 11
20.4055
 21
6.01903
  0
LINE
  8
0
 10
20.4055
 20
6.01903
 11
20.4818
 21
5.89998
  0
LINE
  8
0
 10
20.4818
 20
5.89998
 11
20.5362
 21
5.7569
  0
LINE
  8
0
 10
20.5362
 20
5.7569
 11
20.5689
 21
5.5898
  0
LINE
  8
0
 10
20.5689
 20
5.5898
 11
20.5798
 21
5.39867
  0
LINE
  8
0
 10
20.5798
 20
5.39867
 11
20.5689
 21
5.20839
  0
LINE
  8
0
 10
20.5689
 20
5.20839
 11
20.5362
 21
5.04202
  0
LINE
  8
0
 10
20.5362
 20
5.04202
 11
20.4818
 21
4.89957
  0
LINE
  8
0
 10
20.4818
 20
4.89957
 11
20.4055
 21
4.78101
  0
LINE
  8
0
 10
20.4055
 20
4.78101
 11
20.3102
 21
4.68773
  0
LINE
  8
0
 10
20.3102
 20
4.68773
 11
20.1987
 21
4.62111
  0
LINE
  8
0
 10
20.1987
 20
4.62111
 11
20.0711
 21
4.58115
  0
LINE
  8
0
 10
20.0711
 20
4.58115
 11
19.9273
 21
4.56781
  0
LINE
  8
0
 10
19.9273
 20
4.56781
 11
19.7827
 21
4.58115
  0
LINE
  8
0
 10
25.4923
 20
4.0092
 11
25.6562
 21
4.03528
  0
LINE
  8
0
 10
25.6562
 20
4.03528
 11
25.8101
 21
4.07874
  0
LINE
  8
0
 10
25.8101
 20
4.07874
 11
25.9539
 21
4.13959
  0
LINE
  8
0
 10
25.9539
 20
4.13959
 11
26.0852
 21
4.21674
  0
LINE
  8
0
 10
26.0852
 20
4.21674
 11
26.2016
 21
4.3091
  0
LINE
  8
0
 10
26.2016
 20
4.3091
 11
26.3032
 21
4.41667
  0
LINE
  8
0
 10
26.3032
 20
4.41667
 11
26.3898
 21
4.53946
  0
LINE
  8
0
 10
26.3898
 20
4.53946
 11
26.4592
 21
4.67632
  0
LINE
  8
0
 10
26.4592
 20
4.67632
 11
26.5087
 21
4.82608
  0
LINE
  8
0
 10
26.5087
 20
4.82608
 11
26.5384
 21
4.98878
  0
LINE
  8
0
 10
26.5384
 20
4.98878
 11
26.5483
 21
5.16441
  0
LINE
  8
0
 10
26.5483
 20
5.16441
 11
26.5483
 21
5.5231
  0
LINE
  8
0
 10
26.5483
 20
5.5231
 11
25.3502
 21
5.5231
  0
LINE
  8
0
 10
25.3502
 20
5.5231
 11
25.3502
 21
5.04912
  0
LINE
  8
0
 10
25.3502
 20
5.04912
 11
25.9089
 21
5.04912
  0
LINE
  8
0
 10
25.9089
 20
5.04912
 11
25.897
 21
4.94412
  0
LINE
  8
0
 10
25.897
 20
4.94412
 11
25.867
 21
4.85056
  0
LINE
  8
0
 10
25.867
 20
4.85056
 11
25.8187
 21
4.76843
  0
LINE
  8
0
 10
25.8187
 20
4.76843
 11
25.7523
 21
4.69775
  0
LINE
  8
0
 10
25.7523
 20
4.69775
 11
25.669
 21
4.6409
  0
LINE
  8
0
 10
25.669
 20
4.6409
 11
25.5698
 21
4.6003
  0
LINE
  8
0
 10
25.5698
 20
4.6003
 11
25.4547
 21
4.57594
  0
LINE
  8
0
 10
25.4547
 20
4.57594
 11
25.3239
 21
4.56781
  0
LINE
  8
0
 10
25.3239
 20
4.56781
 11
25.1743
 21
4.58148
  0
LINE
  8
0
 10
25.1743
 20
4.58148
 11
25.0422
 21
4.62248
  0
LINE
  8
0
 10
25.0422
 20
4.62248
 11
24.9277
 21
4.69083
  0
LINE
  8
0
 10
24.9277
 20
4.69083
 11
24.8307
 21
4.7865
  0
LINE
  8
0
 10
24.8307
 20
4.7865
 11
24.7536
 21
4.90712
  0
LINE
  8
0
 10
24.7536
 20
4.90712
 11
24.6986
 21
5.05026
  0
LINE
  8
0
 10
24.6986
 20
5.05026
 11
24.6655
 21
5.21593
  0
LINE
  8
0
 10
24.6655
 20
5.21593
 11
24.6545
 21
5.40414
  0
LINE
  8
0
 10
24.6545
 20
5.40414
 11
24.6658
 21
5.59065
  0
LINE
  8
0
 10
24.6658
 20
5.59065
 11
24.6998
 21
5.75484
  0
LINE
  8
0
 10
24.6998
 20
5.75484
 11
24.7563
 21
5.89673
  0
LINE
  8
0
 10
24.7563
 20
5.89673
 11
24.8354
 21
6.01631
  0
LINE
  8
0
 10
24.8354
 20
6.01631
 11
24.9337
 21
6.11118
  0
LINE
  8
0
 10
24.9337
 20
6.11118
 11
25.0476
 21
6.17894
  0
LINE
  8
0
 10
25.0476
 20
6.17894
 11
25.177
 21
6.2196
  0
LINE
  8
0
 10
25.177
 20
6.2196
 11
25.322
 21
6.23317
  0
LINE
  8
0
 10
25.322
 20
6.23317
 11
25.4216
 21
6.22726
  0
LINE
  8
0
 10
25.4216
 20
6.22726
 11
25.5121
 21
6.20959
  0
LINE
  8
0
 10
25.5121
 20
6.20959
 11
25.5936
 21
6.18015
  0
LINE
  8
0
 10
25.5936
 20
6.18015
 11
25.6661
 21
6.1389
  0
LINE
  8
0
 10
25.6661
 20
6.1389
 11
25.7285
 21
6.08704
  0
LINE
  8
0
 10
25.7285
 20
6.08704
 11
25.7798
 21
6.02568
  0
LINE
  8
0
 10
25.7798
 20
6.02568
 11
25.8199
 21
5.95482
  0
LINE
  8
0
 10
25.8199
 20
5.95482
 11
25.8489
 21
5.87447
  0
LINE
  8
0
 10
25.8489
 20
5.87447
 11
26.5183
 21
5.87447
  0
LINE
  8
0
 10
26.5183
 20
5.87447
 11
26.4932
 21
6.00607
  0
LINE
  8
0
 10
26.4932
 20
6.00607
 11
26.4515
 21
6.12999
  0
LINE
  8
0
 10
26.4515
 20
6.12999
 11
26.3933
 21
6.24626
  0
LINE
  8
0
 10
26.3933
 20
6.24626
 11
26.3186
 21
6.35486
  0
LINE
  8
0
 10
26.3186
 20
6.35486
 11
26.2297
 21
6.45392
  0
LINE
  8
0
 10
26.2297
 20
6.45392
 11
26.129
 21
6.54153
  0
LINE
  8
0
 10
26.129
 20
6.54153
 11
26.0164
 21
6.61771
  0
LINE
  8
0
 10
26.0164
 20
6.61771
 11
25.892
 21
6.68245
  0
LINE
  8
0
 10
25.892
 20
6.68245
 11
25.758
 21
6.7341
  0
LINE
  8
0
 10
25.758
 20
6.7341
 11
25.6164
 21
6.77098
  0
LINE
  8
0
 10
25.6164
 20
6.77098
 11
25.4673
 21
6.79312
  0
LINE
  8
0
 10
25.4673
 20
6.79312
 11
25.3108
 21
6.80051
  0
LINE
  8
0
 10
25.3108
 20
6.80051
 11
25.1287
 21
6.79015
  0
LINE
  8
0
 10
25.1287
 20
6.79015
 11
24.9555
 21
6.75909
  0
LINE
  8
0
 10
24.9555
 20
6.75909
 11
24.7912
 21
6.70734
  0
LINE
  8
0
 10
24.7912
 20
6.70734
 11
24.6357
 21
6.63487
  0
LINE
  8
0
 10
24.6357
 20
6.63487
 11
24.4925
 21
6.54279
  0
LINE
  8
0
 10
24.4925
 20
6.54279
 11
24.3648
 21
6.43219
  0
LINE
  8
0
 10
24.3648
 20
6.43219
 11
24.2525
 21
6.30305
  0
LINE
  8
0
 10
24.2525
 20
6.30305
 11
24.1557
 21
6.1554
  0
LINE
  8
0
 10
24.1557
 20
6.1554
 11
24.0778
 21
5.99016
  0
LINE
  8
0
 10
24.0778
 20
5.99016
 11
24.0222
 21
5.80836
  0
LINE
  8
0
 10
24.0222
 20
5.80836
 11
23.9888
 21
5.60997
  0
LINE
  8
0
 10
23.9888
 20
5.60997
 11
23.9776
 21
5.395
  0
LINE
  8
0
 10
23.9776
 20
5.395
 11
23.9882
 21
5.18729
  0
LINE
  8
0
 10
23.9882
 20
5.18729
 11
24.0198
 21
4.99422
  0
LINE
  8
0
 10
24.0198
 20
4.99422
 11
24.0725
 21
4.81578
  0
LINE
  8
0
 10
24.0725
 20
4.81578
 11
24.1464
 21
4.65198
  0
LINE
  8
0
 10
24.1464
 20
4.65198
 11
24.2391
 21
4.5045
  0
LINE
  8
0
 10
24.2391
 20
4.5045
 11
24.3484
 21
4.37497
  0
LINE
  8
0
 10
24.3484
 20
4.37497
 11
24.4744
 21
4.2634
  0
LINE
  8
0
 10
24.4744
 20
4.2634
 11
24.617
 21
4.16978
  0
LINE
  8
0
 10
24.617
 20
4.16978
 11
24.774
 21
4.09572
  0
LINE
  8
0
 10
24.774
 20
4.09572
 11
24.9433
 21
4.04283
  0
LINE
  8
0
 10
24.9433
 20
4.04283
 11
25.1247
 21
4.01108
  0
LINE
  8
0
 10
25.1247
 20
4.01108
 11
25.3183
 21
4.0005
  0
LINE
  8
0
 10
25.3183
 20
4.0005
 11
25.4923
 21
4.0092
  0
LINE
  8
0
 10
30.003
 20
4.02354
 11
30.2349
 21
4.0927
  0
LINE
  8
0
 10
30.2349
 20
4.0927
 11
30.4357
 21
4.20793
  0
LINE
  8
0
 10
30.4357
 20
4.20793
 11
30.6054
 21
4.36926
  0
LINE
  8
0
 10
30.6054
 20
4.36926
 11
30.7404
 21
4.57188
  0
LINE
  8
0
 10
30.7404
 20
4.57188
 11
30.8368
 21
4.81099
  0
LINE
  8
0
 10
30.8368
 20
4.81099
 11
30.8946
 21
5.08658
  0
LINE
  8
0
 10
30.8946
 20
5.08658
 11
30.9139
 21
5.39867
  0
LINE
  8
0
 10
30.9139
 20
5.39867
 11
30.9052
 21
5.61124
  0
LINE
  8
0
 10
30.9052
 20
5.61124
 11
30.879
 21
5.80791
  0
LINE
  8
0
 10
30.879
 20
5.80791
 11
30.8353
 21
5.98869
  0
LINE
  8
0
 10
30.8353
 20
5.98869
 11
30.7742
 21
6.15355
  0
LINE
  8
0
 10
30.7742
 20
6.15355
 11
30.6967
 21
6.30128
  0
LINE
  8
0
 10
30.6967
 20
6.30128
 11
30.6038
 21
6.43059
  0
LINE
  8
0
 10
30.6038
 20
6.43059
 11
30.4956
 21
6.54147
  0
LINE
  8
0
 10
30.4956
 20
6.54147
 11
30.372
 21
6.63394
  0
LINE
  8
0
 10
30.372
 20
6.63394
 11
30.2341
 21
6.70682
  0
LINE
  8
0
 10
30.2341
 20
6.70682
 11
30.0828
 21
6.75887
  0
LINE
  8
0
 10
30.0828
 20
6.75887
 11
29.9181
 21
6.7901
  0
LINE
  8
0
 10
29.9181
 20
6.7901
 11
29.7401
 21
6.80051
  0
LINE
  8
0
 10
29.7401
 20
6.80051
 11
29.4787
 21
6.77739
  0
LINE
  8
0
 10
29.4787
 20
6.77739
 11
29.2477
 21
6.70807
  0
LINE
  8
0
 10
29.2477
 20
6.70807
 11
29.047
 21
6.59254
  0
LINE
  8
0
 10
29.047
 20
6.59254
 11
28.8766
 21
6.4308
  0
LINE
  8
0
 10
28.8766
 20
6.4308
 11
28.7409
 21
6.22766
  0
LINE
  8
0
 10
28.7409
 20
6.22766
 11
28.6439
 21
5.98793
  0
LINE
  8
0
 10
28.6439
 20
5.98793
 11
28.5857
 21
5.71159
  0
LINE
  8
0
 10
28.5857
 20
5.71159
 11
28.5663
 21
5.39867
  0
LINE
  8
0
 10
28.5663
 20
5.39867
 11
28.5857
 21
5.08583
  0
LINE
  8
0
 10
28.5857
 20
5.08583
 11
28.6439
 21
4.80984
  0
LINE
  8
0
 10
28.6439
 20
4.80984
 11
28.7409
 21
4.57068
  0
LINE
  8
0
 10
28.7409
 20
4.57068
 11
28.8766
 21
4.36833
  0
LINE
  8
0
 10
28.8766
 20
4.36833
 11
29.047
 21
4.20741
  0
LINE
  8
0
 10
29.047
 20
4.20741
 11
29.2477
 21
4.09247
  0
LINE
  8
0
 10
29.2477
 20
4.09247
 11
29.4787
 21
4.0235
  0
LINE
  8
0
 10
29.4787
 20
4.0235
 11
29.7401
 21
4.0005
  0
LINE
  8
0
 10
29.7401
 20
4.0005
 11
30.003
 21
4.02354
  0
LINE
  8
0
 10
29.628
 20
4.54346
 11
29.5299
 21
4.58566
  0
LINE
  8
0
 10
29.5299
 20
4.58566
 11
29.4457
 21
4.65599
  0
LINE
  8
0
 10
29.4457
 20
4.65599
 11
29.3754
 21
4.75447
  0
LINE
  8
0
 10
29.3754
 20
4.75447
 11
29.32
 21
4.87915
  0
LINE
  8
0
 10
29.32
 20
4.87915
 11
29.2805
 21
5.02808
  0
LINE
  8
0
 10
29.2805
 20
5.02808
 11
29.2567
 21
5.20125
  0
LINE
  8
0
 10
29.2567
 20
5.20125
 11
29.2488
 21
5.39867
  0
LINE
  8
0
 10
29.2488
 20
5.39867
 11
29.2568
 21
5.59706
  0
LINE
  8
0
 10
29.2568
 20
5.59706
 11
29.2807
 21
5.77132
  0
LINE
  8
0
 10
29.2807
 20
5.77132
 11
29.3206
 21
5.92143
  0
LINE
  8
0
 10
29.3206
 20
5.92143
 11
29.3763
 21
6.04742
  0
LINE
  8
0
 10
29.3763
 20
6.04742
 11
29.4469
 21
6.14709
  0
LINE
  8
0
 10
29.4469
 20
6.14709
 11
29.531
 21
6.21829
  0
LINE
  8
0
 10
29.531
 20
6.21829
 11
29.6288
 21
6.26102
  0
LINE
  8
0
 10
29.6288
 20
6.26102
 11
29.7401
 21
6.27525
  0
LINE
  8
0
 10
29.7401
 20
6.27525
 11
29.8522
 21
6.26102
  0
LINE
  8
0
 10
29.8522
 20
6.26102
 11
29.9506
 21
6.21829
  0
LINE
  8
0
 10
29.9506
 20
6.21829
 11
30.0351
 21
6.14709
  0
LINE
  8
0
 10
30.0351
 20
6.14709
 11
30.1057
 21
6.04742
  0
LINE
  8
0
 10
30.1057
 20
6.04742
 11
30.1615
 21
5.92143
  0
LINE
  8
0
 10
30.1615
 20
5.92143
 11
30.2014
 21
5.77132
  0
LINE
  8
0
 10
30.2014
 20
5.77132
 11
30.2253
 21
5.59706
  0
LINE
  8
0
 10
30.2253
 20
5.59706
 11
30.2332
 21
5.39867
  0
LINE
  8
0
 10
30.2332
 20
5.39867
 11
30.2253
 21
5.20125
  0
LINE
  8
0
 10
30.2253
 20
5.20125
 11
30.2014
 21
5.02808
  0
LINE
  8
0
 10
30.2014
 20
5.02808
 11
30.1615
 21
4.87915
  0
LINE
  8
0
 10
30.1615
 20
4.87915
 11
30.1057
 21
4.75447
  0
LINE
  8
0
 10
30.1057
 20
4.75447
 11
30.0351
 21
4.65599
  0
LINE
  8
0
 10
30.0351
 20
4.65599
 11
29.9506
 21
4.58566
  0
LINE
  8
0
 10
29.9506
 20
4.58566
 11
29.8522
 21
4.54346
  0
LINE
  8
0
 10
29.8522
 20
4.54346
 11
29.7401
 21
4.52939
  0
LINE
  8
0
 10
29.7401
 20
4.52939
 11
29.628
 21
4.54346
  0
LINE
  8
0
 10
32.4201
 20
4.00702
 11
32.5692
 21
4.02658
  0
LINE
  8
0
 10
32.5692
 20
4.02658
 11
32.7088
 21
4.05917
  0
LINE
  8
0
 10
32.7088
 20
4.05917
 11
32.8392
 21
4.1048
  0
LINE
  8
0
 10
32.8392
 20
4.1048
 11
32.9579
 21
4.16182
  0
LINE
  8
0
 10
32.9579
 20
4.16182
 11
33.063
 21
4.22856
  0
LINE
  8
0
 10
33.063
 20
4.22856
 11
33.1543
 21
4.30502
  0
LINE
  8
0
 10
33.1543
 20
4.30502
 11
33.232
 21
4.39119
  0
LINE
  8
0
 10
33.232
 20
4.39119
 11
33.2939
 21
4.48561
  0
LINE
  8
0
 10
33.2939
 20
4.48561
 11
33.3382
 21
4.58679
  0
LINE
  8
0
 10
33.3382
 20
4.58679
 11
33.3647
 21
4.69472
  0
LINE
  8
0
 10
33.3647
 20
4.69472
 11
33.3735
 21
4.80939
  0
LINE
  8
0
 10
33.3735
 20
4.80939
 11
33.3633
 21
4.93039
  0
LINE
  8
0
 10
33.3633
 20
4.93039
 11
33.3325
 21
5.04088
  0
LINE
  8
0
 10
33.3325
 20
5.04088
 11
33.2812
 21
5.14084
  0
LINE
  8
0
 10
33.2812
 20
5.14084
 11
33.2095
 21
5.23029
  0
LINE
  8
0
 10
33.2095
 20
5.23029
 11
33.1177
 21
5.30635
  0
LINE
  8
0
 10
33.1177
 20
5.30635
 11
33.0063
 21
5.36618
  0
LINE
  8
0
 10
33.0063
 20
5.36618
 11
32.8753
 21
5.40976
  0
LINE
  8
0
 10
32.8753
 20
5.40976
 11
32.7248
 21
5.43709
  0
LINE
  8
0
 10
32.7248
 20
5.43709
 11
32.7248
 21
5.45723
  0
LINE
  8
0
 10
32.7248
 20
5.45723
 11
32.8401
 21
5.48181
  0
LINE
  8
0
 10
32.8401
 20
5.48181
 11
32.9444
 21
5.52081
  0
LINE
  8
0
 10
32.9444
 20
5.52081
 11
33.0375
 21
5.57422
  0
LINE
  8
0
 10
33.0375
 20
5.57422
 11
33.1195
 21
5.64204
  0
LINE
  8
0
 10
33.1195
 20
5.64204
 11
33.1863
 21
5.722
  0
LINE
  8
0
 10
33.1863
 20
5.722
 11
33.2341
 21
5.8118
  0
LINE
  8
0
 10
33.2341
 20
5.8118
 11
33.2627
 21
5.91142
  0
LINE
  8
0
 10
33.2627
 20
5.91142
 11
33.2723
 21
6.02089
  0
LINE
  8
0
 10
33.2723
 20
6.02089
 11
33.2644
 21
6.1288
  0
LINE
  8
0
 10
33.2644
 20
6.1288
 11
33.2406
 21
6.23111
  0
LINE
  8
0
 10
33.2406
 20
6.23111
 11
33.2011
 21
6.3278
  0
LINE
  8
0
 10
33.2011
 20
6.3278
 11
33.1457
 21
6.4189
  0
LINE
  8
0
 10
33.1457
 20
6.4189
 11
33.0762
 21
6.50258
  0
LINE
  8
0
 10
33.0762
 20
6.50258
 11
32.9943
 21
6.577
  0
LINE
  8
0
 10
32.9943
 20
6.577
 11
32.9
 21
6.64214
  0
LINE
  8
0
 10
32.9
 20
6.64214
 11
32.7932
 21
6.69801
  0
LINE
  8
0
 10
32.7932
 20
6.69801
 11
32.6759
 21
6.74286
  0
LINE
  8
0
 10
32.6759
 20
6.74286
 11
32.5497
 21
6.77487
  0
LINE
  8
0
 10
32.5497
 20
6.77487
 11
32.4148
 21
6.7941
  0
LINE
  8
0
 10
32.4148
 20
6.7941
 11
32.271
 21
6.80051
  0
LINE
  8
0
 10
32.271
 20
6.80051
 11
32.1251
 21
6.79393
  0
LINE
  8
0
 10
32.1251
 20
6.79393
 11
31.9872
 21
6.77419
  0
LINE
  8
0
 10
31.9872
 20
6.77419
 11
31.8574
 21
6.7413
  0
LINE
  8
0
 10
31.8574
 20
6.7413
 11
31.7357
 21
6.69527
  0
LINE
  8
0
 10
31.7357
 20
6.69527
 11
31.6243
 21
6.63768
  0
LINE
  8
0
 10
31.6243
 20
6.63768
 11
31.5252
 21
6.57013
  0
LINE
  8
0
 10
31.5252
 20
6.57013
 11
31.4386
 21
6.49265
  0
LINE
  8
0
 10
31.4386
 20
6.49265
 11
31.3644
 21
6.4052
  0
LINE
  8
0
 10
31.3644
 20
6.4052
 11
31.3048
 21
6.30923
  0
LINE
  8
0
 10
31.3048
 20
6.30923
 11
31.262
 21
6.20618
  0
LINE
  8
0
 10
31.262
 20
6.20618
 11
31.2359
 21
6.09604
  0
LINE
  8
0
 10
31.2359
 20
6.09604
 11
31.2266
 21
5.97879
  0
LINE
  8
0
 10
31.2266
 20
5.97879
 11
31.8623
 21
5.97879
  0
LINE
  8
0
 10
31.8623
 20
5.97879
 11
31.8704
 21
6.04662
  0
LINE
  8
0
 10
31.8704
 20
6.04662
 11
31.893
 21
6.10735
  0
LINE
  8
0
 10
31.893
 20
6.10735
 11
31.9299
 21
6.16098
  0
LINE
  8
0
 10
31.9299
 20
6.16098
 11
31.9813
 21
6.20752
  0
LINE
  8
0
 10
31.9813
 20
6.20752
 11
32.0432
 21
6.24516
  0
LINE
  8
0
 10
32.0432
 20
6.24516
 11
32.1119
 21
6.27205
  0
LINE
  8
0
 10
32.1119
 20
6.27205
 11
32.1872
 21
6.28818
  0
LINE
  8
0
 10
32.1872
 20
6.28818
 11
32.2691
 21
6.29355
  0
LINE
  8
0
 10
32.2691
 20
6.29355
 11
32.346
 21
6.28812
  0
LINE
  8
0
 10
32.346
 20
6.28812
 11
32.4154
 21
6.27182
  0
LINE
  8
0
 10
32.4154
 20
6.27182
 11
32.4773
 21
6.24466
  0
LINE
  8
0
 10
32.4773
 20
6.24466
 11
32.5316
 21
6.20663
  0
LINE
  8
0
 10
32.5316
 20
6.20663
 11
32.5759
 21
6.15991
  0
LINE
  8
0
 10
32.5759
 20
6.15991
 11
32.6076
 21
6.10667
  0
LINE
  8
0
 10
32.6076
 20
6.10667
 11
32.6266
 21
6.04692
  0
LINE
  8
0
 10
32.6266
 20
6.04692
 11
32.6329
 21
5.98064
  0
LINE
  8
0
 10
32.6329
 20
5.98064
 11
32.6255
 21
5.91171
  0
LINE
  8
0
 10
32.6255
 20
5.91171
 11
32.6034
 21
5.84955
  0
LINE
  8
0
 10
32.6034
 20
5.84955
 11
32.5664
 21
5.79413
  0
LINE
  8
0
 10
32.5664
 20
5.79413
 11
32.5148
 21
5.74545
  0
LINE
  8
0
 10
32.5148
 20
5.74545
 11
32.4515
 21
5.70583
  0
LINE
  8
0
 10
32.4515
 20
5.70583
 11
32.3798
 21
5.67751
  0
LINE
  8
0
 10
32.3798
 20
5.67751
 11
32.2996
 21
5.66052
  0
LINE
  8
0
 10
32.2996
 20
5.66052
 11
32.211
 21
5.65486
  0
LINE
  8
0
 10
32.211
 20
5.65486
 11
31.9391
 21
5.65486
  0
LINE
  8
0
 10
31.9391
 20
5.65486
 11
31.9391
 21
5.19368
  0
LINE
  8
0
 10
31.9391
 20
5.19368
 11
32.211
 21
5.19368
  0
LINE
  8
0
 10
32.211
 20
5.19368
 11
32.3125
 21
5.18785
  0
LINE
  8
0
 10
32.3125
 20
5.18785
 11
32.4032
 21
5.17035
  0
LINE
  8
0
 10
32.4032
 20
5.17035
 11
32.4831
 21
5.14119
  0
LINE
  8
0
 10
32.4831
 20
5.14119
 11
32.5523
 21
5.10034
  0
LINE
  8
0
 10
32.5523
 20
5.10034
 11
32.6081
 21
5.05025
  0
LINE
  8
0
 10
32.6081
 20
5.05025
 11
32.6479
 21
4.9933
  0
LINE
  8
0
 10
32.6479
 20
4.9933
 11
32.6718
 21
4.92949
  0
LINE
  8
0
 10
32.6718
 20
4.92949
 11
32.6798
 21
4.8588
  0
LINE
  8
0
 10
32.6798
 20
4.8588
 11
32.6726
 21
4.78822
  0
LINE
  8
0
 10
32.6726
 20
4.78822
 11
32.651
 21
4.72475
  0
LINE
  8
0
 10
32.651
 20
4.72475
 11
32.6149
 21
4.66837
  0
LINE
  8
0
 10
32.6149
 20
4.66837
 11
32.5645
 21
4.61906
  0
LINE
  8
0
 10
32.5645
 20
4.61906
 11
32.5026
 21
4.57903
  0
LINE
  8
0
 10
32.5026
 20
4.57903
 11
32.4325
 21
4.55043
  0
LINE
  8
0
 10
32.4325
 20
4.55043
 11
32.354
 21
4.53326
  0
LINE
  8
0
 10
32.354
 20
4.53326
 11
32.2673
 21
4.52756
  0
LINE
  8
0
 10
32.2673
 20
4.52756
 11
32.1793
 21
4.53282
  0
LINE
  8
0
 10
32.1793
 20
4.53282
 11
32.099
 21
4.5486
  0
LINE
  8
0
 10
32.099
 20
4.5486
 11
32.0264
 21
4.57489
  0
LINE
  8
0
 10
32.0264
 20
4.57489
 11
31.9616
 21
4.61172
  0
LINE
  8
0
 10
31.9616
 20
4.61172
 11
31.9081
 21
4.65714
  0
LINE
  8
0
 10
31.9081
 20
4.65714
 11
31.8693
 21
4.70918
  0
LINE
  8
0
 10
31.8693
 20
4.70918
 11
31.8453
 21
4.76785
  0
LINE
  8
0
 10
31.8453
 20
4.76785
 11
31.836
 21
4.83316
  0
LINE
  8
0
 10
31.836
 20
4.83316
 11
31.1723
 21
4.83316
  0
LINE
  8
0
 10
31.1723
 20
4.83316
 11
31.1819
 21
4.71416
  0
LINE
  8
0
 10
31.1819
 20
4.71416
 11
31.2088
 21
4.60236
  0
LINE
  8
0
 10
31.2088
 20
4.60236
 11
31.2531
 21
4.49774
  0
LINE
  8
0
 10
31.2531
 20
4.49774
 11
31.3148
 21
4.40034
  0
LINE
  8
0
 10
31.3148
 20
4.40034
 11
31.3916
 21
4.31165
  0
LINE
  8
0
 10
31.3916
 20
4.31165
 11
31.4814
 21
4.23312
  0
LINE
  8
0
 10
31.4814
 20
4.23312
 11
31.5842
 21
4.16479
  0
LINE
  8
0
 10
31.5842
 20
4.16479
 11
31.7001
 21
4.10663
  0
LINE
  8
0
 10
31.7001
 20
4.10663
 11
31.8269
 21
4.06021
  0
LINE
  8
0
 10
31.8269
 20
4.06021
 11
31.9628
 21
4.02704
  0
LINE
  8
0
 10
31.9628
 20
4.02704
 11
32.1077
 21
4.00714
  0
LINE
  8
0
 10
32.1077
 20
4.00714
 11
32.2617
 21
4.0005
  0
LINE
  8
0
 10
32.2617
 20
4.0005
 11
32.4201
 21
4.00702
  0
LINE
  8
0
 10
34.9018
 20
4.00679
 11
35.0512
 21
4.02567
  0
LINE
  8
0
 10
35.0512
 20
4.02567
 11
35.1915
 21
4.05711
  0
LINE
  8
0
 10
35.1915
 20
4.05711
 11
35.3226
 21
4.10117
  0
LINE
  8
0
 10
35.3226
 20
4.10117
 11
35.4424
 21
4.15611
  0
LINE
  8
0
 10
35.4424
 20
4.15611
 11
35.5488
 21
4.22034
  0
LINE
  8
0
 10
35.5488
 20
4.22034
 11
35.6416
 21
4.29382
  0
LINE
  8
0
 10
35.6416
 20
4.29382
 11
35.721
 21
4.37657
  0
LINE
  8
0
 10
35.721
 20
4.37657
 11
35.7846
 21
4.46687
  0
LINE
  8
0
 10
35.7846
 20
4.46687
 11
35.83
 21
4.56302
  0
LINE
  8
0
 10
35.83
 20
4.56302
 11
35.8573
 21
4.66498
  0
LINE
  8
0
 10
35.8573
 20
4.66498
 11
35.8664
 21
4.77277
  0
LINE
  8
0
 10
35.8664
 20
4.77277
 11
35.8611
 21
4.85609
  0
LINE
  8
0
 10
35.8611
 20
4.85609
 11
35.8453
 21
4.93588
  0
LINE
  8
0
 10
35.8453
 20
4.93588
 11
35.8189
 21
5.01212
  0
LINE
  8
0
 10
35.8189
 20
5.01212
 11
35.782
 21
5.08479
  0
LINE
  8
0
 10
35.782
 20
5.08479
 11
35.7362
 21
5.15274
  0
LINE
  8
0
 10
35.7362
 20
5.15274
 11
35.6833
 21
5.21474
  0
LINE
  8
0
 10
35.6833
 20
5.21474
 11
35.6232
 21
5.27078
  0
LINE
  8
0
 10
35.6232
 20
5.27078
 11
35.556
 21
5.32086
  0
LINE
  8
0
 10
35.556
 20
5.32086
 11
35.4833
 21
5.36383
  0
LINE
  8
0
 10
35.4833
 20
5.36383
 11
35.4067
 21
5.39842
  0
LINE
  8
0
 10
35.4067
 20
5.39842
 11
35.3263
 21
5.42467
  0
LINE
  8
0
 10
35.3263
 20
5.42467
 11
35.242
 21
5.44257
  0
LINE
  8
0
 10
35.242
 20
5.44257
 11
35.242
 21
5.45906
  0
LINE
  8
0
 10
35.242
 20
5.45906
 11
35.3505
 21
5.48874
  0
LINE
  8
0
 10
35.3505
 20
5.48874
 11
35.4492
 21
5.53384
  0
LINE
  8
0
 10
35.4492
 20
5.53384
 11
35.538
 21
5.59441
  0
LINE
  8
0
 10
35.538
 20
5.59441
 11
35.617
 21
5.67041
  0
LINE
  8
0
 10
35.617
 20
5.67041
 11
35.6818
 21
5.75786
  0
LINE
  8
0
 10
35.6818
 20
5.75786
 11
35.7281
 21
5.85274
  0
LINE
  8
0
 10
35.7281
 20
5.85274
 11
35.7559
 21
5.95505
  0
LINE
  8
0
 10
35.7559
 20
5.95505
 11
35.7651
 21
6.0648
  0
LINE
  8
0
 10
35.7651
 20
6.0648
 11
35.7568
 21
6.16728
  0
LINE
  8
0
 10
35.7568
 20
6.16728
 11
35.7318
 21
6.26428
  0
LINE
  8
0
 10
35.7318
 20
6.26428
 11
35.6902
 21
6.35577
  0
LINE
  8
0
 10
35.6902
 20
6.35577
 11
35.632
 21
6.44179
  0
LINE
  8
0
 10
35.632
 20
6.44179
 11
35.5593
 21
6.52066
  0
LINE
  8
0
 10
35.5593
 20
6.52066
 11
35.4745
 21
6.59071
  0
LINE
  8
0
 10
35.4745
 20
6.59071
 11
35.3774
 21
6.65196
  0
LINE
  8
0
 10
35.3774
 20
6.65196
 11
35.2682
 21
6.70441
  0
LINE
  8
0
 10
35.2682
 20
6.70441
 11
35.1489
 21
6.74644
  0
LINE
  8
0
 10
35.1489
 20
6.74644
 11
35.0217
 21
6.77647
  0
LINE
  8
0
 10
35.0217
 20
6.77647
 11
34.8864
 21
6.79449
  0
LINE
  8
0
 10
34.8864
 20
6.79449
 11
34.7432
 21
6.80051
  0
LINE
  8
0
 10
34.7432
 20
6.80051
 11
34.6009
 21
6.79449
  0
LINE
  8
0
 10
34.6009
 20
6.79449
 11
34.4664
 21
6.77647
  0
LINE
  8
0
 10
34.4664
 20
6.77647
 11
34.3398
 21
6.74644
  0
LINE
  8
0
 10
34.3398
 20
6.74644
 11
34.221
 21
6.70441
  0
LINE
  8
0
 10
34.221
 20
6.70441
 11
34.1122
 21
6.65202
  0
LINE
  8
0
 10
34.1122
 20
6.65202
 11
34.0155
 21
6.59094
  0
LINE
  8
0
 10
34.0155
 20
6.59094
 11
33.9308
 21
6.52116
  0
LINE
  8
0
 10
33.9308
 20
6.52116
 11
33.8582
 21
6.4427
  0
LINE
  8
0
 10
33.8582
 20
6.4427
 11
33.8
 21
6.35698
  0
LINE
  8
0
 10
33.8
 20
6.35698
 11
33.7583
 21
6.26543
  0
LINE
  8
0
 10
33.7583
 20
6.26543
 11
33.7334
 21
6.16803
  0
LINE
  8
0
 10
33.7334
 20
6.16803
 11
33.7251
 21
6.0648
  0
LINE
  8
0
 10
33.7251
 20
6.0648
 11
33.7342
 21
5.95581
  0
LINE
  8
0
 10
33.7342
 20
5.95581
 11
33.7616
 21
5.85388
  0
LINE
  8
0
 10
33.7616
 20
5.85388
 11
33.8073
 21
5.75906
  0
LINE
  8
0
 10
33.8073
 20
5.75906
 11
33.8713
 21
5.67133
  0
LINE
  8
0
 10
33.8713
 20
5.67133
 11
33.9497
 21
5.59492
  0
LINE
  8
0
 10
33.9497
 20
5.59492
 11
34.0387
 21
5.53407
  0
LINE
  8
0
 10
34.0387
 20
5.53407
 11
34.1382
 21
5.4888
  0
LINE
  8
0
 10
34.1382
 20
5.4888
 11
34.2482
 21
5.45906
  0
LINE
  8
0
 10
34.2482
 20
5.45906
 11
34.2482
 21
5.44257
  0
LINE
  8
0
 10
34.2482
 20
5.44257
 11
34.1622
 21
5.42467
  0
LINE
  8
0
 10
34.1622
 20
5.42467
 11
34.0806
 21
5.39842
  0
LINE
  8
0
 10
34.0806
 20
5.39842
 11
34.0033
 21
5.36383
  0
LINE
  8
0
 10
34.0033
 20
5.36383
 11
33.9304
 21
5.32086
  0
LINE
  8
0
 10
33.9304
 20
5.32086
 11
33.8633
 21
5.27078
  0
LINE
  8
0
 10
33.8633
 20
5.27078
 11
33.8036
 21
5.21474
  0
LINE
  8
0
 10
33.8036
 20
5.21474
 11
33.7513
 21
5.15274
  0
LINE
  8
0
 10
33.7513
 20
5.15274
 11
33.7063
 21
5.08479
  0
LINE
  8
0
 10
33.7063
 20
5.08479
 11
33.6702
 21
5.01212
  0
LINE
  8
0
 10
33.6702
 20
5.01212
 11
33.6444
 21
4.93588
  0
LINE
  8
0
 10
33.6444
 20
4.93588
 11
33.629
 21
4.85609
  0
LINE
  8
0
 10
33.629
 20
4.85609
 11
33.6238
 21
4.77277
  0
LINE
  8
0
 10
33.6238
 20
4.77277
 11
33.6329
 21
4.66498
  0
LINE
  8
0
 10
33.6329
 20
4.66498
 11
33.6602
 21
4.56302
  0
LINE
  8
0
 10
33.6602
 20
4.56302
 11
33.7056
 21
4.46687
  0
LINE
  8
0
 10
33.7056
 20
4.46687
 11
33.7691
 21
4.37657
  0
LINE
  8
0
 10
33.7691
 20
4.37657
 11
33.8485
 21
4.29382
  0
LINE
  8
0
 10
33.8485
 20
4.29382
 11
33.9412
 21
4.22034
  0
LINE
  8
0
 10
33.9412
 20
4.22034
 11
34.0472
 21
4.15611
  0
LINE
  8
0
 10
34.0472
 20
4.15611
 11
34.1666
 21
4.10117
  0
LINE
  8
0
 10
34.1666
 20
4.10117
 11
34.2973
 21
4.05711
  0
LINE
  8
0
 10
34.2973
 20
4.05711
 11
34.4369
 21
4.02567
  0
LINE
  8
0
 10
34.4369
 20
4.02567
 11
34.5855
 21
4.00679
  0
LINE
  8
0
 10
34.5855
 20
4.00679
 11
34.7432
 21
4.0005
  0
LINE
  8
0
 10
34.7432
 20
4.0005
 11
34.9018
 21
4.00679
  0
LINE
  8
0
 10
34.6662
 20
5.66081
 11
34.5963
 21
5.67865
  0
LINE
  8
0
 10
34.5963
 20
5.67865
 11
34.5335
 21
5.70839
  0
LINE
  8
0
 10
34.5335
 20
5.70839
 11
34.4779
 21
5.75002
  0
LINE
  8
0
 10
34.4779
 20
5.75002
 11
34.4324
 21
5.80081
  0
LINE
  8
0
 10
34.4324
 20
5.80081
 11
34.3999
 21
5.858
  0
LINE
  8
0
 10
34.3999
 20
5.858
 11
34.3803
 21
5.9216
  0
LINE
  8
0
 10
34.3803
 20
5.9216
 11
34.3738
 21
5.99159
  0
LINE
  8
0
 10
34.3738
 20
5.99159
 11
34.3803
 21
6.06143
  0
LINE
  8
0
 10
34.3803
 20
6.06143
 11
34.3999
 21
6.12451
  0
LINE
  8
0
 10
34.3999
 20
6.12451
 11
34.4324
 21
6.18083
  0
LINE
  8
0
 10
34.4324
 20
6.18083
 11
34.4779
 21
6.23041
  0
LINE
  8
0
 10
34.4779
 20
6.23041
 11
34.5335
 21
6.27084
  0
LINE
  8
0
 10
34.5335
 20
6.27084
 11
34.5963
 21
6.29973
  0
LINE
  8
0
 10
34.5963
 20
6.29973
 11
34.6662
 21
6.31706
  0
LINE
  8
0
 10
34.6662
 20
6.31706
 11
34.7432
 21
6.32283
  0
LINE
  8
0
 10
34.7432
 20
6.32283
 11
34.8219
 21
6.31706
  0
LINE
  8
0
 10
34.8219
 20
6.31706
 11
34.893
 21
6.29973
  0
LINE
  8
0
 10
34.893
 20
6.29973
 11
34.9564
 21
6.27084
  0
LINE
  8
0
 10
34.9564
 20
6.27084
 11
35.0123
 21
6.23041
  0
LINE
  8
0
 10
35.0123
 20
6.23041
 11
35.0578
 21
6.18083
  0
LINE
  8
0
 10
35.0578
 20
6.18083
 11
35.0903
 21
6.12451
  0
LINE
  8
0
 10
35.0903
 20
6.12451
 11
35.1098
 21
6.06143
  0
LINE
  8
0
 10
35.1098
 20
6.06143
 11
35.1163
 21
5.99159
  0
LINE
  8
0
 10
35.1163
 20
5.99159
 11
35.1098
 21
5.9216
  0
LINE
  8
0
 10
35.1098
 20
5.9216
 11
35.0901
 21
5.858
  0
LINE
  8
0
 10
35.0901
 20
5.858
 11
35.0573
 21
5.80081
  0
LINE
  8
0
 10
35.0573
 20
5.80081
 11
35.0113
 21
5.75002
  0
LINE
  8
0
 10
35.0113
 20
5.75002
 11
34.9552
 21
5.70839
  0
LINE
  8
0
 10
34.9552
 20
5.70839
 11
34.8918
 21
5.67865
  0
LINE
  8
0
 10
34.8918
 20
5.67865
 11
34.8212
 21
5.66081
  0
LINE
  8
0
 10
34.8212
 20
5.66081
 11
34.7432
 21
5.65486
  0
LINE
  8
0
 10
34.7432
 20
5.65486
 11
34.6662
 21
5.66081
  0
LINE
  8
0
 10
34.6538
 20
4.46631
 11
34.5731
 21
4.48569
  0
LINE
  8
0
 10
34.5731
 20
4.48569
 11
34.501
 21
4.51801
  0
LINE
  8
0
 10
34.501
 20
4.51801
 11
34.4376
 21
4.56323
  0
LINE
  8
0
 10
34.4376
 20
4.56323
 11
34.3859
 21
4.61853
  0
LINE
  8
0
 10
34.3859
 20
4.61853
 11
34.349
 21
4.68105
  0
LINE
  8
0
 10
34.349
 20
4.68105
 11
34.3268
 21
4.75076
  0
LINE
  8
0
 10
34.3268
 20
4.75076
 11
34.3195
 21
4.82768
  0
LINE
  8
0
 10
34.3195
 20
4.82768
 11
34.327
 21
4.90466
  0
LINE
  8
0
 10
34.327
 20
4.90466
 11
34.3495
 21
4.97455
  0
LINE
  8
0
 10
34.3495
 20
4.97455
 11
34.3869
 21
5.03734
  0
LINE
  8
0
 10
34.3869
 20
5.03734
 11
34.4395
 21
5.09303
  0
LINE
  8
0
 10
34.4395
 20
5.09303
 11
34.5034
 21
5.13867
  0
LINE
  8
0
 10
34.5034
 20
5.13867
 11
34.5754
 21
5.17128
  0
LINE
  8
0
 10
34.5754
 20
5.17128
 11
34.6553
 21
5.19084
  0
LINE
  8
0
 10
34.6553
 20
5.19084
 11
34.7432
 21
5.19736
  0
LINE
  8
0
 10
34.7432
 20
5.19736
 11
34.832
 21
5.19084
  0
LINE
  8
0
 10
34.832
 20
5.19084
 11
34.9127
 21
5.17128
  0
LINE
  8
0
 10
34.9127
 20
5.17128
 11
34.9853
 21
5.13867
  0
LINE
  8
0
 10
34.9853
 20
5.13867
 11
35.0498
 21
5.09303
  0
LINE
  8
0
 10
35.0498
 20
5.09303
 11
35.1027
 21
5.03734
  0
LINE
  8
0
 10
35.1027
 20
5.03734
 11
35.1405
 21
4.97455
  0
LINE
  8
0
 10
35.1405
 20
4.97455
 11
35.1632
 21
4.90466
  0
LINE
  8
0
 10
35.1632
 20
4.90466
 11
35.1707
 21
4.82768
  0
LINE
  8
0
 10
35.1707
 20
4.82768
 11
35.1633
 21
4.75076
  0
LINE
  8
0
 10
35.1633
 20
4.75076
 11
35.141
 21
4.68105
  0
LINE
  8
0
 10
35.141
 20
4.68105
 11
35.1037
 21
4.61853
  0
LINE
  8
0
 10
35.1037
 20
4.61853
 11
35.0517
 21
4.56323
  0
LINE
  8
0
 10
35.0517
 20
4.56323
 11
34.9877
 21
4.51801
  0
LINE
  8
0
 10
34.9877
 20
4.51801
 11
34.915
 21
4.48569
  0
LINE
  8
0
 10
34.915
 20
4.48569
 11
34.8335
 21
4.46631
  0
LINE
  8
0
 10
34.8335
 20
4.46631
 11
34.7432
 21
4.45984
  0
LINE
  8
0
 10
34.7432
 20
4.45984
 11
34.6538
 21
4.46631
  0
LINE
  8
0
 10
14.0189
 20
5.21198
 11
14.0186
 21
5.26706
  0
LINE
  8
0
 10
14.0186
 20
5.26706
 11
14.0177
 21
5.32979
  0
LINE
  8
0
 10
14.0177
 20
5.32979
 11
14.0163
 21
5.40019
  0
LINE
  8
0
 10
14.0163
 20
5.40019
 11
14.0142
 21
5.47824
  0
LINE
  8
0
 10
14.0142
 20
5.47824
 11
14.0093
 21
5.64868
  0
LINE
  8
0
 10
14.0093
 20
5.64868
 11
14.0039
 21
5.83238
  0
LINE
  8
0
 10
14.0039
 20
5.83238
 11
14.0012
 21
5.92685
  0
LINE
  8
0
 10
14.0012
 20
5.92685
 11
13.9987
 21
6.01996
  0
LINE
  8
0
 10
13.9987
 20
6.01996
 11
13.9965
 21
6.11169
  0
LINE
  8
0
 10
13.9965
 20
6.11169
 11
13.9945
 21
6.20204
  0
LINE
  8
0
 10
13.9945
 20
6.20204
 11
14.0183
 21
6.10616
  0
LINE
  8
0
 10
14.0183
 20
6.10616
 11
14.0426
 21
6.01059
  0
LINE
  8
0
 10
14.0426
 20
6.01059
 11
14.0675
 21
5.91537
  0
LINE
  8
0
 10
14.0675
 20
5.91537
 11
14.093
 21
5.8205
  0
LINE
  8
0
 10
14.093
 20
5.8205
 11
14.1185
 21
5.72768
  0
LINE
  8
0
 10
14.1185
 20
5.72768
 11
14.1434
 21
5.63864
  0
LINE
  8
0
 10
14.1434
 20
5.63864
 11
14.1677
 21
5.55336
  0
LINE
  8
0
 10
14.1677
 20
5.55336
 11
14.1914
 21
5.47185
  0
LINE
  8
0
 10
14.1914
 20
5.47185
 11
14.2139
 21
5.3959
  0
LINE
  8
0
 10
14.2139
 20
5.3959
 11
14.2345
 21
5.32729
  0
LINE
  8
0
 10
14.2345
 20
5.32729
 11
14.2533
 21
5.26598
  0
LINE
  8
0
 10
14.2533
 20
5.26598
 11
14.2702
 21
5.21198
  0
LINE
  8
0
 10
14.2702
 20
5.21198
 11
14.6733
 21
4.03709
  0
LINE
  8
0
 10
14.6733
 20
4.03709
 11
15.2264
 21
4.03709
  0
LINE
  8
0
 10
15.2264
 20
4.03709
 11
15.6239
 21
5.21198
  0
LINE
  8
0
 10
15.6239
 20
5.21198
 11
15.6416
 21
5.26797
  0
LINE
  8
0
 10
15.6416
 20
5.26797
 11
15.661
 21
5.33163
  0
LINE
  8
0
 10
15.661
 20
5.33163
 11
15.6819
 21
5.40294
  0
LINE
  8
0
 10
15.6819
 20
5.40294
 11
15.7046
 21
5.48192
  0
LINE
  8
0
 10
15.7046
 20
5.48192
 11
15.7283
 21
5.56662
  0
LINE
  8
0
 10
15.7283
 20
5.56662
 11
15.7526
 21
5.65509
  0
LINE
  8
0
 10
15.7526
 20
5.65509
 11
15.7775
 21
5.74734
  0
LINE
  8
0
 10
15.7775
 20
5.74734
 11
15.803
 21
5.84335
  0
LINE
  8
0
 10
15.803
 20
5.84335
 11
15.8285
 21
5.94116
  0
LINE
  8
0
 10
15.8285
 20
5.94116
 11
15.8534
 21
6.03873
  0
LINE
  8
0
 10
15.8534
 20
6.03873
 11
15.8777
 21
6.13606
  0
LINE
  8
0
 10
15.8777
 20
6.13606
 11
15.9014
 21
6.23317
  0
LINE
  8
0
 10
15.9014
 20
6.23317
 11
15.8994
 21
6.14075
  0
LINE
  8
0
 10
15.8994
 20
6.14075
 11
15.8972
 21
6.04651
  0
LINE
  8
0
 10
15.8972
 20
6.04651
 11
15.8948
 21
5.95042
  0
LINE
  8
0
 10
15.8948
 20
5.95042
 11
15.8921
 21
5.85251
  0
LINE
  8
0
 10
15.8921
 20
5.85251
 11
15.8867
 21
5.66196
  0
LINE
  8
0
 10
15.8867
 20
5.66196
 11
15.8818
 21
5.48558
  0
LINE
  8
0
 10
15.8818
 20
5.48558
 11
15.8797
 21
5.40501
  0
LINE
  8
0
 10
15.8797
 20
5.40501
 11
15.8782
 21
5.33255
  0
LINE
  8
0
 10
15.8782
 20
5.33255
 11
15.8773
 21
5.2682
  0
LINE
  8
0
 10
15.8773
 20
5.2682
 11
15.8771
 21
5.21198
  0
LINE
  8
0
 10
15.8771
 20
5.21198
 11
15.8771
 21
4.03709
  0
LINE
  8
0
 10
15.8771
 20
4.03709
 11
16.5427
 21
4.03709
  0
LINE
  8
0
 10
16.5427
 20
4.03709
 11
16.5427
 21
6.76389
  0
LINE
  8
0
 10
16.5427
 20
6.76389
 11
15.5096
 21
6.76389
  0
LINE
  8
0
 10
15.5096
 20
6.76389
 11
15.159
 21
5.70244
  0
LINE
  8
0
 10
15.159
 20
5.70244
 11
15.1443
 21
5.65218
  0
LINE
  8
0
 10
15.1443
 20
5.65218
 11
15.1287
 21
5.59471
  0
LINE
  8
0
 10
15.1287
 20
5.59471
 11
15.112
 21
5.53003
  0
LINE
  8
0
 10
15.112
 20
5.53003
 11
15.0943
 21
5.45815
  0
LINE
  8
0
 10
15.0943
 20
5.45815
 11
15.076
 21
5.38127
  0
LINE
  8
0
 10
15.076
 20
5.38127
 11
15.0577
 21
5.30167
  0
LINE
  8
0
 10
15.0577
 20
5.30167
 11
15.0394
 21
5.21931
  0
LINE
  8
0
 10
15.0394
 20
5.21931
 11
15.0211
 21
5.13422
  0
LINE
  8
0
 10
15.0211
 20
5.13422
 11
15.0031
 21
5.04837
  0
LINE
  8
0
 10
15.0031
 20
5.04837
 11
14.9857
 21
4.96381
  0
LINE
  8
0
 10
14.9857
 20
4.96381
 11
14.9689
 21
4.88048
  0
LINE
  8
0
 10
14.9689
 20
4.88048
 11
14.9527
 21
4.7984
  0
LINE
  8
0
 10
14.9527
 20
4.7984
 11
14.9356
 21
4.88054
  0
LINE
  8
0
 10
14.9356
 20
4.88054
 11
14.918
 21
4.96404
  0
LINE
  8
0
 10
14.918
 20
4.96404
 11
14.8999
 21
5.04889
  0
LINE
  8
0
 10
14.8999
 20
5.04889
 11
14.8814
 21
5.13513
  0
LINE
  8
0
 10
14.8814
 20
5.13513
 11
14.8627
 21
5.22058
  0
LINE
  8
0
 10
14.8627
 20
5.22058
 11
14.8441
 21
5.30304
  0
LINE
  8
0
 10
14.8441
 20
5.30304
 11
14.8257
 21
5.38254
  0
LINE
  8
0
 10
14.8257
 20
5.38254
 11
14.8074
 21
5.45906
  0
LINE
  8
0
 10
14.8074
 20
5.45906
 11
14.7896
 21
5.53055
  0
LINE
  8
0
 10
14.7896
 20
5.53055
 11
14.7729
 21
5.59494
  0
LINE
  8
0
 10
14.7729
 20
5.59494
 11
14.7573
 21
5.65224
  0
LINE
  8
0
 10
14.7573
 20
5.65224
 11
14.7427
 21
5.70244
  0
LINE
  8
0
 10
14.7427
 20
5.70244
 11
14.3864
 21
6.76389
  0
LINE
  8
0
 10
14.3864
 20
6.76389
 11
13.3552
 21
6.76389
  0
LINE
  8
0
 10
13.3552
 20
6.76389
 11
13.3552
 21
4.03709
  0
LINE
  8
0
 10
13.3552
 20
4.03709
 11
14.0189
 21
4.03709
  0
LINE
  8
0
 10
14.0189
 20
4.03709
 11
14.0189
 21
5.21198
  0
LINE
  8
0
 10
10.4813
 20
5.21198
 11
10.481
 21
5.26706
  0
LINE
  8
0
 10
10.481
 20
5.26706
 11
10.4801
 21
5.32979
  0
LINE
  8
0
 10
10.4801
 20
5.32979
 11
10.4786
 21
5.40019
  0
LINE
  8
0
 10
10.4786
 20
5.40019
 11
10.4766
 21
5.47824
  0
LINE
  8
0
 10
10.4766
 20
5.47824
 11
10.4716
 21
5.64868
  0
LINE
  8
0
 10
10.4716
 20
5.64868
 11
10.4662
 21
5.83238
  0
LINE
  8
0
 10
10.4662
 20
5.83238
 11
10.4636
 21
5.92685
  0
LINE
  8
0
 10
10.4636
 20
5.92685
 11
10.4611
 21
6.01996
  0
LINE
  8
0
 10
10.4611
 20
6.01996
 11
10.4589
 21
6.11169
  0
LINE
  8
0
 10
10.4589
 20
6.11169
 11
10.4569
 21
6.20204
  0
LINE
  8
0
 10
10.4569
 20
6.20204
 11
10.4806
 21
6.10616
  0
LINE
  8
0
 10
10.4806
 20
6.10616
 11
10.5049
 21
6.01059
  0
LINE
  8
0
 10
10.5049
 20
6.01059
 11
10.5298
 21
5.91537
  0
LINE
  8
0
 10
10.5298
 20
5.91537
 11
10.5553
 21
5.8205
  0
LINE
  8
0
 10
10.5553
 20
5.8205
 11
10.5808
 21
5.72768
  0
LINE
  8
0
 10
10.5808
 20
5.72768
 11
10.6057
 21
5.63864
  0
LINE
  8
0
 10
10.6057
 20
5.63864
 11
10.63
 21
5.55336
  0
LINE
  8
0
 10
10.63
 20
5.55336
 11
10.6538
 21
5.47185
  0
LINE
  8
0
 10
10.6538
 20
5.47185
 11
10.6763
 21
5.3959
  0
LINE
  8
0
 10
10.6763
 20
5.3959
 11
10.6969
 21
5.32729
  0
LINE
  8
0
 10
10.6969
 20
5.32729
 11
10.7156
 21
5.26598
  0
LINE
  8
0
 10
10.7156
 20
5.26598
 11
10.7325
 21
5.21198
  0
LINE
  8
0
 10
10.7325
 20
5.21198
 11
11.1357
 21
4.03709
  0
LINE
  8
0
 10
11.1357
 20
4.03709
 11
11.6888
 21
4.03709
  0
LINE
  8
0
 10
11.6888
 20
4.03709
 11
12.0863
 21
5.21198
  0
LINE
  8
0
 10
12.0863
 20
5.21198
 11
12.104
 21
5.26797
  0
LINE
  8
0
 10
12.104
 20
5.26797
 11
12.1233
 21
5.33163
  0
LINE
  8
0
 10
12.1233
 20
5.33163
 11
12.1443
 21
5.40294
  0
LINE
  8
0
 10
12.1443
 20
5.40294
 11
12.1669
 21
5.48192
  0
LINE
  8
0
 10
12.1669
 20
5.48192
 11
12.1906
 21
5.56662
  0
LINE
  8
0
 10
12.1906
 20
5.56662
 11
12.215
 21
5.65509
  0
LINE
  8
0
 10
12.215
 20
5.65509
 11
12.2399
 21
5.74734
  0
LINE
  8
0
 10
12.2399
 20
5.74734
 11
12.2654
 21
5.84335
  0
LINE
  8
0
 10
12.2654
 20
5.84335
 11
12.2908
 21
5.94116
  0
LINE
  8
0
 10
12.2908
 20
5.94116
 11
12.3158
 21
6.03873
  0
LINE
  8
0
 10
12.3158
 20
6.03873
 11
12.3401
 21
6.13606
  0
LINE
  8
0
 10
12.3401
 20
6.13606
 11
12.3638
 21
6.23317
  0
LINE
  8
0
 10
12.3638
 20
6.23317
 11
12.3618
 21
6.14075
  0
LINE
  8
0
 10
12.3618
 20
6.14075
 11
12.3596
 21
6.04651
  0
LINE
  8
0
 10
12.3596
 20
6.04651
 11
12.3571
 21
5.95042
  0
LINE
  8
0
 10
12.3571
 20
5.95042
 11
12.3544
 21
5.85251
  0
LINE
  8
0
 10
12.3544
 20
5.85251
 11
12.349
 21
5.66196
  0
LINE
  8
0
 10
12.349
 20
5.66196
 11
12.3441
 21
5.48558
  0
LINE
  8
0
 10
12.3441
 20
5.48558
 11
12.342
 21
5.40501
  0
LINE
  8
0
 10
12.342
 20
5.40501
 11
12.3406
 21
5.33255
  0
LINE
  8
0
 10
12.3406
 20
5.33255
 11
12.3397
 21
5.2682
  0
LINE
  8
0
 10
12.3397
 20
5.2682
 11
12.3394
 21
5.21198
  0
LINE
  8
0
 10
12.3394
 20
5.21198
 11
12.3394
 21
4.03709
  0
LINE
  8
0
 10
12.3394
 20
4.03709
 11
13.005
 21
4.03709
  0
LINE
  8
0
 10
13.005
 20
4.03709
 11
13.005
 21
6.76389
  0
LINE
  8
0
 10
13.005
 20
6.76389
 11
11.9719
 21
6.76389
  0
LINE
  8
0
 10
11.9719
 20
6.76389
 11
11.6213
 21
5.70244
  0
LINE
  8
0
 10
11.6213
 20
5.70244
 11
11.6067
 21
5.65218
  0
LINE
  8
0
 10
11.6067
 20
5.65218
 11
11.591
 21
5.59471
  0
LINE
  8
0
 10
11.591
 20
5.59471
 11
11.5743
 21
5.53003
  0
LINE
  8
0
 10
11.5743
 20
5.53003
 11
11.5566
 21
5.45815
  0
LINE
  8
0
 10
11.5566
 20
5.45815
 11
11.5383
 21
5.38127
  0
LINE
  8
0
 10
11.5383
 20
5.38127
 11
11.52
 21
5.30167
  0
LINE
  8
0
 10
11.52
 20
5.30167
 11
11.5018
 21
5.21931
  0
LINE
  8
0
 10
11.5018
 20
5.21931
 11
11.4835
 21
5.13422
  0
LINE
  8
0
 10
11.4835
 20
5.13422
 11
11.4655
 21
5.04837
  0
LINE
  8
0
 10
11.4655
 20
5.04837
 11
11.4481
 21
4.96381
  0
LINE
  8
0
 10
11.4481
 20
4.96381
 11
11.4313
 21
4.88048
  0
LINE
  8
0
 10
11.4313
 20
4.88048
 11
11.415
 21
4.7984
  0
LINE
  8
0
 10
11.415
 20
4.7984
 11
11.3979
 21
4.88054
  0
LINE
  8
0
 10
11.3979
 20
4.88054
 11
11.3803
 21
4.96404
  0
LINE
  8
0
 10
11.3803
 20
4.96404
 11
11.3623
 21
5.04889
  0
LINE
  8
0
 10
11.3623
 20
5.04889
 11
11.3438
 21
5.13513
  0
LINE
  8
0
 10
11.3438
 20
5.13513
 11
11.3251
 21
5.22058
  0
LINE
  8
0
 10
11.3251
 20
5.22058
 11
11.3065
 21
5.30304
  0
LINE
  8
0
 10
11.3065
 20
5.30304
 11
11.288
 21
5.38254
  0
LINE
  8
0
 10
11.288
 20
5.38254
 11
11.2697
 21
5.45906
  0
LINE
  8
0
 10
11.2697
 20
5.45906
 11
11.252
 21
5.53055
  0
LINE
  8
0
 10
11.252
 20
5.53055
 11
11.2353
 21
5.59494
  0
LINE
  8
0
 10
11.2353
 20
5.59494
 11
11.2196
 21
5.65224
  0
LINE
  8
0
 10
11.2196
 20
5.65224
 11
11.205
 21
5.70244
  0
LINE
  8
0
 10
11.205
 20
5.70244
 11
10.8488
 21
6.76389
  0
LINE
  8
0
 10
10.8488
 20
6.76389
 11
9.8175
 21
6.76389
  0
LINE
  8
0
 10
9.8175
 20
6.76389
 11
9.8175
 21
4.03709
  0
LINE
  8
0
 10
9.8175
 20
4.03709
 11
10.4813
 21
4.03709
  0
LINE
  8
0
 10
10.4813
 20
4.03709
 11
10.4813
 21
5.21198
  0
LINE
  8
0
 10
22.2203
 20
4.97591
 11
22.5803
 21
4.97591
  0
LINE
  8
0
 10
22.5803
 20
4.97591
 11
23.0922
 21
4.03709
  0
LINE
  8
0
 10
23.0922
 20
4.03709
 11
23.8178
 21
4.03709
  0
LINE
  8
0
 10
23.8178
 20
4.03709
 11
23.2347
 21
5.0784
  0
LINE
  8
0
 10
23.2347
 20
5.0784
 11
23.3443
 21
5.1356
  0
LINE
  8
0
 10
23.3443
 20
5.1356
 11
23.4407
 21
5.20468
  0
LINE
  8
0
 10
23.4407
 20
5.20468
 11
23.5239
 21
5.28566
  0
LINE
  8
0
 10
23.5239
 20
5.28566
 11
23.5938
 21
5.37854
  0
LINE
  8
0
 10
23.5938
 20
5.37854
 11
23.6491
 21
5.48262
  0
LINE
  8
0
 10
23.6491
 20
5.48262
 11
23.6887
 21
5.59723
  0
LINE
  8
0
 10
23.6887
 20
5.59723
 11
23.7124
 21
5.72235
  0
LINE
  8
0
 10
23.7124
 20
5.72235
 11
23.7203
 21
5.85802
  0
LINE
  8
0
 10
23.7203
 20
5.85802
 11
23.7033
 21
6.05583
  0
LINE
  8
0
 10
23.7033
 20
6.05583
 11
23.6521
 21
6.23203
  0
LINE
  8
0
 10
23.6521
 20
6.23203
 11
23.5669
 21
6.3866
  0
LINE
  8
0
 10
23.5669
 20
6.3866
 11
23.4475
 21
6.51956
  0
LINE
  8
0
 10
23.4475
 20
6.51956
 11
23.2986
 21
6.62645
  0
LINE
  8
0
 10
23.2986
 20
6.62645
 11
23.1248
 21
6.7028
  0
LINE
  8
0
 10
23.1248
 20
6.7028
 11
22.9259
 21
6.74861
  0
LINE
  8
0
 10
22.9259
 20
6.74861
 11
22.7022
 21
6.76389
  0
LINE
  8
0
 10
22.7022
 20
6.76389
 11
21.5584
 21
6.76389
  0
LINE
  8
0
 10
21.5584
 20
6.76389
 11
21.5584
 21
4.03709
  0
LINE
  8
0
 10
21.5584
 20
4.03709
 11
22.2203
 21
4.03709
  0
LINE
  8
0
 10
22.2203
 20
4.03709
 11
22.2203
 21
4.97591
  0
LINE
  8
0
 10
22.2203
 20
5.48651
 11
22.2203
 21
6.24049
  0
LINE
  8
0
 10
22.2203
 20
6.24049
 11
22.5616
 21
6.24049
  0
LINE
  8
0
 10
22.5616
 20
6.24049
 11
22.7683
 21
6.2166
  0
LINE
  8
0
 10
22.7683
 20
6.2166
 11
22.916
 21
6.14488
  0
LINE
  8
0
 10
22.916
 20
6.14488
 11
23.0045
 21
6.02534
  0
LINE
  8
0
 10
23.0045
 20
6.02534
 11
23.0341
 21
5.85802
  0
LINE
  8
0
 10
23.0341
 20
5.85802
 11
23.0047
 21
5.69548
  0
LINE
  8
0
 10
23.0047
 20
5.69548
 11
22.9164
 21
5.57938
  0
LINE
  8
0
 10
22.9164
 20
5.57938
 11
22.7693
 21
5.50972
  0
LINE
  8
0
 10
22.7693
 20
5.50972
 11
22.5634
 21
5.48651
  0
LINE
  8
0
 10
22.5634
 20
5.48651
 11
22.2203
 21
5.48651
  0
LINE
  8
0
 10
28.1944
 20
5.64572
 11
26.9062
 21
5.64572
  0
LINE
  8
0
 10
26.9062
 20
5.64572
 11
26.9062
 21
5.15343
  0
LINE
  8
0
 10
26.9062
 20
5.15343
 11
28.1944
 21
5.15343
  0
LINE
  8
0
 10
28.1944
 20
5.15343
 11
28.1944
 21
5.64572
  0
LINE
  8
0
 10
18.2241
 20
5.64572
 11
16.9359
 21
5.64572
  0
LINE
  8
0
 10
16.9359
 20
5.64572
 11
16.9359
 21
5.15343
  0
LINE
  8
0
 10
16.9359
 20
5.15343
 11
18.2241
 21
5.15343
  0
LINE
  8
0
 10
18.2241
 20
5.15343
 11
18.2241
 21
5.64572
  0
LINE
  8
0
 10
31.432
 20
0.80986
 11
31.4807
 21
0.811844
  0
LINE
  8
0
 10
31.4807
 20
0.811844
 11
31.5309
 21
0.81517
  0
LINE
  8
0
 10
31.5309
 20
0.81517
 11
31.5826
 21
0.819824
  0
LINE
  8
0
 10
31.5826
 20
0.819824
 11
31.6354
 21
0.826355
  0
LINE
  8
0
 10
31.6354
 20
0.826355
 11
31.6891
 21
0.835327
  0
LINE
  8
0
 10
31.6891
 20
0.835327
 11
31.7439
 21
0.846725
  0
LINE
  8
0
 10
31.7439
 20
0.846725
 11
31.7995
 21
0.860565
  0
LINE
  8
0
 10
31.7995
 20
0.860565
 11
31.7139
 21
1.31039
  0
LINE
  8
0
 10
31.7139
 20
1.31039
 11
31.6984
 21
1.30757
  0
LINE
  8
0
 10
31.6984
 20
1.30757
 11
31.6785
 21
1.30443
  0
LINE
  8
0
 10
31.6785
 20
1.30443
 11
31.6541
 21
1.30093
  0
LINE
  8
0
 10
31.6541
 20
1.30093
 11
31.6254
 21
1.2971
  0
LINE
  8
0
 10
31.6254
 20
1.2971
 11
31.5962
 21
1.29362
  0
LINE
  8
0
 10
31.5962
 20
1.29362
 11
31.5704
 21
1.29112
  0
LINE
  8
0
 10
31.5704
 20
1.29112
 11
31.5481
 21
1.28964
  0
LINE
  8
0
 10
31.5481
 20
1.28964
 11
31.5293
 21
1.28914
  0
LINE
  8
0
 10
31.5293
 20
1.28914
 11
31.4552
 21
1.29877
  0
LINE
  8
0
 10
31.4552
 20
1.29877
 11
31.4022
 21
1.32765
  0
LINE
  8
0
 10
31.4022
 20
1.32765
 11
31.3705
 21
1.37581
  0
LINE
  8
0
 10
31.3705
 20
1.37581
 11
31.3599
 21
1.44322
  0
LINE
  8
0
 10
31.3599
 20
1.44322
 11
31.3599
 21
2.35886
  0
LINE
  8
0
 10
31.3599
 20
2.35886
 11
31.7425
 21
2.35886
  0
LINE
  8
0
 10
31.7425
 20
2.35886
 11
31.7425
 21
2.81755
  0
LINE
  8
0
 10
31.7425
 20
2.81755
 11
31.3599
 21
2.81755
  0
LINE
  8
0
 10
31.3599
 20
2.81755
 11
31.3599
 21
3.28867
  0
LINE
  8
0
 10
31.3599
 20
3.28867
 11
30.6956
 21
3.28867
  0
LINE
  8
0
 10
30.6956
 20
3.28867
 11
30.6956
 21
2.81755
  0
LINE
  8
0
 10
30.6956
 20
2.81755
 11
30.0308
 21
2.81755
  0
LINE
  8
0
 10
30.0308
 20
2.81755
 11
30.0308
 21
2.92914
  0
LINE
  8
0
 10
30.0308
 20
2.92914
 11
30.0337
 21
2.97025
  0
LINE
  8
0
 10
30.0337
 20
2.97025
 11
30.0424
 21
3.00684
  0
LINE
  8
0
 10
30.0424
 20
3.00684
 11
30.057
 21
3.03888
  0
LINE
  8
0
 10
30.057
 20
3.03888
 11
30.0774
 21
3.06636
  0
LINE
  8
0
 10
30.0774
 20
3.06636
 11
30.1052
 21
3.08846
  0
LINE
  8
0
 10
30.1052
 20
3.08846
 11
30.1419
 21
3.10423
  0
LINE
  8
0
 10
30.1419
 20
3.10423
 11
30.1875
 21
3.11369
  0
LINE
  8
0
 10
30.1875
 20
3.11369
 11
30.2421
 21
3.11685
  0
LINE
  8
0
 10
30.2421
 20
3.11685
 11
30.2677
 21
3.11635
  0
LINE
  8
0
 10
30.2677
 20
3.11635
 11
30.2934
 21
3.11485
  0
LINE
  8
0
 10
30.2934
 20
3.11485
 11
30.3191
 21
3.11237
  0
LINE
  8
0
 10
30.3191
 20
3.11237
 11
30.3448
 21
3.10889
  0
LINE
  8
0
 10
30.3448
 20
3.10889
 11
30.3697
 21
3.10484
  0
LINE
  8
0
 10
30.3697
 20
3.10484
 11
30.3929
 21
3.10069
  0
LINE
  8
0
 10
30.3929
 20
3.10069
 11
30.4144
 21
3.09644
  0
LINE
  8
0
 10
30.4144
 20
3.09644
 11
30.4343
 21
3.09207
  0
LINE
  8
0
 10
30.4343
 20
3.09207
 11
30.5409
 21
3.54367
  0
LINE
  8
0
 10
30.5409
 20
3.54367
 11
30.5073
 21
3.55193
  0
LINE
  8
0
 10
30.5073
 20
3.55193
 11
30.4657
 21
3.56073
  0
LINE
  8
0
 10
30.4657
 20
3.56073
 11
30.416
 21
3.57007
  0
LINE
  8
0
 10
30.416
 20
3.57007
 11
30.3582
 21
3.57997
  0
LINE
  8
0
 10
30.3582
 20
3.57997
 11
30.2952
 21
3.58888
  0
LINE
  8
0
 10
30.2952
 20
3.58888
 11
30.2302
 21
3.59525
  0
LINE
  8
0
 10
30.2302
 20
3.59525
 11
30.1629
 21
3.59908
  0
LINE
  8
0
 10
30.1629
 20
3.59908
 11
30.0936
 21
3.60034
  0
LINE
  8
0
 10
30.0936
 20
3.60034
 11
29.9411
 21
3.58983
  0
LINE
  8
0
 10
29.9411
 20
3.58983
 11
29.8033
 21
3.55827
  0
LINE
  8
0
 10
29.8033
 20
3.55827
 11
29.6803
 21
3.50569
  0
LINE
  8
0
 10
29.6803
 20
3.50569
 11
29.5721
 21
3.43208
  0
LINE
  8
0
 10
29.5721
 20
3.43208
 11
29.4838
 21
3.33723
  0
LINE
  8
0
 10
29.4838
 20
3.33723
 11
29.4208
 21
3.2209
  0
LINE
  8
0
 10
29.4208
 20
3.2209
 11
29.383
 21
3.08308
  0
LINE
  8
0
 10
29.383
 20
3.08308
 11
29.3704
 21
2.92381
  0
LINE
  8
0
 10
29.3704
 20
2.92381
 11
29.3704
 21
2.81755
  0
LINE
  8
0
 10
29.3704
 20
2.81755
 11
29.0125
 21
2.81755
  0
LINE
  8
0
 10
29.0125
 20
2.81755
 11
29.0125
 21
2.35886
  0
LINE
  8
0
 10
29.0125
 20
2.35886
 11
29.3704
 21
2.35886
  0
LINE
  8
0
 10
29.3704
 20
2.35886
 11
29.3704
 21
0.837524
  0
LINE
  8
0
 10
29.3704
 20
0.837524
 11
30.0308
 21
0.837524
  0
LINE
  8
0
 10
30.0308
 20
0.837524
 11
30.0308
 21
2.35886
  0
LINE
  8
0
 10
30.0308
 20
2.35886
 11
30.6956
 21
2.35886
  0
LINE
  8
0
 10
30.6956
 20
2.35886
 11
30.6956
 21
1.38832
  0
LINE
  8
0
 10
30.6956
 20
1.38832
 11
30.7066
 21
1.25511
  0
LINE
  8
0
 10
30.7066
 20
1.25511
 11
30.7394
 21
1.13882
  0
LINE
  8
0
 10
30.7394
 20
1.13882
 11
30.7941
 21
1.03947
  0
LINE
  8
0
 10
30.7941
 20
1.03947
 11
30.8707
 21
0.957062
  0
LINE
  8
0
 10
30.8707
 20
0.957062
 11
30.9685
 21
0.892365
  0
LINE
  8
0
 10
30.9685
 20
0.892365
 11
31.0868
 21
0.846161
  0
LINE
  8
0
 10
31.0868
 20
0.846161
 11
31.2255
 21
0.818436
  0
LINE
  8
0
 10
31.2255
 20
0.818436
 11
31.3846
 21
0.809204
  0
LINE
  8
0
 10
31.3846
 20
0.809204
 11
31.432
 21
0.80986
  0
LINE
  8
0
 10
13.5562
 20
0.824417
 11
13.7916
 21
0.891327
  0
LINE
  8
0
 10
13.7916
 20
0.891327
 11
13.9954
 21
1.00285
  0
LINE
  8
0
 10
13.9954
 20
1.00285
 11
14.1677
 21
1.15898
  0
LINE
  8
0
 10
14.1677
 20
1.15898
 11
14.3047
 21
1.35507
  0
LINE
  8
0
 10
14.3047
 20
1.35507
 11
14.4025
 21
1.58646
  0
LINE
  8
0
 10
14.4025
 20
1.58646
 11
14.4612
 21
1.85316
  0
LINE
  8
0
 10
14.4612
 20
1.85316
 11
14.4808
 21
2.1552
  0
LINE
  8
0
 10
14.4808
 20
2.1552
 11
14.472
 21
2.3609
  0
LINE
  8
0
 10
14.472
 20
2.3609
 11
14.4454
 21
2.55124
  0
LINE
  8
0
 10
14.4454
 20
2.55124
 11
14.401
 21
2.72618
  0
LINE
  8
0
 10
14.401
 20
2.72618
 11
14.339
 21
2.88573
  0
LINE
  8
0
 10
14.339
 20
2.88573
 11
14.2603
 21
3.02869
  0
LINE
  8
0
 10
14.2603
 20
3.02869
 11
14.166
 21
3.15382
  0
LINE
  8
0
 10
14.166
 20
3.15382
 11
14.0562
 21
3.26114
  0
LINE
  8
0
 10
14.0562
 20
3.26114
 11
13.9308
 21
3.35063
  0
LINE
  8
0
 10
13.9308
 20
3.35063
 11
13.7907
 21
3.42114
  0
LINE
  8
0
 10
13.7907
 20
3.42114
 11
13.6372
 21
3.47151
  0
LINE
  8
0
 10
13.6372
 20
3.47151
 11
13.47
 21
3.50174
  0
LINE
  8
0
 10
13.47
 20
3.50174
 11
13.2894
 21
3.51181
  0
LINE
  8
0
 10
13.2894
 20
3.51181
 11
13.024
 21
3.48946
  0
LINE
  8
0
 10
13.024
 20
3.48946
 11
12.7895
 21
3.42236
  0
LINE
  8
0
 10
12.7895
 20
3.42236
 11
12.5858
 21
3.31056
  0
LINE
  8
0
 10
12.5858
 20
3.31056
 11
12.4129
 21
3.15404
  0
LINE
  8
0
 10
12.4129
 20
3.15404
 11
12.2751
 21
2.95746
  0
LINE
  8
0
 10
12.2751
 20
2.95746
 11
12.1767
 21
2.72545
  0
LINE
  8
0
 10
12.1767
 20
2.72545
 11
12.1176
 21
2.45802
  0
LINE
  8
0
 10
12.1176
 20
2.45802
 11
12.0979
 21
2.1552
  0
LINE
  8
0
 10
12.0979
 20
2.1552
 11
12.1176
 21
1.85245
  0
LINE
  8
0
 10
12.1176
 20
1.85245
 11
12.1767
 21
1.58536
  0
LINE
  8
0
 10
12.1767
 20
1.58536
 11
12.2751
 21
1.3539
  0
LINE
  8
0
 10
12.2751
 20
1.3539
 11
12.4129
 21
1.1581
  0
LINE
  8
0
 10
12.4129
 20
1.1581
 11
12.5858
 21
1.00235
  0
LINE
  8
0
 10
12.5858
 20
1.00235
 11
12.7895
 21
0.891113
  0
LINE
  8
0
 10
12.7895
 20
0.891113
 11
13.024
 21
0.824371
  0
LINE
  8
0
 10
13.024
 20
0.824371
 11
13.2894
 21
0.802124
  0
LINE
  8
0
 10
13.2894
 20
0.802124
 11
13.5562
 21
0.824417
  0
LINE
  8
0
 10
13.1756
 20
1.32756
 11
13.076
 21
1.36841
  0
LINE
  8
0
 10
13.076
 20
1.36841
 11
12.9905
 21
1.43648
  0
LINE
  8
0
 10
12.9905
 20
1.43648
 11
12.9192
 21
1.53177
  0
LINE
  8
0
 10
12.9192
 20
1.53177
 11
12.863
 21
1.65244
  0
LINE
  8
0
 10
12.863
 20
1.65244
 11
12.8228
 21
1.79655
  0
LINE
  8
0
 10
12.8228
 20
1.79655
 11
12.7987
 21
1.96414
  0
LINE
  8
0
 10
12.7987
 20
1.96414
 11
12.7907
 21
2.1552
  0
LINE
  8
0
 10
12.7907
 20
2.1552
 11
12.7988
 21
2.34718
  0
LINE
  8
0
 10
12.7988
 20
2.34718
 11
12.8231
 21
2.51582
  0
LINE
  8
0
 10
12.8231
 20
2.51582
 11
12.8635
 21
2.6611
  0
LINE
  8
0
 10
12.8635
 20
2.6611
 11
12.9201
 21
2.78302
  0
LINE
  8
0
 10
12.9201
 20
2.78302
 11
12.9917
 21
2.87949
  0
LINE
  8
0
 10
12.9917
 20
2.87949
 11
13.0771
 21
2.94839
  0
LINE
  8
0
 10
13.0771
 20
2.94839
 11
13.1763
 21
2.98973
  0
LINE
  8
0
 10
13.1763
 20
2.98973
 11
13.2894
 21
3.00351
  0
LINE
  8
0
 10
13.2894
 20
3.00351
 11
13.4032
 21
2.98973
  0
LINE
  8
0
 10
13.4032
 20
2.98973
 11
13.503
 21
2.94839
  0
LINE
  8
0
 10
13.503
 20
2.94839
 11
13.5888
 21
2.87949
  0
LINE
  8
0
 10
13.5888
 20
2.87949
 11
13.6605
 21
2.78302
  0
LINE
  8
0
 10
13.6605
 20
2.78302
 11
13.7171
 21
2.6611
  0
LINE
  8
0
 10
13.7171
 20
2.6611
 11
13.7576
 21
2.51582
  0
LINE
  8
0
 10
13.7576
 20
2.51582
 11
13.7818
 21
2.34718
  0
LINE
  8
0
 10
13.7818
 20
2.34718
 11
13.7899
 21
2.1552
  0
LINE
  8
0
 10
13.7899
 20
2.1552
 11
13.7818
 21
1.96414
  0
LINE
  8
0
 10
13.7818
 20
1.96414
 11
13.7576
 21
1.79655
  0
LINE
  8
0
 10
13.7576
 20
1.79655
 11
13.7171
 21
1.65244
  0
LINE
  8
0
 10
13.7171
 20
1.65244
 11
13.6605
 21
1.53177
  0
LINE
  8
0
 10
13.6605
 20
1.53177
 11
13.5888
 21
1.43648
  0
LINE
  8
0
 10
13.5888
 20
1.43648
 11
13.503
 21
1.36841
  0
LINE
  8
0
 10
13.503
 20
1.36841
 11
13.4032
 21
1.32756
  0
LINE
  8
0
 10
13.4032
 20
1.32756
 11
13.2894
 21
1.31395
  0
LINE
  8
0
 10
13.2894
 20
1.31395
 11
13.1756
 21
1.32756
  0
LINE
  8
0
 10
19.9704
 20
0.824417
 11
20.2058
 21
0.891327
  0
LINE
  8
0
 10
20.2058
 20
0.891327
 11
20.4096
 21
1.00285
  0
LINE
  8
0
 10
20.4096
 20
1.00285
 11
20.5819
 21
1.15898
  0
LINE
  8
0
 10
20.5819
 20
1.15898
 11
20.7189
 21
1.35507
  0
LINE
  8
0
 10
20.7189
 20
1.35507
 11
20.8167
 21
1.58646
  0
LINE
  8
0
 10
20.8167
 20
1.58646
 11
20.8754
 21
1.85316
  0
LINE
  8
0
 10
20.8754
 20
1.85316
 11
20.895
 21
2.1552
  0
LINE
  8
0
 10
20.895
 20
2.1552
 11
20.8861
 21
2.3609
  0
LINE
  8
0
 10
20.8861
 20
2.3609
 11
20.8596
 21
2.55124
  0
LINE
  8
0
 10
20.8596
 20
2.55124
 11
20.8152
 21
2.72618
  0
LINE
  8
0
 10
20.8152
 20
2.72618
 11
20.7532
 21
2.88573
  0
LINE
  8
0
 10
20.7532
 20
2.88573
 11
20.6745
 21
3.02869
  0
LINE
  8
0
 10
20.6745
 20
3.02869
 11
20.5802
 21
3.15382
  0
LINE
  8
0
 10
20.5802
 20
3.15382
 11
20.4704
 21
3.26114
  0
LINE
  8
0
 10
20.4704
 20
3.26114
 11
20.3449
 21
3.35063
  0
LINE
  8
0
 10
20.3449
 20
3.35063
 11
20.2049
 21
3.42114
  0
LINE
  8
0
 10
20.2049
 20
3.42114
 11
20.0514
 21
3.47151
  0
LINE
  8
0
 10
20.0514
 20
3.47151
 11
19.8842
 21
3.50174
  0
LINE
  8
0
 10
19.8842
 20
3.50174
 11
19.7036
 21
3.51181
  0
LINE
  8
0
 10
19.7036
 20
3.51181
 11
19.4382
 21
3.48946
  0
LINE
  8
0
 10
19.4382
 20
3.48946
 11
19.2037
 21
3.42236
  0
LINE
  8
0
 10
19.2037
 20
3.42236
 11
19
 21
3.31056
  0
LINE
  8
0
 10
19
 20
3.31056
 11
18.8271
 21
3.15404
  0
LINE
  8
0
 10
18.8271
 20
3.15404
 11
18.6893
 21
2.95746
  0
LINE
  8
0
 10
18.6893
 20
2.95746
 11
18.5909
 21
2.72545
  0
LINE
  8
0
 10
18.5909
 20
2.72545
 11
18.5318
 21
2.45802
  0
LINE
  8
0
 10
18.5318
 20
2.45802
 11
18.5121
 21
2.1552
  0
LINE
  8
0
 10
18.5121
 20
2.1552
 11
18.5318
 21
1.85245
  0
LINE
  8
0
 10
18.5318
 20
1.85245
 11
18.5909
 21
1.58536
  0
LINE
  8
0
 10
18.5909
 20
1.58536
 11
18.6893
 21
1.3539
  0
LINE
  8
0
 10
18.6893
 20
1.3539
 11
18.8271
 21
1.1581
  0
LINE
  8
0
 10
18.8271
 20
1.1581
 11
19
 21
1.00235
  0
LINE
  8
0
 10
19
 20
1.00235
 11
19.2037
 21
0.891113
  0
LINE
  8
0
 10
19.2037
 20
0.891113
 11
19.4382
 21
0.824371
  0
LINE
  8
0
 10
19.4382
 20
0.824371
 11
19.7036
 21
0.802124
  0
LINE
  8
0
 10
19.7036
 20
0.802124
 11
19.9704
 21
0.824417
  0
LINE
  8
0
 10
19.5898
 20
1.32756
 11
19.4902
 21
1.36841
  0
LINE
  8
0
 10
19.4902
 20
1.36841
 11
19.4047
 21
1.43648
  0
LINE
  8
0
 10
19.4047
 20
1.43648
 11
19.3334
 21
1.53177
  0
LINE
  8
0
 10
19.3334
 20
1.53177
 11
19.2772
 21
1.65244
  0
LINE
  8
0
 10
19.2772
 20
1.65244
 11
19.237
 21
1.79655
  0
LINE
  8
0
 10
19.237
 20
1.79655
 11
19.2129
 21
1.96414
  0
LINE
  8
0
 10
19.2129
 20
1.96414
 11
19.2049
 21
2.1552
  0
LINE
  8
0
 10
19.2049
 20
2.1552
 11
19.213
 21
2.34718
  0
LINE
  8
0
 10
19.213
 20
2.34718
 11
19.2373
 21
2.51582
  0
LINE
  8
0
 10
19.2373
 20
2.51582
 11
19.2777
 21
2.6611
  0
LINE
  8
0
 10
19.2777
 20
2.6611
 11
19.3343
 21
2.78302
  0
LINE
  8
0
 10
19.3343
 20
2.78302
 11
19.4059
 21
2.87949
  0
LINE
  8
0
 10
19.4059
 20
2.87949
 11
19.4913
 21
2.94839
  0
LINE
  8
0
 10
19.4913
 20
2.94839
 11
19.5905
 21
2.98973
  0
LINE
  8
0
 10
19.5905
 20
2.98973
 11
19.7036
 21
3.00351
  0
LINE
  8
0
 10
19.7036
 20
3.00351
 11
19.8174
 21
2.98973
  0
LINE
  8
0
 10
19.8174
 20
2.98973
 11
19.9172
 21
2.94839
  0
LINE
  8
0
 10
19.9172
 20
2.94839
 11
20.003
 21
2.87949
  0
LINE
  8
0
 10
20.003
 20
2.87949
 11
20.0747
 21
2.78302
  0
LINE
  8
0
 10
20.0747
 20
2.78302
 11
20.1313
 21
2.6611
  0
LINE
  8
0
 10
20.1313
 20
2.6611
 11
20.1718
 21
2.51582
  0
LINE
  8
0
 10
20.1718
 20
2.51582
 11
20.196
 21
2.34718
  0
LINE
  8
0
 10
20.196
 20
2.34718
 11
20.2041
 21
2.1552
  0
LINE
  8
0
 10
20.2041
 20
2.1552
 11
20.196
 21
1.96414
  0
LINE
  8
0
 10
20.196
 20
1.96414
 11
20.1718
 21
1.79655
  0
LINE
  8
0
 10
20.1718
 20
1.79655
 11
20.1313
 21
1.65244
  0
LINE
  8
0
 10
20.1313
 20
1.65244
 11
20.0747
 21
1.53177
  0
LINE
  8
0
 10
20.0747
 20
1.53177
 11
20.003
 21
1.43648
  0
LINE
  8
0
 10
20.003
 20
1.43648
 11
19.9172
 21
1.36841
  0
LINE
  8
0
 10
19.9172
 20
1.36841
 11
19.8174
 21
1.32756
  0
LINE
  8
0
 10
19.8174
 20
1.32756
 11
19.7036
 21
1.31395
  0
LINE
  8
0
 10
19.7036
 20
1.31395
 11
19.5898
 21
1.32756
  0
LINE
  8
0
 10
23.8887
 20
0.815887
 11
23.9922
 21
0.835983
  0
LINE
  8
0
 10
23.9922
 20
0.835983
 11
24.0833
 21
0.869461
  0
LINE
  8
0
 10
24.0833
 20
0.869461
 11
24.1622
 21
0.916351
  0
LINE
  8
0
 10
24.1622
 20
0.916351
 11
24.2299
 21
0.971634
  0
LINE
  8
0
 10
24.2299
 20
0.971634
 11
24.2872
 21
1.03035
  0
LINE
  8
0
 10
24.2872
 20
1.03035
 11
24.3341
 21
1.09251
  0
LINE
  8
0
 10
24.3341
 20
1.09251
 11
24.3707
 21
1.1581
  0
LINE
  8
0
 10
24.3707
 20
1.1581
 11
24.3935
 21
1.1581
  0
LINE
  8
0
 10
24.3935
 20
1.1581
 11
24.3935
 21
0.837524
  0
LINE
  8
0
 10
24.3935
 20
0.837524
 11
25.0482
 21
0.837524
  0
LINE
  8
0
 10
25.0482
 20
0.837524
 11
25.0482
 21
3.47638
  0
LINE
  8
0
 10
25.0482
 20
3.47638
 11
24.3859
 21
3.47638
  0
LINE
  8
0
 10
24.3859
 20
3.47638
 11
24.3859
 21
2.47749
  0
LINE
  8
0
 10
24.3859
 20
2.47749
 11
24.3707
 21
2.47749
  0
LINE
  8
0
 10
24.3707
 20
2.47749
 11
24.3484
 21
2.5215
  0
LINE
  8
0
 10
24.3484
 20
2.5215
 11
24.3214
 21
2.56494
  0
LINE
  8
0
 10
24.3214
 20
2.56494
 11
24.2898
 21
2.60783
  0
LINE
  8
0
 10
24.2898
 20
2.60783
 11
24.2536
 21
2.65018
  0
LINE
  8
0
 10
24.2536
 20
2.65018
 11
24.2124
 21
2.69037
  0
LINE
  8
0
 10
24.2124
 20
2.69037
 11
24.1658
 21
2.72678
  0
LINE
  8
0
 10
24.1658
 20
2.72678
 11
24.1139
 21
2.75943
  0
LINE
  8
0
 10
24.1139
 20
2.75943
 11
24.0566
 21
2.78831
  0
LINE
  8
0
 10
24.0566
 20
2.78831
 11
23.9936
 21
2.81197
  0
LINE
  8
0
 10
23.9936
 20
2.81197
 11
23.9243
 21
2.82884
  0
LINE
  8
0
 10
23.9243
 20
2.82884
 11
23.8489
 21
2.83897
  0
LINE
  8
0
 10
23.8489
 20
2.83897
 11
23.7673
 21
2.84236
  0
LINE
  8
0
 10
23.7673
 20
2.84236
 11
23.6578
 21
2.83549
  0
LINE
  8
0
 10
23.6578
 20
2.83549
 11
23.552
 21
2.8149
  0
LINE
  8
0
 10
23.552
 20
2.8149
 11
23.4499
 21
2.78058
  0
LINE
  8
0
 10
23.4499
 20
2.78058
 11
23.3515
 21
2.73254
  0
LINE
  8
0
 10
23.3515
 20
2.73254
 11
23.2595
 21
2.67044
  0
LINE
  8
0
 10
23.2595
 20
2.67044
 11
23.1768
 21
2.59395
  0
LINE
  8
0
 10
23.1768
 20
2.59395
 11
23.1035
 21
2.50307
  0
LINE
  8
0
 10
23.1035
 20
2.50307
 11
23.0393
 21
2.3978
  0
LINE
  8
0
 10
23.0393
 20
2.3978
 11
22.9873
 21
2.27771
  0
LINE
  8
0
 10
22.9873
 20
2.27771
 11
22.9501
 21
2.14233
  0
LINE
  8
0
 10
22.9501
 20
2.14233
 11
22.9278
 21
1.9917
  0
LINE
  8
0
 10
22.9278
 20
1.9917
 11
22.9204
 21
1.82578
  0
LINE
  8
0
 10
22.9204
 20
1.82578
 11
22.9275
 21
1.66444
  0
LINE
  8
0
 10
22.9275
 20
1.66444
 11
22.9489
 21
1.51695
  0
LINE
  8
0
 10
22.9489
 20
1.51695
 11
22.9846
 21
1.38329
  0
LINE
  8
0
 10
22.9846
 20
1.38329
 11
23.0346
 21
1.26347
  0
LINE
  8
0
 10
23.0346
 20
1.26347
 11
23.0967
 21
1.15753
  0
LINE
  8
0
 10
23.0967
 20
1.15753
 11
23.1688
 21
1.06555
  0
LINE
  8
0
 10
23.1688
 20
1.06555
 11
23.2508
 21
0.987518
  0
LINE
  8
0
 10
23.2508
 20
0.987518
 11
23.3429
 21
0.923416
  0
LINE
  8
0
 10
23.3429
 20
0.923416
 11
23.4426
 21
0.873444
  0
LINE
  8
0
 10
23.4426
 20
0.873444
 11
23.5475
 21
0.837753
  0
LINE
  8
0
 10
23.5475
 20
0.837753
 11
23.6577
 21
0.81633
  0
LINE
  8
0
 10
23.6577
 20
0.81633
 11
23.7731
 21
0.809204
  0
LINE
  8
0
 10
23.7731
 20
0.809204
 11
23.8887
 21
0.815887
  0
LINE
  8
0
 10
23.9091
 20
1.30009
 11
23.8299
 21
1.32767
  0
LINE
  8
0
 10
23.8299
 20
1.32767
 11
23.762
 21
1.3736
  0
LINE
  8
0
 10
23.762
 20
1.3736
 11
23.7055
 21
1.43791
  0
LINE
  8
0
 10
23.7055
 20
1.43791
 11
23.6609
 21
1.51729
  0
LINE
  8
0
 10
23.6609
 20
1.51729
 11
23.6291
 21
1.60838
  0
LINE
  8
0
 10
23.6291
 20
1.60838
 11
23.61
 21
1.71121
  0
LINE
  8
0
 10
23.61
 20
1.71121
 11
23.6037
 21
1.82578
  0
LINE
  8
0
 10
23.6037
 20
1.82578
 11
23.61
 21
1.94029
  0
LINE
  8
0
 10
23.61
 20
1.94029
 11
23.6291
 21
2.04295
  0
LINE
  8
0
 10
23.6291
 20
2.04295
 11
23.6609
 21
2.13377
  0
LINE
  8
0
 10
23.6609
 20
2.13377
 11
23.7055
 21
2.21275
  0
LINE
  8
0
 10
23.7055
 20
2.21275
 11
23.762
 21
2.27667
  0
LINE
  8
0
 10
23.762
 20
2.27667
 11
23.8299
 21
2.32233
  0
LINE
  8
0
 10
23.8299
 20
2.32233
 11
23.9091
 21
2.34973
  0
LINE
  8
0
 10
23.9091
 20
2.34973
 11
23.9995
 21
2.35886
  0
LINE
  8
0
 10
23.9995
 20
2.35886
 11
24.0894
 21
2.3499
  0
LINE
  8
0
 10
24.0894
 20
2.3499
 11
24.1687
 21
2.323
  0
LINE
  8
0
 10
24.1687
 20
2.323
 11
24.2374
 21
2.27815
  0
LINE
  8
0
 10
24.2374
 20
2.27815
 11
24.2955
 21
2.21539
  0
LINE
  8
0
 10
24.2955
 20
2.21539
 11
24.3417
 21
2.13724
  0
LINE
  8
0
 10
24.3417
 20
2.13724
 11
24.3747
 21
2.04626
  0
LINE
  8
0
 10
24.3747
 20
2.04626
 11
24.3945
 21
1.94244
  0
LINE
  8
0
 10
24.3945
 20
1.94244
 11
24.4011
 21
1.82578
  0
LINE
  8
0
 10
24.4011
 20
1.82578
 11
24.3945
 21
1.71049
  0
LINE
  8
0
 10
24.3945
 20
1.71049
 11
24.3745
 21
1.60727
  0
LINE
  8
0
 10
24.3745
 20
1.60727
 11
24.3412
 21
1.51611
  0
LINE
  8
0
 10
24.3412
 20
1.51611
 11
24.2945
 21
1.43703
  0
LINE
  8
0
 10
24.2945
 20
1.43703
 11
24.2361
 21
1.37311
  0
LINE
  8
0
 10
24.2361
 20
1.37311
 11
24.1675
 21
1.32744
  0
LINE
  8
0
 10
24.1675
 20
1.32744
 11
24.0886
 21
1.30005
  0
LINE
  8
0
 10
24.0886
 20
1.30005
 11
23.9995
 21
1.29091
  0
LINE
  8
0
 10
23.9995
 20
1.29091
 11
23.9091
 21
1.30009
  0
LINE
  8
0
 10
16.9508
 20
3.47638
 11
16.2561
 21
3.47638
  0
LINE
  8
0
 10
16.2561
 20
3.47638
 11
15.6242
 21
3.07259
  0
LINE
  8
0
 10
15.6242
 20
3.07259
 11
15.6242
 21
2.52357
  0
LINE
  8
0
 10
15.6242
 20
2.52357
 11
16.2618
 21
2.93266
  0
LINE
  8
0
 10
16.2618
 20
2.93266
 11
16.2808
 21
2.93266
  0
LINE
  8
0
 10
16.2808
 20
2.93266
 11
16.2808
 21
0.837524
  0
LINE
  8
0
 10
16.2808
 20
0.837524
 11
16.9508
 21
0.837524
  0
LINE
  8
0
 10
16.9508
 20
0.837524
 11
16.9508
 21
3.47638
  0
LINE
  8
0
 10
34.3217
 20
3.47638
 11
33.627
 21
3.47638
  0
LINE
  8
0
 10
33.627
 20
3.47638
 11
32.9951
 21
3.07259
  0
LINE
  8
0
 10
32.9951
 20
3.07259
 11
32.9951
 21
2.52357
  0
LINE
  8
0
 10
32.9951
 20
2.52357
 11
33.6327
 21
2.93266
  0
LINE
  8
0
 10
33.6327
 20
2.93266
 11
33.6517
 21
2.93266
  0
LINE
  8
0
 10
33.6517
 20
2.93266
 11
33.6517
 21
0.837524
  0
LINE
  8
0
 10
33.6517
 20
0.837524
 11
34.3217
 21
0.837524
  0
LINE
  8
0
 10
34.3217
 20
0.837524
 11
34.3217
 21
3.47638
  0
LINE
  8
0
 10
6.59973
 20
0.800308
 11
6.67059
 21
0.801361
  0
LINE
  8
0
 10
6.67059
 20
0.801361
 11
6.74037
 21
0.803253
  0
LINE
  8
0
 10
6.74037
 20
0.803253
 11
6.80911
 21
0.806122
  0
LINE
  8
0
 10
6.80911
 20
0.806122
 11
6.87688
 21
0.810074
  0
LINE
  8
0
 10
6.87688
 20
0.810074
 11
6.94376
 21
0.815247
  0
LINE
  8
0
 10
6.94376
 20
0.815247
 11
7.00977
 21
0.821732
  0
LINE
  8
0
 10
7.00977
 20
0.821732
 11
7.075
 21
0.829681
  0
LINE
  8
0
 10
7.075
 20
0.829681
 11
7.13951
 21
0.839203
  0
LINE
  8
0
 10
7.13951
 20
0.839203
 11
7.20335
 21
0.850418
  0
LINE
  8
0
 10
7.20335
 20
0.850418
 11
7.26659
 21
0.863434
  0
LINE
  8
0
 10
7.26659
 20
0.863434
 11
7.32928
 21
0.878403
  0
LINE
  8
0
 10
7.32928
 20
0.878403
 11
7.39149
 21
0.895432
  0
LINE
  8
0
 10
7.39149
 20
0.895432
 11
7.45328
 21
0.914627
  0
LINE
  8
0
 10
7.45328
 20
0.914627
 11
7.51469
 21
0.936127
  0
LINE
  8
0
 10
7.51469
 20
0.936127
 11
7.57582
 21
0.960052
  0
LINE
  8
0
 10
7.57582
 20
0.960052
 11
7.63669
 21
0.986511
  0
LINE
  8
0
 10
7.63669
 20
0.986511
 11
7.69739
 21
1.01562
  0
LINE
  8
0
 10
7.69739
 20
1.01562
 11
7.75797
 21
1.04753
  0
LINE
  8
0
 10
7.75797
 20
1.04753
 11
7.81848
 21
1.08235
  0
LINE
  8
0
 10
7.81848
 20
1.08235
 11
4.51091
 21
2.97815
  0
LINE
  8
0
 10
4.51091
 20
2.97815
 11
1.52605
 21
1.12268
  0
LINE
  8
0
 10
1.52605
 20
1.12268
 11
1.56325
 21
1.09303
  0
LINE
  8
0
 10
1.56325
 20
1.09303
 11
1.60223
 21
1.06464
  0
LINE
  8
0
 10
1.60223
 20
1.06464
 11
1.64297
 21
1.03751
  0
LINE
  8
0
 10
1.64297
 20
1.03751
 11
1.68546
 21
1.01167
  0
LINE
  8
0
 10
1.68546
 20
1.01167
 11
1.72961
 21
0.987183
  0
LINE
  8
0
 10
1.72961
 20
0.987183
 11
1.77544
 21
0.964035
  0
LINE
  8
0
 10
1.77544
 20
0.964035
 11
1.82291
 21
0.942291
  0
LINE
  8
0
 10
1.82291
 20
0.942291
 11
1.87196
 21
0.921967
  0
LINE
  8
0
 10
1.87196
 20
0.921967
 11
1.92261
 21
0.903091
  0
LINE
  8
0
 10
1.92261
 20
0.903091
 11
1.97478
 21
0.885712
  0
LINE
  8
0
 10
1.97478
 20
0.885712
 11
2.02847
 21
0.869827
  0
LINE
  8
0
 10
2.02847
 20
0.869827
 11
2.08365
 21
0.855499
  0
LINE
  8
0
 10
2.08365
 20
0.855499
 11
2.14027
 21
0.842728
  0
LINE
  8
0
 10
2.14027
 20
0.842728
 11
2.19832
 21
0.831573
  0
LINE
  8
0
 10
2.19832
 20
0.831573
 11
2.25777
 21
0.822052
  0
LINE
  8
0
 10
2.25777
 20
0.822052
 11
2.31857
 21
0.814194
  0
LINE
  8
0
 10
2.31857
 20
0.814194
 11
2.38071
 21
0.808029
  0
LINE
  8
0
 10
2.38071
 20
0.808029
 11
2.44414
 21
0.803589
  0
LINE
  8
0
 10
2.44414
 20
0.803589
 11
2.50883
 21
0.800888
  0
LINE
  8
0
 10
2.50883
 20
0.800888
 11
2.57478
 21
0.799988
  0
LINE
  8
0
 10
2.57478
 20
0.799988
 11
6.52773
 21
0.799988
  0
LINE
  8
0
 10
6.52773
 20
0.799988
 11
6.59973
 21
0.800308
  0
LINE
  8
0
 10
26.0939
 20
1.91786
 11
26.1014
 21
2.00221
  0
LINE
  8
0
 10
26.1014
 20
2.00221
 11
26.1241
 21
2.07814
  0
LINE
  8
0
 10
26.1241
 20
2.07814
 11
26.1618
 21
2.14566
  0
LINE
  8
0
 10
26.1618
 20
2.14566
 11
26.2147
 21
2.20476
  0
LINE
  8
0
 10
26.2147
 20
2.20476
 11
26.2791
 21
2.25279
  0
LINE
  8
0
 10
26.2791
 20
2.25279
 11
26.3515
 21
2.28711
  0
LINE
  8
0
 10
26.3515
 20
2.28711
 11
26.4319
 21
2.30771
  0
LINE
  8
0
 10
26.4319
 20
2.30771
 11
26.5202
 21
2.31458
  0
LINE
  8
0
 10
26.5202
 20
2.31458
 11
26.5517
 21
2.31407
  0
LINE
  8
0
 10
26.5517
 20
2.31407
 11
26.5851
 21
2.31258
  0
LINE
  8
0
 10
26.5851
 20
2.31258
 11
26.6206
 21
2.31009
  0
LINE
  8
0
 10
26.6206
 20
2.31009
 11
26.6581
 21
2.30661
  0
LINE
  8
0
 10
26.6581
 20
2.30661
 11
26.6949
 21
2.30212
  0
LINE
  8
0
 10
26.6949
 20
2.30212
 11
26.7279
 21
2.29665
  0
LINE
  8
0
 10
26.7279
 20
2.29665
 11
26.7572
 21
2.29018
  0
LINE
  8
0
 10
26.7572
 20
2.29018
 11
26.7828
 21
2.28271
  0
LINE
  8
0
 10
26.7828
 20
2.28271
 11
26.7828
 21
2.82109
  0
LINE
  8
0
 10
26.7828
 20
2.82109
 11
26.7368
 21
2.8304
  0
LINE
  8
0
 10
26.7368
 20
2.8304
 11
26.6901
 21
2.83704
  0
LINE
  8
0
 10
26.6901
 20
2.83704
 11
26.6426
 21
2.84102
  0
LINE
  8
0
 10
26.6426
 20
2.84102
 11
26.5944
 21
2.84236
  0
LINE
  8
0
 10
26.5944
 20
2.84236
 11
26.5095
 21
2.83638
  0
LINE
  8
0
 10
26.5095
 20
2.83638
 11
26.43
 21
2.81845
  0
LINE
  8
0
 10
26.43
 20
2.81845
 11
26.3559
 21
2.78856
  0
LINE
  8
0
 10
26.3559
 20
2.78856
 11
26.287
 21
2.74672
  0
LINE
  8
0
 10
26.287
 20
2.74672
 11
26.2256
 21
2.6927
  0
LINE
  8
0
 10
26.2256
 20
2.6927
 11
26.1736
 21
2.6263
  0
LINE
  8
0
 10
26.1736
 20
2.6263
 11
26.1309
 21
2.54749
  0
LINE
  8
0
 10
26.1309
 20
2.54749
 11
26.0977
 21
2.45627
  0
LINE
  8
0
 10
26.0977
 20
2.45627
 11
26.0748
 21
2.45627
  0
LINE
  8
0
 10
26.0748
 20
2.45627
 11
26.0748
 21
2.81755
  0
LINE
  8
0
 10
26.0748
 20
2.81755
 11
25.4296
 21
2.81755
  0
LINE
  8
0
 10
25.4296
 20
2.81755
 11
25.4296
 21
0.837524
  0
LINE
  8
0
 10
25.4296
 20
0.837524
 11
26.0939
 21
0.837524
  0
LINE
  8
0
 10
26.0939
 20
0.837524
 11
26.0939
 21
1.91786
  0
LINE
  8
0
 10
27.7528
 20
0.821716
 11
27.9234
 21
0.880478
  0
LINE
  8
0
 10
27.9234
 20
0.880478
 11
28.0612
 21
0.978439
  0
LINE
  8
0
 10
28.0612
 20
0.978439
 11
28.1661
 21
1.11557
  0
LINE
  8
0
 10
28.1661
 20
1.11557
 11
28.1832
 21
1.11557
  0
LINE
  8
0
 10
28.1832
 20
1.11557
 11
28.1832
 21
0.837524
  0
LINE
  8
0
 10
28.1832
 20
0.837524
 11
28.8075
 21
0.837524
  0
LINE
  8
0
 10
28.8075
 20
0.837524
 11
28.8075
 21
2.18175
  0
LINE
  8
0
 10
28.8075
 20
2.18175
 11
28.7996
 21
2.28397
  0
LINE
  8
0
 10
28.7996
 20
2.28397
 11
28.7758
 21
2.37811
  0
LINE
  8
0
 10
28.7758
 20
2.37811
 11
28.7363
 21
2.46416
  0
LINE
  8
0
 10
28.7363
 20
2.46416
 11
28.6809
 21
2.54213
  0
LINE
  8
0
 10
28.6809
 20
2.54213
 11
28.6122
 21
2.6116
  0
LINE
  8
0
 10
28.6122
 20
2.6116
 11
28.5325
 21
2.67209
  0
LINE
  8
0
 10
28.5325
 20
2.67209
 11
28.4418
 21
2.72362
  0
LINE
  8
0
 10
28.4418
 20
2.72362
 11
28.3402
 21
2.76617
  0
LINE
  8
0
 10
28.3402
 20
2.76617
 11
28.23
 21
2.7995
  0
LINE
  8
0
 10
28.23
 20
2.7995
 11
28.1135
 21
2.8233
  0
LINE
  8
0
 10
28.1135
 20
2.8233
 11
27.9907
 21
2.8376
  0
LINE
  8
0
 10
27.9907
 20
2.8376
 11
27.8616
 21
2.84236
  0
LINE
  8
0
 10
27.8616
 20
2.84236
 11
27.6714
 21
2.83244
  0
LINE
  8
0
 10
27.6714
 20
2.83244
 11
27.5007
 21
2.80272
  0
LINE
  8
0
 10
27.5007
 20
2.80272
 11
27.3493
 21
2.75319
  0
LINE
  8
0
 10
27.3493
 20
2.75319
 11
27.2173
 21
2.68384
  0
LINE
  8
0
 10
27.2173
 20
2.68384
 11
27.1064
 21
2.59866
  0
LINE
  8
0
 10
27.1064
 20
2.59866
 11
27.0182
 21
2.50165
  0
LINE
  8
0
 10
27.0182
 20
2.50165
 11
26.9527
 21
2.39279
  0
LINE
  8
0
 10
26.9527
 20
2.39279
 11
26.9099
 21
2.27208
  0
LINE
  8
0
 10
26.9099
 20
2.27208
 11
27.5114
 21
2.19945
  0
LINE
  8
0
 10
27.5114
 20
2.19945
 11
27.5286
 21
2.24394
  0
LINE
  8
0
 10
27.5286
 20
2.24394
 11
27.5537
 21
2.28357
  0
LINE
  8
0
 10
27.5537
 20
2.28357
 11
27.5867
 21
2.31833
  0
LINE
  8
0
 10
27.5867
 20
2.31833
 11
27.6275
 21
2.34821
  0
LINE
  8
0
 10
27.6275
 20
2.34821
 11
27.6753
 21
2.37224
  0
LINE
  8
0
 10
27.6753
 20
2.37224
 11
27.7293
 21
2.38939
  0
LINE
  8
0
 10
27.7293
 20
2.38939
 11
27.7895
 21
2.39969
  0
LINE
  8
0
 10
27.7895
 20
2.39969
 11
27.8559
 21
2.40312
  0
LINE
  8
0
 10
27.8559
 20
2.40312
 11
27.9198
 21
2.39964
  0
LINE
  8
0
 10
27.9198
 20
2.39964
 11
27.9765
 21
2.38918
  0
LINE
  8
0
 10
27.9765
 20
2.38918
 11
28.0259
 21
2.37175
  0
LINE
  8
0
 10
28.0259
 20
2.37175
 11
28.068
 21
2.34735
  0
LINE
  8
0
 10
28.068
 20
2.34735
 11
28.1018
 21
2.31651
  0
LINE
  8
0
 10
28.1018
 20
2.31651
 11
28.1259
 21
2.27983
  0
LINE
  8
0
 10
28.1259
 20
2.27983
 11
28.1403
 21
2.23726
  0
LINE
  8
0
 10
28.1403
 20
2.23726
 11
28.1451
 21
2.18883
  0
LINE
  8
0
 10
28.1451
 20
2.18883
 11
28.1451
 21
2.18175
  0
LINE
  8
0
 10
28.1451
 20
2.18175
 11
28.1378
 21
2.13953
  0
LINE
  8
0
 10
28.1378
 20
2.13953
 11
28.1159
 21
2.10493
  0
LINE
  8
0
 10
28.1159
 20
2.10493
 11
28.0793
 21
2.07799
  0
LINE
  8
0
 10
28.0793
 20
2.07799
 11
28.0281
 21
2.05867
  0
LINE
  8
0
 10
28.0281
 20
2.05867
 11
27.96
 21
2.04378
  0
LINE
  8
0
 10
27.96
 20
2.04378
 11
27.8727
 21
2.03011
  0
LINE
  8
0
 10
27.8727
 20
2.03011
 11
27.7663
 21
2.01765
  0
LINE
  8
0
 10
27.7663
 20
2.01765
 11
27.6408
 21
2.00641
  0
LINE
  8
0
 10
27.6408
 20
2.00641
 11
27.5355
 21
1.9948
  0
LINE
  8
0
 10
27.5355
 20
1.9948
 11
27.4345
 21
1.97763
  0
LINE
  8
0
 10
27.4345
 20
1.97763
 11
27.338
 21
1.95494
  0
LINE
  8
0
 10
27.338
 20
1.95494
 11
27.2459
 21
1.92671
  0
LINE
  8
0
 10
27.2459
 20
1.92671
 11
27.1604
 21
1.89153
  0
LINE
  8
0
 10
27.1604
 20
1.89153
 11
27.0838
 21
1.84792
  0
LINE
  8
0
 10
27.0838
 20
1.84792
 11
27.0162
 21
1.79588
  0
LINE
  8
0
 10
27.0162
 20
1.79588
 11
26.9575
 21
1.73544
  0
LINE
  8
0
 10
26.9575
 20
1.73544
 11
26.91
 21
1.66516
  0
LINE
  8
0
 10
26.91
 20
1.66516
 11
26.8762
 21
1.58359
  0
LINE
  8
0
 10
26.8762
 20
1.58359
 11
26.8558
 21
1.49071
  0
LINE
  8
0
 10
26.8558
 20
1.49071
 11
26.849
 21
1.38655
  0
LINE
  8
0
 10
26.849
 20
1.38655
 11
26.8613
 21
1.24886
  0
LINE
  8
0
 10
26.8613
 20
1.24886
 11
26.8983
 21
1.12976
  0
LINE
  8
0
 10
26.8983
 20
1.12976
 11
26.9598
 21
1.02925
  0
LINE
  8
0
 10
26.9598
 20
1.02925
 11
27.046
 21
0.947342
  0
LINE
  8
0
 10
27.046
 20
0.947342
 11
27.1514
 21
0.883804
  0
LINE
  8
0
 10
27.1514
 20
0.883804
 11
27.2704
 21
0.838425
  0
LINE
  8
0
 10
27.2704
 20
0.838425
 11
27.4031
 21
0.811188
  0
LINE
  8
0
 10
27.4031
 20
0.811188
 11
27.5494
 21
0.802124
  0
LINE
  8
0
 10
27.5494
 20
0.802124
 11
27.7528
 21
0.821716
  0
LINE
  8
0
 10
27.6939
 20
1.21448
 11
27.642
 21
1.22427
  0
LINE
  8
0
 10
27.642
 20
1.22427
 11
27.5954
 21
1.2406
  0
LINE
  8
0
 10
27.5954
 20
1.2406
 11
27.5542
 21
1.26347
  0
LINE
  8
0
 10
27.5542
 20
1.26347
 11
27.5205
 21
1.29253
  0
LINE
  8
0
 10
27.5205
 20
1.29253
 11
27.4964
 21
1.32745
  0
LINE
  8
0
 10
27.4964
 20
1.32745
 11
27.4819
 21
1.36824
  0
LINE
  8
0
 10
27.4819
 20
1.36824
 11
27.4771
 21
1.41489
  0
LINE
  8
0
 10
27.4771
 20
1.41489
 11
27.4963
 21
1.502
  0
LINE
  8
0
 10
27.4963
 20
1.502
 11
27.5537
 21
1.5703
  0
LINE
  8
0
 10
27.5537
 20
1.5703
 11
27.6495
 21
1.61977
  0
LINE
  8
0
 10
27.6495
 20
1.61977
 11
27.7835
 21
1.65044
  0
LINE
  8
0
 10
27.7835
 20
1.65044
 11
27.8311
 21
1.65785
  0
LINE
  8
0
 10
27.8311
 20
1.65785
 11
27.8806
 21
1.66592
  0
LINE
  8
0
 10
27.8806
 20
1.66592
 11
27.932
 21
1.67467
  0
LINE
  8
0
 10
27.932
 20
1.67467
 11
27.9853
 21
1.68408
  0
LINE
  8
0
 10
27.9853
 20
1.68408
 11
28.0363
 21
1.69437
  0
LINE
  8
0
 10
28.0363
 20
1.69437
 11
28.0809
 21
1.70578
  0
LINE
  8
0
 10
28.0809
 20
1.70578
 11
28.1191
 21
1.71829
  0
LINE
  8
0
 10
28.1191
 20
1.71829
 11
28.1509
 21
1.73192
  0
LINE
  8
0
 10
28.1509
 20
1.73192
 11
28.1509
 21
1.5424
  0
LINE
  8
0
 10
28.1509
 20
1.5424
 11
28.1436
 21
1.47234
  0
LINE
  8
0
 10
28.1436
 20
1.47234
 11
28.1218
 21
1.40912
  0
LINE
  8
0
 10
28.1218
 20
1.40912
 11
28.0856
 21
1.35278
  0
LINE
  8
0
 10
28.0856
 20
1.35278
 11
28.0348
 21
1.3033
  0
LINE
  8
0
 10
28.0348
 20
1.3033
 11
27.9735
 21
1.263
  0
LINE
  8
0
 10
27.9735
 20
1.263
 11
27.9058
 21
1.23424
  0
LINE
  8
0
 10
27.9058
 20
1.23424
 11
27.8317
 21
1.21696
  0
LINE
  8
0
 10
27.8317
 20
1.21696
 11
27.7512
 21
1.21121
  0
LINE
  8
0
 10
27.7512
 20
1.21121
 11
27.6939
 21
1.21448
  0
LINE
  8
0
 10
11.9562
 20
2.81755
 11
11.2634
 21
2.81755
  0
LINE
  8
0
 10
11.2634
 20
2.81755
 11
10.9513
 21
1.84879
  0
LINE
  8
0
 10
10.9513
 20
1.84879
 11
10.93
 21
1.78143
  0
LINE
  8
0
 10
10.93
 20
1.78143
 11
10.9099
 21
1.71396
  0
LINE
  8
0
 10
10.9099
 20
1.71396
 11
10.891
 21
1.64639
  0
LINE
  8
0
 10
10.891
 20
1.64639
 11
10.8732
 21
1.5787
  0
LINE
  8
0
 10
10.8732
 20
1.5787
 11
10.8564
 21
1.51047
  0
LINE
  8
0
 10
10.8564
 20
1.51047
 11
10.84
 21
1.44122
  0
LINE
  8
0
 10
10.84
 20
1.44122
 11
10.824
 21
1.371
  0
LINE
  8
0
 10
10.824
 20
1.371
 11
10.8086
 21
1.29976
  0
LINE
  8
0
 10
10.8086
 20
1.29976
 11
10.7914
 21
1.37105
  0
LINE
  8
0
 10
10.7914
 20
1.37105
 11
10.774
 21
1.44145
  0
LINE
  8
0
 10
10.774
 20
1.44145
 11
10.7566
 21
1.51096
  0
LINE
  8
0
 10
10.7566
 20
1.51096
 11
10.7391
 21
1.57959
  0
LINE
  8
0
 10
10.7391
 20
1.57959
 11
10.7209
 21
1.64755
  0
LINE
  8
0
 10
10.7209
 20
1.64755
 11
10.7017
 21
1.71507
  0
LINE
  8
0
 10
10.7017
 20
1.71507
 11
10.6815
 21
1.78215
  0
LINE
  8
0
 10
10.6815
 20
1.78215
 11
10.6601
 21
1.84879
  0
LINE
  8
0
 10
10.6601
 20
1.84879
 11
10.3423
 21
2.81755
  0
LINE
  8
0
 10
10.3423
 20
2.81755
 11
9.64186
 21
2.81755
  0
LINE
  8
0
 10
9.64186
 20
2.81755
 11
10.4127
 21
0.837524
  0
LINE
  8
0
 10
10.4127
 20
0.837524
 11
11.1816
 21
0.837524
  0
LINE
  8
0
 10
11.1816
 20
0.837524
 11
11.9562
 21
2.81755
  0
LINE
  8
0
 10
22.5619
 20
2.14456
 11
21.2543
 21
2.14456
  0
LINE
  8
0
 10
21.2543
 20
2.14456
 11
21.2543
 21
1.66815
  0
LINE
  8
0
 10
21.2543
 20
1.66815
 11
22.5619
 21
1.66815
  0
LINE
  8
0
 10
22.5619
 20
1.66815
 11
22.5619
 21
2.14456
  0
LINE
  8
0
 10
17.8914
 20
0.806259
 11
17.9584
 21
0.824036
  0
LINE
  8
0
 10
17.9584
 20
0.824036
 11
18.0194
 21
0.853638
  0
LINE
  8
0
 10
18.0194
 20
0.853638
 11
18.0743
 21
0.895081
  0
LINE
  8
0
 10
18.0743
 20
0.895081
 11
18.1196
 21
0.945282
  0
LINE
  8
0
 10
18.1196
 20
0.945282
 11
18.1521
 21
1.00113
  0
LINE
  8
0
 10
18.1521
 20
1.00113
 11
18.1715
 21
1.06262
  0
LINE
  8
0
 10
18.1715
 20
1.06262
 11
18.178
 21
1.12976
  0
LINE
  8
0
 10
18.178
 20
1.12976
 11
18.1715
 21
1.19766
  0
LINE
  8
0
 10
18.1715
 20
1.19766
 11
18.1521
 21
1.2597
  0
LINE
  8
0
 10
18.1521
 20
1.2597
 11
18.1196
 21
1.31587
  0
LINE
  8
0
 10
18.1196
 20
1.31587
 11
18.0743
 21
1.36618
  0
LINE
  8
0
 10
18.0743
 20
1.36618
 11
18.0194
 21
1.40764
  0
LINE
  8
0
 10
18.0194
 20
1.40764
 11
17.9584
 21
1.43726
  0
LINE
  8
0
 10
17.9584
 20
1.43726
 11
17.8914
 21
1.45502
  0
LINE
  8
0
 10
17.8914
 20
1.45502
 11
17.8183
 21
1.46095
  0
LINE
  8
0
 10
17.8183
 20
1.46095
 11
17.7452
 21
1.45502
  0
LINE
  8
0
 10
17.7452
 20
1.45502
 11
17.6782
 21
1.43726
  0
LINE
  8
0
 10
17.6782
 20
1.43726
 11
17.6172
 21
1.40764
  0
LINE
  8
0
 10
17.6172
 20
1.40764
 11
17.5623
 21
1.36618
  0
LINE
  8
0
 10
17.5623
 20
1.36618
 11
17.5169
 21
1.31587
  0
LINE
  8
0
 10
17.5169
 20
1.31587
 11
17.4845
 21
1.2597
  0
LINE
  8
0
 10
17.4845
 20
1.2597
 11
17.4651
 21
1.19766
  0
LINE
  8
0
 10
17.4651
 20
1.19766
 11
17.4586
 21
1.12976
  0
LINE
  8
0
 10
17.4586
 20
1.12976
 11
17.4651
 21
1.06262
  0
LINE
  8
0
 10
17.4651
 20
1.06262
 11
17.4845
 21
1.00113
  0
LINE
  8
0
 10
17.4845
 20
1.00113
 11
17.5169
 21
0.945282
  0
LINE
  8
0
 10
17.5169
 20
0.945282
 11
17.5623
 21
0.895081
  0
LINE
  8
0
 10
17.5623
 20
0.895081
 11
17.6172
 21
0.853638
  0
LINE
  8
0
 10
17.6172
 20
0.853638
 11
17.6782
 21
0.824036
  0
LINE
  8
0
 10
17.6782
 20
0.824036
 11
17.7452
 21
0.806259
  0
LINE
  8
0
 10
17.7452
 20
0.806259
 11
17.8183
 21
0.800339
  0
LINE
  8
0
 10
17.8183
 20
0.800339
 11
17.8914
 21
0.806259
  0
LINE
  8
0
 10
32.5895
 20
0.806259
 11
32.6566
 21
0.824036
  0
LINE
  8
0
 10
32.6566
 20
0.824036
 11
32.7175
 21
0.853638
  0
LINE
  8
0
 10
32.7175
 20
0.853638
 11
32.7724
 21
0.895081
  0
LINE
  8
0
 10
32.7724
 20
0.895081
 11
32.8178
 21
0.945282
  0
LINE
  8
0
 10
32.8178
 20
0.945282
 11
32.8502
 21
1.00113
  0
LINE
  8
0
 10
32.8502
 20
1.00113
 11
32.8697
 21
1.06262
  0
LINE
  8
0
 10
32.8697
 20
1.06262
 11
32.8762
 21
1.12976
  0
LINE
  8
0
 10
32.8762
 20
1.12976
 11
32.8697
 21
1.19766
  0
LINE
  8
0
 10
32.8697
 20
1.19766
 11
32.8502
 21
1.2597
  0
LINE
  8
0
 10
32.8502
 20
1.2597
 11
32.8178
 21
1.31587
  0
LINE
  8
0
 10
32.8178
 20
1.31587
 11
32.7724
 21
1.36618
  0
LINE
  8
0
 10
32.7724
 20
1.36618
 11
32.7175
 21
1.40764
  0
LINE
  8
0
 10
32.7175
 20
1.40764
 11
32.6566
 21
1.43726
  0
LINE
  8
0
 10
32.6566
 20
1.43726
 11
32.5895
 21
1.45502
  0
LINE
  8
0
 10
32.5895
 20
1.45502
 11
32.5164
 21
1.46095
  0
LINE
  8
0
 10
32.5164
 20
1.46095
 11
32.4434
 21
1.45502
  0
LINE
  8
0
 10
32.4434
 20
1.45502
 11
32.3763
 21
1.43726
  0
LINE
  8
0
 10
32.3763
 20
1.43726
 11
32.3154
 21
1.40764
  0
LINE
  8
0
 10
32.3154
 20
1.40764
 11
32.2605
 21
1.36618
  0
LINE
  8
0
 10
32.2605
 20
1.36618
 11
32.2151
 21
1.31587
  0
LINE
  8
0
 10
32.2151
 20
1.31587
 11
32.1827
 21
1.2597
  0
LINE
  8
0
 10
32.1827
 20
1.2597
 11
32.1632
 21
1.19766
  0
LINE
  8
0
 10
32.1632
 20
1.19766
 11
32.1568
 21
1.12976
  0
LINE
  8
0
 10
32.1568
 20
1.12976
 11
32.1632
 21
1.06262
  0
LINE
  8
0
 10
32.1632
 20
1.06262
 11
32.1827
 21
1.00113
  0
LINE
  8
0
 10
32.1827
 20
1.00113
 11
32.2151
 21
0.945282
  0
LINE
  8
0
 10
32.2151
 20
0.945282
 11
32.2605
 21
0.895081
  0
LINE
  8
0
 10
32.2605
 20
0.895081
 11
32.3154
 21
0.853638
  0
LINE
  8
0
 10
32.3154
 20
0.853638
 11
32.3763
 21
0.824036
  0
LINE
  8
0
 10
32.3763
 20
0.824036
 11
32.4434
 21
0.806259
  0
LINE
  8
0
 10
32.4434
 20
0.806259
 11
32.5164
 21
0.800339
  0
LINE
  8
0
 10
32.5164
 20
0.800339
 11
32.5895
 21
0.806259
  0
LINE
  8
0
 10
15.2187
 20
0.806259
 11
15.2857
 21
0.824036
  0
LINE
  8
0
 10
15.2857
 20
0.824036
 11
15.3466
 21
0.853638
  0
LINE
  8
0
 10
15.3466
 20
0.853638
 11
15.4016
 21
0.895081
  0
LINE
  8
0
 10
15.4016
 20
0.895081
 11
15.4469
 21
0.945282
  0
LINE
  8
0
 10
15.4469
 20
0.945282
 11
15.4793
 21
1.00113
  0
LINE
  8
0
 10
15.4793
 20
1.00113
 11
15.4988
 21
1.06262
  0
LINE
  8
0
 10
15.4988
 20
1.06262
 11
15.5053
 21
1.12976
  0
LINE
  8
0
 10
15.5053
 20
1.12976
 11
15.4988
 21
1.19766
  0
LINE
  8
0
 10
15.4988
 20
1.19766
 11
15.4793
 21
1.2597
  0
LINE
  8
0
 10
15.4793
 20
1.2597
 11
15.4469
 21
1.31587
  0
LINE
  8
0
 10
15.4469
 20
1.31587
 11
15.4016
 21
1.36618
  0
LINE
  8
0
 10
15.4016
 20
1.36618
 11
15.3466
 21
1.40764
  0
LINE
  8
0
 10
15.3466
 20
1.40764
 11
15.2857
 21
1.43726
  0
LINE
  8
0
 10
15.2857
 20
1.43726
 11
15.2187
 21
1.45502
  0
LINE
  8
0
 10
15.2187
 20
1.45502
 11
15.1456
 21
1.46095
  0
LINE
  8
0
 10
15.1456
 20
1.46095
 11
15.0725
 21
1.45502
  0
LINE
  8
0
 10
15.0725
 20
1.45502
 11
15.0054
 21
1.43726
  0
LINE
  8
0
 10
15.0054
 20
1.43726
 11
14.9445
 21
1.40764
  0
LINE
  8
0
 10
14.9445
 20
1.40764
 11
14.8896
 21
1.36618
  0
LINE
  8
0
 10
14.8896
 20
1.36618
 11
14.8442
 21
1.31587
  0
LINE
  8
0
 10
14.8442
 20
1.31587
 11
14.8118
 21
1.2597
  0
LINE
  8
0
 10
14.8118
 20
1.2597
 11
14.7924
 21
1.19766
  0
LINE
  8
0
 10
14.7924
 20
1.19766
 11
14.7859
 21
1.12976
  0
LINE
  8
0
 10
14.7859
 20
1.12976
 11
14.7924
 21
1.06262
  0
LINE
  8
0
 10
14.7924
 20
1.06262
 11
14.8118
 21
1.00113
  0
LINE
  8
0
 10
14.8118
 20
1.00113
 11
14.8442
 21
0.945282
  0
LINE
  8
0
 10
14.8442
 20
0.945282
 11
14.8896
 21
0.895081
  0
LINE
  8
0
 10
14.8896
 20
0.895081
 11
14.9445
 21
0.853638
  0
LINE
  8
0
 10
14.9445
 20
0.853638
 11
15.0054
 21
0.824036
  0
LINE
  8
0
 10
15.0054
 20
0.824036
 11
15.0725
 21
0.806259
  0
LINE
  8
0
 10
15.0725
 20
0.806259
 11
15.1456
 21
0.800339
  0
LINE
  8
0
 10
15.1456
 20
0.800339
 11
15.2187
 21
0.806259
  0
ENDSEC
  0
SECTION
  2
OBJECTS
  0
DICTIONARY
  0
ENDSEC
  0
EOF
