  0
SECTION
  2
BLOCKS
  0
ENDSEC
  0
SECTION
  2
ENTITIES
  0
LINE
  8
0
 10
5.08235
 20
3.81175
 11
5.08235
 21
8.65881
  0
LINE
  8
0
 10
5.08235
 20
8.65881
 11
9.45882
 21
11.4823
  0
LINE
  8
0
 10
9.45882
 20
11.4823
 11
9.40869
 21
11.5307
  0
LINE
  8
0
 10
9.40869
 20
11.5307
 11
9.35716
 21
11.5769
  0
LINE
  8
0
 10
9.35716
 20
11.5769
 11
9.30423
 21
11.6209
  0
LINE
  8
0
 10
9.30423
 20
11.6209
 11
9.24988
 21
11.6627
  0
LINE
  8
0
 10
9.24988
 20
11.6627
 11
9.19411
 21
11.7022
  0
LINE
  8
0
 10
9.19411
 20
11.7022
 11
9.13693
 21
11.7394
  0
LINE
  8
0
 10
9.13693
 20
11.7394
 11
9.07834
 21
11.7743
  0
LINE
  8
0
 10
9.07834
 20
11.7743
 11
9.01834
 21
11.8069
  0
LINE
  8
0
 10
9.01834
 20
11.8069
 11
8.95694
 21
11.837
  0
LINE
  8
0
 10
8.95694
 20
11.837
 11
8.8941
 21
11.8647
  0
LINE
  8
0
 10
8.8941
 20
11.8647
 11
8.82988
 21
11.8899
  0
LINE
  8
0
 10
8.82988
 20
11.8899
 11
8.76422
 21
11.9127
  0
LINE
  8
0
 10
8.76422
 20
11.9127
 11
8.69717
 21
11.9328
  0
LINE
  8
0
 10
8.69717
 20
11.9328
 11
8.62869
 21
11.9504
  0
LINE
  8
0
 10
8.62869
 20
11.9504
 11
8.55882
 21
11.9654
  0
LINE
  8
0
 10
8.55882
 20
11.9654
 11
8.48752
 21
11.9778
  0
LINE
  8
0
 10
8.48752
 20
11.9778
 11
8.41481
 21
11.9874
  0
LINE
  8
0
 10
8.41481
 20
11.9874
 11
8.3407
 21
11.9944
  0
LINE
  8
0
 10
8.3407
 20
11.9944
 11
8.26517
 21
11.9986
  0
LINE
  8
0
 10
8.26517
 20
11.9986
 11
8.18823
 21
12
  0
LINE
  8
0
 10
8.18823
 20
12
 11
3.67058
 21
12
  0
LINE
  8
0
 10
3.67058
 20
12
 11
3.43317
 21
11.9906
  0
LINE
  8
0
 10
3.43317
 20
11.9906
 11
3.2014
 21
11.9628
  0
LINE
  8
0
 10
3.2014
 20
11.9628
 11
2.976
 21
11.9173
  0
LINE
  8
0
 10
2.976
 20
11.9173
 11
2.75764
 21
11.8547
  0
LINE
  8
0
 10
2.75764
 20
11.8547
 11
2.54706
 21
11.7757
  0
LINE
  8
0
 10
2.54706
 20
11.7757
 11
2.34494
 21
11.6811
  0
LINE
  8
0
 10
2.34494
 20
11.6811
 11
2.15199
 21
11.5714
  0
LINE
  8
0
 10
2.15199
 20
11.5714
 11
1.96893
 21
11.4473
  0
LINE
  8
0
 10
1.96893
 20
11.4473
 11
1.79646
 21
11.3096
  0
LINE
  8
0
 10
1.79646
 20
11.3096
 11
1.63528
 21
11.1588
  0
LINE
  8
0
 10
1.63528
 20
11.1588
 11
1.48611
 21
10.9957
  0
LINE
  8
0
 10
1.48611
 20
10.9957
 11
1.34964
 21
10.8209
  0
LINE
  8
0
 10
1.34964
 20
10.8209
 11
1.22658
 21
10.6351
  0
LINE
  8
0
 10
1.22658
 20
10.6351
 11
1.11765
 21
10.4389
  0
LINE
  8
0
 10
1.11765
 20
10.4389
 11
1.02353
 21
10.2331
  0
LINE
  8
0
 10
1.02353
 20
10.2331
 11
0.944931
 21
10.0182
  0
LINE
  8
0
 10
0.944931
 20
10.0182
 11
0.882584
 21
9.79509
  0
LINE
  8
0
 10
0.882584
 20
9.79509
 11
0.837173
 21
9.56427
  0
LINE
  8
0
 10
0.837173
 20
9.56427
 11
0.809402
 21
9.32646
  0
LINE
  8
0
 10
0.809402
 20
9.32646
 11
0.799988
 21
9.08235
  0
LINE
  8
0
 10
0.799988
 20
9.08235
 11
0.799988
 21
3.05882
  0
LINE
  8
0
 10
0.799988
 20
3.05882
 11
0.800705
 21
2.97447
  0
LINE
  8
0
 10
0.800705
 20
2.97447
 11
0.802917
 21
2.89091
  0
LINE
  8
0
 10
0.802917
 20
2.89091
 11
0.806656
 21
2.8082
  0
LINE
  8
0
 10
0.806656
 20
2.8082
 11
0.812042
 21
2.72639
  0
LINE
  8
0
 10
0.812042
 20
2.72639
 11
0.819107
 21
2.64558
  0
LINE
  8
0
 10
0.819107
 20
2.64558
 11
0.827942
 21
2.56583
  0
LINE
  8
0
 10
0.827942
 20
2.56583
 11
0.838623
 21
2.4872
  0
LINE
  8
0
 10
0.838623
 20
2.4872
 11
0.851196
 21
2.40977
  0
LINE
  8
0
 10
0.851196
 20
2.40977
 11
0.865738
 21
2.33363
  0
LINE
  8
0
 10
0.865738
 20
2.33363
 11
0.882339
 21
2.25882
  0
LINE
  8
0
 10
0.882339
 20
2.25882
 11
0.901062
 21
2.18541
  0
LINE
  8
0
 10
0.901062
 20
2.18541
 11
0.921967
 21
2.11349
  0
LINE
  8
0
 10
0.921967
 20
2.11349
 11
0.945129
 21
2.04314
  0
LINE
  8
0
 10
0.945129
 20
2.04314
 11
0.970627
 21
1.9744
  0
LINE
  8
0
 10
0.970627
 20
1.9744
 11
0.99852
 21
1.90735
  0
LINE
  8
0
 10
0.99852
 20
1.90735
 11
1.02888
 21
1.84206
  0
LINE
  8
0
 10
1.02888
 20
1.84206
 11
1.0618
 21
1.77861
  0
LINE
  8
0
 10
1.0618
 20
1.77861
 11
1.09731
 21
1.71707
  0
LINE
  8
0
 10
1.09731
 20
1.71707
 11
1.13551
 21
1.65752
  0
LINE
  8
0
 10
1.13551
 20
1.65752
 11
1.17647
 21
1.59999
  0
LINE
  8
0
 10
1.17647
 20
1.59999
 11
5.08235
 21
3.81175
  0
LINE
  8
0
 10
25.1934
 20
10.8884
 11
25.287
 21
10.9135
  0
LINE
  8
0
 10
25.287
 20
10.9135
 11
25.3729
 21
10.9555
  0
LINE
  8
0
 10
25.3729
 20
10.9555
 11
25.451
 21
11.0142
  0
LINE
  8
0
 10
25.451
 20
11.0142
 11
25.5161
 21
11.0849
  0
LINE
  8
0
 10
25.5161
 20
11.0849
 11
25.5625
 21
11.1628
  0
LINE
  8
0
 10
25.5625
 20
11.1628
 11
25.5904
 21
11.248
  0
LINE
  8
0
 10
25.5904
 20
11.248
 11
25.5997
 21
11.3403
  0
LINE
  8
0
 10
25.5997
 20
11.3403
 11
25.5904
 21
11.4326
  0
LINE
  8
0
 10
25.5904
 20
11.4326
 11
25.5625
 21
11.5177
  0
LINE
  8
0
 10
25.5625
 20
11.5177
 11
25.5161
 21
11.5956
  0
LINE
  8
0
 10
25.5161
 20
11.5956
 11
25.451
 21
11.6663
  0
LINE
  8
0
 10
25.451
 20
11.6663
 11
25.3729
 21
11.725
  0
LINE
  8
0
 10
25.3729
 20
11.725
 11
25.287
 21
11.767
  0
LINE
  8
0
 10
25.287
 20
11.767
 11
25.1934
 21
11.7921
  0
LINE
  8
0
 10
25.1934
 20
11.7921
 11
25.0921
 21
11.8005
  0
LINE
  8
0
 10
25.0921
 20
11.8005
 11
24.992
 21
11.7921
  0
LINE
  8
0
 10
24.992
 20
11.7921
 11
24.8992
 21
11.767
  0
LINE
  8
0
 10
24.8992
 20
11.767
 11
24.8138
 21
11.725
  0
LINE
  8
0
 10
24.8138
 20
11.725
 11
24.7358
 21
11.6663
  0
LINE
  8
0
 10
24.7358
 20
11.6663
 11
24.6708
 21
11.5956
  0
LINE
  8
0
 10
24.6708
 20
11.5956
 11
24.6244
 21
11.5177
  0
LINE
  8
0
 10
24.6244
 20
11.5177
 11
24.5965
 21
11.4326
  0
LINE
  8
0
 10
24.5965
 20
11.4326
 11
24.5872
 21
11.3403
  0
LINE
  8
0
 10
24.5872
 20
11.3403
 11
24.5965
 21
11.248
  0
LINE
  8
0
 10
24.5965
 20
11.248
 11
24.6244
 21
11.1628
  0
LINE
  8
0
 10
24.6244
 20
11.1628
 11
24.6708
 21
11.0849
  0
LINE
  8
0
 10
24.6708
 20
11.0849
 11
24.7358
 21
11.0142
  0
LINE
  8
0
 10
24.7358
 20
11.0142
 11
24.8138
 21
10.9555
  0
LINE
  8
0
 10
24.8138
 20
10.9555
 11
24.8992
 21
10.9135
  0
LINE
  8
0
 10
24.8992
 20
10.9135
 11
24.992
 21
10.8884
  0
LINE
  8
0
 10
24.992
 20
10.8884
 11
25.0921
 21
10.88
  0
LINE
  8
0
 10
25.0921
 20
10.88
 11
25.1934
 21
10.8884
  0
LINE
  8
0
 10
36.0913
 20
7.42459
 11
36.2437
 21
7.45567
  0
LINE
  8
0
 10
36.2437
 20
7.45567
 11
36.3781
 21
7.50746
  0
LINE
  8
0
 10
36.3781
 20
7.50746
 11
36.4944
 21
7.57999
  0
LINE
  8
0
 10
36.4944
 20
7.57999
 11
36.594
 21
7.66551
  0
LINE
  8
0
 10
36.594
 20
7.66551
 11
36.6784
 21
7.75635
  0
LINE
  8
0
 10
36.6784
 20
7.75635
 11
36.7476
 21
7.85251
  0
LINE
  8
0
 10
36.7476
 20
7.85251
 11
36.8015
 21
7.95396
  0
LINE
  8
0
 10
36.8015
 20
7.95396
 11
36.8352
 21
7.95396
  0
LINE
  8
0
 10
36.8352
 20
7.95396
 11
36.8352
 21
7.45805
  0
LINE
  8
0
 10
36.8352
 20
7.45805
 11
37.8
 21
7.45805
  0
LINE
  8
0
 10
37.8
 20
7.45805
 11
37.8
 21
11.5402
  0
LINE
  8
0
 10
37.8
 20
11.5402
 11
36.8239
 21
11.5402
  0
LINE
  8
0
 10
36.8239
 20
11.5402
 11
36.8239
 21
9.99503
  0
LINE
  8
0
 10
36.8239
 20
9.99503
 11
36.8015
 21
9.99503
  0
LINE
  8
0
 10
36.8015
 20
9.99503
 11
36.7686
 21
10.0631
  0
LINE
  8
0
 10
36.7686
 20
10.0631
 11
36.7289
 21
10.1303
  0
LINE
  8
0
 10
36.7289
 20
10.1303
 11
36.6824
 21
10.1967
  0
LINE
  8
0
 10
36.6824
 20
10.1967
 11
36.629
 21
10.2621
  0
LINE
  8
0
 10
36.629
 20
10.2621
 11
36.5683
 21
10.3243
  0
LINE
  8
0
 10
36.5683
 20
10.3243
 11
36.4996
 21
10.3807
  0
LINE
  8
0
 10
36.4996
 20
10.3807
 11
36.4231
 21
10.4312
  0
LINE
  8
0
 10
36.4231
 20
10.4312
 11
36.3387
 21
10.4759
  0
LINE
  8
0
 10
36.3387
 20
10.4759
 11
36.2458
 21
10.5124
  0
LINE
  8
0
 10
36.2458
 20
10.5124
 11
36.1438
 21
10.5385
  0
LINE
  8
0
 10
36.1438
 20
10.5385
 11
36.0326
 21
10.5542
  0
LINE
  8
0
 10
36.0326
 20
10.5542
 11
35.9124
 21
10.5594
  0
LINE
  8
0
 10
35.9124
 20
10.5594
 11
35.751
 21
10.5488
  0
LINE
  8
0
 10
35.751
 20
10.5488
 11
35.5951
 21
10.517
  0
LINE
  8
0
 10
35.5951
 20
10.517
 11
35.4446
 21
10.4639
  0
LINE
  8
0
 10
35.4446
 20
10.4639
 11
35.2996
 21
10.3896
  0
LINE
  8
0
 10
35.2996
 20
10.3896
 11
35.164
 21
10.2935
  0
LINE
  8
0
 10
35.164
 20
10.2935
 11
35.0422
 21
10.1752
  0
LINE
  8
0
 10
35.0422
 20
10.1752
 11
34.9341
 21
10.0346
  0
LINE
  8
0
 10
34.9341
 20
10.0346
 11
34.8396
 21
9.87173
  0
LINE
  8
0
 10
34.8396
 20
9.87173
 11
34.7629
 21
9.68596
  0
LINE
  8
0
 10
34.7629
 20
9.68596
 11
34.7081
 21
9.47655
  0
LINE
  8
0
 10
34.7081
 20
9.47655
 11
34.6752
 21
9.24352
  0
LINE
  8
0
 10
34.6752
 20
9.24352
 11
34.6643
 21
8.98683
  0
LINE
  8
0
 10
34.6643
 20
8.98683
 11
34.6748
 21
8.73727
  0
LINE
  8
0
 10
34.6748
 20
8.73727
 11
34.7064
 21
8.50909
  0
LINE
  8
0
 10
34.7064
 20
8.50909
 11
34.759
 21
8.30234
  0
LINE
  8
0
 10
34.759
 20
8.30234
 11
34.8326
 21
8.11697
  0
LINE
  8
0
 10
34.8326
 20
8.11697
 11
34.9241
 21
7.95309
  0
LINE
  8
0
 10
34.9241
 20
7.95309
 11
35.0303
 21
7.81079
  0
LINE
  8
0
 10
35.0303
 20
7.81079
 11
35.1513
 21
7.69008
  0
LINE
  8
0
 10
35.1513
 20
7.69008
 11
35.2869
 21
7.59093
  0
LINE
  8
0
 10
35.2869
 20
7.59093
 11
35.4338
 21
7.51363
  0
LINE
  8
0
 10
35.4338
 20
7.51363
 11
35.5884
 21
7.4584
  0
LINE
  8
0
 10
35.5884
 20
7.4584
 11
35.7508
 21
7.42528
  0
LINE
  8
0
 10
35.7508
 20
7.42528
 11
35.9208
 21
7.41423
  0
LINE
  8
0
 10
35.9208
 20
7.41423
 11
36.0913
 21
7.42459
  0
LINE
  8
0
 10
36.1213
 20
8.17365
 11
36.0046
 21
8.21628
  0
LINE
  8
0
 10
36.0046
 20
8.21628
 11
35.9046
 21
8.28734
  0
LINE
  8
0
 10
35.9046
 20
8.28734
 11
35.8212
 21
8.38684
  0
LINE
  8
0
 10
35.8212
 20
8.38684
 11
35.7556
 21
8.50961
  0
LINE
  8
0
 10
35.7556
 20
8.50961
 11
35.7087
 21
8.65053
  0
LINE
  8
0
 10
35.7087
 20
8.65053
 11
35.6806
 21
8.80962
  0
LINE
  8
0
 10
35.6806
 20
8.80962
 11
35.6712
 21
8.98683
  0
LINE
  8
0
 10
35.6712
 20
8.98683
 11
35.6806
 21
9.16397
  0
LINE
  8
0
 10
35.6806
 20
9.16397
 11
35.7087
 21
9.32278
  0
LINE
  8
0
 10
35.7087
 20
9.32278
 11
35.7556
 21
9.46329
  0
LINE
  8
0
 10
35.7556
 20
9.46329
 11
35.8212
 21
9.58546
  0
LINE
  8
0
 10
35.8212
 20
9.58546
 11
35.9046
 21
9.68436
  0
LINE
  8
0
 10
35.9046
 20
9.68436
 11
36.0046
 21
9.75499
  0
LINE
  8
0
 10
36.0046
 20
9.75499
 11
36.1213
 21
9.79738
  0
LINE
  8
0
 10
36.1213
 20
9.79738
 11
36.2546
 21
9.81149
  0
LINE
  8
0
 10
36.2546
 20
9.81149
 11
36.387
 21
9.79762
  0
LINE
  8
0
 10
36.387
 20
9.79762
 11
36.5039
 21
9.75601
  0
LINE
  8
0
 10
36.5039
 20
9.75601
 11
36.6051
 21
9.68665
  0
LINE
  8
0
 10
36.6051
 20
9.68665
 11
36.6907
 21
9.58955
  0
LINE
  8
0
 10
36.6907
 20
9.58955
 11
36.7588
 21
9.46866
  0
LINE
  8
0
 10
36.7588
 20
9.46866
 11
36.8074
 21
9.32791
  0
LINE
  8
0
 10
36.8074
 20
9.32791
 11
36.8366
 21
9.16731
  0
LINE
  8
0
 10
36.8366
 20
9.16731
 11
36.8464
 21
8.98683
  0
LINE
  8
0
 10
36.8464
 20
8.98683
 11
36.8365
 21
8.8085
  0
LINE
  8
0
 10
36.8365
 20
8.8085
 11
36.8071
 21
8.64882
  0
LINE
  8
0
 10
36.8071
 20
8.64882
 11
36.758
 21
8.5078
  0
LINE
  8
0
 10
36.758
 20
8.5078
 11
36.6893
 21
8.38545
  0
LINE
  8
0
 10
36.6893
 20
8.38545
 11
36.6032
 21
8.28658
  0
LINE
  8
0
 10
36.6032
 20
8.28658
 11
36.5021
 21
8.21593
  0
LINE
  8
0
 10
36.5021
 20
8.21593
 11
36.3859
 21
8.17355
  0
LINE
  8
0
 10
36.3859
 20
8.17355
 11
36.2546
 21
8.15942
  0
LINE
  8
0
 10
36.2546
 20
8.15942
 11
36.1213
 21
8.17365
  0
LINE
  8
0
 10
27.1884
 20
9.21695
 11
27.1879
 21
9.29939
  0
LINE
  8
0
 10
27.1879
 20
9.29939
 11
27.1866
 21
9.39331
  0
LINE
  8
0
 10
27.1866
 20
9.39331
 11
27.1844
 21
9.4987
  0
LINE
  8
0
 10
27.1844
 20
9.4987
 11
27.1813
 21
9.61555
  0
LINE
  8
0
 10
27.1813
 20
9.61555
 11
27.174
 21
9.87071
  0
LINE
  8
0
 10
27.174
 20
9.87071
 11
27.17
 21
10.0057
  0
LINE
  8
0
 10
27.17
 20
10.0057
 11
27.1659
 21
10.1457
  0
LINE
  8
0
 10
27.1659
 20
10.1457
 11
27.1619
 21
10.2872
  0
LINE
  8
0
 10
27.1619
 20
10.2872
 11
27.1582
 21
10.4265
  0
LINE
  8
0
 10
27.1582
 20
10.4265
 11
27.1549
 21
10.5639
  0
LINE
  8
0
 10
27.1549
 20
10.5639
 11
27.1519
 21
10.6991
  0
LINE
  8
0
 10
27.1519
 20
10.6991
 11
27.1874
 21
10.5556
  0
LINE
  8
0
 10
27.1874
 20
10.5556
 11
27.2238
 21
10.4125
  0
LINE
  8
0
 10
27.2238
 20
10.4125
 11
27.261
 21
10.27
  0
LINE
  8
0
 10
27.261
 20
10.27
 11
27.2991
 21
10.1279
  0
LINE
  8
0
 10
27.2991
 20
10.1279
 11
27.3373
 21
9.98898
  0
LINE
  8
0
 10
27.3373
 20
9.98898
 11
27.3745
 21
9.85568
  0
LINE
  8
0
 10
27.3745
 20
9.85568
 11
27.4109
 21
9.72801
  0
LINE
  8
0
 10
27.4109
 20
9.72801
 11
27.4464
 21
9.60599
  0
LINE
  8
0
 10
27.4464
 20
9.60599
 11
27.48
 21
9.49229
  0
LINE
  8
0
 10
27.48
 20
9.49229
 11
27.5109
 21
9.38956
  0
LINE
  8
0
 10
27.5109
 20
9.38956
 11
27.5389
 21
9.29778
  0
LINE
  8
0
 10
27.5389
 20
9.29778
 11
27.5642
 21
9.21695
  0
LINE
  8
0
 10
27.5642
 20
9.21695
 11
28.1672
 21
7.45805
  0
LINE
  8
0
 10
28.1672
 20
7.45805
 11
28.9946
 21
7.45805
  0
LINE
  8
0
 10
28.9946
 20
7.45805
 11
29.5892
 21
9.21695
  0
LINE
  8
0
 10
29.5892
 20
9.21695
 11
29.6157
 21
9.30077
  0
LINE
  8
0
 10
29.6157
 20
9.30077
 11
29.6446
 21
9.39607
  0
LINE
  8
0
 10
29.6446
 20
9.39607
 11
29.676
 21
9.50282
  0
LINE
  8
0
 10
29.676
 20
9.50282
 11
29.7098
 21
9.62106
  0
LINE
  8
0
 10
29.7098
 20
9.62106
 11
29.7453
 21
9.74786
  0
LINE
  8
0
 10
29.7453
 20
9.74786
 11
29.7817
 21
9.88031
  0
LINE
  8
0
 10
29.7817
 20
9.88031
 11
29.8189
 21
10.0184
  0
LINE
  8
0
 10
29.8189
 20
10.0184
 11
29.8571
 21
10.1622
  0
LINE
  8
0
 10
29.8571
 20
10.1622
 11
29.8952
 21
10.3086
  0
LINE
  8
0
 10
29.8952
 20
10.3086
 11
29.9324
 21
10.4546
  0
LINE
  8
0
 10
29.9324
 20
10.4546
 11
29.9688
 21
10.6004
  0
LINE
  8
0
 10
29.9688
 20
10.6004
 11
30.0043
 21
10.7457
  0
LINE
  8
0
 10
30.0043
 20
10.7457
 11
30.0013
 21
10.6074
  0
LINE
  8
0
 10
30.0013
 20
10.6074
 11
29.998
 21
10.4663
  0
LINE
  8
0
 10
29.998
 20
10.4663
 11
29.9943
 21
10.3224
  0
LINE
  8
0
 10
29.9943
 20
10.3224
 11
29.9903
 21
10.1759
  0
LINE
  8
0
 10
29.9903
 20
10.1759
 11
29.9785
 21
9.75592
  0
LINE
  8
0
 10
29.9785
 20
9.75592
 11
29.9749
 21
9.62656
  0
LINE
  8
0
 10
29.9749
 20
9.62656
 11
29.9718
 21
9.50592
  0
LINE
  8
0
 10
29.9718
 20
9.50592
 11
29.9696
 21
9.39745
  0
LINE
  8
0
 10
29.9696
 20
9.39745
 11
29.9683
 21
9.30112
  0
LINE
  8
0
 10
29.9683
 20
9.30112
 11
29.9678
 21
9.21695
  0
LINE
  8
0
 10
29.9678
 20
9.21695
 11
29.9678
 21
7.45805
  0
LINE
  8
0
 10
29.9678
 20
7.45805
 11
30.9635
 21
7.45805
  0
LINE
  8
0
 10
30.9635
 20
7.45805
 11
30.9635
 21
11.5402
  0
LINE
  8
0
 10
30.9635
 20
11.5402
 11
29.4181
 21
11.5402
  0
LINE
  8
0
 10
29.4181
 20
11.5402
 11
28.8936
 21
9.9512
  0
LINE
  8
0
 10
28.8936
 20
9.9512
 11
28.8718
 21
9.87595
  0
LINE
  8
0
 10
28.8718
 20
9.87595
 11
28.8484
 21
9.78992
  0
LINE
  8
0
 10
28.8484
 20
9.78992
 11
28.8234
 21
9.69308
  0
LINE
  8
0
 10
28.8234
 20
9.69308
 11
28.7969
 21
9.58546
  0
LINE
  8
0
 10
28.7969
 20
9.58546
 11
28.7695
 21
9.4704
  0
LINE
  8
0
 10
28.7695
 20
9.4704
 11
28.7422
 21
9.35121
  0
LINE
  8
0
 10
28.7422
 20
9.35121
 11
28.7148
 21
9.22792
  0
LINE
  8
0
 10
28.7148
 20
9.22792
 11
28.6875
 21
9.10051
  0
LINE
  8
0
 10
28.6875
 20
9.10051
 11
28.6606
 21
8.97202
  0
LINE
  8
0
 10
28.6606
 20
8.97202
 11
28.6346
 21
8.8454
  0
LINE
  8
0
 10
28.6346
 20
8.8454
 11
28.6094
 21
8.72066
  0
LINE
  8
0
 10
28.6094
 20
8.72066
 11
28.5851
 21
8.59779
  0
LINE
  8
0
 10
28.5851
 20
8.59779
 11
28.5595
 21
8.72075
  0
LINE
  8
0
 10
28.5595
 20
8.72075
 11
28.5332
 21
8.84573
  0
LINE
  8
0
 10
28.5332
 20
8.84573
 11
28.5062
 21
8.97279
  0
LINE
  8
0
 10
28.5062
 20
8.97279
 11
28.4785
 21
9.10188
  0
LINE
  8
0
 10
28.4785
 20
9.10188
 11
28.4505
 21
9.22981
  0
LINE
  8
0
 10
28.4505
 20
9.22981
 11
28.4228
 21
9.35327
  0
LINE
  8
0
 10
28.4228
 20
9.35327
 11
28.3952
 21
9.47227
  0
LINE
  8
0
 10
28.3952
 20
9.47227
 11
28.3677
 21
9.58684
  0
LINE
  8
0
 10
28.3677
 20
9.58684
 11
28.3412
 21
9.69386
  0
LINE
  8
0
 10
28.3412
 20
9.69386
 11
28.3162
 21
9.79025
  0
LINE
  8
0
 10
28.3162
 20
9.79025
 11
28.2928
 21
9.87604
  0
LINE
  8
0
 10
28.2928
 20
9.87604
 11
28.271
 21
9.9512
  0
LINE
  8
0
 10
28.271
 20
9.9512
 11
27.7381
 21
11.5402
  0
LINE
  8
0
 10
27.7381
 20
11.5402
 11
26.1955
 21
11.5402
  0
LINE
  8
0
 10
26.1955
 20
11.5402
 11
26.1955
 21
7.45805
  0
LINE
  8
0
 10
26.1955
 20
7.45805
 11
27.1884
 21
7.45805
  0
LINE
  8
0
 10
27.1884
 20
7.45805
 11
27.1884
 21
9.21695
  0
LINE
  8
0
 10
21.3266
 20
7.41525
 11
21.3985
 21
7.41833
  0
LINE
  8
0
 10
21.3985
 20
7.41833
 11
21.4725
 21
7.42348
  0
LINE
  8
0
 10
21.4725
 20
7.42348
 11
21.5485
 21
7.43068
  0
LINE
  8
0
 10
21.5485
 20
7.43068
 11
21.6264
 21
7.44078
  0
LINE
  8
0
 10
21.6264
 20
7.44078
 11
21.7056
 21
7.45465
  0
LINE
  8
0
 10
21.7056
 20
7.45465
 11
21.7862
 21
7.47229
  0
LINE
  8
0
 10
21.7862
 20
7.47229
 11
21.8683
 21
7.4937
  0
LINE
  8
0
 10
21.8683
 20
7.4937
 11
21.7421
 21
8.18956
  0
LINE
  8
0
 10
21.7421
 20
8.18956
 11
21.7192
 21
8.18521
  0
LINE
  8
0
 10
21.7192
 20
8.18521
 11
21.6898
 21
8.18033
  0
LINE
  8
0
 10
21.6898
 20
8.18033
 11
21.654
 21
8.17493
  0
LINE
  8
0
 10
21.654
 20
8.17493
 11
21.6116
 21
8.16901
  0
LINE
  8
0
 10
21.6116
 20
8.16901
 11
21.5686
 21
8.1636
  0
LINE
  8
0
 10
21.5686
 20
8.1636
 11
21.5307
 21
8.15976
  0
LINE
  8
0
 10
21.5307
 20
8.15976
 11
21.4978
 21
8.15746
  0
LINE
  8
0
 10
21.4978
 20
8.15746
 11
21.47
 21
8.15668
  0
LINE
  8
0
 10
21.47
 20
8.15668
 11
21.3608
 21
8.17157
  0
LINE
  8
0
 10
21.3608
 20
8.17157
 11
21.2828
 21
8.21626
  0
LINE
  8
0
 10
21.2828
 20
8.21626
 11
21.236
 21
8.29076
  0
LINE
  8
0
 10
21.236
 20
8.29076
 11
21.2204
 21
8.39503
  0
LINE
  8
0
 10
21.2204
 20
8.39503
 11
21.2204
 21
9.81149
  0
LINE
  8
0
 10
21.2204
 20
9.81149
 11
21.7841
 21
9.81149
  0
LINE
  8
0
 10
21.7841
 20
9.81149
 11
21.7841
 21
10.5211
  0
LINE
  8
0
 10
21.7841
 20
10.5211
 11
21.2204
 21
10.5211
  0
LINE
  8
0
 10
21.2204
 20
10.5211
 11
21.2204
 21
11.2499
  0
LINE
  8
0
 10
21.2204
 20
11.2499
 11
20.2415
 21
11.2499
  0
LINE
  8
0
 10
20.2415
 20
11.2499
 11
20.2415
 21
10.5211
  0
LINE
  8
0
 10
20.2415
 20
10.5211
 11
19.8264
 21
10.5211
  0
LINE
  8
0
 10
19.8264
 20
10.5211
 11
19.8264
 21
9.81149
  0
LINE
  8
0
 10
19.8264
 20
9.81149
 11
20.2415
 21
9.81149
  0
LINE
  8
0
 10
20.2415
 20
9.81149
 11
20.2415
 21
8.31012
  0
LINE
  8
0
 10
20.2415
 20
8.31012
 11
20.2576
 21
8.10403
  0
LINE
  8
0
 10
20.2576
 20
8.10403
 11
20.306
 21
7.92415
  0
LINE
  8
0
 10
20.306
 20
7.92415
 11
20.3867
 21
7.77046
  0
LINE
  8
0
 10
20.3867
 20
7.77046
 11
20.4995
 21
7.64297
  0
LINE
  8
0
 10
20.4995
 20
7.64297
 11
20.6437
 21
7.54289
  0
LINE
  8
0
 10
20.6437
 20
7.54289
 11
20.8179
 21
7.47142
  0
LINE
  8
0
 10
20.8179
 20
7.47142
 11
21.0223
 21
7.42853
  0
LINE
  8
0
 10
21.0223
 20
7.42853
 11
21.2568
 21
7.41423
  0
LINE
  8
0
 10
21.2568
 20
7.41423
 11
21.3266
 21
7.41525
  0
LINE
  8
0
 10
51.4994
 20
9.27722
 11
51.5073
 21
9.39093
  0
LINE
  8
0
 10
51.5073
 20
9.39093
 11
51.5313
 21
9.49092
  0
LINE
  8
0
 10
51.5313
 20
9.49092
 11
51.5711
 21
9.57722
  0
LINE
  8
0
 10
51.5711
 20
9.57722
 11
51.627
 21
9.64983
  0
LINE
  8
0
 10
51.627
 20
9.64983
 11
51.6952
 21
9.70737
  0
LINE
  8
0
 10
51.6952
 20
9.70737
 11
51.7725
 21
9.74847
  0
LINE
  8
0
 10
51.7725
 20
9.74847
 11
51.8586
 21
9.77315
  0
LINE
  8
0
 10
51.8586
 20
9.77315
 11
51.9537
 21
9.78136
  0
LINE
  8
0
 10
51.9537
 20
9.78136
 11
52.046
 21
9.77356
  0
LINE
  8
0
 10
52.046
 20
9.77356
 11
52.1294
 21
9.75018
  0
LINE
  8
0
 10
52.1294
 20
9.75018
 11
52.2038
 21
9.71123
  0
LINE
  8
0
 10
52.2038
 20
9.71123
 11
52.2693
 21
9.65669
  0
LINE
  8
0
 10
52.2693
 20
9.65669
 11
52.3226
 21
9.58896
  0
LINE
  8
0
 10
52.3226
 20
9.58896
 11
52.3608
 21
9.51045
  0
LINE
  8
0
 10
52.3608
 20
9.51045
 11
52.3837
 21
9.42114
  0
LINE
  8
0
 10
52.3837
 20
9.42114
 11
52.3913
 21
9.32106
  0
LINE
  8
0
 10
52.3913
 20
9.32106
 11
52.3913
 21
7.45805
  0
LINE
  8
0
 10
52.3913
 20
7.45805
 11
53.3308
 21
7.45805
  0
LINE
  8
0
 10
53.3308
 20
7.45805
 11
53.3308
 21
9.29642
  0
LINE
  8
0
 10
53.3308
 20
9.29642
 11
53.3384
 21
9.4006
  0
LINE
  8
0
 10
53.3384
 20
9.4006
 11
53.361
 21
9.494
  0
LINE
  8
0
 10
53.361
 20
9.494
 11
53.3987
 21
9.57661
  0
LINE
  8
0
 10
53.3987
 20
9.57661
 11
53.4514
 21
9.64845
  0
LINE
  8
0
 10
53.4514
 20
9.64845
 11
53.5172
 21
9.70659
  0
LINE
  8
0
 10
53.5172
 20
9.70659
 11
53.5938
 21
9.74814
  0
LINE
  8
0
 10
53.5938
 20
9.74814
 11
53.6813
 21
9.77306
  0
LINE
  8
0
 10
53.6813
 20
9.77306
 11
53.7796
 21
9.78136
  0
LINE
  8
0
 10
53.7796
 20
9.78136
 11
53.8721
 21
9.77382
  0
LINE
  8
0
 10
53.8721
 20
9.77382
 11
53.956
 21
9.75122
  0
LINE
  8
0
 10
53.956
 20
9.75122
 11
54.0312
 21
9.71355
  0
LINE
  8
0
 10
54.0312
 20
9.71355
 11
54.0979
 21
9.66081
  0
LINE
  8
0
 10
54.0979
 20
9.66081
 11
54.1525
 21
9.59351
  0
LINE
  8
0
 10
54.1525
 20
9.59351
 11
54.1916
 21
9.51218
  0
LINE
  8
0
 10
54.1916
 20
9.51218
 11
54.215
 21
9.41679
  0
LINE
  8
0
 10
54.215
 20
9.41679
 11
54.2227
 21
9.30736
  0
LINE
  8
0
 10
54.2227
 20
9.30736
 11
54.2227
 21
7.45805
  0
LINE
  8
0
 10
54.2227
 20
7.45805
 11
55.1988
 21
7.45805
  0
LINE
  8
0
 10
55.1988
 20
7.45805
 11
55.1988
 21
9.52382
  0
LINE
  8
0
 10
55.1988
 20
9.52382
 11
55.1812
 21
9.75327
  0
LINE
  8
0
 10
55.1812
 20
9.75327
 11
55.1284
 21
9.9567
  0
LINE
  8
0
 10
55.1284
 20
9.9567
 11
55.0403
 21
10.1341
  0
LINE
  8
0
 10
55.0403
 20
10.1341
 11
54.9169
 21
10.2855
  0
LINE
  8
0
 10
54.9169
 20
10.2855
 11
54.7661
 21
10.4065
  0
LINE
  8
0
 10
54.7661
 20
10.4065
 11
54.5954
 21
10.493
  0
LINE
  8
0
 10
54.5954
 20
10.493
 11
54.405
 21
10.5449
  0
LINE
  8
0
 10
54.405
 20
10.5449
 11
54.1947
 21
10.5622
  0
LINE
  8
0
 10
54.1947
 20
10.5622
 11
54.0386
 21
10.5518
  0
LINE
  8
0
 10
54.0386
 20
10.5518
 11
53.8873
 21
10.5208
  0
LINE
  8
0
 10
53.8873
 20
10.5208
 11
53.7406
 21
10.4689
  0
LINE
  8
0
 10
53.7406
 20
10.4689
 11
53.5987
 21
10.3964
  0
LINE
  8
0
 10
53.5987
 20
10.3964
 11
53.4677
 21
10.3003
  0
LINE
  8
0
 10
53.4677
 20
10.3003
 11
53.3537
 21
10.1776
  0
LINE
  8
0
 10
53.3537
 20
10.1776
 11
53.2566
 21
10.0284
  0
LINE
  8
0
 10
53.2566
 20
10.0284
 11
53.1766
 21
9.85258
  0
LINE
  8
0
 10
53.1766
 20
9.85258
 11
53.1139
 21
10.0272
  0
LINE
  8
0
 10
53.1139
 20
10.0272
 11
53.0409
 21
10.1759
  0
LINE
  8
0
 10
53.0409
 20
10.1759
 11
52.9576
 21
10.2985
  0
LINE
  8
0
 10
52.9576
 20
10.2985
 11
52.8639
 21
10.3951
  0
LINE
  8
0
 10
52.8639
 20
10.3951
 11
52.7588
 21
10.4682
  0
LINE
  8
0
 10
52.7588
 20
10.4682
 11
52.6413
 21
10.5204
  0
LINE
  8
0
 10
52.6413
 20
10.5204
 11
52.5113
 21
10.5517
  0
LINE
  8
0
 10
52.5113
 20
10.5517
 11
52.3688
 21
10.5622
  0
LINE
  8
0
 10
52.3688
 20
10.5622
 11
52.2296
 21
10.5527
  0
LINE
  8
0
 10
52.2296
 20
10.5527
 11
52.095
 21
10.5242
  0
LINE
  8
0
 10
52.095
 20
10.5242
 11
51.9652
 21
10.4767
  0
LINE
  8
0
 10
51.9652
 20
10.4767
 11
51.8401
 21
10.4101
  0
LINE
  8
0
 10
51.8401
 20
10.4101
 11
51.7247
 21
10.322
  0
LINE
  8
0
 10
51.7247
 20
10.322
 11
51.6238
 21
10.2098
  0
LINE
  8
0
 10
51.6238
 20
10.2098
 11
51.5375
 21
10.0734
  0
LINE
  8
0
 10
51.5375
 20
10.0734
 11
51.4657
 21
9.91286
  0
LINE
  8
0
 10
51.4657
 20
9.91286
 11
51.4208
 21
10.5211
  0
LINE
  8
0
 10
51.4208
 20
10.5211
 11
50.5205
 21
10.5211
  0
LINE
  8
0
 10
50.5205
 20
10.5211
 11
50.5205
 21
7.45805
  0
LINE
  8
0
 10
50.5205
 20
7.45805
 11
51.4994
 21
7.45805
  0
LINE
  8
0
 10
51.4994
 20
7.45805
 11
51.4994
 21
9.27722
  0
LINE
  8
0
 10
12.5014
 20
9.27722
 11
12.5094
 21
9.39093
  0
LINE
  8
0
 10
12.5094
 20
9.39093
 11
12.5333
 21
9.49092
  0
LINE
  8
0
 10
12.5333
 20
9.49092
 11
12.5732
 21
9.57722
  0
LINE
  8
0
 10
12.5732
 20
9.57722
 11
12.629
 21
9.64983
  0
LINE
  8
0
 10
12.629
 20
9.64983
 11
12.6973
 21
9.70737
  0
LINE
  8
0
 10
12.6973
 20
9.70737
 11
12.7745
 21
9.74847
  0
LINE
  8
0
 10
12.7745
 20
9.74847
 11
12.8606
 21
9.77315
  0
LINE
  8
0
 10
12.8606
 20
9.77315
 11
12.9557
 21
9.78136
  0
LINE
  8
0
 10
12.9557
 20
9.78136
 11
13.048
 21
9.77356
  0
LINE
  8
0
 10
13.048
 20
9.77356
 11
13.1314
 21
9.75018
  0
LINE
  8
0
 10
13.1314
 20
9.75018
 11
13.2058
 21
9.71123
  0
LINE
  8
0
 10
13.2058
 20
9.71123
 11
13.2713
 21
9.65669
  0
LINE
  8
0
 10
13.2713
 20
9.65669
 11
13.3247
 21
9.58896
  0
LINE
  8
0
 10
13.3247
 20
9.58896
 11
13.3628
 21
9.51045
  0
LINE
  8
0
 10
13.3628
 20
9.51045
 11
13.3857
 21
9.42114
  0
LINE
  8
0
 10
13.3857
 20
9.42114
 11
13.3933
 21
9.32106
  0
LINE
  8
0
 10
13.3933
 20
9.32106
 11
13.3933
 21
7.45805
  0
LINE
  8
0
 10
13.3933
 20
7.45805
 11
14.3329
 21
7.45805
  0
LINE
  8
0
 10
14.3329
 20
7.45805
 11
14.3329
 21
9.29642
  0
LINE
  8
0
 10
14.3329
 20
9.29642
 11
14.3404
 21
9.4006
  0
LINE
  8
0
 10
14.3404
 20
9.4006
 11
14.363
 21
9.494
  0
LINE
  8
0
 10
14.363
 20
9.494
 11
14.4007
 21
9.57661
  0
LINE
  8
0
 10
14.4007
 20
9.57661
 11
14.4535
 21
9.64845
  0
LINE
  8
0
 10
14.4535
 20
9.64845
 11
14.5192
 21
9.70659
  0
LINE
  8
0
 10
14.5192
 20
9.70659
 11
14.5958
 21
9.74814
  0
LINE
  8
0
 10
14.5958
 20
9.74814
 11
14.6833
 21
9.77306
  0
LINE
  8
0
 10
14.6833
 20
9.77306
 11
14.7816
 21
9.78136
  0
LINE
  8
0
 10
14.7816
 20
9.78136
 11
14.8741
 21
9.77382
  0
LINE
  8
0
 10
14.8741
 20
9.77382
 11
14.958
 21
9.75122
  0
LINE
  8
0
 10
14.958
 20
9.75122
 11
15.0333
 21
9.71355
  0
LINE
  8
0
 10
15.0333
 20
9.71355
 11
15.1
 21
9.66081
  0
LINE
  8
0
 10
15.1
 20
9.66081
 11
15.1546
 21
9.59351
  0
LINE
  8
0
 10
15.1546
 20
9.59351
 11
15.1936
 21
9.51218
  0
LINE
  8
0
 10
15.1936
 20
9.51218
 11
15.217
 21
9.41679
  0
LINE
  8
0
 10
15.217
 20
9.41679
 11
15.2248
 21
9.30736
  0
LINE
  8
0
 10
15.2248
 20
9.30736
 11
15.2248
 21
7.45805
  0
LINE
  8
0
 10
15.2248
 20
7.45805
 11
16.2009
 21
7.45805
  0
LINE
  8
0
 10
16.2009
 20
7.45805
 11
16.2009
 21
9.52382
  0
LINE
  8
0
 10
16.2009
 20
9.52382
 11
16.1832
 21
9.75327
  0
LINE
  8
0
 10
16.1832
 20
9.75327
 11
16.1304
 21
9.9567
  0
LINE
  8
0
 10
16.1304
 20
9.9567
 11
16.0423
 21
10.1341
  0
LINE
  8
0
 10
16.0423
 20
10.1341
 11
15.919
 21
10.2855
  0
LINE
  8
0
 10
15.919
 20
10.2855
 11
15.7681
 21
10.4065
  0
LINE
  8
0
 10
15.7681
 20
10.4065
 11
15.5975
 21
10.493
  0
LINE
  8
0
 10
15.5975
 20
10.493
 11
15.407
 21
10.5449
  0
LINE
  8
0
 10
15.407
 20
10.5449
 11
15.1967
 21
10.5622
  0
LINE
  8
0
 10
15.1967
 20
10.5622
 11
15.0406
 21
10.5518
  0
LINE
  8
0
 10
15.0406
 20
10.5518
 11
14.8893
 21
10.5208
  0
LINE
  8
0
 10
14.8893
 20
10.5208
 11
14.7426
 21
10.4689
  0
LINE
  8
0
 10
14.7426
 20
10.4689
 11
14.6007
 21
10.3964
  0
LINE
  8
0
 10
14.6007
 20
10.3964
 11
14.4697
 21
10.3003
  0
LINE
  8
0
 10
14.4697
 20
10.3003
 11
14.3557
 21
10.1776
  0
LINE
  8
0
 10
14.3557
 20
10.1776
 11
14.2587
 21
10.0284
  0
LINE
  8
0
 10
14.2587
 20
10.0284
 11
14.1786
 21
9.85258
  0
LINE
  8
0
 10
14.1786
 20
9.85258
 11
14.116
 21
10.0272
  0
LINE
  8
0
 10
14.116
 20
10.0272
 11
14.043
 21
10.1759
  0
LINE
  8
0
 10
14.043
 20
10.1759
 11
13.9596
 21
10.2985
  0
LINE
  8
0
 10
13.9596
 20
10.2985
 11
13.8659
 21
10.3951
  0
LINE
  8
0
 10
13.8659
 20
10.3951
 11
13.7608
 21
10.4682
  0
LINE
  8
0
 10
13.7608
 20
10.4682
 11
13.6433
 21
10.5204
  0
LINE
  8
0
 10
13.6433
 20
10.5204
 11
13.5133
 21
10.5517
  0
LINE
  8
0
 10
13.5133
 20
10.5517
 11
13.3708
 21
10.5622
  0
LINE
  8
0
 10
13.3708
 20
10.5622
 11
13.2316
 21
10.5527
  0
LINE
  8
0
 10
13.2316
 20
10.5527
 11
13.097
 21
10.5242
  0
LINE
  8
0
 10
13.097
 20
10.5242
 11
12.9673
 21
10.4767
  0
LINE
  8
0
 10
12.9673
 20
10.4767
 11
12.8422
 21
10.4101
  0
LINE
  8
0
 10
12.8422
 20
10.4101
 11
12.7267
 21
10.322
  0
LINE
  8
0
 10
12.7267
 20
10.322
 11
12.6259
 21
10.2098
  0
LINE
  8
0
 10
12.6259
 20
10.2098
 11
12.5395
 21
10.0734
  0
LINE
  8
0
 10
12.5395
 20
10.0734
 11
12.4677
 21
9.91286
  0
LINE
  8
0
 10
12.4677
 20
9.91286
 11
12.4229
 21
10.5211
  0
LINE
  8
0
 10
12.4229
 20
10.5211
 11
11.5225
 21
10.5211
  0
LINE
  8
0
 10
11.5225
 20
10.5211
 11
11.5225
 21
7.45805
  0
LINE
  8
0
 10
11.5225
 20
7.45805
 11
12.5014
 21
7.45805
  0
LINE
  8
0
 10
12.5014
 20
7.45805
 11
12.5014
 21
9.27722
  0
LINE
  8
0
 10
23.2136
 20
9.12929
 11
23.2248
 21
9.25977
  0
LINE
  8
0
 10
23.2248
 20
9.25977
 11
23.2581
 21
9.37723
  0
LINE
  8
0
 10
23.2581
 20
9.37723
 11
23.3138
 21
9.48167
  0
LINE
  8
0
 10
23.3138
 20
9.48167
 11
23.3917
 21
9.5731
  0
LINE
  8
0
 10
23.3917
 20
9.5731
 11
23.4867
 21
9.64743
  0
LINE
  8
0
 10
23.4867
 20
9.64743
 11
23.5933
 21
9.70052
  0
LINE
  8
0
 10
23.5933
 20
9.70052
 11
23.7117
 21
9.73236
  0
LINE
  8
0
 10
23.7117
 20
9.73236
 11
23.8419
 21
9.74298
  0
LINE
  8
0
 10
23.8419
 20
9.74298
 11
23.8883
 21
9.7422
  0
LINE
  8
0
 10
23.8883
 20
9.7422
 11
23.9376
 21
9.7399
  0
LINE
  8
0
 10
23.9376
 20
9.7399
 11
23.9899
 21
9.73605
  0
LINE
  8
0
 10
23.9899
 20
9.73605
 11
24.0452
 21
9.73067
  0
LINE
  8
0
 10
24.0452
 20
9.73067
 11
24.0993
 21
9.72372
  0
LINE
  8
0
 10
24.0993
 20
9.72372
 11
24.1479
 21
9.71526
  0
LINE
  8
0
 10
24.1479
 20
9.71526
 11
24.1912
 21
9.70525
  0
LINE
  8
0
 10
24.1912
 20
9.70525
 11
24.229
 21
9.6937
  0
LINE
  8
0
 10
24.229
 20
9.6937
 11
24.229
 21
10.5266
  0
LINE
  8
0
 10
24.229
 20
10.5266
 11
24.1611
 21
10.5409
  0
LINE
  8
0
 10
24.1611
 20
10.5409
 11
24.0922
 21
10.5512
  0
LINE
  8
0
 10
24.0922
 20
10.5512
 11
24.0223
 21
10.5574
  0
LINE
  8
0
 10
24.0223
 20
10.5574
 11
23.9513
 21
10.5594
  0
LINE
  8
0
 10
23.9513
 20
10.5594
 11
23.8262
 21
10.5502
  0
LINE
  8
0
 10
23.8262
 20
10.5502
 11
23.709
 21
10.5225
  0
LINE
  8
0
 10
23.709
 20
10.5225
 11
23.5997
 21
10.4762
  0
LINE
  8
0
 10
23.5997
 20
10.4762
 11
23.4983
 21
10.4115
  0
LINE
  8
0
 10
23.4983
 20
10.4115
 11
23.4078
 21
10.3279
  0
LINE
  8
0
 10
23.4078
 20
10.3279
 11
23.3311
 21
10.2252
  0
LINE
  8
0
 10
23.3311
 20
10.2252
 11
23.2682
 21
10.1033
  0
LINE
  8
0
 10
23.2682
 20
10.1033
 11
23.2193
 21
9.96219
  0
LINE
  8
0
 10
23.2193
 20
9.96219
 11
23.1856
 21
9.96219
  0
LINE
  8
0
 10
23.1856
 20
9.96219
 11
23.1856
 21
10.5211
  0
LINE
  8
0
 10
23.1856
 20
10.5211
 11
22.2348
 21
10.5211
  0
LINE
  8
0
 10
22.2348
 20
10.5211
 11
22.2348
 21
7.45805
  0
LINE
  8
0
 10
22.2348
 20
7.45805
 11
23.2136
 21
7.45805
  0
LINE
  8
0
 10
23.2136
 20
7.45805
 11
23.2136
 21
9.12929
  0
LINE
  8
0
 10
32.662
 20
7.43359
 11
32.9134
 21
7.52451
  0
LINE
  8
0
 10
32.9134
 20
7.52451
 11
33.1164
 21
7.67604
  0
LINE
  8
0
 10
33.1164
 20
7.67604
 11
33.271
 21
7.88818
  0
LINE
  8
0
 10
33.271
 20
7.88818
 11
33.2963
 21
7.88818
  0
LINE
  8
0
 10
33.2963
 20
7.88818
 11
33.2963
 21
7.45805
  0
LINE
  8
0
 10
33.2963
 20
7.45805
 11
34.2162
 21
7.45805
  0
LINE
  8
0
 10
34.2162
 20
7.45805
 11
34.2162
 21
9.53751
  0
LINE
  8
0
 10
34.2162
 20
9.53751
 11
34.2046
 21
9.69565
  0
LINE
  8
0
 10
34.2046
 20
9.69565
 11
34.1696
 21
9.84126
  0
LINE
  8
0
 10
34.1696
 20
9.84126
 11
34.1113
 21
9.9744
  0
LINE
  8
0
 10
34.1113
 20
9.9744
 11
34.0297
 21
10.095
  0
LINE
  8
0
 10
34.0297
 20
10.095
 11
33.9284
 21
10.2025
  0
LINE
  8
0
 10
33.9284
 20
10.2025
 11
33.8109
 21
10.2961
  0
LINE
  8
0
 10
33.8109
 20
10.2961
 11
33.6774
 21
10.3758
  0
LINE
  8
0
 10
33.6774
 20
10.3758
 11
33.5276
 21
10.4416
  0
LINE
  8
0
 10
33.5276
 20
10.4416
 11
33.3652
 21
10.4931
  0
LINE
  8
0
 10
33.3652
 20
10.4931
 11
33.1935
 21
10.53
  0
LINE
  8
0
 10
33.1935
 20
10.53
 11
33.0126
 21
10.5521
  0
LINE
  8
0
 10
33.0126
 20
10.5521
 11
32.8223
 21
10.5594
  0
LINE
  8
0
 10
32.8223
 20
10.5594
 11
32.5421
 21
10.5441
  0
LINE
  8
0
 10
32.5421
 20
10.5441
 11
32.2904
 21
10.4981
  0
LINE
  8
0
 10
32.2904
 20
10.4981
 11
32.0674
 21
10.4215
  0
LINE
  8
0
 10
32.0674
 20
10.4215
 11
31.8728
 21
10.3142
  0
LINE
  8
0
 10
31.8728
 20
10.3142
 11
31.7094
 21
10.1825
  0
LINE
  8
0
 10
31.7094
 20
10.1825
 11
31.5794
 21
10.0324
  0
LINE
  8
0
 10
31.5794
 20
10.0324
 11
31.4829
 21
9.86398
  0
LINE
  8
0
 10
31.4829
 20
9.86398
 11
31.4199
 21
9.67725
  0
LINE
  8
0
 10
31.4199
 20
9.67725
 11
32.3062
 21
9.5649
  0
LINE
  8
0
 10
32.3062
 20
9.5649
 11
32.3316
 21
9.63373
  0
LINE
  8
0
 10
32.3316
 20
9.63373
 11
32.3686
 21
9.69502
  0
LINE
  8
0
 10
32.3686
 20
9.69502
 11
32.4172
 21
9.74878
  0
LINE
  8
0
 10
32.4172
 20
9.74878
 11
32.4773
 21
9.79501
  0
LINE
  8
0
 10
32.4773
 20
9.79501
 11
32.5478
 21
9.83218
  0
LINE
  8
0
 10
32.5478
 20
9.83218
 11
32.6273
 21
9.85873
  0
LINE
  8
0
 10
32.6273
 20
9.85873
 11
32.716
 21
9.87466
  0
LINE
  8
0
 10
32.716
 20
9.87466
 11
32.8138
 21
9.87997
  0
LINE
  8
0
 10
32.8138
 20
9.87997
 11
32.9081
 21
9.87459
  0
LINE
  8
0
 10
32.9081
 20
9.87459
 11
32.9916
 21
9.8584
  0
LINE
  8
0
 10
32.9916
 20
9.8584
 11
33.0644
 21
9.83144
  0
LINE
  8
0
 10
33.0644
 20
9.83144
 11
33.1266
 21
9.79369
  0
LINE
  8
0
 10
33.1266
 20
9.79369
 11
33.1763
 21
9.74599
  0
LINE
  8
0
 10
33.1763
 20
9.74599
 11
33.2118
 21
9.68922
  0
LINE
  8
0
 10
33.2118
 20
9.68922
 11
33.2331
 21
9.62338
  0
LINE
  8
0
 10
33.2331
 20
9.62338
 11
33.2402
 21
9.54846
  0
LINE
  8
0
 10
33.2402
 20
9.54846
 11
33.2402
 21
9.53751
  0
LINE
  8
0
 10
33.2402
 20
9.53751
 11
33.2294
 21
9.4722
  0
LINE
  8
0
 10
33.2294
 20
9.4722
 11
33.197
 21
9.41869
  0
LINE
  8
0
 10
33.197
 20
9.41869
 11
33.1431
 21
9.377
  0
LINE
  8
0
 10
33.1431
 20
9.377
 11
33.0677
 21
9.34711
  0
LINE
  8
0
 10
33.0677
 20
9.34711
 11
32.9673
 21
9.32408
  0
LINE
  8
0
 10
32.9673
 20
9.32408
 11
32.8387
 21
9.30293
  0
LINE
  8
0
 10
32.8387
 20
9.30293
 11
32.6819
 21
9.28366
  0
LINE
  8
0
 10
32.6819
 20
9.28366
 11
32.4969
 21
9.26628
  0
LINE
  8
0
 10
32.4969
 20
9.26628
 11
32.3417
 21
9.24831
  0
LINE
  8
0
 10
32.3417
 20
9.24831
 11
32.193
 21
9.22176
  0
LINE
  8
0
 10
32.193
 20
9.22176
 11
32.0507
 21
9.18665
  0
LINE
  8
0
 10
32.0507
 20
9.18665
 11
31.9149
 21
9.14297
  0
LINE
  8
0
 10
31.9149
 20
9.14297
 11
31.789
 21
9.08853
  0
LINE
  8
0
 10
31.789
 20
9.08853
 11
31.6762
 21
9.02107
  0
LINE
  8
0
 10
31.6762
 20
9.02107
 11
31.5765
 21
8.9406
  0
LINE
  8
0
 10
31.5765
 20
8.9406
 11
31.49
 21
8.84709
  0
LINE
  8
0
 10
31.49
 20
8.84709
 11
31.4201
 21
8.73837
  0
LINE
  8
0
 10
31.4201
 20
8.73837
 11
31.3701
 21
8.61218
  0
LINE
  8
0
 10
31.3701
 20
8.61218
 11
31.3401
 21
8.46851
  0
LINE
  8
0
 10
31.3401
 20
8.46851
 11
31.3302
 21
8.30737
  0
LINE
  8
0
 10
31.3302
 20
8.30737
 11
31.3483
 21
8.09436
  0
LINE
  8
0
 10
31.3483
 20
8.09436
 11
31.4027
 21
7.91013
  0
LINE
  8
0
 10
31.4027
 20
7.91013
 11
31.4934
 21
7.75465
  0
LINE
  8
0
 10
31.4934
 20
7.75465
 11
31.6204
 21
7.62794
  0
LINE
  8
0
 10
31.6204
 20
7.62794
 11
31.7757
 21
7.52965
  0
LINE
  8
0
 10
31.7757
 20
7.52965
 11
31.951
 21
7.45944
  0
LINE
  8
0
 10
31.951
 20
7.45944
 11
32.1466
 21
7.41733
  0
LINE
  8
0
 10
32.1466
 20
7.41733
 11
32.3623
 21
7.40329
  0
LINE
  8
0
 10
32.3623
 20
7.40329
 11
32.662
 21
7.43359
  0
LINE
  8
0
 10
32.5752
 20
8.04118
 11
32.4987
 21
8.05634
  0
LINE
  8
0
 10
32.4987
 20
8.05634
 11
32.4301
 21
8.0816
  0
LINE
  8
0
 10
32.4301
 20
8.0816
 11
32.3693
 21
8.11697
  0
LINE
  8
0
 10
32.3693
 20
8.11697
 11
32.3196
 21
8.16193
  0
LINE
  8
0
 10
32.3196
 20
8.16193
 11
32.2841
 21
8.21594
  0
LINE
  8
0
 10
32.2841
 20
8.21594
 11
32.2628
 21
8.27904
  0
LINE
  8
0
 10
32.2628
 20
8.27904
 11
32.2557
 21
8.3512
  0
LINE
  8
0
 10
32.2557
 20
8.3512
 11
32.284
 21
8.48596
  0
LINE
  8
0
 10
32.284
 20
8.48596
 11
32.3686
 21
8.59161
  0
LINE
  8
0
 10
32.3686
 20
8.59161
 11
32.5097
 21
8.66815
  0
LINE
  8
0
 10
32.5097
 20
8.66815
 11
32.7073
 21
8.71559
  0
LINE
  8
0
 10
32.7073
 20
8.71559
 11
32.7774
 21
8.72707
  0
LINE
  8
0
 10
32.7774
 20
8.72707
 11
32.8503
 21
8.73955
  0
LINE
  8
0
 10
32.8503
 20
8.73955
 11
32.926
 21
8.75308
  0
LINE
  8
0
 10
32.926
 20
8.75308
 11
33.0045
 21
8.76764
  0
LINE
  8
0
 10
33.0045
 20
8.76764
 11
33.0798
 21
8.78355
  0
LINE
  8
0
 10
33.0798
 20
8.78355
 11
33.1455
 21
8.80121
  0
LINE
  8
0
 10
33.1455
 20
8.80121
 11
33.2018
 21
8.82057
  0
LINE
  8
0
 10
33.2018
 20
8.82057
 11
33.2486
 21
8.84164
  0
LINE
  8
0
 10
33.2486
 20
8.84164
 11
33.2486
 21
8.54848
  0
LINE
  8
0
 10
33.2486
 20
8.54848
 11
33.2379
 21
8.44006
  0
LINE
  8
0
 10
33.2379
 20
8.44006
 11
33.2058
 21
8.34229
  0
LINE
  8
0
 10
33.2058
 20
8.34229
 11
33.1524
 21
8.25513
  0
LINE
  8
0
 10
33.1524
 20
8.25513
 11
33.0775
 21
8.17857
  0
LINE
  8
0
 10
33.0775
 20
8.17857
 11
32.9872
 21
8.11626
  0
LINE
  8
0
 10
32.9872
 20
8.11626
 11
32.8875
 21
8.07175
  0
LINE
  8
0
 10
32.8875
 20
8.07175
 11
32.7783
 21
8.04503
  0
LINE
  8
0
 10
32.7783
 20
8.04503
 11
32.6596
 21
8.03613
  0
LINE
  8
0
 10
32.6596
 20
8.03613
 11
32.5752
 21
8.04118
  0
LINE
  8
0
 10
48.7399
 20
7.41295
 11
48.9592
 21
7.45018
  0
LINE
  8
0
 10
48.9592
 20
7.45018
 11
49.1613
 21
7.51225
  0
LINE
  8
0
 10
49.1613
 20
7.51225
 11
49.3459
 21
7.59914
  0
LINE
  8
0
 10
49.3459
 20
7.59914
 11
49.5118
 21
7.70822
  0
LINE
  8
0
 10
49.5118
 20
7.70822
 11
49.6573
 21
7.83681
  0
LINE
  8
0
 10
49.6573
 20
7.83681
 11
49.7824
 21
7.98492
  0
LINE
  8
0
 10
49.7824
 20
7.98492
 11
49.8872
 21
8.15256
  0
LINE
  8
0
 10
49.8872
 20
8.15256
 11
49.9701
 21
8.33725
  0
LINE
  8
0
 10
49.9701
 20
8.33725
 11
50.0292
 21
8.53648
  0
LINE
  8
0
 10
50.0292
 20
8.53648
 11
50.0647
 21
8.75026
  0
LINE
  8
0
 10
50.0647
 20
8.75026
 11
50.0766
 21
8.97859
  0
LINE
  8
0
 10
50.0766
 20
8.97859
 11
50.0647
 21
9.20703
  0
LINE
  8
0
 10
50.0647
 20
9.20703
 11
50.0292
 21
9.42108
  0
LINE
  8
0
 10
50.0292
 20
9.42108
 11
49.9701
 21
9.62073
  0
LINE
  8
0
 10
49.9701
 20
9.62073
 11
49.8872
 21
9.806
  0
LINE
  8
0
 10
49.8872
 20
9.806
 11
49.7824
 21
9.97423
  0
LINE
  8
0
 10
49.7824
 20
9.97423
 11
49.6573
 21
10.1228
  0
LINE
  8
0
 10
49.6573
 20
10.1228
 11
49.5118
 21
10.2516
  0
LINE
  8
0
 10
49.5118
 20
10.2516
 11
49.3459
 21
10.3608
  0
LINE
  8
0
 10
49.3459
 20
10.3608
 11
49.1613
 21
10.4477
  0
LINE
  8
0
 10
49.1613
 20
10.4477
 11
48.9592
 21
10.5098
  0
LINE
  8
0
 10
48.9592
 20
10.5098
 11
48.7399
 21
10.547
  0
LINE
  8
0
 10
48.7399
 20
10.547
 11
48.5031
 21
10.5594
  0
LINE
  8
0
 10
48.5031
 20
10.5594
 11
48.2663
 21
10.547
  0
LINE
  8
0
 10
48.2663
 20
10.547
 11
48.0466
 21
10.5098
  0
LINE
  8
0
 10
48.0466
 20
10.5098
 11
47.8442
 21
10.4477
  0
LINE
  8
0
 10
47.8442
 20
10.4477
 11
47.6589
 21
10.3608
  0
LINE
  8
0
 10
47.6589
 20
10.3608
 11
47.4924
 21
10.2516
  0
LINE
  8
0
 10
47.4924
 20
10.2516
 11
47.3465
 21
10.1228
  0
LINE
  8
0
 10
47.3465
 20
10.1228
 11
47.2211
 21
9.97423
  0
LINE
  8
0
 10
47.2211
 20
9.97423
 11
47.1161
 21
9.806
  0
LINE
  8
0
 10
47.1161
 20
9.806
 11
47.0333
 21
9.62073
  0
LINE
  8
0
 10
47.0333
 20
9.62073
 11
46.9742
 21
9.42108
  0
LINE
  8
0
 10
46.9742
 20
9.42108
 11
46.9387
 21
9.20703
  0
LINE
  8
0
 10
46.9387
 20
9.20703
 11
46.9268
 21
8.97859
  0
LINE
  8
0
 10
46.9268
 20
8.97859
 11
46.9387
 21
8.75026
  0
LINE
  8
0
 10
46.9387
 20
8.75026
 11
46.9742
 21
8.53648
  0
LINE
  8
0
 10
46.9742
 20
8.53648
 11
47.0333
 21
8.33725
  0
LINE
  8
0
 10
47.0333
 20
8.33725
 11
47.1161
 21
8.15256
  0
LINE
  8
0
 10
47.1161
 20
8.15256
 11
47.2211
 21
7.98492
  0
LINE
  8
0
 10
47.2211
 20
7.98492
 11
47.3465
 21
7.83681
  0
LINE
  8
0
 10
47.3465
 20
7.83681
 11
47.4924
 21
7.70822
  0
LINE
  8
0
 10
47.4924
 20
7.70822
 11
47.6589
 21
7.59914
  0
LINE
  8
0
 10
47.6589
 20
7.59914
 11
47.8442
 21
7.51225
  0
LINE
  8
0
 10
47.8442
 20
7.51225
 11
48.0466
 21
7.45018
  0
LINE
  8
0
 10
48.0466
 20
7.45018
 11
48.2663
 21
7.41295
  0
LINE
  8
0
 10
48.2663
 20
7.41295
 11
48.5031
 21
7.40053
  0
LINE
  8
0
 10
48.5031
 20
7.40053
 11
48.7399
 21
7.41295
  0
LINE
  8
0
 10
48.3711
 20
8.14668
 11
48.2556
 21
8.1906
  0
LINE
  8
0
 10
48.2556
 20
8.1906
 11
48.1565
 21
8.26379
  0
LINE
  8
0
 10
48.1565
 20
8.26379
 11
48.074
 21
8.36627
  0
LINE
  8
0
 10
48.074
 20
8.36627
 11
48.009
 21
8.49274
  0
LINE
  8
0
 10
48.009
 20
8.49274
 11
47.9625
 21
8.63786
  0
LINE
  8
0
 10
47.9625
 20
8.63786
 11
47.9346
 21
8.80165
  0
LINE
  8
0
 10
47.9346
 20
8.80165
 11
47.9254
 21
8.98409
  0
LINE
  8
0
 10
47.9254
 20
8.98409
 11
47.9346
 21
9.16628
  0
LINE
  8
0
 10
47.9346
 20
9.16628
 11
47.9625
 21
9.32928
  0
LINE
  8
0
 10
47.9625
 20
9.32928
 11
48.009
 21
9.47313
  0
LINE
  8
0
 10
48.009
 20
9.47313
 11
48.074
 21
9.59779
  0
LINE
  8
0
 10
48.074
 20
9.59779
 11
48.1565
 21
9.69847
  0
LINE
  8
0
 10
48.1565
 20
9.69847
 11
48.2556
 21
9.7704
  0
LINE
  8
0
 10
48.2556
 20
9.7704
 11
48.3711
 21
9.81355
  0
LINE
  8
0
 10
48.3711
 20
9.81355
 11
48.5031
 21
9.82794
  0
LINE
  8
0
 10
48.5031
 20
9.82794
 11
48.6351
 21
9.81355
  0
LINE
  8
0
 10
48.6351
 20
9.81355
 11
48.7506
 21
9.7704
  0
LINE
  8
0
 10
48.7506
 20
9.7704
 11
48.8497
 21
9.69847
  0
LINE
  8
0
 10
48.8497
 20
9.69847
 11
48.9322
 21
9.59779
  0
LINE
  8
0
 10
48.9322
 20
9.59779
 11
48.9973
 21
9.47313
  0
LINE
  8
0
 10
48.9973
 20
9.47313
 11
49.0437
 21
9.32928
  0
LINE
  8
0
 10
49.0437
 20
9.32928
 11
49.0716
 21
9.16628
  0
LINE
  8
0
 10
49.0716
 20
9.16628
 11
49.0809
 21
8.98409
  0
LINE
  8
0
 10
49.0809
 20
8.98409
 11
49.0716
 21
8.80165
  0
LINE
  8
0
 10
49.0716
 20
8.80165
 11
49.0437
 21
8.63786
  0
LINE
  8
0
 10
49.0437
 20
8.63786
 11
48.9973
 21
8.49274
  0
LINE
  8
0
 10
48.9973
 20
8.49274
 11
48.9322
 21
8.36627
  0
LINE
  8
0
 10
48.9322
 20
8.36627
 11
48.8497
 21
8.26379
  0
LINE
  8
0
 10
48.8497
 20
8.26379
 11
48.7506
 21
8.1906
  0
LINE
  8
0
 10
48.7506
 20
8.1906
 11
48.6351
 21
8.14668
  0
LINE
  8
0
 10
48.6351
 20
8.14668
 11
48.5031
 21
8.13203
  0
LINE
  8
0
 10
48.5031
 20
8.13203
 11
48.3711
 21
8.14668
  0
LINE
  8
0
 10
45.4533
 20
7.41911
 11
45.7147
 21
7.47485
  0
LINE
  8
0
 10
45.7147
 20
7.47485
 11
45.9483
 21
7.56775
  0
LINE
  8
0
 10
45.9483
 20
7.56775
 11
46.1543
 21
7.69778
  0
LINE
  8
0
 10
46.1543
 20
7.69778
 11
46.327
 21
7.86003
  0
LINE
  8
0
 10
46.327
 20
7.86003
 11
46.4607
 21
8.0495
  0
LINE
  8
0
 10
46.4607
 20
8.0495
 11
46.5556
 21
8.2662
  0
LINE
  8
0
 10
46.5556
 20
8.2662
 11
46.6115
 21
8.51013
  0
LINE
  8
0
 10
46.6115
 20
8.51013
 11
45.7084
 21
8.65257
  0
LINE
  8
0
 10
45.7084
 20
8.65257
 11
45.6802
 21
8.53615
  0
LINE
  8
0
 10
45.6802
 20
8.53615
 11
45.6407
 21
8.43341
  0
LINE
  8
0
 10
45.6407
 20
8.43341
 11
45.5898
 21
8.34438
  0
LINE
  8
0
 10
45.5898
 20
8.34438
 11
45.5275
 21
8.26903
  0
LINE
  8
0
 10
45.5275
 20
8.26903
 11
45.4545
 21
8.20909
  0
LINE
  8
0
 10
45.4545
 20
8.20909
 11
45.3714
 21
8.16629
  0
LINE
  8
0
 10
45.3714
 20
8.16629
 11
45.2785
 21
8.14059
  0
LINE
  8
0
 10
45.2785
 20
8.14059
 11
45.1755
 21
8.13203
  0
LINE
  8
0
 10
45.1755
 20
8.13203
 11
45.0431
 21
8.14633
  0
LINE
  8
0
 10
45.0431
 20
8.14633
 11
44.9265
 21
8.18922
  0
LINE
  8
0
 10
44.9265
 20
8.18922
 11
44.8257
 21
8.2607
  0
LINE
  8
0
 10
44.8257
 20
8.2607
 11
44.7407
 21
8.36078
  0
LINE
  8
0
 10
44.7407
 20
8.36078
 11
44.6732
 21
8.48552
  0
LINE
  8
0
 10
44.6732
 20
8.48552
 11
44.625
 21
8.631
  0
LINE
  8
0
 10
44.625
 20
8.631
 11
44.5961
 21
8.79718
  0
LINE
  8
0
 10
44.5961
 20
8.79718
 11
44.5865
 21
8.98409
  0
LINE
  8
0
 10
44.5865
 20
8.98409
 11
44.5961
 21
9.17183
  0
LINE
  8
0
 10
44.5961
 20
9.17183
 11
44.625
 21
9.33784
  0
LINE
  8
0
 10
44.625
 20
9.33784
 11
44.6732
 21
9.4821
  0
LINE
  8
0
 10
44.6732
 20
9.4821
 11
44.7407
 21
9.60461
  0
LINE
  8
0
 10
44.7407
 20
9.60461
 11
44.8257
 21
9.70232
  0
LINE
  8
0
 10
44.8257
 20
9.70232
 11
44.9265
 21
9.77211
  0
LINE
  8
0
 10
44.9265
 20
9.77211
 11
45.0431
 21
9.81398
  0
LINE
  8
0
 10
45.0431
 20
9.81398
 11
45.1755
 21
9.82794
  0
LINE
  8
0
 10
45.1755
 20
9.82794
 11
45.2783
 21
9.81972
  0
LINE
  8
0
 10
45.2783
 20
9.81972
 11
45.3707
 21
9.79506
  0
LINE
  8
0
 10
45.3707
 20
9.79506
 11
45.4529
 21
9.75395
  0
LINE
  8
0
 10
45.4529
 20
9.75395
 11
45.5246
 21
9.6964
  0
LINE
  8
0
 10
45.5246
 20
9.6964
 11
45.5859
 21
9.62381
  0
LINE
  8
0
 10
45.5859
 20
9.62381
 11
45.6365
 21
9.53751
  0
LINE
  8
0
 10
45.6365
 20
9.53751
 11
45.6764
 21
9.4375
  0
LINE
  8
0
 10
45.6764
 20
9.4375
 11
45.7056
 21
9.32381
  0
LINE
  8
0
 10
45.7056
 20
9.32381
 11
46.6087
 21
9.47174
  0
LINE
  8
0
 10
46.6087
 20
9.47174
 11
46.5527
 21
9.70941
  0
LINE
  8
0
 10
46.5527
 20
9.70941
 11
46.4576
 21
9.92107
  0
LINE
  8
0
 10
46.4576
 20
9.92107
 11
46.3234
 21
10.1067
  0
LINE
  8
0
 10
46.3234
 20
10.1067
 11
46.1501
 21
10.2663
  0
LINE
  8
0
 10
46.1501
 20
10.2663
 11
45.9439
 21
10.3945
  0
LINE
  8
0
 10
45.9439
 20
10.3945
 11
45.7108
 21
10.4861
  0
LINE
  8
0
 10
45.7108
 20
10.4861
 11
45.451
 21
10.5411
  0
LINE
  8
0
 10
45.451
 20
10.5411
 11
45.1643
 21
10.5594
  0
LINE
  8
0
 10
45.1643
 20
10.5594
 11
44.9274
 21
10.547
  0
LINE
  8
0
 10
44.9274
 20
10.547
 11
44.7078
 21
10.5098
  0
LINE
  8
0
 10
44.7078
 20
10.5098
 11
44.5053
 21
10.4477
  0
LINE
  8
0
 10
44.5053
 20
10.4477
 11
44.32
 21
10.3608
  0
LINE
  8
0
 10
44.32
 20
10.3608
 11
44.1536
 21
10.2516
  0
LINE
  8
0
 10
44.1536
 20
10.2516
 11
44.0076
 21
10.1228
  0
LINE
  8
0
 10
44.0076
 20
10.1228
 11
43.8822
 21
9.97423
  0
LINE
  8
0
 10
43.8822
 20
9.97423
 11
43.7773
 21
9.806
  0
LINE
  8
0
 10
43.7773
 20
9.806
 11
43.6945
 21
9.62073
  0
LINE
  8
0
 10
43.6945
 20
9.62073
 11
43.6353
 21
9.42108
  0
LINE
  8
0
 10
43.6353
 20
9.42108
 11
43.5998
 21
9.20703
  0
LINE
  8
0
 10
43.5998
 20
9.20703
 11
43.588
 21
8.97859
  0
LINE
  8
0
 10
43.588
 20
8.97859
 11
43.5998
 21
8.75026
  0
LINE
  8
0
 10
43.5998
 20
8.75026
 11
43.6353
 21
8.53648
  0
LINE
  8
0
 10
43.6353
 20
8.53648
 11
43.6945
 21
8.33725
  0
LINE
  8
0
 10
43.6945
 20
8.33725
 11
43.7773
 21
8.15256
  0
LINE
  8
0
 10
43.7773
 20
8.15256
 11
43.8822
 21
7.98492
  0
LINE
  8
0
 10
43.8822
 20
7.98492
 11
44.0076
 21
7.83681
  0
LINE
  8
0
 10
44.0076
 20
7.83681
 11
44.1536
 21
7.70822
  0
LINE
  8
0
 10
44.1536
 20
7.70822
 11
44.32
 21
7.59914
  0
LINE
  8
0
 10
44.32
 20
7.59914
 11
44.5053
 21
7.51225
  0
LINE
  8
0
 10
44.5053
 20
7.51225
 11
44.7078
 21
7.45018
  0
LINE
  8
0
 10
44.7078
 20
7.45018
 11
44.9274
 21
7.41295
  0
LINE
  8
0
 10
44.9274
 20
7.41295
 11
45.1643
 21
7.40053
  0
LINE
  8
0
 10
45.1643
 20
7.40053
 11
45.4533
 21
7.41911
  0
LINE
  8
0
 10
40.0956
 20
7.41527
 11
40.3432
 21
7.45944
  0
LINE
  8
0
 10
40.3432
 20
7.45944
 11
40.5661
 21
7.53307
  0
LINE
  8
0
 10
40.5661
 20
7.53307
 11
40.7643
 21
7.63614
  0
LINE
  8
0
 10
40.7643
 20
7.63614
 11
40.9342
 21
7.76405
  0
LINE
  8
0
 10
40.9342
 20
7.76405
 11
41.0725
 21
7.91217
  0
LINE
  8
0
 10
41.0725
 20
7.91217
 11
41.179
 21
8.08049
  0
LINE
  8
0
 10
41.179
 20
8.08049
 11
41.2537
 21
8.26903
  0
LINE
  8
0
 10
41.2537
 20
8.26903
 11
40.3814
 21
8.40874
  0
LINE
  8
0
 10
40.3814
 20
8.40874
 11
40.3467
 21
8.33656
  0
LINE
  8
0
 10
40.3467
 20
8.33656
 11
40.3015
 21
8.27347
  0
LINE
  8
0
 10
40.3015
 20
8.27347
 11
40.2458
 21
8.21945
  0
LINE
  8
0
 10
40.2458
 20
8.21945
 11
40.1795
 21
8.1745
  0
LINE
  8
0
 10
40.1795
 20
8.1745
 11
40.1047
 21
8.13914
  0
LINE
  8
0
 10
40.1047
 20
8.13914
 11
40.0231
 21
8.11389
  0
LINE
  8
0
 10
40.0231
 20
8.11389
 11
39.935
 21
8.09875
  0
LINE
  8
0
 10
39.935
 20
8.09875
 11
39.8401
 21
8.0937
  0
LINE
  8
0
 10
39.8401
 20
8.0937
 11
39.7079
 21
8.10405
  0
LINE
  8
0
 10
39.7079
 20
8.10405
 11
39.5888
 21
8.13513
  0
LINE
  8
0
 10
39.5888
 20
8.13513
 11
39.4828
 21
8.1869
  0
LINE
  8
0
 10
39.4828
 20
8.1869
 11
39.39
 21
8.25941
  0
LINE
  8
0
 10
39.39
 20
8.25941
 11
39.3136
 21
8.35265
  0
LINE
  8
0
 10
39.3136
 20
8.35265
 11
39.2571
 21
8.46661
  0
LINE
  8
0
 10
39.2571
 20
8.46661
 11
39.2204
 21
8.60129
  0
LINE
  8
0
 10
39.2204
 20
8.60129
 11
39.2035
 21
8.75668
  0
LINE
  8
0
 10
39.2035
 20
8.75668
 11
41.2986
 21
8.75668
  0
LINE
  8
0
 10
41.2986
 20
8.75668
 11
41.2986
 21
8.99779
  0
LINE
  8
0
 10
41.2986
 20
8.99779
 11
41.2864
 21
9.24016
  0
LINE
  8
0
 10
41.2864
 20
9.24016
 11
41.2499
 21
9.4632
  0
LINE
  8
0
 10
41.2499
 20
9.4632
 11
41.1889
 21
9.66687
  0
LINE
  8
0
 10
41.1889
 20
9.66687
 11
41.1037
 21
9.85121
  0
LINE
  8
0
 10
41.1037
 20
9.85121
 11
40.9971
 21
10.0153
  0
LINE
  8
0
 10
40.9971
 20
10.0153
 11
40.8723
 21
10.1581
  0
LINE
  8
0
 10
40.8723
 20
10.1581
 11
40.7292
 21
10.2796
  0
LINE
  8
0
 10
40.7292
 20
10.2796
 11
40.568
 21
10.38
  0
LINE
  8
0
 10
40.568
 20
10.38
 11
40.3914
 21
10.4585
  0
LINE
  8
0
 10
40.3914
 20
10.4585
 11
40.2023
 21
10.5146
  0
LINE
  8
0
 10
40.2023
 20
10.5146
 11
40.0008
 21
10.5482
  0
LINE
  8
0
 10
40.0008
 20
10.5482
 11
39.7868
 21
10.5594
  0
LINE
  8
0
 10
39.7868
 20
10.5594
 11
39.559
 21
10.547
  0
LINE
  8
0
 10
39.559
 20
10.547
 11
39.3465
 21
10.5098
  0
LINE
  8
0
 10
39.3465
 20
10.5098
 11
39.1495
 21
10.4477
  0
LINE
  8
0
 10
39.1495
 20
10.4477
 11
38.9678
 21
10.3608
  0
LINE
  8
0
 10
38.9678
 20
10.3608
 11
38.8039
 21
10.2516
  0
LINE
  8
0
 10
38.8039
 20
10.2516
 11
38.6597
 21
10.1228
  0
LINE
  8
0
 10
38.6597
 20
10.1228
 11
38.5353
 21
9.97423
  0
LINE
  8
0
 10
38.5353
 20
9.97423
 11
38.4307
 21
9.806
  0
LINE
  8
0
 10
38.4307
 20
9.806
 11
38.3479
 21
9.62073
  0
LINE
  8
0
 10
38.3479
 20
9.62073
 11
38.2888
 21
9.42108
  0
LINE
  8
0
 10
38.2888
 20
9.42108
 11
38.2533
 21
9.20703
  0
LINE
  8
0
 10
38.2533
 20
9.20703
 11
38.2414
 21
8.97859
  0
LINE
  8
0
 10
38.2414
 20
8.97859
 11
38.2678
 21
8.62988
  0
LINE
  8
0
 10
38.2678
 20
8.62988
 11
38.347
 21
8.32074
  0
LINE
  8
0
 10
38.347
 20
8.32074
 11
38.4789
 21
8.05113
  0
LINE
  8
0
 10
38.4789
 20
8.05113
 11
38.6635
 21
7.82109
  0
LINE
  8
0
 10
38.6635
 20
7.82109
 11
38.8943
 21
7.6371
  0
LINE
  8
0
 10
38.8943
 20
7.6371
 11
39.1646
 21
7.50568
  0
LINE
  8
0
 10
39.1646
 20
7.50568
 11
39.4742
 21
7.42682
  0
LINE
  8
0
 10
39.4742
 20
7.42682
 11
39.8233
 21
7.40053
  0
LINE
  8
0
 10
39.8233
 20
7.40053
 11
40.0956
 21
7.41527
  0
LINE
  8
0
 10
39.2091
 20
9.31285
 11
39.2307
 21
9.43365
  0
LINE
  8
0
 10
39.2307
 20
9.43365
 11
39.2676
 21
9.54128
  0
LINE
  8
0
 10
39.2676
 20
9.54128
 11
39.3198
 21
9.63571
  0
LINE
  8
0
 10
39.3198
 20
9.63571
 11
39.3872
 21
9.71696
  0
LINE
  8
0
 10
39.3872
 20
9.71696
 11
39.4689
 21
9.78229
  0
LINE
  8
0
 10
39.4689
 20
9.78229
 11
39.5642
 21
9.82895
  0
LINE
  8
0
 10
39.5642
 20
9.82895
 11
39.673
 21
9.85695
  0
LINE
  8
0
 10
39.673
 20
9.85695
 11
39.7952
 21
9.86627
  0
LINE
  8
0
 10
39.7952
 20
9.86627
 11
39.916
 21
9.85712
  0
LINE
  8
0
 10
39.916
 20
9.85712
 11
40.0231
 21
9.82964
  0
LINE
  8
0
 10
40.0231
 20
9.82964
 11
40.1166
 21
9.78383
  0
LINE
  8
0
 10
40.1166
 20
9.78383
 11
40.1963
 21
9.71971
  0
LINE
  8
0
 10
40.1963
 20
9.71971
 11
40.2619
 21
9.63931
  0
LINE
  8
0
 10
40.2619
 20
9.63931
 11
40.3127
 21
9.54471
  0
LINE
  8
0
 10
40.3127
 20
9.54471
 11
40.3489
 21
9.4359
  0
LINE
  8
0
 10
40.3489
 20
9.4359
 11
40.3702
 21
9.31285
  0
LINE
  8
0
 10
40.3702
 20
9.31285
 11
39.2091
 21
9.31285
  0
LINE
  8
0
 10
18.4575
 20
7.41527
 11
18.7051
 21
7.45944
  0
LINE
  8
0
 10
18.7051
 20
7.45944
 11
18.928
 21
7.53307
  0
LINE
  8
0
 10
18.928
 20
7.53307
 11
19.1261
 21
7.63614
  0
LINE
  8
0
 10
19.1261
 20
7.63614
 11
19.2961
 21
7.76405
  0
LINE
  8
0
 10
19.2961
 20
7.76405
 11
19.4343
 21
7.91217
  0
LINE
  8
0
 10
19.4343
 20
7.91217
 11
19.5408
 21
8.08049
  0
LINE
  8
0
 10
19.5408
 20
8.08049
 11
19.6156
 21
8.26903
  0
LINE
  8
0
 10
19.6156
 20
8.26903
 11
18.7433
 21
8.40874
  0
LINE
  8
0
 10
18.7433
 20
8.40874
 11
18.7086
 21
8.33656
  0
LINE
  8
0
 10
18.7086
 20
8.33656
 11
18.6634
 21
8.27347
  0
LINE
  8
0
 10
18.6634
 20
8.27347
 11
18.6076
 21
8.21945
  0
LINE
  8
0
 10
18.6076
 20
8.21945
 11
18.5414
 21
8.1745
  0
LINE
  8
0
 10
18.5414
 20
8.1745
 11
18.4665
 21
8.13914
  0
LINE
  8
0
 10
18.4665
 20
8.13914
 11
18.385
 21
8.11389
  0
LINE
  8
0
 10
18.385
 20
8.11389
 11
18.2968
 21
8.09875
  0
LINE
  8
0
 10
18.2968
 20
8.09875
 11
18.202
 21
8.0937
  0
LINE
  8
0
 10
18.202
 20
8.0937
 11
18.0697
 21
8.10405
  0
LINE
  8
0
 10
18.0697
 20
8.10405
 11
17.9506
 21
8.13513
  0
LINE
  8
0
 10
17.9506
 20
8.13513
 11
17.8447
 21
8.1869
  0
LINE
  8
0
 10
17.8447
 20
8.1869
 11
17.7518
 21
8.25941
  0
LINE
  8
0
 10
17.7518
 20
8.25941
 11
17.6755
 21
8.35265
  0
LINE
  8
0
 10
17.6755
 20
8.35265
 11
17.619
 21
8.46661
  0
LINE
  8
0
 10
17.619
 20
8.46661
 11
17.5822
 21
8.60129
  0
LINE
  8
0
 10
17.5822
 20
8.60129
 11
17.5653
 21
8.75668
  0
LINE
  8
0
 10
17.5653
 20
8.75668
 11
19.6604
 21
8.75668
  0
LINE
  8
0
 10
19.6604
 20
8.75668
 11
19.6604
 21
8.99779
  0
LINE
  8
0
 10
19.6604
 20
8.99779
 11
19.6483
 21
9.24016
  0
LINE
  8
0
 10
19.6483
 20
9.24016
 11
19.6117
 21
9.4632
  0
LINE
  8
0
 10
19.6117
 20
9.4632
 11
19.5508
 21
9.66687
  0
LINE
  8
0
 10
19.5508
 20
9.66687
 11
19.4655
 21
9.85121
  0
LINE
  8
0
 10
19.4655
 20
9.85121
 11
19.3589
 21
10.0153
  0
LINE
  8
0
 10
19.3589
 20
10.0153
 11
19.2341
 21
10.1581
  0
LINE
  8
0
 10
19.2341
 20
10.1581
 11
19.0911
 21
10.2796
  0
LINE
  8
0
 10
19.0911
 20
10.2796
 11
18.9298
 21
10.38
  0
LINE
  8
0
 10
18.9298
 20
10.38
 11
18.7532
 21
10.4585
  0
LINE
  8
0
 10
18.7532
 20
10.4585
 11
18.5641
 21
10.5146
  0
LINE
  8
0
 10
18.5641
 20
10.5146
 11
18.3626
 21
10.5482
  0
LINE
  8
0
 10
18.3626
 20
10.5482
 11
18.1487
 21
10.5594
  0
LINE
  8
0
 10
18.1487
 20
10.5594
 11
17.9208
 21
10.547
  0
LINE
  8
0
 10
17.9208
 20
10.547
 11
17.7084
 21
10.5098
  0
LINE
  8
0
 10
17.7084
 20
10.5098
 11
17.5113
 21
10.4477
  0
LINE
  8
0
 10
17.5113
 20
10.4477
 11
17.3297
 21
10.3608
  0
LINE
  8
0
 10
17.3297
 20
10.3608
 11
17.1657
 21
10.2516
  0
LINE
  8
0
 10
17.1657
 20
10.2516
 11
17.0215
 21
10.1228
  0
LINE
  8
0
 10
17.0215
 20
10.1228
 11
16.8972
 21
9.97423
  0
LINE
  8
0
 10
16.8972
 20
9.97423
 11
16.7926
 21
9.806
  0
LINE
  8
0
 10
16.7926
 20
9.806
 11
16.7098
 21
9.62073
  0
LINE
  8
0
 10
16.7098
 20
9.62073
 11
16.6506
 21
9.42108
  0
LINE
  8
0
 10
16.6506
 20
9.42108
 11
16.6151
 21
9.20703
  0
LINE
  8
0
 10
16.6151
 20
9.20703
 11
16.6033
 21
8.97859
  0
LINE
  8
0
 10
16.6033
 20
8.97859
 11
16.6297
 21
8.62988
  0
LINE
  8
0
 10
16.6297
 20
8.62988
 11
16.7088
 21
8.32074
  0
LINE
  8
0
 10
16.7088
 20
8.32074
 11
16.8407
 21
8.05113
  0
LINE
  8
0
 10
16.8407
 20
8.05113
 11
17.0254
 21
7.82109
  0
LINE
  8
0
 10
17.0254
 20
7.82109
 11
17.2562
 21
7.6371
  0
LINE
  8
0
 10
17.2562
 20
7.6371
 11
17.5264
 21
7.50568
  0
LINE
  8
0
 10
17.5264
 20
7.50568
 11
17.8361
 21
7.42682
  0
LINE
  8
0
 10
17.8361
 20
7.42682
 11
18.1852
 21
7.40053
  0
LINE
  8
0
 10
18.1852
 20
7.40053
 11
18.4575
 21
7.41527
  0
LINE
  8
0
 10
17.5709
 20
9.31285
 11
17.5926
 21
9.43365
  0
LINE
  8
0
 10
17.5926
 20
9.43365
 11
17.6295
 21
9.54128
  0
LINE
  8
0
 10
17.6295
 20
9.54128
 11
17.6816
 21
9.63571
  0
LINE
  8
0
 10
17.6816
 20
9.63571
 11
17.749
 21
9.71696
  0
LINE
  8
0
 10
17.749
 20
9.71696
 11
17.8308
 21
9.78229
  0
LINE
  8
0
 10
17.8308
 20
9.78229
 11
17.9261
 21
9.82895
  0
LINE
  8
0
 10
17.9261
 20
9.82895
 11
18.0348
 21
9.85695
  0
LINE
  8
0
 10
18.0348
 20
9.85695
 11
18.1571
 21
9.86627
  0
LINE
  8
0
 10
18.1571
 20
9.86627
 11
18.2779
 21
9.85712
  0
LINE
  8
0
 10
18.2779
 20
9.85712
 11
18.385
 21
9.82964
  0
LINE
  8
0
 10
18.385
 20
9.82964
 11
18.4784
 21
9.78383
  0
LINE
  8
0
 10
18.4784
 20
9.78383
 11
18.5582
 21
9.71971
  0
LINE
  8
0
 10
18.5582
 20
9.71971
 11
18.6237
 21
9.63931
  0
LINE
  8
0
 10
18.6237
 20
9.63931
 11
18.6746
 21
9.54471
  0
LINE
  8
0
 10
18.6746
 20
9.54471
 11
18.7107
 21
9.4359
  0
LINE
  8
0
 10
18.7107
 20
9.4359
 11
18.7321
 21
9.31285
  0
LINE
  8
0
 10
18.7321
 20
9.31285
 11
17.5709
 21
9.31285
  0
LINE
  8
0
 10
25.5829
 20
10.5211
 11
24.604
 21
10.5211
  0
LINE
  8
0
 10
24.604
 20
10.5211
 11
24.604
 21
7.45805
  0
LINE
  8
0
 10
24.604
 20
7.45805
 11
25.5829
 21
7.45805
  0
LINE
  8
0
 10
25.5829
 20
7.45805
 11
25.5829
 21
10.5211
  0
LINE
  8
0
 10
9.42647
 20
1.4286
 11
9.48474
 21
1.49341
  0
LINE
  8
0
 10
9.48474
 20
1.49341
 11
9.53957
 21
1.55925
  0
LINE
  8
0
 10
9.53957
 20
1.55925
 11
9.59096
 21
1.62634
  0
LINE
  8
0
 10
9.59096
 20
1.62634
 11
9.63896
 21
1.69484
  0
LINE
  8
0
 10
9.63896
 20
1.69484
 11
9.68361
 21
1.76494
  0
LINE
  8
0
 10
9.68361
 20
1.76494
 11
9.72495
 21
1.83679
  0
LINE
  8
0
 10
9.72495
 20
1.83679
 11
9.763
 21
1.91058
  0
LINE
  8
0
 10
9.763
 20
1.91058
 11
9.79781
 21
1.9865
  0
LINE
  8
0
 10
9.79781
 20
1.9865
 11
9.82941
 21
2.0647
  0
LINE
  8
0
 10
9.82941
 20
2.0647
 11
9.85782
 21
2.14537
  0
LINE
  8
0
 10
9.85782
 20
2.14537
 11
9.8831
 21
2.2287
  0
LINE
  8
0
 10
9.8831
 20
2.2287
 11
9.90527
 21
2.31485
  0
LINE
  8
0
 10
9.90527
 20
2.31485
 11
9.92436
 21
2.40399
  0
LINE
  8
0
 10
9.92436
 20
2.40399
 11
9.94043
 21
2.49632
  0
LINE
  8
0
 10
9.94043
 20
2.49632
 11
9.95349
 21
2.592
  0
LINE
  8
0
 10
9.95349
 20
2.592
 11
9.96359
 21
2.69119
  0
LINE
  8
0
 10
9.96359
 20
2.69119
 11
9.97076
 21
2.79411
  0
LINE
  8
0
 10
9.97076
 20
2.79411
 11
9.97505
 21
2.90091
  0
LINE
  8
0
 10
9.97505
 20
2.90091
 11
9.97646
 21
3.01176
  0
LINE
  8
0
 10
9.97646
 20
3.01176
 11
9.97646
 21
10.3059
  0
LINE
  8
0
 10
9.97646
 20
10.3059
 11
7.01176
 21
8.70587
  0
LINE
  8
0
 10
7.01176
 20
8.70587
 11
7.01176
 21
2.91763
  0
LINE
  8
0
 10
7.01176
 20
2.91763
 11
9.3647
 21
1.3647
  0
LINE
  8
0
 10
9.3647
 20
1.3647
 11
9.42647
 21
1.4286
  0
LINE
  8
0
 10
42.5287
 20
7.4097
 11
42.6275
 21
7.43718
  0
LINE
  8
0
 10
42.6275
 20
7.43718
 11
42.7173
 21
7.48297
  0
LINE
  8
0
 10
42.7173
 20
7.48297
 11
42.7982
 21
7.5471
  0
LINE
  8
0
 10
42.7982
 20
7.5471
 11
42.8651
 21
7.62476
  0
LINE
  8
0
 10
42.8651
 20
7.62476
 11
42.9129
 21
7.71114
  0
LINE
  8
0
 10
42.9129
 20
7.71114
 11
42.9415
 21
7.80627
  0
LINE
  8
0
 10
42.9415
 20
7.80627
 11
42.9511
 21
7.91013
  0
LINE
  8
0
 10
42.9511
 20
7.91013
 11
42.9415
 21
8.01517
  0
LINE
  8
0
 10
42.9415
 20
8.01517
 11
42.9129
 21
8.11115
  0
LINE
  8
0
 10
42.9129
 20
8.11115
 11
42.8651
 21
8.19804
  0
LINE
  8
0
 10
42.8651
 20
8.19804
 11
42.7982
 21
8.27586
  0
LINE
  8
0
 10
42.7982
 20
8.27586
 11
42.7173
 21
8.34
  0
LINE
  8
0
 10
42.7173
 20
8.34
 11
42.6275
 21
8.38582
  0
LINE
  8
0
 10
42.6275
 20
8.38582
 11
42.5287
 21
8.4133
  0
LINE
  8
0
 10
42.5287
 20
8.4133
 11
42.421
 21
8.42247
  0
LINE
  8
0
 10
42.421
 20
8.42247
 11
42.3133
 21
8.4133
  0
LINE
  8
0
 10
42.3133
 20
8.4133
 11
42.2145
 21
8.38582
  0
LINE
  8
0
 10
42.2145
 20
8.38582
 11
42.1247
 21
8.34
  0
LINE
  8
0
 10
42.1247
 20
8.34
 11
42.0438
 21
8.27586
  0
LINE
  8
0
 10
42.0438
 20
8.27586
 11
41.9769
 21
8.19804
  0
LINE
  8
0
 10
41.9769
 20
8.19804
 11
41.9291
 21
8.11115
  0
LINE
  8
0
 10
41.9291
 20
8.11115
 11
41.9005
 21
8.01517
  0
LINE
  8
0
 10
41.9005
 20
8.01517
 11
41.8909
 21
7.91013
  0
LINE
  8
0
 10
41.8909
 20
7.91013
 11
41.9005
 21
7.80627
  0
LINE
  8
0
 10
41.9005
 20
7.80627
 11
41.9291
 21
7.71114
  0
LINE
  8
0
 10
41.9291
 20
7.71114
 11
41.9769
 21
7.62476
  0
LINE
  8
0
 10
41.9769
 20
7.62476
 11
42.0438
 21
7.5471
  0
LINE
  8
0
 10
42.0438
 20
7.5471
 11
42.1247
 21
7.48297
  0
LINE
  8
0
 10
42.1247
 20
7.48297
 11
42.2145
 21
7.43718
  0
LINE
  8
0
 10
42.2145
 20
7.43718
 11
42.3133
 21
7.4097
  0
LINE
  8
0
 10
42.3133
 20
7.4097
 11
42.421
 21
7.40053
  0
LINE
  8
0
 10
42.421
 20
7.40053
 11
42.5287
 21
7.4097
  0
LINE
  8
0
 10
109.037
 20
1.81268
 11
109.097
 21
1.81525
  0
LINE
  8
0
 10
109.097
 20
1.81525
 11
109.16
 21
1.81952
  0
LINE
  8
0
 10
109.16
 20
1.81952
 11
109.224
 21
1.82549
  0
LINE
  8
0
 10
109.224
 20
1.82549
 11
109.29
 21
1.83389
  0
LINE
  8
0
 10
109.29
 20
1.83389
 11
109.357
 21
1.84543
  0
LINE
  8
0
 10
109.357
 20
1.84543
 11
109.425
 21
1.86008
  0
LINE
  8
0
 10
109.425
 20
1.86008
 11
109.495
 21
1.87787
  0
LINE
  8
0
 10
109.495
 20
1.87787
 11
109.388
 21
2.45622
  0
LINE
  8
0
 10
109.388
 20
2.45622
 11
109.369
 21
2.45261
  0
LINE
  8
0
 10
109.369
 20
2.45261
 11
109.344
 21
2.44855
  0
LINE
  8
0
 10
109.344
 20
2.44855
 11
109.313
 21
2.44406
  0
LINE
  8
0
 10
109.313
 20
2.44406
 11
109.278
 21
2.43913
  0
LINE
  8
0
 10
109.278
 20
2.43913
 11
109.241
 21
2.43465
  0
LINE
  8
0
 10
109.241
 20
2.43465
 11
109.209
 21
2.43146
  0
LINE
  8
0
 10
109.209
 20
2.43146
 11
109.181
 21
2.42953
  0
LINE
  8
0
 10
109.181
 20
2.42953
 11
109.158
 21
2.42889
  0
LINE
  8
0
 10
109.158
 20
2.42889
 11
109.066
 21
2.44127
  0
LINE
  8
0
 10
109.066
 20
2.44127
 11
109
 21
2.47842
  0
LINE
  8
0
 10
109
 20
2.47842
 11
108.96
 21
2.54033
  0
LINE
  8
0
 10
108.96
 20
2.54033
 11
108.947
 21
2.627
  0
LINE
  8
0
 10
108.947
 20
2.627
 11
108.947
 21
3.80424
  0
LINE
  8
0
 10
108.947
 20
3.80424
 11
109.423
 21
3.80424
  0
LINE
  8
0
 10
109.423
 20
3.80424
 11
109.423
 21
4.394
  0
LINE
  8
0
 10
109.423
 20
4.394
 11
108.947
 21
4.394
  0
LINE
  8
0
 10
108.947
 20
4.394
 11
108.947
 21
4.99971
  0
LINE
  8
0
 10
108.947
 20
4.99971
 11
108.119
 21
4.99971
  0
LINE
  8
0
 10
108.119
 20
4.99971
 11
108.119
 21
4.394
  0
LINE
  8
0
 10
108.119
 20
4.394
 11
107.291
 21
4.394
  0
LINE
  8
0
 10
107.291
 20
4.394
 11
107.291
 21
4.53746
  0
LINE
  8
0
 10
107.291
 20
4.53746
 11
107.295
 21
4.59033
  0
LINE
  8
0
 10
107.295
 20
4.59033
 11
107.306
 21
4.63736
  0
LINE
  8
0
 10
107.306
 20
4.63736
 11
107.324
 21
4.67856
  0
LINE
  8
0
 10
107.324
 20
4.67856
 11
107.349
 21
4.7139
  0
LINE
  8
0
 10
107.349
 20
4.7139
 11
107.384
 21
4.74229
  0
LINE
  8
0
 10
107.384
 20
4.74229
 11
107.43
 21
4.76257
  0
LINE
  8
0
 10
107.43
 20
4.76257
 11
107.486
 21
4.77475
  0
LINE
  8
0
 10
107.486
 20
4.77475
 11
107.554
 21
4.77881
  0
LINE
  8
0
 10
107.554
 20
4.77881
 11
107.586
 21
4.77817
  0
LINE
  8
0
 10
107.586
 20
4.77817
 11
107.618
 21
4.77625
  0
LINE
  8
0
 10
107.618
 20
4.77625
 11
107.65
 21
4.77304
  0
LINE
  8
0
 10
107.65
 20
4.77304
 11
107.682
 21
4.76857
  0
LINE
  8
0
 10
107.682
 20
4.76857
 11
107.713
 21
4.76337
  0
LINE
  8
0
 10
107.713
 20
4.76337
 11
107.742
 21
4.75804
  0
LINE
  8
0
 10
107.742
 20
4.75804
 11
107.769
 21
4.75256
  0
LINE
  8
0
 10
107.769
 20
4.75256
 11
107.794
 21
4.74695
  0
LINE
  8
0
 10
107.794
 20
4.74695
 11
107.927
 21
5.32759
  0
LINE
  8
0
 10
107.927
 20
5.32759
 11
107.885
 21
5.3382
  0
LINE
  8
0
 10
107.885
 20
5.3382
 11
107.833
 21
5.3495
  0
LINE
  8
0
 10
107.833
 20
5.3495
 11
107.771
 21
5.36153
  0
LINE
  8
0
 10
107.771
 20
5.36153
 11
107.699
 21
5.37425
  0
LINE
  8
0
 10
107.699
 20
5.37425
 11
107.621
 21
5.38571
  0
LINE
  8
0
 10
107.621
 20
5.38571
 11
107.54
 21
5.39389
  0
LINE
  8
0
 10
107.54
 20
5.39389
 11
107.456
 21
5.3988
  0
LINE
  8
0
 10
107.456
 20
5.3988
 11
107.369
 21
5.40044
  0
LINE
  8
0
 10
107.369
 20
5.40044
 11
107.18
 21
5.38692
  0
LINE
  8
0
 10
107.18
 20
5.38692
 11
107.008
 21
5.34636
  0
LINE
  8
0
 10
107.008
 20
5.34636
 11
106.855
 21
5.27875
  0
LINE
  8
0
 10
106.855
 20
5.27875
 11
106.72
 21
5.18411
  0
LINE
  8
0
 10
106.72
 20
5.18411
 11
106.61
 21
5.06215
  0
LINE
  8
0
 10
106.61
 20
5.06215
 11
106.531
 21
4.91258
  0
LINE
  8
0
 10
106.531
 20
4.91258
 11
106.484
 21
4.73541
  0
LINE
  8
0
 10
106.484
 20
4.73541
 11
106.469
 21
4.53061
  0
LINE
  8
0
 10
106.469
 20
4.53061
 11
106.469
 21
4.394
  0
LINE
  8
0
 10
106.469
 20
4.394
 11
106.023
 21
4.394
  0
LINE
  8
0
 10
106.023
 20
4.394
 11
106.023
 21
3.80424
  0
LINE
  8
0
 10
106.023
 20
3.80424
 11
106.469
 21
3.80424
  0
LINE
  8
0
 10
106.469
 20
3.80424
 11
106.469
 21
1.84825
  0
LINE
  8
0
 10
106.469
 20
1.84825
 11
107.291
 21
1.84825
  0
LINE
  8
0
 10
107.291
 20
1.84825
 11
107.291
 21
3.80424
  0
LINE
  8
0
 10
107.291
 20
3.80424
 11
108.119
 21
3.80424
  0
LINE
  8
0
 10
108.119
 20
3.80424
 11
108.119
 21
2.55641
  0
LINE
  8
0
 10
108.119
 20
2.55641
 11
108.133
 21
2.38513
  0
LINE
  8
0
 10
108.133
 20
2.38513
 11
108.174
 21
2.23563
  0
LINE
  8
0
 10
108.174
 20
2.23563
 11
108.242
 21
2.10789
  0
LINE
  8
0
 10
108.242
 20
2.10789
 11
108.338
 21
2.00194
  0
LINE
  8
0
 10
108.338
 20
2.00194
 11
108.459
 21
1.91876
  0
LINE
  8
0
 10
108.459
 20
1.91876
 11
108.607
 21
1.85934
  0
LINE
  8
0
 10
108.607
 20
1.85934
 11
108.779
 21
1.82372
  0
LINE
  8
0
 10
108.779
 20
1.82372
 11
108.978
 21
1.81183
  0
LINE
  8
0
 10
108.978
 20
1.81183
 11
109.037
 21
1.81268
  0
LINE
  8
0
 10
13.1487
 20
1.81981
 11
13.4232
 21
1.87103
  0
LINE
  8
0
 10
13.4232
 20
1.87103
 11
13.6619
 21
1.95644
  0
LINE
  8
0
 10
13.6619
 20
1.95644
 11
13.8648
 21
2.07597
  0
LINE
  8
0
 10
13.8648
 20
2.07597
 11
14.0266
 21
2.22569
  0
LINE
  8
0
 10
14.0266
 20
2.22569
 11
14.1422
 21
2.40158
  0
LINE
  8
0
 10
14.1422
 20
2.40158
 11
14.2115
 21
2.60367
  0
LINE
  8
0
 10
14.2115
 20
2.60367
 11
14.2347
 21
2.83194
  0
LINE
  8
0
 10
14.2347
 20
2.83194
 11
14.2169
 21
3.02577
  0
LINE
  8
0
 10
14.2169
 20
3.02577
 11
14.1638
 21
3.19968
  0
LINE
  8
0
 10
14.1638
 20
3.19968
 11
14.0753
 21
3.35367
  0
LINE
  8
0
 10
14.0753
 20
3.35367
 11
13.9513
 21
3.48772
  0
LINE
  8
0
 10
13.9513
 20
3.48772
 11
13.7954
 21
3.60315
  0
LINE
  8
0
 10
13.7954
 20
3.60315
 11
13.6108
 21
3.7012
  0
LINE
  8
0
 10
13.6108
 20
3.7012
 11
13.3977
 21
3.78189
  0
LINE
  8
0
 10
13.3977
 20
3.78189
 11
13.1559
 21
3.84521
  0
LINE
  8
0
 10
13.1559
 20
3.84521
 11
12.8501
 21
3.91354
  0
LINE
  8
0
 10
12.8501
 20
3.91354
 11
12.7375
 21
3.9408
  0
LINE
  8
0
 10
12.7375
 20
3.9408
 11
12.6367
 21
3.97246
  0
LINE
  8
0
 10
12.6367
 20
3.97246
 11
12.5478
 21
4.00854
  0
LINE
  8
0
 10
12.5478
 20
4.00854
 11
12.4708
 21
4.04903
  0
LINE
  8
0
 10
12.4708
 20
4.04903
 11
12.4085
 21
4.09621
  0
LINE
  8
0
 10
12.4085
 20
4.09621
 11
12.3641
 21
4.15234
  0
LINE
  8
0
 10
12.3641
 20
4.15234
 11
12.3374
 21
4.21747
  0
LINE
  8
0
 10
12.3374
 20
4.21747
 11
12.3285
 21
4.29155
  0
LINE
  8
0
 10
12.3285
 20
4.29155
 11
12.3365
 21
4.35913
  0
LINE
  8
0
 10
12.3365
 20
4.35913
 11
12.3605
 21
4.42075
  0
LINE
  8
0
 10
12.3605
 20
4.42075
 11
12.4005
 21
4.47638
  0
LINE
  8
0
 10
12.4005
 20
4.47638
 11
12.4565
 21
4.52605
  0
LINE
  8
0
 10
12.4565
 20
4.52605
 11
12.5282
 21
4.56689
  0
LINE
  8
0
 10
12.5282
 20
4.56689
 11
12.6154
 21
4.59607
  0
LINE
  8
0
 10
12.6154
 20
4.59607
 11
12.7179
 21
4.61359
  0
LINE
  8
0
 10
12.7179
 20
4.61359
 11
12.8359
 21
4.61943
  0
LINE
  8
0
 10
12.8359
 20
4.61943
 11
12.9546
 21
4.61301
  0
LINE
  8
0
 10
12.9546
 20
4.61301
 11
13.0593
 21
4.5938
  0
LINE
  8
0
 10
13.0593
 20
4.5938
 11
13.1501
 21
4.56178
  0
LINE
  8
0
 10
13.1501
 20
4.56178
 11
13.227
 21
4.51695
  0
LINE
  8
0
 10
13.227
 20
4.51695
 11
13.2893
 21
4.4606
  0
LINE
  8
0
 10
13.2893
 20
4.4606
 11
13.3361
 21
4.394
  0
LINE
  8
0
 10
13.3361
 20
4.394
 11
13.3675
 21
4.31714
  0
LINE
  8
0
 10
13.3675
 20
4.31714
 11
13.3835
 21
4.23003
  0
LINE
  8
0
 10
13.3835
 20
4.23003
 11
14.1872
 21
4.23003
  0
LINE
  8
0
 10
14.1872
 20
4.23003
 11
14.1748
 21
4.38239
  0
LINE
  8
0
 10
14.1748
 20
4.38239
 11
14.1422
 21
4.52521
  0
LINE
  8
0
 10
14.1422
 20
4.52521
 11
14.0894
 21
4.65849
  0
LINE
  8
0
 10
14.0894
 20
4.65849
 11
14.0165
 21
4.78223
  0
LINE
  8
0
 10
14.0165
 20
4.78223
 11
13.9251
 21
4.89467
  0
LINE
  8
0
 10
13.9251
 20
4.89467
 11
13.8168
 21
4.994
  0
LINE
  8
0
 10
13.8168
 20
4.994
 11
13.6916
 21
5.08025
  0
LINE
  8
0
 10
13.6916
 20
5.08025
 11
13.5495
 21
5.15338
  0
LINE
  8
0
 10
13.5495
 20
5.15338
 11
13.3921
 21
5.21169
  0
LINE
  8
0
 10
13.3921
 20
5.21169
 11
13.2211
 21
5.25331
  0
LINE
  8
0
 10
13.2211
 20
5.25331
 11
13.0365
 21
5.27829
  0
LINE
  8
0
 10
13.0365
 20
5.27829
 11
12.8382
 21
5.28662
  0
LINE
  8
0
 10
12.8382
 20
5.28662
 11
12.6435
 21
5.27837
  0
LINE
  8
0
 10
12.6435
 20
5.27837
 11
12.4601
 21
5.2536
  0
LINE
  8
0
 10
12.4601
 20
5.2536
 11
12.2879
 21
5.21233
  0
LINE
  8
0
 10
12.2879
 20
5.21233
 11
12.127
 21
5.15453
  0
LINE
  8
0
 10
12.127
 20
5.15453
 11
11.9801
 21
5.08203
  0
LINE
  8
0
 10
11.9801
 20
5.08203
 11
11.8499
 21
4.99657
  0
LINE
  8
0
 10
11.8499
 20
4.99657
 11
11.7365
 21
4.89816
  0
LINE
  8
0
 10
11.7365
 20
4.89816
 11
11.6398
 21
4.7868
  0
LINE
  8
0
 10
11.6398
 20
4.7868
 11
11.5625
 21
4.66405
  0
LINE
  8
0
 10
11.5625
 20
4.66405
 11
11.5073
 21
4.53148
  0
LINE
  8
0
 10
11.5073
 20
4.53148
 11
11.4742
 21
4.3891
  0
LINE
  8
0
 10
11.4742
 20
4.3891
 11
11.4632
 21
4.23688
  0
LINE
  8
0
 10
11.4632
 20
4.23688
 11
11.4795
 21
4.05528
  0
LINE
  8
0
 10
11.4795
 20
4.05528
 11
11.5284
 21
3.89305
  0
LINE
  8
0
 10
11.5284
 20
3.89305
 11
11.6098
 21
3.75017
  0
LINE
  8
0
 10
11.6098
 20
3.75017
 11
11.7239
 21
3.62663
  0
LINE
  8
0
 10
11.7239
 20
3.62663
 11
11.8666
 21
3.52074
  0
LINE
  8
0
 10
11.8666
 20
3.52074
 11
12.0339
 21
3.4308
  0
LINE
  8
0
 10
12.0339
 20
3.4308
 11
12.2258
 21
3.3568
  0
LINE
  8
0
 10
12.2258
 20
3.3568
 11
12.4423
 21
3.29872
  0
LINE
  8
0
 10
12.4423
 20
3.29872
 11
12.8169
 21
3.21448
  0
LINE
  8
0
 10
12.8169
 20
3.21448
 11
12.9523
 21
3.18124
  0
LINE
  8
0
 10
12.9523
 20
3.18124
 11
13.0691
 21
3.14531
  0
LINE
  8
0
 10
13.0691
 20
3.14531
 11
13.1674
 21
3.10667
  0
LINE
  8
0
 10
13.1674
 20
3.10667
 11
13.2472
 21
3.06534
  0
LINE
  8
0
 10
13.2472
 20
3.06534
 11
13.3089
 21
3.01888
  0
LINE
  8
0
 10
13.3089
 20
3.01888
 11
13.353
 21
2.96486
  0
LINE
  8
0
 10
13.353
 20
2.96486
 11
13.3795
 21
2.90332
  0
LINE
  8
0
 10
13.3795
 20
2.90332
 11
13.3883
 21
2.83423
  0
LINE
  8
0
 10
13.3883
 20
2.83423
 11
13.3789
 21
2.75716
  0
LINE
  8
0
 10
13.3789
 20
2.75716
 11
13.3509
 21
2.68764
  0
LINE
  8
0
 10
13.3509
 20
2.68764
 11
13.3042
 21
2.62566
  0
LINE
  8
0
 10
13.3042
 20
2.62566
 11
13.2389
 21
2.57123
  0
LINE
  8
0
 10
13.2389
 20
2.57123
 11
13.1572
 21
2.52689
  0
LINE
  8
0
 10
13.1572
 20
2.52689
 11
13.0617
 21
2.49522
  0
LINE
  8
0
 10
13.0617
 20
2.49522
 11
12.9522
 21
2.47623
  0
LINE
  8
0
 10
12.9522
 20
2.47623
 11
12.8288
 21
2.46989
  0
LINE
  8
0
 10
12.8288
 20
2.46989
 11
12.6922
 21
2.47772
  0
LINE
  8
0
 10
12.6922
 20
2.47772
 11
12.5694
 21
2.50121
  0
LINE
  8
0
 10
12.5694
 20
2.50121
 11
12.4604
 21
2.54034
  0
LINE
  8
0
 10
12.4604
 20
2.54034
 11
12.3652
 21
2.59514
  0
LINE
  8
0
 10
12.3652
 20
2.59514
 11
12.2871
 21
2.66544
  0
LINE
  8
0
 10
12.2871
 20
2.66544
 11
12.2292
 21
2.75111
  0
LINE
  8
0
 10
12.2292
 20
2.75111
 11
12.1917
 21
2.85216
  0
LINE
  8
0
 10
12.1917
 20
2.85216
 11
12.1744
 21
2.96857
  0
LINE
  8
0
 10
12.1744
 20
2.96857
 11
11.3707
 21
2.96857
  0
LINE
  8
0
 10
11.3707
 20
2.96857
 11
11.3997
 21
2.69347
  0
LINE
  8
0
 10
11.3997
 20
2.69347
 11
11.4771
 21
2.45566
  0
LINE
  8
0
 10
11.4771
 20
2.45566
 11
11.603
 21
2.25513
  0
LINE
  8
0
 10
11.603
 20
2.25513
 11
11.7773
 21
2.09189
  0
LINE
  8
0
 10
11.7773
 20
2.09189
 11
11.9925
 21
1.96538
  0
LINE
  8
0
 10
11.9925
 20
1.96538
 11
12.2411
 21
1.87502
  0
LINE
  8
0
 10
12.2411
 20
1.87502
 11
12.523
 21
1.8208
  0
LINE
  8
0
 10
12.523
 20
1.8208
 11
12.8382
 21
1.80273
  0
LINE
  8
0
 10
12.8382
 20
1.80273
 11
13.1487
 21
1.81981
  0
LINE
  8
0
 10
94.7593
 20
1.83141
 11
95.0525
 21
1.91743
  0
LINE
  8
0
 10
95.0525
 20
1.91743
 11
95.3064
 21
2.06081
  0
LINE
  8
0
 10
95.3064
 20
2.06081
 11
95.521
 21
2.26155
  0
LINE
  8
0
 10
95.521
 20
2.26155
 11
95.6917
 21
2.51366
  0
LINE
  8
0
 10
95.6917
 20
2.51366
 11
95.8135
 21
2.81117
  0
LINE
  8
0
 10
95.8135
 20
2.81117
 11
95.8867
 21
3.15408
  0
LINE
  8
0
 10
95.8867
 20
3.15408
 11
95.911
 21
3.54239
  0
LINE
  8
0
 10
95.911
 20
3.54239
 11
95.9
 21
3.80688
  0
LINE
  8
0
 10
95.9
 20
3.80688
 11
95.8669
 21
4.05159
  0
LINE
  8
0
 10
95.8669
 20
4.05159
 11
95.8117
 21
4.27652
  0
LINE
  8
0
 10
95.8117
 20
4.27652
 11
95.7344
 21
4.48166
  0
LINE
  8
0
 10
95.7344
 20
4.48166
 11
95.6364
 21
4.66547
  0
LINE
  8
0
 10
95.6364
 20
4.66547
 11
95.5189
 21
4.82635
  0
LINE
  8
0
 10
95.5189
 20
4.82635
 11
95.3821
 21
4.96432
  0
LINE
  8
0
 10
95.3821
 20
4.96432
 11
95.2258
 21
5.07938
  0
LINE
  8
0
 10
95.2258
 20
5.07938
 11
95.0514
 21
5.17004
  0
LINE
  8
0
 10
95.0514
 20
5.17004
 11
94.8601
 21
5.23482
  0
LINE
  8
0
 10
94.8601
 20
5.23482
 11
94.652
 21
5.27367
  0
LINE
  8
0
 10
94.652
 20
5.27367
 11
94.4269
 21
5.28662
  0
LINE
  8
0
 10
94.4269
 20
5.28662
 11
94.0964
 21
5.25787
  0
LINE
  8
0
 10
94.0964
 20
5.25787
 11
93.8042
 21
5.17162
  0
LINE
  8
0
 10
93.8042
 20
5.17162
 11
93.5505
 21
5.02786
  0
LINE
  8
0
 10
93.5505
 20
5.02786
 11
93.3351
 21
4.82661
  0
LINE
  8
0
 10
93.3351
 20
4.82661
 11
93.1635
 21
4.57387
  0
LINE
  8
0
 10
93.1635
 20
4.57387
 11
93.0408
 21
4.27557
  0
LINE
  8
0
 10
93.0408
 20
4.27557
 11
92.9673
 21
3.93176
  0
LINE
  8
0
 10
92.9673
 20
3.93176
 11
92.9427
 21
3.54239
  0
LINE
  8
0
 10
92.9427
 20
3.54239
 11
92.9673
 21
3.15315
  0
LINE
  8
0
 10
92.9673
 20
3.15315
 11
93.0408
 21
2.80974
  0
LINE
  8
0
 10
93.0408
 20
2.80974
 11
93.1635
 21
2.51216
  0
LINE
  8
0
 10
93.1635
 20
2.51216
 11
93.3351
 21
2.26041
  0
LINE
  8
0
 10
93.3351
 20
2.26041
 11
93.5505
 21
2.06017
  0
LINE
  8
0
 10
93.5505
 20
2.06017
 11
93.8042
 21
1.91714
  0
LINE
  8
0
 10
93.8042
 20
1.91714
 11
94.0964
 21
1.83133
  0
LINE
  8
0
 10
94.0964
 20
1.83133
 11
94.4269
 21
1.80273
  0
LINE
  8
0
 10
94.4269
 20
1.80273
 11
94.7593
 21
1.83141
  0
LINE
  8
0
 10
94.2852
 20
2.4783
 11
94.1611
 21
2.53081
  0
LINE
  8
0
 10
94.1611
 20
2.53081
 11
94.0546
 21
2.61833
  0
LINE
  8
0
 10
94.0546
 20
2.61833
 11
93.9658
 21
2.74084
  0
LINE
  8
0
 10
93.9658
 20
2.74084
 11
93.8957
 21
2.89598
  0
LINE
  8
0
 10
93.8957
 20
2.89598
 11
93.8457
 21
3.08128
  0
LINE
  8
0
 10
93.8457
 20
3.08128
 11
93.8157
 21
3.29675
  0
LINE
  8
0
 10
93.8157
 20
3.29675
 11
93.8057
 21
3.54239
  0
LINE
  8
0
 10
93.8057
 20
3.54239
 11
93.8158
 21
3.78925
  0
LINE
  8
0
 10
93.8158
 20
3.78925
 11
93.846
 21
4.00606
  0
LINE
  8
0
 10
93.846
 20
4.00606
 11
93.8964
 21
4.19284
  0
LINE
  8
0
 10
93.8964
 20
4.19284
 11
93.9669
 21
4.34959
  0
LINE
  8
0
 10
93.9669
 20
4.34959
 11
94.0561
 21
4.47363
  0
LINE
  8
0
 10
94.0561
 20
4.47363
 11
94.1625
 21
4.56221
  0
LINE
  8
0
 10
94.1625
 20
4.56221
 11
94.2861
 21
4.61537
  0
LINE
  8
0
 10
94.2861
 20
4.61537
 11
94.4269
 21
4.63309
  0
LINE
  8
0
 10
94.4269
 20
4.63309
 11
94.5687
 21
4.61537
  0
LINE
  8
0
 10
94.5687
 20
4.61537
 11
94.693
 21
4.56221
  0
LINE
  8
0
 10
94.693
 20
4.56221
 11
94.7998
 21
4.47363
  0
LINE
  8
0
 10
94.7998
 20
4.47363
 11
94.8892
 21
4.34959
  0
LINE
  8
0
 10
94.8892
 20
4.34959
 11
94.9597
 21
4.19284
  0
LINE
  8
0
 10
94.9597
 20
4.19284
 11
95.0101
 21
4.00606
  0
LINE
  8
0
 10
95.0101
 20
4.00606
 11
95.0403
 21
3.78925
  0
LINE
  8
0
 10
95.0403
 20
3.78925
 11
95.0504
 21
3.54239
  0
LINE
  8
0
 10
95.0504
 20
3.54239
 11
95.0403
 21
3.29675
  0
LINE
  8
0
 10
95.0403
 20
3.29675
 11
95.0101
 21
3.08128
  0
LINE
  8
0
 10
95.0101
 20
3.08128
 11
94.9597
 21
2.89598
  0
LINE
  8
0
 10
94.9597
 20
2.89598
 11
94.8892
 21
2.74084
  0
LINE
  8
0
 10
94.8892
 20
2.74084
 11
94.7998
 21
2.61833
  0
LINE
  8
0
 10
94.7998
 20
2.61833
 11
94.693
 21
2.53081
  0
LINE
  8
0
 10
94.693
 20
2.53081
 11
94.5687
 21
2.4783
  0
LINE
  8
0
 10
94.5687
 20
2.4783
 11
94.4269
 21
2.4608
  0
LINE
  8
0
 10
94.4269
 20
2.4608
 11
94.2852
 21
2.4783
  0
LINE
  8
0
 10
90.0986
 20
1.83141
 11
90.3918
 21
1.91743
  0
LINE
  8
0
 10
90.3918
 20
1.91743
 11
90.6457
 21
2.06081
  0
LINE
  8
0
 10
90.6457
 20
2.06081
 11
90.8604
 21
2.26155
  0
LINE
  8
0
 10
90.8604
 20
2.26155
 11
91.031
 21
2.51366
  0
LINE
  8
0
 10
91.031
 20
2.51366
 11
91.1528
 21
2.81117
  0
LINE
  8
0
 10
91.1528
 20
2.81117
 11
91.226
 21
3.15408
  0
LINE
  8
0
 10
91.226
 20
3.15408
 11
91.2504
 21
3.54239
  0
LINE
  8
0
 10
91.2504
 20
3.54239
 11
91.2393
 21
3.80688
  0
LINE
  8
0
 10
91.2393
 20
3.80688
 11
91.2062
 21
4.05159
  0
LINE
  8
0
 10
91.2062
 20
4.05159
 11
91.151
 21
4.27652
  0
LINE
  8
0
 10
91.151
 20
4.27652
 11
91.0737
 21
4.48166
  0
LINE
  8
0
 10
91.0737
 20
4.48166
 11
90.9757
 21
4.66547
  0
LINE
  8
0
 10
90.9757
 20
4.66547
 11
90.8583
 21
4.82635
  0
LINE
  8
0
 10
90.8583
 20
4.82635
 11
90.7214
 21
4.96432
  0
LINE
  8
0
 10
90.7214
 20
4.96432
 11
90.5652
 21
5.07938
  0
LINE
  8
0
 10
90.5652
 20
5.07938
 11
90.3907
 21
5.17004
  0
LINE
  8
0
 10
90.3907
 20
5.17004
 11
90.1995
 21
5.23482
  0
LINE
  8
0
 10
90.1995
 20
5.23482
 11
89.9913
 21
5.27367
  0
LINE
  8
0
 10
89.9913
 20
5.27367
 11
89.7662
 21
5.28662
  0
LINE
  8
0
 10
89.7662
 20
5.28662
 11
89.4357
 21
5.25787
  0
LINE
  8
0
 10
89.4357
 20
5.25787
 11
89.1436
 21
5.17162
  0
LINE
  8
0
 10
89.1436
 20
5.17162
 11
88.8898
 21
5.02786
  0
LINE
  8
0
 10
88.8898
 20
5.02786
 11
88.6744
 21
4.82661
  0
LINE
  8
0
 10
88.6744
 20
4.82661
 11
88.5028
 21
4.57387
  0
LINE
  8
0
 10
88.5028
 20
4.57387
 11
88.3801
 21
4.27557
  0
LINE
  8
0
 10
88.3801
 20
4.27557
 11
88.3066
 21
3.93176
  0
LINE
  8
0
 10
88.3066
 20
3.93176
 11
88.2821
 21
3.54239
  0
LINE
  8
0
 10
88.2821
 20
3.54239
 11
88.3066
 21
3.15315
  0
LINE
  8
0
 10
88.3066
 20
3.15315
 11
88.3801
 21
2.80974
  0
LINE
  8
0
 10
88.3801
 20
2.80974
 11
88.5028
 21
2.51216
  0
LINE
  8
0
 10
88.5028
 20
2.51216
 11
88.6744
 21
2.26041
  0
LINE
  8
0
 10
88.6744
 20
2.26041
 11
88.8898
 21
2.06017
  0
LINE
  8
0
 10
88.8898
 20
2.06017
 11
89.1436
 21
1.91714
  0
LINE
  8
0
 10
89.1436
 20
1.91714
 11
89.4357
 21
1.83133
  0
LINE
  8
0
 10
89.4357
 20
1.83133
 11
89.7662
 21
1.80273
  0
LINE
  8
0
 10
89.7662
 20
1.80273
 11
90.0986
 21
1.83141
  0
LINE
  8
0
 10
89.6245
 20
2.4783
 11
89.5004
 21
2.53081
  0
LINE
  8
0
 10
89.5004
 20
2.53081
 11
89.3939
 21
2.61833
  0
LINE
  8
0
 10
89.3939
 20
2.61833
 11
89.3051
 21
2.74084
  0
LINE
  8
0
 10
89.3051
 20
2.74084
 11
89.2351
 21
2.89598
  0
LINE
  8
0
 10
89.2351
 20
2.89598
 11
89.185
 21
3.08128
  0
LINE
  8
0
 10
89.185
 20
3.08128
 11
89.155
 21
3.29675
  0
LINE
  8
0
 10
89.155
 20
3.29675
 11
89.145
 21
3.54239
  0
LINE
  8
0
 10
89.145
 20
3.54239
 11
89.1551
 21
3.78925
  0
LINE
  8
0
 10
89.1551
 20
3.78925
 11
89.1853
 21
4.00606
  0
LINE
  8
0
 10
89.1853
 20
4.00606
 11
89.2357
 21
4.19284
  0
LINE
  8
0
 10
89.2357
 20
4.19284
 11
89.3062
 21
4.34959
  0
LINE
  8
0
 10
89.3062
 20
4.34959
 11
89.3954
 21
4.47363
  0
LINE
  8
0
 10
89.3954
 20
4.47363
 11
89.5018
 21
4.56221
  0
LINE
  8
0
 10
89.5018
 20
4.56221
 11
89.6254
 21
4.61537
  0
LINE
  8
0
 10
89.6254
 20
4.61537
 11
89.7662
 21
4.63309
  0
LINE
  8
0
 10
89.7662
 20
4.63309
 11
89.908
 21
4.61537
  0
LINE
  8
0
 10
89.908
 20
4.61537
 11
90.0323
 21
4.56221
  0
LINE
  8
0
 10
90.0323
 20
4.56221
 11
90.1391
 21
4.47363
  0
LINE
  8
0
 10
90.1391
 20
4.47363
 11
90.2285
 21
4.34959
  0
LINE
  8
0
 10
90.2285
 20
4.34959
 11
90.299
 21
4.19284
  0
LINE
  8
0
 10
90.299
 20
4.19284
 11
90.3494
 21
4.00606
  0
LINE
  8
0
 10
90.3494
 20
4.00606
 11
90.3797
 21
3.78925
  0
LINE
  8
0
 10
90.3797
 20
3.78925
 11
90.3897
 21
3.54239
  0
LINE
  8
0
 10
90.3897
 20
3.54239
 11
90.3797
 21
3.29675
  0
LINE
  8
0
 10
90.3797
 20
3.29675
 11
90.3494
 21
3.08128
  0
LINE
  8
0
 10
90.3494
 20
3.08128
 11
90.299
 21
2.89598
  0
LINE
  8
0
 10
90.299
 20
2.89598
 11
90.2285
 21
2.74084
  0
LINE
  8
0
 10
90.2285
 20
2.74084
 11
90.1391
 21
2.61833
  0
LINE
  8
0
 10
90.1391
 20
2.61833
 11
90.0323
 21
2.53081
  0
LINE
  8
0
 10
90.0323
 20
2.53081
 11
89.908
 21
2.4783
  0
LINE
  8
0
 10
89.908
 20
2.4783
 11
89.7662
 21
2.4608
  0
LINE
  8
0
 10
89.7662
 20
2.4608
 11
89.6245
 21
2.4783
  0
LINE
  8
0
 10
19.9874
 20
1.81532
 11
20.2062
 21
1.8531
  0
LINE
  8
0
 10
20.2062
 20
1.8531
 11
20.4136
 21
1.91606
  0
LINE
  8
0
 10
20.4136
 20
1.91606
 11
20.6095
 21
2.00423
  0
LINE
  8
0
 10
20.6095
 20
2.00423
 11
20.7899
 21
2.11673
  0
LINE
  8
0
 10
20.7899
 20
2.11673
 11
20.9506
 21
2.2527
  0
LINE
  8
0
 10
20.9506
 20
2.2527
 11
21.0916
 21
2.41217
  0
LINE
  8
0
 10
21.0916
 20
2.41217
 11
21.2129
 21
2.59514
  0
LINE
  8
0
 10
21.2129
 20
2.59514
 11
21.3104
 21
2.80035
  0
LINE
  8
0
 10
21.3104
 20
2.80035
 11
21.38
 21
3.02664
  0
LINE
  8
0
 10
21.38
 20
3.02664
 11
21.4218
 21
3.27399
  0
LINE
  8
0
 10
21.4218
 20
3.27399
 11
21.4357
 21
3.54239
  0
LINE
  8
0
 10
21.4357
 20
3.54239
 11
21.4218
 21
3.8118
  0
LINE
  8
0
 10
21.4218
 20
3.8118
 11
21.38
 21
4.05984
  0
LINE
  8
0
 10
21.38
 20
4.05984
 11
21.3104
 21
4.28654
  0
LINE
  8
0
 10
21.3104
 20
4.28654
 11
21.2129
 21
4.4919
  0
LINE
  8
0
 10
21.2129
 20
4.4919
 11
21.0916
 21
4.67493
  0
LINE
  8
0
 10
21.0916
 20
4.67493
 11
20.9506
 21
4.83461
  0
LINE
  8
0
 10
20.9506
 20
4.83461
 11
20.7899
 21
4.97095
  0
LINE
  8
0
 10
20.7899
 20
4.97095
 11
20.6095
 21
5.08395
  0
LINE
  8
0
 10
20.6095
 20
5.08395
 11
20.4136
 21
5.17262
  0
LINE
  8
0
 10
20.4136
 20
5.17262
 11
20.2062
 21
5.23595
  0
LINE
  8
0
 10
20.2062
 20
5.23595
 11
19.9874
 21
5.27396
  0
LINE
  8
0
 10
19.9874
 20
5.27396
 11
19.7572
 21
5.28662
  0
LINE
  8
0
 10
19.7572
 20
5.28662
 11
19.5249
 21
5.27396
  0
LINE
  8
0
 10
19.5249
 20
5.27396
 11
19.3047
 21
5.23595
  0
LINE
  8
0
 10
19.3047
 20
5.23595
 11
19.0964
 21
5.17262
  0
LINE
  8
0
 10
19.0964
 20
5.17262
 11
18.9001
 21
5.08395
  0
LINE
  8
0
 10
18.9001
 20
5.08395
 11
18.7197
 21
4.97095
  0
LINE
  8
0
 10
18.7197
 20
4.97095
 11
18.5591
 21
4.83461
  0
LINE
  8
0
 10
18.5591
 20
4.83461
 11
18.4181
 21
4.67493
  0
LINE
  8
0
 10
18.4181
 20
4.67493
 11
18.2968
 21
4.4919
  0
LINE
  8
0
 10
18.2968
 20
4.4919
 11
18.1993
 21
4.28654
  0
LINE
  8
0
 10
18.1993
 20
4.28654
 11
18.1296
 21
4.05984
  0
LINE
  8
0
 10
18.1296
 20
4.05984
 11
18.0878
 21
3.8118
  0
LINE
  8
0
 10
18.0878
 20
3.8118
 11
18.0739
 21
3.54239
  0
LINE
  8
0
 10
18.0739
 20
3.54239
 11
18.0878
 21
3.27496
  0
LINE
  8
0
 10
18.0878
 20
3.27496
 11
18.1296
 21
3.02832
  0
LINE
  8
0
 10
18.1296
 20
3.02832
 11
18.1993
 21
2.80246
  0
LINE
  8
0
 10
18.1993
 20
2.80246
 11
18.2968
 21
2.59738
  0
LINE
  8
0
 10
18.2968
 20
2.59738
 11
18.4181
 21
2.41437
  0
LINE
  8
0
 10
18.4181
 20
2.41437
 11
18.5591
 21
2.2547
  0
LINE
  8
0
 10
18.5591
 20
2.2547
 11
18.7197
 21
2.11836
  0
LINE
  8
0
 10
18.7197
 20
2.11836
 11
18.9001
 21
2.00536
  0
LINE
  8
0
 10
18.9001
 20
2.00536
 11
19.0964
 21
1.9167
  0
LINE
  8
0
 10
19.0964
 20
1.9167
 11
19.3047
 21
1.85338
  0
LINE
  8
0
 10
19.3047
 20
1.85338
 11
19.5249
 21
1.8154
  0
LINE
  8
0
 10
19.5249
 20
1.8154
 11
19.7572
 21
1.80273
  0
LINE
  8
0
 10
19.7572
 20
1.80273
 11
19.9874
 21
1.81532
  0
LINE
  8
0
 10
19.5744
 20
2.52518
 11
19.4122
 21
2.57492
  0
LINE
  8
0
 10
19.4122
 20
2.57492
 11
19.2709
 21
2.65781
  0
LINE
  8
0
 10
19.2709
 20
2.65781
 11
19.1503
 21
2.77385
  0
LINE
  8
0
 10
19.1503
 20
2.77385
 11
19.0538
 21
2.92137
  0
LINE
  8
0
 10
19.0538
 20
2.92137
 11
18.9849
 21
3.09863
  0
LINE
  8
0
 10
18.9849
 20
3.09863
 11
18.9436
 21
3.30563
  0
LINE
  8
0
 10
18.9436
 20
3.30563
 11
18.9298
 21
3.54239
  0
LINE
  8
0
 10
18.9298
 20
3.54239
 11
18.9436
 21
3.7802
  0
LINE
  8
0
 10
18.9436
 20
3.7802
 11
18.9849
 21
3.98811
  0
LINE
  8
0
 10
18.9849
 20
3.98811
 11
19.0538
 21
4.16614
  0
LINE
  8
0
 10
19.0538
 20
4.16614
 11
19.1503
 21
4.31427
  0
LINE
  8
0
 10
19.1503
 20
4.31427
 11
19.2709
 21
4.43085
  0
LINE
  8
0
 10
19.2709
 20
4.43085
 11
19.4122
 21
4.5141
  0
LINE
  8
0
 10
19.4122
 20
4.5141
 11
19.5744
 21
4.56406
  0
LINE
  8
0
 10
19.5744
 20
4.56406
 11
19.7572
 21
4.5807
  0
LINE
  8
0
 10
19.7572
 20
4.5807
 11
19.939
 21
4.56406
  0
LINE
  8
0
 10
19.939
 20
4.56406
 11
20.1004
 21
4.5141
  0
LINE
  8
0
 10
20.1004
 20
4.5141
 11
20.2413
 21
4.43085
  0
LINE
  8
0
 10
20.2413
 20
4.43085
 11
20.3618
 21
4.31427
  0
LINE
  8
0
 10
20.3618
 20
4.31427
 11
20.4582
 21
4.16614
  0
LINE
  8
0
 10
20.4582
 20
4.16614
 11
20.5271
 21
3.98811
  0
LINE
  8
0
 10
20.5271
 20
3.98811
 11
20.5685
 21
3.7802
  0
LINE
  8
0
 10
20.5685
 20
3.7802
 11
20.5822
 21
3.54239
  0
LINE
  8
0
 10
20.5822
 20
3.54239
 11
20.5685
 21
3.30563
  0
LINE
  8
0
 10
20.5685
 20
3.30563
 11
20.5271
 21
3.09863
  0
LINE
  8
0
 10
20.5271
 20
3.09863
 11
20.4582
 21
2.92137
  0
LINE
  8
0
 10
20.4582
 20
2.92137
 11
20.3618
 21
2.77385
  0
LINE
  8
0
 10
20.3618
 20
2.77385
 11
20.2413
 21
2.65781
  0
LINE
  8
0
 10
20.2413
 20
2.65781
 11
20.1004
 21
2.57492
  0
LINE
  8
0
 10
20.1004
 20
2.57492
 11
19.939
 21
2.52518
  0
LINE
  8
0
 10
19.939
 20
2.52518
 11
19.7572
 21
2.50861
  0
LINE
  8
0
 10
19.7572
 20
2.50861
 11
19.5744
 21
2.52518
  0
LINE
  8
0
 10
85.3292
 20
1.81084
 11
85.5177
 21
1.83517
  0
LINE
  8
0
 10
85.5177
 20
1.83517
 11
85.6943
 21
1.87573
  0
LINE
  8
0
 10
85.6943
 20
1.87573
 11
85.859
 21
1.9325
  0
LINE
  8
0
 10
85.859
 20
1.9325
 11
86.0092
 21
2.00345
  0
LINE
  8
0
 10
86.0092
 20
2.00345
 11
86.1421
 21
2.08649
  0
LINE
  8
0
 10
86.1421
 20
2.08649
 11
86.2576
 21
2.18163
  0
LINE
  8
0
 10
86.2576
 20
2.18163
 11
86.3557
 21
2.28885
  0
LINE
  8
0
 10
86.3557
 20
2.28885
 11
86.4341
 21
2.40633
  0
LINE
  8
0
 10
86.4341
 20
2.40633
 11
86.49
 21
2.53221
  0
LINE
  8
0
 10
86.49
 20
2.53221
 11
86.5235
 21
2.6665
  0
LINE
  8
0
 10
86.5235
 20
2.6665
 11
86.5347
 21
2.80919
  0
LINE
  8
0
 10
86.5347
 20
2.80919
 11
86.5218
 21
2.95975
  0
LINE
  8
0
 10
86.5218
 20
2.95975
 11
86.4829
 21
3.09721
  0
LINE
  8
0
 10
86.4829
 20
3.09721
 11
86.418
 21
3.22159
  0
LINE
  8
0
 10
86.418
 20
3.22159
 11
86.3273
 21
3.33287
  0
LINE
  8
0
 10
86.3273
 20
3.33287
 11
86.2112
 21
3.42752
  0
LINE
  8
0
 10
86.2112
 20
3.42752
 11
86.0703
 21
3.50197
  0
LINE
  8
0
 10
86.0703
 20
3.50197
 11
85.9048
 21
3.55618
  0
LINE
  8
0
 10
85.9048
 20
3.55618
 11
85.7144
 21
3.59019
  0
LINE
  8
0
 10
85.7144
 20
3.59019
 11
85.7144
 21
3.61525
  0
LINE
  8
0
 10
85.7144
 20
3.61525
 11
85.8603
 21
3.64584
  0
LINE
  8
0
 10
85.8603
 20
3.64584
 11
85.9921
 21
3.69437
  0
LINE
  8
0
 10
85.9921
 20
3.69437
 11
86.1098
 21
3.76082
  0
LINE
  8
0
 10
86.1098
 20
3.76082
 11
86.2135
 21
3.84521
  0
LINE
  8
0
 10
86.2135
 20
3.84521
 11
86.298
 21
3.9447
  0
LINE
  8
0
 10
86.298
 20
3.9447
 11
86.3584
 21
4.05641
  0
LINE
  8
0
 10
86.3584
 20
4.05641
 11
86.3946
 21
4.18039
  0
LINE
  8
0
 10
86.3946
 20
4.18039
 11
86.4067
 21
4.31659
  0
LINE
  8
0
 10
86.4067
 20
4.31659
 11
86.3967
 21
4.45085
  0
LINE
  8
0
 10
86.3967
 20
4.45085
 11
86.3667
 21
4.57816
  0
LINE
  8
0
 10
86.3667
 20
4.57816
 11
86.3167
 21
4.69847
  0
LINE
  8
0
 10
86.3167
 20
4.69847
 11
86.2467
 21
4.81181
  0
LINE
  8
0
 10
86.2467
 20
4.81181
 11
86.1588
 21
4.91592
  0
LINE
  8
0
 10
86.1588
 20
4.91592
 11
86.0552
 21
5.00851
  0
LINE
  8
0
 10
86.0552
 20
5.00851
 11
85.936
 21
5.08957
  0
LINE
  8
0
 10
85.936
 20
5.08957
 11
85.801
 21
5.1591
  0
LINE
  8
0
 10
85.801
 20
5.1591
 11
85.6526
 21
5.21489
  0
LINE
  8
0
 10
85.6526
 20
5.21489
 11
85.4931
 21
5.25475
  0
LINE
  8
0
 10
85.4931
 20
5.25475
 11
85.3224
 21
5.27864
  0
LINE
  8
0
 10
85.3224
 20
5.27864
 11
85.1407
 21
5.28662
  0
LINE
  8
0
 10
85.1407
 20
5.28662
 11
84.9561
 21
5.27844
  0
LINE
  8
0
 10
84.9561
 20
5.27844
 11
84.7818
 21
5.25388
  0
LINE
  8
0
 10
84.7818
 20
5.25388
 11
84.6177
 21
5.21295
  0
LINE
  8
0
 10
84.6177
 20
5.21295
 11
84.4638
 21
5.15567
  0
LINE
  8
0
 10
84.4638
 20
5.15567
 11
84.3229
 21
5.08401
  0
LINE
  8
0
 10
84.3229
 20
5.08401
 11
84.1977
 21
4.99998
  0
LINE
  8
0
 10
84.1977
 20
4.99998
 11
84.0882
 21
4.90356
  0
LINE
  8
0
 10
84.0882
 20
4.90356
 11
83.9944
 21
4.79475
  0
LINE
  8
0
 10
83.9944
 20
4.79475
 11
83.919
 21
4.67535
  0
LINE
  8
0
 10
83.919
 20
4.67535
 11
83.8649
 21
4.54713
  0
LINE
  8
0
 10
83.8649
 20
4.54713
 11
83.8319
 21
4.4101
  0
LINE
  8
0
 10
83.8319
 20
4.4101
 11
83.8201
 21
4.26422
  0
LINE
  8
0
 10
83.8201
 20
4.26422
 11
84.6239
 21
4.26422
  0
LINE
  8
0
 10
84.6239
 20
4.26422
 11
84.6341
 21
4.3486
  0
LINE
  8
0
 10
84.6341
 20
4.3486
 11
84.6626
 21
4.42416
  0
LINE
  8
0
 10
84.6626
 20
4.42416
 11
84.7094
 21
4.49089
  0
LINE
  8
0
 10
84.7094
 20
4.49089
 11
84.7744
 21
4.54881
  0
LINE
  8
0
 10
84.7744
 20
4.54881
 11
84.8527
 21
4.59564
  0
LINE
  8
0
 10
84.8527
 20
4.59564
 11
84.9394
 21
4.62909
  0
LINE
  8
0
 10
84.9394
 20
4.62909
 11
85.0347
 21
4.64915
  0
LINE
  8
0
 10
85.0347
 20
4.64915
 11
85.1383
 21
4.65585
  0
LINE
  8
0
 10
85.1383
 20
4.65585
 11
85.2355
 21
4.64909
  0
LINE
  8
0
 10
85.2355
 20
4.64909
 11
85.3232
 21
4.62881
  0
LINE
  8
0
 10
85.3232
 20
4.62881
 11
85.4015
 21
4.59502
  0
LINE
  8
0
 10
85.4015
 20
4.59502
 11
85.4702
 21
4.5477
  0
LINE
  8
0
 10
85.4702
 20
4.5477
 11
85.5262
 21
4.48958
  0
LINE
  8
0
 10
85.5262
 20
4.48958
 11
85.5662
 21
4.42332
  0
LINE
  8
0
 10
85.5662
 20
4.42332
 11
85.5902
 21
4.34897
  0
LINE
  8
0
 10
85.5902
 20
4.34897
 11
85.5983
 21
4.26649
  0
LINE
  8
0
 10
85.5983
 20
4.26649
 11
85.5889
 21
4.18074
  0
LINE
  8
0
 10
85.5889
 20
4.18074
 11
85.5609
 21
4.10339
  0
LINE
  8
0
 10
85.5609
 20
4.10339
 11
85.5142
 21
4.03444
  0
LINE
  8
0
 10
85.5142
 20
4.03444
 11
85.4489
 21
3.97388
  0
LINE
  8
0
 10
85.4489
 20
3.97388
 11
85.3689
 21
3.92456
  0
LINE
  8
0
 10
85.3689
 20
3.92456
 11
85.2782
 21
3.88934
  0
LINE
  8
0
 10
85.2782
 20
3.88934
 11
85.1768
 21
3.86821
  0
LINE
  8
0
 10
85.1768
 20
3.86821
 11
85.0648
 21
3.86116
  0
LINE
  8
0
 10
85.0648
 20
3.86116
 11
84.721
 21
3.86116
  0
LINE
  8
0
 10
84.721
 20
3.86116
 11
84.721
 21
3.28734
  0
LINE
  8
0
 10
84.721
 20
3.28734
 11
85.0648
 21
3.28734
  0
LINE
  8
0
 10
85.0648
 20
3.28734
 11
85.1931
 21
3.28009
  0
LINE
  8
0
 10
85.1931
 20
3.28009
 11
85.3078
 21
3.2583
  0
LINE
  8
0
 10
85.3078
 20
3.2583
 11
85.4089
 21
3.22202
  0
LINE
  8
0
 10
85.4089
 20
3.22202
 11
85.4963
 21
3.1712
  0
LINE
  8
0
 10
85.4963
 20
3.1712
 11
85.5668
 21
3.10887
  0
LINE
  8
0
 10
85.5668
 20
3.10887
 11
85.6172
 21
3.03801
  0
LINE
  8
0
 10
85.6172
 20
3.03801
 11
85.6475
 21
2.9586
  0
LINE
  8
0
 10
85.6475
 20
2.9586
 11
85.6575
 21
2.87065
  0
LINE
  8
0
 10
85.6575
 20
2.87065
 11
85.6484
 21
2.78285
  0
LINE
  8
0
 10
85.6484
 20
2.78285
 11
85.6211
 21
2.70387
  0
LINE
  8
0
 10
85.6211
 20
2.70387
 11
85.5755
 21
2.63371
  0
LINE
  8
0
 10
85.5755
 20
2.63371
 11
85.5117
 21
2.57236
  0
LINE
  8
0
 10
85.5117
 20
2.57236
 11
85.4335
 21
2.52255
  0
LINE
  8
0
 10
85.4335
 20
2.52255
 11
85.3449
 21
2.48697
  0
LINE
  8
0
 10
85.3449
 20
2.48697
 11
85.2457
 21
2.46562
  0
LINE
  8
0
 10
85.2457
 20
2.46562
 11
85.1359
 21
2.45851
  0
LINE
  8
0
 10
85.1359
 20
2.45851
 11
85.0247
 21
2.46506
  0
LINE
  8
0
 10
85.0247
 20
2.46506
 11
84.9232
 21
2.4847
  0
LINE
  8
0
 10
84.9232
 20
2.4847
 11
84.8314
 21
2.51741
  0
LINE
  8
0
 10
84.8314
 20
2.51741
 11
84.7495
 21
2.56323
  0
LINE
  8
0
 10
84.7495
 20
2.56323
 11
84.6818
 21
2.61974
  0
LINE
  8
0
 10
84.6818
 20
2.61974
 11
84.6327
 21
2.68449
  0
LINE
  8
0
 10
84.6327
 20
2.68449
 11
84.6024
 21
2.75751
  0
LINE
  8
0
 10
84.6024
 20
2.75751
 11
84.5907
 21
2.83876
  0
LINE
  8
0
 10
84.5907
 20
2.83876
 11
83.7514
 21
2.83876
  0
LINE
  8
0
 10
83.7514
 20
2.83876
 11
83.7635
 21
2.69069
  0
LINE
  8
0
 10
83.7635
 20
2.69069
 11
83.7976
 21
2.55157
  0
LINE
  8
0
 10
83.7976
 20
2.55157
 11
83.8536
 21
2.42142
  0
LINE
  8
0
 10
83.8536
 20
2.42142
 11
83.9316
 21
2.30023
  0
LINE
  8
0
 10
83.9316
 20
2.30023
 11
84.0287
 21
2.18987
  0
LINE
  8
0
 10
84.0287
 20
2.18987
 11
84.1423
 21
2.09218
  0
LINE
  8
0
 10
84.1423
 20
2.09218
 11
84.2723
 21
2.00714
  0
LINE
  8
0
 10
84.2723
 20
2.00714
 11
84.4187
 21
1.93478
  0
LINE
  8
0
 10
84.4187
 20
1.93478
 11
84.5791
 21
1.87701
  0
LINE
  8
0
 10
84.5791
 20
1.87701
 11
84.751
 21
1.83574
  0
LINE
  8
0
 10
84.751
 20
1.83574
 11
84.9342
 21
1.81099
  0
LINE
  8
0
 10
84.9342
 20
1.81099
 11
85.1288
 21
1.80273
  0
LINE
  8
0
 10
85.1288
 20
1.80273
 11
85.3292
 21
1.81084
  0
LINE
  8
0
 10
53.211
 20
3.2532
 11
54.6217
 21
3.2532
  0
LINE
  8
0
 10
54.6217
 20
3.2532
 11
54.6217
 21
1.84825
  0
LINE
  8
0
 10
54.6217
 20
1.84825
 11
55.4562
 21
1.84825
  0
LINE
  8
0
 10
55.4562
 20
1.84825
 11
55.4562
 21
5.24106
  0
LINE
  8
0
 10
55.4562
 20
5.24106
 11
54.6217
 21
5.24106
  0
LINE
  8
0
 10
54.6217
 20
5.24106
 11
54.6217
 21
3.90898
  0
LINE
  8
0
 10
54.6217
 20
3.90898
 11
53.211
 21
3.90898
  0
LINE
  8
0
 10
53.211
 20
3.90898
 11
53.211
 21
5.24106
  0
LINE
  8
0
 10
53.211
 20
5.24106
 11
52.3741
 21
5.24106
  0
LINE
  8
0
 10
52.3741
 20
5.24106
 11
52.3741
 21
1.84825
  0
LINE
  8
0
 10
52.3741
 20
1.84825
 11
53.211
 21
1.84825
  0
LINE
  8
0
 10
53.211
 20
1.84825
 11
53.211
 21
3.2532
  0
LINE
  8
0
 10
56.9192
 20
2.57008
 11
58.0951
 21
2.57008
  0
LINE
  8
0
 10
58.0951
 20
2.57008
 11
58.3346
 21
1.84825
  0
LINE
  8
0
 10
58.3346
 20
1.84825
 11
59.2734
 21
1.84825
  0
LINE
  8
0
 10
59.2734
 20
1.84825
 11
58.0596
 21
5.24106
  0
LINE
  8
0
 10
58.0596
 20
5.24106
 11
56.9381
 21
5.24106
  0
LINE
  8
0
 10
56.9381
 20
5.24106
 11
55.7598
 21
1.84825
  0
LINE
  8
0
 10
55.7598
 20
1.84825
 11
56.6892
 21
1.84825
  0
LINE
  8
0
 10
56.6892
 20
1.84825
 11
56.9192
 21
2.57008
  0
LINE
  8
0
 10
57.116
 20
3.18491
 11
57.1634
 21
3.33063
  0
LINE
  8
0
 10
57.1634
 20
3.33063
 11
57.2067
 21
3.47707
  0
LINE
  8
0
 10
57.2067
 20
3.47707
 11
57.249
 21
3.62721
  0
LINE
  8
0
 10
57.249
 20
3.62721
 11
57.2903
 21
3.78105
  0
LINE
  8
0
 10
57.2903
 20
3.78105
 11
57.3305
 21
3.93858
  0
LINE
  8
0
 10
57.3305
 20
3.93858
 11
57.3703
 21
4.09955
  0
LINE
  8
0
 10
57.3703
 20
4.09955
 11
57.4102
 21
4.26364
  0
LINE
  8
0
 10
57.4102
 20
4.26364
 11
57.4503
 21
4.43086
  0
LINE
  8
0
 10
57.4503
 20
4.43086
 11
57.4906
 21
4.60123
  0
LINE
  8
0
 10
57.4906
 20
4.60123
 11
57.5334
 21
4.43185
  0
LINE
  8
0
 10
57.5334
 20
4.43185
 11
57.5765
 21
4.26534
  0
LINE
  8
0
 10
57.5765
 20
4.26534
 11
57.6199
 21
4.10167
  0
LINE
  8
0
 10
57.6199
 20
4.10167
 11
57.6636
 21
3.94084
  0
LINE
  8
0
 10
57.6636
 20
3.94084
 11
57.7078
 21
3.78316
  0
LINE
  8
0
 10
57.7078
 20
3.78316
 11
57.7525
 21
3.62889
  0
LINE
  8
0
 10
57.7525
 20
3.62889
 11
57.7979
 21
3.47806
  0
LINE
  8
0
 10
57.7979
 20
3.47806
 11
57.8438
 21
3.33063
  0
LINE
  8
0
 10
57.8438
 20
3.33063
 11
57.8912
 21
3.18491
  0
LINE
  8
0
 10
57.8912
 20
3.18491
 11
57.116
 21
3.18491
  0
LINE
  8
0
 10
60.4092
 20
5.24106
 11
59.5723
 21
5.24106
  0
LINE
  8
0
 10
59.5723
 20
5.24106
 11
59.5723
 21
1.84825
  0
LINE
  8
0
 10
59.5723
 20
1.84825
 11
60.4092
 21
1.84825
  0
LINE
  8
0
 10
60.4092
 20
1.84825
 11
60.4092
 21
5.24106
  0
LINE
  8
0
 10
61.7636
 20
3.01637
 11
62.2188
 21
3.01637
  0
LINE
  8
0
 10
62.2188
 20
3.01637
 11
62.866
 21
1.84825
  0
LINE
  8
0
 10
62.866
 20
1.84825
 11
63.7836
 21
1.84825
  0
LINE
  8
0
 10
63.7836
 20
1.84825
 11
63.0462
 21
3.14391
  0
LINE
  8
0
 10
63.0462
 20
3.14391
 11
63.1848
 21
3.21506
  0
LINE
  8
0
 10
63.1848
 20
3.21506
 11
63.3067
 21
3.30103
  0
LINE
  8
0
 10
63.3067
 20
3.30103
 11
63.4118
 21
3.40178
  0
LINE
  8
0
 10
63.4118
 20
3.40178
 11
63.5002
 21
3.51735
  0
LINE
  8
0
 10
63.5002
 20
3.51735
 11
63.5703
 21
3.64685
  0
LINE
  8
0
 10
63.5703
 20
3.64685
 11
63.6203
 21
3.78944
  0
LINE
  8
0
 10
63.6203
 20
3.78944
 11
63.6503
 21
3.94514
  0
LINE
  8
0
 10
63.6503
 20
3.94514
 11
63.6603
 21
4.11392
  0
LINE
  8
0
 10
63.6603
 20
4.11392
 11
63.6387
 21
4.36006
  0
LINE
  8
0
 10
63.6387
 20
4.36006
 11
63.574
 21
4.57928
  0
LINE
  8
0
 10
63.574
 20
4.57928
 11
63.4662
 21
4.77162
  0
LINE
  8
0
 10
63.4662
 20
4.77162
 11
63.3153
 21
4.93706
  0
LINE
  8
0
 10
63.3153
 20
4.93706
 11
63.1271
 21
5.07005
  0
LINE
  8
0
 10
63.1271
 20
5.07005
 11
62.9072
 21
5.16505
  0
LINE
  8
0
 10
62.9072
 20
5.16505
 11
62.6559
 21
5.22205
  0
LINE
  8
0
 10
62.6559
 20
5.22205
 11
62.3729
 21
5.24106
  0
LINE
  8
0
 10
62.3729
 20
5.24106
 11
60.9267
 21
5.24106
  0
LINE
  8
0
 10
60.9267
 20
5.24106
 11
60.9267
 21
1.84825
  0
LINE
  8
0
 10
60.9267
 20
1.84825
 11
61.7636
 21
1.84825
  0
LINE
  8
0
 10
61.7636
 20
1.84825
 11
61.7636
 21
3.01637
  0
LINE
  8
0
 10
61.7636
 20
3.65169
 11
61.7636
 21
4.58984
  0
LINE
  8
0
 10
61.7636
 20
4.58984
 11
62.1951
 21
4.58984
  0
LINE
  8
0
 10
62.1951
 20
4.58984
 11
62.4565
 21
4.56009
  0
LINE
  8
0
 10
62.4565
 20
4.56009
 11
62.6432
 21
4.47086
  0
LINE
  8
0
 10
62.6432
 20
4.47086
 11
62.7552
 21
4.32214
  0
LINE
  8
0
 10
62.7552
 20
4.32214
 11
62.7926
 21
4.11392
  0
LINE
  8
0
 10
62.7926
 20
4.11392
 11
62.7554
 21
3.9117
  0
LINE
  8
0
 10
62.7554
 20
3.9117
 11
62.6438
 21
3.76724
  0
LINE
  8
0
 10
62.6438
 20
3.76724
 11
62.4578
 21
3.68057
  0
LINE
  8
0
 10
62.4578
 20
3.68057
 11
62.1975
 21
3.65169
  0
LINE
  8
0
 10
62.1975
 20
3.65169
 11
61.7636
 21
3.65169
  0
LINE
  8
0
 10
65.8515
 20
4.58528
 11
66.9207
 21
4.58528
  0
LINE
  8
0
 10
66.9207
 20
4.58528
 11
66.9207
 21
5.24106
  0
LINE
  8
0
 10
66.9207
 20
5.24106
 11
63.9477
 21
5.24106
  0
LINE
  8
0
 10
63.9477
 20
5.24106
 11
63.9477
 21
4.58528
  0
LINE
  8
0
 10
63.9477
 20
4.58528
 11
65.0169
 21
4.58528
  0
LINE
  8
0
 10
65.0169
 20
4.58528
 11
65.0169
 21
1.84825
  0
LINE
  8
0
 10
65.0169
 20
1.84825
 11
65.8515
 21
1.84825
  0
LINE
  8
0
 10
65.8515
 20
1.84825
 11
65.8515
 21
4.58528
  0
LINE
  8
0
 10
42.502
 20
2.57008
 11
43.678
 21
2.57008
  0
LINE
  8
0
 10
43.678
 20
2.57008
 11
43.9174
 21
1.84825
  0
LINE
  8
0
 10
43.9174
 20
1.84825
 11
44.8563
 21
1.84825
  0
LINE
  8
0
 10
44.8563
 20
1.84825
 11
43.6424
 21
5.24106
  0
LINE
  8
0
 10
43.6424
 20
5.24106
 11
42.521
 21
5.24106
  0
LINE
  8
0
 10
42.521
 20
5.24106
 11
41.3427
 21
1.84825
  0
LINE
  8
0
 10
41.3427
 20
1.84825
 11
42.2721
 21
1.84825
  0
LINE
  8
0
 10
42.2721
 20
1.84825
 11
42.502
 21
2.57008
  0
LINE
  8
0
 10
42.6988
 20
3.18491
 11
42.7462
 21
3.33063
  0
LINE
  8
0
 10
42.7462
 20
3.33063
 11
42.7896
 21
3.47707
  0
LINE
  8
0
 10
42.7896
 20
3.47707
 11
42.8319
 21
3.62721
  0
LINE
  8
0
 10
42.8319
 20
3.62721
 11
42.8731
 21
3.78105
  0
LINE
  8
0
 10
42.8731
 20
3.78105
 11
42.9134
 21
3.93858
  0
LINE
  8
0
 10
42.9134
 20
3.93858
 11
42.9532
 21
4.09955
  0
LINE
  8
0
 10
42.9532
 20
4.09955
 11
42.9931
 21
4.26364
  0
LINE
  8
0
 10
42.9931
 20
4.26364
 11
43.0332
 21
4.43086
  0
LINE
  8
0
 10
43.0332
 20
4.43086
 11
43.0734
 21
4.60123
  0
LINE
  8
0
 10
43.0734
 20
4.60123
 11
43.1162
 21
4.43185
  0
LINE
  8
0
 10
43.1162
 20
4.43185
 11
43.1593
 21
4.26534
  0
LINE
  8
0
 10
43.1593
 20
4.26534
 11
43.2028
 21
4.10167
  0
LINE
  8
0
 10
43.2028
 20
4.10167
 11
43.2465
 21
3.94084
  0
LINE
  8
0
 10
43.2465
 20
3.94084
 11
43.2906
 21
3.78316
  0
LINE
  8
0
 10
43.2906
 20
3.78316
 11
43.3354
 21
3.62889
  0
LINE
  8
0
 10
43.3354
 20
3.62889
 11
43.3807
 21
3.47806
  0
LINE
  8
0
 10
43.3807
 20
3.47806
 11
43.4267
 21
3.33063
  0
LINE
  8
0
 10
43.4267
 20
3.33063
 11
43.4741
 21
3.18491
  0
LINE
  8
0
 10
43.4741
 20
3.18491
 11
42.6988
 21
3.18491
  0
LINE
  8
0
 10
68.1121
 20
3.01637
 11
68.5673
 21
3.01637
  0
LINE
  8
0
 10
68.5673
 20
3.01637
 11
69.2145
 21
1.84825
  0
LINE
  8
0
 10
69.2145
 20
1.84825
 11
70.132
 21
1.84825
  0
LINE
  8
0
 10
70.132
 20
1.84825
 11
69.3947
 21
3.14391
  0
LINE
  8
0
 10
69.3947
 20
3.14391
 11
69.5333
 21
3.21506
  0
LINE
  8
0
 10
69.5333
 20
3.21506
 11
69.6552
 21
3.30103
  0
LINE
  8
0
 10
69.6552
 20
3.30103
 11
69.7603
 21
3.40178
  0
LINE
  8
0
 10
69.7603
 20
3.40178
 11
69.8487
 21
3.51735
  0
LINE
  8
0
 10
69.8487
 20
3.51735
 11
69.9187
 21
3.64685
  0
LINE
  8
0
 10
69.9187
 20
3.64685
 11
69.9687
 21
3.78944
  0
LINE
  8
0
 10
69.9687
 20
3.78944
 11
69.9987
 21
3.94514
  0
LINE
  8
0
 10
69.9987
 20
3.94514
 11
70.0088
 21
4.11392
  0
LINE
  8
0
 10
70.0088
 20
4.11392
 11
69.9872
 21
4.36006
  0
LINE
  8
0
 10
69.9872
 20
4.36006
 11
69.9225
 21
4.57928
  0
LINE
  8
0
 10
69.9225
 20
4.57928
 11
69.8147
 21
4.77162
  0
LINE
  8
0
 10
69.8147
 20
4.77162
 11
69.6638
 21
4.93706
  0
LINE
  8
0
 10
69.6638
 20
4.93706
 11
69.4755
 21
5.07005
  0
LINE
  8
0
 10
69.4755
 20
5.07005
 11
69.2557
 21
5.16505
  0
LINE
  8
0
 10
69.2557
 20
5.16505
 11
69.0043
 21
5.22205
  0
LINE
  8
0
 10
69.0043
 20
5.22205
 11
68.7214
 21
5.24106
  0
LINE
  8
0
 10
68.7214
 20
5.24106
 11
67.2752
 21
5.24106
  0
LINE
  8
0
 10
67.2752
 20
5.24106
 11
67.2752
 21
1.84825
  0
LINE
  8
0
 10
67.2752
 20
1.84825
 11
68.1121
 21
1.84825
  0
LINE
  8
0
 10
68.1121
 20
1.84825
 11
68.1121
 21
3.01637
  0
LINE
  8
0
 10
68.1121
 20
3.65169
 11
68.1121
 21
4.58984
  0
LINE
  8
0
 10
68.1121
 20
4.58984
 11
68.5436
 21
4.58984
  0
LINE
  8
0
 10
68.5436
 20
4.58984
 11
68.805
 21
4.56009
  0
LINE
  8
0
 10
68.805
 20
4.56009
 11
68.9917
 21
4.47086
  0
LINE
  8
0
 10
68.9917
 20
4.47086
 11
69.1037
 21
4.32214
  0
LINE
  8
0
 10
69.1037
 20
4.32214
 11
69.141
 21
4.11392
  0
LINE
  8
0
 10
69.141
 20
4.11392
 11
69.1038
 21
3.9117
  0
LINE
  8
0
 10
69.1038
 20
3.9117
 11
68.9923
 21
3.76724
  0
LINE
  8
0
 10
68.9923
 20
3.76724
 11
68.8063
 21
3.68057
  0
LINE
  8
0
 10
68.8063
 20
3.68057
 11
68.5459
 21
3.65169
  0
LINE
  8
0
 10
68.5459
 20
3.65169
 11
68.1121
 21
3.65169
  0
LINE
  8
0
 10
71.4104
 20
2.57008
 11
72.5864
 21
2.57008
  0
LINE
  8
0
 10
72.5864
 20
2.57008
 11
72.8258
 21
1.84825
  0
LINE
  8
0
 10
72.8258
 20
1.84825
 11
73.7647
 21
1.84825
  0
LINE
  8
0
 10
73.7647
 20
1.84825
 11
72.5508
 21
5.24106
  0
LINE
  8
0
 10
72.5508
 20
5.24106
 11
71.4294
 21
5.24106
  0
LINE
  8
0
 10
71.4294
 20
5.24106
 11
70.2511
 21
1.84825
  0
LINE
  8
0
 10
70.2511
 20
1.84825
 11
71.1805
 21
1.84825
  0
LINE
  8
0
 10
71.1805
 20
1.84825
 11
71.4104
 21
2.57008
  0
LINE
  8
0
 10
71.6072
 20
3.18491
 11
71.6546
 21
3.33063
  0
LINE
  8
0
 10
71.6546
 20
3.33063
 11
71.698
 21
3.47707
  0
LINE
  8
0
 10
71.698
 20
3.47707
 11
71.7403
 21
3.62721
  0
LINE
  8
0
 10
71.7403
 20
3.62721
 11
71.7815
 21
3.78105
  0
LINE
  8
0
 10
71.7815
 20
3.78105
 11
71.8218
 21
3.93858
  0
LINE
  8
0
 10
71.8218
 20
3.93858
 11
71.8616
 21
4.09955
  0
LINE
  8
0
 10
71.8616
 20
4.09955
 11
71.9015
 21
4.26364
  0
LINE
  8
0
 10
71.9015
 20
4.26364
 11
71.9416
 21
4.43086
  0
LINE
  8
0
 10
71.9416
 20
4.43086
 11
71.9818
 21
4.60123
  0
LINE
  8
0
 10
71.9818
 20
4.60123
 11
72.0246
 21
4.43185
  0
LINE
  8
0
 10
72.0246
 20
4.43185
 11
72.0677
 21
4.26534
  0
LINE
  8
0
 10
72.0677
 20
4.26534
 11
72.1111
 21
4.10167
  0
LINE
  8
0
 10
72.1111
 20
4.10167
 11
72.1549
 21
3.94084
  0
LINE
  8
0
 10
72.1549
 20
3.94084
 11
72.199
 21
3.78316
  0
LINE
  8
0
 10
72.199
 20
3.78316
 11
72.2438
 21
3.62889
  0
LINE
  8
0
 10
72.2438
 20
3.62889
 11
72.2891
 21
3.47806
  0
LINE
  8
0
 10
72.2891
 20
3.47806
 11
72.335
 21
3.33063
  0
LINE
  8
0
 10
72.335
 20
3.33063
 11
72.3825
 21
3.18491
  0
LINE
  8
0
 10
72.3825
 20
3.18491
 11
71.6072
 21
3.18491
  0
LINE
  8
0
 10
74.9004
 20
2.90709
 11
75.486
 21
2.90709
  0
LINE
  8
0
 10
75.486
 20
2.90709
 11
75.6818
 21
2.91612
  0
LINE
  8
0
 10
75.6818
 20
2.91612
 11
75.8636
 21
2.94324
  0
LINE
  8
0
 10
75.8636
 20
2.94324
 11
76.0315
 21
2.98842
  0
LINE
  8
0
 10
76.0315
 20
2.98842
 11
76.1854
 21
3.05167
  0
LINE
  8
0
 10
76.1854
 20
3.05167
 11
76.324
 21
3.13123
  0
LINE
  8
0
 10
76.324
 20
3.13123
 11
76.4456
 21
3.22531
  0
LINE
  8
0
 10
76.4456
 20
3.22531
 11
76.5504
 21
3.33391
  0
LINE
  8
0
 10
76.5504
 20
3.33391
 11
76.6383
 21
3.457
  0
LINE
  8
0
 10
76.6383
 20
3.457
 11
76.7077
 21
3.59299
  0
LINE
  8
0
 10
76.7077
 20
3.59299
 11
76.7574
 21
3.7402
  0
LINE
  8
0
 10
76.7574
 20
3.7402
 11
76.7872
 21
3.89867
  0
LINE
  8
0
 10
76.7872
 20
3.89867
 11
76.7971
 21
4.06836
  0
LINE
  8
0
 10
76.7971
 20
4.06836
 11
76.7874
 21
4.23729
  0
LINE
  8
0
 10
76.7874
 20
4.23729
 11
76.7583
 21
4.39569
  0
LINE
  8
0
 10
76.7583
 20
4.39569
 11
76.7098
 21
4.54356
  0
LINE
  8
0
 10
76.7098
 20
4.54356
 11
76.6418
 21
4.68089
  0
LINE
  8
0
 10
76.6418
 20
4.68089
 11
76.5558
 21
4.80571
  0
LINE
  8
0
 10
76.5558
 20
4.80571
 11
76.453
 21
4.91602
  0
LINE
  8
0
 10
76.453
 20
4.91602
 11
76.3335
 21
5.0118
  0
LINE
  8
0
 10
76.3335
 20
5.0118
 11
76.1973
 21
5.09305
  0
LINE
  8
0
 10
76.1973
 20
5.09305
 11
76.0458
 21
5.15781
  0
LINE
  8
0
 10
76.0458
 20
5.15781
 11
75.8808
 21
5.20406
  0
LINE
  8
0
 10
75.8808
 20
5.20406
 11
75.7021
 21
5.2318
  0
LINE
  8
0
 10
75.7021
 20
5.2318
 11
75.5097
 21
5.24106
  0
LINE
  8
0
 10
75.5097
 20
5.24106
 11
74.0635
 21
5.24106
  0
LINE
  8
0
 10
74.0635
 20
5.24106
 11
74.0635
 21
1.84825
  0
LINE
  8
0
 10
74.0635
 20
1.84825
 11
74.9004
 21
1.84825
  0
LINE
  8
0
 10
74.9004
 20
1.84825
 11
74.9004
 21
2.90709
  0
LINE
  8
0
 10
74.9004
 20
3.54239
 11
74.9004
 21
4.58984
  0
LINE
  8
0
 10
74.9004
 20
4.58984
 11
75.3319
 21
4.58984
  0
LINE
  8
0
 10
75.3319
 20
4.58984
 11
75.47
 21
4.58101
  0
LINE
  8
0
 10
75.47
 20
4.58101
 11
75.5903
 21
4.55453
  0
LINE
  8
0
 10
75.5903
 20
4.55453
 11
75.6929
 21
4.51042
  0
LINE
  8
0
 10
75.6929
 20
4.51042
 11
75.7776
 21
4.44865
  0
LINE
  8
0
 10
75.7776
 20
4.44865
 11
75.844
 21
4.37193
  0
LINE
  8
0
 10
75.844
 20
4.37193
 11
75.8914
 21
4.28299
  0
LINE
  8
0
 10
75.8914
 20
4.28299
 11
75.9199
 21
4.18179
  0
LINE
  8
0
 10
75.9199
 20
4.18179
 11
75.9294
 21
4.06836
  0
LINE
  8
0
 10
75.9294
 20
4.06836
 11
75.92
 21
3.95573
  0
LINE
  8
0
 10
75.92
 20
3.95573
 11
75.8917
 21
3.85463
  0
LINE
  8
0
 10
75.8917
 20
3.85463
 11
75.8447
 21
3.76503
  0
LINE
  8
0
 10
75.8447
 20
3.76503
 11
75.7788
 21
3.68697
  0
LINE
  8
0
 10
75.7788
 20
3.68697
 11
75.6946
 21
3.62372
  0
LINE
  8
0
 10
75.6946
 20
3.62372
 11
75.5924
 21
3.57854
  0
LINE
  8
0
 10
75.5924
 20
3.57854
 11
75.4723
 21
3.55142
  0
LINE
  8
0
 10
75.4723
 20
3.55142
 11
75.3343
 21
3.54239
  0
LINE
  8
0
 10
75.3343
 20
3.54239
 11
74.9004
 21
3.54239
  0
LINE
  8
0
 10
99.6402
 20
1.82043
 11
99.7691
 21
1.84627
  0
LINE
  8
0
 10
99.7691
 20
1.84627
 11
99.8826
 21
1.88931
  0
LINE
  8
0
 10
99.8826
 20
1.88931
 11
99.981
 21
1.94958
  0
LINE
  8
0
 10
99.981
 20
1.94958
 11
100.065
 21
2.02068
  0
LINE
  8
0
 10
100.065
 20
2.02068
 11
100.137
 21
2.09618
  0
LINE
  8
0
 10
100.137
 20
2.09618
 11
100.195
 21
2.17609
  0
LINE
  8
0
 10
100.195
 20
2.17609
 11
100.241
 21
2.26041
  0
LINE
  8
0
 10
100.241
 20
2.26041
 11
100.269
 21
2.26041
  0
LINE
  8
0
 10
100.269
 20
2.26041
 11
100.269
 21
1.84825
  0
LINE
  8
0
 10
100.269
 20
1.84825
 11
101.085
 21
1.84825
  0
LINE
  8
0
 10
101.085
 20
1.84825
 11
101.085
 21
5.24106
  0
LINE
  8
0
 10
101.085
 20
5.24106
 11
100.26
 21
5.24106
  0
LINE
  8
0
 10
100.26
 20
5.24106
 11
100.26
 21
3.95679
  0
LINE
  8
0
 10
100.26
 20
3.95679
 11
100.241
 21
3.95679
  0
LINE
  8
0
 10
100.241
 20
3.95679
 11
100.213
 21
4.01337
  0
LINE
  8
0
 10
100.213
 20
4.01337
 11
100.179
 21
4.06921
  0
LINE
  8
0
 10
100.179
 20
4.06921
 11
100.14
 21
4.12436
  0
LINE
  8
0
 10
100.14
 20
4.12436
 11
100.095
 21
4.1788
  0
LINE
  8
0
 10
100.095
 20
4.1788
 11
100.043
 21
4.23047
  0
LINE
  8
0
 10
100.043
 20
4.23047
 11
99.9854
 21
4.2773
  0
LINE
  8
0
 10
99.9854
 20
4.2773
 11
99.9207
 21
4.31927
  0
LINE
  8
0
 10
99.9207
 20
4.31927
 11
99.8494
 21
4.35641
  0
LINE
  8
0
 10
99.8494
 20
4.35641
 11
99.7709
 21
4.38681
  0
LINE
  8
0
 10
99.7709
 20
4.38681
 11
99.6846
 21
4.40852
  0
LINE
  8
0
 10
99.6846
 20
4.40852
 11
99.5907
 21
4.42154
  0
LINE
  8
0
 10
99.5907
 20
4.42154
 11
99.489
 21
4.42589
  0
LINE
  8
0
 10
99.489
 20
4.42589
 11
99.3526
 21
4.41705
  0
LINE
  8
0
 10
99.3526
 20
4.41705
 11
99.2208
 21
4.39059
  0
LINE
  8
0
 10
99.2208
 20
4.39059
 11
99.0936
 21
4.34647
  0
LINE
  8
0
 10
99.0936
 20
4.34647
 11
98.971
 21
4.2847
  0
LINE
  8
0
 10
98.971
 20
4.2847
 11
98.8565
 21
4.20485
  0
LINE
  8
0
 10
98.8565
 20
4.20485
 11
98.7535
 21
4.10651
  0
LINE
  8
0
 10
98.7535
 20
4.10651
 11
98.662
 21
3.98965
  0
LINE
  8
0
 10
98.662
 20
3.98965
 11
98.5822
 21
3.85431
  0
LINE
  8
0
 10
98.5822
 20
3.85431
 11
98.5173
 21
3.69992
  0
LINE
  8
0
 10
98.5173
 20
3.69992
 11
98.4711
 21
3.52586
  0
LINE
  8
0
 10
98.4711
 20
3.52586
 11
98.4433
 21
3.33218
  0
LINE
  8
0
 10
98.4433
 20
3.33218
 11
98.434
 21
3.11885
  0
LINE
  8
0
 10
98.434
 20
3.11885
 11
98.4429
 21
2.91144
  0
LINE
  8
0
 10
98.4429
 20
2.91144
 11
98.4696
 21
2.7218
  0
LINE
  8
0
 10
98.4696
 20
2.7218
 11
98.514
 21
2.54996
  0
LINE
  8
0
 10
98.514
 20
2.54996
 11
98.5763
 21
2.39589
  0
LINE
  8
0
 10
98.5763
 20
2.39589
 11
98.6536
 21
2.25969
  0
LINE
  8
0
 10
98.6536
 20
2.25969
 11
98.7434
 21
2.14142
  0
LINE
  8
0
 10
98.7434
 20
2.14142
 11
98.8456
 21
2.04109
  0
LINE
  8
0
 10
98.8456
 20
2.04109
 11
98.9603
 21
1.95869
  0
LINE
  8
0
 10
98.9603
 20
1.95869
 11
99.0845
 21
1.89444
  0
LINE
  8
0
 10
99.0845
 20
1.89444
 11
99.2152
 21
1.84854
  0
LINE
  8
0
 10
99.2152
 20
1.84854
 11
99.3524
 21
1.821
  0
LINE
  8
0
 10
99.3524
 20
1.821
 11
99.4962
 21
1.81183
  0
LINE
  8
0
 10
99.4962
 20
1.81183
 11
99.6402
 21
1.82043
  0
LINE
  8
0
 10
99.6656
 20
2.44299
 11
99.567
 21
2.47842
  0
LINE
  8
0
 10
99.567
 20
2.47842
 11
99.4824
 21
2.53749
  0
LINE
  8
0
 10
99.4824
 20
2.53749
 11
99.412
 21
2.62018
  0
LINE
  8
0
 10
99.412
 20
2.62018
 11
99.3565
 21
2.72223
  0
LINE
  8
0
 10
99.3565
 20
2.72223
 11
99.3168
 21
2.83934
  0
LINE
  8
0
 10
99.3168
 20
2.83934
 11
99.2931
 21
2.97156
  0
LINE
  8
0
 10
99.2931
 20
2.97156
 11
99.2851
 21
3.11885
  0
LINE
  8
0
 10
99.2851
 20
3.11885
 11
99.2931
 21
3.26608
  0
LINE
  8
0
 10
99.2931
 20
3.26608
 11
99.3168
 21
3.39807
  0
LINE
  8
0
 10
99.3168
 20
3.39807
 11
99.3565
 21
3.51485
  0
LINE
  8
0
 10
99.3565
 20
3.51485
 11
99.412
 21
3.61639
  0
LINE
  8
0
 10
99.412
 20
3.61639
 11
99.4824
 21
3.69858
  0
LINE
  8
0
 10
99.4824
 20
3.69858
 11
99.567
 21
3.75728
  0
LINE
  8
0
 10
99.567
 20
3.75728
 11
99.6656
 21
3.79251
  0
LINE
  8
0
 10
99.6656
 20
3.79251
 11
99.7783
 21
3.80424
  0
LINE
  8
0
 10
99.7783
 20
3.80424
 11
99.8902
 21
3.79272
  0
LINE
  8
0
 10
99.8902
 20
3.79272
 11
99.989
 21
3.75813
  0
LINE
  8
0
 10
99.989
 20
3.75813
 11
100.075
 21
3.70049
  0
LINE
  8
0
 10
100.075
 20
3.70049
 11
100.147
 21
3.61978
  0
LINE
  8
0
 10
100.147
 20
3.61978
 11
100.204
 21
3.5193
  0
LINE
  8
0
 10
100.204
 20
3.5193
 11
100.246
 21
3.40233
  0
LINE
  8
0
 10
100.246
 20
3.40233
 11
100.27
 21
3.26884
  0
LINE
  8
0
 10
100.27
 20
3.26884
 11
100.279
 21
3.11885
  0
LINE
  8
0
 10
100.279
 20
3.11885
 11
100.27
 21
2.97063
  0
LINE
  8
0
 10
100.27
 20
2.97063
 11
100.245
 21
2.83792
  0
LINE
  8
0
 10
100.245
 20
2.83792
 11
100.204
 21
2.72072
  0
LINE
  8
0
 10
100.204
 20
2.72072
 11
100.146
 21
2.61903
  0
LINE
  8
0
 10
100.146
 20
2.61903
 11
100.073
 21
2.53685
  0
LINE
  8
0
 10
100.073
 20
2.53685
 11
99.9875
 21
2.47813
  0
LINE
  8
0
 10
99.9875
 20
2.47813
 11
99.8893
 21
2.44292
  0
LINE
  8
0
 10
99.8893
 20
2.44292
 11
99.7783
 21
2.43117
  0
LINE
  8
0
 10
99.7783
 20
2.43117
 11
99.6656
 21
2.44299
  0
LINE
  8
0
 10
23.7984
 20
3.41487
 11
23.8223
 21
3.51151
  0
LINE
  8
0
 10
23.8223
 20
3.51151
 11
23.8441
 21
3.61014
  0
LINE
  8
0
 10
23.8441
 20
3.61014
 11
23.8638
 21
3.71074
  0
LINE
  8
0
 10
23.8638
 20
3.71074
 11
23.8814
 21
3.81335
  0
LINE
  8
0
 10
23.8814
 20
3.81335
 11
23.898
 21
3.91724
  0
LINE
  8
0
 10
23.898
 20
3.91724
 11
23.9146
 21
4.0217
  0
LINE
  8
0
 10
23.9146
 20
4.0217
 11
23.9312
 21
4.12672
  0
LINE
  8
0
 10
23.9312
 20
4.12672
 11
23.9478
 21
4.23232
  0
LINE
  8
0
 10
23.9478
 20
4.23232
 11
23.9646
 21
4.12474
  0
LINE
  8
0
 10
23.9646
 20
4.12474
 11
23.9819
 21
4.01828
  0
LINE
  8
0
 10
23.9819
 20
4.01828
 11
23.9996
 21
3.91296
  0
LINE
  8
0
 10
23.9996
 20
3.91296
 11
24.0177
 21
3.80879
  0
LINE
  8
0
 10
24.0177
 20
3.80879
 11
24.0369
 21
3.70647
  0
LINE
  8
0
 10
24.0369
 20
3.70647
 11
24.0577
 21
3.6067
  0
LINE
  8
0
 10
24.0577
 20
3.6067
 11
24.0802
 21
3.50951
  0
LINE
  8
0
 10
24.0802
 20
3.50951
 11
24.1043
 21
3.41487
  0
LINE
  8
0
 10
24.1043
 20
3.41487
 11
24.5168
 21
1.84825
  0
LINE
  8
0
 10
24.5168
 20
1.84825
 11
25.4651
 21
1.84825
  0
LINE
  8
0
 10
25.4651
 20
1.84825
 11
26.4087
 21
5.24106
  0
LINE
  8
0
 10
26.4087
 20
5.24106
 11
25.4817
 21
5.24106
  0
LINE
  8
0
 10
25.4817
 20
5.24106
 11
25.1332
 21
3.74049
  0
LINE
  8
0
 10
25.1332
 20
3.74049
 11
25.1076
 21
3.61966
  0
LINE
  8
0
 10
25.1076
 20
3.61966
 11
25.0828
 21
3.49399
  0
LINE
  8
0
 10
25.0828
 20
3.49399
 11
25.059
 21
3.36349
  0
LINE
  8
0
 10
25.059
 20
3.36349
 11
25.036
 21
3.22815
  0
LINE
  8
0
 10
25.036
 20
3.22815
 11
25.0138
 21
3.09081
  0
LINE
  8
0
 10
25.0138
 20
3.09081
 11
24.9921
 21
2.95433
  0
LINE
  8
0
 10
24.9921
 20
2.95433
 11
24.9711
 21
2.81871
  0
LINE
  8
0
 10
24.9711
 20
2.81871
 11
24.9507
 21
2.68394
  0
LINE
  8
0
 10
24.9507
 20
2.68394
 11
24.9269
 21
2.81871
  0
LINE
  8
0
 10
24.9269
 20
2.81871
 11
24.9032
 21
2.95433
  0
LINE
  8
0
 10
24.9032
 20
2.95433
 11
24.8795
 21
3.09081
  0
LINE
  8
0
 10
24.8795
 20
3.09081
 11
24.8558
 21
3.22815
  0
LINE
  8
0
 10
24.8558
 20
3.22815
 11
24.8314
 21
3.36349
  0
LINE
  8
0
 10
24.8314
 20
3.36349
 11
24.8054
 21
3.49399
  0
LINE
  8
0
 10
24.8054
 20
3.49399
 11
24.778
 21
3.61966
  0
LINE
  8
0
 10
24.778
 20
3.61966
 11
24.7491
 21
3.74049
  0
LINE
  8
0
 10
24.7491
 20
3.74049
 11
24.3769
 21
5.24106
  0
LINE
  8
0
 10
24.3769
 20
5.24106
 11
23.5258
 21
5.24106
  0
LINE
  8
0
 10
23.5258
 20
5.24106
 11
23.1512
 21
3.74049
  0
LINE
  8
0
 10
23.1512
 20
3.74049
 11
23.1222
 21
3.61853
  0
LINE
  8
0
 10
23.1222
 20
3.61853
 11
23.0946
 21
3.49171
  0
LINE
  8
0
 10
23.0946
 20
3.49171
 11
23.0683
 21
3.36006
  0
LINE
  8
0
 10
23.0683
 20
3.36006
 11
23.0433
 21
3.22357
  0
LINE
  8
0
 10
23.0433
 20
3.22357
 11
23.0192
 21
3.08511
  0
LINE
  8
0
 10
23.0192
 20
3.08511
 11
22.9956
 21
2.94751
  0
LINE
  8
0
 10
22.9956
 20
2.94751
 11
22.9724
 21
2.81075
  0
LINE
  8
0
 10
22.9724
 20
2.81075
 11
22.9497
 21
2.67484
  0
LINE
  8
0
 10
22.9497
 20
2.67484
 11
22.9067
 21
2.94751
  0
LINE
  8
0
 10
22.9067
 20
2.94751
 11
22.8631
 21
3.22357
  0
LINE
  8
0
 10
22.8631
 20
3.22357
 11
22.8407
 21
3.36006
  0
LINE
  8
0
 10
22.8407
 20
3.36006
 11
22.8172
 21
3.49171
  0
LINE
  8
0
 10
22.8172
 20
3.49171
 11
22.7927
 21
3.61853
  0
LINE
  8
0
 10
22.7927
 20
3.61853
 11
22.7671
 21
3.74049
  0
LINE
  8
0
 10
22.7671
 20
3.74049
 11
22.4186
 21
5.24106
  0
LINE
  8
0
 10
22.4186
 20
5.24106
 11
21.4916
 21
5.24106
  0
LINE
  8
0
 10
21.4916
 20
5.24106
 11
22.4352
 21
1.84825
  0
LINE
  8
0
 10
22.4352
 20
1.84825
 11
23.3859
 21
1.84825
  0
LINE
  8
0
 10
23.3859
 20
1.84825
 11
23.7984
 21
3.41487
  0
LINE
  8
0
 10
29.1238
 20
2.50404
 11
27.5116
 21
2.50404
  0
LINE
  8
0
 10
27.5116
 20
2.50404
 11
27.5116
 21
3.24181
  0
LINE
  8
0
 10
27.5116
 20
3.24181
 11
28.9981
 21
3.24181
  0
LINE
  8
0
 10
28.9981
 20
3.24181
 11
28.9981
 21
3.88393
  0
LINE
  8
0
 10
28.9981
 20
3.88393
 11
27.5116
 21
3.88393
  0
LINE
  8
0
 10
27.5116
 20
3.88393
 11
27.5116
 21
4.58528
  0
LINE
  8
0
 10
27.5116
 20
4.58528
 11
29.1261
 21
4.58528
  0
LINE
  8
0
 10
29.1261
 20
4.58528
 11
29.1261
 21
5.24106
  0
LINE
  8
0
 10
29.1261
 20
5.24106
 11
26.6747
 21
5.24106
  0
LINE
  8
0
 10
26.6747
 20
5.24106
 11
26.6747
 21
1.84825
  0
LINE
  8
0
 10
26.6747
 20
1.84825
 11
29.1238
 21
1.84825
  0
LINE
  8
0
 10
29.1238
 20
1.84825
 11
29.1238
 21
2.50404
  0
LINE
  8
0
 10
30.4034
 20
3.01637
 11
30.8586
 21
3.01637
  0
LINE
  8
0
 10
30.8586
 20
3.01637
 11
31.5058
 21
1.84825
  0
LINE
  8
0
 10
31.5058
 20
1.84825
 11
32.4233
 21
1.84825
  0
LINE
  8
0
 10
32.4233
 20
1.84825
 11
31.686
 21
3.14391
  0
LINE
  8
0
 10
31.686
 20
3.14391
 11
31.8246
 21
3.21506
  0
LINE
  8
0
 10
31.8246
 20
3.21506
 11
31.9465
 21
3.30103
  0
LINE
  8
0
 10
31.9465
 20
3.30103
 11
32.0516
 21
3.40178
  0
LINE
  8
0
 10
32.0516
 20
3.40178
 11
32.14
 21
3.51735
  0
LINE
  8
0
 10
32.14
 20
3.51735
 11
32.21
 21
3.64685
  0
LINE
  8
0
 10
32.21
 20
3.64685
 11
32.26
 21
3.78944
  0
LINE
  8
0
 10
32.26
 20
3.78944
 11
32.29
 21
3.94514
  0
LINE
  8
0
 10
32.29
 20
3.94514
 11
32.3
 21
4.11392
  0
LINE
  8
0
 10
32.3
 20
4.11392
 11
32.2785
 21
4.36006
  0
LINE
  8
0
 10
32.2785
 20
4.36006
 11
32.2138
 21
4.57928
  0
LINE
  8
0
 10
32.2138
 20
4.57928
 11
32.106
 21
4.77162
  0
LINE
  8
0
 10
32.106
 20
4.77162
 11
31.9551
 21
4.93706
  0
LINE
  8
0
 10
31.9551
 20
4.93706
 11
31.7668
 21
5.07005
  0
LINE
  8
0
 10
31.7668
 20
5.07005
 11
31.547
 21
5.16505
  0
LINE
  8
0
 10
31.547
 20
5.16505
 11
31.2956
 21
5.22205
  0
LINE
  8
0
 10
31.2956
 20
5.22205
 11
31.0127
 21
5.24106
  0
LINE
  8
0
 10
31.0127
 20
5.24106
 11
29.5665
 21
5.24106
  0
LINE
  8
0
 10
29.5665
 20
5.24106
 11
29.5665
 21
1.84825
  0
LINE
  8
0
 10
29.5665
 20
1.84825
 11
30.4034
 21
1.84825
  0
LINE
  8
0
 10
30.4034
 20
1.84825
 11
30.4034
 21
3.01637
  0
LINE
  8
0
 10
30.4034
 20
3.65169
 11
30.4034
 21
4.58984
  0
LINE
  8
0
 10
30.4034
 20
4.58984
 11
30.8349
 21
4.58984
  0
LINE
  8
0
 10
30.8349
 20
4.58984
 11
31.0962
 21
4.56009
  0
LINE
  8
0
 10
31.0962
 20
4.56009
 11
31.2829
 21
4.47086
  0
LINE
  8
0
 10
31.2829
 20
4.47086
 11
31.395
 21
4.32214
  0
LINE
  8
0
 10
31.395
 20
4.32214
 11
31.4323
 21
4.11392
  0
LINE
  8
0
 10
31.4323
 20
4.11392
 11
31.3951
 21
3.9117
  0
LINE
  8
0
 10
31.3951
 20
3.9117
 11
31.2835
 21
3.76724
  0
LINE
  8
0
 10
31.2835
 20
3.76724
 11
31.0976
 21
3.68057
  0
LINE
  8
0
 10
31.0976
 20
3.68057
 11
30.8372
 21
3.65169
  0
LINE
  8
0
 10
30.8372
 20
3.65169
 11
30.4034
 21
3.65169
  0
LINE
  8
0
 10
36.4991
 20
1.86099
 11
36.7402
 21
1.8992
  0
LINE
  8
0
 10
36.7402
 20
1.8992
 11
36.9627
 21
1.96288
  0
LINE
  8
0
 10
36.9627
 20
1.96288
 11
37.1664
 21
2.05203
  0
LINE
  8
0
 10
37.1664
 20
2.05203
 11
37.3497
 21
2.16489
  0
LINE
  8
0
 10
37.3497
 20
2.16489
 11
37.5108
 21
2.29967
  0
LINE
  8
0
 10
37.5108
 20
2.29967
 11
37.6496
 21
2.45634
  0
LINE
  8
0
 10
37.6496
 20
2.45634
 11
37.7662
 21
2.63495
  0
LINE
  8
0
 10
37.7662
 20
2.63495
 11
37.8585
 21
2.83398
  0
LINE
  8
0
 10
37.8585
 20
2.83398
 11
37.9245
 21
3.05196
  0
LINE
  8
0
 10
37.9245
 20
3.05196
 11
37.964
 21
3.28885
  0
LINE
  8
0
 10
37.964
 20
3.28885
 11
37.9772
 21
3.54468
  0
LINE
  8
0
 10
37.9772
 20
3.54468
 11
37.964
 21
3.79955
  0
LINE
  8
0
 10
37.964
 20
3.79955
 11
37.9245
 21
4.03593
  0
LINE
  8
0
 10
37.9245
 20
4.03593
 11
37.8585
 21
4.2538
  0
LINE
  8
0
 10
37.8585
 20
4.2538
 11
37.7662
 21
4.45319
  0
LINE
  8
0
 10
37.7662
 20
4.45319
 11
37.6496
 21
4.63229
  0
LINE
  8
0
 10
37.6496
 20
4.63229
 11
37.5108
 21
4.78934
  0
LINE
  8
0
 10
37.5108
 20
4.78934
 11
37.3497
 21
4.92433
  0
LINE
  8
0
 10
37.3497
 20
4.92433
 11
37.1664
 21
5.03725
  0
LINE
  8
0
 10
37.1664
 20
5.03725
 11
36.9627
 21
5.1264
  0
LINE
  8
0
 10
36.9627
 20
5.1264
 11
36.7402
 21
5.19011
  0
LINE
  8
0
 10
36.7402
 20
5.19011
 11
36.4991
 21
5.22832
  0
LINE
  8
0
 10
36.4991
 20
5.22832
 11
36.2394
 21
5.24106
  0
LINE
  8
0
 10
36.2394
 20
5.24106
 11
34.9402
 21
5.24106
  0
LINE
  8
0
 10
34.9402
 20
5.24106
 11
34.9402
 21
1.84825
  0
LINE
  8
0
 10
34.9402
 20
1.84825
 11
36.2394
 21
1.84825
  0
LINE
  8
0
 10
36.2394
 20
1.84825
 11
36.4991
 21
1.86099
  0
LINE
  8
0
 10
35.7771
 20
2.53593
 11
35.7771
 21
4.55338
  0
LINE
  8
0
 10
35.7771
 20
4.55338
 11
36.192
 21
4.55338
  0
LINE
  8
0
 10
36.192
 20
4.55338
 11
36.4104
 21
4.53908
  0
LINE
  8
0
 10
36.4104
 20
4.53908
 11
36.601
 21
4.49615
  0
LINE
  8
0
 10
36.601
 20
4.49615
 11
36.7636
 21
4.42464
  0
LINE
  8
0
 10
36.7636
 20
4.42464
 11
36.8985
 21
4.32452
  0
LINE
  8
0
 10
36.8985
 20
4.32452
 11
37.0043
 21
4.18997
  0
LINE
  8
0
 10
37.0043
 20
4.18997
 11
37.0799
 21
4.01514
  0
LINE
  8
0
 10
37.0799
 20
4.01514
 11
37.1252
 21
3.80005
  0
LINE
  8
0
 10
37.1252
 20
3.80005
 11
37.1403
 21
3.54468
  0
LINE
  8
0
 10
37.1403
 20
3.54468
 11
37.1253
 21
3.28928
  0
LINE
  8
0
 10
37.1253
 20
3.28928
 11
37.0802
 21
3.07417
  0
LINE
  8
0
 10
37.0802
 20
3.07417
 11
37.005
 21
2.89932
  0
LINE
  8
0
 10
37.005
 20
2.89932
 11
36.8997
 21
2.76476
  0
LINE
  8
0
 10
36.8997
 20
2.76476
 11
36.7659
 21
2.66464
  0
LINE
  8
0
 10
36.7659
 20
2.66464
 11
36.6054
 21
2.59314
  0
LINE
  8
0
 10
36.6054
 20
2.59314
 11
36.418
 21
2.55023
  0
LINE
  8
0
 10
36.418
 20
2.55023
 11
36.2038
 21
2.53593
  0
LINE
  8
0
 10
36.2038
 20
2.53593
 11
35.7771
 21
2.53593
  0
LINE
  8
0
 10
15.4421
 20
3.2532
 11
16.8528
 21
3.2532
  0
LINE
  8
0
 10
16.8528
 20
3.2532
 11
16.8528
 21
1.84825
  0
LINE
  8
0
 10
16.8528
 20
1.84825
 11
17.6873
 21
1.84825
  0
LINE
  8
0
 10
17.6873
 20
1.84825
 11
17.6873
 21
5.24106
  0
LINE
  8
0
 10
17.6873
 20
5.24106
 11
16.8528
 21
5.24106
  0
LINE
  8
0
 10
16.8528
 20
5.24106
 11
16.8528
 21
3.90898
  0
LINE
  8
0
 10
16.8528
 20
3.90898
 11
15.4421
 21
3.90898
  0
LINE
  8
0
 10
15.4421
 20
3.90898
 11
15.4421
 21
5.24106
  0
LINE
  8
0
 10
15.4421
 20
5.24106
 11
14.6052
 21
5.24106
  0
LINE
  8
0
 10
14.6052
 20
5.24106
 11
14.6052
 21
1.84825
  0
LINE
  8
0
 10
14.6052
 20
1.84825
 11
15.4421
 21
1.84825
  0
LINE
  8
0
 10
15.4421
 20
1.84825
 11
15.4421
 21
3.2532
  0
LINE
  8
0
 10
39.2037
 20
3.01637
 11
39.6589
 21
3.01637
  0
LINE
  8
0
 10
39.6589
 20
3.01637
 11
40.3061
 21
1.84825
  0
LINE
  8
0
 10
40.3061
 20
1.84825
 11
41.2236
 21
1.84825
  0
LINE
  8
0
 10
41.2236
 20
1.84825
 11
40.4863
 21
3.14391
  0
LINE
  8
0
 10
40.4863
 20
3.14391
 11
40.6249
 21
3.21506
  0
LINE
  8
0
 10
40.6249
 20
3.21506
 11
40.7468
 21
3.30103
  0
LINE
  8
0
 10
40.7468
 20
3.30103
 11
40.8519
 21
3.40178
  0
LINE
  8
0
 10
40.8519
 20
3.40178
 11
40.9403
 21
3.51735
  0
LINE
  8
0
 10
40.9403
 20
3.51735
 11
41.0103
 21
3.64685
  0
LINE
  8
0
 10
41.0103
 20
3.64685
 11
41.0603
 21
3.78944
  0
LINE
  8
0
 10
41.0603
 20
3.78944
 11
41.0904
 21
3.94514
  0
LINE
  8
0
 10
41.0904
 20
3.94514
 11
41.1004
 21
4.11392
  0
LINE
  8
0
 10
41.1004
 20
4.11392
 11
41.0788
 21
4.36006
  0
LINE
  8
0
 10
41.0788
 20
4.36006
 11
41.0141
 21
4.57928
  0
LINE
  8
0
 10
41.0141
 20
4.57928
 11
40.9063
 21
4.77162
  0
LINE
  8
0
 10
40.9063
 20
4.77162
 11
40.7554
 21
4.93706
  0
LINE
  8
0
 10
40.7554
 20
4.93706
 11
40.5671
 21
5.07005
  0
LINE
  8
0
 10
40.5671
 20
5.07005
 11
40.3473
 21
5.16505
  0
LINE
  8
0
 10
40.3473
 20
5.16505
 11
40.0959
 21
5.22205
  0
LINE
  8
0
 10
40.0959
 20
5.22205
 11
39.813
 21
5.24106
  0
LINE
  8
0
 10
39.813
 20
5.24106
 11
38.3668
 21
5.24106
  0
LINE
  8
0
 10
38.3668
 20
5.24106
 11
38.3668
 21
1.84825
  0
LINE
  8
0
 10
38.3668
 20
1.84825
 11
39.2037
 21
1.84825
  0
LINE
  8
0
 10
39.2037
 20
1.84825
 11
39.2037
 21
3.01637
  0
LINE
  8
0
 10
39.2037
 20
3.65169
 11
39.2037
 21
4.58984
  0
LINE
  8
0
 10
39.2037
 20
4.58984
 11
39.6352
 21
4.58984
  0
LINE
  8
0
 10
39.6352
 20
4.58984
 11
39.8966
 21
4.56009
  0
LINE
  8
0
 10
39.8966
 20
4.56009
 11
40.0833
 21
4.47086
  0
LINE
  8
0
 10
40.0833
 20
4.47086
 11
40.1953
 21
4.32214
  0
LINE
  8
0
 10
40.1953
 20
4.32214
 11
40.2326
 21
4.11392
  0
LINE
  8
0
 10
40.2326
 20
4.11392
 11
40.1954
 21
3.9117
  0
LINE
  8
0
 10
40.1954
 20
3.9117
 11
40.0839
 21
3.76724
  0
LINE
  8
0
 10
40.0839
 20
3.76724
 11
39.8979
 21
3.68057
  0
LINE
  8
0
 10
39.8979
 20
3.68057
 11
39.6376
 21
3.65169
  0
LINE
  8
0
 10
39.6376
 20
3.65169
 11
39.2037
 21
3.65169
  0
LINE
  8
0
 10
47.3678
 20
3.2532
 11
47.3668
 21
3.33937
  0
LINE
  8
0
 10
47.3668
 20
3.33937
 11
47.3639
 21
3.43849
  0
LINE
  8
0
 10
47.3639
 20
3.43849
 11
47.3591
 21
3.55057
  0
LINE
  8
0
 10
47.3591
 20
3.55057
 11
47.3524
 21
3.67558
  0
LINE
  8
0
 10
47.3524
 20
3.67558
 11
47.3443
 21
3.80943
  0
LINE
  8
0
 10
47.3443
 20
3.80943
 11
47.3355
 21
3.94798
  0
LINE
  8
0
 10
47.3355
 20
3.94798
 11
47.326
 21
4.09123
  0
LINE
  8
0
 10
47.326
 20
4.09123
 11
47.3157
 21
4.23917
  0
LINE
  8
0
 10
47.3157
 20
4.23917
 11
47.3643
 21
4.1404
  0
LINE
  8
0
 10
47.3643
 20
4.1404
 11
47.4108
 21
4.04675
  0
LINE
  8
0
 10
47.4108
 20
4.04675
 11
47.455
 21
3.95822
  0
LINE
  8
0
 10
47.455
 20
3.95822
 11
47.497
 21
3.87483
  0
LINE
  8
0
 10
47.497
 20
3.87483
 11
47.5381
 21
3.79485
  0
LINE
  8
0
 10
47.5381
 20
3.79485
 11
47.5794
 21
3.71657
  0
LINE
  8
0
 10
47.5794
 20
3.71657
 11
47.621
 21
3.64001
  0
LINE
  8
0
 10
47.621
 20
3.64001
 11
47.663
 21
3.56516
  0
LINE
  8
0
 10
47.663
 20
3.56516
 11
47.7063
 21
3.49016
  0
LINE
  8
0
 10
47.7063
 20
3.49016
 11
47.7522
 21
3.41316
  0
LINE
  8
0
 10
47.7522
 20
3.41316
 11
47.8006
 21
3.33418
  0
LINE
  8
0
 10
47.8006
 20
3.33418
 11
47.8515
 21
3.2532
  0
LINE
  8
0
 10
47.8515
 20
3.2532
 11
48.7547
 21
1.84825
  0
LINE
  8
0
 10
48.7547
 20
1.84825
 11
49.677
 21
1.84825
  0
LINE
  8
0
 10
49.677
 20
1.84825
 11
49.677
 21
5.24106
  0
LINE
  8
0
 10
49.677
 20
5.24106
 11
48.8187
 21
5.24106
  0
LINE
  8
0
 10
48.8187
 20
5.24106
 11
48.8187
 21
3.79739
  0
LINE
  8
0
 10
48.8187
 20
3.79739
 11
48.8197
 21
3.70306
  0
LINE
  8
0
 10
48.8197
 20
3.70306
 11
48.8226
 21
3.59761
  0
LINE
  8
0
 10
48.8226
 20
3.59761
 11
48.8274
 21
3.48105
  0
LINE
  8
0
 10
48.8274
 20
3.48105
 11
48.8342
 21
3.35339
  0
LINE
  8
0
 10
48.8342
 20
3.35339
 11
48.8421
 21
3.22089
  0
LINE
  8
0
 10
48.8421
 20
3.22089
 11
48.8505
 21
3.08981
  0
LINE
  8
0
 10
48.8505
 20
3.08981
 11
48.8593
 21
2.96016
  0
LINE
  8
0
 10
48.8593
 20
2.96016
 11
48.8686
 21
2.83194
  0
LINE
  8
0
 10
48.8686
 20
2.83194
 11
48.8128
 21
2.96629
  0
LINE
  8
0
 10
48.8128
 20
2.96629
 11
48.7571
 21
3.09154
  0
LINE
  8
0
 10
48.7571
 20
3.09154
 11
48.7014
 21
3.20766
  0
LINE
  8
0
 10
48.7014
 20
3.20766
 11
48.6457
 21
3.31467
  0
LINE
  8
0
 10
48.6457
 20
3.31467
 11
48.5895
 21
3.41615
  0
LINE
  8
0
 10
48.5895
 20
3.41615
 11
48.5325
 21
3.51562
  0
LINE
  8
0
 10
48.5325
 20
3.51562
 11
48.4745
 21
3.61311
  0
LINE
  8
0
 10
48.4745
 20
3.61311
 11
48.4157
 21
3.70859
  0
LINE
  8
0
 10
48.4157
 20
3.70859
 11
47.4295
 21
5.24106
  0
LINE
  8
0
 10
47.4295
 20
5.24106
 11
46.5096
 21
5.24106
  0
LINE
  8
0
 10
46.5096
 20
5.24106
 11
46.5096
 21
1.84825
  0
LINE
  8
0
 10
46.5096
 20
1.84825
 11
47.3678
 21
1.84825
  0
LINE
  8
0
 10
47.3678
 20
1.84825
 11
47.3678
 21
3.2532
  0
LINE
  8
0
 10
45.992
 20
5.24106
 11
45.1552
 21
5.24106
  0
LINE
  8
0
 10
45.1552
 20
5.24106
 11
45.1552
 21
1.84825
  0
LINE
  8
0
 10
45.1552
 20
1.84825
 11
45.992
 21
1.84825
  0
LINE
  8
0
 10
45.992
 20
1.84825
 11
45.992
 21
5.24106
  0
LINE
  8
0
 10
112.636
 20
5.24106
 11
111.771
 21
5.24106
  0
LINE
  8
0
 10
111.771
 20
5.24106
 11
110.984
 21
4.72189
  0
LINE
  8
0
 10
110.984
 20
4.72189
 11
110.984
 21
4.01602
  0
LINE
  8
0
 10
110.984
 20
4.01602
 11
111.778
 21
4.54199
  0
LINE
  8
0
 10
111.778
 20
4.54199
 11
111.802
 21
4.54199
  0
LINE
  8
0
 10
111.802
 20
4.54199
 11
111.802
 21
1.84825
  0
LINE
  8
0
 10
111.802
 20
1.84825
 11
112.636
 21
1.84825
  0
LINE
  8
0
 10
112.636
 20
1.84825
 11
112.636
 21
5.24106
  0
LINE
  8
0
 10
104.454
 20
1.82791
 11
104.666
 21
1.90347
  0
LINE
  8
0
 10
104.666
 20
1.90347
 11
104.838
 21
2.02942
  0
LINE
  8
0
 10
104.838
 20
2.02942
 11
104.968
 21
2.20575
  0
LINE
  8
0
 10
104.968
 20
2.20575
 11
104.99
 21
2.20575
  0
LINE
  8
0
 10
104.99
 20
2.20575
 11
104.99
 21
1.84825
  0
LINE
  8
0
 10
104.99
 20
1.84825
 11
105.767
 21
1.84825
  0
LINE
  8
0
 10
105.767
 20
1.84825
 11
105.767
 21
3.57654
  0
LINE
  8
0
 10
105.767
 20
3.57654
 11
105.758
 21
3.70796
  0
LINE
  8
0
 10
105.758
 20
3.70796
 11
105.728
 21
3.82899
  0
LINE
  8
0
 10
105.728
 20
3.82899
 11
105.679
 21
3.93964
  0
LINE
  8
0
 10
105.679
 20
3.93964
 11
105.61
 21
4.03989
  0
LINE
  8
0
 10
105.61
 20
4.03989
 11
105.524
 21
4.1292
  0
LINE
  8
0
 10
105.524
 20
4.1292
 11
105.425
 21
4.20697
  0
LINE
  8
0
 10
105.425
 20
4.20697
 11
105.312
 21
4.27322
  0
LINE
  8
0
 10
105.312
 20
4.27322
 11
105.185
 21
4.32794
  0
LINE
  8
0
 10
105.185
 20
4.32794
 11
105.048
 21
4.37079
  0
LINE
  8
0
 10
105.048
 20
4.37079
 11
104.903
 21
4.4014
  0
LINE
  8
0
 10
104.903
 20
4.4014
 11
104.75
 21
4.41977
  0
LINE
  8
0
 10
104.75
 20
4.41977
 11
104.589
 21
4.42589
  0
LINE
  8
0
 10
104.589
 20
4.42589
 11
104.352
 21
4.41315
  0
LINE
  8
0
 10
104.352
 20
4.41315
 11
104.14
 21
4.37494
  0
LINE
  8
0
 10
104.14
 20
4.37494
 11
103.951
 21
4.31125
  0
LINE
  8
0
 10
103.951
 20
4.31125
 11
103.787
 21
4.22208
  0
LINE
  8
0
 10
103.787
 20
4.22208
 11
103.648
 21
4.11258
  0
LINE
  8
0
 10
103.648
 20
4.11258
 11
103.539
 21
3.98784
  0
LINE
  8
0
 10
103.539
 20
3.98784
 11
103.457
 21
3.84787
  0
LINE
  8
0
 10
103.457
 20
3.84787
 11
103.404
 21
3.69267
  0
LINE
  8
0
 10
103.404
 20
3.69267
 11
104.153
 21
3.5993
  0
LINE
  8
0
 10
104.153
 20
3.5993
 11
104.174
 21
3.65651
  0
LINE
  8
0
 10
104.174
 20
3.65651
 11
104.206
 21
3.70744
  0
LINE
  8
0
 10
104.206
 20
3.70744
 11
104.247
 21
3.75214
  0
LINE
  8
0
 10
104.247
 20
3.75214
 11
104.297
 21
3.79056
  0
LINE
  8
0
 10
104.297
 20
3.79056
 11
104.357
 21
3.82144
  0
LINE
  8
0
 10
104.357
 20
3.82144
 11
104.424
 21
3.84351
  0
LINE
  8
0
 10
104.424
 20
3.84351
 11
104.499
 21
3.85675
  0
LINE
  8
0
 10
104.499
 20
3.85675
 11
104.582
 21
3.86116
  0
LINE
  8
0
 10
104.582
 20
3.86116
 11
104.662
 21
3.85669
  0
LINE
  8
0
 10
104.662
 20
3.85669
 11
104.732
 21
3.84323
  0
LINE
  8
0
 10
104.732
 20
3.84323
 11
104.794
 21
3.82082
  0
LINE
  8
0
 10
104.794
 20
3.82082
 11
104.846
 21
3.78944
  0
LINE
  8
0
 10
104.846
 20
3.78944
 11
104.888
 21
3.74982
  0
LINE
  8
0
 10
104.888
 20
3.74982
 11
104.918
 21
3.70264
  0
LINE
  8
0
 10
104.918
 20
3.70264
 11
104.936
 21
3.6479
  0
LINE
  8
0
 10
104.936
 20
3.6479
 11
104.942
 21
3.58563
  0
LINE
  8
0
 10
104.942
 20
3.58563
 11
104.942
 21
3.57654
  0
LINE
  8
0
 10
104.942
 20
3.57654
 11
104.933
 21
3.52225
  0
LINE
  8
0
 10
104.933
 20
3.52225
 11
104.906
 21
3.47778
  0
LINE
  8
0
 10
104.906
 20
3.47778
 11
104.86
 21
3.44313
  0
LINE
  8
0
 10
104.86
 20
3.44313
 11
104.797
 21
3.41829
  0
LINE
  8
0
 10
104.797
 20
3.41829
 11
104.712
 21
3.39914
  0
LINE
  8
0
 10
104.712
 20
3.39914
 11
104.603
 21
3.38156
  0
LINE
  8
0
 10
104.603
 20
3.38156
 11
104.47
 21
3.36555
  0
LINE
  8
0
 10
104.47
 20
3.36555
 11
104.314
 21
3.3511
  0
LINE
  8
0
 10
104.314
 20
3.3511
 11
104.183
 21
3.33617
  0
LINE
  8
0
 10
104.183
 20
3.33617
 11
104.057
 21
3.3141
  0
LINE
  8
0
 10
104.057
 20
3.3141
 11
103.937
 21
3.28493
  0
LINE
  8
0
 10
103.937
 20
3.28493
 11
103.822
 21
3.24863
  0
LINE
  8
0
 10
103.822
 20
3.24863
 11
103.716
 21
3.20338
  0
LINE
  8
0
 10
103.716
 20
3.20338
 11
103.62
 21
3.14731
  0
LINE
  8
0
 10
103.62
 20
3.14731
 11
103.536
 21
3.08043
  0
LINE
  8
0
 10
103.536
 20
3.08043
 11
103.463
 21
3.00272
  0
LINE
  8
0
 10
103.463
 20
3.00272
 11
103.404
 21
2.91235
  0
LINE
  8
0
 10
103.404
 20
2.91235
 11
103.362
 21
2.80746
  0
LINE
  8
0
 10
103.362
 20
2.80746
 11
103.336
 21
2.68806
  0
LINE
  8
0
 10
103.336
 20
2.68806
 11
103.328
 21
2.55414
  0
LINE
  8
0
 10
103.328
 20
2.55414
 11
103.343
 21
2.37711
  0
LINE
  8
0
 10
103.343
 20
2.37711
 11
103.389
 21
2.22397
  0
LINE
  8
0
 10
103.389
 20
2.22397
 11
103.466
 21
2.09476
  0
LINE
  8
0
 10
103.466
 20
2.09476
 11
103.573
 21
1.98944
  0
LINE
  8
0
 10
103.573
 20
1.98944
 11
103.704
 21
1.90776
  0
LINE
  8
0
 10
103.704
 20
1.90776
 11
103.853
 21
1.84941
  0
LINE
  8
0
 10
103.853
 20
1.84941
 11
104.018
 21
1.81439
  0
LINE
  8
0
 10
104.018
 20
1.81439
 11
104.2
 21
1.80273
  0
LINE
  8
0
 10
104.2
 20
1.80273
 11
104.454
 21
1.82791
  0
LINE
  8
0
 10
104.38
 20
2.3329
 11
104.316
 21
2.34549
  0
LINE
  8
0
 10
104.316
 20
2.34549
 11
104.258
 21
2.36649
  0
LINE
  8
0
 10
104.258
 20
2.36649
 11
104.206
 21
2.39589
  0
LINE
  8
0
 10
104.206
 20
2.39589
 11
104.164
 21
2.43324
  0
LINE
  8
0
 10
104.164
 20
2.43324
 11
104.134
 21
2.47815
  0
LINE
  8
0
 10
104.134
 20
2.47815
 11
104.116
 21
2.53059
  0
LINE
  8
0
 10
104.116
 20
2.53059
 11
104.11
 21
2.59056
  0
LINE
  8
0
 10
104.11
 20
2.59056
 11
104.134
 21
2.70256
  0
LINE
  8
0
 10
104.134
 20
2.70256
 11
104.206
 21
2.79037
  0
LINE
  8
0
 10
104.206
 20
2.79037
 11
104.325
 21
2.85399
  0
LINE
  8
0
 10
104.325
 20
2.85399
 11
104.492
 21
2.89342
  0
LINE
  8
0
 10
104.492
 20
2.89342
 11
104.551
 21
2.90295
  0
LINE
  8
0
 10
104.551
 20
2.90295
 11
104.613
 21
2.91333
  0
LINE
  8
0
 10
104.613
 20
2.91333
 11
104.677
 21
2.92458
  0
LINE
  8
0
 10
104.677
 20
2.92458
 11
104.743
 21
2.93668
  0
LINE
  8
0
 10
104.743
 20
2.93668
 11
104.807
 21
2.94991
  0
LINE
  8
0
 10
104.807
 20
2.94991
 11
104.862
 21
2.96457
  0
LINE
  8
0
 10
104.862
 20
2.96457
 11
104.91
 21
2.98067
  0
LINE
  8
0
 10
104.91
 20
2.98067
 11
104.949
 21
2.99818
  0
LINE
  8
0
 10
104.949
 20
2.99818
 11
104.949
 21
2.75452
  0
LINE
  8
0
 10
104.949
 20
2.75452
 11
104.94
 21
2.66443
  0
LINE
  8
0
 10
104.94
 20
2.66443
 11
104.913
 21
2.58316
  0
LINE
  8
0
 10
104.913
 20
2.58316
 11
104.868
 21
2.51071
  0
LINE
  8
0
 10
104.868
 20
2.51071
 11
104.805
 21
2.4471
  0
LINE
  8
0
 10
104.805
 20
2.4471
 11
104.729
 21
2.39529
  0
LINE
  8
0
 10
104.729
 20
2.39529
 11
104.644
 21
2.35831
  0
LINE
  8
0
 10
104.644
 20
2.35831
 11
104.552
 21
2.33611
  0
LINE
  8
0
 10
104.552
 20
2.33611
 11
104.452
 21
2.3287
  0
LINE
  8
0
 10
104.452
 20
2.3287
 11
104.38
 21
2.3329
  0
LINE
  8
0
 10
102.387
 20
3.23724
 11
102.397
 21
3.34569
  0
LINE
  8
0
 10
102.397
 20
3.34569
 11
102.425
 21
3.44331
  0
LINE
  8
0
 10
102.425
 20
3.44331
 11
102.472
 21
3.53014
  0
LINE
  8
0
 10
102.472
 20
3.53014
 11
102.538
 21
3.60611
  0
LINE
  8
0
 10
102.538
 20
3.60611
 11
102.618
 21
3.66789
  0
LINE
  8
0
 10
102.618
 20
3.66789
 11
102.708
 21
3.71201
  0
LINE
  8
0
 10
102.708
 20
3.71201
 11
102.808
 21
3.73848
  0
LINE
  8
0
 10
102.808
 20
3.73848
 11
102.918
 21
3.7473
  0
LINE
  8
0
 10
102.918
 20
3.7473
 11
102.957
 21
3.74666
  0
LINE
  8
0
 10
102.957
 20
3.74666
 11
102.999
 21
3.74475
  0
LINE
  8
0
 10
102.999
 20
3.74475
 11
103.043
 21
3.74155
  0
LINE
  8
0
 10
103.043
 20
3.74155
 11
103.09
 21
3.73706
  0
LINE
  8
0
 10
103.09
 20
3.73706
 11
103.136
 21
3.73131
  0
LINE
  8
0
 10
103.136
 20
3.73131
 11
103.177
 21
3.72426
  0
LINE
  8
0
 10
103.177
 20
3.72426
 11
103.213
 21
3.71594
  0
LINE
  8
0
 10
103.213
 20
3.71594
 11
103.245
 21
3.70634
  0
LINE
  8
0
 10
103.245
 20
3.70634
 11
103.245
 21
4.39856
  0
LINE
  8
0
 10
103.245
 20
4.39856
 11
103.188
 21
4.41051
  0
LINE
  8
0
 10
103.188
 20
4.41051
 11
103.13
 21
4.41905
  0
LINE
  8
0
 10
103.13
 20
4.41905
 11
103.071
 21
4.42418
  0
LINE
  8
0
 10
103.071
 20
4.42418
 11
103.011
 21
4.42589
  0
LINE
  8
0
 10
103.011
 20
4.42589
 11
102.905
 21
4.4182
  0
LINE
  8
0
 10
102.905
 20
4.4182
 11
102.806
 21
4.39514
  0
LINE
  8
0
 10
102.806
 20
4.39514
 11
102.713
 21
4.35672
  0
LINE
  8
0
 10
102.713
 20
4.35672
 11
102.628
 21
4.30293
  0
LINE
  8
0
 10
102.628
 20
4.30293
 11
102.551
 21
4.23347
  0
LINE
  8
0
 10
102.551
 20
4.23347
 11
102.486
 21
4.14809
  0
LINE
  8
0
 10
102.486
 20
4.14809
 11
102.433
 21
4.04675
  0
LINE
  8
0
 10
102.433
 20
4.04675
 11
102.392
 21
3.92949
  0
LINE
  8
0
 10
102.392
 20
3.92949
 11
102.363
 21
3.92949
  0
LINE
  8
0
 10
102.363
 20
3.92949
 11
102.363
 21
4.394
  0
LINE
  8
0
 10
102.363
 20
4.394
 11
101.56
 21
4.394
  0
LINE
  8
0
 10
101.56
 20
4.394
 11
101.56
 21
1.84825
  0
LINE
  8
0
 10
101.56
 20
1.84825
 11
102.387
 21
1.84825
  0
LINE
  8
0
 10
102.387
 20
1.84825
 11
102.387
 21
3.23724
  0
LINE
  8
0
 10
83.5606
 20
4.394
 11
82.6976
 21
4.394
  0
LINE
  8
0
 10
82.6976
 20
4.394
 11
82.3088
 21
3.14844
  0
LINE
  8
0
 10
82.3088
 20
3.14844
 11
82.2823
 21
3.06184
  0
LINE
  8
0
 10
82.2823
 20
3.06184
 11
82.2572
 21
2.9751
  0
LINE
  8
0
 10
82.2572
 20
2.9751
 11
82.2337
 21
2.88821
  0
LINE
  8
0
 10
82.2337
 20
2.88821
 11
82.2116
 21
2.80119
  0
LINE
  8
0
 10
82.2116
 20
2.80119
 11
82.1906
 21
2.71346
  0
LINE
  8
0
 10
82.1906
 20
2.71346
 11
82.1701
 21
2.62444
  0
LINE
  8
0
 10
82.1701
 20
2.62444
 11
82.1503
 21
2.53413
  0
LINE
  8
0
 10
82.1503
 20
2.53413
 11
82.131
 21
2.44257
  0
LINE
  8
0
 10
82.131
 20
2.44257
 11
82.1096
 21
2.53421
  0
LINE
  8
0
 10
82.1096
 20
2.53421
 11
82.088
 21
2.62473
  0
LINE
  8
0
 10
82.088
 20
2.62473
 11
82.0663
 21
2.7141
  0
LINE
  8
0
 10
82.0663
 20
2.7141
 11
82.0444
 21
2.80234
  0
LINE
  8
0
 10
82.0444
 20
2.80234
 11
82.0219
 21
2.88971
  0
LINE
  8
0
 10
82.0219
 20
2.88971
 11
81.9979
 21
2.97653
  0
LINE
  8
0
 10
81.9979
 20
2.97653
 11
81.9727
 21
3.06277
  0
LINE
  8
0
 10
81.9727
 20
3.06277
 11
81.9461
 21
3.14844
  0
LINE
  8
0
 10
81.9461
 20
3.14844
 11
81.5502
 21
4.394
  0
LINE
  8
0
 10
81.5502
 20
4.394
 11
80.6777
 21
4.394
  0
LINE
  8
0
 10
80.6777
 20
4.394
 11
81.6379
 21
1.84825
  0
LINE
  8
0
 10
81.6379
 20
1.84825
 11
82.5957
 21
1.84825
  0
LINE
  8
0
 10
82.5957
 20
1.84825
 11
83.5606
 21
4.394
  0
LINE
  8
0
 10
78.8636
 20
3.03766
 11
78.9471
 21
3.0605
  0
LINE
  8
0
 10
78.9471
 20
3.0605
 11
79.023
 21
3.09857
  0
LINE
  8
0
 10
79.023
 20
3.09857
 11
79.0914
 21
3.15186
  0
LINE
  8
0
 10
79.0914
 20
3.15186
 11
79.1479
 21
3.2164
  0
LINE
  8
0
 10
79.1479
 20
3.2164
 11
79.1883
 21
3.28819
  0
LINE
  8
0
 10
79.1883
 20
3.28819
 11
79.2125
 21
3.36726
  0
LINE
  8
0
 10
79.2125
 20
3.36726
 11
79.2206
 21
3.45358
  0
LINE
  8
0
 10
79.2206
 20
3.45358
 11
79.2125
 21
3.54088
  0
LINE
  8
0
 10
79.2125
 20
3.54088
 11
79.1883
 21
3.62065
  0
LINE
  8
0
 10
79.1883
 20
3.62065
 11
79.1479
 21
3.69287
  0
LINE
  8
0
 10
79.1479
 20
3.69287
 11
79.0914
 21
3.75755
  0
LINE
  8
0
 10
79.0914
 20
3.75755
 11
79.023
 21
3.81085
  0
LINE
  8
0
 10
79.023
 20
3.81085
 11
78.9471
 21
3.84894
  0
LINE
  8
0
 10
78.9471
 20
3.84894
 11
78.8636
 21
3.87178
  0
LINE
  8
0
 10
78.8636
 20
3.87178
 11
78.7725
 21
3.87939
  0
LINE
  8
0
 10
78.7725
 20
3.87939
 11
78.6815
 21
3.87178
  0
LINE
  8
0
 10
78.6815
 20
3.87178
 11
78.598
 21
3.84894
  0
LINE
  8
0
 10
78.598
 20
3.84894
 11
78.522
 21
3.81085
  0
LINE
  8
0
 10
78.522
 20
3.81085
 11
78.4536
 21
3.75755
  0
LINE
  8
0
 10
78.4536
 20
3.75755
 11
78.3971
 21
3.69287
  0
LINE
  8
0
 10
78.3971
 20
3.69287
 11
78.3568
 21
3.62065
  0
LINE
  8
0
 10
78.3568
 20
3.62065
 11
78.3325
 21
3.54088
  0
LINE
  8
0
 10
78.3325
 20
3.54088
 11
78.3244
 21
3.45358
  0
LINE
  8
0
 10
78.3244
 20
3.45358
 11
78.3325
 21
3.36726
  0
LINE
  8
0
 10
78.3325
 20
3.36726
 11
78.3568
 21
3.28819
  0
LINE
  8
0
 10
78.3568
 20
3.28819
 11
78.3971
 21
3.2164
  0
LINE
  8
0
 10
78.3971
 20
3.2164
 11
78.4536
 21
3.15186
  0
LINE
  8
0
 10
78.4536
 20
3.15186
 11
78.522
 21
3.09857
  0
LINE
  8
0
 10
78.522
 20
3.09857
 11
78.598
 21
3.0605
  0
LINE
  8
0
 10
78.598
 20
3.0605
 11
78.6815
 21
3.03766
  0
LINE
  8
0
 10
78.6815
 20
3.03766
 11
78.7725
 21
3.03004
  0
LINE
  8
0
 10
78.7725
 20
3.03004
 11
78.8636
 21
3.03766
  0
LINE
  8
0
 10
51.8232
 20
3.84978
 11
50.1945
 21
3.84978
  0
LINE
  8
0
 10
50.1945
 20
3.84978
 11
50.1945
 21
3.23724
  0
LINE
  8
0
 10
50.1945
 20
3.23724
 11
51.8232
 21
3.23724
  0
LINE
  8
0
 10
51.8232
 20
3.23724
 11
51.8232
 21
3.84978
  0
LINE
  8
0
 10
34.3893
 20
3.84978
 11
32.7605
 21
3.84978
  0
LINE
  8
0
 10
32.7605
 20
3.84978
 11
32.7605
 21
3.23724
  0
LINE
  8
0
 10
32.7605
 20
3.23724
 11
34.3893
 21
3.23724
  0
LINE
  8
0
 10
34.3893
 20
3.23724
 11
34.3893
 21
3.84978
  0
LINE
  8
0
 10
97.9874
 20
3.52872
 11
96.3586
 21
3.52872
  0
LINE
  8
0
 10
96.3586
 20
3.52872
 11
96.3586
 21
2.91618
  0
LINE
  8
0
 10
96.3586
 20
2.91618
 11
97.9874
 21
2.91618
  0
LINE
  8
0
 10
97.9874
 20
2.91618
 11
97.9874
 21
3.52872
  0
LINE
  8
0
 10
7.56636
 20
0.800369
 11
7.64903
 21
0.80159
  0
LINE
  8
0
 10
7.64903
 20
0.80159
 11
7.73042
 21
0.803802
  0
LINE
  8
0
 10
7.73042
 20
0.803802
 11
7.81062
 21
0.807144
  0
LINE
  8
0
 10
7.81062
 20
0.807144
 11
7.88969
 21
0.811752
  0
LINE
  8
0
 10
7.88969
 20
0.811752
 11
7.96771
 21
0.81778
  0
LINE
  8
0
 10
7.96771
 20
0.81778
 11
8.04474
 21
0.825363
  0
LINE
  8
0
 10
8.04474
 20
0.825363
 11
8.12083
 21
0.834625
  0
LINE
  8
0
 10
8.12083
 20
0.834625
 11
8.19609
 21
0.845734
  0
LINE
  8
0
 10
8.19609
 20
0.845734
 11
8.27058
 21
0.85881
  0
LINE
  8
0
 10
8.27058
 20
0.85881
 11
8.34436
 21
0.874023
  0
LINE
  8
0
 10
8.34436
 20
0.874023
 11
8.4175
 21
0.891479
  0
LINE
  8
0
 10
8.4175
 20
0.891479
 11
8.49008
 21
0.911331
  0
LINE
  8
0
 10
8.49008
 20
0.911331
 11
8.56216
 21
0.933731
  0
LINE
  8
0
 10
8.56216
 20
0.933731
 11
8.63382
 21
0.958817
  0
LINE
  8
0
 10
8.63382
 20
0.958817
 11
8.70512
 21
0.986725
  0
LINE
  8
0
 10
8.70512
 20
0.986725
 11
8.77614
 21
1.01759
  0
LINE
  8
0
 10
8.77614
 20
1.01759
 11
8.84695
 21
1.05157
  0
LINE
  8
0
 10
8.84695
 20
1.05157
 11
8.91763
 21
1.08879
  0
LINE
  8
0
 10
8.91763
 20
1.08879
 11
8.98822
 21
1.12941
  0
LINE
  8
0
 10
8.98822
 20
1.12941
 11
5.12941
 21
3.34117
  0
LINE
  8
0
 10
5.12941
 20
3.34117
 11
1.64705
 21
1.17647
  0
LINE
  8
0
 10
1.64705
 20
1.17647
 11
1.69046
 21
1.14188
  0
LINE
  8
0
 10
1.69046
 20
1.14188
 11
1.73595
 21
1.10875
  0
LINE
  8
0
 10
1.73595
 20
1.10875
 11
1.78348
 21
1.07709
  0
LINE
  8
0
 10
1.78348
 20
1.07709
 11
1.83302
 21
1.04695
  0
LINE
  8
0
 10
1.83302
 20
1.04695
 11
1.88455
 21
1.01837
  0
LINE
  8
0
 10
1.88455
 20
1.01837
 11
1.93802
 21
0.991379
  0
LINE
  8
0
 10
1.93802
 20
0.991379
 11
1.99339
 21
0.966003
  0
LINE
  8
0
 10
1.99339
 20
0.966003
 11
2.05063
 21
0.942291
  0
LINE
  8
0
 10
2.05063
 20
0.942291
 11
2.10971
 21
0.920288
  0
LINE
  8
0
 10
2.10971
 20
0.920288
 11
2.17058
 21
0.899994
  0
LINE
  8
0
 10
2.17058
 20
0.899994
 11
2.23322
 21
0.88147
  0
LINE
  8
0
 10
2.23322
 20
0.88147
 11
2.29759
 21
0.864746
  0
LINE
  8
0
 10
2.29759
 20
0.864746
 11
2.36366
 21
0.849854
  0
LINE
  8
0
 10
2.36366
 20
0.849854
 11
2.43138
 21
0.836838
  0
LINE
  8
0
 10
2.43138
 20
0.836838
 11
2.50073
 21
0.825729
  0
LINE
  8
0
 10
2.50073
 20
0.825729
 11
2.57166
 21
0.816559
  0
LINE
  8
0
 10
2.57166
 20
0.816559
 11
2.64415
 21
0.809357
  0
LINE
  8
0
 10
2.64415
 20
0.809357
 11
2.71815
 21
0.804184
  0
LINE
  8
0
 10
2.71815
 20
0.804184
 11
2.79364
 21
0.801041
  0
LINE
  8
0
 10
2.79364
 20
0.801041
 11
2.87057
 21
0.799988
  0
LINE
  8
0
 10
2.87057
 20
0.799988
 11
7.48235
 21
0.799988
  0
LINE
  8
0
 10
7.48235
 20
0.799988
 11
7.56636
 21
0.800369
  0
LINE
  8
0
 10
110.479
 20
1.80806
 11
110.562
 21
1.8309
  0
LINE
  8
0
 10
110.562
 20
1.8309
 11
110.638
 21
1.86896
  0
LINE
  8
0
 10
110.638
 20
1.86896
 11
110.706
 21
1.92226
  0
LINE
  8
0
 10
110.706
 20
1.92226
 11
110.763
 21
1.9868
  0
LINE
  8
0
 10
110.763
 20
1.9868
 11
110.803
 21
2.05859
  0
LINE
  8
0
 10
110.803
 20
2.05859
 11
110.828
 21
2.13766
  0
LINE
  8
0
 10
110.828
 20
2.13766
 11
110.836
 21
2.22397
  0
LINE
  8
0
 10
110.836
 20
2.22397
 11
110.828
 21
2.31128
  0
LINE
  8
0
 10
110.828
 20
2.31128
 11
110.803
 21
2.39104
  0
LINE
  8
0
 10
110.803
 20
2.39104
 11
110.763
 21
2.46327
  0
LINE
  8
0
 10
110.763
 20
2.46327
 11
110.706
 21
2.52794
  0
LINE
  8
0
 10
110.706
 20
2.52794
 11
110.638
 21
2.58125
  0
LINE
  8
0
 10
110.638
 20
2.58125
 11
110.562
 21
2.61932
  0
LINE
  8
0
 10
110.562
 20
2.61932
 11
110.479
 21
2.64218
  0
LINE
  8
0
 10
110.479
 20
2.64218
 11
110.388
 21
2.6498
  0
LINE
  8
0
 10
110.388
 20
2.6498
 11
110.297
 21
2.64218
  0
LINE
  8
0
 10
110.297
 20
2.64218
 11
110.213
 21
2.61932
  0
LINE
  8
0
 10
110.213
 20
2.61932
 11
110.137
 21
2.58125
  0
LINE
  8
0
 10
110.137
 20
2.58125
 11
110.069
 21
2.52794
  0
LINE
  8
0
 10
110.069
 20
2.52794
 11
110.012
 21
2.46327
  0
LINE
  8
0
 10
110.012
 20
2.46327
 11
109.972
 21
2.39104
  0
LINE
  8
0
 10
109.972
 20
2.39104
 11
109.948
 21
2.31128
  0
LINE
  8
0
 10
109.948
 20
2.31128
 11
109.94
 21
2.22397
  0
LINE
  8
0
 10
109.94
 20
2.22397
 11
109.948
 21
2.13766
  0
LINE
  8
0
 10
109.948
 20
2.13766
 11
109.972
 21
2.05859
  0
LINE
  8
0
 10
109.972
 20
2.05859
 11
110.012
 21
1.9868
  0
LINE
  8
0
 10
110.012
 20
1.9868
 11
110.069
 21
1.92226
  0
LINE
  8
0
 10
110.069
 20
1.92226
 11
110.137
 21
1.86896
  0
LINE
  8
0
 10
110.137
 20
1.86896
 11
110.213
 21
1.8309
  0
LINE
  8
0
 10
110.213
 20
1.8309
 11
110.297
 21
1.80806
  0
LINE
  8
0
 10
110.297
 20
1.80806
 11
110.388
 21
1.80045
  0
LINE
  8
0
 10
110.388
 20
1.80045
 11
110.479
 21
1.80806
  0
LINE
  8
0
 10
87.5088
 20
1.80806
 11
87.5923
 21
1.8309
  0
LINE
  8
0
 10
87.5923
 20
1.8309
 11
87.6682
 21
1.86896
  0
LINE
  8
0
 10
87.6682
 20
1.86896
 11
87.7366
 21
1.92226
  0
LINE
  8
0
 10
87.7366
 20
1.92226
 11
87.7931
 21
1.9868
  0
LINE
  8
0
 10
87.7931
 20
1.9868
 11
87.8335
 21
2.05859
  0
LINE
  8
0
 10
87.8335
 20
2.05859
 11
87.8577
 21
2.13766
  0
LINE
  8
0
 10
87.8577
 20
2.13766
 11
87.8658
 21
2.22397
  0
LINE
  8
0
 10
87.8658
 20
2.22397
 11
87.8577
 21
2.31128
  0
LINE
  8
0
 10
87.8577
 20
2.31128
 11
87.8335
 21
2.39104
  0
LINE
  8
0
 10
87.8335
 20
2.39104
 11
87.7931
 21
2.46327
  0
LINE
  8
0
 10
87.7931
 20
2.46327
 11
87.7366
 21
2.52794
  0
LINE
  8
0
 10
87.7366
 20
2.52794
 11
87.6682
 21
2.58125
  0
LINE
  8
0
 10
87.6682
 20
2.58125
 11
87.5923
 21
2.61932
  0
LINE
  8
0
 10
87.5923
 20
2.61932
 11
87.5088
 21
2.64218
  0
LINE
  8
0
 10
87.5088
 20
2.64218
 11
87.4177
 21
2.6498
  0
LINE
  8
0
 10
87.4177
 20
2.6498
 11
87.3267
 21
2.64218
  0
LINE
  8
0
 10
87.3267
 20
2.64218
 11
87.2432
 21
2.61932
  0
LINE
  8
0
 10
87.2432
 20
2.61932
 11
87.1673
 21
2.58125
  0
LINE
  8
0
 10
87.1673
 20
2.58125
 11
87.0989
 21
2.52794
  0
LINE
  8
0
 10
87.0989
 20
2.52794
 11
87.0424
 21
2.46327
  0
LINE
  8
0
 10
87.0424
 20
2.46327
 11
87.002
 21
2.39104
  0
LINE
  8
0
 10
87.002
 20
2.39104
 11
86.9778
 21
2.31128
  0
LINE
  8
0
 10
86.9778
 20
2.31128
 11
86.9697
 21
2.22397
  0
LINE
  8
0
 10
86.9697
 20
2.22397
 11
86.9778
 21
2.13766
  0
LINE
  8
0
 10
86.9778
 20
2.13766
 11
87.002
 21
2.05859
  0
LINE
  8
0
 10
87.002
 20
2.05859
 11
87.0424
 21
1.9868
  0
LINE
  8
0
 10
87.0424
 20
1.9868
 11
87.0989
 21
1.92226
  0
LINE
  8
0
 10
87.0989
 20
1.92226
 11
87.1673
 21
1.86896
  0
LINE
  8
0
 10
87.1673
 20
1.86896
 11
87.2432
 21
1.8309
  0
LINE
  8
0
 10
87.2432
 20
1.8309
 11
87.3267
 21
1.80806
  0
LINE
  8
0
 10
87.3267
 20
1.80806
 11
87.4177
 21
1.80045
  0
LINE
  8
0
 10
87.4177
 20
1.80045
 11
87.5088
 21
1.80806
  0
LINE
  8
0
 10
92.1695
 20
1.80806
 11
92.253
 21
1.8309
  0
LINE
  8
0
 10
92.253
 20
1.8309
 11
92.3289
 21
1.86896
  0
LINE
  8
0
 10
92.3289
 20
1.86896
 11
92.3973
 21
1.92226
  0
LINE
  8
0
 10
92.3973
 20
1.92226
 11
92.4538
 21
1.9868
  0
LINE
  8
0
 10
92.4538
 20
1.9868
 11
92.4942
 21
2.05859
  0
LINE
  8
0
 10
92.4942
 20
2.05859
 11
92.5184
 21
2.13766
  0
LINE
  8
0
 10
92.5184
 20
2.13766
 11
92.5265
 21
2.22397
  0
LINE
  8
0
 10
92.5265
 20
2.22397
 11
92.5184
 21
2.31128
  0
LINE
  8
0
 10
92.5184
 20
2.31128
 11
92.4942
 21
2.39104
  0
LINE
  8
0
 10
92.4942
 20
2.39104
 11
92.4538
 21
2.46327
  0
LINE
  8
0
 10
92.4538
 20
2.46327
 11
92.3973
 21
2.52794
  0
LINE
  8
0
 10
92.3973
 20
2.52794
 11
92.3289
 21
2.58125
  0
LINE
  8
0
 10
92.3289
 20
2.58125
 11
92.253
 21
2.61932
  0
LINE
  8
0
 10
92.253
 20
2.61932
 11
92.1695
 21
2.64218
  0
LINE
  8
0
 10
92.1695
 20
2.64218
 11
92.0784
 21
2.6498
  0
LINE
  8
0
 10
92.0784
 20
2.6498
 11
91.9874
 21
2.64218
  0
LINE
  8
0
 10
91.9874
 20
2.64218
 11
91.9039
 21
2.61932
  0
LINE
  8
0
 10
91.9039
 20
2.61932
 11
91.8279
 21
2.58125
  0
LINE
  8
0
 10
91.8279
 20
2.58125
 11
91.7596
 21
2.52794
  0
LINE
  8
0
 10
91.7596
 20
2.52794
 11
91.703
 21
2.46327
  0
LINE
  8
0
 10
91.703
 20
2.46327
 11
91.6627
 21
2.39104
  0
LINE
  8
0
 10
91.6627
 20
2.39104
 11
91.6384
 21
2.31128
  0
LINE
  8
0
 10
91.6384
 20
2.31128
 11
91.6304
 21
2.22397
  0
LINE
  8
0
 10
91.6304
 20
2.22397
 11
91.6384
 21
2.13766
  0
LINE
  8
0
 10
91.6384
 20
2.13766
 11
91.6627
 21
2.05859
  0
LINE
  8
0
 10
91.6627
 20
2.05859
 11
91.703
 21
1.9868
  0
LINE
  8
0
 10
91.703
 20
1.9868
 11
91.7596
 21
1.92226
  0
LINE
  8
0
 10
91.7596
 20
1.92226
 11
91.8279
 21
1.86896
  0
LINE
  8
0
 10
91.8279
 20
1.86896
 11
91.9039
 21
1.8309
  0
LINE
  8
0
 10
91.9039
 20
1.8309
 11
91.9874
 21
1.80806
  0
LINE
  8
0
 10
91.9874
 20
1.80806
 11
92.0784
 21
1.80045
  0
LINE
  8
0
 10
92.0784
 20
1.80045
 11
92.1695
 21
1.80806
  0
ENDSEC
  0
SECTION
  2
OBJECTS
  0
DICTIONARY
  0
ENDSEC
  0
EOF
