solid OpenSCAD_Model
  facet normal 1 0 0
    outer loop
      vertex 78 27 10
      vertex 78 13 10
      vertex 78 27 3
    endloop
  endfacet
  facet normal 1 -0 0
    outer loop
      vertex 78 27 3
      vertex 78 30 0
      vertex 78 30 3
    endloop
  endfacet
  facet normal 1 0 0
    outer loop
      vertex 78 13 3
      vertex 78 27 3
      vertex 78 13 10
    endloop
  endfacet
  facet normal 1 0 0
    outer loop
      vertex 78 27 3
      vertex 78 13 3
      vertex 78 30 0
    endloop
  endfacet
  facet normal 1 0 0
    outer loop
      vertex 78 10 0
      vertex 78 13 3
      vertex 78 10 3
    endloop
  endfacet
  facet normal 1 0 0
    outer loop
      vertex 78 13 3
      vertex 78 10 0
      vertex 78 30 0
    endloop
  endfacet
  facet normal -0 0 1
    outer loop
      vertex 8 27 10
      vertex 78 13 10
      vertex 78 27 10
    endloop
  endfacet
  facet normal 0 0 1
    outer loop
      vertex 78 13 10
      vertex 8 27 10
      vertex 8 13 10
    endloop
  endfacet
  facet normal 0 0 -1
    outer loop
      vertex 8 10 0
      vertex 78 30 0
      vertex 78 10 0
    endloop
  endfacet
  facet normal -0 0 -1
    outer loop
      vertex 78 30 0
      vertex 8 10 0
      vertex 8 30 0
    endloop
  endfacet
  facet normal -1 0 0
    outer loop
      vertex 8 30 0
      vertex 8 27 3
      vertex 8 30 3
    endloop
  endfacet
  facet normal -1 0 0
    outer loop
      vertex 8 27 3
      vertex 8 13 3
      vertex 8 27 10
    endloop
  endfacet
  facet normal -1 0 0
    outer loop
      vertex 8 30 0
      vertex 8 13 3
      vertex 8 27 3
    endloop
  endfacet
  facet normal -1 0 0
    outer loop
      vertex 8 10 0
      vertex 8 13 3
      vertex 8 30 0
    endloop
  endfacet
  facet normal -1 -0 0
    outer loop
      vertex 8 13 3
      vertex 8 10 0
      vertex 8 10 3
    endloop
  endfacet
  facet normal -1 -0 0
    outer loop
      vertex 8 27 10
      vertex 8 13 3
      vertex 8 13 10
    endloop
  endfacet
  facet normal 0 1 -0
    outer loop
      vertex 78 27 3
      vertex 8 27 10
      vertex 78 27 10
    endloop
  endfacet
  facet normal 0 1 0
    outer loop
      vertex 8 27 10
      vertex 78 27 3
      vertex 8 27 3
    endloop
  endfacet
  facet normal 0 -1 0
    outer loop
      vertex 8 13 3
      vertex 78 13 10
      vertex 8 13 10
    endloop
  endfacet
  facet normal 0 -1 -0
    outer loop
      vertex 78 13 10
      vertex 8 13 3
      vertex 78 13 3
    endloop
  endfacet
  facet normal -0 0 1
    outer loop
      vertex 8 30 3
      vertex 78 27 3
      vertex 78 30 3
    endloop
  endfacet
  facet normal 0 0 1
    outer loop
      vertex 78 27 3
      vertex 8 30 3
      vertex 8 27 3
    endloop
  endfacet
  facet normal -0 0 1
    outer loop
      vertex 8 13 3
      vertex 78 10 3
      vertex 78 13 3
    endloop
  endfacet
  facet normal 0 0 1
    outer loop
      vertex 78 10 3
      vertex 8 13 3
      vertex 8 10 3
    endloop
  endfacet
  facet normal 0 1 -0
    outer loop
      vertex 78 30 0
      vertex 8 30 3
      vertex 78 30 3
    endloop
  endfacet
  facet normal 0 1 0
    outer loop
      vertex 8 30 3
      vertex 78 30 0
      vertex 8 30 0
    endloop
  endfacet
  facet normal 0 -1 0
    outer loop
      vertex 8 10 0
      vertex 78 10 3
      vertex 8 10 3
    endloop
  endfacet
  facet normal 0 -1 -0
    outer loop
      vertex 78 10 3
      vertex 8 10 0
      vertex 78 10 0
    endloop
  endfacet
  facet normal 0.0654432 -0.997856 0
    outer loop
      vertex 59.5 46.45 0
      vertex 59.8263 46.4714 17
      vertex 59.5 46.45 17
    endloop
  endfacet
  facet normal 0.0654432 -0.997856 0
    outer loop
      vertex 59.8263 46.4714 17
      vertex 59.5 46.45 0
      vertex 59.8263 46.4714 0
    endloop
  endfacet
  facet normal -0.555617 0.831438 0
    outer loop
      vertex 33.25 69.2151 0
      vertex 32.9781 69.0334 17
      vertex 33.25 69.2151 17
    endloop
  endfacet
  facet normal -0.555617 0.831438 0
    outer loop
      vertex 32.9781 69.0334 17
      vertex 33.25 69.2151 0
      vertex 32.9781 69.0334 0
    endloop
  endfacet
  facet normal 0.831438 0.555617 0
    outer loop
      vertex 61.6651 68.3 17
      vertex 61.4834 68.5719 0
      vertex 61.4834 68.5719 17
    endloop
  endfacet
  facet normal 0.831438 0.555617 0
    outer loop
      vertex 61.4834 68.5719 0
      vertex 61.6651 68.3 17
      vertex 61.6651 68.3 0
    endloop
  endfacet
  facet normal 0 1 -0
    outer loop
      vertex 59.5 69.55 0
      vertex 34.5 69.55 17
      vertex 59.5 69.55 17
    endloop
  endfacet
  facet normal 0 1 0
    outer loop
      vertex 34.5 69.55 17
      vertex 59.5 69.55 0
      vertex 34.5 69.55 0
    endloop
  endfacet
  facet normal -0.195116 -0.98078 0
    outer loop
      vertex 33.853 46.5352 0
      vertex 34.1737 46.4714 17
      vertex 33.853 46.5352 17
    endloop
  endfacet
  facet normal -0.195116 -0.98078 -0
    outer loop
      vertex 34.1737 46.4714 17
      vertex 33.853 46.5352 0
      vertex 34.1737 46.4714 0
    endloop
  endfacet
  facet normal -0.195116 0.98078 0
    outer loop
      vertex 34.1737 69.5286 0
      vertex 33.853 69.4648 17
      vertex 34.1737 69.5286 17
    endloop
  endfacet
  facet normal -0.195116 0.98078 0
    outer loop
      vertex 33.853 69.4648 17
      vertex 34.1737 69.5286 0
      vertex 33.853 69.4648 0
    endloop
  endfacet
  facet normal -0.32136 -0.946957 0
    outer loop
      vertex 33.5433 46.6403 0
      vertex 33.853 46.5352 17
      vertex 33.5433 46.6403 17
    endloop
  endfacet
  facet normal -0.32136 -0.946957 -0
    outer loop
      vertex 33.853 46.5352 17
      vertex 33.5433 46.6403 0
      vertex 33.853 46.5352 0
    endloop
  endfacet
  facet normal 0.195116 0.98078 -0
    outer loop
      vertex 60.147 69.4648 0
      vertex 59.8263 69.5286 17
      vertex 60.147 69.4648 17
    endloop
  endfacet
  facet normal 0.195116 0.98078 0
    outer loop
      vertex 59.8263 69.5286 17
      vertex 60.147 69.4648 0
      vertex 59.8263 69.5286 0
    endloop
  endfacet
  facet normal -1 0 0
    outer loop
      vertex 32 65.55 13.65
      vertex 32 67.05 0
      vertex 32 65.55 2.9
    endloop
  endfacet
  facet normal -1 0 0
    outer loop
      vertex 32 67.05 0
      vertex 32 50.45 2.9
      vertex 32 65.55 2.9
    endloop
  endfacet
  facet normal -1 -0 0
    outer loop
      vertex 32 50.45 2.9
      vertex 32 48.95 0
      vertex 32 50.45 13.65
    endloop
  endfacet
  facet normal -1 0 0
    outer loop
      vertex 32 48.95 0
      vertex 32 50.45 2.9
      vertex 32 67.05 0
    endloop
  endfacet
  facet normal -1 0 0
    outer loop
      vertex 32 67.05 0
      vertex 32 65.55 13.65
      vertex 32 67.05 17
    endloop
  endfacet
  facet normal -1 0 0
    outer loop
      vertex 32 50.45 13.65
      vertex 32 67.05 17
      vertex 32 65.55 13.65
    endloop
  endfacet
  facet normal -1 0 0
    outer loop
      vertex 32 50.45 13.65
      vertex 32 48.95 17
      vertex 32 67.05 17
    endloop
  endfacet
  facet normal -1 0 0
    outer loop
      vertex 32 48.95 17
      vertex 32 50.45 13.65
      vertex 32 48.95 0
    endloop
  endfacet
  facet normal 0 -1 0
    outer loop
      vertex 34.5 46.45 0
      vertex 59.5 46.45 17
      vertex 34.5 46.45 17
    endloop
  endfacet
  facet normal 0 -1 -0
    outer loop
      vertex 59.5 46.45 17
      vertex 34.5 46.45 0
      vertex 59.5 46.45 0
    endloop
  endfacet
  facet normal -0.0654432 -0.997856 0
    outer loop
      vertex 34.1737 46.4714 0
      vertex 34.5 46.45 17
      vertex 34.1737 46.4714 17
    endloop
  endfacet
  facet normal -0.0654432 -0.997856 -0
    outer loop
      vertex 34.5 46.45 17
      vertex 34.1737 46.4714 0
      vertex 34.5 46.45 0
    endloop
  endfacet
  facet normal 1 0 0
    outer loop
      vertex 62 67.05 17
      vertex 62 65.55 13.65
      vertex 62 67.05 0
    endloop
  endfacet
  facet normal 1 0 0
    outer loop
      vertex 62 67.05 17
      vertex 62 50.45 13.65
      vertex 62 65.55 13.65
    endloop
  endfacet
  facet normal 1 0 0
    outer loop
      vertex 62 48.95 0
      vertex 62 50.45 13.65
      vertex 62 48.95 17
    endloop
  endfacet
  facet normal 1 -0 0
    outer loop
      vertex 62 48.95 17
      vertex 62 50.45 13.65
      vertex 62 67.05 17
    endloop
  endfacet
  facet normal 1 -0 0
    outer loop
      vertex 62 65.55 2.9
      vertex 62 67.05 0
      vertex 62 65.55 13.65
    endloop
  endfacet
  facet normal 1 -0 0
    outer loop
      vertex 62 50.45 2.9
      vertex 62 67.05 0
      vertex 62 65.55 2.9
    endloop
  endfacet
  facet normal 1 0 0
    outer loop
      vertex 62 50.45 2.9
      vertex 62 48.95 0
      vertex 62 67.05 0
    endloop
  endfacet
  facet normal 1 0 0
    outer loop
      vertex 62 50.45 13.65
      vertex 62 48.95 0
      vertex 62 50.45 2.9
    endloop
  endfacet
  facet normal -0.442191 0.896921 0
    outer loop
      vertex 33.5433 69.3597 0
      vertex 33.25 69.2151 17
      vertex 33.5433 69.3597 17
    endloop
  endfacet
  facet normal -0.442191 0.896921 0
    outer loop
      vertex 33.25 69.2151 17
      vertex 33.5433 69.3597 0
      vertex 33.25 69.2151 0
    endloop
  endfacet
  facet normal -0.659262 -0.751913 0
    outer loop
      vertex 32.7322 47.1822 0
      vertex 32.9781 46.9666 17
      vertex 32.7322 47.1822 17
    endloop
  endfacet
  facet normal -0.659262 -0.751913 -0
    outer loop
      vertex 32.9781 46.9666 17
      vertex 32.7322 47.1822 0
      vertex 32.9781 46.9666 0
    endloop
  endfacet
  facet normal -0.946957 -0.32136 0
    outer loop
      vertex 32.1903 47.9933 0
      vertex 32.0852 48.303 17
      vertex 32.0852 48.303 0
    endloop
  endfacet
  facet normal -0.946957 -0.32136 0
    outer loop
      vertex 32.0852 48.303 17
      vertex 32.1903 47.9933 0
      vertex 32.1903 47.9933 17
    endloop
  endfacet
  facet normal 0.442191 0.896921 -0
    outer loop
      vertex 60.75 69.2151 0
      vertex 60.4567 69.3597 17
      vertex 60.75 69.2151 17
    endloop
  endfacet
  facet normal 0.442191 0.896921 0
    outer loop
      vertex 60.4567 69.3597 17
      vertex 60.75 69.2151 0
      vertex 60.4567 69.3597 0
    endloop
  endfacet
  facet normal -0.997856 -0.0654432 0
    outer loop
      vertex 32.0214 48.6237 0
      vertex 32 48.95 17
      vertex 32 48.95 0
    endloop
  endfacet
  facet normal -0.997856 -0.0654432 0
    outer loop
      vertex 32 48.95 17
      vertex 32.0214 48.6237 0
      vertex 32.0214 48.6237 17
    endloop
  endfacet
  facet normal 0.32136 -0.946957 0
    outer loop
      vertex 60.147 46.5352 0
      vertex 60.4567 46.6403 17
      vertex 60.147 46.5352 17
    endloop
  endfacet
  facet normal 0.32136 -0.946957 0
    outer loop
      vertex 60.4567 46.6403 17
      vertex 60.147 46.5352 0
      vertex 60.4567 46.6403 0
    endloop
  endfacet
  facet normal 0.751913 0.659262 0
    outer loop
      vertex 61.4834 68.5719 17
      vertex 61.2678 68.8178 0
      vertex 61.2678 68.8178 17
    endloop
  endfacet
  facet normal 0.751913 0.659262 0
    outer loop
      vertex 61.2678 68.8178 0
      vertex 61.4834 68.5719 17
      vertex 61.4834 68.5719 0
    endloop
  endfacet
  facet normal 0.997856 0.0654432 0
    outer loop
      vertex 62 67.05 17
      vertex 61.9786 67.3763 0
      vertex 61.9786 67.3763 17
    endloop
  endfacet
  facet normal 0.997856 0.0654432 0
    outer loop
      vertex 61.9786 67.3763 0
      vertex 62 67.05 17
      vertex 62 67.05 0
    endloop
  endfacet
  facet normal -0.659262 0.751913 0
    outer loop
      vertex 32.9781 69.0334 0
      vertex 32.7322 68.8178 17
      vertex 32.9781 69.0334 17
    endloop
  endfacet
  facet normal -0.659262 0.751913 0
    outer loop
      vertex 32.7322 68.8178 17
      vertex 32.9781 69.0334 0
      vertex 32.7322 68.8178 0
    endloop
  endfacet
  facet normal -0.555617 -0.831438 0
    outer loop
      vertex 32.9781 46.9666 0
      vertex 33.25 46.7849 17
      vertex 32.9781 46.9666 17
    endloop
  endfacet
  facet normal -0.555617 -0.831438 -0
    outer loop
      vertex 33.25 46.7849 17
      vertex 32.9781 46.9666 0
      vertex 33.25 46.7849 0
    endloop
  endfacet
  facet normal -0.751913 -0.659262 0
    outer loop
      vertex 32.7322 47.1822 0
      vertex 32.5166 47.4281 17
      vertex 32.5166 47.4281 0
    endloop
  endfacet
  facet normal -0.751913 -0.659262 0
    outer loop
      vertex 32.5166 47.4281 17
      vertex 32.7322 47.1822 0
      vertex 32.7322 47.1822 17
    endloop
  endfacet
  facet normal -0.997856 0.0654432 0
    outer loop
      vertex 32 67.05 0
      vertex 32.0214 67.3763 17
      vertex 32.0214 67.3763 0
    endloop
  endfacet
  facet normal -0.997856 0.0654432 0
    outer loop
      vertex 32.0214 67.3763 17
      vertex 32 67.05 0
      vertex 32 67.05 17
    endloop
  endfacet
  facet normal 0.659262 0.751913 -0
    outer loop
      vertex 61.2678 68.8178 0
      vertex 61.0219 69.0334 17
      vertex 61.2678 68.8178 17
    endloop
  endfacet
  facet normal 0.659262 0.751913 0
    outer loop
      vertex 61.0219 69.0334 17
      vertex 61.2678 68.8178 0
      vertex 61.0219 69.0334 0
    endloop
  endfacet
  facet normal 0.946957 -0.32136 0
    outer loop
      vertex 61.8097 47.9933 17
      vertex 61.9148 48.303 0
      vertex 61.9148 48.303 17
    endloop
  endfacet
  facet normal 0.946957 -0.32136 0
    outer loop
      vertex 61.9148 48.303 0
      vertex 61.8097 47.9933 17
      vertex 61.8097 47.9933 0
    endloop
  endfacet
  facet normal -0.32136 0.946957 0
    outer loop
      vertex 33.853 69.4648 0
      vertex 33.5433 69.3597 17
      vertex 33.853 69.4648 17
    endloop
  endfacet
  facet normal -0.32136 0.946957 0
    outer loop
      vertex 33.5433 69.3597 17
      vertex 33.853 69.4648 0
      vertex 33.5433 69.3597 0
    endloop
  endfacet
  facet normal 0.751913 -0.659262 0
    outer loop
      vertex 61.2678 47.1822 17
      vertex 61.4834 47.4281 0
      vertex 61.4834 47.4281 17
    endloop
  endfacet
  facet normal 0.751913 -0.659262 0
    outer loop
      vertex 61.4834 47.4281 0
      vertex 61.2678 47.1822 17
      vertex 61.2678 47.1822 0
    endloop
  endfacet
  facet normal 0.946957 0.32136 0
    outer loop
      vertex 61.9148 67.697 17
      vertex 61.8097 68.0067 0
      vertex 61.8097 68.0067 17
    endloop
  endfacet
  facet normal 0.946957 0.32136 0
    outer loop
      vertex 61.8097 68.0067 0
      vertex 61.9148 67.697 17
      vertex 61.9148 67.697 0
    endloop
  endfacet
  facet normal 0.0654432 0.997856 -0
    outer loop
      vertex 59.8263 69.5286 0
      vertex 59.5 69.55 17
      vertex 59.8263 69.5286 17
    endloop
  endfacet
  facet normal 0.0654432 0.997856 0
    outer loop
      vertex 59.5 69.55 17
      vertex 59.8263 69.5286 0
      vertex 59.5 69.55 0
    endloop
  endfacet
  facet normal 0.659262 -0.751913 0
    outer loop
      vertex 61.0219 46.9666 0
      vertex 61.2678 47.1822 17
      vertex 61.0219 46.9666 17
    endloop
  endfacet
  facet normal 0.659262 -0.751913 0
    outer loop
      vertex 61.2678 47.1822 17
      vertex 61.0219 46.9666 0
      vertex 61.2678 47.1822 0
    endloop
  endfacet
  facet normal 0.195116 -0.98078 0
    outer loop
      vertex 59.8263 46.4714 0
      vertex 60.147 46.5352 17
      vertex 59.8263 46.4714 17
    endloop
  endfacet
  facet normal 0.195116 -0.98078 0
    outer loop
      vertex 60.147 46.5352 17
      vertex 59.8263 46.4714 0
      vertex 60.147 46.5352 0
    endloop
  endfacet
  facet normal -0.831438 -0.555617 0
    outer loop
      vertex 32.5166 47.4281 0
      vertex 32.3349 47.7 17
      vertex 32.3349 47.7 0
    endloop
  endfacet
  facet normal -0.831438 -0.555617 0
    outer loop
      vertex 32.3349 47.7 17
      vertex 32.5166 47.4281 0
      vertex 32.5166 47.4281 17
    endloop
  endfacet
  facet normal 0.997856 -0.0654432 0
    outer loop
      vertex 61.9786 48.6237 17
      vertex 62 48.95 0
      vertex 62 48.95 17
    endloop
  endfacet
  facet normal 0.997856 -0.0654432 0
    outer loop
      vertex 62 48.95 0
      vertex 61.9786 48.6237 17
      vertex 61.9786 48.6237 0
    endloop
  endfacet
  facet normal 0.32136 0.946957 -0
    outer loop
      vertex 60.4567 69.3597 0
      vertex 60.147 69.4648 17
      vertex 60.4567 69.3597 17
    endloop
  endfacet
  facet normal 0.32136 0.946957 0
    outer loop
      vertex 60.147 69.4648 17
      vertex 60.4567 69.3597 0
      vertex 60.147 69.4648 0
    endloop
  endfacet
  facet normal -0.896921 0.442191 0
    outer loop
      vertex 32.1903 68.0067 0
      vertex 32.3349 68.3 17
      vertex 32.3349 68.3 0
    endloop
  endfacet
  facet normal -0.896921 0.442191 0
    outer loop
      vertex 32.3349 68.3 17
      vertex 32.1903 68.0067 0
      vertex 32.1903 68.0067 17
    endloop
  endfacet
  facet normal 0.442191 -0.896921 0
    outer loop
      vertex 60.4567 46.6403 0
      vertex 60.75 46.7849 17
      vertex 60.4567 46.6403 17
    endloop
  endfacet
  facet normal 0.442191 -0.896921 0
    outer loop
      vertex 60.75 46.7849 17
      vertex 60.4567 46.6403 0
      vertex 60.75 46.7849 0
    endloop
  endfacet
  facet normal 0.896921 0.442191 0
    outer loop
      vertex 61.8097 68.0067 17
      vertex 61.6651 68.3 0
      vertex 61.6651 68.3 17
    endloop
  endfacet
  facet normal 0.896921 0.442191 0
    outer loop
      vertex 61.6651 68.3 0
      vertex 61.8097 68.0067 17
      vertex 61.8097 68.0067 0
    endloop
  endfacet
  facet normal -0.831438 0.555617 0
    outer loop
      vertex 32.3349 68.3 0
      vertex 32.5166 68.5719 17
      vertex 32.5166 68.5719 0
    endloop
  endfacet
  facet normal -0.831438 0.555617 0
    outer loop
      vertex 32.5166 68.5719 17
      vertex 32.3349 68.3 0
      vertex 32.3349 68.3 17
    endloop
  endfacet
  facet normal 0.555617 -0.831438 0
    outer loop
      vertex 60.75 46.7849 0
      vertex 61.0219 46.9666 17
      vertex 60.75 46.7849 17
    endloop
  endfacet
  facet normal 0.555617 -0.831438 0
    outer loop
      vertex 61.0219 46.9666 17
      vertex 60.75 46.7849 0
      vertex 61.0219 46.9666 0
    endloop
  endfacet
  facet normal -0.751913 0.659262 0
    outer loop
      vertex 32.5166 68.5719 0
      vertex 32.7322 68.8178 17
      vertex 32.7322 68.8178 0
    endloop
  endfacet
  facet normal -0.751913 0.659262 0
    outer loop
      vertex 32.7322 68.8178 17
      vertex 32.5166 68.5719 0
      vertex 32.5166 68.5719 17
    endloop
  endfacet
  facet normal 0 0 -1
    outer loop
      vertex 59.5 46.45 0
      vertex 62 48.95 0
      vertex 61.9786 48.6237 0
    endloop
  endfacet
  facet normal -0 0 -1
    outer loop
      vertex 62 48.95 0
      vertex 59.5 46.45 0
      vertex 62 67.05 0
    endloop
  endfacet
  facet normal 0 0 -1
    outer loop
      vertex 59.5 46.45 0
      vertex 61.9786 48.6237 0
      vertex 61.9148 48.303 0
    endloop
  endfacet
  facet normal 0 0 -1
    outer loop
      vertex 59.5 69.55 0
      vertex 62 67.05 0
      vertex 59.5 46.45 0
    endloop
  endfacet
  facet normal 0 0 -1
    outer loop
      vertex 59.5 46.45 0
      vertex 61.9148 48.303 0
      vertex 61.8097 47.9933 0
    endloop
  endfacet
  facet normal 0 0 -1
    outer loop
      vertex 62 67.05 0
      vertex 59.5 69.55 0
      vertex 61.9786 67.3763 0
    endloop
  endfacet
  facet normal 0 0 -1
    outer loop
      vertex 59.5 46.45 0
      vertex 61.8097 47.9933 0
      vertex 61.6651 47.7 0
    endloop
  endfacet
  facet normal 0 0 -1
    outer loop
      vertex 61.9786 67.3763 0
      vertex 59.5 69.55 0
      vertex 61.9148 67.697 0
    endloop
  endfacet
  facet normal 0 0 -1
    outer loop
      vertex 59.5 46.45 0
      vertex 61.6651 47.7 0
      vertex 61.4834 47.4281 0
    endloop
  endfacet
  facet normal 0 0 -1
    outer loop
      vertex 61.9148 67.697 0
      vertex 59.5 69.55 0
      vertex 61.8097 68.0067 0
    endloop
  endfacet
  facet normal 0 0 -1
    outer loop
      vertex 59.5 46.45 0
      vertex 61.4834 47.4281 0
      vertex 61.2678 47.1822 0
    endloop
  endfacet
  facet normal 0 0 -1
    outer loop
      vertex 61.8097 68.0067 0
      vertex 59.5 69.55 0
      vertex 61.6651 68.3 0
    endloop
  endfacet
  facet normal 0 0 -1
    outer loop
      vertex 59.5 46.45 0
      vertex 61.2678 47.1822 0
      vertex 61.0219 46.9666 0
    endloop
  endfacet
  facet normal 0 0 -1
    outer loop
      vertex 61.6651 68.3 0
      vertex 59.5 69.55 0
      vertex 61.4834 68.5719 0
    endloop
  endfacet
  facet normal 0 0 -1
    outer loop
      vertex 59.5 46.45 0
      vertex 61.0219 46.9666 0
      vertex 60.75 46.7849 0
    endloop
  endfacet
  facet normal 0 0 -1
    outer loop
      vertex 61.4834 68.5719 0
      vertex 59.5 69.55 0
      vertex 61.2678 68.8178 0
    endloop
  endfacet
  facet normal 0 0 -1
    outer loop
      vertex 59.5 46.45 0
      vertex 60.75 46.7849 0
      vertex 60.4567 46.6403 0
    endloop
  endfacet
  facet normal 0 0 -1
    outer loop
      vertex 61.2678 68.8178 0
      vertex 59.5 69.55 0
      vertex 61.0219 69.0334 0
    endloop
  endfacet
  facet normal 0 0 -1
    outer loop
      vertex 59.5 46.45 0
      vertex 60.4567 46.6403 0
      vertex 60.147 46.5352 0
    endloop
  endfacet
  facet normal 0 0 -1
    outer loop
      vertex 61.0219 69.0334 0
      vertex 59.5 69.55 0
      vertex 60.75 69.2151 0
    endloop
  endfacet
  facet normal 0 0 -1
    outer loop
      vertex 59.5 46.45 0
      vertex 60.147 46.5352 0
      vertex 59.8263 46.4714 0
    endloop
  endfacet
  facet normal 0 0 -1
    outer loop
      vertex 60.75 69.2151 0
      vertex 59.5 69.55 0
      vertex 60.4567 69.3597 0
    endloop
  endfacet
  facet normal 0 0 -1
    outer loop
      vertex 60.4567 69.3597 0
      vertex 59.5 69.55 0
      vertex 60.147 69.4648 0
    endloop
  endfacet
  facet normal 0 0 -1
    outer loop
      vertex 60.147 69.4648 0
      vertex 59.5 69.55 0
      vertex 59.8263 69.5286 0
    endloop
  endfacet
  facet normal 0 0 -1
    outer loop
      vertex 34.5 46.45 0
      vertex 59.5 69.55 0
      vertex 59.5 46.45 0
    endloop
  endfacet
  facet normal 0 0 -1
    outer loop
      vertex 34.5 46.45 0
      vertex 34.5 69.55 0
      vertex 59.5 69.55 0
    endloop
  endfacet
  facet normal 0 0 -1
    outer loop
      vertex 32 48.95 0
      vertex 34.5 46.45 0
      vertex 34.1737 46.4714 0
    endloop
  endfacet
  facet normal 0 0 -1
    outer loop
      vertex 34.5 46.45 0
      vertex 32 48.95 0
      vertex 34.5 69.55 0
    endloop
  endfacet
  facet normal 0 0 -1
    outer loop
      vertex 32 48.95 0
      vertex 34.1737 46.4714 0
      vertex 33.853 46.5352 0
    endloop
  endfacet
  facet normal 0 0 -1
    outer loop
      vertex 32 67.05 0
      vertex 34.5 69.55 0
      vertex 32 48.95 0
    endloop
  endfacet
  facet normal 0 0 -1
    outer loop
      vertex 32 48.95 0
      vertex 33.853 46.5352 0
      vertex 33.5433 46.6403 0
    endloop
  endfacet
  facet normal 0 0 -1
    outer loop
      vertex 34.5 69.55 0
      vertex 32 67.05 0
      vertex 34.1737 69.5286 0
    endloop
  endfacet
  facet normal 0 0 -1
    outer loop
      vertex 32 48.95 0
      vertex 33.5433 46.6403 0
      vertex 33.25 46.7849 0
    endloop
  endfacet
  facet normal 0 0 -1
    outer loop
      vertex 34.1737 69.5286 0
      vertex 32 67.05 0
      vertex 33.853 69.4648 0
    endloop
  endfacet
  facet normal 0 0 -1
    outer loop
      vertex 32 48.95 0
      vertex 33.25 46.7849 0
      vertex 32.9781 46.9666 0
    endloop
  endfacet
  facet normal 0 0 -1
    outer loop
      vertex 33.853 69.4648 0
      vertex 32 67.05 0
      vertex 33.5433 69.3597 0
    endloop
  endfacet
  facet normal 0 0 -1
    outer loop
      vertex 32 48.95 0
      vertex 32.9781 46.9666 0
      vertex 32.7322 47.1822 0
    endloop
  endfacet
  facet normal 0 0 -1
    outer loop
      vertex 33.5433 69.3597 0
      vertex 32 67.05 0
      vertex 33.25 69.2151 0
    endloop
  endfacet
  facet normal 0 0 -1
    outer loop
      vertex 32 48.95 0
      vertex 32.7322 47.1822 0
      vertex 32.5166 47.4281 0
    endloop
  endfacet
  facet normal 0 0 -1
    outer loop
      vertex 33.25 69.2151 0
      vertex 32 67.05 0
      vertex 32.9781 69.0334 0
    endloop
  endfacet
  facet normal 0 0 -1
    outer loop
      vertex 32 48.95 0
      vertex 32.5166 47.4281 0
      vertex 32.3349 47.7 0
    endloop
  endfacet
  facet normal 0 0 -1
    outer loop
      vertex 32.9781 69.0334 0
      vertex 32 67.05 0
      vertex 32.7322 68.8178 0
    endloop
  endfacet
  facet normal 0 0 -1
    outer loop
      vertex 32 48.95 0
      vertex 32.3349 47.7 0
      vertex 32.1903 47.9933 0
    endloop
  endfacet
  facet normal 0 0 -1
    outer loop
      vertex 32.7322 68.8178 0
      vertex 32 67.05 0
      vertex 32.5166 68.5719 0
    endloop
  endfacet
  facet normal 0 0 -1
    outer loop
      vertex 32 48.95 0
      vertex 32.1903 47.9933 0
      vertex 32.0852 48.303 0
    endloop
  endfacet
  facet normal 0 0 -1
    outer loop
      vertex 32.5166 68.5719 0
      vertex 32 67.05 0
      vertex 32.3349 68.3 0
    endloop
  endfacet
  facet normal 0 0 -1
    outer loop
      vertex 32 48.95 0
      vertex 32.0852 48.303 0
      vertex 32.0214 48.6237 0
    endloop
  endfacet
  facet normal 0 0 -1
    outer loop
      vertex 32.3349 68.3 0
      vertex 32 67.05 0
      vertex 32.1903 68.0067 0
    endloop
  endfacet
  facet normal 0 0 -1
    outer loop
      vertex 32.1903 68.0067 0
      vertex 32 67.05 0
      vertex 32.0852 67.697 0
    endloop
  endfacet
  facet normal 0 0 -1
    outer loop
      vertex 32.0852 67.697 0
      vertex 32 67.05 0
      vertex 32.0214 67.3763 0
    endloop
  endfacet
  facet normal 0.831438 -0.555617 0
    outer loop
      vertex 61.4834 47.4281 17
      vertex 61.6651 47.7 0
      vertex 61.6651 47.7 17
    endloop
  endfacet
  facet normal 0.831438 -0.555617 0
    outer loop
      vertex 61.6651 47.7 0
      vertex 61.4834 47.4281 17
      vertex 61.4834 47.4281 0
    endloop
  endfacet
  facet normal 0.98078 0.195116 0
    outer loop
      vertex 61.9786 67.3763 17
      vertex 61.9148 67.697 0
      vertex 61.9148 67.697 17
    endloop
  endfacet
  facet normal 0.98078 0.195116 0
    outer loop
      vertex 61.9148 67.697 0
      vertex 61.9786 67.3763 17
      vertex 61.9786 67.3763 0
    endloop
  endfacet
  facet normal 0.896921 -0.442191 0
    outer loop
      vertex 61.6651 47.7 17
      vertex 61.8097 47.9933 0
      vertex 61.8097 47.9933 17
    endloop
  endfacet
  facet normal 0.896921 -0.442191 0
    outer loop
      vertex 61.8097 47.9933 0
      vertex 61.6651 47.7 17
      vertex 61.6651 47.7 0
    endloop
  endfacet
  facet normal 0.98078 -0.195116 0
    outer loop
      vertex 61.9148 48.303 17
      vertex 61.9786 48.6237 0
      vertex 61.9786 48.6237 17
    endloop
  endfacet
  facet normal 0.98078 -0.195116 0
    outer loop
      vertex 61.9786 48.6237 0
      vertex 61.9148 48.303 17
      vertex 61.9148 48.303 0
    endloop
  endfacet
  facet normal -0.896921 -0.442191 0
    outer loop
      vertex 32.3349 47.7 0
      vertex 32.1903 47.9933 17
      vertex 32.1903 47.9933 0
    endloop
  endfacet
  facet normal -0.896921 -0.442191 0
    outer loop
      vertex 32.1903 47.9933 17
      vertex 32.3349 47.7 0
      vertex 32.3349 47.7 17
    endloop
  endfacet
  facet normal 0.555617 0.831438 -0
    outer loop
      vertex 61.0219 69.0334 0
      vertex 60.75 69.2151 17
      vertex 61.0219 69.0334 17
    endloop
  endfacet
  facet normal 0.555617 0.831438 0
    outer loop
      vertex 60.75 69.2151 17
      vertex 61.0219 69.0334 0
      vertex 60.75 69.2151 0
    endloop
  endfacet
  facet normal -0.98078 0.195116 0
    outer loop
      vertex 32.0214 67.3763 0
      vertex 32.0852 67.697 17
      vertex 32.0852 67.697 0
    endloop
  endfacet
  facet normal -0.98078 0.195116 0
    outer loop
      vertex 32.0852 67.697 17
      vertex 32.0214 67.3763 0
      vertex 32.0214 67.3763 17
    endloop
  endfacet
  facet normal -0.98078 -0.195116 0
    outer loop
      vertex 32.0852 48.303 0
      vertex 32.0214 48.6237 17
      vertex 32.0214 48.6237 0
    endloop
  endfacet
  facet normal -0.98078 -0.195116 0
    outer loop
      vertex 32.0214 48.6237 17
      vertex 32.0852 48.303 0
      vertex 32.0852 48.303 17
    endloop
  endfacet
  facet normal -0.0654432 0.997856 0
    outer loop
      vertex 34.5 69.55 0
      vertex 34.1737 69.5286 17
      vertex 34.5 69.55 17
    endloop
  endfacet
  facet normal -0.0654432 0.997856 0
    outer loop
      vertex 34.1737 69.5286 17
      vertex 34.5 69.55 0
      vertex 34.1737 69.5286 0
    endloop
  endfacet
  facet normal 0 0 1
    outer loop
      vertex 59 64.5 17
      vertex 62 67.05 17
      vertex 61.9786 67.3763 17
    endloop
  endfacet
  facet normal 0 0 1
    outer loop
      vertex 62 67.05 17
      vertex 59 64.5 17
      vertex 62 48.95 17
    endloop
  endfacet
  facet normal 0 0 1
    outer loop
      vertex 59 64.5 17
      vertex 61.9786 67.3763 17
      vertex 61.9148 67.697 17
    endloop
  endfacet
  facet normal -0 0 1
    outer loop
      vertex 59 51.5 17
      vertex 62 48.95 17
      vertex 59 64.5 17
    endloop
  endfacet
  facet normal 0 0 1
    outer loop
      vertex 59 64.5 17
      vertex 61.9148 67.697 17
      vertex 61.8097 68.0067 17
    endloop
  endfacet
  facet normal 0 0 1
    outer loop
      vertex 62 48.95 17
      vertex 59 51.5 17
      vertex 61.9786 48.6237 17
    endloop
  endfacet
  facet normal 0 0 1
    outer loop
      vertex 59 64.5 17
      vertex 61.8097 68.0067 17
      vertex 61.6651 68.3 17
    endloop
  endfacet
  facet normal 0 0 1
    outer loop
      vertex 61.9786 48.6237 17
      vertex 59 51.5 17
      vertex 61.9148 48.303 17
    endloop
  endfacet
  facet normal 0 0 1
    outer loop
      vertex 59 64.5 17
      vertex 61.6651 68.3 17
      vertex 61.4834 68.5719 17
    endloop
  endfacet
  facet normal 0 0 1
    outer loop
      vertex 61.9148 48.303 17
      vertex 59 51.5 17
      vertex 61.8097 47.9933 17
    endloop
  endfacet
  facet normal 0 0 1
    outer loop
      vertex 59 64.5 17
      vertex 61.4834 68.5719 17
      vertex 61.2678 68.8178 17
    endloop
  endfacet
  facet normal 0 0 1
    outer loop
      vertex 61.8097 47.9933 17
      vertex 59 51.5 17
      vertex 61.6651 47.7 17
    endloop
  endfacet
  facet normal 0 0 1
    outer loop
      vertex 59 64.5 17
      vertex 61.2678 68.8178 17
      vertex 61.0219 69.0334 17
    endloop
  endfacet
  facet normal 0 0 1
    outer loop
      vertex 61.6651 47.7 17
      vertex 59 51.5 17
      vertex 61.4834 47.4281 17
    endloop
  endfacet
  facet normal 0 0 1
    outer loop
      vertex 59 64.5 17
      vertex 61.0219 69.0334 17
      vertex 60.75 69.2151 17
    endloop
  endfacet
  facet normal 0 0 1
    outer loop
      vertex 61.4834 47.4281 17
      vertex 59 51.5 17
      vertex 61.2678 47.1822 17
    endloop
  endfacet
  facet normal 0 0 1
    outer loop
      vertex 59 64.5 17
      vertex 60.75 69.2151 17
      vertex 60.4567 69.3597 17
    endloop
  endfacet
  facet normal 0 0 1
    outer loop
      vertex 61.2678 47.1822 17
      vertex 59 51.5 17
      vertex 61.0219 46.9666 17
    endloop
  endfacet
  facet normal 0 0 1
    outer loop
      vertex 59 64.5 17
      vertex 60.4567 69.3597 17
      vertex 60.147 69.4648 17
    endloop
  endfacet
  facet normal 0 0 1
    outer loop
      vertex 61.0219 46.9666 17
      vertex 59 51.5 17
      vertex 60.75 46.7849 17
    endloop
  endfacet
  facet normal 0 0 1
    outer loop
      vertex 59 64.5 17
      vertex 60.147 69.4648 17
      vertex 59.8263 69.5286 17
    endloop
  endfacet
  facet normal 0 0 1
    outer loop
      vertex 60.75 46.7849 17
      vertex 59 51.5 17
      vertex 60.4567 46.6403 17
    endloop
  endfacet
  facet normal 0 0 1
    outer loop
      vertex 59 64.5 17
      vertex 59.8263 69.5286 17
      vertex 59.5 69.55 17
    endloop
  endfacet
  facet normal 0 0 1
    outer loop
      vertex 60.4567 46.6403 17
      vertex 59 51.5 17
      vertex 60.147 46.5352 17
    endloop
  endfacet
  facet normal 0 0 1
    outer loop
      vertex 60.147 46.5352 17
      vertex 59 51.5 17
      vertex 59.8263 46.4714 17
    endloop
  endfacet
  facet normal 0 0 1
    outer loop
      vertex 59.5 69.55 17
      vertex 51 64.5 17
      vertex 59 64.5 17
    endloop
  endfacet
  facet normal 0 0 1
    outer loop
      vertex 51 64.5 17
      vertex 43 64.5 17
      vertex 51 51.5 17
    endloop
  endfacet
  facet normal 0 0 1
    outer loop
      vertex 59.5 69.55 17
      vertex 43 64.5 17
      vertex 51 64.5 17
    endloop
  endfacet
  facet normal -0 0 1
    outer loop
      vertex 34.5 69.55 17
      vertex 43 64.5 17
      vertex 59.5 69.55 17
    endloop
  endfacet
  facet normal -0 0 1
    outer loop
      vertex 32 67.05 17
      vertex 35 64.5 17
      vertex 34.5 69.55 17
    endloop
  endfacet
  facet normal 0 0 1
    outer loop
      vertex 43 64.5 17
      vertex 34.5 69.55 17
      vertex 35 64.5 17
    endloop
  endfacet
  facet normal 0 0 1
    outer loop
      vertex 59.8263 46.4714 17
      vertex 59 51.5 17
      vertex 59.5 46.45 17
    endloop
  endfacet
  facet normal -0 0 1
    outer loop
      vertex 51 51.5 17
      vertex 59.5 46.45 17
      vertex 59 51.5 17
    endloop
  endfacet
  facet normal 0 0 1
    outer loop
      vertex 43 51.5 17
      vertex 51 51.5 17
      vertex 43 64.5 17
    endloop
  endfacet
  facet normal -0 0 1
    outer loop
      vertex 43 51.5 17
      vertex 59.5 46.45 17
      vertex 51 51.5 17
    endloop
  endfacet
  facet normal 0 0 1
    outer loop
      vertex 34.5 46.45 17
      vertex 43 51.5 17
      vertex 35 51.5 17
    endloop
  endfacet
  facet normal 0 0 1
    outer loop
      vertex 43 51.5 17
      vertex 34.5 46.45 17
      vertex 59.5 46.45 17
    endloop
  endfacet
  facet normal 0 0 1
    outer loop
      vertex 35 64.5 17
      vertex 32 67.05 17
      vertex 35 51.5 17
    endloop
  endfacet
  facet normal 0 0 1
    outer loop
      vertex 32 67.05 17
      vertex 34.5 69.55 17
      vertex 34.1737 69.5286 17
    endloop
  endfacet
  facet normal 0 0 1
    outer loop
      vertex 32 48.95 17
      vertex 35 51.5 17
      vertex 32 67.05 17
    endloop
  endfacet
  facet normal 0 0 1
    outer loop
      vertex 32 67.05 17
      vertex 34.1737 69.5286 17
      vertex 33.853 69.4648 17
    endloop
  endfacet
  facet normal 0 0 1
    outer loop
      vertex 35 51.5 17
      vertex 32 48.95 17
      vertex 34.5 46.45 17
    endloop
  endfacet
  facet normal 0 0 1
    outer loop
      vertex 32 67.05 17
      vertex 33.853 69.4648 17
      vertex 33.5433 69.3597 17
    endloop
  endfacet
  facet normal 0 0 1
    outer loop
      vertex 34.5 46.45 17
      vertex 32 48.95 17
      vertex 34.1737 46.4714 17
    endloop
  endfacet
  facet normal 0 0 1
    outer loop
      vertex 32 67.05 17
      vertex 33.5433 69.3597 17
      vertex 33.25 69.2151 17
    endloop
  endfacet
  facet normal 0 0 1
    outer loop
      vertex 34.1737 46.4714 17
      vertex 32 48.95 17
      vertex 33.853 46.5352 17
    endloop
  endfacet
  facet normal 0 0 1
    outer loop
      vertex 32 67.05 17
      vertex 33.25 69.2151 17
      vertex 32.9781 69.0334 17
    endloop
  endfacet
  facet normal 0 0 1
    outer loop
      vertex 33.853 46.5352 17
      vertex 32 48.95 17
      vertex 33.5433 46.6403 17
    endloop
  endfacet
  facet normal 0 0 1
    outer loop
      vertex 32 67.05 17
      vertex 32.9781 69.0334 17
      vertex 32.7322 68.8178 17
    endloop
  endfacet
  facet normal 0 0 1
    outer loop
      vertex 33.5433 46.6403 17
      vertex 32 48.95 17
      vertex 33.25 46.7849 17
    endloop
  endfacet
  facet normal 0 0 1
    outer loop
      vertex 32 67.05 17
      vertex 32.7322 68.8178 17
      vertex 32.5166 68.5719 17
    endloop
  endfacet
  facet normal 0 0 1
    outer loop
      vertex 33.25 46.7849 17
      vertex 32 48.95 17
      vertex 32.9781 46.9666 17
    endloop
  endfacet
  facet normal 0 0 1
    outer loop
      vertex 32 67.05 17
      vertex 32.5166 68.5719 17
      vertex 32.3349 68.3 17
    endloop
  endfacet
  facet normal 0 0 1
    outer loop
      vertex 32.9781 46.9666 17
      vertex 32 48.95 17
      vertex 32.7322 47.1822 17
    endloop
  endfacet
  facet normal 0 0 1
    outer loop
      vertex 32 67.05 17
      vertex 32.3349 68.3 17
      vertex 32.1903 68.0067 17
    endloop
  endfacet
  facet normal 0 0 1
    outer loop
      vertex 32.7322 47.1822 17
      vertex 32 48.95 17
      vertex 32.5166 47.4281 17
    endloop
  endfacet
  facet normal 0 0 1
    outer loop
      vertex 32 67.05 17
      vertex 32.1903 68.0067 17
      vertex 32.0852 67.697 17
    endloop
  endfacet
  facet normal 0 0 1
    outer loop
      vertex 32.5166 47.4281 17
      vertex 32 48.95 17
      vertex 32.3349 47.7 17
    endloop
  endfacet
  facet normal 0 0 1
    outer loop
      vertex 32 67.05 17
      vertex 32.0852 67.697 17
      vertex 32.0214 67.3763 17
    endloop
  endfacet
  facet normal 0 0 1
    outer loop
      vertex 32.3349 47.7 17
      vertex 32 48.95 17
      vertex 32.1903 47.9933 17
    endloop
  endfacet
  facet normal 0 0 1
    outer loop
      vertex 32.1903 47.9933 17
      vertex 32 48.95 17
      vertex 32.0852 48.303 17
    endloop
  endfacet
  facet normal 0 0 1
    outer loop
      vertex 32.0852 48.303 17
      vertex 32 48.95 17
      vertex 32.0214 48.6237 17
    endloop
  endfacet
  facet normal -0.946957 0.32136 0
    outer loop
      vertex 32.0852 67.697 0
      vertex 32.1903 68.0067 17
      vertex 32.1903 68.0067 0
    endloop
  endfacet
  facet normal -0.946957 0.32136 0
    outer loop
      vertex 32.1903 68.0067 17
      vertex 32.0852 67.697 0
      vertex 32.0852 67.697 17
    endloop
  endfacet
  facet normal -0.442191 -0.896921 0
    outer loop
      vertex 33.25 46.7849 0
      vertex 33.5433 46.6403 17
      vertex 33.25 46.7849 17
    endloop
  endfacet
  facet normal -0.442191 -0.896921 -0
    outer loop
      vertex 33.5433 46.6403 17
      vertex 33.25 46.7849 0
      vertex 33.5433 46.6403 0
    endloop
  endfacet
  facet normal -1 0 0
    outer loop
      vertex 43 51.5 13.65
      vertex 43 64.5 17
      vertex 43 64.5 13.65
    endloop
  endfacet
  facet normal -1 -0 0
    outer loop
      vertex 43 64.5 17
      vertex 43 51.5 13.65
      vertex 43 51.5 17
    endloop
  endfacet
  facet normal 1 -0 0
    outer loop
      vertex 35 51.5 17
      vertex 35 64.5 13.65
      vertex 35 64.5 17
    endloop
  endfacet
  facet normal 1 0 0
    outer loop
      vertex 35 64.5 13.65
      vertex 35 51.5 17
      vertex 35 51.5 13.65
    endloop
  endfacet
  facet normal 0 -1 0
    outer loop
      vertex 35 64.5 13.65
      vertex 43 64.5 17
      vertex 35 64.5 17
    endloop
  endfacet
  facet normal 0 -1 -0
    outer loop
      vertex 43 64.5 17
      vertex 35 64.5 13.65
      vertex 43 64.5 13.65
    endloop
  endfacet
  facet normal 0 1 -0
    outer loop
      vertex 43 51.5 13.65
      vertex 35 51.5 17
      vertex 43 51.5 17
    endloop
  endfacet
  facet normal 0 1 0
    outer loop
      vertex 35 51.5 17
      vertex 43 51.5 13.65
      vertex 35 51.5 13.65
    endloop
  endfacet
  facet normal -1 0 0
    outer loop
      vertex 59 51.5 13.65
      vertex 59 64.5 17
      vertex 59 64.5 13.65
    endloop
  endfacet
  facet normal -1 -0 0
    outer loop
      vertex 59 64.5 17
      vertex 59 51.5 13.65
      vertex 59 51.5 17
    endloop
  endfacet
  facet normal 1 -0 0
    outer loop
      vertex 51 51.5 17
      vertex 51 64.5 13.65
      vertex 51 64.5 17
    endloop
  endfacet
  facet normal 1 0 0
    outer loop
      vertex 51 64.5 13.65
      vertex 51 51.5 17
      vertex 51 51.5 13.65
    endloop
  endfacet
  facet normal 0 -1 0
    outer loop
      vertex 51 64.5 13.65
      vertex 59 64.5 17
      vertex 51 64.5 17
    endloop
  endfacet
  facet normal 0 -1 -0
    outer loop
      vertex 59 64.5 17
      vertex 51 64.5 13.65
      vertex 59 64.5 13.65
    endloop
  endfacet
  facet normal 0 1 -0
    outer loop
      vertex 59 51.5 13.65
      vertex 51 51.5 17
      vertex 59 51.5 17
    endloop
  endfacet
  facet normal 0 1 0
    outer loop
      vertex 51 51.5 17
      vertex 59 51.5 13.65
      vertex 51 51.5 13.65
    endloop
  endfacet
  facet normal 0 0 -1
    outer loop
      vertex 62 50.45 13.65
      vertex 59 51.5 13.65
      vertex 62 65.55 13.65
    endloop
  endfacet
  facet normal 0 0 -1
    outer loop
      vertex 62 50.45 13.65
      vertex 51 51.5 13.65
      vertex 59 51.5 13.65
    endloop
  endfacet
  facet normal 0 0 -1
    outer loop
      vertex 51 51.5 13.65
      vertex 43 51.5 13.65
      vertex 51 64.5 13.65
    endloop
  endfacet
  facet normal 0 0 -1
    outer loop
      vertex 62 50.45 13.65
      vertex 43 51.5 13.65
      vertex 51 51.5 13.65
    endloop
  endfacet
  facet normal 0 0 -1
    outer loop
      vertex 32 50.45 13.65
      vertex 43 51.5 13.65
      vertex 62 50.45 13.65
    endloop
  endfacet
  facet normal -0 0 -1
    outer loop
      vertex 35 51.5 13.65
      vertex 32 50.45 13.65
      vertex 35 64.5 13.65
    endloop
  endfacet
  facet normal -0 0 -1
    outer loop
      vertex 43 51.5 13.65
      vertex 32 50.45 13.65
      vertex 35 51.5 13.65
    endloop
  endfacet
  facet normal 0 0 -1
    outer loop
      vertex 59 64.5 13.65
      vertex 62 65.55 13.65
      vertex 59 51.5 13.65
    endloop
  endfacet
  facet normal 0 0 -1
    outer loop
      vertex 51 64.5 13.65
      vertex 62 65.55 13.65
      vertex 59 64.5 13.65
    endloop
  endfacet
  facet normal 0 0 -1
    outer loop
      vertex 43 64.5 13.65
      vertex 51 64.5 13.65
      vertex 43 51.5 13.65
    endloop
  endfacet
  facet normal 0 0 -1
    outer loop
      vertex 43 64.5 13.65
      vertex 62 65.55 13.65
      vertex 51 64.5 13.65
    endloop
  endfacet
  facet normal 0 0 -1
    outer loop
      vertex 32 65.55 13.65
      vertex 43 64.5 13.65
      vertex 35 64.5 13.65
    endloop
  endfacet
  facet normal 0 0 -1
    outer loop
      vertex 43 64.5 13.65
      vertex 32 65.55 13.65
      vertex 62 65.55 13.65
    endloop
  endfacet
  facet normal 0 0 -1
    outer loop
      vertex 32 65.55 13.65
      vertex 35 64.5 13.65
      vertex 32 50.45 13.65
    endloop
  endfacet
  facet normal -0 0 1
    outer loop
      vertex 32 65.55 2.9
      vertex 62 50.45 2.9
      vertex 62 65.55 2.9
    endloop
  endfacet
  facet normal 0 0 1
    outer loop
      vertex 62 50.45 2.9
      vertex 32 65.55 2.9
      vertex 32 50.45 2.9
    endloop
  endfacet
  facet normal 0 -1 0
    outer loop
      vertex 32 65.55 2.9
      vertex 62 65.55 13.65
      vertex 32 65.55 13.65
    endloop
  endfacet
  facet normal 0 -1 -0
    outer loop
      vertex 62 65.55 13.65
      vertex 32 65.55 2.9
      vertex 62 65.55 2.9
    endloop
  endfacet
  facet normal 0 1 -0
    outer loop
      vertex 62 50.45 2.9
      vertex 32 50.45 13.65
      vertex 62 50.45 13.65
    endloop
  endfacet
  facet normal 0 1 0
    outer loop
      vertex 32 50.45 13.65
      vertex 62 50.45 2.9
      vertex 32 50.45 2.9
    endloop
  endfacet
endsolid OpenSCAD_Model
