  0
SECTION
  2
BLOCKS
  0
ENDSEC
  0
SECTION
  2
ENTITIES
  0
LINE
  8
0
 10
5.08235
 20
3.81175
 11
5.08235
 21
8.65881
  0
LINE
  8
0
 10
5.08235
 20
8.65881
 11
9.45882
 21
11.4823
  0
LINE
  8
0
 10
9.45882
 20
11.4823
 11
9.40869
 21
11.5307
  0
LINE
  8
0
 10
9.40869
 20
11.5307
 11
9.35716
 21
11.5769
  0
LINE
  8
0
 10
9.35716
 20
11.5769
 11
9.30423
 21
11.6209
  0
LINE
  8
0
 10
9.30423
 20
11.6209
 11
9.24988
 21
11.6627
  0
LINE
  8
0
 10
9.24988
 20
11.6627
 11
9.19411
 21
11.7022
  0
LINE
  8
0
 10
9.19411
 20
11.7022
 11
9.13693
 21
11.7394
  0
LINE
  8
0
 10
9.13693
 20
11.7394
 11
9.07834
 21
11.7743
  0
LINE
  8
0
 10
9.07834
 20
11.7743
 11
9.01834
 21
11.8069
  0
LINE
  8
0
 10
9.01834
 20
11.8069
 11
8.95694
 21
11.837
  0
LINE
  8
0
 10
8.95694
 20
11.837
 11
8.8941
 21
11.8647
  0
LINE
  8
0
 10
8.8941
 20
11.8647
 11
8.82988
 21
11.8899
  0
LINE
  8
0
 10
8.82988
 20
11.8899
 11
8.76422
 21
11.9127
  0
LINE
  8
0
 10
8.76422
 20
11.9127
 11
8.69717
 21
11.9328
  0
LINE
  8
0
 10
8.69717
 20
11.9328
 11
8.62869
 21
11.9504
  0
LINE
  8
0
 10
8.62869
 20
11.9504
 11
8.55882
 21
11.9654
  0
LINE
  8
0
 10
8.55882
 20
11.9654
 11
8.48752
 21
11.9778
  0
LINE
  8
0
 10
8.48752
 20
11.9778
 11
8.41481
 21
11.9874
  0
LINE
  8
0
 10
8.41481
 20
11.9874
 11
8.3407
 21
11.9944
  0
LINE
  8
0
 10
8.3407
 20
11.9944
 11
8.26517
 21
11.9986
  0
LINE
  8
0
 10
8.26517
 20
11.9986
 11
8.18823
 21
12
  0
LINE
  8
0
 10
8.18823
 20
12
 11
3.67058
 21
12
  0
LINE
  8
0
 10
3.67058
 20
12
 11
3.43317
 21
11.9906
  0
LINE
  8
0
 10
3.43317
 20
11.9906
 11
3.2014
 21
11.9628
  0
LINE
  8
0
 10
3.2014
 20
11.9628
 11
2.976
 21
11.9173
  0
LINE
  8
0
 10
2.976
 20
11.9173
 11
2.75764
 21
11.8547
  0
LINE
  8
0
 10
2.75764
 20
11.8547
 11
2.54706
 21
11.7757
  0
LINE
  8
0
 10
2.54706
 20
11.7757
 11
2.34494
 21
11.6811
  0
LINE
  8
0
 10
2.34494
 20
11.6811
 11
2.15199
 21
11.5714
  0
LINE
  8
0
 10
2.15199
 20
11.5714
 11
1.96893
 21
11.4473
  0
LINE
  8
0
 10
1.96893
 20
11.4473
 11
1.79646
 21
11.3096
  0
LINE
  8
0
 10
1.79646
 20
11.3096
 11
1.63528
 21
11.1588
  0
LINE
  8
0
 10
1.63528
 20
11.1588
 11
1.48611
 21
10.9957
  0
LINE
  8
0
 10
1.48611
 20
10.9957
 11
1.34964
 21
10.8209
  0
LINE
  8
0
 10
1.34964
 20
10.8209
 11
1.22658
 21
10.6351
  0
LINE
  8
0
 10
1.22658
 20
10.6351
 11
1.11765
 21
10.4389
  0
LINE
  8
0
 10
1.11765
 20
10.4389
 11
1.02353
 21
10.2331
  0
LINE
  8
0
 10
1.02353
 20
10.2331
 11
0.944931
 21
10.0182
  0
LINE
  8
0
 10
0.944931
 20
10.0182
 11
0.882584
 21
9.79509
  0
LINE
  8
0
 10
0.882584
 20
9.79509
 11
0.837173
 21
9.56427
  0
LINE
  8
0
 10
0.837173
 20
9.56427
 11
0.809402
 21
9.32646
  0
LINE
  8
0
 10
0.809402
 20
9.32646
 11
0.799988
 21
9.08235
  0
LINE
  8
0
 10
0.799988
 20
9.08235
 11
0.799988
 21
3.05882
  0
LINE
  8
0
 10
0.799988
 20
3.05882
 11
0.800705
 21
2.97447
  0
LINE
  8
0
 10
0.800705
 20
2.97447
 11
0.802917
 21
2.89091
  0
LINE
  8
0
 10
0.802917
 20
2.89091
 11
0.806656
 21
2.8082
  0
LINE
  8
0
 10
0.806656
 20
2.8082
 11
0.812042
 21
2.72639
  0
LINE
  8
0
 10
0.812042
 20
2.72639
 11
0.819107
 21
2.64558
  0
LINE
  8
0
 10
0.819107
 20
2.64558
 11
0.827942
 21
2.56583
  0
LINE
  8
0
 10
0.827942
 20
2.56583
 11
0.838623
 21
2.4872
  0
LINE
  8
0
 10
0.838623
 20
2.4872
 11
0.851196
 21
2.40977
  0
LINE
  8
0
 10
0.851196
 20
2.40977
 11
0.865738
 21
2.33363
  0
LINE
  8
0
 10
0.865738
 20
2.33363
 11
0.882339
 21
2.25882
  0
LINE
  8
0
 10
0.882339
 20
2.25882
 11
0.901062
 21
2.18541
  0
LINE
  8
0
 10
0.901062
 20
2.18541
 11
0.921967
 21
2.11349
  0
LINE
  8
0
 10
0.921967
 20
2.11349
 11
0.945129
 21
2.04314
  0
LINE
  8
0
 10
0.945129
 20
2.04314
 11
0.970627
 21
1.9744
  0
LINE
  8
0
 10
0.970627
 20
1.9744
 11
0.99852
 21
1.90735
  0
LINE
  8
0
 10
0.99852
 20
1.90735
 11
1.02888
 21
1.84206
  0
LINE
  8
0
 10
1.02888
 20
1.84206
 11
1.0618
 21
1.77861
  0
LINE
  8
0
 10
1.0618
 20
1.77861
 11
1.09731
 21
1.71707
  0
LINE
  8
0
 10
1.09731
 20
1.71707
 11
1.13551
 21
1.65752
  0
LINE
  8
0
 10
1.13551
 20
1.65752
 11
1.17647
 21
1.59999
  0
LINE
  8
0
 10
1.17647
 20
1.59999
 11
5.08235
 21
3.81175
  0
LINE
  8
0
 10
25.1934
 20
10.8884
 11
25.287
 21
10.9135
  0
LINE
  8
0
 10
25.287
 20
10.9135
 11
25.3729
 21
10.9555
  0
LINE
  8
0
 10
25.3729
 20
10.9555
 11
25.451
 21
11.0142
  0
LINE
  8
0
 10
25.451
 20
11.0142
 11
25.5161
 21
11.0849
  0
LINE
  8
0
 10
25.5161
 20
11.0849
 11
25.5625
 21
11.1628
  0
LINE
  8
0
 10
25.5625
 20
11.1628
 11
25.5904
 21
11.248
  0
LINE
  8
0
 10
25.5904
 20
11.248
 11
25.5997
 21
11.3403
  0
LINE
  8
0
 10
25.5997
 20
11.3403
 11
25.5904
 21
11.4326
  0
LINE
  8
0
 10
25.5904
 20
11.4326
 11
25.5625
 21
11.5177
  0
LINE
  8
0
 10
25.5625
 20
11.5177
 11
25.5161
 21
11.5956
  0
LINE
  8
0
 10
25.5161
 20
11.5956
 11
25.451
 21
11.6663
  0
LINE
  8
0
 10
25.451
 20
11.6663
 11
25.3729
 21
11.725
  0
LINE
  8
0
 10
25.3729
 20
11.725
 11
25.287
 21
11.767
  0
LINE
  8
0
 10
25.287
 20
11.767
 11
25.1934
 21
11.7921
  0
LINE
  8
0
 10
25.1934
 20
11.7921
 11
25.0921
 21
11.8005
  0
LINE
  8
0
 10
25.0921
 20
11.8005
 11
24.992
 21
11.7921
  0
LINE
  8
0
 10
24.992
 20
11.7921
 11
24.8992
 21
11.767
  0
LINE
  8
0
 10
24.8992
 20
11.767
 11
24.8138
 21
11.725
  0
LINE
  8
0
 10
24.8138
 20
11.725
 11
24.7358
 21
11.6663
  0
LINE
  8
0
 10
24.7358
 20
11.6663
 11
24.6708
 21
11.5956
  0
LINE
  8
0
 10
24.6708
 20
11.5956
 11
24.6244
 21
11.5177
  0
LINE
  8
0
 10
24.6244
 20
11.5177
 11
24.5965
 21
11.4326
  0
LINE
  8
0
 10
24.5965
 20
11.4326
 11
24.5872
 21
11.3403
  0
LINE
  8
0
 10
24.5872
 20
11.3403
 11
24.5965
 21
11.248
  0
LINE
  8
0
 10
24.5965
 20
11.248
 11
24.6244
 21
11.1628
  0
LINE
  8
0
 10
24.6244
 20
11.1628
 11
24.6708
 21
11.0849
  0
LINE
  8
0
 10
24.6708
 20
11.0849
 11
24.7358
 21
11.0142
  0
LINE
  8
0
 10
24.7358
 20
11.0142
 11
24.8138
 21
10.9555
  0
LINE
  8
0
 10
24.8138
 20
10.9555
 11
24.8992
 21
10.9135
  0
LINE
  8
0
 10
24.8992
 20
10.9135
 11
24.992
 21
10.8884
  0
LINE
  8
0
 10
24.992
 20
10.8884
 11
25.0921
 21
10.88
  0
LINE
  8
0
 10
25.0921
 20
10.88
 11
25.1934
 21
10.8884
  0
LINE
  8
0
 10
36.0913
 20
7.42459
 11
36.2437
 21
7.45567
  0
LINE
  8
0
 10
36.2437
 20
7.45567
 11
36.3781
 21
7.50746
  0
LINE
  8
0
 10
36.3781
 20
7.50746
 11
36.4944
 21
7.57999
  0
LINE
  8
0
 10
36.4944
 20
7.57999
 11
36.594
 21
7.66551
  0
LINE
  8
0
 10
36.594
 20
7.66551
 11
36.6784
 21
7.75635
  0
LINE
  8
0
 10
36.6784
 20
7.75635
 11
36.7476
 21
7.85251
  0
LINE
  8
0
 10
36.7476
 20
7.85251
 11
36.8015
 21
7.95396
  0
LINE
  8
0
 10
36.8015
 20
7.95396
 11
36.8352
 21
7.95396
  0
LINE
  8
0
 10
36.8352
 20
7.95396
 11
36.8352
 21
7.45805
  0
LINE
  8
0
 10
36.8352
 20
7.45805
 11
37.8
 21
7.45805
  0
LINE
  8
0
 10
37.8
 20
7.45805
 11
37.8
 21
11.5402
  0
LINE
  8
0
 10
37.8
 20
11.5402
 11
36.8239
 21
11.5402
  0
LINE
  8
0
 10
36.8239
 20
11.5402
 11
36.8239
 21
9.99503
  0
LINE
  8
0
 10
36.8239
 20
9.99503
 11
36.8015
 21
9.99503
  0
LINE
  8
0
 10
36.8015
 20
9.99503
 11
36.7686
 21
10.0631
  0
LINE
  8
0
 10
36.7686
 20
10.0631
 11
36.7289
 21
10.1303
  0
LINE
  8
0
 10
36.7289
 20
10.1303
 11
36.6824
 21
10.1967
  0
LINE
  8
0
 10
36.6824
 20
10.1967
 11
36.629
 21
10.2621
  0
LINE
  8
0
 10
36.629
 20
10.2621
 11
36.5683
 21
10.3243
  0
LINE
  8
0
 10
36.5683
 20
10.3243
 11
36.4996
 21
10.3807
  0
LINE
  8
0
 10
36.4996
 20
10.3807
 11
36.4231
 21
10.4312
  0
LINE
  8
0
 10
36.4231
 20
10.4312
 11
36.3387
 21
10.4759
  0
LINE
  8
0
 10
36.3387
 20
10.4759
 11
36.2458
 21
10.5124
  0
LINE
  8
0
 10
36.2458
 20
10.5124
 11
36.1438
 21
10.5385
  0
LINE
  8
0
 10
36.1438
 20
10.5385
 11
36.0326
 21
10.5542
  0
LINE
  8
0
 10
36.0326
 20
10.5542
 11
35.9124
 21
10.5594
  0
LINE
  8
0
 10
35.9124
 20
10.5594
 11
35.751
 21
10.5488
  0
LINE
  8
0
 10
35.751
 20
10.5488
 11
35.5951
 21
10.517
  0
LINE
  8
0
 10
35.5951
 20
10.517
 11
35.4446
 21
10.4639
  0
LINE
  8
0
 10
35.4446
 20
10.4639
 11
35.2996
 21
10.3896
  0
LINE
  8
0
 10
35.2996
 20
10.3896
 11
35.164
 21
10.2935
  0
LINE
  8
0
 10
35.164
 20
10.2935
 11
35.0422
 21
10.1752
  0
LINE
  8
0
 10
35.0422
 20
10.1752
 11
34.9341
 21
10.0346
  0
LINE
  8
0
 10
34.9341
 20
10.0346
 11
34.8396
 21
9.87173
  0
LINE
  8
0
 10
34.8396
 20
9.87173
 11
34.7629
 21
9.68596
  0
LINE
  8
0
 10
34.7629
 20
9.68596
 11
34.7081
 21
9.47655
  0
LINE
  8
0
 10
34.7081
 20
9.47655
 11
34.6752
 21
9.24352
  0
LINE
  8
0
 10
34.6752
 20
9.24352
 11
34.6643
 21
8.98683
  0
LINE
  8
0
 10
34.6643
 20
8.98683
 11
34.6748
 21
8.73727
  0
LINE
  8
0
 10
34.6748
 20
8.73727
 11
34.7064
 21
8.50909
  0
LINE
  8
0
 10
34.7064
 20
8.50909
 11
34.759
 21
8.30234
  0
LINE
  8
0
 10
34.759
 20
8.30234
 11
34.8326
 21
8.11697
  0
LINE
  8
0
 10
34.8326
 20
8.11697
 11
34.9241
 21
7.95309
  0
LINE
  8
0
 10
34.9241
 20
7.95309
 11
35.0303
 21
7.81079
  0
LINE
  8
0
 10
35.0303
 20
7.81079
 11
35.1513
 21
7.69008
  0
LINE
  8
0
 10
35.1513
 20
7.69008
 11
35.2869
 21
7.59093
  0
LINE
  8
0
 10
35.2869
 20
7.59093
 11
35.4338
 21
7.51363
  0
LINE
  8
0
 10
35.4338
 20
7.51363
 11
35.5884
 21
7.4584
  0
LINE
  8
0
 10
35.5884
 20
7.4584
 11
35.7508
 21
7.42528
  0
LINE
  8
0
 10
35.7508
 20
7.42528
 11
35.9208
 21
7.41423
  0
LINE
  8
0
 10
35.9208
 20
7.41423
 11
36.0913
 21
7.42459
  0
LINE
  8
0
 10
36.1213
 20
8.17365
 11
36.0046
 21
8.21628
  0
LINE
  8
0
 10
36.0046
 20
8.21628
 11
35.9046
 21
8.28734
  0
LINE
  8
0
 10
35.9046
 20
8.28734
 11
35.8212
 21
8.38684
  0
LINE
  8
0
 10
35.8212
 20
8.38684
 11
35.7556
 21
8.50961
  0
LINE
  8
0
 10
35.7556
 20
8.50961
 11
35.7087
 21
8.65053
  0
LINE
  8
0
 10
35.7087
 20
8.65053
 11
35.6806
 21
8.80962
  0
LINE
  8
0
 10
35.6806
 20
8.80962
 11
35.6712
 21
8.98683
  0
LINE
  8
0
 10
35.6712
 20
8.98683
 11
35.6806
 21
9.16397
  0
LINE
  8
0
 10
35.6806
 20
9.16397
 11
35.7087
 21
9.32278
  0
LINE
  8
0
 10
35.7087
 20
9.32278
 11
35.7556
 21
9.46329
  0
LINE
  8
0
 10
35.7556
 20
9.46329
 11
35.8212
 21
9.58546
  0
LINE
  8
0
 10
35.8212
 20
9.58546
 11
35.9046
 21
9.68436
  0
LINE
  8
0
 10
35.9046
 20
9.68436
 11
36.0046
 21
9.75499
  0
LINE
  8
0
 10
36.0046
 20
9.75499
 11
36.1213
 21
9.79738
  0
LINE
  8
0
 10
36.1213
 20
9.79738
 11
36.2546
 21
9.81149
  0
LINE
  8
0
 10
36.2546
 20
9.81149
 11
36.387
 21
9.79762
  0
LINE
  8
0
 10
36.387
 20
9.79762
 11
36.5039
 21
9.75601
  0
LINE
  8
0
 10
36.5039
 20
9.75601
 11
36.6051
 21
9.68665
  0
LINE
  8
0
 10
36.6051
 20
9.68665
 11
36.6907
 21
9.58955
  0
LINE
  8
0
 10
36.6907
 20
9.58955
 11
36.7588
 21
9.46866
  0
LINE
  8
0
 10
36.7588
 20
9.46866
 11
36.8074
 21
9.32791
  0
LINE
  8
0
 10
36.8074
 20
9.32791
 11
36.8366
 21
9.16731
  0
LINE
  8
0
 10
36.8366
 20
9.16731
 11
36.8464
 21
8.98683
  0
LINE
  8
0
 10
36.8464
 20
8.98683
 11
36.8365
 21
8.8085
  0
LINE
  8
0
 10
36.8365
 20
8.8085
 11
36.8071
 21
8.64882
  0
LINE
  8
0
 10
36.8071
 20
8.64882
 11
36.758
 21
8.5078
  0
LINE
  8
0
 10
36.758
 20
8.5078
 11
36.6893
 21
8.38545
  0
LINE
  8
0
 10
36.6893
 20
8.38545
 11
36.6032
 21
8.28658
  0
LINE
  8
0
 10
36.6032
 20
8.28658
 11
36.5021
 21
8.21593
  0
LINE
  8
0
 10
36.5021
 20
8.21593
 11
36.3859
 21
8.17355
  0
LINE
  8
0
 10
36.3859
 20
8.17355
 11
36.2546
 21
8.15942
  0
LINE
  8
0
 10
36.2546
 20
8.15942
 11
36.1213
 21
8.17365
  0
LINE
  8
0
 10
27.1884
 20
9.21695
 11
27.1879
 21
9.29939
  0
LINE
  8
0
 10
27.1879
 20
9.29939
 11
27.1866
 21
9.39331
  0
LINE
  8
0
 10
27.1866
 20
9.39331
 11
27.1844
 21
9.4987
  0
LINE
  8
0
 10
27.1844
 20
9.4987
 11
27.1813
 21
9.61555
  0
LINE
  8
0
 10
27.1813
 20
9.61555
 11
27.174
 21
9.87071
  0
LINE
  8
0
 10
27.174
 20
9.87071
 11
27.17
 21
10.0057
  0
LINE
  8
0
 10
27.17
 20
10.0057
 11
27.1659
 21
10.1457
  0
LINE
  8
0
 10
27.1659
 20
10.1457
 11
27.1619
 21
10.2872
  0
LINE
  8
0
 10
27.1619
 20
10.2872
 11
27.1582
 21
10.4265
  0
LINE
  8
0
 10
27.1582
 20
10.4265
 11
27.1549
 21
10.5639
  0
LINE
  8
0
 10
27.1549
 20
10.5639
 11
27.1519
 21
10.6991
  0
LINE
  8
0
 10
27.1519
 20
10.6991
 11
27.1874
 21
10.5556
  0
LINE
  8
0
 10
27.1874
 20
10.5556
 11
27.2238
 21
10.4125
  0
LINE
  8
0
 10
27.2238
 20
10.4125
 11
27.261
 21
10.27
  0
LINE
  8
0
 10
27.261
 20
10.27
 11
27.2991
 21
10.1279
  0
LINE
  8
0
 10
27.2991
 20
10.1279
 11
27.3373
 21
9.98898
  0
LINE
  8
0
 10
27.3373
 20
9.98898
 11
27.3745
 21
9.85568
  0
LINE
  8
0
 10
27.3745
 20
9.85568
 11
27.4109
 21
9.72801
  0
LINE
  8
0
 10
27.4109
 20
9.72801
 11
27.4464
 21
9.60599
  0
LINE
  8
0
 10
27.4464
 20
9.60599
 11
27.48
 21
9.49229
  0
LINE
  8
0
 10
27.48
 20
9.49229
 11
27.5109
 21
9.38956
  0
LINE
  8
0
 10
27.5109
 20
9.38956
 11
27.5389
 21
9.29778
  0
LINE
  8
0
 10
27.5389
 20
9.29778
 11
27.5642
 21
9.21695
  0
LINE
  8
0
 10
27.5642
 20
9.21695
 11
28.1672
 21
7.45805
  0
LINE
  8
0
 10
28.1672
 20
7.45805
 11
28.9946
 21
7.45805
  0
LINE
  8
0
 10
28.9946
 20
7.45805
 11
29.5892
 21
9.21695
  0
LINE
  8
0
 10
29.5892
 20
9.21695
 11
29.6157
 21
9.30077
  0
LINE
  8
0
 10
29.6157
 20
9.30077
 11
29.6446
 21
9.39607
  0
LINE
  8
0
 10
29.6446
 20
9.39607
 11
29.676
 21
9.50282
  0
LINE
  8
0
 10
29.676
 20
9.50282
 11
29.7098
 21
9.62106
  0
LINE
  8
0
 10
29.7098
 20
9.62106
 11
29.7453
 21
9.74786
  0
LINE
  8
0
 10
29.7453
 20
9.74786
 11
29.7817
 21
9.88031
  0
LINE
  8
0
 10
29.7817
 20
9.88031
 11
29.8189
 21
10.0184
  0
LINE
  8
0
 10
29.8189
 20
10.0184
 11
29.8571
 21
10.1622
  0
LINE
  8
0
 10
29.8571
 20
10.1622
 11
29.8952
 21
10.3086
  0
LINE
  8
0
 10
29.8952
 20
10.3086
 11
29.9324
 21
10.4546
  0
LINE
  8
0
 10
29.9324
 20
10.4546
 11
29.9688
 21
10.6004
  0
LINE
  8
0
 10
29.9688
 20
10.6004
 11
30.0043
 21
10.7457
  0
LINE
  8
0
 10
30.0043
 20
10.7457
 11
30.0013
 21
10.6074
  0
LINE
  8
0
 10
30.0013
 20
10.6074
 11
29.998
 21
10.4663
  0
LINE
  8
0
 10
29.998
 20
10.4663
 11
29.9943
 21
10.3224
  0
LINE
  8
0
 10
29.9943
 20
10.3224
 11
29.9903
 21
10.1759
  0
LINE
  8
0
 10
29.9903
 20
10.1759
 11
29.9785
 21
9.75592
  0
LINE
  8
0
 10
29.9785
 20
9.75592
 11
29.9749
 21
9.62656
  0
LINE
  8
0
 10
29.9749
 20
9.62656
 11
29.9718
 21
9.50592
  0
LINE
  8
0
 10
29.9718
 20
9.50592
 11
29.9696
 21
9.39745
  0
LINE
  8
0
 10
29.9696
 20
9.39745
 11
29.9683
 21
9.30112
  0
LINE
  8
0
 10
29.9683
 20
9.30112
 11
29.9678
 21
9.21695
  0
LINE
  8
0
 10
29.9678
 20
9.21695
 11
29.9678
 21
7.45805
  0
LINE
  8
0
 10
29.9678
 20
7.45805
 11
30.9635
 21
7.45805
  0
LINE
  8
0
 10
30.9635
 20
7.45805
 11
30.9635
 21
11.5402
  0
LINE
  8
0
 10
30.9635
 20
11.5402
 11
29.4181
 21
11.5402
  0
LINE
  8
0
 10
29.4181
 20
11.5402
 11
28.8936
 21
9.9512
  0
LINE
  8
0
 10
28.8936
 20
9.9512
 11
28.8718
 21
9.87595
  0
LINE
  8
0
 10
28.8718
 20
9.87595
 11
28.8484
 21
9.78992
  0
LINE
  8
0
 10
28.8484
 20
9.78992
 11
28.8234
 21
9.69308
  0
LINE
  8
0
 10
28.8234
 20
9.69308
 11
28.7969
 21
9.58546
  0
LINE
  8
0
 10
28.7969
 20
9.58546
 11
28.7695
 21
9.4704
  0
LINE
  8
0
 10
28.7695
 20
9.4704
 11
28.7422
 21
9.35121
  0
LINE
  8
0
 10
28.7422
 20
9.35121
 11
28.7148
 21
9.22792
  0
LINE
  8
0
 10
28.7148
 20
9.22792
 11
28.6875
 21
9.10051
  0
LINE
  8
0
 10
28.6875
 20
9.10051
 11
28.6606
 21
8.97202
  0
LINE
  8
0
 10
28.6606
 20
8.97202
 11
28.6346
 21
8.8454
  0
LINE
  8
0
 10
28.6346
 20
8.8454
 11
28.6094
 21
8.72066
  0
LINE
  8
0
 10
28.6094
 20
8.72066
 11
28.5851
 21
8.59779
  0
LINE
  8
0
 10
28.5851
 20
8.59779
 11
28.5595
 21
8.72075
  0
LINE
  8
0
 10
28.5595
 20
8.72075
 11
28.5332
 21
8.84573
  0
LINE
  8
0
 10
28.5332
 20
8.84573
 11
28.5062
 21
8.97279
  0
LINE
  8
0
 10
28.5062
 20
8.97279
 11
28.4785
 21
9.10188
  0
LINE
  8
0
 10
28.4785
 20
9.10188
 11
28.4505
 21
9.22981
  0
LINE
  8
0
 10
28.4505
 20
9.22981
 11
28.4228
 21
9.35327
  0
LINE
  8
0
 10
28.4228
 20
9.35327
 11
28.3952
 21
9.47227
  0
LINE
  8
0
 10
28.3952
 20
9.47227
 11
28.3677
 21
9.58684
  0
LINE
  8
0
 10
28.3677
 20
9.58684
 11
28.3412
 21
9.69386
  0
LINE
  8
0
 10
28.3412
 20
9.69386
 11
28.3162
 21
9.79025
  0
LINE
  8
0
 10
28.3162
 20
9.79025
 11
28.2928
 21
9.87604
  0
LINE
  8
0
 10
28.2928
 20
9.87604
 11
28.271
 21
9.9512
  0
LINE
  8
0
 10
28.271
 20
9.9512
 11
27.7381
 21
11.5402
  0
LINE
  8
0
 10
27.7381
 20
11.5402
 11
26.1955
 21
11.5402
  0
LINE
  8
0
 10
26.1955
 20
11.5402
 11
26.1955
 21
7.45805
  0
LINE
  8
0
 10
26.1955
 20
7.45805
 11
27.1884
 21
7.45805
  0
LINE
  8
0
 10
27.1884
 20
7.45805
 11
27.1884
 21
9.21695
  0
LINE
  8
0
 10
21.3266
 20
7.41525
 11
21.3985
 21
7.41833
  0
LINE
  8
0
 10
21.3985
 20
7.41833
 11
21.4725
 21
7.42348
  0
LINE
  8
0
 10
21.4725
 20
7.42348
 11
21.5485
 21
7.43068
  0
LINE
  8
0
 10
21.5485
 20
7.43068
 11
21.6264
 21
7.44078
  0
LINE
  8
0
 10
21.6264
 20
7.44078
 11
21.7056
 21
7.45465
  0
LINE
  8
0
 10
21.7056
 20
7.45465
 11
21.7862
 21
7.47229
  0
LINE
  8
0
 10
21.7862
 20
7.47229
 11
21.8683
 21
7.4937
  0
LINE
  8
0
 10
21.8683
 20
7.4937
 11
21.7421
 21
8.18956
  0
LINE
  8
0
 10
21.7421
 20
8.18956
 11
21.7192
 21
8.18521
  0
LINE
  8
0
 10
21.7192
 20
8.18521
 11
21.6898
 21
8.18033
  0
LINE
  8
0
 10
21.6898
 20
8.18033
 11
21.654
 21
8.17493
  0
LINE
  8
0
 10
21.654
 20
8.17493
 11
21.6116
 21
8.16901
  0
LINE
  8
0
 10
21.6116
 20
8.16901
 11
21.5686
 21
8.1636
  0
LINE
  8
0
 10
21.5686
 20
8.1636
 11
21.5307
 21
8.15976
  0
LINE
  8
0
 10
21.5307
 20
8.15976
 11
21.4978
 21
8.15746
  0
LINE
  8
0
 10
21.4978
 20
8.15746
 11
21.47
 21
8.15668
  0
LINE
  8
0
 10
21.47
 20
8.15668
 11
21.3608
 21
8.17157
  0
LINE
  8
0
 10
21.3608
 20
8.17157
 11
21.2828
 21
8.21626
  0
LINE
  8
0
 10
21.2828
 20
8.21626
 11
21.236
 21
8.29076
  0
LINE
  8
0
 10
21.236
 20
8.29076
 11
21.2204
 21
8.39503
  0
LINE
  8
0
 10
21.2204
 20
8.39503
 11
21.2204
 21
9.81149
  0
LINE
  8
0
 10
21.2204
 20
9.81149
 11
21.7841
 21
9.81149
  0
LINE
  8
0
 10
21.7841
 20
9.81149
 11
21.7841
 21
10.5211
  0
LINE
  8
0
 10
21.7841
 20
10.5211
 11
21.2204
 21
10.5211
  0
LINE
  8
0
 10
21.2204
 20
10.5211
 11
21.2204
 21
11.2499
  0
LINE
  8
0
 10
21.2204
 20
11.2499
 11
20.2415
 21
11.2499
  0
LINE
  8
0
 10
20.2415
 20
11.2499
 11
20.2415
 21
10.5211
  0
LINE
  8
0
 10
20.2415
 20
10.5211
 11
19.8264
 21
10.5211
  0
LINE
  8
0
 10
19.8264
 20
10.5211
 11
19.8264
 21
9.81149
  0
LINE
  8
0
 10
19.8264
 20
9.81149
 11
20.2415
 21
9.81149
  0
LINE
  8
0
 10
20.2415
 20
9.81149
 11
20.2415
 21
8.31012
  0
LINE
  8
0
 10
20.2415
 20
8.31012
 11
20.2576
 21
8.10403
  0
LINE
  8
0
 10
20.2576
 20
8.10403
 11
20.306
 21
7.92415
  0
LINE
  8
0
 10
20.306
 20
7.92415
 11
20.3867
 21
7.77046
  0
LINE
  8
0
 10
20.3867
 20
7.77046
 11
20.4995
 21
7.64297
  0
LINE
  8
0
 10
20.4995
 20
7.64297
 11
20.6437
 21
7.54289
  0
LINE
  8
0
 10
20.6437
 20
7.54289
 11
20.8179
 21
7.47142
  0
LINE
  8
0
 10
20.8179
 20
7.47142
 11
21.0223
 21
7.42853
  0
LINE
  8
0
 10
21.0223
 20
7.42853
 11
21.2568
 21
7.41423
  0
LINE
  8
0
 10
21.2568
 20
7.41423
 11
21.3266
 21
7.41525
  0
LINE
  8
0
 10
51.4994
 20
9.27722
 11
51.5073
 21
9.39093
  0
LINE
  8
0
 10
51.5073
 20
9.39093
 11
51.5313
 21
9.49092
  0
LINE
  8
0
 10
51.5313
 20
9.49092
 11
51.5711
 21
9.57722
  0
LINE
  8
0
 10
51.5711
 20
9.57722
 11
51.627
 21
9.64983
  0
LINE
  8
0
 10
51.627
 20
9.64983
 11
51.6952
 21
9.70737
  0
LINE
  8
0
 10
51.6952
 20
9.70737
 11
51.7725
 21
9.74847
  0
LINE
  8
0
 10
51.7725
 20
9.74847
 11
51.8586
 21
9.77315
  0
LINE
  8
0
 10
51.8586
 20
9.77315
 11
51.9537
 21
9.78136
  0
LINE
  8
0
 10
51.9537
 20
9.78136
 11
52.046
 21
9.77356
  0
LINE
  8
0
 10
52.046
 20
9.77356
 11
52.1294
 21
9.75018
  0
LINE
  8
0
 10
52.1294
 20
9.75018
 11
52.2038
 21
9.71123
  0
LINE
  8
0
 10
52.2038
 20
9.71123
 11
52.2693
 21
9.65669
  0
LINE
  8
0
 10
52.2693
 20
9.65669
 11
52.3226
 21
9.58896
  0
LINE
  8
0
 10
52.3226
 20
9.58896
 11
52.3608
 21
9.51045
  0
LINE
  8
0
 10
52.3608
 20
9.51045
 11
52.3837
 21
9.42114
  0
LINE
  8
0
 10
52.3837
 20
9.42114
 11
52.3913
 21
9.32106
  0
LINE
  8
0
 10
52.3913
 20
9.32106
 11
52.3913
 21
7.45805
  0
LINE
  8
0
 10
52.3913
 20
7.45805
 11
53.3308
 21
7.45805
  0
LINE
  8
0
 10
53.3308
 20
7.45805
 11
53.3308
 21
9.29642
  0
LINE
  8
0
 10
53.3308
 20
9.29642
 11
53.3384
 21
9.4006
  0
LINE
  8
0
 10
53.3384
 20
9.4006
 11
53.361
 21
9.494
  0
LINE
  8
0
 10
53.361
 20
9.494
 11
53.3987
 21
9.57661
  0
LINE
  8
0
 10
53.3987
 20
9.57661
 11
53.4514
 21
9.64845
  0
LINE
  8
0
 10
53.4514
 20
9.64845
 11
53.5172
 21
9.70659
  0
LINE
  8
0
 10
53.5172
 20
9.70659
 11
53.5938
 21
9.74814
  0
LINE
  8
0
 10
53.5938
 20
9.74814
 11
53.6813
 21
9.77306
  0
LINE
  8
0
 10
53.6813
 20
9.77306
 11
53.7796
 21
9.78136
  0
LINE
  8
0
 10
53.7796
 20
9.78136
 11
53.8721
 21
9.77382
  0
LINE
  8
0
 10
53.8721
 20
9.77382
 11
53.956
 21
9.75122
  0
LINE
  8
0
 10
53.956
 20
9.75122
 11
54.0312
 21
9.71355
  0
LINE
  8
0
 10
54.0312
 20
9.71355
 11
54.0979
 21
9.66081
  0
LINE
  8
0
 10
54.0979
 20
9.66081
 11
54.1525
 21
9.59351
  0
LINE
  8
0
 10
54.1525
 20
9.59351
 11
54.1916
 21
9.51218
  0
LINE
  8
0
 10
54.1916
 20
9.51218
 11
54.215
 21
9.41679
  0
LINE
  8
0
 10
54.215
 20
9.41679
 11
54.2227
 21
9.30736
  0
LINE
  8
0
 10
54.2227
 20
9.30736
 11
54.2227
 21
7.45805
  0
LINE
  8
0
 10
54.2227
 20
7.45805
 11
55.1988
 21
7.45805
  0
LINE
  8
0
 10
55.1988
 20
7.45805
 11
55.1988
 21
9.52382
  0
LINE
  8
0
 10
55.1988
 20
9.52382
 11
55.1812
 21
9.75327
  0
LINE
  8
0
 10
55.1812
 20
9.75327
 11
55.1284
 21
9.9567
  0
LINE
  8
0
 10
55.1284
 20
9.9567
 11
55.0403
 21
10.1341
  0
LINE
  8
0
 10
55.0403
 20
10.1341
 11
54.9169
 21
10.2855
  0
LINE
  8
0
 10
54.9169
 20
10.2855
 11
54.7661
 21
10.4065
  0
LINE
  8
0
 10
54.7661
 20
10.4065
 11
54.5954
 21
10.493
  0
LINE
  8
0
 10
54.5954
 20
10.493
 11
54.405
 21
10.5449
  0
LINE
  8
0
 10
54.405
 20
10.5449
 11
54.1947
 21
10.5622
  0
LINE
  8
0
 10
54.1947
 20
10.5622
 11
54.0386
 21
10.5518
  0
LINE
  8
0
 10
54.0386
 20
10.5518
 11
53.8873
 21
10.5208
  0
LINE
  8
0
 10
53.8873
 20
10.5208
 11
53.7406
 21
10.4689
  0
LINE
  8
0
 10
53.7406
 20
10.4689
 11
53.5987
 21
10.3964
  0
LINE
  8
0
 10
53.5987
 20
10.3964
 11
53.4677
 21
10.3003
  0
LINE
  8
0
 10
53.4677
 20
10.3003
 11
53.3537
 21
10.1776
  0
LINE
  8
0
 10
53.3537
 20
10.1776
 11
53.2566
 21
10.0284
  0
LINE
  8
0
 10
53.2566
 20
10.0284
 11
53.1766
 21
9.85258
  0
LINE
  8
0
 10
53.1766
 20
9.85258
 11
53.1139
 21
10.0272
  0
LINE
  8
0
 10
53.1139
 20
10.0272
 11
53.0409
 21
10.1759
  0
LINE
  8
0
 10
53.0409
 20
10.1759
 11
52.9576
 21
10.2985
  0
LINE
  8
0
 10
52.9576
 20
10.2985
 11
52.8639
 21
10.3951
  0
LINE
  8
0
 10
52.8639
 20
10.3951
 11
52.7588
 21
10.4682
  0
LINE
  8
0
 10
52.7588
 20
10.4682
 11
52.6413
 21
10.5204
  0
LINE
  8
0
 10
52.6413
 20
10.5204
 11
52.5113
 21
10.5517
  0
LINE
  8
0
 10
52.5113
 20
10.5517
 11
52.3688
 21
10.5622
  0
LINE
  8
0
 10
52.3688
 20
10.5622
 11
52.2296
 21
10.5527
  0
LINE
  8
0
 10
52.2296
 20
10.5527
 11
52.095
 21
10.5242
  0
LINE
  8
0
 10
52.095
 20
10.5242
 11
51.9652
 21
10.4767
  0
LINE
  8
0
 10
51.9652
 20
10.4767
 11
51.8401
 21
10.4101
  0
LINE
  8
0
 10
51.8401
 20
10.4101
 11
51.7247
 21
10.322
  0
LINE
  8
0
 10
51.7247
 20
10.322
 11
51.6238
 21
10.2098
  0
LINE
  8
0
 10
51.6238
 20
10.2098
 11
51.5375
 21
10.0734
  0
LINE
  8
0
 10
51.5375
 20
10.0734
 11
51.4657
 21
9.91286
  0
LINE
  8
0
 10
51.4657
 20
9.91286
 11
51.4208
 21
10.5211
  0
LINE
  8
0
 10
51.4208
 20
10.5211
 11
50.5205
 21
10.5211
  0
LINE
  8
0
 10
50.5205
 20
10.5211
 11
50.5205
 21
7.45805
  0
LINE
  8
0
 10
50.5205
 20
7.45805
 11
51.4994
 21
7.45805
  0
LINE
  8
0
 10
51.4994
 20
7.45805
 11
51.4994
 21
9.27722
  0
LINE
  8
0
 10
12.5014
 20
9.27722
 11
12.5094
 21
9.39093
  0
LINE
  8
0
 10
12.5094
 20
9.39093
 11
12.5333
 21
9.49092
  0
LINE
  8
0
 10
12.5333
 20
9.49092
 11
12.5732
 21
9.57722
  0
LINE
  8
0
 10
12.5732
 20
9.57722
 11
12.629
 21
9.64983
  0
LINE
  8
0
 10
12.629
 20
9.64983
 11
12.6973
 21
9.70737
  0
LINE
  8
0
 10
12.6973
 20
9.70737
 11
12.7745
 21
9.74847
  0
LINE
  8
0
 10
12.7745
 20
9.74847
 11
12.8606
 21
9.77315
  0
LINE
  8
0
 10
12.8606
 20
9.77315
 11
12.9557
 21
9.78136
  0
LINE
  8
0
 10
12.9557
 20
9.78136
 11
13.048
 21
9.77356
  0
LINE
  8
0
 10
13.048
 20
9.77356
 11
13.1314
 21
9.75018
  0
LINE
  8
0
 10
13.1314
 20
9.75018
 11
13.2058
 21
9.71123
  0
LINE
  8
0
 10
13.2058
 20
9.71123
 11
13.2713
 21
9.65669
  0
LINE
  8
0
 10
13.2713
 20
9.65669
 11
13.3247
 21
9.58896
  0
LINE
  8
0
 10
13.3247
 20
9.58896
 11
13.3628
 21
9.51045
  0
LINE
  8
0
 10
13.3628
 20
9.51045
 11
13.3857
 21
9.42114
  0
LINE
  8
0
 10
13.3857
 20
9.42114
 11
13.3933
 21
9.32106
  0
LINE
  8
0
 10
13.3933
 20
9.32106
 11
13.3933
 21
7.45805
  0
LINE
  8
0
 10
13.3933
 20
7.45805
 11
14.3329
 21
7.45805
  0
LINE
  8
0
 10
14.3329
 20
7.45805
 11
14.3329
 21
9.29642
  0
LINE
  8
0
 10
14.3329
 20
9.29642
 11
14.3404
 21
9.4006
  0
LINE
  8
0
 10
14.3404
 20
9.4006
 11
14.363
 21
9.494
  0
LINE
  8
0
 10
14.363
 20
9.494
 11
14.4007
 21
9.57661
  0
LINE
  8
0
 10
14.4007
 20
9.57661
 11
14.4535
 21
9.64845
  0
LINE
  8
0
 10
14.4535
 20
9.64845
 11
14.5192
 21
9.70659
  0
LINE
  8
0
 10
14.5192
 20
9.70659
 11
14.5958
 21
9.74814
  0
LINE
  8
0
 10
14.5958
 20
9.74814
 11
14.6833
 21
9.77306
  0
LINE
  8
0
 10
14.6833
 20
9.77306
 11
14.7816
 21
9.78136
  0
LINE
  8
0
 10
14.7816
 20
9.78136
 11
14.8741
 21
9.77382
  0
LINE
  8
0
 10
14.8741
 20
9.77382
 11
14.958
 21
9.75122
  0
LINE
  8
0
 10
14.958
 20
9.75122
 11
15.0333
 21
9.71355
  0
LINE
  8
0
 10
15.0333
 20
9.71355
 11
15.1
 21
9.66081
  0
LINE
  8
0
 10
15.1
 20
9.66081
 11
15.1546
 21
9.59351
  0
LINE
  8
0
 10
15.1546
 20
9.59351
 11
15.1936
 21
9.51218
  0
LINE
  8
0
 10
15.1936
 20
9.51218
 11
15.217
 21
9.41679
  0
LINE
  8
0
 10
15.217
 20
9.41679
 11
15.2248
 21
9.30736
  0
LINE
  8
0
 10
15.2248
 20
9.30736
 11
15.2248
 21
7.45805
  0
LINE
  8
0
 10
15.2248
 20
7.45805
 11
16.2009
 21
7.45805
  0
LINE
  8
0
 10
16.2009
 20
7.45805
 11
16.2009
 21
9.52382
  0
LINE
  8
0
 10
16.2009
 20
9.52382
 11
16.1832
 21
9.75327
  0
LINE
  8
0
 10
16.1832
 20
9.75327
 11
16.1304
 21
9.9567
  0
LINE
  8
0
 10
16.1304
 20
9.9567
 11
16.0423
 21
10.1341
  0
LINE
  8
0
 10
16.0423
 20
10.1341
 11
15.919
 21
10.2855
  0
LINE
  8
0
 10
15.919
 20
10.2855
 11
15.7681
 21
10.4065
  0
LINE
  8
0
 10
15.7681
 20
10.4065
 11
15.5975
 21
10.493
  0
LINE
  8
0
 10
15.5975
 20
10.493
 11
15.407
 21
10.5449
  0
LINE
  8
0
 10
15.407
 20
10.5449
 11
15.1967
 21
10.5622
  0
LINE
  8
0
 10
15.1967
 20
10.5622
 11
15.0406
 21
10.5518
  0
LINE
  8
0
 10
15.0406
 20
10.5518
 11
14.8893
 21
10.5208
  0
LINE
  8
0
 10
14.8893
 20
10.5208
 11
14.7426
 21
10.4689
  0
LINE
  8
0
 10
14.7426
 20
10.4689
 11
14.6007
 21
10.3964
  0
LINE
  8
0
 10
14.6007
 20
10.3964
 11
14.4697
 21
10.3003
  0
LINE
  8
0
 10
14.4697
 20
10.3003
 11
14.3557
 21
10.1776
  0
LINE
  8
0
 10
14.3557
 20
10.1776
 11
14.2587
 21
10.0284
  0
LINE
  8
0
 10
14.2587
 20
10.0284
 11
14.1786
 21
9.85258
  0
LINE
  8
0
 10
14.1786
 20
9.85258
 11
14.116
 21
10.0272
  0
LINE
  8
0
 10
14.116
 20
10.0272
 11
14.043
 21
10.1759
  0
LINE
  8
0
 10
14.043
 20
10.1759
 11
13.9596
 21
10.2985
  0
LINE
  8
0
 10
13.9596
 20
10.2985
 11
13.8659
 21
10.3951
  0
LINE
  8
0
 10
13.8659
 20
10.3951
 11
13.7608
 21
10.4682
  0
LINE
  8
0
 10
13.7608
 20
10.4682
 11
13.6433
 21
10.5204
  0
LINE
  8
0
 10
13.6433
 20
10.5204
 11
13.5133
 21
10.5517
  0
LINE
  8
0
 10
13.5133
 20
10.5517
 11
13.3708
 21
10.5622
  0
LINE
  8
0
 10
13.3708
 20
10.5622
 11
13.2316
 21
10.5527
  0
LINE
  8
0
 10
13.2316
 20
10.5527
 11
13.097
 21
10.5242
  0
LINE
  8
0
 10
13.097
 20
10.5242
 11
12.9673
 21
10.4767
  0
LINE
  8
0
 10
12.9673
 20
10.4767
 11
12.8422
 21
10.4101
  0
LINE
  8
0
 10
12.8422
 20
10.4101
 11
12.7267
 21
10.322
  0
LINE
  8
0
 10
12.7267
 20
10.322
 11
12.6259
 21
10.2098
  0
LINE
  8
0
 10
12.6259
 20
10.2098
 11
12.5395
 21
10.0734
  0
LINE
  8
0
 10
12.5395
 20
10.0734
 11
12.4677
 21
9.91286
  0
LINE
  8
0
 10
12.4677
 20
9.91286
 11
12.4229
 21
10.5211
  0
LINE
  8
0
 10
12.4229
 20
10.5211
 11
11.5225
 21
10.5211
  0
LINE
  8
0
 10
11.5225
 20
10.5211
 11
11.5225
 21
7.45805
  0
LINE
  8
0
 10
11.5225
 20
7.45805
 11
12.5014
 21
7.45805
  0
LINE
  8
0
 10
12.5014
 20
7.45805
 11
12.5014
 21
9.27722
  0
LINE
  8
0
 10
23.2136
 20
9.12929
 11
23.2248
 21
9.25977
  0
LINE
  8
0
 10
23.2248
 20
9.25977
 11
23.2581
 21
9.37723
  0
LINE
  8
0
 10
23.2581
 20
9.37723
 11
23.3138
 21
9.48167
  0
LINE
  8
0
 10
23.3138
 20
9.48167
 11
23.3917
 21
9.5731
  0
LINE
  8
0
 10
23.3917
 20
9.5731
 11
23.4867
 21
9.64743
  0
LINE
  8
0
 10
23.4867
 20
9.64743
 11
23.5933
 21
9.70052
  0
LINE
  8
0
 10
23.5933
 20
9.70052
 11
23.7117
 21
9.73236
  0
LINE
  8
0
 10
23.7117
 20
9.73236
 11
23.8419
 21
9.74298
  0
LINE
  8
0
 10
23.8419
 20
9.74298
 11
23.8883
 21
9.7422
  0
LINE
  8
0
 10
23.8883
 20
9.7422
 11
23.9376
 21
9.7399
  0
LINE
  8
0
 10
23.9376
 20
9.7399
 11
23.9899
 21
9.73605
  0
LINE
  8
0
 10
23.9899
 20
9.73605
 11
24.0452
 21
9.73067
  0
LINE
  8
0
 10
24.0452
 20
9.73067
 11
24.0993
 21
9.72372
  0
LINE
  8
0
 10
24.0993
 20
9.72372
 11
24.1479
 21
9.71526
  0
LINE
  8
0
 10
24.1479
 20
9.71526
 11
24.1912
 21
9.70525
  0
LINE
  8
0
 10
24.1912
 20
9.70525
 11
24.229
 21
9.6937
  0
LINE
  8
0
 10
24.229
 20
9.6937
 11
24.229
 21
10.5266
  0
LINE
  8
0
 10
24.229
 20
10.5266
 11
24.1611
 21
10.5409
  0
LINE
  8
0
 10
24.1611
 20
10.5409
 11
24.0922
 21
10.5512
  0
LINE
  8
0
 10
24.0922
 20
10.5512
 11
24.0223
 21
10.5574
  0
LINE
  8
0
 10
24.0223
 20
10.5574
 11
23.9513
 21
10.5594
  0
LINE
  8
0
 10
23.9513
 20
10.5594
 11
23.8262
 21
10.5502
  0
LINE
  8
0
 10
23.8262
 20
10.5502
 11
23.709
 21
10.5225
  0
LINE
  8
0
 10
23.709
 20
10.5225
 11
23.5997
 21
10.4762
  0
LINE
  8
0
 10
23.5997
 20
10.4762
 11
23.4983
 21
10.4115
  0
LINE
  8
0
 10
23.4983
 20
10.4115
 11
23.4078
 21
10.3279
  0
LINE
  8
0
 10
23.4078
 20
10.3279
 11
23.3311
 21
10.2252
  0
LINE
  8
0
 10
23.3311
 20
10.2252
 11
23.2682
 21
10.1033
  0
LINE
  8
0
 10
23.2682
 20
10.1033
 11
23.2193
 21
9.96219
  0
LINE
  8
0
 10
23.2193
 20
9.96219
 11
23.1856
 21
9.96219
  0
LINE
  8
0
 10
23.1856
 20
9.96219
 11
23.1856
 21
10.5211
  0
LINE
  8
0
 10
23.1856
 20
10.5211
 11
22.2348
 21
10.5211
  0
LINE
  8
0
 10
22.2348
 20
10.5211
 11
22.2348
 21
7.45805
  0
LINE
  8
0
 10
22.2348
 20
7.45805
 11
23.2136
 21
7.45805
  0
LINE
  8
0
 10
23.2136
 20
7.45805
 11
23.2136
 21
9.12929
  0
LINE
  8
0
 10
32.662
 20
7.43359
 11
32.9134
 21
7.52451
  0
LINE
  8
0
 10
32.9134
 20
7.52451
 11
33.1164
 21
7.67604
  0
LINE
  8
0
 10
33.1164
 20
7.67604
 11
33.271
 21
7.88818
  0
LINE
  8
0
 10
33.271
 20
7.88818
 11
33.2963
 21
7.88818
  0
LINE
  8
0
 10
33.2963
 20
7.88818
 11
33.2963
 21
7.45805
  0
LINE
  8
0
 10
33.2963
 20
7.45805
 11
34.2162
 21
7.45805
  0
LINE
  8
0
 10
34.2162
 20
7.45805
 11
34.2162
 21
9.53751
  0
LINE
  8
0
 10
34.2162
 20
9.53751
 11
34.2046
 21
9.69565
  0
LINE
  8
0
 10
34.2046
 20
9.69565
 11
34.1696
 21
9.84126
  0
LINE
  8
0
 10
34.1696
 20
9.84126
 11
34.1113
 21
9.9744
  0
LINE
  8
0
 10
34.1113
 20
9.9744
 11
34.0297
 21
10.095
  0
LINE
  8
0
 10
34.0297
 20
10.095
 11
33.9284
 21
10.2025
  0
LINE
  8
0
 10
33.9284
 20
10.2025
 11
33.8109
 21
10.2961
  0
LINE
  8
0
 10
33.8109
 20
10.2961
 11
33.6774
 21
10.3758
  0
LINE
  8
0
 10
33.6774
 20
10.3758
 11
33.5276
 21
10.4416
  0
LINE
  8
0
 10
33.5276
 20
10.4416
 11
33.3652
 21
10.4931
  0
LINE
  8
0
 10
33.3652
 20
10.4931
 11
33.1935
 21
10.53
  0
LINE
  8
0
 10
33.1935
 20
10.53
 11
33.0126
 21
10.5521
  0
LINE
  8
0
 10
33.0126
 20
10.5521
 11
32.8223
 21
10.5594
  0
LINE
  8
0
 10
32.8223
 20
10.5594
 11
32.5421
 21
10.5441
  0
LINE
  8
0
 10
32.5421
 20
10.5441
 11
32.2904
 21
10.4981
  0
LINE
  8
0
 10
32.2904
 20
10.4981
 11
32.0674
 21
10.4215
  0
LINE
  8
0
 10
32.0674
 20
10.4215
 11
31.8728
 21
10.3142
  0
LINE
  8
0
 10
31.8728
 20
10.3142
 11
31.7094
 21
10.1825
  0
LINE
  8
0
 10
31.7094
 20
10.1825
 11
31.5794
 21
10.0324
  0
LINE
  8
0
 10
31.5794
 20
10.0324
 11
31.4829
 21
9.86398
  0
LINE
  8
0
 10
31.4829
 20
9.86398
 11
31.4199
 21
9.67725
  0
LINE
  8
0
 10
31.4199
 20
9.67725
 11
32.3062
 21
9.5649
  0
LINE
  8
0
 10
32.3062
 20
9.5649
 11
32.3316
 21
9.63373
  0
LINE
  8
0
 10
32.3316
 20
9.63373
 11
32.3686
 21
9.69502
  0
LINE
  8
0
 10
32.3686
 20
9.69502
 11
32.4172
 21
9.74878
  0
LINE
  8
0
 10
32.4172
 20
9.74878
 11
32.4773
 21
9.79501
  0
LINE
  8
0
 10
32.4773
 20
9.79501
 11
32.5478
 21
9.83218
  0
LINE
  8
0
 10
32.5478
 20
9.83218
 11
32.6273
 21
9.85873
  0
LINE
  8
0
 10
32.6273
 20
9.85873
 11
32.716
 21
9.87466
  0
LINE
  8
0
 10
32.716
 20
9.87466
 11
32.8138
 21
9.87997
  0
LINE
  8
0
 10
32.8138
 20
9.87997
 11
32.9081
 21
9.87459
  0
LINE
  8
0
 10
32.9081
 20
9.87459
 11
32.9916
 21
9.8584
  0
LINE
  8
0
 10
32.9916
 20
9.8584
 11
33.0644
 21
9.83144
  0
LINE
  8
0
 10
33.0644
 20
9.83144
 11
33.1266
 21
9.79369
  0
LINE
  8
0
 10
33.1266
 20
9.79369
 11
33.1763
 21
9.74599
  0
LINE
  8
0
 10
33.1763
 20
9.74599
 11
33.2118
 21
9.68922
  0
LINE
  8
0
 10
33.2118
 20
9.68922
 11
33.2331
 21
9.62338
  0
LINE
  8
0
 10
33.2331
 20
9.62338
 11
33.2402
 21
9.54846
  0
LINE
  8
0
 10
33.2402
 20
9.54846
 11
33.2402
 21
9.53751
  0
LINE
  8
0
 10
33.2402
 20
9.53751
 11
33.2294
 21
9.4722
  0
LINE
  8
0
 10
33.2294
 20
9.4722
 11
33.197
 21
9.41869
  0
LINE
  8
0
 10
33.197
 20
9.41869
 11
33.1431
 21
9.377
  0
LINE
  8
0
 10
33.1431
 20
9.377
 11
33.0677
 21
9.34711
  0
LINE
  8
0
 10
33.0677
 20
9.34711
 11
32.9673
 21
9.32408
  0
LINE
  8
0
 10
32.9673
 20
9.32408
 11
32.8387
 21
9.30293
  0
LINE
  8
0
 10
32.8387
 20
9.30293
 11
32.6819
 21
9.28366
  0
LINE
  8
0
 10
32.6819
 20
9.28366
 11
32.4969
 21
9.26628
  0
LINE
  8
0
 10
32.4969
 20
9.26628
 11
32.3417
 21
9.24831
  0
LINE
  8
0
 10
32.3417
 20
9.24831
 11
32.193
 21
9.22176
  0
LINE
  8
0
 10
32.193
 20
9.22176
 11
32.0507
 21
9.18665
  0
LINE
  8
0
 10
32.0507
 20
9.18665
 11
31.9149
 21
9.14297
  0
LINE
  8
0
 10
31.9149
 20
9.14297
 11
31.789
 21
9.08853
  0
LINE
  8
0
 10
31.789
 20
9.08853
 11
31.6762
 21
9.02107
  0
LINE
  8
0
 10
31.6762
 20
9.02107
 11
31.5765
 21
8.9406
  0
LINE
  8
0
 10
31.5765
 20
8.9406
 11
31.49
 21
8.84709
  0
LINE
  8
0
 10
31.49
 20
8.84709
 11
31.4201
 21
8.73837
  0
LINE
  8
0
 10
31.4201
 20
8.73837
 11
31.3701
 21
8.61218
  0
LINE
  8
0
 10
31.3701
 20
8.61218
 11
31.3401
 21
8.46851
  0
LINE
  8
0
 10
31.3401
 20
8.46851
 11
31.3302
 21
8.30737
  0
LINE
  8
0
 10
31.3302
 20
8.30737
 11
31.3483
 21
8.09436
  0
LINE
  8
0
 10
31.3483
 20
8.09436
 11
31.4027
 21
7.91013
  0
LINE
  8
0
 10
31.4027
 20
7.91013
 11
31.4934
 21
7.75465
  0
LINE
  8
0
 10
31.4934
 20
7.75465
 11
31.6204
 21
7.62794
  0
LINE
  8
0
 10
31.6204
 20
7.62794
 11
31.7757
 21
7.52965
  0
LINE
  8
0
 10
31.7757
 20
7.52965
 11
31.951
 21
7.45944
  0
LINE
  8
0
 10
31.951
 20
7.45944
 11
32.1466
 21
7.41733
  0
LINE
  8
0
 10
32.1466
 20
7.41733
 11
32.3623
 21
7.40329
  0
LINE
  8
0
 10
32.3623
 20
7.40329
 11
32.662
 21
7.43359
  0
LINE
  8
0
 10
32.5752
 20
8.04118
 11
32.4987
 21
8.05634
  0
LINE
  8
0
 10
32.4987
 20
8.05634
 11
32.4301
 21
8.0816
  0
LINE
  8
0
 10
32.4301
 20
8.0816
 11
32.3693
 21
8.11697
  0
LINE
  8
0
 10
32.3693
 20
8.11697
 11
32.3196
 21
8.16193
  0
LINE
  8
0
 10
32.3196
 20
8.16193
 11
32.2841
 21
8.21594
  0
LINE
  8
0
 10
32.2841
 20
8.21594
 11
32.2628
 21
8.27904
  0
LINE
  8
0
 10
32.2628
 20
8.27904
 11
32.2557
 21
8.3512
  0
LINE
  8
0
 10
32.2557
 20
8.3512
 11
32.284
 21
8.48596
  0
LINE
  8
0
 10
32.284
 20
8.48596
 11
32.3686
 21
8.59161
  0
LINE
  8
0
 10
32.3686
 20
8.59161
 11
32.5097
 21
8.66815
  0
LINE
  8
0
 10
32.5097
 20
8.66815
 11
32.7073
 21
8.71559
  0
LINE
  8
0
 10
32.7073
 20
8.71559
 11
32.7774
 21
8.72707
  0
LINE
  8
0
 10
32.7774
 20
8.72707
 11
32.8503
 21
8.73955
  0
LINE
  8
0
 10
32.8503
 20
8.73955
 11
32.926
 21
8.75308
  0
LINE
  8
0
 10
32.926
 20
8.75308
 11
33.0045
 21
8.76764
  0
LINE
  8
0
 10
33.0045
 20
8.76764
 11
33.0798
 21
8.78355
  0
LINE
  8
0
 10
33.0798
 20
8.78355
 11
33.1455
 21
8.80121
  0
LINE
  8
0
 10
33.1455
 20
8.80121
 11
33.2018
 21
8.82057
  0
LINE
  8
0
 10
33.2018
 20
8.82057
 11
33.2486
 21
8.84164
  0
LINE
  8
0
 10
33.2486
 20
8.84164
 11
33.2486
 21
8.54848
  0
LINE
  8
0
 10
33.2486
 20
8.54848
 11
33.2379
 21
8.44006
  0
LINE
  8
0
 10
33.2379
 20
8.44006
 11
33.2058
 21
8.34229
  0
LINE
  8
0
 10
33.2058
 20
8.34229
 11
33.1524
 21
8.25513
  0
LINE
  8
0
 10
33.1524
 20
8.25513
 11
33.0775
 21
8.17857
  0
LINE
  8
0
 10
33.0775
 20
8.17857
 11
32.9872
 21
8.11626
  0
LINE
  8
0
 10
32.9872
 20
8.11626
 11
32.8875
 21
8.07175
  0
LINE
  8
0
 10
32.8875
 20
8.07175
 11
32.7783
 21
8.04503
  0
LINE
  8
0
 10
32.7783
 20
8.04503
 11
32.6596
 21
8.03613
  0
LINE
  8
0
 10
32.6596
 20
8.03613
 11
32.5752
 21
8.04118
  0
LINE
  8
0
 10
48.7399
 20
7.41295
 11
48.9592
 21
7.45018
  0
LINE
  8
0
 10
48.9592
 20
7.45018
 11
49.1613
 21
7.51225
  0
LINE
  8
0
 10
49.1613
 20
7.51225
 11
49.3459
 21
7.59914
  0
LINE
  8
0
 10
49.3459
 20
7.59914
 11
49.5118
 21
7.70822
  0
LINE
  8
0
 10
49.5118
 20
7.70822
 11
49.6573
 21
7.83681
  0
LINE
  8
0
 10
49.6573
 20
7.83681
 11
49.7824
 21
7.98492
  0
LINE
  8
0
 10
49.7824
 20
7.98492
 11
49.8872
 21
8.15256
  0
LINE
  8
0
 10
49.8872
 20
8.15256
 11
49.9701
 21
8.33725
  0
LINE
  8
0
 10
49.9701
 20
8.33725
 11
50.0292
 21
8.53648
  0
LINE
  8
0
 10
50.0292
 20
8.53648
 11
50.0647
 21
8.75026
  0
LINE
  8
0
 10
50.0647
 20
8.75026
 11
50.0766
 21
8.97859
  0
LINE
  8
0
 10
50.0766
 20
8.97859
 11
50.0647
 21
9.20703
  0
LINE
  8
0
 10
50.0647
 20
9.20703
 11
50.0292
 21
9.42108
  0
LINE
  8
0
 10
50.0292
 20
9.42108
 11
49.9701
 21
9.62073
  0
LINE
  8
0
 10
49.9701
 20
9.62073
 11
49.8872
 21
9.806
  0
LINE
  8
0
 10
49.8872
 20
9.806
 11
49.7824
 21
9.97423
  0
LINE
  8
0
 10
49.7824
 20
9.97423
 11
49.6573
 21
10.1228
  0
LINE
  8
0
 10
49.6573
 20
10.1228
 11
49.5118
 21
10.2516
  0
LINE
  8
0
 10
49.5118
 20
10.2516
 11
49.3459
 21
10.3608
  0
LINE
  8
0
 10
49.3459
 20
10.3608
 11
49.1613
 21
10.4477
  0
LINE
  8
0
 10
49.1613
 20
10.4477
 11
48.9592
 21
10.5098
  0
LINE
  8
0
 10
48.9592
 20
10.5098
 11
48.7399
 21
10.547
  0
LINE
  8
0
 10
48.7399
 20
10.547
 11
48.5031
 21
10.5594
  0
LINE
  8
0
 10
48.5031
 20
10.5594
 11
48.2663
 21
10.547
  0
LINE
  8
0
 10
48.2663
 20
10.547
 11
48.0466
 21
10.5098
  0
LINE
  8
0
 10
48.0466
 20
10.5098
 11
47.8442
 21
10.4477
  0
LINE
  8
0
 10
47.8442
 20
10.4477
 11
47.6589
 21
10.3608
  0
LINE
  8
0
 10
47.6589
 20
10.3608
 11
47.4924
 21
10.2516
  0
LINE
  8
0
 10
47.4924
 20
10.2516
 11
47.3465
 21
10.1228
  0
LINE
  8
0
 10
47.3465
 20
10.1228
 11
47.2211
 21
9.97423
  0
LINE
  8
0
 10
47.2211
 20
9.97423
 11
47.1161
 21
9.806
  0
LINE
  8
0
 10
47.1161
 20
9.806
 11
47.0333
 21
9.62073
  0
LINE
  8
0
 10
47.0333
 20
9.62073
 11
46.9742
 21
9.42108
  0
LINE
  8
0
 10
46.9742
 20
9.42108
 11
46.9387
 21
9.20703
  0
LINE
  8
0
 10
46.9387
 20
9.20703
 11
46.9268
 21
8.97859
  0
LINE
  8
0
 10
46.9268
 20
8.97859
 11
46.9387
 21
8.75026
  0
LINE
  8
0
 10
46.9387
 20
8.75026
 11
46.9742
 21
8.53648
  0
LINE
  8
0
 10
46.9742
 20
8.53648
 11
47.0333
 21
8.33725
  0
LINE
  8
0
 10
47.0333
 20
8.33725
 11
47.1161
 21
8.15256
  0
LINE
  8
0
 10
47.1161
 20
8.15256
 11
47.2211
 21
7.98492
  0
LINE
  8
0
 10
47.2211
 20
7.98492
 11
47.3465
 21
7.83681
  0
LINE
  8
0
 10
47.3465
 20
7.83681
 11
47.4924
 21
7.70822
  0
LINE
  8
0
 10
47.4924
 20
7.70822
 11
47.6589
 21
7.59914
  0
LINE
  8
0
 10
47.6589
 20
7.59914
 11
47.8442
 21
7.51225
  0
LINE
  8
0
 10
47.8442
 20
7.51225
 11
48.0466
 21
7.45018
  0
LINE
  8
0
 10
48.0466
 20
7.45018
 11
48.2663
 21
7.41295
  0
LINE
  8
0
 10
48.2663
 20
7.41295
 11
48.5031
 21
7.40053
  0
LINE
  8
0
 10
48.5031
 20
7.40053
 11
48.7399
 21
7.41295
  0
LINE
  8
0
 10
48.3711
 20
8.14668
 11
48.2556
 21
8.1906
  0
LINE
  8
0
 10
48.2556
 20
8.1906
 11
48.1565
 21
8.26379
  0
LINE
  8
0
 10
48.1565
 20
8.26379
 11
48.074
 21
8.36627
  0
LINE
  8
0
 10
48.074
 20
8.36627
 11
48.009
 21
8.49274
  0
LINE
  8
0
 10
48.009
 20
8.49274
 11
47.9625
 21
8.63786
  0
LINE
  8
0
 10
47.9625
 20
8.63786
 11
47.9346
 21
8.80165
  0
LINE
  8
0
 10
47.9346
 20
8.80165
 11
47.9254
 21
8.98409
  0
LINE
  8
0
 10
47.9254
 20
8.98409
 11
47.9346
 21
9.16628
  0
LINE
  8
0
 10
47.9346
 20
9.16628
 11
47.9625
 21
9.32928
  0
LINE
  8
0
 10
47.9625
 20
9.32928
 11
48.009
 21
9.47313
  0
LINE
  8
0
 10
48.009
 20
9.47313
 11
48.074
 21
9.59779
  0
LINE
  8
0
 10
48.074
 20
9.59779
 11
48.1565
 21
9.69847
  0
LINE
  8
0
 10
48.1565
 20
9.69847
 11
48.2556
 21
9.7704
  0
LINE
  8
0
 10
48.2556
 20
9.7704
 11
48.3711
 21
9.81355
  0
LINE
  8
0
 10
48.3711
 20
9.81355
 11
48.5031
 21
9.82794
  0
LINE
  8
0
 10
48.5031
 20
9.82794
 11
48.6351
 21
9.81355
  0
LINE
  8
0
 10
48.6351
 20
9.81355
 11
48.7506
 21
9.7704
  0
LINE
  8
0
 10
48.7506
 20
9.7704
 11
48.8497
 21
9.69847
  0
LINE
  8
0
 10
48.8497
 20
9.69847
 11
48.9322
 21
9.59779
  0
LINE
  8
0
 10
48.9322
 20
9.59779
 11
48.9973
 21
9.47313
  0
LINE
  8
0
 10
48.9973
 20
9.47313
 11
49.0437
 21
9.32928
  0
LINE
  8
0
 10
49.0437
 20
9.32928
 11
49.0716
 21
9.16628
  0
LINE
  8
0
 10
49.0716
 20
9.16628
 11
49.0809
 21
8.98409
  0
LINE
  8
0
 10
49.0809
 20
8.98409
 11
49.0716
 21
8.80165
  0
LINE
  8
0
 10
49.0716
 20
8.80165
 11
49.0437
 21
8.63786
  0
LINE
  8
0
 10
49.0437
 20
8.63786
 11
48.9973
 21
8.49274
  0
LINE
  8
0
 10
48.9973
 20
8.49274
 11
48.9322
 21
8.36627
  0
LINE
  8
0
 10
48.9322
 20
8.36627
 11
48.8497
 21
8.26379
  0
LINE
  8
0
 10
48.8497
 20
8.26379
 11
48.7506
 21
8.1906
  0
LINE
  8
0
 10
48.7506
 20
8.1906
 11
48.6351
 21
8.14668
  0
LINE
  8
0
 10
48.6351
 20
8.14668
 11
48.5031
 21
8.13203
  0
LINE
  8
0
 10
48.5031
 20
8.13203
 11
48.3711
 21
8.14668
  0
LINE
  8
0
 10
45.4533
 20
7.41911
 11
45.7147
 21
7.47485
  0
LINE
  8
0
 10
45.7147
 20
7.47485
 11
45.9483
 21
7.56775
  0
LINE
  8
0
 10
45.9483
 20
7.56775
 11
46.1543
 21
7.69778
  0
LINE
  8
0
 10
46.1543
 20
7.69778
 11
46.327
 21
7.86003
  0
LINE
  8
0
 10
46.327
 20
7.86003
 11
46.4607
 21
8.0495
  0
LINE
  8
0
 10
46.4607
 20
8.0495
 11
46.5556
 21
8.2662
  0
LINE
  8
0
 10
46.5556
 20
8.2662
 11
46.6115
 21
8.51013
  0
LINE
  8
0
 10
46.6115
 20
8.51013
 11
45.7084
 21
8.65257
  0
LINE
  8
0
 10
45.7084
 20
8.65257
 11
45.6802
 21
8.53615
  0
LINE
  8
0
 10
45.6802
 20
8.53615
 11
45.6407
 21
8.43341
  0
LINE
  8
0
 10
45.6407
 20
8.43341
 11
45.5898
 21
8.34438
  0
LINE
  8
0
 10
45.5898
 20
8.34438
 11
45.5275
 21
8.26903
  0
LINE
  8
0
 10
45.5275
 20
8.26903
 11
45.4545
 21
8.20909
  0
LINE
  8
0
 10
45.4545
 20
8.20909
 11
45.3714
 21
8.16629
  0
LINE
  8
0
 10
45.3714
 20
8.16629
 11
45.2785
 21
8.14059
  0
LINE
  8
0
 10
45.2785
 20
8.14059
 11
45.1755
 21
8.13203
  0
LINE
  8
0
 10
45.1755
 20
8.13203
 11
45.0431
 21
8.14633
  0
LINE
  8
0
 10
45.0431
 20
8.14633
 11
44.9265
 21
8.18922
  0
LINE
  8
0
 10
44.9265
 20
8.18922
 11
44.8257
 21
8.2607
  0
LINE
  8
0
 10
44.8257
 20
8.2607
 11
44.7407
 21
8.36078
  0
LINE
  8
0
 10
44.7407
 20
8.36078
 11
44.6732
 21
8.48552
  0
LINE
  8
0
 10
44.6732
 20
8.48552
 11
44.625
 21
8.631
  0
LINE
  8
0
 10
44.625
 20
8.631
 11
44.5961
 21
8.79718
  0
LINE
  8
0
 10
44.5961
 20
8.79718
 11
44.5865
 21
8.98409
  0
LINE
  8
0
 10
44.5865
 20
8.98409
 11
44.5961
 21
9.17183
  0
LINE
  8
0
 10
44.5961
 20
9.17183
 11
44.625
 21
9.33784
  0
LINE
  8
0
 10
44.625
 20
9.33784
 11
44.6732
 21
9.4821
  0
LINE
  8
0
 10
44.6732
 20
9.4821
 11
44.7407
 21
9.60461
  0
LINE
  8
0
 10
44.7407
 20
9.60461
 11
44.8257
 21
9.70232
  0
LINE
  8
0
 10
44.8257
 20
9.70232
 11
44.9265
 21
9.77211
  0
LINE
  8
0
 10
44.9265
 20
9.77211
 11
45.0431
 21
9.81398
  0
LINE
  8
0
 10
45.0431
 20
9.81398
 11
45.1755
 21
9.82794
  0
LINE
  8
0
 10
45.1755
 20
9.82794
 11
45.2783
 21
9.81972
  0
LINE
  8
0
 10
45.2783
 20
9.81972
 11
45.3707
 21
9.79506
  0
LINE
  8
0
 10
45.3707
 20
9.79506
 11
45.4529
 21
9.75395
  0
LINE
  8
0
 10
45.4529
 20
9.75395
 11
45.5246
 21
9.6964
  0
LINE
  8
0
 10
45.5246
 20
9.6964
 11
45.5859
 21
9.62381
  0
LINE
  8
0
 10
45.5859
 20
9.62381
 11
45.6365
 21
9.53751
  0
LINE
  8
0
 10
45.6365
 20
9.53751
 11
45.6764
 21
9.4375
  0
LINE
  8
0
 10
45.6764
 20
9.4375
 11
45.7056
 21
9.32381
  0
LINE
  8
0
 10
45.7056
 20
9.32381
 11
46.6087
 21
9.47174
  0
LINE
  8
0
 10
46.6087
 20
9.47174
 11
46.5527
 21
9.70941
  0
LINE
  8
0
 10
46.5527
 20
9.70941
 11
46.4576
 21
9.92107
  0
LINE
  8
0
 10
46.4576
 20
9.92107
 11
46.3234
 21
10.1067
  0
LINE
  8
0
 10
46.3234
 20
10.1067
 11
46.1501
 21
10.2663
  0
LINE
  8
0
 10
46.1501
 20
10.2663
 11
45.9439
 21
10.3945
  0
LINE
  8
0
 10
45.9439
 20
10.3945
 11
45.7108
 21
10.4861
  0
LINE
  8
0
 10
45.7108
 20
10.4861
 11
45.451
 21
10.5411
  0
LINE
  8
0
 10
45.451
 20
10.5411
 11
45.1643
 21
10.5594
  0
LINE
  8
0
 10
45.1643
 20
10.5594
 11
44.9274
 21
10.547
  0
LINE
  8
0
 10
44.9274
 20
10.547
 11
44.7078
 21
10.5098
  0
LINE
  8
0
 10
44.7078
 20
10.5098
 11
44.5053
 21
10.4477
  0
LINE
  8
0
 10
44.5053
 20
10.4477
 11
44.32
 21
10.3608
  0
LINE
  8
0
 10
44.32
 20
10.3608
 11
44.1536
 21
10.2516
  0
LINE
  8
0
 10
44.1536
 20
10.2516
 11
44.0076
 21
10.1228
  0
LINE
  8
0
 10
44.0076
 20
10.1228
 11
43.8822
 21
9.97423
  0
LINE
  8
0
 10
43.8822
 20
9.97423
 11
43.7773
 21
9.806
  0
LINE
  8
0
 10
43.7773
 20
9.806
 11
43.6945
 21
9.62073
  0
LINE
  8
0
 10
43.6945
 20
9.62073
 11
43.6353
 21
9.42108
  0
LINE
  8
0
 10
43.6353
 20
9.42108
 11
43.5998
 21
9.20703
  0
LINE
  8
0
 10
43.5998
 20
9.20703
 11
43.588
 21
8.97859
  0
LINE
  8
0
 10
43.588
 20
8.97859
 11
43.5998
 21
8.75026
  0
LINE
  8
0
 10
43.5998
 20
8.75026
 11
43.6353
 21
8.53648
  0
LINE
  8
0
 10
43.6353
 20
8.53648
 11
43.6945
 21
8.33725
  0
LINE
  8
0
 10
43.6945
 20
8.33725
 11
43.7773
 21
8.15256
  0
LINE
  8
0
 10
43.7773
 20
8.15256
 11
43.8822
 21
7.98492
  0
LINE
  8
0
 10
43.8822
 20
7.98492
 11
44.0076
 21
7.83681
  0
LINE
  8
0
 10
44.0076
 20
7.83681
 11
44.1536
 21
7.70822
  0
LINE
  8
0
 10
44.1536
 20
7.70822
 11
44.32
 21
7.59914
  0
LINE
  8
0
 10
44.32
 20
7.59914
 11
44.5053
 21
7.51225
  0
LINE
  8
0
 10
44.5053
 20
7.51225
 11
44.7078
 21
7.45018
  0
LINE
  8
0
 10
44.7078
 20
7.45018
 11
44.9274
 21
7.41295
  0
LINE
  8
0
 10
44.9274
 20
7.41295
 11
45.1643
 21
7.40053
  0
LINE
  8
0
 10
45.1643
 20
7.40053
 11
45.4533
 21
7.41911
  0
LINE
  8
0
 10
40.0956
 20
7.41527
 11
40.3432
 21
7.45944
  0
LINE
  8
0
 10
40.3432
 20
7.45944
 11
40.5661
 21
7.53307
  0
LINE
  8
0
 10
40.5661
 20
7.53307
 11
40.7643
 21
7.63614
  0
LINE
  8
0
 10
40.7643
 20
7.63614
 11
40.9342
 21
7.76405
  0
LINE
  8
0
 10
40.9342
 20
7.76405
 11
41.0725
 21
7.91217
  0
LINE
  8
0
 10
41.0725
 20
7.91217
 11
41.179
 21
8.08049
  0
LINE
  8
0
 10
41.179
 20
8.08049
 11
41.2537
 21
8.26903
  0
LINE
  8
0
 10
41.2537
 20
8.26903
 11
40.3814
 21
8.40874
  0
LINE
  8
0
 10
40.3814
 20
8.40874
 11
40.3467
 21
8.33656
  0
LINE
  8
0
 10
40.3467
 20
8.33656
 11
40.3015
 21
8.27347
  0
LINE
  8
0
 10
40.3015
 20
8.27347
 11
40.2458
 21
8.21945
  0
LINE
  8
0
 10
40.2458
 20
8.21945
 11
40.1795
 21
8.1745
  0
LINE
  8
0
 10
40.1795
 20
8.1745
 11
40.1047
 21
8.13914
  0
LINE
  8
0
 10
40.1047
 20
8.13914
 11
40.0231
 21
8.11389
  0
LINE
  8
0
 10
40.0231
 20
8.11389
 11
39.935
 21
8.09875
  0
LINE
  8
0
 10
39.935
 20
8.09875
 11
39.8401
 21
8.0937
  0
LINE
  8
0
 10
39.8401
 20
8.0937
 11
39.7079
 21
8.10405
  0
LINE
  8
0
 10
39.7079
 20
8.10405
 11
39.5888
 21
8.13513
  0
LINE
  8
0
 10
39.5888
 20
8.13513
 11
39.4828
 21
8.1869
  0
LINE
  8
0
 10
39.4828
 20
8.1869
 11
39.39
 21
8.25941
  0
LINE
  8
0
 10
39.39
 20
8.25941
 11
39.3136
 21
8.35265
  0
LINE
  8
0
 10
39.3136
 20
8.35265
 11
39.2571
 21
8.46661
  0
LINE
  8
0
 10
39.2571
 20
8.46661
 11
39.2204
 21
8.60129
  0
LINE
  8
0
 10
39.2204
 20
8.60129
 11
39.2035
 21
8.75668
  0
LINE
  8
0
 10
39.2035
 20
8.75668
 11
41.2986
 21
8.75668
  0
LINE
  8
0
 10
41.2986
 20
8.75668
 11
41.2986
 21
8.99779
  0
LINE
  8
0
 10
41.2986
 20
8.99779
 11
41.2864
 21
9.24016
  0
LINE
  8
0
 10
41.2864
 20
9.24016
 11
41.2499
 21
9.4632
  0
LINE
  8
0
 10
41.2499
 20
9.4632
 11
41.1889
 21
9.66687
  0
LINE
  8
0
 10
41.1889
 20
9.66687
 11
41.1037
 21
9.85121
  0
LINE
  8
0
 10
41.1037
 20
9.85121
 11
40.9971
 21
10.0153
  0
LINE
  8
0
 10
40.9971
 20
10.0153
 11
40.8723
 21
10.1581
  0
LINE
  8
0
 10
40.8723
 20
10.1581
 11
40.7292
 21
10.2796
  0
LINE
  8
0
 10
40.7292
 20
10.2796
 11
40.568
 21
10.38
  0
LINE
  8
0
 10
40.568
 20
10.38
 11
40.3914
 21
10.4585
  0
LINE
  8
0
 10
40.3914
 20
10.4585
 11
40.2023
 21
10.5146
  0
LINE
  8
0
 10
40.2023
 20
10.5146
 11
40.0008
 21
10.5482
  0
LINE
  8
0
 10
40.0008
 20
10.5482
 11
39.7868
 21
10.5594
  0
LINE
  8
0
 10
39.7868
 20
10.5594
 11
39.559
 21
10.547
  0
LINE
  8
0
 10
39.559
 20
10.547
 11
39.3465
 21
10.5098
  0
LINE
  8
0
 10
39.3465
 20
10.5098
 11
39.1495
 21
10.4477
  0
LINE
  8
0
 10
39.1495
 20
10.4477
 11
38.9678
 21
10.3608
  0
LINE
  8
0
 10
38.9678
 20
10.3608
 11
38.8039
 21
10.2516
  0
LINE
  8
0
 10
38.8039
 20
10.2516
 11
38.6597
 21
10.1228
  0
LINE
  8
0
 10
38.6597
 20
10.1228
 11
38.5353
 21
9.97423
  0
LINE
  8
0
 10
38.5353
 20
9.97423
 11
38.4307
 21
9.806
  0
LINE
  8
0
 10
38.4307
 20
9.806
 11
38.3479
 21
9.62073
  0
LINE
  8
0
 10
38.3479
 20
9.62073
 11
38.2888
 21
9.42108
  0
LINE
  8
0
 10
38.2888
 20
9.42108
 11
38.2533
 21
9.20703
  0
LINE
  8
0
 10
38.2533
 20
9.20703
 11
38.2414
 21
8.97859
  0
LINE
  8
0
 10
38.2414
 20
8.97859
 11
38.2678
 21
8.62988
  0
LINE
  8
0
 10
38.2678
 20
8.62988
 11
38.347
 21
8.32074
  0
LINE
  8
0
 10
38.347
 20
8.32074
 11
38.4789
 21
8.05113
  0
LINE
  8
0
 10
38.4789
 20
8.05113
 11
38.6635
 21
7.82109
  0
LINE
  8
0
 10
38.6635
 20
7.82109
 11
38.8943
 21
7.6371
  0
LINE
  8
0
 10
38.8943
 20
7.6371
 11
39.1646
 21
7.50568
  0
LINE
  8
0
 10
39.1646
 20
7.50568
 11
39.4742
 21
7.42682
  0
LINE
  8
0
 10
39.4742
 20
7.42682
 11
39.8233
 21
7.40053
  0
LINE
  8
0
 10
39.8233
 20
7.40053
 11
40.0956
 21
7.41527
  0
LINE
  8
0
 10
39.2091
 20
9.31285
 11
39.2307
 21
9.43365
  0
LINE
  8
0
 10
39.2307
 20
9.43365
 11
39.2676
 21
9.54128
  0
LINE
  8
0
 10
39.2676
 20
9.54128
 11
39.3198
 21
9.63571
  0
LINE
  8
0
 10
39.3198
 20
9.63571
 11
39.3872
 21
9.71696
  0
LINE
  8
0
 10
39.3872
 20
9.71696
 11
39.4689
 21
9.78229
  0
LINE
  8
0
 10
39.4689
 20
9.78229
 11
39.5642
 21
9.82895
  0
LINE
  8
0
 10
39.5642
 20
9.82895
 11
39.673
 21
9.85695
  0
LINE
  8
0
 10
39.673
 20
9.85695
 11
39.7952
 21
9.86627
  0
LINE
  8
0
 10
39.7952
 20
9.86627
 11
39.916
 21
9.85712
  0
LINE
  8
0
 10
39.916
 20
9.85712
 11
40.0231
 21
9.82964
  0
LINE
  8
0
 10
40.0231
 20
9.82964
 11
40.1166
 21
9.78383
  0
LINE
  8
0
 10
40.1166
 20
9.78383
 11
40.1963
 21
9.71971
  0
LINE
  8
0
 10
40.1963
 20
9.71971
 11
40.2619
 21
9.63931
  0
LINE
  8
0
 10
40.2619
 20
9.63931
 11
40.3127
 21
9.54471
  0
LINE
  8
0
 10
40.3127
 20
9.54471
 11
40.3489
 21
9.4359
  0
LINE
  8
0
 10
40.3489
 20
9.4359
 11
40.3702
 21
9.31285
  0
LINE
  8
0
 10
40.3702
 20
9.31285
 11
39.2091
 21
9.31285
  0
LINE
  8
0
 10
18.4575
 20
7.41527
 11
18.7051
 21
7.45944
  0
LINE
  8
0
 10
18.7051
 20
7.45944
 11
18.928
 21
7.53307
  0
LINE
  8
0
 10
18.928
 20
7.53307
 11
19.1261
 21
7.63614
  0
LINE
  8
0
 10
19.1261
 20
7.63614
 11
19.2961
 21
7.76405
  0
LINE
  8
0
 10
19.2961
 20
7.76405
 11
19.4343
 21
7.91217
  0
LINE
  8
0
 10
19.4343
 20
7.91217
 11
19.5408
 21
8.08049
  0
LINE
  8
0
 10
19.5408
 20
8.08049
 11
19.6156
 21
8.26903
  0
LINE
  8
0
 10
19.6156
 20
8.26903
 11
18.7433
 21
8.40874
  0
LINE
  8
0
 10
18.7433
 20
8.40874
 11
18.7086
 21
8.33656
  0
LINE
  8
0
 10
18.7086
 20
8.33656
 11
18.6634
 21
8.27347
  0
LINE
  8
0
 10
18.6634
 20
8.27347
 11
18.6076
 21
8.21945
  0
LINE
  8
0
 10
18.6076
 20
8.21945
 11
18.5414
 21
8.1745
  0
LINE
  8
0
 10
18.5414
 20
8.1745
 11
18.4665
 21
8.13914
  0
LINE
  8
0
 10
18.4665
 20
8.13914
 11
18.385
 21
8.11389
  0
LINE
  8
0
 10
18.385
 20
8.11389
 11
18.2968
 21
8.09875
  0
LINE
  8
0
 10
18.2968
 20
8.09875
 11
18.202
 21
8.0937
  0
LINE
  8
0
 10
18.202
 20
8.0937
 11
18.0697
 21
8.10405
  0
LINE
  8
0
 10
18.0697
 20
8.10405
 11
17.9506
 21
8.13513
  0
LINE
  8
0
 10
17.9506
 20
8.13513
 11
17.8447
 21
8.1869
  0
LINE
  8
0
 10
17.8447
 20
8.1869
 11
17.7518
 21
8.25941
  0
LINE
  8
0
 10
17.7518
 20
8.25941
 11
17.6755
 21
8.35265
  0
LINE
  8
0
 10
17.6755
 20
8.35265
 11
17.619
 21
8.46661
  0
LINE
  8
0
 10
17.619
 20
8.46661
 11
17.5822
 21
8.60129
  0
LINE
  8
0
 10
17.5822
 20
8.60129
 11
17.5653
 21
8.75668
  0
LINE
  8
0
 10
17.5653
 20
8.75668
 11
19.6604
 21
8.75668
  0
LINE
  8
0
 10
19.6604
 20
8.75668
 11
19.6604
 21
8.99779
  0
LINE
  8
0
 10
19.6604
 20
8.99779
 11
19.6483
 21
9.24016
  0
LINE
  8
0
 10
19.6483
 20
9.24016
 11
19.6117
 21
9.4632
  0
LINE
  8
0
 10
19.6117
 20
9.4632
 11
19.5508
 21
9.66687
  0
LINE
  8
0
 10
19.5508
 20
9.66687
 11
19.4655
 21
9.85121
  0
LINE
  8
0
 10
19.4655
 20
9.85121
 11
19.3589
 21
10.0153
  0
LINE
  8
0
 10
19.3589
 20
10.0153
 11
19.2341
 21
10.1581
  0
LINE
  8
0
 10
19.2341
 20
10.1581
 11
19.0911
 21
10.2796
  0
LINE
  8
0
 10
19.0911
 20
10.2796
 11
18.9298
 21
10.38
  0
LINE
  8
0
 10
18.9298
 20
10.38
 11
18.7532
 21
10.4585
  0
LINE
  8
0
 10
18.7532
 20
10.4585
 11
18.5641
 21
10.5146
  0
LINE
  8
0
 10
18.5641
 20
10.5146
 11
18.3626
 21
10.5482
  0
LINE
  8
0
 10
18.3626
 20
10.5482
 11
18.1487
 21
10.5594
  0
LINE
  8
0
 10
18.1487
 20
10.5594
 11
17.9208
 21
10.547
  0
LINE
  8
0
 10
17.9208
 20
10.547
 11
17.7084
 21
10.5098
  0
LINE
  8
0
 10
17.7084
 20
10.5098
 11
17.5113
 21
10.4477
  0
LINE
  8
0
 10
17.5113
 20
10.4477
 11
17.3297
 21
10.3608
  0
LINE
  8
0
 10
17.3297
 20
10.3608
 11
17.1657
 21
10.2516
  0
LINE
  8
0
 10
17.1657
 20
10.2516
 11
17.0215
 21
10.1228
  0
LINE
  8
0
 10
17.0215
 20
10.1228
 11
16.8972
 21
9.97423
  0
LINE
  8
0
 10
16.8972
 20
9.97423
 11
16.7926
 21
9.806
  0
LINE
  8
0
 10
16.7926
 20
9.806
 11
16.7098
 21
9.62073
  0
LINE
  8
0
 10
16.7098
 20
9.62073
 11
16.6506
 21
9.42108
  0
LINE
  8
0
 10
16.6506
 20
9.42108
 11
16.6151
 21
9.20703
  0
LINE
  8
0
 10
16.6151
 20
9.20703
 11
16.6033
 21
8.97859
  0
LINE
  8
0
 10
16.6033
 20
8.97859
 11
16.6297
 21
8.62988
  0
LINE
  8
0
 10
16.6297
 20
8.62988
 11
16.7088
 21
8.32074
  0
LINE
  8
0
 10
16.7088
 20
8.32074
 11
16.8407
 21
8.05113
  0
LINE
  8
0
 10
16.8407
 20
8.05113
 11
17.0254
 21
7.82109
  0
LINE
  8
0
 10
17.0254
 20
7.82109
 11
17.2562
 21
7.6371
  0
LINE
  8
0
 10
17.2562
 20
7.6371
 11
17.5264
 21
7.50568
  0
LINE
  8
0
 10
17.5264
 20
7.50568
 11
17.8361
 21
7.42682
  0
LINE
  8
0
 10
17.8361
 20
7.42682
 11
18.1852
 21
7.40053
  0
LINE
  8
0
 10
18.1852
 20
7.40053
 11
18.4575
 21
7.41527
  0
LINE
  8
0
 10
17.5709
 20
9.31285
 11
17.5926
 21
9.43365
  0
LINE
  8
0
 10
17.5926
 20
9.43365
 11
17.6295
 21
9.54128
  0
LINE
  8
0
 10
17.6295
 20
9.54128
 11
17.6816
 21
9.63571
  0
LINE
  8
0
 10
17.6816
 20
9.63571
 11
17.749
 21
9.71696
  0
LINE
  8
0
 10
17.749
 20
9.71696
 11
17.8308
 21
9.78229
  0
LINE
  8
0
 10
17.8308
 20
9.78229
 11
17.9261
 21
9.82895
  0
LINE
  8
0
 10
17.9261
 20
9.82895
 11
18.0348
 21
9.85695
  0
LINE
  8
0
 10
18.0348
 20
9.85695
 11
18.1571
 21
9.86627
  0
LINE
  8
0
 10
18.1571
 20
9.86627
 11
18.2779
 21
9.85712
  0
LINE
  8
0
 10
18.2779
 20
9.85712
 11
18.385
 21
9.82964
  0
LINE
  8
0
 10
18.385
 20
9.82964
 11
18.4784
 21
9.78383
  0
LINE
  8
0
 10
18.4784
 20
9.78383
 11
18.5582
 21
9.71971
  0
LINE
  8
0
 10
18.5582
 20
9.71971
 11
18.6237
 21
9.63931
  0
LINE
  8
0
 10
18.6237
 20
9.63931
 11
18.6746
 21
9.54471
  0
LINE
  8
0
 10
18.6746
 20
9.54471
 11
18.7107
 21
9.4359
  0
LINE
  8
0
 10
18.7107
 20
9.4359
 11
18.7321
 21
9.31285
  0
LINE
  8
0
 10
18.7321
 20
9.31285
 11
17.5709
 21
9.31285
  0
LINE
  8
0
 10
25.5829
 20
10.5211
 11
24.604
 21
10.5211
  0
LINE
  8
0
 10
24.604
 20
10.5211
 11
24.604
 21
7.45805
  0
LINE
  8
0
 10
24.604
 20
7.45805
 11
25.5829
 21
7.45805
  0
LINE
  8
0
 10
25.5829
 20
7.45805
 11
25.5829
 21
10.5211
  0
LINE
  8
0
 10
9.42647
 20
1.4286
 11
9.48474
 21
1.49341
  0
LINE
  8
0
 10
9.48474
 20
1.49341
 11
9.53957
 21
1.55925
  0
LINE
  8
0
 10
9.53957
 20
1.55925
 11
9.59096
 21
1.62634
  0
LINE
  8
0
 10
9.59096
 20
1.62634
 11
9.63896
 21
1.69484
  0
LINE
  8
0
 10
9.63896
 20
1.69484
 11
9.68361
 21
1.76494
  0
LINE
  8
0
 10
9.68361
 20
1.76494
 11
9.72495
 21
1.83679
  0
LINE
  8
0
 10
9.72495
 20
1.83679
 11
9.763
 21
1.91058
  0
LINE
  8
0
 10
9.763
 20
1.91058
 11
9.79781
 21
1.9865
  0
LINE
  8
0
 10
9.79781
 20
1.9865
 11
9.82941
 21
2.0647
  0
LINE
  8
0
 10
9.82941
 20
2.0647
 11
9.85782
 21
2.14537
  0
LINE
  8
0
 10
9.85782
 20
2.14537
 11
9.8831
 21
2.2287
  0
LINE
  8
0
 10
9.8831
 20
2.2287
 11
9.90527
 21
2.31485
  0
LINE
  8
0
 10
9.90527
 20
2.31485
 11
9.92436
 21
2.40399
  0
LINE
  8
0
 10
9.92436
 20
2.40399
 11
9.94043
 21
2.49632
  0
LINE
  8
0
 10
9.94043
 20
2.49632
 11
9.95349
 21
2.592
  0
LINE
  8
0
 10
9.95349
 20
2.592
 11
9.96359
 21
2.69119
  0
LINE
  8
0
 10
9.96359
 20
2.69119
 11
9.97076
 21
2.79411
  0
LINE
  8
0
 10
9.97076
 20
2.79411
 11
9.97505
 21
2.90091
  0
LINE
  8
0
 10
9.97505
 20
2.90091
 11
9.97646
 21
3.01176
  0
LINE
  8
0
 10
9.97646
 20
3.01176
 11
9.97646
 21
10.3059
  0
LINE
  8
0
 10
9.97646
 20
10.3059
 11
7.01176
 21
8.70587
  0
LINE
  8
0
 10
7.01176
 20
8.70587
 11
7.01176
 21
2.91763
  0
LINE
  8
0
 10
7.01176
 20
2.91763
 11
9.3647
 21
1.3647
  0
LINE
  8
0
 10
9.3647
 20
1.3647
 11
9.42647
 21
1.4286
  0
LINE
  8
0
 10
42.5287
 20
7.4097
 11
42.6275
 21
7.43718
  0
LINE
  8
0
 10
42.6275
 20
7.43718
 11
42.7173
 21
7.48297
  0
LINE
  8
0
 10
42.7173
 20
7.48297
 11
42.7982
 21
7.5471
  0
LINE
  8
0
 10
42.7982
 20
7.5471
 11
42.8651
 21
7.62476
  0
LINE
  8
0
 10
42.8651
 20
7.62476
 11
42.9129
 21
7.71114
  0
LINE
  8
0
 10
42.9129
 20
7.71114
 11
42.9415
 21
7.80627
  0
LINE
  8
0
 10
42.9415
 20
7.80627
 11
42.9511
 21
7.91013
  0
LINE
  8
0
 10
42.9511
 20
7.91013
 11
42.9415
 21
8.01517
  0
LINE
  8
0
 10
42.9415
 20
8.01517
 11
42.9129
 21
8.11115
  0
LINE
  8
0
 10
42.9129
 20
8.11115
 11
42.8651
 21
8.19804
  0
LINE
  8
0
 10
42.8651
 20
8.19804
 11
42.7982
 21
8.27586
  0
LINE
  8
0
 10
42.7982
 20
8.27586
 11
42.7173
 21
8.34
  0
LINE
  8
0
 10
42.7173
 20
8.34
 11
42.6275
 21
8.38582
  0
LINE
  8
0
 10
42.6275
 20
8.38582
 11
42.5287
 21
8.4133
  0
LINE
  8
0
 10
42.5287
 20
8.4133
 11
42.421
 21
8.42247
  0
LINE
  8
0
 10
42.421
 20
8.42247
 11
42.3133
 21
8.4133
  0
LINE
  8
0
 10
42.3133
 20
8.4133
 11
42.2145
 21
8.38582
  0
LINE
  8
0
 10
42.2145
 20
8.38582
 11
42.1247
 21
8.34
  0
LINE
  8
0
 10
42.1247
 20
8.34
 11
42.0438
 21
8.27586
  0
LINE
  8
0
 10
42.0438
 20
8.27586
 11
41.9769
 21
8.19804
  0
LINE
  8
0
 10
41.9769
 20
8.19804
 11
41.9291
 21
8.11115
  0
LINE
  8
0
 10
41.9291
 20
8.11115
 11
41.9005
 21
8.01517
  0
LINE
  8
0
 10
41.9005
 20
8.01517
 11
41.8909
 21
7.91013
  0
LINE
  8
0
 10
41.8909
 20
7.91013
 11
41.9005
 21
7.80627
  0
LINE
  8
0
 10
41.9005
 20
7.80627
 11
41.9291
 21
7.71114
  0
LINE
  8
0
 10
41.9291
 20
7.71114
 11
41.9769
 21
7.62476
  0
LINE
  8
0
 10
41.9769
 20
7.62476
 11
42.0438
 21
7.5471
  0
LINE
  8
0
 10
42.0438
 20
7.5471
 11
42.1247
 21
7.48297
  0
LINE
  8
0
 10
42.1247
 20
7.48297
 11
42.2145
 21
7.43718
  0
LINE
  8
0
 10
42.2145
 20
7.43718
 11
42.3133
 21
7.4097
  0
LINE
  8
0
 10
42.3133
 20
7.4097
 11
42.421
 21
7.40053
  0
LINE
  8
0
 10
42.421
 20
7.40053
 11
42.5287
 21
7.4097
  0
LINE
  8
0
 10
75.4417
 20
1.81268
 11
75.5031
 21
1.81525
  0
LINE
  8
0
 10
75.5031
 20
1.81525
 11
75.5663
 21
1.81952
  0
LINE
  8
0
 10
75.5663
 20
1.81952
 11
75.6313
 21
1.82549
  0
LINE
  8
0
 10
75.6313
 20
1.82549
 11
75.6978
 21
1.83389
  0
LINE
  8
0
 10
75.6978
 20
1.83389
 11
75.7655
 21
1.84543
  0
LINE
  8
0
 10
75.7655
 20
1.84543
 11
75.8344
 21
1.86008
  0
LINE
  8
0
 10
75.8344
 20
1.86008
 11
75.9045
 21
1.87787
  0
LINE
  8
0
 10
75.9045
 20
1.87787
 11
75.7967
 21
2.45622
  0
LINE
  8
0
 10
75.7967
 20
2.45622
 11
75.7771
 21
2.45261
  0
LINE
  8
0
 10
75.7771
 20
2.45261
 11
75.7521
 21
2.44855
  0
LINE
  8
0
 10
75.7521
 20
2.44855
 11
75.7214
 21
2.44406
  0
LINE
  8
0
 10
75.7214
 20
2.44406
 11
75.6853
 21
2.43913
  0
LINE
  8
0
 10
75.6853
 20
2.43913
 11
75.6485
 21
2.43465
  0
LINE
  8
0
 10
75.6485
 20
2.43465
 11
75.6161
 21
2.43146
  0
LINE
  8
0
 10
75.6161
 20
2.43146
 11
75.588
 21
2.42953
  0
LINE
  8
0
 10
75.588
 20
2.42953
 11
75.5642
 21
2.42889
  0
LINE
  8
0
 10
75.5642
 20
2.42889
 11
75.4709
 21
2.44127
  0
LINE
  8
0
 10
75.4709
 20
2.44127
 11
75.4043
 21
2.47842
  0
LINE
  8
0
 10
75.4043
 20
2.47842
 11
75.3643
 21
2.54033
  0
LINE
  8
0
 10
75.3643
 20
2.54033
 11
75.351
 21
2.627
  0
LINE
  8
0
 10
75.351
 20
2.627
 11
75.351
 21
3.80424
  0
LINE
  8
0
 10
75.351
 20
3.80424
 11
75.8327
 21
3.80424
  0
LINE
  8
0
 10
75.8327
 20
3.80424
 11
75.8327
 21
4.394
  0
LINE
  8
0
 10
75.8327
 20
4.394
 11
75.351
 21
4.394
  0
LINE
  8
0
 10
75.351
 20
4.394
 11
75.351
 21
4.99971
  0
LINE
  8
0
 10
75.351
 20
4.99971
 11
74.5146
 21
4.99971
  0
LINE
  8
0
 10
74.5146
 20
4.99971
 11
74.5146
 21
4.394
  0
LINE
  8
0
 10
74.5146
 20
4.394
 11
73.6775
 21
4.394
  0
LINE
  8
0
 10
73.6775
 20
4.394
 11
73.6775
 21
4.53746
  0
LINE
  8
0
 10
73.6775
 20
4.53746
 11
73.6812
 21
4.59033
  0
LINE
  8
0
 10
73.6812
 20
4.59033
 11
73.6922
 21
4.63736
  0
LINE
  8
0
 10
73.6922
 20
4.63736
 11
73.7105
 21
4.67856
  0
LINE
  8
0
 10
73.7105
 20
4.67856
 11
73.7362
 21
4.7139
  0
LINE
  8
0
 10
73.7362
 20
4.7139
 11
73.7712
 21
4.74229
  0
LINE
  8
0
 10
73.7712
 20
4.74229
 11
73.8174
 21
4.76257
  0
LINE
  8
0
 10
73.8174
 20
4.76257
 11
73.8748
 21
4.77475
  0
LINE
  8
0
 10
73.8748
 20
4.77475
 11
73.9435
 21
4.77881
  0
LINE
  8
0
 10
73.9435
 20
4.77881
 11
73.9758
 21
4.77817
  0
LINE
  8
0
 10
73.9758
 20
4.77817
 11
74.0082
 21
4.77625
  0
LINE
  8
0
 10
74.0082
 20
4.77625
 11
74.0405
 21
4.77304
  0
LINE
  8
0
 10
74.0405
 20
4.77304
 11
74.0729
 21
4.76857
  0
LINE
  8
0
 10
74.0729
 20
4.76857
 11
74.1042
 21
4.76337
  0
LINE
  8
0
 10
74.1042
 20
4.76337
 11
74.1334
 21
4.75804
  0
LINE
  8
0
 10
74.1334
 20
4.75804
 11
74.1605
 21
4.75256
  0
LINE
  8
0
 10
74.1605
 20
4.75256
 11
74.1855
 21
4.74695
  0
LINE
  8
0
 10
74.1855
 20
4.74695
 11
74.3197
 21
5.32759
  0
LINE
  8
0
 10
74.3197
 20
5.32759
 11
74.2775
 21
5.3382
  0
LINE
  8
0
 10
74.2775
 20
5.3382
 11
74.2251
 21
5.3495
  0
LINE
  8
0
 10
74.2251
 20
5.3495
 11
74.1625
 21
5.36153
  0
LINE
  8
0
 10
74.1625
 20
5.36153
 11
74.0897
 21
5.37425
  0
LINE
  8
0
 10
74.0897
 20
5.37425
 11
74.0105
 21
5.38571
  0
LINE
  8
0
 10
74.0105
 20
5.38571
 11
73.9285
 21
5.39389
  0
LINE
  8
0
 10
73.9285
 20
5.39389
 11
73.8439
 21
5.3988
  0
LINE
  8
0
 10
73.8439
 20
5.3988
 11
73.7566
 21
5.40044
  0
LINE
  8
0
 10
73.7566
 20
5.40044
 11
73.5646
 21
5.38692
  0
LINE
  8
0
 10
73.5646
 20
5.38692
 11
73.3911
 21
5.34636
  0
LINE
  8
0
 10
73.3911
 20
5.34636
 11
73.2363
 21
5.27875
  0
LINE
  8
0
 10
73.2363
 20
5.27875
 11
73.0999
 21
5.18411
  0
LINE
  8
0
 10
73.0999
 20
5.18411
 11
72.9888
 21
5.06215
  0
LINE
  8
0
 10
72.9888
 20
5.06215
 11
72.9095
 21
4.91258
  0
LINE
  8
0
 10
72.9095
 20
4.91258
 11
72.8618
 21
4.73541
  0
LINE
  8
0
 10
72.8618
 20
4.73541
 11
72.846
 21
4.53061
  0
LINE
  8
0
 10
72.846
 20
4.53061
 11
72.846
 21
4.394
  0
LINE
  8
0
 10
72.846
 20
4.394
 11
72.3954
 21
4.394
  0
LINE
  8
0
 10
72.3954
 20
4.394
 11
72.3954
 21
3.80424
  0
LINE
  8
0
 10
72.3954
 20
3.80424
 11
72.846
 21
3.80424
  0
LINE
  8
0
 10
72.846
 20
3.80424
 11
72.846
 21
1.84825
  0
LINE
  8
0
 10
72.846
 20
1.84825
 11
73.6775
 21
1.84825
  0
LINE
  8
0
 10
73.6775
 20
1.84825
 11
73.6775
 21
3.80424
  0
LINE
  8
0
 10
73.6775
 20
3.80424
 11
74.5146
 21
3.80424
  0
LINE
  8
0
 10
74.5146
 20
3.80424
 11
74.5146
 21
2.55641
  0
LINE
  8
0
 10
74.5146
 20
2.55641
 11
74.5284
 21
2.38513
  0
LINE
  8
0
 10
74.5284
 20
2.38513
 11
74.5697
 21
2.23563
  0
LINE
  8
0
 10
74.5697
 20
2.23563
 11
74.6386
 21
2.10789
  0
LINE
  8
0
 10
74.6386
 20
2.10789
 11
74.7351
 21
2.00194
  0
LINE
  8
0
 10
74.7351
 20
2.00194
 11
74.8582
 21
1.91876
  0
LINE
  8
0
 10
74.8582
 20
1.91876
 11
75.0071
 21
1.85934
  0
LINE
  8
0
 10
75.0071
 20
1.85934
 11
75.1817
 21
1.82372
  0
LINE
  8
0
 10
75.1817
 20
1.82372
 11
75.3821
 21
1.81183
  0
LINE
  8
0
 10
75.3821
 20
1.81183
 11
75.4417
 21
1.81268
  0
LINE
  8
0
 10
61.0105
 20
1.83141
 11
61.3068
 21
1.91743
  0
LINE
  8
0
 10
61.3068
 20
1.91743
 11
61.5635
 21
2.06081
  0
LINE
  8
0
 10
61.5635
 20
2.06081
 11
61.7804
 21
2.26155
  0
LINE
  8
0
 10
61.7804
 20
2.26155
 11
61.9529
 21
2.51366
  0
LINE
  8
0
 10
61.9529
 20
2.51366
 11
62.0761
 21
2.81117
  0
LINE
  8
0
 10
62.0761
 20
2.81117
 11
62.15
 21
3.15408
  0
LINE
  8
0
 10
62.15
 20
3.15408
 11
62.1746
 21
3.54239
  0
LINE
  8
0
 10
62.1746
 20
3.54239
 11
62.1635
 21
3.80688
  0
LINE
  8
0
 10
62.1635
 20
3.80688
 11
62.13
 21
4.05159
  0
LINE
  8
0
 10
62.13
 20
4.05159
 11
62.0742
 21
4.27652
  0
LINE
  8
0
 10
62.0742
 20
4.27652
 11
61.9961
 21
4.48166
  0
LINE
  8
0
 10
61.9961
 20
4.48166
 11
61.897
 21
4.66547
  0
LINE
  8
0
 10
61.897
 20
4.66547
 11
61.7783
 21
4.82635
  0
LINE
  8
0
 10
61.7783
 20
4.82635
 11
61.64
 21
4.96432
  0
LINE
  8
0
 10
61.64
 20
4.96432
 11
61.482
 21
5.07938
  0
LINE
  8
0
 10
61.482
 20
5.07938
 11
61.3058
 21
5.17004
  0
LINE
  8
0
 10
61.3058
 20
5.17004
 11
61.1124
 21
5.23482
  0
LINE
  8
0
 10
61.1124
 20
5.23482
 11
60.902
 21
5.27367
  0
LINE
  8
0
 10
60.902
 20
5.27367
 11
60.6745
 21
5.28662
  0
LINE
  8
0
 10
60.6745
 20
5.28662
 11
60.3404
 21
5.25787
  0
LINE
  8
0
 10
60.3404
 20
5.25787
 11
60.0451
 21
5.17162
  0
LINE
  8
0
 10
60.0451
 20
5.17162
 11
59.7886
 21
5.02786
  0
LINE
  8
0
 10
59.7886
 20
5.02786
 11
59.5709
 21
4.82661
  0
LINE
  8
0
 10
59.5709
 20
4.82661
 11
59.3974
 21
4.57387
  0
LINE
  8
0
 10
59.3974
 20
4.57387
 11
59.2735
 21
4.27557
  0
LINE
  8
0
 10
59.2735
 20
4.27557
 11
59.1991
 21
3.93176
  0
LINE
  8
0
 10
59.1991
 20
3.93176
 11
59.1743
 21
3.54239
  0
LINE
  8
0
 10
59.1743
 20
3.54239
 11
59.1991
 21
3.15315
  0
LINE
  8
0
 10
59.1991
 20
3.15315
 11
59.2735
 21
2.80974
  0
LINE
  8
0
 10
59.2735
 20
2.80974
 11
59.3974
 21
2.51216
  0
LINE
  8
0
 10
59.3974
 20
2.51216
 11
59.5709
 21
2.26041
  0
LINE
  8
0
 10
59.5709
 20
2.26041
 11
59.7886
 21
2.06017
  0
LINE
  8
0
 10
59.7886
 20
2.06017
 11
60.0451
 21
1.91714
  0
LINE
  8
0
 10
60.0451
 20
1.91714
 11
60.3404
 21
1.83133
  0
LINE
  8
0
 10
60.3404
 20
1.83133
 11
60.6745
 21
1.80273
  0
LINE
  8
0
 10
60.6745
 20
1.80273
 11
61.0105
 21
1.83141
  0
LINE
  8
0
 10
60.5312
 20
2.4783
 11
60.4058
 21
2.53081
  0
LINE
  8
0
 10
60.4058
 20
2.53081
 11
60.2982
 21
2.61833
  0
LINE
  8
0
 10
60.2982
 20
2.61833
 11
60.2084
 21
2.74084
  0
LINE
  8
0
 10
60.2084
 20
2.74084
 11
60.1376
 21
2.89598
  0
LINE
  8
0
 10
60.1376
 20
2.89598
 11
60.0871
 21
3.08128
  0
LINE
  8
0
 10
60.0871
 20
3.08128
 11
60.0567
 21
3.29675
  0
LINE
  8
0
 10
60.0567
 20
3.29675
 11
60.0466
 21
3.54239
  0
LINE
  8
0
 10
60.0466
 20
3.54239
 11
60.0568
 21
3.78925
  0
LINE
  8
0
 10
60.0568
 20
3.78925
 11
60.0874
 21
4.00606
  0
LINE
  8
0
 10
60.0874
 20
4.00606
 11
60.1383
 21
4.19284
  0
LINE
  8
0
 10
60.1383
 20
4.19284
 11
60.2095
 21
4.34959
  0
LINE
  8
0
 10
60.2095
 20
4.34959
 11
60.2997
 21
4.47363
  0
LINE
  8
0
 10
60.2997
 20
4.47363
 11
60.4073
 21
4.56221
  0
LINE
  8
0
 10
60.4073
 20
4.56221
 11
60.5322
 21
4.61537
  0
LINE
  8
0
 10
60.5322
 20
4.61537
 11
60.6745
 21
4.63309
  0
LINE
  8
0
 10
60.6745
 20
4.63309
 11
60.8178
 21
4.61537
  0
LINE
  8
0
 10
60.8178
 20
4.61537
 11
60.9435
 21
4.56221
  0
LINE
  8
0
 10
60.9435
 20
4.56221
 11
61.0515
 21
4.47363
  0
LINE
  8
0
 10
61.0515
 20
4.47363
 11
61.1418
 21
4.34959
  0
LINE
  8
0
 10
61.1418
 20
4.34959
 11
61.2131
 21
4.19284
  0
LINE
  8
0
 10
61.2131
 20
4.19284
 11
61.264
 21
4.00606
  0
LINE
  8
0
 10
61.264
 20
4.00606
 11
61.2945
 21
3.78925
  0
LINE
  8
0
 10
61.2945
 20
3.78925
 11
61.3047
 21
3.54239
  0
LINE
  8
0
 10
61.3047
 20
3.54239
 11
61.2945
 21
3.29675
  0
LINE
  8
0
 10
61.2945
 20
3.29675
 11
61.264
 21
3.08128
  0
LINE
  8
0
 10
61.264
 20
3.08128
 11
61.2131
 21
2.89598
  0
LINE
  8
0
 10
61.2131
 20
2.89598
 11
61.1418
 21
2.74084
  0
LINE
  8
0
 10
61.1418
 20
2.74084
 11
61.0515
 21
2.61833
  0
LINE
  8
0
 10
61.0515
 20
2.61833
 11
60.9435
 21
2.53081
  0
LINE
  8
0
 10
60.9435
 20
2.53081
 11
60.8178
 21
2.4783
  0
LINE
  8
0
 10
60.8178
 20
2.4783
 11
60.6745
 21
2.4608
  0
LINE
  8
0
 10
60.6745
 20
2.4608
 11
60.5312
 21
2.4783
  0
LINE
  8
0
 10
36.5365
 20
1.83141
 11
36.8328
 21
1.91743
  0
LINE
  8
0
 10
36.8328
 20
1.91743
 11
37.0894
 21
2.06081
  0
LINE
  8
0
 10
37.0894
 20
2.06081
 11
37.3064
 21
2.26155
  0
LINE
  8
0
 10
37.3064
 20
2.26155
 11
37.4789
 21
2.51366
  0
LINE
  8
0
 10
37.4789
 20
2.51366
 11
37.602
 21
2.81117
  0
LINE
  8
0
 10
37.602
 20
2.81117
 11
37.6759
 21
3.15408
  0
LINE
  8
0
 10
37.6759
 20
3.15408
 11
37.7006
 21
3.54239
  0
LINE
  8
0
 10
37.7006
 20
3.54239
 11
37.6894
 21
3.80688
  0
LINE
  8
0
 10
37.6894
 20
3.80688
 11
37.6559
 21
4.05159
  0
LINE
  8
0
 10
37.6559
 20
4.05159
 11
37.6001
 21
4.27652
  0
LINE
  8
0
 10
37.6001
 20
4.27652
 11
37.522
 21
4.48166
  0
LINE
  8
0
 10
37.522
 20
4.48166
 11
37.423
 21
4.66547
  0
LINE
  8
0
 10
37.423
 20
4.66547
 11
37.3043
 21
4.82635
  0
LINE
  8
0
 10
37.3043
 20
4.82635
 11
37.1659
 21
4.96432
  0
LINE
  8
0
 10
37.1659
 20
4.96432
 11
37.008
 21
5.07938
  0
LINE
  8
0
 10
37.008
 20
5.07938
 11
36.8317
 21
5.17004
  0
LINE
  8
0
 10
36.8317
 20
5.17004
 11
36.6384
 21
5.23482
  0
LINE
  8
0
 10
36.6384
 20
5.23482
 11
36.4279
 21
5.27367
  0
LINE
  8
0
 10
36.4279
 20
5.27367
 11
36.2004
 21
5.28662
  0
LINE
  8
0
 10
36.2004
 20
5.28662
 11
35.8664
 21
5.25787
  0
LINE
  8
0
 10
35.8664
 20
5.25787
 11
35.5711
 21
5.17162
  0
LINE
  8
0
 10
35.5711
 20
5.17162
 11
35.3146
 21
5.02786
  0
LINE
  8
0
 10
35.3146
 20
5.02786
 11
35.0969
 21
4.82661
  0
LINE
  8
0
 10
35.0969
 20
4.82661
 11
34.9234
 21
4.57387
  0
LINE
  8
0
 10
34.9234
 20
4.57387
 11
34.7995
 21
4.27557
  0
LINE
  8
0
 10
34.7995
 20
4.27557
 11
34.7251
 21
3.93176
  0
LINE
  8
0
 10
34.7251
 20
3.93176
 11
34.7003
 21
3.54239
  0
LINE
  8
0
 10
34.7003
 20
3.54239
 11
34.7251
 21
3.15315
  0
LINE
  8
0
 10
34.7251
 20
3.15315
 11
34.7995
 21
2.80974
  0
LINE
  8
0
 10
34.7995
 20
2.80974
 11
34.9234
 21
2.51216
  0
LINE
  8
0
 10
34.9234
 20
2.51216
 11
35.0969
 21
2.26041
  0
LINE
  8
0
 10
35.0969
 20
2.26041
 11
35.3146
 21
2.06017
  0
LINE
  8
0
 10
35.3146
 20
2.06017
 11
35.5711
 21
1.91714
  0
LINE
  8
0
 10
35.5711
 20
1.91714
 11
35.8664
 21
1.83133
  0
LINE
  8
0
 10
35.8664
 20
1.83133
 11
36.2004
 21
1.80273
  0
LINE
  8
0
 10
36.2004
 20
1.80273
 11
36.5365
 21
1.83141
  0
LINE
  8
0
 10
36.0572
 20
2.4783
 11
35.9317
 21
2.53081
  0
LINE
  8
0
 10
35.9317
 20
2.53081
 11
35.8241
 21
2.61833
  0
LINE
  8
0
 10
35.8241
 20
2.61833
 11
35.7343
 21
2.74084
  0
LINE
  8
0
 10
35.7343
 20
2.74084
 11
35.6636
 21
2.89598
  0
LINE
  8
0
 10
35.6636
 20
2.89598
 11
35.613
 21
3.08128
  0
LINE
  8
0
 10
35.613
 20
3.08128
 11
35.5827
 21
3.29675
  0
LINE
  8
0
 10
35.5827
 20
3.29675
 11
35.5726
 21
3.54239
  0
LINE
  8
0
 10
35.5726
 20
3.54239
 11
35.5828
 21
3.78925
  0
LINE
  8
0
 10
35.5828
 20
3.78925
 11
35.6133
 21
4.00606
  0
LINE
  8
0
 10
35.6133
 20
4.00606
 11
35.6642
 21
4.19284
  0
LINE
  8
0
 10
35.6642
 20
4.19284
 11
35.7355
 21
4.34959
  0
LINE
  8
0
 10
35.7355
 20
4.34959
 11
35.8257
 21
4.47363
  0
LINE
  8
0
 10
35.8257
 20
4.47363
 11
35.9332
 21
4.56221
  0
LINE
  8
0
 10
35.9332
 20
4.56221
 11
36.0581
 21
4.61537
  0
LINE
  8
0
 10
36.0581
 20
4.61537
 11
36.2004
 21
4.63309
  0
LINE
  8
0
 10
36.2004
 20
4.63309
 11
36.3438
 21
4.61537
  0
LINE
  8
0
 10
36.3438
 20
4.61537
 11
36.4694
 21
4.56221
  0
LINE
  8
0
 10
36.4694
 20
4.56221
 11
36.5774
 21
4.47363
  0
LINE
  8
0
 10
36.5774
 20
4.47363
 11
36.6677
 21
4.34959
  0
LINE
  8
0
 10
36.6677
 20
4.34959
 11
36.739
 21
4.19284
  0
LINE
  8
0
 10
36.739
 20
4.19284
 11
36.7899
 21
4.00606
  0
LINE
  8
0
 10
36.7899
 20
4.00606
 11
36.8205
 21
3.78925
  0
LINE
  8
0
 10
36.8205
 20
3.78925
 11
36.8307
 21
3.54239
  0
LINE
  8
0
 10
36.8307
 20
3.54239
 11
36.8205
 21
3.29675
  0
LINE
  8
0
 10
36.8205
 20
3.29675
 11
36.7899
 21
3.08128
  0
LINE
  8
0
 10
36.7899
 20
3.08128
 11
36.739
 21
2.89598
  0
LINE
  8
0
 10
36.739
 20
2.89598
 11
36.6677
 21
2.74084
  0
LINE
  8
0
 10
36.6677
 20
2.74084
 11
36.5774
 21
2.61833
  0
LINE
  8
0
 10
36.5774
 20
2.61833
 11
36.4694
 21
2.53081
  0
LINE
  8
0
 10
36.4694
 20
2.53081
 11
36.3438
 21
2.4783
  0
LINE
  8
0
 10
36.3438
 20
2.4783
 11
36.2004
 21
2.4608
  0
LINE
  8
0
 10
36.2004
 20
2.4608
 11
36.0572
 21
2.4783
  0
LINE
  8
0
 10
52.8244
 20
1.81084
 11
53.0149
 21
1.83517
  0
LINE
  8
0
 10
53.0149
 20
1.83517
 11
53.1935
 21
1.87573
  0
LINE
  8
0
 10
53.1935
 20
1.87573
 11
53.36
 21
1.9325
  0
LINE
  8
0
 10
53.36
 20
1.9325
 11
53.5118
 21
2.00345
  0
LINE
  8
0
 10
53.5118
 20
2.00345
 11
53.6461
 21
2.08649
  0
LINE
  8
0
 10
53.6461
 20
2.08649
 11
53.7628
 21
2.18163
  0
LINE
  8
0
 10
53.7628
 20
2.18163
 11
53.8621
 21
2.28885
  0
LINE
  8
0
 10
53.8621
 20
2.28885
 11
53.9412
 21
2.40633
  0
LINE
  8
0
 10
53.9412
 20
2.40633
 11
53.9978
 21
2.53221
  0
LINE
  8
0
 10
53.9978
 20
2.53221
 11
54.0317
 21
2.6665
  0
LINE
  8
0
 10
54.0317
 20
2.6665
 11
54.043
 21
2.80919
  0
LINE
  8
0
 10
54.043
 20
2.80919
 11
54.0299
 21
2.95975
  0
LINE
  8
0
 10
54.0299
 20
2.95975
 11
53.9906
 21
3.09721
  0
LINE
  8
0
 10
53.9906
 20
3.09721
 11
53.925
 21
3.22159
  0
LINE
  8
0
 10
53.925
 20
3.22159
 11
53.8333
 21
3.33287
  0
LINE
  8
0
 10
53.8333
 20
3.33287
 11
53.716
 21
3.42752
  0
LINE
  8
0
 10
53.716
 20
3.42752
 11
53.5736
 21
3.50197
  0
LINE
  8
0
 10
53.5736
 20
3.50197
 11
53.4062
 21
3.55618
  0
LINE
  8
0
 10
53.4062
 20
3.55618
 11
53.2138
 21
3.59019
  0
LINE
  8
0
 10
53.2138
 20
3.59019
 11
53.2138
 21
3.61525
  0
LINE
  8
0
 10
53.2138
 20
3.61525
 11
53.3613
 21
3.64584
  0
LINE
  8
0
 10
53.3613
 20
3.64584
 11
53.4945
 21
3.69437
  0
LINE
  8
0
 10
53.4945
 20
3.69437
 11
53.6135
 21
3.76082
  0
LINE
  8
0
 10
53.6135
 20
3.76082
 11
53.7183
 21
3.84521
  0
LINE
  8
0
 10
53.7183
 20
3.84521
 11
53.8037
 21
3.9447
  0
LINE
  8
0
 10
53.8037
 20
3.9447
 11
53.8648
 21
4.05641
  0
LINE
  8
0
 10
53.8648
 20
4.05641
 11
53.9014
 21
4.18039
  0
LINE
  8
0
 10
53.9014
 20
4.18039
 11
53.9136
 21
4.31659
  0
LINE
  8
0
 10
53.9136
 20
4.31659
 11
53.9035
 21
4.45085
  0
LINE
  8
0
 10
53.9035
 20
4.45085
 11
53.8731
 21
4.57816
  0
LINE
  8
0
 10
53.8731
 20
4.57816
 11
53.8226
 21
4.69847
  0
LINE
  8
0
 10
53.8226
 20
4.69847
 11
53.7518
 21
4.81181
  0
LINE
  8
0
 10
53.7518
 20
4.81181
 11
53.663
 21
4.91592
  0
LINE
  8
0
 10
53.663
 20
4.91592
 11
53.5583
 21
5.00851
  0
LINE
  8
0
 10
53.5583
 20
5.00851
 11
53.4378
 21
5.08957
  0
LINE
  8
0
 10
53.4378
 20
5.08957
 11
53.3013
 21
5.1591
  0
LINE
  8
0
 10
53.3013
 20
5.1591
 11
53.1513
 21
5.21489
  0
LINE
  8
0
 10
53.1513
 20
5.21489
 11
52.9901
 21
5.25475
  0
LINE
  8
0
 10
52.9901
 20
5.25475
 11
52.8176
 21
5.27864
  0
LINE
  8
0
 10
52.8176
 20
5.27864
 11
52.6339
 21
5.28662
  0
LINE
  8
0
 10
52.6339
 20
5.28662
 11
52.4474
 21
5.27844
  0
LINE
  8
0
 10
52.4474
 20
5.27844
 11
52.2712
 21
5.25388
  0
LINE
  8
0
 10
52.2712
 20
5.25388
 11
52.1053
 21
5.21295
  0
LINE
  8
0
 10
52.1053
 20
5.21295
 11
51.9498
 21
5.15567
  0
LINE
  8
0
 10
51.9498
 20
5.15567
 11
51.8073
 21
5.08401
  0
LINE
  8
0
 10
51.8073
 20
5.08401
 11
51.6808
 21
4.99998
  0
LINE
  8
0
 10
51.6808
 20
4.99998
 11
51.5701
 21
4.90356
  0
LINE
  8
0
 10
51.5701
 20
4.90356
 11
51.4753
 21
4.79475
  0
LINE
  8
0
 10
51.4753
 20
4.79475
 11
51.3991
 21
4.67535
  0
LINE
  8
0
 10
51.3991
 20
4.67535
 11
51.3443
 21
4.54713
  0
LINE
  8
0
 10
51.3443
 20
4.54713
 11
51.311
 21
4.4101
  0
LINE
  8
0
 10
51.311
 20
4.4101
 11
51.2991
 21
4.26422
  0
LINE
  8
0
 10
51.2991
 20
4.26422
 11
52.1115
 21
4.26422
  0
LINE
  8
0
 10
52.1115
 20
4.26422
 11
52.1219
 21
4.3486
  0
LINE
  8
0
 10
52.1219
 20
4.3486
 11
52.1507
 21
4.42416
  0
LINE
  8
0
 10
52.1507
 20
4.42416
 11
52.198
 21
4.49089
  0
LINE
  8
0
 10
52.198
 20
4.49089
 11
52.2636
 21
4.54881
  0
LINE
  8
0
 10
52.2636
 20
4.54881
 11
52.3428
 21
4.59564
  0
LINE
  8
0
 10
52.3428
 20
4.59564
 11
52.4305
 21
4.62909
  0
LINE
  8
0
 10
52.4305
 20
4.62909
 11
52.5267
 21
4.64915
  0
LINE
  8
0
 10
52.5267
 20
4.64915
 11
52.6315
 21
4.65585
  0
LINE
  8
0
 10
52.6315
 20
4.65585
 11
52.7298
 21
4.64909
  0
LINE
  8
0
 10
52.7298
 20
4.64909
 11
52.8184
 21
4.62881
  0
LINE
  8
0
 10
52.8184
 20
4.62881
 11
52.8975
 21
4.59502
  0
LINE
  8
0
 10
52.8975
 20
4.59502
 11
52.967
 21
4.5477
  0
LINE
  8
0
 10
52.967
 20
4.5477
 11
53.0236
 21
4.48958
  0
LINE
  8
0
 10
53.0236
 20
4.48958
 11
53.0641
 21
4.42332
  0
LINE
  8
0
 10
53.0641
 20
4.42332
 11
53.0883
 21
4.34897
  0
LINE
  8
0
 10
53.0883
 20
4.34897
 11
53.0964
 21
4.26649
  0
LINE
  8
0
 10
53.0964
 20
4.26649
 11
53.087
 21
4.18074
  0
LINE
  8
0
 10
53.087
 20
4.18074
 11
53.0587
 21
4.10339
  0
LINE
  8
0
 10
53.0587
 20
4.10339
 11
53.0115
 21
4.03444
  0
LINE
  8
0
 10
53.0115
 20
4.03444
 11
52.9454
 21
3.97388
  0
LINE
  8
0
 10
52.9454
 20
3.97388
 11
52.8645
 21
3.92456
  0
LINE
  8
0
 10
52.8645
 20
3.92456
 11
52.7729
 21
3.88934
  0
LINE
  8
0
 10
52.7729
 20
3.88934
 11
52.6704
 21
3.86821
  0
LINE
  8
0
 10
52.6704
 20
3.86821
 11
52.5572
 21
3.86116
  0
LINE
  8
0
 10
52.5572
 20
3.86116
 11
52.2097
 21
3.86116
  0
LINE
  8
0
 10
52.2097
 20
3.86116
 11
52.2097
 21
3.28734
  0
LINE
  8
0
 10
52.2097
 20
3.28734
 11
52.5572
 21
3.28734
  0
LINE
  8
0
 10
52.5572
 20
3.28734
 11
52.6869
 21
3.28009
  0
LINE
  8
0
 10
52.6869
 20
3.28009
 11
52.8029
 21
3.2583
  0
LINE
  8
0
 10
52.8029
 20
3.2583
 11
52.905
 21
3.22202
  0
LINE
  8
0
 10
52.905
 20
3.22202
 11
52.9934
 21
3.1712
  0
LINE
  8
0
 10
52.9934
 20
3.1712
 11
53.0647
 21
3.10887
  0
LINE
  8
0
 10
53.0647
 20
3.10887
 11
53.1156
 21
3.03801
  0
LINE
  8
0
 10
53.1156
 20
3.03801
 11
53.1461
 21
2.9586
  0
LINE
  8
0
 10
53.1461
 20
2.9586
 11
53.1563
 21
2.87065
  0
LINE
  8
0
 10
53.1563
 20
2.87065
 11
53.1471
 21
2.78285
  0
LINE
  8
0
 10
53.1471
 20
2.78285
 11
53.1195
 21
2.70387
  0
LINE
  8
0
 10
53.1195
 20
2.70387
 11
53.0734
 21
2.63371
  0
LINE
  8
0
 10
53.0734
 20
2.63371
 11
53.0089
 21
2.57236
  0
LINE
  8
0
 10
53.0089
 20
2.57236
 11
52.9299
 21
2.52255
  0
LINE
  8
0
 10
52.9299
 20
2.52255
 11
52.8403
 21
2.48697
  0
LINE
  8
0
 10
52.8403
 20
2.48697
 11
52.74
 21
2.46562
  0
LINE
  8
0
 10
52.74
 20
2.46562
 11
52.6291
 21
2.45851
  0
LINE
  8
0
 10
52.6291
 20
2.45851
 11
52.5166
 21
2.46506
  0
LINE
  8
0
 10
52.5166
 20
2.46506
 11
52.414
 21
2.4847
  0
LINE
  8
0
 10
52.414
 20
2.4847
 11
52.3213
 21
2.51741
  0
LINE
  8
0
 10
52.3213
 20
2.51741
 11
52.2385
 21
2.56323
  0
LINE
  8
0
 10
52.2385
 20
2.56323
 11
52.1701
 21
2.61974
  0
LINE
  8
0
 10
52.1701
 20
2.61974
 11
52.1205
 21
2.68449
  0
LINE
  8
0
 10
52.1205
 20
2.68449
 11
52.0898
 21
2.75751
  0
LINE
  8
0
 10
52.0898
 20
2.75751
 11
52.0779
 21
2.83876
  0
LINE
  8
0
 10
52.0779
 20
2.83876
 11
51.2296
 21
2.83876
  0
LINE
  8
0
 10
51.2296
 20
2.83876
 11
51.2419
 21
2.69069
  0
LINE
  8
0
 10
51.2419
 20
2.69069
 11
51.2764
 21
2.55157
  0
LINE
  8
0
 10
51.2764
 20
2.55157
 11
51.333
 21
2.42142
  0
LINE
  8
0
 10
51.333
 20
2.42142
 11
51.4118
 21
2.30023
  0
LINE
  8
0
 10
51.4118
 20
2.30023
 11
51.5099
 21
2.18987
  0
LINE
  8
0
 10
51.5099
 20
2.18987
 11
51.6247
 21
2.09218
  0
LINE
  8
0
 10
51.6247
 20
2.09218
 11
51.7561
 21
2.00714
  0
LINE
  8
0
 10
51.7561
 20
2.00714
 11
51.9042
 21
1.93478
  0
LINE
  8
0
 10
51.9042
 20
1.93478
 11
52.0663
 21
1.87701
  0
LINE
  8
0
 10
52.0663
 20
1.87701
 11
52.24
 21
1.83574
  0
LINE
  8
0
 10
52.24
 20
1.83574
 11
52.4252
 21
1.81099
  0
LINE
  8
0
 10
52.4252
 20
1.81099
 11
52.6219
 21
1.80273
  0
LINE
  8
0
 10
52.6219
 20
1.80273
 11
52.8244
 21
1.81084
  0
LINE
  8
0
 10
39.8526
 20
1.83141
 11
40.1489
 21
1.91743
  0
LINE
  8
0
 10
40.1489
 20
1.91743
 11
40.4055
 21
2.06081
  0
LINE
  8
0
 10
40.4055
 20
2.06081
 11
40.6225
 21
2.26155
  0
LINE
  8
0
 10
40.6225
 20
2.26155
 11
40.795
 21
2.51366
  0
LINE
  8
0
 10
40.795
 20
2.51366
 11
40.9181
 21
2.81117
  0
LINE
  8
0
 10
40.9181
 20
2.81117
 11
40.9921
 21
3.15408
  0
LINE
  8
0
 10
40.9921
 20
3.15408
 11
41.0167
 21
3.54239
  0
LINE
  8
0
 10
41.0167
 20
3.54239
 11
41.0055
 21
3.80688
  0
LINE
  8
0
 10
41.0055
 20
3.80688
 11
40.972
 21
4.05159
  0
LINE
  8
0
 10
40.972
 20
4.05159
 11
40.9163
 21
4.27652
  0
LINE
  8
0
 10
40.9163
 20
4.27652
 11
40.8381
 21
4.48166
  0
LINE
  8
0
 10
40.8381
 20
4.48166
 11
40.7391
 21
4.66547
  0
LINE
  8
0
 10
40.7391
 20
4.66547
 11
40.6204
 21
4.82635
  0
LINE
  8
0
 10
40.6204
 20
4.82635
 11
40.482
 21
4.96432
  0
LINE
  8
0
 10
40.482
 20
4.96432
 11
40.3241
 21
5.07938
  0
LINE
  8
0
 10
40.3241
 20
5.07938
 11
40.1478
 21
5.17004
  0
LINE
  8
0
 10
40.1478
 20
5.17004
 11
39.9545
 21
5.23482
  0
LINE
  8
0
 10
39.9545
 20
5.23482
 11
39.744
 21
5.27367
  0
LINE
  8
0
 10
39.744
 20
5.27367
 11
39.5165
 21
5.28662
  0
LINE
  8
0
 10
39.5165
 20
5.28662
 11
39.1825
 21
5.25787
  0
LINE
  8
0
 10
39.1825
 20
5.25787
 11
38.8872
 21
5.17162
  0
LINE
  8
0
 10
38.8872
 20
5.17162
 11
38.6307
 21
5.02786
  0
LINE
  8
0
 10
38.6307
 20
5.02786
 11
38.413
 21
4.82661
  0
LINE
  8
0
 10
38.413
 20
4.82661
 11
38.2395
 21
4.57387
  0
LINE
  8
0
 10
38.2395
 20
4.57387
 11
38.1156
 21
4.27557
  0
LINE
  8
0
 10
38.1156
 20
4.27557
 11
38.0412
 21
3.93176
  0
LINE
  8
0
 10
38.0412
 20
3.93176
 11
38.0164
 21
3.54239
  0
LINE
  8
0
 10
38.0164
 20
3.54239
 11
38.0412
 21
3.15315
  0
LINE
  8
0
 10
38.0412
 20
3.15315
 11
38.1156
 21
2.80974
  0
LINE
  8
0
 10
38.1156
 20
2.80974
 11
38.2395
 21
2.51216
  0
LINE
  8
0
 10
38.2395
 20
2.51216
 11
38.413
 21
2.26041
  0
LINE
  8
0
 10
38.413
 20
2.26041
 11
38.6307
 21
2.06017
  0
LINE
  8
0
 10
38.6307
 20
2.06017
 11
38.8872
 21
1.91714
  0
LINE
  8
0
 10
38.8872
 20
1.91714
 11
39.1825
 21
1.83133
  0
LINE
  8
0
 10
39.1825
 20
1.83133
 11
39.5165
 21
1.80273
  0
LINE
  8
0
 10
39.5165
 20
1.80273
 11
39.8526
 21
1.83141
  0
LINE
  8
0
 10
39.3733
 20
2.4783
 11
39.2478
 21
2.53081
  0
LINE
  8
0
 10
39.2478
 20
2.53081
 11
39.1402
 21
2.61833
  0
LINE
  8
0
 10
39.1402
 20
2.61833
 11
39.0504
 21
2.74084
  0
LINE
  8
0
 10
39.0504
 20
2.74084
 11
38.9797
 21
2.89598
  0
LINE
  8
0
 10
38.9797
 20
2.89598
 11
38.9291
 21
3.08128
  0
LINE
  8
0
 10
38.9291
 20
3.08128
 11
38.8988
 21
3.29675
  0
LINE
  8
0
 10
38.8988
 20
3.29675
 11
38.8887
 21
3.54239
  0
LINE
  8
0
 10
38.8887
 20
3.54239
 11
38.8989
 21
3.78925
  0
LINE
  8
0
 10
38.8989
 20
3.78925
 11
38.9294
 21
4.00606
  0
LINE
  8
0
 10
38.9294
 20
4.00606
 11
38.9803
 21
4.19284
  0
LINE
  8
0
 10
38.9803
 20
4.19284
 11
39.0516
 21
4.34959
  0
LINE
  8
0
 10
39.0516
 20
4.34959
 11
39.1418
 21
4.47363
  0
LINE
  8
0
 10
39.1418
 20
4.47363
 11
39.2493
 21
4.56221
  0
LINE
  8
0
 10
39.2493
 20
4.56221
 11
39.3742
 21
4.61537
  0
LINE
  8
0
 10
39.3742
 20
4.61537
 11
39.5165
 21
4.63309
  0
LINE
  8
0
 10
39.5165
 20
4.63309
 11
39.6599
 21
4.61537
  0
LINE
  8
0
 10
39.6599
 20
4.61537
 11
39.7855
 21
4.56221
  0
LINE
  8
0
 10
39.7855
 20
4.56221
 11
39.8935
 21
4.47363
  0
LINE
  8
0
 10
39.8935
 20
4.47363
 11
39.9838
 21
4.34959
  0
LINE
  8
0
 10
39.9838
 20
4.34959
 11
40.0551
 21
4.19284
  0
LINE
  8
0
 10
40.0551
 20
4.19284
 11
40.106
 21
4.00606
  0
LINE
  8
0
 10
40.106
 20
4.00606
 11
40.1366
 21
3.78925
  0
LINE
  8
0
 10
40.1366
 20
3.78925
 11
40.1468
 21
3.54239
  0
LINE
  8
0
 10
40.1468
 20
3.54239
 11
40.1366
 21
3.29675
  0
LINE
  8
0
 10
40.1366
 20
3.29675
 11
40.106
 21
3.08128
  0
LINE
  8
0
 10
40.106
 20
3.08128
 11
40.0551
 21
2.89598
  0
LINE
  8
0
 10
40.0551
 20
2.89598
 11
39.9838
 21
2.74084
  0
LINE
  8
0
 10
39.9838
 20
2.74084
 11
39.8935
 21
2.61833
  0
LINE
  8
0
 10
39.8935
 20
2.61833
 11
39.7855
 21
2.53081
  0
LINE
  8
0
 10
39.7855
 20
2.53081
 11
39.6599
 21
2.4783
  0
LINE
  8
0
 10
39.6599
 20
2.4783
 11
39.5165
 21
2.4608
  0
LINE
  8
0
 10
39.5165
 20
2.4608
 11
39.3733
 21
2.4783
  0
LINE
  8
0
 10
42.9417
 20
1.81084
 11
43.1322
 21
1.83517
  0
LINE
  8
0
 10
43.1322
 20
1.83517
 11
43.3107
 21
1.87573
  0
LINE
  8
0
 10
43.3107
 20
1.87573
 11
43.4773
 21
1.9325
  0
LINE
  8
0
 10
43.4773
 20
1.9325
 11
43.6291
 21
2.00345
  0
LINE
  8
0
 10
43.6291
 20
2.00345
 11
43.7634
 21
2.08649
  0
LINE
  8
0
 10
43.7634
 20
2.08649
 11
43.8801
 21
2.18163
  0
LINE
  8
0
 10
43.8801
 20
2.18163
 11
43.9793
 21
2.28885
  0
LINE
  8
0
 10
43.9793
 20
2.28885
 11
44.0585
 21
2.40633
  0
LINE
  8
0
 10
44.0585
 20
2.40633
 11
44.115
 21
2.53221
  0
LINE
  8
0
 10
44.115
 20
2.53221
 11
44.1489
 21
2.6665
  0
LINE
  8
0
 10
44.1489
 20
2.6665
 11
44.1602
 21
2.80919
  0
LINE
  8
0
 10
44.1602
 20
2.80919
 11
44.1471
 21
2.95975
  0
LINE
  8
0
 10
44.1471
 20
2.95975
 11
44.1078
 21
3.09721
  0
LINE
  8
0
 10
44.1078
 20
3.09721
 11
44.0423
 21
3.22159
  0
LINE
  8
0
 10
44.0423
 20
3.22159
 11
43.9506
 21
3.33287
  0
LINE
  8
0
 10
43.9506
 20
3.33287
 11
43.8332
 21
3.42752
  0
LINE
  8
0
 10
43.8332
 20
3.42752
 11
43.6908
 21
3.50197
  0
LINE
  8
0
 10
43.6908
 20
3.50197
 11
43.5235
 21
3.55618
  0
LINE
  8
0
 10
43.5235
 20
3.55618
 11
43.3311
 21
3.59019
  0
LINE
  8
0
 10
43.3311
 20
3.59019
 11
43.3311
 21
3.61525
  0
LINE
  8
0
 10
43.3311
 20
3.61525
 11
43.4785
 21
3.64584
  0
LINE
  8
0
 10
43.4785
 20
3.64584
 11
43.6118
 21
3.69437
  0
LINE
  8
0
 10
43.6118
 20
3.69437
 11
43.7308
 21
3.76082
  0
LINE
  8
0
 10
43.7308
 20
3.76082
 11
43.8355
 21
3.84521
  0
LINE
  8
0
 10
43.8355
 20
3.84521
 11
43.921
 21
3.9447
  0
LINE
  8
0
 10
43.921
 20
3.9447
 11
43.982
 21
4.05641
  0
LINE
  8
0
 10
43.982
 20
4.05641
 11
44.0186
 21
4.18039
  0
LINE
  8
0
 10
44.0186
 20
4.18039
 11
44.0308
 21
4.31659
  0
LINE
  8
0
 10
44.0308
 20
4.31659
 11
44.0207
 21
4.45085
  0
LINE
  8
0
 10
44.0207
 20
4.45085
 11
43.9904
 21
4.57816
  0
LINE
  8
0
 10
43.9904
 20
4.57816
 11
43.9398
 21
4.69847
  0
LINE
  8
0
 10
43.9398
 20
4.69847
 11
43.8691
 21
4.81181
  0
LINE
  8
0
 10
43.8691
 20
4.81181
 11
43.7803
 21
4.91592
  0
LINE
  8
0
 10
43.7803
 20
4.91592
 11
43.6756
 21
5.00851
  0
LINE
  8
0
 10
43.6756
 20
5.00851
 11
43.555
 21
5.08957
  0
LINE
  8
0
 10
43.555
 20
5.08957
 11
43.4186
 21
5.1591
  0
LINE
  8
0
 10
43.4186
 20
5.1591
 11
43.2686
 21
5.21489
  0
LINE
  8
0
 10
43.2686
 20
5.21489
 11
43.1073
 21
5.25475
  0
LINE
  8
0
 10
43.1073
 20
5.25475
 11
42.9349
 21
5.27864
  0
LINE
  8
0
 10
42.9349
 20
5.27864
 11
42.7512
 21
5.28662
  0
LINE
  8
0
 10
42.7512
 20
5.28662
 11
42.5646
 21
5.27844
  0
LINE
  8
0
 10
42.5646
 20
5.27844
 11
42.3884
 21
5.25388
  0
LINE
  8
0
 10
42.3884
 20
5.25388
 11
42.2225
 21
5.21295
  0
LINE
  8
0
 10
42.2225
 20
5.21295
 11
42.067
 21
5.15567
  0
LINE
  8
0
 10
42.067
 20
5.15567
 11
41.9246
 21
5.08401
  0
LINE
  8
0
 10
41.9246
 20
5.08401
 11
41.798
 21
4.99998
  0
LINE
  8
0
 10
41.798
 20
4.99998
 11
41.6873
 21
4.90356
  0
LINE
  8
0
 10
41.6873
 20
4.90356
 11
41.5925
 21
4.79475
  0
LINE
  8
0
 10
41.5925
 20
4.79475
 11
41.5164
 21
4.67535
  0
LINE
  8
0
 10
41.5164
 20
4.67535
 11
41.4616
 21
4.54713
  0
LINE
  8
0
 10
41.4616
 20
4.54713
 11
41.4283
 21
4.4101
  0
LINE
  8
0
 10
41.4283
 20
4.4101
 11
41.4164
 21
4.26422
  0
LINE
  8
0
 10
41.4164
 20
4.26422
 11
42.2288
 21
4.26422
  0
LINE
  8
0
 10
42.2288
 20
4.26422
 11
42.2392
 21
4.3486
  0
LINE
  8
0
 10
42.2392
 20
4.3486
 11
42.268
 21
4.42416
  0
LINE
  8
0
 10
42.268
 20
4.42416
 11
42.3152
 21
4.49089
  0
LINE
  8
0
 10
42.3152
 20
4.49089
 11
42.3809
 21
4.54881
  0
LINE
  8
0
 10
42.3809
 20
4.54881
 11
42.4601
 21
4.59564
  0
LINE
  8
0
 10
42.4601
 20
4.59564
 11
42.5478
 21
4.62909
  0
LINE
  8
0
 10
42.5478
 20
4.62909
 11
42.644
 21
4.64915
  0
LINE
  8
0
 10
42.644
 20
4.64915
 11
42.7488
 21
4.65585
  0
LINE
  8
0
 10
42.7488
 20
4.65585
 11
42.847
 21
4.64909
  0
LINE
  8
0
 10
42.847
 20
4.64909
 11
42.9357
 21
4.62881
  0
LINE
  8
0
 10
42.9357
 20
4.62881
 11
43.0148
 21
4.59502
  0
LINE
  8
0
 10
43.0148
 20
4.59502
 11
43.0843
 21
4.5477
  0
LINE
  8
0
 10
43.0843
 20
4.5477
 11
43.1409
 21
4.48958
  0
LINE
  8
0
 10
43.1409
 20
4.48958
 11
43.1813
 21
4.42332
  0
LINE
  8
0
 10
43.1813
 20
4.42332
 11
43.2056
 21
4.34897
  0
LINE
  8
0
 10
43.2056
 20
4.34897
 11
43.2137
 21
4.26649
  0
LINE
  8
0
 10
43.2137
 20
4.26649
 11
43.2042
 21
4.18074
  0
LINE
  8
0
 10
43.2042
 20
4.18074
 11
43.1759
 21
4.10339
  0
LINE
  8
0
 10
43.1759
 20
4.10339
 11
43.1287
 21
4.03444
  0
LINE
  8
0
 10
43.1287
 20
4.03444
 11
43.0627
 21
3.97388
  0
LINE
  8
0
 10
43.0627
 20
3.97388
 11
42.9818
 21
3.92456
  0
LINE
  8
0
 10
42.9818
 20
3.92456
 11
42.8901
 21
3.88934
  0
LINE
  8
0
 10
42.8901
 20
3.88934
 11
42.7877
 21
3.86821
  0
LINE
  8
0
 10
42.7877
 20
3.86821
 11
42.6745
 21
3.86116
  0
LINE
  8
0
 10
42.6745
 20
3.86116
 11
42.327
 21
3.86116
  0
LINE
  8
0
 10
42.327
 20
3.86116
 11
42.327
 21
3.28734
  0
LINE
  8
0
 10
42.327
 20
3.28734
 11
42.6745
 21
3.28734
  0
LINE
  8
0
 10
42.6745
 20
3.28734
 11
42.8042
 21
3.28009
  0
LINE
  8
0
 10
42.8042
 20
3.28009
 11
42.9201
 21
3.2583
  0
LINE
  8
0
 10
42.9201
 20
3.2583
 11
43.0223
 21
3.22202
  0
LINE
  8
0
 10
43.0223
 20
3.22202
 11
43.1106
 21
3.1712
  0
LINE
  8
0
 10
43.1106
 20
3.1712
 11
43.1819
 21
3.10887
  0
LINE
  8
0
 10
43.1819
 20
3.10887
 11
43.2328
 21
3.03801
  0
LINE
  8
0
 10
43.2328
 20
3.03801
 11
43.2634
 21
2.9586
  0
LINE
  8
0
 10
43.2634
 20
2.9586
 11
43.2736
 21
2.87065
  0
LINE
  8
0
 10
43.2736
 20
2.87065
 11
43.2644
 21
2.78285
  0
LINE
  8
0
 10
43.2644
 20
2.78285
 11
43.2367
 21
2.70387
  0
LINE
  8
0
 10
43.2367
 20
2.70387
 11
43.1907
 21
2.63371
  0
LINE
  8
0
 10
43.1907
 20
2.63371
 11
43.1262
 21
2.57236
  0
LINE
  8
0
 10
43.1262
 20
2.57236
 11
43.0472
 21
2.52255
  0
LINE
  8
0
 10
43.0472
 20
2.52255
 11
42.9576
 21
2.48697
  0
LINE
  8
0
 10
42.9576
 20
2.48697
 11
42.8573
 21
2.46562
  0
LINE
  8
0
 10
42.8573
 20
2.46562
 11
42.7464
 21
2.45851
  0
LINE
  8
0
 10
42.7464
 20
2.45851
 11
42.6339
 21
2.46506
  0
LINE
  8
0
 10
42.6339
 20
2.46506
 11
42.5313
 21
2.4847
  0
LINE
  8
0
 10
42.5313
 20
2.4847
 11
42.4386
 21
2.51741
  0
LINE
  8
0
 10
42.4386
 20
2.51741
 11
42.3558
 21
2.56323
  0
LINE
  8
0
 10
42.3558
 20
2.56323
 11
42.2873
 21
2.61974
  0
LINE
  8
0
 10
42.2873
 20
2.61974
 11
42.2377
 21
2.68449
  0
LINE
  8
0
 10
42.2377
 20
2.68449
 11
42.207
 21
2.75751
  0
LINE
  8
0
 10
42.207
 20
2.75751
 11
42.1952
 21
2.83876
  0
LINE
  8
0
 10
42.1952
 20
2.83876
 11
41.3469
 21
2.83876
  0
LINE
  8
0
 10
41.3469
 20
2.83876
 11
41.3592
 21
2.69069
  0
LINE
  8
0
 10
41.3592
 20
2.69069
 11
41.3936
 21
2.55157
  0
LINE
  8
0
 10
41.3936
 20
2.55157
 11
41.4502
 21
2.42142
  0
LINE
  8
0
 10
41.4502
 20
2.42142
 11
41.529
 21
2.30023
  0
LINE
  8
0
 10
41.529
 20
2.30023
 11
41.6272
 21
2.18987
  0
LINE
  8
0
 10
41.6272
 20
2.18987
 11
41.742
 21
2.09218
  0
LINE
  8
0
 10
41.742
 20
2.09218
 11
41.8734
 21
2.00714
  0
LINE
  8
0
 10
41.8734
 20
2.00714
 11
42.0215
 21
1.93478
  0
LINE
  8
0
 10
42.0215
 20
1.93478
 11
42.1836
 21
1.87701
  0
LINE
  8
0
 10
42.1836
 20
1.87701
 11
42.3573
 21
1.83574
  0
LINE
  8
0
 10
42.3573
 20
1.83574
 11
42.5425
 21
1.81099
  0
LINE
  8
0
 10
42.5425
 20
1.81099
 11
42.7392
 21
1.80273
  0
LINE
  8
0
 10
42.7392
 20
1.80273
 11
42.9417
 21
1.81084
  0
LINE
  8
0
 10
12.3263
 20
3.3101
 11
12.3259
 21
3.37863
  0
LINE
  8
0
 10
12.3259
 20
3.37863
 11
12.3248
 21
3.4567
  0
LINE
  8
0
 10
12.3248
 20
3.4567
 11
12.3229
 21
3.54428
  0
LINE
  8
0
 10
12.3229
 20
3.54428
 11
12.3203
 21
3.6414
  0
LINE
  8
0
 10
12.3203
 20
3.6414
 11
12.314
 21
3.85347
  0
LINE
  8
0
 10
12.314
 20
3.85347
 11
12.3071
 21
4.08203
  0
LINE
  8
0
 10
12.3071
 20
4.08203
 11
12.3037
 21
4.19958
  0
LINE
  8
0
 10
12.3037
 20
4.19958
 11
12.3005
 21
4.31543
  0
LINE
  8
0
 10
12.3005
 20
4.31543
 11
12.2977
 21
4.42957
  0
LINE
  8
0
 10
12.2977
 20
4.42957
 11
12.2951
 21
4.54199
  0
LINE
  8
0
 10
12.2951
 20
4.54199
 11
12.3255
 21
4.42267
  0
LINE
  8
0
 10
12.3255
 20
4.42267
 11
12.3566
 21
4.30377
  0
LINE
  8
0
 10
12.3566
 20
4.30377
 11
12.3884
 21
4.1853
  0
LINE
  8
0
 10
12.3884
 20
4.1853
 11
12.421
 21
4.06726
  0
LINE
  8
0
 10
12.421
 20
4.06726
 11
12.4535
 21
3.95177
  0
LINE
  8
0
 10
12.4535
 20
3.95177
 11
12.4854
 21
3.84097
  0
LINE
  8
0
 10
12.4854
 20
3.84097
 11
12.5164
 21
3.73486
  0
LINE
  8
0
 10
12.5164
 20
3.73486
 11
12.5468
 21
3.63345
  0
LINE
  8
0
 10
12.5468
 20
3.63345
 11
12.5755
 21
3.53896
  0
LINE
  8
0
 10
12.5755
 20
3.53896
 11
12.6019
 21
3.45357
  0
LINE
  8
0
 10
12.6019
 20
3.45357
 11
12.6258
 21
3.37727
  0
LINE
  8
0
 10
12.6258
 20
3.37727
 11
12.6474
 21
3.3101
  0
LINE
  8
0
 10
12.6474
 20
3.3101
 11
13.1626
 21
1.84825
  0
LINE
  8
0
 10
13.1626
 20
1.84825
 11
13.8696
 21
1.84825
  0
LINE
  8
0
 10
13.8696
 20
1.84825
 11
14.3776
 21
3.3101
  0
LINE
  8
0
 10
14.3776
 20
3.3101
 11
14.4002
 21
3.37978
  0
LINE
  8
0
 10
14.4002
 20
3.37978
 11
14.4249
 21
3.45898
  0
LINE
  8
0
 10
14.4249
 20
3.45898
 11
14.4517
 21
3.54771
  0
LINE
  8
0
 10
14.4517
 20
3.54771
 11
14.4806
 21
3.64598
  0
LINE
  8
0
 10
14.4806
 20
3.64598
 11
14.511
 21
3.75137
  0
LINE
  8
0
 10
14.511
 20
3.75137
 11
14.5421
 21
3.86145
  0
LINE
  8
0
 10
14.5421
 20
3.86145
 11
14.5739
 21
3.97623
  0
LINE
  8
0
 10
14.5739
 20
3.97623
 11
14.6065
 21
4.0957
  0
LINE
  8
0
 10
14.6065
 20
4.0957
 11
14.639
 21
4.21738
  0
LINE
  8
0
 10
14.639
 20
4.21738
 11
14.6709
 21
4.33878
  0
LINE
  8
0
 10
14.6709
 20
4.33878
 11
14.7019
 21
4.45988
  0
LINE
  8
0
 10
14.7019
 20
4.45988
 11
14.7323
 21
4.5807
  0
LINE
  8
0
 10
14.7323
 20
4.5807
 11
14.7297
 21
4.46573
  0
LINE
  8
0
 10
14.7297
 20
4.46573
 11
14.7269
 21
4.34846
  0
LINE
  8
0
 10
14.7269
 20
4.34846
 11
14.7237
 21
4.22891
  0
LINE
  8
0
 10
14.7237
 20
4.22891
 11
14.7203
 21
4.10707
  0
LINE
  8
0
 10
14.7203
 20
4.10707
 11
14.7134
 21
3.87
  0
LINE
  8
0
 10
14.7134
 20
3.87
 11
14.7071
 21
3.65054
  0
LINE
  8
0
 10
14.7071
 20
3.65054
 11
14.7045
 21
3.55028
  0
LINE
  8
0
 10
14.7045
 20
3.55028
 11
14.7026
 21
3.46011
  0
LINE
  8
0
 10
14.7026
 20
3.46011
 11
14.7015
 21
3.38007
  0
LINE
  8
0
 10
14.7015
 20
3.38007
 11
14.7011
 21
3.3101
  0
LINE
  8
0
 10
14.7011
 20
3.3101
 11
14.7011
 21
1.84825
  0
LINE
  8
0
 10
14.7011
 20
1.84825
 11
15.5518
 21
1.84825
  0
LINE
  8
0
 10
15.5518
 20
1.84825
 11
15.5518
 21
5.24106
  0
LINE
  8
0
 10
15.5518
 20
5.24106
 11
14.2314
 21
5.24106
  0
LINE
  8
0
 10
14.2314
 20
5.24106
 11
13.7833
 21
3.92036
  0
LINE
  8
0
 10
13.7833
 20
3.92036
 11
13.7646
 21
3.85782
  0
LINE
  8
0
 10
13.7646
 20
3.85782
 11
13.7446
 21
3.78632
  0
LINE
  8
0
 10
13.7446
 20
3.78632
 11
13.7233
 21
3.70584
  0
LINE
  8
0
 10
13.7233
 20
3.70584
 11
13.7006
 21
3.61639
  0
LINE
  8
0
 10
13.7006
 20
3.61639
 11
13.6773
 21
3.52075
  0
LINE
  8
0
 10
13.6773
 20
3.52075
 11
13.6539
 21
3.42169
  0
LINE
  8
0
 10
13.6539
 20
3.42169
 11
13.6305
 21
3.31923
  0
LINE
  8
0
 10
13.6305
 20
3.31923
 11
13.6071
 21
3.21333
  0
LINE
  8
0
 10
13.6071
 20
3.21333
 11
13.5842
 21
3.10654
  0
LINE
  8
0
 10
13.5842
 20
3.10654
 11
13.5619
 21
3.0013
  0
LINE
  8
0
 10
13.5619
 20
3.0013
 11
13.5404
 21
2.89763
  0
LINE
  8
0
 10
13.5404
 20
2.89763
 11
13.5197
 21
2.79552
  0
LINE
  8
0
 10
13.5197
 20
2.79552
 11
13.4978
 21
2.89771
  0
LINE
  8
0
 10
13.4978
 20
2.89771
 11
13.4753
 21
3.00159
  0
LINE
  8
0
 10
13.4753
 20
3.00159
 11
13.4523
 21
3.10718
  0
LINE
  8
0
 10
13.4523
 20
3.10718
 11
13.4286
 21
3.21448
  0
LINE
  8
0
 10
13.4286
 20
3.21448
 11
13.4047
 21
3.3208
  0
LINE
  8
0
 10
13.4047
 20
3.3208
 11
13.381
 21
3.42342
  0
LINE
  8
0
 10
13.381
 20
3.42342
 11
13.3574
 21
3.52232
  0
LINE
  8
0
 10
13.3574
 20
3.52232
 11
13.334
 21
3.61754
  0
LINE
  8
0
 10
13.334
 20
3.61754
 11
13.3113
 21
3.70648
  0
LINE
  8
0
 10
13.3113
 20
3.70648
 11
13.2899
 21
3.78661
  0
LINE
  8
0
 10
13.2899
 20
3.78661
 11
13.2699
 21
3.85789
  0
LINE
  8
0
 10
13.2699
 20
3.85789
 11
13.2513
 21
3.92036
  0
LINE
  8
0
 10
13.2513
 20
3.92036
 11
12.796
 21
5.24106
  0
LINE
  8
0
 10
12.796
 20
5.24106
 11
11.478
 21
5.24106
  0
LINE
  8
0
 10
11.478
 20
5.24106
 11
11.478
 21
1.84825
  0
LINE
  8
0
 10
11.478
 20
1.84825
 11
12.3263
 21
1.84825
  0
LINE
  8
0
 10
12.3263
 20
1.84825
 11
12.3263
 21
3.3101
  0
LINE
  8
0
 10
79.0801
 20
5.24106
 11
78.2054
 21
5.24106
  0
LINE
  8
0
 10
78.2054
 20
5.24106
 11
77.4098
 21
4.72189
  0
LINE
  8
0
 10
77.4098
 20
4.72189
 11
77.4098
 21
4.01602
  0
LINE
  8
0
 10
77.4098
 20
4.01602
 11
78.2126
 21
4.54199
  0
LINE
  8
0
 10
78.2126
 20
4.54199
 11
78.2366
 21
4.54199
  0
LINE
  8
0
 10
78.2366
 20
4.54199
 11
78.2366
 21
1.84825
  0
LINE
  8
0
 10
78.2366
 20
1.84825
 11
79.0801
 21
1.84825
  0
LINE
  8
0
 10
79.0801
 20
1.84825
 11
79.0801
 21
5.24106
  0
LINE
  8
0
 10
65.944
 20
1.82043
 11
66.0742
 21
1.84627
  0
LINE
  8
0
 10
66.0742
 20
1.84627
 11
66.189
 21
1.88931
  0
LINE
  8
0
 10
66.189
 20
1.88931
 11
66.2884
 21
1.94958
  0
LINE
  8
0
 10
66.2884
 20
1.94958
 11
66.3736
 21
2.02068
  0
LINE
  8
0
 10
66.3736
 20
2.02068
 11
66.4457
 21
2.09618
  0
LINE
  8
0
 10
66.4457
 20
2.09618
 11
66.5048
 21
2.17609
  0
LINE
  8
0
 10
66.5048
 20
2.17609
 11
66.5508
 21
2.26041
  0
LINE
  8
0
 10
66.5508
 20
2.26041
 11
66.5796
 21
2.26041
  0
LINE
  8
0
 10
66.5796
 20
2.26041
 11
66.5796
 21
1.84825
  0
LINE
  8
0
 10
66.5796
 20
1.84825
 11
67.4039
 21
1.84825
  0
LINE
  8
0
 10
67.4039
 20
1.84825
 11
67.4039
 21
5.24106
  0
LINE
  8
0
 10
67.4039
 20
5.24106
 11
66.57
 21
5.24106
  0
LINE
  8
0
 10
66.57
 20
5.24106
 11
66.57
 21
3.95679
  0
LINE
  8
0
 10
66.57
 20
3.95679
 11
66.5508
 21
3.95679
  0
LINE
  8
0
 10
66.5508
 20
3.95679
 11
66.5227
 21
4.01337
  0
LINE
  8
0
 10
66.5227
 20
4.01337
 11
66.4888
 21
4.06921
  0
LINE
  8
0
 10
66.4888
 20
4.06921
 11
66.4491
 21
4.12436
  0
LINE
  8
0
 10
66.4491
 20
4.12436
 11
66.4034
 21
4.1788
  0
LINE
  8
0
 10
66.4034
 20
4.1788
 11
66.3515
 21
4.23047
  0
LINE
  8
0
 10
66.3515
 20
4.23047
 11
66.2929
 21
4.2773
  0
LINE
  8
0
 10
66.2929
 20
4.2773
 11
66.2275
 21
4.31927
  0
LINE
  8
0
 10
66.2275
 20
4.31927
 11
66.1554
 21
4.35641
  0
LINE
  8
0
 10
66.1554
 20
4.35641
 11
66.076
 21
4.38681
  0
LINE
  8
0
 10
66.076
 20
4.38681
 11
65.9889
 21
4.40852
  0
LINE
  8
0
 10
65.9889
 20
4.40852
 11
65.8939
 21
4.42154
  0
LINE
  8
0
 10
65.8939
 20
4.42154
 11
65.7912
 21
4.42589
  0
LINE
  8
0
 10
65.7912
 20
4.42589
 11
65.6533
 21
4.41705
  0
LINE
  8
0
 10
65.6533
 20
4.41705
 11
65.5201
 21
4.39059
  0
LINE
  8
0
 10
65.5201
 20
4.39059
 11
65.3915
 21
4.34647
  0
LINE
  8
0
 10
65.3915
 20
4.34647
 11
65.2676
 21
4.2847
  0
LINE
  8
0
 10
65.2676
 20
4.2847
 11
65.1518
 21
4.20485
  0
LINE
  8
0
 10
65.1518
 20
4.20485
 11
65.0477
 21
4.10651
  0
LINE
  8
0
 10
65.0477
 20
4.10651
 11
64.9553
 21
3.98965
  0
LINE
  8
0
 10
64.9553
 20
3.98965
 11
64.8746
 21
3.85431
  0
LINE
  8
0
 10
64.8746
 20
3.85431
 11
64.809
 21
3.69992
  0
LINE
  8
0
 10
64.809
 20
3.69992
 11
64.7622
 21
3.52586
  0
LINE
  8
0
 10
64.7622
 20
3.52586
 11
64.7342
 21
3.33218
  0
LINE
  8
0
 10
64.7342
 20
3.33218
 11
64.7248
 21
3.11885
  0
LINE
  8
0
 10
64.7248
 20
3.11885
 11
64.7338
 21
2.91144
  0
LINE
  8
0
 10
64.7338
 20
2.91144
 11
64.7607
 21
2.7218
  0
LINE
  8
0
 10
64.7607
 20
2.7218
 11
64.8057
 21
2.54996
  0
LINE
  8
0
 10
64.8057
 20
2.54996
 11
64.8686
 21
2.39589
  0
LINE
  8
0
 10
64.8686
 20
2.39589
 11
64.9468
 21
2.25969
  0
LINE
  8
0
 10
64.9468
 20
2.25969
 11
65.0375
 21
2.14142
  0
LINE
  8
0
 10
65.0375
 20
2.14142
 11
65.1409
 21
2.04109
  0
LINE
  8
0
 10
65.1409
 20
2.04109
 11
65.2568
 21
1.95869
  0
LINE
  8
0
 10
65.2568
 20
1.95869
 11
65.3823
 21
1.89444
  0
LINE
  8
0
 10
65.3823
 20
1.89444
 11
65.5144
 21
1.84854
  0
LINE
  8
0
 10
65.5144
 20
1.84854
 11
65.6531
 21
1.821
  0
LINE
  8
0
 10
65.6531
 20
1.821
 11
65.7984
 21
1.81183
  0
LINE
  8
0
 10
65.7984
 20
1.81183
 11
65.944
 21
1.82043
  0
LINE
  8
0
 10
65.9696
 20
2.44299
 11
65.8699
 21
2.47842
  0
LINE
  8
0
 10
65.8699
 20
2.47842
 11
65.7845
 21
2.53749
  0
LINE
  8
0
 10
65.7845
 20
2.53749
 11
65.7133
 21
2.62018
  0
LINE
  8
0
 10
65.7133
 20
2.62018
 11
65.6572
 21
2.72223
  0
LINE
  8
0
 10
65.6572
 20
2.72223
 11
65.6171
 21
2.83934
  0
LINE
  8
0
 10
65.6171
 20
2.83934
 11
65.5931
 21
2.97156
  0
LINE
  8
0
 10
65.5931
 20
2.97156
 11
65.5851
 21
3.11885
  0
LINE
  8
0
 10
65.5851
 20
3.11885
 11
65.5931
 21
3.26608
  0
LINE
  8
0
 10
65.5931
 20
3.26608
 11
65.6171
 21
3.39807
  0
LINE
  8
0
 10
65.6171
 20
3.39807
 11
65.6572
 21
3.51485
  0
LINE
  8
0
 10
65.6572
 20
3.51485
 11
65.7133
 21
3.61639
  0
LINE
  8
0
 10
65.7133
 20
3.61639
 11
65.7845
 21
3.69858
  0
LINE
  8
0
 10
65.7845
 20
3.69858
 11
65.8699
 21
3.75728
  0
LINE
  8
0
 10
65.8699
 20
3.75728
 11
65.9696
 21
3.79251
  0
LINE
  8
0
 10
65.9696
 20
3.79251
 11
66.0835
 21
3.80424
  0
LINE
  8
0
 10
66.0835
 20
3.80424
 11
66.1967
 21
3.79272
  0
LINE
  8
0
 10
66.1967
 20
3.79272
 11
66.2965
 21
3.75813
  0
LINE
  8
0
 10
66.2965
 20
3.75813
 11
66.383
 21
3.70049
  0
LINE
  8
0
 10
66.383
 20
3.70049
 11
66.4561
 21
3.61978
  0
LINE
  8
0
 10
66.4561
 20
3.61978
 11
66.5143
 21
3.5193
  0
LINE
  8
0
 10
66.5143
 20
3.5193
 11
66.5559
 21
3.40233
  0
LINE
  8
0
 10
66.5559
 20
3.40233
 11
66.5808
 21
3.26884
  0
LINE
  8
0
 10
66.5808
 20
3.26884
 11
66.5892
 21
3.11885
  0
LINE
  8
0
 10
66.5892
 20
3.11885
 11
66.5808
 21
2.97063
  0
LINE
  8
0
 10
66.5808
 20
2.97063
 11
66.5556
 21
2.83792
  0
LINE
  8
0
 10
66.5556
 20
2.83792
 11
66.5137
 21
2.72072
  0
LINE
  8
0
 10
66.5137
 20
2.72072
 11
66.455
 21
2.61903
  0
LINE
  8
0
 10
66.455
 20
2.61903
 11
66.3814
 21
2.53685
  0
LINE
  8
0
 10
66.3814
 20
2.53685
 11
66.295
 21
2.47813
  0
LINE
  8
0
 10
66.295
 20
2.47813
 11
66.1957
 21
2.44292
  0
LINE
  8
0
 10
66.1957
 20
2.44292
 11
66.0835
 21
2.43117
  0
LINE
  8
0
 10
66.0835
 20
2.43117
 11
65.9696
 21
2.44299
  0
LINE
  8
0
 10
57.2085
 20
5.24106
 11
56.3338
 21
5.24106
  0
LINE
  8
0
 10
56.3338
 20
5.24106
 11
55.5381
 21
4.72189
  0
LINE
  8
0
 10
55.5381
 20
4.72189
 11
55.5381
 21
4.01602
  0
LINE
  8
0
 10
55.5381
 20
4.01602
 11
56.3409
 21
4.54199
  0
LINE
  8
0
 10
56.3409
 20
4.54199
 11
56.3649
 21
4.54199
  0
LINE
  8
0
 10
56.3649
 20
4.54199
 11
56.3649
 21
1.84825
  0
LINE
  8
0
 10
56.3649
 20
1.84825
 11
57.2085
 21
1.84825
  0
LINE
  8
0
 10
57.2085
 20
1.84825
 11
57.2085
 21
5.24106
  0
LINE
  8
0
 10
29.7819
 20
3.2532
 11
31.2077
 21
3.2532
  0
LINE
  8
0
 10
31.2077
 20
3.2532
 11
31.2077
 21
1.84825
  0
LINE
  8
0
 10
31.2077
 20
1.84825
 11
32.0513
 21
1.84825
  0
LINE
  8
0
 10
32.0513
 20
1.84825
 11
32.0513
 21
5.24106
  0
LINE
  8
0
 10
32.0513
 20
5.24106
 11
31.2077
 21
5.24106
  0
LINE
  8
0
 10
31.2077
 20
5.24106
 11
31.2077
 21
3.90898
  0
LINE
  8
0
 10
31.2077
 20
3.90898
 11
29.7819
 21
3.90898
  0
LINE
  8
0
 10
29.7819
 20
3.90898
 11
29.7819
 21
5.24106
  0
LINE
  8
0
 10
29.7819
 20
5.24106
 11
28.936
 21
5.24106
  0
LINE
  8
0
 10
28.936
 20
5.24106
 11
28.936
 21
1.84825
  0
LINE
  8
0
 10
28.936
 20
1.84825
 11
29.7819
 21
1.84825
  0
LINE
  8
0
 10
29.7819
 20
1.84825
 11
29.7819
 21
3.2532
  0
LINE
  8
0
 10
27.4969
 20
4.58528
 11
28.5777
 21
4.58528
  0
LINE
  8
0
 10
28.5777
 20
4.58528
 11
28.5777
 21
5.24106
  0
LINE
  8
0
 10
28.5777
 20
5.24106
 11
25.5726
 21
5.24106
  0
LINE
  8
0
 10
25.5726
 20
5.24106
 11
25.5726
 21
4.58528
  0
LINE
  8
0
 10
25.5726
 20
4.58528
 11
26.6534
 21
4.58528
  0
LINE
  8
0
 10
26.6534
 20
4.58528
 11
26.6534
 21
1.84825
  0
LINE
  8
0
 10
26.6534
 20
1.84825
 11
27.4969
 21
1.84825
  0
LINE
  8
0
 10
27.4969
 20
1.84825
 11
27.4969
 21
4.58528
  0
LINE
  8
0
 10
24.5603
 20
1.85594
 11
24.7358
 21
1.879
  0
LINE
  8
0
 10
24.7358
 20
1.879
 11
24.8964
 21
1.91742
  0
LINE
  8
0
 10
24.8964
 20
1.91742
 11
25.0422
 21
1.97122
  0
LINE
  8
0
 10
25.0422
 20
1.97122
 11
25.1724
 21
2.03838
  0
LINE
  8
0
 10
25.1724
 20
2.03838
 11
25.2861
 21
2.11694
  0
LINE
  8
0
 10
25.2861
 20
2.11694
 11
25.3833
 21
2.20689
  0
LINE
  8
0
 10
25.3833
 20
2.20689
 11
25.464
 21
2.30821
  0
LINE
  8
0
 10
25.464
 20
2.30821
 11
25.5274
 21
2.41895
  0
LINE
  8
0
 10
25.5274
 20
2.41895
 11
25.5727
 21
2.53706
  0
LINE
  8
0
 10
25.5727
 20
2.53706
 11
25.5999
 21
2.6626
  0
LINE
  8
0
 10
25.5999
 20
2.6626
 11
25.609
 21
2.79552
  0
LINE
  8
0
 10
25.609
 20
2.79552
 11
25.602
 21
2.91434
  0
LINE
  8
0
 10
25.602
 20
2.91434
 11
25.5811
 21
3.02492
  0
LINE
  8
0
 10
25.5811
 20
3.02492
 11
25.5463
 21
3.12723
  0
LINE
  8
0
 10
25.5463
 20
3.12723
 11
25.4975
 21
3.2213
  0
LINE
  8
0
 10
25.4975
 20
3.2213
 11
25.4373
 21
3.30626
  0
LINE
  8
0
 10
25.4373
 20
3.30626
 11
25.3681
 21
3.38127
  0
LINE
  8
0
 10
25.3681
 20
3.38127
 11
25.29
 21
3.44632
  0
LINE
  8
0
 10
25.29
 20
3.44632
 11
25.2028
 21
3.50139
  0
LINE
  8
0
 10
25.2028
 20
3.50139
 11
25.1093
 21
3.54579
  0
LINE
  8
0
 10
25.1093
 20
3.54579
 11
25.012
 21
3.57881
  0
LINE
  8
0
 10
25.012
 20
3.57881
 11
24.911
 21
3.60045
  0
LINE
  8
0
 10
24.911
 20
3.60045
 11
24.8062
 21
3.61069
  0
LINE
  8
0
 10
24.8062
 20
3.61069
 11
24.8062
 21
3.64711
  0
LINE
  8
0
 10
24.8062
 20
3.64711
 11
24.9457
 21
3.68405
  0
LINE
  8
0
 10
24.9457
 20
3.68405
 11
25.0719
 21
3.73793
  0
LINE
  8
0
 10
25.0719
 20
3.73793
 11
25.1847
 21
3.80872
  0
LINE
  8
0
 10
25.1847
 20
3.80872
 11
25.2843
 21
3.89645
  0
LINE
  8
0
 10
25.2843
 20
3.89645
 11
25.3655
 21
3.99886
  0
LINE
  8
0
 10
25.3655
 20
3.99886
 11
25.4235
 21
4.11363
  0
LINE
  8
0
 10
25.4235
 20
4.11363
 11
25.4584
 21
4.2408
  0
LINE
  8
0
 10
25.4584
 20
4.2408
 11
25.47
 21
4.38033
  0
LINE
  8
0
 10
25.47
 20
4.38033
 11
25.4509
 21
4.56355
  0
LINE
  8
0
 10
25.4509
 20
4.56355
 11
25.3936
 21
4.72842
  0
LINE
  8
0
 10
25.3936
 20
4.72842
 11
25.2981
 21
4.87494
  0
LINE
  8
0
 10
25.2981
 20
4.87494
 11
25.1644
 21
5.0031
  0
LINE
  8
0
 10
25.1644
 20
5.0031
 11
24.9933
 21
5.10721
  0
LINE
  8
0
 10
24.9933
 20
5.10721
 11
24.7855
 21
5.18156
  0
LINE
  8
0
 10
24.7855
 20
5.18156
 11
24.541
 21
5.22618
  0
LINE
  8
0
 10
24.541
 20
5.22618
 11
24.2598
 21
5.24106
  0
LINE
  8
0
 10
24.2598
 20
5.24106
 11
22.7789
 21
5.24106
  0
LINE
  8
0
 10
22.7789
 20
5.24106
 11
22.7789
 21
1.84825
  0
LINE
  8
0
 10
22.7789
 20
1.84825
 11
24.37
 21
1.84825
  0
LINE
  8
0
 10
24.37
 20
1.84825
 11
24.5603
 21
1.85594
  0
LINE
  8
0
 10
23.6248
 20
3.84297
 11
23.6248
 21
4.59894
  0
LINE
  8
0
 10
23.6248
 20
4.59894
 11
24.1304
 21
4.59894
  0
LINE
  8
0
 10
24.1304
 20
4.59894
 11
24.2339
 21
4.59268
  0
LINE
  8
0
 10
24.2339
 20
4.59268
 11
24.3263
 21
4.5739
  0
LINE
  8
0
 10
24.3263
 20
4.5739
 11
24.4076
 21
4.54259
  0
LINE
  8
0
 10
24.4076
 20
4.54259
 11
24.4779
 21
4.49875
  0
LINE
  8
0
 10
24.4779
 20
4.49875
 11
24.5345
 21
4.44424
  0
LINE
  8
0
 10
24.5345
 20
4.44424
 11
24.5749
 21
4.38091
  0
LINE
  8
0
 10
24.5749
 20
4.38091
 11
24.5992
 21
4.30876
  0
LINE
  8
0
 10
24.5992
 20
4.30876
 11
24.6073
 21
4.22778
  0
LINE
  8
0
 10
24.6073
 20
4.22778
 11
24.5986
 21
4.14082
  0
LINE
  8
0
 10
24.5986
 20
4.14082
 11
24.5725
 21
4.06438
  0
LINE
  8
0
 10
24.5725
 20
4.06438
 11
24.5291
 21
3.99849
  0
LINE
  8
0
 10
24.5291
 20
3.99849
 11
24.4683
 21
3.94313
  0
LINE
  8
0
 10
24.4683
 20
3.94313
 11
24.3941
 21
3.89931
  0
LINE
  8
0
 10
24.3941
 20
3.89931
 11
24.3107
 21
3.86801
  0
LINE
  8
0
 10
24.3107
 20
3.86801
 11
24.218
 21
3.84923
  0
LINE
  8
0
 10
24.218
 20
3.84923
 11
24.116
 21
3.84297
  0
LINE
  8
0
 10
24.116
 20
3.84297
 11
23.6248
 21
3.84297
  0
LINE
  8
0
 10
23.6248
 20
2.49722
 11
23.6248
 21
3.32152
  0
LINE
  8
0
 10
23.6248
 20
3.32152
 11
24.1879
 21
3.32152
  0
LINE
  8
0
 10
24.1879
 20
3.32152
 11
24.306
 21
3.31412
  0
LINE
  8
0
 10
24.306
 20
3.31412
 11
24.4111
 21
3.29192
  0
LINE
  8
0
 10
24.4111
 20
3.29192
 11
24.5031
 21
3.25491
  0
LINE
  8
0
 10
24.5031
 20
3.25491
 11
24.5821
 21
3.20309
  0
LINE
  8
0
 10
24.5821
 20
3.20309
 11
24.6456
 21
3.13892
  0
LINE
  8
0
 10
24.6456
 20
3.13892
 11
24.6909
 21
3.06477
  0
LINE
  8
0
 10
24.6909
 20
3.06477
 11
24.718
 21
2.98068
  0
LINE
  8
0
 10
24.718
 20
2.98068
 11
24.7271
 21
2.88661
  0
LINE
  8
0
 10
24.7271
 20
2.88661
 11
24.7186
 21
2.80043
  0
LINE
  8
0
 10
24.7186
 20
2.80043
 11
24.6933
 21
2.72406
  0
LINE
  8
0
 10
24.6933
 20
2.72406
 11
24.6509
 21
2.65753
  0
LINE
  8
0
 10
24.6509
 20
2.65753
 11
24.5917
 21
2.6008
  0
LINE
  8
0
 10
24.5917
 20
2.6008
 11
24.5146
 21
2.55548
  0
LINE
  8
0
 10
24.5146
 20
2.55548
 11
24.4189
 21
2.52312
  0
LINE
  8
0
 10
24.4189
 20
2.52312
 11
24.3044
 21
2.50369
  0
LINE
  8
0
 10
24.3044
 20
2.50369
 11
24.1711
 21
2.49722
  0
LINE
  8
0
 10
24.1711
 20
2.49722
 11
23.6248
 21
2.49722
  0
LINE
  8
0
 10
16.8476
 20
3.3101
 11
16.8472
 21
3.37863
  0
LINE
  8
0
 10
16.8472
 20
3.37863
 11
16.8461
 21
3.4567
  0
LINE
  8
0
 10
16.8461
 20
3.4567
 11
16.8442
 21
3.54428
  0
LINE
  8
0
 10
16.8442
 20
3.54428
 11
16.8416
 21
3.6414
  0
LINE
  8
0
 10
16.8416
 20
3.6414
 11
16.8385
 21
3.74538
  0
LINE
  8
0
 10
16.8385
 20
3.74538
 11
16.8319
 21
3.96568
  0
LINE
  8
0
 10
16.8319
 20
3.96568
 11
16.8284
 21
4.08203
  0
LINE
  8
0
 10
16.8284
 20
4.08203
 11
16.825
 21
4.19958
  0
LINE
  8
0
 10
16.825
 20
4.19958
 11
16.8218
 21
4.31543
  0
LINE
  8
0
 10
16.8218
 20
4.31543
 11
16.819
 21
4.42957
  0
LINE
  8
0
 10
16.819
 20
4.42957
 11
16.8164
 21
4.54199
  0
LINE
  8
0
 10
16.8164
 20
4.54199
 11
16.8468
 21
4.42267
  0
LINE
  8
0
 10
16.8468
 20
4.42267
 11
16.8778
 21
4.30377
  0
LINE
  8
0
 10
16.8778
 20
4.30377
 11
16.9097
 21
4.1853
  0
LINE
  8
0
 10
16.9097
 20
4.1853
 11
16.9422
 21
4.06726
  0
LINE
  8
0
 10
16.9422
 20
4.06726
 11
16.9748
 21
3.95177
  0
LINE
  8
0
 10
16.9748
 20
3.95177
 11
17.0067
 21
3.84097
  0
LINE
  8
0
 10
17.0067
 20
3.84097
 11
17.0377
 21
3.73486
  0
LINE
  8
0
 10
17.0377
 20
3.73486
 11
17.068
 21
3.63345
  0
LINE
  8
0
 10
17.068
 20
3.63345
 11
17.0968
 21
3.53896
  0
LINE
  8
0
 10
17.0968
 20
3.53896
 11
17.1232
 21
3.45357
  0
LINE
  8
0
 10
17.1232
 20
3.45357
 11
17.1471
 21
3.37727
  0
LINE
  8
0
 10
17.1471
 20
3.37727
 11
17.1687
 21
3.3101
  0
LINE
  8
0
 10
17.1687
 20
3.3101
 11
17.6839
 21
1.84825
  0
LINE
  8
0
 10
17.6839
 20
1.84825
 11
18.3909
 21
1.84825
  0
LINE
  8
0
 10
18.3909
 20
1.84825
 11
18.8989
 21
3.3101
  0
LINE
  8
0
 10
18.8989
 20
3.3101
 11
18.9215
 21
3.37978
  0
LINE
  8
0
 10
18.9215
 20
3.37978
 11
18.9462
 21
3.45898
  0
LINE
  8
0
 10
18.9462
 20
3.45898
 11
18.973
 21
3.54771
  0
LINE
  8
0
 10
18.973
 20
3.54771
 11
19.0019
 21
3.64598
  0
LINE
  8
0
 10
19.0019
 20
3.64598
 11
19.0323
 21
3.75137
  0
LINE
  8
0
 10
19.0323
 20
3.75137
 11
19.0633
 21
3.86145
  0
LINE
  8
0
 10
19.0633
 20
3.86145
 11
19.0952
 21
3.97623
  0
LINE
  8
0
 10
19.0952
 20
3.97623
 11
19.1277
 21
4.0957
  0
LINE
  8
0
 10
19.1277
 20
4.0957
 11
19.1603
 21
4.21738
  0
LINE
  8
0
 10
19.1603
 20
4.21738
 11
19.1921
 21
4.33878
  0
LINE
  8
0
 10
19.1921
 20
4.33878
 11
19.2232
 21
4.45988
  0
LINE
  8
0
 10
19.2232
 20
4.45988
 11
19.2535
 21
4.5807
  0
LINE
  8
0
 10
19.2535
 20
4.5807
 11
19.251
 21
4.46573
  0
LINE
  8
0
 10
19.251
 20
4.46573
 11
19.2481
 21
4.34846
  0
LINE
  8
0
 10
19.2481
 20
4.34846
 11
19.245
 21
4.22891
  0
LINE
  8
0
 10
19.245
 20
4.22891
 11
19.2416
 21
4.10707
  0
LINE
  8
0
 10
19.2416
 20
4.10707
 11
19.2347
 21
3.87
  0
LINE
  8
0
 10
19.2347
 20
3.87
 11
19.2284
 21
3.65054
  0
LINE
  8
0
 10
19.2284
 20
3.65054
 11
19.2258
 21
3.55028
  0
LINE
  8
0
 10
19.2258
 20
3.55028
 11
19.2239
 21
3.46011
  0
LINE
  8
0
 10
19.2239
 20
3.46011
 11
19.2227
 21
3.38007
  0
LINE
  8
0
 10
19.2227
 20
3.38007
 11
19.2224
 21
3.3101
  0
LINE
  8
0
 10
19.2224
 20
3.3101
 11
19.2224
 21
1.84825
  0
LINE
  8
0
 10
19.2224
 20
1.84825
 11
20.0731
 21
1.84825
  0
LINE
  8
0
 10
20.0731
 20
1.84825
 11
20.0731
 21
5.24106
  0
LINE
  8
0
 10
20.0731
 20
5.24106
 11
18.7527
 21
5.24106
  0
LINE
  8
0
 10
18.7527
 20
5.24106
 11
18.3046
 21
3.92036
  0
LINE
  8
0
 10
18.3046
 20
3.92036
 11
18.2859
 21
3.85782
  0
LINE
  8
0
 10
18.2859
 20
3.85782
 11
18.2659
 21
3.78632
  0
LINE
  8
0
 10
18.2659
 20
3.78632
 11
18.2446
 21
3.70584
  0
LINE
  8
0
 10
18.2446
 20
3.70584
 11
18.2219
 21
3.61639
  0
LINE
  8
0
 10
18.2219
 20
3.61639
 11
18.1985
 21
3.52075
  0
LINE
  8
0
 10
18.1985
 20
3.52075
 11
18.1752
 21
3.42169
  0
LINE
  8
0
 10
18.1752
 20
3.42169
 11
18.1518
 21
3.31923
  0
LINE
  8
0
 10
18.1518
 20
3.31923
 11
18.1284
 21
3.21333
  0
LINE
  8
0
 10
18.1284
 20
3.21333
 11
18.1055
 21
3.10654
  0
LINE
  8
0
 10
18.1055
 20
3.10654
 11
18.0832
 21
3.0013
  0
LINE
  8
0
 10
18.0832
 20
3.0013
 11
18.0617
 21
2.89763
  0
LINE
  8
0
 10
18.0617
 20
2.89763
 11
18.041
 21
2.79552
  0
LINE
  8
0
 10
18.041
 20
2.79552
 11
18.0191
 21
2.89771
  0
LINE
  8
0
 10
18.0191
 20
2.89771
 11
17.9966
 21
3.00159
  0
LINE
  8
0
 10
17.9966
 20
3.00159
 11
17.9736
 21
3.10718
  0
LINE
  8
0
 10
17.9736
 20
3.10718
 11
17.9499
 21
3.21448
  0
LINE
  8
0
 10
17.9499
 20
3.21448
 11
17.926
 21
3.3208
  0
LINE
  8
0
 10
17.926
 20
3.3208
 11
17.9023
 21
3.42342
  0
LINE
  8
0
 10
17.9023
 20
3.42342
 11
17.8787
 21
3.52232
  0
LINE
  8
0
 10
17.8787
 20
3.52232
 11
17.8553
 21
3.61754
  0
LINE
  8
0
 10
17.8553
 20
3.61754
 11
17.8326
 21
3.70648
  0
LINE
  8
0
 10
17.8326
 20
3.70648
 11
17.8112
 21
3.78661
  0
LINE
  8
0
 10
17.8112
 20
3.78661
 11
17.7912
 21
3.85789
  0
LINE
  8
0
 10
17.7912
 20
3.85789
 11
17.7726
 21
3.92036
  0
LINE
  8
0
 10
17.7726
 20
3.92036
 11
17.3173
 21
5.24106
  0
LINE
  8
0
 10
17.3173
 20
5.24106
 11
15.9993
 21
5.24106
  0
LINE
  8
0
 10
15.9993
 20
5.24106
 11
15.9993
 21
1.84825
  0
LINE
  8
0
 10
15.9993
 20
1.84825
 11
16.8476
 21
1.84825
  0
LINE
  8
0
 10
16.8476
 20
1.84825
 11
16.8476
 21
3.3101
  0
LINE
  8
0
 10
68.7205
 20
3.23724
 11
68.73
 21
3.34569
  0
LINE
  8
0
 10
68.73
 20
3.34569
 11
68.7585
 21
3.44331
  0
LINE
  8
0
 10
68.7585
 20
3.44331
 11
68.8061
 21
3.53014
  0
LINE
  8
0
 10
68.8061
 20
3.53014
 11
68.8727
 21
3.60611
  0
LINE
  8
0
 10
68.8727
 20
3.60611
 11
68.9538
 21
3.66789
  0
LINE
  8
0
 10
68.9538
 20
3.66789
 11
69.0449
 21
3.71201
  0
LINE
  8
0
 10
69.0449
 20
3.71201
 11
69.1461
 21
3.73848
  0
LINE
  8
0
 10
69.1461
 20
3.73848
 11
69.2573
 21
3.7473
  0
LINE
  8
0
 10
69.2573
 20
3.7473
 11
69.2969
 21
3.74666
  0
LINE
  8
0
 10
69.2969
 20
3.74666
 11
69.3391
 21
3.74475
  0
LINE
  8
0
 10
69.3391
 20
3.74475
 11
69.3838
 21
3.74155
  0
LINE
  8
0
 10
69.3838
 20
3.74155
 11
69.431
 21
3.73706
  0
LINE
  8
0
 10
69.431
 20
3.73706
 11
69.4772
 21
3.73131
  0
LINE
  8
0
 10
69.4772
 20
3.73131
 11
69.5188
 21
3.72426
  0
LINE
  8
0
 10
69.5188
 20
3.72426
 11
69.5557
 21
3.71594
  0
LINE
  8
0
 10
69.5557
 20
3.71594
 11
69.588
 21
3.70634
  0
LINE
  8
0
 10
69.588
 20
3.70634
 11
69.588
 21
4.39856
  0
LINE
  8
0
 10
69.588
 20
4.39856
 11
69.53
 21
4.41051
  0
LINE
  8
0
 10
69.53
 20
4.41051
 11
69.4712
 21
4.41905
  0
LINE
  8
0
 10
69.4712
 20
4.41905
 11
69.4114
 21
4.42418
  0
LINE
  8
0
 10
69.4114
 20
4.42418
 11
69.3508
 21
4.42589
  0
LINE
  8
0
 10
69.3508
 20
4.42589
 11
69.2439
 21
4.4182
  0
LINE
  8
0
 10
69.2439
 20
4.4182
 11
69.1438
 21
4.39514
  0
LINE
  8
0
 10
69.1438
 20
4.39514
 11
69.0504
 21
4.35672
  0
LINE
  8
0
 10
69.0504
 20
4.35672
 11
68.9637
 21
4.30293
  0
LINE
  8
0
 10
68.9637
 20
4.30293
 11
68.8864
 21
4.23347
  0
LINE
  8
0
 10
68.8864
 20
4.23347
 11
68.8208
 21
4.14809
  0
LINE
  8
0
 10
68.8208
 20
4.14809
 11
68.7672
 21
4.04675
  0
LINE
  8
0
 10
68.7672
 20
4.04675
 11
68.7253
 21
3.92949
  0
LINE
  8
0
 10
68.7253
 20
3.92949
 11
68.6965
 21
3.92949
  0
LINE
  8
0
 10
68.6965
 20
3.92949
 11
68.6965
 21
4.394
  0
LINE
  8
0
 10
68.6965
 20
4.394
 11
67.8842
 21
4.394
  0
LINE
  8
0
 10
67.8842
 20
4.394
 11
67.8842
 21
1.84825
  0
LINE
  8
0
 10
67.8842
 20
1.84825
 11
68.7205
 21
1.84825
  0
LINE
  8
0
 10
68.7205
 20
1.84825
 11
68.7205
 21
3.23724
  0
LINE
  8
0
 10
70.8093
 20
1.82791
 11
71.0241
 21
1.90347
  0
LINE
  8
0
 10
71.0241
 20
1.90347
 11
71.1975
 21
2.02942
  0
LINE
  8
0
 10
71.1975
 20
2.02942
 11
71.3296
 21
2.20575
  0
LINE
  8
0
 10
71.3296
 20
2.20575
 11
71.3512
 21
2.20575
  0
LINE
  8
0
 10
71.3512
 20
2.20575
 11
71.3512
 21
1.84825
  0
LINE
  8
0
 10
71.3512
 20
1.84825
 11
72.1372
 21
1.84825
  0
LINE
  8
0
 10
72.1372
 20
1.84825
 11
72.1372
 21
3.57654
  0
LINE
  8
0
 10
72.1372
 20
3.57654
 11
72.1273
 21
3.70796
  0
LINE
  8
0
 10
72.1273
 20
3.70796
 11
72.0974
 21
3.82899
  0
LINE
  8
0
 10
72.0974
 20
3.82899
 11
72.0476
 21
3.93964
  0
LINE
  8
0
 10
72.0476
 20
3.93964
 11
71.9779
 21
4.03989
  0
LINE
  8
0
 10
71.9779
 20
4.03989
 11
71.8913
 21
4.1292
  0
LINE
  8
0
 10
71.8913
 20
4.1292
 11
71.7909
 21
4.20697
  0
LINE
  8
0
 10
71.7909
 20
4.20697
 11
71.6768
 21
4.27322
  0
LINE
  8
0
 10
71.6768
 20
4.27322
 11
71.5489
 21
4.32794
  0
LINE
  8
0
 10
71.5489
 20
4.32794
 11
71.4101
 21
4.37079
  0
LINE
  8
0
 10
71.4101
 20
4.37079
 11
71.2634
 21
4.4014
  0
LINE
  8
0
 10
71.2634
 20
4.4014
 11
71.1088
 21
4.41977
  0
LINE
  8
0
 10
71.1088
 20
4.41977
 11
70.9462
 21
4.42589
  0
LINE
  8
0
 10
70.9462
 20
4.42589
 11
70.7068
 21
4.41315
  0
LINE
  8
0
 10
70.7068
 20
4.41315
 11
70.4918
 21
4.37494
  0
LINE
  8
0
 10
70.4918
 20
4.37494
 11
70.3012
 21
4.31125
  0
LINE
  8
0
 10
70.3012
 20
4.31125
 11
70.135
 21
4.22208
  0
LINE
  8
0
 10
70.135
 20
4.22208
 11
69.9954
 21
4.11258
  0
LINE
  8
0
 10
69.9954
 20
4.11258
 11
69.8843
 21
3.98784
  0
LINE
  8
0
 10
69.8843
 20
3.98784
 11
69.8019
 21
3.84787
  0
LINE
  8
0
 10
69.8019
 20
3.84787
 11
69.748
 21
3.69267
  0
LINE
  8
0
 10
69.748
 20
3.69267
 11
70.5053
 21
3.5993
  0
LINE
  8
0
 10
70.5053
 20
3.5993
 11
70.527
 21
3.65651
  0
LINE
  8
0
 10
70.527
 20
3.65651
 11
70.5586
 21
3.70744
  0
LINE
  8
0
 10
70.5586
 20
3.70744
 11
70.6001
 21
3.75214
  0
LINE
  8
0
 10
70.6001
 20
3.75214
 11
70.6515
 21
3.79056
  0
LINE
  8
0
 10
70.6515
 20
3.79056
 11
70.7117
 21
3.82144
  0
LINE
  8
0
 10
70.7117
 20
3.82144
 11
70.7797
 21
3.84351
  0
LINE
  8
0
 10
70.7797
 20
3.84351
 11
70.8555
 21
3.85675
  0
LINE
  8
0
 10
70.8555
 20
3.85675
 11
70.939
 21
3.86116
  0
LINE
  8
0
 10
70.939
 20
3.86116
 11
71.0195
 21
3.85669
  0
LINE
  8
0
 10
71.0195
 20
3.85669
 11
71.0909
 21
3.84323
  0
LINE
  8
0
 10
71.0909
 20
3.84323
 11
71.1531
 21
3.82082
  0
LINE
  8
0
 10
71.1531
 20
3.82082
 11
71.2062
 21
3.78944
  0
LINE
  8
0
 10
71.2062
 20
3.78944
 11
71.2487
 21
3.74982
  0
LINE
  8
0
 10
71.2487
 20
3.74982
 11
71.279
 21
3.70264
  0
LINE
  8
0
 10
71.279
 20
3.70264
 11
71.2972
 21
3.6479
  0
LINE
  8
0
 10
71.2972
 20
3.6479
 11
71.3033
 21
3.58563
  0
LINE
  8
0
 10
71.3033
 20
3.58563
 11
71.3033
 21
3.57654
  0
LINE
  8
0
 10
71.3033
 20
3.57654
 11
71.2941
 21
3.52225
  0
LINE
  8
0
 10
71.2941
 20
3.52225
 11
71.2664
 21
3.47778
  0
LINE
  8
0
 10
71.2664
 20
3.47778
 11
71.2204
 21
3.44313
  0
LINE
  8
0
 10
71.2204
 20
3.44313
 11
71.1559
 21
3.41829
  0
LINE
  8
0
 10
71.1559
 20
3.41829
 11
71.0701
 21
3.39914
  0
LINE
  8
0
 10
71.0701
 20
3.39914
 11
70.9603
 21
3.38156
  0
LINE
  8
0
 10
70.9603
 20
3.38156
 11
70.8263
 21
3.36555
  0
LINE
  8
0
 10
70.8263
 20
3.36555
 11
70.6682
 21
3.3511
  0
LINE
  8
0
 10
70.6682
 20
3.3511
 11
70.5356
 21
3.33617
  0
LINE
  8
0
 10
70.5356
 20
3.33617
 11
70.4085
 21
3.3141
  0
LINE
  8
0
 10
70.4085
 20
3.3141
 11
70.287
 21
3.28493
  0
LINE
  8
0
 10
70.287
 20
3.28493
 11
70.171
 21
3.24863
  0
LINE
  8
0
 10
70.171
 20
3.24863
 11
70.0634
 21
3.20338
  0
LINE
  8
0
 10
70.0634
 20
3.20338
 11
69.967
 21
3.14731
  0
LINE
  8
0
 10
69.967
 20
3.14731
 11
69.8818
 21
3.08043
  0
LINE
  8
0
 10
69.8818
 20
3.08043
 11
69.8079
 21
3.00272
  0
LINE
  8
0
 10
69.8079
 20
3.00272
 11
69.7482
 21
2.91235
  0
LINE
  8
0
 10
69.7482
 20
2.91235
 11
69.7055
 21
2.80746
  0
LINE
  8
0
 10
69.7055
 20
2.80746
 11
69.6799
 21
2.68806
  0
LINE
  8
0
 10
69.6799
 20
2.68806
 11
69.6713
 21
2.55414
  0
LINE
  8
0
 10
69.6713
 20
2.55414
 11
69.6868
 21
2.37711
  0
LINE
  8
0
 10
69.6868
 20
2.37711
 11
69.7334
 21
2.22397
  0
LINE
  8
0
 10
69.7334
 20
2.22397
 11
69.8109
 21
2.09476
  0
LINE
  8
0
 10
69.8109
 20
2.09476
 11
69.9194
 21
1.98944
  0
LINE
  8
0
 10
69.9194
 20
1.98944
 11
70.052
 21
1.90776
  0
LINE
  8
0
 10
70.052
 20
1.90776
 11
70.2018
 21
1.84941
  0
LINE
  8
0
 10
70.2018
 20
1.84941
 11
70.3689
 21
1.81439
  0
LINE
  8
0
 10
70.3689
 20
1.81439
 11
70.5532
 21
1.80273
  0
LINE
  8
0
 10
70.5532
 20
1.80273
 11
70.8093
 21
1.82791
  0
LINE
  8
0
 10
70.7351
 20
2.3329
 11
70.6697
 21
2.34549
  0
LINE
  8
0
 10
70.6697
 20
2.34549
 11
70.6111
 21
2.36649
  0
LINE
  8
0
 10
70.6111
 20
2.36649
 11
70.5592
 21
2.39589
  0
LINE
  8
0
 10
70.5592
 20
2.39589
 11
70.5167
 21
2.43324
  0
LINE
  8
0
 10
70.5167
 20
2.43324
 11
70.4864
 21
2.47815
  0
LINE
  8
0
 10
70.4864
 20
2.47815
 11
70.4682
 21
2.53059
  0
LINE
  8
0
 10
70.4682
 20
2.53059
 11
70.4622
 21
2.59056
  0
LINE
  8
0
 10
70.4622
 20
2.59056
 11
70.4863
 21
2.70256
  0
LINE
  8
0
 10
70.4863
 20
2.70256
 11
70.5586
 21
2.79037
  0
LINE
  8
0
 10
70.5586
 20
2.79037
 11
70.6792
 21
2.85399
  0
LINE
  8
0
 10
70.6792
 20
2.85399
 11
70.848
 21
2.89342
  0
LINE
  8
0
 10
70.848
 20
2.89342
 11
70.9079
 21
2.90295
  0
LINE
  8
0
 10
70.9079
 20
2.90295
 11
70.9702
 21
2.91333
  0
LINE
  8
0
 10
70.9702
 20
2.91333
 11
71.0349
 21
2.92458
  0
LINE
  8
0
 10
71.0349
 20
2.92458
 11
71.102
 21
2.93668
  0
LINE
  8
0
 10
71.102
 20
2.93668
 11
71.1662
 21
2.94991
  0
LINE
  8
0
 10
71.1662
 20
2.94991
 11
71.2224
 21
2.96457
  0
LINE
  8
0
 10
71.2224
 20
2.96457
 11
71.2705
 21
2.98067
  0
LINE
  8
0
 10
71.2705
 20
2.98067
 11
71.3105
 21
2.99818
  0
LINE
  8
0
 10
71.3105
 20
2.99818
 11
71.3105
 21
2.75452
  0
LINE
  8
0
 10
71.3105
 20
2.75452
 11
71.3013
 21
2.66443
  0
LINE
  8
0
 10
71.3013
 20
2.66443
 11
71.2739
 21
2.58316
  0
LINE
  8
0
 10
71.2739
 20
2.58316
 11
71.2282
 21
2.51071
  0
LINE
  8
0
 10
71.2282
 20
2.51071
 11
71.1643
 21
2.4471
  0
LINE
  8
0
 10
71.1643
 20
2.4471
 11
71.0872
 21
2.39529
  0
LINE
  8
0
 10
71.0872
 20
2.39529
 11
71.0019
 21
2.35831
  0
LINE
  8
0
 10
71.0019
 20
2.35831
 11
70.9086
 21
2.33611
  0
LINE
  8
0
 10
70.9086
 20
2.33611
 11
70.8072
 21
2.3287
  0
LINE
  8
0
 10
70.8072
 20
2.3287
 11
70.7351
 21
2.3329
  0
LINE
  8
0
 10
51.0368
 20
4.394
 11
50.1645
 21
4.394
  0
LINE
  8
0
 10
50.1645
 20
4.394
 11
49.7715
 21
3.14844
  0
LINE
  8
0
 10
49.7715
 20
3.14844
 11
49.7447
 21
3.06184
  0
LINE
  8
0
 10
49.7447
 20
3.06184
 11
49.7194
 21
2.9751
  0
LINE
  8
0
 10
49.7194
 20
2.9751
 11
49.6956
 21
2.88821
  0
LINE
  8
0
 10
49.6956
 20
2.88821
 11
49.6732
 21
2.80119
  0
LINE
  8
0
 10
49.6732
 20
2.80119
 11
49.652
 21
2.71346
  0
LINE
  8
0
 10
49.652
 20
2.71346
 11
49.6313
 21
2.62444
  0
LINE
  8
0
 10
49.6313
 20
2.62444
 11
49.6113
 21
2.53413
  0
LINE
  8
0
 10
49.6113
 20
2.53413
 11
49.5918
 21
2.44257
  0
LINE
  8
0
 10
49.5918
 20
2.44257
 11
49.5701
 21
2.53421
  0
LINE
  8
0
 10
49.5701
 20
2.53421
 11
49.5484
 21
2.62473
  0
LINE
  8
0
 10
49.5484
 20
2.62473
 11
49.5264
 21
2.7141
  0
LINE
  8
0
 10
49.5264
 20
2.7141
 11
49.5043
 21
2.80234
  0
LINE
  8
0
 10
49.5043
 20
2.80234
 11
49.4815
 21
2.88971
  0
LINE
  8
0
 10
49.4815
 20
2.88971
 11
49.4573
 21
2.97653
  0
LINE
  8
0
 10
49.4573
 20
2.97653
 11
49.4318
 21
3.06277
  0
LINE
  8
0
 10
49.4318
 20
3.06277
 11
49.4049
 21
3.14844
  0
LINE
  8
0
 10
49.4049
 20
3.14844
 11
49.0047
 21
4.394
  0
LINE
  8
0
 10
49.0047
 20
4.394
 11
48.1228
 21
4.394
  0
LINE
  8
0
 10
48.1228
 20
4.394
 11
49.0934
 21
1.84825
  0
LINE
  8
0
 10
49.0934
 20
1.84825
 11
50.0615
 21
1.84825
  0
LINE
  8
0
 10
50.0615
 20
1.84825
 11
51.0368
 21
4.394
  0
LINE
  8
0
 10
46.2892
 20
3.03766
 11
46.3736
 21
3.0605
  0
LINE
  8
0
 10
46.3736
 20
3.0605
 11
46.4503
 21
3.09857
  0
LINE
  8
0
 10
46.4503
 20
3.09857
 11
46.5194
 21
3.15186
  0
LINE
  8
0
 10
46.5194
 20
3.15186
 11
46.5766
 21
3.2164
  0
LINE
  8
0
 10
46.5766
 20
3.2164
 11
46.6174
 21
3.28819
  0
LINE
  8
0
 10
46.6174
 20
3.28819
 11
46.6419
 21
3.36726
  0
LINE
  8
0
 10
46.6419
 20
3.36726
 11
46.65
 21
3.45358
  0
LINE
  8
0
 10
46.65
 20
3.45358
 11
46.6419
 21
3.54088
  0
LINE
  8
0
 10
46.6419
 20
3.54088
 11
46.6174
 21
3.62065
  0
LINE
  8
0
 10
46.6174
 20
3.62065
 11
46.5766
 21
3.69287
  0
LINE
  8
0
 10
46.5766
 20
3.69287
 11
46.5194
 21
3.75755
  0
LINE
  8
0
 10
46.5194
 20
3.75755
 11
46.4503
 21
3.81085
  0
LINE
  8
0
 10
46.4503
 20
3.81085
 11
46.3736
 21
3.84894
  0
LINE
  8
0
 10
46.3736
 20
3.84894
 11
46.2892
 21
3.87178
  0
LINE
  8
0
 10
46.2892
 20
3.87178
 11
46.1971
 21
3.87939
  0
LINE
  8
0
 10
46.1971
 20
3.87939
 11
46.1051
 21
3.87178
  0
LINE
  8
0
 10
46.1051
 20
3.87178
 11
46.0207
 21
3.84894
  0
LINE
  8
0
 10
46.0207
 20
3.84894
 11
45.9439
 21
3.81085
  0
LINE
  8
0
 10
45.9439
 20
3.81085
 11
45.8748
 21
3.75755
  0
LINE
  8
0
 10
45.8748
 20
3.75755
 11
45.8177
 21
3.69287
  0
LINE
  8
0
 10
45.8177
 20
3.69287
 11
45.7769
 21
3.62065
  0
LINE
  8
0
 10
45.7769
 20
3.62065
 11
45.7524
 21
3.54088
  0
LINE
  8
0
 10
45.7524
 20
3.54088
 11
45.7442
 21
3.45358
  0
LINE
  8
0
 10
45.7442
 20
3.45358
 11
45.7524
 21
3.36726
  0
LINE
  8
0
 10
45.7524
 20
3.36726
 11
45.7769
 21
3.28819
  0
LINE
  8
0
 10
45.7769
 20
3.28819
 11
45.8177
 21
3.2164
  0
LINE
  8
0
 10
45.8177
 20
3.2164
 11
45.8748
 21
3.15186
  0
LINE
  8
0
 10
45.8748
 20
3.15186
 11
45.9439
 21
3.09857
  0
LINE
  8
0
 10
45.9439
 20
3.09857
 11
46.0207
 21
3.0605
  0
LINE
  8
0
 10
46.0207
 20
3.0605
 11
46.1051
 21
3.03766
  0
LINE
  8
0
 10
46.1051
 20
3.03766
 11
46.1971
 21
3.03004
  0
LINE
  8
0
 10
46.1971
 20
3.03004
 11
46.2892
 21
3.03766
  0
LINE
  8
0
 10
22.222
 20
3.84978
 11
20.5757
 21
3.84978
  0
LINE
  8
0
 10
20.5757
 20
3.84978
 11
20.5757
 21
3.23724
  0
LINE
  8
0
 10
20.5757
 20
3.23724
 11
22.222
 21
3.23724
  0
LINE
  8
0
 10
22.222
 20
3.23724
 11
22.222
 21
3.84978
  0
LINE
  8
0
 10
34.2249
 20
3.84978
 11
32.5786
 21
3.84978
  0
LINE
  8
0
 10
32.5786
 20
3.84978
 11
32.5786
 21
3.23724
  0
LINE
  8
0
 10
32.5786
 20
3.23724
 11
34.2249
 21
3.23724
  0
LINE
  8
0
 10
34.2249
 20
3.23724
 11
34.2249
 21
3.84978
  0
LINE
  8
0
 10
64.2734
 20
3.52872
 11
62.6271
 21
3.52872
  0
LINE
  8
0
 10
62.6271
 20
3.52872
 11
62.6271
 21
2.91618
  0
LINE
  8
0
 10
62.6271
 20
2.91618
 11
64.2734
 21
2.91618
  0
LINE
  8
0
 10
64.2734
 20
2.91618
 11
64.2734
 21
3.52872
  0
LINE
  8
0
 10
7.56636
 20
0.800369
 11
7.64903
 21
0.80159
  0
LINE
  8
0
 10
7.64903
 20
0.80159
 11
7.73042
 21
0.803802
  0
LINE
  8
0
 10
7.73042
 20
0.803802
 11
7.81062
 21
0.807144
  0
LINE
  8
0
 10
7.81062
 20
0.807144
 11
7.88969
 21
0.811752
  0
LINE
  8
0
 10
7.88969
 20
0.811752
 11
7.96771
 21
0.81778
  0
LINE
  8
0
 10
7.96771
 20
0.81778
 11
8.04474
 21
0.825363
  0
LINE
  8
0
 10
8.04474
 20
0.825363
 11
8.12083
 21
0.834625
  0
LINE
  8
0
 10
8.12083
 20
0.834625
 11
8.19609
 21
0.845734
  0
LINE
  8
0
 10
8.19609
 20
0.845734
 11
8.27058
 21
0.85881
  0
LINE
  8
0
 10
8.27058
 20
0.85881
 11
8.34436
 21
0.874023
  0
LINE
  8
0
 10
8.34436
 20
0.874023
 11
8.4175
 21
0.891479
  0
LINE
  8
0
 10
8.4175
 20
0.891479
 11
8.49008
 21
0.911331
  0
LINE
  8
0
 10
8.49008
 20
0.911331
 11
8.56216
 21
0.933731
  0
LINE
  8
0
 10
8.56216
 20
0.933731
 11
8.63382
 21
0.958817
  0
LINE
  8
0
 10
8.63382
 20
0.958817
 11
8.70512
 21
0.986725
  0
LINE
  8
0
 10
8.70512
 20
0.986725
 11
8.77614
 21
1.01759
  0
LINE
  8
0
 10
8.77614
 20
1.01759
 11
8.84695
 21
1.05157
  0
LINE
  8
0
 10
8.84695
 20
1.05157
 11
8.91763
 21
1.08879
  0
LINE
  8
0
 10
8.91763
 20
1.08879
 11
8.98822
 21
1.12941
  0
LINE
  8
0
 10
8.98822
 20
1.12941
 11
5.12941
 21
3.34117
  0
LINE
  8
0
 10
5.12941
 20
3.34117
 11
1.64705
 21
1.17647
  0
LINE
  8
0
 10
1.64705
 20
1.17647
 11
1.69046
 21
1.14188
  0
LINE
  8
0
 10
1.69046
 20
1.14188
 11
1.73595
 21
1.10875
  0
LINE
  8
0
 10
1.73595
 20
1.10875
 11
1.78348
 21
1.07709
  0
LINE
  8
0
 10
1.78348
 20
1.07709
 11
1.83302
 21
1.04695
  0
LINE
  8
0
 10
1.83302
 20
1.04695
 11
1.88455
 21
1.01837
  0
LINE
  8
0
 10
1.88455
 20
1.01837
 11
1.93802
 21
0.991379
  0
LINE
  8
0
 10
1.93802
 20
0.991379
 11
1.99339
 21
0.966003
  0
LINE
  8
0
 10
1.99339
 20
0.966003
 11
2.05063
 21
0.942291
  0
LINE
  8
0
 10
2.05063
 20
0.942291
 11
2.10971
 21
0.920288
  0
LINE
  8
0
 10
2.10971
 20
0.920288
 11
2.17058
 21
0.899994
  0
LINE
  8
0
 10
2.17058
 20
0.899994
 11
2.23322
 21
0.88147
  0
LINE
  8
0
 10
2.23322
 20
0.88147
 11
2.29759
 21
0.864746
  0
LINE
  8
0
 10
2.29759
 20
0.864746
 11
2.36366
 21
0.849854
  0
LINE
  8
0
 10
2.36366
 20
0.849854
 11
2.43138
 21
0.836838
  0
LINE
  8
0
 10
2.43138
 20
0.836838
 11
2.50073
 21
0.825729
  0
LINE
  8
0
 10
2.50073
 20
0.825729
 11
2.57166
 21
0.816559
  0
LINE
  8
0
 10
2.57166
 20
0.816559
 11
2.64415
 21
0.809357
  0
LINE
  8
0
 10
2.64415
 20
0.809357
 11
2.71815
 21
0.804184
  0
LINE
  8
0
 10
2.71815
 20
0.804184
 11
2.79364
 21
0.801041
  0
LINE
  8
0
 10
2.79364
 20
0.801041
 11
2.87057
 21
0.799988
  0
LINE
  8
0
 10
2.87057
 20
0.799988
 11
7.48235
 21
0.799988
  0
LINE
  8
0
 10
7.48235
 20
0.799988
 11
7.56636
 21
0.800369
  0
LINE
  8
0
 10
58.3927
 20
1.80806
 11
58.4771
 21
1.8309
  0
LINE
  8
0
 10
58.4771
 20
1.8309
 11
58.5539
 21
1.86896
  0
LINE
  8
0
 10
58.5539
 20
1.86896
 11
58.623
 21
1.92226
  0
LINE
  8
0
 10
58.623
 20
1.92226
 11
58.6802
 21
1.9868
  0
LINE
  8
0
 10
58.6802
 20
1.9868
 11
58.721
 21
2.05859
  0
LINE
  8
0
 10
58.721
 20
2.05859
 11
58.7455
 21
2.13766
  0
LINE
  8
0
 10
58.7455
 20
2.13766
 11
58.7536
 21
2.22397
  0
LINE
  8
0
 10
58.7536
 20
2.22397
 11
58.7455
 21
2.31128
  0
LINE
  8
0
 10
58.7455
 20
2.31128
 11
58.721
 21
2.39104
  0
LINE
  8
0
 10
58.721
 20
2.39104
 11
58.6802
 21
2.46327
  0
LINE
  8
0
 10
58.6802
 20
2.46327
 11
58.623
 21
2.52794
  0
LINE
  8
0
 10
58.623
 20
2.52794
 11
58.5539
 21
2.58125
  0
LINE
  8
0
 10
58.5539
 20
2.58125
 11
58.4771
 21
2.61932
  0
LINE
  8
0
 10
58.4771
 20
2.61932
 11
58.3927
 21
2.64218
  0
LINE
  8
0
 10
58.3927
 20
2.64218
 11
58.3007
 21
2.6498
  0
LINE
  8
0
 10
58.3007
 20
2.6498
 11
58.2087
 21
2.64218
  0
LINE
  8
0
 10
58.2087
 20
2.64218
 11
58.1243
 21
2.61932
  0
LINE
  8
0
 10
58.1243
 20
2.61932
 11
58.0475
 21
2.58125
  0
LINE
  8
0
 10
58.0475
 20
2.58125
 11
57.9784
 21
2.52794
  0
LINE
  8
0
 10
57.9784
 20
2.52794
 11
57.9213
 21
2.46327
  0
LINE
  8
0
 10
57.9213
 20
2.46327
 11
57.8805
 21
2.39104
  0
LINE
  8
0
 10
57.8805
 20
2.39104
 11
57.856
 21
2.31128
  0
LINE
  8
0
 10
57.856
 20
2.31128
 11
57.8478
 21
2.22397
  0
LINE
  8
0
 10
57.8478
 20
2.22397
 11
57.856
 21
2.13766
  0
LINE
  8
0
 10
57.856
 20
2.13766
 11
57.8805
 21
2.05859
  0
LINE
  8
0
 10
57.8805
 20
2.05859
 11
57.9213
 21
1.9868
  0
LINE
  8
0
 10
57.9213
 20
1.9868
 11
57.9784
 21
1.92226
  0
LINE
  8
0
 10
57.9784
 20
1.92226
 11
58.0475
 21
1.86896
  0
LINE
  8
0
 10
58.0475
 20
1.86896
 11
58.1243
 21
1.8309
  0
LINE
  8
0
 10
58.1243
 20
1.8309
 11
58.2087
 21
1.80806
  0
LINE
  8
0
 10
58.2087
 20
1.80806
 11
58.3007
 21
1.80045
  0
LINE
  8
0
 10
58.3007
 20
1.80045
 11
58.3927
 21
1.80806
  0
LINE
  8
0
 10
55.0275
 20
1.80806
 11
55.1119
 21
1.8309
  0
LINE
  8
0
 10
55.1119
 20
1.8309
 11
55.1887
 21
1.86896
  0
LINE
  8
0
 10
55.1887
 20
1.86896
 11
55.2578
 21
1.92226
  0
LINE
  8
0
 10
55.2578
 20
1.92226
 11
55.315
 21
1.9868
  0
LINE
  8
0
 10
55.315
 20
1.9868
 11
55.3558
 21
2.05859
  0
LINE
  8
0
 10
55.3558
 20
2.05859
 11
55.3802
 21
2.13766
  0
LINE
  8
0
 10
55.3802
 20
2.13766
 11
55.3884
 21
2.22397
  0
LINE
  8
0
 10
55.3884
 20
2.22397
 11
55.3802
 21
2.31128
  0
LINE
  8
0
 10
55.3802
 20
2.31128
 11
55.3558
 21
2.39104
  0
LINE
  8
0
 10
55.3558
 20
2.39104
 11
55.315
 21
2.46327
  0
LINE
  8
0
 10
55.315
 20
2.46327
 11
55.2578
 21
2.52794
  0
LINE
  8
0
 10
55.2578
 20
2.52794
 11
55.1887
 21
2.58125
  0
LINE
  8
0
 10
55.1887
 20
2.58125
 11
55.1119
 21
2.61932
  0
LINE
  8
0
 10
55.1119
 20
2.61932
 11
55.0275
 21
2.64218
  0
LINE
  8
0
 10
55.0275
 20
2.64218
 11
54.9355
 21
2.6498
  0
LINE
  8
0
 10
54.9355
 20
2.6498
 11
54.8435
 21
2.64218
  0
LINE
  8
0
 10
54.8435
 20
2.64218
 11
54.7591
 21
2.61932
  0
LINE
  8
0
 10
54.7591
 20
2.61932
 11
54.6823
 21
2.58125
  0
LINE
  8
0
 10
54.6823
 20
2.58125
 11
54.6132
 21
2.52794
  0
LINE
  8
0
 10
54.6132
 20
2.52794
 11
54.5561
 21
2.46327
  0
LINE
  8
0
 10
54.5561
 20
2.46327
 11
54.5153
 21
2.39104
  0
LINE
  8
0
 10
54.5153
 20
2.39104
 11
54.4908
 21
2.31128
  0
LINE
  8
0
 10
54.4908
 20
2.31128
 11
54.4826
 21
2.22397
  0
LINE
  8
0
 10
54.4826
 20
2.22397
 11
54.4908
 21
2.13766
  0
LINE
  8
0
 10
54.4908
 20
2.13766
 11
54.5153
 21
2.05859
  0
LINE
  8
0
 10
54.5153
 20
2.05859
 11
54.5561
 21
1.9868
  0
LINE
  8
0
 10
54.5561
 20
1.9868
 11
54.6132
 21
1.92226
  0
LINE
  8
0
 10
54.6132
 20
1.92226
 11
54.6823
 21
1.86896
  0
LINE
  8
0
 10
54.6823
 20
1.86896
 11
54.7591
 21
1.8309
  0
LINE
  8
0
 10
54.7591
 20
1.8309
 11
54.8435
 21
1.80806
  0
LINE
  8
0
 10
54.8435
 20
1.80806
 11
54.9355
 21
1.80045
  0
LINE
  8
0
 10
54.9355
 20
1.80045
 11
55.0275
 21
1.80806
  0
LINE
  8
0
 10
76.8992
 20
1.80806
 11
76.9836
 21
1.8309
  0
LINE
  8
0
 10
76.9836
 20
1.8309
 11
77.0604
 21
1.86896
  0
LINE
  8
0
 10
77.0604
 20
1.86896
 11
77.1295
 21
1.92226
  0
LINE
  8
0
 10
77.1295
 20
1.92226
 11
77.1866
 21
1.9868
  0
LINE
  8
0
 10
77.1866
 20
1.9868
 11
77.2274
 21
2.05859
  0
LINE
  8
0
 10
77.2274
 20
2.05859
 11
77.2519
 21
2.13766
  0
LINE
  8
0
 10
77.2519
 20
2.13766
 11
77.2601
 21
2.22397
  0
LINE
  8
0
 10
77.2601
 20
2.22397
 11
77.2519
 21
2.31128
  0
LINE
  8
0
 10
77.2519
 20
2.31128
 11
77.2274
 21
2.39104
  0
LINE
  8
0
 10
77.2274
 20
2.39104
 11
77.1866
 21
2.46327
  0
LINE
  8
0
 10
77.1866
 20
2.46327
 11
77.1295
 21
2.52794
  0
LINE
  8
0
 10
77.1295
 20
2.52794
 11
77.0604
 21
2.58125
  0
LINE
  8
0
 10
77.0604
 20
2.58125
 11
76.9836
 21
2.61932
  0
LINE
  8
0
 10
76.9836
 20
2.61932
 11
76.8992
 21
2.64218
  0
LINE
  8
0
 10
76.8992
 20
2.64218
 11
76.8072
 21
2.6498
  0
LINE
  8
0
 10
76.8072
 20
2.6498
 11
76.7151
 21
2.64218
  0
LINE
  8
0
 10
76.7151
 20
2.64218
 11
76.6308
 21
2.61932
  0
LINE
  8
0
 10
76.6308
 20
2.61932
 11
76.554
 21
2.58125
  0
LINE
  8
0
 10
76.554
 20
2.58125
 11
76.4849
 21
2.52794
  0
LINE
  8
0
 10
76.4849
 20
2.52794
 11
76.4277
 21
2.46327
  0
LINE
  8
0
 10
76.4277
 20
2.46327
 11
76.3869
 21
2.39104
  0
LINE
  8
0
 10
76.3869
 20
2.39104
 11
76.3624
 21
2.31128
  0
LINE
  8
0
 10
76.3624
 20
2.31128
 11
76.3543
 21
2.22397
  0
LINE
  8
0
 10
76.3543
 20
2.22397
 11
76.3624
 21
2.13766
  0
LINE
  8
0
 10
76.3624
 20
2.13766
 11
76.3869
 21
2.05859
  0
LINE
  8
0
 10
76.3869
 20
2.05859
 11
76.4277
 21
1.9868
  0
LINE
  8
0
 10
76.4277
 20
1.9868
 11
76.4849
 21
1.92226
  0
LINE
  8
0
 10
76.4849
 20
1.92226
 11
76.554
 21
1.86896
  0
LINE
  8
0
 10
76.554
 20
1.86896
 11
76.6308
 21
1.8309
  0
LINE
  8
0
 10
76.6308
 20
1.8309
 11
76.7151
 21
1.80806
  0
LINE
  8
0
 10
76.7151
 20
1.80806
 11
76.8072
 21
1.80045
  0
LINE
  8
0
 10
76.8072
 20
1.80045
 11
76.8992
 21
1.80806
  0
ENDSEC
  0
SECTION
  2
OBJECTS
  0
DICTIONARY
  0
ENDSEC
  0
EOF
