<?xml version="1.0" standalone="no"?>
<!DOCTYPE svg PUBLIC "-//W3C//DTD SVG 1.1//EN" "http://www.w3.org/Graphics/SVG/1.1/DTD/svg11.dtd">
<svg width="40mm" height="11mm" viewBox="0 -11 40 11" xmlns="http://www.w3.org/2000/svg" version="1.1">
<title>OpenSCAD Model</title>
<path d="
M 19.1409,-9.77843 L 19.2048,-9.79558 L 19.2633,-9.82419 L 19.3166,-9.86423 L 19.361,-9.91245 L 19.3926,-9.96558
 L 19.4117,-10.0236 L 19.418,-10.0865 L 19.4117,-10.1495 L 19.3926,-10.2075 L 19.361,-10.2606 L 19.3166,-10.3088
 L 19.2633,-10.3489 L 19.2048,-10.3775 L 19.1409,-10.3946 L 19.0719,-10.4004 L 19.0036,-10.3946 L 18.9404,-10.3775
 L 18.8822,-10.3489 L 18.829,-10.3088 L 18.7846,-10.2606 L 18.753,-10.2075 L 18.734,-10.1495 L 18.7276,-10.0865
 L 18.734,-10.0236 L 18.753,-9.96558 L 18.7846,-9.91245 L 18.829,-9.86423 L 18.8822,-9.82419 L 18.9404,-9.79558
 L 19.0036,-9.77843 L 19.0719,-9.77271 z
M 4.47058,-3.3815 L 4.47058,-7.53613 L 8.22185,-9.9563 L 8.17888,-9.99774 L 8.13472,-10.0373 L 8.08934,-10.075
 L 8.04276,-10.1109 L 7.99495,-10.1447 L 7.94594,-10.1767 L 7.89572,-10.2066 L 7.8443,-10.2345 L 7.79166,-10.2603
 L 7.73781,-10.284 L 7.68275,-10.3056 L 7.62648,-10.3251 L 7.569,-10.3424 L 7.51031,-10.3575 L 7.45041,-10.3704
 L 7.3893,-10.381 L 7.32698,-10.3892 L 7.26346,-10.3952 L 7.19872,-10.3988 L 7.13277,-10.4 L 3.2605,-10.4
 L 3.05701,-10.3919 L 2.85835,-10.3681 L 2.66513,-10.3291 L 2.47798,-10.2754 L 2.29747,-10.2078 L 2.12422,-10.1266
 L 1.95885,-10.0326 L 1.80194,-9.92628 L 1.65411,-9.80821 L 1.51596,-9.67899 L 1.38809,-9.53917 L 1.27112,-9.38933
 L 1.16563,-9.23006 L 1.07227,-9.06192 L 0.991592,-8.8855 L 0.924225,-8.70135 L 0.870789,-8.51007 L 0.831863,-8.31224
 L 0.80806,-8.1084 L 0.799988,-7.89915 L 0.799988,-2.73613 L 0.800613,-2.66383 L 0.80249,-2.59221 L 0.80571,-2.5213
 L 0.810318,-2.45119 L 0.816376,-2.38193 L 0.823959,-2.31357 L 0.833099,-2.24617 L 0.843872,-2.17981 L 0.856354,-2.11453
 L 0.870575,-2.05042 L 0.886627,-1.9875 L 0.904541,-1.92586 L 0.924393,-1.86554 L 0.946243,-1.80663 L 0.970154,-1.74915
 L 0.996185,-1.69319 L 1.0244,-1.63881 L 1.05484,-1.58606 L 1.08759,-1.535 L 1.12268,-1.4857 z
M 26.5713,-7.41676 L 26.6752,-7.43796 L 26.7669,-7.47327 L 26.8462,-7.52272 L 26.9141,-7.58102 L 26.9716,-7.64296
 L 27.0188,-7.70853 L 27.0556,-7.77769 L 27.0785,-7.77769 L 27.0785,-7.43959 L 27.7363,-7.43959 L 27.7363,-10.2229
 L 27.0709,-10.2229 L 27.0709,-9.16933 L 27.0556,-9.16933 L 27.0331,-9.21574 L 27.0061,-9.26157 L 26.9743,-9.30681
 L 26.9379,-9.35146 L 26.8965,-9.39384 L 26.8497,-9.43227 L 26.7976,-9.46671 L 26.74,-9.49718 L 26.6767,-9.52211
 L 26.6071,-9.53992 L 26.5313,-9.5506 L 26.4494,-9.55417 L 26.3393,-9.54692 L 26.233,-9.52521 L 26.1304,-9.48901
 L 26.0315,-9.43834 L 25.9391,-9.37283 L 25.8561,-9.29216 L 25.7823,-9.1963 L 25.7179,-9.08527 L 25.6656,-8.9586
 L 25.6283,-8.81583 L 25.6059,-8.65694 L 25.5984,-8.48193 L 25.6055,-8.31177 L 25.6271,-8.1562 L 25.6629,-8.01523
 L 25.7131,-7.88884 L 25.7755,-7.7771 L 25.8479,-7.68008 L 25.9304,-7.59778 L 26.0229,-7.53018 L 26.1231,-7.47746
 L 26.2285,-7.43982 L 26.3392,-7.41724 L 26.4551,-7.4097 z
M 26.5918,-7.92747 L 26.5122,-7.95656 L 26.444,-8.005 L 26.3872,-8.07285 L 26.3424,-8.15656 L 26.3105,-8.25264
 L 26.2913,-8.3611 L 26.2849,-8.48193 L 26.2913,-8.60271 L 26.3105,-8.71098 L 26.3424,-8.80678 L 26.3872,-8.89009
 L 26.444,-8.95752 L 26.5122,-9.00568 L 26.5918,-9.03458 L 26.6827,-9.0442 L 26.773,-9.03474 L 26.8526,-9.00636
 L 26.9216,-8.95908 L 26.98,-8.89287 L 27.0264,-8.81044 L 27.0596,-8.71448 L 27.0795,-8.60498 L 27.0862,-8.48193
 L 27.0795,-8.36034 L 27.0594,-8.25146 L 27.0259,-8.15532 L 26.979,-8.0719 L 26.9204,-8.00447 L 26.8514,-7.95631
 L 26.7722,-7.92741 L 26.6827,-7.91779 z
M 20.5011,-8.63882 L 20.5008,-8.69504 L 20.5,-8.75908 L 20.4984,-8.83093 L 20.4964,-8.91061 L 20.4886,-9.17664
 L 20.4858,-9.27208 L 20.4831,-9.36852 L 20.4806,-9.46355 L 20.4783,-9.55717 L 20.4763,-9.64941 L 20.5005,-9.55153
 L 20.5253,-9.45399 L 20.5507,-9.3568 L 20.5767,-9.25996 L 20.6027,-9.16522 L 20.6281,-9.07433 L 20.6529,-8.98727
 L 20.6771,-8.90408 L 20.7,-8.82655 L 20.7211,-8.75652 L 20.7402,-8.69392 L 20.7574,-8.63882 L 21.1685,-7.43959
 L 21.7327,-7.43959 L 22.1381,-8.63882 L 22.1561,-8.69598 L 22.1759,-8.76096 L 22.1973,-8.83374 L 22.2203,-8.91435
 L 22.2445,-9.00081 L 22.2693,-9.09113 L 22.2947,-9.18529 L 22.3207,-9.28329 L 22.3467,-9.38312 L 22.3721,-9.48271
 L 22.3969,-9.58206 L 22.4211,-9.68117 L 22.4191,-9.58684 L 22.4168,-9.49065 L 22.4143,-9.39258 L 22.4115,-9.29262
 L 22.401,-8.91811 L 22.3989,-8.83585 L 22.3974,-8.76189 L 22.3965,-8.69621 L 22.3962,-8.63882 L 22.3962,-7.43959
 L 23.0751,-7.43959 L 23.0751,-10.2229 L 22.0214,-10.2229 L 21.6638,-9.13945 L 21.649,-9.08815 L 21.633,-9.02948
 L 21.616,-8.96347 L 21.5979,-8.89009 L 21.5792,-8.81163 L 21.5606,-8.73038 L 21.5419,-8.6463 L 21.5233,-8.55943
 L 21.5049,-8.47183 L 21.4872,-8.3855 L 21.47,-8.30045 L 21.4535,-8.21667 L 21.436,-8.30051 L 21.4181,-8.38573
 L 21.3997,-8.47235 L 21.3808,-8.56038 L 21.3617,-8.6476 L 21.3428,-8.73178 L 21.324,-8.81291 L 21.3053,-8.89102
 L 21.2872,-8.96399 L 21.2701,-9.02972 L 21.2542,-9.08821 L 21.2393,-9.13945 L 20.876,-10.2229 L 19.8242,-10.2229
 L 19.8242,-7.43959 L 20.5011,-7.43959 z
M 16.5045,-7.4104 L 16.5535,-7.41251 L 16.6039,-7.416 L 16.6558,-7.42091 L 16.7089,-7.4278 L 16.7629,-7.43726
 L 16.8179,-7.44928 L 16.8738,-7.46388 L 16.7878,-7.93834 L 16.7722,-7.93536 L 16.7522,-7.93204 L 16.7277,-7.92836
 L 16.6989,-7.92432 L 16.6695,-7.92064 L 16.6436,-7.91801 L 16.6212,-7.91644 L 16.6023,-7.91592 L 16.5278,-7.92607
 L 16.4746,-7.95654 L 16.4427,-8.00732 L 16.4321,-8.07843 L 16.4321,-9.0442 L 16.8165,-9.0442 L 16.8165,-9.528
 L 16.4321,-9.528 L 16.4321,-10.0249 L 15.7647,-10.0249 L 15.7647,-9.528 L 15.4816,-9.528 L 15.4816,-9.0442
 L 15.7647,-9.0442 L 15.7647,-8.02052 L 15.7757,-7.88002 L 15.8087,-7.75737 L 15.8636,-7.65259 L 15.9406,-7.56566
 L 16.0388,-7.49742 L 16.1577,-7.44868 L 16.297,-7.41945 L 16.4569,-7.4097 z
M 10.4873,-8.67992 L 10.4927,-8.75745 L 10.509,-8.82562 L 10.5362,-8.88448 L 10.5743,-8.93396 L 10.6208,-8.97321
 L 10.6735,-9.00124 L 10.7323,-9.01805 L 10.7971,-9.02365 L 10.86,-9.01834 L 10.9169,-9.0024 L 10.9676,-8.97583
 L 11.0122,-8.93864 L 11.0486,-8.89247 L 11.0746,-8.83894 L 11.0902,-8.77805 L 11.0954,-8.70981 L 11.0954,-7.43959
 L 11.736,-7.43959 L 11.736,-8.69301 L 11.7412,-8.76404 L 11.7566,-8.82773 L 11.7823,-8.88406 L 11.8183,-8.93303
 L 11.8631,-8.97267 L 11.9153,-9.00099 L 11.975,-9.01799 L 12.042,-9.02365 L 12.1051,-9.01851 L 12.1623,-9.0031
 L 12.2136,-8.97742 L 12.2591,-8.94145 L 12.2963,-8.89557 L 12.3229,-8.84012 L 12.3389,-8.77509 L 12.3442,-8.70047
 L 12.3442,-7.43959 L 13.0097,-7.43959 L 13.0097,-8.84805 L 12.9977,-9.0045 L 12.9616,-9.1432 L 12.9016,-9.26416
 L 12.8175,-9.36736 L 12.7146,-9.44991 L 12.5983,-9.50887 L 12.4684,-9.54425 L 12.325,-9.55603 L 12.2186,-9.54897
 L 12.1154,-9.52779 L 12.0154,-9.49246 L 11.9187,-9.44302 L 11.8293,-9.37746 L 11.7516,-9.29381 L 11.6854,-9.19206
 L 11.6309,-9.0722 L 11.5882,-9.1913 L 11.5384,-9.29263 L 11.4815,-9.37624 L 11.4176,-9.44208 L 11.346,-9.49194
 L 11.2659,-9.52754 L 11.1772,-9.54892 L 11.0801,-9.55603 L 10.9852,-9.54956 L 10.8934,-9.53012 L 10.8049,-9.49771
 L 10.7197,-9.45236 L 10.641,-9.39229 L 10.5722,-9.31575 L 10.5133,-9.22276 L 10.4644,-9.11331 L 10.4338,-9.528
 L 9.81992,-9.528 L 9.81992,-7.43959 L 10.4873,-7.43959 z
M 37.0768,-8.67992 L 37.0823,-8.75745 L 37.0986,-8.82562 L 37.1258,-8.88448 L 37.1638,-8.93396 L 37.2104,-8.97321
 L 37.263,-9.00124 L 37.3218,-9.01805 L 37.3866,-9.02365 L 37.4496,-9.01834 L 37.5064,-9.0024 L 37.5571,-8.97583
 L 37.6018,-8.93864 L 37.6382,-8.89247 L 37.6642,-8.83894 L 37.6797,-8.77805 L 37.685,-8.70981 L 37.685,-7.43959
 L 38.3256,-7.43959 L 38.3256,-8.69301 L 38.3307,-8.76404 L 38.3461,-8.82773 L 38.3718,-8.88406 L 38.4078,-8.93303
 L 38.4526,-8.97267 L 38.5049,-9.00099 L 38.5645,-9.01799 L 38.6315,-9.02365 L 38.6946,-9.01851 L 38.7518,-9.0031
 L 38.8031,-8.97742 L 38.8486,-8.94145 L 38.8858,-8.89557 L 38.9124,-8.84012 L 38.9284,-8.77509 L 38.9337,-8.70047
 L 38.9337,-7.43959 L 39.5992,-7.43959 L 39.5992,-8.84805 L 39.5872,-9.0045 L 39.5511,-9.1432 L 39.4911,-9.26416
 L 39.407,-9.36736 L 39.3042,-9.44991 L 39.1878,-9.50887 L 39.0579,-9.54425 L 38.9146,-9.55603 L 38.8081,-9.54897
 L 38.7049,-9.52779 L 38.605,-9.49246 L 38.5082,-9.44302 L 38.4189,-9.37746 L 38.3411,-9.29381 L 38.275,-9.19206
 L 38.2204,-9.0722 L 38.1777,-9.1913 L 38.1279,-9.29263 L 38.0711,-9.37624 L 38.0072,-9.44208 L 37.9355,-9.49194
 L 37.8554,-9.52754 L 37.7668,-9.54892 L 37.6696,-9.55603 L 37.5747,-9.54956 L 37.483,-9.53012 L 37.3945,-9.49771
 L 37.3092,-9.45236 L 37.2305,-9.39229 L 37.1617,-9.31575 L 37.1028,-9.22276 L 37.0539,-9.11331 L 37.0233,-9.528
 L 36.4094,-9.528 L 36.4094,-7.43959 L 37.0768,-7.43959 z
M 29.3016,-7.4104 L 29.4704,-7.44052 L 29.6223,-7.49072 L 29.7575,-7.561 L 29.8734,-7.64821 L 29.9676,-7.74921
 L 30.0402,-7.86397 L 30.0912,-7.99252 L 29.4964,-8.08777 L 29.4728,-8.03856 L 29.4419,-7.99554 L 29.4039,-7.95871
 L 29.3587,-7.92807 L 29.3077,-7.90396 L 29.2521,-7.88675 L 29.192,-7.87642 L 29.1273,-7.87297 L 29.0372,-7.88004
 L 28.956,-7.90121 L 28.8837,-7.93652 L 28.8204,-7.98596 L 28.7684,-8.04953 L 28.7298,-8.12723 L 28.7048,-8.21906
 L 28.6933,-8.32501 L 30.1218,-8.32501 L 30.1218,-8.4894 L 30.1135,-8.65465 L 30.0885,-8.80672 L 30.047,-8.94559
 L 29.9889,-9.07127 L 29.9162,-9.18312 L 29.8311,-9.2805 L 29.7336,-9.36339 L 29.6236,-9.43181 L 29.5032,-9.48534
 L 29.3743,-9.52357 L 29.2369,-9.54651 L 29.091,-9.55417 L 28.9357,-9.5457 L 28.7908,-9.52031 L 28.6564,-9.47798
 L 28.5326,-9.41873 L 28.4208,-9.3443 L 28.3225,-9.25644 L 28.2377,-9.15515 L 28.1664,-9.04045 L 28.1099,-8.91414
 L 28.0696,-8.778 L 28.0454,-8.63206 L 28.0373,-8.47632 L 28.0553,-8.23856 L 28.1093,-8.02777 L 28.1992,-7.84395
 L 28.3251,-7.6871 L 28.4825,-7.56165 L 28.6667,-7.47205 L 28.8779,-7.41829 L 29.1159,-7.40036 z
M 28.6971,-8.70421 L 28.7119,-8.78658 L 28.737,-8.85995 L 28.7726,-8.92435 L 28.8185,-8.97975 L 28.8743,-9.02429
 L 28.9392,-9.05609 L 29.0134,-9.07518 L 29.0968,-9.08156 L 29.1791,-9.0753 L 29.2521,-9.05656 L 29.3158,-9.02534
 L 29.3702,-8.98161 L 29.4149,-8.9268 L 29.4496,-8.8623 L 29.4742,-8.7881 L 29.4888,-8.70421 z
M 32.9545,-7.41302 L 33.1327,-7.45103 L 33.2921,-7.51437 L 33.4325,-7.60303 L 33.5502,-7.71365 L 33.6414,-7.84283
 L 33.7061,-7.99059 L 33.7442,-8.15691 L 33.1284,-8.25403 L 33.1092,-8.17464 L 33.0823,-8.1046 L 33.0476,-8.04388
 L 33.0051,-7.99252 L 32.9553,-7.95166 L 32.8987,-7.92247 L 32.8353,-7.90495 L 32.7651,-7.89911 L 32.6748,-7.90886
 L 32.5954,-7.93811 L 32.5266,-7.98683 L 32.4687,-8.05507 L 32.4227,-8.14012 L 32.3898,-8.2393 L 32.3701,-8.35262
 L 32.3635,-8.48006 L 32.3701,-8.60806 L 32.3898,-8.72125 L 32.4227,-8.81961 L 32.4687,-8.90314 L 32.5266,-8.96976
 L 32.5954,-9.01735 L 32.6748,-9.0459 L 32.7651,-9.05542 L 32.8352,-9.0498 L 32.8982,-9.03299 L 32.9542,-9.00496
 L 33.0032,-8.96573 L 33.0449,-8.91623 L 33.0794,-8.85739 L 33.1066,-8.7892 L 33.1265,-8.71169 L 33.7423,-8.81255
 L 33.7041,-8.97459 L 33.6393,-9.11891 L 33.5477,-9.24547 L 33.4296,-9.35426 L 33.289,-9.44173 L 33.1301,-9.5042
 L 32.9529,-9.54167 L 32.7574,-9.55417 L 32.596,-9.5457 L 32.4462,-9.52031 L 32.3082,-9.47798 L 32.1818,-9.41873
 L 32.0683,-9.3443 L 31.9688,-9.25644 L 31.8833,-9.15515 L 31.8118,-9.04045 L 31.7553,-8.91414 L 31.715,-8.778
 L 31.6908,-8.63206 L 31.6827,-8.47632 L 31.6908,-8.32063 L 31.715,-8.17487 L 31.7553,-8.03903 L 31.8118,-7.9131
 L 31.8833,-7.79881 L 31.9688,-7.69783 L 32.0683,-7.61015 L 32.1818,-7.53577 L 32.3082,-7.47653 L 32.4462,-7.43422
 L 32.596,-7.40883 L 32.7574,-7.40036 z
M 35.1953,-7.40883 L 35.3449,-7.43422 L 35.4827,-7.47653 L 35.6086,-7.53577 L 35.7216,-7.61015 L 35.8208,-7.69783
 L 35.9062,-7.79881 L 35.9776,-7.9131 L 36.0341,-8.03903 L 36.0745,-8.17487 L 36.0987,-8.32063 L 36.1067,-8.47632
 L 36.0987,-8.63206 L 36.0745,-8.778 L 36.0341,-8.91414 L 35.9776,-9.04045 L 35.9062,-9.15515 L 35.8208,-9.25644
 L 35.7216,-9.3443 L 35.6086,-9.41873 L 35.4827,-9.47798 L 35.3449,-9.52031 L 35.1953,-9.5457 L 35.0339,-9.55417
 L 34.8725,-9.5457 L 34.7227,-9.52031 L 34.5847,-9.47798 L 34.4583,-9.41873 L 34.3448,-9.3443 L 34.2453,-9.25644
 L 34.1598,-9.15515 L 34.0883,-9.04045 L 34.0318,-8.91414 L 33.9915,-8.778 L 33.9673,-8.63206 L 33.9592,-8.47632
 L 33.9673,-8.32063 L 33.9915,-8.17487 L 34.0318,-8.03903 L 34.0883,-7.9131 L 34.1598,-7.79881 L 34.2453,-7.69783
 L 34.3448,-7.61015 L 34.4583,-7.53577 L 34.5847,-7.47653 L 34.7227,-7.43422 L 34.8725,-7.40883 L 35.0339,-7.40036
 z
M 34.9439,-7.90909 L 34.8652,-7.93904 L 34.7976,-7.98895 L 34.7413,-8.05882 L 34.697,-8.14503 L 34.6653,-8.24399
 L 34.6463,-8.35567 L 34.64,-8.48006 L 34.6463,-8.60428 L 34.6653,-8.71542 L 34.697,-8.81349 L 34.7413,-8.89848
 L 34.7976,-8.96715 L 34.8652,-9.01617 L 34.9439,-9.04561 L 35.0339,-9.05542 L 35.1239,-9.04561 L 35.2027,-9.01617
 L 35.2702,-8.96715 L 35.3265,-8.89848 L 35.3708,-8.81349 L 35.4025,-8.71542 L 35.4215,-8.60428 L 35.4279,-8.48006
 L 35.4215,-8.35567 L 35.4025,-8.24399 L 35.3708,-8.14503 L 35.3265,-8.05882 L 35.2702,-7.98895 L 35.2027,-7.93904
 L 35.1239,-7.90909 L 35.0339,-7.89911 z
M 17.7911,-8.57906 L 17.7987,-8.66801 L 17.8215,-8.74811 L 17.8594,-8.81932 L 17.9125,-8.88165 L 17.9773,-8.93233
 L 18.05,-8.96852 L 18.1307,-8.99025 L 18.2195,-8.99748 L 18.2511,-8.99696 L 18.2847,-8.99539 L 18.3204,-8.99275
 L 18.3581,-8.98909 L 18.395,-8.98436 L 18.4281,-8.97858 L 18.4576,-8.97176 L 18.4834,-8.96388 L 18.4834,-9.53174
 L 18.4371,-9.54155 L 18.3902,-9.54855 L 18.3425,-9.55276 L 18.2941,-9.55417 L 18.2088,-9.54785 L 18.1289,-9.52895
 L 18.0544,-9.49742 L 17.9852,-9.45329 L 17.9235,-9.39632 L 17.8712,-9.32626 L 17.8283,-9.24315 L 17.795,-9.14694
 L 17.772,-9.14694 L 17.772,-9.528 L 17.1237,-9.528 L 17.1237,-7.43959 L 17.7911,-7.43959 z
M 24.2332,-7.4229 L 24.4046,-7.48489 L 24.543,-7.58821 L 24.6484,-7.73285 L 24.6656,-7.73285 L 24.6656,-7.43959
 L 25.2929,-7.43959 L 25.2929,-8.85739 L 25.2849,-8.96521 L 25.2611,-9.0645 L 25.2214,-9.15527 L 25.1657,-9.2375
 L 25.0966,-9.31078 L 25.0165,-9.37457 L 24.9255,-9.42892 L 24.8234,-9.47382 L 24.7127,-9.50896 L 24.5956,-9.53407
 L 24.4722,-9.54913 L 24.3425,-9.55417 L 24.1514,-9.54372 L 23.9798,-9.51236 L 23.8277,-9.46011 L 23.6951,-9.38696
 L 23.5837,-9.29713 L 23.4951,-9.19481 L 23.4293,-9.07999 L 23.3863,-8.95267 L 23.9906,-8.87607 L 24.0079,-8.923
 L 24.0331,-8.96478 L 24.0662,-9.00143 L 24.1072,-9.03296 L 24.1553,-9.0583 L 24.2095,-9.0764 L 24.27,-9.08727
 L 24.3367,-9.0909 L 24.401,-9.08722 L 24.4579,-9.07617 L 24.5076,-9.05779 L 24.5499,-9.03206 L 24.5838,-8.99954
 L 24.608,-8.96083 L 24.6225,-8.91594 L 24.6274,-8.86485 L 24.6274,-8.85739 L 24.62,-8.81285 L 24.598,-8.77638
 L 24.5612,-8.74794 L 24.5098,-8.72757 L 24.4413,-8.71187 L 24.3537,-8.69745 L 24.2468,-8.68431 L 24.1206,-8.67245
 L 24.0148,-8.6602 L 23.9134,-8.64211 L 23.8164,-8.61816 L 23.7238,-8.58839 L 23.6379,-8.55127 L 23.561,-8.50528
 L 23.4931,-8.45041 L 23.4341,-8.38666 L 23.3864,-8.31252 L 23.3523,-8.22649 L 23.3319,-8.12852 L 23.3251,-8.01866
 L 23.3375,-7.87343 L 23.3746,-7.7478 L 23.4364,-7.6418 L 23.523,-7.5554 L 23.6289,-7.4884 L 23.7484,-7.44054
 L 23.8818,-7.4118 L 24.0288,-7.40224 z
M 24.174,-7.83716 L 24.1218,-7.8475 L 24.075,-7.86473 L 24.0336,-7.88884 L 23.9997,-7.91949 L 23.9755,-7.95633
 L 23.961,-7.99934 L 23.9562,-8.04854 L 23.9754,-8.14043 L 24.0331,-8.21246 L 24.1293,-8.26465 L 24.264,-8.297
 L 24.3119,-8.30481 L 24.3616,-8.31332 L 24.4132,-8.32256 L 24.4667,-8.33247 L 24.518,-8.34334 L 24.5628,-8.35536
 L 24.6012,-8.36856 L 24.6331,-8.38293 L 24.6331,-8.18304 L 24.6258,-8.10913 L 24.604,-8.04247 L 24.5675,-7.98303
 L 24.5165,-7.93085 L 24.4549,-7.88835 L 24.3869,-7.858 L 24.3125,-7.8398 L 24.2315,-7.83372 z
M 14.5483,-7.4104 L 14.7171,-7.44052 L 14.8691,-7.49072 L 15.0042,-7.561 L 15.1201,-7.64821 L 15.2143,-7.74921
 L 15.2869,-7.86397 L 15.3379,-7.99252 L 14.7431,-8.08777 L 14.7195,-8.03856 L 14.6887,-7.99554 L 14.6507,-7.95871
 L 14.6055,-7.92807 L 14.5544,-7.90396 L 14.4989,-7.88675 L 14.4387,-7.87642 L 14.3741,-7.87297 L 14.2839,-7.88004
 L 14.2027,-7.90121 L 14.1304,-7.93652 L 14.0672,-7.98596 L 14.0151,-8.04953 L 13.9766,-8.12723 L 13.9515,-8.21906
 L 13.94,-8.32501 L 15.3685,-8.32501 L 15.3685,-8.4894 L 15.3602,-8.65465 L 15.3353,-8.80672 L 15.2937,-8.94559
 L 15.2356,-9.07127 L 15.1629,-9.18312 L 15.0778,-9.2805 L 14.9803,-9.36339 L 14.8703,-9.43181 L 14.7499,-9.48534
 L 14.621,-9.52357 L 14.4836,-9.54651 L 14.3378,-9.55417 L 14.1824,-9.5457 L 14.0375,-9.52031 L 13.9032,-9.47798
 L 13.7793,-9.41873 L 13.6675,-9.3443 L 13.5692,-9.25644 L 13.4844,-9.15515 L 13.4131,-9.04045 L 13.3567,-8.91414
 L 13.3163,-8.778 L 13.2921,-8.63206 L 13.2841,-8.47632 L 13.302,-8.23856 L 13.356,-8.02777 L 13.4459,-7.84395
 L 13.5719,-7.6871 L 13.7292,-7.56165 L 13.9135,-7.47205 L 14.1246,-7.41829 L 14.3626,-7.40036 z
M 13.9438,-8.70421 L 13.9586,-8.78658 L 13.9837,-8.85995 L 14.0193,-8.92435 L 14.0652,-8.97975 L 14.121,-9.02429
 L 14.1859,-9.05609 L 14.2601,-9.07518 L 14.3435,-9.08156 L 14.4258,-9.0753 L 14.4989,-9.05656 L 14.5626,-9.02534
 L 14.6169,-8.98161 L 14.6617,-8.9268 L 14.6963,-8.8623 L 14.7209,-8.7881 L 14.7355,-8.70421 z
M 19.4065,-9.528 L 18.7391,-9.528 L 18.7391,-7.43959 L 19.4065,-7.43959 z
M 8.19412,-1.33881 L 8.24406,-1.39435 L 8.29105,-1.45079 L 8.3351,-1.5083 L 8.37625,-1.56702 L 8.41452,-1.62709
 L 8.44995,-1.68867 L 8.48257,-1.75192 L 8.51241,-1.81699 L 8.53949,-1.88403 L 8.56384,-1.95317 L 8.58551,-2.0246
 L 8.60451,-2.09843 L 8.62088,-2.17485 L 8.63466,-2.25398 L 8.64586,-2.336 L 8.65451,-2.42102 L 8.66066,-2.50923
 L 8.66432,-2.60077 L 8.66554,-2.69579 L 8.66554,-8.94789 L 6.12436,-7.57646 L 6.12436,-2.61511 L 8.14117,-1.28403
 z
M 30.9605,-7.4066 L 31.0278,-7.42534 L 31.0891,-7.45657 L 31.1442,-7.50029 L 31.1898,-7.55324 L 31.2224,-7.61214
 L 31.2419,-7.677 L 31.2484,-7.7478 L 31.2419,-7.81943 L 31.2224,-7.88487 L 31.1898,-7.94411 L 31.1442,-7.99718
 L 31.0891,-8.04091 L 31.0278,-8.07214 L 30.9605,-8.09088 L 30.887,-8.09714 L 30.8136,-8.09088 L 30.7462,-8.07214
 L 30.685,-8.04091 L 30.6298,-7.99718 L 30.5842,-7.94411 L 30.5517,-7.88487 L 30.5321,-7.81943 L 30.5256,-7.7478
 L 30.5321,-7.677 L 30.5517,-7.61214 L 30.5842,-7.55324 L 30.6298,-7.50029 L 30.685,-7.45657 L 30.7462,-7.42534
 L 30.8136,-7.4066 L 30.887,-7.40036 z
M 34.7579,-4.01099 L 34.9172,-4.04381 L 35.0651,-4.09848 L 35.2016,-4.17505 L 35.325,-4.27194 L 35.4338,-4.38765
 L 35.5281,-4.52216 L 35.6078,-4.67545 L 35.6711,-4.84584 L 35.7163,-5.0316 L 35.7435,-5.23276 L 35.7525,-5.44928
 L 35.7467,-5.6281 L 35.7292,-5.79266 L 35.7,-5.94299 L 35.6591,-6.07909 L 35.6081,-6.20184 L 35.5484,-6.31218
 L 35.4802,-6.41011 L 35.4033,-6.49562 L 35.3193,-6.56956 L 35.2298,-6.63281 L 35.1348,-6.68532 L 35.0344,-6.72713
 L 34.93,-6.75903 L 34.8232,-6.78183 L 34.7138,-6.7955 L 34.6021,-6.80006 L 34.4481,-6.79317 L 34.3035,-6.77066
 L 34.1684,-6.73254 L 34.0427,-6.67883 L 33.9284,-6.61143 L 33.8272,-6.5323 L 33.7393,-6.44145 L 33.6645,-6.33885
 L 33.6049,-6.22629 L 33.5623,-6.10553 L 33.5367,-5.97655 L 33.5282,-5.83937 L 33.535,-5.71701 L 33.5555,-5.60149
 L 33.5897,-5.4928 L 33.6375,-5.39093 L 33.6973,-5.29779 L 33.7675,-5.21526 L 33.8481,-5.14331 L 33.9391,-5.08195
 L 34.0389,-5.03291 L 34.1459,-4.99788 L 34.2602,-4.97687 L 34.3817,-4.96986 L 34.495,-4.97635 L 34.6035,-4.99583
 L 34.707,-5.02829 L 34.8056,-5.07375 L 34.8952,-5.13049 L 34.9714,-5.19681 L 35.0343,-5.27269 L 35.0839,-5.35814
 L 35.1007,-5.35814 L 35.0927,-5.1833 L 35.0687,-5.02705 L 35.0287,-4.88936 L 34.9728,-4.77025 L 34.9007,-4.67415
 L 34.8124,-4.6055 L 34.7079,-4.56432 L 34.5871,-4.55058 L 34.5186,-4.55508 L 34.4548,-4.56859 L 34.3958,-4.59108
 L 34.3415,-4.62257 L 34.2944,-4.66228 L 34.2568,-4.7094 L 34.2286,-4.76392 L 34.2099,-4.82584 L 33.56,-4.82584
 L 33.5797,-4.71367 L 33.6129,-4.60686 L 33.6596,-4.5054 L 33.7196,-4.4093 L 33.7919,-4.32062 L 33.8753,-4.24138
 L 33.9698,-4.17159 L 34.0754,-4.11125 L 34.1907,-4.06261 L 34.3145,-4.02786 L 34.4466,-4.007 L 34.5871,-4.00006
 z
M 34.5137,-5.42973 L 34.4317,-5.45314 L 34.3578,-5.49216 L 34.2921,-5.54678 L 34.2381,-5.61316 L 34.1996,-5.68738
 L 34.1765,-5.76947 L 34.1688,-5.85942 L 34.1766,-5.94864 L 34.2001,-6.03033 L 34.2392,-6.10451 L 34.2939,-6.17114
 L 34.3603,-6.22618 L 34.4345,-6.26547 L 34.5163,-6.28906 L 34.6058,-6.29692 L 34.696,-6.289 L 34.7781,-6.26524
 L 34.852,-6.22566 L 34.9177,-6.17023 L 34.9716,-6.10341 L 35.0101,-6.02965 L 35.0332,-5.94891 L 35.041,-5.86125
 L 35.0331,-5.77199 L 35.0097,-5.69012 L 34.9706,-5.61566 L 34.9158,-5.54861 L 34.8494,-5.49318 L 34.7753,-5.4536
 L 34.6935,-5.42984 L 34.6039,-5.42192 z
M 25.4291,-4.01421 L 25.5923,-4.04018 L 25.7456,-4.08347 L 25.8888,-4.14407 L 26.0196,-4.22093 L 26.1356,-4.31293
 L 26.2367,-4.42007 L 26.323,-4.54239 L 26.3921,-4.67871 L 26.4414,-4.8279 L 26.471,-4.98996 L 26.4809,-5.1649
 L 26.4809,-5.52219 L 25.2875,-5.52219 L 25.2875,-5.05006 L 25.844,-5.05006 L 25.8322,-4.94548 L 25.8022,-4.85228
 L 25.7542,-4.77048 L 25.688,-4.70006 L 25.605,-4.64343 L 25.5062,-4.603 L 25.3916,-4.57872 L 25.2613,-4.57063
 L 25.1123,-4.58426 L 24.9807,-4.62509 L 24.8667,-4.69318 L 24.7701,-4.78847 L 24.6933,-4.90862 L 24.6385,-5.05119
 L 24.6056,-5.21622 L 24.5946,-5.4037 L 24.6059,-5.58946 L 24.6397,-5.75302 L 24.696,-5.89436 L 24.7748,-6.01347
 L 24.8727,-6.10797 L 24.9861,-6.17548 L 25.115,-6.21597 L 25.2595,-6.22948 L 25.3586,-6.22362 L 25.4488,-6.20601
 L 25.53,-6.17667 L 25.6022,-6.13559 L 25.6643,-6.08392 L 25.7154,-6.0228 L 25.7554,-5.95222 L 25.7842,-5.87219
 L 26.451,-5.87219 L 26.4259,-6.00327 L 26.3844,-6.12671 L 26.3265,-6.24252 L 26.2521,-6.35071 L 26.1635,-6.44937
 L 26.0632,-6.53664 L 25.9511,-6.61252 L 25.8272,-6.677 L 25.6937,-6.72845 L 25.5527,-6.7652 L 25.4042,-6.78725
 L 25.2483,-6.7946 L 25.0669,-6.78429 L 24.8943,-6.75336 L 24.7307,-6.7018 L 24.5759,-6.62961 L 24.4333,-6.5379
 L 24.306,-6.42773 L 24.1942,-6.2991 L 24.0978,-6.15201 L 24.0202,-5.98743 L 23.9648,-5.80634 L 23.9315,-5.60872
 L 23.9204,-5.39459 L 23.9309,-5.18768 L 23.9624,-4.99536 L 24.015,-4.81763 L 24.0885,-4.65448 L 24.1808,-4.50757
 L 24.2897,-4.37854 L 24.4152,-4.26741 L 24.5572,-4.17416 L 24.7137,-4.10039 L 24.8822,-4.0477 L 25.0629,-4.01608
 L 25.2557,-4.00554 z
M 20.0676,-4.01562 L 20.2399,-4.04587 L 20.4033,-4.09628 L 20.5576,-4.16685 L 20.6997,-4.25691 L 20.8263,-4.36578
 L 20.9374,-4.49344 L 21.0329,-4.63991 L 21.1097,-4.8042 L 21.1646,-4.98535 L 21.1975,-5.18336 L 21.2085,-5.39824
 L 21.1975,-5.61392 L 21.1646,-5.8125 L 21.1097,-5.99399 L 21.0329,-6.15839 L 20.9374,-6.3049 L 20.8263,-6.43274
 L 20.6997,-6.54189 L 20.5576,-6.63235 L 20.4033,-6.70334 L 20.2399,-6.75404 L 20.0676,-6.78445 L 19.8862,-6.7946
 L 19.7033,-6.78445 L 19.5298,-6.75404 L 19.3657,-6.70334 L 19.2111,-6.63235 L 19.069,-6.54189 L 18.9424,-6.43274
 L 18.8313,-6.3049 L 18.7358,-6.15839 L 18.659,-5.99399 L 18.6041,-5.8125 L 18.5712,-5.61392 L 18.5603,-5.39824
 L 18.5712,-5.18416 L 18.6041,-4.98671 L 18.659,-4.80589 L 18.7358,-4.64171 L 18.8313,-4.49519 L 18.9424,-4.36737
 L 19.069,-4.25822 L 19.2111,-4.16776 L 19.3657,-4.09679 L 19.5298,-4.0461 L 19.7033,-4.01569 L 19.8862,-4.00554
 z
M 19.7422,-4.58391 L 19.6145,-4.62373 L 19.5031,-4.69008 L 19.4081,-4.78299 L 19.3321,-4.90108 L 19.2779,-5.04298
 L 19.2453,-5.20871 L 19.2345,-5.39824 L 19.2453,-5.58862 L 19.2779,-5.75507 L 19.3321,-5.89758 L 19.4081,-6.01619
 L 19.5031,-6.1095 L 19.6145,-6.17615 L 19.7422,-6.21614 L 19.8862,-6.22948 L 20.0294,-6.21614 L 20.1566,-6.17615
 L 20.2676,-6.1095 L 20.3625,-6.01619 L 20.4384,-5.89758 L 20.4927,-5.75507 L 20.5253,-5.58862 L 20.5361,-5.39824
 L 20.5253,-5.20871 L 20.4927,-5.04298 L 20.4384,-4.90108 L 20.3625,-4.78299 L 20.2676,-4.69008 L 20.1566,-4.62373
 L 20.0294,-4.58391 L 19.8862,-4.57063 z
M 29.9218,-4.0285 L 30.1528,-4.09737 L 30.3528,-4.21216 L 30.5219,-4.37285 L 30.6562,-4.57469 L 30.7523,-4.81285
 L 30.8099,-5.08737 L 30.8291,-5.39824 L 30.8204,-5.60999 L 30.7943,-5.80589 L 30.7508,-5.98595 L 30.6899,-6.15018
 L 30.6127,-6.29733 L 30.5202,-6.42613 L 30.4124,-6.53659 L 30.2893,-6.62869 L 30.1519,-6.70128 L 30.0012,-6.75313
 L 29.8372,-6.78423 L 29.6599,-6.7946 L 29.3996,-6.77159 L 29.1695,-6.70253 L 28.9696,-6.58746 L 28.7999,-6.42635
 L 28.6647,-6.224 L 28.5681,-5.98521 L 28.5102,-5.70995 L 28.4909,-5.39824 L 28.5102,-5.08664 L 28.5681,-4.81172
 L 28.6647,-4.57349 L 28.7999,-4.37195 L 28.9696,-4.21164 L 29.1695,-4.09714 L 29.3996,-4.02844 L 29.6599,-4.00554
 z
M 29.5483,-4.54637 L 29.4506,-4.58841 L 29.3667,-4.65848 L 29.2967,-4.75656 L 29.2416,-4.88075 L 29.2022,-5.0291
 L 29.1785,-5.2016 L 29.1706,-5.39824 L 29.1786,-5.59586 L 29.2024,-5.76944 L 29.2421,-5.91896 L 29.2976,-6.04446
 L 29.3679,-6.14375 L 29.4517,-6.21468 L 29.5491,-6.25723 L 29.6599,-6.27141 L 29.7717,-6.25723 L 29.8696,-6.21468
 L 29.9537,-6.14375 L 30.0241,-6.04446 L 30.0797,-5.91896 L 30.1194,-5.76944 L 30.1432,-5.59586 L 30.1511,-5.39824
 L 30.1432,-5.2016 L 30.1194,-5.0291 L 30.0797,-4.88075 L 30.0241,-4.75656 L 29.9537,-4.65848 L 29.8696,-4.58841
 L 29.7717,-4.54637 L 29.6599,-4.53236 z
M 32.3293,-4.01204 L 32.4778,-4.03151 L 32.6169,-4.06398 L 32.7467,-4.10944 L 32.865,-4.16623 L 32.9696,-4.23271
 L 33.0606,-4.30887 L 33.1379,-4.39471 L 33.1996,-4.48875 L 33.2437,-4.58954 L 33.2701,-4.69704 L 33.2789,-4.81126
 L 33.2687,-4.93179 L 33.2381,-5.04184 L 33.187,-5.14142 L 33.1155,-5.23051 L 33.0241,-5.30629 L 32.9131,-5.36588
 L 32.7827,-5.40929 L 32.6327,-5.43652 L 32.6327,-5.45657 L 32.7477,-5.48106 L 32.8515,-5.51991 L 32.9442,-5.57312
 L 33.0259,-5.64067 L 33.0925,-5.72031 L 33.14,-5.80975 L 33.1686,-5.909 L 33.1781,-6.01804 L 33.1702,-6.12552
 L 33.1466,-6.22743 L 33.1072,-6.32375 L 33.052,-6.41449 L 32.9828,-6.49783 L 32.9012,-6.57196 L 32.8073,-6.63686
 L 32.7009,-6.6925 L 32.584,-6.73717 L 32.4584,-6.76907 L 32.324,-6.78822 L 32.1808,-6.7946 L 32.0354,-6.78806
 L 31.8981,-6.76839 L 31.7688,-6.73563 L 31.6476,-6.68977 L 31.5366,-6.6324 L 31.438,-6.56514 L 31.3517,-6.48795
 L 31.2778,-6.40083 L 31.2185,-6.30525 L 31.1758,-6.20261 L 31.1498,-6.0929 L 31.1406,-5.9761 L 31.7737,-5.9761
 L 31.7818,-6.04366 L 31.8042,-6.10414 L 31.841,-6.15758 L 31.8922,-6.20395 L 31.9539,-6.24142 L 32.0223,-6.2682
 L 32.0973,-6.28429 L 32.1789,-6.28963 L 32.2555,-6.28423 L 32.3246,-6.26799 L 32.3862,-6.24094 L 32.4404,-6.20305
 L 32.4845,-6.15651 L 32.516,-6.10349 L 32.5349,-6.04396 L 32.5412,-5.97794 L 32.5339,-5.90929 L 32.5118,-5.84735
 L 32.475,-5.79216 L 32.4236,-5.74368 L 32.3605,-5.70419 L 32.2891,-5.67599 L 32.2093,-5.65909 L 32.121,-5.65344
 L 31.8502,-5.65344 L 31.8502,-5.19406 L 32.121,-5.19406 L 32.2221,-5.18825 L 32.3125,-5.17082 L 32.3921,-5.14177
 L 32.4609,-5.10109 L 32.5165,-5.05119 L 32.5562,-4.99446 L 32.58,-4.93089 L 32.5879,-4.86049 L 32.5808,-4.79019
 L 32.5592,-4.72696 L 32.5233,-4.67079 L 32.4731,-4.62167 L 32.4115,-4.5818 L 32.3416,-4.55331 L 32.2635,-4.53622
 L 32.1771,-4.53053 L 32.0894,-4.53577 L 32.0094,-4.55148 L 31.9372,-4.5777 L 31.8727,-4.61436 L 31.8193,-4.65961
 L 31.7807,-4.71144 L 31.7567,-4.7699 L 31.7475,-4.83495 L 31.0864,-4.83495 L 31.096,-4.7164 L 31.1228,-4.60504
 L 31.1669,-4.50084 L 31.2283,-4.40382 L 31.3048,-4.31548 L 31.3943,-4.23726 L 31.4967,-4.16919 L 31.6121,-4.11125
 L 31.7385,-4.065 L 31.8738,-4.03197 L 32.0181,-4.01215 L 32.1715,-4.00554 z
M 10.4778,-5.21228 L 10.4775,-5.26715 L 10.4766,-5.32964 L 10.4751,-5.39977 L 10.4731,-5.47751 L 10.4655,-5.73712
 L 10.4628,-5.83026 L 10.4601,-5.92436 L 10.4577,-6.01711 L 10.4554,-6.10847 L 10.4535,-6.19849 L 10.4771,-6.10297
 L 10.5013,-6.00778 L 10.5261,-5.91293 L 10.5515,-5.81844 L 10.5769,-5.72597 L 10.6017,-5.63727 L 10.6259,-5.55234
 L 10.6496,-5.47115 L 10.672,-5.39549 L 10.6925,-5.32713 L 10.7112,-5.26607 L 10.728,-5.21228 L 11.1295,-4.04199
 L 11.6805,-4.04199 L 12.0764,-5.21228 L 12.094,-5.26807 L 12.1133,-5.33147 L 12.1342,-5.4025 L 12.1567,-5.48117
 L 12.1803,-5.56554 L 12.2046,-5.65367 L 12.2294,-5.74556 L 12.2548,-5.8412 L 12.2801,-5.93861 L 12.3049,-6.0358
 L 12.3292,-6.13275 L 12.3528,-6.22948 L 12.3508,-6.13742 L 12.3486,-6.04355 L 12.3461,-5.94785 L 12.3435,-5.85031
 L 12.3381,-5.66051 L 12.3332,-5.48482 L 12.3311,-5.40456 L 12.3297,-5.33238 L 12.3288,-5.2683 L 12.3285,-5.21228
 L 12.3285,-4.04199 L 12.9915,-4.04199 L 12.9915,-6.75812 L 11.9625,-6.75812 L 11.6133,-5.70084 L 11.5987,-5.65076
 L 11.5831,-5.59352 L 11.5665,-5.52908 L 11.5488,-5.45749 L 11.5306,-5.38092 L 11.5124,-5.30162 L 11.4942,-5.21959
 L 11.476,-5.13483 L 11.4581,-5.04932 L 11.4407,-4.96507 L 11.424,-4.88208 L 11.4078,-4.80032 L 11.3908,-4.88213
 L 11.3732,-4.9653 L 11.3553,-5.04984 L 11.3368,-5.13573 L 11.3182,-5.22084 L 11.2997,-5.30299 L 11.2813,-5.38217
 L 11.2631,-5.4584 L 11.2454,-5.5296 L 11.2287,-5.59375 L 11.2132,-5.65082 L 11.1986,-5.70084 L 10.8438,-6.75812
 L 9.81664,-6.75812 L 9.81664,-4.04199 L 10.4778,-4.04199 z
M 14.0013,-5.21228 L 14.001,-5.26715 L 14.0002,-5.32964 L 13.9987,-5.39977 L 13.9966,-5.47751 L 13.9918,-5.64728
 L 13.9864,-5.83026 L 13.9837,-5.92436 L 13.9812,-6.01711 L 13.979,-6.10847 L 13.977,-6.19849 L 14.0007,-6.10297
 L 14.0249,-6.00778 L 14.0497,-5.91293 L 14.0751,-5.81844 L 14.1005,-5.72597 L 14.1253,-5.63727 L 14.1495,-5.55234
 L 14.1731,-5.47115 L 14.1956,-5.39549 L 14.2161,-5.32713 L 14.2348,-5.26607 L 14.2516,-5.21228 L 14.6531,-4.04199
 L 15.204,-4.04199 L 15.6,-5.21228 L 15.6176,-5.26807 L 15.6369,-5.33147 L 15.6577,-5.4025 L 15.6803,-5.48117
 L 15.7039,-5.56554 L 15.7281,-5.65367 L 15.7529,-5.74556 L 15.7783,-5.8412 L 15.8037,-5.93861 L 15.8285,-6.0358
 L 15.8527,-6.13275 L 15.8764,-6.22948 L 15.8744,-6.13742 L 15.8722,-6.04355 L 15.8697,-5.94785 L 15.867,-5.85031
 L 15.8617,-5.66051 L 15.8568,-5.48482 L 15.8547,-5.40456 L 15.8533,-5.33238 L 15.8524,-5.2683 L 15.8521,-5.21228
 L 15.8521,-4.04199 L 16.5151,-4.04199 L 16.5151,-6.75812 L 15.486,-6.75812 L 15.1368,-5.70084 L 15.1223,-5.65076
 L 15.1067,-5.59352 L 15.0901,-5.52908 L 15.0724,-5.45749 L 15.0542,-5.38092 L 15.036,-5.30162 L 15.0178,-5.21959
 L 14.9995,-5.13483 L 14.9816,-5.04932 L 14.9643,-4.96507 L 14.9476,-4.88208 L 14.9314,-4.80032 L 14.9143,-4.88213
 L 14.8968,-4.9653 L 14.8788,-5.04984 L 14.8604,-5.13573 L 14.8418,-5.22084 L 14.8233,-5.30299 L 14.8049,-5.38217
 L 14.7867,-5.4584 L 14.769,-5.5296 L 14.7523,-5.59375 L 14.7367,-5.65082 L 14.7222,-5.70084 L 14.3674,-6.75812
 L 13.3402,-6.75812 L 13.3402,-4.04199 L 14.0013,-4.04199 z
M 22.1701,-4.97714 L 22.5287,-4.97714 L 23.0385,-4.04199 L 23.7612,-4.04199 L 23.1804,-5.07924 L 23.2896,-5.1362
 L 23.3856,-5.20502 L 23.4684,-5.28568 L 23.5381,-5.37819 L 23.5932,-5.48187 L 23.6326,-5.59602 L 23.6563,-5.72067
 L 23.6641,-5.85579 L 23.6472,-6.05284 L 23.5962,-6.22835 L 23.5113,-6.38231 L 23.3924,-6.51476 L 23.2441,-6.62123
 L 23.0709,-6.69728 L 22.8729,-6.74292 L 22.65,-6.75812 L 21.5108,-6.75812 L 21.5108,-4.04199 L 22.1701,-4.04199
 z
M 22.1701,-5.48573 L 22.1701,-6.23679 L 22.51,-6.23679 L 22.7159,-6.21298 L 22.863,-6.14154 L 22.9512,-6.02248
 L 22.9806,-5.85579 L 22.9513,-5.69389 L 22.8634,-5.57825 L 22.7169,-5.50887 L 22.5119,-5.48573 z
M 18.1898,-5.64433 L 16.9068,-5.64433 L 16.9068,-5.15396 L 18.1898,-5.15396 z
M 28.1204,-5.64433 L 26.8374,-5.64433 L 26.8374,-5.15396 L 28.1204,-5.15396 z
M 31.432,-0.80986 L 31.4807,-0.811844 L 31.5309,-0.81517 L 31.5826,-0.819824 L 31.6354,-0.826355 L 31.6891,-0.835327
 L 31.7439,-0.846725 L 31.7995,-0.860565 L 31.7139,-1.31039 L 31.6984,-1.30757 L 31.6785,-1.30443 L 31.6541,-1.30093
 L 31.6254,-1.2971 L 31.5962,-1.29362 L 31.5704,-1.29112 L 31.5481,-1.28964 L 31.5293,-1.28914 L 31.4552,-1.29877
 L 31.4022,-1.32765 L 31.3705,-1.37581 L 31.3599,-1.44322 L 31.3599,-2.35886 L 31.7425,-2.35886 L 31.7425,-2.81755
 L 31.3599,-2.81755 L 31.3599,-3.28867 L 30.6956,-3.28867 L 30.6956,-2.81755 L 30.0308,-2.81755 L 30.0308,-2.92914
 L 30.0337,-2.97025 L 30.0424,-3.00684 L 30.057,-3.03888 L 30.0774,-3.06636 L 30.1052,-3.08846 L 30.1419,-3.10423
 L 30.1875,-3.11369 L 30.2421,-3.11685 L 30.2677,-3.11635 L 30.2934,-3.11485 L 30.3191,-3.11237 L 30.3448,-3.10889
 L 30.3697,-3.10484 L 30.3929,-3.10069 L 30.4144,-3.09644 L 30.4343,-3.09207 L 30.5409,-3.54367 L 30.5073,-3.55193
 L 30.4657,-3.56073 L 30.416,-3.57007 L 30.3582,-3.57997 L 30.2952,-3.58888 L 30.2302,-3.59525 L 30.1629,-3.59908
 L 30.0936,-3.60034 L 29.9411,-3.58983 L 29.8033,-3.55827 L 29.6803,-3.50569 L 29.5721,-3.43208 L 29.4838,-3.33723
 L 29.4208,-3.2209 L 29.383,-3.08308 L 29.3704,-2.92381 L 29.3704,-2.81755 L 29.0125,-2.81755 L 29.0125,-2.35886
 L 29.3704,-2.35886 L 29.3704,-0.837524 L 30.0308,-0.837524 L 30.0308,-2.35886 L 30.6956,-2.35886 L 30.6956,-1.38832
 L 30.7066,-1.25511 L 30.7394,-1.13882 L 30.7941,-1.03947 L 30.8707,-0.957062 L 30.9685,-0.892365 L 31.0868,-0.846161
 L 31.2255,-0.818436 L 31.3846,-0.809204 z
M 13.5562,-0.824417 L 13.7916,-0.891327 L 13.9954,-1.00285 L 14.1677,-1.15898 L 14.3047,-1.35507 L 14.4025,-1.58646
 L 14.4612,-1.85316 L 14.4808,-2.1552 L 14.472,-2.3609 L 14.4454,-2.55124 L 14.401,-2.72618 L 14.339,-2.88573
 L 14.2603,-3.02869 L 14.166,-3.15382 L 14.0562,-3.26114 L 13.9308,-3.35063 L 13.7907,-3.42114 L 13.6372,-3.47151
 L 13.47,-3.50174 L 13.2894,-3.51181 L 13.024,-3.48946 L 12.7895,-3.42236 L 12.5858,-3.31056 L 12.4129,-3.15404
 L 12.2751,-2.95746 L 12.1767,-2.72545 L 12.1176,-2.45802 L 12.0979,-2.1552 L 12.1176,-1.85245 L 12.1767,-1.58536
 L 12.2751,-1.3539 L 12.4129,-1.1581 L 12.5858,-1.00235 L 12.7895,-0.891113 L 13.024,-0.824371 L 13.2894,-0.802124
 z
M 13.1756,-1.32756 L 13.076,-1.36841 L 12.9905,-1.43648 L 12.9192,-1.53177 L 12.863,-1.65244 L 12.8228,-1.79655
 L 12.7987,-1.96414 L 12.7907,-2.1552 L 12.7988,-2.34718 L 12.8231,-2.51582 L 12.8635,-2.6611 L 12.9201,-2.78302
 L 12.9917,-2.87949 L 13.0771,-2.94839 L 13.1763,-2.98973 L 13.2894,-3.00351 L 13.4032,-2.98973 L 13.503,-2.94839
 L 13.5888,-2.87949 L 13.6605,-2.78302 L 13.7171,-2.6611 L 13.7576,-2.51582 L 13.7818,-2.34718 L 13.7899,-2.1552
 L 13.7818,-1.96414 L 13.7576,-1.79655 L 13.7171,-1.65244 L 13.6605,-1.53177 L 13.5888,-1.43648 L 13.503,-1.36841
 L 13.4032,-1.32756 L 13.2894,-1.31395 z
M 19.9704,-0.824417 L 20.2058,-0.891327 L 20.4096,-1.00285 L 20.5819,-1.15898 L 20.7189,-1.35507 L 20.8167,-1.58646
 L 20.8754,-1.85316 L 20.895,-2.1552 L 20.8861,-2.3609 L 20.8596,-2.55124 L 20.8152,-2.72618 L 20.7532,-2.88573
 L 20.6745,-3.02869 L 20.5802,-3.15382 L 20.4704,-3.26114 L 20.3449,-3.35063 L 20.2049,-3.42114 L 20.0514,-3.47151
 L 19.8842,-3.50174 L 19.7036,-3.51181 L 19.4382,-3.48946 L 19.2037,-3.42236 L 19,-3.31056 L 18.8271,-3.15404
 L 18.6893,-2.95746 L 18.5909,-2.72545 L 18.5318,-2.45802 L 18.5121,-2.1552 L 18.5318,-1.85245 L 18.5909,-1.58536
 L 18.6893,-1.3539 L 18.8271,-1.1581 L 19,-1.00235 L 19.2037,-0.891113 L 19.4382,-0.824371 L 19.7036,-0.802124
 z
M 19.5898,-1.32756 L 19.4902,-1.36841 L 19.4047,-1.43648 L 19.3334,-1.53177 L 19.2772,-1.65244 L 19.237,-1.79655
 L 19.2129,-1.96414 L 19.2049,-2.1552 L 19.213,-2.34718 L 19.2373,-2.51582 L 19.2777,-2.6611 L 19.3343,-2.78302
 L 19.4059,-2.87949 L 19.4913,-2.94839 L 19.5905,-2.98973 L 19.7036,-3.00351 L 19.8174,-2.98973 L 19.9172,-2.94839
 L 20.003,-2.87949 L 20.0747,-2.78302 L 20.1313,-2.6611 L 20.1718,-2.51582 L 20.196,-2.34718 L 20.2041,-2.1552
 L 20.196,-1.96414 L 20.1718,-1.79655 L 20.1313,-1.65244 L 20.0747,-1.53177 L 20.003,-1.43648 L 19.9172,-1.36841
 L 19.8174,-1.32756 L 19.7036,-1.31395 z
M 23.8887,-0.815887 L 23.9922,-0.835983 L 24.0833,-0.869461 L 24.1622,-0.916351 L 24.2299,-0.971634 L 24.2872,-1.03035
 L 24.3341,-1.09251 L 24.3707,-1.1581 L 24.3935,-1.1581 L 24.3935,-0.837524 L 25.0482,-0.837524 L 25.0482,-3.47638
 L 24.3859,-3.47638 L 24.3859,-2.47749 L 24.3707,-2.47749 L 24.3484,-2.5215 L 24.3214,-2.56494 L 24.2898,-2.60783
 L 24.2536,-2.65018 L 24.2124,-2.69037 L 24.1658,-2.72678 L 24.1139,-2.75943 L 24.0566,-2.78831 L 23.9936,-2.81197
 L 23.9243,-2.82884 L 23.8489,-2.83897 L 23.7673,-2.84236 L 23.6578,-2.83549 L 23.552,-2.8149 L 23.4499,-2.78058
 L 23.3515,-2.73254 L 23.2595,-2.67044 L 23.1768,-2.59395 L 23.1035,-2.50307 L 23.0393,-2.3978 L 22.9873,-2.27771
 L 22.9501,-2.14233 L 22.9278,-1.9917 L 22.9204,-1.82578 L 22.9275,-1.66444 L 22.9489,-1.51695 L 22.9846,-1.38329
 L 23.0346,-1.26347 L 23.0967,-1.15753 L 23.1688,-1.06555 L 23.2508,-0.987518 L 23.3429,-0.923416 L 23.4426,-0.873444
 L 23.5475,-0.837753 L 23.6577,-0.81633 L 23.7731,-0.809204 z
M 23.9091,-1.30009 L 23.8299,-1.32767 L 23.762,-1.3736 L 23.7055,-1.43791 L 23.6609,-1.51729 L 23.6291,-1.60838
 L 23.61,-1.71121 L 23.6037,-1.82578 L 23.61,-1.94029 L 23.6291,-2.04295 L 23.6609,-2.13377 L 23.7055,-2.21275
 L 23.762,-2.27667 L 23.8299,-2.32233 L 23.9091,-2.34973 L 23.9995,-2.35886 L 24.0894,-2.3499 L 24.1687,-2.323
 L 24.2374,-2.27815 L 24.2955,-2.21539 L 24.3417,-2.13724 L 24.3747,-2.04626 L 24.3945,-1.94244 L 24.4011,-1.82578
 L 24.3945,-1.71049 L 24.3745,-1.60727 L 24.3412,-1.51611 L 24.2945,-1.43703 L 24.2361,-1.37311 L 24.1675,-1.32744
 L 24.0886,-1.30005 L 23.9995,-1.29091 z
M 16.9508,-3.47638 L 16.2561,-3.47638 L 15.6242,-3.07259 L 15.6242,-2.52357 L 16.2618,-2.93266 L 16.2808,-2.93266
 L 16.2808,-0.837524 L 16.9508,-0.837524 z
M 34.3217,-3.47638 L 33.627,-3.47638 L 32.9951,-3.07259 L 32.9951,-2.52357 L 33.6327,-2.93266 L 33.6517,-2.93266
 L 33.6517,-0.837524 L 34.3217,-0.837524 z
M 6.59973,-0.800308 L 6.67059,-0.801361 L 6.74037,-0.803253 L 6.80911,-0.806122 L 6.87688,-0.810074 L 6.94376,-0.815247
 L 7.00977,-0.821732 L 7.075,-0.829681 L 7.13951,-0.839203 L 7.20335,-0.850418 L 7.26659,-0.863434 L 7.32928,-0.878403
 L 7.39149,-0.895432 L 7.45328,-0.914627 L 7.51469,-0.936127 L 7.57582,-0.960052 L 7.63669,-0.986511 L 7.69739,-1.01562
 L 7.75797,-1.04753 L 7.81848,-1.08235 L 4.51091,-2.97815 L 1.52605,-1.12268 L 1.56325,-1.09303 L 1.60223,-1.06464
 L 1.64297,-1.03751 L 1.68546,-1.01167 L 1.72961,-0.987183 L 1.77544,-0.964035 L 1.82291,-0.942291 L 1.87196,-0.921967
 L 1.92261,-0.903091 L 1.97478,-0.885712 L 2.02847,-0.869827 L 2.08365,-0.855499 L 2.14027,-0.842728 L 2.19832,-0.831573
 L 2.25777,-0.822052 L 2.31857,-0.814194 L 2.38071,-0.808029 L 2.44414,-0.803589 L 2.50883,-0.800888 L 2.57478,-0.799988
 L 6.52773,-0.799988 z
M 27.7528,-0.821716 L 27.9234,-0.880478 L 28.0612,-0.978439 L 28.1661,-1.11557 L 28.1832,-1.11557 L 28.1832,-0.837524
 L 28.8075,-0.837524 L 28.8075,-2.18175 L 28.7996,-2.28397 L 28.7758,-2.37811 L 28.7363,-2.46416 L 28.6809,-2.54213
 L 28.6122,-2.6116 L 28.5325,-2.67209 L 28.4418,-2.72362 L 28.3402,-2.76617 L 28.23,-2.7995 L 28.1135,-2.8233
 L 27.9907,-2.8376 L 27.8616,-2.84236 L 27.6714,-2.83244 L 27.5007,-2.80272 L 27.3493,-2.75319 L 27.2173,-2.68384
 L 27.1064,-2.59866 L 27.0182,-2.50165 L 26.9527,-2.39279 L 26.9099,-2.27208 L 27.5114,-2.19945 L 27.5286,-2.24394
 L 27.5537,-2.28357 L 27.5867,-2.31833 L 27.6275,-2.34821 L 27.6753,-2.37224 L 27.7293,-2.38939 L 27.7895,-2.39969
 L 27.8559,-2.40312 L 27.9198,-2.39964 L 27.9765,-2.38918 L 28.0259,-2.37175 L 28.068,-2.34735 L 28.1018,-2.31651
 L 28.1259,-2.27983 L 28.1403,-2.23726 L 28.1451,-2.18883 L 28.1451,-2.18175 L 28.1378,-2.13953 L 28.1159,-2.10493
 L 28.0793,-2.07799 L 28.0281,-2.05867 L 27.96,-2.04378 L 27.8727,-2.03011 L 27.7663,-2.01765 L 27.6408,-2.00641
 L 27.5355,-1.9948 L 27.4345,-1.97763 L 27.338,-1.95494 L 27.2459,-1.92671 L 27.1604,-1.89153 L 27.0838,-1.84792
 L 27.0162,-1.79588 L 26.9575,-1.73544 L 26.91,-1.66516 L 26.8762,-1.58359 L 26.8558,-1.49071 L 26.849,-1.38655
 L 26.8613,-1.24886 L 26.8983,-1.12976 L 26.9598,-1.02925 L 27.046,-0.947342 L 27.1514,-0.883804 L 27.2704,-0.838425
 L 27.4031,-0.811188 L 27.5494,-0.802124 z
M 27.6939,-1.21448 L 27.642,-1.22427 L 27.5954,-1.2406 L 27.5542,-1.26347 L 27.5205,-1.29253 L 27.4964,-1.32745
 L 27.4819,-1.36824 L 27.4771,-1.41489 L 27.4963,-1.502 L 27.5537,-1.5703 L 27.6495,-1.61977 L 27.7835,-1.65044
 L 27.8311,-1.65785 L 27.8806,-1.66592 L 27.932,-1.67467 L 27.9853,-1.68408 L 28.0363,-1.69437 L 28.0809,-1.70578
 L 28.1191,-1.71829 L 28.1509,-1.73192 L 28.1509,-1.5424 L 28.1436,-1.47234 L 28.1218,-1.40912 L 28.0856,-1.35278
 L 28.0348,-1.3033 L 27.9735,-1.263 L 27.9058,-1.23424 L 27.8317,-1.21696 L 27.7512,-1.21121 z
M 26.0939,-1.91786 L 26.1014,-2.00221 L 26.1241,-2.07814 L 26.1618,-2.14566 L 26.2147,-2.20476 L 26.2791,-2.25279
 L 26.3515,-2.28711 L 26.4319,-2.30771 L 26.5202,-2.31458 L 26.5517,-2.31407 L 26.5851,-2.31258 L 26.6206,-2.31009
 L 26.6581,-2.30661 L 26.6949,-2.30212 L 26.7279,-2.29665 L 26.7572,-2.29018 L 26.7828,-2.28271 L 26.7828,-2.82109
 L 26.7368,-2.8304 L 26.6901,-2.83704 L 26.6426,-2.84102 L 26.5944,-2.84236 L 26.5095,-2.83638 L 26.43,-2.81845
 L 26.3559,-2.78856 L 26.287,-2.74672 L 26.2256,-2.6927 L 26.1736,-2.6263 L 26.1309,-2.54749 L 26.0977,-2.45627
 L 26.0748,-2.45627 L 26.0748,-2.81755 L 25.4296,-2.81755 L 25.4296,-0.837524 L 26.0939,-0.837524 z
M 11.9562,-2.81755 L 11.2634,-2.81755 L 10.9513,-1.84879 L 10.93,-1.78143 L 10.9099,-1.71396 L 10.891,-1.64639
 L 10.8732,-1.5787 L 10.8564,-1.51047 L 10.84,-1.44122 L 10.824,-1.371 L 10.8086,-1.29976 L 10.7914,-1.37105
 L 10.774,-1.44145 L 10.7566,-1.51096 L 10.7391,-1.57959 L 10.7209,-1.64755 L 10.7017,-1.71507 L 10.6815,-1.78215
 L 10.6601,-1.84879 L 10.3423,-2.81755 L 9.64186,-2.81755 L 10.4127,-0.837524 L 11.1816,-0.837524 z
M 22.5619,-2.14456 L 21.2543,-2.14456 L 21.2543,-1.66815 L 22.5619,-1.66815 z
M 17.8914,-0.806259 L 17.9584,-0.824036 L 18.0194,-0.853638 L 18.0743,-0.895081 L 18.1196,-0.945282 L 18.1521,-1.00113
 L 18.1715,-1.06262 L 18.178,-1.12976 L 18.1715,-1.19766 L 18.1521,-1.2597 L 18.1196,-1.31587 L 18.0743,-1.36618
 L 18.0194,-1.40764 L 17.9584,-1.43726 L 17.8914,-1.45502 L 17.8183,-1.46095 L 17.7452,-1.45502 L 17.6782,-1.43726
 L 17.6172,-1.40764 L 17.5623,-1.36618 L 17.5169,-1.31587 L 17.4845,-1.2597 L 17.4651,-1.19766 L 17.4586,-1.12976
 L 17.4651,-1.06262 L 17.4845,-1.00113 L 17.5169,-0.945282 L 17.5623,-0.895081 L 17.6172,-0.853638 L 17.6782,-0.824036
 L 17.7452,-0.806259 L 17.8183,-0.800339 z
M 15.2187,-0.806259 L 15.2857,-0.824036 L 15.3466,-0.853638 L 15.4016,-0.895081 L 15.4469,-0.945282 L 15.4793,-1.00113
 L 15.4988,-1.06262 L 15.5053,-1.12976 L 15.4988,-1.19766 L 15.4793,-1.2597 L 15.4469,-1.31587 L 15.4016,-1.36618
 L 15.3466,-1.40764 L 15.2857,-1.43726 L 15.2187,-1.45502 L 15.1456,-1.46095 L 15.0725,-1.45502 L 15.0054,-1.43726
 L 14.9445,-1.40764 L 14.8896,-1.36618 L 14.8442,-1.31587 L 14.8118,-1.2597 L 14.7924,-1.19766 L 14.7859,-1.12976
 L 14.7924,-1.06262 L 14.8118,-1.00113 L 14.8442,-0.945282 L 14.8896,-0.895081 L 14.9445,-0.853638 L 15.0054,-0.824036
 L 15.0725,-0.806259 L 15.1456,-0.800339 z
M 32.5895,-0.806259 L 32.6566,-0.824036 L 32.7175,-0.853638 L 32.7724,-0.895081 L 32.8178,-0.945282 L 32.8502,-1.00113
 L 32.8697,-1.06262 L 32.8762,-1.12976 L 32.8697,-1.19766 L 32.8502,-1.2597 L 32.8178,-1.31587 L 32.7724,-1.36618
 L 32.7175,-1.40764 L 32.6566,-1.43726 L 32.5895,-1.45502 L 32.5164,-1.46095 L 32.4434,-1.45502 L 32.3763,-1.43726
 L 32.3154,-1.40764 L 32.2605,-1.36618 L 32.2151,-1.31587 L 32.1827,-1.2597 L 32.1632,-1.19766 L 32.1568,-1.12976
 L 32.1632,-1.06262 L 32.1827,-1.00113 L 32.2151,-0.945282 L 32.2605,-0.895081 L 32.3154,-0.853638 L 32.3763,-0.824036
 L 32.4434,-0.806259 L 32.5164,-0.800339 z
" stroke="none" fill="#000000"/>
</svg>
