  0
SECTION
  2
BLOCKS
  0
ENDSEC
  0
SECTION
  2
ENTITIES
  0
LINE
  8
0
 10
19.1409
 20
9.77843
 11
19.2048
 21
9.79558
  0
LINE
  8
0
 10
19.2048
 20
9.79558
 11
19.2633
 21
9.82419
  0
LINE
  8
0
 10
19.2633
 20
9.82419
 11
19.3166
 21
9.86423
  0
LINE
  8
0
 10
19.3166
 20
9.86423
 11
19.361
 21
9.91245
  0
LINE
  8
0
 10
19.361
 20
9.91245
 11
19.3926
 21
9.96558
  0
LINE
  8
0
 10
19.3926
 20
9.96558
 11
19.4117
 21
10.0236
  0
LINE
  8
0
 10
19.4117
 20
10.0236
 11
19.418
 21
10.0865
  0
LINE
  8
0
 10
19.418
 20
10.0865
 11
19.4117
 21
10.1495
  0
LINE
  8
0
 10
19.4117
 20
10.1495
 11
19.3926
 21
10.2075
  0
LINE
  8
0
 10
19.3926
 20
10.2075
 11
19.361
 21
10.2606
  0
LINE
  8
0
 10
19.361
 20
10.2606
 11
19.3166
 21
10.3088
  0
LINE
  8
0
 10
19.3166
 20
10.3088
 11
19.2633
 21
10.3489
  0
LINE
  8
0
 10
19.2633
 20
10.3489
 11
19.2048
 21
10.3775
  0
LINE
  8
0
 10
19.2048
 20
10.3775
 11
19.1409
 21
10.3946
  0
LINE
  8
0
 10
19.1409
 20
10.3946
 11
19.0719
 21
10.4004
  0
LINE
  8
0
 10
19.0719
 20
10.4004
 11
19.0036
 21
10.3946
  0
LINE
  8
0
 10
19.0036
 20
10.3946
 11
18.9404
 21
10.3775
  0
LINE
  8
0
 10
18.9404
 20
10.3775
 11
18.8822
 21
10.3489
  0
LINE
  8
0
 10
18.8822
 20
10.3489
 11
18.829
 21
10.3088
  0
LINE
  8
0
 10
18.829
 20
10.3088
 11
18.7846
 21
10.2606
  0
LINE
  8
0
 10
18.7846
 20
10.2606
 11
18.753
 21
10.2075
  0
LINE
  8
0
 10
18.753
 20
10.2075
 11
18.734
 21
10.1495
  0
LINE
  8
0
 10
18.734
 20
10.1495
 11
18.7276
 21
10.0865
  0
LINE
  8
0
 10
18.7276
 20
10.0865
 11
18.734
 21
10.0236
  0
LINE
  8
0
 10
18.734
 20
10.0236
 11
18.753
 21
9.96558
  0
LINE
  8
0
 10
18.753
 20
9.96558
 11
18.7846
 21
9.91245
  0
LINE
  8
0
 10
18.7846
 20
9.91245
 11
18.829
 21
9.86423
  0
LINE
  8
0
 10
18.829
 20
9.86423
 11
18.8822
 21
9.82419
  0
LINE
  8
0
 10
18.8822
 20
9.82419
 11
18.9404
 21
9.79558
  0
LINE
  8
0
 10
18.9404
 20
9.79558
 11
19.0036
 21
9.77843
  0
LINE
  8
0
 10
19.0036
 20
9.77843
 11
19.0719
 21
9.77271
  0
LINE
  8
0
 10
19.0719
 20
9.77271
 11
19.1409
 21
9.77843
  0
LINE
  8
0
 10
4.47058
 20
3.3815
 11
4.47058
 21
7.53613
  0
LINE
  8
0
 10
4.47058
 20
7.53613
 11
8.22185
 21
9.9563
  0
LINE
  8
0
 10
8.22185
 20
9.9563
 11
8.17888
 21
9.99774
  0
LINE
  8
0
 10
8.17888
 20
9.99774
 11
8.13472
 21
10.0373
  0
LINE
  8
0
 10
8.13472
 20
10.0373
 11
8.08934
 21
10.075
  0
LINE
  8
0
 10
8.08934
 20
10.075
 11
8.04276
 21
10.1109
  0
LINE
  8
0
 10
8.04276
 20
10.1109
 11
7.99495
 21
10.1447
  0
LINE
  8
0
 10
7.99495
 20
10.1447
 11
7.94594
 21
10.1767
  0
LINE
  8
0
 10
7.94594
 20
10.1767
 11
7.89572
 21
10.2066
  0
LINE
  8
0
 10
7.89572
 20
10.2066
 11
7.8443
 21
10.2345
  0
LINE
  8
0
 10
7.8443
 20
10.2345
 11
7.79166
 21
10.2603
  0
LINE
  8
0
 10
7.79166
 20
10.2603
 11
7.73781
 21
10.284
  0
LINE
  8
0
 10
7.73781
 20
10.284
 11
7.68275
 21
10.3056
  0
LINE
  8
0
 10
7.68275
 20
10.3056
 11
7.62648
 21
10.3251
  0
LINE
  8
0
 10
7.62648
 20
10.3251
 11
7.569
 21
10.3424
  0
LINE
  8
0
 10
7.569
 20
10.3424
 11
7.51031
 21
10.3575
  0
LINE
  8
0
 10
7.51031
 20
10.3575
 11
7.45041
 21
10.3704
  0
LINE
  8
0
 10
7.45041
 20
10.3704
 11
7.3893
 21
10.381
  0
LINE
  8
0
 10
7.3893
 20
10.381
 11
7.32698
 21
10.3892
  0
LINE
  8
0
 10
7.32698
 20
10.3892
 11
7.26346
 21
10.3952
  0
LINE
  8
0
 10
7.26346
 20
10.3952
 11
7.19872
 21
10.3988
  0
LINE
  8
0
 10
7.19872
 20
10.3988
 11
7.13277
 21
10.4
  0
LINE
  8
0
 10
7.13277
 20
10.4
 11
3.2605
 21
10.4
  0
LINE
  8
0
 10
3.2605
 20
10.4
 11
3.05701
 21
10.3919
  0
LINE
  8
0
 10
3.05701
 20
10.3919
 11
2.85835
 21
10.3681
  0
LINE
  8
0
 10
2.85835
 20
10.3681
 11
2.66513
 21
10.3291
  0
LINE
  8
0
 10
2.66513
 20
10.3291
 11
2.47798
 21
10.2754
  0
LINE
  8
0
 10
2.47798
 20
10.2754
 11
2.29747
 21
10.2078
  0
LINE
  8
0
 10
2.29747
 20
10.2078
 11
2.12422
 21
10.1266
  0
LINE
  8
0
 10
2.12422
 20
10.1266
 11
1.95885
 21
10.0326
  0
LINE
  8
0
 10
1.95885
 20
10.0326
 11
1.80194
 21
9.92628
  0
LINE
  8
0
 10
1.80194
 20
9.92628
 11
1.65411
 21
9.80821
  0
LINE
  8
0
 10
1.65411
 20
9.80821
 11
1.51596
 21
9.67899
  0
LINE
  8
0
 10
1.51596
 20
9.67899
 11
1.38809
 21
9.53917
  0
LINE
  8
0
 10
1.38809
 20
9.53917
 11
1.27112
 21
9.38933
  0
LINE
  8
0
 10
1.27112
 20
9.38933
 11
1.16563
 21
9.23006
  0
LINE
  8
0
 10
1.16563
 20
9.23006
 11
1.07227
 21
9.06192
  0
LINE
  8
0
 10
1.07227
 20
9.06192
 11
0.991592
 21
8.8855
  0
LINE
  8
0
 10
0.991592
 20
8.8855
 11
0.924225
 21
8.70135
  0
LINE
  8
0
 10
0.924225
 20
8.70135
 11
0.870789
 21
8.51007
  0
LINE
  8
0
 10
0.870789
 20
8.51007
 11
0.831863
 21
8.31224
  0
LINE
  8
0
 10
0.831863
 20
8.31224
 11
0.80806
 21
8.1084
  0
LINE
  8
0
 10
0.80806
 20
8.1084
 11
0.799988
 21
7.89915
  0
LINE
  8
0
 10
0.799988
 20
7.89915
 11
0.799988
 21
2.73613
  0
LINE
  8
0
 10
0.799988
 20
2.73613
 11
0.800613
 21
2.66383
  0
LINE
  8
0
 10
0.800613
 20
2.66383
 11
0.80249
 21
2.59221
  0
LINE
  8
0
 10
0.80249
 20
2.59221
 11
0.80571
 21
2.5213
  0
LINE
  8
0
 10
0.80571
 20
2.5213
 11
0.810318
 21
2.45119
  0
LINE
  8
0
 10
0.810318
 20
2.45119
 11
0.816376
 21
2.38193
  0
LINE
  8
0
 10
0.816376
 20
2.38193
 11
0.823959
 21
2.31357
  0
LINE
  8
0
 10
0.823959
 20
2.31357
 11
0.833099
 21
2.24617
  0
LINE
  8
0
 10
0.833099
 20
2.24617
 11
0.843872
 21
2.17981
  0
LINE
  8
0
 10
0.843872
 20
2.17981
 11
0.856354
 21
2.11453
  0
LINE
  8
0
 10
0.856354
 20
2.11453
 11
0.870575
 21
2.05042
  0
LINE
  8
0
 10
0.870575
 20
2.05042
 11
0.886627
 21
1.9875
  0
LINE
  8
0
 10
0.886627
 20
1.9875
 11
0.904541
 21
1.92586
  0
LINE
  8
0
 10
0.904541
 20
1.92586
 11
0.924393
 21
1.86554
  0
LINE
  8
0
 10
0.924393
 20
1.86554
 11
0.946243
 21
1.80663
  0
LINE
  8
0
 10
0.946243
 20
1.80663
 11
0.970154
 21
1.74915
  0
LINE
  8
0
 10
0.970154
 20
1.74915
 11
0.996185
 21
1.69319
  0
LINE
  8
0
 10
0.996185
 20
1.69319
 11
1.0244
 21
1.63881
  0
LINE
  8
0
 10
1.0244
 20
1.63881
 11
1.05484
 21
1.58606
  0
LINE
  8
0
 10
1.05484
 20
1.58606
 11
1.08759
 21
1.535
  0
LINE
  8
0
 10
1.08759
 20
1.535
 11
1.12268
 21
1.4857
  0
LINE
  8
0
 10
1.12268
 20
1.4857
 11
4.47058
 21
3.3815
  0
LINE
  8
0
 10
26.5713
 20
7.41676
 11
26.6752
 21
7.43796
  0
LINE
  8
0
 10
26.6752
 20
7.43796
 11
26.7669
 21
7.47327
  0
LINE
  8
0
 10
26.7669
 20
7.47327
 11
26.8462
 21
7.52272
  0
LINE
  8
0
 10
26.8462
 20
7.52272
 11
26.9141
 21
7.58102
  0
LINE
  8
0
 10
26.9141
 20
7.58102
 11
26.9716
 21
7.64296
  0
LINE
  8
0
 10
26.9716
 20
7.64296
 11
27.0188
 21
7.70853
  0
LINE
  8
0
 10
27.0188
 20
7.70853
 11
27.0556
 21
7.77769
  0
LINE
  8
0
 10
27.0556
 20
7.77769
 11
27.0785
 21
7.77769
  0
LINE
  8
0
 10
27.0785
 20
7.77769
 11
27.0785
 21
7.43959
  0
LINE
  8
0
 10
27.0785
 20
7.43959
 11
27.7363
 21
7.43959
  0
LINE
  8
0
 10
27.7363
 20
7.43959
 11
27.7363
 21
10.2229
  0
LINE
  8
0
 10
27.7363
 20
10.2229
 11
27.0709
 21
10.2229
  0
LINE
  8
0
 10
27.0709
 20
10.2229
 11
27.0709
 21
9.16933
  0
LINE
  8
0
 10
27.0709
 20
9.16933
 11
27.0556
 21
9.16933
  0
LINE
  8
0
 10
27.0556
 20
9.16933
 11
27.0331
 21
9.21574
  0
LINE
  8
0
 10
27.0331
 20
9.21574
 11
27.0061
 21
9.26157
  0
LINE
  8
0
 10
27.0061
 20
9.26157
 11
26.9743
 21
9.30681
  0
LINE
  8
0
 10
26.9743
 20
9.30681
 11
26.9379
 21
9.35146
  0
LINE
  8
0
 10
26.9379
 20
9.35146
 11
26.8965
 21
9.39384
  0
LINE
  8
0
 10
26.8965
 20
9.39384
 11
26.8497
 21
9.43227
  0
LINE
  8
0
 10
26.8497
 20
9.43227
 11
26.7976
 21
9.46671
  0
LINE
  8
0
 10
26.7976
 20
9.46671
 11
26.74
 21
9.49718
  0
LINE
  8
0
 10
26.74
 20
9.49718
 11
26.6767
 21
9.52211
  0
LINE
  8
0
 10
26.6767
 20
9.52211
 11
26.6071
 21
9.53992
  0
LINE
  8
0
 10
26.6071
 20
9.53992
 11
26.5313
 21
9.5506
  0
LINE
  8
0
 10
26.5313
 20
9.5506
 11
26.4494
 21
9.55417
  0
LINE
  8
0
 10
26.4494
 20
9.55417
 11
26.3393
 21
9.54692
  0
LINE
  8
0
 10
26.3393
 20
9.54692
 11
26.233
 21
9.52521
  0
LINE
  8
0
 10
26.233
 20
9.52521
 11
26.1304
 21
9.48901
  0
LINE
  8
0
 10
26.1304
 20
9.48901
 11
26.0315
 21
9.43834
  0
LINE
  8
0
 10
26.0315
 20
9.43834
 11
25.9391
 21
9.37283
  0
LINE
  8
0
 10
25.9391
 20
9.37283
 11
25.8561
 21
9.29216
  0
LINE
  8
0
 10
25.8561
 20
9.29216
 11
25.7823
 21
9.1963
  0
LINE
  8
0
 10
25.7823
 20
9.1963
 11
25.7179
 21
9.08527
  0
LINE
  8
0
 10
25.7179
 20
9.08527
 11
25.6656
 21
8.9586
  0
LINE
  8
0
 10
25.6656
 20
8.9586
 11
25.6283
 21
8.81583
  0
LINE
  8
0
 10
25.6283
 20
8.81583
 11
25.6059
 21
8.65694
  0
LINE
  8
0
 10
25.6059
 20
8.65694
 11
25.5984
 21
8.48193
  0
LINE
  8
0
 10
25.5984
 20
8.48193
 11
25.6055
 21
8.31177
  0
LINE
  8
0
 10
25.6055
 20
8.31177
 11
25.6271
 21
8.1562
  0
LINE
  8
0
 10
25.6271
 20
8.1562
 11
25.6629
 21
8.01523
  0
LINE
  8
0
 10
25.6629
 20
8.01523
 11
25.7131
 21
7.88884
  0
LINE
  8
0
 10
25.7131
 20
7.88884
 11
25.7755
 21
7.7771
  0
LINE
  8
0
 10
25.7755
 20
7.7771
 11
25.8479
 21
7.68008
  0
LINE
  8
0
 10
25.8479
 20
7.68008
 11
25.9304
 21
7.59778
  0
LINE
  8
0
 10
25.9304
 20
7.59778
 11
26.0229
 21
7.53018
  0
LINE
  8
0
 10
26.0229
 20
7.53018
 11
26.1231
 21
7.47746
  0
LINE
  8
0
 10
26.1231
 20
7.47746
 11
26.2285
 21
7.43982
  0
LINE
  8
0
 10
26.2285
 20
7.43982
 11
26.3392
 21
7.41724
  0
LINE
  8
0
 10
26.3392
 20
7.41724
 11
26.4551
 21
7.4097
  0
LINE
  8
0
 10
26.4551
 20
7.4097
 11
26.5713
 21
7.41676
  0
LINE
  8
0
 10
26.5918
 20
7.92747
 11
26.5122
 21
7.95656
  0
LINE
  8
0
 10
26.5122
 20
7.95656
 11
26.444
 21
8.005
  0
LINE
  8
0
 10
26.444
 20
8.005
 11
26.3872
 21
8.07285
  0
LINE
  8
0
 10
26.3872
 20
8.07285
 11
26.3424
 21
8.15656
  0
LINE
  8
0
 10
26.3424
 20
8.15656
 11
26.3105
 21
8.25264
  0
LINE
  8
0
 10
26.3105
 20
8.25264
 11
26.2913
 21
8.3611
  0
LINE
  8
0
 10
26.2913
 20
8.3611
 11
26.2849
 21
8.48193
  0
LINE
  8
0
 10
26.2849
 20
8.48193
 11
26.2913
 21
8.60271
  0
LINE
  8
0
 10
26.2913
 20
8.60271
 11
26.3105
 21
8.71098
  0
LINE
  8
0
 10
26.3105
 20
8.71098
 11
26.3424
 21
8.80678
  0
LINE
  8
0
 10
26.3424
 20
8.80678
 11
26.3872
 21
8.89009
  0
LINE
  8
0
 10
26.3872
 20
8.89009
 11
26.444
 21
8.95752
  0
LINE
  8
0
 10
26.444
 20
8.95752
 11
26.5122
 21
9.00568
  0
LINE
  8
0
 10
26.5122
 20
9.00568
 11
26.5918
 21
9.03458
  0
LINE
  8
0
 10
26.5918
 20
9.03458
 11
26.6827
 21
9.0442
  0
LINE
  8
0
 10
26.6827
 20
9.0442
 11
26.773
 21
9.03474
  0
LINE
  8
0
 10
26.773
 20
9.03474
 11
26.8526
 21
9.00636
  0
LINE
  8
0
 10
26.8526
 20
9.00636
 11
26.9216
 21
8.95908
  0
LINE
  8
0
 10
26.9216
 20
8.95908
 11
26.98
 21
8.89287
  0
LINE
  8
0
 10
26.98
 20
8.89287
 11
27.0264
 21
8.81044
  0
LINE
  8
0
 10
27.0264
 20
8.81044
 11
27.0596
 21
8.71448
  0
LINE
  8
0
 10
27.0596
 20
8.71448
 11
27.0795
 21
8.60498
  0
LINE
  8
0
 10
27.0795
 20
8.60498
 11
27.0862
 21
8.48193
  0
LINE
  8
0
 10
27.0862
 20
8.48193
 11
27.0795
 21
8.36034
  0
LINE
  8
0
 10
27.0795
 20
8.36034
 11
27.0594
 21
8.25146
  0
LINE
  8
0
 10
27.0594
 20
8.25146
 11
27.0259
 21
8.15532
  0
LINE
  8
0
 10
27.0259
 20
8.15532
 11
26.979
 21
8.0719
  0
LINE
  8
0
 10
26.979
 20
8.0719
 11
26.9204
 21
8.00447
  0
LINE
  8
0
 10
26.9204
 20
8.00447
 11
26.8514
 21
7.95631
  0
LINE
  8
0
 10
26.8514
 20
7.95631
 11
26.7722
 21
7.92741
  0
LINE
  8
0
 10
26.7722
 20
7.92741
 11
26.6827
 21
7.91779
  0
LINE
  8
0
 10
26.6827
 20
7.91779
 11
26.5918
 21
7.92747
  0
LINE
  8
0
 10
20.5011
 20
8.63882
 11
20.5008
 21
8.69504
  0
LINE
  8
0
 10
20.5008
 20
8.69504
 11
20.5
 21
8.75908
  0
LINE
  8
0
 10
20.5
 20
8.75908
 11
20.4984
 21
8.83093
  0
LINE
  8
0
 10
20.4984
 20
8.83093
 11
20.4964
 21
8.91061
  0
LINE
  8
0
 10
20.4964
 20
8.91061
 11
20.4886
 21
9.17664
  0
LINE
  8
0
 10
20.4886
 20
9.17664
 11
20.4858
 21
9.27208
  0
LINE
  8
0
 10
20.4858
 20
9.27208
 11
20.4831
 21
9.36852
  0
LINE
  8
0
 10
20.4831
 20
9.36852
 11
20.4806
 21
9.46355
  0
LINE
  8
0
 10
20.4806
 20
9.46355
 11
20.4783
 21
9.55717
  0
LINE
  8
0
 10
20.4783
 20
9.55717
 11
20.4763
 21
9.64941
  0
LINE
  8
0
 10
20.4763
 20
9.64941
 11
20.5005
 21
9.55153
  0
LINE
  8
0
 10
20.5005
 20
9.55153
 11
20.5253
 21
9.45399
  0
LINE
  8
0
 10
20.5253
 20
9.45399
 11
20.5507
 21
9.3568
  0
LINE
  8
0
 10
20.5507
 20
9.3568
 11
20.5767
 21
9.25996
  0
LINE
  8
0
 10
20.5767
 20
9.25996
 11
20.6027
 21
9.16522
  0
LINE
  8
0
 10
20.6027
 20
9.16522
 11
20.6281
 21
9.07433
  0
LINE
  8
0
 10
20.6281
 20
9.07433
 11
20.6529
 21
8.98727
  0
LINE
  8
0
 10
20.6529
 20
8.98727
 11
20.6771
 21
8.90408
  0
LINE
  8
0
 10
20.6771
 20
8.90408
 11
20.7
 21
8.82655
  0
LINE
  8
0
 10
20.7
 20
8.82655
 11
20.7211
 21
8.75652
  0
LINE
  8
0
 10
20.7211
 20
8.75652
 11
20.7402
 21
8.69392
  0
LINE
  8
0
 10
20.7402
 20
8.69392
 11
20.7574
 21
8.63882
  0
LINE
  8
0
 10
20.7574
 20
8.63882
 11
21.1685
 21
7.43959
  0
LINE
  8
0
 10
21.1685
 20
7.43959
 11
21.7327
 21
7.43959
  0
LINE
  8
0
 10
21.7327
 20
7.43959
 11
22.1381
 21
8.63882
  0
LINE
  8
0
 10
22.1381
 20
8.63882
 11
22.1561
 21
8.69598
  0
LINE
  8
0
 10
22.1561
 20
8.69598
 11
22.1759
 21
8.76096
  0
LINE
  8
0
 10
22.1759
 20
8.76096
 11
22.1973
 21
8.83374
  0
LINE
  8
0
 10
22.1973
 20
8.83374
 11
22.2203
 21
8.91435
  0
LINE
  8
0
 10
22.2203
 20
8.91435
 11
22.2445
 21
9.00081
  0
LINE
  8
0
 10
22.2445
 20
9.00081
 11
22.2693
 21
9.09113
  0
LINE
  8
0
 10
22.2693
 20
9.09113
 11
22.2947
 21
9.18529
  0
LINE
  8
0
 10
22.2947
 20
9.18529
 11
22.3207
 21
9.28329
  0
LINE
  8
0
 10
22.3207
 20
9.28329
 11
22.3467
 21
9.38312
  0
LINE
  8
0
 10
22.3467
 20
9.38312
 11
22.3721
 21
9.48271
  0
LINE
  8
0
 10
22.3721
 20
9.48271
 11
22.3969
 21
9.58206
  0
LINE
  8
0
 10
22.3969
 20
9.58206
 11
22.4211
 21
9.68117
  0
LINE
  8
0
 10
22.4211
 20
9.68117
 11
22.4191
 21
9.58684
  0
LINE
  8
0
 10
22.4191
 20
9.58684
 11
22.4168
 21
9.49065
  0
LINE
  8
0
 10
22.4168
 20
9.49065
 11
22.4143
 21
9.39258
  0
LINE
  8
0
 10
22.4143
 20
9.39258
 11
22.4115
 21
9.29262
  0
LINE
  8
0
 10
22.4115
 20
9.29262
 11
22.401
 21
8.91811
  0
LINE
  8
0
 10
22.401
 20
8.91811
 11
22.3989
 21
8.83585
  0
LINE
  8
0
 10
22.3989
 20
8.83585
 11
22.3974
 21
8.76189
  0
LINE
  8
0
 10
22.3974
 20
8.76189
 11
22.3965
 21
8.69621
  0
LINE
  8
0
 10
22.3965
 20
8.69621
 11
22.3962
 21
8.63882
  0
LINE
  8
0
 10
22.3962
 20
8.63882
 11
22.3962
 21
7.43959
  0
LINE
  8
0
 10
22.3962
 20
7.43959
 11
23.0751
 21
7.43959
  0
LINE
  8
0
 10
23.0751
 20
7.43959
 11
23.0751
 21
10.2229
  0
LINE
  8
0
 10
23.0751
 20
10.2229
 11
22.0214
 21
10.2229
  0
LINE
  8
0
 10
22.0214
 20
10.2229
 11
21.6638
 21
9.13945
  0
LINE
  8
0
 10
21.6638
 20
9.13945
 11
21.649
 21
9.08815
  0
LINE
  8
0
 10
21.649
 20
9.08815
 11
21.633
 21
9.02948
  0
LINE
  8
0
 10
21.633
 20
9.02948
 11
21.616
 21
8.96347
  0
LINE
  8
0
 10
21.616
 20
8.96347
 11
21.5979
 21
8.89009
  0
LINE
  8
0
 10
21.5979
 20
8.89009
 11
21.5792
 21
8.81163
  0
LINE
  8
0
 10
21.5792
 20
8.81163
 11
21.5606
 21
8.73038
  0
LINE
  8
0
 10
21.5606
 20
8.73038
 11
21.5419
 21
8.6463
  0
LINE
  8
0
 10
21.5419
 20
8.6463
 11
21.5233
 21
8.55943
  0
LINE
  8
0
 10
21.5233
 20
8.55943
 11
21.5049
 21
8.47183
  0
LINE
  8
0
 10
21.5049
 20
8.47183
 11
21.4872
 21
8.3855
  0
LINE
  8
0
 10
21.4872
 20
8.3855
 11
21.47
 21
8.30045
  0
LINE
  8
0
 10
21.47
 20
8.30045
 11
21.4535
 21
8.21667
  0
LINE
  8
0
 10
21.4535
 20
8.21667
 11
21.436
 21
8.30051
  0
LINE
  8
0
 10
21.436
 20
8.30051
 11
21.4181
 21
8.38573
  0
LINE
  8
0
 10
21.4181
 20
8.38573
 11
21.3997
 21
8.47235
  0
LINE
  8
0
 10
21.3997
 20
8.47235
 11
21.3808
 21
8.56038
  0
LINE
  8
0
 10
21.3808
 20
8.56038
 11
21.3617
 21
8.6476
  0
LINE
  8
0
 10
21.3617
 20
8.6476
 11
21.3428
 21
8.73178
  0
LINE
  8
0
 10
21.3428
 20
8.73178
 11
21.324
 21
8.81291
  0
LINE
  8
0
 10
21.324
 20
8.81291
 11
21.3053
 21
8.89102
  0
LINE
  8
0
 10
21.3053
 20
8.89102
 11
21.2872
 21
8.96399
  0
LINE
  8
0
 10
21.2872
 20
8.96399
 11
21.2701
 21
9.02972
  0
LINE
  8
0
 10
21.2701
 20
9.02972
 11
21.2542
 21
9.08821
  0
LINE
  8
0
 10
21.2542
 20
9.08821
 11
21.2393
 21
9.13945
  0
LINE
  8
0
 10
21.2393
 20
9.13945
 11
20.876
 21
10.2229
  0
LINE
  8
0
 10
20.876
 20
10.2229
 11
19.8242
 21
10.2229
  0
LINE
  8
0
 10
19.8242
 20
10.2229
 11
19.8242
 21
7.43959
  0
LINE
  8
0
 10
19.8242
 20
7.43959
 11
20.5011
 21
7.43959
  0
LINE
  8
0
 10
20.5011
 20
7.43959
 11
20.5011
 21
8.63882
  0
LINE
  8
0
 10
16.5045
 20
7.4104
 11
16.5535
 21
7.41251
  0
LINE
  8
0
 10
16.5535
 20
7.41251
 11
16.6039
 21
7.416
  0
LINE
  8
0
 10
16.6039
 20
7.416
 11
16.6558
 21
7.42091
  0
LINE
  8
0
 10
16.6558
 20
7.42091
 11
16.7089
 21
7.4278
  0
LINE
  8
0
 10
16.7089
 20
7.4278
 11
16.7629
 21
7.43726
  0
LINE
  8
0
 10
16.7629
 20
7.43726
 11
16.8179
 21
7.44928
  0
LINE
  8
0
 10
16.8179
 20
7.44928
 11
16.8738
 21
7.46388
  0
LINE
  8
0
 10
16.8738
 20
7.46388
 11
16.7878
 21
7.93834
  0
LINE
  8
0
 10
16.7878
 20
7.93834
 11
16.7722
 21
7.93536
  0
LINE
  8
0
 10
16.7722
 20
7.93536
 11
16.7522
 21
7.93204
  0
LINE
  8
0
 10
16.7522
 20
7.93204
 11
16.7277
 21
7.92836
  0
LINE
  8
0
 10
16.7277
 20
7.92836
 11
16.6989
 21
7.92432
  0
LINE
  8
0
 10
16.6989
 20
7.92432
 11
16.6695
 21
7.92064
  0
LINE
  8
0
 10
16.6695
 20
7.92064
 11
16.6436
 21
7.91801
  0
LINE
  8
0
 10
16.6436
 20
7.91801
 11
16.6212
 21
7.91644
  0
LINE
  8
0
 10
16.6212
 20
7.91644
 11
16.6023
 21
7.91592
  0
LINE
  8
0
 10
16.6023
 20
7.91592
 11
16.5278
 21
7.92607
  0
LINE
  8
0
 10
16.5278
 20
7.92607
 11
16.4746
 21
7.95654
  0
LINE
  8
0
 10
16.4746
 20
7.95654
 11
16.4427
 21
8.00732
  0
LINE
  8
0
 10
16.4427
 20
8.00732
 11
16.4321
 21
8.07843
  0
LINE
  8
0
 10
16.4321
 20
8.07843
 11
16.4321
 21
9.0442
  0
LINE
  8
0
 10
16.4321
 20
9.0442
 11
16.8165
 21
9.0442
  0
LINE
  8
0
 10
16.8165
 20
9.0442
 11
16.8165
 21
9.528
  0
LINE
  8
0
 10
16.8165
 20
9.528
 11
16.4321
 21
9.528
  0
LINE
  8
0
 10
16.4321
 20
9.528
 11
16.4321
 21
10.0249
  0
LINE
  8
0
 10
16.4321
 20
10.0249
 11
15.7647
 21
10.0249
  0
LINE
  8
0
 10
15.7647
 20
10.0249
 11
15.7647
 21
9.528
  0
LINE
  8
0
 10
15.7647
 20
9.528
 11
15.4816
 21
9.528
  0
LINE
  8
0
 10
15.4816
 20
9.528
 11
15.4816
 21
9.0442
  0
LINE
  8
0
 10
15.4816
 20
9.0442
 11
15.7647
 21
9.0442
  0
LINE
  8
0
 10
15.7647
 20
9.0442
 11
15.7647
 21
8.02052
  0
LINE
  8
0
 10
15.7647
 20
8.02052
 11
15.7757
 21
7.88002
  0
LINE
  8
0
 10
15.7757
 20
7.88002
 11
15.8087
 21
7.75737
  0
LINE
  8
0
 10
15.8087
 20
7.75737
 11
15.8636
 21
7.65259
  0
LINE
  8
0
 10
15.8636
 20
7.65259
 11
15.9406
 21
7.56566
  0
LINE
  8
0
 10
15.9406
 20
7.56566
 11
16.0388
 21
7.49742
  0
LINE
  8
0
 10
16.0388
 20
7.49742
 11
16.1577
 21
7.44868
  0
LINE
  8
0
 10
16.1577
 20
7.44868
 11
16.297
 21
7.41945
  0
LINE
  8
0
 10
16.297
 20
7.41945
 11
16.4569
 21
7.4097
  0
LINE
  8
0
 10
16.4569
 20
7.4097
 11
16.5045
 21
7.4104
  0
LINE
  8
0
 10
10.4873
 20
8.67992
 11
10.4927
 21
8.75745
  0
LINE
  8
0
 10
10.4927
 20
8.75745
 11
10.509
 21
8.82562
  0
LINE
  8
0
 10
10.509
 20
8.82562
 11
10.5362
 21
8.88448
  0
LINE
  8
0
 10
10.5362
 20
8.88448
 11
10.5743
 21
8.93396
  0
LINE
  8
0
 10
10.5743
 20
8.93396
 11
10.6208
 21
8.97321
  0
LINE
  8
0
 10
10.6208
 20
8.97321
 11
10.6735
 21
9.00124
  0
LINE
  8
0
 10
10.6735
 20
9.00124
 11
10.7323
 21
9.01805
  0
LINE
  8
0
 10
10.7323
 20
9.01805
 11
10.7971
 21
9.02365
  0
LINE
  8
0
 10
10.7971
 20
9.02365
 11
10.86
 21
9.01834
  0
LINE
  8
0
 10
10.86
 20
9.01834
 11
10.9169
 21
9.0024
  0
LINE
  8
0
 10
10.9169
 20
9.0024
 11
10.9676
 21
8.97583
  0
LINE
  8
0
 10
10.9676
 20
8.97583
 11
11.0122
 21
8.93864
  0
LINE
  8
0
 10
11.0122
 20
8.93864
 11
11.0486
 21
8.89247
  0
LINE
  8
0
 10
11.0486
 20
8.89247
 11
11.0746
 21
8.83894
  0
LINE
  8
0
 10
11.0746
 20
8.83894
 11
11.0902
 21
8.77805
  0
LINE
  8
0
 10
11.0902
 20
8.77805
 11
11.0954
 21
8.70981
  0
LINE
  8
0
 10
11.0954
 20
8.70981
 11
11.0954
 21
7.43959
  0
LINE
  8
0
 10
11.0954
 20
7.43959
 11
11.736
 21
7.43959
  0
LINE
  8
0
 10
11.736
 20
7.43959
 11
11.736
 21
8.69301
  0
LINE
  8
0
 10
11.736
 20
8.69301
 11
11.7412
 21
8.76404
  0
LINE
  8
0
 10
11.7412
 20
8.76404
 11
11.7566
 21
8.82773
  0
LINE
  8
0
 10
11.7566
 20
8.82773
 11
11.7823
 21
8.88406
  0
LINE
  8
0
 10
11.7823
 20
8.88406
 11
11.8183
 21
8.93303
  0
LINE
  8
0
 10
11.8183
 20
8.93303
 11
11.8631
 21
8.97267
  0
LINE
  8
0
 10
11.8631
 20
8.97267
 11
11.9153
 21
9.00099
  0
LINE
  8
0
 10
11.9153
 20
9.00099
 11
11.975
 21
9.01799
  0
LINE
  8
0
 10
11.975
 20
9.01799
 11
12.042
 21
9.02365
  0
LINE
  8
0
 10
12.042
 20
9.02365
 11
12.1051
 21
9.01851
  0
LINE
  8
0
 10
12.1051
 20
9.01851
 11
12.1623
 21
9.0031
  0
LINE
  8
0
 10
12.1623
 20
9.0031
 11
12.2136
 21
8.97742
  0
LINE
  8
0
 10
12.2136
 20
8.97742
 11
12.2591
 21
8.94145
  0
LINE
  8
0
 10
12.2591
 20
8.94145
 11
12.2963
 21
8.89557
  0
LINE
  8
0
 10
12.2963
 20
8.89557
 11
12.3229
 21
8.84012
  0
LINE
  8
0
 10
12.3229
 20
8.84012
 11
12.3389
 21
8.77509
  0
LINE
  8
0
 10
12.3389
 20
8.77509
 11
12.3442
 21
8.70047
  0
LINE
  8
0
 10
12.3442
 20
8.70047
 11
12.3442
 21
7.43959
  0
LINE
  8
0
 10
12.3442
 20
7.43959
 11
13.0097
 21
7.43959
  0
LINE
  8
0
 10
13.0097
 20
7.43959
 11
13.0097
 21
8.84805
  0
LINE
  8
0
 10
13.0097
 20
8.84805
 11
12.9977
 21
9.0045
  0
LINE
  8
0
 10
12.9977
 20
9.0045
 11
12.9616
 21
9.1432
  0
LINE
  8
0
 10
12.9616
 20
9.1432
 11
12.9016
 21
9.26416
  0
LINE
  8
0
 10
12.9016
 20
9.26416
 11
12.8175
 21
9.36736
  0
LINE
  8
0
 10
12.8175
 20
9.36736
 11
12.7146
 21
9.44991
  0
LINE
  8
0
 10
12.7146
 20
9.44991
 11
12.5983
 21
9.50887
  0
LINE
  8
0
 10
12.5983
 20
9.50887
 11
12.4684
 21
9.54425
  0
LINE
  8
0
 10
12.4684
 20
9.54425
 11
12.325
 21
9.55603
  0
LINE
  8
0
 10
12.325
 20
9.55603
 11
12.2186
 21
9.54897
  0
LINE
  8
0
 10
12.2186
 20
9.54897
 11
12.1154
 21
9.52779
  0
LINE
  8
0
 10
12.1154
 20
9.52779
 11
12.0154
 21
9.49246
  0
LINE
  8
0
 10
12.0154
 20
9.49246
 11
11.9187
 21
9.44302
  0
LINE
  8
0
 10
11.9187
 20
9.44302
 11
11.8293
 21
9.37746
  0
LINE
  8
0
 10
11.8293
 20
9.37746
 11
11.7516
 21
9.29381
  0
LINE
  8
0
 10
11.7516
 20
9.29381
 11
11.6854
 21
9.19206
  0
LINE
  8
0
 10
11.6854
 20
9.19206
 11
11.6309
 21
9.0722
  0
LINE
  8
0
 10
11.6309
 20
9.0722
 11
11.5882
 21
9.1913
  0
LINE
  8
0
 10
11.5882
 20
9.1913
 11
11.5384
 21
9.29263
  0
LINE
  8
0
 10
11.5384
 20
9.29263
 11
11.4815
 21
9.37624
  0
LINE
  8
0
 10
11.4815
 20
9.37624
 11
11.4176
 21
9.44208
  0
LINE
  8
0
 10
11.4176
 20
9.44208
 11
11.346
 21
9.49194
  0
LINE
  8
0
 10
11.346
 20
9.49194
 11
11.2659
 21
9.52754
  0
LINE
  8
0
 10
11.2659
 20
9.52754
 11
11.1772
 21
9.54892
  0
LINE
  8
0
 10
11.1772
 20
9.54892
 11
11.0801
 21
9.55603
  0
LINE
  8
0
 10
11.0801
 20
9.55603
 11
10.9852
 21
9.54956
  0
LINE
  8
0
 10
10.9852
 20
9.54956
 11
10.8934
 21
9.53012
  0
LINE
  8
0
 10
10.8934
 20
9.53012
 11
10.8049
 21
9.49771
  0
LINE
  8
0
 10
10.8049
 20
9.49771
 11
10.7197
 21
9.45236
  0
LINE
  8
0
 10
10.7197
 20
9.45236
 11
10.641
 21
9.39229
  0
LINE
  8
0
 10
10.641
 20
9.39229
 11
10.5722
 21
9.31575
  0
LINE
  8
0
 10
10.5722
 20
9.31575
 11
10.5133
 21
9.22276
  0
LINE
  8
0
 10
10.5133
 20
9.22276
 11
10.4644
 21
9.11331
  0
LINE
  8
0
 10
10.4644
 20
9.11331
 11
10.4338
 21
9.528
  0
LINE
  8
0
 10
10.4338
 20
9.528
 11
9.81992
 21
9.528
  0
LINE
  8
0
 10
9.81992
 20
9.528
 11
9.81992
 21
7.43959
  0
LINE
  8
0
 10
9.81992
 20
7.43959
 11
10.4873
 21
7.43959
  0
LINE
  8
0
 10
10.4873
 20
7.43959
 11
10.4873
 21
8.67992
  0
LINE
  8
0
 10
37.0768
 20
8.67992
 11
37.0823
 21
8.75745
  0
LINE
  8
0
 10
37.0823
 20
8.75745
 11
37.0986
 21
8.82562
  0
LINE
  8
0
 10
37.0986
 20
8.82562
 11
37.1258
 21
8.88448
  0
LINE
  8
0
 10
37.1258
 20
8.88448
 11
37.1638
 21
8.93396
  0
LINE
  8
0
 10
37.1638
 20
8.93396
 11
37.2104
 21
8.97321
  0
LINE
  8
0
 10
37.2104
 20
8.97321
 11
37.263
 21
9.00124
  0
LINE
  8
0
 10
37.263
 20
9.00124
 11
37.3218
 21
9.01805
  0
LINE
  8
0
 10
37.3218
 20
9.01805
 11
37.3866
 21
9.02365
  0
LINE
  8
0
 10
37.3866
 20
9.02365
 11
37.4496
 21
9.01834
  0
LINE
  8
0
 10
37.4496
 20
9.01834
 11
37.5064
 21
9.0024
  0
LINE
  8
0
 10
37.5064
 20
9.0024
 11
37.5571
 21
8.97583
  0
LINE
  8
0
 10
37.5571
 20
8.97583
 11
37.6018
 21
8.93864
  0
LINE
  8
0
 10
37.6018
 20
8.93864
 11
37.6382
 21
8.89247
  0
LINE
  8
0
 10
37.6382
 20
8.89247
 11
37.6642
 21
8.83894
  0
LINE
  8
0
 10
37.6642
 20
8.83894
 11
37.6797
 21
8.77805
  0
LINE
  8
0
 10
37.6797
 20
8.77805
 11
37.685
 21
8.70981
  0
LINE
  8
0
 10
37.685
 20
8.70981
 11
37.685
 21
7.43959
  0
LINE
  8
0
 10
37.685
 20
7.43959
 11
38.3256
 21
7.43959
  0
LINE
  8
0
 10
38.3256
 20
7.43959
 11
38.3256
 21
8.69301
  0
LINE
  8
0
 10
38.3256
 20
8.69301
 11
38.3307
 21
8.76404
  0
LINE
  8
0
 10
38.3307
 20
8.76404
 11
38.3461
 21
8.82773
  0
LINE
  8
0
 10
38.3461
 20
8.82773
 11
38.3718
 21
8.88406
  0
LINE
  8
0
 10
38.3718
 20
8.88406
 11
38.4078
 21
8.93303
  0
LINE
  8
0
 10
38.4078
 20
8.93303
 11
38.4526
 21
8.97267
  0
LINE
  8
0
 10
38.4526
 20
8.97267
 11
38.5049
 21
9.00099
  0
LINE
  8
0
 10
38.5049
 20
9.00099
 11
38.5645
 21
9.01799
  0
LINE
  8
0
 10
38.5645
 20
9.01799
 11
38.6315
 21
9.02365
  0
LINE
  8
0
 10
38.6315
 20
9.02365
 11
38.6946
 21
9.01851
  0
LINE
  8
0
 10
38.6946
 20
9.01851
 11
38.7518
 21
9.0031
  0
LINE
  8
0
 10
38.7518
 20
9.0031
 11
38.8031
 21
8.97742
  0
LINE
  8
0
 10
38.8031
 20
8.97742
 11
38.8486
 21
8.94145
  0
LINE
  8
0
 10
38.8486
 20
8.94145
 11
38.8858
 21
8.89557
  0
LINE
  8
0
 10
38.8858
 20
8.89557
 11
38.9124
 21
8.84012
  0
LINE
  8
0
 10
38.9124
 20
8.84012
 11
38.9284
 21
8.77509
  0
LINE
  8
0
 10
38.9284
 20
8.77509
 11
38.9337
 21
8.70047
  0
LINE
  8
0
 10
38.9337
 20
8.70047
 11
38.9337
 21
7.43959
  0
LINE
  8
0
 10
38.9337
 20
7.43959
 11
39.5992
 21
7.43959
  0
LINE
  8
0
 10
39.5992
 20
7.43959
 11
39.5992
 21
8.84805
  0
LINE
  8
0
 10
39.5992
 20
8.84805
 11
39.5872
 21
9.0045
  0
LINE
  8
0
 10
39.5872
 20
9.0045
 11
39.5511
 21
9.1432
  0
LINE
  8
0
 10
39.5511
 20
9.1432
 11
39.4911
 21
9.26416
  0
LINE
  8
0
 10
39.4911
 20
9.26416
 11
39.407
 21
9.36736
  0
LINE
  8
0
 10
39.407
 20
9.36736
 11
39.3042
 21
9.44991
  0
LINE
  8
0
 10
39.3042
 20
9.44991
 11
39.1878
 21
9.50887
  0
LINE
  8
0
 10
39.1878
 20
9.50887
 11
39.0579
 21
9.54425
  0
LINE
  8
0
 10
39.0579
 20
9.54425
 11
38.9146
 21
9.55603
  0
LINE
  8
0
 10
38.9146
 20
9.55603
 11
38.8081
 21
9.54897
  0
LINE
  8
0
 10
38.8081
 20
9.54897
 11
38.7049
 21
9.52779
  0
LINE
  8
0
 10
38.7049
 20
9.52779
 11
38.605
 21
9.49246
  0
LINE
  8
0
 10
38.605
 20
9.49246
 11
38.5082
 21
9.44302
  0
LINE
  8
0
 10
38.5082
 20
9.44302
 11
38.4189
 21
9.37746
  0
LINE
  8
0
 10
38.4189
 20
9.37746
 11
38.3411
 21
9.29381
  0
LINE
  8
0
 10
38.3411
 20
9.29381
 11
38.275
 21
9.19206
  0
LINE
  8
0
 10
38.275
 20
9.19206
 11
38.2204
 21
9.0722
  0
LINE
  8
0
 10
38.2204
 20
9.0722
 11
38.1777
 21
9.1913
  0
LINE
  8
0
 10
38.1777
 20
9.1913
 11
38.1279
 21
9.29263
  0
LINE
  8
0
 10
38.1279
 20
9.29263
 11
38.0711
 21
9.37624
  0
LINE
  8
0
 10
38.0711
 20
9.37624
 11
38.0072
 21
9.44208
  0
LINE
  8
0
 10
38.0072
 20
9.44208
 11
37.9355
 21
9.49194
  0
LINE
  8
0
 10
37.9355
 20
9.49194
 11
37.8554
 21
9.52754
  0
LINE
  8
0
 10
37.8554
 20
9.52754
 11
37.7668
 21
9.54892
  0
LINE
  8
0
 10
37.7668
 20
9.54892
 11
37.6696
 21
9.55603
  0
LINE
  8
0
 10
37.6696
 20
9.55603
 11
37.5747
 21
9.54956
  0
LINE
  8
0
 10
37.5747
 20
9.54956
 11
37.483
 21
9.53012
  0
LINE
  8
0
 10
37.483
 20
9.53012
 11
37.3945
 21
9.49771
  0
LINE
  8
0
 10
37.3945
 20
9.49771
 11
37.3092
 21
9.45236
  0
LINE
  8
0
 10
37.3092
 20
9.45236
 11
37.2305
 21
9.39229
  0
LINE
  8
0
 10
37.2305
 20
9.39229
 11
37.1617
 21
9.31575
  0
LINE
  8
0
 10
37.1617
 20
9.31575
 11
37.1028
 21
9.22276
  0
LINE
  8
0
 10
37.1028
 20
9.22276
 11
37.0539
 21
9.11331
  0
LINE
  8
0
 10
37.0539
 20
9.11331
 11
37.0233
 21
9.528
  0
LINE
  8
0
 10
37.0233
 20
9.528
 11
36.4094
 21
9.528
  0
LINE
  8
0
 10
36.4094
 20
9.528
 11
36.4094
 21
7.43959
  0
LINE
  8
0
 10
36.4094
 20
7.43959
 11
37.0768
 21
7.43959
  0
LINE
  8
0
 10
37.0768
 20
7.43959
 11
37.0768
 21
8.67992
  0
LINE
  8
0
 10
29.3016
 20
7.4104
 11
29.4704
 21
7.44052
  0
LINE
  8
0
 10
29.4704
 20
7.44052
 11
29.6223
 21
7.49072
  0
LINE
  8
0
 10
29.6223
 20
7.49072
 11
29.7575
 21
7.561
  0
LINE
  8
0
 10
29.7575
 20
7.561
 11
29.8734
 21
7.64821
  0
LINE
  8
0
 10
29.8734
 20
7.64821
 11
29.9676
 21
7.74921
  0
LINE
  8
0
 10
29.9676
 20
7.74921
 11
30.0402
 21
7.86397
  0
LINE
  8
0
 10
30.0402
 20
7.86397
 11
30.0912
 21
7.99252
  0
LINE
  8
0
 10
30.0912
 20
7.99252
 11
29.4964
 21
8.08777
  0
LINE
  8
0
 10
29.4964
 20
8.08777
 11
29.4728
 21
8.03856
  0
LINE
  8
0
 10
29.4728
 20
8.03856
 11
29.4419
 21
7.99554
  0
LINE
  8
0
 10
29.4419
 20
7.99554
 11
29.4039
 21
7.95871
  0
LINE
  8
0
 10
29.4039
 20
7.95871
 11
29.3587
 21
7.92807
  0
LINE
  8
0
 10
29.3587
 20
7.92807
 11
29.3077
 21
7.90396
  0
LINE
  8
0
 10
29.3077
 20
7.90396
 11
29.2521
 21
7.88675
  0
LINE
  8
0
 10
29.2521
 20
7.88675
 11
29.192
 21
7.87642
  0
LINE
  8
0
 10
29.192
 20
7.87642
 11
29.1273
 21
7.87297
  0
LINE
  8
0
 10
29.1273
 20
7.87297
 11
29.0372
 21
7.88004
  0
LINE
  8
0
 10
29.0372
 20
7.88004
 11
28.956
 21
7.90121
  0
LINE
  8
0
 10
28.956
 20
7.90121
 11
28.8837
 21
7.93652
  0
LINE
  8
0
 10
28.8837
 20
7.93652
 11
28.8204
 21
7.98596
  0
LINE
  8
0
 10
28.8204
 20
7.98596
 11
28.7684
 21
8.04953
  0
LINE
  8
0
 10
28.7684
 20
8.04953
 11
28.7298
 21
8.12723
  0
LINE
  8
0
 10
28.7298
 20
8.12723
 11
28.7048
 21
8.21906
  0
LINE
  8
0
 10
28.7048
 20
8.21906
 11
28.6933
 21
8.32501
  0
LINE
  8
0
 10
28.6933
 20
8.32501
 11
30.1218
 21
8.32501
  0
LINE
  8
0
 10
30.1218
 20
8.32501
 11
30.1218
 21
8.4894
  0
LINE
  8
0
 10
30.1218
 20
8.4894
 11
30.1135
 21
8.65465
  0
LINE
  8
0
 10
30.1135
 20
8.65465
 11
30.0885
 21
8.80672
  0
LINE
  8
0
 10
30.0885
 20
8.80672
 11
30.047
 21
8.94559
  0
LINE
  8
0
 10
30.047
 20
8.94559
 11
29.9889
 21
9.07127
  0
LINE
  8
0
 10
29.9889
 20
9.07127
 11
29.9162
 21
9.18312
  0
LINE
  8
0
 10
29.9162
 20
9.18312
 11
29.8311
 21
9.2805
  0
LINE
  8
0
 10
29.8311
 20
9.2805
 11
29.7336
 21
9.36339
  0
LINE
  8
0
 10
29.7336
 20
9.36339
 11
29.6236
 21
9.43181
  0
LINE
  8
0
 10
29.6236
 20
9.43181
 11
29.5032
 21
9.48534
  0
LINE
  8
0
 10
29.5032
 20
9.48534
 11
29.3743
 21
9.52357
  0
LINE
  8
0
 10
29.3743
 20
9.52357
 11
29.2369
 21
9.54651
  0
LINE
  8
0
 10
29.2369
 20
9.54651
 11
29.091
 21
9.55417
  0
LINE
  8
0
 10
29.091
 20
9.55417
 11
28.9357
 21
9.5457
  0
LINE
  8
0
 10
28.9357
 20
9.5457
 11
28.7908
 21
9.52031
  0
LINE
  8
0
 10
28.7908
 20
9.52031
 11
28.6564
 21
9.47798
  0
LINE
  8
0
 10
28.6564
 20
9.47798
 11
28.5326
 21
9.41873
  0
LINE
  8
0
 10
28.5326
 20
9.41873
 11
28.4208
 21
9.3443
  0
LINE
  8
0
 10
28.4208
 20
9.3443
 11
28.3225
 21
9.25644
  0
LINE
  8
0
 10
28.3225
 20
9.25644
 11
28.2377
 21
9.15515
  0
LINE
  8
0
 10
28.2377
 20
9.15515
 11
28.1664
 21
9.04045
  0
LINE
  8
0
 10
28.1664
 20
9.04045
 11
28.1099
 21
8.91414
  0
LINE
  8
0
 10
28.1099
 20
8.91414
 11
28.0696
 21
8.778
  0
LINE
  8
0
 10
28.0696
 20
8.778
 11
28.0454
 21
8.63206
  0
LINE
  8
0
 10
28.0454
 20
8.63206
 11
28.0373
 21
8.47632
  0
LINE
  8
0
 10
28.0373
 20
8.47632
 11
28.0553
 21
8.23856
  0
LINE
  8
0
 10
28.0553
 20
8.23856
 11
28.1093
 21
8.02777
  0
LINE
  8
0
 10
28.1093
 20
8.02777
 11
28.1992
 21
7.84395
  0
LINE
  8
0
 10
28.1992
 20
7.84395
 11
28.3251
 21
7.6871
  0
LINE
  8
0
 10
28.3251
 20
7.6871
 11
28.4825
 21
7.56165
  0
LINE
  8
0
 10
28.4825
 20
7.56165
 11
28.6667
 21
7.47205
  0
LINE
  8
0
 10
28.6667
 20
7.47205
 11
28.8779
 21
7.41829
  0
LINE
  8
0
 10
28.8779
 20
7.41829
 11
29.1159
 21
7.40036
  0
LINE
  8
0
 10
29.1159
 20
7.40036
 11
29.3016
 21
7.4104
  0
LINE
  8
0
 10
28.6971
 20
8.70421
 11
28.7119
 21
8.78658
  0
LINE
  8
0
 10
28.7119
 20
8.78658
 11
28.737
 21
8.85995
  0
LINE
  8
0
 10
28.737
 20
8.85995
 11
28.7726
 21
8.92435
  0
LINE
  8
0
 10
28.7726
 20
8.92435
 11
28.8185
 21
8.97975
  0
LINE
  8
0
 10
28.8185
 20
8.97975
 11
28.8743
 21
9.02429
  0
LINE
  8
0
 10
28.8743
 20
9.02429
 11
28.9392
 21
9.05609
  0
LINE
  8
0
 10
28.9392
 20
9.05609
 11
29.0134
 21
9.07518
  0
LINE
  8
0
 10
29.0134
 20
9.07518
 11
29.0968
 21
9.08156
  0
LINE
  8
0
 10
29.0968
 20
9.08156
 11
29.1791
 21
9.0753
  0
LINE
  8
0
 10
29.1791
 20
9.0753
 11
29.2521
 21
9.05656
  0
LINE
  8
0
 10
29.2521
 20
9.05656
 11
29.3158
 21
9.02534
  0
LINE
  8
0
 10
29.3158
 20
9.02534
 11
29.3702
 21
8.98161
  0
LINE
  8
0
 10
29.3702
 20
8.98161
 11
29.4149
 21
8.9268
  0
LINE
  8
0
 10
29.4149
 20
8.9268
 11
29.4496
 21
8.8623
  0
LINE
  8
0
 10
29.4496
 20
8.8623
 11
29.4742
 21
8.7881
  0
LINE
  8
0
 10
29.4742
 20
8.7881
 11
29.4888
 21
8.70421
  0
LINE
  8
0
 10
29.4888
 20
8.70421
 11
28.6971
 21
8.70421
  0
LINE
  8
0
 10
32.9545
 20
7.41302
 11
33.1327
 21
7.45103
  0
LINE
  8
0
 10
33.1327
 20
7.45103
 11
33.2921
 21
7.51437
  0
LINE
  8
0
 10
33.2921
 20
7.51437
 11
33.4325
 21
7.60303
  0
LINE
  8
0
 10
33.4325
 20
7.60303
 11
33.5502
 21
7.71365
  0
LINE
  8
0
 10
33.5502
 20
7.71365
 11
33.6414
 21
7.84283
  0
LINE
  8
0
 10
33.6414
 20
7.84283
 11
33.7061
 21
7.99059
  0
LINE
  8
0
 10
33.7061
 20
7.99059
 11
33.7442
 21
8.15691
  0
LINE
  8
0
 10
33.7442
 20
8.15691
 11
33.1284
 21
8.25403
  0
LINE
  8
0
 10
33.1284
 20
8.25403
 11
33.1092
 21
8.17464
  0
LINE
  8
0
 10
33.1092
 20
8.17464
 11
33.0823
 21
8.1046
  0
LINE
  8
0
 10
33.0823
 20
8.1046
 11
33.0476
 21
8.04388
  0
LINE
  8
0
 10
33.0476
 20
8.04388
 11
33.0051
 21
7.99252
  0
LINE
  8
0
 10
33.0051
 20
7.99252
 11
32.9553
 21
7.95166
  0
LINE
  8
0
 10
32.9553
 20
7.95166
 11
32.8987
 21
7.92247
  0
LINE
  8
0
 10
32.8987
 20
7.92247
 11
32.8353
 21
7.90495
  0
LINE
  8
0
 10
32.8353
 20
7.90495
 11
32.7651
 21
7.89911
  0
LINE
  8
0
 10
32.7651
 20
7.89911
 11
32.6748
 21
7.90886
  0
LINE
  8
0
 10
32.6748
 20
7.90886
 11
32.5954
 21
7.93811
  0
LINE
  8
0
 10
32.5954
 20
7.93811
 11
32.5266
 21
7.98683
  0
LINE
  8
0
 10
32.5266
 20
7.98683
 11
32.4687
 21
8.05507
  0
LINE
  8
0
 10
32.4687
 20
8.05507
 11
32.4227
 21
8.14012
  0
LINE
  8
0
 10
32.4227
 20
8.14012
 11
32.3898
 21
8.2393
  0
LINE
  8
0
 10
32.3898
 20
8.2393
 11
32.3701
 21
8.35262
  0
LINE
  8
0
 10
32.3701
 20
8.35262
 11
32.3635
 21
8.48006
  0
LINE
  8
0
 10
32.3635
 20
8.48006
 11
32.3701
 21
8.60806
  0
LINE
  8
0
 10
32.3701
 20
8.60806
 11
32.3898
 21
8.72125
  0
LINE
  8
0
 10
32.3898
 20
8.72125
 11
32.4227
 21
8.81961
  0
LINE
  8
0
 10
32.4227
 20
8.81961
 11
32.4687
 21
8.90314
  0
LINE
  8
0
 10
32.4687
 20
8.90314
 11
32.5266
 21
8.96976
  0
LINE
  8
0
 10
32.5266
 20
8.96976
 11
32.5954
 21
9.01735
  0
LINE
  8
0
 10
32.5954
 20
9.01735
 11
32.6748
 21
9.0459
  0
LINE
  8
0
 10
32.6748
 20
9.0459
 11
32.7651
 21
9.05542
  0
LINE
  8
0
 10
32.7651
 20
9.05542
 11
32.8352
 21
9.0498
  0
LINE
  8
0
 10
32.8352
 20
9.0498
 11
32.8982
 21
9.03299
  0
LINE
  8
0
 10
32.8982
 20
9.03299
 11
32.9542
 21
9.00496
  0
LINE
  8
0
 10
32.9542
 20
9.00496
 11
33.0032
 21
8.96573
  0
LINE
  8
0
 10
33.0032
 20
8.96573
 11
33.0449
 21
8.91623
  0
LINE
  8
0
 10
33.0449
 20
8.91623
 11
33.0794
 21
8.85739
  0
LINE
  8
0
 10
33.0794
 20
8.85739
 11
33.1066
 21
8.7892
  0
LINE
  8
0
 10
33.1066
 20
8.7892
 11
33.1265
 21
8.71169
  0
LINE
  8
0
 10
33.1265
 20
8.71169
 11
33.7423
 21
8.81255
  0
LINE
  8
0
 10
33.7423
 20
8.81255
 11
33.7041
 21
8.97459
  0
LINE
  8
0
 10
33.7041
 20
8.97459
 11
33.6393
 21
9.11891
  0
LINE
  8
0
 10
33.6393
 20
9.11891
 11
33.5477
 21
9.24547
  0
LINE
  8
0
 10
33.5477
 20
9.24547
 11
33.4296
 21
9.35426
  0
LINE
  8
0
 10
33.4296
 20
9.35426
 11
33.289
 21
9.44173
  0
LINE
  8
0
 10
33.289
 20
9.44173
 11
33.1301
 21
9.5042
  0
LINE
  8
0
 10
33.1301
 20
9.5042
 11
32.9529
 21
9.54167
  0
LINE
  8
0
 10
32.9529
 20
9.54167
 11
32.7574
 21
9.55417
  0
LINE
  8
0
 10
32.7574
 20
9.55417
 11
32.596
 21
9.5457
  0
LINE
  8
0
 10
32.596
 20
9.5457
 11
32.4462
 21
9.52031
  0
LINE
  8
0
 10
32.4462
 20
9.52031
 11
32.3082
 21
9.47798
  0
LINE
  8
0
 10
32.3082
 20
9.47798
 11
32.1818
 21
9.41873
  0
LINE
  8
0
 10
32.1818
 20
9.41873
 11
32.0683
 21
9.3443
  0
LINE
  8
0
 10
32.0683
 20
9.3443
 11
31.9688
 21
9.25644
  0
LINE
  8
0
 10
31.9688
 20
9.25644
 11
31.8833
 21
9.15515
  0
LINE
  8
0
 10
31.8833
 20
9.15515
 11
31.8118
 21
9.04045
  0
LINE
  8
0
 10
31.8118
 20
9.04045
 11
31.7553
 21
8.91414
  0
LINE
  8
0
 10
31.7553
 20
8.91414
 11
31.715
 21
8.778
  0
LINE
  8
0
 10
31.715
 20
8.778
 11
31.6908
 21
8.63206
  0
LINE
  8
0
 10
31.6908
 20
8.63206
 11
31.6827
 21
8.47632
  0
LINE
  8
0
 10
31.6827
 20
8.47632
 11
31.6908
 21
8.32063
  0
LINE
  8
0
 10
31.6908
 20
8.32063
 11
31.715
 21
8.17487
  0
LINE
  8
0
 10
31.715
 20
8.17487
 11
31.7553
 21
8.03903
  0
LINE
  8
0
 10
31.7553
 20
8.03903
 11
31.8118
 21
7.9131
  0
LINE
  8
0
 10
31.8118
 20
7.9131
 11
31.8833
 21
7.79881
  0
LINE
  8
0
 10
31.8833
 20
7.79881
 11
31.9688
 21
7.69783
  0
LINE
  8
0
 10
31.9688
 20
7.69783
 11
32.0683
 21
7.61015
  0
LINE
  8
0
 10
32.0683
 20
7.61015
 11
32.1818
 21
7.53577
  0
LINE
  8
0
 10
32.1818
 20
7.53577
 11
32.3082
 21
7.47653
  0
LINE
  8
0
 10
32.3082
 20
7.47653
 11
32.4462
 21
7.43422
  0
LINE
  8
0
 10
32.4462
 20
7.43422
 11
32.596
 21
7.40883
  0
LINE
  8
0
 10
32.596
 20
7.40883
 11
32.7574
 21
7.40036
  0
LINE
  8
0
 10
32.7574
 20
7.40036
 11
32.9545
 21
7.41302
  0
LINE
  8
0
 10
35.1953
 20
7.40883
 11
35.3449
 21
7.43422
  0
LINE
  8
0
 10
35.3449
 20
7.43422
 11
35.4827
 21
7.47653
  0
LINE
  8
0
 10
35.4827
 20
7.47653
 11
35.6086
 21
7.53577
  0
LINE
  8
0
 10
35.6086
 20
7.53577
 11
35.7216
 21
7.61015
  0
LINE
  8
0
 10
35.7216
 20
7.61015
 11
35.8208
 21
7.69783
  0
LINE
  8
0
 10
35.8208
 20
7.69783
 11
35.9062
 21
7.79881
  0
LINE
  8
0
 10
35.9062
 20
7.79881
 11
35.9776
 21
7.9131
  0
LINE
  8
0
 10
35.9776
 20
7.9131
 11
36.0341
 21
8.03903
  0
LINE
  8
0
 10
36.0341
 20
8.03903
 11
36.0745
 21
8.17487
  0
LINE
  8
0
 10
36.0745
 20
8.17487
 11
36.0987
 21
8.32063
  0
LINE
  8
0
 10
36.0987
 20
8.32063
 11
36.1067
 21
8.47632
  0
LINE
  8
0
 10
36.1067
 20
8.47632
 11
36.0987
 21
8.63206
  0
LINE
  8
0
 10
36.0987
 20
8.63206
 11
36.0745
 21
8.778
  0
LINE
  8
0
 10
36.0745
 20
8.778
 11
36.0341
 21
8.91414
  0
LINE
  8
0
 10
36.0341
 20
8.91414
 11
35.9776
 21
9.04045
  0
LINE
  8
0
 10
35.9776
 20
9.04045
 11
35.9062
 21
9.15515
  0
LINE
  8
0
 10
35.9062
 20
9.15515
 11
35.8208
 21
9.25644
  0
LINE
  8
0
 10
35.8208
 20
9.25644
 11
35.7216
 21
9.3443
  0
LINE
  8
0
 10
35.7216
 20
9.3443
 11
35.6086
 21
9.41873
  0
LINE
  8
0
 10
35.6086
 20
9.41873
 11
35.4827
 21
9.47798
  0
LINE
  8
0
 10
35.4827
 20
9.47798
 11
35.3449
 21
9.52031
  0
LINE
  8
0
 10
35.3449
 20
9.52031
 11
35.1953
 21
9.5457
  0
LINE
  8
0
 10
35.1953
 20
9.5457
 11
35.0339
 21
9.55417
  0
LINE
  8
0
 10
35.0339
 20
9.55417
 11
34.8725
 21
9.5457
  0
LINE
  8
0
 10
34.8725
 20
9.5457
 11
34.7227
 21
9.52031
  0
LINE
  8
0
 10
34.7227
 20
9.52031
 11
34.5847
 21
9.47798
  0
LINE
  8
0
 10
34.5847
 20
9.47798
 11
34.4583
 21
9.41873
  0
LINE
  8
0
 10
34.4583
 20
9.41873
 11
34.3448
 21
9.3443
  0
LINE
  8
0
 10
34.3448
 20
9.3443
 11
34.2453
 21
9.25644
  0
LINE
  8
0
 10
34.2453
 20
9.25644
 11
34.1598
 21
9.15515
  0
LINE
  8
0
 10
34.1598
 20
9.15515
 11
34.0883
 21
9.04045
  0
LINE
  8
0
 10
34.0883
 20
9.04045
 11
34.0318
 21
8.91414
  0
LINE
  8
0
 10
34.0318
 20
8.91414
 11
33.9915
 21
8.778
  0
LINE
  8
0
 10
33.9915
 20
8.778
 11
33.9673
 21
8.63206
  0
LINE
  8
0
 10
33.9673
 20
8.63206
 11
33.9592
 21
8.47632
  0
LINE
  8
0
 10
33.9592
 20
8.47632
 11
33.9673
 21
8.32063
  0
LINE
  8
0
 10
33.9673
 20
8.32063
 11
33.9915
 21
8.17487
  0
LINE
  8
0
 10
33.9915
 20
8.17487
 11
34.0318
 21
8.03903
  0
LINE
  8
0
 10
34.0318
 20
8.03903
 11
34.0883
 21
7.9131
  0
LINE
  8
0
 10
34.0883
 20
7.9131
 11
34.1598
 21
7.79881
  0
LINE
  8
0
 10
34.1598
 20
7.79881
 11
34.2453
 21
7.69783
  0
LINE
  8
0
 10
34.2453
 20
7.69783
 11
34.3448
 21
7.61015
  0
LINE
  8
0
 10
34.3448
 20
7.61015
 11
34.4583
 21
7.53577
  0
LINE
  8
0
 10
34.4583
 20
7.53577
 11
34.5847
 21
7.47653
  0
LINE
  8
0
 10
34.5847
 20
7.47653
 11
34.7227
 21
7.43422
  0
LINE
  8
0
 10
34.7227
 20
7.43422
 11
34.8725
 21
7.40883
  0
LINE
  8
0
 10
34.8725
 20
7.40883
 11
35.0339
 21
7.40036
  0
LINE
  8
0
 10
35.0339
 20
7.40036
 11
35.1953
 21
7.40883
  0
LINE
  8
0
 10
34.9439
 20
7.90909
 11
34.8652
 21
7.93904
  0
LINE
  8
0
 10
34.8652
 20
7.93904
 11
34.7976
 21
7.98895
  0
LINE
  8
0
 10
34.7976
 20
7.98895
 11
34.7413
 21
8.05882
  0
LINE
  8
0
 10
34.7413
 20
8.05882
 11
34.697
 21
8.14503
  0
LINE
  8
0
 10
34.697
 20
8.14503
 11
34.6653
 21
8.24399
  0
LINE
  8
0
 10
34.6653
 20
8.24399
 11
34.6463
 21
8.35567
  0
LINE
  8
0
 10
34.6463
 20
8.35567
 11
34.64
 21
8.48006
  0
LINE
  8
0
 10
34.64
 20
8.48006
 11
34.6463
 21
8.60428
  0
LINE
  8
0
 10
34.6463
 20
8.60428
 11
34.6653
 21
8.71542
  0
LINE
  8
0
 10
34.6653
 20
8.71542
 11
34.697
 21
8.81349
  0
LINE
  8
0
 10
34.697
 20
8.81349
 11
34.7413
 21
8.89848
  0
LINE
  8
0
 10
34.7413
 20
8.89848
 11
34.7976
 21
8.96715
  0
LINE
  8
0
 10
34.7976
 20
8.96715
 11
34.8652
 21
9.01617
  0
LINE
  8
0
 10
34.8652
 20
9.01617
 11
34.9439
 21
9.04561
  0
LINE
  8
0
 10
34.9439
 20
9.04561
 11
35.0339
 21
9.05542
  0
LINE
  8
0
 10
35.0339
 20
9.05542
 11
35.1239
 21
9.04561
  0
LINE
  8
0
 10
35.1239
 20
9.04561
 11
35.2027
 21
9.01617
  0
LINE
  8
0
 10
35.2027
 20
9.01617
 11
35.2702
 21
8.96715
  0
LINE
  8
0
 10
35.2702
 20
8.96715
 11
35.3265
 21
8.89848
  0
LINE
  8
0
 10
35.3265
 20
8.89848
 11
35.3708
 21
8.81349
  0
LINE
  8
0
 10
35.3708
 20
8.81349
 11
35.4025
 21
8.71542
  0
LINE
  8
0
 10
35.4025
 20
8.71542
 11
35.4215
 21
8.60428
  0
LINE
  8
0
 10
35.4215
 20
8.60428
 11
35.4279
 21
8.48006
  0
LINE
  8
0
 10
35.4279
 20
8.48006
 11
35.4215
 21
8.35567
  0
LINE
  8
0
 10
35.4215
 20
8.35567
 11
35.4025
 21
8.24399
  0
LINE
  8
0
 10
35.4025
 20
8.24399
 11
35.3708
 21
8.14503
  0
LINE
  8
0
 10
35.3708
 20
8.14503
 11
35.3265
 21
8.05882
  0
LINE
  8
0
 10
35.3265
 20
8.05882
 11
35.2702
 21
7.98895
  0
LINE
  8
0
 10
35.2702
 20
7.98895
 11
35.2027
 21
7.93904
  0
LINE
  8
0
 10
35.2027
 20
7.93904
 11
35.1239
 21
7.90909
  0
LINE
  8
0
 10
35.1239
 20
7.90909
 11
35.0339
 21
7.89911
  0
LINE
  8
0
 10
35.0339
 20
7.89911
 11
34.9439
 21
7.90909
  0
LINE
  8
0
 10
17.7911
 20
8.57906
 11
17.7987
 21
8.66801
  0
LINE
  8
0
 10
17.7987
 20
8.66801
 11
17.8215
 21
8.74811
  0
LINE
  8
0
 10
17.8215
 20
8.74811
 11
17.8594
 21
8.81932
  0
LINE
  8
0
 10
17.8594
 20
8.81932
 11
17.9125
 21
8.88165
  0
LINE
  8
0
 10
17.9125
 20
8.88165
 11
17.9773
 21
8.93233
  0
LINE
  8
0
 10
17.9773
 20
8.93233
 11
18.05
 21
8.96852
  0
LINE
  8
0
 10
18.05
 20
8.96852
 11
18.1307
 21
8.99025
  0
LINE
  8
0
 10
18.1307
 20
8.99025
 11
18.2195
 21
8.99748
  0
LINE
  8
0
 10
18.2195
 20
8.99748
 11
18.2511
 21
8.99696
  0
LINE
  8
0
 10
18.2511
 20
8.99696
 11
18.2847
 21
8.99539
  0
LINE
  8
0
 10
18.2847
 20
8.99539
 11
18.3204
 21
8.99275
  0
LINE
  8
0
 10
18.3204
 20
8.99275
 11
18.3581
 21
8.98909
  0
LINE
  8
0
 10
18.3581
 20
8.98909
 11
18.395
 21
8.98436
  0
LINE
  8
0
 10
18.395
 20
8.98436
 11
18.4281
 21
8.97858
  0
LINE
  8
0
 10
18.4281
 20
8.97858
 11
18.4576
 21
8.97176
  0
LINE
  8
0
 10
18.4576
 20
8.97176
 11
18.4834
 21
8.96388
  0
LINE
  8
0
 10
18.4834
 20
8.96388
 11
18.4834
 21
9.53174
  0
LINE
  8
0
 10
18.4834
 20
9.53174
 11
18.4371
 21
9.54155
  0
LINE
  8
0
 10
18.4371
 20
9.54155
 11
18.3902
 21
9.54855
  0
LINE
  8
0
 10
18.3902
 20
9.54855
 11
18.3425
 21
9.55276
  0
LINE
  8
0
 10
18.3425
 20
9.55276
 11
18.2941
 21
9.55417
  0
LINE
  8
0
 10
18.2941
 20
9.55417
 11
18.2088
 21
9.54785
  0
LINE
  8
0
 10
18.2088
 20
9.54785
 11
18.1289
 21
9.52895
  0
LINE
  8
0
 10
18.1289
 20
9.52895
 11
18.0544
 21
9.49742
  0
LINE
  8
0
 10
18.0544
 20
9.49742
 11
17.9852
 21
9.45329
  0
LINE
  8
0
 10
17.9852
 20
9.45329
 11
17.9235
 21
9.39632
  0
LINE
  8
0
 10
17.9235
 20
9.39632
 11
17.8712
 21
9.32626
  0
LINE
  8
0
 10
17.8712
 20
9.32626
 11
17.8283
 21
9.24315
  0
LINE
  8
0
 10
17.8283
 20
9.24315
 11
17.795
 21
9.14694
  0
LINE
  8
0
 10
17.795
 20
9.14694
 11
17.772
 21
9.14694
  0
LINE
  8
0
 10
17.772
 20
9.14694
 11
17.772
 21
9.528
  0
LINE
  8
0
 10
17.772
 20
9.528
 11
17.1237
 21
9.528
  0
LINE
  8
0
 10
17.1237
 20
9.528
 11
17.1237
 21
7.43959
  0
LINE
  8
0
 10
17.1237
 20
7.43959
 11
17.7911
 21
7.43959
  0
LINE
  8
0
 10
17.7911
 20
7.43959
 11
17.7911
 21
8.57906
  0
LINE
  8
0
 10
24.2332
 20
7.4229
 11
24.4046
 21
7.48489
  0
LINE
  8
0
 10
24.4046
 20
7.48489
 11
24.543
 21
7.58821
  0
LINE
  8
0
 10
24.543
 20
7.58821
 11
24.6484
 21
7.73285
  0
LINE
  8
0
 10
24.6484
 20
7.73285
 11
24.6656
 21
7.73285
  0
LINE
  8
0
 10
24.6656
 20
7.73285
 11
24.6656
 21
7.43959
  0
LINE
  8
0
 10
24.6656
 20
7.43959
 11
25.2929
 21
7.43959
  0
LINE
  8
0
 10
25.2929
 20
7.43959
 11
25.2929
 21
8.85739
  0
LINE
  8
0
 10
25.2929
 20
8.85739
 11
25.2849
 21
8.96521
  0
LINE
  8
0
 10
25.2849
 20
8.96521
 11
25.2611
 21
9.0645
  0
LINE
  8
0
 10
25.2611
 20
9.0645
 11
25.2214
 21
9.15527
  0
LINE
  8
0
 10
25.2214
 20
9.15527
 11
25.1657
 21
9.2375
  0
LINE
  8
0
 10
25.1657
 20
9.2375
 11
25.0966
 21
9.31078
  0
LINE
  8
0
 10
25.0966
 20
9.31078
 11
25.0165
 21
9.37457
  0
LINE
  8
0
 10
25.0165
 20
9.37457
 11
24.9255
 21
9.42892
  0
LINE
  8
0
 10
24.9255
 20
9.42892
 11
24.8234
 21
9.47382
  0
LINE
  8
0
 10
24.8234
 20
9.47382
 11
24.7127
 21
9.50896
  0
LINE
  8
0
 10
24.7127
 20
9.50896
 11
24.5956
 21
9.53407
  0
LINE
  8
0
 10
24.5956
 20
9.53407
 11
24.4722
 21
9.54913
  0
LINE
  8
0
 10
24.4722
 20
9.54913
 11
24.3425
 21
9.55417
  0
LINE
  8
0
 10
24.3425
 20
9.55417
 11
24.1514
 21
9.54372
  0
LINE
  8
0
 10
24.1514
 20
9.54372
 11
23.9798
 21
9.51236
  0
LINE
  8
0
 10
23.9798
 20
9.51236
 11
23.8277
 21
9.46011
  0
LINE
  8
0
 10
23.8277
 20
9.46011
 11
23.6951
 21
9.38696
  0
LINE
  8
0
 10
23.6951
 20
9.38696
 11
23.5837
 21
9.29713
  0
LINE
  8
0
 10
23.5837
 20
9.29713
 11
23.4951
 21
9.19481
  0
LINE
  8
0
 10
23.4951
 20
9.19481
 11
23.4293
 21
9.07999
  0
LINE
  8
0
 10
23.4293
 20
9.07999
 11
23.3863
 21
8.95267
  0
LINE
  8
0
 10
23.3863
 20
8.95267
 11
23.9906
 21
8.87607
  0
LINE
  8
0
 10
23.9906
 20
8.87607
 11
24.0079
 21
8.923
  0
LINE
  8
0
 10
24.0079
 20
8.923
 11
24.0331
 21
8.96478
  0
LINE
  8
0
 10
24.0331
 20
8.96478
 11
24.0662
 21
9.00143
  0
LINE
  8
0
 10
24.0662
 20
9.00143
 11
24.1072
 21
9.03296
  0
LINE
  8
0
 10
24.1072
 20
9.03296
 11
24.1553
 21
9.0583
  0
LINE
  8
0
 10
24.1553
 20
9.0583
 11
24.2095
 21
9.0764
  0
LINE
  8
0
 10
24.2095
 20
9.0764
 11
24.27
 21
9.08727
  0
LINE
  8
0
 10
24.27
 20
9.08727
 11
24.3367
 21
9.0909
  0
LINE
  8
0
 10
24.3367
 20
9.0909
 11
24.401
 21
9.08722
  0
LINE
  8
0
 10
24.401
 20
9.08722
 11
24.4579
 21
9.07617
  0
LINE
  8
0
 10
24.4579
 20
9.07617
 11
24.5076
 21
9.05779
  0
LINE
  8
0
 10
24.5076
 20
9.05779
 11
24.5499
 21
9.03206
  0
LINE
  8
0
 10
24.5499
 20
9.03206
 11
24.5838
 21
8.99954
  0
LINE
  8
0
 10
24.5838
 20
8.99954
 11
24.608
 21
8.96083
  0
LINE
  8
0
 10
24.608
 20
8.96083
 11
24.6225
 21
8.91594
  0
LINE
  8
0
 10
24.6225
 20
8.91594
 11
24.6274
 21
8.86485
  0
LINE
  8
0
 10
24.6274
 20
8.86485
 11
24.6274
 21
8.85739
  0
LINE
  8
0
 10
24.6274
 20
8.85739
 11
24.62
 21
8.81285
  0
LINE
  8
0
 10
24.62
 20
8.81285
 11
24.598
 21
8.77638
  0
LINE
  8
0
 10
24.598
 20
8.77638
 11
24.5612
 21
8.74794
  0
LINE
  8
0
 10
24.5612
 20
8.74794
 11
24.5098
 21
8.72757
  0
LINE
  8
0
 10
24.5098
 20
8.72757
 11
24.4413
 21
8.71187
  0
LINE
  8
0
 10
24.4413
 20
8.71187
 11
24.3537
 21
8.69745
  0
LINE
  8
0
 10
24.3537
 20
8.69745
 11
24.2468
 21
8.68431
  0
LINE
  8
0
 10
24.2468
 20
8.68431
 11
24.1206
 21
8.67245
  0
LINE
  8
0
 10
24.1206
 20
8.67245
 11
24.0148
 21
8.6602
  0
LINE
  8
0
 10
24.0148
 20
8.6602
 11
23.9134
 21
8.64211
  0
LINE
  8
0
 10
23.9134
 20
8.64211
 11
23.8164
 21
8.61816
  0
LINE
  8
0
 10
23.8164
 20
8.61816
 11
23.7238
 21
8.58839
  0
LINE
  8
0
 10
23.7238
 20
8.58839
 11
23.6379
 21
8.55127
  0
LINE
  8
0
 10
23.6379
 20
8.55127
 11
23.561
 21
8.50528
  0
LINE
  8
0
 10
23.561
 20
8.50528
 11
23.4931
 21
8.45041
  0
LINE
  8
0
 10
23.4931
 20
8.45041
 11
23.4341
 21
8.38666
  0
LINE
  8
0
 10
23.4341
 20
8.38666
 11
23.3864
 21
8.31252
  0
LINE
  8
0
 10
23.3864
 20
8.31252
 11
23.3523
 21
8.22649
  0
LINE
  8
0
 10
23.3523
 20
8.22649
 11
23.3319
 21
8.12852
  0
LINE
  8
0
 10
23.3319
 20
8.12852
 11
23.3251
 21
8.01866
  0
LINE
  8
0
 10
23.3251
 20
8.01866
 11
23.3375
 21
7.87343
  0
LINE
  8
0
 10
23.3375
 20
7.87343
 11
23.3746
 21
7.7478
  0
LINE
  8
0
 10
23.3746
 20
7.7478
 11
23.4364
 21
7.6418
  0
LINE
  8
0
 10
23.4364
 20
7.6418
 11
23.523
 21
7.5554
  0
LINE
  8
0
 10
23.523
 20
7.5554
 11
23.6289
 21
7.4884
  0
LINE
  8
0
 10
23.6289
 20
7.4884
 11
23.7484
 21
7.44054
  0
LINE
  8
0
 10
23.7484
 20
7.44054
 11
23.8818
 21
7.4118
  0
LINE
  8
0
 10
23.8818
 20
7.4118
 11
24.0288
 21
7.40224
  0
LINE
  8
0
 10
24.0288
 20
7.40224
 11
24.2332
 21
7.4229
  0
LINE
  8
0
 10
24.174
 20
7.83716
 11
24.1218
 21
7.8475
  0
LINE
  8
0
 10
24.1218
 20
7.8475
 11
24.075
 21
7.86473
  0
LINE
  8
0
 10
24.075
 20
7.86473
 11
24.0336
 21
7.88884
  0
LINE
  8
0
 10
24.0336
 20
7.88884
 11
23.9997
 21
7.91949
  0
LINE
  8
0
 10
23.9997
 20
7.91949
 11
23.9755
 21
7.95633
  0
LINE
  8
0
 10
23.9755
 20
7.95633
 11
23.961
 21
7.99934
  0
LINE
  8
0
 10
23.961
 20
7.99934
 11
23.9562
 21
8.04854
  0
LINE
  8
0
 10
23.9562
 20
8.04854
 11
23.9754
 21
8.14043
  0
LINE
  8
0
 10
23.9754
 20
8.14043
 11
24.0331
 21
8.21246
  0
LINE
  8
0
 10
24.0331
 20
8.21246
 11
24.1293
 21
8.26465
  0
LINE
  8
0
 10
24.1293
 20
8.26465
 11
24.264
 21
8.297
  0
LINE
  8
0
 10
24.264
 20
8.297
 11
24.3119
 21
8.30481
  0
LINE
  8
0
 10
24.3119
 20
8.30481
 11
24.3616
 21
8.31332
  0
LINE
  8
0
 10
24.3616
 20
8.31332
 11
24.4132
 21
8.32256
  0
LINE
  8
0
 10
24.4132
 20
8.32256
 11
24.4667
 21
8.33247
  0
LINE
  8
0
 10
24.4667
 20
8.33247
 11
24.518
 21
8.34334
  0
LINE
  8
0
 10
24.518
 20
8.34334
 11
24.5628
 21
8.35536
  0
LINE
  8
0
 10
24.5628
 20
8.35536
 11
24.6012
 21
8.36856
  0
LINE
  8
0
 10
24.6012
 20
8.36856
 11
24.6331
 21
8.38293
  0
LINE
  8
0
 10
24.6331
 20
8.38293
 11
24.6331
 21
8.18304
  0
LINE
  8
0
 10
24.6331
 20
8.18304
 11
24.6258
 21
8.10913
  0
LINE
  8
0
 10
24.6258
 20
8.10913
 11
24.604
 21
8.04247
  0
LINE
  8
0
 10
24.604
 20
8.04247
 11
24.5675
 21
7.98303
  0
LINE
  8
0
 10
24.5675
 20
7.98303
 11
24.5165
 21
7.93085
  0
LINE
  8
0
 10
24.5165
 20
7.93085
 11
24.4549
 21
7.88835
  0
LINE
  8
0
 10
24.4549
 20
7.88835
 11
24.3869
 21
7.858
  0
LINE
  8
0
 10
24.3869
 20
7.858
 11
24.3125
 21
7.8398
  0
LINE
  8
0
 10
24.3125
 20
7.8398
 11
24.2315
 21
7.83372
  0
LINE
  8
0
 10
24.2315
 20
7.83372
 11
24.174
 21
7.83716
  0
LINE
  8
0
 10
14.5483
 20
7.4104
 11
14.7171
 21
7.44052
  0
LINE
  8
0
 10
14.7171
 20
7.44052
 11
14.8691
 21
7.49072
  0
LINE
  8
0
 10
14.8691
 20
7.49072
 11
15.0042
 21
7.561
  0
LINE
  8
0
 10
15.0042
 20
7.561
 11
15.1201
 21
7.64821
  0
LINE
  8
0
 10
15.1201
 20
7.64821
 11
15.2143
 21
7.74921
  0
LINE
  8
0
 10
15.2143
 20
7.74921
 11
15.2869
 21
7.86397
  0
LINE
  8
0
 10
15.2869
 20
7.86397
 11
15.3379
 21
7.99252
  0
LINE
  8
0
 10
15.3379
 20
7.99252
 11
14.7431
 21
8.08777
  0
LINE
  8
0
 10
14.7431
 20
8.08777
 11
14.7195
 21
8.03856
  0
LINE
  8
0
 10
14.7195
 20
8.03856
 11
14.6887
 21
7.99554
  0
LINE
  8
0
 10
14.6887
 20
7.99554
 11
14.6507
 21
7.95871
  0
LINE
  8
0
 10
14.6507
 20
7.95871
 11
14.6055
 21
7.92807
  0
LINE
  8
0
 10
14.6055
 20
7.92807
 11
14.5544
 21
7.90396
  0
LINE
  8
0
 10
14.5544
 20
7.90396
 11
14.4989
 21
7.88675
  0
LINE
  8
0
 10
14.4989
 20
7.88675
 11
14.4387
 21
7.87642
  0
LINE
  8
0
 10
14.4387
 20
7.87642
 11
14.3741
 21
7.87297
  0
LINE
  8
0
 10
14.3741
 20
7.87297
 11
14.2839
 21
7.88004
  0
LINE
  8
0
 10
14.2839
 20
7.88004
 11
14.2027
 21
7.90121
  0
LINE
  8
0
 10
14.2027
 20
7.90121
 11
14.1304
 21
7.93652
  0
LINE
  8
0
 10
14.1304
 20
7.93652
 11
14.0672
 21
7.98596
  0
LINE
  8
0
 10
14.0672
 20
7.98596
 11
14.0151
 21
8.04953
  0
LINE
  8
0
 10
14.0151
 20
8.04953
 11
13.9766
 21
8.12723
  0
LINE
  8
0
 10
13.9766
 20
8.12723
 11
13.9515
 21
8.21906
  0
LINE
  8
0
 10
13.9515
 20
8.21906
 11
13.94
 21
8.32501
  0
LINE
  8
0
 10
13.94
 20
8.32501
 11
15.3685
 21
8.32501
  0
LINE
  8
0
 10
15.3685
 20
8.32501
 11
15.3685
 21
8.4894
  0
LINE
  8
0
 10
15.3685
 20
8.4894
 11
15.3602
 21
8.65465
  0
LINE
  8
0
 10
15.3602
 20
8.65465
 11
15.3353
 21
8.80672
  0
LINE
  8
0
 10
15.3353
 20
8.80672
 11
15.2937
 21
8.94559
  0
LINE
  8
0
 10
15.2937
 20
8.94559
 11
15.2356
 21
9.07127
  0
LINE
  8
0
 10
15.2356
 20
9.07127
 11
15.1629
 21
9.18312
  0
LINE
  8
0
 10
15.1629
 20
9.18312
 11
15.0778
 21
9.2805
  0
LINE
  8
0
 10
15.0778
 20
9.2805
 11
14.9803
 21
9.36339
  0
LINE
  8
0
 10
14.9803
 20
9.36339
 11
14.8703
 21
9.43181
  0
LINE
  8
0
 10
14.8703
 20
9.43181
 11
14.7499
 21
9.48534
  0
LINE
  8
0
 10
14.7499
 20
9.48534
 11
14.621
 21
9.52357
  0
LINE
  8
0
 10
14.621
 20
9.52357
 11
14.4836
 21
9.54651
  0
LINE
  8
0
 10
14.4836
 20
9.54651
 11
14.3378
 21
9.55417
  0
LINE
  8
0
 10
14.3378
 20
9.55417
 11
14.1824
 21
9.5457
  0
LINE
  8
0
 10
14.1824
 20
9.5457
 11
14.0375
 21
9.52031
  0
LINE
  8
0
 10
14.0375
 20
9.52031
 11
13.9032
 21
9.47798
  0
LINE
  8
0
 10
13.9032
 20
9.47798
 11
13.7793
 21
9.41873
  0
LINE
  8
0
 10
13.7793
 20
9.41873
 11
13.6675
 21
9.3443
  0
LINE
  8
0
 10
13.6675
 20
9.3443
 11
13.5692
 21
9.25644
  0
LINE
  8
0
 10
13.5692
 20
9.25644
 11
13.4844
 21
9.15515
  0
LINE
  8
0
 10
13.4844
 20
9.15515
 11
13.4131
 21
9.04045
  0
LINE
  8
0
 10
13.4131
 20
9.04045
 11
13.3567
 21
8.91414
  0
LINE
  8
0
 10
13.3567
 20
8.91414
 11
13.3163
 21
8.778
  0
LINE
  8
0
 10
13.3163
 20
8.778
 11
13.2921
 21
8.63206
  0
LINE
  8
0
 10
13.2921
 20
8.63206
 11
13.2841
 21
8.47632
  0
LINE
  8
0
 10
13.2841
 20
8.47632
 11
13.302
 21
8.23856
  0
LINE
  8
0
 10
13.302
 20
8.23856
 11
13.356
 21
8.02777
  0
LINE
  8
0
 10
13.356
 20
8.02777
 11
13.4459
 21
7.84395
  0
LINE
  8
0
 10
13.4459
 20
7.84395
 11
13.5719
 21
7.6871
  0
LINE
  8
0
 10
13.5719
 20
7.6871
 11
13.7292
 21
7.56165
  0
LINE
  8
0
 10
13.7292
 20
7.56165
 11
13.9135
 21
7.47205
  0
LINE
  8
0
 10
13.9135
 20
7.47205
 11
14.1246
 21
7.41829
  0
LINE
  8
0
 10
14.1246
 20
7.41829
 11
14.3626
 21
7.40036
  0
LINE
  8
0
 10
14.3626
 20
7.40036
 11
14.5483
 21
7.4104
  0
LINE
  8
0
 10
13.9438
 20
8.70421
 11
13.9586
 21
8.78658
  0
LINE
  8
0
 10
13.9586
 20
8.78658
 11
13.9837
 21
8.85995
  0
LINE
  8
0
 10
13.9837
 20
8.85995
 11
14.0193
 21
8.92435
  0
LINE
  8
0
 10
14.0193
 20
8.92435
 11
14.0652
 21
8.97975
  0
LINE
  8
0
 10
14.0652
 20
8.97975
 11
14.121
 21
9.02429
  0
LINE
  8
0
 10
14.121
 20
9.02429
 11
14.1859
 21
9.05609
  0
LINE
  8
0
 10
14.1859
 20
9.05609
 11
14.2601
 21
9.07518
  0
LINE
  8
0
 10
14.2601
 20
9.07518
 11
14.3435
 21
9.08156
  0
LINE
  8
0
 10
14.3435
 20
9.08156
 11
14.4258
 21
9.0753
  0
LINE
  8
0
 10
14.4258
 20
9.0753
 11
14.4989
 21
9.05656
  0
LINE
  8
0
 10
14.4989
 20
9.05656
 11
14.5626
 21
9.02534
  0
LINE
  8
0
 10
14.5626
 20
9.02534
 11
14.6169
 21
8.98161
  0
LINE
  8
0
 10
14.6169
 20
8.98161
 11
14.6617
 21
8.9268
  0
LINE
  8
0
 10
14.6617
 20
8.9268
 11
14.6963
 21
8.8623
  0
LINE
  8
0
 10
14.6963
 20
8.8623
 11
14.7209
 21
8.7881
  0
LINE
  8
0
 10
14.7209
 20
8.7881
 11
14.7355
 21
8.70421
  0
LINE
  8
0
 10
14.7355
 20
8.70421
 11
13.9438
 21
8.70421
  0
LINE
  8
0
 10
19.4065
 20
9.528
 11
18.7391
 21
9.528
  0
LINE
  8
0
 10
18.7391
 20
9.528
 11
18.7391
 21
7.43959
  0
LINE
  8
0
 10
18.7391
 20
7.43959
 11
19.4065
 21
7.43959
  0
LINE
  8
0
 10
19.4065
 20
7.43959
 11
19.4065
 21
9.528
  0
LINE
  8
0
 10
8.19412
 20
1.33881
 11
8.24406
 21
1.39435
  0
LINE
  8
0
 10
8.24406
 20
1.39435
 11
8.29105
 21
1.45079
  0
LINE
  8
0
 10
8.29105
 20
1.45079
 11
8.3351
 21
1.5083
  0
LINE
  8
0
 10
8.3351
 20
1.5083
 11
8.37625
 21
1.56702
  0
LINE
  8
0
 10
8.37625
 20
1.56702
 11
8.41452
 21
1.62709
  0
LINE
  8
0
 10
8.41452
 20
1.62709
 11
8.44995
 21
1.68867
  0
LINE
  8
0
 10
8.44995
 20
1.68867
 11
8.48257
 21
1.75192
  0
LINE
  8
0
 10
8.48257
 20
1.75192
 11
8.51241
 21
1.81699
  0
LINE
  8
0
 10
8.51241
 20
1.81699
 11
8.53949
 21
1.88403
  0
LINE
  8
0
 10
8.53949
 20
1.88403
 11
8.56384
 21
1.95317
  0
LINE
  8
0
 10
8.56384
 20
1.95317
 11
8.58551
 21
2.0246
  0
LINE
  8
0
 10
8.58551
 20
2.0246
 11
8.60451
 21
2.09843
  0
LINE
  8
0
 10
8.60451
 20
2.09843
 11
8.62088
 21
2.17485
  0
LINE
  8
0
 10
8.62088
 20
2.17485
 11
8.63466
 21
2.25398
  0
LINE
  8
0
 10
8.63466
 20
2.25398
 11
8.64586
 21
2.336
  0
LINE
  8
0
 10
8.64586
 20
2.336
 11
8.65451
 21
2.42102
  0
LINE
  8
0
 10
8.65451
 20
2.42102
 11
8.66066
 21
2.50923
  0
LINE
  8
0
 10
8.66066
 20
2.50923
 11
8.66432
 21
2.60077
  0
LINE
  8
0
 10
8.66432
 20
2.60077
 11
8.66554
 21
2.69579
  0
LINE
  8
0
 10
8.66554
 20
2.69579
 11
8.66554
 21
8.94789
  0
LINE
  8
0
 10
8.66554
 20
8.94789
 11
6.12436
 21
7.57646
  0
LINE
  8
0
 10
6.12436
 20
7.57646
 11
6.12436
 21
2.61511
  0
LINE
  8
0
 10
6.12436
 20
2.61511
 11
8.14117
 21
1.28403
  0
LINE
  8
0
 10
8.14117
 20
1.28403
 11
8.19412
 21
1.33881
  0
LINE
  8
0
 10
30.9605
 20
7.4066
 11
31.0278
 21
7.42534
  0
LINE
  8
0
 10
31.0278
 20
7.42534
 11
31.0891
 21
7.45657
  0
LINE
  8
0
 10
31.0891
 20
7.45657
 11
31.1442
 21
7.50029
  0
LINE
  8
0
 10
31.1442
 20
7.50029
 11
31.1898
 21
7.55324
  0
LINE
  8
0
 10
31.1898
 20
7.55324
 11
31.2224
 21
7.61214
  0
LINE
  8
0
 10
31.2224
 20
7.61214
 11
31.2419
 21
7.677
  0
LINE
  8
0
 10
31.2419
 20
7.677
 11
31.2484
 21
7.7478
  0
LINE
  8
0
 10
31.2484
 20
7.7478
 11
31.2419
 21
7.81943
  0
LINE
  8
0
 10
31.2419
 20
7.81943
 11
31.2224
 21
7.88487
  0
LINE
  8
0
 10
31.2224
 20
7.88487
 11
31.1898
 21
7.94411
  0
LINE
  8
0
 10
31.1898
 20
7.94411
 11
31.1442
 21
7.99718
  0
LINE
  8
0
 10
31.1442
 20
7.99718
 11
31.0891
 21
8.04091
  0
LINE
  8
0
 10
31.0891
 20
8.04091
 11
31.0278
 21
8.07214
  0
LINE
  8
0
 10
31.0278
 20
8.07214
 11
30.9605
 21
8.09088
  0
LINE
  8
0
 10
30.9605
 20
8.09088
 11
30.887
 21
8.09714
  0
LINE
  8
0
 10
30.887
 20
8.09714
 11
30.8136
 21
8.09088
  0
LINE
  8
0
 10
30.8136
 20
8.09088
 11
30.7462
 21
8.07214
  0
LINE
  8
0
 10
30.7462
 20
8.07214
 11
30.685
 21
8.04091
  0
LINE
  8
0
 10
30.685
 20
8.04091
 11
30.6298
 21
7.99718
  0
LINE
  8
0
 10
30.6298
 20
7.99718
 11
30.5842
 21
7.94411
  0
LINE
  8
0
 10
30.5842
 20
7.94411
 11
30.5517
 21
7.88487
  0
LINE
  8
0
 10
30.5517
 20
7.88487
 11
30.5321
 21
7.81943
  0
LINE
  8
0
 10
30.5321
 20
7.81943
 11
30.5256
 21
7.7478
  0
LINE
  8
0
 10
30.5256
 20
7.7478
 11
30.5321
 21
7.677
  0
LINE
  8
0
 10
30.5321
 20
7.677
 11
30.5517
 21
7.61214
  0
LINE
  8
0
 10
30.5517
 20
7.61214
 11
30.5842
 21
7.55324
  0
LINE
  8
0
 10
30.5842
 20
7.55324
 11
30.6298
 21
7.50029
  0
LINE
  8
0
 10
30.6298
 20
7.50029
 11
30.685
 21
7.45657
  0
LINE
  8
0
 10
30.685
 20
7.45657
 11
30.7462
 21
7.42534
  0
LINE
  8
0
 10
30.7462
 20
7.42534
 11
30.8136
 21
7.4066
  0
LINE
  8
0
 10
30.8136
 20
7.4066
 11
30.887
 21
7.40036
  0
LINE
  8
0
 10
30.887
 20
7.40036
 11
30.9605
 21
7.4066
  0
LINE
  8
0
 10
34.7579
 20
4.01099
 11
34.9172
 21
4.04381
  0
LINE
  8
0
 10
34.9172
 20
4.04381
 11
35.0651
 21
4.09848
  0
LINE
  8
0
 10
35.0651
 20
4.09848
 11
35.2016
 21
4.17505
  0
LINE
  8
0
 10
35.2016
 20
4.17505
 11
35.325
 21
4.27194
  0
LINE
  8
0
 10
35.325
 20
4.27194
 11
35.4338
 21
4.38765
  0
LINE
  8
0
 10
35.4338
 20
4.38765
 11
35.5281
 21
4.52216
  0
LINE
  8
0
 10
35.5281
 20
4.52216
 11
35.6078
 21
4.67545
  0
LINE
  8
0
 10
35.6078
 20
4.67545
 11
35.6711
 21
4.84584
  0
LINE
  8
0
 10
35.6711
 20
4.84584
 11
35.7163
 21
5.0316
  0
LINE
  8
0
 10
35.7163
 20
5.0316
 11
35.7435
 21
5.23276
  0
LINE
  8
0
 10
35.7435
 20
5.23276
 11
35.7525
 21
5.44928
  0
LINE
  8
0
 10
35.7525
 20
5.44928
 11
35.7467
 21
5.6281
  0
LINE
  8
0
 10
35.7467
 20
5.6281
 11
35.7292
 21
5.79266
  0
LINE
  8
0
 10
35.7292
 20
5.79266
 11
35.7
 21
5.94299
  0
LINE
  8
0
 10
35.7
 20
5.94299
 11
35.6591
 21
6.07909
  0
LINE
  8
0
 10
35.6591
 20
6.07909
 11
35.6081
 21
6.20184
  0
LINE
  8
0
 10
35.6081
 20
6.20184
 11
35.5484
 21
6.31218
  0
LINE
  8
0
 10
35.5484
 20
6.31218
 11
35.4802
 21
6.41011
  0
LINE
  8
0
 10
35.4802
 20
6.41011
 11
35.4033
 21
6.49562
  0
LINE
  8
0
 10
35.4033
 20
6.49562
 11
35.3193
 21
6.56956
  0
LINE
  8
0
 10
35.3193
 20
6.56956
 11
35.2298
 21
6.63281
  0
LINE
  8
0
 10
35.2298
 20
6.63281
 11
35.1348
 21
6.68532
  0
LINE
  8
0
 10
35.1348
 20
6.68532
 11
35.0344
 21
6.72713
  0
LINE
  8
0
 10
35.0344
 20
6.72713
 11
34.93
 21
6.75903
  0
LINE
  8
0
 10
34.93
 20
6.75903
 11
34.8232
 21
6.78183
  0
LINE
  8
0
 10
34.8232
 20
6.78183
 11
34.7138
 21
6.7955
  0
LINE
  8
0
 10
34.7138
 20
6.7955
 11
34.6021
 21
6.80006
  0
LINE
  8
0
 10
34.6021
 20
6.80006
 11
34.4481
 21
6.79317
  0
LINE
  8
0
 10
34.4481
 20
6.79317
 11
34.3035
 21
6.77066
  0
LINE
  8
0
 10
34.3035
 20
6.77066
 11
34.1684
 21
6.73254
  0
LINE
  8
0
 10
34.1684
 20
6.73254
 11
34.0427
 21
6.67883
  0
LINE
  8
0
 10
34.0427
 20
6.67883
 11
33.9284
 21
6.61143
  0
LINE
  8
0
 10
33.9284
 20
6.61143
 11
33.8272
 21
6.5323
  0
LINE
  8
0
 10
33.8272
 20
6.5323
 11
33.7393
 21
6.44145
  0
LINE
  8
0
 10
33.7393
 20
6.44145
 11
33.6645
 21
6.33885
  0
LINE
  8
0
 10
33.6645
 20
6.33885
 11
33.6049
 21
6.22629
  0
LINE
  8
0
 10
33.6049
 20
6.22629
 11
33.5623
 21
6.10553
  0
LINE
  8
0
 10
33.5623
 20
6.10553
 11
33.5367
 21
5.97655
  0
LINE
  8
0
 10
33.5367
 20
5.97655
 11
33.5282
 21
5.83937
  0
LINE
  8
0
 10
33.5282
 20
5.83937
 11
33.535
 21
5.71701
  0
LINE
  8
0
 10
33.535
 20
5.71701
 11
33.5555
 21
5.60149
  0
LINE
  8
0
 10
33.5555
 20
5.60149
 11
33.5897
 21
5.4928
  0
LINE
  8
0
 10
33.5897
 20
5.4928
 11
33.6375
 21
5.39093
  0
LINE
  8
0
 10
33.6375
 20
5.39093
 11
33.6973
 21
5.29779
  0
LINE
  8
0
 10
33.6973
 20
5.29779
 11
33.7675
 21
5.21526
  0
LINE
  8
0
 10
33.7675
 20
5.21526
 11
33.8481
 21
5.14331
  0
LINE
  8
0
 10
33.8481
 20
5.14331
 11
33.9391
 21
5.08195
  0
LINE
  8
0
 10
33.9391
 20
5.08195
 11
34.0389
 21
5.03291
  0
LINE
  8
0
 10
34.0389
 20
5.03291
 11
34.1459
 21
4.99788
  0
LINE
  8
0
 10
34.1459
 20
4.99788
 11
34.2602
 21
4.97687
  0
LINE
  8
0
 10
34.2602
 20
4.97687
 11
34.3817
 21
4.96986
  0
LINE
  8
0
 10
34.3817
 20
4.96986
 11
34.495
 21
4.97635
  0
LINE
  8
0
 10
34.495
 20
4.97635
 11
34.6035
 21
4.99583
  0
LINE
  8
0
 10
34.6035
 20
4.99583
 11
34.707
 21
5.02829
  0
LINE
  8
0
 10
34.707
 20
5.02829
 11
34.8056
 21
5.07375
  0
LINE
  8
0
 10
34.8056
 20
5.07375
 11
34.8952
 21
5.13049
  0
LINE
  8
0
 10
34.8952
 20
5.13049
 11
34.9714
 21
5.19681
  0
LINE
  8
0
 10
34.9714
 20
5.19681
 11
35.0343
 21
5.27269
  0
LINE
  8
0
 10
35.0343
 20
5.27269
 11
35.0839
 21
5.35814
  0
LINE
  8
0
 10
35.0839
 20
5.35814
 11
35.1007
 21
5.35814
  0
LINE
  8
0
 10
35.1007
 20
5.35814
 11
35.0927
 21
5.1833
  0
LINE
  8
0
 10
35.0927
 20
5.1833
 11
35.0687
 21
5.02705
  0
LINE
  8
0
 10
35.0687
 20
5.02705
 11
35.0287
 21
4.88936
  0
LINE
  8
0
 10
35.0287
 20
4.88936
 11
34.9728
 21
4.77025
  0
LINE
  8
0
 10
34.9728
 20
4.77025
 11
34.9007
 21
4.67415
  0
LINE
  8
0
 10
34.9007
 20
4.67415
 11
34.8124
 21
4.6055
  0
LINE
  8
0
 10
34.8124
 20
4.6055
 11
34.7079
 21
4.56432
  0
LINE
  8
0
 10
34.7079
 20
4.56432
 11
34.5871
 21
4.55058
  0
LINE
  8
0
 10
34.5871
 20
4.55058
 11
34.5186
 21
4.55508
  0
LINE
  8
0
 10
34.5186
 20
4.55508
 11
34.4548
 21
4.56859
  0
LINE
  8
0
 10
34.4548
 20
4.56859
 11
34.3958
 21
4.59108
  0
LINE
  8
0
 10
34.3958
 20
4.59108
 11
34.3415
 21
4.62257
  0
LINE
  8
0
 10
34.3415
 20
4.62257
 11
34.2944
 21
4.66228
  0
LINE
  8
0
 10
34.2944
 20
4.66228
 11
34.2568
 21
4.7094
  0
LINE
  8
0
 10
34.2568
 20
4.7094
 11
34.2286
 21
4.76392
  0
LINE
  8
0
 10
34.2286
 20
4.76392
 11
34.2099
 21
4.82584
  0
LINE
  8
0
 10
34.2099
 20
4.82584
 11
33.56
 21
4.82584
  0
LINE
  8
0
 10
33.56
 20
4.82584
 11
33.5797
 21
4.71367
  0
LINE
  8
0
 10
33.5797
 20
4.71367
 11
33.6129
 21
4.60686
  0
LINE
  8
0
 10
33.6129
 20
4.60686
 11
33.6596
 21
4.5054
  0
LINE
  8
0
 10
33.6596
 20
4.5054
 11
33.7196
 21
4.4093
  0
LINE
  8
0
 10
33.7196
 20
4.4093
 11
33.7919
 21
4.32062
  0
LINE
  8
0
 10
33.7919
 20
4.32062
 11
33.8753
 21
4.24138
  0
LINE
  8
0
 10
33.8753
 20
4.24138
 11
33.9698
 21
4.17159
  0
LINE
  8
0
 10
33.9698
 20
4.17159
 11
34.0754
 21
4.11125
  0
LINE
  8
0
 10
34.0754
 20
4.11125
 11
34.1907
 21
4.06261
  0
LINE
  8
0
 10
34.1907
 20
4.06261
 11
34.3145
 21
4.02786
  0
LINE
  8
0
 10
34.3145
 20
4.02786
 11
34.4466
 21
4.007
  0
LINE
  8
0
 10
34.4466
 20
4.007
 11
34.5871
 21
4.00006
  0
LINE
  8
0
 10
34.5871
 20
4.00006
 11
34.7579
 21
4.01099
  0
LINE
  8
0
 10
34.5137
 20
5.42973
 11
34.4317
 21
5.45314
  0
LINE
  8
0
 10
34.4317
 20
5.45314
 11
34.3578
 21
5.49216
  0
LINE
  8
0
 10
34.3578
 20
5.49216
 11
34.2921
 21
5.54678
  0
LINE
  8
0
 10
34.2921
 20
5.54678
 11
34.2381
 21
5.61316
  0
LINE
  8
0
 10
34.2381
 20
5.61316
 11
34.1996
 21
5.68738
  0
LINE
  8
0
 10
34.1996
 20
5.68738
 11
34.1765
 21
5.76947
  0
LINE
  8
0
 10
34.1765
 20
5.76947
 11
34.1688
 21
5.85942
  0
LINE
  8
0
 10
34.1688
 20
5.85942
 11
34.1766
 21
5.94864
  0
LINE
  8
0
 10
34.1766
 20
5.94864
 11
34.2001
 21
6.03033
  0
LINE
  8
0
 10
34.2001
 20
6.03033
 11
34.2392
 21
6.10451
  0
LINE
  8
0
 10
34.2392
 20
6.10451
 11
34.2939
 21
6.17114
  0
LINE
  8
0
 10
34.2939
 20
6.17114
 11
34.3603
 21
6.22618
  0
LINE
  8
0
 10
34.3603
 20
6.22618
 11
34.4345
 21
6.26547
  0
LINE
  8
0
 10
34.4345
 20
6.26547
 11
34.5163
 21
6.28906
  0
LINE
  8
0
 10
34.5163
 20
6.28906
 11
34.6058
 21
6.29692
  0
LINE
  8
0
 10
34.6058
 20
6.29692
 11
34.696
 21
6.289
  0
LINE
  8
0
 10
34.696
 20
6.289
 11
34.7781
 21
6.26524
  0
LINE
  8
0
 10
34.7781
 20
6.26524
 11
34.852
 21
6.22566
  0
LINE
  8
0
 10
34.852
 20
6.22566
 11
34.9177
 21
6.17023
  0
LINE
  8
0
 10
34.9177
 20
6.17023
 11
34.9716
 21
6.10341
  0
LINE
  8
0
 10
34.9716
 20
6.10341
 11
35.0101
 21
6.02965
  0
LINE
  8
0
 10
35.0101
 20
6.02965
 11
35.0332
 21
5.94891
  0
LINE
  8
0
 10
35.0332
 20
5.94891
 11
35.041
 21
5.86125
  0
LINE
  8
0
 10
35.041
 20
5.86125
 11
35.0331
 21
5.77199
  0
LINE
  8
0
 10
35.0331
 20
5.77199
 11
35.0097
 21
5.69012
  0
LINE
  8
0
 10
35.0097
 20
5.69012
 11
34.9706
 21
5.61566
  0
LINE
  8
0
 10
34.9706
 20
5.61566
 11
34.9158
 21
5.54861
  0
LINE
  8
0
 10
34.9158
 20
5.54861
 11
34.8494
 21
5.49318
  0
LINE
  8
0
 10
34.8494
 20
5.49318
 11
34.7753
 21
5.4536
  0
LINE
  8
0
 10
34.7753
 20
5.4536
 11
34.6935
 21
5.42984
  0
LINE
  8
0
 10
34.6935
 20
5.42984
 11
34.6039
 21
5.42192
  0
LINE
  8
0
 10
34.6039
 20
5.42192
 11
34.5137
 21
5.42973
  0
LINE
  8
0
 10
25.4291
 20
4.01421
 11
25.5923
 21
4.04018
  0
LINE
  8
0
 10
25.5923
 20
4.04018
 11
25.7456
 21
4.08347
  0
LINE
  8
0
 10
25.7456
 20
4.08347
 11
25.8888
 21
4.14407
  0
LINE
  8
0
 10
25.8888
 20
4.14407
 11
26.0196
 21
4.22093
  0
LINE
  8
0
 10
26.0196
 20
4.22093
 11
26.1356
 21
4.31293
  0
LINE
  8
0
 10
26.1356
 20
4.31293
 11
26.2367
 21
4.42007
  0
LINE
  8
0
 10
26.2367
 20
4.42007
 11
26.323
 21
4.54239
  0
LINE
  8
0
 10
26.323
 20
4.54239
 11
26.3921
 21
4.67871
  0
LINE
  8
0
 10
26.3921
 20
4.67871
 11
26.4414
 21
4.8279
  0
LINE
  8
0
 10
26.4414
 20
4.8279
 11
26.471
 21
4.98996
  0
LINE
  8
0
 10
26.471
 20
4.98996
 11
26.4809
 21
5.1649
  0
LINE
  8
0
 10
26.4809
 20
5.1649
 11
26.4809
 21
5.52219
  0
LINE
  8
0
 10
26.4809
 20
5.52219
 11
25.2875
 21
5.52219
  0
LINE
  8
0
 10
25.2875
 20
5.52219
 11
25.2875
 21
5.05006
  0
LINE
  8
0
 10
25.2875
 20
5.05006
 11
25.844
 21
5.05006
  0
LINE
  8
0
 10
25.844
 20
5.05006
 11
25.8322
 21
4.94548
  0
LINE
  8
0
 10
25.8322
 20
4.94548
 11
25.8022
 21
4.85228
  0
LINE
  8
0
 10
25.8022
 20
4.85228
 11
25.7542
 21
4.77048
  0
LINE
  8
0
 10
25.7542
 20
4.77048
 11
25.688
 21
4.70006
  0
LINE
  8
0
 10
25.688
 20
4.70006
 11
25.605
 21
4.64343
  0
LINE
  8
0
 10
25.605
 20
4.64343
 11
25.5062
 21
4.603
  0
LINE
  8
0
 10
25.5062
 20
4.603
 11
25.3916
 21
4.57872
  0
LINE
  8
0
 10
25.3916
 20
4.57872
 11
25.2613
 21
4.57063
  0
LINE
  8
0
 10
25.2613
 20
4.57063
 11
25.1123
 21
4.58426
  0
LINE
  8
0
 10
25.1123
 20
4.58426
 11
24.9807
 21
4.62509
  0
LINE
  8
0
 10
24.9807
 20
4.62509
 11
24.8667
 21
4.69318
  0
LINE
  8
0
 10
24.8667
 20
4.69318
 11
24.7701
 21
4.78847
  0
LINE
  8
0
 10
24.7701
 20
4.78847
 11
24.6933
 21
4.90862
  0
LINE
  8
0
 10
24.6933
 20
4.90862
 11
24.6385
 21
5.05119
  0
LINE
  8
0
 10
24.6385
 20
5.05119
 11
24.6056
 21
5.21622
  0
LINE
  8
0
 10
24.6056
 20
5.21622
 11
24.5946
 21
5.4037
  0
LINE
  8
0
 10
24.5946
 20
5.4037
 11
24.6059
 21
5.58946
  0
LINE
  8
0
 10
24.6059
 20
5.58946
 11
24.6397
 21
5.75302
  0
LINE
  8
0
 10
24.6397
 20
5.75302
 11
24.696
 21
5.89436
  0
LINE
  8
0
 10
24.696
 20
5.89436
 11
24.7748
 21
6.01347
  0
LINE
  8
0
 10
24.7748
 20
6.01347
 11
24.8727
 21
6.10797
  0
LINE
  8
0
 10
24.8727
 20
6.10797
 11
24.9861
 21
6.17548
  0
LINE
  8
0
 10
24.9861
 20
6.17548
 11
25.115
 21
6.21597
  0
LINE
  8
0
 10
25.115
 20
6.21597
 11
25.2595
 21
6.22948
  0
LINE
  8
0
 10
25.2595
 20
6.22948
 11
25.3586
 21
6.22362
  0
LINE
  8
0
 10
25.3586
 20
6.22362
 11
25.4488
 21
6.20601
  0
LINE
  8
0
 10
25.4488
 20
6.20601
 11
25.53
 21
6.17667
  0
LINE
  8
0
 10
25.53
 20
6.17667
 11
25.6022
 21
6.13559
  0
LINE
  8
0
 10
25.6022
 20
6.13559
 11
25.6643
 21
6.08392
  0
LINE
  8
0
 10
25.6643
 20
6.08392
 11
25.7154
 21
6.0228
  0
LINE
  8
0
 10
25.7154
 20
6.0228
 11
25.7554
 21
5.95222
  0
LINE
  8
0
 10
25.7554
 20
5.95222
 11
25.7842
 21
5.87219
  0
LINE
  8
0
 10
25.7842
 20
5.87219
 11
26.451
 21
5.87219
  0
LINE
  8
0
 10
26.451
 20
5.87219
 11
26.4259
 21
6.00327
  0
LINE
  8
0
 10
26.4259
 20
6.00327
 11
26.3844
 21
6.12671
  0
LINE
  8
0
 10
26.3844
 20
6.12671
 11
26.3265
 21
6.24252
  0
LINE
  8
0
 10
26.3265
 20
6.24252
 11
26.2521
 21
6.35071
  0
LINE
  8
0
 10
26.2521
 20
6.35071
 11
26.1635
 21
6.44937
  0
LINE
  8
0
 10
26.1635
 20
6.44937
 11
26.0632
 21
6.53664
  0
LINE
  8
0
 10
26.0632
 20
6.53664
 11
25.9511
 21
6.61252
  0
LINE
  8
0
 10
25.9511
 20
6.61252
 11
25.8272
 21
6.677
  0
LINE
  8
0
 10
25.8272
 20
6.677
 11
25.6937
 21
6.72845
  0
LINE
  8
0
 10
25.6937
 20
6.72845
 11
25.5527
 21
6.7652
  0
LINE
  8
0
 10
25.5527
 20
6.7652
 11
25.4042
 21
6.78725
  0
LINE
  8
0
 10
25.4042
 20
6.78725
 11
25.2483
 21
6.7946
  0
LINE
  8
0
 10
25.2483
 20
6.7946
 11
25.0669
 21
6.78429
  0
LINE
  8
0
 10
25.0669
 20
6.78429
 11
24.8943
 21
6.75336
  0
LINE
  8
0
 10
24.8943
 20
6.75336
 11
24.7307
 21
6.7018
  0
LINE
  8
0
 10
24.7307
 20
6.7018
 11
24.5759
 21
6.62961
  0
LINE
  8
0
 10
24.5759
 20
6.62961
 11
24.4333
 21
6.5379
  0
LINE
  8
0
 10
24.4333
 20
6.5379
 11
24.306
 21
6.42773
  0
LINE
  8
0
 10
24.306
 20
6.42773
 11
24.1942
 21
6.2991
  0
LINE
  8
0
 10
24.1942
 20
6.2991
 11
24.0978
 21
6.15201
  0
LINE
  8
0
 10
24.0978
 20
6.15201
 11
24.0202
 21
5.98743
  0
LINE
  8
0
 10
24.0202
 20
5.98743
 11
23.9648
 21
5.80634
  0
LINE
  8
0
 10
23.9648
 20
5.80634
 11
23.9315
 21
5.60872
  0
LINE
  8
0
 10
23.9315
 20
5.60872
 11
23.9204
 21
5.39459
  0
LINE
  8
0
 10
23.9204
 20
5.39459
 11
23.9309
 21
5.18768
  0
LINE
  8
0
 10
23.9309
 20
5.18768
 11
23.9624
 21
4.99536
  0
LINE
  8
0
 10
23.9624
 20
4.99536
 11
24.015
 21
4.81763
  0
LINE
  8
0
 10
24.015
 20
4.81763
 11
24.0885
 21
4.65448
  0
LINE
  8
0
 10
24.0885
 20
4.65448
 11
24.1808
 21
4.50757
  0
LINE
  8
0
 10
24.1808
 20
4.50757
 11
24.2897
 21
4.37854
  0
LINE
  8
0
 10
24.2897
 20
4.37854
 11
24.4152
 21
4.26741
  0
LINE
  8
0
 10
24.4152
 20
4.26741
 11
24.5572
 21
4.17416
  0
LINE
  8
0
 10
24.5572
 20
4.17416
 11
24.7137
 21
4.10039
  0
LINE
  8
0
 10
24.7137
 20
4.10039
 11
24.8822
 21
4.0477
  0
LINE
  8
0
 10
24.8822
 20
4.0477
 11
25.0629
 21
4.01608
  0
LINE
  8
0
 10
25.0629
 20
4.01608
 11
25.2557
 21
4.00554
  0
LINE
  8
0
 10
25.2557
 20
4.00554
 11
25.4291
 21
4.01421
  0
LINE
  8
0
 10
20.0676
 20
4.01562
 11
20.2399
 21
4.04587
  0
LINE
  8
0
 10
20.2399
 20
4.04587
 11
20.4033
 21
4.09628
  0
LINE
  8
0
 10
20.4033
 20
4.09628
 11
20.5576
 21
4.16685
  0
LINE
  8
0
 10
20.5576
 20
4.16685
 11
20.6997
 21
4.25691
  0
LINE
  8
0
 10
20.6997
 20
4.25691
 11
20.8263
 21
4.36578
  0
LINE
  8
0
 10
20.8263
 20
4.36578
 11
20.9374
 21
4.49344
  0
LINE
  8
0
 10
20.9374
 20
4.49344
 11
21.0329
 21
4.63991
  0
LINE
  8
0
 10
21.0329
 20
4.63991
 11
21.1097
 21
4.8042
  0
LINE
  8
0
 10
21.1097
 20
4.8042
 11
21.1646
 21
4.98535
  0
LINE
  8
0
 10
21.1646
 20
4.98535
 11
21.1975
 21
5.18336
  0
LINE
  8
0
 10
21.1975
 20
5.18336
 11
21.2085
 21
5.39824
  0
LINE
  8
0
 10
21.2085
 20
5.39824
 11
21.1975
 21
5.61392
  0
LINE
  8
0
 10
21.1975
 20
5.61392
 11
21.1646
 21
5.8125
  0
LINE
  8
0
 10
21.1646
 20
5.8125
 11
21.1097
 21
5.99399
  0
LINE
  8
0
 10
21.1097
 20
5.99399
 11
21.0329
 21
6.15839
  0
LINE
  8
0
 10
21.0329
 20
6.15839
 11
20.9374
 21
6.3049
  0
LINE
  8
0
 10
20.9374
 20
6.3049
 11
20.8263
 21
6.43274
  0
LINE
  8
0
 10
20.8263
 20
6.43274
 11
20.6997
 21
6.54189
  0
LINE
  8
0
 10
20.6997
 20
6.54189
 11
20.5576
 21
6.63235
  0
LINE
  8
0
 10
20.5576
 20
6.63235
 11
20.4033
 21
6.70334
  0
LINE
  8
0
 10
20.4033
 20
6.70334
 11
20.2399
 21
6.75404
  0
LINE
  8
0
 10
20.2399
 20
6.75404
 11
20.0676
 21
6.78445
  0
LINE
  8
0
 10
20.0676
 20
6.78445
 11
19.8862
 21
6.7946
  0
LINE
  8
0
 10
19.8862
 20
6.7946
 11
19.7033
 21
6.78445
  0
LINE
  8
0
 10
19.7033
 20
6.78445
 11
19.5298
 21
6.75404
  0
LINE
  8
0
 10
19.5298
 20
6.75404
 11
19.3657
 21
6.70334
  0
LINE
  8
0
 10
19.3657
 20
6.70334
 11
19.2111
 21
6.63235
  0
LINE
  8
0
 10
19.2111
 20
6.63235
 11
19.069
 21
6.54189
  0
LINE
  8
0
 10
19.069
 20
6.54189
 11
18.9424
 21
6.43274
  0
LINE
  8
0
 10
18.9424
 20
6.43274
 11
18.8313
 21
6.3049
  0
LINE
  8
0
 10
18.8313
 20
6.3049
 11
18.7358
 21
6.15839
  0
LINE
  8
0
 10
18.7358
 20
6.15839
 11
18.659
 21
5.99399
  0
LINE
  8
0
 10
18.659
 20
5.99399
 11
18.6041
 21
5.8125
  0
LINE
  8
0
 10
18.6041
 20
5.8125
 11
18.5712
 21
5.61392
  0
LINE
  8
0
 10
18.5712
 20
5.61392
 11
18.5603
 21
5.39824
  0
LINE
  8
0
 10
18.5603
 20
5.39824
 11
18.5712
 21
5.18416
  0
LINE
  8
0
 10
18.5712
 20
5.18416
 11
18.6041
 21
4.98671
  0
LINE
  8
0
 10
18.6041
 20
4.98671
 11
18.659
 21
4.80589
  0
LINE
  8
0
 10
18.659
 20
4.80589
 11
18.7358
 21
4.64171
  0
LINE
  8
0
 10
18.7358
 20
4.64171
 11
18.8313
 21
4.49519
  0
LINE
  8
0
 10
18.8313
 20
4.49519
 11
18.9424
 21
4.36737
  0
LINE
  8
0
 10
18.9424
 20
4.36737
 11
19.069
 21
4.25822
  0
LINE
  8
0
 10
19.069
 20
4.25822
 11
19.2111
 21
4.16776
  0
LINE
  8
0
 10
19.2111
 20
4.16776
 11
19.3657
 21
4.09679
  0
LINE
  8
0
 10
19.3657
 20
4.09679
 11
19.5298
 21
4.0461
  0
LINE
  8
0
 10
19.5298
 20
4.0461
 11
19.7033
 21
4.01569
  0
LINE
  8
0
 10
19.7033
 20
4.01569
 11
19.8862
 21
4.00554
  0
LINE
  8
0
 10
19.8862
 20
4.00554
 11
20.0676
 21
4.01562
  0
LINE
  8
0
 10
19.7422
 20
4.58391
 11
19.6145
 21
4.62373
  0
LINE
  8
0
 10
19.6145
 20
4.62373
 11
19.5031
 21
4.69008
  0
LINE
  8
0
 10
19.5031
 20
4.69008
 11
19.4081
 21
4.78299
  0
LINE
  8
0
 10
19.4081
 20
4.78299
 11
19.3321
 21
4.90108
  0
LINE
  8
0
 10
19.3321
 20
4.90108
 11
19.2779
 21
5.04298
  0
LINE
  8
0
 10
19.2779
 20
5.04298
 11
19.2453
 21
5.20871
  0
LINE
  8
0
 10
19.2453
 20
5.20871
 11
19.2345
 21
5.39824
  0
LINE
  8
0
 10
19.2345
 20
5.39824
 11
19.2453
 21
5.58862
  0
LINE
  8
0
 10
19.2453
 20
5.58862
 11
19.2779
 21
5.75507
  0
LINE
  8
0
 10
19.2779
 20
5.75507
 11
19.3321
 21
5.89758
  0
LINE
  8
0
 10
19.3321
 20
5.89758
 11
19.4081
 21
6.01619
  0
LINE
  8
0
 10
19.4081
 20
6.01619
 11
19.5031
 21
6.1095
  0
LINE
  8
0
 10
19.5031
 20
6.1095
 11
19.6145
 21
6.17615
  0
LINE
  8
0
 10
19.6145
 20
6.17615
 11
19.7422
 21
6.21614
  0
LINE
  8
0
 10
19.7422
 20
6.21614
 11
19.8862
 21
6.22948
  0
LINE
  8
0
 10
19.8862
 20
6.22948
 11
20.0294
 21
6.21614
  0
LINE
  8
0
 10
20.0294
 20
6.21614
 11
20.1566
 21
6.17615
  0
LINE
  8
0
 10
20.1566
 20
6.17615
 11
20.2676
 21
6.1095
  0
LINE
  8
0
 10
20.2676
 20
6.1095
 11
20.3625
 21
6.01619
  0
LINE
  8
0
 10
20.3625
 20
6.01619
 11
20.4384
 21
5.89758
  0
LINE
  8
0
 10
20.4384
 20
5.89758
 11
20.4927
 21
5.75507
  0
LINE
  8
0
 10
20.4927
 20
5.75507
 11
20.5253
 21
5.58862
  0
LINE
  8
0
 10
20.5253
 20
5.58862
 11
20.5361
 21
5.39824
  0
LINE
  8
0
 10
20.5361
 20
5.39824
 11
20.5253
 21
5.20871
  0
LINE
  8
0
 10
20.5253
 20
5.20871
 11
20.4927
 21
5.04298
  0
LINE
  8
0
 10
20.4927
 20
5.04298
 11
20.4384
 21
4.90108
  0
LINE
  8
0
 10
20.4384
 20
4.90108
 11
20.3625
 21
4.78299
  0
LINE
  8
0
 10
20.3625
 20
4.78299
 11
20.2676
 21
4.69008
  0
LINE
  8
0
 10
20.2676
 20
4.69008
 11
20.1566
 21
4.62373
  0
LINE
  8
0
 10
20.1566
 20
4.62373
 11
20.0294
 21
4.58391
  0
LINE
  8
0
 10
20.0294
 20
4.58391
 11
19.8862
 21
4.57063
  0
LINE
  8
0
 10
19.8862
 20
4.57063
 11
19.7422
 21
4.58391
  0
LINE
  8
0
 10
29.9218
 20
4.0285
 11
30.1528
 21
4.09737
  0
LINE
  8
0
 10
30.1528
 20
4.09737
 11
30.3528
 21
4.21216
  0
LINE
  8
0
 10
30.3528
 20
4.21216
 11
30.5219
 21
4.37285
  0
LINE
  8
0
 10
30.5219
 20
4.37285
 11
30.6562
 21
4.57469
  0
LINE
  8
0
 10
30.6562
 20
4.57469
 11
30.7523
 21
4.81285
  0
LINE
  8
0
 10
30.7523
 20
4.81285
 11
30.8099
 21
5.08737
  0
LINE
  8
0
 10
30.8099
 20
5.08737
 11
30.8291
 21
5.39824
  0
LINE
  8
0
 10
30.8291
 20
5.39824
 11
30.8204
 21
5.60999
  0
LINE
  8
0
 10
30.8204
 20
5.60999
 11
30.7943
 21
5.80589
  0
LINE
  8
0
 10
30.7943
 20
5.80589
 11
30.7508
 21
5.98595
  0
LINE
  8
0
 10
30.7508
 20
5.98595
 11
30.6899
 21
6.15018
  0
LINE
  8
0
 10
30.6899
 20
6.15018
 11
30.6127
 21
6.29733
  0
LINE
  8
0
 10
30.6127
 20
6.29733
 11
30.5202
 21
6.42613
  0
LINE
  8
0
 10
30.5202
 20
6.42613
 11
30.4124
 21
6.53659
  0
LINE
  8
0
 10
30.4124
 20
6.53659
 11
30.2893
 21
6.62869
  0
LINE
  8
0
 10
30.2893
 20
6.62869
 11
30.1519
 21
6.70128
  0
LINE
  8
0
 10
30.1519
 20
6.70128
 11
30.0012
 21
6.75313
  0
LINE
  8
0
 10
30.0012
 20
6.75313
 11
29.8372
 21
6.78423
  0
LINE
  8
0
 10
29.8372
 20
6.78423
 11
29.6599
 21
6.7946
  0
LINE
  8
0
 10
29.6599
 20
6.7946
 11
29.3996
 21
6.77159
  0
LINE
  8
0
 10
29.3996
 20
6.77159
 11
29.1695
 21
6.70253
  0
LINE
  8
0
 10
29.1695
 20
6.70253
 11
28.9696
 21
6.58746
  0
LINE
  8
0
 10
28.9696
 20
6.58746
 11
28.7999
 21
6.42635
  0
LINE
  8
0
 10
28.7999
 20
6.42635
 11
28.6647
 21
6.224
  0
LINE
  8
0
 10
28.6647
 20
6.224
 11
28.5681
 21
5.98521
  0
LINE
  8
0
 10
28.5681
 20
5.98521
 11
28.5102
 21
5.70995
  0
LINE
  8
0
 10
28.5102
 20
5.70995
 11
28.4909
 21
5.39824
  0
LINE
  8
0
 10
28.4909
 20
5.39824
 11
28.5102
 21
5.08664
  0
LINE
  8
0
 10
28.5102
 20
5.08664
 11
28.5681
 21
4.81172
  0
LINE
  8
0
 10
28.5681
 20
4.81172
 11
28.6647
 21
4.57349
  0
LINE
  8
0
 10
28.6647
 20
4.57349
 11
28.7999
 21
4.37195
  0
LINE
  8
0
 10
28.7999
 20
4.37195
 11
28.9696
 21
4.21164
  0
LINE
  8
0
 10
28.9696
 20
4.21164
 11
29.1695
 21
4.09714
  0
LINE
  8
0
 10
29.1695
 20
4.09714
 11
29.3996
 21
4.02844
  0
LINE
  8
0
 10
29.3996
 20
4.02844
 11
29.6599
 21
4.00554
  0
LINE
  8
0
 10
29.6599
 20
4.00554
 11
29.9218
 21
4.0285
  0
LINE
  8
0
 10
29.5483
 20
4.54637
 11
29.4506
 21
4.58841
  0
LINE
  8
0
 10
29.4506
 20
4.58841
 11
29.3667
 21
4.65848
  0
LINE
  8
0
 10
29.3667
 20
4.65848
 11
29.2967
 21
4.75656
  0
LINE
  8
0
 10
29.2967
 20
4.75656
 11
29.2416
 21
4.88075
  0
LINE
  8
0
 10
29.2416
 20
4.88075
 11
29.2022
 21
5.0291
  0
LINE
  8
0
 10
29.2022
 20
5.0291
 11
29.1785
 21
5.2016
  0
LINE
  8
0
 10
29.1785
 20
5.2016
 11
29.1706
 21
5.39824
  0
LINE
  8
0
 10
29.1706
 20
5.39824
 11
29.1786
 21
5.59586
  0
LINE
  8
0
 10
29.1786
 20
5.59586
 11
29.2024
 21
5.76944
  0
LINE
  8
0
 10
29.2024
 20
5.76944
 11
29.2421
 21
5.91896
  0
LINE
  8
0
 10
29.2421
 20
5.91896
 11
29.2976
 21
6.04446
  0
LINE
  8
0
 10
29.2976
 20
6.04446
 11
29.3679
 21
6.14375
  0
LINE
  8
0
 10
29.3679
 20
6.14375
 11
29.4517
 21
6.21468
  0
LINE
  8
0
 10
29.4517
 20
6.21468
 11
29.5491
 21
6.25723
  0
LINE
  8
0
 10
29.5491
 20
6.25723
 11
29.6599
 21
6.27141
  0
LINE
  8
0
 10
29.6599
 20
6.27141
 11
29.7717
 21
6.25723
  0
LINE
  8
0
 10
29.7717
 20
6.25723
 11
29.8696
 21
6.21468
  0
LINE
  8
0
 10
29.8696
 20
6.21468
 11
29.9537
 21
6.14375
  0
LINE
  8
0
 10
29.9537
 20
6.14375
 11
30.0241
 21
6.04446
  0
LINE
  8
0
 10
30.0241
 20
6.04446
 11
30.0797
 21
5.91896
  0
LINE
  8
0
 10
30.0797
 20
5.91896
 11
30.1194
 21
5.76944
  0
LINE
  8
0
 10
30.1194
 20
5.76944
 11
30.1432
 21
5.59586
  0
LINE
  8
0
 10
30.1432
 20
5.59586
 11
30.1511
 21
5.39824
  0
LINE
  8
0
 10
30.1511
 20
5.39824
 11
30.1432
 21
5.2016
  0
LINE
  8
0
 10
30.1432
 20
5.2016
 11
30.1194
 21
5.0291
  0
LINE
  8
0
 10
30.1194
 20
5.0291
 11
30.0797
 21
4.88075
  0
LINE
  8
0
 10
30.0797
 20
4.88075
 11
30.0241
 21
4.75656
  0
LINE
  8
0
 10
30.0241
 20
4.75656
 11
29.9537
 21
4.65848
  0
LINE
  8
0
 10
29.9537
 20
4.65848
 11
29.8696
 21
4.58841
  0
LINE
  8
0
 10
29.8696
 20
4.58841
 11
29.7717
 21
4.54637
  0
LINE
  8
0
 10
29.7717
 20
4.54637
 11
29.6599
 21
4.53236
  0
LINE
  8
0
 10
29.6599
 20
4.53236
 11
29.5483
 21
4.54637
  0
LINE
  8
0
 10
32.3293
 20
4.01204
 11
32.4778
 21
4.03151
  0
LINE
  8
0
 10
32.4778
 20
4.03151
 11
32.6169
 21
4.06398
  0
LINE
  8
0
 10
32.6169
 20
4.06398
 11
32.7467
 21
4.10944
  0
LINE
  8
0
 10
32.7467
 20
4.10944
 11
32.865
 21
4.16623
  0
LINE
  8
0
 10
32.865
 20
4.16623
 11
32.9696
 21
4.23271
  0
LINE
  8
0
 10
32.9696
 20
4.23271
 11
33.0606
 21
4.30887
  0
LINE
  8
0
 10
33.0606
 20
4.30887
 11
33.1379
 21
4.39471
  0
LINE
  8
0
 10
33.1379
 20
4.39471
 11
33.1996
 21
4.48875
  0
LINE
  8
0
 10
33.1996
 20
4.48875
 11
33.2437
 21
4.58954
  0
LINE
  8
0
 10
33.2437
 20
4.58954
 11
33.2701
 21
4.69704
  0
LINE
  8
0
 10
33.2701
 20
4.69704
 11
33.2789
 21
4.81126
  0
LINE
  8
0
 10
33.2789
 20
4.81126
 11
33.2687
 21
4.93179
  0
LINE
  8
0
 10
33.2687
 20
4.93179
 11
33.2381
 21
5.04184
  0
LINE
  8
0
 10
33.2381
 20
5.04184
 11
33.187
 21
5.14142
  0
LINE
  8
0
 10
33.187
 20
5.14142
 11
33.1155
 21
5.23051
  0
LINE
  8
0
 10
33.1155
 20
5.23051
 11
33.0241
 21
5.30629
  0
LINE
  8
0
 10
33.0241
 20
5.30629
 11
32.9131
 21
5.36588
  0
LINE
  8
0
 10
32.9131
 20
5.36588
 11
32.7827
 21
5.40929
  0
LINE
  8
0
 10
32.7827
 20
5.40929
 11
32.6327
 21
5.43652
  0
LINE
  8
0
 10
32.6327
 20
5.43652
 11
32.6327
 21
5.45657
  0
LINE
  8
0
 10
32.6327
 20
5.45657
 11
32.7477
 21
5.48106
  0
LINE
  8
0
 10
32.7477
 20
5.48106
 11
32.8515
 21
5.51991
  0
LINE
  8
0
 10
32.8515
 20
5.51991
 11
32.9442
 21
5.57312
  0
LINE
  8
0
 10
32.9442
 20
5.57312
 11
33.0259
 21
5.64067
  0
LINE
  8
0
 10
33.0259
 20
5.64067
 11
33.0925
 21
5.72031
  0
LINE
  8
0
 10
33.0925
 20
5.72031
 11
33.14
 21
5.80975
  0
LINE
  8
0
 10
33.14
 20
5.80975
 11
33.1686
 21
5.909
  0
LINE
  8
0
 10
33.1686
 20
5.909
 11
33.1781
 21
6.01804
  0
LINE
  8
0
 10
33.1781
 20
6.01804
 11
33.1702
 21
6.12552
  0
LINE
  8
0
 10
33.1702
 20
6.12552
 11
33.1466
 21
6.22743
  0
LINE
  8
0
 10
33.1466
 20
6.22743
 11
33.1072
 21
6.32375
  0
LINE
  8
0
 10
33.1072
 20
6.32375
 11
33.052
 21
6.41449
  0
LINE
  8
0
 10
33.052
 20
6.41449
 11
32.9828
 21
6.49783
  0
LINE
  8
0
 10
32.9828
 20
6.49783
 11
32.9012
 21
6.57196
  0
LINE
  8
0
 10
32.9012
 20
6.57196
 11
32.8073
 21
6.63686
  0
LINE
  8
0
 10
32.8073
 20
6.63686
 11
32.7009
 21
6.6925
  0
LINE
  8
0
 10
32.7009
 20
6.6925
 11
32.584
 21
6.73717
  0
LINE
  8
0
 10
32.584
 20
6.73717
 11
32.4584
 21
6.76907
  0
LINE
  8
0
 10
32.4584
 20
6.76907
 11
32.324
 21
6.78822
  0
LINE
  8
0
 10
32.324
 20
6.78822
 11
32.1808
 21
6.7946
  0
LINE
  8
0
 10
32.1808
 20
6.7946
 11
32.0354
 21
6.78806
  0
LINE
  8
0
 10
32.0354
 20
6.78806
 11
31.8981
 21
6.76839
  0
LINE
  8
0
 10
31.8981
 20
6.76839
 11
31.7688
 21
6.73563
  0
LINE
  8
0
 10
31.7688
 20
6.73563
 11
31.6476
 21
6.68977
  0
LINE
  8
0
 10
31.6476
 20
6.68977
 11
31.5366
 21
6.6324
  0
LINE
  8
0
 10
31.5366
 20
6.6324
 11
31.438
 21
6.56514
  0
LINE
  8
0
 10
31.438
 20
6.56514
 11
31.3517
 21
6.48795
  0
LINE
  8
0
 10
31.3517
 20
6.48795
 11
31.2778
 21
6.40083
  0
LINE
  8
0
 10
31.2778
 20
6.40083
 11
31.2185
 21
6.30525
  0
LINE
  8
0
 10
31.2185
 20
6.30525
 11
31.1758
 21
6.20261
  0
LINE
  8
0
 10
31.1758
 20
6.20261
 11
31.1498
 21
6.0929
  0
LINE
  8
0
 10
31.1498
 20
6.0929
 11
31.1406
 21
5.9761
  0
LINE
  8
0
 10
31.1406
 20
5.9761
 11
31.7737
 21
5.9761
  0
LINE
  8
0
 10
31.7737
 20
5.9761
 11
31.7818
 21
6.04366
  0
LINE
  8
0
 10
31.7818
 20
6.04366
 11
31.8042
 21
6.10414
  0
LINE
  8
0
 10
31.8042
 20
6.10414
 11
31.841
 21
6.15758
  0
LINE
  8
0
 10
31.841
 20
6.15758
 11
31.8922
 21
6.20395
  0
LINE
  8
0
 10
31.8922
 20
6.20395
 11
31.9539
 21
6.24142
  0
LINE
  8
0
 10
31.9539
 20
6.24142
 11
32.0223
 21
6.2682
  0
LINE
  8
0
 10
32.0223
 20
6.2682
 11
32.0973
 21
6.28429
  0
LINE
  8
0
 10
32.0973
 20
6.28429
 11
32.1789
 21
6.28963
  0
LINE
  8
0
 10
32.1789
 20
6.28963
 11
32.2555
 21
6.28423
  0
LINE
  8
0
 10
32.2555
 20
6.28423
 11
32.3246
 21
6.26799
  0
LINE
  8
0
 10
32.3246
 20
6.26799
 11
32.3862
 21
6.24094
  0
LINE
  8
0
 10
32.3862
 20
6.24094
 11
32.4404
 21
6.20305
  0
LINE
  8
0
 10
32.4404
 20
6.20305
 11
32.4845
 21
6.15651
  0
LINE
  8
0
 10
32.4845
 20
6.15651
 11
32.516
 21
6.10349
  0
LINE
  8
0
 10
32.516
 20
6.10349
 11
32.5349
 21
6.04396
  0
LINE
  8
0
 10
32.5349
 20
6.04396
 11
32.5412
 21
5.97794
  0
LINE
  8
0
 10
32.5412
 20
5.97794
 11
32.5339
 21
5.90929
  0
LINE
  8
0
 10
32.5339
 20
5.90929
 11
32.5118
 21
5.84735
  0
LINE
  8
0
 10
32.5118
 20
5.84735
 11
32.475
 21
5.79216
  0
LINE
  8
0
 10
32.475
 20
5.79216
 11
32.4236
 21
5.74368
  0
LINE
  8
0
 10
32.4236
 20
5.74368
 11
32.3605
 21
5.70419
  0
LINE
  8
0
 10
32.3605
 20
5.70419
 11
32.2891
 21
5.67599
  0
LINE
  8
0
 10
32.2891
 20
5.67599
 11
32.2093
 21
5.65909
  0
LINE
  8
0
 10
32.2093
 20
5.65909
 11
32.121
 21
5.65344
  0
LINE
  8
0
 10
32.121
 20
5.65344
 11
31.8502
 21
5.65344
  0
LINE
  8
0
 10
31.8502
 20
5.65344
 11
31.8502
 21
5.19406
  0
LINE
  8
0
 10
31.8502
 20
5.19406
 11
32.121
 21
5.19406
  0
LINE
  8
0
 10
32.121
 20
5.19406
 11
32.2221
 21
5.18825
  0
LINE
  8
0
 10
32.2221
 20
5.18825
 11
32.3125
 21
5.17082
  0
LINE
  8
0
 10
32.3125
 20
5.17082
 11
32.3921
 21
5.14177
  0
LINE
  8
0
 10
32.3921
 20
5.14177
 11
32.4609
 21
5.10109
  0
LINE
  8
0
 10
32.4609
 20
5.10109
 11
32.5165
 21
5.05119
  0
LINE
  8
0
 10
32.5165
 20
5.05119
 11
32.5562
 21
4.99446
  0
LINE
  8
0
 10
32.5562
 20
4.99446
 11
32.58
 21
4.93089
  0
LINE
  8
0
 10
32.58
 20
4.93089
 11
32.5879
 21
4.86049
  0
LINE
  8
0
 10
32.5879
 20
4.86049
 11
32.5808
 21
4.79019
  0
LINE
  8
0
 10
32.5808
 20
4.79019
 11
32.5592
 21
4.72696
  0
LINE
  8
0
 10
32.5592
 20
4.72696
 11
32.5233
 21
4.67079
  0
LINE
  8
0
 10
32.5233
 20
4.67079
 11
32.4731
 21
4.62167
  0
LINE
  8
0
 10
32.4731
 20
4.62167
 11
32.4115
 21
4.5818
  0
LINE
  8
0
 10
32.4115
 20
4.5818
 11
32.3416
 21
4.55331
  0
LINE
  8
0
 10
32.3416
 20
4.55331
 11
32.2635
 21
4.53622
  0
LINE
  8
0
 10
32.2635
 20
4.53622
 11
32.1771
 21
4.53053
  0
LINE
  8
0
 10
32.1771
 20
4.53053
 11
32.0894
 21
4.53577
  0
LINE
  8
0
 10
32.0894
 20
4.53577
 11
32.0094
 21
4.55148
  0
LINE
  8
0
 10
32.0094
 20
4.55148
 11
31.9372
 21
4.5777
  0
LINE
  8
0
 10
31.9372
 20
4.5777
 11
31.8727
 21
4.61436
  0
LINE
  8
0
 10
31.8727
 20
4.61436
 11
31.8193
 21
4.65961
  0
LINE
  8
0
 10
31.8193
 20
4.65961
 11
31.7807
 21
4.71144
  0
LINE
  8
0
 10
31.7807
 20
4.71144
 11
31.7567
 21
4.7699
  0
LINE
  8
0
 10
31.7567
 20
4.7699
 11
31.7475
 21
4.83495
  0
LINE
  8
0
 10
31.7475
 20
4.83495
 11
31.0864
 21
4.83495
  0
LINE
  8
0
 10
31.0864
 20
4.83495
 11
31.096
 21
4.7164
  0
LINE
  8
0
 10
31.096
 20
4.7164
 11
31.1228
 21
4.60504
  0
LINE
  8
0
 10
31.1228
 20
4.60504
 11
31.1669
 21
4.50084
  0
LINE
  8
0
 10
31.1669
 20
4.50084
 11
31.2283
 21
4.40382
  0
LINE
  8
0
 10
31.2283
 20
4.40382
 11
31.3048
 21
4.31548
  0
LINE
  8
0
 10
31.3048
 20
4.31548
 11
31.3943
 21
4.23726
  0
LINE
  8
0
 10
31.3943
 20
4.23726
 11
31.4967
 21
4.16919
  0
LINE
  8
0
 10
31.4967
 20
4.16919
 11
31.6121
 21
4.11125
  0
LINE
  8
0
 10
31.6121
 20
4.11125
 11
31.7385
 21
4.065
  0
LINE
  8
0
 10
31.7385
 20
4.065
 11
31.8738
 21
4.03197
  0
LINE
  8
0
 10
31.8738
 20
4.03197
 11
32.0181
 21
4.01215
  0
LINE
  8
0
 10
32.0181
 20
4.01215
 11
32.1715
 21
4.00554
  0
LINE
  8
0
 10
32.1715
 20
4.00554
 11
32.3293
 21
4.01204
  0
LINE
  8
0
 10
10.4778
 20
5.21228
 11
10.4775
 21
5.26715
  0
LINE
  8
0
 10
10.4775
 20
5.26715
 11
10.4766
 21
5.32964
  0
LINE
  8
0
 10
10.4766
 20
5.32964
 11
10.4751
 21
5.39977
  0
LINE
  8
0
 10
10.4751
 20
5.39977
 11
10.4731
 21
5.47751
  0
LINE
  8
0
 10
10.4731
 20
5.47751
 11
10.4655
 21
5.73712
  0
LINE
  8
0
 10
10.4655
 20
5.73712
 11
10.4628
 21
5.83026
  0
LINE
  8
0
 10
10.4628
 20
5.83026
 11
10.4601
 21
5.92436
  0
LINE
  8
0
 10
10.4601
 20
5.92436
 11
10.4577
 21
6.01711
  0
LINE
  8
0
 10
10.4577
 20
6.01711
 11
10.4554
 21
6.10847
  0
LINE
  8
0
 10
10.4554
 20
6.10847
 11
10.4535
 21
6.19849
  0
LINE
  8
0
 10
10.4535
 20
6.19849
 11
10.4771
 21
6.10297
  0
LINE
  8
0
 10
10.4771
 20
6.10297
 11
10.5013
 21
6.00778
  0
LINE
  8
0
 10
10.5013
 20
6.00778
 11
10.5261
 21
5.91293
  0
LINE
  8
0
 10
10.5261
 20
5.91293
 11
10.5515
 21
5.81844
  0
LINE
  8
0
 10
10.5515
 20
5.81844
 11
10.5769
 21
5.72597
  0
LINE
  8
0
 10
10.5769
 20
5.72597
 11
10.6017
 21
5.63727
  0
LINE
  8
0
 10
10.6017
 20
5.63727
 11
10.6259
 21
5.55234
  0
LINE
  8
0
 10
10.6259
 20
5.55234
 11
10.6496
 21
5.47115
  0
LINE
  8
0
 10
10.6496
 20
5.47115
 11
10.672
 21
5.39549
  0
LINE
  8
0
 10
10.672
 20
5.39549
 11
10.6925
 21
5.32713
  0
LINE
  8
0
 10
10.6925
 20
5.32713
 11
10.7112
 21
5.26607
  0
LINE
  8
0
 10
10.7112
 20
5.26607
 11
10.728
 21
5.21228
  0
LINE
  8
0
 10
10.728
 20
5.21228
 11
11.1295
 21
4.04199
  0
LINE
  8
0
 10
11.1295
 20
4.04199
 11
11.6805
 21
4.04199
  0
LINE
  8
0
 10
11.6805
 20
4.04199
 11
12.0764
 21
5.21228
  0
LINE
  8
0
 10
12.0764
 20
5.21228
 11
12.094
 21
5.26807
  0
LINE
  8
0
 10
12.094
 20
5.26807
 11
12.1133
 21
5.33147
  0
LINE
  8
0
 10
12.1133
 20
5.33147
 11
12.1342
 21
5.4025
  0
LINE
  8
0
 10
12.1342
 20
5.4025
 11
12.1567
 21
5.48117
  0
LINE
  8
0
 10
12.1567
 20
5.48117
 11
12.1803
 21
5.56554
  0
LINE
  8
0
 10
12.1803
 20
5.56554
 11
12.2046
 21
5.65367
  0
LINE
  8
0
 10
12.2046
 20
5.65367
 11
12.2294
 21
5.74556
  0
LINE
  8
0
 10
12.2294
 20
5.74556
 11
12.2548
 21
5.8412
  0
LINE
  8
0
 10
12.2548
 20
5.8412
 11
12.2801
 21
5.93861
  0
LINE
  8
0
 10
12.2801
 20
5.93861
 11
12.3049
 21
6.0358
  0
LINE
  8
0
 10
12.3049
 20
6.0358
 11
12.3292
 21
6.13275
  0
LINE
  8
0
 10
12.3292
 20
6.13275
 11
12.3528
 21
6.22948
  0
LINE
  8
0
 10
12.3528
 20
6.22948
 11
12.3508
 21
6.13742
  0
LINE
  8
0
 10
12.3508
 20
6.13742
 11
12.3486
 21
6.04355
  0
LINE
  8
0
 10
12.3486
 20
6.04355
 11
12.3461
 21
5.94785
  0
LINE
  8
0
 10
12.3461
 20
5.94785
 11
12.3435
 21
5.85031
  0
LINE
  8
0
 10
12.3435
 20
5.85031
 11
12.3381
 21
5.66051
  0
LINE
  8
0
 10
12.3381
 20
5.66051
 11
12.3332
 21
5.48482
  0
LINE
  8
0
 10
12.3332
 20
5.48482
 11
12.3311
 21
5.40456
  0
LINE
  8
0
 10
12.3311
 20
5.40456
 11
12.3297
 21
5.33238
  0
LINE
  8
0
 10
12.3297
 20
5.33238
 11
12.3288
 21
5.2683
  0
LINE
  8
0
 10
12.3288
 20
5.2683
 11
12.3285
 21
5.21228
  0
LINE
  8
0
 10
12.3285
 20
5.21228
 11
12.3285
 21
4.04199
  0
LINE
  8
0
 10
12.3285
 20
4.04199
 11
12.9915
 21
4.04199
  0
LINE
  8
0
 10
12.9915
 20
4.04199
 11
12.9915
 21
6.75812
  0
LINE
  8
0
 10
12.9915
 20
6.75812
 11
11.9625
 21
6.75812
  0
LINE
  8
0
 10
11.9625
 20
6.75812
 11
11.6133
 21
5.70084
  0
LINE
  8
0
 10
11.6133
 20
5.70084
 11
11.5987
 21
5.65076
  0
LINE
  8
0
 10
11.5987
 20
5.65076
 11
11.5831
 21
5.59352
  0
LINE
  8
0
 10
11.5831
 20
5.59352
 11
11.5665
 21
5.52908
  0
LINE
  8
0
 10
11.5665
 20
5.52908
 11
11.5488
 21
5.45749
  0
LINE
  8
0
 10
11.5488
 20
5.45749
 11
11.5306
 21
5.38092
  0
LINE
  8
0
 10
11.5306
 20
5.38092
 11
11.5124
 21
5.30162
  0
LINE
  8
0
 10
11.5124
 20
5.30162
 11
11.4942
 21
5.21959
  0
LINE
  8
0
 10
11.4942
 20
5.21959
 11
11.476
 21
5.13483
  0
LINE
  8
0
 10
11.476
 20
5.13483
 11
11.4581
 21
5.04932
  0
LINE
  8
0
 10
11.4581
 20
5.04932
 11
11.4407
 21
4.96507
  0
LINE
  8
0
 10
11.4407
 20
4.96507
 11
11.424
 21
4.88208
  0
LINE
  8
0
 10
11.424
 20
4.88208
 11
11.4078
 21
4.80032
  0
LINE
  8
0
 10
11.4078
 20
4.80032
 11
11.3908
 21
4.88213
  0
LINE
  8
0
 10
11.3908
 20
4.88213
 11
11.3732
 21
4.9653
  0
LINE
  8
0
 10
11.3732
 20
4.9653
 11
11.3553
 21
5.04984
  0
LINE
  8
0
 10
11.3553
 20
5.04984
 11
11.3368
 21
5.13573
  0
LINE
  8
0
 10
11.3368
 20
5.13573
 11
11.3182
 21
5.22084
  0
LINE
  8
0
 10
11.3182
 20
5.22084
 11
11.2997
 21
5.30299
  0
LINE
  8
0
 10
11.2997
 20
5.30299
 11
11.2813
 21
5.38217
  0
LINE
  8
0
 10
11.2813
 20
5.38217
 11
11.2631
 21
5.4584
  0
LINE
  8
0
 10
11.2631
 20
5.4584
 11
11.2454
 21
5.5296
  0
LINE
  8
0
 10
11.2454
 20
5.5296
 11
11.2287
 21
5.59375
  0
LINE
  8
0
 10
11.2287
 20
5.59375
 11
11.2132
 21
5.65082
  0
LINE
  8
0
 10
11.2132
 20
5.65082
 11
11.1986
 21
5.70084
  0
LINE
  8
0
 10
11.1986
 20
5.70084
 11
10.8438
 21
6.75812
  0
LINE
  8
0
 10
10.8438
 20
6.75812
 11
9.81664
 21
6.75812
  0
LINE
  8
0
 10
9.81664
 20
6.75812
 11
9.81664
 21
4.04199
  0
LINE
  8
0
 10
9.81664
 20
4.04199
 11
10.4778
 21
4.04199
  0
LINE
  8
0
 10
10.4778
 20
4.04199
 11
10.4778
 21
5.21228
  0
LINE
  8
0
 10
14.0013
 20
5.21228
 11
14.001
 21
5.26715
  0
LINE
  8
0
 10
14.001
 20
5.26715
 11
14.0002
 21
5.32964
  0
LINE
  8
0
 10
14.0002
 20
5.32964
 11
13.9987
 21
5.39977
  0
LINE
  8
0
 10
13.9987
 20
5.39977
 11
13.9966
 21
5.47751
  0
LINE
  8
0
 10
13.9966
 20
5.47751
 11
13.9918
 21
5.64728
  0
LINE
  8
0
 10
13.9918
 20
5.64728
 11
13.9864
 21
5.83026
  0
LINE
  8
0
 10
13.9864
 20
5.83026
 11
13.9837
 21
5.92436
  0
LINE
  8
0
 10
13.9837
 20
5.92436
 11
13.9812
 21
6.01711
  0
LINE
  8
0
 10
13.9812
 20
6.01711
 11
13.979
 21
6.10847
  0
LINE
  8
0
 10
13.979
 20
6.10847
 11
13.977
 21
6.19849
  0
LINE
  8
0
 10
13.977
 20
6.19849
 11
14.0007
 21
6.10297
  0
LINE
  8
0
 10
14.0007
 20
6.10297
 11
14.0249
 21
6.00778
  0
LINE
  8
0
 10
14.0249
 20
6.00778
 11
14.0497
 21
5.91293
  0
LINE
  8
0
 10
14.0497
 20
5.91293
 11
14.0751
 21
5.81844
  0
LINE
  8
0
 10
14.0751
 20
5.81844
 11
14.1005
 21
5.72597
  0
LINE
  8
0
 10
14.1005
 20
5.72597
 11
14.1253
 21
5.63727
  0
LINE
  8
0
 10
14.1253
 20
5.63727
 11
14.1495
 21
5.55234
  0
LINE
  8
0
 10
14.1495
 20
5.55234
 11
14.1731
 21
5.47115
  0
LINE
  8
0
 10
14.1731
 20
5.47115
 11
14.1956
 21
5.39549
  0
LINE
  8
0
 10
14.1956
 20
5.39549
 11
14.2161
 21
5.32713
  0
LINE
  8
0
 10
14.2161
 20
5.32713
 11
14.2348
 21
5.26607
  0
LINE
  8
0
 10
14.2348
 20
5.26607
 11
14.2516
 21
5.21228
  0
LINE
  8
0
 10
14.2516
 20
5.21228
 11
14.6531
 21
4.04199
  0
LINE
  8
0
 10
14.6531
 20
4.04199
 11
15.204
 21
4.04199
  0
LINE
  8
0
 10
15.204
 20
4.04199
 11
15.6
 21
5.21228
  0
LINE
  8
0
 10
15.6
 20
5.21228
 11
15.6176
 21
5.26807
  0
LINE
  8
0
 10
15.6176
 20
5.26807
 11
15.6369
 21
5.33147
  0
LINE
  8
0
 10
15.6369
 20
5.33147
 11
15.6577
 21
5.4025
  0
LINE
  8
0
 10
15.6577
 20
5.4025
 11
15.6803
 21
5.48117
  0
LINE
  8
0
 10
15.6803
 20
5.48117
 11
15.7039
 21
5.56554
  0
LINE
  8
0
 10
15.7039
 20
5.56554
 11
15.7281
 21
5.65367
  0
LINE
  8
0
 10
15.7281
 20
5.65367
 11
15.7529
 21
5.74556
  0
LINE
  8
0
 10
15.7529
 20
5.74556
 11
15.7783
 21
5.8412
  0
LINE
  8
0
 10
15.7783
 20
5.8412
 11
15.8037
 21
5.93861
  0
LINE
  8
0
 10
15.8037
 20
5.93861
 11
15.8285
 21
6.0358
  0
LINE
  8
0
 10
15.8285
 20
6.0358
 11
15.8527
 21
6.13275
  0
LINE
  8
0
 10
15.8527
 20
6.13275
 11
15.8764
 21
6.22948
  0
LINE
  8
0
 10
15.8764
 20
6.22948
 11
15.8744
 21
6.13742
  0
LINE
  8
0
 10
15.8744
 20
6.13742
 11
15.8722
 21
6.04355
  0
LINE
  8
0
 10
15.8722
 20
6.04355
 11
15.8697
 21
5.94785
  0
LINE
  8
0
 10
15.8697
 20
5.94785
 11
15.867
 21
5.85031
  0
LINE
  8
0
 10
15.867
 20
5.85031
 11
15.8617
 21
5.66051
  0
LINE
  8
0
 10
15.8617
 20
5.66051
 11
15.8568
 21
5.48482
  0
LINE
  8
0
 10
15.8568
 20
5.48482
 11
15.8547
 21
5.40456
  0
LINE
  8
0
 10
15.8547
 20
5.40456
 11
15.8533
 21
5.33238
  0
LINE
  8
0
 10
15.8533
 20
5.33238
 11
15.8524
 21
5.2683
  0
LINE
  8
0
 10
15.8524
 20
5.2683
 11
15.8521
 21
5.21228
  0
LINE
  8
0
 10
15.8521
 20
5.21228
 11
15.8521
 21
4.04199
  0
LINE
  8
0
 10
15.8521
 20
4.04199
 11
16.5151
 21
4.04199
  0
LINE
  8
0
 10
16.5151
 20
4.04199
 11
16.5151
 21
6.75812
  0
LINE
  8
0
 10
16.5151
 20
6.75812
 11
15.486
 21
6.75812
  0
LINE
  8
0
 10
15.486
 20
6.75812
 11
15.1368
 21
5.70084
  0
LINE
  8
0
 10
15.1368
 20
5.70084
 11
15.1223
 21
5.65076
  0
LINE
  8
0
 10
15.1223
 20
5.65076
 11
15.1067
 21
5.59352
  0
LINE
  8
0
 10
15.1067
 20
5.59352
 11
15.0901
 21
5.52908
  0
LINE
  8
0
 10
15.0901
 20
5.52908
 11
15.0724
 21
5.45749
  0
LINE
  8
0
 10
15.0724
 20
5.45749
 11
15.0542
 21
5.38092
  0
LINE
  8
0
 10
15.0542
 20
5.38092
 11
15.036
 21
5.30162
  0
LINE
  8
0
 10
15.036
 20
5.30162
 11
15.0178
 21
5.21959
  0
LINE
  8
0
 10
15.0178
 20
5.21959
 11
14.9995
 21
5.13483
  0
LINE
  8
0
 10
14.9995
 20
5.13483
 11
14.9816
 21
5.04932
  0
LINE
  8
0
 10
14.9816
 20
5.04932
 11
14.9643
 21
4.96507
  0
LINE
  8
0
 10
14.9643
 20
4.96507
 11
14.9476
 21
4.88208
  0
LINE
  8
0
 10
14.9476
 20
4.88208
 11
14.9314
 21
4.80032
  0
LINE
  8
0
 10
14.9314
 20
4.80032
 11
14.9143
 21
4.88213
  0
LINE
  8
0
 10
14.9143
 20
4.88213
 11
14.8968
 21
4.9653
  0
LINE
  8
0
 10
14.8968
 20
4.9653
 11
14.8788
 21
5.04984
  0
LINE
  8
0
 10
14.8788
 20
5.04984
 11
14.8604
 21
5.13573
  0
LINE
  8
0
 10
14.8604
 20
5.13573
 11
14.8418
 21
5.22084
  0
LINE
  8
0
 10
14.8418
 20
5.22084
 11
14.8233
 21
5.30299
  0
LINE
  8
0
 10
14.8233
 20
5.30299
 11
14.8049
 21
5.38217
  0
LINE
  8
0
 10
14.8049
 20
5.38217
 11
14.7867
 21
5.4584
  0
LINE
  8
0
 10
14.7867
 20
5.4584
 11
14.769
 21
5.5296
  0
LINE
  8
0
 10
14.769
 20
5.5296
 11
14.7523
 21
5.59375
  0
LINE
  8
0
 10
14.7523
 20
5.59375
 11
14.7367
 21
5.65082
  0
LINE
  8
0
 10
14.7367
 20
5.65082
 11
14.7222
 21
5.70084
  0
LINE
  8
0
 10
14.7222
 20
5.70084
 11
14.3674
 21
6.75812
  0
LINE
  8
0
 10
14.3674
 20
6.75812
 11
13.3402
 21
6.75812
  0
LINE
  8
0
 10
13.3402
 20
6.75812
 11
13.3402
 21
4.04199
  0
LINE
  8
0
 10
13.3402
 20
4.04199
 11
14.0013
 21
4.04199
  0
LINE
  8
0
 10
14.0013
 20
4.04199
 11
14.0013
 21
5.21228
  0
LINE
  8
0
 10
22.1701
 20
4.97714
 11
22.5287
 21
4.97714
  0
LINE
  8
0
 10
22.5287
 20
4.97714
 11
23.0385
 21
4.04199
  0
LINE
  8
0
 10
23.0385
 20
4.04199
 11
23.7612
 21
4.04199
  0
LINE
  8
0
 10
23.7612
 20
4.04199
 11
23.1804
 21
5.07924
  0
LINE
  8
0
 10
23.1804
 20
5.07924
 11
23.2896
 21
5.1362
  0
LINE
  8
0
 10
23.2896
 20
5.1362
 11
23.3856
 21
5.20502
  0
LINE
  8
0
 10
23.3856
 20
5.20502
 11
23.4684
 21
5.28568
  0
LINE
  8
0
 10
23.4684
 20
5.28568
 11
23.5381
 21
5.37819
  0
LINE
  8
0
 10
23.5381
 20
5.37819
 11
23.5932
 21
5.48187
  0
LINE
  8
0
 10
23.5932
 20
5.48187
 11
23.6326
 21
5.59602
  0
LINE
  8
0
 10
23.6326
 20
5.59602
 11
23.6563
 21
5.72067
  0
LINE
  8
0
 10
23.6563
 20
5.72067
 11
23.6641
 21
5.85579
  0
LINE
  8
0
 10
23.6641
 20
5.85579
 11
23.6472
 21
6.05284
  0
LINE
  8
0
 10
23.6472
 20
6.05284
 11
23.5962
 21
6.22835
  0
LINE
  8
0
 10
23.5962
 20
6.22835
 11
23.5113
 21
6.38231
  0
LINE
  8
0
 10
23.5113
 20
6.38231
 11
23.3924
 21
6.51476
  0
LINE
  8
0
 10
23.3924
 20
6.51476
 11
23.2441
 21
6.62123
  0
LINE
  8
0
 10
23.2441
 20
6.62123
 11
23.0709
 21
6.69728
  0
LINE
  8
0
 10
23.0709
 20
6.69728
 11
22.8729
 21
6.74292
  0
LINE
  8
0
 10
22.8729
 20
6.74292
 11
22.65
 21
6.75812
  0
LINE
  8
0
 10
22.65
 20
6.75812
 11
21.5108
 21
6.75812
  0
LINE
  8
0
 10
21.5108
 20
6.75812
 11
21.5108
 21
4.04199
  0
LINE
  8
0
 10
21.5108
 20
4.04199
 11
22.1701
 21
4.04199
  0
LINE
  8
0
 10
22.1701
 20
4.04199
 11
22.1701
 21
4.97714
  0
LINE
  8
0
 10
22.1701
 20
5.48573
 11
22.1701
 21
6.23679
  0
LINE
  8
0
 10
22.1701
 20
6.23679
 11
22.51
 21
6.23679
  0
LINE
  8
0
 10
22.51
 20
6.23679
 11
22.7159
 21
6.21298
  0
LINE
  8
0
 10
22.7159
 20
6.21298
 11
22.863
 21
6.14154
  0
LINE
  8
0
 10
22.863
 20
6.14154
 11
22.9512
 21
6.02248
  0
LINE
  8
0
 10
22.9512
 20
6.02248
 11
22.9806
 21
5.85579
  0
LINE
  8
0
 10
22.9806
 20
5.85579
 11
22.9513
 21
5.69389
  0
LINE
  8
0
 10
22.9513
 20
5.69389
 11
22.8634
 21
5.57825
  0
LINE
  8
0
 10
22.8634
 20
5.57825
 11
22.7169
 21
5.50887
  0
LINE
  8
0
 10
22.7169
 20
5.50887
 11
22.5119
 21
5.48573
  0
LINE
  8
0
 10
22.5119
 20
5.48573
 11
22.1701
 21
5.48573
  0
LINE
  8
0
 10
18.1898
 20
5.64433
 11
16.9068
 21
5.64433
  0
LINE
  8
0
 10
16.9068
 20
5.64433
 11
16.9068
 21
5.15396
  0
LINE
  8
0
 10
16.9068
 20
5.15396
 11
18.1898
 21
5.15396
  0
LINE
  8
0
 10
18.1898
 20
5.15396
 11
18.1898
 21
5.64433
  0
LINE
  8
0
 10
28.1204
 20
5.64433
 11
26.8374
 21
5.64433
  0
LINE
  8
0
 10
26.8374
 20
5.64433
 11
26.8374
 21
5.15396
  0
LINE
  8
0
 10
26.8374
 20
5.15396
 11
28.1204
 21
5.15396
  0
LINE
  8
0
 10
28.1204
 20
5.15396
 11
28.1204
 21
5.64433
  0
LINE
  8
0
 10
31.432
 20
0.80986
 11
31.4807
 21
0.811844
  0
LINE
  8
0
 10
31.4807
 20
0.811844
 11
31.5309
 21
0.81517
  0
LINE
  8
0
 10
31.5309
 20
0.81517
 11
31.5826
 21
0.819824
  0
LINE
  8
0
 10
31.5826
 20
0.819824
 11
31.6354
 21
0.826355
  0
LINE
  8
0
 10
31.6354
 20
0.826355
 11
31.6891
 21
0.835327
  0
LINE
  8
0
 10
31.6891
 20
0.835327
 11
31.7439
 21
0.846725
  0
LINE
  8
0
 10
31.7439
 20
0.846725
 11
31.7995
 21
0.860565
  0
LINE
  8
0
 10
31.7995
 20
0.860565
 11
31.7139
 21
1.31039
  0
LINE
  8
0
 10
31.7139
 20
1.31039
 11
31.6984
 21
1.30757
  0
LINE
  8
0
 10
31.6984
 20
1.30757
 11
31.6785
 21
1.30443
  0
LINE
  8
0
 10
31.6785
 20
1.30443
 11
31.6541
 21
1.30093
  0
LINE
  8
0
 10
31.6541
 20
1.30093
 11
31.6254
 21
1.2971
  0
LINE
  8
0
 10
31.6254
 20
1.2971
 11
31.5962
 21
1.29362
  0
LINE
  8
0
 10
31.5962
 20
1.29362
 11
31.5704
 21
1.29112
  0
LINE
  8
0
 10
31.5704
 20
1.29112
 11
31.5481
 21
1.28964
  0
LINE
  8
0
 10
31.5481
 20
1.28964
 11
31.5293
 21
1.28914
  0
LINE
  8
0
 10
31.5293
 20
1.28914
 11
31.4552
 21
1.29877
  0
LINE
  8
0
 10
31.4552
 20
1.29877
 11
31.4022
 21
1.32765
  0
LINE
  8
0
 10
31.4022
 20
1.32765
 11
31.3705
 21
1.37581
  0
LINE
  8
0
 10
31.3705
 20
1.37581
 11
31.3599
 21
1.44322
  0
LINE
  8
0
 10
31.3599
 20
1.44322
 11
31.3599
 21
2.35886
  0
LINE
  8
0
 10
31.3599
 20
2.35886
 11
31.7425
 21
2.35886
  0
LINE
  8
0
 10
31.7425
 20
2.35886
 11
31.7425
 21
2.81755
  0
LINE
  8
0
 10
31.7425
 20
2.81755
 11
31.3599
 21
2.81755
  0
LINE
  8
0
 10
31.3599
 20
2.81755
 11
31.3599
 21
3.28867
  0
LINE
  8
0
 10
31.3599
 20
3.28867
 11
30.6956
 21
3.28867
  0
LINE
  8
0
 10
30.6956
 20
3.28867
 11
30.6956
 21
2.81755
  0
LINE
  8
0
 10
30.6956
 20
2.81755
 11
30.0308
 21
2.81755
  0
LINE
  8
0
 10
30.0308
 20
2.81755
 11
30.0308
 21
2.92914
  0
LINE
  8
0
 10
30.0308
 20
2.92914
 11
30.0337
 21
2.97025
  0
LINE
  8
0
 10
30.0337
 20
2.97025
 11
30.0424
 21
3.00684
  0
LINE
  8
0
 10
30.0424
 20
3.00684
 11
30.057
 21
3.03888
  0
LINE
  8
0
 10
30.057
 20
3.03888
 11
30.0774
 21
3.06636
  0
LINE
  8
0
 10
30.0774
 20
3.06636
 11
30.1052
 21
3.08846
  0
LINE
  8
0
 10
30.1052
 20
3.08846
 11
30.1419
 21
3.10423
  0
LINE
  8
0
 10
30.1419
 20
3.10423
 11
30.1875
 21
3.11369
  0
LINE
  8
0
 10
30.1875
 20
3.11369
 11
30.2421
 21
3.11685
  0
LINE
  8
0
 10
30.2421
 20
3.11685
 11
30.2677
 21
3.11635
  0
LINE
  8
0
 10
30.2677
 20
3.11635
 11
30.2934
 21
3.11485
  0
LINE
  8
0
 10
30.2934
 20
3.11485
 11
30.3191
 21
3.11237
  0
LINE
  8
0
 10
30.3191
 20
3.11237
 11
30.3448
 21
3.10889
  0
LINE
  8
0
 10
30.3448
 20
3.10889
 11
30.3697
 21
3.10484
  0
LINE
  8
0
 10
30.3697
 20
3.10484
 11
30.3929
 21
3.10069
  0
LINE
  8
0
 10
30.3929
 20
3.10069
 11
30.4144
 21
3.09644
  0
LINE
  8
0
 10
30.4144
 20
3.09644
 11
30.4343
 21
3.09207
  0
LINE
  8
0
 10
30.4343
 20
3.09207
 11
30.5409
 21
3.54367
  0
LINE
  8
0
 10
30.5409
 20
3.54367
 11
30.5073
 21
3.55193
  0
LINE
  8
0
 10
30.5073
 20
3.55193
 11
30.4657
 21
3.56073
  0
LINE
  8
0
 10
30.4657
 20
3.56073
 11
30.416
 21
3.57007
  0
LINE
  8
0
 10
30.416
 20
3.57007
 11
30.3582
 21
3.57997
  0
LINE
  8
0
 10
30.3582
 20
3.57997
 11
30.2952
 21
3.58888
  0
LINE
  8
0
 10
30.2952
 20
3.58888
 11
30.2302
 21
3.59525
  0
LINE
  8
0
 10
30.2302
 20
3.59525
 11
30.1629
 21
3.59908
  0
LINE
  8
0
 10
30.1629
 20
3.59908
 11
30.0936
 21
3.60034
  0
LINE
  8
0
 10
30.0936
 20
3.60034
 11
29.9411
 21
3.58983
  0
LINE
  8
0
 10
29.9411
 20
3.58983
 11
29.8033
 21
3.55827
  0
LINE
  8
0
 10
29.8033
 20
3.55827
 11
29.6803
 21
3.50569
  0
LINE
  8
0
 10
29.6803
 20
3.50569
 11
29.5721
 21
3.43208
  0
LINE
  8
0
 10
29.5721
 20
3.43208
 11
29.4838
 21
3.33723
  0
LINE
  8
0
 10
29.4838
 20
3.33723
 11
29.4208
 21
3.2209
  0
LINE
  8
0
 10
29.4208
 20
3.2209
 11
29.383
 21
3.08308
  0
LINE
  8
0
 10
29.383
 20
3.08308
 11
29.3704
 21
2.92381
  0
LINE
  8
0
 10
29.3704
 20
2.92381
 11
29.3704
 21
2.81755
  0
LINE
  8
0
 10
29.3704
 20
2.81755
 11
29.0125
 21
2.81755
  0
LINE
  8
0
 10
29.0125
 20
2.81755
 11
29.0125
 21
2.35886
  0
LINE
  8
0
 10
29.0125
 20
2.35886
 11
29.3704
 21
2.35886
  0
LINE
  8
0
 10
29.3704
 20
2.35886
 11
29.3704
 21
0.837524
  0
LINE
  8
0
 10
29.3704
 20
0.837524
 11
30.0308
 21
0.837524
  0
LINE
  8
0
 10
30.0308
 20
0.837524
 11
30.0308
 21
2.35886
  0
LINE
  8
0
 10
30.0308
 20
2.35886
 11
30.6956
 21
2.35886
  0
LINE
  8
0
 10
30.6956
 20
2.35886
 11
30.6956
 21
1.38832
  0
LINE
  8
0
 10
30.6956
 20
1.38832
 11
30.7066
 21
1.25511
  0
LINE
  8
0
 10
30.7066
 20
1.25511
 11
30.7394
 21
1.13882
  0
LINE
  8
0
 10
30.7394
 20
1.13882
 11
30.7941
 21
1.03947
  0
LINE
  8
0
 10
30.7941
 20
1.03947
 11
30.8707
 21
0.957062
  0
LINE
  8
0
 10
30.8707
 20
0.957062
 11
30.9685
 21
0.892365
  0
LINE
  8
0
 10
30.9685
 20
0.892365
 11
31.0868
 21
0.846161
  0
LINE
  8
0
 10
31.0868
 20
0.846161
 11
31.2255
 21
0.818436
  0
LINE
  8
0
 10
31.2255
 20
0.818436
 11
31.3846
 21
0.809204
  0
LINE
  8
0
 10
31.3846
 20
0.809204
 11
31.432
 21
0.80986
  0
LINE
  8
0
 10
13.5562
 20
0.824417
 11
13.7916
 21
0.891327
  0
LINE
  8
0
 10
13.7916
 20
0.891327
 11
13.9954
 21
1.00285
  0
LINE
  8
0
 10
13.9954
 20
1.00285
 11
14.1677
 21
1.15898
  0
LINE
  8
0
 10
14.1677
 20
1.15898
 11
14.3047
 21
1.35507
  0
LINE
  8
0
 10
14.3047
 20
1.35507
 11
14.4025
 21
1.58646
  0
LINE
  8
0
 10
14.4025
 20
1.58646
 11
14.4612
 21
1.85316
  0
LINE
  8
0
 10
14.4612
 20
1.85316
 11
14.4808
 21
2.1552
  0
LINE
  8
0
 10
14.4808
 20
2.1552
 11
14.472
 21
2.3609
  0
LINE
  8
0
 10
14.472
 20
2.3609
 11
14.4454
 21
2.55124
  0
LINE
  8
0
 10
14.4454
 20
2.55124
 11
14.401
 21
2.72618
  0
LINE
  8
0
 10
14.401
 20
2.72618
 11
14.339
 21
2.88573
  0
LINE
  8
0
 10
14.339
 20
2.88573
 11
14.2603
 21
3.02869
  0
LINE
  8
0
 10
14.2603
 20
3.02869
 11
14.166
 21
3.15382
  0
LINE
  8
0
 10
14.166
 20
3.15382
 11
14.0562
 21
3.26114
  0
LINE
  8
0
 10
14.0562
 20
3.26114
 11
13.9308
 21
3.35063
  0
LINE
  8
0
 10
13.9308
 20
3.35063
 11
13.7907
 21
3.42114
  0
LINE
  8
0
 10
13.7907
 20
3.42114
 11
13.6372
 21
3.47151
  0
LINE
  8
0
 10
13.6372
 20
3.47151
 11
13.47
 21
3.50174
  0
LINE
  8
0
 10
13.47
 20
3.50174
 11
13.2894
 21
3.51181
  0
LINE
  8
0
 10
13.2894
 20
3.51181
 11
13.024
 21
3.48946
  0
LINE
  8
0
 10
13.024
 20
3.48946
 11
12.7895
 21
3.42236
  0
LINE
  8
0
 10
12.7895
 20
3.42236
 11
12.5858
 21
3.31056
  0
LINE
  8
0
 10
12.5858
 20
3.31056
 11
12.4129
 21
3.15404
  0
LINE
  8
0
 10
12.4129
 20
3.15404
 11
12.2751
 21
2.95746
  0
LINE
  8
0
 10
12.2751
 20
2.95746
 11
12.1767
 21
2.72545
  0
LINE
  8
0
 10
12.1767
 20
2.72545
 11
12.1176
 21
2.45802
  0
LINE
  8
0
 10
12.1176
 20
2.45802
 11
12.0979
 21
2.1552
  0
LINE
  8
0
 10
12.0979
 20
2.1552
 11
12.1176
 21
1.85245
  0
LINE
  8
0
 10
12.1176
 20
1.85245
 11
12.1767
 21
1.58536
  0
LINE
  8
0
 10
12.1767
 20
1.58536
 11
12.2751
 21
1.3539
  0
LINE
  8
0
 10
12.2751
 20
1.3539
 11
12.4129
 21
1.1581
  0
LINE
  8
0
 10
12.4129
 20
1.1581
 11
12.5858
 21
1.00235
  0
LINE
  8
0
 10
12.5858
 20
1.00235
 11
12.7895
 21
0.891113
  0
LINE
  8
0
 10
12.7895
 20
0.891113
 11
13.024
 21
0.824371
  0
LINE
  8
0
 10
13.024
 20
0.824371
 11
13.2894
 21
0.802124
  0
LINE
  8
0
 10
13.2894
 20
0.802124
 11
13.5562
 21
0.824417
  0
LINE
  8
0
 10
13.1756
 20
1.32756
 11
13.076
 21
1.36841
  0
LINE
  8
0
 10
13.076
 20
1.36841
 11
12.9905
 21
1.43648
  0
LINE
  8
0
 10
12.9905
 20
1.43648
 11
12.9192
 21
1.53177
  0
LINE
  8
0
 10
12.9192
 20
1.53177
 11
12.863
 21
1.65244
  0
LINE
  8
0
 10
12.863
 20
1.65244
 11
12.8228
 21
1.79655
  0
LINE
  8
0
 10
12.8228
 20
1.79655
 11
12.7987
 21
1.96414
  0
LINE
  8
0
 10
12.7987
 20
1.96414
 11
12.7907
 21
2.1552
  0
LINE
  8
0
 10
12.7907
 20
2.1552
 11
12.7988
 21
2.34718
  0
LINE
  8
0
 10
12.7988
 20
2.34718
 11
12.8231
 21
2.51582
  0
LINE
  8
0
 10
12.8231
 20
2.51582
 11
12.8635
 21
2.6611
  0
LINE
  8
0
 10
12.8635
 20
2.6611
 11
12.9201
 21
2.78302
  0
LINE
  8
0
 10
12.9201
 20
2.78302
 11
12.9917
 21
2.87949
  0
LINE
  8
0
 10
12.9917
 20
2.87949
 11
13.0771
 21
2.94839
  0
LINE
  8
0
 10
13.0771
 20
2.94839
 11
13.1763
 21
2.98973
  0
LINE
  8
0
 10
13.1763
 20
2.98973
 11
13.2894
 21
3.00351
  0
LINE
  8
0
 10
13.2894
 20
3.00351
 11
13.4032
 21
2.98973
  0
LINE
  8
0
 10
13.4032
 20
2.98973
 11
13.503
 21
2.94839
  0
LINE
  8
0
 10
13.503
 20
2.94839
 11
13.5888
 21
2.87949
  0
LINE
  8
0
 10
13.5888
 20
2.87949
 11
13.6605
 21
2.78302
  0
LINE
  8
0
 10
13.6605
 20
2.78302
 11
13.7171
 21
2.6611
  0
LINE
  8
0
 10
13.7171
 20
2.6611
 11
13.7576
 21
2.51582
  0
LINE
  8
0
 10
13.7576
 20
2.51582
 11
13.7818
 21
2.34718
  0
LINE
  8
0
 10
13.7818
 20
2.34718
 11
13.7899
 21
2.1552
  0
LINE
  8
0
 10
13.7899
 20
2.1552
 11
13.7818
 21
1.96414
  0
LINE
  8
0
 10
13.7818
 20
1.96414
 11
13.7576
 21
1.79655
  0
LINE
  8
0
 10
13.7576
 20
1.79655
 11
13.7171
 21
1.65244
  0
LINE
  8
0
 10
13.7171
 20
1.65244
 11
13.6605
 21
1.53177
  0
LINE
  8
0
 10
13.6605
 20
1.53177
 11
13.5888
 21
1.43648
  0
LINE
  8
0
 10
13.5888
 20
1.43648
 11
13.503
 21
1.36841
  0
LINE
  8
0
 10
13.503
 20
1.36841
 11
13.4032
 21
1.32756
  0
LINE
  8
0
 10
13.4032
 20
1.32756
 11
13.2894
 21
1.31395
  0
LINE
  8
0
 10
13.2894
 20
1.31395
 11
13.1756
 21
1.32756
  0
LINE
  8
0
 10
19.9704
 20
0.824417
 11
20.2058
 21
0.891327
  0
LINE
  8
0
 10
20.2058
 20
0.891327
 11
20.4096
 21
1.00285
  0
LINE
  8
0
 10
20.4096
 20
1.00285
 11
20.5819
 21
1.15898
  0
LINE
  8
0
 10
20.5819
 20
1.15898
 11
20.7189
 21
1.35507
  0
LINE
  8
0
 10
20.7189
 20
1.35507
 11
20.8167
 21
1.58646
  0
LINE
  8
0
 10
20.8167
 20
1.58646
 11
20.8754
 21
1.85316
  0
LINE
  8
0
 10
20.8754
 20
1.85316
 11
20.895
 21
2.1552
  0
LINE
  8
0
 10
20.895
 20
2.1552
 11
20.8861
 21
2.3609
  0
LINE
  8
0
 10
20.8861
 20
2.3609
 11
20.8596
 21
2.55124
  0
LINE
  8
0
 10
20.8596
 20
2.55124
 11
20.8152
 21
2.72618
  0
LINE
  8
0
 10
20.8152
 20
2.72618
 11
20.7532
 21
2.88573
  0
LINE
  8
0
 10
20.7532
 20
2.88573
 11
20.6745
 21
3.02869
  0
LINE
  8
0
 10
20.6745
 20
3.02869
 11
20.5802
 21
3.15382
  0
LINE
  8
0
 10
20.5802
 20
3.15382
 11
20.4704
 21
3.26114
  0
LINE
  8
0
 10
20.4704
 20
3.26114
 11
20.3449
 21
3.35063
  0
LINE
  8
0
 10
20.3449
 20
3.35063
 11
20.2049
 21
3.42114
  0
LINE
  8
0
 10
20.2049
 20
3.42114
 11
20.0514
 21
3.47151
  0
LINE
  8
0
 10
20.0514
 20
3.47151
 11
19.8842
 21
3.50174
  0
LINE
  8
0
 10
19.8842
 20
3.50174
 11
19.7036
 21
3.51181
  0
LINE
  8
0
 10
19.7036
 20
3.51181
 11
19.4382
 21
3.48946
  0
LINE
  8
0
 10
19.4382
 20
3.48946
 11
19.2037
 21
3.42236
  0
LINE
  8
0
 10
19.2037
 20
3.42236
 11
19
 21
3.31056
  0
LINE
  8
0
 10
19
 20
3.31056
 11
18.8271
 21
3.15404
  0
LINE
  8
0
 10
18.8271
 20
3.15404
 11
18.6893
 21
2.95746
  0
LINE
  8
0
 10
18.6893
 20
2.95746
 11
18.5909
 21
2.72545
  0
LINE
  8
0
 10
18.5909
 20
2.72545
 11
18.5318
 21
2.45802
  0
LINE
  8
0
 10
18.5318
 20
2.45802
 11
18.5121
 21
2.1552
  0
LINE
  8
0
 10
18.5121
 20
2.1552
 11
18.5318
 21
1.85245
  0
LINE
  8
0
 10
18.5318
 20
1.85245
 11
18.5909
 21
1.58536
  0
LINE
  8
0
 10
18.5909
 20
1.58536
 11
18.6893
 21
1.3539
  0
LINE
  8
0
 10
18.6893
 20
1.3539
 11
18.8271
 21
1.1581
  0
LINE
  8
0
 10
18.8271
 20
1.1581
 11
19
 21
1.00235
  0
LINE
  8
0
 10
19
 20
1.00235
 11
19.2037
 21
0.891113
  0
LINE
  8
0
 10
19.2037
 20
0.891113
 11
19.4382
 21
0.824371
  0
LINE
  8
0
 10
19.4382
 20
0.824371
 11
19.7036
 21
0.802124
  0
LINE
  8
0
 10
19.7036
 20
0.802124
 11
19.9704
 21
0.824417
  0
LINE
  8
0
 10
19.5898
 20
1.32756
 11
19.4902
 21
1.36841
  0
LINE
  8
0
 10
19.4902
 20
1.36841
 11
19.4047
 21
1.43648
  0
LINE
  8
0
 10
19.4047
 20
1.43648
 11
19.3334
 21
1.53177
  0
LINE
  8
0
 10
19.3334
 20
1.53177
 11
19.2772
 21
1.65244
  0
LINE
  8
0
 10
19.2772
 20
1.65244
 11
19.237
 21
1.79655
  0
LINE
  8
0
 10
19.237
 20
1.79655
 11
19.2129
 21
1.96414
  0
LINE
  8
0
 10
19.2129
 20
1.96414
 11
19.2049
 21
2.1552
  0
LINE
  8
0
 10
19.2049
 20
2.1552
 11
19.213
 21
2.34718
  0
LINE
  8
0
 10
19.213
 20
2.34718
 11
19.2373
 21
2.51582
  0
LINE
  8
0
 10
19.2373
 20
2.51582
 11
19.2777
 21
2.6611
  0
LINE
  8
0
 10
19.2777
 20
2.6611
 11
19.3343
 21
2.78302
  0
LINE
  8
0
 10
19.3343
 20
2.78302
 11
19.4059
 21
2.87949
  0
LINE
  8
0
 10
19.4059
 20
2.87949
 11
19.4913
 21
2.94839
  0
LINE
  8
0
 10
19.4913
 20
2.94839
 11
19.5905
 21
2.98973
  0
LINE
  8
0
 10
19.5905
 20
2.98973
 11
19.7036
 21
3.00351
  0
LINE
  8
0
 10
19.7036
 20
3.00351
 11
19.8174
 21
2.98973
  0
LINE
  8
0
 10
19.8174
 20
2.98973
 11
19.9172
 21
2.94839
  0
LINE
  8
0
 10
19.9172
 20
2.94839
 11
20.003
 21
2.87949
  0
LINE
  8
0
 10
20.003
 20
2.87949
 11
20.0747
 21
2.78302
  0
LINE
  8
0
 10
20.0747
 20
2.78302
 11
20.1313
 21
2.6611
  0
LINE
  8
0
 10
20.1313
 20
2.6611
 11
20.1718
 21
2.51582
  0
LINE
  8
0
 10
20.1718
 20
2.51582
 11
20.196
 21
2.34718
  0
LINE
  8
0
 10
20.196
 20
2.34718
 11
20.2041
 21
2.1552
  0
LINE
  8
0
 10
20.2041
 20
2.1552
 11
20.196
 21
1.96414
  0
LINE
  8
0
 10
20.196
 20
1.96414
 11
20.1718
 21
1.79655
  0
LINE
  8
0
 10
20.1718
 20
1.79655
 11
20.1313
 21
1.65244
  0
LINE
  8
0
 10
20.1313
 20
1.65244
 11
20.0747
 21
1.53177
  0
LINE
  8
0
 10
20.0747
 20
1.53177
 11
20.003
 21
1.43648
  0
LINE
  8
0
 10
20.003
 20
1.43648
 11
19.9172
 21
1.36841
  0
LINE
  8
0
 10
19.9172
 20
1.36841
 11
19.8174
 21
1.32756
  0
LINE
  8
0
 10
19.8174
 20
1.32756
 11
19.7036
 21
1.31395
  0
LINE
  8
0
 10
19.7036
 20
1.31395
 11
19.5898
 21
1.32756
  0
LINE
  8
0
 10
23.8887
 20
0.815887
 11
23.9922
 21
0.835983
  0
LINE
  8
0
 10
23.9922
 20
0.835983
 11
24.0833
 21
0.869461
  0
LINE
  8
0
 10
24.0833
 20
0.869461
 11
24.1622
 21
0.916351
  0
LINE
  8
0
 10
24.1622
 20
0.916351
 11
24.2299
 21
0.971634
  0
LINE
  8
0
 10
24.2299
 20
0.971634
 11
24.2872
 21
1.03035
  0
LINE
  8
0
 10
24.2872
 20
1.03035
 11
24.3341
 21
1.09251
  0
LINE
  8
0
 10
24.3341
 20
1.09251
 11
24.3707
 21
1.1581
  0
LINE
  8
0
 10
24.3707
 20
1.1581
 11
24.3935
 21
1.1581
  0
LINE
  8
0
 10
24.3935
 20
1.1581
 11
24.3935
 21
0.837524
  0
LINE
  8
0
 10
24.3935
 20
0.837524
 11
25.0482
 21
0.837524
  0
LINE
  8
0
 10
25.0482
 20
0.837524
 11
25.0482
 21
3.47638
  0
LINE
  8
0
 10
25.0482
 20
3.47638
 11
24.3859
 21
3.47638
  0
LINE
  8
0
 10
24.3859
 20
3.47638
 11
24.3859
 21
2.47749
  0
LINE
  8
0
 10
24.3859
 20
2.47749
 11
24.3707
 21
2.47749
  0
LINE
  8
0
 10
24.3707
 20
2.47749
 11
24.3484
 21
2.5215
  0
LINE
  8
0
 10
24.3484
 20
2.5215
 11
24.3214
 21
2.56494
  0
LINE
  8
0
 10
24.3214
 20
2.56494
 11
24.2898
 21
2.60783
  0
LINE
  8
0
 10
24.2898
 20
2.60783
 11
24.2536
 21
2.65018
  0
LINE
  8
0
 10
24.2536
 20
2.65018
 11
24.2124
 21
2.69037
  0
LINE
  8
0
 10
24.2124
 20
2.69037
 11
24.1658
 21
2.72678
  0
LINE
  8
0
 10
24.1658
 20
2.72678
 11
24.1139
 21
2.75943
  0
LINE
  8
0
 10
24.1139
 20
2.75943
 11
24.0566
 21
2.78831
  0
LINE
  8
0
 10
24.0566
 20
2.78831
 11
23.9936
 21
2.81197
  0
LINE
  8
0
 10
23.9936
 20
2.81197
 11
23.9243
 21
2.82884
  0
LINE
  8
0
 10
23.9243
 20
2.82884
 11
23.8489
 21
2.83897
  0
LINE
  8
0
 10
23.8489
 20
2.83897
 11
23.7673
 21
2.84236
  0
LINE
  8
0
 10
23.7673
 20
2.84236
 11
23.6578
 21
2.83549
  0
LINE
  8
0
 10
23.6578
 20
2.83549
 11
23.552
 21
2.8149
  0
LINE
  8
0
 10
23.552
 20
2.8149
 11
23.4499
 21
2.78058
  0
LINE
  8
0
 10
23.4499
 20
2.78058
 11
23.3515
 21
2.73254
  0
LINE
  8
0
 10
23.3515
 20
2.73254
 11
23.2595
 21
2.67044
  0
LINE
  8
0
 10
23.2595
 20
2.67044
 11
23.1768
 21
2.59395
  0
LINE
  8
0
 10
23.1768
 20
2.59395
 11
23.1035
 21
2.50307
  0
LINE
  8
0
 10
23.1035
 20
2.50307
 11
23.0393
 21
2.3978
  0
LINE
  8
0
 10
23.0393
 20
2.3978
 11
22.9873
 21
2.27771
  0
LINE
  8
0
 10
22.9873
 20
2.27771
 11
22.9501
 21
2.14233
  0
LINE
  8
0
 10
22.9501
 20
2.14233
 11
22.9278
 21
1.9917
  0
LINE
  8
0
 10
22.9278
 20
1.9917
 11
22.9204
 21
1.82578
  0
LINE
  8
0
 10
22.9204
 20
1.82578
 11
22.9275
 21
1.66444
  0
LINE
  8
0
 10
22.9275
 20
1.66444
 11
22.9489
 21
1.51695
  0
LINE
  8
0
 10
22.9489
 20
1.51695
 11
22.9846
 21
1.38329
  0
LINE
  8
0
 10
22.9846
 20
1.38329
 11
23.0346
 21
1.26347
  0
LINE
  8
0
 10
23.0346
 20
1.26347
 11
23.0967
 21
1.15753
  0
LINE
  8
0
 10
23.0967
 20
1.15753
 11
23.1688
 21
1.06555
  0
LINE
  8
0
 10
23.1688
 20
1.06555
 11
23.2508
 21
0.987518
  0
LINE
  8
0
 10
23.2508
 20
0.987518
 11
23.3429
 21
0.923416
  0
LINE
  8
0
 10
23.3429
 20
0.923416
 11
23.4426
 21
0.873444
  0
LINE
  8
0
 10
23.4426
 20
0.873444
 11
23.5475
 21
0.837753
  0
LINE
  8
0
 10
23.5475
 20
0.837753
 11
23.6577
 21
0.81633
  0
LINE
  8
0
 10
23.6577
 20
0.81633
 11
23.7731
 21
0.809204
  0
LINE
  8
0
 10
23.7731
 20
0.809204
 11
23.8887
 21
0.815887
  0
LINE
  8
0
 10
23.9091
 20
1.30009
 11
23.8299
 21
1.32767
  0
LINE
  8
0
 10
23.8299
 20
1.32767
 11
23.762
 21
1.3736
  0
LINE
  8
0
 10
23.762
 20
1.3736
 11
23.7055
 21
1.43791
  0
LINE
  8
0
 10
23.7055
 20
1.43791
 11
23.6609
 21
1.51729
  0
LINE
  8
0
 10
23.6609
 20
1.51729
 11
23.6291
 21
1.60838
  0
LINE
  8
0
 10
23.6291
 20
1.60838
 11
23.61
 21
1.71121
  0
LINE
  8
0
 10
23.61
 20
1.71121
 11
23.6037
 21
1.82578
  0
LINE
  8
0
 10
23.6037
 20
1.82578
 11
23.61
 21
1.94029
  0
LINE
  8
0
 10
23.61
 20
1.94029
 11
23.6291
 21
2.04295
  0
LINE
  8
0
 10
23.6291
 20
2.04295
 11
23.6609
 21
2.13377
  0
LINE
  8
0
 10
23.6609
 20
2.13377
 11
23.7055
 21
2.21275
  0
LINE
  8
0
 10
23.7055
 20
2.21275
 11
23.762
 21
2.27667
  0
LINE
  8
0
 10
23.762
 20
2.27667
 11
23.8299
 21
2.32233
  0
LINE
  8
0
 10
23.8299
 20
2.32233
 11
23.9091
 21
2.34973
  0
LINE
  8
0
 10
23.9091
 20
2.34973
 11
23.9995
 21
2.35886
  0
LINE
  8
0
 10
23.9995
 20
2.35886
 11
24.0894
 21
2.3499
  0
LINE
  8
0
 10
24.0894
 20
2.3499
 11
24.1687
 21
2.323
  0
LINE
  8
0
 10
24.1687
 20
2.323
 11
24.2374
 21
2.27815
  0
LINE
  8
0
 10
24.2374
 20
2.27815
 11
24.2955
 21
2.21539
  0
LINE
  8
0
 10
24.2955
 20
2.21539
 11
24.3417
 21
2.13724
  0
LINE
  8
0
 10
24.3417
 20
2.13724
 11
24.3747
 21
2.04626
  0
LINE
  8
0
 10
24.3747
 20
2.04626
 11
24.3945
 21
1.94244
  0
LINE
  8
0
 10
24.3945
 20
1.94244
 11
24.4011
 21
1.82578
  0
LINE
  8
0
 10
24.4011
 20
1.82578
 11
24.3945
 21
1.71049
  0
LINE
  8
0
 10
24.3945
 20
1.71049
 11
24.3745
 21
1.60727
  0
LINE
  8
0
 10
24.3745
 20
1.60727
 11
24.3412
 21
1.51611
  0
LINE
  8
0
 10
24.3412
 20
1.51611
 11
24.2945
 21
1.43703
  0
LINE
  8
0
 10
24.2945
 20
1.43703
 11
24.2361
 21
1.37311
  0
LINE
  8
0
 10
24.2361
 20
1.37311
 11
24.1675
 21
1.32744
  0
LINE
  8
0
 10
24.1675
 20
1.32744
 11
24.0886
 21
1.30005
  0
LINE
  8
0
 10
24.0886
 20
1.30005
 11
23.9995
 21
1.29091
  0
LINE
  8
0
 10
23.9995
 20
1.29091
 11
23.9091
 21
1.30009
  0
LINE
  8
0
 10
16.9508
 20
3.47638
 11
16.2561
 21
3.47638
  0
LINE
  8
0
 10
16.2561
 20
3.47638
 11
15.6242
 21
3.07259
  0
LINE
  8
0
 10
15.6242
 20
3.07259
 11
15.6242
 21
2.52357
  0
LINE
  8
0
 10
15.6242
 20
2.52357
 11
16.2618
 21
2.93266
  0
LINE
  8
0
 10
16.2618
 20
2.93266
 11
16.2808
 21
2.93266
  0
LINE
  8
0
 10
16.2808
 20
2.93266
 11
16.2808
 21
0.837524
  0
LINE
  8
0
 10
16.2808
 20
0.837524
 11
16.9508
 21
0.837524
  0
LINE
  8
0
 10
16.9508
 20
0.837524
 11
16.9508
 21
3.47638
  0
LINE
  8
0
 10
34.3217
 20
3.47638
 11
33.627
 21
3.47638
  0
LINE
  8
0
 10
33.627
 20
3.47638
 11
32.9951
 21
3.07259
  0
LINE
  8
0
 10
32.9951
 20
3.07259
 11
32.9951
 21
2.52357
  0
LINE
  8
0
 10
32.9951
 20
2.52357
 11
33.6327
 21
2.93266
  0
LINE
  8
0
 10
33.6327
 20
2.93266
 11
33.6517
 21
2.93266
  0
LINE
  8
0
 10
33.6517
 20
2.93266
 11
33.6517
 21
0.837524
  0
LINE
  8
0
 10
33.6517
 20
0.837524
 11
34.3217
 21
0.837524
  0
LINE
  8
0
 10
34.3217
 20
0.837524
 11
34.3217
 21
3.47638
  0
LINE
  8
0
 10
6.59973
 20
0.800308
 11
6.67059
 21
0.801361
  0
LINE
  8
0
 10
6.67059
 20
0.801361
 11
6.74037
 21
0.803253
  0
LINE
  8
0
 10
6.74037
 20
0.803253
 11
6.80911
 21
0.806122
  0
LINE
  8
0
 10
6.80911
 20
0.806122
 11
6.87688
 21
0.810074
  0
LINE
  8
0
 10
6.87688
 20
0.810074
 11
6.94376
 21
0.815247
  0
LINE
  8
0
 10
6.94376
 20
0.815247
 11
7.00977
 21
0.821732
  0
LINE
  8
0
 10
7.00977
 20
0.821732
 11
7.075
 21
0.829681
  0
LINE
  8
0
 10
7.075
 20
0.829681
 11
7.13951
 21
0.839203
  0
LINE
  8
0
 10
7.13951
 20
0.839203
 11
7.20335
 21
0.850418
  0
LINE
  8
0
 10
7.20335
 20
0.850418
 11
7.26659
 21
0.863434
  0
LINE
  8
0
 10
7.26659
 20
0.863434
 11
7.32928
 21
0.878403
  0
LINE
  8
0
 10
7.32928
 20
0.878403
 11
7.39149
 21
0.895432
  0
LINE
  8
0
 10
7.39149
 20
0.895432
 11
7.45328
 21
0.914627
  0
LINE
  8
0
 10
7.45328
 20
0.914627
 11
7.51469
 21
0.936127
  0
LINE
  8
0
 10
7.51469
 20
0.936127
 11
7.57582
 21
0.960052
  0
LINE
  8
0
 10
7.57582
 20
0.960052
 11
7.63669
 21
0.986511
  0
LINE
  8
0
 10
7.63669
 20
0.986511
 11
7.69739
 21
1.01562
  0
LINE
  8
0
 10
7.69739
 20
1.01562
 11
7.75797
 21
1.04753
  0
LINE
  8
0
 10
7.75797
 20
1.04753
 11
7.81848
 21
1.08235
  0
LINE
  8
0
 10
7.81848
 20
1.08235
 11
4.51091
 21
2.97815
  0
LINE
  8
0
 10
4.51091
 20
2.97815
 11
1.52605
 21
1.12268
  0
LINE
  8
0
 10
1.52605
 20
1.12268
 11
1.56325
 21
1.09303
  0
LINE
  8
0
 10
1.56325
 20
1.09303
 11
1.60223
 21
1.06464
  0
LINE
  8
0
 10
1.60223
 20
1.06464
 11
1.64297
 21
1.03751
  0
LINE
  8
0
 10
1.64297
 20
1.03751
 11
1.68546
 21
1.01167
  0
LINE
  8
0
 10
1.68546
 20
1.01167
 11
1.72961
 21
0.987183
  0
LINE
  8
0
 10
1.72961
 20
0.987183
 11
1.77544
 21
0.964035
  0
LINE
  8
0
 10
1.77544
 20
0.964035
 11
1.82291
 21
0.942291
  0
LINE
  8
0
 10
1.82291
 20
0.942291
 11
1.87196
 21
0.921967
  0
LINE
  8
0
 10
1.87196
 20
0.921967
 11
1.92261
 21
0.903091
  0
LINE
  8
0
 10
1.92261
 20
0.903091
 11
1.97478
 21
0.885712
  0
LINE
  8
0
 10
1.97478
 20
0.885712
 11
2.02847
 21
0.869827
  0
LINE
  8
0
 10
2.02847
 20
0.869827
 11
2.08365
 21
0.855499
  0
LINE
  8
0
 10
2.08365
 20
0.855499
 11
2.14027
 21
0.842728
  0
LINE
  8
0
 10
2.14027
 20
0.842728
 11
2.19832
 21
0.831573
  0
LINE
  8
0
 10
2.19832
 20
0.831573
 11
2.25777
 21
0.822052
  0
LINE
  8
0
 10
2.25777
 20
0.822052
 11
2.31857
 21
0.814194
  0
LINE
  8
0
 10
2.31857
 20
0.814194
 11
2.38071
 21
0.808029
  0
LINE
  8
0
 10
2.38071
 20
0.808029
 11
2.44414
 21
0.803589
  0
LINE
  8
0
 10
2.44414
 20
0.803589
 11
2.50883
 21
0.800888
  0
LINE
  8
0
 10
2.50883
 20
0.800888
 11
2.57478
 21
0.799988
  0
LINE
  8
0
 10
2.57478
 20
0.799988
 11
6.52773
 21
0.799988
  0
LINE
  8
0
 10
6.52773
 20
0.799988
 11
6.59973
 21
0.800308
  0
LINE
  8
0
 10
27.7528
 20
0.821716
 11
27.9234
 21
0.880478
  0
LINE
  8
0
 10
27.9234
 20
0.880478
 11
28.0612
 21
0.978439
  0
LINE
  8
0
 10
28.0612
 20
0.978439
 11
28.1661
 21
1.11557
  0
LINE
  8
0
 10
28.1661
 20
1.11557
 11
28.1832
 21
1.11557
  0
LINE
  8
0
 10
28.1832
 20
1.11557
 11
28.1832
 21
0.837524
  0
LINE
  8
0
 10
28.1832
 20
0.837524
 11
28.8075
 21
0.837524
  0
LINE
  8
0
 10
28.8075
 20
0.837524
 11
28.8075
 21
2.18175
  0
LINE
  8
0
 10
28.8075
 20
2.18175
 11
28.7996
 21
2.28397
  0
LINE
  8
0
 10
28.7996
 20
2.28397
 11
28.7758
 21
2.37811
  0
LINE
  8
0
 10
28.7758
 20
2.37811
 11
28.7363
 21
2.46416
  0
LINE
  8
0
 10
28.7363
 20
2.46416
 11
28.6809
 21
2.54213
  0
LINE
  8
0
 10
28.6809
 20
2.54213
 11
28.6122
 21
2.6116
  0
LINE
  8
0
 10
28.6122
 20
2.6116
 11
28.5325
 21
2.67209
  0
LINE
  8
0
 10
28.5325
 20
2.67209
 11
28.4418
 21
2.72362
  0
LINE
  8
0
 10
28.4418
 20
2.72362
 11
28.3402
 21
2.76617
  0
LINE
  8
0
 10
28.3402
 20
2.76617
 11
28.23
 21
2.7995
  0
LINE
  8
0
 10
28.23
 20
2.7995
 11
28.1135
 21
2.8233
  0
LINE
  8
0
 10
28.1135
 20
2.8233
 11
27.9907
 21
2.8376
  0
LINE
  8
0
 10
27.9907
 20
2.8376
 11
27.8616
 21
2.84236
  0
LINE
  8
0
 10
27.8616
 20
2.84236
 11
27.6714
 21
2.83244
  0
LINE
  8
0
 10
27.6714
 20
2.83244
 11
27.5007
 21
2.80272
  0
LINE
  8
0
 10
27.5007
 20
2.80272
 11
27.3493
 21
2.75319
  0
LINE
  8
0
 10
27.3493
 20
2.75319
 11
27.2173
 21
2.68384
  0
LINE
  8
0
 10
27.2173
 20
2.68384
 11
27.1064
 21
2.59866
  0
LINE
  8
0
 10
27.1064
 20
2.59866
 11
27.0182
 21
2.50165
  0
LINE
  8
0
 10
27.0182
 20
2.50165
 11
26.9527
 21
2.39279
  0
LINE
  8
0
 10
26.9527
 20
2.39279
 11
26.9099
 21
2.27208
  0
LINE
  8
0
 10
26.9099
 20
2.27208
 11
27.5114
 21
2.19945
  0
LINE
  8
0
 10
27.5114
 20
2.19945
 11
27.5286
 21
2.24394
  0
LINE
  8
0
 10
27.5286
 20
2.24394
 11
27.5537
 21
2.28357
  0
LINE
  8
0
 10
27.5537
 20
2.28357
 11
27.5867
 21
2.31833
  0
LINE
  8
0
 10
27.5867
 20
2.31833
 11
27.6275
 21
2.34821
  0
LINE
  8
0
 10
27.6275
 20
2.34821
 11
27.6753
 21
2.37224
  0
LINE
  8
0
 10
27.6753
 20
2.37224
 11
27.7293
 21
2.38939
  0
LINE
  8
0
 10
27.7293
 20
2.38939
 11
27.7895
 21
2.39969
  0
LINE
  8
0
 10
27.7895
 20
2.39969
 11
27.8559
 21
2.40312
  0
LINE
  8
0
 10
27.8559
 20
2.40312
 11
27.9198
 21
2.39964
  0
LINE
  8
0
 10
27.9198
 20
2.39964
 11
27.9765
 21
2.38918
  0
LINE
  8
0
 10
27.9765
 20
2.38918
 11
28.0259
 21
2.37175
  0
LINE
  8
0
 10
28.0259
 20
2.37175
 11
28.068
 21
2.34735
  0
LINE
  8
0
 10
28.068
 20
2.34735
 11
28.1018
 21
2.31651
  0
LINE
  8
0
 10
28.1018
 20
2.31651
 11
28.1259
 21
2.27983
  0
LINE
  8
0
 10
28.1259
 20
2.27983
 11
28.1403
 21
2.23726
  0
LINE
  8
0
 10
28.1403
 20
2.23726
 11
28.1451
 21
2.18883
  0
LINE
  8
0
 10
28.1451
 20
2.18883
 11
28.1451
 21
2.18175
  0
LINE
  8
0
 10
28.1451
 20
2.18175
 11
28.1378
 21
2.13953
  0
LINE
  8
0
 10
28.1378
 20
2.13953
 11
28.1159
 21
2.10493
  0
LINE
  8
0
 10
28.1159
 20
2.10493
 11
28.0793
 21
2.07799
  0
LINE
  8
0
 10
28.0793
 20
2.07799
 11
28.0281
 21
2.05867
  0
LINE
  8
0
 10
28.0281
 20
2.05867
 11
27.96
 21
2.04378
  0
LINE
  8
0
 10
27.96
 20
2.04378
 11
27.8727
 21
2.03011
  0
LINE
  8
0
 10
27.8727
 20
2.03011
 11
27.7663
 21
2.01765
  0
LINE
  8
0
 10
27.7663
 20
2.01765
 11
27.6408
 21
2.00641
  0
LINE
  8
0
 10
27.6408
 20
2.00641
 11
27.5355
 21
1.9948
  0
LINE
  8
0
 10
27.5355
 20
1.9948
 11
27.4345
 21
1.97763
  0
LINE
  8
0
 10
27.4345
 20
1.97763
 11
27.338
 21
1.95494
  0
LINE
  8
0
 10
27.338
 20
1.95494
 11
27.2459
 21
1.92671
  0
LINE
  8
0
 10
27.2459
 20
1.92671
 11
27.1604
 21
1.89153
  0
LINE
  8
0
 10
27.1604
 20
1.89153
 11
27.0838
 21
1.84792
  0
LINE
  8
0
 10
27.0838
 20
1.84792
 11
27.0162
 21
1.79588
  0
LINE
  8
0
 10
27.0162
 20
1.79588
 11
26.9575
 21
1.73544
  0
LINE
  8
0
 10
26.9575
 20
1.73544
 11
26.91
 21
1.66516
  0
LINE
  8
0
 10
26.91
 20
1.66516
 11
26.8762
 21
1.58359
  0
LINE
  8
0
 10
26.8762
 20
1.58359
 11
26.8558
 21
1.49071
  0
LINE
  8
0
 10
26.8558
 20
1.49071
 11
26.849
 21
1.38655
  0
LINE
  8
0
 10
26.849
 20
1.38655
 11
26.8613
 21
1.24886
  0
LINE
  8
0
 10
26.8613
 20
1.24886
 11
26.8983
 21
1.12976
  0
LINE
  8
0
 10
26.8983
 20
1.12976
 11
26.9598
 21
1.02925
  0
LINE
  8
0
 10
26.9598
 20
1.02925
 11
27.046
 21
0.947342
  0
LINE
  8
0
 10
27.046
 20
0.947342
 11
27.1514
 21
0.883804
  0
LINE
  8
0
 10
27.1514
 20
0.883804
 11
27.2704
 21
0.838425
  0
LINE
  8
0
 10
27.2704
 20
0.838425
 11
27.4031
 21
0.811188
  0
LINE
  8
0
 10
27.4031
 20
0.811188
 11
27.5494
 21
0.802124
  0
LINE
  8
0
 10
27.5494
 20
0.802124
 11
27.7528
 21
0.821716
  0
LINE
  8
0
 10
27.6939
 20
1.21448
 11
27.642
 21
1.22427
  0
LINE
  8
0
 10
27.642
 20
1.22427
 11
27.5954
 21
1.2406
  0
LINE
  8
0
 10
27.5954
 20
1.2406
 11
27.5542
 21
1.26347
  0
LINE
  8
0
 10
27.5542
 20
1.26347
 11
27.5205
 21
1.29253
  0
LINE
  8
0
 10
27.5205
 20
1.29253
 11
27.4964
 21
1.32745
  0
LINE
  8
0
 10
27.4964
 20
1.32745
 11
27.4819
 21
1.36824
  0
LINE
  8
0
 10
27.4819
 20
1.36824
 11
27.4771
 21
1.41489
  0
LINE
  8
0
 10
27.4771
 20
1.41489
 11
27.4963
 21
1.502
  0
LINE
  8
0
 10
27.4963
 20
1.502
 11
27.5537
 21
1.5703
  0
LINE
  8
0
 10
27.5537
 20
1.5703
 11
27.6495
 21
1.61977
  0
LINE
  8
0
 10
27.6495
 20
1.61977
 11
27.7835
 21
1.65044
  0
LINE
  8
0
 10
27.7835
 20
1.65044
 11
27.8311
 21
1.65785
  0
LINE
  8
0
 10
27.8311
 20
1.65785
 11
27.8806
 21
1.66592
  0
LINE
  8
0
 10
27.8806
 20
1.66592
 11
27.932
 21
1.67467
  0
LINE
  8
0
 10
27.932
 20
1.67467
 11
27.9853
 21
1.68408
  0
LINE
  8
0
 10
27.9853
 20
1.68408
 11
28.0363
 21
1.69437
  0
LINE
  8
0
 10
28.0363
 20
1.69437
 11
28.0809
 21
1.70578
  0
LINE
  8
0
 10
28.0809
 20
1.70578
 11
28.1191
 21
1.71829
  0
LINE
  8
0
 10
28.1191
 20
1.71829
 11
28.1509
 21
1.73192
  0
LINE
  8
0
 10
28.1509
 20
1.73192
 11
28.1509
 21
1.5424
  0
LINE
  8
0
 10
28.1509
 20
1.5424
 11
28.1436
 21
1.47234
  0
LINE
  8
0
 10
28.1436
 20
1.47234
 11
28.1218
 21
1.40912
  0
LINE
  8
0
 10
28.1218
 20
1.40912
 11
28.0856
 21
1.35278
  0
LINE
  8
0
 10
28.0856
 20
1.35278
 11
28.0348
 21
1.3033
  0
LINE
  8
0
 10
28.0348
 20
1.3033
 11
27.9735
 21
1.263
  0
LINE
  8
0
 10
27.9735
 20
1.263
 11
27.9058
 21
1.23424
  0
LINE
  8
0
 10
27.9058
 20
1.23424
 11
27.8317
 21
1.21696
  0
LINE
  8
0
 10
27.8317
 20
1.21696
 11
27.7512
 21
1.21121
  0
LINE
  8
0
 10
27.7512
 20
1.21121
 11
27.6939
 21
1.21448
  0
LINE
  8
0
 10
26.0939
 20
1.91786
 11
26.1014
 21
2.00221
  0
LINE
  8
0
 10
26.1014
 20
2.00221
 11
26.1241
 21
2.07814
  0
LINE
  8
0
 10
26.1241
 20
2.07814
 11
26.1618
 21
2.14566
  0
LINE
  8
0
 10
26.1618
 20
2.14566
 11
26.2147
 21
2.20476
  0
LINE
  8
0
 10
26.2147
 20
2.20476
 11
26.2791
 21
2.25279
  0
LINE
  8
0
 10
26.2791
 20
2.25279
 11
26.3515
 21
2.28711
  0
LINE
  8
0
 10
26.3515
 20
2.28711
 11
26.4319
 21
2.30771
  0
LINE
  8
0
 10
26.4319
 20
2.30771
 11
26.5202
 21
2.31458
  0
LINE
  8
0
 10
26.5202
 20
2.31458
 11
26.5517
 21
2.31407
  0
LINE
  8
0
 10
26.5517
 20
2.31407
 11
26.5851
 21
2.31258
  0
LINE
  8
0
 10
26.5851
 20
2.31258
 11
26.6206
 21
2.31009
  0
LINE
  8
0
 10
26.6206
 20
2.31009
 11
26.6581
 21
2.30661
  0
LINE
  8
0
 10
26.6581
 20
2.30661
 11
26.6949
 21
2.30212
  0
LINE
  8
0
 10
26.6949
 20
2.30212
 11
26.7279
 21
2.29665
  0
LINE
  8
0
 10
26.7279
 20
2.29665
 11
26.7572
 21
2.29018
  0
LINE
  8
0
 10
26.7572
 20
2.29018
 11
26.7828
 21
2.28271
  0
LINE
  8
0
 10
26.7828
 20
2.28271
 11
26.7828
 21
2.82109
  0
LINE
  8
0
 10
26.7828
 20
2.82109
 11
26.7368
 21
2.8304
  0
LINE
  8
0
 10
26.7368
 20
2.8304
 11
26.6901
 21
2.83704
  0
LINE
  8
0
 10
26.6901
 20
2.83704
 11
26.6426
 21
2.84102
  0
LINE
  8
0
 10
26.6426
 20
2.84102
 11
26.5944
 21
2.84236
  0
LINE
  8
0
 10
26.5944
 20
2.84236
 11
26.5095
 21
2.83638
  0
LINE
  8
0
 10
26.5095
 20
2.83638
 11
26.43
 21
2.81845
  0
LINE
  8
0
 10
26.43
 20
2.81845
 11
26.3559
 21
2.78856
  0
LINE
  8
0
 10
26.3559
 20
2.78856
 11
26.287
 21
2.74672
  0
LINE
  8
0
 10
26.287
 20
2.74672
 11
26.2256
 21
2.6927
  0
LINE
  8
0
 10
26.2256
 20
2.6927
 11
26.1736
 21
2.6263
  0
LINE
  8
0
 10
26.1736
 20
2.6263
 11
26.1309
 21
2.54749
  0
LINE
  8
0
 10
26.1309
 20
2.54749
 11
26.0977
 21
2.45627
  0
LINE
  8
0
 10
26.0977
 20
2.45627
 11
26.0748
 21
2.45627
  0
LINE
  8
0
 10
26.0748
 20
2.45627
 11
26.0748
 21
2.81755
  0
LINE
  8
0
 10
26.0748
 20
2.81755
 11
25.4296
 21
2.81755
  0
LINE
  8
0
 10
25.4296
 20
2.81755
 11
25.4296
 21
0.837524
  0
LINE
  8
0
 10
25.4296
 20
0.837524
 11
26.0939
 21
0.837524
  0
LINE
  8
0
 10
26.0939
 20
0.837524
 11
26.0939
 21
1.91786
  0
LINE
  8
0
 10
11.9562
 20
2.81755
 11
11.2634
 21
2.81755
  0
LINE
  8
0
 10
11.2634
 20
2.81755
 11
10.9513
 21
1.84879
  0
LINE
  8
0
 10
10.9513
 20
1.84879
 11
10.93
 21
1.78143
  0
LINE
  8
0
 10
10.93
 20
1.78143
 11
10.9099
 21
1.71396
  0
LINE
  8
0
 10
10.9099
 20
1.71396
 11
10.891
 21
1.64639
  0
LINE
  8
0
 10
10.891
 20
1.64639
 11
10.8732
 21
1.5787
  0
LINE
  8
0
 10
10.8732
 20
1.5787
 11
10.8564
 21
1.51047
  0
LINE
  8
0
 10
10.8564
 20
1.51047
 11
10.84
 21
1.44122
  0
LINE
  8
0
 10
10.84
 20
1.44122
 11
10.824
 21
1.371
  0
LINE
  8
0
 10
10.824
 20
1.371
 11
10.8086
 21
1.29976
  0
LINE
  8
0
 10
10.8086
 20
1.29976
 11
10.7914
 21
1.37105
  0
LINE
  8
0
 10
10.7914
 20
1.37105
 11
10.774
 21
1.44145
  0
LINE
  8
0
 10
10.774
 20
1.44145
 11
10.7566
 21
1.51096
  0
LINE
  8
0
 10
10.7566
 20
1.51096
 11
10.7391
 21
1.57959
  0
LINE
  8
0
 10
10.7391
 20
1.57959
 11
10.7209
 21
1.64755
  0
LINE
  8
0
 10
10.7209
 20
1.64755
 11
10.7017
 21
1.71507
  0
LINE
  8
0
 10
10.7017
 20
1.71507
 11
10.6815
 21
1.78215
  0
LINE
  8
0
 10
10.6815
 20
1.78215
 11
10.6601
 21
1.84879
  0
LINE
  8
0
 10
10.6601
 20
1.84879
 11
10.3423
 21
2.81755
  0
LINE
  8
0
 10
10.3423
 20
2.81755
 11
9.64186
 21
2.81755
  0
LINE
  8
0
 10
9.64186
 20
2.81755
 11
10.4127
 21
0.837524
  0
LINE
  8
0
 10
10.4127
 20
0.837524
 11
11.1816
 21
0.837524
  0
LINE
  8
0
 10
11.1816
 20
0.837524
 11
11.9562
 21
2.81755
  0
LINE
  8
0
 10
22.5619
 20
2.14456
 11
21.2543
 21
2.14456
  0
LINE
  8
0
 10
21.2543
 20
2.14456
 11
21.2543
 21
1.66815
  0
LINE
  8
0
 10
21.2543
 20
1.66815
 11
22.5619
 21
1.66815
  0
LINE
  8
0
 10
22.5619
 20
1.66815
 11
22.5619
 21
2.14456
  0
LINE
  8
0
 10
17.8914
 20
0.806259
 11
17.9584
 21
0.824036
  0
LINE
  8
0
 10
17.9584
 20
0.824036
 11
18.0194
 21
0.853638
  0
LINE
  8
0
 10
18.0194
 20
0.853638
 11
18.0743
 21
0.895081
  0
LINE
  8
0
 10
18.0743
 20
0.895081
 11
18.1196
 21
0.945282
  0
LINE
  8
0
 10
18.1196
 20
0.945282
 11
18.1521
 21
1.00113
  0
LINE
  8
0
 10
18.1521
 20
1.00113
 11
18.1715
 21
1.06262
  0
LINE
  8
0
 10
18.1715
 20
1.06262
 11
18.178
 21
1.12976
  0
LINE
  8
0
 10
18.178
 20
1.12976
 11
18.1715
 21
1.19766
  0
LINE
  8
0
 10
18.1715
 20
1.19766
 11
18.1521
 21
1.2597
  0
LINE
  8
0
 10
18.1521
 20
1.2597
 11
18.1196
 21
1.31587
  0
LINE
  8
0
 10
18.1196
 20
1.31587
 11
18.0743
 21
1.36618
  0
LINE
  8
0
 10
18.0743
 20
1.36618
 11
18.0194
 21
1.40764
  0
LINE
  8
0
 10
18.0194
 20
1.40764
 11
17.9584
 21
1.43726
  0
LINE
  8
0
 10
17.9584
 20
1.43726
 11
17.8914
 21
1.45502
  0
LINE
  8
0
 10
17.8914
 20
1.45502
 11
17.8183
 21
1.46095
  0
LINE
  8
0
 10
17.8183
 20
1.46095
 11
17.7452
 21
1.45502
  0
LINE
  8
0
 10
17.7452
 20
1.45502
 11
17.6782
 21
1.43726
  0
LINE
  8
0
 10
17.6782
 20
1.43726
 11
17.6172
 21
1.40764
  0
LINE
  8
0
 10
17.6172
 20
1.40764
 11
17.5623
 21
1.36618
  0
LINE
  8
0
 10
17.5623
 20
1.36618
 11
17.5169
 21
1.31587
  0
LINE
  8
0
 10
17.5169
 20
1.31587
 11
17.4845
 21
1.2597
  0
LINE
  8
0
 10
17.4845
 20
1.2597
 11
17.4651
 21
1.19766
  0
LINE
  8
0
 10
17.4651
 20
1.19766
 11
17.4586
 21
1.12976
  0
LINE
  8
0
 10
17.4586
 20
1.12976
 11
17.4651
 21
1.06262
  0
LINE
  8
0
 10
17.4651
 20
1.06262
 11
17.4845
 21
1.00113
  0
LINE
  8
0
 10
17.4845
 20
1.00113
 11
17.5169
 21
0.945282
  0
LINE
  8
0
 10
17.5169
 20
0.945282
 11
17.5623
 21
0.895081
  0
LINE
  8
0
 10
17.5623
 20
0.895081
 11
17.6172
 21
0.853638
  0
LINE
  8
0
 10
17.6172
 20
0.853638
 11
17.6782
 21
0.824036
  0
LINE
  8
0
 10
17.6782
 20
0.824036
 11
17.7452
 21
0.806259
  0
LINE
  8
0
 10
17.7452
 20
0.806259
 11
17.8183
 21
0.800339
  0
LINE
  8
0
 10
17.8183
 20
0.800339
 11
17.8914
 21
0.806259
  0
LINE
  8
0
 10
15.2187
 20
0.806259
 11
15.2857
 21
0.824036
  0
LINE
  8
0
 10
15.2857
 20
0.824036
 11
15.3466
 21
0.853638
  0
LINE
  8
0
 10
15.3466
 20
0.853638
 11
15.4016
 21
0.895081
  0
LINE
  8
0
 10
15.4016
 20
0.895081
 11
15.4469
 21
0.945282
  0
LINE
  8
0
 10
15.4469
 20
0.945282
 11
15.4793
 21
1.00113
  0
LINE
  8
0
 10
15.4793
 20
1.00113
 11
15.4988
 21
1.06262
  0
LINE
  8
0
 10
15.4988
 20
1.06262
 11
15.5053
 21
1.12976
  0
LINE
  8
0
 10
15.5053
 20
1.12976
 11
15.4988
 21
1.19766
  0
LINE
  8
0
 10
15.4988
 20
1.19766
 11
15.4793
 21
1.2597
  0
LINE
  8
0
 10
15.4793
 20
1.2597
 11
15.4469
 21
1.31587
  0
LINE
  8
0
 10
15.4469
 20
1.31587
 11
15.4016
 21
1.36618
  0
LINE
  8
0
 10
15.4016
 20
1.36618
 11
15.3466
 21
1.40764
  0
LINE
  8
0
 10
15.3466
 20
1.40764
 11
15.2857
 21
1.43726
  0
LINE
  8
0
 10
15.2857
 20
1.43726
 11
15.2187
 21
1.45502
  0
LINE
  8
0
 10
15.2187
 20
1.45502
 11
15.1456
 21
1.46095
  0
LINE
  8
0
 10
15.1456
 20
1.46095
 11
15.0725
 21
1.45502
  0
LINE
  8
0
 10
15.0725
 20
1.45502
 11
15.0054
 21
1.43726
  0
LINE
  8
0
 10
15.0054
 20
1.43726
 11
14.9445
 21
1.40764
  0
LINE
  8
0
 10
14.9445
 20
1.40764
 11
14.8896
 21
1.36618
  0
LINE
  8
0
 10
14.8896
 20
1.36618
 11
14.8442
 21
1.31587
  0
LINE
  8
0
 10
14.8442
 20
1.31587
 11
14.8118
 21
1.2597
  0
LINE
  8
0
 10
14.8118
 20
1.2597
 11
14.7924
 21
1.19766
  0
LINE
  8
0
 10
14.7924
 20
1.19766
 11
14.7859
 21
1.12976
  0
LINE
  8
0
 10
14.7859
 20
1.12976
 11
14.7924
 21
1.06262
  0
LINE
  8
0
 10
14.7924
 20
1.06262
 11
14.8118
 21
1.00113
  0
LINE
  8
0
 10
14.8118
 20
1.00113
 11
14.8442
 21
0.945282
  0
LINE
  8
0
 10
14.8442
 20
0.945282
 11
14.8896
 21
0.895081
  0
LINE
  8
0
 10
14.8896
 20
0.895081
 11
14.9445
 21
0.853638
  0
LINE
  8
0
 10
14.9445
 20
0.853638
 11
15.0054
 21
0.824036
  0
LINE
  8
0
 10
15.0054
 20
0.824036
 11
15.0725
 21
0.806259
  0
LINE
  8
0
 10
15.0725
 20
0.806259
 11
15.1456
 21
0.800339
  0
LINE
  8
0
 10
15.1456
 20
0.800339
 11
15.2187
 21
0.806259
  0
LINE
  8
0
 10
32.5895
 20
0.806259
 11
32.6566
 21
0.824036
  0
LINE
  8
0
 10
32.6566
 20
0.824036
 11
32.7175
 21
0.853638
  0
LINE
  8
0
 10
32.7175
 20
0.853638
 11
32.7724
 21
0.895081
  0
LINE
  8
0
 10
32.7724
 20
0.895081
 11
32.8178
 21
0.945282
  0
LINE
  8
0
 10
32.8178
 20
0.945282
 11
32.8502
 21
1.00113
  0
LINE
  8
0
 10
32.8502
 20
1.00113
 11
32.8697
 21
1.06262
  0
LINE
  8
0
 10
32.8697
 20
1.06262
 11
32.8762
 21
1.12976
  0
LINE
  8
0
 10
32.8762
 20
1.12976
 11
32.8697
 21
1.19766
  0
LINE
  8
0
 10
32.8697
 20
1.19766
 11
32.8502
 21
1.2597
  0
LINE
  8
0
 10
32.8502
 20
1.2597
 11
32.8178
 21
1.31587
  0
LINE
  8
0
 10
32.8178
 20
1.31587
 11
32.7724
 21
1.36618
  0
LINE
  8
0
 10
32.7724
 20
1.36618
 11
32.7175
 21
1.40764
  0
LINE
  8
0
 10
32.7175
 20
1.40764
 11
32.6566
 21
1.43726
  0
LINE
  8
0
 10
32.6566
 20
1.43726
 11
32.5895
 21
1.45502
  0
LINE
  8
0
 10
32.5895
 20
1.45502
 11
32.5164
 21
1.46095
  0
LINE
  8
0
 10
32.5164
 20
1.46095
 11
32.4434
 21
1.45502
  0
LINE
  8
0
 10
32.4434
 20
1.45502
 11
32.3763
 21
1.43726
  0
LINE
  8
0
 10
32.3763
 20
1.43726
 11
32.3154
 21
1.40764
  0
LINE
  8
0
 10
32.3154
 20
1.40764
 11
32.2605
 21
1.36618
  0
LINE
  8
0
 10
32.2605
 20
1.36618
 11
32.2151
 21
1.31587
  0
LINE
  8
0
 10
32.2151
 20
1.31587
 11
32.1827
 21
1.2597
  0
LINE
  8
0
 10
32.1827
 20
1.2597
 11
32.1632
 21
1.19766
  0
LINE
  8
0
 10
32.1632
 20
1.19766
 11
32.1568
 21
1.12976
  0
LINE
  8
0
 10
32.1568
 20
1.12976
 11
32.1632
 21
1.06262
  0
LINE
  8
0
 10
32.1632
 20
1.06262
 11
32.1827
 21
1.00113
  0
LINE
  8
0
 10
32.1827
 20
1.00113
 11
32.2151
 21
0.945282
  0
LINE
  8
0
 10
32.2151
 20
0.945282
 11
32.2605
 21
0.895081
  0
LINE
  8
0
 10
32.2605
 20
0.895081
 11
32.3154
 21
0.853638
  0
LINE
  8
0
 10
32.3154
 20
0.853638
 11
32.3763
 21
0.824036
  0
LINE
  8
0
 10
32.3763
 20
0.824036
 11
32.4434
 21
0.806259
  0
LINE
  8
0
 10
32.4434
 20
0.806259
 11
32.5164
 21
0.800339
  0
LINE
  8
0
 10
32.5164
 20
0.800339
 11
32.5895
 21
0.806259
  0
ENDSEC
  0
SECTION
  2
OBJECTS
  0
DICTIONARY
  0
ENDSEC
  0
EOF
