  0
SECTION
  2
BLOCKS
  0
ENDSEC
  0
SECTION
  2
ENTITIES
  0
LINE
  8
0
 10
19.1409
 20
9.77843
 11
19.2048
 21
9.79558
  0
LINE
  8
0
 10
19.2048
 20
9.79558
 11
19.2633
 21
9.82419
  0
LINE
  8
0
 10
19.2633
 20
9.82419
 11
19.3166
 21
9.86423
  0
LINE
  8
0
 10
19.3166
 20
9.86423
 11
19.361
 21
9.91245
  0
LINE
  8
0
 10
19.361
 20
9.91245
 11
19.3926
 21
9.96558
  0
LINE
  8
0
 10
19.3926
 20
9.96558
 11
19.4117
 21
10.0236
  0
LINE
  8
0
 10
19.4117
 20
10.0236
 11
19.418
 21
10.0865
  0
LINE
  8
0
 10
19.418
 20
10.0865
 11
19.4117
 21
10.1495
  0
LINE
  8
0
 10
19.4117
 20
10.1495
 11
19.3926
 21
10.2075
  0
LINE
  8
0
 10
19.3926
 20
10.2075
 11
19.361
 21
10.2606
  0
LINE
  8
0
 10
19.361
 20
10.2606
 11
19.3166
 21
10.3088
  0
LINE
  8
0
 10
19.3166
 20
10.3088
 11
19.2633
 21
10.3489
  0
LINE
  8
0
 10
19.2633
 20
10.3489
 11
19.2048
 21
10.3775
  0
LINE
  8
0
 10
19.2048
 20
10.3775
 11
19.1409
 21
10.3946
  0
LINE
  8
0
 10
19.1409
 20
10.3946
 11
19.0719
 21
10.4004
  0
LINE
  8
0
 10
19.0719
 20
10.4004
 11
19.0036
 21
10.3946
  0
LINE
  8
0
 10
19.0036
 20
10.3946
 11
18.9404
 21
10.3775
  0
LINE
  8
0
 10
18.9404
 20
10.3775
 11
18.8822
 21
10.3489
  0
LINE
  8
0
 10
18.8822
 20
10.3489
 11
18.829
 21
10.3088
  0
LINE
  8
0
 10
18.829
 20
10.3088
 11
18.7846
 21
10.2606
  0
LINE
  8
0
 10
18.7846
 20
10.2606
 11
18.753
 21
10.2075
  0
LINE
  8
0
 10
18.753
 20
10.2075
 11
18.734
 21
10.1495
  0
LINE
  8
0
 10
18.734
 20
10.1495
 11
18.7276
 21
10.0865
  0
LINE
  8
0
 10
18.7276
 20
10.0865
 11
18.734
 21
10.0236
  0
LINE
  8
0
 10
18.734
 20
10.0236
 11
18.753
 21
9.96558
  0
LINE
  8
0
 10
18.753
 20
9.96558
 11
18.7846
 21
9.91245
  0
LINE
  8
0
 10
18.7846
 20
9.91245
 11
18.829
 21
9.86423
  0
LINE
  8
0
 10
18.829
 20
9.86423
 11
18.8822
 21
9.82419
  0
LINE
  8
0
 10
18.8822
 20
9.82419
 11
18.9404
 21
9.79558
  0
LINE
  8
0
 10
18.9404
 20
9.79558
 11
19.0036
 21
9.77843
  0
LINE
  8
0
 10
19.0036
 20
9.77843
 11
19.0719
 21
9.77271
  0
LINE
  8
0
 10
19.0719
 20
9.77271
 11
19.1409
 21
9.77843
  0
LINE
  8
0
 10
4.47058
 20
3.3815
 11
4.47058
 21
7.53613
  0
LINE
  8
0
 10
4.47058
 20
7.53613
 11
8.22185
 21
9.9563
  0
LINE
  8
0
 10
8.22185
 20
9.9563
 11
8.17888
 21
9.99774
  0
LINE
  8
0
 10
8.17888
 20
9.99774
 11
8.13472
 21
10.0373
  0
LINE
  8
0
 10
8.13472
 20
10.0373
 11
8.08934
 21
10.075
  0
LINE
  8
0
 10
8.08934
 20
10.075
 11
8.04276
 21
10.1109
  0
LINE
  8
0
 10
8.04276
 20
10.1109
 11
7.99495
 21
10.1447
  0
LINE
  8
0
 10
7.99495
 20
10.1447
 11
7.94594
 21
10.1767
  0
LINE
  8
0
 10
7.94594
 20
10.1767
 11
7.89572
 21
10.2066
  0
LINE
  8
0
 10
7.89572
 20
10.2066
 11
7.8443
 21
10.2345
  0
LINE
  8
0
 10
7.8443
 20
10.2345
 11
7.79166
 21
10.2603
  0
LINE
  8
0
 10
7.79166
 20
10.2603
 11
7.73781
 21
10.284
  0
LINE
  8
0
 10
7.73781
 20
10.284
 11
7.68275
 21
10.3056
  0
LINE
  8
0
 10
7.68275
 20
10.3056
 11
7.62648
 21
10.3251
  0
LINE
  8
0
 10
7.62648
 20
10.3251
 11
7.569
 21
10.3424
  0
LINE
  8
0
 10
7.569
 20
10.3424
 11
7.51031
 21
10.3575
  0
LINE
  8
0
 10
7.51031
 20
10.3575
 11
7.45041
 21
10.3704
  0
LINE
  8
0
 10
7.45041
 20
10.3704
 11
7.3893
 21
10.381
  0
LINE
  8
0
 10
7.3893
 20
10.381
 11
7.32698
 21
10.3892
  0
LINE
  8
0
 10
7.32698
 20
10.3892
 11
7.26346
 21
10.3952
  0
LINE
  8
0
 10
7.26346
 20
10.3952
 11
7.19872
 21
10.3988
  0
LINE
  8
0
 10
7.19872
 20
10.3988
 11
7.13277
 21
10.4
  0
LINE
  8
0
 10
7.13277
 20
10.4
 11
3.2605
 21
10.4
  0
LINE
  8
0
 10
3.2605
 20
10.4
 11
3.05701
 21
10.3919
  0
LINE
  8
0
 10
3.05701
 20
10.3919
 11
2.85835
 21
10.3681
  0
LINE
  8
0
 10
2.85835
 20
10.3681
 11
2.66513
 21
10.3291
  0
LINE
  8
0
 10
2.66513
 20
10.3291
 11
2.47798
 21
10.2754
  0
LINE
  8
0
 10
2.47798
 20
10.2754
 11
2.29747
 21
10.2078
  0
LINE
  8
0
 10
2.29747
 20
10.2078
 11
2.12422
 21
10.1266
  0
LINE
  8
0
 10
2.12422
 20
10.1266
 11
1.95885
 21
10.0326
  0
LINE
  8
0
 10
1.95885
 20
10.0326
 11
1.80194
 21
9.92628
  0
LINE
  8
0
 10
1.80194
 20
9.92628
 11
1.65411
 21
9.80821
  0
LINE
  8
0
 10
1.65411
 20
9.80821
 11
1.51596
 21
9.67899
  0
LINE
  8
0
 10
1.51596
 20
9.67899
 11
1.38809
 21
9.53917
  0
LINE
  8
0
 10
1.38809
 20
9.53917
 11
1.27112
 21
9.38933
  0
LINE
  8
0
 10
1.27112
 20
9.38933
 11
1.16563
 21
9.23006
  0
LINE
  8
0
 10
1.16563
 20
9.23006
 11
1.07227
 21
9.06192
  0
LINE
  8
0
 10
1.07227
 20
9.06192
 11
0.991592
 21
8.8855
  0
LINE
  8
0
 10
0.991592
 20
8.8855
 11
0.924225
 21
8.70135
  0
LINE
  8
0
 10
0.924225
 20
8.70135
 11
0.870789
 21
8.51007
  0
LINE
  8
0
 10
0.870789
 20
8.51007
 11
0.831863
 21
8.31224
  0
LINE
  8
0
 10
0.831863
 20
8.31224
 11
0.80806
 21
8.1084
  0
LINE
  8
0
 10
0.80806
 20
8.1084
 11
0.799988
 21
7.89915
  0
LINE
  8
0
 10
0.799988
 20
7.89915
 11
0.799988
 21
2.73613
  0
LINE
  8
0
 10
0.799988
 20
2.73613
 11
0.800613
 21
2.66383
  0
LINE
  8
0
 10
0.800613
 20
2.66383
 11
0.80249
 21
2.59221
  0
LINE
  8
0
 10
0.80249
 20
2.59221
 11
0.80571
 21
2.5213
  0
LINE
  8
0
 10
0.80571
 20
2.5213
 11
0.810318
 21
2.45119
  0
LINE
  8
0
 10
0.810318
 20
2.45119
 11
0.816376
 21
2.38193
  0
LINE
  8
0
 10
0.816376
 20
2.38193
 11
0.823959
 21
2.31357
  0
LINE
  8
0
 10
0.823959
 20
2.31357
 11
0.833099
 21
2.24617
  0
LINE
  8
0
 10
0.833099
 20
2.24617
 11
0.843872
 21
2.17981
  0
LINE
  8
0
 10
0.843872
 20
2.17981
 11
0.856354
 21
2.11453
  0
LINE
  8
0
 10
0.856354
 20
2.11453
 11
0.870575
 21
2.05042
  0
LINE
  8
0
 10
0.870575
 20
2.05042
 11
0.886627
 21
1.9875
  0
LINE
  8
0
 10
0.886627
 20
1.9875
 11
0.904541
 21
1.92586
  0
LINE
  8
0
 10
0.904541
 20
1.92586
 11
0.924393
 21
1.86554
  0
LINE
  8
0
 10
0.924393
 20
1.86554
 11
0.946243
 21
1.80663
  0
LINE
  8
0
 10
0.946243
 20
1.80663
 11
0.970154
 21
1.74915
  0
LINE
  8
0
 10
0.970154
 20
1.74915
 11
0.996185
 21
1.69319
  0
LINE
  8
0
 10
0.996185
 20
1.69319
 11
1.0244
 21
1.63881
  0
LINE
  8
0
 10
1.0244
 20
1.63881
 11
1.05484
 21
1.58606
  0
LINE
  8
0
 10
1.05484
 20
1.58606
 11
1.08759
 21
1.535
  0
LINE
  8
0
 10
1.08759
 20
1.535
 11
1.12268
 21
1.4857
  0
LINE
  8
0
 10
1.12268
 20
1.4857
 11
4.47058
 21
3.3815
  0
LINE
  8
0
 10
26.5713
 20
7.41676
 11
26.6752
 21
7.43796
  0
LINE
  8
0
 10
26.6752
 20
7.43796
 11
26.7669
 21
7.47327
  0
LINE
  8
0
 10
26.7669
 20
7.47327
 11
26.8462
 21
7.52272
  0
LINE
  8
0
 10
26.8462
 20
7.52272
 11
26.9141
 21
7.58102
  0
LINE
  8
0
 10
26.9141
 20
7.58102
 11
26.9716
 21
7.64296
  0
LINE
  8
0
 10
26.9716
 20
7.64296
 11
27.0188
 21
7.70853
  0
LINE
  8
0
 10
27.0188
 20
7.70853
 11
27.0556
 21
7.77769
  0
LINE
  8
0
 10
27.0556
 20
7.77769
 11
27.0785
 21
7.77769
  0
LINE
  8
0
 10
27.0785
 20
7.77769
 11
27.0785
 21
7.43959
  0
LINE
  8
0
 10
27.0785
 20
7.43959
 11
27.7363
 21
7.43959
  0
LINE
  8
0
 10
27.7363
 20
7.43959
 11
27.7363
 21
10.2229
  0
LINE
  8
0
 10
27.7363
 20
10.2229
 11
27.0709
 21
10.2229
  0
LINE
  8
0
 10
27.0709
 20
10.2229
 11
27.0709
 21
9.16933
  0
LINE
  8
0
 10
27.0709
 20
9.16933
 11
27.0556
 21
9.16933
  0
LINE
  8
0
 10
27.0556
 20
9.16933
 11
27.0331
 21
9.21574
  0
LINE
  8
0
 10
27.0331
 20
9.21574
 11
27.0061
 21
9.26157
  0
LINE
  8
0
 10
27.0061
 20
9.26157
 11
26.9743
 21
9.30681
  0
LINE
  8
0
 10
26.9743
 20
9.30681
 11
26.9379
 21
9.35146
  0
LINE
  8
0
 10
26.9379
 20
9.35146
 11
26.8965
 21
9.39384
  0
LINE
  8
0
 10
26.8965
 20
9.39384
 11
26.8497
 21
9.43227
  0
LINE
  8
0
 10
26.8497
 20
9.43227
 11
26.7976
 21
9.46671
  0
LINE
  8
0
 10
26.7976
 20
9.46671
 11
26.74
 21
9.49718
  0
LINE
  8
0
 10
26.74
 20
9.49718
 11
26.6767
 21
9.52211
  0
LINE
  8
0
 10
26.6767
 20
9.52211
 11
26.6071
 21
9.53992
  0
LINE
  8
0
 10
26.6071
 20
9.53992
 11
26.5313
 21
9.5506
  0
LINE
  8
0
 10
26.5313
 20
9.5506
 11
26.4494
 21
9.55417
  0
LINE
  8
0
 10
26.4494
 20
9.55417
 11
26.3393
 21
9.54692
  0
LINE
  8
0
 10
26.3393
 20
9.54692
 11
26.233
 21
9.52521
  0
LINE
  8
0
 10
26.233
 20
9.52521
 11
26.1304
 21
9.48901
  0
LINE
  8
0
 10
26.1304
 20
9.48901
 11
26.0315
 21
9.43834
  0
LINE
  8
0
 10
26.0315
 20
9.43834
 11
25.9391
 21
9.37283
  0
LINE
  8
0
 10
25.9391
 20
9.37283
 11
25.8561
 21
9.29216
  0
LINE
  8
0
 10
25.8561
 20
9.29216
 11
25.7823
 21
9.1963
  0
LINE
  8
0
 10
25.7823
 20
9.1963
 11
25.7179
 21
9.08527
  0
LINE
  8
0
 10
25.7179
 20
9.08527
 11
25.6656
 21
8.9586
  0
LINE
  8
0
 10
25.6656
 20
8.9586
 11
25.6283
 21
8.81583
  0
LINE
  8
0
 10
25.6283
 20
8.81583
 11
25.6059
 21
8.65694
  0
LINE
  8
0
 10
25.6059
 20
8.65694
 11
25.5984
 21
8.48193
  0
LINE
  8
0
 10
25.5984
 20
8.48193
 11
25.6055
 21
8.31177
  0
LINE
  8
0
 10
25.6055
 20
8.31177
 11
25.6271
 21
8.1562
  0
LINE
  8
0
 10
25.6271
 20
8.1562
 11
25.6629
 21
8.01523
  0
LINE
  8
0
 10
25.6629
 20
8.01523
 11
25.7131
 21
7.88884
  0
LINE
  8
0
 10
25.7131
 20
7.88884
 11
25.7755
 21
7.7771
  0
LINE
  8
0
 10
25.7755
 20
7.7771
 11
25.8479
 21
7.68008
  0
LINE
  8
0
 10
25.8479
 20
7.68008
 11
25.9304
 21
7.59778
  0
LINE
  8
0
 10
25.9304
 20
7.59778
 11
26.0229
 21
7.53018
  0
LINE
  8
0
 10
26.0229
 20
7.53018
 11
26.1231
 21
7.47746
  0
LINE
  8
0
 10
26.1231
 20
7.47746
 11
26.2285
 21
7.43982
  0
LINE
  8
0
 10
26.2285
 20
7.43982
 11
26.3392
 21
7.41724
  0
LINE
  8
0
 10
26.3392
 20
7.41724
 11
26.4551
 21
7.4097
  0
LINE
  8
0
 10
26.4551
 20
7.4097
 11
26.5713
 21
7.41676
  0
LINE
  8
0
 10
26.5918
 20
7.92747
 11
26.5122
 21
7.95656
  0
LINE
  8
0
 10
26.5122
 20
7.95656
 11
26.444
 21
8.005
  0
LINE
  8
0
 10
26.444
 20
8.005
 11
26.3872
 21
8.07285
  0
LINE
  8
0
 10
26.3872
 20
8.07285
 11
26.3424
 21
8.15656
  0
LINE
  8
0
 10
26.3424
 20
8.15656
 11
26.3105
 21
8.25264
  0
LINE
  8
0
 10
26.3105
 20
8.25264
 11
26.2913
 21
8.3611
  0
LINE
  8
0
 10
26.2913
 20
8.3611
 11
26.2849
 21
8.48193
  0
LINE
  8
0
 10
26.2849
 20
8.48193
 11
26.2913
 21
8.60271
  0
LINE
  8
0
 10
26.2913
 20
8.60271
 11
26.3105
 21
8.71098
  0
LINE
  8
0
 10
26.3105
 20
8.71098
 11
26.3424
 21
8.80678
  0
LINE
  8
0
 10
26.3424
 20
8.80678
 11
26.3872
 21
8.89009
  0
LINE
  8
0
 10
26.3872
 20
8.89009
 11
26.444
 21
8.95752
  0
LINE
  8
0
 10
26.444
 20
8.95752
 11
26.5122
 21
9.00568
  0
LINE
  8
0
 10
26.5122
 20
9.00568
 11
26.5918
 21
9.03458
  0
LINE
  8
0
 10
26.5918
 20
9.03458
 11
26.6827
 21
9.0442
  0
LINE
  8
0
 10
26.6827
 20
9.0442
 11
26.773
 21
9.03474
  0
LINE
  8
0
 10
26.773
 20
9.03474
 11
26.8526
 21
9.00636
  0
LINE
  8
0
 10
26.8526
 20
9.00636
 11
26.9216
 21
8.95908
  0
LINE
  8
0
 10
26.9216
 20
8.95908
 11
26.98
 21
8.89287
  0
LINE
  8
0
 10
26.98
 20
8.89287
 11
27.0264
 21
8.81044
  0
LINE
  8
0
 10
27.0264
 20
8.81044
 11
27.0596
 21
8.71448
  0
LINE
  8
0
 10
27.0596
 20
8.71448
 11
27.0795
 21
8.60498
  0
LINE
  8
0
 10
27.0795
 20
8.60498
 11
27.0862
 21
8.48193
  0
LINE
  8
0
 10
27.0862
 20
8.48193
 11
27.0795
 21
8.36034
  0
LINE
  8
0
 10
27.0795
 20
8.36034
 11
27.0594
 21
8.25146
  0
LINE
  8
0
 10
27.0594
 20
8.25146
 11
27.0259
 21
8.15532
  0
LINE
  8
0
 10
27.0259
 20
8.15532
 11
26.979
 21
8.0719
  0
LINE
  8
0
 10
26.979
 20
8.0719
 11
26.9204
 21
8.00447
  0
LINE
  8
0
 10
26.9204
 20
8.00447
 11
26.8514
 21
7.95631
  0
LINE
  8
0
 10
26.8514
 20
7.95631
 11
26.7722
 21
7.92741
  0
LINE
  8
0
 10
26.7722
 20
7.92741
 11
26.6827
 21
7.91779
  0
LINE
  8
0
 10
26.6827
 20
7.91779
 11
26.5918
 21
7.92747
  0
LINE
  8
0
 10
20.5011
 20
8.63882
 11
20.5008
 21
8.69504
  0
LINE
  8
0
 10
20.5008
 20
8.69504
 11
20.5
 21
8.75908
  0
LINE
  8
0
 10
20.5
 20
8.75908
 11
20.4984
 21
8.83093
  0
LINE
  8
0
 10
20.4984
 20
8.83093
 11
20.4964
 21
8.91061
  0
LINE
  8
0
 10
20.4964
 20
8.91061
 11
20.4886
 21
9.17664
  0
LINE
  8
0
 10
20.4886
 20
9.17664
 11
20.4858
 21
9.27208
  0
LINE
  8
0
 10
20.4858
 20
9.27208
 11
20.4831
 21
9.36852
  0
LINE
  8
0
 10
20.4831
 20
9.36852
 11
20.4806
 21
9.46355
  0
LINE
  8
0
 10
20.4806
 20
9.46355
 11
20.4783
 21
9.55717
  0
LINE
  8
0
 10
20.4783
 20
9.55717
 11
20.4763
 21
9.64941
  0
LINE
  8
0
 10
20.4763
 20
9.64941
 11
20.5005
 21
9.55153
  0
LINE
  8
0
 10
20.5005
 20
9.55153
 11
20.5253
 21
9.45399
  0
LINE
  8
0
 10
20.5253
 20
9.45399
 11
20.5507
 21
9.3568
  0
LINE
  8
0
 10
20.5507
 20
9.3568
 11
20.5767
 21
9.25996
  0
LINE
  8
0
 10
20.5767
 20
9.25996
 11
20.6027
 21
9.16522
  0
LINE
  8
0
 10
20.6027
 20
9.16522
 11
20.6281
 21
9.07433
  0
LINE
  8
0
 10
20.6281
 20
9.07433
 11
20.6529
 21
8.98727
  0
LINE
  8
0
 10
20.6529
 20
8.98727
 11
20.6771
 21
8.90408
  0
LINE
  8
0
 10
20.6771
 20
8.90408
 11
20.7
 21
8.82655
  0
LINE
  8
0
 10
20.7
 20
8.82655
 11
20.7211
 21
8.75652
  0
LINE
  8
0
 10
20.7211
 20
8.75652
 11
20.7402
 21
8.69392
  0
LINE
  8
0
 10
20.7402
 20
8.69392
 11
20.7574
 21
8.63882
  0
LINE
  8
0
 10
20.7574
 20
8.63882
 11
21.1685
 21
7.43959
  0
LINE
  8
0
 10
21.1685
 20
7.43959
 11
21.7327
 21
7.43959
  0
LINE
  8
0
 10
21.7327
 20
7.43959
 11
22.1381
 21
8.63882
  0
LINE
  8
0
 10
22.1381
 20
8.63882
 11
22.1561
 21
8.69598
  0
LINE
  8
0
 10
22.1561
 20
8.69598
 11
22.1759
 21
8.76096
  0
LINE
  8
0
 10
22.1759
 20
8.76096
 11
22.1973
 21
8.83374
  0
LINE
  8
0
 10
22.1973
 20
8.83374
 11
22.2203
 21
8.91435
  0
LINE
  8
0
 10
22.2203
 20
8.91435
 11
22.2445
 21
9.00081
  0
LINE
  8
0
 10
22.2445
 20
9.00081
 11
22.2693
 21
9.09113
  0
LINE
  8
0
 10
22.2693
 20
9.09113
 11
22.2947
 21
9.18529
  0
LINE
  8
0
 10
22.2947
 20
9.18529
 11
22.3207
 21
9.28329
  0
LINE
  8
0
 10
22.3207
 20
9.28329
 11
22.3467
 21
9.38312
  0
LINE
  8
0
 10
22.3467
 20
9.38312
 11
22.3721
 21
9.48271
  0
LINE
  8
0
 10
22.3721
 20
9.48271
 11
22.3969
 21
9.58206
  0
LINE
  8
0
 10
22.3969
 20
9.58206
 11
22.4211
 21
9.68117
  0
LINE
  8
0
 10
22.4211
 20
9.68117
 11
22.4191
 21
9.58684
  0
LINE
  8
0
 10
22.4191
 20
9.58684
 11
22.4168
 21
9.49065
  0
LINE
  8
0
 10
22.4168
 20
9.49065
 11
22.4143
 21
9.39258
  0
LINE
  8
0
 10
22.4143
 20
9.39258
 11
22.4115
 21
9.29262
  0
LINE
  8
0
 10
22.4115
 20
9.29262
 11
22.401
 21
8.91811
  0
LINE
  8
0
 10
22.401
 20
8.91811
 11
22.3989
 21
8.83585
  0
LINE
  8
0
 10
22.3989
 20
8.83585
 11
22.3974
 21
8.76189
  0
LINE
  8
0
 10
22.3974
 20
8.76189
 11
22.3965
 21
8.69621
  0
LINE
  8
0
 10
22.3965
 20
8.69621
 11
22.3962
 21
8.63882
  0
LINE
  8
0
 10
22.3962
 20
8.63882
 11
22.3962
 21
7.43959
  0
LINE
  8
0
 10
22.3962
 20
7.43959
 11
23.0751
 21
7.43959
  0
LINE
  8
0
 10
23.0751
 20
7.43959
 11
23.0751
 21
10.2229
  0
LINE
  8
0
 10
23.0751
 20
10.2229
 11
22.0214
 21
10.2229
  0
LINE
  8
0
 10
22.0214
 20
10.2229
 11
21.6638
 21
9.13945
  0
LINE
  8
0
 10
21.6638
 20
9.13945
 11
21.649
 21
9.08815
  0
LINE
  8
0
 10
21.649
 20
9.08815
 11
21.633
 21
9.02948
  0
LINE
  8
0
 10
21.633
 20
9.02948
 11
21.616
 21
8.96347
  0
LINE
  8
0
 10
21.616
 20
8.96347
 11
21.5979
 21
8.89009
  0
LINE
  8
0
 10
21.5979
 20
8.89009
 11
21.5792
 21
8.81163
  0
LINE
  8
0
 10
21.5792
 20
8.81163
 11
21.5606
 21
8.73038
  0
LINE
  8
0
 10
21.5606
 20
8.73038
 11
21.5419
 21
8.6463
  0
LINE
  8
0
 10
21.5419
 20
8.6463
 11
21.5233
 21
8.55943
  0
LINE
  8
0
 10
21.5233
 20
8.55943
 11
21.5049
 21
8.47183
  0
LINE
  8
0
 10
21.5049
 20
8.47183
 11
21.4872
 21
8.3855
  0
LINE
  8
0
 10
21.4872
 20
8.3855
 11
21.47
 21
8.30045
  0
LINE
  8
0
 10
21.47
 20
8.30045
 11
21.4535
 21
8.21667
  0
LINE
  8
0
 10
21.4535
 20
8.21667
 11
21.436
 21
8.30051
  0
LINE
  8
0
 10
21.436
 20
8.30051
 11
21.4181
 21
8.38573
  0
LINE
  8
0
 10
21.4181
 20
8.38573
 11
21.3997
 21
8.47235
  0
LINE
  8
0
 10
21.3997
 20
8.47235
 11
21.3808
 21
8.56038
  0
LINE
  8
0
 10
21.3808
 20
8.56038
 11
21.3617
 21
8.6476
  0
LINE
  8
0
 10
21.3617
 20
8.6476
 11
21.3428
 21
8.73178
  0
LINE
  8
0
 10
21.3428
 20
8.73178
 11
21.324
 21
8.81291
  0
LINE
  8
0
 10
21.324
 20
8.81291
 11
21.3053
 21
8.89102
  0
LINE
  8
0
 10
21.3053
 20
8.89102
 11
21.2872
 21
8.96399
  0
LINE
  8
0
 10
21.2872
 20
8.96399
 11
21.2701
 21
9.02972
  0
LINE
  8
0
 10
21.2701
 20
9.02972
 11
21.2542
 21
9.08821
  0
LINE
  8
0
 10
21.2542
 20
9.08821
 11
21.2393
 21
9.13945
  0
LINE
  8
0
 10
21.2393
 20
9.13945
 11
20.876
 21
10.2229
  0
LINE
  8
0
 10
20.876
 20
10.2229
 11
19.8242
 21
10.2229
  0
LINE
  8
0
 10
19.8242
 20
10.2229
 11
19.8242
 21
7.43959
  0
LINE
  8
0
 10
19.8242
 20
7.43959
 11
20.5011
 21
7.43959
  0
LINE
  8
0
 10
20.5011
 20
7.43959
 11
20.5011
 21
8.63882
  0
LINE
  8
0
 10
16.5045
 20
7.4104
 11
16.5535
 21
7.41251
  0
LINE
  8
0
 10
16.5535
 20
7.41251
 11
16.6039
 21
7.416
  0
LINE
  8
0
 10
16.6039
 20
7.416
 11
16.6558
 21
7.42091
  0
LINE
  8
0
 10
16.6558
 20
7.42091
 11
16.7089
 21
7.4278
  0
LINE
  8
0
 10
16.7089
 20
7.4278
 11
16.7629
 21
7.43726
  0
LINE
  8
0
 10
16.7629
 20
7.43726
 11
16.8179
 21
7.44928
  0
LINE
  8
0
 10
16.8179
 20
7.44928
 11
16.8738
 21
7.46388
  0
LINE
  8
0
 10
16.8738
 20
7.46388
 11
16.7878
 21
7.93834
  0
LINE
  8
0
 10
16.7878
 20
7.93834
 11
16.7722
 21
7.93536
  0
LINE
  8
0
 10
16.7722
 20
7.93536
 11
16.7522
 21
7.93204
  0
LINE
  8
0
 10
16.7522
 20
7.93204
 11
16.7277
 21
7.92836
  0
LINE
  8
0
 10
16.7277
 20
7.92836
 11
16.6989
 21
7.92432
  0
LINE
  8
0
 10
16.6989
 20
7.92432
 11
16.6695
 21
7.92064
  0
LINE
  8
0
 10
16.6695
 20
7.92064
 11
16.6436
 21
7.91801
  0
LINE
  8
0
 10
16.6436
 20
7.91801
 11
16.6212
 21
7.91644
  0
LINE
  8
0
 10
16.6212
 20
7.91644
 11
16.6023
 21
7.91592
  0
LINE
  8
0
 10
16.6023
 20
7.91592
 11
16.5278
 21
7.92607
  0
LINE
  8
0
 10
16.5278
 20
7.92607
 11
16.4746
 21
7.95654
  0
LINE
  8
0
 10
16.4746
 20
7.95654
 11
16.4427
 21
8.00732
  0
LINE
  8
0
 10
16.4427
 20
8.00732
 11
16.4321
 21
8.07843
  0
LINE
  8
0
 10
16.4321
 20
8.07843
 11
16.4321
 21
9.0442
  0
LINE
  8
0
 10
16.4321
 20
9.0442
 11
16.8165
 21
9.0442
  0
LINE
  8
0
 10
16.8165
 20
9.0442
 11
16.8165
 21
9.528
  0
LINE
  8
0
 10
16.8165
 20
9.528
 11
16.4321
 21
9.528
  0
LINE
  8
0
 10
16.4321
 20
9.528
 11
16.4321
 21
10.0249
  0
LINE
  8
0
 10
16.4321
 20
10.0249
 11
15.7647
 21
10.0249
  0
LINE
  8
0
 10
15.7647
 20
10.0249
 11
15.7647
 21
9.528
  0
LINE
  8
0
 10
15.7647
 20
9.528
 11
15.4816
 21
9.528
  0
LINE
  8
0
 10
15.4816
 20
9.528
 11
15.4816
 21
9.0442
  0
LINE
  8
0
 10
15.4816
 20
9.0442
 11
15.7647
 21
9.0442
  0
LINE
  8
0
 10
15.7647
 20
9.0442
 11
15.7647
 21
8.02052
  0
LINE
  8
0
 10
15.7647
 20
8.02052
 11
15.7757
 21
7.88002
  0
LINE
  8
0
 10
15.7757
 20
7.88002
 11
15.8087
 21
7.75737
  0
LINE
  8
0
 10
15.8087
 20
7.75737
 11
15.8636
 21
7.65259
  0
LINE
  8
0
 10
15.8636
 20
7.65259
 11
15.9406
 21
7.56566
  0
LINE
  8
0
 10
15.9406
 20
7.56566
 11
16.0388
 21
7.49742
  0
LINE
  8
0
 10
16.0388
 20
7.49742
 11
16.1577
 21
7.44868
  0
LINE
  8
0
 10
16.1577
 20
7.44868
 11
16.297
 21
7.41945
  0
LINE
  8
0
 10
16.297
 20
7.41945
 11
16.4569
 21
7.4097
  0
LINE
  8
0
 10
16.4569
 20
7.4097
 11
16.5045
 21
7.4104
  0
LINE
  8
0
 10
10.4873
 20
8.67992
 11
10.4927
 21
8.75745
  0
LINE
  8
0
 10
10.4927
 20
8.75745
 11
10.509
 21
8.82562
  0
LINE
  8
0
 10
10.509
 20
8.82562
 11
10.5362
 21
8.88448
  0
LINE
  8
0
 10
10.5362
 20
8.88448
 11
10.5743
 21
8.93396
  0
LINE
  8
0
 10
10.5743
 20
8.93396
 11
10.6208
 21
8.97321
  0
LINE
  8
0
 10
10.6208
 20
8.97321
 11
10.6735
 21
9.00124
  0
LINE
  8
0
 10
10.6735
 20
9.00124
 11
10.7323
 21
9.01805
  0
LINE
  8
0
 10
10.7323
 20
9.01805
 11
10.7971
 21
9.02365
  0
LINE
  8
0
 10
10.7971
 20
9.02365
 11
10.86
 21
9.01834
  0
LINE
  8
0
 10
10.86
 20
9.01834
 11
10.9169
 21
9.0024
  0
LINE
  8
0
 10
10.9169
 20
9.0024
 11
10.9676
 21
8.97583
  0
LINE
  8
0
 10
10.9676
 20
8.97583
 11
11.0122
 21
8.93864
  0
LINE
  8
0
 10
11.0122
 20
8.93864
 11
11.0486
 21
8.89247
  0
LINE
  8
0
 10
11.0486
 20
8.89247
 11
11.0746
 21
8.83894
  0
LINE
  8
0
 10
11.0746
 20
8.83894
 11
11.0902
 21
8.77805
  0
LINE
  8
0
 10
11.0902
 20
8.77805
 11
11.0954
 21
8.70981
  0
LINE
  8
0
 10
11.0954
 20
8.70981
 11
11.0954
 21
7.43959
  0
LINE
  8
0
 10
11.0954
 20
7.43959
 11
11.736
 21
7.43959
  0
LINE
  8
0
 10
11.736
 20
7.43959
 11
11.736
 21
8.69301
  0
LINE
  8
0
 10
11.736
 20
8.69301
 11
11.7412
 21
8.76404
  0
LINE
  8
0
 10
11.7412
 20
8.76404
 11
11.7566
 21
8.82773
  0
LINE
  8
0
 10
11.7566
 20
8.82773
 11
11.7823
 21
8.88406
  0
LINE
  8
0
 10
11.7823
 20
8.88406
 11
11.8183
 21
8.93303
  0
LINE
  8
0
 10
11.8183
 20
8.93303
 11
11.8631
 21
8.97267
  0
LINE
  8
0
 10
11.8631
 20
8.97267
 11
11.9153
 21
9.00099
  0
LINE
  8
0
 10
11.9153
 20
9.00099
 11
11.975
 21
9.01799
  0
LINE
  8
0
 10
11.975
 20
9.01799
 11
12.042
 21
9.02365
  0
LINE
  8
0
 10
12.042
 20
9.02365
 11
12.1051
 21
9.01851
  0
LINE
  8
0
 10
12.1051
 20
9.01851
 11
12.1623
 21
9.0031
  0
LINE
  8
0
 10
12.1623
 20
9.0031
 11
12.2136
 21
8.97742
  0
LINE
  8
0
 10
12.2136
 20
8.97742
 11
12.2591
 21
8.94145
  0
LINE
  8
0
 10
12.2591
 20
8.94145
 11
12.2963
 21
8.89557
  0
LINE
  8
0
 10
12.2963
 20
8.89557
 11
12.3229
 21
8.84012
  0
LINE
  8
0
 10
12.3229
 20
8.84012
 11
12.3389
 21
8.77509
  0
LINE
  8
0
 10
12.3389
 20
8.77509
 11
12.3442
 21
8.70047
  0
LINE
  8
0
 10
12.3442
 20
8.70047
 11
12.3442
 21
7.43959
  0
LINE
  8
0
 10
12.3442
 20
7.43959
 11
13.0097
 21
7.43959
  0
LINE
  8
0
 10
13.0097
 20
7.43959
 11
13.0097
 21
8.84805
  0
LINE
  8
0
 10
13.0097
 20
8.84805
 11
12.9977
 21
9.0045
  0
LINE
  8
0
 10
12.9977
 20
9.0045
 11
12.9616
 21
9.1432
  0
LINE
  8
0
 10
12.9616
 20
9.1432
 11
12.9016
 21
9.26416
  0
LINE
  8
0
 10
12.9016
 20
9.26416
 11
12.8175
 21
9.36736
  0
LINE
  8
0
 10
12.8175
 20
9.36736
 11
12.7146
 21
9.44991
  0
LINE
  8
0
 10
12.7146
 20
9.44991
 11
12.5983
 21
9.50887
  0
LINE
  8
0
 10
12.5983
 20
9.50887
 11
12.4684
 21
9.54425
  0
LINE
  8
0
 10
12.4684
 20
9.54425
 11
12.325
 21
9.55603
  0
LINE
  8
0
 10
12.325
 20
9.55603
 11
12.2186
 21
9.54897
  0
LINE
  8
0
 10
12.2186
 20
9.54897
 11
12.1154
 21
9.52779
  0
LINE
  8
0
 10
12.1154
 20
9.52779
 11
12.0154
 21
9.49246
  0
LINE
  8
0
 10
12.0154
 20
9.49246
 11
11.9187
 21
9.44302
  0
LINE
  8
0
 10
11.9187
 20
9.44302
 11
11.8293
 21
9.37746
  0
LINE
  8
0
 10
11.8293
 20
9.37746
 11
11.7516
 21
9.29381
  0
LINE
  8
0
 10
11.7516
 20
9.29381
 11
11.6854
 21
9.19206
  0
LINE
  8
0
 10
11.6854
 20
9.19206
 11
11.6309
 21
9.0722
  0
LINE
  8
0
 10
11.6309
 20
9.0722
 11
11.5882
 21
9.1913
  0
LINE
  8
0
 10
11.5882
 20
9.1913
 11
11.5384
 21
9.29263
  0
LINE
  8
0
 10
11.5384
 20
9.29263
 11
11.4815
 21
9.37624
  0
LINE
  8
0
 10
11.4815
 20
9.37624
 11
11.4176
 21
9.44208
  0
LINE
  8
0
 10
11.4176
 20
9.44208
 11
11.346
 21
9.49194
  0
LINE
  8
0
 10
11.346
 20
9.49194
 11
11.2659
 21
9.52754
  0
LINE
  8
0
 10
11.2659
 20
9.52754
 11
11.1772
 21
9.54892
  0
LINE
  8
0
 10
11.1772
 20
9.54892
 11
11.0801
 21
9.55603
  0
LINE
  8
0
 10
11.0801
 20
9.55603
 11
10.9852
 21
9.54956
  0
LINE
  8
0
 10
10.9852
 20
9.54956
 11
10.8934
 21
9.53012
  0
LINE
  8
0
 10
10.8934
 20
9.53012
 11
10.8049
 21
9.49771
  0
LINE
  8
0
 10
10.8049
 20
9.49771
 11
10.7197
 21
9.45236
  0
LINE
  8
0
 10
10.7197
 20
9.45236
 11
10.641
 21
9.39229
  0
LINE
  8
0
 10
10.641
 20
9.39229
 11
10.5722
 21
9.31575
  0
LINE
  8
0
 10
10.5722
 20
9.31575
 11
10.5133
 21
9.22276
  0
LINE
  8
0
 10
10.5133
 20
9.22276
 11
10.4644
 21
9.11331
  0
LINE
  8
0
 10
10.4644
 20
9.11331
 11
10.4338
 21
9.528
  0
LINE
  8
0
 10
10.4338
 20
9.528
 11
9.81992
 21
9.528
  0
LINE
  8
0
 10
9.81992
 20
9.528
 11
9.81992
 21
7.43959
  0
LINE
  8
0
 10
9.81992
 20
7.43959
 11
10.4873
 21
7.43959
  0
LINE
  8
0
 10
10.4873
 20
7.43959
 11
10.4873
 21
8.67992
  0
LINE
  8
0
 10
37.0768
 20
8.67992
 11
37.0823
 21
8.75745
  0
LINE
  8
0
 10
37.0823
 20
8.75745
 11
37.0986
 21
8.82562
  0
LINE
  8
0
 10
37.0986
 20
8.82562
 11
37.1258
 21
8.88448
  0
LINE
  8
0
 10
37.1258
 20
8.88448
 11
37.1638
 21
8.93396
  0
LINE
  8
0
 10
37.1638
 20
8.93396
 11
37.2104
 21
8.97321
  0
LINE
  8
0
 10
37.2104
 20
8.97321
 11
37.263
 21
9.00124
  0
LINE
  8
0
 10
37.263
 20
9.00124
 11
37.3218
 21
9.01805
  0
LINE
  8
0
 10
37.3218
 20
9.01805
 11
37.3866
 21
9.02365
  0
LINE
  8
0
 10
37.3866
 20
9.02365
 11
37.4496
 21
9.01834
  0
LINE
  8
0
 10
37.4496
 20
9.01834
 11
37.5064
 21
9.0024
  0
LINE
  8
0
 10
37.5064
 20
9.0024
 11
37.5571
 21
8.97583
  0
LINE
  8
0
 10
37.5571
 20
8.97583
 11
37.6018
 21
8.93864
  0
LINE
  8
0
 10
37.6018
 20
8.93864
 11
37.6382
 21
8.89247
  0
LINE
  8
0
 10
37.6382
 20
8.89247
 11
37.6642
 21
8.83894
  0
LINE
  8
0
 10
37.6642
 20
8.83894
 11
37.6797
 21
8.77805
  0
LINE
  8
0
 10
37.6797
 20
8.77805
 11
37.685
 21
8.70981
  0
LINE
  8
0
 10
37.685
 20
8.70981
 11
37.685
 21
7.43959
  0
LINE
  8
0
 10
37.685
 20
7.43959
 11
38.3256
 21
7.43959
  0
LINE
  8
0
 10
38.3256
 20
7.43959
 11
38.3256
 21
8.69301
  0
LINE
  8
0
 10
38.3256
 20
8.69301
 11
38.3307
 21
8.76404
  0
LINE
  8
0
 10
38.3307
 20
8.76404
 11
38.3461
 21
8.82773
  0
LINE
  8
0
 10
38.3461
 20
8.82773
 11
38.3718
 21
8.88406
  0
LINE
  8
0
 10
38.3718
 20
8.88406
 11
38.4078
 21
8.93303
  0
LINE
  8
0
 10
38.4078
 20
8.93303
 11
38.4526
 21
8.97267
  0
LINE
  8
0
 10
38.4526
 20
8.97267
 11
38.5049
 21
9.00099
  0
LINE
  8
0
 10
38.5049
 20
9.00099
 11
38.5645
 21
9.01799
  0
LINE
  8
0
 10
38.5645
 20
9.01799
 11
38.6315
 21
9.02365
  0
LINE
  8
0
 10
38.6315
 20
9.02365
 11
38.6946
 21
9.01851
  0
LINE
  8
0
 10
38.6946
 20
9.01851
 11
38.7518
 21
9.0031
  0
LINE
  8
0
 10
38.7518
 20
9.0031
 11
38.8031
 21
8.97742
  0
LINE
  8
0
 10
38.8031
 20
8.97742
 11
38.8486
 21
8.94145
  0
LINE
  8
0
 10
38.8486
 20
8.94145
 11
38.8858
 21
8.89557
  0
LINE
  8
0
 10
38.8858
 20
8.89557
 11
38.9124
 21
8.84012
  0
LINE
  8
0
 10
38.9124
 20
8.84012
 11
38.9284
 21
8.77509
  0
LINE
  8
0
 10
38.9284
 20
8.77509
 11
38.9337
 21
8.70047
  0
LINE
  8
0
 10
38.9337
 20
8.70047
 11
38.9337
 21
7.43959
  0
LINE
  8
0
 10
38.9337
 20
7.43959
 11
39.5992
 21
7.43959
  0
LINE
  8
0
 10
39.5992
 20
7.43959
 11
39.5992
 21
8.84805
  0
LINE
  8
0
 10
39.5992
 20
8.84805
 11
39.5872
 21
9.0045
  0
LINE
  8
0
 10
39.5872
 20
9.0045
 11
39.5511
 21
9.1432
  0
LINE
  8
0
 10
39.5511
 20
9.1432
 11
39.4911
 21
9.26416
  0
LINE
  8
0
 10
39.4911
 20
9.26416
 11
39.407
 21
9.36736
  0
LINE
  8
0
 10
39.407
 20
9.36736
 11
39.3042
 21
9.44991
  0
LINE
  8
0
 10
39.3042
 20
9.44991
 11
39.1878
 21
9.50887
  0
LINE
  8
0
 10
39.1878
 20
9.50887
 11
39.0579
 21
9.54425
  0
LINE
  8
0
 10
39.0579
 20
9.54425
 11
38.9146
 21
9.55603
  0
LINE
  8
0
 10
38.9146
 20
9.55603
 11
38.8081
 21
9.54897
  0
LINE
  8
0
 10
38.8081
 20
9.54897
 11
38.7049
 21
9.52779
  0
LINE
  8
0
 10
38.7049
 20
9.52779
 11
38.605
 21
9.49246
  0
LINE
  8
0
 10
38.605
 20
9.49246
 11
38.5082
 21
9.44302
  0
LINE
  8
0
 10
38.5082
 20
9.44302
 11
38.4189
 21
9.37746
  0
LINE
  8
0
 10
38.4189
 20
9.37746
 11
38.3411
 21
9.29381
  0
LINE
  8
0
 10
38.3411
 20
9.29381
 11
38.275
 21
9.19206
  0
LINE
  8
0
 10
38.275
 20
9.19206
 11
38.2204
 21
9.0722
  0
LINE
  8
0
 10
38.2204
 20
9.0722
 11
38.1777
 21
9.1913
  0
LINE
  8
0
 10
38.1777
 20
9.1913
 11
38.1279
 21
9.29263
  0
LINE
  8
0
 10
38.1279
 20
9.29263
 11
38.0711
 21
9.37624
  0
LINE
  8
0
 10
38.0711
 20
9.37624
 11
38.0072
 21
9.44208
  0
LINE
  8
0
 10
38.0072
 20
9.44208
 11
37.9355
 21
9.49194
  0
LINE
  8
0
 10
37.9355
 20
9.49194
 11
37.8554
 21
9.52754
  0
LINE
  8
0
 10
37.8554
 20
9.52754
 11
37.7668
 21
9.54892
  0
LINE
  8
0
 10
37.7668
 20
9.54892
 11
37.6696
 21
9.55603
  0
LINE
  8
0
 10
37.6696
 20
9.55603
 11
37.5747
 21
9.54956
  0
LINE
  8
0
 10
37.5747
 20
9.54956
 11
37.483
 21
9.53012
  0
LINE
  8
0
 10
37.483
 20
9.53012
 11
37.3945
 21
9.49771
  0
LINE
  8
0
 10
37.3945
 20
9.49771
 11
37.3092
 21
9.45236
  0
LINE
  8
0
 10
37.3092
 20
9.45236
 11
37.2305
 21
9.39229
  0
LINE
  8
0
 10
37.2305
 20
9.39229
 11
37.1617
 21
9.31575
  0
LINE
  8
0
 10
37.1617
 20
9.31575
 11
37.1028
 21
9.22276
  0
LINE
  8
0
 10
37.1028
 20
9.22276
 11
37.0539
 21
9.11331
  0
LINE
  8
0
 10
37.0539
 20
9.11331
 11
37.0233
 21
9.528
  0
LINE
  8
0
 10
37.0233
 20
9.528
 11
36.4094
 21
9.528
  0
LINE
  8
0
 10
36.4094
 20
9.528
 11
36.4094
 21
7.43959
  0
LINE
  8
0
 10
36.4094
 20
7.43959
 11
37.0768
 21
7.43959
  0
LINE
  8
0
 10
37.0768
 20
7.43959
 11
37.0768
 21
8.67992
  0
LINE
  8
0
 10
29.3016
 20
7.4104
 11
29.4704
 21
7.44052
  0
LINE
  8
0
 10
29.4704
 20
7.44052
 11
29.6223
 21
7.49072
  0
LINE
  8
0
 10
29.6223
 20
7.49072
 11
29.7575
 21
7.561
  0
LINE
  8
0
 10
29.7575
 20
7.561
 11
29.8734
 21
7.64821
  0
LINE
  8
0
 10
29.8734
 20
7.64821
 11
29.9676
 21
7.74921
  0
LINE
  8
0
 10
29.9676
 20
7.74921
 11
30.0402
 21
7.86397
  0
LINE
  8
0
 10
30.0402
 20
7.86397
 11
30.0912
 21
7.99252
  0
LINE
  8
0
 10
30.0912
 20
7.99252
 11
29.4964
 21
8.08777
  0
LINE
  8
0
 10
29.4964
 20
8.08777
 11
29.4728
 21
8.03856
  0
LINE
  8
0
 10
29.4728
 20
8.03856
 11
29.4419
 21
7.99554
  0
LINE
  8
0
 10
29.4419
 20
7.99554
 11
29.4039
 21
7.95871
  0
LINE
  8
0
 10
29.4039
 20
7.95871
 11
29.3587
 21
7.92807
  0
LINE
  8
0
 10
29.3587
 20
7.92807
 11
29.3077
 21
7.90396
  0
LINE
  8
0
 10
29.3077
 20
7.90396
 11
29.2521
 21
7.88675
  0
LINE
  8
0
 10
29.2521
 20
7.88675
 11
29.192
 21
7.87642
  0
LINE
  8
0
 10
29.192
 20
7.87642
 11
29.1273
 21
7.87297
  0
LINE
  8
0
 10
29.1273
 20
7.87297
 11
29.0372
 21
7.88004
  0
LINE
  8
0
 10
29.0372
 20
7.88004
 11
28.956
 21
7.90121
  0
LINE
  8
0
 10
28.956
 20
7.90121
 11
28.8837
 21
7.93652
  0
LINE
  8
0
 10
28.8837
 20
7.93652
 11
28.8204
 21
7.98596
  0
LINE
  8
0
 10
28.8204
 20
7.98596
 11
28.7684
 21
8.04953
  0
LINE
  8
0
 10
28.7684
 20
8.04953
 11
28.7298
 21
8.12723
  0
LINE
  8
0
 10
28.7298
 20
8.12723
 11
28.7048
 21
8.21906
  0
LINE
  8
0
 10
28.7048
 20
8.21906
 11
28.6933
 21
8.32501
  0
LINE
  8
0
 10
28.6933
 20
8.32501
 11
30.1218
 21
8.32501
  0
LINE
  8
0
 10
30.1218
 20
8.32501
 11
30.1218
 21
8.4894
  0
LINE
  8
0
 10
30.1218
 20
8.4894
 11
30.1135
 21
8.65465
  0
LINE
  8
0
 10
30.1135
 20
8.65465
 11
30.0885
 21
8.80672
  0
LINE
  8
0
 10
30.0885
 20
8.80672
 11
30.047
 21
8.94559
  0
LINE
  8
0
 10
30.047
 20
8.94559
 11
29.9889
 21
9.07127
  0
LINE
  8
0
 10
29.9889
 20
9.07127
 11
29.9162
 21
9.18312
  0
LINE
  8
0
 10
29.9162
 20
9.18312
 11
29.8311
 21
9.2805
  0
LINE
  8
0
 10
29.8311
 20
9.2805
 11
29.7336
 21
9.36339
  0
LINE
  8
0
 10
29.7336
 20
9.36339
 11
29.6236
 21
9.43181
  0
LINE
  8
0
 10
29.6236
 20
9.43181
 11
29.5032
 21
9.48534
  0
LINE
  8
0
 10
29.5032
 20
9.48534
 11
29.3743
 21
9.52357
  0
LINE
  8
0
 10
29.3743
 20
9.52357
 11
29.2369
 21
9.54651
  0
LINE
  8
0
 10
29.2369
 20
9.54651
 11
29.091
 21
9.55417
  0
LINE
  8
0
 10
29.091
 20
9.55417
 11
28.9357
 21
9.5457
  0
LINE
  8
0
 10
28.9357
 20
9.5457
 11
28.7908
 21
9.52031
  0
LINE
  8
0
 10
28.7908
 20
9.52031
 11
28.6564
 21
9.47798
  0
LINE
  8
0
 10
28.6564
 20
9.47798
 11
28.5326
 21
9.41873
  0
LINE
  8
0
 10
28.5326
 20
9.41873
 11
28.4208
 21
9.3443
  0
LINE
  8
0
 10
28.4208
 20
9.3443
 11
28.3225
 21
9.25644
  0
LINE
  8
0
 10
28.3225
 20
9.25644
 11
28.2377
 21
9.15515
  0
LINE
  8
0
 10
28.2377
 20
9.15515
 11
28.1664
 21
9.04045
  0
LINE
  8
0
 10
28.1664
 20
9.04045
 11
28.1099
 21
8.91414
  0
LINE
  8
0
 10
28.1099
 20
8.91414
 11
28.0696
 21
8.778
  0
LINE
  8
0
 10
28.0696
 20
8.778
 11
28.0454
 21
8.63206
  0
LINE
  8
0
 10
28.0454
 20
8.63206
 11
28.0373
 21
8.47632
  0
LINE
  8
0
 10
28.0373
 20
8.47632
 11
28.0553
 21
8.23856
  0
LINE
  8
0
 10
28.0553
 20
8.23856
 11
28.1093
 21
8.02777
  0
LINE
  8
0
 10
28.1093
 20
8.02777
 11
28.1992
 21
7.84395
  0
LINE
  8
0
 10
28.1992
 20
7.84395
 11
28.3251
 21
7.6871
  0
LINE
  8
0
 10
28.3251
 20
7.6871
 11
28.4825
 21
7.56165
  0
LINE
  8
0
 10
28.4825
 20
7.56165
 11
28.6667
 21
7.47205
  0
LINE
  8
0
 10
28.6667
 20
7.47205
 11
28.8779
 21
7.41829
  0
LINE
  8
0
 10
28.8779
 20
7.41829
 11
29.1159
 21
7.40036
  0
LINE
  8
0
 10
29.1159
 20
7.40036
 11
29.3016
 21
7.4104
  0
LINE
  8
0
 10
28.6971
 20
8.70421
 11
28.7119
 21
8.78658
  0
LINE
  8
0
 10
28.7119
 20
8.78658
 11
28.737
 21
8.85995
  0
LINE
  8
0
 10
28.737
 20
8.85995
 11
28.7726
 21
8.92435
  0
LINE
  8
0
 10
28.7726
 20
8.92435
 11
28.8185
 21
8.97975
  0
LINE
  8
0
 10
28.8185
 20
8.97975
 11
28.8743
 21
9.02429
  0
LINE
  8
0
 10
28.8743
 20
9.02429
 11
28.9392
 21
9.05609
  0
LINE
  8
0
 10
28.9392
 20
9.05609
 11
29.0134
 21
9.07518
  0
LINE
  8
0
 10
29.0134
 20
9.07518
 11
29.0968
 21
9.08156
  0
LINE
  8
0
 10
29.0968
 20
9.08156
 11
29.1791
 21
9.0753
  0
LINE
  8
0
 10
29.1791
 20
9.0753
 11
29.2521
 21
9.05656
  0
LINE
  8
0
 10
29.2521
 20
9.05656
 11
29.3158
 21
9.02534
  0
LINE
  8
0
 10
29.3158
 20
9.02534
 11
29.3702
 21
8.98161
  0
LINE
  8
0
 10
29.3702
 20
8.98161
 11
29.4149
 21
8.9268
  0
LINE
  8
0
 10
29.4149
 20
8.9268
 11
29.4496
 21
8.8623
  0
LINE
  8
0
 10
29.4496
 20
8.8623
 11
29.4742
 21
8.7881
  0
LINE
  8
0
 10
29.4742
 20
8.7881
 11
29.4888
 21
8.70421
  0
LINE
  8
0
 10
29.4888
 20
8.70421
 11
28.6971
 21
8.70421
  0
LINE
  8
0
 10
32.9545
 20
7.41302
 11
33.1327
 21
7.45103
  0
LINE
  8
0
 10
33.1327
 20
7.45103
 11
33.2921
 21
7.51437
  0
LINE
  8
0
 10
33.2921
 20
7.51437
 11
33.4325
 21
7.60303
  0
LINE
  8
0
 10
33.4325
 20
7.60303
 11
33.5502
 21
7.71365
  0
LINE
  8
0
 10
33.5502
 20
7.71365
 11
33.6414
 21
7.84283
  0
LINE
  8
0
 10
33.6414
 20
7.84283
 11
33.7061
 21
7.99059
  0
LINE
  8
0
 10
33.7061
 20
7.99059
 11
33.7442
 21
8.15691
  0
LINE
  8
0
 10
33.7442
 20
8.15691
 11
33.1284
 21
8.25403
  0
LINE
  8
0
 10
33.1284
 20
8.25403
 11
33.1092
 21
8.17464
  0
LINE
  8
0
 10
33.1092
 20
8.17464
 11
33.0823
 21
8.1046
  0
LINE
  8
0
 10
33.0823
 20
8.1046
 11
33.0476
 21
8.04388
  0
LINE
  8
0
 10
33.0476
 20
8.04388
 11
33.0051
 21
7.99252
  0
LINE
  8
0
 10
33.0051
 20
7.99252
 11
32.9553
 21
7.95166
  0
LINE
  8
0
 10
32.9553
 20
7.95166
 11
32.8987
 21
7.92247
  0
LINE
  8
0
 10
32.8987
 20
7.92247
 11
32.8353
 21
7.90495
  0
LINE
  8
0
 10
32.8353
 20
7.90495
 11
32.7651
 21
7.89911
  0
LINE
  8
0
 10
32.7651
 20
7.89911
 11
32.6748
 21
7.90886
  0
LINE
  8
0
 10
32.6748
 20
7.90886
 11
32.5954
 21
7.93811
  0
LINE
  8
0
 10
32.5954
 20
7.93811
 11
32.5266
 21
7.98683
  0
LINE
  8
0
 10
32.5266
 20
7.98683
 11
32.4687
 21
8.05507
  0
LINE
  8
0
 10
32.4687
 20
8.05507
 11
32.4227
 21
8.14012
  0
LINE
  8
0
 10
32.4227
 20
8.14012
 11
32.3898
 21
8.2393
  0
LINE
  8
0
 10
32.3898
 20
8.2393
 11
32.3701
 21
8.35262
  0
LINE
  8
0
 10
32.3701
 20
8.35262
 11
32.3635
 21
8.48006
  0
LINE
  8
0
 10
32.3635
 20
8.48006
 11
32.3701
 21
8.60806
  0
LINE
  8
0
 10
32.3701
 20
8.60806
 11
32.3898
 21
8.72125
  0
LINE
  8
0
 10
32.3898
 20
8.72125
 11
32.4227
 21
8.81961
  0
LINE
  8
0
 10
32.4227
 20
8.81961
 11
32.4687
 21
8.90314
  0
LINE
  8
0
 10
32.4687
 20
8.90314
 11
32.5266
 21
8.96976
  0
LINE
  8
0
 10
32.5266
 20
8.96976
 11
32.5954
 21
9.01735
  0
LINE
  8
0
 10
32.5954
 20
9.01735
 11
32.6748
 21
9.0459
  0
LINE
  8
0
 10
32.6748
 20
9.0459
 11
32.7651
 21
9.05542
  0
LINE
  8
0
 10
32.7651
 20
9.05542
 11
32.8352
 21
9.0498
  0
LINE
  8
0
 10
32.8352
 20
9.0498
 11
32.8982
 21
9.03299
  0
LINE
  8
0
 10
32.8982
 20
9.03299
 11
32.9542
 21
9.00496
  0
LINE
  8
0
 10
32.9542
 20
9.00496
 11
33.0032
 21
8.96573
  0
LINE
  8
0
 10
33.0032
 20
8.96573
 11
33.0449
 21
8.91623
  0
LINE
  8
0
 10
33.0449
 20
8.91623
 11
33.0794
 21
8.85739
  0
LINE
  8
0
 10
33.0794
 20
8.85739
 11
33.1066
 21
8.7892
  0
LINE
  8
0
 10
33.1066
 20
8.7892
 11
33.1265
 21
8.71169
  0
LINE
  8
0
 10
33.1265
 20
8.71169
 11
33.7423
 21
8.81255
  0
LINE
  8
0
 10
33.7423
 20
8.81255
 11
33.7041
 21
8.97459
  0
LINE
  8
0
 10
33.7041
 20
8.97459
 11
33.6393
 21
9.11891
  0
LINE
  8
0
 10
33.6393
 20
9.11891
 11
33.5477
 21
9.24547
  0
LINE
  8
0
 10
33.5477
 20
9.24547
 11
33.4296
 21
9.35426
  0
LINE
  8
0
 10
33.4296
 20
9.35426
 11
33.289
 21
9.44173
  0
LINE
  8
0
 10
33.289
 20
9.44173
 11
33.1301
 21
9.5042
  0
LINE
  8
0
 10
33.1301
 20
9.5042
 11
32.9529
 21
9.54167
  0
LINE
  8
0
 10
32.9529
 20
9.54167
 11
32.7574
 21
9.55417
  0
LINE
  8
0
 10
32.7574
 20
9.55417
 11
32.596
 21
9.5457
  0
LINE
  8
0
 10
32.596
 20
9.5457
 11
32.4462
 21
9.52031
  0
LINE
  8
0
 10
32.4462
 20
9.52031
 11
32.3082
 21
9.47798
  0
LINE
  8
0
 10
32.3082
 20
9.47798
 11
32.1818
 21
9.41873
  0
LINE
  8
0
 10
32.1818
 20
9.41873
 11
32.0683
 21
9.3443
  0
LINE
  8
0
 10
32.0683
 20
9.3443
 11
31.9688
 21
9.25644
  0
LINE
  8
0
 10
31.9688
 20
9.25644
 11
31.8833
 21
9.15515
  0
LINE
  8
0
 10
31.8833
 20
9.15515
 11
31.8118
 21
9.04045
  0
LINE
  8
0
 10
31.8118
 20
9.04045
 11
31.7553
 21
8.91414
  0
LINE
  8
0
 10
31.7553
 20
8.91414
 11
31.715
 21
8.778
  0
LINE
  8
0
 10
31.715
 20
8.778
 11
31.6908
 21
8.63206
  0
LINE
  8
0
 10
31.6908
 20
8.63206
 11
31.6827
 21
8.47632
  0
LINE
  8
0
 10
31.6827
 20
8.47632
 11
31.6908
 21
8.32063
  0
LINE
  8
0
 10
31.6908
 20
8.32063
 11
31.715
 21
8.17487
  0
LINE
  8
0
 10
31.715
 20
8.17487
 11
31.7553
 21
8.03903
  0
LINE
  8
0
 10
31.7553
 20
8.03903
 11
31.8118
 21
7.9131
  0
LINE
  8
0
 10
31.8118
 20
7.9131
 11
31.8833
 21
7.79881
  0
LINE
  8
0
 10
31.8833
 20
7.79881
 11
31.9688
 21
7.69783
  0
LINE
  8
0
 10
31.9688
 20
7.69783
 11
32.0683
 21
7.61015
  0
LINE
  8
0
 10
32.0683
 20
7.61015
 11
32.1818
 21
7.53577
  0
LINE
  8
0
 10
32.1818
 20
7.53577
 11
32.3082
 21
7.47653
  0
LINE
  8
0
 10
32.3082
 20
7.47653
 11
32.4462
 21
7.43422
  0
LINE
  8
0
 10
32.4462
 20
7.43422
 11
32.596
 21
7.40883
  0
LINE
  8
0
 10
32.596
 20
7.40883
 11
32.7574
 21
7.40036
  0
LINE
  8
0
 10
32.7574
 20
7.40036
 11
32.9545
 21
7.41302
  0
LINE
  8
0
 10
35.1953
 20
7.40883
 11
35.3449
 21
7.43422
  0
LINE
  8
0
 10
35.3449
 20
7.43422
 11
35.4827
 21
7.47653
  0
LINE
  8
0
 10
35.4827
 20
7.47653
 11
35.6086
 21
7.53577
  0
LINE
  8
0
 10
35.6086
 20
7.53577
 11
35.7216
 21
7.61015
  0
LINE
  8
0
 10
35.7216
 20
7.61015
 11
35.8208
 21
7.69783
  0
LINE
  8
0
 10
35.8208
 20
7.69783
 11
35.9062
 21
7.79881
  0
LINE
  8
0
 10
35.9062
 20
7.79881
 11
35.9776
 21
7.9131
  0
LINE
  8
0
 10
35.9776
 20
7.9131
 11
36.0341
 21
8.03903
  0
LINE
  8
0
 10
36.0341
 20
8.03903
 11
36.0745
 21
8.17487
  0
LINE
  8
0
 10
36.0745
 20
8.17487
 11
36.0987
 21
8.32063
  0
LINE
  8
0
 10
36.0987
 20
8.32063
 11
36.1067
 21
8.47632
  0
LINE
  8
0
 10
36.1067
 20
8.47632
 11
36.0987
 21
8.63206
  0
LINE
  8
0
 10
36.0987
 20
8.63206
 11
36.0745
 21
8.778
  0
LINE
  8
0
 10
36.0745
 20
8.778
 11
36.0341
 21
8.91414
  0
LINE
  8
0
 10
36.0341
 20
8.91414
 11
35.9776
 21
9.04045
  0
LINE
  8
0
 10
35.9776
 20
9.04045
 11
35.9062
 21
9.15515
  0
LINE
  8
0
 10
35.9062
 20
9.15515
 11
35.8208
 21
9.25644
  0
LINE
  8
0
 10
35.8208
 20
9.25644
 11
35.7216
 21
9.3443
  0
LINE
  8
0
 10
35.7216
 20
9.3443
 11
35.6086
 21
9.41873
  0
LINE
  8
0
 10
35.6086
 20
9.41873
 11
35.4827
 21
9.47798
  0
LINE
  8
0
 10
35.4827
 20
9.47798
 11
35.3449
 21
9.52031
  0
LINE
  8
0
 10
35.3449
 20
9.52031
 11
35.1953
 21
9.5457
  0
LINE
  8
0
 10
35.1953
 20
9.5457
 11
35.0339
 21
9.55417
  0
LINE
  8
0
 10
35.0339
 20
9.55417
 11
34.8725
 21
9.5457
  0
LINE
  8
0
 10
34.8725
 20
9.5457
 11
34.7227
 21
9.52031
  0
LINE
  8
0
 10
34.7227
 20
9.52031
 11
34.5847
 21
9.47798
  0
LINE
  8
0
 10
34.5847
 20
9.47798
 11
34.4583
 21
9.41873
  0
LINE
  8
0
 10
34.4583
 20
9.41873
 11
34.3448
 21
9.3443
  0
LINE
  8
0
 10
34.3448
 20
9.3443
 11
34.2453
 21
9.25644
  0
LINE
  8
0
 10
34.2453
 20
9.25644
 11
34.1598
 21
9.15515
  0
LINE
  8
0
 10
34.1598
 20
9.15515
 11
34.0883
 21
9.04045
  0
LINE
  8
0
 10
34.0883
 20
9.04045
 11
34.0318
 21
8.91414
  0
LINE
  8
0
 10
34.0318
 20
8.91414
 11
33.9915
 21
8.778
  0
LINE
  8
0
 10
33.9915
 20
8.778
 11
33.9673
 21
8.63206
  0
LINE
  8
0
 10
33.9673
 20
8.63206
 11
33.9592
 21
8.47632
  0
LINE
  8
0
 10
33.9592
 20
8.47632
 11
33.9673
 21
8.32063
  0
LINE
  8
0
 10
33.9673
 20
8.32063
 11
33.9915
 21
8.17487
  0
LINE
  8
0
 10
33.9915
 20
8.17487
 11
34.0318
 21
8.03903
  0
LINE
  8
0
 10
34.0318
 20
8.03903
 11
34.0883
 21
7.9131
  0
LINE
  8
0
 10
34.0883
 20
7.9131
 11
34.1598
 21
7.79881
  0
LINE
  8
0
 10
34.1598
 20
7.79881
 11
34.2453
 21
7.69783
  0
LINE
  8
0
 10
34.2453
 20
7.69783
 11
34.3448
 21
7.61015
  0
LINE
  8
0
 10
34.3448
 20
7.61015
 11
34.4583
 21
7.53577
  0
LINE
  8
0
 10
34.4583
 20
7.53577
 11
34.5847
 21
7.47653
  0
LINE
  8
0
 10
34.5847
 20
7.47653
 11
34.7227
 21
7.43422
  0
LINE
  8
0
 10
34.7227
 20
7.43422
 11
34.8725
 21
7.40883
  0
LINE
  8
0
 10
34.8725
 20
7.40883
 11
35.0339
 21
7.40036
  0
LINE
  8
0
 10
35.0339
 20
7.40036
 11
35.1953
 21
7.40883
  0
LINE
  8
0
 10
34.9439
 20
7.90909
 11
34.8652
 21
7.93904
  0
LINE
  8
0
 10
34.8652
 20
7.93904
 11
34.7976
 21
7.98895
  0
LINE
  8
0
 10
34.7976
 20
7.98895
 11
34.7413
 21
8.05882
  0
LINE
  8
0
 10
34.7413
 20
8.05882
 11
34.697
 21
8.14503
  0
LINE
  8
0
 10
34.697
 20
8.14503
 11
34.6653
 21
8.24399
  0
LINE
  8
0
 10
34.6653
 20
8.24399
 11
34.6463
 21
8.35567
  0
LINE
  8
0
 10
34.6463
 20
8.35567
 11
34.64
 21
8.48006
  0
LINE
  8
0
 10
34.64
 20
8.48006
 11
34.6463
 21
8.60428
  0
LINE
  8
0
 10
34.6463
 20
8.60428
 11
34.6653
 21
8.71542
  0
LINE
  8
0
 10
34.6653
 20
8.71542
 11
34.697
 21
8.81349
  0
LINE
  8
0
 10
34.697
 20
8.81349
 11
34.7413
 21
8.89848
  0
LINE
  8
0
 10
34.7413
 20
8.89848
 11
34.7976
 21
8.96715
  0
LINE
  8
0
 10
34.7976
 20
8.96715
 11
34.8652
 21
9.01617
  0
LINE
  8
0
 10
34.8652
 20
9.01617
 11
34.9439
 21
9.04561
  0
LINE
  8
0
 10
34.9439
 20
9.04561
 11
35.0339
 21
9.05542
  0
LINE
  8
0
 10
35.0339
 20
9.05542
 11
35.1239
 21
9.04561
  0
LINE
  8
0
 10
35.1239
 20
9.04561
 11
35.2027
 21
9.01617
  0
LINE
  8
0
 10
35.2027
 20
9.01617
 11
35.2702
 21
8.96715
  0
LINE
  8
0
 10
35.2702
 20
8.96715
 11
35.3265
 21
8.89848
  0
LINE
  8
0
 10
35.3265
 20
8.89848
 11
35.3708
 21
8.81349
  0
LINE
  8
0
 10
35.3708
 20
8.81349
 11
35.4025
 21
8.71542
  0
LINE
  8
0
 10
35.4025
 20
8.71542
 11
35.4215
 21
8.60428
  0
LINE
  8
0
 10
35.4215
 20
8.60428
 11
35.4279
 21
8.48006
  0
LINE
  8
0
 10
35.4279
 20
8.48006
 11
35.4215
 21
8.35567
  0
LINE
  8
0
 10
35.4215
 20
8.35567
 11
35.4025
 21
8.24399
  0
LINE
  8
0
 10
35.4025
 20
8.24399
 11
35.3708
 21
8.14503
  0
LINE
  8
0
 10
35.3708
 20
8.14503
 11
35.3265
 21
8.05882
  0
LINE
  8
0
 10
35.3265
 20
8.05882
 11
35.2702
 21
7.98895
  0
LINE
  8
0
 10
35.2702
 20
7.98895
 11
35.2027
 21
7.93904
  0
LINE
  8
0
 10
35.2027
 20
7.93904
 11
35.1239
 21
7.90909
  0
LINE
  8
0
 10
35.1239
 20
7.90909
 11
35.0339
 21
7.89911
  0
LINE
  8
0
 10
35.0339
 20
7.89911
 11
34.9439
 21
7.90909
  0
LINE
  8
0
 10
17.7911
 20
8.57906
 11
17.7987
 21
8.66801
  0
LINE
  8
0
 10
17.7987
 20
8.66801
 11
17.8215
 21
8.74811
  0
LINE
  8
0
 10
17.8215
 20
8.74811
 11
17.8594
 21
8.81932
  0
LINE
  8
0
 10
17.8594
 20
8.81932
 11
17.9125
 21
8.88165
  0
LINE
  8
0
 10
17.9125
 20
8.88165
 11
17.9773
 21
8.93233
  0
LINE
  8
0
 10
17.9773
 20
8.93233
 11
18.05
 21
8.96852
  0
LINE
  8
0
 10
18.05
 20
8.96852
 11
18.1307
 21
8.99025
  0
LINE
  8
0
 10
18.1307
 20
8.99025
 11
18.2195
 21
8.99748
  0
LINE
  8
0
 10
18.2195
 20
8.99748
 11
18.2511
 21
8.99696
  0
LINE
  8
0
 10
18.2511
 20
8.99696
 11
18.2847
 21
8.99539
  0
LINE
  8
0
 10
18.2847
 20
8.99539
 11
18.3204
 21
8.99275
  0
LINE
  8
0
 10
18.3204
 20
8.99275
 11
18.3581
 21
8.98909
  0
LINE
  8
0
 10
18.3581
 20
8.98909
 11
18.395
 21
8.98436
  0
LINE
  8
0
 10
18.395
 20
8.98436
 11
18.4281
 21
8.97858
  0
LINE
  8
0
 10
18.4281
 20
8.97858
 11
18.4576
 21
8.97176
  0
LINE
  8
0
 10
18.4576
 20
8.97176
 11
18.4834
 21
8.96388
  0
LINE
  8
0
 10
18.4834
 20
8.96388
 11
18.4834
 21
9.53174
  0
LINE
  8
0
 10
18.4834
 20
9.53174
 11
18.4371
 21
9.54155
  0
LINE
  8
0
 10
18.4371
 20
9.54155
 11
18.3902
 21
9.54855
  0
LINE
  8
0
 10
18.3902
 20
9.54855
 11
18.3425
 21
9.55276
  0
LINE
  8
0
 10
18.3425
 20
9.55276
 11
18.2941
 21
9.55417
  0
LINE
  8
0
 10
18.2941
 20
9.55417
 11
18.2088
 21
9.54785
  0
LINE
  8
0
 10
18.2088
 20
9.54785
 11
18.1289
 21
9.52895
  0
LINE
  8
0
 10
18.1289
 20
9.52895
 11
18.0544
 21
9.49742
  0
LINE
  8
0
 10
18.0544
 20
9.49742
 11
17.9852
 21
9.45329
  0
LINE
  8
0
 10
17.9852
 20
9.45329
 11
17.9235
 21
9.39632
  0
LINE
  8
0
 10
17.9235
 20
9.39632
 11
17.8712
 21
9.32626
  0
LINE
  8
0
 10
17.8712
 20
9.32626
 11
17.8283
 21
9.24315
  0
LINE
  8
0
 10
17.8283
 20
9.24315
 11
17.795
 21
9.14694
  0
LINE
  8
0
 10
17.795
 20
9.14694
 11
17.772
 21
9.14694
  0
LINE
  8
0
 10
17.772
 20
9.14694
 11
17.772
 21
9.528
  0
LINE
  8
0
 10
17.772
 20
9.528
 11
17.1237
 21
9.528
  0
LINE
  8
0
 10
17.1237
 20
9.528
 11
17.1237
 21
7.43959
  0
LINE
  8
0
 10
17.1237
 20
7.43959
 11
17.7911
 21
7.43959
  0
LINE
  8
0
 10
17.7911
 20
7.43959
 11
17.7911
 21
8.57906
  0
LINE
  8
0
 10
24.2332
 20
7.4229
 11
24.4046
 21
7.48489
  0
LINE
  8
0
 10
24.4046
 20
7.48489
 11
24.543
 21
7.58821
  0
LINE
  8
0
 10
24.543
 20
7.58821
 11
24.6484
 21
7.73285
  0
LINE
  8
0
 10
24.6484
 20
7.73285
 11
24.6656
 21
7.73285
  0
LINE
  8
0
 10
24.6656
 20
7.73285
 11
24.6656
 21
7.43959
  0
LINE
  8
0
 10
24.6656
 20
7.43959
 11
25.2929
 21
7.43959
  0
LINE
  8
0
 10
25.2929
 20
7.43959
 11
25.2929
 21
8.85739
  0
LINE
  8
0
 10
25.2929
 20
8.85739
 11
25.2849
 21
8.96521
  0
LINE
  8
0
 10
25.2849
 20
8.96521
 11
25.2611
 21
9.0645
  0
LINE
  8
0
 10
25.2611
 20
9.0645
 11
25.2214
 21
9.15527
  0
LINE
  8
0
 10
25.2214
 20
9.15527
 11
25.1657
 21
9.2375
  0
LINE
  8
0
 10
25.1657
 20
9.2375
 11
25.0966
 21
9.31078
  0
LINE
  8
0
 10
25.0966
 20
9.31078
 11
25.0165
 21
9.37457
  0
LINE
  8
0
 10
25.0165
 20
9.37457
 11
24.9255
 21
9.42892
  0
LINE
  8
0
 10
24.9255
 20
9.42892
 11
24.8234
 21
9.47382
  0
LINE
  8
0
 10
24.8234
 20
9.47382
 11
24.7127
 21
9.50896
  0
LINE
  8
0
 10
24.7127
 20
9.50896
 11
24.5956
 21
9.53407
  0
LINE
  8
0
 10
24.5956
 20
9.53407
 11
24.4722
 21
9.54913
  0
LINE
  8
0
 10
24.4722
 20
9.54913
 11
24.3425
 21
9.55417
  0
LINE
  8
0
 10
24.3425
 20
9.55417
 11
24.1514
 21
9.54372
  0
LINE
  8
0
 10
24.1514
 20
9.54372
 11
23.9798
 21
9.51236
  0
LINE
  8
0
 10
23.9798
 20
9.51236
 11
23.8277
 21
9.46011
  0
LINE
  8
0
 10
23.8277
 20
9.46011
 11
23.6951
 21
9.38696
  0
LINE
  8
0
 10
23.6951
 20
9.38696
 11
23.5837
 21
9.29713
  0
LINE
  8
0
 10
23.5837
 20
9.29713
 11
23.4951
 21
9.19481
  0
LINE
  8
0
 10
23.4951
 20
9.19481
 11
23.4293
 21
9.07999
  0
LINE
  8
0
 10
23.4293
 20
9.07999
 11
23.3863
 21
8.95267
  0
LINE
  8
0
 10
23.3863
 20
8.95267
 11
23.9906
 21
8.87607
  0
LINE
  8
0
 10
23.9906
 20
8.87607
 11
24.0079
 21
8.923
  0
LINE
  8
0
 10
24.0079
 20
8.923
 11
24.0331
 21
8.96478
  0
LINE
  8
0
 10
24.0331
 20
8.96478
 11
24.0662
 21
9.00143
  0
LINE
  8
0
 10
24.0662
 20
9.00143
 11
24.1072
 21
9.03296
  0
LINE
  8
0
 10
24.1072
 20
9.03296
 11
24.1553
 21
9.0583
  0
LINE
  8
0
 10
24.1553
 20
9.0583
 11
24.2095
 21
9.0764
  0
LINE
  8
0
 10
24.2095
 20
9.0764
 11
24.27
 21
9.08727
  0
LINE
  8
0
 10
24.27
 20
9.08727
 11
24.3367
 21
9.0909
  0
LINE
  8
0
 10
24.3367
 20
9.0909
 11
24.401
 21
9.08722
  0
LINE
  8
0
 10
24.401
 20
9.08722
 11
24.4579
 21
9.07617
  0
LINE
  8
0
 10
24.4579
 20
9.07617
 11
24.5076
 21
9.05779
  0
LINE
  8
0
 10
24.5076
 20
9.05779
 11
24.5499
 21
9.03206
  0
LINE
  8
0
 10
24.5499
 20
9.03206
 11
24.5838
 21
8.99954
  0
LINE
  8
0
 10
24.5838
 20
8.99954
 11
24.608
 21
8.96083
  0
LINE
  8
0
 10
24.608
 20
8.96083
 11
24.6225
 21
8.91594
  0
LINE
  8
0
 10
24.6225
 20
8.91594
 11
24.6274
 21
8.86485
  0
LINE
  8
0
 10
24.6274
 20
8.86485
 11
24.6274
 21
8.85739
  0
LINE
  8
0
 10
24.6274
 20
8.85739
 11
24.62
 21
8.81285
  0
LINE
  8
0
 10
24.62
 20
8.81285
 11
24.598
 21
8.77638
  0
LINE
  8
0
 10
24.598
 20
8.77638
 11
24.5612
 21
8.74794
  0
LINE
  8
0
 10
24.5612
 20
8.74794
 11
24.5098
 21
8.72757
  0
LINE
  8
0
 10
24.5098
 20
8.72757
 11
24.4413
 21
8.71187
  0
LINE
  8
0
 10
24.4413
 20
8.71187
 11
24.3537
 21
8.69745
  0
LINE
  8
0
 10
24.3537
 20
8.69745
 11
24.2468
 21
8.68431
  0
LINE
  8
0
 10
24.2468
 20
8.68431
 11
24.1206
 21
8.67245
  0
LINE
  8
0
 10
24.1206
 20
8.67245
 11
24.0148
 21
8.6602
  0
LINE
  8
0
 10
24.0148
 20
8.6602
 11
23.9134
 21
8.64211
  0
LINE
  8
0
 10
23.9134
 20
8.64211
 11
23.8164
 21
8.61816
  0
LINE
  8
0
 10
23.8164
 20
8.61816
 11
23.7238
 21
8.58839
  0
LINE
  8
0
 10
23.7238
 20
8.58839
 11
23.6379
 21
8.55127
  0
LINE
  8
0
 10
23.6379
 20
8.55127
 11
23.561
 21
8.50528
  0
LINE
  8
0
 10
23.561
 20
8.50528
 11
23.4931
 21
8.45041
  0
LINE
  8
0
 10
23.4931
 20
8.45041
 11
23.4341
 21
8.38666
  0
LINE
  8
0
 10
23.4341
 20
8.38666
 11
23.3864
 21
8.31252
  0
LINE
  8
0
 10
23.3864
 20
8.31252
 11
23.3523
 21
8.22649
  0
LINE
  8
0
 10
23.3523
 20
8.22649
 11
23.3319
 21
8.12852
  0
LINE
  8
0
 10
23.3319
 20
8.12852
 11
23.3251
 21
8.01866
  0
LINE
  8
0
 10
23.3251
 20
8.01866
 11
23.3375
 21
7.87343
  0
LINE
  8
0
 10
23.3375
 20
7.87343
 11
23.3746
 21
7.7478
  0
LINE
  8
0
 10
23.3746
 20
7.7478
 11
23.4364
 21
7.6418
  0
LINE
  8
0
 10
23.4364
 20
7.6418
 11
23.523
 21
7.5554
  0
LINE
  8
0
 10
23.523
 20
7.5554
 11
23.6289
 21
7.4884
  0
LINE
  8
0
 10
23.6289
 20
7.4884
 11
23.7484
 21
7.44054
  0
LINE
  8
0
 10
23.7484
 20
7.44054
 11
23.8818
 21
7.4118
  0
LINE
  8
0
 10
23.8818
 20
7.4118
 11
24.0288
 21
7.40224
  0
LINE
  8
0
 10
24.0288
 20
7.40224
 11
24.2332
 21
7.4229
  0
LINE
  8
0
 10
24.174
 20
7.83716
 11
24.1218
 21
7.8475
  0
LINE
  8
0
 10
24.1218
 20
7.8475
 11
24.075
 21
7.86473
  0
LINE
  8
0
 10
24.075
 20
7.86473
 11
24.0336
 21
7.88884
  0
LINE
  8
0
 10
24.0336
 20
7.88884
 11
23.9997
 21
7.91949
  0
LINE
  8
0
 10
23.9997
 20
7.91949
 11
23.9755
 21
7.95633
  0
LINE
  8
0
 10
23.9755
 20
7.95633
 11
23.961
 21
7.99934
  0
LINE
  8
0
 10
23.961
 20
7.99934
 11
23.9562
 21
8.04854
  0
LINE
  8
0
 10
23.9562
 20
8.04854
 11
23.9754
 21
8.14043
  0
LINE
  8
0
 10
23.9754
 20
8.14043
 11
24.0331
 21
8.21246
  0
LINE
  8
0
 10
24.0331
 20
8.21246
 11
24.1293
 21
8.26465
  0
LINE
  8
0
 10
24.1293
 20
8.26465
 11
24.264
 21
8.297
  0
LINE
  8
0
 10
24.264
 20
8.297
 11
24.3119
 21
8.30481
  0
LINE
  8
0
 10
24.3119
 20
8.30481
 11
24.3616
 21
8.31332
  0
LINE
  8
0
 10
24.3616
 20
8.31332
 11
24.4132
 21
8.32256
  0
LINE
  8
0
 10
24.4132
 20
8.32256
 11
24.4667
 21
8.33247
  0
LINE
  8
0
 10
24.4667
 20
8.33247
 11
24.518
 21
8.34334
  0
LINE
  8
0
 10
24.518
 20
8.34334
 11
24.5628
 21
8.35536
  0
LINE
  8
0
 10
24.5628
 20
8.35536
 11
24.6012
 21
8.36856
  0
LINE
  8
0
 10
24.6012
 20
8.36856
 11
24.6331
 21
8.38293
  0
LINE
  8
0
 10
24.6331
 20
8.38293
 11
24.6331
 21
8.18304
  0
LINE
  8
0
 10
24.6331
 20
8.18304
 11
24.6258
 21
8.10913
  0
LINE
  8
0
 10
24.6258
 20
8.10913
 11
24.604
 21
8.04247
  0
LINE
  8
0
 10
24.604
 20
8.04247
 11
24.5675
 21
7.98303
  0
LINE
  8
0
 10
24.5675
 20
7.98303
 11
24.5165
 21
7.93085
  0
LINE
  8
0
 10
24.5165
 20
7.93085
 11
24.4549
 21
7.88835
  0
LINE
  8
0
 10
24.4549
 20
7.88835
 11
24.3869
 21
7.858
  0
LINE
  8
0
 10
24.3869
 20
7.858
 11
24.3125
 21
7.8398
  0
LINE
  8
0
 10
24.3125
 20
7.8398
 11
24.2315
 21
7.83372
  0
LINE
  8
0
 10
24.2315
 20
7.83372
 11
24.174
 21
7.83716
  0
LINE
  8
0
 10
14.5483
 20
7.4104
 11
14.7171
 21
7.44052
  0
LINE
  8
0
 10
14.7171
 20
7.44052
 11
14.8691
 21
7.49072
  0
LINE
  8
0
 10
14.8691
 20
7.49072
 11
15.0042
 21
7.561
  0
LINE
  8
0
 10
15.0042
 20
7.561
 11
15.1201
 21
7.64821
  0
LINE
  8
0
 10
15.1201
 20
7.64821
 11
15.2143
 21
7.74921
  0
LINE
  8
0
 10
15.2143
 20
7.74921
 11
15.2869
 21
7.86397
  0
LINE
  8
0
 10
15.2869
 20
7.86397
 11
15.3379
 21
7.99252
  0
LINE
  8
0
 10
15.3379
 20
7.99252
 11
14.7431
 21
8.08777
  0
LINE
  8
0
 10
14.7431
 20
8.08777
 11
14.7195
 21
8.03856
  0
LINE
  8
0
 10
14.7195
 20
8.03856
 11
14.6887
 21
7.99554
  0
LINE
  8
0
 10
14.6887
 20
7.99554
 11
14.6507
 21
7.95871
  0
LINE
  8
0
 10
14.6507
 20
7.95871
 11
14.6055
 21
7.92807
  0
LINE
  8
0
 10
14.6055
 20
7.92807
 11
14.5544
 21
7.90396
  0
LINE
  8
0
 10
14.5544
 20
7.90396
 11
14.4989
 21
7.88675
  0
LINE
  8
0
 10
14.4989
 20
7.88675
 11
14.4387
 21
7.87642
  0
LINE
  8
0
 10
14.4387
 20
7.87642
 11
14.3741
 21
7.87297
  0
LINE
  8
0
 10
14.3741
 20
7.87297
 11
14.2839
 21
7.88004
  0
LINE
  8
0
 10
14.2839
 20
7.88004
 11
14.2027
 21
7.90121
  0
LINE
  8
0
 10
14.2027
 20
7.90121
 11
14.1304
 21
7.93652
  0
LINE
  8
0
 10
14.1304
 20
7.93652
 11
14.0672
 21
7.98596
  0
LINE
  8
0
 10
14.0672
 20
7.98596
 11
14.0151
 21
8.04953
  0
LINE
  8
0
 10
14.0151
 20
8.04953
 11
13.9766
 21
8.12723
  0
LINE
  8
0
 10
13.9766
 20
8.12723
 11
13.9515
 21
8.21906
  0
LINE
  8
0
 10
13.9515
 20
8.21906
 11
13.94
 21
8.32501
  0
LINE
  8
0
 10
13.94
 20
8.32501
 11
15.3685
 21
8.32501
  0
LINE
  8
0
 10
15.3685
 20
8.32501
 11
15.3685
 21
8.4894
  0
LINE
  8
0
 10
15.3685
 20
8.4894
 11
15.3602
 21
8.65465
  0
LINE
  8
0
 10
15.3602
 20
8.65465
 11
15.3353
 21
8.80672
  0
LINE
  8
0
 10
15.3353
 20
8.80672
 11
15.2937
 21
8.94559
  0
LINE
  8
0
 10
15.2937
 20
8.94559
 11
15.2356
 21
9.07127
  0
LINE
  8
0
 10
15.2356
 20
9.07127
 11
15.1629
 21
9.18312
  0
LINE
  8
0
 10
15.1629
 20
9.18312
 11
15.0778
 21
9.2805
  0
LINE
  8
0
 10
15.0778
 20
9.2805
 11
14.9803
 21
9.36339
  0
LINE
  8
0
 10
14.9803
 20
9.36339
 11
14.8703
 21
9.43181
  0
LINE
  8
0
 10
14.8703
 20
9.43181
 11
14.7499
 21
9.48534
  0
LINE
  8
0
 10
14.7499
 20
9.48534
 11
14.621
 21
9.52357
  0
LINE
  8
0
 10
14.621
 20
9.52357
 11
14.4836
 21
9.54651
  0
LINE
  8
0
 10
14.4836
 20
9.54651
 11
14.3378
 21
9.55417
  0
LINE
  8
0
 10
14.3378
 20
9.55417
 11
14.1824
 21
9.5457
  0
LINE
  8
0
 10
14.1824
 20
9.5457
 11
14.0375
 21
9.52031
  0
LINE
  8
0
 10
14.0375
 20
9.52031
 11
13.9032
 21
9.47798
  0
LINE
  8
0
 10
13.9032
 20
9.47798
 11
13.7793
 21
9.41873
  0
LINE
  8
0
 10
13.7793
 20
9.41873
 11
13.6675
 21
9.3443
  0
LINE
  8
0
 10
13.6675
 20
9.3443
 11
13.5692
 21
9.25644
  0
LINE
  8
0
 10
13.5692
 20
9.25644
 11
13.4844
 21
9.15515
  0
LINE
  8
0
 10
13.4844
 20
9.15515
 11
13.4131
 21
9.04045
  0
LINE
  8
0
 10
13.4131
 20
9.04045
 11
13.3567
 21
8.91414
  0
LINE
  8
0
 10
13.3567
 20
8.91414
 11
13.3163
 21
8.778
  0
LINE
  8
0
 10
13.3163
 20
8.778
 11
13.2921
 21
8.63206
  0
LINE
  8
0
 10
13.2921
 20
8.63206
 11
13.2841
 21
8.47632
  0
LINE
  8
0
 10
13.2841
 20
8.47632
 11
13.302
 21
8.23856
  0
LINE
  8
0
 10
13.302
 20
8.23856
 11
13.356
 21
8.02777
  0
LINE
  8
0
 10
13.356
 20
8.02777
 11
13.4459
 21
7.84395
  0
LINE
  8
0
 10
13.4459
 20
7.84395
 11
13.5719
 21
7.6871
  0
LINE
  8
0
 10
13.5719
 20
7.6871
 11
13.7292
 21
7.56165
  0
LINE
  8
0
 10
13.7292
 20
7.56165
 11
13.9135
 21
7.47205
  0
LINE
  8
0
 10
13.9135
 20
7.47205
 11
14.1246
 21
7.41829
  0
LINE
  8
0
 10
14.1246
 20
7.41829
 11
14.3626
 21
7.40036
  0
LINE
  8
0
 10
14.3626
 20
7.40036
 11
14.5483
 21
7.4104
  0
LINE
  8
0
 10
13.9438
 20
8.70421
 11
13.9586
 21
8.78658
  0
LINE
  8
0
 10
13.9586
 20
8.78658
 11
13.9837
 21
8.85995
  0
LINE
  8
0
 10
13.9837
 20
8.85995
 11
14.0193
 21
8.92435
  0
LINE
  8
0
 10
14.0193
 20
8.92435
 11
14.0652
 21
8.97975
  0
LINE
  8
0
 10
14.0652
 20
8.97975
 11
14.121
 21
9.02429
  0
LINE
  8
0
 10
14.121
 20
9.02429
 11
14.1859
 21
9.05609
  0
LINE
  8
0
 10
14.1859
 20
9.05609
 11
14.2601
 21
9.07518
  0
LINE
  8
0
 10
14.2601
 20
9.07518
 11
14.3435
 21
9.08156
  0
LINE
  8
0
 10
14.3435
 20
9.08156
 11
14.4258
 21
9.0753
  0
LINE
  8
0
 10
14.4258
 20
9.0753
 11
14.4989
 21
9.05656
  0
LINE
  8
0
 10
14.4989
 20
9.05656
 11
14.5626
 21
9.02534
  0
LINE
  8
0
 10
14.5626
 20
9.02534
 11
14.6169
 21
8.98161
  0
LINE
  8
0
 10
14.6169
 20
8.98161
 11
14.6617
 21
8.9268
  0
LINE
  8
0
 10
14.6617
 20
8.9268
 11
14.6963
 21
8.8623
  0
LINE
  8
0
 10
14.6963
 20
8.8623
 11
14.7209
 21
8.7881
  0
LINE
  8
0
 10
14.7209
 20
8.7881
 11
14.7355
 21
8.70421
  0
LINE
  8
0
 10
14.7355
 20
8.70421
 11
13.9438
 21
8.70421
  0
LINE
  8
0
 10
19.4065
 20
9.528
 11
18.7391
 21
9.528
  0
LINE
  8
0
 10
18.7391
 20
9.528
 11
18.7391
 21
7.43959
  0
LINE
  8
0
 10
18.7391
 20
7.43959
 11
19.4065
 21
7.43959
  0
LINE
  8
0
 10
19.4065
 20
7.43959
 11
19.4065
 21
9.528
  0
LINE
  8
0
 10
8.19412
 20
1.33881
 11
8.24406
 21
1.39435
  0
LINE
  8
0
 10
8.24406
 20
1.39435
 11
8.29105
 21
1.45079
  0
LINE
  8
0
 10
8.29105
 20
1.45079
 11
8.3351
 21
1.5083
  0
LINE
  8
0
 10
8.3351
 20
1.5083
 11
8.37625
 21
1.56702
  0
LINE
  8
0
 10
8.37625
 20
1.56702
 11
8.41452
 21
1.62709
  0
LINE
  8
0
 10
8.41452
 20
1.62709
 11
8.44995
 21
1.68867
  0
LINE
  8
0
 10
8.44995
 20
1.68867
 11
8.48257
 21
1.75192
  0
LINE
  8
0
 10
8.48257
 20
1.75192
 11
8.51241
 21
1.81699
  0
LINE
  8
0
 10
8.51241
 20
1.81699
 11
8.53949
 21
1.88403
  0
LINE
  8
0
 10
8.53949
 20
1.88403
 11
8.56384
 21
1.95317
  0
LINE
  8
0
 10
8.56384
 20
1.95317
 11
8.58551
 21
2.0246
  0
LINE
  8
0
 10
8.58551
 20
2.0246
 11
8.60451
 21
2.09843
  0
LINE
  8
0
 10
8.60451
 20
2.09843
 11
8.62088
 21
2.17485
  0
LINE
  8
0
 10
8.62088
 20
2.17485
 11
8.63466
 21
2.25398
  0
LINE
  8
0
 10
8.63466
 20
2.25398
 11
8.64586
 21
2.336
  0
LINE
  8
0
 10
8.64586
 20
2.336
 11
8.65451
 21
2.42102
  0
LINE
  8
0
 10
8.65451
 20
2.42102
 11
8.66066
 21
2.50923
  0
LINE
  8
0
 10
8.66066
 20
2.50923
 11
8.66432
 21
2.60077
  0
LINE
  8
0
 10
8.66432
 20
2.60077
 11
8.66554
 21
2.69579
  0
LINE
  8
0
 10
8.66554
 20
2.69579
 11
8.66554
 21
8.94789
  0
LINE
  8
0
 10
8.66554
 20
8.94789
 11
6.12436
 21
7.57646
  0
LINE
  8
0
 10
6.12436
 20
7.57646
 11
6.12436
 21
2.61511
  0
LINE
  8
0
 10
6.12436
 20
2.61511
 11
8.14117
 21
1.28403
  0
LINE
  8
0
 10
8.14117
 20
1.28403
 11
8.19412
 21
1.33881
  0
LINE
  8
0
 10
30.9605
 20
7.4066
 11
31.0278
 21
7.42534
  0
LINE
  8
0
 10
31.0278
 20
7.42534
 11
31.0891
 21
7.45657
  0
LINE
  8
0
 10
31.0891
 20
7.45657
 11
31.1442
 21
7.50029
  0
LINE
  8
0
 10
31.1442
 20
7.50029
 11
31.1898
 21
7.55324
  0
LINE
  8
0
 10
31.1898
 20
7.55324
 11
31.2224
 21
7.61214
  0
LINE
  8
0
 10
31.2224
 20
7.61214
 11
31.2419
 21
7.677
  0
LINE
  8
0
 10
31.2419
 20
7.677
 11
31.2484
 21
7.7478
  0
LINE
  8
0
 10
31.2484
 20
7.7478
 11
31.2419
 21
7.81943
  0
LINE
  8
0
 10
31.2419
 20
7.81943
 11
31.2224
 21
7.88487
  0
LINE
  8
0
 10
31.2224
 20
7.88487
 11
31.1898
 21
7.94411
  0
LINE
  8
0
 10
31.1898
 20
7.94411
 11
31.1442
 21
7.99718
  0
LINE
  8
0
 10
31.1442
 20
7.99718
 11
31.0891
 21
8.04091
  0
LINE
  8
0
 10
31.0891
 20
8.04091
 11
31.0278
 21
8.07214
  0
LINE
  8
0
 10
31.0278
 20
8.07214
 11
30.9605
 21
8.09088
  0
LINE
  8
0
 10
30.9605
 20
8.09088
 11
30.887
 21
8.09714
  0
LINE
  8
0
 10
30.887
 20
8.09714
 11
30.8136
 21
8.09088
  0
LINE
  8
0
 10
30.8136
 20
8.09088
 11
30.7462
 21
8.07214
  0
LINE
  8
0
 10
30.7462
 20
8.07214
 11
30.685
 21
8.04091
  0
LINE
  8
0
 10
30.685
 20
8.04091
 11
30.6298
 21
7.99718
  0
LINE
  8
0
 10
30.6298
 20
7.99718
 11
30.5842
 21
7.94411
  0
LINE
  8
0
 10
30.5842
 20
7.94411
 11
30.5517
 21
7.88487
  0
LINE
  8
0
 10
30.5517
 20
7.88487
 11
30.5321
 21
7.81943
  0
LINE
  8
0
 10
30.5321
 20
7.81943
 11
30.5256
 21
7.7478
  0
LINE
  8
0
 10
30.5256
 20
7.7478
 11
30.5321
 21
7.677
  0
LINE
  8
0
 10
30.5321
 20
7.677
 11
30.5517
 21
7.61214
  0
LINE
  8
0
 10
30.5517
 20
7.61214
 11
30.5842
 21
7.55324
  0
LINE
  8
0
 10
30.5842
 20
7.55324
 11
30.6298
 21
7.50029
  0
LINE
  8
0
 10
30.6298
 20
7.50029
 11
30.685
 21
7.45657
  0
LINE
  8
0
 10
30.685
 20
7.45657
 11
30.7462
 21
7.42534
  0
LINE
  8
0
 10
30.7462
 20
7.42534
 11
30.8136
 21
7.4066
  0
LINE
  8
0
 10
30.8136
 20
7.4066
 11
30.887
 21
7.40036
  0
LINE
  8
0
 10
30.887
 20
7.40036
 11
30.9605
 21
7.4066
  0
LINE
  8
0
 10
37.6152
 20
4.00702
 11
37.7679
 21
4.02658
  0
LINE
  8
0
 10
37.7679
 20
4.02658
 11
37.9109
 21
4.05917
  0
LINE
  8
0
 10
37.9109
 20
4.05917
 11
38.0444
 21
4.1048
  0
LINE
  8
0
 10
38.0444
 20
4.1048
 11
38.166
 21
4.16182
  0
LINE
  8
0
 10
38.166
 20
4.16182
 11
38.2736
 21
4.22856
  0
LINE
  8
0
 10
38.2736
 20
4.22856
 11
38.3672
 21
4.30502
  0
LINE
  8
0
 10
38.3672
 20
4.30502
 11
38.4467
 21
4.39119
  0
LINE
  8
0
 10
38.4467
 20
4.39119
 11
38.5101
 21
4.48561
  0
LINE
  8
0
 10
38.5101
 20
4.48561
 11
38.5554
 21
4.58679
  0
LINE
  8
0
 10
38.5554
 20
4.58679
 11
38.5826
 21
4.69472
  0
LINE
  8
0
 10
38.5826
 20
4.69472
 11
38.5917
 21
4.80939
  0
LINE
  8
0
 10
38.5917
 20
4.80939
 11
38.5812
 21
4.93039
  0
LINE
  8
0
 10
38.5812
 20
4.93039
 11
38.5497
 21
5.04088
  0
LINE
  8
0
 10
38.5497
 20
5.04088
 11
38.4972
 21
5.14084
  0
LINE
  8
0
 10
38.4972
 20
5.14084
 11
38.4236
 21
5.23029
  0
LINE
  8
0
 10
38.4236
 20
5.23029
 11
38.3296
 21
5.30635
  0
LINE
  8
0
 10
38.3296
 20
5.30635
 11
38.2155
 21
5.36618
  0
LINE
  8
0
 10
38.2155
 20
5.36618
 11
38.0814
 21
5.40976
  0
LINE
  8
0
 10
38.0814
 20
5.40976
 11
37.9272
 21
5.43709
  0
LINE
  8
0
 10
37.9272
 20
5.43709
 11
37.9272
 21
5.45723
  0
LINE
  8
0
 10
37.9272
 20
5.45723
 11
38.0454
 21
5.48181
  0
LINE
  8
0
 10
38.0454
 20
5.48181
 11
38.1522
 21
5.52081
  0
LINE
  8
0
 10
38.1522
 20
5.52081
 11
38.2475
 21
5.57422
  0
LINE
  8
0
 10
38.2475
 20
5.57422
 11
38.3315
 21
5.64204
  0
LINE
  8
0
 10
38.3315
 20
5.64204
 11
38.3999
 21
5.722
  0
LINE
  8
0
 10
38.3999
 20
5.722
 11
38.4489
 21
5.8118
  0
LINE
  8
0
 10
38.4489
 20
5.8118
 11
38.4782
 21
5.91142
  0
LINE
  8
0
 10
38.4782
 20
5.91142
 11
38.488
 21
6.02089
  0
LINE
  8
0
 10
38.488
 20
6.02089
 11
38.4799
 21
6.1288
  0
LINE
  8
0
 10
38.4799
 20
6.1288
 11
38.4556
 21
6.23111
  0
LINE
  8
0
 10
38.4556
 20
6.23111
 11
38.4151
 21
6.3278
  0
LINE
  8
0
 10
38.4151
 20
6.3278
 11
38.3584
 21
6.4189
  0
LINE
  8
0
 10
38.3584
 20
6.4189
 11
38.2872
 21
6.50258
  0
LINE
  8
0
 10
38.2872
 20
6.50258
 11
38.2033
 21
6.577
  0
LINE
  8
0
 10
38.2033
 20
6.577
 11
38.1067
 21
6.64214
  0
LINE
  8
0
 10
38.1067
 20
6.64214
 11
37.9973
 21
6.69801
  0
LINE
  8
0
 10
37.9973
 20
6.69801
 11
37.8771
 21
6.74286
  0
LINE
  8
0
 10
37.8771
 20
6.74286
 11
37.7479
 21
6.77487
  0
LINE
  8
0
 10
37.7479
 20
6.77487
 11
37.6097
 21
6.7941
  0
LINE
  8
0
 10
37.6097
 20
6.7941
 11
37.4625
 21
6.80051
  0
LINE
  8
0
 10
37.4625
 20
6.80051
 11
37.313
 21
6.79393
  0
LINE
  8
0
 10
37.313
 20
6.79393
 11
37.1718
 21
6.77419
  0
LINE
  8
0
 10
37.1718
 20
6.77419
 11
37.0389
 21
6.7413
  0
LINE
  8
0
 10
37.0389
 20
6.7413
 11
36.9142
 21
6.69527
  0
LINE
  8
0
 10
36.9142
 20
6.69527
 11
36.8001
 21
6.63768
  0
LINE
  8
0
 10
36.8001
 20
6.63768
 11
36.6987
 21
6.57013
  0
LINE
  8
0
 10
36.6987
 20
6.57013
 11
36.61
 21
6.49265
  0
LINE
  8
0
 10
36.61
 20
6.49265
 11
36.534
 21
6.4052
  0
LINE
  8
0
 10
36.534
 20
6.4052
 11
36.473
 21
6.30923
  0
LINE
  8
0
 10
36.473
 20
6.30923
 11
36.4291
 21
6.20618
  0
LINE
  8
0
 10
36.4291
 20
6.20618
 11
36.4024
 21
6.09604
  0
LINE
  8
0
 10
36.4024
 20
6.09604
 11
36.3929
 21
5.97879
  0
LINE
  8
0
 10
36.3929
 20
5.97879
 11
37.0439
 21
5.97879
  0
LINE
  8
0
 10
37.0439
 20
5.97879
 11
37.0522
 21
6.04662
  0
LINE
  8
0
 10
37.0522
 20
6.04662
 11
37.0753
 21
6.10735
  0
LINE
  8
0
 10
37.0753
 20
6.10735
 11
37.1132
 21
6.16098
  0
LINE
  8
0
 10
37.1132
 20
6.16098
 11
37.1658
 21
6.20752
  0
LINE
  8
0
 10
37.1658
 20
6.20752
 11
37.2292
 21
6.24516
  0
LINE
  8
0
 10
37.2292
 20
6.24516
 11
37.2995
 21
6.27205
  0
LINE
  8
0
 10
37.2995
 20
6.27205
 11
37.3766
 21
6.28818
  0
LINE
  8
0
 10
37.3766
 20
6.28818
 11
37.4606
 21
6.29355
  0
LINE
  8
0
 10
37.4606
 20
6.29355
 11
37.5393
 21
6.28812
  0
LINE
  8
0
 10
37.5393
 20
6.28812
 11
37.6104
 21
6.27182
  0
LINE
  8
0
 10
37.6104
 20
6.27182
 11
37.6737
 21
6.24466
  0
LINE
  8
0
 10
37.6737
 20
6.24466
 11
37.7294
 21
6.20663
  0
LINE
  8
0
 10
37.7294
 20
6.20663
 11
37.7748
 21
6.15991
  0
LINE
  8
0
 10
37.7748
 20
6.15991
 11
37.8072
 21
6.10667
  0
LINE
  8
0
 10
37.8072
 20
6.10667
 11
37.8266
 21
6.04692
  0
LINE
  8
0
 10
37.8266
 20
6.04692
 11
37.8331
 21
5.98064
  0
LINE
  8
0
 10
37.8331
 20
5.98064
 11
37.8256
 21
5.91171
  0
LINE
  8
0
 10
37.8256
 20
5.91171
 11
37.8029
 21
5.84955
  0
LINE
  8
0
 10
37.8029
 20
5.84955
 11
37.7651
 21
5.79413
  0
LINE
  8
0
 10
37.7651
 20
5.79413
 11
37.7121
 21
5.74545
  0
LINE
  8
0
 10
37.7121
 20
5.74545
 11
37.6473
 21
5.70583
  0
LINE
  8
0
 10
37.6473
 20
5.70583
 11
37.5739
 21
5.67751
  0
LINE
  8
0
 10
37.5739
 20
5.67751
 11
37.4918
 21
5.66052
  0
LINE
  8
0
 10
37.4918
 20
5.66052
 11
37.401
 21
5.65486
  0
LINE
  8
0
 10
37.401
 20
5.65486
 11
37.1226
 21
5.65486
  0
LINE
  8
0
 10
37.1226
 20
5.65486
 11
37.1226
 21
5.19368
  0
LINE
  8
0
 10
37.1226
 20
5.19368
 11
37.401
 21
5.19368
  0
LINE
  8
0
 10
37.401
 20
5.19368
 11
37.505
 21
5.18785
  0
LINE
  8
0
 10
37.505
 20
5.18785
 11
37.5979
 21
5.17035
  0
LINE
  8
0
 10
37.5979
 20
5.17035
 11
37.6797
 21
5.14119
  0
LINE
  8
0
 10
37.6797
 20
5.14119
 11
37.7505
 21
5.10034
  0
LINE
  8
0
 10
37.7505
 20
5.10034
 11
37.8077
 21
5.05025
  0
LINE
  8
0
 10
37.8077
 20
5.05025
 11
37.8485
 21
4.9933
  0
LINE
  8
0
 10
37.8485
 20
4.9933
 11
37.873
 21
4.92949
  0
LINE
  8
0
 10
37.873
 20
4.92949
 11
37.8811
 21
4.8588
  0
LINE
  8
0
 10
37.8811
 20
4.8588
 11
37.8738
 21
4.78822
  0
LINE
  8
0
 10
37.8738
 20
4.78822
 11
37.8516
 21
4.72475
  0
LINE
  8
0
 10
37.8516
 20
4.72475
 11
37.8147
 21
4.66837
  0
LINE
  8
0
 10
37.8147
 20
4.66837
 11
37.763
 21
4.61906
  0
LINE
  8
0
 10
37.763
 20
4.61906
 11
37.6997
 21
4.57903
  0
LINE
  8
0
 10
37.6997
 20
4.57903
 11
37.6279
 21
4.55043
  0
LINE
  8
0
 10
37.6279
 20
4.55043
 11
37.5475
 21
4.53326
  0
LINE
  8
0
 10
37.5475
 20
4.53326
 11
37.4587
 21
4.52756
  0
LINE
  8
0
 10
37.4587
 20
4.52756
 11
37.3685
 21
4.53282
  0
LINE
  8
0
 10
37.3685
 20
4.53282
 11
37.2863
 21
4.5486
  0
LINE
  8
0
 10
37.2863
 20
4.5486
 11
37.212
 21
4.57489
  0
LINE
  8
0
 10
37.212
 20
4.57489
 11
37.1456
 21
4.61172
  0
LINE
  8
0
 10
37.1456
 20
4.61172
 11
37.0908
 21
4.65714
  0
LINE
  8
0
 10
37.0908
 20
4.65714
 11
37.0511
 21
4.70918
  0
LINE
  8
0
 10
37.0511
 20
4.70918
 11
37.0265
 21
4.76785
  0
LINE
  8
0
 10
37.0265
 20
4.76785
 11
37.017
 21
4.83316
  0
LINE
  8
0
 10
37.017
 20
4.83316
 11
36.3372
 21
4.83316
  0
LINE
  8
0
 10
36.3372
 20
4.83316
 11
36.347
 21
4.71416
  0
LINE
  8
0
 10
36.347
 20
4.71416
 11
36.3746
 21
4.60236
  0
LINE
  8
0
 10
36.3746
 20
4.60236
 11
36.42
 21
4.49774
  0
LINE
  8
0
 10
36.42
 20
4.49774
 11
36.4831
 21
4.40034
  0
LINE
  8
0
 10
36.4831
 20
4.40034
 11
36.5618
 21
4.31165
  0
LINE
  8
0
 10
36.5618
 20
4.31165
 11
36.6538
 21
4.23312
  0
LINE
  8
0
 10
36.6538
 20
4.23312
 11
36.7591
 21
4.16479
  0
LINE
  8
0
 10
36.7591
 20
4.16479
 11
36.8777
 21
4.10663
  0
LINE
  8
0
 10
36.8777
 20
4.10663
 11
37.0077
 21
4.06021
  0
LINE
  8
0
 10
37.0077
 20
4.06021
 11
37.1468
 21
4.02704
  0
LINE
  8
0
 10
37.1468
 20
4.02704
 11
37.2953
 21
4.00714
  0
LINE
  8
0
 10
37.2953
 20
4.00714
 11
37.4529
 21
4.0005
  0
LINE
  8
0
 10
37.4529
 20
4.0005
 11
37.6152
 21
4.00702
  0
LINE
  8
0
 10
35.1397
 20
4.02354
 11
35.3771
 21
4.0927
  0
LINE
  8
0
 10
35.3771
 20
4.0927
 11
35.5828
 21
4.20793
  0
LINE
  8
0
 10
35.5828
 20
4.20793
 11
35.7567
 21
4.36926
  0
LINE
  8
0
 10
35.7567
 20
4.36926
 11
35.8949
 21
4.57188
  0
LINE
  8
0
 10
35.8949
 20
4.57188
 11
35.9936
 21
4.81099
  0
LINE
  8
0
 10
35.9936
 20
4.81099
 11
36.0528
 21
5.08658
  0
LINE
  8
0
 10
36.0528
 20
5.08658
 11
36.0726
 21
5.39867
  0
LINE
  8
0
 10
36.0726
 20
5.39867
 11
36.0636
 21
5.61124
  0
LINE
  8
0
 10
36.0636
 20
5.61124
 11
36.0368
 21
5.80791
  0
LINE
  8
0
 10
36.0368
 20
5.80791
 11
35.9921
 21
5.98869
  0
LINE
  8
0
 10
35.9921
 20
5.98869
 11
35.9295
 21
6.15355
  0
LINE
  8
0
 10
35.9295
 20
6.15355
 11
35.8501
 21
6.30128
  0
LINE
  8
0
 10
35.8501
 20
6.30128
 11
35.755
 21
6.43059
  0
LINE
  8
0
 10
35.755
 20
6.43059
 11
35.6441
 21
6.54147
  0
LINE
  8
0
 10
35.6441
 20
6.54147
 11
35.5175
 21
6.63394
  0
LINE
  8
0
 10
35.5175
 20
6.63394
 11
35.3763
 21
6.70682
  0
LINE
  8
0
 10
35.3763
 20
6.70682
 11
35.2213
 21
6.75887
  0
LINE
  8
0
 10
35.2213
 20
6.75887
 11
35.0527
 21
6.7901
  0
LINE
  8
0
 10
35.0527
 20
6.7901
 11
34.8704
 21
6.80051
  0
LINE
  8
0
 10
34.8704
 20
6.80051
 11
34.6027
 21
6.77739
  0
LINE
  8
0
 10
34.6027
 20
6.77739
 11
34.366
 21
6.70807
  0
LINE
  8
0
 10
34.366
 20
6.70807
 11
34.1605
 21
6.59254
  0
LINE
  8
0
 10
34.1605
 20
6.59254
 11
33.9861
 21
6.4308
  0
LINE
  8
0
 10
33.9861
 20
6.4308
 11
33.847
 21
6.22766
  0
LINE
  8
0
 10
33.847
 20
6.22766
 11
33.7477
 21
5.98793
  0
LINE
  8
0
 10
33.7477
 20
5.98793
 11
33.6881
 21
5.71159
  0
LINE
  8
0
 10
33.6881
 20
5.71159
 11
33.6682
 21
5.39867
  0
LINE
  8
0
 10
33.6682
 20
5.39867
 11
33.6881
 21
5.08583
  0
LINE
  8
0
 10
33.6881
 20
5.08583
 11
33.7477
 21
4.80984
  0
LINE
  8
0
 10
33.7477
 20
4.80984
 11
33.847
 21
4.57068
  0
LINE
  8
0
 10
33.847
 20
4.57068
 11
33.9861
 21
4.36833
  0
LINE
  8
0
 10
33.9861
 20
4.36833
 11
34.1605
 21
4.20741
  0
LINE
  8
0
 10
34.1605
 20
4.20741
 11
34.366
 21
4.09247
  0
LINE
  8
0
 10
34.366
 20
4.09247
 11
34.6027
 21
4.0235
  0
LINE
  8
0
 10
34.6027
 20
4.0235
 11
34.8704
 21
4.0005
  0
LINE
  8
0
 10
34.8704
 20
4.0005
 11
35.1397
 21
4.02354
  0
LINE
  8
0
 10
34.7556
 20
4.54346
 11
34.6551
 21
4.58566
  0
LINE
  8
0
 10
34.6551
 20
4.58566
 11
34.5688
 21
4.65599
  0
LINE
  8
0
 10
34.5688
 20
4.65599
 11
34.4969
 21
4.75447
  0
LINE
  8
0
 10
34.4969
 20
4.75447
 11
34.4402
 21
4.87915
  0
LINE
  8
0
 10
34.4402
 20
4.87915
 11
34.3997
 21
5.02808
  0
LINE
  8
0
 10
34.3997
 20
5.02808
 11
34.3754
 21
5.20125
  0
LINE
  8
0
 10
34.3754
 20
5.20125
 11
34.3672
 21
5.39867
  0
LINE
  8
0
 10
34.3672
 20
5.39867
 11
34.3754
 21
5.59706
  0
LINE
  8
0
 10
34.3754
 20
5.59706
 11
34.3999
 21
5.77132
  0
LINE
  8
0
 10
34.3999
 20
5.77132
 11
34.4407
 21
5.92143
  0
LINE
  8
0
 10
34.4407
 20
5.92143
 11
34.4978
 21
6.04742
  0
LINE
  8
0
 10
34.4978
 20
6.04742
 11
34.5701
 21
6.14709
  0
LINE
  8
0
 10
34.5701
 20
6.14709
 11
34.6563
 21
6.21829
  0
LINE
  8
0
 10
34.6563
 20
6.21829
 11
34.7564
 21
6.26102
  0
LINE
  8
0
 10
34.7564
 20
6.26102
 11
34.8704
 21
6.27525
  0
LINE
  8
0
 10
34.8704
 20
6.27525
 11
34.9853
 21
6.26102
  0
LINE
  8
0
 10
34.9853
 20
6.26102
 11
35.086
 21
6.21829
  0
LINE
  8
0
 10
35.086
 20
6.21829
 11
35.1725
 21
6.14709
  0
LINE
  8
0
 10
35.1725
 20
6.14709
 11
35.2448
 21
6.04742
  0
LINE
  8
0
 10
35.2448
 20
6.04742
 11
35.302
 21
5.92143
  0
LINE
  8
0
 10
35.302
 20
5.92143
 11
35.3428
 21
5.77132
  0
LINE
  8
0
 10
35.3428
 20
5.77132
 11
35.3673
 21
5.59706
  0
LINE
  8
0
 10
35.3673
 20
5.59706
 11
35.3755
 21
5.39867
  0
LINE
  8
0
 10
35.3755
 20
5.39867
 11
35.3673
 21
5.20125
  0
LINE
  8
0
 10
35.3673
 20
5.20125
 11
35.3428
 21
5.02808
  0
LINE
  8
0
 10
35.3428
 20
5.02808
 11
35.302
 21
4.87915
  0
LINE
  8
0
 10
35.302
 20
4.87915
 11
35.2448
 21
4.75447
  0
LINE
  8
0
 10
35.2448
 20
4.75447
 11
35.1725
 21
4.65599
  0
LINE
  8
0
 10
35.1725
 20
4.65599
 11
35.086
 21
4.58566
  0
LINE
  8
0
 10
35.086
 20
4.58566
 11
34.9853
 21
4.54346
  0
LINE
  8
0
 10
34.9853
 20
4.54346
 11
34.8704
 21
4.52939
  0
LINE
  8
0
 10
34.8704
 20
4.52939
 11
34.7556
 21
4.54346
  0
LINE
  8
0
 10
32.4823
 20
4.02354
 11
32.7197
 21
4.0927
  0
LINE
  8
0
 10
32.7197
 20
4.0927
 11
32.9254
 21
4.20793
  0
LINE
  8
0
 10
32.9254
 20
4.20793
 11
33.0993
 21
4.36926
  0
LINE
  8
0
 10
33.0993
 20
4.36926
 11
33.2375
 21
4.57188
  0
LINE
  8
0
 10
33.2375
 20
4.57188
 11
33.3362
 21
4.81099
  0
LINE
  8
0
 10
33.3362
 20
4.81099
 11
33.3954
 21
5.08658
  0
LINE
  8
0
 10
33.3954
 20
5.08658
 11
33.4152
 21
5.39867
  0
LINE
  8
0
 10
33.4152
 20
5.39867
 11
33.4062
 21
5.61124
  0
LINE
  8
0
 10
33.4062
 20
5.61124
 11
33.3794
 21
5.80791
  0
LINE
  8
0
 10
33.3794
 20
5.80791
 11
33.3347
 21
5.98869
  0
LINE
  8
0
 10
33.3347
 20
5.98869
 11
33.2721
 21
6.15355
  0
LINE
  8
0
 10
33.2721
 20
6.15355
 11
33.1927
 21
6.30128
  0
LINE
  8
0
 10
33.1927
 20
6.30128
 11
33.0976
 21
6.43059
  0
LINE
  8
0
 10
33.0976
 20
6.43059
 11
32.9867
 21
6.54147
  0
LINE
  8
0
 10
32.9867
 20
6.54147
 11
32.8602
 21
6.63394
  0
LINE
  8
0
 10
32.8602
 20
6.63394
 11
32.7189
 21
6.70682
  0
LINE
  8
0
 10
32.7189
 20
6.70682
 11
32.5639
 21
6.75887
  0
LINE
  8
0
 10
32.5639
 20
6.75887
 11
32.3953
 21
6.7901
  0
LINE
  8
0
 10
32.3953
 20
6.7901
 11
32.213
 21
6.80051
  0
LINE
  8
0
 10
32.213
 20
6.80051
 11
31.9453
 21
6.77739
  0
LINE
  8
0
 10
31.9453
 20
6.77739
 11
31.7086
 21
6.70807
  0
LINE
  8
0
 10
31.7086
 20
6.70807
 11
31.5031
 21
6.59254
  0
LINE
  8
0
 10
31.5031
 20
6.59254
 11
31.3287
 21
6.4308
  0
LINE
  8
0
 10
31.3287
 20
6.4308
 11
31.1896
 21
6.22766
  0
LINE
  8
0
 10
31.1896
 20
6.22766
 11
31.0903
 21
5.98793
  0
LINE
  8
0
 10
31.0903
 20
5.98793
 11
31.0307
 21
5.71159
  0
LINE
  8
0
 10
31.0307
 20
5.71159
 11
31.0108
 21
5.39867
  0
LINE
  8
0
 10
31.0108
 20
5.39867
 11
31.0307
 21
5.08583
  0
LINE
  8
0
 10
31.0307
 20
5.08583
 11
31.0903
 21
4.80984
  0
LINE
  8
0
 10
31.0903
 20
4.80984
 11
31.1896
 21
4.57068
  0
LINE
  8
0
 10
31.1896
 20
4.57068
 11
31.3287
 21
4.36833
  0
LINE
  8
0
 10
31.3287
 20
4.36833
 11
31.5031
 21
4.20741
  0
LINE
  8
0
 10
31.5031
 20
4.20741
 11
31.7086
 21
4.09247
  0
LINE
  8
0
 10
31.7086
 20
4.09247
 11
31.9453
 21
4.0235
  0
LINE
  8
0
 10
31.9453
 20
4.0235
 11
32.213
 21
4.0005
  0
LINE
  8
0
 10
32.213
 20
4.0005
 11
32.4823
 21
4.02354
  0
LINE
  8
0
 10
32.0982
 20
4.54346
 11
31.9977
 21
4.58566
  0
LINE
  8
0
 10
31.9977
 20
4.58566
 11
31.9115
 21
4.65599
  0
LINE
  8
0
 10
31.9115
 20
4.65599
 11
31.8395
 21
4.75447
  0
LINE
  8
0
 10
31.8395
 20
4.75447
 11
31.7828
 21
4.87915
  0
LINE
  8
0
 10
31.7828
 20
4.87915
 11
31.7423
 21
5.02808
  0
LINE
  8
0
 10
31.7423
 20
5.02808
 11
31.718
 21
5.20125
  0
LINE
  8
0
 10
31.718
 20
5.20125
 11
31.7099
 21
5.39867
  0
LINE
  8
0
 10
31.7099
 20
5.39867
 11
31.718
 21
5.59706
  0
LINE
  8
0
 10
31.718
 20
5.59706
 11
31.7425
 21
5.77132
  0
LINE
  8
0
 10
31.7425
 20
5.77132
 11
31.7833
 21
5.92143
  0
LINE
  8
0
 10
31.7833
 20
5.92143
 11
31.8404
 21
6.04742
  0
LINE
  8
0
 10
31.8404
 20
6.04742
 11
31.9127
 21
6.14709
  0
LINE
  8
0
 10
31.9127
 20
6.14709
 11
31.9989
 21
6.21829
  0
LINE
  8
0
 10
31.9989
 20
6.21829
 11
32.099
 21
6.26102
  0
LINE
  8
0
 10
32.099
 20
6.26102
 11
32.213
 21
6.27525
  0
LINE
  8
0
 10
32.213
 20
6.27525
 11
32.3279
 21
6.26102
  0
LINE
  8
0
 10
32.3279
 20
6.26102
 11
32.4286
 21
6.21829
  0
LINE
  8
0
 10
32.4286
 20
6.21829
 11
32.5151
 21
6.14709
  0
LINE
  8
0
 10
32.5151
 20
6.14709
 11
32.5875
 21
6.04742
  0
LINE
  8
0
 10
32.5875
 20
6.04742
 11
32.6446
 21
5.92143
  0
LINE
  8
0
 10
32.6446
 20
5.92143
 11
32.6854
 21
5.77132
  0
LINE
  8
0
 10
32.6854
 20
5.77132
 11
32.7099
 21
5.59706
  0
LINE
  8
0
 10
32.7099
 20
5.59706
 11
32.718
 21
5.39867
  0
LINE
  8
0
 10
32.718
 20
5.39867
 11
32.7099
 21
5.20125
  0
LINE
  8
0
 10
32.7099
 20
5.20125
 11
32.6854
 21
5.02808
  0
LINE
  8
0
 10
32.6854
 20
5.02808
 11
32.6446
 21
4.87915
  0
LINE
  8
0
 10
32.6446
 20
4.87915
 11
32.5875
 21
4.75447
  0
LINE
  8
0
 10
32.5875
 20
4.75447
 11
32.5151
 21
4.65599
  0
LINE
  8
0
 10
32.5151
 20
4.65599
 11
32.4286
 21
4.58566
  0
LINE
  8
0
 10
32.4286
 20
4.58566
 11
32.3279
 21
4.54346
  0
LINE
  8
0
 10
32.3279
 20
4.54346
 11
32.213
 21
4.52939
  0
LINE
  8
0
 10
32.213
 20
4.52939
 11
32.0982
 21
4.54346
  0
LINE
  8
0
 10
22.9158
 20
4.01062
 11
23.093
 21
4.04099
  0
LINE
  8
0
 10
23.093
 20
4.04099
 11
23.261
 21
4.0916
  0
LINE
  8
0
 10
23.261
 20
4.0916
 11
23.4197
 21
4.16245
  0
LINE
  8
0
 10
23.4197
 20
4.16245
 11
23.5659
 21
4.25285
  0
LINE
  8
0
 10
23.5659
 20
4.25285
 11
23.696
 21
4.36215
  0
LINE
  8
0
 10
23.696
 20
4.36215
 11
23.8102
 21
4.49033
  0
LINE
  8
0
 10
23.8102
 20
4.49033
 11
23.9085
 21
4.63736
  0
LINE
  8
0
 10
23.9085
 20
4.63736
 11
23.9874
 21
4.80229
  0
LINE
  8
0
 10
23.9874
 20
4.80229
 11
24.0439
 21
4.98416
  0
LINE
  8
0
 10
24.0439
 20
4.98416
 11
24.0777
 21
5.18295
  0
LINE
  8
0
 10
24.0777
 20
5.18295
 11
24.089
 21
5.39867
  0
LINE
  8
0
 10
24.089
 20
5.39867
 11
24.0777
 21
5.61519
  0
LINE
  8
0
 10
24.0777
 20
5.61519
 11
24.0439
 21
5.81454
  0
LINE
  8
0
 10
24.0439
 20
5.81454
 11
23.9874
 21
5.99675
  0
LINE
  8
0
 10
23.9874
 20
5.99675
 11
23.9085
 21
6.16179
  0
LINE
  8
0
 10
23.9085
 20
6.16179
 11
23.8102
 21
6.30888
  0
LINE
  8
0
 10
23.8102
 20
6.30888
 11
23.696
 21
6.43721
  0
LINE
  8
0
 10
23.696
 20
6.43721
 11
23.5659
 21
6.5468
  0
LINE
  8
0
 10
23.5659
 20
6.5468
 11
23.4197
 21
6.63762
  0
LINE
  8
0
 10
23.4197
 20
6.63762
 11
23.261
 21
6.70888
  0
LINE
  8
0
 10
23.261
 20
6.70888
 11
23.093
 21
6.75978
  0
LINE
  8
0
 10
23.093
 20
6.75978
 11
22.9158
 21
6.79031
  0
LINE
  8
0
 10
22.9158
 20
6.79031
 11
22.7294
 21
6.80051
  0
LINE
  8
0
 10
22.7294
 20
6.80051
 11
22.5412
 21
6.79031
  0
LINE
  8
0
 10
22.5412
 20
6.79031
 11
22.3628
 21
6.75978
  0
LINE
  8
0
 10
22.3628
 20
6.75978
 11
22.1941
 21
6.70888
  0
LINE
  8
0
 10
22.1941
 20
6.70888
 11
22.0352
 21
6.63762
  0
LINE
  8
0
 10
22.0352
 20
6.63762
 11
21.889
 21
6.5468
  0
LINE
  8
0
 10
21.889
 20
6.5468
 11
21.7589
 21
6.43721
  0
LINE
  8
0
 10
21.7589
 20
6.43721
 11
21.6447
 21
6.30888
  0
LINE
  8
0
 10
21.6447
 20
6.30888
 11
21.5464
 21
6.16179
  0
LINE
  8
0
 10
21.5464
 20
6.16179
 11
21.4675
 21
5.99675
  0
LINE
  8
0
 10
21.4675
 20
5.99675
 11
21.411
 21
5.81454
  0
LINE
  8
0
 10
21.411
 20
5.81454
 11
21.3772
 21
5.61519
  0
LINE
  8
0
 10
21.3772
 20
5.61519
 11
21.3659
 21
5.39867
  0
LINE
  8
0
 10
21.3659
 20
5.39867
 11
21.3772
 21
5.18375
  0
LINE
  8
0
 10
21.3772
 20
5.18375
 11
21.411
 21
4.98552
  0
LINE
  8
0
 10
21.411
 20
4.98552
 11
21.4675
 21
4.80399
  0
LINE
  8
0
 10
21.4675
 20
4.80399
 11
21.5464
 21
4.63916
  0
LINE
  8
0
 10
21.5464
 20
4.63916
 11
21.6447
 21
4.49208
  0
LINE
  8
0
 10
21.6447
 20
4.49208
 11
21.7589
 21
4.36375
  0
LINE
  8
0
 10
21.7589
 20
4.36375
 11
21.889
 21
4.25418
  0
LINE
  8
0
 10
21.889
 20
4.25418
 11
22.0352
 21
4.16336
  0
LINE
  8
0
 10
22.0352
 20
4.16336
 11
22.1941
 21
4.0921
  0
LINE
  8
0
 10
22.1941
 20
4.0921
 11
22.3628
 21
4.04121
  0
LINE
  8
0
 10
22.3628
 20
4.04121
 11
22.5412
 21
4.01068
  0
LINE
  8
0
 10
22.5412
 20
4.01068
 11
22.7294
 21
4.0005
  0
LINE
  8
0
 10
22.7294
 20
4.0005
 11
22.9158
 21
4.01062
  0
LINE
  8
0
 10
22.5813
 20
4.58115
 11
22.45
 21
4.62111
  0
LINE
  8
0
 10
22.45
 20
4.62111
 11
22.3355
 21
4.68773
  0
LINE
  8
0
 10
22.3355
 20
4.68773
 11
22.2378
 21
4.78101
  0
LINE
  8
0
 10
22.2378
 20
4.78101
 11
22.1596
 21
4.89957
  0
LINE
  8
0
 10
22.1596
 20
4.89957
 11
22.1038
 21
5.04202
  0
LINE
  8
0
 10
22.1038
 20
5.04202
 11
22.0703
 21
5.20839
  0
LINE
  8
0
 10
22.0703
 20
5.20839
 11
22.0592
 21
5.39867
  0
LINE
  8
0
 10
22.0592
 20
5.39867
 11
22.0703
 21
5.5898
  0
LINE
  8
0
 10
22.0703
 20
5.5898
 11
22.1038
 21
5.7569
  0
LINE
  8
0
 10
22.1038
 20
5.7569
 11
22.1596
 21
5.89998
  0
LINE
  8
0
 10
22.1596
 20
5.89998
 11
22.2378
 21
6.01903
  0
LINE
  8
0
 10
22.2378
 20
6.01903
 11
22.3355
 21
6.11272
  0
LINE
  8
0
 10
22.3355
 20
6.11272
 11
22.45
 21
6.17963
  0
LINE
  8
0
 10
22.45
 20
6.17963
 11
22.5813
 21
6.21977
  0
LINE
  8
0
 10
22.5813
 20
6.21977
 11
22.7294
 21
6.23317
  0
LINE
  8
0
 10
22.7294
 20
6.23317
 11
22.8766
 21
6.21977
  0
LINE
  8
0
 10
22.8766
 20
6.21977
 11
23.0073
 21
6.17963
  0
LINE
  8
0
 10
23.0073
 20
6.17963
 11
23.1215
 21
6.11272
  0
LINE
  8
0
 10
23.1215
 20
6.11272
 11
23.2191
 21
6.01903
  0
LINE
  8
0
 10
23.2191
 20
6.01903
 11
23.2972
 21
5.89998
  0
LINE
  8
0
 10
23.2972
 20
5.89998
 11
23.353
 21
5.7569
  0
LINE
  8
0
 10
23.353
 20
5.7569
 11
23.3865
 21
5.5898
  0
LINE
  8
0
 10
23.3865
 20
5.5898
 11
23.3977
 21
5.39867
  0
LINE
  8
0
 10
23.3977
 20
5.39867
 11
23.3865
 21
5.20839
  0
LINE
  8
0
 10
23.3865
 20
5.20839
 11
23.353
 21
5.04202
  0
LINE
  8
0
 10
23.353
 20
5.04202
 11
23.2972
 21
4.89957
  0
LINE
  8
0
 10
23.2972
 20
4.89957
 11
23.2191
 21
4.78101
  0
LINE
  8
0
 10
23.2191
 20
4.78101
 11
23.1215
 21
4.68773
  0
LINE
  8
0
 10
23.1215
 20
4.68773
 11
23.0073
 21
4.62111
  0
LINE
  8
0
 10
23.0073
 20
4.62111
 11
22.8766
 21
4.58115
  0
LINE
  8
0
 10
22.8766
 20
4.58115
 11
22.7294
 21
4.56781
  0
LINE
  8
0
 10
22.7294
 20
4.56781
 11
22.5813
 21
4.58115
  0
LINE
  8
0
 10
10.5026
 20
5.21198
 11
10.5023
 21
5.26706
  0
LINE
  8
0
 10
10.5023
 20
5.26706
 11
10.5014
 21
5.32979
  0
LINE
  8
0
 10
10.5014
 20
5.32979
 11
10.4999
 21
5.40019
  0
LINE
  8
0
 10
10.4999
 20
5.40019
 11
10.4978
 21
5.47824
  0
LINE
  8
0
 10
10.4978
 20
5.47824
 11
10.4927
 21
5.64868
  0
LINE
  8
0
 10
10.4927
 20
5.64868
 11
10.4872
 21
5.83238
  0
LINE
  8
0
 10
10.4872
 20
5.83238
 11
10.4844
 21
5.92685
  0
LINE
  8
0
 10
10.4844
 20
5.92685
 11
10.4819
 21
6.01996
  0
LINE
  8
0
 10
10.4819
 20
6.01996
 11
10.4796
 21
6.11169
  0
LINE
  8
0
 10
10.4796
 20
6.11169
 11
10.4776
 21
6.20204
  0
LINE
  8
0
 10
10.4776
 20
6.20204
 11
10.5019
 21
6.10616
  0
LINE
  8
0
 10
10.5019
 20
6.10616
 11
10.5268
 21
6.01059
  0
LINE
  8
0
 10
10.5268
 20
6.01059
 11
10.5523
 21
5.91537
  0
LINE
  8
0
 10
10.5523
 20
5.91537
 11
10.5784
 21
5.8205
  0
LINE
  8
0
 10
10.5784
 20
5.8205
 11
10.6045
 21
5.72768
  0
LINE
  8
0
 10
10.6045
 20
5.72768
 11
10.63
 21
5.63864
  0
LINE
  8
0
 10
10.63
 20
5.63864
 11
10.6549
 21
5.55336
  0
LINE
  8
0
 10
10.6549
 20
5.55336
 11
10.6792
 21
5.47185
  0
LINE
  8
0
 10
10.6792
 20
5.47185
 11
10.7023
 21
5.3959
  0
LINE
  8
0
 10
10.7023
 20
5.3959
 11
10.7234
 21
5.32729
  0
LINE
  8
0
 10
10.7234
 20
5.32729
 11
10.7426
 21
5.26598
  0
LINE
  8
0
 10
10.7426
 20
5.26598
 11
10.7599
 21
5.21198
  0
LINE
  8
0
 10
10.7599
 20
5.21198
 11
11.1728
 21
4.03709
  0
LINE
  8
0
 10
11.1728
 20
4.03709
 11
11.7393
 21
4.03709
  0
LINE
  8
0
 10
11.7393
 20
4.03709
 11
12.1464
 21
5.21198
  0
LINE
  8
0
 10
12.1464
 20
5.21198
 11
12.1645
 21
5.26797
  0
LINE
  8
0
 10
12.1645
 20
5.26797
 11
12.1843
 21
5.33163
  0
LINE
  8
0
 10
12.1843
 20
5.33163
 11
12.2058
 21
5.40294
  0
LINE
  8
0
 10
12.2058
 20
5.40294
 11
12.229
 21
5.48192
  0
LINE
  8
0
 10
12.229
 20
5.48192
 11
12.2533
 21
5.56662
  0
LINE
  8
0
 10
12.2533
 20
5.56662
 11
12.2782
 21
5.65509
  0
LINE
  8
0
 10
12.2782
 20
5.65509
 11
12.3037
 21
5.74734
  0
LINE
  8
0
 10
12.3037
 20
5.74734
 11
12.3298
 21
5.84335
  0
LINE
  8
0
 10
12.3298
 20
5.84335
 11
12.3559
 21
5.94116
  0
LINE
  8
0
 10
12.3559
 20
5.94116
 11
12.3814
 21
6.03873
  0
LINE
  8
0
 10
12.3814
 20
6.03873
 11
12.4063
 21
6.13606
  0
LINE
  8
0
 10
12.4063
 20
6.13606
 11
12.4306
 21
6.23317
  0
LINE
  8
0
 10
12.4306
 20
6.23317
 11
12.4286
 21
6.14075
  0
LINE
  8
0
 10
12.4286
 20
6.14075
 11
12.4263
 21
6.04651
  0
LINE
  8
0
 10
12.4263
 20
6.04651
 11
12.4238
 21
5.95042
  0
LINE
  8
0
 10
12.4238
 20
5.95042
 11
12.421
 21
5.85251
  0
LINE
  8
0
 10
12.421
 20
5.85251
 11
12.4155
 21
5.66196
  0
LINE
  8
0
 10
12.4155
 20
5.66196
 11
12.4104
 21
5.48558
  0
LINE
  8
0
 10
12.4104
 20
5.48558
 11
12.4083
 21
5.40501
  0
LINE
  8
0
 10
12.4083
 20
5.40501
 11
12.4068
 21
5.33255
  0
LINE
  8
0
 10
12.4068
 20
5.33255
 11
12.4059
 21
5.2682
  0
LINE
  8
0
 10
12.4059
 20
5.2682
 11
12.4056
 21
5.21198
  0
LINE
  8
0
 10
12.4056
 20
5.21198
 11
12.4056
 21
4.03709
  0
LINE
  8
0
 10
12.4056
 20
4.03709
 11
13.0874
 21
4.03709
  0
LINE
  8
0
 10
13.0874
 20
4.03709
 11
13.0874
 21
6.76389
  0
LINE
  8
0
 10
13.0874
 20
6.76389
 11
12.0293
 21
6.76389
  0
LINE
  8
0
 10
12.0293
 20
6.76389
 11
11.6702
 21
5.70244
  0
LINE
  8
0
 10
11.6702
 20
5.70244
 11
11.6552
 21
5.65218
  0
LINE
  8
0
 10
11.6552
 20
5.65218
 11
11.6392
 21
5.59471
  0
LINE
  8
0
 10
11.6392
 20
5.59471
 11
11.6221
 21
5.53003
  0
LINE
  8
0
 10
11.6221
 20
5.53003
 11
11.6039
 21
5.45815
  0
LINE
  8
0
 10
11.6039
 20
5.45815
 11
11.5852
 21
5.38127
  0
LINE
  8
0
 10
11.5852
 20
5.38127
 11
11.5665
 21
5.30167
  0
LINE
  8
0
 10
11.5665
 20
5.30167
 11
11.5477
 21
5.21931
  0
LINE
  8
0
 10
11.5477
 20
5.21931
 11
11.529
 21
5.13422
  0
LINE
  8
0
 10
11.529
 20
5.13422
 11
11.5106
 21
5.04837
  0
LINE
  8
0
 10
11.5106
 20
5.04837
 11
11.4928
 21
4.96381
  0
LINE
  8
0
 10
11.4928
 20
4.96381
 11
11.4755
 21
4.88048
  0
LINE
  8
0
 10
11.4755
 20
4.88048
 11
11.4589
 21
4.7984
  0
LINE
  8
0
 10
11.4589
 20
4.7984
 11
11.4414
 21
4.88054
  0
LINE
  8
0
 10
11.4414
 20
4.88054
 11
11.4234
 21
4.96404
  0
LINE
  8
0
 10
11.4234
 20
4.96404
 11
11.4049
 21
5.04889
  0
LINE
  8
0
 10
11.4049
 20
5.04889
 11
11.3859
 21
5.13513
  0
LINE
  8
0
 10
11.3859
 20
5.13513
 11
11.3668
 21
5.22058
  0
LINE
  8
0
 10
11.3668
 20
5.22058
 11
11.3478
 21
5.30304
  0
LINE
  8
0
 10
11.3478
 20
5.30304
 11
11.3289
 21
5.38254
  0
LINE
  8
0
 10
11.3289
 20
5.38254
 11
11.3101
 21
5.45906
  0
LINE
  8
0
 10
11.3101
 20
5.45906
 11
11.2919
 21
5.53055
  0
LINE
  8
0
 10
11.2919
 20
5.53055
 11
11.2748
 21
5.59494
  0
LINE
  8
0
 10
11.2748
 20
5.59494
 11
11.2588
 21
5.65224
  0
LINE
  8
0
 10
11.2588
 20
5.65224
 11
11.2438
 21
5.70244
  0
LINE
  8
0
 10
11.2438
 20
5.70244
 11
10.879
 21
6.76389
  0
LINE
  8
0
 10
10.879
 20
6.76389
 11
9.82275
 21
6.76389
  0
LINE
  8
0
 10
9.82275
 20
6.76389
 11
9.82275
 21
4.03709
  0
LINE
  8
0
 10
9.82275
 20
4.03709
 11
10.5026
 21
4.03709
  0
LINE
  8
0
 10
10.5026
 20
4.03709
 11
10.5026
 21
5.21198
  0
LINE
  8
0
 10
28.2802
 20
6.23683
 11
29.1462
 21
6.23683
  0
LINE
  8
0
 10
29.1462
 20
6.23683
 11
29.1462
 21
6.76389
  0
LINE
  8
0
 10
29.1462
 20
6.76389
 11
26.7381
 21
6.76389
  0
LINE
  8
0
 10
26.7381
 20
6.76389
 11
26.7381
 21
6.23683
  0
LINE
  8
0
 10
26.7381
 20
6.23683
 11
27.6042
 21
6.23683
  0
LINE
  8
0
 10
27.6042
 20
6.23683
 11
27.6042
 21
4.03709
  0
LINE
  8
0
 10
27.6042
 20
4.03709
 11
28.2802
 21
4.03709
  0
LINE
  8
0
 10
28.2802
 20
4.03709
 11
28.2802
 21
6.23683
  0
LINE
  8
0
 10
25.032
 20
4.61723
 11
25.9845
 21
4.61723
  0
LINE
  8
0
 10
25.9845
 20
4.61723
 11
26.1785
 21
4.03709
  0
LINE
  8
0
 10
26.1785
 20
4.03709
 11
26.939
 21
4.03709
  0
LINE
  8
0
 10
26.939
 20
4.03709
 11
25.9557
 21
6.76389
  0
LINE
  8
0
 10
25.9557
 20
6.76389
 11
25.0474
 21
6.76389
  0
LINE
  8
0
 10
25.0474
 20
6.76389
 11
24.093
 21
4.03709
  0
LINE
  8
0
 10
24.093
 20
4.03709
 11
24.8458
 21
4.03709
  0
LINE
  8
0
 10
24.8458
 20
4.03709
 11
25.032
 21
4.61723
  0
LINE
  8
0
 10
25.1914
 20
5.11136
 11
25.2298
 21
5.22847
  0
LINE
  8
0
 10
25.2298
 20
5.22847
 11
25.2649
 21
5.34618
  0
LINE
  8
0
 10
25.2649
 20
5.34618
 11
25.2992
 21
5.46684
  0
LINE
  8
0
 10
25.2992
 20
5.46684
 11
25.3326
 21
5.59048
  0
LINE
  8
0
 10
25.3326
 20
5.59048
 11
25.3652
 21
5.7171
  0
LINE
  8
0
 10
25.3652
 20
5.7171
 11
25.3975
 21
5.84645
  0
LINE
  8
0
 10
25.3975
 20
5.84645
 11
25.4298
 21
5.97833
  0
LINE
  8
0
 10
25.4298
 20
5.97833
 11
25.4623
 21
6.11273
  0
LINE
  8
0
 10
25.4623
 20
6.11273
 11
25.4949
 21
6.24965
  0
LINE
  8
0
 10
25.4949
 20
6.24965
 11
25.5295
 21
6.11354
  0
LINE
  8
0
 10
25.5295
 20
6.11354
 11
25.5645
 21
5.97971
  0
LINE
  8
0
 10
25.5645
 20
5.97971
 11
25.5996
 21
5.84816
  0
LINE
  8
0
 10
25.5996
 20
5.84816
 11
25.635
 21
5.7189
  0
LINE
  8
0
 10
25.635
 20
5.7189
 11
25.6708
 21
5.59218
  0
LINE
  8
0
 10
25.6708
 20
5.59218
 11
25.7071
 21
5.46819
  0
LINE
  8
0
 10
25.7071
 20
5.46819
 11
25.7438
 21
5.34695
  0
LINE
  8
0
 10
25.7438
 20
5.34695
 11
25.781
 21
5.22847
  0
LINE
  8
0
 10
25.781
 20
5.22847
 11
25.8194
 21
5.11136
  0
LINE
  8
0
 10
25.8194
 20
5.11136
 11
25.1914
 21
5.11136
  0
LINE
  8
0
 10
20.3064
 20
4.04327
 11
20.4471
 21
4.0618
  0
LINE
  8
0
 10
20.4471
 20
4.0618
 11
20.5758
 21
4.09268
  0
LINE
  8
0
 10
20.5758
 20
4.09268
 11
20.6926
 21
4.13591
  0
LINE
  8
0
 10
20.6926
 20
4.13591
 11
20.7969
 21
4.1899
  0
LINE
  8
0
 10
20.7969
 20
4.1899
 11
20.888
 21
4.25304
  0
LINE
  8
0
 10
20.888
 20
4.25304
 11
20.9659
 21
4.32533
  0
LINE
  8
0
 10
20.9659
 20
4.32533
 11
21.0306
 21
4.40677
  0
LINE
  8
0
 10
21.0306
 20
4.40677
 11
21.0815
 21
4.49576
  0
LINE
  8
0
 10
21.0815
 20
4.49576
 11
21.1178
 21
4.5907
  0
LINE
  8
0
 10
21.1178
 20
4.5907
 11
21.1395
 21
4.69157
  0
LINE
  8
0
 10
21.1395
 20
4.69157
 11
21.1468
 21
4.7984
  0
LINE
  8
0
 10
21.1468
 20
4.7984
 11
21.1412
 21
4.89391
  0
LINE
  8
0
 10
21.1412
 20
4.89391
 11
21.1245
 21
4.98277
  0
LINE
  8
0
 10
21.1245
 20
4.98277
 11
21.0966
 21
5.06502
  0
LINE
  8
0
 10
21.0966
 20
5.06502
 11
21.0575
 21
5.14061
  0
LINE
  8
0
 10
21.0575
 20
5.14061
 11
21.0092
 21
5.20889
  0
LINE
  8
0
 10
21.0092
 20
5.20889
 11
20.9538
 21
5.26918
  0
LINE
  8
0
 10
20.9538
 20
5.26918
 11
20.8912
 21
5.32146
  0
LINE
  8
0
 10
20.8912
 20
5.32146
 11
20.8213
 21
5.36572
  0
LINE
  8
0
 10
20.8213
 20
5.36572
 11
20.7464
 21
5.4014
  0
LINE
  8
0
 10
20.7464
 20
5.4014
 11
20.6684
 21
5.42793
  0
LINE
  8
0
 10
20.6684
 20
5.42793
 11
20.5874
 21
5.44533
  0
LINE
  8
0
 10
20.5874
 20
5.44533
 11
20.5035
 21
5.45355
  0
LINE
  8
0
 10
20.5035
 20
5.45355
 11
20.5035
 21
5.48283
  0
LINE
  8
0
 10
20.5035
 20
5.48283
 11
20.6153
 21
5.51253
  0
LINE
  8
0
 10
20.6153
 20
5.51253
 11
20.7164
 21
5.55582
  0
LINE
  8
0
 10
20.7164
 20
5.55582
 11
20.8068
 21
5.61272
  0
LINE
  8
0
 10
20.8068
 20
5.61272
 11
20.8866
 21
5.68323
  0
LINE
  8
0
 10
20.8866
 20
5.68323
 11
20.9517
 21
5.76553
  0
LINE
  8
0
 10
20.9517
 20
5.76553
 11
20.9982
 21
5.85777
  0
LINE
  8
0
 10
20.9982
 20
5.85777
 11
21.0261
 21
5.95998
  0
LINE
  8
0
 10
21.0261
 20
5.95998
 11
21.0354
 21
6.07211
  0
LINE
  8
0
 10
21.0354
 20
6.07211
 11
21.0201
 21
6.21938
  0
LINE
  8
0
 10
21.0201
 20
6.21938
 11
20.9742
 21
6.35188
  0
LINE
  8
0
 10
20.9742
 20
6.35188
 11
20.8977
 21
6.46964
  0
LINE
  8
0
 10
20.8977
 20
6.46964
 11
20.7906
 21
6.57263
  0
LINE
  8
0
 10
20.7906
 20
6.57263
 11
20.6534
 21
6.65631
  0
LINE
  8
0
 10
20.6534
 20
6.65631
 11
20.4869
 21
6.71606
  0
LINE
  8
0
 10
20.4869
 20
6.71606
 11
20.291
 21
6.75192
  0
LINE
  8
0
 10
20.291
 20
6.75192
 11
20.0656
 21
6.76389
  0
LINE
  8
0
 10
20.0656
 20
6.76389
 11
18.8788
 21
6.76389
  0
LINE
  8
0
 10
18.8788
 20
6.76389
 11
18.8788
 21
4.03709
  0
LINE
  8
0
 10
18.8788
 20
4.03709
 11
20.154
 21
4.03709
  0
LINE
  8
0
 10
20.154
 20
4.03709
 11
20.3064
 21
4.04327
  0
LINE
  8
0
 10
19.5567
 20
5.64024
 11
19.5567
 21
6.24782
  0
LINE
  8
0
 10
19.5567
 20
6.24782
 11
19.9619
 21
6.24782
  0
LINE
  8
0
 10
19.9619
 20
6.24782
 11
20.0449
 21
6.24278
  0
LINE
  8
0
 10
20.0449
 20
6.24278
 11
20.1189
 21
6.22768
  0
LINE
  8
0
 10
20.1189
 20
6.22768
 11
20.1841
 21
6.20251
  0
LINE
  8
0
 10
20.1841
 20
6.20251
 11
20.2404
 21
6.16728
  0
LINE
  8
0
 10
20.2404
 20
6.16728
 11
20.2858
 21
6.12347
  0
LINE
  8
0
 10
20.2858
 20
6.12347
 11
20.3182
 21
6.07259
  0
LINE
  8
0
 10
20.3182
 20
6.07259
 11
20.3376
 21
6.0146
  0
LINE
  8
0
 10
20.3376
 20
6.0146
 11
20.3441
 21
5.94952
  0
LINE
  8
0
 10
20.3441
 20
5.94952
 11
20.3371
 21
5.87962
  0
LINE
  8
0
 10
20.3371
 20
5.87962
 11
20.3162
 21
5.81819
  0
LINE
  8
0
 10
20.3162
 20
5.81819
 11
20.2814
 21
5.76523
  0
LINE
  8
0
 10
20.2814
 20
5.76523
 11
20.2327
 21
5.72073
  0
LINE
  8
0
 10
20.2327
 20
5.72073
 11
20.1733
 21
5.68552
  0
LINE
  8
0
 10
20.1733
 20
5.68552
 11
20.1064
 21
5.66037
  0
LINE
  8
0
 10
20.1064
 20
5.66037
 11
20.0321
 21
5.64528
  0
LINE
  8
0
 10
20.0321
 20
5.64528
 11
19.9504
 21
5.64024
  0
LINE
  8
0
 10
19.9504
 20
5.64024
 11
19.5567
 21
5.64024
  0
LINE
  8
0
 10
19.5567
 20
4.55867
 11
19.5567
 21
5.22116
  0
LINE
  8
0
 10
19.5567
 20
5.22116
 11
20.008
 21
5.22116
  0
LINE
  8
0
 10
20.008
 20
5.22116
 11
20.1026
 21
5.21521
  0
LINE
  8
0
 10
20.1026
 20
5.21521
 11
20.1868
 21
5.19736
  0
LINE
  8
0
 10
20.1868
 20
5.19736
 11
20.2606
 21
5.16762
  0
LINE
  8
0
 10
20.2606
 20
5.16762
 11
20.3239
 21
5.12598
  0
LINE
  8
0
 10
20.3239
 20
5.12598
 11
20.3747
 21
5.0744
  0
LINE
  8
0
 10
20.3747
 20
5.0744
 11
20.4111
 21
5.01482
  0
LINE
  8
0
 10
20.4111
 20
5.01482
 11
20.4328
 21
4.94722
  0
LINE
  8
0
 10
20.4328
 20
4.94722
 11
20.4401
 21
4.87161
  0
LINE
  8
0
 10
20.4401
 20
4.87161
 11
20.4333
 21
4.80235
  0
LINE
  8
0
 10
20.4333
 20
4.80235
 11
20.413
 21
4.74098
  0
LINE
  8
0
 10
20.413
 20
4.74098
 11
20.3791
 21
4.6875
  0
LINE
  8
0
 10
20.3791
 20
4.6875
 11
20.3316
 21
4.64192
  0
LINE
  8
0
 10
20.3316
 20
4.64192
 11
20.2699
 21
4.6055
  0
LINE
  8
0
 10
20.2699
 20
4.6055
 11
20.1931
 21
4.57948
  0
LINE
  8
0
 10
20.1931
 20
4.57948
 11
20.1013
 21
4.56387
  0
LINE
  8
0
 10
20.1013
 20
4.56387
 11
19.9946
 21
4.55867
  0
LINE
  8
0
 10
19.9946
 20
4.55867
 11
19.5567
 21
4.55867
  0
LINE
  8
0
 10
14.1257
 20
5.21198
 11
14.1254
 21
5.26706
  0
LINE
  8
0
 10
14.1254
 20
5.26706
 11
14.1245
 21
5.32979
  0
LINE
  8
0
 10
14.1245
 20
5.32979
 11
14.123
 21
5.40019
  0
LINE
  8
0
 10
14.123
 20
5.40019
 11
14.1209
 21
5.47824
  0
LINE
  8
0
 10
14.1209
 20
5.47824
 11
14.1159
 21
5.64868
  0
LINE
  8
0
 10
14.1159
 20
5.64868
 11
14.1104
 21
5.83238
  0
LINE
  8
0
 10
14.1104
 20
5.83238
 11
14.1076
 21
5.92685
  0
LINE
  8
0
 10
14.1076
 20
5.92685
 11
14.1051
 21
6.01996
  0
LINE
  8
0
 10
14.1051
 20
6.01996
 11
14.1028
 21
6.11169
  0
LINE
  8
0
 10
14.1028
 20
6.11169
 11
14.1008
 21
6.20204
  0
LINE
  8
0
 10
14.1008
 20
6.20204
 11
14.1251
 21
6.10616
  0
LINE
  8
0
 10
14.1251
 20
6.10616
 11
14.15
 21
6.01059
  0
LINE
  8
0
 10
14.15
 20
6.01059
 11
14.1755
 21
5.91537
  0
LINE
  8
0
 10
14.1755
 20
5.91537
 11
14.2016
 21
5.8205
  0
LINE
  8
0
 10
14.2016
 20
5.8205
 11
14.2277
 21
5.72768
  0
LINE
  8
0
 10
14.2277
 20
5.72768
 11
14.2532
 21
5.63864
  0
LINE
  8
0
 10
14.2532
 20
5.63864
 11
14.2781
 21
5.55336
  0
LINE
  8
0
 10
14.2781
 20
5.55336
 11
14.3024
 21
5.47185
  0
LINE
  8
0
 10
14.3024
 20
5.47185
 11
14.3255
 21
5.3959
  0
LINE
  8
0
 10
14.3255
 20
5.3959
 11
14.3466
 21
5.32729
  0
LINE
  8
0
 10
14.3466
 20
5.32729
 11
14.3658
 21
5.26598
  0
LINE
  8
0
 10
14.3658
 20
5.26598
 11
14.3831
 21
5.21198
  0
LINE
  8
0
 10
14.3831
 20
5.21198
 11
14.796
 21
4.03709
  0
LINE
  8
0
 10
14.796
 20
4.03709
 11
15.3625
 21
4.03709
  0
LINE
  8
0
 10
15.3625
 20
4.03709
 11
15.7696
 21
5.21198
  0
LINE
  8
0
 10
15.7696
 20
5.21198
 11
15.7877
 21
5.26797
  0
LINE
  8
0
 10
15.7877
 20
5.26797
 11
15.8075
 21
5.33163
  0
LINE
  8
0
 10
15.8075
 20
5.33163
 11
15.829
 21
5.40294
  0
LINE
  8
0
 10
15.829
 20
5.40294
 11
15.8522
 21
5.48192
  0
LINE
  8
0
 10
15.8522
 20
5.48192
 11
15.8765
 21
5.56662
  0
LINE
  8
0
 10
15.8765
 20
5.56662
 11
15.9014
 21
5.65509
  0
LINE
  8
0
 10
15.9014
 20
5.65509
 11
15.9269
 21
5.74734
  0
LINE
  8
0
 10
15.9269
 20
5.74734
 11
15.953
 21
5.84335
  0
LINE
  8
0
 10
15.953
 20
5.84335
 11
15.9791
 21
5.94116
  0
LINE
  8
0
 10
15.9791
 20
5.94116
 11
16.0046
 21
6.03873
  0
LINE
  8
0
 10
16.0046
 20
6.03873
 11
16.0295
 21
6.13606
  0
LINE
  8
0
 10
16.0295
 20
6.13606
 11
16.0538
 21
6.23317
  0
LINE
  8
0
 10
16.0538
 20
6.23317
 11
16.0518
 21
6.14075
  0
LINE
  8
0
 10
16.0518
 20
6.14075
 11
16.0495
 21
6.04651
  0
LINE
  8
0
 10
16.0495
 20
6.04651
 11
16.047
 21
5.95042
  0
LINE
  8
0
 10
16.047
 20
5.95042
 11
16.0442
 21
5.85251
  0
LINE
  8
0
 10
16.0442
 20
5.85251
 11
16.0387
 21
5.66196
  0
LINE
  8
0
 10
16.0387
 20
5.66196
 11
16.0336
 21
5.48558
  0
LINE
  8
0
 10
16.0336
 20
5.48558
 11
16.0315
 21
5.40501
  0
LINE
  8
0
 10
16.0315
 20
5.40501
 11
16.03
 21
5.33255
  0
LINE
  8
0
 10
16.03
 20
5.33255
 11
16.0291
 21
5.2682
  0
LINE
  8
0
 10
16.0291
 20
5.2682
 11
16.0288
 21
5.21198
  0
LINE
  8
0
 10
16.0288
 20
5.21198
 11
16.0288
 21
4.03709
  0
LINE
  8
0
 10
16.0288
 20
4.03709
 11
16.7106
 21
4.03709
  0
LINE
  8
0
 10
16.7106
 20
4.03709
 11
16.7106
 21
6.76389
  0
LINE
  8
0
 10
16.7106
 20
6.76389
 11
15.6524
 21
6.76389
  0
LINE
  8
0
 10
15.6524
 20
6.76389
 11
15.2934
 21
5.70244
  0
LINE
  8
0
 10
15.2934
 20
5.70244
 11
15.2784
 21
5.65218
  0
LINE
  8
0
 10
15.2784
 20
5.65218
 11
15.2624
 21
5.59471
  0
LINE
  8
0
 10
15.2624
 20
5.59471
 11
15.2453
 21
5.53003
  0
LINE
  8
0
 10
15.2453
 20
5.53003
 11
15.2271
 21
5.45815
  0
LINE
  8
0
 10
15.2271
 20
5.45815
 11
15.2084
 21
5.38127
  0
LINE
  8
0
 10
15.2084
 20
5.38127
 11
15.1896
 21
5.30167
  0
LINE
  8
0
 10
15.1896
 20
5.30167
 11
15.1709
 21
5.21931
  0
LINE
  8
0
 10
15.1709
 20
5.21931
 11
15.1522
 21
5.13422
  0
LINE
  8
0
 10
15.1522
 20
5.13422
 11
15.1338
 21
5.04837
  0
LINE
  8
0
 10
15.1338
 20
5.04837
 11
15.116
 21
4.96381
  0
LINE
  8
0
 10
15.116
 20
4.96381
 11
15.0987
 21
4.88048
  0
LINE
  8
0
 10
15.0987
 20
4.88048
 11
15.0821
 21
4.7984
  0
LINE
  8
0
 10
15.0821
 20
4.7984
 11
15.0646
 21
4.88054
  0
LINE
  8
0
 10
15.0646
 20
4.88054
 11
15.0466
 21
4.96404
  0
LINE
  8
0
 10
15.0466
 20
4.96404
 11
15.0281
 21
5.04889
  0
LINE
  8
0
 10
15.0281
 20
5.04889
 11
15.0091
 21
5.13513
  0
LINE
  8
0
 10
15.0091
 20
5.13513
 11
14.99
 21
5.22058
  0
LINE
  8
0
 10
14.99
 20
5.22058
 11
14.9709
 21
5.30304
  0
LINE
  8
0
 10
14.9709
 20
5.30304
 11
14.952
 21
5.38254
  0
LINE
  8
0
 10
14.952
 20
5.38254
 11
14.9333
 21
5.45906
  0
LINE
  8
0
 10
14.9333
 20
5.45906
 11
14.9151
 21
5.53055
  0
LINE
  8
0
 10
14.9151
 20
5.53055
 11
14.898
 21
5.59494
  0
LINE
  8
0
 10
14.898
 20
5.59494
 11
14.882
 21
5.65224
  0
LINE
  8
0
 10
14.882
 20
5.65224
 11
14.867
 21
5.70244
  0
LINE
  8
0
 10
14.867
 20
5.70244
 11
14.5021
 21
6.76389
  0
LINE
  8
0
 10
14.5021
 20
6.76389
 11
13.4459
 21
6.76389
  0
LINE
  8
0
 10
13.4459
 20
6.76389
 11
13.4459
 21
4.03709
  0
LINE
  8
0
 10
13.4459
 20
4.03709
 11
14.1257
 21
4.03709
  0
LINE
  8
0
 10
14.1257
 20
4.03709
 11
14.1257
 21
5.21198
  0
LINE
  8
0
 10
18.4326
 20
5.64572
 11
17.1133
 21
5.64572
  0
LINE
  8
0
 10
17.1133
 20
5.64572
 11
17.1133
 21
5.15343
  0
LINE
  8
0
 10
17.1133
 20
5.15343
 11
18.4326
 21
5.15343
  0
LINE
  8
0
 10
18.4326
 20
5.15343
 11
18.4326
 21
5.64572
  0
LINE
  8
0
 10
30.6299
 20
5.64572
 11
29.3106
 21
5.64572
  0
LINE
  8
0
 10
29.3106
 20
5.64572
 11
29.3106
 21
5.15343
  0
LINE
  8
0
 10
29.3106
 20
5.15343
 11
30.6299
 21
5.15343
  0
LINE
  8
0
 10
30.6299
 20
5.15343
 11
30.6299
 21
5.64572
  0
LINE
  8
0
 10
30.5322
 20
0.80986
 11
30.5809
 21
0.811844
  0
LINE
  8
0
 10
30.5809
 20
0.811844
 11
30.6309
 21
0.81517
  0
LINE
  8
0
 10
30.6309
 20
0.81517
 11
30.6824
 21
0.819824
  0
LINE
  8
0
 10
30.6824
 20
0.819824
 11
30.735
 21
0.826355
  0
LINE
  8
0
 10
30.735
 20
0.826355
 11
30.7886
 21
0.835327
  0
LINE
  8
0
 10
30.7886
 20
0.835327
 11
30.8432
 21
0.846725
  0
LINE
  8
0
 10
30.8432
 20
0.846725
 11
30.8987
 21
0.860565
  0
LINE
  8
0
 10
30.8987
 20
0.860565
 11
30.8133
 21
1.31039
  0
LINE
  8
0
 10
30.8133
 20
1.31039
 11
30.7978
 21
1.30757
  0
LINE
  8
0
 10
30.7978
 20
1.30757
 11
30.778
 21
1.30443
  0
LINE
  8
0
 10
30.778
 20
1.30443
 11
30.7537
 21
1.30093
  0
LINE
  8
0
 10
30.7537
 20
1.30093
 11
30.7251
 21
1.2971
  0
LINE
  8
0
 10
30.7251
 20
1.2971
 11
30.696
 21
1.29362
  0
LINE
  8
0
 10
30.696
 20
1.29362
 11
30.6703
 21
1.29112
  0
LINE
  8
0
 10
30.6703
 20
1.29112
 11
30.648
 21
1.28964
  0
LINE
  8
0
 10
30.648
 20
1.28964
 11
30.6292
 21
1.28914
  0
LINE
  8
0
 10
30.6292
 20
1.28914
 11
30.5554
 21
1.29877
  0
LINE
  8
0
 10
30.5554
 20
1.29877
 11
30.5026
 21
1.32765
  0
LINE
  8
0
 10
30.5026
 20
1.32765
 11
30.4709
 21
1.37581
  0
LINE
  8
0
 10
30.4709
 20
1.37581
 11
30.4604
 21
1.44322
  0
LINE
  8
0
 10
30.4604
 20
1.44322
 11
30.4604
 21
2.35886
  0
LINE
  8
0
 10
30.4604
 20
2.35886
 11
30.8418
 21
2.35886
  0
LINE
  8
0
 10
30.8418
 20
2.35886
 11
30.8418
 21
2.81755
  0
LINE
  8
0
 10
30.8418
 20
2.81755
 11
30.4604
 21
2.81755
  0
LINE
  8
0
 10
30.4604
 20
2.81755
 11
30.4604
 21
3.28867
  0
LINE
  8
0
 10
30.4604
 20
3.28867
 11
29.7981
 21
3.28867
  0
LINE
  8
0
 10
29.7981
 20
3.28867
 11
29.7981
 21
2.81755
  0
LINE
  8
0
 10
29.7981
 20
2.81755
 11
29.1353
 21
2.81755
  0
LINE
  8
0
 10
29.1353
 20
2.81755
 11
29.1353
 21
2.92914
  0
LINE
  8
0
 10
29.1353
 20
2.92914
 11
29.1382
 21
2.97025
  0
LINE
  8
0
 10
29.1382
 20
2.97025
 11
29.1469
 21
3.00684
  0
LINE
  8
0
 10
29.1469
 20
3.00684
 11
29.1614
 21
3.03888
  0
LINE
  8
0
 10
29.1614
 20
3.03888
 11
29.1817
 21
3.06636
  0
LINE
  8
0
 10
29.1817
 20
3.06636
 11
29.2094
 21
3.08846
  0
LINE
  8
0
 10
29.2094
 20
3.08846
 11
29.246
 21
3.10423
  0
LINE
  8
0
 10
29.246
 20
3.10423
 11
29.2915
 21
3.11369
  0
LINE
  8
0
 10
29.2915
 20
3.11369
 11
29.3459
 21
3.11685
  0
LINE
  8
0
 10
29.3459
 20
3.11685
 11
29.3715
 21
3.11635
  0
LINE
  8
0
 10
29.3715
 20
3.11635
 11
29.3971
 21
3.11485
  0
LINE
  8
0
 10
29.3971
 20
3.11485
 11
29.4227
 21
3.11237
  0
LINE
  8
0
 10
29.4227
 20
3.11237
 11
29.4484
 21
3.10889
  0
LINE
  8
0
 10
29.4484
 20
3.10889
 11
29.4731
 21
3.10484
  0
LINE
  8
0
 10
29.4731
 20
3.10484
 11
29.4963
 21
3.10069
  0
LINE
  8
0
 10
29.4963
 20
3.10069
 11
29.5177
 21
3.09644
  0
LINE
  8
0
 10
29.5177
 20
3.09644
 11
29.5376
 21
3.09207
  0
LINE
  8
0
 10
29.5376
 20
3.09207
 11
29.6438
 21
3.54367
  0
LINE
  8
0
 10
29.6438
 20
3.54367
 11
29.6104
 21
3.55193
  0
LINE
  8
0
 10
29.6104
 20
3.55193
 11
29.5689
 21
3.56073
  0
LINE
  8
0
 10
29.5689
 20
3.56073
 11
29.5193
 21
3.57007
  0
LINE
  8
0
 10
29.5193
 20
3.57007
 11
29.4617
 21
3.57997
  0
LINE
  8
0
 10
29.4617
 20
3.57997
 11
29.3989
 21
3.58888
  0
LINE
  8
0
 10
29.3989
 20
3.58888
 11
29.334
 21
3.59525
  0
LINE
  8
0
 10
29.334
 20
3.59525
 11
29.267
 21
3.59908
  0
LINE
  8
0
 10
29.267
 20
3.59908
 11
29.1979
 21
3.60034
  0
LINE
  8
0
 10
29.1979
 20
3.60034
 11
29.0459
 21
3.58983
  0
LINE
  8
0
 10
29.0459
 20
3.58983
 11
28.9085
 21
3.55827
  0
LINE
  8
0
 10
28.9085
 20
3.55827
 11
28.7859
 21
3.50569
  0
LINE
  8
0
 10
28.7859
 20
3.50569
 11
28.678
 21
3.43208
  0
LINE
  8
0
 10
28.678
 20
3.43208
 11
28.59
 21
3.33723
  0
LINE
  8
0
 10
28.59
 20
3.33723
 11
28.5271
 21
3.2209
  0
LINE
  8
0
 10
28.5271
 20
3.2209
 11
28.4894
 21
3.08308
  0
LINE
  8
0
 10
28.4894
 20
3.08308
 11
28.4769
 21
2.92381
  0
LINE
  8
0
 10
28.4769
 20
2.92381
 11
28.4769
 21
2.81755
  0
LINE
  8
0
 10
28.4769
 20
2.81755
 11
28.1201
 21
2.81755
  0
LINE
  8
0
 10
28.1201
 20
2.81755
 11
28.1201
 21
2.35886
  0
LINE
  8
0
 10
28.1201
 20
2.35886
 11
28.4769
 21
2.35886
  0
LINE
  8
0
 10
28.4769
 20
2.35886
 11
28.4769
 21
0.837524
  0
LINE
  8
0
 10
28.4769
 20
0.837524
 11
29.1353
 21
0.837524
  0
LINE
  8
0
 10
29.1353
 20
0.837524
 11
29.1353
 21
2.35886
  0
LINE
  8
0
 10
29.1353
 20
2.35886
 11
29.7981
 21
2.35886
  0
LINE
  8
0
 10
29.7981
 20
2.35886
 11
29.7981
 21
1.38832
  0
LINE
  8
0
 10
29.7981
 20
1.38832
 11
29.809
 21
1.25511
  0
LINE
  8
0
 10
29.809
 20
1.25511
 11
29.8418
 21
1.13882
  0
LINE
  8
0
 10
29.8418
 20
1.13882
 11
29.8963
 21
1.03947
  0
LINE
  8
0
 10
29.8963
 20
1.03947
 11
29.9727
 21
0.957062
  0
LINE
  8
0
 10
29.9727
 20
0.957062
 11
30.0702
 21
0.892365
  0
LINE
  8
0
 10
30.0702
 20
0.892365
 11
30.1881
 21
0.846161
  0
LINE
  8
0
 10
30.1881
 20
0.846161
 11
30.3264
 21
0.818436
  0
LINE
  8
0
 10
30.3264
 20
0.818436
 11
30.485
 21
0.809204
  0
LINE
  8
0
 10
30.485
 20
0.809204
 11
30.5322
 21
0.80986
  0
LINE
  8
0
 10
19.1053
 20
0.824417
 11
19.3399
 21
0.891327
  0
LINE
  8
0
 10
19.3399
 20
0.891327
 11
19.5431
 21
1.00285
  0
LINE
  8
0
 10
19.5431
 20
1.00285
 11
19.7149
 21
1.15898
  0
LINE
  8
0
 10
19.7149
 20
1.15898
 11
19.8515
 21
1.35507
  0
LINE
  8
0
 10
19.8515
 20
1.35507
 11
19.949
 21
1.58646
  0
LINE
  8
0
 10
19.949
 20
1.58646
 11
20.0075
 21
1.85316
  0
LINE
  8
0
 10
20.0075
 20
1.85316
 11
20.027
 21
2.1552
  0
LINE
  8
0
 10
20.027
 20
2.1552
 11
20.0182
 21
2.3609
  0
LINE
  8
0
 10
20.0182
 20
2.3609
 11
19.9917
 21
2.55124
  0
LINE
  8
0
 10
19.9917
 20
2.55124
 11
19.9475
 21
2.72618
  0
LINE
  8
0
 10
19.9475
 20
2.72618
 11
19.8857
 21
2.88573
  0
LINE
  8
0
 10
19.8857
 20
2.88573
 11
19.8072
 21
3.02869
  0
LINE
  8
0
 10
19.8072
 20
3.02869
 11
19.7132
 21
3.15382
  0
LINE
  8
0
 10
19.7132
 20
3.15382
 11
19.6037
 21
3.26114
  0
LINE
  8
0
 10
19.6037
 20
3.26114
 11
19.4786
 21
3.35063
  0
LINE
  8
0
 10
19.4786
 20
3.35063
 11
19.3391
 21
3.42114
  0
LINE
  8
0
 10
19.3391
 20
3.42114
 11
19.186
 21
3.47151
  0
LINE
  8
0
 10
19.186
 20
3.47151
 11
19.0193
 21
3.50174
  0
LINE
  8
0
 10
19.0193
 20
3.50174
 11
18.8392
 21
3.51181
  0
LINE
  8
0
 10
18.8392
 20
3.51181
 11
18.5747
 21
3.48946
  0
LINE
  8
0
 10
18.5747
 20
3.48946
 11
18.3409
 21
3.42236
  0
LINE
  8
0
 10
18.3409
 20
3.42236
 11
18.1378
 21
3.31056
  0
LINE
  8
0
 10
18.1378
 20
3.31056
 11
17.9654
 21
3.15404
  0
LINE
  8
0
 10
17.9654
 20
3.15404
 11
17.828
 21
2.95746
  0
LINE
  8
0
 10
17.828
 20
2.95746
 11
17.7299
 21
2.72545
  0
LINE
  8
0
 10
17.7299
 20
2.72545
 11
17.671
 21
2.45802
  0
LINE
  8
0
 10
17.671
 20
2.45802
 11
17.6514
 21
2.1552
  0
LINE
  8
0
 10
17.6514
 20
2.1552
 11
17.671
 21
1.85245
  0
LINE
  8
0
 10
17.671
 20
1.85245
 11
17.7299
 21
1.58536
  0
LINE
  8
0
 10
17.7299
 20
1.58536
 11
17.828
 21
1.3539
  0
LINE
  8
0
 10
17.828
 20
1.3539
 11
17.9654
 21
1.1581
  0
LINE
  8
0
 10
17.9654
 20
1.1581
 11
18.1378
 21
1.00235
  0
LINE
  8
0
 10
18.1378
 20
1.00235
 11
18.3409
 21
0.891113
  0
LINE
  8
0
 10
18.3409
 20
0.891113
 11
18.5747
 21
0.824371
  0
LINE
  8
0
 10
18.5747
 20
0.824371
 11
18.8392
 21
0.802124
  0
LINE
  8
0
 10
18.8392
 20
0.802124
 11
19.1053
 21
0.824417
  0
LINE
  8
0
 10
18.7258
 20
1.32756
 11
18.6264
 21
1.36841
  0
LINE
  8
0
 10
18.6264
 20
1.36841
 11
18.5412
 21
1.43648
  0
LINE
  8
0
 10
18.5412
 20
1.43648
 11
18.4701
 21
1.53177
  0
LINE
  8
0
 10
18.4701
 20
1.53177
 11
18.4141
 21
1.65244
  0
LINE
  8
0
 10
18.4141
 20
1.65244
 11
18.3741
 21
1.79655
  0
LINE
  8
0
 10
18.3741
 20
1.79655
 11
18.3501
 21
1.96414
  0
LINE
  8
0
 10
18.3501
 20
1.96414
 11
18.342
 21
2.1552
  0
LINE
  8
0
 10
18.342
 20
2.1552
 11
18.3501
 21
2.34718
  0
LINE
  8
0
 10
18.3501
 20
2.34718
 11
18.3743
 21
2.51582
  0
LINE
  8
0
 10
18.3743
 20
2.51582
 11
18.4146
 21
2.6611
  0
LINE
  8
0
 10
18.4146
 20
2.6611
 11
18.4711
 21
2.78302
  0
LINE
  8
0
 10
18.4711
 20
2.78302
 11
18.5424
 21
2.87949
  0
LINE
  8
0
 10
18.5424
 20
2.87949
 11
18.6276
 21
2.94839
  0
LINE
  8
0
 10
18.6276
 20
2.94839
 11
18.7265
 21
2.98973
  0
LINE
  8
0
 10
18.7265
 20
2.98973
 11
18.8392
 21
3.00351
  0
LINE
  8
0
 10
18.8392
 20
3.00351
 11
18.9527
 21
2.98973
  0
LINE
  8
0
 10
18.9527
 20
2.98973
 11
19.0522
 21
2.94839
  0
LINE
  8
0
 10
19.0522
 20
2.94839
 11
19.1377
 21
2.87949
  0
LINE
  8
0
 10
19.1377
 20
2.87949
 11
19.2092
 21
2.78302
  0
LINE
  8
0
 10
19.2092
 20
2.78302
 11
19.2657
 21
2.6611
  0
LINE
  8
0
 10
19.2657
 20
2.6611
 11
19.306
 21
2.51582
  0
LINE
  8
0
 10
19.306
 20
2.51582
 11
19.3302
 21
2.34718
  0
LINE
  8
0
 10
19.3302
 20
2.34718
 11
19.3382
 21
2.1552
  0
LINE
  8
0
 10
19.3382
 20
2.1552
 11
19.3302
 21
1.96414
  0
LINE
  8
0
 10
19.3302
 20
1.96414
 11
19.306
 21
1.79655
  0
LINE
  8
0
 10
19.306
 20
1.79655
 11
19.2657
 21
1.65244
  0
LINE
  8
0
 10
19.2657
 20
1.65244
 11
19.2092
 21
1.53177
  0
LINE
  8
0
 10
19.2092
 20
1.53177
 11
19.1377
 21
1.43648
  0
LINE
  8
0
 10
19.1377
 20
1.43648
 11
19.0522
 21
1.36841
  0
LINE
  8
0
 10
19.0522
 20
1.36841
 11
18.9527
 21
1.32756
  0
LINE
  8
0
 10
18.9527
 20
1.32756
 11
18.8392
 21
1.31395
  0
LINE
  8
0
 10
18.8392
 20
1.31395
 11
18.7258
 21
1.32756
  0
LINE
  8
0
 10
23.0117
 20
0.815887
 11
23.1149
 21
0.835983
  0
LINE
  8
0
 10
23.1149
 20
0.835983
 11
23.2057
 21
0.869461
  0
LINE
  8
0
 10
23.2057
 20
0.869461
 11
23.2844
 21
0.916351
  0
LINE
  8
0
 10
23.2844
 20
0.916351
 11
23.3519
 21
0.971634
  0
LINE
  8
0
 10
23.3519
 20
0.971634
 11
23.409
 21
1.03035
  0
LINE
  8
0
 10
23.409
 20
1.03035
 11
23.4557
 21
1.09251
  0
LINE
  8
0
 10
23.4557
 20
1.09251
 11
23.4922
 21
1.1581
  0
LINE
  8
0
 10
23.4922
 20
1.1581
 11
23.515
 21
1.1581
  0
LINE
  8
0
 10
23.515
 20
1.1581
 11
23.515
 21
0.837524
  0
LINE
  8
0
 10
23.515
 20
0.837524
 11
24.1677
 21
0.837524
  0
LINE
  8
0
 10
24.1677
 20
0.837524
 11
24.1677
 21
3.47638
  0
LINE
  8
0
 10
24.1677
 20
3.47638
 11
23.5074
 21
3.47638
  0
LINE
  8
0
 10
23.5074
 20
3.47638
 11
23.5074
 21
2.47749
  0
LINE
  8
0
 10
23.5074
 20
2.47749
 11
23.4922
 21
2.47749
  0
LINE
  8
0
 10
23.4922
 20
2.47749
 11
23.47
 21
2.5215
  0
LINE
  8
0
 10
23.47
 20
2.5215
 11
23.4431
 21
2.56494
  0
LINE
  8
0
 10
23.4431
 20
2.56494
 11
23.4116
 21
2.60783
  0
LINE
  8
0
 10
23.4116
 20
2.60783
 11
23.3755
 21
2.65018
  0
LINE
  8
0
 10
23.3755
 20
2.65018
 11
23.3344
 21
2.69037
  0
LINE
  8
0
 10
23.3344
 20
2.69037
 11
23.288
 21
2.72678
  0
LINE
  8
0
 10
23.288
 20
2.72678
 11
23.2362
 21
2.75943
  0
LINE
  8
0
 10
23.2362
 20
2.75943
 11
23.1791
 21
2.78831
  0
LINE
  8
0
 10
23.1791
 20
2.78831
 11
23.1163
 21
2.81197
  0
LINE
  8
0
 10
23.1163
 20
2.81197
 11
23.0472
 21
2.82884
  0
LINE
  8
0
 10
23.0472
 20
2.82884
 11
22.9721
 21
2.83897
  0
LINE
  8
0
 10
22.9721
 20
2.83897
 11
22.8907
 21
2.84236
  0
LINE
  8
0
 10
22.8907
 20
2.84236
 11
22.7815
 21
2.83549
  0
LINE
  8
0
 10
22.7815
 20
2.83549
 11
22.6761
 21
2.8149
  0
LINE
  8
0
 10
22.6761
 20
2.8149
 11
22.5742
 21
2.78058
  0
LINE
  8
0
 10
22.5742
 20
2.78058
 11
22.4761
 21
2.73254
  0
LINE
  8
0
 10
22.4761
 20
2.73254
 11
22.3844
 21
2.67044
  0
LINE
  8
0
 10
22.3844
 20
2.67044
 11
22.302
 21
2.59395
  0
LINE
  8
0
 10
22.302
 20
2.59395
 11
22.2288
 21
2.50307
  0
LINE
  8
0
 10
22.2288
 20
2.50307
 11
22.1649
 21
2.3978
  0
LINE
  8
0
 10
22.1649
 20
2.3978
 11
22.113
 21
2.27771
  0
LINE
  8
0
 10
22.113
 20
2.27771
 11
22.076
 21
2.14233
  0
LINE
  8
0
 10
22.076
 20
2.14233
 11
22.0537
 21
1.9917
  0
LINE
  8
0
 10
22.0537
 20
1.9917
 11
22.0463
 21
1.82578
  0
LINE
  8
0
 10
22.0463
 20
1.82578
 11
22.0534
 21
1.66444
  0
LINE
  8
0
 10
22.0534
 20
1.66444
 11
22.0748
 21
1.51695
  0
LINE
  8
0
 10
22.0748
 20
1.51695
 11
22.1104
 21
1.38329
  0
LINE
  8
0
 10
22.1104
 20
1.38329
 11
22.1602
 21
1.26347
  0
LINE
  8
0
 10
22.1602
 20
1.26347
 11
22.2221
 21
1.15753
  0
LINE
  8
0
 10
22.2221
 20
1.15753
 11
22.2939
 21
1.06555
  0
LINE
  8
0
 10
22.2939
 20
1.06555
 11
22.3758
 21
0.987518
  0
LINE
  8
0
 10
22.3758
 20
0.987518
 11
22.4676
 21
0.923416
  0
LINE
  8
0
 10
22.4676
 20
0.923416
 11
22.5669
 21
0.873444
  0
LINE
  8
0
 10
22.5669
 20
0.873444
 11
22.6715
 21
0.837753
  0
LINE
  8
0
 10
22.6715
 20
0.837753
 11
22.7814
 21
0.81633
  0
LINE
  8
0
 10
22.7814
 20
0.81633
 11
22.8964
 21
0.809204
  0
LINE
  8
0
 10
22.8964
 20
0.809204
 11
23.0117
 21
0.815887
  0
LINE
  8
0
 10
23.032
 20
1.30009
 11
22.9531
 21
1.32767
  0
LINE
  8
0
 10
22.9531
 20
1.32767
 11
22.8854
 21
1.3736
  0
LINE
  8
0
 10
22.8854
 20
1.3736
 11
22.829
 21
1.43791
  0
LINE
  8
0
 10
22.829
 20
1.43791
 11
22.7846
 21
1.51729
  0
LINE
  8
0
 10
22.7846
 20
1.51729
 11
22.7529
 21
1.60838
  0
LINE
  8
0
 10
22.7529
 20
1.60838
 11
22.7339
 21
1.71121
  0
LINE
  8
0
 10
22.7339
 20
1.71121
 11
22.7275
 21
1.82578
  0
LINE
  8
0
 10
22.7275
 20
1.82578
 11
22.7339
 21
1.94029
  0
LINE
  8
0
 10
22.7339
 20
1.94029
 11
22.7529
 21
2.04295
  0
LINE
  8
0
 10
22.7529
 20
2.04295
 11
22.7846
 21
2.13377
  0
LINE
  8
0
 10
22.7846
 20
2.13377
 11
22.829
 21
2.21275
  0
LINE
  8
0
 10
22.829
 20
2.21275
 11
22.8854
 21
2.27667
  0
LINE
  8
0
 10
22.8854
 20
2.27667
 11
22.9531
 21
2.32233
  0
LINE
  8
0
 10
22.9531
 20
2.32233
 11
23.032
 21
2.34973
  0
LINE
  8
0
 10
23.032
 20
2.34973
 11
23.1222
 21
2.35886
  0
LINE
  8
0
 10
23.1222
 20
2.35886
 11
23.2118
 21
2.3499
  0
LINE
  8
0
 10
23.2118
 20
2.3499
 11
23.2908
 21
2.323
  0
LINE
  8
0
 10
23.2908
 20
2.323
 11
23.3593
 21
2.27815
  0
LINE
  8
0
 10
23.3593
 20
2.27815
 11
23.4173
 21
2.21539
  0
LINE
  8
0
 10
23.4173
 20
2.21539
 11
23.4633
 21
2.13724
  0
LINE
  8
0
 10
23.4633
 20
2.13724
 11
23.4962
 21
2.04626
  0
LINE
  8
0
 10
23.4962
 20
2.04626
 11
23.516
 21
1.94244
  0
LINE
  8
0
 10
23.516
 20
1.94244
 11
23.5226
 21
1.82578
  0
LINE
  8
0
 10
23.5226
 20
1.82578
 11
23.5159
 21
1.71049
  0
LINE
  8
0
 10
23.5159
 20
1.71049
 11
23.496
 21
1.60727
  0
LINE
  8
0
 10
23.496
 20
1.60727
 11
23.4628
 21
1.51611
  0
LINE
  8
0
 10
23.4628
 20
1.51611
 11
23.4163
 21
1.43703
  0
LINE
  8
0
 10
23.4163
 20
1.43703
 11
23.3581
 21
1.37311
  0
LINE
  8
0
 10
23.3581
 20
1.37311
 11
23.2897
 21
1.32744
  0
LINE
  8
0
 10
23.2897
 20
1.32744
 11
23.211
 21
1.30005
  0
LINE
  8
0
 10
23.211
 20
1.30005
 11
23.1222
 21
1.29091
  0
LINE
  8
0
 10
23.1222
 20
1.29091
 11
23.032
 21
1.30009
  0
LINE
  8
0
 10
33.4132
 20
3.47638
 11
32.7206
 21
3.47638
  0
LINE
  8
0
 10
32.7206
 20
3.47638
 11
32.0906
 21
3.07259
  0
LINE
  8
0
 10
32.0906
 20
3.07259
 11
32.0906
 21
2.52357
  0
LINE
  8
0
 10
32.0906
 20
2.52357
 11
32.7263
 21
2.93266
  0
LINE
  8
0
 10
32.7263
 20
2.93266
 11
32.7453
 21
2.93266
  0
LINE
  8
0
 10
32.7453
 20
2.93266
 11
32.7453
 21
0.837524
  0
LINE
  8
0
 10
32.7453
 20
0.837524
 11
33.4132
 21
0.837524
  0
LINE
  8
0
 10
33.4132
 20
0.837524
 11
33.4132
 21
3.47638
  0
LINE
  8
0
 10
13.4301
 20
3.47638
 11
12.7375
 21
3.47638
  0
LINE
  8
0
 10
12.7375
 20
3.47638
 11
12.1075
 21
3.07259
  0
LINE
  8
0
 10
12.1075
 20
3.07259
 11
12.1075
 21
2.52357
  0
LINE
  8
0
 10
12.1075
 20
2.52357
 11
12.7431
 21
2.93266
  0
LINE
  8
0
 10
12.7431
 20
2.93266
 11
12.7621
 21
2.93266
  0
LINE
  8
0
 10
12.7621
 20
2.93266
 11
12.7621
 21
0.837524
  0
LINE
  8
0
 10
12.7621
 20
0.837524
 11
13.4301
 21
0.837524
  0
LINE
  8
0
 10
13.4301
 20
0.837524
 11
13.4301
 21
3.47638
  0
LINE
  8
0
 10
16.0947
 20
3.47638
 11
15.4021
 21
3.47638
  0
LINE
  8
0
 10
15.4021
 20
3.47638
 11
14.7721
 21
3.07259
  0
LINE
  8
0
 10
14.7721
 20
3.07259
 11
14.7721
 21
2.52357
  0
LINE
  8
0
 10
14.7721
 20
2.52357
 11
15.4078
 21
2.93266
  0
LINE
  8
0
 10
15.4078
 20
2.93266
 11
15.4268
 21
2.93266
  0
LINE
  8
0
 10
15.4268
 20
2.93266
 11
15.4268
 21
0.837524
  0
LINE
  8
0
 10
15.4268
 20
0.837524
 11
16.0947
 21
0.837524
  0
LINE
  8
0
 10
16.0947
 20
0.837524
 11
16.0947
 21
3.47638
  0
LINE
  8
0
 10
6.59973
 20
0.800308
 11
6.67059
 21
0.801361
  0
LINE
  8
0
 10
6.67059
 20
0.801361
 11
6.74037
 21
0.803253
  0
LINE
  8
0
 10
6.74037
 20
0.803253
 11
6.80911
 21
0.806122
  0
LINE
  8
0
 10
6.80911
 20
0.806122
 11
6.87688
 21
0.810074
  0
LINE
  8
0
 10
6.87688
 20
0.810074
 11
6.94376
 21
0.815247
  0
LINE
  8
0
 10
6.94376
 20
0.815247
 11
7.00977
 21
0.821732
  0
LINE
  8
0
 10
7.00977
 20
0.821732
 11
7.075
 21
0.829681
  0
LINE
  8
0
 10
7.075
 20
0.829681
 11
7.13951
 21
0.839203
  0
LINE
  8
0
 10
7.13951
 20
0.839203
 11
7.20335
 21
0.850418
  0
LINE
  8
0
 10
7.20335
 20
0.850418
 11
7.26659
 21
0.863434
  0
LINE
  8
0
 10
7.26659
 20
0.863434
 11
7.32928
 21
0.878403
  0
LINE
  8
0
 10
7.32928
 20
0.878403
 11
7.39149
 21
0.895432
  0
LINE
  8
0
 10
7.39149
 20
0.895432
 11
7.45328
 21
0.914627
  0
LINE
  8
0
 10
7.45328
 20
0.914627
 11
7.51469
 21
0.936127
  0
LINE
  8
0
 10
7.51469
 20
0.936127
 11
7.57582
 21
0.960052
  0
LINE
  8
0
 10
7.57582
 20
0.960052
 11
7.63669
 21
0.986511
  0
LINE
  8
0
 10
7.63669
 20
0.986511
 11
7.69739
 21
1.01562
  0
LINE
  8
0
 10
7.69739
 20
1.01562
 11
7.75797
 21
1.04753
  0
LINE
  8
0
 10
7.75797
 20
1.04753
 11
7.81848
 21
1.08235
  0
LINE
  8
0
 10
7.81848
 20
1.08235
 11
4.51091
 21
2.97815
  0
LINE
  8
0
 10
4.51091
 20
2.97815
 11
1.52605
 21
1.12268
  0
LINE
  8
0
 10
1.52605
 20
1.12268
 11
1.56325
 21
1.09303
  0
LINE
  8
0
 10
1.56325
 20
1.09303
 11
1.60223
 21
1.06464
  0
LINE
  8
0
 10
1.60223
 20
1.06464
 11
1.64297
 21
1.03751
  0
LINE
  8
0
 10
1.64297
 20
1.03751
 11
1.68546
 21
1.01167
  0
LINE
  8
0
 10
1.68546
 20
1.01167
 11
1.72961
 21
0.987183
  0
LINE
  8
0
 10
1.72961
 20
0.987183
 11
1.77544
 21
0.964035
  0
LINE
  8
0
 10
1.77544
 20
0.964035
 11
1.82291
 21
0.942291
  0
LINE
  8
0
 10
1.82291
 20
0.942291
 11
1.87196
 21
0.921967
  0
LINE
  8
0
 10
1.87196
 20
0.921967
 11
1.92261
 21
0.903091
  0
LINE
  8
0
 10
1.92261
 20
0.903091
 11
1.97478
 21
0.885712
  0
LINE
  8
0
 10
1.97478
 20
0.885712
 11
2.02847
 21
0.869827
  0
LINE
  8
0
 10
2.02847
 20
0.869827
 11
2.08365
 21
0.855499
  0
LINE
  8
0
 10
2.08365
 20
0.855499
 11
2.14027
 21
0.842728
  0
LINE
  8
0
 10
2.14027
 20
0.842728
 11
2.19832
 21
0.831573
  0
LINE
  8
0
 10
2.19832
 20
0.831573
 11
2.25777
 21
0.822052
  0
LINE
  8
0
 10
2.25777
 20
0.822052
 11
2.31857
 21
0.814194
  0
LINE
  8
0
 10
2.31857
 20
0.814194
 11
2.38071
 21
0.808029
  0
LINE
  8
0
 10
2.38071
 20
0.808029
 11
2.44414
 21
0.803589
  0
LINE
  8
0
 10
2.44414
 20
0.803589
 11
2.50883
 21
0.800888
  0
LINE
  8
0
 10
2.50883
 20
0.800888
 11
2.57478
 21
0.799988
  0
LINE
  8
0
 10
2.57478
 20
0.799988
 11
6.52773
 21
0.799988
  0
LINE
  8
0
 10
6.52773
 20
0.799988
 11
6.59973
 21
0.800308
  0
LINE
  8
0
 10
26.8642
 20
0.821716
 11
27.0343
 21
0.880478
  0
LINE
  8
0
 10
27.0343
 20
0.880478
 11
27.1716
 21
0.978439
  0
LINE
  8
0
 10
27.1716
 20
0.978439
 11
27.2762
 21
1.11557
  0
LINE
  8
0
 10
27.2762
 20
1.11557
 11
27.2933
 21
1.11557
  0
LINE
  8
0
 10
27.2933
 20
1.11557
 11
27.2933
 21
0.837524
  0
LINE
  8
0
 10
27.2933
 20
0.837524
 11
27.9157
 21
0.837524
  0
LINE
  8
0
 10
27.9157
 20
0.837524
 11
27.9157
 21
2.18175
  0
LINE
  8
0
 10
27.9157
 20
2.18175
 11
27.9078
 21
2.28397
  0
LINE
  8
0
 10
27.9078
 20
2.28397
 11
27.8841
 21
2.37811
  0
LINE
  8
0
 10
27.8841
 20
2.37811
 11
27.8447
 21
2.46416
  0
LINE
  8
0
 10
27.8447
 20
2.46416
 11
27.7895
 21
2.54213
  0
LINE
  8
0
 10
27.7895
 20
2.54213
 11
27.7209
 21
2.6116
  0
LINE
  8
0
 10
27.7209
 20
2.6116
 11
27.6415
 21
2.67209
  0
LINE
  8
0
 10
27.6415
 20
2.67209
 11
27.5511
 21
2.72362
  0
LINE
  8
0
 10
27.5511
 20
2.72362
 11
27.4498
 21
2.76617
  0
LINE
  8
0
 10
27.4498
 20
2.76617
 11
27.3399
 21
2.7995
  0
LINE
  8
0
 10
27.3399
 20
2.7995
 11
27.2238
 21
2.8233
  0
LINE
  8
0
 10
27.2238
 20
2.8233
 11
27.1013
 21
2.8376
  0
LINE
  8
0
 10
27.1013
 20
2.8376
 11
26.9726
 21
2.84236
  0
LINE
  8
0
 10
26.9726
 20
2.84236
 11
26.783
 21
2.83244
  0
LINE
  8
0
 10
26.783
 20
2.83244
 11
26.6128
 21
2.80272
  0
LINE
  8
0
 10
26.6128
 20
2.80272
 11
26.4619
 21
2.75319
  0
LINE
  8
0
 10
26.4619
 20
2.75319
 11
26.3303
 21
2.68384
  0
LINE
  8
0
 10
26.3303
 20
2.68384
 11
26.2197
 21
2.59866
  0
LINE
  8
0
 10
26.2197
 20
2.59866
 11
26.1317
 21
2.50165
  0
LINE
  8
0
 10
26.1317
 20
2.50165
 11
26.0665
 21
2.39279
  0
LINE
  8
0
 10
26.0665
 20
2.39279
 11
26.0238
 21
2.27208
  0
LINE
  8
0
 10
26.0238
 20
2.27208
 11
26.6234
 21
2.19945
  0
LINE
  8
0
 10
26.6234
 20
2.19945
 11
26.6406
 21
2.24394
  0
LINE
  8
0
 10
26.6406
 20
2.24394
 11
26.6657
 21
2.28357
  0
LINE
  8
0
 10
26.6657
 20
2.28357
 11
26.6985
 21
2.31833
  0
LINE
  8
0
 10
26.6985
 20
2.31833
 11
26.7392
 21
2.34821
  0
LINE
  8
0
 10
26.7392
 20
2.34821
 11
26.7869
 21
2.37224
  0
LINE
  8
0
 10
26.7869
 20
2.37224
 11
26.8407
 21
2.38939
  0
LINE
  8
0
 10
26.8407
 20
2.38939
 11
26.9007
 21
2.39969
  0
LINE
  8
0
 10
26.9007
 20
2.39969
 11
26.9669
 21
2.40312
  0
LINE
  8
0
 10
26.9669
 20
2.40312
 11
27.0306
 21
2.39964
  0
LINE
  8
0
 10
27.0306
 20
2.39964
 11
27.0871
 21
2.38918
  0
LINE
  8
0
 10
27.0871
 20
2.38918
 11
27.1364
 21
2.37175
  0
LINE
  8
0
 10
27.1364
 20
2.37175
 11
27.1785
 21
2.34735
  0
LINE
  8
0
 10
27.1785
 20
2.34735
 11
27.2121
 21
2.31651
  0
LINE
  8
0
 10
27.2121
 20
2.31651
 11
27.2361
 21
2.27983
  0
LINE
  8
0
 10
27.2361
 20
2.27983
 11
27.2505
 21
2.23726
  0
LINE
  8
0
 10
27.2505
 20
2.23726
 11
27.2553
 21
2.18883
  0
LINE
  8
0
 10
27.2553
 20
2.18883
 11
27.2553
 21
2.18175
  0
LINE
  8
0
 10
27.2553
 20
2.18175
 11
27.248
 21
2.13953
  0
LINE
  8
0
 10
27.248
 20
2.13953
 11
27.2261
 21
2.10493
  0
LINE
  8
0
 10
27.2261
 20
2.10493
 11
27.1897
 21
2.07799
  0
LINE
  8
0
 10
27.1897
 20
2.07799
 11
27.1386
 21
2.05867
  0
LINE
  8
0
 10
27.1386
 20
2.05867
 11
27.0707
 21
2.04378
  0
LINE
  8
0
 10
27.0707
 20
2.04378
 11
26.9837
 21
2.03011
  0
LINE
  8
0
 10
26.9837
 20
2.03011
 11
26.8777
 21
2.01765
  0
LINE
  8
0
 10
26.8777
 20
2.01765
 11
26.7525
 21
2.00641
  0
LINE
  8
0
 10
26.7525
 20
2.00641
 11
26.6475
 21
1.9948
  0
LINE
  8
0
 10
26.6475
 20
1.9948
 11
26.5468
 21
1.97763
  0
LINE
  8
0
 10
26.5468
 20
1.97763
 11
26.4506
 21
1.95494
  0
LINE
  8
0
 10
26.4506
 20
1.95494
 11
26.3587
 21
1.92671
  0
LINE
  8
0
 10
26.3587
 20
1.92671
 11
26.2735
 21
1.89153
  0
LINE
  8
0
 10
26.2735
 20
1.89153
 11
26.1972
 21
1.84792
  0
LINE
  8
0
 10
26.1972
 20
1.84792
 11
26.1298
 21
1.79588
  0
LINE
  8
0
 10
26.1298
 20
1.79588
 11
26.0713
 21
1.73544
  0
LINE
  8
0
 10
26.0713
 20
1.73544
 11
26.0239
 21
1.66516
  0
LINE
  8
0
 10
26.0239
 20
1.66516
 11
25.9901
 21
1.58359
  0
LINE
  8
0
 10
25.9901
 20
1.58359
 11
25.9699
 21
1.49071
  0
LINE
  8
0
 10
25.9699
 20
1.49071
 11
25.9631
 21
1.38655
  0
LINE
  8
0
 10
25.9631
 20
1.38655
 11
25.9754
 21
1.24886
  0
LINE
  8
0
 10
25.9754
 20
1.24886
 11
26.0122
 21
1.12976
  0
LINE
  8
0
 10
26.0122
 20
1.12976
 11
26.0736
 21
1.02925
  0
LINE
  8
0
 10
26.0736
 20
1.02925
 11
26.1595
 21
0.947342
  0
LINE
  8
0
 10
26.1595
 20
0.947342
 11
26.2645
 21
0.883804
  0
LINE
  8
0
 10
26.2645
 20
0.883804
 11
26.3832
 21
0.838425
  0
LINE
  8
0
 10
26.3832
 20
0.838425
 11
26.5155
 21
0.811188
  0
LINE
  8
0
 10
26.5155
 20
0.811188
 11
26.6614
 21
0.802124
  0
LINE
  8
0
 10
26.6614
 20
0.802124
 11
26.8642
 21
0.821716
  0
LINE
  8
0
 10
26.8054
 20
1.21448
 11
26.7537
 21
1.22427
  0
LINE
  8
0
 10
26.7537
 20
1.22427
 11
26.7072
 21
1.2406
  0
LINE
  8
0
 10
26.7072
 20
1.2406
 11
26.6661
 21
1.26347
  0
LINE
  8
0
 10
26.6661
 20
1.26347
 11
26.6325
 21
1.29253
  0
LINE
  8
0
 10
26.6325
 20
1.29253
 11
26.6085
 21
1.32745
  0
LINE
  8
0
 10
26.6085
 20
1.32745
 11
26.5941
 21
1.36824
  0
LINE
  8
0
 10
26.5941
 20
1.36824
 11
26.5893
 21
1.41489
  0
LINE
  8
0
 10
26.5893
 20
1.41489
 11
26.6084
 21
1.502
  0
LINE
  8
0
 10
26.6084
 20
1.502
 11
26.6657
 21
1.5703
  0
LINE
  8
0
 10
26.6657
 20
1.5703
 11
26.7611
 21
1.61977
  0
LINE
  8
0
 10
26.7611
 20
1.61977
 11
26.8948
 21
1.65044
  0
LINE
  8
0
 10
26.8948
 20
1.65044
 11
26.9422
 21
1.65785
  0
LINE
  8
0
 10
26.9422
 20
1.65785
 11
26.9916
 21
1.66592
  0
LINE
  8
0
 10
26.9916
 20
1.66592
 11
27.0428
 21
1.67467
  0
LINE
  8
0
 10
27.0428
 20
1.67467
 11
27.0959
 21
1.68408
  0
LINE
  8
0
 10
27.0959
 20
1.68408
 11
27.1468
 21
1.69437
  0
LINE
  8
0
 10
27.1468
 20
1.69437
 11
27.1913
 21
1.70578
  0
LINE
  8
0
 10
27.1913
 20
1.70578
 11
27.2293
 21
1.71829
  0
LINE
  8
0
 10
27.2293
 20
1.71829
 11
27.261
 21
1.73192
  0
LINE
  8
0
 10
27.261
 20
1.73192
 11
27.261
 21
1.5424
  0
LINE
  8
0
 10
27.261
 20
1.5424
 11
27.2538
 21
1.47234
  0
LINE
  8
0
 10
27.2538
 20
1.47234
 11
27.2321
 21
1.40912
  0
LINE
  8
0
 10
27.2321
 20
1.40912
 11
27.1959
 21
1.35278
  0
LINE
  8
0
 10
27.1959
 20
1.35278
 11
27.1453
 21
1.3033
  0
LINE
  8
0
 10
27.1453
 20
1.3033
 11
27.0842
 21
1.263
  0
LINE
  8
0
 10
27.0842
 20
1.263
 11
27.0167
 21
1.23424
  0
LINE
  8
0
 10
27.0167
 20
1.23424
 11
26.9428
 21
1.21696
  0
LINE
  8
0
 10
26.9428
 20
1.21696
 11
26.8625
 21
1.21121
  0
LINE
  8
0
 10
26.8625
 20
1.21121
 11
26.8054
 21
1.21448
  0
LINE
  8
0
 10
25.2102
 20
1.91786
 11
25.2177
 21
2.00221
  0
LINE
  8
0
 10
25.2177
 20
2.00221
 11
25.2403
 21
2.07814
  0
LINE
  8
0
 10
25.2403
 20
2.07814
 11
25.278
 21
2.14566
  0
LINE
  8
0
 10
25.278
 20
2.14566
 11
25.3307
 21
2.20476
  0
LINE
  8
0
 10
25.3307
 20
2.20476
 11
25.3949
 21
2.25279
  0
LINE
  8
0
 10
25.3949
 20
2.25279
 11
25.4671
 21
2.28711
  0
LINE
  8
0
 10
25.4671
 20
2.28711
 11
25.5472
 21
2.30771
  0
LINE
  8
0
 10
25.5472
 20
2.30771
 11
25.6353
 21
2.31458
  0
LINE
  8
0
 10
25.6353
 20
2.31458
 11
25.6666
 21
2.31407
  0
LINE
  8
0
 10
25.6666
 20
2.31407
 11
25.7
 21
2.31258
  0
LINE
  8
0
 10
25.7
 20
2.31258
 11
25.7354
 21
2.31009
  0
LINE
  8
0
 10
25.7354
 20
2.31009
 11
25.7728
 21
2.30661
  0
LINE
  8
0
 10
25.7728
 20
2.30661
 11
25.8094
 21
2.30212
  0
LINE
  8
0
 10
25.8094
 20
2.30212
 11
25.8423
 21
2.29665
  0
LINE
  8
0
 10
25.8423
 20
2.29665
 11
25.8716
 21
2.29018
  0
LINE
  8
0
 10
25.8716
 20
2.29018
 11
25.8971
 21
2.28271
  0
LINE
  8
0
 10
25.8971
 20
2.28271
 11
25.8971
 21
2.82109
  0
LINE
  8
0
 10
25.8971
 20
2.82109
 11
25.8512
 21
2.8304
  0
LINE
  8
0
 10
25.8512
 20
2.8304
 11
25.8046
 21
2.83704
  0
LINE
  8
0
 10
25.8046
 20
2.83704
 11
25.7573
 21
2.84102
  0
LINE
  8
0
 10
25.7573
 20
2.84102
 11
25.7093
 21
2.84236
  0
LINE
  8
0
 10
25.7093
 20
2.84236
 11
25.6246
 21
2.83638
  0
LINE
  8
0
 10
25.6246
 20
2.83638
 11
25.5454
 21
2.81845
  0
LINE
  8
0
 10
25.5454
 20
2.81845
 11
25.4714
 21
2.78856
  0
LINE
  8
0
 10
25.4714
 20
2.78856
 11
25.4028
 21
2.74672
  0
LINE
  8
0
 10
25.4028
 20
2.74672
 11
25.3416
 21
2.6927
  0
LINE
  8
0
 10
25.3416
 20
2.6927
 11
25.2897
 21
2.6263
  0
LINE
  8
0
 10
25.2897
 20
2.6263
 11
25.2472
 21
2.54749
  0
LINE
  8
0
 10
25.2472
 20
2.54749
 11
25.214
 21
2.45627
  0
LINE
  8
0
 10
25.214
 20
2.45627
 11
25.1912
 21
2.45627
  0
LINE
  8
0
 10
25.1912
 20
2.45627
 11
25.1912
 21
2.81755
  0
LINE
  8
0
 10
25.1912
 20
2.81755
 11
24.548
 21
2.81755
  0
LINE
  8
0
 10
24.548
 20
2.81755
 11
24.548
 21
0.837524
  0
LINE
  8
0
 10
24.548
 20
0.837524
 11
25.2102
 21
0.837524
  0
LINE
  8
0
 10
25.2102
 20
0.837524
 11
25.2102
 21
1.91786
  0
LINE
  8
0
 10
11.9491
 20
2.81755
 11
11.2584
 21
2.81755
  0
LINE
  8
0
 10
11.2584
 20
2.81755
 11
10.9472
 21
1.84879
  0
LINE
  8
0
 10
10.9472
 20
1.84879
 11
10.926
 21
1.78143
  0
LINE
  8
0
 10
10.926
 20
1.78143
 11
10.9059
 21
1.71396
  0
LINE
  8
0
 10
10.9059
 20
1.71396
 11
10.8871
 21
1.64639
  0
LINE
  8
0
 10
10.8871
 20
1.64639
 11
10.8694
 21
1.5787
  0
LINE
  8
0
 10
10.8694
 20
1.5787
 11
10.8526
 21
1.51047
  0
LINE
  8
0
 10
10.8526
 20
1.51047
 11
10.8362
 21
1.44122
  0
LINE
  8
0
 10
10.8362
 20
1.44122
 11
10.8203
 21
1.371
  0
LINE
  8
0
 10
10.8203
 20
1.371
 11
10.8049
 21
1.29976
  0
LINE
  8
0
 10
10.8049
 20
1.29976
 11
10.7878
 21
1.37105
  0
LINE
  8
0
 10
10.7878
 20
1.37105
 11
10.7705
 21
1.44145
  0
LINE
  8
0
 10
10.7705
 20
1.44145
 11
10.7531
 21
1.51096
  0
LINE
  8
0
 10
10.7531
 20
1.51096
 11
10.7356
 21
1.57959
  0
LINE
  8
0
 10
10.7356
 20
1.57959
 11
10.7176
 21
1.64755
  0
LINE
  8
0
 10
10.7176
 20
1.64755
 11
10.6984
 21
1.71507
  0
LINE
  8
0
 10
10.6984
 20
1.71507
 11
10.6782
 21
1.78215
  0
LINE
  8
0
 10
10.6782
 20
1.78215
 11
10.6569
 21
1.84879
  0
LINE
  8
0
 10
10.6569
 20
1.84879
 11
10.34
 21
2.81755
  0
LINE
  8
0
 10
10.34
 20
2.81755
 11
9.64174
 21
2.81755
  0
LINE
  8
0
 10
9.64174
 20
2.81755
 11
10.4102
 21
0.837524
  0
LINE
  8
0
 10
10.4102
 20
0.837524
 11
11.1768
 21
0.837524
  0
LINE
  8
0
 10
11.1768
 20
0.837524
 11
11.9491
 21
2.81755
  0
LINE
  8
0
 10
21.6889
 20
2.14456
 11
20.3853
 21
2.14456
  0
LINE
  8
0
 10
20.3853
 20
2.14456
 11
20.3853
 21
1.66815
  0
LINE
  8
0
 10
20.3853
 20
1.66815
 11
21.6889
 21
1.66815
  0
LINE
  8
0
 10
21.6889
 20
1.66815
 11
21.6889
 21
2.14456
  0
LINE
  8
0
 10
14.3678
 20
0.806259
 11
14.4346
 21
0.824036
  0
LINE
  8
0
 10
14.4346
 20
0.824036
 11
14.4954
 21
0.853638
  0
LINE
  8
0
 10
14.4954
 20
0.853638
 11
14.5502
 21
0.895081
  0
LINE
  8
0
 10
14.5502
 20
0.895081
 11
14.5954
 21
0.945282
  0
LINE
  8
0
 10
14.5954
 20
0.945282
 11
14.6277
 21
1.00113
  0
LINE
  8
0
 10
14.6277
 20
1.00113
 11
14.6471
 21
1.06262
  0
LINE
  8
0
 10
14.6471
 20
1.06262
 11
14.6536
 21
1.12976
  0
LINE
  8
0
 10
14.6536
 20
1.12976
 11
14.6471
 21
1.19766
  0
LINE
  8
0
 10
14.6471
 20
1.19766
 11
14.6277
 21
1.2597
  0
LINE
  8
0
 10
14.6277
 20
1.2597
 11
14.5954
 21
1.31587
  0
LINE
  8
0
 10
14.5954
 20
1.31587
 11
14.5502
 21
1.36618
  0
LINE
  8
0
 10
14.5502
 20
1.36618
 11
14.4954
 21
1.40764
  0
LINE
  8
0
 10
14.4954
 20
1.40764
 11
14.4346
 21
1.43726
  0
LINE
  8
0
 10
14.4346
 20
1.43726
 11
14.3678
 21
1.45502
  0
LINE
  8
0
 10
14.3678
 20
1.45502
 11
14.295
 21
1.46095
  0
LINE
  8
0
 10
14.295
 20
1.46095
 11
14.2221
 21
1.45502
  0
LINE
  8
0
 10
14.2221
 20
1.45502
 11
14.1552
 21
1.43726
  0
LINE
  8
0
 10
14.1552
 20
1.43726
 11
14.0945
 21
1.40764
  0
LINE
  8
0
 10
14.0945
 20
1.40764
 11
14.0397
 21
1.36618
  0
LINE
  8
0
 10
14.0397
 20
1.36618
 11
13.9945
 21
1.31587
  0
LINE
  8
0
 10
13.9945
 20
1.31587
 11
13.9622
 21
1.2597
  0
LINE
  8
0
 10
13.9622
 20
1.2597
 11
13.9428
 21
1.19766
  0
LINE
  8
0
 10
13.9428
 20
1.19766
 11
13.9363
 21
1.12976
  0
LINE
  8
0
 10
13.9363
 20
1.12976
 11
13.9428
 21
1.06262
  0
LINE
  8
0
 10
13.9428
 20
1.06262
 11
13.9622
 21
1.00113
  0
LINE
  8
0
 10
13.9622
 20
1.00113
 11
13.9945
 21
0.945282
  0
LINE
  8
0
 10
13.9945
 20
0.945282
 11
14.0397
 21
0.895081
  0
LINE
  8
0
 10
14.0397
 20
0.895081
 11
14.0945
 21
0.853638
  0
LINE
  8
0
 10
14.0945
 20
0.853638
 11
14.1552
 21
0.824036
  0
LINE
  8
0
 10
14.1552
 20
0.824036
 11
14.2221
 21
0.806259
  0
LINE
  8
0
 10
14.2221
 20
0.806259
 11
14.295
 21
0.800339
  0
LINE
  8
0
 10
14.295
 20
0.800339
 11
14.3678
 21
0.806259
  0
LINE
  8
0
 10
31.6863
 20
0.806259
 11
31.7531
 21
0.824036
  0
LINE
  8
0
 10
31.7531
 20
0.824036
 11
31.8139
 21
0.853638
  0
LINE
  8
0
 10
31.8139
 20
0.853638
 11
31.8686
 21
0.895081
  0
LINE
  8
0
 10
31.8686
 20
0.895081
 11
31.9139
 21
0.945282
  0
LINE
  8
0
 10
31.9139
 20
0.945282
 11
31.9462
 21
1.00113
  0
LINE
  8
0
 10
31.9462
 20
1.00113
 11
31.9656
 21
1.06262
  0
LINE
  8
0
 10
31.9656
 20
1.06262
 11
31.9721
 21
1.12976
  0
LINE
  8
0
 10
31.9721
 20
1.12976
 11
31.9656
 21
1.19766
  0
LINE
  8
0
 10
31.9656
 20
1.19766
 11
31.9462
 21
1.2597
  0
LINE
  8
0
 10
31.9462
 20
1.2597
 11
31.9139
 21
1.31587
  0
LINE
  8
0
 10
31.9139
 20
1.31587
 11
31.8686
 21
1.36618
  0
LINE
  8
0
 10
31.8686
 20
1.36618
 11
31.8139
 21
1.40764
  0
LINE
  8
0
 10
31.8139
 20
1.40764
 11
31.7531
 21
1.43726
  0
LINE
  8
0
 10
31.7531
 20
1.43726
 11
31.6863
 21
1.45502
  0
LINE
  8
0
 10
31.6863
 20
1.45502
 11
31.6134
 21
1.46095
  0
LINE
  8
0
 10
31.6134
 20
1.46095
 11
31.5406
 21
1.45502
  0
LINE
  8
0
 10
31.5406
 20
1.45502
 11
31.4737
 21
1.43726
  0
LINE
  8
0
 10
31.4737
 20
1.43726
 11
31.413
 21
1.40764
  0
LINE
  8
0
 10
31.413
 20
1.40764
 11
31.3582
 21
1.36618
  0
LINE
  8
0
 10
31.3582
 20
1.36618
 11
31.313
 21
1.31587
  0
LINE
  8
0
 10
31.313
 20
1.31587
 11
31.2807
 21
1.2597
  0
LINE
  8
0
 10
31.2807
 20
1.2597
 11
31.2613
 21
1.19766
  0
LINE
  8
0
 10
31.2613
 20
1.19766
 11
31.2548
 21
1.12976
  0
LINE
  8
0
 10
31.2548
 20
1.12976
 11
31.2613
 21
1.06262
  0
LINE
  8
0
 10
31.2613
 20
1.06262
 11
31.2807
 21
1.00113
  0
LINE
  8
0
 10
31.2807
 20
1.00113
 11
31.313
 21
0.945282
  0
LINE
  8
0
 10
31.313
 20
0.945282
 11
31.3582
 21
0.895081
  0
LINE
  8
0
 10
31.3582
 20
0.895081
 11
31.413
 21
0.853638
  0
LINE
  8
0
 10
31.413
 20
0.853638
 11
31.4737
 21
0.824036
  0
LINE
  8
0
 10
31.4737
 20
0.824036
 11
31.5406
 21
0.806259
  0
LINE
  8
0
 10
31.5406
 20
0.806259
 11
31.6134
 21
0.800339
  0
LINE
  8
0
 10
31.6134
 20
0.800339
 11
31.6863
 21
0.806259
  0
LINE
  8
0
 10
17.0325
 20
0.806259
 11
17.0993
 21
0.824036
  0
LINE
  8
0
 10
17.0993
 20
0.824036
 11
17.1601
 21
0.853638
  0
LINE
  8
0
 10
17.1601
 20
0.853638
 11
17.2148
 21
0.895081
  0
LINE
  8
0
 10
17.2148
 20
0.895081
 11
17.26
 21
0.945282
  0
LINE
  8
0
 10
17.26
 20
0.945282
 11
17.2924
 21
1.00113
  0
LINE
  8
0
 10
17.2924
 20
1.00113
 11
17.3118
 21
1.06262
  0
LINE
  8
0
 10
17.3118
 20
1.06262
 11
17.3182
 21
1.12976
  0
LINE
  8
0
 10
17.3182
 20
1.12976
 11
17.3118
 21
1.19766
  0
LINE
  8
0
 10
17.3118
 20
1.19766
 11
17.2924
 21
1.2597
  0
LINE
  8
0
 10
17.2924
 20
1.2597
 11
17.26
 21
1.31587
  0
LINE
  8
0
 10
17.26
 20
1.31587
 11
17.2148
 21
1.36618
  0
LINE
  8
0
 10
17.2148
 20
1.36618
 11
17.1601
 21
1.40764
  0
LINE
  8
0
 10
17.1601
 20
1.40764
 11
17.0993
 21
1.43726
  0
LINE
  8
0
 10
17.0993
 20
1.43726
 11
17.0325
 21
1.45502
  0
LINE
  8
0
 10
17.0325
 20
1.45502
 11
16.9596
 21
1.46095
  0
LINE
  8
0
 10
16.9596
 20
1.46095
 11
16.8867
 21
1.45502
  0
LINE
  8
0
 10
16.8867
 20
1.45502
 11
16.8199
 21
1.43726
  0
LINE
  8
0
 10
16.8199
 20
1.43726
 11
16.7591
 21
1.40764
  0
LINE
  8
0
 10
16.7591
 20
1.40764
 11
16.7044
 21
1.36618
  0
LINE
  8
0
 10
16.7044
 20
1.36618
 11
16.6591
 21
1.31587
  0
LINE
  8
0
 10
16.6591
 20
1.31587
 11
16.6268
 21
1.2597
  0
LINE
  8
0
 10
16.6268
 20
1.2597
 11
16.6074
 21
1.19766
  0
LINE
  8
0
 10
16.6074
 20
1.19766
 11
16.601
 21
1.12976
  0
LINE
  8
0
 10
16.601
 20
1.12976
 11
16.6074
 21
1.06262
  0
LINE
  8
0
 10
16.6074
 20
1.06262
 11
16.6268
 21
1.00113
  0
LINE
  8
0
 10
16.6268
 20
1.00113
 11
16.6591
 21
0.945282
  0
LINE
  8
0
 10
16.6591
 20
0.945282
 11
16.7044
 21
0.895081
  0
LINE
  8
0
 10
16.7044
 20
0.895081
 11
16.7591
 21
0.853638
  0
LINE
  8
0
 10
16.7591
 20
0.853638
 11
16.8199
 21
0.824036
  0
LINE
  8
0
 10
16.8199
 20
0.824036
 11
16.8867
 21
0.806259
  0
LINE
  8
0
 10
16.8867
 20
0.806259
 11
16.9596
 21
0.800339
  0
LINE
  8
0
 10
16.9596
 20
0.800339
 11
17.0325
 21
0.806259
  0
ENDSEC
  0
SECTION
  2
OBJECTS
  0
DICTIONARY
  0
ENDSEC
  0
EOF
