  0
SECTION
  2
BLOCKS
  0
ENDSEC
  0
SECTION
  2
ENTITIES
  0
LINE
  8
0
 10
5.08235
 20
3.81175
 11
5.08235
 21
8.65881
  0
LINE
  8
0
 10
5.08235
 20
8.65881
 11
9.45882
 21
11.4823
  0
LINE
  8
0
 10
9.45882
 20
11.4823
 11
9.40869
 21
11.5307
  0
LINE
  8
0
 10
9.40869
 20
11.5307
 11
9.35716
 21
11.5769
  0
LINE
  8
0
 10
9.35716
 20
11.5769
 11
9.30423
 21
11.6209
  0
LINE
  8
0
 10
9.30423
 20
11.6209
 11
9.24988
 21
11.6627
  0
LINE
  8
0
 10
9.24988
 20
11.6627
 11
9.19411
 21
11.7022
  0
LINE
  8
0
 10
9.19411
 20
11.7022
 11
9.13693
 21
11.7394
  0
LINE
  8
0
 10
9.13693
 20
11.7394
 11
9.07834
 21
11.7743
  0
LINE
  8
0
 10
9.07834
 20
11.7743
 11
9.01834
 21
11.8069
  0
LINE
  8
0
 10
9.01834
 20
11.8069
 11
8.95694
 21
11.837
  0
LINE
  8
0
 10
8.95694
 20
11.837
 11
8.8941
 21
11.8647
  0
LINE
  8
0
 10
8.8941
 20
11.8647
 11
8.82988
 21
11.8899
  0
LINE
  8
0
 10
8.82988
 20
11.8899
 11
8.76422
 21
11.9127
  0
LINE
  8
0
 10
8.76422
 20
11.9127
 11
8.69717
 21
11.9328
  0
LINE
  8
0
 10
8.69717
 20
11.9328
 11
8.62869
 21
11.9504
  0
LINE
  8
0
 10
8.62869
 20
11.9504
 11
8.55882
 21
11.9654
  0
LINE
  8
0
 10
8.55882
 20
11.9654
 11
8.48752
 21
11.9778
  0
LINE
  8
0
 10
8.48752
 20
11.9778
 11
8.41481
 21
11.9874
  0
LINE
  8
0
 10
8.41481
 20
11.9874
 11
8.3407
 21
11.9944
  0
LINE
  8
0
 10
8.3407
 20
11.9944
 11
8.26517
 21
11.9986
  0
LINE
  8
0
 10
8.26517
 20
11.9986
 11
8.18823
 21
12
  0
LINE
  8
0
 10
8.18823
 20
12
 11
3.67058
 21
12
  0
LINE
  8
0
 10
3.67058
 20
12
 11
3.43317
 21
11.9906
  0
LINE
  8
0
 10
3.43317
 20
11.9906
 11
3.2014
 21
11.9628
  0
LINE
  8
0
 10
3.2014
 20
11.9628
 11
2.976
 21
11.9173
  0
LINE
  8
0
 10
2.976
 20
11.9173
 11
2.75764
 21
11.8547
  0
LINE
  8
0
 10
2.75764
 20
11.8547
 11
2.54706
 21
11.7757
  0
LINE
  8
0
 10
2.54706
 20
11.7757
 11
2.34494
 21
11.6811
  0
LINE
  8
0
 10
2.34494
 20
11.6811
 11
2.15199
 21
11.5714
  0
LINE
  8
0
 10
2.15199
 20
11.5714
 11
1.96893
 21
11.4473
  0
LINE
  8
0
 10
1.96893
 20
11.4473
 11
1.79646
 21
11.3096
  0
LINE
  8
0
 10
1.79646
 20
11.3096
 11
1.63528
 21
11.1588
  0
LINE
  8
0
 10
1.63528
 20
11.1588
 11
1.48611
 21
10.9957
  0
LINE
  8
0
 10
1.48611
 20
10.9957
 11
1.34964
 21
10.8209
  0
LINE
  8
0
 10
1.34964
 20
10.8209
 11
1.22658
 21
10.6351
  0
LINE
  8
0
 10
1.22658
 20
10.6351
 11
1.11765
 21
10.4389
  0
LINE
  8
0
 10
1.11765
 20
10.4389
 11
1.02353
 21
10.2331
  0
LINE
  8
0
 10
1.02353
 20
10.2331
 11
0.944931
 21
10.0182
  0
LINE
  8
0
 10
0.944931
 20
10.0182
 11
0.882584
 21
9.79509
  0
LINE
  8
0
 10
0.882584
 20
9.79509
 11
0.837173
 21
9.56427
  0
LINE
  8
0
 10
0.837173
 20
9.56427
 11
0.809402
 21
9.32646
  0
LINE
  8
0
 10
0.809402
 20
9.32646
 11
0.799988
 21
9.08235
  0
LINE
  8
0
 10
0.799988
 20
9.08235
 11
0.799988
 21
3.05882
  0
LINE
  8
0
 10
0.799988
 20
3.05882
 11
0.800705
 21
2.97447
  0
LINE
  8
0
 10
0.800705
 20
2.97447
 11
0.802917
 21
2.89091
  0
LINE
  8
0
 10
0.802917
 20
2.89091
 11
0.806656
 21
2.8082
  0
LINE
  8
0
 10
0.806656
 20
2.8082
 11
0.812042
 21
2.72639
  0
LINE
  8
0
 10
0.812042
 20
2.72639
 11
0.819107
 21
2.64558
  0
LINE
  8
0
 10
0.819107
 20
2.64558
 11
0.827942
 21
2.56583
  0
LINE
  8
0
 10
0.827942
 20
2.56583
 11
0.838623
 21
2.4872
  0
LINE
  8
0
 10
0.838623
 20
2.4872
 11
0.851196
 21
2.40977
  0
LINE
  8
0
 10
0.851196
 20
2.40977
 11
0.865738
 21
2.33363
  0
LINE
  8
0
 10
0.865738
 20
2.33363
 11
0.882339
 21
2.25882
  0
LINE
  8
0
 10
0.882339
 20
2.25882
 11
0.901062
 21
2.18541
  0
LINE
  8
0
 10
0.901062
 20
2.18541
 11
0.921967
 21
2.11349
  0
LINE
  8
0
 10
0.921967
 20
2.11349
 11
0.945129
 21
2.04314
  0
LINE
  8
0
 10
0.945129
 20
2.04314
 11
0.970627
 21
1.9744
  0
LINE
  8
0
 10
0.970627
 20
1.9744
 11
0.99852
 21
1.90735
  0
LINE
  8
0
 10
0.99852
 20
1.90735
 11
1.02888
 21
1.84206
  0
LINE
  8
0
 10
1.02888
 20
1.84206
 11
1.0618
 21
1.77861
  0
LINE
  8
0
 10
1.0618
 20
1.77861
 11
1.09731
 21
1.71707
  0
LINE
  8
0
 10
1.09731
 20
1.71707
 11
1.13551
 21
1.65752
  0
LINE
  8
0
 10
1.13551
 20
1.65752
 11
1.17647
 21
1.59999
  0
LINE
  8
0
 10
1.17647
 20
1.59999
 11
5.08235
 21
3.81175
  0
LINE
  8
0
 10
25.1934
 20
10.8884
 11
25.287
 21
10.9135
  0
LINE
  8
0
 10
25.287
 20
10.9135
 11
25.3729
 21
10.9555
  0
LINE
  8
0
 10
25.3729
 20
10.9555
 11
25.451
 21
11.0142
  0
LINE
  8
0
 10
25.451
 20
11.0142
 11
25.5161
 21
11.0849
  0
LINE
  8
0
 10
25.5161
 20
11.0849
 11
25.5625
 21
11.1628
  0
LINE
  8
0
 10
25.5625
 20
11.1628
 11
25.5904
 21
11.248
  0
LINE
  8
0
 10
25.5904
 20
11.248
 11
25.5997
 21
11.3403
  0
LINE
  8
0
 10
25.5997
 20
11.3403
 11
25.5904
 21
11.4326
  0
LINE
  8
0
 10
25.5904
 20
11.4326
 11
25.5625
 21
11.5177
  0
LINE
  8
0
 10
25.5625
 20
11.5177
 11
25.5161
 21
11.5956
  0
LINE
  8
0
 10
25.5161
 20
11.5956
 11
25.451
 21
11.6663
  0
LINE
  8
0
 10
25.451
 20
11.6663
 11
25.3729
 21
11.725
  0
LINE
  8
0
 10
25.3729
 20
11.725
 11
25.287
 21
11.767
  0
LINE
  8
0
 10
25.287
 20
11.767
 11
25.1934
 21
11.7921
  0
LINE
  8
0
 10
25.1934
 20
11.7921
 11
25.0921
 21
11.8005
  0
LINE
  8
0
 10
25.0921
 20
11.8005
 11
24.992
 21
11.7921
  0
LINE
  8
0
 10
24.992
 20
11.7921
 11
24.8992
 21
11.767
  0
LINE
  8
0
 10
24.8992
 20
11.767
 11
24.8138
 21
11.725
  0
LINE
  8
0
 10
24.8138
 20
11.725
 11
24.7358
 21
11.6663
  0
LINE
  8
0
 10
24.7358
 20
11.6663
 11
24.6708
 21
11.5956
  0
LINE
  8
0
 10
24.6708
 20
11.5956
 11
24.6244
 21
11.5177
  0
LINE
  8
0
 10
24.6244
 20
11.5177
 11
24.5965
 21
11.4326
  0
LINE
  8
0
 10
24.5965
 20
11.4326
 11
24.5872
 21
11.3403
  0
LINE
  8
0
 10
24.5872
 20
11.3403
 11
24.5965
 21
11.248
  0
LINE
  8
0
 10
24.5965
 20
11.248
 11
24.6244
 21
11.1628
  0
LINE
  8
0
 10
24.6244
 20
11.1628
 11
24.6708
 21
11.0849
  0
LINE
  8
0
 10
24.6708
 20
11.0849
 11
24.7358
 21
11.0142
  0
LINE
  8
0
 10
24.7358
 20
11.0142
 11
24.8138
 21
10.9555
  0
LINE
  8
0
 10
24.8138
 20
10.9555
 11
24.8992
 21
10.9135
  0
LINE
  8
0
 10
24.8992
 20
10.9135
 11
24.992
 21
10.8884
  0
LINE
  8
0
 10
24.992
 20
10.8884
 11
25.0921
 21
10.88
  0
LINE
  8
0
 10
25.0921
 20
10.88
 11
25.1934
 21
10.8884
  0
LINE
  8
0
 10
36.0913
 20
7.42459
 11
36.2437
 21
7.45567
  0
LINE
  8
0
 10
36.2437
 20
7.45567
 11
36.3781
 21
7.50746
  0
LINE
  8
0
 10
36.3781
 20
7.50746
 11
36.4944
 21
7.57999
  0
LINE
  8
0
 10
36.4944
 20
7.57999
 11
36.594
 21
7.66551
  0
LINE
  8
0
 10
36.594
 20
7.66551
 11
36.6784
 21
7.75635
  0
LINE
  8
0
 10
36.6784
 20
7.75635
 11
36.7476
 21
7.85251
  0
LINE
  8
0
 10
36.7476
 20
7.85251
 11
36.8015
 21
7.95396
  0
LINE
  8
0
 10
36.8015
 20
7.95396
 11
36.8352
 21
7.95396
  0
LINE
  8
0
 10
36.8352
 20
7.95396
 11
36.8352
 21
7.45805
  0
LINE
  8
0
 10
36.8352
 20
7.45805
 11
37.8
 21
7.45805
  0
LINE
  8
0
 10
37.8
 20
7.45805
 11
37.8
 21
11.5402
  0
LINE
  8
0
 10
37.8
 20
11.5402
 11
36.8239
 21
11.5402
  0
LINE
  8
0
 10
36.8239
 20
11.5402
 11
36.8239
 21
9.99503
  0
LINE
  8
0
 10
36.8239
 20
9.99503
 11
36.8015
 21
9.99503
  0
LINE
  8
0
 10
36.8015
 20
9.99503
 11
36.7686
 21
10.0631
  0
LINE
  8
0
 10
36.7686
 20
10.0631
 11
36.7289
 21
10.1303
  0
LINE
  8
0
 10
36.7289
 20
10.1303
 11
36.6824
 21
10.1967
  0
LINE
  8
0
 10
36.6824
 20
10.1967
 11
36.629
 21
10.2621
  0
LINE
  8
0
 10
36.629
 20
10.2621
 11
36.5683
 21
10.3243
  0
LINE
  8
0
 10
36.5683
 20
10.3243
 11
36.4996
 21
10.3807
  0
LINE
  8
0
 10
36.4996
 20
10.3807
 11
36.4231
 21
10.4312
  0
LINE
  8
0
 10
36.4231
 20
10.4312
 11
36.3387
 21
10.4759
  0
LINE
  8
0
 10
36.3387
 20
10.4759
 11
36.2458
 21
10.5124
  0
LINE
  8
0
 10
36.2458
 20
10.5124
 11
36.1438
 21
10.5385
  0
LINE
  8
0
 10
36.1438
 20
10.5385
 11
36.0326
 21
10.5542
  0
LINE
  8
0
 10
36.0326
 20
10.5542
 11
35.9124
 21
10.5594
  0
LINE
  8
0
 10
35.9124
 20
10.5594
 11
35.751
 21
10.5488
  0
LINE
  8
0
 10
35.751
 20
10.5488
 11
35.5951
 21
10.517
  0
LINE
  8
0
 10
35.5951
 20
10.517
 11
35.4446
 21
10.4639
  0
LINE
  8
0
 10
35.4446
 20
10.4639
 11
35.2996
 21
10.3896
  0
LINE
  8
0
 10
35.2996
 20
10.3896
 11
35.164
 21
10.2935
  0
LINE
  8
0
 10
35.164
 20
10.2935
 11
35.0422
 21
10.1752
  0
LINE
  8
0
 10
35.0422
 20
10.1752
 11
34.9341
 21
10.0346
  0
LINE
  8
0
 10
34.9341
 20
10.0346
 11
34.8396
 21
9.87173
  0
LINE
  8
0
 10
34.8396
 20
9.87173
 11
34.7629
 21
9.68596
  0
LINE
  8
0
 10
34.7629
 20
9.68596
 11
34.7081
 21
9.47655
  0
LINE
  8
0
 10
34.7081
 20
9.47655
 11
34.6752
 21
9.24352
  0
LINE
  8
0
 10
34.6752
 20
9.24352
 11
34.6643
 21
8.98683
  0
LINE
  8
0
 10
34.6643
 20
8.98683
 11
34.6748
 21
8.73727
  0
LINE
  8
0
 10
34.6748
 20
8.73727
 11
34.7064
 21
8.50909
  0
LINE
  8
0
 10
34.7064
 20
8.50909
 11
34.759
 21
8.30234
  0
LINE
  8
0
 10
34.759
 20
8.30234
 11
34.8326
 21
8.11697
  0
LINE
  8
0
 10
34.8326
 20
8.11697
 11
34.9241
 21
7.95309
  0
LINE
  8
0
 10
34.9241
 20
7.95309
 11
35.0303
 21
7.81079
  0
LINE
  8
0
 10
35.0303
 20
7.81079
 11
35.1513
 21
7.69008
  0
LINE
  8
0
 10
35.1513
 20
7.69008
 11
35.2869
 21
7.59093
  0
LINE
  8
0
 10
35.2869
 20
7.59093
 11
35.4338
 21
7.51363
  0
LINE
  8
0
 10
35.4338
 20
7.51363
 11
35.5884
 21
7.4584
  0
LINE
  8
0
 10
35.5884
 20
7.4584
 11
35.7508
 21
7.42528
  0
LINE
  8
0
 10
35.7508
 20
7.42528
 11
35.9208
 21
7.41423
  0
LINE
  8
0
 10
35.9208
 20
7.41423
 11
36.0913
 21
7.42459
  0
LINE
  8
0
 10
36.1213
 20
8.17365
 11
36.0046
 21
8.21628
  0
LINE
  8
0
 10
36.0046
 20
8.21628
 11
35.9046
 21
8.28734
  0
LINE
  8
0
 10
35.9046
 20
8.28734
 11
35.8212
 21
8.38684
  0
LINE
  8
0
 10
35.8212
 20
8.38684
 11
35.7556
 21
8.50961
  0
LINE
  8
0
 10
35.7556
 20
8.50961
 11
35.7087
 21
8.65053
  0
LINE
  8
0
 10
35.7087
 20
8.65053
 11
35.6806
 21
8.80962
  0
LINE
  8
0
 10
35.6806
 20
8.80962
 11
35.6712
 21
8.98683
  0
LINE
  8
0
 10
35.6712
 20
8.98683
 11
35.6806
 21
9.16397
  0
LINE
  8
0
 10
35.6806
 20
9.16397
 11
35.7087
 21
9.32278
  0
LINE
  8
0
 10
35.7087
 20
9.32278
 11
35.7556
 21
9.46329
  0
LINE
  8
0
 10
35.7556
 20
9.46329
 11
35.8212
 21
9.58546
  0
LINE
  8
0
 10
35.8212
 20
9.58546
 11
35.9046
 21
9.68436
  0
LINE
  8
0
 10
35.9046
 20
9.68436
 11
36.0046
 21
9.75499
  0
LINE
  8
0
 10
36.0046
 20
9.75499
 11
36.1213
 21
9.79738
  0
LINE
  8
0
 10
36.1213
 20
9.79738
 11
36.2546
 21
9.81149
  0
LINE
  8
0
 10
36.2546
 20
9.81149
 11
36.387
 21
9.79762
  0
LINE
  8
0
 10
36.387
 20
9.79762
 11
36.5039
 21
9.75601
  0
LINE
  8
0
 10
36.5039
 20
9.75601
 11
36.6051
 21
9.68665
  0
LINE
  8
0
 10
36.6051
 20
9.68665
 11
36.6907
 21
9.58955
  0
LINE
  8
0
 10
36.6907
 20
9.58955
 11
36.7588
 21
9.46866
  0
LINE
  8
0
 10
36.7588
 20
9.46866
 11
36.8074
 21
9.32791
  0
LINE
  8
0
 10
36.8074
 20
9.32791
 11
36.8366
 21
9.16731
  0
LINE
  8
0
 10
36.8366
 20
9.16731
 11
36.8464
 21
8.98683
  0
LINE
  8
0
 10
36.8464
 20
8.98683
 11
36.8365
 21
8.8085
  0
LINE
  8
0
 10
36.8365
 20
8.8085
 11
36.8071
 21
8.64882
  0
LINE
  8
0
 10
36.8071
 20
8.64882
 11
36.758
 21
8.5078
  0
LINE
  8
0
 10
36.758
 20
8.5078
 11
36.6893
 21
8.38545
  0
LINE
  8
0
 10
36.6893
 20
8.38545
 11
36.6032
 21
8.28658
  0
LINE
  8
0
 10
36.6032
 20
8.28658
 11
36.5021
 21
8.21593
  0
LINE
  8
0
 10
36.5021
 20
8.21593
 11
36.3859
 21
8.17355
  0
LINE
  8
0
 10
36.3859
 20
8.17355
 11
36.2546
 21
8.15942
  0
LINE
  8
0
 10
36.2546
 20
8.15942
 11
36.1213
 21
8.17365
  0
LINE
  8
0
 10
27.1884
 20
9.21695
 11
27.1879
 21
9.29939
  0
LINE
  8
0
 10
27.1879
 20
9.29939
 11
27.1866
 21
9.39331
  0
LINE
  8
0
 10
27.1866
 20
9.39331
 11
27.1844
 21
9.4987
  0
LINE
  8
0
 10
27.1844
 20
9.4987
 11
27.1813
 21
9.61555
  0
LINE
  8
0
 10
27.1813
 20
9.61555
 11
27.174
 21
9.87071
  0
LINE
  8
0
 10
27.174
 20
9.87071
 11
27.17
 21
10.0057
  0
LINE
  8
0
 10
27.17
 20
10.0057
 11
27.1659
 21
10.1457
  0
LINE
  8
0
 10
27.1659
 20
10.1457
 11
27.1619
 21
10.2872
  0
LINE
  8
0
 10
27.1619
 20
10.2872
 11
27.1582
 21
10.4265
  0
LINE
  8
0
 10
27.1582
 20
10.4265
 11
27.1549
 21
10.5639
  0
LINE
  8
0
 10
27.1549
 20
10.5639
 11
27.1519
 21
10.6991
  0
LINE
  8
0
 10
27.1519
 20
10.6991
 11
27.1874
 21
10.5556
  0
LINE
  8
0
 10
27.1874
 20
10.5556
 11
27.2238
 21
10.4125
  0
LINE
  8
0
 10
27.2238
 20
10.4125
 11
27.261
 21
10.27
  0
LINE
  8
0
 10
27.261
 20
10.27
 11
27.2991
 21
10.1279
  0
LINE
  8
0
 10
27.2991
 20
10.1279
 11
27.3373
 21
9.98898
  0
LINE
  8
0
 10
27.3373
 20
9.98898
 11
27.3745
 21
9.85568
  0
LINE
  8
0
 10
27.3745
 20
9.85568
 11
27.4109
 21
9.72801
  0
LINE
  8
0
 10
27.4109
 20
9.72801
 11
27.4464
 21
9.60599
  0
LINE
  8
0
 10
27.4464
 20
9.60599
 11
27.48
 21
9.49229
  0
LINE
  8
0
 10
27.48
 20
9.49229
 11
27.5109
 21
9.38956
  0
LINE
  8
0
 10
27.5109
 20
9.38956
 11
27.5389
 21
9.29778
  0
LINE
  8
0
 10
27.5389
 20
9.29778
 11
27.5642
 21
9.21695
  0
LINE
  8
0
 10
27.5642
 20
9.21695
 11
28.1672
 21
7.45805
  0
LINE
  8
0
 10
28.1672
 20
7.45805
 11
28.9946
 21
7.45805
  0
LINE
  8
0
 10
28.9946
 20
7.45805
 11
29.5892
 21
9.21695
  0
LINE
  8
0
 10
29.5892
 20
9.21695
 11
29.6157
 21
9.30077
  0
LINE
  8
0
 10
29.6157
 20
9.30077
 11
29.6446
 21
9.39607
  0
LINE
  8
0
 10
29.6446
 20
9.39607
 11
29.676
 21
9.50282
  0
LINE
  8
0
 10
29.676
 20
9.50282
 11
29.7098
 21
9.62106
  0
LINE
  8
0
 10
29.7098
 20
9.62106
 11
29.7453
 21
9.74786
  0
LINE
  8
0
 10
29.7453
 20
9.74786
 11
29.7817
 21
9.88031
  0
LINE
  8
0
 10
29.7817
 20
9.88031
 11
29.8189
 21
10.0184
  0
LINE
  8
0
 10
29.8189
 20
10.0184
 11
29.8571
 21
10.1622
  0
LINE
  8
0
 10
29.8571
 20
10.1622
 11
29.8952
 21
10.3086
  0
LINE
  8
0
 10
29.8952
 20
10.3086
 11
29.9324
 21
10.4546
  0
LINE
  8
0
 10
29.9324
 20
10.4546
 11
29.9688
 21
10.6004
  0
LINE
  8
0
 10
29.9688
 20
10.6004
 11
30.0043
 21
10.7457
  0
LINE
  8
0
 10
30.0043
 20
10.7457
 11
30.0013
 21
10.6074
  0
LINE
  8
0
 10
30.0013
 20
10.6074
 11
29.998
 21
10.4663
  0
LINE
  8
0
 10
29.998
 20
10.4663
 11
29.9943
 21
10.3224
  0
LINE
  8
0
 10
29.9943
 20
10.3224
 11
29.9903
 21
10.1759
  0
LINE
  8
0
 10
29.9903
 20
10.1759
 11
29.9785
 21
9.75592
  0
LINE
  8
0
 10
29.9785
 20
9.75592
 11
29.9749
 21
9.62656
  0
LINE
  8
0
 10
29.9749
 20
9.62656
 11
29.9718
 21
9.50592
  0
LINE
  8
0
 10
29.9718
 20
9.50592
 11
29.9696
 21
9.39745
  0
LINE
  8
0
 10
29.9696
 20
9.39745
 11
29.9683
 21
9.30112
  0
LINE
  8
0
 10
29.9683
 20
9.30112
 11
29.9678
 21
9.21695
  0
LINE
  8
0
 10
29.9678
 20
9.21695
 11
29.9678
 21
7.45805
  0
LINE
  8
0
 10
29.9678
 20
7.45805
 11
30.9635
 21
7.45805
  0
LINE
  8
0
 10
30.9635
 20
7.45805
 11
30.9635
 21
11.5402
  0
LINE
  8
0
 10
30.9635
 20
11.5402
 11
29.4181
 21
11.5402
  0
LINE
  8
0
 10
29.4181
 20
11.5402
 11
28.8936
 21
9.9512
  0
LINE
  8
0
 10
28.8936
 20
9.9512
 11
28.8718
 21
9.87595
  0
LINE
  8
0
 10
28.8718
 20
9.87595
 11
28.8484
 21
9.78992
  0
LINE
  8
0
 10
28.8484
 20
9.78992
 11
28.8234
 21
9.69308
  0
LINE
  8
0
 10
28.8234
 20
9.69308
 11
28.7969
 21
9.58546
  0
LINE
  8
0
 10
28.7969
 20
9.58546
 11
28.7695
 21
9.4704
  0
LINE
  8
0
 10
28.7695
 20
9.4704
 11
28.7422
 21
9.35121
  0
LINE
  8
0
 10
28.7422
 20
9.35121
 11
28.7148
 21
9.22792
  0
LINE
  8
0
 10
28.7148
 20
9.22792
 11
28.6875
 21
9.10051
  0
LINE
  8
0
 10
28.6875
 20
9.10051
 11
28.6606
 21
8.97202
  0
LINE
  8
0
 10
28.6606
 20
8.97202
 11
28.6346
 21
8.8454
  0
LINE
  8
0
 10
28.6346
 20
8.8454
 11
28.6094
 21
8.72066
  0
LINE
  8
0
 10
28.6094
 20
8.72066
 11
28.5851
 21
8.59779
  0
LINE
  8
0
 10
28.5851
 20
8.59779
 11
28.5595
 21
8.72075
  0
LINE
  8
0
 10
28.5595
 20
8.72075
 11
28.5332
 21
8.84573
  0
LINE
  8
0
 10
28.5332
 20
8.84573
 11
28.5062
 21
8.97279
  0
LINE
  8
0
 10
28.5062
 20
8.97279
 11
28.4785
 21
9.10188
  0
LINE
  8
0
 10
28.4785
 20
9.10188
 11
28.4505
 21
9.22981
  0
LINE
  8
0
 10
28.4505
 20
9.22981
 11
28.4228
 21
9.35327
  0
LINE
  8
0
 10
28.4228
 20
9.35327
 11
28.3952
 21
9.47227
  0
LINE
  8
0
 10
28.3952
 20
9.47227
 11
28.3677
 21
9.58684
  0
LINE
  8
0
 10
28.3677
 20
9.58684
 11
28.3412
 21
9.69386
  0
LINE
  8
0
 10
28.3412
 20
9.69386
 11
28.3162
 21
9.79025
  0
LINE
  8
0
 10
28.3162
 20
9.79025
 11
28.2928
 21
9.87604
  0
LINE
  8
0
 10
28.2928
 20
9.87604
 11
28.271
 21
9.9512
  0
LINE
  8
0
 10
28.271
 20
9.9512
 11
27.7381
 21
11.5402
  0
LINE
  8
0
 10
27.7381
 20
11.5402
 11
26.1955
 21
11.5402
  0
LINE
  8
0
 10
26.1955
 20
11.5402
 11
26.1955
 21
7.45805
  0
LINE
  8
0
 10
26.1955
 20
7.45805
 11
27.1884
 21
7.45805
  0
LINE
  8
0
 10
27.1884
 20
7.45805
 11
27.1884
 21
9.21695
  0
LINE
  8
0
 10
21.3266
 20
7.41525
 11
21.3985
 21
7.41833
  0
LINE
  8
0
 10
21.3985
 20
7.41833
 11
21.4725
 21
7.42348
  0
LINE
  8
0
 10
21.4725
 20
7.42348
 11
21.5485
 21
7.43068
  0
LINE
  8
0
 10
21.5485
 20
7.43068
 11
21.6264
 21
7.44078
  0
LINE
  8
0
 10
21.6264
 20
7.44078
 11
21.7056
 21
7.45465
  0
LINE
  8
0
 10
21.7056
 20
7.45465
 11
21.7862
 21
7.47229
  0
LINE
  8
0
 10
21.7862
 20
7.47229
 11
21.8683
 21
7.4937
  0
LINE
  8
0
 10
21.8683
 20
7.4937
 11
21.7421
 21
8.18956
  0
LINE
  8
0
 10
21.7421
 20
8.18956
 11
21.7192
 21
8.18521
  0
LINE
  8
0
 10
21.7192
 20
8.18521
 11
21.6898
 21
8.18033
  0
LINE
  8
0
 10
21.6898
 20
8.18033
 11
21.654
 21
8.17493
  0
LINE
  8
0
 10
21.654
 20
8.17493
 11
21.6116
 21
8.16901
  0
LINE
  8
0
 10
21.6116
 20
8.16901
 11
21.5686
 21
8.1636
  0
LINE
  8
0
 10
21.5686
 20
8.1636
 11
21.5307
 21
8.15976
  0
LINE
  8
0
 10
21.5307
 20
8.15976
 11
21.4978
 21
8.15746
  0
LINE
  8
0
 10
21.4978
 20
8.15746
 11
21.47
 21
8.15668
  0
LINE
  8
0
 10
21.47
 20
8.15668
 11
21.3608
 21
8.17157
  0
LINE
  8
0
 10
21.3608
 20
8.17157
 11
21.2828
 21
8.21626
  0
LINE
  8
0
 10
21.2828
 20
8.21626
 11
21.236
 21
8.29076
  0
LINE
  8
0
 10
21.236
 20
8.29076
 11
21.2204
 21
8.39503
  0
LINE
  8
0
 10
21.2204
 20
8.39503
 11
21.2204
 21
9.81149
  0
LINE
  8
0
 10
21.2204
 20
9.81149
 11
21.7841
 21
9.81149
  0
LINE
  8
0
 10
21.7841
 20
9.81149
 11
21.7841
 21
10.5211
  0
LINE
  8
0
 10
21.7841
 20
10.5211
 11
21.2204
 21
10.5211
  0
LINE
  8
0
 10
21.2204
 20
10.5211
 11
21.2204
 21
11.2499
  0
LINE
  8
0
 10
21.2204
 20
11.2499
 11
20.2415
 21
11.2499
  0
LINE
  8
0
 10
20.2415
 20
11.2499
 11
20.2415
 21
10.5211
  0
LINE
  8
0
 10
20.2415
 20
10.5211
 11
19.8264
 21
10.5211
  0
LINE
  8
0
 10
19.8264
 20
10.5211
 11
19.8264
 21
9.81149
  0
LINE
  8
0
 10
19.8264
 20
9.81149
 11
20.2415
 21
9.81149
  0
LINE
  8
0
 10
20.2415
 20
9.81149
 11
20.2415
 21
8.31012
  0
LINE
  8
0
 10
20.2415
 20
8.31012
 11
20.2576
 21
8.10403
  0
LINE
  8
0
 10
20.2576
 20
8.10403
 11
20.306
 21
7.92415
  0
LINE
  8
0
 10
20.306
 20
7.92415
 11
20.3867
 21
7.77046
  0
LINE
  8
0
 10
20.3867
 20
7.77046
 11
20.4995
 21
7.64297
  0
LINE
  8
0
 10
20.4995
 20
7.64297
 11
20.6437
 21
7.54289
  0
LINE
  8
0
 10
20.6437
 20
7.54289
 11
20.8179
 21
7.47142
  0
LINE
  8
0
 10
20.8179
 20
7.47142
 11
21.0223
 21
7.42853
  0
LINE
  8
0
 10
21.0223
 20
7.42853
 11
21.2568
 21
7.41423
  0
LINE
  8
0
 10
21.2568
 20
7.41423
 11
21.3266
 21
7.41525
  0
LINE
  8
0
 10
51.4994
 20
9.27722
 11
51.5073
 21
9.39093
  0
LINE
  8
0
 10
51.5073
 20
9.39093
 11
51.5313
 21
9.49092
  0
LINE
  8
0
 10
51.5313
 20
9.49092
 11
51.5711
 21
9.57722
  0
LINE
  8
0
 10
51.5711
 20
9.57722
 11
51.627
 21
9.64983
  0
LINE
  8
0
 10
51.627
 20
9.64983
 11
51.6952
 21
9.70737
  0
LINE
  8
0
 10
51.6952
 20
9.70737
 11
51.7725
 21
9.74847
  0
LINE
  8
0
 10
51.7725
 20
9.74847
 11
51.8586
 21
9.77315
  0
LINE
  8
0
 10
51.8586
 20
9.77315
 11
51.9537
 21
9.78136
  0
LINE
  8
0
 10
51.9537
 20
9.78136
 11
52.046
 21
9.77356
  0
LINE
  8
0
 10
52.046
 20
9.77356
 11
52.1294
 21
9.75018
  0
LINE
  8
0
 10
52.1294
 20
9.75018
 11
52.2038
 21
9.71123
  0
LINE
  8
0
 10
52.2038
 20
9.71123
 11
52.2693
 21
9.65669
  0
LINE
  8
0
 10
52.2693
 20
9.65669
 11
52.3226
 21
9.58896
  0
LINE
  8
0
 10
52.3226
 20
9.58896
 11
52.3608
 21
9.51045
  0
LINE
  8
0
 10
52.3608
 20
9.51045
 11
52.3837
 21
9.42114
  0
LINE
  8
0
 10
52.3837
 20
9.42114
 11
52.3913
 21
9.32106
  0
LINE
  8
0
 10
52.3913
 20
9.32106
 11
52.3913
 21
7.45805
  0
LINE
  8
0
 10
52.3913
 20
7.45805
 11
53.3308
 21
7.45805
  0
LINE
  8
0
 10
53.3308
 20
7.45805
 11
53.3308
 21
9.29642
  0
LINE
  8
0
 10
53.3308
 20
9.29642
 11
53.3384
 21
9.4006
  0
LINE
  8
0
 10
53.3384
 20
9.4006
 11
53.361
 21
9.494
  0
LINE
  8
0
 10
53.361
 20
9.494
 11
53.3987
 21
9.57661
  0
LINE
  8
0
 10
53.3987
 20
9.57661
 11
53.4514
 21
9.64845
  0
LINE
  8
0
 10
53.4514
 20
9.64845
 11
53.5172
 21
9.70659
  0
LINE
  8
0
 10
53.5172
 20
9.70659
 11
53.5938
 21
9.74814
  0
LINE
  8
0
 10
53.5938
 20
9.74814
 11
53.6813
 21
9.77306
  0
LINE
  8
0
 10
53.6813
 20
9.77306
 11
53.7796
 21
9.78136
  0
LINE
  8
0
 10
53.7796
 20
9.78136
 11
53.8721
 21
9.77382
  0
LINE
  8
0
 10
53.8721
 20
9.77382
 11
53.956
 21
9.75122
  0
LINE
  8
0
 10
53.956
 20
9.75122
 11
54.0312
 21
9.71355
  0
LINE
  8
0
 10
54.0312
 20
9.71355
 11
54.0979
 21
9.66081
  0
LINE
  8
0
 10
54.0979
 20
9.66081
 11
54.1525
 21
9.59351
  0
LINE
  8
0
 10
54.1525
 20
9.59351
 11
54.1916
 21
9.51218
  0
LINE
  8
0
 10
54.1916
 20
9.51218
 11
54.215
 21
9.41679
  0
LINE
  8
0
 10
54.215
 20
9.41679
 11
54.2227
 21
9.30736
  0
LINE
  8
0
 10
54.2227
 20
9.30736
 11
54.2227
 21
7.45805
  0
LINE
  8
0
 10
54.2227
 20
7.45805
 11
55.1988
 21
7.45805
  0
LINE
  8
0
 10
55.1988
 20
7.45805
 11
55.1988
 21
9.52382
  0
LINE
  8
0
 10
55.1988
 20
9.52382
 11
55.1812
 21
9.75327
  0
LINE
  8
0
 10
55.1812
 20
9.75327
 11
55.1284
 21
9.9567
  0
LINE
  8
0
 10
55.1284
 20
9.9567
 11
55.0403
 21
10.1341
  0
LINE
  8
0
 10
55.0403
 20
10.1341
 11
54.9169
 21
10.2855
  0
LINE
  8
0
 10
54.9169
 20
10.2855
 11
54.7661
 21
10.4065
  0
LINE
  8
0
 10
54.7661
 20
10.4065
 11
54.5954
 21
10.493
  0
LINE
  8
0
 10
54.5954
 20
10.493
 11
54.405
 21
10.5449
  0
LINE
  8
0
 10
54.405
 20
10.5449
 11
54.1947
 21
10.5622
  0
LINE
  8
0
 10
54.1947
 20
10.5622
 11
54.0386
 21
10.5518
  0
LINE
  8
0
 10
54.0386
 20
10.5518
 11
53.8873
 21
10.5208
  0
LINE
  8
0
 10
53.8873
 20
10.5208
 11
53.7406
 21
10.4689
  0
LINE
  8
0
 10
53.7406
 20
10.4689
 11
53.5987
 21
10.3964
  0
LINE
  8
0
 10
53.5987
 20
10.3964
 11
53.4677
 21
10.3003
  0
LINE
  8
0
 10
53.4677
 20
10.3003
 11
53.3537
 21
10.1776
  0
LINE
  8
0
 10
53.3537
 20
10.1776
 11
53.2566
 21
10.0284
  0
LINE
  8
0
 10
53.2566
 20
10.0284
 11
53.1766
 21
9.85258
  0
LINE
  8
0
 10
53.1766
 20
9.85258
 11
53.1139
 21
10.0272
  0
LINE
  8
0
 10
53.1139
 20
10.0272
 11
53.0409
 21
10.1759
  0
LINE
  8
0
 10
53.0409
 20
10.1759
 11
52.9576
 21
10.2985
  0
LINE
  8
0
 10
52.9576
 20
10.2985
 11
52.8639
 21
10.3951
  0
LINE
  8
0
 10
52.8639
 20
10.3951
 11
52.7588
 21
10.4682
  0
LINE
  8
0
 10
52.7588
 20
10.4682
 11
52.6413
 21
10.5204
  0
LINE
  8
0
 10
52.6413
 20
10.5204
 11
52.5113
 21
10.5517
  0
LINE
  8
0
 10
52.5113
 20
10.5517
 11
52.3688
 21
10.5622
  0
LINE
  8
0
 10
52.3688
 20
10.5622
 11
52.2296
 21
10.5527
  0
LINE
  8
0
 10
52.2296
 20
10.5527
 11
52.095
 21
10.5242
  0
LINE
  8
0
 10
52.095
 20
10.5242
 11
51.9652
 21
10.4767
  0
LINE
  8
0
 10
51.9652
 20
10.4767
 11
51.8401
 21
10.4101
  0
LINE
  8
0
 10
51.8401
 20
10.4101
 11
51.7247
 21
10.322
  0
LINE
  8
0
 10
51.7247
 20
10.322
 11
51.6238
 21
10.2098
  0
LINE
  8
0
 10
51.6238
 20
10.2098
 11
51.5375
 21
10.0734
  0
LINE
  8
0
 10
51.5375
 20
10.0734
 11
51.4657
 21
9.91286
  0
LINE
  8
0
 10
51.4657
 20
9.91286
 11
51.4208
 21
10.5211
  0
LINE
  8
0
 10
51.4208
 20
10.5211
 11
50.5205
 21
10.5211
  0
LINE
  8
0
 10
50.5205
 20
10.5211
 11
50.5205
 21
7.45805
  0
LINE
  8
0
 10
50.5205
 20
7.45805
 11
51.4994
 21
7.45805
  0
LINE
  8
0
 10
51.4994
 20
7.45805
 11
51.4994
 21
9.27722
  0
LINE
  8
0
 10
12.5014
 20
9.27722
 11
12.5094
 21
9.39093
  0
LINE
  8
0
 10
12.5094
 20
9.39093
 11
12.5333
 21
9.49092
  0
LINE
  8
0
 10
12.5333
 20
9.49092
 11
12.5732
 21
9.57722
  0
LINE
  8
0
 10
12.5732
 20
9.57722
 11
12.629
 21
9.64983
  0
LINE
  8
0
 10
12.629
 20
9.64983
 11
12.6973
 21
9.70737
  0
LINE
  8
0
 10
12.6973
 20
9.70737
 11
12.7745
 21
9.74847
  0
LINE
  8
0
 10
12.7745
 20
9.74847
 11
12.8606
 21
9.77315
  0
LINE
  8
0
 10
12.8606
 20
9.77315
 11
12.9557
 21
9.78136
  0
LINE
  8
0
 10
12.9557
 20
9.78136
 11
13.048
 21
9.77356
  0
LINE
  8
0
 10
13.048
 20
9.77356
 11
13.1314
 21
9.75018
  0
LINE
  8
0
 10
13.1314
 20
9.75018
 11
13.2058
 21
9.71123
  0
LINE
  8
0
 10
13.2058
 20
9.71123
 11
13.2713
 21
9.65669
  0
LINE
  8
0
 10
13.2713
 20
9.65669
 11
13.3247
 21
9.58896
  0
LINE
  8
0
 10
13.3247
 20
9.58896
 11
13.3628
 21
9.51045
  0
LINE
  8
0
 10
13.3628
 20
9.51045
 11
13.3857
 21
9.42114
  0
LINE
  8
0
 10
13.3857
 20
9.42114
 11
13.3933
 21
9.32106
  0
LINE
  8
0
 10
13.3933
 20
9.32106
 11
13.3933
 21
7.45805
  0
LINE
  8
0
 10
13.3933
 20
7.45805
 11
14.3329
 21
7.45805
  0
LINE
  8
0
 10
14.3329
 20
7.45805
 11
14.3329
 21
9.29642
  0
LINE
  8
0
 10
14.3329
 20
9.29642
 11
14.3404
 21
9.4006
  0
LINE
  8
0
 10
14.3404
 20
9.4006
 11
14.363
 21
9.494
  0
LINE
  8
0
 10
14.363
 20
9.494
 11
14.4007
 21
9.57661
  0
LINE
  8
0
 10
14.4007
 20
9.57661
 11
14.4535
 21
9.64845
  0
LINE
  8
0
 10
14.4535
 20
9.64845
 11
14.5192
 21
9.70659
  0
LINE
  8
0
 10
14.5192
 20
9.70659
 11
14.5958
 21
9.74814
  0
LINE
  8
0
 10
14.5958
 20
9.74814
 11
14.6833
 21
9.77306
  0
LINE
  8
0
 10
14.6833
 20
9.77306
 11
14.7816
 21
9.78136
  0
LINE
  8
0
 10
14.7816
 20
9.78136
 11
14.8741
 21
9.77382
  0
LINE
  8
0
 10
14.8741
 20
9.77382
 11
14.958
 21
9.75122
  0
LINE
  8
0
 10
14.958
 20
9.75122
 11
15.0333
 21
9.71355
  0
LINE
  8
0
 10
15.0333
 20
9.71355
 11
15.1
 21
9.66081
  0
LINE
  8
0
 10
15.1
 20
9.66081
 11
15.1546
 21
9.59351
  0
LINE
  8
0
 10
15.1546
 20
9.59351
 11
15.1936
 21
9.51218
  0
LINE
  8
0
 10
15.1936
 20
9.51218
 11
15.217
 21
9.41679
  0
LINE
  8
0
 10
15.217
 20
9.41679
 11
15.2248
 21
9.30736
  0
LINE
  8
0
 10
15.2248
 20
9.30736
 11
15.2248
 21
7.45805
  0
LINE
  8
0
 10
15.2248
 20
7.45805
 11
16.2009
 21
7.45805
  0
LINE
  8
0
 10
16.2009
 20
7.45805
 11
16.2009
 21
9.52382
  0
LINE
  8
0
 10
16.2009
 20
9.52382
 11
16.1832
 21
9.75327
  0
LINE
  8
0
 10
16.1832
 20
9.75327
 11
16.1304
 21
9.9567
  0
LINE
  8
0
 10
16.1304
 20
9.9567
 11
16.0423
 21
10.1341
  0
LINE
  8
0
 10
16.0423
 20
10.1341
 11
15.919
 21
10.2855
  0
LINE
  8
0
 10
15.919
 20
10.2855
 11
15.7681
 21
10.4065
  0
LINE
  8
0
 10
15.7681
 20
10.4065
 11
15.5975
 21
10.493
  0
LINE
  8
0
 10
15.5975
 20
10.493
 11
15.407
 21
10.5449
  0
LINE
  8
0
 10
15.407
 20
10.5449
 11
15.1967
 21
10.5622
  0
LINE
  8
0
 10
15.1967
 20
10.5622
 11
15.0406
 21
10.5518
  0
LINE
  8
0
 10
15.0406
 20
10.5518
 11
14.8893
 21
10.5208
  0
LINE
  8
0
 10
14.8893
 20
10.5208
 11
14.7426
 21
10.4689
  0
LINE
  8
0
 10
14.7426
 20
10.4689
 11
14.6007
 21
10.3964
  0
LINE
  8
0
 10
14.6007
 20
10.3964
 11
14.4697
 21
10.3003
  0
LINE
  8
0
 10
14.4697
 20
10.3003
 11
14.3557
 21
10.1776
  0
LINE
  8
0
 10
14.3557
 20
10.1776
 11
14.2587
 21
10.0284
  0
LINE
  8
0
 10
14.2587
 20
10.0284
 11
14.1786
 21
9.85258
  0
LINE
  8
0
 10
14.1786
 20
9.85258
 11
14.116
 21
10.0272
  0
LINE
  8
0
 10
14.116
 20
10.0272
 11
14.043
 21
10.1759
  0
LINE
  8
0
 10
14.043
 20
10.1759
 11
13.9596
 21
10.2985
  0
LINE
  8
0
 10
13.9596
 20
10.2985
 11
13.8659
 21
10.3951
  0
LINE
  8
0
 10
13.8659
 20
10.3951
 11
13.7608
 21
10.4682
  0
LINE
  8
0
 10
13.7608
 20
10.4682
 11
13.6433
 21
10.5204
  0
LINE
  8
0
 10
13.6433
 20
10.5204
 11
13.5133
 21
10.5517
  0
LINE
  8
0
 10
13.5133
 20
10.5517
 11
13.3708
 21
10.5622
  0
LINE
  8
0
 10
13.3708
 20
10.5622
 11
13.2316
 21
10.5527
  0
LINE
  8
0
 10
13.2316
 20
10.5527
 11
13.097
 21
10.5242
  0
LINE
  8
0
 10
13.097
 20
10.5242
 11
12.9673
 21
10.4767
  0
LINE
  8
0
 10
12.9673
 20
10.4767
 11
12.8422
 21
10.4101
  0
LINE
  8
0
 10
12.8422
 20
10.4101
 11
12.7267
 21
10.322
  0
LINE
  8
0
 10
12.7267
 20
10.322
 11
12.6259
 21
10.2098
  0
LINE
  8
0
 10
12.6259
 20
10.2098
 11
12.5395
 21
10.0734
  0
LINE
  8
0
 10
12.5395
 20
10.0734
 11
12.4677
 21
9.91286
  0
LINE
  8
0
 10
12.4677
 20
9.91286
 11
12.4229
 21
10.5211
  0
LINE
  8
0
 10
12.4229
 20
10.5211
 11
11.5225
 21
10.5211
  0
LINE
  8
0
 10
11.5225
 20
10.5211
 11
11.5225
 21
7.45805
  0
LINE
  8
0
 10
11.5225
 20
7.45805
 11
12.5014
 21
7.45805
  0
LINE
  8
0
 10
12.5014
 20
7.45805
 11
12.5014
 21
9.27722
  0
LINE
  8
0
 10
40.0956
 20
7.41527
 11
40.3432
 21
7.45944
  0
LINE
  8
0
 10
40.3432
 20
7.45944
 11
40.5661
 21
7.53307
  0
LINE
  8
0
 10
40.5661
 20
7.53307
 11
40.7643
 21
7.63614
  0
LINE
  8
0
 10
40.7643
 20
7.63614
 11
40.9342
 21
7.76405
  0
LINE
  8
0
 10
40.9342
 20
7.76405
 11
41.0725
 21
7.91217
  0
LINE
  8
0
 10
41.0725
 20
7.91217
 11
41.179
 21
8.08049
  0
LINE
  8
0
 10
41.179
 20
8.08049
 11
41.2537
 21
8.26903
  0
LINE
  8
0
 10
41.2537
 20
8.26903
 11
40.3814
 21
8.40874
  0
LINE
  8
0
 10
40.3814
 20
8.40874
 11
40.3467
 21
8.33656
  0
LINE
  8
0
 10
40.3467
 20
8.33656
 11
40.3015
 21
8.27347
  0
LINE
  8
0
 10
40.3015
 20
8.27347
 11
40.2458
 21
8.21945
  0
LINE
  8
0
 10
40.2458
 20
8.21945
 11
40.1795
 21
8.1745
  0
LINE
  8
0
 10
40.1795
 20
8.1745
 11
40.1047
 21
8.13914
  0
LINE
  8
0
 10
40.1047
 20
8.13914
 11
40.0231
 21
8.11389
  0
LINE
  8
0
 10
40.0231
 20
8.11389
 11
39.935
 21
8.09875
  0
LINE
  8
0
 10
39.935
 20
8.09875
 11
39.8401
 21
8.0937
  0
LINE
  8
0
 10
39.8401
 20
8.0937
 11
39.7079
 21
8.10405
  0
LINE
  8
0
 10
39.7079
 20
8.10405
 11
39.5888
 21
8.13513
  0
LINE
  8
0
 10
39.5888
 20
8.13513
 11
39.4828
 21
8.1869
  0
LINE
  8
0
 10
39.4828
 20
8.1869
 11
39.39
 21
8.25941
  0
LINE
  8
0
 10
39.39
 20
8.25941
 11
39.3136
 21
8.35265
  0
LINE
  8
0
 10
39.3136
 20
8.35265
 11
39.2571
 21
8.46661
  0
LINE
  8
0
 10
39.2571
 20
8.46661
 11
39.2204
 21
8.60129
  0
LINE
  8
0
 10
39.2204
 20
8.60129
 11
39.2035
 21
8.75668
  0
LINE
  8
0
 10
39.2035
 20
8.75668
 11
41.2986
 21
8.75668
  0
LINE
  8
0
 10
41.2986
 20
8.75668
 11
41.2986
 21
8.99779
  0
LINE
  8
0
 10
41.2986
 20
8.99779
 11
41.2864
 21
9.24016
  0
LINE
  8
0
 10
41.2864
 20
9.24016
 11
41.2499
 21
9.4632
  0
LINE
  8
0
 10
41.2499
 20
9.4632
 11
41.1889
 21
9.66687
  0
LINE
  8
0
 10
41.1889
 20
9.66687
 11
41.1037
 21
9.85121
  0
LINE
  8
0
 10
41.1037
 20
9.85121
 11
40.9971
 21
10.0153
  0
LINE
  8
0
 10
40.9971
 20
10.0153
 11
40.8723
 21
10.1581
  0
LINE
  8
0
 10
40.8723
 20
10.1581
 11
40.7292
 21
10.2796
  0
LINE
  8
0
 10
40.7292
 20
10.2796
 11
40.568
 21
10.38
  0
LINE
  8
0
 10
40.568
 20
10.38
 11
40.3914
 21
10.4585
  0
LINE
  8
0
 10
40.3914
 20
10.4585
 11
40.2023
 21
10.5146
  0
LINE
  8
0
 10
40.2023
 20
10.5146
 11
40.0008
 21
10.5482
  0
LINE
  8
0
 10
40.0008
 20
10.5482
 11
39.7868
 21
10.5594
  0
LINE
  8
0
 10
39.7868
 20
10.5594
 11
39.559
 21
10.547
  0
LINE
  8
0
 10
39.559
 20
10.547
 11
39.3465
 21
10.5098
  0
LINE
  8
0
 10
39.3465
 20
10.5098
 11
39.1495
 21
10.4477
  0
LINE
  8
0
 10
39.1495
 20
10.4477
 11
38.9678
 21
10.3608
  0
LINE
  8
0
 10
38.9678
 20
10.3608
 11
38.8039
 21
10.2516
  0
LINE
  8
0
 10
38.8039
 20
10.2516
 11
38.6597
 21
10.1228
  0
LINE
  8
0
 10
38.6597
 20
10.1228
 11
38.5353
 21
9.97423
  0
LINE
  8
0
 10
38.5353
 20
9.97423
 11
38.4307
 21
9.806
  0
LINE
  8
0
 10
38.4307
 20
9.806
 11
38.3479
 21
9.62073
  0
LINE
  8
0
 10
38.3479
 20
9.62073
 11
38.2888
 21
9.42108
  0
LINE
  8
0
 10
38.2888
 20
9.42108
 11
38.2533
 21
9.20703
  0
LINE
  8
0
 10
38.2533
 20
9.20703
 11
38.2414
 21
8.97859
  0
LINE
  8
0
 10
38.2414
 20
8.97859
 11
38.2678
 21
8.62988
  0
LINE
  8
0
 10
38.2678
 20
8.62988
 11
38.347
 21
8.32074
  0
LINE
  8
0
 10
38.347
 20
8.32074
 11
38.4789
 21
8.05113
  0
LINE
  8
0
 10
38.4789
 20
8.05113
 11
38.6635
 21
7.82109
  0
LINE
  8
0
 10
38.6635
 20
7.82109
 11
38.8943
 21
7.6371
  0
LINE
  8
0
 10
38.8943
 20
7.6371
 11
39.1646
 21
7.50568
  0
LINE
  8
0
 10
39.1646
 20
7.50568
 11
39.4742
 21
7.42682
  0
LINE
  8
0
 10
39.4742
 20
7.42682
 11
39.8233
 21
7.40053
  0
LINE
  8
0
 10
39.8233
 20
7.40053
 11
40.0956
 21
7.41527
  0
LINE
  8
0
 10
39.2091
 20
9.31285
 11
39.2307
 21
9.43365
  0
LINE
  8
0
 10
39.2307
 20
9.43365
 11
39.2676
 21
9.54128
  0
LINE
  8
0
 10
39.2676
 20
9.54128
 11
39.3198
 21
9.63571
  0
LINE
  8
0
 10
39.3198
 20
9.63571
 11
39.3872
 21
9.71696
  0
LINE
  8
0
 10
39.3872
 20
9.71696
 11
39.4689
 21
9.78229
  0
LINE
  8
0
 10
39.4689
 20
9.78229
 11
39.5642
 21
9.82895
  0
LINE
  8
0
 10
39.5642
 20
9.82895
 11
39.673
 21
9.85695
  0
LINE
  8
0
 10
39.673
 20
9.85695
 11
39.7952
 21
9.86627
  0
LINE
  8
0
 10
39.7952
 20
9.86627
 11
39.916
 21
9.85712
  0
LINE
  8
0
 10
39.916
 20
9.85712
 11
40.0231
 21
9.82964
  0
LINE
  8
0
 10
40.0231
 20
9.82964
 11
40.1166
 21
9.78383
  0
LINE
  8
0
 10
40.1166
 20
9.78383
 11
40.1963
 21
9.71971
  0
LINE
  8
0
 10
40.1963
 20
9.71971
 11
40.2619
 21
9.63931
  0
LINE
  8
0
 10
40.2619
 20
9.63931
 11
40.3127
 21
9.54471
  0
LINE
  8
0
 10
40.3127
 20
9.54471
 11
40.3489
 21
9.4359
  0
LINE
  8
0
 10
40.3489
 20
9.4359
 11
40.3702
 21
9.31285
  0
LINE
  8
0
 10
40.3702
 20
9.31285
 11
39.2091
 21
9.31285
  0
LINE
  8
0
 10
18.4575
 20
7.41527
 11
18.7051
 21
7.45944
  0
LINE
  8
0
 10
18.7051
 20
7.45944
 11
18.928
 21
7.53307
  0
LINE
  8
0
 10
18.928
 20
7.53307
 11
19.1261
 21
7.63614
  0
LINE
  8
0
 10
19.1261
 20
7.63614
 11
19.2961
 21
7.76405
  0
LINE
  8
0
 10
19.2961
 20
7.76405
 11
19.4343
 21
7.91217
  0
LINE
  8
0
 10
19.4343
 20
7.91217
 11
19.5408
 21
8.08049
  0
LINE
  8
0
 10
19.5408
 20
8.08049
 11
19.6156
 21
8.26903
  0
LINE
  8
0
 10
19.6156
 20
8.26903
 11
18.7433
 21
8.40874
  0
LINE
  8
0
 10
18.7433
 20
8.40874
 11
18.7086
 21
8.33656
  0
LINE
  8
0
 10
18.7086
 20
8.33656
 11
18.6634
 21
8.27347
  0
LINE
  8
0
 10
18.6634
 20
8.27347
 11
18.6076
 21
8.21945
  0
LINE
  8
0
 10
18.6076
 20
8.21945
 11
18.5414
 21
8.1745
  0
LINE
  8
0
 10
18.5414
 20
8.1745
 11
18.4665
 21
8.13914
  0
LINE
  8
0
 10
18.4665
 20
8.13914
 11
18.385
 21
8.11389
  0
LINE
  8
0
 10
18.385
 20
8.11389
 11
18.2968
 21
8.09875
  0
LINE
  8
0
 10
18.2968
 20
8.09875
 11
18.202
 21
8.0937
  0
LINE
  8
0
 10
18.202
 20
8.0937
 11
18.0697
 21
8.10405
  0
LINE
  8
0
 10
18.0697
 20
8.10405
 11
17.9506
 21
8.13513
  0
LINE
  8
0
 10
17.9506
 20
8.13513
 11
17.8447
 21
8.1869
  0
LINE
  8
0
 10
17.8447
 20
8.1869
 11
17.7518
 21
8.25941
  0
LINE
  8
0
 10
17.7518
 20
8.25941
 11
17.6755
 21
8.35265
  0
LINE
  8
0
 10
17.6755
 20
8.35265
 11
17.619
 21
8.46661
  0
LINE
  8
0
 10
17.619
 20
8.46661
 11
17.5822
 21
8.60129
  0
LINE
  8
0
 10
17.5822
 20
8.60129
 11
17.5653
 21
8.75668
  0
LINE
  8
0
 10
17.5653
 20
8.75668
 11
19.6604
 21
8.75668
  0
LINE
  8
0
 10
19.6604
 20
8.75668
 11
19.6604
 21
8.99779
  0
LINE
  8
0
 10
19.6604
 20
8.99779
 11
19.6483
 21
9.24016
  0
LINE
  8
0
 10
19.6483
 20
9.24016
 11
19.6117
 21
9.4632
  0
LINE
  8
0
 10
19.6117
 20
9.4632
 11
19.5508
 21
9.66687
  0
LINE
  8
0
 10
19.5508
 20
9.66687
 11
19.4655
 21
9.85121
  0
LINE
  8
0
 10
19.4655
 20
9.85121
 11
19.3589
 21
10.0153
  0
LINE
  8
0
 10
19.3589
 20
10.0153
 11
19.2341
 21
10.1581
  0
LINE
  8
0
 10
19.2341
 20
10.1581
 11
19.0911
 21
10.2796
  0
LINE
  8
0
 10
19.0911
 20
10.2796
 11
18.9298
 21
10.38
  0
LINE
  8
0
 10
18.9298
 20
10.38
 11
18.7532
 21
10.4585
  0
LINE
  8
0
 10
18.7532
 20
10.4585
 11
18.5641
 21
10.5146
  0
LINE
  8
0
 10
18.5641
 20
10.5146
 11
18.3626
 21
10.5482
  0
LINE
  8
0
 10
18.3626
 20
10.5482
 11
18.1487
 21
10.5594
  0
LINE
  8
0
 10
18.1487
 20
10.5594
 11
17.9208
 21
10.547
  0
LINE
  8
0
 10
17.9208
 20
10.547
 11
17.7084
 21
10.5098
  0
LINE
  8
0
 10
17.7084
 20
10.5098
 11
17.5113
 21
10.4477
  0
LINE
  8
0
 10
17.5113
 20
10.4477
 11
17.3297
 21
10.3608
  0
LINE
  8
0
 10
17.3297
 20
10.3608
 11
17.1657
 21
10.2516
  0
LINE
  8
0
 10
17.1657
 20
10.2516
 11
17.0215
 21
10.1228
  0
LINE
  8
0
 10
17.0215
 20
10.1228
 11
16.8972
 21
9.97423
  0
LINE
  8
0
 10
16.8972
 20
9.97423
 11
16.7926
 21
9.806
  0
LINE
  8
0
 10
16.7926
 20
9.806
 11
16.7098
 21
9.62073
  0
LINE
  8
0
 10
16.7098
 20
9.62073
 11
16.6506
 21
9.42108
  0
LINE
  8
0
 10
16.6506
 20
9.42108
 11
16.6151
 21
9.20703
  0
LINE
  8
0
 10
16.6151
 20
9.20703
 11
16.6033
 21
8.97859
  0
LINE
  8
0
 10
16.6033
 20
8.97859
 11
16.6297
 21
8.62988
  0
LINE
  8
0
 10
16.6297
 20
8.62988
 11
16.7088
 21
8.32074
  0
LINE
  8
0
 10
16.7088
 20
8.32074
 11
16.8407
 21
8.05113
  0
LINE
  8
0
 10
16.8407
 20
8.05113
 11
17.0254
 21
7.82109
  0
LINE
  8
0
 10
17.0254
 20
7.82109
 11
17.2562
 21
7.6371
  0
LINE
  8
0
 10
17.2562
 20
7.6371
 11
17.5264
 21
7.50568
  0
LINE
  8
0
 10
17.5264
 20
7.50568
 11
17.8361
 21
7.42682
  0
LINE
  8
0
 10
17.8361
 20
7.42682
 11
18.1852
 21
7.40053
  0
LINE
  8
0
 10
18.1852
 20
7.40053
 11
18.4575
 21
7.41527
  0
LINE
  8
0
 10
17.5709
 20
9.31285
 11
17.5926
 21
9.43365
  0
LINE
  8
0
 10
17.5926
 20
9.43365
 11
17.6295
 21
9.54128
  0
LINE
  8
0
 10
17.6295
 20
9.54128
 11
17.6816
 21
9.63571
  0
LINE
  8
0
 10
17.6816
 20
9.63571
 11
17.749
 21
9.71696
  0
LINE
  8
0
 10
17.749
 20
9.71696
 11
17.8308
 21
9.78229
  0
LINE
  8
0
 10
17.8308
 20
9.78229
 11
17.9261
 21
9.82895
  0
LINE
  8
0
 10
17.9261
 20
9.82895
 11
18.0348
 21
9.85695
  0
LINE
  8
0
 10
18.0348
 20
9.85695
 11
18.1571
 21
9.86627
  0
LINE
  8
0
 10
18.1571
 20
9.86627
 11
18.2779
 21
9.85712
  0
LINE
  8
0
 10
18.2779
 20
9.85712
 11
18.385
 21
9.82964
  0
LINE
  8
0
 10
18.385
 20
9.82964
 11
18.4784
 21
9.78383
  0
LINE
  8
0
 10
18.4784
 20
9.78383
 11
18.5582
 21
9.71971
  0
LINE
  8
0
 10
18.5582
 20
9.71971
 11
18.6237
 21
9.63931
  0
LINE
  8
0
 10
18.6237
 20
9.63931
 11
18.6746
 21
9.54471
  0
LINE
  8
0
 10
18.6746
 20
9.54471
 11
18.7107
 21
9.4359
  0
LINE
  8
0
 10
18.7107
 20
9.4359
 11
18.7321
 21
9.31285
  0
LINE
  8
0
 10
18.7321
 20
9.31285
 11
17.5709
 21
9.31285
  0
LINE
  8
0
 10
32.662
 20
7.43359
 11
32.9134
 21
7.52451
  0
LINE
  8
0
 10
32.9134
 20
7.52451
 11
33.1164
 21
7.67604
  0
LINE
  8
0
 10
33.1164
 20
7.67604
 11
33.271
 21
7.88818
  0
LINE
  8
0
 10
33.271
 20
7.88818
 11
33.2963
 21
7.88818
  0
LINE
  8
0
 10
33.2963
 20
7.88818
 11
33.2963
 21
7.45805
  0
LINE
  8
0
 10
33.2963
 20
7.45805
 11
34.2162
 21
7.45805
  0
LINE
  8
0
 10
34.2162
 20
7.45805
 11
34.2162
 21
9.53751
  0
LINE
  8
0
 10
34.2162
 20
9.53751
 11
34.2046
 21
9.69565
  0
LINE
  8
0
 10
34.2046
 20
9.69565
 11
34.1696
 21
9.84126
  0
LINE
  8
0
 10
34.1696
 20
9.84126
 11
34.1113
 21
9.9744
  0
LINE
  8
0
 10
34.1113
 20
9.9744
 11
34.0297
 21
10.095
  0
LINE
  8
0
 10
34.0297
 20
10.095
 11
33.9284
 21
10.2025
  0
LINE
  8
0
 10
33.9284
 20
10.2025
 11
33.8109
 21
10.2961
  0
LINE
  8
0
 10
33.8109
 20
10.2961
 11
33.6774
 21
10.3758
  0
LINE
  8
0
 10
33.6774
 20
10.3758
 11
33.5276
 21
10.4416
  0
LINE
  8
0
 10
33.5276
 20
10.4416
 11
33.3652
 21
10.4931
  0
LINE
  8
0
 10
33.3652
 20
10.4931
 11
33.1935
 21
10.53
  0
LINE
  8
0
 10
33.1935
 20
10.53
 11
33.0126
 21
10.5521
  0
LINE
  8
0
 10
33.0126
 20
10.5521
 11
32.8223
 21
10.5594
  0
LINE
  8
0
 10
32.8223
 20
10.5594
 11
32.5421
 21
10.5441
  0
LINE
  8
0
 10
32.5421
 20
10.5441
 11
32.2904
 21
10.4981
  0
LINE
  8
0
 10
32.2904
 20
10.4981
 11
32.0674
 21
10.4215
  0
LINE
  8
0
 10
32.0674
 20
10.4215
 11
31.8728
 21
10.3142
  0
LINE
  8
0
 10
31.8728
 20
10.3142
 11
31.7094
 21
10.1825
  0
LINE
  8
0
 10
31.7094
 20
10.1825
 11
31.5794
 21
10.0324
  0
LINE
  8
0
 10
31.5794
 20
10.0324
 11
31.4829
 21
9.86398
  0
LINE
  8
0
 10
31.4829
 20
9.86398
 11
31.4199
 21
9.67725
  0
LINE
  8
0
 10
31.4199
 20
9.67725
 11
32.3062
 21
9.5649
  0
LINE
  8
0
 10
32.3062
 20
9.5649
 11
32.3316
 21
9.63373
  0
LINE
  8
0
 10
32.3316
 20
9.63373
 11
32.3686
 21
9.69502
  0
LINE
  8
0
 10
32.3686
 20
9.69502
 11
32.4172
 21
9.74878
  0
LINE
  8
0
 10
32.4172
 20
9.74878
 11
32.4773
 21
9.79501
  0
LINE
  8
0
 10
32.4773
 20
9.79501
 11
32.5478
 21
9.83218
  0
LINE
  8
0
 10
32.5478
 20
9.83218
 11
32.6273
 21
9.85873
  0
LINE
  8
0
 10
32.6273
 20
9.85873
 11
32.716
 21
9.87466
  0
LINE
  8
0
 10
32.716
 20
9.87466
 11
32.8138
 21
9.87997
  0
LINE
  8
0
 10
32.8138
 20
9.87997
 11
32.9081
 21
9.87459
  0
LINE
  8
0
 10
32.9081
 20
9.87459
 11
32.9916
 21
9.8584
  0
LINE
  8
0
 10
32.9916
 20
9.8584
 11
33.0644
 21
9.83144
  0
LINE
  8
0
 10
33.0644
 20
9.83144
 11
33.1266
 21
9.79369
  0
LINE
  8
0
 10
33.1266
 20
9.79369
 11
33.1763
 21
9.74599
  0
LINE
  8
0
 10
33.1763
 20
9.74599
 11
33.2118
 21
9.68922
  0
LINE
  8
0
 10
33.2118
 20
9.68922
 11
33.2331
 21
9.62338
  0
LINE
  8
0
 10
33.2331
 20
9.62338
 11
33.2402
 21
9.54846
  0
LINE
  8
0
 10
33.2402
 20
9.54846
 11
33.2402
 21
9.53751
  0
LINE
  8
0
 10
33.2402
 20
9.53751
 11
33.2294
 21
9.4722
  0
LINE
  8
0
 10
33.2294
 20
9.4722
 11
33.197
 21
9.41869
  0
LINE
  8
0
 10
33.197
 20
9.41869
 11
33.1431
 21
9.377
  0
LINE
  8
0
 10
33.1431
 20
9.377
 11
33.0677
 21
9.34711
  0
LINE
  8
0
 10
33.0677
 20
9.34711
 11
32.9673
 21
9.32408
  0
LINE
  8
0
 10
32.9673
 20
9.32408
 11
32.8387
 21
9.30293
  0
LINE
  8
0
 10
32.8387
 20
9.30293
 11
32.6819
 21
9.28366
  0
LINE
  8
0
 10
32.6819
 20
9.28366
 11
32.4969
 21
9.26628
  0
LINE
  8
0
 10
32.4969
 20
9.26628
 11
32.3417
 21
9.24831
  0
LINE
  8
0
 10
32.3417
 20
9.24831
 11
32.193
 21
9.22176
  0
LINE
  8
0
 10
32.193
 20
9.22176
 11
32.0507
 21
9.18665
  0
LINE
  8
0
 10
32.0507
 20
9.18665
 11
31.9149
 21
9.14297
  0
LINE
  8
0
 10
31.9149
 20
9.14297
 11
31.789
 21
9.08853
  0
LINE
  8
0
 10
31.789
 20
9.08853
 11
31.6762
 21
9.02107
  0
LINE
  8
0
 10
31.6762
 20
9.02107
 11
31.5765
 21
8.9406
  0
LINE
  8
0
 10
31.5765
 20
8.9406
 11
31.49
 21
8.84709
  0
LINE
  8
0
 10
31.49
 20
8.84709
 11
31.4201
 21
8.73837
  0
LINE
  8
0
 10
31.4201
 20
8.73837
 11
31.3701
 21
8.61218
  0
LINE
  8
0
 10
31.3701
 20
8.61218
 11
31.3401
 21
8.46851
  0
LINE
  8
0
 10
31.3401
 20
8.46851
 11
31.3302
 21
8.30737
  0
LINE
  8
0
 10
31.3302
 20
8.30737
 11
31.3483
 21
8.09436
  0
LINE
  8
0
 10
31.3483
 20
8.09436
 11
31.4027
 21
7.91013
  0
LINE
  8
0
 10
31.4027
 20
7.91013
 11
31.4934
 21
7.75465
  0
LINE
  8
0
 10
31.4934
 20
7.75465
 11
31.6204
 21
7.62794
  0
LINE
  8
0
 10
31.6204
 20
7.62794
 11
31.7757
 21
7.52965
  0
LINE
  8
0
 10
31.7757
 20
7.52965
 11
31.951
 21
7.45944
  0
LINE
  8
0
 10
31.951
 20
7.45944
 11
32.1466
 21
7.41733
  0
LINE
  8
0
 10
32.1466
 20
7.41733
 11
32.3623
 21
7.40329
  0
LINE
  8
0
 10
32.3623
 20
7.40329
 11
32.662
 21
7.43359
  0
LINE
  8
0
 10
32.5752
 20
8.04118
 11
32.4987
 21
8.05634
  0
LINE
  8
0
 10
32.4987
 20
8.05634
 11
32.4301
 21
8.0816
  0
LINE
  8
0
 10
32.4301
 20
8.0816
 11
32.3693
 21
8.11697
  0
LINE
  8
0
 10
32.3693
 20
8.11697
 11
32.3196
 21
8.16193
  0
LINE
  8
0
 10
32.3196
 20
8.16193
 11
32.2841
 21
8.21594
  0
LINE
  8
0
 10
32.2841
 20
8.21594
 11
32.2628
 21
8.27904
  0
LINE
  8
0
 10
32.2628
 20
8.27904
 11
32.2557
 21
8.3512
  0
LINE
  8
0
 10
32.2557
 20
8.3512
 11
32.284
 21
8.48596
  0
LINE
  8
0
 10
32.284
 20
8.48596
 11
32.3686
 21
8.59161
  0
LINE
  8
0
 10
32.3686
 20
8.59161
 11
32.5097
 21
8.66815
  0
LINE
  8
0
 10
32.5097
 20
8.66815
 11
32.7073
 21
8.71559
  0
LINE
  8
0
 10
32.7073
 20
8.71559
 11
32.7774
 21
8.72707
  0
LINE
  8
0
 10
32.7774
 20
8.72707
 11
32.8503
 21
8.73955
  0
LINE
  8
0
 10
32.8503
 20
8.73955
 11
32.926
 21
8.75308
  0
LINE
  8
0
 10
32.926
 20
8.75308
 11
33.0045
 21
8.76764
  0
LINE
  8
0
 10
33.0045
 20
8.76764
 11
33.0798
 21
8.78355
  0
LINE
  8
0
 10
33.0798
 20
8.78355
 11
33.1455
 21
8.80121
  0
LINE
  8
0
 10
33.1455
 20
8.80121
 11
33.2018
 21
8.82057
  0
LINE
  8
0
 10
33.2018
 20
8.82057
 11
33.2486
 21
8.84164
  0
LINE
  8
0
 10
33.2486
 20
8.84164
 11
33.2486
 21
8.54848
  0
LINE
  8
0
 10
33.2486
 20
8.54848
 11
33.2379
 21
8.44006
  0
LINE
  8
0
 10
33.2379
 20
8.44006
 11
33.2058
 21
8.34229
  0
LINE
  8
0
 10
33.2058
 20
8.34229
 11
33.1524
 21
8.25513
  0
LINE
  8
0
 10
33.1524
 20
8.25513
 11
33.0775
 21
8.17857
  0
LINE
  8
0
 10
33.0775
 20
8.17857
 11
32.9872
 21
8.11626
  0
LINE
  8
0
 10
32.9872
 20
8.11626
 11
32.8875
 21
8.07175
  0
LINE
  8
0
 10
32.8875
 20
8.07175
 11
32.7783
 21
8.04503
  0
LINE
  8
0
 10
32.7783
 20
8.04503
 11
32.6596
 21
8.03613
  0
LINE
  8
0
 10
32.6596
 20
8.03613
 11
32.5752
 21
8.04118
  0
LINE
  8
0
 10
48.7399
 20
7.41295
 11
48.9592
 21
7.45018
  0
LINE
  8
0
 10
48.9592
 20
7.45018
 11
49.1613
 21
7.51225
  0
LINE
  8
0
 10
49.1613
 20
7.51225
 11
49.3459
 21
7.59914
  0
LINE
  8
0
 10
49.3459
 20
7.59914
 11
49.5118
 21
7.70822
  0
LINE
  8
0
 10
49.5118
 20
7.70822
 11
49.6573
 21
7.83681
  0
LINE
  8
0
 10
49.6573
 20
7.83681
 11
49.7824
 21
7.98492
  0
LINE
  8
0
 10
49.7824
 20
7.98492
 11
49.8872
 21
8.15256
  0
LINE
  8
0
 10
49.8872
 20
8.15256
 11
49.9701
 21
8.33725
  0
LINE
  8
0
 10
49.9701
 20
8.33725
 11
50.0292
 21
8.53648
  0
LINE
  8
0
 10
50.0292
 20
8.53648
 11
50.0647
 21
8.75026
  0
LINE
  8
0
 10
50.0647
 20
8.75026
 11
50.0766
 21
8.97859
  0
LINE
  8
0
 10
50.0766
 20
8.97859
 11
50.0647
 21
9.20703
  0
LINE
  8
0
 10
50.0647
 20
9.20703
 11
50.0292
 21
9.42108
  0
LINE
  8
0
 10
50.0292
 20
9.42108
 11
49.9701
 21
9.62073
  0
LINE
  8
0
 10
49.9701
 20
9.62073
 11
49.8872
 21
9.806
  0
LINE
  8
0
 10
49.8872
 20
9.806
 11
49.7824
 21
9.97423
  0
LINE
  8
0
 10
49.7824
 20
9.97423
 11
49.6573
 21
10.1228
  0
LINE
  8
0
 10
49.6573
 20
10.1228
 11
49.5118
 21
10.2516
  0
LINE
  8
0
 10
49.5118
 20
10.2516
 11
49.3459
 21
10.3608
  0
LINE
  8
0
 10
49.3459
 20
10.3608
 11
49.1613
 21
10.4477
  0
LINE
  8
0
 10
49.1613
 20
10.4477
 11
48.9592
 21
10.5098
  0
LINE
  8
0
 10
48.9592
 20
10.5098
 11
48.7399
 21
10.547
  0
LINE
  8
0
 10
48.7399
 20
10.547
 11
48.5031
 21
10.5594
  0
LINE
  8
0
 10
48.5031
 20
10.5594
 11
48.2663
 21
10.547
  0
LINE
  8
0
 10
48.2663
 20
10.547
 11
48.0466
 21
10.5098
  0
LINE
  8
0
 10
48.0466
 20
10.5098
 11
47.8442
 21
10.4477
  0
LINE
  8
0
 10
47.8442
 20
10.4477
 11
47.6589
 21
10.3608
  0
LINE
  8
0
 10
47.6589
 20
10.3608
 11
47.4924
 21
10.2516
  0
LINE
  8
0
 10
47.4924
 20
10.2516
 11
47.3465
 21
10.1228
  0
LINE
  8
0
 10
47.3465
 20
10.1228
 11
47.2211
 21
9.97423
  0
LINE
  8
0
 10
47.2211
 20
9.97423
 11
47.1161
 21
9.806
  0
LINE
  8
0
 10
47.1161
 20
9.806
 11
47.0333
 21
9.62073
  0
LINE
  8
0
 10
47.0333
 20
9.62073
 11
46.9742
 21
9.42108
  0
LINE
  8
0
 10
46.9742
 20
9.42108
 11
46.9387
 21
9.20703
  0
LINE
  8
0
 10
46.9387
 20
9.20703
 11
46.9268
 21
8.97859
  0
LINE
  8
0
 10
46.9268
 20
8.97859
 11
46.9387
 21
8.75026
  0
LINE
  8
0
 10
46.9387
 20
8.75026
 11
46.9742
 21
8.53648
  0
LINE
  8
0
 10
46.9742
 20
8.53648
 11
47.0333
 21
8.33725
  0
LINE
  8
0
 10
47.0333
 20
8.33725
 11
47.1161
 21
8.15256
  0
LINE
  8
0
 10
47.1161
 20
8.15256
 11
47.2211
 21
7.98492
  0
LINE
  8
0
 10
47.2211
 20
7.98492
 11
47.3465
 21
7.83681
  0
LINE
  8
0
 10
47.3465
 20
7.83681
 11
47.4924
 21
7.70822
  0
LINE
  8
0
 10
47.4924
 20
7.70822
 11
47.6589
 21
7.59914
  0
LINE
  8
0
 10
47.6589
 20
7.59914
 11
47.8442
 21
7.51225
  0
LINE
  8
0
 10
47.8442
 20
7.51225
 11
48.0466
 21
7.45018
  0
LINE
  8
0
 10
48.0466
 20
7.45018
 11
48.2663
 21
7.41295
  0
LINE
  8
0
 10
48.2663
 20
7.41295
 11
48.5031
 21
7.40053
  0
LINE
  8
0
 10
48.5031
 20
7.40053
 11
48.7399
 21
7.41295
  0
LINE
  8
0
 10
48.3711
 20
8.14668
 11
48.2556
 21
8.1906
  0
LINE
  8
0
 10
48.2556
 20
8.1906
 11
48.1565
 21
8.26379
  0
LINE
  8
0
 10
48.1565
 20
8.26379
 11
48.074
 21
8.36627
  0
LINE
  8
0
 10
48.074
 20
8.36627
 11
48.009
 21
8.49274
  0
LINE
  8
0
 10
48.009
 20
8.49274
 11
47.9625
 21
8.63786
  0
LINE
  8
0
 10
47.9625
 20
8.63786
 11
47.9346
 21
8.80165
  0
LINE
  8
0
 10
47.9346
 20
8.80165
 11
47.9254
 21
8.98409
  0
LINE
  8
0
 10
47.9254
 20
8.98409
 11
47.9346
 21
9.16628
  0
LINE
  8
0
 10
47.9346
 20
9.16628
 11
47.9625
 21
9.32928
  0
LINE
  8
0
 10
47.9625
 20
9.32928
 11
48.009
 21
9.47313
  0
LINE
  8
0
 10
48.009
 20
9.47313
 11
48.074
 21
9.59779
  0
LINE
  8
0
 10
48.074
 20
9.59779
 11
48.1565
 21
9.69847
  0
LINE
  8
0
 10
48.1565
 20
9.69847
 11
48.2556
 21
9.7704
  0
LINE
  8
0
 10
48.2556
 20
9.7704
 11
48.3711
 21
9.81355
  0
LINE
  8
0
 10
48.3711
 20
9.81355
 11
48.5031
 21
9.82794
  0
LINE
  8
0
 10
48.5031
 20
9.82794
 11
48.6351
 21
9.81355
  0
LINE
  8
0
 10
48.6351
 20
9.81355
 11
48.7506
 21
9.7704
  0
LINE
  8
0
 10
48.7506
 20
9.7704
 11
48.8497
 21
9.69847
  0
LINE
  8
0
 10
48.8497
 20
9.69847
 11
48.9322
 21
9.59779
  0
LINE
  8
0
 10
48.9322
 20
9.59779
 11
48.9973
 21
9.47313
  0
LINE
  8
0
 10
48.9973
 20
9.47313
 11
49.0437
 21
9.32928
  0
LINE
  8
0
 10
49.0437
 20
9.32928
 11
49.0716
 21
9.16628
  0
LINE
  8
0
 10
49.0716
 20
9.16628
 11
49.0809
 21
8.98409
  0
LINE
  8
0
 10
49.0809
 20
8.98409
 11
49.0716
 21
8.80165
  0
LINE
  8
0
 10
49.0716
 20
8.80165
 11
49.0437
 21
8.63786
  0
LINE
  8
0
 10
49.0437
 20
8.63786
 11
48.9973
 21
8.49274
  0
LINE
  8
0
 10
48.9973
 20
8.49274
 11
48.9322
 21
8.36627
  0
LINE
  8
0
 10
48.9322
 20
8.36627
 11
48.8497
 21
8.26379
  0
LINE
  8
0
 10
48.8497
 20
8.26379
 11
48.7506
 21
8.1906
  0
LINE
  8
0
 10
48.7506
 20
8.1906
 11
48.6351
 21
8.14668
  0
LINE
  8
0
 10
48.6351
 20
8.14668
 11
48.5031
 21
8.13203
  0
LINE
  8
0
 10
48.5031
 20
8.13203
 11
48.3711
 21
8.14668
  0
LINE
  8
0
 10
45.4533
 20
7.41911
 11
45.7147
 21
7.47485
  0
LINE
  8
0
 10
45.7147
 20
7.47485
 11
45.9483
 21
7.56775
  0
LINE
  8
0
 10
45.9483
 20
7.56775
 11
46.1543
 21
7.69778
  0
LINE
  8
0
 10
46.1543
 20
7.69778
 11
46.327
 21
7.86003
  0
LINE
  8
0
 10
46.327
 20
7.86003
 11
46.4607
 21
8.0495
  0
LINE
  8
0
 10
46.4607
 20
8.0495
 11
46.5556
 21
8.2662
  0
LINE
  8
0
 10
46.5556
 20
8.2662
 11
46.6115
 21
8.51013
  0
LINE
  8
0
 10
46.6115
 20
8.51013
 11
45.7084
 21
8.65257
  0
LINE
  8
0
 10
45.7084
 20
8.65257
 11
45.6802
 21
8.53615
  0
LINE
  8
0
 10
45.6802
 20
8.53615
 11
45.6407
 21
8.43341
  0
LINE
  8
0
 10
45.6407
 20
8.43341
 11
45.5898
 21
8.34438
  0
LINE
  8
0
 10
45.5898
 20
8.34438
 11
45.5275
 21
8.26903
  0
LINE
  8
0
 10
45.5275
 20
8.26903
 11
45.4545
 21
8.20909
  0
LINE
  8
0
 10
45.4545
 20
8.20909
 11
45.3714
 21
8.16629
  0
LINE
  8
0
 10
45.3714
 20
8.16629
 11
45.2785
 21
8.14059
  0
LINE
  8
0
 10
45.2785
 20
8.14059
 11
45.1755
 21
8.13203
  0
LINE
  8
0
 10
45.1755
 20
8.13203
 11
45.0431
 21
8.14633
  0
LINE
  8
0
 10
45.0431
 20
8.14633
 11
44.9265
 21
8.18922
  0
LINE
  8
0
 10
44.9265
 20
8.18922
 11
44.8257
 21
8.2607
  0
LINE
  8
0
 10
44.8257
 20
8.2607
 11
44.7407
 21
8.36078
  0
LINE
  8
0
 10
44.7407
 20
8.36078
 11
44.6732
 21
8.48552
  0
LINE
  8
0
 10
44.6732
 20
8.48552
 11
44.625
 21
8.631
  0
LINE
  8
0
 10
44.625
 20
8.631
 11
44.5961
 21
8.79718
  0
LINE
  8
0
 10
44.5961
 20
8.79718
 11
44.5865
 21
8.98409
  0
LINE
  8
0
 10
44.5865
 20
8.98409
 11
44.5961
 21
9.17183
  0
LINE
  8
0
 10
44.5961
 20
9.17183
 11
44.625
 21
9.33784
  0
LINE
  8
0
 10
44.625
 20
9.33784
 11
44.6732
 21
9.4821
  0
LINE
  8
0
 10
44.6732
 20
9.4821
 11
44.7407
 21
9.60461
  0
LINE
  8
0
 10
44.7407
 20
9.60461
 11
44.8257
 21
9.70232
  0
LINE
  8
0
 10
44.8257
 20
9.70232
 11
44.9265
 21
9.77211
  0
LINE
  8
0
 10
44.9265
 20
9.77211
 11
45.0431
 21
9.81398
  0
LINE
  8
0
 10
45.0431
 20
9.81398
 11
45.1755
 21
9.82794
  0
LINE
  8
0
 10
45.1755
 20
9.82794
 11
45.2783
 21
9.81972
  0
LINE
  8
0
 10
45.2783
 20
9.81972
 11
45.3707
 21
9.79506
  0
LINE
  8
0
 10
45.3707
 20
9.79506
 11
45.4529
 21
9.75395
  0
LINE
  8
0
 10
45.4529
 20
9.75395
 11
45.5246
 21
9.6964
  0
LINE
  8
0
 10
45.5246
 20
9.6964
 11
45.5859
 21
9.62381
  0
LINE
  8
0
 10
45.5859
 20
9.62381
 11
45.6365
 21
9.53751
  0
LINE
  8
0
 10
45.6365
 20
9.53751
 11
45.6764
 21
9.4375
  0
LINE
  8
0
 10
45.6764
 20
9.4375
 11
45.7056
 21
9.32381
  0
LINE
  8
0
 10
45.7056
 20
9.32381
 11
46.6087
 21
9.47174
  0
LINE
  8
0
 10
46.6087
 20
9.47174
 11
46.5527
 21
9.70941
  0
LINE
  8
0
 10
46.5527
 20
9.70941
 11
46.4576
 21
9.92107
  0
LINE
  8
0
 10
46.4576
 20
9.92107
 11
46.3234
 21
10.1067
  0
LINE
  8
0
 10
46.3234
 20
10.1067
 11
46.1501
 21
10.2663
  0
LINE
  8
0
 10
46.1501
 20
10.2663
 11
45.9439
 21
10.3945
  0
LINE
  8
0
 10
45.9439
 20
10.3945
 11
45.7108
 21
10.4861
  0
LINE
  8
0
 10
45.7108
 20
10.4861
 11
45.451
 21
10.5411
  0
LINE
  8
0
 10
45.451
 20
10.5411
 11
45.1643
 21
10.5594
  0
LINE
  8
0
 10
45.1643
 20
10.5594
 11
44.9274
 21
10.547
  0
LINE
  8
0
 10
44.9274
 20
10.547
 11
44.7078
 21
10.5098
  0
LINE
  8
0
 10
44.7078
 20
10.5098
 11
44.5053
 21
10.4477
  0
LINE
  8
0
 10
44.5053
 20
10.4477
 11
44.32
 21
10.3608
  0
LINE
  8
0
 10
44.32
 20
10.3608
 11
44.1536
 21
10.2516
  0
LINE
  8
0
 10
44.1536
 20
10.2516
 11
44.0076
 21
10.1228
  0
LINE
  8
0
 10
44.0076
 20
10.1228
 11
43.8822
 21
9.97423
  0
LINE
  8
0
 10
43.8822
 20
9.97423
 11
43.7773
 21
9.806
  0
LINE
  8
0
 10
43.7773
 20
9.806
 11
43.6945
 21
9.62073
  0
LINE
  8
0
 10
43.6945
 20
9.62073
 11
43.6353
 21
9.42108
  0
LINE
  8
0
 10
43.6353
 20
9.42108
 11
43.5998
 21
9.20703
  0
LINE
  8
0
 10
43.5998
 20
9.20703
 11
43.588
 21
8.97859
  0
LINE
  8
0
 10
43.588
 20
8.97859
 11
43.5998
 21
8.75026
  0
LINE
  8
0
 10
43.5998
 20
8.75026
 11
43.6353
 21
8.53648
  0
LINE
  8
0
 10
43.6353
 20
8.53648
 11
43.6945
 21
8.33725
  0
LINE
  8
0
 10
43.6945
 20
8.33725
 11
43.7773
 21
8.15256
  0
LINE
  8
0
 10
43.7773
 20
8.15256
 11
43.8822
 21
7.98492
  0
LINE
  8
0
 10
43.8822
 20
7.98492
 11
44.0076
 21
7.83681
  0
LINE
  8
0
 10
44.0076
 20
7.83681
 11
44.1536
 21
7.70822
  0
LINE
  8
0
 10
44.1536
 20
7.70822
 11
44.32
 21
7.59914
  0
LINE
  8
0
 10
44.32
 20
7.59914
 11
44.5053
 21
7.51225
  0
LINE
  8
0
 10
44.5053
 20
7.51225
 11
44.7078
 21
7.45018
  0
LINE
  8
0
 10
44.7078
 20
7.45018
 11
44.9274
 21
7.41295
  0
LINE
  8
0
 10
44.9274
 20
7.41295
 11
45.1643
 21
7.40053
  0
LINE
  8
0
 10
45.1643
 20
7.40053
 11
45.4533
 21
7.41911
  0
LINE
  8
0
 10
23.2136
 20
9.12929
 11
23.2248
 21
9.25977
  0
LINE
  8
0
 10
23.2248
 20
9.25977
 11
23.2581
 21
9.37723
  0
LINE
  8
0
 10
23.2581
 20
9.37723
 11
23.3138
 21
9.48167
  0
LINE
  8
0
 10
23.3138
 20
9.48167
 11
23.3917
 21
9.5731
  0
LINE
  8
0
 10
23.3917
 20
9.5731
 11
23.4867
 21
9.64743
  0
LINE
  8
0
 10
23.4867
 20
9.64743
 11
23.5933
 21
9.70052
  0
LINE
  8
0
 10
23.5933
 20
9.70052
 11
23.7117
 21
9.73236
  0
LINE
  8
0
 10
23.7117
 20
9.73236
 11
23.8419
 21
9.74298
  0
LINE
  8
0
 10
23.8419
 20
9.74298
 11
23.8883
 21
9.7422
  0
LINE
  8
0
 10
23.8883
 20
9.7422
 11
23.9376
 21
9.7399
  0
LINE
  8
0
 10
23.9376
 20
9.7399
 11
23.9899
 21
9.73605
  0
LINE
  8
0
 10
23.9899
 20
9.73605
 11
24.0452
 21
9.73067
  0
LINE
  8
0
 10
24.0452
 20
9.73067
 11
24.0993
 21
9.72372
  0
LINE
  8
0
 10
24.0993
 20
9.72372
 11
24.1479
 21
9.71526
  0
LINE
  8
0
 10
24.1479
 20
9.71526
 11
24.1912
 21
9.70525
  0
LINE
  8
0
 10
24.1912
 20
9.70525
 11
24.229
 21
9.6937
  0
LINE
  8
0
 10
24.229
 20
9.6937
 11
24.229
 21
10.5266
  0
LINE
  8
0
 10
24.229
 20
10.5266
 11
24.1611
 21
10.5409
  0
LINE
  8
0
 10
24.1611
 20
10.5409
 11
24.0922
 21
10.5512
  0
LINE
  8
0
 10
24.0922
 20
10.5512
 11
24.0223
 21
10.5574
  0
LINE
  8
0
 10
24.0223
 20
10.5574
 11
23.9513
 21
10.5594
  0
LINE
  8
0
 10
23.9513
 20
10.5594
 11
23.8262
 21
10.5502
  0
LINE
  8
0
 10
23.8262
 20
10.5502
 11
23.709
 21
10.5225
  0
LINE
  8
0
 10
23.709
 20
10.5225
 11
23.5997
 21
10.4762
  0
LINE
  8
0
 10
23.5997
 20
10.4762
 11
23.4983
 21
10.4115
  0
LINE
  8
0
 10
23.4983
 20
10.4115
 11
23.4078
 21
10.3279
  0
LINE
  8
0
 10
23.4078
 20
10.3279
 11
23.3311
 21
10.2252
  0
LINE
  8
0
 10
23.3311
 20
10.2252
 11
23.2682
 21
10.1033
  0
LINE
  8
0
 10
23.2682
 20
10.1033
 11
23.2193
 21
9.96219
  0
LINE
  8
0
 10
23.2193
 20
9.96219
 11
23.1856
 21
9.96219
  0
LINE
  8
0
 10
23.1856
 20
9.96219
 11
23.1856
 21
10.5211
  0
LINE
  8
0
 10
23.1856
 20
10.5211
 11
22.2348
 21
10.5211
  0
LINE
  8
0
 10
22.2348
 20
10.5211
 11
22.2348
 21
7.45805
  0
LINE
  8
0
 10
22.2348
 20
7.45805
 11
23.2136
 21
7.45805
  0
LINE
  8
0
 10
23.2136
 20
7.45805
 11
23.2136
 21
9.12929
  0
LINE
  8
0
 10
25.5829
 20
10.5211
 11
24.604
 21
10.5211
  0
LINE
  8
0
 10
24.604
 20
10.5211
 11
24.604
 21
7.45805
  0
LINE
  8
0
 10
24.604
 20
7.45805
 11
25.5829
 21
7.45805
  0
LINE
  8
0
 10
25.5829
 20
7.45805
 11
25.5829
 21
10.5211
  0
LINE
  8
0
 10
9.42647
 20
1.4286
 11
9.48474
 21
1.49341
  0
LINE
  8
0
 10
9.48474
 20
1.49341
 11
9.53957
 21
1.55925
  0
LINE
  8
0
 10
9.53957
 20
1.55925
 11
9.59096
 21
1.62634
  0
LINE
  8
0
 10
9.59096
 20
1.62634
 11
9.63896
 21
1.69484
  0
LINE
  8
0
 10
9.63896
 20
1.69484
 11
9.68361
 21
1.76494
  0
LINE
  8
0
 10
9.68361
 20
1.76494
 11
9.72495
 21
1.83679
  0
LINE
  8
0
 10
9.72495
 20
1.83679
 11
9.763
 21
1.91058
  0
LINE
  8
0
 10
9.763
 20
1.91058
 11
9.79781
 21
1.9865
  0
LINE
  8
0
 10
9.79781
 20
1.9865
 11
9.82941
 21
2.0647
  0
LINE
  8
0
 10
9.82941
 20
2.0647
 11
9.85782
 21
2.14537
  0
LINE
  8
0
 10
9.85782
 20
2.14537
 11
9.8831
 21
2.2287
  0
LINE
  8
0
 10
9.8831
 20
2.2287
 11
9.90527
 21
2.31485
  0
LINE
  8
0
 10
9.90527
 20
2.31485
 11
9.92436
 21
2.40399
  0
LINE
  8
0
 10
9.92436
 20
2.40399
 11
9.94043
 21
2.49632
  0
LINE
  8
0
 10
9.94043
 20
2.49632
 11
9.95349
 21
2.592
  0
LINE
  8
0
 10
9.95349
 20
2.592
 11
9.96359
 21
2.69119
  0
LINE
  8
0
 10
9.96359
 20
2.69119
 11
9.97076
 21
2.79411
  0
LINE
  8
0
 10
9.97076
 20
2.79411
 11
9.97505
 21
2.90091
  0
LINE
  8
0
 10
9.97505
 20
2.90091
 11
9.97646
 21
3.01176
  0
LINE
  8
0
 10
9.97646
 20
3.01176
 11
9.97646
 21
10.3059
  0
LINE
  8
0
 10
9.97646
 20
10.3059
 11
7.01176
 21
8.70587
  0
LINE
  8
0
 10
7.01176
 20
8.70587
 11
7.01176
 21
2.91763
  0
LINE
  8
0
 10
7.01176
 20
2.91763
 11
9.3647
 21
1.3647
  0
LINE
  8
0
 10
9.3647
 20
1.3647
 11
9.42647
 21
1.4286
  0
LINE
  8
0
 10
42.5287
 20
7.4097
 11
42.6275
 21
7.43718
  0
LINE
  8
0
 10
42.6275
 20
7.43718
 11
42.7173
 21
7.48297
  0
LINE
  8
0
 10
42.7173
 20
7.48297
 11
42.7982
 21
7.5471
  0
LINE
  8
0
 10
42.7982
 20
7.5471
 11
42.8651
 21
7.62476
  0
LINE
  8
0
 10
42.8651
 20
7.62476
 11
42.9129
 21
7.71114
  0
LINE
  8
0
 10
42.9129
 20
7.71114
 11
42.9415
 21
7.80627
  0
LINE
  8
0
 10
42.9415
 20
7.80627
 11
42.9511
 21
7.91013
  0
LINE
  8
0
 10
42.9511
 20
7.91013
 11
42.9415
 21
8.01517
  0
LINE
  8
0
 10
42.9415
 20
8.01517
 11
42.9129
 21
8.11115
  0
LINE
  8
0
 10
42.9129
 20
8.11115
 11
42.8651
 21
8.19804
  0
LINE
  8
0
 10
42.8651
 20
8.19804
 11
42.7982
 21
8.27586
  0
LINE
  8
0
 10
42.7982
 20
8.27586
 11
42.7173
 21
8.34
  0
LINE
  8
0
 10
42.7173
 20
8.34
 11
42.6275
 21
8.38582
  0
LINE
  8
0
 10
42.6275
 20
8.38582
 11
42.5287
 21
8.4133
  0
LINE
  8
0
 10
42.5287
 20
8.4133
 11
42.421
 21
8.42247
  0
LINE
  8
0
 10
42.421
 20
8.42247
 11
42.3133
 21
8.4133
  0
LINE
  8
0
 10
42.3133
 20
8.4133
 11
42.2145
 21
8.38582
  0
LINE
  8
0
 10
42.2145
 20
8.38582
 11
42.1247
 21
8.34
  0
LINE
  8
0
 10
42.1247
 20
8.34
 11
42.0438
 21
8.27586
  0
LINE
  8
0
 10
42.0438
 20
8.27586
 11
41.9769
 21
8.19804
  0
LINE
  8
0
 10
41.9769
 20
8.19804
 11
41.9291
 21
8.11115
  0
LINE
  8
0
 10
41.9291
 20
8.11115
 11
41.9005
 21
8.01517
  0
LINE
  8
0
 10
41.9005
 20
8.01517
 11
41.8909
 21
7.91013
  0
LINE
  8
0
 10
41.8909
 20
7.91013
 11
41.9005
 21
7.80627
  0
LINE
  8
0
 10
41.9005
 20
7.80627
 11
41.9291
 21
7.71114
  0
LINE
  8
0
 10
41.9291
 20
7.71114
 11
41.9769
 21
7.62476
  0
LINE
  8
0
 10
41.9769
 20
7.62476
 11
42.0438
 21
7.5471
  0
LINE
  8
0
 10
42.0438
 20
7.5471
 11
42.1247
 21
7.48297
  0
LINE
  8
0
 10
42.1247
 20
7.48297
 11
42.2145
 21
7.43718
  0
LINE
  8
0
 10
42.2145
 20
7.43718
 11
42.3133
 21
7.4097
  0
LINE
  8
0
 10
42.3133
 20
7.4097
 11
42.421
 21
7.40053
  0
LINE
  8
0
 10
42.421
 20
7.40053
 11
42.5287
 21
7.4097
  0
LINE
  8
0
 10
75.8626
 20
1.81686
 11
75.9237
 21
1.81941
  0
LINE
  8
0
 10
75.9237
 20
1.81941
 11
75.9866
 21
1.82368
  0
LINE
  8
0
 10
75.9866
 20
1.82368
 11
76.0513
 21
1.82965
  0
LINE
  8
0
 10
76.0513
 20
1.82965
 11
76.1176
 21
1.83804
  0
LINE
  8
0
 10
76.1176
 20
1.83804
 11
76.1849
 21
1.84955
  0
LINE
  8
0
 10
76.1849
 20
1.84955
 11
76.2535
 21
1.8642
  0
LINE
  8
0
 10
76.2535
 20
1.8642
 11
76.3233
 21
1.88196
  0
LINE
  8
0
 10
76.3233
 20
1.88196
 11
76.2159
 21
2.45959
  0
LINE
  8
0
 10
76.2159
 20
2.45959
 11
76.1965
 21
2.45596
  0
LINE
  8
0
 10
76.1965
 20
2.45596
 11
76.1715
 21
2.45192
  0
LINE
  8
0
 10
76.1715
 20
2.45192
 11
76.141
 21
2.44743
  0
LINE
  8
0
 10
76.141
 20
2.44743
 11
76.105
 21
2.44252
  0
LINE
  8
0
 10
76.105
 20
2.44252
 11
76.0684
 21
2.43803
  0
LINE
  8
0
 10
76.0684
 20
2.43803
 11
76.0361
 21
2.43484
  0
LINE
  8
0
 10
76.0361
 20
2.43484
 11
76.0082
 21
2.43292
  0
LINE
  8
0
 10
76.0082
 20
2.43292
 11
75.9845
 21
2.4323
  0
LINE
  8
0
 10
75.9845
 20
2.4323
 11
75.8916
 21
2.44466
  0
LINE
  8
0
 10
75.8916
 20
2.44466
 11
75.8253
 21
2.48175
  0
LINE
  8
0
 10
75.8253
 20
2.48175
 11
75.7855
 21
2.54358
  0
LINE
  8
0
 10
75.7855
 20
2.54358
 11
75.7722
 21
2.63014
  0
LINE
  8
0
 10
75.7722
 20
2.63014
 11
75.7722
 21
3.80591
  0
LINE
  8
0
 10
75.7722
 20
3.80591
 11
76.2518
 21
3.80591
  0
LINE
  8
0
 10
76.2518
 20
3.80591
 11
76.2518
 21
4.3949
  0
LINE
  8
0
 10
76.2518
 20
4.3949
 11
75.7722
 21
4.3949
  0
LINE
  8
0
 10
75.7722
 20
4.3949
 11
75.7722
 21
4.99985
  0
LINE
  8
0
 10
75.7722
 20
4.99985
 11
74.9396
 21
4.99985
  0
LINE
  8
0
 10
74.9396
 20
4.99985
 11
74.9396
 21
4.3949
  0
LINE
  8
0
 10
74.9396
 20
4.3949
 11
74.1062
 21
4.3949
  0
LINE
  8
0
 10
74.1062
 20
4.3949
 11
74.1062
 21
4.53818
  0
LINE
  8
0
 10
74.1062
 20
4.53818
 11
74.1099
 21
4.59099
  0
LINE
  8
0
 10
74.1099
 20
4.59099
 11
74.1208
 21
4.63795
  0
LINE
  8
0
 10
74.1208
 20
4.63795
 11
74.1391
 21
4.67909
  0
LINE
  8
0
 10
74.1391
 20
4.67909
 11
74.1647
 21
4.7144
  0
LINE
  8
0
 10
74.1647
 20
4.7144
 11
74.1995
 21
4.74277
  0
LINE
  8
0
 10
74.1995
 20
4.74277
 11
74.2455
 21
4.76303
  0
LINE
  8
0
 10
74.2455
 20
4.76303
 11
74.3027
 21
4.77518
  0
LINE
  8
0
 10
74.3027
 20
4.77518
 11
74.371
 21
4.77924
  0
LINE
  8
0
 10
74.371
 20
4.77924
 11
74.4033
 21
4.77859
  0
LINE
  8
0
 10
74.4033
 20
4.77859
 11
74.4355
 21
4.77667
  0
LINE
  8
0
 10
74.4355
 20
4.77667
 11
74.4677
 21
4.77347
  0
LINE
  8
0
 10
74.4677
 20
4.77347
 11
74.4999
 21
4.769
  0
LINE
  8
0
 10
74.4999
 20
4.769
 11
74.531
 21
4.76382
  0
LINE
  8
0
 10
74.531
 20
4.76382
 11
74.5601
 21
4.75848
  0
LINE
  8
0
 10
74.5601
 20
4.75848
 11
74.5871
 21
4.75302
  0
LINE
  8
0
 10
74.5871
 20
4.75302
 11
74.612
 21
4.74741
  0
LINE
  8
0
 10
74.612
 20
4.74741
 11
74.7456
 21
5.3273
  0
LINE
  8
0
 10
74.7456
 20
5.3273
 11
74.7036
 21
5.33791
  0
LINE
  8
0
 10
74.7036
 20
5.33791
 11
74.6514
 21
5.3492
  0
LINE
  8
0
 10
74.6514
 20
5.3492
 11
74.589
 21
5.36121
  0
LINE
  8
0
 10
74.589
 20
5.36121
 11
74.5166
 21
5.37392
  0
LINE
  8
0
 10
74.5166
 20
5.37392
 11
74.4377
 21
5.38536
  0
LINE
  8
0
 10
74.4377
 20
5.38536
 11
74.3561
 21
5.39354
  0
LINE
  8
0
 10
74.3561
 20
5.39354
 11
74.2719
 21
5.39844
  0
LINE
  8
0
 10
74.2719
 20
5.39844
 11
74.185
 21
5.40007
  0
LINE
  8
0
 10
74.185
 20
5.40007
 11
73.9938
 21
5.38657
  0
LINE
  8
0
 10
73.9938
 20
5.38657
 11
73.8212
 21
5.34605
  0
LINE
  8
0
 10
73.8212
 20
5.34605
 11
73.667
 21
5.27855
  0
LINE
  8
0
 10
73.667
 20
5.27855
 11
73.5313
 21
5.18402
  0
LINE
  8
0
 10
73.5313
 20
5.18402
 11
73.4207
 21
5.06221
  0
LINE
  8
0
 10
73.4207
 20
5.06221
 11
73.3416
 21
4.91284
  0
LINE
  8
0
 10
73.3416
 20
4.91284
 11
73.2942
 21
4.73589
  0
LINE
  8
0
 10
73.2942
 20
4.73589
 11
73.2784
 21
4.53134
  0
LINE
  8
0
 10
73.2784
 20
4.53134
 11
73.2784
 21
4.3949
  0
LINE
  8
0
 10
73.2784
 20
4.3949
 11
72.8299
 21
4.3949
  0
LINE
  8
0
 10
72.8299
 20
4.3949
 11
72.8299
 21
3.80591
  0
LINE
  8
0
 10
72.8299
 20
3.80591
 11
73.2784
 21
3.80591
  0
LINE
  8
0
 10
73.2784
 20
3.80591
 11
73.2784
 21
1.85239
  0
LINE
  8
0
 10
73.2784
 20
1.85239
 11
74.1062
 21
1.85239
  0
LINE
  8
0
 10
74.1062
 20
1.85239
 11
74.1062
 21
3.80591
  0
LINE
  8
0
 10
74.1062
 20
3.80591
 11
74.9396
 21
3.80591
  0
LINE
  8
0
 10
74.9396
 20
3.80591
 11
74.9396
 21
2.55965
  0
LINE
  8
0
 10
74.9396
 20
2.55965
 11
74.9533
 21
2.38858
  0
LINE
  8
0
 10
74.9533
 20
2.38858
 11
74.9945
 21
2.23927
  0
LINE
  8
0
 10
74.9945
 20
2.23927
 11
75.0631
 21
2.11169
  0
LINE
  8
0
 10
75.0631
 20
2.11169
 11
75.1591
 21
2.00587
  0
LINE
  8
0
 10
75.1591
 20
2.00587
 11
75.2817
 21
1.92281
  0
LINE
  8
0
 10
75.2817
 20
1.92281
 11
75.4299
 21
1.86346
  0
LINE
  8
0
 10
75.4299
 20
1.86346
 11
75.6037
 21
1.82787
  0
LINE
  8
0
 10
75.6037
 20
1.82787
 11
75.8032
 21
1.81601
  0
LINE
  8
0
 10
75.8032
 20
1.81601
 11
75.8626
 21
1.81686
  0
LINE
  8
0
 10
43.337
 20
1.81372
 11
43.5405
 21
1.85464
  0
LINE
  8
0
 10
43.5405
 20
1.85464
 11
43.7294
 21
1.92287
  0
LINE
  8
0
 10
43.7294
 20
1.92287
 11
43.9037
 21
2.01839
  0
LINE
  8
0
 10
43.9037
 20
2.01839
 11
44.0614
 21
2.13927
  0
LINE
  8
0
 10
44.0614
 20
2.13927
 11
44.2004
 21
2.28362
  0
LINE
  8
0
 10
44.2004
 20
2.28362
 11
44.3208
 21
2.4514
  0
LINE
  8
0
 10
44.3208
 20
2.4514
 11
44.4226
 21
2.64265
  0
LINE
  8
0
 10
44.4226
 20
2.64265
 11
44.5035
 21
2.85522
  0
LINE
  8
0
 10
44.5035
 20
2.85522
 11
44.5613
 21
3.08698
  0
LINE
  8
0
 10
44.5613
 20
3.08698
 11
44.5959
 21
3.33792
  0
LINE
  8
0
 10
44.5959
 20
3.33792
 11
44.6075
 21
3.60805
  0
LINE
  8
0
 10
44.6075
 20
3.60805
 11
44.6001
 21
3.83113
  0
LINE
  8
0
 10
44.6001
 20
3.83113
 11
44.5777
 21
4.03644
  0
LINE
  8
0
 10
44.5777
 20
4.03644
 11
44.5404
 21
4.22398
  0
LINE
  8
0
 10
44.5404
 20
4.22398
 11
44.4882
 21
4.39375
  0
LINE
  8
0
 10
44.4882
 20
4.39375
 11
44.423
 21
4.54691
  0
LINE
  8
0
 10
44.423
 20
4.54691
 11
44.3469
 21
4.68456
  0
LINE
  8
0
 10
44.3469
 20
4.68456
 11
44.2596
 21
4.80673
  0
LINE
  8
0
 10
44.2596
 20
4.80673
 11
44.1614
 21
4.91339
  0
LINE
  8
0
 10
44.1614
 20
4.91339
 11
44.0541
 21
5.00566
  0
LINE
  8
0
 10
44.0541
 20
5.00566
 11
43.9398
 21
5.08455
  0
LINE
  8
0
 10
43.9398
 20
5.08455
 11
43.8185
 21
5.15007
  0
LINE
  8
0
 10
43.8185
 20
5.15007
 11
43.6902
 21
5.20222
  0
LINE
  8
0
 10
43.6902
 20
5.20222
 11
43.5568
 21
5.24203
  0
LINE
  8
0
 10
43.5568
 20
5.24203
 11
43.4203
 21
5.27046
  0
LINE
  8
0
 10
43.4203
 20
5.27046
 11
43.2807
 21
5.28751
  0
LINE
  8
0
 10
43.2807
 20
5.28751
 11
43.1379
 21
5.2932
  0
LINE
  8
0
 10
43.1379
 20
5.2932
 11
42.9412
 21
5.28461
  0
LINE
  8
0
 10
42.9412
 20
5.28461
 11
42.7565
 21
5.25653
  0
LINE
  8
0
 10
42.7565
 20
5.25653
 11
42.5839
 21
5.20898
  0
LINE
  8
0
 10
42.5839
 20
5.20898
 11
42.4234
 21
5.14197
  0
LINE
  8
0
 10
42.4234
 20
5.14197
 11
42.2774
 21
5.05788
  0
LINE
  8
0
 10
42.2774
 20
5.05788
 11
42.1482
 21
4.95917
  0
LINE
  8
0
 10
42.1482
 20
4.95917
 11
42.0358
 21
4.84583
  0
LINE
  8
0
 10
42.0358
 20
4.84583
 11
41.9403
 21
4.71782
  0
LINE
  8
0
 10
41.9403
 20
4.71782
 11
41.8641
 21
4.57739
  0
LINE
  8
0
 10
41.8641
 20
4.57739
 11
41.8097
 21
4.42674
  0
LINE
  8
0
 10
41.8097
 20
4.42674
 11
41.7771
 21
4.26584
  0
LINE
  8
0
 10
41.7771
 20
4.26584
 11
41.7662
 21
4.0947
  0
LINE
  8
0
 10
41.7662
 20
4.0947
 11
41.7749
 21
3.94205
  0
LINE
  8
0
 10
41.7749
 20
3.94205
 11
41.8011
 21
3.79793
  0
LINE
  8
0
 10
41.8011
 20
3.79793
 11
41.8447
 21
3.66234
  0
LINE
  8
0
 10
41.8447
 20
3.66234
 11
41.9057
 21
3.53525
  0
LINE
  8
0
 10
41.9057
 20
3.53525
 11
41.9822
 21
3.41907
  0
LINE
  8
0
 10
41.9822
 20
3.41907
 11
42.0719
 21
3.31609
  0
LINE
  8
0
 10
42.0719
 20
3.31609
 11
42.1748
 21
3.22632
  0
LINE
  8
0
 10
42.1748
 20
3.22632
 11
42.291
 21
3.14978
  0
LINE
  8
0
 10
42.291
 20
3.14978
 11
42.4185
 21
3.08861
  0
LINE
  8
0
 10
42.4185
 20
3.08861
 11
42.5552
 21
3.04491
  0
LINE
  8
0
 10
42.5552
 20
3.04491
 11
42.7012
 21
3.01868
  0
LINE
  8
0
 10
42.7012
 20
3.01868
 11
42.8564
 21
3.00995
  0
LINE
  8
0
 10
42.8564
 20
3.00995
 11
43.0012
 21
3.01804
  0
LINE
  8
0
 10
43.0012
 20
3.01804
 11
43.1397
 21
3.04234
  0
LINE
  8
0
 10
43.1397
 20
3.04234
 11
43.272
 21
3.08286
  0
LINE
  8
0
 10
43.272
 20
3.08286
 11
43.398
 21
3.13956
  0
LINE
  8
0
 10
43.398
 20
3.13956
 11
43.5123
 21
3.21034
  0
LINE
  8
0
 10
43.5123
 20
3.21034
 11
43.6097
 21
3.29308
  0
LINE
  8
0
 10
43.6097
 20
3.29308
 11
43.6901
 21
3.38774
  0
LINE
  8
0
 10
43.6901
 20
3.38774
 11
43.7534
 21
3.49434
  0
LINE
  8
0
 10
43.7534
 20
3.49434
 11
43.7749
 21
3.49434
  0
LINE
  8
0
 10
43.7749
 20
3.49434
 11
43.7647
 21
3.27623
  0
LINE
  8
0
 10
43.7647
 20
3.27623
 11
43.7341
 21
3.0813
  0
LINE
  8
0
 10
43.7341
 20
3.0813
 11
43.683
 21
2.90953
  0
LINE
  8
0
 10
43.683
 20
2.90953
 11
43.6115
 21
2.76093
  0
LINE
  8
0
 10
43.6115
 20
2.76093
 11
43.5194
 21
2.64102
  0
LINE
  8
0
 10
43.5194
 20
2.64102
 11
43.4066
 21
2.55539
  0
LINE
  8
0
 10
43.4066
 20
2.55539
 11
43.2731
 21
2.50401
  0
LINE
  8
0
 10
43.2731
 20
2.50401
 11
43.1188
 21
2.48688
  0
LINE
  8
0
 10
43.1188
 20
2.48688
 11
43.0312
 21
2.49249
  0
LINE
  8
0
 10
43.0312
 20
2.49249
 11
42.9498
 21
2.50934
  0
LINE
  8
0
 10
42.9498
 20
2.50934
 11
42.8744
 21
2.5374
  0
LINE
  8
0
 10
42.8744
 20
2.5374
 11
42.8051
 21
2.57669
  0
LINE
  8
0
 10
42.8051
 20
2.57669
 11
42.745
 21
2.62622
  0
LINE
  8
0
 10
42.745
 20
2.62622
 11
42.6969
 21
2.685
  0
LINE
  8
0
 10
42.6969
 20
2.685
 11
42.6609
 21
2.75302
  0
LINE
  8
0
 10
42.6609
 20
2.75302
 11
42.6369
 21
2.83028
  0
LINE
  8
0
 10
42.6369
 20
2.83028
 11
41.8067
 21
2.83028
  0
LINE
  8
0
 10
41.8067
 20
2.83028
 11
41.832
 21
2.69034
  0
LINE
  8
0
 10
41.832
 20
2.69034
 11
41.8744
 21
2.55708
  0
LINE
  8
0
 10
41.8744
 20
2.55708
 11
41.934
 21
2.43051
  0
LINE
  8
0
 10
41.934
 20
2.43051
 11
42.0107
 21
2.31062
  0
LINE
  8
0
 10
42.0107
 20
2.31062
 11
42.1031
 21
2.19998
  0
LINE
  8
0
 10
42.1031
 20
2.19998
 11
42.2096
 21
2.10112
  0
LINE
  8
0
 10
42.2096
 20
2.10112
 11
42.3303
 21
2.01407
  0
LINE
  8
0
 10
42.3303
 20
2.01407
 11
42.4652
 21
1.9388
  0
LINE
  8
0
 10
42.4652
 20
1.9388
 11
42.6125
 21
1.87811
  0
LINE
  8
0
 10
42.6125
 20
1.87811
 11
42.7706
 21
1.83476
  0
LINE
  8
0
 10
42.7706
 20
1.83476
 11
42.9393
 21
1.80875
  0
LINE
  8
0
 10
42.9393
 20
1.80875
 11
43.1188
 21
1.80008
  0
LINE
  8
0
 10
43.1188
 20
1.80008
 11
43.337
 21
1.81372
  0
LINE
  8
0
 10
43.0251
 20
3.58365
 11
42.9202
 21
3.61285
  0
LINE
  8
0
 10
42.9202
 20
3.61285
 11
42.8259
 21
3.66153
  0
LINE
  8
0
 10
42.8259
 20
3.66153
 11
42.7419
 21
3.72968
  0
LINE
  8
0
 10
42.7419
 20
3.72968
 11
42.673
 21
3.81248
  0
LINE
  8
0
 10
42.673
 20
3.81248
 11
42.6238
 21
3.90509
  0
LINE
  8
0
 10
42.6238
 20
3.90509
 11
42.5943
 21
4.00751
  0
LINE
  8
0
 10
42.5943
 20
4.00751
 11
42.5845
 21
4.11972
  0
LINE
  8
0
 10
42.5845
 20
4.11972
 11
42.5945
 21
4.23102
  0
LINE
  8
0
 10
42.5945
 20
4.23102
 11
42.6244
 21
4.33293
  0
LINE
  8
0
 10
42.6244
 20
4.33293
 11
42.6744
 21
4.42546
  0
LINE
  8
0
 10
42.6744
 20
4.42546
 11
42.7443
 21
4.50861
  0
LINE
  8
0
 10
42.7443
 20
4.50861
 11
42.8291
 21
4.57726
  0
LINE
  8
0
 10
42.8291
 20
4.57726
 11
42.9238
 21
4.62628
  0
LINE
  8
0
 10
42.9238
 20
4.62628
 11
43.0283
 21
4.6557
  0
LINE
  8
0
 10
43.0283
 20
4.6557
 11
43.1427
 21
4.66551
  0
LINE
  8
0
 10
43.1427
 20
4.66551
 11
43.258
 21
4.65564
  0
LINE
  8
0
 10
43.258
 20
4.65564
 11
43.3628
 21
4.62601
  0
LINE
  8
0
 10
43.3628
 20
4.62601
 11
43.4572
 21
4.57661
  0
LINE
  8
0
 10
43.4572
 20
4.57661
 11
43.5411
 21
4.50746
  0
LINE
  8
0
 10
43.5411
 20
4.50746
 11
43.61
 21
4.4241
  0
LINE
  8
0
 10
43.61
 20
4.4241
 11
43.6592
 21
4.33208
  0
LINE
  8
0
 10
43.6592
 20
4.33208
 11
43.6887
 21
4.23137
  0
LINE
  8
0
 10
43.6887
 20
4.23137
 11
43.6986
 21
4.12199
  0
LINE
  8
0
 10
43.6986
 20
4.12199
 11
43.6886
 21
4.01064
  0
LINE
  8
0
 10
43.6886
 20
4.01064
 11
43.6586
 21
3.90851
  0
LINE
  8
0
 10
43.6586
 20
3.90851
 11
43.6087
 21
3.81561
  0
LINE
  8
0
 10
43.6087
 20
3.81561
 11
43.5387
 21
3.73196
  0
LINE
  8
0
 10
43.5387
 20
3.73196
 11
43.4539
 21
3.66283
  0
LINE
  8
0
 10
43.4539
 20
3.66283
 11
43.3592
 21
3.61343
  0
LINE
  8
0
 10
43.3592
 20
3.61343
 11
43.2547
 21
3.5838
  0
LINE
  8
0
 10
43.2547
 20
3.5838
 11
43.1403
 21
3.57391
  0
LINE
  8
0
 10
43.1403
 20
3.57391
 11
43.0251
 21
3.58365
  0
LINE
  8
0
 10
24.5714
 20
1.81949
 11
24.7915
 21
1.85722
  0
LINE
  8
0
 10
24.7915
 20
1.85722
 11
25.0002
 21
1.9201
  0
LINE
  8
0
 10
25.0002
 20
1.9201
 11
25.1974
 21
2.00815
  0
LINE
  8
0
 10
25.1974
 20
2.00815
 11
25.3789
 21
2.12051
  0
LINE
  8
0
 10
25.3789
 20
2.12051
 11
25.5406
 21
2.25633
  0
LINE
  8
0
 10
25.5406
 20
2.25633
 11
25.6825
 21
2.41559
  0
LINE
  8
0
 10
25.6825
 20
2.41559
 11
25.8045
 21
2.59831
  0
LINE
  8
0
 10
25.8045
 20
2.59831
 11
25.9026
 21
2.80328
  0
LINE
  8
0
 10
25.9026
 20
2.80328
 11
25.9727
 21
3.02928
  0
LINE
  8
0
 10
25.9727
 20
3.02928
 11
26.0148
 21
3.27631
  0
LINE
  8
0
 10
26.0148
 20
3.27631
 11
26.0288
 21
3.54437
  0
LINE
  8
0
 10
26.0288
 20
3.54437
 11
26.0148
 21
3.81343
  0
LINE
  8
0
 10
26.0148
 20
3.81343
 11
25.9727
 21
4.06117
  0
LINE
  8
0
 10
25.9727
 20
4.06117
 11
25.9026
 21
4.28758
  0
LINE
  8
0
 10
25.9026
 20
4.28758
 11
25.8045
 21
4.49268
  0
LINE
  8
0
 10
25.8045
 20
4.49268
 11
25.6825
 21
4.67548
  0
LINE
  8
0
 10
25.6825
 20
4.67548
 11
25.5406
 21
4.83495
  0
LINE
  8
0
 10
25.5406
 20
4.83495
 11
25.3789
 21
4.97112
  0
LINE
  8
0
 10
25.3789
 20
4.97112
 11
25.1974
 21
5.08398
  0
LINE
  8
0
 10
25.1974
 20
5.08398
 11
25.0002
 21
5.17253
  0
LINE
  8
0
 10
25.0002
 20
5.17253
 11
24.7915
 21
5.23579
  0
LINE
  8
0
 10
24.7915
 20
5.23579
 11
24.5714
 21
5.27374
  0
LINE
  8
0
 10
24.5714
 20
5.27374
 11
24.3398
 21
5.28639
  0
LINE
  8
0
 10
24.3398
 20
5.28639
 11
24.106
 21
5.27374
  0
LINE
  8
0
 10
24.106
 20
5.27374
 11
23.8844
 21
5.23579
  0
LINE
  8
0
 10
23.8844
 20
5.23579
 11
23.6748
 21
5.17253
  0
LINE
  8
0
 10
23.6748
 20
5.17253
 11
23.4773
 21
5.08398
  0
LINE
  8
0
 10
23.4773
 20
5.08398
 11
23.2958
 21
4.97112
  0
LINE
  8
0
 10
23.2958
 20
4.97112
 11
23.1341
 21
4.83495
  0
LINE
  8
0
 10
23.1341
 20
4.83495
 11
22.9922
 21
4.67548
  0
LINE
  8
0
 10
22.9922
 20
4.67548
 11
22.8702
 21
4.49268
  0
LINE
  8
0
 10
22.8702
 20
4.49268
 11
22.7721
 21
4.28758
  0
LINE
  8
0
 10
22.7721
 20
4.28758
 11
22.702
 21
4.06117
  0
LINE
  8
0
 10
22.702
 20
4.06117
 11
22.6599
 21
3.81343
  0
LINE
  8
0
 10
22.6599
 20
3.81343
 11
22.6459
 21
3.54437
  0
LINE
  8
0
 10
22.6459
 20
3.54437
 11
22.6599
 21
3.27728
  0
LINE
  8
0
 10
22.6599
 20
3.27728
 11
22.702
 21
3.03096
  0
LINE
  8
0
 10
22.702
 20
3.03096
 11
22.7721
 21
2.80539
  0
LINE
  8
0
 10
22.7721
 20
2.80539
 11
22.8702
 21
2.60056
  0
LINE
  8
0
 10
22.8702
 20
2.60056
 11
22.9922
 21
2.41779
  0
LINE
  8
0
 10
22.9922
 20
2.41779
 11
23.1341
 21
2.25832
  0
LINE
  8
0
 10
23.1341
 20
2.25832
 11
23.2958
 21
2.12215
  0
LINE
  8
0
 10
23.2958
 20
2.12215
 11
23.4773
 21
2.00929
  0
LINE
  8
0
 10
23.4773
 20
2.00929
 11
23.6748
 21
1.92075
  0
LINE
  8
0
 10
23.6748
 20
1.92075
 11
23.8844
 21
1.85751
  0
LINE
  8
0
 10
23.8844
 20
1.85751
 11
24.106
 21
1.81956
  0
LINE
  8
0
 10
24.106
 20
1.81956
 11
24.3398
 21
1.80692
  0
LINE
  8
0
 10
24.3398
 20
1.80692
 11
24.5714
 21
1.81949
  0
LINE
  8
0
 10
24.1558
 20
2.52846
 11
23.9926
 21
2.57812
  0
LINE
  8
0
 10
23.9926
 20
2.57812
 11
23.8504
 21
2.66092
  0
LINE
  8
0
 10
23.8504
 20
2.66092
 11
23.729
 21
2.77682
  0
LINE
  8
0
 10
23.729
 20
2.77682
 11
23.632
 21
2.92415
  0
LINE
  8
0
 10
23.632
 20
2.92415
 11
23.5626
 21
3.10118
  0
LINE
  8
0
 10
23.5626
 20
3.10118
 11
23.521
 21
3.30792
  0
LINE
  8
0
 10
23.521
 20
3.30792
 11
23.5072
 21
3.54437
  0
LINE
  8
0
 10
23.5072
 20
3.54437
 11
23.521
 21
3.78188
  0
LINE
  8
0
 10
23.521
 20
3.78188
 11
23.5626
 21
3.98953
  0
LINE
  8
0
 10
23.5626
 20
3.98953
 11
23.632
 21
4.16733
  0
LINE
  8
0
 10
23.632
 20
4.16733
 11
23.729
 21
4.31529
  0
LINE
  8
0
 10
23.729
 20
4.31529
 11
23.8504
 21
4.4317
  0
LINE
  8
0
 10
23.8504
 20
4.4317
 11
23.9926
 21
4.51486
  0
LINE
  8
0
 10
23.9926
 20
4.51486
 11
24.1558
 21
4.56474
  0
LINE
  8
0
 10
24.1558
 20
4.56474
 11
24.3398
 21
4.58138
  0
LINE
  8
0
 10
24.3398
 20
4.58138
 11
24.5227
 21
4.56474
  0
LINE
  8
0
 10
24.5227
 20
4.56474
 11
24.6851
 21
4.51486
  0
LINE
  8
0
 10
24.6851
 20
4.51486
 11
24.8269
 21
4.4317
  0
LINE
  8
0
 10
24.8269
 20
4.4317
 11
24.9481
 21
4.31529
  0
LINE
  8
0
 10
24.9481
 20
4.31529
 11
25.0452
 21
4.16733
  0
LINE
  8
0
 10
25.0452
 20
4.16733
 11
25.1145
 21
3.98953
  0
LINE
  8
0
 10
25.1145
 20
3.98953
 11
25.1561
 21
3.78188
  0
LINE
  8
0
 10
25.1561
 20
3.78188
 11
25.17
 21
3.54437
  0
LINE
  8
0
 10
25.17
 20
3.54437
 11
25.1561
 21
3.30792
  0
LINE
  8
0
 10
25.1561
 20
3.30792
 11
25.1145
 21
3.10118
  0
LINE
  8
0
 10
25.1145
 20
3.10118
 11
25.0452
 21
2.92415
  0
LINE
  8
0
 10
25.0452
 20
2.92415
 11
24.9481
 21
2.77682
  0
LINE
  8
0
 10
24.9481
 20
2.77682
 11
24.8269
 21
2.66092
  0
LINE
  8
0
 10
24.8269
 20
2.66092
 11
24.6851
 21
2.57812
  0
LINE
  8
0
 10
24.6851
 20
2.57812
 11
24.5227
 21
2.52846
  0
LINE
  8
0
 10
24.5227
 20
2.52846
 11
24.3398
 21
2.5119
  0
LINE
  8
0
 10
24.3398
 20
2.5119
 11
24.1558
 21
2.52846
  0
LINE
  8
0
 10
37.1593
 20
1.83556
 11
37.4543
 21
1.92148
  0
LINE
  8
0
 10
37.4543
 20
1.92148
 11
37.7098
 21
2.06467
  0
LINE
  8
0
 10
37.7098
 20
2.06467
 11
37.9258
 21
2.26515
  0
LINE
  8
0
 10
37.9258
 20
2.26515
 11
38.0975
 21
2.51695
  0
LINE
  8
0
 10
38.0975
 20
2.51695
 11
38.2201
 21
2.81409
  0
LINE
  8
0
 10
38.2201
 20
2.81409
 11
38.2937
 21
3.15656
  0
LINE
  8
0
 10
38.2937
 20
3.15656
 11
38.3183
 21
3.54437
  0
LINE
  8
0
 10
38.3183
 20
3.54437
 11
38.3071
 21
3.80853
  0
LINE
  8
0
 10
38.3071
 20
3.80853
 11
38.2738
 21
4.05293
  0
LINE
  8
0
 10
38.2738
 20
4.05293
 11
38.2183
 21
4.27757
  0
LINE
  8
0
 10
38.2183
 20
4.27757
 11
38.1405
 21
4.48245
  0
LINE
  8
0
 10
38.1405
 20
4.48245
 11
38.0419
 21
4.66603
  0
LINE
  8
0
 10
38.0419
 20
4.66603
 11
37.9237
 21
4.82671
  0
LINE
  8
0
 10
37.9237
 20
4.82671
 11
37.786
 21
4.96451
  0
LINE
  8
0
 10
37.786
 20
4.96451
 11
37.6288
 21
5.07942
  0
LINE
  8
0
 10
37.6288
 20
5.07942
 11
37.4533
 21
5.16997
  0
LINE
  8
0
 10
37.4533
 20
5.16997
 11
37.2608
 21
5.23465
  0
LINE
  8
0
 10
37.2608
 20
5.23465
 11
37.0513
 21
5.27345
  0
LINE
  8
0
 10
37.0513
 20
5.27345
 11
36.8248
 21
5.28639
  0
LINE
  8
0
 10
36.8248
 20
5.28639
 11
36.4922
 21
5.25768
  0
LINE
  8
0
 10
36.4922
 20
5.25768
 11
36.1983
 21
5.17154
  0
LINE
  8
0
 10
36.1983
 20
5.17154
 11
35.9429
 21
5.02797
  0
LINE
  8
0
 10
35.9429
 20
5.02797
 11
35.7262
 21
4.82698
  0
LINE
  8
0
 10
35.7262
 20
4.82698
 11
35.5535
 21
4.57455
  0
LINE
  8
0
 10
35.5535
 20
4.57455
 11
35.4301
 21
4.27664
  0
LINE
  8
0
 10
35.4301
 20
4.27664
 11
35.3561
 21
3.93324
  0
LINE
  8
0
 10
35.3561
 20
3.93324
 11
35.3314
 21
3.54437
  0
LINE
  8
0
 10
35.3314
 20
3.54437
 11
35.3561
 21
3.15562
  0
LINE
  8
0
 10
35.3561
 20
3.15562
 11
35.4301
 21
2.81265
  0
LINE
  8
0
 10
35.4301
 20
2.81265
 11
35.5535
 21
2.51544
  0
LINE
  8
0
 10
35.5535
 20
2.51544
 11
35.7262
 21
2.26402
  0
LINE
  8
0
 10
35.7262
 20
2.26402
 11
35.9429
 21
2.06403
  0
LINE
  8
0
 10
35.9429
 20
2.06403
 11
36.1983
 21
1.92119
  0
LINE
  8
0
 10
36.1983
 20
1.92119
 11
36.4922
 21
1.83548
  0
LINE
  8
0
 10
36.4922
 20
1.83548
 11
36.8248
 21
1.80692
  0
LINE
  8
0
 10
36.8248
 20
1.80692
 11
37.1593
 21
1.83556
  0
LINE
  8
0
 10
36.6822
 20
2.48163
 11
36.5573
 21
2.53407
  0
LINE
  8
0
 10
36.5573
 20
2.53407
 11
36.4502
 21
2.62148
  0
LINE
  8
0
 10
36.4502
 20
2.62148
 11
36.3608
 21
2.74385
  0
LINE
  8
0
 10
36.3608
 20
2.74385
 11
36.2904
 21
2.89879
  0
LINE
  8
0
 10
36.2904
 20
2.89879
 11
36.24
 21
3.08385
  0
LINE
  8
0
 10
36.24
 20
3.08385
 11
36.2098
 21
3.29904
  0
LINE
  8
0
 10
36.2098
 20
3.29904
 11
36.1998
 21
3.54437
  0
LINE
  8
0
 10
36.1998
 20
3.54437
 11
36.2099
 21
3.79091
  0
LINE
  8
0
 10
36.2099
 20
3.79091
 11
36.2403
 21
4.00745
  0
LINE
  8
0
 10
36.2403
 20
4.00745
 11
36.291
 21
4.194
  0
LINE
  8
0
 10
36.291
 20
4.194
 11
36.362
 21
4.35057
  0
LINE
  8
0
 10
36.362
 20
4.35057
 11
36.4517
 21
4.47443
  0
LINE
  8
0
 10
36.4517
 20
4.47443
 11
36.5588
 21
4.56291
  0
LINE
  8
0
 10
36.5588
 20
4.56291
 11
36.6832
 21
4.616
  0
LINE
  8
0
 10
36.6832
 20
4.616
 11
36.8248
 21
4.63368
  0
LINE
  8
0
 10
36.8248
 20
4.63368
 11
36.9675
 21
4.616
  0
LINE
  8
0
 10
36.9675
 20
4.616
 11
37.0926
 21
4.56291
  0
LINE
  8
0
 10
37.0926
 20
4.56291
 11
37.2001
 21
4.47443
  0
LINE
  8
0
 10
37.2001
 20
4.47443
 11
37.29
 21
4.35057
  0
LINE
  8
0
 10
37.29
 20
4.35057
 11
37.361
 21
4.194
  0
LINE
  8
0
 10
37.361
 20
4.194
 11
37.4117
 21
4.00745
  0
LINE
  8
0
 10
37.4117
 20
4.00745
 11
37.4421
 21
3.79091
  0
LINE
  8
0
 10
37.4421
 20
3.79091
 11
37.4522
 21
3.54437
  0
LINE
  8
0
 10
37.4522
 20
3.54437
 11
37.4421
 21
3.29904
  0
LINE
  8
0
 10
37.4421
 20
3.29904
 11
37.4117
 21
3.08385
  0
LINE
  8
0
 10
37.4117
 20
3.08385
 11
37.361
 21
2.89879
  0
LINE
  8
0
 10
37.361
 20
2.89879
 11
37.29
 21
2.74385
  0
LINE
  8
0
 10
37.29
 20
2.74385
 11
37.2001
 21
2.62148
  0
LINE
  8
0
 10
37.2001
 20
2.62148
 11
37.0926
 21
2.53407
  0
LINE
  8
0
 10
37.0926
 20
2.53407
 11
36.9675
 21
2.48163
  0
LINE
  8
0
 10
36.9675
 20
2.48163
 11
36.8248
 21
2.46414
  0
LINE
  8
0
 10
36.8248
 20
2.46414
 11
36.6822
 21
2.48163
  0
LINE
  8
0
 10
40.2346
 20
1.81502
 11
40.4243
 21
1.83931
  0
LINE
  8
0
 10
40.4243
 20
1.83931
 11
40.602
 21
1.87982
  0
LINE
  8
0
 10
40.602
 20
1.87982
 11
40.7678
 21
1.93652
  0
LINE
  8
0
 10
40.7678
 20
1.93652
 11
40.9189
 21
2.00739
  0
LINE
  8
0
 10
40.9189
 20
2.00739
 11
41.0526
 21
2.09032
  0
LINE
  8
0
 10
41.0526
 20
2.09032
 11
41.1689
 21
2.18533
  0
LINE
  8
0
 10
41.1689
 20
2.18533
 11
41.2676
 21
2.29242
  0
LINE
  8
0
 10
41.2676
 20
2.29242
 11
41.3464
 21
2.40976
  0
LINE
  8
0
 10
41.3464
 20
2.40976
 11
41.4027
 21
2.53548
  0
LINE
  8
0
 10
41.4027
 20
2.53548
 11
41.4365
 21
2.6696
  0
LINE
  8
0
 10
41.4365
 20
2.6696
 11
41.4477
 21
2.81209
  0
LINE
  8
0
 10
41.4477
 20
2.81209
 11
41.4347
 21
2.96246
  0
LINE
  8
0
 10
41.4347
 20
2.96246
 11
41.3956
 21
3.09975
  0
LINE
  8
0
 10
41.3956
 20
3.09975
 11
41.3303
 21
3.22398
  0
LINE
  8
0
 10
41.3303
 20
3.22398
 11
41.239
 21
3.33511
  0
LINE
  8
0
 10
41.239
 20
3.33511
 11
41.1222
 21
3.42966
  0
LINE
  8
0
 10
41.1222
 20
3.42966
 11
40.9805
 21
3.504
  0
LINE
  8
0
 10
40.9805
 20
3.504
 11
40.8138
 21
3.55815
  0
LINE
  8
0
 10
40.8138
 20
3.55815
 11
40.6223
 21
3.59213
  0
LINE
  8
0
 10
40.6223
 20
3.59213
 11
40.6223
 21
3.61714
  0
LINE
  8
0
 10
40.6223
 20
3.61714
 11
40.7691
 21
3.64769
  0
LINE
  8
0
 10
40.7691
 20
3.64769
 11
40.9017
 21
3.69615
  0
LINE
  8
0
 10
40.9017
 20
3.69615
 11
41.0202
 21
3.76253
  0
LINE
  8
0
 10
41.0202
 20
3.76253
 11
41.1245
 21
3.84682
  0
LINE
  8
0
 10
41.1245
 20
3.84682
 11
41.2096
 21
3.94617
  0
LINE
  8
0
 10
41.2096
 20
3.94617
 11
41.2703
 21
4.05775
  0
LINE
  8
0
 10
41.2703
 20
4.05775
 11
41.3068
 21
4.18156
  0
LINE
  8
0
 10
41.3068
 20
4.18156
 11
41.3189
 21
4.3176
  0
LINE
  8
0
 10
41.3189
 20
4.3176
 11
41.3089
 21
4.45169
  0
LINE
  8
0
 10
41.3089
 20
4.45169
 11
41.2787
 21
4.57883
  0
LINE
  8
0
 10
41.2787
 20
4.57883
 11
41.2283
 21
4.69899
  0
LINE
  8
0
 10
41.2283
 20
4.69899
 11
41.1579
 21
4.81219
  0
LINE
  8
0
 10
41.1579
 20
4.81219
 11
41.0695
 21
4.91617
  0
LINE
  8
0
 10
41.0695
 20
4.91617
 11
40.9653
 21
5.00864
  0
LINE
  8
0
 10
40.9653
 20
5.00864
 11
40.8452
 21
5.0896
  0
LINE
  8
0
 10
40.8452
 20
5.0896
 11
40.7094
 21
5.15903
  0
LINE
  8
0
 10
40.7094
 20
5.15903
 11
40.5601
 21
5.21475
  0
LINE
  8
0
 10
40.5601
 20
5.21475
 11
40.3996
 21
5.25456
  0
LINE
  8
0
 10
40.3996
 20
5.25456
 11
40.2279
 21
5.27844
  0
LINE
  8
0
 10
40.2279
 20
5.27844
 11
40.045
 21
5.28639
  0
LINE
  8
0
 10
40.045
 20
5.28639
 11
39.8593
 21
5.27821
  0
LINE
  8
0
 10
39.8593
 20
5.27821
 11
39.6839
 21
5.25371
  0
LINE
  8
0
 10
39.6839
 20
5.25371
 11
39.5187
 21
5.21283
  0
LINE
  8
0
 10
39.5187
 20
5.21283
 11
39.3639
 21
5.15561
  0
LINE
  8
0
 10
39.3639
 20
5.15561
 11
39.2221
 21
5.08405
  0
LINE
  8
0
 10
39.2221
 20
5.08405
 11
39.0961
 21
5.00012
  0
LINE
  8
0
 10
39.0961
 20
5.00012
 11
38.9859
 21
4.90382
  0
LINE
  8
0
 10
38.9859
 20
4.90382
 11
38.8915
 21
4.79515
  0
LINE
  8
0
 10
38.8915
 20
4.79515
 11
38.8157
 21
4.6759
  0
LINE
  8
0
 10
38.8157
 20
4.6759
 11
38.7612
 21
4.54785
  0
LINE
  8
0
 10
38.7612
 20
4.54785
 11
38.728
 21
4.41098
  0
LINE
  8
0
 10
38.728
 20
4.41098
 11
38.7162
 21
4.26529
  0
LINE
  8
0
 10
38.7162
 20
4.26529
 11
39.5249
 21
4.26529
  0
LINE
  8
0
 10
39.5249
 20
4.26529
 11
39.5353
 21
4.34956
  0
LINE
  8
0
 10
39.5353
 20
4.34956
 11
39.5639
 21
4.42502
  0
LINE
  8
0
 10
39.5639
 20
4.42502
 11
39.611
 21
4.49167
  0
LINE
  8
0
 10
39.611
 20
4.49167
 11
39.6764
 21
4.54953
  0
LINE
  8
0
 10
39.6764
 20
4.54953
 11
39.7552
 21
4.5963
  0
LINE
  8
0
 10
39.7552
 20
4.5963
 11
39.8425
 21
4.6297
  0
LINE
  8
0
 10
39.8425
 20
4.6297
 11
39.9383
 21
4.64975
  0
LINE
  8
0
 10
39.9383
 20
4.64975
 11
40.0426
 21
4.65642
  0
LINE
  8
0
 10
40.0426
 20
4.65642
 11
40.1404
 21
4.64967
  0
LINE
  8
0
 10
40.1404
 20
4.64967
 11
40.2287
 21
4.62943
  0
LINE
  8
0
 10
40.2287
 20
4.62943
 11
40.3074
 21
4.59567
  0
LINE
  8
0
 10
40.3074
 20
4.59567
 11
40.3766
 21
4.54842
  0
LINE
  8
0
 10
40.3766
 20
4.54842
 11
40.4329
 21
4.49036
  0
LINE
  8
0
 10
40.4329
 20
4.49036
 11
40.4732
 21
4.42419
  0
LINE
  8
0
 10
40.4732
 20
4.42419
 11
40.4973
 21
4.34993
  0
LINE
  8
0
 10
40.4973
 20
4.34993
 11
40.5054
 21
4.26756
  0
LINE
  8
0
 10
40.5054
 20
4.26756
 11
40.496
 21
4.18192
  0
LINE
  8
0
 10
40.496
 20
4.18192
 11
40.4678
 21
4.10466
  0
LINE
  8
0
 10
40.4678
 20
4.10466
 11
40.4208
 21
4.0358
  0
LINE
  8
0
 10
40.4208
 20
4.0358
 11
40.3551
 21
3.97531
  0
LINE
  8
0
 10
40.3551
 20
3.97531
 11
40.2746
 21
3.92607
  0
LINE
  8
0
 10
40.2746
 20
3.92607
 11
40.1833
 21
3.89088
  0
LINE
  8
0
 10
40.1833
 20
3.89088
 11
40.0813
 21
3.86978
  0
LINE
  8
0
 10
40.0813
 20
3.86978
 11
39.9686
 21
3.86275
  0
LINE
  8
0
 10
39.9686
 20
3.86275
 11
39.6227
 21
3.86275
  0
LINE
  8
0
 10
39.6227
 20
3.86275
 11
39.6227
 21
3.28966
  0
LINE
  8
0
 10
39.6227
 20
3.28966
 11
39.9686
 21
3.28966
  0
LINE
  8
0
 10
39.9686
 20
3.28966
 11
40.0977
 21
3.28239
  0
LINE
  8
0
 10
40.0977
 20
3.28239
 11
40.2132
 21
3.26065
  0
LINE
  8
0
 10
40.2132
 20
3.26065
 11
40.3148
 21
3.22441
  0
LINE
  8
0
 10
40.3148
 20
3.22441
 11
40.4028
 21
3.17366
  0
LINE
  8
0
 10
40.4028
 20
3.17366
 11
40.4738
 21
3.1114
  0
LINE
  8
0
 10
40.4738
 20
3.1114
 11
40.5245
 21
3.04063
  0
LINE
  8
0
 10
40.5245
 20
3.04063
 11
40.5549
 21
2.96133
  0
LINE
  8
0
 10
40.5549
 20
2.96133
 11
40.5651
 21
2.87349
  0
LINE
  8
0
 10
40.5651
 20
2.87349
 11
40.5559
 21
2.7858
  0
LINE
  8
0
 10
40.5559
 20
2.7858
 11
40.5284
 21
2.70691
  0
LINE
  8
0
 10
40.5284
 20
2.70691
 11
40.4825
 21
2.63684
  0
LINE
  8
0
 10
40.4825
 20
2.63684
 11
40.4183
 21
2.57558
  0
LINE
  8
0
 10
40.4183
 20
2.57558
 11
40.3397
 21
2.52583
  0
LINE
  8
0
 10
40.3397
 20
2.52583
 11
40.2504
 21
2.4903
  0
LINE
  8
0
 10
40.2504
 20
2.4903
 11
40.1506
 21
2.46898
  0
LINE
  8
0
 10
40.1506
 20
2.46898
 11
40.0402
 21
2.46187
  0
LINE
  8
0
 10
40.0402
 20
2.46187
 11
39.9282
 21
2.4684
  0
LINE
  8
0
 10
39.9282
 20
2.4684
 11
39.8261
 21
2.48801
  0
LINE
  8
0
 10
39.8261
 20
2.48801
 11
39.7338
 21
2.52069
  0
LINE
  8
0
 10
39.7338
 20
2.52069
 11
39.6514
 21
2.56645
  0
LINE
  8
0
 10
39.6514
 20
2.56645
 11
39.5832
 21
2.62289
  0
LINE
  8
0
 10
39.5832
 20
2.62289
 11
39.5339
 21
2.68756
  0
LINE
  8
0
 10
39.5339
 20
2.68756
 11
39.5033
 21
2.76048
  0
LINE
  8
0
 10
39.5033
 20
2.76048
 11
39.4915
 21
2.84164
  0
LINE
  8
0
 10
39.4915
 20
2.84164
 11
38.647
 21
2.84164
  0
LINE
  8
0
 10
38.647
 20
2.84164
 11
38.6592
 21
2.69376
  0
LINE
  8
0
 10
38.6592
 20
2.69376
 11
38.6935
 21
2.55481
  0
LINE
  8
0
 10
38.6935
 20
2.55481
 11
38.7499
 21
2.42482
  0
LINE
  8
0
 10
38.7499
 20
2.42482
 11
38.8283
 21
2.30379
  0
LINE
  8
0
 10
38.8283
 20
2.30379
 11
38.926
 21
2.19357
  0
LINE
  8
0
 10
38.926
 20
2.19357
 11
39.0403
 21
2.09599
  0
LINE
  8
0
 10
39.0403
 20
2.09599
 11
39.1711
 21
2.01108
  0
LINE
  8
0
 10
39.1711
 20
2.01108
 11
39.3185
 21
1.9388
  0
LINE
  8
0
 10
39.3185
 20
1.9388
 11
39.4799
 21
1.8811
  0
LINE
  8
0
 10
39.4799
 20
1.8811
 11
39.6528
 21
1.83989
  0
LINE
  8
0
 10
39.6528
 20
1.83989
 11
39.8372
 21
1.81516
  0
LINE
  8
0
 10
39.8372
 20
1.81516
 11
40.0331
 21
1.80692
  0
LINE
  8
0
 10
40.0331
 20
1.80692
 11
40.2346
 21
1.81502
  0
LINE
  8
0
 10
31.4202
 20
1.81772
 11
31.6288
 21
1.85013
  0
LINE
  8
0
 10
31.6288
 20
1.85013
 11
31.8246
 21
1.90413
  0
LINE
  8
0
 10
31.8246
 20
1.90413
 11
32.0075
 21
1.97975
  0
LINE
  8
0
 10
32.0075
 20
1.97975
 11
32.1746
 21
2.07562
  0
LINE
  8
0
 10
32.1746
 20
2.07562
 11
32.3228
 21
2.1904
  0
LINE
  8
0
 10
32.3228
 20
2.1904
 11
32.452
 21
2.32407
  0
LINE
  8
0
 10
32.452
 20
2.32407
 11
32.5622
 21
2.47665
  0
LINE
  8
0
 10
32.5622
 20
2.47665
 11
32.6504
 21
2.64671
  0
LINE
  8
0
 10
32.6504
 20
2.64671
 11
32.7134
 21
2.83284
  0
LINE
  8
0
 10
32.7134
 20
2.83284
 11
32.7512
 21
3.03502
  0
LINE
  8
0
 10
32.7512
 20
3.03502
 11
32.7638
 21
3.25327
  0
LINE
  8
0
 10
32.7638
 20
3.25327
 11
32.7638
 21
3.69901
  0
LINE
  8
0
 10
32.7638
 20
3.69901
 11
31.2394
 21
3.69901
  0
LINE
  8
0
 10
31.2394
 20
3.69901
 11
31.2394
 21
3.11002
  0
LINE
  8
0
 10
31.2394
 20
3.11002
 11
31.9503
 21
3.11002
  0
LINE
  8
0
 10
31.9503
 20
3.11002
 11
31.9352
 21
2.97952
  0
LINE
  8
0
 10
31.9352
 20
2.97952
 11
31.8969
 21
2.86325
  0
LINE
  8
0
 10
31.8969
 20
2.86325
 11
31.8355
 21
2.7612
  0
LINE
  8
0
 10
31.8355
 20
2.7612
 11
31.7511
 21
2.67337
  0
LINE
  8
0
 10
31.7511
 20
2.67337
 11
31.645
 21
2.60272
  0
LINE
  8
0
 10
31.645
 20
2.60272
 11
31.5188
 21
2.55226
  0
LINE
  8
0
 10
31.5188
 20
2.55226
 11
31.3724
 21
2.52199
  0
LINE
  8
0
 10
31.3724
 20
2.52199
 11
31.206
 21
2.5119
  0
LINE
  8
0
 10
31.206
 20
2.5119
 11
31.0156
 21
2.52888
  0
LINE
  8
0
 10
31.0156
 20
2.52888
 11
30.8475
 21
2.57983
  0
LINE
  8
0
 10
30.8475
 20
2.57983
 11
30.7018
 21
2.66476
  0
LINE
  8
0
 10
30.7018
 20
2.66476
 11
30.5785
 21
2.78366
  0
LINE
  8
0
 10
30.5785
 20
2.78366
 11
30.4804
 21
2.93353
  0
LINE
  8
0
 10
30.4804
 20
2.93353
 11
30.4103
 21
3.11142
  0
LINE
  8
0
 10
30.4103
 20
3.11142
 11
30.3683
 21
3.31729
  0
LINE
  8
0
 10
30.3683
 20
3.31729
 11
30.3543
 21
3.55118
  0
LINE
  8
0
 10
30.3543
 20
3.55118
 11
30.3687
 21
3.78294
  0
LINE
  8
0
 10
30.3687
 20
3.78294
 11
30.4118
 21
3.98698
  0
LINE
  8
0
 10
30.4118
 20
3.98698
 11
30.4838
 21
4.1633
  0
LINE
  8
0
 10
30.4838
 20
4.1633
 11
30.5845
 21
4.3119
  0
LINE
  8
0
 10
30.5845
 20
4.3119
 11
30.7095
 21
4.42979
  0
LINE
  8
0
 10
30.7095
 20
4.42979
 11
30.8544
 21
4.51401
  0
LINE
  8
0
 10
30.8544
 20
4.51401
 11
31.0191
 21
4.56453
  0
LINE
  8
0
 10
31.0191
 20
4.56453
 11
31.2036
 21
4.58138
  0
LINE
  8
0
 10
31.2036
 20
4.58138
 11
31.3302
 21
4.57405
  0
LINE
  8
0
 10
31.3302
 20
4.57405
 11
31.4454
 21
4.55209
  0
LINE
  8
0
 10
31.4454
 20
4.55209
 11
31.5491
 21
4.51549
  0
LINE
  8
0
 10
31.5491
 20
4.51549
 11
31.6413
 21
4.46425
  0
LINE
  8
0
 10
31.6413
 20
4.46425
 11
31.7207
 21
4.3998
  0
LINE
  8
0
 10
31.7207
 20
4.3998
 11
31.786
 21
4.32355
  0
LINE
  8
0
 10
31.786
 20
4.32355
 11
31.837
 21
4.23549
  0
LINE
  8
0
 10
31.837
 20
4.23549
 11
31.8739
 21
4.13565
  0
LINE
  8
0
 10
31.8739
 20
4.13565
 11
32.7256
 21
4.13565
  0
LINE
  8
0
 10
32.7256
 20
4.13565
 11
32.6936
 21
4.29918
  0
LINE
  8
0
 10
32.6936
 20
4.29918
 11
32.6406
 21
4.45317
  0
LINE
  8
0
 10
32.6406
 20
4.45317
 11
32.5666
 21
4.59766
  0
LINE
  8
0
 10
32.5666
 20
4.59766
 11
32.4715
 21
4.73262
  0
LINE
  8
0
 10
32.4715
 20
4.73262
 11
32.3585
 21
4.85571
  0
LINE
  8
0
 10
32.3585
 20
4.85571
 11
32.2303
 21
4.96458
  0
LINE
  8
0
 10
32.2303
 20
4.96458
 11
32.0871
 21
5.05923
  0
LINE
  8
0
 10
32.0871
 20
5.05923
 11
31.9288
 21
5.13968
  0
LINE
  8
0
 10
31.9288
 20
5.13968
 11
31.7582
 21
5.20387
  0
LINE
  8
0
 10
31.7582
 20
5.20387
 11
31.5781
 21
5.24971
  0
LINE
  8
0
 10
31.5781
 20
5.24971
 11
31.3885
 21
5.27722
  0
LINE
  8
0
 10
31.3885
 20
5.27722
 11
31.1893
 21
5.28639
  0
LINE
  8
0
 10
31.1893
 20
5.28639
 11
30.9576
 21
5.27353
  0
LINE
  8
0
 10
30.9576
 20
5.27353
 11
30.7372
 21
5.23494
  0
LINE
  8
0
 10
30.7372
 20
5.23494
 11
30.5281
 21
5.17061
  0
LINE
  8
0
 10
30.5281
 20
5.17061
 11
30.3304
 21
5.08057
  0
LINE
  8
0
 10
30.3304
 20
5.08057
 11
30.1482
 21
4.96614
  0
LINE
  8
0
 10
30.1482
 20
4.96614
 11
29.9857
 21
4.8287
  0
LINE
  8
0
 10
29.9857
 20
4.8287
 11
29.8428
 21
4.66823
  0
LINE
  8
0
 10
29.8428
 20
4.66823
 11
29.7197
 21
4.48473
  0
LINE
  8
0
 10
29.7197
 20
4.48473
 11
29.6205
 21
4.27942
  0
LINE
  8
0
 10
29.6205
 20
4.27942
 11
29.5497
 21
4.05348
  0
LINE
  8
0
 10
29.5497
 20
4.05348
 11
29.5072
 21
3.80695
  0
LINE
  8
0
 10
29.5072
 20
3.80695
 11
29.4931
 21
3.53981
  0
LINE
  8
0
 10
29.4931
 20
3.53981
 11
29.5065
 21
3.28169
  0
LINE
  8
0
 10
29.5065
 20
3.28169
 11
29.5467
 21
3.04176
  0
LINE
  8
0
 10
29.5467
 20
3.04176
 11
29.6138
 21
2.82004
  0
LINE
  8
0
 10
29.6138
 20
2.82004
 11
29.7077
 21
2.61649
  0
LINE
  8
0
 10
29.7077
 20
2.61649
 11
29.8257
 21
2.43321
  0
LINE
  8
0
 10
29.8257
 20
2.43321
 11
29.9648
 21
2.27225
  0
LINE
  8
0
 10
29.9648
 20
2.27225
 11
30.1251
 21
2.13361
  0
LINE
  8
0
 10
30.1251
 20
2.13361
 11
30.3065
 21
2.01727
  0
LINE
  8
0
 10
30.3065
 20
2.01727
 11
30.5064
 21
1.92525
  0
LINE
  8
0
 10
30.5064
 20
1.92525
 11
30.7217
 21
1.85951
  0
LINE
  8
0
 10
30.7217
 20
1.85951
 11
30.9525
 21
1.82007
  0
LINE
  8
0
 10
30.9525
 20
1.82007
 11
31.1988
 21
1.80692
  0
LINE
  8
0
 10
31.1988
 20
1.80692
 11
31.4202
 21
1.81772
  0
LINE
  8
0
 10
53.4559
 20
1.83556
 11
53.7509
 21
1.92148
  0
LINE
  8
0
 10
53.7509
 20
1.92148
 11
54.0064
 21
2.06467
  0
LINE
  8
0
 10
54.0064
 20
2.06467
 11
54.2224
 21
2.26515
  0
LINE
  8
0
 10
54.2224
 20
2.26515
 11
54.3941
 21
2.51695
  0
LINE
  8
0
 10
54.3941
 20
2.51695
 11
54.5167
 21
2.81409
  0
LINE
  8
0
 10
54.5167
 20
2.81409
 11
54.5903
 21
3.15656
  0
LINE
  8
0
 10
54.5903
 20
3.15656
 11
54.6149
 21
3.54437
  0
LINE
  8
0
 10
54.6149
 20
3.54437
 11
54.6037
 21
3.80853
  0
LINE
  8
0
 10
54.6037
 20
3.80853
 11
54.5704
 21
4.05293
  0
LINE
  8
0
 10
54.5704
 20
4.05293
 11
54.5149
 21
4.27757
  0
LINE
  8
0
 10
54.5149
 20
4.27757
 11
54.4371
 21
4.48245
  0
LINE
  8
0
 10
54.4371
 20
4.48245
 11
54.3385
 21
4.66603
  0
LINE
  8
0
 10
54.3385
 20
4.66603
 11
54.2203
 21
4.82671
  0
LINE
  8
0
 10
54.2203
 20
4.82671
 11
54.0826
 21
4.96451
  0
LINE
  8
0
 10
54.0826
 20
4.96451
 11
53.9254
 21
5.07942
  0
LINE
  8
0
 10
53.9254
 20
5.07942
 11
53.7499
 21
5.16997
  0
LINE
  8
0
 10
53.7499
 20
5.16997
 11
53.5574
 21
5.23465
  0
LINE
  8
0
 10
53.5574
 20
5.23465
 11
53.3479
 21
5.27345
  0
LINE
  8
0
 10
53.3479
 20
5.27345
 11
53.1214
 21
5.28639
  0
LINE
  8
0
 10
53.1214
 20
5.28639
 11
52.7888
 21
5.25768
  0
LINE
  8
0
 10
52.7888
 20
5.25768
 11
52.4949
 21
5.17154
  0
LINE
  8
0
 10
52.4949
 20
5.17154
 11
52.2395
 21
5.02797
  0
LINE
  8
0
 10
52.2395
 20
5.02797
 11
52.0228
 21
4.82698
  0
LINE
  8
0
 10
52.0228
 20
4.82698
 11
51.8501
 21
4.57455
  0
LINE
  8
0
 10
51.8501
 20
4.57455
 11
51.7267
 21
4.27664
  0
LINE
  8
0
 10
51.7267
 20
4.27664
 11
51.6527
 21
3.93324
  0
LINE
  8
0
 10
51.6527
 20
3.93324
 11
51.628
 21
3.54437
  0
LINE
  8
0
 10
51.628
 20
3.54437
 11
51.6527
 21
3.15562
  0
LINE
  8
0
 10
51.6527
 20
3.15562
 11
51.7267
 21
2.81265
  0
LINE
  8
0
 10
51.7267
 20
2.81265
 11
51.8501
 21
2.51544
  0
LINE
  8
0
 10
51.8501
 20
2.51544
 11
52.0228
 21
2.26402
  0
LINE
  8
0
 10
52.0228
 20
2.26402
 11
52.2395
 21
2.06403
  0
LINE
  8
0
 10
52.2395
 20
2.06403
 11
52.4949
 21
1.92119
  0
LINE
  8
0
 10
52.4949
 20
1.92119
 11
52.7888
 21
1.83548
  0
LINE
  8
0
 10
52.7888
 20
1.83548
 11
53.1214
 21
1.80692
  0
LINE
  8
0
 10
53.1214
 20
1.80692
 11
53.4559
 21
1.83556
  0
LINE
  8
0
 10
52.9788
 20
2.48163
 11
52.8539
 21
2.53407
  0
LINE
  8
0
 10
52.8539
 20
2.53407
 11
52.7468
 21
2.62148
  0
LINE
  8
0
 10
52.7468
 20
2.62148
 11
52.6574
 21
2.74385
  0
LINE
  8
0
 10
52.6574
 20
2.74385
 11
52.587
 21
2.89879
  0
LINE
  8
0
 10
52.587
 20
2.89879
 11
52.5366
 21
3.08385
  0
LINE
  8
0
 10
52.5366
 20
3.08385
 11
52.5064
 21
3.29904
  0
LINE
  8
0
 10
52.5064
 20
3.29904
 11
52.4964
 21
3.54437
  0
LINE
  8
0
 10
52.4964
 20
3.54437
 11
52.5065
 21
3.79091
  0
LINE
  8
0
 10
52.5065
 20
3.79091
 11
52.5369
 21
4.00745
  0
LINE
  8
0
 10
52.5369
 20
4.00745
 11
52.5876
 21
4.194
  0
LINE
  8
0
 10
52.5876
 20
4.194
 11
52.6586
 21
4.35057
  0
LINE
  8
0
 10
52.6586
 20
4.35057
 11
52.7483
 21
4.47443
  0
LINE
  8
0
 10
52.7483
 20
4.47443
 11
52.8554
 21
4.56291
  0
LINE
  8
0
 10
52.8554
 20
4.56291
 11
52.9798
 21
4.616
  0
LINE
  8
0
 10
52.9798
 20
4.616
 11
53.1214
 21
4.63368
  0
LINE
  8
0
 10
53.1214
 20
4.63368
 11
53.2641
 21
4.616
  0
LINE
  8
0
 10
53.2641
 20
4.616
 11
53.3892
 21
4.56291
  0
LINE
  8
0
 10
53.3892
 20
4.56291
 11
53.4967
 21
4.47443
  0
LINE
  8
0
 10
53.4967
 20
4.47443
 11
53.5866
 21
4.35057
  0
LINE
  8
0
 10
53.5866
 20
4.35057
 11
53.6576
 21
4.194
  0
LINE
  8
0
 10
53.6576
 20
4.194
 11
53.7083
 21
4.00745
  0
LINE
  8
0
 10
53.7083
 20
4.00745
 11
53.7387
 21
3.79091
  0
LINE
  8
0
 10
53.7387
 20
3.79091
 11
53.7488
 21
3.54437
  0
LINE
  8
0
 10
53.7488
 20
3.54437
 11
53.7387
 21
3.29904
  0
LINE
  8
0
 10
53.7387
 20
3.29904
 11
53.7083
 21
3.08385
  0
LINE
  8
0
 10
53.7083
 20
3.08385
 11
53.6576
 21
2.89879
  0
LINE
  8
0
 10
53.6576
 20
2.89879
 11
53.5866
 21
2.74385
  0
LINE
  8
0
 10
53.5866
 20
2.74385
 11
53.4967
 21
2.62148
  0
LINE
  8
0
 10
53.4967
 20
2.62148
 11
53.3892
 21
2.53407
  0
LINE
  8
0
 10
53.3892
 20
2.53407
 11
53.2641
 21
2.48163
  0
LINE
  8
0
 10
53.2641
 20
2.48163
 11
53.1214
 21
2.46414
  0
LINE
  8
0
 10
53.1214
 20
2.46414
 11
52.9788
 21
2.48163
  0
LINE
  8
0
 10
61.4959
 20
1.83556
 11
61.7909
 21
1.92148
  0
LINE
  8
0
 10
61.7909
 20
1.92148
 11
62.0464
 21
2.06467
  0
LINE
  8
0
 10
62.0464
 20
2.06467
 11
62.2624
 21
2.26515
  0
LINE
  8
0
 10
62.2624
 20
2.26515
 11
62.4341
 21
2.51695
  0
LINE
  8
0
 10
62.4341
 20
2.51695
 11
62.5567
 21
2.81409
  0
LINE
  8
0
 10
62.5567
 20
2.81409
 11
62.6303
 21
3.15656
  0
LINE
  8
0
 10
62.6303
 20
3.15656
 11
62.6548
 21
3.54437
  0
LINE
  8
0
 10
62.6548
 20
3.54437
 11
62.6437
 21
3.80853
  0
LINE
  8
0
 10
62.6437
 20
3.80853
 11
62.6104
 21
4.05293
  0
LINE
  8
0
 10
62.6104
 20
4.05293
 11
62.5549
 21
4.27757
  0
LINE
  8
0
 10
62.5549
 20
4.27757
 11
62.4771
 21
4.48245
  0
LINE
  8
0
 10
62.4771
 20
4.48245
 11
62.3785
 21
4.66603
  0
LINE
  8
0
 10
62.3785
 20
4.66603
 11
62.2603
 21
4.82671
  0
LINE
  8
0
 10
62.2603
 20
4.82671
 11
62.1226
 21
4.96451
  0
LINE
  8
0
 10
62.1226
 20
4.96451
 11
61.9653
 21
5.07942
  0
LINE
  8
0
 10
61.9653
 20
5.07942
 11
61.7899
 21
5.16997
  0
LINE
  8
0
 10
61.7899
 20
5.16997
 11
61.5974
 21
5.23465
  0
LINE
  8
0
 10
61.5974
 20
5.23465
 11
61.3879
 21
5.27345
  0
LINE
  8
0
 10
61.3879
 20
5.27345
 11
61.1614
 21
5.28639
  0
LINE
  8
0
 10
61.1614
 20
5.28639
 11
60.8288
 21
5.25768
  0
LINE
  8
0
 10
60.8288
 20
5.25768
 11
60.5349
 21
5.17154
  0
LINE
  8
0
 10
60.5349
 20
5.17154
 11
60.2795
 21
5.02797
  0
LINE
  8
0
 10
60.2795
 20
5.02797
 11
60.0628
 21
4.82698
  0
LINE
  8
0
 10
60.0628
 20
4.82698
 11
59.8901
 21
4.57455
  0
LINE
  8
0
 10
59.8901
 20
4.57455
 11
59.7667
 21
4.27664
  0
LINE
  8
0
 10
59.7667
 20
4.27664
 11
59.6927
 21
3.93324
  0
LINE
  8
0
 10
59.6927
 20
3.93324
 11
59.668
 21
3.54437
  0
LINE
  8
0
 10
59.668
 20
3.54437
 11
59.6927
 21
3.15562
  0
LINE
  8
0
 10
59.6927
 20
3.15562
 11
59.7667
 21
2.81265
  0
LINE
  8
0
 10
59.7667
 20
2.81265
 11
59.8901
 21
2.51544
  0
LINE
  8
0
 10
59.8901
 20
2.51544
 11
60.0628
 21
2.26402
  0
LINE
  8
0
 10
60.0628
 20
2.26402
 11
60.2795
 21
2.06403
  0
LINE
  8
0
 10
60.2795
 20
2.06403
 11
60.5349
 21
1.92119
  0
LINE
  8
0
 10
60.5349
 20
1.92119
 11
60.8288
 21
1.83548
  0
LINE
  8
0
 10
60.8288
 20
1.83548
 11
61.1614
 21
1.80692
  0
LINE
  8
0
 10
61.1614
 20
1.80692
 11
61.4959
 21
1.83556
  0
LINE
  8
0
 10
61.0188
 20
2.48163
 11
60.8939
 21
2.53407
  0
LINE
  8
0
 10
60.8939
 20
2.53407
 11
60.7868
 21
2.62148
  0
LINE
  8
0
 10
60.7868
 20
2.62148
 11
60.6974
 21
2.74385
  0
LINE
  8
0
 10
60.6974
 20
2.74385
 11
60.6269
 21
2.89879
  0
LINE
  8
0
 10
60.6269
 20
2.89879
 11
60.5766
 21
3.08385
  0
LINE
  8
0
 10
60.5766
 20
3.08385
 11
60.5464
 21
3.29904
  0
LINE
  8
0
 10
60.5464
 20
3.29904
 11
60.5363
 21
3.54437
  0
LINE
  8
0
 10
60.5363
 20
3.54437
 11
60.5465
 21
3.79091
  0
LINE
  8
0
 10
60.5465
 20
3.79091
 11
60.5769
 21
4.00745
  0
LINE
  8
0
 10
60.5769
 20
4.00745
 11
60.6276
 21
4.194
  0
LINE
  8
0
 10
60.6276
 20
4.194
 11
60.6986
 21
4.35057
  0
LINE
  8
0
 10
60.6986
 20
4.35057
 11
60.7883
 21
4.47443
  0
LINE
  8
0
 10
60.7883
 20
4.47443
 11
60.8954
 21
4.56291
  0
LINE
  8
0
 10
60.8954
 20
4.56291
 11
61.0197
 21
4.616
  0
LINE
  8
0
 10
61.0197
 20
4.616
 11
61.1614
 21
4.63368
  0
LINE
  8
0
 10
61.1614
 20
4.63368
 11
61.3041
 21
4.616
  0
LINE
  8
0
 10
61.3041
 20
4.616
 11
61.4292
 21
4.56291
  0
LINE
  8
0
 10
61.4292
 20
4.56291
 11
61.5367
 21
4.47443
  0
LINE
  8
0
 10
61.5367
 20
4.47443
 11
61.6266
 21
4.35057
  0
LINE
  8
0
 10
61.6266
 20
4.35057
 11
61.6976
 21
4.194
  0
LINE
  8
0
 10
61.6976
 20
4.194
 11
61.7483
 21
4.00745
  0
LINE
  8
0
 10
61.7483
 20
4.00745
 11
61.7787
 21
3.79091
  0
LINE
  8
0
 10
61.7787
 20
3.79091
 11
61.7888
 21
3.54437
  0
LINE
  8
0
 10
61.7888
 20
3.54437
 11
61.7787
 21
3.29904
  0
LINE
  8
0
 10
61.7787
 20
3.29904
 11
61.7483
 21
3.08385
  0
LINE
  8
0
 10
61.7483
 20
3.08385
 11
61.6976
 21
2.89879
  0
LINE
  8
0
 10
61.6976
 20
2.89879
 11
61.6266
 21
2.74385
  0
LINE
  8
0
 10
61.6266
 20
2.74385
 11
61.5367
 21
2.62148
  0
LINE
  8
0
 10
61.5367
 20
2.62148
 11
61.4292
 21
2.53407
  0
LINE
  8
0
 10
61.4292
 20
2.53407
 11
61.3041
 21
2.48163
  0
LINE
  8
0
 10
61.3041
 20
2.48163
 11
61.1614
 21
2.46414
  0
LINE
  8
0
 10
61.1614
 20
2.46414
 11
61.0188
 21
2.48163
  0
LINE
  8
0
 10
66.4074
 20
1.8246
 11
66.537
 21
1.8504
  0
LINE
  8
0
 10
66.537
 20
1.8504
 11
66.6513
 21
1.8934
  0
LINE
  8
0
 10
66.6513
 20
1.8934
 11
66.7502
 21
1.9536
  0
LINE
  8
0
 10
66.7502
 20
1.9536
 11
66.835
 21
2.02458
  0
LINE
  8
0
 10
66.835
 20
2.02458
 11
66.9068
 21
2.09999
  0
LINE
  8
0
 10
66.9068
 20
2.09999
 11
66.9656
 21
2.17981
  0
LINE
  8
0
 10
66.9656
 20
2.17981
 11
67.0114
 21
2.26402
  0
LINE
  8
0
 10
67.0114
 20
2.26402
 11
67.0401
 21
2.26402
  0
LINE
  8
0
 10
67.0401
 20
2.26402
 11
67.0401
 21
1.85239
  0
LINE
  8
0
 10
67.0401
 20
1.85239
 11
67.8607
 21
1.85239
  0
LINE
  8
0
 10
67.8607
 20
1.85239
 11
67.8607
 21
5.24089
  0
LINE
  8
0
 10
67.8607
 20
5.24089
 11
67.0305
 21
5.24089
  0
LINE
  8
0
 10
67.0305
 20
5.24089
 11
67.0305
 21
3.95825
  0
LINE
  8
0
 10
67.0305
 20
3.95825
 11
67.0114
 21
3.95825
  0
LINE
  8
0
 10
67.0114
 20
3.95825
 11
66.9835
 21
4.01476
  0
LINE
  8
0
 10
66.9835
 20
4.01476
 11
66.9497
 21
4.07054
  0
LINE
  8
0
 10
66.9497
 20
4.07054
 11
66.9101
 21
4.12561
  0
LINE
  8
0
 10
66.9101
 20
4.12561
 11
66.8647
 21
4.17998
  0
LINE
  8
0
 10
66.8647
 20
4.17998
 11
66.8131
 21
4.23158
  0
LINE
  8
0
 10
66.8131
 20
4.23158
 11
66.7547
 21
4.27835
  0
LINE
  8
0
 10
66.7547
 20
4.27835
 11
66.6896
 21
4.32028
  0
LINE
  8
0
 10
66.6896
 20
4.32028
 11
66.6178
 21
4.35738
  0
LINE
  8
0
 10
66.6178
 20
4.35738
 11
66.5388
 21
4.38773
  0
LINE
  8
0
 10
66.5388
 20
4.38773
 11
66.452
 21
4.40941
  0
LINE
  8
0
 10
66.452
 20
4.40941
 11
66.3575
 21
4.42241
  0
LINE
  8
0
 10
66.3575
 20
4.42241
 11
66.2552
 21
4.42676
  0
LINE
  8
0
 10
66.2552
 20
4.42676
 11
66.118
 21
4.41794
  0
LINE
  8
0
 10
66.118
 20
4.41794
 11
65.9853
 21
4.39149
  0
LINE
  8
0
 10
65.9853
 20
4.39149
 11
65.8573
 21
4.34744
  0
LINE
  8
0
 10
65.8573
 20
4.34744
 11
65.7339
 21
4.28574
  0
LINE
  8
0
 10
65.7339
 20
4.28574
 11
65.6187
 21
4.20599
  0
LINE
  8
0
 10
65.6187
 20
4.20599
 11
65.515
 21
4.10777
  0
LINE
  8
0
 10
65.515
 20
4.10777
 11
65.423
 21
3.99107
  0
LINE
  8
0
 10
65.423
 20
3.99107
 11
65.3427
 21
3.85591
  0
LINE
  8
0
 10
65.3427
 20
3.85591
 11
65.2775
 21
3.70169
  0
LINE
  8
0
 10
65.2775
 20
3.70169
 11
65.2309
 21
3.52788
  0
LINE
  8
0
 10
65.2309
 20
3.52788
 11
65.2029
 21
3.33443
  0
LINE
  8
0
 10
65.2029
 20
3.33443
 11
65.1936
 21
3.12138
  0
LINE
  8
0
 10
65.1936
 20
3.12138
 11
65.2025
 21
2.91422
  0
LINE
  8
0
 10
65.2025
 20
2.91422
 11
65.2294
 21
2.72482
  0
LINE
  8
0
 10
65.2294
 20
2.72482
 11
65.2741
 21
2.55319
  0
LINE
  8
0
 10
65.2741
 20
2.55319
 11
65.3367
 21
2.39932
  0
LINE
  8
0
 10
65.3367
 20
2.39932
 11
65.4146
 21
2.26329
  0
LINE
  8
0
 10
65.4146
 20
2.26329
 11
65.5049
 21
2.14519
  0
LINE
  8
0
 10
65.5049
 20
2.14519
 11
65.6078
 21
2.04497
  0
LINE
  8
0
 10
65.6078
 20
2.04497
 11
65.7232
 21
1.96268
  0
LINE
  8
0
 10
65.7232
 20
1.96268
 11
65.8481
 21
1.89851
  0
LINE
  8
0
 10
65.8481
 20
1.89851
 11
65.9797
 21
1.85268
  0
LINE
  8
0
 10
65.9797
 20
1.85268
 11
66.1177
 21
1.82516
  0
LINE
  8
0
 10
66.1177
 20
1.82516
 11
66.2624
 21
1.81601
  0
LINE
  8
0
 10
66.2624
 20
1.81601
 11
66.4074
 21
1.8246
  0
LINE
  8
0
 10
66.4329
 20
2.44637
 11
66.3336
 21
2.48177
  0
LINE
  8
0
 10
66.3336
 20
2.48177
 11
66.2486
 21
2.54074
  0
LINE
  8
0
 10
66.2486
 20
2.54074
 11
66.1777
 21
2.62334
  0
LINE
  8
0
 10
66.1777
 20
2.62334
 11
66.1218
 21
2.72525
  0
LINE
  8
0
 10
66.1218
 20
2.72525
 11
66.0819
 21
2.84222
  0
LINE
  8
0
 10
66.0819
 20
2.84222
 11
66.058
 21
2.97427
  0
LINE
  8
0
 10
66.058
 20
2.97427
 11
66.05
 21
3.12138
  0
LINE
  8
0
 10
66.05
 20
3.12138
 11
66.058
 21
3.26842
  0
LINE
  8
0
 10
66.058
 20
3.26842
 11
66.0819
 21
3.40025
  0
LINE
  8
0
 10
66.0819
 20
3.40025
 11
66.1218
 21
3.51686
  0
LINE
  8
0
 10
66.1218
 20
3.51686
 11
66.1777
 21
3.61829
  0
LINE
  8
0
 10
66.1777
 20
3.61829
 11
66.2486
 21
3.70036
  0
LINE
  8
0
 10
66.2486
 20
3.70036
 11
66.3336
 21
3.759
  0
LINE
  8
0
 10
66.3336
 20
3.759
 11
66.4329
 21
3.79417
  0
LINE
  8
0
 10
66.4329
 20
3.79417
 11
66.5463
 21
3.80591
  0
LINE
  8
0
 10
66.5463
 20
3.80591
 11
66.6589
 21
3.79439
  0
LINE
  8
0
 10
66.6589
 20
3.79439
 11
66.7583
 21
3.75984
  0
LINE
  8
0
 10
66.7583
 20
3.75984
 11
66.8444
 21
3.70227
  0
LINE
  8
0
 10
66.8444
 20
3.70227
 11
66.9172
 21
3.62167
  0
LINE
  8
0
 10
66.9172
 20
3.62167
 11
66.9751
 21
3.52133
  0
LINE
  8
0
 10
66.9751
 20
3.52133
 11
67.0165
 21
3.4045
  0
LINE
  8
0
 10
67.0165
 20
3.4045
 11
67.0413
 21
3.27118
  0
LINE
  8
0
 10
67.0413
 20
3.27118
 11
67.0496
 21
3.12138
  0
LINE
  8
0
 10
67.0496
 20
3.12138
 11
67.0413
 21
2.97334
  0
LINE
  8
0
 10
67.0413
 20
2.97334
 11
67.0162
 21
2.84081
  0
LINE
  8
0
 10
67.0162
 20
2.84081
 11
66.9745
 21
2.72375
  0
LINE
  8
0
 10
66.9745
 20
2.72375
 11
66.916
 21
2.62219
  0
LINE
  8
0
 10
66.916
 20
2.62219
 11
66.8428
 21
2.5401
  0
LINE
  8
0
 10
66.8428
 20
2.5401
 11
66.7568
 21
2.48148
  0
LINE
  8
0
 10
66.7568
 20
2.48148
 11
66.6579
 21
2.44629
  0
LINE
  8
0
 10
66.6579
 20
2.44629
 11
66.5463
 21
2.43457
  0
LINE
  8
0
 10
66.5463
 20
2.43457
 11
66.4329
 21
2.44637
  0
LINE
  8
0
 10
12.3213
 20
3.31239
 11
12.3209
 21
3.38083
  0
LINE
  8
0
 10
12.3209
 20
3.38083
 11
12.3197
 21
3.45879
  0
LINE
  8
0
 10
12.3197
 20
3.45879
 11
12.3179
 21
3.54626
  0
LINE
  8
0
 10
12.3179
 20
3.54626
 11
12.3153
 21
3.64326
  0
LINE
  8
0
 10
12.3153
 20
3.64326
 11
12.309
 21
3.85506
  0
LINE
  8
0
 10
12.309
 20
3.85506
 11
12.3022
 21
4.08333
  0
LINE
  8
0
 10
12.3022
 20
4.08333
 11
12.2987
 21
4.20073
  0
LINE
  8
0
 10
12.2987
 20
4.20073
 11
12.2956
 21
4.31644
  0
LINE
  8
0
 10
12.2956
 20
4.31644
 11
12.2928
 21
4.43042
  0
LINE
  8
0
 10
12.2928
 20
4.43042
 11
12.2902
 21
4.54271
  0
LINE
  8
0
 10
12.2902
 20
4.54271
 11
12.3204
 21
4.42354
  0
LINE
  8
0
 10
12.3204
 20
4.42354
 11
12.3514
 21
4.30479
  0
LINE
  8
0
 10
12.3514
 20
4.30479
 11
12.3831
 21
4.18648
  0
LINE
  8
0
 10
12.3831
 20
4.18648
 11
12.4155
 21
4.06857
  0
LINE
  8
0
 10
12.4155
 20
4.06857
 11
12.4479
 21
3.95323
  0
LINE
  8
0
 10
12.4479
 20
3.95323
 11
12.4796
 21
3.84258
  0
LINE
  8
0
 10
12.4796
 20
3.84258
 11
12.5105
 21
3.7366
  0
LINE
  8
0
 10
12.5105
 20
3.7366
 11
12.5407
 21
3.63531
  0
LINE
  8
0
 10
12.5407
 20
3.63531
 11
12.5694
 21
3.54094
  0
LINE
  8
0
 10
12.5694
 20
3.54094
 11
12.5956
 21
3.45566
  0
LINE
  8
0
 10
12.5956
 20
3.45566
 11
12.6195
 21
3.37947
  0
LINE
  8
0
 10
12.6195
 20
3.37947
 11
12.6409
 21
3.31239
  0
LINE
  8
0
 10
12.6409
 20
3.31239
 11
13.1538
 21
1.85239
  0
LINE
  8
0
 10
13.1538
 20
1.85239
 11
13.8576
 21
1.85239
  0
LINE
  8
0
 10
13.8576
 20
1.85239
 11
14.3634
 21
3.31239
  0
LINE
  8
0
 10
14.3634
 20
3.31239
 11
14.3859
 21
3.38196
  0
LINE
  8
0
 10
14.3859
 20
3.38196
 11
14.4105
 21
3.46106
  0
LINE
  8
0
 10
14.4105
 20
3.46106
 11
14.4372
 21
3.54968
  0
LINE
  8
0
 10
14.4372
 20
3.54968
 11
14.4659
 21
3.64783
  0
LINE
  8
0
 10
14.4659
 20
3.64783
 11
14.4962
 21
3.75308
  0
LINE
  8
0
 10
14.4962
 20
3.75308
 11
14.5271
 21
3.86304
  0
LINE
  8
0
 10
14.5271
 20
3.86304
 11
14.5588
 21
3.97766
  0
LINE
  8
0
 10
14.5588
 20
3.97766
 11
14.5912
 21
4.09698
  0
LINE
  8
0
 10
14.5912
 20
4.09698
 11
14.6236
 21
4.21851
  0
LINE
  8
0
 10
14.6236
 20
4.21851
 11
14.6553
 21
4.33975
  0
LINE
  8
0
 10
14.6553
 20
4.33975
 11
14.6863
 21
4.46071
  0
LINE
  8
0
 10
14.6863
 20
4.46071
 11
14.7164
 21
4.58138
  0
LINE
  8
0
 10
14.7164
 20
4.58138
 11
14.7139
 21
4.46654
  0
LINE
  8
0
 10
14.7139
 20
4.46654
 11
14.7111
 21
4.34943
  0
LINE
  8
0
 10
14.7111
 20
4.34943
 11
14.7079
 21
4.23003
  0
LINE
  8
0
 10
14.7079
 20
4.23003
 11
14.7045
 21
4.10835
  0
LINE
  8
0
 10
14.7045
 20
4.10835
 11
14.6977
 21
3.87155
  0
LINE
  8
0
 10
14.6977
 20
3.87155
 11
14.6914
 21
3.65239
  0
LINE
  8
0
 10
14.6914
 20
3.65239
 11
14.6888
 21
3.55226
  0
LINE
  8
0
 10
14.6888
 20
3.55226
 11
14.6869
 21
3.4622
  0
LINE
  8
0
 10
14.6869
 20
3.4622
 11
14.6858
 21
3.38225
  0
LINE
  8
0
 10
14.6858
 20
3.38225
 11
14.6854
 21
3.31239
  0
LINE
  8
0
 10
14.6854
 20
3.31239
 11
14.6854
 21
1.85239
  0
LINE
  8
0
 10
14.6854
 20
1.85239
 11
15.5323
 21
1.85239
  0
LINE
  8
0
 10
15.5323
 20
1.85239
 11
15.5323
 21
5.24089
  0
LINE
  8
0
 10
15.5323
 20
5.24089
 11
14.2178
 21
5.24089
  0
LINE
  8
0
 10
14.2178
 20
5.24089
 11
13.7717
 21
3.92186
  0
LINE
  8
0
 10
13.7717
 20
3.92186
 11
13.7532
 21
3.85941
  0
LINE
  8
0
 10
13.7532
 20
3.85941
 11
13.7333
 21
3.78799
  0
LINE
  8
0
 10
13.7333
 20
3.78799
 11
13.712
 21
3.70761
  0
LINE
  8
0
 10
13.712
 20
3.70761
 11
13.6894
 21
3.61829
  0
LINE
  8
0
 10
13.6894
 20
3.61829
 11
13.6662
 21
3.52277
  0
LINE
  8
0
 10
13.6662
 20
3.52277
 11
13.6429
 21
3.42384
  0
LINE
  8
0
 10
13.6429
 20
3.42384
 11
13.6197
 21
3.32149
  0
LINE
  8
0
 10
13.6197
 20
3.32149
 11
13.5964
 21
3.21574
  0
LINE
  8
0
 10
13.5964
 20
3.21574
 11
13.5735
 21
3.10907
  0
LINE
  8
0
 10
13.5735
 20
3.10907
 11
13.5514
 21
3.00398
  0
LINE
  8
0
 10
13.5514
 20
3.00398
 11
13.53
 21
2.90044
  0
LINE
  8
0
 10
13.53
 20
2.90044
 11
13.5093
 21
2.79845
  0
LINE
  8
0
 10
13.5093
 20
2.79845
 11
13.4875
 21
2.9005
  0
LINE
  8
0
 10
13.4875
 20
2.9005
 11
13.4652
 21
3.00426
  0
LINE
  8
0
 10
13.4652
 20
3.00426
 11
13.4422
 21
3.10973
  0
LINE
  8
0
 10
13.4422
 20
3.10973
 11
13.4186
 21
3.21687
  0
LINE
  8
0
 10
13.4186
 20
3.21687
 11
13.3949
 21
3.32306
  0
LINE
  8
0
 10
13.3949
 20
3.32306
 11
13.3712
 21
3.42555
  0
LINE
  8
0
 10
13.3712
 20
3.42555
 11
13.3477
 21
3.52434
  0
LINE
  8
0
 10
13.3477
 20
3.52434
 11
13.3244
 21
3.61943
  0
LINE
  8
0
 10
13.3244
 20
3.61943
 11
13.3018
 21
3.70825
  0
LINE
  8
0
 10
13.3018
 20
3.70825
 11
13.2806
 21
3.78827
  0
LINE
  8
0
 10
13.2806
 20
3.78827
 11
13.2607
 21
3.85948
  0
LINE
  8
0
 10
13.2607
 20
3.85948
 11
13.2421
 21
3.92186
  0
LINE
  8
0
 10
13.2421
 20
3.92186
 11
12.7888
 21
5.24089
  0
LINE
  8
0
 10
12.7888
 20
5.24089
 11
11.4767
 21
5.24089
  0
LINE
  8
0
 10
11.4767
 20
5.24089
 11
11.4767
 21
1.85239
  0
LINE
  8
0
 10
11.4767
 20
1.85239
 11
12.3213
 21
1.85239
  0
LINE
  8
0
 10
12.3213
 20
1.85239
 11
12.3213
 21
3.31239
  0
LINE
  8
0
 10
27.2572
 20
3.01903
 11
27.7152
 21
3.01903
  0
LINE
  8
0
 10
27.7152
 20
3.01903
 11
28.3665
 21
1.85239
  0
LINE
  8
0
 10
28.3665
 20
1.85239
 11
29.2897
 21
1.85239
  0
LINE
  8
0
 10
29.2897
 20
1.85239
 11
28.5478
 21
3.14639
  0
LINE
  8
0
 10
28.5478
 20
3.14639
 11
28.6873
 21
3.21747
  0
LINE
  8
0
 10
28.6873
 20
3.21747
 11
28.8099
 21
3.30331
  0
LINE
  8
0
 10
28.8099
 20
3.30331
 11
28.9157
 21
3.40395
  0
LINE
  8
0
 10
28.9157
 20
3.40395
 11
29.0047
 21
3.51936
  0
LINE
  8
0
 10
29.0047
 20
3.51936
 11
29.0751
 21
3.6487
  0
LINE
  8
0
 10
29.0751
 20
3.6487
 11
29.1254
 21
3.79112
  0
LINE
  8
0
 10
29.1254
 20
3.79112
 11
29.1556
 21
3.94661
  0
LINE
  8
0
 10
29.1556
 20
3.94661
 11
29.1657
 21
4.11519
  0
LINE
  8
0
 10
29.1657
 20
4.11519
 11
29.144
 21
4.36101
  0
LINE
  8
0
 10
29.144
 20
4.36101
 11
29.0789
 21
4.57996
  0
LINE
  8
0
 10
29.0789
 20
4.57996
 11
28.9704
 21
4.77205
  0
LINE
  8
0
 10
28.9704
 20
4.77205
 11
28.8186
 21
4.93727
  0
LINE
  8
0
 10
28.8186
 20
4.93727
 11
28.6291
 21
5.0701
  0
LINE
  8
0
 10
28.6291
 20
5.0701
 11
28.4079
 21
5.16498
  0
LINE
  8
0
 10
28.4079
 20
5.16498
 11
28.155
 21
5.22191
  0
LINE
  8
0
 10
28.155
 20
5.22191
 11
27.8703
 21
5.24089
  0
LINE
  8
0
 10
27.8703
 20
5.24089
 11
26.415
 21
5.24089
  0
LINE
  8
0
 10
26.415
 20
5.24089
 11
26.415
 21
1.85239
  0
LINE
  8
0
 10
26.415
 20
1.85239
 11
27.2572
 21
1.85239
  0
LINE
  8
0
 10
27.2572
 20
1.85239
 11
27.2572
 21
3.01903
  0
LINE
  8
0
 10
27.2572
 20
3.65353
 11
27.2572
 21
4.5905
  0
LINE
  8
0
 10
27.2572
 20
4.5905
 11
27.6914
 21
4.5905
  0
LINE
  8
0
 10
27.6914
 20
4.5905
 11
27.9544
 21
4.56079
  0
LINE
  8
0
 10
27.9544
 20
4.56079
 11
28.1423
 21
4.47166
  0
LINE
  8
0
 10
28.1423
 20
4.47166
 11
28.255
 21
4.32314
  0
LINE
  8
0
 10
28.255
 20
4.32314
 11
28.2926
 21
4.11519
  0
LINE
  8
0
 10
28.2926
 20
4.11519
 11
28.2551
 21
3.91321
  0
LINE
  8
0
 10
28.2551
 20
3.91321
 11
28.1429
 21
3.76894
  0
LINE
  8
0
 10
28.1429
 20
3.76894
 11
27.9557
 21
3.68239
  0
LINE
  8
0
 10
27.9557
 20
3.68239
 11
27.6938
 21
3.65353
  0
LINE
  8
0
 10
27.6938
 20
3.65353
 11
27.2572
 21
3.65353
  0
LINE
  8
0
 10
79.4847
 20
5.24089
 11
78.6139
 21
5.24089
  0
LINE
  8
0
 10
78.6139
 20
5.24089
 11
77.8219
 21
4.72238
  0
LINE
  8
0
 10
77.8219
 20
4.72238
 11
77.8219
 21
4.01741
  0
LINE
  8
0
 10
77.8219
 20
4.01741
 11
78.6211
 21
4.54271
  0
LINE
  8
0
 10
78.6211
 20
4.54271
 11
78.6449
 21
4.54271
  0
LINE
  8
0
 10
78.6449
 20
4.54271
 11
78.6449
 21
1.85239
  0
LINE
  8
0
 10
78.6449
 20
1.85239
 11
79.4847
 21
1.85239
  0
LINE
  8
0
 10
79.4847
 20
1.85239
 11
79.4847
 21
5.24089
  0
LINE
  8
0
 10
57.7109
 20
5.24089
 11
56.8401
 21
5.24089
  0
LINE
  8
0
 10
56.8401
 20
5.24089
 11
56.048
 21
4.72238
  0
LINE
  8
0
 10
56.048
 20
4.72238
 11
56.048
 21
4.01741
  0
LINE
  8
0
 10
56.048
 20
4.01741
 11
56.8473
 21
4.54271
  0
LINE
  8
0
 10
56.8473
 20
4.54271
 11
56.8711
 21
4.54271
  0
LINE
  8
0
 10
56.8711
 20
4.54271
 11
56.8711
 21
1.85239
  0
LINE
  8
0
 10
56.8711
 20
1.85239
 11
57.7109
 21
1.85239
  0
LINE
  8
0
 10
57.7109
 20
1.85239
 11
57.7109
 21
5.24089
  0
LINE
  8
0
 10
16.8223
 20
3.31239
 11
16.8219
 21
3.38083
  0
LINE
  8
0
 10
16.8219
 20
3.38083
 11
16.8208
 21
3.45879
  0
LINE
  8
0
 10
16.8208
 20
3.45879
 11
16.819
 21
3.54626
  0
LINE
  8
0
 10
16.819
 20
3.54626
 11
16.8163
 21
3.64326
  0
LINE
  8
0
 10
16.8163
 20
3.64326
 11
16.8133
 21
3.7471
  0
LINE
  8
0
 10
16.8133
 20
3.7471
 11
16.8067
 21
3.96713
  0
LINE
  8
0
 10
16.8067
 20
3.96713
 11
16.8032
 21
4.08333
  0
LINE
  8
0
 10
16.8032
 20
4.08333
 11
16.7998
 21
4.20073
  0
LINE
  8
0
 10
16.7998
 20
4.20073
 11
16.7967
 21
4.31644
  0
LINE
  8
0
 10
16.7967
 20
4.31644
 11
16.7938
 21
4.43042
  0
LINE
  8
0
 10
16.7938
 20
4.43042
 11
16.7913
 21
4.54271
  0
LINE
  8
0
 10
16.7913
 20
4.54271
 11
16.8215
 21
4.42354
  0
LINE
  8
0
 10
16.8215
 20
4.42354
 11
16.8524
 21
4.30479
  0
LINE
  8
0
 10
16.8524
 20
4.30479
 11
16.8841
 21
4.18648
  0
LINE
  8
0
 10
16.8841
 20
4.18648
 11
16.9165
 21
4.06857
  0
LINE
  8
0
 10
16.9165
 20
4.06857
 11
16.949
 21
3.95323
  0
LINE
  8
0
 10
16.949
 20
3.95323
 11
16.9807
 21
3.84258
  0
LINE
  8
0
 10
16.9807
 20
3.84258
 11
17.0116
 21
3.7366
  0
LINE
  8
0
 10
17.0116
 20
3.7366
 11
17.0418
 21
3.63531
  0
LINE
  8
0
 10
17.0418
 20
3.63531
 11
17.0704
 21
3.54094
  0
LINE
  8
0
 10
17.0704
 20
3.54094
 11
17.0967
 21
3.45566
  0
LINE
  8
0
 10
17.0967
 20
3.45566
 11
17.1205
 21
3.37947
  0
LINE
  8
0
 10
17.1205
 20
3.37947
 11
17.142
 21
3.31239
  0
LINE
  8
0
 10
17.142
 20
3.31239
 11
17.6549
 21
1.85239
  0
LINE
  8
0
 10
17.6549
 20
1.85239
 11
18.3587
 21
1.85239
  0
LINE
  8
0
 10
18.3587
 20
1.85239
 11
18.8644
 21
3.31239
  0
LINE
  8
0
 10
18.8644
 20
3.31239
 11
18.8869
 21
3.38196
  0
LINE
  8
0
 10
18.8869
 20
3.38196
 11
18.9115
 21
3.46106
  0
LINE
  8
0
 10
18.9115
 20
3.46106
 11
18.9382
 21
3.54968
  0
LINE
  8
0
 10
18.9382
 20
3.54968
 11
18.967
 21
3.64783
  0
LINE
  8
0
 10
18.967
 20
3.64783
 11
18.9972
 21
3.75308
  0
LINE
  8
0
 10
18.9972
 20
3.75308
 11
19.0282
 21
3.86304
  0
LINE
  8
0
 10
19.0282
 20
3.86304
 11
19.0598
 21
3.97766
  0
LINE
  8
0
 10
19.0598
 20
3.97766
 11
19.0923
 21
4.09698
  0
LINE
  8
0
 10
19.0923
 20
4.09698
 11
19.1247
 21
4.21851
  0
LINE
  8
0
 10
19.1247
 20
4.21851
 11
19.1564
 21
4.33975
  0
LINE
  8
0
 10
19.1564
 20
4.33975
 11
19.1873
 21
4.46071
  0
LINE
  8
0
 10
19.1873
 20
4.46071
 11
19.2175
 21
4.58138
  0
LINE
  8
0
 10
19.2175
 20
4.58138
 11
19.215
 21
4.46654
  0
LINE
  8
0
 10
19.215
 20
4.46654
 11
19.2121
 21
4.34943
  0
LINE
  8
0
 10
19.2121
 20
4.34943
 11
19.209
 21
4.23003
  0
LINE
  8
0
 10
19.209
 20
4.23003
 11
19.2056
 21
4.10835
  0
LINE
  8
0
 10
19.2056
 20
4.10835
 11
19.1987
 21
3.87155
  0
LINE
  8
0
 10
19.1987
 20
3.87155
 11
19.1925
 21
3.65239
  0
LINE
  8
0
 10
19.1925
 20
3.65239
 11
19.1898
 21
3.55226
  0
LINE
  8
0
 10
19.1898
 20
3.55226
 11
19.188
 21
3.4622
  0
LINE
  8
0
 10
19.188
 20
3.4622
 11
19.1869
 21
3.38225
  0
LINE
  8
0
 10
19.1869
 20
3.38225
 11
19.1865
 21
3.31239
  0
LINE
  8
0
 10
19.1865
 20
3.31239
 11
19.1865
 21
1.85239
  0
LINE
  8
0
 10
19.1865
 20
1.85239
 11
20.0334
 21
1.85239
  0
LINE
  8
0
 10
20.0334
 20
1.85239
 11
20.0334
 21
5.24089
  0
LINE
  8
0
 10
20.0334
 20
5.24089
 11
18.7189
 21
5.24089
  0
LINE
  8
0
 10
18.7189
 20
5.24089
 11
18.2728
 21
3.92186
  0
LINE
  8
0
 10
18.2728
 20
3.92186
 11
18.2542
 21
3.85941
  0
LINE
  8
0
 10
18.2542
 20
3.85941
 11
18.2343
 21
3.78799
  0
LINE
  8
0
 10
18.2343
 20
3.78799
 11
18.2131
 21
3.70761
  0
LINE
  8
0
 10
18.2131
 20
3.70761
 11
18.1905
 21
3.61829
  0
LINE
  8
0
 10
18.1905
 20
3.61829
 11
18.1672
 21
3.52277
  0
LINE
  8
0
 10
18.1672
 20
3.52277
 11
18.144
 21
3.42384
  0
LINE
  8
0
 10
18.144
 20
3.42384
 11
18.1207
 21
3.32149
  0
LINE
  8
0
 10
18.1207
 20
3.32149
 11
18.0974
 21
3.21574
  0
LINE
  8
0
 10
18.0974
 20
3.21574
 11
18.0746
 21
3.10907
  0
LINE
  8
0
 10
18.0746
 20
3.10907
 11
18.0524
 21
3.00398
  0
LINE
  8
0
 10
18.0524
 20
3.00398
 11
18.031
 21
2.90044
  0
LINE
  8
0
 10
18.031
 20
2.90044
 11
18.0104
 21
2.79845
  0
LINE
  8
0
 10
18.0104
 20
2.79845
 11
17.9886
 21
2.9005
  0
LINE
  8
0
 10
17.9886
 20
2.9005
 11
17.9662
 21
3.00426
  0
LINE
  8
0
 10
17.9662
 20
3.00426
 11
17.9433
 21
3.10973
  0
LINE
  8
0
 10
17.9433
 20
3.10973
 11
17.9197
 21
3.21687
  0
LINE
  8
0
 10
17.9197
 20
3.21687
 11
17.8959
 21
3.32306
  0
LINE
  8
0
 10
17.8959
 20
3.32306
 11
17.8723
 21
3.42555
  0
LINE
  8
0
 10
17.8723
 20
3.42555
 11
17.8488
 21
3.52434
  0
LINE
  8
0
 10
17.8488
 20
3.52434
 11
17.8255
 21
3.61943
  0
LINE
  8
0
 10
17.8255
 20
3.61943
 11
17.8029
 21
3.70825
  0
LINE
  8
0
 10
17.8029
 20
3.70825
 11
17.7816
 21
3.78827
  0
LINE
  8
0
 10
17.7816
 20
3.78827
 11
17.7617
 21
3.85948
  0
LINE
  8
0
 10
17.7617
 20
3.85948
 11
17.7432
 21
3.92186
  0
LINE
  8
0
 10
17.7432
 20
3.92186
 11
17.2899
 21
5.24089
  0
LINE
  8
0
 10
17.2899
 20
5.24089
 11
15.9778
 21
5.24089
  0
LINE
  8
0
 10
15.9778
 20
5.24089
 11
15.9778
 21
1.85239
  0
LINE
  8
0
 10
15.9778
 20
1.85239
 11
16.8223
 21
1.85239
  0
LINE
  8
0
 10
16.8223
 20
1.85239
 11
16.8223
 21
3.31239
  0
LINE
  8
0
 10
71.2509
 20
1.83208
 11
71.4647
 21
1.90755
  0
LINE
  8
0
 10
71.4647
 20
1.90755
 11
71.6374
 21
2.03333
  0
LINE
  8
0
 10
71.6374
 20
2.03333
 11
71.7689
 21
2.20943
  0
LINE
  8
0
 10
71.7689
 20
2.20943
 11
71.7904
 21
2.20943
  0
LINE
  8
0
 10
71.7904
 20
2.20943
 11
71.7904
 21
1.85239
  0
LINE
  8
0
 10
71.7904
 20
1.85239
 11
72.5729
 21
1.85239
  0
LINE
  8
0
 10
72.5729
 20
1.85239
 11
72.5729
 21
3.57848
  0
LINE
  8
0
 10
72.5729
 20
3.57848
 11
72.563
 21
3.70973
  0
LINE
  8
0
 10
72.563
 20
3.70973
 11
72.5332
 21
3.83061
  0
LINE
  8
0
 10
72.5332
 20
3.83061
 11
72.4836
 21
3.94112
  0
LINE
  8
0
 10
72.4836
 20
3.94112
 11
72.4142
 21
4.04124
  0
LINE
  8
0
 10
72.4142
 20
4.04124
 11
72.328
 21
4.13045
  0
LINE
  8
0
 10
72.328
 20
4.13045
 11
72.2281
 21
4.20811
  0
LINE
  8
0
 10
72.2281
 20
4.20811
 11
72.1145
 21
4.27429
  0
LINE
  8
0
 10
72.1145
 20
4.27429
 11
71.9872
 21
4.32893
  0
LINE
  8
0
 10
71.9872
 20
4.32893
 11
71.849
 21
4.37173
  0
LINE
  8
0
 10
71.849
 20
4.37173
 11
71.703
 21
4.4023
  0
LINE
  8
0
 10
71.703
 20
4.4023
 11
71.549
 21
4.42064
  0
LINE
  8
0
 10
71.549
 20
4.42064
 11
71.3872
 21
4.42676
  0
LINE
  8
0
 10
71.3872
 20
4.42676
 11
71.1488
 21
4.41403
  0
LINE
  8
0
 10
71.1488
 20
4.41403
 11
70.9348
 21
4.37587
  0
LINE
  8
0
 10
70.9348
 20
4.37587
 11
70.7451
 21
4.31226
  0
LINE
  8
0
 10
70.7451
 20
4.31226
 11
70.5796
 21
4.22321
  0
LINE
  8
0
 10
70.5796
 20
4.22321
 11
70.4406
 21
4.11383
  0
LINE
  8
0
 10
70.4406
 20
4.11383
 11
70.33
 21
3.98926
  0
LINE
  8
0
 10
70.33
 20
3.98926
 11
70.248
 21
3.84947
  0
LINE
  8
0
 10
70.248
 20
3.84947
 11
70.1944
 21
3.69447
  0
LINE
  8
0
 10
70.1944
 20
3.69447
 11
70.9482
 21
3.60121
  0
LINE
  8
0
 10
70.9482
 20
3.60121
 11
70.9698
 21
3.65834
  0
LINE
  8
0
 10
70.9698
 20
3.65834
 11
71.0013
 21
3.70923
  0
LINE
  8
0
 10
71.0013
 20
3.70923
 11
71.0426
 21
3.75386
  0
LINE
  8
0
 10
71.0426
 20
3.75386
 11
71.0938
 21
3.79222
  0
LINE
  8
0
 10
71.0938
 20
3.79222
 11
71.1537
 21
3.82307
  0
LINE
  8
0
 10
71.1537
 20
3.82307
 11
71.2214
 21
3.84511
  0
LINE
  8
0
 10
71.2214
 20
3.84511
 11
71.2968
 21
3.85834
  0
LINE
  8
0
 10
71.2968
 20
3.85834
 11
71.38
 21
3.86275
  0
LINE
  8
0
 10
71.38
 20
3.86275
 11
71.4602
 21
3.85828
  0
LINE
  8
0
 10
71.4602
 20
3.85828
 11
71.5312
 21
3.84483
  0
LINE
  8
0
 10
71.5312
 20
3.84483
 11
71.5932
 21
3.82245
  0
LINE
  8
0
 10
71.5932
 20
3.82245
 11
71.646
 21
3.79112
  0
LINE
  8
0
 10
71.646
 20
3.79112
 11
71.6883
 21
3.75154
  0
LINE
  8
0
 10
71.6883
 20
3.75154
 11
71.7185
 21
3.70442
  0
LINE
  8
0
 10
71.7185
 20
3.70442
 11
71.7366
 21
3.64975
  0
LINE
  8
0
 10
71.7366
 20
3.64975
 11
71.7426
 21
3.58757
  0
LINE
  8
0
 10
71.7426
 20
3.58757
 11
71.7426
 21
3.57848
  0
LINE
  8
0
 10
71.7426
 20
3.57848
 11
71.7335
 21
3.52426
  0
LINE
  8
0
 10
71.7335
 20
3.52426
 11
71.7059
 21
3.47984
  0
LINE
  8
0
 10
71.7059
 20
3.47984
 11
71.6601
 21
3.44524
  0
LINE
  8
0
 10
71.6601
 20
3.44524
 11
71.5959
 21
3.42044
  0
LINE
  8
0
 10
71.5959
 20
3.42044
 11
71.5106
 21
3.40131
  0
LINE
  8
0
 10
71.5106
 20
3.40131
 11
71.4012
 21
3.38376
  0
LINE
  8
0
 10
71.4012
 20
3.38376
 11
71.2678
 21
3.36777
  0
LINE
  8
0
 10
71.2678
 20
3.36777
 11
71.1105
 21
3.35333
  0
LINE
  8
0
 10
71.1105
 20
3.35333
 11
70.9784
 21
3.33841
  0
LINE
  8
0
 10
70.9784
 20
3.33841
 11
70.8519
 21
3.31638
  0
LINE
  8
0
 10
70.8519
 20
3.31638
 11
70.7309
 21
3.28723
  0
LINE
  8
0
 10
70.7309
 20
3.28723
 11
70.6154
 21
3.25098
  0
LINE
  8
0
 10
70.6154
 20
3.25098
 11
70.5083
 21
3.2058
  0
LINE
  8
0
 10
70.5083
 20
3.2058
 11
70.4123
 21
3.1498
  0
LINE
  8
0
 10
70.4123
 20
3.1498
 11
70.3276
 21
3.08299
  0
LINE
  8
0
 10
70.3276
 20
3.08299
 11
70.254
 21
3.00539
  0
LINE
  8
0
 10
70.254
 20
3.00539
 11
70.1945
 21
2.91513
  0
LINE
  8
0
 10
70.1945
 20
2.91513
 11
70.152
 21
2.81038
  0
LINE
  8
0
 10
70.152
 20
2.81038
 11
70.1265
 21
2.69113
  0
LINE
  8
0
 10
70.1265
 20
2.69113
 11
70.118
 21
2.55737
  0
LINE
  8
0
 10
70.118
 20
2.55737
 11
70.1334
 21
2.38057
  0
LINE
  8
0
 10
70.1334
 20
2.38057
 11
70.1797
 21
2.22763
  0
LINE
  8
0
 10
70.1797
 20
2.22763
 11
70.2569
 21
2.09857
  0
LINE
  8
0
 10
70.2569
 20
2.09857
 11
70.3649
 21
1.99339
  0
LINE
  8
0
 10
70.3649
 20
1.99339
 11
70.497
 21
1.9118
  0
LINE
  8
0
 10
70.497
 20
1.9118
 11
70.6461
 21
1.85353
  0
LINE
  8
0
 10
70.6461
 20
1.85353
 11
70.8125
 21
1.81857
  0
LINE
  8
0
 10
70.8125
 20
1.81857
 11
70.9959
 21
1.80692
  0
LINE
  8
0
 10
70.9959
 20
1.80692
 11
71.2509
 21
1.83208
  0
LINE
  8
0
 10
71.177
 20
2.33643
 11
71.1119
 21
2.349
  0
LINE
  8
0
 10
71.1119
 20
2.349
 11
71.0536
 21
2.36996
  0
LINE
  8
0
 10
71.0536
 20
2.36996
 11
71.0019
 21
2.39932
  0
LINE
  8
0
 10
71.0019
 20
2.39932
 11
70.9596
 21
2.43665
  0
LINE
  8
0
 10
70.9596
 20
2.43665
 11
70.9294
 21
2.48148
  0
LINE
  8
0
 10
70.9294
 20
2.48148
 11
70.9113
 21
2.53386
  0
LINE
  8
0
 10
70.9113
 20
2.53386
 11
70.9053
 21
2.59375
  0
LINE
  8
0
 10
70.9053
 20
2.59375
 11
70.9293
 21
2.70561
  0
LINE
  8
0
 10
70.9293
 20
2.70561
 11
71.0013
 21
2.79332
  0
LINE
  8
0
 10
71.0013
 20
2.79332
 11
71.1213
 21
2.85686
  0
LINE
  8
0
 10
71.1213
 20
2.85686
 11
71.2894
 21
2.89622
  0
LINE
  8
0
 10
71.2894
 20
2.89622
 11
71.349
 21
2.90575
  0
LINE
  8
0
 10
71.349
 20
2.90575
 11
71.411
 21
2.91612
  0
LINE
  8
0
 10
71.411
 20
2.91612
 11
71.4754
 21
2.92734
  0
LINE
  8
0
 10
71.4754
 20
2.92734
 11
71.5422
 21
2.93942
  0
LINE
  8
0
 10
71.5422
 20
2.93942
 11
71.6062
 21
2.95264
  0
LINE
  8
0
 10
71.6062
 20
2.95264
 11
71.6621
 21
2.96729
  0
LINE
  8
0
 10
71.6621
 20
2.96729
 11
71.71
 21
2.98337
  0
LINE
  8
0
 10
71.71
 20
2.98337
 11
71.7498
 21
3.00085
  0
LINE
  8
0
 10
71.7498
 20
3.00085
 11
71.7498
 21
2.75751
  0
LINE
  8
0
 10
71.7498
 20
2.75751
 11
71.7407
 21
2.66753
  0
LINE
  8
0
 10
71.7407
 20
2.66753
 11
71.7134
 21
2.58636
  0
LINE
  8
0
 10
71.7134
 20
2.58636
 11
71.668
 21
2.51401
  0
LINE
  8
0
 10
71.668
 20
2.51401
 11
71.6043
 21
2.45047
  0
LINE
  8
0
 10
71.6043
 20
2.45047
 11
71.5275
 21
2.39873
  0
LINE
  8
0
 10
71.5275
 20
2.39873
 11
71.4426
 21
2.36179
  0
LINE
  8
0
 10
71.4426
 20
2.36179
 11
71.3497
 21
2.33961
  0
LINE
  8
0
 10
71.3497
 20
2.33961
 11
71.2488
 21
2.33223
  0
LINE
  8
0
 10
71.2488
 20
2.33223
 11
71.177
 21
2.33643
  0
LINE
  8
0
 10
69.1714
 20
3.23962
 11
69.1809
 21
3.34793
  0
LINE
  8
0
 10
69.1809
 20
3.34793
 11
69.2093
 21
3.44543
  0
LINE
  8
0
 10
69.2093
 20
3.44543
 11
69.2566
 21
3.53214
  0
LINE
  8
0
 10
69.2566
 20
3.53214
 11
69.3229
 21
3.60802
  0
LINE
  8
0
 10
69.3229
 20
3.60802
 11
69.4036
 21
3.66971
  0
LINE
  8
0
 10
69.4036
 20
3.66971
 11
69.4944
 21
3.71378
  0
LINE
  8
0
 10
69.4944
 20
3.71378
 11
69.5951
 21
3.74022
  0
LINE
  8
0
 10
69.5951
 20
3.74022
 11
69.7058
 21
3.74904
  0
LINE
  8
0
 10
69.7058
 20
3.74904
 11
69.7452
 21
3.7484
  0
LINE
  8
0
 10
69.7452
 20
3.7484
 11
69.7872
 21
3.74648
  0
LINE
  8
0
 10
69.7872
 20
3.74648
 11
69.8317
 21
3.74327
  0
LINE
  8
0
 10
69.8317
 20
3.74327
 11
69.8787
 21
3.7388
  0
LINE
  8
0
 10
69.8787
 20
3.7388
 11
69.9247
 21
3.73305
  0
LINE
  8
0
 10
69.9247
 20
3.73305
 11
69.9661
 21
3.72601
  0
LINE
  8
0
 10
69.9661
 20
3.72601
 11
70.0029
 21
3.71771
  0
LINE
  8
0
 10
70.0029
 20
3.71771
 11
70.035
 21
3.70811
  0
LINE
  8
0
 10
70.035
 20
3.70811
 11
70.035
 21
4.39946
  0
LINE
  8
0
 10
70.035
 20
4.39946
 11
69.9773
 21
4.41139
  0
LINE
  8
0
 10
69.9773
 20
4.41139
 11
69.9187
 21
4.41992
  0
LINE
  8
0
 10
69.9187
 20
4.41992
 11
69.8592
 21
4.42505
  0
LINE
  8
0
 10
69.8592
 20
4.42505
 11
69.7989
 21
4.42676
  0
LINE
  8
0
 10
69.7989
 20
4.42676
 11
69.6925
 21
4.41908
  0
LINE
  8
0
 10
69.6925
 20
4.41908
 11
69.5928
 21
4.39606
  0
LINE
  8
0
 10
69.5928
 20
4.39606
 11
69.4998
 21
4.35768
  0
LINE
  8
0
 10
69.4998
 20
4.35768
 11
69.4135
 21
4.30396
  0
LINE
  8
0
 10
69.4135
 20
4.30396
 11
69.3365
 21
4.23459
  0
LINE
  8
0
 10
69.3365
 20
4.23459
 11
69.2713
 21
4.14931
  0
LINE
  8
0
 10
69.2713
 20
4.14931
 11
69.2179
 21
4.04811
  0
LINE
  8
0
 10
69.2179
 20
4.04811
 11
69.1762
 21
3.93098
  0
LINE
  8
0
 10
69.1762
 20
3.93098
 11
69.1476
 21
3.93098
  0
LINE
  8
0
 10
69.1476
 20
3.93098
 11
69.1476
 21
4.3949
  0
LINE
  8
0
 10
69.1476
 20
4.3949
 11
68.3388
 21
4.3949
  0
LINE
  8
0
 10
68.3388
 20
4.3949
 11
68.3388
 21
1.85239
  0
LINE
  8
0
 10
68.3388
 20
1.85239
 11
69.1714
 21
1.85239
  0
LINE
  8
0
 10
69.1714
 20
1.85239
 11
69.1714
 21
3.23962
  0
LINE
  8
0
 10
51.4503
 20
4.3949
 11
50.582
 21
4.3949
  0
LINE
  8
0
 10
50.582
 20
4.3949
 11
50.1907
 21
3.15092
  0
LINE
  8
0
 10
50.1907
 20
3.15092
 11
50.164
 21
3.06444
  0
LINE
  8
0
 10
50.164
 20
3.06444
 11
50.1388
 21
2.9778
  0
LINE
  8
0
 10
50.1388
 20
2.9778
 11
50.1151
 21
2.89102
  0
LINE
  8
0
 10
50.1151
 20
2.89102
 11
50.0929
 21
2.80411
  0
LINE
  8
0
 10
50.0929
 20
2.80411
 11
50.0717
 21
2.71649
  0
LINE
  8
0
 10
50.0717
 20
2.71649
 11
50.0512
 21
2.62758
  0
LINE
  8
0
 10
50.0512
 20
2.62758
 11
50.0312
 21
2.5374
  0
LINE
  8
0
 10
50.0312
 20
2.5374
 11
50.0118
 21
2.44594
  0
LINE
  8
0
 10
50.0118
 20
2.44594
 11
49.9903
 21
2.53748
  0
LINE
  8
0
 10
49.9903
 20
2.53748
 11
49.9686
 21
2.62787
  0
LINE
  8
0
 10
49.9686
 20
2.62787
 11
49.9467
 21
2.71713
  0
LINE
  8
0
 10
49.9467
 20
2.71713
 11
49.9247
 21
2.80525
  0
LINE
  8
0
 10
49.9247
 20
2.80525
 11
49.902
 21
2.89253
  0
LINE
  8
0
 10
49.902
 20
2.89253
 11
49.8779
 21
2.97923
  0
LINE
  8
0
 10
49.8779
 20
2.97923
 11
49.8525
 21
3.06535
  0
LINE
  8
0
 10
49.8525
 20
3.06535
 11
49.8257
 21
3.15092
  0
LINE
  8
0
 10
49.8257
 20
3.15092
 11
49.4273
 21
4.3949
  0
LINE
  8
0
 10
49.4273
 20
4.3949
 11
48.5494
 21
4.3949
  0
LINE
  8
0
 10
48.5494
 20
4.3949
 11
49.5156
 21
1.85239
  0
LINE
  8
0
 10
49.5156
 20
1.85239
 11
50.4794
 21
1.85239
  0
LINE
  8
0
 10
50.4794
 20
1.85239
 11
51.4503
 21
4.3949
  0
LINE
  8
0
 10
46.7239
 20
3.04028
 11
46.808
 21
3.0631
  0
LINE
  8
0
 10
46.808
 20
3.0631
 11
46.8844
 21
3.10112
  0
LINE
  8
0
 10
46.8844
 20
3.10112
 11
46.9532
 21
3.15434
  0
LINE
  8
0
 10
46.9532
 20
3.15434
 11
47.0101
 21
3.2188
  0
LINE
  8
0
 10
47.0101
 20
3.2188
 11
47.0507
 21
3.29051
  0
LINE
  8
0
 10
47.0507
 20
3.29051
 11
47.0751
 21
3.36946
  0
LINE
  8
0
 10
47.0751
 20
3.36946
 11
47.0832
 21
3.45567
  0
LINE
  8
0
 10
47.0832
 20
3.45567
 11
47.0751
 21
3.54288
  0
LINE
  8
0
 10
47.0751
 20
3.54288
 11
47.0507
 21
3.62253
  0
LINE
  8
0
 10
47.0507
 20
3.62253
 11
47.0101
 21
3.69466
  0
LINE
  8
0
 10
47.0101
 20
3.69466
 11
46.9532
 21
3.75926
  0
LINE
  8
0
 10
46.9532
 20
3.75926
 11
46.8844
 21
3.8125
  0
LINE
  8
0
 10
46.8844
 20
3.8125
 11
46.808
 21
3.85052
  0
LINE
  8
0
 10
46.808
 20
3.85052
 11
46.7239
 21
3.87335
  0
LINE
  8
0
 10
46.7239
 20
3.87335
 11
46.6323
 21
3.88095
  0
LINE
  8
0
 10
46.6323
 20
3.88095
 11
46.5407
 21
3.87335
  0
LINE
  8
0
 10
46.5407
 20
3.87335
 11
46.4567
 21
3.85052
  0
LINE
  8
0
 10
46.4567
 20
3.85052
 11
46.3803
 21
3.8125
  0
LINE
  8
0
 10
46.3803
 20
3.8125
 11
46.3115
 21
3.75926
  0
LINE
  8
0
 10
46.3115
 20
3.75926
 11
46.2546
 21
3.69466
  0
LINE
  8
0
 10
46.2546
 20
3.69466
 11
46.214
 21
3.62253
  0
LINE
  8
0
 10
46.214
 20
3.62253
 11
46.1896
 21
3.54288
  0
LINE
  8
0
 10
46.1896
 20
3.54288
 11
46.1814
 21
3.45567
  0
LINE
  8
0
 10
46.1814
 20
3.45567
 11
46.1896
 21
3.36946
  0
LINE
  8
0
 10
46.1896
 20
3.36946
 11
46.214
 21
3.29051
  0
LINE
  8
0
 10
46.214
 20
3.29051
 11
46.2546
 21
3.2188
  0
LINE
  8
0
 10
46.2546
 20
3.2188
 11
46.3115
 21
3.15434
  0
LINE
  8
0
 10
46.3115
 20
3.15434
 11
46.3803
 21
3.10112
  0
LINE
  8
0
 10
46.3803
 20
3.10112
 11
46.4567
 21
3.0631
  0
LINE
  8
0
 10
46.4567
 20
3.0631
 11
46.5407
 21
3.04028
  0
LINE
  8
0
 10
46.5407
 20
3.04028
 11
46.6323
 21
3.03268
  0
LINE
  8
0
 10
46.6323
 20
3.03268
 11
46.7239
 21
3.04028
  0
LINE
  8
0
 10
22.1727
 20
3.85138
 11
20.5337
 21
3.85138
  0
LINE
  8
0
 10
20.5337
 20
3.85138
 11
20.5337
 21
3.23962
  0
LINE
  8
0
 10
20.5337
 20
3.23962
 11
22.1727
 21
3.23962
  0
LINE
  8
0
 10
22.1727
 20
3.23962
 11
22.1727
 21
3.85138
  0
LINE
  8
0
 10
34.8581
 20
3.85138
 11
33.2192
 21
3.85138
  0
LINE
  8
0
 10
33.2192
 20
3.85138
 11
33.2192
 21
3.23962
  0
LINE
  8
0
 10
33.2192
 20
3.23962
 11
34.8581
 21
3.23962
  0
LINE
  8
0
 10
34.8581
 20
3.23962
 11
34.8581
 21
3.85138
  0
LINE
  8
0
 10
64.7442
 20
3.53073
 11
63.1053
 21
3.53073
  0
LINE
  8
0
 10
63.1053
 20
3.53073
 11
63.1053
 21
2.91896
  0
LINE
  8
0
 10
63.1053
 20
2.91896
 11
64.7442
 21
2.91896
  0
LINE
  8
0
 10
64.7442
 20
2.91896
 11
64.7442
 21
3.53073
  0
LINE
  8
0
 10
7.56636
 20
0.800369
 11
7.64903
 21
0.80159
  0
LINE
  8
0
 10
7.64903
 20
0.80159
 11
7.73042
 21
0.803802
  0
LINE
  8
0
 10
7.73042
 20
0.803802
 11
7.81062
 21
0.807144
  0
LINE
  8
0
 10
7.81062
 20
0.807144
 11
7.88969
 21
0.811752
  0
LINE
  8
0
 10
7.88969
 20
0.811752
 11
7.96771
 21
0.81778
  0
LINE
  8
0
 10
7.96771
 20
0.81778
 11
8.04474
 21
0.825363
  0
LINE
  8
0
 10
8.04474
 20
0.825363
 11
8.12083
 21
0.834625
  0
LINE
  8
0
 10
8.12083
 20
0.834625
 11
8.19609
 21
0.845734
  0
LINE
  8
0
 10
8.19609
 20
0.845734
 11
8.27058
 21
0.85881
  0
LINE
  8
0
 10
8.27058
 20
0.85881
 11
8.34436
 21
0.874023
  0
LINE
  8
0
 10
8.34436
 20
0.874023
 11
8.4175
 21
0.891479
  0
LINE
  8
0
 10
8.4175
 20
0.891479
 11
8.49008
 21
0.911331
  0
LINE
  8
0
 10
8.49008
 20
0.911331
 11
8.56216
 21
0.933731
  0
LINE
  8
0
 10
8.56216
 20
0.933731
 11
8.63382
 21
0.958817
  0
LINE
  8
0
 10
8.63382
 20
0.958817
 11
8.70512
 21
0.986725
  0
LINE
  8
0
 10
8.70512
 20
0.986725
 11
8.77614
 21
1.01759
  0
LINE
  8
0
 10
8.77614
 20
1.01759
 11
8.84695
 21
1.05157
  0
LINE
  8
0
 10
8.84695
 20
1.05157
 11
8.91763
 21
1.08879
  0
LINE
  8
0
 10
8.91763
 20
1.08879
 11
8.98822
 21
1.12941
  0
LINE
  8
0
 10
8.98822
 20
1.12941
 11
5.12941
 21
3.34117
  0
LINE
  8
0
 10
5.12941
 20
3.34117
 11
1.64705
 21
1.17647
  0
LINE
  8
0
 10
1.64705
 20
1.17647
 11
1.69046
 21
1.14188
  0
LINE
  8
0
 10
1.69046
 20
1.14188
 11
1.73595
 21
1.10875
  0
LINE
  8
0
 10
1.73595
 20
1.10875
 11
1.78348
 21
1.07709
  0
LINE
  8
0
 10
1.78348
 20
1.07709
 11
1.83302
 21
1.04695
  0
LINE
  8
0
 10
1.83302
 20
1.04695
 11
1.88455
 21
1.01837
  0
LINE
  8
0
 10
1.88455
 20
1.01837
 11
1.93802
 21
0.991379
  0
LINE
  8
0
 10
1.93802
 20
0.991379
 11
1.99339
 21
0.966003
  0
LINE
  8
0
 10
1.99339
 20
0.966003
 11
2.05063
 21
0.942291
  0
LINE
  8
0
 10
2.05063
 20
0.942291
 11
2.10971
 21
0.920288
  0
LINE
  8
0
 10
2.10971
 20
0.920288
 11
2.17058
 21
0.899994
  0
LINE
  8
0
 10
2.17058
 20
0.899994
 11
2.23322
 21
0.88147
  0
LINE
  8
0
 10
2.23322
 20
0.88147
 11
2.29759
 21
0.864746
  0
LINE
  8
0
 10
2.29759
 20
0.864746
 11
2.36366
 21
0.849854
  0
LINE
  8
0
 10
2.36366
 20
0.849854
 11
2.43138
 21
0.836838
  0
LINE
  8
0
 10
2.43138
 20
0.836838
 11
2.50073
 21
0.825729
  0
LINE
  8
0
 10
2.50073
 20
0.825729
 11
2.57166
 21
0.816559
  0
LINE
  8
0
 10
2.57166
 20
0.816559
 11
2.64415
 21
0.809357
  0
LINE
  8
0
 10
2.64415
 20
0.809357
 11
2.71815
 21
0.804184
  0
LINE
  8
0
 10
2.71815
 20
0.804184
 11
2.79364
 21
0.801041
  0
LINE
  8
0
 10
2.79364
 20
0.801041
 11
2.87057
 21
0.799988
  0
LINE
  8
0
 10
2.87057
 20
0.799988
 11
7.48235
 21
0.799988
  0
LINE
  8
0
 10
7.48235
 20
0.799988
 11
7.56636
 21
0.800369
  0
LINE
  8
0
 10
58.8899
 20
1.81224
 11
58.9739
 21
1.83505
  0
LINE
  8
0
 10
58.9739
 20
1.83505
 11
59.0503
 21
1.87306
  0
LINE
  8
0
 10
59.0503
 20
1.87306
 11
59.1191
 21
1.9263
  0
LINE
  8
0
 10
59.1191
 20
1.9263
 11
59.176
 21
1.99075
  0
LINE
  8
0
 10
59.176
 20
1.99075
 11
59.2166
 21
2.06247
  0
LINE
  8
0
 10
59.2166
 20
2.06247
 11
59.241
 21
2.14142
  0
LINE
  8
0
 10
59.241
 20
2.14142
 11
59.2491
 21
2.22763
  0
LINE
  8
0
 10
59.2491
 20
2.22763
 11
59.241
 21
2.31482
  0
LINE
  8
0
 10
59.241
 20
2.31482
 11
59.2166
 21
2.39449
  0
LINE
  8
0
 10
59.2166
 20
2.39449
 11
59.176
 21
2.46661
  0
LINE
  8
0
 10
59.176
 20
2.46661
 11
59.1191
 21
2.53122
  0
LINE
  8
0
 10
59.1191
 20
2.53122
 11
59.0503
 21
2.58446
  0
LINE
  8
0
 10
59.0503
 20
2.58446
 11
58.9739
 21
2.62248
  0
LINE
  8
0
 10
58.9739
 20
2.62248
 11
58.8899
 21
2.64531
  0
LINE
  8
0
 10
58.8899
 20
2.64531
 11
58.7983
 21
2.65291
  0
LINE
  8
0
 10
58.7983
 20
2.65291
 11
58.7066
 21
2.64531
  0
LINE
  8
0
 10
58.7066
 20
2.64531
 11
58.6226
 21
2.62248
  0
LINE
  8
0
 10
58.6226
 20
2.62248
 11
58.5462
 21
2.58446
  0
LINE
  8
0
 10
58.5462
 20
2.58446
 11
58.4774
 21
2.53122
  0
LINE
  8
0
 10
58.4774
 20
2.53122
 11
58.4205
 21
2.46661
  0
LINE
  8
0
 10
58.4205
 20
2.46661
 11
58.3799
 21
2.39449
  0
LINE
  8
0
 10
58.3799
 20
2.39449
 11
58.3555
 21
2.31482
  0
LINE
  8
0
 10
58.3555
 20
2.31482
 11
58.3474
 21
2.22763
  0
LINE
  8
0
 10
58.3474
 20
2.22763
 11
58.3555
 21
2.14142
  0
LINE
  8
0
 10
58.3555
 20
2.14142
 11
58.3799
 21
2.06247
  0
LINE
  8
0
 10
58.3799
 20
2.06247
 11
58.4205
 21
1.99075
  0
LINE
  8
0
 10
58.4205
 20
1.99075
 11
58.4774
 21
1.9263
  0
LINE
  8
0
 10
58.4774
 20
1.9263
 11
58.5462
 21
1.87306
  0
LINE
  8
0
 10
58.5462
 20
1.87306
 11
58.6226
 21
1.83505
  0
LINE
  8
0
 10
58.6226
 20
1.83505
 11
58.7066
 21
1.81224
  0
LINE
  8
0
 10
58.7066
 20
1.81224
 11
58.7983
 21
1.80463
  0
LINE
  8
0
 10
58.7983
 20
1.80463
 11
58.8899
 21
1.81224
  0
LINE
  8
0
 10
77.3136
 20
1.81224
 11
77.3976
 21
1.83505
  0
LINE
  8
0
 10
77.3976
 20
1.83505
 11
77.474
 21
1.87306
  0
LINE
  8
0
 10
77.474
 20
1.87306
 11
77.5428
 21
1.9263
  0
LINE
  8
0
 10
77.5428
 20
1.9263
 11
77.5997
 21
1.99075
  0
LINE
  8
0
 10
77.5997
 20
1.99075
 11
77.6403
 21
2.06247
  0
LINE
  8
0
 10
77.6403
 20
2.06247
 11
77.6647
 21
2.14142
  0
LINE
  8
0
 10
77.6647
 20
2.14142
 11
77.6728
 21
2.22763
  0
LINE
  8
0
 10
77.6728
 20
2.22763
 11
77.6647
 21
2.31482
  0
LINE
  8
0
 10
77.6647
 20
2.31482
 11
77.6403
 21
2.39449
  0
LINE
  8
0
 10
77.6403
 20
2.39449
 11
77.5997
 21
2.46661
  0
LINE
  8
0
 10
77.5997
 20
2.46661
 11
77.5428
 21
2.53122
  0
LINE
  8
0
 10
77.5428
 20
2.53122
 11
77.474
 21
2.58446
  0
LINE
  8
0
 10
77.474
 20
2.58446
 11
77.3976
 21
2.62248
  0
LINE
  8
0
 10
77.3976
 20
2.62248
 11
77.3136
 21
2.64531
  0
LINE
  8
0
 10
77.3136
 20
2.64531
 11
77.2219
 21
2.65291
  0
LINE
  8
0
 10
77.2219
 20
2.65291
 11
77.1303
 21
2.64531
  0
LINE
  8
0
 10
77.1303
 20
2.64531
 11
77.0463
 21
2.62248
  0
LINE
  8
0
 10
77.0463
 20
2.62248
 11
76.9699
 21
2.58446
  0
LINE
  8
0
 10
76.9699
 20
2.58446
 11
76.9011
 21
2.53122
  0
LINE
  8
0
 10
76.9011
 20
2.53122
 11
76.8442
 21
2.46661
  0
LINE
  8
0
 10
76.8442
 20
2.46661
 11
76.8036
 21
2.39449
  0
LINE
  8
0
 10
76.8036
 20
2.39449
 11
76.7792
 21
2.31482
  0
LINE
  8
0
 10
76.7792
 20
2.31482
 11
76.7711
 21
2.22763
  0
LINE
  8
0
 10
76.7711
 20
2.22763
 11
76.7792
 21
2.14142
  0
LINE
  8
0
 10
76.7792
 20
2.14142
 11
76.8036
 21
2.06247
  0
LINE
  8
0
 10
76.8036
 20
2.06247
 11
76.8442
 21
1.99075
  0
LINE
  8
0
 10
76.8442
 20
1.99075
 11
76.9011
 21
1.9263
  0
LINE
  8
0
 10
76.9011
 20
1.9263
 11
76.9699
 21
1.87306
  0
LINE
  8
0
 10
76.9699
 20
1.87306
 11
77.0463
 21
1.83505
  0
LINE
  8
0
 10
77.0463
 20
1.83505
 11
77.1303
 21
1.81224
  0
LINE
  8
0
 10
77.1303
 20
1.81224
 11
77.2219
 21
1.80463
  0
LINE
  8
0
 10
77.2219
 20
1.80463
 11
77.3136
 21
1.81224
  0
LINE
  8
0
 10
55.5397
 20
1.81224
 11
55.6237
 21
1.83505
  0
LINE
  8
0
 10
55.6237
 20
1.83505
 11
55.7002
 21
1.87306
  0
LINE
  8
0
 10
55.7002
 20
1.87306
 11
55.769
 21
1.9263
  0
LINE
  8
0
 10
55.769
 20
1.9263
 11
55.8259
 21
1.99075
  0
LINE
  8
0
 10
55.8259
 20
1.99075
 11
55.8665
 21
2.06247
  0
LINE
  8
0
 10
55.8665
 20
2.06247
 11
55.8909
 21
2.14142
  0
LINE
  8
0
 10
55.8909
 20
2.14142
 11
55.899
 21
2.22763
  0
LINE
  8
0
 10
55.899
 20
2.22763
 11
55.8909
 21
2.31482
  0
LINE
  8
0
 10
55.8909
 20
2.31482
 11
55.8665
 21
2.39449
  0
LINE
  8
0
 10
55.8665
 20
2.39449
 11
55.8259
 21
2.46661
  0
LINE
  8
0
 10
55.8259
 20
2.46661
 11
55.769
 21
2.53122
  0
LINE
  8
0
 10
55.769
 20
2.53122
 11
55.7002
 21
2.58446
  0
LINE
  8
0
 10
55.7002
 20
2.58446
 11
55.6237
 21
2.62248
  0
LINE
  8
0
 10
55.6237
 20
2.62248
 11
55.5397
 21
2.64531
  0
LINE
  8
0
 10
55.5397
 20
2.64531
 11
55.4481
 21
2.65291
  0
LINE
  8
0
 10
55.4481
 20
2.65291
 11
55.3565
 21
2.64531
  0
LINE
  8
0
 10
55.3565
 20
2.64531
 11
55.2725
 21
2.62248
  0
LINE
  8
0
 10
55.2725
 20
2.62248
 11
55.1961
 21
2.58446
  0
LINE
  8
0
 10
55.1961
 20
2.58446
 11
55.1273
 21
2.53122
  0
LINE
  8
0
 10
55.1273
 20
2.53122
 11
55.0704
 21
2.46661
  0
LINE
  8
0
 10
55.0704
 20
2.46661
 11
55.0297
 21
2.39449
  0
LINE
  8
0
 10
55.0297
 20
2.39449
 11
55.0054
 21
2.31482
  0
LINE
  8
0
 10
55.0054
 20
2.31482
 11
54.9972
 21
2.22763
  0
LINE
  8
0
 10
54.9972
 20
2.22763
 11
55.0054
 21
2.14142
  0
LINE
  8
0
 10
55.0054
 20
2.14142
 11
55.0297
 21
2.06247
  0
LINE
  8
0
 10
55.0297
 20
2.06247
 11
55.0704
 21
1.99075
  0
LINE
  8
0
 10
55.0704
 20
1.99075
 11
55.1273
 21
1.9263
  0
LINE
  8
0
 10
55.1273
 20
1.9263
 11
55.1961
 21
1.87306
  0
LINE
  8
0
 10
55.1961
 20
1.87306
 11
55.2725
 21
1.83505
  0
LINE
  8
0
 10
55.2725
 20
1.83505
 11
55.3565
 21
1.81224
  0
LINE
  8
0
 10
55.3565
 20
1.81224
 11
55.4481
 21
1.80463
  0
LINE
  8
0
 10
55.4481
 20
1.80463
 11
55.5397
 21
1.81224
  0
ENDSEC
  0
SECTION
  2
OBJECTS
  0
DICTIONARY
  0
ENDSEC
  0
EOF
