999
JuSt Innovation - JuSt Innovation compact JS watermark - JSI-WM-001-R1
0
SECTION
2
HEADER
9
$ACADVER
1
AC1009
9
$INSUNITS
70
4
9
$MEASUREMENT
70
1
0
ENDSEC
0
SECTION
2
ENTITIES
0
POLYLINE
8
WATERMARK
66
1
70
1
0
VERTEX
8
WATERMARK
10
2.72505
20
-4.99394
30
0
0
VERTEX
8
WATERMARK
10
2.79241
20
-4.97593
30
0
0
VERTEX
8
WATERMARK
10
2.85561
20
-4.9465
30
0
0
VERTEX
8
WATERMARK
10
2.91275
20
-4.90654
30
0
0
VERTEX
8
WATERMARK
10
2.96207
20
-4.85727
30
0
0
VERTEX
8
WATERMARK
10
3.00216
20
-4.80009
30
0
0
VERTEX
8
WATERMARK
10
5.65798
20
-0.20008
30
0
0
VERTEX
8
WATERMARK
10
5.68389
20
-0.14631
30
0
0
VERTEX
8
WATERMARK
10
5.70154
20
-0.08919
30
0
0
VERTEX
8
WATERMARK
10
5.71047
20
-0.03008
30
0
0
VERTEX
8
WATERMARK
10
5.7105
20
0.0297
30
0
0
VERTEX
8
WATERMARK
10
5.70162
20
0.08882
30
0
0
VERTEX
8
WATERMARK
10
5.68402
20
0.14596
30
0
0
VERTEX
8
WATERMARK
10
5.65807
20
0.19992
30
0
0
VERTEX
8
WATERMARK
10
3.00227
20
4.79991
30
0
0
VERTEX
8
WATERMARK
10
2.96235
20
4.85694
30
0
0
VERTEX
8
WATERMARK
10
2.91308
20
4.90626
30
0
0
VERTEX
8
WATERMARK
10
2.85599
20
4.94628
30
0
0
VERTEX
8
WATERMARK
10
2.79282
20
4.97578
30
0
0
VERTEX
8
WATERMARK
10
2.72548
20
4.99387
30
0
0
VERTEX
8
WATERMARK
10
2.65592
20
4.99999
30
0
0
VERTEX
8
WATERMARK
10
-2.6557
20
5
30
0
0
VERTEX
8
WATERMARK
10
-2.72505
20
4.99394
30
0
0
VERTEX
8
WATERMARK
10
-2.79241
20
4.97593
30
0
0
VERTEX
8
WATERMARK
10
-2.85561
20
4.9465
30
0
0
VERTEX
8
WATERMARK
10
-2.91275
20
4.90654
30
0
0
VERTEX
8
WATERMARK
10
-2.96207
20
4.85727
30
0
0
VERTEX
8
WATERMARK
10
-3.00216
20
4.80009
30
0
0
VERTEX
8
WATERMARK
10
-5.65798
20
0.20009
30
0
0
VERTEX
8
WATERMARK
10
-5.6874
20
0.13701
30
0
0
VERTEX
8
WATERMARK
10
-5.70549
20
0.06967
30
0
0
VERTEX
8
WATERMARK
10
-5.7116
20
0.00022
30
0
0
VERTEX
8
WATERMARK
10
-5.70556
20
-0.06924
30
0
0
VERTEX
8
WATERMARK
10
-5.68755
20
-0.1366
30
0
0
VERTEX
8
WATERMARK
10
-5.65808
20
-0.1999
30
0
0
VERTEX
8
WATERMARK
10
-3.00219
20
-4.79997
30
0
0
VERTEX
8
WATERMARK
10
-2.65609
20
-4.99984
30
0
0
VERTEX
8
WATERMARK
10
2.6557
20
-5
30
0
0
SEQEND
8
WATERMARK
0
POLYLINE
8
WATERMARK
66
1
70
1
0
VERTEX
8
WATERMARK
10
-2.42328
20
-4.19983
30
0
0
VERTEX
8
WATERMARK
10
-2.42552
20
-4.19854
30
0
0
VERTEX
8
WATERMARK
10
-4.8488
20
-0.00129
30
0
0
VERTEX
8
WATERMARK
10
-4.8488
20
0.00129
30
0
0
VERTEX
8
WATERMARK
10
-3.54511
20
2.25834
30
0
0
VERTEX
8
WATERMARK
10
-3.54011
20
2.25834
30
0
0
VERTEX
8
WATERMARK
10
-3.53828
20
2.25651
30
0
0
VERTEX
8
WATERMARK
10
-3.52131
20
2.2013
30
0
0
VERTEX
8
WATERMARK
10
-3.49079
20
2.1406
30
0
0
VERTEX
8
WATERMARK
10
-3.45071
20
2.08627
30
0
0
VERTEX
8
WATERMARK
10
-3.40174
20
2.03918
30
0
0
VERTEX
8
WATERMARK
10
-3.34551
20
2.00106
30
0
0
VERTEX
8
WATERMARK
10
-3.28363
20
1.973
30
0
0
VERTEX
8
WATERMARK
10
-3.2179
20
1.95582
30
0
0
VERTEX
8
WATERMARK
10
-3.15011
20
1.95001
30
0
0
VERTEX
8
WATERMARK
10
-1.65371
20
1.94983
30
0
0
VERTEX
8
WATERMARK
10
-1.65017
20
1.94629
30
0
0
VERTEX
8
WATERMARK
10
-1.65
20
-1.09328
30
0
0
VERTEX
8
WATERMARK
10
-1.79423
20
-1.59817
30
0
0
VERTEX
8
WATERMARK
10
-2.17102
20
-1.84974
30
0
0
VERTEX
8
WATERMARK
10
-2.50664
20
-1.84983
30
0
0
VERTEX
8
WATERMARK
10
-2.78759
20
-1.5002
30
0
0
VERTEX
8
WATERMARK
10
-2.83045
20
-1.45448
30
0
0
VERTEX
8
WATERMARK
10
-2.88
20
-1.41595
30
0
0
VERTEX
8
WATERMARK
10
-2.93496
20
-1.38565
30
0
0
VERTEX
8
WATERMARK
10
-2.99399
20
-1.36431
30
0
0
VERTEX
8
WATERMARK
10
-3.05563
20
-1.35248
30
0
0
VERTEX
8
WATERMARK
10
-3.11837
20
-1.35043
30
0
0
VERTEX
8
WATERMARK
10
-3.18065
20
-1.35823
30
0
0
VERTEX
8
WATERMARK
10
-3.24094
20
-1.37566
30
0
0
VERTEX
8
WATERMARK
10
-3.29776
20
-1.40232
30
0
0
VERTEX
8
WATERMARK
10
-3.34972
20
-1.43754
30
0
0
VERTEX
8
WATERMARK
10
-3.39552
20
-1.48045
30
0
0
VERTEX
8
WATERMARK
10
-3.43405
20
-1.53
30
0
0
VERTEX
8
WATERMARK
10
-3.46435
20
-1.58496
30
0
0
VERTEX
8
WATERMARK
10
-3.48569
20
-1.64399
30
0
0
VERTEX
8
WATERMARK
10
-3.49752
20
-1.70563
30
0
0
VERTEX
8
WATERMARK
10
-3.49957
20
-1.76837
30
0
0
VERTEX
8
WATERMARK
10
-3.49177
20
-1.83065
30
0
0
VERTEX
8
WATERMARK
10
-3.47434
20
-1.89094
30
0
0
VERTEX
8
WATERMARK
10
-3.44768
20
-1.94776
30
0
0
VERTEX
8
WATERMARK
10
-3.41241
20
-1.9998
30
0
0
VERTEX
8
WATERMARK
10
-3.01241
20
-2.49981
30
0
0
VERTEX
8
WATERMARK
10
-2.97182
20
-2.54344
30
0
0
VERTEX
8
WATERMARK
10
-2.92514
20
-2.58061
30
0
0
VERTEX
8
WATERMARK
10
-2.87344
20
-2.61043
30
0
0
VERTEX
8
WATERMARK
10
-2.81788
20
-2.63222
30
0
0
VERTEX
8
WATERMARK
10
-2.7597
20
-2.64551
30
0
0
VERTEX
8
WATERMARK
10
-2.70009
20
-2.64999
30
0
0
VERTEX
8
WATERMARK
10
-2.05009
20
-2.65
30
0
0
VERTEX
8
WATERMARK
10
-1.99159
20
-2.6457
30
0
0
VERTEX
8
WATERMARK
10
-1.93427
20
-2.63288
30
0
0
VERTEX
8
WATERMARK
10
-1.87943
20
-2.6118
30
0
0
VERTEX
8
WATERMARK
10
-1.8282
20
-2.58287
30
0
0
VERTEX
8
WATERMARK
10
-1.22819
20
-2.18287
30
0
0
VERTEX
8
WATERMARK
10
-1.18372
20
-2.14847
30
0
0
VERTEX
8
WATERMARK
10
-1.14444
20
-2.10812
30
0
0
VERTEX
8
WATERMARK
10
-1.11122
20
-2.06265
30
0
0
VERTEX
8
WATERMARK
10
-1.08472
20
-2.01297
30
0
0
VERTEX
8
WATERMARK
10
-1.06542
20
-1.95997
30
0
0
VERTEX
8
WATERMARK
10
-0.86541
20
-1.25997
30
0
0
VERTEX
8
WATERMARK
10
-0.8539
20
-1.20565
30
0
0
VERTEX
8
WATERMARK
10
-0.85001
20
-1.15009
30
0
0
VERTEX
8
WATERMARK
10
-0.85
20
2.34989
30
0
0
VERTEX
8
WATERMARK
10
-0.85606
20
2.41924
30
0
0
VERTEX
8
WATERMARK
10
-0.87407
20
2.4866
30
0
0
VERTEX
8
WATERMARK
10
-0.9035
20
2.5498
30
0
0
VERTEX
8
WATERMARK
10
-0.94346
20
2.60694
30
0
0
VERTEX
8
WATERMARK
10
-0.99273
20
2.65626
30
0
0
VERTEX
8
WATERMARK
10
-1.04982
20
2.69628
30
0
0
VERTEX
8
WATERMARK
10
-1.11299
20
2.72578
30
0
0
VERTEX
8
WATERMARK
10
-1.18033
20
2.74387
30
0
0
VERTEX
8
WATERMARK
10
-1.24989
20
2.74999
30
0
0
VERTEX
8
WATERMARK
10
-3.1499
20
2.75
30
0
0
VERTEX
8
WATERMARK
10
-3.2122
20
2.74512
30
0
0
VERTEX
8
WATERMARK
10
-3.26326
20
2.7331
30
0
0
VERTEX
8
WATERMARK
10
-3.26574
20
2.73384
30
0
0
VERTEX
8
WATERMARK
10
-3.26812
20
2.73823
30
0
0
VERTEX
8
WATERMARK
10
-2.42552
20
4.19854
30
0
0
VERTEX
8
WATERMARK
10
-2.42328
20
4.19983
30
0
0
VERTEX
8
WATERMARK
10
2.42448
20
4.19933
30
0
0
VERTEX
8
WATERMARK
10
4.8488
20
0.00129
30
0
0
VERTEX
8
WATERMARK
10
4.8488
20
-0.00129
30
0
0
VERTEX
8
WATERMARK
10
2.42448
20
-4.19933
30
0
0
SEQEND
8
WATERMARK
0
POLYLINE
8
WATERMARK
66
1
70
1
0
VERTEX
8
WATERMARK
10
1.59992
20
-2.69686
30
0
0
VERTEX
8
WATERMARK
10
1.65697
20
-2.68543
30
0
0
VERTEX
8
WATERMARK
10
2.55696
20
-2.43544
30
0
0
VERTEX
8
WATERMARK
10
2.62105
20
-2.41156
30
0
0
VERTEX
8
WATERMARK
10
2.68024
20
-2.37707
30
0
0
VERTEX
8
WATERMARK
10
2.73276
20
-2.33291
30
0
0
VERTEX
8
WATERMARK
10
3.28278
20
-1.7829
30
0
0
VERTEX
8
WATERMARK
10
3.32028
20
-1.7396
30
0
0
VERTEX
8
WATERMARK
10
3.35127
20
-1.6913
30
0
0
VERTEX
8
WATERMARK
10
3.37503
20
-1.63907
30
0
0
VERTEX
8
WATERMARK
10
3.39109
20
-1.5839
30
0
0
VERTEX
8
WATERMARK
10
3.5411
20
-0.88391
30
0
0
VERTEX
8
WATERMARK
10
3.54961
20
-0.81717
30
0
0
VERTEX
8
WATERMARK
10
3.54682
20
-0.74983
30
0
0
VERTEX
8
WATERMARK
10
3.53277
20
-0.68392
30
0
0
VERTEX
8
WATERMARK
10
3.50781
20
-0.62121
30
0
0
VERTEX
8
WATERMARK
10
3.20781
20
-0.02119
30
0
0
VERTEX
8
WATERMARK
10
3.17831
20
0.02847
30
0
0
VERTEX
8
WATERMARK
10
3.14192
20
0.07345
30
0
0
VERTEX
8
WATERMARK
10
3.09942
20
0.1127
30
0
0
VERTEX
8
WATERMARK
10
3.05162
20
0.14546
30
0
0
VERTEX
8
WATERMARK
10
2.45163
20
0.49547
30
0
0
VERTEX
8
WATERMARK
10
2.40095
20
0.52041
30
0
0
VERTEX
8
WATERMARK
10
2.34709
20
0.53803
30
0
0
VERTEX
8
WATERMARK
10
1.59618
20
0.72577
30
0
0
VERTEX
8
WATERMARK
10
1.10763
20
0.98885
30
0
0
VERTEX
8
WATERMARK
10
0.93211
20
1.36869
30
0
0
VERTEX
8
WATERMARK
10
1.07434
20
1.76836
30
0
0
VERTEX
8
WATERMARK
10
1.54934
20
2.01987
30
0
0
VERTEX
8
WATERMARK
10
2.36308
20
2.02
30
0
0
VERTEX
8
WATERMARK
10
2.88594
20
1.7852
30
0
0
VERTEX
8
WATERMARK
10
2.94513
20
1.76401
30
0
0
VERTEX
8
WATERMARK
10
3.0068
20
1.75235
30
0
0
VERTEX
8
WATERMARK
10
3.06954
20
1.75049
30
0
0
VERTEX
8
WATERMARK
10
3.13141
20
1.75838
30
0
0
VERTEX
8
WATERMARK
10
3.19167
20
1.77594
30
0
0
VERTEX
8
WATERMARK
10
3.24844
20
1.80271
30
0
0
VERTEX
8
WATERMARK
10
3.30033
20
1.83803
30
0
0
VERTEX
8
WATERMARK
10
3.34605
20
1.88103
30
0
0
VERTEX
8
WATERMARK
10
3.38448
20
1.93065
30
0
0
VERTEX
8
WATERMARK
10
3.41468
20
1.98568
30
0
0
VERTEX
8
WATERMARK
10
3.43589
20
2.04475
30
0
0
VERTEX
8
WATERMARK
10
3.44761
20
2.10641
30
0
0
VERTEX
8
WATERMARK
10
3.44953
20
2.16915
30
0
0
VERTEX
8
WATERMARK
10
3.44162
20
2.23141
30
0
0
VERTEX
8
WATERMARK
10
3.42406
20
2.29167
30
0
0
VERTEX
8
WATERMARK
10
3.39729
20
2.34844
30
0
0
VERTEX
8
WATERMARK
10
3.36197
20
2.40033
30
0
0
VERTEX
8
WATERMARK
10
3.31897
20
2.44605
30
0
0
VERTEX
8
WATERMARK
10
3.26935
20
2.48448
30
0
0
VERTEX
8
WATERMARK
10
3.21424
20
2.51472
30
0
0
VERTEX
8
WATERMARK
10
2.61423
20
2.78473
30
0
0
VERTEX
8
WATERMARK
10
2.56144
20
2.80415
30
0
0
VERTEX
8
WATERMARK
10
2.50637
20
2.816
30
0
0
VERTEX
8
WATERMARK
10
2.45009
20
2.81999
30
0
0
VERTEX
8
WATERMARK
10
1.4501
20
2.82
30
0
0
VERTEX
8
WATERMARK
10
1.38565
20
2.81477
30
0
0
VERTEX
8
WATERMARK
10
1.32279
20
2.79922
30
0
0
VERTEX
8
WATERMARK
10
1.26317
20
2.77368
30
0
0
VERTEX
8
WATERMARK
10
0.56316
20
2.40368
30
0
0
VERTEX
8
WATERMARK
10
0.51303
20
2.37224
30
0
0
VERTEX
8
WATERMARK
10
0.46802
20
2.33368
30
0
0
VERTEX
8
WATERMARK
10
0.42919
20
2.2889
30
0
0
VERTEX
8
WATERMARK
10
0.39741
20
2.23887
30
0
0
VERTEX
8
WATERMARK
10
0.37334
20
2.18461
30
0
0
VERTEX
8
WATERMARK
10
0.12333
20
1.48462
30
0
0
VERTEX
8
WATERMARK
10
0.10709
20
1.42492
30
0
0
VERTEX
8
WATERMARK
10
0.10024
20
1.36333
30
0
0
VERTEX
8
WATERMARK
10
0.10298
20
1.30142
30
0
0
VERTEX
8
WATERMARK
10
0.11525
20
1.24068
30
0
0
VERTEX
8
WATERMARK
10
0.13679
20
1.18247
30
0
0
VERTEX
8
WATERMARK
10
0.43678
20
0.53247
30
0
0
VERTEX
8
WATERMARK
10
0.46831
20
0.47646
30
0
0
VERTEX
8
WATERMARK
10
0.50847
20
0.42615
30
0
0
VERTEX
8
WATERMARK
10
0.55617
20
0.38293
30
0
0
VERTEX
8
WATERMARK
10
0.61028
20
0.34786
30
0
0
VERTEX
8
WATERMARK
10
1.26029
20
-0.00215
30
0
0
VERTEX
8
WATERMARK
10
1.30542
20
-0.02295
30
0
0
VERTEX
8
WATERMARK
10
1.35292
20
-0.03804
30
0
0
VERTEX
8
WATERMARK
10
2.09831
20
-0.22459
30
0
0
VERTEX
8
WATERMARK
10
2.54527
20
-0.48552
30
0
0
VERTEX
8
WATERMARK
10
2.72912
20
-0.85305
30
0
0
VERTEX
8
WATERMARK
10
2.6335
20
-1.30047
30
0
0
VERTEX
8
WATERMARK
10
2.24145
20
-1.69261
30
0
0
VERTEX
8
WATERMARK
10
1.52941
20
-1.89057
30
0
0
VERTEX
8
WATERMARK
10
0.71566
20
-1.75543
30
0
0
VERTEX
8
WATERMARK
10
0.65342
20
-1.75003
30
0
0
VERTEX
8
WATERMARK
10
0.59081
20
-1.75442
30
0
0
VERTEX
8
WATERMARK
10
0.52966
20
-1.76854
30
0
0
VERTEX
8
WATERMARK
10
0.47147
20
-1.79207
30
0
0
VERTEX
8
WATERMARK
10
0.41767
20
-1.8244
30
0
0
VERTEX
8
WATERMARK
10
0.3696
20
-1.86476
30
0
0
VERTEX
8
WATERMARK
10
0.32843
20
-1.91213
30
0
0
VERTEX
8
WATERMARK
10
0.29518
20
-1.96537
30
0
0
VERTEX
8
WATERMARK
10
0.27066
20
-2.02315
30
0
0
VERTEX
8
WATERMARK
10
0.25549
20
-2.08405
30
0
0
VERTEX
8
WATERMARK
10
0.25003
20
-2.14658
30
0
0
VERTEX
8
WATERMARK
10
0.25442
20
-2.20919
30
0
0
VERTEX
8
WATERMARK
10
0.26854
20
-2.27034
30
0
0
VERTEX
8
WATERMARK
10
0.29207
20
-2.32853
30
0
0
VERTEX
8
WATERMARK
10
0.3244
20
-2.38233
30
0
0
VERTEX
8
WATERMARK
10
0.36476
20
-2.4304
30
0
0
VERTEX
8
WATERMARK
10
0.41213
20
-2.47157
30
0
0
VERTEX
8
WATERMARK
10
0.46537
20
-2.50482
30
0
0
VERTEX
8
WATERMARK
10
0.52315
20
-2.52934
30
0
0
VERTEX
8
WATERMARK
10
0.58414
20
-2.54454
30
0
0
VERTEX
8
WATERMARK
10
1.48415
20
-2.69455
30
0
0
VERTEX
8
WATERMARK
10
1.54191
20
-2.69991
30
0
0
SEQEND
8
WATERMARK
0
ENDSEC
0
EOF
